# Botball Lab: metres, +Y up, centred XZ, base Y=0
s off
v -0.0125000 0.0120000 -0.0075000
v 0.0125000 0.0120000 -0.0075000
v 0.0125000 0.0000000 -0.0075000
v -0.0125000 0.0000000 -0.0075000
v -0.0125000 0.0000000 0.0075000
v 0.0125000 0.0000000 0.0075000
v 0.0125000 0.0120000 0.0075000
v -0.0125000 0.0120000 0.0075000
v 0.0040000 0.0120000 0.0000000
v 0.0040000 0.0150000 0.0000000
v 0.0038637 0.0150000 0.0010353
v 0.0038637 0.0120000 0.0010353
v 0.0000000 0.0120000 0.0000000
v 0.0000000 0.0150000 0.0000000
v 0.0034641 0.0150000 0.0020000
v 0.0034641 0.0120000 0.0020000
v 0.0028284 0.0150000 0.0028284
v 0.0028284 0.0120000 0.0028284
v 0.0020000 0.0150000 0.0034641
v 0.0020000 0.0120000 0.0034641
v 0.0010353 0.0150000 0.0038637
v 0.0010353 0.0120000 0.0038637
v 0.0000000 0.0150000 0.0040000
v 0.0000000 0.0120000 0.0040000
v -0.0010353 0.0150000 0.0038637
v -0.0010353 0.0120000 0.0038637
v -0.0020000 0.0150000 0.0034641
v -0.0020000 0.0120000 0.0034641
v -0.0028284 0.0150000 0.0028284
v -0.0028284 0.0120000 0.0028284
v -0.0034641 0.0150000 0.0020000
v -0.0034641 0.0120000 0.0020000
v -0.0038637 0.0150000 0.0010353
v -0.0038637 0.0120000 0.0010353
v -0.0040000 0.0150000 0.0000000
v -0.0040000 0.0120000 0.0000000
v -0.0038637 0.0150000 -0.0010353
v -0.0038637 0.0120000 -0.0010353
v -0.0034641 0.0150000 -0.0020000
v -0.0034641 0.0120000 -0.0020000
v -0.0028284 0.0150000 -0.0028284
v -0.0028284 0.0120000 -0.0028284
v -0.0020000 0.0150000 -0.0034641
v -0.0020000 0.0120000 -0.0034641
v -0.0010353 0.0150000 -0.0038637
v -0.0010353 0.0120000 -0.0038637
v -0.0000000 0.0150000 -0.0040000
v -0.0000000 0.0120000 -0.0040000
v 0.0010353 0.0150000 -0.0038637
v 0.0010353 0.0120000 -0.0038637
v 0.0020000 0.0150000 -0.0034641
v 0.0020000 0.0120000 -0.0034641
v 0.0028284 0.0150000 -0.0028284
v 0.0028284 0.0120000 -0.0028284
v 0.0034641 0.0150000 -0.0020000
v 0.0034641 0.0120000 -0.0020000
v 0.0038637 0.0150000 -0.0010353
v 0.0038637 0.0120000 -0.0010353
f 1 2 3
f 1 3 4
f 5 6 7
f 5 7 8
f 4 3 6
f 4 6 5
f 2 1 8
f 2 8 7
f 3 2 7
f 3 7 6
f 1 4 5
f 1 5 8
f 9 10 11
f 9 11 12
f 10 14 11
f 9 12 13
f 12 11 15
f 12 15 16
f 11 14 15
f 12 16 13
f 16 15 17
f 16 17 18
f 15 14 17
f 16 18 13
f 18 17 19
f 18 19 20
f 17 14 19
f 18 20 13
f 20 19 21
f 20 21 22
f 19 14 21
f 20 22 13
f 22 21 23
f 22 23 24
f 21 14 23
f 22 24 13
f 24 23 25
f 24 25 26
f 23 14 25
f 24 26 13
f 26 25 27
f 26 27 28
f 25 14 27
f 26 28 13
f 28 27 29
f 28 29 30
f 27 14 29
f 28 30 13
f 30 29 31
f 30 31 32
f 29 14 31
f 30 32 13
f 32 31 33
f 32 33 34
f 31 14 33
f 32 34 13
f 34 33 35
f 34 35 36
f 33 14 35
f 34 36 13
f 36 35 37
f 36 37 38
f 35 14 37
f 36 38 13
f 38 37 39
f 38 39 40
f 37 14 39
f 38 40 13
f 40 39 41
f 40 41 42
f 39 14 41
f 40 42 13
f 42 41 43
f 42 43 44
f 41 14 43
f 42 44 13
f 44 43 45
f 44 45 46
f 43 14 45
f 44 46 13
f 46 45 47
f 46 47 48
f 45 14 47
f 46 48 13
f 48 47 49
f 48 49 50
f 47 14 49
f 48 50 13
f 50 49 51
f 50 51 52
f 49 14 51
f 50 52 13
f 52 51 53
f 52 53 54
f 51 14 53
f 52 54 13
f 54 53 55
f 54 55 56
f 53 14 55
f 54 56 13
f 56 55 57
f 56 57 58
f 55 14 57
f 56 58 13
f 58 57 10
f 58 10 9
f 57 14 10
f 58 9 13
