# Botball Lab: metres, +Y up, centred XZ, base Y=0
s off
v -0.0037500 0.0042500 -0.0600000
v -0.0022500 0.0042500 -0.0600000
v -0.0022500 0.0027500 -0.0600000
v -0.0037500 0.0027500 -0.0600000
v -0.0037500 0.0027500 0.0600000
v -0.0022500 0.0027500 0.0600000
v -0.0022500 0.0042500 0.0600000
v -0.0037500 0.0042500 0.0600000
v -0.0007500 0.0042500 -0.0600000
v 0.0007500 0.0042500 -0.0600000
v 0.0007500 0.0027500 -0.0600000
v -0.0007500 0.0027500 -0.0600000
v -0.0007500 0.0027500 0.0600000
v 0.0007500 0.0027500 0.0600000
v 0.0007500 0.0042500 0.0600000
v -0.0007500 0.0042500 0.0600000
v 0.0022500 0.0042500 -0.0600000
v 0.0037500 0.0042500 -0.0600000
v 0.0037500 0.0027500 -0.0600000
v 0.0022500 0.0027500 -0.0600000
v 0.0022500 0.0027500 0.0600000
v 0.0037500 0.0027500 0.0600000
v 0.0037500 0.0042500 0.0600000
v 0.0022500 0.0042500 0.0600000
v -0.0050000 0.0070000 -0.0650000
v 0.0050000 0.0070000 -0.0650000
v 0.0050000 0.0000000 -0.0650000
v -0.0050000 0.0000000 -0.0650000
v -0.0050000 0.0000000 -0.0550000
v 0.0050000 0.0000000 -0.0550000
v 0.0050000 0.0070000 -0.0550000
v -0.0050000 0.0070000 -0.0550000
v -0.0050000 0.0070000 0.0550000
v 0.0050000 0.0070000 0.0550000
v 0.0050000 0.0000000 0.0550000
v -0.0050000 0.0000000 0.0550000
v -0.0050000 0.0000000 0.0650000
v 0.0050000 0.0000000 0.0650000
v 0.0050000 0.0070000 0.0650000
v -0.0050000 0.0070000 0.0650000
f 1 2 3
f 1 3 4
f 5 6 7
f 5 7 8
f 4 3 6
f 4 6 5
f 2 1 8
f 2 8 7
f 3 2 7
f 3 7 6
f 1 4 5
f 1 5 8
f 9 10 11
f 9 11 12
f 13 14 15
f 13 15 16
f 12 11 14
f 12 14 13
f 10 9 16
f 10 16 15
f 11 10 15
f 11 15 14
f 9 12 13
f 9 13 16
f 17 18 19
f 17 19 20
f 21 22 23
f 21 23 24
f 20 19 22
f 20 22 21
f 18 17 24
f 18 24 23
f 19 18 23
f 19 23 22
f 17 20 21
f 17 21 24
f 25 26 27
f 25 27 28
f 29 30 31
f 29 31 32
f 28 27 30
f 28 30 29
f 26 25 32
f 26 32 31
f 27 26 31
f 27 31 30
f 25 28 29
f 25 29 32
f 33 34 35
f 33 35 36
f 37 38 39
f 37 39 40
f 36 35 38
f 36 38 37
f 34 33 40
f 34 40 39
f 35 34 39
f 35 39 38
f 33 36 37
f 33 37 40
