# Extracted from KIPR Simulator demobot_v6.glb; GPL-3.0
mtllib electronics_015.mtl
s off
usemtl material_0
v -0.0450874 0.0012676 0.0219622
v 0.0450874 0.0012676 0.0219622
v -0.0450874 0.0012676 -0.0219679
v 0.0450874 0.0012676 -0.0219679
v 0.0417826 0.0025352 0.0219622
v 0.0417826 0.0025352 0.0232355
v 0.0450874 0.0025352 0.0219622
v 0.0463550 0.0025352 0.0232355
v 0.0450874 0.0025352 0.0186574
v 0.0463550 0.0025352 0.0186574
v 0.0463550 0.0000000 -0.0232355
v -0.0463550 0.0000000 -0.0232355
v 0.0463550 0.0182953 -0.0232355
v -0.0463550 0.0182953 -0.0232355
v -0.0463550 0.0000000 -0.0232355
v -0.0463550 0.0000000 0.0232355
v -0.0463550 0.0182953 -0.0232355
v -0.0463550 0.0182953 0.0232355
v -0.0450874 0.0012676 0.0219622
v -0.0450874 0.0012676 -0.0219679
v -0.0450874 0.0170277 0.0219622
v -0.0450874 0.0170277 -0.0219679
v -0.0450874 0.0012676 -0.0219679
v 0.0450874 0.0012676 -0.0219679
v -0.0450874 0.0170277 -0.0219679
v 0.0450874 0.0170277 -0.0219679
v 0.0450874 0.0025352 0.0186574
v 0.0463550 0.0025352 0.0186574
v 0.0450874 0.0025805 0.0183405
v 0.0463550 0.0025805 0.0183405
v 0.0450874 0.0027163 0.0180236
v 0.0463550 0.0027163 0.0180236
v 0.0450874 0.0028974 0.0177973
v 0.0463550 0.0028974 0.0177973
v 0.0450874 0.0031690 0.0175709
v 0.0463550 0.0031690 0.0175709
v 0.0450874 0.0034859 0.0174351
v 0.0463550 0.0034859 0.0174351
v 0.0450874 0.0038028 0.0173898
v 0.0463550 0.0038028 0.0173898
v 0.0450874 0.0038028 0.0173898
v 0.0463550 0.0038028 0.0173898
v 0.0450874 0.0144925 0.0173898
v 0.0463550 0.0144925 0.0173898
v 0.0463550 0.0025352 0.0232355
v 0.0463550 0.0000000 0.0232355
v 0.0463550 0.0025352 0.0186574
v 0.0463550 0.0025805 0.0183405
v 0.0463550 0.0000000 -0.0232355
v 0.0463550 0.0027163 0.0180236
v 0.0463550 0.0028974 0.0177973
v 0.0463550 0.0031690 0.0175709
v 0.0463550 0.0034859 0.0174351
v 0.0463550 0.0038028 0.0173898
v 0.0463550 0.0144925 0.0173898
v 0.0463550 0.0182953 -0.0232355
v 0.0463550 0.0148094 0.0174351
v 0.0463550 0.0151263 0.0175709
v 0.0463550 0.0153526 0.0177973
v 0.0463550 0.0155790 0.0180236
v 0.0463550 0.0157148 0.0183405
v 0.0463550 0.0182953 0.0232355
v 0.0463550 0.0157601 0.0186574
v 0.0463550 0.0157601 0.0232355
v 0.0463550 0.0025352 0.0232355
v 0.0417826 0.0025352 0.0232355
v 0.0463550 0.0000000 0.0232355
v 0.0415110 0.0025805 0.0232355
v -0.0463550 0.0000000 0.0232355
v 0.0412393 0.0026710 0.0232355
v 0.0410130 0.0028068 0.0232355
v 0.0407866 0.0030332 0.0232355
v 0.0406508 0.0032595 0.0232355
v -0.0463550 0.0182953 0.0232355
v 0.0463550 0.0157601 0.0232355
v 0.0463550 0.0182953 0.0232355
v 0.0417826 0.0157601 0.0232355
v 0.0415110 0.0157148 0.0232355
v 0.0412393 0.0156243 0.0232355
v 0.0410130 0.0154885 0.0232355
v 0.0407866 0.0152621 0.0232355
v 0.0406508 0.0150357 0.0232355
v 0.0405603 0.0147641 0.0232355
v 0.0405150 0.0144925 0.0232355
v 0.0405150 0.0038028 0.0232355
v 0.0405603 0.0035312 0.0232355
v 0.0417826 0.0025352 0.0232355
v 0.0417826 0.0025352 0.0219622
v 0.0415110 0.0025805 0.0232355
v 0.0415110 0.0025805 0.0219622
v 0.0412393 0.0026710 0.0232355
v 0.0412393 0.0026710 0.0219622
v 0.0410130 0.0028068 0.0232355
v 0.0410130 0.0028068 0.0219622
v 0.0407866 0.0030332 0.0232355
v 0.0407866 0.0030332 0.0219622
v 0.0406508 0.0032595 0.0232355
v 0.0406508 0.0032595 0.0219622
v 0.0405603 0.0035312 0.0232355
v 0.0405603 0.0035312 0.0219622
v 0.0405150 0.0038028 0.0232355
v 0.0405150 0.0038028 0.0219622
v 0.0405150 0.0038028 0.0219622
v 0.0405150 0.0144925 0.0219622
v 0.0405150 0.0038028 0.0232355
v 0.0405150 0.0144925 0.0232355
v -0.0450874 0.0170277 0.0219622
v -0.0450874 0.0170277 -0.0219679
v 0.0450874 0.0170277 0.0219622
v 0.0450874 0.0170277 -0.0219679
v 0.0450874 0.0144925 0.0173898
v 0.0463550 0.0144925 0.0173898
v 0.0450874 0.0148094 0.0174351
v 0.0463550 0.0148094 0.0174351
v 0.0450874 0.0151263 0.0175709
v 0.0463550 0.0151263 0.0175709
v 0.0450874 0.0153526 0.0177973
v 0.0463550 0.0153526 0.0177973
v 0.0450874 0.0155790 0.0180236
v 0.0463550 0.0155790 0.0180236
v 0.0450874 0.0157148 0.0183405
v 0.0463550 0.0157148 0.0183405
v 0.0450874 0.0157601 0.0186574
v 0.0463550 0.0157601 0.0186574
v 0.0450874 0.0157601 0.0186574
v 0.0463550 0.0157601 0.0186574
v 0.0450874 0.0157601 0.0219622
v 0.0463550 0.0157601 0.0232355
v 0.0417826 0.0157601 0.0219622
v 0.0417826 0.0157601 0.0232355
v 0.0417826 0.0157601 0.0219622
v 0.0417826 0.0157601 0.0232355
v 0.0415110 0.0157148 0.0219622
v 0.0415110 0.0157148 0.0232355
v 0.0412393 0.0156243 0.0219622
v 0.0412393 0.0156243 0.0232355
v 0.0410130 0.0154885 0.0219622
v 0.0410130 0.0154885 0.0232355
v 0.0407866 0.0152621 0.0219622
v 0.0407866 0.0152621 0.0232355
v 0.0406508 0.0150357 0.0219622
v 0.0405150 0.0144925 0.0232355
v 0.0405150 0.0144925 0.0219622
v 0.0405603 0.0147641 0.0232355
v 0.0405603 0.0147641 0.0219622
v 0.0406508 0.0150357 0.0232355
v 0.0450874 0.0025352 0.0219622
v 0.0450874 0.0012676 0.0219622
v 0.0417826 0.0025352 0.0219622
v 0.0415110 0.0025805 0.0219622
v 0.0412393 0.0026710 0.0219622
v -0.0450874 0.0012676 0.0219622
v 0.0410130 0.0028068 0.0219622
v 0.0407866 0.0030332 0.0219622
v 0.0406508 0.0032595 0.0219622
v 0.0405603 0.0035312 0.0219622
v 0.0405150 0.0038028 0.0219622
v 0.0405150 0.0144925 0.0219622
v 0.0405603 0.0147641 0.0219622
v 0.0406508 0.0150357 0.0219622
v -0.0450874 0.0170277 0.0219622
v 0.0407866 0.0152621 0.0219622
v 0.0410130 0.0154885 0.0219622
v 0.0412393 0.0156243 0.0219622
v 0.0415110 0.0157148 0.0219622
v 0.0450874 0.0170277 0.0219622
v 0.0417826 0.0157601 0.0219622
v 0.0450874 0.0157601 0.0219622
v 0.0450874 0.0025352 0.0219622
v 0.0450874 0.0025352 0.0186574
v 0.0450874 0.0012676 0.0219622
v 0.0450874 0.0025805 0.0183405
v 0.0450874 0.0012676 -0.0219679
v 0.0450874 0.0027163 0.0180236
v 0.0450874 0.0028974 0.0177973
v 0.0450874 0.0031690 0.0175709
v 0.0450874 0.0034859 0.0174351
v 0.0450874 0.0038028 0.0173898
v 0.0450874 0.0170277 -0.0219679
v 0.0450874 0.0144925 0.0173898
v 0.0450874 0.0148094 0.0174351
v 0.0450874 0.0151263 0.0175709
v 0.0450874 0.0153526 0.0177973
v 0.0450874 0.0155790 0.0180236
v 0.0450874 0.0157148 0.0183405
v 0.0450874 0.0170277 0.0219622
v 0.0450874 0.0157601 0.0219622
v 0.0450874 0.0157601 0.0186574
f 1 2 3
f 2 4 3
f 5 6 7
f 6 8 7
f 7 8 9
f 8 10 9
f 11 12 13
f 12 14 13
f 15 16 17
f 16 18 17
f 19 20 21
f 20 22 21
f 23 24 25
f 24 26 25
f 27 28 29
f 28 30 29
f 29 30 31
f 30 32 31
f 31 32 33
f 32 34 33
f 33 34 35
f 34 36 35
f 35 36 37
f 36 38 37
f 37 38 39
f 38 40 39
f 41 42 43
f 42 44 43
f 45 46 47
f 47 46 48
f 46 49 48
f 48 49 50
f 50 49 51
f 51 49 52
f 52 49 53
f 53 49 54
f 54 49 55
f 49 56 55
f 55 56 57
f 57 56 58
f 58 56 59
f 59 56 60
f 60 56 61
f 56 62 61
f 61 62 63
f 62 64 63
f 65 66 67
f 66 68 67
f 67 68 69
f 68 70 69
f 70 71 69
f 71 72 69
f 72 73 69
f 69 73 74
f 75 76 77
f 77 76 78
f 78 76 79
f 76 74 79
f 79 74 80
f 80 74 81
f 81 74 82
f 82 74 83
f 83 74 84
f 84 74 85
f 85 74 86
f 74 73 86
f 87 88 89
f 88 90 89
f 89 90 91
f 90 92 91
f 91 92 93
f 92 94 93
f 93 94 95
f 94 96 95
f 95 96 97
f 96 98 97
f 97 98 99
f 98 100 99
f 99 100 101
f 100 102 101
f 103 104 105
f 104 106 105
f 107 108 109
f 108 110 109
f 111 112 113
f 112 114 113
f 113 114 115
f 114 116 115
f 115 116 117
f 116 118 117
f 117 118 119
f 118 120 119
f 119 120 121
f 120 122 121
f 121 122 123
f 122 124 123
f 125 126 127
f 126 128 127
f 127 128 129
f 128 130 129
f 131 132 133
f 132 134 133
f 133 134 135
f 134 136 135
f 135 136 137
f 136 138 137
f 137 138 139
f 138 140 139
f 139 140 141
f 142 143 144
f 143 145 144
f 144 145 146
f 145 141 146
f 141 140 146
f 147 148 149
f 149 148 150
f 150 148 151
f 148 152 151
f 151 152 153
f 153 152 154
f 154 152 155
f 155 152 156
f 156 152 157
f 157 152 158
f 158 152 159
f 159 152 160
f 152 161 160
f 160 161 162
f 162 161 163
f 163 161 164
f 164 161 165
f 161 166 165
f 165 166 167
f 166 168 167
f 169 170 171
f 170 172 171
f 171 172 173
f 172 174 173
f 174 175 173
f 175 176 173
f 176 177 173
f 177 178 173
f 173 178 179
f 178 180 179
f 180 181 179
f 181 182 179
f 182 183 179
f 183 184 179
f 184 185 179
f 179 185 186
f 187 186 188
f 186 185 188
usemtl material_1
v 0.0463550 0.0000000 -0.0232355
v 0.0463550 0.0000000 0.0232355
v -0.0463550 0.0000000 -0.0232355
v -0.0463550 0.0000000 0.0232355
f 189 190 191
f 190 192 191
usemtl material_2
v 0.0463550 0.0182880 0.0232355
v 0.0463550 0.0182880 -0.0232355
v -0.0463550 0.0182880 0.0232355
v -0.0463550 0.0182880 -0.0232355
f 193 194 195
f 194 196 195
