# Botball Lab: metres, +Y up, centred XZ, base Y=0
mtllib electronics_011.mtl
s off
v -0.0110000 0.0006000 0.0049000
v -0.0110000 0.0192000 0.0049000
v -0.0110000 0.0192000 -0.0049000
v -0.0110000 0.0006000 -0.0049000
v 0.0110000 0.0006000 -0.0049000
v 0.0110000 0.0192000 -0.0049000
v 0.0110000 0.0192000 0.0049000
v 0.0110000 0.0006000 0.0049000
v -0.0104000 0.0000000 -0.0049000
v 0.0104000 0.0000000 -0.0049000
v 0.0104000 0.0000000 0.0049000
v -0.0104000 0.0000000 0.0049000
v -0.0104000 0.0198000 0.0049000
v 0.0104000 0.0198000 0.0049000
v 0.0104000 0.0198000 -0.0049000
v -0.0104000 0.0198000 -0.0049000
v -0.0104000 0.0192000 -0.0055000
v 0.0104000 0.0192000 -0.0055000
v 0.0104000 0.0006000 -0.0055000
v -0.0104000 0.0006000 -0.0055000
v -0.0104000 0.0006000 0.0055000
v 0.0104000 0.0006000 0.0055000
v 0.0104000 0.0192000 0.0055000
v -0.0104000 0.0192000 0.0055000
v -0.0148500 0.0027225 0.0038775
v -0.0148500 0.0038775 0.0038775
v -0.0148500 0.0038775 -0.0038775
v -0.0148500 0.0027225 -0.0038775
v 0.0148500 0.0027225 -0.0038775
v 0.0148500 0.0038775 -0.0038775
v 0.0148500 0.0038775 0.0038775
v 0.0148500 0.0027225 0.0038775
v -0.0146025 0.0024750 -0.0038775
v 0.0146025 0.0024750 -0.0038775
v 0.0146025 0.0024750 0.0038775
v -0.0146025 0.0024750 0.0038775
v -0.0146025 0.0041250 0.0038775
v 0.0146025 0.0041250 0.0038775
v 0.0146025 0.0041250 -0.0038775
v -0.0146025 0.0041250 -0.0038775
v -0.0146025 0.0038775 -0.0041250
v 0.0146025 0.0038775 -0.0041250
v 0.0146025 0.0027225 -0.0041250
v -0.0146025 0.0027225 -0.0041250
v -0.0146025 0.0027225 0.0041250
v 0.0146025 0.0027225 0.0041250
v 0.0146025 0.0038775 0.0041250
v -0.0146025 0.0038775 0.0041250
v 0.0044000 0.0198000 0.0000000
v 0.0044000 0.0220000 0.0000000
v 0.0043788 0.0220000 0.0004313
v 0.0043788 0.0198000 0.0004313
v 0.0008250 0.0198000 0.0000000
v 0.0008210 0.0198000 0.0000809
v 0.0008210 0.0220000 0.0000809
v 0.0008250 0.0220000 0.0000000
v 0.0043155 0.0220000 0.0008584
v 0.0043155 0.0198000 0.0008584
v 0.0008091 0.0198000 0.0001609
v 0.0008091 0.0220000 0.0001609
v 0.0042105 0.0220000 0.0012773
v 0.0042105 0.0198000 0.0012773
v 0.0007895 0.0198000 0.0002395
v 0.0007895 0.0220000 0.0002395
v 0.0040651 0.0220000 0.0016838
v 0.0040651 0.0198000 0.0016838
v 0.0007622 0.0198000 0.0003157
v 0.0007622 0.0220000 0.0003157
v 0.0038805 0.0220000 0.0020741
v 0.0038805 0.0198000 0.0020741
v 0.0007276 0.0198000 0.0003889
v 0.0007276 0.0220000 0.0003889
v 0.0036585 0.0220000 0.0024445
v 0.0036585 0.0198000 0.0024445
v 0.0006860 0.0198000 0.0004583
v 0.0006860 0.0220000 0.0004583
v 0.0034012 0.0220000 0.0027913
v 0.0034012 0.0198000 0.0027913
v 0.0006377 0.0198000 0.0005234
v 0.0006377 0.0220000 0.0005234
v 0.0031113 0.0220000 0.0031113
v 0.0031113 0.0198000 0.0031113
v 0.0005834 0.0198000 0.0005834
v 0.0005834 0.0220000 0.0005834
v 0.0027913 0.0220000 0.0034012
v 0.0027913 0.0198000 0.0034012
v 0.0005234 0.0198000 0.0006377
v 0.0005234 0.0220000 0.0006377
v 0.0024445 0.0220000 0.0036585
v 0.0024445 0.0198000 0.0036585
v 0.0004583 0.0198000 0.0006860
v 0.0004583 0.0220000 0.0006860
v 0.0020741 0.0220000 0.0038805
v 0.0020741 0.0198000 0.0038805
v 0.0003889 0.0198000 0.0007276
v 0.0003889 0.0220000 0.0007276
v 0.0016838 0.0220000 0.0040651
v 0.0016838 0.0198000 0.0040651
v 0.0003157 0.0198000 0.0007622
v 0.0003157 0.0220000 0.0007622
v 0.0012773 0.0220000 0.0042105
v 0.0012773 0.0198000 0.0042105
v 0.0002395 0.0198000 0.0007895
v 0.0002395 0.0220000 0.0007895
v 0.0008584 0.0220000 0.0043155
v 0.0008584 0.0198000 0.0043155
v 0.0001609 0.0198000 0.0008091
v 0.0001609 0.0220000 0.0008091
v 0.0004313 0.0220000 0.0043788
v 0.0004313 0.0198000 0.0043788
v 0.0000809 0.0198000 0.0008210
v 0.0000809 0.0220000 0.0008210
v 0.0000000 0.0220000 0.0044000
v 0.0000000 0.0198000 0.0044000
v 0.0000000 0.0198000 0.0008250
v 0.0000000 0.0220000 0.0008250
v -0.0004313 0.0220000 0.0043788
v -0.0004313 0.0198000 0.0043788
v -0.0000809 0.0198000 0.0008210
v -0.0000809 0.0220000 0.0008210
v -0.0008584 0.0220000 0.0043155
v -0.0008584 0.0198000 0.0043155
v -0.0001609 0.0198000 0.0008091
v -0.0001609 0.0220000 0.0008091
v -0.0012773 0.0220000 0.0042105
v -0.0012773 0.0198000 0.0042105
v -0.0002395 0.0198000 0.0007895
v -0.0002395 0.0220000 0.0007895
v -0.0016838 0.0220000 0.0040651
v -0.0016838 0.0198000 0.0040651
v -0.0003157 0.0198000 0.0007622
v -0.0003157 0.0220000 0.0007622
v -0.0020741 0.0220000 0.0038805
v -0.0020741 0.0198000 0.0038805
v -0.0003889 0.0198000 0.0007276
v -0.0003889 0.0220000 0.0007276
v -0.0024445 0.0220000 0.0036585
v -0.0024445 0.0198000 0.0036585
v -0.0004583 0.0198000 0.0006860
v -0.0004583 0.0220000 0.0006860
v -0.0027913 0.0220000 0.0034012
v -0.0027913 0.0198000 0.0034012
v -0.0005234 0.0198000 0.0006377
v -0.0005234 0.0220000 0.0006377
v -0.0031113 0.0220000 0.0031113
v -0.0031113 0.0198000 0.0031113
v -0.0005834 0.0198000 0.0005834
v -0.0005834 0.0220000 0.0005834
v -0.0034012 0.0220000 0.0027913
v -0.0034012 0.0198000 0.0027913
v -0.0006377 0.0198000 0.0005234
v -0.0006377 0.0220000 0.0005234
v -0.0036585 0.0220000 0.0024445
v -0.0036585 0.0198000 0.0024445
v -0.0006860 0.0198000 0.0004583
v -0.0006860 0.0220000 0.0004583
v -0.0038805 0.0220000 0.0020741
v -0.0038805 0.0198000 0.0020741
v -0.0007276 0.0198000 0.0003889
v -0.0007276 0.0220000 0.0003889
v -0.0040651 0.0220000 0.0016838
v -0.0040651 0.0198000 0.0016838
v -0.0007622 0.0198000 0.0003157
v -0.0007622 0.0220000 0.0003157
v -0.0042105 0.0220000 0.0012773
v -0.0042105 0.0198000 0.0012773
v -0.0007895 0.0198000 0.0002395
v -0.0007895 0.0220000 0.0002395
v -0.0043155 0.0220000 0.0008584
v -0.0043155 0.0198000 0.0008584
v -0.0008091 0.0198000 0.0001609
v -0.0008091 0.0220000 0.0001609
v -0.0043788 0.0220000 0.0004313
v -0.0043788 0.0198000 0.0004313
v -0.0008210 0.0198000 0.0000809
v -0.0008210 0.0220000 0.0000809
v -0.0044000 0.0220000 0.0000000
v -0.0044000 0.0198000 0.0000000
v -0.0008250 0.0198000 0.0000000
v -0.0008250 0.0220000 0.0000000
v -0.0043788 0.0220000 -0.0004313
v -0.0043788 0.0198000 -0.0004313
v -0.0008210 0.0198000 -0.0000809
v -0.0008210 0.0220000 -0.0000809
v -0.0043155 0.0220000 -0.0008584
v -0.0043155 0.0198000 -0.0008584
v -0.0008091 0.0198000 -0.0001609
v -0.0008091 0.0220000 -0.0001609
v -0.0042105 0.0220000 -0.0012773
v -0.0042105 0.0198000 -0.0012773
v -0.0007895 0.0198000 -0.0002395
v -0.0007895 0.0220000 -0.0002395
v -0.0040651 0.0220000 -0.0016838
v -0.0040651 0.0198000 -0.0016838
v -0.0007622 0.0198000 -0.0003157
v -0.0007622 0.0220000 -0.0003157
v -0.0038805 0.0220000 -0.0020741
v -0.0038805 0.0198000 -0.0020741
v -0.0007276 0.0198000 -0.0003889
v -0.0007276 0.0220000 -0.0003889
v -0.0036585 0.0220000 -0.0024445
v -0.0036585 0.0198000 -0.0024445
v -0.0006860 0.0198000 -0.0004583
v -0.0006860 0.0220000 -0.0004583
v -0.0034012 0.0220000 -0.0027913
v -0.0034012 0.0198000 -0.0027913
v -0.0006377 0.0198000 -0.0005234
v -0.0006377 0.0220000 -0.0005234
v -0.0031113 0.0220000 -0.0031113
v -0.0031113 0.0198000 -0.0031113
v -0.0005834 0.0198000 -0.0005834
v -0.0005834 0.0220000 -0.0005834
v -0.0027913 0.0220000 -0.0034012
v -0.0027913 0.0198000 -0.0034012
v -0.0005234 0.0198000 -0.0006377
v -0.0005234 0.0220000 -0.0006377
v -0.0024445 0.0220000 -0.0036585
v -0.0024445 0.0198000 -0.0036585
v -0.0004583 0.0198000 -0.0006860
v -0.0004583 0.0220000 -0.0006860
v -0.0020741 0.0220000 -0.0038805
v -0.0020741 0.0198000 -0.0038805
v -0.0003889 0.0198000 -0.0007276
v -0.0003889 0.0220000 -0.0007276
v -0.0016838 0.0220000 -0.0040651
v -0.0016838 0.0198000 -0.0040651
v -0.0003157 0.0198000 -0.0007622
v -0.0003157 0.0220000 -0.0007622
v -0.0012773 0.0220000 -0.0042105
v -0.0012773 0.0198000 -0.0042105
v -0.0002395 0.0198000 -0.0007895
v -0.0002395 0.0220000 -0.0007895
v -0.0008584 0.0220000 -0.0043155
v -0.0008584 0.0198000 -0.0043155
v -0.0001609 0.0198000 -0.0008091
v -0.0001609 0.0220000 -0.0008091
v -0.0004313 0.0220000 -0.0043788
v -0.0004313 0.0198000 -0.0043788
v -0.0000809 0.0198000 -0.0008210
v -0.0000809 0.0220000 -0.0008210
v -0.0000000 0.0220000 -0.0044000
v -0.0000000 0.0198000 -0.0044000
v -0.0000000 0.0198000 -0.0008250
v -0.0000000 0.0220000 -0.0008250
v 0.0004313 0.0220000 -0.0043788
v 0.0004313 0.0198000 -0.0043788
v 0.0000809 0.0198000 -0.0008210
v 0.0000809 0.0220000 -0.0008210
v 0.0008584 0.0220000 -0.0043155
v 0.0008584 0.0198000 -0.0043155
v 0.0001609 0.0198000 -0.0008091
v 0.0001609 0.0220000 -0.0008091
v 0.0012773 0.0220000 -0.0042105
v 0.0012773 0.0198000 -0.0042105
v 0.0002395 0.0198000 -0.0007895
v 0.0002395 0.0220000 -0.0007895
v 0.0016838 0.0220000 -0.0040651
v 0.0016838 0.0198000 -0.0040651
v 0.0003157 0.0198000 -0.0007622
v 0.0003157 0.0220000 -0.0007622
v 0.0020741 0.0220000 -0.0038805
v 0.0020741 0.0198000 -0.0038805
v 0.0003889 0.0198000 -0.0007276
v 0.0003889 0.0220000 -0.0007276
v 0.0024445 0.0220000 -0.0036585
v 0.0024445 0.0198000 -0.0036585
v 0.0004583 0.0198000 -0.0006860
v 0.0004583 0.0220000 -0.0006860
v 0.0027913 0.0220000 -0.0034012
v 0.0027913 0.0198000 -0.0034012
v 0.0005234 0.0198000 -0.0006377
v 0.0005234 0.0220000 -0.0006377
v 0.0031113 0.0220000 -0.0031113
v 0.0031113 0.0198000 -0.0031113
v 0.0005834 0.0198000 -0.0005834
v 0.0005834 0.0220000 -0.0005834
v 0.0034012 0.0220000 -0.0027913
v 0.0034012 0.0198000 -0.0027913
v 0.0006377 0.0198000 -0.0005234
v 0.0006377 0.0220000 -0.0005234
v 0.0036585 0.0220000 -0.0024445
v 0.0036585 0.0198000 -0.0024445
v 0.0006860 0.0198000 -0.0004583
v 0.0006860 0.0220000 -0.0004583
v 0.0038805 0.0220000 -0.0020741
v 0.0038805 0.0198000 -0.0020741
v 0.0007276 0.0198000 -0.0003889
v 0.0007276 0.0220000 -0.0003889
v 0.0040651 0.0220000 -0.0016838
v 0.0040651 0.0198000 -0.0016838
v 0.0007622 0.0198000 -0.0003157
v 0.0007622 0.0220000 -0.0003157
v 0.0042105 0.0220000 -0.0012773
v 0.0042105 0.0198000 -0.0012773
v 0.0007895 0.0198000 -0.0002395
v 0.0007895 0.0220000 -0.0002395
v 0.0043155 0.0220000 -0.0008584
v 0.0043155 0.0198000 -0.0008584
v 0.0008091 0.0198000 -0.0001609
v 0.0008091 0.0220000 -0.0001609
v 0.0043788 0.0220000 -0.0004313
v 0.0043788 0.0198000 -0.0004313
v 0.0008210 0.0198000 -0.0000809
v 0.0008210 0.0220000 -0.0000809
usemtl plastic
vn -0.9991258 -0.0303234 0.0287763
vn -0.9940409 0.0277697 0.1054114
vn -0.9991258 0.0303234 -0.0287763
vn -0.9940409 -0.0277697 -0.1054114
vn 0.9991258 -0.0303234 -0.0287763
vn 0.9940409 0.0277697 -0.1054114
vn 0.9991258 0.0303234 0.0287763
vn 0.9940409 -0.0277697 0.1054114
vn -0.0272058 -0.9992128 -0.0288715
vn 0.0249071 -0.9940831 -0.1057283
vn 0.0272058 -0.9992128 0.0288715
vn -0.0249071 -0.9940831 0.1057283
vn -0.0272058 0.9992128 0.0288715
vn 0.0249071 0.9940831 0.1057283
vn 0.0272058 0.9992128 -0.0288715
vn -0.0249071 0.9940831 -0.1057283
vn -0.0275908 0.0154271 -0.9995002
vn 0.026328 0.0588842 -0.9979176
vn 0.0275908 -0.0154271 -0.9995002
vn -0.026328 -0.0588842 -0.9979176
vn -0.0275908 -0.0154271 0.9995002
vn 0.026328 -0.0588842 0.9979176
vn 0.0275908 0.0154271 0.9995002
vn -0.026328 0.0588842 0.9979176
vn -0.0008717 -0.0613109 -0.9981183
vn 0.0004576 -0.0163212 -0.9998667
vn 0.0015615 -0.99395 -0.109822
vn -0.0008557 -0.9995338 -0.0305194
vn -0.0015615 -0.99395 0.109822
vn 0.0008557 -0.9995338 0.0305194
vn 0.0008717 -0.0613109 0.9981183
vn -0.0004576 -0.0163212 0.9998667
vn -0.0015615 0.99395 -0.109822
vn 0.0008557 0.9995338 -0.0305194
vn 0.0008717 0.0613109 -0.9981183
vn -0.0004576 0.0163212 -0.9998667
vn -0.0008717 0.0613109 0.9981183
vn 0.0004576 0.0163212 0.9998667
vn 0.0015615 0.99395 0.109822
vn -0.0008557 0.9995338 0.0305194
vn -0.9939318 -0.0017458 -0.1099843
vn -0.9995307 0.0009568 -0.0306174
vn -0.0284652 0.0004518 -0.9995947
vn -0.0289036 -0.0009032 -0.9995818
vn -0.0284652 -0.0004518 0.9995947
vn -0.0289036 0.0009032 0.9995818
vn -0.9939318 0.0017458 0.1099843
vn -0.9995307 -0.0009568 0.0306174
vn 0.0284652 -0.0004518 -0.9995947
vn 0.0289036 0.0009032 -0.9995818
vn 0.9939318 0.0017458 -0.1099843
vn 0.9995307 -0.0009568 -0.0306174
vn 0.9939318 -0.0017458 0.1099843
vn 0.9995307 0.0009568 0.0306174
vn 0.0284652 0.0004518 0.9995947
vn 0.0289036 -0.0009032 0.9995818
vn -0.0288589 -0.9995831 -0.0008572
vn -0.0296898 -0.9995577 0.0017129
vn -0.9994823 -0.0321592 0.0009552
vn -0.9994508 -0.0330818 -0.0019086
vn -0.9994823 0.0321592 -0.0009552
vn -0.9994508 0.0330818 0.0019086
vn -0.0288589 0.9995831 0.0008572
vn -0.0296898 0.9995577 -0.0017129
vn 0.9994823 -0.0321592 -0.0009552
vn 0.9994508 -0.0330818 0.0019086
vn 0.0288589 -0.9995831 0.0008572
vn 0.0296898 -0.9995577 -0.0017129
vn 0.0288589 0.9995831 -0.0008572
vn 0.0296898 0.9995577 0.0017129
vn 0.9994823 0.0321592 0.0009552
vn 0.9994508 0.0330818 -0.0019086
vn -0.2511119 -0.5519231 -0.7951878
vn -0.4002551 -0.812399 -0.4240327
vn -0.7718937 -0.168649 -0.6129744
vn -0.8121991 -0.4228459 0.4019129
vn -0.1534564 -0.7672822 0.622679
vn -0.518209 -0.2933776 0.8033611
vn -0.8121991 0.4228459 -0.4019129
vn -0.1534564 0.7672822 -0.622679
vn -0.518209 0.2933776 -0.8033611
vn -0.2511119 0.5519231 0.7951878
vn -0.4002551 0.812399 0.4240327
vn -0.7718937 0.168649 0.6129744
vn 0.8121991 -0.4228459 -0.4019129
vn 0.1534564 -0.7672822 -0.622679
vn 0.518209 -0.2933776 -0.8033611
vn 0.2511119 -0.5519231 0.7951878
vn 0.4002551 -0.812399 0.4240327
vn 0.7718937 -0.168649 0.6129744
vn 0.2511119 0.5519231 -0.7951878
vn 0.4002551 0.812399 -0.4240327
vn 0.7718937 0.168649 -0.6129744
vn 0.8121991 0.4228459 0.4019129
vn 0.1534564 0.7672822 0.622679
vn 0.518209 0.2933776 0.8033611
vn -0.9850866 -0.171584 0.0127775
vn -0.9850409 0.1651495 0.0491935
vn -0.9850866 0.171584 -0.0127775
vn -0.9850409 -0.1651495 -0.0491935
vn 0.9850866 -0.171584 -0.0127775
vn 0.9850409 0.1651495 -0.0491935
vn 0.9850866 0.171584 0.0127775
vn 0.9850409 -0.1651495 0.0491935
vn -0.0082712 -0.9998445 -0.0155745
vn 0.0078889 -0.998202 -0.0594188
vn 0.0082712 -0.9998445 0.0155745
vn -0.0078889 -0.998202 0.0594188
vn -0.0082712 0.9998445 0.0155745
vn 0.0078889 0.998202 0.0594188
vn 0.0082712 0.9998445 -0.0155745
vn -0.0078889 0.998202 -0.0594188
vn -0.0075613 0.0955965 -0.9953915
vn 0.0056512 0.2857876 -0.9582763
vn 0.0075613 -0.0955965 -0.9953915
vn -0.0056512 -0.2857876 -0.9582763
vn -0.0075613 -0.0955965 0.9953915
vn 0.0056512 -0.2857876 0.9582763
vn 0.0075613 0.0955965 0.9953915
vn -0.0056512 0.2857876 0.9582763
vn -0.0012157 -0.2881283 -0.957591
vn 0.0008156 -0.097054 -0.9952788
vn 0.0002537 -0.9981905 -0.0601299
vn -0.0001331 -0.9998746 -0.0158358
vn -0.0002537 -0.9981905 0.0601299
vn 0.0001331 -0.9998746 0.0158358
vn 0.0012157 -0.2881283 0.957591
vn -0.0008156 -0.097054 0.9952788
vn -0.0002537 0.9981905 -0.0601299
vn 0.0001331 0.9998746 -0.0158358
vn 0.0012157 0.2881283 -0.957591
vn -0.0008156 0.097054 -0.9952788
vn -0.0012157 0.2881283 0.957591
vn 0.0008156 0.097054 0.9952788
vn 0.0002537 0.9981905 0.0601299
vn -0.0001331 0.9998746 0.0158358
vn -0.9978085 -0.0063735 -0.0658596
vn -0.9998138 0.0033538 -0.019005
vn -0.0092949 0.0008995 -0.9999564
vn -0.0101852 -0.0017974 -0.9999465
vn -0.0092949 -0.0008995 0.9999564
vn -0.0101852 0.0017974 0.9999465
vn -0.9978085 0.0063735 0.0658596
vn -0.9998138 -0.0033538 0.019005
vn 0.0092949 -0.0008995 -0.9999564
vn 0.0101852 0.0017974 -0.9999465
vn 0.9978085 0.0063735 -0.0658596
vn 0.9998138 -0.0033538 -0.019005
vn 0.9978085 -0.0063735 0.0658596
vn 0.9998138 0.0033538 0.019005
vn 0.0092949 0.0008995 0.9999564
vn 0.0101852 -0.0017974 0.9999465
vn -0.008536 -0.9999636 -0.0001341
vn -0.0086689 -0.9999624 0.0002681
vn -0.9843877 -0.1759919 0.0027643
vn -0.9839821 -0.1781822 -0.0055108
vn -0.9843877 0.1759919 -0.0027643
vn -0.9839821 0.1781822 0.0055108
vn -0.008536 0.9999636 0.0001341
vn -0.0086689 0.9999624 -0.0002681
vn 0.9843877 -0.1759919 -0.0027643
vn 0.9839821 -0.1781822 0.0055108
vn 0.008536 -0.9999636 0.0001341
vn 0.0086689 -0.9999624 -0.0002681
vn 0.008536 0.9999636 -0.0001341
vn 0.0086689 0.9999624 0.0002681
vn 0.9843877 0.1759919 0.0027643
vn 0.9839821 0.1781822 -0.0055108
vn -0.0167389 -0.7000816 -0.7138666
vn -0.2813223 -0.8027258 -0.5258222
vn -0.7752916 -0.6016263 -0.1922723
vn -0.7303054 -0.6804309 0.0605619
vn -0.0899477 -0.7464736 0.6593077
vn -0.0589397 -0.6787575 0.7319934
vn -0.7303054 0.6804309 -0.0605619
vn -0.0899477 0.7464736 -0.6593077
vn -0.0589397 0.6787575 -0.7319934
vn -0.0167389 0.7000816 0.7138666
vn -0.2813223 0.8027258 0.5258222
vn -0.7752916 0.6016263 0.1922723
vn 0.7303054 -0.6804309 -0.0605619
vn 0.0899477 -0.7464736 -0.6593077
vn 0.0589397 -0.6787575 -0.7319934
vn 0.0167389 -0.7000816 0.7138666
vn 0.2813223 -0.8027258 0.5258222
vn 0.7752916 -0.6016263 0.1922723
vn 0.0167389 0.7000816 -0.7138666
vn 0.2813223 0.8027258 -0.5258222
vn 0.7752916 0.6016263 -0.1922723
vn 0.7303054 0.6804309 0.0605619
vn 0.0899477 0.7464736 0.6593077
vn 0.0589397 0.6787575 0.7319934
vn 0.9998658 0.0 0.0163824
vn 0.9998658 0.0 -0.0163824
vn 0.9966583 0.0 0.0816832
vn 0.9934552 0.0 0.1142222
vn -0.9998642 0.0 -0.016479
vn -0.9934071 0.0 -0.1146398
vn -0.9966305 0.0 -0.0820221
vn -0.9998642 0.0 0.016479
vn 0.0 1.0 0.0
vn 0.0 -1.0 0.0
vn 0.9838526 0.0 0.1789806
vn 0.9774448 0.0 0.2111911
vn -0.9775726 0.0 -0.2105985
vn -0.9838567 0.0 -0.178958
vn 0.9615473 0.0 0.2746395
vn 0.9520663 0.0 0.3058916
vn -0.9520886 0.0 -0.3058224
vn -0.9617258 0.0 -0.2740136
vn 0.9300461 0.0 0.3674428
vn 0.917502 0.0 0.3977311
vn -0.9174955 0.0 -0.3977462
vn -0.9299476 0.0 -0.3676921
vn 0.8895212 0.0 0.4568939
vn 0.874088 0.0 0.4857676
vn -0.8741184 0.0 -0.4857129
vn -0.8895942 0.0 -0.4567518
vn 0.8404295 0.0 0.5419209
vn 0.8221978 0.0 0.5692019
vn -0.8221625 0.0 -0.5692528
vn -0.8403875 0.0 -0.541986
vn 0.783268 0.0 0.6216842
vn 0.7625796 0.0 0.6468944
vn -0.7628232 0.0 -0.6466071
vn -0.7833939 0.0 -0.6215255
vn 0.718642 0.0 0.6953802
vn 0.6953802 0.0 0.718642
vn -0.6952565 0.0 -0.7187617
vn -0.7187617 0.0 -0.6952565
vn 0.6468944 0.0 0.7625796
vn 0.6216842 0.0 0.783268
vn -0.6215255 0.0 -0.7833939
vn -0.6466071 0.0 -0.7628232
vn 0.5692019 0.0 0.8221978
vn 0.5419209 0.0 0.8404295
vn -0.541986 0.0 -0.8403875
vn -0.5692528 0.0 -0.8221625
vn 0.4857676 0.0 0.874088
vn 0.4568939 0.0 0.8895212
vn -0.4567518 0.0 -0.8895942
vn -0.4857129 0.0 -0.8741184
vn 0.3977311 0.0 0.917502
vn 0.3674428 0.0 0.9300461
vn -0.3676921 0.0 -0.9299476
vn -0.3977462 0.0 -0.9174955
vn 0.3058916 0.0 0.9520663
vn 0.2746395 0.0 0.9615473
vn -0.2740136 0.0 -0.9617258
vn -0.3058224 0.0 -0.9520886
vn 0.2111911 0.0 0.9774448
vn 0.1789806 0.0 0.9838526
vn -0.178958 0.0 -0.9838567
vn -0.2105985 0.0 -0.9775726
vn 0.1142222 0.0 0.9934552
vn 0.0816832 0.0 0.9966583
vn -0.0820221 0.0 -0.9966305
vn -0.1146398 0.0 -0.9934071
vn 0.0163824 0.0 0.9998658
vn -0.0163824 0.0 0.9998658
vn 0.016479 0.0 -0.9998642
vn -0.016479 0.0 -0.9998642
vn -0.0816832 0.0 0.9966583
vn -0.1142222 0.0 0.9934552
vn 0.1146398 0.0 -0.9934071
vn 0.0820221 0.0 -0.9966305
vn -0.1789806 0.0 0.9838526
vn -0.2111911 0.0 0.9774448
vn 0.2105985 0.0 -0.9775726
vn 0.178958 0.0 -0.9838567
vn -0.2746395 0.0 0.9615473
vn -0.3058916 0.0 0.9520663
vn 0.3058224 0.0 -0.9520886
vn 0.2740136 0.0 -0.9617258
vn -0.3674428 0.0 0.9300461
vn -0.3977311 0.0 0.917502
vn 0.3977462 0.0 -0.9174955
vn 0.3676921 0.0 -0.9299476
vn -0.4568939 0.0 0.8895212
vn -0.4857676 0.0 0.874088
vn 0.4857129 0.0 -0.8741184
vn 0.4567518 0.0 -0.8895942
vn -0.5419209 0.0 0.8404295
vn -0.5692019 0.0 0.8221978
vn 0.5692528 0.0 -0.8221625
vn 0.541986 0.0 -0.8403875
vn -0.6216842 0.0 0.783268
vn -0.6468944 0.0 0.7625796
vn 0.6466071 0.0 -0.7628232
vn 0.6215255 0.0 -0.7833939
vn -0.6953802 0.0 0.718642
vn -0.718642 0.0 0.6953802
vn 0.7187617 0.0 -0.6952565
vn 0.6952565 0.0 -0.7187617
vn -0.7625796 0.0 0.6468944
vn -0.783268 0.0 0.6216842
vn 0.7833939 0.0 -0.6215255
vn 0.7628232 0.0 -0.6466071
vn -0.8221978 0.0 0.5692019
vn -0.8404295 0.0 0.5419209
vn 0.8403875 0.0 -0.541986
vn 0.8221625 0.0 -0.5692528
vn -0.874088 0.0 0.4857676
vn -0.8895212 0.0 0.4568939
vn 0.8895942 0.0 -0.4567518
vn 0.8741184 0.0 -0.4857129
vn -0.917502 0.0 0.3977311
vn -0.9300461 0.0 0.3674428
vn 0.9299476 0.0 -0.3676921
vn 0.9174955 0.0 -0.3977462
vn -0.9520663 0.0 0.3058916
vn -0.9615473 0.0 0.2746395
vn 0.9617258 0.0 -0.2740136
vn 0.9520886 0.0 -0.3058224
vn -0.9774448 0.0 0.2111911
vn -0.9838526 0.0 0.1789806
vn 0.9838567 0.0 -0.178958
vn 0.9775726 0.0 -0.2105985
vn -0.9934552 0.0 0.1142222
vn -0.9966583 0.0 0.0816832
vn 0.9966305 0.0 -0.0820221
vn 0.9934071 0.0 -0.1146398
vn -0.9998658 0.0 0.0163824
vn -0.9998658 0.0 -0.0163824
vn 0.9998642 0.0 0.016479
vn 0.9998642 0.0 -0.016479
vn -0.9966583 0.0 -0.0816832
vn -0.9934552 0.0 -0.1142222
vn 0.9934071 0.0 0.1146398
vn 0.9966305 0.0 0.0820221
vn -0.9838526 0.0 -0.1789806
vn -0.9774448 0.0 -0.2111911
vn 0.9775726 0.0 0.2105985
vn 0.9838567 0.0 0.178958
vn -0.9615473 0.0 -0.2746395
vn -0.9520663 0.0 -0.3058916
vn 0.9520886 0.0 0.3058224
vn 0.9617258 0.0 0.2740136
vn -0.9300461 0.0 -0.3674428
vn -0.917502 0.0 -0.3977311
vn 0.9174955 0.0 0.3977462
vn 0.9299476 0.0 0.3676921
vn -0.8895212 0.0 -0.4568939
vn -0.874088 0.0 -0.4857676
vn 0.8741184 0.0 0.4857129
vn 0.8895942 0.0 0.4567518
vn -0.8404295 0.0 -0.5419209
vn -0.8221978 0.0 -0.5692019
vn 0.8221625 0.0 0.5692528
vn 0.8403875 0.0 0.541986
vn -0.783268 0.0 -0.6216842
vn -0.7625796 0.0 -0.6468944
vn 0.7628232 0.0 0.6466071
vn 0.7833939 0.0 0.6215255
vn -0.718642 0.0 -0.6953802
vn -0.6953802 0.0 -0.718642
vn 0.6952565 0.0 0.7187617
vn 0.7187617 0.0 0.6952565
vn -0.6468944 0.0 -0.7625796
vn -0.6216842 0.0 -0.783268
vn 0.6215255 0.0 0.7833939
vn 0.6466071 0.0 0.7628232
vn -0.5692019 0.0 -0.8221978
vn -0.5419209 0.0 -0.8404295
vn 0.541986 0.0 0.8403875
vn 0.5692528 0.0 0.8221625
vn -0.4857676 0.0 -0.874088
vn -0.4568939 0.0 -0.8895212
vn 0.4567518 0.0 0.8895942
vn 0.4857129 0.0 0.8741184
vn -0.3977311 0.0 -0.917502
vn -0.3674428 0.0 -0.9300461
vn 0.3676921 0.0 0.9299476
vn 0.3977462 0.0 0.9174955
vn -0.3058916 0.0 -0.9520663
vn -0.2746395 0.0 -0.9615473
vn 0.2740136 0.0 0.9617258
vn 0.3058224 0.0 0.9520886
vn -0.2111911 0.0 -0.9774448
vn -0.1789806 0.0 -0.9838526
vn 0.178958 0.0 0.9838567
vn 0.2105985 0.0 0.9775726
vn -0.1142222 0.0 -0.9934552
vn -0.0816832 0.0 -0.9966583
vn 0.0820221 0.0 0.9966305
vn 0.1146398 0.0 0.9934071
vn -0.0163824 0.0 -0.9998658
vn 0.0163824 0.0 -0.9998658
vn -0.016479 0.0 0.9998642
vn 0.016479 0.0 0.9998642
vn 0.0816832 0.0 -0.9966583
vn 0.1142222 0.0 -0.9934552
vn -0.1146398 0.0 0.9934071
vn -0.0820221 0.0 0.9966305
vn 0.1789806 0.0 -0.9838526
vn 0.2111911 0.0 -0.9774448
vn -0.2105985 0.0 0.9775726
vn -0.178958 0.0 0.9838567
vn 0.2746395 0.0 -0.9615473
vn 0.3058916 0.0 -0.9520663
vn -0.3058224 0.0 0.9520886
vn -0.2740136 0.0 0.9617258
vn 0.3674428 0.0 -0.9300461
vn 0.3977311 0.0 -0.917502
vn -0.3977462 0.0 0.9174955
vn -0.3676921 0.0 0.9299476
vn 0.4568939 0.0 -0.8895212
vn 0.4857676 0.0 -0.874088
vn -0.4857129 0.0 0.8741184
vn -0.4567518 0.0 0.8895942
vn 0.5419209 0.0 -0.8404295
vn 0.5692019 0.0 -0.8221978
vn -0.5692528 0.0 0.8221625
vn -0.541986 0.0 0.8403875
vn 0.6216842 0.0 -0.783268
vn 0.6468944 0.0 -0.7625796
vn -0.6466071 0.0 0.7628232
vn -0.6215255 0.0 0.7833939
vn 0.6953802 0.0 -0.718642
vn 0.718642 0.0 -0.6953802
vn -0.7187617 0.0 0.6952565
vn -0.6952565 0.0 0.7187617
vn 0.7625796 0.0 -0.6468944
vn 0.783268 0.0 -0.6216842
vn -0.7833939 0.0 0.6215255
vn -0.7628232 0.0 0.6466071
vn 0.8221978 0.0 -0.5692019
vn 0.8404295 0.0 -0.5419209
vn -0.8403875 0.0 0.541986
vn -0.8221625 0.0 0.5692528
vn 0.874088 0.0 -0.4857676
vn 0.8895212 0.0 -0.4568939
vn -0.8895942 0.0 0.4567518
vn -0.8741184 0.0 0.4857129
vn 0.917502 0.0 -0.3977311
vn 0.9300461 0.0 -0.3674428
vn -0.9299476 0.0 0.3676921
vn -0.9174955 0.0 0.3977462
vn 0.9520663 0.0 -0.3058916
vn 0.9615473 0.0 -0.2746395
vn -0.9617258 0.0 0.2740136
vn -0.9520886 0.0 0.3058224
vn 0.9774448 0.0 -0.2111911
vn 0.9838526 0.0 -0.1789806
vn -0.9838567 0.0 0.178958
vn -0.9775726 0.0 0.2105985
vn 0.9934552 0.0 -0.1142222
vn 0.9966583 0.0 -0.0816832
vn -0.9966305 0.0 0.0820221
vn -0.9934071 0.0 0.1146398
f 1//1 2//2 3//3
f 1//1 3//3 4//4
f 5//5 6//6 7//7
f 5//5 7//7 8//8
f 9//9 10//10 11//11
f 9//9 11//11 12//12
f 13//13 14//14 15//15
f 13//13 15//15 16//16
f 17//17 18//18 19//19
f 17//17 19//19 20//20
f 21//21 22//22 23//23
f 21//21 23//23 24//24
f 20//25 19//26 10//27
f 20//25 10//27 9//28
f 12//29 11//30 22//31
f 12//29 22//31 21//32
f 16//33 15//34 18//35
f 16//33 18//35 17//36
f 24//37 23//38 14//39
f 24//37 14//39 13//40
f 4//41 3//42 17//43
f 4//41 17//43 20//44
f 21//45 24//46 2//47
f 21//45 2//47 1//48
f 19//49 18//50 6//51
f 19//49 6//51 5//52
f 8//53 7//54 23//55
f 8//53 23//55 22//56
f 9//57 12//58 1//59
f 9//57 1//59 4//60
f 3//61 2//62 13//63
f 3//61 13//63 16//64
f 5//65 8//66 11//67
f 5//65 11//67 10//68
f 15//69 14//70 7//71
f 15//69 7//71 6//72
f 20//73 9//74 4//75
f 1//76 12//77 21//78
f 3//79 16//80 17//81
f 24//82 13//83 2//84
f 5//85 10//86 19//87
f 22//88 11//89 8//90
f 18//91 15//92 6//93
f 7//94 14//95 23//96
f 25//97 26//98 27//99
f 25//97 27//99 28//100
f 29//101 30//102 31//103
f 29//101 31//103 32//104
f 33//105 34//106 35//107
f 33//105 35//107 36//108
f 37//109 38//110 39//111
f 37//109 39//111 40//112
f 41//113 42//114 43//115
f 41//113 43//115 44//116
f 45//117 46//118 47//119
f 45//117 47//119 48//120
f 44//121 43//122 34//123
f 44//121 34//123 33//124
f 36//125 35//126 46//127
f 36//125 46//127 45//128
f 40//129 39//130 42//131
f 40//129 42//131 41//132
f 48//133 47//134 38//135
f 48//133 38//135 37//136
f 28//137 27//138 41//139
f 28//137 41//139 44//140
f 45//141 48//142 26//143
f 45//141 26//143 25//144
f 43//145 42//146 30//147
f 43//145 30//147 29//148
f 32//149 31//150 47//151
f 32//149 47//151 46//152
f 33//153 36//154 25//155
f 33//153 25//155 28//156
f 27//157 26//158 37//159
f 27//157 37//159 40//160
f 29//161 32//162 35//163
f 29//161 35//163 34//164
f 39//165 38//166 31//167
f 39//165 31//167 30//168
f 44//169 33//170 28//171
f 25//172 36//173 45//174
f 27//175 40//176 41//177
f 48//178 37//179 26//180
f 29//181 34//182 43//183
f 46//184 35//185 32//186
f 42//187 39//188 30//189
f 31//190 38//191 47//192
usemtl silver
f 49//193 50//194 51//195
f 49//193 51//195 52//196
f 53//197 54//198 55//199
f 53//197 55//199 56//200
f 50//201 56//201 55//201
f 50//201 55//201 51//201
f 49//202 52//202 54//202
f 49//202 54//202 53//202
f 52//196 51//195 57//203
f 52//196 57//203 58//204
f 54//198 59//205 60//206
f 54//198 60//206 55//199
f 51//201 55//201 60//201
f 51//201 60//201 57//201
f 52//202 58//202 59//202
f 52//202 59//202 54//202
f 58//204 57//203 61//207
f 58//204 61//207 62//208
f 59//205 63//209 64//210
f 59//205 64//210 60//206
f 57//201 60//201 64//201
f 57//201 64//201 61//201
f 58//202 62//202 63//202
f 58//202 63//202 59//202
f 62//208 61//207 65//211
f 62//208 65//211 66//212
f 63//209 67//213 68//214
f 63//209 68//214 64//210
f 61//201 64//201 68//201
f 61//201 68//201 65//201
f 62//202 66//202 67//202
f 62//202 67//202 63//202
f 66//212 65//211 69//215
f 66//212 69//215 70//216
f 67//213 71//217 72//218
f 67//213 72//218 68//214
f 65//201 68//201 72//201
f 65//201 72//201 69//201
f 66//202 70//202 71//202
f 66//202 71//202 67//202
f 70//216 69//215 73//219
f 70//216 73//219 74//220
f 71//217 75//221 76//222
f 71//217 76//222 72//218
f 69//201 72//201 76//201
f 69//201 76//201 73//201
f 70//202 74//202 75//202
f 70//202 75//202 71//202
f 74//220 73//219 77//223
f 74//220 77//223 78//224
f 75//221 79//225 80//226
f 75//221 80//226 76//222
f 73//201 76//201 80//201
f 73//201 80//201 77//201
f 74//202 78//202 79//202
f 74//202 79//202 75//202
f 78//224 77//223 81//227
f 78//224 81//227 82//228
f 79//225 83//229 84//230
f 79//225 84//230 80//226
f 77//201 80//201 84//201
f 77//201 84//201 81//201
f 78//202 82//202 83//202
f 78//202 83//202 79//202
f 82//228 81//227 85//231
f 82//228 85//231 86//232
f 83//229 87//233 88//234
f 83//229 88//234 84//230
f 81//201 84//201 88//201
f 81//201 88//201 85//201
f 82//202 86//202 87//202
f 82//202 87//202 83//202
f 86//232 85//231 89//235
f 86//232 89//235 90//236
f 87//233 91//237 92//238
f 87//233 92//238 88//234
f 85//201 88//201 92//201
f 85//201 92//201 89//201
f 86//202 90//202 91//202
f 86//202 91//202 87//202
f 90//236 89//235 93//239
f 90//236 93//239 94//240
f 91//237 95//241 96//242
f 91//237 96//242 92//238
f 89//201 92//201 96//201
f 89//201 96//201 93//201
f 90//202 94//202 95//202
f 90//202 95//202 91//202
f 94//240 93//239 97//243
f 94//240 97//243 98//244
f 95//241 99//245 100//246
f 95//241 100//246 96//242
f 93//201 96//201 100//201
f 93//201 100//201 97//201
f 94//202 98//202 99//202
f 94//202 99//202 95//202
f 98//244 97//243 101//247
f 98//244 101//247 102//248
f 99//245 103//249 104//250
f 99//245 104//250 100//246
f 97//201 100//201 104//201
f 97//201 104//201 101//201
f 98//202 102//202 103//202
f 98//202 103//202 99//202
f 102//248 101//247 105//251
f 102//248 105//251 106//252
f 103//249 107//253 108//254
f 103//249 108//254 104//250
f 101//201 104//201 108//201
f 101//201 108//201 105//201
f 102//202 106//202 107//202
f 102//202 107//202 103//202
f 106//252 105//251 109//255
f 106//252 109//255 110//256
f 107//253 111//257 112//258
f 107//253 112//258 108//254
f 105//201 108//201 112//201
f 105//201 112//201 109//201
f 106//202 110//202 111//202
f 106//202 111//202 107//202
f 110//256 109//255 113//259
f 110//256 113//259 114//260
f 111//257 115//261 116//262
f 111//257 116//262 112//258
f 109//201 112//201 116//201
f 109//201 116//201 113//201
f 110//202 114//202 115//202
f 110//202 115//202 111//202
f 114//260 113//259 117//263
f 114//260 117//263 118//264
f 115//261 119//265 120//266
f 115//261 120//266 116//262
f 113//201 116//201 120//201
f 113//201 120//201 117//201
f 114//202 118//202 119//202
f 114//202 119//202 115//202
f 118//264 117//263 121//267
f 118//264 121//267 122//268
f 119//265 123//269 124//270
f 119//265 124//270 120//266
f 117//201 120//201 124//201
f 117//201 124//201 121//201
f 118//202 122//202 123//202
f 118//202 123//202 119//202
f 122//268 121//267 125//271
f 122//268 125//271 126//272
f 123//269 127//273 128//274
f 123//269 128//274 124//270
f 121//201 124//201 128//201
f 121//201 128//201 125//201
f 122//202 126//202 127//202
f 122//202 127//202 123//202
f 126//272 125//271 129//275
f 126//272 129//275 130//276
f 127//273 131//277 132//278
f 127//273 132//278 128//274
f 125//201 128//201 132//201
f 125//201 132//201 129//201
f 126//202 130//202 131//202
f 126//202 131//202 127//202
f 130//276 129//275 133//279
f 130//276 133//279 134//280
f 131//277 135//281 136//282
f 131//277 136//282 132//278
f 129//201 132//201 136//201
f 129//201 136//201 133//201
f 130//202 134//202 135//202
f 130//202 135//202 131//202
f 134//280 133//279 137//283
f 134//280 137//283 138//284
f 135//281 139//285 140//286
f 135//281 140//286 136//282
f 133//201 136//201 140//201
f 133//201 140//201 137//201
f 134//202 138//202 139//202
f 134//202 139//202 135//202
f 138//284 137//283 141//287
f 138//284 141//287 142//288
f 139//285 143//289 144//290
f 139//285 144//290 140//286
f 137//201 140//201 144//201
f 137//201 144//201 141//201
f 138//202 142//202 143//202
f 138//202 143//202 139//202
f 142//288 141//287 145//291
f 142//288 145//291 146//292
f 143//289 147//293 148//294
f 143//289 148//294 144//290
f 141//201 144//201 148//201
f 141//201 148//201 145//201
f 142//202 146//202 147//202
f 142//202 147//202 143//202
f 146//292 145//291 149//295
f 146//292 149//295 150//296
f 147//293 151//297 152//298
f 147//293 152//298 148//294
f 145//201 148//201 152//201
f 145//201 152//201 149//201
f 146//202 150//202 151//202
f 146//202 151//202 147//202
f 150//296 149//295 153//299
f 150//296 153//299 154//300
f 151//297 155//301 156//302
f 151//297 156//302 152//298
f 149//201 152//201 156//201
f 149//201 156//201 153//201
f 150//202 154//202 155//202
f 150//202 155//202 151//202
f 154//300 153//299 157//303
f 154//300 157//303 158//304
f 155//301 159//305 160//306
f 155//301 160//306 156//302
f 153//201 156//201 160//201
f 153//201 160//201 157//201
f 154//202 158//202 159//202
f 154//202 159//202 155//202
f 158//304 157//303 161//307
f 158//304 161//307 162//308
f 159//305 163//309 164//310
f 159//305 164//310 160//306
f 157//201 160//201 164//201
f 157//201 164//201 161//201
f 158//202 162//202 163//202
f 158//202 163//202 159//202
f 162//308 161//307 165//311
f 162//308 165//311 166//312
f 163//309 167//313 168//314
f 163//309 168//314 164//310
f 161//201 164//201 168//201
f 161//201 168//201 165//201
f 162//202 166//202 167//202
f 162//202 167//202 163//202
f 166//312 165//311 169//315
f 166//312 169//315 170//316
f 167//313 171//317 172//318
f 167//313 172//318 168//314
f 165//201 168//201 172//201
f 165//201 172//201 169//201
f 166//202 170//202 171//202
f 166//202 171//202 167//202
f 170//316 169//315 173//319
f 170//316 173//319 174//320
f 171//317 175//321 176//322
f 171//317 176//322 172//318
f 169//201 172//201 176//201
f 169//201 176//201 173//201
f 170//202 174//202 175//202
f 170//202 175//202 171//202
f 174//320 173//319 177//323
f 174//320 177//323 178//324
f 175//321 179//325 180//326
f 175//321 180//326 176//322
f 173//201 176//201 180//201
f 173//201 180//201 177//201
f 174//202 178//202 179//202
f 174//202 179//202 175//202
f 178//324 177//323 181//327
f 178//324 181//327 182//328
f 179//325 183//329 184//330
f 179//325 184//330 180//326
f 177//201 180//201 184//201
f 177//201 184//201 181//201
f 178//202 182//202 183//202
f 178//202 183//202 179//202
f 182//328 181//327 185//331
f 182//328 185//331 186//332
f 183//329 187//333 188//334
f 183//329 188//334 184//330
f 181//201 184//201 188//201
f 181//201 188//201 185//201
f 182//202 186//202 187//202
f 182//202 187//202 183//202
f 186//332 185//331 189//335
f 186//332 189//335 190//336
f 187//333 191//337 192//338
f 187//333 192//338 188//334
f 185//201 188//201 192//201
f 185//201 192//201 189//201
f 186//202 190//202 191//202
f 186//202 191//202 187//202
f 190//336 189//335 193//339
f 190//336 193//339 194//340
f 191//337 195//341 196//342
f 191//337 196//342 192//338
f 189//201 192//201 196//201
f 189//201 196//201 193//201
f 190//202 194//202 195//202
f 190//202 195//202 191//202
f 194//340 193//339 197//343
f 194//340 197//343 198//344
f 195//341 199//345 200//346
f 195//341 200//346 196//342
f 193//201 196//201 200//201
f 193//201 200//201 197//201
f 194//202 198//202 199//202
f 194//202 199//202 195//202
f 198//344 197//343 201//347
f 198//344 201//347 202//348
f 199//345 203//349 204//350
f 199//345 204//350 200//346
f 197//201 200//201 204//201
f 197//201 204//201 201//201
f 198//202 202//202 203//202
f 198//202 203//202 199//202
f 202//348 201//347 205//351
f 202//348 205//351 206//352
f 203//349 207//353 208//354
f 203//349 208//354 204//350
f 201//201 204//201 208//201
f 201//201 208//201 205//201
f 202//202 206//202 207//202
f 202//202 207//202 203//202
f 206//352 205//351 209//355
f 206//352 209//355 210//356
f 207//353 211//357 212//358
f 207//353 212//358 208//354
f 205//201 208//201 212//201
f 205//201 212//201 209//201
f 206//202 210//202 211//202
f 206//202 211//202 207//202
f 210//356 209//355 213//359
f 210//356 213//359 214//360
f 211//357 215//361 216//362
f 211//357 216//362 212//358
f 209//201 212//201 216//201
f 209//201 216//201 213//201
f 210//202 214//202 215//202
f 210//202 215//202 211//202
f 214//360 213//359 217//363
f 214//360 217//363 218//364
f 215//361 219//365 220//366
f 215//361 220//366 216//362
f 213//201 216//201 220//201
f 213//201 220//201 217//201
f 214//202 218//202 219//202
f 214//202 219//202 215//202
f 218//364 217//363 221//367
f 218//364 221//367 222//368
f 219//365 223//369 224//370
f 219//365 224//370 220//366
f 217//201 220//201 224//201
f 217//201 224//201 221//201
f 218//202 222//202 223//202
f 218//202 223//202 219//202
f 222//368 221//367 225//371
f 222//368 225//371 226//372
f 223//369 227//373 228//374
f 223//369 228//374 224//370
f 221//201 224//201 228//201
f 221//201 228//201 225//201
f 222//202 226//202 227//202
f 222//202 227//202 223//202
f 226//372 225//371 229//375
f 226//372 229//375 230//376
f 227//373 231//377 232//378
f 227//373 232//378 228//374
f 225//201 228//201 232//201
f 225//201 232//201 229//201
f 226//202 230//202 231//202
f 226//202 231//202 227//202
f 230//376 229//375 233//379
f 230//376 233//379 234//380
f 231//377 235//381 236//382
f 231//377 236//382 232//378
f 229//201 232//201 236//201
f 229//201 236//201 233//201
f 230//202 234//202 235//202
f 230//202 235//202 231//202
f 234//380 233//379 237//383
f 234//380 237//383 238//384
f 235//381 239//385 240//386
f 235//381 240//386 236//382
f 233//201 236//201 240//201
f 233//201 240//201 237//201
f 234//202 238//202 239//202
f 234//202 239//202 235//202
f 238//384 237//383 241//387
f 238//384 241//387 242//388
f 239//385 243//389 244//390
f 239//385 244//390 240//386
f 237//201 240//201 244//201
f 237//201 244//201 241//201
f 238//202 242//202 243//202
f 238//202 243//202 239//202
f 242//388 241//387 245//391
f 242//388 245//391 246//392
f 243//389 247//393 248//394
f 243//389 248//394 244//390
f 241//201 244//201 248//201
f 241//201 248//201 245//201
f 242//202 246//202 247//202
f 242//202 247//202 243//202
f 246//392 245//391 249//395
f 246//392 249//395 250//396
f 247//393 251//397 252//398
f 247//393 252//398 248//394
f 245//201 248//201 252//201
f 245//201 252//201 249//201
f 246//202 250//202 251//202
f 246//202 251//202 247//202
f 250//396 249//395 253//399
f 250//396 253//399 254//400
f 251//397 255//401 256//402
f 251//397 256//402 252//398
f 249//201 252//201 256//201
f 249//201 256//201 253//201
f 250//202 254//202 255//202
f 250//202 255//202 251//202
f 254//400 253//399 257//403
f 254//400 257//403 258//404
f 255//401 259//405 260//406
f 255//401 260//406 256//402
f 253//201 256//201 260//201
f 253//201 260//201 257//201
f 254//202 258//202 259//202
f 254//202 259//202 255//202
f 258//404 257//403 261//407
f 258//404 261//407 262//408
f 259//405 263//409 264//410
f 259//405 264//410 260//406
f 257//201 260//201 264//201
f 257//201 264//201 261//201
f 258//202 262//202 263//202
f 258//202 263//202 259//202
f 262//408 261//407 265//411
f 262//408 265//411 266//412
f 263//409 267//413 268//414
f 263//409 268//414 264//410
f 261//201 264//201 268//201
f 261//201 268//201 265//201
f 262//202 266//202 267//202
f 262//202 267//202 263//202
f 266//412 265//411 269//415
f 266//412 269//415 270//416
f 267//413 271//417 272//418
f 267//413 272//418 268//414
f 265//201 268//201 272//201
f 265//201 272//201 269//201
f 266//202 270//202 271//202
f 266//202 271//202 267//202
f 270//416 269//415 273//419
f 270//416 273//419 274//420
f 271//417 275//421 276//422
f 271//417 276//422 272//418
f 269//201 272//201 276//201
f 269//201 276//201 273//201
f 270//202 274//202 275//202
f 270//202 275//202 271//202
f 274//420 273//419 277//423
f 274//420 277//423 278//424
f 275//421 279//425 280//426
f 275//421 280//426 276//422
f 273//201 276//201 280//201
f 273//201 280//201 277//201
f 274//202 278//202 279//202
f 274//202 279//202 275//202
f 278//424 277//423 281//427
f 278//424 281//427 282//428
f 279//425 283//429 284//430
f 279//425 284//430 280//426
f 277//201 280//201 284//201
f 277//201 284//201 281//201
f 278//202 282//202 283//202
f 278//202 283//202 279//202
f 282//428 281//427 285//431
f 282//428 285//431 286//432
f 283//429 287//433 288//434
f 283//429 288//434 284//430
f 281//201 284//201 288//201
f 281//201 288//201 285//201
f 282//202 286//202 287//202
f 282//202 287//202 283//202
f 286//432 285//431 289//435
f 286//432 289//435 290//436
f 287//433 291//437 292//438
f 287//433 292//438 288//434
f 285//201 288//201 292//201
f 285//201 292//201 289//201
f 286//202 290//202 291//202
f 286//202 291//202 287//202
f 290//436 289//435 293//439
f 290//436 293//439 294//440
f 291//437 295//441 296//442
f 291//437 296//442 292//438
f 289//201 292//201 296//201
f 289//201 296//201 293//201
f 290//202 294//202 295//202
f 290//202 295//202 291//202
f 294//440 293//439 297//443
f 294//440 297//443 298//444
f 295//441 299//445 300//446
f 295//441 300//446 296//442
f 293//201 296//201 300//201
f 293//201 300//201 297//201
f 294//202 298//202 299//202
f 294//202 299//202 295//202
f 298//444 297//443 301//447
f 298//444 301//447 302//448
f 299//445 303//449 304//450
f 299//445 304//450 300//446
f 297//201 300//201 304//201
f 297//201 304//201 301//201
f 298//202 302//202 303//202
f 298//202 303//202 299//202
f 302//448 301//447 50//194
f 302//448 50//194 49//193
f 303//449 53//197 56//200
f 303//449 56//200 304//450
f 301//201 304//201 56//201
f 301//201 56//201 50//201
f 302//202 49//202 53//202
f 302//202 53//202 303//202
