# Extracted from KIPR Simulator demobot_v6.glb; GPL-3.0
mtllib electronics_006.mtl
s off
usemtl material_0
v 0.0386080 0.0111323 0.0050791
v 0.0386080 0.0111323 0.0048290
v 0.0386080 0.0137161 0.0050791
v 0.0386080 0.0137161 -0.0050791
v 0.0386080 0.0111323 -0.0050791
v 0.0386080 0.0111323 -0.0048151
v 0.0386080 0.0025439 -0.0048151
v 0.0386080 0.0025439 0.0048290
v 0.0386080 0.0025439 0.0048290
v 0.0384135 0.0015697 0.0048290
v 0.0386080 0.0025439 -0.0048151
v 0.0384135 0.0015697 -0.0048151
v 0.0378579 0.0007501 0.0048290
v 0.0378579 0.0007501 -0.0048151
v 0.0370383 0.0001945 0.0048290
v 0.0370383 0.0001945 -0.0048151
v 0.0360641 0.0000000 0.0048290
v 0.0360641 0.0000000 -0.0048151
v 0.0152738 0.0000000 0.0048290
v 0.0152738 0.0025439 0.0048290
v 0.0152738 0.0000000 0.0050791
v 0.0152738 0.0025439 0.0050791
v 0.0150793 0.0035302 0.0048290
v 0.0150793 0.0035302 0.0050791
v 0.0145237 0.0043637 0.0048290
v 0.0145237 0.0043637 0.0050791
v 0.0136902 0.0049193 0.0048290
v 0.0136902 0.0049193 0.0050791
v 0.0127039 0.0051138 0.0048290
v 0.0127039 0.0051138 0.0050791
v 0.0101600 0.0051138 0.0048290
v 0.0101600 0.0051138 0.0050791
v 0.0237650 0.0162600 0.0048290
v 0.0241261 0.0137161 0.0048290
v 0.0237650 0.0162600 0.0035371
v 0.0241261 0.0137161 0.0035371
v 0.0241261 0.0137161 0.0035371
v 0.0241261 0.0137161 0.0048290
v 0.0242928 0.0130771 0.0035371
v 0.0242928 0.0130771 0.0048290
v 0.0247669 0.0126048 0.0035371
v 0.0247669 0.0126048 0.0048290
v 0.0254198 0.0124242 0.0035371
v 0.0254198 0.0124242 0.0048290
v 0.0260588 0.0126048 0.0035371
v 0.0260588 0.0126048 0.0048290
v 0.0265311 0.0130771 0.0035371
v 0.0265311 0.0130771 0.0048290
v 0.0267117 0.0137161 0.0035371
v 0.0267117 0.0137161 0.0048290
v 0.0267117 0.0137161 0.0035371
v 0.0267117 0.0137161 0.0048290
v 0.0268784 0.0130771 0.0035371
v 0.0268784 0.0130771 0.0048290
v 0.0273507 0.0126048 0.0035371
v 0.0273507 0.0126048 0.0048290
v 0.0279897 0.0124242 0.0035371
v 0.0279897 0.0124242 0.0048290
v 0.0286443 0.0126048 0.0035371
v 0.0286443 0.0126048 0.0048290
v 0.0291166 0.0130771 0.0035371
v 0.0291166 0.0130771 0.0048290
v 0.0292833 0.0137161 0.0035371
v 0.0292833 0.0137161 0.0048290
v 0.0292833 0.0137161 0.0048290
v 0.0296445 0.0162600 0.0048290
v 0.0292833 0.0137161 0.0035371
v 0.0296445 0.0162600 0.0035371
v 0.0334942 0.0162600 0.0048290
v 0.0334942 0.0137161 0.0048290
v 0.0334942 0.0162600 0.0050791
v 0.0334942 0.0137161 0.0050791
v 0.0336887 0.0127298 0.0048290
v 0.0336887 0.0127298 0.0050791
v 0.0342443 0.0118963 0.0048290
v 0.0342443 0.0118963 0.0050791
v 0.0350778 0.0113268 0.0048290
v 0.0350778 0.0113268 0.0050791
v 0.0360641 0.0111323 0.0048290
v 0.0360641 0.0111323 0.0050791
v 0.0360641 0.0111323 0.0048290
v 0.0386080 0.0111323 0.0048290
v 0.0360641 0.0111323 0.0050791
v 0.0386080 0.0111323 0.0050791
v 0.0360641 0.0111323 -0.0050791
v 0.0386080 0.0111323 -0.0050791
v 0.0360641 0.0111323 -0.0048151
v 0.0386080 0.0111323 -0.0048151
v 0.0152738 0.0000000 0.0050791
v 0.0127039 0.0000000 0.0050791
v 0.0152738 0.0000000 0.0048290
v 0.0127039 0.0000000 -0.0050791
v 0.0360641 0.0000000 -0.0048151
v 0.0360641 0.0000000 0.0048290
v 0.0152738 0.0000000 -0.0048151
v 0.0152738 0.0000000 -0.0050791
v 0.0127039 0.0162600 -0.0048151
v 0.0117297 0.0160655 -0.0048151
v 0.0127039 0.0162600 0.0048290
v 0.0117297 0.0160655 0.0048290
v 0.0109101 0.0155098 -0.0048151
v 0.0109101 0.0155098 0.0048290
v 0.0103545 0.0146902 -0.0048151
v 0.0103545 0.0146902 0.0048290
v 0.0101600 0.0137161 -0.0048151
v 0.0101600 0.0137161 0.0048290
v 0.0101600 0.0051138 0.0048290
v 0.0101600 0.0051138 -0.0048151
v 0.0101600 0.0051138 0.0050791
v 0.0101600 0.0025439 0.0050791
v 0.0101600 0.0025439 -0.0050791
v 0.0101600 0.0051138 -0.0050791
v 0.0279897 0.0144958 0.0035371
v 0.0276146 0.0143846 0.0035371
v 0.0279897 0.0144958 0.0048290
v 0.0276146 0.0143846 0.0048290
v 0.0273229 0.0141051 0.0035371
v 0.0273229 0.0141051 0.0048290
v 0.0272257 0.0137161 0.0035371
v 0.0272257 0.0137161 0.0048290
v 0.0273229 0.0133271 0.0035371
v 0.0273229 0.0133271 0.0048290
v 0.0276146 0.0130493 0.0035371
v 0.0276146 0.0130493 0.0048290
v 0.0279897 0.0129382 0.0035371
v 0.0279897 0.0129382 0.0048290
v 0.0283787 0.0130493 0.0035371
v 0.0283787 0.0130493 0.0048290
v 0.0286721 0.0133271 0.0035371
v 0.0286721 0.0133271 0.0048290
v 0.0287694 0.0137161 0.0035371
v 0.0287694 0.0137161 0.0048290
v 0.0286721 0.0141051 0.0035371
v 0.0286721 0.0141051 0.0048290
v 0.0283787 0.0143846 0.0035371
v 0.0283787 0.0143846 0.0048290
v 0.0283787 0.0143846 0.0048290
v 0.0279897 0.0137161 0.0048290
v 0.0286721 0.0141051 0.0048290
v 0.0287694 0.0137161 0.0048290
v 0.0286721 0.0133271 0.0048290
v 0.0283787 0.0130493 0.0048290
v 0.0279897 0.0129382 0.0048290
v 0.0276146 0.0130493 0.0048290
v 0.0273229 0.0133271 0.0048290
v 0.0272257 0.0137161 0.0048290
v 0.0273229 0.0141051 0.0048290
v 0.0276146 0.0143846 0.0048290
v 0.0279897 0.0144958 0.0048290
v 0.0276146 0.0143846 0.0035371
v 0.0279897 0.0144958 0.0035371
v 0.0283787 0.0143846 0.0035371
v 0.0286721 0.0141051 0.0035371
v 0.0292833 0.0137161 0.0035371
v 0.0287694 0.0137161 0.0035371
v 0.0291166 0.0130771 0.0035371
v 0.0286721 0.0133271 0.0035371
v 0.0286443 0.0126048 0.0035371
v 0.0283787 0.0130493 0.0035371
v 0.0279897 0.0124242 0.0035371
v 0.0279897 0.0129382 0.0035371
v 0.0273507 0.0126048 0.0035371
v 0.0276146 0.0130493 0.0035371
v 0.0268784 0.0130771 0.0035371
v 0.0273229 0.0133271 0.0035371
v 0.0267117 0.0137161 0.0035371
v 0.0272257 0.0137161 0.0035371
v 0.0273229 0.0141051 0.0035371
v 0.0296445 0.0162600 0.0035371
v 0.0237650 0.0162600 0.0035371
v 0.0254198 0.0144958 0.0035371
v 0.0250308 0.0143846 0.0035371
v 0.0247530 0.0141051 0.0035371
v 0.0246419 0.0137161 0.0035371
v 0.0241261 0.0137161 0.0035371
v 0.0247530 0.0133271 0.0035371
v 0.0242928 0.0130771 0.0035371
v 0.0250308 0.0130493 0.0035371
v 0.0247669 0.0126048 0.0035371
v 0.0254198 0.0129382 0.0035371
v 0.0254198 0.0124242 0.0035371
v 0.0258087 0.0130493 0.0035371
v 0.0260588 0.0126048 0.0035371
v 0.0260866 0.0133271 0.0035371
v 0.0265311 0.0130771 0.0035371
v 0.0261838 0.0137161 0.0035371
v 0.0260866 0.0141051 0.0035371
v 0.0258087 0.0143846 0.0035371
v 0.0258087 0.0143846 0.0035371
v 0.0254198 0.0144958 0.0035371
v 0.0258087 0.0143846 0.0048290
v 0.0254198 0.0144958 0.0048290
v 0.0250308 0.0143846 0.0035371
v 0.0250308 0.0143846 0.0048290
v 0.0247530 0.0141051 0.0035371
v 0.0247530 0.0141051 0.0048290
v 0.0246419 0.0137161 0.0035371
v 0.0246419 0.0137161 0.0048290
v 0.0247530 0.0133271 0.0035371
v 0.0247530 0.0133271 0.0048290
v 0.0250308 0.0130493 0.0035371
v 0.0250308 0.0130493 0.0048290
v 0.0254198 0.0129382 0.0035371
v 0.0254198 0.0129382 0.0048290
v 0.0258087 0.0130493 0.0035371
v 0.0258087 0.0130493 0.0048290
v 0.0260866 0.0133271 0.0035371
v 0.0260866 0.0133271 0.0048290
v 0.0261838 0.0137161 0.0035371
v 0.0261838 0.0137161 0.0048290
v 0.0260866 0.0141051 0.0035371
v 0.0260866 0.0141051 0.0048290
v 0.0260866 0.0141051 0.0048290
v 0.0254198 0.0137161 0.0048290
v 0.0261838 0.0137161 0.0048290
v 0.0260866 0.0133271 0.0048290
v 0.0258087 0.0130493 0.0048290
v 0.0254198 0.0129382 0.0048290
v 0.0250308 0.0130493 0.0048290
v 0.0247530 0.0133271 0.0048290
v 0.0246419 0.0137161 0.0048290
v 0.0247530 0.0141051 0.0048290
v 0.0250308 0.0143846 0.0048290
v 0.0254198 0.0144958 0.0048290
v 0.0258087 0.0143846 0.0048290
v 0.0292833 0.0137161 -0.0041761
v 0.0296445 0.0162600 -0.0041761
v 0.0292833 0.0137161 -0.0048151
v 0.0296445 0.0162600 -0.0048151
v 0.0334942 0.0162600 0.0050791
v 0.0360641 0.0162600 0.0050791
v 0.0334942 0.0162600 0.0048290
v 0.0360641 0.0162600 -0.0050791
v 0.0296445 0.0162600 0.0048290
v 0.0296445 0.0162600 0.0035371
v 0.0127039 0.0162600 0.0048290
v 0.0237650 0.0162600 0.0048290
v 0.0127039 0.0162600 -0.0048151
v 0.0237650 0.0162600 0.0035371
v 0.0237650 0.0162600 -0.0048151
v 0.0237650 0.0162600 -0.0041761
v 0.0296445 0.0162600 -0.0041761
v 0.0296445 0.0162600 -0.0048151
v 0.0334942 0.0162600 -0.0048151
v 0.0334942 0.0162600 -0.0050791
v 0.0103545 0.0015697 0.0050791
v 0.0113824 0.0017781 0.0050791
v 0.0101600 0.0025439 0.0050791
v 0.0111741 0.0025439 0.0050791
v 0.0101600 0.0051138 0.0050791
v 0.0113824 0.0033079 0.0050791
v 0.0119381 0.0038636 0.0050791
v 0.0127039 0.0051138 0.0050791
v 0.0127039 0.0040580 0.0050791
v 0.0136902 0.0049193 0.0050791
v 0.0134679 0.0038636 0.0050791
v 0.0145237 0.0043637 0.0050791
v 0.0150793 0.0035302 0.0050791
v 0.0140236 0.0033079 0.0050791
v 0.0152738 0.0025439 0.0050791
v 0.0142180 0.0025439 0.0050791
v 0.0152738 0.0000000 0.0050791
v 0.0140236 0.0017781 0.0050791
v 0.0134679 0.0012224 0.0050791
v 0.0127039 0.0000000 0.0050791
v 0.0127039 0.0010141 0.0050791
v 0.0117297 0.0001945 0.0050791
v 0.0119381 0.0012224 0.0050791
v 0.0109101 0.0007501 0.0050791
v 0.0101600 0.0025439 -0.0050791
v 0.0103545 0.0015697 -0.0050791
v 0.0101600 0.0025439 0.0050791
v 0.0103545 0.0015697 0.0050791
v 0.0127039 0.0000000 0.0050791
v 0.0117297 0.0001945 0.0050791
v 0.0127039 0.0000000 -0.0050791
v 0.0117297 0.0001945 -0.0050791
v 0.0109101 0.0007501 0.0050791
v 0.0109101 0.0007501 -0.0050791
v 0.0101600 0.0051138 -0.0048151
v 0.0127039 0.0051138 -0.0048151
v 0.0101600 0.0051138 -0.0050791
v 0.0127039 0.0051138 -0.0050791
v 0.0152738 0.0000000 -0.0050791
v 0.0152738 0.0025439 -0.0050791
v 0.0152738 0.0000000 -0.0048151
v 0.0152738 0.0025439 -0.0048151
v 0.0150793 0.0035302 -0.0050791
v 0.0150793 0.0035302 -0.0048151
v 0.0127039 0.0051138 -0.0048151
v 0.0136902 0.0049193 -0.0048151
v 0.0127039 0.0051138 -0.0050791
v 0.0136902 0.0049193 -0.0050791
v 0.0145237 0.0043637 -0.0048151
v 0.0145237 0.0043637 -0.0050791
v 0.0145237 0.0043637 -0.0050791
v 0.0150793 0.0035302 -0.0050791
v 0.0140236 0.0033079 -0.0050791
v 0.0142180 0.0025439 -0.0050791
v 0.0152738 0.0025439 -0.0050791
v 0.0140236 0.0017781 -0.0050791
v 0.0152738 0.0000000 -0.0050791
v 0.0134679 0.0012224 -0.0050791
v 0.0127039 0.0010141 -0.0050791
v 0.0127039 0.0000000 -0.0050791
v 0.0119381 0.0012224 -0.0050791
v 0.0117297 0.0001945 -0.0050791
v 0.0113824 0.0017781 -0.0050791
v 0.0109101 0.0007501 -0.0050791
v 0.0103545 0.0015697 -0.0050791
v 0.0111741 0.0025439 -0.0050791
v 0.0101600 0.0025439 -0.0050791
v 0.0113824 0.0033079 -0.0050791
v 0.0101600 0.0051138 -0.0050791
v 0.0119381 0.0038636 -0.0050791
v 0.0127039 0.0040580 -0.0050791
v 0.0127039 0.0051138 -0.0050791
v 0.0134679 0.0038636 -0.0050791
v 0.0136902 0.0049193 -0.0050791
v 0.0119381 0.0012224 -0.0050791
v 0.0113824 0.0017781 -0.0050791
v 0.0113824 0.0017781 0.0050791
v 0.0111741 0.0025439 0.0050791
v 0.0111741 0.0025439 -0.0050791
v 0.0113824 0.0033079 0.0050791
v 0.0113824 0.0033079 -0.0050791
v 0.0119381 0.0038636 0.0050791
v 0.0119381 0.0038636 -0.0050791
v 0.0127039 0.0040580 0.0050791
v 0.0127039 0.0040580 -0.0050791
v 0.0134679 0.0038636 0.0050791
v 0.0134679 0.0038636 -0.0050791
v 0.0140236 0.0033079 0.0050791
v 0.0140236 0.0033079 -0.0050791
v 0.0142180 0.0025439 0.0050791
v 0.0142180 0.0025439 -0.0050791
v 0.0140236 0.0017781 0.0050791
v 0.0140236 0.0017781 -0.0050791
v 0.0134679 0.0012224 0.0050791
v 0.0134679 0.0012224 -0.0050791
v 0.0127039 0.0010141 0.0050791
v 0.0127039 0.0010141 -0.0050791
v 0.0119381 0.0012224 0.0050791
v 0.0241261 0.0137161 -0.0048151
v 0.0237650 0.0162600 -0.0048151
v 0.0241261 0.0137161 -0.0041761
v 0.0237650 0.0162600 -0.0041761
v 0.0292833 0.0137161 -0.0041761
v 0.0292833 0.0137161 -0.0048151
v 0.0291166 0.0130771 -0.0041761
v 0.0291166 0.0130771 -0.0048151
v 0.0286443 0.0126048 -0.0041761
v 0.0286443 0.0126048 -0.0048151
v 0.0279897 0.0124242 -0.0041761
v 0.0279897 0.0124242 -0.0048151
v 0.0273507 0.0126048 -0.0041761
v 0.0273507 0.0126048 -0.0048151
v 0.0268784 0.0130771 -0.0041761
v 0.0268784 0.0130771 -0.0048151
v 0.0267117 0.0137161 -0.0041761
v 0.0267117 0.0137161 -0.0048151
v 0.0241261 0.0137161 -0.0048151
v 0.0241261 0.0137161 -0.0041761
v 0.0242928 0.0130771 -0.0048151
v 0.0242928 0.0130771 -0.0041761
v 0.0247669 0.0126048 -0.0048151
v 0.0247669 0.0126048 -0.0041761
v 0.0254198 0.0124242 -0.0048151
v 0.0254198 0.0124242 -0.0041761
v 0.0260588 0.0126048 -0.0048151
v 0.0260588 0.0126048 -0.0041761
v 0.0265311 0.0130771 -0.0048151
v 0.0265311 0.0130771 -0.0041761
v 0.0267117 0.0137161 -0.0048151
v 0.0267117 0.0137161 -0.0041761
v 0.0260866 0.0133271 -0.0041761
v 0.0258087 0.0130493 -0.0041761
v 0.0260866 0.0133271 -0.0048151
v 0.0258087 0.0130493 -0.0048151
v 0.0254198 0.0129382 -0.0041761
v 0.0254198 0.0129382 -0.0048151
v 0.0250308 0.0130493 -0.0041761
v 0.0250308 0.0130493 -0.0048151
v 0.0247530 0.0133271 -0.0041761
v 0.0247530 0.0133271 -0.0048151
v 0.0246419 0.0137161 -0.0041761
v 0.0246419 0.0137161 -0.0048151
v 0.0247530 0.0141051 -0.0041761
v 0.0247530 0.0141051 -0.0048151
v 0.0250308 0.0143846 -0.0041761
v 0.0250308 0.0143846 -0.0048151
v 0.0254198 0.0144958 -0.0041761
v 0.0254198 0.0144958 -0.0048151
v 0.0258087 0.0143846 -0.0041761
v 0.0258087 0.0143846 -0.0048151
v 0.0260866 0.0141051 -0.0041761
v 0.0260866 0.0141051 -0.0048151
v 0.0261838 0.0137161 -0.0041761
v 0.0261838 0.0137161 -0.0048151
v 0.0260866 0.0141051 -0.0048151
v 0.0254198 0.0137161 -0.0048151
v 0.0258087 0.0143846 -0.0048151
v 0.0254198 0.0144958 -0.0048151
v 0.0250308 0.0143846 -0.0048151
v 0.0247530 0.0141051 -0.0048151
v 0.0246419 0.0137161 -0.0048151
v 0.0247530 0.0133271 -0.0048151
v 0.0250308 0.0130493 -0.0048151
v 0.0254198 0.0129382 -0.0048151
v 0.0258087 0.0130493 -0.0048151
v 0.0260866 0.0133271 -0.0048151
v 0.0261838 0.0137161 -0.0048151
v 0.0258087 0.0143846 -0.0041761
v 0.0254198 0.0144958 -0.0041761
v 0.0237650 0.0162600 -0.0041761
v 0.0250308 0.0143846 -0.0041761
v 0.0247530 0.0141051 -0.0041761
v 0.0241261 0.0137161 -0.0041761
v 0.0246419 0.0137161 -0.0041761
v 0.0242928 0.0130771 -0.0041761
v 0.0247530 0.0133271 -0.0041761
v 0.0247669 0.0126048 -0.0041761
v 0.0250308 0.0130493 -0.0041761
v 0.0254198 0.0124242 -0.0041761
v 0.0254198 0.0129382 -0.0041761
v 0.0260588 0.0126048 -0.0041761
v 0.0258087 0.0130493 -0.0041761
v 0.0265311 0.0130771 -0.0041761
v 0.0260866 0.0133271 -0.0041761
v 0.0267117 0.0137161 -0.0041761
v 0.0261838 0.0137161 -0.0041761
v 0.0260866 0.0141051 -0.0041761
v 0.0273229 0.0141051 -0.0041761
v 0.0276146 0.0143846 -0.0041761
v 0.0279897 0.0144958 -0.0041761
v 0.0296445 0.0162600 -0.0041761
v 0.0283787 0.0143846 -0.0041761
v 0.0286721 0.0141051 -0.0041761
v 0.0287694 0.0137161 -0.0041761
v 0.0292833 0.0137161 -0.0041761
v 0.0286721 0.0133271 -0.0041761
v 0.0291166 0.0130771 -0.0041761
v 0.0283787 0.0130493 -0.0041761
v 0.0286443 0.0126048 -0.0041761
v 0.0279897 0.0129382 -0.0041761
v 0.0279897 0.0124242 -0.0041761
v 0.0276146 0.0130493 -0.0041761
v 0.0273507 0.0126048 -0.0041761
v 0.0273229 0.0133271 -0.0041761
v 0.0268784 0.0130771 -0.0041761
v 0.0272257 0.0137161 -0.0041761
v 0.0272257 0.0137161 -0.0041761
v 0.0273229 0.0141051 -0.0041761
v 0.0272257 0.0137161 -0.0048151
v 0.0273229 0.0141051 -0.0048151
v 0.0276146 0.0143846 -0.0041761
v 0.0276146 0.0143846 -0.0048151
v 0.0279897 0.0144958 -0.0041761
v 0.0279897 0.0144958 -0.0048151
v 0.0283787 0.0143846 -0.0041761
v 0.0283787 0.0143846 -0.0048151
v 0.0286721 0.0141051 -0.0041761
v 0.0286721 0.0141051 -0.0048151
v 0.0287694 0.0137161 -0.0041761
v 0.0287694 0.0137161 -0.0048151
v 0.0286721 0.0133271 -0.0041761
v 0.0286721 0.0133271 -0.0048151
v 0.0283787 0.0130493 -0.0041761
v 0.0283787 0.0130493 -0.0048151
v 0.0279897 0.0129382 -0.0041761
v 0.0279897 0.0129382 -0.0048151
v 0.0276146 0.0130493 -0.0041761
v 0.0276146 0.0130493 -0.0048151
v 0.0273229 0.0133271 -0.0041761
v 0.0273229 0.0133271 -0.0048151
v 0.0286721 0.0133271 -0.0048151
v 0.0279897 0.0137161 -0.0048151
v 0.0287694 0.0137161 -0.0048151
v 0.0286721 0.0141051 -0.0048151
v 0.0283787 0.0143846 -0.0048151
v 0.0279897 0.0144958 -0.0048151
v 0.0276146 0.0143846 -0.0048151
v 0.0273229 0.0141051 -0.0048151
v 0.0272257 0.0137161 -0.0048151
v 0.0273229 0.0133271 -0.0048151
v 0.0276146 0.0130493 -0.0048151
v 0.0279897 0.0129382 -0.0048151
v 0.0283787 0.0130493 -0.0048151
v 0.0173176 0.0029328 -0.0048151
v 0.0174148 0.0025439 -0.0048151
v 0.0174148 0.0025439 -0.0041761
v 0.0173176 0.0021549 -0.0041761
v 0.0173176 0.0021549 -0.0048151
v 0.0170259 0.0018753 -0.0041761
v 0.0170259 0.0018753 -0.0048151
v 0.0166369 0.0017642 -0.0041761
v 0.0166369 0.0017642 -0.0048151
v 0.0162618 0.0018753 -0.0041761
v 0.0162618 0.0018753 -0.0048151
v 0.0159684 0.0021549 -0.0041761
v 0.0159684 0.0021549 -0.0048151
v 0.0158711 0.0025439 -0.0041761
v 0.0158711 0.0025439 -0.0048151
v 0.0159684 0.0029328 -0.0041761
v 0.0159684 0.0029328 -0.0048151
v 0.0162618 0.0032107 -0.0041761
v 0.0162618 0.0032107 -0.0048151
v 0.0166369 0.0033079 -0.0041761
v 0.0166369 0.0033079 -0.0048151
v 0.0170259 0.0032107 -0.0041761
v 0.0170259 0.0032107 -0.0048151
v 0.0173176 0.0029328 -0.0041761
v 0.0173176 0.0029328 -0.0041761
v 0.0166369 0.0025439 -0.0041761
v 0.0170259 0.0032107 -0.0041761
v 0.0166369 0.0033079 -0.0041761
v 0.0162618 0.0032107 -0.0041761
v 0.0159684 0.0029328 -0.0041761
v 0.0158711 0.0025439 -0.0041761
v 0.0159684 0.0021549 -0.0041761
v 0.0162618 0.0018753 -0.0041761
v 0.0166369 0.0017642 -0.0041761
v 0.0170259 0.0018753 -0.0041761
v 0.0173176 0.0021549 -0.0041761
v 0.0174148 0.0025439 -0.0041761
v 0.0267117 0.0137161 -0.0048151
v 0.0268784 0.0130771 -0.0048151
v 0.0265311 0.0130771 -0.0048151
v 0.0273507 0.0126048 -0.0048151
v 0.0260588 0.0126048 -0.0048151
v 0.0254198 0.0124242 -0.0048151
v 0.0174148 0.0025439 -0.0048151
v 0.0247669 0.0126048 -0.0048151
v 0.0173176 0.0029328 -0.0048151
v 0.0242928 0.0130771 -0.0048151
v 0.0170259 0.0032107 -0.0048151
v 0.0241261 0.0137161 -0.0048151
v 0.0237650 0.0162600 -0.0048151
v 0.0127039 0.0162600 -0.0048151
v 0.0166369 0.0033079 -0.0048151
v 0.0117297 0.0160655 -0.0048151
v 0.0109101 0.0155098 -0.0048151
v 0.0103545 0.0146902 -0.0048151
v 0.0101600 0.0137161 -0.0048151
v 0.0162618 0.0032107 -0.0048151
v 0.0159684 0.0029328 -0.0048151
v 0.0101600 0.0051138 -0.0048151
v 0.0127039 0.0051138 -0.0048151
v 0.0136902 0.0049193 -0.0048151
v 0.0145237 0.0043637 -0.0048151
v 0.0150793 0.0035302 -0.0048151
v 0.0152738 0.0025439 -0.0048151
v 0.0158711 0.0025439 -0.0048151
v 0.0152738 0.0000000 -0.0048151
v 0.0159684 0.0021549 -0.0048151
v 0.0162618 0.0018753 -0.0048151
v 0.0166369 0.0017642 -0.0048151
v 0.0360641 0.0000000 -0.0048151
v 0.0170259 0.0018753 -0.0048151
v 0.0173176 0.0021549 -0.0048151
v 0.0370383 0.0001945 -0.0048151
v 0.0378579 0.0007501 -0.0048151
v 0.0384135 0.0015697 -0.0048151
v 0.0386080 0.0025439 -0.0048151
v 0.0279897 0.0124242 -0.0048151
v 0.0286443 0.0126048 -0.0048151
v 0.0291166 0.0130771 -0.0048151
v 0.0386080 0.0111323 -0.0048151
v 0.0360641 0.0111323 -0.0048151
v 0.0350778 0.0113268 -0.0048151
v 0.0342443 0.0118963 -0.0048151
v 0.0292833 0.0137161 -0.0048151
v 0.0296445 0.0162600 -0.0048151
v 0.0313532 0.0137161 -0.0048151
v 0.0314504 0.0141051 -0.0048151
v 0.0317421 0.0143846 -0.0048151
v 0.0321311 0.0144958 -0.0048151
v 0.0334942 0.0162600 -0.0048151
v 0.0325062 0.0143846 -0.0048151
v 0.0327996 0.0141051 -0.0048151
v 0.0328969 0.0137161 -0.0048151
v 0.0334942 0.0137161 -0.0048151
v 0.0327996 0.0133271 -0.0048151
v 0.0336887 0.0127298 -0.0048151
v 0.0325062 0.0130493 -0.0048151
v 0.0321311 0.0129382 -0.0048151
v 0.0317421 0.0130493 -0.0048151
v 0.0314504 0.0133271 -0.0048151
v 0.0314504 0.0133271 -0.0048151
v 0.0313532 0.0137161 -0.0048151
v 0.0313532 0.0137161 -0.0041761
v 0.0314504 0.0141051 -0.0041761
v 0.0314504 0.0141051 -0.0048151
v 0.0317421 0.0143846 -0.0041761
v 0.0317421 0.0143846 -0.0048151
v 0.0321311 0.0144958 -0.0041761
v 0.0321311 0.0144958 -0.0048151
v 0.0325062 0.0143846 -0.0041761
v 0.0325062 0.0143846 -0.0048151
v 0.0327996 0.0141051 -0.0041761
v 0.0327996 0.0141051 -0.0048151
v 0.0328969 0.0137161 -0.0041761
v 0.0328969 0.0137161 -0.0048151
v 0.0327996 0.0133271 -0.0041761
v 0.0327996 0.0133271 -0.0048151
v 0.0325062 0.0130493 -0.0041761
v 0.0325062 0.0130493 -0.0048151
v 0.0321311 0.0129382 -0.0041761
v 0.0321311 0.0129382 -0.0048151
v 0.0317421 0.0130493 -0.0041761
v 0.0317421 0.0130493 -0.0048151
v 0.0314504 0.0133271 -0.0041761
v 0.0328969 0.0137161 -0.0041761
v 0.0321311 0.0137161 -0.0041761
v 0.0327996 0.0141051 -0.0041761
v 0.0325062 0.0143846 -0.0041761
v 0.0321311 0.0144958 -0.0041761
v 0.0317421 0.0143846 -0.0041761
v 0.0314504 0.0141051 -0.0041761
v 0.0313532 0.0137161 -0.0041761
v 0.0314504 0.0133271 -0.0041761
v 0.0317421 0.0130493 -0.0041761
v 0.0321311 0.0129382 -0.0041761
v 0.0325062 0.0130493 -0.0041761
v 0.0327996 0.0133271 -0.0041761
v 0.0368299 0.0150375 0.0050791
v 0.0373855 0.0144819 0.0050791
v 0.0378579 0.0155098 0.0050791
v 0.0384135 0.0146902 0.0050791
v 0.0386080 0.0137161 0.0050791
v 0.0375939 0.0137161 0.0050791
v 0.0386080 0.0111323 0.0050791
v 0.0373855 0.0129521 0.0050791
v 0.0368299 0.0123964 0.0050791
v 0.0360641 0.0111323 0.0050791
v 0.0360641 0.0121880 0.0050791
v 0.0350778 0.0113268 0.0050791
v 0.0353001 0.0123964 0.0050791
v 0.0342443 0.0118963 0.0050791
v 0.0347444 0.0129521 0.0050791
v 0.0336887 0.0127298 0.0050791
v 0.0334942 0.0137161 0.0050791
v 0.0345499 0.0137161 0.0050791
v 0.0334942 0.0162600 0.0050791
v 0.0347444 0.0144819 0.0050791
v 0.0353001 0.0150375 0.0050791
v 0.0360641 0.0162600 0.0050791
v 0.0360641 0.0152459 0.0050791
v 0.0370383 0.0160655 0.0050791
v 0.0386080 0.0137161 -0.0050791
v 0.0384135 0.0146902 -0.0050791
v 0.0386080 0.0137161 0.0050791
v 0.0384135 0.0146902 0.0050791
v 0.0378579 0.0155098 -0.0050791
v 0.0378579 0.0155098 0.0050791
v 0.0360641 0.0162600 0.0050791
v 0.0370383 0.0160655 0.0050791
v 0.0360641 0.0162600 -0.0050791
v 0.0370383 0.0160655 -0.0050791
v 0.0360641 0.0121880 -0.0050791
v 0.0353001 0.0123964 -0.0050791
v 0.0353001 0.0123964 0.0050791
v 0.0347444 0.0129521 0.0050791
v 0.0347444 0.0129521 -0.0050791
v 0.0345499 0.0137161 0.0050791
v 0.0345499 0.0137161 -0.0050791
v 0.0347444 0.0144819 0.0050791
v 0.0347444 0.0144819 -0.0050791
v 0.0353001 0.0150375 0.0050791
v 0.0353001 0.0150375 -0.0050791
v 0.0360641 0.0152459 0.0050791
v 0.0360641 0.0152459 -0.0050791
v 0.0368299 0.0150375 0.0050791
v 0.0368299 0.0150375 -0.0050791
v 0.0373855 0.0144819 0.0050791
v 0.0373855 0.0144819 -0.0050791
v 0.0375939 0.0137161 0.0050791
v 0.0375939 0.0137161 -0.0050791
v 0.0373855 0.0129521 0.0050791
v 0.0373855 0.0129521 -0.0050791
v 0.0368299 0.0123964 0.0050791
v 0.0368299 0.0123964 -0.0050791
v 0.0360641 0.0121880 0.0050791
v 0.0334942 0.0162600 -0.0050791
v 0.0334942 0.0137161 -0.0050791
v 0.0334942 0.0162600 -0.0048151
v 0.0334942 0.0137161 -0.0048151
v 0.0336887 0.0127298 -0.0050791
v 0.0336887 0.0127298 -0.0048151
v 0.0360641 0.0111323 -0.0048151
v 0.0350778 0.0113268 -0.0048151
v 0.0360641 0.0111323 -0.0050791
v 0.0350778 0.0113268 -0.0050791
v 0.0342443 0.0118963 -0.0048151
v 0.0342443 0.0118963 -0.0050791
v 0.0336887 0.0127298 -0.0050791
v 0.0334942 0.0137161 -0.0050791
v 0.0345499 0.0137161 -0.0050791
v 0.0347444 0.0144819 -0.0050791
v 0.0334942 0.0162600 -0.0050791
v 0.0353001 0.0150375 -0.0050791
v 0.0360641 0.0152459 -0.0050791
v 0.0360641 0.0162600 -0.0050791
v 0.0368299 0.0150375 -0.0050791
v 0.0370383 0.0160655 -0.0050791
v 0.0373855 0.0144819 -0.0050791
v 0.0378579 0.0155098 -0.0050791
v 0.0384135 0.0146902 -0.0050791
v 0.0375939 0.0137161 -0.0050791
v 0.0386080 0.0137161 -0.0050791
v 0.0373855 0.0129521 -0.0050791
v 0.0386080 0.0111323 -0.0050791
v 0.0368299 0.0123964 -0.0050791
v 0.0360641 0.0121880 -0.0050791
v 0.0360641 0.0111323 -0.0050791
v 0.0353001 0.0123964 -0.0050791
v 0.0350778 0.0113268 -0.0050791
v 0.0347444 0.0129521 -0.0050791
v 0.0342443 0.0118963 -0.0050791
v 0.0174148 0.0025439 0.0048290
v 0.0173176 0.0029328 0.0048290
v 0.0173176 0.0029328 0.0035371
v 0.0170259 0.0032107 0.0035371
v 0.0170259 0.0032107 0.0048290
v 0.0166369 0.0033079 0.0035371
v 0.0166369 0.0033079 0.0048290
v 0.0162618 0.0032107 0.0035371
v 0.0162618 0.0032107 0.0048290
v 0.0159684 0.0029328 0.0035371
v 0.0159684 0.0029328 0.0048290
v 0.0158711 0.0025439 0.0035371
v 0.0158711 0.0025439 0.0048290
v 0.0159684 0.0021549 0.0035371
v 0.0159684 0.0021549 0.0048290
v 0.0162618 0.0018753 0.0035371
v 0.0162618 0.0018753 0.0048290
v 0.0166369 0.0017642 0.0035371
v 0.0166369 0.0017642 0.0048290
v 0.0170259 0.0018753 0.0035371
v 0.0170259 0.0018753 0.0048290
v 0.0173176 0.0021549 0.0035371
v 0.0173176 0.0021549 0.0048290
v 0.0174148 0.0025439 0.0035371
v 0.0174148 0.0025439 0.0035371
v 0.0166369 0.0025439 0.0035371
v 0.0173176 0.0021549 0.0035371
v 0.0170259 0.0018753 0.0035371
v 0.0166369 0.0017642 0.0035371
v 0.0162618 0.0018753 0.0035371
v 0.0159684 0.0021549 0.0035371
v 0.0158711 0.0025439 0.0035371
v 0.0159684 0.0029328 0.0035371
v 0.0162618 0.0032107 0.0035371
v 0.0166369 0.0033079 0.0035371
v 0.0170259 0.0032107 0.0035371
v 0.0173176 0.0029328 0.0035371
v 0.0328969 0.0137161 0.0048290
v 0.0327996 0.0141051 0.0048290
v 0.0327996 0.0141051 0.0035371
v 0.0325062 0.0143846 0.0035371
v 0.0325062 0.0143846 0.0048290
v 0.0321311 0.0144958 0.0035371
v 0.0321311 0.0144958 0.0048290
v 0.0317421 0.0143846 0.0035371
v 0.0317421 0.0143846 0.0048290
v 0.0314504 0.0141051 0.0035371
v 0.0314504 0.0141051 0.0048290
v 0.0313532 0.0137161 0.0035371
v 0.0313532 0.0137161 0.0048290
v 0.0314504 0.0133271 0.0035371
v 0.0314504 0.0133271 0.0048290
v 0.0317421 0.0130493 0.0035371
v 0.0317421 0.0130493 0.0048290
v 0.0321311 0.0129382 0.0035371
v 0.0321311 0.0129382 0.0048290
v 0.0325062 0.0130493 0.0035371
v 0.0325062 0.0130493 0.0048290
v 0.0327996 0.0133271 0.0035371
v 0.0327996 0.0133271 0.0048290
v 0.0328969 0.0137161 0.0035371
v 0.0328969 0.0137161 0.0035371
v 0.0321311 0.0137161 0.0035371
v 0.0327996 0.0133271 0.0035371
v 0.0325062 0.0130493 0.0035371
v 0.0321311 0.0129382 0.0035371
v 0.0317421 0.0130493 0.0035371
v 0.0314504 0.0133271 0.0035371
v 0.0313532 0.0137161 0.0035371
v 0.0314504 0.0141051 0.0035371
v 0.0317421 0.0143846 0.0035371
v 0.0321311 0.0144958 0.0035371
v 0.0325062 0.0143846 0.0035371
v 0.0327996 0.0141051 0.0035371
f 1 2 3
f 3 2 4
f 5 4 6
f 4 2 6
f 6 2 7
f 2 8 7
f 9 10 11
f 11 10 12
f 10 13 12
f 12 13 14
f 13 15 14
f 14 15 16
f 15 17 16
f 17 18 16
f 19 20 21
f 21 20 22
f 20 23 22
f 22 23 24
f 23 25 24
f 24 25 26
f 25 27 26
f 26 27 28
f 27 29 28
f 28 29 30
f 29 31 30
f 31 32 30
f 33 34 35
f 34 36 35
f 37 38 39
f 38 40 39
f 39 40 41
f 40 42 41
f 41 42 43
f 42 44 43
f 43 44 45
f 44 46 45
f 45 46 47
f 46 48 47
f 47 48 49
f 48 50 49
f 51 52 53
f 52 54 53
f 53 54 55
f 54 56 55
f 55 56 57
f 56 58 57
f 57 58 59
f 58 60 59
f 59 60 61
f 60 62 61
f 61 62 63
f 62 64 63
f 65 66 67
f 66 68 67
f 69 70 71
f 71 70 72
f 70 73 72
f 72 73 74
f 73 75 74
f 74 75 76
f 75 77 76
f 76 77 78
f 77 79 78
f 79 80 78
f 81 82 83
f 82 84 83
f 85 86 87
f 86 88 87
f 89 90 91
f 90 92 91
f 93 94 95
f 94 91 95
f 91 92 95
f 92 96 95
f 97 98 99
f 99 98 100
f 98 101 100
f 100 101 102
f 101 103 102
f 102 103 104
f 103 105 104
f 104 105 106
f 106 105 107
f 105 108 107
f 109 107 110
f 110 107 111
f 107 108 111
f 108 112 111
f 113 114 115
f 115 114 116
f 114 117 116
f 116 117 118
f 117 119 118
f 118 119 120
f 119 121 120
f 120 121 122
f 121 123 122
f 122 123 124
f 123 125 124
f 124 125 126
f 125 127 126
f 126 127 128
f 127 129 128
f 128 129 130
f 129 131 130
f 130 131 132
f 131 133 132
f 132 133 134
f 133 135 134
f 134 135 136
f 135 113 136
f 113 115 136
f 137 138 139
f 139 138 140
f 140 138 141
f 141 138 142
f 142 138 143
f 143 138 144
f 144 138 145
f 145 138 146
f 146 138 147
f 147 138 148
f 148 138 149
f 138 137 149
f 150 151 169
f 151 152 169
f 152 153 169
f 169 153 154
f 153 155 154
f 154 155 156
f 155 157 156
f 156 157 158
f 157 159 158
f 158 159 160
f 159 161 160
f 160 161 162
f 161 163 162
f 162 163 164
f 163 165 164
f 164 165 166
f 165 167 166
f 167 168 166
f 168 150 166
f 150 169 166
f 169 170 171
f 171 170 172
f 172 170 173
f 173 170 174
f 170 175 174
f 174 175 176
f 175 177 176
f 176 177 178
f 177 179 178
f 178 179 180
f 179 181 180
f 180 181 182
f 181 183 182
f 182 183 184
f 183 185 184
f 184 185 186
f 185 166 186
f 186 166 187
f 166 169 187
f 187 169 188
f 169 171 188
f 189 190 191
f 191 190 192
f 190 193 192
f 192 193 194
f 193 195 194
f 194 195 196
f 195 197 196
f 196 197 198
f 197 199 198
f 198 199 200
f 199 201 200
f 200 201 202
f 201 203 202
f 202 203 204
f 203 205 204
f 204 205 206
f 205 207 206
f 206 207 208
f 207 209 208
f 208 209 210
f 209 211 210
f 210 211 212
f 211 189 212
f 189 191 212
f 213 214 215
f 215 214 216
f 216 214 217
f 217 214 218
f 218 214 219
f 219 214 220
f 220 214 221
f 221 214 222
f 222 214 223
f 223 214 224
f 224 214 225
f 214 213 225
f 226 227 228
f 227 229 228
f 230 231 232
f 231 233 232
f 234 232 235
f 236 237 238
f 237 239 238
f 240 238 241
f 238 239 241
f 241 239 242
f 239 235 242
f 235 232 242
f 242 232 243
f 243 232 244
f 232 233 244
f 233 245 244
f 246 247 248
f 247 249 248
f 248 249 250
f 249 251 250
f 251 252 250
f 250 252 253
f 252 254 253
f 253 254 255
f 254 256 255
f 255 256 257
f 257 256 258
f 256 259 258
f 258 259 260
f 259 261 260
f 260 261 262
f 261 263 262
f 263 264 262
f 262 264 265
f 264 266 265
f 265 266 267
f 266 268 267
f 267 268 269
f 268 247 269
f 247 246 269
f 270 271 272
f 272 271 273
f 274 275 276
f 276 275 277
f 275 278 277
f 277 278 279
f 278 273 279
f 273 271 279
f 280 281 282
f 281 283 282
f 284 285 286
f 286 285 287
f 285 288 287
f 287 288 289
f 290 291 292
f 292 291 293
f 291 294 293
f 293 294 295
f 294 289 295
f 289 288 295
f 296 297 298
f 298 297 299
f 297 300 299
f 299 300 301
f 300 302 301
f 301 302 303
f 303 302 304
f 302 305 304
f 304 305 306
f 305 307 306
f 306 307 308
f 307 309 308
f 309 310 308
f 308 310 311
f 310 312 311
f 311 312 313
f 312 314 313
f 313 314 315
f 315 314 316
f 314 317 316
f 316 317 318
f 317 319 318
f 319 296 318
f 296 298 318
f 320 321 322
f 322 321 323
f 321 324 323
f 323 324 325
f 324 326 325
f 325 326 327
f 326 328 327
f 327 328 329
f 328 330 329
f 329 330 331
f 330 332 331
f 331 332 333
f 332 334 333
f 333 334 335
f 334 336 335
f 335 336 337
f 336 338 337
f 337 338 339
f 338 340 339
f 339 340 341
f 340 342 341
f 341 342 343
f 342 320 343
f 320 322 343
f 344 345 346
f 345 347 346
f 348 349 350
f 349 351 350
f 350 351 352
f 351 353 352
f 352 353 354
f 353 355 354
f 354 355 356
f 355 357 356
f 356 357 358
f 357 359 358
f 358 359 360
f 359 361 360
f 362 363 364
f 363 365 364
f 364 365 366
f 365 367 366
f 366 367 368
f 367 369 368
f 368 369 370
f 369 371 370
f 370 371 372
f 371 373 372
f 372 373 374
f 374 373 375
f 376 377 378
f 378 377 379
f 377 380 379
f 379 380 381
f 380 382 381
f 381 382 383
f 382 384 383
f 383 384 385
f 384 386 385
f 385 386 387
f 386 388 387
f 387 388 389
f 388 390 389
f 389 390 391
f 390 392 391
f 391 392 393
f 392 394 393
f 393 394 395
f 394 396 395
f 395 396 397
f 396 398 397
f 397 398 399
f 398 376 399
f 376 378 399
f 400 401 402
f 402 401 403
f 403 401 404
f 404 401 405
f 405 401 406
f 406 401 407
f 407 401 408
f 408 401 409
f 409 401 410
f 410 401 411
f 411 401 412
f 401 400 412
f 413 414 415
f 414 416 415
f 416 417 415
f 415 417 418
f 417 419 418
f 418 419 420
f 419 421 420
f 420 421 422
f 421 423 422
f 422 423 424
f 423 425 424
f 424 425 426
f 425 427 426
f 426 427 428
f 427 429 428
f 428 429 430
f 429 431 430
f 431 432 430
f 432 413 430
f 413 415 430
f 430 415 433
f 433 415 434
f 434 415 435
f 415 436 435
f 435 436 437
f 437 436 438
f 438 436 439
f 436 440 439
f 439 440 441
f 440 442 441
f 441 442 443
f 442 444 443
f 443 444 445
f 444 446 445
f 445 446 447
f 446 448 447
f 447 448 449
f 448 450 449
f 449 450 451
f 450 430 451
f 430 433 451
f 452 453 454
f 454 453 455
f 453 456 455
f 455 456 457
f 456 458 457
f 457 458 459
f 458 460 459
f 459 460 461
f 460 462 461
f 461 462 463
f 462 464 463
f 463 464 465
f 464 466 465
f 465 466 467
f 466 468 467
f 467 468 469
f 468 470 469
f 469 470 471
f 470 472 471
f 471 472 473
f 472 474 473
f 473 474 475
f 474 452 475
f 452 454 475
f 476 477 478
f 478 477 479
f 479 477 480
f 480 477 481
f 481 477 482
f 482 477 483
f 483 477 484
f 484 477 485
f 485 477 486
f 486 477 487
f 487 477 488
f 477 476 488
f 489 490 491
f 491 490 492
f 490 493 492
f 492 493 494
f 493 495 494
f 494 495 496
f 495 497 496
f 496 497 498
f 497 499 498
f 498 499 500
f 499 501 500
f 500 501 502
f 501 503 502
f 502 503 504
f 503 505 504
f 504 505 506
f 505 507 506
f 506 507 508
f 507 509 508
f 508 509 510
f 509 511 510
f 510 511 512
f 511 489 512
f 489 491 512
f 513 514 515
f 515 514 516
f 516 514 517
f 517 514 518
f 518 514 519
f 519 514 520
f 520 514 521
f 521 514 522
f 522 514 523
f 523 514 524
f 524 514 525
f 514 513 525
f 526 527 528
f 527 529 528
f 528 529 530
f 531 532 533
f 532 534 533
f 533 534 535
f 534 536 535
f 535 536 537
f 537 536 538
f 538 536 539
f 536 540 539
f 539 540 541
f 541 540 542
f 542 540 543
f 543 540 544
f 540 545 544
f 545 546 544
f 547 544 548
f 548 544 549
f 549 544 550
f 544 546 550
f 550 546 551
f 551 546 552
f 546 553 552
f 552 553 554
f 553 555 554
f 555 556 554
f 556 557 554
f 554 557 558
f 557 559 558
f 559 560 558
f 560 532 558
f 561 558 562
f 562 558 563
f 563 558 564
f 558 532 564
f 532 531 564
f 531 530 564
f 530 529 564
f 529 565 564
f 565 566 564
f 566 567 564
f 568 564 569
f 569 564 570
f 570 564 571
f 572 573 574
f 574 573 575
f 575 573 576
f 576 573 577
f 573 578 577
f 577 578 579
f 579 578 580
f 580 578 581
f 578 582 581
f 581 582 583
f 582 584 583
f 584 571 583
f 571 564 583
f 583 564 585
f 585 564 586
f 586 564 587
f 564 567 587
f 587 567 588
f 567 572 588
f 572 574 588
f 589 590 591
f 591 590 592
f 590 593 592
f 592 593 594
f 593 595 594
f 594 595 596
f 595 597 596
f 596 597 598
f 597 599 598
f 598 599 600
f 599 601 600
f 600 601 602
f 601 603 602
f 602 603 604
f 603 605 604
f 604 605 606
f 605 607 606
f 606 607 608
f 607 609 608
f 608 609 610
f 609 611 610
f 610 611 612
f 611 589 612
f 589 591 612
f 613 614 615
f 615 614 616
f 616 614 617
f 617 614 618
f 618 614 619
f 619 614 620
f 620 614 621
f 621 614 622
f 622 614 623
f 623 614 624
f 624 614 625
f 614 613 625
f 626 627 628
f 628 627 629
f 629 627 630
f 627 631 630
f 630 631 632
f 631 633 632
f 633 634 632
f 632 634 635
f 634 636 635
f 635 636 637
f 636 638 637
f 637 638 639
f 638 640 639
f 639 640 641
f 641 640 642
f 640 643 642
f 642 643 644
f 643 645 644
f 645 646 644
f 644 646 647
f 646 648 647
f 647 648 649
f 648 626 649
f 626 628 649
f 650 651 652
f 652 651 653
f 651 654 653
f 653 654 655
f 656 657 658
f 658 657 659
f 657 655 659
f 655 654 659
f 660 661 662
f 662 661 663
f 661 664 663
f 663 664 665
f 664 666 665
f 665 666 667
f 666 668 667
f 667 668 669
f 668 670 669
f 669 670 671
f 670 672 671
f 671 672 673
f 672 674 673
f 673 674 675
f 674 676 675
f 675 676 677
f 676 678 677
f 677 678 679
f 678 680 679
f 679 680 681
f 680 682 681
f 681 682 683
f 682 660 683
f 660 662 683
f 684 685 686
f 686 685 687
f 685 688 687
f 687 688 689
f 690 691 692
f 692 691 693
f 691 694 693
f 693 694 695
f 694 689 695
f 689 688 695
f 696 697 698
f 698 697 699
f 697 700 699
f 699 700 701
f 701 700 702
f 700 703 702
f 702 703 704
f 703 705 704
f 704 705 706
f 705 707 706
f 707 708 706
f 706 708 709
f 708 710 709
f 709 710 711
f 710 712 711
f 711 712 713
f 713 712 714
f 712 715 714
f 714 715 716
f 715 717 716
f 716 717 718
f 717 719 718
f 719 696 718
f 696 698 718
f 720 721 722
f 722 721 723
f 721 724 723
f 723 724 725
f 724 726 725
f 725 726 727
f 726 728 727
f 727 728 729
f 728 730 729
f 729 730 731
f 730 732 731
f 731 732 733
f 732 734 733
f 733 734 735
f 734 736 735
f 735 736 737
f 736 738 737
f 737 738 739
f 738 740 739
f 739 740 741
f 740 742 741
f 741 742 743
f 742 720 743
f 720 722 743
f 744 745 746
f 746 745 747
f 747 745 748
f 748 745 749
f 749 745 750
f 750 745 751
f 751 745 752
f 752 745 753
f 753 745 754
f 754 745 755
f 755 745 756
f 745 744 756
f 757 758 759
f 759 758 760
f 758 761 760
f 760 761 762
f 761 763 762
f 762 763 764
f 763 765 764
f 764 765 766
f 765 767 766
f 766 767 768
f 767 769 768
f 768 769 770
f 769 771 770
f 770 771 772
f 771 773 772
f 772 773 774
f 773 775 774
f 774 775 776
f 775 777 776
f 776 777 778
f 777 779 778
f 778 779 780
f 779 757 780
f 757 759 780
f 781 782 783
f 783 782 784
f 784 782 785
f 785 782 786
f 786 782 787
f 787 782 788
f 788 782 789
f 789 782 790
f 790 782 791
f 791 782 792
f 792 782 793
f 782 781 793
usemtl material_1
v 0.0233680 0.0158637 -0.0025391
v 0.0233680 0.0158637 0.0025490
v 0.0223390 0.0158637 -0.0025391
v 0.0223390 0.0158637 0.0025490
v 0.0233680 0.0158637 0.0025490
v 0.0233680 0.0158637 -0.0025391
v 0.0233680 0.0172861 0.0025490
v 0.0233680 0.0172861 -0.0025391
v 0.0223390 0.0158637 -0.0025391
v 0.0223390 0.0158637 0.0025490
v 0.0223390 0.0167716 -0.0025391
v 0.0223390 0.0167716 0.0025490
v 0.0233680 0.0172861 -0.0025391
v 0.0233377 0.0174979 -0.0025391
v 0.0233680 0.0172861 0.0025490
v 0.0233377 0.0174979 0.0025490
v 0.0232772 0.0177098 -0.0025391
v 0.0232772 0.0177098 0.0025490
v 0.0231562 0.0178914 -0.0025391
v 0.0231562 0.0178914 0.0025490
v 0.0229746 0.0180729 -0.0025391
v 0.0229746 0.0180729 0.0025490
v 0.0227930 0.0181940 -0.0025391
v 0.0227930 0.0181940 0.0025490
v 0.0225811 0.0182545 -0.0025391
v 0.0225811 0.0182545 0.0025490
v 0.0223390 0.0182848 -0.0025391
v 0.0223390 0.0182848 0.0025490
v 0.0223390 0.0182848 0.0025490
v 0.0223390 0.0182848 -0.0025391
v -0.0386080 0.0182848 0.0025490
v -0.0386080 0.0182848 -0.0025391
v 0.0223390 0.0167716 -0.0025391
v 0.0223390 0.0167716 0.0025490
v 0.0223390 0.0168624 -0.0025391
v 0.0223390 0.0168624 0.0025490
v 0.0223088 0.0169835 -0.0025391
v 0.0223088 0.0169835 0.0025490
v 0.0222482 0.0170742 -0.0025391
v 0.0222482 0.0170742 0.0025490
v 0.0221575 0.0171650 -0.0025391
v 0.0221575 0.0171650 0.0025490
v 0.0220667 0.0172256 -0.0025391
v 0.0220667 0.0172256 0.0025490
v 0.0219456 0.0172558 -0.0025391
v 0.0219456 0.0172558 0.0025490
v 0.0218548 0.0172861 -0.0025391
v 0.0218548 0.0172861 0.0025490
v 0.0223390 0.0158637 0.0025490
v 0.0233680 0.0158637 0.0025490
v 0.0223390 0.0167716 0.0025490
v 0.0233680 0.0172861 0.0025490
v 0.0223390 0.0168624 0.0025490
v 0.0223088 0.0169835 0.0025490
v 0.0233377 0.0174979 0.0025490
v 0.0232772 0.0177098 0.0025490
v 0.0222482 0.0170742 0.0025490
v 0.0231562 0.0178914 0.0025490
v 0.0221575 0.0171650 0.0025490
v 0.0229746 0.0180729 0.0025490
v 0.0227930 0.0181940 0.0025490
v 0.0220667 0.0172256 0.0025490
v 0.0225811 0.0182545 0.0025490
v 0.0219456 0.0172558 0.0025490
v 0.0223390 0.0182848 0.0025490
v 0.0218548 0.0172861 0.0025490
v -0.0386080 0.0172861 0.0025490
v -0.0386080 0.0182848 0.0025490
v -0.0386080 0.0182848 0.0025490
v -0.0386080 0.0182848 -0.0025391
v -0.0386080 0.0172861 0.0025490
v -0.0386080 0.0172861 -0.0025391
v 0.0233680 0.0158637 -0.0025391
v 0.0223390 0.0158637 -0.0025391
v 0.0233680 0.0172861 -0.0025391
v 0.0223390 0.0167716 -0.0025391
v 0.0223390 0.0168624 -0.0025391
v 0.0233377 0.0174979 -0.0025391
v 0.0223088 0.0169835 -0.0025391
v 0.0232772 0.0177098 -0.0025391
v 0.0222482 0.0170742 -0.0025391
v 0.0231562 0.0178914 -0.0025391
v 0.0229746 0.0180729 -0.0025391
v 0.0221575 0.0171650 -0.0025391
v 0.0227930 0.0181940 -0.0025391
v 0.0220667 0.0172256 -0.0025391
v 0.0225811 0.0182545 -0.0025391
v 0.0223390 0.0182848 -0.0025391
v 0.0219456 0.0172558 -0.0025391
v 0.0218548 0.0172861 -0.0025391
v -0.0386080 0.0182848 -0.0025391
v -0.0386080 0.0172861 -0.0025391
v 0.0218548 0.0172861 -0.0025391
v 0.0218548 0.0172861 0.0025490
v -0.0386080 0.0172861 -0.0025391
v -0.0386080 0.0172861 0.0025490
f 794 795 796
f 795 797 796
f 798 799 800
f 799 801 800
f 802 803 804
f 803 805 804
f 806 807 808
f 808 807 809
f 807 810 809
f 809 810 811
f 810 812 811
f 811 812 813
f 812 814 813
f 813 814 815
f 814 816 815
f 815 816 817
f 816 818 817
f 817 818 819
f 818 820 819
f 820 821 819
f 822 823 824
f 823 825 824
f 826 827 828
f 827 829 828
f 828 829 830
f 829 831 830
f 830 831 832
f 831 833 832
f 832 833 834
f 833 835 834
f 834 835 836
f 835 837 836
f 836 837 838
f 837 839 838
f 838 839 840
f 839 841 840
f 842 843 844
f 843 845 844
f 844 845 846
f 846 845 847
f 845 848 847
f 848 849 847
f 847 849 850
f 849 851 850
f 850 851 852
f 851 853 852
f 853 854 852
f 852 854 855
f 854 856 855
f 855 856 857
f 856 858 857
f 857 858 859
f 859 858 860
f 858 861 860
f 862 863 864
f 863 865 864
f 866 867 868
f 867 869 868
f 869 870 868
f 868 870 871
f 870 872 871
f 871 872 873
f 872 874 873
f 873 874 875
f 875 874 876
f 874 877 876
f 876 877 878
f 877 879 878
f 878 879 880
f 880 879 881
f 879 882 881
f 882 883 881
f 881 883 884
f 883 885 884
f 886 887 888
f 887 889 888
usemtl material_2
v 0.0142240 0.0172709 0.0025409
v 0.0142240 0.0172709 -0.0025391
v 0.0142240 0.0162560 0.0025409
v 0.0142240 0.0162560 -0.0025391
v 0.0142240 0.0172709 -0.0025391
v 0.0142240 0.0172709 0.0025409
v 0.0172714 0.0172709 -0.0025391
v 0.0172714 0.0172709 0.0025409
v 0.0142240 0.0162560 0.0025409
v 0.0172714 0.0162560 0.0025409
v 0.0142240 0.0172709 0.0025409
v 0.0172714 0.0172709 0.0025409
v 0.0142240 0.0162560 0.0025409
v 0.0142240 0.0162560 -0.0025391
v 0.0172714 0.0162560 0.0025409
v 0.0172714 0.0162560 -0.0025391
v 0.0142240 0.0172709 -0.0025391
v 0.0172714 0.0172709 -0.0025391
v 0.0142240 0.0162560 -0.0025391
v 0.0172714 0.0162560 -0.0025391
v 0.0172714 0.0162560 0.0025409
v 0.0172714 0.0162560 -0.0025391
v 0.0172714 0.0172709 0.0025409
v 0.0172714 0.0172709 -0.0025391
f 890 891 892
f 891 893 892
f 894 895 896
f 895 897 896
f 898 899 900
f 899 901 900
f 902 903 904
f 903 905 904
f 906 907 908
f 907 909 908
f 910 911 912
f 912 911 913
usemtl material_3
v 0.0173176 0.0029328 0.0048229
v 0.0321311 0.0129382 0.0048229
v 0.0170259 0.0032107 0.0048229
v 0.0166369 0.0033079 0.0048229
v 0.0162618 0.0032107 0.0048229
v 0.0174148 0.0025439 0.0048229
v 0.0173176 0.0021549 0.0048229
v 0.0386080 0.0025439 0.0048229
v 0.0370383 0.0001945 0.0048229
v 0.0378579 0.0007501 0.0048229
v 0.0360641 0.0000000 0.0048229
v 0.0384135 0.0015697 0.0048229
v 0.0170259 0.0018753 0.0048229
v 0.0152738 0.0000000 0.0048229
v 0.0166369 0.0017642 0.0048229
v 0.0162618 0.0018753 0.0048229
v 0.0159684 0.0021549 0.0048229
v 0.0152738 0.0025439 0.0048229
v 0.0158711 0.0025439 0.0048229
v 0.0150793 0.0035302 0.0048229
v 0.0159684 0.0029328 0.0048229
v 0.0145237 0.0043637 0.0048229
v 0.0117297 0.0160655 0.0048229
v 0.0109101 0.0155098 0.0048229
v 0.0127039 0.0162600 0.0048229
v 0.0103545 0.0146902 0.0048229
v 0.0101600 0.0137161 0.0048229
v 0.0237650 0.0162600 0.0048229
v 0.0241261 0.0137161 0.0048229
v 0.0242928 0.0130771 0.0048229
v 0.0101600 0.0051138 0.0048229
v 0.0127039 0.0051138 0.0048229
v 0.0136902 0.0049193 0.0048229
v 0.0247669 0.0126048 0.0048229
v 0.0254198 0.0124242 0.0048229
v 0.0260588 0.0126048 0.0048229
v 0.0267117 0.0137161 0.0048229
v 0.0265311 0.0130771 0.0048229
v 0.0268784 0.0130771 0.0048229
v 0.0273507 0.0126048 0.0048229
v 0.0279897 0.0124242 0.0048229
v 0.0286443 0.0126048 0.0048229
v 0.0291166 0.0130771 0.0048229
v 0.0317421 0.0130493 0.0048229
v 0.0314504 0.0133271 0.0048229
v 0.0292833 0.0137161 0.0048229
v 0.0313532 0.0137161 0.0048229
v 0.0296445 0.0162600 0.0048229
v 0.0314504 0.0141051 0.0048229
v 0.0317421 0.0143846 0.0048229
v 0.0334942 0.0162600 0.0048229
v 0.0321311 0.0144958 0.0048229
v 0.0325062 0.0143846 0.0048229
v 0.0327996 0.0141051 0.0048229
v 0.0334942 0.0137161 0.0048229
v 0.0328969 0.0137161 0.0048229
v 0.0336887 0.0127298 0.0048229
v 0.0327996 0.0133271 0.0048229
v 0.0342443 0.0118963 0.0048229
v 0.0325062 0.0130493 0.0048229
v 0.0350778 0.0113268 0.0048229
v 0.0360641 0.0111323 0.0048229
v 0.0386080 0.0111323 0.0048229
f 914 915 916
f 916 915 917
f 917 915 918
f 919 920 921
f 922 923 924
f 923 925 924
f 925 921 924
f 921 920 924
f 920 926 924
f 924 926 927
f 926 928 927
f 928 929 927
f 929 930 927
f 927 930 931
f 930 932 931
f 931 932 933
f 932 934 933
f 933 934 935
f 936 937 938
f 937 939 938
f 939 940 938
f 938 940 941
f 941 940 942
f 942 940 943
f 940 944 943
f 944 945 943
f 945 946 943
f 946 935 943
f 943 935 947
f 935 934 947
f 934 918 947
f 947 918 948
f 948 918 949
f 950 951 952
f 951 949 952
f 952 949 953
f 949 918 953
f 953 918 954
f 954 918 955
f 918 915 955
f 955 915 956
f 915 957 956
f 957 958 956
f 956 958 959
f 958 960 959
f 959 960 961
f 960 962 961
f 962 963 961
f 961 963 964
f 963 965 964
f 965 966 964
f 966 967 964
f 964 967 968
f 967 969 968
f 968 969 970
f 969 971 970
f 970 971 972
f 971 973 972
f 973 915 972
f 915 914 972
f 972 914 974
f 914 919 974
f 974 919 975
f 919 921 975
f 921 976 975
