# Extracted from KIPR Simulator demobot_v6.glb; GPL-3.0
mtllib electronics_008.mtl
s off
usemtl material_0
v 0.0038012 0.0053014 -0.0016002
v 0.0037518 0.0052789 -0.0017844
v 0.0038012 0.0053014 -0.0016002
v 0.0037069 0.0052789 -0.0017664
v 0.0038012 0.0053014 -0.0016002
v 0.0036664 0.0052789 -0.0017350
v 0.0038012 0.0053014 -0.0016002
v 0.0036350 0.0052789 -0.0016946
v 0.0038012 0.0053014 -0.0016002
v 0.0036170 0.0052789 -0.0016496
v 0.0038012 0.0053014 -0.0016002
v 0.0036080 0.0052789 -0.0016002
v 0.0038012 0.0053014 -0.0016002
v 0.0036170 0.0052789 -0.0015508
v 0.0038012 0.0053014 -0.0016002
v 0.0036350 0.0052789 -0.0015059
v 0.0038012 0.0053014 -0.0016002
v 0.0036664 0.0052789 -0.0014654
v 0.0038012 0.0053014 -0.0016002
v 0.0037069 0.0052789 -0.0014334
v 0.0038012 0.0053014 -0.0016002
v 0.0037518 0.0052789 -0.0014155
v 0.0038012 0.0053014 -0.0016002
v 0.0038012 0.0052789 -0.0014065
v 0.0038012 0.0053014 -0.0016002
v 0.0038506 0.0052789 -0.0014155
v 0.0038012 0.0053014 -0.0016002
v 0.0038955 0.0052789 -0.0014334
v 0.0038012 0.0053014 -0.0016002
v 0.0039360 0.0052789 -0.0014654
v 0.0038012 0.0053014 -0.0016002
v 0.0039680 0.0052789 -0.0015059
v 0.0038012 0.0053014 -0.0016002
v 0.0039860 0.0052789 -0.0015508
v 0.0038012 0.0053014 -0.0016002
v 0.0039949 0.0052789 -0.0016002
v 0.0038012 0.0053014 -0.0016002
v 0.0039860 0.0052789 -0.0016496
v 0.0038012 0.0053014 -0.0016002
v 0.0039680 0.0052789 -0.0016946
v 0.0038012 0.0053014 -0.0016002
v 0.0039360 0.0052789 -0.0017350
v 0.0038012 0.0053014 -0.0016002
v 0.0038955 0.0052789 -0.0017664
v 0.0038012 0.0053014 -0.0016002
v 0.0038506 0.0052789 -0.0017844
v 0.0038012 0.0053014 -0.0016002
v 0.0038012 0.0052789 -0.0017934
v 0.0038012 0.0052110 -0.0019731
v 0.0038955 0.0052110 -0.0019596
v 0.0039904 0.0052110 -0.0019237
v 0.0040668 0.0052110 -0.0018653
v 0.0041252 0.0052110 -0.0017889
v 0.0041612 0.0052110 -0.0016946
v 0.0041746 0.0052110 -0.0016002
v 0.0041612 0.0052110 -0.0015059
v 0.0041252 0.0052110 -0.0014110
v 0.0040668 0.0052110 -0.0013346
v 0.0039904 0.0052110 -0.0012762
v 0.0038955 0.0052110 -0.0012403
v 0.0038012 0.0052110 -0.0012268
v 0.0037069 0.0052110 -0.0012403
v 0.0036125 0.0052110 -0.0012762
v 0.0035361 0.0052110 -0.0013346
v 0.0034777 0.0052110 -0.0014110
v 0.0034418 0.0052110 -0.0015059
v 0.0034283 0.0052110 -0.0016002
v 0.0034418 0.0052110 -0.0016946
v 0.0034777 0.0052110 -0.0017889
v 0.0035361 0.0052110 -0.0018653
v 0.0036125 0.0052110 -0.0019237
v 0.0037069 0.0052110 -0.0019596
v 0.0036619 0.0051032 -0.0021169
v 0.0038012 0.0051032 -0.0021348
v 0.0039405 0.0051032 -0.0021169
v 0.0040668 0.0051032 -0.0020629
v 0.0041791 0.0051032 -0.0019776
v 0.0042645 0.0051032 -0.0018653
v 0.0043184 0.0051032 -0.0017395
v 0.0043364 0.0051032 -0.0016002
v 0.0043184 0.0051032 -0.0014610
v 0.0042645 0.0051032 -0.0013346
v 0.0041791 0.0051032 -0.0012223
v 0.0040668 0.0051032 -0.0011369
v 0.0039405 0.0051032 -0.0010830
v 0.0038012 0.0051032 -0.0010651
v 0.0036619 0.0051032 -0.0010830
v 0.0035361 0.0051032 -0.0011369
v 0.0034238 0.0051032 -0.0012223
v 0.0033385 0.0051032 -0.0013346
v 0.0032846 0.0051032 -0.0014610
v 0.0032666 0.0051032 -0.0016002
v 0.0032846 0.0051032 -0.0017395
v 0.0033385 0.0051032 -0.0018653
v 0.0034238 0.0051032 -0.0019776
v 0.0035361 0.0051032 -0.0020629
v 0.0034688 0.0049594 -0.0021753
v 0.0036305 0.0049594 -0.0022381
v 0.0038012 0.0049594 -0.0022606
v 0.0039725 0.0049594 -0.0022381
v 0.0041342 0.0049594 -0.0021753
v 0.0042690 0.0049594 -0.0020674
v 0.0043768 0.0049594 -0.0019327
v 0.0044397 0.0049594 -0.0017709
v 0.0044622 0.0049594 -0.0016002
v 0.0044397 0.0049594 -0.0014289
v 0.0043768 0.0049594 -0.0012672
v 0.0042690 0.0049594 -0.0011324
v 0.0041342 0.0049594 -0.0010246
v 0.0039725 0.0049594 -0.0009617
v 0.0038012 0.0049594 -0.0009393
v 0.0036305 0.0049594 -0.0009617
v 0.0034688 0.0049594 -0.0010246
v 0.0033340 0.0049594 -0.0011324
v 0.0032262 0.0049594 -0.0012672
v 0.0031633 0.0049594 -0.0014289
v 0.0031408 0.0049594 -0.0016002
v 0.0031633 0.0049594 -0.0017709
v 0.0032262 0.0049594 -0.0019327
v 0.0033340 0.0049594 -0.0020674
v 0.0032711 0.0047887 -0.0021303
v 0.0034238 0.0047887 -0.0022516
v 0.0036080 0.0047887 -0.0023280
v 0.0038012 0.0047887 -0.0023550
v 0.0039949 0.0047887 -0.0023280
v 0.0041791 0.0047887 -0.0022516
v 0.0043319 0.0047887 -0.0021303
v 0.0044532 0.0047887 -0.0019776
v 0.0045295 0.0047887 -0.0017934
v 0.0045565 0.0047887 -0.0016002
v 0.0045295 0.0047887 -0.0014065
v 0.0044532 0.0047887 -0.0012223
v 0.0043319 0.0047887 -0.0010695
v 0.0041791 0.0047887 -0.0009483
v 0.0039949 0.0047887 -0.0008719
v 0.0038012 0.0047887 -0.0008449
v 0.0036080 0.0047887 -0.0008719
v 0.0034238 0.0047887 -0.0009483
v 0.0032711 0.0047887 -0.0010695
v 0.0031498 0.0047887 -0.0012223
v 0.0030734 0.0047887 -0.0014065
v 0.0030465 0.0047887 -0.0016002
v 0.0030734 0.0047887 -0.0017934
v 0.0031498 0.0047887 -0.0019776
v 0.0031094 0.0046000 -0.0020000
v 0.0032352 0.0046000 -0.0021663
v 0.0034014 0.0046000 -0.0022921
v 0.0035945 0.0046000 -0.0023729
v 0.0038012 0.0046000 -0.0023999
v 0.0040084 0.0046000 -0.0023729
v 0.0042016 0.0046000 -0.0022921
v 0.0043678 0.0046000 -0.0021663
v 0.0044936 0.0046000 -0.0020000
v 0.0045745 0.0046000 -0.0018069
v 0.0046014 0.0046000 -0.0016002
v 0.0045745 0.0046000 -0.0013930
v 0.0044936 0.0046000 -0.0011998
v 0.0043678 0.0046000 -0.0010336
v 0.0042016 0.0046000 -0.0009078
v 0.0040084 0.0046000 -0.0008270
v 0.0038012 0.0046000 -0.0008000
v 0.0035945 0.0046000 -0.0008270
v 0.0034014 0.0046000 -0.0009078
v 0.0032352 0.0046000 -0.0010336
v 0.0031094 0.0046000 -0.0011998
v 0.0030285 0.0046000 -0.0013930
v 0.0030015 0.0046000 -0.0016002
v 0.0030285 0.0046000 -0.0018069
v -0.0037984 0.0053014 -0.0016002
v -0.0038478 0.0052789 -0.0017844
v -0.0037984 0.0053014 -0.0016002
v -0.0038927 0.0052789 -0.0017664
v -0.0037984 0.0053014 -0.0016002
v -0.0039331 0.0052789 -0.0017350
v -0.0037984 0.0053014 -0.0016002
v -0.0039651 0.0052789 -0.0016946
v -0.0037984 0.0053014 -0.0016002
v -0.0039831 0.0052789 -0.0016496
v -0.0037984 0.0053014 -0.0016002
v -0.0039921 0.0052789 -0.0016002
v -0.0037984 0.0053014 -0.0016002
v -0.0039831 0.0052789 -0.0015508
v -0.0037984 0.0053014 -0.0016002
v -0.0039651 0.0052789 -0.0015059
v -0.0037984 0.0053014 -0.0016002
v -0.0039331 0.0052789 -0.0014654
v -0.0037984 0.0053014 -0.0016002
v -0.0038927 0.0052789 -0.0014334
v -0.0037984 0.0053014 -0.0016002
v -0.0038478 0.0052789 -0.0014155
v -0.0037984 0.0053014 -0.0016002
v -0.0037984 0.0052789 -0.0014065
v -0.0037984 0.0053014 -0.0016002
v -0.0037489 0.0052789 -0.0014155
v -0.0037984 0.0053014 -0.0016002
v -0.0037040 0.0052789 -0.0014334
v -0.0037984 0.0053014 -0.0016002
v -0.0036636 0.0052789 -0.0014654
v -0.0037984 0.0053014 -0.0016002
v -0.0036321 0.0052789 -0.0015059
v -0.0037984 0.0053014 -0.0016002
v -0.0036142 0.0052789 -0.0015508
v -0.0037984 0.0053014 -0.0016002
v -0.0036052 0.0052789 -0.0016002
v -0.0037984 0.0053014 -0.0016002
v -0.0036142 0.0052789 -0.0016496
v -0.0037984 0.0053014 -0.0016002
v -0.0036321 0.0052789 -0.0016946
v -0.0037984 0.0053014 -0.0016002
v -0.0036636 0.0052789 -0.0017350
v -0.0037984 0.0053014 -0.0016002
v -0.0037040 0.0052789 -0.0017664
v -0.0037984 0.0053014 -0.0016002
v -0.0037489 0.0052789 -0.0017844
v -0.0037984 0.0053014 -0.0016002
v -0.0037984 0.0052789 -0.0017934
v -0.0037984 0.0052110 -0.0019731
v -0.0037040 0.0052110 -0.0019596
v -0.0036097 0.0052110 -0.0019237
v -0.0035333 0.0052110 -0.0018653
v -0.0034749 0.0052110 -0.0017889
v -0.0034390 0.0052110 -0.0016946
v -0.0034255 0.0052110 -0.0016002
v -0.0034390 0.0052110 -0.0015059
v -0.0034749 0.0052110 -0.0014110
v -0.0035333 0.0052110 -0.0013346
v -0.0036097 0.0052110 -0.0012762
v -0.0037040 0.0052110 -0.0012403
v -0.0037984 0.0052110 -0.0012268
v -0.0038927 0.0052110 -0.0012403
v -0.0039876 0.0052110 -0.0012762
v -0.0040640 0.0052110 -0.0013346
v -0.0041224 0.0052110 -0.0014110
v -0.0041583 0.0052110 -0.0015059
v -0.0041718 0.0052110 -0.0016002
v -0.0041583 0.0052110 -0.0016946
v -0.0041224 0.0052110 -0.0017889
v -0.0040640 0.0052110 -0.0018653
v -0.0039876 0.0052110 -0.0019237
v -0.0038927 0.0052110 -0.0019596
v -0.0039376 0.0051032 -0.0021169
v -0.0037984 0.0051032 -0.0021348
v -0.0036591 0.0051032 -0.0021169
v -0.0035333 0.0051032 -0.0020629
v -0.0034210 0.0051032 -0.0019776
v -0.0033356 0.0051032 -0.0018653
v -0.0032817 0.0051032 -0.0017395
v -0.0032638 0.0051032 -0.0016002
v -0.0032817 0.0051032 -0.0014610
v -0.0033356 0.0051032 -0.0013346
v -0.0034210 0.0051032 -0.0012223
v -0.0035333 0.0051032 -0.0011369
v -0.0036591 0.0051032 -0.0010830
v -0.0037984 0.0051032 -0.0010651
v -0.0039376 0.0051032 -0.0010830
v -0.0040640 0.0051032 -0.0011369
v -0.0041763 0.0051032 -0.0012223
v -0.0042616 0.0051032 -0.0013346
v -0.0043156 0.0051032 -0.0014610
v -0.0043335 0.0051032 -0.0016002
v -0.0043156 0.0051032 -0.0017395
v -0.0042616 0.0051032 -0.0018653
v -0.0041763 0.0051032 -0.0019776
v -0.0040640 0.0051032 -0.0020629
v -0.0041314 0.0049594 -0.0021753
v -0.0039696 0.0049594 -0.0022381
v -0.0037984 0.0049594 -0.0022606
v -0.0036276 0.0049594 -0.0022381
v -0.0034659 0.0049594 -0.0021753
v -0.0033311 0.0049594 -0.0020674
v -0.0032233 0.0049594 -0.0019327
v -0.0031604 0.0049594 -0.0017709
v -0.0031380 0.0049594 -0.0016002
v -0.0031604 0.0049594 -0.0014289
v -0.0032233 0.0049594 -0.0012672
v -0.0033311 0.0049594 -0.0011324
v -0.0034659 0.0049594 -0.0010246
v -0.0036276 0.0049594 -0.0009617
v -0.0037984 0.0049594 -0.0009393
v -0.0039696 0.0049594 -0.0009617
v -0.0041314 0.0049594 -0.0010246
v -0.0042661 0.0049594 -0.0011324
v -0.0043740 0.0049594 -0.0012672
v -0.0044368 0.0049594 -0.0014289
v -0.0044593 0.0049594 -0.0016002
v -0.0044368 0.0049594 -0.0017709
v -0.0043740 0.0049594 -0.0019327
v -0.0042661 0.0049594 -0.0020674
v -0.0043290 0.0047887 -0.0021303
v -0.0041763 0.0047887 -0.0022516
v -0.0039921 0.0047887 -0.0023280
v -0.0037984 0.0047887 -0.0023550
v -0.0036052 0.0047887 -0.0023280
v -0.0034210 0.0047887 -0.0022516
v -0.0032682 0.0047887 -0.0021303
v -0.0031470 0.0047887 -0.0019776
v -0.0030706 0.0047887 -0.0017934
v -0.0030436 0.0047887 -0.0016002
v -0.0030706 0.0047887 -0.0014065
v -0.0031470 0.0047887 -0.0012223
v -0.0032682 0.0047887 -0.0010695
v -0.0034210 0.0047887 -0.0009483
v -0.0036052 0.0047887 -0.0008719
v -0.0037984 0.0047887 -0.0008449
v -0.0039921 0.0047887 -0.0008719
v -0.0041763 0.0047887 -0.0009483
v -0.0043290 0.0047887 -0.0010695
v -0.0044503 0.0047887 -0.0012223
v -0.0045267 0.0047887 -0.0014065
v -0.0045537 0.0047887 -0.0016002
v -0.0045267 0.0047887 -0.0017934
v -0.0044503 0.0047887 -0.0019776
v -0.0044908 0.0046000 -0.0020000
v -0.0043650 0.0046000 -0.0021663
v -0.0041987 0.0046000 -0.0022921
v -0.0040056 0.0046000 -0.0023729
v -0.0037984 0.0046000 -0.0023999
v -0.0035917 0.0046000 -0.0023729
v -0.0033985 0.0046000 -0.0022921
v -0.0032323 0.0046000 -0.0021663
v -0.0031065 0.0046000 -0.0020000
v -0.0030257 0.0046000 -0.0018069
v -0.0029987 0.0046000 -0.0016002
v -0.0030257 0.0046000 -0.0013930
v -0.0031065 0.0046000 -0.0011998
v -0.0032323 0.0046000 -0.0010336
v -0.0033985 0.0046000 -0.0009078
v -0.0035917 0.0046000 -0.0008270
v -0.0037984 0.0046000 -0.0008000
v -0.0040056 0.0046000 -0.0008270
v -0.0041987 0.0046000 -0.0009078
v -0.0043650 0.0046000 -0.0010336
v -0.0044908 0.0046000 -0.0011998
v -0.0045716 0.0046000 -0.0013930
v -0.0045986 0.0046000 -0.0016002
v -0.0045716 0.0046000 -0.0018069
v 0.0038012 0.0053014 -0.0091998
v 0.0037518 0.0052789 -0.0093845
v 0.0038012 0.0053014 -0.0091998
v 0.0037069 0.0052789 -0.0093666
v 0.0038012 0.0053014 -0.0091998
v 0.0036664 0.0052789 -0.0093346
v 0.0038012 0.0053014 -0.0091998
v 0.0036350 0.0052789 -0.0092941
v 0.0038012 0.0053014 -0.0091998
v 0.0036170 0.0052789 -0.0092492
v 0.0038012 0.0053014 -0.0091998
v 0.0036080 0.0052789 -0.0091998
v 0.0038012 0.0053014 -0.0091998
v 0.0036170 0.0052789 -0.0091504
v 0.0038012 0.0053014 -0.0091998
v 0.0036350 0.0052789 -0.0091054
v 0.0038012 0.0053014 -0.0091998
v 0.0036664 0.0052789 -0.0090650
v 0.0038012 0.0053014 -0.0091998
v 0.0037069 0.0052789 -0.0090336
v 0.0038012 0.0053014 -0.0091998
v 0.0037518 0.0052789 -0.0090156
v 0.0038012 0.0053014 -0.0091998
v 0.0038012 0.0052789 -0.0090066
v 0.0038012 0.0053014 -0.0091998
v 0.0038506 0.0052789 -0.0090156
v 0.0038012 0.0053014 -0.0091998
v 0.0038955 0.0052789 -0.0090336
v 0.0038012 0.0053014 -0.0091998
v 0.0039360 0.0052789 -0.0090650
v 0.0038012 0.0053014 -0.0091998
v 0.0039680 0.0052789 -0.0091054
v 0.0038012 0.0053014 -0.0091998
v 0.0039860 0.0052789 -0.0091504
v 0.0038012 0.0053014 -0.0091998
v 0.0039949 0.0052789 -0.0091998
v 0.0038012 0.0053014 -0.0091998
v 0.0039860 0.0052789 -0.0092492
v 0.0038012 0.0053014 -0.0091998
v 0.0039680 0.0052789 -0.0092941
v 0.0038012 0.0053014 -0.0091998
v 0.0039360 0.0052789 -0.0093346
v 0.0038012 0.0053014 -0.0091998
v 0.0038955 0.0052789 -0.0093666
v 0.0038012 0.0053014 -0.0091998
v 0.0038506 0.0052789 -0.0093845
v 0.0038012 0.0053014 -0.0091998
v 0.0038012 0.0052789 -0.0093935
v 0.0038012 0.0052110 -0.0095732
v 0.0038955 0.0052110 -0.0095597
v 0.0039904 0.0052110 -0.0095238
v 0.0040668 0.0052110 -0.0094654
v 0.0041252 0.0052110 -0.0093890
v 0.0041612 0.0052110 -0.0092941
v 0.0041746 0.0052110 -0.0091998
v 0.0041612 0.0052110 -0.0091054
v 0.0041252 0.0052110 -0.0090111
v 0.0040668 0.0052110 -0.0089347
v 0.0039904 0.0052110 -0.0088763
v 0.0038955 0.0052110 -0.0088404
v 0.0038012 0.0052110 -0.0088269
v 0.0037069 0.0052110 -0.0088404
v 0.0036125 0.0052110 -0.0088763
v 0.0035361 0.0052110 -0.0089347
v 0.0034777 0.0052110 -0.0090111
v 0.0034418 0.0052110 -0.0091054
v 0.0034283 0.0052110 -0.0091998
v 0.0034418 0.0052110 -0.0092941
v 0.0034777 0.0052110 -0.0093890
v 0.0035361 0.0052110 -0.0094654
v 0.0036125 0.0052110 -0.0095238
v 0.0037069 0.0052110 -0.0095597
v 0.0036619 0.0051032 -0.0097170
v 0.0038012 0.0051032 -0.0097349
v 0.0039405 0.0051032 -0.0097170
v 0.0040668 0.0051032 -0.0096631
v 0.0041791 0.0051032 -0.0095777
v 0.0042645 0.0051032 -0.0094654
v 0.0043184 0.0051032 -0.0093390
v 0.0043364 0.0051032 -0.0091998
v 0.0043184 0.0051032 -0.0090605
v 0.0042645 0.0051032 -0.0089347
v 0.0041791 0.0051032 -0.0088224
v 0.0040668 0.0051032 -0.0087371
v 0.0039405 0.0051032 -0.0086831
v 0.0038012 0.0051032 -0.0086652
v 0.0036619 0.0051032 -0.0086831
v 0.0035361 0.0051032 -0.0087371
v 0.0034238 0.0051032 -0.0088224
v 0.0033385 0.0051032 -0.0089347
v 0.0032846 0.0051032 -0.0090605
v 0.0032666 0.0051032 -0.0091998
v 0.0032846 0.0051032 -0.0093390
v 0.0033385 0.0051032 -0.0094654
v 0.0034238 0.0051032 -0.0095777
v 0.0035361 0.0051032 -0.0096631
v 0.0034688 0.0049594 -0.0097754
v 0.0036305 0.0049594 -0.0098383
v 0.0038012 0.0049594 -0.0098607
v 0.0039725 0.0049594 -0.0098383
v 0.0041342 0.0049594 -0.0097754
v 0.0042690 0.0049594 -0.0096676
v 0.0043768 0.0049594 -0.0095328
v 0.0044397 0.0049594 -0.0093711
v 0.0044622 0.0049594 -0.0091998
v 0.0044397 0.0049594 -0.0090291
v 0.0043768 0.0049594 -0.0088673
v 0.0042690 0.0049594 -0.0087326
v 0.0041342 0.0049594 -0.0086247
v 0.0039725 0.0049594 -0.0085618
v 0.0038012 0.0049594 -0.0085394
v 0.0036305 0.0049594 -0.0085618
v 0.0034688 0.0049594 -0.0086247
v 0.0033340 0.0049594 -0.0087326
v 0.0032262 0.0049594 -0.0088673
v 0.0031633 0.0049594 -0.0090291
v 0.0031408 0.0049594 -0.0091998
v 0.0031633 0.0049594 -0.0093711
v 0.0032262 0.0049594 -0.0095328
v 0.0033340 0.0049594 -0.0096676
v 0.0032711 0.0047887 -0.0097305
v 0.0034238 0.0047887 -0.0098517
v 0.0036080 0.0047887 -0.0099281
v 0.0038012 0.0047887 -0.0099551
v 0.0039949 0.0047887 -0.0099281
v 0.0041791 0.0047887 -0.0098517
v 0.0043319 0.0047887 -0.0097305
v 0.0044532 0.0047887 -0.0095777
v 0.0045295 0.0047887 -0.0093935
v 0.0045565 0.0047887 -0.0091998
v 0.0045295 0.0047887 -0.0090066
v 0.0044532 0.0047887 -0.0088224
v 0.0043319 0.0047887 -0.0086697
v 0.0041791 0.0047887 -0.0085484
v 0.0039949 0.0047887 -0.0084720
v 0.0038012 0.0047887 -0.0084450
v 0.0036080 0.0047887 -0.0084720
v 0.0034238 0.0047887 -0.0085484
v 0.0032711 0.0047887 -0.0086697
v 0.0031498 0.0047887 -0.0088224
v 0.0030734 0.0047887 -0.0090066
v 0.0030465 0.0047887 -0.0091998
v 0.0030734 0.0047887 -0.0093935
v 0.0031498 0.0047887 -0.0095777
v 0.0031094 0.0046000 -0.0096002
v 0.0032352 0.0046000 -0.0097664
v 0.0034014 0.0046000 -0.0098922
v 0.0035945 0.0046000 -0.0099730
v 0.0038012 0.0046000 -0.0100000
v 0.0040084 0.0046000 -0.0099730
v 0.0042016 0.0046000 -0.0098922
v 0.0043678 0.0046000 -0.0097664
v 0.0044936 0.0046000 -0.0096002
v 0.0045745 0.0046000 -0.0094070
v 0.0046014 0.0046000 -0.0091998
v 0.0045745 0.0046000 -0.0089931
v 0.0044936 0.0046000 -0.0088000
v 0.0043678 0.0046000 -0.0086337
v 0.0042016 0.0046000 -0.0085079
v 0.0040084 0.0046000 -0.0084271
v 0.0038012 0.0046000 -0.0084001
v 0.0035945 0.0046000 -0.0084271
v 0.0034014 0.0046000 -0.0085079
v 0.0032352 0.0046000 -0.0086337
v 0.0031094 0.0046000 -0.0088000
v 0.0030285 0.0046000 -0.0089931
v 0.0030015 0.0046000 -0.0091998
v 0.0030285 0.0046000 -0.0094070
v -0.0037984 0.0053014 -0.0091998
v -0.0038478 0.0052789 -0.0093845
v -0.0037984 0.0053014 -0.0091998
v -0.0038927 0.0052789 -0.0093666
v -0.0037984 0.0053014 -0.0091998
v -0.0039331 0.0052789 -0.0093346
v -0.0037984 0.0053014 -0.0091998
v -0.0039651 0.0052789 -0.0092941
v -0.0037984 0.0053014 -0.0091998
v -0.0039831 0.0052789 -0.0092492
v -0.0037984 0.0053014 -0.0091998
v -0.0039921 0.0052789 -0.0091998
v -0.0037984 0.0053014 -0.0091998
v -0.0039831 0.0052789 -0.0091504
v -0.0037984 0.0053014 -0.0091998
v -0.0039651 0.0052789 -0.0091054
v -0.0037984 0.0053014 -0.0091998
v -0.0039331 0.0052789 -0.0090650
v -0.0037984 0.0053014 -0.0091998
v -0.0038927 0.0052789 -0.0090336
v -0.0037984 0.0053014 -0.0091998
v -0.0038478 0.0052789 -0.0090156
v -0.0037984 0.0053014 -0.0091998
v -0.0037984 0.0052789 -0.0090066
v -0.0037984 0.0053014 -0.0091998
v -0.0037489 0.0052789 -0.0090156
v -0.0037984 0.0053014 -0.0091998
v -0.0037040 0.0052789 -0.0090336
v -0.0037984 0.0053014 -0.0091998
v -0.0036636 0.0052789 -0.0090650
v -0.0037984 0.0053014 -0.0091998
v -0.0036321 0.0052789 -0.0091054
v -0.0037984 0.0053014 -0.0091998
v -0.0036142 0.0052789 -0.0091504
v -0.0037984 0.0053014 -0.0091998
v -0.0036052 0.0052789 -0.0091998
v -0.0037984 0.0053014 -0.0091998
v -0.0036142 0.0052789 -0.0092492
v -0.0037984 0.0053014 -0.0091998
v -0.0036321 0.0052789 -0.0092941
v -0.0037984 0.0053014 -0.0091998
v -0.0036636 0.0052789 -0.0093346
v -0.0037984 0.0053014 -0.0091998
v -0.0037040 0.0052789 -0.0093666
v -0.0037984 0.0053014 -0.0091998
v -0.0037489 0.0052789 -0.0093845
v -0.0037984 0.0053014 -0.0091998
v -0.0037984 0.0052789 -0.0093935
v -0.0037984 0.0052110 -0.0095732
v -0.0037040 0.0052110 -0.0095597
v -0.0036097 0.0052110 -0.0095238
v -0.0035333 0.0052110 -0.0094654
v -0.0034749 0.0052110 -0.0093890
v -0.0034390 0.0052110 -0.0092941
v -0.0034255 0.0052110 -0.0091998
v -0.0034390 0.0052110 -0.0091054
v -0.0034749 0.0052110 -0.0090111
v -0.0035333 0.0052110 -0.0089347
v -0.0036097 0.0052110 -0.0088763
v -0.0037040 0.0052110 -0.0088404
v -0.0037984 0.0052110 -0.0088269
v -0.0038927 0.0052110 -0.0088404
v -0.0039876 0.0052110 -0.0088763
v -0.0040640 0.0052110 -0.0089347
v -0.0041224 0.0052110 -0.0090111
v -0.0041583 0.0052110 -0.0091054
v -0.0041718 0.0052110 -0.0091998
v -0.0041583 0.0052110 -0.0092941
v -0.0041224 0.0052110 -0.0093890
v -0.0040640 0.0052110 -0.0094654
v -0.0039876 0.0052110 -0.0095238
v -0.0038927 0.0052110 -0.0095597
v -0.0039376 0.0051032 -0.0097170
v -0.0037984 0.0051032 -0.0097349
v -0.0036591 0.0051032 -0.0097170
v -0.0035333 0.0051032 -0.0096631
v -0.0034210 0.0051032 -0.0095777
v -0.0033356 0.0051032 -0.0094654
v -0.0032817 0.0051032 -0.0093390
v -0.0032638 0.0051032 -0.0091998
v -0.0032817 0.0051032 -0.0090605
v -0.0033356 0.0051032 -0.0089347
v -0.0034210 0.0051032 -0.0088224
v -0.0035333 0.0051032 -0.0087371
v -0.0036591 0.0051032 -0.0086831
v -0.0037984 0.0051032 -0.0086652
v -0.0039376 0.0051032 -0.0086831
v -0.0040640 0.0051032 -0.0087371
v -0.0041763 0.0051032 -0.0088224
v -0.0042616 0.0051032 -0.0089347
v -0.0043156 0.0051032 -0.0090605
v -0.0043335 0.0051032 -0.0091998
v -0.0043156 0.0051032 -0.0093390
v -0.0042616 0.0051032 -0.0094654
v -0.0041763 0.0051032 -0.0095777
v -0.0040640 0.0051032 -0.0096631
v -0.0041314 0.0049594 -0.0097754
v -0.0039696 0.0049594 -0.0098383
v -0.0037984 0.0049594 -0.0098607
v -0.0036276 0.0049594 -0.0098383
v -0.0034659 0.0049594 -0.0097754
v -0.0033311 0.0049594 -0.0096676
v -0.0032233 0.0049594 -0.0095328
v -0.0031604 0.0049594 -0.0093711
v -0.0031380 0.0049594 -0.0091998
v -0.0031604 0.0049594 -0.0090291
v -0.0032233 0.0049594 -0.0088673
v -0.0033311 0.0049594 -0.0087326
v -0.0034659 0.0049594 -0.0086247
v -0.0036276 0.0049594 -0.0085618
v -0.0037984 0.0049594 -0.0085394
v -0.0039696 0.0049594 -0.0085618
v -0.0041314 0.0049594 -0.0086247
v -0.0042661 0.0049594 -0.0087326
v -0.0043740 0.0049594 -0.0088673
v -0.0044368 0.0049594 -0.0090291
v -0.0044593 0.0049594 -0.0091998
v -0.0044368 0.0049594 -0.0093711
v -0.0043740 0.0049594 -0.0095328
v -0.0042661 0.0049594 -0.0096676
v -0.0043290 0.0047887 -0.0097305
v -0.0041763 0.0047887 -0.0098517
v -0.0039921 0.0047887 -0.0099281
v -0.0037984 0.0047887 -0.0099551
v -0.0036052 0.0047887 -0.0099281
v -0.0034210 0.0047887 -0.0098517
v -0.0032682 0.0047887 -0.0097305
v -0.0031470 0.0047887 -0.0095777
v -0.0030706 0.0047887 -0.0093935
v -0.0030436 0.0047887 -0.0091998
v -0.0030706 0.0047887 -0.0090066
v -0.0031470 0.0047887 -0.0088224
v -0.0032682 0.0047887 -0.0086697
v -0.0034210 0.0047887 -0.0085484
v -0.0036052 0.0047887 -0.0084720
v -0.0037984 0.0047887 -0.0084450
v -0.0039921 0.0047887 -0.0084720
v -0.0041763 0.0047887 -0.0085484
v -0.0043290 0.0047887 -0.0086697
v -0.0044503 0.0047887 -0.0088224
v -0.0045267 0.0047887 -0.0090066
v -0.0045537 0.0047887 -0.0091998
v -0.0045267 0.0047887 -0.0093935
v -0.0044503 0.0047887 -0.0095777
v -0.0044908 0.0046000 -0.0096002
v -0.0043650 0.0046000 -0.0097664
v -0.0041987 0.0046000 -0.0098922
v -0.0040056 0.0046000 -0.0099730
v -0.0037984 0.0046000 -0.0100000
v -0.0035917 0.0046000 -0.0099730
v -0.0033985 0.0046000 -0.0098922
v -0.0032323 0.0046000 -0.0097664
v -0.0031065 0.0046000 -0.0096002
v -0.0030257 0.0046000 -0.0094070
v -0.0029987 0.0046000 -0.0091998
v -0.0030257 0.0046000 -0.0089931
v -0.0031065 0.0046000 -0.0088000
v -0.0032323 0.0046000 -0.0086337
v -0.0033985 0.0046000 -0.0085079
v -0.0035917 0.0046000 -0.0084271
v -0.0037984 0.0046000 -0.0084001
v -0.0040056 0.0046000 -0.0084271
v -0.0041987 0.0046000 -0.0085079
v -0.0043650 0.0046000 -0.0086337
v -0.0044908 0.0046000 -0.0088000
v -0.0045716 0.0046000 -0.0089931
v -0.0045986 0.0046000 -0.0091998
v -0.0045716 0.0046000 -0.0094070
f 1 48 2
f 3 2 4
f 5 4 6
f 7 6 8
f 9 8 10
f 11 10 12
f 13 12 14
f 15 14 16
f 17 16 18
f 19 18 20
f 21 20 22
f 23 22 24
f 25 24 26
f 27 26 28
f 29 28 30
f 31 30 32
f 33 32 34
f 35 34 36
f 37 36 38
f 39 38 40
f 41 40 42
f 43 42 44
f 45 44 46
f 47 46 48
f 48 46 49
f 49 46 50
f 46 44 50
f 50 44 51
f 44 42 51
f 51 42 52
f 42 40 52
f 52 40 53
f 40 38 53
f 53 38 54
f 38 36 54
f 54 36 55
f 36 34 55
f 55 34 56
f 34 32 56
f 56 32 57
f 32 30 57
f 57 30 58
f 30 28 58
f 58 28 59
f 28 26 59
f 59 26 60
f 26 24 60
f 60 24 61
f 24 22 61
f 61 22 62
f 22 20 62
f 62 20 63
f 20 18 63
f 63 18 64
f 18 16 64
f 64 16 65
f 16 14 65
f 65 14 66
f 14 12 66
f 66 12 67
f 12 10 67
f 67 10 68
f 10 8 68
f 68 8 69
f 8 6 69
f 69 6 70
f 6 4 70
f 70 4 71
f 4 2 71
f 71 2 72
f 2 48 72
f 48 49 72
f 72 49 73
f 73 49 74
f 49 50 74
f 74 50 75
f 50 51 75
f 75 51 76
f 51 52 76
f 76 52 77
f 52 53 77
f 77 53 78
f 53 54 78
f 78 54 79
f 54 55 79
f 79 55 80
f 55 56 80
f 80 56 81
f 56 57 81
f 81 57 82
f 57 58 82
f 82 58 83
f 58 59 83
f 83 59 84
f 59 60 84
f 84 60 85
f 60 61 85
f 85 61 86
f 61 62 86
f 86 62 87
f 62 63 87
f 87 63 88
f 63 64 88
f 88 64 89
f 64 65 89
f 89 65 90
f 65 66 90
f 90 66 91
f 66 67 91
f 91 67 92
f 67 68 92
f 92 68 93
f 68 69 93
f 93 69 94
f 69 70 94
f 94 70 95
f 70 71 95
f 95 71 96
f 71 72 96
f 72 73 96
f 96 73 97
f 97 73 98
f 73 74 98
f 98 74 99
f 74 75 99
f 99 75 100
f 75 76 100
f 100 76 101
f 76 77 101
f 101 77 102
f 77 78 102
f 102 78 103
f 78 79 103
f 103 79 104
f 79 80 104
f 104 80 105
f 80 81 105
f 105 81 106
f 81 82 106
f 106 82 107
f 82 83 107
f 107 83 108
f 83 84 108
f 108 84 109
f 84 85 109
f 109 85 110
f 85 86 110
f 110 86 111
f 86 87 111
f 111 87 112
f 87 88 112
f 112 88 113
f 88 89 113
f 113 89 114
f 89 90 114
f 114 90 115
f 90 91 115
f 115 91 116
f 91 92 116
f 116 92 117
f 92 93 117
f 117 93 118
f 93 94 118
f 118 94 119
f 94 95 119
f 119 95 120
f 95 96 120
f 96 97 120
f 120 97 121
f 121 97 122
f 97 98 122
f 122 98 123
f 98 99 123
f 123 99 124
f 99 100 124
f 124 100 125
f 100 101 125
f 125 101 126
f 101 102 126
f 126 102 127
f 102 103 127
f 127 103 128
f 103 104 128
f 128 104 129
f 104 105 129
f 129 105 130
f 105 106 130
f 130 106 131
f 106 107 131
f 131 107 132
f 107 108 132
f 132 108 133
f 108 109 133
f 133 109 134
f 109 110 134
f 134 110 135
f 110 111 135
f 135 111 136
f 111 112 136
f 136 112 137
f 112 113 137
f 137 113 138
f 113 114 138
f 138 114 139
f 114 115 139
f 139 115 140
f 115 116 140
f 140 116 141
f 116 117 141
f 141 117 142
f 117 118 142
f 142 118 143
f 118 119 143
f 143 119 144
f 119 120 144
f 120 121 144
f 144 121 145
f 145 121 146
f 121 122 146
f 146 122 147
f 122 123 147
f 147 123 148
f 123 124 148
f 148 124 149
f 124 125 149
f 149 125 150
f 125 126 150
f 150 126 151
f 126 127 151
f 151 127 152
f 127 128 152
f 152 128 153
f 128 129 153
f 153 129 154
f 129 130 154
f 154 130 155
f 130 131 155
f 155 131 156
f 131 132 156
f 156 132 157
f 132 133 157
f 157 133 158
f 133 134 158
f 158 134 159
f 134 135 159
f 159 135 160
f 135 136 160
f 160 136 161
f 136 137 161
f 161 137 162
f 137 138 162
f 162 138 163
f 138 139 163
f 163 139 164
f 139 140 164
f 164 140 165
f 140 141 165
f 165 141 166
f 141 142 166
f 166 142 167
f 142 143 167
f 167 143 168
f 143 144 168
f 144 145 168
f 169 216 170
f 171 170 172
f 173 172 174
f 175 174 176
f 177 176 178
f 179 178 180
f 181 180 182
f 183 182 184
f 185 184 186
f 187 186 188
f 189 188 190
f 191 190 192
f 193 192 194
f 195 194 196
f 197 196 198
f 199 198 200
f 201 200 202
f 203 202 204
f 205 204 206
f 207 206 208
f 209 208 210
f 211 210 212
f 213 212 214
f 215 214 216
f 216 214 217
f 217 214 218
f 214 212 218
f 218 212 219
f 212 210 219
f 219 210 220
f 210 208 220
f 220 208 221
f 208 206 221
f 221 206 222
f 206 204 222
f 222 204 223
f 204 202 223
f 223 202 224
f 202 200 224
f 224 200 225
f 200 198 225
f 225 198 226
f 198 196 226
f 226 196 227
f 196 194 227
f 227 194 228
f 194 192 228
f 228 192 229
f 192 190 229
f 229 190 230
f 190 188 230
f 230 188 231
f 188 186 231
f 231 186 232
f 186 184 232
f 232 184 233
f 184 182 233
f 233 182 234
f 182 180 234
f 234 180 235
f 180 178 235
f 235 178 236
f 178 176 236
f 236 176 237
f 176 174 237
f 237 174 238
f 174 172 238
f 238 172 239
f 172 170 239
f 239 170 240
f 170 216 240
f 216 217 240
f 240 217 241
f 241 217 242
f 217 218 242
f 242 218 243
f 218 219 243
f 243 219 244
f 219 220 244
f 244 220 245
f 220 221 245
f 245 221 246
f 221 222 246
f 246 222 247
f 222 223 247
f 247 223 248
f 223 224 248
f 248 224 249
f 224 225 249
f 249 225 250
f 225 226 250
f 250 226 251
f 226 227 251
f 251 227 252
f 227 228 252
f 252 228 253
f 228 229 253
f 253 229 254
f 229 230 254
f 254 230 255
f 230 231 255
f 255 231 256
f 231 232 256
f 256 232 257
f 232 233 257
f 257 233 258
f 233 234 258
f 258 234 259
f 234 235 259
f 259 235 260
f 235 236 260
f 260 236 261
f 236 237 261
f 261 237 262
f 237 238 262
f 262 238 263
f 238 239 263
f 263 239 264
f 239 240 264
f 240 241 264
f 264 241 265
f 265 241 266
f 241 242 266
f 266 242 267
f 242 243 267
f 267 243 268
f 243 244 268
f 268 244 269
f 244 245 269
f 269 245 270
f 245 246 270
f 270 246 271
f 246 247 271
f 271 247 272
f 247 248 272
f 272 248 273
f 248 249 273
f 273 249 274
f 249 250 274
f 274 250 275
f 250 251 275
f 275 251 276
f 251 252 276
f 276 252 277
f 252 253 277
f 277 253 278
f 253 254 278
f 278 254 279
f 254 255 279
f 279 255 280
f 255 256 280
f 280 256 281
f 256 257 281
f 281 257 282
f 257 258 282
f 282 258 283
f 258 259 283
f 283 259 284
f 259 260 284
f 284 260 285
f 260 261 285
f 285 261 286
f 261 262 286
f 286 262 287
f 262 263 287
f 287 263 288
f 263 264 288
f 264 265 288
f 288 265 289
f 289 265 290
f 265 266 290
f 290 266 291
f 266 267 291
f 291 267 292
f 267 268 292
f 292 268 293
f 268 269 293
f 293 269 294
f 269 270 294
f 294 270 295
f 270 271 295
f 295 271 296
f 271 272 296
f 296 272 297
f 272 273 297
f 297 273 298
f 273 274 298
f 298 274 299
f 274 275 299
f 299 275 300
f 275 276 300
f 300 276 301
f 276 277 301
f 301 277 302
f 277 278 302
f 302 278 303
f 278 279 303
f 303 279 304
f 279 280 304
f 304 280 305
f 280 281 305
f 305 281 306
f 281 282 306
f 306 282 307
f 282 283 307
f 307 283 308
f 283 284 308
f 308 284 309
f 284 285 309
f 309 285 310
f 285 286 310
f 310 286 311
f 286 287 311
f 311 287 312
f 287 288 312
f 288 289 312
f 312 289 313
f 313 289 314
f 289 290 314
f 314 290 315
f 290 291 315
f 315 291 316
f 291 292 316
f 316 292 317
f 292 293 317
f 317 293 318
f 293 294 318
f 318 294 319
f 294 295 319
f 319 295 320
f 295 296 320
f 320 296 321
f 296 297 321
f 321 297 322
f 297 298 322
f 322 298 323
f 298 299 323
f 323 299 324
f 299 300 324
f 324 300 325
f 300 301 325
f 325 301 326
f 301 302 326
f 326 302 327
f 302 303 327
f 327 303 328
f 303 304 328
f 328 304 329
f 304 305 329
f 329 305 330
f 305 306 330
f 330 306 331
f 306 307 331
f 331 307 332
f 307 308 332
f 332 308 333
f 308 309 333
f 333 309 334
f 309 310 334
f 334 310 335
f 310 311 335
f 335 311 336
f 311 312 336
f 312 313 336
f 337 384 338
f 339 338 340
f 341 340 342
f 343 342 344
f 345 344 346
f 347 346 348
f 349 348 350
f 351 350 352
f 353 352 354
f 355 354 356
f 357 356 358
f 359 358 360
f 361 360 362
f 363 362 364
f 365 364 366
f 367 366 368
f 369 368 370
f 371 370 372
f 373 372 374
f 375 374 376
f 377 376 378
f 379 378 380
f 381 380 382
f 383 382 384
f 384 382 385
f 385 382 386
f 382 380 386
f 386 380 387
f 380 378 387
f 387 378 388
f 378 376 388
f 388 376 389
f 376 374 389
f 389 374 390
f 374 372 390
f 390 372 391
f 372 370 391
f 391 370 392
f 370 368 392
f 392 368 393
f 368 366 393
f 393 366 394
f 366 364 394
f 394 364 395
f 364 362 395
f 395 362 396
f 362 360 396
f 396 360 397
f 360 358 397
f 397 358 398
f 358 356 398
f 398 356 399
f 356 354 399
f 399 354 400
f 354 352 400
f 400 352 401
f 352 350 401
f 401 350 402
f 350 348 402
f 402 348 403
f 348 346 403
f 403 346 404
f 346 344 404
f 404 344 405
f 344 342 405
f 405 342 406
f 342 340 406
f 406 340 407
f 340 338 407
f 407 338 408
f 338 384 408
f 384 385 408
f 408 385 409
f 409 385 410
f 385 386 410
f 410 386 411
f 386 387 411
f 411 387 412
f 387 388 412
f 412 388 413
f 388 389 413
f 413 389 414
f 389 390 414
f 414 390 415
f 390 391 415
f 415 391 416
f 391 392 416
f 416 392 417
f 392 393 417
f 417 393 418
f 393 394 418
f 418 394 419
f 394 395 419
f 419 395 420
f 395 396 420
f 420 396 421
f 396 397 421
f 421 397 422
f 397 398 422
f 422 398 423
f 398 399 423
f 423 399 424
f 399 400 424
f 424 400 425
f 400 401 425
f 425 401 426
f 401 402 426
f 426 402 427
f 402 403 427
f 427 403 428
f 403 404 428
f 428 404 429
f 404 405 429
f 429 405 430
f 405 406 430
f 430 406 431
f 406 407 431
f 431 407 432
f 407 408 432
f 408 409 432
f 432 409 433
f 433 409 434
f 409 410 434
f 434 410 435
f 410 411 435
f 435 411 436
f 411 412 436
f 436 412 437
f 412 413 437
f 437 413 438
f 413 414 438
f 438 414 439
f 414 415 439
f 439 415 440
f 415 416 440
f 440 416 441
f 416 417 441
f 441 417 442
f 417 418 442
f 442 418 443
f 418 419 443
f 443 419 444
f 419 420 444
f 444 420 445
f 420 421 445
f 445 421 446
f 421 422 446
f 446 422 447
f 422 423 447
f 447 423 448
f 423 424 448
f 448 424 449
f 424 425 449
f 449 425 450
f 425 426 450
f 450 426 451
f 426 427 451
f 451 427 452
f 427 428 452
f 452 428 453
f 428 429 453
f 453 429 454
f 429 430 454
f 454 430 455
f 430 431 455
f 455 431 456
f 431 432 456
f 432 433 456
f 456 433 457
f 457 433 458
f 433 434 458
f 458 434 459
f 434 435 459
f 459 435 460
f 435 436 460
f 460 436 461
f 436 437 461
f 461 437 462
f 437 438 462
f 462 438 463
f 438 439 463
f 463 439 464
f 439 440 464
f 464 440 465
f 440 441 465
f 465 441 466
f 441 442 466
f 466 442 467
f 442 443 467
f 467 443 468
f 443 444 468
f 468 444 469
f 444 445 469
f 469 445 470
f 445 446 470
f 470 446 471
f 446 447 471
f 471 447 472
f 447 448 472
f 472 448 473
f 448 449 473
f 473 449 474
f 449 450 474
f 474 450 475
f 450 451 475
f 475 451 476
f 451 452 476
f 476 452 477
f 452 453 477
f 477 453 478
f 453 454 478
f 478 454 479
f 454 455 479
f 479 455 480
f 455 456 480
f 456 457 480
f 480 457 481
f 481 457 482
f 457 458 482
f 482 458 483
f 458 459 483
f 483 459 484
f 459 460 484
f 484 460 485
f 460 461 485
f 485 461 486
f 461 462 486
f 486 462 487
f 462 463 487
f 487 463 488
f 463 464 488
f 488 464 489
f 464 465 489
f 489 465 490
f 465 466 490
f 490 466 491
f 466 467 491
f 491 467 492
f 467 468 492
f 492 468 493
f 468 469 493
f 493 469 494
f 469 470 494
f 494 470 495
f 470 471 495
f 495 471 496
f 471 472 496
f 496 472 497
f 472 473 497
f 497 473 498
f 473 474 498
f 498 474 499
f 474 475 499
f 499 475 500
f 475 476 500
f 500 476 501
f 476 477 501
f 501 477 502
f 477 478 502
f 502 478 503
f 478 479 503
f 503 479 504
f 479 480 504
f 480 481 504
f 505 552 506
f 507 506 508
f 509 508 510
f 511 510 512
f 513 512 514
f 515 514 516
f 517 516 518
f 519 518 520
f 521 520 522
f 523 522 524
f 525 524 526
f 527 526 528
f 529 528 530
f 531 530 532
f 533 532 534
f 535 534 536
f 537 536 538
f 539 538 540
f 541 540 542
f 543 542 544
f 545 544 546
f 547 546 548
f 549 548 550
f 551 550 552
f 552 550 553
f 553 550 554
f 550 548 554
f 554 548 555
f 548 546 555
f 555 546 556
f 546 544 556
f 556 544 557
f 544 542 557
f 557 542 558
f 542 540 558
f 558 540 559
f 540 538 559
f 559 538 560
f 538 536 560
f 560 536 561
f 536 534 561
f 561 534 562
f 534 532 562
f 562 532 563
f 532 530 563
f 563 530 564
f 530 528 564
f 564 528 565
f 528 526 565
f 565 526 566
f 526 524 566
f 566 524 567
f 524 522 567
f 567 522 568
f 522 520 568
f 568 520 569
f 520 518 569
f 569 518 570
f 518 516 570
f 570 516 571
f 516 514 571
f 571 514 572
f 514 512 572
f 572 512 573
f 512 510 573
f 573 510 574
f 510 508 574
f 574 508 575
f 508 506 575
f 575 506 576
f 506 552 576
f 552 553 576
f 576 553 577
f 577 553 578
f 553 554 578
f 578 554 579
f 554 555 579
f 579 555 580
f 555 556 580
f 580 556 581
f 556 557 581
f 581 557 582
f 557 558 582
f 582 558 583
f 558 559 583
f 583 559 584
f 559 560 584
f 584 560 585
f 560 561 585
f 585 561 586
f 561 562 586
f 586 562 587
f 562 563 587
f 587 563 588
f 563 564 588
f 588 564 589
f 564 565 589
f 589 565 590
f 565 566 590
f 590 566 591
f 566 567 591
f 591 567 592
f 567 568 592
f 592 568 593
f 568 569 593
f 593 569 594
f 569 570 594
f 594 570 595
f 570 571 595
f 595 571 596
f 571 572 596
f 596 572 597
f 572 573 597
f 597 573 598
f 573 574 598
f 598 574 599
f 574 575 599
f 599 575 600
f 575 576 600
f 576 577 600
f 600 577 601
f 601 577 602
f 577 578 602
f 602 578 603
f 578 579 603
f 603 579 604
f 579 580 604
f 604 580 605
f 580 581 605
f 605 581 606
f 581 582 606
f 606 582 607
f 582 583 607
f 607 583 608
f 583 584 608
f 608 584 609
f 584 585 609
f 609 585 610
f 585 586 610
f 610 586 611
f 586 587 611
f 611 587 612
f 587 588 612
f 612 588 613
f 588 589 613
f 613 589 614
f 589 590 614
f 614 590 615
f 590 591 615
f 615 591 616
f 591 592 616
f 616 592 617
f 592 593 617
f 617 593 618
f 593 594 618
f 618 594 619
f 594 595 619
f 619 595 620
f 595 596 620
f 620 596 621
f 596 597 621
f 621 597 622
f 597 598 622
f 622 598 623
f 598 599 623
f 623 599 624
f 599 600 624
f 600 601 624
f 624 601 625
f 625 601 626
f 601 602 626
f 626 602 627
f 602 603 627
f 627 603 628
f 603 604 628
f 628 604 629
f 604 605 629
f 629 605 630
f 605 606 630
f 630 606 631
f 606 607 631
f 631 607 632
f 607 608 632
f 632 608 633
f 608 609 633
f 633 609 634
f 609 610 634
f 634 610 635
f 610 611 635
f 635 611 636
f 611 612 636
f 636 612 637
f 612 613 637
f 637 613 638
f 613 614 638
f 638 614 639
f 614 615 639
f 639 615 640
f 615 616 640
f 640 616 641
f 616 617 641
f 641 617 642
f 617 618 642
f 642 618 643
f 618 619 643
f 643 619 644
f 619 620 644
f 644 620 645
f 620 621 645
f 645 621 646
f 621 622 646
f 646 622 647
f 622 623 647
f 647 623 648
f 623 624 648
f 624 625 648
f 648 625 649
f 649 625 650
f 625 626 650
f 650 626 651
f 626 627 651
f 651 627 652
f 627 628 652
f 652 628 653
f 628 629 653
f 653 629 654
f 629 630 654
f 654 630 655
f 630 631 655
f 655 631 656
f 631 632 656
f 656 632 657
f 632 633 657
f 657 633 658
f 633 634 658
f 658 634 659
f 634 635 659
f 659 635 660
f 635 636 660
f 660 636 661
f 636 637 661
f 661 637 662
f 637 638 662
f 662 638 663
f 638 639 663
f 663 639 664
f 639 640 664
f 664 640 665
f 640 641 665
f 665 641 666
f 641 642 666
f 666 642 667
f 642 643 667
f 667 643 668
f 643 644 668
f 668 644 669
f 644 645 669
f 669 645 670
f 645 646 670
f 670 646 671
f 646 647 671
f 671 647 672
f 647 648 672
f 648 649 672
usemtl material_1
v 0.0044361 0.0045016 -0.0004965
v 0.0052045 0.0045016 0.0006000
v 0.0046237 0.0045016 -0.0006196
v 0.0047819 0.0045016 -0.0007778
v 0.0060014 0.0045016 -0.0001969
v 0.0049049 0.0045016 -0.0009653
v 0.0049752 0.0045016 -0.0011762
v 0.0049987 0.0045016 -0.0013989
v 0.0049987 0.0045016 -0.0094011
v 0.0060014 0.0045016 -0.0106031
v 0.0049752 0.0045016 -0.0096238
v 0.0049049 0.0045016 -0.0098347
v 0.0047819 0.0045016 -0.0100222
v 0.0046237 0.0045016 -0.0101804
v 0.0052045 0.0045016 -0.0114000
v 0.0044361 0.0045016 -0.0103035
v 0.0042252 0.0045016 -0.0103738
v 0.0040025 0.0045016 -0.0103973
v -0.0039997 0.0045016 -0.0103973
v -0.0052017 0.0045016 -0.0114000
v -0.0042223 0.0045016 -0.0103738
v -0.0044333 0.0045016 -0.0103035
v -0.0046208 0.0045016 -0.0101804
v -0.0047790 0.0045016 -0.0100222
v -0.0059986 0.0045016 -0.0106031
v -0.0049021 0.0045016 -0.0098347
v -0.0049724 0.0045016 -0.0096238
v -0.0049958 0.0045016 -0.0094011
v -0.0049958 0.0045016 -0.0013989
v -0.0059986 0.0045016 -0.0001969
v -0.0049724 0.0045016 -0.0011762
v -0.0049021 0.0045016 -0.0009653
v -0.0047790 0.0045016 -0.0007778
v -0.0046208 0.0045016 -0.0006196
v -0.0052017 0.0045016 0.0006000
v -0.0044333 0.0045016 -0.0004965
v -0.0042223 0.0045016 -0.0004262
v -0.0039997 0.0045016 -0.0004027
v 0.0040025 0.0045016 -0.0004027
v 0.0042252 0.0045016 -0.0004262
v 0.0060014 0.0045016 -0.0001969
v 0.0052045 0.0045016 0.0006000
v 0.0060014 0.0015000 -0.0001969
v 0.0052045 0.0015000 0.0006000
v 0.0052045 0.0045016 0.0006000
v -0.0052017 0.0045016 0.0006000
v 0.0052045 0.0015000 0.0006000
v -0.0052017 0.0015000 0.0006000
v -0.0052017 0.0045016 0.0006000
v -0.0059986 0.0045016 -0.0001969
v -0.0052017 0.0015000 0.0006000
v -0.0059986 0.0015000 -0.0001969
v -0.0059986 0.0045016 -0.0001969
v -0.0059986 0.0045016 -0.0106031
v -0.0059986 0.0015000 -0.0001969
v -0.0059986 0.0015000 -0.0106031
v -0.0059986 0.0045016 -0.0106031
v -0.0052017 0.0045016 -0.0114000
v -0.0059986 0.0015000 -0.0106031
v -0.0052017 0.0015000 -0.0114000
v -0.0052017 0.0045016 -0.0114000
v 0.0052045 0.0045016 -0.0114000
v -0.0052017 0.0015000 -0.0114000
v 0.0052045 0.0015000 -0.0114000
v 0.0052045 0.0045016 -0.0114000
v 0.0060014 0.0045016 -0.0106031
v 0.0052045 0.0015000 -0.0114000
v 0.0060014 0.0015000 -0.0106031
v 0.0060014 0.0045016 -0.0106031
v 0.0060014 0.0045016 -0.0001969
v 0.0060014 0.0015000 -0.0106031
v 0.0060014 0.0015000 -0.0001969
v -0.0009687 0.0046013 -0.0086327
v -0.0016836 0.0046013 -0.0083222
v -0.0008867 0.0134004 -0.0083691
v -0.0015488 0.0134004 -0.0080819
v -0.0023172 0.0046013 -0.0078534
v -0.0021238 0.0134004 -0.0076542
v -0.0028211 0.0046013 -0.0072557
v -0.0025867 0.0134004 -0.0071026
v -0.0031669 0.0046013 -0.0065518
v -0.0029090 0.0134004 -0.0064580
v -0.0033485 0.0046013 -0.0057900
v -0.0030790 0.0134004 -0.0057607
v -0.0030965 0.0134004 -0.0054033
v -0.0033485 0.0046013 -0.0054033
v -0.0030790 0.0134004 -0.0050393
v -0.0033485 0.0046013 -0.0050100
v -0.0031669 0.0046013 -0.0042482
v -0.0029090 0.0134004 -0.0043420
v -0.0028211 0.0046013 -0.0035443
v -0.0025867 0.0134004 -0.0036974
v -0.0023172 0.0046013 -0.0029466
v -0.0021238 0.0134004 -0.0031458
v -0.0016836 0.0046013 -0.0024778
v -0.0015488 0.0134004 -0.0027181
v -0.0009687 0.0046013 -0.0021673
v -0.0008867 0.0134004 -0.0024309
v -0.0001952 0.0046013 -0.0020325
v -0.0001777 0.0134004 -0.0023079
v -0.0000019 0.0046013 -0.0020266
v 0.0005380 0.0134004 -0.0023489
v 0.0005848 0.0046013 -0.0020794
v 0.0013407 0.0046013 -0.0023020
v 0.0012294 0.0134004 -0.0025540
v 0.0020153 0.0046013 -0.0026946
v 0.0018513 0.0134004 -0.0029114
v 0.0025896 0.0046013 -0.0032279
v 0.0023786 0.0134004 -0.0034095
v 0.0030174 0.0046013 -0.0038849
v 0.0027712 0.0134004 -0.0040079
v 0.0032869 0.0046013 -0.0046232
v 0.0030174 0.0134004 -0.0046877
v 0.0033748 0.0046013 -0.0054033
v 0.0030994 0.0134004 -0.0054033
v 0.0032869 0.0046013 -0.0061768
v 0.0030174 0.0134004 -0.0061123
v 0.0030174 0.0046013 -0.0069151
v 0.0027712 0.0134004 -0.0067921
v 0.0025896 0.0046013 -0.0075721
v 0.0023786 0.0134004 -0.0073905
v 0.0020153 0.0046013 -0.0081054
v 0.0018513 0.0134004 -0.0078886
v 0.0013407 0.0046013 -0.0084980
v 0.0012294 0.0134004 -0.0082460
v 0.0005848 0.0046013 -0.0087206
v 0.0005380 0.0134004 -0.0084511
v -0.0000019 0.0046013 -0.0087558
v -0.0001777 0.0134004 -0.0084921
v -0.0001952 0.0046013 -0.0087675
v -0.0001777 0.0134004 -0.0084921
v -0.0000019 0.0134004 -0.0054033
v 0.0005380 0.0134004 -0.0084511
v 0.0012294 0.0134004 -0.0082460
v 0.0018513 0.0134004 -0.0078886
v 0.0023786 0.0134004 -0.0073905
v 0.0027712 0.0134004 -0.0067921
v 0.0030174 0.0134004 -0.0061123
v 0.0030994 0.0134004 -0.0054033
v 0.0030174 0.0134004 -0.0046877
v 0.0027712 0.0134004 -0.0040079
v 0.0023786 0.0134004 -0.0034095
v 0.0018513 0.0134004 -0.0029114
v 0.0012294 0.0134004 -0.0025540
v 0.0005380 0.0134004 -0.0023489
v -0.0001777 0.0134004 -0.0023079
v -0.0008867 0.0134004 -0.0024309
v -0.0015488 0.0134004 -0.0027181
v -0.0021238 0.0134004 -0.0031458
v -0.0025867 0.0134004 -0.0036974
v -0.0029090 0.0134004 -0.0043420
v -0.0030790 0.0134004 -0.0050393
v -0.0030965 0.0134004 -0.0054033
v -0.0030790 0.0134004 -0.0057607
v -0.0029090 0.0134004 -0.0064580
v -0.0025867 0.0134004 -0.0071026
v -0.0021238 0.0134004 -0.0076542
v -0.0015488 0.0134004 -0.0080819
v -0.0008867 0.0134004 -0.0083691
f 673 674 675
f 675 674 676
f 674 677 676
f 676 677 678
f 678 677 679
f 679 677 680
f 680 677 681
f 677 682 681
f 681 682 683
f 683 682 684
f 684 682 685
f 685 682 686
f 682 687 686
f 686 687 688
f 688 687 689
f 689 687 690
f 690 687 691
f 687 692 691
f 691 692 693
f 693 692 694
f 694 692 695
f 695 692 696
f 692 697 696
f 696 697 698
f 698 697 699
f 699 697 700
f 700 697 701
f 697 702 701
f 701 702 703
f 703 702 704
f 704 702 705
f 705 702 706
f 702 707 706
f 706 707 708
f 708 707 709
f 709 707 710
f 710 707 711
f 707 674 711
f 711 674 712
f 674 673 712
f 713 714 715
f 714 716 715
f 717 718 719
f 718 720 719
f 721 722 723
f 722 724 723
f 725 726 727
f 726 728 727
f 729 730 731
f 730 732 731
f 733 734 735
f 734 736 735
f 737 738 739
f 738 740 739
f 741 742 743
f 742 744 743
f 745 746 747
f 747 746 748
f 746 749 748
f 748 749 750
f 749 751 750
f 750 751 752
f 751 753 752
f 752 753 754
f 753 755 754
f 754 755 756
f 756 755 757
f 755 758 757
f 757 758 759
f 758 760 759
f 760 761 759
f 759 761 762
f 761 763 762
f 762 763 764
f 763 765 764
f 764 765 766
f 765 767 766
f 766 767 768
f 767 769 768
f 768 769 770
f 769 771 770
f 770 771 772
f 771 773 772
f 772 773 774
f 773 775 774
f 775 776 774
f 774 776 777
f 776 778 777
f 777 778 779
f 778 780 779
f 779 780 781
f 780 782 781
f 781 782 783
f 782 784 783
f 783 784 785
f 784 786 785
f 785 786 787
f 786 788 787
f 787 788 789
f 788 790 789
f 789 790 791
f 790 792 791
f 791 792 793
f 792 794 793
f 793 794 795
f 794 796 795
f 795 796 797
f 796 798 797
f 797 798 799
f 798 800 799
f 799 800 801
f 800 802 801
f 802 745 801
f 745 747 801
f 803 804 805
f 805 804 806
f 806 804 807
f 807 804 808
f 808 804 809
f 809 804 810
f 810 804 811
f 811 804 812
f 812 804 813
f 813 804 814
f 814 804 815
f 815 804 816
f 816 804 817
f 817 804 818
f 818 804 819
f 819 804 820
f 820 804 821
f 821 804 822
f 822 804 823
f 823 804 824
f 824 804 825
f 825 804 826
f 826 804 827
f 827 804 828
f 828 804 829
f 829 804 830
f 830 804 831
f 804 803 831
usemtl material_2
v -0.0080977 0.0014981 0.0130000
v -0.0080977 0.0000000 0.0130000
v 0.0080961 0.0014981 0.0130000
v 0.0080961 0.0000000 0.0130000
v -0.0080977 0.0014981 0.0130000
v -0.0088849 0.0014981 0.0129238
v -0.0080977 0.0000000 0.0130000
v -0.0088849 0.0000000 0.0129238
v -0.0096339 0.0014981 0.0126953
v -0.0096339 0.0000000 0.0126953
v -0.0103211 0.0014981 0.0123271
v -0.0103211 0.0000000 0.0123271
v -0.0109305 0.0014981 0.0118320
v -0.0109305 0.0000000 0.0118320
v -0.0114257 0.0014981 0.0112225
v -0.0114257 0.0000000 0.0112225
v -0.0117939 0.0014981 0.0105354
v -0.0117939 0.0000000 0.0105354
v -0.0120224 0.0014981 0.0097863
v -0.0120224 0.0000000 0.0097863
v -0.0120986 0.0014981 0.0089991
v -0.0120986 0.0000000 0.0089991
v -0.0120986 0.0014981 0.0089991
v -0.0120986 0.0014981 -0.0089991
v -0.0120986 0.0000000 0.0089991
v -0.0120986 0.0000000 -0.0089991
v 0.0080961 0.0000000 0.0130000
v 0.0088849 0.0000000 0.0129238
v 0.0080961 0.0014981 0.0130000
v 0.0088849 0.0014981 0.0129238
v 0.0096339 0.0000000 0.0126953
v 0.0096339 0.0014981 0.0126953
v 0.0103195 0.0000000 0.0123271
v 0.0103195 0.0014981 0.0123271
v 0.0109290 0.0000000 0.0118320
v 0.0109290 0.0014981 0.0118320
v 0.0114241 0.0000000 0.0112225
v 0.0114241 0.0014981 0.0112225
v 0.0117923 0.0000000 0.0105354
v 0.0117923 0.0014981 0.0105354
v 0.0120208 0.0000000 0.0097863
v 0.0120208 0.0014981 0.0097863
v 0.0120986 0.0000000 0.0089991
v 0.0120986 0.0014981 0.0089991
v 0.0120986 0.0000000 0.0089991
v 0.0120986 0.0000000 -0.0089991
v 0.0120986 0.0014981 0.0089991
v 0.0120986 0.0014981 -0.0089991
v 0.0090372 0.0014981 0.0010990
v 0.0095832 0.0014981 0.0015180
v 0.0120986 0.0014981 -0.0089991
v 0.0100021 0.0014981 0.0020639
v 0.0102561 0.0014981 0.0026987
v 0.0103576 0.0014981 0.0033716
v 0.0120986 0.0014981 0.0089991
v 0.0102561 0.0014981 0.0040588
v 0.0100021 0.0014981 0.0046936
v 0.0095832 0.0014981 0.0052268
v 0.0120208 0.0014981 0.0097863
v 0.0090372 0.0014981 0.0056458
v 0.0117923 0.0014981 0.0105354
v 0.0114241 0.0014981 0.0112225
v 0.0084024 0.0014981 0.0059124
v 0.0109290 0.0014981 0.0118320
v 0.0103195 0.0014981 0.0123271
v 0.0096339 0.0014981 0.0126953
v 0.0077279 0.0014981 0.0060013
v 0.0088849 0.0014981 0.0129238
v 0.0080961 0.0014981 0.0130000
v -0.0049983 0.0014981 0.0128984
v -0.0080977 0.0014981 0.0130000
v 0.0049983 0.0014981 0.0128984
v 0.0070424 0.0014981 0.0059124
v 0.0064203 0.0014981 0.0056458
v 0.0049983 0.0014981 0.0056458
v 0.0058743 0.0014981 0.0052268
v 0.0041969 0.0014981 0.0056458
v 0.0054553 0.0014981 0.0046936
v 0.0023051 0.0014981 0.0071439
v 0.0041969 0.0014981 0.0071439
v 0.0023051 0.0014981 0.0046555
v 0.0002468 0.0014981 0.0071439
v 0.0017973 0.0014981 0.0071439
v 0.0002468 0.0014981 0.0046555
v 0.0017973 0.0014981 0.0046555
v -0.0017973 0.0014981 0.0071439
v -0.0002484 0.0014981 0.0071439
v -0.0017973 0.0014981 0.0046555
v -0.0002484 0.0014981 0.0046555
v -0.0041984 0.0014981 0.0071439
v -0.0022924 0.0014981 0.0071439
v -0.0041984 0.0014981 0.0056458
v -0.0022924 0.0014981 0.0046555
v -0.0052014 0.0014981 0.0006039
v 0.0051887 0.0014981 0.0040588
v 0.0050999 0.0014981 0.0033716
v 0.0052014 0.0014981 0.0006039
v 0.0051887 0.0014981 0.0026987
v 0.0054553 0.0014981 0.0020639
v 0.0058743 0.0014981 0.0015180
v 0.0060013 0.0014981 -0.0001976
v 0.0064203 0.0014981 0.0010990
v 0.0070424 0.0014981 0.0008451
v 0.0077279 0.0014981 0.0007562
v 0.0084024 0.0014981 0.0008451
v 0.0060013 0.0014981 -0.0105989
v 0.0120208 0.0014981 -0.0097863
v 0.0117923 0.0014981 -0.0105354
v 0.0114241 0.0014981 -0.0112225
v 0.0109290 0.0014981 -0.0118320
v 0.0103195 0.0014981 -0.0123271
v 0.0096339 0.0014981 -0.0126953
v 0.0088849 0.0014981 -0.0129238
v 0.0052014 0.0014981 -0.0114003
v 0.0080961 0.0014981 -0.0130000
v -0.0052014 0.0014981 -0.0114003
v -0.0080977 0.0014981 -0.0130000
v -0.0060013 0.0014981 -0.0105989
v -0.0088849 0.0014981 -0.0129238
v -0.0096339 0.0014981 -0.0126953
v -0.0103211 0.0014981 -0.0123271
v -0.0109305 0.0014981 -0.0118320
v -0.0114257 0.0014981 -0.0112225
v -0.0117939 0.0014981 -0.0105354
v -0.0120224 0.0014981 -0.0097863
v -0.0120986 0.0014981 -0.0089991
v -0.0060013 0.0014981 -0.0001976
v -0.0090372 0.0014981 0.0010990
v -0.0095832 0.0014981 0.0015180
v -0.0100021 0.0014981 0.0020639
v -0.0102576 0.0014981 0.0026987
v -0.0103465 0.0014981 0.0033716
v -0.0120986 0.0014981 0.0089991
v -0.0102576 0.0014981 0.0040588
v -0.0100021 0.0014981 0.0046936
v -0.0095832 0.0014981 0.0052268
v -0.0090372 0.0014981 0.0056458
v -0.0120224 0.0014981 0.0097863
v -0.0117939 0.0014981 0.0105354
v -0.0084024 0.0014981 0.0059124
v -0.0114257 0.0014981 0.0112225
v -0.0109305 0.0014981 0.0118320
v -0.0103211 0.0014981 0.0123271
v -0.0096339 0.0014981 0.0126953
v -0.0077295 0.0014981 0.0060013
v -0.0088849 0.0014981 0.0129238
v -0.0070439 0.0014981 0.0059124
v -0.0064076 0.0014981 0.0056458
v -0.0058616 0.0014981 0.0052268
v -0.0054554 0.0014981 0.0046936
v -0.0051887 0.0014981 0.0040588
v -0.0050999 0.0014981 0.0033716
v -0.0049983 0.0014981 0.0056458
v -0.0051887 0.0014981 0.0026987
v -0.0054554 0.0014981 0.0020639
v -0.0058616 0.0014981 0.0015180
v -0.0064076 0.0014981 0.0010990
v -0.0070439 0.0014981 0.0008451
v -0.0077295 0.0014981 0.0007562
v -0.0084024 0.0014981 0.0008451
v -0.0120986 0.0014981 -0.0089991
v -0.0120224 0.0014981 -0.0097863
v -0.0120986 0.0000000 -0.0089991
v -0.0120224 0.0000000 -0.0097863
v -0.0117939 0.0014981 -0.0105354
v -0.0117939 0.0000000 -0.0105354
v -0.0114257 0.0014981 -0.0112225
v -0.0114257 0.0000000 -0.0112225
v -0.0109305 0.0014981 -0.0118320
v -0.0109305 0.0000000 -0.0118320
v -0.0103211 0.0014981 -0.0123271
v -0.0103211 0.0000000 -0.0123271
v -0.0096339 0.0014981 -0.0126953
v -0.0096339 0.0000000 -0.0126953
v -0.0088849 0.0014981 -0.0129238
v -0.0088849 0.0000000 -0.0129238
v -0.0080977 0.0014981 -0.0130000
v -0.0080977 0.0000000 -0.0130000
v -0.0080977 0.0014981 -0.0130000
v 0.0080961 0.0014981 -0.0130000
v -0.0080977 0.0000000 -0.0130000
v 0.0080961 0.0000000 -0.0130000
v 0.0080961 0.0014981 -0.0130000
v 0.0088849 0.0014981 -0.0129238
v 0.0080961 0.0000000 -0.0130000
v 0.0088849 0.0000000 -0.0129238
v 0.0096339 0.0014981 -0.0126953
v 0.0096339 0.0000000 -0.0126953
v 0.0103195 0.0014981 -0.0123271
v 0.0103195 0.0000000 -0.0123271
v 0.0109290 0.0014981 -0.0118320
v 0.0109290 0.0000000 -0.0118320
v 0.0114241 0.0014981 -0.0112225
v 0.0114241 0.0000000 -0.0112225
v 0.0117923 0.0014981 -0.0105354
v 0.0117923 0.0000000 -0.0105354
v 0.0120208 0.0014981 -0.0097863
v 0.0120208 0.0000000 -0.0097863
v 0.0120986 0.0014981 -0.0089991
v 0.0120986 0.0000000 -0.0089991
v -0.0084024 0.0000000 0.0008451
v -0.0077295 0.0000000 0.0007562
v -0.0077295 0.0014981 0.0007562
v -0.0070439 0.0014981 0.0008451
v -0.0070439 0.0000000 0.0008451
v -0.0064076 0.0014981 0.0010990
v -0.0064076 0.0000000 0.0010990
v -0.0058616 0.0014981 0.0015180
v -0.0058616 0.0000000 0.0015180
v -0.0054554 0.0014981 0.0020639
v -0.0054554 0.0000000 0.0020639
v -0.0051887 0.0014981 0.0026987
v -0.0051887 0.0000000 0.0026987
v -0.0050999 0.0014981 0.0033716
v -0.0050999 0.0000000 0.0033716
v -0.0051887 0.0014981 0.0040588
v -0.0051887 0.0000000 0.0040588
v -0.0054554 0.0014981 0.0046936
v -0.0054554 0.0000000 0.0046936
v -0.0058616 0.0014981 0.0052268
v -0.0058616 0.0000000 0.0052268
v -0.0064076 0.0014981 0.0056458
v -0.0064076 0.0000000 0.0056458
v -0.0070439 0.0014981 0.0059124
v -0.0070439 0.0000000 0.0059124
v -0.0077295 0.0014981 0.0060013
v -0.0077295 0.0000000 0.0060013
v -0.0084024 0.0014981 0.0059124
v -0.0084024 0.0000000 0.0059124
v -0.0090372 0.0014981 0.0056458
v -0.0090372 0.0000000 0.0056458
v -0.0095832 0.0014981 0.0052268
v -0.0095832 0.0000000 0.0052268
v -0.0100021 0.0014981 0.0046936
v -0.0100021 0.0000000 0.0046936
v -0.0102576 0.0014981 0.0040588
v -0.0102576 0.0000000 0.0040588
v -0.0103465 0.0014981 0.0033716
v -0.0103465 0.0000000 0.0033716
v -0.0102576 0.0014981 0.0026987
v -0.0102576 0.0000000 0.0026987
v -0.0100021 0.0014981 0.0020639
v -0.0100021 0.0000000 0.0020639
v -0.0095832 0.0014981 0.0015180
v -0.0095832 0.0000000 0.0015180
v -0.0090372 0.0014981 0.0010990
v -0.0090372 0.0000000 0.0010990
v -0.0084024 0.0014981 0.0008451
v 0.0054553 0.0000000 0.0046936
v 0.0058743 0.0000000 0.0052268
v -0.0080977 0.0000000 0.0130000
v 0.0064203 0.0000000 0.0056458
v 0.0080961 0.0000000 0.0130000
v 0.0070424 0.0000000 0.0059124
v 0.0077279 0.0000000 0.0060013
v 0.0088849 0.0000000 0.0129238
v 0.0096339 0.0000000 0.0126953
v 0.0103195 0.0000000 0.0123271
v 0.0084024 0.0000000 0.0059124
v 0.0109290 0.0000000 0.0118320
v 0.0114241 0.0000000 0.0112225
v 0.0117923 0.0000000 0.0105354
v 0.0090372 0.0000000 0.0056458
v 0.0120208 0.0000000 0.0097863
v 0.0120986 0.0000000 0.0089991
v 0.0095832 0.0000000 0.0052268
v 0.0100021 0.0000000 0.0046936
v 0.0102561 0.0000000 0.0040588
v 0.0103576 0.0000000 0.0033716
v 0.0120986 0.0000000 -0.0089991
v 0.0102561 0.0000000 0.0026987
v 0.0100021 0.0000000 0.0020639
v 0.0095832 0.0000000 0.0015180
v 0.0090372 0.0000000 0.0010990
v 0.0120208 0.0000000 -0.0097863
v 0.0084024 0.0000000 0.0008451
v 0.0117923 0.0000000 -0.0105354
v 0.0114241 0.0000000 -0.0112225
v 0.0109290 0.0000000 -0.0118320
v 0.0077279 0.0000000 0.0007562
v 0.0103195 0.0000000 -0.0123271
v 0.0096339 0.0000000 -0.0126953
v 0.0088849 0.0000000 -0.0129238
v 0.0080961 0.0000000 -0.0130000
v 0.0070424 0.0000000 0.0008451
v -0.0080977 0.0000000 -0.0130000
v 0.0064203 0.0000000 0.0010990
v -0.0058616 0.0000000 0.0015180
v -0.0054554 0.0000000 0.0020639
v -0.0051887 0.0000000 0.0026987
v 0.0058743 0.0000000 0.0015180
v -0.0050999 0.0000000 0.0033716
v 0.0054553 0.0000000 0.0020639
v -0.0051887 0.0000000 0.0040588
v -0.0054554 0.0000000 0.0046936
v -0.0058616 0.0000000 0.0052268
v -0.0064076 0.0000000 0.0056458
v -0.0070439 0.0000000 0.0059124
v 0.0051887 0.0000000 0.0026987
v 0.0050999 0.0000000 0.0033716
v 0.0051887 0.0000000 0.0040588
v -0.0077295 0.0000000 0.0060013
v -0.0088849 0.0000000 0.0129238
v -0.0096339 0.0000000 0.0126953
v -0.0084024 0.0000000 0.0059124
v -0.0103211 0.0000000 0.0123271
v -0.0109305 0.0000000 0.0118320
v -0.0114257 0.0000000 0.0112225
v -0.0090372 0.0000000 0.0056458
v -0.0117939 0.0000000 0.0105354
v -0.0120224 0.0000000 0.0097863
v -0.0095832 0.0000000 0.0052268
v -0.0120986 0.0000000 0.0089991
v -0.0100021 0.0000000 0.0046936
v -0.0102576 0.0000000 0.0040588
v -0.0103465 0.0000000 0.0033716
v -0.0120986 0.0000000 -0.0089991
v -0.0102576 0.0000000 0.0026987
v -0.0100021 0.0000000 0.0020639
v -0.0095832 0.0000000 0.0015180
v -0.0090372 0.0000000 0.0010990
v -0.0084024 0.0000000 0.0008451
v -0.0120224 0.0000000 -0.0097863
v -0.0117939 0.0000000 -0.0105354
v -0.0114257 0.0000000 -0.0112225
v -0.0077295 0.0000000 0.0007562
v -0.0109305 0.0000000 -0.0118320
v -0.0103211 0.0000000 -0.0123271
v -0.0096339 0.0000000 -0.0126953
v -0.0088849 0.0000000 -0.0129238
v -0.0070439 0.0000000 0.0008451
v -0.0064076 0.0000000 0.0010990
v 0.0103576 0.0014981 0.0033716
v 0.0102561 0.0014981 0.0026987
v 0.0102561 0.0000000 0.0026987
v 0.0100021 0.0000000 0.0020639
v 0.0100021 0.0014981 0.0020639
v 0.0095832 0.0000000 0.0015180
v 0.0095832 0.0014981 0.0015180
v 0.0090372 0.0000000 0.0010990
v 0.0090372 0.0014981 0.0010990
v 0.0084024 0.0000000 0.0008451
v 0.0084024 0.0014981 0.0008451
v 0.0077279 0.0000000 0.0007562
v 0.0077279 0.0014981 0.0007562
v 0.0070424 0.0000000 0.0008451
v 0.0070424 0.0014981 0.0008451
v 0.0064203 0.0000000 0.0010990
v 0.0064203 0.0014981 0.0010990
v 0.0058743 0.0000000 0.0015180
v 0.0058743 0.0014981 0.0015180
v 0.0054553 0.0000000 0.0020639
v 0.0054553 0.0014981 0.0020639
v 0.0051887 0.0000000 0.0026987
v 0.0051887 0.0014981 0.0026987
v 0.0050999 0.0000000 0.0033716
v 0.0050999 0.0014981 0.0033716
v 0.0051887 0.0000000 0.0040588
v 0.0051887 0.0014981 0.0040588
v 0.0054553 0.0000000 0.0046936
v 0.0054553 0.0014981 0.0046936
v 0.0058743 0.0000000 0.0052268
v 0.0058743 0.0014981 0.0052268
v 0.0064203 0.0000000 0.0056458
v 0.0064203 0.0014981 0.0056458
v 0.0070424 0.0000000 0.0059124
v 0.0070424 0.0014981 0.0059124
v 0.0077279 0.0000000 0.0060013
v 0.0077279 0.0014981 0.0060013
v 0.0084024 0.0000000 0.0059124
v 0.0084024 0.0014981 0.0059124
v 0.0090372 0.0000000 0.0056458
v 0.0090372 0.0014981 0.0056458
v 0.0095832 0.0000000 0.0052268
v 0.0095832 0.0014981 0.0052268
v 0.0100021 0.0000000 0.0046936
v 0.0100021 0.0014981 0.0046936
v 0.0102561 0.0000000 0.0040588
v 0.0102561 0.0014981 0.0040588
v 0.0103576 0.0000000 0.0033716
f 832 833 834
f 833 835 834
f 836 837 838
f 838 837 839
f 837 840 839
f 839 840 841
f 840 842 841
f 841 842 843
f 842 844 843
f 843 844 845
f 844 846 845
f 845 846 847
f 846 848 847
f 847 848 849
f 848 850 849
f 849 850 851
f 850 852 851
f 852 853 851
f 854 855 856
f 855 857 856
f 858 859 860
f 860 859 861
f 859 862 861
f 861 862 863
f 862 864 863
f 863 864 865
f 864 866 865
f 865 866 867
f 866 868 867
f 867 868 869
f 868 870 869
f 869 870 871
f 870 872 871
f 871 872 873
f 872 874 873
f 874 875 873
f 876 877 878
f 877 879 878
f 880 881 882
f 881 883 882
f 883 884 882
f 884 885 882
f 882 885 886
f 885 887 886
f 887 888 886
f 888 889 886
f 886 889 890
f 889 891 890
f 890 891 892
f 892 891 893
f 891 894 893
f 893 894 895
f 895 894 896
f 896 894 897
f 894 898 897
f 897 898 899
f 899 898 900
f 901 902 903
f 902 900 903
f 900 898 903
f 898 904 903
f 904 905 903
f 903 905 906
f 905 907 906
f 906 907 908
f 907 909 908
f 910 911 912
f 911 908 912
f 913 914 915
f 914 916 915
f 917 918 919
f 918 920 919
f 921 922 923
f 922 924 923
f 923 924 925
f 924 919 925
f 919 920 925
f 920 915 925
f 915 916 925
f 916 912 925
f 912 908 925
f 908 909 925
f 909 926 925
f 926 927 925
f 925 927 928
f 927 929 928
f 929 930 928
f 930 931 928
f 928 931 932
f 931 933 932
f 933 934 932
f 934 935 932
f 935 936 932
f 936 880 932
f 880 882 932
f 932 882 937
f 882 938 937
f 938 939 937
f 939 940 937
f 940 941 937
f 941 942 937
f 942 943 937
f 943 944 937
f 937 944 945
f 944 946 945
f 945 946 947
f 946 948 947
f 947 948 949
f 948 950 949
f 950 951 949
f 951 952 949
f 952 953 949
f 953 954 949
f 954 955 949
f 955 956 949
f 956 957 949
f 949 957 958
f 958 957 959
f 959 957 960
f 960 957 961
f 961 957 962
f 962 957 963
f 957 964 963
f 963 964 965
f 965 964 966
f 966 964 967
f 967 964 968
f 964 969 968
f 969 970 968
f 968 970 971
f 970 972 971
f 972 973 971
f 973 974 971
f 974 975 971
f 971 975 976
f 975 977 976
f 977 902 976
f 976 902 978
f 902 901 978
f 978 901 979
f 979 901 980
f 980 901 981
f 981 901 982
f 982 901 983
f 901 984 983
f 984 923 983
f 983 923 985
f 923 925 985
f 985 925 986
f 986 925 987
f 987 925 988
f 925 958 988
f 988 958 989
f 989 958 990
f 990 958 991
f 958 959 991
f 992 993 994
f 994 993 995
f 993 996 995
f 995 996 997
f 996 998 997
f 997 998 999
f 998 1000 999
f 999 1000 1001
f 1000 1002 1001
f 1001 1002 1003
f 1002 1004 1003
f 1003 1004 1005
f 1004 1006 1005
f 1005 1006 1007
f 1006 1008 1007
f 1008 1009 1007
f 1010 1011 1012
f 1011 1013 1012
f 1014 1015 1016
f 1016 1015 1017
f 1015 1018 1017
f 1017 1018 1019
f 1018 1020 1019
f 1019 1020 1021
f 1020 1022 1021
f 1021 1022 1023
f 1022 1024 1023
f 1023 1024 1025
f 1024 1026 1025
f 1025 1026 1027
f 1026 1028 1027
f 1027 1028 1029
f 1028 1030 1029
f 1029 1030 1031
f 1032 1033 1034
f 1034 1033 1035
f 1033 1036 1035
f 1035 1036 1037
f 1036 1038 1037
f 1037 1038 1039
f 1038 1040 1039
f 1039 1040 1041
f 1040 1042 1041
f 1041 1042 1043
f 1042 1044 1043
f 1043 1044 1045
f 1044 1046 1045
f 1045 1046 1047
f 1046 1048 1047
f 1047 1048 1049
f 1048 1050 1049
f 1049 1050 1051
f 1050 1052 1051
f 1051 1052 1053
f 1052 1054 1053
f 1053 1054 1055
f 1054 1056 1055
f 1055 1056 1057
f 1056 1058 1057
f 1057 1058 1059
f 1058 1060 1059
f 1059 1060 1061
f 1060 1062 1061
f 1061 1062 1063
f 1062 1064 1063
f 1063 1064 1065
f 1064 1066 1065
f 1065 1066 1067
f 1066 1068 1067
f 1067 1068 1069
f 1068 1070 1069
f 1069 1070 1071
f 1070 1072 1071
f 1071 1072 1073
f 1072 1074 1073
f 1073 1074 1075
f 1074 1076 1075
f 1075 1076 1077
f 1076 1078 1077
f 1077 1078 1079
f 1078 1032 1079
f 1032 1034 1079
f 1080 1081 1082
f 1081 1083 1082
f 1082 1083 1084
f 1083 1085 1084
f 1085 1086 1084
f 1084 1086 1087
f 1087 1086 1088
f 1088 1086 1089
f 1086 1090 1089
f 1089 1090 1091
f 1091 1090 1092
f 1092 1090 1093
f 1090 1094 1093
f 1093 1094 1095
f 1095 1094 1096
f 1094 1097 1096
f 1097 1098 1096
f 1098 1099 1096
f 1099 1100 1096
f 1096 1100 1101
f 1100 1102 1101
f 1102 1103 1101
f 1103 1104 1101
f 1104 1105 1101
f 1101 1105 1106
f 1105 1107 1106
f 1106 1107 1108
f 1108 1107 1109
f 1109 1107 1110
f 1107 1111 1110
f 1110 1111 1112
f 1112 1111 1113
f 1113 1111 1114
f 1114 1111 1115
f 1111 1116 1115
f 1115 1116 1117
f 1116 1118 1117
f 1117 1118 1119
f 1119 1118 1120
f 1120 1118 1121
f 1118 1122 1121
f 1121 1122 1123
f 1122 1124 1123
f 1123 1124 1125
f 1125 1124 1126
f 1126 1124 1127
f 1127 1124 1128
f 1128 1124 1129
f 1124 1130 1129
f 1130 1131 1129
f 1131 1132 1129
f 1132 1080 1129
f 1080 1082 1129
f 1129 1082 1133
f 1082 1134 1133
f 1134 1135 1133
f 1133 1135 1136
f 1135 1137 1136
f 1137 1138 1136
f 1138 1139 1136
f 1136 1139 1140
f 1139 1141 1140
f 1141 1142 1140
f 1140 1142 1143
f 1142 1144 1143
f 1143 1144 1145
f 1145 1144 1146
f 1146 1144 1147
f 1144 1148 1147
f 1147 1148 1149
f 1149 1148 1150
f 1150 1148 1151
f 1151 1148 1152
f 1152 1148 1153
f 1148 1154 1153
f 1154 1155 1153
f 1155 1156 1153
f 1153 1156 1157
f 1156 1158 1157
f 1158 1159 1157
f 1159 1160 1157
f 1160 1161 1157
f 1161 1117 1157
f 1157 1117 1162
f 1162 1117 1163
f 1117 1119 1163
f 1164 1165 1166
f 1166 1165 1167
f 1165 1168 1167
f 1167 1168 1169
f 1168 1170 1169
f 1169 1170 1171
f 1170 1172 1171
f 1171 1172 1173
f 1172 1174 1173
f 1173 1174 1175
f 1174 1176 1175
f 1175 1176 1177
f 1176 1178 1177
f 1177 1178 1179
f 1178 1180 1179
f 1179 1180 1181
f 1180 1182 1181
f 1181 1182 1183
f 1182 1184 1183
f 1183 1184 1185
f 1184 1186 1185
f 1185 1186 1187
f 1186 1188 1187
f 1187 1188 1189
f 1188 1190 1189
f 1189 1190 1191
f 1190 1192 1191
f 1191 1192 1193
f 1192 1194 1193
f 1193 1194 1195
f 1194 1196 1195
f 1195 1196 1197
f 1196 1198 1197
f 1197 1198 1199
f 1198 1200 1199
f 1199 1200 1201
f 1200 1202 1201
f 1201 1202 1203
f 1202 1204 1203
f 1203 1204 1205
f 1204 1206 1205
f 1205 1206 1207
f 1206 1208 1207
f 1207 1208 1209
f 1208 1210 1209
f 1209 1210 1211
f 1210 1164 1211
f 1164 1166 1211
usemtl material_3
v -0.0022986 0.0020012 0.0051512
v -0.0022986 0.0020012 0.0066500
v -0.0017974 0.0020012 0.0051512
v -0.0017974 0.0020012 0.0066500
v -0.0017974 0.0020012 0.0066500
v -0.0022986 0.0020012 0.0066500
v -0.0017974 0.0037830 0.0066500
v -0.0022986 0.0037830 0.0066500
v -0.0022986 0.0039136 0.0066680
v -0.0017974 0.0039136 0.0066680
v -0.0022986 0.0040349 0.0067174
v -0.0017974 0.0040349 0.0067174
v -0.0022986 0.0041382 0.0067960
v -0.0017974 0.0041382 0.0067960
v -0.0017974 0.0042842 0.0071512
v -0.0017974 0.0042662 0.0070209
v -0.0022986 0.0042842 0.0071512
v -0.0022986 0.0042662 0.0070209
v -0.0017974 0.0042168 0.0068993
v -0.0022986 0.0042168 0.0068993
v -0.0017974 0.0041382 0.0067960
v -0.0017974 0.0042168 0.0068993
v -0.0017974 0.0040349 0.0067174
v -0.0017974 0.0039136 0.0066680
v -0.0017974 0.0042662 0.0070209
v -0.0017974 0.0042842 0.0071512
v -0.0017974 0.0037830 0.0066500
v -0.0017974 0.0020012 0.0066500
v -0.0017974 0.0015000 0.0071512
v -0.0017974 0.0020012 0.0051512
v -0.0017974 0.0015000 0.0046500
v -0.0017974 0.0016303 0.0046680
v -0.0017974 0.0019832 0.0050209
v -0.0017974 0.0019338 0.0048993
v -0.0017974 0.0017493 0.0047174
v -0.0017974 0.0018529 0.0047960
v -0.0022986 0.0041382 0.0067960
v -0.0022986 0.0040349 0.0067174
v -0.0022986 0.0042168 0.0068993
v -0.0022986 0.0039136 0.0066680
v -0.0022986 0.0042662 0.0070209
v -0.0022986 0.0042842 0.0071512
v -0.0022986 0.0037830 0.0066500
v -0.0022986 0.0015000 0.0071512
v -0.0022986 0.0020012 0.0066500
v -0.0022986 0.0015000 0.0046500
v -0.0022986 0.0020012 0.0051512
v -0.0022986 0.0016303 0.0046680
v -0.0022986 0.0019832 0.0050209
v -0.0022986 0.0019338 0.0048993
v -0.0022986 0.0017493 0.0047174
v -0.0022986 0.0018529 0.0047960
v -0.0022986 0.0015000 0.0046500
v -0.0022986 0.0016303 0.0046680
v -0.0017974 0.0015000 0.0046500
v -0.0017974 0.0016303 0.0046680
v -0.0022986 0.0017493 0.0047174
v -0.0017974 0.0017493 0.0047174
v -0.0022986 0.0018529 0.0047960
v -0.0017974 0.0018529 0.0047960
v -0.0017974 0.0020012 0.0051512
v -0.0017974 0.0019832 0.0050209
v -0.0022986 0.0020012 0.0051512
v -0.0022986 0.0019832 0.0050209
v -0.0017974 0.0019338 0.0048993
v -0.0022986 0.0019338 0.0048993
v -0.0002492 0.0020012 0.0051512
v -0.0002492 0.0020012 0.0066500
v 0.0002520 0.0020012 0.0051512
v 0.0002520 0.0020012 0.0066500
v 0.0002520 0.0020012 0.0066500
v -0.0002492 0.0020012 0.0066500
v 0.0002520 0.0037830 0.0066500
v -0.0002492 0.0037830 0.0066500
v -0.0002492 0.0039136 0.0066680
v 0.0002520 0.0039136 0.0066680
v -0.0002492 0.0040349 0.0067174
v 0.0002520 0.0040349 0.0067174
v -0.0002492 0.0041382 0.0067960
v 0.0002520 0.0041382 0.0067960
v 0.0002520 0.0042842 0.0071512
v 0.0002520 0.0042662 0.0070209
v -0.0002492 0.0042842 0.0071512
v -0.0002492 0.0042662 0.0070209
v 0.0002520 0.0042168 0.0068993
v -0.0002492 0.0042168 0.0068993
v 0.0002520 0.0041382 0.0067960
v 0.0002520 0.0042168 0.0068993
v 0.0002520 0.0040349 0.0067174
v 0.0002520 0.0039136 0.0066680
v 0.0002520 0.0042662 0.0070209
v 0.0002520 0.0042842 0.0071512
v 0.0002520 0.0037830 0.0066500
v 0.0002520 0.0020012 0.0066500
v 0.0002520 0.0015000 0.0071512
v 0.0002520 0.0020012 0.0051512
v 0.0002520 0.0015000 0.0046500
v 0.0002520 0.0016303 0.0046680
v 0.0002520 0.0019832 0.0050209
v 0.0002520 0.0019338 0.0048993
v 0.0002520 0.0017493 0.0047174
v 0.0002520 0.0018529 0.0047960
v -0.0002492 0.0041382 0.0067960
v -0.0002492 0.0040349 0.0067174
v -0.0002492 0.0042168 0.0068993
v -0.0002492 0.0039136 0.0066680
v -0.0002492 0.0042662 0.0070209
v -0.0002492 0.0042842 0.0071512
v -0.0002492 0.0037830 0.0066500
v -0.0002492 0.0015000 0.0071512
v -0.0002492 0.0020012 0.0066500
v -0.0002492 0.0015000 0.0046500
v -0.0002492 0.0020012 0.0051512
v -0.0002492 0.0016303 0.0046680
v -0.0002492 0.0019832 0.0050209
v -0.0002492 0.0019338 0.0048993
v -0.0002492 0.0017493 0.0047174
v -0.0002492 0.0018529 0.0047960
v -0.0002492 0.0015000 0.0046500
v -0.0002492 0.0016303 0.0046680
v 0.0002520 0.0015000 0.0046500
v 0.0002520 0.0016303 0.0046680
v -0.0002492 0.0017493 0.0047174
v 0.0002520 0.0017493 0.0047174
v -0.0002492 0.0018529 0.0047960
v 0.0002520 0.0018529 0.0047960
v 0.0002520 0.0020012 0.0051512
v 0.0002520 0.0019832 0.0050209
v -0.0002492 0.0020012 0.0051512
v -0.0002492 0.0019832 0.0050209
v 0.0002520 0.0019338 0.0048993
v -0.0002492 0.0019338 0.0048993
v 0.0018002 0.0020012 0.0066500
v 0.0018002 0.0037830 0.0066500
v 0.0023014 0.0020012 0.0066500
v 0.0023014 0.0037830 0.0066500
v 0.0023014 0.0020012 0.0066500
v 0.0023014 0.0020012 0.0051512
v 0.0018002 0.0020012 0.0066500
v 0.0018002 0.0020012 0.0051512
v 0.0018002 0.0015000 0.0046500
v 0.0018002 0.0016303 0.0046680
v 0.0023014 0.0015000 0.0046500
v 0.0023014 0.0016303 0.0046680
v 0.0018002 0.0017493 0.0047174
v 0.0023014 0.0017493 0.0047174
v 0.0018002 0.0018529 0.0047960
v 0.0023014 0.0018529 0.0047960
v 0.0023014 0.0020012 0.0051512
v 0.0023014 0.0019832 0.0050209
v 0.0018002 0.0020012 0.0051512
v 0.0018002 0.0019832 0.0050209
v 0.0023014 0.0019338 0.0048993
v 0.0018002 0.0019338 0.0048993
v 0.0018002 0.0018529 0.0047960
v 0.0018002 0.0017493 0.0047174
v 0.0018002 0.0019338 0.0048993
v 0.0018002 0.0016303 0.0046680
v 0.0018002 0.0019832 0.0050209
v 0.0018002 0.0020012 0.0051512
v 0.0018002 0.0015000 0.0046500
v 0.0018002 0.0020012 0.0066500
v 0.0018002 0.0015000 0.0071512
v 0.0018002 0.0037830 0.0066500
v 0.0018002 0.0042842 0.0071512
v 0.0018002 0.0039136 0.0066680
v 0.0018002 0.0040349 0.0067174
v 0.0018002 0.0041382 0.0067960
v 0.0018002 0.0042168 0.0068993
v 0.0018002 0.0042662 0.0070209
v 0.0023014 0.0018529 0.0047960
v 0.0023014 0.0019338 0.0048993
v 0.0023014 0.0017493 0.0047174
v 0.0023014 0.0016303 0.0046680
v 0.0023014 0.0019832 0.0050209
v 0.0023014 0.0020012 0.0051512
v 0.0023014 0.0015000 0.0046500
v 0.0023014 0.0015000 0.0071512
v 0.0023014 0.0020012 0.0066500
v 0.0023014 0.0042842 0.0071512
v 0.0023014 0.0037830 0.0066500
v 0.0023014 0.0042662 0.0070209
v 0.0023014 0.0042168 0.0068993
v 0.0023014 0.0041382 0.0067960
v 0.0023014 0.0040349 0.0067174
v 0.0023014 0.0039136 0.0066680
v 0.0023014 0.0042842 0.0071512
v 0.0023014 0.0042662 0.0070209
v 0.0018002 0.0042842 0.0071512
v 0.0018002 0.0042662 0.0070209
v 0.0018002 0.0037830 0.0066500
v 0.0018002 0.0039136 0.0066680
v 0.0023014 0.0037830 0.0066500
v 0.0023014 0.0039136 0.0066680
v 0.0018002 0.0040349 0.0067174
v 0.0023014 0.0040349 0.0067174
v 0.0018002 0.0041382 0.0067960
v 0.0023014 0.0041382 0.0067960
v 0.0018002 0.0042168 0.0068993
v 0.0023014 0.0042168 0.0068993
f 1212 1213 1214
f 1213 1215 1214
f 1216 1217 1218
f 1217 1219 1218
f 1219 1220 1218
f 1218 1220 1221
f 1220 1222 1221
f 1221 1222 1223
f 1222 1224 1223
f 1223 1224 1225
f 1226 1227 1228
f 1228 1227 1229
f 1227 1230 1229
f 1229 1230 1231
f 1230 1225 1231
f 1225 1224 1231
f 1232 1233 1234
f 1234 1233 1235
f 1233 1236 1235
f 1236 1237 1235
f 1235 1237 1238
f 1238 1237 1239
f 1237 1240 1239
f 1239 1240 1241
f 1240 1242 1241
f 1242 1243 1241
f 1241 1243 1244
f 1244 1243 1245
f 1243 1246 1245
f 1246 1247 1245
f 1248 1249 1250
f 1249 1251 1250
f 1250 1251 1252
f 1252 1251 1253
f 1251 1254 1253
f 1253 1254 1255
f 1254 1256 1255
f 1255 1256 1257
f 1256 1258 1257
f 1257 1258 1259
f 1258 1260 1259
f 1260 1261 1259
f 1259 1261 1262
f 1261 1263 1262
f 1264 1265 1266
f 1266 1265 1267
f 1265 1268 1267
f 1267 1268 1269
f 1268 1270 1269
f 1269 1270 1271
f 1272 1273 1274
f 1274 1273 1275
f 1273 1276 1275
f 1275 1276 1277
f 1276 1271 1277
f 1271 1270 1277
f 1278 1279 1280
f 1279 1281 1280
f 1282 1283 1284
f 1283 1285 1284
f 1285 1286 1284
f 1284 1286 1287
f 1286 1288 1287
f 1287 1288 1289
f 1288 1290 1289
f 1289 1290 1291
f 1292 1293 1294
f 1294 1293 1295
f 1293 1296 1295
f 1295 1296 1297
f 1296 1291 1297
f 1291 1290 1297
f 1298 1299 1300
f 1300 1299 1301
f 1299 1302 1301
f 1302 1303 1301
f 1301 1303 1304
f 1304 1303 1305
f 1303 1306 1305
f 1305 1306 1307
f 1306 1308 1307
f 1308 1309 1307
f 1307 1309 1310
f 1310 1309 1311
f 1309 1312 1311
f 1312 1313 1311
f 1314 1315 1316
f 1315 1317 1316
f 1316 1317 1318
f 1318 1317 1319
f 1317 1320 1319
f 1319 1320 1321
f 1320 1322 1321
f 1321 1322 1323
f 1322 1324 1323
f 1323 1324 1325
f 1324 1326 1325
f 1326 1327 1325
f 1325 1327 1328
f 1327 1329 1328
f 1330 1331 1332
f 1332 1331 1333
f 1331 1334 1333
f 1333 1334 1335
f 1334 1336 1335
f 1335 1336 1337
f 1338 1339 1340
f 1340 1339 1341
f 1339 1342 1341
f 1341 1342 1343
f 1342 1337 1343
f 1337 1336 1343
f 1344 1345 1346
f 1345 1347 1346
f 1348 1349 1350
f 1349 1351 1350
f 1352 1353 1354
f 1354 1353 1355
f 1353 1356 1355
f 1355 1356 1357
f 1356 1358 1357
f 1357 1358 1359
f 1360 1361 1362
f 1362 1361 1363
f 1361 1364 1363
f 1363 1364 1365
f 1364 1359 1365
f 1359 1358 1365
f 1366 1367 1368
f 1367 1369 1368
f 1368 1369 1370
f 1370 1369 1371
f 1369 1372 1371
f 1371 1372 1373
f 1372 1374 1373
f 1373 1374 1375
f 1374 1376 1375
f 1375 1376 1377
f 1377 1376 1378
f 1378 1376 1379
f 1379 1376 1380
f 1376 1381 1380
f 1382 1383 1384
f 1384 1383 1385
f 1383 1386 1385
f 1386 1387 1385
f 1385 1387 1388
f 1388 1387 1389
f 1387 1390 1389
f 1389 1390 1391
f 1390 1392 1391
f 1393 1391 1394
f 1394 1391 1395
f 1395 1391 1396
f 1396 1391 1397
f 1391 1392 1397
f 1398 1399 1400
f 1400 1399 1401
f 1402 1403 1404
f 1404 1403 1405
f 1403 1406 1405
f 1405 1406 1407
f 1406 1408 1407
f 1407 1408 1409
f 1408 1410 1409
f 1409 1410 1411
f 1410 1401 1411
f 1401 1399 1411
usemtl material_4
v -0.0041971 0.0052521 0.0071497
v -0.0041971 0.0042504 0.0056500
v -0.0049986 0.0052521 0.0071497
v -0.0049986 0.0042504 0.0056500
v -0.0049986 0.0042504 0.0056500
v -0.0041971 0.0042504 0.0056500
v -0.0049986 0.0015000 0.0056500
v -0.0041971 0.0015000 0.0056500
v -0.0049986 0.0042504 0.0056500
v -0.0049986 0.0015000 0.0056500
v -0.0049986 0.0052521 0.0071497
v -0.0049986 0.0015000 0.0128996
v -0.0049986 0.0071522 0.0071497
v -0.0049986 0.0071522 0.0128996
v -0.0049986 0.0071522 0.0071497
v -0.0049986 0.0071522 0.0128996
v 0.0050014 0.0071522 0.0071497
v 0.0050014 0.0071522 0.0128996
v 0.0050014 0.0071522 0.0071497
v 0.0050014 0.0071522 0.0128996
v 0.0050014 0.0052521 0.0071497
v 0.0050014 0.0015000 0.0128996
v 0.0050014 0.0042504 0.0056500
v 0.0050014 0.0015000 0.0056500
v 0.0050014 0.0015000 0.0056500
v 0.0042000 0.0015000 0.0056500
v 0.0050014 0.0042504 0.0056500
v 0.0042000 0.0042504 0.0056500
v 0.0042000 0.0042504 0.0056500
v 0.0042000 0.0052521 0.0071497
v 0.0050014 0.0042504 0.0056500
v 0.0050014 0.0052521 0.0071497
v -0.0022970 0.0015000 0.0071497
v -0.0041971 0.0015000 0.0071497
v -0.0022970 0.0042846 0.0071497
v -0.0041971 0.0052521 0.0071497
v -0.0002504 0.0015000 0.0071497
v -0.0017989 0.0015000 0.0071497
v -0.0002504 0.0042846 0.0071497
v -0.0017989 0.0042846 0.0071497
v 0.0018018 0.0015000 0.0071497
v 0.0002532 0.0015000 0.0071497
v 0.0018018 0.0042846 0.0071497
v 0.0002532 0.0042846 0.0071497
v 0.0042000 0.0015000 0.0071497
v 0.0022998 0.0015000 0.0071497
v 0.0042000 0.0052521 0.0071497
v 0.0022998 0.0042846 0.0071497
v 0.0050014 0.0052521 0.0071497
v 0.0050014 0.0071522 0.0071497
v -0.0049986 0.0071522 0.0071497
v -0.0049986 0.0052521 0.0071497
f 1412 1413 1414
f 1413 1415 1414
f 1416 1417 1418
f 1417 1419 1418
f 1420 1421 1422
f 1421 1423 1422
f 1422 1423 1424
f 1423 1425 1424
f 1426 1427 1428
f 1427 1429 1428
f 1430 1431 1432
f 1431 1433 1432
f 1432 1433 1434
f 1433 1435 1434
f 1436 1437 1438
f 1437 1439 1438
f 1440 1441 1442
f 1441 1443 1442
f 1444 1445 1446
f 1445 1447 1446
f 1448 1449 1450
f 1449 1451 1450
f 1452 1453 1454
f 1453 1455 1454
f 1456 1457 1458
f 1457 1459 1458
f 1460 1458 1461
f 1458 1459 1461
f 1459 1454 1461
f 1454 1455 1461
f 1455 1450 1461
f 1450 1451 1461
f 1461 1451 1462
f 1451 1446 1462
f 1446 1447 1462
f 1447 1463 1462
usemtl material_5
v 0.0050014 0.0015000 0.0129000
v 0.0050014 0.0071522 0.0129000
v -0.0049986 0.0015000 0.0129000
v -0.0049986 0.0071522 0.0129000
f 1464 1465 1466
f 1465 1467 1466
usemtl material_6
v -0.0041986 0.0015000 0.0071518
v -0.0041986 0.0015000 0.0056500
v -0.0041986 0.0052506 0.0071518
v -0.0041986 0.0042492 0.0056500
v 0.0042014 0.0015000 0.0056500
v 0.0042014 0.0015000 0.0071518
v 0.0042014 0.0042492 0.0056500
v 0.0042014 0.0052506 0.0071518
f 1468 1469 1470
f 1469 1471 1470
f 1472 1473 1474
f 1473 1475 1474
usemtl material_7
v -0.0049986 0.0045000 -0.0014016
v -0.0049742 0.0045000 -0.0011770
v -0.0049986 0.0045977 -0.0014016
v -0.0049742 0.0045977 -0.0011770
v -0.0049009 0.0045000 -0.0009664
v -0.0049009 0.0045977 -0.0009664
v -0.0047788 0.0045000 -0.0007760
v -0.0047788 0.0045977 -0.0007760
v -0.0046226 0.0045000 -0.0006197
v -0.0046226 0.0045977 -0.0006197
v -0.0044321 0.0045000 -0.0004977
v -0.0044321 0.0045977 -0.0004977
v -0.0042216 0.0045000 -0.0004244
v -0.0042216 0.0045977 -0.0004244
v -0.0039969 0.0045000 -0.0004000
v -0.0039969 0.0045977 -0.0004000
v -0.0039969 0.0045977 -0.0004000
v -0.0039969 0.0045000 -0.0004000
v -0.0000013 0.0045977 -0.0004000
v 0.0039998 0.0045000 -0.0004000
v 0.0039998 0.0045977 -0.0004000
v 0.0039998 0.0045000 -0.0004000
v 0.0042244 0.0045000 -0.0004244
v 0.0039998 0.0045977 -0.0004000
v 0.0042244 0.0045977 -0.0004244
v 0.0044350 0.0045000 -0.0004977
v 0.0044350 0.0045977 -0.0004977
v 0.0046254 0.0045000 -0.0006197
v 0.0046254 0.0045977 -0.0006197
v 0.0047817 0.0045000 -0.0007760
v 0.0047817 0.0045977 -0.0007760
v 0.0049038 0.0045000 -0.0009664
v 0.0049038 0.0045977 -0.0009664
v 0.0049770 0.0045000 -0.0011770
v 0.0049770 0.0045977 -0.0011770
v 0.0050014 0.0045000 -0.0014016
v 0.0050014 0.0045977 -0.0014016
v 0.0050014 0.0045977 -0.0014016
v 0.0050014 0.0045000 -0.0014016
v 0.0050014 0.0045977 -0.0054027
v 0.0050014 0.0045000 -0.0093984
v 0.0050014 0.0045977 -0.0093984
v 0.0050014 0.0045000 -0.0093984
v 0.0049770 0.0045000 -0.0096230
v 0.0050014 0.0045977 -0.0093984
v 0.0049770 0.0045977 -0.0096230
v 0.0049038 0.0045000 -0.0098336
v 0.0049038 0.0045977 -0.0098336
v 0.0047817 0.0045000 -0.0100240
v 0.0047817 0.0045977 -0.0100240
v 0.0046254 0.0045000 -0.0101803
v 0.0046254 0.0045977 -0.0101803
v 0.0044350 0.0045000 -0.0103023
v 0.0044350 0.0045977 -0.0103023
v 0.0042244 0.0045000 -0.0103756
v 0.0042244 0.0045977 -0.0103756
v 0.0039998 0.0045000 -0.0104000
v 0.0039998 0.0045977 -0.0104000
v 0.0039998 0.0045977 -0.0104000
v 0.0039998 0.0045000 -0.0104000
v -0.0000013 0.0045977 -0.0104000
v -0.0039969 0.0045000 -0.0104000
v -0.0039969 0.0045977 -0.0104000
v -0.0039969 0.0045000 -0.0104000
v -0.0042216 0.0045000 -0.0103756
v -0.0039969 0.0045977 -0.0104000
v -0.0042216 0.0045977 -0.0103756
v -0.0044321 0.0045000 -0.0103023
v -0.0044321 0.0045977 -0.0103023
v -0.0046226 0.0045000 -0.0101803
v -0.0046226 0.0045977 -0.0101803
v -0.0047788 0.0045000 -0.0100240
v -0.0047788 0.0045977 -0.0100240
v -0.0049009 0.0045000 -0.0098336
v -0.0049009 0.0045977 -0.0098336
v -0.0049742 0.0045000 -0.0096230
v -0.0049742 0.0045977 -0.0096230
v -0.0049986 0.0045000 -0.0093984
v -0.0049986 0.0045977 -0.0093984
v -0.0049986 0.0045977 -0.0093984
v -0.0049986 0.0045000 -0.0093984
v -0.0049986 0.0045977 -0.0054027
v -0.0049986 0.0045000 -0.0014016
v -0.0049986 0.0045977 -0.0014016
v -0.0030008 0.0045977 -0.0016019
v -0.0030252 0.0045977 -0.0013919
v -0.0000013 0.0045977 -0.0004000
v -0.0031082 0.0045977 -0.0012014
v -0.0032352 0.0045977 -0.0010348
v -0.0033963 0.0045977 -0.0009078
v -0.0039969 0.0045977 -0.0004000
v -0.0035916 0.0045977 -0.0008248
v -0.0037967 0.0045977 -0.0008004
v -0.0042216 0.0045977 -0.0004244
v -0.0040067 0.0045977 -0.0008248
v -0.0044321 0.0045977 -0.0004977
v -0.0041971 0.0045977 -0.0009078
v -0.0046226 0.0045977 -0.0006197
v -0.0043638 0.0045977 -0.0010348
v -0.0047788 0.0045977 -0.0007760
v -0.0049009 0.0045977 -0.0009664
v -0.0044907 0.0045977 -0.0012014
v -0.0049742 0.0045977 -0.0011770
v -0.0045737 0.0045977 -0.0013919
v -0.0049986 0.0045977 -0.0014016
v -0.0045982 0.0045977 -0.0016019
v -0.0045737 0.0045977 -0.0018069
v -0.0049986 0.0045977 -0.0054027
v -0.0044907 0.0045977 -0.0020023
v -0.0043638 0.0045977 -0.0021634
v -0.0041971 0.0045977 -0.0022904
v -0.0040067 0.0045977 -0.0023734
v -0.0037967 0.0045977 -0.0084022
v -0.0040067 0.0045977 -0.0084266
v -0.0041971 0.0045977 -0.0085096
v -0.0043638 0.0045977 -0.0086366
v -0.0044907 0.0045977 -0.0087977
v -0.0049986 0.0045977 -0.0093984
v -0.0045737 0.0045977 -0.0089931
v -0.0045982 0.0045977 -0.0091981
v -0.0049742 0.0045977 -0.0096230
v -0.0045737 0.0045977 -0.0094081
v -0.0049009 0.0045977 -0.0098336
v -0.0044907 0.0045977 -0.0095986
v -0.0047788 0.0045977 -0.0100240
v -0.0043638 0.0045977 -0.0097652
v -0.0046226 0.0045977 -0.0101803
v -0.0044321 0.0045977 -0.0103023
v -0.0041971 0.0045977 -0.0098922
v -0.0042216 0.0045977 -0.0103756
v -0.0040067 0.0045977 -0.0099752
v -0.0039969 0.0045977 -0.0104000
v -0.0037967 0.0045977 -0.0099996
v -0.0035916 0.0045977 -0.0099752
v -0.0000013 0.0045977 -0.0104000
v -0.0033963 0.0045977 -0.0098922
v -0.0032352 0.0045977 -0.0097652
v -0.0031082 0.0045977 -0.0095986
v -0.0030252 0.0045977 -0.0094081
v 0.0030036 0.0045977 -0.0091981
v 0.0030280 0.0045977 -0.0094081
v 0.0031110 0.0045977 -0.0095986
v 0.0032380 0.0045977 -0.0097652
v 0.0033992 0.0045977 -0.0098922
v 0.0039998 0.0045977 -0.0104000
v 0.0035945 0.0045977 -0.0099752
v 0.0037996 0.0045977 -0.0099996
v 0.0042244 0.0045977 -0.0103756
v 0.0040095 0.0045977 -0.0099752
v 0.0044350 0.0045977 -0.0103023
v 0.0042000 0.0045977 -0.0098922
v 0.0046254 0.0045977 -0.0101803
v 0.0043666 0.0045977 -0.0097652
v 0.0047817 0.0045977 -0.0100240
v 0.0044936 0.0045977 -0.0095986
v 0.0049038 0.0045977 -0.0098336
v 0.0049770 0.0045977 -0.0096230
v 0.0045766 0.0045977 -0.0094081
v 0.0050014 0.0045977 -0.0093984
v 0.0046010 0.0045977 -0.0091981
v 0.0045766 0.0045977 -0.0089931
v 0.0050014 0.0045977 -0.0054027
v 0.0044936 0.0045977 -0.0087977
v 0.0043666 0.0045977 -0.0086366
v 0.0042000 0.0045977 -0.0085096
v 0.0040095 0.0045977 -0.0084266
v 0.0033747 0.0045977 -0.0054027
v 0.0037996 0.0045977 -0.0084022
v 0.0032868 0.0045977 -0.0061792
v 0.0030183 0.0045977 -0.0069171
v 0.0035945 0.0045977 -0.0084266
v 0.0025879 0.0045977 -0.0075715
v 0.0033992 0.0045977 -0.0085096
v 0.0032380 0.0045977 -0.0086366
v 0.0020166 0.0045977 -0.0081086
v 0.0031110 0.0045977 -0.0087977
v 0.0013373 0.0045977 -0.0084999
v 0.0030280 0.0045977 -0.0089931
v 0.0005853 0.0045977 -0.0087245
v -0.0000013 0.0045977 -0.0087587
v -0.0030008 0.0045977 -0.0091981
v -0.0001966 0.0045977 -0.0087684
v -0.0009682 0.0045977 -0.0086317
v -0.0030252 0.0045977 -0.0089931
v -0.0016866 0.0045977 -0.0083241
v -0.0031082 0.0045977 -0.0087977
v -0.0023165 0.0045977 -0.0078547
v -0.0032352 0.0045977 -0.0086366
v -0.0028195 0.0045977 -0.0072541
v -0.0033963 0.0045977 -0.0085096
v -0.0031717 0.0045977 -0.0065552
v -0.0035916 0.0045977 -0.0084266
v -0.0033524 0.0045977 -0.0057934
v -0.0033524 0.0045977 -0.0054027
v -0.0037967 0.0045977 -0.0023978
v -0.0033524 0.0045977 -0.0050066
v -0.0031717 0.0045977 -0.0042448
v -0.0035916 0.0045977 -0.0023734
v -0.0028195 0.0045977 -0.0035459
v -0.0033963 0.0045977 -0.0022904
v -0.0023165 0.0045977 -0.0029453
v -0.0032352 0.0045977 -0.0021634
v -0.0016866 0.0045977 -0.0024759
v -0.0031082 0.0045977 -0.0020023
v -0.0009682 0.0045977 -0.0021683
v -0.0030252 0.0045977 -0.0018069
v -0.0001966 0.0045977 -0.0020316
v -0.0000013 0.0045977 -0.0020267
v 0.0030280 0.0045977 -0.0013919
v 0.0031110 0.0045977 -0.0012014
v 0.0032380 0.0045977 -0.0010348
v 0.0033992 0.0045977 -0.0009078
v 0.0035945 0.0045977 -0.0008248
v 0.0039998 0.0045977 -0.0004000
v 0.0037996 0.0045977 -0.0008004
v 0.0040095 0.0045977 -0.0008248
v 0.0042244 0.0045977 -0.0004244
v 0.0042000 0.0045977 -0.0009078
v 0.0044350 0.0045977 -0.0004977
v 0.0046254 0.0045977 -0.0006197
v 0.0043666 0.0045977 -0.0010348
v 0.0047817 0.0045977 -0.0007760
v 0.0044936 0.0045977 -0.0012014
v 0.0049038 0.0045977 -0.0009664
v 0.0045766 0.0045977 -0.0013919
v 0.0049770 0.0045977 -0.0011770
v 0.0046010 0.0045977 -0.0016019
v 0.0050014 0.0045977 -0.0014016
v 0.0045766 0.0045977 -0.0018069
v 0.0044936 0.0045977 -0.0020023
v 0.0043666 0.0045977 -0.0021634
v 0.0042000 0.0045977 -0.0022904
v 0.0040095 0.0045977 -0.0023734
v 0.0037996 0.0045977 -0.0023978
v 0.0032868 0.0045977 -0.0046208
v 0.0035945 0.0045977 -0.0023734
v 0.0030183 0.0045977 -0.0038829
v 0.0033992 0.0045977 -0.0022904
v 0.0025879 0.0045977 -0.0032285
v 0.0032380 0.0045977 -0.0021634
v 0.0031110 0.0045977 -0.0020023
v 0.0020166 0.0045977 -0.0026914
v 0.0030280 0.0045977 -0.0018069
v 0.0013373 0.0045977 -0.0023001
v 0.0030036 0.0045977 -0.0016019
v 0.0005853 0.0045977 -0.0020755
f 1476 1477 1478
f 1478 1477 1479
f 1477 1480 1479
f 1479 1480 1481
f 1480 1482 1481
f 1481 1482 1483
f 1482 1484 1483
f 1483 1484 1485
f 1484 1486 1485
f 1485 1486 1487
f 1486 1488 1487
f 1487 1488 1489
f 1488 1490 1489
f 1490 1491 1489
f 1492 1493 1494
f 1493 1495 1494
f 1495 1496 1494
f 1497 1498 1499
f 1499 1498 1500
f 1498 1501 1500
f 1500 1501 1502
f 1501 1503 1502
f 1502 1503 1504
f 1503 1505 1504
f 1504 1505 1506
f 1505 1507 1506
f 1506 1507 1508
f 1507 1509 1508
f 1508 1509 1510
f 1509 1511 1510
f 1511 1512 1510
f 1513 1514 1515
f 1514 1516 1515
f 1516 1517 1515
f 1518 1519 1520
f 1520 1519 1521
f 1519 1522 1521
f 1521 1522 1523
f 1522 1524 1523
f 1523 1524 1525
f 1524 1526 1525
f 1525 1526 1527
f 1526 1528 1527
f 1527 1528 1529
f 1528 1530 1529
f 1529 1530 1531
f 1530 1532 1531
f 1532 1533 1531
f 1534 1535 1536
f 1535 1537 1536
f 1537 1538 1536
f 1539 1540 1541
f 1541 1540 1542
f 1540 1543 1542
f 1542 1543 1544
f 1543 1545 1544
f 1544 1545 1546
f 1545 1547 1546
f 1546 1547 1548
f 1547 1549 1548
f 1548 1549 1550
f 1549 1551 1550
f 1550 1551 1552
f 1551 1553 1552
f 1553 1554 1552
f 1555 1556 1557
f 1556 1558 1557
f 1558 1559 1557
f 1560 1561 1562
f 1561 1563 1562
f 1563 1564 1562
f 1564 1565 1562
f 1562 1565 1566
f 1565 1567 1566
f 1567 1568 1566
f 1566 1568 1569
f 1568 1570 1569
f 1569 1570 1571
f 1570 1572 1571
f 1571 1572 1573
f 1572 1574 1573
f 1573 1574 1575
f 1575 1574 1576
f 1574 1577 1576
f 1576 1577 1578
f 1577 1579 1578
f 1578 1579 1580
f 1579 1581 1580
f 1581 1582 1580
f 1580 1582 1583
f 1582 1584 1583
f 1584 1585 1583
f 1585 1586 1583
f 1586 1587 1583
f 1588 1589 1583
f 1589 1590 1583
f 1590 1591 1583
f 1591 1592 1583
f 1583 1592 1593
f 1592 1594 1593
f 1594 1595 1593
f 1593 1595 1596
f 1595 1597 1596
f 1596 1597 1598
f 1597 1599 1598
f 1598 1599 1600
f 1599 1601 1600
f 1600 1601 1602
f 1602 1601 1603
f 1601 1604 1603
f 1603 1604 1605
f 1604 1606 1605
f 1605 1606 1607
f 1606 1608 1607
f 1608 1609 1607
f 1607 1609 1610
f 1609 1611 1610
f 1611 1612 1610
f 1612 1613 1610
f 1613 1614 1610
f 1615 1616 1610
f 1616 1617 1610
f 1617 1618 1610
f 1618 1619 1610
f 1610 1619 1620
f 1619 1621 1620
f 1621 1622 1620
f 1620 1622 1623
f 1622 1624 1623
f 1623 1624 1625
f 1624 1626 1625
f 1625 1626 1627
f 1626 1628 1627
f 1627 1628 1629
f 1628 1630 1629
f 1629 1630 1631
f 1631 1630 1632
f 1630 1633 1632
f 1632 1633 1634
f 1633 1635 1634
f 1635 1636 1634
f 1634 1636 1637
f 1636 1638 1637
f 1638 1639 1637
f 1639 1640 1637
f 1640 1641 1637
f 1637 1641 1642
f 1641 1643 1642
f 1642 1643 1644
f 1644 1643 1645
f 1643 1646 1645
f 1645 1646 1647
f 1646 1648 1647
f 1648 1649 1647
f 1647 1649 1650
f 1649 1651 1650
f 1650 1651 1652
f 1651 1653 1652
f 1652 1653 1654
f 1653 1615 1654
f 1654 1615 1655
f 1615 1610 1655
f 1610 1614 1655
f 1614 1656 1655
f 1655 1656 1657
f 1657 1656 1658
f 1656 1659 1658
f 1658 1659 1660
f 1659 1661 1660
f 1660 1661 1662
f 1661 1663 1662
f 1662 1663 1664
f 1663 1665 1664
f 1664 1665 1666
f 1665 1667 1666
f 1666 1667 1668
f 1667 1588 1668
f 1668 1588 1669
f 1588 1583 1669
f 1583 1587 1669
f 1587 1670 1669
f 1669 1670 1671
f 1671 1670 1672
f 1670 1673 1672
f 1672 1673 1674
f 1673 1675 1674
f 1674 1675 1676
f 1675 1677 1676
f 1676 1677 1678
f 1677 1679 1678
f 1678 1679 1680
f 1679 1681 1680
f 1680 1681 1682
f 1681 1560 1682
f 1682 1560 1683
f 1560 1562 1683
f 1683 1562 1684
f 1684 1562 1685
f 1685 1562 1686
f 1686 1562 1687
f 1687 1562 1688
f 1562 1689 1688
f 1688 1689 1690
f 1690 1689 1691
f 1689 1692 1691
f 1691 1692 1693
f 1692 1694 1693
f 1694 1695 1693
f 1693 1695 1696
f 1695 1697 1696
f 1696 1697 1698
f 1697 1699 1698
f 1698 1699 1700
f 1699 1701 1700
f 1700 1701 1702
f 1701 1703 1702
f 1702 1703 1704
f 1704 1703 1705
f 1703 1637 1705
f 1705 1637 1706
f 1706 1637 1707
f 1707 1637 1708
f 1708 1637 1709
f 1637 1642 1709
f 1642 1710 1709
f 1709 1710 1711
f 1710 1712 1711
f 1711 1712 1713
f 1712 1714 1713
f 1713 1714 1715
f 1715 1714 1716
f 1714 1717 1716
f 1716 1717 1718
f 1717 1719 1718
f 1718 1719 1720
f 1719 1721 1720
f 1721 1683 1720
f 1683 1684 1720
