# Botball Lab: metres, +Y up, centred XZ, base Y=0
mtllib electronics_007.mtl
s off
v -0.0125000 0.0006000 0.0069000
v -0.0125000 0.0114000 0.0069000
v -0.0125000 0.0114000 -0.0069000
v -0.0125000 0.0006000 -0.0069000
v 0.0125000 0.0006000 -0.0069000
v 0.0125000 0.0114000 -0.0069000
v 0.0125000 0.0114000 0.0069000
v 0.0125000 0.0006000 0.0069000
v -0.0119000 0.0000000 -0.0069000
v 0.0119000 0.0000000 -0.0069000
v 0.0119000 0.0000000 0.0069000
v -0.0119000 0.0000000 0.0069000
v -0.0119000 0.0120000 0.0069000
v 0.0119000 0.0120000 0.0069000
v 0.0119000 0.0120000 -0.0069000
v -0.0119000 0.0120000 -0.0069000
v -0.0119000 0.0114000 -0.0075000
v 0.0119000 0.0114000 -0.0075000
v 0.0119000 0.0006000 -0.0075000
v -0.0119000 0.0006000 -0.0075000
v -0.0119000 0.0006000 0.0075000
v 0.0119000 0.0006000 0.0075000
v 0.0119000 0.0114000 0.0075000
v -0.0119000 0.0114000 0.0075000
v 0.0040000 0.0120000 0.0000000
v 0.0040000 0.0150000 0.0000000
v 0.0039807 0.0150000 0.0003921
v 0.0039807 0.0120000 0.0003921
v 0.0000000 0.0120000 0.0000000
v 0.0000000 0.0150000 0.0000000
v 0.0039231 0.0150000 0.0007804
v 0.0039231 0.0120000 0.0007804
v 0.0038278 0.0150000 0.0011611
v 0.0038278 0.0120000 0.0011611
v 0.0036955 0.0150000 0.0015307
v 0.0036955 0.0120000 0.0015307
v 0.0035277 0.0150000 0.0018856
v 0.0035277 0.0120000 0.0018856
v 0.0033259 0.0150000 0.0022223
v 0.0033259 0.0120000 0.0022223
v 0.0030920 0.0150000 0.0025376
v 0.0030920 0.0120000 0.0025376
v 0.0028284 0.0150000 0.0028284
v 0.0028284 0.0120000 0.0028284
v 0.0025376 0.0150000 0.0030920
v 0.0025376 0.0120000 0.0030920
v 0.0022223 0.0150000 0.0033259
v 0.0022223 0.0120000 0.0033259
v 0.0018856 0.0150000 0.0035277
v 0.0018856 0.0120000 0.0035277
v 0.0015307 0.0150000 0.0036955
v 0.0015307 0.0120000 0.0036955
v 0.0011611 0.0150000 0.0038278
v 0.0011611 0.0120000 0.0038278
v 0.0007804 0.0150000 0.0039231
v 0.0007804 0.0120000 0.0039231
v 0.0003921 0.0150000 0.0039807
v 0.0003921 0.0120000 0.0039807
v 0.0000000 0.0150000 0.0040000
v 0.0000000 0.0120000 0.0040000
v -0.0003921 0.0150000 0.0039807
v -0.0003921 0.0120000 0.0039807
v -0.0007804 0.0150000 0.0039231
v -0.0007804 0.0120000 0.0039231
v -0.0011611 0.0150000 0.0038278
v -0.0011611 0.0120000 0.0038278
v -0.0015307 0.0150000 0.0036955
v -0.0015307 0.0120000 0.0036955
v -0.0018856 0.0150000 0.0035277
v -0.0018856 0.0120000 0.0035277
v -0.0022223 0.0150000 0.0033259
v -0.0022223 0.0120000 0.0033259
v -0.0025376 0.0150000 0.0030920
v -0.0025376 0.0120000 0.0030920
v -0.0028284 0.0150000 0.0028284
v -0.0028284 0.0120000 0.0028284
v -0.0030920 0.0150000 0.0025376
v -0.0030920 0.0120000 0.0025376
v -0.0033259 0.0150000 0.0022223
v -0.0033259 0.0120000 0.0022223
v -0.0035277 0.0150000 0.0018856
v -0.0035277 0.0120000 0.0018856
v -0.0036955 0.0150000 0.0015307
v -0.0036955 0.0120000 0.0015307
v -0.0038278 0.0150000 0.0011611
v -0.0038278 0.0120000 0.0011611
v -0.0039231 0.0150000 0.0007804
v -0.0039231 0.0120000 0.0007804
v -0.0039807 0.0150000 0.0003921
v -0.0039807 0.0120000 0.0003921
v -0.0040000 0.0150000 0.0000000
v -0.0040000 0.0120000 0.0000000
v -0.0039807 0.0150000 -0.0003921
v -0.0039807 0.0120000 -0.0003921
v -0.0039231 0.0150000 -0.0007804
v -0.0039231 0.0120000 -0.0007804
v -0.0038278 0.0150000 -0.0011611
v -0.0038278 0.0120000 -0.0011611
v -0.0036955 0.0150000 -0.0015307
v -0.0036955 0.0120000 -0.0015307
v -0.0035277 0.0150000 -0.0018856
v -0.0035277 0.0120000 -0.0018856
v -0.0033259 0.0150000 -0.0022223
v -0.0033259 0.0120000 -0.0022223
v -0.0030920 0.0150000 -0.0025376
v -0.0030920 0.0120000 -0.0025376
v -0.0028284 0.0150000 -0.0028284
v -0.0028284 0.0120000 -0.0028284
v -0.0025376 0.0150000 -0.0030920
v -0.0025376 0.0120000 -0.0030920
v -0.0022223 0.0150000 -0.0033259
v -0.0022223 0.0120000 -0.0033259
v -0.0018856 0.0150000 -0.0035277
v -0.0018856 0.0120000 -0.0035277
v -0.0015307 0.0150000 -0.0036955
v -0.0015307 0.0120000 -0.0036955
v -0.0011611 0.0150000 -0.0038278
v -0.0011611 0.0120000 -0.0038278
v -0.0007804 0.0150000 -0.0039231
v -0.0007804 0.0120000 -0.0039231
v -0.0003921 0.0150000 -0.0039807
v -0.0003921 0.0120000 -0.0039807
v -0.0000000 0.0150000 -0.0040000
v -0.0000000 0.0120000 -0.0040000
v 0.0003921 0.0150000 -0.0039807
v 0.0003921 0.0120000 -0.0039807
v 0.0007804 0.0150000 -0.0039231
v 0.0007804 0.0120000 -0.0039231
v 0.0011611 0.0150000 -0.0038278
v 0.0011611 0.0120000 -0.0038278
v 0.0015307 0.0150000 -0.0036955
v 0.0015307 0.0120000 -0.0036955
v 0.0018856 0.0150000 -0.0035277
v 0.0018856 0.0120000 -0.0035277
v 0.0022223 0.0150000 -0.0033259
v 0.0022223 0.0120000 -0.0033259
v 0.0025376 0.0150000 -0.0030920
v 0.0025376 0.0120000 -0.0030920
v 0.0028284 0.0150000 -0.0028284
v 0.0028284 0.0120000 -0.0028284
v 0.0030920 0.0150000 -0.0025376
v 0.0030920 0.0120000 -0.0025376
v 0.0033259 0.0150000 -0.0022223
v 0.0033259 0.0120000 -0.0022223
v 0.0035277 0.0150000 -0.0018856
v 0.0035277 0.0120000 -0.0018856
v 0.0036955 0.0150000 -0.0015307
v 0.0036955 0.0120000 -0.0015307
v 0.0038278 0.0150000 -0.0011611
v 0.0038278 0.0120000 -0.0011611
v 0.0039231 0.0150000 -0.0007804
v 0.0039231 0.0120000 -0.0007804
v 0.0039807 0.0150000 -0.0003921
v 0.0039807 0.0120000 -0.0003921
usemtl plastic
vn -0.9984702 -0.0514906 0.0201485
vn -0.9959462 0.0484287 0.0758014
vn -0.9984702 0.0514906 -0.0201485
vn -0.9959462 -0.0484287 -0.0758014
vn 0.9984702 -0.0514906 -0.0201485
vn 0.9959462 0.0484287 -0.0758014
vn 0.9984702 0.0514906 0.0201485
vn 0.9959462 -0.0484287 0.0758014
vn -0.0240674 -0.9994949 -0.0207538
vn 0.0225928 -0.9967029 -0.0779288
vn 0.0240674 -0.9994949 0.0207538
vn -0.0225928 -0.9967029 0.0779288
vn -0.0240674 0.9994949 0.0207538
vn 0.0225928 0.9967029 0.0779288
vn 0.0240674 0.9994949 -0.0207538
vn -0.0225928 0.9967029 -0.0779288
vn -0.0239263 0.0263632 -0.9993661
vn 0.022075 0.0972936 -0.9950109
vn 0.0239263 -0.0263632 -0.9993661
vn -0.022075 -0.0972936 -0.9950109
vn -0.0239263 -0.0263632 0.9993661
vn 0.022075 -0.0972936 0.9950109
vn 0.0239263 0.0263632 0.9993661
vn -0.022075 0.0972936 0.9950109
vn -0.0012525 -0.1006197 -0.9949242
vn 0.0006806 -0.0276789 -0.9996166
vn 0.0010041 -0.9967409 -0.080663
vn -0.000536 -0.9997623 -0.0217961
vn -0.0010041 -0.9967409 0.080663
vn 0.000536 -0.9997623 0.0217961
vn 0.0012525 -0.1006197 0.9949242
vn -0.0006806 -0.0276789 0.9996166
vn -0.0010041 0.9967409 -0.080663
vn 0.000536 0.9997623 -0.0217961
vn 0.0012525 0.1006197 -0.9949242
vn -0.0006806 0.0276789 -0.9996166
vn -0.0012525 0.1006197 0.9949242
vn 0.0006806 0.0276789 0.9996166
vn 0.0010041 0.9967409 0.080663
vn -0.000536 0.9997623 0.0217961
vn -0.9966492 -0.0022099 -0.081765
vn -0.9997478 0.0011803 -0.0224265
vn -0.0252479 0.0006824 -0.999681
vn -0.0259121 -0.0013638 -0.9996633
vn -0.0252479 -0.0006824 0.999681
vn -0.0259121 0.0013638 0.9996633
vn -0.9966492 0.0022099 0.081765
vn -0.9997478 -0.0011803 0.0224265
vn 0.0252479 -0.0006824 -0.999681
vn 0.0259121 0.0013638 -0.9996633
vn 0.9966492 0.0022099 -0.081765
vn 0.9997478 -0.0011803 -0.0224265
vn 0.9966492 -0.0022099 0.081765
vn 0.9997478 0.0011803 0.0224265
vn 0.0252479 0.0006824 0.999681
vn 0.0259121 -0.0013638 0.9996633
vn -0.0251034 -0.9996847 -0.0005341
vn -0.0256235 -0.9996711 0.0010676
vn -0.9985599 -0.0536369 0.0011412
vn -0.9984996 -0.0547123 -0.0022797
vn -0.9985599 0.0536369 -0.0011412
vn -0.9984996 0.0547123 0.0022797
vn -0.0251034 0.9996847 0.0005341
vn -0.0256235 0.9996711 -0.0010676
vn 0.9985599 -0.0536369 -0.0011412
vn 0.9984996 -0.0547123 0.0022797
vn 0.0251034 -0.9996847 0.0005341
vn 0.0256235 -0.9996711 -0.0010676
vn 0.0251034 0.9996847 -0.0005341
vn 0.0256235 0.9996711 0.0010676
vn 0.9985599 0.0536369 0.0011412
vn 0.9984996 0.0547123 -0.0022797
vn -0.1479871 -0.6256997 -0.765898
vn -0.4407003 -0.8126389 -0.3813152
vn -0.8057503 -0.3223001 -0.4968794
vn -0.7885307 -0.5701684 0.2304936
vn -0.1803583 -0.7765425 0.6036992
vn -0.392187 -0.4310524 0.8126397
vn -0.7885307 0.5701684 -0.2304936
vn -0.1803583 0.7765425 -0.6036992
vn -0.392187 0.4310524 -0.8126397
vn -0.1479871 0.6256997 0.765898
vn -0.4407003 0.8126389 0.3813152
vn -0.8057503 0.3223001 0.4968794
vn 0.7885307 -0.5701684 -0.2304936
vn 0.1803583 -0.7765425 -0.6036992
vn 0.392187 -0.4310524 -0.8126397
vn 0.1479871 -0.6256997 0.765898
vn 0.4407003 -0.8126389 0.3813152
vn 0.8057503 -0.3223001 0.4968794
vn 0.1479871 0.6256997 -0.765898
vn 0.4407003 0.8126389 -0.3813152
vn 0.8057503 0.3223001 -0.4968794
vn 0.7885307 0.5701684 0.2304936
vn 0.1803583 0.7765425 0.6036992
vn 0.392187 0.4310524 0.8126397
vn 0.9998654 0.0 0.0164052
vn 0.9998654 0.0 -0.0164052
vn 0.9966511 0.0 0.0817721
vn 0.9934428 0.0 0.1143305
vn 0.0 1.0 0.0
vn 0.0 -1.0 0.0
vn 0.9838577 0.0 0.1789528
vn 0.9774815 0.0 0.2110211
vn 0.9615785 0.0 0.2745302
vn 0.9520454 0.0 0.3059569
vn 0.9300046 0.0 0.3675478
vn 0.917506 0.0 0.3977219
vn 0.8895642 0.0 0.4568101
vn 0.8741132 0.0 0.4857223
vn 0.8404403 0.0 0.5419042
vn 0.8222197 0.0 0.5691702
vn 0.783235 0.0 0.6217257
vn 0.7624697 0.0 0.6470239
vn 0.7185747 0.0 0.6954498
vn 0.6954498 0.0 0.7185747
vn 0.6470239 0.0 0.7624697
vn 0.6217257 0.0 0.783235
vn 0.5691702 0.0 0.8222197
vn 0.5419042 0.0 0.8404403
vn 0.4857223 0.0 0.8741132
vn 0.4568101 0.0 0.8895642
vn 0.3977219 0.0 0.917506
vn 0.3675478 0.0 0.9300046
vn 0.3059569 0.0 0.9520454
vn 0.2745302 0.0 0.9615785
vn 0.2110211 0.0 0.9774815
vn 0.1789528 0.0 0.9838577
vn 0.1143305 0.0 0.9934428
vn 0.0817721 0.0 0.9966511
vn 0.0164052 0.0 0.9998654
vn -0.0164052 0.0 0.9998654
vn -0.0817721 0.0 0.9966511
vn -0.1143305 0.0 0.9934428
vn -0.1789528 0.0 0.9838577
vn -0.2110211 0.0 0.9774815
vn -0.2745302 0.0 0.9615785
vn -0.3059569 0.0 0.9520454
vn -0.3675478 0.0 0.9300046
vn -0.3977219 0.0 0.917506
vn -0.4568101 0.0 0.8895642
vn -0.4857223 0.0 0.8741132
vn -0.5419042 0.0 0.8404403
vn -0.5691702 0.0 0.8222197
vn -0.6217257 0.0 0.783235
vn -0.6470239 0.0 0.7624697
vn -0.6954498 0.0 0.7185747
vn -0.7185747 0.0 0.6954498
vn -0.7624697 0.0 0.6470239
vn -0.783235 0.0 0.6217257
vn -0.8222197 0.0 0.5691702
vn -0.8404403 0.0 0.5419042
vn -0.8741132 0.0 0.4857223
vn -0.8895642 0.0 0.4568101
vn -0.917506 0.0 0.3977219
vn -0.9300046 0.0 0.3675478
vn -0.9520454 0.0 0.3059569
vn -0.9615785 0.0 0.2745302
vn -0.9774815 0.0 0.2110211
vn -0.9838577 0.0 0.1789528
vn -0.9934428 0.0 0.1143305
vn -0.9966511 0.0 0.0817721
vn -0.9998654 0.0 0.0164052
vn -0.9998654 0.0 -0.0164052
vn -0.9966511 0.0 -0.0817721
vn -0.9934428 0.0 -0.1143305
vn -0.9838577 0.0 -0.1789528
vn -0.9774815 0.0 -0.2110211
vn -0.9615785 0.0 -0.2745302
vn -0.9520454 0.0 -0.3059569
vn -0.9300046 0.0 -0.3675478
vn -0.917506 0.0 -0.3977219
vn -0.8895642 0.0 -0.4568101
vn -0.8741132 0.0 -0.4857223
vn -0.8404403 0.0 -0.5419042
vn -0.8222197 0.0 -0.5691702
vn -0.783235 0.0 -0.6217257
vn -0.7624697 0.0 -0.6470239
vn -0.7185747 0.0 -0.6954498
vn -0.6954498 0.0 -0.7185747
vn -0.6470239 0.0 -0.7624697
vn -0.6217257 0.0 -0.783235
vn -0.5691702 0.0 -0.8222197
vn -0.5419042 0.0 -0.8404403
vn -0.4857223 0.0 -0.8741132
vn -0.4568101 0.0 -0.8895642
vn -0.3977219 0.0 -0.917506
vn -0.3675478 0.0 -0.9300046
vn -0.3059569 0.0 -0.9520454
vn -0.2745302 0.0 -0.9615785
vn -0.2110211 0.0 -0.9774815
vn -0.1789528 0.0 -0.9838577
vn -0.1143305 0.0 -0.9934428
vn -0.0817721 0.0 -0.9966511
vn -0.0164052 0.0 -0.9998654
vn 0.0164052 0.0 -0.9998654
vn 0.0817721 0.0 -0.9966511
vn 0.1143305 0.0 -0.9934428
vn 0.1789528 0.0 -0.9838577
vn 0.2110211 0.0 -0.9774815
vn 0.2745302 0.0 -0.9615785
vn 0.3059569 0.0 -0.9520454
vn 0.3675478 0.0 -0.9300046
vn 0.3977219 0.0 -0.917506
vn 0.4568101 0.0 -0.8895642
vn 0.4857223 0.0 -0.8741132
vn 0.5419042 0.0 -0.8404403
vn 0.5691702 0.0 -0.8222197
vn 0.6217257 0.0 -0.783235
vn 0.6470239 0.0 -0.7624697
vn 0.6954498 0.0 -0.7185747
vn 0.7185747 0.0 -0.6954498
vn 0.7624697 0.0 -0.6470239
vn 0.783235 0.0 -0.6217257
vn 0.8222197 0.0 -0.5691702
vn 0.8404403 0.0 -0.5419042
vn 0.8741132 0.0 -0.4857223
vn 0.8895642 0.0 -0.4568101
vn 0.917506 0.0 -0.3977219
vn 0.9300046 0.0 -0.3675478
vn 0.9520454 0.0 -0.3059569
vn 0.9615785 0.0 -0.2745302
vn 0.9774815 0.0 -0.2110211
vn 0.9838577 0.0 -0.1789528
vn 0.9934428 0.0 -0.1143305
vn 0.9966511 0.0 -0.0817721
f 1//1 2//2 3//3
f 1//1 3//3 4//4
f 5//5 6//6 7//7
f 5//5 7//7 8//8
f 9//9 10//10 11//11
f 9//9 11//11 12//12
f 13//13 14//14 15//15
f 13//13 15//15 16//16
f 17//17 18//18 19//19
f 17//17 19//19 20//20
f 21//21 22//22 23//23
f 21//21 23//23 24//24
f 20//25 19//26 10//27
f 20//25 10//27 9//28
f 12//29 11//30 22//31
f 12//29 22//31 21//32
f 16//33 15//34 18//35
f 16//33 18//35 17//36
f 24//37 23//38 14//39
f 24//37 14//39 13//40
f 4//41 3//42 17//43
f 4//41 17//43 20//44
f 21//45 24//46 2//47
f 21//45 2//47 1//48
f 19//49 18//50 6//51
f 19//49 6//51 5//52
f 8//53 7//54 23//55
f 8//53 23//55 22//56
f 9//57 12//58 1//59
f 9//57 1//59 4//60
f 3//61 2//62 13//63
f 3//61 13//63 16//64
f 5//65 8//66 11//67
f 5//65 11//67 10//68
f 15//69 14//70 7//71
f 15//69 7//71 6//72
f 20//73 9//74 4//75
f 1//76 12//77 21//78
f 3//79 16//80 17//81
f 24//82 13//83 2//84
f 5//85 10//86 19//87
f 22//88 11//89 8//90
f 18//91 15//92 6//93
f 7//94 14//95 23//96
f 25//97 26//98 27//99
f 25//97 27//99 28//100
f 26//101 30//101 27//101
f 25//102 28//102 29//102
f 28//100 27//99 31//103
f 28//100 31//103 32//104
f 27//101 30//101 31//101
f 28//102 32//102 29//102
f 32//104 31//103 33//105
f 32//104 33//105 34//106
f 31//101 30//101 33//101
f 32//102 34//102 29//102
f 34//106 33//105 35//107
f 34//106 35//107 36//108
f 33//101 30//101 35//101
f 34//102 36//102 29//102
f 36//108 35//107 37//109
f 36//108 37//109 38//110
f 35//101 30//101 37//101
f 36//102 38//102 29//102
f 38//110 37//109 39//111
f 38//110 39//111 40//112
f 37//101 30//101 39//101
f 38//102 40//102 29//102
f 40//112 39//111 41//113
f 40//112 41//113 42//114
f 39//101 30//101 41//101
f 40//102 42//102 29//102
f 42//114 41//113 43//115
f 42//114 43//115 44//116
f 41//101 30//101 43//101
f 42//102 44//102 29//102
f 44//116 43//115 45//117
f 44//116 45//117 46//118
f 43//101 30//101 45//101
f 44//102 46//102 29//102
f 46//118 45//117 47//119
f 46//118 47//119 48//120
f 45//101 30//101 47//101
f 46//102 48//102 29//102
f 48//120 47//119 49//121
f 48//120 49//121 50//122
f 47//101 30//101 49//101
f 48//102 50//102 29//102
f 50//122 49//121 51//123
f 50//122 51//123 52//124
f 49//101 30//101 51//101
f 50//102 52//102 29//102
f 52//124 51//123 53//125
f 52//124 53//125 54//126
f 51//101 30//101 53//101
f 52//102 54//102 29//102
f 54//126 53//125 55//127
f 54//126 55//127 56//128
f 53//101 30//101 55//101
f 54//102 56//102 29//102
f 56//128 55//127 57//129
f 56//128 57//129 58//130
f 55//101 30//101 57//101
f 56//102 58//102 29//102
f 58//130 57//129 59//131
f 58//130 59//131 60//132
f 57//101 30//101 59//101
f 58//102 60//102 29//102
f 60//132 59//131 61//133
f 60//132 61//133 62//134
f 59//101 30//101 61//101
f 60//102 62//102 29//102
f 62//134 61//133 63//135
f 62//134 63//135 64//136
f 61//101 30//101 63//101
f 62//102 64//102 29//102
f 64//136 63//135 65//137
f 64//136 65//137 66//138
f 63//101 30//101 65//101
f 64//102 66//102 29//102
f 66//138 65//137 67//139
f 66//138 67//139 68//140
f 65//101 30//101 67//101
f 66//102 68//102 29//102
f 68//140 67//139 69//141
f 68//140 69//141 70//142
f 67//101 30//101 69//101
f 68//102 70//102 29//102
f 70//142 69//141 71//143
f 70//142 71//143 72//144
f 69//101 30//101 71//101
f 70//102 72//102 29//102
f 72//144 71//143 73//145
f 72//144 73//145 74//146
f 71//101 30//101 73//101
f 72//102 74//102 29//102
f 74//146 73//145 75//147
f 74//146 75//147 76//148
f 73//101 30//101 75//101
f 74//102 76//102 29//102
f 76//148 75//147 77//149
f 76//148 77//149 78//150
f 75//101 30//101 77//101
f 76//102 78//102 29//102
f 78//150 77//149 79//151
f 78//150 79//151 80//152
f 77//101 30//101 79//101
f 78//102 80//102 29//102
f 80//152 79//151 81//153
f 80//152 81//153 82//154
f 79//101 30//101 81//101
f 80//102 82//102 29//102
f 82//154 81//153 83//155
f 82//154 83//155 84//156
f 81//101 30//101 83//101
f 82//102 84//102 29//102
f 84//156 83//155 85//157
f 84//156 85//157 86//158
f 83//101 30//101 85//101
f 84//102 86//102 29//102
f 86//158 85//157 87//159
f 86//158 87//159 88//160
f 85//101 30//101 87//101
f 86//102 88//102 29//102
f 88//160 87//159 89//161
f 88//160 89//161 90//162
f 87//101 30//101 89//101
f 88//102 90//102 29//102
f 90//162 89//161 91//163
f 90//162 91//163 92//164
f 89//101 30//101 91//101
f 90//102 92//102 29//102
f 92//164 91//163 93//165
f 92//164 93//165 94//166
f 91//101 30//101 93//101
f 92//102 94//102 29//102
f 94//166 93//165 95//167
f 94//166 95//167 96//168
f 93//101 30//101 95//101
f 94//102 96//102 29//102
f 96//168 95//167 97//169
f 96//168 97//169 98//170
f 95//101 30//101 97//101
f 96//102 98//102 29//102
f 98//170 97//169 99//171
f 98//170 99//171 100//172
f 97//101 30//101 99//101
f 98//102 100//102 29//102
f 100//172 99//171 101//173
f 100//172 101//173 102//174
f 99//101 30//101 101//101
f 100//102 102//102 29//102
f 102//174 101//173 103//175
f 102//174 103//175 104//176
f 101//101 30//101 103//101
f 102//102 104//102 29//102
f 104//176 103//175 105//177
f 104//176 105//177 106//178
f 103//101 30//101 105//101
f 104//102 106//102 29//102
f 106//178 105//177 107//179
f 106//178 107//179 108//180
f 105//101 30//101 107//101
f 106//102 108//102 29//102
f 108//180 107//179 109//181
f 108//180 109//181 110//182
f 107//101 30//101 109//101
f 108//102 110//102 29//102
f 110//182 109//181 111//183
f 110//182 111//183 112//184
f 109//101 30//101 111//101
f 110//102 112//102 29//102
f 112//184 111//183 113//185
f 112//184 113//185 114//186
f 111//101 30//101 113//101
f 112//102 114//102 29//102
f 114//186 113//185 115//187
f 114//186 115//187 116//188
f 113//101 30//101 115//101
f 114//102 116//102 29//102
f 116//188 115//187 117//189
f 116//188 117//189 118//190
f 115//101 30//101 117//101
f 116//102 118//102 29//102
f 118//190 117//189 119//191
f 118//190 119//191 120//192
f 117//101 30//101 119//101
f 118//102 120//102 29//102
f 120//192 119//191 121//193
f 120//192 121//193 122//194
f 119//101 30//101 121//101
f 120//102 122//102 29//102
f 122//194 121//193 123//195
f 122//194 123//195 124//196
f 121//101 30//101 123//101
f 122//102 124//102 29//102
f 124//196 123//195 125//197
f 124//196 125//197 126//198
f 123//101 30//101 125//101
f 124//102 126//102 29//102
f 126//198 125//197 127//199
f 126//198 127//199 128//200
f 125//101 30//101 127//101
f 126//102 128//102 29//102
f 128//200 127//199 129//201
f 128//200 129//201 130//202
f 127//101 30//101 129//101
f 128//102 130//102 29//102
f 130//202 129//201 131//203
f 130//202 131//203 132//204
f 129//101 30//101 131//101
f 130//102 132//102 29//102
f 132//204 131//203 133//205
f 132//204 133//205 134//206
f 131//101 30//101 133//101
f 132//102 134//102 29//102
f 134//206 133//205 135//207
f 134//206 135//207 136//208
f 133//101 30//101 135//101
f 134//102 136//102 29//102
f 136//208 135//207 137//209
f 136//208 137//209 138//210
f 135//101 30//101 137//101
f 136//102 138//102 29//102
f 138//210 137//209 139//211
f 138//210 139//211 140//212
f 137//101 30//101 139//101
f 138//102 140//102 29//102
f 140//212 139//211 141//213
f 140//212 141//213 142//214
f 139//101 30//101 141//101
f 140//102 142//102 29//102
f 142//214 141//213 143//215
f 142//214 143//215 144//216
f 141//101 30//101 143//101
f 142//102 144//102 29//102
f 144//216 143//215 145//217
f 144//216 145//217 146//218
f 143//101 30//101 145//101
f 144//102 146//102 29//102
f 146//218 145//217 147//219
f 146//218 147//219 148//220
f 145//101 30//101 147//101
f 146//102 148//102 29//102
f 148//220 147//219 149//221
f 148//220 149//221 150//222
f 147//101 30//101 149//101
f 148//102 150//102 29//102
f 150//222 149//221 151//223
f 150//222 151//223 152//224
f 149//101 30//101 151//101
f 150//102 152//102 29//102
f 152//224 151//223 153//225
f 152//224 153//225 154//226
f 151//101 30//101 153//101
f 152//102 154//102 29//102
f 154//226 153//225 26//98
f 154//226 26//98 25//97
f 153//101 30//101 26//101
f 154//102 25//102 29//102
