# Botball Lab: metres, +Y up, centred XZ, base Y=0
mtllib electronics_019.mtl
s off
v 0.0500000 0.0025000 0.0000000
v 0.0500000 0.0255000 0.0000000
v 0.0497592 0.0255000 0.0049009
v 0.0497592 0.0025000 0.0049009
v 0.0040000 0.0025000 0.0000000
v 0.0039807 0.0025000 0.0003921
v 0.0039807 0.0255000 0.0003921
v 0.0040000 0.0255000 0.0000000
v 0.0490393 0.0255000 0.0097545
v 0.0490393 0.0025000 0.0097545
v 0.0039231 0.0025000 0.0007804
v 0.0039231 0.0255000 0.0007804
v 0.0478470 0.0255000 0.0145142
v 0.0478470 0.0025000 0.0145142
v 0.0038278 0.0025000 0.0011611
v 0.0038278 0.0255000 0.0011611
v 0.0461940 0.0255000 0.0191342
v 0.0461940 0.0025000 0.0191342
v 0.0036955 0.0025000 0.0015307
v 0.0036955 0.0255000 0.0015307
v 0.0440961 0.0255000 0.0235698
v 0.0440961 0.0025000 0.0235698
v 0.0035277 0.0025000 0.0018856
v 0.0035277 0.0255000 0.0018856
v 0.0415735 0.0255000 0.0277785
v 0.0415735 0.0025000 0.0277785
v 0.0033259 0.0025000 0.0022223
v 0.0033259 0.0255000 0.0022223
v 0.0386505 0.0255000 0.0317197
v 0.0386505 0.0025000 0.0317197
v 0.0030920 0.0025000 0.0025376
v 0.0030920 0.0255000 0.0025376
v 0.0353553 0.0255000 0.0353553
v 0.0353553 0.0025000 0.0353553
v 0.0028284 0.0025000 0.0028284
v 0.0028284 0.0255000 0.0028284
v 0.0317197 0.0255000 0.0386505
v 0.0317197 0.0025000 0.0386505
v 0.0025376 0.0025000 0.0030920
v 0.0025376 0.0255000 0.0030920
v 0.0277785 0.0255000 0.0415735
v 0.0277785 0.0025000 0.0415735
v 0.0022223 0.0025000 0.0033259
v 0.0022223 0.0255000 0.0033259
v 0.0235698 0.0255000 0.0440961
v 0.0235698 0.0025000 0.0440961
v 0.0018856 0.0025000 0.0035277
v 0.0018856 0.0255000 0.0035277
v 0.0191342 0.0255000 0.0461940
v 0.0191342 0.0025000 0.0461940
v 0.0015307 0.0025000 0.0036955
v 0.0015307 0.0255000 0.0036955
v 0.0145142 0.0255000 0.0478470
v 0.0145142 0.0025000 0.0478470
v 0.0011611 0.0025000 0.0038278
v 0.0011611 0.0255000 0.0038278
v 0.0097545 0.0255000 0.0490393
v 0.0097545 0.0025000 0.0490393
v 0.0007804 0.0025000 0.0039231
v 0.0007804 0.0255000 0.0039231
v 0.0049009 0.0255000 0.0497592
v 0.0049009 0.0025000 0.0497592
v 0.0003921 0.0025000 0.0039807
v 0.0003921 0.0255000 0.0039807
v 0.0000000 0.0255000 0.0500000
v 0.0000000 0.0025000 0.0500000
v 0.0000000 0.0025000 0.0040000
v 0.0000000 0.0255000 0.0040000
v -0.0049009 0.0255000 0.0497592
v -0.0049009 0.0025000 0.0497592
v -0.0003921 0.0025000 0.0039807
v -0.0003921 0.0255000 0.0039807
v -0.0097545 0.0255000 0.0490393
v -0.0097545 0.0025000 0.0490393
v -0.0007804 0.0025000 0.0039231
v -0.0007804 0.0255000 0.0039231
v -0.0145142 0.0255000 0.0478470
v -0.0145142 0.0025000 0.0478470
v -0.0011611 0.0025000 0.0038278
v -0.0011611 0.0255000 0.0038278
v -0.0191342 0.0255000 0.0461940
v -0.0191342 0.0025000 0.0461940
v -0.0015307 0.0025000 0.0036955
v -0.0015307 0.0255000 0.0036955
v -0.0235698 0.0255000 0.0440961
v -0.0235698 0.0025000 0.0440961
v -0.0018856 0.0025000 0.0035277
v -0.0018856 0.0255000 0.0035277
v -0.0277785 0.0255000 0.0415735
v -0.0277785 0.0025000 0.0415735
v -0.0022223 0.0025000 0.0033259
v -0.0022223 0.0255000 0.0033259
v -0.0317197 0.0255000 0.0386505
v -0.0317197 0.0025000 0.0386505
v -0.0025376 0.0025000 0.0030920
v -0.0025376 0.0255000 0.0030920
v -0.0353553 0.0255000 0.0353553
v -0.0353553 0.0025000 0.0353553
v -0.0028284 0.0025000 0.0028284
v -0.0028284 0.0255000 0.0028284
v -0.0386505 0.0255000 0.0317197
v -0.0386505 0.0025000 0.0317197
v -0.0030920 0.0025000 0.0025376
v -0.0030920 0.0255000 0.0025376
v -0.0415735 0.0255000 0.0277785
v -0.0415735 0.0025000 0.0277785
v -0.0033259 0.0025000 0.0022223
v -0.0033259 0.0255000 0.0022223
v -0.0440961 0.0255000 0.0235698
v -0.0440961 0.0025000 0.0235698
v -0.0035277 0.0025000 0.0018856
v -0.0035277 0.0255000 0.0018856
v -0.0461940 0.0255000 0.0191342
v -0.0461940 0.0025000 0.0191342
v -0.0036955 0.0025000 0.0015307
v -0.0036955 0.0255000 0.0015307
v -0.0478470 0.0255000 0.0145142
v -0.0478470 0.0025000 0.0145142
v -0.0038278 0.0025000 0.0011611
v -0.0038278 0.0255000 0.0011611
v -0.0490393 0.0255000 0.0097545
v -0.0490393 0.0025000 0.0097545
v -0.0039231 0.0025000 0.0007804
v -0.0039231 0.0255000 0.0007804
v -0.0497592 0.0255000 0.0049009
v -0.0497592 0.0025000 0.0049009
v -0.0039807 0.0025000 0.0003921
v -0.0039807 0.0255000 0.0003921
v -0.0500000 0.0255000 0.0000000
v -0.0500000 0.0025000 0.0000000
v -0.0040000 0.0025000 0.0000000
v -0.0040000 0.0255000 0.0000000
v -0.0497592 0.0255000 -0.0049009
v -0.0497592 0.0025000 -0.0049009
v -0.0039807 0.0025000 -0.0003921
v -0.0039807 0.0255000 -0.0003921
v -0.0490393 0.0255000 -0.0097545
v -0.0490393 0.0025000 -0.0097545
v -0.0039231 0.0025000 -0.0007804
v -0.0039231 0.0255000 -0.0007804
v -0.0478470 0.0255000 -0.0145142
v -0.0478470 0.0025000 -0.0145142
v -0.0038278 0.0025000 -0.0011611
v -0.0038278 0.0255000 -0.0011611
v -0.0461940 0.0255000 -0.0191342
v -0.0461940 0.0025000 -0.0191342
v -0.0036955 0.0025000 -0.0015307
v -0.0036955 0.0255000 -0.0015307
v -0.0440961 0.0255000 -0.0235698
v -0.0440961 0.0025000 -0.0235698
v -0.0035277 0.0025000 -0.0018856
v -0.0035277 0.0255000 -0.0018856
v -0.0415735 0.0255000 -0.0277785
v -0.0415735 0.0025000 -0.0277785
v -0.0033259 0.0025000 -0.0022223
v -0.0033259 0.0255000 -0.0022223
v -0.0386505 0.0255000 -0.0317197
v -0.0386505 0.0025000 -0.0317197
v -0.0030920 0.0025000 -0.0025376
v -0.0030920 0.0255000 -0.0025376
v -0.0353553 0.0255000 -0.0353553
v -0.0353553 0.0025000 -0.0353553
v -0.0028284 0.0025000 -0.0028284
v -0.0028284 0.0255000 -0.0028284
v -0.0317197 0.0255000 -0.0386505
v -0.0317197 0.0025000 -0.0386505
v -0.0025376 0.0025000 -0.0030920
v -0.0025376 0.0255000 -0.0030920
v -0.0277785 0.0255000 -0.0415735
v -0.0277785 0.0025000 -0.0415735
v -0.0022223 0.0025000 -0.0033259
v -0.0022223 0.0255000 -0.0033259
v -0.0235698 0.0255000 -0.0440961
v -0.0235698 0.0025000 -0.0440961
v -0.0018856 0.0025000 -0.0035277
v -0.0018856 0.0255000 -0.0035277
v -0.0191342 0.0255000 -0.0461940
v -0.0191342 0.0025000 -0.0461940
v -0.0015307 0.0025000 -0.0036955
v -0.0015307 0.0255000 -0.0036955
v -0.0145142 0.0255000 -0.0478470
v -0.0145142 0.0025000 -0.0478470
v -0.0011611 0.0025000 -0.0038278
v -0.0011611 0.0255000 -0.0038278
v -0.0097545 0.0255000 -0.0490393
v -0.0097545 0.0025000 -0.0490393
v -0.0007804 0.0025000 -0.0039231
v -0.0007804 0.0255000 -0.0039231
v -0.0049009 0.0255000 -0.0497592
v -0.0049009 0.0025000 -0.0497592
v -0.0003921 0.0025000 -0.0039807
v -0.0003921 0.0255000 -0.0039807
v -0.0000000 0.0255000 -0.0500000
v -0.0000000 0.0025000 -0.0500000
v -0.0000000 0.0025000 -0.0040000
v -0.0000000 0.0255000 -0.0040000
v 0.0049009 0.0255000 -0.0497592
v 0.0049009 0.0025000 -0.0497592
v 0.0003921 0.0025000 -0.0039807
v 0.0003921 0.0255000 -0.0039807
v 0.0097545 0.0255000 -0.0490393
v 0.0097545 0.0025000 -0.0490393
v 0.0007804 0.0025000 -0.0039231
v 0.0007804 0.0255000 -0.0039231
v 0.0145142 0.0255000 -0.0478470
v 0.0145142 0.0025000 -0.0478470
v 0.0011611 0.0025000 -0.0038278
v 0.0011611 0.0255000 -0.0038278
v 0.0191342 0.0255000 -0.0461940
v 0.0191342 0.0025000 -0.0461940
v 0.0015307 0.0025000 -0.0036955
v 0.0015307 0.0255000 -0.0036955
v 0.0235698 0.0255000 -0.0440961
v 0.0235698 0.0025000 -0.0440961
v 0.0018856 0.0025000 -0.0035277
v 0.0018856 0.0255000 -0.0035277
v 0.0277785 0.0255000 -0.0415735
v 0.0277785 0.0025000 -0.0415735
v 0.0022223 0.0025000 -0.0033259
v 0.0022223 0.0255000 -0.0033259
v 0.0317197 0.0255000 -0.0386505
v 0.0317197 0.0025000 -0.0386505
v 0.0025376 0.0025000 -0.0030920
v 0.0025376 0.0255000 -0.0030920
v 0.0353553 0.0255000 -0.0353553
v 0.0353553 0.0025000 -0.0353553
v 0.0028284 0.0025000 -0.0028284
v 0.0028284 0.0255000 -0.0028284
v 0.0386505 0.0255000 -0.0317197
v 0.0386505 0.0025000 -0.0317197
v 0.0030920 0.0025000 -0.0025376
v 0.0030920 0.0255000 -0.0025376
v 0.0415735 0.0255000 -0.0277785
v 0.0415735 0.0025000 -0.0277785
v 0.0033259 0.0025000 -0.0022223
v 0.0033259 0.0255000 -0.0022223
v 0.0440961 0.0255000 -0.0235698
v 0.0440961 0.0025000 -0.0235698
v 0.0035277 0.0025000 -0.0018856
v 0.0035277 0.0255000 -0.0018856
v 0.0461940 0.0255000 -0.0191342
v 0.0461940 0.0025000 -0.0191342
v 0.0036955 0.0025000 -0.0015307
v 0.0036955 0.0255000 -0.0015307
v 0.0478470 0.0255000 -0.0145142
v 0.0478470 0.0025000 -0.0145142
v 0.0038278 0.0025000 -0.0011611
v 0.0038278 0.0255000 -0.0011611
v 0.0490393 0.0255000 -0.0097545
v 0.0490393 0.0025000 -0.0097545
v 0.0039231 0.0025000 -0.0007804
v 0.0039231 0.0255000 -0.0007804
v 0.0497592 0.0255000 -0.0049009
v 0.0497592 0.0025000 -0.0049009
v 0.0039807 0.0025000 -0.0003921
v 0.0039807 0.0255000 -0.0003921
v 0.0580000 0.0000000 0.0000000
v 0.0580000 0.0280000 0.0000000
v 0.0566603 0.0280000 0.0050000
v 0.0566603 0.0000000 0.0050000
v 0.0480000 0.0000000 0.0000000
v 0.0480000 0.0280000 0.0000000
v 0.0530000 0.0280000 0.0086603
v 0.0530000 0.0000000 0.0086603
v 0.0480000 0.0280000 0.0100000
v 0.0480000 0.0000000 0.0100000
v 0.0430000 0.0280000 0.0086603
v 0.0430000 0.0000000 0.0086603
v 0.0393397 0.0280000 0.0050000
v 0.0393397 0.0000000 0.0050000
v 0.0380000 0.0280000 0.0000000
v 0.0380000 0.0000000 0.0000000
v 0.0393397 0.0280000 -0.0050000
v 0.0393397 0.0000000 -0.0050000
v 0.0430000 0.0280000 -0.0086603
v 0.0430000 0.0000000 -0.0086603
v 0.0480000 0.0280000 -0.0100000
v 0.0480000 0.0000000 -0.0100000
v 0.0530000 0.0280000 -0.0086603
v 0.0530000 0.0000000 -0.0086603
v 0.0566603 0.0280000 -0.0050000
v 0.0566603 0.0000000 -0.0050000
v 0.0439411 0.0000000 0.0339411
v 0.0439411 0.0280000 0.0339411
v 0.0426014 0.0280000 0.0389411
v 0.0426014 0.0000000 0.0389411
v 0.0339411 0.0000000 0.0339411
v 0.0339411 0.0280000 0.0339411
v 0.0389411 0.0280000 0.0426014
v 0.0389411 0.0000000 0.0426014
v 0.0339411 0.0280000 0.0439411
v 0.0339411 0.0000000 0.0439411
v 0.0289411 0.0280000 0.0426014
v 0.0289411 0.0000000 0.0426014
v 0.0252809 0.0280000 0.0389411
v 0.0252809 0.0000000 0.0389411
v 0.0239411 0.0280000 0.0339411
v 0.0239411 0.0000000 0.0339411
v 0.0252809 0.0280000 0.0289411
v 0.0252809 0.0000000 0.0289411
v 0.0289411 0.0280000 0.0252809
v 0.0289411 0.0000000 0.0252809
v 0.0339411 0.0280000 0.0239411
v 0.0339411 0.0000000 0.0239411
v 0.0389411 0.0280000 0.0252809
v 0.0389411 0.0000000 0.0252809
v 0.0426014 0.0280000 0.0289411
v 0.0426014 0.0000000 0.0289411
v 0.0100000 0.0000000 0.0480000
v 0.0100000 0.0280000 0.0480000
v 0.0086603 0.0280000 0.0530000
v 0.0086603 0.0000000 0.0530000
v 0.0000000 0.0000000 0.0480000
v 0.0000000 0.0280000 0.0480000
v 0.0050000 0.0280000 0.0566603
v 0.0050000 0.0000000 0.0566603
v 0.0000000 0.0280000 0.0580000
v 0.0000000 0.0000000 0.0580000
v -0.0050000 0.0280000 0.0566603
v -0.0050000 0.0000000 0.0566603
v -0.0086603 0.0280000 0.0530000
v -0.0086603 0.0000000 0.0530000
v -0.0100000 0.0280000 0.0480000
v -0.0100000 0.0000000 0.0480000
v -0.0086603 0.0280000 0.0430000
v -0.0086603 0.0000000 0.0430000
v -0.0050000 0.0280000 0.0393397
v -0.0050000 0.0000000 0.0393397
v 0.0000000 0.0280000 0.0380000
v 0.0000000 0.0000000 0.0380000
v 0.0050000 0.0280000 0.0393397
v 0.0050000 0.0000000 0.0393397
v 0.0086603 0.0280000 0.0430000
v 0.0086603 0.0000000 0.0430000
v -0.0239411 0.0000000 0.0339411
v -0.0239411 0.0280000 0.0339411
v -0.0252809 0.0280000 0.0389411
v -0.0252809 0.0000000 0.0389411
v -0.0339411 0.0000000 0.0339411
v -0.0339411 0.0280000 0.0339411
v -0.0289411 0.0280000 0.0426014
v -0.0289411 0.0000000 0.0426014
v -0.0339411 0.0280000 0.0439411
v -0.0339411 0.0000000 0.0439411
v -0.0389411 0.0280000 0.0426014
v -0.0389411 0.0000000 0.0426014
v -0.0426014 0.0280000 0.0389411
v -0.0426014 0.0000000 0.0389411
v -0.0439411 0.0280000 0.0339411
v -0.0439411 0.0000000 0.0339411
v -0.0426014 0.0280000 0.0289411
v -0.0426014 0.0000000 0.0289411
v -0.0389411 0.0280000 0.0252809
v -0.0389411 0.0000000 0.0252809
v -0.0339411 0.0280000 0.0239411
v -0.0339411 0.0000000 0.0239411
v -0.0289411 0.0280000 0.0252809
v -0.0289411 0.0000000 0.0252809
v -0.0252809 0.0280000 0.0289411
v -0.0252809 0.0000000 0.0289411
v -0.0380000 0.0000000 0.0000000
v -0.0380000 0.0280000 0.0000000
v -0.0393397 0.0280000 0.0050000
v -0.0393397 0.0000000 0.0050000
v -0.0480000 0.0000000 0.0000000
v -0.0480000 0.0280000 0.0000000
v -0.0430000 0.0280000 0.0086603
v -0.0430000 0.0000000 0.0086603
v -0.0480000 0.0280000 0.0100000
v -0.0480000 0.0000000 0.0100000
v -0.0530000 0.0280000 0.0086603
v -0.0530000 0.0000000 0.0086603
v -0.0566603 0.0280000 0.0050000
v -0.0566603 0.0000000 0.0050000
v -0.0580000 0.0280000 0.0000000
v -0.0580000 0.0000000 0.0000000
v -0.0566603 0.0280000 -0.0050000
v -0.0566603 0.0000000 -0.0050000
v -0.0530000 0.0280000 -0.0086603
v -0.0530000 0.0000000 -0.0086603
v -0.0480000 0.0280000 -0.0100000
v -0.0480000 0.0000000 -0.0100000
v -0.0430000 0.0280000 -0.0086603
v -0.0430000 0.0000000 -0.0086603
v -0.0393397 0.0280000 -0.0050000
v -0.0393397 0.0000000 -0.0050000
v -0.0239411 0.0000000 -0.0339411
v -0.0239411 0.0280000 -0.0339411
v -0.0252809 0.0280000 -0.0289411
v -0.0252809 0.0000000 -0.0289411
v -0.0339411 0.0000000 -0.0339411
v -0.0339411 0.0280000 -0.0339411
v -0.0289411 0.0280000 -0.0252809
v -0.0289411 0.0000000 -0.0252809
v -0.0339411 0.0280000 -0.0239411
v -0.0339411 0.0000000 -0.0239411
v -0.0389411 0.0280000 -0.0252809
v -0.0389411 0.0000000 -0.0252809
v -0.0426014 0.0280000 -0.0289411
v -0.0426014 0.0000000 -0.0289411
v -0.0439411 0.0280000 -0.0339411
v -0.0439411 0.0000000 -0.0339411
v -0.0426014 0.0280000 -0.0389411
v -0.0426014 0.0000000 -0.0389411
v -0.0389411 0.0280000 -0.0426014
v -0.0389411 0.0000000 -0.0426014
v -0.0339411 0.0280000 -0.0439411
v -0.0339411 0.0000000 -0.0439411
v -0.0289411 0.0280000 -0.0426014
v -0.0289411 0.0000000 -0.0426014
v -0.0252809 0.0280000 -0.0389411
v -0.0252809 0.0000000 -0.0389411
v 0.0100000 0.0000000 -0.0480000
v 0.0100000 0.0280000 -0.0480000
v 0.0086603 0.0280000 -0.0430000
v 0.0086603 0.0000000 -0.0430000
v -0.0000000 0.0000000 -0.0480000
v -0.0000000 0.0280000 -0.0480000
v 0.0050000 0.0280000 -0.0393397
v 0.0050000 0.0000000 -0.0393397
v -0.0000000 0.0280000 -0.0380000
v -0.0000000 0.0000000 -0.0380000
v -0.0050000 0.0280000 -0.0393397
v -0.0050000 0.0000000 -0.0393397
v -0.0086603 0.0280000 -0.0430000
v -0.0086603 0.0000000 -0.0430000
v -0.0100000 0.0280000 -0.0480000
v -0.0100000 0.0000000 -0.0480000
v -0.0086603 0.0280000 -0.0530000
v -0.0086603 0.0000000 -0.0530000
v -0.0050000 0.0280000 -0.0566603
v -0.0050000 0.0000000 -0.0566603
v -0.0000000 0.0280000 -0.0580000
v -0.0000000 0.0000000 -0.0580000
v 0.0050000 0.0280000 -0.0566603
v 0.0050000 0.0000000 -0.0566603
v 0.0086603 0.0280000 -0.0530000
v 0.0086603 0.0000000 -0.0530000
v 0.0439411 0.0000000 -0.0339411
v 0.0439411 0.0280000 -0.0339411
v 0.0426014 0.0280000 -0.0289411
v 0.0426014 0.0000000 -0.0289411
v 0.0339411 0.0000000 -0.0339411
v 0.0339411 0.0280000 -0.0339411
v 0.0389411 0.0280000 -0.0252809
v 0.0389411 0.0000000 -0.0252809
v 0.0339411 0.0280000 -0.0239411
v 0.0339411 0.0000000 -0.0239411
v 0.0289411 0.0280000 -0.0252809
v 0.0289411 0.0000000 -0.0252809
v 0.0252809 0.0280000 -0.0289411
v 0.0252809 0.0000000 -0.0289411
v 0.0239411 0.0280000 -0.0339411
v 0.0239411 0.0000000 -0.0339411
v 0.0252809 0.0280000 -0.0389411
v 0.0252809 0.0000000 -0.0389411
v 0.0289411 0.0280000 -0.0426014
v 0.0289411 0.0000000 -0.0426014
v 0.0339411 0.0280000 -0.0439411
v 0.0339411 0.0000000 -0.0439411
v 0.0389411 0.0280000 -0.0426014
v 0.0389411 0.0000000 -0.0426014
v 0.0426014 0.0280000 -0.0389411
v 0.0426014 0.0000000 -0.0389411
usemtl rubber
vn 0.9998659 0.0 0.0163757
vn 0.9998659 0.0 -0.0163757
vn 0.9966562 0.0 0.0817093
vn 0.9934472 0.0 0.1142919
vn -0.9998654 0.0 -0.0164052
vn -0.9934428 0.0 -0.1143305
vn -0.9966511 0.0 -0.0817721
vn -0.9998654 0.0 0.0164052
vn 0.0 1.0 0.0
vn 0.0 -1.0 0.0
vn 0.9838489 0.0 0.1790009
vn 0.9774588 0.0 0.2111265
vn -0.9774815 0.0 -0.2110211
vn -0.9838577 0.0 -0.1789528
vn 0.961564 0.0 0.274581
vn 0.9520603 0.0 0.3059103
vn -0.9520454 0.0 -0.3059569
vn -0.9615785 0.0 -0.2745302
vn 0.9300242 0.0 0.3674982
vn 0.9174908 0.0 0.3977571
vn -0.917506 0.0 -0.3977219
vn -0.9300046 0.0 -0.3675478
vn 0.8895202 0.0 0.4568959
vn 0.8740838 0.0 0.4857752
vn -0.8741132 0.0 -0.4857223
vn -0.8895642 0.0 -0.4568101
vn 0.8404543 0.0 0.5418824
vn 0.822261 0.0 0.5691106
vn -0.8222197 0.0 -0.5691702
vn -0.8404403 0.0 -0.5419042
vn 0.7832912 0.0 0.6216549
vn 0.7625142 0.0 0.6469715
vn -0.7624697 0.0 -0.6470239
vn -0.783235 0.0 -0.6217257
vn 0.7185868 0.0 0.6954373
vn 0.6954373 0.0 0.7185868
vn -0.6954498 0.0 -0.7185747
vn -0.7185747 0.0 -0.6954498
vn 0.6469715 0.0 0.7625142
vn 0.6216549 0.0 0.7832912
vn -0.6217257 0.0 -0.783235
vn -0.6470239 0.0 -0.7624697
vn 0.5691106 0.0 0.822261
vn 0.5418824 0.0 0.8404543
vn -0.5419042 0.0 -0.8404403
vn -0.5691702 0.0 -0.8222197
vn 0.4857752 0.0 0.8740838
vn 0.4568959 0.0 0.8895202
vn -0.4568101 0.0 -0.8895642
vn -0.4857223 0.0 -0.8741132
vn 0.3977571 0.0 0.9174908
vn 0.3674982 0.0 0.9300242
vn -0.3675478 0.0 -0.9300046
vn -0.3977219 0.0 -0.917506
vn 0.3059103 0.0 0.9520603
vn 0.274581 0.0 0.961564
vn -0.2745302 0.0 -0.9615785
vn -0.3059569 0.0 -0.9520454
vn 0.2111265 0.0 0.9774588
vn 0.1790009 0.0 0.9838489
vn -0.1789528 0.0 -0.9838577
vn -0.2110211 0.0 -0.9774815
vn 0.1142919 0.0 0.9934472
vn 0.0817093 0.0 0.9966562
vn -0.0817721 0.0 -0.9966511
vn -0.1143305 0.0 -0.9934428
vn 0.0163757 0.0 0.9998659
vn -0.0163757 0.0 0.9998659
vn 0.0164052 0.0 -0.9998654
vn -0.0164052 0.0 -0.9998654
vn -0.0817093 0.0 0.9966562
vn -0.1142919 0.0 0.9934472
vn 0.1143305 0.0 -0.9934428
vn 0.0817721 0.0 -0.9966511
vn -0.1790009 0.0 0.9838489
vn -0.2111265 0.0 0.9774588
vn 0.2110211 0.0 -0.9774815
vn 0.1789528 0.0 -0.9838577
vn -0.274581 0.0 0.961564
vn -0.3059103 0.0 0.9520603
vn 0.3059569 0.0 -0.9520454
vn 0.2745302 0.0 -0.9615785
vn -0.3674982 0.0 0.9300242
vn -0.3977571 0.0 0.9174908
vn 0.3977219 0.0 -0.917506
vn 0.3675478 0.0 -0.9300046
vn -0.4568959 0.0 0.8895202
vn -0.4857752 0.0 0.8740838
vn 0.4857223 0.0 -0.8741132
vn 0.4568101 0.0 -0.8895642
vn -0.5418824 0.0 0.8404543
vn -0.5691106 0.0 0.822261
vn 0.5691702 0.0 -0.8222197
vn 0.5419042 0.0 -0.8404403
vn -0.6216549 0.0 0.7832912
vn -0.6469715 0.0 0.7625142
vn 0.6470239 0.0 -0.7624697
vn 0.6217257 0.0 -0.783235
vn -0.6954373 0.0 0.7185868
vn -0.7185868 0.0 0.6954373
vn 0.7185747 0.0 -0.6954498
vn 0.6954498 0.0 -0.7185747
vn -0.7625142 0.0 0.6469715
vn -0.7832912 0.0 0.6216549
vn 0.783235 0.0 -0.6217257
vn 0.7624697 0.0 -0.6470239
vn -0.822261 0.0 0.5691106
vn -0.8404543 0.0 0.5418824
vn 0.8404403 0.0 -0.5419042
vn 0.8222197 0.0 -0.5691702
vn -0.8740838 0.0 0.4857752
vn -0.8895202 0.0 0.4568959
vn 0.8895642 0.0 -0.4568101
vn 0.8741132 0.0 -0.4857223
vn -0.9174908 0.0 0.3977571
vn -0.9300242 0.0 0.3674982
vn 0.9300046 0.0 -0.3675478
vn 0.917506 0.0 -0.3977219
vn -0.9520603 0.0 0.3059103
vn -0.961564 0.0 0.274581
vn 0.9615785 0.0 -0.2745302
vn 0.9520454 0.0 -0.3059569
vn -0.9774588 0.0 0.2111265
vn -0.9838489 0.0 0.1790009
vn 0.9838577 0.0 -0.1789528
vn 0.9774815 0.0 -0.2110211
vn -0.9934472 0.0 0.1142919
vn -0.9966562 0.0 0.0817093
vn 0.9966511 0.0 -0.0817721
vn 0.9934428 0.0 -0.1143305
vn -0.9998659 0.0 0.0163757
vn -0.9998659 0.0 -0.0163757
vn 0.9998654 0.0 0.0164052
vn 0.9998654 0.0 -0.0164052
vn -0.9966562 0.0 -0.0817093
vn -0.9934472 0.0 -0.1142919
vn 0.9934428 0.0 0.1143305
vn 0.9966511 0.0 0.0817721
vn -0.9838489 0.0 -0.1790009
vn -0.9774588 0.0 -0.2111265
vn 0.9774815 0.0 0.2110211
vn 0.9838577 0.0 0.1789528
vn -0.961564 0.0 -0.274581
vn -0.9520603 0.0 -0.3059103
vn 0.9520454 0.0 0.3059569
vn 0.9615785 0.0 0.2745302
vn -0.9300242 0.0 -0.3674982
vn -0.9174908 0.0 -0.3977571
vn 0.917506 0.0 0.3977219
vn 0.9300046 0.0 0.3675478
vn -0.8895202 0.0 -0.4568959
vn -0.8740838 0.0 -0.4857752
vn 0.8741132 0.0 0.4857223
vn 0.8895642 0.0 0.4568101
vn -0.8404543 0.0 -0.5418824
vn -0.822261 0.0 -0.5691106
vn 0.8222197 0.0 0.5691702
vn 0.8404403 0.0 0.5419042
vn -0.7832912 0.0 -0.6216549
vn -0.7625142 0.0 -0.6469715
vn 0.7624697 0.0 0.6470239
vn 0.783235 0.0 0.6217257
vn -0.7185868 0.0 -0.6954373
vn -0.6954373 0.0 -0.7185868
vn 0.6954498 0.0 0.7185747
vn 0.7185747 0.0 0.6954498
vn -0.6469715 0.0 -0.7625142
vn -0.6216549 0.0 -0.7832912
vn 0.6217257 0.0 0.783235
vn 0.6470239 0.0 0.7624697
vn -0.5691106 0.0 -0.822261
vn -0.5418824 0.0 -0.8404543
vn 0.5419042 0.0 0.8404403
vn 0.5691702 0.0 0.8222197
vn -0.4857752 0.0 -0.8740838
vn -0.4568959 0.0 -0.8895202
vn 0.4568101 0.0 0.8895642
vn 0.4857223 0.0 0.8741132
vn -0.3977571 0.0 -0.9174908
vn -0.3674982 0.0 -0.9300242
vn 0.3675478 0.0 0.9300046
vn 0.3977219 0.0 0.917506
vn -0.3059103 0.0 -0.9520603
vn -0.274581 0.0 -0.961564
vn 0.2745302 0.0 0.9615785
vn 0.3059569 0.0 0.9520454
vn -0.2111265 0.0 -0.9774588
vn -0.1790009 0.0 -0.9838489
vn 0.1789528 0.0 0.9838577
vn 0.2110211 0.0 0.9774815
vn -0.1142919 0.0 -0.9934472
vn -0.0817093 0.0 -0.9966562
vn 0.0817721 0.0 0.9966511
vn 0.1143305 0.0 0.9934428
vn -0.0163757 0.0 -0.9998659
vn 0.0163757 0.0 -0.9998659
vn -0.0164052 0.0 0.9998654
vn 0.0164052 0.0 0.9998654
vn 0.0817093 0.0 -0.9966562
vn 0.1142919 0.0 -0.9934472
vn -0.1143305 0.0 0.9934428
vn -0.0817721 0.0 0.9966511
vn 0.1790009 0.0 -0.9838489
vn 0.2111265 0.0 -0.9774588
vn -0.2110211 0.0 0.9774815
vn -0.1789528 0.0 0.9838577
vn 0.274581 0.0 -0.961564
vn 0.3059103 0.0 -0.9520603
vn -0.3059569 0.0 0.9520454
vn -0.2745302 0.0 0.9615785
vn 0.3674982 0.0 -0.9300242
vn 0.3977571 0.0 -0.9174908
vn -0.3977219 0.0 0.917506
vn -0.3675478 0.0 0.9300046
vn 0.4568959 0.0 -0.8895202
vn 0.4857752 0.0 -0.8740838
vn -0.4857223 0.0 0.8741132
vn -0.4568101 0.0 0.8895642
vn 0.5418824 0.0 -0.8404543
vn 0.5691106 0.0 -0.822261
vn -0.5691702 0.0 0.8222197
vn -0.5419042 0.0 0.8404403
vn 0.6216549 0.0 -0.7832912
vn 0.6469715 0.0 -0.7625142
vn -0.6470239 0.0 0.7624697
vn -0.6217257 0.0 0.783235
vn 0.6954373 0.0 -0.7185868
vn 0.7185868 0.0 -0.6954373
vn -0.7185747 0.0 0.6954498
vn -0.6954498 0.0 0.7185747
vn 0.7625142 0.0 -0.6469715
vn 0.7832912 0.0 -0.6216549
vn -0.783235 0.0 0.6217257
vn -0.7624697 0.0 0.6470239
vn 0.822261 0.0 -0.5691106
vn 0.8404543 0.0 -0.5418824
vn -0.8404403 0.0 0.5419042
vn -0.8222197 0.0 0.5691702
vn 0.8740838 0.0 -0.4857752
vn 0.8895202 0.0 -0.4568959
vn -0.8895642 0.0 0.4568101
vn -0.8741132 0.0 0.4857223
vn 0.9174908 0.0 -0.3977571
vn 0.9300242 0.0 -0.3674982
vn -0.9300046 0.0 0.3675478
vn -0.917506 0.0 0.3977219
vn 0.9520603 0.0 -0.3059103
vn 0.961564 0.0 -0.274581
vn -0.9615785 0.0 0.2745302
vn -0.9520454 0.0 0.3059569
vn 0.9774588 0.0 -0.2111265
vn 0.9838489 0.0 -0.1790009
vn -0.9838577 0.0 0.1789528
vn -0.9774815 0.0 0.2110211
vn 0.9934472 0.0 -0.1142919
vn 0.9966562 0.0 -0.0817093
vn -0.9966511 0.0 0.0817721
vn -0.9934428 0.0 0.1143305
vn 0.9960353 0.0 0.0889592
vn 0.9960353 0.0 -0.0889592
vn 0.9070744 0.0 0.4209702
vn 0.8181111 0.0 0.5750602
vn 0.5750602 0.0 0.8181111
vn 0.4209702 0.0 0.9070744
vn 0.0889592 0.0 0.9960353
vn -0.0889592 0.0 0.9960353
vn -0.4209702 0.0 0.9070744
vn -0.5750602 0.0 0.8181111
vn -0.8181111 0.0 0.5750602
vn -0.9070744 0.0 0.4209702
vn -0.9960353 0.0 0.0889592
vn -0.9960353 0.0 -0.0889592
vn -0.9070744 0.0 -0.4209702
vn -0.8181111 0.0 -0.5750602
vn -0.5750602 0.0 -0.8181111
vn -0.4209702 0.0 -0.9070744
vn -0.0889592 0.0 -0.9960353
vn 0.0889592 0.0 -0.9960353
vn 0.4209702 0.0 -0.9070744
vn 0.5750602 0.0 -0.8181111
vn 0.8181111 0.0 -0.5750602
vn 0.9070744 0.0 -0.4209702
vn -0.4209728 0.0 0.9070733
vn -0.5750665 0.0 0.8181067
vn -0.8181142 0.0 0.5750558
vn -0.9070719 0.0 0.4209757
vn -0.9960347 0.0 0.0889658
vn -0.9960347 0.0 -0.0889658
vn -0.9070707 0.0 -0.4209782
vn -0.8181098 0.0 -0.575062
vn -0.575062 0.0 -0.8181098
vn -0.4209782 0.0 -0.9070707
vn -0.0889658 0.0 -0.9960347
vn 0.0889658 0.0 -0.9960347
vn 0.4209757 0.0 -0.9070719
vn 0.5750558 0.0 -0.8181142
vn 0.8181067 0.0 -0.5750665
vn 0.9070733 0.0 -0.4209728
vn 0.9960347 0.0 0.0889658
vn 0.9960347 0.0 -0.0889658
vn 0.9070719 0.0 0.4209757
vn 0.8181142 0.0 0.5750558
vn 0.5750665 0.0 0.8181067
vn 0.4209728 0.0 0.9070733
vn -0.9070733 0.0 -0.4209728
vn -0.8181067 0.0 -0.5750665
vn -0.5750558 0.0 -0.8181142
vn -0.4209757 0.0 -0.9070719
vn 0.4209782 0.0 -0.9070707
vn 0.575062 0.0 -0.8181098
vn 0.8181098 0.0 -0.575062
vn 0.9070707 0.0 -0.4209782
vn 0.9070707 0.0 0.4209782
vn 0.8181098 0.0 0.575062
vn 0.575062 0.0 0.8181098
vn 0.4209782 0.0 0.9070707
vn 0.0889658 0.0 0.9960347
vn -0.0889658 0.0 0.9960347
vn -0.4209757 0.0 0.9070719
vn -0.5750558 0.0 0.8181142
vn -0.8181067 0.0 0.5750665
vn -0.9070733 0.0 0.4209728
vn 0.4209728 0.0 -0.9070733
vn 0.5750665 0.0 -0.8181067
vn 0.8181142 0.0 -0.5750558
vn 0.9070719 0.0 -0.4209757
vn 0.9070733 0.0 0.4209728
vn 0.8181067 0.0 0.5750665
vn 0.5750558 0.0 0.8181142
vn 0.4209757 0.0 0.9070719
vn -0.4209782 0.0 0.9070707
vn -0.575062 0.0 0.8181098
vn -0.8181098 0.0 0.575062
vn -0.9070707 0.0 0.4209782
vn -0.9070719 0.0 -0.4209757
vn -0.8181142 0.0 -0.5750558
vn -0.5750665 0.0 -0.8181067
vn -0.4209728 0.0 -0.9070733
f 1//1 2//2 3//3
f 1//1 3//3 4//4
f 5//5 6//6 7//7
f 5//5 7//7 8//8
f 2//9 8//9 7//9
f 2//9 7//9 3//9
f 1//10 4//10 6//10
f 1//10 6//10 5//10
f 4//4 3//3 9//11
f 4//4 9//11 10//12
f 6//6 11//13 12//14
f 6//6 12//14 7//7
f 3//9 7//9 12//9
f 3//9 12//9 9//9
f 4//10 10//10 11//10
f 4//10 11//10 6//10
f 10//12 9//11 13//15
f 10//12 13//15 14//16
f 11//13 15//17 16//18
f 11//13 16//18 12//14
f 9//9 12//9 16//9
f 9//9 16//9 13//9
f 10//10 14//10 15//10
f 10//10 15//10 11//10
f 14//16 13//15 17//19
f 14//16 17//19 18//20
f 15//17 19//21 20//22
f 15//17 20//22 16//18
f 13//9 16//9 20//9
f 13//9 20//9 17//9
f 14//10 18//10 19//10
f 14//10 19//10 15//10
f 18//20 17//19 21//23
f 18//20 21//23 22//24
f 19//21 23//25 24//26
f 19//21 24//26 20//22
f 17//9 20//9 24//9
f 17//9 24//9 21//9
f 18//10 22//10 23//10
f 18//10 23//10 19//10
f 22//24 21//23 25//27
f 22//24 25//27 26//28
f 23//25 27//29 28//30
f 23//25 28//30 24//26
f 21//9 24//9 28//9
f 21//9 28//9 25//9
f 22//10 26//10 27//10
f 22//10 27//10 23//10
f 26//28 25//27 29//31
f 26//28 29//31 30//32
f 27//29 31//33 32//34
f 27//29 32//34 28//30
f 25//9 28//9 32//9
f 25//9 32//9 29//9
f 26//10 30//10 31//10
f 26//10 31//10 27//10
f 30//32 29//31 33//35
f 30//32 33//35 34//36
f 31//33 35//37 36//38
f 31//33 36//38 32//34
f 29//9 32//9 36//9
f 29//9 36//9 33//9
f 30//10 34//10 35//10
f 30//10 35//10 31//10
f 34//36 33//35 37//39
f 34//36 37//39 38//40
f 35//37 39//41 40//42
f 35//37 40//42 36//38
f 33//9 36//9 40//9
f 33//9 40//9 37//9
f 34//10 38//10 39//10
f 34//10 39//10 35//10
f 38//40 37//39 41//43
f 38//40 41//43 42//44
f 39//41 43//45 44//46
f 39//41 44//46 40//42
f 37//9 40//9 44//9
f 37//9 44//9 41//9
f 38//10 42//10 43//10
f 38//10 43//10 39//10
f 42//44 41//43 45//47
f 42//44 45//47 46//48
f 43//45 47//49 48//50
f 43//45 48//50 44//46
f 41//9 44//9 48//9
f 41//9 48//9 45//9
f 42//10 46//10 47//10
f 42//10 47//10 43//10
f 46//48 45//47 49//51
f 46//48 49//51 50//52
f 47//49 51//53 52//54
f 47//49 52//54 48//50
f 45//9 48//9 52//9
f 45//9 52//9 49//9
f 46//10 50//10 51//10
f 46//10 51//10 47//10
f 50//52 49//51 53//55
f 50//52 53//55 54//56
f 51//53 55//57 56//58
f 51//53 56//58 52//54
f 49//9 52//9 56//9
f 49//9 56//9 53//9
f 50//10 54//10 55//10
f 50//10 55//10 51//10
f 54//56 53//55 57//59
f 54//56 57//59 58//60
f 55//57 59//61 60//62
f 55//57 60//62 56//58
f 53//9 56//9 60//9
f 53//9 60//9 57//9
f 54//10 58//10 59//10
f 54//10 59//10 55//10
f 58//60 57//59 61//63
f 58//60 61//63 62//64
f 59//61 63//65 64//66
f 59//61 64//66 60//62
f 57//9 60//9 64//9
f 57//9 64//9 61//9
f 58//10 62//10 63//10
f 58//10 63//10 59//10
f 62//64 61//63 65//67
f 62//64 65//67 66//68
f 63//65 67//69 68//70
f 63//65 68//70 64//66
f 61//9 64//9 68//9
f 61//9 68//9 65//9
f 62//10 66//10 67//10
f 62//10 67//10 63//10
f 66//68 65//67 69//71
f 66//68 69//71 70//72
f 67//69 71//73 72//74
f 67//69 72//74 68//70
f 65//9 68//9 72//9
f 65//9 72//9 69//9
f 66//10 70//10 71//10
f 66//10 71//10 67//10
f 70//72 69//71 73//75
f 70//72 73//75 74//76
f 71//73 75//77 76//78
f 71//73 76//78 72//74
f 69//9 72//9 76//9
f 69//9 76//9 73//9
f 70//10 74//10 75//10
f 70//10 75//10 71//10
f 74//76 73//75 77//79
f 74//76 77//79 78//80
f 75//77 79//81 80//82
f 75//77 80//82 76//78
f 73//9 76//9 80//9
f 73//9 80//9 77//9
f 74//10 78//10 79//10
f 74//10 79//10 75//10
f 78//80 77//79 81//83
f 78//80 81//83 82//84
f 79//81 83//85 84//86
f 79//81 84//86 80//82
f 77//9 80//9 84//9
f 77//9 84//9 81//9
f 78//10 82//10 83//10
f 78//10 83//10 79//10
f 82//84 81//83 85//87
f 82//84 85//87 86//88
f 83//85 87//89 88//90
f 83//85 88//90 84//86
f 81//9 84//9 88//9
f 81//9 88//9 85//9
f 82//10 86//10 87//10
f 82//10 87//10 83//10
f 86//88 85//87 89//91
f 86//88 89//91 90//92
f 87//89 91//93 92//94
f 87//89 92//94 88//90
f 85//9 88//9 92//9
f 85//9 92//9 89//9
f 86//10 90//10 91//10
f 86//10 91//10 87//10
f 90//92 89//91 93//95
f 90//92 93//95 94//96
f 91//93 95//97 96//98
f 91//93 96//98 92//94
f 89//9 92//9 96//9
f 89//9 96//9 93//9
f 90//10 94//10 95//10
f 90//10 95//10 91//10
f 94//96 93//95 97//99
f 94//96 97//99 98//100
f 95//97 99//101 100//102
f 95//97 100//102 96//98
f 93//9 96//9 100//9
f 93//9 100//9 97//9
f 94//10 98//10 99//10
f 94//10 99//10 95//10
f 98//100 97//99 101//103
f 98//100 101//103 102//104
f 99//101 103//105 104//106
f 99//101 104//106 100//102
f 97//9 100//9 104//9
f 97//9 104//9 101//9
f 98//10 102//10 103//10
f 98//10 103//10 99//10
f 102//104 101//103 105//107
f 102//104 105//107 106//108
f 103//105 107//109 108//110
f 103//105 108//110 104//106
f 101//9 104//9 108//9
f 101//9 108//9 105//9
f 102//10 106//10 107//10
f 102//10 107//10 103//10
f 106//108 105//107 109//111
f 106//108 109//111 110//112
f 107//109 111//113 112//114
f 107//109 112//114 108//110
f 105//9 108//9 112//9
f 105//9 112//9 109//9
f 106//10 110//10 111//10
f 106//10 111//10 107//10
f 110//112 109//111 113//115
f 110//112 113//115 114//116
f 111//113 115//117 116//118
f 111//113 116//118 112//114
f 109//9 112//9 116//9
f 109//9 116//9 113//9
f 110//10 114//10 115//10
f 110//10 115//10 111//10
f 114//116 113//115 117//119
f 114//116 117//119 118//120
f 115//117 119//121 120//122
f 115//117 120//122 116//118
f 113//9 116//9 120//9
f 113//9 120//9 117//9
f 114//10 118//10 119//10
f 114//10 119//10 115//10
f 118//120 117//119 121//123
f 118//120 121//123 122//124
f 119//121 123//125 124//126
f 119//121 124//126 120//122
f 117//9 120//9 124//9
f 117//9 124//9 121//9
f 118//10 122//10 123//10
f 118//10 123//10 119//10
f 122//124 121//123 125//127
f 122//124 125//127 126//128
f 123//125 127//129 128//130
f 123//125 128//130 124//126
f 121//9 124//9 128//9
f 121//9 128//9 125//9
f 122//10 126//10 127//10
f 122//10 127//10 123//10
f 126//128 125//127 129//131
f 126//128 129//131 130//132
f 127//129 131//133 132//134
f 127//129 132//134 128//130
f 125//9 128//9 132//9
f 125//9 132//9 129//9
f 126//10 130//10 131//10
f 126//10 131//10 127//10
f 130//132 129//131 133//135
f 130//132 133//135 134//136
f 131//133 135//137 136//138
f 131//133 136//138 132//134
f 129//9 132//9 136//9
f 129//9 136//9 133//9
f 130//10 134//10 135//10
f 130//10 135//10 131//10
f 134//136 133//135 137//139
f 134//136 137//139 138//140
f 135//137 139//141 140//142
f 135//137 140//142 136//138
f 133//9 136//9 140//9
f 133//9 140//9 137//9
f 134//10 138//10 139//10
f 134//10 139//10 135//10
f 138//140 137//139 141//143
f 138//140 141//143 142//144
f 139//141 143//145 144//146
f 139//141 144//146 140//142
f 137//9 140//9 144//9
f 137//9 144//9 141//9
f 138//10 142//10 143//10
f 138//10 143//10 139//10
f 142//144 141//143 145//147
f 142//144 145//147 146//148
f 143//145 147//149 148//150
f 143//145 148//150 144//146
f 141//9 144//9 148//9
f 141//9 148//9 145//9
f 142//10 146//10 147//10
f 142//10 147//10 143//10
f 146//148 145//147 149//151
f 146//148 149//151 150//152
f 147//149 151//153 152//154
f 147//149 152//154 148//150
f 145//9 148//9 152//9
f 145//9 152//9 149//9
f 146//10 150//10 151//10
f 146//10 151//10 147//10
f 150//152 149//151 153//155
f 150//152 153//155 154//156
f 151//153 155//157 156//158
f 151//153 156//158 152//154
f 149//9 152//9 156//9
f 149//9 156//9 153//9
f 150//10 154//10 155//10
f 150//10 155//10 151//10
f 154//156 153//155 157//159
f 154//156 157//159 158//160
f 155//157 159//161 160//162
f 155//157 160//162 156//158
f 153//9 156//9 160//9
f 153//9 160//9 157//9
f 154//10 158//10 159//10
f 154//10 159//10 155//10
f 158//160 157//159 161//163
f 158//160 161//163 162//164
f 159//161 163//165 164//166
f 159//161 164//166 160//162
f 157//9 160//9 164//9
f 157//9 164//9 161//9
f 158//10 162//10 163//10
f 158//10 163//10 159//10
f 162//164 161//163 165//167
f 162//164 165//167 166//168
f 163//165 167//169 168//170
f 163//165 168//170 164//166
f 161//9 164//9 168//9
f 161//9 168//9 165//9
f 162//10 166//10 167//10
f 162//10 167//10 163//10
f 166//168 165//167 169//171
f 166//168 169//171 170//172
f 167//169 171//173 172//174
f 167//169 172//174 168//170
f 165//9 168//9 172//9
f 165//9 172//9 169//9
f 166//10 170//10 171//10
f 166//10 171//10 167//10
f 170//172 169//171 173//175
f 170//172 173//175 174//176
f 171//173 175//177 176//178
f 171//173 176//178 172//174
f 169//9 172//9 176//9
f 169//9 176//9 173//9
f 170//10 174//10 175//10
f 170//10 175//10 171//10
f 174//176 173//175 177//179
f 174//176 177//179 178//180
f 175//177 179//181 180//182
f 175//177 180//182 176//178
f 173//9 176//9 180//9
f 173//9 180//9 177//9
f 174//10 178//10 179//10
f 174//10 179//10 175//10
f 178//180 177//179 181//183
f 178//180 181//183 182//184
f 179//181 183//185 184//186
f 179//181 184//186 180//182
f 177//9 180//9 184//9
f 177//9 184//9 181//9
f 178//10 182//10 183//10
f 178//10 183//10 179//10
f 182//184 181//183 185//187
f 182//184 185//187 186//188
f 183//185 187//189 188//190
f 183//185 188//190 184//186
f 181//9 184//9 188//9
f 181//9 188//9 185//9
f 182//10 186//10 187//10
f 182//10 187//10 183//10
f 186//188 185//187 189//191
f 186//188 189//191 190//192
f 187//189 191//193 192//194
f 187//189 192//194 188//190
f 185//9 188//9 192//9
f 185//9 192//9 189//9
f 186//10 190//10 191//10
f 186//10 191//10 187//10
f 190//192 189//191 193//195
f 190//192 193//195 194//196
f 191//193 195//197 196//198
f 191//193 196//198 192//194
f 189//9 192//9 196//9
f 189//9 196//9 193//9
f 190//10 194//10 195//10
f 190//10 195//10 191//10
f 194//196 193//195 197//199
f 194//196 197//199 198//200
f 195//197 199//201 200//202
f 195//197 200//202 196//198
f 193//9 196//9 200//9
f 193//9 200//9 197//9
f 194//10 198//10 199//10
f 194//10 199//10 195//10
f 198//200 197//199 201//203
f 198//200 201//203 202//204
f 199//201 203//205 204//206
f 199//201 204//206 200//202
f 197//9 200//9 204//9
f 197//9 204//9 201//9
f 198//10 202//10 203//10
f 198//10 203//10 199//10
f 202//204 201//203 205//207
f 202//204 205//207 206//208
f 203//205 207//209 208//210
f 203//205 208//210 204//206
f 201//9 204//9 208//9
f 201//9 208//9 205//9
f 202//10 206//10 207//10
f 202//10 207//10 203//10
f 206//208 205//207 209//211
f 206//208 209//211 210//212
f 207//209 211//213 212//214
f 207//209 212//214 208//210
f 205//9 208//9 212//9
f 205//9 212//9 209//9
f 206//10 210//10 211//10
f 206//10 211//10 207//10
f 210//212 209//211 213//215
f 210//212 213//215 214//216
f 211//213 215//217 216//218
f 211//213 216//218 212//214
f 209//9 212//9 216//9
f 209//9 216//9 213//9
f 210//10 214//10 215//10
f 210//10 215//10 211//10
f 214//216 213//215 217//219
f 214//216 217//219 218//220
f 215//217 219//221 220//222
f 215//217 220//222 216//218
f 213//9 216//9 220//9
f 213//9 220//9 217//9
f 214//10 218//10 219//10
f 214//10 219//10 215//10
f 218//220 217//219 221//223
f 218//220 221//223 222//224
f 219//221 223//225 224//226
f 219//221 224//226 220//222
f 217//9 220//9 224//9
f 217//9 224//9 221//9
f 218//10 222//10 223//10
f 218//10 223//10 219//10
f 222//224 221//223 225//227
f 222//224 225//227 226//228
f 223//225 227//229 228//230
f 223//225 228//230 224//226
f 221//9 224//9 228//9
f 221//9 228//9 225//9
f 222//10 226//10 227//10
f 222//10 227//10 223//10
f 226//228 225//227 229//231
f 226//228 229//231 230//232
f 227//229 231//233 232//234
f 227//229 232//234 228//230
f 225//9 228//9 232//9
f 225//9 232//9 229//9
f 226//10 230//10 231//10
f 226//10 231//10 227//10
f 230//232 229//231 233//235
f 230//232 233//235 234//236
f 231//233 235//237 236//238
f 231//233 236//238 232//234
f 229//9 232//9 236//9
f 229//9 236//9 233//9
f 230//10 234//10 235//10
f 230//10 235//10 231//10
f 234//236 233//235 237//239
f 234//236 237//239 238//240
f 235//237 239//241 240//242
f 235//237 240//242 236//238
f 233//9 236//9 240//9
f 233//9 240//9 237//9
f 234//10 238//10 239//10
f 234//10 239//10 235//10
f 238//240 237//239 241//243
f 238//240 241//243 242//244
f 239//241 243//245 244//246
f 239//241 244//246 240//242
f 237//9 240//9 244//9
f 237//9 244//9 241//9
f 238//10 242//10 243//10
f 238//10 243//10 239//10
f 242//244 241//243 245//247
f 242//244 245//247 246//248
f 243//245 247//249 248//250
f 243//245 248//250 244//246
f 241//9 244//9 248//9
f 241//9 248//9 245//9
f 242//10 246//10 247//10
f 242//10 247//10 243//10
f 246//248 245//247 249//251
f 246//248 249//251 250//252
f 247//249 251//253 252//254
f 247//249 252//254 248//250
f 245//9 248//9 252//9
f 245//9 252//9 249//9
f 246//10 250//10 251//10
f 246//10 251//10 247//10
f 250//252 249//251 253//255
f 250//252 253//255 254//256
f 251//253 255//257 256//258
f 251//253 256//258 252//254
f 249//9 252//9 256//9
f 249//9 256//9 253//9
f 250//10 254//10 255//10
f 250//10 255//10 251//10
f 254//256 253//255 2//2
f 254//256 2//2 1//1
f 255//257 5//5 8//8
f 255//257 8//8 256//258
f 253//9 256//9 8//9
f 253//9 8//9 2//9
f 254//10 1//10 5//10
f 254//10 5//10 255//10
f 257//259 258//260 259//261
f 257//259 259//261 260//262
f 258//9 262//9 259//9
f 257//10 260//10 261//10
f 260//262 259//261 263//263
f 260//262 263//263 264//264
f 259//9 262//9 263//9
f 260//10 264//10 261//10
f 264//264 263//263 265//265
f 264//264 265//265 266//266
f 263//9 262//9 265//9
f 264//10 266//10 261//10
f 266//266 265//265 267//267
f 266//266 267//267 268//268
f 265//9 262//9 267//9
f 266//10 268//10 261//10
f 268//268 267//267 269//269
f 268//268 269//269 270//270
f 267//9 262//9 269//9
f 268//10 270//10 261//10
f 270//270 269//269 271//271
f 270//270 271//271 272//272
f 269//9 262//9 271//9
f 270//10 272//10 261//10
f 272//272 271//271 273//273
f 272//272 273//273 274//274
f 271//9 262//9 273//9
f 272//10 274//10 261//10
f 274//274 273//273 275//275
f 274//274 275//275 276//276
f 273//9 262//9 275//9
f 274//10 276//10 261//10
f 276//276 275//275 277//277
f 276//276 277//277 278//278
f 275//9 262//9 277//9
f 276//10 278//10 261//10
f 278//278 277//277 279//279
f 278//278 279//279 280//280
f 277//9 262//9 279//9
f 278//10 280//10 261//10
f 280//280 279//279 281//281
f 280//280 281//281 282//282
f 279//9 262//9 281//9
f 280//10 282//10 261//10
f 282//282 281//281 258//260
f 282//282 258//260 257//259
f 281//9 262//9 258//9
f 282//10 257//10 261//10
f 283//259 284//260 285//261
f 283//259 285//261 286//262
f 284//9 288//9 285//9
f 283//10 286//10 287//10
f 286//262 285//261 289//263
f 286//262 289//263 290//264
f 285//9 288//9 289//9
f 286//10 290//10 287//10
f 290//264 289//263 291//265
f 290//264 291//265 292//266
f 289//9 288//9 291//9
f 290//10 292//10 287//10
f 292//266 291//265 293//283
f 292//266 293//283 294//284
f 291//9 288//9 293//9
f 292//10 294//10 287//10
f 294//284 293//283 295//285
f 294//284 295//285 296//286
f 293//9 288//9 295//9
f 294//10 296//10 287//10
f 296//286 295//285 297//287
f 296//286 297//287 298//288
f 295//9 288//9 297//9
f 296//10 298//10 287//10
f 298//288 297//287 299//289
f 298//288 299//289 300//290
f 297//9 288//9 299//9
f 298//10 300//10 287//10
f 300//290 299//289 301//291
f 300//290 301//291 302//292
f 299//9 288//9 301//9
f 300//10 302//10 287//10
f 302//292 301//291 303//293
f 302//292 303//293 304//294
f 301//9 288//9 303//9
f 302//10 304//10 287//10
f 304//294 303//293 305//295
f 304//294 305//295 306//296
f 303//9 288//9 305//9
f 304//10 306//10 287//10
f 306//296 305//295 307//297
f 306//296 307//297 308//298
f 305//9 288//9 307//9
f 306//10 308//10 287//10
f 308//298 307//297 284//260
f 308//298 284//260 283//259
f 307//9 288//9 284//9
f 308//10 283//10 287//10
f 309//259 310//260 311//261
f 309//259 311//261 312//262
f 310//9 314//9 311//9
f 309//10 312//10 313//10
f 312//262 311//261 315//263
f 312//262 315//263 316//264
f 311//9 314//9 315//9
f 312//10 316//10 313//10
f 316//264 315//263 317//265
f 316//264 317//265 318//266
f 315//9 314//9 317//9
f 316//10 318//10 313//10
f 318//266 317//265 319//267
f 318//266 319//267 320//268
f 317//9 314//9 319//9
f 318//10 320//10 313//10
f 320//268 319//267 321//269
f 320//268 321//269 322//270
f 319//9 314//9 321//9
f 320//10 322//10 313//10
f 322//270 321//269 323//271
f 322//270 323//271 324//272
f 321//9 314//9 323//9
f 322//10 324//10 313//10
f 324//272 323//271 325//273
f 324//272 325//273 326//274
f 323//9 314//9 325//9
f 324//10 326//10 313//10
f 326//274 325//273 327//275
f 326//274 327//275 328//276
f 325//9 314//9 327//9
f 326//10 328//10 313//10
f 328//276 327//275 329//277
f 328//276 329//277 330//278
f 327//9 314//9 329//9
f 328//10 330//10 313//10
f 330//278 329//277 331//279
f 330//278 331//279 332//280
f 329//9 314//9 331//9
f 330//10 332//10 313//10
f 332//280 331//279 333//281
f 332//280 333//281 334//282
f 331//9 314//9 333//9
f 332//10 334//10 313//10
f 334//282 333//281 310//260
f 334//282 310//260 309//259
f 333//9 314//9 310//9
f 334//10 309//10 313//10
f 335//299 336//300 337//301
f 335//299 337//301 338//302
f 336//9 340//9 337//9
f 335//10 338//10 339//10
f 338//302 337//301 341//303
f 338//302 341//303 342//304
f 337//9 340//9 341//9
f 338//10 342//10 339//10
f 342//304 341//303 343//265
f 342//304 343//265 344//266
f 341//9 340//9 343//9
f 342//10 344//10 339//10
f 344//266 343//265 345//267
f 344//266 345//267 346//268
f 343//9 340//9 345//9
f 344//10 346//10 339//10
f 346//268 345//267 347//269
f 346//268 347//269 348//270
f 345//9 340//9 347//9
f 346//10 348//10 339//10
f 348//270 347//269 349//271
f 348//270 349//271 350//272
f 347//9 340//9 349//9
f 348//10 350//10 339//10
f 350//272 349//271 351//305
f 350//272 351//305 352//306
f 349//9 340//9 351//9
f 350//10 352//10 339//10
f 352//306 351//305 353//307
f 352//306 353//307 354//308
f 351//9 340//9 353//9
f 352//10 354//10 339//10
f 354//308 353//307 355//293
f 354//308 355//293 356//294
f 353//9 340//9 355//9
f 354//10 356//10 339//10
f 356//294 355//293 357//309
f 356//294 357//309 358//310
f 355//9 340//9 357//9
f 356//10 358//10 339//10
f 358//310 357//309 359//311
f 358//310 359//311 360//312
f 357//9 340//9 359//9
f 358//10 360//10 339//10
f 360//312 359//311 336//300
f 360//312 336//300 335//299
f 359//9 340//9 336//9
f 360//10 335//10 339//10
f 361//259 362//260 363//261
f 361//259 363//261 364//262
f 362//9 366//9 363//9
f 361//10 364//10 365//10
f 364//262 363//261 367//263
f 364//262 367//263 368//264
f 363//9 366//9 367//9
f 364//10 368//10 365//10
f 368//264 367//263 369//265
f 368//264 369//265 370//266
f 367//9 366//9 369//9
f 368//10 370//10 365//10
f 370//266 369//265 371//267
f 370//266 371//267 372//268
f 369//9 366//9 371//9
f 370//10 372//10 365//10
f 372//268 371//267 373//269
f 372//268 373//269 374//270
f 371//9 366//9 373//9
f 372//10 374//10 365//10
f 374//270 373//269 375//271
f 374//270 375//271 376//272
f 373//9 366//9 375//9
f 374//10 376//10 365//10
f 376//272 375//271 377//273
f 376//272 377//273 378//274
f 375//9 366//9 377//9
f 376//10 378//10 365//10
f 378//274 377//273 379//275
f 378//274 379//275 380//276
f 377//9 366//9 379//9
f 378//10 380//10 365//10
f 380//276 379//275 381//277
f 380//276 381//277 382//278
f 379//9 366//9 381//9
f 380//10 382//10 365//10
f 382//278 381//277 383//279
f 382//278 383//279 384//280
f 381//9 366//9 383//9
f 382//10 384//10 365//10
f 384//280 383//279 385//281
f 384//280 385//281 386//282
f 383//9 366//9 385//9
f 384//10 386//10 365//10
f 386//282 385//281 362//260
f 386//282 362//260 361//259
f 385//9 366//9 362//9
f 386//10 361//10 365//10
f 387//299 388//300 389//313
f 387//299 389//313 390//314
f 388//9 392//9 389//9
f 387//10 390//10 391//10
f 390//314 389//313 393//315
f 390//314 393//315 394//316
f 389//9 392//9 393//9
f 390//10 394//10 391//10
f 394//316 393//315 395//317
f 394//316 395//317 396//318
f 393//9 392//9 395//9
f 394//10 396//10 391//10
f 396//318 395//317 397//319
f 396//318 397//319 398//320
f 395//9 392//9 397//9
f 396//10 398//10 391//10
f 398//320 397//319 399//321
f 398//320 399//321 400//322
f 397//9 392//9 399//9
f 398//10 400//10 391//10
f 400//322 399//321 401//271
f 400//322 401//271 402//272
f 399//9 392//9 401//9
f 400//10 402//10 391//10
f 402//272 401//271 403//273
f 402//272 403//273 404//274
f 401//9 392//9 403//9
f 402//10 404//10 391//10
f 404//274 403//273 405//275
f 404//274 405//275 406//276
f 403//9 392//9 405//9
f 404//10 406//10 391//10
f 406//276 405//275 407//277
f 406//276 407//277 408//278
f 405//9 392//9 407//9
f 406//10 408//10 391//10
f 408//278 407//277 409//323
f 408//278 409//323 410//324
f 407//9 392//9 409//9
f 408//10 410//10 391//10
f 410//324 409//323 411//325
f 410//324 411//325 412//326
f 409//9 392//9 411//9
f 410//10 412//10 391//10
f 412//326 411//325 388//300
f 412//326 388//300 387//299
f 411//9 392//9 388//9
f 412//10 387//10 391//10
f 413//259 414//260 415//261
f 413//259 415//261 416//262
f 414//9 418//9 415//9
f 413//10 416//10 417//10
f 416//262 415//261 419//263
f 416//262 419//263 420//264
f 415//9 418//9 419//9
f 416//10 420//10 417//10
f 420//264 419//263 421//265
f 420//264 421//265 422//266
f 419//9 418//9 421//9
f 420//10 422//10 417//10
f 422//266 421//265 423//267
f 422//266 423//267 424//268
f 421//9 418//9 423//9
f 422//10 424//10 417//10
f 424//268 423//267 425//269
f 424//268 425//269 426//270
f 423//9 418//9 425//9
f 424//10 426//10 417//10
f 426//270 425//269 427//271
f 426//270 427//271 428//272
f 425//9 418//9 427//9
f 426//10 428//10 417//10
f 428//272 427//271 429//273
f 428//272 429//273 430//274
f 427//9 418//9 429//9
f 428//10 430//10 417//10
f 430//274 429//273 431//275
f 430//274 431//275 432//276
f 429//9 418//9 431//9
f 430//10 432//10 417//10
f 432//276 431//275 433//277
f 432//276 433//277 434//278
f 431//9 418//9 433//9
f 432//10 434//10 417//10
f 434//278 433//277 435//279
f 434//278 435//279 436//280
f 433//9 418//9 435//9
f 434//10 436//10 417//10
f 436//280 435//279 437//281
f 436//280 437//281 438//282
f 435//9 418//9 437//9
f 436//10 438//10 417//10
f 438//282 437//281 414//260
f 438//282 414//260 413//259
f 437//9 418//9 414//9
f 438//10 413//10 417//10
f 439//259 440//260 441//327
f 439//259 441//327 442//328
f 440//9 444//9 441//9
f 439//10 442//10 443//10
f 442//328 441//327 445//329
f 442//328 445//329 446//330
f 441//9 444//9 445//9
f 442//10 446//10 443//10
f 446//330 445//329 447//317
f 446//330 447//317 448//318
f 445//9 444//9 447//9
f 446//10 448//10 443//10
f 448//318 447//317 449//331
f 448//318 449//331 450//332
f 447//9 444//9 449//9
f 448//10 450//10 443//10
f 450//332 449//331 451//333
f 450//332 451//333 452//334
f 449//9 444//9 451//9
f 450//10 452//10 443//10
f 452//334 451//333 453//287
f 452//334 453//287 454//288
f 451//9 444//9 453//9
f 452//10 454//10 443//10
f 454//288 453//287 455//335
f 454//288 455//335 456//336
f 453//9 444//9 455//9
f 454//10 456//10 443//10
f 456//336 455//335 457//337
f 456//336 457//337 458//338
f 455//9 444//9 457//9
f 456//10 458//10 443//10
f 458//338 457//337 459//277
f 458//338 459//277 460//278
f 457//9 444//9 459//9
f 458//10 460//10 443//10
f 460//278 459//277 461//279
f 460//278 461//279 462//280
f 459//9 444//9 461//9
f 460//10 462//10 443//10
f 462//280 461//279 463//281
f 462//280 463//281 464//282
f 461//9 444//9 463//9
f 462//10 464//10 443//10
f 464//282 463//281 440//260
f 464//282 440//260 439//259
f 463//9 444//9 440//9
f 464//10 439//10 443//10
