# Extracted from KIPR Simulator demobot_v6.glb; GPL-3.0
mtllib electronics_003.mtl
s off
usemtl material_0
v 0.0121000 0.0030508 0.0024777
v 0.0121000 0.0030508 0.0121013
v 0.0121000 0.0015500 0.0024777
v 0.0121000 0.0015500 0.0121013
v 0.0121000 0.0015500 0.0121013
v 0.0121000 0.0030508 0.0121013
v -0.0121000 0.0015500 0.0121013
v -0.0121000 0.0030508 0.0121013
v -0.0031500 0.0030508 -0.0077013
v -0.0031500 0.0015500 -0.0077013
v -0.0035060 0.0030508 -0.0077013
v -0.0035060 0.0015500 -0.0077013
v 0.0031500 0.0015500 -0.0077013
v 0.0031500 0.0030508 -0.0077013
v 0.0035060 0.0015500 -0.0077013
v 0.0035060 0.0030508 -0.0077013
v 0.0121000 0.0015500 0.0024777
v 0.0120173 0.0015500 0.0016151
v 0.0121000 0.0030508 0.0024777
v 0.0120173 0.0030508 0.0016151
v 0.0117691 0.0015500 0.0007982
v 0.0117691 0.0030508 0.0007982
v 0.0113673 0.0015500 0.0000419
v 0.0113673 0.0030508 0.0000419
v 0.0108238 0.0015500 -0.0006199
v 0.0108238 0.0030508 -0.0006199
v 0.0101605 0.0015500 -0.0011635
v 0.0101605 0.0030508 -0.0011635
v 0.0094042 0.0015500 -0.0015652
v 0.0094042 0.0030508 -0.0015652
v 0.0085770 0.0015500 -0.0018134
v 0.0085770 0.0030508 -0.0018134
v 0.0077262 0.0015500 -0.0018961
v 0.0077262 0.0030508 -0.0018961
v 0.0083761 0.0030508 -0.0000645
v 0.0077262 0.0030508 -0.0001472
v 0.0077262 0.0015500 -0.0001472
v 0.0070762 0.0015500 -0.0000645
v 0.0070762 0.0030508 -0.0000645
v 0.0064603 0.0015500 0.0001719
v 0.0064603 0.0030508 0.0001719
v 0.0059285 0.0015500 0.0005619
v 0.0059285 0.0030508 0.0005619
v 0.0055031 0.0015500 0.0010715
v 0.0055031 0.0030508 0.0010715
v 0.0052313 0.0015500 0.0016623
v 0.0052313 0.0030508 0.0016623
v 0.0051013 0.0015500 0.0023123
v 0.0051013 0.0030508 0.0023123
v 0.0051486 0.0015500 0.0029622
v 0.0051486 0.0030508 0.0029622
v 0.0053495 0.0015500 0.0035885
v 0.0053495 0.0030508 0.0035885
v 0.0057040 0.0015500 0.0041439
v 0.0057040 0.0030508 0.0041439
v 0.0061767 0.0015500 0.0045944
v 0.0061767 0.0030508 0.0045944
v 0.0067557 0.0015500 0.0049135
v 0.0067557 0.0030508 0.0049135
v 0.0073953 0.0015500 0.0050789
v 0.0073953 0.0030508 0.0050789
v 0.0077262 0.0015500 0.0051026
v 0.0077262 0.0030508 0.0051026
v 0.0080571 0.0015500 0.0050789
v 0.0080571 0.0030508 0.0050789
v 0.0086952 0.0015500 0.0049135
v 0.0086952 0.0030508 0.0049135
v 0.0092624 0.0015500 0.0045944
v 0.0092624 0.0030508 0.0045944
v 0.0097469 0.0015500 0.0041439
v 0.0097469 0.0030508 0.0041439
v 0.0101014 0.0015500 0.0035885
v 0.0101014 0.0030508 0.0035885
v 0.0103023 0.0015500 0.0029622
v 0.0103023 0.0030508 0.0029622
v 0.0103496 0.0015500 0.0023123
v 0.0103496 0.0030508 0.0023123
v 0.0102196 0.0015500 0.0016623
v 0.0102196 0.0030508 0.0016623
v 0.0099360 0.0015500 0.0010715
v 0.0099360 0.0030508 0.0010715
v 0.0095224 0.0015500 0.0005619
v 0.0095224 0.0030508 0.0005619
v 0.0089906 0.0015500 0.0001719
v 0.0089906 0.0030508 0.0001719
v 0.0083761 0.0015500 -0.0000645
v 0.0077262 0.0015500 -0.0018961
v 0.0075017 0.0015500 -0.0018961
v 0.0077262 0.0030508 -0.0018961
v 0.0075017 0.0030508 -0.0018961
v 0.0080571 0.0030508 0.0050789
v 0.0077262 0.0030508 0.0051026
v 0.0049950 0.0030508 0.0119949
v 0.0073953 0.0030508 0.0050789
v 0.0049950 0.0030508 0.0047481
v 0.0067557 0.0030508 0.0049135
v 0.0061767 0.0030508 0.0045944
v 0.0057040 0.0030508 0.0041439
v 0.0042032 0.0030508 0.0047481
v 0.0053495 0.0030508 0.0035885
v 0.0022992 0.0030508 0.0062488
v 0.0042032 0.0030508 0.0062488
v 0.0022992 0.0030508 0.0037540
v 0.0051486 0.0030508 0.0029622
v 0.0051013 0.0030508 0.0023123
v 0.0052313 0.0030508 0.0016623
v 0.0055031 0.0030508 0.0010715
v 0.0002548 0.0030508 0.0062488
v 0.0018029 0.0030508 0.0062488
v 0.0002548 0.0030508 0.0037540
v 0.0018029 0.0030508 0.0037540
v -0.0018029 0.0030508 0.0062488
v -0.0002548 0.0030508 0.0062488
v -0.0018029 0.0030508 0.0037540
v -0.0002548 0.0030508 0.0037540
v -0.0042032 0.0030508 0.0062488
v -0.0022992 0.0030508 0.0062488
v -0.0042032 0.0030508 0.0047481
v -0.0022992 0.0030508 0.0037540
v -0.0077262 0.0030508 0.0051026
v -0.0049950 0.0030508 0.0119949
v -0.0073953 0.0030508 0.0050789
v -0.0067557 0.0030508 0.0049135
v -0.0061767 0.0030508 0.0045944
v -0.0057040 0.0030508 0.0041439
v -0.0049950 0.0030508 0.0047481
v -0.0053495 0.0030508 0.0035885
v -0.0051486 0.0030508 0.0029622
v -0.0035060 0.0030508 -0.0077013
v -0.0035060 0.0030508 -0.0059036
v -0.0031500 0.0030508 -0.0077013
v -0.0031500 0.0030508 -0.0018961
v -0.0035769 0.0030508 -0.0051237
v -0.0038014 0.0030508 -0.0043674
v -0.0041796 0.0030508 -0.0036820
v -0.0046759 0.0030508 -0.0030675
v -0.0052786 0.0030508 -0.0025712
v -0.0059640 0.0030508 -0.0022034
v -0.0083761 0.0030508 -0.0000645
v -0.0077262 0.0030508 -0.0001472
v -0.0070762 0.0030508 -0.0000645
v -0.0064603 0.0030508 0.0001719
v -0.0059285 0.0030508 0.0005619
v 0.0031500 0.0030508 -0.0018961
v -0.0055031 0.0030508 0.0010715
v -0.0052313 0.0030508 0.0016623
v -0.0051013 0.0030508 0.0023123
v 0.0035060 0.0030508 -0.0077013
v 0.0031500 0.0030508 -0.0077013
v 0.0035060 0.0030508 -0.0059036
v 0.0035769 0.0030508 -0.0051237
v 0.0038014 0.0030508 -0.0043674
v 0.0041796 0.0030508 -0.0036820
v 0.0046759 0.0030508 -0.0030675
v 0.0052786 0.0030508 -0.0025712
v 0.0059640 0.0030508 -0.0022034
v 0.0059285 0.0030508 0.0005619
v 0.0064603 0.0030508 0.0001719
v 0.0067203 0.0030508 -0.0019788
v 0.0070762 0.0030508 -0.0000645
v 0.0075017 0.0030508 -0.0018961
v 0.0077262 0.0030508 -0.0001472
v 0.0077262 0.0030508 -0.0018961
v 0.0085770 0.0030508 -0.0018134
v 0.0083761 0.0030508 -0.0000645
v 0.0094042 0.0030508 -0.0015652
v 0.0089906 0.0030508 0.0001719
v 0.0101605 0.0030508 -0.0011635
v 0.0108238 0.0030508 -0.0006199
v 0.0095224 0.0030508 0.0005619
v 0.0113673 0.0030508 0.0000419
v 0.0099360 0.0030508 0.0010715
v 0.0117691 0.0030508 0.0007982
v 0.0102196 0.0030508 0.0016623
v 0.0120173 0.0030508 0.0016151
v 0.0103496 0.0030508 0.0023123
v 0.0121000 0.0030508 0.0024777
v 0.0103023 0.0030508 0.0029622
v 0.0121000 0.0030508 0.0121013
v 0.0101014 0.0030508 0.0035885
v 0.0097469 0.0030508 0.0041439
v 0.0092624 0.0030508 0.0045944
v 0.0086952 0.0030508 0.0049135
v -0.0121000 0.0030508 0.0121013
v -0.0080571 0.0030508 0.0050789
v -0.0086952 0.0030508 0.0049135
v -0.0092624 0.0030508 0.0045944
v -0.0097469 0.0030508 0.0041439
v -0.0101014 0.0030508 0.0035885
v -0.0121000 0.0030508 0.0024777
v -0.0103023 0.0030508 0.0029622
v -0.0103496 0.0030508 0.0023123
v -0.0120173 0.0030508 0.0016151
v -0.0102196 0.0030508 0.0016623
v -0.0117691 0.0030508 0.0007982
v -0.0113673 0.0030508 0.0000419
v -0.0099360 0.0030508 0.0010715
v -0.0108238 0.0030508 -0.0006199
v -0.0095224 0.0030508 0.0005619
v -0.0101605 0.0030508 -0.0011635
v -0.0089906 0.0030508 0.0001719
v -0.0094042 0.0030508 -0.0015652
v -0.0085770 0.0030508 -0.0018134
v -0.0077262 0.0030508 -0.0018961
v -0.0075017 0.0030508 -0.0018961
v -0.0067203 0.0030508 -0.0019788
v -0.0035060 0.0030508 -0.0059036
v -0.0035060 0.0030508 -0.0077013
v -0.0035060 0.0015500 -0.0059036
v -0.0035060 0.0015500 -0.0077013
v -0.0089906 0.0015500 0.0001719
v -0.0083761 0.0015500 -0.0000645
v -0.0083761 0.0030508 -0.0000645
v -0.0077262 0.0030508 -0.0001472
v -0.0077262 0.0015500 -0.0001472
v -0.0070762 0.0030508 -0.0000645
v -0.0070762 0.0015500 -0.0000645
v -0.0064603 0.0030508 0.0001719
v -0.0064603 0.0015500 0.0001719
v -0.0059285 0.0030508 0.0005619
v -0.0059285 0.0015500 0.0005619
v -0.0055031 0.0030508 0.0010715
v -0.0055031 0.0015500 0.0010715
v -0.0052313 0.0030508 0.0016623
v -0.0052313 0.0015500 0.0016623
v -0.0051013 0.0030508 0.0023123
v -0.0051013 0.0015500 0.0023123
v -0.0051486 0.0030508 0.0029622
v -0.0051486 0.0015500 0.0029622
v -0.0053495 0.0030508 0.0035885
v -0.0053495 0.0015500 0.0035885
v -0.0057040 0.0030508 0.0041439
v -0.0057040 0.0015500 0.0041439
v -0.0061767 0.0030508 0.0045944
v -0.0061767 0.0015500 0.0045944
v -0.0067557 0.0030508 0.0049135
v -0.0067557 0.0015500 0.0049135
v -0.0073953 0.0030508 0.0050789
v -0.0073953 0.0015500 0.0050789
v -0.0077262 0.0030508 0.0051026
v -0.0077262 0.0015500 0.0051026
v -0.0080571 0.0030508 0.0050789
v -0.0080571 0.0015500 0.0050789
v -0.0086952 0.0030508 0.0049135
v -0.0086952 0.0015500 0.0049135
v -0.0092624 0.0030508 0.0045944
v -0.0092624 0.0015500 0.0045944
v -0.0097469 0.0030508 0.0041439
v -0.0097469 0.0015500 0.0041439
v -0.0101014 0.0030508 0.0035885
v -0.0101014 0.0015500 0.0035885
v -0.0103023 0.0030508 0.0029622
v -0.0103023 0.0015500 0.0029622
v -0.0103496 0.0030508 0.0023123
v -0.0103496 0.0015500 0.0023123
v -0.0102196 0.0030508 0.0016623
v -0.0102196 0.0015500 0.0016623
v -0.0099360 0.0030508 0.0010715
v -0.0099360 0.0015500 0.0010715
v -0.0095224 0.0030508 0.0005619
v -0.0095224 0.0015500 0.0005619
v -0.0089906 0.0030508 0.0001719
v -0.0121000 0.0030508 0.0024777
v -0.0120173 0.0030508 0.0016151
v -0.0121000 0.0015500 0.0024777
v -0.0120173 0.0015500 0.0016151
v -0.0117691 0.0030508 0.0007982
v -0.0117691 0.0015500 0.0007982
v -0.0113673 0.0030508 0.0000419
v -0.0113673 0.0015500 0.0000419
v -0.0108238 0.0030508 -0.0006199
v -0.0108238 0.0015500 -0.0006199
v -0.0101605 0.0030508 -0.0011635
v -0.0101605 0.0015500 -0.0011635
v -0.0094042 0.0030508 -0.0015652
v -0.0094042 0.0015500 -0.0015652
v -0.0085770 0.0030508 -0.0018134
v -0.0085770 0.0015500 -0.0018134
v -0.0077262 0.0030508 -0.0018961
v -0.0077262 0.0015500 -0.0018961
v -0.0077262 0.0030508 -0.0018961
v -0.0075017 0.0030508 -0.0018961
v -0.0077262 0.0015500 -0.0018961
v -0.0075017 0.0015500 -0.0018961
v -0.0035060 0.0030508 -0.0059036
v -0.0035060 0.0015500 -0.0059036
v -0.0035769 0.0030508 -0.0051237
v -0.0035769 0.0015500 -0.0051237
v -0.0038014 0.0030508 -0.0043674
v -0.0038014 0.0015500 -0.0043674
v -0.0041796 0.0030508 -0.0036820
v -0.0041796 0.0015500 -0.0036820
v -0.0046759 0.0030508 -0.0030675
v -0.0046759 0.0015500 -0.0030675
v -0.0052786 0.0030508 -0.0025712
v -0.0052786 0.0015500 -0.0025712
v -0.0059640 0.0030508 -0.0022034
v -0.0059640 0.0015500 -0.0022034
v -0.0067203 0.0030508 -0.0019788
v -0.0075017 0.0015500 -0.0018961
v -0.0075017 0.0030508 -0.0018961
v -0.0067203 0.0015500 -0.0019788
v -0.0035060 0.0015500 -0.0077013
v -0.0031500 0.0015500 -0.0077013
v -0.0035060 0.0015500 -0.0059036
v -0.0035769 0.0015500 -0.0051237
v -0.0038014 0.0015500 -0.0043674
v -0.0041796 0.0015500 -0.0036820
v -0.0046759 0.0015500 -0.0030675
v 0.0053495 0.0015500 0.0035885
v 0.0057040 0.0015500 0.0041439
v -0.0121000 0.0015500 0.0121013
v 0.0061767 0.0015500 0.0045944
v 0.0067557 0.0015500 0.0049135
v 0.0121000 0.0015500 0.0121013
v 0.0073953 0.0015500 0.0050789
v 0.0077262 0.0015500 0.0051026
v 0.0080571 0.0015500 0.0050789
v 0.0086952 0.0015500 0.0049135
v 0.0092624 0.0015500 0.0045944
v 0.0097469 0.0015500 0.0041439
v 0.0101014 0.0015500 0.0035885
v 0.0121000 0.0015500 0.0024777
v 0.0103023 0.0015500 0.0029622
v 0.0103496 0.0015500 0.0023123
v 0.0120173 0.0015500 0.0016151
v 0.0102196 0.0015500 0.0016623
v 0.0117691 0.0015500 0.0007982
v 0.0113673 0.0015500 0.0000419
v 0.0099360 0.0015500 0.0010715
v 0.0108238 0.0015500 -0.0006199
v 0.0095224 0.0015500 0.0005619
v 0.0101605 0.0015500 -0.0011635
v 0.0089906 0.0015500 0.0001719
v 0.0094042 0.0015500 -0.0015652
v 0.0083761 0.0015500 -0.0000645
v 0.0085770 0.0015500 -0.0018134
v 0.0077262 0.0015500 -0.0018961
v 0.0077262 0.0015500 -0.0001472
v 0.0075017 0.0015500 -0.0018961
v 0.0067203 0.0015500 -0.0019788
v 0.0059640 0.0015500 -0.0022034
v 0.0035060 0.0015500 -0.0077013
v 0.0035060 0.0015500 -0.0059036
v 0.0031500 0.0015500 -0.0077013
v 0.0031500 0.0015500 -0.0018961
v 0.0035769 0.0015500 -0.0051237
v 0.0038014 0.0015500 -0.0043674
v 0.0041796 0.0015500 -0.0036820
v 0.0046759 0.0015500 -0.0030675
v 0.0052786 0.0015500 -0.0025712
v 0.0070762 0.0015500 -0.0000645
v 0.0064603 0.0015500 0.0001719
v 0.0059285 0.0015500 0.0005619
v -0.0031500 0.0015500 -0.0018961
v 0.0055031 0.0015500 0.0010715
v -0.0053495 0.0015500 0.0035885
v -0.0057040 0.0015500 0.0041439
v -0.0061767 0.0015500 0.0045944
v -0.0067557 0.0015500 0.0049135
v 0.0052313 0.0015500 0.0016623
v 0.0051013 0.0015500 0.0023123
v -0.0073953 0.0015500 0.0050789
v 0.0051486 0.0015500 0.0029622
v -0.0077262 0.0015500 0.0051026
v -0.0080571 0.0015500 0.0050789
v -0.0086952 0.0015500 0.0049135
v -0.0092624 0.0015500 0.0045944
v -0.0097469 0.0015500 0.0041439
v -0.0101014 0.0015500 0.0035885
v -0.0103023 0.0015500 0.0029622
v -0.0121000 0.0015500 0.0024777
v -0.0103496 0.0015500 0.0023123
v -0.0120173 0.0015500 0.0016151
v -0.0102196 0.0015500 0.0016623
v -0.0117691 0.0015500 0.0007982
v -0.0099360 0.0015500 0.0010715
v -0.0113673 0.0015500 0.0000419
v -0.0095224 0.0015500 0.0005619
v -0.0108238 0.0015500 -0.0006199
v -0.0089906 0.0015500 0.0001719
v -0.0101605 0.0015500 -0.0011635
v -0.0094042 0.0015500 -0.0015652
v -0.0083761 0.0015500 -0.0000645
v -0.0085770 0.0015500 -0.0018134
v -0.0077262 0.0015500 -0.0001472
v -0.0077262 0.0015500 -0.0018961
v -0.0075017 0.0015500 -0.0018961
v -0.0070762 0.0015500 -0.0000645
v -0.0067203 0.0015500 -0.0019788
v -0.0064603 0.0015500 0.0001719
v -0.0059640 0.0015500 -0.0022034
v -0.0052786 0.0015500 -0.0025712
v -0.0059285 0.0015500 0.0005619
v -0.0055031 0.0015500 0.0010715
v -0.0052313 0.0015500 0.0016623
v -0.0051013 0.0015500 0.0023123
v -0.0051486 0.0015500 0.0029622
v 0.0075017 0.0030508 -0.0018961
v 0.0075017 0.0015500 -0.0018961
v 0.0067203 0.0030508 -0.0019788
v 0.0067203 0.0015500 -0.0019788
v 0.0059640 0.0030508 -0.0022034
v 0.0059640 0.0015500 -0.0022034
v 0.0052786 0.0030508 -0.0025712
v 0.0052786 0.0015500 -0.0025712
v 0.0046759 0.0030508 -0.0030675
v 0.0046759 0.0015500 -0.0030675
v 0.0041796 0.0030508 -0.0036820
v 0.0041796 0.0015500 -0.0036820
v 0.0038014 0.0030508 -0.0043674
v 0.0038014 0.0015500 -0.0043674
v 0.0035769 0.0030508 -0.0051237
v 0.0035769 0.0015500 -0.0051237
v 0.0035060 0.0030508 -0.0059036
v 0.0035060 0.0015500 -0.0059036
v 0.0035060 0.0015500 -0.0059036
v 0.0035060 0.0015500 -0.0077013
v 0.0035060 0.0030508 -0.0059036
v 0.0035060 0.0030508 -0.0077013
v -0.0121000 0.0030508 0.0121013
v -0.0121000 0.0030508 0.0024777
v -0.0121000 0.0015500 0.0121013
v -0.0121000 0.0015500 0.0024777
vn 0.9998938 0.0 -0.0145727
vn 1.0 0.0 0.0
vn 0.9999915 0.0 -0.0041124
vn 0.0 0.0 1.0
vn 0.0 0.0 -1.0
vn 0.9870214 0.0 -0.1605885
vn 0.9741334 0.0 -0.2259737
vn 0.9360827 0.0 -0.35178
vn 0.9114047 0.0 -0.4115112
vn 0.8500826 0.0 -0.5266493
vn 0.8131493 0.0 -0.5820552
vn 0.7295762 0.0 -0.6838995
vn 0.6830637 0.0 -0.7303588
vn 0.5815263 0.0 -0.8135276
vn 0.5263587 0.0 -0.8502626
vn 0.40994 0.0 -0.9121125
vn 0.3491077 0.0 -0.9370826
vn 0.2252202 0.0 -0.9743079
vn 0.1614112 0.0 -0.9868872
vn 0.0855581 0.0 -0.9963332
vn 0.0634968 0.0 -0.997982
vn -0.2054178 0.0 0.9786744
vn 0.0423743 0.0 0.9991018
vn -0.0423765 0.0 0.9991017
vn 0.2052535 0.0 0.9787088
vn 0.2831182 0.0 0.959085
vn 0.4394549 0.0 0.8982646
vn 0.5177507 0.0 0.8555316
vn 0.6546792 0.0 0.7559068
vn 0.7138116 0.0 0.7003377
vn 0.8202837 0.0 0.5719568
vn 0.8676679 0.0 0.4971442
vn 0.9385424 0.0 0.3451639
vn 0.9626493 0.0 0.2707515
vn 0.9941031 0.0 0.1084393
vn 0.9998352 0.0 0.0181527
vn 0.9884351 0.0 -0.1516446
vn 0.9732512 0.0 -0.2297436
vn 0.9225386 0.0 -0.3859048
vn 0.8858335 0.0 -0.4640032
vn 0.7973632 0.0 -0.6034997
vn 0.746054 0.0 -0.6658855
vn 0.6248762 0.0 -0.7807239
vn 0.5552532 0.0 -0.8316813
vn 0.4081166 0.0 -0.9129298
vn 0.3301377 0.0 -0.9439328
vn 0.2150226 0.0 -0.9766091
vn 0.1613731 0.0 -0.9868935
vn 0.0238675 0.0 -0.9997151
vn -0.0238675 0.0 -0.9997151
vn -0.1615544 0.0 -0.9868638
vn -0.2154054 0.0 -0.9765247
vn -0.3324963 0.0 -0.9431046
vn -0.4129162 0.0 -0.910769
vn -0.5580432 0.0 -0.8298119
vn -0.6219373 0.0 -0.783067
vn -0.7400665 0.0 -0.6725337
vn -0.7944647 0.0 -0.6073103
vn -0.8858335 0.0 -0.4640032
vn -0.9225386 0.0 -0.3859048
vn -0.9732512 0.0 -0.2297436
vn -0.9884351 0.0 -0.1516446
vn -0.9998352 0.0 0.0181527
vn -0.9941031 0.0 0.1084393
vn -0.96107 0.0 0.2763051
vn -0.9345815 0.0 0.3557492
vn -0.8650525 0.0 0.5016813
vn -0.823104 0.0 0.5678906
vn -0.7198115 0.0 0.6941696
vn -0.6576521 0.0 0.7533218
vn -0.5180667 0.0 0.8553402
vn -0.4400185 0.0 0.8979887
vn -0.28352 0.0 0.9589663
vn 0.0819385 0.0 -0.9966374
vn 0.0 1.0 0.0
vn -0.9996219 0.0 -0.0274958
vn -1.0 0.0 0.0
vn 0.4400185 0.0 0.8979887
vn 0.2054178 0.0 0.9786744
vn 0.28352 0.0 0.9589663
vn 0.0423765 0.0 0.9991017
vn -0.0423743 0.0 0.9991018
vn -0.2052535 0.0 0.9787088
vn -0.2831182 0.0 0.959085
vn -0.4394549 0.0 0.8982646
vn -0.5177507 0.0 0.8555316
vn -0.6546792 0.0 0.7559068
vn -0.7138116 0.0 0.7003377
vn -0.8202837 0.0 0.5719568
vn -0.8676679 0.0 0.4971442
vn -0.9385424 0.0 0.3451639
vn -0.9626493 0.0 0.2707515
vn -0.7973632 0.0 -0.6034997
vn -0.746054 0.0 -0.6658855
vn -0.6248762 0.0 -0.7807239
vn -0.5552532 0.0 -0.8316813
vn -0.4081166 0.0 -0.9129298
vn -0.3301377 0.0 -0.9439328
vn -0.2150226 0.0 -0.9766091
vn -0.1613731 0.0 -0.9868935
vn 0.1615544 0.0 -0.9868638
vn 0.2154054 0.0 -0.9765247
vn 0.3324963 0.0 -0.9431046
vn 0.4129162 0.0 -0.910769
vn 0.5580432 0.0 -0.8298119
vn 0.6219373 0.0 -0.783067
vn 0.7400665 0.0 -0.6725337
vn 0.7944647 0.0 -0.6073103
vn 0.96107 0.0 0.2763051
vn 0.9345815 0.0 0.3557492
vn 0.8650525 0.0 0.5016813
vn 0.823104 0.0 0.5678906
vn 0.7198115 0.0 0.6941696
vn 0.6576521 0.0 0.7533218
vn 0.5180667 0.0 0.8553402
vn -0.9999915 0.0 -0.0041124
vn -0.9870214 0.0 -0.1605885
vn -0.9998938 0.0 -0.0145727
vn -0.9741334 0.0 -0.2259737
vn -0.9360827 0.0 -0.35178
vn -0.9114047 0.0 -0.4115112
vn -0.8500826 0.0 -0.5266493
vn -0.8131493 0.0 -0.5820552
vn -0.7295762 0.0 -0.6838995
vn -0.6830637 0.0 -0.7303588
vn -0.5815263 0.0 -0.8135276
vn -0.5263587 0.0 -0.8502626
vn -0.40994 0.0 -0.9121125
vn -0.3491077 0.0 -0.9370826
vn -0.2252202 0.0 -0.9743079
vn -0.1614112 0.0 -0.9868872
vn -0.0855581 0.0 -0.9963332
vn -0.0634968 0.0 -0.997982
vn -0.0819385 0.0 -0.9966374
vn -0.9877235 0.0 -0.1562122
vn -0.975236 0.0 -0.2211669
vn -0.9359156 0.0 -0.3522245
vn -0.9080955 0.0 -0.4187631
vn -0.8457146 0.0 -0.5336355
vn -0.8130557 0.0 -0.5821859
vn -0.7342272 0.0 -0.6789038
vn -0.6866097 0.0 -0.7270262
vn -0.5840287 0.0 -0.811733
vn -0.5295236 0.0 -0.8482952
vn -0.4114352 0.0 -0.911439
vn -0.3484114 0.0 -0.9373417
vn -0.2258735 0.0 -0.9741566
vn -0.16584 0.0 -0.9861527
vn 0.0 -1.0 0.0
vn 0.16584 0.0 -0.9861527
vn 0.2258735 0.0 -0.9741566
vn 0.3484114 0.0 -0.9373417
vn 0.4114352 0.0 -0.911439
vn 0.5295236 0.0 -0.8482952
vn 0.5840287 0.0 -0.811733
vn 0.6866097 0.0 -0.7270262
vn 0.7342272 0.0 -0.6789038
vn 0.8130557 0.0 -0.5821859
vn 0.8457146 0.0 -0.5336355
vn 0.9080955 0.0 -0.4187631
vn 0.9359156 0.0 -0.3522245
vn 0.975236 0.0 -0.2211669
vn 0.9877235 0.0 -0.1562122
vn 0.9996219 0.0 -0.0274958
vn 0.0 0.9997907 -0.0204572
vn 0.0 0.9999834 -0.0057546
vn 0.0 0.0094118 -0.9999557
vn 0.0 0.2179029 -0.9759704
vn 0.0 0.2986827 -0.9543525
vn 0.0 0.456348 -0.8898014
vn 0.0 0.5330801 -0.8460648
vn 0.0 0.6744105 -0.7383566
vn 0.0 0.7383566 -0.6744105
vn 0.0 0.9905927 -0.1368432
vn 0.0 0.9759341 -0.2180659
vn 0.0 0.9544208 -0.2984641
vn 0.0 0.8901222 -0.455722
vn 0.0 0.8462845 -0.5327312
vn 0.0 0.1368432 -0.9905927
vn 0.0 0.2194877 -0.9756153
vn 0.0 0.3022955 -0.9532143
vn 0.0 0.4608782 -0.8874634
vn 0.0 0.5350644 -0.8448113
vn 0.0 0.6708257 -0.7416151
vn 0.0 0.7322998 -0.6809824
vn 0.0 0.9759219 -0.2181202
vn 0.0 0.9543753 -0.2986098
vn 0.0 0.8876653 -0.4604892
vn 0.0 0.8410036 -0.5410295
vn 0.0 0.0048724 -0.9999881
vn 0.0 0.0176184 -0.9998448
vn 0.0 0.8315637 -0.5554293
vn 0.0 0.8912955 0.4534228
vn 0.0 0.9065703 0.4220549
vn 0.0 0.9207785 0.3900858
vn 0.0 0.9460387 0.3240537
vn 0.0 0.957002 0.2900814
vn 0.0 0.9747442 0.2233245
vn 0.0 0.9816959 0.1904553
vn 0.0 0.9924375 0.1227514
vn 0.0 0.996121 0.0879941
vn 0.0 0.9985837 0.0532029
vn 0.0 -0.9985837 0.0532029
vn 0.0 -0.9961954 0.0871482
vn 0.0 -0.9926439 0.1210709
vn 0.0 -0.98186 0.1896072
vn 0.0 -0.9745705 0.2240812
vn 0.0 -0.9565358 0.291615
vn 0.0 -0.9457687 0.3248408
vn 0.0 -0.9207588 0.3901324
vn 0.0 -0.9065598 0.4220775
vn 0.0 -0.8912955 0.4534228
f 1//1 2//2 3//3
f 2//2 4//2 3//3
f 5//4 6//4 7//4
f 6//4 8//4 7//4
f 9//5 10//5 11//5
f 10//5 12//5 11//5
f 13//5 14//5 15//5
f 14//5 16//5 15//5
f 17//3 18//6 19//1
f 19//1 18//6 20//7
f 18//6 21//8 20//7
f 20//7 21//8 22//9
f 21//8 23//10 22//9
f 22//9 23//10 24//11
f 23//10 25//12 24//11
f 24//11 25//12 26//13
f 25//12 27//14 26//13
f 26//13 27//14 28//15
f 27//14 29//16 28//15
f 28//15 29//16 30//17
f 29//16 31//18 30//17
f 30//17 31//18 32//19
f 31//18 33//20 32//19
f 33//20 34//21 32//19
f 35//22 36//23 37//24
f 37//24 36//23 38//25
f 36//23 39//26 38//25
f 38//25 39//26 40//27
f 39//26 41//28 40//27
f 40//27 41//28 42//29
f 41//28 43//30 42//29
f 42//29 43//30 44//31
f 43//30 45//32 44//31
f 44//31 45//32 46//33
f 45//32 47//34 46//33
f 46//33 47//34 48//35
f 47//34 49//36 48//35
f 48//35 49//36 50//37
f 49//36 51//38 50//37
f 50//37 51//38 52//39
f 51//38 53//40 52//39
f 52//39 53//40 54//41
f 53//40 55//42 54//41
f 54//41 55//42 56//43
f 55//42 57//44 56//43
f 56//43 57//44 58//45
f 57//44 59//46 58//45
f 58//45 59//46 60//47
f 59//46 61//48 60//47
f 60//47 61//48 62//49
f 61//48 63//50 62//49
f 62//49 63//50 64//51
f 63//50 65//52 64//51
f 64//51 65//52 66//53
f 65//52 67//54 66//53
f 66//53 67//54 68//55
f 67//54 69//56 68//55
f 68//55 69//56 70//57
f 69//56 71//58 70//57
f 70//57 71//58 72//59
f 71//58 73//60 72//59
f 72//59 73//60 74//61
f 73//60 75//62 74//61
f 74//61 75//62 76//63
f 75//62 77//64 76//63
f 76//63 77//64 78//65
f 77//64 79//66 78//65
f 78//65 79//66 80//67
f 79//66 81//68 80//67
f 80//67 81//68 82//69
f 81//68 83//70 82//69
f 82//69 83//70 84//71
f 83//70 85//72 84//71
f 84//71 85//72 86//73
f 85//72 35//22 86//73
f 35//22 37//24 86//73
f 87//20 88//74 89//21
f 88//74 90//74 89//21
f 91//75 92//75 93//75
f 92//75 94//75 93//75
f 93//75 94//75 95//75
f 94//75 96//75 95//75
f 96//75 97//75 95//75
f 97//75 98//75 95//75
f 95//75 98//75 99//75
f 98//75 100//75 99//75
f 101//75 102//75 103//75
f 102//75 99//75 103//75
f 99//75 100//75 103//75
f 100//75 104//75 103//75
f 104//75 105//75 103//75
f 105//75 106//75 103//75
f 106//75 107//75 103//75
f 108//75 109//75 110//75
f 109//75 111//75 110//75
f 112//75 113//75 114//75
f 113//75 115//75 114//75
f 116//75 117//75 118//75
f 117//75 119//75 118//75
f 120//75 121//75 122//75
f 122//75 121//75 123//75
f 123//75 121//75 124//75
f 124//75 121//75 125//75
f 121//75 126//75 125//75
f 125//75 126//75 127//75
f 126//75 118//75 127//75
f 127//75 118//75 128//75
f 129//75 130//75 131//75
f 131//75 130//75 132//75
f 130//75 133//75 132//75
f 133//75 134//75 132//75
f 134//75 135//75 132//75
f 135//75 136//75 132//75
f 136//75 137//75 132//75
f 137//75 138//75 132//75
f 138//75 139//75 132//75
f 139//75 140//75 132//75
f 140//75 141//75 132//75
f 141//75 142//75 132//75
f 142//75 143//75 132//75
f 132//75 143//75 144//75
f 143//75 145//75 144//75
f 145//75 146//75 144//75
f 146//75 147//75 144//75
f 147//75 128//75 144//75
f 128//75 118//75 144//75
f 118//75 119//75 144//75
f 119//75 114//75 144//75
f 148//75 149//75 150//75
f 149//75 144//75 150//75
f 150//75 144//75 151//75
f 151//75 144//75 152//75
f 152//75 144//75 153//75
f 153//75 144//75 154//75
f 144//75 114//75 154//75
f 114//75 115//75 154//75
f 154//75 115//75 155//75
f 115//75 110//75 155//75
f 155//75 110//75 156//75
f 110//75 111//75 156//75
f 111//75 103//75 156//75
f 103//75 107//75 156//75
f 107//75 157//75 156//75
f 157//75 158//75 156//75
f 156//75 158//75 159//75
f 158//75 160//75 159//75
f 159//75 160//75 161//75
f 160//75 162//75 161//75
f 161//75 162//75 163//75
f 163//75 162//75 164//75
f 162//75 165//75 164//75
f 164//75 165//75 166//75
f 165//75 167//75 166//75
f 166//75 167//75 168//75
f 168//75 167//75 169//75
f 167//75 170//75 169//75
f 169//75 170//75 171//75
f 170//75 172//75 171//75
f 171//75 172//75 173//75
f 172//75 174//75 173//75
f 173//75 174//75 175//75
f 174//75 176//75 175//75
f 175//75 176//75 177//75
f 176//75 178//75 177//75
f 177//75 178//75 179//75
f 178//75 180//75 179//75
f 180//75 181//75 179//75
f 181//75 182//75 179//75
f 182//75 183//75 179//75
f 183//75 91//75 179//75
f 91//75 93//75 179//75
f 179//75 93//75 184//75
f 93//75 121//75 184//75
f 121//75 120//75 184//75
f 120//75 185//75 184//75
f 185//75 186//75 184//75
f 186//75 187//75 184//75
f 187//75 188//75 184//75
f 188//75 189//75 184//75
f 184//75 189//75 190//75
f 189//75 191//75 190//75
f 191//75 192//75 190//75
f 190//75 192//75 193//75
f 192//75 194//75 193//75
f 193//75 194//75 195//75
f 195//75 194//75 196//75
f 194//75 197//75 196//75
f 196//75 197//75 198//75
f 197//75 199//75 198//75
f 198//75 199//75 200//75
f 199//75 201//75 200//75
f 200//75 201//75 202//75
f 201//75 139//75 202//75
f 202//75 139//75 203//75
f 203//75 139//75 204//75
f 204//75 139//75 205//75
f 205//75 139//75 206//75
f 139//75 138//75 206//75
f 207//76 208//77 209//76
f 208//77 210//77 209//76
f 211//78 212//79 213//80
f 213//80 212//79 214//81
f 212//79 215//82 214//81
f 214//81 215//82 216//83
f 215//82 217//84 216//83
f 216//83 217//84 218//85
f 217//84 219//86 218//85
f 218//85 219//86 220//87
f 219//86 221//88 220//87
f 220//87 221//88 222//89
f 221//88 223//90 222//89
f 222//89 223//90 224//91
f 223//90 225//92 224//91
f 224//91 225//92 226//64
f 225//92 227//63 226//64
f 226//64 227//63 228//62
f 227//63 229//61 228//62
f 228//62 229//61 230//60
f 229//61 231//59 230//60
f 230//60 231//59 232//93
f 231//59 233//94 232//93
f 232//93 233//94 234//95
f 233//94 235//96 234//95
f 234//95 235//96 236//97
f 235//96 237//98 236//97
f 236//97 237//98 238//99
f 237//98 239//100 238//99
f 238//99 239//100 240//50
f 239//100 241//49 240//50
f 240//50 241//49 242//101
f 241//49 243//102 242//101
f 242//101 243//102 244//103
f 243//102 245//104 244//103
f 244//103 245//104 246//105
f 245//104 247//106 246//105
f 246//105 247//106 248//107
f 247//106 249//108 248//107
f 248//107 249//108 250//40
f 249//108 251//39 250//40
f 250//40 251//39 252//38
f 251//39 253//37 252//38
f 252//38 253//37 254//36
f 253//37 255//35 254//36
f 254//36 255//35 256//109
f 255//35 257//110 256//109
f 256//109 257//110 258//111
f 257//110 259//112 258//111
f 258//111 259//112 260//113
f 259//112 261//114 260//113
f 260//113 261//114 262//115
f 261//114 211//78 262//115
f 211//78 213//80 262//115
f 263//116 264//117 265//118
f 265//118 264//117 266//119
f 264//117 267//120 266//119
f 266//119 267//120 268//121
f 267//120 269//122 268//121
f 268//121 269//122 270//123
f 269//122 271//124 270//123
f 270//123 271//124 272//125
f 271//124 273//126 272//125
f 272//125 273//126 274//127
f 273//126 275//128 274//127
f 274//127 275//128 276//129
f 275//128 277//130 276//129
f 276//129 277//130 278//131
f 277//130 279//132 278//131
f 279//132 280//133 278//131
f 281//132 282//134 283//133
f 282//134 284//134 283//133
f 285//76 286//76 287//135
f 286//76 288//136 287//135
f 287//135 288//136 289//137
f 288//136 290//138 289//137
f 289//137 290//138 291//139
f 290//138 292//140 291//139
f 291//139 292//140 293//141
f 292//140 294//142 293//141
f 293//141 294//142 295//143
f 294//142 296//144 295//143
f 295//143 296//144 297//145
f 296//144 298//146 297//145
f 297//145 298//146 299//147
f 300//134 301//134 302//148
f 301//134 299//147 302//148
f 299//147 298//146 302//148
f 303//149 304//149 305//149
f 304//149 355//149 305//149
f 305//149 355//149 306//149
f 306//149 355//149 307//149
f 307//149 355//149 308//149
f 308//149 355//149 309//149
f 310//149 311//149 312//149
f 311//149 313//149 312//149
f 313//149 314//149 312//149
f 312//149 314//149 315//149
f 314//149 316//149 315//149
f 316//149 317//149 315//149
f 317//149 318//149 315//149
f 318//149 319//149 315//149
f 319//149 320//149 315//149
f 320//149 321//149 315//149
f 321//149 322//149 315//149
f 315//149 322//149 323//149
f 322//149 324//149 323//149
f 324//149 325//149 323//149
f 323//149 325//149 326//149
f 325//149 327//149 326//149
f 326//149 327//149 328//149
f 328//149 327//149 329//149
f 327//149 330//149 329//149
f 329//149 330//149 331//149
f 330//149 332//149 331//149
f 331//149 332//149 333//149
f 332//149 334//149 333//149
f 333//149 334//149 335//149
f 334//149 336//149 335//149
f 335//149 336//149 337//149
f 337//149 336//149 338//149
f 336//149 339//149 338//149
f 338//149 339//149 340//149
f 340//149 339//149 341//149
f 341//149 339//149 342//149
f 343//149 344//149 345//149
f 345//149 344//149 346//149
f 344//149 347//149 346//149
f 347//149 348//149 346//149
f 348//149 349//149 346//149
f 349//149 350//149 346//149
f 350//149 351//149 346//149
f 351//149 342//149 346//149
f 342//149 339//149 346//149
f 339//149 352//149 346//149
f 352//149 353//149 346//149
f 353//149 354//149 346//149
f 346//149 354//149 355//149
f 354//149 356//149 355//149
f 355//149 356//149 357//149
f 357//149 356//149 358//149
f 358//149 356//149 359//149
f 359//149 356//149 360//149
f 356//149 361//149 360//149
f 361//149 362//149 360//149
f 360//149 362//149 363//149
f 362//149 364//149 363//149
f 364//149 310//149 363//149
f 310//149 312//149 363//149
f 363//149 312//149 365//149
f 365//149 312//149 366//149
f 366//149 312//149 367//149
f 367//149 312//149 368//149
f 368//149 312//149 369//149
f 369//149 312//149 370//149
f 370//149 312//149 371//149
f 312//149 372//149 371//149
f 371//149 372//149 373//149
f 372//149 374//149 373//149
f 373//149 374//149 375//149
f 374//149 376//149 375//149
f 375//149 376//149 377//149
f 376//149 378//149 377//149
f 377//149 378//149 379//149
f 378//149 380//149 379//149
f 379//149 380//149 381//149
f 380//149 382//149 381//149
f 382//149 383//149 381//149
f 381//149 383//149 384//149
f 383//149 385//149 384//149
f 384//149 385//149 386//149
f 385//149 387//149 386//149
f 387//149 388//149 386//149
f 386//149 388//149 389//149
f 388//149 390//149 389//149
f 389//149 390//149 391//149
f 390//149 392//149 391//149
f 392//149 393//149 391//149
f 393//149 309//149 391//149
f 391//149 309//149 394//149
f 309//149 355//149 394//149
f 394//149 355//149 395//149
f 395//149 355//149 396//149
f 396//149 355//149 397//149
f 397//149 355//149 398//149
f 355//149 357//149 398//149
f 399//74 400//74 401//150
f 400//74 402//151 401//150
f 401//150 402//151 403//152
f 402//151 404//153 403//152
f 403//152 404//153 405//154
f 404//153 406//155 405//154
f 405//154 406//155 407//156
f 406//155 408//157 407//156
f 407//156 408//157 409//158
f 408//157 410//159 409//158
f 409//158 410//159 411//160
f 410//159 412//161 411//160
f 411//160 412//161 413//162
f 412//161 414//163 413//162
f 413//162 414//163 415//164
f 414//163 416//164 415//164
f 417//164 418//2 419//164
f 418//2 420//2 419//164
f 421//77 422//116 423//77
f 422//116 424//118 423//77
usemtl material_1
v -0.0023000 0.0035512 0.0042499
v -0.0023000 0.0035512 0.0057487
v -0.0017988 0.0035512 0.0042499
v -0.0017988 0.0035512 0.0057487
v -0.0017988 0.0035512 0.0057487
v -0.0023000 0.0035512 0.0057487
v -0.0017988 0.0053330 0.0057487
v -0.0023000 0.0053330 0.0057487
v -0.0023000 0.0054636 0.0057667
v -0.0017988 0.0054636 0.0057667
v -0.0023000 0.0055849 0.0058161
v -0.0017988 0.0055849 0.0058161
v -0.0023000 0.0056882 0.0058947
v -0.0017988 0.0056882 0.0058947
v -0.0017988 0.0058342 0.0062499
v -0.0017988 0.0058162 0.0061196
v -0.0023000 0.0058342 0.0062499
v -0.0023000 0.0058162 0.0061196
v -0.0017988 0.0057668 0.0059980
v -0.0023000 0.0057668 0.0059980
v -0.0017988 0.0056882 0.0058947
v -0.0017988 0.0057668 0.0059980
v -0.0017988 0.0055849 0.0058161
v -0.0017988 0.0054636 0.0057667
v -0.0017988 0.0058162 0.0061196
v -0.0017988 0.0058342 0.0062499
v -0.0017988 0.0053330 0.0057487
v -0.0017988 0.0035512 0.0057487
v -0.0017988 0.0030500 0.0062499
v -0.0017988 0.0035512 0.0042499
v -0.0017988 0.0030500 0.0037487
v -0.0017988 0.0031803 0.0037667
v -0.0017988 0.0035332 0.0041196
v -0.0017988 0.0034838 0.0039981
v -0.0017988 0.0032993 0.0038161
v -0.0017988 0.0034029 0.0038947
v -0.0023000 0.0056882 0.0058947
v -0.0023000 0.0055849 0.0058161
v -0.0023000 0.0057668 0.0059980
v -0.0023000 0.0054636 0.0057667
v -0.0023000 0.0058162 0.0061196
v -0.0023000 0.0058342 0.0062499
v -0.0023000 0.0053330 0.0057487
v -0.0023000 0.0030500 0.0062499
v -0.0023000 0.0035512 0.0057487
v -0.0023000 0.0030500 0.0037487
v -0.0023000 0.0035512 0.0042499
v -0.0023000 0.0031803 0.0037667
v -0.0023000 0.0035332 0.0041196
v -0.0023000 0.0034838 0.0039981
v -0.0023000 0.0032993 0.0038161
v -0.0023000 0.0034029 0.0038947
v -0.0023000 0.0030500 0.0037487
v -0.0023000 0.0031803 0.0037667
v -0.0017988 0.0030500 0.0037487
v -0.0017988 0.0031803 0.0037667
v -0.0023000 0.0032993 0.0038161
v -0.0017988 0.0032993 0.0038161
v -0.0023000 0.0034029 0.0038947
v -0.0017988 0.0034029 0.0038947
v -0.0017988 0.0035512 0.0042499
v -0.0017988 0.0035332 0.0041196
v -0.0023000 0.0035512 0.0042499
v -0.0023000 0.0035332 0.0041196
v -0.0017988 0.0034838 0.0039981
v -0.0023000 0.0034838 0.0039981
v -0.0002506 0.0035512 0.0042499
v -0.0002506 0.0035512 0.0057487
v 0.0002506 0.0035512 0.0042499
v 0.0002506 0.0035512 0.0057487
v 0.0002506 0.0035512 0.0057487
v -0.0002506 0.0035512 0.0057487
v 0.0002506 0.0053330 0.0057487
v -0.0002506 0.0053330 0.0057487
v -0.0002506 0.0054636 0.0057667
v 0.0002506 0.0054636 0.0057667
v -0.0002506 0.0055849 0.0058161
v 0.0002506 0.0055849 0.0058161
v -0.0002506 0.0056882 0.0058947
v 0.0002506 0.0056882 0.0058947
v 0.0002506 0.0058342 0.0062499
v 0.0002506 0.0058162 0.0061196
v -0.0002506 0.0058342 0.0062499
v -0.0002506 0.0058162 0.0061196
v 0.0002506 0.0057668 0.0059980
v -0.0002506 0.0057668 0.0059980
v 0.0002506 0.0056882 0.0058947
v 0.0002506 0.0057668 0.0059980
v 0.0002506 0.0055849 0.0058161
v 0.0002506 0.0054636 0.0057667
v 0.0002506 0.0058162 0.0061196
v 0.0002506 0.0058342 0.0062499
v 0.0002506 0.0053330 0.0057487
v 0.0002506 0.0035512 0.0057487
v 0.0002506 0.0030500 0.0062499
v 0.0002506 0.0035512 0.0042499
v 0.0002506 0.0030500 0.0037487
v 0.0002506 0.0031803 0.0037667
v 0.0002506 0.0035332 0.0041196
v 0.0002506 0.0034838 0.0039981
v 0.0002506 0.0032993 0.0038161
v 0.0002506 0.0034029 0.0038947
v -0.0002506 0.0056882 0.0058947
v -0.0002506 0.0055849 0.0058161
v -0.0002506 0.0057668 0.0059980
v -0.0002506 0.0054636 0.0057667
v -0.0002506 0.0058162 0.0061196
v -0.0002506 0.0058342 0.0062499
v -0.0002506 0.0053330 0.0057487
v -0.0002506 0.0030500 0.0062499
v -0.0002506 0.0035512 0.0057487
v -0.0002506 0.0030500 0.0037487
v -0.0002506 0.0035512 0.0042499
v -0.0002506 0.0031803 0.0037667
v -0.0002506 0.0035332 0.0041196
v -0.0002506 0.0034838 0.0039981
v -0.0002506 0.0032993 0.0038161
v -0.0002506 0.0034029 0.0038947
v -0.0002506 0.0030500 0.0037487
v -0.0002506 0.0031803 0.0037667
v 0.0002506 0.0030500 0.0037487
v 0.0002506 0.0031803 0.0037667
v -0.0002506 0.0032993 0.0038161
v 0.0002506 0.0032993 0.0038161
v -0.0002506 0.0034029 0.0038947
v 0.0002506 0.0034029 0.0038947
v 0.0002506 0.0035512 0.0042499
v 0.0002506 0.0035332 0.0041196
v -0.0002506 0.0035512 0.0042499
v -0.0002506 0.0035332 0.0041196
v 0.0002506 0.0034838 0.0039981
v -0.0002506 0.0034838 0.0039981
v 0.0017988 0.0035512 0.0057487
v 0.0017988 0.0053330 0.0057487
v 0.0023000 0.0035512 0.0057487
v 0.0023000 0.0053330 0.0057487
v 0.0023000 0.0035512 0.0057487
v 0.0023000 0.0035512 0.0042499
v 0.0017988 0.0035512 0.0057487
v 0.0017988 0.0035512 0.0042499
v 0.0017988 0.0030500 0.0037487
v 0.0017988 0.0031803 0.0037667
v 0.0023000 0.0030500 0.0037487
v 0.0023000 0.0031803 0.0037667
v 0.0017988 0.0032993 0.0038161
v 0.0023000 0.0032993 0.0038161
v 0.0017988 0.0034029 0.0038947
v 0.0023000 0.0034029 0.0038947
v 0.0023000 0.0035512 0.0042499
v 0.0023000 0.0035332 0.0041196
v 0.0017988 0.0035512 0.0042499
v 0.0017988 0.0035332 0.0041196
v 0.0023000 0.0034838 0.0039981
v 0.0017988 0.0034838 0.0039981
v 0.0017988 0.0034029 0.0038947
v 0.0017988 0.0032993 0.0038161
v 0.0017988 0.0034838 0.0039981
v 0.0017988 0.0031803 0.0037667
v 0.0017988 0.0035332 0.0041196
v 0.0017988 0.0035512 0.0042499
v 0.0017988 0.0030500 0.0037487
v 0.0017988 0.0035512 0.0057487
v 0.0017988 0.0030500 0.0062499
v 0.0017988 0.0053330 0.0057487
v 0.0017988 0.0058342 0.0062499
v 0.0017988 0.0054636 0.0057667
v 0.0017988 0.0055849 0.0058161
v 0.0017988 0.0056882 0.0058947
v 0.0017988 0.0057668 0.0059980
v 0.0017988 0.0058162 0.0061196
v 0.0023000 0.0034029 0.0038947
v 0.0023000 0.0034838 0.0039981
v 0.0023000 0.0032993 0.0038161
v 0.0023000 0.0031803 0.0037667
v 0.0023000 0.0035332 0.0041196
v 0.0023000 0.0035512 0.0042499
v 0.0023000 0.0030500 0.0037487
v 0.0023000 0.0030500 0.0062499
v 0.0023000 0.0035512 0.0057487
v 0.0023000 0.0058342 0.0062499
v 0.0023000 0.0053330 0.0057487
v 0.0023000 0.0058162 0.0061196
v 0.0023000 0.0057668 0.0059980
v 0.0023000 0.0056882 0.0058947
v 0.0023000 0.0055849 0.0058161
v 0.0023000 0.0054636 0.0057667
v 0.0023000 0.0058342 0.0062499
v 0.0023000 0.0058162 0.0061196
v 0.0017988 0.0058342 0.0062499
v 0.0017988 0.0058162 0.0061196
v 0.0017988 0.0053330 0.0057487
v 0.0017988 0.0054636 0.0057667
v 0.0023000 0.0053330 0.0057487
v 0.0023000 0.0054636 0.0057667
v 0.0017988 0.0055849 0.0058161
v 0.0023000 0.0055849 0.0058161
v 0.0017988 0.0056882 0.0058947
v 0.0023000 0.0056882 0.0058947
v 0.0017988 0.0057668 0.0059980
v 0.0023000 0.0057668 0.0059980
f 425//165 426//75 427//166
f 426//75 428//75 427//166
f 429//5 430//5 431//167
f 430//5 432//167 431//167
f 432//167 433//168 431//167
f 431//167 433//168 434//169
f 433//168 435//170 434//169
f 434//169 435//170 436//171
f 435//170 437//172 436//171
f 436//171 437//172 438//173
f 439//174 440//175 441//174
f 441//174 440//175 442//176
f 440//175 443//177 442//176
f 442//176 443//177 444//178
f 443//177 438//173 444//178
f 438//173 437//172 444//178
f 445//2 446//2 447//2
f 447//2 446//2 448//2
f 446//2 449//2 448//2
f 449//2 450//2 448//2
f 448//2 450//2 451//2
f 451//2 450//2 452//2
f 450//2 453//2 452//2
f 452//2 453//2 454//2
f 453//2 455//2 454//2
f 455//2 456//2 454//2
f 454//2 456//2 457//2
f 457//2 456//2 458//2
f 456//2 459//2 458//2
f 459//2 460//2 458//2
f 461//77 462//77 463//77
f 462//77 464//77 463//77
f 463//77 464//77 465//77
f 465//77 464//77 466//77
f 464//77 467//77 466//77
f 466//77 467//77 468//77
f 467//77 469//77 468//77
f 468//77 469//77 470//77
f 469//77 471//77 470//77
f 470//77 471//77 472//77
f 471//77 473//77 472//77
f 473//77 474//77 472//77
f 472//77 474//77 475//77
f 474//77 476//77 475//77
f 477//179 478//180 479//179
f 479//179 478//180 480//181
f 478//180 481//182 480//181
f 480//181 481//182 482//183
f 481//182 483//184 482//183
f 482//183 483//184 484//185
f 485//166 486//186 487//165
f 487//165 486//186 488//187
f 486//186 489//188 488//187
f 488//187 489//188 490//189
f 489//188 484//185 490//189
f 484//185 483//184 490//189
f 491//165 492//75 493//166
f 492//75 494//75 493//166
f 495//5 496//5 497//167
f 496//5 498//167 497//167
f 498//167 499//168 497//167
f 497//167 499//168 500//169
f 499//168 501//170 500//169
f 500//169 501//170 502//171
f 501//170 503//172 502//171
f 502//171 503//172 504//173
f 505//174 506//175 507//174
f 507//174 506//175 508//176
f 506//175 509//177 508//176
f 508//176 509//177 510//178
f 509//177 504//173 510//178
f 504//173 503//172 510//178
f 511//2 512//2 513//2
f 513//2 512//2 514//2
f 512//2 515//2 514//2
f 515//2 516//2 514//2
f 514//2 516//2 517//2
f 517//2 516//2 518//2
f 516//2 519//2 518//2
f 518//2 519//2 520//2
f 519//2 521//2 520//2
f 521//2 522//2 520//2
f 520//2 522//2 523//2
f 523//2 522//2 524//2
f 522//2 525//2 524//2
f 525//2 526//2 524//2
f 527//77 528//77 529//77
f 528//77 530//77 529//77
f 529//77 530//77 531//77
f 531//77 530//77 532//77
f 530//77 533//77 532//77
f 532//77 533//77 534//77
f 533//77 535//77 534//77
f 534//77 535//77 536//77
f 535//77 537//77 536//77
f 536//77 537//77 538//77
f 537//77 539//77 538//77
f 539//77 540//77 538//77
f 538//77 540//77 541//77
f 540//77 542//77 541//77
f 543//179 544//180 545//179
f 545//179 544//180 546//181
f 544//180 547//182 546//181
f 546//181 547//182 548//183
f 547//182 549//184 548//183
f 548//183 549//184 550//185
f 551//166 552//186 553//165
f 553//165 552//186 554//187
f 552//186 555//188 554//187
f 554//187 555//188 556//189
f 555//188 550//185 556//189
f 550//185 549//184 556//189
f 557//5 558//190 559//5
f 558//190 560//191 559//5
f 561//75 562//166 563//75
f 562//166 564//165 563//75
f 565//179 566//180 567//179
f 567//179 566//180 568//181
f 566//180 569//182 568//181
f 568//181 569//182 570//183
f 569//182 571//184 570//183
f 570//183 571//184 572//185
f 573//166 574//186 575//165
f 575//165 574//186 576//187
f 574//186 577//188 576//187
f 576//187 577//188 578//189
f 577//188 572//185 578//189
f 572//185 571//184 578//189
f 579//77 580//77 581//77
f 580//77 582//77 581//77
f 581//77 582//77 583//77
f 583//77 582//77 584//77
f 582//77 585//77 584//77
f 584//77 585//77 586//77
f 585//77 587//77 586//77
f 586//77 587//77 588//77
f 587//77 589//77 588//77
f 588//77 589//77 590//77
f 590//77 589//77 591//77
f 591//77 589//77 592//77
f 592//77 589//77 593//77
f 589//77 594//77 593//77
f 595//2 596//2 597//2
f 597//2 596//2 598//2
f 596//2 599//2 598//2
f 599//2 600//2 598//2
f 598//2 600//2 601//2
f 601//2 600//2 602//2
f 600//2 603//2 602//2
f 602//2 603//2 604//2
f 603//2 605//2 604//2
f 606//2 604//2 607//2
f 607//2 604//2 608//2
f 608//2 604//2 609//2
f 609//2 604//2 610//2
f 604//2 605//2 610//2
f 611//174 612//175 613//174
f 613//174 612//175 614//176
f 615//190 616//168 617//191
f 617//191 616//168 618//169
f 616//168 619//170 618//169
f 618//169 619//170 620//171
f 619//170 621//172 620//171
f 620//171 621//172 622//173
f 621//172 623//178 622//173
f 622//173 623//178 624//177
f 623//178 614//176 624//177
f 614//176 612//175 624//177
usemtl material_2
v -0.0041986 0.0068021 0.0062484
v -0.0041986 0.0058004 0.0047487
v -0.0050000 0.0068021 0.0062484
v -0.0050000 0.0058004 0.0047487
v -0.0050000 0.0058004 0.0047487
v -0.0041986 0.0058004 0.0047487
v -0.0050000 0.0030500 0.0047487
v -0.0041986 0.0030500 0.0047487
v -0.0050000 0.0058004 0.0047487
v -0.0050000 0.0030500 0.0047487
v -0.0050000 0.0068021 0.0062484
v -0.0050000 0.0030500 0.0119983
v -0.0050000 0.0087022 0.0062484
v -0.0050000 0.0087022 0.0119983
v -0.0050000 0.0087022 0.0062484
v -0.0050000 0.0087022 0.0119983
v 0.0050000 0.0087022 0.0062484
v 0.0050000 0.0087022 0.0119983
v 0.0050000 0.0087022 0.0062484
v 0.0050000 0.0087022 0.0119983
v 0.0050000 0.0068021 0.0062484
v 0.0050000 0.0030500 0.0119983
v 0.0050000 0.0058004 0.0047487
v 0.0050000 0.0030500 0.0047487
v 0.0050000 0.0030500 0.0047487
v 0.0041986 0.0030500 0.0047487
v 0.0050000 0.0058004 0.0047487
v 0.0041986 0.0058004 0.0047487
v 0.0041986 0.0058004 0.0047487
v 0.0041986 0.0068021 0.0062484
v 0.0050000 0.0058004 0.0047487
v 0.0050000 0.0068021 0.0062484
v -0.0022984 0.0030500 0.0062484
v -0.0041986 0.0030500 0.0062484
v -0.0022984 0.0058346 0.0062484
v -0.0041986 0.0068021 0.0062484
v -0.0002518 0.0030500 0.0062484
v -0.0018003 0.0030500 0.0062484
v -0.0002518 0.0058346 0.0062484
v -0.0018003 0.0058346 0.0062484
v 0.0018003 0.0030500 0.0062484
v 0.0002518 0.0030500 0.0062484
v 0.0018003 0.0058346 0.0062484
v 0.0002518 0.0058346 0.0062484
v 0.0041986 0.0030500 0.0062484
v 0.0022984 0.0030500 0.0062484
v 0.0041986 0.0068021 0.0062484
v 0.0022984 0.0058346 0.0062484
v 0.0050000 0.0068021 0.0062484
v 0.0050000 0.0087022 0.0062484
v -0.0050000 0.0087022 0.0062484
v -0.0050000 0.0068021 0.0062484
f 625//192 626//192 627//192
f 626//192 628//192 627//192
f 629//5 630//5 631//5
f 630//5 632//5 631//5
f 633//77 634//77 635//77
f 634//77 636//77 635//77
f 635//77 636//77 637//77
f 636//77 638//77 637//77
f 639//75 640//75 641//75
f 640//75 642//75 641//75
f 643//2 644//2 645//2
f 644//2 646//2 645//2
f 645//2 646//2 647//2
f 646//2 648//2 647//2
f 649//5 650//5 651//5
f 650//5 652//5 651//5
f 653//192 654//192 655//192
f 654//192 656//192 655//192
f 657//5 658//5 659//5
f 658//5 660//5 659//5
f 661//5 662//5 663//5
f 662//5 664//5 663//5
f 665//5 666//5 667//5
f 666//5 668//5 667//5
f 669//5 670//5 671//5
f 670//5 672//5 671//5
f 673//5 671//5 674//5
f 671//5 672//5 674//5
f 672//5 667//5 674//5
f 667//5 668//5 674//5
f 668//5 663//5 674//5
f 663//5 664//5 674//5
f 674//5 664//5 675//5
f 664//5 659//5 675//5
f 659//5 660//5 675//5
f 660//5 676//5 675//5
usemtl material_3
v -0.0031500 0.0015492 -0.0019013
v -0.0031500 0.0015492 -0.0077037
v -0.0031500 0.0010018 -0.0029820
v -0.0031500 0.0005672 -0.0041170
v -0.0031500 0.0002515 -0.0052908
v -0.0031500 0.0000641 -0.0064898
v -0.0031500 0.0000000 -0.0077037
v -0.0031500 0.0000000 -0.0120013
v -0.0031500 0.0045984 -0.0120013
v -0.0031500 0.0030492 -0.0077037
v -0.0031500 0.0045984 -0.0077037
v -0.0031500 0.0045343 -0.0064898
v -0.0031500 0.0043469 -0.0052908
v -0.0031500 0.0040362 -0.0041170
v -0.0031500 0.0036016 -0.0029820
v -0.0031500 0.0030492 -0.0019013
v -0.0031500 0.0045984 -0.0120013
v -0.0024047 0.0020474 -0.0120013
v -0.0031500 0.0000000 -0.0120013
v -0.0024047 0.0004488 -0.0120013
v 0.0031506 0.0000000 -0.0120013
v 0.0023466 0.0004488 -0.0120013
v 0.0023466 0.0020474 -0.0120013
v 0.0031506 0.0045984 -0.0120013
v 0.0023466 0.0025510 -0.0120013
v -0.0024047 0.0025510 -0.0120013
v -0.0024047 0.0041496 -0.0120013
v 0.0023466 0.0041496 -0.0120013
v 0.0031506 0.0030492 -0.0019013
v 0.0031506 0.0030492 -0.0077037
v 0.0031506 0.0036016 -0.0029820
v 0.0031506 0.0040362 -0.0041170
v 0.0031506 0.0043469 -0.0052908
v 0.0031506 0.0045343 -0.0064898
v 0.0031506 0.0045984 -0.0077037
v 0.0031506 0.0045984 -0.0120013
v 0.0031506 0.0000000 -0.0120013
v 0.0031506 0.0015492 -0.0077037
v 0.0031506 0.0000000 -0.0077037
v 0.0031506 0.0000641 -0.0064898
v 0.0031506 0.0002515 -0.0052908
v 0.0031506 0.0005672 -0.0041170
v 0.0031506 0.0010018 -0.0029820
v 0.0031506 0.0015492 -0.0019013
f 677//77 678//77 679//77
f 679//77 678//77 680//77
f 680//77 678//77 681//77
f 681//77 678//77 682//77
f 682//77 678//77 683//77
f 683//77 678//77 684//77
f 684//77 678//77 685//77
f 678//77 686//77 685//77
f 685//77 686//77 687//77
f 687//77 686//77 688//77
f 688//77 686//77 689//77
f 689//77 686//77 690//77
f 690//77 686//77 691//77
f 686//77 692//77 691//77
f 693//5 694//5 695//5
f 694//5 696//5 695//5
f 695//5 696//5 697//5
f 696//5 698//5 697//5
f 698//5 699//5 697//5
f 697//5 699//5 700//5
f 700//5 699//5 701//5
f 701//5 699//5 702//5
f 699//5 694//5 702//5
f 694//5 693//5 702//5
f 702//5 693//5 703//5
f 703//5 693//5 704//5
f 693//5 700//5 704//5
f 700//5 701//5 704//5
f 705//2 706//2 707//2
f 707//2 706//2 708//2
f 708//2 706//2 709//2
f 709//2 706//2 710//2
f 710//2 706//2 711//2
f 711//2 706//2 712//2
f 712//2 706//2 713//2
f 706//2 714//2 713//2
f 713//2 714//2 715//2
f 715//2 714//2 716//2
f 716//2 714//2 717//2
f 717//2 714//2 718//2
f 718//2 714//2 719//2
f 714//2 720//2 719//2
usemtl material_4
v -0.0031500 0.0000000 -0.0120013
v 0.0031500 0.0000000 -0.0120013
v -0.0031500 0.0000000 -0.0077017
v 0.0031500 0.0000000 -0.0077017
v 0.0031500 0.0046011 -0.0120013
v -0.0031500 0.0046011 -0.0120013
v 0.0031500 0.0046011 -0.0077017
v -0.0031500 0.0046011 -0.0077017
f 721//149 722//149 723//149
f 722//149 724//149 723//149
f 725//75 726//75 727//75
f 726//75 728//75 727//75
usemtl material_5
v -0.0024029 0.0025500 -0.0121013
v -0.0024029 0.0041509 -0.0121013
v 0.0023469 0.0025500 -0.0121013
v 0.0023469 0.0041509 -0.0121013
f 729//5 730//5 731//5
f 730//5 732//5 731//5
usemtl material_6
v -0.0024029 0.0004500 -0.0121013
v -0.0024029 0.0020509 -0.0121013
v 0.0023469 0.0004500 -0.0121013
v 0.0023469 0.0020509 -0.0121013
f 733//5 734//5 735//5
f 734//5 736//5 735//5
usemtl material_7
v 0.0031500 0.0030498 -0.0019000
v 0.0031500 0.0036009 -0.0029833
v -0.0031500 0.0030498 -0.0019000
v -0.0031500 0.0036009 -0.0029833
v 0.0031500 0.0040346 -0.0041158
v -0.0031500 0.0040346 -0.0041158
v 0.0031500 0.0043457 -0.0052913
v -0.0031500 0.0043457 -0.0052913
v 0.0031500 0.0045365 -0.0064888
v -0.0031500 0.0045365 -0.0064888
v 0.0031500 0.0046011 -0.0077013
v -0.0031500 0.0046011 -0.0077013
v 0.0031500 0.0000000 -0.0077013
v 0.0031500 0.0000646 -0.0064888
v -0.0031500 0.0000000 -0.0077013
v -0.0031500 0.0000646 -0.0064888
v 0.0031500 0.0002523 -0.0052913
v -0.0031500 0.0002523 -0.0052913
v 0.0031500 0.0005664 -0.0041158
v -0.0031500 0.0005664 -0.0041158
v 0.0031500 0.0010002 -0.0029833
v -0.0031500 0.0010002 -0.0029833
v 0.0031500 0.0015513 -0.0019000
v -0.0031500 0.0015513 -0.0019000
f 737//193 738//194 739//193
f 739//193 738//194 740//195
f 738//194 741//196 740//195
f 740//195 741//196 742//197
f 741//196 743//198 742//197
f 742//197 743//198 744//199
f 743//198 745//200 744//199
f 744//199 745//200 746//201
f 745//200 747//202 746//201
f 747//202 748//202 746//201
f 749//203 750//204 751//203
f 751//203 750//204 752//205
f 750//204 753//206 752//205
f 752//205 753//206 754//207
f 753//206 755//208 754//207
f 754//207 755//208 756//209
f 755//208 757//210 756//209
f 756//209 757//210 758//211
f 757//210 759//212 758//211
f 759//212 760//212 758//211
usemtl material_8
v 0.0050000 0.0030500 0.0119987
v 0.0050000 0.0087022 0.0119987
v -0.0050000 0.0030500 0.0119987
v -0.0050000 0.0087022 0.0119987
f 761//4 762//4 763//4
f 762//4 764//4 763//4
usemtl material_9
v -0.0042000 0.0030500 0.0062505
v -0.0042000 0.0030500 0.0047487
v -0.0042000 0.0068006 0.0062505
v -0.0042000 0.0057992 0.0047487
v 0.0042000 0.0030500 0.0047487
v 0.0042000 0.0030500 0.0062505
v 0.0042000 0.0057992 0.0047487
v 0.0042000 0.0068006 0.0062505
f 765//2 766//2 767//2
f 766//2 768//2 767//2
f 769//77 770//77 771//77
f 770//77 772//77 771//77
