# Botball Lab: metres, +Y up, centred XZ, base Y=0
s off
v -0.0350000 0.0250000 -0.0190000
v 0.0350000 0.0250000 -0.0190000
v 0.0350000 0.0000000 -0.0190000
v -0.0350000 0.0000000 -0.0190000
v -0.0350000 0.0000000 0.0190000
v 0.0350000 0.0000000 0.0190000
v 0.0350000 0.0250000 0.0190000
v -0.0350000 0.0250000 0.0190000
v -0.0060000 0.0290000 -0.0060000
v 0.0060000 0.0290000 -0.0060000
v 0.0060000 0.0250000 -0.0060000
v -0.0060000 0.0250000 -0.0060000
v -0.0060000 0.0250000 0.0060000
v 0.0060000 0.0250000 0.0060000
v 0.0060000 0.0290000 0.0060000
v -0.0060000 0.0290000 0.0060000
f 1 2 3
f 1 3 4
f 5 6 7
f 5 7 8
f 4 3 6
f 4 6 5
f 2 1 8
f 2 8 7
f 3 2 7
f 3 7 6
f 1 4 5
f 1 5 8
f 9 10 11
f 9 11 12
f 13 14 15
f 13 15 16
f 12 11 14
f 12 14 13
f 10 9 16
f 10 16 15
f 11 10 15
f 11 15 14
f 9 12 13
f 9 13 16
