# Botball Lab: metres, +Y up, centred XZ, base Y=0
mtllib electronics_013.mtl
s off
v -0.0175000 0.0006000 0.0094000
v -0.0175000 0.0244000 0.0094000
v -0.0175000 0.0244000 -0.0094000
v -0.0175000 0.0006000 -0.0094000
v 0.0175000 0.0006000 -0.0094000
v 0.0175000 0.0244000 -0.0094000
v 0.0175000 0.0244000 0.0094000
v 0.0175000 0.0006000 0.0094000
v -0.0169000 0.0000000 -0.0094000
v 0.0169000 0.0000000 -0.0094000
v 0.0169000 0.0000000 0.0094000
v -0.0169000 0.0000000 0.0094000
v -0.0169000 0.0250000 0.0094000
v 0.0169000 0.0250000 0.0094000
v 0.0169000 0.0250000 -0.0094000
v -0.0169000 0.0250000 -0.0094000
v -0.0169000 0.0244000 -0.0100000
v 0.0169000 0.0244000 -0.0100000
v 0.0169000 0.0006000 -0.0100000
v -0.0169000 0.0006000 -0.0100000
v -0.0169000 0.0006000 0.0100000
v 0.0169000 0.0006000 0.0100000
v 0.0169000 0.0244000 0.0100000
v -0.0169000 0.0244000 0.0100000
v 0.0090000 0.0250000 0.0000000
v 0.0090000 0.0330000 0.0000000
v 0.0089567 0.0330000 0.0008822
v 0.0089567 0.0250000 0.0008822
v 0.0050000 0.0250000 0.0000000
v 0.0049759 0.0250000 0.0004901
v 0.0049759 0.0330000 0.0004901
v 0.0050000 0.0330000 0.0000000
v 0.0088271 0.0330000 0.0017558
v 0.0088271 0.0250000 0.0017558
v 0.0049039 0.0250000 0.0009755
v 0.0049039 0.0330000 0.0009755
v 0.0086125 0.0330000 0.0026126
v 0.0086125 0.0250000 0.0026126
v 0.0047847 0.0250000 0.0014514
v 0.0047847 0.0330000 0.0014514
v 0.0083149 0.0330000 0.0034442
v 0.0083149 0.0250000 0.0034442
v 0.0046194 0.0250000 0.0019134
v 0.0046194 0.0330000 0.0019134
v 0.0079373 0.0330000 0.0042426
v 0.0079373 0.0250000 0.0042426
v 0.0044096 0.0250000 0.0023570
v 0.0044096 0.0330000 0.0023570
v 0.0074832 0.0330000 0.0050001
v 0.0074832 0.0250000 0.0050001
v 0.0041573 0.0250000 0.0027779
v 0.0041573 0.0330000 0.0027779
v 0.0069571 0.0330000 0.0057095
v 0.0069571 0.0250000 0.0057095
v 0.0038651 0.0250000 0.0031720
v 0.0038651 0.0330000 0.0031720
v 0.0063640 0.0330000 0.0063640
v 0.0063640 0.0250000 0.0063640
v 0.0035355 0.0250000 0.0035355
v 0.0035355 0.0330000 0.0035355
v 0.0057095 0.0330000 0.0069571
v 0.0057095 0.0250000 0.0069571
v 0.0031720 0.0250000 0.0038651
v 0.0031720 0.0330000 0.0038651
v 0.0050001 0.0330000 0.0074832
v 0.0050001 0.0250000 0.0074832
v 0.0027779 0.0250000 0.0041573
v 0.0027779 0.0330000 0.0041573
v 0.0042426 0.0330000 0.0079373
v 0.0042426 0.0250000 0.0079373
v 0.0023570 0.0250000 0.0044096
v 0.0023570 0.0330000 0.0044096
v 0.0034442 0.0330000 0.0083149
v 0.0034442 0.0250000 0.0083149
v 0.0019134 0.0250000 0.0046194
v 0.0019134 0.0330000 0.0046194
v 0.0026126 0.0330000 0.0086125
v 0.0026126 0.0250000 0.0086125
v 0.0014514 0.0250000 0.0047847
v 0.0014514 0.0330000 0.0047847
v 0.0017558 0.0330000 0.0088271
v 0.0017558 0.0250000 0.0088271
v 0.0009755 0.0250000 0.0049039
v 0.0009755 0.0330000 0.0049039
v 0.0008822 0.0330000 0.0089567
v 0.0008822 0.0250000 0.0089567
v 0.0004901 0.0250000 0.0049759
v 0.0004901 0.0330000 0.0049759
v 0.0000000 0.0330000 0.0090000
v 0.0000000 0.0250000 0.0090000
v 0.0000000 0.0250000 0.0050000
v 0.0000000 0.0330000 0.0050000
v -0.0008822 0.0330000 0.0089567
v -0.0008822 0.0250000 0.0089567
v -0.0004901 0.0250000 0.0049759
v -0.0004901 0.0330000 0.0049759
v -0.0017558 0.0330000 0.0088271
v -0.0017558 0.0250000 0.0088271
v -0.0009755 0.0250000 0.0049039
v -0.0009755 0.0330000 0.0049039
v -0.0026126 0.0330000 0.0086125
v -0.0026126 0.0250000 0.0086125
v -0.0014514 0.0250000 0.0047847
v -0.0014514 0.0330000 0.0047847
v -0.0034442 0.0330000 0.0083149
v -0.0034442 0.0250000 0.0083149
v -0.0019134 0.0250000 0.0046194
v -0.0019134 0.0330000 0.0046194
v -0.0042426 0.0330000 0.0079373
v -0.0042426 0.0250000 0.0079373
v -0.0023570 0.0250000 0.0044096
v -0.0023570 0.0330000 0.0044096
v -0.0050001 0.0330000 0.0074832
v -0.0050001 0.0250000 0.0074832
v -0.0027779 0.0250000 0.0041573
v -0.0027779 0.0330000 0.0041573
v -0.0057095 0.0330000 0.0069571
v -0.0057095 0.0250000 0.0069571
v -0.0031720 0.0250000 0.0038651
v -0.0031720 0.0330000 0.0038651
v -0.0063640 0.0330000 0.0063640
v -0.0063640 0.0250000 0.0063640
v -0.0035355 0.0250000 0.0035355
v -0.0035355 0.0330000 0.0035355
v -0.0069571 0.0330000 0.0057095
v -0.0069571 0.0250000 0.0057095
v -0.0038651 0.0250000 0.0031720
v -0.0038651 0.0330000 0.0031720
v -0.0074832 0.0330000 0.0050001
v -0.0074832 0.0250000 0.0050001
v -0.0041573 0.0250000 0.0027779
v -0.0041573 0.0330000 0.0027779
v -0.0079373 0.0330000 0.0042426
v -0.0079373 0.0250000 0.0042426
v -0.0044096 0.0250000 0.0023570
v -0.0044096 0.0330000 0.0023570
v -0.0083149 0.0330000 0.0034442
v -0.0083149 0.0250000 0.0034442
v -0.0046194 0.0250000 0.0019134
v -0.0046194 0.0330000 0.0019134
v -0.0086125 0.0330000 0.0026126
v -0.0086125 0.0250000 0.0026126
v -0.0047847 0.0250000 0.0014514
v -0.0047847 0.0330000 0.0014514
v -0.0088271 0.0330000 0.0017558
v -0.0088271 0.0250000 0.0017558
v -0.0049039 0.0250000 0.0009755
v -0.0049039 0.0330000 0.0009755
v -0.0089567 0.0330000 0.0008822
v -0.0089567 0.0250000 0.0008822
v -0.0049759 0.0250000 0.0004901
v -0.0049759 0.0330000 0.0004901
v -0.0090000 0.0330000 0.0000000
v -0.0090000 0.0250000 0.0000000
v -0.0050000 0.0250000 0.0000000
v -0.0050000 0.0330000 0.0000000
v -0.0089567 0.0330000 -0.0008822
v -0.0089567 0.0250000 -0.0008822
v -0.0049759 0.0250000 -0.0004901
v -0.0049759 0.0330000 -0.0004901
v -0.0088271 0.0330000 -0.0017558
v -0.0088271 0.0250000 -0.0017558
v -0.0049039 0.0250000 -0.0009755
v -0.0049039 0.0330000 -0.0009755
v -0.0086125 0.0330000 -0.0026126
v -0.0086125 0.0250000 -0.0026126
v -0.0047847 0.0250000 -0.0014514
v -0.0047847 0.0330000 -0.0014514
v -0.0083149 0.0330000 -0.0034442
v -0.0083149 0.0250000 -0.0034442
v -0.0046194 0.0250000 -0.0019134
v -0.0046194 0.0330000 -0.0019134
v -0.0079373 0.0330000 -0.0042426
v -0.0079373 0.0250000 -0.0042426
v -0.0044096 0.0250000 -0.0023570
v -0.0044096 0.0330000 -0.0023570
v -0.0074832 0.0330000 -0.0050001
v -0.0074832 0.0250000 -0.0050001
v -0.0041573 0.0250000 -0.0027779
v -0.0041573 0.0330000 -0.0027779
v -0.0069571 0.0330000 -0.0057095
v -0.0069571 0.0250000 -0.0057095
v -0.0038651 0.0250000 -0.0031720
v -0.0038651 0.0330000 -0.0031720
v -0.0063640 0.0330000 -0.0063640
v -0.0063640 0.0250000 -0.0063640
v -0.0035355 0.0250000 -0.0035355
v -0.0035355 0.0330000 -0.0035355
v -0.0057095 0.0330000 -0.0069571
v -0.0057095 0.0250000 -0.0069571
v -0.0031720 0.0250000 -0.0038651
v -0.0031720 0.0330000 -0.0038651
v -0.0050001 0.0330000 -0.0074832
v -0.0050001 0.0250000 -0.0074832
v -0.0027779 0.0250000 -0.0041573
v -0.0027779 0.0330000 -0.0041573
v -0.0042426 0.0330000 -0.0079373
v -0.0042426 0.0250000 -0.0079373
v -0.0023570 0.0250000 -0.0044096
v -0.0023570 0.0330000 -0.0044096
v -0.0034442 0.0330000 -0.0083149
v -0.0034442 0.0250000 -0.0083149
v -0.0019134 0.0250000 -0.0046194
v -0.0019134 0.0330000 -0.0046194
v -0.0026126 0.0330000 -0.0086125
v -0.0026126 0.0250000 -0.0086125
v -0.0014514 0.0250000 -0.0047847
v -0.0014514 0.0330000 -0.0047847
v -0.0017558 0.0330000 -0.0088271
v -0.0017558 0.0250000 -0.0088271
v -0.0009755 0.0250000 -0.0049039
v -0.0009755 0.0330000 -0.0049039
v -0.0008822 0.0330000 -0.0089567
v -0.0008822 0.0250000 -0.0089567
v -0.0004901 0.0250000 -0.0049759
v -0.0004901 0.0330000 -0.0049759
v -0.0000000 0.0330000 -0.0090000
v -0.0000000 0.0250000 -0.0090000
v -0.0000000 0.0250000 -0.0050000
v -0.0000000 0.0330000 -0.0050000
v 0.0008822 0.0330000 -0.0089567
v 0.0008822 0.0250000 -0.0089567
v 0.0004901 0.0250000 -0.0049759
v 0.0004901 0.0330000 -0.0049759
v 0.0017558 0.0330000 -0.0088271
v 0.0017558 0.0250000 -0.0088271
v 0.0009755 0.0250000 -0.0049039
v 0.0009755 0.0330000 -0.0049039
v 0.0026126 0.0330000 -0.0086125
v 0.0026126 0.0250000 -0.0086125
v 0.0014514 0.0250000 -0.0047847
v 0.0014514 0.0330000 -0.0047847
v 0.0034442 0.0330000 -0.0083149
v 0.0034442 0.0250000 -0.0083149
v 0.0019134 0.0250000 -0.0046194
v 0.0019134 0.0330000 -0.0046194
v 0.0042426 0.0330000 -0.0079373
v 0.0042426 0.0250000 -0.0079373
v 0.0023570 0.0250000 -0.0044096
v 0.0023570 0.0330000 -0.0044096
v 0.0050001 0.0330000 -0.0074832
v 0.0050001 0.0250000 -0.0074832
v 0.0027779 0.0250000 -0.0041573
v 0.0027779 0.0330000 -0.0041573
v 0.0057095 0.0330000 -0.0069571
v 0.0057095 0.0250000 -0.0069571
v 0.0031720 0.0250000 -0.0038651
v 0.0031720 0.0330000 -0.0038651
v 0.0063640 0.0330000 -0.0063640
v 0.0063640 0.0250000 -0.0063640
v 0.0035355 0.0250000 -0.0035355
v 0.0035355 0.0330000 -0.0035355
v 0.0069571 0.0330000 -0.0057095
v 0.0069571 0.0250000 -0.0057095
v 0.0038651 0.0250000 -0.0031720
v 0.0038651 0.0330000 -0.0031720
v 0.0074832 0.0330000 -0.0050001
v 0.0074832 0.0250000 -0.0050001
v 0.0041573 0.0250000 -0.0027779
v 0.0041573 0.0330000 -0.0027779
v 0.0079373 0.0330000 -0.0042426
v 0.0079373 0.0250000 -0.0042426
v 0.0044096 0.0250000 -0.0023570
v 0.0044096 0.0330000 -0.0023570
v 0.0083149 0.0330000 -0.0034442
v 0.0083149 0.0250000 -0.0034442
v 0.0046194 0.0250000 -0.0019134
v 0.0046194 0.0330000 -0.0019134
v 0.0086125 0.0330000 -0.0026126
v 0.0086125 0.0250000 -0.0026126
v 0.0047847 0.0250000 -0.0014514
v 0.0047847 0.0330000 -0.0014514
v 0.0088271 0.0330000 -0.0017558
v 0.0088271 0.0250000 -0.0017558
v 0.0049039 0.0250000 -0.0009755
v 0.0049039 0.0330000 -0.0009755
v 0.0089567 0.0330000 -0.0008822
v 0.0089567 0.0250000 -0.0008822
v 0.0049759 0.0250000 -0.0004901
v 0.0049759 0.0330000 -0.0004901
usemtl lens
vn 0.9998662 0.0 0.0163584
vn 0.9998662 0.0 -0.0163584
vn 0.9966584 0.0 0.0816822
vn 0.9934473 0.0 0.1142914
vn -0.9998657 0.0 -0.016389
vn -0.9934449 0.0 -0.1143118
vn -0.9966537 0.0 -0.0817397
vn -0.9998657 0.0 0.016389
vn 0.0 1.0 0.0
vn 0.0 -1.0 0.0
vn 0.9838469 0.0 0.1790118
vn 0.9774605 0.0 0.2111182
vn -0.9774627 0.0 -0.211108
vn -0.9838503 0.0 -0.1789932
vn 0.9615639 0.0 0.2745814
vn 0.9520506 0.0 0.3059407
vn -0.9520618 0.0 -0.3059057
vn -0.9615676 0.0 -0.2745684
vn 0.9300112 0.0 0.3675312
vn 0.9174876 0.0 0.3977644
vn -0.9174944 0.0 -0.3977487
vn -0.9300256 0.0 -0.3674948
vn 0.8895156 0.0 0.4569049
vn 0.8740646 0.0 0.4858097
vn -0.8740739 0.0 -0.485793
vn -0.8895192 0.0 -0.4568978
vn 0.8404338 0.0 0.5419143
vn 0.8222575 0.0 0.5691157
vn -0.8223097 0.0 -0.5690402
vn -0.8404685 0.0 -0.5418604
vn 0.7833213 0.0 0.621617
vn 0.7625617 0.0 0.6469155
vn -0.7624542 0.0 -0.6470422
vn -0.7833047 0.0 -0.621638
vn 0.7186101 0.0 0.6954132
vn 0.6954132 0.0 0.7186101
vn -0.695486 0.0 -0.7185397
vn -0.7185397 0.0 -0.695486
vn 0.6469155 0.0 0.7625617
vn 0.621617 0.0 0.7833213
vn -0.621638 0.0 -0.7833047
vn -0.6470422 0.0 -0.7624542
vn 0.5691157 0.0 0.8222575
vn 0.5419143 0.0 0.8404338
vn -0.5418604 0.0 -0.8404685
vn -0.5690402 0.0 -0.8223097
vn 0.4858097 0.0 0.8740646
vn 0.4569049 0.0 0.8895156
vn -0.4568978 0.0 -0.8895192
vn -0.485793 0.0 -0.8740739
vn 0.3977644 0.0 0.9174876
vn 0.3675312 0.0 0.9300112
vn -0.3674948 0.0 -0.9300256
vn -0.3977487 0.0 -0.9174944
vn 0.3059407 0.0 0.9520506
vn 0.2745814 0.0 0.9615639
vn -0.2745684 0.0 -0.9615676
vn -0.3059057 0.0 -0.9520618
vn 0.2111182 0.0 0.9774605
vn 0.1790118 0.0 0.9838469
vn -0.1789932 0.0 -0.9838503
vn -0.211108 0.0 -0.9774627
vn 0.1142914 0.0 0.9934473
vn 0.0816822 0.0 0.9966584
vn -0.0817397 0.0 -0.9966537
vn -0.1143118 0.0 -0.9934449
vn 0.0163584 0.0 0.9998662
vn -0.0163584 0.0 0.9998662
vn 0.016389 0.0 -0.9998657
vn -0.016389 0.0 -0.9998657
vn -0.0816822 0.0 0.9966584
vn -0.1142914 0.0 0.9934473
vn 0.1143118 0.0 -0.9934449
vn 0.0817397 0.0 -0.9966537
vn -0.1790118 0.0 0.9838469
vn -0.2111182 0.0 0.9774605
vn 0.211108 0.0 -0.9774627
vn 0.1789932 0.0 -0.9838503
vn -0.2745814 0.0 0.9615639
vn -0.3059407 0.0 0.9520506
vn 0.3059057 0.0 -0.9520618
vn 0.2745684 0.0 -0.9615676
vn -0.3675312 0.0 0.9300112
vn -0.3977644 0.0 0.9174876
vn 0.3977487 0.0 -0.9174944
vn 0.3674948 0.0 -0.9300256
vn -0.4569049 0.0 0.8895156
vn -0.4858097 0.0 0.8740646
vn 0.485793 0.0 -0.8740739
vn 0.4568978 0.0 -0.8895192
vn -0.5419143 0.0 0.8404338
vn -0.5691157 0.0 0.8222575
vn 0.5690402 0.0 -0.8223097
vn 0.5418604 0.0 -0.8404685
vn -0.621617 0.0 0.7833213
vn -0.6469155 0.0 0.7625617
vn 0.6470422 0.0 -0.7624542
vn 0.621638 0.0 -0.7833047
vn -0.6954132 0.0 0.7186101
vn -0.7186101 0.0 0.6954132
vn 0.7185397 0.0 -0.695486
vn 0.695486 0.0 -0.7185397
vn -0.7625617 0.0 0.6469155
vn -0.7833213 0.0 0.621617
vn 0.7833047 0.0 -0.621638
vn 0.7624542 0.0 -0.6470422
vn -0.8222575 0.0 0.5691157
vn -0.8404338 0.0 0.5419143
vn 0.8404685 0.0 -0.5418604
vn 0.8223097 0.0 -0.5690402
vn -0.8740646 0.0 0.4858097
vn -0.8895156 0.0 0.4569049
vn 0.8895192 0.0 -0.4568978
vn 0.8740739 0.0 -0.485793
vn -0.9174876 0.0 0.3977644
vn -0.9300112 0.0 0.3675312
vn 0.9300256 0.0 -0.3674948
vn 0.9174944 0.0 -0.3977487
vn -0.9520506 0.0 0.3059407
vn -0.9615639 0.0 0.2745814
vn 0.9615676 0.0 -0.2745684
vn 0.9520618 0.0 -0.3059057
vn -0.9774605 0.0 0.2111182
vn -0.9838469 0.0 0.1790118
vn 0.9838503 0.0 -0.1789932
vn 0.9774627 0.0 -0.211108
vn -0.9934473 0.0 0.1142914
vn -0.9966584 0.0 0.0816822
vn 0.9966537 0.0 -0.0817397
vn 0.9934449 0.0 -0.1143118
vn -0.9998662 0.0 0.0163584
vn -0.9998662 0.0 -0.0163584
vn 0.9998657 0.0 0.016389
vn 0.9998657 0.0 -0.016389
vn -0.9966584 0.0 -0.0816822
vn -0.9934473 0.0 -0.1142914
vn 0.9934449 0.0 0.1143118
vn 0.9966537 0.0 0.0817397
vn -0.9838469 0.0 -0.1790118
vn -0.9774605 0.0 -0.2111182
vn 0.9774627 0.0 0.211108
vn 0.9838503 0.0 0.1789932
vn -0.9615639 0.0 -0.2745814
vn -0.9520506 0.0 -0.3059407
vn 0.9520618 0.0 0.3059057
vn 0.9615676 0.0 0.2745684
vn -0.9300112 0.0 -0.3675312
vn -0.9174876 0.0 -0.3977644
vn 0.9174944 0.0 0.3977487
vn 0.9300256 0.0 0.3674948
vn -0.8895156 0.0 -0.4569049
vn -0.8740646 0.0 -0.4858097
vn 0.8740739 0.0 0.485793
vn 0.8895192 0.0 0.4568978
vn -0.8404338 0.0 -0.5419143
vn -0.8222575 0.0 -0.5691157
vn 0.8223097 0.0 0.5690402
vn 0.8404685 0.0 0.5418604
vn -0.7833213 0.0 -0.621617
vn -0.7625617 0.0 -0.6469155
vn 0.7624542 0.0 0.6470422
vn 0.7833047 0.0 0.621638
vn -0.7186101 0.0 -0.6954132
vn -0.6954132 0.0 -0.7186101
vn 0.695486 0.0 0.7185397
vn 0.7185397 0.0 0.695486
vn -0.6469155 0.0 -0.7625617
vn -0.621617 0.0 -0.7833213
vn 0.621638 0.0 0.7833047
vn 0.6470422 0.0 0.7624542
vn -0.5691157 0.0 -0.8222575
vn -0.5419143 0.0 -0.8404338
vn 0.5418604 0.0 0.8404685
vn 0.5690402 0.0 0.8223097
vn -0.4858097 0.0 -0.8740646
vn -0.4569049 0.0 -0.8895156
vn 0.4568978 0.0 0.8895192
vn 0.485793 0.0 0.8740739
vn -0.3977644 0.0 -0.9174876
vn -0.3675312 0.0 -0.9300112
vn 0.3674948 0.0 0.9300256
vn 0.3977487 0.0 0.9174944
vn -0.3059407 0.0 -0.9520506
vn -0.2745814 0.0 -0.9615639
vn 0.2745684 0.0 0.9615676
vn 0.3059057 0.0 0.9520618
vn -0.2111182 0.0 -0.9774605
vn -0.1790118 0.0 -0.9838469
vn 0.1789932 0.0 0.9838503
vn 0.211108 0.0 0.9774627
vn -0.1142914 0.0 -0.9934473
vn -0.0816822 0.0 -0.9966584
vn 0.0817397 0.0 0.9966537
vn 0.1143118 0.0 0.9934449
vn -0.0163584 0.0 -0.9998662
vn 0.0163584 0.0 -0.9998662
vn -0.016389 0.0 0.9998657
vn 0.016389 0.0 0.9998657
vn 0.0816822 0.0 -0.9966584
vn 0.1142914 0.0 -0.9934473
vn -0.1143118 0.0 0.9934449
vn -0.0817397 0.0 0.9966537
vn 0.1790118 0.0 -0.9838469
vn 0.2111182 0.0 -0.9774605
vn -0.211108 0.0 0.9774627
vn -0.1789932 0.0 0.9838503
vn 0.2745814 0.0 -0.9615639
vn 0.3059407 0.0 -0.9520506
vn -0.3059057 0.0 0.9520618
vn -0.2745684 0.0 0.9615676
vn 0.3675312 0.0 -0.9300112
vn 0.3977644 0.0 -0.9174876
vn -0.3977487 0.0 0.9174944
vn -0.3674948 0.0 0.9300256
vn 0.4569049 0.0 -0.8895156
vn 0.4858097 0.0 -0.8740646
vn -0.485793 0.0 0.8740739
vn -0.4568978 0.0 0.8895192
vn 0.5419143 0.0 -0.8404338
vn 0.5691157 0.0 -0.8222575
vn -0.5690402 0.0 0.8223097
vn -0.5418604 0.0 0.8404685
vn 0.621617 0.0 -0.7833213
vn 0.6469155 0.0 -0.7625617
vn -0.6470422 0.0 0.7624542
vn -0.621638 0.0 0.7833047
vn 0.6954132 0.0 -0.7186101
vn 0.7186101 0.0 -0.6954132
vn -0.7185397 0.0 0.695486
vn -0.695486 0.0 0.7185397
vn 0.7625617 0.0 -0.6469155
vn 0.7833213 0.0 -0.621617
vn -0.7833047 0.0 0.621638
vn -0.7624542 0.0 0.6470422
vn 0.8222575 0.0 -0.5691157
vn 0.8404338 0.0 -0.5419143
vn -0.8404685 0.0 0.5418604
vn -0.8223097 0.0 0.5690402
vn 0.8740646 0.0 -0.4858097
vn 0.8895156 0.0 -0.4569049
vn -0.8895192 0.0 0.4568978
vn -0.8740739 0.0 0.485793
vn 0.9174876 0.0 -0.3977644
vn 0.9300112 0.0 -0.3675312
vn -0.9300256 0.0 0.3674948
vn -0.9174944 0.0 0.3977487
vn 0.9520506 0.0 -0.3059407
vn 0.9615639 0.0 -0.2745814
vn -0.9615676 0.0 0.2745684
vn -0.9520618 0.0 0.3059057
vn 0.9774605 0.0 -0.2111182
vn 0.9838469 0.0 -0.1790118
vn -0.9838503 0.0 0.1789932
vn -0.9774627 0.0 0.211108
vn 0.9934473 0.0 -0.1142914
vn 0.9966584 0.0 -0.0816822
vn -0.9966537 0.0 0.0817397
vn -0.9934449 0.0 0.1143118
vn -0.9995897 -0.0242033 0.0153202
vn -0.9980203 0.0231031 0.058495
vn -0.9995897 0.0242033 -0.0153202
vn -0.9980203 -0.0231031 -0.058495
vn 0.9995897 -0.0242033 -0.0153202
vn 0.9980203 0.0231031 -0.058495
vn 0.9995897 0.0242033 0.0153202
vn 0.9980203 -0.0231031 0.058495
vn -0.017168 -0.9997335 -0.015433
vn 0.0163818 -0.9981292 -0.0589048
vn 0.017168 -0.9997335 0.015433
vn -0.0163818 -0.9981292 0.0589048
vn -0.017168 0.9997335 0.015433
vn 0.0163818 0.9981292 0.0589048
vn 0.017168 0.9997335 -0.015433
vn -0.0163818 0.9981292 -0.0589048
vn -0.0172246 0.0122309 -0.9997768
vn 0.0165978 0.0471433 -0.9987502
vn 0.0172246 -0.0122309 -0.9997768
vn -0.0165978 -0.0471433 -0.9987502
vn -0.0172246 -0.0122309 0.9997768
vn 0.0165978 -0.0471433 0.9987502
vn 0.0172246 0.0122309 0.9997768
vn -0.0165978 0.0471433 0.9987502
vn -0.0004254 -0.0483488 -0.9988304
vn 0.0002209 -0.0126653 -0.9999198
vn 0.0005313 -0.9981747 -0.0603899
vn -0.0002787 -0.9998723 -0.0159791
vn -0.0005313 -0.9981747 0.0603899
vn 0.0002787 -0.9998723 0.0159791
vn 0.0004254 -0.0483488 0.9988304
vn -0.0002209 -0.0126653 0.9999198
vn -0.0005313 0.9981747 -0.0603899
vn 0.0002787 0.9998723 -0.0159791
vn 0.0004254 0.0483488 -0.9988304
vn -0.0002209 0.0126653 -0.9999198
vn -0.0004254 0.0483488 0.9988304
vn 0.0002209 0.0126653 0.9999198
vn 0.0005313 0.9981747 0.0603899
vn -0.0002787 0.9998723 0.0159791
vn -0.9981619 -0.0007543 -0.0605988
vn -0.9998704 0.0003958 -0.0160943
vn -0.0176551 0.0002198 -0.9998441
vn -0.0178709 -0.0004394 -0.9998402
vn -0.0176551 -0.0002198 0.9998441
vn -0.0178709 0.0004394 0.9998402
vn -0.9981619 0.0007543 0.0605988
vn -0.9998704 -0.0003958 0.0160943
vn 0.0176551 -0.0002198 -0.9998441
vn 0.0178709 0.0004394 -0.9998402
vn 0.9981619 0.0007543 -0.0605988
vn 0.9998704 -0.0003958 -0.0160943
vn 0.9981619 -0.0007543 0.0605988
vn 0.9998704 0.0003958 0.0160943
vn 0.0176551 0.0002198 0.9998441
vn 0.0178709 -0.0004394 0.9998402
vn -0.0177125 -0.9998431 -0.0002782
vn -0.0179856 -0.9998381 0.0005563
vn -0.9996882 -0.024965 0.0003921
vn -0.9996784 -0.0253469 -0.0007839
vn -0.9996882 0.024965 -0.0003921
vn -0.9996784 0.0253469 0.0007839
vn -0.0177125 0.9998431 0.0002782
vn -0.0179856 0.9998381 -0.0005563
vn 0.9996882 -0.024965 -0.0003921
vn 0.9996784 -0.0253469 0.0007839
vn 0.0177125 -0.9998431 0.0002782
vn 0.0179856 -0.9998381 -0.0005563
vn 0.0177125 0.9998431 -0.0002782
vn 0.0179856 0.9998381 0.0005563
vn 0.9996882 0.024965 0.0003921
vn 0.9996784 0.0253469 -0.0007839
vn -0.2083827 -0.5824466 -0.7857051
vn -0.4317942 -0.8138529 -0.3888408
vn -0.7902284 -0.2288124 -0.5684927
vn -0.807267 -0.4973807 0.3176986
vn -0.1728523 -0.7751622 0.6076559
vn -0.4765368 -0.340101 0.8107058
vn -0.807267 0.4973807 -0.3176986
vn -0.1728523 0.7751622 -0.6076559
vn -0.4765368 0.340101 -0.8107058
vn -0.2083827 0.5824466 0.7857051
vn -0.4317942 0.8138529 0.3888408
vn -0.7902284 0.2288124 0.5684927
vn 0.807267 -0.4973807 -0.3176986
vn 0.1728523 -0.7751622 -0.6076559
vn 0.4765368 -0.340101 -0.8107058
vn 0.2083827 -0.5824466 0.7857051
vn 0.4317942 -0.8138529 0.3888408
vn 0.7902284 -0.2288124 0.5684927
vn 0.2083827 0.5824466 -0.7857051
vn 0.4317942 0.8138529 -0.3888408
vn 0.7902284 0.2288124 -0.5684927
vn 0.807267 0.4973807 0.3176986
vn 0.1728523 0.7751622 0.6076559
vn 0.4765368 0.340101 0.8107058
f 25//1 26//2 27//3
f 25//1 27//3 28//4
f 29//5 30//6 31//7
f 29//5 31//7 32//8
f 26//9 32//9 31//9
f 26//9 31//9 27//9
f 25//10 28//10 30//10
f 25//10 30//10 29//10
f 28//4 27//3 33//11
f 28//4 33//11 34//12
f 30//6 35//13 36//14
f 30//6 36//14 31//7
f 27//9 31//9 36//9
f 27//9 36//9 33//9
f 28//10 34//10 35//10
f 28//10 35//10 30//10
f 34//12 33//11 37//15
f 34//12 37//15 38//16
f 35//13 39//17 40//18
f 35//13 40//18 36//14
f 33//9 36//9 40//9
f 33//9 40//9 37//9
f 34//10 38//10 39//10
f 34//10 39//10 35//10
f 38//16 37//15 41//19
f 38//16 41//19 42//20
f 39//17 43//21 44//22
f 39//17 44//22 40//18
f 37//9 40//9 44//9
f 37//9 44//9 41//9
f 38//10 42//10 43//10
f 38//10 43//10 39//10
f 42//20 41//19 45//23
f 42//20 45//23 46//24
f 43//21 47//25 48//26
f 43//21 48//26 44//22
f 41//9 44//9 48//9
f 41//9 48//9 45//9
f 42//10 46//10 47//10
f 42//10 47//10 43//10
f 46//24 45//23 49//27
f 46//24 49//27 50//28
f 47//25 51//29 52//30
f 47//25 52//30 48//26
f 45//9 48//9 52//9
f 45//9 52//9 49//9
f 46//10 50//10 51//10
f 46//10 51//10 47//10
f 50//28 49//27 53//31
f 50//28 53//31 54//32
f 51//29 55//33 56//34
f 51//29 56//34 52//30
f 49//9 52//9 56//9
f 49//9 56//9 53//9
f 50//10 54//10 55//10
f 50//10 55//10 51//10
f 54//32 53//31 57//35
f 54//32 57//35 58//36
f 55//33 59//37 60//38
f 55//33 60//38 56//34
f 53//9 56//9 60//9
f 53//9 60//9 57//9
f 54//10 58//10 59//10
f 54//10 59//10 55//10
f 58//36 57//35 61//39
f 58//36 61//39 62//40
f 59//37 63//41 64//42
f 59//37 64//42 60//38
f 57//9 60//9 64//9
f 57//9 64//9 61//9
f 58//10 62//10 63//10
f 58//10 63//10 59//10
f 62//40 61//39 65//43
f 62//40 65//43 66//44
f 63//41 67//45 68//46
f 63//41 68//46 64//42
f 61//9 64//9 68//9
f 61//9 68//9 65//9
f 62//10 66//10 67//10
f 62//10 67//10 63//10
f 66//44 65//43 69//47
f 66//44 69//47 70//48
f 67//45 71//49 72//50
f 67//45 72//50 68//46
f 65//9 68//9 72//9
f 65//9 72//9 69//9
f 66//10 70//10 71//10
f 66//10 71//10 67//10
f 70//48 69//47 73//51
f 70//48 73//51 74//52
f 71//49 75//53 76//54
f 71//49 76//54 72//50
f 69//9 72//9 76//9
f 69//9 76//9 73//9
f 70//10 74//10 75//10
f 70//10 75//10 71//10
f 74//52 73//51 77//55
f 74//52 77//55 78//56
f 75//53 79//57 80//58
f 75//53 80//58 76//54
f 73//9 76//9 80//9
f 73//9 80//9 77//9
f 74//10 78//10 79//10
f 74//10 79//10 75//10
f 78//56 77//55 81//59
f 78//56 81//59 82//60
f 79//57 83//61 84//62
f 79//57 84//62 80//58
f 77//9 80//9 84//9
f 77//9 84//9 81//9
f 78//10 82//10 83//10
f 78//10 83//10 79//10
f 82//60 81//59 85//63
f 82//60 85//63 86//64
f 83//61 87//65 88//66
f 83//61 88//66 84//62
f 81//9 84//9 88//9
f 81//9 88//9 85//9
f 82//10 86//10 87//10
f 82//10 87//10 83//10
f 86//64 85//63 89//67
f 86//64 89//67 90//68
f 87//65 91//69 92//70
f 87//65 92//70 88//66
f 85//9 88//9 92//9
f 85//9 92//9 89//9
f 86//10 90//10 91//10
f 86//10 91//10 87//10
f 90//68 89//67 93//71
f 90//68 93//71 94//72
f 91//69 95//73 96//74
f 91//69 96//74 92//70
f 89//9 92//9 96//9
f 89//9 96//9 93//9
f 90//10 94//10 95//10
f 90//10 95//10 91//10
f 94//72 93//71 97//75
f 94//72 97//75 98//76
f 95//73 99//77 100//78
f 95//73 100//78 96//74
f 93//9 96//9 100//9
f 93//9 100//9 97//9
f 94//10 98//10 99//10
f 94//10 99//10 95//10
f 98//76 97//75 101//79
f 98//76 101//79 102//80
f 99//77 103//81 104//82
f 99//77 104//82 100//78
f 97//9 100//9 104//9
f 97//9 104//9 101//9
f 98//10 102//10 103//10
f 98//10 103//10 99//10
f 102//80 101//79 105//83
f 102//80 105//83 106//84
f 103//81 107//85 108//86
f 103//81 108//86 104//82
f 101//9 104//9 108//9
f 101//9 108//9 105//9
f 102//10 106//10 107//10
f 102//10 107//10 103//10
f 106//84 105//83 109//87
f 106//84 109//87 110//88
f 107//85 111//89 112//90
f 107//85 112//90 108//86
f 105//9 108//9 112//9
f 105//9 112//9 109//9
f 106//10 110//10 111//10
f 106//10 111//10 107//10
f 110//88 109//87 113//91
f 110//88 113//91 114//92
f 111//89 115//93 116//94
f 111//89 116//94 112//90
f 109//9 112//9 116//9
f 109//9 116//9 113//9
f 110//10 114//10 115//10
f 110//10 115//10 111//10
f 114//92 113//91 117//95
f 114//92 117//95 118//96
f 115//93 119//97 120//98
f 115//93 120//98 116//94
f 113//9 116//9 120//9
f 113//9 120//9 117//9
f 114//10 118//10 119//10
f 114//10 119//10 115//10
f 118//96 117//95 121//99
f 118//96 121//99 122//100
f 119//97 123//101 124//102
f 119//97 124//102 120//98
f 117//9 120//9 124//9
f 117//9 124//9 121//9
f 118//10 122//10 123//10
f 118//10 123//10 119//10
f 122//100 121//99 125//103
f 122//100 125//103 126//104
f 123//101 127//105 128//106
f 123//101 128//106 124//102
f 121//9 124//9 128//9
f 121//9 128//9 125//9
f 122//10 126//10 127//10
f 122//10 127//10 123//10
f 126//104 125//103 129//107
f 126//104 129//107 130//108
f 127//105 131//109 132//110
f 127//105 132//110 128//106
f 125//9 128//9 132//9
f 125//9 132//9 129//9
f 126//10 130//10 131//10
f 126//10 131//10 127//10
f 130//108 129//107 133//111
f 130//108 133//111 134//112
f 131//109 135//113 136//114
f 131//109 136//114 132//110
f 129//9 132//9 136//9
f 129//9 136//9 133//9
f 130//10 134//10 135//10
f 130//10 135//10 131//10
f 134//112 133//111 137//115
f 134//112 137//115 138//116
f 135//113 139//117 140//118
f 135//113 140//118 136//114
f 133//9 136//9 140//9
f 133//9 140//9 137//9
f 134//10 138//10 139//10
f 134//10 139//10 135//10
f 138//116 137//115 141//119
f 138//116 141//119 142//120
f 139//117 143//121 144//122
f 139//117 144//122 140//118
f 137//9 140//9 144//9
f 137//9 144//9 141//9
f 138//10 142//10 143//10
f 138//10 143//10 139//10
f 142//120 141//119 145//123
f 142//120 145//123 146//124
f 143//121 147//125 148//126
f 143//121 148//126 144//122
f 141//9 144//9 148//9
f 141//9 148//9 145//9
f 142//10 146//10 147//10
f 142//10 147//10 143//10
f 146//124 145//123 149//127
f 146//124 149//127 150//128
f 147//125 151//129 152//130
f 147//125 152//130 148//126
f 145//9 148//9 152//9
f 145//9 152//9 149//9
f 146//10 150//10 151//10
f 146//10 151//10 147//10
f 150//128 149//127 153//131
f 150//128 153//131 154//132
f 151//129 155//133 156//134
f 151//129 156//134 152//130
f 149//9 152//9 156//9
f 149//9 156//9 153//9
f 150//10 154//10 155//10
f 150//10 155//10 151//10
f 154//132 153//131 157//135
f 154//132 157//135 158//136
f 155//133 159//137 160//138
f 155//133 160//138 156//134
f 153//9 156//9 160//9
f 153//9 160//9 157//9
f 154//10 158//10 159//10
f 154//10 159//10 155//10
f 158//136 157//135 161//139
f 158//136 161//139 162//140
f 159//137 163//141 164//142
f 159//137 164//142 160//138
f 157//9 160//9 164//9
f 157//9 164//9 161//9
f 158//10 162//10 163//10
f 158//10 163//10 159//10
f 162//140 161//139 165//143
f 162//140 165//143 166//144
f 163//141 167//145 168//146
f 163//141 168//146 164//142
f 161//9 164//9 168//9
f 161//9 168//9 165//9
f 162//10 166//10 167//10
f 162//10 167//10 163//10
f 166//144 165//143 169//147
f 166//144 169//147 170//148
f 167//145 171//149 172//150
f 167//145 172//150 168//146
f 165//9 168//9 172//9
f 165//9 172//9 169//9
f 166//10 170//10 171//10
f 166//10 171//10 167//10
f 170//148 169//147 173//151
f 170//148 173//151 174//152
f 171//149 175//153 176//154
f 171//149 176//154 172//150
f 169//9 172//9 176//9
f 169//9 176//9 173//9
f 170//10 174//10 175//10
f 170//10 175//10 171//10
f 174//152 173//151 177//155
f 174//152 177//155 178//156
f 175//153 179//157 180//158
f 175//153 180//158 176//154
f 173//9 176//9 180//9
f 173//9 180//9 177//9
f 174//10 178//10 179//10
f 174//10 179//10 175//10
f 178//156 177//155 181//159
f 178//156 181//159 182//160
f 179//157 183//161 184//162
f 179//157 184//162 180//158
f 177//9 180//9 184//9
f 177//9 184//9 181//9
f 178//10 182//10 183//10
f 178//10 183//10 179//10
f 182//160 181//159 185//163
f 182//160 185//163 186//164
f 183//161 187//165 188//166
f 183//161 188//166 184//162
f 181//9 184//9 188//9
f 181//9 188//9 185//9
f 182//10 186//10 187//10
f 182//10 187//10 183//10
f 186//164 185//163 189//167
f 186//164 189//167 190//168
f 187//165 191//169 192//170
f 187//165 192//170 188//166
f 185//9 188//9 192//9
f 185//9 192//9 189//9
f 186//10 190//10 191//10
f 186//10 191//10 187//10
f 190//168 189//167 193//171
f 190//168 193//171 194//172
f 191//169 195//173 196//174
f 191//169 196//174 192//170
f 189//9 192//9 196//9
f 189//9 196//9 193//9
f 190//10 194//10 195//10
f 190//10 195//10 191//10
f 194//172 193//171 197//175
f 194//172 197//175 198//176
f 195//173 199//177 200//178
f 195//173 200//178 196//174
f 193//9 196//9 200//9
f 193//9 200//9 197//9
f 194//10 198//10 199//10
f 194//10 199//10 195//10
f 198//176 197//175 201//179
f 198//176 201//179 202//180
f 199//177 203//181 204//182
f 199//177 204//182 200//178
f 197//9 200//9 204//9
f 197//9 204//9 201//9
f 198//10 202//10 203//10
f 198//10 203//10 199//10
f 202//180 201//179 205//183
f 202//180 205//183 206//184
f 203//181 207//185 208//186
f 203//181 208//186 204//182
f 201//9 204//9 208//9
f 201//9 208//9 205//9
f 202//10 206//10 207//10
f 202//10 207//10 203//10
f 206//184 205//183 209//187
f 206//184 209//187 210//188
f 207//185 211//189 212//190
f 207//185 212//190 208//186
f 205//9 208//9 212//9
f 205//9 212//9 209//9
f 206//10 210//10 211//10
f 206//10 211//10 207//10
f 210//188 209//187 213//191
f 210//188 213//191 214//192
f 211//189 215//193 216//194
f 211//189 216//194 212//190
f 209//9 212//9 216//9
f 209//9 216//9 213//9
f 210//10 214//10 215//10
f 210//10 215//10 211//10
f 214//192 213//191 217//195
f 214//192 217//195 218//196
f 215//193 219//197 220//198
f 215//193 220//198 216//194
f 213//9 216//9 220//9
f 213//9 220//9 217//9
f 214//10 218//10 219//10
f 214//10 219//10 215//10
f 218//196 217//195 221//199
f 218//196 221//199 222//200
f 219//197 223//201 224//202
f 219//197 224//202 220//198
f 217//9 220//9 224//9
f 217//9 224//9 221//9
f 218//10 222//10 223//10
f 218//10 223//10 219//10
f 222//200 221//199 225//203
f 222//200 225//203 226//204
f 223//201 227//205 228//206
f 223//201 228//206 224//202
f 221//9 224//9 228//9
f 221//9 228//9 225//9
f 222//10 226//10 227//10
f 222//10 227//10 223//10
f 226//204 225//203 229//207
f 226//204 229//207 230//208
f 227//205 231//209 232//210
f 227//205 232//210 228//206
f 225//9 228//9 232//9
f 225//9 232//9 229//9
f 226//10 230//10 231//10
f 226//10 231//10 227//10
f 230//208 229//207 233//211
f 230//208 233//211 234//212
f 231//209 235//213 236//214
f 231//209 236//214 232//210
f 229//9 232//9 236//9
f 229//9 236//9 233//9
f 230//10 234//10 235//10
f 230//10 235//10 231//10
f 234//212 233//211 237//215
f 234//212 237//215 238//216
f 235//213 239//217 240//218
f 235//213 240//218 236//214
f 233//9 236//9 240//9
f 233//9 240//9 237//9
f 234//10 238//10 239//10
f 234//10 239//10 235//10
f 238//216 237//215 241//219
f 238//216 241//219 242//220
f 239//217 243//221 244//222
f 239//217 244//222 240//218
f 237//9 240//9 244//9
f 237//9 244//9 241//9
f 238//10 242//10 243//10
f 238//10 243//10 239//10
f 242//220 241//219 245//223
f 242//220 245//223 246//224
f 243//221 247//225 248//226
f 243//221 248//226 244//222
f 241//9 244//9 248//9
f 241//9 248//9 245//9
f 242//10 246//10 247//10
f 242//10 247//10 243//10
f 246//224 245//223 249//227
f 246//224 249//227 250//228
f 247//225 251//229 252//230
f 247//225 252//230 248//226
f 245//9 248//9 252//9
f 245//9 252//9 249//9
f 246//10 250//10 251//10
f 246//10 251//10 247//10
f 250//228 249//227 253//231
f 250//228 253//231 254//232
f 251//229 255//233 256//234
f 251//229 256//234 252//230
f 249//9 252//9 256//9
f 249//9 256//9 253//9
f 250//10 254//10 255//10
f 250//10 255//10 251//10
f 254//232 253//231 257//235
f 254//232 257//235 258//236
f 255//233 259//237 260//238
f 255//233 260//238 256//234
f 253//9 256//9 260//9
f 253//9 260//9 257//9
f 254//10 258//10 259//10
f 254//10 259//10 255//10
f 258//236 257//235 261//239
f 258//236 261//239 262//240
f 259//237 263//241 264//242
f 259//237 264//242 260//238
f 257//9 260//9 264//9
f 257//9 264//9 261//9
f 258//10 262//10 263//10
f 258//10 263//10 259//10
f 262//240 261//239 265//243
f 262//240 265//243 266//244
f 263//241 267//245 268//246
f 263//241 268//246 264//242
f 261//9 264//9 268//9
f 261//9 268//9 265//9
f 262//10 266//10 267//10
f 262//10 267//10 263//10
f 266//244 265//243 269//247
f 266//244 269//247 270//248
f 267//245 271//249 272//250
f 267//245 272//250 268//246
f 265//9 268//9 272//9
f 265//9 272//9 269//9
f 266//10 270//10 271//10
f 266//10 271//10 267//10
f 270//248 269//247 273//251
f 270//248 273//251 274//252
f 271//249 275//253 276//254
f 271//249 276//254 272//250
f 269//9 272//9 276//9
f 269//9 276//9 273//9
f 270//10 274//10 275//10
f 270//10 275//10 271//10
f 274//252 273//251 277//255
f 274//252 277//255 278//256
f 275//253 279//257 280//258
f 275//253 280//258 276//254
f 273//9 276//9 280//9
f 273//9 280//9 277//9
f 274//10 278//10 279//10
f 274//10 279//10 275//10
f 278//256 277//255 26//2
f 278//256 26//2 25//1
f 279//257 29//5 32//8
f 279//257 32//8 280//258
f 277//9 280//9 32//9
f 277//9 32//9 26//9
f 278//10 25//10 29//10
f 278//10 29//10 279//10
usemtl plastic
f 1//259 2//260 3//261
f 1//259 3//261 4//262
f 5//263 6//264 7//265
f 5//263 7//265 8//266
f 9//267 10//268 11//269
f 9//267 11//269 12//270
f 13//271 14//272 15//273
f 13//271 15//273 16//274
f 17//275 18//276 19//277
f 17//275 19//277 20//278
f 21//279 22//280 23//281
f 21//279 23//281 24//282
f 20//283 19//284 10//285
f 20//283 10//285 9//286
f 12//287 11//288 22//289
f 12//287 22//289 21//290
f 16//291 15//292 18//293
f 16//291 18//293 17//294
f 24//295 23//296 14//297
f 24//295 14//297 13//298
f 4//299 3//300 17//301
f 4//299 17//301 20//302
f 21//303 24//304 2//305
f 21//303 2//305 1//306
f 19//307 18//308 6//309
f 19//307 6//309 5//310
f 8//311 7//312 23//313
f 8//311 23//313 22//314
f 9//315 12//316 1//317
f 9//315 1//317 4//318
f 3//319 2//320 13//321
f 3//319 13//321 16//322
f 5//323 8//324 11//325
f 5//323 11//325 10//326
f 15//327 14//328 7//329
f 15//327 7//329 6//330
f 20//331 9//332 4//333
f 1//334 12//335 21//336
f 3//337 16//338 17//339
f 24//340 13//341 2//342
f 5//343 10//344 19//345
f 22//346 11//347 8//348
f 18//349 15//350 6//351
f 7//352 14//353 23//354
