# Botball Lab: metres, +Y up, centred XZ, base Y=0
s off
v -0.0040000 0.0062408 -0.0004000
v -0.0040000 0.0060768 -0.0012248
v -0.0048000 0.0060768 -0.0012248
v -0.0048000 0.0062408 -0.0004000
v -0.0040000 0.0053832 -0.0022626
v -0.0048000 0.0053832 -0.0022626
v -0.0048000 0.0060768 -0.0012244
v -0.0040000 0.0060768 -0.0012244
v -0.0040000 0.0043451 -0.0029562
v -0.0048000 0.0043451 -0.0029562
v -0.0040000 0.0031206 -0.0032000
v -0.0048000 0.0031206 -0.0032000
v -0.0040000 0.0018960 -0.0029564
v -0.0048000 0.0018960 -0.0029564
v -0.0040000 0.0008578 -0.0022628
v -0.0048000 0.0008578 -0.0022628
v -0.0040000 0.0001642 -0.0012247
v -0.0048000 0.0001642 -0.0012247
v -0.0048000 0.0001640 -0.0012248
v -0.0040000 0.0001640 -0.0012248
v -0.0040000 0.0000000 -0.0004000
v -0.0048000 0.0000000 -0.0004000
v -0.0040000 0.0000000 0.0004000
v -0.0040000 0.0001640 0.0012248
v -0.0048000 0.0001640 0.0012248
v -0.0048000 0.0000000 0.0004000
v -0.0040000 0.0008576 0.0022626
v -0.0048000 0.0008576 0.0022626
v -0.0048000 0.0001640 0.0012244
v -0.0040000 0.0001640 0.0012244
v -0.0040000 0.0018957 0.0029562
v -0.0048000 0.0018957 0.0029562
v -0.0040000 0.0031202 0.0032000
v -0.0048000 0.0031202 0.0032000
v -0.0040000 0.0043448 0.0029564
v -0.0048000 0.0043448 0.0029564
v -0.0040000 0.0053830 0.0022628
v -0.0048000 0.0053830 0.0022628
v -0.0040000 0.0060766 0.0012247
v -0.0048000 0.0060766 0.0012247
v -0.0048000 0.0060768 0.0012248
v -0.0040000 0.0060768 0.0012248
v -0.0040000 0.0062408 0.0004000
v -0.0048000 0.0062408 0.0004000
v -0.0048000 0.0053376 -0.0009184
v -0.0048000 0.0054408 -0.0004000
v -0.0048000 0.0060772 -0.0012240
v -0.0048000 0.0053837 -0.0022623
v -0.0048000 0.0048178 -0.0016968
v -0.0048000 0.0053380 -0.0009180
v -0.0048000 0.0043457 -0.0029562
v -0.0048000 0.0040393 -0.0022172
v -0.0048000 0.0043444 -0.0029568
v -0.0048000 0.0031197 -0.0032002
v -0.0048000 0.0031199 -0.0024002
v -0.0048000 0.0040384 -0.0022176
v -0.0048000 0.0018951 -0.0029562
v -0.0048000 0.0022015 -0.0022172
v -0.0048000 0.0008570 -0.0022624
v -0.0048000 0.0014229 -0.0016968
v -0.0048000 0.0001636 -0.0012240
v -0.0048000 0.0009028 -0.0009180
v -0.0048000 0.0009032 -0.0009184
v -0.0048000 0.0001640 -0.0012244
v -0.0048000 0.0008000 -0.0004000
v -0.0048000 0.0009032 0.0009184
v -0.0048000 0.0008000 0.0004000
v -0.0048000 0.0001636 0.0012240
v -0.0048000 0.0008571 0.0022623
v -0.0048000 0.0014230 0.0016968
v -0.0048000 0.0009028 0.0009180
v -0.0048000 0.0018951 0.0029562
v -0.0048000 0.0022015 0.0022172
v -0.0048000 0.0018964 0.0029568
v -0.0048000 0.0031211 0.0032002
v -0.0048000 0.0031209 0.0024002
v -0.0048000 0.0022024 0.0022176
v -0.0048000 0.0043457 0.0029562
v -0.0048000 0.0040393 0.0022172
v -0.0048000 0.0053838 0.0022624
v -0.0048000 0.0048179 0.0016968
v -0.0048000 0.0060772 0.0012240
v -0.0048000 0.0053380 0.0009180
v -0.0048000 0.0053376 0.0009184
v -0.0048000 0.0060768 0.0012244
v -0.0048000 0.0054408 0.0004000
v -0.0077696 0.0054899 0.0001531
v -0.0078000 0.0055204 -0.0000000
v -0.0078000 0.0054408 0.0004000
v -0.0076828 0.0054641 0.0002828
v -0.0075531 0.0054469 0.0003696
v -0.0074000 0.0054408 0.0004000
v -0.0078000 0.0053376 0.0009184
v -0.0078000 0.0048174 0.0016970
v -0.0048000 0.0048174 0.0016970
v -0.0078000 0.0040388 0.0022172
v -0.0048000 0.0040388 0.0022172
v -0.0078000 0.0031204 0.0023999
v -0.0048000 0.0031204 0.0023999
v -0.0078000 0.0022020 0.0022172
v -0.0048000 0.0022020 0.0022172
v -0.0078000 0.0014234 0.0016970
v -0.0048000 0.0014234 0.0016970
v -0.0078000 0.0009032 0.0009184
v -0.0078000 0.0008000 0.0004000
v -0.0078000 0.0007204 -0.0000000
v -0.0077696 0.0007509 0.0001531
v -0.0076828 0.0007767 0.0002828
v -0.0075531 0.0007939 0.0003696
v -0.0074000 0.0008000 0.0004000
v -0.0077696 0.0007509 -0.0001531
v -0.0078000 0.0008000 -0.0004000
v -0.0076828 0.0007767 -0.0002828
v -0.0075531 0.0007939 -0.0003696
v -0.0074000 0.0008000 -0.0004000
v -0.0078000 0.0009032 -0.0009184
v -0.0078000 0.0014234 -0.0016970
v -0.0048000 0.0014234 -0.0016970
v -0.0078000 0.0022020 -0.0022172
v -0.0048000 0.0022020 -0.0022172
v -0.0078000 0.0031204 -0.0023999
v -0.0048000 0.0031204 -0.0023999
v -0.0078000 0.0040388 -0.0022172
v -0.0048000 0.0040388 -0.0022172
v -0.0078000 0.0048174 -0.0016970
v -0.0048000 0.0048174 -0.0016970
v -0.0078000 0.0053376 -0.0009184
v -0.0078000 0.0054408 -0.0004000
v -0.0077696 0.0054899 -0.0001531
v -0.0076828 0.0054641 -0.0002828
v -0.0075531 0.0054469 -0.0003696
v -0.0074000 0.0054408 -0.0004000
v -0.0078000 0.0022019 -0.0022174
v -0.0086000 0.0022019 -0.0022174
v -0.0086000 0.0031204 -0.0024000
v -0.0078000 0.0031204 -0.0024000
v -0.0086000 0.0014234 -0.0016970
v -0.0078000 0.0009030 -0.0009185
v -0.0086000 0.0009030 -0.0009185
v -0.0086000 0.0007204 -0.0000000
v -0.0078000 0.0009030 0.0009185
v -0.0086000 0.0009030 0.0009185
v -0.0086000 0.0014234 0.0016970
v -0.0078000 0.0022019 0.0022174
v -0.0086000 0.0022019 0.0022174
v -0.0078000 0.0031204 0.0024000
v -0.0086000 0.0031204 0.0024000
v -0.0078000 0.0040389 0.0022174
v -0.0086000 0.0040389 0.0022174
v -0.0086000 0.0048174 0.0016970
v -0.0078000 0.0053378 0.0009185
v -0.0086000 0.0053378 0.0009185
v -0.0086000 0.0055204 -0.0000000
v -0.0078000 0.0053378 -0.0009185
v -0.0086000 0.0053378 -0.0009185
v -0.0086000 0.0048174 -0.0016970
v -0.0078000 0.0040389 -0.0022174
v -0.0086000 0.0040389 -0.0022174
v -0.0086304 0.0029673 -0.0023695
v -0.0086000 0.0027204 -0.0023204
v -0.0087172 0.0028376 -0.0023437
v -0.0088469 0.0027508 -0.0023265
v -0.0090000 0.0027204 -0.0023204
v -0.0112000 0.0027204 -0.0023204
v -0.0086000 0.0022020 -0.0022172
v -0.0112000 0.0022020 -0.0022172
v -0.0112000 0.0014234 -0.0016970
v -0.0086000 0.0009032 -0.0009184
v -0.0112000 0.0009032 -0.0009184
v -0.0086000 0.0007205 -0.0000000
v -0.0112000 0.0007205 -0.0000000
v -0.0086000 0.0009032 0.0009184
v -0.0112000 0.0009032 0.0009184
v -0.0112000 0.0014234 0.0016970
v -0.0086000 0.0022020 0.0022172
v -0.0112000 0.0022020 0.0022172
v -0.0086000 0.0027204 0.0023204
v -0.0112000 0.0027204 0.0023204
v -0.0086304 0.0029673 0.0023695
v -0.0087172 0.0028376 0.0023437
v -0.0088469 0.0027508 0.0023265
v -0.0090000 0.0027204 0.0023204
v -0.0086304 0.0032735 0.0023695
v -0.0086000 0.0035204 0.0023204
v -0.0087172 0.0034032 0.0023437
v -0.0088469 0.0034900 0.0023265
v -0.0090000 0.0035204 0.0023204
v -0.0112000 0.0035204 0.0023204
v -0.0086000 0.0040388 0.0022172
v -0.0112000 0.0040388 0.0022172
v -0.0112000 0.0048174 0.0016970
v -0.0086000 0.0053376 0.0009184
v -0.0112000 0.0053376 0.0009184
v -0.0086000 0.0055203 0.0000000
v -0.0112000 0.0055203 0.0000000
v -0.0086000 0.0053376 -0.0009184
v -0.0112000 0.0053376 -0.0009184
v -0.0112000 0.0048174 -0.0016970
v -0.0086000 0.0040388 -0.0022172
v -0.0112000 0.0040388 -0.0022172
v -0.0086000 0.0035204 -0.0023204
v -0.0112000 0.0035204 -0.0023204
v -0.0086304 0.0032735 -0.0023695
v -0.0087172 0.0034032 -0.0023437
v -0.0088469 0.0034900 -0.0023265
v -0.0090000 0.0035204 -0.0023204
v -0.0112000 0.0035204 -0.0025204
v -0.0112000 0.0041156 -0.0024020
v -0.0112000 0.0049588 -0.0018384
v -0.0112000 0.0048176 -0.0016972
v -0.0112000 0.0055224 -0.0009952
v -0.0112000 0.0057204 -0.0000000
v -0.0112000 0.0055204 -0.0000000
v -0.0112000 0.0055224 0.0009952
v -0.0112000 0.0049588 0.0018384
v -0.0112000 0.0048176 0.0016972
v -0.0112000 0.0041156 0.0024020
v -0.0112000 0.0035204 0.0025204
v -0.0112000 0.0027204 0.0025204
v -0.0112000 0.0021252 0.0024020
v -0.0112000 0.0012820 0.0018384
v -0.0112000 0.0014232 0.0016972
v -0.0112000 0.0007184 0.0009952
v -0.0112000 0.0005204 -0.0000000
v -0.0112000 0.0007204 -0.0000000
v -0.0112000 0.0007184 -0.0009952
v -0.0112000 0.0012820 -0.0018384
v -0.0112000 0.0014232 -0.0016972
v -0.0112000 0.0021252 -0.0024020
v -0.0112000 0.0027204 -0.0025204
v -0.0120000 0.0021252 -0.0024020
v -0.0120000 0.0027204 -0.0025204
v -0.0112000 0.0012817 -0.0018383
v -0.0120000 0.0012817 -0.0018383
v -0.0112000 0.0007182 -0.0009947
v -0.0120000 0.0007182 -0.0009947
v -0.0112000 0.0005203 0.0000002
v -0.0120000 0.0005203 0.0000002
v -0.0120000 0.0007184 0.0009952
v -0.0112000 0.0012821 0.0018387
v -0.0120000 0.0012821 0.0018387
v -0.0112000 0.0021257 0.0024022
v -0.0120000 0.0021257 0.0024022
v -0.0120000 0.0027204 0.0025204
v -0.0120000 0.0021252 0.0024020
v -0.0120000 0.0041156 0.0024020
v -0.0120000 0.0035204 0.0025204
v -0.0112000 0.0049591 0.0018383
v -0.0120000 0.0049591 0.0018383
v -0.0112000 0.0055226 0.0009947
v -0.0120000 0.0055226 0.0009947
v -0.0112000 0.0057205 -0.0000002
v -0.0120000 0.0057205 -0.0000002
v -0.0120000 0.0055224 -0.0009952
v -0.0112000 0.0049587 -0.0018387
v -0.0120000 0.0049587 -0.0018387
v -0.0112000 0.0041151 -0.0024022
v -0.0120000 0.0041151 -0.0024022
v -0.0120000 0.0035204 -0.0025204
v -0.0120000 0.0041156 -0.0024020
v -0.0086304 0.0029673 -0.0015695
v -0.0086000 0.0031204 -0.0016000
v -0.0087172 0.0028376 -0.0015437
v -0.0088469 0.0027508 -0.0015265
v -0.0090000 0.0027204 -0.0015204
v -0.0112000 0.0027204 -0.0015204
v -0.0120000 0.0027204 -0.0015204
v -0.0120000 0.0025080 -0.0014784
v -0.0120000 0.0019892 -0.0011312
v -0.0120000 0.0012820 -0.0018384
v -0.0120000 0.0016420 -0.0006124
v -0.0120000 0.0007184 -0.0009952
v -0.0120000 0.0015204 -0.0000000
v -0.0120000 0.0005204 -0.0000000
v -0.0120000 0.0016420 0.0006124
v -0.0120000 0.0019892 0.0011312
v -0.0120000 0.0012820 0.0018384
v -0.0120000 0.0025080 0.0014784
v -0.0120000 0.0027204 0.0015204
v -0.0112000 0.0027204 0.0015204
v -0.0090000 0.0027204 0.0015204
v -0.0086000 0.0031204 0.0016000
v -0.0086304 0.0029673 0.0015695
v -0.0087172 0.0028376 0.0015437
v -0.0088469 0.0027508 0.0015265
v -0.0086304 0.0032735 0.0015695
v -0.0087172 0.0034032 0.0015437
v -0.0088469 0.0034900 0.0015265
v -0.0090000 0.0035204 0.0015204
v -0.0112000 0.0035204 0.0015204
v -0.0120000 0.0035204 0.0015204
v -0.0120000 0.0037328 0.0014784
v -0.0120000 0.0042516 0.0011312
v -0.0120000 0.0049588 0.0018384
v -0.0120000 0.0045988 0.0006124
v -0.0120000 0.0055224 0.0009952
v -0.0120000 0.0047204 -0.0000000
v -0.0120000 0.0057204 -0.0000000
v -0.0120000 0.0045988 -0.0006124
v -0.0120000 0.0042516 -0.0011312
v -0.0120000 0.0049588 -0.0018384
v -0.0120000 0.0037328 -0.0014784
v -0.0120000 0.0035204 -0.0015204
v -0.0112000 0.0035204 -0.0015204
v -0.0090000 0.0035204 -0.0015204
v -0.0086304 0.0032735 -0.0015695
v -0.0087172 0.0034032 -0.0015437
v -0.0088469 0.0034900 -0.0015265
v -0.0086000 0.0027204 -0.0015204
v -0.0086000 0.0025084 -0.0014780
v -0.0120000 0.0025084 -0.0014780
v -0.0120000 0.0025080 -0.0014780
v -0.0120000 0.0019890 -0.0011312
v -0.0086000 0.0019890 -0.0011312
v -0.0086000 0.0025080 -0.0014780
v -0.0120000 0.0016423 -0.0006121
v -0.0086000 0.0016423 -0.0006121
v -0.0120000 0.0015205 0.0000002
v -0.0086000 0.0015205 0.0000002
v -0.0120000 0.0016424 0.0006124
v -0.0086000 0.0016424 0.0006124
v -0.0120000 0.0019892 0.0011314
v -0.0086000 0.0019892 0.0011314
v -0.0120000 0.0025083 0.0014781
v -0.0086000 0.0025083 0.0014781
v -0.0086000 0.0027204 0.0015204
v -0.0086000 0.0025084 0.0014780
v -0.0120000 0.0025084 0.0014780
v -0.0086000 0.0035204 0.0015204
v -0.0086000 0.0037324 0.0014780
v -0.0120000 0.0037324 0.0014780
v -0.0120000 0.0037328 0.0014780
v -0.0120000 0.0042518 0.0011312
v -0.0086000 0.0042518 0.0011312
v -0.0086000 0.0037328 0.0014780
v -0.0120000 0.0045985 0.0006121
v -0.0086000 0.0045985 0.0006121
v -0.0120000 0.0047203 -0.0000002
v -0.0086000 0.0047203 -0.0000002
v -0.0120000 0.0045984 -0.0006124
v -0.0086000 0.0045984 -0.0006124
v -0.0120000 0.0042516 -0.0011314
v -0.0086000 0.0042516 -0.0011314
v -0.0120000 0.0037325 -0.0014781
v -0.0086000 0.0037325 -0.0014781
v -0.0086000 0.0035204 -0.0015204
v -0.0086000 0.0037324 -0.0014780
v -0.0120000 0.0037324 -0.0014780
v -0.0086000 0.0025081 -0.0014782
v -0.0078000 0.0025081 -0.0014782
v -0.0078000 0.0031204 -0.0016000
v -0.0086000 0.0019890 -0.0011314
v -0.0078000 0.0019890 -0.0011314
v -0.0086000 0.0016422 -0.0006123
v -0.0078000 0.0016422 -0.0006123
v -0.0086000 0.0015204 -0.0000000
v -0.0078000 0.0015204 -0.0000000
v -0.0086000 0.0016422 0.0006123
v -0.0078000 0.0016422 0.0006123
v -0.0086000 0.0019890 0.0011314
v -0.0078000 0.0019890 0.0011314
v -0.0086000 0.0025081 0.0014782
v -0.0078000 0.0025081 0.0014782
v -0.0078000 0.0031204 0.0016000
v -0.0086000 0.0037327 0.0014782
v -0.0078000 0.0037327 0.0014782
v -0.0086000 0.0042518 0.0011314
v -0.0078000 0.0042518 0.0011314
v -0.0086000 0.0045986 0.0006123
v -0.0078000 0.0045986 0.0006123
v -0.0086000 0.0047204 -0.0000000
v -0.0078000 0.0047204 -0.0000000
v -0.0086000 0.0045986 -0.0006123
v -0.0078000 0.0045986 -0.0006123
v -0.0086000 0.0042518 -0.0011314
v -0.0078000 0.0042518 -0.0011314
v -0.0086000 0.0037327 -0.0014782
v -0.0078000 0.0037327 -0.0014782
v -0.0078000 0.0046408 0.0004000
v -0.0077696 0.0046899 0.0001531
v -0.0076828 0.0046641 0.0002828
v -0.0075531 0.0046469 0.0003696
v -0.0074000 0.0046408 0.0004000
v -0.0078000 0.0045984 0.0006124
v -0.0040000 0.0046408 0.0004000
v -0.0040000 0.0045984 0.0006124
v -0.0040000 0.0042516 0.0011314
v -0.0078000 0.0042516 0.0011314
v -0.0040000 0.0037325 0.0014781
v -0.0078000 0.0037325 0.0014781
v -0.0040000 0.0031202 0.0015999
v -0.0078000 0.0031202 0.0015999
v -0.0040000 0.0025080 0.0014780
v -0.0078000 0.0025080 0.0014780
v -0.0040000 0.0019890 0.0011312
v -0.0078000 0.0019890 0.0011312
v -0.0040000 0.0016423 0.0006121
v -0.0078000 0.0016423 0.0006121
v -0.0040000 0.0016424 0.0006124
v -0.0040000 0.0016000 0.0004000
v -0.0078000 0.0016000 0.0004000
v -0.0078000 0.0016424 0.0006124
v -0.0077696 0.0015509 0.0001531
v -0.0076828 0.0015767 0.0002828
v -0.0075531 0.0015939 0.0003696
v -0.0074000 0.0016000 0.0004000
v -0.0078000 0.0016000 -0.0004000
v -0.0077696 0.0015509 -0.0001531
v -0.0076828 0.0015767 -0.0002828
v -0.0075531 0.0015939 -0.0003696
v -0.0074000 0.0016000 -0.0004000
v -0.0078000 0.0016424 -0.0006124
v -0.0040000 0.0016000 -0.0004000
v -0.0040000 0.0016424 -0.0006124
v -0.0040000 0.0019892 -0.0011314
v -0.0078000 0.0019892 -0.0011314
v -0.0040000 0.0025083 -0.0014781
v -0.0078000 0.0025083 -0.0014781
v -0.0040000 0.0031206 -0.0015999
v -0.0078000 0.0031206 -0.0015999
v -0.0040000 0.0037328 -0.0014780
v -0.0078000 0.0037328 -0.0014780
v -0.0040000 0.0042518 -0.0011312
v -0.0078000 0.0042518 -0.0011312
v -0.0040000 0.0045985 -0.0006121
v -0.0078000 0.0045985 -0.0006121
v -0.0040000 0.0045984 -0.0006124
v -0.0040000 0.0046408 -0.0004000
v -0.0078000 0.0046408 -0.0004000
v -0.0078000 0.0045984 -0.0006124
v -0.0077696 0.0046899 -0.0001531
v -0.0076828 0.0046641 -0.0002828
v -0.0075531 0.0046469 -0.0003696
v -0.0074000 0.0046408 -0.0004000
v -0.0048000 0.0046408 0.0004000
v -0.0048000 0.0016000 0.0004000
v -0.0048000 0.0016000 -0.0004000
v -0.0048000 0.0046408 -0.0004000
v -0.0096000 0.0011260 -0.0014288
v -0.0094469 0.0011432 -0.0014546
v -0.0094469 0.0012140 -0.0013838
v -0.0096000 0.0011968 -0.0013580
v -0.0093172 0.0011923 -0.0015282
v -0.0093172 0.0012631 -0.0014574
v -0.0092304 0.0012658 -0.0016382
v -0.0092304 0.0013366 -0.0015674
v -0.0092000 0.0013524 -0.0017680
v -0.0092000 0.0014232 -0.0016972
v -0.0094469 0.0017366 -0.0019064
v -0.0094469 0.0016658 -0.0019772
v -0.0096000 0.0016916 -0.0019944
v -0.0096000 0.0017624 -0.0019236
v -0.0093172 0.0016630 -0.0018573
v -0.0093172 0.0015922 -0.0019281
v -0.0092304 0.0015530 -0.0017838
v -0.0092304 0.0014822 -0.0018546
v -0.0092000 0.0013528 -0.0017676
v -0.0092304 0.0012662 -0.0016378
v -0.0094469 0.0011436 -0.0014542
v -0.0096000 0.0011264 -0.0014284
v -0.0093172 0.0011927 -0.0015278
v -0.0094469 0.0016662 -0.0019768
v -0.0092304 0.0014826 -0.0018542
v -0.0096000 0.0016920 -0.0019940
v -0.0093172 0.0015926 -0.0019277
v -0.0112000 0.0011968 -0.0013580
v -0.0112000 0.0011264 -0.0014284
v -0.0112000 0.0017624 -0.0019236
v -0.0112000 0.0016920 -0.0019940
v -0.0112000 0.0011260 -0.0014288
v -0.0112000 0.0013528 -0.0017676
v -0.0112000 0.0016916 -0.0019944
v -0.0096000 0.0016916 0.0019944
v -0.0094469 0.0016658 0.0019772
v -0.0094469 0.0017366 0.0019064
v -0.0096000 0.0017624 0.0019236
v -0.0093172 0.0015922 0.0019281
v -0.0093172 0.0016630 0.0018573
v -0.0092304 0.0014822 0.0018546
v -0.0092304 0.0015530 0.0017838
v -0.0092000 0.0013524 0.0017680
v -0.0092000 0.0014232 0.0016972
v -0.0094469 0.0012140 0.0013838
v -0.0094469 0.0011432 0.0014546
v -0.0096000 0.0011260 0.0014288
v -0.0096000 0.0011968 0.0013580
v -0.0093172 0.0012631 0.0014574
v -0.0093172 0.0011923 0.0015282
v -0.0092304 0.0013366 0.0015674
v -0.0092304 0.0012658 0.0016382
v -0.0092000 0.0013528 0.0017676
v -0.0092304 0.0014826 0.0018542
v -0.0094469 0.0016662 0.0019768
v -0.0096000 0.0016920 0.0019940
v -0.0093172 0.0015926 0.0019277
v -0.0094469 0.0011436 0.0014542
v -0.0092304 0.0012662 0.0016378
v -0.0096000 0.0011264 0.0014284
v -0.0093172 0.0011927 0.0015278
v -0.0112000 0.0017624 0.0019236
v -0.0112000 0.0016920 0.0019940
v -0.0112000 0.0011968 0.0013580
v -0.0112000 0.0011264 0.0014284
v -0.0112000 0.0016916 0.0019944
v -0.0112000 0.0013528 0.0017676
v -0.0112000 0.0011260 0.0014288
v -0.0096000 0.0051148 0.0014288
v -0.0094469 0.0050976 0.0014546
v -0.0094469 0.0050268 0.0013838
v -0.0096000 0.0050440 0.0013580
v -0.0093172 0.0050485 0.0015282
v -0.0093172 0.0049777 0.0014574
v -0.0092304 0.0049750 0.0016382
v -0.0092304 0.0049042 0.0015674
v -0.0092000 0.0048884 0.0017680
v -0.0092000 0.0048176 0.0016972
v -0.0094469 0.0045042 0.0019064
v -0.0094469 0.0045750 0.0019772
v -0.0096000 0.0045492 0.0019944
v -0.0096000 0.0044784 0.0019236
v -0.0093172 0.0045778 0.0018573
v -0.0093172 0.0046486 0.0019281
v -0.0092304 0.0046878 0.0017838
v -0.0092304 0.0047586 0.0018546
v -0.0092000 0.0048880 0.0017676
v -0.0092304 0.0049746 0.0016378
v -0.0094469 0.0050972 0.0014542
v -0.0096000 0.0051144 0.0014284
v -0.0093172 0.0050481 0.0015278
v -0.0094469 0.0045746 0.0019768
v -0.0092304 0.0047582 0.0018542
v -0.0096000 0.0045488 0.0019940
v -0.0093172 0.0046482 0.0019277
v -0.0112000 0.0050440 0.0013580
v -0.0112000 0.0051144 0.0014284
v -0.0112000 0.0044784 0.0019236
v -0.0112000 0.0045488 0.0019940
v -0.0112000 0.0051148 0.0014288
v -0.0112000 0.0048880 0.0017676
v -0.0112000 0.0045492 0.0019944
v -0.0096000 0.0045492 -0.0019944
v -0.0094469 0.0045750 -0.0019772
v -0.0094469 0.0045042 -0.0019064
v -0.0096000 0.0044784 -0.0019236
v -0.0093172 0.0046486 -0.0019281
v -0.0093172 0.0045778 -0.0018573
v -0.0092304 0.0047586 -0.0018546
v -0.0092304 0.0046878 -0.0017838
v -0.0092000 0.0048884 -0.0017680
v -0.0092000 0.0048176 -0.0016972
v -0.0094469 0.0050268 -0.0013838
v -0.0094469 0.0050976 -0.0014546
v -0.0096000 0.0051148 -0.0014288
v -0.0096000 0.0050440 -0.0013580
v -0.0093172 0.0049777 -0.0014574
v -0.0093172 0.0050485 -0.0015282
v -0.0092304 0.0049042 -0.0015674
v -0.0092304 0.0049750 -0.0016382
v -0.0092000 0.0048880 -0.0017676
v -0.0092304 0.0047582 -0.0018542
v -0.0094469 0.0045746 -0.0019768
v -0.0096000 0.0045488 -0.0019940
v -0.0093172 0.0046482 -0.0019277
v -0.0094469 0.0050972 -0.0014542
v -0.0092304 0.0049746 -0.0016378
v -0.0096000 0.0051144 -0.0014284
v -0.0093172 0.0050481 -0.0015278
v -0.0112000 0.0044784 -0.0019236
v -0.0112000 0.0045488 -0.0019940
v -0.0112000 0.0050440 -0.0013580
v -0.0112000 0.0051144 -0.0014284
v -0.0112000 0.0045492 -0.0019944
v -0.0112000 0.0048880 -0.0017676
v -0.0112000 0.0051148 -0.0014288
v -0.0064000 0.0051148 -0.0014288
v -0.0065531 0.0050976 -0.0014546
v -0.0065531 0.0050268 -0.0013838
v -0.0064000 0.0050440 -0.0013580
v -0.0066828 0.0050485 -0.0015282
v -0.0066828 0.0049777 -0.0014574
v -0.0067696 0.0049750 -0.0016382
v -0.0067696 0.0049042 -0.0015674
v -0.0068000 0.0048884 -0.0017680
v -0.0068000 0.0048176 -0.0016972
v -0.0065531 0.0045042 -0.0019064
v -0.0065531 0.0045750 -0.0019772
v -0.0064000 0.0045492 -0.0019944
v -0.0064000 0.0044784 -0.0019236
v -0.0066828 0.0045778 -0.0018573
v -0.0066828 0.0046486 -0.0019281
v -0.0067696 0.0046878 -0.0017838
v -0.0067696 0.0047586 -0.0018546
v -0.0068000 0.0048880 -0.0017676
v -0.0067696 0.0049746 -0.0016378
v -0.0065531 0.0050972 -0.0014542
v -0.0064000 0.0051144 -0.0014284
v -0.0066828 0.0050481 -0.0015278
v -0.0065531 0.0045746 -0.0019768
v -0.0067696 0.0047582 -0.0018542
v -0.0064000 0.0045488 -0.0019940
v -0.0066828 0.0046482 -0.0019277
v -0.0048000 0.0050440 -0.0013580
v -0.0048000 0.0051144 -0.0014284
v -0.0048000 0.0044784 -0.0019236
v -0.0048000 0.0045488 -0.0019940
v -0.0048000 0.0051148 -0.0014288
v -0.0048000 0.0048880 -0.0017676
v -0.0048000 0.0045492 -0.0019944
v -0.0064000 0.0045492 0.0019944
v -0.0065531 0.0045750 0.0019772
v -0.0065531 0.0045042 0.0019064
v -0.0064000 0.0044784 0.0019236
v -0.0066828 0.0046486 0.0019281
v -0.0066828 0.0045778 0.0018573
v -0.0067696 0.0047586 0.0018546
v -0.0067696 0.0046878 0.0017838
v -0.0068000 0.0048884 0.0017680
v -0.0068000 0.0048176 0.0016972
v -0.0065531 0.0050268 0.0013838
v -0.0065531 0.0050976 0.0014546
v -0.0064000 0.0051148 0.0014288
v -0.0064000 0.0050440 0.0013580
v -0.0066828 0.0049777 0.0014574
v -0.0066828 0.0050485 0.0015282
v -0.0067696 0.0049042 0.0015674
v -0.0067696 0.0049750 0.0016382
v -0.0068000 0.0048880 0.0017676
v -0.0067696 0.0047582 0.0018542
v -0.0065531 0.0045746 0.0019768
v -0.0064000 0.0045488 0.0019940
v -0.0066828 0.0046482 0.0019277
v -0.0065531 0.0050972 0.0014542
v -0.0067696 0.0049746 0.0016378
v -0.0064000 0.0051144 0.0014284
v -0.0066828 0.0050481 0.0015278
v -0.0048000 0.0044784 0.0019236
v -0.0048000 0.0045488 0.0019940
v -0.0048000 0.0050440 0.0013580
v -0.0048000 0.0051144 0.0014284
v -0.0048000 0.0045492 0.0019944
v -0.0048000 0.0048880 0.0017676
v -0.0048000 0.0051148 0.0014288
v -0.0064000 0.0011260 0.0014288
v -0.0065531 0.0011432 0.0014546
v -0.0065531 0.0012140 0.0013838
v -0.0064000 0.0011968 0.0013580
v -0.0066828 0.0011923 0.0015282
v -0.0066828 0.0012631 0.0014574
v -0.0067696 0.0012658 0.0016382
v -0.0067696 0.0013366 0.0015674
v -0.0068000 0.0013524 0.0017680
v -0.0068000 0.0014232 0.0016972
v -0.0065531 0.0017366 0.0019064
v -0.0065531 0.0016658 0.0019772
v -0.0064000 0.0016916 0.0019944
v -0.0064000 0.0017624 0.0019236
v -0.0066828 0.0016630 0.0018573
v -0.0066828 0.0015922 0.0019281
v -0.0067696 0.0015530 0.0017838
v -0.0067696 0.0014822 0.0018546
v -0.0068000 0.0013528 0.0017676
v -0.0067696 0.0012662 0.0016378
v -0.0065531 0.0011436 0.0014542
v -0.0064000 0.0011264 0.0014284
v -0.0066828 0.0011927 0.0015278
v -0.0065531 0.0016662 0.0019768
v -0.0067696 0.0014826 0.0018542
v -0.0064000 0.0016920 0.0019940
v -0.0066828 0.0015926 0.0019277
v -0.0048000 0.0011968 0.0013580
v -0.0048000 0.0011264 0.0014284
v -0.0048000 0.0017624 0.0019236
v -0.0048000 0.0016920 0.0019940
v -0.0048000 0.0011260 0.0014288
v -0.0048000 0.0013528 0.0017676
v -0.0048000 0.0016916 0.0019944
v -0.0064000 0.0016916 -0.0019944
v -0.0065531 0.0016658 -0.0019772
v -0.0065531 0.0017366 -0.0019064
v -0.0064000 0.0017624 -0.0019236
v -0.0066828 0.0015922 -0.0019281
v -0.0066828 0.0016630 -0.0018573
v -0.0067696 0.0014822 -0.0018546
v -0.0067696 0.0015530 -0.0017838
v -0.0068000 0.0013524 -0.0017680
v -0.0068000 0.0014232 -0.0016972
v -0.0065531 0.0012140 -0.0013838
v -0.0065531 0.0011432 -0.0014546
v -0.0064000 0.0011260 -0.0014288
v -0.0064000 0.0011968 -0.0013580
v -0.0066828 0.0012631 -0.0014574
v -0.0066828 0.0011923 -0.0015282
v -0.0067696 0.0013366 -0.0015674
v -0.0067696 0.0012658 -0.0016382
v -0.0068000 0.0013528 -0.0017676
v -0.0067696 0.0014826 -0.0018542
v -0.0065531 0.0016662 -0.0019768
v -0.0064000 0.0016920 -0.0019940
v -0.0066828 0.0015926 -0.0019277
v -0.0065531 0.0011436 -0.0014542
v -0.0067696 0.0012662 -0.0016378
v -0.0064000 0.0011264 -0.0014284
v -0.0066828 0.0011927 -0.0015278
v -0.0048000 0.0017624 -0.0019236
v -0.0048000 0.0016920 -0.0019940
v -0.0048000 0.0011968 -0.0013580
v -0.0048000 0.0011264 -0.0014284
v -0.0048000 0.0016916 -0.0019944
v -0.0048000 0.0013528 -0.0017676
v -0.0048000 0.0011260 -0.0014288
v 0.0078000 0.0054408 0.0004000
v 0.0078000 0.0055204 -0.0000000
v 0.0077696 0.0054899 0.0001531
v 0.0076828 0.0054641 0.0002828
v 0.0075531 0.0054469 0.0003696
v 0.0074000 0.0054408 0.0004000
v 0.0040000 0.0054408 0.0004000
v 0.0040000 0.0053376 0.0009184
v 0.0078000 0.0053376 0.0009184
v 0.0040000 0.0048174 0.0016970
v 0.0078000 0.0048174 0.0016970
v 0.0040000 0.0040388 0.0022172
v 0.0078000 0.0040388 0.0022172
v 0.0040000 0.0031204 0.0023999
v 0.0078000 0.0031204 0.0023999
v 0.0040000 0.0022020 0.0022172
v 0.0078000 0.0022020 0.0022172
v 0.0040000 0.0014234 0.0016970
v 0.0078000 0.0014234 0.0016970
v 0.0040000 0.0009032 0.0009184
v 0.0078000 0.0009032 0.0009184
v 0.0078000 0.0008000 0.0004000
v 0.0040000 0.0008000 0.0004000
v 0.0077696 0.0007509 0.0001531
v 0.0078000 0.0007204 -0.0000000
v 0.0076828 0.0007767 0.0002828
v 0.0075531 0.0007939 0.0003696
v 0.0074000 0.0008000 0.0004000
v 0.0078000 0.0008000 -0.0004000
v 0.0077696 0.0007509 -0.0001531
v 0.0076828 0.0007767 -0.0002828
v 0.0075531 0.0007939 -0.0003696
v 0.0074000 0.0008000 -0.0004000
v 0.0040000 0.0008000 -0.0004000
v 0.0040000 0.0009032 -0.0009184
v 0.0078000 0.0009032 -0.0009184
v 0.0040000 0.0014234 -0.0016970
v 0.0078000 0.0014234 -0.0016970
v 0.0040000 0.0022020 -0.0022172
v 0.0078000 0.0022020 -0.0022172
v 0.0040000 0.0031204 -0.0023999
v 0.0078000 0.0031204 -0.0023999
v 0.0040000 0.0040388 -0.0022172
v 0.0078000 0.0040388 -0.0022172
v 0.0040000 0.0048174 -0.0016970
v 0.0078000 0.0048174 -0.0016970
v 0.0040000 0.0053376 -0.0009184
v 0.0078000 0.0053376 -0.0009184
v 0.0078000 0.0054408 -0.0004000
v 0.0040000 0.0054408 -0.0004000
v 0.0077696 0.0054899 -0.0001531
v 0.0076828 0.0054641 -0.0002828
v 0.0075531 0.0054469 -0.0003696
v 0.0074000 0.0054408 -0.0004000
v 0.0086000 0.0031204 -0.0024000
v 0.0086000 0.0022019 -0.0022174
v 0.0078000 0.0022019 -0.0022174
v 0.0078000 0.0031204 -0.0024000
v 0.0086000 0.0014234 -0.0016970
v 0.0086000 0.0009030 -0.0009185
v 0.0078000 0.0009030 -0.0009185
v 0.0086000 0.0007204 -0.0000000
v 0.0086000 0.0009030 0.0009185
v 0.0078000 0.0009030 0.0009185
v 0.0086000 0.0014234 0.0016970
v 0.0086000 0.0022019 0.0022174
v 0.0078000 0.0022019 0.0022174
v 0.0086000 0.0031204 0.0024000
v 0.0078000 0.0031204 0.0024000
v 0.0086000 0.0040389 0.0022174
v 0.0078000 0.0040389 0.0022174
v 0.0086000 0.0048174 0.0016970
v 0.0086000 0.0053378 0.0009185
v 0.0078000 0.0053378 0.0009185
v 0.0086000 0.0055204 -0.0000000
v 0.0086000 0.0053378 -0.0009185
v 0.0078000 0.0053378 -0.0009185
v 0.0086000 0.0048174 -0.0016970
v 0.0086000 0.0040389 -0.0022174
v 0.0078000 0.0040389 -0.0022174
v 0.0086000 0.0027204 -0.0023204
v 0.0086304 0.0029673 -0.0023695
v 0.0087172 0.0028376 -0.0023437
v 0.0088469 0.0027508 -0.0023265
v 0.0090000 0.0027204 -0.0023204
v 0.0086000 0.0022020 -0.0022172
v 0.0112000 0.0027204 -0.0023204
v 0.0112000 0.0022020 -0.0022172
v 0.0112000 0.0014234 -0.0016970
v 0.0112000 0.0009032 -0.0009184
v 0.0086000 0.0009032 -0.0009184
v 0.0112000 0.0007205 -0.0000000
v 0.0086000 0.0007205 -0.0000000
v 0.0112000 0.0009032 0.0009184
v 0.0086000 0.0009032 0.0009184
v 0.0112000 0.0014234 0.0016970
v 0.0112000 0.0022020 0.0022172
v 0.0086000 0.0022020 0.0022172
v 0.0112000 0.0027204 0.0023204
v 0.0086000 0.0027204 0.0023204
v 0.0086304 0.0029673 0.0023695
v 0.0087172 0.0028376 0.0023437
v 0.0088469 0.0027508 0.0023265
v 0.0090000 0.0027204 0.0023204
v 0.0086000 0.0035204 0.0023204
v 0.0086304 0.0032735 0.0023695
v 0.0087172 0.0034032 0.0023437
v 0.0088469 0.0034900 0.0023265
v 0.0090000 0.0035204 0.0023204
v 0.0086000 0.0040388 0.0022172
v 0.0112000 0.0035204 0.0023204
v 0.0112000 0.0040388 0.0022172
v 0.0112000 0.0048174 0.0016970
v 0.0112000 0.0053376 0.0009184
v 0.0086000 0.0053376 0.0009184
v 0.0112000 0.0055203 0.0000000
v 0.0086000 0.0055203 0.0000000
v 0.0112000 0.0053376 -0.0009184
v 0.0086000 0.0053376 -0.0009184
v 0.0112000 0.0048174 -0.0016970
v 0.0112000 0.0040388 -0.0022172
v 0.0086000 0.0040388 -0.0022172
v 0.0112000 0.0035204 -0.0023204
v 0.0086000 0.0035204 -0.0023204
v 0.0086304 0.0032735 -0.0023695
v 0.0087172 0.0034032 -0.0023437
v 0.0088469 0.0034900 -0.0023265
v 0.0090000 0.0035204 -0.0023204
v 0.0112000 0.0041156 -0.0024020
v 0.0112000 0.0035204 -0.0025204
v 0.0112000 0.0048176 -0.0016972
v 0.0112000 0.0049588 -0.0018384
v 0.0112000 0.0055224 -0.0009952
v 0.0112000 0.0055204 -0.0000000
v 0.0112000 0.0057204 -0.0000000
v 0.0112000 0.0055224 0.0009952
v 0.0112000 0.0048176 0.0016972
v 0.0112000 0.0049588 0.0018384
v 0.0112000 0.0041156 0.0024020
v 0.0112000 0.0035204 0.0025204
v 0.0112000 0.0021252 0.0024020
v 0.0112000 0.0027204 0.0025204
v 0.0112000 0.0014232 0.0016972
v 0.0112000 0.0012820 0.0018384
v 0.0112000 0.0007184 0.0009952
v 0.0112000 0.0007204 -0.0000000
v 0.0112000 0.0005204 -0.0000000
v 0.0112000 0.0007184 -0.0009952
v 0.0112000 0.0014232 -0.0016972
v 0.0112000 0.0012820 -0.0018384
v 0.0112000 0.0021252 -0.0024020
v 0.0112000 0.0027204 -0.0025204
v 0.0120000 0.0027204 -0.0025204
v 0.0120000 0.0021252 -0.0024020
v 0.0120000 0.0012817 -0.0018383
v 0.0112000 0.0012817 -0.0018383
v 0.0120000 0.0007182 -0.0009947
v 0.0112000 0.0007182 -0.0009947
v 0.0120000 0.0005203 0.0000002
v 0.0112000 0.0005203 0.0000002
v 0.0120000 0.0007184 0.0009952
v 0.0120000 0.0012821 0.0018387
v 0.0112000 0.0012821 0.0018387
v 0.0120000 0.0021257 0.0024022
v 0.0112000 0.0021257 0.0024022
v 0.0120000 0.0021252 0.0024020
v 0.0120000 0.0027204 0.0025204
v 0.0120000 0.0035204 0.0025204
v 0.0120000 0.0041156 0.0024020
v 0.0120000 0.0049591 0.0018383
v 0.0112000 0.0049591 0.0018383
v 0.0120000 0.0055226 0.0009947
v 0.0112000 0.0055226 0.0009947
v 0.0120000 0.0057205 -0.0000002
v 0.0112000 0.0057205 -0.0000002
v 0.0120000 0.0055224 -0.0009952
v 0.0120000 0.0049587 -0.0018387
v 0.0112000 0.0049587 -0.0018387
v 0.0120000 0.0041151 -0.0024022
v 0.0112000 0.0041151 -0.0024022
v 0.0120000 0.0041156 -0.0024020
v 0.0120000 0.0035204 -0.0025204
v 0.0086304 0.0029673 -0.0015695
v 0.0086000 0.0031204 -0.0016000
v 0.0087172 0.0028376 -0.0015437
v 0.0088469 0.0027508 -0.0015265
v 0.0090000 0.0027204 -0.0015204
v 0.0112000 0.0027204 -0.0015204
v 0.0120000 0.0027204 -0.0015204
v 0.0120000 0.0025080 -0.0014784
v 0.0120000 0.0019892 -0.0011312
v 0.0120000 0.0012820 -0.0018384
v 0.0120000 0.0016420 -0.0006124
v 0.0120000 0.0007184 -0.0009952
v 0.0120000 0.0015204 -0.0000000
v 0.0120000 0.0005204 -0.0000000
v 0.0120000 0.0016420 0.0006124
v 0.0120000 0.0019892 0.0011312
v 0.0120000 0.0012820 0.0018384
v 0.0120000 0.0025080 0.0014784
v 0.0120000 0.0027204 0.0015204
v 0.0112000 0.0027204 0.0015204
v 0.0090000 0.0027204 0.0015204
v 0.0086304 0.0029673 0.0015695
v 0.0086000 0.0031204 0.0016000
v 0.0087172 0.0028376 0.0015437
v 0.0088469 0.0027508 0.0015265
v 0.0086304 0.0032735 0.0015695
v 0.0087172 0.0034032 0.0015437
v 0.0088469 0.0034900 0.0015265
v 0.0090000 0.0035204 0.0015204
v 0.0112000 0.0035204 0.0015204
v 0.0120000 0.0035204 0.0015204
v 0.0120000 0.0037328 0.0014784
v 0.0120000 0.0042516 0.0011312
v 0.0120000 0.0049588 0.0018384
v 0.0120000 0.0045988 0.0006124
v 0.0120000 0.0055224 0.0009952
v 0.0120000 0.0047204 -0.0000000
v 0.0120000 0.0057204 -0.0000000
v 0.0120000 0.0045988 -0.0006124
v 0.0120000 0.0042516 -0.0011312
v 0.0120000 0.0049588 -0.0018384
v 0.0120000 0.0037328 -0.0014784
v 0.0120000 0.0035204 -0.0015204
v 0.0112000 0.0035204 -0.0015204
v 0.0090000 0.0035204 -0.0015204
v 0.0086304 0.0032735 -0.0015695
v 0.0087172 0.0034032 -0.0015437
v 0.0088469 0.0034900 -0.0015265
v 0.0086000 0.0027204 -0.0015204
v 0.0086000 0.0025084 -0.0014780
v 0.0120000 0.0025084 -0.0014780
v 0.0086000 0.0019890 -0.0011312
v 0.0120000 0.0019890 -0.0011312
v 0.0120000 0.0025080 -0.0014780
v 0.0086000 0.0025080 -0.0014780
v 0.0086000 0.0016423 -0.0006121
v 0.0120000 0.0016423 -0.0006121
v 0.0086000 0.0015205 0.0000002
v 0.0120000 0.0015205 0.0000002
v 0.0086000 0.0016424 0.0006124
v 0.0120000 0.0016424 0.0006124
v 0.0086000 0.0019892 0.0011314
v 0.0120000 0.0019892 0.0011314
v 0.0086000 0.0025083 0.0014781
v 0.0120000 0.0025083 0.0014781
v 0.0086000 0.0025084 0.0014780
v 0.0086000 0.0027204 0.0015204
v 0.0120000 0.0025084 0.0014780
v 0.0086000 0.0035204 0.0015204
v 0.0086000 0.0037324 0.0014780
v 0.0120000 0.0037324 0.0014780
v 0.0086000 0.0042518 0.0011312
v 0.0120000 0.0042518 0.0011312
v 0.0120000 0.0037328 0.0014780
v 0.0086000 0.0037328 0.0014780
v 0.0086000 0.0045985 0.0006121
v 0.0120000 0.0045985 0.0006121
v 0.0086000 0.0047203 -0.0000002
v 0.0120000 0.0047203 -0.0000002
v 0.0086000 0.0045984 -0.0006124
v 0.0120000 0.0045984 -0.0006124
v 0.0086000 0.0042516 -0.0011314
v 0.0120000 0.0042516 -0.0011314
v 0.0086000 0.0037325 -0.0014781
v 0.0120000 0.0037325 -0.0014781
v 0.0086000 0.0037324 -0.0014780
v 0.0086000 0.0035204 -0.0015204
v 0.0120000 0.0037324 -0.0014780
v 0.0078000 0.0025081 -0.0014782
v 0.0086000 0.0025081 -0.0014782
v 0.0078000 0.0031204 -0.0016000
v 0.0078000 0.0019890 -0.0011314
v 0.0086000 0.0019890 -0.0011314
v 0.0078000 0.0016422 -0.0006123
v 0.0086000 0.0016422 -0.0006123
v 0.0078000 0.0015204 -0.0000000
v 0.0086000 0.0015204 -0.0000000
v 0.0078000 0.0016422 0.0006123
v 0.0086000 0.0016422 0.0006123
v 0.0078000 0.0019890 0.0011314
v 0.0086000 0.0019890 0.0011314
v 0.0078000 0.0025081 0.0014782
v 0.0086000 0.0025081 0.0014782
v 0.0078000 0.0031204 0.0016000
v 0.0078000 0.0037327 0.0014782
v 0.0086000 0.0037327 0.0014782
v 0.0078000 0.0042518 0.0011314
v 0.0086000 0.0042518 0.0011314
v 0.0078000 0.0045986 0.0006123
v 0.0086000 0.0045986 0.0006123
v 0.0078000 0.0047204 -0.0000000
v 0.0086000 0.0047204 -0.0000000
v 0.0078000 0.0045986 -0.0006123
v 0.0086000 0.0045986 -0.0006123
v 0.0078000 0.0042518 -0.0011314
v 0.0086000 0.0042518 -0.0011314
v 0.0078000 0.0037327 -0.0014782
v 0.0086000 0.0037327 -0.0014782
v 0.0077696 0.0046899 0.0001531
v 0.0078000 0.0046408 0.0004000
v 0.0076828 0.0046641 0.0002828
v 0.0075531 0.0046469 0.0003696
v 0.0074000 0.0046408 0.0004000
v 0.0040000 0.0046408 0.0004000
v 0.0078000 0.0045984 0.0006124
v 0.0040000 0.0045984 0.0006124
v 0.0078000 0.0042516 0.0011314
v 0.0040000 0.0042516 0.0011314
v 0.0078000 0.0037325 0.0014781
v 0.0040000 0.0037325 0.0014781
v 0.0078000 0.0031202 0.0015999
v 0.0040000 0.0031202 0.0015999
v 0.0078000 0.0025080 0.0014780
v 0.0040000 0.0025080 0.0014780
v 0.0078000 0.0019890 0.0011312
v 0.0040000 0.0019890 0.0011312
v 0.0078000 0.0016423 0.0006121
v 0.0040000 0.0016423 0.0006121
v 0.0078000 0.0016000 0.0004000
v 0.0040000 0.0016000 0.0004000
v 0.0040000 0.0016424 0.0006124
v 0.0078000 0.0016424 0.0006124
v 0.0077696 0.0015509 0.0001531
v 0.0076828 0.0015767 0.0002828
v 0.0075531 0.0015939 0.0003696
v 0.0074000 0.0016000 0.0004000
v 0.0077696 0.0015509 -0.0001531
v 0.0078000 0.0016000 -0.0004000
v 0.0076828 0.0015767 -0.0002828
v 0.0075531 0.0015939 -0.0003696
v 0.0074000 0.0016000 -0.0004000
v 0.0040000 0.0016000 -0.0004000
v 0.0078000 0.0016424 -0.0006124
v 0.0040000 0.0016424 -0.0006124
v 0.0078000 0.0019892 -0.0011314
v 0.0040000 0.0019892 -0.0011314
v 0.0078000 0.0025083 -0.0014781
v 0.0040000 0.0025083 -0.0014781
v 0.0078000 0.0031206 -0.0015999
v 0.0040000 0.0031206 -0.0015999
v 0.0078000 0.0037328 -0.0014780
v 0.0040000 0.0037328 -0.0014780
v 0.0078000 0.0042518 -0.0011312
v 0.0040000 0.0042518 -0.0011312
v 0.0078000 0.0045985 -0.0006121
v 0.0040000 0.0045985 -0.0006121
v 0.0078000 0.0046408 -0.0004000
v 0.0040000 0.0046408 -0.0004000
v 0.0040000 0.0045984 -0.0006124
v 0.0078000 0.0045984 -0.0006124
v 0.0077696 0.0046899 -0.0001531
v 0.0076828 0.0046641 -0.0002828
v 0.0075531 0.0046469 -0.0003696
v 0.0074000 0.0046408 -0.0004000
v 0.0094469 0.0012140 -0.0013838
v 0.0094469 0.0011432 -0.0014546
v 0.0096000 0.0011260 -0.0014288
v 0.0096000 0.0011968 -0.0013580
v 0.0093172 0.0012631 -0.0014574
v 0.0093172 0.0011923 -0.0015282
v 0.0092304 0.0013366 -0.0015674
v 0.0092304 0.0012658 -0.0016382
v 0.0092000 0.0014232 -0.0016972
v 0.0092000 0.0013524 -0.0017680
v 0.0096000 0.0016916 -0.0019944
v 0.0094469 0.0016658 -0.0019772
v 0.0094469 0.0017366 -0.0019064
v 0.0096000 0.0017624 -0.0019236
v 0.0093172 0.0015922 -0.0019281
v 0.0093172 0.0016630 -0.0018573
v 0.0092304 0.0014822 -0.0018546
v 0.0092304 0.0015530 -0.0017838
v 0.0094469 0.0011436 -0.0014542
v 0.0092304 0.0012662 -0.0016378
v 0.0092000 0.0013528 -0.0017676
v 0.0096000 0.0011264 -0.0014284
v 0.0093172 0.0011927 -0.0015278
v 0.0092304 0.0014826 -0.0018542
v 0.0094469 0.0016662 -0.0019768
v 0.0096000 0.0016920 -0.0019940
v 0.0093172 0.0015926 -0.0019277
v 0.0112000 0.0011968 -0.0013580
v 0.0112000 0.0011264 -0.0014284
v 0.0112000 0.0017624 -0.0019236
v 0.0112000 0.0016920 -0.0019940
v 0.0112000 0.0011260 -0.0014288
v 0.0112000 0.0013528 -0.0017676
v 0.0112000 0.0016916 -0.0019944
v 0.0094469 0.0017366 0.0019064
v 0.0094469 0.0016658 0.0019772
v 0.0096000 0.0016916 0.0019944
v 0.0096000 0.0017624 0.0019236
v 0.0093172 0.0016630 0.0018573
v 0.0093172 0.0015922 0.0019281
v 0.0092304 0.0015530 0.0017838
v 0.0092304 0.0014822 0.0018546
v 0.0092000 0.0014232 0.0016972
v 0.0092000 0.0013524 0.0017680
v 0.0096000 0.0011260 0.0014288
v 0.0094469 0.0011432 0.0014546
v 0.0094469 0.0012140 0.0013838
v 0.0096000 0.0011968 0.0013580
v 0.0093172 0.0011923 0.0015282
v 0.0093172 0.0012631 0.0014574
v 0.0092304 0.0012658 0.0016382
v 0.0092304 0.0013366 0.0015674
v 0.0094469 0.0016662 0.0019768
v 0.0092304 0.0014826 0.0018542
v 0.0092000 0.0013528 0.0017676
v 0.0096000 0.0016920 0.0019940
v 0.0093172 0.0015926 0.0019277
v 0.0092304 0.0012662 0.0016378
v 0.0094469 0.0011436 0.0014542
v 0.0096000 0.0011264 0.0014284
v 0.0093172 0.0011927 0.0015278
v 0.0112000 0.0017624 0.0019236
v 0.0112000 0.0016920 0.0019940
v 0.0112000 0.0011968 0.0013580
v 0.0112000 0.0011264 0.0014284
v 0.0112000 0.0016916 0.0019944
v 0.0112000 0.0013528 0.0017676
v 0.0112000 0.0011260 0.0014288
v 0.0094469 0.0050268 0.0013838
v 0.0094469 0.0050976 0.0014546
v 0.0096000 0.0051148 0.0014288
v 0.0096000 0.0050440 0.0013580
v 0.0093172 0.0049777 0.0014574
v 0.0093172 0.0050485 0.0015282
v 0.0092304 0.0049042 0.0015674
v 0.0092304 0.0049750 0.0016382
v 0.0092000 0.0048176 0.0016972
v 0.0092000 0.0048884 0.0017680
v 0.0096000 0.0045492 0.0019944
v 0.0094469 0.0045750 0.0019772
v 0.0094469 0.0045042 0.0019064
v 0.0096000 0.0044784 0.0019236
v 0.0093172 0.0046486 0.0019281
v 0.0093172 0.0045778 0.0018573
v 0.0092304 0.0047586 0.0018546
v 0.0092304 0.0046878 0.0017838
v 0.0094469 0.0050972 0.0014542
v 0.0092304 0.0049746 0.0016378
v 0.0092000 0.0048880 0.0017676
v 0.0096000 0.0051144 0.0014284
v 0.0093172 0.0050481 0.0015278
v 0.0092304 0.0047582 0.0018542
v 0.0094469 0.0045746 0.0019768
v 0.0096000 0.0045488 0.0019940
v 0.0093172 0.0046482 0.0019277
v 0.0112000 0.0050440 0.0013580
v 0.0112000 0.0051144 0.0014284
v 0.0112000 0.0044784 0.0019236
v 0.0112000 0.0045488 0.0019940
v 0.0112000 0.0051148 0.0014288
v 0.0112000 0.0048880 0.0017676
v 0.0112000 0.0045492 0.0019944
v 0.0094469 0.0045042 -0.0019064
v 0.0094469 0.0045750 -0.0019772
v 0.0096000 0.0045492 -0.0019944
v 0.0096000 0.0044784 -0.0019236
v 0.0093172 0.0045778 -0.0018573
v 0.0093172 0.0046486 -0.0019281
v 0.0092304 0.0046878 -0.0017838
v 0.0092304 0.0047586 -0.0018546
v 0.0092000 0.0048176 -0.0016972
v 0.0092000 0.0048884 -0.0017680
v 0.0096000 0.0051148 -0.0014288
v 0.0094469 0.0050976 -0.0014546
v 0.0094469 0.0050268 -0.0013838
v 0.0096000 0.0050440 -0.0013580
v 0.0093172 0.0050485 -0.0015282
v 0.0093172 0.0049777 -0.0014574
v 0.0092304 0.0049750 -0.0016382
v 0.0092304 0.0049042 -0.0015674
v 0.0094469 0.0045746 -0.0019768
v 0.0092304 0.0047582 -0.0018542
v 0.0092000 0.0048880 -0.0017676
v 0.0096000 0.0045488 -0.0019940
v 0.0093172 0.0046482 -0.0019277
v 0.0092304 0.0049746 -0.0016378
v 0.0094469 0.0050972 -0.0014542
v 0.0096000 0.0051144 -0.0014284
v 0.0093172 0.0050481 -0.0015278
v 0.0112000 0.0044784 -0.0019236
v 0.0112000 0.0045488 -0.0019940
v 0.0112000 0.0050440 -0.0013580
v 0.0112000 0.0051144 -0.0014284
v 0.0112000 0.0045492 -0.0019944
v 0.0112000 0.0048880 -0.0017676
v 0.0112000 0.0051148 -0.0014288
v 0.0065531 0.0050268 -0.0013838
v 0.0065531 0.0050976 -0.0014546
v 0.0064000 0.0051148 -0.0014288
v 0.0064000 0.0050440 -0.0013580
v 0.0066828 0.0049777 -0.0014574
v 0.0066828 0.0050485 -0.0015282
v 0.0067696 0.0049042 -0.0015674
v 0.0067696 0.0049750 -0.0016382
v 0.0068000 0.0048176 -0.0016972
v 0.0068000 0.0048884 -0.0017680
v 0.0064000 0.0045492 -0.0019944
v 0.0065531 0.0045750 -0.0019772
v 0.0065531 0.0045042 -0.0019064
v 0.0064000 0.0044784 -0.0019236
v 0.0066828 0.0046486 -0.0019281
v 0.0066828 0.0045778 -0.0018573
v 0.0067696 0.0047586 -0.0018546
v 0.0067696 0.0046878 -0.0017838
v 0.0065531 0.0050972 -0.0014542
v 0.0067696 0.0049746 -0.0016378
v 0.0068000 0.0048880 -0.0017676
v 0.0064000 0.0051144 -0.0014284
v 0.0066828 0.0050481 -0.0015278
v 0.0067696 0.0047582 -0.0018542
v 0.0065531 0.0045746 -0.0019768
v 0.0064000 0.0045488 -0.0019940
v 0.0066828 0.0046482 -0.0019277
v 0.0040000 0.0051144 -0.0014284
v 0.0040000 0.0050440 -0.0013580
v 0.0040000 0.0045488 -0.0019940
v 0.0040000 0.0044784 -0.0019236
v 0.0040000 0.0051148 -0.0014288
v 0.0040000 0.0048880 -0.0017676
v 0.0040000 0.0045492 -0.0019944
v 0.0065531 0.0045042 0.0019064
v 0.0065531 0.0045750 0.0019772
v 0.0064000 0.0045492 0.0019944
v 0.0064000 0.0044784 0.0019236
v 0.0066828 0.0045778 0.0018573
v 0.0066828 0.0046486 0.0019281
v 0.0067696 0.0046878 0.0017838
v 0.0067696 0.0047586 0.0018546
v 0.0068000 0.0048176 0.0016972
v 0.0068000 0.0048884 0.0017680
v 0.0064000 0.0051148 0.0014288
v 0.0065531 0.0050976 0.0014546
v 0.0065531 0.0050268 0.0013838
v 0.0064000 0.0050440 0.0013580
v 0.0066828 0.0050485 0.0015282
v 0.0066828 0.0049777 0.0014574
v 0.0067696 0.0049750 0.0016382
v 0.0067696 0.0049042 0.0015674
v 0.0065531 0.0045746 0.0019768
v 0.0067696 0.0047582 0.0018542
v 0.0068000 0.0048880 0.0017676
v 0.0064000 0.0045488 0.0019940
v 0.0066828 0.0046482 0.0019277
v 0.0067696 0.0049746 0.0016378
v 0.0065531 0.0050972 0.0014542
v 0.0064000 0.0051144 0.0014284
v 0.0066828 0.0050481 0.0015278
v 0.0040000 0.0045488 0.0019940
v 0.0040000 0.0044784 0.0019236
v 0.0040000 0.0051144 0.0014284
v 0.0040000 0.0050440 0.0013580
v 0.0040000 0.0045492 0.0019944
v 0.0040000 0.0048880 0.0017676
v 0.0040000 0.0051148 0.0014288
v 0.0065531 0.0012140 0.0013838
v 0.0065531 0.0011432 0.0014546
v 0.0064000 0.0011260 0.0014288
v 0.0064000 0.0011968 0.0013580
v 0.0066828 0.0012631 0.0014574
v 0.0066828 0.0011923 0.0015282
v 0.0067696 0.0013366 0.0015674
v 0.0067696 0.0012658 0.0016382
v 0.0068000 0.0014232 0.0016972
v 0.0068000 0.0013524 0.0017680
v 0.0064000 0.0016916 0.0019944
v 0.0065531 0.0016658 0.0019772
v 0.0065531 0.0017366 0.0019064
v 0.0064000 0.0017624 0.0019236
v 0.0066828 0.0015922 0.0019281
v 0.0066828 0.0016630 0.0018573
v 0.0067696 0.0014822 0.0018546
v 0.0067696 0.0015530 0.0017838
v 0.0065531 0.0011436 0.0014542
v 0.0067696 0.0012662 0.0016378
v 0.0068000 0.0013528 0.0017676
v 0.0064000 0.0011264 0.0014284
v 0.0066828 0.0011927 0.0015278
v 0.0067696 0.0014826 0.0018542
v 0.0065531 0.0016662 0.0019768
v 0.0064000 0.0016920 0.0019940
v 0.0066828 0.0015926 0.0019277
v 0.0040000 0.0011968 0.0013580
v 0.0040000 0.0011264 0.0014284
v 0.0040000 0.0017624 0.0019236
v 0.0040000 0.0016920 0.0019940
v 0.0040000 0.0011260 0.0014288
v 0.0040000 0.0013528 0.0017676
v 0.0040000 0.0016916 0.0019944
v 0.0065531 0.0017366 -0.0019064
v 0.0065531 0.0016658 -0.0019772
v 0.0064000 0.0016916 -0.0019944
v 0.0064000 0.0017624 -0.0019236
v 0.0066828 0.0016630 -0.0018573
v 0.0066828 0.0015922 -0.0019281
v 0.0067696 0.0015530 -0.0017838
v 0.0067696 0.0014822 -0.0018546
v 0.0068000 0.0014232 -0.0016972
v 0.0068000 0.0013524 -0.0017680
v 0.0064000 0.0011260 -0.0014288
v 0.0065531 0.0011432 -0.0014546
v 0.0065531 0.0012140 -0.0013838
v 0.0064000 0.0011968 -0.0013580
v 0.0066828 0.0011923 -0.0015282
v 0.0066828 0.0012631 -0.0014574
v 0.0067696 0.0012658 -0.0016382
v 0.0067696 0.0013366 -0.0015674
v 0.0065531 0.0016662 -0.0019768
v 0.0067696 0.0014826 -0.0018542
v 0.0068000 0.0013528 -0.0017676
v 0.0064000 0.0016920 -0.0019940
v 0.0066828 0.0015926 -0.0019277
v 0.0067696 0.0012662 -0.0016378
v 0.0065531 0.0011436 -0.0014542
v 0.0064000 0.0011264 -0.0014284
v 0.0066828 0.0011927 -0.0015278
v 0.0040000 0.0017624 -0.0019236
v 0.0040000 0.0016920 -0.0019940
v 0.0040000 0.0011968 -0.0013580
v 0.0040000 0.0011264 -0.0014284
v 0.0040000 0.0016916 -0.0019944
v 0.0040000 0.0013528 -0.0017676
v 0.0040000 0.0011260 -0.0014288
v 0.0044400 0.0045352 -0.0019800
v 0.0044400 0.0040696 -0.0022912
v 0.0040000 0.0040772 -0.0023096
v 0.0044400 0.0031204 -0.0024800
v 0.0040000 0.0031204 -0.0025000
v 0.0044400 0.0021712 -0.0022912
v 0.0040000 0.0021636 -0.0023096
v 0.0044400 0.0017056 -0.0019800
v 0.0048000 0.0044784 -0.0019236
v 0.0048000 0.0040388 -0.0022172
v 0.0048000 0.0031204 -0.0024000
v 0.0048000 0.0022020 -0.0022172
v 0.0048000 0.0017624 -0.0019236
v 0.0044400 0.0017056 0.0019800
v 0.0044400 0.0021712 0.0022912
v 0.0040000 0.0021636 0.0023096
v 0.0044400 0.0031204 0.0024800
v 0.0040000 0.0031204 0.0025000
v 0.0044400 0.0040696 0.0022912
v 0.0040000 0.0040772 0.0023096
v 0.0044400 0.0045352 0.0019800
v 0.0048000 0.0017624 0.0019236
v 0.0048000 0.0022020 0.0022172
v 0.0048000 0.0031204 0.0024000
v 0.0048000 0.0040388 0.0022172
v 0.0048000 0.0044784 0.0019236
v 0.0006000 0.0008000 0.0004000
v 0.0006000 0.0007204 -0.0000000
v 0.0006304 0.0007509 0.0001531
v 0.0007172 0.0007767 0.0002828
v 0.0008469 0.0007939 0.0003696
v 0.0010000 0.0008000 0.0004000
v 0.0006000 0.0009032 0.0009184
v 0.0006000 0.0014234 0.0016970
v 0.0006000 0.0022020 0.0022172
v 0.0006000 0.0031204 0.0023999
v 0.0006000 0.0040388 0.0022172
v 0.0006000 0.0048174 0.0016970
v 0.0006000 0.0053376 0.0009184
v 0.0006000 0.0054408 0.0004000
v 0.0006304 0.0054899 0.0001531
v 0.0006000 0.0055204 -0.0000000
v 0.0007172 0.0054641 0.0002828
v 0.0008469 0.0054469 0.0003696
v 0.0010000 0.0054408 0.0004000
v 0.0006000 0.0054408 -0.0004000
v 0.0006304 0.0054899 -0.0001531
v 0.0007172 0.0054641 -0.0002828
v 0.0008469 0.0054469 -0.0003696
v 0.0010000 0.0054408 -0.0004000
v 0.0006000 0.0053376 -0.0009184
v 0.0006000 0.0048174 -0.0016970
v 0.0006000 0.0040388 -0.0022172
v 0.0006000 0.0031204 -0.0023999
v 0.0006000 0.0022020 -0.0022172
v 0.0006000 0.0014234 -0.0016970
v 0.0006000 0.0009032 -0.0009184
v 0.0006000 0.0008000 -0.0004000
v 0.0006304 0.0007509 -0.0001531
v 0.0007172 0.0007767 -0.0002828
v 0.0008469 0.0007939 -0.0003696
v 0.0010000 0.0008000 -0.0004000
v -0.0005996 0.0031204 -0.0024000
v -0.0005996 0.0040389 -0.0022174
v 0.0006004 0.0040389 -0.0022174
v 0.0006004 0.0031204 -0.0024000
v -0.0005996 0.0048174 -0.0016970
v 0.0006004 0.0048174 -0.0016970
v -0.0005996 0.0053378 -0.0009185
v 0.0006004 0.0053378 -0.0009185
v -0.0005996 0.0055204 -0.0000000
v 0.0006004 0.0055204 -0.0000000
v -0.0005996 0.0053378 0.0009185
v 0.0006004 0.0053378 0.0009185
v -0.0005996 0.0048174 0.0016970
v 0.0006004 0.0048174 0.0016970
v -0.0005996 0.0040389 0.0022174
v 0.0006004 0.0040389 0.0022174
v -0.0005996 0.0031204 0.0024000
v 0.0006004 0.0031204 0.0024000
v -0.0005996 0.0022019 0.0022174
v 0.0006004 0.0022019 0.0022174
v -0.0005996 0.0014234 0.0016970
v 0.0006004 0.0014234 0.0016970
v -0.0005996 0.0009030 0.0009185
v 0.0006004 0.0009030 0.0009185
v -0.0005996 0.0007204 -0.0000000
v 0.0006004 0.0007204 -0.0000000
v -0.0005996 0.0009030 -0.0009185
v 0.0006004 0.0009030 -0.0009185
v -0.0005996 0.0014234 -0.0016970
v 0.0006004 0.0014234 -0.0016970
v -0.0005996 0.0022019 -0.0022174
v 0.0006004 0.0022019 -0.0022174
v -0.0006000 0.0008000 -0.0004000
v -0.0006000 0.0007204 -0.0000000
v -0.0006304 0.0007509 -0.0001531
v -0.0007172 0.0007767 -0.0002828
v -0.0008469 0.0007939 -0.0003696
v -0.0010000 0.0008000 -0.0004000
v -0.0006000 0.0009032 -0.0009184
v -0.0032000 0.0008000 -0.0004000
v -0.0032000 0.0009032 -0.0009184
v -0.0032000 0.0014234 -0.0016970
v -0.0006000 0.0014234 -0.0016970
v -0.0032000 0.0022020 -0.0022172
v -0.0006000 0.0022020 -0.0022172
v -0.0032000 0.0031204 -0.0023999
v -0.0006000 0.0031204 -0.0023999
v -0.0032000 0.0040388 -0.0022172
v -0.0006000 0.0040388 -0.0022172
v -0.0032000 0.0048174 -0.0016970
v -0.0006000 0.0048174 -0.0016970
v -0.0032000 0.0053376 -0.0009184
v -0.0006000 0.0053376 -0.0009184
v -0.0032000 0.0054408 -0.0004000
v -0.0006000 0.0054408 -0.0004000
v -0.0006304 0.0054899 -0.0001531
v -0.0006000 0.0055204 -0.0000000
v -0.0007172 0.0054641 -0.0002828
v -0.0008469 0.0054469 -0.0003696
v -0.0010000 0.0054408 -0.0004000
v -0.0006000 0.0054408 0.0004000
v -0.0006304 0.0054899 0.0001531
v -0.0007172 0.0054641 0.0002828
v -0.0008469 0.0054469 0.0003696
v -0.0010000 0.0054408 0.0004000
v -0.0006000 0.0053376 0.0009184
v -0.0032000 0.0054408 0.0004000
v -0.0032000 0.0053376 0.0009184
v -0.0032000 0.0048174 0.0016970
v -0.0006000 0.0048174 0.0016970
v -0.0032000 0.0040388 0.0022172
v -0.0006000 0.0040388 0.0022172
v -0.0032000 0.0031204 0.0023999
v -0.0006000 0.0031204 0.0023999
v -0.0032000 0.0022020 0.0022172
v -0.0006000 0.0022020 0.0022172
v -0.0032000 0.0014234 0.0016970
v -0.0006000 0.0014234 0.0016970
v -0.0032000 0.0009032 0.0009184
v -0.0006000 0.0009032 0.0009184
v -0.0032000 0.0008000 0.0004000
v -0.0006000 0.0008000 0.0004000
v -0.0006304 0.0007509 0.0001531
v -0.0007172 0.0007767 0.0002828
v -0.0008469 0.0007939 0.0003696
v -0.0010000 0.0008000 0.0004000
v -0.0032000 0.0001640 0.0012244
v -0.0032000 0.0000000 0.0004000
v -0.0032000 0.0014230 0.0016968
v -0.0032000 0.0008571 0.0022623
v -0.0032000 0.0001636 0.0012240
v -0.0032000 0.0009028 0.0009180
v -0.0032000 0.0022015 0.0022172
v -0.0032000 0.0018951 0.0029562
v -0.0032000 0.0031209 0.0024002
v -0.0032000 0.0031211 0.0032002
v -0.0032000 0.0018964 0.0029568
v -0.0032000 0.0022024 0.0022176
v -0.0032000 0.0040393 0.0022172
v -0.0032000 0.0043457 0.0029562
v -0.0032000 0.0048179 0.0016968
v -0.0032000 0.0053838 0.0022624
v -0.0032000 0.0053380 0.0009180
v -0.0032000 0.0060772 0.0012240
v -0.0032000 0.0062408 0.0004000
v -0.0032000 0.0060768 0.0012244
v -0.0032000 0.0060768 -0.0012244
v -0.0032000 0.0062408 -0.0004000
v -0.0032000 0.0048178 -0.0016968
v -0.0032000 0.0053837 -0.0022623
v -0.0032000 0.0060772 -0.0012240
v -0.0032000 0.0053380 -0.0009180
v -0.0032000 0.0040393 -0.0022172
v -0.0032000 0.0043457 -0.0029562
v -0.0032000 0.0031199 -0.0024002
v -0.0032000 0.0031197 -0.0032002
v -0.0032000 0.0043444 -0.0029568
v -0.0032000 0.0040384 -0.0022176
v -0.0032000 0.0022015 -0.0022172
v -0.0032000 0.0018951 -0.0029562
v -0.0032000 0.0014229 -0.0016968
v -0.0032000 0.0008570 -0.0022624
v -0.0032000 0.0009028 -0.0009180
v -0.0032000 0.0001636 -0.0012240
v -0.0032000 0.0000000 -0.0004000
v -0.0032000 0.0001640 -0.0012244
v -0.0032000 0.0001640 -0.0012248
v -0.0040000 0.0001640 -0.0012244
v -0.0040000 0.0008576 -0.0022626
v -0.0032000 0.0008576 -0.0022626
v -0.0040000 0.0018957 -0.0029562
v -0.0032000 0.0018957 -0.0029562
v -0.0040000 0.0031202 -0.0032000
v -0.0032000 0.0031202 -0.0032000
v -0.0040000 0.0043448 -0.0029564
v -0.0032000 0.0043448 -0.0029564
v -0.0040000 0.0053830 -0.0022628
v -0.0032000 0.0053830 -0.0022628
v -0.0040000 0.0060766 -0.0012247
v -0.0032000 0.0060766 -0.0012247
v -0.0032000 0.0060768 -0.0012248
v -0.0032000 0.0060768 0.0012248
v -0.0040000 0.0060768 0.0012244
v -0.0040000 0.0053832 0.0022626
v -0.0032000 0.0053832 0.0022626
v -0.0040000 0.0043451 0.0029562
v -0.0032000 0.0043451 0.0029562
v -0.0040000 0.0031206 0.0032000
v -0.0032000 0.0031206 0.0032000
v -0.0040000 0.0018960 0.0029564
v -0.0032000 0.0018960 0.0029564
v -0.0040000 0.0008578 0.0022628
v -0.0032000 0.0008578 0.0022628
v -0.0040000 0.0001642 0.0012247
v -0.0032000 0.0001642 0.0012247
v -0.0032000 0.0001640 0.0012248
v -0.0006304 0.0015509 -0.0001531
v -0.0006000 0.0015204 -0.0000000
v -0.0007172 0.0015767 -0.0002828
v -0.0008469 0.0015939 -0.0003696
v -0.0010000 0.0016000 -0.0004000
v -0.0009996 0.0016000 -0.0004000
v -0.0031996 0.0016000 -0.0004000
v -0.0031996 0.0008000 -0.0004000
v -0.0009996 0.0008000 -0.0004000
v -0.0032000 0.0016000 -0.0004000
v -0.0009996 0.0054408 -0.0004000
v -0.0031996 0.0054408 -0.0004000
v -0.0031996 0.0046408 -0.0004000
v -0.0009996 0.0046408 -0.0004000
v -0.0032000 0.0046408 -0.0004000
v -0.0006304 0.0046899 -0.0001531
v -0.0006000 0.0047204 -0.0000000
v -0.0007172 0.0046641 -0.0002828
v -0.0008469 0.0046469 -0.0003696
v -0.0010000 0.0046408 -0.0004000
v -0.0006304 0.0046899 0.0001531
v -0.0007172 0.0046641 0.0002828
v -0.0008469 0.0046469 0.0003696
v -0.0010000 0.0046408 0.0004000
v -0.0031996 0.0046408 0.0004000
v -0.0031996 0.0054408 0.0004000
v -0.0009996 0.0054408 0.0004000
v -0.0009996 0.0046408 0.0004000
v -0.0032000 0.0046408 0.0004000
v -0.0031996 0.0008000 0.0004000
v -0.0031996 0.0016000 0.0004000
v -0.0009996 0.0016000 0.0004000
v -0.0009996 0.0008000 0.0004000
v -0.0032000 0.0016000 0.0004000
v -0.0006304 0.0015509 0.0001531
v -0.0007172 0.0015767 0.0002828
v -0.0008469 0.0015939 0.0003696
v -0.0010000 0.0016000 0.0004000
v -0.0006000 0.0016000 -0.0004000
v -0.0006000 0.0016424 -0.0006124
v -0.0006000 0.0019892 -0.0011314
v -0.0006000 0.0025083 -0.0014781
v -0.0006000 0.0031206 -0.0015999
v -0.0006000 0.0037328 -0.0014780
v -0.0006000 0.0042518 -0.0011312
v -0.0006000 0.0045985 -0.0006121
v -0.0006000 0.0046408 -0.0004000
v -0.0006000 0.0045984 -0.0006124
v -0.0006000 0.0046408 0.0004000
v -0.0006000 0.0045984 0.0006124
v -0.0006000 0.0042516 0.0011314
v -0.0006000 0.0037325 0.0014781
v -0.0006000 0.0031202 0.0015999
v -0.0006000 0.0025080 0.0014780
v -0.0006000 0.0019890 0.0011312
v -0.0006000 0.0016423 0.0006121
v -0.0006000 0.0016000 0.0004000
v -0.0006000 0.0016424 0.0006124
v 0.0006004 0.0037327 -0.0014782
v -0.0005996 0.0037327 -0.0014782
v -0.0005996 0.0031204 -0.0016000
v 0.0006004 0.0031204 -0.0016000
v 0.0006004 0.0042518 -0.0011314
v -0.0005996 0.0042518 -0.0011314
v 0.0006004 0.0045986 -0.0006123
v -0.0005996 0.0045986 -0.0006123
v 0.0006004 0.0047204 -0.0000000
v -0.0005996 0.0047204 -0.0000000
v 0.0006004 0.0045986 0.0006123
v -0.0005996 0.0045986 0.0006123
v 0.0006004 0.0042518 0.0011314
v -0.0005996 0.0042518 0.0011314
v 0.0006004 0.0037327 0.0014782
v -0.0005996 0.0037327 0.0014782
v 0.0006004 0.0031204 0.0016000
v -0.0005996 0.0031204 0.0016000
v 0.0006004 0.0025081 0.0014782
v -0.0005996 0.0025081 0.0014782
v 0.0006004 0.0019890 0.0011314
v -0.0005996 0.0019890 0.0011314
v 0.0006004 0.0016422 0.0006123
v -0.0005996 0.0016422 0.0006123
v 0.0006004 0.0015204 -0.0000000
v -0.0005996 0.0015204 -0.0000000
v 0.0006004 0.0016422 -0.0006123
v -0.0005996 0.0016422 -0.0006123
v 0.0006004 0.0019890 -0.0011314
v -0.0005996 0.0019890 -0.0011314
v 0.0006004 0.0025081 -0.0014782
v -0.0005996 0.0025081 -0.0014782
v 0.0006304 0.0015509 0.0001531
v 0.0006000 0.0015204 -0.0000000
v 0.0006000 0.0016000 0.0004000
v 0.0007172 0.0015767 0.0002828
v 0.0008469 0.0015939 0.0003696
v 0.0010000 0.0016000 0.0004000
v 0.0006000 0.0016424 0.0006124
v 0.0006000 0.0019892 0.0011314
v 0.0040000 0.0019892 0.0011314
v 0.0006000 0.0025083 0.0014781
v 0.0040000 0.0025083 0.0014781
v 0.0006000 0.0031206 0.0015999
v 0.0040000 0.0031206 0.0015999
v 0.0006000 0.0037328 0.0014780
v 0.0040000 0.0037328 0.0014780
v 0.0006000 0.0042518 0.0011312
v 0.0040000 0.0042518 0.0011312
v 0.0006000 0.0045985 0.0006121
v 0.0040000 0.0045985 0.0006121
v 0.0006000 0.0046408 0.0004000
v 0.0006000 0.0045984 0.0006124
v 0.0006000 0.0047204 -0.0000000
v 0.0006304 0.0046899 0.0001531
v 0.0007172 0.0046641 0.0002828
v 0.0008469 0.0046469 0.0003696
v 0.0010000 0.0046408 0.0004000
v 0.0006304 0.0046899 -0.0001531
v 0.0006000 0.0046408 -0.0004000
v 0.0007172 0.0046641 -0.0002828
v 0.0008469 0.0046469 -0.0003696
v 0.0010000 0.0046408 -0.0004000
v 0.0006000 0.0045984 -0.0006124
v 0.0006000 0.0042516 -0.0011314
v 0.0040000 0.0042516 -0.0011314
v 0.0006000 0.0037325 -0.0014781
v 0.0040000 0.0037325 -0.0014781
v 0.0006000 0.0031202 -0.0015999
v 0.0040000 0.0031202 -0.0015999
v 0.0006000 0.0025080 -0.0014780
v 0.0040000 0.0025080 -0.0014780
v 0.0006000 0.0019890 -0.0011312
v 0.0040000 0.0019890 -0.0011312
v 0.0006000 0.0016423 -0.0006121
v 0.0040000 0.0016423 -0.0006121
v 0.0006000 0.0016000 -0.0004000
v 0.0006000 0.0016424 -0.0006124
v 0.0006304 0.0015509 -0.0001531
v 0.0007172 0.0015767 -0.0002828
v 0.0008469 0.0015939 -0.0003696
v 0.0010000 0.0016000 -0.0004000
v -0.0014469 0.0050268 -0.0013838
v -0.0014469 0.0050976 -0.0014546
v -0.0016000 0.0051148 -0.0014288
v -0.0016000 0.0050440 -0.0013580
v -0.0013172 0.0049777 -0.0014574
v -0.0013172 0.0050485 -0.0015282
v -0.0012304 0.0049042 -0.0015674
v -0.0012304 0.0049750 -0.0016382
v -0.0012000 0.0048176 -0.0016972
v -0.0012000 0.0048884 -0.0017680
v -0.0016000 0.0045492 -0.0019944
v -0.0014469 0.0045750 -0.0019772
v -0.0014469 0.0045042 -0.0019064
v -0.0016000 0.0044784 -0.0019236
v -0.0013172 0.0046486 -0.0019281
v -0.0013172 0.0045778 -0.0018573
v -0.0012304 0.0047586 -0.0018546
v -0.0012304 0.0046878 -0.0017838
v -0.0014469 0.0050972 -0.0014542
v -0.0012304 0.0049746 -0.0016378
v -0.0012000 0.0048880 -0.0017676
v -0.0016000 0.0051144 -0.0014284
v -0.0013172 0.0050481 -0.0015278
v -0.0012304 0.0047582 -0.0018542
v -0.0014469 0.0045746 -0.0019768
v -0.0016000 0.0045488 -0.0019940
v -0.0013172 0.0046482 -0.0019277
v -0.0032000 0.0050440 -0.0013580
v -0.0032000 0.0051144 -0.0014284
v -0.0032000 0.0044784 -0.0019236
v -0.0032000 0.0045488 -0.0019940
v -0.0032000 0.0051148 -0.0014288
v -0.0032000 0.0048880 -0.0017676
v -0.0032000 0.0045492 -0.0019944
v -0.0014469 0.0045042 0.0019064
v -0.0014469 0.0045750 0.0019772
v -0.0016000 0.0045492 0.0019944
v -0.0016000 0.0044784 0.0019236
v -0.0013172 0.0045778 0.0018573
v -0.0013172 0.0046486 0.0019281
v -0.0012304 0.0046878 0.0017838
v -0.0012304 0.0047586 0.0018546
v -0.0012000 0.0048176 0.0016972
v -0.0012000 0.0048884 0.0017680
v -0.0016000 0.0051148 0.0014288
v -0.0014469 0.0050976 0.0014546
v -0.0014469 0.0050268 0.0013838
v -0.0016000 0.0050440 0.0013580
v -0.0013172 0.0050485 0.0015282
v -0.0013172 0.0049777 0.0014574
v -0.0012304 0.0049750 0.0016382
v -0.0012304 0.0049042 0.0015674
v -0.0014469 0.0045746 0.0019768
v -0.0012304 0.0047582 0.0018542
v -0.0012000 0.0048880 0.0017676
v -0.0016000 0.0045488 0.0019940
v -0.0013172 0.0046482 0.0019277
v -0.0012304 0.0049746 0.0016378
v -0.0014469 0.0050972 0.0014542
v -0.0016000 0.0051144 0.0014284
v -0.0013172 0.0050481 0.0015278
v -0.0032000 0.0044784 0.0019236
v -0.0032000 0.0045488 0.0019940
v -0.0032000 0.0050440 0.0013580
v -0.0032000 0.0051144 0.0014284
v -0.0032000 0.0045492 0.0019944
v -0.0032000 0.0048880 0.0017676
v -0.0032000 0.0051148 0.0014288
v -0.0014469 0.0012140 0.0013838
v -0.0014469 0.0011432 0.0014546
v -0.0016000 0.0011260 0.0014288
v -0.0016000 0.0011968 0.0013580
v -0.0013172 0.0012631 0.0014574
v -0.0013172 0.0011923 0.0015282
v -0.0012304 0.0013366 0.0015674
v -0.0012304 0.0012658 0.0016382
v -0.0012000 0.0014232 0.0016972
v -0.0012000 0.0013524 0.0017680
v -0.0016000 0.0016916 0.0019944
v -0.0014469 0.0016658 0.0019772
v -0.0014469 0.0017366 0.0019064
v -0.0016000 0.0017624 0.0019236
v -0.0013172 0.0015922 0.0019281
v -0.0013172 0.0016630 0.0018573
v -0.0012304 0.0014822 0.0018546
v -0.0012304 0.0015530 0.0017838
v -0.0014469 0.0011436 0.0014542
v -0.0012304 0.0012662 0.0016378
v -0.0012000 0.0013528 0.0017676
v -0.0016000 0.0011264 0.0014284
v -0.0013172 0.0011927 0.0015278
v -0.0012304 0.0014826 0.0018542
v -0.0014469 0.0016662 0.0019768
v -0.0016000 0.0016920 0.0019940
v -0.0013172 0.0015926 0.0019277
v -0.0032000 0.0011968 0.0013580
v -0.0032000 0.0011264 0.0014284
v -0.0032000 0.0017624 0.0019236
v -0.0032000 0.0016920 0.0019940
v -0.0032000 0.0011260 0.0014288
v -0.0032000 0.0013528 0.0017676
v -0.0032000 0.0016916 0.0019944
v -0.0014469 0.0017366 -0.0019064
v -0.0014469 0.0016658 -0.0019772
v -0.0016000 0.0016916 -0.0019944
v -0.0016000 0.0017624 -0.0019236
v -0.0013172 0.0016630 -0.0018573
v -0.0013172 0.0015922 -0.0019281
v -0.0012304 0.0015530 -0.0017838
v -0.0012304 0.0014822 -0.0018546
v -0.0012000 0.0014232 -0.0016972
v -0.0012000 0.0013524 -0.0017680
v -0.0016000 0.0011260 -0.0014288
v -0.0014469 0.0011432 -0.0014546
v -0.0014469 0.0012140 -0.0013838
v -0.0016000 0.0011968 -0.0013580
v -0.0013172 0.0011923 -0.0015282
v -0.0013172 0.0012631 -0.0014574
v -0.0012304 0.0012658 -0.0016382
v -0.0012304 0.0013366 -0.0015674
v -0.0014469 0.0016662 -0.0019768
v -0.0012304 0.0014826 -0.0018542
v -0.0012000 0.0013528 -0.0017676
v -0.0016000 0.0016920 -0.0019940
v -0.0013172 0.0015926 -0.0019277
v -0.0012304 0.0012662 -0.0016378
v -0.0014469 0.0011436 -0.0014542
v -0.0016000 0.0011264 -0.0014284
v -0.0013172 0.0011927 -0.0015278
v -0.0032000 0.0017624 -0.0019236
v -0.0032000 0.0016920 -0.0019940
v -0.0032000 0.0011968 -0.0013580
v -0.0032000 0.0011264 -0.0014284
v -0.0032000 0.0016916 -0.0019944
v -0.0032000 0.0013528 -0.0017676
v -0.0032000 0.0011260 -0.0014288
v 0.0014469 0.0012140 -0.0013838
v 0.0014469 0.0011432 -0.0014546
v 0.0016000 0.0011260 -0.0014288
v 0.0016000 0.0011968 -0.0013580
v 0.0013172 0.0012631 -0.0014574
v 0.0013172 0.0011923 -0.0015282
v 0.0012304 0.0013366 -0.0015674
v 0.0012304 0.0012658 -0.0016382
v 0.0012000 0.0014232 -0.0016972
v 0.0012000 0.0013524 -0.0017680
v 0.0016000 0.0016916 -0.0019944
v 0.0014469 0.0016658 -0.0019772
v 0.0014469 0.0017366 -0.0019064
v 0.0016000 0.0017624 -0.0019236
v 0.0013172 0.0015922 -0.0019281
v 0.0013172 0.0016630 -0.0018573
v 0.0012304 0.0014822 -0.0018546
v 0.0012304 0.0015530 -0.0017838
v 0.0014469 0.0011436 -0.0014542
v 0.0012304 0.0012662 -0.0016378
v 0.0012000 0.0013528 -0.0017676
v 0.0016000 0.0011264 -0.0014284
v 0.0013172 0.0011927 -0.0015278
v 0.0012304 0.0014826 -0.0018542
v 0.0014469 0.0016662 -0.0019768
v 0.0016000 0.0016920 -0.0019940
v 0.0013172 0.0015926 -0.0019277
v 0.0014469 0.0017366 0.0019064
v 0.0014469 0.0016658 0.0019772
v 0.0016000 0.0016916 0.0019944
v 0.0016000 0.0017624 0.0019236
v 0.0013172 0.0016630 0.0018573
v 0.0013172 0.0015922 0.0019281
v 0.0012304 0.0015530 0.0017838
v 0.0012304 0.0014822 0.0018546
v 0.0012000 0.0014232 0.0016972
v 0.0012000 0.0013524 0.0017680
v 0.0016000 0.0011260 0.0014288
v 0.0014469 0.0011432 0.0014546
v 0.0014469 0.0012140 0.0013838
v 0.0016000 0.0011968 0.0013580
v 0.0013172 0.0011923 0.0015282
v 0.0013172 0.0012631 0.0014574
v 0.0012304 0.0012658 0.0016382
v 0.0012304 0.0013366 0.0015674
v 0.0014469 0.0016662 0.0019768
v 0.0012304 0.0014826 0.0018542
v 0.0012000 0.0013528 0.0017676
v 0.0016000 0.0016920 0.0019940
v 0.0013172 0.0015926 0.0019277
v 0.0012304 0.0012662 0.0016378
v 0.0014469 0.0011436 0.0014542
v 0.0016000 0.0011264 0.0014284
v 0.0013172 0.0011927 0.0015278
v 0.0014469 0.0050268 0.0013838
v 0.0014469 0.0050976 0.0014546
v 0.0016000 0.0051148 0.0014288
v 0.0016000 0.0050440 0.0013580
v 0.0013172 0.0049777 0.0014574
v 0.0013172 0.0050485 0.0015282
v 0.0012304 0.0049042 0.0015674
v 0.0012304 0.0049750 0.0016382
v 0.0012000 0.0048176 0.0016972
v 0.0012000 0.0048884 0.0017680
v 0.0016000 0.0045492 0.0019944
v 0.0014469 0.0045750 0.0019772
v 0.0014469 0.0045042 0.0019064
v 0.0016000 0.0044784 0.0019236
v 0.0013172 0.0046486 0.0019281
v 0.0013172 0.0045778 0.0018573
v 0.0012304 0.0047586 0.0018546
v 0.0012304 0.0046878 0.0017838
v 0.0014469 0.0050972 0.0014542
v 0.0012304 0.0049746 0.0016378
v 0.0012000 0.0048880 0.0017676
v 0.0016000 0.0051144 0.0014284
v 0.0013172 0.0050481 0.0015278
v 0.0012304 0.0047582 0.0018542
v 0.0014469 0.0045746 0.0019768
v 0.0016000 0.0045488 0.0019940
v 0.0013172 0.0046482 0.0019277
v 0.0014469 0.0045042 -0.0019064
v 0.0014469 0.0045750 -0.0019772
v 0.0016000 0.0045492 -0.0019944
v 0.0016000 0.0044784 -0.0019236
v 0.0013172 0.0045778 -0.0018573
v 0.0013172 0.0046486 -0.0019281
v 0.0012304 0.0046878 -0.0017838
v 0.0012304 0.0047586 -0.0018546
v 0.0012000 0.0048176 -0.0016972
v 0.0012000 0.0048884 -0.0017680
v 0.0016000 0.0051148 -0.0014288
v 0.0014469 0.0050976 -0.0014546
v 0.0014469 0.0050268 -0.0013838
v 0.0016000 0.0050440 -0.0013580
v 0.0013172 0.0050485 -0.0015282
v 0.0013172 0.0049777 -0.0014574
v 0.0012304 0.0049750 -0.0016382
v 0.0012304 0.0049042 -0.0015674
v 0.0014469 0.0045746 -0.0019768
v 0.0012304 0.0047582 -0.0018542
v 0.0012000 0.0048880 -0.0017676
v 0.0016000 0.0045488 -0.0019940
v 0.0013172 0.0046482 -0.0019277
v 0.0012304 0.0049746 -0.0016378
v 0.0014469 0.0050972 -0.0014542
v 0.0016000 0.0051144 -0.0014284
v 0.0013172 0.0050481 -0.0015278
v 0.0035600 0.0017056 -0.0019800
v 0.0035600 0.0021712 -0.0022912
v 0.0035600 0.0031204 -0.0024800
v 0.0035600 0.0040696 -0.0022912
v 0.0035600 0.0045352 -0.0019800
v 0.0032000 0.0017624 -0.0019236
v 0.0032000 0.0022020 -0.0022172
v 0.0032000 0.0031204 -0.0024000
v 0.0032000 0.0040388 -0.0022172
v 0.0032000 0.0044784 -0.0019236
v 0.0035600 0.0045352 0.0019800
v 0.0035600 0.0040696 0.0022912
v 0.0035600 0.0031204 0.0024800
v 0.0035600 0.0021712 0.0022912
v 0.0035600 0.0017056 0.0019800
v 0.0032000 0.0044784 0.0019236
v 0.0032000 0.0040388 0.0022172
v 0.0032000 0.0031204 0.0024000
v 0.0032000 0.0022020 0.0022172
v 0.0032000 0.0017624 0.0019236
f 1 2 3
f 1 3 4
f 5 6 7
f 5 7 8
f 9 10 6
f 9 6 5
f 11 12 10
f 11 10 9
f 13 14 12
f 13 12 11
f 15 16 14
f 15 14 13
f 17 18 16
f 17 16 15
f 19 20 21
f 22 19 21
f 23 24 25
f 23 25 26
f 27 28 29
f 27 29 30
f 31 32 28
f 31 28 27
f 33 34 32
f 33 32 31
f 35 36 34
f 35 34 33
f 37 38 36
f 37 36 35
f 39 40 38
f 39 38 37
f 41 42 43
f 44 41 43
f 7 45 46
f 7 46 4
f 47 48 49
f 47 49 50
f 48 51 52
f 48 52 49
f 53 54 55
f 53 55 56
f 54 57 58
f 54 58 55
f 57 59 60
f 57 60 58
f 59 61 62
f 59 62 60
f 63 64 22
f 63 22 65
f 29 66 67
f 29 67 26
f 68 69 70
f 68 70 71
f 69 72 73
f 69 73 70
f 74 75 76
f 74 76 77
f 75 78 79
f 75 79 76
f 78 80 81
f 78 81 79
f 80 82 83
f 80 83 81
f 84 85 44
f 84 44 86
f 87 88 89
f 90 87 89
f 91 90 89
f 92 91 89
f 86 89 93
f 84 86 93
f 94 95 84
f 94 84 93
f 96 97 95
f 96 95 94
f 98 99 97
f 98 97 96
f 100 101 99
f 100 99 98
f 102 103 101
f 102 101 100
f 104 66 103
f 104 103 102
f 104 105 67
f 104 67 66
f 105 106 107
f 105 107 108
f 105 108 109
f 105 109 110
f 111 106 112
f 113 111 112
f 114 113 112
f 115 114 112
f 65 112 116
f 63 65 116
f 117 118 63
f 117 63 116
f 119 120 118
f 119 118 117
f 121 122 120
f 121 120 119
f 123 124 122
f 123 122 121
f 125 126 124
f 125 124 123
f 127 45 126
f 127 126 125
f 127 128 46
f 127 46 45
f 128 88 129
f 128 129 130
f 128 130 131
f 128 131 132
f 133 134 135
f 136 133 135
f 117 137 134
f 133 117 134
f 138 139 137
f 117 138 137
f 106 140 139
f 138 106 139
f 141 142 140
f 106 141 140
f 102 143 142
f 141 102 142
f 144 145 143
f 102 144 143
f 146 147 145
f 144 146 145
f 148 149 147
f 146 148 147
f 94 150 149
f 148 94 149
f 151 152 150
f 94 151 150
f 88 153 152
f 151 88 152
f 154 155 153
f 88 154 153
f 125 156 155
f 154 125 155
f 157 158 156
f 125 157 156
f 136 135 158
f 157 136 158
f 159 135 160
f 161 159 160
f 162 161 160
f 163 162 160
f 164 160 165
f 166 164 165
f 137 167 166
f 137 166 165
f 168 169 167
f 168 167 137
f 170 171 169
f 170 169 168
f 172 173 171
f 172 171 170
f 143 174 173
f 143 173 172
f 175 176 174
f 175 174 143
f 175 177 178
f 175 178 176
f 177 147 179
f 177 179 180
f 177 180 181
f 177 181 182
f 183 147 184
f 185 183 184
f 186 185 184
f 187 186 184
f 188 184 189
f 190 188 189
f 150 191 190
f 150 190 189
f 192 193 191
f 192 191 150
f 194 195 193
f 194 193 192
f 196 197 195
f 196 195 194
f 156 198 197
f 156 197 196
f 199 200 198
f 199 198 156
f 199 201 202
f 199 202 200
f 201 135 203
f 201 203 204
f 201 204 205
f 201 205 206
f 207 208 200
f 207 200 202
f 208 209 210
f 208 210 200
f 209 211 197
f 209 197 210
f 211 212 213
f 211 213 197
f 212 214 193
f 212 193 213
f 214 215 216
f 214 216 193
f 215 217 190
f 215 190 216
f 217 218 188
f 217 188 190
f 219 220 176
f 219 176 178
f 220 221 222
f 220 222 176
f 221 223 173
f 221 173 222
f 223 224 225
f 223 225 173
f 224 226 169
f 224 169 225
f 226 227 228
f 226 228 169
f 227 229 166
f 227 166 228
f 229 230 164
f 229 164 166
f 231 232 230
f 229 231 230
f 233 234 231
f 233 231 229
f 235 236 234
f 235 234 233
f 237 238 236
f 237 236 235
f 223 239 238
f 223 238 237
f 240 241 239
f 240 239 223
f 242 243 241
f 242 241 240
f 219 244 245
f 219 245 220
f 246 247 218
f 217 246 218
f 248 249 246
f 248 246 217
f 250 251 249
f 250 249 248
f 252 253 251
f 252 251 250
f 211 254 253
f 211 253 252
f 255 256 254
f 255 254 211
f 257 258 256
f 257 256 255
f 207 259 260
f 207 260 208
f 135 159 261
f 135 261 262
f 159 161 263
f 159 263 261
f 161 162 264
f 161 264 263
f 162 163 265
f 162 265 264
f 164 266 265
f 164 265 163
f 267 266 230
f 267 230 232
f 268 267 232
f 268 232 231
f 269 268 231
f 269 231 270
f 271 269 270
f 271 270 272
f 273 271 272
f 273 272 274
f 275 273 274
f 275 274 239
f 276 275 239
f 276 239 277
f 278 276 277
f 278 277 245
f 279 278 245
f 279 245 244
f 244 219 280
f 244 280 279
f 280 178 182
f 280 182 281
f 282 283 179
f 282 179 147
f 283 284 180
f 283 180 179
f 284 285 181
f 284 181 180
f 285 281 182
f 285 182 181
f 183 286 282
f 147 183 282
f 185 287 286
f 183 185 286
f 186 288 287
f 185 186 287
f 187 289 288
f 186 187 288
f 187 188 290
f 289 187 290
f 290 218 247
f 291 290 247
f 292 291 247
f 292 247 246
f 293 292 246
f 293 246 294
f 295 293 294
f 295 294 296
f 297 295 296
f 297 296 298
f 299 297 298
f 299 298 254
f 300 299 254
f 300 254 301
f 302 300 301
f 302 301 260
f 303 302 260
f 303 260 259
f 207 304 303
f 259 207 303
f 305 304 202
f 206 305 202
f 306 203 135
f 262 306 135
f 307 204 203
f 306 307 203
f 308 205 204
f 307 308 204
f 305 206 205
f 308 305 205
f 309 262 261
f 309 261 263
f 309 263 264
f 309 264 265
f 310 309 267
f 310 267 311
f 312 313 314
f 315 312 314
f 313 316 317
f 314 313 317
f 316 318 319
f 317 316 319
f 318 320 321
f 319 318 321
f 320 322 323
f 321 320 323
f 322 324 325
f 323 322 325
f 279 326 327
f 328 279 327
f 283 282 326
f 284 283 326
f 285 284 326
f 281 285 326
f 329 282 286
f 329 286 287
f 329 287 288
f 329 288 289
f 330 329 291
f 330 291 331
f 332 333 334
f 335 332 334
f 333 336 337
f 334 333 337
f 336 338 339
f 337 336 339
f 338 340 341
f 339 338 341
f 340 342 343
f 341 340 343
f 342 344 345
f 343 342 345
f 303 346 347
f 348 303 347
f 306 262 346
f 307 306 346
f 308 307 346
f 305 308 346
f 262 349 350
f 262 350 351
f 349 352 353
f 349 353 350
f 352 354 355
f 352 355 353
f 354 356 357
f 354 357 355
f 356 358 359
f 356 359 357
f 358 360 361
f 358 361 359
f 360 362 363
f 360 363 361
f 362 282 364
f 362 364 363
f 282 365 366
f 282 366 364
f 365 367 368
f 365 368 366
f 367 369 370
f 367 370 368
f 369 371 372
f 369 372 370
f 371 373 374
f 371 374 372
f 373 375 376
f 373 376 374
f 375 377 378
f 375 378 376
f 377 262 351
f 377 351 378
f 379 372 380
f 379 380 381
f 379 381 382
f 379 382 383
f 384 379 385
f 384 385 386
f 386 387 388
f 384 386 388
f 387 389 390
f 388 387 390
f 389 391 392
f 390 389 392
f 391 393 394
f 392 391 394
f 393 395 396
f 394 393 396
f 395 397 398
f 396 395 398
f 399 400 401
f 399 401 402
f 403 357 401
f 404 403 401
f 405 404 401
f 406 405 401
f 407 357 408
f 407 408 409
f 407 409 410
f 407 410 411
f 412 407 413
f 412 413 414
f 414 415 416
f 412 414 416
f 415 417 418
f 416 415 418
f 417 419 420
f 418 417 420
f 419 421 422
f 420 419 422
f 421 423 424
f 422 421 424
f 423 425 426
f 424 423 426
f 427 428 429
f 427 429 430
f 431 372 429
f 432 431 429
f 433 432 429
f 434 433 429
f 88 87 380
f 88 380 372
f 87 90 381
f 87 381 380
f 90 91 382
f 90 382 381
f 91 92 383
f 91 383 382
f 86 435 383
f 86 383 92
f 435 44 43
f 435 43 385
f 26 436 400
f 26 400 23
f 436 67 110
f 436 110 406
f 357 403 107
f 357 107 106
f 403 404 108
f 403 108 107
f 404 405 109
f 404 109 108
f 405 406 110
f 405 110 109
f 111 408 357
f 106 111 357
f 113 409 408
f 111 113 408
f 114 410 409
f 113 114 409
f 115 411 410
f 114 115 410
f 115 65 437
f 411 115 437
f 413 437 22
f 21 413 22
f 1 4 438
f 428 1 438
f 434 438 46
f 132 434 46
f 431 129 88
f 372 431 88
f 432 130 129
f 431 432 129
f 433 131 130
f 432 433 130
f 434 132 131
f 433 434 131
f 439 440 441
f 439 441 442
f 440 443 444
f 440 444 441
f 443 445 446
f 443 446 444
f 445 447 448
f 445 448 446
f 449 450 451
f 452 449 451
f 453 454 450
f 449 453 450
f 455 456 454
f 453 455 454
f 448 447 456
f 455 448 456
f 457 458 459
f 460 457 459
f 459 458 461
f 462 463 457
f 462 457 464
f 465 463 462
f 460 442 466
f 467 460 466
f 468 452 464
f 468 464 469
f 457 439 470
f 457 470 471
f 471 472 451
f 471 451 457
f 473 474 475
f 473 475 476
f 474 477 478
f 474 478 475
f 477 479 480
f 477 480 478
f 479 481 482
f 479 482 480
f 483 484 485
f 486 483 485
f 487 488 484
f 483 487 484
f 489 490 488
f 487 489 488
f 482 481 490
f 489 482 490
f 491 492 493
f 494 491 493
f 493 492 495
f 496 497 491
f 496 491 498
f 499 497 496
f 494 476 500
f 501 494 500
f 502 486 498
f 502 498 503
f 491 473 504
f 491 504 505
f 505 506 485
f 505 485 491
f 507 508 509
f 507 509 510
f 508 511 512
f 508 512 509
f 511 513 514
f 511 514 512
f 513 515 516
f 513 516 514
f 517 518 519
f 520 517 519
f 521 522 518
f 517 521 518
f 523 524 522
f 521 523 522
f 516 515 524
f 523 516 524
f 525 526 527
f 528 525 527
f 527 526 529
f 530 531 525
f 530 525 532
f 533 531 530
f 528 510 534
f 535 528 534
f 536 520 532
f 536 532 537
f 525 507 538
f 525 538 539
f 539 540 519
f 539 519 525
f 541 542 543
f 541 543 544
f 542 545 546
f 542 546 543
f 545 547 548
f 545 548 546
f 547 549 550
f 547 550 548
f 551 552 553
f 554 551 553
f 555 556 552
f 551 555 552
f 557 558 556
f 555 557 556
f 550 549 558
f 557 550 558
f 559 560 561
f 562 559 561
f 561 560 563
f 564 565 559
f 564 559 566
f 567 565 564
f 562 544 568
f 569 562 568
f 570 554 566
f 570 566 571
f 559 541 572
f 559 572 573
f 573 574 553
f 573 553 559
f 575 576 577
f 575 577 578
f 576 579 580
f 576 580 577
f 579 581 582
f 579 582 580
f 581 583 584
f 581 584 582
f 585 586 587
f 588 585 587
f 589 590 586
f 585 589 586
f 591 592 590
f 589 591 590
f 584 583 592
f 591 584 592
f 593 594 595
f 596 593 595
f 595 594 597
f 598 599 593
f 598 593 600
f 601 599 598
f 596 578 602
f 603 596 602
f 604 588 600
f 604 600 605
f 593 575 606
f 593 606 607
f 607 608 587
f 607 587 593
f 609 610 611
f 609 611 612
f 610 613 614
f 610 614 611
f 613 615 616
f 613 616 614
f 615 617 618
f 615 618 616
f 619 620 621
f 622 619 621
f 623 624 620
f 619 623 620
f 625 626 624
f 623 625 624
f 618 617 626
f 625 618 626
f 627 628 629
f 630 627 629
f 629 628 631
f 632 633 627
f 632 627 634
f 635 633 632
f 630 612 636
f 637 630 636
f 638 622 634
f 638 634 639
f 627 609 640
f 627 640 641
f 641 642 621
f 641 621 627
f 643 644 645
f 643 645 646
f 644 647 648
f 644 648 645
f 647 649 650
f 647 650 648
f 649 651 652
f 649 652 650
f 653 654 655
f 656 653 655
f 657 658 654
f 653 657 654
f 659 660 658
f 657 659 658
f 652 651 660
f 659 652 660
f 661 662 663
f 664 661 663
f 663 662 665
f 666 667 661
f 666 661 668
f 669 667 666
f 664 646 670
f 671 664 670
f 672 656 668
f 672 668 673
f 661 643 674
f 661 674 675
f 675 676 655
f 675 655 661
f 677 678 679
f 677 679 680
f 678 681 682
f 678 682 679
f 681 683 684
f 681 684 682
f 683 685 686
f 683 686 684
f 687 688 689
f 690 687 689
f 691 692 688
f 687 691 688
f 693 694 692
f 691 693 692
f 686 685 694
f 693 686 694
f 695 696 697
f 698 695 697
f 697 696 699
f 700 701 695
f 700 695 702
f 703 701 700
f 698 680 704
f 705 698 704
f 706 690 702
f 706 702 707
f 695 677 708
f 695 708 709
f 709 710 689
f 709 689 695
f 711 712 713
f 711 713 714
f 711 714 715
f 711 715 716
f 717 718 719
f 711 717 719
f 718 720 721
f 719 718 721
f 720 722 723
f 721 720 723
f 722 724 725
f 723 722 725
f 724 726 727
f 725 724 727
f 726 728 729
f 727 726 729
f 728 730 731
f 729 728 731
f 732 731 730
f 733 732 730
f 734 735 732
f 736 734 732
f 737 736 732
f 738 737 732
f 739 735 740
f 739 740 741
f 739 741 742
f 739 742 743
f 744 745 746
f 739 744 746
f 745 747 748
f 746 745 748
f 747 749 750
f 748 747 750
f 749 751 752
f 750 749 752
f 751 753 754
f 752 751 754
f 753 755 756
f 754 753 756
f 755 757 758
f 756 755 758
f 759 758 757
f 760 759 757
f 761 712 759
f 762 761 759
f 763 762 759
f 764 763 759
f 765 766 767
f 765 767 768
f 766 769 748
f 766 748 767
f 769 770 771
f 769 771 748
f 770 772 735
f 770 735 771
f 772 773 774
f 772 774 735
f 773 775 729
f 773 729 774
f 775 776 777
f 775 777 729
f 776 778 779
f 776 779 777
f 778 780 781
f 778 781 779
f 780 782 721
f 780 721 781
f 782 783 784
f 782 784 721
f 783 785 712
f 783 712 784
f 785 786 787
f 785 787 712
f 786 788 756
f 786 756 787
f 788 789 790
f 788 790 756
f 789 765 768
f 789 768 790
f 791 765 792
f 791 792 793
f 791 793 794
f 791 794 795
f 796 791 797
f 796 797 798
f 798 799 769
f 796 798 769
f 799 800 801
f 769 799 801
f 800 802 803
f 801 800 803
f 802 804 805
f 803 802 805
f 804 806 775
f 805 804 775
f 806 807 808
f 775 806 808
f 809 810 808
f 807 809 808
f 811 778 810
f 812 811 810
f 813 812 810
f 814 813 810
f 815 778 816
f 815 816 817
f 815 817 818
f 815 818 819
f 820 815 821
f 820 821 822
f 822 823 782
f 820 822 782
f 823 824 825
f 782 823 825
f 824 826 827
f 825 824 827
f 826 828 829
f 827 826 829
f 828 830 788
f 829 828 788
f 830 831 832
f 788 830 832
f 833 834 832
f 831 833 832
f 835 765 834
f 836 835 834
f 837 836 834
f 838 837 834
f 831 839 840
f 833 831 840
f 841 842 839
f 831 841 839
f 828 843 842
f 841 828 842
f 844 845 843
f 828 844 843
f 824 846 845
f 844 824 845
f 847 848 846
f 824 847 846
f 822 849 848
f 847 822 848
f 821 850 849
f 822 821 849
f 807 851 852
f 809 807 852
f 853 854 851
f 807 853 851
f 804 855 854
f 853 804 854
f 856 857 855
f 804 856 855
f 800 858 857
f 856 800 857
f 859 860 858
f 800 859 858
f 798 861 860
f 859 798 860
f 797 862 861
f 798 797 861
f 862 863 864
f 862 864 861
f 864 865 866
f 861 864 866
f 865 867 868
f 866 865 868
f 867 869 870
f 868 867 870
f 869 871 855
f 870 869 855
f 871 872 873
f 855 871 873
f 872 874 875
f 873 872 875
f 876 877 852
f 851 876 852
f 850 878 879
f 850 879 849
f 879 880 881
f 849 879 881
f 880 882 883
f 881 880 883
f 882 884 885
f 883 882 885
f 884 886 843
f 885 884 843
f 886 887 888
f 843 886 888
f 887 889 890
f 888 887 890
f 891 892 840
f 839 891 840
f 893 792 765
f 894 893 765
f 895 793 792
f 893 895 792
f 896 794 793
f 895 896 793
f 897 795 794
f 896 897 794
f 897 898 797
f 795 897 797
f 862 898 899
f 863 862 899
f 863 899 900
f 864 863 900
f 864 900 901
f 902 864 901
f 902 901 903
f 904 902 903
f 904 903 905
f 906 904 905
f 906 905 907
f 871 906 907
f 871 907 908
f 909 871 908
f 909 908 910
f 876 909 910
f 876 910 911
f 877 876 911
f 912 852 877
f 911 912 877
f 814 809 912
f 913 814 912
f 811 914 915
f 778 811 915
f 812 916 914
f 811 812 914
f 813 917 916
f 812 813 916
f 814 913 917
f 813 814 917
f 915 918 816
f 915 816 778
f 918 919 817
f 918 817 816
f 919 920 818
f 919 818 817
f 920 921 819
f 920 819 818
f 922 821 819
f 922 819 921
f 878 850 922
f 878 922 923
f 878 923 924
f 879 878 924
f 879 924 925
f 926 879 925
f 926 925 927
f 928 926 927
f 928 927 929
f 930 928 929
f 930 929 931
f 886 930 931
f 886 931 932
f 933 886 932
f 933 932 934
f 891 933 934
f 891 934 935
f 892 891 935
f 935 936 840
f 935 840 892
f 833 936 937
f 833 937 838
f 765 835 938
f 765 938 894
f 835 836 939
f 835 939 938
f 836 837 940
f 836 940 939
f 837 838 937
f 837 937 940
f 893 894 941
f 895 893 941
f 896 895 941
f 897 896 941
f 899 941 942
f 943 899 942
f 944 945 946
f 944 946 947
f 948 949 945
f 948 945 944
f 950 951 949
f 950 949 948
f 952 953 951
f 952 951 950
f 954 955 953
f 954 953 952
f 956 957 955
f 956 955 954
f 958 959 911
f 958 911 960
f 959 915 914
f 959 914 916
f 959 916 917
f 959 917 913
f 918 915 961
f 919 918 961
f 920 919 961
f 921 920 961
f 923 961 962
f 963 923 962
f 964 965 966
f 964 966 967
f 968 969 965
f 968 965 964
f 970 971 969
f 970 969 968
f 972 973 971
f 972 971 970
f 974 975 973
f 974 973 972
f 976 977 975
f 976 975 974
f 978 979 935
f 978 935 980
f 979 894 938
f 979 938 939
f 979 939 940
f 979 940 937
f 981 982 894
f 983 981 894
f 984 985 982
f 981 984 982
f 986 987 985
f 984 986 985
f 988 989 987
f 986 988 987
f 990 991 989
f 988 990 989
f 992 993 991
f 990 992 991
f 994 995 993
f 992 994 993
f 996 915 995
f 994 996 995
f 997 998 915
f 996 997 915
f 999 1000 998
f 997 999 998
f 1001 1002 1000
f 999 1001 1000
f 1003 1004 1002
f 1001 1003 1002
f 1005 1006 1004
f 1003 1005 1004
f 1007 1008 1006
f 1005 1007 1006
f 1009 1010 1008
f 1007 1009 1008
f 983 894 1010
f 1009 983 1010
f 1011 1003 1012
f 1013 1011 1012
f 1014 1013 1012
f 1015 1014 1012
f 1016 1012 1017
f 1018 1016 1017
f 1019 1020 1018
f 1019 1018 1017
f 1021 1022 1020
f 1021 1020 1019
f 1023 1024 1022
f 1023 1022 1021
f 1025 1026 1024
f 1025 1024 1023
f 1027 1028 1026
f 1027 1026 1025
f 1029 1030 1028
f 1029 1028 1027
f 1031 1032 1033
f 1034 1031 1033
f 1031 988 1035
f 1031 1035 1036
f 1031 1036 1037
f 1031 1037 1038
f 1039 988 1040
f 1041 1039 1040
f 1042 1041 1040
f 1043 1042 1040
f 1044 1040 1045
f 1046 1044 1045
f 1047 1048 1046
f 1047 1046 1045
f 1049 1050 1048
f 1049 1048 1047
f 1051 1052 1050
f 1051 1050 1049
f 1053 1054 1052
f 1053 1052 1051
f 1055 1056 1054
f 1055 1054 1053
f 1057 1058 1056
f 1057 1056 1055
f 1059 1060 1061
f 1062 1059 1061
f 1059 1003 1063
f 1059 1063 1064
f 1059 1064 1065
f 1059 1065 1066
f 1011 713 712
f 1003 1011 712
f 1013 714 713
f 1011 1013 713
f 1014 715 714
f 1013 1014 714
f 1015 716 715
f 1014 1015 715
f 1015 1016 717
f 716 1015 717
f 738 733 1032
f 1038 738 1032
f 734 1035 988
f 735 734 988
f 736 1036 1035
f 734 736 1035
f 737 1037 1036
f 736 737 1036
f 738 1038 1037
f 737 738 1037
f 988 1039 740
f 988 740 735
f 1039 1041 741
f 1039 741 740
f 1041 1042 742
f 1041 742 741
f 1042 1043 743
f 1042 743 742
f 1044 744 743
f 1044 743 1043
f 760 1060 1066
f 760 1066 764
f 712 761 1063
f 712 1063 1003
f 761 762 1064
f 761 1064 1063
f 762 763 1065
f 762 1065 1064
f 763 764 1066
f 763 1066 1065
f 1067 1068 1069
f 1070 1067 1069
f 1071 1072 1068
f 1067 1071 1068
f 1073 1074 1072
f 1071 1073 1072
f 1075 1076 1074
f 1073 1075 1074
f 1077 1078 1079
f 1077 1079 1080
f 1078 1081 1082
f 1078 1082 1079
f 1081 1083 1084
f 1081 1084 1082
f 1083 1076 1075
f 1083 1075 1084
f 1085 1086 1087
f 1085 1087 1088
f 1089 1086 1085
f 1087 1090 1091
f 1092 1087 1091
f 1091 1090 1093
f 1094 1070 1088
f 1094 1088 1095
f 1092 1080 1096
f 1097 1092 1096
f 1098 1069 1087
f 1099 1098 1087
f 1077 1100 1099
f 1087 1077 1099
f 1101 1102 1103
f 1104 1101 1103
f 1105 1106 1102
f 1101 1105 1102
f 1107 1108 1106
f 1105 1107 1106
f 1109 1110 1108
f 1107 1109 1108
f 1111 1112 1113
f 1111 1113 1114
f 1112 1115 1116
f 1112 1116 1113
f 1115 1117 1118
f 1115 1118 1116
f 1117 1110 1109
f 1117 1109 1118
f 1119 1120 1121
f 1119 1121 1122
f 1123 1120 1119
f 1121 1124 1125
f 1126 1121 1125
f 1125 1124 1127
f 1128 1104 1122
f 1128 1122 1129
f 1126 1114 1130
f 1131 1126 1130
f 1132 1103 1121
f 1133 1132 1121
f 1111 1134 1133
f 1121 1111 1133
f 1135 1136 1137
f 1138 1135 1137
f 1139 1140 1136
f 1135 1139 1136
f 1141 1142 1140
f 1139 1141 1140
f 1143 1144 1142
f 1141 1143 1142
f 1145 1146 1147
f 1145 1147 1148
f 1146 1149 1150
f 1146 1150 1147
f 1149 1151 1152
f 1149 1152 1150
f 1151 1144 1143
f 1151 1143 1152
f 1153 1154 1155
f 1153 1155 1156
f 1157 1154 1153
f 1155 1158 1159
f 1160 1155 1159
f 1159 1158 1161
f 1162 1138 1156
f 1162 1156 1163
f 1160 1148 1164
f 1165 1160 1164
f 1166 1137 1155
f 1167 1166 1155
f 1145 1168 1167
f 1155 1145 1167
f 1169 1170 1171
f 1172 1169 1171
f 1173 1174 1170
f 1169 1173 1170
f 1175 1176 1174
f 1173 1175 1174
f 1177 1178 1176
f 1175 1177 1176
f 1179 1180 1181
f 1179 1181 1182
f 1180 1183 1184
f 1180 1184 1181
f 1183 1185 1186
f 1183 1186 1184
f 1185 1178 1177
f 1185 1177 1186
f 1187 1188 1189
f 1187 1189 1190
f 1191 1188 1187
f 1189 1192 1193
f 1194 1189 1193
f 1193 1192 1195
f 1196 1172 1190
f 1196 1190 1197
f 1194 1182 1198
f 1199 1194 1198
f 1200 1171 1189
f 1201 1200 1189
f 1179 1202 1201
f 1189 1179 1201
f 1203 1204 1205
f 1206 1203 1205
f 1207 1208 1204
f 1203 1207 1204
f 1209 1210 1208
f 1207 1209 1208
f 1211 1212 1210
f 1209 1211 1210
f 1213 1214 1215
f 1213 1215 1216
f 1214 1217 1218
f 1214 1218 1215
f 1217 1219 1220
f 1217 1220 1218
f 1219 1212 1211
f 1219 1211 1220
f 1221 1222 1223
f 1221 1223 1224
f 1225 1222 1221
f 1223 1226 1227
f 1228 1223 1227
f 1227 1226 1229
f 1206 1224 1230
f 1206 1230 1231
f 1232 1228 1216
f 1233 1232 1216
f 1234 1205 1223
f 1235 1234 1223
f 1213 1236 1235
f 1223 1213 1235
f 1237 1238 1239
f 1240 1237 1239
f 1241 1242 1238
f 1237 1241 1238
f 1243 1244 1242
f 1241 1243 1242
f 1245 1246 1244
f 1243 1245 1244
f 1247 1248 1249
f 1247 1249 1250
f 1248 1251 1252
f 1248 1252 1249
f 1251 1253 1254
f 1251 1254 1252
f 1253 1246 1245
f 1253 1245 1254
f 1255 1256 1257
f 1255 1257 1258
f 1259 1256 1255
f 1257 1260 1261
f 1262 1257 1261
f 1261 1260 1263
f 1240 1258 1264
f 1240 1264 1265
f 1266 1262 1250
f 1267 1266 1250
f 1268 1239 1257
f 1269 1268 1257
f 1247 1270 1269
f 1257 1247 1269
f 1271 1272 1273
f 1274 1271 1273
f 1275 1276 1272
f 1271 1275 1272
f 1277 1278 1276
f 1275 1277 1276
f 1279 1280 1278
f 1277 1279 1278
f 1281 1282 1283
f 1281 1283 1284
f 1282 1285 1286
f 1282 1286 1283
f 1285 1287 1288
f 1285 1288 1286
f 1287 1280 1279
f 1287 1279 1288
f 1289 1290 1291
f 1289 1291 1292
f 1293 1290 1289
f 1291 1294 1295
f 1296 1291 1295
f 1295 1294 1297
f 1298 1274 1292
f 1299 1298 1292
f 1296 1284 1300
f 1296 1300 1301
f 1302 1273 1291
f 1303 1302 1291
f 1281 1304 1303
f 1291 1281 1303
f 1305 1306 1307
f 1308 1305 1307
f 1309 1310 1306
f 1305 1309 1306
f 1311 1312 1310
f 1309 1311 1310
f 1313 1314 1312
f 1311 1313 1312
f 1315 1316 1317
f 1315 1317 1318
f 1316 1319 1320
f 1316 1320 1317
f 1319 1321 1322
f 1319 1322 1320
f 1321 1314 1313
f 1321 1313 1322
f 1323 1324 1325
f 1323 1325 1326
f 1327 1324 1323
f 1325 1328 1329
f 1330 1325 1329
f 1329 1328 1331
f 1332 1308 1326
f 1333 1332 1326
f 1330 1318 1334
f 1330 1334 1335
f 1336 1307 1325
f 1337 1336 1325
f 1315 1338 1337
f 1325 1315 1337
f 1236 1339 1340
f 1341 1236 1340
f 1341 1340 1342
f 1343 1341 1342
f 1343 1342 1344
f 1345 1343 1344
f 1345 1344 1346
f 1336 1345 1346
f 1339 1347 1348
f 1340 1339 1348
f 1340 1348 1349
f 1342 1340 1349
f 1342 1349 1350
f 1344 1342 1350
f 1344 1350 1351
f 1346 1344 1351
f 1304 1352 1353
f 1354 1304 1353
f 1354 1353 1355
f 1356 1354 1355
f 1356 1355 1357
f 1358 1356 1357
f 1358 1357 1359
f 1268 1358 1359
f 1352 1360 1361
f 1353 1352 1361
f 1353 1361 1362
f 1355 1353 1362
f 1355 1362 1363
f 1357 1355 1363
f 1357 1363 1364
f 1359 1357 1364
f 1365 1366 1367
f 1365 1367 1368
f 1365 1368 1369
f 1365 1369 1370
f 733 730 1371
f 1365 733 1371
f 730 728 1372
f 1371 730 1372
f 728 726 1373
f 1372 728 1373
f 726 724 1374
f 1373 726 1374
f 724 722 1375
f 1374 724 1375
f 722 720 1376
f 1375 722 1376
f 720 718 1377
f 1376 720 1377
f 1378 1377 718
f 717 1378 718
f 1379 1380 1378
f 1381 1379 1378
f 1382 1381 1378
f 1383 1382 1378
f 1384 1380 1385
f 1384 1385 1386
f 1384 1386 1387
f 1384 1387 1388
f 760 757 1389
f 1384 760 1389
f 757 755 1390
f 1389 757 1390
f 755 753 1391
f 1390 755 1391
f 753 751 1392
f 1391 753 1392
f 751 749 1393
f 1392 751 1393
f 749 747 1394
f 1393 749 1394
f 747 745 1395
f 1394 747 1395
f 1396 1395 745
f 744 1396 745
f 1397 1366 1396
f 1398 1397 1396
f 1399 1398 1396
f 1400 1399 1396
f 1401 1402 1403
f 1401 1403 1404
f 1402 1405 1406
f 1402 1406 1403
f 1405 1407 1408
f 1405 1408 1406
f 1407 1409 1410
f 1407 1410 1408
f 1409 1411 1412
f 1409 1412 1410
f 1411 1413 1414
f 1411 1414 1412
f 1413 1415 1416
f 1413 1416 1414
f 1415 1417 1418
f 1415 1418 1416
f 1417 1419 1420
f 1417 1420 1418
f 1419 1421 1422
f 1419 1422 1420
f 1421 1423 1424
f 1421 1424 1422
f 1423 1425 1426
f 1423 1426 1424
f 1425 1427 1428
f 1425 1428 1426
f 1427 1429 1430
f 1427 1430 1428
f 1429 1431 1432
f 1429 1432 1430
f 1431 1401 1404
f 1431 1404 1432
f 1433 1434 1435
f 1433 1435 1436
f 1433 1436 1437
f 1433 1437 1438
f 1439 1433 1440
f 1439 1440 1441
f 1441 1442 1443
f 1439 1441 1443
f 1442 1444 1445
f 1443 1442 1445
f 1444 1446 1447
f 1445 1444 1447
f 1446 1448 1449
f 1447 1446 1449
f 1448 1450 1451
f 1449 1448 1451
f 1450 1452 1453
f 1451 1450 1453
f 1454 1455 1453
f 1452 1454 1453
f 1456 1457 1455
f 1458 1456 1455
f 1459 1458 1455
f 1460 1459 1455
f 1461 1457 1462
f 1461 1462 1463
f 1461 1463 1464
f 1461 1464 1465
f 1466 1461 1467
f 1466 1467 1468
f 1468 1469 1470
f 1466 1468 1470
f 1469 1471 1472
f 1470 1469 1472
f 1471 1473 1474
f 1472 1471 1474
f 1473 1475 1476
f 1474 1473 1476
f 1475 1477 1478
f 1476 1475 1478
f 1477 1479 1480
f 1478 1477 1480
f 1481 1482 1480
f 1479 1481 1480
f 1483 1434 1482
f 1484 1483 1482
f 1485 1484 1482
f 1486 1485 1482
f 1479 1487 1488
f 1481 1479 1488
f 1489 1490 1491
f 1492 1489 1491
f 1493 1494 1490
f 1489 1493 1490
f 1495 1496 1497
f 1498 1495 1497
f 1499 1500 1496
f 1495 1499 1496
f 1501 1502 1500
f 1499 1501 1500
f 1503 1504 1502
f 1501 1503 1502
f 1467 1505 1506
f 1468 1467 1506
f 1452 1507 1508
f 1454 1452 1508
f 1509 1510 1511
f 1512 1509 1511
f 1513 1514 1510
f 1509 1513 1510
f 1515 1516 1517
f 1518 1515 1517
f 1519 1520 1516
f 1515 1519 1516
f 1521 1522 1520
f 1519 1521 1520
f 1523 1524 1522
f 1521 1523 1522
f 1440 1525 1526
f 1441 1440 1526
f 21 20 1527
f 21 1527 1525
f 1528 1529 1530
f 1526 1528 1530
f 1529 1531 1532
f 1530 1529 1532
f 1531 1533 1534
f 1532 1531 1534
f 1533 1535 1536
f 1534 1533 1536
f 1535 1537 1538
f 1536 1535 1538
f 1537 1539 1540
f 1538 1537 1540
f 2 1 1508
f 2 1508 1541
f 1505 43 42
f 1542 1505 42
f 1543 1544 1545
f 1506 1543 1545
f 1544 1546 1547
f 1545 1544 1547
f 1546 1548 1549
f 1547 1546 1549
f 1548 1550 1551
f 1549 1548 1551
f 1550 1552 1553
f 1551 1550 1553
f 1552 1554 1555
f 1553 1552 1555
f 24 23 1488
f 24 1488 1556
f 1557 1435 1434
f 1558 1557 1434
f 1559 1436 1435
f 1557 1559 1435
f 1560 1437 1436
f 1559 1560 1436
f 1561 1438 1437
f 1560 1561 1437
f 1562 1563 1564
f 1565 1562 1564
f 1525 1566 413
f 1525 413 21
f 1567 1568 1569
f 1570 1567 1569
f 1571 1508 1
f 1571 1 428
f 1456 1572 1573
f 1457 1456 1573
f 1458 1574 1572
f 1456 1458 1572
f 1459 1575 1574
f 1458 1459 1574
f 1460 1576 1575
f 1459 1460 1575
f 1573 1577 1462
f 1573 1462 1457
f 1577 1578 1463
f 1577 1463 1462
f 1578 1579 1464
f 1578 1464 1463
f 1579 1580 1465
f 1579 1465 1464
f 1581 1582 1583
f 1581 1583 1584
f 43 1505 1585
f 385 43 1585
f 1586 1587 1588
f 1586 1588 1589
f 400 1590 1488
f 23 400 1488
f 1434 1483 1591
f 1434 1591 1558
f 1483 1484 1592
f 1483 1592 1591
f 1484 1485 1593
f 1484 1593 1592
f 1485 1486 1594
f 1485 1594 1593
f 1557 1558 1595
f 1559 1557 1595
f 1560 1559 1595
f 1561 1560 1595
f 413 1595 1596
f 414 413 1596
f 1597 415 414
f 1597 414 1596
f 1598 417 415
f 1598 415 1597
f 1599 419 417
f 1599 417 1598
f 1600 421 419
f 1600 419 1599
f 1601 423 421
f 1601 421 1600
f 1602 425 423
f 1602 423 1601
f 1603 428 427
f 1604 1603 427
f 1603 1573 1572
f 1603 1572 1574
f 1603 1574 1575
f 1603 1575 1576
f 1577 1573 1605
f 1578 1577 1605
f 1579 1578 1605
f 1580 1579 1605
f 385 1605 1606
f 386 385 1606
f 1607 387 386
f 1607 386 1606
f 1608 389 387
f 1608 387 1607
f 1609 391 389
f 1609 389 1608
f 1610 393 391
f 1610 391 1609
f 1611 395 393
f 1611 393 1610
f 1612 397 395
f 1612 395 1611
f 1613 400 399
f 1614 1613 399
f 1613 1558 1591
f 1613 1591 1592
f 1613 1592 1593
f 1613 1593 1594
f 1615 1616 1617
f 1618 1615 1617
f 1619 1620 1616
f 1615 1619 1616
f 1621 1622 1620
f 1619 1621 1620
f 1623 1624 1622
f 1621 1623 1622
f 1625 1626 1624
f 1623 1625 1624
f 1627 1628 1626
f 1625 1627 1626
f 1629 1630 1628
f 1627 1629 1628
f 1631 1632 1630
f 1629 1631 1630
f 1633 1634 1632
f 1631 1633 1632
f 1635 1636 1634
f 1633 1635 1634
f 1637 1638 1636
f 1635 1637 1636
f 1639 1640 1638
f 1637 1639 1638
f 1641 1642 1640
f 1639 1641 1640
f 1643 1644 1642
f 1641 1643 1642
f 1645 1646 1644
f 1643 1645 1644
f 1618 1617 1646
f 1645 1618 1646
f 1647 1648 1649
f 1650 1647 1649
f 1651 1650 1649
f 1652 1651 1649
f 1032 1649 1653
f 1033 1032 1653
f 1654 1655 1033
f 1654 1033 1653
f 1656 1657 1655
f 1656 1655 1654
f 1658 1659 1657
f 1658 1657 1656
f 1660 1661 1659
f 1660 1659 1658
f 1662 1663 1661
f 1662 1661 1660
f 1664 1665 1663
f 1664 1663 1662
f 1666 1016 1018
f 1667 1666 1018
f 1666 1668 1669
f 1666 1669 1670
f 1666 1670 1671
f 1666 1671 1672
f 1673 1668 1674
f 1675 1673 1674
f 1676 1675 1674
f 1677 1676 1674
f 1060 1674 1678
f 1061 1060 1678
f 1679 1680 1061
f 1679 1061 1678
f 1681 1682 1680
f 1681 1680 1679
f 1683 1684 1682
f 1683 1682 1681
f 1685 1686 1684
f 1685 1684 1683
f 1687 1688 1686
f 1687 1686 1685
f 1689 1690 1688
f 1689 1688 1687
f 1691 1044 1046
f 1692 1691 1046
f 1691 1648 1693
f 1691 1693 1694
f 1691 1694 1695
f 1691 1695 1696
f 1647 1367 1366
f 1648 1647 1366
f 1650 1368 1367
f 1647 1650 1367
f 1651 1369 1368
f 1650 1651 1368
f 1652 1370 1369
f 1651 1652 1369
f 1652 1032 733
f 1370 1652 733
f 1383 717 1016
f 1672 1383 1016
f 1379 1669 1668
f 1380 1379 1668
f 1381 1670 1669
f 1379 1381 1669
f 1382 1671 1670
f 1381 1382 1670
f 1383 1672 1671
f 1382 1383 1671
f 1668 1673 1385
f 1668 1385 1380
f 1673 1675 1386
f 1673 1386 1385
f 1675 1676 1387
f 1675 1387 1386
f 1676 1677 1388
f 1676 1388 1387
f 1060 760 1388
f 1060 1388 1677
f 744 1044 1696
f 744 1696 1400
f 1366 1397 1693
f 1366 1693 1648
f 1397 1398 1694
f 1397 1694 1693
f 1398 1399 1695
f 1398 1695 1694
f 1399 1400 1696
f 1399 1696 1695
f 1697 1698 1699
f 1700 1697 1699
f 1701 1702 1698
f 1697 1701 1698
f 1703 1704 1702
f 1701 1703 1702
f 1705 1706 1704
f 1703 1705 1704
f 1707 1708 1709
f 1707 1709 1710
f 1708 1711 1712
f 1708 1712 1709
f 1711 1713 1714
f 1711 1714 1712
f 1713 1706 1705
f 1713 1705 1714
f 1715 1716 1717
f 1715 1717 1718
f 1719 1716 1715
f 1717 1720 1721
f 1722 1717 1721
f 1721 1720 1723
f 1724 1700 1718
f 1724 1718 1725
f 1722 1710 1726
f 1727 1722 1726
f 1728 1699 1717
f 1729 1728 1717
f 1707 1730 1729
f 1717 1707 1729
f 1731 1732 1733
f 1734 1731 1733
f 1735 1736 1732
f 1731 1735 1732
f 1737 1738 1736
f 1735 1737 1736
f 1739 1740 1738
f 1737 1739 1738
f 1741 1742 1743
f 1741 1743 1744
f 1742 1745 1746
f 1742 1746 1743
f 1745 1747 1748
f 1745 1748 1746
f 1747 1740 1739
f 1747 1739 1748
f 1749 1750 1751
f 1749 1751 1752
f 1753 1750 1749
f 1751 1754 1755
f 1756 1751 1755
f 1755 1754 1757
f 1758 1734 1752
f 1758 1752 1759
f 1756 1744 1760
f 1761 1756 1760
f 1762 1733 1751
f 1763 1762 1751
f 1741 1764 1763
f 1751 1741 1763
f 1765 1766 1767
f 1768 1765 1767
f 1769 1770 1766
f 1765 1769 1766
f 1771 1772 1770
f 1769 1771 1770
f 1773 1774 1772
f 1771 1773 1772
f 1775 1776 1777
f 1775 1777 1778
f 1776 1779 1780
f 1776 1780 1777
f 1779 1781 1782
f 1779 1782 1780
f 1781 1774 1773
f 1781 1773 1782
f 1783 1784 1785
f 1783 1785 1786
f 1787 1784 1783
f 1785 1788 1789
f 1790 1785 1789
f 1789 1788 1791
f 1792 1768 1786
f 1792 1786 1793
f 1790 1778 1794
f 1795 1790 1794
f 1796 1767 1785
f 1797 1796 1785
f 1775 1798 1797
f 1785 1775 1797
f 1799 1800 1801
f 1802 1799 1801
f 1803 1804 1800
f 1799 1803 1800
f 1805 1806 1804
f 1803 1805 1804
f 1807 1808 1806
f 1805 1807 1806
f 1809 1810 1811
f 1809 1811 1812
f 1810 1813 1814
f 1810 1814 1811
f 1813 1815 1816
f 1813 1816 1814
f 1815 1808 1807
f 1815 1807 1816
f 1817 1818 1819
f 1817 1819 1820
f 1821 1818 1817
f 1819 1822 1823
f 1824 1819 1823
f 1823 1822 1825
f 1826 1802 1820
f 1826 1820 1827
f 1824 1812 1828
f 1829 1824 1828
f 1830 1801 1819
f 1831 1830 1819
f 1809 1832 1831
f 1819 1809 1831
f 1833 1834 1835
f 1836 1833 1835
f 1837 1838 1834
f 1833 1837 1834
f 1839 1840 1838
f 1837 1839 1838
f 1841 1842 1840
f 1839 1841 1840
f 1843 1844 1845
f 1843 1845 1846
f 1844 1847 1848
f 1844 1848 1845
f 1847 1849 1850
f 1847 1850 1848
f 1849 1842 1841
f 1849 1841 1850
f 1851 1852 1853
f 1851 1853 1854
f 1855 1852 1851
f 1853 1856 1857
f 1858 1853 1857
f 1857 1856 1859
f 1836 1854 1335
f 1836 1335 1334
f 1333 1858 1846
f 1332 1333 1846
f 1338 1835 1853
f 1337 1338 1853
f 1843 1336 1337
f 1853 1843 1337
f 1860 1861 1862
f 1863 1860 1862
f 1864 1865 1861
f 1860 1864 1861
f 1866 1867 1865
f 1864 1866 1865
f 1868 1869 1867
f 1866 1868 1867
f 1870 1871 1872
f 1870 1872 1873
f 1871 1874 1875
f 1871 1875 1872
f 1874 1876 1877
f 1874 1877 1875
f 1876 1869 1868
f 1876 1868 1877
f 1878 1879 1880
f 1878 1880 1881
f 1882 1879 1878
f 1880 1883 1884
f 1885 1880 1884
f 1884 1883 1886
f 1863 1881 1301
f 1863 1301 1300
f 1299 1885 1873
f 1298 1299 1873
f 1304 1862 1880
f 1303 1304 1880
f 1870 1302 1303
f 1880 1870 1303
f 1887 1888 1889
f 1890 1887 1889
f 1891 1892 1888
f 1887 1891 1888
f 1893 1894 1892
f 1891 1893 1892
f 1895 1896 1894
f 1893 1895 1894
f 1897 1898 1899
f 1897 1899 1900
f 1898 1901 1902
f 1898 1902 1899
f 1901 1903 1904
f 1901 1904 1902
f 1903 1896 1895
f 1903 1895 1904
f 1905 1906 1907
f 1905 1907 1908
f 1909 1906 1905
f 1907 1910 1911
f 1912 1907 1911
f 1911 1910 1913
f 1267 1890 1908
f 1266 1267 1908
f 1912 1900 1265
f 1912 1265 1264
f 1270 1889 1907
f 1269 1270 1907
f 1897 1268 1269
f 1907 1897 1269
f 1914 1915 1916
f 1917 1914 1916
f 1918 1919 1915
f 1914 1918 1915
f 1920 1921 1919
f 1918 1920 1919
f 1922 1923 1921
f 1920 1922 1921
f 1924 1925 1926
f 1924 1926 1927
f 1925 1928 1929
f 1925 1929 1926
f 1928 1930 1931
f 1928 1931 1929
f 1930 1923 1922
f 1930 1922 1931
f 1932 1933 1934
f 1932 1934 1935
f 1936 1933 1932
f 1934 1937 1938
f 1939 1934 1938
f 1938 1937 1940
f 1233 1917 1935
f 1232 1233 1935
f 1939 1927 1231
f 1939 1231 1230
f 1236 1916 1934
f 1235 1236 1934
f 1924 1234 1235
f 1934 1924 1235
f 1336 1941 1942
f 1345 1336 1942
f 1345 1942 1943
f 1343 1345 1943
f 1343 1943 1944
f 1341 1343 1944
f 1341 1944 1945
f 1236 1341 1945
f 1941 1946 1947
f 1942 1941 1947
f 1942 1947 1948
f 1943 1942 1948
f 1943 1948 1949
f 1944 1943 1949
f 1944 1949 1950
f 1945 1944 1950
f 1268 1951 1952
f 1358 1268 1952
f 1358 1952 1953
f 1356 1358 1953
f 1356 1953 1954
f 1354 1356 1954
f 1354 1954 1955
f 1304 1354 1955
f 1951 1956 1957
f 1952 1951 1957
f 1952 1957 1958
f 1953 1952 1958
f 1953 1958 1959
f 1954 1953 1959
f 1954 1959 1960
f 1955 1954 1960
