# Botball Lab: metres, +Y up, centred XZ, base Y=0
s off
v 0.0112000 0.0020381 -0.0022172
v 0.0086000 0.0020381 -0.0022172
v 0.0086000 0.0025565 -0.0023204
v 0.0112000 0.0025565 -0.0023204
v 0.0112000 0.0025565 0.0023204
v 0.0086000 0.0025565 0.0023204
v 0.0086000 0.0020381 0.0022172
v 0.0112000 0.0020381 0.0022172
v 0.0112000 0.0038749 0.0022172
v 0.0086000 0.0038749 0.0022172
v 0.0086000 0.0033565 0.0023204
v 0.0112000 0.0033565 0.0023204
v 0.0112000 0.0033565 -0.0023204
v 0.0086000 0.0033565 -0.0023204
v 0.0086000 0.0038749 -0.0022172
v 0.0112000 0.0038749 -0.0022172
v 0.0112000 0.0019613 -0.0024020
v 0.0112000 0.0025565 -0.0025204
v 0.0112000 0.0025565 0.0025204
v 0.0112000 0.0019613 0.0024020
v 0.0112000 0.0039517 0.0024020
v 0.0112000 0.0033565 0.0025204
v 0.0112000 0.0033565 -0.0025204
v 0.0112000 0.0039517 -0.0024020
v 0.0120000 0.0019613 -0.0024020
v 0.0120000 0.0025565 -0.0025204
v 0.0120000 0.0025565 0.0025204
v 0.0120000 0.0019613 0.0024020
v 0.0120000 0.0039517 0.0024020
v 0.0120000 0.0033565 0.0025204
v 0.0120000 0.0033565 -0.0025204
v 0.0120000 0.0039517 -0.0024020
v 0.0112000 0.0025565 -0.0015204
v 0.0090000 0.0025565 -0.0023204
v 0.0090000 0.0025565 -0.0015204
v 0.0120000 0.0025565 -0.0015204
v 0.0120000 0.0023441 -0.0014784
v 0.0120000 0.0025565 0.0015204
v 0.0120000 0.0023441 0.0014784
v 0.0112000 0.0025565 0.0015204
v 0.0090000 0.0025565 0.0023204
v 0.0090000 0.0025565 0.0015204
v 0.0112000 0.0033565 0.0015204
v 0.0090000 0.0033565 0.0023204
v 0.0090000 0.0033565 0.0015204
v 0.0120000 0.0033565 0.0015204
v 0.0120000 0.0035689 0.0014784
v 0.0120000 0.0033565 -0.0015204
v 0.0120000 0.0035689 -0.0014784
v 0.0112000 0.0033565 -0.0015204
v 0.0090000 0.0033565 -0.0023204
v 0.0090000 0.0033565 -0.0015204
v 0.0086000 0.0023441 -0.0014784
v 0.0086000 0.0025565 -0.0015204
v 0.0086000 0.0025565 0.0015204
v 0.0086000 0.0023441 0.0014784
v 0.0086000 0.0035689 0.0014784
v 0.0086000 0.0033565 0.0015204
v 0.0086000 0.0033565 -0.0015204
v 0.0086000 0.0035689 -0.0014784
v 0.0086000 0.0020380 -0.0022174
v 0.0040000 0.0020380 -0.0022174
v 0.0040000 0.0029565 -0.0024000
v 0.0086000 0.0029565 -0.0024000
v 0.0086000 0.0012594 -0.0016970
v 0.0040000 0.0012594 -0.0016970
v 0.0086000 0.0007391 -0.0009185
v 0.0040000 0.0007391 -0.0009185
v 0.0086000 0.0005565 -0.0000000
v 0.0040000 0.0005565 -0.0000000
v 0.0086000 0.0007391 0.0009185
v 0.0040000 0.0007391 0.0009185
v 0.0086000 0.0012594 0.0016970
v 0.0040000 0.0012594 0.0016970
v 0.0086000 0.0020380 0.0022174
v 0.0040000 0.0020380 0.0022174
v 0.0086000 0.0029565 0.0024000
v 0.0040000 0.0029565 0.0024000
v 0.0086000 0.0038750 0.0022174
v 0.0040000 0.0038750 0.0022174
v 0.0086000 0.0046535 0.0016970
v 0.0040000 0.0046535 0.0016970
v 0.0086000 0.0051738 0.0009185
v 0.0040000 0.0051738 0.0009185
v 0.0086000 0.0053565 -0.0000000
v 0.0040000 0.0053565 -0.0000000
v 0.0086000 0.0051738 -0.0009185
v 0.0040000 0.0051738 -0.0009185
v 0.0086000 0.0046535 -0.0016970
v 0.0040000 0.0046535 -0.0016970
v 0.0086000 0.0038750 -0.0022174
v 0.0040000 0.0038750 -0.0022174
v 0.0112000 0.0038749 0.0022173
v 0.0112000 0.0046536 0.0016971
v 0.0086000 0.0046536 0.0016971
v 0.0086000 0.0038749 0.0022173
v 0.0112000 0.0051738 0.0009184
v 0.0086000 0.0051738 0.0009184
v 0.0112000 0.0053565 0.0000000
v 0.0112000 0.0051738 -0.0009184
v 0.0086000 0.0051738 -0.0009184
v 0.0112000 0.0046536 -0.0016971
v 0.0086000 0.0046536 -0.0016971
v 0.0112000 0.0038749 -0.0022173
v 0.0086000 0.0038749 -0.0022173
v 0.0112000 0.0020380 -0.0022173
v 0.0112000 0.0012594 -0.0016971
v 0.0086000 0.0012594 -0.0016971
v 0.0086000 0.0020380 -0.0022173
v 0.0112000 0.0007392 -0.0009184
v 0.0086000 0.0007392 -0.0009184
v 0.0112000 0.0005564 -0.0000000
v 0.0086000 0.0005564 -0.0000000
v 0.0112000 0.0007392 0.0009184
v 0.0086000 0.0007392 0.0009184
v 0.0112000 0.0012594 0.0016971
v 0.0086000 0.0012594 0.0016971
v 0.0112000 0.0020380 0.0022173
v 0.0086000 0.0020380 0.0022173
v 0.0120000 0.0019615 -0.0024021
v 0.0120000 0.0011179 -0.0018385
v 0.0112000 0.0011179 -0.0018385
v 0.0112000 0.0019615 -0.0024021
v 0.0120000 0.0005544 -0.0009950
v 0.0112000 0.0005544 -0.0009950
v 0.0120000 0.0003564 -0.0000000
v 0.0112000 0.0003564 -0.0000000
v 0.0120000 0.0005544 0.0009950
v 0.0112000 0.0005544 0.0009950
v 0.0120000 0.0011180 0.0018385
v 0.0112000 0.0011180 0.0018385
v 0.0120000 0.0019615 0.0024021
v 0.0112000 0.0019615 0.0024021
v 0.0120000 0.0039515 0.0024021
v 0.0120000 0.0047950 0.0018385
v 0.0112000 0.0047950 0.0018385
v 0.0112000 0.0039515 0.0024021
v 0.0120000 0.0053585 0.0009950
v 0.0112000 0.0053585 0.0009950
v 0.0120000 0.0055565 0.0000000
v 0.0112000 0.0055565 0.0000000
v 0.0120000 0.0053586 -0.0009950
v 0.0112000 0.0053586 -0.0009950
v 0.0120000 0.0047950 -0.0018385
v 0.0112000 0.0047950 -0.0018385
v 0.0120000 0.0039514 -0.0024021
v 0.0112000 0.0039514 -0.0024021
v 0.0040000 0.0029565 -0.0016000
v 0.0040000 0.0023442 -0.0014782
v 0.0086000 0.0023442 -0.0014782
v 0.0086000 0.0029565 -0.0016000
v 0.0040000 0.0018251 -0.0011314
v 0.0086000 0.0018251 -0.0011314
v 0.0040000 0.0014782 -0.0006123
v 0.0086000 0.0014782 -0.0006123
v 0.0040000 0.0013565 -0.0000000
v 0.0086000 0.0013565 -0.0000000
v 0.0040000 0.0014782 0.0006123
v 0.0086000 0.0014782 0.0006123
v 0.0040000 0.0018251 0.0011314
v 0.0086000 0.0018251 0.0011314
v 0.0040000 0.0023442 0.0014782
v 0.0086000 0.0023442 0.0014782
v 0.0040000 0.0029565 0.0016000
v 0.0086000 0.0029565 0.0016000
v 0.0040000 0.0035688 0.0014782
v 0.0086000 0.0035688 0.0014782
v 0.0040000 0.0040878 0.0011314
v 0.0086000 0.0040878 0.0011314
v 0.0040000 0.0044347 0.0006123
v 0.0086000 0.0044347 0.0006123
v 0.0040000 0.0045565 -0.0000000
v 0.0086000 0.0045565 -0.0000000
v 0.0040000 0.0044347 -0.0006123
v 0.0086000 0.0044347 -0.0006123
v 0.0040000 0.0040878 -0.0011314
v 0.0086000 0.0040878 -0.0011314
v 0.0040000 0.0035688 -0.0014782
v 0.0086000 0.0035688 -0.0014782
v 0.0120000 0.0018251 -0.0011314
v 0.0120000 0.0023442 -0.0014782
v 0.0086000 0.0014783 -0.0006123
v 0.0120000 0.0014783 -0.0006123
v 0.0086000 0.0013564 -0.0000000
v 0.0120000 0.0013564 -0.0000000
v 0.0086000 0.0014783 0.0006123
v 0.0120000 0.0014783 0.0006123
v 0.0120000 0.0018251 0.0011314
v 0.0120000 0.0023442 0.0014782
v 0.0086000 0.0040879 0.0011314
v 0.0120000 0.0040879 0.0011314
v 0.0120000 0.0035688 0.0014782
v 0.0120000 0.0044347 0.0006123
v 0.0120000 0.0045565 0.0000000
v 0.0120000 0.0044347 -0.0006123
v 0.0086000 0.0040879 -0.0011314
v 0.0120000 0.0040879 -0.0011314
v 0.0120000 0.0035688 -0.0014782
v 0.0120000 0.0012594 -0.0016971
v 0.0120000 0.0020380 -0.0022173
v 0.0120000 0.0007392 -0.0009184
v 0.0120000 0.0005564 -0.0000000
v 0.0120000 0.0007392 0.0009184
v 0.0120000 0.0012594 0.0016971
v 0.0120000 0.0020380 0.0022173
v 0.0120000 0.0046536 0.0016971
v 0.0120000 0.0038749 0.0022173
v 0.0120000 0.0051738 0.0009184
v 0.0120000 0.0053565 0.0000000
v 0.0120000 0.0051738 -0.0009184
v 0.0120000 0.0046536 -0.0016971
v 0.0120000 0.0038749 -0.0022173
v 0.0086304 0.0028034 0.0023695
v 0.0087172 0.0026736 0.0023437
v 0.0088469 0.0025869 0.0023265
v 0.0086304 0.0031096 0.0023695
v 0.0087172 0.0032393 0.0023437
v 0.0088469 0.0033260 0.0023265
v 0.0086304 0.0031096 -0.0023695
v 0.0087172 0.0032393 -0.0023437
v 0.0088469 0.0033260 -0.0023265
v 0.0086304 0.0028034 -0.0023695
v 0.0087172 0.0026736 -0.0023437
v 0.0088469 0.0025869 -0.0023265
v 0.0086304 0.0028034 0.0015695
v 0.0087172 0.0026736 0.0015437
v 0.0088469 0.0025869 0.0015265
v 0.0086304 0.0031096 0.0015695
v 0.0087172 0.0032393 0.0015437
v 0.0088469 0.0033260 0.0015265
v 0.0086304 0.0031096 -0.0015695
v 0.0087172 0.0032393 -0.0015437
v 0.0088469 0.0033260 -0.0015265
v 0.0086304 0.0028034 -0.0015695
v 0.0087172 0.0026736 -0.0015437
v 0.0088469 0.0025869 -0.0015265
v -0.0086000 0.0025565 -0.0023204
v -0.0086000 0.0020381 -0.0022172
v -0.0112000 0.0020381 -0.0022172
v -0.0112000 0.0025565 -0.0023204
v -0.0086000 0.0020381 0.0022172
v -0.0086000 0.0025565 0.0023204
v -0.0112000 0.0025565 0.0023204
v -0.0112000 0.0020381 0.0022172
v -0.0086000 0.0033565 0.0023204
v -0.0086000 0.0038749 0.0022172
v -0.0112000 0.0038749 0.0022172
v -0.0112000 0.0033565 0.0023204
v -0.0086000 0.0038749 -0.0022172
v -0.0086000 0.0033565 -0.0023204
v -0.0112000 0.0033565 -0.0023204
v -0.0112000 0.0038749 -0.0022172
v -0.0112000 0.0019613 -0.0024020
v -0.0112000 0.0025565 -0.0025204
v -0.0112000 0.0025565 0.0025204
v -0.0112000 0.0019613 0.0024020
v -0.0112000 0.0039517 0.0024020
v -0.0112000 0.0033565 0.0025204
v -0.0112000 0.0033565 -0.0025204
v -0.0112000 0.0039517 -0.0024020
v -0.0120000 0.0019613 -0.0024020
v -0.0120000 0.0025565 -0.0025204
v -0.0120000 0.0025565 0.0025204
v -0.0120000 0.0019613 0.0024020
v -0.0120000 0.0039517 0.0024020
v -0.0120000 0.0033565 0.0025204
v -0.0120000 0.0033565 -0.0025204
v -0.0120000 0.0039517 -0.0024020
v -0.0090000 0.0025565 -0.0023204
v -0.0112000 0.0025565 -0.0015204
v -0.0090000 0.0025565 -0.0015204
v -0.0120000 0.0025565 -0.0015204
v -0.0120000 0.0023441 -0.0014784
v -0.0120000 0.0025565 0.0015204
v -0.0120000 0.0023441 0.0014784
v -0.0112000 0.0025565 0.0015204
v -0.0090000 0.0025565 0.0023204
v -0.0090000 0.0025565 0.0015204
v -0.0090000 0.0033565 0.0023204
v -0.0112000 0.0033565 0.0015204
v -0.0090000 0.0033565 0.0015204
v -0.0120000 0.0033565 0.0015204
v -0.0120000 0.0035689 0.0014784
v -0.0120000 0.0033565 -0.0015204
v -0.0120000 0.0035689 -0.0014784
v -0.0112000 0.0033565 -0.0015204
v -0.0090000 0.0033565 -0.0023204
v -0.0090000 0.0033565 -0.0015204
v -0.0086000 0.0023441 -0.0014784
v -0.0086000 0.0025565 -0.0015204
v -0.0086000 0.0025565 0.0015204
v -0.0086000 0.0023441 0.0014784
v -0.0086000 0.0035689 0.0014784
v -0.0086000 0.0033565 0.0015204
v -0.0086000 0.0033565 -0.0015204
v -0.0086000 0.0035689 -0.0014784
v -0.0040000 0.0029565 -0.0024000
v -0.0040000 0.0020380 -0.0022174
v -0.0086000 0.0020380 -0.0022174
v -0.0086000 0.0029565 -0.0024000
v -0.0040000 0.0012594 -0.0016970
v -0.0086000 0.0012594 -0.0016970
v -0.0040000 0.0007391 -0.0009185
v -0.0086000 0.0007391 -0.0009185
v -0.0040000 0.0005565 -0.0000000
v -0.0086000 0.0005565 -0.0000000
v -0.0040000 0.0007391 0.0009185
v -0.0086000 0.0007391 0.0009185
v -0.0040000 0.0012594 0.0016970
v -0.0086000 0.0012594 0.0016970
v -0.0040000 0.0020380 0.0022174
v -0.0086000 0.0020380 0.0022174
v -0.0040000 0.0029565 0.0024000
v -0.0086000 0.0029565 0.0024000
v -0.0040000 0.0038750 0.0022174
v -0.0086000 0.0038750 0.0022174
v -0.0040000 0.0046535 0.0016970
v -0.0086000 0.0046535 0.0016970
v -0.0040000 0.0051738 0.0009185
v -0.0086000 0.0051738 0.0009185
v -0.0040000 0.0053565 -0.0000000
v -0.0086000 0.0053565 -0.0000000
v -0.0040000 0.0051738 -0.0009185
v -0.0086000 0.0051738 -0.0009185
v -0.0040000 0.0046535 -0.0016970
v -0.0086000 0.0046535 -0.0016970
v -0.0040000 0.0038750 -0.0022174
v -0.0086000 0.0038750 -0.0022174
v -0.0086000 0.0046536 0.0016971
v -0.0112000 0.0046536 0.0016971
v -0.0112000 0.0038749 0.0022173
v -0.0086000 0.0038749 0.0022173
v -0.0086000 0.0051738 0.0009184
v -0.0112000 0.0051738 0.0009184
v -0.0112000 0.0053565 0.0000000
v -0.0086000 0.0051738 -0.0009184
v -0.0112000 0.0051738 -0.0009184
v -0.0086000 0.0046536 -0.0016971
v -0.0112000 0.0046536 -0.0016971
v -0.0086000 0.0038749 -0.0022173
v -0.0112000 0.0038749 -0.0022173
v -0.0086000 0.0012594 -0.0016971
v -0.0112000 0.0012594 -0.0016971
v -0.0112000 0.0020380 -0.0022173
v -0.0086000 0.0020380 -0.0022173
v -0.0086000 0.0007392 -0.0009184
v -0.0112000 0.0007392 -0.0009184
v -0.0086000 0.0005564 -0.0000000
v -0.0112000 0.0005564 -0.0000000
v -0.0086000 0.0007392 0.0009184
v -0.0112000 0.0007392 0.0009184
v -0.0086000 0.0012594 0.0016971
v -0.0112000 0.0012594 0.0016971
v -0.0086000 0.0020380 0.0022173
v -0.0112000 0.0020380 0.0022173
v -0.0112000 0.0011179 -0.0018385
v -0.0120000 0.0011179 -0.0018385
v -0.0120000 0.0019615 -0.0024021
v -0.0112000 0.0019615 -0.0024021
v -0.0112000 0.0005544 -0.0009950
v -0.0120000 0.0005544 -0.0009950
v -0.0112000 0.0003564 -0.0000000
v -0.0120000 0.0003564 -0.0000000
v -0.0112000 0.0005544 0.0009950
v -0.0120000 0.0005544 0.0009950
v -0.0112000 0.0011180 0.0018385
v -0.0120000 0.0011180 0.0018385
v -0.0112000 0.0019615 0.0024021
v -0.0120000 0.0019615 0.0024021
v -0.0112000 0.0047950 0.0018385
v -0.0120000 0.0047950 0.0018385
v -0.0120000 0.0039515 0.0024021
v -0.0112000 0.0039515 0.0024021
v -0.0112000 0.0053585 0.0009950
v -0.0120000 0.0053585 0.0009950
v -0.0112000 0.0055565 0.0000000
v -0.0120000 0.0055565 0.0000000
v -0.0112000 0.0053586 -0.0009950
v -0.0120000 0.0053586 -0.0009950
v -0.0112000 0.0047950 -0.0018385
v -0.0120000 0.0047950 -0.0018385
v -0.0112000 0.0039514 -0.0024021
v -0.0120000 0.0039514 -0.0024021
v -0.0086000 0.0023442 -0.0014782
v -0.0040000 0.0023442 -0.0014782
v -0.0040000 0.0029565 -0.0016000
v -0.0086000 0.0029565 -0.0016000
v -0.0086000 0.0018251 -0.0011314
v -0.0040000 0.0018251 -0.0011314
v -0.0086000 0.0014782 -0.0006123
v -0.0040000 0.0014782 -0.0006123
v -0.0086000 0.0013565 -0.0000000
v -0.0040000 0.0013565 -0.0000000
v -0.0086000 0.0014782 0.0006123
v -0.0040000 0.0014782 0.0006123
v -0.0086000 0.0018251 0.0011314
v -0.0040000 0.0018251 0.0011314
v -0.0086000 0.0023442 0.0014782
v -0.0040000 0.0023442 0.0014782
v -0.0086000 0.0029565 0.0016000
v -0.0040000 0.0029565 0.0016000
v -0.0086000 0.0035688 0.0014782
v -0.0040000 0.0035688 0.0014782
v -0.0086000 0.0040878 0.0011314
v -0.0040000 0.0040878 0.0011314
v -0.0086000 0.0044347 0.0006123
v -0.0040000 0.0044347 0.0006123
v -0.0086000 0.0045565 -0.0000000
v -0.0040000 0.0045565 -0.0000000
v -0.0086000 0.0044347 -0.0006123
v -0.0040000 0.0044347 -0.0006123
v -0.0086000 0.0040878 -0.0011314
v -0.0040000 0.0040878 -0.0011314
v -0.0086000 0.0035688 -0.0014782
v -0.0040000 0.0035688 -0.0014782
v -0.0120000 0.0023442 -0.0014782
v -0.0120000 0.0018251 -0.0011314
v -0.0120000 0.0014783 -0.0006123
v -0.0086000 0.0014783 -0.0006123
v -0.0120000 0.0013564 -0.0000000
v -0.0086000 0.0013564 -0.0000000
v -0.0120000 0.0014783 0.0006123
v -0.0086000 0.0014783 0.0006123
v -0.0120000 0.0018251 0.0011314
v -0.0120000 0.0023442 0.0014782
v -0.0120000 0.0035688 0.0014782
v -0.0120000 0.0040879 0.0011314
v -0.0086000 0.0040879 0.0011314
v -0.0120000 0.0044347 0.0006123
v -0.0120000 0.0045565 0.0000000
v -0.0120000 0.0044347 -0.0006123
v -0.0120000 0.0040879 -0.0011314
v -0.0086000 0.0040879 -0.0011314
v -0.0120000 0.0035688 -0.0014782
v -0.0120000 0.0020380 -0.0022173
v -0.0120000 0.0012594 -0.0016971
v -0.0120000 0.0007392 -0.0009184
v -0.0120000 0.0005564 -0.0000000
v -0.0120000 0.0007392 0.0009184
v -0.0120000 0.0012594 0.0016971
v -0.0120000 0.0020380 0.0022173
v -0.0120000 0.0038749 0.0022173
v -0.0120000 0.0046536 0.0016971
v -0.0120000 0.0051738 0.0009184
v -0.0120000 0.0053565 0.0000000
v -0.0120000 0.0051738 -0.0009184
v -0.0120000 0.0046536 -0.0016971
v -0.0120000 0.0038749 -0.0022173
v -0.0086304 0.0028034 0.0023695
v -0.0087172 0.0026736 0.0023437
v -0.0088469 0.0025869 0.0023265
v -0.0086304 0.0031096 0.0023695
v -0.0087172 0.0032393 0.0023437
v -0.0088469 0.0033260 0.0023265
v -0.0086304 0.0031096 -0.0023695
v -0.0087172 0.0032393 -0.0023437
v -0.0088469 0.0033260 -0.0023265
v -0.0086304 0.0028034 -0.0023695
v -0.0087172 0.0026736 -0.0023437
v -0.0088469 0.0025869 -0.0023265
v -0.0086304 0.0028034 0.0015695
v -0.0087172 0.0026736 0.0015437
v -0.0088469 0.0025869 0.0015265
v -0.0086304 0.0031096 0.0015695
v -0.0087172 0.0032393 0.0015437
v -0.0088469 0.0033260 0.0015265
v -0.0086304 0.0031096 -0.0015695
v -0.0087172 0.0032393 -0.0015437
v -0.0088469 0.0033260 -0.0015265
v -0.0086304 0.0028034 -0.0015695
v -0.0087172 0.0026736 -0.0015437
v -0.0088469 0.0025869 -0.0015265
v -0.0032000 0.0059130 -0.0012246
v -0.0032000 0.0061565 -0.0000000
v -0.0032000 0.0053565 -0.0000000
v -0.0032000 0.0051738 -0.0009185
v -0.0032000 0.0052192 -0.0022627
v -0.0032000 0.0046535 -0.0016970
v -0.0032000 0.0041811 -0.0029565
v -0.0032000 0.0038750 -0.0022174
v -0.0032000 0.0029565 -0.0032000
v -0.0032000 0.0029565 -0.0024000
v -0.0032000 0.0017318 -0.0029565
v -0.0032000 0.0020380 -0.0022174
v -0.0032000 0.0006938 -0.0022627
v -0.0032000 0.0012594 -0.0016970
v -0.0032000 0.0000000 -0.0012246
v -0.0032000 0.0007391 -0.0009185
v -0.0048000 0.0061565 -0.0000000
v -0.0048000 0.0059130 -0.0012246
v -0.0048000 0.0052192 -0.0022627
v -0.0048000 0.0041811 -0.0029565
v -0.0048000 0.0029565 -0.0032000
v -0.0048000 0.0017318 -0.0029565
v -0.0048000 0.0006938 -0.0022627
v -0.0048000 0.0000000 -0.0012246
v -0.0048000 0.0053565 -0.0000000
v -0.0048000 0.0051738 -0.0009185
v -0.0048000 0.0046535 -0.0016970
v -0.0048000 0.0038750 -0.0022174
v -0.0048000 0.0029565 -0.0024000
v -0.0048000 0.0020380 -0.0022174
v -0.0048000 0.0012594 -0.0016970
v -0.0048000 0.0007391 -0.0009185
v -0.0032000 0.0059130 0.0012246
v -0.0032000 0.0051738 0.0009185
v -0.0032000 0.0052192 0.0022627
v -0.0032000 0.0046535 0.0016970
v -0.0032000 0.0041811 0.0029565
v -0.0032000 0.0038750 0.0022174
v -0.0032000 0.0029565 0.0032000
v -0.0032000 0.0029565 0.0024000
v -0.0032000 0.0017318 0.0029565
v -0.0032000 0.0020380 0.0022174
v -0.0032000 0.0006938 0.0022627
v -0.0032000 0.0012594 0.0016970
v -0.0032000 0.0000000 0.0012246
v -0.0032000 0.0007391 0.0009185
v -0.0048000 0.0059130 0.0012246
v -0.0048000 0.0052192 0.0022627
v -0.0048000 0.0041811 0.0029565
v -0.0048000 0.0029565 0.0032000
v -0.0048000 0.0017318 0.0029565
v -0.0048000 0.0006938 0.0022627
v -0.0048000 0.0000000 0.0012246
v -0.0048000 0.0051738 0.0009185
v -0.0048000 0.0046535 0.0016970
v -0.0048000 0.0038750 0.0022174
v -0.0048000 0.0029565 0.0024000
v -0.0048000 0.0020380 0.0022174
v -0.0048000 0.0012594 0.0016970
v -0.0048000 0.0007391 0.0009185
v -0.0020000 0.0007391 -0.0009185
v -0.0020000 0.0005565 -0.0000000
v -0.0032000 0.0005565 -0.0000000
v -0.0020000 0.0012594 -0.0016970
v -0.0020000 0.0020380 -0.0022174
v -0.0020000 0.0029565 -0.0024000
v -0.0020000 0.0038750 -0.0022174
v -0.0020000 0.0046535 -0.0016970
v -0.0020000 0.0051738 -0.0009185
v -0.0020000 0.0053565 -0.0000000
v -0.0020000 0.0051738 0.0009185
v -0.0020000 0.0046535 0.0016970
v -0.0020000 0.0038750 0.0022174
v -0.0020000 0.0029565 0.0024000
v -0.0020000 0.0020380 0.0022174
v -0.0020000 0.0012594 0.0016970
v -0.0020000 0.0007391 0.0009185
v 0.0020000 0.0007391 -0.0009185
v 0.0020000 0.0005565 -0.0000000
v 0.0020000 0.0012594 -0.0016970
v 0.0020000 0.0020380 -0.0022174
v 0.0020000 0.0029565 -0.0024000
v 0.0020000 0.0038750 -0.0022174
v 0.0020000 0.0046535 -0.0016970
v 0.0020000 0.0051738 -0.0009185
v 0.0020000 0.0053565 -0.0000000
v 0.0020000 0.0051738 0.0009185
v 0.0020000 0.0046535 0.0016970
v 0.0020000 0.0038750 0.0022174
v 0.0020000 0.0029565 0.0024000
v 0.0020000 0.0020380 0.0022174
v 0.0020000 0.0012594 0.0016970
v 0.0020000 0.0007391 0.0009185
v 0.0035600 0.0008917 -0.0012879
v 0.0036800 0.0007390 -0.0009185
v 0.0032000 0.0009656 -0.0012574
v 0.0040000 0.0008732 -0.0012958
v 0.0043200 0.0007390 -0.0009185
v 0.0044400 0.0008917 -0.0012879
v 0.0048000 0.0009656 -0.0012574
v 0.0032000 0.0020380 -0.0022173
v 0.0032000 0.0029565 -0.0024000
v 0.0035600 0.0029565 -0.0024800
v 0.0035600 0.0020074 -0.0022912
v 0.0032000 0.0012595 -0.0016970
v 0.0035600 0.0012027 -0.0017536
v 0.0040000 0.0029565 -0.0025000
v 0.0040000 0.0019997 -0.0023096
v 0.0040000 0.0011887 -0.0017676
v 0.0044400 0.0020074 -0.0022912
v 0.0044400 0.0012027 -0.0017536
v 0.0048000 0.0020380 -0.0022173
v 0.0048000 0.0012595 -0.0016970
v 0.0044400 0.0029565 -0.0024800
v 0.0048000 0.0029565 -0.0024000
v 0.0036800 0.0051740 -0.0009185
v 0.0035600 0.0050213 -0.0012879
v 0.0032000 0.0049474 -0.0012574
v 0.0040000 0.0050398 -0.0012958
v 0.0043200 0.0051740 -0.0009185
v 0.0044400 0.0050213 -0.0012879
v 0.0048000 0.0049474 -0.0012574
v 0.0032000 0.0038749 -0.0022173
v 0.0035600 0.0039056 -0.0022912
v 0.0035600 0.0047102 -0.0017536
v 0.0032000 0.0046534 -0.0016970
v 0.0040000 0.0039132 -0.0023096
v 0.0040000 0.0047243 -0.0017676
v 0.0044400 0.0047102 -0.0017536
v 0.0044400 0.0039056 -0.0022912
v 0.0048000 0.0046534 -0.0016970
v 0.0048000 0.0038749 -0.0022173
v 0.0032000 0.0009656 0.0012574
v 0.0036800 0.0007390 0.0009185
v 0.0035600 0.0008917 0.0012879
v 0.0040000 0.0008732 0.0012958
v 0.0043200 0.0007390 0.0009185
v 0.0044400 0.0008917 0.0012879
v 0.0048000 0.0009656 0.0012574
v 0.0035600 0.0029565 0.0024800
v 0.0032000 0.0029565 0.0024000
v 0.0032000 0.0020380 0.0022173
v 0.0035600 0.0020074 0.0022912
v 0.0035600 0.0012027 0.0017536
v 0.0032000 0.0012595 0.0016970
v 0.0040000 0.0029565 0.0025000
v 0.0040000 0.0019997 0.0023096
v 0.0040000 0.0011887 0.0017676
v 0.0044400 0.0012027 0.0017536
v 0.0044400 0.0020074 0.0022912
v 0.0048000 0.0012595 0.0016970
v 0.0048000 0.0020380 0.0022173
v 0.0044400 0.0029565 0.0024800
v 0.0048000 0.0029565 0.0024000
v 0.0032000 0.0049474 0.0012574
v 0.0035600 0.0050213 0.0012879
v 0.0036800 0.0051740 0.0009185
v 0.0040000 0.0050398 0.0012958
v 0.0043200 0.0051740 0.0009185
v 0.0044400 0.0050213 0.0012879
v 0.0048000 0.0049474 0.0012574
v 0.0032000 0.0038749 0.0022173
v 0.0035600 0.0039056 0.0022912
v 0.0032000 0.0046534 0.0016970
v 0.0035600 0.0047102 0.0017536
v 0.0040000 0.0039132 0.0023096
v 0.0040000 0.0047243 0.0017676
v 0.0044400 0.0039056 0.0022912
v 0.0044400 0.0047102 0.0017536
v 0.0048000 0.0038749 0.0022173
v 0.0048000 0.0046534 0.0016970
v 0.0018828 0.0053002 0.0002828
v 0.0020000 0.0052769 0.0004000
v 0.0016000 0.0052769 0.0004000
v 0.0000000 0.0038750 0.0022174
v 0.0000000 0.0029565 0.0024000
v 0.0000000 0.0046535 0.0016970
v 0.0000000 0.0051738 0.0009185
v 0.0000000 0.0052769 0.0004000
v 0.0020000 0.0043565 -0.0000000
v 0.0018828 0.0043002 0.0002828
v 0.0016000 0.0042769 0.0004000
v 0.0020000 0.0042769 0.0004000
v 0.0000000 0.0029565 0.0014000
v 0.0000000 0.0034923 0.0012935
v 0.0020000 0.0034923 0.0012935
v 0.0020000 0.0029565 0.0014000
v 0.0000000 0.0039464 0.0009899
v 0.0020000 0.0039464 0.0009899
v 0.0000000 0.0042499 0.0005358
v 0.0020000 0.0042499 0.0005358
v 0.0000000 0.0042769 0.0004000
v 0.0020000 0.0042500 0.0005358
v 0.0000000 0.0042500 0.0005358
v 0.0020000 0.0052769 -0.0004000
v 0.0018828 0.0053002 -0.0002828
v 0.0016000 0.0052769 -0.0004000
v 0.0000000 0.0029565 -0.0024000
v 0.0000000 0.0038750 -0.0022174
v 0.0000000 0.0046535 -0.0016970
v 0.0000000 0.0051738 -0.0009185
v 0.0000000 0.0052769 -0.0004000
v 0.0018828 0.0043002 -0.0002828
v 0.0016000 0.0042769 -0.0004000
v 0.0020000 0.0042769 -0.0004000
v 0.0020000 0.0034923 -0.0012935
v 0.0000000 0.0034923 -0.0012935
v 0.0000000 0.0029565 -0.0014000
v 0.0020000 0.0029565 -0.0014000
v 0.0020000 0.0039464 -0.0009899
v 0.0000000 0.0039464 -0.0009899
v 0.0020000 0.0042499 -0.0005358
v 0.0000000 0.0042499 -0.0005358
v 0.0020000 0.0042500 -0.0005358
v 0.0000000 0.0042769 -0.0004000
v 0.0000000 0.0042500 -0.0005358
v -0.0020000 0.0052769 0.0004000
v -0.0018828 0.0053002 0.0002828
v -0.0016000 0.0052769 0.0004000
v -0.0020000 0.0043565 -0.0000000
v -0.0018828 0.0043002 0.0002828
v -0.0016000 0.0042769 0.0004000
v -0.0020000 0.0042769 0.0004000
v -0.0020000 0.0034923 0.0012935
v -0.0020000 0.0029565 0.0014000
v -0.0020000 0.0039464 0.0009899
v -0.0020000 0.0042499 0.0005358
v -0.0020000 0.0042500 0.0005358
v -0.0018828 0.0053002 -0.0002828
v -0.0020000 0.0052769 -0.0004000
v -0.0016000 0.0052769 -0.0004000
v -0.0018828 0.0043002 -0.0002828
v -0.0016000 0.0042769 -0.0004000
v -0.0020000 0.0042769 -0.0004000
v -0.0020000 0.0034923 -0.0012935
v -0.0020000 0.0029565 -0.0014000
v -0.0020000 0.0039464 -0.0009899
v -0.0020000 0.0042499 -0.0005358
v -0.0020000 0.0042500 -0.0005358
v 0.0000000 0.0020380 -0.0022174
v 0.0000000 0.0012594 -0.0016970
v 0.0000000 0.0007391 -0.0009185
v 0.0000000 0.0005565 -0.0000000
v 0.0000000 0.0007391 0.0009185
v 0.0000000 0.0012594 0.0016970
v 0.0000000 0.0020380 0.0022174
v 0.0040000 0.0016630 -0.0005358
v 0.0020000 0.0016630 -0.0005358
v 0.0020000 0.0015565 -0.0000000
v 0.0040000 0.0015565 -0.0000000
v 0.0040000 0.0019665 -0.0009899
v 0.0020000 0.0019665 -0.0009899
v 0.0040000 0.0024207 -0.0012935
v 0.0020000 0.0024207 -0.0012935
v 0.0040000 0.0029565 -0.0014000
v 0.0040000 0.0034923 -0.0012935
v 0.0040000 0.0039464 -0.0009899
v 0.0040000 0.0042499 -0.0005358
v 0.0040000 0.0043565 -0.0000000
v 0.0040000 0.0042499 0.0005358
v 0.0040000 0.0039464 0.0009899
v 0.0040000 0.0034923 0.0012935
v 0.0040000 0.0029565 0.0014000
v 0.0040000 0.0024207 0.0012935
v 0.0020000 0.0024207 0.0012935
v 0.0040000 0.0019665 0.0009899
v 0.0020000 0.0019665 0.0009899
v 0.0040000 0.0016630 0.0005358
v 0.0020000 0.0016630 0.0005358
v -0.0040000 0.0029565 -0.0014000
v -0.0040000 0.0034923 -0.0012935
v -0.0040000 0.0039464 -0.0009899
v -0.0040000 0.0042499 -0.0005358
v -0.0040000 0.0043565 -0.0000000
v -0.0040000 0.0042499 0.0005358
v -0.0040000 0.0039464 0.0009899
v -0.0040000 0.0034923 0.0012935
v -0.0040000 0.0029565 0.0014000
v -0.0040000 0.0024207 0.0012935
v -0.0040000 0.0019665 0.0009899
v -0.0040000 0.0016630 0.0005358
v -0.0040000 0.0015565 -0.0000000
v -0.0040000 0.0016630 -0.0005358
v -0.0040000 0.0019665 -0.0009899
v -0.0040000 0.0024207 -0.0012935
v -0.0020000 0.0015565 -0.0000000
v -0.0020000 0.0016630 -0.0005358
v -0.0020000 0.0019665 -0.0009899
v -0.0020000 0.0024207 -0.0012935
v -0.0020000 0.0024207 0.0012935
v -0.0020000 0.0019665 0.0009899
v -0.0020000 0.0016630 0.0005358
f 1 2 3
f 4 1 3
f 5 6 7
f 8 5 7
f 9 10 11
f 12 9 11
f 13 14 15
f 16 13 15
f 17 1 4
f 18 17 4
f 19 5 8
f 20 19 8
f 21 9 12
f 22 21 12
f 23 13 16
f 24 23 16
f 25 17 18
f 26 25 18
f 27 19 20
f 28 27 20
f 29 21 22
f 30 29 22
f 31 23 24
f 32 31 24
f 33 4 34
f 35 33 34
f 26 18 33
f 36 26 33
f 37 25 26
f 36 37 26
f 38 27 28
f 39 38 28
f 19 27 38
f 40 19 38
f 41 5 40
f 42 41 40
f 43 12 44
f 45 43 44
f 46 30 22
f 43 46 22
f 47 29 30
f 46 47 30
f 48 31 32
f 49 48 32
f 50 23 31
f 48 50 31
f 51 13 50
f 52 51 50
f 53 37 36
f 54 53 36
f 55 38 39
f 56 55 39
f 57 47 46
f 58 57 46
f 59 48 49
f 60 59 49
f 61 62 63
f 64 61 63
f 65 66 62
f 61 65 62
f 67 68 66
f 65 67 66
f 69 70 68
f 67 69 68
f 71 72 70
f 69 71 70
f 73 74 72
f 71 73 72
f 75 76 74
f 73 75 74
f 77 78 76
f 75 77 76
f 79 80 78
f 77 79 78
f 81 82 80
f 79 81 80
f 83 84 82
f 81 83 82
f 85 86 84
f 83 85 84
f 87 88 86
f 85 87 86
f 89 90 88
f 87 89 88
f 91 92 90
f 89 91 90
f 64 63 92
f 91 64 92
f 93 94 95
f 96 93 95
f 94 97 98
f 95 94 98
f 97 99 85
f 98 97 85
f 99 100 101
f 85 99 101
f 100 102 103
f 101 100 103
f 102 104 105
f 103 102 105
f 106 107 108
f 109 106 108
f 107 110 111
f 108 107 111
f 110 112 113
f 111 110 113
f 112 114 115
f 113 112 115
f 114 116 117
f 115 114 117
f 116 118 119
f 117 116 119
f 120 121 122
f 123 120 122
f 121 124 125
f 122 121 125
f 124 126 127
f 125 124 127
f 126 128 129
f 127 126 129
f 128 130 131
f 129 128 131
f 130 132 133
f 131 130 133
f 134 135 136
f 137 134 136
f 135 138 139
f 136 135 139
f 138 140 141
f 139 138 141
f 140 142 143
f 141 140 143
f 142 144 145
f 143 142 145
f 144 146 147
f 145 144 147
f 148 149 150
f 148 150 151
f 149 152 153
f 149 153 150
f 152 154 155
f 152 155 153
f 154 156 157
f 154 157 155
f 156 158 159
f 156 159 157
f 158 160 161
f 158 161 159
f 160 162 163
f 160 163 161
f 162 164 165
f 162 165 163
f 164 166 167
f 164 167 165
f 166 168 169
f 166 169 167
f 168 170 171
f 168 171 169
f 170 172 173
f 170 173 171
f 172 174 175
f 172 175 173
f 174 176 177
f 174 177 175
f 176 178 179
f 176 179 177
f 178 148 151
f 178 151 179
f 153 180 181
f 153 181 150
f 182 183 180
f 182 180 153
f 184 185 183
f 184 183 182
f 186 187 185
f 186 185 184
f 161 188 187
f 161 187 186
f 163 189 188
f 163 188 161
f 190 191 192
f 190 192 167
f 171 193 191
f 171 191 190
f 173 194 193
f 173 193 171
f 175 195 194
f 175 194 173
f 196 197 195
f 196 195 175
f 179 198 197
f 179 197 196
f 180 199 200
f 181 180 200
f 183 201 199
f 180 183 199
f 185 202 201
f 183 185 201
f 187 203 202
f 185 187 202
f 188 204 203
f 187 188 203
f 189 205 204
f 188 189 204
f 191 206 207
f 192 191 207
f 193 208 206
f 191 193 206
f 194 209 208
f 193 194 208
f 195 210 209
f 194 195 209
f 197 211 210
f 195 197 210
f 198 212 211
f 197 198 211
f 123 122 107
f 123 107 106
f 122 125 110
f 122 110 107
f 125 127 112
f 125 112 110
f 127 129 114
f 127 114 112
f 129 131 116
f 129 116 114
f 131 133 118
f 131 118 116
f 137 136 94
f 137 94 93
f 136 139 97
f 136 97 94
f 139 141 99
f 139 99 97
f 141 143 100
f 141 100 99
f 143 145 102
f 143 102 100
f 145 147 104
f 145 104 102
f 199 121 120
f 200 199 120
f 201 124 121
f 199 201 121
f 202 126 124
f 201 202 124
f 203 128 126
f 202 203 126
f 204 130 128
f 203 204 128
f 205 132 130
f 204 205 130
f 206 135 134
f 207 206 134
f 208 138 135
f 206 208 135
f 209 140 138
f 208 209 138
f 210 142 140
f 209 210 140
f 211 144 142
f 210 211 142
f 212 146 144
f 211 212 144
f 213 77 6
f 214 213 6
f 215 214 6
f 41 215 6
f 11 77 216
f 11 216 217
f 11 217 218
f 11 218 44
f 219 64 14
f 220 219 14
f 221 220 14
f 51 221 14
f 3 64 222
f 3 222 223
f 3 223 224
f 3 224 34
f 55 165 225
f 55 225 226
f 55 226 227
f 55 227 42
f 228 165 58
f 229 228 58
f 230 229 58
f 45 230 58
f 59 151 231
f 59 231 232
f 59 232 233
f 59 233 52
f 234 151 54
f 235 234 54
f 236 235 54
f 35 236 54
f 213 225 165
f 77 213 165
f 214 226 225
f 213 214 225
f 215 227 226
f 214 215 226
f 41 42 227
f 215 41 227
f 165 228 216
f 165 216 77
f 228 229 217
f 228 217 216
f 229 230 218
f 229 218 217
f 230 45 44
f 230 44 218
f 219 231 151
f 64 219 151
f 220 232 231
f 219 220 231
f 221 233 232
f 220 221 232
f 51 52 233
f 221 51 233
f 151 234 222
f 151 222 64
f 234 235 223
f 234 223 222
f 235 236 224
f 235 224 223
f 236 35 34
f 236 34 224
f 237 238 239
f 237 239 240
f 241 242 243
f 241 243 244
f 245 246 247
f 245 247 248
f 249 250 251
f 249 251 252
f 240 239 253
f 240 253 254
f 244 243 255
f 244 255 256
f 248 247 257
f 248 257 258
f 252 251 259
f 252 259 260
f 254 253 261
f 254 261 262
f 256 255 263
f 256 263 264
f 258 257 265
f 258 265 266
f 260 259 267
f 260 267 268
f 269 240 270
f 269 270 271
f 270 254 262
f 270 262 272
f 262 261 273
f 262 273 272
f 264 263 274
f 264 274 275
f 274 263 255
f 274 255 276
f 276 243 277
f 276 277 278
f 279 248 280
f 279 280 281
f 258 266 282
f 258 282 280
f 266 265 283
f 266 283 282
f 268 267 284
f 268 284 285
f 267 259 286
f 267 286 284
f 286 251 287
f 286 287 288
f 272 273 289
f 272 289 290
f 275 274 291
f 275 291 292
f 282 283 293
f 282 293 294
f 285 284 295
f 285 295 296
f 297 298 299
f 297 299 300
f 298 301 302
f 298 302 299
f 301 303 304
f 301 304 302
f 303 305 306
f 303 306 304
f 305 307 308
f 305 308 306
f 307 309 310
f 307 310 308
f 309 311 312
f 309 312 310
f 311 313 314
f 311 314 312
f 313 315 316
f 313 316 314
f 315 317 318
f 315 318 316
f 317 319 320
f 317 320 318
f 319 321 322
f 319 322 320
f 321 323 324
f 321 324 322
f 323 325 326
f 323 326 324
f 325 327 328
f 325 328 326
f 327 297 300
f 327 300 328
f 329 330 331
f 329 331 332
f 333 334 330
f 333 330 329
f 322 335 334
f 322 334 333
f 336 337 335
f 336 335 322
f 338 339 337
f 338 337 336
f 340 341 339
f 340 339 338
f 342 343 344
f 342 344 345
f 346 347 343
f 346 343 342
f 348 349 347
f 348 347 346
f 350 351 349
f 350 349 348
f 352 353 351
f 352 351 350
f 354 355 353
f 354 353 352
f 356 357 358
f 356 358 359
f 360 361 357
f 360 357 356
f 362 363 361
f 362 361 360
f 364 365 363
f 364 363 362
f 366 367 365
f 366 365 364
f 368 369 367
f 368 367 366
f 370 371 372
f 370 372 373
f 374 375 371
f 374 371 370
f 376 377 375
f 376 375 374
f 378 379 377
f 378 377 376
f 380 381 379
f 380 379 378
f 382 383 381
f 382 381 380
f 384 385 386
f 387 384 386
f 388 389 385
f 384 388 385
f 390 391 389
f 388 390 389
f 392 393 391
f 390 392 391
f 394 395 393
f 392 394 393
f 396 397 395
f 394 396 395
f 398 399 397
f 396 398 397
f 400 401 399
f 398 400 399
f 402 403 401
f 400 402 401
f 404 405 403
f 402 404 403
f 406 407 405
f 404 406 405
f 408 409 407
f 406 408 407
f 410 411 409
f 408 410 409
f 412 413 411
f 410 412 411
f 414 415 413
f 412 414 413
f 387 386 415
f 414 387 415
f 416 417 388
f 384 416 388
f 417 418 419
f 388 417 419
f 418 420 421
f 419 418 421
f 420 422 423
f 421 420 423
f 422 424 396
f 423 422 396
f 424 425 398
f 396 424 398
f 426 427 428
f 402 426 428
f 427 429 406
f 428 427 406
f 429 430 408
f 406 429 408
f 430 431 410
f 408 430 410
f 431 432 433
f 410 431 433
f 432 434 414
f 433 432 414
f 435 436 417
f 435 417 416
f 436 437 418
f 436 418 417
f 437 438 420
f 437 420 418
f 438 439 422
f 438 422 420
f 439 440 424
f 439 424 422
f 440 441 425
f 440 425 424
f 442 443 427
f 442 427 426
f 443 444 429
f 443 429 427
f 444 445 430
f 444 430 429
f 445 446 431
f 445 431 430
f 446 447 432
f 446 432 431
f 447 448 434
f 447 434 432
f 343 356 359
f 344 343 359
f 347 360 356
f 343 347 356
f 349 362 360
f 347 349 360
f 351 364 362
f 349 351 362
f 353 366 364
f 351 353 364
f 355 368 366
f 353 355 366
f 330 370 373
f 331 330 373
f 334 374 370
f 330 334 370
f 335 376 374
f 334 335 374
f 337 378 376
f 335 337 376
f 339 380 378
f 337 339 378
f 341 382 380
f 339 341 380
f 358 357 436
f 358 436 435
f 357 361 437
f 357 437 436
f 361 363 438
f 361 438 437
f 363 365 439
f 363 439 438
f 365 367 440
f 365 440 439
f 367 369 441
f 367 441 440
f 372 371 443
f 372 443 442
f 371 375 444
f 371 444 443
f 375 377 445
f 375 445 444
f 377 379 446
f 377 446 445
f 379 381 447
f 379 447 446
f 381 383 448
f 381 448 447
f 242 314 449
f 242 449 450
f 242 450 451
f 242 451 277
f 452 314 245
f 453 452 245
f 454 453 245
f 279 454 245
f 250 300 455
f 250 455 456
f 250 456 457
f 250 457 287
f 458 300 237
f 459 458 237
f 460 459 237
f 269 460 237
f 461 400 291
f 462 461 291
f 463 462 291
f 278 463 291
f 294 400 464
f 294 464 465
f 294 465 466
f 294 466 281
f 467 387 295
f 468 467 295
f 469 468 295
f 288 469 295
f 290 387 470
f 290 470 471
f 290 471 472
f 290 472 271
f 400 461 449
f 400 449 314
f 461 462 450
f 461 450 449
f 462 463 451
f 462 451 450
f 463 278 277
f 463 277 451
f 452 464 400
f 314 452 400
f 453 465 464
f 452 453 464
f 454 466 465
f 453 454 465
f 279 281 466
f 454 279 466
f 387 467 455
f 387 455 300
f 467 468 456
f 467 456 455
f 468 469 457
f 468 457 456
f 469 288 287
f 469 287 457
f 458 470 387
f 300 458 387
f 459 471 470
f 458 459 470
f 460 472 471
f 459 460 471
f 269 271 472
f 460 269 472
f 473 474 475
f 476 473 475
f 477 473 476
f 478 477 476
f 479 477 478
f 480 479 478
f 481 479 480
f 482 481 480
f 483 481 482
f 484 483 482
f 485 483 484
f 486 485 484
f 487 485 486
f 488 487 486
f 489 474 473
f 490 489 473
f 490 473 477
f 491 490 477
f 491 477 479
f 492 491 479
f 492 479 481
f 493 492 481
f 493 481 483
f 494 493 483
f 494 483 485
f 495 494 485
f 495 485 487
f 496 495 487
f 497 489 490
f 497 490 498
f 498 490 491
f 498 491 499
f 499 491 492
f 499 492 500
f 500 492 493
f 500 493 501
f 501 493 494
f 501 494 502
f 502 494 495
f 502 495 503
f 503 495 496
f 503 496 504
f 475 474 505
f 475 505 506
f 506 505 507
f 506 507 508
f 508 507 509
f 508 509 510
f 510 509 511
f 510 511 512
f 512 511 513
f 512 513 514
f 514 513 515
f 514 515 516
f 516 515 517
f 516 517 518
f 505 474 489
f 505 489 519
f 507 505 519
f 507 519 520
f 509 507 520
f 509 520 521
f 511 509 521
f 511 521 522
f 513 511 522
f 513 522 523
f 515 513 523
f 515 523 524
f 517 515 524
f 517 524 525
f 519 489 497
f 526 519 497
f 520 519 526
f 527 520 526
f 521 520 527
f 528 521 527
f 522 521 528
f 529 522 528
f 523 522 529
f 530 523 529
f 524 523 530
f 531 524 530
f 525 524 531
f 532 525 531
f 532 504 496
f 532 496 525
f 517 525 496
f 517 496 487
f 487 488 518
f 487 518 517
f 488 533 534
f 535 488 534
f 486 536 533
f 488 486 533
f 484 537 536
f 486 484 536
f 482 538 537
f 484 482 537
f 480 539 538
f 482 480 538
f 478 540 539
f 480 478 539
f 476 541 540
f 478 476 540
f 475 542 541
f 476 475 541
f 506 543 542
f 475 506 542
f 508 544 543
f 506 508 543
f 510 545 544
f 508 510 544
f 512 546 545
f 510 512 545
f 514 547 546
f 512 514 546
f 516 548 547
f 514 516 547
f 518 549 548
f 516 518 548
f 535 534 549
f 518 535 549
f 550 68 70
f 551 550 70
f 552 66 68
f 550 552 68
f 553 62 66
f 552 553 66
f 554 63 62
f 553 554 62
f 555 92 63
f 554 555 63
f 556 90 92
f 555 556 92
f 557 88 90
f 556 557 90
f 558 86 88
f 557 558 88
f 559 84 86
f 558 559 86
f 560 82 84
f 559 560 84
f 561 80 82
f 560 561 82
f 562 78 80
f 561 562 80
f 563 76 78
f 562 563 78
f 564 74 76
f 563 564 76
f 565 72 74
f 564 565 74
f 551 70 72
f 565 551 72
f 566 567 568
f 566 569 567
f 569 570 567
f 569 571 570
f 571 572 570
f 573 574 575
f 573 575 576
f 568 577 578
f 568 578 566
f 576 575 579
f 576 579 580
f 566 578 581
f 566 581 569
f 577 573 576
f 577 576 578
f 578 576 580
f 578 580 581
f 582 583 581
f 582 581 580
f 584 585 583
f 584 583 582
f 586 582 580
f 586 580 579
f 583 571 569
f 583 569 581
f 587 584 582
f 587 582 586
f 585 572 571
f 585 571 583
f 588 589 590
f 591 589 588
f 592 591 588
f 593 591 592
f 594 593 592
f 575 574 595
f 575 595 596
f 597 598 590
f 597 590 589
f 579 575 596
f 579 596 599
f 600 597 589
f 600 589 591
f 596 595 598
f 596 598 597
f 599 596 597
f 599 597 600
f 600 601 602
f 600 602 599
f 601 603 604
f 601 604 602
f 599 602 586
f 599 586 579
f 591 593 601
f 591 601 600
f 602 604 587
f 602 587 586
f 593 594 603
f 593 603 601
f 605 606 607
f 606 608 607
f 606 609 608
f 609 610 608
f 609 611 610
f 612 613 614
f 615 612 614
f 616 617 605
f 607 616 605
f 618 612 615
f 619 618 615
f 620 616 607
f 608 620 607
f 615 614 617
f 616 615 617
f 619 615 616
f 620 619 616
f 620 621 622
f 619 620 622
f 621 623 624
f 622 621 624
f 619 622 625
f 618 619 625
f 608 610 621
f 620 608 621
f 622 624 626
f 625 622 626
f 610 611 623
f 621 610 623
f 627 628 629
f 629 628 630
f 629 630 631
f 631 630 632
f 631 632 633
f 634 613 612
f 635 634 612
f 627 636 637
f 628 627 637
f 635 612 618
f 638 635 618
f 628 637 639
f 630 628 639
f 636 634 635
f 637 636 635
f 637 635 638
f 639 637 638
f 640 641 639
f 638 640 639
f 642 643 641
f 640 642 641
f 625 640 638
f 618 625 638
f 641 632 630
f 639 641 630
f 626 642 640
f 625 626 640
f 643 633 632
f 641 643 632
f 558 644 645
f 644 646 645
f 561 647 648
f 561 648 562
f 560 649 647
f 560 647 561
f 559 650 649
f 559 649 560
f 645 651 650
f 559 645 650
f 644 558 652
f 644 652 653
f 646 644 653
f 646 653 654
f 655 653 652
f 655 654 653
f 656 657 658
f 659 656 658
f 657 660 661
f 658 657 661
f 660 662 663
f 661 660 663
f 664 655 665
f 666 664 665
f 654 664 651
f 646 654 651
f 667 668 558
f 667 669 668
f 670 671 555
f 554 670 555
f 671 672 556
f 555 671 556
f 672 673 557
f 556 672 557
f 673 674 667
f 673 667 557
f 652 558 668
f 675 652 668
f 675 668 669
f 676 675 669
f 652 675 677
f 675 676 677
f 678 679 680
f 678 680 681
f 682 683 679
f 682 679 678
f 684 685 683
f 684 683 682
f 686 677 687
f 686 687 688
f 674 687 676
f 674 676 669
f 689 690 542
f 689 691 690
f 648 647 545
f 546 648 545
f 647 649 544
f 545 647 544
f 649 650 543
f 544 649 543
f 650 651 689
f 650 689 543
f 692 542 690
f 693 692 690
f 693 690 691
f 694 693 691
f 692 693 695
f 693 694 695
f 696 657 656
f 696 656 697
f 698 660 657
f 698 657 696
f 699 662 660
f 699 660 698
f 700 695 664
f 700 664 666
f 651 664 694
f 651 694 691
f 542 701 702
f 701 703 702
f 539 671 670
f 539 670 538
f 540 672 671
f 540 671 539
f 541 673 672
f 541 672 540
f 702 674 673
f 541 702 673
f 701 542 692
f 701 692 704
f 703 701 704
f 703 704 705
f 706 704 692
f 706 705 704
f 680 679 707
f 708 680 707
f 679 683 709
f 707 679 709
f 683 685 710
f 709 683 710
f 687 706 711
f 688 687 711
f 705 687 674
f 703 705 674
f 712 537 538
f 712 538 670
f 713 536 537
f 713 537 712
f 714 533 536
f 714 536 713
f 715 534 533
f 715 533 714
f 716 549 534
f 716 534 715
f 717 548 549
f 717 549 716
f 718 547 548
f 718 548 717
f 648 546 547
f 648 547 718
f 553 712 670
f 553 670 554
f 552 713 712
f 552 712 553
f 550 714 713
f 550 713 552
f 551 715 714
f 551 714 550
f 565 716 715
f 565 715 551
f 564 717 716
f 564 716 565
f 563 718 717
f 563 717 564
f 562 648 718
f 562 718 563
f 719 720 721
f 722 719 721
f 723 724 720
f 719 723 720
f 725 726 724
f 723 725 724
f 727 681 726
f 725 727 726
f 728 678 681
f 727 728 681
f 729 682 678
f 728 729 678
f 730 684 682
f 729 730 682
f 731 652 684
f 730 731 684
f 732 663 652
f 731 732 652
f 733 661 663
f 732 733 663
f 734 658 661
f 733 734 661
f 735 659 658
f 734 735 658
f 736 737 659
f 735 736 659
f 738 739 737
f 736 738 737
f 740 741 739
f 738 740 739
f 722 721 741
f 740 722 741
f 178 728 727
f 178 727 148
f 176 729 728
f 176 728 178
f 174 730 729
f 174 729 176
f 172 731 730
f 172 730 174
f 170 732 731
f 170 731 172
f 168 733 732
f 168 732 170
f 166 734 733
f 166 733 168
f 164 735 734
f 164 734 166
f 162 736 735
f 162 735 164
f 160 738 736
f 160 736 162
f 158 740 738
f 158 738 160
f 156 722 740
f 156 740 158
f 154 719 722
f 154 722 156
f 152 723 719
f 152 719 154
f 149 725 723
f 149 723 152
f 148 727 725
f 148 725 149
f 742 743 415
f 386 742 415
f 743 744 413
f 415 743 413
f 744 745 411
f 413 744 411
f 745 746 409
f 411 745 409
f 746 747 407
f 409 746 407
f 747 748 405
f 407 747 405
f 748 749 403
f 405 748 403
f 749 750 401
f 403 749 401
f 750 751 399
f 401 750 399
f 751 752 397
f 399 751 397
f 752 753 395
f 397 752 395
f 753 754 393
f 395 753 393
f 754 755 391
f 393 754 391
f 755 756 389
f 391 755 389
f 756 757 385
f 389 756 385
f 757 742 386
f 385 757 386
f 758 759 755
f 758 755 754
f 759 760 756
f 759 756 755
f 760 761 757
f 760 757 756
f 761 708 742
f 761 742 757
f 708 707 743
f 708 743 742
f 707 709 744
f 707 744 743
f 709 710 745
f 709 745 744
f 710 692 746
f 710 746 745
f 692 699 747
f 692 747 746
f 699 698 748
f 699 748 747
f 698 696 749
f 698 749 748
f 696 697 750
f 696 750 749
f 697 762 751
f 697 751 750
f 762 763 752
f 762 752 751
f 763 764 753
f 763 753 752
f 764 758 754
f 764 754 753
f 737 762 697
f 737 697 659
f 739 763 762
f 739 762 737
f 741 764 763
f 741 763 739
f 721 758 764
f 721 764 741
f 720 759 758
f 720 758 721
f 724 760 759
f 724 759 720
f 726 761 760
f 726 760 724
f 681 708 761
f 681 761 726
