# Botball Lab: metres, +Y up, centred XZ, base Y=0
s off
v 0.0040000 0.0220173 0.0009184
v 0.0040000 0.0214971 0.0016971
v 0.0040000 0.0207184 0.0022173
v 0.0040000 0.0188816 0.0022173
v 0.0040000 0.0181029 0.0016971
v 0.0040000 0.0175827 0.0009184
v 0.0040000 0.0175827 -0.0009184
v 0.0040000 0.0181029 -0.0016971
v 0.0040000 0.0188816 -0.0022173
v 0.0040000 0.0207184 -0.0022173
v 0.0040000 0.0214971 -0.0016971
v 0.0040000 0.0220173 -0.0009184
v 0.0040000 0.0208000 0.0010000
v 0.0040000 0.0214000 0.0008000
v 0.0040000 0.0220409 0.0008000
v 0.0040000 0.0206000 0.0016000
v 0.0040000 0.0206000 0.0022409
v 0.0040000 0.0188000 0.0010000
v 0.0040000 0.0190000 0.0016000
v 0.0040000 0.0190000 0.0022409
v 0.0040000 0.0175591 0.0008000
v 0.0040000 0.0182000 0.0008000
v 0.0040000 0.0182000 -0.0008000
v 0.0040000 0.0175591 -0.0008000
v 0.0040000 0.0188000 -0.0010000
v 0.0040000 0.0190000 -0.0022409
v 0.0040000 0.0190000 -0.0016000
v 0.0040000 0.0208000 -0.0010000
v 0.0040000 0.0206000 -0.0022409
v 0.0040000 0.0206000 -0.0016000
v 0.0040000 0.0214000 -0.0008000
v 0.0040000 0.0220409 -0.0008000
v -0.0040000 0.0220173 -0.0009184
v -0.0040000 0.0214971 -0.0016971
v -0.0040000 0.0207184 -0.0022173
v -0.0040000 0.0188816 -0.0022173
v -0.0040000 0.0181029 -0.0016971
v -0.0040000 0.0175827 -0.0009184
v -0.0040000 0.0175827 0.0009184
v -0.0040000 0.0181029 0.0016971
v -0.0040000 0.0188816 0.0022173
v -0.0040000 0.0207184 0.0022173
v -0.0040000 0.0214971 0.0016971
v -0.0040000 0.0220173 0.0009184
v -0.0040000 0.0208000 -0.0010000
v -0.0040000 0.0214000 -0.0008000
v -0.0040000 0.0220409 -0.0008000
v -0.0040000 0.0206000 -0.0016000
v -0.0040000 0.0206000 -0.0022409
v -0.0040000 0.0188000 -0.0010000
v -0.0040000 0.0190000 -0.0016000
v -0.0040000 0.0190000 -0.0022409
v -0.0040000 0.0175591 -0.0008000
v -0.0040000 0.0182000 -0.0008000
v -0.0040000 0.0182000 0.0008000
v -0.0040000 0.0175591 0.0008000
v -0.0040000 0.0188000 0.0010000
v -0.0040000 0.0190000 0.0022409
v -0.0040000 0.0190000 0.0016000
v -0.0040000 0.0208000 0.0010000
v -0.0040000 0.0206000 0.0022409
v -0.0040000 0.0206000 0.0016000
v -0.0040000 0.0214000 0.0008000
v -0.0040000 0.0220409 0.0008000
v -0.0040000 0.0222000 -0.0000000
v 0.0040000 0.0222000 -0.0000000
v 0.0040000 0.0174000 -0.0000000
v -0.0040000 0.0174000 -0.0000000
v 0.0018828 0.0200828 0.0023437
v 0.0020000 0.0198000 0.0024000
v 0.0020000 0.0198000 0.0028000
v 0.0018828 0.0200828 0.0027437
v 0.0016000 0.0202000 0.0023204
v 0.0016000 0.0202000 0.0027204
v 0.0018828 0.0195172 0.0023437
v 0.0018828 0.0195172 0.0027437
v 0.0016000 0.0194000 0.0023204
v 0.0016000 0.0194000 0.0027204
v -0.0018828 0.0195172 0.0023437
v -0.0020000 0.0198000 0.0024000
v -0.0020000 0.0198000 0.0028000
v -0.0018828 0.0195172 0.0027437
v -0.0016000 0.0194000 0.0023204
v -0.0016000 0.0194000 0.0027204
v -0.0018828 0.0200828 0.0023437
v -0.0018828 0.0200828 0.0027437
v -0.0016000 0.0202000 0.0023204
v -0.0016000 0.0202000 0.0027204
v 0.0018828 0.0195172 -0.0023437
v 0.0020000 0.0198000 -0.0024000
v 0.0020000 0.0198000 -0.0028000
v 0.0018828 0.0195172 -0.0027437
v 0.0016000 0.0194000 -0.0023204
v 0.0016000 0.0194000 -0.0027204
v 0.0018828 0.0200828 -0.0023437
v 0.0018828 0.0200828 -0.0027437
v 0.0016000 0.0202000 -0.0023204
v 0.0016000 0.0202000 -0.0027204
v -0.0018828 0.0200828 -0.0023437
v -0.0020000 0.0198000 -0.0024000
v -0.0020000 0.0198000 -0.0028000
v -0.0018828 0.0200828 -0.0027437
v -0.0016000 0.0202000 -0.0023204
v -0.0016000 0.0202000 -0.0027204
v -0.0018828 0.0195172 -0.0023437
v -0.0018828 0.0195172 -0.0027437
v -0.0016000 0.0194000 -0.0023204
v -0.0016000 0.0194000 -0.0027204
v 0.0020000 0.0202000 0.0023204
v 0.0020000 0.0194000 0.0023204
v -0.0020000 0.0194000 0.0023204
v -0.0020000 0.0202000 0.0023204
v 0.0020000 0.0194000 -0.0023204
v 0.0020000 0.0202000 -0.0023204
v -0.0020000 0.0202000 -0.0023204
v -0.0020000 0.0194000 -0.0023204
v 0.0040000 0.0206000 0.0022408
v 0.0040000 0.0198000 0.0024000
v -0.0040000 0.0198000 0.0024000
v -0.0040000 0.0206000 0.0022408
v 0.0040000 0.0190000 0.0022408
v -0.0040000 0.0190000 0.0022408
v 0.0040000 0.0198000 -0.0024000
v 0.0040000 0.0206000 -0.0022408
v -0.0040000 0.0206000 -0.0022408
v -0.0040000 0.0198000 -0.0024000
v 0.0040000 0.0190000 -0.0022408
v -0.0040000 0.0190000 -0.0022408
v 0.0020000 0.0202000 0.0027204
v 0.0020000 0.0194000 0.0027204
v -0.0020000 0.0194000 0.0027204
v -0.0020000 0.0202000 0.0027204
v 0.0020000 0.0194000 -0.0027204
v 0.0020000 0.0202000 -0.0027204
v -0.0020000 0.0202000 -0.0027204
v -0.0020000 0.0194000 -0.0027204
v -0.0024000 0.0187285 0.0025869
v -0.0024000 0.0178200 0.0019799
v 0.0024000 0.0178200 0.0019799
v 0.0024000 0.0187285 0.0025869
v -0.0024000 0.0172132 0.0010715
v 0.0024000 0.0172132 0.0010715
v -0.0024000 0.0169999 0.0000000
v 0.0024000 0.0169999 0.0000000
v -0.0024000 0.0172131 -0.0010715
v 0.0024000 0.0172131 -0.0010715
v -0.0024000 0.0178201 -0.0019800
v 0.0024000 0.0178201 -0.0019800
v -0.0024000 0.0187285 -0.0025868
v 0.0024000 0.0187285 -0.0025868
v 0.0024000 0.0217800 0.0019799
v -0.0024000 0.0217800 0.0019799
v -0.0024000 0.0208715 0.0025869
v 0.0024000 0.0208715 0.0025869
v 0.0024000 0.0223868 0.0010715
v -0.0024000 0.0223868 0.0010715
v 0.0024000 0.0226001 0.0000000
v -0.0024000 0.0226001 0.0000000
v 0.0024000 0.0223869 -0.0010715
v -0.0024000 0.0223869 -0.0010715
v 0.0024000 0.0217799 -0.0019800
v -0.0024000 0.0217799 -0.0019800
v 0.0024000 0.0208715 -0.0025868
v -0.0024000 0.0208715 -0.0025868
v -0.0024000 0.0208716 0.0025869
v 0.0024000 0.0208716 0.0025869
v 0.0024000 0.0187284 0.0025869
v -0.0024000 0.0187284 0.0025869
v 0.0024000 0.0198000 0.0028000
v -0.0024000 0.0198000 0.0028000
v 0.0024000 0.0208716 -0.0025869
v -0.0024000 0.0208716 -0.0025869
v -0.0024000 0.0187284 -0.0025869
v 0.0024000 0.0187284 -0.0025869
v 0.0024000 0.0198000 -0.0028000
v -0.0024000 0.0198000 -0.0028000
v -0.0026000 0.0185754 -0.0029565
v -0.0028000 0.0184223 -0.0033260
v -0.0028000 0.0198000 -0.0036000
v -0.0026000 0.0198000 -0.0032000
v -0.0026000 0.0175373 -0.0022627
v -0.0028000 0.0172544 -0.0025456
v -0.0026000 0.0168435 -0.0012246
v -0.0028000 0.0164740 -0.0013777
v -0.0026000 0.0166000 -0.0000000
v -0.0028000 0.0162000 -0.0000000
v -0.0026000 0.0168435 0.0012246
v -0.0028000 0.0164740 0.0013777
v -0.0026000 0.0175373 0.0022627
v -0.0028000 0.0172544 0.0025456
v -0.0026000 0.0185754 0.0029565
v -0.0028000 0.0184223 0.0033260
v -0.0026000 0.0198000 0.0032000
v -0.0028000 0.0198000 0.0036000
v -0.0026000 0.0210246 0.0029565
v -0.0028000 0.0211777 0.0033260
v -0.0026000 0.0220627 0.0022627
v -0.0028000 0.0223456 0.0025456
v -0.0026000 0.0227565 0.0012246
v -0.0028000 0.0231260 0.0013777
v -0.0026000 0.0230000 -0.0000000
v -0.0028000 0.0234000 -0.0000000
v -0.0026000 0.0227565 -0.0012246
v -0.0028000 0.0231260 -0.0013777
v -0.0026000 0.0220627 -0.0022627
v -0.0028000 0.0223456 -0.0025456
v -0.0026000 0.0210246 -0.0029565
v -0.0028000 0.0211777 -0.0033260
v -0.0024000 0.0178201 -0.0019799
v -0.0024000 0.0172131 -0.0010716
v -0.0024000 0.0170000 -0.0000000
v -0.0024000 0.0172131 0.0010716
v -0.0024000 0.0178201 0.0019799
v -0.0024000 0.0217799 0.0019799
v -0.0024000 0.0223869 0.0010716
v -0.0024000 0.0226000 -0.0000000
v -0.0024000 0.0223869 -0.0010716
v -0.0024000 0.0217799 -0.0019799
v 0.0026000 0.0185754 0.0029565
v 0.0028000 0.0184223 0.0033260
v 0.0028000 0.0198000 0.0036000
v 0.0026000 0.0198000 0.0032000
v 0.0026000 0.0175373 0.0022627
v 0.0028000 0.0172544 0.0025456
v 0.0026000 0.0168435 0.0012246
v 0.0028000 0.0164740 0.0013777
v 0.0026000 0.0166000 -0.0000000
v 0.0028000 0.0162000 -0.0000000
v 0.0026000 0.0168435 -0.0012246
v 0.0028000 0.0164740 -0.0013777
v 0.0026000 0.0175373 -0.0022627
v 0.0028000 0.0172544 -0.0025456
v 0.0026000 0.0185754 -0.0029565
v 0.0028000 0.0184223 -0.0033260
v 0.0026000 0.0198000 -0.0032000
v 0.0028000 0.0198000 -0.0036000
v 0.0026000 0.0210246 -0.0029565
v 0.0028000 0.0211777 -0.0033260
v 0.0026000 0.0220627 -0.0022627
v 0.0028000 0.0223456 -0.0025456
v 0.0026000 0.0227565 -0.0012246
v 0.0028000 0.0231260 -0.0013777
v 0.0026000 0.0230000 -0.0000000
v 0.0028000 0.0234000 -0.0000000
v 0.0026000 0.0227565 0.0012246
v 0.0028000 0.0231260 0.0013777
v 0.0026000 0.0220627 0.0022627
v 0.0028000 0.0223456 0.0025456
v 0.0026000 0.0210246 0.0029565
v 0.0028000 0.0211777 0.0033260
v 0.0024000 0.0178201 0.0019799
v 0.0024000 0.0172131 0.0010716
v 0.0024000 0.0170000 -0.0000000
v 0.0024000 0.0172131 -0.0010716
v 0.0024000 0.0178201 -0.0019799
v 0.0024000 0.0217799 -0.0019799
v 0.0024000 0.0223869 -0.0010716
v 0.0024000 0.0226000 -0.0000000
v 0.0024000 0.0223869 0.0010716
v 0.0024000 0.0217799 0.0019799
v -0.0040000 0.0231260 0.0013777
v -0.0040000 0.0234000 -0.0000000
v -0.0040000 0.0223456 0.0025456
v -0.0040000 0.0211777 0.0033260
v -0.0040000 0.0198000 0.0036000
v -0.0040000 0.0184223 0.0033260
v -0.0040000 0.0172544 0.0025456
v 0.0040000 0.0231260 0.0013777
v 0.0040000 0.0234000 -0.0000000
v 0.0040000 0.0223456 0.0025456
v 0.0040000 0.0211777 0.0033260
v 0.0040000 0.0198000 0.0036000
v 0.0040000 0.0184223 0.0033260
v 0.0040000 0.0172544 0.0025456
v -0.0040000 0.0231260 -0.0013777
v -0.0040000 0.0223456 -0.0025456
v -0.0040000 0.0211777 -0.0033260
v -0.0040000 0.0198000 -0.0036000
v -0.0040000 0.0184223 -0.0033260
v -0.0040000 0.0172544 -0.0025456
v 0.0040000 0.0231260 -0.0013777
v 0.0040000 0.0223456 -0.0025456
v 0.0040000 0.0211777 -0.0033260
v 0.0040000 0.0198000 -0.0036000
v 0.0040000 0.0184223 -0.0033260
v 0.0040000 0.0172544 -0.0025456
v 0.0040000 0.0220174 0.0009185
v 0.0040000 0.0214970 0.0016970
v 0.0040000 0.0207185 0.0022174
v 0.0040000 0.0188815 0.0022174
v 0.0040000 0.0181030 0.0016970
v -0.0040000 0.0220174 0.0009185
v -0.0040000 0.0214970 0.0016970
v -0.0040000 0.0207185 0.0022174
v -0.0040000 0.0188815 0.0022174
v -0.0040000 0.0181030 0.0016970
v 0.0040000 0.0220174 -0.0009185
v 0.0040000 0.0214970 -0.0016970
v 0.0040000 0.0207185 -0.0022174
v 0.0040000 0.0188815 -0.0022174
v 0.0040000 0.0181030 -0.0016970
v -0.0040000 0.0220174 -0.0009185
v -0.0040000 0.0214970 -0.0016970
v -0.0040000 0.0207185 -0.0022174
v -0.0040000 0.0188815 -0.0022174
v -0.0040000 0.0181030 -0.0016970
v 0.0040000 0.0118000 0.0024000
v -0.0040000 0.0118000 0.0024000
v -0.0040000 0.0118000 -0.0024000
v 0.0040000 0.0118000 -0.0024000
v 0.0006000 0.0130000 -0.0024000
v 0.0006000 0.0130000 -0.0008000
v 0.0028000 0.0130000 -0.0008000
v 0.0028000 0.0130000 -0.0024000
v -0.0028000 0.0130000 -0.0024000
v -0.0028000 0.0130000 -0.0008000
v -0.0006000 0.0130000 -0.0008000
v -0.0006000 0.0130000 -0.0024000
v 0.0006000 0.0130000 0.0008000
v 0.0006000 0.0130000 0.0024000
v 0.0028000 0.0130000 0.0024000
v 0.0028000 0.0130000 0.0008000
v -0.0028000 0.0130000 0.0008000
v -0.0028000 0.0130000 0.0024000
v -0.0006000 0.0130000 0.0024000
v -0.0006000 0.0130000 0.0008000
v 0.0008000 0.0118000 -0.0008000
v 0.0008000 0.0008000 -0.0008000
v 0.0008000 0.0008000 -0.0022409
v 0.0008000 0.0118000 -0.0022409
v 0.0022409 0.0008000 -0.0008000
v 0.0022409 0.0118000 -0.0008000
v -0.0008000 0.0008000 -0.0022409
v -0.0008000 0.0008000 -0.0008000
v -0.0008000 0.0118000 -0.0008000
v -0.0008000 0.0118000 -0.0022409
v -0.0022409 0.0008000 -0.0008000
v -0.0022409 0.0118000 -0.0008000
v -0.0008000 0.0118000 0.0008000
v -0.0008000 0.0008000 0.0008000
v -0.0008000 0.0008000 0.0022409
v -0.0008000 0.0118000 0.0022409
v -0.0022409 0.0008000 0.0008000
v -0.0022409 0.0118000 0.0008000
v 0.0008000 0.0008000 0.0022409
v 0.0008000 0.0008000 0.0008000
v 0.0008000 0.0118000 0.0008000
v 0.0008000 0.0118000 0.0022409
v 0.0022409 0.0008000 0.0008000
v 0.0022409 0.0118000 0.0008000
v 0.0024000 0.0118000 -0.0000000
v 0.0024000 0.0008000 -0.0000000
v 0.0000000 0.0008000 -0.0024000
v 0.0000000 0.0118000 -0.0024000
v -0.0024000 0.0008000 -0.0000000
v -0.0024000 0.0118000 -0.0000000
v 0.0000000 0.0118000 0.0024000
v 0.0000000 0.0008000 0.0024000
v 0.0019809 0.0002343 -0.0006520
v 0.0011537 0.0000000 -0.0006528
v 0.0007432 0.0000000 -0.0007432
v 0.0012866 0.0000000 -0.0000000
v 0.0021106 0.0002343 -0.0000000
v 0.0000000 0.0000000 -0.0000000
v 0.0006520 0.0002343 -0.0019809
v 0.0006528 0.0000000 -0.0011537
v 0.0000000 0.0000000 -0.0012866
v 0.0000000 0.0002343 -0.0021106
v 0.0006520 0.0002343 0.0019809
v 0.0006528 0.0000000 0.0011537
v 0.0007432 0.0000000 0.0007432
v 0.0000000 0.0000000 0.0013124
v 0.0000000 0.0002343 0.0021106
v 0.0019809 0.0002343 0.0006520
v 0.0011537 0.0000000 0.0006528
v -0.0019809 0.0002343 0.0006520
v -0.0011537 0.0000000 0.0006528
v -0.0007432 0.0000000 0.0007432
v -0.0012866 0.0000000 -0.0000000
v -0.0021106 0.0002343 -0.0000000
v -0.0006520 0.0002343 0.0019809
v -0.0006528 0.0000000 0.0011537
v -0.0006520 0.0002343 -0.0019809
v -0.0006528 0.0000000 -0.0011537
v -0.0007432 0.0000000 -0.0007432
v -0.0019809 0.0002343 -0.0006520
v -0.0011537 0.0000000 -0.0006528
v 0.0012000 0.0150000 0.0024000
v 0.0011087 0.0145408 0.0024000
v 0.0011087 0.0145408 0.0008000
v 0.0012000 0.0150000 0.0008000
v 0.0008485 0.0141515 0.0024000
v 0.0008485 0.0141515 0.0008000
v 0.0011087 0.0154592 0.0008000
v 0.0011087 0.0154592 0.0024000
v 0.0008485 0.0158485 0.0008000
v 0.0008485 0.0158485 0.0024000
v -0.0011087 0.0145408 0.0008000
v -0.0011087 0.0145408 0.0024000
v -0.0012000 0.0150000 0.0024000
v -0.0012000 0.0150000 0.0008000
v -0.0008485 0.0141515 0.0008000
v -0.0008485 0.0141515 0.0024000
v -0.0011087 0.0154592 0.0024000
v -0.0011087 0.0154592 0.0008000
v -0.0008485 0.0158485 0.0024000
v -0.0008485 0.0158485 0.0008000
v 0.0006000 0.0160148 0.0008000
v 0.0006000 0.0160148 0.0024000
v 0.0006000 0.0139852 0.0024000
v 0.0006000 0.0139852 0.0008000
v -0.0006000 0.0139852 0.0008000
v -0.0006000 0.0139852 0.0024000
v -0.0006000 0.0160148 0.0008000
v -0.0006000 0.0160148 0.0024000
v 0.0011087 0.0145408 -0.0008000
v 0.0011087 0.0145408 -0.0024000
v 0.0012000 0.0150000 -0.0024000
v 0.0012000 0.0150000 -0.0008000
v 0.0008485 0.0141515 -0.0008000
v 0.0008485 0.0141515 -0.0024000
v 0.0011087 0.0154592 -0.0024000
v 0.0011087 0.0154592 -0.0008000
v 0.0008485 0.0158485 -0.0024000
v 0.0008485 0.0158485 -0.0008000
v -0.0012000 0.0150000 -0.0024000
v -0.0011087 0.0145408 -0.0024000
v -0.0011087 0.0145408 -0.0008000
v -0.0012000 0.0150000 -0.0008000
v -0.0008485 0.0141515 -0.0024000
v -0.0008485 0.0141515 -0.0008000
v -0.0011087 0.0154592 -0.0008000
v -0.0011087 0.0154592 -0.0024000
v -0.0008485 0.0158485 -0.0008000
v -0.0008485 0.0158485 -0.0024000
v 0.0006000 0.0160148 -0.0024000
v 0.0006000 0.0160148 -0.0008000
v 0.0006000 0.0139852 -0.0008000
v 0.0006000 0.0139852 -0.0024000
v -0.0006000 0.0139852 -0.0024000
v -0.0006000 0.0139852 -0.0008000
v -0.0006000 0.0160148 -0.0008000
v -0.0006000 0.0160148 -0.0024000
v 0.0040000 0.0171600 -0.0024000
v 0.0040000 0.0171600 0.0024000
v 0.0028000 0.0171600 0.0024000
v 0.0028000 0.0171600 -0.0024000
v 0.0006000 0.0184480 -0.0024000
v 0.0006000 0.0171600 -0.0008000
v 0.0006000 0.0171600 0.0008000
v 0.0006000 0.0184480 0.0024000
v -0.0006000 0.0171600 -0.0008000
v -0.0006000 0.0184480 -0.0024000
v -0.0006000 0.0184480 0.0024000
v -0.0006000 0.0171600 0.0008000
v -0.0028000 0.0171600 -0.0024000
v -0.0028000 0.0171600 0.0024000
v -0.0040000 0.0171600 0.0024000
v -0.0040000 0.0171600 -0.0024000
v -0.0028000 0.0171600 -0.0008000
v 0.0028000 0.0171600 -0.0008000
v 0.0028000 0.0171600 0.0008000
v -0.0028000 0.0171600 0.0008000
v 0.0040000 0.0174000 -0.0016970
v 0.0040000 0.0175826 -0.0009185
v 0.0040000 0.0175826 0.0009185
v 0.0040000 0.0174000 0.0016970
v -0.0040000 0.0175826 -0.0009185
v -0.0040000 0.0174000 -0.0016970
v -0.0040000 0.0174000 0.0016970
v -0.0040000 0.0175826 0.0009185
f 1 2 3
f 4 5 6
f 7 8 9
f 10 11 12
f 1 3 13
f 13 14 15
f 13 15 1
f 16 13 3
f 16 3 17
f 18 4 6
f 18 19 20
f 18 20 4
f 21 22 18
f 21 18 6
f 23 24 7
f 23 7 25
f 7 9 25
f 9 26 27
f 9 27 25
f 10 12 28
f 29 10 28
f 29 28 30
f 31 28 12
f 31 12 32
f 33 34 35
f 36 37 38
f 39 40 41
f 42 43 44
f 33 35 45
f 45 46 47
f 45 47 33
f 48 45 35
f 48 35 49
f 50 36 38
f 50 51 52
f 50 52 36
f 53 54 50
f 53 50 38
f 55 56 39
f 55 39 57
f 39 41 57
f 41 58 59
f 41 59 57
f 42 44 60
f 61 42 60
f 61 60 62
f 63 60 44
f 63 44 64
f 64 65 66
f 64 66 15
f 67 68 56
f 21 67 56
f 53 68 67
f 53 67 24
f 66 65 47
f 32 66 47
f 63 64 15
f 63 15 14
f 63 14 13
f 63 13 60
f 60 13 16
f 60 16 62
f 62 16 17
f 62 17 61
f 59 58 20
f 59 20 19
f 59 19 18
f 59 18 57
f 57 18 22
f 57 22 55
f 55 22 21
f 55 21 56
f 53 24 23
f 53 23 54
f 54 23 25
f 54 25 50
f 50 25 27
f 50 27 51
f 51 27 26
f 51 26 52
f 49 29 30
f 49 30 48
f 48 30 28
f 48 28 45
f 45 28 31
f 45 31 46
f 46 31 32
f 46 32 47
f 69 70 71
f 69 71 72
f 73 69 72
f 73 72 74
f 71 70 75
f 76 71 75
f 76 75 77
f 78 76 77
f 79 80 81
f 79 81 82
f 83 79 82
f 83 82 84
f 81 80 85
f 86 81 85
f 86 85 87
f 88 86 87
f 89 90 91
f 89 91 92
f 93 89 92
f 93 92 94
f 91 90 95
f 96 91 95
f 96 95 97
f 98 96 97
f 99 100 101
f 99 101 102
f 103 99 102
f 103 102 104
f 101 100 105
f 106 101 105
f 106 105 107
f 108 106 107
f 83 84 78
f 83 78 77
f 73 74 88
f 73 88 87
f 103 104 98
f 103 98 97
f 93 94 108
f 93 108 107
f 70 69 109
f 69 73 109
f 110 75 70
f 110 77 75
f 80 79 111
f 79 83 111
f 112 85 80
f 112 87 85
f 90 89 113
f 89 93 113
f 114 95 90
f 114 97 95
f 100 99 115
f 99 103 115
f 116 105 100
f 116 107 105
f 117 118 70
f 117 70 109
f 119 120 112
f 119 112 80
f 118 121 110
f 118 110 70
f 122 119 80
f 122 80 111
f 117 109 112
f 117 112 120
f 122 111 110
f 122 110 121
f 123 124 114
f 123 114 90
f 125 126 100
f 125 100 115
f 127 123 90
f 127 90 113
f 126 128 116
f 126 116 100
f 125 115 114
f 125 114 124
f 127 113 116
f 127 116 128
f 129 72 71
f 129 74 72
f 71 76 130
f 76 78 130
f 131 82 81
f 131 84 82
f 81 86 132
f 86 88 132
f 133 92 91
f 133 94 92
f 91 96 134
f 96 98 134
f 135 102 101
f 135 104 102
f 101 106 136
f 106 108 136
f 137 138 139
f 140 137 139
f 138 141 142
f 139 138 142
f 141 143 144
f 142 141 144
f 143 145 146
f 144 143 146
f 145 147 148
f 146 145 148
f 147 149 150
f 148 147 150
f 151 152 153
f 151 153 154
f 155 156 152
f 155 152 151
f 157 158 156
f 157 156 155
f 159 160 158
f 159 158 157
f 161 162 160
f 161 160 159
f 163 164 162
f 163 162 161
f 165 132 129
f 165 129 166
f 167 130 131
f 167 131 168
f 169 71 130
f 169 130 167
f 166 129 71
f 166 71 169
f 168 131 81
f 168 81 170
f 170 81 132
f 170 132 165
f 171 134 135
f 171 135 172
f 173 136 133
f 173 133 174
f 174 133 91
f 174 91 175
f 175 91 134
f 175 134 171
f 176 101 136
f 176 136 173
f 172 135 101
f 172 101 176
f 177 178 179
f 177 179 180
f 181 182 178
f 181 178 177
f 183 184 182
f 183 182 181
f 185 186 184
f 185 184 183
f 187 188 186
f 187 186 185
f 189 190 188
f 189 188 187
f 191 192 190
f 191 190 189
f 193 194 192
f 193 192 191
f 195 196 194
f 195 194 193
f 197 198 196
f 197 196 195
f 199 200 198
f 199 198 197
f 201 202 200
f 201 200 199
f 203 204 202
f 203 202 201
f 205 206 204
f 205 204 203
f 207 208 206
f 207 206 205
f 180 179 208
f 180 208 207
f 176 173 177
f 176 177 180
f 173 209 181
f 173 181 177
f 209 210 183
f 209 183 181
f 210 211 185
f 210 185 183
f 211 212 187
f 211 187 185
f 212 213 189
f 212 189 187
f 213 168 191
f 213 191 189
f 168 170 193
f 168 193 191
f 170 165 195
f 170 195 193
f 165 214 197
f 165 197 195
f 214 215 199
f 214 199 197
f 215 216 201
f 215 201 199
f 216 217 203
f 216 203 201
f 217 218 205
f 217 205 203
f 218 172 207
f 218 207 205
f 172 176 180
f 172 180 207
f 219 220 221
f 219 221 222
f 223 224 220
f 223 220 219
f 225 226 224
f 225 224 223
f 227 228 226
f 227 226 225
f 229 230 228
f 229 228 227
f 231 232 230
f 231 230 229
f 233 234 232
f 233 232 231
f 235 236 234
f 235 234 233
f 237 238 236
f 237 236 235
f 239 240 238
f 239 238 237
f 241 242 240
f 241 240 239
f 243 244 242
f 243 242 241
f 245 246 244
f 245 244 243
f 247 248 246
f 247 246 245
f 249 250 248
f 249 248 247
f 222 221 250
f 222 250 249
f 169 167 219
f 169 219 222
f 167 251 223
f 167 223 219
f 251 252 225
f 251 225 223
f 252 253 227
f 252 227 225
f 253 254 229
f 253 229 227
f 254 255 231
f 254 231 229
f 255 174 233
f 255 233 231
f 174 175 235
f 174 235 233
f 175 171 237
f 175 237 235
f 171 256 239
f 171 239 237
f 256 257 241
f 256 241 239
f 257 258 243
f 257 243 241
f 258 259 245
f 258 245 243
f 259 260 247
f 259 247 245
f 260 166 249
f 260 249 247
f 166 169 222
f 166 222 249
f 261 200 202
f 261 202 262
f 263 198 200
f 263 200 261
f 264 196 198
f 264 198 263
f 265 194 196
f 265 196 264
f 266 192 194
f 266 194 265
f 267 190 192
f 267 192 266
f 246 268 269
f 246 269 244
f 248 270 268
f 248 268 246
f 250 271 270
f 250 270 248
f 221 272 271
f 221 271 250
f 220 273 272
f 220 272 221
f 224 274 273
f 224 273 220
f 202 204 275
f 262 202 275
f 204 206 276
f 275 204 276
f 206 208 277
f 276 206 277
f 208 179 278
f 277 208 278
f 179 178 279
f 278 179 279
f 178 182 280
f 279 178 280
f 269 281 242
f 244 269 242
f 281 282 240
f 242 281 240
f 282 283 238
f 240 282 238
f 283 284 236
f 238 283 236
f 284 285 234
f 236 284 234
f 285 286 232
f 234 285 232
f 269 268 287
f 269 287 66
f 268 270 288
f 268 288 287
f 270 271 289
f 270 289 288
f 271 272 118
f 271 118 289
f 272 273 290
f 272 290 118
f 273 274 291
f 273 291 290
f 292 261 262
f 65 292 262
f 293 263 261
f 292 293 261
f 294 264 263
f 293 294 263
f 119 265 264
f 294 119 264
f 295 266 265
f 119 295 265
f 296 267 266
f 295 296 266
f 297 281 269
f 66 297 269
f 298 282 281
f 297 298 281
f 299 283 282
f 298 299 282
f 123 284 283
f 299 123 283
f 300 285 284
f 123 300 284
f 301 286 285
f 300 301 285
f 262 275 302
f 262 302 65
f 275 276 303
f 275 303 302
f 276 277 304
f 276 304 303
f 277 278 126
f 277 126 304
f 278 279 305
f 278 305 126
f 279 280 306
f 279 306 305
f 307 308 309
f 310 307 309
f 311 312 313
f 311 313 314
f 315 316 317
f 315 317 318
f 319 320 321
f 319 321 322
f 323 324 325
f 323 325 326
f 327 328 329
f 327 329 330
f 331 328 327
f 331 327 332
f 333 334 335
f 336 333 335
f 335 334 337
f 338 335 337
f 339 340 341
f 339 341 342
f 343 340 339
f 343 339 344
f 345 346 347
f 348 345 347
f 347 346 349
f 350 347 349
f 331 332 351
f 331 351 352
f 329 353 354
f 329 354 330
f 333 336 354
f 333 354 353
f 337 355 356
f 337 356 338
f 343 344 356
f 343 356 355
f 345 348 357
f 345 357 358
f 341 358 357
f 341 357 342
f 349 352 351
f 349 351 350
f 328 331 359
f 360 328 359
f 361 328 360
f 362 360 359
f 363 362 359
f 363 359 331
f 352 363 331
f 360 362 364
f 361 360 364
f 328 365 329
f 366 365 328
f 361 366 328
f 365 366 367
f 368 365 367
f 329 365 368
f 353 329 368
f 364 367 366
f 361 364 366
f 346 345 369
f 370 346 369
f 371 346 370
f 372 370 369
f 373 372 369
f 373 369 345
f 358 373 345
f 370 372 364
f 371 370 364
f 346 374 349
f 375 374 346
f 371 375 346
f 374 375 362
f 363 374 362
f 349 374 363
f 352 349 363
f 364 362 375
f 371 364 375
f 340 343 376
f 377 340 376
f 378 340 377
f 379 377 376
f 380 379 376
f 380 376 343
f 355 380 343
f 377 379 364
f 378 377 364
f 340 381 341
f 382 381 340
f 378 382 340
f 381 382 372
f 373 381 372
f 341 381 373
f 358 341 373
f 364 372 382
f 378 364 382
f 334 333 383
f 384 334 383
f 385 334 384
f 367 384 383
f 368 367 383
f 368 383 333
f 353 368 333
f 384 367 364
f 385 384 364
f 334 386 337
f 387 386 334
f 385 387 334
f 386 387 379
f 380 386 379
f 337 386 380
f 355 337 380
f 364 379 387
f 385 364 387
f 388 389 390
f 391 388 390
f 389 392 393
f 390 389 393
f 392 389 388
f 394 395 388
f 394 388 391
f 396 397 395
f 396 395 394
f 388 395 397
f 398 399 400
f 398 400 401
f 402 403 399
f 402 399 398
f 400 399 403
f 400 404 405
f 401 400 405
f 404 406 407
f 405 404 407
f 406 404 400
f 396 408 409
f 396 409 397
f 410 411 393
f 410 393 392
f 402 412 413
f 402 413 403
f 414 407 406
f 414 406 415
f 409 415 406
f 409 406 397
f 388 397 406
f 388 406 400
f 392 388 400
f 392 400 403
f 392 403 413
f 392 413 410
f 416 417 418
f 416 418 419
f 420 421 417
f 420 417 416
f 418 417 421
f 418 422 423
f 419 418 423
f 422 424 425
f 423 422 425
f 424 422 418
f 426 427 428
f 429 426 428
f 427 430 431
f 428 427 431
f 430 427 426
f 432 433 426
f 432 426 429
f 434 435 433
f 434 433 432
f 426 433 435
f 436 437 425
f 436 425 424
f 420 438 439
f 420 439 421
f 440 441 431
f 440 431 430
f 435 434 442
f 435 442 443
f 435 443 436
f 435 436 424
f 435 424 418
f 435 418 426
f 426 418 421
f 426 421 430
f 440 430 421
f 440 421 439
f 310 444 445
f 310 445 307
f 321 446 447
f 321 447 314
f 448 449 437
f 448 437 436
f 439 438 312
f 439 312 311
f 450 451 409
f 450 409 408
f 411 410 320
f 411 320 319
f 452 453 443
f 452 443 442
f 441 440 318
f 441 318 317
f 454 455 414
f 454 414 415
f 413 412 326
f 413 326 325
f 315 456 457
f 315 457 324
f 308 458 459
f 308 459 309
f 316 460 461
f 316 461 313
f 322 462 463
f 322 463 323
f 309 315 314
f 309 314 310
f 307 321 324
f 307 324 308
f 310 314 447
f 310 447 444
f 315 309 459
f 315 459 456
f 321 307 445
f 321 445 446
f 308 324 457
f 308 457 458
f 443 453 448
f 443 448 436
f 318 440 439
f 318 439 311
f 409 451 454
f 409 454 415
f 320 410 413
f 320 413 325
f 464 465 67
f 464 301 465
f 67 466 467
f 466 291 467
f 274 224 446
f 274 446 445
f 291 274 445
f 291 445 467
f 464 467 445
f 464 445 444
f 286 301 464
f 286 464 444
f 232 286 444
f 232 444 447
f 68 468 469
f 468 306 469
f 470 471 68
f 470 296 471
f 457 190 267
f 457 267 458
f 458 267 296
f 458 296 470
f 458 470 469
f 458 469 459
f 469 306 280
f 469 280 459
f 459 280 182
f 459 182 456
