# Botball Lab: metres, +Y up, centred XZ, base Y=0
s off
v 0.0006304 0.0012305 -0.0001531
v 0.0006000 0.0012000 -0.0000000
v 0.0006000 0.0012796 -0.0004000
v 0.0007172 0.0012563 -0.0002828
v 0.0008469 0.0012735 -0.0003696
v 0.0010000 0.0012796 -0.0004000
v 0.0006000 0.0013828 -0.0009184
v 0.0040000 0.0013828 -0.0009184
v 0.0040000 0.0012796 -0.0004000
v 0.0006000 0.0019030 -0.0016970
v 0.0040000 0.0019030 -0.0016970
v 0.0006000 0.0026816 -0.0022172
v 0.0040000 0.0026816 -0.0022172
v 0.0006000 0.0036000 -0.0023999
v 0.0040000 0.0036000 -0.0023999
v 0.0006000 0.0045184 -0.0022172
v 0.0040000 0.0045184 -0.0022172
v 0.0006000 0.0052970 -0.0016970
v 0.0040000 0.0052970 -0.0016970
v 0.0006000 0.0058172 -0.0009184
v 0.0040000 0.0058172 -0.0009184
v 0.0006000 0.0059204 -0.0004000
v 0.0040000 0.0059204 -0.0004000
v 0.0006000 0.0060000 -0.0000000
v 0.0006304 0.0059695 -0.0001531
v 0.0007172 0.0059437 -0.0002828
v 0.0008469 0.0059265 -0.0003696
v 0.0010000 0.0059204 -0.0004000
v 0.0006304 0.0059695 0.0001531
v 0.0006000 0.0059204 0.0004000
v 0.0007172 0.0059437 0.0002828
v 0.0008469 0.0059265 0.0003696
v 0.0010000 0.0059204 0.0004000
v 0.0006000 0.0058172 0.0009184
v 0.0040000 0.0058172 0.0009184
v 0.0040000 0.0059204 0.0004000
v 0.0006000 0.0052970 0.0016970
v 0.0040000 0.0052970 0.0016970
v 0.0006000 0.0045184 0.0022172
v 0.0040000 0.0045184 0.0022172
v 0.0006000 0.0036000 0.0023999
v 0.0040000 0.0036000 0.0023999
v 0.0006000 0.0026816 0.0022172
v 0.0040000 0.0026816 0.0022172
v 0.0006000 0.0019030 0.0016970
v 0.0040000 0.0019030 0.0016970
v 0.0006000 0.0013828 0.0009184
v 0.0040000 0.0013828 0.0009184
v 0.0006000 0.0012796 0.0004000
v 0.0040000 0.0012796 0.0004000
v 0.0006304 0.0012305 0.0001531
v 0.0007172 0.0012563 0.0002828
v 0.0008469 0.0012735 0.0003696
v 0.0010000 0.0012796 0.0004000
v 0.0006004 0.0045185 0.0022174
v -0.0005996 0.0045185 0.0022174
v -0.0005996 0.0036000 0.0024000
v 0.0006004 0.0036000 0.0024000
v 0.0006004 0.0052970 0.0016970
v -0.0005996 0.0052970 0.0016970
v 0.0006004 0.0058174 0.0009185
v -0.0005996 0.0058174 0.0009185
v 0.0006004 0.0060000 -0.0000000
v -0.0005996 0.0060000 -0.0000000
v 0.0006004 0.0058174 -0.0009185
v -0.0005996 0.0058174 -0.0009185
v 0.0006004 0.0052970 -0.0016970
v -0.0005996 0.0052970 -0.0016970
v 0.0006004 0.0045185 -0.0022174
v -0.0005996 0.0045185 -0.0022174
v 0.0006004 0.0036000 -0.0024000
v -0.0005996 0.0036000 -0.0024000
v 0.0006004 0.0026815 -0.0022174
v -0.0005996 0.0026815 -0.0022174
v 0.0006004 0.0019030 -0.0016970
v -0.0005996 0.0019030 -0.0016970
v 0.0006004 0.0013826 -0.0009185
v -0.0005996 0.0013826 -0.0009185
v 0.0006004 0.0012000 -0.0000000
v -0.0005996 0.0012000 -0.0000000
v 0.0006004 0.0013826 0.0009185
v -0.0005996 0.0013826 0.0009185
v 0.0006004 0.0019030 0.0016970
v -0.0005996 0.0019030 0.0016970
v 0.0006004 0.0026815 0.0022174
v -0.0005996 0.0026815 0.0022174
v -0.0006304 0.0012305 0.0001531
v -0.0006000 0.0012000 -0.0000000
v -0.0006000 0.0012796 0.0004000
v -0.0007172 0.0012563 0.0002828
v -0.0008469 0.0012735 0.0003696
v -0.0010000 0.0012796 0.0004000
v -0.0006000 0.0013828 0.0009184
v -0.0032000 0.0013828 0.0009184
v -0.0032000 0.0012796 0.0004000
v -0.0006000 0.0019030 0.0016970
v -0.0032000 0.0019030 0.0016970
v -0.0006000 0.0026816 0.0022172
v -0.0032000 0.0026816 0.0022172
v -0.0006000 0.0036000 0.0023999
v -0.0032000 0.0036000 0.0023999
v -0.0006000 0.0045184 0.0022172
v -0.0032000 0.0045184 0.0022172
v -0.0006000 0.0052970 0.0016970
v -0.0032000 0.0052970 0.0016970
v -0.0006000 0.0058172 0.0009184
v -0.0032000 0.0058172 0.0009184
v -0.0006000 0.0059204 0.0004000
v -0.0032000 0.0059204 0.0004000
v -0.0006000 0.0060000 -0.0000000
v -0.0006304 0.0059695 0.0001531
v -0.0007172 0.0059437 0.0002828
v -0.0008469 0.0059265 0.0003696
v -0.0010000 0.0059204 0.0004000
v -0.0006304 0.0059695 -0.0001531
v -0.0006000 0.0059204 -0.0004000
v -0.0007172 0.0059437 -0.0002828
v -0.0008469 0.0059265 -0.0003696
v -0.0010000 0.0059204 -0.0004000
v -0.0006000 0.0058172 -0.0009184
v -0.0032000 0.0058172 -0.0009184
v -0.0032000 0.0059204 -0.0004000
v -0.0006000 0.0052970 -0.0016970
v -0.0032000 0.0052970 -0.0016970
v -0.0006000 0.0045184 -0.0022172
v -0.0032000 0.0045184 -0.0022172
v -0.0006000 0.0036000 -0.0023999
v -0.0032000 0.0036000 -0.0023999
v -0.0006000 0.0026816 -0.0022172
v -0.0032000 0.0026816 -0.0022172
v -0.0006000 0.0019030 -0.0016970
v -0.0032000 0.0019030 -0.0016970
v -0.0006000 0.0013828 -0.0009184
v -0.0032000 0.0013828 -0.0009184
v -0.0006000 0.0012796 -0.0004000
v -0.0032000 0.0012796 -0.0004000
v -0.0006304 0.0012305 -0.0001531
v -0.0007172 0.0012563 -0.0002828
v -0.0008469 0.0012735 -0.0003696
v -0.0010000 0.0012796 -0.0004000
v -0.0032000 0.0006435 -0.0012246
v -0.0032000 0.0013826 -0.0009185
v -0.0032000 0.0012000 -0.0000000
v -0.0032000 0.0004000 -0.0000000
v -0.0032000 0.0013373 -0.0022627
v -0.0032000 0.0023754 -0.0029565
v -0.0032000 0.0026815 -0.0022174
v -0.0032000 0.0036000 -0.0032000
v -0.0032000 0.0036000 -0.0024000
v -0.0032000 0.0048246 -0.0029565
v -0.0032000 0.0045185 -0.0022174
v -0.0032000 0.0058627 -0.0022627
v -0.0032000 0.0065565 -0.0012246
v -0.0032000 0.0058174 -0.0009185
v -0.0032000 0.0068000 -0.0000000
v -0.0032000 0.0060000 -0.0000000
v -0.0032000 0.0065565 0.0012246
v -0.0032000 0.0058174 0.0009185
v -0.0032000 0.0058627 0.0022627
v -0.0032000 0.0048246 0.0029565
v -0.0032000 0.0045185 0.0022174
v -0.0032000 0.0036000 0.0032000
v -0.0032000 0.0036000 0.0024000
v -0.0032000 0.0023754 0.0029565
v -0.0032000 0.0026815 0.0022174
v -0.0032000 0.0013373 0.0022627
v -0.0032000 0.0006435 0.0012246
v -0.0032000 0.0013826 0.0009185
v -0.0040000 0.0023754 0.0029565
v -0.0040000 0.0036000 0.0032000
v -0.0040000 0.0013373 0.0022627
v -0.0040000 0.0006435 0.0012246
v -0.0040000 0.0004000 -0.0000000
v -0.0040000 0.0006435 -0.0012246
v -0.0040000 0.0013373 -0.0022627
v -0.0040000 0.0023754 -0.0029565
v -0.0040000 0.0036000 -0.0032000
v -0.0040000 0.0048246 -0.0029565
v -0.0040000 0.0058627 -0.0022627
v -0.0040000 0.0065565 -0.0012246
v -0.0040000 0.0068000 -0.0000000
v -0.0040000 0.0065565 0.0012246
v -0.0040000 0.0058627 0.0022627
v -0.0040000 0.0048246 0.0029565
v -0.0006304 0.0020305 0.0001531
v -0.0006000 0.0020000 -0.0000000
v -0.0007172 0.0020563 0.0002828
v -0.0008469 0.0020735 0.0003696
v -0.0010000 0.0020796 0.0004000
v -0.0039996 0.0020796 0.0004000
v -0.0009996 0.0020796 0.0004000
v -0.0009996 0.0012796 0.0004000
v -0.0039996 0.0012796 0.0004000
v -0.0039996 0.0059204 0.0004000
v -0.0009996 0.0059204 0.0004000
v -0.0009996 0.0051204 0.0004000
v -0.0039996 0.0051204 0.0004000
v -0.0006000 0.0052000 -0.0000000
v -0.0006304 0.0051695 0.0001531
v -0.0007172 0.0051437 0.0002828
v -0.0008469 0.0051265 0.0003696
v -0.0010000 0.0051204 0.0004000
v -0.0006304 0.0051695 -0.0001531
v -0.0007172 0.0051437 -0.0002828
v -0.0008469 0.0051265 -0.0003696
v -0.0010000 0.0051204 -0.0004000
v -0.0009996 0.0051204 -0.0004000
v -0.0009996 0.0059204 -0.0004000
v -0.0039996 0.0059204 -0.0004000
v -0.0039996 0.0051204 -0.0004000
v -0.0040000 0.0026815 0.0022174
v -0.0040000 0.0036000 0.0024000
v -0.0040000 0.0019030 0.0016970
v -0.0040000 0.0013826 0.0009185
v -0.0040000 0.0012000 -0.0000000
v -0.0040000 0.0013826 -0.0009185
v -0.0040000 0.0019030 -0.0016970
v -0.0040000 0.0026815 -0.0022174
v -0.0040000 0.0036000 -0.0024000
v -0.0040000 0.0045185 -0.0022174
v -0.0040000 0.0052970 -0.0016970
v -0.0040000 0.0058174 -0.0009185
v -0.0040000 0.0060000 -0.0000000
v -0.0040000 0.0058174 0.0009185
v -0.0040000 0.0052970 0.0016970
v -0.0040000 0.0045185 0.0022174
v -0.0009996 0.0012796 -0.0004000
v -0.0009996 0.0020796 -0.0004000
v -0.0039996 0.0020796 -0.0004000
v -0.0039996 0.0012796 -0.0004000
v -0.0006304 0.0020305 -0.0001531
v -0.0007172 0.0020563 -0.0002828
v -0.0008469 0.0020735 -0.0003696
v -0.0010000 0.0020796 -0.0004000
v -0.0006000 0.0020796 0.0004000
v -0.0006000 0.0021220 0.0006124
v -0.0040000 0.0020796 0.0004000
v -0.0040000 0.0021220 0.0006124
v -0.0040000 0.0024688 0.0011314
v -0.0006000 0.0024688 0.0011314
v -0.0040000 0.0029879 0.0014781
v -0.0006000 0.0029879 0.0014781
v -0.0040000 0.0036002 0.0015999
v -0.0006000 0.0036002 0.0015999
v -0.0040000 0.0042124 0.0014780
v -0.0006000 0.0042124 0.0014780
v -0.0040000 0.0047314 0.0011312
v -0.0006000 0.0047314 0.0011312
v -0.0040000 0.0050781 0.0006121
v -0.0006000 0.0050781 0.0006121
v -0.0040000 0.0050780 0.0006124
v -0.0040000 0.0051204 0.0004000
v -0.0006000 0.0051204 0.0004000
v -0.0006000 0.0050780 0.0006124
v -0.0006000 0.0051204 -0.0004000
v -0.0006000 0.0050780 -0.0006124
v -0.0040000 0.0051204 -0.0004000
v -0.0040000 0.0050780 -0.0006124
v -0.0040000 0.0047312 -0.0011314
v -0.0006000 0.0047312 -0.0011314
v -0.0040000 0.0042121 -0.0014781
v -0.0006000 0.0042121 -0.0014781
v -0.0040000 0.0035998 -0.0015999
v -0.0006000 0.0035998 -0.0015999
v -0.0040000 0.0029876 -0.0014780
v -0.0006000 0.0029876 -0.0014780
v -0.0040000 0.0024686 -0.0011312
v -0.0006000 0.0024686 -0.0011312
v -0.0040000 0.0021219 -0.0006121
v -0.0006000 0.0021219 -0.0006121
v -0.0040000 0.0021220 -0.0006124
v -0.0040000 0.0020796 -0.0004000
v -0.0006000 0.0020796 -0.0004000
v -0.0006000 0.0021220 -0.0006124
v -0.0005996 0.0036000 0.0016000
v -0.0005996 0.0042123 0.0014782
v 0.0006004 0.0042123 0.0014782
v 0.0006004 0.0036000 0.0016000
v -0.0005996 0.0047314 0.0011314
v 0.0006004 0.0047314 0.0011314
v -0.0005996 0.0050782 0.0006123
v 0.0006004 0.0050782 0.0006123
v -0.0005996 0.0052000 -0.0000000
v 0.0006004 0.0052000 -0.0000000
v -0.0005996 0.0050782 -0.0006123
v 0.0006004 0.0050782 -0.0006123
v -0.0005996 0.0047314 -0.0011314
v 0.0006004 0.0047314 -0.0011314
v -0.0005996 0.0042123 -0.0014782
v 0.0006004 0.0042123 -0.0014782
v -0.0005996 0.0036000 -0.0016000
v 0.0006004 0.0036000 -0.0016000
v -0.0005996 0.0029877 -0.0014782
v 0.0006004 0.0029877 -0.0014782
v -0.0005996 0.0024686 -0.0011314
v 0.0006004 0.0024686 -0.0011314
v -0.0005996 0.0021218 -0.0006123
v 0.0006004 0.0021218 -0.0006123
v -0.0005996 0.0020000 -0.0000000
v 0.0006004 0.0020000 -0.0000000
v -0.0005996 0.0021218 0.0006123
v 0.0006004 0.0021218 0.0006123
v -0.0005996 0.0024686 0.0011314
v 0.0006004 0.0024686 0.0011314
v -0.0005996 0.0029877 0.0014782
v 0.0006004 0.0029877 0.0014782
v 0.0006000 0.0020796 -0.0004000
v 0.0006000 0.0020000 -0.0000000
v 0.0006304 0.0020305 -0.0001531
v 0.0007172 0.0020563 -0.0002828
v 0.0008469 0.0020735 -0.0003696
v 0.0010000 0.0020796 -0.0004000
v 0.0006000 0.0021220 -0.0006124
v 0.0040000 0.0020796 -0.0004000
v 0.0040000 0.0021220 -0.0006124
v 0.0040000 0.0024688 -0.0011314
v 0.0006000 0.0024688 -0.0011314
v 0.0040000 0.0029879 -0.0014781
v 0.0006000 0.0029879 -0.0014781
v 0.0040000 0.0036002 -0.0015999
v 0.0006000 0.0036002 -0.0015999
v 0.0040000 0.0042124 -0.0014780
v 0.0006000 0.0042124 -0.0014780
v 0.0040000 0.0047314 -0.0011312
v 0.0006000 0.0047314 -0.0011312
v 0.0040000 0.0050781 -0.0006121
v 0.0006000 0.0050781 -0.0006121
v 0.0040000 0.0050780 -0.0006124
v 0.0040000 0.0051204 -0.0004000
v 0.0006000 0.0051204 -0.0004000
v 0.0006000 0.0050780 -0.0006124
v 0.0006304 0.0051695 -0.0001531
v 0.0006000 0.0052000 -0.0000000
v 0.0007172 0.0051437 -0.0002828
v 0.0008469 0.0051265 -0.0003696
v 0.0010000 0.0051204 -0.0004000
v 0.0006000 0.0051204 0.0004000
v 0.0006304 0.0051695 0.0001531
v 0.0007172 0.0051437 0.0002828
v 0.0008469 0.0051265 0.0003696
v 0.0010000 0.0051204 0.0004000
v 0.0006000 0.0050780 0.0006124
v 0.0040000 0.0051204 0.0004000
v 0.0040000 0.0050780 0.0006124
v 0.0040000 0.0047312 0.0011314
v 0.0006000 0.0047312 0.0011314
v 0.0040000 0.0042121 0.0014781
v 0.0006000 0.0042121 0.0014781
v 0.0040000 0.0035998 0.0015999
v 0.0006000 0.0035998 0.0015999
v 0.0040000 0.0029876 0.0014780
v 0.0006000 0.0029876 0.0014780
v 0.0040000 0.0024686 0.0011312
v 0.0006000 0.0024686 0.0011312
v 0.0040000 0.0021219 0.0006121
v 0.0006000 0.0021219 0.0006121
v 0.0040000 0.0021220 0.0006124
v 0.0040000 0.0020796 0.0004000
v 0.0006000 0.0020796 0.0004000
v 0.0006000 0.0021220 0.0006124
v 0.0006304 0.0020305 0.0001531
v 0.0007172 0.0020563 0.0002828
v 0.0008469 0.0020735 0.0003696
v 0.0010000 0.0020796 0.0004000
v -0.0016000 0.0055944 0.0014288
v -0.0014469 0.0055772 0.0014546
v -0.0014469 0.0055064 0.0013838
v -0.0016000 0.0055236 0.0013580
v -0.0013172 0.0055281 0.0015282
v -0.0013172 0.0054573 0.0014574
v -0.0012304 0.0054546 0.0016382
v -0.0012304 0.0053838 0.0015674
v -0.0012000 0.0053680 0.0017680
v -0.0012000 0.0052972 0.0016972
v -0.0014469 0.0049838 0.0019064
v -0.0014469 0.0050546 0.0019772
v -0.0016000 0.0050288 0.0019944
v -0.0016000 0.0049580 0.0019236
v -0.0013172 0.0050574 0.0018573
v -0.0013172 0.0051282 0.0019281
v -0.0012304 0.0051674 0.0017838
v -0.0012304 0.0052382 0.0018546
v -0.0012000 0.0053676 0.0017676
v -0.0012304 0.0054542 0.0016378
v -0.0014469 0.0055768 0.0014542
v -0.0016000 0.0055940 0.0014284
v -0.0013172 0.0055277 0.0015278
v -0.0014469 0.0050542 0.0019768
v -0.0012304 0.0052378 0.0018542
v -0.0016000 0.0050284 0.0019940
v -0.0013172 0.0051278 0.0019277
v -0.0032000 0.0055236 0.0013580
v -0.0032000 0.0055940 0.0014284
v -0.0032000 0.0049580 0.0019236
v -0.0032000 0.0050284 0.0019940
v -0.0032000 0.0055944 0.0014288
v -0.0032000 0.0053676 0.0017676
v -0.0032000 0.0050288 0.0019944
v -0.0016000 0.0050288 -0.0019944
v -0.0014469 0.0050546 -0.0019772
v -0.0014469 0.0049838 -0.0019064
v -0.0016000 0.0049580 -0.0019236
v -0.0013172 0.0051282 -0.0019281
v -0.0013172 0.0050574 -0.0018573
v -0.0012304 0.0052382 -0.0018546
v -0.0012304 0.0051674 -0.0017838
v -0.0012000 0.0053680 -0.0017680
v -0.0012000 0.0052972 -0.0016972
v -0.0014469 0.0055064 -0.0013838
v -0.0014469 0.0055772 -0.0014546
v -0.0016000 0.0055944 -0.0014288
v -0.0016000 0.0055236 -0.0013580
v -0.0013172 0.0054573 -0.0014574
v -0.0013172 0.0055281 -0.0015282
v -0.0012304 0.0053838 -0.0015674
v -0.0012304 0.0054546 -0.0016382
v -0.0012000 0.0053676 -0.0017676
v -0.0012304 0.0052378 -0.0018542
v -0.0014469 0.0050542 -0.0019768
v -0.0016000 0.0050284 -0.0019940
v -0.0013172 0.0051278 -0.0019277
v -0.0014469 0.0055768 -0.0014542
v -0.0012304 0.0054542 -0.0016378
v -0.0016000 0.0055940 -0.0014284
v -0.0013172 0.0055277 -0.0015278
v -0.0032000 0.0049580 -0.0019236
v -0.0032000 0.0050284 -0.0019940
v -0.0032000 0.0055236 -0.0013580
v -0.0032000 0.0055940 -0.0014284
v -0.0032000 0.0050288 -0.0019944
v -0.0032000 0.0053676 -0.0017676
v -0.0032000 0.0055944 -0.0014288
v -0.0016000 0.0016056 -0.0014288
v -0.0014469 0.0016228 -0.0014546
v -0.0014469 0.0016936 -0.0013838
v -0.0016000 0.0016764 -0.0013580
v -0.0013172 0.0016719 -0.0015282
v -0.0013172 0.0017427 -0.0014574
v -0.0012304 0.0017454 -0.0016382
v -0.0012304 0.0018162 -0.0015674
v -0.0012000 0.0018320 -0.0017680
v -0.0012000 0.0019028 -0.0016972
v -0.0014469 0.0022162 -0.0019064
v -0.0014469 0.0021454 -0.0019772
v -0.0016000 0.0021712 -0.0019944
v -0.0016000 0.0022420 -0.0019236
v -0.0013172 0.0021426 -0.0018573
v -0.0013172 0.0020718 -0.0019281
v -0.0012304 0.0020326 -0.0017838
v -0.0012304 0.0019618 -0.0018546
v -0.0012000 0.0018324 -0.0017676
v -0.0012304 0.0017458 -0.0016378
v -0.0014469 0.0016232 -0.0014542
v -0.0016000 0.0016060 -0.0014284
v -0.0013172 0.0016723 -0.0015278
v -0.0014469 0.0021458 -0.0019768
v -0.0012304 0.0019622 -0.0018542
v -0.0016000 0.0021716 -0.0019940
v -0.0013172 0.0020722 -0.0019277
v -0.0032000 0.0016764 -0.0013580
v -0.0032000 0.0016060 -0.0014284
v -0.0032000 0.0022420 -0.0019236
v -0.0032000 0.0021716 -0.0019940
v -0.0032000 0.0016056 -0.0014288
v -0.0032000 0.0018324 -0.0017676
v -0.0032000 0.0021712 -0.0019944
v -0.0016000 0.0021712 0.0019944
v -0.0014469 0.0021454 0.0019772
v -0.0014469 0.0022162 0.0019064
v -0.0016000 0.0022420 0.0019236
v -0.0013172 0.0020718 0.0019281
v -0.0013172 0.0021426 0.0018573
v -0.0012304 0.0019618 0.0018546
v -0.0012304 0.0020326 0.0017838
v -0.0012000 0.0018320 0.0017680
v -0.0012000 0.0019028 0.0016972
v -0.0014469 0.0016936 0.0013838
v -0.0014469 0.0016228 0.0014546
v -0.0016000 0.0016056 0.0014288
v -0.0016000 0.0016764 0.0013580
v -0.0013172 0.0017427 0.0014574
v -0.0013172 0.0016719 0.0015282
v -0.0012304 0.0018162 0.0015674
v -0.0012304 0.0017454 0.0016382
v -0.0012000 0.0018324 0.0017676
v -0.0012304 0.0019622 0.0018542
v -0.0014469 0.0021458 0.0019768
v -0.0016000 0.0021716 0.0019940
v -0.0013172 0.0020722 0.0019277
v -0.0014469 0.0016232 0.0014542
v -0.0012304 0.0017458 0.0016378
v -0.0016000 0.0016060 0.0014284
v -0.0013172 0.0016723 0.0015278
v -0.0032000 0.0022420 0.0019236
v -0.0032000 0.0021716 0.0019940
v -0.0032000 0.0016764 0.0013580
v -0.0032000 0.0016060 0.0014284
v -0.0032000 0.0021712 0.0019944
v -0.0032000 0.0018324 0.0017676
v -0.0032000 0.0016056 0.0014288
v 0.0016000 0.0016056 0.0014288
v 0.0014469 0.0016228 0.0014546
v 0.0014469 0.0016936 0.0013838
v 0.0016000 0.0016764 0.0013580
v 0.0013172 0.0016719 0.0015282
v 0.0013172 0.0017427 0.0014574
v 0.0012304 0.0017454 0.0016382
v 0.0012304 0.0018162 0.0015674
v 0.0012000 0.0018320 0.0017680
v 0.0012000 0.0019028 0.0016972
v 0.0014469 0.0022162 0.0019064
v 0.0014469 0.0021454 0.0019772
v 0.0016000 0.0021712 0.0019944
v 0.0016000 0.0022420 0.0019236
v 0.0013172 0.0021426 0.0018573
v 0.0013172 0.0020718 0.0019281
v 0.0012304 0.0020326 0.0017838
v 0.0012304 0.0019618 0.0018546
v 0.0012000 0.0018324 0.0017676
v 0.0012304 0.0017458 0.0016378
v 0.0014469 0.0016232 0.0014542
v 0.0016000 0.0016060 0.0014284
v 0.0013172 0.0016723 0.0015278
v 0.0014469 0.0021458 0.0019768
v 0.0012304 0.0019622 0.0018542
v 0.0016000 0.0021716 0.0019940
v 0.0013172 0.0020722 0.0019277
v 0.0040000 0.0016060 0.0014284
v 0.0040000 0.0016764 0.0013580
v 0.0040000 0.0021716 0.0019940
v 0.0040000 0.0022420 0.0019236
v 0.0040000 0.0016056 0.0014288
v 0.0040000 0.0018324 0.0017676
v 0.0040000 0.0021712 0.0019944
v 0.0016000 0.0021712 -0.0019944
v 0.0014469 0.0021454 -0.0019772
v 0.0014469 0.0022162 -0.0019064
v 0.0016000 0.0022420 -0.0019236
v 0.0013172 0.0020718 -0.0019281
v 0.0013172 0.0021426 -0.0018573
v 0.0012304 0.0019618 -0.0018546
v 0.0012304 0.0020326 -0.0017838
v 0.0012000 0.0018320 -0.0017680
v 0.0012000 0.0019028 -0.0016972
v 0.0014469 0.0016936 -0.0013838
v 0.0014469 0.0016228 -0.0014546
v 0.0016000 0.0016056 -0.0014288
v 0.0016000 0.0016764 -0.0013580
v 0.0013172 0.0017427 -0.0014574
v 0.0013172 0.0016719 -0.0015282
v 0.0012304 0.0018162 -0.0015674
v 0.0012304 0.0017454 -0.0016382
v 0.0012000 0.0018324 -0.0017676
v 0.0012304 0.0019622 -0.0018542
v 0.0014469 0.0021458 -0.0019768
v 0.0016000 0.0021716 -0.0019940
v 0.0013172 0.0020722 -0.0019277
v 0.0014469 0.0016232 -0.0014542
v 0.0012304 0.0017458 -0.0016378
v 0.0016000 0.0016060 -0.0014284
v 0.0013172 0.0016723 -0.0015278
v 0.0040000 0.0021716 -0.0019940
v 0.0040000 0.0022420 -0.0019236
v 0.0040000 0.0016060 -0.0014284
v 0.0040000 0.0016764 -0.0013580
v 0.0040000 0.0021712 -0.0019944
v 0.0040000 0.0018324 -0.0017676
v 0.0040000 0.0016056 -0.0014288
v 0.0016000 0.0055944 -0.0014288
v 0.0014469 0.0055772 -0.0014546
v 0.0014469 0.0055064 -0.0013838
v 0.0016000 0.0055236 -0.0013580
v 0.0013172 0.0055281 -0.0015282
v 0.0013172 0.0054573 -0.0014574
v 0.0012304 0.0054546 -0.0016382
v 0.0012304 0.0053838 -0.0015674
v 0.0012000 0.0053680 -0.0017680
v 0.0012000 0.0052972 -0.0016972
v 0.0014469 0.0049838 -0.0019064
v 0.0014469 0.0050546 -0.0019772
v 0.0016000 0.0050288 -0.0019944
v 0.0016000 0.0049580 -0.0019236
v 0.0013172 0.0050574 -0.0018573
v 0.0013172 0.0051282 -0.0019281
v 0.0012304 0.0051674 -0.0017838
v 0.0012304 0.0052382 -0.0018546
v 0.0012000 0.0053676 -0.0017676
v 0.0012304 0.0054542 -0.0016378
v 0.0014469 0.0055768 -0.0014542
v 0.0016000 0.0055940 -0.0014284
v 0.0013172 0.0055277 -0.0015278
v 0.0014469 0.0050542 -0.0019768
v 0.0012304 0.0052378 -0.0018542
v 0.0016000 0.0050284 -0.0019940
v 0.0013172 0.0051278 -0.0019277
v 0.0040000 0.0055236 -0.0013580
v 0.0040000 0.0055940 -0.0014284
v 0.0040000 0.0049580 -0.0019236
v 0.0040000 0.0050284 -0.0019940
v 0.0040000 0.0055944 -0.0014288
v 0.0040000 0.0053676 -0.0017676
v 0.0040000 0.0050288 -0.0019944
v 0.0016000 0.0050288 0.0019944
v 0.0014469 0.0050546 0.0019772
v 0.0014469 0.0049838 0.0019064
v 0.0016000 0.0049580 0.0019236
v 0.0013172 0.0051282 0.0019281
v 0.0013172 0.0050574 0.0018573
v 0.0012304 0.0052382 0.0018546
v 0.0012304 0.0051674 0.0017838
v 0.0012000 0.0053680 0.0017680
v 0.0012000 0.0052972 0.0016972
v 0.0014469 0.0055064 0.0013838
v 0.0014469 0.0055772 0.0014546
v 0.0016000 0.0055944 0.0014288
v 0.0016000 0.0055236 0.0013580
v 0.0013172 0.0054573 0.0014574
v 0.0013172 0.0055281 0.0015282
v 0.0012304 0.0053838 0.0015674
v 0.0012304 0.0054546 0.0016382
v 0.0012000 0.0053676 0.0017676
v 0.0012304 0.0052378 0.0018542
v 0.0014469 0.0050542 0.0019768
v 0.0016000 0.0050284 0.0019940
v 0.0013172 0.0051278 0.0019277
v 0.0014469 0.0055768 0.0014542
v 0.0012304 0.0054542 0.0016378
v 0.0016000 0.0055940 0.0014284
v 0.0013172 0.0055277 0.0015278
v 0.0040000 0.0049580 0.0019236
v 0.0040000 0.0050284 0.0019940
v 0.0040000 0.0055236 0.0013580
v 0.0040000 0.0055940 0.0014284
v 0.0040000 0.0050288 0.0019944
v 0.0040000 0.0053676 0.0017676
v 0.0040000 0.0055944 0.0014288
v 0.0035600 0.0026508 0.0022912
v 0.0035600 0.0021852 0.0019800
v 0.0040000 0.0026432 0.0023096
v 0.0035600 0.0036000 0.0024800
v 0.0040000 0.0036000 0.0025000
v 0.0035600 0.0045492 0.0022912
v 0.0040000 0.0045568 0.0023096
v 0.0035600 0.0050148 0.0019800
v 0.0032000 0.0026816 0.0022172
v 0.0032000 0.0022420 0.0019236
v 0.0032000 0.0036000 0.0024000
v 0.0032000 0.0045184 0.0022172
v 0.0032000 0.0049580 0.0019236
v 0.0035600 0.0045492 -0.0022912
v 0.0035600 0.0050148 -0.0019800
v 0.0040000 0.0045568 -0.0023096
v 0.0035600 0.0036000 -0.0024800
v 0.0040000 0.0036000 -0.0025000
v 0.0035600 0.0026508 -0.0022912
v 0.0040000 0.0026432 -0.0023096
v 0.0035600 0.0021852 -0.0019800
v 0.0032000 0.0045184 -0.0022172
v 0.0032000 0.0049580 -0.0019236
v 0.0032000 0.0036000 -0.0024000
v 0.0032000 0.0026816 -0.0022172
v 0.0032000 0.0022420 -0.0019236
v 0.0077696 0.0059695 -0.0001531
v 0.0078000 0.0060000 -0.0000000
v 0.0078000 0.0059204 -0.0004000
v 0.0076828 0.0059437 -0.0002828
v 0.0075531 0.0059265 -0.0003696
v 0.0074000 0.0059204 -0.0004000
v 0.0078000 0.0058172 -0.0009184
v 0.0078000 0.0052970 -0.0016970
v 0.0078000 0.0045184 -0.0022172
v 0.0078000 0.0036000 -0.0023999
v 0.0078000 0.0026816 -0.0022172
v 0.0078000 0.0019030 -0.0016970
v 0.0078000 0.0013828 -0.0009184
v 0.0078000 0.0012796 -0.0004000
v 0.0078000 0.0012000 -0.0000000
v 0.0077696 0.0012305 -0.0001531
v 0.0076828 0.0012563 -0.0002828
v 0.0075531 0.0012735 -0.0003696
v 0.0074000 0.0012796 -0.0004000
v 0.0077696 0.0012305 0.0001531
v 0.0078000 0.0012796 0.0004000
v 0.0076828 0.0012563 0.0002828
v 0.0075531 0.0012735 0.0003696
v 0.0074000 0.0012796 0.0004000
v 0.0078000 0.0013828 0.0009184
v 0.0078000 0.0019030 0.0016970
v 0.0078000 0.0026816 0.0022172
v 0.0078000 0.0036000 0.0023999
v 0.0078000 0.0045184 0.0022172
v 0.0078000 0.0052970 0.0016970
v 0.0078000 0.0058172 0.0009184
v 0.0078000 0.0059204 0.0004000
v 0.0077696 0.0059695 0.0001531
v 0.0076828 0.0059437 0.0002828
v 0.0075531 0.0059265 0.0003696
v 0.0074000 0.0059204 0.0004000
v 0.0078000 0.0026815 0.0022174
v 0.0086000 0.0026815 0.0022174
v 0.0086000 0.0036000 0.0024000
v 0.0078000 0.0036000 0.0024000
v 0.0086000 0.0019030 0.0016970
v 0.0078000 0.0013826 0.0009185
v 0.0086000 0.0013826 0.0009185
v 0.0086000 0.0012000 -0.0000000
v 0.0078000 0.0013826 -0.0009185
v 0.0086000 0.0013826 -0.0009185
v 0.0086000 0.0019030 -0.0016970
v 0.0078000 0.0026815 -0.0022174
v 0.0086000 0.0026815 -0.0022174
v 0.0078000 0.0036000 -0.0024000
v 0.0086000 0.0036000 -0.0024000
v 0.0078000 0.0045185 -0.0022174
v 0.0086000 0.0045185 -0.0022174
v 0.0086000 0.0052970 -0.0016970
v 0.0078000 0.0058174 -0.0009185
v 0.0086000 0.0058174 -0.0009185
v 0.0086000 0.0060000 -0.0000000
v 0.0078000 0.0058174 0.0009185
v 0.0086000 0.0058174 0.0009185
v 0.0086000 0.0052970 0.0016970
v 0.0078000 0.0045185 0.0022174
v 0.0086000 0.0045185 0.0022174
v 0.0086304 0.0034469 0.0023695
v 0.0086000 0.0032000 0.0023204
v 0.0087172 0.0033172 0.0023437
v 0.0088469 0.0032304 0.0023265
v 0.0090000 0.0032000 0.0023204
v 0.0112000 0.0032000 0.0023204
v 0.0086000 0.0026816 0.0022172
v 0.0112000 0.0026816 0.0022172
v 0.0112000 0.0019030 0.0016970
v 0.0086000 0.0013828 0.0009184
v 0.0112000 0.0013828 0.0009184
v 0.0086000 0.0012001 0.0000000
v 0.0112000 0.0012001 0.0000000
v 0.0086000 0.0013828 -0.0009184
v 0.0112000 0.0013828 -0.0009184
v 0.0112000 0.0019030 -0.0016970
v 0.0086000 0.0026816 -0.0022172
v 0.0112000 0.0026816 -0.0022172
v 0.0086000 0.0032000 -0.0023204
v 0.0112000 0.0032000 -0.0023204
v 0.0086304 0.0034469 -0.0023695
v 0.0087172 0.0033172 -0.0023437
v 0.0088469 0.0032304 -0.0023265
v 0.0090000 0.0032000 -0.0023204
v 0.0086304 0.0037531 -0.0023695
v 0.0086000 0.0040000 -0.0023204
v 0.0087172 0.0038828 -0.0023437
v 0.0088469 0.0039696 -0.0023265
v 0.0090000 0.0040000 -0.0023204
v 0.0112000 0.0040000 -0.0023204
v 0.0086000 0.0045184 -0.0022172
v 0.0112000 0.0045184 -0.0022172
v 0.0112000 0.0052970 -0.0016970
v 0.0086000 0.0058172 -0.0009184
v 0.0112000 0.0058172 -0.0009184
v 0.0086000 0.0059999 -0.0000000
v 0.0112000 0.0059999 -0.0000000
v 0.0086000 0.0058172 0.0009184
v 0.0112000 0.0058172 0.0009184
v 0.0112000 0.0052970 0.0016970
v 0.0086000 0.0045184 0.0022172
v 0.0112000 0.0045184 0.0022172
v 0.0086000 0.0040000 0.0023204
v 0.0112000 0.0040000 0.0023204
v 0.0086304 0.0037531 0.0023695
v 0.0087172 0.0038828 0.0023437
v 0.0088469 0.0039696 0.0023265
v 0.0090000 0.0040000 0.0023204
v 0.0112000 0.0040000 0.0025204
v 0.0112000 0.0045952 0.0024020
v 0.0112000 0.0054384 0.0018384
v 0.0112000 0.0052972 0.0016972
v 0.0112000 0.0060020 0.0009952
v 0.0112000 0.0062000 -0.0000000
v 0.0112000 0.0060000 -0.0000000
v 0.0112000 0.0060020 -0.0009952
v 0.0112000 0.0054384 -0.0018384
v 0.0112000 0.0052972 -0.0016972
v 0.0112000 0.0045952 -0.0024020
v 0.0112000 0.0040000 -0.0025204
v 0.0112000 0.0032000 -0.0025204
v 0.0112000 0.0026048 -0.0024020
v 0.0112000 0.0017616 -0.0018384
v 0.0112000 0.0019028 -0.0016972
v 0.0112000 0.0011980 -0.0009952
v 0.0112000 0.0010000 -0.0000000
v 0.0112000 0.0012000 -0.0000000
v 0.0112000 0.0011980 0.0009952
v 0.0112000 0.0017616 0.0018384
v 0.0112000 0.0019028 0.0016972
v 0.0112000 0.0026048 0.0024020
v 0.0112000 0.0032000 0.0025204
v 0.0120000 0.0026048 0.0024020
v 0.0120000 0.0032000 0.0025204
v 0.0112000 0.0017613 0.0018383
v 0.0120000 0.0017613 0.0018383
v 0.0112000 0.0011978 0.0009947
v 0.0120000 0.0011978 0.0009947
v 0.0112000 0.0009999 -0.0000002
v 0.0120000 0.0009999 -0.0000002
v 0.0120000 0.0011980 -0.0009952
v 0.0112000 0.0017617 -0.0018387
v 0.0120000 0.0017617 -0.0018387
v 0.0112000 0.0026053 -0.0024022
v 0.0120000 0.0026053 -0.0024022
v 0.0120000 0.0032000 -0.0025204
v 0.0120000 0.0026048 -0.0024020
v 0.0120000 0.0045952 -0.0024020
v 0.0120000 0.0040000 -0.0025204
v 0.0112000 0.0054387 -0.0018383
v 0.0120000 0.0054387 -0.0018383
v 0.0112000 0.0060022 -0.0009947
v 0.0120000 0.0060022 -0.0009947
v 0.0112000 0.0062001 0.0000002
v 0.0120000 0.0062001 0.0000002
v 0.0120000 0.0060020 0.0009952
v 0.0112000 0.0054383 0.0018387
v 0.0120000 0.0054383 0.0018387
v 0.0112000 0.0045947 0.0024022
v 0.0120000 0.0045947 0.0024022
v 0.0120000 0.0040000 0.0025204
v 0.0120000 0.0045952 0.0024020
v 0.0086304 0.0034469 0.0015695
v 0.0086000 0.0036000 0.0016000
v 0.0087172 0.0033172 0.0015437
v 0.0088469 0.0032304 0.0015265
v 0.0090000 0.0032000 0.0015204
v 0.0112000 0.0032000 0.0015204
v 0.0120000 0.0032000 0.0015204
v 0.0120000 0.0029876 0.0014784
v 0.0120000 0.0024688 0.0011312
v 0.0120000 0.0017616 0.0018384
v 0.0120000 0.0021216 0.0006124
v 0.0120000 0.0011980 0.0009952
v 0.0120000 0.0020000 -0.0000000
v 0.0120000 0.0010000 -0.0000000
v 0.0120000 0.0021216 -0.0006124
v 0.0120000 0.0024688 -0.0011312
v 0.0120000 0.0017616 -0.0018384
v 0.0120000 0.0029876 -0.0014784
v 0.0120000 0.0032000 -0.0015204
v 0.0112000 0.0032000 -0.0015204
v 0.0090000 0.0032000 -0.0015204
v 0.0086000 0.0036000 -0.0016000
v 0.0086304 0.0034469 -0.0015695
v 0.0087172 0.0033172 -0.0015437
v 0.0088469 0.0032304 -0.0015265
v 0.0086304 0.0037531 -0.0015695
v 0.0087172 0.0038828 -0.0015437
v 0.0088469 0.0039696 -0.0015265
v 0.0090000 0.0040000 -0.0015204
v 0.0112000 0.0040000 -0.0015204
v 0.0120000 0.0040000 -0.0015204
v 0.0120000 0.0042124 -0.0014784
v 0.0120000 0.0047312 -0.0011312
v 0.0120000 0.0054384 -0.0018384
v 0.0120000 0.0050784 -0.0006124
v 0.0120000 0.0060020 -0.0009952
v 0.0120000 0.0052000 -0.0000000
v 0.0120000 0.0062000 -0.0000000
v 0.0120000 0.0050784 0.0006124
v 0.0120000 0.0047312 0.0011312
v 0.0120000 0.0054384 0.0018384
v 0.0120000 0.0042124 0.0014784
v 0.0120000 0.0040000 0.0015204
v 0.0112000 0.0040000 0.0015204
v 0.0090000 0.0040000 0.0015204
v 0.0086304 0.0037531 0.0015695
v 0.0087172 0.0038828 0.0015437
v 0.0088469 0.0039696 0.0015265
v 0.0086000 0.0032000 0.0015204
v 0.0086000 0.0029880 0.0014780
v 0.0120000 0.0029880 0.0014780
v 0.0120000 0.0029876 0.0014780
v 0.0120000 0.0024686 0.0011312
v 0.0086000 0.0024686 0.0011312
v 0.0086000 0.0029876 0.0014780
v 0.0120000 0.0021219 0.0006121
v 0.0086000 0.0021219 0.0006121
v 0.0120000 0.0020001 -0.0000002
v 0.0086000 0.0020001 -0.0000002
v 0.0120000 0.0021220 -0.0006124
v 0.0086000 0.0021220 -0.0006124
v 0.0120000 0.0024688 -0.0011314
v 0.0086000 0.0024688 -0.0011314
v 0.0120000 0.0029879 -0.0014781
v 0.0086000 0.0029879 -0.0014781
v 0.0086000 0.0032000 -0.0015204
v 0.0086000 0.0029880 -0.0014780
v 0.0120000 0.0029880 -0.0014780
v 0.0086000 0.0040000 -0.0015204
v 0.0086000 0.0042120 -0.0014780
v 0.0120000 0.0042120 -0.0014780
v 0.0120000 0.0042124 -0.0014780
v 0.0120000 0.0047314 -0.0011312
v 0.0086000 0.0047314 -0.0011312
v 0.0086000 0.0042124 -0.0014780
v 0.0120000 0.0050781 -0.0006121
v 0.0086000 0.0050781 -0.0006121
v 0.0120000 0.0051999 0.0000002
v 0.0086000 0.0051999 0.0000002
v 0.0120000 0.0050780 0.0006124
v 0.0086000 0.0050780 0.0006124
v 0.0120000 0.0047312 0.0011314
v 0.0086000 0.0047312 0.0011314
v 0.0120000 0.0042121 0.0014781
v 0.0086000 0.0042121 0.0014781
v 0.0086000 0.0040000 0.0015204
v 0.0086000 0.0042120 0.0014780
v 0.0120000 0.0042120 0.0014780
v 0.0086000 0.0029877 0.0014782
v 0.0078000 0.0029877 0.0014782
v 0.0078000 0.0036000 0.0016000
v 0.0086000 0.0024686 0.0011314
v 0.0078000 0.0024686 0.0011314
v 0.0086000 0.0021218 0.0006123
v 0.0078000 0.0021218 0.0006123
v 0.0086000 0.0020000 -0.0000000
v 0.0078000 0.0020000 -0.0000000
v 0.0086000 0.0021218 -0.0006123
v 0.0078000 0.0021218 -0.0006123
v 0.0086000 0.0024686 -0.0011314
v 0.0078000 0.0024686 -0.0011314
v 0.0086000 0.0029877 -0.0014782
v 0.0078000 0.0029877 -0.0014782
v 0.0078000 0.0036000 -0.0016000
v 0.0086000 0.0042123 -0.0014782
v 0.0078000 0.0042123 -0.0014782
v 0.0086000 0.0047314 -0.0011314
v 0.0078000 0.0047314 -0.0011314
v 0.0086000 0.0050782 -0.0006123
v 0.0078000 0.0050782 -0.0006123
v 0.0086000 0.0052000 -0.0000000
v 0.0078000 0.0052000 -0.0000000
v 0.0086000 0.0050782 0.0006123
v 0.0078000 0.0050782 0.0006123
v 0.0086000 0.0047314 0.0011314
v 0.0078000 0.0047314 0.0011314
v 0.0086000 0.0042123 0.0014782
v 0.0078000 0.0042123 0.0014782
v 0.0078000 0.0051204 -0.0004000
v 0.0077696 0.0051695 -0.0001531
v 0.0076828 0.0051437 -0.0002828
v 0.0075531 0.0051265 -0.0003696
v 0.0074000 0.0051204 -0.0004000
v 0.0078000 0.0050780 -0.0006124
v 0.0040000 0.0047312 -0.0011314
v 0.0078000 0.0047312 -0.0011314
v 0.0040000 0.0042121 -0.0014781
v 0.0078000 0.0042121 -0.0014781
v 0.0040000 0.0035998 -0.0015999
v 0.0078000 0.0035998 -0.0015999
v 0.0040000 0.0029876 -0.0014780
v 0.0078000 0.0029876 -0.0014780
v 0.0040000 0.0024686 -0.0011312
v 0.0078000 0.0024686 -0.0011312
v 0.0040000 0.0021219 -0.0006121
v 0.0078000 0.0021219 -0.0006121
v 0.0078000 0.0020796 -0.0004000
v 0.0078000 0.0021220 -0.0006124
v 0.0077696 0.0020305 -0.0001531
v 0.0076828 0.0020563 -0.0002828
v 0.0075531 0.0020735 -0.0003696
v 0.0074000 0.0020796 -0.0004000
v 0.0078000 0.0020796 0.0004000
v 0.0077696 0.0020305 0.0001531
v 0.0076828 0.0020563 0.0002828
v 0.0075531 0.0020735 0.0003696
v 0.0074000 0.0020796 0.0004000
v 0.0078000 0.0021220 0.0006124
v 0.0040000 0.0024688 0.0011314
v 0.0078000 0.0024688 0.0011314
v 0.0040000 0.0029879 0.0014781
v 0.0078000 0.0029879 0.0014781
v 0.0040000 0.0036002 0.0015999
v 0.0078000 0.0036002 0.0015999
v 0.0040000 0.0042124 0.0014780
v 0.0078000 0.0042124 0.0014780
v 0.0040000 0.0047314 0.0011312
v 0.0078000 0.0047314 0.0011312
v 0.0040000 0.0050781 0.0006121
v 0.0078000 0.0050781 0.0006121
v 0.0078000 0.0051204 0.0004000
v 0.0078000 0.0050780 0.0006124
v 0.0077696 0.0051695 0.0001531
v 0.0076828 0.0051437 0.0002828
v 0.0075531 0.0051265 0.0003696
v 0.0074000 0.0051204 0.0004000
v 0.0096000 0.0016056 0.0014288
v 0.0094469 0.0016228 0.0014546
v 0.0094469 0.0016936 0.0013838
v 0.0096000 0.0016764 0.0013580
v 0.0093172 0.0016719 0.0015282
v 0.0093172 0.0017427 0.0014574
v 0.0092304 0.0017454 0.0016382
v 0.0092304 0.0018162 0.0015674
v 0.0092000 0.0018320 0.0017680
v 0.0092000 0.0019028 0.0016972
v 0.0094469 0.0022162 0.0019064
v 0.0094469 0.0021454 0.0019772
v 0.0096000 0.0021712 0.0019944
v 0.0096000 0.0022420 0.0019236
v 0.0093172 0.0021426 0.0018573
v 0.0093172 0.0020718 0.0019281
v 0.0092304 0.0020326 0.0017838
v 0.0092304 0.0019618 0.0018546
v 0.0092000 0.0018324 0.0017676
v 0.0092304 0.0017458 0.0016378
v 0.0094469 0.0016232 0.0014542
v 0.0096000 0.0016060 0.0014284
v 0.0093172 0.0016723 0.0015278
v 0.0094469 0.0021458 0.0019768
v 0.0092304 0.0019622 0.0018542
v 0.0096000 0.0021716 0.0019940
v 0.0093172 0.0020722 0.0019277
v 0.0112000 0.0016764 0.0013580
v 0.0112000 0.0016060 0.0014284
v 0.0112000 0.0022420 0.0019236
v 0.0112000 0.0021716 0.0019940
v 0.0112000 0.0016056 0.0014288
v 0.0112000 0.0018324 0.0017676
v 0.0112000 0.0021712 0.0019944
v 0.0096000 0.0021712 -0.0019944
v 0.0094469 0.0021454 -0.0019772
v 0.0094469 0.0022162 -0.0019064
v 0.0096000 0.0022420 -0.0019236
v 0.0093172 0.0020718 -0.0019281
v 0.0093172 0.0021426 -0.0018573
v 0.0092304 0.0019618 -0.0018546
v 0.0092304 0.0020326 -0.0017838
v 0.0092000 0.0018320 -0.0017680
v 0.0092000 0.0019028 -0.0016972
v 0.0094469 0.0016936 -0.0013838
v 0.0094469 0.0016228 -0.0014546
v 0.0096000 0.0016056 -0.0014288
v 0.0096000 0.0016764 -0.0013580
v 0.0093172 0.0017427 -0.0014574
v 0.0093172 0.0016719 -0.0015282
v 0.0092304 0.0018162 -0.0015674
v 0.0092304 0.0017454 -0.0016382
v 0.0092000 0.0018324 -0.0017676
v 0.0092304 0.0019622 -0.0018542
v 0.0094469 0.0021458 -0.0019768
v 0.0096000 0.0021716 -0.0019940
v 0.0093172 0.0020722 -0.0019277
v 0.0094469 0.0016232 -0.0014542
v 0.0092304 0.0017458 -0.0016378
v 0.0096000 0.0016060 -0.0014284
v 0.0093172 0.0016723 -0.0015278
v 0.0112000 0.0022420 -0.0019236
v 0.0112000 0.0021716 -0.0019940
v 0.0112000 0.0016764 -0.0013580
v 0.0112000 0.0016060 -0.0014284
v 0.0112000 0.0021712 -0.0019944
v 0.0112000 0.0018324 -0.0017676
v 0.0112000 0.0016056 -0.0014288
v 0.0096000 0.0055944 -0.0014288
v 0.0094469 0.0055772 -0.0014546
v 0.0094469 0.0055064 -0.0013838
v 0.0096000 0.0055236 -0.0013580
v 0.0093172 0.0055281 -0.0015282
v 0.0093172 0.0054573 -0.0014574
v 0.0092304 0.0054546 -0.0016382
v 0.0092304 0.0053838 -0.0015674
v 0.0092000 0.0053680 -0.0017680
v 0.0092000 0.0052972 -0.0016972
v 0.0094469 0.0049838 -0.0019064
v 0.0094469 0.0050546 -0.0019772
v 0.0096000 0.0050288 -0.0019944
v 0.0096000 0.0049580 -0.0019236
v 0.0093172 0.0050574 -0.0018573
v 0.0093172 0.0051282 -0.0019281
v 0.0092304 0.0051674 -0.0017838
v 0.0092304 0.0052382 -0.0018546
v 0.0092000 0.0053676 -0.0017676
v 0.0092304 0.0054542 -0.0016378
v 0.0094469 0.0055768 -0.0014542
v 0.0096000 0.0055940 -0.0014284
v 0.0093172 0.0055277 -0.0015278
v 0.0094469 0.0050542 -0.0019768
v 0.0092304 0.0052378 -0.0018542
v 0.0096000 0.0050284 -0.0019940
v 0.0093172 0.0051278 -0.0019277
v 0.0112000 0.0055236 -0.0013580
v 0.0112000 0.0055940 -0.0014284
v 0.0112000 0.0049580 -0.0019236
v 0.0112000 0.0050284 -0.0019940
v 0.0112000 0.0055944 -0.0014288
v 0.0112000 0.0053676 -0.0017676
v 0.0112000 0.0050288 -0.0019944
v 0.0096000 0.0050288 0.0019944
v 0.0094469 0.0050546 0.0019772
v 0.0094469 0.0049838 0.0019064
v 0.0096000 0.0049580 0.0019236
v 0.0093172 0.0051282 0.0019281
v 0.0093172 0.0050574 0.0018573
v 0.0092304 0.0052382 0.0018546
v 0.0092304 0.0051674 0.0017838
v 0.0092000 0.0053680 0.0017680
v 0.0092000 0.0052972 0.0016972
v 0.0094469 0.0055064 0.0013838
v 0.0094469 0.0055772 0.0014546
v 0.0096000 0.0055944 0.0014288
v 0.0096000 0.0055236 0.0013580
v 0.0093172 0.0054573 0.0014574
v 0.0093172 0.0055281 0.0015282
v 0.0092304 0.0053838 0.0015674
v 0.0092304 0.0054546 0.0016382
v 0.0092000 0.0053676 0.0017676
v 0.0092304 0.0052378 0.0018542
v 0.0094469 0.0050542 0.0019768
v 0.0096000 0.0050284 0.0019940
v 0.0093172 0.0051278 0.0019277
v 0.0094469 0.0055768 0.0014542
v 0.0092304 0.0054542 0.0016378
v 0.0096000 0.0055940 0.0014284
v 0.0093172 0.0055277 0.0015278
v 0.0112000 0.0049580 0.0019236
v 0.0112000 0.0050284 0.0019940
v 0.0112000 0.0055236 0.0013580
v 0.0112000 0.0055940 0.0014284
v 0.0112000 0.0050288 0.0019944
v 0.0112000 0.0053676 0.0017676
v 0.0112000 0.0055944 0.0014288
v 0.0064000 0.0055944 0.0014288
v 0.0065531 0.0055772 0.0014546
v 0.0065531 0.0055064 0.0013838
v 0.0064000 0.0055236 0.0013580
v 0.0066828 0.0055281 0.0015282
v 0.0066828 0.0054573 0.0014574
v 0.0067696 0.0054546 0.0016382
v 0.0067696 0.0053838 0.0015674
v 0.0068000 0.0053680 0.0017680
v 0.0068000 0.0052972 0.0016972
v 0.0065531 0.0049838 0.0019064
v 0.0065531 0.0050546 0.0019772
v 0.0064000 0.0050288 0.0019944
v 0.0064000 0.0049580 0.0019236
v 0.0066828 0.0050574 0.0018573
v 0.0066828 0.0051282 0.0019281
v 0.0067696 0.0051674 0.0017838
v 0.0067696 0.0052382 0.0018546
v 0.0068000 0.0053676 0.0017676
v 0.0067696 0.0054542 0.0016378
v 0.0065531 0.0055768 0.0014542
v 0.0064000 0.0055940 0.0014284
v 0.0066828 0.0055277 0.0015278
v 0.0065531 0.0050542 0.0019768
v 0.0067696 0.0052378 0.0018542
v 0.0064000 0.0050284 0.0019940
v 0.0066828 0.0051278 0.0019277
v 0.0064000 0.0050288 -0.0019944
v 0.0065531 0.0050546 -0.0019772
v 0.0065531 0.0049838 -0.0019064
v 0.0064000 0.0049580 -0.0019236
v 0.0066828 0.0051282 -0.0019281
v 0.0066828 0.0050574 -0.0018573
v 0.0067696 0.0052382 -0.0018546
v 0.0067696 0.0051674 -0.0017838
v 0.0068000 0.0053680 -0.0017680
v 0.0068000 0.0052972 -0.0016972
v 0.0065531 0.0055064 -0.0013838
v 0.0065531 0.0055772 -0.0014546
v 0.0064000 0.0055944 -0.0014288
v 0.0064000 0.0055236 -0.0013580
v 0.0066828 0.0054573 -0.0014574
v 0.0066828 0.0055281 -0.0015282
v 0.0067696 0.0053838 -0.0015674
v 0.0067696 0.0054546 -0.0016382
v 0.0068000 0.0053676 -0.0017676
v 0.0067696 0.0052378 -0.0018542
v 0.0065531 0.0050542 -0.0019768
v 0.0064000 0.0050284 -0.0019940
v 0.0066828 0.0051278 -0.0019277
v 0.0065531 0.0055768 -0.0014542
v 0.0067696 0.0054542 -0.0016378
v 0.0064000 0.0055940 -0.0014284
v 0.0066828 0.0055277 -0.0015278
v 0.0064000 0.0016056 -0.0014288
v 0.0065531 0.0016228 -0.0014546
v 0.0065531 0.0016936 -0.0013838
v 0.0064000 0.0016764 -0.0013580
v 0.0066828 0.0016719 -0.0015282
v 0.0066828 0.0017427 -0.0014574
v 0.0067696 0.0017454 -0.0016382
v 0.0067696 0.0018162 -0.0015674
v 0.0068000 0.0018320 -0.0017680
v 0.0068000 0.0019028 -0.0016972
v 0.0065531 0.0022162 -0.0019064
v 0.0065531 0.0021454 -0.0019772
v 0.0064000 0.0021712 -0.0019944
v 0.0064000 0.0022420 -0.0019236
v 0.0066828 0.0021426 -0.0018573
v 0.0066828 0.0020718 -0.0019281
v 0.0067696 0.0020326 -0.0017838
v 0.0067696 0.0019618 -0.0018546
v 0.0068000 0.0018324 -0.0017676
v 0.0067696 0.0017458 -0.0016378
v 0.0065531 0.0016232 -0.0014542
v 0.0064000 0.0016060 -0.0014284
v 0.0066828 0.0016723 -0.0015278
v 0.0065531 0.0021458 -0.0019768
v 0.0067696 0.0019622 -0.0018542
v 0.0064000 0.0021716 -0.0019940
v 0.0066828 0.0020722 -0.0019277
v 0.0064000 0.0021712 0.0019944
v 0.0065531 0.0021454 0.0019772
v 0.0065531 0.0022162 0.0019064
v 0.0064000 0.0022420 0.0019236
v 0.0066828 0.0020718 0.0019281
v 0.0066828 0.0021426 0.0018573
v 0.0067696 0.0019618 0.0018546
v 0.0067696 0.0020326 0.0017838
v 0.0068000 0.0018320 0.0017680
v 0.0068000 0.0019028 0.0016972
v 0.0065531 0.0016936 0.0013838
v 0.0065531 0.0016228 0.0014546
v 0.0064000 0.0016056 0.0014288
v 0.0064000 0.0016764 0.0013580
v 0.0066828 0.0017427 0.0014574
v 0.0066828 0.0016719 0.0015282
v 0.0067696 0.0018162 0.0015674
v 0.0067696 0.0017454 0.0016382
v 0.0068000 0.0018324 0.0017676
v 0.0067696 0.0019622 0.0018542
v 0.0065531 0.0021458 0.0019768
v 0.0064000 0.0021716 0.0019940
v 0.0066828 0.0020722 0.0019277
v 0.0065531 0.0016232 0.0014542
v 0.0067696 0.0017458 0.0016378
v 0.0064000 0.0016060 0.0014284
v 0.0066828 0.0016723 0.0015278
v 0.0044400 0.0045492 0.0022912
v 0.0044400 0.0050148 0.0019800
v 0.0044400 0.0036000 0.0024800
v 0.0044400 0.0026508 0.0022912
v 0.0044400 0.0021852 0.0019800
v 0.0048000 0.0045184 0.0022172
v 0.0048000 0.0049580 0.0019236
v 0.0048000 0.0036000 0.0024000
v 0.0048000 0.0026816 0.0022172
v 0.0048000 0.0022420 0.0019236
v 0.0044400 0.0026508 -0.0022912
v 0.0044400 0.0021852 -0.0019800
v 0.0044400 0.0036000 -0.0024800
v 0.0044400 0.0045492 -0.0022912
v 0.0044400 0.0050148 -0.0019800
v 0.0048000 0.0026816 -0.0022172
v 0.0048000 0.0022420 -0.0019236
v 0.0048000 0.0036000 -0.0024000
v 0.0048000 0.0045184 -0.0022172
v 0.0048000 0.0049580 -0.0019236
v -0.0120000 0.0045184 0.0022173
v -0.0120000 0.0052971 0.0016971
v -0.0120000 0.0058173 0.0009184
v -0.0120000 0.0058173 -0.0009184
v -0.0120000 0.0052971 -0.0016971
v -0.0120000 0.0045184 -0.0022173
v -0.0120000 0.0026816 -0.0022173
v -0.0120000 0.0019029 -0.0016971
v -0.0120000 0.0013827 -0.0009184
v -0.0120000 0.0013827 0.0009184
v -0.0120000 0.0019029 0.0016971
v -0.0120000 0.0026816 0.0022173
v -0.0120000 0.0046000 0.0010000
v -0.0120000 0.0044000 0.0016000
v -0.0120000 0.0044000 0.0022409
v -0.0120000 0.0052000 0.0008000
v -0.0120000 0.0058409 0.0008000
v -0.0120000 0.0046000 -0.0010000
v -0.0120000 0.0052000 -0.0008000
v -0.0120000 0.0058409 -0.0008000
v -0.0120000 0.0044000 -0.0022409
v -0.0120000 0.0044000 -0.0016000
v -0.0120000 0.0028000 -0.0016000
v -0.0120000 0.0028000 -0.0022409
v -0.0120000 0.0026000 -0.0010000
v -0.0120000 0.0013591 -0.0008000
v -0.0120000 0.0020000 -0.0008000
v -0.0120000 0.0026000 0.0010000
v -0.0120000 0.0013591 0.0008000
v -0.0120000 0.0020000 0.0008000
v -0.0120000 0.0028000 0.0016000
v -0.0120000 0.0028000 0.0022409
v -0.0040000 0.0026816 0.0022173
v -0.0040000 0.0019029 0.0016971
v -0.0040000 0.0013827 0.0009184
v -0.0040000 0.0013827 -0.0009184
v -0.0040000 0.0019029 -0.0016971
v -0.0040000 0.0026816 -0.0022173
v -0.0040000 0.0045184 -0.0022173
v -0.0040000 0.0052971 -0.0016971
v -0.0040000 0.0058173 -0.0009184
v -0.0040000 0.0058173 0.0009184
v -0.0040000 0.0052971 0.0016971
v -0.0040000 0.0045184 0.0022173
v -0.0040000 0.0026000 0.0010000
v -0.0040000 0.0028000 0.0016000
v -0.0040000 0.0028000 0.0022409
v -0.0040000 0.0020000 0.0008000
v -0.0040000 0.0013591 0.0008000
v -0.0040000 0.0026000 -0.0010000
v -0.0040000 0.0020000 -0.0008000
v -0.0040000 0.0013591 -0.0008000
v -0.0040000 0.0028000 -0.0022409
v -0.0040000 0.0028000 -0.0016000
v -0.0040000 0.0044000 -0.0016000
v -0.0040000 0.0044000 -0.0022409
v -0.0040000 0.0046000 -0.0010000
v -0.0040000 0.0058409 -0.0008000
v -0.0040000 0.0052000 -0.0008000
v -0.0040000 0.0046000 0.0010000
v -0.0040000 0.0058409 0.0008000
v -0.0040000 0.0052000 0.0008000
v -0.0040000 0.0044000 0.0016000
v -0.0040000 0.0044000 0.0022409
v -0.0120000 0.0036000 0.0024000
v -0.0120000 0.0036000 -0.0024000
v -0.0098828 0.0059437 0.0002828
v -0.0100000 0.0060000 -0.0000000
v -0.0100000 0.0064000 -0.0000000
v -0.0098828 0.0063437 0.0002828
v -0.0096000 0.0059204 0.0004000
v -0.0096000 0.0063204 0.0004000
v -0.0098828 0.0059437 -0.0002828
v -0.0098828 0.0063437 -0.0002828
v -0.0096000 0.0059204 -0.0004000
v -0.0096000 0.0063204 -0.0004000
v -0.0061172 0.0059437 -0.0002828
v -0.0060000 0.0060000 -0.0000000
v -0.0060000 0.0064000 -0.0000000
v -0.0061172 0.0063437 -0.0002828
v -0.0064000 0.0059204 -0.0004000
v -0.0064000 0.0063204 -0.0004000
v -0.0061172 0.0059437 0.0002828
v -0.0061172 0.0063437 0.0002828
v -0.0064000 0.0059204 0.0004000
v -0.0064000 0.0063204 0.0004000
v -0.0098828 0.0012563 -0.0002828
v -0.0100000 0.0012000 -0.0000000
v -0.0100000 0.0008000 -0.0000000
v -0.0098828 0.0008563 -0.0002828
v -0.0096000 0.0012796 -0.0004000
v -0.0096000 0.0008796 -0.0004000
v -0.0098828 0.0012563 0.0002828
v -0.0098828 0.0008563 0.0002828
v -0.0096000 0.0012796 0.0004000
v -0.0096000 0.0008796 0.0004000
v -0.0061172 0.0012563 0.0002828
v -0.0060000 0.0012000 -0.0000000
v -0.0060000 0.0008000 -0.0000000
v -0.0061172 0.0008563 0.0002828
v -0.0064000 0.0012796 0.0004000
v -0.0064000 0.0008796 0.0004000
v -0.0061172 0.0012563 -0.0002828
v -0.0061172 0.0008563 -0.0002828
v -0.0064000 0.0012796 -0.0004000
v -0.0064000 0.0008796 -0.0004000
v -0.0100000 0.0059204 0.0004000
v -0.0100000 0.0059204 -0.0004000
v -0.0060000 0.0059204 -0.0004000
v -0.0060000 0.0059204 0.0004000
v -0.0100000 0.0012796 -0.0004000
v -0.0100000 0.0012796 0.0004000
v -0.0060000 0.0012796 0.0004000
v -0.0060000 0.0012796 -0.0004000
v -0.0120000 0.0058408 0.0008000
v -0.0120000 0.0060000 -0.0000000
v -0.0040000 0.0058408 0.0008000
v -0.0120000 0.0058408 -0.0008000
v -0.0040000 0.0058408 -0.0008000
v -0.0120000 0.0012000 -0.0000000
v -0.0120000 0.0013592 0.0008000
v -0.0040000 0.0013592 0.0008000
v -0.0120000 0.0013592 -0.0008000
v -0.0040000 0.0013592 -0.0008000
v -0.0100000 0.0063204 0.0004000
v -0.0100000 0.0063204 -0.0004000
v -0.0060000 0.0063204 -0.0004000
v -0.0060000 0.0063204 0.0004000
v -0.0100000 0.0008796 -0.0004000
v -0.0100000 0.0008796 0.0004000
v -0.0060000 0.0008796 0.0004000
v -0.0060000 0.0008796 -0.0004000
v -0.0056000 0.0061869 -0.0010715
v -0.0056000 0.0055799 -0.0019800
v -0.0104000 0.0055799 -0.0019800
v -0.0104000 0.0061869 -0.0010715
v -0.0056000 0.0046715 -0.0025868
v -0.0104000 0.0046715 -0.0025868
v -0.0056000 0.0036000 -0.0028001
v -0.0104000 0.0036000 -0.0028001
v -0.0056000 0.0025285 -0.0025869
v -0.0104000 0.0025285 -0.0025869
v -0.0056000 0.0016200 -0.0019799
v -0.0104000 0.0016200 -0.0019799
v -0.0056000 0.0010132 -0.0010715
v -0.0104000 0.0010132 -0.0010715
v -0.0104000 0.0055799 0.0019800
v -0.0056000 0.0055799 0.0019800
v -0.0056000 0.0061869 0.0010715
v -0.0104000 0.0061869 0.0010715
v -0.0104000 0.0046715 0.0025868
v -0.0056000 0.0046715 0.0025868
v -0.0104000 0.0036000 0.0028001
v -0.0056000 0.0036000 0.0028001
v -0.0104000 0.0025285 0.0025869
v -0.0056000 0.0025285 0.0025869
v -0.0104000 0.0016200 0.0019799
v -0.0056000 0.0016200 0.0019799
v -0.0104000 0.0010132 0.0010715
v -0.0056000 0.0010132 0.0010715
v -0.0056000 0.0061869 0.0010716
v -0.0104000 0.0061869 0.0010716
v -0.0104000 0.0061869 -0.0010716
v -0.0056000 0.0061869 -0.0010716
v -0.0104000 0.0064000 -0.0000000
v -0.0056000 0.0064000 -0.0000000
v -0.0104000 0.0010131 0.0010716
v -0.0056000 0.0010131 0.0010716
v -0.0056000 0.0010131 -0.0010716
v -0.0104000 0.0010131 -0.0010716
v -0.0104000 0.0008000 -0.0000000
v -0.0056000 0.0008000 -0.0000000
v -0.0108000 0.0036000 -0.0036000
v -0.0108000 0.0022223 -0.0033260
v -0.0120000 0.0022223 -0.0033260
v -0.0120000 0.0036000 -0.0036000
v -0.0108000 0.0010544 -0.0025456
v -0.0120000 0.0010544 -0.0025456
v -0.0108000 0.0002740 -0.0013777
v -0.0120000 0.0002740 -0.0013777
v -0.0108000 0.0000000 -0.0000000
v -0.0120000 0.0000000 -0.0000000
v -0.0108000 0.0002740 0.0013777
v -0.0120000 0.0002740 0.0013777
v -0.0108000 0.0010544 0.0025456
v -0.0120000 0.0010544 0.0025456
v -0.0108000 0.0022223 0.0033260
v -0.0120000 0.0022223 0.0033260
v -0.0108000 0.0036000 0.0036000
v -0.0120000 0.0036000 0.0036000
v -0.0108000 0.0049777 0.0033260
v -0.0120000 0.0049777 0.0033260
v -0.0108000 0.0061456 0.0025456
v -0.0120000 0.0061456 0.0025456
v -0.0108000 0.0069260 0.0013777
v -0.0120000 0.0069260 0.0013777
v -0.0108000 0.0072000 -0.0000000
v -0.0120000 0.0072000 -0.0000000
v -0.0108000 0.0069260 -0.0013777
v -0.0120000 0.0069260 -0.0013777
v -0.0108000 0.0061456 -0.0025456
v -0.0120000 0.0061456 -0.0025456
v -0.0108000 0.0049777 -0.0033260
v -0.0120000 0.0049777 -0.0033260
v -0.0120000 0.0023754 -0.0029565
v -0.0120000 0.0036000 -0.0032000
v -0.0120000 0.0013373 -0.0022627
v -0.0120000 0.0006435 -0.0012246
v -0.0120000 0.0004000 -0.0000000
v -0.0120000 0.0006435 0.0012246
v -0.0120000 0.0013373 0.0022627
v -0.0120000 0.0023754 0.0029565
v -0.0120000 0.0036000 0.0032000
v -0.0120000 0.0048246 0.0029565
v -0.0120000 0.0058627 0.0022627
v -0.0120000 0.0065565 0.0012246
v -0.0120000 0.0068000 -0.0000000
v -0.0120000 0.0065565 -0.0012246
v -0.0120000 0.0058627 -0.0022627
v -0.0120000 0.0048246 -0.0029565
v -0.0120000 0.0013826 0.0009185
v -0.0120000 0.0019030 0.0016970
v -0.0120000 0.0026815 0.0022174
v -0.0120000 0.0045185 0.0022174
v -0.0120000 0.0052970 0.0016970
v -0.0120000 0.0058174 0.0009185
v -0.0120000 0.0058174 -0.0009185
v -0.0120000 0.0052970 -0.0016970
v -0.0120000 0.0045185 -0.0022174
v -0.0120000 0.0026815 -0.0022174
v -0.0120000 0.0019030 -0.0016970
v -0.0120000 0.0013826 -0.0009185
v -0.0106000 0.0023754 -0.0029565
v -0.0106000 0.0036000 -0.0032000
v -0.0106000 0.0013373 -0.0022627
v -0.0106000 0.0006435 -0.0012246
v -0.0106000 0.0004000 -0.0000000
v -0.0106000 0.0006435 0.0012246
v -0.0106000 0.0013373 0.0022627
v -0.0106000 0.0023754 0.0029565
v -0.0106000 0.0036000 0.0032000
v -0.0106000 0.0048246 0.0029565
v -0.0106000 0.0058627 0.0022627
v -0.0106000 0.0065565 0.0012246
v -0.0106000 0.0068000 -0.0000000
v -0.0106000 0.0065565 -0.0012246
v -0.0106000 0.0058627 -0.0022627
v -0.0106000 0.0048246 -0.0029565
v -0.0104000 0.0036000 -0.0028000
v -0.0104000 0.0025284 -0.0025869
v -0.0104000 0.0016201 -0.0019799
v -0.0104000 0.0016201 0.0019799
v -0.0104000 0.0025284 0.0025869
v -0.0104000 0.0036000 0.0028000
v -0.0104000 0.0046716 0.0025869
v -0.0104000 0.0055799 0.0019799
v -0.0104000 0.0055799 -0.0019799
v -0.0104000 0.0046716 -0.0025869
v -0.0052000 0.0036000 0.0036000
v -0.0052000 0.0022223 0.0033260
v -0.0040000 0.0022223 0.0033260
v -0.0040000 0.0036000 0.0036000
v -0.0052000 0.0010544 0.0025456
v -0.0040000 0.0010544 0.0025456
v -0.0052000 0.0002740 0.0013777
v -0.0040000 0.0002740 0.0013777
v -0.0052000 0.0000000 -0.0000000
v -0.0040000 0.0000000 -0.0000000
v -0.0052000 0.0002740 -0.0013777
v -0.0040000 0.0002740 -0.0013777
v -0.0052000 0.0010544 -0.0025456
v -0.0040000 0.0010544 -0.0025456
v -0.0052000 0.0022223 -0.0033260
v -0.0040000 0.0022223 -0.0033260
v -0.0052000 0.0036000 -0.0036000
v -0.0040000 0.0036000 -0.0036000
v -0.0052000 0.0049777 -0.0033260
v -0.0040000 0.0049777 -0.0033260
v -0.0052000 0.0061456 -0.0025456
v -0.0040000 0.0061456 -0.0025456
v -0.0052000 0.0069260 -0.0013777
v -0.0040000 0.0069260 -0.0013777
v -0.0052000 0.0072000 -0.0000000
v -0.0040000 0.0072000 -0.0000000
v -0.0052000 0.0069260 0.0013777
v -0.0040000 0.0069260 0.0013777
v -0.0052000 0.0061456 0.0025456
v -0.0040000 0.0061456 0.0025456
v -0.0052000 0.0049777 0.0033260
v -0.0040000 0.0049777 0.0033260
v -0.0054000 0.0023754 0.0029565
v -0.0054000 0.0036000 0.0032000
v -0.0054000 0.0013373 0.0022627
v -0.0054000 0.0006435 0.0012246
v -0.0054000 0.0004000 -0.0000000
v -0.0054000 0.0006435 -0.0012246
v -0.0054000 0.0013373 -0.0022627
v -0.0054000 0.0023754 -0.0029565
v -0.0054000 0.0036000 -0.0032000
v -0.0054000 0.0048246 -0.0029565
v -0.0054000 0.0058627 -0.0022627
v -0.0054000 0.0065565 -0.0012246
v -0.0054000 0.0068000 -0.0000000
v -0.0054000 0.0065565 0.0012246
v -0.0054000 0.0058627 0.0022627
v -0.0054000 0.0048246 0.0029565
v -0.0056000 0.0036000 0.0028000
v -0.0056000 0.0025284 0.0025869
v -0.0056000 0.0016201 0.0019799
v -0.0056000 0.0016201 -0.0019799
v -0.0056000 0.0025284 -0.0025869
v -0.0056000 0.0036000 -0.0028000
v -0.0056000 0.0046716 -0.0025869
v -0.0056000 0.0055799 -0.0019799
v -0.0056000 0.0055799 0.0019799
v -0.0056000 0.0046716 0.0025869
v -0.0040000 0.0050408 -0.0008000
v -0.0040000 0.0059204 -0.0004000
v -0.0040000 0.0050408 0.0008000
v -0.0040000 0.0059204 0.0004000
v -0.0040000 0.0021592 0.0008000
v -0.0040000 0.0012796 0.0004000
v -0.0040000 0.0021592 -0.0008000
v -0.0040000 0.0012796 -0.0004000
v -0.0040000 0.0044000 0.0014408
v -0.0040000 0.0036000 0.0016000
v -0.0040000 0.0044000 0.0022408
v -0.0040000 0.0028000 0.0014408
v -0.0040000 0.0028000 0.0022408
v -0.0040000 0.0028000 -0.0014408
v -0.0040000 0.0036000 -0.0016000
v -0.0040000 0.0028000 -0.0022408
v -0.0040000 0.0044000 -0.0014408
v -0.0040000 0.0044000 -0.0022408
f 1 2 3
f 4 1 3
f 5 4 3
f 6 5 3
f 7 8 9
f 7 9 3
f 10 11 8
f 10 8 7
f 12 13 11
f 12 11 10
f 14 15 13
f 14 13 12
f 16 17 15
f 16 15 14
f 18 19 17
f 18 17 16
f 20 21 19
f 20 19 18
f 21 20 22
f 21 22 23
f 22 24 25
f 22 25 26
f 22 26 27
f 22 27 28
f 29 24 30
f 31 29 30
f 32 31 30
f 33 32 30
f 34 35 36
f 34 36 30
f 37 38 35
f 37 35 34
f 39 40 38
f 39 38 37
f 41 42 40
f 41 40 39
f 43 44 42
f 43 42 41
f 45 46 44
f 45 44 43
f 47 48 46
f 47 46 45
f 48 47 49
f 48 49 50
f 49 2 51
f 49 51 52
f 49 52 53
f 49 53 54
f 55 56 57
f 58 55 57
f 59 60 56
f 55 59 56
f 61 62 60
f 59 61 60
f 63 64 62
f 61 63 62
f 65 66 64
f 63 65 64
f 67 68 66
f 65 67 66
f 69 70 68
f 67 69 68
f 71 72 70
f 69 71 70
f 73 74 72
f 71 73 72
f 75 76 74
f 73 75 74
f 77 78 76
f 75 77 76
f 79 80 78
f 77 79 78
f 81 82 80
f 79 81 80
f 83 84 82
f 81 83 82
f 85 86 84
f 83 85 84
f 58 57 86
f 85 58 86
f 87 88 89
f 90 87 89
f 91 90 89
f 92 91 89
f 93 94 95
f 93 95 89
f 96 97 94
f 96 94 93
f 98 99 97
f 98 97 96
f 100 101 99
f 100 99 98
f 102 103 101
f 102 101 100
f 104 105 103
f 104 103 102
f 106 107 105
f 106 105 104
f 107 106 108
f 107 108 109
f 108 110 111
f 108 111 112
f 108 112 113
f 108 113 114
f 115 110 116
f 117 115 116
f 118 117 116
f 119 118 116
f 120 121 122
f 120 122 116
f 123 124 121
f 123 121 120
f 125 126 124
f 125 124 123
f 127 128 126
f 127 126 125
f 129 130 128
f 129 128 127
f 131 132 130
f 131 130 129
f 133 134 132
f 133 132 131
f 134 133 135
f 134 135 136
f 135 88 137
f 135 137 138
f 135 138 139
f 135 139 140
f 141 142 143
f 141 143 144
f 145 132 142
f 145 142 141
f 146 147 132
f 146 132 145
f 148 149 147
f 148 147 146
f 150 151 149
f 150 149 148
f 152 124 151
f 152 151 150
f 153 154 124
f 153 124 152
f 155 156 154
f 155 154 153
f 157 158 156
f 157 156 155
f 159 105 158
f 159 158 157
f 160 161 105
f 160 105 159
f 162 163 161
f 162 161 160
f 164 165 163
f 164 163 162
f 166 97 165
f 166 165 164
f 167 168 97
f 167 97 166
f 144 143 168
f 144 168 167
f 169 164 162
f 170 169 162
f 171 166 164
f 169 171 164
f 172 167 166
f 171 172 166
f 173 144 167
f 172 173 167
f 174 141 144
f 173 174 144
f 175 145 141
f 174 175 141
f 176 146 145
f 175 176 145
f 177 148 146
f 176 177 146
f 178 150 148
f 177 178 148
f 179 152 150
f 178 179 150
f 180 153 152
f 179 180 152
f 181 155 153
f 180 181 153
f 182 157 155
f 181 182 155
f 183 159 157
f 182 183 157
f 184 160 159
f 183 184 159
f 170 162 160
f 184 170 160
f 88 87 185
f 88 185 186
f 87 90 187
f 87 187 185
f 90 91 188
f 90 188 187
f 91 92 189
f 91 189 188
f 190 191 192
f 190 192 193
f 194 195 196
f 194 196 197
f 198 199 111
f 198 111 110
f 199 200 112
f 199 112 111
f 200 201 113
f 200 113 112
f 201 202 114
f 201 114 113
f 115 203 198
f 110 115 198
f 117 204 203
f 115 117 203
f 118 205 204
f 117 118 204
f 119 206 205
f 118 119 205
f 207 208 209
f 210 207 209
f 165 211 212
f 163 165 212
f 97 213 211
f 165 97 211
f 168 214 213
f 97 168 213
f 143 215 214
f 168 143 214
f 142 216 215
f 143 142 215
f 132 217 216
f 142 132 216
f 147 218 217
f 132 147 217
f 149 219 218
f 147 149 218
f 151 220 219
f 149 151 219
f 124 221 220
f 151 124 220
f 154 222 221
f 124 154 221
f 156 223 222
f 154 156 222
f 158 224 223
f 156 158 223
f 105 225 224
f 158 105 224
f 161 226 225
f 105 161 225
f 163 212 226
f 161 163 226
f 227 228 229
f 230 227 229
f 231 137 88
f 186 231 88
f 232 138 137
f 231 232 137
f 233 139 138
f 232 233 138
f 234 140 139
f 233 234 139
f 235 186 185
f 235 185 187
f 235 187 188
f 235 188 189
f 236 235 237
f 236 237 238
f 238 239 240
f 236 238 240
f 239 241 242
f 240 239 242
f 241 243 244
f 242 241 244
f 243 245 246
f 244 243 246
f 245 247 248
f 246 245 248
f 247 249 250
f 248 247 250
f 251 252 253
f 251 253 254
f 199 198 253
f 200 199 253
f 201 200 253
f 202 201 253
f 255 198 203
f 255 203 204
f 255 204 205
f 255 205 206
f 256 255 257
f 256 257 258
f 258 259 260
f 256 258 260
f 259 261 262
f 260 259 262
f 261 263 264
f 262 261 264
f 263 265 266
f 264 263 266
f 265 267 268
f 266 265 268
f 267 269 270
f 268 267 270
f 271 272 273
f 271 273 274
f 231 186 273
f 232 231 273
f 233 232 273
f 234 233 273
f 275 276 277
f 275 277 278
f 276 279 280
f 276 280 277
f 279 281 282
f 279 282 280
f 281 283 284
f 281 284 282
f 283 285 286
f 283 286 284
f 285 287 288
f 285 288 286
f 287 289 290
f 287 290 288
f 289 291 292
f 289 292 290
f 291 293 294
f 291 294 292
f 293 295 296
f 293 296 294
f 295 297 298
f 295 298 296
f 297 299 300
f 297 300 298
f 299 301 302
f 299 302 300
f 301 303 304
f 301 304 302
f 303 305 306
f 303 306 304
f 305 275 278
f 305 278 306
f 307 308 309
f 307 309 310
f 307 310 311
f 307 311 312
f 313 307 314
f 313 314 315
f 315 316 317
f 313 315 317
f 316 318 319
f 317 316 319
f 318 320 321
f 319 318 321
f 320 322 323
f 321 320 323
f 322 324 325
f 323 322 325
f 324 326 327
f 325 324 327
f 328 329 330
f 328 330 331
f 332 333 330
f 334 332 330
f 335 334 330
f 336 335 330
f 337 333 338
f 337 338 339
f 337 339 340
f 337 340 341
f 342 337 343
f 342 343 344
f 344 345 346
f 342 344 346
f 345 347 348
f 346 345 348
f 347 349 350
f 348 347 350
f 349 351 352
f 350 349 352
f 351 353 354
f 352 351 354
f 353 355 356
f 354 353 356
f 357 358 359
f 357 359 360
f 361 308 359
f 362 361 359
f 363 362 359
f 364 363 359
f 2 1 309
f 2 309 308
f 1 4 310
f 1 310 309
f 4 5 311
f 4 311 310
f 5 6 312
f 5 312 311
f 9 314 312
f 9 312 6
f 329 23 28
f 329 28 336
f 333 332 25
f 333 25 24
f 332 334 26
f 332 26 25
f 334 335 27
f 334 27 26
f 335 336 28
f 335 28 27
f 29 338 333
f 24 29 333
f 31 339 338
f 29 31 338
f 32 340 339
f 31 32 339
f 33 341 340
f 32 33 340
f 33 36 343
f 341 33 343
f 364 358 50
f 54 364 50
f 361 51 2
f 308 361 2
f 362 52 51
f 361 362 51
f 363 53 52
f 362 363 52
f 364 54 53
f 363 364 53
f 365 366 367
f 365 367 368
f 366 369 370
f 366 370 367
f 369 371 372
f 369 372 370
f 371 373 374
f 371 374 372
f 375 376 377
f 378 375 377
f 379 380 376
f 375 379 376
f 381 382 380
f 379 381 380
f 374 373 382
f 381 374 382
f 383 384 385
f 386 383 385
f 385 384 387
f 388 389 383
f 388 383 390
f 391 389 388
f 386 368 392
f 393 386 392
f 394 378 390
f 394 390 395
f 383 365 396
f 383 396 397
f 397 398 377
f 397 377 383
f 399 400 401
f 399 401 402
f 400 403 404
f 400 404 401
f 403 405 406
f 403 406 404
f 405 407 408
f 405 408 406
f 409 410 411
f 412 409 411
f 413 414 410
f 409 413 410
f 415 416 414
f 413 415 414
f 408 407 416
f 415 408 416
f 417 418 419
f 420 417 419
f 419 418 421
f 422 423 417
f 422 417 424
f 425 423 422
f 420 402 426
f 427 420 426
f 428 412 424
f 428 424 429
f 417 399 430
f 417 430 431
f 431 432 411
f 431 411 417
f 433 434 435
f 433 435 436
f 434 437 438
f 434 438 435
f 437 439 440
f 437 440 438
f 439 441 442
f 439 442 440
f 443 444 445
f 446 443 445
f 447 448 444
f 443 447 444
f 449 450 448
f 447 449 448
f 442 441 450
f 449 442 450
f 451 452 453
f 454 451 453
f 453 452 455
f 456 457 451
f 456 451 458
f 459 457 456
f 454 436 460
f 461 454 460
f 462 446 458
f 462 458 463
f 451 433 464
f 451 464 465
f 465 466 445
f 465 445 451
f 467 468 469
f 467 469 470
f 468 471 472
f 468 472 469
f 471 473 474
f 471 474 472
f 473 475 476
f 473 476 474
f 477 478 479
f 480 477 479
f 481 482 478
f 477 481 478
f 483 484 482
f 481 483 482
f 476 475 484
f 483 476 484
f 485 486 487
f 488 485 487
f 487 486 489
f 490 491 485
f 490 485 492
f 493 491 490
f 488 470 494
f 495 488 494
f 496 480 492
f 496 492 497
f 485 467 498
f 485 498 499
f 499 500 479
f 499 479 485
f 501 502 503
f 501 503 504
f 502 505 506
f 502 506 503
f 505 507 508
f 505 508 506
f 507 509 510
f 507 510 508
f 511 512 513
f 514 511 513
f 515 516 512
f 511 515 512
f 517 518 516
f 515 517 516
f 510 509 518
f 517 510 518
f 519 520 521
f 522 519 521
f 521 520 523
f 524 525 519
f 524 519 526
f 527 525 524
f 528 522 504
f 529 528 504
f 514 526 530
f 514 530 531
f 519 501 532
f 519 532 533
f 533 534 513
f 533 513 519
f 535 536 537
f 535 537 538
f 536 539 540
f 536 540 537
f 539 541 542
f 539 542 540
f 541 543 544
f 541 544 542
f 545 546 547
f 548 545 547
f 549 550 546
f 545 549 546
f 551 552 550
f 549 551 550
f 544 543 552
f 551 544 552
f 553 554 555
f 556 553 555
f 555 554 557
f 558 559 553
f 558 553 560
f 561 559 558
f 562 556 538
f 563 562 538
f 548 560 564
f 548 564 565
f 553 535 566
f 553 566 567
f 567 568 547
f 567 547 553
f 569 570 571
f 569 571 572
f 570 573 574
f 570 574 571
f 573 575 576
f 573 576 574
f 575 577 578
f 575 578 576
f 579 580 581
f 582 579 581
f 583 584 580
f 579 583 580
f 585 586 584
f 583 585 584
f 578 577 586
f 585 578 586
f 587 588 589
f 590 587 589
f 589 588 591
f 592 593 587
f 592 587 594
f 595 593 592
f 590 572 596
f 590 596 597
f 598 582 594
f 599 598 594
f 587 569 600
f 587 600 601
f 601 602 581
f 601 581 587
f 603 604 605
f 603 605 606
f 604 607 608
f 604 608 605
f 607 609 610
f 607 610 608
f 609 611 612
f 609 612 610
f 613 614 615
f 616 613 615
f 617 618 614
f 613 617 614
f 619 620 618
f 617 619 618
f 612 611 620
f 619 612 620
f 621 622 623
f 624 621 623
f 623 622 625
f 626 627 621
f 626 621 628
f 629 627 626
f 624 606 630
f 624 630 631
f 632 616 628
f 633 632 628
f 621 603 634
f 621 634 635
f 635 636 615
f 635 615 621
f 637 638 534
f 637 534 639
f 640 637 639
f 640 639 641
f 642 640 641
f 642 641 643
f 644 642 643
f 644 643 634
f 645 646 638
f 645 638 637
f 647 645 637
f 647 637 640
f 648 647 640
f 648 640 642
f 649 648 642
f 649 642 644
f 650 651 602
f 650 602 652
f 653 650 652
f 653 652 654
f 655 653 654
f 655 654 656
f 657 655 656
f 657 656 566
f 658 659 651
f 658 651 650
f 660 658 650
f 660 650 653
f 661 660 653
f 661 653 655
f 662 661 655
f 662 655 657
f 663 664 665
f 666 663 665
f 667 666 665
f 668 667 665
f 669 21 23
f 669 23 665
f 670 19 21
f 670 21 669
f 671 17 19
f 671 19 670
f 672 15 17
f 672 17 671
f 673 13 15
f 673 15 672
f 674 11 13
f 674 13 673
f 675 8 11
f 675 11 674
f 8 675 676
f 8 676 9
f 676 677 678
f 676 678 679
f 676 679 680
f 676 680 681
f 682 677 683
f 684 682 683
f 685 684 683
f 686 685 683
f 687 48 50
f 687 50 683
f 688 46 48
f 688 48 687
f 689 44 46
f 689 46 688
f 690 42 44
f 690 44 689
f 691 40 42
f 691 42 690
f 692 38 40
f 692 40 691
f 693 35 38
f 693 38 692
f 35 693 694
f 35 694 36
f 694 664 695
f 694 695 696
f 694 696 697
f 694 697 698
f 699 700 701
f 702 699 701
f 688 703 700
f 699 688 700
f 704 705 703
f 688 704 703
f 677 706 705
f 704 677 705
f 707 708 706
f 677 707 706
f 674 709 708
f 707 674 708
f 710 711 709
f 674 710 709
f 712 713 711
f 710 712 711
f 714 715 713
f 712 714 713
f 670 716 715
f 714 670 715
f 717 718 716
f 670 717 716
f 664 719 718
f 717 664 718
f 720 721 719
f 664 720 719
f 692 722 721
f 720 692 721
f 723 724 722
f 692 723 722
f 702 701 724
f 723 702 724
f 725 701 726
f 727 725 726
f 728 727 726
f 729 728 726
f 730 726 731
f 732 730 731
f 703 733 732
f 703 732 731
f 734 735 733
f 734 733 703
f 736 737 735
f 736 735 734
f 738 739 737
f 738 737 736
f 709 740 739
f 709 739 738
f 741 742 740
f 741 740 709
f 741 743 744
f 741 744 742
f 743 713 745
f 743 745 746
f 743 746 747
f 743 747 748
f 749 713 750
f 751 749 750
f 752 751 750
f 753 752 750
f 754 750 755
f 756 754 755
f 716 757 756
f 716 756 755
f 758 759 757
f 758 757 716
f 760 761 759
f 760 759 758
f 762 763 761
f 762 761 760
f 722 764 763
f 722 763 762
f 765 766 764
f 765 764 722
f 765 767 768
f 765 768 766
f 767 701 769
f 767 769 770
f 767 770 771
f 767 771 772
f 773 774 766
f 773 766 768
f 774 775 776
f 774 776 766
f 775 777 763
f 775 763 776
f 777 778 779
f 777 779 763
f 778 780 759
f 778 759 779
f 780 781 782
f 780 782 759
f 781 783 756
f 781 756 782
f 783 784 754
f 783 754 756
f 785 786 742
f 785 742 744
f 786 787 788
f 786 788 742
f 787 789 739
f 787 739 788
f 789 790 791
f 789 791 739
f 790 792 735
f 790 735 791
f 792 793 794
f 792 794 735
f 793 795 732
f 793 732 794
f 795 796 730
f 795 730 732
f 797 798 796
f 795 797 796
f 799 800 797
f 799 797 795
f 801 802 800
f 801 800 799
f 803 804 802
f 803 802 801
f 789 805 804
f 789 804 803
f 806 807 805
f 806 805 789
f 808 809 807
f 808 807 806
f 785 810 811
f 785 811 786
f 812 813 784
f 783 812 784
f 814 815 812
f 814 812 783
f 816 817 815
f 816 815 814
f 818 819 817
f 818 817 816
f 777 820 819
f 777 819 818
f 821 822 820
f 821 820 777
f 823 824 822
f 823 822 821
f 773 825 826
f 773 826 774
f 701 725 827
f 701 827 828
f 725 727 829
f 725 829 827
f 727 728 830
f 727 830 829
f 728 729 831
f 728 831 830
f 730 832 831
f 730 831 729
f 833 832 796
f 833 796 798
f 834 833 798
f 834 798 797
f 835 834 797
f 835 797 836
f 837 835 836
f 837 836 838
f 839 837 838
f 839 838 840
f 841 839 840
f 841 840 805
f 842 841 805
f 842 805 843
f 844 842 843
f 844 843 811
f 845 844 811
f 845 811 810
f 810 785 846
f 810 846 845
f 846 744 748
f 846 748 847
f 848 849 745
f 848 745 713
f 849 850 746
f 849 746 745
f 850 851 747
f 850 747 746
f 851 847 748
f 851 748 747
f 749 852 848
f 713 749 848
f 751 853 852
f 749 751 852
f 752 854 853
f 751 752 853
f 753 855 854
f 752 753 854
f 753 754 856
f 855 753 856
f 856 784 813
f 857 856 813
f 858 857 813
f 858 813 812
f 859 858 812
f 859 812 860
f 861 859 860
f 861 860 862
f 863 861 862
f 863 862 864
f 865 863 864
f 865 864 820
f 866 865 820
f 866 820 867
f 868 866 867
f 868 867 826
f 869 868 826
f 869 826 825
f 773 870 869
f 825 773 869
f 871 870 768
f 772 871 768
f 872 769 701
f 828 872 701
f 873 770 769
f 872 873 769
f 874 771 770
f 873 874 770
f 871 772 771
f 874 871 771
f 875 828 827
f 875 827 829
f 875 829 830
f 875 830 831
f 876 875 833
f 876 833 877
f 878 879 880
f 881 878 880
f 879 882 883
f 880 879 883
f 882 884 885
f 883 882 885
f 884 886 887
f 885 884 887
f 886 888 889
f 887 886 889
f 888 890 891
f 889 888 891
f 845 892 893
f 894 845 893
f 849 848 892
f 850 849 892
f 851 850 892
f 847 851 892
f 895 848 852
f 895 852 853
f 895 853 854
f 895 854 855
f 896 895 857
f 896 857 897
f 898 899 900
f 901 898 900
f 899 902 903
f 900 899 903
f 902 904 905
f 903 902 905
f 904 906 907
f 905 904 907
f 906 908 909
f 907 906 909
f 908 910 911
f 909 908 911
f 869 912 913
f 914 869 913
f 872 828 912
f 873 872 912
f 874 873 912
f 871 874 912
f 828 915 916
f 828 916 917
f 915 918 919
f 915 919 916
f 918 920 921
f 918 921 919
f 920 922 923
f 920 923 921
f 922 924 925
f 922 925 923
f 924 926 927
f 924 927 925
f 926 928 929
f 926 929 927
f 928 848 930
f 928 930 929
f 848 931 932
f 848 932 930
f 931 933 934
f 931 934 932
f 933 935 936
f 933 936 934
f 935 937 938
f 935 938 936
f 937 939 940
f 937 940 938
f 939 941 942
f 939 942 940
f 941 943 944
f 941 944 942
f 943 828 917
f 943 917 944
f 945 938 946
f 945 946 947
f 945 947 948
f 945 948 949
f 950 945 329
f 950 329 328
f 328 951 952
f 950 328 952
f 951 953 954
f 952 951 954
f 953 955 956
f 954 953 956
f 955 957 958
f 956 955 958
f 957 959 960
f 958 957 960
f 959 961 962
f 960 959 962
f 315 314 963
f 315 963 964
f 965 923 963
f 966 965 963
f 967 966 963
f 968 967 963
f 969 923 970
f 969 970 971
f 969 971 972
f 969 972 973
f 974 969 358
f 974 358 357
f 357 975 976
f 974 357 976
f 975 977 978
f 976 975 978
f 977 979 980
f 978 977 980
f 979 981 982
f 980 979 982
f 981 983 984
f 982 981 984
f 983 985 986
f 984 983 986
f 344 343 987
f 344 987 988
f 989 938 987
f 990 989 987
f 991 990 987
f 992 991 987
f 664 663 946
f 664 946 938
f 663 666 947
f 663 947 946
f 666 667 948
f 666 948 947
f 667 668 949
f 667 949 948
f 23 329 949
f 23 949 668
f 314 9 681
f 314 681 968
f 923 965 678
f 923 678 677
f 965 966 679
f 965 679 678
f 966 967 680
f 966 680 679
f 967 968 681
f 967 681 680
f 682 970 923
f 677 682 923
f 684 971 970
f 682 684 970
f 685 972 971
f 684 685 971
f 686 973 972
f 685 686 972
f 686 50 358
f 973 686 358
f 992 343 36
f 698 992 36
f 989 695 664
f 938 989 664
f 990 696 695
f 989 990 695
f 991 697 696
f 990 991 696
f 992 698 697
f 991 992 697
f 993 994 995
f 993 995 996
f 994 997 998
f 994 998 995
f 997 999 1000
f 997 1000 998
f 999 1001 1002
f 999 1002 1000
f 1003 1004 1005
f 1006 1003 1005
f 1007 1008 1004
f 1003 1007 1004
f 1009 1010 1008
f 1007 1009 1008
f 1002 1001 1010
f 1009 1002 1010
f 1011 1012 1013
f 1014 1011 1013
f 1013 1012 1015
f 1016 1017 1011
f 1016 1011 1018
f 1019 1017 1016
f 1014 996 1020
f 1021 1014 1020
f 1022 1006 1018
f 1022 1018 1023
f 1011 993 1024
f 1011 1024 1025
f 1025 1026 1005
f 1025 1005 1011
f 1027 1028 1029
f 1027 1029 1030
f 1028 1031 1032
f 1028 1032 1029
f 1031 1033 1034
f 1031 1034 1032
f 1033 1035 1036
f 1033 1036 1034
f 1037 1038 1039
f 1040 1037 1039
f 1041 1042 1038
f 1037 1041 1038
f 1043 1044 1042
f 1041 1043 1042
f 1036 1035 1044
f 1043 1036 1044
f 1045 1046 1047
f 1048 1045 1047
f 1047 1046 1049
f 1050 1051 1045
f 1050 1045 1052
f 1053 1051 1050
f 1048 1030 1054
f 1055 1048 1054
f 1056 1040 1052
f 1056 1052 1057
f 1045 1027 1058
f 1045 1058 1059
f 1059 1060 1039
f 1059 1039 1045
f 1061 1062 1063
f 1061 1063 1064
f 1062 1065 1066
f 1062 1066 1063
f 1065 1067 1068
f 1065 1068 1066
f 1067 1069 1070
f 1067 1070 1068
f 1071 1072 1073
f 1074 1071 1073
f 1075 1076 1072
f 1071 1075 1072
f 1077 1078 1076
f 1075 1077 1076
f 1070 1069 1078
f 1077 1070 1078
f 1079 1080 1081
f 1082 1079 1081
f 1081 1080 1083
f 1084 1085 1079
f 1084 1079 1086
f 1087 1085 1084
f 1082 1064 1088
f 1089 1082 1088
f 1090 1074 1086
f 1090 1086 1091
f 1079 1061 1092
f 1079 1092 1093
f 1093 1094 1073
f 1093 1073 1079
f 1095 1096 1097
f 1095 1097 1098
f 1096 1099 1100
f 1096 1100 1097
f 1099 1101 1102
f 1099 1102 1100
f 1101 1103 1104
f 1101 1104 1102
f 1105 1106 1107
f 1108 1105 1107
f 1109 1110 1106
f 1105 1109 1106
f 1111 1112 1110
f 1109 1111 1110
f 1104 1103 1112
f 1111 1104 1112
f 1113 1114 1115
f 1116 1113 1115
f 1115 1114 1117
f 1118 1119 1113
f 1118 1113 1120
f 1121 1119 1118
f 1116 1098 1122
f 1123 1116 1122
f 1124 1108 1120
f 1124 1120 1125
f 1113 1095 1126
f 1113 1126 1127
f 1127 1128 1107
f 1127 1107 1113
f 1129 1130 1131
f 1129 1131 1132
f 1130 1133 1134
f 1130 1134 1131
f 1133 1135 1136
f 1133 1136 1134
f 1135 1137 1138
f 1135 1138 1136
f 1139 1140 1141
f 1142 1139 1141
f 1143 1144 1140
f 1139 1143 1140
f 1145 1146 1144
f 1143 1145 1144
f 1138 1137 1146
f 1145 1138 1146
f 1147 1148 1149
f 1150 1147 1149
f 1149 1148 1151
f 1152 1153 1147
f 1152 1147 1154
f 1155 1153 1152
f 633 1150 1132
f 632 633 1132
f 1142 1154 631
f 1142 631 630
f 1147 1129 636
f 1147 636 635
f 635 634 1141
f 635 1141 1147
f 1156 1157 1158
f 1156 1158 1159
f 1157 1160 1161
f 1157 1161 1158
f 1160 1162 1163
f 1160 1163 1161
f 1162 1164 1165
f 1162 1165 1163
f 1166 1167 1168
f 1169 1166 1168
f 1170 1171 1167
f 1166 1170 1167
f 1172 1173 1171
f 1170 1172 1171
f 1165 1164 1173
f 1172 1165 1173
f 1174 1175 1176
f 1177 1174 1176
f 1176 1175 1178
f 1179 1180 1174
f 1179 1174 1181
f 1182 1180 1179
f 599 1177 1159
f 598 599 1159
f 1169 1181 597
f 1169 597 596
f 1174 1156 602
f 1174 602 601
f 601 600 1168
f 601 1168 1174
f 1183 1184 1185
f 1183 1185 1186
f 1184 1187 1188
f 1184 1188 1185
f 1187 1189 1190
f 1187 1190 1188
f 1189 1191 1192
f 1189 1192 1190
f 1193 1194 1195
f 1196 1193 1195
f 1197 1198 1194
f 1193 1197 1194
f 1199 1200 1198
f 1197 1199 1198
f 1192 1191 1200
f 1199 1192 1200
f 1201 1202 1203
f 1204 1201 1203
f 1203 1202 1205
f 1206 1207 1201
f 1206 1201 1208
f 1209 1207 1206
f 1204 1186 565
f 1204 565 564
f 563 1196 1208
f 562 563 1208
f 1201 1183 568
f 1201 568 567
f 567 566 1195
f 567 1195 1201
f 1210 1211 1212
f 1210 1212 1213
f 1211 1214 1215
f 1211 1215 1212
f 1214 1216 1217
f 1214 1217 1215
f 1216 1218 1219
f 1216 1219 1217
f 1220 1221 1222
f 1223 1220 1222
f 1224 1225 1221
f 1220 1224 1221
f 1226 1227 1225
f 1224 1226 1225
f 1219 1218 1227
f 1226 1219 1227
f 1228 1229 1230
f 1231 1228 1230
f 1230 1229 1232
f 1233 1234 1228
f 1233 1228 1235
f 1236 1234 1233
f 1231 1213 531
f 1231 531 530
f 529 1223 1235
f 528 529 1235
f 1228 1210 534
f 1228 534 533
f 533 532 1222
f 533 1222 1228
f 1237 1238 634
f 1237 634 643
f 1239 1237 643
f 1239 643 641
f 1240 1239 641
f 1240 641 639
f 1241 1240 639
f 1241 639 534
f 1242 1243 1238
f 1242 1238 1237
f 1244 1242 1237
f 1244 1237 1239
f 1245 1244 1239
f 1245 1239 1240
f 1246 1245 1240
f 1246 1240 1241
f 1247 1248 566
f 1247 566 656
f 1249 1247 656
f 1249 656 654
f 1250 1249 654
f 1250 654 652
f 1251 1250 652
f 1251 652 602
f 1252 1253 1248
f 1252 1248 1247
f 1254 1252 1247
f 1254 1247 1249
f 1255 1254 1249
f 1255 1249 1250
f 1256 1255 1250
f 1256 1250 1251
f 1257 1258 1259
f 1260 1261 1262
f 1263 1264 1265
f 1266 1267 1268
f 1257 1259 1269
f 1269 1270 1271
f 1269 1271 1257
f 1272 1269 1259
f 1272 1259 1273
f 1274 1260 1262
f 1274 1275 1276
f 1274 1276 1260
f 1277 1278 1274
f 1277 1274 1262
f 1279 1280 1263
f 1279 1263 1281
f 1263 1265 1281
f 1265 1282 1283
f 1265 1283 1281
f 1266 1268 1284
f 1285 1266 1284
f 1285 1284 1286
f 1287 1284 1268
f 1287 1268 1288
f 1289 1290 1291
f 1292 1293 1294
f 1295 1296 1297
f 1298 1299 1300
f 1289 1291 1301
f 1301 1302 1303
f 1301 1303 1289
f 1304 1301 1291
f 1304 1291 1305
f 1306 1292 1294
f 1306 1307 1308
f 1306 1308 1292
f 1309 1310 1306
f 1309 1306 1294
f 1311 1312 1295
f 1311 1295 1313
f 1295 1297 1313
f 1297 1314 1315
f 1297 1315 1313
f 1298 1300 1316
f 1317 1298 1316
f 1317 1316 1318
f 1319 1316 1300
f 1319 1300 1320
f 1320 212 1321
f 1320 1321 1271
f 1322 219 1312
f 1277 1322 1312
f 1309 219 1322
f 1309 1322 1280
f 1321 212 1303
f 1288 1321 1303
f 1319 1320 1271
f 1319 1271 1270
f 1319 1270 1269
f 1319 1269 1316
f 1316 1269 1272
f 1316 1272 1318
f 1318 1272 1273
f 1318 1273 1317
f 1315 1314 1276
f 1315 1276 1275
f 1315 1275 1274
f 1315 1274 1313
f 1313 1274 1278
f 1313 1278 1311
f 1311 1278 1277
f 1311 1277 1312
f 1309 1280 1279
f 1309 1279 1310
f 1310 1279 1281
f 1310 1281 1306
f 1306 1281 1283
f 1306 1283 1307
f 1307 1283 1282
f 1307 1282 1308
f 1305 1285 1286
f 1305 1286 1304
f 1304 1286 1284
f 1304 1284 1301
f 1301 1284 1287
f 1301 1287 1302
f 1302 1287 1288
f 1302 1288 1303
f 1323 1324 1325
f 1323 1325 1326
f 1327 1323 1326
f 1327 1326 1328
f 1325 1324 1329
f 1330 1325 1329
f 1330 1329 1331
f 1332 1330 1331
f 1333 1334 1335
f 1333 1335 1336
f 1337 1333 1336
f 1337 1336 1338
f 1335 1334 1339
f 1340 1335 1339
f 1340 1339 1341
f 1342 1340 1341
f 1343 1344 1345
f 1343 1345 1346
f 1347 1343 1346
f 1347 1346 1348
f 1345 1344 1349
f 1350 1345 1349
f 1350 1349 1351
f 1352 1350 1351
f 1353 1354 1355
f 1353 1355 1356
f 1357 1353 1356
f 1357 1356 1358
f 1355 1354 1359
f 1360 1355 1359
f 1360 1359 1361
f 1362 1360 1361
f 1337 1338 1332
f 1337 1332 1331
f 1327 1328 1342
f 1327 1342 1341
f 1357 1358 1352
f 1357 1352 1351
f 1347 1348 1362
f 1347 1362 1361
f 1324 1323 1363
f 1323 1327 1363
f 1364 1329 1324
f 1364 1331 1329
f 1334 1333 1365
f 1333 1337 1365
f 1366 1339 1334
f 1366 1341 1339
f 1344 1343 1367
f 1343 1347 1367
f 1368 1349 1344
f 1368 1351 1349
f 1354 1353 1369
f 1353 1357 1369
f 1370 1359 1354
f 1370 1361 1359
f 1371 1372 1324
f 1371 1324 1363
f 223 1373 1366
f 223 1366 1334
f 1372 1374 1364
f 1372 1364 1324
f 1375 223 1334
f 1375 1334 1365
f 1371 1363 1366
f 1371 1366 1373
f 1375 1365 1364
f 1375 1364 1374
f 1376 1377 1368
f 1376 1368 1344
f 1378 215 1354
f 1378 1354 1369
f 1379 1376 1344
f 1379 1344 1367
f 215 1380 1370
f 215 1370 1354
f 1378 1369 1368
f 1378 1368 1377
f 1379 1367 1370
f 1379 1370 1380
f 1381 1326 1325
f 1381 1328 1326
f 1325 1330 1382
f 1330 1332 1382
f 1383 1336 1335
f 1383 1338 1336
f 1335 1340 1384
f 1340 1342 1384
f 1385 1346 1345
f 1385 1348 1346
f 1345 1350 1386
f 1350 1352 1386
f 1387 1356 1355
f 1387 1358 1356
f 1355 1360 1388
f 1360 1362 1388
f 1389 1390 1391
f 1392 1389 1391
f 1390 1393 1394
f 1391 1390 1394
f 1393 1395 1396
f 1394 1393 1396
f 1395 1397 1398
f 1396 1395 1398
f 1397 1399 1400
f 1398 1397 1400
f 1399 1401 1402
f 1400 1399 1402
f 1403 1404 1405
f 1403 1405 1406
f 1407 1408 1404
f 1407 1404 1403
f 1409 1410 1408
f 1409 1408 1407
f 1411 1412 1410
f 1411 1410 1409
f 1413 1414 1412
f 1413 1412 1411
f 1415 1416 1414
f 1415 1414 1413
f 1417 1384 1381
f 1417 1381 1418
f 1419 1382 1383
f 1419 1383 1420
f 1421 1325 1382
f 1421 1382 1419
f 1418 1381 1325
f 1418 1325 1421
f 1420 1383 1335
f 1420 1335 1422
f 1422 1335 1384
f 1422 1384 1417
f 1423 1386 1387
f 1423 1387 1424
f 1425 1388 1385
f 1425 1385 1426
f 1426 1385 1345
f 1426 1345 1427
f 1427 1345 1386
f 1427 1386 1423
f 1428 1355 1388
f 1428 1388 1425
f 1424 1387 1355
f 1424 1355 1428
f 1429 1430 1431
f 1429 1431 1432
f 1430 1433 1434
f 1430 1434 1431
f 1433 1435 1436
f 1433 1436 1434
f 1435 1437 1438
f 1435 1438 1436
f 1437 1439 1440
f 1437 1440 1438
f 1439 1441 1442
f 1439 1442 1440
f 1441 1443 1444
f 1441 1444 1442
f 1443 1445 1446
f 1443 1446 1444
f 1445 1447 1448
f 1445 1448 1446
f 1447 1449 1450
f 1447 1450 1448
f 1449 1451 1452
f 1449 1452 1450
f 1451 1453 1454
f 1451 1454 1452
f 1453 1455 1456
f 1453 1456 1454
f 1455 1457 1458
f 1455 1458 1456
f 1457 1459 1460
f 1457 1460 1458
f 1459 1429 1432
f 1459 1432 1460
f 1432 1431 1461
f 1432 1461 1462
f 1431 1434 1463
f 1431 1463 1461
f 1434 1436 1464
f 1434 1464 1463
f 1436 1438 1465
f 1436 1465 1464
f 1438 1440 1466
f 1438 1466 1465
f 1440 1442 1467
f 1440 1467 1466
f 1442 1444 1468
f 1442 1468 1467
f 1444 1446 1469
f 1444 1469 1468
f 1446 1448 1470
f 1446 1470 1469
f 1448 1450 1471
f 1448 1471 1470
f 1450 1452 1472
f 1450 1472 1471
f 1452 1454 1473
f 1452 1473 1472
f 1454 1456 1474
f 1454 1474 1473
f 1456 1458 1475
f 1456 1475 1474
f 1458 1460 1476
f 1458 1476 1475
f 1460 1432 1462
f 1460 1462 1476
f 1466 1477 1376
f 1466 1376 1465
f 1467 1478 1477
f 1467 1477 1466
f 1468 1479 1478
f 1468 1478 1467
f 1469 1321 1479
f 1469 1479 1468
f 1470 1480 1321
f 1470 1321 1469
f 1471 1481 1480
f 1471 1480 1470
f 1472 1482 1481
f 1472 1481 1471
f 1473 1372 1482
f 1473 1482 1472
f 1474 1483 1372
f 1474 1372 1473
f 1475 1484 1483
f 1475 1483 1474
f 1476 1485 1484
f 1476 1484 1475
f 1462 1322 1485
f 1462 1485 1476
f 1461 1486 1322
f 1461 1322 1462
f 1463 1487 1486
f 1463 1486 1461
f 1464 1488 1487
f 1464 1487 1463
f 1465 1376 1488
f 1465 1488 1464
f 1489 1430 1429
f 1489 1429 1490
f 1491 1433 1430
f 1491 1430 1489
f 1492 1435 1433
f 1492 1433 1491
f 1493 1437 1435
f 1493 1435 1492
f 1494 1439 1437
f 1494 1437 1493
f 1495 1441 1439
f 1495 1439 1494
f 1496 1443 1441
f 1496 1441 1495
f 1497 1445 1443
f 1497 1443 1496
f 1498 1447 1445
f 1498 1445 1497
f 1499 1449 1447
f 1499 1447 1498
f 1500 1451 1449
f 1500 1449 1499
f 1501 1453 1451
f 1501 1451 1500
f 1502 1455 1453
f 1502 1453 1501
f 1503 1457 1455
f 1503 1455 1502
f 1504 1459 1457
f 1504 1457 1503
f 1490 1429 1459
f 1490 1459 1504
f 1505 1506 1489
f 1505 1489 1490
f 1506 1507 1491
f 1506 1491 1489
f 1507 1426 1492
f 1507 1492 1491
f 1426 1427 1493
f 1426 1493 1492
f 1427 1423 1494
f 1427 1494 1493
f 1423 1508 1495
f 1423 1495 1494
f 1508 1509 1496
f 1508 1496 1495
f 1509 1510 1497
f 1509 1497 1496
f 1510 1511 1498
f 1510 1498 1497
f 1511 1512 1499
f 1511 1499 1498
f 1512 1418 1500
f 1512 1500 1499
f 1418 1421 1501
f 1418 1501 1500
f 1421 1419 1502
f 1421 1502 1501
f 1419 1513 1503
f 1419 1503 1502
f 1513 1514 1504
f 1513 1504 1503
f 1514 1505 1490
f 1514 1490 1504
f 1515 1516 1517
f 1515 1517 1518
f 1516 1519 1520
f 1516 1520 1517
f 1519 1521 1522
f 1519 1522 1520
f 1521 1523 1524
f 1521 1524 1522
f 1523 1525 1526
f 1523 1526 1524
f 1525 1527 1528
f 1525 1528 1526
f 1527 1529 1530
f 1527 1530 1528
f 1529 1531 1532
f 1529 1532 1530
f 1531 1533 1534
f 1531 1534 1532
f 1533 1535 1536
f 1533 1536 1534
f 1535 1537 1538
f 1535 1538 1536
f 1537 1539 1540
f 1537 1540 1538
f 1539 1541 1542
f 1539 1542 1540
f 1541 1543 1544
f 1541 1544 1542
f 1543 1545 1546
f 1543 1546 1544
f 1545 1515 1518
f 1545 1518 1546
f 176 1530 1532
f 177 176 1532
f 175 1528 1530
f 176 175 1530
f 174 1526 1528
f 175 174 1528
f 173 1524 1526
f 174 173 1526
f 172 1522 1524
f 173 172 1524
f 171 1520 1522
f 172 171 1522
f 169 1517 1520
f 171 169 1520
f 170 1518 1517
f 169 170 1517
f 184 1546 1518
f 170 184 1518
f 183 1544 1546
f 184 183 1546
f 182 1542 1544
f 183 182 1544
f 181 1540 1542
f 182 181 1542
f 180 1538 1540
f 181 180 1540
f 179 1536 1538
f 180 179 1538
f 178 1534 1536
f 179 178 1536
f 177 1532 1534
f 178 177 1534
f 1547 1516 1515
f 1547 1515 1548
f 1549 1519 1516
f 1549 1516 1547
f 1550 1521 1519
f 1550 1519 1549
f 1551 1523 1521
f 1551 1521 1550
f 1552 1525 1523
f 1552 1523 1551
f 1553 1527 1525
f 1553 1525 1552
f 1554 1529 1527
f 1554 1527 1553
f 1555 1531 1529
f 1555 1529 1554
f 1556 1533 1531
f 1556 1531 1555
f 1557 1535 1533
f 1557 1533 1556
f 1558 1537 1535
f 1558 1535 1557
f 1559 1539 1537
f 1559 1537 1558
f 1560 1541 1539
f 1560 1539 1559
f 1561 1543 1541
f 1561 1541 1560
f 1562 1545 1543
f 1562 1543 1561
f 1548 1515 1545
f 1548 1545 1562
f 1563 1564 1547
f 1563 1547 1548
f 1564 1565 1549
f 1564 1549 1547
f 1565 1424 1550
f 1565 1550 1549
f 1424 1428 1551
f 1424 1551 1550
f 1428 1425 1552
f 1428 1552 1551
f 1425 1566 1553
f 1425 1553 1552
f 1566 1567 1554
f 1566 1554 1553
f 1567 1568 1555
f 1567 1555 1554
f 1568 1569 1556
f 1568 1556 1555
f 1569 1570 1557
f 1569 1557 1556
f 1570 1420 1558
f 1570 1558 1557
f 1420 1422 1559
f 1420 1559 1558
f 1422 1417 1560
f 1422 1560 1559
f 1417 1571 1561
f 1417 1561 1560
f 1571 1572 1562
f 1571 1562 1561
f 1572 1563 1548
f 1572 1548 1562
f 1573 257 1574
f 1573 1574 1375
f 252 1575 1373
f 252 1373 1576
f 1577 237 1578
f 1577 1578 1378
f 272 1579 1380
f 272 1380 1580
f 1581 1582 212
f 1581 212 1583
f 1582 1584 1585
f 1582 1585 212
f 1586 1587 219
f 1586 219 1588
f 1587 1589 1590
f 1587 1590 219
