# Botball Lab: metres, +Y up, centred XZ, base Y=0
s off
v -0.0032000 0.0036000 -0.0044920
v -0.0032000 0.0045185 -0.0043093
v -0.0032000 0.0048246 -0.0050484
v -0.0032000 0.0036000 -0.0052920
v -0.0032000 0.0052970 -0.0037890
v -0.0032000 0.0058627 -0.0043547
v -0.0032000 0.0058174 -0.0030104
v -0.0032000 0.0065565 -0.0033166
v -0.0032000 0.0060000 -0.0020920
v -0.0032000 0.0068000 -0.0020920
v -0.0032000 0.0058174 -0.0011735
v -0.0032000 0.0065565 -0.0008673
v -0.0032000 0.0052970 -0.0003949
v -0.0032000 0.0058627 0.0001708
v -0.0032000 0.0045185 0.0001254
v -0.0032000 0.0048246 0.0008645
v -0.0032000 0.0036000 0.0003080
v -0.0032000 0.0036000 0.0011080
v -0.0032000 0.0026815 0.0001254
v -0.0032000 0.0023754 0.0008645
v -0.0032000 0.0019030 -0.0003949
v -0.0032000 0.0013373 0.0001708
v -0.0032000 0.0013826 -0.0011735
v -0.0032000 0.0006435 -0.0008673
v -0.0032000 0.0012000 -0.0020920
v -0.0032000 0.0004000 -0.0020920
v -0.0032000 0.0013826 -0.0030104
v -0.0032000 0.0006435 -0.0033166
v -0.0032000 0.0019030 -0.0037890
v -0.0032000 0.0013373 -0.0043547
v -0.0032000 0.0026815 -0.0043093
v -0.0032000 0.0023754 -0.0050484
v -0.0040000 0.0006435 -0.0033166
v -0.0040000 0.0004000 -0.0020920
v -0.0040000 0.0013373 -0.0043547
v -0.0040000 0.0023754 -0.0050484
v -0.0040000 0.0036000 -0.0052920
v -0.0040000 0.0048246 -0.0050484
v -0.0040000 0.0058627 -0.0043547
v -0.0040000 0.0065565 -0.0033166
v -0.0040000 0.0068000 -0.0020920
v -0.0040000 0.0065565 -0.0008673
v -0.0040000 0.0058627 0.0001708
v -0.0040000 0.0048246 0.0008645
v -0.0040000 0.0036000 0.0011080
v -0.0040000 0.0023754 0.0008645
v -0.0040000 0.0013373 0.0001708
v -0.0040000 0.0006435 -0.0008673
v -0.0040000 0.0000000 -0.0020920
v -0.0040000 0.0002740 -0.0007142
v -0.0040000 0.0010544 0.0004536
v -0.0040000 0.0022223 0.0012341
v -0.0040000 0.0036000 0.0015080
v -0.0040000 0.0049777 0.0012341
v -0.0040000 0.0061456 0.0004536
v -0.0040000 0.0069260 -0.0007142
v -0.0040000 0.0072000 -0.0020920
v -0.0040000 0.0069260 -0.0034697
v -0.0040000 0.0061456 -0.0046375
v -0.0040000 0.0049777 -0.0054180
v -0.0040000 0.0036000 -0.0056920
v -0.0040000 0.0022223 -0.0054180
v -0.0040000 0.0010544 -0.0046375
v -0.0040000 0.0002740 -0.0034697
v 0.0032000 0.0013826 -0.0030104
v 0.0032000 0.0012000 -0.0020920
v 0.0032000 0.0019030 -0.0037890
v 0.0032000 0.0026815 -0.0043093
v 0.0032000 0.0036000 -0.0044920
v 0.0032000 0.0045185 -0.0043093
v 0.0032000 0.0052970 -0.0037890
v 0.0032000 0.0058174 -0.0030104
v 0.0032000 0.0060000 -0.0020920
v 0.0032000 0.0058174 -0.0011735
v 0.0032000 0.0052970 -0.0003949
v 0.0032000 0.0045185 0.0001254
v 0.0032000 0.0036000 0.0003080
v 0.0032000 0.0026815 0.0001254
v 0.0032000 0.0019030 -0.0003949
v 0.0032000 0.0013826 -0.0011735
v 0.0040000 0.0000000 -0.0020920
v 0.0040000 0.0002740 -0.0034697
v 0.0040000 0.0006435 -0.0033166
v 0.0040000 0.0004000 -0.0020920
v 0.0040000 0.0010544 -0.0046375
v 0.0040000 0.0013373 -0.0043547
v 0.0040000 0.0022223 -0.0054180
v 0.0040000 0.0023754 -0.0050484
v 0.0040000 0.0036000 -0.0056920
v 0.0040000 0.0036000 -0.0052920
v 0.0040000 0.0049777 -0.0054180
v 0.0040000 0.0048246 -0.0050484
v 0.0040000 0.0061456 -0.0046375
v 0.0040000 0.0058627 -0.0043547
v 0.0040000 0.0069260 -0.0034697
v 0.0040000 0.0065565 -0.0033166
v 0.0040000 0.0072000 -0.0020920
v 0.0040000 0.0068000 -0.0020920
v 0.0040000 0.0069260 -0.0007142
v 0.0040000 0.0065565 -0.0008673
v 0.0040000 0.0061456 0.0004536
v 0.0040000 0.0058627 0.0001708
v 0.0040000 0.0049777 0.0012341
v 0.0040000 0.0048246 0.0008645
v 0.0040000 0.0036000 0.0015080
v 0.0040000 0.0036000 0.0011080
v 0.0040000 0.0022223 0.0012341
v 0.0040000 0.0023754 0.0008645
v 0.0040000 0.0010544 0.0004536
v 0.0040000 0.0013373 0.0001708
v 0.0040000 0.0002740 -0.0007142
v 0.0040000 0.0006435 -0.0008673
v 0.0032000 0.0048246 -0.0050484
v 0.0032000 0.0036000 -0.0052920
v 0.0032000 0.0058627 -0.0043547
v 0.0032000 0.0065565 -0.0033166
v 0.0032000 0.0068000 -0.0020920
v 0.0032000 0.0065565 -0.0008673
v 0.0032000 0.0058627 0.0001708
v 0.0032000 0.0048246 0.0008645
v 0.0032000 0.0036000 0.0011080
v 0.0032000 0.0023754 0.0008645
v 0.0032000 0.0013373 0.0001708
v 0.0032000 0.0006435 -0.0008673
v 0.0032000 0.0004000 -0.0020920
v 0.0032000 0.0006435 -0.0033166
v 0.0032000 0.0013373 -0.0043547
v 0.0032000 0.0023754 -0.0050484
v -0.0024000 0.0072955 -0.0036227
v -0.0024000 0.0143170 -0.0065311
v -0.0022409 0.0146232 -0.0057919
v -0.0022409 0.0076017 -0.0028836
v -0.0016000 0.0076017 -0.0028836
v -0.0016000 0.0146232 -0.0057919
v -0.0010000 0.0146997 -0.0056072
v -0.0010000 0.0076782 -0.0026988
v -0.0008000 0.0149293 -0.0050528
v -0.0008000 0.0079078 -0.0021445
v -0.0008000 0.0151746 -0.0044607
v -0.0008000 0.0081531 -0.0015523
v 0.0000000 0.0152354 -0.0043137
v 0.0000000 0.0082140 -0.0014054
v 0.0009185 0.0151655 -0.0044825
v 0.0009185 0.0081441 -0.0015741
v 0.0014046 0.0150413 -0.0047825
v 0.0014046 0.0080198 -0.0018741
v 0.0009303 0.0147797 -0.0054139
v 0.0009303 0.0077583 -0.0025055
v 0.0010000 0.0146997 -0.0056072
v 0.0010000 0.0076782 -0.0026988
v 0.0012092 0.0146730 -0.0056716
v 0.0012092 0.0076515 -0.0027632
v 0.0018926 0.0078330 -0.0023250
v 0.0018926 0.0148545 -0.0052334
v 0.0022174 0.0146685 -0.0056825
v 0.0022174 0.0076470 -0.0027741
v 0.0024000 0.0143170 -0.0065311
v 0.0024000 0.0072955 -0.0036227
v 0.0022409 0.0140109 -0.0072702
v 0.0022409 0.0069894 -0.0043618
v 0.0016000 0.0069894 -0.0043618
v 0.0016000 0.0140109 -0.0072702
v 0.0010000 0.0139343 -0.0074549
v 0.0010000 0.0069128 -0.0045466
v 0.0008000 0.0137047 -0.0080093
v 0.0008000 0.0066832 -0.0051009
v 0.0008000 0.0134595 -0.0086014
v 0.0008000 0.0064380 -0.0056930
v 0.0000000 0.0133986 -0.0087484
v 0.0000000 0.0063771 -0.0058400
v -0.0009185 0.0134685 -0.0085796
v -0.0009185 0.0064470 -0.0056713
v -0.0014046 0.0135927 -0.0082796
v -0.0014046 0.0065712 -0.0053713
v -0.0009303 0.0138543 -0.0076482
v -0.0009303 0.0068328 -0.0047398
v -0.0010000 0.0139343 -0.0074549
v -0.0010000 0.0069128 -0.0045466
v -0.0012092 0.0139610 -0.0073905
v -0.0012092 0.0069395 -0.0044821
v -0.0018926 0.0067580 -0.0049204
v -0.0018926 0.0137795 -0.0078287
v -0.0022174 0.0139655 -0.0073796
v -0.0022174 0.0069440 -0.0044712
v -0.0022174 0.0146685 -0.0056825
v -0.0016971 0.0149665 -0.0049631
v -0.0009184 0.0151655 -0.0044825
v 0.0016972 0.0149665 -0.0049630
v 0.0016970 0.0149664 -0.0049632
v 0.0022174 0.0139655 -0.0073796
v 0.0016971 0.0136676 -0.0080990
v 0.0009184 0.0134685 -0.0085796
v -0.0016970 0.0136676 -0.0080989
v -0.0024000 0.0146866 -0.0066841
v -0.0022174 0.0150380 -0.0058356
v -0.0016970 0.0153360 -0.0051163
v -0.0016970 0.0149664 -0.0049632
v -0.0009185 0.0155351 -0.0046355
v -0.0009185 0.0151655 -0.0044825
v 0.0000000 0.0156050 -0.0044668
v 0.0009185 0.0155351 -0.0046355
v 0.0016970 0.0153360 -0.0051163
v 0.0022174 0.0150380 -0.0058356
v 0.0024000 0.0146866 -0.0066841
v 0.0022174 0.0143351 -0.0075327
v 0.0016970 0.0140371 -0.0082520
v 0.0016970 0.0136676 -0.0080989
v 0.0009185 0.0138380 -0.0087327
v 0.0009185 0.0134685 -0.0085796
v 0.0000000 0.0137681 -0.0089014
v -0.0009185 0.0138380 -0.0087327
v -0.0016970 0.0140371 -0.0082520
v -0.0022174 0.0143351 -0.0075327
v -0.0016970 0.0137681 -0.0089014
v 0.0016970 0.0137681 -0.0089014
v -0.0024000 0.0153360 -0.0051163
v -0.0024000 0.0140371 -0.0082520
v 0.0016970 0.0156050 -0.0044668
v -0.0016970 0.0156050 -0.0044668
v 0.0024000 0.0140371 -0.0082520
v 0.0024000 0.0153360 -0.0051163
v 0.0000000 0.0072955 -0.0036227
v -0.0016970 0.0066461 -0.0051905
v 0.0009185 0.0064470 -0.0056713
v 0.0016970 0.0066461 -0.0051905
v 0.0022174 0.0069440 -0.0044712
v 0.0016970 0.0079449 -0.0020548
v -0.0009185 0.0081441 -0.0015741
v -0.0016970 0.0079449 -0.0020548
v -0.0022174 0.0076470 -0.0027741
v -0.0034000 0.0141592 -0.0079568
v -0.0034000 0.0061454 -0.0046375
v -0.0034000 0.0071998 -0.0020919
v -0.0034000 0.0152136 -0.0054113
v -0.0004619 0.0160220 -0.0034601
v -0.0013776 0.0159876 -0.0035432
v -0.0013776 0.0054132 0.0008368
v -0.0004619 0.0054476 0.0009199
v 0.0004617 0.0160220 -0.0034600
v 0.0004617 0.0054477 0.0009200
v 0.0013777 0.0159876 -0.0035430
v 0.0013777 0.0054133 0.0008370
v -0.0024719 0.0153607 -0.0050565
v -0.0028977 0.0152519 -0.0053193
v -0.0033998 0.0152137 -0.0054115
v -0.0017618 0.0156325 -0.0044003
v -0.0020461 0.0154696 -0.0047937
v -0.0013774 0.0159876 -0.0035431
v -0.0014772 0.0157954 -0.0040071
v -0.0024719 0.0073470 -0.0017371
v -0.0033998 0.0071999 -0.0020922
v -0.0017618 0.0076188 -0.0010810
v -0.0013774 0.0079739 -0.0002237
v -0.0024719 0.0070798 -0.0016265
v -0.0017618 0.0065905 -0.0006550
v -0.0013774 0.0058067 0.0006739
v 0.0033998 0.0152137 -0.0054115
v 0.0028977 0.0152519 -0.0053193
v 0.0024719 0.0153607 -0.0050565
v 0.0020461 0.0154696 -0.0047937
v 0.0017618 0.0156325 -0.0044003
v 0.0014772 0.0157954 -0.0040071
v 0.0013774 0.0159876 -0.0035431
v 0.0024719 0.0073470 -0.0017371
v 0.0033998 0.0071999 -0.0020922
v 0.0017618 0.0076188 -0.0010810
v 0.0013774 0.0079739 -0.0002237
v 0.0024719 0.0070798 -0.0016265
v 0.0017618 0.0065905 -0.0006550
v 0.0013774 0.0058067 0.0006739
v 0.0034000 0.0152139 -0.0054114
v 0.0034000 0.0072002 -0.0020920
v 0.0034000 0.0061458 -0.0046376
v 0.0034000 0.0141595 -0.0079570
v 0.0004619 0.0133511 -0.0099081
v 0.0013776 0.0133855 -0.0098251
v 0.0013776 0.0028112 -0.0054451
v 0.0004619 0.0027768 -0.0055281
v -0.0004617 0.0133511 -0.0099082
v -0.0004617 0.0027767 -0.0055282
v -0.0013777 0.0133855 -0.0098252
v -0.0013777 0.0028111 -0.0054452
v 0.0024719 0.0140124 -0.0083118
v 0.0028977 0.0141212 -0.0080490
v 0.0033998 0.0141594 -0.0079567
v 0.0017618 0.0137406 -0.0089679
v 0.0020461 0.0139035 -0.0085745
v 0.0013774 0.0133855 -0.0098251
v 0.0014772 0.0135777 -0.0093611
v 0.0024719 0.0059986 -0.0049924
v 0.0033998 0.0061457 -0.0046373
v 0.0017618 0.0057269 -0.0056486
v 0.0013774 0.0053718 -0.0065058
v 0.0024719 0.0057315 -0.0048817
v 0.0017618 0.0046986 -0.0052226
v 0.0013774 0.0032046 -0.0056081
v -0.0033998 0.0141594 -0.0079567
v -0.0028977 0.0141212 -0.0080490
v -0.0024719 0.0140124 -0.0083118
v -0.0020461 0.0139035 -0.0085745
v -0.0017618 0.0137406 -0.0089679
v -0.0014772 0.0135777 -0.0093611
v -0.0013774 0.0133855 -0.0098251
v -0.0024719 0.0059986 -0.0049924
v -0.0033998 0.0061457 -0.0046373
v -0.0017618 0.0057269 -0.0056486
v -0.0013774 0.0053718 -0.0065058
v -0.0024719 0.0057315 -0.0048817
v -0.0017618 0.0046986 -0.0052226
v -0.0013774 0.0032046 -0.0056081
v -0.0034000 0.0141592 -0.0079569
v -0.0034000 0.0152136 -0.0054112
v -0.0024719 0.0140124 -0.0083117
v 0.0024719 0.0140124 -0.0083117
v -0.0022409 0.0044000 0.0095080
v -0.0024000 0.0036000 0.0095080
v -0.0024000 0.0036000 0.0019080
v -0.0022409 0.0044000 0.0019080
v -0.0016000 0.0044000 0.0019080
v -0.0016000 0.0044000 0.0095080
v -0.0010000 0.0046000 0.0019080
v -0.0010000 0.0046000 0.0095080
v -0.0008000 0.0052000 0.0019080
v -0.0008000 0.0052000 0.0095080
v -0.0008000 0.0058409 0.0019080
v -0.0008000 0.0058409 0.0095080
v 0.0000000 0.0060000 0.0019080
v 0.0000000 0.0060000 0.0095080
v 0.0009185 0.0058174 0.0095080
v 0.0009185 0.0058174 0.0019080
v 0.0014046 0.0054926 0.0095080
v 0.0014046 0.0054926 0.0019080
v 0.0009303 0.0048092 0.0019080
v 0.0009303 0.0048092 0.0095080
v 0.0010000 0.0046000 0.0019080
v 0.0010000 0.0046000 0.0095080
v 0.0012092 0.0045303 0.0095080
v 0.0012092 0.0045303 0.0019080
v 0.0018926 0.0050046 0.0019080
v 0.0018926 0.0050046 0.0095080
v 0.0022174 0.0045185 0.0095080
v 0.0022174 0.0045185 0.0019080
v 0.0024000 0.0036000 0.0095080
v 0.0024000 0.0036000 0.0019080
v 0.0022409 0.0028000 0.0095080
v 0.0022409 0.0028000 0.0019080
v 0.0016000 0.0028000 0.0019080
v 0.0016000 0.0028000 0.0095080
v 0.0010000 0.0026000 0.0019080
v 0.0010000 0.0026000 0.0095080
v 0.0008000 0.0020000 0.0019080
v 0.0008000 0.0020000 0.0095080
v 0.0008000 0.0013591 0.0019080
v 0.0008000 0.0013591 0.0095080
v 0.0000000 0.0012000 0.0019080
v 0.0000000 0.0012000 0.0095080
v -0.0009185 0.0013826 0.0095080
v -0.0009185 0.0013826 0.0019080
v -0.0014046 0.0017074 0.0095080
v -0.0014046 0.0017074 0.0019080
v -0.0009303 0.0023908 0.0019080
v -0.0009303 0.0023908 0.0095080
v -0.0010000 0.0026000 0.0019080
v -0.0010000 0.0026000 0.0095080
v -0.0012092 0.0026697 0.0095080
v -0.0012092 0.0026697 0.0019080
v -0.0018926 0.0021954 0.0019080
v -0.0018926 0.0021954 0.0095080
v -0.0022174 0.0026815 0.0095080
v -0.0022174 0.0026815 0.0019080
v -0.0016971 0.0052971 0.0095080
v -0.0022174 0.0045184 0.0095080
v -0.0009184 0.0058174 0.0095080
v 0.0016972 0.0052972 0.0095080
v 0.0016970 0.0052970 0.0095080
v 0.0016971 0.0019029 0.0095080
v 0.0022174 0.0026816 0.0095080
v 0.0009184 0.0013826 0.0095080
v -0.0016970 0.0019030 0.0095080
v -0.0022174 0.0045185 0.0095080
v -0.0022174 0.0045185 0.0099080
v -0.0024000 0.0036000 0.0099080
v -0.0016970 0.0052970 0.0095080
v -0.0016970 0.0052970 0.0099080
v -0.0009185 0.0058174 0.0095080
v -0.0009185 0.0058174 0.0099080
v 0.0000000 0.0060000 0.0099080
v 0.0009185 0.0058174 0.0099080
v 0.0016970 0.0052970 0.0099080
v 0.0022174 0.0045185 0.0099080
v 0.0024000 0.0036000 0.0099080
v 0.0022174 0.0026815 0.0095080
v 0.0022174 0.0026815 0.0099080
v 0.0016970 0.0019030 0.0095080
v 0.0016970 0.0019030 0.0099080
v 0.0009185 0.0013826 0.0095080
v 0.0009185 0.0013826 0.0099080
v 0.0000000 0.0012000 0.0099080
v -0.0009185 0.0013826 0.0099080
v -0.0016970 0.0019030 0.0099080
v -0.0022174 0.0026815 0.0099080
v -0.0016970 0.0012000 0.0099080
v 0.0016970 0.0012000 0.0099080
v -0.0024000 0.0052970 0.0099080
v -0.0024000 0.0019030 0.0099080
v 0.0016970 0.0060000 0.0099080
v -0.0016970 0.0060000 0.0099080
v 0.0024000 0.0019030 0.0099080
v 0.0024000 0.0052970 0.0099080
v 0.0000000 0.0036000 0.0019080
v -0.0016970 0.0019030 0.0019080
v 0.0009185 0.0013826 0.0019080
v 0.0016970 0.0019030 0.0019080
v 0.0022174 0.0026815 0.0019080
v 0.0016970 0.0052970 0.0019080
v -0.0009185 0.0058174 0.0019080
v -0.0016970 0.0052970 0.0019080
v -0.0022174 0.0045185 0.0019080
v -0.0034000 0.0049777 0.0012338
v -0.0034000 0.0022223 0.0012338
v -0.0034000 0.0022223 0.0099078
v -0.0034000 0.0049777 0.0099078
v -0.0013776 0.0069998 -0.0015376
v -0.0013776 0.0069998 0.0099080
v -0.0004619 0.0070896 0.0099080
v -0.0004619 0.0070896 -0.0015376
v 0.0004617 0.0070898 0.0099080
v 0.0004617 0.0070898 -0.0015376
v 0.0013777 0.0069999 0.0099080
v 0.0013777 0.0069999 -0.0015376
v -0.0033998 0.0049774 0.0099080
v -0.0028977 0.0050773 0.0099080
v -0.0024719 0.0053617 0.0099080
v -0.0020461 0.0056461 0.0099080
v -0.0017618 0.0060720 0.0099080
v -0.0014772 0.0064976 0.0099080
v -0.0013774 0.0069998 0.0099080
v -0.0024719 0.0053617 0.0012340
v -0.0033998 0.0049774 0.0012340
v -0.0017618 0.0060720 0.0012340
v -0.0013774 0.0069998 0.0012340
v -0.0024719 0.0053617 0.0009449
v -0.0017618 0.0060720 0.0001210
v -0.0013774 0.0069998 -0.0011117
v 0.0024719 0.0053617 0.0099080
v 0.0028977 0.0050773 0.0099080
v 0.0033998 0.0049774 0.0099080
v 0.0017618 0.0060720 0.0099080
v 0.0020461 0.0056461 0.0099080
v 0.0013774 0.0069998 0.0099080
v 0.0014772 0.0064976 0.0099080
v 0.0024719 0.0053617 0.0012340
v 0.0033998 0.0049774 0.0012340
v 0.0017618 0.0060720 0.0012340
v 0.0013774 0.0069998 0.0012340
v 0.0024719 0.0053617 0.0009449
v 0.0017618 0.0060720 0.0001210
v 0.0013774 0.0069998 -0.0011117
v 0.0034000 0.0022223 0.0012342
v 0.0034000 0.0049777 0.0012342
v 0.0034000 0.0049777 0.0099082
v 0.0034000 0.0022223 0.0099082
v 0.0013776 0.0002002 -0.0015376
v 0.0013776 0.0002002 0.0099080
v 0.0004619 0.0001104 0.0099080
v 0.0004619 0.0001104 -0.0015376
v -0.0004617 0.0001102 0.0099080
v -0.0004617 0.0001102 -0.0015376
v -0.0013777 0.0002001 0.0099080
v -0.0013777 0.0002001 -0.0015376
v 0.0033998 0.0022226 0.0099080
v 0.0028977 0.0021227 0.0099080
v 0.0024719 0.0018383 0.0099080
v 0.0020461 0.0015539 0.0099080
v 0.0017618 0.0011280 0.0099080
v 0.0014772 0.0007024 0.0099080
v 0.0013774 0.0002002 0.0099080
v 0.0024719 0.0018383 0.0012340
v 0.0033998 0.0022226 0.0012340
v 0.0017618 0.0011280 0.0012340
v 0.0013774 0.0002002 0.0012340
v 0.0024719 0.0018383 0.0009449
v 0.0017618 0.0011280 0.0001210
v 0.0013774 0.0002002 -0.0011117
v -0.0024719 0.0018383 0.0099080
v -0.0028977 0.0021227 0.0099080
v -0.0033998 0.0022226 0.0099080
v -0.0017618 0.0011280 0.0099080
v -0.0020461 0.0015539 0.0099080
v -0.0013774 0.0002002 0.0099080
v -0.0014772 0.0007024 0.0099080
v -0.0024719 0.0018383 0.0012340
v -0.0033998 0.0022226 0.0012340
v -0.0017618 0.0011280 0.0012340
v -0.0013774 0.0002002 0.0012340
v -0.0024719 0.0018383 0.0009449
v -0.0017618 0.0011280 0.0001210
v -0.0013774 0.0002002 -0.0011117
v -0.0020461 0.0015538 0.0099080
v 0.0020461 0.0015538 0.0099080
v 0.0020461 0.0056462 0.0099080
v -0.0020461 0.0056462 0.0099080
v -0.0036000 0.0029800 0.0048080
v -0.0036000 0.0046300 0.0048080
v -0.0036000 0.0046300 0.0044080
v -0.0036000 0.0025800 0.0044080
v -0.0036000 0.0025800 0.0064580
v -0.0036000 0.0029800 0.0060580
v -0.0036000 0.0037300 0.0064580
v -0.0036000 0.0038800 0.0060580
v -0.0036000 0.0040300 0.0066080
v -0.0036000 0.0043800 0.0063580
v -0.0036000 0.0042300 0.0069580
v -0.0036000 0.0046300 0.0068580
v -0.0036000 0.0042300 0.0078080
v -0.0036000 0.0046300 0.0078580
v -0.0036000 0.0040800 0.0080580
v -0.0036000 0.0043300 0.0084080
v -0.0036000 0.0037800 0.0082080
v -0.0036000 0.0038800 0.0086080
v -0.0036000 0.0026300 0.0082080
v -0.0036000 0.0026300 0.0086080
v -0.0036000 0.0037300 0.0064578
v -0.0034000 0.0037300 0.0064578
v -0.0034000 0.0040300 0.0066078
v -0.0036000 0.0040300 0.0066078
v -0.0034000 0.0043800 0.0063580
v -0.0034000 0.0038800 0.0060580
v -0.0034000 0.0046300 0.0048080
v -0.0034000 0.0046300 0.0044080
v -0.0036000 0.0025802 0.0044080
v -0.0036000 0.0046302 0.0044080
v -0.0034000 0.0046302 0.0044080
v -0.0034000 0.0025802 0.0044080
v -0.0036000 0.0025800 0.0064578
v -0.0036000 0.0025800 0.0044078
v -0.0034000 0.0025800 0.0044078
v -0.0034000 0.0025800 0.0064578
v -0.0036000 0.0025798 0.0064580
v -0.0034000 0.0025798 0.0064580
v -0.0034000 0.0037298 0.0064580
v -0.0036000 0.0037298 0.0064580
v -0.0034000 0.0042300 0.0069578
v -0.0036000 0.0042300 0.0069578
v -0.0034000 0.0042300 0.0078078
v -0.0036000 0.0042300 0.0078078
v -0.0036000 0.0042298 0.0078078
v -0.0034000 0.0042298 0.0078078
v -0.0034000 0.0040798 0.0080578
v -0.0036000 0.0040798 0.0080578
v -0.0036000 0.0040800 0.0080578
v -0.0034000 0.0040800 0.0080578
v -0.0034000 0.0037800 0.0082078
v -0.0036000 0.0037800 0.0082078
v -0.0036000 0.0026298 0.0082080
v -0.0036000 0.0037798 0.0082080
v -0.0034000 0.0037798 0.0082080
v -0.0034000 0.0026298 0.0082080
v -0.0034000 0.0026300 0.0082080
v -0.0034000 0.0026300 0.0086080
v -0.0036000 0.0026298 0.0086080
v -0.0034000 0.0026298 0.0086080
v -0.0034000 0.0038798 0.0086080
v -0.0036000 0.0038798 0.0086080
v -0.0034000 0.0043298 0.0084080
v -0.0036000 0.0043298 0.0084080
v -0.0036000 0.0043300 0.0084078
v -0.0034000 0.0043300 0.0084078
v -0.0034000 0.0046300 0.0078578
v -0.0036000 0.0046300 0.0078578
v -0.0034000 0.0046300 0.0078580
v -0.0034000 0.0046300 0.0068580
v -0.0036000 0.0046302 0.0068580
v -0.0034000 0.0046302 0.0068580
v -0.0034000 0.0043802 0.0063580
v -0.0036000 0.0043802 0.0063580
v -0.0034000 0.0029800 0.0060580
v -0.0036000 0.0029800 0.0048078
v -0.0036000 0.0029800 0.0060578
v -0.0034000 0.0029800 0.0060578
v -0.0034000 0.0029800 0.0048078
v -0.0036000 0.0029798 0.0048080
v -0.0034000 0.0029798 0.0048080
v -0.0034000 0.0046298 0.0048080
v -0.0036000 0.0046298 0.0048080
v 0.0036000 0.0097376 -0.0053052
v 0.0036000 0.0103688 -0.0037808
v 0.0036000 0.0099996 -0.0036276
v 0.0036000 0.0092148 -0.0055216
v 0.0036000 0.0111088 -0.0063064
v 0.0036000 0.0108924 -0.0057836
v 0.0036000 0.0115488 -0.0052436
v 0.0036000 0.0112368 -0.0049520
v 0.0036000 0.0118024 -0.0050240
v 0.0036000 0.0117052 -0.0046048
v 0.0036000 0.0122024 -0.0049732
v 0.0036000 0.0122628 -0.0045652
v 0.0036000 0.0129876 -0.0052984
v 0.0036000 0.0131868 -0.0049480
v 0.0036000 0.0131612 -0.0055328
v 0.0036000 0.0135800 -0.0054356
v 0.0036000 0.0131848 -0.0058672
v 0.0036000 0.0135928 -0.0059280
v 0.0036000 0.0127448 -0.0069296
v 0.0036000 0.0131144 -0.0070828
v 0.0036000 0.0115489 -0.0052438
v 0.0034000 0.0115489 -0.0052438
v 0.0034000 0.0118023 -0.0050241
v 0.0036000 0.0118023 -0.0050241
v 0.0036000 0.0117055 -0.0046048
v 0.0034000 0.0117055 -0.0046048
v 0.0034000 0.0112369 -0.0049519
v 0.0036000 0.0112369 -0.0049519
v 0.0036000 0.0103692 -0.0037809
v 0.0034000 0.0103692 -0.0037809
v 0.0034000 0.0099996 -0.0036278
v 0.0036000 0.0099996 -0.0036278
v 0.0036000 0.0092149 -0.0055217
v 0.0036000 0.0099995 -0.0036278
v 0.0034000 0.0099995 -0.0036278
v 0.0034000 0.0092149 -0.0055217
v 0.0036000 0.0111090 -0.0063062
v 0.0036000 0.0092150 -0.0055217
v 0.0034000 0.0092150 -0.0055217
v 0.0034000 0.0111090 -0.0063062
v 0.0036000 0.0111088 -0.0063060
v 0.0034000 0.0111088 -0.0063060
v 0.0034000 0.0115488 -0.0052435
v 0.0036000 0.0115488 -0.0052435
v 0.0036000 0.0118025 -0.0050238
v 0.0034000 0.0118025 -0.0050238
v 0.0034000 0.0122023 -0.0049729
v 0.0036000 0.0122023 -0.0049729
v 0.0036000 0.0122022 -0.0049729
v 0.0034000 0.0122022 -0.0049729
v 0.0034000 0.0129874 -0.0052982
v 0.0036000 0.0129874 -0.0052982
v 0.0034000 0.0129876 -0.0052984
v 0.0034000 0.0131612 -0.0055327
v 0.0036000 0.0131612 -0.0055327
v 0.0036000 0.0131613 -0.0055327
v 0.0034000 0.0131613 -0.0055327
v 0.0034000 0.0131851 -0.0058672
v 0.0036000 0.0131851 -0.0058672
v 0.0036000 0.0131848 -0.0058671
v 0.0034000 0.0131848 -0.0058671
v 0.0034000 0.0127448 -0.0069296
v 0.0036000 0.0131144 -0.0070829
v 0.0036000 0.0127448 -0.0069298
v 0.0034000 0.0127448 -0.0069298
v 0.0034000 0.0131144 -0.0070829
v 0.0036000 0.0131144 -0.0070826
v 0.0034000 0.0131144 -0.0070826
v 0.0034000 0.0135928 -0.0059277
v 0.0036000 0.0135928 -0.0059277
v 0.0036000 0.0135927 -0.0059277
v 0.0034000 0.0135927 -0.0059277
v 0.0034000 0.0135801 -0.0054354
v 0.0036000 0.0135801 -0.0054354
v 0.0036000 0.0135803 -0.0054358
v 0.0034000 0.0135803 -0.0054358
v 0.0034000 0.0131869 -0.0049481
v 0.0036000 0.0131869 -0.0049481
v 0.0036000 0.0131867 -0.0049481
v 0.0034000 0.0131867 -0.0049481
v 0.0034000 0.0122629 -0.0045654
v 0.0036000 0.0122629 -0.0045654
v 0.0036000 0.0122628 -0.0045653
v 0.0034000 0.0122628 -0.0045653
v 0.0034000 0.0117052 -0.0046050
v 0.0036000 0.0117052 -0.0046050
v 0.0036000 0.0108926 -0.0057837
v 0.0036000 0.0112370 -0.0049522
v 0.0034000 0.0112370 -0.0049522
v 0.0034000 0.0108926 -0.0057837
v 0.0036000 0.0097374 -0.0053052
v 0.0036000 0.0108922 -0.0057835
v 0.0034000 0.0108922 -0.0057835
v 0.0034000 0.0097374 -0.0053052
v 0.0036000 0.0097375 -0.0053054
v 0.0034000 0.0097375 -0.0053054
v 0.0034000 0.0103689 -0.0037810
v 0.0036000 0.0103689 -0.0037810
f 1 2 3
f 4 1 3
f 2 5 6
f 3 2 6
f 5 7 8
f 6 5 8
f 7 9 10
f 8 7 10
f 9 11 12
f 10 9 12
f 11 13 14
f 12 11 14
f 13 15 16
f 14 13 16
f 15 17 18
f 16 15 18
f 17 19 20
f 18 17 20
f 19 21 22
f 20 19 22
f 21 23 24
f 22 21 24
f 23 25 26
f 24 23 26
f 25 27 28
f 26 25 28
f 27 29 30
f 28 27 30
f 29 31 32
f 30 29 32
f 31 1 4
f 32 31 4
f 26 28 33
f 26 33 34
f 28 30 35
f 28 35 33
f 30 32 36
f 30 36 35
f 32 4 37
f 32 37 36
f 4 3 38
f 4 38 37
f 3 6 39
f 3 39 38
f 6 8 40
f 6 40 39
f 8 10 41
f 8 41 40
f 10 12 42
f 10 42 41
f 12 14 43
f 12 43 42
f 14 16 44
f 14 44 43
f 16 18 45
f 16 45 44
f 18 20 46
f 18 46 45
f 20 22 47
f 20 47 46
f 22 24 48
f 22 48 47
f 24 26 34
f 24 34 48
f 49 50 48
f 49 48 34
f 50 51 47
f 50 47 48
f 51 52 46
f 51 46 47
f 52 53 45
f 52 45 46
f 53 54 44
f 53 44 45
f 54 55 43
f 54 43 44
f 55 56 42
f 55 42 43
f 56 57 41
f 56 41 42
f 57 58 40
f 57 40 41
f 58 59 39
f 58 39 40
f 59 60 38
f 59 38 39
f 60 61 37
f 60 37 38
f 61 62 36
f 61 36 37
f 62 63 35
f 62 35 36
f 63 64 33
f 63 33 35
f 64 49 34
f 64 34 33
f 65 27 25
f 66 65 25
f 67 29 27
f 65 67 27
f 68 31 29
f 67 68 29
f 69 1 31
f 68 69 31
f 70 2 1
f 69 70 1
f 71 5 2
f 70 71 2
f 72 7 5
f 71 72 5
f 73 9 7
f 72 73 7
f 74 11 9
f 73 74 9
f 75 13 11
f 74 75 11
f 76 15 13
f 75 76 13
f 77 17 15
f 76 77 15
f 78 19 17
f 77 78 17
f 79 21 19
f 78 79 19
f 80 23 21
f 79 80 21
f 66 25 23
f 80 66 23
f 81 82 83
f 81 83 84
f 82 85 86
f 82 86 83
f 85 87 88
f 85 88 86
f 87 89 90
f 87 90 88
f 89 91 92
f 89 92 90
f 91 93 94
f 91 94 92
f 93 95 96
f 93 96 94
f 95 97 98
f 95 98 96
f 97 99 100
f 97 100 98
f 99 101 102
f 99 102 100
f 101 103 104
f 101 104 102
f 103 105 106
f 103 106 104
f 105 107 108
f 105 108 106
f 107 109 110
f 107 110 108
f 109 111 112
f 109 112 110
f 111 81 84
f 111 84 112
f 113 70 69
f 113 69 114
f 115 71 70
f 115 70 113
f 116 72 71
f 116 71 115
f 117 73 72
f 117 72 116
f 118 74 73
f 118 73 117
f 119 75 74
f 119 74 118
f 120 76 75
f 120 75 119
f 121 77 76
f 121 76 120
f 122 78 77
f 122 77 121
f 123 79 78
f 123 78 122
f 124 80 79
f 124 79 123
f 125 66 80
f 125 80 124
f 126 65 66
f 126 66 125
f 127 67 65
f 127 65 126
f 128 68 67
f 128 67 127
f 114 69 68
f 114 68 128
f 83 126 125
f 84 83 125
f 86 127 126
f 83 86 126
f 88 128 127
f 86 88 127
f 90 114 128
f 88 90 128
f 92 113 114
f 90 92 114
f 94 115 113
f 92 94 113
f 96 116 115
f 94 96 115
f 98 117 116
f 96 98 116
f 100 118 117
f 98 100 117
f 102 119 118
f 100 102 118
f 104 120 119
f 102 104 119
f 106 121 120
f 104 106 120
f 108 122 121
f 106 108 121
f 110 123 122
f 108 110 122
f 112 124 123
f 110 112 123
f 84 125 124
f 112 84 124
f 64 82 81
f 49 64 81
f 63 85 82
f 64 63 82
f 62 87 85
f 63 62 85
f 61 89 87
f 62 61 87
f 60 91 89
f 61 60 89
f 59 93 91
f 60 59 91
f 58 95 93
f 59 58 93
f 57 97 95
f 58 57 95
f 56 99 97
f 57 56 97
f 55 101 99
f 56 55 99
f 54 103 101
f 55 54 101
f 53 105 103
f 54 53 103
f 52 107 105
f 53 52 105
f 51 109 107
f 52 51 107
f 50 111 109
f 51 50 109
f 49 81 111
f 50 49 111
f 129 130 131
f 129 131 132
f 133 132 131
f 133 131 134
f 134 135 136
f 134 136 133
f 137 138 136
f 137 136 135
f 139 140 138
f 139 138 137
f 139 141 142
f 139 142 140
f 142 141 143
f 142 143 144
f 144 143 145
f 144 145 146
f 145 147 148
f 145 148 146
f 149 150 148
f 149 148 147
f 150 149 151
f 150 151 152
f 153 152 151
f 153 151 154
f 153 154 155
f 153 155 156
f 156 155 157
f 156 157 158
f 158 157 159
f 158 159 160
f 161 160 159
f 161 159 162
f 162 163 164
f 162 164 161
f 165 166 164
f 165 164 163
f 167 168 166
f 167 166 165
f 167 169 170
f 167 170 168
f 170 169 171
f 170 171 172
f 172 171 173
f 172 173 174
f 173 175 176
f 173 176 174
f 177 178 176
f 177 176 175
f 178 177 179
f 178 179 180
f 181 180 179
f 181 179 182
f 181 182 183
f 181 183 184
f 184 183 130
f 184 130 129
f 135 185 186
f 135 186 187
f 135 134 131
f 135 131 185
f 137 135 187
f 137 187 139
f 154 151 149
f 154 149 188
f 147 145 189
f 147 189 149
f 163 190 191
f 163 191 192
f 163 162 159
f 163 159 190
f 165 163 192
f 165 192 167
f 182 179 177
f 182 177 193
f 175 173 193
f 175 193 177
f 194 195 185
f 194 185 130
f 195 196 197
f 195 197 185
f 196 198 199
f 196 199 197
f 198 200 141
f 198 141 199
f 200 201 143
f 200 143 141
f 201 202 189
f 201 189 143
f 202 203 155
f 202 155 189
f 203 204 157
f 203 157 155
f 204 205 190
f 204 190 157
f 205 206 207
f 205 207 190
f 206 208 209
f 206 209 207
f 208 210 169
f 208 169 209
f 210 211 171
f 210 171 169
f 211 212 193
f 211 193 171
f 212 213 183
f 212 183 193
f 213 194 130
f 213 130 183
f 214 211 210
f 214 212 211
f 210 208 215
f 208 206 215
f 216 195 194
f 216 196 195
f 194 213 217
f 213 212 217
f 218 201 200
f 218 202 201
f 200 198 219
f 198 196 219
f 220 205 204
f 220 206 205
f 204 203 221
f 203 202 221
f 184 129 222
f 223 184 222
f 172 223 222
f 170 172 222
f 224 170 222
f 225 224 222
f 226 225 222
f 158 226 222
f 156 158 222
f 227 156 222
f 144 227 222
f 142 144 222
f 228 142 222
f 229 228 222
f 230 229 222
f 129 230 222
f 231 232 233
f 231 233 234
f 235 236 237
f 235 237 238
f 239 235 238
f 239 238 240
f 241 239 240
f 241 240 242
f 236 235 239
f 236 239 241
f 243 244 245
f 246 247 243
f 248 249 246
f 250 243 245
f 250 245 251
f 252 246 243
f 252 243 250
f 253 248 246
f 253 246 252
f 251 254 250
f 250 254 255
f 250 255 252
f 252 255 256
f 252 256 253
f 257 258 259
f 259 260 261
f 261 262 263
f 257 259 264
f 265 257 264
f 259 261 266
f 264 259 266
f 261 263 267
f 266 261 267
f 264 268 265
f 269 268 264
f 266 269 264
f 270 269 266
f 267 270 266
f 271 272 273
f 271 273 274
f 275 276 277
f 275 277 278
f 279 275 278
f 279 278 280
f 281 279 280
f 281 280 282
f 276 275 279
f 276 279 281
f 283 284 285
f 286 287 283
f 288 289 286
f 290 283 285
f 290 285 291
f 292 286 283
f 292 283 290
f 293 288 286
f 293 286 292
f 291 294 290
f 290 294 295
f 290 295 292
f 292 295 296
f 292 296 293
f 297 298 299
f 299 300 301
f 301 302 303
f 297 299 304
f 305 297 304
f 299 301 306
f 304 299 306
f 301 303 307
f 306 301 307
f 304 308 305
f 309 308 304
f 306 309 304
f 310 309 306
f 307 310 306
f 244 194 311
f 244 311 312
f 298 311 194
f 313 298 194
f 313 194 217
f 300 313 217
f 300 217 212
f 301 300 212
f 301 212 214
f 301 214 210
f 301 210 302
f 288 281 302
f 288 302 210
f 289 288 210
f 210 215 286
f 210 286 289
f 287 286 215
f 287 215 206
f 314 287 206
f 314 206 220
f 257 285 284
f 257 284 204
f 314 220 204
f 314 204 284
f 204 221 259
f 204 259 258
f 258 257 204
f 261 260 202
f 261 202 218
f 221 202 260
f 221 260 259
f 261 218 200
f 261 200 262
f 262 200 236
f 262 236 263
f 249 236 200
f 200 219 246
f 200 246 249
f 243 247 196
f 243 196 216
f 219 196 247
f 219 247 246
f 194 244 243
f 194 243 216
f 315 316 317
f 318 315 317
f 315 318 319
f 320 315 319
f 321 322 320
f 319 321 320
f 321 323 324
f 322 321 324
f 323 325 326
f 324 323 326
f 327 328 326
f 325 327 326
f 329 328 327
f 330 329 327
f 331 329 330
f 332 331 330
f 333 334 331
f 332 333 331
f 333 335 336
f 334 333 336
f 337 336 335
f 338 337 335
f 337 338 339
f 340 337 339
f 341 340 339
f 342 341 339
f 343 341 342
f 344 343 342
f 345 343 344
f 346 345 344
f 345 346 347
f 348 345 347
f 349 350 348
f 347 349 348
f 349 351 352
f 350 349 352
f 351 353 354
f 352 351 354
f 355 356 354
f 353 355 354
f 357 356 355
f 358 357 355
f 359 357 358
f 360 359 358
f 361 362 359
f 360 361 359
f 361 363 364
f 362 361 364
f 365 364 363
f 366 365 363
f 365 366 367
f 368 365 367
f 369 368 367
f 370 369 367
f 316 369 370
f 317 316 370
f 371 372 322
f 373 371 322
f 315 320 322
f 372 315 322
f 373 322 324
f 326 373 324
f 336 337 340
f 374 336 340
f 375 331 334
f 336 375 334
f 376 377 350
f 378 376 350
f 345 348 350
f 377 345 350
f 378 350 352
f 354 378 352
f 364 365 368
f 379 364 368
f 379 359 362
f 364 379 362
f 380 381 382
f 316 380 382
f 383 384 381
f 380 383 381
f 385 386 384
f 383 385 384
f 328 387 386
f 385 328 386
f 329 388 387
f 328 329 387
f 375 389 388
f 329 375 388
f 341 390 389
f 375 341 389
f 343 391 390
f 341 343 390
f 392 393 391
f 343 392 391
f 394 395 393
f 392 394 393
f 396 397 395
f 394 396 395
f 356 398 397
f 396 356 397
f 357 399 398
f 356 357 398
f 379 400 399
f 357 379 399
f 369 401 400
f 379 369 400
f 316 382 401
f 369 316 401
f 398 399 402
f 399 400 402
f 403 397 398
f 403 395 397
f 382 381 404
f 381 384 404
f 405 401 382
f 405 400 401
f 387 388 406
f 388 389 406
f 407 386 387
f 407 384 386
f 391 393 408
f 393 395 408
f 409 390 391
f 409 389 390
f 410 317 370
f 410 370 411
f 410 411 358
f 410 358 355
f 410 355 412
f 410 412 413
f 410 413 414
f 410 414 344
f 410 344 342
f 410 342 415
f 410 415 330
f 410 330 327
f 410 327 416
f 410 416 417
f 410 417 418
f 410 418 317
f 419 420 421
f 422 419 421
f 423 424 425
f 426 423 425
f 426 425 427
f 428 426 427
f 428 427 429
f 430 428 429
f 427 425 424
f 429 427 424
f 431 432 433
f 433 434 435
f 435 436 437
f 431 433 438
f 439 431 438
f 433 435 440
f 438 433 440
f 435 437 441
f 440 435 441
f 438 442 439
f 443 442 438
f 440 443 438
f 444 443 440
f 441 444 440
f 445 446 447
f 448 449 445
f 450 451 448
f 452 445 447
f 452 447 453
f 454 448 445
f 454 445 452
f 455 450 448
f 455 448 454
f 453 456 452
f 452 456 457
f 452 457 454
f 454 457 458
f 454 458 455
f 459 460 461
f 462 459 461
f 463 464 465
f 466 463 465
f 466 465 467
f 468 466 467
f 468 467 469
f 470 468 469
f 467 465 464
f 469 467 464
f 471 472 473
f 473 474 475
f 475 476 477
f 471 473 478
f 479 471 478
f 473 475 480
f 478 473 480
f 475 477 481
f 480 475 481
f 478 482 479
f 483 482 478
f 480 483 478
f 484 483 480
f 481 484 480
f 485 486 487
f 488 489 485
f 490 491 488
f 492 485 487
f 492 487 493
f 494 488 485
f 494 485 492
f 495 490 488
f 495 488 494
f 493 496 492
f 492 496 497
f 492 497 494
f 494 497 498
f 494 498 495
f 421 382 432
f 422 421 432
f 382 421 486
f 382 486 485
f 405 382 485
f 405 485 499
f 400 405 499
f 400 499 488
f 402 400 488
f 398 402 488
f 491 398 488
f 491 469 477
f 398 491 477
f 398 477 476
f 475 403 398
f 476 475 398
f 403 475 500
f 395 403 500
f 395 500 473
f 408 395 473
f 472 471 447
f 391 472 447
f 391 408 473
f 472 391 473
f 445 409 391
f 446 445 391
f 391 447 446
f 389 501 448
f 406 389 448
f 501 389 409
f 445 501 409
f 387 406 448
f 451 387 448
f 424 387 451
f 450 424 451
f 387 424 436
f 435 407 387
f 436 435 387
f 384 502 433
f 404 384 433
f 502 384 407
f 435 502 407
f 433 432 382
f 404 433 382
f 503 504 505
f 503 505 506
f 507 508 503
f 507 503 506
f 507 509 510
f 507 510 508
f 511 512 510
f 511 510 509
f 513 514 512
f 513 512 511
f 513 515 516
f 513 516 514
f 517 518 516
f 517 516 515
f 519 520 518
f 519 518 517
f 519 521 522
f 519 522 520
f 523 524 525
f 523 525 526
f 512 527 528
f 512 528 510
f 504 529 530
f 504 530 505
f 531 532 533
f 531 533 534
f 535 536 537
f 535 537 538
f 539 540 541
f 539 541 542
f 526 525 543
f 526 543 544
f 544 543 545
f 544 545 546
f 547 548 549
f 547 549 550
f 551 552 553
f 551 553 554
f 555 556 557
f 555 557 558
f 522 521 559
f 522 559 560
f 561 562 563
f 561 563 564
f 564 563 565
f 564 565 566
f 567 568 569
f 567 569 570
f 516 571 572
f 516 572 514
f 573 574 575
f 573 575 576
f 508 510 528
f 508 528 577
f 578 579 580
f 578 580 581
f 582 583 584
f 582 584 585
f 586 587 588
f 586 588 589
f 590 591 586
f 590 586 589
f 590 592 593
f 590 593 591
f 594 595 593
f 594 593 592
f 596 597 595
f 596 595 594
f 596 598 599
f 596 599 597
f 600 601 599
f 600 599 598
f 602 603 601
f 602 601 600
f 602 604 605
f 602 605 603
f 606 607 608
f 606 608 609
f 610 611 612
f 610 612 613
f 614 615 616
f 614 616 617
f 618 619 620
f 618 620 621
f 622 623 624
f 622 624 625
f 626 627 628
f 626 628 629
f 630 631 632
f 630 632 633
f 634 635 636
f 634 636 637
f 598 638 639
f 598 639 640
f 641 642 643
f 641 643 644
f 604 645 646
f 604 646 647
f 648 649 650
f 648 650 651
f 652 653 654
f 652 654 655
f 656 657 658
f 656 658 659
f 660 661 662
f 660 662 663
f 664 665 666
f 664 666 667
f 668 669 670
f 668 670 671
f 672 673 674
f 672 674 675
f 676 677 678
f 676 678 679
f 680 681 682
f 680 682 683
