# Botball Lab: metres, +Y up, centred XZ, base Y=0
s off
v 0.0032000 0.0036000 -0.0066001
v 0.0032000 0.0026815 -0.0064175
v 0.0032000 0.0023754 -0.0071566
v 0.0032000 0.0036000 -0.0074001
v 0.0032000 0.0019030 -0.0058971
v 0.0032000 0.0013373 -0.0064628
v 0.0032000 0.0013826 -0.0051186
v 0.0032000 0.0006435 -0.0054247
v 0.0032000 0.0012000 -0.0042001
v 0.0032000 0.0004000 -0.0042001
v 0.0032000 0.0013826 -0.0032816
v 0.0032000 0.0006435 -0.0029755
v 0.0032000 0.0019030 -0.0025031
v 0.0032000 0.0013373 -0.0019374
v 0.0032000 0.0026815 -0.0019827
v 0.0032000 0.0023754 -0.0012436
v 0.0032000 0.0036000 -0.0018001
v 0.0032000 0.0036000 -0.0010001
v 0.0032000 0.0045185 -0.0019827
v 0.0032000 0.0048246 -0.0012436
v 0.0032000 0.0052970 -0.0025031
v 0.0032000 0.0058627 -0.0019374
v 0.0032000 0.0058174 -0.0032816
v 0.0032000 0.0065565 -0.0029755
v 0.0032000 0.0060000 -0.0042001
v 0.0032000 0.0068000 -0.0042001
v 0.0032000 0.0058174 -0.0051186
v 0.0032000 0.0065565 -0.0054247
v 0.0032000 0.0052970 -0.0058971
v 0.0032000 0.0058627 -0.0064628
v 0.0032000 0.0045185 -0.0064175
v 0.0032000 0.0048246 -0.0071566
v 0.0040000 0.0065565 -0.0054247
v 0.0040000 0.0068000 -0.0042001
v 0.0040000 0.0058627 -0.0064628
v 0.0040000 0.0048246 -0.0071566
v 0.0040000 0.0036000 -0.0074001
v 0.0040000 0.0023754 -0.0071566
v 0.0040000 0.0013373 -0.0064628
v 0.0040000 0.0006435 -0.0054247
v 0.0040000 0.0004000 -0.0042001
v 0.0040000 0.0006435 -0.0029755
v 0.0040000 0.0013373 -0.0019374
v 0.0040000 0.0023754 -0.0012436
v 0.0040000 0.0036000 -0.0010001
v 0.0040000 0.0048246 -0.0012436
v 0.0040000 0.0058627 -0.0019374
v 0.0040000 0.0065565 -0.0029755
v 0.0040000 0.0072000 -0.0042001
v 0.0040000 0.0069260 -0.0028224
v 0.0040000 0.0061456 -0.0016545
v 0.0040000 0.0049777 -0.0008741
v 0.0040000 0.0036000 -0.0006001
v 0.0040000 0.0022223 -0.0008741
v 0.0040000 0.0010544 -0.0016545
v 0.0040000 0.0002740 -0.0028224
v 0.0040000 0.0000000 -0.0042001
v 0.0040000 0.0002740 -0.0055778
v 0.0040000 0.0010544 -0.0067457
v 0.0040000 0.0022223 -0.0075261
v 0.0040000 0.0036000 -0.0078001
v 0.0040000 0.0049777 -0.0075261
v 0.0040000 0.0061456 -0.0067457
v 0.0040000 0.0069260 -0.0055778
v -0.0032000 0.0058174 -0.0051186
v -0.0032000 0.0060000 -0.0042001
v -0.0032000 0.0052970 -0.0058971
v -0.0032000 0.0045185 -0.0064175
v -0.0032000 0.0036000 -0.0066001
v -0.0032000 0.0026815 -0.0064175
v -0.0032000 0.0019030 -0.0058971
v -0.0032000 0.0013826 -0.0051186
v -0.0032000 0.0012000 -0.0042001
v -0.0032000 0.0013826 -0.0032816
v -0.0032000 0.0019030 -0.0025031
v -0.0032000 0.0026815 -0.0019827
v -0.0032000 0.0036000 -0.0018001
v -0.0032000 0.0045185 -0.0019827
v -0.0032000 0.0052970 -0.0025031
v -0.0032000 0.0058174 -0.0032816
v -0.0040000 0.0072000 -0.0042001
v -0.0040000 0.0069260 -0.0055778
v -0.0040000 0.0065565 -0.0054247
v -0.0040000 0.0068000 -0.0042001
v -0.0040000 0.0061456 -0.0067457
v -0.0040000 0.0058627 -0.0064628
v -0.0040000 0.0049777 -0.0075261
v -0.0040000 0.0048246 -0.0071566
v -0.0040000 0.0036000 -0.0078001
v -0.0040000 0.0036000 -0.0074001
v -0.0040000 0.0022223 -0.0075261
v -0.0040000 0.0023754 -0.0071566
v -0.0040000 0.0010544 -0.0067457
v -0.0040000 0.0013373 -0.0064628
v -0.0040000 0.0002740 -0.0055778
v -0.0040000 0.0006435 -0.0054247
v -0.0040000 0.0000000 -0.0042001
v -0.0040000 0.0004000 -0.0042001
v -0.0040000 0.0002740 -0.0028224
v -0.0040000 0.0006435 -0.0029755
v -0.0040000 0.0010544 -0.0016545
v -0.0040000 0.0013373 -0.0019374
v -0.0040000 0.0022223 -0.0008741
v -0.0040000 0.0023754 -0.0012436
v -0.0040000 0.0036000 -0.0006001
v -0.0040000 0.0036000 -0.0010001
v -0.0040000 0.0049777 -0.0008741
v -0.0040000 0.0048246 -0.0012436
v -0.0040000 0.0061456 -0.0016545
v -0.0040000 0.0058627 -0.0019374
v -0.0040000 0.0069260 -0.0028224
v -0.0040000 0.0065565 -0.0029755
v -0.0032000 0.0023754 -0.0071566
v -0.0032000 0.0036000 -0.0074001
v -0.0032000 0.0013373 -0.0064628
v -0.0032000 0.0006435 -0.0054247
v -0.0032000 0.0004000 -0.0042001
v -0.0032000 0.0006435 -0.0029755
v -0.0032000 0.0013373 -0.0019374
v -0.0032000 0.0023754 -0.0012436
v -0.0032000 0.0036000 -0.0010001
v -0.0032000 0.0048246 -0.0012436
v -0.0032000 0.0058627 -0.0019374
v -0.0032000 0.0065565 -0.0029755
v -0.0032000 0.0068000 -0.0042001
v -0.0032000 0.0065565 -0.0054247
v -0.0032000 0.0058627 -0.0064628
v -0.0032000 0.0048246 -0.0071566
v 0.0022409 0.0028000 0.0073999
v 0.0024000 0.0036000 0.0073999
v 0.0024000 0.0036000 -0.0002001
v 0.0022409 0.0028000 -0.0002001
v 0.0016000 0.0028000 -0.0002001
v 0.0016000 0.0028000 0.0073999
v 0.0010000 0.0026000 -0.0002001
v 0.0010000 0.0026000 0.0073999
v 0.0008000 0.0020000 -0.0002001
v 0.0008000 0.0020000 0.0073999
v 0.0008000 0.0013591 -0.0002001
v 0.0008000 0.0013591 0.0073999
v 0.0000000 0.0012000 -0.0002001
v 0.0000000 0.0012000 0.0073999
v -0.0009185 0.0013826 0.0073999
v -0.0009185 0.0013826 -0.0002001
v -0.0014046 0.0017074 0.0073999
v -0.0014046 0.0017074 -0.0002001
v -0.0009303 0.0023908 -0.0002001
v -0.0009303 0.0023908 0.0073999
v -0.0010000 0.0026000 -0.0002001
v -0.0010000 0.0026000 0.0073999
v -0.0012092 0.0026697 0.0073999
v -0.0012092 0.0026697 -0.0002001
v -0.0018926 0.0021954 -0.0002001
v -0.0018926 0.0021954 0.0073999
v -0.0022174 0.0026815 0.0073999
v -0.0022174 0.0026815 -0.0002001
v -0.0024000 0.0036000 0.0073999
v -0.0024000 0.0036000 -0.0002001
v -0.0022409 0.0044000 0.0073999
v -0.0022409 0.0044000 -0.0002001
v -0.0016000 0.0044000 -0.0002001
v -0.0016000 0.0044000 0.0073999
v -0.0010000 0.0046000 -0.0002001
v -0.0010000 0.0046000 0.0073999
v -0.0008000 0.0052000 -0.0002001
v -0.0008000 0.0052000 0.0073999
v -0.0008000 0.0058409 -0.0002001
v -0.0008000 0.0058409 0.0073999
v 0.0000000 0.0060000 -0.0002001
v 0.0000000 0.0060000 0.0073999
v 0.0009185 0.0058174 0.0073999
v 0.0009185 0.0058174 -0.0002001
v 0.0014046 0.0054926 0.0073999
v 0.0014046 0.0054926 -0.0002001
v 0.0009303 0.0048092 -0.0002001
v 0.0009303 0.0048092 0.0073999
v 0.0010000 0.0046000 -0.0002001
v 0.0010000 0.0046000 0.0073999
v 0.0012092 0.0045303 0.0073999
v 0.0012092 0.0045303 -0.0002001
v 0.0018926 0.0050046 -0.0002001
v 0.0018926 0.0050046 0.0073999
v 0.0022174 0.0045185 0.0073999
v 0.0022174 0.0045185 -0.0002001
v 0.0016971 0.0019029 0.0073999
v 0.0022174 0.0026816 0.0073999
v 0.0009184 0.0013826 0.0073999
v -0.0016972 0.0019028 0.0073999
v -0.0016970 0.0019030 0.0073999
v -0.0016971 0.0052971 0.0073999
v -0.0022174 0.0045184 0.0073999
v -0.0009184 0.0058174 0.0073999
v 0.0016970 0.0052970 0.0073999
v 0.0022174 0.0026815 0.0073999
v 0.0022174 0.0026815 0.0077999
v 0.0024000 0.0036000 0.0077999
v 0.0016970 0.0019030 0.0073999
v 0.0016970 0.0019030 0.0077999
v 0.0009185 0.0013826 0.0073999
v 0.0009185 0.0013826 0.0077999
v 0.0000000 0.0012000 0.0077999
v -0.0009185 0.0013826 0.0077999
v -0.0016970 0.0019030 0.0077999
v -0.0022174 0.0026815 0.0077999
v -0.0024000 0.0036000 0.0077999
v -0.0022174 0.0045185 0.0073999
v -0.0022174 0.0045185 0.0077999
v -0.0016970 0.0052970 0.0073999
v -0.0016970 0.0052970 0.0077999
v -0.0009185 0.0058174 0.0073999
v -0.0009185 0.0058174 0.0077999
v 0.0000000 0.0060000 0.0077999
v 0.0009185 0.0058174 0.0077999
v 0.0016970 0.0052970 0.0077999
v 0.0022174 0.0045185 0.0077999
v 0.0016970 0.0060000 0.0077999
v -0.0016970 0.0060000 0.0077999
v 0.0024000 0.0019030 0.0077999
v 0.0024000 0.0052970 0.0077999
v -0.0016970 0.0012000 0.0077999
v 0.0016970 0.0012000 0.0077999
v -0.0024000 0.0052970 0.0077999
v -0.0024000 0.0019030 0.0077999
v 0.0000000 0.0036000 -0.0002001
v 0.0016970 0.0052970 -0.0002001
v -0.0009185 0.0058174 -0.0002001
v -0.0016970 0.0052970 -0.0002001
v -0.0022174 0.0045185 -0.0002001
v -0.0016970 0.0019030 -0.0002001
v 0.0009185 0.0013826 -0.0002001
v 0.0016970 0.0019030 -0.0002001
v 0.0022174 0.0026815 -0.0002001
v 0.0034000 0.0022223 -0.0008743
v 0.0034000 0.0049777 -0.0008743
v 0.0034000 0.0049777 0.0077997
v 0.0034000 0.0022223 0.0077997
v 0.0013776 0.0002002 -0.0036457
v 0.0013776 0.0002002 0.0077999
v 0.0004619 0.0001104 0.0077999
v 0.0004619 0.0001104 -0.0036457
v -0.0004617 0.0001102 0.0077999
v -0.0004617 0.0001102 -0.0036457
v -0.0013777 0.0002001 0.0077999
v -0.0013777 0.0002001 -0.0036457
v 0.0033998 0.0022226 0.0077999
v 0.0028977 0.0021227 0.0077999
v 0.0024719 0.0018383 0.0077999
v 0.0020461 0.0015539 0.0077999
v 0.0017618 0.0011280 0.0077999
v 0.0014772 0.0007024 0.0077999
v 0.0013774 0.0002002 0.0077999
v 0.0024719 0.0018383 -0.0008741
v 0.0033998 0.0022226 -0.0008741
v 0.0017618 0.0011280 -0.0008741
v 0.0013774 0.0002002 -0.0008741
v 0.0024719 0.0018383 -0.0011633
v 0.0017618 0.0011280 -0.0019871
v 0.0013774 0.0002002 -0.0032198
v -0.0024719 0.0018383 0.0077999
v -0.0028977 0.0021227 0.0077999
v -0.0033998 0.0022226 0.0077999
v -0.0017618 0.0011280 0.0077999
v -0.0020461 0.0015539 0.0077999
v -0.0013774 0.0002002 0.0077999
v -0.0014772 0.0007024 0.0077999
v -0.0024719 0.0018383 -0.0008741
v -0.0033998 0.0022226 -0.0008741
v -0.0017618 0.0011280 -0.0008741
v -0.0013774 0.0002002 -0.0008741
v -0.0024719 0.0018383 -0.0011633
v -0.0017618 0.0011280 -0.0019871
v -0.0013774 0.0002002 -0.0032198
v -0.0034000 0.0049777 -0.0008739
v -0.0034000 0.0022223 -0.0008739
v -0.0034000 0.0022223 0.0078001
v -0.0034000 0.0049777 0.0078001
v -0.0013776 0.0069998 -0.0036457
v -0.0013776 0.0069998 0.0077999
v -0.0004619 0.0070896 0.0077999
v -0.0004619 0.0070896 -0.0036457
v 0.0004617 0.0070898 0.0077999
v 0.0004617 0.0070898 -0.0036457
v 0.0013777 0.0069999 0.0077999
v 0.0013777 0.0069999 -0.0036457
v -0.0033998 0.0049774 0.0077999
v -0.0028977 0.0050773 0.0077999
v -0.0024719 0.0053617 0.0077999
v -0.0020461 0.0056461 0.0077999
v -0.0017618 0.0060720 0.0077999
v -0.0014772 0.0064976 0.0077999
v -0.0013774 0.0069998 0.0077999
v -0.0024719 0.0053617 -0.0008741
v -0.0033998 0.0049774 -0.0008741
v -0.0017618 0.0060720 -0.0008741
v -0.0013774 0.0069998 -0.0008741
v -0.0024719 0.0053617 -0.0011633
v -0.0017618 0.0060720 -0.0019871
v -0.0013774 0.0069998 -0.0032198
v 0.0024719 0.0053617 0.0077999
v 0.0028977 0.0050773 0.0077999
v 0.0033998 0.0049774 0.0077999
v 0.0017618 0.0060720 0.0077999
v 0.0020461 0.0056461 0.0077999
v 0.0013774 0.0069998 0.0077999
v 0.0014772 0.0064976 0.0077999
v 0.0024719 0.0053617 -0.0008741
v 0.0033998 0.0049774 -0.0008741
v 0.0017618 0.0060720 -0.0008741
v 0.0013774 0.0069998 -0.0008741
v 0.0024719 0.0053617 -0.0011633
v 0.0017618 0.0060720 -0.0019871
v 0.0013774 0.0069998 -0.0032198
v 0.0020461 0.0056462 0.0077999
v -0.0020461 0.0056462 0.0077999
v -0.0020461 0.0015538 0.0077999
v 0.0020461 0.0015538 0.0077999
v -0.0036000 0.0039500 0.0064999
v -0.0036000 0.0039500 0.0024999
v -0.0036000 0.0035000 0.0031499
v -0.0036000 0.0035000 0.0064999
v -0.0036000 0.0034900 0.0024999
v -0.0036000 0.0028000 0.0032699
v -0.0036000 0.0031800 0.0035299
v -0.0034000 0.0039500 0.0024999
v -0.0034000 0.0034900 0.0024999
v -0.0036000 0.0028002 0.0032697
v -0.0036000 0.0034902 0.0024997
v -0.0034000 0.0034902 0.0024997
v -0.0034000 0.0028002 0.0032697
v -0.0034000 0.0028000 0.0032699
v -0.0034000 0.0031800 0.0035299
v -0.0034000 0.0035000 0.0031499
v -0.0036000 0.0035000 0.0064997
v -0.0036000 0.0035000 0.0031497
v -0.0034000 0.0035000 0.0031497
v -0.0034000 0.0035000 0.0064997
v -0.0036000 0.0039498 0.0064999
v -0.0036000 0.0034998 0.0064999
v -0.0034000 0.0034998 0.0064999
v -0.0034000 0.0039498 0.0064999
v -0.0034000 0.0039500 0.0064999
vn 1.0 0.0 0.0
vn 0.0 -0.9978107 0.066135
vn 0.0 -0.8965142 0.4430151
vn 0.0 -0.9471761 0.3207139
vn 0.0 -0.9978107 -0.066135
vn 0.0 -0.6588045 0.7523142
vn 0.0 -0.7523142 0.6588045
vn 0.0 -0.3207139 0.9471761
vn 0.0 -0.4430151 0.8965142
vn 0.0 0.066135 0.9978107
vn 0.0 -0.066135 0.9978107
vn 0.0 0.4430151 0.8965142
vn 0.0 0.3207139 0.9471761
vn 0.0 0.7523142 0.6588045
vn 0.0 0.6588045 0.7523142
vn 0.0 0.9471761 0.3207139
vn 0.0 0.8965142 0.4430151
vn 0.0 0.9978107 -0.066135
vn 0.0 0.9978107 0.066135
vn 0.0 0.8965142 -0.4430151
vn 0.0 0.9471761 -0.3207139
vn 0.0 0.6588045 -0.7523142
vn 0.0 0.7523142 -0.6588045
vn 0.0 0.3207139 -0.9471761
vn 0.0 0.4430151 -0.8965142
vn 0.0 -0.066135 -0.9978107
vn 0.0 0.066135 -0.9978107
vn 0.0 -0.4430151 -0.8965142
vn 0.0 -0.3207139 -0.9471761
vn 0.0 -0.7523142 -0.6588045
vn 0.0 -0.6588045 -0.7523142
vn 0.0 -0.9471761 -0.3207139
vn 0.0 -0.8965142 -0.4430151
vn 0.0 -0.947177 0.3207111
vn 0.0 -0.8964963 0.4430513
vn 0.0 -0.9978115 0.0661224
vn 0.0 -0.9978115 -0.0661224
vn 0.0 -0.752294 0.6588276
vn 0.0 -0.6588276 0.752294
vn 0.0 -0.4430513 0.8964963
vn 0.0 -0.3207111 0.947177
vn 0.0 -0.0661224 0.9978115
vn 0.0 0.0661224 0.9978115
vn 0.0 0.3207111 0.947177
vn 0.0 0.4430513 0.8964963
vn 0.0 0.6588276 0.752294
vn 0.0 0.752294 0.6588276
vn 0.0 0.8964963 0.4430513
vn 0.0 0.947177 0.3207111
vn 0.0 0.9978115 0.0661224
vn 0.0 0.9978115 -0.0661224
vn 0.0 0.947177 -0.3207111
vn 0.0 0.8964963 -0.4430513
vn 0.0 0.752294 -0.6588276
vn 0.0 0.6588276 -0.752294
vn 0.0 0.4430513 -0.8964963
vn 0.0 0.3207111 -0.947177
vn 0.0 0.0661224 -0.9978115
vn 0.0 -0.0661224 -0.9978115
vn 0.0 -0.3207111 -0.947177
vn 0.0 -0.4430513 -0.8964963
vn 0.0 -0.6588276 -0.752294
vn 0.0 -0.752294 -0.6588276
vn 0.0 -0.8964963 -0.4430513
vn 0.0 -0.947177 -0.3207111
vn -1.0 0.0 0.0
vn 0.0 0.9471783 -0.3207075
vn 0.0 0.8965369 -0.4429691
vn 0.0 0.9978098 -0.0661489
vn 0.0 0.9978098 0.0661489
vn 0.0 0.7523344 -0.6587815
vn 0.0 0.6587815 -0.7523344
vn 0.0 0.4429691 -0.8965369
vn 0.0 0.3207075 -0.9471783
vn 0.0 0.0661489 -0.9978098
vn 0.0 -0.0661489 -0.9978098
vn 0.0 -0.3207075 -0.9471783
vn 0.0 -0.4429691 -0.8965369
vn 0.0 -0.6587815 -0.7523344
vn 0.0 -0.7523344 -0.6587815
vn 0.0 -0.8965369 -0.4429691
vn 0.0 -0.9471783 -0.3207075
vn 0.0 -0.9978098 -0.0661489
vn 0.0 -0.9978098 0.0661489
vn 0.0 -0.9471783 0.3207075
vn 0.0 -0.8965369 0.4429691
vn 0.0 -0.7523344 0.6587815
vn 0.0 -0.6587815 0.7523344
vn 0.0 -0.4429691 0.8965369
vn 0.0 -0.3207075 0.9471783
vn 0.0 -0.0661489 0.9978098
vn 0.0 0.0661489 0.9978098
vn 0.0 0.3207075 0.9471783
vn 0.0 0.4429691 0.8965369
vn 0.0 0.6587815 0.7523344
vn 0.0 0.7523344 0.6587815
vn 0.0 0.8965369 0.4429691
vn 0.0 0.9471783 0.3207075
vn -0.9807923 0.1950551 0.0
vn -0.9970075 -0.0773052 0.0
vn -0.9985537 0.0537637 0.0
vn 0.0 1.0 0.0
vn -0.105686 0.9943996 0.0
vn -0.2123305 0.9771979 0.0
vn -0.3162278 0.9486833 0.0
vn -0.9486833 0.3162278 0.0
vn -0.9943996 0.105686 0.0
vn -0.9771979 0.2123305 0.0
vn 0.0136734 0.9999065 0.0
vn 0.0074531 0.9999722 0.0
vn -0.1950551 0.9807923 0.0
vn 0.2867704 0.9579994 0.0
vn 0.402857 0.9152629 0.0
vn 0.5555683 0.8314709 0.0
vn 0.8215295 -0.570166 0.0
vn 0.9487286 0.3160917 0.0
vn 0.3160917 0.9487286 0.0
vn -0.570166 0.8215295 0.0
vn 0.9140846 0.4055235 0.0
vn 0.8314709 0.5555683 0.0
vn 0.9586097 0.2847233 0.0
vn 0.9970075 0.0773052 0.0
vn 0.9985537 -0.0537637 0.0
vn 0.9807923 -0.1950551 0.0
vn 0.0 -1.0 0.0
vn 0.105686 -0.9943996 0.0
vn 0.2123305 -0.9771979 0.0
vn 0.3162278 -0.9486833 0.0
vn 0.9486833 -0.3162278 0.0
vn 0.9943996 -0.105686 0.0
vn 0.9771979 -0.2123305 0.0
vn -0.0136734 -0.9999065 0.0
vn -0.0074531 -0.9999722 0.0
vn 0.1950551 -0.9807923 0.0
vn -0.2867704 -0.9579994 0.0
vn -0.402857 -0.9152629 0.0
vn -0.5555683 -0.8314709 0.0
vn -0.8215295 0.570166 0.0
vn -0.9487286 -0.3160917 0.0
vn -0.3160917 -0.9487286 0.0
vn 0.570166 -0.8215295 0.0
vn -0.9140846 -0.4055235 0.0
vn -0.8314709 -0.5555683 0.0
vn -0.9586097 -0.2847233 0.0
vn 0.0 0.0 1.0
vn -0.947177 0.3207111 0.0
vn -0.8964963 0.4430513 0.0
vn -0.9978115 0.0661224 0.0
vn -0.752294 0.6588276 0.0
vn -0.6588276 0.752294 0.0
vn -0.4430513 0.8964963 0.0
vn -0.3207111 0.947177 0.0
vn 0.0661224 0.9978115 0.0
vn 0.4430513 0.8964963 0.0
vn 0.6588276 0.752294 0.0
vn 0.752294 0.6588276 0.0
vn 0.947177 0.3207111 0.0
vn 0.9978115 -0.0661224 0.0
vn 0.947177 -0.3207111 0.0
vn 0.8964963 -0.4430513 0.0
vn 0.752294 -0.6588276 0.0
vn 0.6588276 -0.752294 0.0
vn 0.4430513 -0.8964963 0.0
vn 0.3207111 -0.947177 0.0
vn -0.0661224 -0.9978115 0.0
vn -0.4430513 -0.8964963 0.0
vn -0.6588276 -0.752294 0.0
vn -0.752294 -0.6588276 0.0
vn -0.947177 -0.3207111 0.0
vn 0.0001103 -0.0 1.0
vn 0.0975989 -0.9952258 0.0
vn 0.0651246 -0.9978771 0.0
vn 0.0326295 -0.9994675 0.0
vn -0.032373 -0.9994759 0.0
vn -0.0650384 -0.9978828 0.0
vn -0.0976748 -0.9952184 0.0
vn 0.0001916 2.25e-05 1.0
vn 0.382642 -0.9238967 0.0
vn 0.6094284 -0.7928411 0.0
vn 0.5097192 -0.8603408 0.0
vn 0.8663941 -0.4993609 0.0
vn 0.8079524 -0.5892477 0.0
vn 0.9238469 -0.3827622 0.0
vn 0.5556135 -0.8314407 0.0
vn 0.8185674 -0.5744105 0.0
vn -0.5097192 -0.8603408 0.0
vn -0.6094284 -0.7928411 0.0
vn -0.382642 -0.9238967 0.0
vn -0.8079524 -0.5892477 0.0
vn -0.8663941 -0.4993609 0.0
vn -0.9238469 -0.3827622 0.0
vn -0.5556135 -0.8314407 0.0
vn -0.8185674 -0.5744105 0.0
vn -0.0975989 0.9952258 0.0
vn -0.0651246 0.9978771 0.0
vn -0.0326295 0.9994675 0.0
vn 0.032373 0.9994759 0.0
vn 0.0650384 0.9978828 0.0
vn 0.0976748 0.9952184 0.0
vn -0.382642 0.9238967 0.0
vn -0.6094284 0.7928411 0.0
vn -0.5097192 0.8603408 0.0
vn -0.8663941 0.4993609 0.0
vn -0.8079524 0.5892477 0.0
vn -0.9238469 0.3827622 0.0
vn -0.5556135 0.8314407 0.0
vn -0.8185674 0.5744105 0.0
vn 0.0001777 -5.99e-05 1.0
vn 0.5097192 0.8603408 0.0
vn 0.6094284 0.7928411 0.0
vn 0.382642 0.9238967 0.0
vn 0.8079524 0.5892477 0.0
vn 0.8663941 0.4993609 0.0
vn 0.9238469 0.3827622 0.0
vn 0.5556135 0.8314407 0.0
vn 0.8185674 0.5744105 0.0
vn 0.0002632 -0.0 1.0
vn 0.0003982 0.0 0.9999999
vn 0.0 0.0 -1.0
vn 0.0 -0.7447352 -0.6673601
vn 0.0 -0.5646839 0.8253073
vn 0.0 0.7649112 0.6441357
f 1//1 2//1 3//1
f 4//1 1//1 3//1
f 2//1 5//1 6//1
f 3//1 2//1 6//1
f 5//1 7//1 8//1
f 6//1 5//1 8//1
f 7//1 9//1 10//1
f 8//1 7//1 10//1
f 9//1 11//1 12//1
f 10//1 9//1 12//1
f 11//1 13//1 14//1
f 12//1 11//1 14//1
f 13//1 15//1 16//1
f 14//1 13//1 16//1
f 15//1 17//1 18//1
f 16//1 15//1 18//1
f 17//1 19//1 20//1
f 18//1 17//1 20//1
f 19//1 21//1 22//1
f 20//1 19//1 22//1
f 21//1 23//1 24//1
f 22//1 21//1 24//1
f 23//1 25//1 26//1
f 24//1 23//1 26//1
f 25//1 27//1 28//1
f 26//1 25//1 28//1
f 27//1 29//1 30//1
f 28//1 27//1 30//1
f 29//1 31//1 32//1
f 30//1 29//1 32//1
f 31//1 1//1 4//1
f 32//1 31//1 4//1
f 26//2 28//3 33//4
f 26//2 33//4 34//5
f 28//3 30//6 35//7
f 28//3 35//7 33//4
f 30//6 32//8 36//9
f 30//6 36//9 35//7
f 32//8 4//10 37//11
f 32//8 37//11 36//9
f 4//10 3//12 38//13
f 4//10 38//13 37//11
f 3//12 6//14 39//15
f 3//12 39//15 38//13
f 6//14 8//16 40//17
f 6//14 40//17 39//15
f 8//16 10//18 41//19
f 8//16 41//19 40//17
f 10//18 12//20 42//21
f 10//18 42//21 41//19
f 12//20 14//22 43//23
f 12//20 43//23 42//21
f 14//22 16//24 44//25
f 14//22 44//25 43//23
f 16//24 18//26 45//27
f 16//24 45//27 44//25
f 18//26 20//28 46//29
f 18//26 46//29 45//27
f 20//28 22//30 47//31
f 20//28 47//31 46//29
f 22//30 24//32 48//33
f 22//30 48//33 47//31
f 24//32 26//2 34//5
f 24//32 34//5 48//33
f 49//1 50//1 48//1
f 49//1 48//1 34//1
f 50//1 51//1 47//1
f 50//1 47//1 48//1
f 51//1 52//1 46//1
f 51//1 46//1 47//1
f 52//1 53//1 45//1
f 52//1 45//1 46//1
f 53//1 54//1 44//1
f 53//1 44//1 45//1
f 54//1 55//1 43//1
f 54//1 43//1 44//1
f 55//1 56//1 42//1
f 55//1 42//1 43//1
f 56//1 57//1 41//1
f 56//1 41//1 42//1
f 57//1 58//1 40//1
f 57//1 40//1 41//1
f 58//1 59//1 39//1
f 58//1 39//1 40//1
f 59//1 60//1 38//1
f 59//1 38//1 39//1
f 60//1 61//1 37//1
f 60//1 37//1 38//1
f 61//1 62//1 36//1
f 61//1 36//1 37//1
f 62//1 63//1 35//1
f 62//1 35//1 36//1
f 63//1 64//1 33//1
f 63//1 33//1 35//1
f 64//1 49//1 34//1
f 64//1 34//1 33//1
f 65//34 27//35 25//36
f 66//37 65//34 25//36
f 67//38 29//39 27//35
f 65//34 67//38 27//35
f 68//40 31//41 29//39
f 67//38 68//40 29//39
f 69//42 1//43 31//41
f 68//40 69//42 31//41
f 70//44 2//45 1//43
f 69//42 70//44 1//43
f 71//46 5//47 2//45
f 70//44 71//46 2//45
f 72//48 7//49 5//47
f 71//46 72//48 5//47
f 73//50 9//51 7//49
f 72//48 73//50 7//49
f 74//52 11//53 9//51
f 73//50 74//52 9//51
f 75//54 13//55 11//53
f 74//52 75//54 11//53
f 76//56 15//57 13//55
f 75//54 76//56 13//55
f 77//58 17//59 15//57
f 76//56 77//58 15//57
f 78//60 19//61 17//59
f 77//58 78//60 17//59
f 79//62 21//63 19//61
f 78//60 79//62 19//61
f 80//64 23//65 21//63
f 79//62 80//64 21//63
f 66//37 25//36 23//65
f 80//64 66//37 23//65
f 81//66 82//66 83//66
f 81//66 83//66 84//66
f 82//66 85//66 86//66
f 82//66 86//66 83//66
f 85//66 87//66 88//66
f 85//66 88//66 86//66
f 87//66 89//66 90//66
f 87//66 90//66 88//66
f 89//66 91//66 92//66
f 89//66 92//66 90//66
f 91//66 93//66 94//66
f 91//66 94//66 92//66
f 93//66 95//66 96//66
f 93//66 96//66 94//66
f 95//66 97//66 98//66
f 95//66 98//66 96//66
f 97//66 99//66 100//66
f 97//66 100//66 98//66
f 99//66 101//66 102//66
f 99//66 102//66 100//66
f 101//66 103//66 104//66
f 101//66 104//66 102//66
f 103//66 105//66 106//66
f 103//66 106//66 104//66
f 105//66 107//66 108//66
f 105//66 108//66 106//66
f 107//66 109//66 110//66
f 107//66 110//66 108//66
f 109//66 111//66 112//66
f 109//66 112//66 110//66
f 111//66 81//66 84//66
f 111//66 84//66 112//66
f 113//66 70//66 69//66
f 113//66 69//66 114//66
f 115//66 71//66 70//66
f 115//66 70//66 113//66
f 116//66 72//66 71//66
f 116//66 71//66 115//66
f 117//66 73//66 72//66
f 117//66 72//66 116//66
f 118//66 74//66 73//66
f 118//66 73//66 117//66
f 119//66 75//66 74//66
f 119//66 74//66 118//66
f 120//66 76//66 75//66
f 120//66 75//66 119//66
f 121//66 77//66 76//66
f 121//66 76//66 120//66
f 122//66 78//66 77//66
f 122//66 77//66 121//66
f 123//66 79//66 78//66
f 123//66 78//66 122//66
f 124//66 80//66 79//66
f 124//66 79//66 123//66
f 125//66 66//66 80//66
f 125//66 80//66 124//66
f 126//66 65//66 66//66
f 126//66 66//66 125//66
f 127//66 67//66 65//66
f 127//66 65//66 126//66
f 128//66 68//66 67//66
f 128//66 67//66 127//66
f 114//66 69//66 68//66
f 114//66 68//66 128//66
f 83//4 126//3 125//2
f 84//5 83//4 125//2
f 86//7 127//6 126//3
f 83//4 86//7 126//3
f 88//9 128//8 127//6
f 86//7 88//9 127//6
f 90//11 114//10 128//8
f 88//9 90//11 128//8
f 92//13 113//12 114//10
f 90//11 92//13 114//10
f 94//15 115//14 113//12
f 92//13 94//15 113//12
f 96//17 116//16 115//14
f 94//15 96//17 115//14
f 98//19 117//18 116//16
f 96//17 98//19 116//16
f 100//21 118//20 117//18
f 98//19 100//21 117//18
f 102//23 119//22 118//20
f 100//21 102//23 118//20
f 104//25 120//24 119//22
f 102//23 104//25 119//22
f 106//27 121//26 120//24
f 104//25 106//27 120//24
f 108//29 122//28 121//26
f 106//27 108//29 121//26
f 110//31 123//30 122//28
f 108//29 110//31 122//28
f 112//33 124//32 123//30
f 110//31 112//33 123//30
f 84//5 125//2 124//32
f 112//33 84//5 124//32
f 64//67 82//68 81//69
f 49//70 64//67 81//69
f 63//71 85//72 82//68
f 64//67 63//71 82//68
f 62//73 87//74 85//72
f 63//71 62//73 85//72
f 61//75 89//76 87//74
f 62//73 61//75 87//74
f 60//77 91//78 89//76
f 61//75 60//77 89//76
f 59//79 93//80 91//78
f 60//77 59//79 91//78
f 58//81 95//82 93//80
f 59//79 58//81 93//80
f 57//83 97//84 95//82
f 58//81 57//83 95//82
f 56//85 99//86 97//84
f 57//83 56//85 97//84
f 55//87 101//88 99//86
f 56//85 55//87 99//86
f 54//89 103//90 101//88
f 55//87 54//89 101//88
f 53//91 105//92 103//90
f 54//89 53//91 103//90
f 52//93 107//94 105//92
f 53//91 52//93 105//92
f 51//95 109//96 107//94
f 52//93 51//95 107//94
f 50//97 111//98 109//96
f 51//95 50//97 109//96
f 49//70 81//69 111//98
f 50//97 49//70 111//98
f 129//99 130//100 131//101
f 132//99 129//99 131//101
f 129//102 132//102 133//103
f 134//104 129//102 133//103
f 135//105 136//105 134//104
f 133//103 135//105 134//104
f 135//106 137//107 138//108
f 136//106 135//106 138//108
f 137//107 139//66 140//66
f 138//108 137//107 140//66
f 141//109 142//110 140//111
f 139//111 141//109 140//111
f 143//112 142//110 141//109
f 144//113 143//112 141//109
f 145//114 143//112 144//113
f 146//114 145//114 144//113
f 147//115 148//115 145//115
f 146//115 147//115 145//115
f 147//116 149//116 150//116
f 148//116 147//116 150//116
f 151//117 150//117 149//117
f 152//117 151//117 149//117
f 151//118 152//118 153//118
f 154//118 151//118 153//118
f 155//119 154//120 153//120
f 156//121 155//119 153//120
f 157//122 155//119 156//121
f 158//123 157//122 156//121
f 159//124 157//122 158//123
f 160//124 159//124 158//123
f 159//125 160//125 161//126
f 162//127 159//125 161//126
f 163//128 164//128 162//127
f 161//126 163//128 162//127
f 163//129 165//130 166//131
f 164//129 163//129 166//131
f 165//130 167//1 168//1
f 166//131 165//130 168//1
f 169//132 170//133 168//134
f 167//134 169//132 168//134
f 171//135 170//133 169//132
f 172//136 171//135 169//132
f 173//137 171//135 172//136
f 174//137 173//137 172//136
f 175//138 176//138 173//138
f 174//138 175//138 173//138
f 175//139 177//139 178//139
f 176//139 175//139 178//139
f 179//140 178//140 177//140
f 180//140 179//140 177//140
f 179//141 180//141 181//141
f 182//141 179//141 181//141
f 183//142 182//143 181//143
f 184//144 183//142 181//143
f 130//100 183//142 184//144
f 131//101 130//100 184//144
f 185//145 186//145 136//145
f 187//145 185//145 136//145
f 129//145 134//145 136//145
f 186//145 129//145 136//145
f 187//145 136//145 138//145
f 140//145 187//145 138//145
f 150//145 151//145 154//145
f 188//145 150//145 154//145
f 189//145 145//145 148//145
f 150//145 189//145 148//145
f 190//145 191//145 164//145
f 192//145 190//145 164//145
f 159//145 162//145 164//145
f 191//145 159//145 164//145
f 192//145 164//145 166//145
f 168//145 192//145 166//145
f 178//145 179//145 182//145
f 193//145 178//145 182//145
f 193//145 173//145 176//145
f 178//145 193//145 176//145
f 194//146 195//147 196//148
f 130//100 194//146 196//148
f 197//149 198//150 195//147
f 194//146 197//149 195//147
f 199//151 200//152 198//150
f 197//149 199//151 198//150
f 142//110 201//153 200//152
f 199//151 142//110 200//152
f 143//112 202//154 201//153
f 142//110 143//112 201//153
f 189//155 203//156 202//154
f 143//112 189//155 202//154
f 155//119 204//157 203//156
f 189//155 155//119 203//156
f 157//122 205//158 204//157
f 155//119 157//122 204//157
f 206//159 207//160 205//158
f 157//122 206//159 205//158
f 208//161 209//162 207//160
f 206//159 208//161 207//160
f 210//163 211//164 209//162
f 208//161 210//163 209//162
f 170//133 212//165 211//164
f 210//163 170//133 211//164
f 171//135 213//166 212//165
f 170//133 171//135 212//165
f 193//167 214//168 213//166
f 171//135 193//167 213//166
f 183//142 215//169 214//168
f 193//167 183//142 214//168
f 130//100 196//148 215//169
f 183//142 130//100 215//169
f 212//145 213//145 216//145
f 213//145 214//145 216//145
f 217//145 211//145 212//145
f 217//145 209//145 211//145
f 196//170 195//145 218//145
f 195//145 198//145 218//145
f 219//145 215//145 196//170
f 219//145 214//145 215//145
f 201//145 202//145 220//145
f 202//145 203//145 220//145
f 221//145 200//145 201//145
f 221//145 198//145 200//145
f 205//145 207//145 222//145
f 207//145 209//145 222//145
f 223//145 204//145 205//145
f 223//145 203//145 204//145
f 224//145 131//145 184//145
f 224//145 184//145 225//145
f 224//145 225//145 172//145
f 224//145 172//145 169//145
f 224//145 169//145 226//145
f 224//145 226//145 227//145
f 224//145 227//145 228//145
f 224//145 228//145 158//145
f 224//145 158//145 156//145
f 224//145 156//145 229//145
f 224//145 229//145 144//145
f 224//145 144//145 141//145
f 224//145 141//145 230//145
f 224//145 230//145 231//145
f 224//145 231//145 232//145
f 224//145 232//145 131//145
f 233//1 234//1 235//1
f 236//1 233//1 235//1
f 237//171 238//171 239//172
f 240//173 237//171 239//172
f 240//173 239//172 241//174
f 242//175 240//173 241//174
f 242//175 241//174 243//176
f 244//176 242//175 243//176
f 241//145 239//145 238//145
f 243//145 241//145 238//145
f 245//145 246//177 247//145
f 247//145 248//145 249//145
f 249//145 250//145 251//145
f 245//178 247//179 252//180
f 253//178 245//178 252//180
f 247//179 249//181 254//182
f 252//180 247//179 254//182
f 249//181 251//183 255//183
f 254//182 249//181 255//183
f 252//180 256//184 253//178
f 257//185 256//184 252//180
f 254//182 257//185 252//180
f 258//183 257//185 254//182
f 255//183 258//183 254//182
f 259//145 260//145 261//145
f 262//145 263//145 259//145
f 264//145 265//145 262//145
f 266//186 259//187 261//188
f 266//186 261//188 267//188
f 268//189 262//190 259//187
f 268//189 259//187 266//186
f 269//191 264//191 262//190
f 269//191 262//190 268//189
f 267//188 270//192 266//186
f 266//186 270//192 271//193
f 266//186 271//193 268//189
f 268//189 271//193 272//191
f 268//189 272//191 269//191
f 273//66 274//66 275//66
f 276//66 273//66 275//66
f 277//194 278//194 279//195
f 280//196 277//194 279//195
f 280//196 279//195 281//197
f 282//198 280//196 281//197
f 282//198 281//197 283//199
f 284//199 282//198 283//199
f 281//145 279//145 278//145
f 283//145 281//145 278//145
f 285//145 286//145 287//145
f 287//145 288//145 289//145
f 289//145 290//145 291//145
f 285//200 287//201 292//202
f 293//200 285//200 292//202
f 287//201 289//203 294//204
f 292//202 287//201 294//204
f 289//203 291//205 295//205
f 294//204 289//203 295//205
f 292//202 296//206 293//200
f 297//207 296//206 292//202
f 294//204 297//207 292//202
f 298//205 297//207 294//204
f 295//205 298//205 294//204
f 299//145 300//208 301//145
f 302//145 303//145 299//145
f 304//145 305//145 302//145
f 306//209 299//210 301//211
f 306//209 301//211 307//211
f 308//212 302//213 299//210
f 308//212 299//210 306//209
f 309//214 304//214 302//213
f 309//214 302//213 308//212
f 307//211 310//215 306//209
f 306//209 310//215 311//216
f 306//209 311//216 308//212
f 308//212 311//216 312//214
f 308//212 312//214 309//214
f 235//217 196//170 246//177
f 236//218 235//217 246//177
f 196//170 235//217 300//208
f 196//170 300//208 299//145
f 219//145 196//170 299//145
f 219//145 299//145 313//145
f 214//145 219//145 313//145
f 214//145 313//145 302//145
f 216//145 214//145 302//145
f 212//145 216//145 302//145
f 305//145 212//145 302//145
f 305//145 283//145 291//145
f 212//145 305//145 291//145
f 212//145 291//145 290//145
f 289//145 217//145 212//145
f 290//145 289//145 212//145
f 217//145 289//145 314//145
f 209//145 217//145 314//145
f 209//145 314//145 287//145
f 222//145 209//145 287//145
f 286//145 285//145 261//145
f 205//145 286//145 261//145
f 205//145 222//145 287//145
f 286//145 205//145 287//145
f 259//145 223//145 205//145
f 260//145 259//145 205//145
f 205//145 261//145 260//145
f 203//145 315//145 262//145
f 220//145 203//145 262//145
f 315//145 203//145 223//145
f 259//145 315//145 223//145
f 201//145 220//145 262//145
f 265//145 201//145 262//145
f 238//145 201//145 265//145
f 264//145 238//145 265//145
f 201//145 238//145 250//145
f 249//145 221//145 201//145
f 250//145 249//145 201//145
f 198//145 316//145 247//145
f 218//145 198//145 247//145
f 316//145 198//145 221//145
f 249//145 316//145 221//145
f 247//145 246//177 196//170
f 218//145 247//145 196//170
f 317//66 318//66 319//66
f 317//66 319//66 320//66
f 318//66 321//66 322//66
f 318//66 322//66 319//66
f 322//66 323//66 319//66
f 318//219 324//219 325//219
f 318//219 325//219 321//219
f 326//220 327//220 328//220
f 326//220 328//220 329//220
f 323//221 322//221 330//221
f 323//221 330//221 331//221
f 319//222 323//222 331//222
f 319//222 331//222 332//222
f 333//125 334//125 335//125
f 333//125 335//125 336//125
f 337//145 338//145 339//145
f 337//145 339//145 340//145
f 317//102 341//102 324//102
f 317//102 324//102 318//102
