# Botball Lab: metres, +Y up, centred XZ, base Y=0
s off
v 0.0009184 0.0028627 0.0080000
v 0.0016971 0.0033829 0.0080000
v 0.0022173 0.0041616 0.0080000
v -0.0022173 0.0041616 0.0080000
v -0.0016971 0.0033829 0.0080000
v -0.0009184 0.0028627 0.0080000
v -0.0009184 0.0072973 0.0080000
v -0.0016971 0.0067771 0.0080000
v -0.0022173 0.0059985 0.0080000
v 0.0022173 0.0059984 0.0080000
v 0.0016971 0.0067771 0.0080000
v 0.0009184 0.0072973 0.0080000
v 0.0010000 0.0040800 0.0080000
v 0.0022409 0.0042800 0.0080000
v 0.0016000 0.0042800 0.0080000
v 0.0008000 0.0034800 0.0080000
v 0.0008000 0.0028391 0.0080000
v -0.0010000 0.0040800 0.0080000
v -0.0008000 0.0028391 0.0080000
v -0.0008000 0.0034800 0.0080000
v -0.0016000 0.0042800 0.0080000
v -0.0022409 0.0042800 0.0080000
v -0.0022409 0.0058800 0.0080000
v -0.0016000 0.0058800 0.0080000
v -0.0010000 0.0060800 0.0080000
v -0.0008000 0.0066800 0.0080000
v -0.0008000 0.0073209 0.0080000
v 0.0010000 0.0060800 0.0080000
v 0.0022173 0.0059985 0.0080000
v 0.0008000 0.0073209 0.0080000
v 0.0008000 0.0066800 0.0080000
v 0.0016000 0.0058800 0.0080000
v 0.0022409 0.0058800 0.0080000
v 0.0009184 0.0072973 -0.0080000
v 0.0016971 0.0067771 -0.0080000
v 0.0022173 0.0059985 -0.0080000
v -0.0022173 0.0059984 -0.0080000
v -0.0016971 0.0067771 -0.0080000
v -0.0009184 0.0072973 -0.0080000
v -0.0009184 0.0028627 -0.0080000
v -0.0016971 0.0033829 -0.0080000
v -0.0022173 0.0041616 -0.0080000
v 0.0022173 0.0041616 -0.0080000
v 0.0016971 0.0033829 -0.0080000
v 0.0009184 0.0028627 -0.0080000
v 0.0010000 0.0060800 -0.0080000
v 0.0022409 0.0058800 -0.0080000
v 0.0016000 0.0058800 -0.0080000
v 0.0008000 0.0066800 -0.0080000
v 0.0008000 0.0073209 -0.0080000
v -0.0022173 0.0059985 -0.0080000
v -0.0010000 0.0060800 -0.0080000
v -0.0008000 0.0073209 -0.0080000
v -0.0008000 0.0066800 -0.0080000
v -0.0016000 0.0058800 -0.0080000
v -0.0022409 0.0058800 -0.0080000
v -0.0022409 0.0042800 -0.0080000
v -0.0016000 0.0042800 -0.0080000
v -0.0010000 0.0040800 -0.0080000
v -0.0008000 0.0034800 -0.0080000
v -0.0008000 0.0028391 -0.0080000
v 0.0010000 0.0040800 -0.0080000
v 0.0008000 0.0028391 -0.0080000
v 0.0008000 0.0034800 -0.0080000
v 0.0016000 0.0042800 -0.0080000
v 0.0022409 0.0042800 -0.0080000
v 0.0024000 0.0050800 0.0080000
v 0.0024000 0.0050800 -0.0080000
v 0.0000000 0.0026800 -0.0080000
v 0.0000000 0.0026800 0.0080000
v -0.0024000 0.0050800 0.0080000
v -0.0024000 0.0050800 -0.0080000
v 0.0000000 0.0074800 -0.0080000
v 0.0000000 0.0074800 0.0080000
v -0.0009185 0.0028627 0.0080000
v -0.0010716 0.0024931 0.0080000
v 0.0000000 0.0022800 0.0080000
v -0.0016970 0.0033830 0.0080000
v -0.0019799 0.0031001 0.0080000
v -0.0022174 0.0041615 0.0080000
v -0.0025869 0.0040085 0.0080000
v -0.0028000 0.0050800 0.0080000
v -0.0024000 0.0074800 0.0080000
v -0.0022174 0.0059985 0.0080000
v -0.0016970 0.0067771 0.0080000
v -0.0009185 0.0072974 0.0080000
v 0.0024000 0.0074800 0.0080000
v 0.0009185 0.0072974 0.0080000
v 0.0016970 0.0067771 0.0080000
v 0.0022174 0.0059985 0.0080000
v 0.0024000 0.0026800 0.0080000
v 0.0022174 0.0041615 0.0080000
v 0.0016970 0.0033830 0.0080000
v 0.0009185 0.0028627 0.0080000
v 0.0050800 0.0050800 0.0080000
v 0.0046934 0.0070241 0.0080000
v 0.0019441 0.0097734 0.0080000
v 0.0000000 0.0101600 0.0080000
v 0.0035921 0.0086721 0.0080000
v 0.0041667 0.0033541 0.0080000
v 0.0012896 0.0019665 0.0080000
v 0.0027860 0.0022940 0.0080000
v -0.0031135 0.0063697 0.0080000
v -0.0017259 0.0092467 0.0080000
v -0.0027860 0.0078661 0.0080000
v 0.0046933 0.0031360 0.0078000
v 0.0035921 0.0014879 0.0076000
v 0.0019440 0.0003867 0.0074000
v 0.0000000 0.0000000 0.0072000
v -0.0025869 0.0061515 0.0078000
v -0.0019799 0.0070599 0.0076000
v -0.0010715 0.0076669 0.0074000
v 0.0000000 0.0078800 0.0072000
v -0.0010716 0.0024931 0.0078000
v -0.0019799 0.0031001 0.0076000
v -0.0025869 0.0040085 0.0074000
v -0.0028000 0.0050800 0.0072000
v 0.0019441 0.0097734 0.0078000
v 0.0035921 0.0086721 0.0076000
v 0.0046934 0.0070241 0.0074000
v 0.0050800 0.0050800 0.0072000
v -0.0022174 0.0041615 -0.0080000
v -0.0025869 0.0040085 -0.0080000
v -0.0028000 0.0050800 -0.0080000
v -0.0016970 0.0033830 -0.0080000
v -0.0019799 0.0031001 -0.0080000
v -0.0009185 0.0028627 -0.0080000
v -0.0010716 0.0024931 -0.0080000
v 0.0000000 0.0022800 -0.0080000
v 0.0024000 0.0026800 -0.0080000
v 0.0009185 0.0028627 -0.0080000
v 0.0016970 0.0033830 -0.0080000
v 0.0022174 0.0041615 -0.0080000
v 0.0024000 0.0074800 -0.0080000
v 0.0022174 0.0059985 -0.0080000
v 0.0016970 0.0067771 -0.0080000
v 0.0009185 0.0072974 -0.0080000
v -0.0024000 0.0074800 -0.0080000
v -0.0009185 0.0072974 -0.0080000
v -0.0016970 0.0067771 -0.0080000
v -0.0022174 0.0059985 -0.0080000
v 0.0000000 0.0101600 -0.0080000
v 0.0019441 0.0097734 -0.0080000
v 0.0046934 0.0070241 -0.0080000
v 0.0050800 0.0050800 -0.0080000
v 0.0035921 0.0086721 -0.0080000
v -0.0017259 0.0092467 -0.0080000
v -0.0031135 0.0063697 -0.0080000
v -0.0027860 0.0078661 -0.0080000
v 0.0012896 0.0019665 -0.0080000
v 0.0041667 0.0033541 -0.0080000
v 0.0027860 0.0022940 -0.0080000
v -0.0019440 0.0097733 -0.0078000
v -0.0035921 0.0086721 -0.0076000
v -0.0046933 0.0070241 -0.0074000
v -0.0050800 0.0050800 -0.0072000
v 0.0010715 0.0024931 -0.0078000
v 0.0019799 0.0031001 -0.0076000
v 0.0025869 0.0040085 -0.0074000
v 0.0028000 0.0050800 -0.0072000
v -0.0025869 0.0040085 -0.0078000
v -0.0019799 0.0031001 -0.0076000
v -0.0010716 0.0024931 -0.0074000
v 0.0000000 0.0022800 -0.0072000
v 0.0046934 0.0070241 -0.0078000
v 0.0035921 0.0086721 -0.0076000
v 0.0019441 0.0097734 -0.0074000
v 0.0000000 0.0101600 -0.0072000
v 0.0028000 0.0050800 0.0064000
v 0.0025869 0.0061515 0.0066000
v 0.0046933 0.0070241 0.0074000
v 0.0019799 0.0070599 0.0068000
v 0.0010715 0.0076669 0.0070000
v 0.0019440 0.0097733 0.0078000
v 0.0000000 0.0078800 0.0064000
v 0.0010715 0.0076669 0.0062000
v 0.0019440 0.0097733 0.0054000
v 0.0000000 0.0101600 0.0056000
v 0.0019799 0.0070599 0.0060000
v 0.0035921 0.0086721 0.0052000
v 0.0025869 0.0061515 0.0058000
v 0.0046933 0.0070241 0.0050000
v 0.0028000 0.0050800 0.0056000
v 0.0050800 0.0050800 0.0048000
v 0.0028000 0.0050800 0.0032000
v 0.0025869 0.0061515 0.0034000
v 0.0046933 0.0070241 0.0042000
v 0.0050800 0.0050800 0.0040000
v 0.0019799 0.0070599 0.0036000
v 0.0035921 0.0086721 0.0044000
v 0.0010715 0.0076669 0.0038000
v 0.0019440 0.0097733 0.0046000
v 0.0000000 0.0078800 0.0040000
v 0.0000000 0.0101600 0.0048000
v 0.0000000 0.0078800 0.0032000
v 0.0010715 0.0076669 0.0030000
v 0.0019440 0.0097733 0.0022000
v 0.0000000 0.0101600 0.0024000
v 0.0019799 0.0070599 0.0028000
v 0.0035921 0.0086721 0.0020000
v 0.0025869 0.0061515 0.0026000
v 0.0046933 0.0070241 0.0018000
v 0.0028000 0.0050800 0.0024000
v 0.0050800 0.0050800 0.0016000
v 0.0028000 0.0050800 -0.0000000
v 0.0025869 0.0061515 0.0002000
v 0.0046933 0.0070241 0.0010000
v 0.0050800 0.0050800 0.0008000
v 0.0019799 0.0070599 0.0004000
v 0.0035921 0.0086721 0.0012000
v 0.0010715 0.0076669 0.0006000
v 0.0019440 0.0097733 0.0014000
v 0.0000000 0.0078800 0.0008000
v 0.0000000 0.0101600 0.0016000
v 0.0000000 0.0078800 -0.0000000
v 0.0010715 0.0076669 -0.0002000
v 0.0019440 0.0097733 -0.0010000
v 0.0000000 0.0101600 -0.0008000
v 0.0019799 0.0070599 -0.0004000
v 0.0035921 0.0086721 -0.0012000
v 0.0025869 0.0061515 -0.0006000
v 0.0046933 0.0070241 -0.0014000
v 0.0028000 0.0050800 -0.0008000
v 0.0050800 0.0050800 -0.0016000
v 0.0028000 0.0050800 -0.0032000
v 0.0025869 0.0061515 -0.0030000
v 0.0046933 0.0070241 -0.0022000
v 0.0050800 0.0050800 -0.0024000
v 0.0019799 0.0070599 -0.0028000
v 0.0035921 0.0086721 -0.0020000
v 0.0010715 0.0076669 -0.0026000
v 0.0019440 0.0097733 -0.0018000
v 0.0000000 0.0078800 -0.0024000
v 0.0000000 0.0101600 -0.0016000
v 0.0000000 0.0078800 -0.0032000
v 0.0010715 0.0076669 -0.0034000
v 0.0019440 0.0097733 -0.0042000
v 0.0000000 0.0101600 -0.0040000
v 0.0019799 0.0070599 -0.0036000
v 0.0035921 0.0086721 -0.0044000
v 0.0025869 0.0061515 -0.0038000
v 0.0046933 0.0070241 -0.0046000
v 0.0028000 0.0050800 -0.0040000
v 0.0050800 0.0050800 -0.0048000
v 0.0028000 0.0050800 -0.0064000
v 0.0025869 0.0061515 -0.0062000
v 0.0046933 0.0070241 -0.0054000
v 0.0050800 0.0050800 -0.0056000
v 0.0019799 0.0070599 -0.0060000
v 0.0035921 0.0086721 -0.0052000
v 0.0010715 0.0076669 -0.0058000
v 0.0019440 0.0097733 -0.0050000
v 0.0000000 0.0078800 -0.0056000
v 0.0000000 0.0101600 -0.0048000
v 0.0000000 0.0078800 -0.0064000
v 0.0010715 0.0076669 -0.0066000
v 0.0019440 0.0097733 -0.0074000
v 0.0019799 0.0070599 -0.0068000
v 0.0025869 0.0061515 -0.0070000
v 0.0046933 0.0070241 -0.0078000
v 0.0000000 0.0022800 0.0056000
v 0.0010715 0.0024931 0.0058000
v 0.0019440 0.0003867 0.0066000
v 0.0000000 0.0000000 0.0064000
v 0.0019799 0.0031001 0.0060000
v 0.0035921 0.0014879 0.0068000
v 0.0025869 0.0040085 0.0062000
v 0.0046933 0.0031360 0.0070000
v 0.0025869 0.0040085 0.0054000
v 0.0046933 0.0031360 0.0046000
v 0.0019799 0.0031001 0.0052000
v 0.0035921 0.0014879 0.0044000
v 0.0010715 0.0024931 0.0050000
v 0.0019440 0.0003867 0.0042000
v 0.0000000 0.0022800 0.0048000
v 0.0000000 0.0000000 0.0040000
v 0.0000000 0.0022800 0.0024000
v 0.0010715 0.0024931 0.0026000
v 0.0019440 0.0003867 0.0034000
v 0.0000000 0.0000000 0.0032000
v 0.0019799 0.0031001 0.0028000
v 0.0035921 0.0014879 0.0036000
v 0.0025869 0.0040085 0.0030000
v 0.0046933 0.0031360 0.0038000
v 0.0025869 0.0040085 0.0022000
v 0.0046933 0.0031360 0.0014000
v 0.0019799 0.0031001 0.0020000
v 0.0035921 0.0014879 0.0012000
v 0.0010715 0.0024931 0.0018000
v 0.0019440 0.0003867 0.0010000
v 0.0000000 0.0022800 0.0016000
v 0.0000000 0.0000000 0.0008000
v 0.0000000 0.0022800 -0.0008000
v 0.0010715 0.0024931 -0.0006000
v 0.0019440 0.0003867 0.0002000
v 0.0000000 0.0000000 -0.0000000
v 0.0019799 0.0031001 -0.0004000
v 0.0035921 0.0014879 0.0004000
v 0.0025869 0.0040085 -0.0002000
v 0.0046933 0.0031360 0.0006000
v 0.0025869 0.0040085 -0.0010000
v 0.0046933 0.0031360 -0.0018000
v 0.0019799 0.0031001 -0.0012000
v 0.0035921 0.0014879 -0.0020000
v 0.0010715 0.0024931 -0.0014000
v 0.0019440 0.0003867 -0.0022000
v 0.0000000 0.0022800 -0.0016000
v 0.0000000 0.0000000 -0.0024000
v 0.0000000 0.0022800 -0.0040000
v 0.0010715 0.0024931 -0.0038000
v 0.0019440 0.0003867 -0.0030000
v 0.0000000 0.0000000 -0.0032000
v 0.0019799 0.0031001 -0.0036000
v 0.0035921 0.0014879 -0.0028000
v 0.0025869 0.0040085 -0.0034000
v 0.0046933 0.0031360 -0.0026000
v 0.0025869 0.0040085 -0.0042000
v 0.0046933 0.0031360 -0.0050000
v 0.0019799 0.0031001 -0.0044000
v 0.0035921 0.0014879 -0.0052000
v 0.0010715 0.0024931 -0.0046000
v 0.0019440 0.0003867 -0.0054000
v 0.0000000 0.0022800 -0.0048000
v 0.0000000 0.0000000 -0.0056000
v 0.0010715 0.0024931 -0.0070000
v 0.0019440 0.0003867 -0.0062000
v 0.0000000 0.0000000 -0.0064000
v 0.0019799 0.0031001 -0.0068000
v 0.0035921 0.0014879 -0.0060000
v 0.0025869 0.0040085 -0.0066000
v 0.0046933 0.0031360 -0.0058000
v -0.0010715 0.0024931 0.0078000
v -0.0019440 0.0003867 0.0070000
v -0.0035921 0.0014879 0.0068000
v -0.0046933 0.0031360 0.0066000
v -0.0050800 0.0050800 0.0064000
v -0.0028000 0.0050800 0.0048000
v -0.0025869 0.0040085 0.0050000
v -0.0046933 0.0031360 0.0058000
v -0.0050800 0.0050800 0.0056000
v -0.0019799 0.0031001 0.0052000
v -0.0035921 0.0014879 0.0060000
v -0.0010715 0.0024931 0.0054000
v -0.0019440 0.0003867 0.0062000
v -0.0010715 0.0024931 0.0046000
v -0.0019440 0.0003867 0.0038000
v -0.0019799 0.0031001 0.0044000
v -0.0035921 0.0014879 0.0036000
v -0.0025869 0.0040085 0.0042000
v -0.0046933 0.0031360 0.0034000
v -0.0028000 0.0050800 0.0040000
v -0.0050800 0.0050800 0.0032000
v -0.0028000 0.0050800 0.0016000
v -0.0025869 0.0040085 0.0018000
v -0.0046933 0.0031360 0.0026000
v -0.0050800 0.0050800 0.0024000
v -0.0019799 0.0031001 0.0020000
v -0.0035921 0.0014879 0.0028000
v -0.0010715 0.0024931 0.0022000
v -0.0019440 0.0003867 0.0030000
v -0.0010715 0.0024931 0.0014000
v -0.0019440 0.0003867 0.0006000
v -0.0019799 0.0031001 0.0012000
v -0.0035921 0.0014879 0.0004000
v -0.0025869 0.0040085 0.0010000
v -0.0046933 0.0031360 0.0002000
v -0.0028000 0.0050800 0.0008000
v -0.0050800 0.0050800 -0.0000000
v -0.0028000 0.0050800 -0.0016000
v -0.0025869 0.0040085 -0.0014000
v -0.0046933 0.0031360 -0.0006000
v -0.0050800 0.0050800 -0.0008000
v -0.0019799 0.0031001 -0.0012000
v -0.0035921 0.0014879 -0.0004000
v -0.0010715 0.0024931 -0.0010000
v -0.0019440 0.0003867 -0.0002000
v -0.0010715 0.0024931 -0.0018000
v -0.0019440 0.0003867 -0.0026000
v -0.0019799 0.0031001 -0.0020000
v -0.0035921 0.0014879 -0.0028000
v -0.0025869 0.0040085 -0.0022000
v -0.0046933 0.0031360 -0.0030000
v -0.0028000 0.0050800 -0.0024000
v -0.0050800 0.0050800 -0.0032000
v -0.0028000 0.0050800 -0.0048000
v -0.0025869 0.0040085 -0.0046000
v -0.0046933 0.0031360 -0.0038000
v -0.0050800 0.0050800 -0.0040000
v -0.0019799 0.0031001 -0.0044000
v -0.0035921 0.0014879 -0.0036000
v -0.0010715 0.0024931 -0.0042000
v -0.0019440 0.0003867 -0.0034000
v -0.0010715 0.0024931 -0.0050000
v -0.0019440 0.0003867 -0.0058000
v -0.0019799 0.0031001 -0.0052000
v -0.0035921 0.0014879 -0.0060000
v -0.0025869 0.0040085 -0.0054000
v -0.0046933 0.0031360 -0.0062000
v -0.0028000 0.0050800 -0.0056000
v -0.0050800 0.0050800 -0.0064000
v -0.0046933 0.0031360 -0.0070000
v -0.0035921 0.0014879 -0.0068000
v -0.0010715 0.0024931 -0.0074000
v -0.0019440 0.0003867 -0.0066000
v -0.0025869 0.0061515 0.0070000
v -0.0046933 0.0070241 0.0062000
v -0.0019799 0.0070599 0.0068000
v -0.0035921 0.0086721 0.0060000
v -0.0010715 0.0076669 0.0066000
v -0.0019440 0.0097733 0.0058000
v -0.0010715 0.0076669 0.0042000
v -0.0019440 0.0097733 0.0050000
v -0.0019799 0.0070599 0.0044000
v -0.0035921 0.0086721 0.0052000
v -0.0025869 0.0061515 0.0046000
v -0.0046933 0.0070241 0.0054000
v -0.0025869 0.0061515 0.0038000
v -0.0046933 0.0070241 0.0030000
v -0.0019799 0.0070599 0.0036000
v -0.0035921 0.0086721 0.0028000
v -0.0010715 0.0076669 0.0034000
v -0.0019440 0.0097733 0.0026000
v -0.0010715 0.0076669 0.0010000
v -0.0019440 0.0097733 0.0018000
v -0.0019799 0.0070599 0.0012000
v -0.0035921 0.0086721 0.0020000
v -0.0025869 0.0061515 0.0014000
v -0.0046933 0.0070241 0.0022000
v -0.0025869 0.0061515 0.0006000
v -0.0046933 0.0070241 -0.0002000
v -0.0019799 0.0070599 0.0004000
v -0.0035921 0.0086721 -0.0004000
v -0.0010715 0.0076669 0.0002000
v -0.0019440 0.0097733 -0.0006000
v -0.0010715 0.0076669 -0.0022000
v -0.0019440 0.0097733 -0.0014000
v -0.0019799 0.0070599 -0.0020000
v -0.0035921 0.0086721 -0.0012000
v -0.0025869 0.0061515 -0.0018000
v -0.0046933 0.0070241 -0.0010000
v -0.0025869 0.0061515 -0.0026000
v -0.0046933 0.0070241 -0.0034000
v -0.0019799 0.0070599 -0.0028000
v -0.0035921 0.0086721 -0.0036000
v -0.0010715 0.0076669 -0.0030000
v -0.0019440 0.0097733 -0.0038000
v -0.0010715 0.0076669 -0.0054000
v -0.0019440 0.0097733 -0.0046000
v -0.0019799 0.0070599 -0.0052000
v -0.0035921 0.0086721 -0.0044000
v -0.0025869 0.0061515 -0.0050000
v -0.0046933 0.0070241 -0.0042000
v -0.0025869 0.0061515 -0.0058000
v -0.0046933 0.0070241 -0.0066000
v -0.0019799 0.0070599 -0.0060000
v -0.0035921 0.0086721 -0.0068000
v -0.0010715 0.0076669 -0.0062000
v -0.0019440 0.0097733 -0.0070000
v 0.0019441 0.0003866 0.0066000
v 0.0019441 0.0003866 0.0074000
v 0.0046934 0.0031359 0.0070000
v 0.0046934 0.0031359 0.0078000
v -0.0046934 0.0031359 0.0058000
v -0.0046934 0.0031359 0.0066000
v -0.0019441 0.0003866 0.0062000
v -0.0019441 0.0003866 0.0070000
v -0.0019441 0.0097734 0.0050000
v -0.0019441 0.0097734 0.0058000
v -0.0046934 0.0070241 0.0054000
v -0.0046934 0.0070241 0.0062000
v 0.0046934 0.0070241 0.0042000
v 0.0046934 0.0070241 0.0050000
v 0.0019441 0.0097734 0.0046000
v 0.0019441 0.0097734 0.0054000
v 0.0019441 0.0003866 0.0034000
v 0.0019441 0.0003866 0.0042000
v 0.0046934 0.0031359 0.0038000
v 0.0046934 0.0031359 0.0046000
v -0.0046934 0.0031359 0.0026000
v -0.0046934 0.0031359 0.0034000
v -0.0019441 0.0003866 0.0030000
v -0.0019441 0.0003866 0.0038000
v -0.0019441 0.0097734 0.0018000
v -0.0019441 0.0097734 0.0026000
v -0.0046934 0.0070241 0.0022000
v -0.0046934 0.0070241 0.0030000
v 0.0046934 0.0070241 0.0010000
v 0.0046934 0.0070241 0.0018000
v 0.0019441 0.0097734 0.0014000
v 0.0019441 0.0097734 0.0022000
v 0.0019441 0.0003866 0.0002000
v 0.0019441 0.0003866 0.0010000
v 0.0046934 0.0031359 0.0006000
v 0.0046934 0.0031359 0.0014000
v -0.0046934 0.0031359 -0.0006000
v -0.0046934 0.0031359 0.0002000
v -0.0019441 0.0003866 -0.0002000
v -0.0019441 0.0003866 0.0006000
v -0.0019441 0.0097734 -0.0014000
v -0.0019441 0.0097734 -0.0006000
v -0.0046934 0.0070241 -0.0010000
v -0.0046934 0.0070241 -0.0002000
v 0.0046934 0.0070241 -0.0022000
v 0.0046934 0.0070241 -0.0014000
v 0.0019441 0.0097734 -0.0018000
v 0.0019441 0.0097734 -0.0010000
v 0.0019441 0.0003866 -0.0030000
v 0.0019441 0.0003866 -0.0022000
v 0.0046934 0.0031359 -0.0026000
v 0.0046934 0.0031359 -0.0018000
v -0.0046934 0.0031359 -0.0038000
v -0.0046934 0.0031359 -0.0030000
v -0.0019441 0.0003866 -0.0034000
v -0.0019441 0.0003866 -0.0026000
v -0.0019441 0.0097734 -0.0046000
v -0.0019441 0.0097734 -0.0038000
v -0.0046934 0.0070241 -0.0042000
v -0.0046934 0.0070241 -0.0034000
v 0.0046934 0.0070241 -0.0054000
v 0.0046934 0.0070241 -0.0046000
v 0.0019441 0.0097734 -0.0050000
v 0.0019441 0.0097734 -0.0042000
v 0.0019441 0.0003866 -0.0062000
v 0.0019441 0.0003866 -0.0054000
v 0.0046934 0.0031359 -0.0058000
v 0.0046934 0.0031359 -0.0050000
v -0.0046934 0.0031359 -0.0070000
v -0.0046934 0.0031359 -0.0062000
v -0.0019441 0.0003866 -0.0066000
v -0.0019441 0.0003866 -0.0058000
v -0.0019441 0.0097734 -0.0078000
v -0.0019441 0.0097734 -0.0070000
v -0.0046934 0.0070241 -0.0074000
v -0.0046934 0.0070241 -0.0066000
v -0.0025869 0.0061516 0.0078000
v -0.0025869 0.0061516 0.0070000
v -0.0010716 0.0076669 0.0074000
v -0.0010716 0.0076669 0.0066000
v 0.0010716 0.0076669 0.0070000
v 0.0010716 0.0076669 0.0062000
v 0.0025869 0.0061516 0.0066000
v 0.0025869 0.0061516 0.0058000
v 0.0010716 0.0024931 0.0058000
v 0.0010716 0.0024931 0.0050000
v -0.0010716 0.0024931 0.0054000
v -0.0010716 0.0024931 0.0046000
v -0.0025869 0.0061516 0.0046000
v -0.0025869 0.0061516 0.0038000
v -0.0010716 0.0076669 0.0042000
v -0.0010716 0.0076669 0.0034000
v 0.0010716 0.0076669 0.0038000
v 0.0010716 0.0076669 0.0030000
v 0.0025869 0.0061516 0.0034000
v 0.0025869 0.0061516 0.0026000
v 0.0010716 0.0024931 0.0026000
v 0.0010716 0.0024931 0.0018000
v -0.0010716 0.0024931 0.0022000
v -0.0010716 0.0024931 0.0014000
v -0.0025869 0.0061516 0.0014000
v -0.0025869 0.0061516 0.0006000
v -0.0010716 0.0076669 0.0010000
v -0.0010716 0.0076669 0.0002000
v 0.0010716 0.0076669 0.0006000
v 0.0010716 0.0076669 -0.0002000
v 0.0025869 0.0061516 0.0002000
v 0.0025869 0.0061516 -0.0006000
v 0.0010716 0.0024931 -0.0006000
v 0.0010716 0.0024931 -0.0014000
v -0.0010716 0.0024931 -0.0010000
v -0.0010716 0.0024931 -0.0018000
v -0.0025869 0.0061516 -0.0018000
v -0.0025869 0.0061516 -0.0026000
v -0.0010716 0.0076669 -0.0022000
v -0.0010716 0.0076669 -0.0030000
v 0.0010716 0.0076669 -0.0026000
v 0.0010716 0.0076669 -0.0034000
v 0.0025869 0.0061516 -0.0030000
v 0.0025869 0.0061516 -0.0038000
v 0.0010716 0.0024931 -0.0038000
v 0.0010716 0.0024931 -0.0046000
v -0.0010716 0.0024931 -0.0042000
v -0.0010716 0.0024931 -0.0050000
v -0.0025869 0.0061516 -0.0050000
v -0.0025869 0.0061516 -0.0058000
v -0.0010716 0.0076669 -0.0054000
v -0.0010716 0.0076669 -0.0062000
v 0.0010716 0.0076669 -0.0058000
v 0.0010716 0.0076669 -0.0066000
v 0.0025869 0.0061516 -0.0062000
v 0.0025869 0.0061516 -0.0070000
v 0.0010716 0.0024931 -0.0070000
v 0.0010716 0.0024931 -0.0078000
f 1 2 3
f 4 5 6
f 7 8 9
f 10 11 12
f 13 1 3
f 14 15 13
f 3 14 13
f 1 13 16
f 17 1 16
f 4 6 18
f 19 20 18
f 6 19 18
f 18 21 22
f 4 18 22
f 9 23 24
f 25 9 24
f 25 7 9
f 26 27 7
f 25 26 7
f 28 29 12
f 28 12 30
f 31 28 30
f 29 28 32
f 33 29 32
f 34 35 36
f 37 38 39
f 40 41 42
f 43 44 45
f 46 34 36
f 47 48 46
f 36 47 46
f 34 46 49
f 50 34 49
f 51 39 52
f 53 54 52
f 39 53 52
f 52 55 56
f 51 52 56
f 42 57 58
f 59 42 58
f 59 40 42
f 60 61 40
f 59 60 40
f 62 43 45
f 62 45 63
f 64 62 63
f 43 62 65
f 66 43 65
f 14 67 68
f 66 14 68
f 14 66 65
f 15 14 65
f 13 15 65
f 62 13 65
f 16 13 62
f 64 16 62
f 17 16 64
f 63 17 64
f 69 70 17
f 63 69 17
f 19 70 69
f 61 19 69
f 19 61 60
f 20 19 60
f 18 20 60
f 59 18 60
f 21 18 59
f 58 21 59
f 22 21 58
f 57 22 58
f 71 22 57
f 72 71 57
f 23 71 72
f 56 23 72
f 24 23 56
f 55 24 56
f 25 24 55
f 52 25 55
f 26 25 52
f 54 26 52
f 27 26 54
f 53 27 54
f 73 74 27
f 53 73 27
f 30 74 73
f 50 30 73
f 31 30 50
f 49 31 50
f 28 31 49
f 46 28 49
f 32 28 46
f 48 32 46
f 33 32 48
f 47 33 48
f 67 33 47
f 68 67 47
f 75 76 77
f 70 75 77
f 78 79 76
f 75 78 76
f 80 81 79
f 78 80 79
f 71 82 81
f 80 71 81
f 83 71 84
f 83 84 85
f 83 85 86
f 83 86 74
f 87 74 88
f 87 88 89
f 87 89 90
f 87 90 67
f 91 67 92
f 91 92 93
f 91 93 94
f 91 94 70
f 95 96 97
f 98 95 97
f 97 96 99
f 100 95 67
f 100 67 91
f 101 102 100
f 101 100 91
f 77 101 91
f 77 91 70
f 103 82 71
f 103 71 83
f 103 83 104
f 103 104 105
f 98 104 83
f 98 83 74
f 87 98 74
f 95 87 67
f 98 87 95
f 100 106 95
f 100 102 107
f 107 106 100
f 102 101 108
f 108 107 102
f 101 77 109
f 109 108 101
f 82 103 110
f 103 105 111
f 111 110 103
f 105 104 112
f 112 111 105
f 104 98 113
f 113 112 104
f 76 114 77
f 79 115 114
f 76 79 114
f 81 116 115
f 79 81 115
f 82 117 116
f 81 82 116
f 97 118 98
f 99 119 118
f 97 99 118
f 96 120 119
f 99 96 119
f 95 121 120
f 96 95 120
f 122 123 124
f 72 122 124
f 125 126 123
f 122 125 123
f 127 128 126
f 125 127 126
f 69 129 128
f 127 69 128
f 130 69 131
f 130 131 132
f 130 132 133
f 130 133 68
f 134 68 135
f 134 135 136
f 134 136 137
f 134 137 73
f 138 73 139
f 138 139 140
f 138 140 141
f 138 141 72
f 142 143 144
f 145 142 144
f 144 143 146
f 147 142 73
f 147 73 138
f 148 149 147
f 148 147 138
f 124 148 138
f 124 138 72
f 150 129 69
f 150 69 130
f 150 130 151
f 150 151 152
f 145 151 130
f 145 130 68
f 134 145 68
f 142 134 73
f 145 134 142
f 147 153 142
f 147 149 154
f 154 153 147
f 149 148 155
f 155 154 149
f 148 124 156
f 156 155 148
f 129 150 157
f 150 152 158
f 158 157 150
f 152 151 159
f 159 158 152
f 151 145 160
f 160 159 151
f 123 161 124
f 126 162 161
f 123 126 161
f 128 163 162
f 126 128 162
f 129 164 163
f 128 129 163
f 144 165 145
f 146 166 165
f 144 146 165
f 143 167 166
f 146 143 166
f 142 168 167
f 143 142 167
f 169 170 171
f 171 121 169
f 170 172 119
f 119 171 170
f 172 173 174
f 174 119 172
f 173 113 98
f 98 174 173
f 175 176 177
f 177 178 175
f 176 179 180
f 180 177 176
f 179 181 182
f 182 180 179
f 181 183 184
f 184 182 181
f 185 186 187
f 187 188 185
f 186 189 190
f 190 187 186
f 189 191 192
f 192 190 189
f 191 193 194
f 194 192 191
f 195 196 197
f 197 198 195
f 196 199 200
f 200 197 196
f 199 201 202
f 202 200 199
f 201 203 204
f 204 202 201
f 205 206 207
f 207 208 205
f 206 209 210
f 210 207 206
f 209 211 212
f 212 210 209
f 211 213 214
f 214 212 211
f 215 216 217
f 217 218 215
f 216 219 220
f 220 217 216
f 219 221 222
f 222 220 219
f 221 223 224
f 224 222 221
f 225 226 227
f 227 228 225
f 226 229 230
f 230 227 226
f 229 231 232
f 232 230 229
f 231 233 234
f 234 232 231
f 235 236 237
f 237 238 235
f 236 239 240
f 240 237 236
f 239 241 242
f 242 240 239
f 241 243 244
f 244 242 241
f 245 246 247
f 247 248 245
f 246 249 250
f 250 247 246
f 249 251 252
f 252 250 249
f 251 253 254
f 254 252 251
f 255 256 257
f 257 168 255
f 256 258 166
f 166 257 256
f 258 259 260
f 260 166 258
f 259 160 145
f 145 260 259
f 261 262 263
f 263 264 261
f 262 265 266
f 266 263 262
f 265 267 268
f 268 266 265
f 267 169 121
f 121 268 267
f 183 269 270
f 270 184 183
f 269 271 272
f 272 270 269
f 271 273 274
f 274 272 271
f 273 275 276
f 276 274 273
f 277 278 279
f 279 280 277
f 278 281 282
f 282 279 278
f 281 283 284
f 284 282 281
f 283 185 188
f 188 284 283
f 203 285 286
f 286 204 203
f 285 287 288
f 288 286 285
f 287 289 290
f 290 288 287
f 289 291 292
f 292 290 289
f 293 294 295
f 295 296 293
f 294 297 298
f 298 295 294
f 297 299 300
f 300 298 297
f 299 205 208
f 208 300 299
f 223 301 302
f 302 224 223
f 301 303 304
f 304 302 301
f 303 305 306
f 306 304 303
f 305 307 308
f 308 306 305
f 309 310 311
f 311 312 309
f 310 313 314
f 314 311 310
f 313 315 316
f 316 314 313
f 315 225 228
f 228 316 315
f 243 317 318
f 318 244 243
f 317 319 320
f 320 318 317
f 319 321 322
f 322 320 319
f 321 323 324
f 324 322 321
f 164 325 326
f 326 327 164
f 325 328 329
f 329 326 325
f 328 330 331
f 331 329 328
f 330 245 248
f 248 331 330
f 77 332 333
f 333 109 77
f 332 115 334
f 334 333 332
f 115 116 335
f 335 334 115
f 116 117 336
f 336 335 116
f 337 338 339
f 339 340 337
f 338 341 342
f 342 339 338
f 341 343 344
f 344 342 341
f 343 261 264
f 264 344 343
f 275 345 346
f 346 276 275
f 345 347 348
f 348 346 345
f 347 349 350
f 350 348 347
f 349 351 352
f 352 350 349
f 353 354 355
f 355 356 353
f 354 357 358
f 358 355 354
f 357 359 360
f 360 358 357
f 359 277 280
f 280 360 359
f 291 361 362
f 362 292 291
f 361 363 364
f 364 362 361
f 363 365 366
f 366 364 363
f 365 367 368
f 368 366 365
f 369 370 371
f 371 372 369
f 370 373 374
f 374 371 370
f 373 375 376
f 376 374 373
f 375 293 296
f 296 376 375
f 307 377 378
f 378 308 307
f 377 379 380
f 380 378 377
f 379 381 382
f 382 380 379
f 381 383 384
f 384 382 381
f 385 386 387
f 387 388 385
f 386 389 390
f 390 387 386
f 389 391 392
f 392 390 389
f 391 309 312
f 312 392 391
f 323 393 394
f 394 324 323
f 393 395 396
f 396 394 393
f 395 397 398
f 398 396 395
f 397 399 400
f 400 398 397
f 124 161 401
f 401 156 124
f 161 162 402
f 402 401 161
f 162 403 404
f 404 402 162
f 403 164 327
f 327 404 403
f 117 405 406
f 406 336 117
f 405 407 408
f 408 406 405
f 407 409 410
f 410 408 407
f 409 175 178
f 178 410 409
f 193 411 412
f 412 194 193
f 411 413 414
f 414 412 411
f 413 415 416
f 416 414 413
f 415 337 340
f 340 416 415
f 351 417 418
f 418 352 351
f 417 419 420
f 420 418 417
f 419 421 422
f 422 420 419
f 421 195 198
f 198 422 421
f 213 423 424
f 424 214 213
f 423 425 426
f 426 424 423
f 425 427 428
f 428 426 425
f 427 353 356
f 356 428 427
f 367 429 430
f 430 368 367
f 429 431 432
f 432 430 429
f 431 433 434
f 434 432 431
f 433 215 218
f 218 434 433
f 233 435 436
f 436 234 233
f 435 437 438
f 438 436 435
f 437 439 440
f 440 438 437
f 439 369 372
f 372 440 439
f 383 441 442
f 442 384 383
f 441 443 444
f 444 442 441
f 443 445 446
f 446 444 443
f 445 235 238
f 238 446 445
f 253 447 448
f 448 254 253
f 447 449 450
f 450 448 447
f 449 451 452
f 452 450 449
f 451 385 388
f 388 452 451
f 399 453 454
f 454 400 399
f 453 455 456
f 456 454 453
f 455 457 458
f 458 456 455
f 457 255 168
f 168 458 457
f 109 264 459
f 109 459 460
f 460 459 266
f 460 266 107
f 107 266 461
f 107 461 462
f 462 461 121
f 462 121 95
f 336 340 463
f 336 463 464
f 464 463 342
f 464 342 334
f 334 342 465
f 334 465 466
f 466 465 264
f 466 264 109
f 178 194 467
f 178 467 468
f 468 467 414
f 468 414 408
f 408 414 469
f 408 469 470
f 470 469 340
f 470 340 336
f 184 188 471
f 184 471 472
f 472 471 190
f 472 190 180
f 180 190 473
f 180 473 474
f 474 473 194
f 474 194 178
f 276 280 475
f 276 475 476
f 476 475 282
f 476 282 272
f 272 282 477
f 272 477 478
f 478 477 188
f 478 188 184
f 352 356 479
f 352 479 480
f 480 479 358
f 480 358 348
f 348 358 481
f 348 481 482
f 482 481 280
f 482 280 276
f 198 214 483
f 198 483 484
f 484 483 426
f 484 426 420
f 420 426 485
f 420 485 486
f 486 485 356
f 486 356 352
f 204 208 487
f 204 487 488
f 488 487 210
f 488 210 200
f 200 210 489
f 200 489 490
f 490 489 214
f 490 214 198
f 292 296 491
f 292 491 492
f 492 491 298
f 492 298 288
f 288 298 493
f 288 493 494
f 494 493 208
f 494 208 204
f 368 372 495
f 368 495 496
f 496 495 374
f 496 374 364
f 364 374 497
f 364 497 498
f 498 497 296
f 498 296 292
f 218 234 499
f 218 499 500
f 500 499 438
f 500 438 432
f 432 438 501
f 432 501 502
f 502 501 372
f 502 372 368
f 224 228 503
f 224 503 504
f 504 503 230
f 504 230 220
f 220 230 505
f 220 505 506
f 506 505 234
f 506 234 218
f 308 312 507
f 308 507 508
f 508 507 314
f 508 314 304
f 304 314 509
f 304 509 510
f 510 509 228
f 510 228 224
f 384 388 511
f 384 511 512
f 512 511 390
f 512 390 380
f 380 390 513
f 380 513 514
f 514 513 312
f 514 312 308
f 238 254 515
f 238 515 516
f 516 515 450
f 516 450 444
f 444 450 517
f 444 517 518
f 518 517 388
f 518 388 384
f 244 248 519
f 244 519 520
f 520 519 250
f 520 250 240
f 240 250 521
f 240 521 522
f 522 521 254
f 522 254 238
f 324 327 523
f 324 523 524
f 524 523 329
f 524 329 320
f 320 329 525
f 320 525 526
f 526 525 248
f 526 248 244
f 400 156 527
f 400 527 528
f 528 527 402
f 528 402 396
f 396 402 529
f 396 529 530
f 530 529 327
f 530 327 324
f 168 142 531
f 168 531 532
f 532 531 154
f 532 154 456
f 456 154 533
f 456 533 534
f 534 533 156
f 534 156 400
f 117 82 535
f 117 535 536
f 536 535 111
f 536 111 407
f 407 111 537
f 407 537 538
f 538 537 113
f 538 113 175
f 175 113 539
f 175 539 540
f 540 539 172
f 540 172 179
f 179 172 541
f 179 541 542
f 542 541 169
f 542 169 183
f 183 169 267
f 183 267 269
f 269 267 265
f 269 265 271
f 271 265 543
f 271 543 544
f 544 543 261
f 544 261 275
f 275 261 545
f 275 545 546
f 546 545 341
f 546 341 347
f 347 341 338
f 347 338 349
f 349 338 337
f 349 337 351
f 351 337 547
f 351 547 548
f 548 547 413
f 548 413 419
f 419 413 549
f 419 549 550
f 550 549 193
f 550 193 195
f 195 193 551
f 195 551 552
f 552 551 189
f 552 189 199
f 199 189 553
f 199 553 554
f 554 553 185
f 554 185 203
f 203 185 283
f 203 283 285
f 285 283 281
f 285 281 287
f 287 281 555
f 287 555 556
f 556 555 277
f 556 277 291
f 291 277 557
f 291 557 558
f 558 557 357
f 558 357 363
f 363 357 354
f 363 354 365
f 365 354 353
f 365 353 367
f 367 353 559
f 367 559 560
f 560 559 425
f 560 425 431
f 431 425 561
f 431 561 562
f 562 561 213
f 562 213 215
f 215 213 563
f 215 563 564
f 564 563 209
f 564 209 219
f 219 209 565
f 219 565 566
f 566 565 205
f 566 205 223
f 223 205 299
f 223 299 301
f 301 299 297
f 301 297 303
f 303 297 567
f 303 567 568
f 568 567 293
f 568 293 307
f 307 293 569
f 307 569 570
f 570 569 373
f 570 373 379
f 379 373 370
f 379 370 381
f 381 370 369
f 381 369 383
f 383 369 571
f 383 571 572
f 572 571 437
f 572 437 443
f 443 437 573
f 443 573 574
f 574 573 233
f 574 233 235
f 235 233 575
f 235 575 576
f 576 575 229
f 576 229 239
f 239 229 577
f 239 577 578
f 578 577 225
f 578 225 243
f 243 225 315
f 243 315 317
f 317 315 313
f 317 313 319
f 319 313 579
f 319 579 580
f 580 579 309
f 580 309 323
f 323 309 581
f 323 581 582
f 582 581 389
f 582 389 395
f 395 389 386
f 395 386 397
f 397 386 385
f 397 385 399
f 399 385 583
f 399 583 584
f 584 583 449
f 584 449 455
f 455 449 585
f 455 585 586
f 586 585 253
f 586 253 255
f 255 253 587
f 255 587 588
f 588 587 249
f 588 249 258
f 258 249 589
f 258 589 590
f 590 589 245
f 590 245 160
f 160 245 330
f 160 330 159
f 159 330 328
f 159 328 158
f 158 328 591
f 158 591 592
f 592 591 164
f 592 164 129
