# Botball Lab: metres, +Y up, centred XZ, base Y=0
s off
v 0.0040000 0.0138173 0.0009184
v 0.0040000 0.0132971 0.0016971
v 0.0040000 0.0125184 0.0022173
v 0.0040000 0.0106816 0.0022173
v 0.0040000 0.0099029 0.0016971
v 0.0040000 0.0093827 0.0009184
v 0.0040000 0.0093827 -0.0009184
v 0.0040000 0.0099029 -0.0016971
v 0.0040000 0.0106816 -0.0022173
v 0.0040000 0.0125184 -0.0022173
v 0.0040000 0.0132971 -0.0016971
v 0.0040000 0.0138173 -0.0009184
v 0.0040000 0.0126000 0.0010000
v 0.0040000 0.0132000 0.0008000
v 0.0040000 0.0138409 0.0008000
v 0.0040000 0.0124000 0.0016000
v 0.0040000 0.0124000 0.0022409
v 0.0040000 0.0106000 0.0010000
v 0.0040000 0.0108000 0.0016000
v 0.0040000 0.0108000 0.0022409
v 0.0040000 0.0093591 0.0008000
v 0.0040000 0.0100000 0.0008000
v 0.0040000 0.0100000 -0.0008000
v 0.0040000 0.0093591 -0.0008000
v 0.0040000 0.0106000 -0.0010000
v 0.0040000 0.0108000 -0.0022409
v 0.0040000 0.0108000 -0.0016000
v 0.0040000 0.0126000 -0.0010000
v 0.0040000 0.0124000 -0.0022409
v 0.0040000 0.0124000 -0.0016000
v 0.0040000 0.0132000 -0.0008000
v 0.0040000 0.0138409 -0.0008000
v -0.0040000 0.0138173 -0.0009184
v -0.0040000 0.0132971 -0.0016971
v -0.0040000 0.0125184 -0.0022173
v -0.0040000 0.0106816 -0.0022173
v -0.0040000 0.0099029 -0.0016971
v -0.0040000 0.0093827 -0.0009184
v -0.0040000 0.0093827 0.0009184
v -0.0040000 0.0099029 0.0016971
v -0.0040000 0.0106816 0.0022173
v -0.0040000 0.0125184 0.0022173
v -0.0040000 0.0132971 0.0016971
v -0.0040000 0.0138173 0.0009184
v -0.0040000 0.0126000 -0.0010000
v -0.0040000 0.0132000 -0.0008000
v -0.0040000 0.0138409 -0.0008000
v -0.0040000 0.0124000 -0.0016000
v -0.0040000 0.0124000 -0.0022409
v -0.0040000 0.0106000 -0.0010000
v -0.0040000 0.0108000 -0.0016000
v -0.0040000 0.0108000 -0.0022409
v -0.0040000 0.0093591 -0.0008000
v -0.0040000 0.0100000 -0.0008000
v -0.0040000 0.0100000 0.0008000
v -0.0040000 0.0093591 0.0008000
v -0.0040000 0.0106000 0.0010000
v -0.0040000 0.0108000 0.0022409
v -0.0040000 0.0108000 0.0016000
v -0.0040000 0.0126000 0.0010000
v -0.0040000 0.0124000 0.0022409
v -0.0040000 0.0124000 0.0016000
v -0.0040000 0.0132000 0.0008000
v -0.0040000 0.0138409 0.0008000
v -0.0040000 0.0140000 -0.0000000
v 0.0040000 0.0140000 -0.0000000
v 0.0040000 0.0092000 -0.0000000
v -0.0040000 0.0092000 -0.0000000
v 0.0018828 0.0118828 0.0023437
v 0.0020000 0.0116000 0.0024000
v 0.0020000 0.0116000 0.0028000
v 0.0018828 0.0118828 0.0027437
v 0.0016000 0.0120000 0.0023204
v 0.0016000 0.0120000 0.0027204
v 0.0018828 0.0113172 0.0023437
v 0.0018828 0.0113172 0.0027437
v 0.0016000 0.0112000 0.0023204
v 0.0016000 0.0112000 0.0027204
v -0.0018828 0.0113172 0.0023437
v -0.0020000 0.0116000 0.0024000
v -0.0020000 0.0116000 0.0028000
v -0.0018828 0.0113172 0.0027437
v -0.0016000 0.0112000 0.0023204
v -0.0016000 0.0112000 0.0027204
v -0.0018828 0.0118828 0.0023437
v -0.0018828 0.0118828 0.0027437
v -0.0016000 0.0120000 0.0023204
v -0.0016000 0.0120000 0.0027204
v 0.0018828 0.0113172 -0.0023437
v 0.0020000 0.0116000 -0.0024000
v 0.0020000 0.0116000 -0.0028000
v 0.0018828 0.0113172 -0.0027437
v 0.0016000 0.0112000 -0.0023204
v 0.0016000 0.0112000 -0.0027204
v 0.0018828 0.0118828 -0.0023437
v 0.0018828 0.0118828 -0.0027437
v 0.0016000 0.0120000 -0.0023204
v 0.0016000 0.0120000 -0.0027204
v -0.0018828 0.0118828 -0.0023437
v -0.0020000 0.0116000 -0.0024000
v -0.0020000 0.0116000 -0.0028000
v -0.0018828 0.0118828 -0.0027437
v -0.0016000 0.0120000 -0.0023204
v -0.0016000 0.0120000 -0.0027204
v -0.0018828 0.0113172 -0.0023437
v -0.0018828 0.0113172 -0.0027437
v -0.0016000 0.0112000 -0.0023204
v -0.0016000 0.0112000 -0.0027204
v 0.0020000 0.0120000 0.0023204
v 0.0020000 0.0112000 0.0023204
v -0.0020000 0.0112000 0.0023204
v -0.0020000 0.0120000 0.0023204
v 0.0020000 0.0112000 -0.0023204
v 0.0020000 0.0120000 -0.0023204
v -0.0020000 0.0120000 -0.0023204
v -0.0020000 0.0112000 -0.0023204
v 0.0040000 0.0124000 0.0022408
v 0.0040000 0.0116000 0.0024000
v -0.0040000 0.0116000 0.0024000
v -0.0040000 0.0124000 0.0022408
v 0.0040000 0.0108000 0.0022408
v -0.0040000 0.0108000 0.0022408
v 0.0040000 0.0116000 -0.0024000
v 0.0040000 0.0124000 -0.0022408
v -0.0040000 0.0124000 -0.0022408
v -0.0040000 0.0116000 -0.0024000
v 0.0040000 0.0108000 -0.0022408
v -0.0040000 0.0108000 -0.0022408
v 0.0020000 0.0120000 0.0027204
v 0.0020000 0.0112000 0.0027204
v -0.0020000 0.0112000 0.0027204
v -0.0020000 0.0120000 0.0027204
v 0.0020000 0.0112000 -0.0027204
v 0.0020000 0.0120000 -0.0027204
v -0.0020000 0.0120000 -0.0027204
v -0.0020000 0.0112000 -0.0027204
v -0.0024000 0.0105285 0.0025869
v -0.0024000 0.0096200 0.0019799
v 0.0024000 0.0096200 0.0019799
v 0.0024000 0.0105285 0.0025869
v -0.0024000 0.0090132 0.0010715
v 0.0024000 0.0090132 0.0010715
v -0.0024000 0.0087999 0.0000000
v 0.0024000 0.0087999 0.0000000
v -0.0024000 0.0090131 -0.0010715
v 0.0024000 0.0090131 -0.0010715
v -0.0024000 0.0096201 -0.0019800
v 0.0024000 0.0096201 -0.0019800
v -0.0024000 0.0105285 -0.0025868
v 0.0024000 0.0105285 -0.0025868
v 0.0024000 0.0135800 0.0019799
v -0.0024000 0.0135800 0.0019799
v -0.0024000 0.0126715 0.0025869
v 0.0024000 0.0126715 0.0025869
v 0.0024000 0.0141868 0.0010715
v -0.0024000 0.0141868 0.0010715
v 0.0024000 0.0144001 0.0000000
v -0.0024000 0.0144001 0.0000000
v 0.0024000 0.0141869 -0.0010715
v -0.0024000 0.0141869 -0.0010715
v 0.0024000 0.0135799 -0.0019800
v -0.0024000 0.0135799 -0.0019800
v 0.0024000 0.0126715 -0.0025868
v -0.0024000 0.0126715 -0.0025868
v -0.0024000 0.0126716 0.0025869
v 0.0024000 0.0126716 0.0025869
v 0.0024000 0.0105284 0.0025869
v -0.0024000 0.0105284 0.0025869
v 0.0024000 0.0116000 0.0028000
v -0.0024000 0.0116000 0.0028000
v 0.0024000 0.0126716 -0.0025869
v -0.0024000 0.0126716 -0.0025869
v -0.0024000 0.0105284 -0.0025869
v 0.0024000 0.0105284 -0.0025869
v 0.0024000 0.0116000 -0.0028000
v -0.0024000 0.0116000 -0.0028000
v 0.0028000 0.0080000 -0.0000000
v 0.0028000 0.0082740 -0.0013777
v 0.0040000 0.0082740 -0.0013777
v 0.0040000 0.0080000 -0.0000000
v 0.0028000 0.0090544 -0.0025456
v 0.0040000 0.0090544 -0.0025456
v 0.0028000 0.0102223 -0.0033260
v 0.0040000 0.0102223 -0.0033260
v 0.0028000 0.0116000 -0.0036000
v 0.0040000 0.0116000 -0.0036000
v 0.0028000 0.0129777 -0.0033260
v 0.0040000 0.0129777 -0.0033260
v 0.0028000 0.0141456 -0.0025456
v 0.0040000 0.0141456 -0.0025456
v 0.0028000 0.0149260 -0.0013777
v 0.0040000 0.0149260 -0.0013777
v 0.0028000 0.0152000 -0.0000000
v 0.0040000 0.0152000 -0.0000000
v 0.0028000 0.0149260 0.0013777
v 0.0040000 0.0149260 0.0013777
v 0.0028000 0.0141456 0.0025456
v 0.0040000 0.0141456 0.0025456
v 0.0028000 0.0129777 0.0033260
v 0.0040000 0.0129777 0.0033260
v 0.0028000 0.0116000 0.0036000
v 0.0040000 0.0116000 0.0036000
v 0.0028000 0.0102223 0.0033260
v 0.0040000 0.0102223 0.0033260
v 0.0028000 0.0090544 0.0025456
v 0.0040000 0.0090544 0.0025456
v 0.0028000 0.0082740 0.0013777
v 0.0040000 0.0082740 0.0013777
v -0.0040000 0.0082740 -0.0013777
v -0.0028000 0.0082740 -0.0013777
v -0.0028000 0.0080000 -0.0000000
v -0.0040000 0.0080000 -0.0000000
v -0.0040000 0.0090544 -0.0025456
v -0.0028000 0.0090544 -0.0025456
v -0.0040000 0.0102223 -0.0033260
v -0.0028000 0.0102223 -0.0033260
v -0.0040000 0.0116000 -0.0036000
v -0.0028000 0.0116000 -0.0036000
v -0.0040000 0.0129777 -0.0033260
v -0.0028000 0.0129777 -0.0033260
v -0.0040000 0.0141456 -0.0025456
v -0.0028000 0.0141456 -0.0025456
v -0.0040000 0.0149260 -0.0013777
v -0.0028000 0.0149260 -0.0013777
v -0.0040000 0.0152000 -0.0000000
v -0.0028000 0.0152000 -0.0000000
v -0.0040000 0.0149260 0.0013777
v -0.0028000 0.0149260 0.0013777
v -0.0040000 0.0141456 0.0025456
v -0.0028000 0.0141456 0.0025456
v -0.0040000 0.0129777 0.0033260
v -0.0028000 0.0129777 0.0033260
v -0.0040000 0.0116000 0.0036000
v -0.0028000 0.0116000 0.0036000
v -0.0040000 0.0102223 0.0033260
v -0.0028000 0.0102223 0.0033260
v -0.0040000 0.0090544 0.0025456
v -0.0028000 0.0090544 0.0025456
v -0.0040000 0.0082740 0.0013777
v -0.0028000 0.0082740 0.0013777
v 0.0036000 0.0080000 -0.0036000
v 0.0036000 0.0116000 -0.0036000
v 0.0036000 0.0102223 -0.0033260
v 0.0036000 0.0090544 -0.0025456
v 0.0036000 0.0082740 -0.0013777
v 0.0036000 0.0080000 -0.0000000
v 0.0036000 0.0080000 0.0036000
v 0.0036000 0.0082740 0.0013777
v 0.0036000 0.0090544 0.0025456
v 0.0036000 0.0102223 0.0033260
v 0.0036000 0.0116000 0.0036000
v 0.0028000 0.0080000 -0.0036000
v 0.0028000 0.0080000 0.0036000
v -0.0028000 0.0080000 -0.0036000
v -0.0028000 0.0080000 0.0036000
v -0.0036000 0.0102223 -0.0033260
v -0.0036000 0.0116000 -0.0036000
v -0.0036000 0.0080000 -0.0036000
v -0.0036000 0.0090544 -0.0025456
v -0.0036000 0.0082740 -0.0013777
v -0.0036000 0.0080000 -0.0000000
v -0.0036000 0.0082740 0.0013777
v -0.0036000 0.0080000 0.0036000
v -0.0036000 0.0090544 0.0025456
v -0.0036000 0.0102223 0.0033260
v -0.0036000 0.0116000 0.0036000
v 0.0022174 0.0026815 -0.0032000
v 0.0022174 0.0026815 0.0032000
v 0.0024000 0.0036000 0.0032000
v 0.0024000 0.0036000 -0.0032000
v 0.0016970 0.0019030 -0.0032000
v 0.0016970 0.0019030 0.0032000
v 0.0009185 0.0013826 -0.0032000
v 0.0009185 0.0013826 0.0032000
v 0.0000000 0.0012000 -0.0032000
v 0.0000000 0.0012000 0.0032000
v -0.0009185 0.0013826 -0.0032000
v -0.0009185 0.0013826 0.0032000
v -0.0016970 0.0019030 -0.0032000
v -0.0016970 0.0019030 0.0032000
v -0.0022174 0.0026815 -0.0032000
v -0.0022174 0.0026815 0.0032000
v -0.0024000 0.0036000 -0.0032000
v -0.0024000 0.0036000 0.0032000
v -0.0022174 0.0045185 -0.0032000
v -0.0022174 0.0045185 0.0032000
v -0.0016970 0.0052970 -0.0032000
v -0.0016970 0.0052970 0.0032000
v -0.0009185 0.0058174 -0.0032000
v -0.0009185 0.0058174 0.0032000
v 0.0000000 0.0060000 -0.0032000
v 0.0000000 0.0060000 0.0032000
v 0.0009185 0.0058174 -0.0032000
v 0.0009185 0.0058174 0.0032000
v 0.0016970 0.0052970 -0.0032000
v 0.0016970 0.0052970 0.0032000
v 0.0022174 0.0045185 -0.0032000
v 0.0022174 0.0045185 0.0032000
v -0.0012246 0.0006435 -0.0032000
v 0.0000000 0.0004000 -0.0032000
v -0.0022627 0.0013373 -0.0032000
v -0.0029565 0.0023754 -0.0032000
v -0.0032000 0.0036000 -0.0032000
v -0.0029565 0.0048246 -0.0032000
v -0.0022627 0.0058627 -0.0032000
v -0.0012246 0.0065565 -0.0032000
v 0.0000000 0.0068000 -0.0032000
v 0.0012246 0.0065565 -0.0032000
v 0.0022627 0.0058627 -0.0032000
v 0.0029565 0.0048246 -0.0032000
v 0.0032000 0.0036000 -0.0032000
v 0.0029565 0.0023754 -0.0032000
v 0.0022627 0.0013373 -0.0032000
v 0.0012246 0.0006435 -0.0032000
v 0.0029565 0.0023754 -0.0040000
v 0.0032000 0.0036000 -0.0040000
v 0.0022627 0.0013373 -0.0040000
v 0.0012246 0.0006435 -0.0040000
v 0.0000000 0.0004000 -0.0040000
v -0.0012246 0.0006435 -0.0040000
v -0.0022627 0.0013373 -0.0040000
v -0.0029565 0.0023754 -0.0040000
v -0.0032000 0.0036000 -0.0040000
v -0.0029565 0.0048246 -0.0040000
v -0.0022627 0.0058627 -0.0040000
v -0.0012246 0.0065565 -0.0040000
v 0.0000000 0.0068000 -0.0040000
v 0.0012246 0.0065565 -0.0040000
v 0.0022627 0.0058627 -0.0040000
v 0.0029565 0.0048246 -0.0040000
v -0.0012246 0.0006435 0.0032000
v 0.0000000 0.0004000 0.0032000
v -0.0022627 0.0013373 0.0032000
v -0.0029565 0.0023754 0.0032000
v -0.0032000 0.0036000 0.0032000
v -0.0029565 0.0048246 0.0032000
v -0.0022627 0.0058627 0.0032000
v -0.0012246 0.0065565 0.0032000
v 0.0000000 0.0068000 0.0032000
v 0.0012246 0.0065565 0.0032000
v 0.0022627 0.0058627 0.0032000
v 0.0029565 0.0048246 0.0032000
v 0.0032000 0.0036000 0.0032000
v 0.0029565 0.0023754 0.0032000
v 0.0022627 0.0013373 0.0032000
v 0.0012246 0.0006435 0.0032000
v 0.0029565 0.0023754 0.0040000
v 0.0032000 0.0036000 0.0040000
v 0.0022627 0.0013373 0.0040000
v 0.0012246 0.0006435 0.0040000
v 0.0000000 0.0004000 0.0040000
v -0.0012246 0.0006435 0.0040000
v -0.0022627 0.0013373 0.0040000
v -0.0029565 0.0023754 0.0040000
v -0.0032000 0.0036000 0.0040000
v -0.0029565 0.0048246 0.0040000
v -0.0022627 0.0058627 0.0040000
v -0.0012246 0.0065565 0.0040000
v 0.0000000 0.0068000 0.0040000
v 0.0012246 0.0065565 0.0040000
v 0.0022627 0.0058627 0.0040000
v 0.0029565 0.0048246 0.0040000
v 0.0036000 0.0036000 0.0040000
v 0.0033260 0.0022223 0.0040000
v 0.0033260 0.0022223 -0.0040000
v 0.0036000 0.0036000 -0.0040000
v 0.0025456 0.0010544 0.0040000
v 0.0025456 0.0010544 -0.0040000
v 0.0013777 0.0002740 0.0040000
v 0.0013777 0.0002740 -0.0040000
v 0.0000000 0.0000000 0.0040000
v 0.0000000 0.0000000 -0.0040000
v -0.0013777 0.0002740 0.0040000
v -0.0013777 0.0002740 -0.0040000
v -0.0025456 0.0010544 0.0040000
v -0.0025456 0.0010544 -0.0040000
v -0.0033260 0.0022223 0.0040000
v -0.0033260 0.0022223 -0.0040000
v -0.0036000 0.0036000 0.0040000
v -0.0036000 0.0036000 -0.0040000
v -0.0033260 0.0049777 0.0040000
v -0.0033260 0.0049777 -0.0040000
v -0.0025456 0.0061456 0.0040000
v -0.0025456 0.0061456 -0.0040000
v -0.0013777 0.0069260 0.0040000
v -0.0013777 0.0069260 -0.0040000
v 0.0000000 0.0072000 0.0040000
v 0.0000000 0.0072000 -0.0040000
v 0.0013777 0.0069260 0.0040000
v 0.0013777 0.0069260 -0.0040000
v 0.0025456 0.0061456 0.0040000
v 0.0025456 0.0061456 -0.0040000
v 0.0033260 0.0049777 0.0040000
v 0.0033260 0.0049777 -0.0040000
v 0.0036000 0.0036000 0.0036000
v 0.0036000 0.0036000 -0.0036000
v 0.0028000 0.0057648 -0.0036000
v 0.0028000 0.0057648 0.0036000
v -0.0036000 0.0036000 -0.0036000
v -0.0036000 0.0036000 0.0036000
v -0.0028000 0.0057648 0.0036000
v -0.0028000 0.0057648 -0.0036000
v -0.0028000 0.0072000 -0.0008000
v -0.0028000 0.0089680 -0.0008000
v 0.0028000 0.0089680 -0.0008000
v 0.0028000 0.0072000 -0.0008000
v -0.0028000 0.0072000 0.0008000
v 0.0028000 0.0072000 0.0008000
v 0.0028000 0.0089680 0.0008000
v -0.0028000 0.0089680 0.0008000
v 0.0026000 0.0103754 0.0029565
v 0.0026000 0.0116000 0.0032000
v 0.0026000 0.0093373 0.0022627
v 0.0026000 0.0086435 0.0012246
v 0.0026000 0.0084000 -0.0000000
v 0.0026000 0.0086435 -0.0012246
v 0.0026000 0.0093373 -0.0022627
v 0.0026000 0.0103754 -0.0029565
v 0.0026000 0.0116000 -0.0032000
v 0.0026000 0.0128246 -0.0029565
v 0.0026000 0.0138627 -0.0022627
v 0.0026000 0.0145565 -0.0012246
v 0.0026000 0.0148000 -0.0000000
v 0.0026000 0.0145565 0.0012246
v 0.0026000 0.0138627 0.0022627
v 0.0026000 0.0128246 0.0029565
v -0.0026000 0.0103754 -0.0029565
v -0.0026000 0.0116000 -0.0032000
v -0.0026000 0.0093373 -0.0022627
v -0.0026000 0.0086435 -0.0012246
v -0.0026000 0.0084000 -0.0000000
v -0.0026000 0.0086435 0.0012246
v -0.0026000 0.0093373 0.0022627
v -0.0026000 0.0103754 0.0029565
v -0.0026000 0.0116000 0.0032000
v -0.0026000 0.0128246 0.0029565
v -0.0026000 0.0138627 0.0022627
v -0.0026000 0.0145565 0.0012246
v -0.0026000 0.0148000 -0.0000000
v -0.0026000 0.0145565 -0.0012246
v -0.0026000 0.0138627 -0.0022627
v -0.0026000 0.0128246 -0.0029565
v -0.0024000 0.0088000 -0.0000000
v -0.0024000 0.0090131 0.0010716
v -0.0024000 0.0096201 0.0019799
v -0.0024000 0.0135799 0.0019799
v -0.0024000 0.0141869 0.0010716
v -0.0024000 0.0144000 -0.0000000
v -0.0024000 0.0141869 -0.0010716
v -0.0024000 0.0135799 -0.0019799
v -0.0024000 0.0096201 -0.0019799
v -0.0024000 0.0090131 -0.0010716
v 0.0024000 0.0088000 -0.0000000
v 0.0024000 0.0090131 -0.0010716
v 0.0024000 0.0096201 -0.0019799
v 0.0024000 0.0135799 -0.0019799
v 0.0024000 0.0141869 -0.0010716
v 0.0024000 0.0144000 -0.0000000
v 0.0024000 0.0141869 0.0010716
v 0.0024000 0.0135799 0.0019799
v 0.0024000 0.0096201 0.0019799
v 0.0024000 0.0090131 0.0010716
v 0.0040000 0.0093826 -0.0009185
v 0.0040000 0.0099030 -0.0016970
v 0.0040000 0.0106815 -0.0022174
v 0.0040000 0.0125185 -0.0022174
v 0.0040000 0.0132970 -0.0016970
v 0.0040000 0.0138174 -0.0009185
v 0.0040000 0.0138174 0.0009185
v 0.0040000 0.0132970 0.0016970
v 0.0040000 0.0125185 0.0022174
v 0.0040000 0.0106815 0.0022174
v 0.0040000 0.0099030 0.0016970
v 0.0040000 0.0093826 0.0009185
v -0.0040000 0.0093826 0.0009185
v -0.0040000 0.0099030 0.0016970
v -0.0040000 0.0106815 0.0022174
v -0.0040000 0.0125185 0.0022174
v -0.0040000 0.0132970 0.0016970
v -0.0040000 0.0138174 0.0009185
v -0.0040000 0.0138174 -0.0009185
v -0.0040000 0.0132970 -0.0016970
v -0.0040000 0.0125185 -0.0022174
v -0.0040000 0.0106815 -0.0022174
v -0.0040000 0.0099030 -0.0016970
v -0.0040000 0.0093826 -0.0009185
v 0.0013800 0.0069280 0.0008000
v 0.0000000 0.0072000 0.0008000
v -0.0013800 0.0069280 0.0008000
v 0.0028000 0.0057648 0.0008000
v -0.0028000 0.0057648 0.0008000
v -0.0013800 0.0069280 -0.0008000
v 0.0000000 0.0072000 -0.0008000
v 0.0013800 0.0069280 -0.0008000
v -0.0028000 0.0057648 -0.0008000
v 0.0028000 0.0057648 -0.0008000
f 1 2 3
f 4 5 6
f 7 8 9
f 10 11 12
f 1 3 13
f 13 14 15
f 13 15 1
f 16 13 3
f 16 3 17
f 18 4 6
f 18 19 20
f 18 20 4
f 21 22 18
f 21 18 6
f 23 24 7
f 23 7 25
f 7 9 25
f 9 26 27
f 9 27 25
f 10 12 28
f 29 10 28
f 29 28 30
f 31 28 12
f 31 12 32
f 33 34 35
f 36 37 38
f 39 40 41
f 42 43 44
f 33 35 45
f 45 46 47
f 45 47 33
f 48 45 35
f 48 35 49
f 50 36 38
f 50 51 52
f 50 52 36
f 53 54 50
f 53 50 38
f 55 56 39
f 55 39 57
f 39 41 57
f 41 58 59
f 41 59 57
f 42 44 60
f 61 42 60
f 61 60 62
f 63 60 44
f 63 44 64
f 64 65 66
f 64 66 15
f 67 68 56
f 21 67 56
f 53 68 67
f 53 67 24
f 66 65 47
f 32 66 47
f 63 64 15
f 63 15 14
f 63 14 13
f 63 13 60
f 60 13 16
f 60 16 62
f 62 16 17
f 62 17 61
f 59 58 20
f 59 20 19
f 59 19 18
f 59 18 57
f 57 18 22
f 57 22 55
f 55 22 21
f 55 21 56
f 53 24 23
f 53 23 54
f 54 23 25
f 54 25 50
f 50 25 27
f 50 27 51
f 51 27 26
f 51 26 52
f 49 29 30
f 49 30 48
f 48 30 28
f 48 28 45
f 45 28 31
f 45 31 46
f 46 31 32
f 46 32 47
f 69 70 71
f 69 71 72
f 73 69 72
f 73 72 74
f 71 70 75
f 76 71 75
f 76 75 77
f 78 76 77
f 79 80 81
f 79 81 82
f 83 79 82
f 83 82 84
f 81 80 85
f 86 81 85
f 86 85 87
f 88 86 87
f 89 90 91
f 89 91 92
f 93 89 92
f 93 92 94
f 91 90 95
f 96 91 95
f 96 95 97
f 98 96 97
f 99 100 101
f 99 101 102
f 103 99 102
f 103 102 104
f 101 100 105
f 106 101 105
f 106 105 107
f 108 106 107
f 83 84 78
f 83 78 77
f 73 74 88
f 73 88 87
f 103 104 98
f 103 98 97
f 93 94 108
f 93 108 107
f 70 69 109
f 69 73 109
f 110 75 70
f 110 77 75
f 80 79 111
f 79 83 111
f 112 85 80
f 112 87 85
f 90 89 113
f 89 93 113
f 114 95 90
f 114 97 95
f 100 99 115
f 99 103 115
f 116 105 100
f 116 107 105
f 117 118 70
f 117 70 109
f 119 120 112
f 119 112 80
f 118 121 110
f 118 110 70
f 122 119 80
f 122 80 111
f 117 109 112
f 117 112 120
f 122 111 110
f 122 110 121
f 123 124 114
f 123 114 90
f 125 126 100
f 125 100 115
f 127 123 90
f 127 90 113
f 126 128 116
f 126 116 100
f 125 115 114
f 125 114 124
f 127 113 116
f 127 116 128
f 129 72 71
f 129 74 72
f 71 76 130
f 76 78 130
f 131 82 81
f 131 84 82
f 81 86 132
f 86 88 132
f 133 92 91
f 133 94 92
f 91 96 134
f 96 98 134
f 135 102 101
f 135 104 102
f 101 106 136
f 106 108 136
f 137 138 139
f 140 137 139
f 138 141 142
f 139 138 142
f 141 143 144
f 142 141 144
f 143 145 146
f 144 143 146
f 145 147 148
f 146 145 148
f 147 149 150
f 148 147 150
f 151 152 153
f 151 153 154
f 155 156 152
f 155 152 151
f 157 158 156
f 157 156 155
f 159 160 158
f 159 158 157
f 161 162 160
f 161 160 159
f 163 164 162
f 163 162 161
f 165 132 129
f 165 129 166
f 167 130 131
f 167 131 168
f 169 71 130
f 169 130 167
f 166 129 71
f 166 71 169
f 168 131 81
f 168 81 170
f 170 81 132
f 170 132 165
f 171 134 135
f 171 135 172
f 173 136 133
f 173 133 174
f 174 133 91
f 174 91 175
f 175 91 134
f 175 134 171
f 176 101 136
f 176 136 173
f 172 135 101
f 172 101 176
f 177 178 179
f 177 179 180
f 178 181 182
f 178 182 179
f 181 183 184
f 181 184 182
f 183 185 186
f 183 186 184
f 185 187 188
f 185 188 186
f 187 189 190
f 187 190 188
f 189 191 192
f 189 192 190
f 191 193 194
f 191 194 192
f 193 195 196
f 193 196 194
f 195 197 198
f 195 198 196
f 197 199 200
f 197 200 198
f 199 201 202
f 199 202 200
f 201 203 204
f 201 204 202
f 203 205 206
f 203 206 204
f 205 207 208
f 205 208 206
f 207 177 180
f 207 180 208
f 209 210 211
f 212 209 211
f 213 214 210
f 209 213 210
f 215 216 214
f 213 215 214
f 217 218 216
f 215 217 216
f 219 220 218
f 217 219 218
f 221 222 220
f 219 221 220
f 223 224 222
f 221 223 222
f 225 226 224
f 223 225 224
f 227 228 226
f 225 227 226
f 229 230 228
f 227 229 228
f 231 232 230
f 229 231 230
f 233 234 232
f 231 233 232
f 235 236 234
f 233 235 234
f 237 238 236
f 235 237 236
f 239 240 238
f 237 239 238
f 212 211 240
f 239 212 240
f 241 242 243
f 241 243 244
f 241 244 245
f 241 245 246
f 247 246 248
f 247 248 249
f 247 249 250
f 247 250 251
f 183 185 252
f 181 183 252
f 178 181 252
f 177 178 252
f 207 177 253
f 205 207 253
f 203 205 253
f 201 203 253
f 254 218 216
f 254 216 214
f 254 214 210
f 254 210 211
f 255 211 240
f 255 240 238
f 255 238 236
f 255 236 234
f 256 257 258
f 259 256 258
f 260 259 258
f 261 260 258
f 262 261 263
f 264 262 263
f 265 264 263
f 266 265 263
f 267 268 269
f 270 267 269
f 271 272 268
f 267 271 268
f 273 274 272
f 271 273 272
f 275 276 274
f 273 275 274
f 277 278 276
f 275 277 276
f 279 280 278
f 277 279 278
f 281 282 280
f 279 281 280
f 283 284 282
f 281 283 282
f 285 286 284
f 283 285 284
f 287 288 286
f 285 287 286
f 289 290 288
f 287 289 288
f 291 292 290
f 289 291 290
f 293 294 292
f 291 293 292
f 295 296 294
f 293 295 294
f 297 298 296
f 295 297 296
f 270 269 298
f 297 270 298
f 299 277 275
f 299 275 300
f 301 279 277
f 301 277 299
f 302 281 279
f 302 279 301
f 303 283 281
f 303 281 302
f 304 285 283
f 304 283 303
f 305 287 285
f 305 285 304
f 306 289 287
f 306 287 305
f 307 291 289
f 307 289 306
f 308 293 291
f 308 291 307
f 309 295 293
f 309 293 308
f 310 297 295
f 310 295 309
f 311 270 297
f 311 297 310
f 312 267 270
f 312 270 311
f 313 271 267
f 313 267 312
f 314 273 271
f 314 271 313
f 300 275 273
f 300 273 314
f 315 312 311
f 316 315 311
f 317 313 312
f 315 317 312
f 318 314 313
f 317 318 313
f 319 300 314
f 318 319 314
f 320 299 300
f 319 320 300
f 321 301 299
f 320 321 299
f 322 302 301
f 321 322 301
f 323 303 302
f 322 323 302
f 324 304 303
f 323 324 303
f 325 305 304
f 324 325 304
f 326 306 305
f 325 326 305
f 327 307 306
f 326 327 306
f 328 308 307
f 327 328 307
f 329 309 308
f 328 329 308
f 330 310 309
f 329 330 309
f 316 311 310
f 330 316 310
f 276 278 331
f 332 276 331
f 278 280 333
f 331 278 333
f 280 282 334
f 333 280 334
f 282 284 335
f 334 282 335
f 284 286 336
f 335 284 336
f 286 288 337
f 336 286 337
f 288 290 338
f 337 288 338
f 290 292 339
f 338 290 339
f 292 294 340
f 339 292 340
f 294 296 341
f 340 294 341
f 296 298 342
f 341 296 342
f 298 269 343
f 342 298 343
f 269 268 344
f 343 269 344
f 268 272 345
f 344 268 345
f 272 274 346
f 345 272 346
f 274 276 332
f 346 274 332
f 343 344 347
f 343 347 348
f 344 345 349
f 344 349 347
f 345 346 350
f 345 350 349
f 346 332 351
f 346 351 350
f 332 331 352
f 332 352 351
f 331 333 353
f 331 353 352
f 333 334 354
f 333 354 353
f 334 335 355
f 334 355 354
f 335 336 356
f 335 356 355
f 336 337 357
f 336 357 356
f 337 338 358
f 337 358 357
f 338 339 359
f 338 359 358
f 339 340 360
f 339 360 359
f 340 341 361
f 340 361 360
f 341 342 362
f 341 362 361
f 342 343 348
f 342 348 362
f 363 364 365
f 363 365 366
f 364 367 368
f 364 368 365
f 367 369 370
f 367 370 368
f 369 371 372
f 369 372 370
f 371 373 374
f 371 374 372
f 373 375 376
f 373 376 374
f 375 377 378
f 375 378 376
f 377 379 380
f 377 380 378
f 379 381 382
f 379 382 380
f 381 383 384
f 381 384 382
f 383 385 386
f 383 386 384
f 385 387 388
f 385 388 386
f 387 389 390
f 387 390 388
f 389 391 392
f 389 392 390
f 391 393 394
f 391 394 392
f 393 363 366
f 393 366 394
f 247 395 396
f 247 396 241
f 253 252 397
f 253 397 398
f 263 258 399
f 263 399 400
f 255 401 402
f 255 402 254
f 403 404 405
f 403 405 406
f 407 408 409
f 407 409 410
f 396 397 185
f 396 185 242
f 399 257 218
f 399 218 402
f 395 251 201
f 395 201 398
f 400 401 234
f 400 234 266
f 411 203 201
f 411 201 412
f 413 205 203
f 413 203 411
f 414 207 205
f 414 205 413
f 415 177 207
f 415 207 414
f 416 178 177
f 416 177 415
f 417 181 178
f 417 178 416
f 418 183 181
f 418 181 417
f 419 185 183
f 419 183 418
f 420 187 185
f 420 185 419
f 421 189 187
f 421 187 420
f 422 191 189
f 422 189 421
f 423 193 191
f 423 191 422
f 424 195 193
f 424 193 423
f 425 197 195
f 425 195 424
f 426 199 197
f 426 197 425
f 412 201 199
f 412 199 426
f 427 216 218
f 427 218 428
f 429 214 216
f 429 216 427
f 430 210 214
f 430 214 429
f 431 211 210
f 431 210 430
f 432 240 211
f 432 211 431
f 433 238 240
f 433 240 432
f 434 236 238
f 434 238 433
f 435 234 236
f 435 236 434
f 436 232 234
f 436 234 435
f 437 230 232
f 437 232 436
f 438 228 230
f 438 230 437
f 439 226 228
f 439 228 438
f 440 224 226
f 440 226 439
f 441 222 224
f 441 224 440
f 442 220 222
f 442 222 441
f 428 218 220
f 428 220 442
f 443 444 432
f 443 432 431
f 444 445 433
f 444 433 432
f 445 168 434
f 445 434 433
f 168 170 435
f 168 435 434
f 170 165 436
f 170 436 435
f 165 446 437
f 165 437 436
f 446 447 438
f 446 438 437
f 447 448 439
f 447 439 438
f 448 449 440
f 448 440 439
f 449 450 441
f 449 441 440
f 450 172 442
f 450 442 441
f 172 176 428
f 172 428 442
f 176 173 427
f 176 427 428
f 173 451 429
f 173 429 427
f 451 452 430
f 451 430 429
f 452 443 431
f 452 431 430
f 453 454 416
f 453 416 415
f 454 455 417
f 454 417 416
f 455 174 418
f 455 418 417
f 174 175 419
f 174 419 418
f 175 171 420
f 175 420 419
f 171 456 421
f 171 421 420
f 456 457 422
f 456 422 421
f 457 458 423
f 457 423 422
f 458 459 424
f 458 424 423
f 459 460 425
f 459 425 424
f 460 166 426
f 460 426 425
f 166 169 412
f 166 412 426
f 169 167 411
f 169 411 412
f 167 461 413
f 167 413 411
f 461 462 414
f 461 414 413
f 462 453 415
f 462 415 414
f 179 463 67
f 179 67 180
f 182 464 463
f 182 463 179
f 184 465 464
f 184 464 182
f 186 123 465
f 186 465 184
f 188 466 123
f 188 123 186
f 190 467 466
f 190 466 188
f 192 468 467
f 192 467 190
f 194 66 468
f 194 468 192
f 196 469 66
f 196 66 194
f 198 470 469
f 198 469 196
f 200 471 470
f 200 470 198
f 202 118 471
f 202 471 200
f 204 472 118
f 204 118 202
f 206 473 472
f 206 472 204
f 208 474 473
f 208 473 206
f 180 67 474
f 180 474 208
f 239 475 68
f 239 68 212
f 237 476 475
f 237 475 239
f 235 477 476
f 235 476 237
f 233 119 477
f 233 477 235
f 231 478 119
f 231 119 233
f 229 479 478
f 229 478 231
f 227 480 479
f 227 479 229
f 225 65 480
f 225 480 227
f 223 481 65
f 223 65 225
f 221 482 481
f 221 481 223
f 219 483 482
f 219 482 221
f 217 126 483
f 217 483 219
f 215 484 126
f 215 126 217
f 213 485 484
f 213 484 215
f 209 486 485
f 209 485 213
f 212 68 486
f 212 486 209
f 388 390 328
f 388 328 327
f 390 392 329
f 390 329 328
f 392 394 330
f 392 330 329
f 394 366 316
f 394 316 330
f 366 365 315
f 366 315 316
f 365 368 317
f 365 317 315
f 368 370 318
f 368 318 317
f 370 372 319
f 370 319 318
f 372 374 320
f 372 320 319
f 374 376 321
f 374 321 320
f 376 378 322
f 376 322 321
f 378 380 323
f 378 323 322
f 380 382 324
f 380 324 323
f 382 384 325
f 382 325 324
f 384 386 326
f 384 326 325
f 386 388 327
f 386 327 326
f 360 389 387
f 359 360 387
f 361 391 389
f 360 361 389
f 362 393 391
f 361 362 391
f 348 363 393
f 362 348 393
f 347 364 363
f 348 347 363
f 349 367 364
f 347 349 364
f 350 369 367
f 349 350 367
f 351 371 369
f 350 351 369
f 352 373 371
f 351 352 371
f 353 375 373
f 352 353 373
f 354 377 375
f 353 354 375
f 355 379 377
f 354 355 377
f 356 381 379
f 355 356 379
f 357 383 381
f 356 357 381
f 358 385 383
f 357 358 383
f 359 387 385
f 358 359 385
f 487 408 488
f 489 488 407
f 490 408 487
f 407 491 489
f 492 403 493
f 494 493 406
f 495 403 492
f 406 496 494
