# Botball Lab: metres, +Y up, centred XZ, base Y=0
s off
v -0.0007000 0.0032000 -0.0000000
v -0.0007000 0.0032000 0.0016000
v -0.0007000 0.0038123 0.0014782
v -0.0007000 0.0043314 0.0011314
v -0.0007000 0.0046782 0.0006123
v -0.0007000 0.0048000 -0.0000000
v -0.0007000 0.0046782 -0.0006123
v -0.0007000 0.0043314 -0.0011314
v -0.0007000 0.0038123 -0.0014782
v -0.0007000 0.0032000 -0.0016000
v -0.0007000 0.0025877 -0.0014782
v -0.0007000 0.0020686 -0.0011314
v -0.0007000 0.0017218 -0.0006123
v -0.0007000 0.0016000 -0.0000000
v -0.0007000 0.0017218 0.0006123
v -0.0007000 0.0020686 0.0011314
v -0.0007000 0.0025877 0.0014782
v -0.0045000 0.0038123 0.0014782
v -0.0045000 0.0032000 0.0016000
v -0.0045000 0.0043314 0.0011314
v -0.0045000 0.0046782 0.0006123
v -0.0045000 0.0048000 -0.0000000
v -0.0045000 0.0046782 -0.0006123
v -0.0045000 0.0043314 -0.0011314
v -0.0045000 0.0038123 -0.0014782
v -0.0045000 0.0032000 -0.0016000
v -0.0045000 0.0025877 -0.0014782
v -0.0045000 0.0020686 -0.0011314
v -0.0045000 0.0017218 -0.0006123
v -0.0045000 0.0016000 -0.0000000
v -0.0045000 0.0017218 0.0006123
v -0.0045000 0.0020686 0.0011314
v -0.0045000 0.0025877 0.0014782
v 0.0001000 0.0032000 0.0032000
v 0.0001000 0.0044246 0.0029565
v -0.0007000 0.0044246 0.0029565
v -0.0007000 0.0032000 0.0032000
v 0.0001000 0.0054627 0.0022627
v -0.0007000 0.0054627 0.0022627
v 0.0001000 0.0061565 0.0012246
v -0.0007000 0.0061565 0.0012246
v 0.0001000 0.0064000 -0.0000000
v -0.0007000 0.0064000 -0.0000000
v 0.0001000 0.0061565 -0.0012246
v -0.0007000 0.0061565 -0.0012246
v 0.0001000 0.0054627 -0.0022627
v -0.0007000 0.0054627 -0.0022627
v 0.0001000 0.0044246 -0.0029565
v -0.0007000 0.0044246 -0.0029565
v 0.0001000 0.0032000 -0.0032000
v -0.0007000 0.0032000 -0.0032000
v 0.0001000 0.0019754 -0.0029565
v -0.0007000 0.0019754 -0.0029565
v 0.0001000 0.0009373 -0.0022627
v -0.0007000 0.0009373 -0.0022627
v 0.0001000 0.0002435 -0.0012246
v -0.0007000 0.0002435 -0.0012246
v 0.0001000 0.0000000 -0.0000000
v -0.0007000 0.0000000 -0.0000000
v 0.0001000 0.0002435 0.0012246
v -0.0007000 0.0002435 0.0012246
v 0.0001000 0.0009373 0.0022627
v -0.0007000 0.0009373 0.0022627
v 0.0001000 0.0019754 0.0029565
v -0.0007000 0.0019754 0.0029565
v -0.0007000 0.0054174 -0.0009185
v -0.0007000 0.0056000 -0.0000000
v -0.0007000 0.0048970 -0.0016970
v -0.0007000 0.0041185 -0.0022174
v -0.0007000 0.0032000 -0.0024000
v -0.0007000 0.0022815 -0.0022174
v -0.0007000 0.0015030 -0.0016970
v -0.0007000 0.0009826 -0.0009185
v -0.0007000 0.0008000 -0.0000000
v -0.0007000 0.0009826 0.0009185
v -0.0007000 0.0015030 0.0016970
v -0.0007000 0.0022815 0.0022174
v -0.0007000 0.0032000 0.0024000
v -0.0007000 0.0041185 0.0022174
v -0.0007000 0.0048970 0.0016970
v -0.0007000 0.0054174 0.0009185
v -0.0045000 0.0041185 0.0022174
v -0.0045000 0.0032000 0.0024000
v -0.0045000 0.0048970 0.0016970
v -0.0045000 0.0054174 0.0009185
v -0.0045000 0.0056000 -0.0000000
v -0.0045000 0.0054174 -0.0009185
v -0.0045000 0.0048970 -0.0016970
v -0.0045000 0.0041185 -0.0022174
v -0.0045000 0.0032000 -0.0024000
v -0.0045000 0.0022815 -0.0022174
v -0.0045000 0.0015030 -0.0016970
v -0.0045000 0.0009826 -0.0009185
v -0.0045000 0.0008000 -0.0000000
v -0.0045000 0.0009826 0.0009185
v -0.0045000 0.0015030 0.0016970
v -0.0045000 0.0022815 0.0022174
v -0.0045304 0.0033531 0.0023695
v -0.0045000 0.0036000 0.0023204
v -0.0046172 0.0034828 0.0023437
v -0.0047469 0.0035696 0.0023265
v -0.0049000 0.0036000 0.0023204
v -0.0071000 0.0036000 0.0023204
v -0.0045000 0.0041184 0.0022172
v -0.0071000 0.0041184 0.0022172
v -0.0071000 0.0048970 0.0016970
v -0.0045000 0.0054172 0.0009184
v -0.0071000 0.0054172 0.0009184
v -0.0045000 0.0055999 0.0000000
v -0.0071000 0.0055999 0.0000000
v -0.0045000 0.0054172 -0.0009184
v -0.0071000 0.0054172 -0.0009184
v -0.0071000 0.0048970 -0.0016970
v -0.0045000 0.0041184 -0.0022172
v -0.0071000 0.0041184 -0.0022172
v -0.0045000 0.0036000 -0.0023204
v -0.0071000 0.0036000 -0.0023204
v -0.0045304 0.0033531 -0.0023695
v -0.0046172 0.0034828 -0.0023437
v -0.0047469 0.0035696 -0.0023265
v -0.0049000 0.0036000 -0.0023204
v -0.0045304 0.0030469 -0.0023695
v -0.0045000 0.0028000 -0.0023204
v -0.0046172 0.0029172 -0.0023437
v -0.0047469 0.0028304 -0.0023265
v -0.0049000 0.0028000 -0.0023204
v -0.0071000 0.0028000 -0.0023204
v -0.0045000 0.0022816 -0.0022172
v -0.0071000 0.0022816 -0.0022172
v -0.0071000 0.0015030 -0.0016970
v -0.0045000 0.0009828 -0.0009184
v -0.0071000 0.0009828 -0.0009184
v -0.0045000 0.0008001 -0.0000000
v -0.0071000 0.0008001 -0.0000000
v -0.0045000 0.0009828 0.0009184
v -0.0071000 0.0009828 0.0009184
v -0.0071000 0.0015030 0.0016970
v -0.0045000 0.0022816 0.0022172
v -0.0071000 0.0022816 0.0022172
v -0.0045000 0.0028000 0.0023204
v -0.0071000 0.0028000 0.0023204
v -0.0045304 0.0030469 0.0023695
v -0.0046172 0.0029172 0.0023437
v -0.0047469 0.0028304 0.0023265
v -0.0049000 0.0028000 0.0023204
v -0.0071000 0.0028000 0.0025204
v -0.0071000 0.0022048 0.0024020
v -0.0071000 0.0013616 0.0018384
v -0.0071000 0.0015028 0.0016972
v -0.0071000 0.0007980 0.0009952
v -0.0071000 0.0006000 -0.0000000
v -0.0071000 0.0008000 -0.0000000
v -0.0071000 0.0007980 -0.0009952
v -0.0071000 0.0013616 -0.0018384
v -0.0071000 0.0015028 -0.0016972
v -0.0071000 0.0022048 -0.0024020
v -0.0071000 0.0028000 -0.0025204
v -0.0071000 0.0036000 -0.0025204
v -0.0071000 0.0041952 -0.0024020
v -0.0071000 0.0050384 -0.0018384
v -0.0071000 0.0048972 -0.0016972
v -0.0071000 0.0056020 -0.0009952
v -0.0071000 0.0058000 -0.0000000
v -0.0071000 0.0056000 -0.0000000
v -0.0071000 0.0056020 0.0009952
v -0.0071000 0.0050384 0.0018384
v -0.0071000 0.0048972 0.0016972
v -0.0071000 0.0041952 0.0024020
v -0.0071000 0.0036000 0.0025204
v -0.0079000 0.0041952 0.0024020
v -0.0079000 0.0036000 0.0025204
v -0.0071000 0.0050387 0.0018383
v -0.0079000 0.0050387 0.0018383
v -0.0071000 0.0056022 0.0009947
v -0.0079000 0.0056022 0.0009947
v -0.0071000 0.0058001 -0.0000002
v -0.0079000 0.0058001 -0.0000002
v -0.0079000 0.0056020 -0.0009952
v -0.0071000 0.0050383 -0.0018387
v -0.0079000 0.0050383 -0.0018387
v -0.0071000 0.0041947 -0.0024022
v -0.0079000 0.0041947 -0.0024022
v -0.0079000 0.0036000 -0.0025204
v -0.0079000 0.0041952 -0.0024020
v -0.0079000 0.0022048 -0.0024020
v -0.0079000 0.0028000 -0.0025204
v -0.0071000 0.0013613 -0.0018383
v -0.0079000 0.0013613 -0.0018383
v -0.0071000 0.0007978 -0.0009947
v -0.0079000 0.0007978 -0.0009947
v -0.0071000 0.0005999 0.0000002
v -0.0079000 0.0005999 0.0000002
v -0.0079000 0.0007980 0.0009952
v -0.0071000 0.0013617 0.0018387
v -0.0079000 0.0013617 0.0018387
v -0.0071000 0.0022053 0.0024022
v -0.0079000 0.0022053 0.0024022
v -0.0079000 0.0028000 0.0025204
v -0.0079000 0.0022048 0.0024020
v -0.0045304 0.0033531 0.0015695
v -0.0046172 0.0034828 0.0015437
v -0.0047469 0.0035696 0.0015265
v -0.0049000 0.0036000 0.0015204
v -0.0071000 0.0036000 0.0015204
v -0.0079000 0.0036000 0.0015204
v -0.0079000 0.0038124 0.0014784
v -0.0079000 0.0043312 0.0011312
v -0.0079000 0.0050384 0.0018384
v -0.0079000 0.0046784 0.0006124
v -0.0079000 0.0056020 0.0009952
v -0.0079000 0.0048000 -0.0000000
v -0.0079000 0.0058000 -0.0000000
v -0.0079000 0.0046784 -0.0006124
v -0.0079000 0.0043312 -0.0011312
v -0.0079000 0.0050384 -0.0018384
v -0.0079000 0.0038124 -0.0014784
v -0.0079000 0.0036000 -0.0015204
v -0.0071000 0.0036000 -0.0015204
v -0.0049000 0.0036000 -0.0015204
v -0.0045304 0.0033531 -0.0015695
v -0.0046172 0.0034828 -0.0015437
v -0.0047469 0.0035696 -0.0015265
v -0.0045304 0.0030469 -0.0015695
v -0.0046172 0.0029172 -0.0015437
v -0.0047469 0.0028304 -0.0015265
v -0.0049000 0.0028000 -0.0015204
v -0.0071000 0.0028000 -0.0015204
v -0.0079000 0.0028000 -0.0015204
v -0.0079000 0.0025876 -0.0014784
v -0.0079000 0.0020688 -0.0011312
v -0.0079000 0.0013616 -0.0018384
v -0.0079000 0.0017216 -0.0006124
v -0.0079000 0.0007980 -0.0009952
v -0.0079000 0.0016000 -0.0000000
v -0.0079000 0.0006000 -0.0000000
v -0.0079000 0.0017216 0.0006124
v -0.0079000 0.0020688 0.0011312
v -0.0079000 0.0013616 0.0018384
v -0.0079000 0.0025876 0.0014784
v -0.0079000 0.0028000 0.0015204
v -0.0071000 0.0028000 0.0015204
v -0.0049000 0.0028000 0.0015204
v -0.0045304 0.0030469 0.0015695
v -0.0046172 0.0029172 0.0015437
v -0.0047469 0.0028304 0.0015265
v -0.0045000 0.0036000 0.0015204
v -0.0045000 0.0038120 0.0014780
v -0.0079000 0.0038120 0.0014780
v -0.0079000 0.0038124 0.0014780
v -0.0079000 0.0043314 0.0011312
v -0.0045000 0.0043314 0.0011312
v -0.0045000 0.0038124 0.0014780
v -0.0079000 0.0046781 0.0006121
v -0.0045000 0.0046781 0.0006121
v -0.0079000 0.0047999 -0.0000002
v -0.0045000 0.0047999 -0.0000002
v -0.0079000 0.0046780 -0.0006124
v -0.0045000 0.0046780 -0.0006124
v -0.0079000 0.0043312 -0.0011314
v -0.0045000 0.0043312 -0.0011314
v -0.0079000 0.0038121 -0.0014781
v -0.0045000 0.0038121 -0.0014781
v -0.0045000 0.0036000 -0.0015204
v -0.0045000 0.0038120 -0.0014780
v -0.0079000 0.0038120 -0.0014780
v -0.0045000 0.0028000 -0.0015204
v -0.0045000 0.0025880 -0.0014780
v -0.0079000 0.0025880 -0.0014780
v -0.0079000 0.0025876 -0.0014780
v -0.0079000 0.0020686 -0.0011312
v -0.0045000 0.0020686 -0.0011312
v -0.0045000 0.0025876 -0.0014780
v -0.0079000 0.0017219 -0.0006121
v -0.0045000 0.0017219 -0.0006121
v -0.0079000 0.0016001 0.0000002
v -0.0045000 0.0016001 0.0000002
v -0.0079000 0.0017220 0.0006124
v -0.0045000 0.0017220 0.0006124
v -0.0079000 0.0020688 0.0011314
v -0.0045000 0.0020688 0.0011314
v -0.0079000 0.0025879 0.0014781
v -0.0045000 0.0025879 0.0014781
v -0.0045000 0.0028000 0.0015204
v -0.0045000 0.0025880 0.0014780
v -0.0079000 0.0025880 0.0014780
v 0.0001000 0.0032000 -0.0000000
v 0.0071000 0.0024000 -0.0022409
v 0.0071000 0.0024000 -0.0008000
v 0.0001000 0.0024000 -0.0008000
v 0.0001000 0.0024000 -0.0022409
v 0.0071000 0.0009591 -0.0008000
v 0.0001000 0.0009591 -0.0008000
v 0.0001000 0.0040000 -0.0008000
v 0.0071000 0.0040000 -0.0008000
v 0.0071000 0.0040000 -0.0022409
v 0.0001000 0.0040000 -0.0022409
v 0.0071000 0.0054409 -0.0008000
v 0.0001000 0.0054409 -0.0008000
v 0.0071000 0.0040000 0.0022409
v 0.0071000 0.0040000 0.0008000
v 0.0001000 0.0040000 0.0008000
v 0.0001000 0.0040000 0.0022409
v 0.0071000 0.0054409 0.0008000
v 0.0001000 0.0054409 0.0008000
v 0.0001000 0.0024000 0.0008000
v 0.0071000 0.0024000 0.0008000
v 0.0071000 0.0024000 0.0022409
v 0.0001000 0.0024000 0.0022409
v 0.0071000 0.0009591 0.0008000
v 0.0001000 0.0009591 0.0008000
v 0.0001000 0.0008000 -0.0000000
v 0.0071000 0.0008000 -0.0000000
v 0.0001000 0.0032000 -0.0024000
v 0.0071000 0.0032000 -0.0024000
v 0.0001000 0.0056000 -0.0000000
v 0.0071000 0.0056000 -0.0000000
v 0.0001000 0.0032000 0.0024000
v 0.0071000 0.0032000 0.0024000
v 0.0076657 0.0012191 -0.0006520
v 0.0079000 0.0020463 -0.0006528
v 0.0079000 0.0024568 -0.0007432
v 0.0079000 0.0019134 -0.0000000
v 0.0076657 0.0010894 -0.0000000
v 0.0079000 0.0032000 -0.0000000
v 0.0076657 0.0025480 -0.0019809
v 0.0079000 0.0025472 -0.0011537
v 0.0079000 0.0032000 -0.0012866
v 0.0076657 0.0032000 -0.0021106
v 0.0076657 0.0025480 0.0019809
v 0.0079000 0.0025472 0.0011537
v 0.0079000 0.0024568 0.0007432
v 0.0079000 0.0032000 0.0013124
v 0.0076657 0.0032000 0.0021106
v 0.0076657 0.0012191 0.0006520
v 0.0079000 0.0020463 0.0006528
v 0.0076657 0.0051809 0.0006520
v 0.0079000 0.0043537 0.0006528
v 0.0079000 0.0039432 0.0007432
v 0.0079000 0.0044866 -0.0000000
v 0.0076657 0.0053106 -0.0000000
v 0.0076657 0.0038520 0.0019809
v 0.0079000 0.0038528 0.0011537
v 0.0076657 0.0038520 -0.0019809
v 0.0079000 0.0038528 -0.0011537
v 0.0079000 0.0039432 -0.0007432
v 0.0076657 0.0051809 -0.0006520
v 0.0079000 0.0043537 -0.0006528
vn -1.0 0.0 0.0
vn 0.0 -0.3207056 -0.9471789
vn 0.0 -0.442928 -0.8965572
vn 0.0 -0.0661621 -0.9978089
vn 3.8e-06 0.0659334 -0.997824
vn 0.0 -0.6587584 -0.7523546
vn 0.0 -0.7523546 -0.6587584
vn 0.0 -0.8965572 -0.442928
vn 0.0 -0.9471789 -0.3207056
vn 0.0 -0.9978089 -0.0661621
vn 0.0 -0.9978089 0.0661621
vn 0.0 -0.9471789 0.3207056
vn 0.0 -0.8965572 0.442928
vn 0.0 -0.7523546 0.6587584
vn 0.0 -0.6587584 0.7523546
vn 0.0 -0.442928 0.8965572
vn 0.0 -0.3207056 0.9471789
vn 3.8e-06 -0.0659334 0.997824
vn 0.0 0.0661621 0.9978089
vn 0.0 0.3207056 0.9471789
vn 0.0 0.442928 0.8965572
vn 0.0 0.6587584 0.7523546
vn 0.0 0.7523546 0.6587584
vn 0.0 0.8965572 0.442928
vn 0.0 0.9471789 0.3207056
vn 0.0 0.9978089 0.0661621
vn 0.0 0.9978089 -0.0661621
vn 0.0 0.9471789 -0.3207056
vn 0.0 0.8965572 -0.442928
vn 0.0 0.7523546 -0.6587584
vn 0.0 0.6587584 -0.7523546
vn 0.0 0.442928 -0.8965572
vn 0.0 0.3207056 -0.9471789
vn 0.0 0.066135 0.9978107
vn 0.0 0.4430151 0.8965142
vn 0.0 0.3207139 0.9471761
vn 0.0 -0.066135 0.9978107
vn 0.0 0.7523142 0.6588045
vn 0.0 0.6588045 0.7523142
vn 0.0 0.9471761 0.3207139
vn 0.0 0.8965142 0.4430151
vn 0.0 0.9978107 -0.066135
vn 0.0 0.9978107 0.066135
vn 0.0 0.8965142 -0.4430151
vn 0.0 0.9471761 -0.3207139
vn 0.0 0.6588045 -0.7523142
vn 0.0 0.7523142 -0.6588045
vn 0.0 0.3207139 -0.9471761
vn 0.0 0.4430151 -0.8965142
vn 0.0 -0.066135 -0.9978107
vn 0.0 0.066135 -0.9978107
vn 0.0 -0.4430151 -0.8965142
vn 0.0 -0.3207139 -0.9471761
vn 0.0 -0.7523142 -0.6588045
vn 0.0 -0.6588045 -0.7523142
vn 0.0 -0.9471761 -0.3207139
vn 0.0 -0.8965142 -0.4430151
vn 0.0 -0.9978107 0.066135
vn 0.0 -0.9978107 -0.066135
vn 0.0 -0.8965142 0.4430151
vn 0.0 -0.9471761 0.3207139
vn 0.0 -0.6588045 0.7523142
vn 0.0 -0.7523142 0.6588045
vn 0.0 -0.3207139 0.9471761
vn 0.0 -0.4430151 0.8965142
vn 0.0 0.3207111 0.947177
vn 0.0 0.4430513 0.8964963
vn -2.5e-06 0.0659699 0.9978216
vn 0.0 -0.0661224 0.9978115
vn 0.0 0.6588276 0.752294
vn 0.0 0.7158117 0.6982934
vn 0.0 0.8964963 0.4430513
vn 0.0 0.947177 0.3207111
vn 0.0 0.9978115 0.0661224
vn 0.0 0.9978115 -0.0661224
vn 0.0 0.947177 -0.3207111
vn 0.0 0.8964963 -0.4430513
vn 0.0 0.752294 -0.6588276
vn 0.0 0.6982934 -0.7158117
vn 0.0 0.4430513 -0.8964963
vn 0.0 0.3207111 -0.947177
vn 0.0 0.0661224 -0.9978115
vn -2.5e-06 -0.0659699 -0.9978216
vn 0.0 -0.3207111 -0.947177
vn 0.0 -0.4430513 -0.8964963
vn 0.0 -0.6588276 -0.752294
vn 0.0 -0.7158117 -0.6982934
vn 0.0 -0.8964963 -0.4430513
vn 0.0 -0.947177 -0.3207111
vn 0.0 -0.9978115 -0.0661224
vn 0.0 -0.9978115 0.0661224
vn 0.0 -0.947177 0.3207111
vn 0.0 -0.8964963 0.4430513
vn 0.0 -0.752294 0.6588276
vn 0.0 -0.6982934 0.7158117
vn 0.0 -0.4430513 0.8964963
vn 0.0 -0.3207111 0.947177
vn -0.0003917 0.1950929 0.9807847
vn -5.8e-06 0.1952428 0.9807549
vn 9.37e-05 0.1948993 0.9808233
vn 0.0001725 0.1953897 0.9807257
vn 0.0 0.1967363 0.9804564
vn 0.0 0.1952429 0.9807549
vn 0.0 0.3715846 0.9283991
vn 0.0 0.482573 0.8758557
vn 0.0 0.7523478 0.6587661
vn 0.0 0.8965465 0.4429496
vn 0.0 0.9471733 0.3207221
vn 0.0 0.9978087 0.0661657
vn 0.0 0.9978087 -0.0661657
vn 0.0 0.9471733 -0.3207221
vn 0.0 0.8965465 -0.4429496
vn 0.0 0.6587661 -0.7523478
vn 0.0 0.4332054 -0.9012952
vn -5.8e-06 0.1952428 -0.9807549
vn 0.0 0.1952429 -0.9807549
vn -0.0003917 0.1950929 -0.9807847
vn 9.37e-05 0.1948993 -0.9808233
vn 0.0001725 0.1953897 -0.9807257
vn 0.0 0.1967363 -0.9804564
vn -0.0003917 -0.1950929 -0.9807847
vn -5.8e-06 -0.1952428 -0.9807549
vn 9.37e-05 -0.1948993 -0.9808233
vn 0.0001725 -0.1953897 -0.9807257
vn 0.0 -0.1967363 -0.9804564
vn 0.0 -0.1952429 -0.9807549
vn 0.0 -0.3715846 -0.9283991
vn 0.0 -0.482573 -0.8758557
vn 0.0 -0.7523478 -0.6587661
vn 0.0 -0.8965465 -0.4429496
vn 0.0 -0.9471733 -0.3207221
vn 0.0 -0.9978087 -0.0661657
vn 0.0 -0.9978087 0.0661657
vn 0.0 -0.9471733 0.3207221
vn 0.0 -0.8965465 0.4429496
vn 0.0 -0.6587661 0.7523478
vn 0.0 -0.4332054 0.9012952
vn -5.8e-06 -0.1952428 0.9807549
vn 0.0 -0.1952429 0.9807549
vn -0.0003917 -0.1950929 0.9807847
vn 9.37e-05 -0.1948993 0.9808233
vn 0.0001725 -0.1953897 0.9807257
vn 0.0 -0.1967363 0.9804564
vn 1.0 0.0 0.0
vn 0.0 0.4283995 0.9035894
vn 0.0 0.195102 0.980783
vn 0.0 0.6588477 0.7522764
vn 0.0 0.7524172 0.6586868
vn 0.0 0.8965762 0.4428895
vn 0.0 0.9471852 0.3206871
vn 0.0 0.9978136 0.0660908
vn 0.0 0.9978005 -0.0662883
vn 0.0 0.9471277 -0.3208568
vn 0.0 0.89649 -0.4430639
vn 0.0 0.7522764 -0.6588477
vn 0.0 0.6586868 -0.7524172
vn 0.0 0.5554506 -0.8315495
vn 0.0 0.195102 -0.980783
vn 0.0 -0.4283995 -0.9035894
vn 0.0 -0.195102 -0.980783
vn 0.0 -0.6588477 -0.7522764
vn 0.0 -0.7524172 -0.6586868
vn 0.0 -0.8965762 -0.4428895
vn 0.0 -0.9471852 -0.3206871
vn 0.0 -0.9978136 -0.0660908
vn 0.0 -0.9978005 0.0662883
vn 0.0 -0.9471277 0.3208568
vn 0.0 -0.89649 0.4430639
vn 0.0 -0.7522764 0.6588477
vn 0.0 -0.6586868 0.7524172
vn 0.0 -0.5554506 0.8315495
vn 0.0 -0.195102 0.980783
vn -0.8963744 -0.4432979 0.0
vn -0.9471733 -0.3207221 0.0
vn -0.6589659 -0.7521728 0.0
vn -0.7521728 -0.6589659 0.0
vn -0.3207221 -0.9471733 0.0
vn -0.4432979 -0.8963744 0.0
vn -0.012918 -0.9999166 0.0
vn 0.0 -1.0 0.0
vn -0.9471733 0.3207221 0.0
vn -0.8963744 0.4432979 0.0
vn -0.7521728 0.6589659 0.0
vn -0.6589659 0.7521728 0.0
vn -0.4432979 0.8963744 0.0
vn -0.3207221 0.9471733 0.0
vn -0.012918 0.9999166 0.0
vn 0.0 1.0 0.0
vn 1.03e-05 -0.1960336 -0.9805972
vn 0.0003917 -0.1950929 -0.9807847
vn -9.37e-05 -0.1948993 -0.9808233
vn -0.0001725 -0.1953897 -0.9807257
vn 0.0 -0.1961161 -0.9805807
vn 0.0 -0.5555872 -0.8314583
vn 0.0 -0.7524353 -0.6586661
vn 0.0 -0.6588392 -0.7522838
vn 0.0 -0.9471954 -0.3206569
vn 0.0 -0.8966003 -0.4428407
vn 0.0 -0.9978012 0.0662774
vn 0.0 -0.9978122 -0.0661116
vn 0.0 -0.8965036 0.4430364
vn 0.0 -0.9471291 0.3208526
vn 0.0 -0.6586661 0.7524353
vn 0.0 -0.7522838 0.6588392
vn 0.0 -0.5554024 0.8315817
vn 0.0 -0.1961161 0.9805807
vn 1.03e-05 -0.1960336 0.9805972
vn 0.0003917 -0.1950929 0.9807847
vn -9.37e-05 -0.1948993 0.9808233
vn -0.0001725 -0.1953897 0.9807257
vn 1.03e-05 0.1960336 0.9805972
vn 0.0003917 0.1950929 0.9807847
vn -9.37e-05 0.1948993 0.9808233
vn -0.0001725 0.1953897 0.9807257
vn 0.0 0.1961161 0.9805807
vn 0.0 0.5555872 0.8314583
vn 0.0 0.7524353 0.6586661
vn 0.0 0.6588392 0.7522838
vn 0.0 0.9471954 0.3206569
vn 0.0 0.8966003 0.4428407
vn 0.0 0.9978012 -0.0662774
vn 0.0 0.9978122 0.0661116
vn 0.0 0.8965036 -0.4430364
vn 0.0 0.9471291 -0.3208526
vn 0.0 0.6586661 -0.7524353
vn 0.0 0.7522838 -0.6588392
vn 0.0 0.5554024 -0.8315817
vn 0.0 0.1961161 -0.9805807
vn 1.03e-05 0.1960336 -0.9805972
vn 0.0003917 0.1950929 -0.9807847
vn -9.37e-05 0.1948993 -0.9808233
vn -0.0001725 0.1953897 -0.9807257
vn 0.0101603 -0.9999484 0.0
vn 0.0303149 -0.9995002 -0.0089687
vn 0.0 0.0 -1.0
vn 0.0303149 -0.0089687 -0.9995002
vn 0.0101603 0.0 -0.9999484
vn 0.0303149 0.9995002 -0.0089687
vn 0.0101603 0.9999484 0.0
vn 0.0303149 0.0089687 -0.9995002
vn 0.0303149 0.9995002 0.0089687
vn 0.0 0.0 1.0
vn 0.0303149 0.0089687 0.9995002
vn 0.0101603 0.0 0.9999484
vn 0.0303149 -0.9995002 0.0089687
vn 0.0303149 -0.0089687 0.9995002
vn 0.0 -0.9807923 -0.1950551
vn 0.0342657 -0.980216 -0.194942
vn 0.0382236 -0.9992692 0.0
vn 0.0382236 0.0 -0.9992692
vn 0.0342657 -0.194942 -0.980216
vn 0.0 -0.1950551 -0.9807923
vn 0.0 0.1950551 -0.9807923
vn 0.0342657 0.194942 -0.980216
vn 0.0382236 0.9992692 -0.0
vn 0.0342657 0.980216 -0.194942
vn 0.0 0.9807923 -0.1950551
vn 0.0 0.9807923 0.1950551
vn 0.0342657 0.980216 0.194942
vn 0.0 -0.1950551 0.9807923
vn 0.0342657 -0.194942 0.980216
vn 0.0382236 0.0 0.9992692
vn 0.0342657 0.194942 0.980216
vn 0.0 0.1950551 0.9807923
vn 0.0342657 -0.980216 0.194942
vn 0.0 -0.9807923 0.1950551
vn 0.2097792 -0.0220155 -0.9775009
vn 0.1377076 -0.0986883 -0.9855441
vn 0.084307 -0.2143003 -0.9731226
vn 0.8786409 -0.4682123 -0.0936343
vn 0.996055 -0.0869539 -0.0177025
vn 0.9875217 -0.1574831 -0.0
vn 0.700976 -0.7131848 -0.0
vn 0.2097792 -0.9775009 -0.0220155
vn 0.1377076 -0.9855441 -0.0986883
vn 0.084307 -0.9731226 -0.2143003
vn 0.9875217 0.0 -0.1574831
vn 0.996055 -0.0177025 -0.0869539
vn 0.8786409 -0.0936343 -0.4682123
vn 0.700976 0.0 -0.7131848
vn 0.2097792 -0.9775009 0.0220155
vn 0.1377076 -0.9855441 0.0986883
vn 0.084307 -0.9731226 0.2143003
vn 0.8755751 -0.0988034 0.4728701
vn 0.9960641 -0.0209382 0.0861277
vn 0.9875217 0.0 0.1574831
vn 0.6946303 0.0 0.7193669
vn 0.2097792 -0.0220155 0.9775009
vn 0.1377076 -0.0986883 0.9855441
vn 0.084307 -0.2143003 0.9731226
vn 0.996055 -0.0869539 0.0177025
vn 0.8786409 -0.4682123 0.0936343
vn 0.2097792 0.0220155 0.9775009
vn 0.1377076 0.0986883 0.9855441
vn 0.084307 0.2143003 0.9731226
vn 0.8786409 0.4682123 0.0936343
vn 0.996055 0.0869539 0.0177025
vn 0.9875217 0.1574831 0.0
vn 0.700976 0.7131848 0.0
vn 0.2097792 0.9775009 0.0220155
vn 0.1377076 0.9855441 0.0986883
vn 0.084307 0.9731226 0.2143003
vn 0.9960641 0.0209382 0.0861277
vn 0.8755751 0.0988034 0.4728701
vn 0.2097792 0.9775009 -0.0220155
vn 0.1377076 0.9855441 -0.0986883
vn 0.084307 0.9731226 -0.2143003
vn 0.8786409 0.0936343 -0.4682123
vn 0.996055 0.0177025 -0.0869539
vn 0.2097792 0.0220155 -0.9775009
vn 0.1377076 0.0986883 -0.9855441
vn 0.084307 0.2143003 -0.9731226
vn 0.996055 0.0869539 -0.0177025
vn 0.8786409 0.4682123 -0.0936343
f 1//1 2//1 3//1
f 1//1 3//1 4//1
f 1//1 4//1 5//1
f 1//1 5//1 6//1
f 1//1 6//1 7//1
f 1//1 7//1 8//1
f 1//1 8//1 9//1
f 1//1 9//1 10//1
f 1//1 10//1 11//1
f 1//1 11//1 12//1
f 1//1 12//1 13//1
f 1//1 13//1 14//1
f 1//1 14//1 15//1
f 1//1 15//1 16//1
f 1//1 16//1 17//1
f 1//1 17//1 2//1
f 18//2 3//3 2//4
f 19//5 18//2 2//4
f 20//6 4//7 3//3
f 18//2 20//6 3//3
f 21//8 5//9 4//7
f 20//6 21//8 4//7
f 22//10 6//11 5//9
f 21//8 22//10 5//9
f 23//12 7//13 6//11
f 22//10 23//12 6//11
f 24//14 8//15 7//13
f 23//12 24//14 7//13
f 25//16 9//17 8//15
f 24//14 25//16 8//15
f 26//18 10//19 9//17
f 25//16 26//18 9//17
f 27//20 11//21 10//19
f 26//18 27//20 10//19
f 28//22 12//23 11//21
f 27//20 28//22 11//21
f 29//24 13//25 12//23
f 28//22 29//24 12//23
f 30//26 14//27 13//25
f 29//24 30//26 13//25
f 31//28 15//29 14//27
f 30//26 31//28 14//27
f 32//30 16//31 15//29
f 31//28 32//30 15//29
f 33//32 17//33 16//31
f 32//30 33//32 16//31
f 19//5 2//4 17//33
f 33//32 19//5 17//33
f 34//34 35//35 36//36
f 34//34 36//36 37//37
f 35//35 38//38 39//39
f 35//35 39//39 36//36
f 38//38 40//40 41//41
f 38//38 41//41 39//39
f 40//40 42//42 43//43
f 40//40 43//43 41//41
f 42//42 44//44 45//45
f 42//42 45//45 43//43
f 44//44 46//46 47//47
f 44//44 47//47 45//45
f 46//46 48//48 49//49
f 46//46 49//49 47//47
f 48//48 50//50 51//51
f 48//48 51//51 49//49
f 50//50 52//52 53//53
f 50//50 53//53 51//51
f 52//52 54//54 55//55
f 52//52 55//55 53//53
f 54//54 56//56 57//57
f 54//54 57//57 55//55
f 56//56 58//58 59//59
f 56//56 59//59 57//57
f 58//58 60//60 61//61
f 58//58 61//61 59//59
f 60//60 62//62 63//63
f 60//60 63//63 61//61
f 62//62 64//64 65//65
f 62//62 65//65 63//63
f 64//64 34//34 37//37
f 64//64 37//37 65//65
f 45//1 66//1 67//1
f 45//1 67//1 43//1
f 47//1 68//1 66//1
f 47//1 66//1 45//1
f 49//1 69//1 68//1
f 49//1 68//1 47//1
f 51//1 70//1 69//1
f 51//1 69//1 49//1
f 53//1 71//1 70//1
f 53//1 70//1 51//1
f 55//1 72//1 71//1
f 55//1 71//1 53//1
f 57//1 73//1 72//1
f 57//1 72//1 55//1
f 59//1 74//1 73//1
f 59//1 73//1 57//1
f 61//1 75//1 74//1
f 61//1 74//1 59//1
f 63//1 76//1 75//1
f 63//1 75//1 61//1
f 65//1 77//1 76//1
f 65//1 76//1 63//1
f 37//1 78//1 77//1
f 37//1 77//1 65//1
f 36//1 79//1 78//1
f 36//1 78//1 37//1
f 39//1 80//1 79//1
f 39//1 79//1 36//1
f 41//1 81//1 80//1
f 41//1 80//1 39//1
f 43//1 67//1 81//1
f 43//1 81//1 41//1
f 79//66 82//67 83//68
f 78//69 79//66 83//68
f 80//70 84//71 82//67
f 79//66 80//70 82//67
f 81//72 85//73 84//71
f 80//70 81//72 84//71
f 67//74 86//75 85//73
f 81//72 67//74 85//73
f 66//76 87//77 86//75
f 67//74 66//76 86//75
f 68//78 88//79 87//77
f 66//76 68//78 87//77
f 69//80 89//81 88//79
f 68//78 69//80 88//79
f 70//82 90//83 89//81
f 69//80 70//82 89//81
f 71//84 91//85 90//83
f 70//82 71//84 90//83
f 72//86 92//87 91//85
f 71//84 72//86 91//85
f 73//88 93//89 92//87
f 72//86 73//88 92//87
f 74//90 94//91 93//89
f 73//88 74//90 93//89
f 75//92 95//93 94//91
f 74//90 75//92 94//91
f 76//94 96//95 95//93
f 75//92 76//94 95//93
f 77//96 97//97 96//95
f 76//94 77//96 96//95
f 78//69 83//68 97//97
f 77//96 78//69 97//97
f 98//98 83//68 99//99
f 100//100 98//98 99//99
f 101//101 100//100 99//99
f 102//102 101//101 99//99
f 103//103 99//99 104//104
f 105//105 103//103 104//104
f 84//71 106//106 105//105
f 84//71 105//105 104//104
f 107//107 108//108 106//106
f 107//107 106//106 84//71
f 109//109 110//110 108//108
f 109//109 108//108 107//107
f 111//111 112//112 110//110
f 111//111 110//110 109//109
f 88//79 113//113 112//112
f 88//79 112//112 111//111
f 114//114 115//114 113//113
f 114//114 113//113 88//79
f 114//114 116//115 117//116
f 114//114 117//116 115//114
f 116//115 90//83 118//117
f 116//115 118//117 119//118
f 116//115 119//118 120//119
f 116//115 120//119 121//120
f 122//121 90//83 123//122
f 124//123 122//121 123//122
f 125//124 124//123 123//122
f 126//125 125//124 123//122
f 127//126 123//122 128//127
f 129//128 127//126 128//127
f 92//87 130//129 129//128
f 92//87 129//128 128//127
f 131//130 132//131 130//129
f 131//130 130//129 92//87
f 133//132 134//133 132//131
f 133//132 132//131 131//130
f 135//134 136//135 134//133
f 135//134 134//133 133//132
f 96//95 137//136 136//135
f 96//95 136//135 135//134
f 138//137 139//137 137//136
f 138//137 137//136 96//95
f 138//137 140//138 141//139
f 138//137 141//139 139//137
f 140//138 83//68 142//140
f 140//138 142//140 143//141
f 140//138 143//141 144//142
f 140//138 144//142 145//143
f 146//144 147//144 139//144
f 146//144 139//144 141//144
f 147//144 148//144 149//144
f 147//144 149//144 139//144
f 148//144 150//144 136//144
f 148//144 136//144 149//144
f 150//144 151//144 152//144
f 150//144 152//144 136//144
f 151//144 153//144 132//144
f 151//144 132//144 152//144
f 153//144 154//144 155//144
f 153//144 155//144 132//144
f 154//144 156//144 129//144
f 154//144 129//144 155//144
f 156//144 157//144 127//144
f 156//144 127//144 129//144
f 158//144 159//144 115//144
f 158//144 115//144 117//144
f 159//144 160//144 161//144
f 159//144 161//144 115//144
f 160//144 162//144 112//144
f 160//144 112//144 161//144
f 162//144 163//144 164//144
f 162//144 164//144 112//144
f 163//144 165//144 108//144
f 163//144 108//144 164//144
f 165//144 166//144 167//144
f 165//144 167//144 108//144
f 166//144 168//144 105//144
f 166//144 105//144 167//144
f 168//144 169//144 103//144
f 168//144 103//144 105//144
f 170//145 171//146 169//146
f 168//145 170//145 169//146
f 172//147 173//148 170//145
f 172//147 170//145 168//145
f 174//149 175//150 173//148
f 174//149 173//148 172//147
f 176//151 177//152 175//150
f 176//151 175//150 174//149
f 162//153 178//154 177//152
f 162//153 177//152 176//151
f 179//155 180//156 178//154
f 179//155 178//154 162//153
f 181//157 182//157 180//156
f 181//157 180//156 179//155
f 158//158 183//158 184//158
f 158//158 184//158 159//158
f 185//159 186//160 157//160
f 156//159 185//159 157//160
f 187//161 188//162 185//159
f 187//161 185//159 156//159
f 189//163 190//164 188//162
f 189//163 188//162 187//161
f 191//165 192//166 190//164
f 191//165 190//164 189//163
f 150//167 193//168 192//166
f 150//167 192//166 191//165
f 194//169 195//170 193//168
f 194//169 193//168 150//167
f 196//171 197//171 195//170
f 196//171 195//170 194//169
f 146//172 198//172 199//172
f 146//172 199//172 147//172
f 83//1 98//173 200//174
f 83//1 200//174 19//1
f 98//173 100//175 201//176
f 98//173 201//176 200//174
f 100//175 101//177 202//178
f 100//175 202//178 201//176
f 101//177 102//179 203//179
f 101//177 203//179 202//178
f 103//180 204//180 203//179
f 103//180 203//179 102//179
f 205//180 204//180 169//180
f 205//180 169//180 171//180
f 206//1 205//1 171//1
f 206//1 171//1 170//1
f 207//1 206//1 170//1
f 207//1 170//1 208//1
f 209//1 207//1 208//1
f 209//1 208//1 210//1
f 211//1 209//1 210//1
f 211//1 210//1 212//1
f 213//1 211//1 212//1
f 213//1 212//1 178//1
f 214//1 213//1 178//1
f 214//1 178//1 215//1
f 216//1 214//1 215//1
f 216//1 215//1 184//1
f 217//1 216//1 184//1
f 217//1 184//1 183//1
f 183//180 158//180 218//180
f 183//180 218//180 217//180
f 218//180 117//180 121//179
f 218//180 121//179 219//179
f 26//1 220//173 118//174
f 26//1 118//174 90//1
f 220//173 221//175 119//176
f 220//173 119//176 118//174
f 221//175 222//177 120//178
f 221//175 120//178 119//176
f 222//177 219//179 121//179
f 222//177 121//179 120//178
f 122//181 223//182 26//1
f 90//1 122//181 26//1
f 124//183 224//184 223//182
f 122//181 124//183 223//182
f 125//185 225//186 224//184
f 124//183 125//185 224//184
f 126//187 226//187 225//186
f 125//185 126//187 225//186
f 126//187 127//188 227//188
f 226//187 126//187 227//188
f 227//188 157//188 186//188
f 228//188 227//188 186//188
f 229//1 228//1 186//1
f 229//1 186//1 185//1
f 230//1 229//1 185//1
f 230//1 185//1 231//1
f 232//1 230//1 231//1
f 232//1 231//1 233//1
f 234//1 232//1 233//1
f 234//1 233//1 235//1
f 236//1 234//1 235//1
f 236//1 235//1 193//1
f 237//1 236//1 193//1
f 237//1 193//1 238//1
f 239//1 237//1 238//1
f 239//1 238//1 199//1
f 240//1 239//1 199//1
f 240//1 199//1 198//1
f 146//188 241//188 240//188
f 198//188 146//188 240//188
f 242//187 241//188 141//188
f 145//187 242//187 141//188
f 243//181 142//182 83//1
f 19//1 243//181 83//1
f 244//183 143//184 142//182
f 243//181 244//183 142//182
f 245//185 144//186 143//184
f 244//183 245//185 143//184
f 242//187 145//187 144//186
f 245//185 242//187 144//186
f 246//189 19//5 200//190
f 246//189 200//190 201//191
f 246//189 201//191 202//192
f 246//189 202//192 203//125
f 247//193 246//189 205//193
f 247//193 205//193 248//193
f 249//194 250//195 251//196
f 252//194 249//194 251//196
f 250//195 253//197 254//198
f 251//196 250//195 254//198
f 253//197 255//199 256//200
f 254//198 253//197 256//200
f 255//199 257//201 258//202
f 256//200 255//199 258//202
f 257//201 259//203 260//204
f 258//202 257//201 260//204
f 259//203 261//205 262//205
f 260//204 259//203 262//205
f 217//206 263//207 264//206
f 265//206 217//206 264//206
f 220//208 26//18 263//207
f 221//209 220//208 263//207
f 222//210 221//209 263//207
f 219//143 222//210 263//207
f 266//211 26//18 223//212
f 266//211 223//212 224//213
f 266//211 224//213 225//214
f 266//211 225//214 226//102
f 267//215 266//211 228//215
f 267//215 228//215 268//215
f 269//216 270//217 271//218
f 272//216 269//216 271//218
f 270//217 273//219 274//220
f 271//218 270//217 274//220
f 273//219 275//221 276//222
f 274//220 273//219 276//222
f 275//221 277//223 278//224
f 276//222 275//221 278//224
f 277//223 279//225 280//226
f 278//224 277//223 280//226
f 279//225 281//227 282//227
f 280//226 279//225 282//227
f 240//228 283//229 284//228
f 285//228 240//228 284//228
f 243//230 19//5 283//229
f 244//231 243//230 283//229
f 245//232 244//231 283//229
f 242//120 245//232 283//229
f 286//144 58//144 56//144
f 286//144 56//144 54//144
f 286//144 54//144 52//144
f 286//144 52//144 50//144
f 286//144 50//144 48//144
f 286//144 48//144 46//144
f 286//144 46//144 44//144
f 286//144 44//144 42//144
f 286//144 42//144 40//144
f 286//144 40//144 38//144
f 286//144 38//144 35//144
f 286//144 35//144 34//144
f 286//144 34//144 64//144
f 286//144 64//144 62//144
f 286//144 62//144 60//144
f 286//144 60//144 58//144
f 287//233 288//234 289//180
f 290//180 287//233 289//180
f 289//235 288//236 291//237
f 292//235 289//235 291//237
f 293//188 294//238 295//239
f 293//188 295//239 296//188
f 297//237 294//240 293//235
f 297//237 293//235 298//235
f 299//239 300//241 301//188
f 302//188 299//239 301//188
f 301//242 300//243 303//244
f 304//242 301//242 303//244
f 305//180 306//245 307//233
f 305//180 307//233 308//180
f 309//244 306//246 305//242
f 309//244 305//242 310//242
f 311//180 292//247 291//248
f 312//249 311//180 291//248
f 313//235 314//250 287//251
f 290//252 313//235 287//251
f 313//235 296//253 295//254
f 314//250 313//235 295//254
f 315//188 316//255 297//256
f 298//257 315//188 297//256
f 315//188 304//258 303//259
f 316//255 315//188 303//259
f 317//242 308//260 307//261
f 318//262 317//242 307//261
f 317//242 318//262 299//263
f 302//264 317//242 299//263
f 311//180 312//249 309//265
f 310//266 311//180 309//265
f 319//267 291//237 288//236
f 319//267 288//236 320//268
f 320//268 288//236 321//269
f 319//270 320//271 322//272
f 319//270 322//272 323//273
f 291//248 319//270 323//273
f 291//248 323//273 312//249
f 324//144 322//272 320//271
f 324//144 320//271 321//144
f 287//233 325//274 288//234
f 288//234 325//274 326//275
f 288//234 326//275 321//276
f 327//277 326//278 325//279
f 327//277 325//279 328//280
f 328//280 325//279 287//251
f 328//280 287//251 314//250
f 326//278 327//277 324//144
f 326//278 324//144 321//144
f 329//281 307//233 306//245
f 329//281 306//245 330//282
f 330//282 306//245 331//283
f 329//284 330//285 332//286
f 329//284 332//286 333//287
f 307//261 329//284 333//287
f 307//261 333//287 318//262
f 324//144 332//286 330//285
f 324//144 330//285 331//144
f 309//244 334//288 306//246
f 306//246 334//288 335//289
f 306//246 335//289 331//290
f 322//272 335//291 334//292
f 322//272 334//292 323//273
f 323//273 334//292 309//265
f 323//273 309//265 312//249
f 335//291 322//272 324//144
f 335//291 324//144 331//144
f 336//293 303//244 300//243
f 336//293 300//243 337//294
f 337//294 300//243 338//295
f 336//296 337//297 339//298
f 336//296 339//298 340//299
f 303//259 336//296 340//299
f 303//259 340//299 316//255
f 324//144 339//298 337//297
f 324//144 337//297 338//144
f 299//239 341//300 300//241
f 300//241 341//300 342//301
f 300//241 342//301 338//302
f 332//286 342//303 341//304
f 332//286 341//304 333//287
f 333//287 341//304 299//263
f 333//287 299//263 318//262
f 342//303 332//286 324//144
f 342//303 324//144 338//144
f 343//305 295//239 294//238
f 343//305 294//238 344//306
f 344//306 294//238 345//307
f 343//308 344//309 327//277
f 343//308 327//277 328//280
f 295//254 343//308 328//280
f 295//254 328//280 314//250
f 324//144 327//277 344//309
f 324//144 344//309 345//144
f 297//237 346//310 294//240
f 294//240 346//310 347//311
f 294//240 347//311 345//312
f 339//298 347//313 346//314
f 339//298 346//314 340//299
f 340//299 346//314 297//256
f 340//299 297//256 316//255
f 347//313 339//298 324//144
f 347//313 324//144 345//144
