# Botball Lab: metres, +Y up, centred XZ, base Y=0
s off
v 0.0000000 0.0072000 -0.0040000
v 0.0013777 0.0069260 -0.0040000
v 0.0012246 0.0065565 -0.0040000
v 0.0000000 0.0068000 -0.0040000
v 0.0025456 0.0061456 -0.0040000
v 0.0022627 0.0058627 -0.0040000
v 0.0033260 0.0049777 -0.0040000
v 0.0029565 0.0048246 -0.0040000
v 0.0036000 0.0036000 -0.0040000
v 0.0032000 0.0036000 -0.0040000
v 0.0033260 0.0022223 -0.0040000
v 0.0029565 0.0023754 -0.0040000
v 0.0025456 0.0010544 -0.0040000
v 0.0022627 0.0013373 -0.0040000
v 0.0013777 0.0002740 -0.0040000
v 0.0012246 0.0006435 -0.0040000
v 0.0000000 0.0000000 -0.0040000
v 0.0000000 0.0004000 -0.0040000
v -0.0013777 0.0002740 -0.0040000
v -0.0012246 0.0006435 -0.0040000
v -0.0025456 0.0010544 -0.0040000
v -0.0022627 0.0013373 -0.0040000
v -0.0033260 0.0022223 -0.0040000
v -0.0029565 0.0023754 -0.0040000
v -0.0036000 0.0036000 -0.0040000
v -0.0032000 0.0036000 -0.0040000
v -0.0033260 0.0049777 -0.0040000
v -0.0029565 0.0048246 -0.0040000
v -0.0025456 0.0061456 -0.0040000
v -0.0022627 0.0058627 -0.0040000
v -0.0013777 0.0069260 -0.0040000
v -0.0012246 0.0065565 -0.0040000
v 0.0046740 0.0049777 -0.0008000
v 0.0046740 0.0049777 -0.0040000
v 0.0044000 0.0036000 -0.0040000
v 0.0044000 0.0036000 -0.0008000
v 0.0040000 0.0061456 -0.0008000
v 0.0040000 0.0061456 -0.0040000
v 0.0046128 0.0061456 -0.0040000
v 0.0046128 0.0061456 -0.0008000
v 0.0048531 0.0060818 -0.0040000
v 0.0048531 0.0060818 -0.0008000
v 0.0049920 0.0058721 -0.0040000
v 0.0049920 0.0058721 -0.0008000
v 0.0049481 0.0056393 -0.0040000
v 0.0049481 0.0056393 -0.0008000
v 0.0046739 0.0049777 -0.0040000
v 0.0054544 0.0061456 -0.0040000
v 0.0046740 0.0022223 -0.0040000
v 0.0046740 0.0022223 -0.0008000
v 0.0046128 0.0010544 -0.0040000
v 0.0040000 0.0010544 -0.0040000
v 0.0040000 0.0010544 -0.0008000
v 0.0046128 0.0010544 -0.0008000
v 0.0049481 0.0015607 -0.0008000
v 0.0048531 0.0011182 -0.0040000
v 0.0048531 0.0011182 -0.0008000
v 0.0049920 0.0013279 -0.0040000
v 0.0049920 0.0013279 -0.0008000
v 0.0049481 0.0015607 -0.0040000
v 0.0054544 0.0010544 -0.0040000
v 0.0046739 0.0022223 -0.0040000
v 0.0044000 0.0072000 -0.0040000
v 0.0080000 0.0072000 -0.0040000
v 0.0066223 0.0069260 -0.0040000
v 0.0066223 0.0002740 -0.0040000
v 0.0080000 0.0000000 -0.0040000
v 0.0044000 0.0000000 -0.0040000
v 0.0040000 0.0072000 -0.0040000
v 0.0040000 0.0000000 -0.0040000
v 0.0033260 0.0049777 -0.0008000
v 0.0036000 0.0036000 -0.0008000
v 0.0033872 0.0061456 -0.0040000
v 0.0033872 0.0061456 -0.0008000
v 0.0031469 0.0060818 -0.0040000
v 0.0031469 0.0060818 -0.0008000
v 0.0030080 0.0058721 -0.0040000
v 0.0030080 0.0058721 -0.0008000
v 0.0030519 0.0056393 -0.0040000
v 0.0030519 0.0056393 -0.0008000
v 0.0033261 0.0049777 -0.0040000
v 0.0033260 0.0022223 -0.0008000
v 0.0033872 0.0010544 -0.0040000
v 0.0033872 0.0010544 -0.0008000
v 0.0030519 0.0015607 -0.0008000
v 0.0031469 0.0011182 -0.0040000
v 0.0031469 0.0011182 -0.0008000
v 0.0030080 0.0013279 -0.0040000
v 0.0030080 0.0013279 -0.0008000
v 0.0030519 0.0015607 -0.0040000
v 0.0033261 0.0022223 -0.0040000
v 0.0036000 0.0072000 -0.0040000
v 0.0036000 0.0000000 -0.0040000
v 0.0029565 0.0023754 -0.0032000
v 0.0022174 0.0026815 -0.0032000
v 0.0024000 0.0036000 -0.0032000
v 0.0032000 0.0036000 -0.0032000
v 0.0022627 0.0013373 -0.0032000
v 0.0016970 0.0019030 -0.0032000
v 0.0012246 0.0006435 -0.0032000
v 0.0009185 0.0013826 -0.0032000
v 0.0000000 0.0004000 -0.0032000
v 0.0000000 0.0012000 -0.0032000
v -0.0012246 0.0006435 -0.0032000
v -0.0009185 0.0013826 -0.0032000
v -0.0022627 0.0013373 -0.0032000
v -0.0016970 0.0019030 -0.0032000
v -0.0029565 0.0023754 -0.0032000
v -0.0022174 0.0026815 -0.0032000
v -0.0032000 0.0036000 -0.0032000
v -0.0024000 0.0036000 -0.0032000
v -0.0029565 0.0048246 -0.0032000
v -0.0022174 0.0045185 -0.0032000
v -0.0022627 0.0058627 -0.0032000
v -0.0016970 0.0052970 -0.0032000
v -0.0012246 0.0065565 -0.0032000
v -0.0009185 0.0058174 -0.0032000
v 0.0000000 0.0068000 -0.0032000
v 0.0000000 0.0060000 -0.0032000
v 0.0012246 0.0065565 -0.0032000
v 0.0009185 0.0058174 -0.0032000
v 0.0022627 0.0058627 -0.0032000
v 0.0016970 0.0052970 -0.0032000
v 0.0029565 0.0048246 -0.0032000
v 0.0022174 0.0045185 -0.0032000
v 0.0009185 0.0058174 0.0032000
v 0.0000000 0.0060000 0.0032000
v 0.0016970 0.0052970 0.0032000
v 0.0022174 0.0045185 0.0032000
v 0.0024000 0.0036000 0.0032000
v 0.0022174 0.0026815 0.0032000
v 0.0016970 0.0019030 0.0032000
v 0.0009185 0.0013826 0.0032000
v 0.0000000 0.0012000 0.0032000
v -0.0009185 0.0013826 0.0032000
v -0.0016970 0.0019030 0.0032000
v -0.0022174 0.0026815 0.0032000
v -0.0024000 0.0036000 0.0032000
v -0.0022174 0.0045185 0.0032000
v -0.0016970 0.0052970 0.0032000
v -0.0009185 0.0058174 0.0032000
v 0.0029565 0.0023754 0.0032000
v 0.0032000 0.0036000 0.0032000
v 0.0022627 0.0013373 0.0032000
v 0.0012246 0.0006435 0.0032000
v 0.0000000 0.0004000 0.0032000
v -0.0012246 0.0006435 0.0032000
v -0.0022627 0.0013373 0.0032000
v -0.0029565 0.0023754 0.0032000
v -0.0032000 0.0036000 0.0032000
v -0.0029565 0.0048246 0.0032000
v -0.0022627 0.0058627 0.0032000
v -0.0012246 0.0065565 0.0032000
v 0.0000000 0.0068000 0.0032000
v 0.0012246 0.0065565 0.0032000
v 0.0022627 0.0058627 0.0032000
v 0.0029565 0.0048246 0.0032000
v 0.0012246 0.0065565 0.0040000
v 0.0000000 0.0068000 0.0040000
v 0.0022627 0.0058627 0.0040000
v 0.0029565 0.0048246 0.0040000
v 0.0032000 0.0036000 0.0040000
v 0.0029565 0.0023754 0.0040000
v 0.0022627 0.0013373 0.0040000
v 0.0012246 0.0006435 0.0040000
v 0.0000000 0.0004000 0.0040000
v -0.0012246 0.0006435 0.0040000
v -0.0022627 0.0013373 0.0040000
v -0.0029565 0.0023754 0.0040000
v -0.0032000 0.0036000 0.0040000
v -0.0029565 0.0048246 0.0040000
v -0.0022627 0.0058627 0.0040000
v -0.0012246 0.0065565 0.0040000
v 0.0044000 0.0036000 0.0040000
v 0.0046740 0.0049777 0.0040000
v 0.0046740 0.0049777 0.0008000
v 0.0044000 0.0036000 0.0008000
v 0.0046128 0.0061456 0.0040000
v 0.0040000 0.0061456 0.0040000
v 0.0040000 0.0061456 0.0008000
v 0.0046128 0.0061456 0.0008000
v 0.0048531 0.0060818 0.0040000
v 0.0048531 0.0060818 0.0008000
v 0.0049920 0.0058721 0.0040000
v 0.0049920 0.0058721 0.0008000
v 0.0049481 0.0056393 0.0040000
v 0.0049481 0.0056393 0.0008000
v 0.0054544 0.0061456 0.0040000
v 0.0046739 0.0049777 0.0040000
v 0.0046740 0.0022223 0.0008000
v 0.0046740 0.0022223 0.0040000
v 0.0040000 0.0010544 0.0008000
v 0.0040000 0.0010544 0.0040000
v 0.0046128 0.0010544 0.0040000
v 0.0046128 0.0010544 0.0008000
v 0.0049481 0.0015607 0.0008000
v 0.0048531 0.0011182 0.0040000
v 0.0048531 0.0011182 0.0008000
v 0.0049920 0.0013279 0.0040000
v 0.0049920 0.0013279 0.0008000
v 0.0049481 0.0015607 0.0040000
v 0.0046739 0.0022223 0.0040000
v 0.0054544 0.0010544 0.0040000
v 0.0066223 0.0069260 0.0040000
v 0.0080000 0.0072000 0.0040000
v 0.0044000 0.0072000 0.0040000
v 0.0044000 0.0000000 0.0040000
v 0.0080000 0.0000000 0.0040000
v 0.0066223 0.0002740 0.0040000
v 0.0040000 0.0072000 0.0040000
v 0.0040000 0.0000000 0.0040000
v 0.0033260 0.0049777 0.0008000
v 0.0033260 0.0049777 0.0040000
v 0.0036000 0.0036000 0.0040000
v 0.0036000 0.0036000 0.0008000
v 0.0033872 0.0061456 0.0040000
v 0.0033872 0.0061456 0.0008000
v 0.0031469 0.0060818 0.0040000
v 0.0031469 0.0060818 0.0008000
v 0.0030080 0.0058721 0.0040000
v 0.0030080 0.0058721 0.0008000
v 0.0030519 0.0056393 0.0040000
v 0.0030519 0.0056393 0.0008000
v 0.0033261 0.0049777 0.0040000
v 0.0025456 0.0061456 0.0040000
v 0.0033260 0.0022223 0.0040000
v 0.0033260 0.0022223 0.0008000
v 0.0033872 0.0010544 0.0040000
v 0.0033872 0.0010544 0.0008000
v 0.0030519 0.0015607 0.0008000
v 0.0031469 0.0011182 0.0040000
v 0.0031469 0.0011182 0.0008000
v 0.0030080 0.0013279 0.0040000
v 0.0030080 0.0013279 0.0008000
v 0.0030519 0.0015607 0.0040000
v 0.0025456 0.0010544 0.0040000
v 0.0033261 0.0022223 0.0040000
v 0.0036000 0.0072000 0.0040000
v 0.0000000 0.0072000 0.0040000
v 0.0013777 0.0069260 0.0040000
v 0.0013777 0.0002740 0.0040000
v 0.0000000 0.0000000 0.0040000
v 0.0036000 0.0000000 0.0040000
v -0.0013777 0.0002740 0.0040000
v -0.0025456 0.0010544 0.0040000
v -0.0033260 0.0022223 0.0040000
v -0.0036000 0.0036000 0.0040000
v -0.0033260 0.0049777 0.0040000
v -0.0025456 0.0061456 0.0040000
v -0.0013777 0.0069260 0.0040000
v -0.0080000 0.0072000 -0.0040000
v -0.0066223 0.0069260 -0.0040000
v -0.0067754 0.0065565 -0.0040000
v -0.0080000 0.0068000 -0.0040000
v -0.0054544 0.0061456 -0.0040000
v -0.0057373 0.0058627 -0.0040000
v -0.0046740 0.0049777 -0.0040000
v -0.0050435 0.0048246 -0.0040000
v -0.0044000 0.0036000 -0.0040000
v -0.0048000 0.0036000 -0.0040000
v -0.0046740 0.0022223 -0.0040000
v -0.0050435 0.0023754 -0.0040000
v -0.0054544 0.0010544 -0.0040000
v -0.0057373 0.0013373 -0.0040000
v -0.0066223 0.0002740 -0.0040000
v -0.0067754 0.0006435 -0.0040000
v -0.0080000 0.0000000 -0.0040000
v -0.0080000 0.0004000 -0.0040000
v -0.0093777 0.0002740 -0.0040000
v -0.0092246 0.0006435 -0.0040000
v -0.0105456 0.0010544 -0.0040000
v -0.0102627 0.0013373 -0.0040000
v -0.0113260 0.0022223 -0.0040000
v -0.0109565 0.0023754 -0.0040000
v -0.0116000 0.0036000 -0.0040000
v -0.0112000 0.0036000 -0.0040000
v -0.0113260 0.0049777 -0.0040000
v -0.0109565 0.0048246 -0.0040000
v -0.0105456 0.0061456 -0.0040000
v -0.0102627 0.0058627 -0.0040000
v -0.0093777 0.0069260 -0.0040000
v -0.0092246 0.0065565 -0.0040000
v -0.0033260 0.0049777 -0.0008000
v -0.0036000 0.0036000 -0.0008000
v -0.0040000 0.0061456 -0.0008000
v -0.0040000 0.0061456 -0.0040000
v -0.0033872 0.0061456 -0.0040000
v -0.0033872 0.0061456 -0.0008000
v -0.0031469 0.0060818 -0.0040000
v -0.0031469 0.0060818 -0.0008000
v -0.0030080 0.0058721 -0.0040000
v -0.0030080 0.0058721 -0.0008000
v -0.0030519 0.0056393 -0.0040000
v -0.0030519 0.0056393 -0.0008000
v -0.0033261 0.0049777 -0.0040000
v -0.0033260 0.0022223 -0.0008000
v -0.0033872 0.0010544 -0.0040000
v -0.0040000 0.0010544 -0.0040000
v -0.0040000 0.0010544 -0.0008000
v -0.0033872 0.0010544 -0.0008000
v -0.0030519 0.0015607 -0.0008000
v -0.0031469 0.0011182 -0.0040000
v -0.0031469 0.0011182 -0.0008000
v -0.0030080 0.0013279 -0.0040000
v -0.0030080 0.0013279 -0.0008000
v -0.0030519 0.0015607 -0.0040000
v -0.0033261 0.0022223 -0.0040000
v -0.0036000 0.0072000 -0.0040000
v -0.0036000 0.0000000 -0.0040000
v -0.0040000 0.0072000 -0.0040000
v -0.0040000 0.0000000 -0.0040000
v -0.0046740 0.0049777 -0.0008000
v -0.0044000 0.0036000 -0.0008000
v -0.0046128 0.0061456 -0.0040000
v -0.0046128 0.0061456 -0.0008000
v -0.0048531 0.0060818 -0.0040000
v -0.0048531 0.0060818 -0.0008000
v -0.0049920 0.0058721 -0.0040000
v -0.0049920 0.0058721 -0.0008000
v -0.0049481 0.0056393 -0.0040000
v -0.0049481 0.0056393 -0.0008000
v -0.0046739 0.0049777 -0.0040000
v -0.0046740 0.0022223 -0.0008000
v -0.0046128 0.0010544 -0.0040000
v -0.0046128 0.0010544 -0.0008000
v -0.0049481 0.0015607 -0.0008000
v -0.0048531 0.0011182 -0.0040000
v -0.0048531 0.0011182 -0.0008000
v -0.0049920 0.0013279 -0.0040000
v -0.0049920 0.0013279 -0.0008000
v -0.0049481 0.0015607 -0.0040000
v -0.0046739 0.0022223 -0.0040000
v -0.0044000 0.0072000 -0.0040000
v -0.0044000 0.0000000 -0.0040000
v -0.0050435 0.0023754 -0.0032000
v -0.0057826 0.0026815 -0.0032000
v -0.0056000 0.0036000 -0.0032000
v -0.0048000 0.0036000 -0.0032000
v -0.0057373 0.0013373 -0.0032000
v -0.0063030 0.0019030 -0.0032000
v -0.0067754 0.0006435 -0.0032000
v -0.0070815 0.0013826 -0.0032000
v -0.0080000 0.0004000 -0.0032000
v -0.0080000 0.0012000 -0.0032000
v -0.0092246 0.0006435 -0.0032000
v -0.0089185 0.0013826 -0.0032000
v -0.0102627 0.0013373 -0.0032000
v -0.0096970 0.0019030 -0.0032000
v -0.0109565 0.0023754 -0.0032000
v -0.0102174 0.0026815 -0.0032000
v -0.0112000 0.0036000 -0.0032000
v -0.0104000 0.0036000 -0.0032000
v -0.0109565 0.0048246 -0.0032000
v -0.0102174 0.0045185 -0.0032000
v -0.0102627 0.0058627 -0.0032000
v -0.0096970 0.0052970 -0.0032000
v -0.0092246 0.0065565 -0.0032000
v -0.0089185 0.0058174 -0.0032000
v -0.0080000 0.0068000 -0.0032000
v -0.0080000 0.0060000 -0.0032000
v -0.0067754 0.0065565 -0.0032000
v -0.0070815 0.0058174 -0.0032000
v -0.0057373 0.0058627 -0.0032000
v -0.0063030 0.0052970 -0.0032000
v -0.0050435 0.0048246 -0.0032000
v -0.0057826 0.0045185 -0.0032000
v -0.0070815 0.0058174 0.0032000
v -0.0080000 0.0060000 0.0032000
v -0.0063030 0.0052970 0.0032000
v -0.0057826 0.0045185 0.0032000
v -0.0056000 0.0036000 0.0032000
v -0.0057826 0.0026815 0.0032000
v -0.0063030 0.0019030 0.0032000
v -0.0070815 0.0013826 0.0032000
v -0.0080000 0.0012000 0.0032000
v -0.0089185 0.0013826 0.0032000
v -0.0096970 0.0019030 0.0032000
v -0.0102174 0.0026815 0.0032000
v -0.0104000 0.0036000 0.0032000
v -0.0102174 0.0045185 0.0032000
v -0.0096970 0.0052970 0.0032000
v -0.0089185 0.0058174 0.0032000
v -0.0050435 0.0023754 0.0032000
v -0.0048000 0.0036000 0.0032000
v -0.0057373 0.0013373 0.0032000
v -0.0067754 0.0006435 0.0032000
v -0.0080000 0.0004000 0.0032000
v -0.0092246 0.0006435 0.0032000
v -0.0102627 0.0013373 0.0032000
v -0.0109565 0.0023754 0.0032000
v -0.0112000 0.0036000 0.0032000
v -0.0109565 0.0048246 0.0032000
v -0.0102627 0.0058627 0.0032000
v -0.0092246 0.0065565 0.0032000
v -0.0080000 0.0068000 0.0032000
v -0.0067754 0.0065565 0.0032000
v -0.0057373 0.0058627 0.0032000
v -0.0050435 0.0048246 0.0032000
v -0.0067754 0.0065565 0.0040000
v -0.0080000 0.0068000 0.0040000
v -0.0057373 0.0058627 0.0040000
v -0.0050435 0.0048246 0.0040000
v -0.0048000 0.0036000 0.0040000
v -0.0050435 0.0023754 0.0040000
v -0.0057373 0.0013373 0.0040000
v -0.0067754 0.0006435 0.0040000
v -0.0080000 0.0004000 0.0040000
v -0.0092246 0.0006435 0.0040000
v -0.0102627 0.0013373 0.0040000
v -0.0109565 0.0023754 0.0040000
v -0.0112000 0.0036000 0.0040000
v -0.0109565 0.0048246 0.0040000
v -0.0102627 0.0058627 0.0040000
v -0.0092246 0.0065565 0.0040000
v -0.0033260 0.0049777 0.0008000
v -0.0036000 0.0036000 0.0008000
v -0.0033872 0.0061456 0.0040000
v -0.0040000 0.0061456 0.0040000
v -0.0040000 0.0061456 0.0008000
v -0.0033872 0.0061456 0.0008000
v -0.0031469 0.0060818 0.0040000
v -0.0031469 0.0060818 0.0008000
v -0.0030080 0.0058721 0.0040000
v -0.0030080 0.0058721 0.0008000
v -0.0030519 0.0056393 0.0040000
v -0.0030519 0.0056393 0.0008000
v -0.0033261 0.0049777 0.0040000
v -0.0033260 0.0022223 0.0008000
v -0.0040000 0.0010544 0.0008000
v -0.0040000 0.0010544 0.0040000
v -0.0033872 0.0010544 0.0040000
v -0.0033872 0.0010544 0.0008000
v -0.0030519 0.0015607 0.0008000
v -0.0031469 0.0011182 0.0040000
v -0.0031469 0.0011182 0.0008000
v -0.0030080 0.0013279 0.0040000
v -0.0030080 0.0013279 0.0008000
v -0.0030519 0.0015607 0.0040000
v -0.0033261 0.0022223 0.0040000
v -0.0036000 0.0072000 0.0040000
v -0.0036000 0.0000000 0.0040000
v -0.0040000 0.0072000 0.0040000
v -0.0040000 0.0000000 0.0040000
v -0.0046740 0.0049777 0.0008000
v -0.0046740 0.0049777 0.0040000
v -0.0044000 0.0036000 0.0040000
v -0.0044000 0.0036000 0.0008000
v -0.0046128 0.0061456 0.0040000
v -0.0046128 0.0061456 0.0008000
v -0.0048531 0.0060818 0.0040000
v -0.0048531 0.0060818 0.0008000
v -0.0049920 0.0058721 0.0040000
v -0.0049920 0.0058721 0.0008000
v -0.0049481 0.0056393 0.0040000
v -0.0049481 0.0056393 0.0008000
v -0.0046739 0.0049777 0.0040000
v -0.0054544 0.0061456 0.0040000
v -0.0046740 0.0022223 0.0040000
v -0.0046740 0.0022223 0.0008000
v -0.0046128 0.0010544 0.0040000
v -0.0046128 0.0010544 0.0008000
v -0.0049481 0.0015607 0.0008000
v -0.0048531 0.0011182 0.0040000
v -0.0048531 0.0011182 0.0008000
v -0.0049920 0.0013279 0.0040000
v -0.0049920 0.0013279 0.0008000
v -0.0049481 0.0015607 0.0040000
v -0.0054544 0.0010544 0.0040000
v -0.0046739 0.0022223 0.0040000
v -0.0044000 0.0072000 0.0040000
v -0.0080000 0.0072000 0.0040000
v -0.0066223 0.0069260 0.0040000
v -0.0066223 0.0002740 0.0040000
v -0.0080000 0.0000000 0.0040000
v -0.0044000 0.0000000 0.0040000
v -0.0093777 0.0002740 0.0040000
v -0.0105456 0.0010544 0.0040000
v -0.0113260 0.0022223 0.0040000
v -0.0116000 0.0036000 0.0040000
v -0.0113260 0.0049777 0.0040000
v -0.0105456 0.0061456 0.0040000
v -0.0093777 0.0069260 0.0040000
v 0.0104000 0.0036000 0.0032000
v 0.0102174 0.0026815 0.0032000
v 0.0109565 0.0023754 0.0032000
v 0.0112000 0.0036000 0.0032000
v 0.0096970 0.0019030 0.0032000
v 0.0102627 0.0013373 0.0032000
v 0.0089185 0.0013826 0.0032000
v 0.0092246 0.0006435 0.0032000
v 0.0080000 0.0012000 0.0032000
v 0.0080000 0.0004000 0.0032000
v 0.0070815 0.0013826 0.0032000
v 0.0067754 0.0006435 0.0032000
v 0.0063030 0.0019030 0.0032000
v 0.0057373 0.0013373 0.0032000
v 0.0057826 0.0026815 0.0032000
v 0.0050435 0.0023754 0.0032000
v 0.0056000 0.0036000 0.0032000
v 0.0048000 0.0036000 0.0032000
v 0.0057826 0.0045185 0.0032000
v 0.0050435 0.0048246 0.0032000
v 0.0063030 0.0052970 0.0032000
v 0.0057373 0.0058627 0.0032000
v 0.0070815 0.0058174 0.0032000
v 0.0067754 0.0065565 0.0032000
v 0.0080000 0.0060000 0.0032000
v 0.0080000 0.0068000 0.0032000
v 0.0089185 0.0058174 0.0032000
v 0.0092246 0.0065565 0.0032000
v 0.0096970 0.0052970 0.0032000
v 0.0102627 0.0058627 0.0032000
v 0.0102174 0.0045185 0.0032000
v 0.0109565 0.0048246 0.0032000
v 0.0092246 0.0065565 0.0040000
v 0.0080000 0.0068000 0.0040000
v 0.0102627 0.0058627 0.0040000
v 0.0109565 0.0048246 0.0040000
v 0.0112000 0.0036000 0.0040000
v 0.0109565 0.0023754 0.0040000
v 0.0102627 0.0013373 0.0040000
v 0.0092246 0.0006435 0.0040000
v 0.0080000 0.0004000 0.0040000
v 0.0067754 0.0006435 0.0040000
v 0.0057373 0.0013373 0.0040000
v 0.0050435 0.0023754 0.0040000
v 0.0048000 0.0036000 0.0040000
v 0.0050435 0.0048246 0.0040000
v 0.0057373 0.0058627 0.0040000
v 0.0067754 0.0065565 0.0040000
v 0.0093777 0.0002740 0.0040000
v 0.0105456 0.0010544 0.0040000
v 0.0113260 0.0022223 0.0040000
v 0.0116000 0.0036000 0.0040000
v 0.0113260 0.0049777 0.0040000
v 0.0105456 0.0061456 0.0040000
v 0.0093777 0.0069260 0.0040000
v 0.0089185 0.0058174 -0.0032000
v 0.0080000 0.0060000 -0.0032000
v 0.0096970 0.0052970 -0.0032000
v 0.0102174 0.0045185 -0.0032000
v 0.0104000 0.0036000 -0.0032000
v 0.0102174 0.0026815 -0.0032000
v 0.0096970 0.0019030 -0.0032000
v 0.0089185 0.0013826 -0.0032000
v 0.0080000 0.0012000 -0.0032000
v 0.0070815 0.0013826 -0.0032000
v 0.0063030 0.0019030 -0.0032000
v 0.0057826 0.0026815 -0.0032000
v 0.0056000 0.0036000 -0.0032000
v 0.0057826 0.0045185 -0.0032000
v 0.0063030 0.0052970 -0.0032000
v 0.0070815 0.0058174 -0.0032000
v 0.0093777 0.0069260 -0.0040000
v 0.0092246 0.0065565 -0.0040000
v 0.0080000 0.0068000 -0.0040000
v 0.0105456 0.0061456 -0.0040000
v 0.0102627 0.0058627 -0.0040000
v 0.0113260 0.0049777 -0.0040000
v 0.0109565 0.0048246 -0.0040000
v 0.0116000 0.0036000 -0.0040000
v 0.0112000 0.0036000 -0.0040000
v 0.0113260 0.0022223 -0.0040000
v 0.0109565 0.0023754 -0.0040000
v 0.0105456 0.0010544 -0.0040000
v 0.0102627 0.0013373 -0.0040000
v 0.0093777 0.0002740 -0.0040000
v 0.0092246 0.0006435 -0.0040000
v 0.0080000 0.0004000 -0.0040000
v 0.0067754 0.0006435 -0.0040000
v 0.0057373 0.0013373 -0.0040000
v 0.0050435 0.0023754 -0.0040000
v 0.0048000 0.0036000 -0.0040000
v 0.0050435 0.0048246 -0.0040000
v 0.0057373 0.0058627 -0.0040000
v 0.0067754 0.0065565 -0.0040000
v 0.0109565 0.0023754 -0.0032000
v 0.0112000 0.0036000 -0.0032000
v 0.0102627 0.0013373 -0.0032000
v 0.0092246 0.0006435 -0.0032000
v 0.0080000 0.0004000 -0.0032000
v 0.0067754 0.0006435 -0.0032000
v 0.0057373 0.0013373 -0.0032000
v 0.0050435 0.0023754 -0.0032000
v 0.0048000 0.0036000 -0.0032000
v 0.0050435 0.0048246 -0.0032000
v 0.0057373 0.0058627 -0.0032000
v 0.0067754 0.0065565 -0.0032000
v 0.0080000 0.0068000 -0.0032000
v 0.0092246 0.0065565 -0.0032000
v 0.0102627 0.0058627 -0.0032000
v 0.0109565 0.0048246 -0.0032000
v 0.0040000 0.0093827 -0.0009184
v 0.0040000 0.0099029 -0.0016971
v 0.0040000 0.0106816 -0.0022173
v 0.0040000 0.0125184 -0.0022173
v 0.0040000 0.0132971 -0.0016971
v 0.0040000 0.0138173 -0.0009184
v 0.0040000 0.0138173 0.0009184
v 0.0040000 0.0132971 0.0016971
v 0.0040000 0.0125184 0.0022173
v 0.0040000 0.0106816 0.0022173
v 0.0040000 0.0099029 0.0016971
v 0.0040000 0.0093827 0.0009184
v 0.0040000 0.0106000 -0.0010000
v 0.0040000 0.0100000 -0.0008000
v 0.0040000 0.0093591 -0.0008000
v 0.0040000 0.0108000 -0.0016000
v 0.0040000 0.0108000 -0.0022409
v 0.0040000 0.0126000 -0.0010000
v 0.0040000 0.0124000 -0.0016000
v 0.0040000 0.0124000 -0.0022409
v 0.0040000 0.0138409 -0.0008000
v 0.0040000 0.0132000 -0.0008000
v 0.0040000 0.0132000 0.0008000
v 0.0040000 0.0138409 0.0008000
v 0.0040000 0.0126000 0.0010000
v 0.0040000 0.0124000 0.0022409
v 0.0040000 0.0124000 0.0016000
v 0.0040000 0.0106000 0.0010000
v 0.0040000 0.0108000 0.0022409
v 0.0040000 0.0108000 0.0016000
v 0.0040000 0.0100000 0.0008000
v 0.0040000 0.0093591 0.0008000
v -0.0040000 0.0093827 0.0009184
v -0.0040000 0.0099029 0.0016971
v -0.0040000 0.0106816 0.0022173
v -0.0040000 0.0125184 0.0022173
v -0.0040000 0.0132971 0.0016971
v -0.0040000 0.0138173 0.0009184
v -0.0040000 0.0138173 -0.0009184
v -0.0040000 0.0132971 -0.0016971
v -0.0040000 0.0125184 -0.0022173
v -0.0040000 0.0106816 -0.0022173
v -0.0040000 0.0099029 -0.0016971
v -0.0040000 0.0093827 -0.0009184
v -0.0040000 0.0106000 0.0010000
v -0.0040000 0.0100000 0.0008000
v -0.0040000 0.0093591 0.0008000
v -0.0040000 0.0108000 0.0016000
v -0.0040000 0.0108000 0.0022409
v -0.0040000 0.0126000 0.0010000
v -0.0040000 0.0124000 0.0016000
v -0.0040000 0.0124000 0.0022409
v -0.0040000 0.0138409 0.0008000
v -0.0040000 0.0132000 0.0008000
v -0.0040000 0.0132000 -0.0008000
v -0.0040000 0.0138409 -0.0008000
v -0.0040000 0.0126000 -0.0010000
v -0.0040000 0.0124000 -0.0022409
v -0.0040000 0.0124000 -0.0016000
v -0.0040000 0.0106000 -0.0010000
v -0.0040000 0.0108000 -0.0022409
v -0.0040000 0.0108000 -0.0016000
v -0.0040000 0.0100000 -0.0008000
v -0.0040000 0.0093591 -0.0008000
v -0.0040000 0.0092000 -0.0000000
v 0.0040000 0.0092000 -0.0000000
v 0.0040000 0.0140000 -0.0000000
v -0.0040000 0.0140000 -0.0000000
v 0.0040000 0.0108000 -0.0022320
v 0.0040000 0.0116000 -0.0024000
v 0.0020000 0.0116000 -0.0024000
v 0.0020000 0.0112000 -0.0023160
v -0.0040000 0.0116000 -0.0024000
v -0.0040000 0.0108000 -0.0022320
v -0.0020000 0.0112000 -0.0023160
v -0.0020000 0.0116000 -0.0024000
v 0.0040000 0.0124000 -0.0022320
v 0.0020000 0.0120000 -0.0023160
v -0.0040000 0.0124000 -0.0022320
v -0.0020000 0.0120000 -0.0023160
v 0.0040000 0.0116000 0.0024000
v 0.0040000 0.0108000 0.0022320
v 0.0020000 0.0112000 0.0023160
v 0.0020000 0.0116000 0.0024000
v -0.0040000 0.0108000 0.0022320
v -0.0040000 0.0116000 0.0024000
v -0.0020000 0.0116000 0.0024000
v -0.0020000 0.0112000 0.0023160
v 0.0040000 0.0124000 0.0022320
v 0.0020000 0.0120000 0.0023160
v -0.0040000 0.0124000 0.0022320
v -0.0020000 0.0120000 0.0023160
v 0.0020000 0.0105280 0.0025880
v 0.0020000 0.0112000 0.0027160
v -0.0020000 0.0112000 0.0027160
v -0.0020000 0.0105280 0.0025880
v -0.0020000 0.0126720 0.0025880
v -0.0020000 0.0120000 0.0027160
v 0.0020000 0.0120000 0.0027160
v 0.0020000 0.0126720 0.0025880
v -0.0016000 0.0112000 0.0023160
v -0.0016000 0.0112000 0.0027160
v 0.0016000 0.0112000 0.0027160
v 0.0016000 0.0112000 0.0023160
v 0.0016000 0.0120000 0.0023160
v 0.0016000 0.0120000 0.0027160
v -0.0016000 0.0120000 0.0027160
v -0.0016000 0.0120000 0.0023160
v 0.0020000 0.0116000 0.0028000
v 0.0019696 0.0117531 0.0027695
v 0.0019696 0.0117531 0.0023695
v 0.0018828 0.0118828 0.0027437
v 0.0018828 0.0118828 0.0023437
v 0.0017531 0.0119696 0.0027265
v 0.0017531 0.0119696 0.0023265
v 0.0016000 0.0120000 0.0027204
v 0.0016000 0.0120000 0.0023204
v 0.0019696 0.0114469 0.0023695
v 0.0019696 0.0114469 0.0027695
v 0.0018828 0.0113172 0.0023437
v 0.0018828 0.0113172 0.0027437
v 0.0017531 0.0112304 0.0023265
v 0.0017531 0.0112304 0.0027265
v 0.0016000 0.0112000 0.0023204
v 0.0016000 0.0112000 0.0027204
v -0.0020000 0.0116000 0.0028000
v -0.0019696 0.0114469 0.0027695
v -0.0019696 0.0114469 0.0023695
v -0.0018828 0.0113172 0.0027437
v -0.0018828 0.0113172 0.0023437
v -0.0017531 0.0112304 0.0027265
v -0.0017531 0.0112304 0.0023265
v -0.0016000 0.0112000 0.0027204
v -0.0016000 0.0112000 0.0023204
v -0.0019696 0.0117531 0.0023695
v -0.0019696 0.0117531 0.0027695
v -0.0018828 0.0118828 0.0023437
v -0.0018828 0.0118828 0.0027437
v -0.0017531 0.0119696 0.0023265
v -0.0017531 0.0119696 0.0027265
v -0.0016000 0.0120000 0.0023204
v -0.0016000 0.0120000 0.0027204
v 0.0020000 0.0120000 0.0027204
v 0.0020000 0.0112000 0.0027204
v -0.0020000 0.0112000 0.0027204
v -0.0020000 0.0120000 0.0027204
v 0.0020000 0.0120000 0.0023204
v 0.0020000 0.0112000 0.0023204
v -0.0020000 0.0112000 0.0023204
v -0.0020000 0.0120000 0.0023204
v 0.0020000 0.0112000 -0.0023204
v 0.0019696 0.0114469 -0.0023695
v 0.0018828 0.0113172 -0.0023437
v 0.0017531 0.0112304 -0.0023265
v 0.0016000 0.0112000 -0.0023204
v 0.0019696 0.0117531 -0.0023695
v 0.0020000 0.0120000 -0.0023204
v 0.0018828 0.0118828 -0.0023437
v 0.0017531 0.0119696 -0.0023265
v 0.0016000 0.0120000 -0.0023204
v -0.0020000 0.0120000 -0.0023204
v -0.0019696 0.0117531 -0.0023695
v -0.0018828 0.0118828 -0.0023437
v -0.0017531 0.0119696 -0.0023265
v -0.0016000 0.0120000 -0.0023204
v -0.0019696 0.0114469 -0.0023695
v -0.0020000 0.0112000 -0.0023204
v -0.0018828 0.0113172 -0.0023437
v -0.0017531 0.0112304 -0.0023265
v -0.0016000 0.0112000 -0.0023204
v -0.0024000 0.0126716 -0.0025868
v -0.0024000 0.0135800 -0.0019798
v 0.0024000 0.0135800 -0.0019798
v 0.0024000 0.0126716 -0.0025868
v -0.0024000 0.0141869 -0.0010714
v 0.0024000 0.0141869 -0.0010714
v -0.0024000 0.0144000 0.0000001
v 0.0024000 0.0144000 0.0000001
v -0.0024000 0.0141868 0.0010716
v 0.0024000 0.0141868 0.0010716
v -0.0024000 0.0135798 0.0019800
v 0.0024000 0.0135798 0.0019800
v -0.0024000 0.0126714 0.0025869
v 0.0024000 0.0126714 0.0025869
v -0.0024000 0.0126716 0.0025868
v -0.0024000 0.0116001 0.0028000
v -0.0020000 0.0116001 0.0028000
v -0.0020000 0.0126716 0.0025868
v -0.0024000 0.0105286 0.0025869
v -0.0020000 0.0105286 0.0025869
v 0.0024000 0.0105284 0.0025868
v 0.0024000 0.0115999 0.0028000
v 0.0020000 0.0115999 0.0028000
v 0.0020000 0.0105284 0.0025868
v 0.0020000 0.0126714 0.0025869
v -0.0024000 0.0105284 0.0025868
v -0.0024000 0.0096200 0.0019798
v 0.0024000 0.0096200 0.0019798
v -0.0024000 0.0090131 0.0010714
v 0.0024000 0.0090131 0.0010714
v -0.0024000 0.0088000 -0.0000001
v 0.0024000 0.0088000 -0.0000001
v -0.0024000 0.0088000 -0.0000000
v -0.0024000 0.0090131 -0.0010716
v 0.0024000 0.0090131 -0.0010716
v 0.0024000 0.0088000 -0.0000000
v 0.0040000 0.0129777 -0.0033260
v 0.0040000 0.0125185 -0.0022174
v 0.0040000 0.0116000 -0.0036000
v 0.0040000 0.0141456 -0.0025456
v 0.0040000 0.0132970 -0.0016970
v 0.0040000 0.0149260 -0.0013777
v 0.0040000 0.0138174 -0.0009185
v 0.0040000 0.0152000 -0.0000000
v 0.0040000 0.0149260 0.0013777
v 0.0040000 0.0138174 0.0009185
v 0.0040000 0.0141456 0.0025456
v 0.0040000 0.0132970 0.0016970
v 0.0040000 0.0129777 0.0033260
v 0.0040000 0.0125185 0.0022174
v 0.0040000 0.0116000 0.0036000
v 0.0040000 0.0102223 0.0033260
v 0.0040000 0.0106815 0.0022174
v 0.0040000 0.0090544 0.0025456
v 0.0040000 0.0099030 0.0016970
v 0.0040000 0.0082740 0.0013777
v 0.0040000 0.0093826 0.0009185
v 0.0040000 0.0080000 -0.0000000
v 0.0040000 0.0082740 -0.0013777
v 0.0040000 0.0093826 -0.0009185
v 0.0040000 0.0090544 -0.0025456
v 0.0040000 0.0099030 -0.0016970
v 0.0040000 0.0102223 -0.0033260
v 0.0040000 0.0106815 -0.0022174
v -0.0040000 0.0125185 -0.0022174
v -0.0040000 0.0129777 -0.0033260
v -0.0040000 0.0116000 -0.0036000
v -0.0040000 0.0132970 -0.0016970
v -0.0040000 0.0141456 -0.0025456
v -0.0040000 0.0138174 -0.0009185
v -0.0040000 0.0149260 -0.0013777
v -0.0040000 0.0152000 -0.0000000
v -0.0040000 0.0138174 0.0009185
v -0.0040000 0.0149260 0.0013777
v -0.0040000 0.0132970 0.0016970
v -0.0040000 0.0141456 0.0025456
v -0.0040000 0.0125185 0.0022174
v -0.0040000 0.0129777 0.0033260
v -0.0040000 0.0116000 0.0036000
v -0.0040000 0.0106815 0.0022174
v -0.0040000 0.0102223 0.0033260
v -0.0040000 0.0099030 0.0016970
v -0.0040000 0.0090544 0.0025456
v -0.0040000 0.0093826 0.0009185
v -0.0040000 0.0082740 0.0013777
v -0.0040000 0.0080000 -0.0000000
v -0.0040000 0.0093826 -0.0009185
v -0.0040000 0.0082740 -0.0013777
v -0.0040000 0.0099030 -0.0016970
v -0.0040000 0.0090544 -0.0025456
v -0.0040000 0.0106815 -0.0022174
v -0.0040000 0.0102223 -0.0033260
v 0.0028000 0.0129777 -0.0033260
v 0.0028000 0.0116000 -0.0036000
v 0.0028000 0.0141456 -0.0025456
v 0.0028000 0.0149260 -0.0013777
v 0.0028000 0.0152000 -0.0000000
v 0.0028000 0.0149260 0.0013777
v 0.0028000 0.0141456 0.0025456
v 0.0028000 0.0129777 0.0033260
v 0.0028000 0.0116000 0.0036000
v -0.0028000 0.0129777 -0.0033260
v -0.0028000 0.0116000 -0.0036000
v -0.0028000 0.0141456 -0.0025456
v -0.0028000 0.0149260 -0.0013777
v -0.0028000 0.0152000 -0.0000000
v -0.0028000 0.0149260 0.0013777
v -0.0028000 0.0141456 0.0025456
v -0.0028000 0.0129777 0.0033260
v -0.0028000 0.0116000 0.0036000
v 0.0024000 0.0116000 -0.0028000
v 0.0024000 0.0126716 -0.0025869
v 0.0026000 0.0128246 -0.0029565
v 0.0026000 0.0116000 -0.0032000
v 0.0024000 0.0135799 -0.0019799
v 0.0026000 0.0138627 -0.0022627
v 0.0024000 0.0141869 -0.0010716
v 0.0026000 0.0145565 -0.0012246
v 0.0024000 0.0144000 -0.0000000
v 0.0026000 0.0148000 -0.0000000
v 0.0024000 0.0141869 0.0010716
v 0.0026000 0.0145565 0.0012246
v 0.0024000 0.0135799 0.0019799
v 0.0026000 0.0138627 0.0022627
v 0.0024000 0.0126716 0.0025869
v 0.0026000 0.0128246 0.0029565
v 0.0024000 0.0116000 0.0028000
v 0.0026000 0.0116000 0.0032000
v 0.0024000 0.0105284 0.0025869
v 0.0026000 0.0103754 0.0029565
v 0.0024000 0.0096201 0.0019799
v 0.0026000 0.0093373 0.0022627
v 0.0024000 0.0090131 0.0010716
v 0.0026000 0.0086435 0.0012246
v 0.0026000 0.0084000 -0.0000000
v 0.0026000 0.0086435 -0.0012246
v 0.0024000 0.0096201 -0.0019799
v 0.0026000 0.0093373 -0.0022627
v 0.0024000 0.0105284 -0.0025869
v 0.0026000 0.0103754 -0.0029565
v 0.0028000 0.0102223 0.0033260
v 0.0028000 0.0090544 0.0025456
v 0.0028000 0.0082740 0.0013777
v 0.0028000 0.0080000 -0.0000000
v 0.0028000 0.0082740 -0.0013777
v 0.0028000 0.0090544 -0.0025456
v 0.0028000 0.0102223 -0.0033260
v -0.0024000 0.0116000 0.0028000
v -0.0024000 0.0126716 0.0025869
v -0.0026000 0.0128246 0.0029565
v -0.0026000 0.0116000 0.0032000
v -0.0024000 0.0135799 0.0019799
v -0.0026000 0.0138627 0.0022627
v -0.0024000 0.0141869 0.0010716
v -0.0026000 0.0145565 0.0012246
v -0.0024000 0.0144000 -0.0000000
v -0.0026000 0.0148000 -0.0000000
v -0.0024000 0.0141869 -0.0010716
v -0.0026000 0.0145565 -0.0012246
v -0.0024000 0.0135799 -0.0019799
v -0.0026000 0.0138627 -0.0022627
v -0.0024000 0.0126716 -0.0025869
v -0.0026000 0.0128246 -0.0029565
v -0.0024000 0.0116000 -0.0028000
v -0.0026000 0.0116000 -0.0032000
v -0.0024000 0.0105284 -0.0025869
v -0.0026000 0.0103754 -0.0029565
v -0.0024000 0.0096201 -0.0019799
v -0.0026000 0.0093373 -0.0022627
v -0.0026000 0.0086435 -0.0012246
v -0.0026000 0.0084000 -0.0000000
v -0.0024000 0.0090131 0.0010716
v -0.0026000 0.0086435 0.0012246
v -0.0024000 0.0096201 0.0019799
v -0.0026000 0.0093373 0.0022627
v -0.0024000 0.0105284 0.0025869
v -0.0026000 0.0103754 0.0029565
v -0.0028000 0.0102223 -0.0033260
v -0.0028000 0.0090544 -0.0025456
v -0.0028000 0.0082740 -0.0013777
v -0.0028000 0.0080000 -0.0000000
v -0.0028000 0.0082740 0.0013777
v -0.0028000 0.0090544 0.0025456
v -0.0028000 0.0102223 0.0033260
v 0.0040000 0.0080000 -0.0036000
v 0.0040000 0.0080000 0.0036000
v -0.0028000 0.0080000 -0.0036000
v -0.0028000 0.0080000 0.0036000
v -0.0040000 0.0080000 0.0036000
v -0.0040000 0.0080000 -0.0036000
v 0.0028000 0.0080000 0.0036000
v 0.0028000 0.0080000 -0.0036000
v 0.0040000 0.0072000 0.0036000
v 0.0040000 0.0072000 -0.0036000
v 0.0028000 0.0072000 -0.0036000
v 0.0028000 0.0072000 0.0036000
v -0.0028000 0.0072000 0.0036000
v -0.0028000 0.0072000 -0.0036000
v -0.0040000 0.0072000 -0.0036000
v -0.0040000 0.0072000 0.0036000
v -0.0028000 0.0094352 -0.0028000
v -0.0026000 0.0101412 -0.0028000
v -0.0028000 0.0072000 -0.0028000
v 0.0026000 0.0101412 -0.0028000
v 0.0028000 0.0072000 -0.0028000
v 0.0025152 0.0104400 -0.0028000
v -0.0025152 0.0104400 -0.0028000
v 0.0028000 0.0094352 -0.0028000
v -0.0020000 0.0116000 -0.0028000
v -0.0020000 0.0120000 -0.0027204
v 0.0020000 0.0116000 -0.0028000
v 0.0020000 0.0120000 -0.0027204
v 0.0020000 0.0112000 -0.0028000
v -0.0020000 0.0112000 -0.0028000
v 0.0019696 0.0117531 -0.0027695
v 0.0018828 0.0118828 -0.0027437
v 0.0017531 0.0119696 -0.0027265
v 0.0016000 0.0120000 -0.0027204
v 0.0019696 0.0114469 -0.0028000
v 0.0018828 0.0113172 -0.0028000
v 0.0017531 0.0112304 -0.0028000
v 0.0016000 0.0112000 -0.0028000
v -0.0019696 0.0114469 -0.0028000
v -0.0018828 0.0113172 -0.0028000
v -0.0017531 0.0112304 -0.0028000
v -0.0016000 0.0112000 -0.0028000
v -0.0019696 0.0117531 -0.0027695
v -0.0018828 0.0118828 -0.0027437
v -0.0017531 0.0119696 -0.0027265
v -0.0016000 0.0120000 -0.0027204
v -0.0028000 0.0072000 -0.0004000
v 0.0024000 0.0088796 -0.0004000
v -0.0024000 0.0088796 -0.0004000
v -0.0025252 0.0086288 -0.0004000
v 0.0026000 0.0084796 -0.0004000
v 0.0028000 0.0072000 -0.0004000
v 0.0028000 0.0080796 -0.0004000
v -0.0026000 0.0084796 -0.0004000
v -0.0028000 0.0080796 -0.0004000
v 0.0019696 0.0117532 -0.0023696
v 0.0019696 0.0117532 -0.0027696
v 0.0018828 0.0118828 -0.0023436
v 0.0018828 0.0118828 -0.0027436
v 0.0017532 0.0119696 -0.0023264
v 0.0017532 0.0119696 -0.0027264
v 0.0016000 0.0120000 -0.0023160
v -0.0017532 0.0119696 -0.0023264
v -0.0017532 0.0119696 -0.0027264
v -0.0018828 0.0118828 -0.0023436
v -0.0018828 0.0118828 -0.0027436
v -0.0019696 0.0117532 -0.0023696
v -0.0019696 0.0117532 -0.0027696
v -0.0019696 0.0114468 -0.0023696
v -0.0019696 0.0114468 -0.0028000
v -0.0018828 0.0113172 -0.0023436
v -0.0017532 0.0112304 -0.0023264
v -0.0017532 0.0112304 -0.0028000
v -0.0016000 0.0112000 -0.0023160
v 0.0017532 0.0112304 -0.0023264
v 0.0017532 0.0112304 -0.0028000
v 0.0018828 0.0113172 -0.0023436
v 0.0019696 0.0114468 -0.0023696
v 0.0019696 0.0114468 -0.0028000
vn 0.0 0.0 -1.0
vn -0.9657218 0.2595795 4.9e-06
vn -0.9807909 0.1950619 0.0
vn -1.0 0.0 0.0
vn 0.0 -1.0 0.0
vn -0.0434816 -0.9990542 0.0
vn -0.1159136 -0.9932593 0.0
vn -0.4781865 -0.8782583 0.0
vn -0.6820466 -0.7313087 0.0
vn -0.941297 -0.3375795 0.0
vn -0.9971493 -0.0754544 0.0
vn -0.942201 0.3350481 1.09e-05
vn -0.9422176 0.3350014 0.0
vn -0.9566554 -0.2912222 0.0
vn -0.9722567 -0.2339164 0.0
vn -0.0434816 0.9990542 0.0
vn 0.0 1.0 0.0
vn -0.1159136 0.9932593 0.0
vn -0.4781865 0.8782583 0.0
vn -0.6820466 0.7313087 0.0
vn -0.941297 0.3375795 0.0
vn -0.9971493 0.0754544 0.0
vn -0.9521305 -0.305692 0.0
vn -0.9346199 -0.3556481 0.0
vn -0.9238023 0.3828697 2.89e-05
vn 1.0 0.0 0.0
vn 0.9807909 0.1950619 0.0
vn 0.9657218 0.2595795 4.9e-06
vn 0.0434816 -0.9990542 0.0
vn 0.1159136 -0.9932593 0.0
vn 0.4781865 -0.8782583 0.0
vn 0.6820466 -0.7313087 0.0
vn 0.941297 -0.3375795 0.0
vn 0.9971493 -0.0754544 0.0
vn 0.942201 0.3350481 1.09e-05
vn 0.9422176 0.3350014 0.0
vn 0.9722567 -0.2339164 0.0
vn 0.9566554 -0.2912222 0.0
vn 0.0434816 0.9990542 0.0
vn 0.1159136 0.9932593 0.0
vn 0.4781865 0.8782583 0.0
vn 0.6820466 0.7313087 0.0
vn 0.941297 0.3375795 0.0
vn 0.9971493 0.0754544 0.0
vn 0.9521305 -0.305692 0.0
vn 0.9346199 -0.3556481 0.0
vn 0.9238023 0.3828697 2.89e-05
vn -0.3207139 -0.9471761 0.0
vn -0.4430151 -0.8965142 0.0
vn -0.066135 -0.9978107 0.0
vn 0.066135 -0.9978107 0.0
vn -0.6588045 -0.7523142 0.0
vn -0.7523142 -0.6588045 0.0
vn -0.8965142 -0.4430151 0.0
vn -0.9471761 -0.3207139 0.0
vn -0.9978107 -0.066135 0.0
vn -0.9978107 0.066135 0.0
vn -0.9471761 0.3207139 0.0
vn -0.8965142 0.4430151 0.0
vn -0.7523142 0.6588045 0.0
vn -0.6588045 0.7523142 0.0
vn -0.4430151 0.8965142 0.0
vn -0.3207139 0.9471761 0.0
vn -0.066135 0.9978107 0.0
vn 0.066135 0.9978107 0.0
vn 0.3207139 0.9471761 0.0
vn 0.4430151 0.8965142 0.0
vn 0.6588045 0.7523142 0.0
vn 0.7523142 0.6588045 0.0
vn 0.8965142 0.4430151 0.0
vn 0.9471761 0.3207139 0.0
vn 0.9978107 0.066135 0.0
vn 0.9978107 -0.066135 0.0
vn 0.9471761 -0.3207139 0.0
vn 0.8965142 -0.4430151 0.0
vn 0.7523142 -0.6588045 0.0
vn 0.6588045 -0.7523142 0.0
vn 0.4430151 -0.8965142 0.0
vn 0.3207139 -0.9471761 0.0
vn -0.3207111 -0.947177 0.0
vn -0.4430513 -0.8964963 0.0
vn -0.0661224 -0.9978115 0.0
vn 0.0661224 -0.9978115 0.0
vn -0.6588276 -0.752294 0.0
vn -0.752294 -0.6588276 0.0
vn -0.8964963 -0.4430513 0.0
vn -0.947177 -0.3207111 0.0
vn -0.9978115 -0.0661224 0.0
vn -0.9978115 0.0661224 0.0
vn -0.947177 0.3207111 0.0
vn -0.8964963 0.4430513 0.0
vn -0.752294 0.6588276 0.0
vn -0.6588276 0.752294 0.0
vn -0.4430513 0.8964963 0.0
vn -0.3207111 0.947177 0.0
vn -0.0661224 0.9978115 0.0
vn 0.0661224 0.9978115 0.0
vn 0.3207111 0.947177 0.0
vn 0.4430513 0.8964963 0.0
vn 0.6588276 0.752294 0.0
vn 0.752294 0.6588276 0.0
vn 0.8964963 0.4430513 0.0
vn 0.947177 0.3207111 0.0
vn 0.9978115 0.0661224 0.0
vn 0.9978115 -0.0661224 0.0
vn 0.947177 -0.3207111 0.0
vn 0.8964963 -0.4430513 0.0
vn 0.752294 -0.6588276 0.0
vn 0.6588276 -0.752294 0.0
vn 0.4430513 -0.8964963 0.0
vn 0.3207111 -0.947177 0.0
vn 0.0 0.0 1.0
vn -0.9657218 0.2595795 -4.9e-06
vn -0.942201 0.3350481 -1.09e-05
vn -0.9238023 0.3828697 -2.89e-05
vn 0.9657218 0.2595795 -4.9e-06
vn 0.942201 0.3350481 -1.09e-05
vn 0.9238023 0.3828697 -2.89e-05
vn 0.3207075 0.9471783 0.0
vn 0.4429691 0.8965369 0.0
vn 0.0292058 0.9995734 0.0
vn 0.0082088 0.9999663 0.0
vn 0.6587815 0.7523344 0.0
vn 0.7523344 0.6587815 0.0
vn 0.8965369 0.4429691 0.0
vn 0.9471783 0.3207075 0.0
vn 0.9978098 0.0661489 0.0
vn 0.9978098 -0.0661489 0.0
vn 0.9471783 -0.3207075 0.0
vn 0.8965369 -0.4429691 0.0
vn 0.7523344 -0.6587815 0.0
vn 0.6587815 -0.7523344 0.0
vn 0.4429691 -0.8965369 0.0
vn 0.3207075 -0.9471783 0.0
vn 0.0292058 -0.9995734 0.0
vn 0.0082088 -0.9999663 0.0
vn -0.3207075 -0.9471783 0.0
vn -0.4429691 -0.8965369 0.0
vn -0.0292058 -0.9995734 0.0
vn -0.0082088 -0.9999663 0.0
vn -0.6587815 -0.7523344 0.0
vn -0.7523344 -0.6587815 0.0
vn -0.8965369 -0.4429691 0.0
vn -0.9471783 -0.3207075 0.0
vn -0.9978098 -0.0661489 0.0
vn -0.9978098 0.0661489 0.0
vn -0.9471783 0.3207075 0.0
vn -0.8965369 0.4429691 0.0
vn -0.7523344 0.6587815 0.0
vn -0.6587815 0.7523344 0.0
vn -0.4429691 0.8965369 0.0
vn -0.3207075 0.9471783 0.0
vn -0.0292058 0.9995734 0.0
vn -0.0082088 0.9999663 0.0
vn 0.0 0.9807923 0.1950551
vn 0.0 -0.9807923 0.1950551
vn 0.0 -0.9807923 -0.1950551
vn 0.0 0.9807923 -0.1950551
vn 0.0 0.1591199 0.9872593
vn 0.0 0.3162278 0.9486833
vn 0.0 0.9486833 0.3162278
vn 0.0 0.9771979 0.2123305
vn 0.0 0.9943996 0.105686
vn 0.0 -0.9872593 0.1591199
vn 0.0 -0.9486833 0.3162278
vn 0.0 -0.3162278 0.9486833
vn 0.0 -0.2123305 0.9771979
vn 0.0 -0.105686 0.9943996
vn 0.0 -0.105686 -0.9943996
vn 0.0 -0.2123305 -0.9771979
vn 0.0 -0.3162278 -0.9486833
vn 0.0 -0.9486833 -0.3162278
vn 0.0 -0.9771979 -0.2123305
vn 0.0 -0.9943996 -0.105686
vn 0.0 0.9943996 -0.105686
vn 0.0 0.9771979 -0.2123305
vn 0.0 0.9486833 -0.3162278
vn 0.0 0.3162278 -0.9486833
vn 0.0 0.2123305 -0.9771979
vn 0.0 0.105686 -0.9943996
vn 0.0 0.2055172 0.9786535
vn -0.0 -0.041963 0.9991192
vn 8.2e-06 0.1036468 0.9946142
vn 0.0 0.041963 0.9991192
vn -8.2e-06 -0.1036468 0.9946142
vn -0.0 -0.2055172 0.9786535
vn 0.0 0.041963 -0.9991192
vn 0.0 0.2055172 -0.9786535
vn 8.2e-06 -0.1036468 -0.9946142
vn 0.0 -0.041963 -0.9991192
vn -8.2e-06 0.1036468 -0.9946142
vn -0.0 -0.2055172 -0.9786535
vn 0.0 -0.1871121 0.9823386
vn 0.0 0.1871121 0.9823386
vn -0.8963744 -0.4432979 0.0
vn -0.9471733 -0.3207221 0.0
vn -0.6589659 -0.7521728 0.0
vn -0.7521728 -0.6589659 0.0
vn -0.3207221 -0.9471733 0.0
vn -0.4432979 -0.8963744 0.0
vn -0.1947607 -0.9808508 0.0
vn -0.9471733 0.3207221 0.0
vn -0.8963744 0.4432979 0.0
vn -0.7521728 0.6589659 0.0
vn -0.6589659 0.7521728 0.0
vn -0.4432979 0.8963744 0.0
vn -0.3207221 0.9471733 0.0
vn -0.1947607 0.9808508 0.0
vn 0.8963744 0.4432979 0.0
vn 0.9471733 0.3207221 0.0
vn 0.6589659 0.7521728 0.0
vn 0.7521728 0.6589659 0.0
vn 0.3207221 0.9471733 0.0
vn 0.4432979 0.8963744 0.0
vn 0.1947607 0.9808508 0.0
vn 0.9471733 -0.3207221 0.0
vn 0.8963744 -0.4432979 0.0
vn 0.7521728 -0.6589659 0.0
vn 0.6589659 -0.7521728 0.0
vn 0.4432979 -0.8963744 0.0
vn 0.3207221 -0.9471733 0.0
vn 0.1947607 -0.9808508 0.0
vn -0.0003917 0.1950929 0.9807847
vn -0.0010888 -0.0 0.9999994
vn -0.0001096 0.1952413 0.9807552
vn 9.37e-05 0.1948993 0.9808233
vn 0.0001725 0.1953897 0.9807257
vn 0.0 0.1967363 0.9804564
vn -0.0001096 -0.1952413 0.9807552
vn -0.0003917 -0.1950929 0.9807847
vn 9.37e-05 -0.1948993 0.9808233
vn 0.0001725 -0.1953897 0.9807257
vn 0.0 -0.1967363 0.9804564
vn 0.0003917 -0.1950929 0.9807847
vn 0.0010888 0.0 0.9999994
vn 0.0001096 -0.1952413 0.9807552
vn -9.37e-05 -0.1948993 0.9808233
vn -0.0001725 -0.1953897 0.9807257
vn 0.0001096 0.1952413 0.9807552
vn 0.0003917 0.1950929 0.9807847
vn -9.37e-05 0.1948993 0.9808233
vn -0.0001725 0.1953897 0.9807257
vn 0.0001096 -0.1952413 -0.9807552
vn 0.0003917 -0.1950929 -0.9807847
vn -9.37e-05 -0.1948993 -0.9808233
vn -0.0001725 -0.1953897 -0.9807257
vn 0.0 -0.1967363 -0.9804564
vn 0.0003917 0.1950929 -0.9807847
vn 0.0001096 0.1952413 -0.9807552
vn -9.37e-05 0.1948993 -0.9808233
vn -0.0001725 0.1953897 -0.9807257
vn 0.0 0.1967363 -0.9804564
vn -0.0001096 0.1952413 -0.9807552
vn -0.0003917 0.1950929 -0.9807847
vn 9.37e-05 0.1948993 -0.9808233
vn 0.0001725 0.1953897 -0.9807257
vn -0.0003917 -0.1950929 -0.9807847
vn -0.0001096 -0.1952413 -0.9807552
vn 9.37e-05 -0.1948993 -0.9808233
vn 0.0001725 -0.1953897 -0.9807257
vn 1.2e-06 0.423747 -0.9057806
vn 0.0 0.7523651 -0.6587463
vn 0.0 0.6587968 -0.7523209
vn -2.2e-06 0.4098367 -0.9121589
vn 0.0 0.9471859 -0.3206849
vn 0.0 0.8965588 -0.4429248
vn 0.0 0.9978057 0.06621
vn 0.0 0.9978119 -0.0661173
vn 0.0 0.8965218 0.4429997
vn 0.0 0.9471577 0.3207684
vn 0.0 0.6587463 0.7523651
vn 0.0 0.7523209 0.6587968
vn 0.0 0.5555237 0.8315007
vn 0.0 0.5426936 0.8399308
vn 0.0 0.1951479 0.9807738
vn 0.0 -0.0661173 0.9978119
vn 0.0 0.06621 0.9978057
vn 0.0 -0.1950599 0.9807913
vn 0.0 -0.5088614 0.8608485
vn 0.0 0.0661173 0.9978119
vn 0.0 -0.06621 0.9978057
vn 0.0 -0.1951479 0.9807738
vn 0.0 0.1950599 0.9807913
vn 0.0 -0.555587 0.8314584
vn 0.0 -0.7523651 0.6587463
vn 0.0 -0.6587968 0.7523209
vn 0.0 -0.9471859 0.3206849
vn 0.0 -0.8965588 0.4429248
vn 0.0 -0.9807913 0.1950599
vn 0.0 -0.9807948 -0.1950423
vn 0.0 0.3207075 -0.9471783
vn 0.0 0.4429691 -0.8965369
vn 0.0 0.0473705 -0.9988774
vn 0.0 0.6587815 -0.7523344
vn 0.0 0.7523344 -0.6587815
vn 0.0 0.8965369 -0.4429691
vn 0.0 0.9471783 -0.3207075
vn 0.0 0.9978098 -0.0661489
vn 0.0 0.9978098 0.0661489
vn 0.0 0.9471783 0.3207075
vn 0.0 0.8965369 0.4429691
vn 0.0 0.7523344 0.6587815
vn 0.0 0.6587815 0.7523344
vn 0.0 0.4429691 0.8965369
vn 0.0 0.3207075 0.9471783
vn 0.0 0.0473705 0.9988774
vn 0.0 0.0763619 -0.9970802
vn 0.0 0.0269119 -0.9996378
vn 0.0 0.0269119 0.9996378
vn 0.0 0.0763619 0.9970802
vn -0.8939637 0.0323172 -0.4469727
vn -0.8939567 0.2009404 -0.40058
vn -0.894032 0.1436845 -0.4243367
vn -0.8940318 -0.0296344 -0.4470224
vn -0.8939399 0.3389425 -0.2932396
vn -0.894034 0.2951369 -0.3370421
vn -0.8939658 0.4253199 -0.1411672
vn -0.8940346 0.4016413 -0.1984601
vn -0.8939637 0.4469727 0.0323172
vn -0.8940318 0.4470224 -0.0296344
vn -0.8939567 0.40058 0.2009404
vn -0.894032 0.4243367 0.1436845
vn -0.8939399 0.2932396 0.3389425
vn -0.894034 0.3370421 0.2951369
vn -0.8939658 0.1411672 0.4253199
vn -0.8940346 0.1984601 0.4016413
vn -0.8939637 -0.0323172 0.4469727
vn -0.8940318 0.0296344 0.4470224
vn -0.8939567 -0.2009404 0.40058
vn -0.894032 -0.1436845 0.4243367
vn -0.8939399 -0.3389425 0.2932396
vn -0.894034 -0.2951369 0.3370421
vn -0.8939658 -0.4253199 0.1411672
vn -0.8940346 -0.4016413 0.1984601
vn -0.8939637 -0.4469727 -0.0323172
vn -0.8940318 -0.4470224 0.0296344
vn -0.8939567 -0.40058 -0.2009404
vn -0.894032 -0.4243367 -0.1436845
vn -0.8939399 -0.2932396 -0.3389425
vn -0.894034 -0.3370421 -0.2951369
vn -0.8939658 -0.1411672 -0.4253199
vn -0.8940346 -0.1984601 -0.4016413
vn -0.8940939 0.1963659 -0.4025377
vn -0.9553451 0.0180447 -0.2949408
vn -0.8941115 0.3354181 -0.296748
vn -0.8940819 0.423511 -0.1457946
vn -0.8940846 0.4470621 0.0273517
vn -0.8940939 0.4025377 0.1963659
vn -0.8941115 0.296748 0.3354181
vn -0.8940819 0.1457946 0.423511
vn -0.9553451 -0.0180447 0.2949408
vn -0.985505 -0.0743787 0.1524717
vn -0.9903566 -0.1037623 0.0917996
vn -0.9855045 -0.1604103 0.0552216
vn -0.9758773 -0.2179123 -0.0133321
vn -0.985505 -0.1524717 -0.0743787
vn -0.9903566 -0.0917996 -0.1037623
vn -0.9855045 -0.0552216 -0.1604103
vn 0.8939637 0.0323172 0.4469727
vn 0.8939567 0.2009404 0.40058
vn 0.894032 0.1436845 0.4243367
vn 0.8940318 -0.0296344 0.4470224
vn 0.8939399 0.3389425 0.2932396
vn 0.894034 0.2951369 0.3370421
vn 0.8939658 0.4253199 0.1411672
vn 0.8940346 0.4016413 0.1984601
vn 0.8939637 0.4469727 -0.0323172
vn 0.8940318 0.4470224 0.0296344
vn 0.8939567 0.40058 -0.2009404
vn 0.894032 0.4243367 -0.1436845
vn 0.8939399 0.2932396 -0.3389425
vn 0.894034 0.3370421 -0.2951369
vn 0.8939658 0.1411672 -0.4253199
vn 0.8940346 0.1984601 -0.4016413
vn 0.8939637 -0.0323172 -0.4469727
vn 0.8940318 0.0296344 -0.4470224
vn 0.8939567 -0.2009404 -0.40058
vn 0.894032 -0.1436845 -0.4243367
vn 0.8939399 -0.3389425 -0.2932396
vn 0.894034 -0.2951369 -0.3370421
vn 0.8939658 -0.4253199 -0.1411672
vn 0.8940346 -0.4016413 -0.1984601
vn 0.8939637 -0.4469727 0.0323172
vn 0.8940318 -0.4470224 -0.0296344
vn 0.8939567 -0.40058 0.2009404
vn 0.894032 -0.4243367 0.1436845
vn 0.8939399 -0.2932396 0.3389425
vn 0.894034 -0.3370421 0.2951369
vn 0.8939658 -0.1411672 0.4253199
vn 0.8940346 -0.1984601 0.4016413
vn 0.8940939 0.1963659 0.4025377
vn 0.9553451 0.0180447 0.2949408
vn 0.8941115 0.3354181 0.296748
vn 0.8940819 0.423511 0.1457946
vn 0.8940846 0.4470621 -0.0273517
vn 0.8940939 0.4025377 -0.1963659
vn 0.8941115 0.296748 -0.3354181
vn 0.8940819 0.1457946 -0.423511
vn 0.9553451 -0.0180447 -0.2949408
vn 0.985505 -0.0743787 -0.1524717
vn 0.9903566 -0.1037623 -0.0917996
vn 0.9855045 -0.1604103 -0.0552216
vn 0.9758773 -0.2179123 0.0133321
vn 0.985505 -0.1524717 0.0743787
vn 0.9903566 -0.0917996 0.1037623
vn 0.9855045 -0.0552216 0.1604103
vn 4.17e-05 0.1528351 -0.9882517
vn 0.0 0.0773848 -0.9970013
vn 9.3e-06 0.1951122 -0.9807809
vn -4.17e-05 0.1528351 -0.9882517
vn -4.4e-06 0.1951084 -0.9807817
vn -0.9978196 -0.0660003 0.0
vn -0.9975996 0.0692464 0.0
vn -0.9471957 -0.3206561 0.0
vn -0.8963316 -0.4433842 0.0
vn -0.7520917 -0.6590584 0.0
vn -0.6590584 -0.7520917 0.0
vn -0.4433842 -0.8963316 0.0
vn -0.3201976 -0.9473508 0.0
vn -0.017251 -0.9998512 0.0
vn -0.0046637 -0.9999891 0.0
vn 0.0046141 -0.9999894 0.0
vn 0.0173371 -0.9998497 0.0
vn 0.3206561 -0.9471957 0.0
vn 0.4433842 -0.8963316 0.0
vn 0.6590584 -0.7520917 0.0
vn 0.7520917 -0.6590584 0.0
vn 0.8963316 -0.4433842 0.0
vn 0.9471957 -0.3206561 0.0
vn 0.9978196 -0.0660003 0.0
vn 0.9975996 0.0692464 0.0
vn 0.9461662 0.3236812 0.0
vn 0.8951681 0.4457287 0.0
vn 0.7504142 0.6609679 0.0
vn 0.6578327 0.7531641 0.0
vn 0.4419268 0.8970511 0.0
vn 0.3197441 0.9475039 0.0
vn 0.017167 0.9998526 0.0
vn 0.0046596 0.9999891 0.0
vn -0.0046182 0.9999893 0.0
vn -0.0172381 0.9998514 0.0
vn -0.3201284 0.9473742 0.0
vn -0.4419268 0.8970511 0.0
vn -0.6578327 0.7531641 0.0
vn -0.7504142 0.6609679 0.0
vn -0.8951681 0.4457287 0.0
vn -0.9461662 0.3236812 0.0
f 1//1 2//1 3//1
f 1//1 3//1 4//1
f 2//1 5//1 6//1
f 2//1 6//1 3//1
f 5//1 7//1 8//1
f 5//1 8//1 6//1
f 7//1 9//1 10//1
f 7//1 10//1 8//1
f 9//1 11//1 12//1
f 9//1 12//1 10//1
f 11//1 13//1 14//1
f 11//1 14//1 12//1
f 13//1 15//1 16//1
f 13//1 16//1 14//1
f 15//1 17//1 18//1
f 15//1 18//1 16//1
f 17//1 19//1 20//1
f 17//1 20//1 18//1
f 19//1 21//1 22//1
f 19//1 22//1 20//1
f 21//1 23//1 24//1
f 21//1 24//1 22//1
f 23//1 25//1 26//1
f 23//1 26//1 24//1
f 25//1 27//1 28//1
f 25//1 28//1 26//1
f 27//1 29//1 30//1
f 27//1 30//1 28//1
f 29//1 31//1 32//1
f 29//1 32//1 30//1
f 31//1 1//1 4//1
f 31//1 4//1 32//1
f 33//2 34//3 35//4
f 33//2 35//4 36//4
f 37//5 38//5 39//6
f 37//5 39//6 40//7
f 33//1 36//1 37//1
f 40//7 39//6 41//8
f 42//9 40//7 41//8
f 42//9 41//8 43//10
f 44//11 42//9 43//10
f 44//11 43//10 45//12
f 46//13 44//11 45//12
f 42//1 44//1 46//1
f 42//1 46//1 40//1
f 47//1 45//1 48//1
f 45//1 43//1 48//1
f 48//1 43//1 41//1
f 48//1 41//1 39//1
f 35//4 49//14 50//15
f 36//4 35//4 50//15
f 51//16 52//17 53//17
f 54//18 51//16 53//17
f 54//1 53//1 50//1
f 54//1 50//1 55//1
f 56//19 51//16 54//18
f 56//19 54//18 57//20
f 58//21 56//19 57//20
f 58//21 57//20 59//22
f 60//23 58//21 59//22
f 60//23 59//22 55//24
f 55//1 59//1 57//1
f 54//1 55//1 57//1
f 61//1 60//1 62//1
f 58//1 60//1 61//1
f 58//1 61//1 56//1
f 56//1 61//1 51//1
f 40//1 46//1 33//1
f 40//1 33//1 37//1
f 50//1 53//1 36//1
f 36//1 53//1 37//1
f 45//12 47//25 33//2
f 45//12 33//2 46//13
f 49//14 60//23 55//24
f 49//14 55//24 50//15
f 63//1 64//1 65//1
f 63//1 65//1 48//1
f 66//1 67//1 68//1
f 61//1 66//1 68//1
f 63//1 48//1 39//1
f 63//1 39//1 38//1
f 63//1 38//1 69//1
f 68//1 51//1 61//1
f 68//1 70//1 52//1
f 68//1 52//1 51//1
f 9//26 7//27 71//28
f 72//26 9//26 71//28
f 73//29 38//5 37//5
f 74//30 73//29 37//5
f 37//1 72//1 71//1
f 75//31 73//29 74//30
f 75//31 74//30 76//32
f 77//33 75//31 76//32
f 77//33 76//32 78//34
f 79//35 77//33 78//34
f 79//35 78//34 80//36
f 80//1 78//1 76//1
f 74//1 80//1 76//1
f 5//1 79//1 81//1
f 5//1 77//1 79//1
f 75//1 77//1 5//1
f 73//1 75//1 5//1
f 82//37 11//38 9//26
f 82//37 9//26 72//26
f 53//17 52//17 83//39
f 53//17 83//39 84//40
f 82//1 53//1 84//1
f 85//1 82//1 84//1
f 84//40 83//39 86//41
f 87//42 84//40 86//41
f 87//42 86//41 88//43
f 89//44 87//42 88//43
f 89//44 88//43 90//45
f 85//46 89//44 90//45
f 87//1 89//1 85//1
f 87//1 85//1 84//1
f 91//1 90//1 13//1
f 13//1 90//1 88//1
f 86//1 13//1 88//1
f 83//1 13//1 86//1
f 71//1 80//1 74//1
f 37//1 71//1 74//1
f 72//1 53//1 82//1
f 37//1 53//1 72//1
f 71//28 81//47 79//35
f 80//36 71//28 79//35
f 85//46 90//45 11//38
f 82//37 85//46 11//38
f 2//1 1//1 92//1
f 5//1 2//1 92//1
f 93//1 17//1 15//1
f 93//1 15//1 13//1
f 73//1 5//1 92//1
f 38//1 73//1 92//1
f 69//1 38//1 92//1
f 13//1 83//1 93//1
f 52//1 70//1 93//1
f 83//1 52//1 93//1
f 94//1 95//1 96//1
f 94//1 96//1 97//1
f 98//1 99//1 95//1
f 98//1 95//1 94//1
f 100//1 101//1 99//1
f 100//1 99//1 98//1
f 102//1 103//1 101//1
f 102//1 101//1 100//1
f 104//1 105//1 103//1
f 104//1 103//1 102//1
f 106//1 107//1 105//1
f 106//1 105//1 104//1
f 108//1 109//1 107//1
f 108//1 107//1 106//1
f 110//1 111//1 109//1
f 110//1 109//1 108//1
f 112//1 113//1 111//1
f 112//1 111//1 110//1
f 114//1 115//1 113//1
f 114//1 113//1 112//1
f 116//1 117//1 115//1
f 116//1 115//1 114//1
f 118//1 119//1 117//1
f 118//1 117//1 116//1
f 120//1 121//1 119//1
f 120//1 119//1 118//1
f 122//1 123//1 121//1
f 122//1 121//1 120//1
f 124//1 125//1 123//1
f 124//1 123//1 122//1
f 97//1 96//1 125//1
f 97//1 125//1 124//1
f 3//48 120//49 118//50
f 4//51 3//48 118//50
f 6//52 122//53 120//49
f 3//48 6//52 120//49
f 8//54 124//55 122//53
f 6//52 8//54 122//53
f 10//56 97//57 124//55
f 8//54 10//56 124//55
f 12//58 94//59 97//57
f 10//56 12//58 97//57
f 14//60 98//61 94//59
f 12//58 14//60 94//59
f 16//62 100//63 98//61
f 14//60 16//62 98//61
f 18//64 102//65 100//63
f 16//62 18//64 100//63
f 20//66 104//67 102//65
f 18//64 20//66 102//65
f 22//68 106//69 104//67
f 20//66 22//68 104//67
f 24//70 108//71 106//69
f 22//68 24//70 106//69
f 26//72 110//73 108//71
f 24//70 26//72 108//71
f 28//74 112//75 110//73
f 26//72 28//74 110//73
f 30//76 114//77 112//75
f 28//74 30//76 112//75
f 32//78 116//79 114//77
f 30//76 32//78 114//77
f 4//51 118//50 116//79
f 32//78 4//51 116//79
f 121//80 126//81 127//82
f 119//83 121//80 127//82
f 123//84 128//85 126//81
f 121//80 123//84 126//81
f 125//86 129//87 128//85
f 123//84 125//86 128//85
f 96//88 130//89 129//87
f 125//86 96//88 129//87
f 95//90 131//91 130//89
f 96//88 95//90 130//89
f 99//92 132//93 131//91
f 95//90 99//92 131//91
f 101//94 133//95 132//93
f 99//92 101//94 132//93
f 103//96 134//97 133//95
f 101//94 103//96 133//95
f 105//98 135//99 134//97
f 103//96 105//98 134//97
f 107//100 136//101 135//99
f 105//98 107//100 135//99
f 109//102 137//103 136//101
f 107//100 109//102 136//101
f 111//104 138//105 137//103
f 109//102 111//104 137//103
f 113//106 139//107 138//105
f 111//104 113//106 138//105
f 115//108 140//109 139//107
f 113//106 115//108 139//107
f 117//110 141//111 140//109
f 115//108 117//110 140//109
f 119//83 127//82 141//111
f 117//110 119//83 141//111
f 130//112 131//112 142//112
f 143//112 130//112 142//112
f 131//112 132//112 144//112
f 142//112 131//112 144//112
f 132//112 133//112 145//112
f 144//112 132//112 145//112
f 133//112 134//112 146//112
f 145//112 133//112 146//112
f 134//112 135//112 147//112
f 146//112 134//112 147//112
f 135//112 136//112 148//112
f 147//112 135//112 148//112
f 136//112 137//112 149//112
f 148//112 136//112 149//112
f 137//112 138//112 150//112
f 149//112 137//112 150//112
f 138//112 139//112 151//112
f 150//112 138//112 151//112
f 139//112 140//112 152//112
f 151//112 139//112 152//112
f 140//112 141//112 153//112
f 152//112 140//112 153//112
f 141//112 127//112 154//112
f 153//112 141//112 154//112
f 127//112 126//112 155//112
f 154//112 127//112 155//112
f 126//112 128//112 156//112
f 155//112 126//112 156//112
f 128//112 129//112 157//112
f 156//112 128//112 157//112
f 129//112 130//112 143//112
f 157//112 129//112 143//112
f 154//50 155//49 158//48
f 154//50 158//48 159//51
f 155//49 156//53 160//52
f 155//49 160//52 158//48
f 156//53 157//55 161//54
f 156//53 161//54 160//52
f 157//55 143//57 162//56
f 157//55 162//56 161//54
f 143//57 142//59 163//58
f 143//57 163//58 162//56
f 142//59 144//61 164//60
f 142//59 164//60 163//58
f 144//61 145//63 165//62
f 144//61 165//62 164//60
f 145//63 146//65 166//64
f 145//63 166//64 165//62
f 146//65 147//67 167//66
f 146//65 167//66 166//64
f 147//67 148//69 168//68
f 147//67 168//68 167//66
f 148//69 149//71 169//70
f 148//69 169//70 168//68
f 149//71 150//73 170//72
f 149//71 170//72 169//70
f 150//73 151//75 171//74
f 150//73 171//74 170//72
f 151//75 152//77 172//76
f 151//75 172//76 171//74
f 152//77 153//79 173//78
f 152//77 173//78 172//76
f 153//79 154//50 159//51
f 153//79 159//51 173//78
f 174//4 175//3 176//113
f 177//4 174//4 176//113
f 178//6 179//5 180//5
f 181//7 178//6 180//5
f 180//112 177//112 176//112
f 182//8 178//6 181//7
f 182//8 181//7 183//9
f 184//10 182//8 183//9
f 184//10 183//9 185//11
f 186//114 184//10 185//11
f 186//114 185//11 187//13
f 187//112 185//112 183//112
f 181//112 187//112 183//112
f 188//112 186//112 189//112
f 188//112 184//112 186//112
f 182//112 184//112 188//112
f 178//112 182//112 188//112
f 190//15 191//14 174//4
f 190//15 174//4 177//4
f 192//17 193//17 194//16
f 192//17 194//16 195//18
f 190//112 192//112 195//112
f 196//112 190//112 195//112
f 195//18 194//16 197//19
f 198//20 195//18 197//19
f 198//20 197//19 199//21
f 200//22 198//20 199//21
f 200//22 199//21 201//23
f 196//24 200//22 201//23
f 198//112 200//112 196//112
f 198//112 196//112 195//112
f 202//112 201//112 203//112
f 203//112 201//112 199//112
f 197//112 203//112 199//112
f 194//112 203//112 197//112
f 176//112 187//112 181//112
f 180//112 176//112 181//112
f 177//112 192//112 190//112
f 180//112 192//112 177//112
f 176//113 189//115 186//114
f 187//13 176//113 186//114
f 196//24 201//23 191//14
f 190//15 196//24 191//14
f 204//112 205//112 206//112
f 188//112 204//112 206//112
f 207//112 208//112 209//112
f 207//112 209//112 203//112
f 178//112 188//112 206//112
f 179//112 178//112 206//112
f 210//112 179//112 206//112
f 203//112 194//112 207//112
f 193//112 211//112 207//112
f 194//112 193//112 207//112
f 212//116 213//27 214//26
f 212//116 214//26 215//26
f 180//5 179//5 216//29
f 180//5 216//29 217//30
f 212//112 215//112 180//112
f 217//30 216//29 218//31
f 219//32 217//30 218//31
f 219//32 218//31 220//33
f 221//34 219//32 220//33
f 221//34 220//33 222//117
f 223//36 221//34 222//117
f 219//112 221//112 223//112
f 219//112 223//112 217//112
f 224//112 222//112 225//112
f 222//112 220//112 225//112
f 225//112 220//112 218//112
f 225//112 218//112 216//112
f 214//26 226//38 227//37
f 215//26 214//26 227//37
f 228//39 193//17 192//17
f 229//40 228//39 192//17
f 229//112 192//112 227//112
f 229//112 227//112 230//112
f 231//41 228//39 229//40
f 231//41 229//40 232//42
f 233//43 231//41 232//42
f 233//43 232//42 234//44
f 235//45 233//43 234//44
f 235//45 234//44 230//46
f 230//112 234//112 232//112
f 229//112 230//112 232//112
f 236//112 235//112 237//112
f 233//112 235//112 236//112
f 233//112 236//112 231//112
f 231//112 236//112 228//112
f 217//112 223//112 212//112
f 217//112 212//112 180//112
f 227//112 192//112 215//112
f 215//112 192//112 180//112
f 222//117 224//118 212//116
f 222//117 212//116 223//36
f 226//38 235//45 230//46
f 226//38 230//46 227//37
f 238//112 239//112 240//112
f 238//112 240//112 225//112
f 241//112 242//112 243//112
f 236//112 241//112 243//112
f 238//112 225//112 216//112
f 238//112 216//112 179//112
f 238//112 179//112 210//112
f 243//112 228//112 236//112
f 243//112 211//112 193//112
f 243//112 193//112 228//112
f 158//112 240//112 239//112
f 159//112 158//112 239//112
f 160//112 225//112 240//112
f 158//112 160//112 240//112
f 161//112 213//112 225//112
f 160//112 161//112 225//112
f 162//112 214//112 213//112
f 161//112 162//112 213//112
f 163//112 226//112 214//112
f 162//112 163//112 214//112
f 164//112 236//112 226//112
f 163//112 164//112 226//112
f 165//112 241//112 236//112
f 164//112 165//112 236//112
f 166//112 242//112 241//112
f 165//112 166//112 241//112
f 167//112 244//112 242//112
f 166//112 167//112 242//112
f 168//112 245//112 244//112
f 167//112 168//112 244//112
f 169//112 246//112 245//112
f 168//112 169//112 245//112
f 170//112 247//112 246//112
f 169//112 170//112 246//112
f 171//112 248//112 247//112
f 170//112 171//112 247//112
f 172//112 249//112 248//112
f 171//112 172//112 248//112
f 173//112 250//112 249//112
f 172//112 173//112 249//112
f 159//112 239//112 250//112
f 173//112 159//112 250//112
f 251//1 252//1 253//1
f 251//1 253//1 254//1
f 252//1 255//1 256//1
f 252//1 256//1 253//1
f 255//1 257//1 258//1
f 255//1 258//1 256//1
f 257//1 259//1 260//1
f 257//1 260//1 258//1
f 259//1 261//1 262//1
f 259//1 262//1 260//1
f 261//1 263//1 264//1
f 261//1 264//1 262//1
f 263//1 265//1 266//1
f 263//1 266//1 264//1
f 265//1 267//1 268//1
f 265//1 268//1 266//1
f 267//1 269//1 270//1
f 267//1 270//1 268//1
f 269//1 271//1 272//1
f 269//1 272//1 270//1
f 271//1 273//1 274//1
f 271//1 274//1 272//1
f 273//1 275//1 276//1
f 273//1 276//1 274//1
f 275//1 277//1 278//1
f 275//1 278//1 276//1
f 277//1 279//1 280//1
f 277//1 280//1 278//1
f 279//1 281//1 282//1
f 279//1 282//1 280//1
f 281//1 251//1 254//1
f 281//1 254//1 282//1
f 283//2 27//3 25//4
f 283//2 25//4 284//4
f 285//5 286//5 287//6
f 285//5 287//6 288//7
f 283//1 284//1 285//1
f 288//7 287//6 289//8
f 290//9 288//7 289//8
f 290//9 289//8 291//10
f 292//11 290//9 291//10
f 292//11 291//10 293//12
f 294//13 292//11 293//12
f 290//1 292//1 294//1
f 290//1 294//1 288//1
f 295//1 293//1 29//1
f 293//1 291//1 29//1
f 29//1 291//1 289//1
f 29//1 289//1 287//1
f 25//4 23//14 296//15
f 284//4 25//4 296//15
f 297//16 298//17 299//17
f 300//18 297//16 299//17
f 300//1 299//1 296//1
f 300//1 296//1 301//1
f 302//19 297//16 300//18
f 302//19 300//18 303//20
f 304//21 302//19 303//20
f 304//21 303//20 305//22
f 306//23 304//21 305//22
f 306//23 305//22 301//24
f 301//1 305//1 303//1
f 300//1 301//1 303//1
f 21//1 306//1 307//1
f 304//1 306//1 21//1
f 304//1 21//1 302//1
f 302//1 21//1 297//1
f 288//1 294//1 283//1
f 288//1 283//1 285//1
f 296//1 299//1 284//1
f 284//1 299//1 285//1
f 293//12 295//25 283//2
f 293//12 283//2 294//13
f 23//14 306//23 301//24
f 23//14 301//24 296//15
f 308//1 1//1 31//1
f 308//1 31//1 29//1
f 19//1 17//1 309//1
f 21//1 19//1 309//1
f 308//1 29//1 287//1
f 308//1 287//1 286//1
f 308//1 286//1 310//1
f 309//1 297//1 21//1
f 309//1 311//1 298//1
f 309//1 298//1 297//1
f 259//26 257//27 312//28
f 313//26 259//26 312//28
f 314//29 286//5 285//5
f 315//30 314//29 285//5
f 285//1 313//1 312//1
f 316//31 314//29 315//30
f 316//31 315//30 317//32
f 318//33 316//31 317//32
f 318//33 317//32 319//34
f 320//35 318//33 319//34
f 320//35 319//34 321//36
f 321//1 319//1 317//1
f 315//1 321//1 317//1
f 255//1 320//1 322//1
f 255//1 318//1 320//1
f 316//1 318//1 255//1
f 314//1 316//1 255//1
f 323//37 261//38 259//26
f 323//37 259//26 313//26
f 299//17 298//17 324//39
f 299//17 324//39 325//40
f 323//1 299//1 325//1
f 326//1 323//1 325//1
f 325//40 324//39 327//41
f 328//42 325//40 327//41
f 328//42 327//41 329//43
f 330//44 328//42 329//43
f 330//44 329//43 331//45
f 326//46 330//44 331//45
f 328//1 330//1 326//1
f 328//1 326//1 325//1
f 332//1 331//1 263//1
f 263//1 331//1 329//1
f 327//1 263//1 329//1
f 324//1 263//1 327//1
f 312//1 321//1 315//1
f 285//1 312//1 315//1
f 313//1 299//1 323//1
f 285//1 299//1 313//1
f 312//28 322//47 320//35
f 321//36 312//28 320//35
f 326//46 331//45 261//38
f 323//37 326//46 261//38
f 252//1 251//1 333//1
f 255//1 252//1 333//1
f 334//1 267//1 265//1
f 334//1 265//1 263//1
f 314//1 255//1 333//1
f 286//1 314//1 333//1
f 310//1 286//1 333//1
f 263//1 324//1 334//1
f 298//1 311//1 334//1
f 324//1 298//1 334//1
f 335//1 336//1 337//1
f 335//1 337//1 338//1
f 339//1 340//1 336//1
f 339//1 336//1 335//1
f 341//1 342//1 340//1
f 341//1 340//1 339//1
f 343//1 344//1 342//1
f 343//1 342//1 341//1
f 345//1 346//1 344//1
f 345//1 344//1 343//1
f 347//1 348//1 346//1
f 347//1 346//1 345//1
f 349//1 350//1 348//1
f 349//1 348//1 347//1
f 351//1 352//1 350//1
f 351//1 350//1 349//1
f 353//1 354//1 352//1
f 353//1 352//1 351//1
f 355//1 356//1 354//1
f 355//1 354//1 353//1
f 357//1 358//1 356//1
f 357//1 356//1 355//1
f 359//1 360//1 358//1
f 359//1 358//1 357//1
f 361//1 362//1 360//1
f 361//1 360//1 359//1
f 363//1 364//1 362//1
f 363//1 362//1 361//1
f 365//1 366//1 364//1
f 365//1 364//1 363//1
f 338//1 337//1 366//1
f 338//1 366//1 365//1
f 253//48 361//49 359//50
f 254//51 253//48 359//50
f 256//52 363//53 361//49
f 253//48 256//52 361//49
f 258//54 365//55 363//53
f 256//52 258//54 363//53
f 260//56 338//57 365//55
f 258//54 260//56 365//55
f 262//58 335//59 338//57
f 260//56 262//58 338//57
f 264//60 339//61 335//59
f 262//58 264//60 335//59
f 266//62 341//63 339//61
f 264//60 266//62 339//61
f 268//64 343//65 341//63
f 266//62 268//64 341//63
f 270//66 345//67 343//65
f 268//64 270//66 343//65
f 272//68 347//69 345//67
f 270//66 272//68 345//67
f 274//70 349//71 347//69
f 272//68 274//70 347//69
f 276//72 351//73 349//71
f 274//70 276//72 349//71
f 278//74 353//75 351//73
f 276//72 278//74 351//73
f 280//76 355//77 353//75
f 278//74 280//76 353//75
f 282//78 357//79 355//77
f 280//76 282//78 355//77
f 254//51 359//50 357//79
f 282//78 254//51 357//79
f 362//80 367//81 368//82
f 360//83 362//80 368//82
f 364//84 369//85 367//81
f 362//80 364//84 367//81
f 366//86 370//87 369//85
f 364//84 366//86 369//85
f 337//88 371//89 370//87
f 366//86 337//88 370//87
f 336//90 372//91 371//89
f 337//88 336//90 371//89
f 340//92 373//93 372//91
f 336//90 340//92 372//91
f 342//94 374//95 373//93
f 340//92 342//94 373//93
f 344//96 375//97 374//95
f 342//94 344//96 374//95
f 346//98 376//99 375//97
f 344//96 346//98 375//97
f 348//100 377//101 376//99
f 346//98 348//100 376//99
f 350//102 378//103 377//101
f 348//100 350//102 377//101
f 352//104 379//105 378//103
f 350//102 352//104 378//103
f 354//106 380//107 379//105
f 352//104 354//106 379//105
f 356//108 381//109 380//107
f 354//106 356//108 380//107
f 358//110 382//111 381//109
f 356//108 358//110 381//109
f 360//83 368//82 382//111
f 358//110 360//83 382//111
f 371//112 372//112 383//112
f 384//112 371//112 383//112
f 372//112 373//112 385//112
f 383//112 372//112 385//112
f 373//112 374//112 386//112
f 385//112 373//112 386//112
f 374//112 375//112 387//112
f 386//112 374//112 387//112
f 375//112 376//112 388//112
f 387//112 375//112 388//112
f 376//112 377//112 389//112
f 388//112 376//112 389//112
f 377//112 378//112 390//112
f 389//112 377//112 390//112
f 378//112 379//112 391//112
f 390//112 378//112 391//112
f 379//112 380//112 392//112
f 391//112 379//112 392//112
f 380//112 381//112 393//112
f 392//112 380//112 393//112
f 381//112 382//112 394//112
f 393//112 381//112 394//112
f 382//112 368//112 395//112
f 394//112 382//112 395//112
f 368//112 367//112 396//112
f 395//112 368//112 396//112
f 367//112 369//112 397//112
f 396//112 367//112 397//112
f 369//112 370//112 398//112
f 397//112 369//112 398//112
f 370//112 371//112 384//112
f 398//112 370//112 384//112
f 395//50 396//49 399//48
f 395//50 399//48 400//51
f 396//49 397//53 401//52
f 396//49 401//52 399//48
f 397//53 398//55 402//54
f 397//53 402//54 401//52
f 398//55 384//57 403//56
f 398//55 403//56 402//54
f 384//57 383//59 404//58
f 384//57 404//58 403//56
f 383//59 385//61 405//60
f 383//59 405//60 404//58
f 385//61 386//63 406//62
f 385//61 406//62 405//60
f 386//63 387//65 407//64
f 386//63 407//64 406//62
f 387//65 388//67 408//66
f 387//65 408//66 407//64
f 388//67 389//69 409//68
f 388//67 409//68 408//66
f 389//69 390//71 410//70
f 389//69 410//70 409//68
f 390//71 391//73 411//72
f 390//71 411//72 410//70
f 391//73 392//75 412//74
f 391//73 412//74 411//72
f 392//75 393//77 413//76
f 392//75 413//76 412//74
f 393//77 394//79 414//78
f 393//77 414//78 413//76
f 394//79 395//50 400//51
f 394//79 400//51 414//78
f 247//4 248//3 415//113
f 416//4 247//4 415//113
f 417//6 418//5 419//5
f 420//7 417//6 419//5
f 419//112 416//112 415//112
f 421//8 417//6 420//7
f 421//8 420//7 422//9
f 423//10 421//8 422//9
f 423//10 422//9 424//11
f 425//114 423//10 424//11
f 425//114 424//11 426//13
f 426//112 424//112 422//112
f 420//112 426//112 422//112
f 249//112 425//112 427//112
f 249//112 423//112 425//112
f 421//112 423//112 249//112
f 417//112 421//112 249//112
f 428//15 246//14 247//4
f 428//15 247//4 416//4
f 429//17 430//17 431//16
f 429//17 431//16 432//18
f 428//112 429//112 432//112
f 433//112 428//112 432//112
f 432//18 431//16 434//19
f 435//20 432//18 434//19
f 435//20 434//19 436//21
f 437//22 435//20 436//21
f 437//22 436//21 438//23
f 433//24 437//22 438//23
f 435//112 437//112 433//112
f 435//112 433//112 432//112
f 439//112 438//112 245//112
f 245//112 438//112 436//112
f 434//112 245//112 436//112
f 431//112 245//112 434//112
f 415//112 426//112 420//112
f 419//112 415//112 420//112
f 416//112 429//112 428//112
f 419//112 429//112 416//112
f 415//113 427//115 425//114
f 426//13 415//113 425//114
f 433//24 438//23 246//14
f 428//15 433//24 246//14
f 250//112 239//112 440//112
f 249//112 250//112 440//112
f 441//112 242//112 244//112
f 441//112 244//112 245//112
f 417//112 249//112 440//112
f 418//112 417//112 440//112
f 442//112 418//112 440//112
f 245//112 431//112 441//112
f 430//112 443//112 441//112
f 431//112 430//112 441//112
f 444//116 445//27 446//26
f 444//116 446//26 447//26
f 419//5 418//5 448//29
f 419//5 448//29 449//30
f 444//112 447//112 419//112
f 449//30 448//29 450//31
f 451//32 449//30 450//31
f 451//32 450//31 452//33
f 453//34 451//32 452//33
f 453//34 452//33 454//117
f 455//36 453//34 454//117
f 451//112 453//112 455//112
f 451//112 455//112 449//112
f 456//112 454//112 457//112
f 454//112 452//112 457//112
f 457//112 452//112 450//112
f 457//112 450//112 448//112
f 446//26 458//38 459//37
f 447//26 446//26 459//37
f 460//39 430//17 429//17
f 461//40 460//39 429//17
f 461//112 429//112 459//112
f 461//112 459//112 462//112
f 463//41 460//39 461//40
f 463//41 461//40 464//42
f 465//43 463//41 464//42
f 465//43 464//42 466//44
f 467//45 465//43 466//44
f 467//45 466//44 462//46
f 462//112 466//112 464//112
f 461//112 462//112 464//112
f 468//112 467//112 469//112
f 465//112 467//112 468//112
f 465//112 468//112 463//112
f 463//112 468//112 460//112
f 449//112 455//112 444//112
f 449//112 444//112 419//112
f 459//112 429//112 447//112
f 447//112 429//112 419//112
f 454//117 456//118 444//116
f 454//117 444//116 455//36
f 458//38 467//45 462//46
f 458//38 462//46 459//37
f 470//112 471//112 472//112
f 470//112 472//112 457//112
f 473//112 474//112 475//112
f 468//112 473//112 475//112
f 470//112 457//112 448//112
f 470//112 448//112 418//112
f 470//112 418//112 442//112
f 475//112 460//112 468//112
f 475//112 443//112 430//112
f 475//112 430//112 460//112
f 399//112 472//112 471//112
f 400//112 399//112 471//112
f 401//112 457//112 472//112
f 399//112 401//112 472//112
f 402//112 445//112 457//112
f 401//112 402//112 457//112
f 403//112 446//112 445//112
f 402//112 403//112 445//112
f 404//112 458//112 446//112
f 403//112 404//112 446//112
f 405//112 468//112 458//112
f 404//112 405//112 458//112
f 406//112 473//112 468//112
f 405//112 406//112 468//112
f 407//112 474//112 473//112
f 406//112 407//112 473//112
f 408//112 476//112 474//112
f 407//112 408//112 474//112
f 409//112 477//112 476//112
f 408//112 409//112 476//112
f 410//112 478//112 477//112
f 409//112 410//112 477//112
f 411//112 479//112 478//112
f 410//112 411//112 478//112
f 412//112 480//112 479//112
f 411//112 412//112 479//112
f 413//112 481//112 480//112
f 412//112 413//112 480//112
f 414//112 482//112 481//112
f 413//112 414//112 481//112
f 400//112 471//112 482//112
f 414//112 400//112 482//112
f 483//112 484//112 485//112
f 486//112 483//112 485//112
f 484//112 487//112 488//112
f 485//112 484//112 488//112
f 487//112 489//112 490//112
f 488//112 487//112 490//112
f 489//112 491//112 492//112
f 490//112 489//112 492//112
f 491//112 493//112 494//112
f 492//112 491//112 494//112
f 493//112 495//112 496//112
f 494//112 493//112 496//112
f 495//112 497//112 498//112
f 496//112 495//112 498//112
f 497//112 499//112 500//112
f 498//112 497//112 500//112
f 499//112 501//112 502//112
f 500//112 499//112 502//112
f 501//112 503//112 504//112
f 502//112 501//112 504//112
f 503//112 505//112 506//112
f 504//112 503//112 506//112
f 505//112 507//112 508//112
f 506//112 505//112 508//112
f 507//112 509//112 510//112
f 508//112 507//112 510//112
f 509//112 511//112 512//112
f 510//112 509//112 512//112
f 511//112 513//112 514//112
f 512//112 511//112 514//112
f 513//112 483//112 486//112
f 514//112 513//112 486//112
f 508//50 510//49 515//48
f 508//50 515//48 516//51
f 510//49 512//53 517//52
f 510//49 517//52 515//48
f 512//53 514//55 518//54
f 512//53 518//54 517//52
f 514//55 486//57 519//56
f 514//55 519//56 518//54
f 486//57 485//59 520//58
f 486//57 520//58 519//56
f 485//59 488//61 521//60
f 485//59 521//60 520//58
f 488//61 490//63 522//62
f 488//61 522//62 521//60
f 490//63 492//65 523//64
f 490//63 523//64 522//62
f 492//65 494//67 524//66
f 492//65 524//66 523//64
f 494//67 496//69 525//68
f 494//67 525//68 524//66
f 496//69 498//71 526//70
f 496//69 526//70 525//68
f 498//71 500//73 527//72
f 498//71 527//72 526//70
f 500//73 502//75 528//74
f 500//73 528//74 527//72
f 502//75 504//77 529//76
f 502//75 529//76 528//74
f 504//77 506//79 530//78
f 504//77 530//78 529//76
f 506//79 508//50 516//51
f 506//79 516//51 530//78
f 205//112 204//112 530//112
f 205//112 530//112 516//112
f 204//112 188//112 529//112
f 204//112 529//112 530//112
f 188//112 175//112 528//112
f 188//112 528//112 529//112
f 175//112 174//112 527//112
f 175//112 527//112 528//112
f 174//112 191//112 526//112
f 174//112 526//112 527//112
f 191//112 203//112 525//112
f 191//112 525//112 526//112
f 203//112 209//112 524//112
f 203//112 524//112 525//112
f 209//112 208//112 523//112
f 209//112 523//112 524//112
f 208//112 531//112 522//112
f 208//112 522//112 523//112
f 531//112 532//112 521//112
f 531//112 521//112 522//112
f 532//112 533//112 520//112
f 532//112 520//112 521//112
f 533//112 534//112 519//112
f 533//112 519//112 520//112
f 534//112 535//112 518//112
f 534//112 518//112 519//112
f 535//112 536//112 517//112
f 535//112 517//112 518//112
f 536//112 537//112 515//112
f 536//112 515//112 517//112
f 537//112 205//112 516//112
f 537//112 516//112 515//112
f 538//80 509//81 507//82
f 539//83 538//80 507//82
f 540//84 511//85 509//81
f 538//80 540//84 509//81
f 541//86 513//87 511//85
f 540//84 541//86 511//85
f 542//88 483//89 513//87
f 541//86 542//88 513//87
f 543//90 484//91 483//89
f 542//88 543//90 483//89
f 544//92 487//93 484//91
f 543//90 544//92 484//91
f 545//94 489//95 487//93
f 544//92 545//94 487//93
f 546//96 491//97 489//95
f 545//94 546//96 489//95
f 547//98 493//99 491//97
f 546//96 547//98 491//97
f 548//100 495//101 493//99
f 547//98 548//100 493//99
f 549//102 497//103 495//101
f 548//100 549//102 495//101
f 550//104 499//105 497//103
f 549//102 550//104 497//103
f 551//106 501//107 499//105
f 550//104 551//106 499//105
f 552//108 503//109 501//107
f 551//106 552//108 501//107
f 553//110 505//111 503//109
f 552//108 553//110 503//109
f 539//83 507//82 505//111
f 553//110 539//83 505//111
f 64//1 554//1 555//1
f 64//1 555//1 556//1
f 554//1 557//1 558//1
f 554//1 558//1 555//1
f 557//1 559//1 560//1
f 557//1 560//1 558//1
f 559//1 561//1 562//1
f 559//1 562//1 560//1
f 561//1 563//1 564//1
f 561//1 564//1 562//1
f 563//1 565//1 566//1
f 563//1 566//1 564//1
f 565//1 567//1 568//1
f 565//1 568//1 566//1
f 567//1 67//1 569//1
f 567//1 569//1 568//1
f 67//1 66//1 570//1
f 67//1 570//1 569//1
f 66//1 61//1 571//1
f 66//1 571//1 570//1
f 61//1 49//1 572//1
f 61//1 572//1 571//1
f 49//1 35//1 573//1
f 49//1 573//1 572//1
f 35//1 34//1 574//1
f 35//1 574//1 573//1
f 34//1 48//1 575//1
f 34//1 575//1 574//1
f 48//1 65//1 576//1
f 48//1 576//1 575//1
f 65//1 64//1 556//1
f 65//1 556//1 576//1
f 577//1 543//1 542//1
f 577//1 542//1 578//1
f 579//1 544//1 543//1
f 579//1 543//1 577//1
f 580//1 545//1 544//1
f 580//1 544//1 579//1
f 581//1 546//1 545//1
f 581//1 545//1 580//1
f 582//1 547//1 546//1
f 582//1 546//1 581//1
f 583//1 548//1 547//1
f 583//1 547//1 582//1
f 584//1 549//1 548//1
f 584//1 548//1 583//1
f 585//1 550//1 549//1
f 585//1 549//1 584//1
f 586//1 551//1 550//1
f 586//1 550//1 585//1
f 587//1 552//1 551//1
f 587//1 551//1 586//1
f 588//1 553//1 552//1
f 588//1 552//1 587//1
f 589//1 539//1 553//1
f 589//1 553//1 588//1
f 590//1 538//1 539//1
f 590//1 539//1 589//1
f 591//1 540//1 538//1
f 591//1 538//1 590//1
f 592//1 541//1 540//1
f 592//1 540//1 591//1
f 578//1 542//1 541//1
f 578//1 541//1 592//1
f 555//48 590//49 589//50
f 556//51 555//48 589//50
f 558//52 591//53 590//49
f 555//48 558//52 590//49
f 560//54 592//55 591//53
f 558//52 560//54 591//53
f 562//56 578//57 592//55
f 560//54 562//56 592//55
f 564//58 577//59 578//57
f 562//56 564//58 578//57
f 566//60 579//61 577//59
f 564//58 566//60 577//59
f 568//62 580//63 579//61
f 566//60 568//62 579//61
f 569//64 581//65 580//63
f 568//62 569//64 580//63
f 570//66 582//67 581//65
f 569//64 570//66 581//65
f 571//68 583//69 582//67
f 570//66 571//68 582//67
f 572//70 584//71 583//69
f 571//68 572//70 583//69
f 573//72 585//73 584//71
f 572//70 573//72 584//71
f 574//74 586//75 585//73
f 573//72 574//74 585//73
f 575//76 587//77 586//75
f 574//74 575//76 586//75
f 576//78 588//79 587//77
f 575//76 576//78 587//77
f 556//51 589//50 588//79
f 576//78 556//51 588//79
f 537//119 554//120 64//121
f 537//119 64//121 205//122
f 536//123 557//124 554//120
f 536//123 554//120 537//119
f 535//125 559//126 557//124
f 535//125 557//124 536//123
f 534//127 561//128 559//126
f 534//127 559//126 535//125
f 533//129 563//130 561//128
f 533//129 561//128 534//127
f 532//131 565//132 563//130
f 532//131 563//130 533//129
f 531//133 567//134 565//132
f 531//133 565//132 532//131
f 208//135 67//136 567//134
f 208//135 567//134 531//133
f 476//137 269//138 267//139
f 476//137 267//139 474//140
f 477//141 271//142 269//138
f 477//141 269//138 476//137
f 478//143 273//144 271//142
f 478//143 271//142 477//141
f 479//145 275//146 273//144
f 479//145 273//144 478//143
f 480//147 277//148 275//146
f 480//147 275//146 479//145
f 481//149 279//150 277//148
f 481//149 277//148 480//147
f 482//151 281//152 279//150
f 482//151 279//150 481//149
f 471//153 251//154 281//152
f 471//153 281//152 482//151
f 474//140 267//139 67//136
f 474//140 67//136 208//135
f 205//122 64//121 251//154
f 205//122 251//154 471//153
f 593//26 594//26 595//26
f 596//26 597//26 598//26
f 599//26 600//26 601//26
f 602//26 603//26 604//26
f 593//26 595//26 605//26
f 605//26 606//26 607//26
f 605//26 607//26 593//26
f 608//26 605//26 595//26
f 608//26 595//26 609//26
f 610//26 596//26 598//26
f 610//26 611//26 612//26
f 610//26 612//26 596//26
f 613//26 614//26 610//26
f 613//26 610//26 598//26
f 615//26 616//26 599//26
f 615//26 599//26 617//26
f 599//26 601//26 617//26
f 601//26 618//26 619//26
f 601//26 619//26 617//26
f 602//26 604//26 620//26
f 621//26 602//26 620//26
f 621//26 620//26 622//26
f 623//26 620//26 604//26
f 623//26 604//26 624//26
f 625//4 626//4 627//4
f 628//4 629//4 630//4
f 631//4 632//4 633//4
f 634//4 635//4 636//4
f 625//4 627//4 637//4
f 637//4 638//4 639//4
f 637//4 639//4 625//4
f 640//4 637//4 627//4
f 640//4 627//4 641//4
f 642//4 628//4 630//4
f 642//4 643//4 644//4
f 642//4 644//4 628//4
f 645//4 646//4 642//4
f 645//4 642//4 630//4
f 647//4 648//4 631//4
f 647//4 631//4 649//4
f 631//4 633//4 649//4
f 633//4 650//4 651//4
f 633//4 651//4 649//4
f 634//4 636//4 652//4
f 653//4 634//4 652//4
f 653//4 652//4 654//4
f 655//4 652//4 636//4
f 655//4 636//4 656//4
f 656//155 657//17 658//17
f 656//155 658//17 607//155
f 659//5 660//5 648//156
f 613//156 659//5 648//156
f 645//157 660//5 659//5
f 645//157 659//5 616//157
f 658//17 657//17 639//158
f 624//158 658//17 639//158
f 655//159 656//112 607//112
f 655//159 607//112 606//159
f 655//159 606//159 605//160
f 655//159 605//160 652//160
f 652//161 605//161 608//162
f 652//161 608//162 654//163
f 654//163 608//162 609//17
f 654//163 609//17 653//17
f 651//164 650//5 612//5
f 651//164 612//5 611//164
f 651//164 611//164 610//165
f 651//164 610//165 649//165
f 649//166 610//166 614//167
f 649//166 614//167 647//168
f 647//168 614//167 613//112
f 647//168 613//112 648//112
f 645//1 616//1 615//169
f 645//1 615//169 646//170
f 646//170 615//169 617//171
f 646//170 617//171 642//171
f 642//172 617//172 619//173
f 642//172 619//173 643//174
f 643//174 619//173 618//5
f 643//174 618//5 644//5
f 641//17 621//17 622//175
f 641//17 622//175 640//176
f 640//176 622//175 620//177
f 640//176 620//177 637//177
f 637//178 620//178 623//179
f 637//178 623//179 638//180
f 638//180 623//179 624//1
f 638//180 624//1 639//1
f 661//181 662//182 663//183
f 661//181 663//183 664//181
f 665//184 666//181 667//181
f 665//184 667//181 668//185
f 662//182 669//186 670//186
f 662//182 670//186 663//183
f 671//186 665//184 668//185
f 671//186 668//185 672//186
f 673//187 674//188 675//188
f 673//187 675//188 676//189
f 677//188 678//190 679//191
f 677//188 679//191 680//188
f 681//192 673//187 676//189
f 681//192 676//189 682//192
f 678//190 683//192 684//192
f 678//190 684//192 679//191
f 677//188 680//188 675//188
f 677//188 675//188 674//188
f 681//192 682//192 684//192
f 681//192 684//192 683//192
f 671//186 672//186 670//186
f 671//186 670//186 669//186
f 661//181 664//181 667//181
f 661//181 667//181 666//181
f 685//193 686//193 687//193
f 685//193 687//193 688//193
f 689//194 690//194 691//194
f 689//194 691//194 692//194
f 693//17 694//17 695//17
f 693//17 695//17 696//17
f 697//5 698//5 699//5
f 697//5 699//5 700//5
f 701//4 702//195 703//196
f 701//4 703//196 676//4
f 702//195 704//197 705//198
f 702//195 705//198 703//196
f 704//197 706//199 707//200
f 704//197 707//200 705//198
f 706//199 708//201 709//201
f 706//199 709//201 707//200
f 710//202 711//203 701//4
f 676//4 710//202 701//4
f 712//204 713//205 711//203
f 710//202 712//204 711//203
f 714//206 715//207 713//205
f 712//204 714//206 713//205
f 716//208 717//208 715//207
f 714//206 716//208 715//207
f 718//26 719//209 720//210
f 718//26 720//210 679//26
f 719//209 721//211 722//212
f 719//209 722//212 720//210
f 721//211 723//213 724//214
f 721//211 724//214 722//212
f 723//213 725//215 726//215
f 723//213 726//215 724//214
f 727//216 728//217 718//26
f 679//26 727//216 718//26
f 729//218 730//219 728//217
f 727//216 729//218 728//217
f 731//220 732//221 730//219
f 729//218 731//220 730//219
f 733//222 734//222 732//221
f 731//220 733//222 732//221
f 702//223 701//224 735//225
f 704//226 702//223 735//225
f 706//227 704//226 735//225
f 708//228 706//227 735//225
f 736//229 701//224 711//230
f 736//229 711//230 713//231
f 736//229 713//231 715//232
f 736//229 715//232 717//233
f 719//234 718//235 737//236
f 721//237 719//234 737//236
f 723//238 721//237 737//236
f 725//233 723//238 737//236
f 738//239 718//235 728//240
f 738//239 728//240 730//241
f 738//239 730//241 732//242
f 738//239 732//242 734//228
f 739//243 676//189 703//244
f 739//243 703//244 705//245
f 739//243 705//245 707//246
f 739//243 707//246 709//247
f 710//248 676//189 740//249
f 712//250 710//248 740//249
f 714//251 712//250 740//249
f 716//252 714//251 740//249
f 741//253 679//191 720//254
f 741//253 720//254 722//255
f 741//253 722//255 724//256
f 741//253 724//256 726//252
f 727//257 679//191 742//258
f 729//259 727//257 742//258
f 731//260 729//259 742//258
f 733//247 731//260 742//258
f 743//239 663//183 744//240
f 743//239 744//240 745//241
f 743//239 745//241 746//242
f 743//239 746//242 747//228
f 748//234 663//183 749//236
f 750//237 748//234 749//236
f 751//238 750//237 749//236
f 752//233 751//238 749//236
f 753//229 668//185 754//230
f 753//229 754//230 755//231
f 753//229 755//231 756//232
f 753//229 756//232 757//233
f 758//223 668//185 759//225
f 760//226 758//223 759//225
f 761//227 760//226 759//225
f 762//228 761//227 759//225
f 763//261 764//262 765//263
f 766//264 763//261 765//263
f 764//262 767//265 768//266
f 765//263 764//262 768//266
f 767//265 769//267 770//268
f 768//266 767//265 770//268
f 769//267 771//269 772//270
f 770//268 769//267 772//270
f 771//269 773//271 774//272
f 772//270 771//269 774//272
f 773//271 775//273 776//274
f 774//272 773//271 776//274
f 777//275 778//276 779//277
f 780//275 777//275 779//277
f 778//276 781//278 782//278
f 779//277 778//276 782//278
f 783//279 784//280 785//281
f 786//282 783//279 785//281
f 784//280 776//274 787//283
f 785//281 784//280 787//283
f 788//284 789//285 790//286
f 783//279 788//284 790//286
f 789//285 791//287 792//288
f 790//286 789//285 792//288
f 791//287 793//289 794//289
f 792//288 791//287 794//289
f 795//290 796//290 797//290
f 798//290 795//290 797//290
f 799//26 800//26 662//26
f 799//26 662//26 801//26
f 802//26 803//26 800//26
f 802//26 800//26 799//26
f 804//26 805//26 803//26
f 804//26 803//26 802//26
f 806//26 659//26 805//26
f 806//26 805//26 804//26
f 807//26 808//26 659//26
f 807//26 659//26 806//26
f 809//26 810//26 808//26
f 809//26 808//26 807//26
f 811//26 812//26 810//26
f 811//26 810//26 809//26
f 813//26 673//26 812//26
f 813//26 812//26 811//26
f 814//26 815//26 673//26
f 814//26 673//26 813//26
f 816//26 817//26 815//26
f 816//26 815//26 814//26
f 818//26 819//26 817//26
f 818//26 817//26 816//26
f 820//26 658//26 819//26
f 820//26 819//26 818//26
f 821//26 822//26 658//26
f 821//26 658//26 820//26
f 823//26 824//26 822//26
f 823//26 822//26 821//26
f 825//26 826//26 824//26
f 825//26 824//26 823//26
f 801//26 662//26 826//26
f 801//26 826//26 825//26
f 665//4 827//4 828//4
f 829//4 665//4 828//4
f 827//4 830//4 831//4
f 828//4 827//4 831//4
f 830//4 832//4 833//4
f 831//4 830//4 833//4
f 832//4 660//4 834//4
f 833//4 832//4 834//4
f 660//4 835//4 836//4
f 834//4 660//4 836//4
f 835//4 837//4 838//4
f 836//4 835//4 838//4
f 837//4 839//4 840//4
f 838//4 837//4 840//4
f 839//4 678//4 841//4
f 840//4 839//4 841//4
f 678//4 842//4 843//4
f 841//4 678//4 843//4
f 842//4 844//4 845//4
f 843//4 842//4 845//4
f 844//4 846//4 847//4
f 845//4 844//4 847//4
f 846//4 657//4 848//4
f 847//4 846//4 848//4
f 657//4 849//4 850//4
f 848//4 657//4 850//4
f 849//4 851//4 852//4
f 850//4 849//4 852//4
f 851//4 853//4 854//4
f 852//4 851//4 854//4
f 853//4 665//4 829//4
f 854//4 853//4 829//4
f 855//291 799//292 801//293
f 855//291 801//293 856//293
f 857//294 802//295 799//292
f 857//294 799//292 855//291
f 858//296 804//297 802//295
f 858//296 802//295 857//294
f 859//298 806//299 804//297
f 859//298 804//297 858//296
f 860//300 807//301 806//299
f 860//300 806//299 859//298
f 861//302 809//303 807//301
f 861//302 807//301 860//300
f 862//304 811//305 809//303
f 862//304 809//303 861//302
f 863//306 813//306 811//305
f 863//306 811//305 862//304
f 829//307 828//292 864//291
f 865//308 829//307 864//291
f 828//292 831//295 866//294
f 864//291 828//292 866//294
f 831//295 833//297 867//296
f 866//294 831//295 867//296
f 833//297 834//299 868//298
f 867//296 833//297 868//298
f 834//299 836//301 869//300
f 868//298 834//299 869//300
f 836//301 838//303 870//302
f 869//300 836//301 870//302
f 838//303 840//305 871//304
f 870//302 838//303 871//304
f 840//305 841//309 872//310
f 871//304 840//305 872//310
f 873//311 874//312 875//313
f 873//311 875//313 876//314
f 874//312 877//315 878//316
f 874//312 878//316 875//313
f 877//315 879//317 880//318
f 877//315 880//318 878//316
f 879//317 881//319 882//320
f 879//317 882//320 880//318
f 881//319 883//321 884//322
f 881//319 884//322 882//320
f 883//321 885//323 886//324
f 883//321 886//324 884//322
f 885//323 887//325 888//326
f 885//323 888//326 886//324
f 887//325 889//327 890//328
f 887//325 890//328 888//326
f 889//327 891//329 892//330
f 889//327 892//330 890//328
f 891//329 893//331 894//332
f 891//329 894//332 892//330
f 893//331 895//333 896//334
f 893//331 896//334 894//332
f 895//333 798//335 897//336
f 895//333 897//336 896//334
f 798//335 797//337 898//338
f 798//335 898//338 897//336
f 797//337 899//339 900//340
f 797//337 900//340 898//338
f 899//339 901//341 902//342
f 899//339 902//342 900//340
f 901//341 873//311 876//314
f 901//341 876//314 902//342
f 875//313 855//343 856//344
f 875//313 856//344 876//314
f 878//316 857//345 855//343
f 878//316 855//343 875//313
f 880//318 858//346 857//345
f 880//318 857//345 878//316
f 882//320 859//347 858//346
f 882//320 858//346 880//318
f 884//322 860//348 859//347
f 884//322 859//347 882//320
f 886//324 861//349 860//348
f 886//324 860//348 884//322
f 888//326 862//350 861//349
f 888//326 861//349 886//324
f 890//328 863//351 862//350
f 890//328 862//350 888//326
f 892//330 903//352 863//351
f 892//330 863//351 890//328
f 894//332 904//353 903//352
f 894//332 903//352 892//330
f 896//334 905//354 904//353
f 896//334 904//353 894//332
f 897//336 906//355 905//354
f 897//336 905//354 896//334
f 898//338 907//356 906//355
f 898//338 906//355 897//336
f 900//340 908//357 907//356
f 900//340 907//356 898//338
f 902//342 909//358 908//357
f 902//342 908//357 900//340
f 876//314 856//344 909//358
f 876//314 909//358 902//342
f 910//359 911//360 912//361
f 910//359 912//361 913//362
f 911//360 914//363 915//364
f 911//360 915//364 912//361
f 914//363 916//365 917//366
f 914//363 917//366 915//364
f 916//365 918//367 919//368
f 916//365 919//368 917//366
f 918//367 920//369 921//370
f 918//367 921//370 919//368
f 920//369 922//371 923//372
f 920//369 923//372 921//370
f 922//371 924//373 925//374
f 922//371 925//374 923//372
f 924//373 926//375 927//376
f 924//373 927//376 925//374
f 926//375 928//377 929//378
f 926//375 929//378 927//376
f 928//377 930//379 931//380
f 928//377 931//380 929//378
f 930//379 796//381 932//382
f 930//379 932//382 931//380
f 796//381 795//383 933//384
f 796//381 933//384 932//382
f 795//383 934//385 935//386
f 795//383 935//386 933//384
f 934//385 936//387 937//388
f 934//385 937//388 935//386
f 936//387 938//389 939//390
f 936//387 939//390 937//388
f 938//389 910//359 913//362
f 938//389 913//362 939//390
f 912//361 871//391 872//392
f 912//361 872//392 913//362
f 915//364 870//393 871//391
f 915//364 871//391 912//361
f 917//366 869//394 870//393
f 917//366 870//393 915//364
f 919//368 868//395 869//394
f 919//368 869//394 917//366
f 921//370 867//396 868//395
f 921//370 868//395 919//368
f 923//372 866//397 867//396
f 923//372 867//396 921//370
f 925//374 864//398 866//397
f 925//374 866//397 923//372
f 927//376 865//399 864//398
f 927//376 864//398 925//374
f 929//378 940//400 865//399
f 929//378 865//399 927//376
f 931//380 941//401 940//400
f 931//380 940//400 929//378
f 932//382 942//402 941//401
f 932//382 941//401 931//380
f 933//384 943//403 942//402
f 933//384 942//402 932//382
f 935//386 944//404 943//403
f 935//386 943//403 933//384
f 937//388 945//405 944//404
f 937//388 944//404 935//386
f 939//390 946//406 945//405
f 939//390 945//405 937//388
f 913//362 872//392 946//406
f 913//362 946//406 939//390
f 947//26 801//26 825//26
f 947//26 825//26 823//26
f 947//26 823//26 821//26
f 947//26 821//26 820//26
f 948//26 820//26 818//26
f 948//26 818//26 816//26
f 948//26 816//26 814//26
f 948//26 814//26 813//26
f 949//26 865//399 940//400
f 949//26 940//400 941//401
f 949//26 941//401 942//402
f 949//26 942//402 943//403
f 950//26 943//403 944//404
f 950//26 944//404 945//405
f 950//26 945//405 946//406
f 950//26 946//406 872//392
f 951//4 841//4 843//4
f 951//4 843//4 845//4
f 951//4 845//4 847//4
f 951//4 847//4 848//4
f 952//4 848//4 850//4
f 952//4 850//4 852//4
f 952//4 852//4 854//4
f 952//4 854//4 829//4
f 953//4 863//351 903//352
f 953//4 903//352 904//353
f 953//4 904//353 905//354
f 953//4 905//354 906//355
f 954//4 906//355 907//356
f 954//4 907//356 908//357
f 954//4 908//357 909//358
f 954//4 909//358 856//344
f 947//26 948//26 955//26
f 947//26 955//26 956//26
f 953//4 954//4 957//4
f 953//4 957//4 958//4
f 949//26 950//26 959//26
f 949//26 959//26 960//26
f 951//4 952//4 961//4
f 951//4 961//4 962//4
f 841//309 962//112 959//112
f 841//309 959//112 872//310
f 863//306 958//112 955//112
f 863//306 955//112 813//306
f 865//308 960//1 961//1
f 865//308 961//1 829//307
f 801//293 956//1 957//1
f 801//293 957//1 856//293
f 963//1 964//1 965//1
f 966//1 967//1 965//1
f 966//1 965//1 964//1
f 968//1 966//1 964//1
f 968//1 964//1 969//1
f 966//1 970//1 967//1
f 971//407 926//408 763//261
f 971//407 763//261 972//409
f 973//410 974//411 766//264
f 973//410 766//264 873//408
f 974//411 972//409 763//261
f 974//411 763//261 766//264
f 873//408 968//1 975//1
f 873//408 975//1 973//410
f 976//1 969//1 926//408
f 976//1 926//408 971//407
f 976//1 975//1 968//1
f 976//1 968//1 969//1
f 974//411 973//410 977//254
f 974//411 977//254 978//255
f 974//411 978//255 979//256
f 974//411 979//256 980//252
f 981//1 973//410 975//1
f 982//1 981//1 975//1
f 983//1 982//1 975//1
f 984//1 983//1 975//1
f 976//1 971//407 985//1
f 976//1 985//1 986//1
f 976//1 986//1 987//1
f 976//1 987//1 988//1
f 989//248 971//407 972//409
f 990//250 989//248 972//409
f 991//251 990//250 972//409
f 992//252 991//251 972//409
f 993//112 994//112 995//112
f 993//112 995//112 996//112
f 997//112 998//112 999//112
f 997//112 994//112 993//112
f 997//112 993//112 998//112
f 996//112 1000//112 993//112
f 1000//112 1001//112 993//112
f 973//412 663//413 1002//414
f 973//412 1002//414 1003//415
f 1003//415 1002//414 1004//416
f 1003//415 1004//416 1005//417
f 1005//417 1004//416 1006//418
f 1005//417 1006//418 1007//419
f 1007//419 1006//418 1008//420
f 1007//419 1008//420 980//421
f 980//421 1008//420 757//422
f 980//421 757//422 992//423
f 992//423 757//422 1009//424
f 992//423 1009//424 1010//425
f 1010//425 1009//424 1011//426
f 1010//425 1011//426 1012//427
f 1012//427 1011//426 1013//428
f 1012//427 1013//428 1014//429
f 1014//429 1013//428 668//430
f 1014//429 668//430 971//431
f 971//431 668//430 1015//432
f 971//431 1015//432 1016//433
f 1016//433 1015//432 1017//434
f 1016//433 1017//434 986//435
f 986//435 1017//434 1018//436
f 986//435 1018//436 1019//437
f 1019//437 1018//436 1020//438
f 1019//437 1020//438 988//439
f 988//439 1020//438 747//440
f 988//439 747//440 984//441
f 984//441 747//440 1021//442
f 984//441 1021//442 1022//443
f 1022//443 1021//442 1023//444
f 1022//443 1023//444 982//445
f 982//445 1023//444 1024//446
f 982//445 1024//446 1025//447
f 1025//447 1024//446 663//413
f 1025//447 663//413 973//412
