# Botball Lab: metres, +Y up, centred XZ, base Y=0
s off
v -0.0225218 0.0000000 -0.0006123
v -0.0224000 0.0000000 -0.0000000
v -0.0240000 0.0000000 -0.0000000
v -0.0228686 0.0000000 -0.0011314
v -0.0233877 0.0000000 -0.0014782
v -0.0240000 0.0000000 -0.0016000
v -0.0246123 0.0000000 -0.0014782
v -0.0251314 0.0000000 -0.0011314
v -0.0254782 0.0000000 -0.0006123
v -0.0256000 0.0000000 -0.0000000
v -0.0254782 0.0000000 0.0006123
v -0.0251314 0.0000000 0.0011314
v -0.0246123 0.0000000 0.0014782
v -0.0240000 0.0000000 0.0016000
v -0.0233877 0.0000000 0.0014782
v -0.0228686 0.0000000 0.0011314
v -0.0225218 0.0000000 0.0006123
v -0.0225218 0.0016000 -0.0006123
v -0.0224000 0.0016000 -0.0000000
v -0.0228686 0.0016000 -0.0011314
v -0.0233877 0.0016000 -0.0014782
v -0.0240000 0.0016000 -0.0016000
v -0.0246123 0.0016000 -0.0014782
v -0.0251314 0.0016000 -0.0011314
v -0.0254782 0.0016000 -0.0006123
v -0.0256000 0.0016000 -0.0000000
v -0.0254782 0.0016000 0.0006123
v -0.0251314 0.0016000 0.0011314
v -0.0246123 0.0016000 0.0014782
v -0.0240000 0.0016000 0.0016000
v -0.0233877 0.0016000 0.0014782
v -0.0228686 0.0016000 0.0011314
v -0.0225218 0.0016000 0.0006123
v -0.0145218 0.0000000 -0.0006123
v -0.0144000 0.0000000 -0.0000000
v -0.0160000 0.0000000 -0.0000000
v -0.0148686 0.0000000 -0.0011314
v -0.0153877 0.0000000 -0.0014782
v -0.0160000 0.0000000 -0.0016000
v -0.0166123 0.0000000 -0.0014782
v -0.0171314 0.0000000 -0.0011314
v -0.0174782 0.0000000 -0.0006123
v -0.0176000 0.0000000 -0.0000000
v -0.0174782 0.0000000 0.0006123
v -0.0171314 0.0000000 0.0011314
v -0.0166123 0.0000000 0.0014782
v -0.0160000 0.0000000 0.0016000
v -0.0153877 0.0000000 0.0014782
v -0.0148686 0.0000000 0.0011314
v -0.0145218 0.0000000 0.0006123
v -0.0145218 0.0016000 -0.0006123
v -0.0144000 0.0016000 -0.0000000
v -0.0148686 0.0016000 -0.0011314
v -0.0153877 0.0016000 -0.0014782
v -0.0160000 0.0016000 -0.0016000
v -0.0166123 0.0016000 -0.0014782
v -0.0171314 0.0016000 -0.0011314
v -0.0174782 0.0016000 -0.0006123
v -0.0176000 0.0016000 -0.0000000
v -0.0174782 0.0016000 0.0006123
v -0.0171314 0.0016000 0.0011314
v -0.0166123 0.0016000 0.0014782
v -0.0160000 0.0016000 0.0016000
v -0.0153877 0.0016000 0.0014782
v -0.0148686 0.0016000 0.0011314
v -0.0145218 0.0016000 0.0006123
v -0.0065218 0.0000000 -0.0006123
v -0.0064000 0.0000000 -0.0000000
v -0.0080000 0.0000000 -0.0000000
v -0.0068686 0.0000000 -0.0011314
v -0.0073877 0.0000000 -0.0014782
v -0.0080000 0.0000000 -0.0016000
v -0.0086123 0.0000000 -0.0014782
v -0.0091314 0.0000000 -0.0011314
v -0.0094782 0.0000000 -0.0006123
v -0.0096000 0.0000000 -0.0000000
v -0.0094782 0.0000000 0.0006123
v -0.0091314 0.0000000 0.0011314
v -0.0086123 0.0000000 0.0014782
v -0.0080000 0.0000000 0.0016000
v -0.0073877 0.0000000 0.0014782
v -0.0068686 0.0000000 0.0011314
v -0.0065218 0.0000000 0.0006123
v -0.0065218 0.0016000 -0.0006123
v -0.0064000 0.0016000 -0.0000000
v -0.0068686 0.0016000 -0.0011314
v -0.0073877 0.0016000 -0.0014782
v -0.0080000 0.0016000 -0.0016000
v -0.0086123 0.0016000 -0.0014782
v -0.0091314 0.0016000 -0.0011314
v -0.0094782 0.0016000 -0.0006123
v -0.0096000 0.0016000 -0.0000000
v -0.0094782 0.0016000 0.0006123
v -0.0091314 0.0016000 0.0011314
v -0.0086123 0.0016000 0.0014782
v -0.0080000 0.0016000 0.0016000
v -0.0073877 0.0016000 0.0014782
v -0.0068686 0.0016000 0.0011314
v -0.0065218 0.0016000 0.0006123
v 0.0014782 0.0000000 -0.0006123
v 0.0016000 0.0000000 -0.0000000
v 0.0000000 0.0000000 -0.0000000
v 0.0011314 0.0000000 -0.0011314
v 0.0006123 0.0000000 -0.0014782
v 0.0000000 0.0000000 -0.0016000
v -0.0006123 0.0000000 -0.0014782
v -0.0011314 0.0000000 -0.0011314
v -0.0014782 0.0000000 -0.0006123
v -0.0016000 0.0000000 -0.0000000
v -0.0014782 0.0000000 0.0006123
v -0.0011314 0.0000000 0.0011314
v -0.0006123 0.0000000 0.0014782
v 0.0000000 0.0000000 0.0016000
v 0.0006123 0.0000000 0.0014782
v 0.0011314 0.0000000 0.0011314
v 0.0014782 0.0000000 0.0006123
v 0.0014782 0.0016000 -0.0006123
v 0.0016000 0.0016000 -0.0000000
v 0.0011314 0.0016000 -0.0011314
v 0.0006123 0.0016000 -0.0014782
v 0.0000000 0.0016000 -0.0016000
v -0.0006123 0.0016000 -0.0014782
v -0.0011314 0.0016000 -0.0011314
v -0.0014782 0.0016000 -0.0006123
v -0.0016000 0.0016000 -0.0000000
v -0.0014782 0.0016000 0.0006123
v -0.0011314 0.0016000 0.0011314
v -0.0006123 0.0016000 0.0014782
v 0.0000000 0.0016000 0.0016000
v 0.0006123 0.0016000 0.0014782
v 0.0011314 0.0016000 0.0011314
v 0.0014782 0.0016000 0.0006123
v 0.0094782 0.0000000 -0.0006123
v 0.0096000 0.0000000 -0.0000000
v 0.0080000 0.0000000 -0.0000000
v 0.0091314 0.0000000 -0.0011314
v 0.0086123 0.0000000 -0.0014782
v 0.0080000 0.0000000 -0.0016000
v 0.0073877 0.0000000 -0.0014782
v 0.0068686 0.0000000 -0.0011314
v 0.0065218 0.0000000 -0.0006123
v 0.0064000 0.0000000 -0.0000000
v 0.0065218 0.0000000 0.0006123
v 0.0068686 0.0000000 0.0011314
v 0.0073877 0.0000000 0.0014782
v 0.0080000 0.0000000 0.0016000
v 0.0086123 0.0000000 0.0014782
v 0.0091314 0.0000000 0.0011314
v 0.0094782 0.0000000 0.0006123
v 0.0094782 0.0016000 -0.0006123
v 0.0096000 0.0016000 -0.0000000
v 0.0091314 0.0016000 -0.0011314
v 0.0086123 0.0016000 -0.0014782
v 0.0080000 0.0016000 -0.0016000
v 0.0073877 0.0016000 -0.0014782
v 0.0068686 0.0016000 -0.0011314
v 0.0065218 0.0016000 -0.0006123
v 0.0064000 0.0016000 -0.0000000
v 0.0065218 0.0016000 0.0006123
v 0.0068686 0.0016000 0.0011314
v 0.0073877 0.0016000 0.0014782
v 0.0080000 0.0016000 0.0016000
v 0.0086123 0.0016000 0.0014782
v 0.0091314 0.0016000 0.0011314
v 0.0094782 0.0016000 0.0006123
v 0.0174782 0.0000000 -0.0006123
v 0.0176000 0.0000000 -0.0000000
v 0.0160000 0.0000000 -0.0000000
v 0.0171314 0.0000000 -0.0011314
v 0.0166123 0.0000000 -0.0014782
v 0.0160000 0.0000000 -0.0016000
v 0.0153877 0.0000000 -0.0014782
v 0.0148686 0.0000000 -0.0011314
v 0.0145218 0.0000000 -0.0006123
v 0.0144000 0.0000000 -0.0000000
v 0.0145218 0.0000000 0.0006123
v 0.0148686 0.0000000 0.0011314
v 0.0153877 0.0000000 0.0014782
v 0.0160000 0.0000000 0.0016000
v 0.0166123 0.0000000 0.0014782
v 0.0171314 0.0000000 0.0011314
v 0.0174782 0.0000000 0.0006123
v 0.0174782 0.0016000 -0.0006123
v 0.0176000 0.0016000 -0.0000000
v 0.0171314 0.0016000 -0.0011314
v 0.0166123 0.0016000 -0.0014782
v 0.0160000 0.0016000 -0.0016000
v 0.0153877 0.0016000 -0.0014782
v 0.0148686 0.0016000 -0.0011314
v 0.0145218 0.0016000 -0.0006123
v 0.0144000 0.0016000 -0.0000000
v 0.0145218 0.0016000 0.0006123
v 0.0148686 0.0016000 0.0011314
v 0.0153877 0.0016000 0.0014782
v 0.0160000 0.0016000 0.0016000
v 0.0166123 0.0016000 0.0014782
v 0.0171314 0.0016000 0.0011314
v 0.0174782 0.0016000 0.0006123
v 0.0254782 0.0000000 -0.0006123
v 0.0256000 0.0000000 -0.0000000
v 0.0240000 0.0000000 -0.0000000
v 0.0251314 0.0000000 -0.0011314
v 0.0246123 0.0000000 -0.0014782
v 0.0240000 0.0000000 -0.0016000
v 0.0233877 0.0000000 -0.0014782
v 0.0228686 0.0000000 -0.0011314
v 0.0225218 0.0000000 -0.0006123
v 0.0224000 0.0000000 -0.0000000
v 0.0225218 0.0000000 0.0006123
v 0.0228686 0.0000000 0.0011314
v 0.0233877 0.0000000 0.0014782
v 0.0240000 0.0000000 0.0016000
v 0.0246123 0.0000000 0.0014782
v 0.0251314 0.0000000 0.0011314
v 0.0254782 0.0000000 0.0006123
v 0.0254782 0.0016000 -0.0006123
v 0.0256000 0.0016000 -0.0000000
v 0.0251314 0.0016000 -0.0011314
v 0.0246123 0.0016000 -0.0014782
v 0.0240000 0.0016000 -0.0016000
v 0.0233877 0.0016000 -0.0014782
v 0.0228686 0.0016000 -0.0011314
v 0.0225218 0.0016000 -0.0006123
v 0.0224000 0.0016000 -0.0000000
v 0.0225218 0.0016000 0.0006123
v 0.0228686 0.0016000 0.0011314
v 0.0233877 0.0016000 0.0014782
v 0.0240000 0.0016000 0.0016000
v 0.0246123 0.0016000 0.0014782
v 0.0251314 0.0016000 0.0011314
v 0.0254782 0.0016000 0.0006123
v -0.0304000 0.0016000 -0.0024000
v 0.0304000 0.0016000 -0.0024000
v 0.0304000 0.0016000 0.0024000
v -0.0304000 0.0016000 0.0024000
v -0.0304000 0.0000000 -0.0024000
v 0.0304000 0.0000000 -0.0024000
v -0.0304000 0.0000000 0.0024000
v 0.0304000 0.0000000 0.0024000
v 0.0320000 0.0000000 -0.0040000
v -0.0320000 0.0000000 -0.0040000
v -0.0320000 0.0000000 0.0040000
v 0.0320000 0.0000000 0.0040000
v -0.0320000 0.0032000 0.0040000
v 0.0320000 0.0032000 0.0040000
v 0.0320000 0.0032000 -0.0040000
v -0.0320000 0.0032000 -0.0040000
v -0.0257826 0.0032000 -0.0009185
v -0.0257826 0.0048000 -0.0009185
v -0.0256000 0.0048000 -0.0000000
v -0.0256000 0.0032000 -0.0000000
v -0.0263030 0.0032000 -0.0016970
v -0.0263030 0.0048000 -0.0016970
v -0.0270815 0.0032000 -0.0022174
v -0.0270815 0.0048000 -0.0022174
v -0.0280000 0.0032000 -0.0024000
v -0.0280000 0.0048000 -0.0024000
v -0.0289185 0.0032000 -0.0022174
v -0.0289185 0.0048000 -0.0022174
v -0.0296970 0.0032000 -0.0016970
v -0.0296970 0.0048000 -0.0016970
v -0.0302174 0.0032000 -0.0009185
v -0.0302174 0.0048000 -0.0009185
v -0.0304000 0.0032000 -0.0000000
v -0.0304000 0.0048000 -0.0000000
v -0.0302174 0.0032000 0.0009185
v -0.0302174 0.0048000 0.0009185
v -0.0296970 0.0032000 0.0016970
v -0.0296970 0.0048000 0.0016970
v -0.0289185 0.0032000 0.0022174
v -0.0289185 0.0048000 0.0022174
v -0.0280000 0.0032000 0.0024000
v -0.0280000 0.0048000 0.0024000
v -0.0270815 0.0032000 0.0022174
v -0.0270815 0.0048000 0.0022174
v -0.0263030 0.0032000 0.0016970
v -0.0263030 0.0048000 0.0016970
v -0.0257826 0.0032000 0.0009185
v -0.0257826 0.0048000 0.0009185
v -0.0280000 0.0048000 -0.0000000
v -0.0177826 0.0032000 -0.0009185
v -0.0177826 0.0048000 -0.0009185
v -0.0176000 0.0048000 -0.0000000
v -0.0176000 0.0032000 -0.0000000
v -0.0183030 0.0032000 -0.0016970
v -0.0183030 0.0048000 -0.0016970
v -0.0190815 0.0032000 -0.0022174
v -0.0190815 0.0048000 -0.0022174
v -0.0200000 0.0032000 -0.0024000
v -0.0200000 0.0048000 -0.0024000
v -0.0209185 0.0032000 -0.0022174
v -0.0209185 0.0048000 -0.0022174
v -0.0216970 0.0032000 -0.0016970
v -0.0216970 0.0048000 -0.0016970
v -0.0222174 0.0032000 -0.0009185
v -0.0222174 0.0048000 -0.0009185
v -0.0224000 0.0032000 -0.0000000
v -0.0224000 0.0048000 -0.0000000
v -0.0222174 0.0032000 0.0009185
v -0.0222174 0.0048000 0.0009185
v -0.0216970 0.0032000 0.0016970
v -0.0216970 0.0048000 0.0016970
v -0.0209185 0.0032000 0.0022174
v -0.0209185 0.0048000 0.0022174
v -0.0200000 0.0032000 0.0024000
v -0.0200000 0.0048000 0.0024000
v -0.0190815 0.0032000 0.0022174
v -0.0190815 0.0048000 0.0022174
v -0.0183030 0.0032000 0.0016970
v -0.0183030 0.0048000 0.0016970
v -0.0177826 0.0032000 0.0009185
v -0.0177826 0.0048000 0.0009185
v -0.0200000 0.0048000 -0.0000000
v -0.0097826 0.0032000 -0.0009185
v -0.0097826 0.0048000 -0.0009185
v -0.0096000 0.0048000 -0.0000000
v -0.0096000 0.0032000 -0.0000000
v -0.0103030 0.0032000 -0.0016970
v -0.0103030 0.0048000 -0.0016970
v -0.0110815 0.0032000 -0.0022174
v -0.0110815 0.0048000 -0.0022174
v -0.0120000 0.0032000 -0.0024000
v -0.0120000 0.0048000 -0.0024000
v -0.0129185 0.0032000 -0.0022174
v -0.0129185 0.0048000 -0.0022174
v -0.0136970 0.0032000 -0.0016970
v -0.0136970 0.0048000 -0.0016970
v -0.0142174 0.0032000 -0.0009185
v -0.0142174 0.0048000 -0.0009185
v -0.0144000 0.0032000 -0.0000000
v -0.0144000 0.0048000 -0.0000000
v -0.0142174 0.0032000 0.0009185
v -0.0142174 0.0048000 0.0009185
v -0.0136970 0.0032000 0.0016970
v -0.0136970 0.0048000 0.0016970
v -0.0129185 0.0032000 0.0022174
v -0.0129185 0.0048000 0.0022174
v -0.0120000 0.0032000 0.0024000
v -0.0120000 0.0048000 0.0024000
v -0.0110815 0.0032000 0.0022174
v -0.0110815 0.0048000 0.0022174
v -0.0103030 0.0032000 0.0016970
v -0.0103030 0.0048000 0.0016970
v -0.0097826 0.0032000 0.0009185
v -0.0097826 0.0048000 0.0009185
v -0.0120000 0.0048000 -0.0000000
v -0.0017826 0.0032000 -0.0009185
v -0.0017826 0.0048000 -0.0009185
v -0.0016000 0.0048000 -0.0000000
v -0.0016000 0.0032000 -0.0000000
v -0.0023030 0.0032000 -0.0016970
v -0.0023030 0.0048000 -0.0016970
v -0.0030815 0.0032000 -0.0022174
v -0.0030815 0.0048000 -0.0022174
v -0.0040000 0.0032000 -0.0024000
v -0.0040000 0.0048000 -0.0024000
v -0.0049185 0.0032000 -0.0022174
v -0.0049185 0.0048000 -0.0022174
v -0.0056970 0.0032000 -0.0016970
v -0.0056970 0.0048000 -0.0016970
v -0.0062174 0.0032000 -0.0009185
v -0.0062174 0.0048000 -0.0009185
v -0.0064000 0.0032000 -0.0000000
v -0.0064000 0.0048000 -0.0000000
v -0.0062174 0.0032000 0.0009185
v -0.0062174 0.0048000 0.0009185
v -0.0056970 0.0032000 0.0016970
v -0.0056970 0.0048000 0.0016970
v -0.0049185 0.0032000 0.0022174
v -0.0049185 0.0048000 0.0022174
v -0.0040000 0.0032000 0.0024000
v -0.0040000 0.0048000 0.0024000
v -0.0030815 0.0032000 0.0022174
v -0.0030815 0.0048000 0.0022174
v -0.0023030 0.0032000 0.0016970
v -0.0023030 0.0048000 0.0016970
v -0.0017826 0.0032000 0.0009185
v -0.0017826 0.0048000 0.0009185
v -0.0040000 0.0048000 -0.0000000
v 0.0062174 0.0032000 -0.0009185
v 0.0062174 0.0048000 -0.0009185
v 0.0064000 0.0048000 -0.0000000
v 0.0064000 0.0032000 -0.0000000
v 0.0056970 0.0032000 -0.0016970
v 0.0056970 0.0048000 -0.0016970
v 0.0049185 0.0032000 -0.0022174
v 0.0049185 0.0048000 -0.0022174
v 0.0040000 0.0032000 -0.0024000
v 0.0040000 0.0048000 -0.0024000
v 0.0030815 0.0032000 -0.0022174
v 0.0030815 0.0048000 -0.0022174
v 0.0023030 0.0032000 -0.0016970
v 0.0023030 0.0048000 -0.0016970
v 0.0017826 0.0032000 -0.0009185
v 0.0017826 0.0048000 -0.0009185
v 0.0016000 0.0032000 -0.0000000
v 0.0016000 0.0048000 -0.0000000
v 0.0017826 0.0032000 0.0009185
v 0.0017826 0.0048000 0.0009185
v 0.0023030 0.0032000 0.0016970
v 0.0023030 0.0048000 0.0016970
v 0.0030815 0.0032000 0.0022174
v 0.0030815 0.0048000 0.0022174
v 0.0040000 0.0032000 0.0024000
v 0.0040000 0.0048000 0.0024000
v 0.0049185 0.0032000 0.0022174
v 0.0049185 0.0048000 0.0022174
v 0.0056970 0.0032000 0.0016970
v 0.0056970 0.0048000 0.0016970
v 0.0062174 0.0032000 0.0009185
v 0.0062174 0.0048000 0.0009185
v 0.0040000 0.0048000 -0.0000000
v 0.0142174 0.0032000 -0.0009185
v 0.0142174 0.0048000 -0.0009185
v 0.0144000 0.0048000 -0.0000000
v 0.0144000 0.0032000 -0.0000000
v 0.0136970 0.0032000 -0.0016970
v 0.0136970 0.0048000 -0.0016970
v 0.0129185 0.0032000 -0.0022174
v 0.0129185 0.0048000 -0.0022174
v 0.0120000 0.0032000 -0.0024000
v 0.0120000 0.0048000 -0.0024000
v 0.0110815 0.0032000 -0.0022174
v 0.0110815 0.0048000 -0.0022174
v 0.0103030 0.0032000 -0.0016970
v 0.0103030 0.0048000 -0.0016970
v 0.0097826 0.0032000 -0.0009185
v 0.0097826 0.0048000 -0.0009185
v 0.0096000 0.0032000 -0.0000000
v 0.0096000 0.0048000 -0.0000000
v 0.0097826 0.0032000 0.0009185
v 0.0097826 0.0048000 0.0009185
v 0.0103030 0.0032000 0.0016970
v 0.0103030 0.0048000 0.0016970
v 0.0110815 0.0032000 0.0022174
v 0.0110815 0.0048000 0.0022174
v 0.0120000 0.0032000 0.0024000
v 0.0120000 0.0048000 0.0024000
v 0.0129185 0.0032000 0.0022174
v 0.0129185 0.0048000 0.0022174
v 0.0136970 0.0032000 0.0016970
v 0.0136970 0.0048000 0.0016970
v 0.0142174 0.0032000 0.0009185
v 0.0142174 0.0048000 0.0009185
v 0.0120000 0.0048000 -0.0000000
v 0.0222174 0.0032000 -0.0009185
v 0.0222174 0.0048000 -0.0009185
v 0.0224000 0.0048000 -0.0000000
v 0.0224000 0.0032000 -0.0000000
v 0.0216970 0.0032000 -0.0016970
v 0.0216970 0.0048000 -0.0016970
v 0.0209185 0.0032000 -0.0022174
v 0.0209185 0.0048000 -0.0022174
v 0.0200000 0.0032000 -0.0024000
v 0.0200000 0.0048000 -0.0024000
v 0.0190815 0.0032000 -0.0022174
v 0.0190815 0.0048000 -0.0022174
v 0.0183030 0.0032000 -0.0016970
v 0.0183030 0.0048000 -0.0016970
v 0.0177826 0.0032000 -0.0009185
v 0.0177826 0.0048000 -0.0009185
v 0.0176000 0.0032000 -0.0000000
v 0.0176000 0.0048000 -0.0000000
v 0.0177826 0.0032000 0.0009185
v 0.0177826 0.0048000 0.0009185
v 0.0183030 0.0032000 0.0016970
v 0.0183030 0.0048000 0.0016970
v 0.0190815 0.0032000 0.0022174
v 0.0190815 0.0048000 0.0022174
v 0.0200000 0.0032000 0.0024000
v 0.0200000 0.0048000 0.0024000
v 0.0209185 0.0032000 0.0022174
v 0.0209185 0.0048000 0.0022174
v 0.0216970 0.0032000 0.0016970
v 0.0216970 0.0048000 0.0016970
v 0.0222174 0.0032000 0.0009185
v 0.0222174 0.0048000 0.0009185
v 0.0200000 0.0048000 -0.0000000
v 0.0302174 0.0032000 -0.0009185
v 0.0302174 0.0048000 -0.0009185
v 0.0304000 0.0048000 -0.0000000
v 0.0304000 0.0032000 -0.0000000
v 0.0296970 0.0032000 -0.0016970
v 0.0296970 0.0048000 -0.0016970
v 0.0289185 0.0032000 -0.0022174
v 0.0289185 0.0048000 -0.0022174
v 0.0280000 0.0032000 -0.0024000
v 0.0280000 0.0048000 -0.0024000
v 0.0270815 0.0032000 -0.0022174
v 0.0270815 0.0048000 -0.0022174
v 0.0263030 0.0032000 -0.0016970
v 0.0263030 0.0048000 -0.0016970
v 0.0257826 0.0032000 -0.0009185
v 0.0257826 0.0048000 -0.0009185
v 0.0256000 0.0032000 -0.0000000
v 0.0256000 0.0048000 -0.0000000
v 0.0257826 0.0032000 0.0009185
v 0.0257826 0.0048000 0.0009185
v 0.0263030 0.0032000 0.0016970
v 0.0263030 0.0048000 0.0016970
v 0.0270815 0.0032000 0.0022174
v 0.0270815 0.0048000 0.0022174
v 0.0280000 0.0032000 0.0024000
v 0.0280000 0.0048000 0.0024000
v 0.0289185 0.0032000 0.0022174
v 0.0289185 0.0048000 0.0022174
v 0.0296970 0.0032000 0.0016970
v 0.0296970 0.0048000 0.0016970
v 0.0302174 0.0032000 0.0009185
v 0.0302174 0.0048000 0.0009185
v 0.0280000 0.0048000 -0.0000000
vn 0.0 -1.0 0.0
vn 0.9471789 0.0 -0.3207056
vn 0.8965572 0.0 -0.442928
vn 0.9978089 0.0 -0.0661621
vn 0.9978089 0.0 0.0661621
vn 0.7523546 0.0 -0.6587584
vn 0.6587584 0.0 -0.7523546
vn 0.442928 0.0 -0.8965572
vn 0.3207056 0.0 -0.9471789
vn 0.0661621 0.0 -0.9978089
vn -0.0661621 0.0 -0.9978089
vn -0.3207056 0.0 -0.9471789
vn -0.442928 0.0 -0.8965572
vn -0.6587584 0.0 -0.7523546
vn -0.7523546 0.0 -0.6587584
vn -0.8965572 0.0 -0.442928
vn -0.9471789 0.0 -0.3207056
vn -0.9978089 0.0 -0.0661621
vn -0.9978089 0.0 0.0661621
vn -0.9471789 0.0 0.3207056
vn -0.8965572 0.0 0.442928
vn -0.7523546 0.0 0.6587584
vn -0.6587584 0.0 0.7523546
vn -0.442928 0.0 0.8965572
vn -0.3207056 0.0 0.9471789
vn -0.0661621 0.0 0.9978089
vn 0.0661621 0.0 0.9978089
vn 0.3207056 0.0 0.9471789
vn 0.442928 0.0 0.8965572
vn 0.6587584 0.0 0.7523546
vn 0.7523546 0.0 0.6587584
vn 0.8965572 0.0 0.442928
vn 0.9471789 0.0 0.3207056
vn 0.0 0.0 1.0
vn 1.0 0.0 0.0
vn 0.0 0.0 -1.0
vn -1.0 0.0 0.0
vn 0.0 1.0 0.0
vn 0.947177 0.0 -0.3207111
vn 0.8964963 0.0 -0.4430513
vn 0.9978115 0.0 -0.0661224
vn 0.9978115 0.0 0.0661224
vn 0.752294 0.0 -0.6588276
vn 0.6588276 0.0 -0.752294
vn 0.4430513 0.0 -0.8964963
vn 0.3207111 0.0 -0.947177
vn 0.0661224 0.0 -0.9978115
vn -0.0661224 0.0 -0.9978115
vn -0.3207111 0.0 -0.947177
vn -0.4430513 0.0 -0.8964963
vn -0.6588276 0.0 -0.752294
vn -0.752294 0.0 -0.6588276
vn -0.8964963 0.0 -0.4430513
vn -0.947177 0.0 -0.3207111
vn -0.9978115 0.0 -0.0661224
vn -0.9978115 0.0 0.0661224
vn -0.947177 0.0 0.3207111
vn -0.8964963 0.0 0.4430513
vn -0.752294 0.0 0.6588276
vn -0.6588276 0.0 0.752294
vn -0.4430513 0.0 0.8964963
vn -0.3207111 0.0 0.947177
vn -0.0661224 0.0 0.9978115
vn 0.0661224 0.0 0.9978115
vn 0.3207111 0.0 0.947177
vn 0.4430513 0.0 0.8964963
vn 0.6588276 0.0 0.752294
vn 0.752294 0.0 0.6588276
vn 0.8964963 0.0 0.4430513
vn 0.947177 0.0 0.3207111
f 1//1 2//1 3//1
f 4//1 1//1 3//1
f 5//1 4//1 3//1
f 6//1 5//1 3//1
f 7//1 6//1 3//1
f 8//1 7//1 3//1
f 9//1 8//1 3//1
f 10//1 9//1 3//1
f 11//1 10//1 3//1
f 12//1 11//1 3//1
f 13//1 12//1 3//1
f 14//1 13//1 3//1
f 15//1 14//1 3//1
f 16//1 15//1 3//1
f 17//1 16//1 3//1
f 2//1 17//1 3//1
f 1//2 18//3 19//4
f 2//5 1//2 19//4
f 4//6 20//7 18//3
f 1//2 4//6 18//3
f 5//8 21//9 20//7
f 4//6 5//8 20//7
f 6//10 22//11 21//9
f 5//8 6//10 21//9
f 7//12 23//13 22//11
f 6//10 7//12 22//11
f 8//14 24//15 23//13
f 7//12 8//14 23//13
f 9//16 25//17 24//15
f 8//14 9//16 24//15
f 10//18 26//19 25//17
f 9//16 10//18 25//17
f 11//20 27//21 26//19
f 10//18 11//20 26//19
f 12//22 28//23 27//21
f 11//20 12//22 27//21
f 13//24 29//25 28//23
f 12//22 13//24 28//23
f 14//26 30//27 29//25
f 13//24 14//26 29//25
f 15//28 31//29 30//27
f 14//26 15//28 30//27
f 16//30 32//31 31//29
f 15//28 16//30 31//29
f 17//32 33//33 32//31
f 16//30 17//32 32//31
f 2//5 19//4 33//33
f 17//32 2//5 33//33
f 34//1 35//1 36//1
f 37//1 34//1 36//1
f 38//1 37//1 36//1
f 39//1 38//1 36//1
f 40//1 39//1 36//1
f 41//1 40//1 36//1
f 42//1 41//1 36//1
f 43//1 42//1 36//1
f 44//1 43//1 36//1
f 45//1 44//1 36//1
f 46//1 45//1 36//1
f 47//1 46//1 36//1
f 48//1 47//1 36//1
f 49//1 48//1 36//1
f 50//1 49//1 36//1
f 35//1 50//1 36//1
f 34//2 51//3 52//4
f 35//5 34//2 52//4
f 37//6 53//7 51//3
f 34//2 37//6 51//3
f 38//8 54//9 53//7
f 37//6 38//8 53//7
f 39//10 55//11 54//9
f 38//8 39//10 54//9
f 40//12 56//13 55//11
f 39//10 40//12 55//11
f 41//14 57//15 56//13
f 40//12 41//14 56//13
f 42//16 58//17 57//15
f 41//14 42//16 57//15
f 43//18 59//19 58//17
f 42//16 43//18 58//17
f 44//20 60//21 59//19
f 43//18 44//20 59//19
f 45//22 61//23 60//21
f 44//20 45//22 60//21
f 46//24 62//25 61//23
f 45//22 46//24 61//23
f 47//26 63//27 62//25
f 46//24 47//26 62//25
f 48//28 64//29 63//27
f 47//26 48//28 63//27
f 49//30 65//31 64//29
f 48//28 49//30 64//29
f 50//32 66//33 65//31
f 49//30 50//32 65//31
f 35//5 52//4 66//33
f 50//32 35//5 66//33
f 67//1 68//1 69//1
f 70//1 67//1 69//1
f 71//1 70//1 69//1
f 72//1 71//1 69//1
f 73//1 72//1 69//1
f 74//1 73//1 69//1
f 75//1 74//1 69//1
f 76//1 75//1 69//1
f 77//1 76//1 69//1
f 78//1 77//1 69//1
f 79//1 78//1 69//1
f 80//1 79//1 69//1
f 81//1 80//1 69//1
f 82//1 81//1 69//1
f 83//1 82//1 69//1
f 68//1 83//1 69//1
f 67//2 84//3 85//4
f 68//5 67//2 85//4
f 70//6 86//7 84//3
f 67//2 70//6 84//3
f 71//8 87//9 86//7
f 70//6 71//8 86//7
f 72//10 88//11 87//9
f 71//8 72//10 87//9
f 73//12 89//13 88//11
f 72//10 73//12 88//11
f 74//14 90//15 89//13
f 73//12 74//14 89//13
f 75//16 91//17 90//15
f 74//14 75//16 90//15
f 76//18 92//19 91//17
f 75//16 76//18 91//17
f 77//20 93//21 92//19
f 76//18 77//20 92//19
f 78//22 94//23 93//21
f 77//20 78//22 93//21
f 79//24 95//25 94//23
f 78//22 79//24 94//23
f 80//26 96//27 95//25
f 79//24 80//26 95//25
f 81//28 97//29 96//27
f 80//26 81//28 96//27
f 82//30 98//31 97//29
f 81//28 82//30 97//29
f 83//32 99//33 98//31
f 82//30 83//32 98//31
f 68//5 85//4 99//33
f 83//32 68//5 99//33
f 100//1 101//1 102//1
f 103//1 100//1 102//1
f 104//1 103//1 102//1
f 105//1 104//1 102//1
f 106//1 105//1 102//1
f 107//1 106//1 102//1
f 108//1 107//1 102//1
f 109//1 108//1 102//1
f 110//1 109//1 102//1
f 111//1 110//1 102//1
f 112//1 111//1 102//1
f 113//1 112//1 102//1
f 114//1 113//1 102//1
f 115//1 114//1 102//1
f 116//1 115//1 102//1
f 101//1 116//1 102//1
f 100//2 117//3 118//4
f 101//5 100//2 118//4
f 103//6 119//7 117//3
f 100//2 103//6 117//3
f 104//8 120//9 119//7
f 103//6 104//8 119//7
f 105//10 121//11 120//9
f 104//8 105//10 120//9
f 106//12 122//13 121//11
f 105//10 106//12 121//11
f 107//14 123//15 122//13
f 106//12 107//14 122//13
f 108//16 124//17 123//15
f 107//14 108//16 123//15
f 109//18 125//19 124//17
f 108//16 109//18 124//17
f 110//20 126//21 125//19
f 109//18 110//20 125//19
f 111//22 127//23 126//21
f 110//20 111//22 126//21
f 112//24 128//25 127//23
f 111//22 112//24 127//23
f 113//26 129//27 128//25
f 112//24 113//26 128//25
f 114//28 130//29 129//27
f 113//26 114//28 129//27
f 115//30 131//31 130//29
f 114//28 115//30 130//29
f 116//32 132//33 131//31
f 115//30 116//32 131//31
f 101//5 118//4 132//33
f 116//32 101//5 132//33
f 133//1 134//1 135//1
f 136//1 133//1 135//1
f 137//1 136//1 135//1
f 138//1 137//1 135//1
f 139//1 138//1 135//1
f 140//1 139//1 135//1
f 141//1 140//1 135//1
f 142//1 141//1 135//1
f 143//1 142//1 135//1
f 144//1 143//1 135//1
f 145//1 144//1 135//1
f 146//1 145//1 135//1
f 147//1 146//1 135//1
f 148//1 147//1 135//1
f 149//1 148//1 135//1
f 134//1 149//1 135//1
f 133//2 150//3 151//4
f 134//5 133//2 151//4
f 136//6 152//7 150//3
f 133//2 136//6 150//3
f 137//8 153//9 152//7
f 136//6 137//8 152//7
f 138//10 154//11 153//9
f 137//8 138//10 153//9
f 139//12 155//13 154//11
f 138//10 139//12 154//11
f 140//14 156//15 155//13
f 139//12 140//14 155//13
f 141//16 157//17 156//15
f 140//14 141//16 156//15
f 142//18 158//19 157//17
f 141//16 142//18 157//17
f 143//20 159//21 158//19
f 142//18 143//20 158//19
f 144//22 160//23 159//21
f 143//20 144//22 159//21
f 145//24 161//25 160//23
f 144//22 145//24 160//23
f 146//26 162//27 161//25
f 145//24 146//26 161//25
f 147//28 163//29 162//27
f 146//26 147//28 162//27
f 148//30 164//31 163//29
f 147//28 148//30 163//29
f 149//32 165//33 164//31
f 148//30 149//32 164//31
f 134//5 151//4 165//33
f 149//32 134//5 165//33
f 166//1 167//1 168//1
f 169//1 166//1 168//1
f 170//1 169//1 168//1
f 171//1 170//1 168//1
f 172//1 171//1 168//1
f 173//1 172//1 168//1
f 174//1 173//1 168//1
f 175//1 174//1 168//1
f 176//1 175//1 168//1
f 177//1 176//1 168//1
f 178//1 177//1 168//1
f 179//1 178//1 168//1
f 180//1 179//1 168//1
f 181//1 180//1 168//1
f 182//1 181//1 168//1
f 167//1 182//1 168//1
f 166//2 183//3 184//4
f 167//5 166//2 184//4
f 169//6 185//7 183//3
f 166//2 169//6 183//3
f 170//8 186//9 185//7
f 169//6 170//8 185//7
f 171//10 187//11 186//9
f 170//8 171//10 186//9
f 172//12 188//13 187//11
f 171//10 172//12 187//11
f 173//14 189//15 188//13
f 172//12 173//14 188//13
f 174//16 190//17 189//15
f 173//14 174//16 189//15
f 175//18 191//19 190//17
f 174//16 175//18 190//17
f 176//20 192//21 191//19
f 175//18 176//20 191//19
f 177//22 193//23 192//21
f 176//20 177//22 192//21
f 178//24 194//25 193//23
f 177//22 178//24 193//23
f 179//26 195//27 194//25
f 178//24 179//26 194//25
f 180//28 196//29 195//27
f 179//26 180//28 195//27
f 181//30 197//31 196//29
f 180//28 181//30 196//29
f 182//32 198//33 197//31
f 181//30 182//32 197//31
f 167//5 184//4 198//33
f 182//32 167//5 198//33
f 199//1 200//1 201//1
f 202//1 199//1 201//1
f 203//1 202//1 201//1
f 204//1 203//1 201//1
f 205//1 204//1 201//1
f 206//1 205//1 201//1
f 207//1 206//1 201//1
f 208//1 207//1 201//1
f 209//1 208//1 201//1
f 210//1 209//1 201//1
f 211//1 210//1 201//1
f 212//1 211//1 201//1
f 213//1 212//1 201//1
f 214//1 213//1 201//1
f 215//1 214//1 201//1
f 200//1 215//1 201//1
f 199//2 216//3 217//4
f 200//5 199//2 217//4
f 202//6 218//7 216//3
f 199//2 202//6 216//3
f 203//8 219//9 218//7
f 202//6 203//8 218//7
f 204//10 220//11 219//9
f 203//8 204//10 219//9
f 205//12 221//13 220//11
f 204//10 205//12 220//11
f 206//14 222//15 221//13
f 205//12 206//14 221//13
f 207//16 223//17 222//15
f 206//14 207//16 222//15
f 208//18 224//19 223//17
f 207//16 208//18 223//17
f 209//20 225//21 224//19
f 208//18 209//20 224//19
f 210//22 226//23 225//21
f 209//20 210//22 225//21
f 211//24 227//25 226//23
f 210//22 211//24 226//23
f 212//26 228//27 227//25
f 211//24 212//26 227//25
f 213//28 229//29 228//27
f 212//26 213//28 228//27
f 214//30 230//31 229//29
f 213//28 214//30 229//29
f 215//32 231//33 230//31
f 214//30 215//32 230//31
f 200//5 217//4 231//33
f 215//32 200//5 231//33
f 232//1 233//1 234//1
f 232//1 234//1 235//1
f 232//34 236//34 237//34
f 232//34 237//34 233//34
f 235//35 238//35 236//35
f 235//35 236//35 232//35
f 234//36 239//36 238//36
f 234//36 238//36 235//36
f 233//37 237//37 239//37
f 233//37 239//37 234//37
f 240//1 237//1 236//1
f 240//1 236//1 241//1
f 241//1 236//1 238//1
f 241//1 238//1 242//1
f 242//1 238//1 239//1
f 242//1 239//1 243//1
f 243//1 239//1 237//1
f 243//1 237//1 240//1
f 244//38 245//38 246//38
f 247//38 244//38 246//38
f 241//36 247//36 246//36
f 240//36 241//36 246//36
f 242//37 244//37 247//37
f 241//37 242//37 247//37
f 240//35 246//35 245//35
f 243//35 240//35 245//35
f 248//39 249//40 250//41
f 251//42 248//39 250//41
f 252//43 253//44 249//40
f 248//39 252//43 249//40
f 254//45 255//46 253//44
f 252//43 254//45 253//44
f 256//47 257//48 255//46
f 254//45 256//47 255//46
f 258//49 259//50 257//48
f 256//47 258//49 257//48
f 260//51 261//52 259//50
f 258//49 260//51 259//50
f 262//53 263//54 261//52
f 260//51 262//53 261//52
f 264//55 265//56 263//54
f 262//53 264//55 263//54
f 266//57 267//58 265//56
f 264//55 266//57 265//56
f 268//59 269//60 267//58
f 266//57 268//59 267//58
f 270//61 271//62 269//60
f 268//59 270//61 269//60
f 272//63 273//64 271//62
f 270//61 272//63 271//62
f 274//65 275//66 273//64
f 272//63 274//65 273//64
f 276//67 277//68 275//66
f 274//65 276//67 275//66
f 278//69 279//70 277//68
f 276//67 278//69 277//68
f 251//42 250//41 279//70
f 278//69 251//42 279//70
f 280//38 250//38 249//38
f 280//38 249//38 253//38
f 280//38 253//38 255//38
f 280//38 255//38 257//38
f 280//38 257//38 259//38
f 280//38 259//38 261//38
f 280//38 261//38 263//38
f 280//38 263//38 265//38
f 280//38 265//38 267//38
f 280//38 267//38 269//38
f 280//38 269//38 271//38
f 280//38 271//38 273//38
f 280//38 273//38 275//38
f 280//38 275//38 277//38
f 280//38 277//38 279//38
f 280//38 279//38 250//38
f 281//39 282//40 283//41
f 284//42 281//39 283//41
f 285//43 286//44 282//40
f 281//39 285//43 282//40
f 287//45 288//46 286//44
f 285//43 287//45 286//44
f 289//47 290//48 288//46
f 287//45 289//47 288//46
f 291//49 292//50 290//48
f 289//47 291//49 290//48
f 293//51 294//52 292//50
f 291//49 293//51 292//50
f 295//53 296//54 294//52
f 293//51 295//53 294//52
f 297//55 298//56 296//54
f 295//53 297//55 296//54
f 299//57 300//58 298//56
f 297//55 299//57 298//56
f 301//59 302//60 300//58
f 299//57 301//59 300//58
f 303//61 304//62 302//60
f 301//59 303//61 302//60
f 305//63 306//64 304//62
f 303//61 305//63 304//62
f 307//65 308//66 306//64
f 305//63 307//65 306//64
f 309//67 310//68 308//66
f 307//65 309//67 308//66
f 311//69 312//70 310//68
f 309//67 311//69 310//68
f 284//42 283//41 312//70
f 311//69 284//42 312//70
f 313//38 283//38 282//38
f 313//38 282//38 286//38
f 313//38 286//38 288//38
f 313//38 288//38 290//38
f 313//38 290//38 292//38
f 313//38 292//38 294//38
f 313//38 294//38 296//38
f 313//38 296//38 298//38
f 313//38 298//38 300//38
f 313//38 300//38 302//38
f 313//38 302//38 304//38
f 313//38 304//38 306//38
f 313//38 306//38 308//38
f 313//38 308//38 310//38
f 313//38 310//38 312//38
f 313//38 312//38 283//38
f 314//39 315//40 316//41
f 317//42 314//39 316//41
f 318//43 319//44 315//40
f 314//39 318//43 315//40
f 320//45 321//46 319//44
f 318//43 320//45 319//44
f 322//47 323//48 321//46
f 320//45 322//47 321//46
f 324//49 325//50 323//48
f 322//47 324//49 323//48
f 326//51 327//52 325//50
f 324//49 326//51 325//50
f 328//53 329//54 327//52
f 326//51 328//53 327//52
f 330//55 331//56 329//54
f 328//53 330//55 329//54
f 332//57 333//58 331//56
f 330//55 332//57 331//56
f 334//59 335//60 333//58
f 332//57 334//59 333//58
f 336//61 337//62 335//60
f 334//59 336//61 335//60
f 338//63 339//64 337//62
f 336//61 338//63 337//62
f 340//65 341//66 339//64
f 338//63 340//65 339//64
f 342//67 343//68 341//66
f 340//65 342//67 341//66
f 344//69 345//70 343//68
f 342//67 344//69 343//68
f 317//42 316//41 345//70
f 344//69 317//42 345//70
f 346//38 316//38 315//38
f 346//38 315//38 319//38
f 346//38 319//38 321//38
f 346//38 321//38 323//38
f 346//38 323//38 325//38
f 346//38 325//38 327//38
f 346//38 327//38 329//38
f 346//38 329//38 331//38
f 346//38 331//38 333//38
f 346//38 333//38 335//38
f 346//38 335//38 337//38
f 346//38 337//38 339//38
f 346//38 339//38 341//38
f 346//38 341//38 343//38
f 346//38 343//38 345//38
f 346//38 345//38 316//38
f 347//39 348//40 349//41
f 350//42 347//39 349//41
f 351//43 352//44 348//40
f 347//39 351//43 348//40
f 353//45 354//46 352//44
f 351//43 353//45 352//44
f 355//47 356//48 354//46
f 353//45 355//47 354//46
f 357//49 358//50 356//48
f 355//47 357//49 356//48
f 359//51 360//52 358//50
f 357//49 359//51 358//50
f 361//53 362//54 360//52
f 359//51 361//53 360//52
f 363//55 364//56 362//54
f 361//53 363//55 362//54
f 365//57 366//58 364//56
f 363//55 365//57 364//56
f 367//59 368//60 366//58
f 365//57 367//59 366//58
f 369//61 370//62 368//60
f 367//59 369//61 368//60
f 371//63 372//64 370//62
f 369//61 371//63 370//62
f 373//65 374//66 372//64
f 371//63 373//65 372//64
f 375//67 376//68 374//66
f 373//65 375//67 374//66
f 377//69 378//70 376//68
f 375//67 377//69 376//68
f 350//42 349//41 378//70
f 377//69 350//42 378//70
f 379//38 349//38 348//38
f 379//38 348//38 352//38
f 379//38 352//38 354//38
f 379//38 354//38 356//38
f 379//38 356//38 358//38
f 379//38 358//38 360//38
f 379//38 360//38 362//38
f 379//38 362//38 364//38
f 379//38 364//38 366//38
f 379//38 366//38 368//38
f 379//38 368//38 370//38
f 379//38 370//38 372//38
f 379//38 372//38 374//38
f 379//38 374//38 376//38
f 379//38 376//38 378//38
f 379//38 378//38 349//38
f 380//39 381//40 382//41
f 383//42 380//39 382//41
f 384//43 385//44 381//40
f 380//39 384//43 381//40
f 386//45 387//46 385//44
f 384//43 386//45 385//44
f 388//47 389//48 387//46
f 386//45 388//47 387//46
f 390//49 391//50 389//48
f 388//47 390//49 389//48
f 392//51 393//52 391//50
f 390//49 392//51 391//50
f 394//53 395//54 393//52
f 392//51 394//53 393//52
f 396//55 397//56 395//54
f 394//53 396//55 395//54
f 398//57 399//58 397//56
f 396//55 398//57 397//56
f 400//59 401//60 399//58
f 398//57 400//59 399//58
f 402//61 403//62 401//60
f 400//59 402//61 401//60
f 404//63 405//64 403//62
f 402//61 404//63 403//62
f 406//65 407//66 405//64
f 404//63 406//65 405//64
f 408//67 409//68 407//66
f 406//65 408//67 407//66
f 410//69 411//70 409//68
f 408//67 410//69 409//68
f 383//42 382//41 411//70
f 410//69 383//42 411//70
f 412//38 382//38 381//38
f 412//38 381//38 385//38
f 412//38 385//38 387//38
f 412//38 387//38 389//38
f 412//38 389//38 391//38
f 412//38 391//38 393//38
f 412//38 393//38 395//38
f 412//38 395//38 397//38
f 412//38 397//38 399//38
f 412//38 399//38 401//38
f 412//38 401//38 403//38
f 412//38 403//38 405//38
f 412//38 405//38 407//38
f 412//38 407//38 409//38
f 412//38 409//38 411//38
f 412//38 411//38 382//38
f 413//39 414//40 415//41
f 416//42 413//39 415//41
f 417//43 418//44 414//40
f 413//39 417//43 414//40
f 419//45 420//46 418//44
f 417//43 419//45 418//44
f 421//47 422//48 420//46
f 419//45 421//47 420//46
f 423//49 424//50 422//48
f 421//47 423//49 422//48
f 425//51 426//52 424//50
f 423//49 425//51 424//50
f 427//53 428//54 426//52
f 425//51 427//53 426//52
f 429//55 430//56 428//54
f 427//53 429//55 428//54
f 431//57 432//58 430//56
f 429//55 431//57 430//56
f 433//59 434//60 432//58
f 431//57 433//59 432//58
f 435//61 436//62 434//60
f 433//59 435//61 434//60
f 437//63 438//64 436//62
f 435//61 437//63 436//62
f 439//65 440//66 438//64
f 437//63 439//65 438//64
f 441//67 442//68 440//66
f 439//65 441//67 440//66
f 443//69 444//70 442//68
f 441//67 443//69 442//68
f 416//42 415//41 444//70
f 443//69 416//42 444//70
f 445//38 415//38 414//38
f 445//38 414//38 418//38
f 445//38 418//38 420//38
f 445//38 420//38 422//38
f 445//38 422//38 424//38
f 445//38 424//38 426//38
f 445//38 426//38 428//38
f 445//38 428//38 430//38
f 445//38 430//38 432//38
f 445//38 432//38 434//38
f 445//38 434//38 436//38
f 445//38 436//38 438//38
f 445//38 438//38 440//38
f 445//38 440//38 442//38
f 445//38 442//38 444//38
f 445//38 444//38 415//38
f 446//39 447//40 448//41
f 449//42 446//39 448//41
f 450//43 451//44 447//40
f 446//39 450//43 447//40
f 452//45 453//46 451//44
f 450//43 452//45 451//44
f 454//47 455//48 453//46
f 452//45 454//47 453//46
f 456//49 457//50 455//48
f 454//47 456//49 455//48
f 458//51 459//52 457//50
f 456//49 458//51 457//50
f 460//53 461//54 459//52
f 458//51 460//53 459//52
f 462//55 463//56 461//54
f 460//53 462//55 461//54
f 464//57 465//58 463//56
f 462//55 464//57 463//56
f 466//59 467//60 465//58
f 464//57 466//59 465//58
f 468//61 469//62 467//60
f 466//59 468//61 467//60
f 470//63 471//64 469//62
f 468//61 470//63 469//62
f 472//65 473//66 471//64
f 470//63 472//65 471//64
f 474//67 475//68 473//66
f 472//65 474//67 473//66
f 476//69 477//70 475//68
f 474//67 476//69 475//68
f 449//42 448//41 477//70
f 476//69 449//42 477//70
f 478//38 448//38 447//38
f 478//38 447//38 451//38
f 478//38 451//38 453//38
f 478//38 453//38 455//38
f 478//38 455//38 457//38
f 478//38 457//38 459//38
f 478//38 459//38 461//38
f 478//38 461//38 463//38
f 478//38 463//38 465//38
f 478//38 465//38 467//38
f 478//38 467//38 469//38
f 478//38 469//38 471//38
f 478//38 471//38 473//38
f 478//38 473//38 475//38
f 478//38 475//38 477//38
f 478//38 477//38 448//38
f 479//39 480//40 481//41
f 482//42 479//39 481//41
f 483//43 484//44 480//40
f 479//39 483//43 480//40
f 485//45 486//46 484//44
f 483//43 485//45 484//44
f 487//47 488//48 486//46
f 485//45 487//47 486//46
f 489//49 490//50 488//48
f 487//47 489//49 488//48
f 491//51 492//52 490//50
f 489//49 491//51 490//50
f 493//53 494//54 492//52
f 491//51 493//53 492//52
f 495//55 496//56 494//54
f 493//53 495//55 494//54
f 497//57 498//58 496//56
f 495//55 497//57 496//56
f 499//59 500//60 498//58
f 497//57 499//59 498//58
f 501//61 502//62 500//60
f 499//59 501//61 500//60
f 503//63 504//64 502//62
f 501//61 503//63 502//62
f 505//65 506//66 504//64
f 503//63 505//65 504//64
f 507//67 508//68 506//66
f 505//65 507//67 506//66
f 509//69 510//70 508//68
f 507//67 509//69 508//68
f 482//42 481//41 510//70
f 509//69 482//42 510//70
f 511//38 481//38 480//38
f 511//38 480//38 484//38
f 511//38 484//38 486//38
f 511//38 486//38 488//38
f 511//38 488//38 490//38
f 511//38 490//38 492//38
f 511//38 492//38 494//38
f 511//38 494//38 496//38
f 511//38 496//38 498//38
f 511//38 498//38 500//38
f 511//38 500//38 502//38
f 511//38 502//38 504//38
f 511//38 504//38 506//38
f 511//38 506//38 508//38
f 511//38 508//38 510//38
f 511//38 510//38 481//38
f 244//34 242//34 243//34
f 244//34 243//34 245//34
