# Botball Lab: metres, +Y up, centred XZ, base Y=0
s off
v -0.0240000 0.0000000 -0.0080000
v -0.0240000 0.0032000 -0.0080000
v 0.0240000 0.0032000 -0.0080000
v 0.0240000 0.0000000 -0.0080000
v -0.0240000 0.0000000 0.0080000
v -0.0240000 0.0032000 0.0080000
v 0.0240000 0.0000000 0.0080000
v 0.0240000 0.0032000 0.0080000
v 0.0224000 0.0016000 -0.0064000
v -0.0224000 0.0016000 -0.0064000
v -0.0224000 0.0000000 -0.0064000
v 0.0224000 0.0000000 -0.0064000
v -0.0224000 0.0016000 0.0064000
v -0.0224000 0.0000000 0.0064000
v 0.0224000 0.0016000 0.0064000
v 0.0224000 0.0000000 0.0064000
v 0.0184000 0.0016000 -0.0000000
v 0.0182174 0.0016000 -0.0009185
v 0.0182174 0.0000000 -0.0009185
v 0.0184000 0.0000000 -0.0000000
v 0.0176970 0.0016000 -0.0016970
v 0.0176970 0.0000000 -0.0016970
v 0.0169185 0.0016000 -0.0022174
v 0.0169185 0.0000000 -0.0022174
v 0.0160000 0.0016000 -0.0024000
v 0.0160000 0.0000000 -0.0024000
v 0.0150815 0.0016000 -0.0022174
v 0.0150815 0.0000000 -0.0022174
v 0.0143030 0.0016000 -0.0016970
v 0.0143030 0.0000000 -0.0016970
v 0.0137826 0.0016000 -0.0009185
v 0.0137826 0.0000000 -0.0009185
v 0.0136000 0.0016000 -0.0000000
v 0.0136000 0.0000000 -0.0000000
v 0.0137826 0.0016000 0.0009185
v 0.0137826 0.0000000 0.0009185
v 0.0143030 0.0016000 0.0016970
v 0.0143030 0.0000000 0.0016970
v 0.0150815 0.0016000 0.0022174
v 0.0150815 0.0000000 0.0022174
v 0.0160000 0.0016000 0.0024000
v 0.0160000 0.0000000 0.0024000
v 0.0169185 0.0016000 0.0022174
v 0.0169185 0.0000000 0.0022174
v 0.0176970 0.0016000 0.0016970
v 0.0176970 0.0000000 0.0016970
v 0.0182174 0.0016000 0.0009185
v 0.0182174 0.0000000 0.0009185
v 0.0189565 0.0000000 -0.0012246
v 0.0189565 0.0016000 -0.0012246
v 0.0192000 0.0016000 -0.0000000
v 0.0192000 0.0000000 -0.0000000
v 0.0182627 0.0000000 -0.0022627
v 0.0182627 0.0016000 -0.0022627
v 0.0172246 0.0000000 -0.0029565
v 0.0172246 0.0016000 -0.0029565
v 0.0160000 0.0000000 -0.0032000
v 0.0160000 0.0016000 -0.0032000
v 0.0147754 0.0000000 -0.0029565
v 0.0147754 0.0016000 -0.0029565
v 0.0137373 0.0000000 -0.0022627
v 0.0137373 0.0016000 -0.0022627
v 0.0130435 0.0000000 -0.0012246
v 0.0130435 0.0016000 -0.0012246
v 0.0128000 0.0000000 -0.0000000
v 0.0128000 0.0016000 -0.0000000
v 0.0130435 0.0000000 0.0012246
v 0.0130435 0.0016000 0.0012246
v 0.0137373 0.0000000 0.0022627
v 0.0137373 0.0016000 0.0022627
v 0.0147754 0.0000000 0.0029565
v 0.0147754 0.0016000 0.0029565
v 0.0160000 0.0000000 0.0032000
v 0.0160000 0.0016000 0.0032000
v 0.0172246 0.0000000 0.0029565
v 0.0172246 0.0016000 0.0029565
v 0.0182627 0.0000000 0.0022627
v 0.0182627 0.0016000 0.0022627
v 0.0189565 0.0000000 0.0012246
v 0.0189565 0.0016000 0.0012246
v 0.0104000 0.0016000 -0.0000000
v 0.0102174 0.0016000 -0.0009185
v 0.0102174 0.0000000 -0.0009185
v 0.0104000 0.0000000 -0.0000000
v 0.0096970 0.0016000 -0.0016970
v 0.0096970 0.0000000 -0.0016970
v 0.0089185 0.0016000 -0.0022174
v 0.0089185 0.0000000 -0.0022174
v 0.0080000 0.0016000 -0.0024000
v 0.0080000 0.0000000 -0.0024000
v 0.0070815 0.0016000 -0.0022174
v 0.0070815 0.0000000 -0.0022174
v 0.0063030 0.0016000 -0.0016970
v 0.0063030 0.0000000 -0.0016970
v 0.0057826 0.0016000 -0.0009185
v 0.0057826 0.0000000 -0.0009185
v 0.0056000 0.0016000 -0.0000000
v 0.0056000 0.0000000 -0.0000000
v 0.0057826 0.0016000 0.0009185
v 0.0057826 0.0000000 0.0009185
v 0.0063030 0.0016000 0.0016970
v 0.0063030 0.0000000 0.0016970
v 0.0070815 0.0016000 0.0022174
v 0.0070815 0.0000000 0.0022174
v 0.0080000 0.0016000 0.0024000
v 0.0080000 0.0000000 0.0024000
v 0.0089185 0.0016000 0.0022174
v 0.0089185 0.0000000 0.0022174
v 0.0096970 0.0016000 0.0016970
v 0.0096970 0.0000000 0.0016970
v 0.0102174 0.0016000 0.0009185
v 0.0102174 0.0000000 0.0009185
v 0.0109565 0.0000000 -0.0012246
v 0.0109565 0.0016000 -0.0012246
v 0.0112000 0.0016000 -0.0000000
v 0.0112000 0.0000000 -0.0000000
v 0.0102627 0.0000000 -0.0022627
v 0.0102627 0.0016000 -0.0022627
v 0.0092246 0.0000000 -0.0029565
v 0.0092246 0.0016000 -0.0029565
v 0.0080000 0.0000000 -0.0032000
v 0.0080000 0.0016000 -0.0032000
v 0.0067754 0.0000000 -0.0029565
v 0.0067754 0.0016000 -0.0029565
v 0.0057373 0.0000000 -0.0022627
v 0.0057373 0.0016000 -0.0022627
v 0.0050435 0.0000000 -0.0012246
v 0.0050435 0.0016000 -0.0012246
v 0.0048000 0.0000000 -0.0000000
v 0.0048000 0.0016000 -0.0000000
v 0.0050435 0.0000000 0.0012246
v 0.0050435 0.0016000 0.0012246
v 0.0057373 0.0000000 0.0022627
v 0.0057373 0.0016000 0.0022627
v 0.0067754 0.0000000 0.0029565
v 0.0067754 0.0016000 0.0029565
v 0.0080000 0.0000000 0.0032000
v 0.0080000 0.0016000 0.0032000
v 0.0092246 0.0000000 0.0029565
v 0.0092246 0.0016000 0.0029565
v 0.0102627 0.0000000 0.0022627
v 0.0102627 0.0016000 0.0022627
v 0.0109565 0.0000000 0.0012246
v 0.0109565 0.0016000 0.0012246
v 0.0024000 0.0016000 -0.0000000
v 0.0022174 0.0016000 -0.0009185
v 0.0022174 0.0000000 -0.0009185
v 0.0024000 0.0000000 -0.0000000
v 0.0016970 0.0016000 -0.0016970
v 0.0016970 0.0000000 -0.0016970
v 0.0009185 0.0016000 -0.0022174
v 0.0009185 0.0000000 -0.0022174
v 0.0000000 0.0016000 -0.0024000
v 0.0000000 0.0000000 -0.0024000
v -0.0009185 0.0016000 -0.0022174
v -0.0009185 0.0000000 -0.0022174
v -0.0016970 0.0016000 -0.0016970
v -0.0016970 0.0000000 -0.0016970
v -0.0022174 0.0016000 -0.0009185
v -0.0022174 0.0000000 -0.0009185
v -0.0024000 0.0016000 -0.0000000
v -0.0024000 0.0000000 -0.0000000
v -0.0022174 0.0016000 0.0009185
v -0.0022174 0.0000000 0.0009185
v -0.0016970 0.0016000 0.0016970
v -0.0016970 0.0000000 0.0016970
v -0.0009185 0.0016000 0.0022174
v -0.0009185 0.0000000 0.0022174
v 0.0000000 0.0016000 0.0024000
v 0.0000000 0.0000000 0.0024000
v 0.0009185 0.0016000 0.0022174
v 0.0009185 0.0000000 0.0022174
v 0.0016970 0.0016000 0.0016970
v 0.0016970 0.0000000 0.0016970
v 0.0022174 0.0016000 0.0009185
v 0.0022174 0.0000000 0.0009185
v 0.0029565 0.0000000 -0.0012246
v 0.0029565 0.0016000 -0.0012246
v 0.0032000 0.0016000 -0.0000000
v 0.0032000 0.0000000 -0.0000000
v 0.0022627 0.0000000 -0.0022627
v 0.0022627 0.0016000 -0.0022627
v 0.0012246 0.0000000 -0.0029565
v 0.0012246 0.0016000 -0.0029565
v 0.0000000 0.0000000 -0.0032000
v 0.0000000 0.0016000 -0.0032000
v -0.0012246 0.0000000 -0.0029565
v -0.0012246 0.0016000 -0.0029565
v -0.0022627 0.0000000 -0.0022627
v -0.0022627 0.0016000 -0.0022627
v -0.0029565 0.0000000 -0.0012246
v -0.0029565 0.0016000 -0.0012246
v -0.0032000 0.0000000 -0.0000000
v -0.0032000 0.0016000 -0.0000000
v -0.0029565 0.0000000 0.0012246
v -0.0029565 0.0016000 0.0012246
v -0.0022627 0.0000000 0.0022627
v -0.0022627 0.0016000 0.0022627
v -0.0012246 0.0000000 0.0029565
v -0.0012246 0.0016000 0.0029565
v 0.0000000 0.0000000 0.0032000
v 0.0000000 0.0016000 0.0032000
v 0.0012246 0.0000000 0.0029565
v 0.0012246 0.0016000 0.0029565
v 0.0022627 0.0000000 0.0022627
v 0.0022627 0.0016000 0.0022627
v 0.0029565 0.0000000 0.0012246
v 0.0029565 0.0016000 0.0012246
v -0.0056000 0.0016000 -0.0000000
v -0.0057826 0.0016000 -0.0009185
v -0.0057826 0.0000000 -0.0009185
v -0.0056000 0.0000000 -0.0000000
v -0.0063030 0.0016000 -0.0016970
v -0.0063030 0.0000000 -0.0016970
v -0.0070815 0.0016000 -0.0022174
v -0.0070815 0.0000000 -0.0022174
v -0.0080000 0.0016000 -0.0024000
v -0.0080000 0.0000000 -0.0024000
v -0.0089185 0.0016000 -0.0022174
v -0.0089185 0.0000000 -0.0022174
v -0.0096970 0.0016000 -0.0016970
v -0.0096970 0.0000000 -0.0016970
v -0.0102174 0.0016000 -0.0009185
v -0.0102174 0.0000000 -0.0009185
v -0.0104000 0.0016000 -0.0000000
v -0.0104000 0.0000000 -0.0000000
v -0.0102174 0.0016000 0.0009185
v -0.0102174 0.0000000 0.0009185
v -0.0096970 0.0016000 0.0016970
v -0.0096970 0.0000000 0.0016970
v -0.0089185 0.0016000 0.0022174
v -0.0089185 0.0000000 0.0022174
v -0.0080000 0.0016000 0.0024000
v -0.0080000 0.0000000 0.0024000
v -0.0070815 0.0016000 0.0022174
v -0.0070815 0.0000000 0.0022174
v -0.0063030 0.0016000 0.0016970
v -0.0063030 0.0000000 0.0016970
v -0.0057826 0.0016000 0.0009185
v -0.0057826 0.0000000 0.0009185
v -0.0050435 0.0000000 -0.0012246
v -0.0050435 0.0016000 -0.0012246
v -0.0048000 0.0016000 -0.0000000
v -0.0048000 0.0000000 -0.0000000
v -0.0057373 0.0000000 -0.0022627
v -0.0057373 0.0016000 -0.0022627
v -0.0067754 0.0000000 -0.0029565
v -0.0067754 0.0016000 -0.0029565
v -0.0080000 0.0000000 -0.0032000
v -0.0080000 0.0016000 -0.0032000
v -0.0092246 0.0000000 -0.0029565
v -0.0092246 0.0016000 -0.0029565
v -0.0102627 0.0000000 -0.0022627
v -0.0102627 0.0016000 -0.0022627
v -0.0109565 0.0000000 -0.0012246
v -0.0109565 0.0016000 -0.0012246
v -0.0112000 0.0000000 -0.0000000
v -0.0112000 0.0016000 -0.0000000
v -0.0109565 0.0000000 0.0012246
v -0.0109565 0.0016000 0.0012246
v -0.0102627 0.0000000 0.0022627
v -0.0102627 0.0016000 0.0022627
v -0.0092246 0.0000000 0.0029565
v -0.0092246 0.0016000 0.0029565
v -0.0080000 0.0000000 0.0032000
v -0.0080000 0.0016000 0.0032000
v -0.0067754 0.0000000 0.0029565
v -0.0067754 0.0016000 0.0029565
v -0.0057373 0.0000000 0.0022627
v -0.0057373 0.0016000 0.0022627
v -0.0050435 0.0000000 0.0012246
v -0.0050435 0.0016000 0.0012246
v -0.0136000 0.0016000 -0.0000000
v -0.0137826 0.0016000 -0.0009185
v -0.0137826 0.0000000 -0.0009185
v -0.0136000 0.0000000 -0.0000000
v -0.0143030 0.0016000 -0.0016970
v -0.0143030 0.0000000 -0.0016970
v -0.0150815 0.0016000 -0.0022174
v -0.0150815 0.0000000 -0.0022174
v -0.0160000 0.0016000 -0.0024000
v -0.0160000 0.0000000 -0.0024000
v -0.0169185 0.0016000 -0.0022174
v -0.0169185 0.0000000 -0.0022174
v -0.0176970 0.0016000 -0.0016970
v -0.0176970 0.0000000 -0.0016970
v -0.0182174 0.0016000 -0.0009185
v -0.0182174 0.0000000 -0.0009185
v -0.0184000 0.0016000 -0.0000000
v -0.0184000 0.0000000 -0.0000000
v -0.0182174 0.0016000 0.0009185
v -0.0182174 0.0000000 0.0009185
v -0.0176970 0.0016000 0.0016970
v -0.0176970 0.0000000 0.0016970
v -0.0169185 0.0016000 0.0022174
v -0.0169185 0.0000000 0.0022174
v -0.0160000 0.0016000 0.0024000
v -0.0160000 0.0000000 0.0024000
v -0.0150815 0.0016000 0.0022174
v -0.0150815 0.0000000 0.0022174
v -0.0143030 0.0016000 0.0016970
v -0.0143030 0.0000000 0.0016970
v -0.0137826 0.0016000 0.0009185
v -0.0137826 0.0000000 0.0009185
v -0.0130435 0.0000000 -0.0012246
v -0.0130435 0.0016000 -0.0012246
v -0.0128000 0.0016000 -0.0000000
v -0.0128000 0.0000000 -0.0000000
v -0.0137373 0.0000000 -0.0022627
v -0.0137373 0.0016000 -0.0022627
v -0.0147754 0.0000000 -0.0029565
v -0.0147754 0.0016000 -0.0029565
v -0.0160000 0.0000000 -0.0032000
v -0.0160000 0.0016000 -0.0032000
v -0.0172246 0.0000000 -0.0029565
v -0.0172246 0.0016000 -0.0029565
v -0.0182627 0.0000000 -0.0022627
v -0.0182627 0.0016000 -0.0022627
v -0.0189565 0.0000000 -0.0012246
v -0.0189565 0.0016000 -0.0012246
v -0.0192000 0.0000000 -0.0000000
v -0.0192000 0.0016000 -0.0000000
v -0.0189565 0.0000000 0.0012246
v -0.0189565 0.0016000 0.0012246
v -0.0182627 0.0000000 0.0022627
v -0.0182627 0.0016000 0.0022627
v -0.0172246 0.0000000 0.0029565
v -0.0172246 0.0016000 0.0029565
v -0.0160000 0.0000000 0.0032000
v -0.0160000 0.0016000 0.0032000
v -0.0147754 0.0000000 0.0029565
v -0.0147754 0.0016000 0.0029565
v -0.0137373 0.0000000 0.0022627
v -0.0137373 0.0016000 0.0022627
v -0.0130435 0.0000000 0.0012246
v -0.0130435 0.0016000 0.0012246
v 0.0182174 0.0032000 -0.0009185
v 0.0184000 0.0032000 -0.0000000
v 0.0176970 0.0032000 -0.0016970
v 0.0169185 0.0032000 -0.0022174
v 0.0160000 0.0032000 -0.0024000
v 0.0150815 0.0032000 -0.0022174
v 0.0143030 0.0032000 -0.0016970
v 0.0137826 0.0032000 -0.0009185
v 0.0136000 0.0032000 -0.0000000
v 0.0137826 0.0032000 0.0009185
v 0.0143030 0.0032000 0.0016970
v 0.0150815 0.0032000 0.0022174
v 0.0160000 0.0032000 0.0024000
v 0.0169185 0.0032000 0.0022174
v 0.0176970 0.0032000 0.0016970
v 0.0182174 0.0032000 0.0009185
v 0.0102174 0.0032000 -0.0009185
v 0.0104000 0.0032000 -0.0000000
v 0.0096970 0.0032000 -0.0016970
v 0.0089185 0.0032000 -0.0022174
v 0.0080000 0.0032000 -0.0024000
v 0.0070815 0.0032000 -0.0022174
v 0.0063030 0.0032000 -0.0016970
v 0.0057826 0.0032000 -0.0009185
v 0.0056000 0.0032000 -0.0000000
v 0.0057826 0.0032000 0.0009185
v 0.0063030 0.0032000 0.0016970
v 0.0070815 0.0032000 0.0022174
v 0.0080000 0.0032000 0.0024000
v 0.0089185 0.0032000 0.0022174
v 0.0096970 0.0032000 0.0016970
v 0.0102174 0.0032000 0.0009185
v 0.0022174 0.0032000 -0.0009185
v 0.0024000 0.0032000 -0.0000000
v 0.0016970 0.0032000 -0.0016970
v 0.0009185 0.0032000 -0.0022174
v 0.0000000 0.0032000 -0.0024000
v -0.0009185 0.0032000 -0.0022174
v -0.0016970 0.0032000 -0.0016970
v -0.0022174 0.0032000 -0.0009185
v -0.0024000 0.0032000 -0.0000000
v -0.0022174 0.0032000 0.0009185
v -0.0016970 0.0032000 0.0016970
v -0.0009185 0.0032000 0.0022174
v 0.0000000 0.0032000 0.0024000
v 0.0009185 0.0032000 0.0022174
v 0.0016970 0.0032000 0.0016970
v 0.0022174 0.0032000 0.0009185
v -0.0057826 0.0032000 -0.0009185
v -0.0056000 0.0032000 -0.0000000
v -0.0063030 0.0032000 -0.0016970
v -0.0070815 0.0032000 -0.0022174
v -0.0080000 0.0032000 -0.0024000
v -0.0089185 0.0032000 -0.0022174
v -0.0096970 0.0032000 -0.0016970
v -0.0102174 0.0032000 -0.0009185
v -0.0104000 0.0032000 -0.0000000
v -0.0102174 0.0032000 0.0009185
v -0.0096970 0.0032000 0.0016970
v -0.0089185 0.0032000 0.0022174
v -0.0080000 0.0032000 0.0024000
v -0.0070815 0.0032000 0.0022174
v -0.0063030 0.0032000 0.0016970
v -0.0057826 0.0032000 0.0009185
v -0.0137826 0.0032000 -0.0009185
v -0.0136000 0.0032000 -0.0000000
v -0.0143030 0.0032000 -0.0016970
v -0.0150815 0.0032000 -0.0022174
v -0.0160000 0.0032000 -0.0024000
v -0.0169185 0.0032000 -0.0022174
v -0.0176970 0.0032000 -0.0016970
v -0.0182174 0.0032000 -0.0009185
v -0.0184000 0.0032000 -0.0000000
v -0.0182174 0.0032000 0.0009185
v -0.0176970 0.0032000 0.0016970
v -0.0169185 0.0032000 0.0022174
v -0.0160000 0.0032000 0.0024000
v -0.0150815 0.0032000 0.0022174
v -0.0143030 0.0032000 0.0016970
v -0.0137826 0.0032000 0.0009185
v 0.0192000 0.0016000 -0.0032000
v 0.0128000 0.0016000 -0.0032000
v 0.0128000 0.0016000 0.0032000
v 0.0192000 0.0016000 0.0032000
v 0.0112000 0.0016000 -0.0032000
v 0.0048000 0.0016000 -0.0032000
v 0.0048000 0.0016000 0.0032000
v 0.0112000 0.0016000 0.0032000
v 0.0032000 0.0016000 -0.0032000
v -0.0032000 0.0016000 -0.0032000
v -0.0032000 0.0016000 0.0032000
v 0.0032000 0.0016000 0.0032000
v -0.0048000 0.0016000 -0.0032000
v -0.0112000 0.0016000 -0.0032000
v -0.0112000 0.0016000 0.0032000
v -0.0048000 0.0016000 0.0032000
v -0.0128000 0.0016000 -0.0032000
v -0.0192000 0.0016000 -0.0032000
v -0.0192000 0.0016000 0.0032000
v -0.0128000 0.0016000 0.0032000
v 0.0184000 0.0032000 -0.0024000
v 0.0136000 0.0032000 -0.0024000
v 0.0136000 0.0032000 0.0024000
v 0.0184000 0.0032000 0.0024000
v 0.0104000 0.0032000 -0.0024000
v 0.0056000 0.0032000 -0.0024000
v 0.0056000 0.0032000 0.0024000
v 0.0104000 0.0032000 0.0024000
v 0.0024000 0.0032000 -0.0024000
v -0.0024000 0.0032000 -0.0024000
v -0.0024000 0.0032000 0.0024000
v 0.0024000 0.0032000 0.0024000
v -0.0056000 0.0032000 -0.0024000
v -0.0104000 0.0032000 -0.0024000
v -0.0104000 0.0032000 0.0024000
v -0.0056000 0.0032000 0.0024000
v -0.0136000 0.0032000 -0.0024000
v -0.0184000 0.0032000 -0.0024000
v -0.0184000 0.0032000 0.0024000
v -0.0136000 0.0032000 0.0024000
v 0.0222174 0.0032000 -0.0049185
v 0.0222174 0.0048000 -0.0049185
v 0.0224000 0.0048000 -0.0040000
v 0.0224000 0.0032000 -0.0040000
v 0.0216970 0.0032000 -0.0056970
v 0.0216970 0.0048000 -0.0056970
v 0.0209185 0.0032000 -0.0062174
v 0.0209185 0.0048000 -0.0062174
v 0.0200000 0.0032000 -0.0064000
v 0.0200000 0.0048000 -0.0064000
v 0.0190815 0.0032000 -0.0062174
v 0.0190815 0.0048000 -0.0062174
v 0.0183030 0.0032000 -0.0056970
v 0.0183030 0.0048000 -0.0056970
v 0.0177826 0.0032000 -0.0049185
v 0.0177826 0.0048000 -0.0049185
v 0.0176000 0.0032000 -0.0040000
v 0.0176000 0.0048000 -0.0040000
v 0.0177826 0.0032000 -0.0030815
v 0.0177826 0.0048000 -0.0030815
v 0.0183030 0.0032000 -0.0023030
v 0.0183030 0.0048000 -0.0023030
v 0.0190815 0.0032000 -0.0017826
v 0.0190815 0.0048000 -0.0017826
v 0.0200000 0.0032000 -0.0016000
v 0.0200000 0.0048000 -0.0016000
v 0.0209185 0.0032000 -0.0017826
v 0.0209185 0.0048000 -0.0017826
v 0.0216970 0.0032000 -0.0023030
v 0.0216970 0.0048000 -0.0023030
v 0.0222174 0.0032000 -0.0030815
v 0.0222174 0.0048000 -0.0030815
v 0.0200000 0.0048000 -0.0040000
v 0.0142174 0.0032000 -0.0049185
v 0.0142174 0.0048000 -0.0049185
v 0.0144000 0.0048000 -0.0040000
v 0.0144000 0.0032000 -0.0040000
v 0.0136970 0.0032000 -0.0056970
v 0.0136970 0.0048000 -0.0056970
v 0.0129185 0.0032000 -0.0062174
v 0.0129185 0.0048000 -0.0062174
v 0.0120000 0.0032000 -0.0064000
v 0.0120000 0.0048000 -0.0064000
v 0.0110815 0.0032000 -0.0062174
v 0.0110815 0.0048000 -0.0062174
v 0.0103030 0.0032000 -0.0056970
v 0.0103030 0.0048000 -0.0056970
v 0.0097826 0.0032000 -0.0049185
v 0.0097826 0.0048000 -0.0049185
v 0.0096000 0.0032000 -0.0040000
v 0.0096000 0.0048000 -0.0040000
v 0.0097826 0.0032000 -0.0030815
v 0.0097826 0.0048000 -0.0030815
v 0.0103030 0.0032000 -0.0023030
v 0.0103030 0.0048000 -0.0023030
v 0.0110815 0.0032000 -0.0017826
v 0.0110815 0.0048000 -0.0017826
v 0.0120000 0.0032000 -0.0016000
v 0.0120000 0.0048000 -0.0016000
v 0.0129185 0.0032000 -0.0017826
v 0.0129185 0.0048000 -0.0017826
v 0.0136970 0.0032000 -0.0023030
v 0.0136970 0.0048000 -0.0023030
v 0.0142174 0.0032000 -0.0030815
v 0.0142174 0.0048000 -0.0030815
v 0.0120000 0.0048000 -0.0040000
v 0.0062174 0.0032000 -0.0049185
v 0.0062174 0.0048000 -0.0049185
v 0.0064000 0.0048000 -0.0040000
v 0.0064000 0.0032000 -0.0040000
v 0.0056970 0.0032000 -0.0056970
v 0.0056970 0.0048000 -0.0056970
v 0.0049185 0.0032000 -0.0062174
v 0.0049185 0.0048000 -0.0062174
v 0.0040000 0.0032000 -0.0064000
v 0.0040000 0.0048000 -0.0064000
v 0.0030815 0.0032000 -0.0062174
v 0.0030815 0.0048000 -0.0062174
v 0.0023030 0.0032000 -0.0056970
v 0.0023030 0.0048000 -0.0056970
v 0.0017826 0.0032000 -0.0049185
v 0.0017826 0.0048000 -0.0049185
v 0.0016000 0.0032000 -0.0040000
v 0.0016000 0.0048000 -0.0040000
v 0.0017826 0.0032000 -0.0030815
v 0.0017826 0.0048000 -0.0030815
v 0.0023030 0.0032000 -0.0023030
v 0.0023030 0.0048000 -0.0023030
v 0.0030815 0.0032000 -0.0017826
v 0.0030815 0.0048000 -0.0017826
v 0.0040000 0.0032000 -0.0016000
v 0.0040000 0.0048000 -0.0016000
v 0.0049185 0.0032000 -0.0017826
v 0.0049185 0.0048000 -0.0017826
v 0.0056970 0.0032000 -0.0023030
v 0.0056970 0.0048000 -0.0023030
v 0.0062174 0.0032000 -0.0030815
v 0.0062174 0.0048000 -0.0030815
v 0.0040000 0.0048000 -0.0040000
v -0.0017826 0.0032000 -0.0049185
v -0.0017826 0.0048000 -0.0049185
v -0.0016000 0.0048000 -0.0040000
v -0.0016000 0.0032000 -0.0040000
v -0.0023030 0.0032000 -0.0056970
v -0.0023030 0.0048000 -0.0056970
v -0.0030815 0.0032000 -0.0062174
v -0.0030815 0.0048000 -0.0062174
v -0.0040000 0.0032000 -0.0064000
v -0.0040000 0.0048000 -0.0064000
v -0.0049185 0.0032000 -0.0062174
v -0.0049185 0.0048000 -0.0062174
v -0.0056970 0.0032000 -0.0056970
v -0.0056970 0.0048000 -0.0056970
v -0.0062174 0.0032000 -0.0049185
v -0.0062174 0.0048000 -0.0049185
v -0.0064000 0.0032000 -0.0040000
v -0.0064000 0.0048000 -0.0040000
v -0.0062174 0.0032000 -0.0030815
v -0.0062174 0.0048000 -0.0030815
v -0.0056970 0.0032000 -0.0023030
v -0.0056970 0.0048000 -0.0023030
v -0.0049185 0.0032000 -0.0017826
v -0.0049185 0.0048000 -0.0017826
v -0.0040000 0.0032000 -0.0016000
v -0.0040000 0.0048000 -0.0016000
v -0.0030815 0.0032000 -0.0017826
v -0.0030815 0.0048000 -0.0017826
v -0.0023030 0.0032000 -0.0023030
v -0.0023030 0.0048000 -0.0023030
v -0.0017826 0.0032000 -0.0030815
v -0.0017826 0.0048000 -0.0030815
v -0.0040000 0.0048000 -0.0040000
v -0.0097826 0.0032000 -0.0049185
v -0.0097826 0.0048000 -0.0049185
v -0.0096000 0.0048000 -0.0040000
v -0.0096000 0.0032000 -0.0040000
v -0.0103030 0.0032000 -0.0056970
v -0.0103030 0.0048000 -0.0056970
v -0.0110815 0.0032000 -0.0062174
v -0.0110815 0.0048000 -0.0062174
v -0.0120000 0.0032000 -0.0064000
v -0.0120000 0.0048000 -0.0064000
v -0.0129185 0.0032000 -0.0062174
v -0.0129185 0.0048000 -0.0062174
v -0.0136970 0.0032000 -0.0056970
v -0.0136970 0.0048000 -0.0056970
v -0.0142174 0.0032000 -0.0049185
v -0.0142174 0.0048000 -0.0049185
v -0.0144000 0.0032000 -0.0040000
v -0.0144000 0.0048000 -0.0040000
v -0.0142174 0.0032000 -0.0030815
v -0.0142174 0.0048000 -0.0030815
v -0.0136970 0.0032000 -0.0023030
v -0.0136970 0.0048000 -0.0023030
v -0.0129185 0.0032000 -0.0017826
v -0.0129185 0.0048000 -0.0017826
v -0.0120000 0.0032000 -0.0016000
v -0.0120000 0.0048000 -0.0016000
v -0.0110815 0.0032000 -0.0017826
v -0.0110815 0.0048000 -0.0017826
v -0.0103030 0.0032000 -0.0023030
v -0.0103030 0.0048000 -0.0023030
v -0.0097826 0.0032000 -0.0030815
v -0.0097826 0.0048000 -0.0030815
v -0.0120000 0.0048000 -0.0040000
v -0.0177826 0.0032000 -0.0049185
v -0.0177826 0.0048000 -0.0049185
v -0.0176000 0.0048000 -0.0040000
v -0.0176000 0.0032000 -0.0040000
v -0.0183030 0.0032000 -0.0056970
v -0.0183030 0.0048000 -0.0056970
v -0.0190815 0.0032000 -0.0062174
v -0.0190815 0.0048000 -0.0062174
v -0.0200000 0.0032000 -0.0064000
v -0.0200000 0.0048000 -0.0064000
v -0.0209185 0.0032000 -0.0062174
v -0.0209185 0.0048000 -0.0062174
v -0.0216970 0.0032000 -0.0056970
v -0.0216970 0.0048000 -0.0056970
v -0.0222174 0.0032000 -0.0049185
v -0.0222174 0.0048000 -0.0049185
v -0.0224000 0.0032000 -0.0040000
v -0.0224000 0.0048000 -0.0040000
v -0.0222174 0.0032000 -0.0030815
v -0.0222174 0.0048000 -0.0030815
v -0.0216970 0.0032000 -0.0023030
v -0.0216970 0.0048000 -0.0023030
v -0.0209185 0.0032000 -0.0017826
v -0.0209185 0.0048000 -0.0017826
v -0.0200000 0.0032000 -0.0016000
v -0.0200000 0.0048000 -0.0016000
v -0.0190815 0.0032000 -0.0017826
v -0.0190815 0.0048000 -0.0017826
v -0.0183030 0.0032000 -0.0023030
v -0.0183030 0.0048000 -0.0023030
v -0.0177826 0.0032000 -0.0030815
v -0.0177826 0.0048000 -0.0030815
v -0.0200000 0.0048000 -0.0040000
v 0.0222174 0.0032000 0.0030815
v 0.0222174 0.0048000 0.0030815
v 0.0224000 0.0048000 0.0040000
v 0.0224000 0.0032000 0.0040000
v 0.0216970 0.0032000 0.0023030
v 0.0216970 0.0048000 0.0023030
v 0.0209185 0.0032000 0.0017826
v 0.0209185 0.0048000 0.0017826
v 0.0200000 0.0032000 0.0016000
v 0.0200000 0.0048000 0.0016000
v 0.0190815 0.0032000 0.0017826
v 0.0190815 0.0048000 0.0017826
v 0.0183030 0.0032000 0.0023030
v 0.0183030 0.0048000 0.0023030
v 0.0177826 0.0032000 0.0030815
v 0.0177826 0.0048000 0.0030815
v 0.0176000 0.0032000 0.0040000
v 0.0176000 0.0048000 0.0040000
v 0.0177826 0.0032000 0.0049185
v 0.0177826 0.0048000 0.0049185
v 0.0183030 0.0032000 0.0056970
v 0.0183030 0.0048000 0.0056970
v 0.0190815 0.0032000 0.0062174
v 0.0190815 0.0048000 0.0062174
v 0.0200000 0.0032000 0.0064000
v 0.0200000 0.0048000 0.0064000
v 0.0209185 0.0032000 0.0062174
v 0.0209185 0.0048000 0.0062174
v 0.0216970 0.0032000 0.0056970
v 0.0216970 0.0048000 0.0056970
v 0.0222174 0.0032000 0.0049185
v 0.0222174 0.0048000 0.0049185
v 0.0200000 0.0048000 0.0040000
v 0.0142174 0.0032000 0.0030815
v 0.0142174 0.0048000 0.0030815
v 0.0144000 0.0048000 0.0040000
v 0.0144000 0.0032000 0.0040000
v 0.0136970 0.0032000 0.0023030
v 0.0136970 0.0048000 0.0023030
v 0.0129185 0.0032000 0.0017826
v 0.0129185 0.0048000 0.0017826
v 0.0120000 0.0032000 0.0016000
v 0.0120000 0.0048000 0.0016000
v 0.0110815 0.0032000 0.0017826
v 0.0110815 0.0048000 0.0017826
v 0.0103030 0.0032000 0.0023030
v 0.0103030 0.0048000 0.0023030
v 0.0097826 0.0032000 0.0030815
v 0.0097826 0.0048000 0.0030815
v 0.0096000 0.0032000 0.0040000
v 0.0096000 0.0048000 0.0040000
v 0.0097826 0.0032000 0.0049185
v 0.0097826 0.0048000 0.0049185
v 0.0103030 0.0032000 0.0056970
v 0.0103030 0.0048000 0.0056970
v 0.0110815 0.0032000 0.0062174
v 0.0110815 0.0048000 0.0062174
v 0.0120000 0.0032000 0.0064000
v 0.0120000 0.0048000 0.0064000
v 0.0129185 0.0032000 0.0062174
v 0.0129185 0.0048000 0.0062174
v 0.0136970 0.0032000 0.0056970
v 0.0136970 0.0048000 0.0056970
v 0.0142174 0.0032000 0.0049185
v 0.0142174 0.0048000 0.0049185
v 0.0120000 0.0048000 0.0040000
v 0.0062174 0.0032000 0.0030815
v 0.0062174 0.0048000 0.0030815
v 0.0064000 0.0048000 0.0040000
v 0.0064000 0.0032000 0.0040000
v 0.0056970 0.0032000 0.0023030
v 0.0056970 0.0048000 0.0023030
v 0.0049185 0.0032000 0.0017826
v 0.0049185 0.0048000 0.0017826
v 0.0040000 0.0032000 0.0016000
v 0.0040000 0.0048000 0.0016000
v 0.0030815 0.0032000 0.0017826
v 0.0030815 0.0048000 0.0017826
v 0.0023030 0.0032000 0.0023030
v 0.0023030 0.0048000 0.0023030
v 0.0017826 0.0032000 0.0030815
v 0.0017826 0.0048000 0.0030815
v 0.0016000 0.0032000 0.0040000
v 0.0016000 0.0048000 0.0040000
v 0.0017826 0.0032000 0.0049185
v 0.0017826 0.0048000 0.0049185
v 0.0023030 0.0032000 0.0056970
v 0.0023030 0.0048000 0.0056970
v 0.0030815 0.0032000 0.0062174
v 0.0030815 0.0048000 0.0062174
v 0.0040000 0.0032000 0.0064000
v 0.0040000 0.0048000 0.0064000
v 0.0049185 0.0032000 0.0062174
v 0.0049185 0.0048000 0.0062174
v 0.0056970 0.0032000 0.0056970
v 0.0056970 0.0048000 0.0056970
v 0.0062174 0.0032000 0.0049185
v 0.0062174 0.0048000 0.0049185
v 0.0040000 0.0048000 0.0040000
v -0.0017826 0.0032000 0.0030815
v -0.0017826 0.0048000 0.0030815
v -0.0016000 0.0048000 0.0040000
v -0.0016000 0.0032000 0.0040000
v -0.0023030 0.0032000 0.0023030
v -0.0023030 0.0048000 0.0023030
v -0.0030815 0.0032000 0.0017826
v -0.0030815 0.0048000 0.0017826
v -0.0040000 0.0032000 0.0016000
v -0.0040000 0.0048000 0.0016000
v -0.0049185 0.0032000 0.0017826
v -0.0049185 0.0048000 0.0017826
v -0.0056970 0.0032000 0.0023030
v -0.0056970 0.0048000 0.0023030
v -0.0062174 0.0032000 0.0030815
v -0.0062174 0.0048000 0.0030815
v -0.0064000 0.0032000 0.0040000
v -0.0064000 0.0048000 0.0040000
v -0.0062174 0.0032000 0.0049185
v -0.0062174 0.0048000 0.0049185
v -0.0056970 0.0032000 0.0056970
v -0.0056970 0.0048000 0.0056970
v -0.0049185 0.0032000 0.0062174
v -0.0049185 0.0048000 0.0062174
v -0.0040000 0.0032000 0.0064000
v -0.0040000 0.0048000 0.0064000
v -0.0030815 0.0032000 0.0062174
v -0.0030815 0.0048000 0.0062174
v -0.0023030 0.0032000 0.0056970
v -0.0023030 0.0048000 0.0056970
v -0.0017826 0.0032000 0.0049185
v -0.0017826 0.0048000 0.0049185
v -0.0040000 0.0048000 0.0040000
v -0.0097826 0.0032000 0.0030815
v -0.0097826 0.0048000 0.0030815
v -0.0096000 0.0048000 0.0040000
v -0.0096000 0.0032000 0.0040000
v -0.0103030 0.0032000 0.0023030
v -0.0103030 0.0048000 0.0023030
v -0.0110815 0.0032000 0.0017826
v -0.0110815 0.0048000 0.0017826
v -0.0120000 0.0032000 0.0016000
v -0.0120000 0.0048000 0.0016000
v -0.0129185 0.0032000 0.0017826
v -0.0129185 0.0048000 0.0017826
v -0.0136970 0.0032000 0.0023030
v -0.0136970 0.0048000 0.0023030
v -0.0142174 0.0032000 0.0030815
v -0.0142174 0.0048000 0.0030815
v -0.0144000 0.0032000 0.0040000
v -0.0144000 0.0048000 0.0040000
v -0.0142174 0.0032000 0.0049185
v -0.0142174 0.0048000 0.0049185
v -0.0136970 0.0032000 0.0056970
v -0.0136970 0.0048000 0.0056970
v -0.0129185 0.0032000 0.0062174
v -0.0129185 0.0048000 0.0062174
v -0.0120000 0.0032000 0.0064000
v -0.0120000 0.0048000 0.0064000
v -0.0110815 0.0032000 0.0062174
v -0.0110815 0.0048000 0.0062174
v -0.0103030 0.0032000 0.0056970
v -0.0103030 0.0048000 0.0056970
v -0.0097826 0.0032000 0.0049185
v -0.0097826 0.0048000 0.0049185
v -0.0120000 0.0048000 0.0040000
v -0.0177826 0.0032000 0.0030815
v -0.0177826 0.0048000 0.0030815
v -0.0176000 0.0048000 0.0040000
v -0.0176000 0.0032000 0.0040000
v -0.0183030 0.0032000 0.0023030
v -0.0183030 0.0048000 0.0023030
v -0.0190815 0.0032000 0.0017826
v -0.0190815 0.0048000 0.0017826
v -0.0200000 0.0032000 0.0016000
v -0.0200000 0.0048000 0.0016000
v -0.0209185 0.0032000 0.0017826
v -0.0209185 0.0048000 0.0017826
v -0.0216970 0.0032000 0.0023030
v -0.0216970 0.0048000 0.0023030
v -0.0222174 0.0032000 0.0030815
v -0.0222174 0.0048000 0.0030815
v -0.0224000 0.0032000 0.0040000
v -0.0224000 0.0048000 0.0040000
v -0.0222174 0.0032000 0.0049185
v -0.0222174 0.0048000 0.0049185
v -0.0216970 0.0032000 0.0056970
v -0.0216970 0.0048000 0.0056970
v -0.0209185 0.0032000 0.0062174
v -0.0209185 0.0048000 0.0062174
v -0.0200000 0.0032000 0.0064000
v -0.0200000 0.0048000 0.0064000
v -0.0190815 0.0032000 0.0062174
v -0.0190815 0.0048000 0.0062174
v -0.0183030 0.0032000 0.0056970
v -0.0183030 0.0048000 0.0056970
v -0.0177826 0.0032000 0.0049185
v -0.0177826 0.0048000 0.0049185
v -0.0200000 0.0048000 0.0040000
f 1 2 3
f 1 3 4
f 5 6 2
f 5 2 1
f 7 8 6
f 7 6 5
f 4 3 8
f 4 8 7
f 9 10 11
f 12 9 11
f 10 13 14
f 11 10 14
f 13 15 16
f 14 13 16
f 15 9 12
f 16 15 12
f 17 18 19
f 17 19 20
f 18 21 22
f 18 22 19
f 21 23 24
f 21 24 22
f 23 25 26
f 23 26 24
f 25 27 28
f 25 28 26
f 27 29 30
f 27 30 28
f 29 31 32
f 29 32 30
f 31 33 34
f 31 34 32
f 33 35 36
f 33 36 34
f 35 37 38
f 35 38 36
f 37 39 40
f 37 40 38
f 39 41 42
f 39 42 40
f 41 43 44
f 41 44 42
f 43 45 46
f 43 46 44
f 45 47 48
f 45 48 46
f 47 17 20
f 47 20 48
f 49 50 51
f 52 49 51
f 53 54 50
f 49 53 50
f 55 56 54
f 53 55 54
f 57 58 56
f 55 57 56
f 59 60 58
f 57 59 58
f 61 62 60
f 59 61 60
f 63 64 62
f 61 63 62
f 65 66 64
f 63 65 64
f 67 68 66
f 65 67 66
f 69 70 68
f 67 69 68
f 71 72 70
f 69 71 70
f 73 74 72
f 71 73 72
f 75 76 74
f 73 75 74
f 77 78 76
f 75 77 76
f 79 80 78
f 77 79 78
f 52 51 80
f 79 52 80
f 26 28 59
f 57 26 59
f 28 30 61
f 59 28 61
f 30 32 63
f 61 30 63
f 32 34 65
f 63 32 65
f 34 36 67
f 65 34 67
f 36 38 69
f 67 36 69
f 38 40 71
f 69 38 71
f 40 42 73
f 71 40 73
f 42 44 75
f 73 42 75
f 44 46 77
f 75 44 77
f 46 48 79
f 77 46 79
f 48 20 52
f 79 48 52
f 20 19 49
f 52 20 49
f 19 22 53
f 49 19 53
f 22 24 55
f 53 22 55
f 24 26 57
f 55 24 57
f 81 82 83
f 81 83 84
f 82 85 86
f 82 86 83
f 85 87 88
f 85 88 86
f 87 89 90
f 87 90 88
f 89 91 92
f 89 92 90
f 91 93 94
f 91 94 92
f 93 95 96
f 93 96 94
f 95 97 98
f 95 98 96
f 97 99 100
f 97 100 98
f 99 101 102
f 99 102 100
f 101 103 104
f 101 104 102
f 103 105 106
f 103 106 104
f 105 107 108
f 105 108 106
f 107 109 110
f 107 110 108
f 109 111 112
f 109 112 110
f 111 81 84
f 111 84 112
f 113 114 115
f 116 113 115
f 117 118 114
f 113 117 114
f 119 120 118
f 117 119 118
f 121 122 120
f 119 121 120
f 123 124 122
f 121 123 122
f 125 126 124
f 123 125 124
f 127 128 126
f 125 127 126
f 129 130 128
f 127 129 128
f 131 132 130
f 129 131 130
f 133 134 132
f 131 133 132
f 135 136 134
f 133 135 134
f 137 138 136
f 135 137 136
f 139 140 138
f 137 139 138
f 141 142 140
f 139 141 140
f 143 144 142
f 141 143 142
f 116 115 144
f 143 116 144
f 90 92 123
f 121 90 123
f 92 94 125
f 123 92 125
f 94 96 127
f 125 94 127
f 96 98 129
f 127 96 129
f 98 100 131
f 129 98 131
f 100 102 133
f 131 100 133
f 102 104 135
f 133 102 135
f 104 106 137
f 135 104 137
f 106 108 139
f 137 106 139
f 108 110 141
f 139 108 141
f 110 112 143
f 141 110 143
f 112 84 116
f 143 112 116
f 84 83 113
f 116 84 113
f 83 86 117
f 113 83 117
f 86 88 119
f 117 86 119
f 88 90 121
f 119 88 121
f 145 146 147
f 145 147 148
f 146 149 150
f 146 150 147
f 149 151 152
f 149 152 150
f 151 153 154
f 151 154 152
f 153 155 156
f 153 156 154
f 155 157 158
f 155 158 156
f 157 159 160
f 157 160 158
f 159 161 162
f 159 162 160
f 161 163 164
f 161 164 162
f 163 165 166
f 163 166 164
f 165 167 168
f 165 168 166
f 167 169 170
f 167 170 168
f 169 171 172
f 169 172 170
f 171 173 174
f 171 174 172
f 173 175 176
f 173 176 174
f 175 145 148
f 175 148 176
f 177 178 179
f 180 177 179
f 181 182 178
f 177 181 178
f 183 184 182
f 181 183 182
f 185 186 184
f 183 185 184
f 187 188 186
f 185 187 186
f 189 190 188
f 187 189 188
f 191 192 190
f 189 191 190
f 193 194 192
f 191 193 192
f 195 196 194
f 193 195 194
f 197 198 196
f 195 197 196
f 199 200 198
f 197 199 198
f 201 202 200
f 199 201 200
f 203 204 202
f 201 203 202
f 205 206 204
f 203 205 204
f 207 208 206
f 205 207 206
f 180 179 208
f 207 180 208
f 154 156 187
f 185 154 187
f 156 158 189
f 187 156 189
f 158 160 191
f 189 158 191
f 160 162 193
f 191 160 193
f 162 164 195
f 193 162 195
f 164 166 197
f 195 164 197
f 166 168 199
f 197 166 199
f 168 170 201
f 199 168 201
f 170 172 203
f 201 170 203
f 172 174 205
f 203 172 205
f 174 176 207
f 205 174 207
f 176 148 180
f 207 176 180
f 148 147 177
f 180 148 177
f 147 150 181
f 177 147 181
f 150 152 183
f 181 150 183
f 152 154 185
f 183 152 185
f 209 210 211
f 209 211 212
f 210 213 214
f 210 214 211
f 213 215 216
f 213 216 214
f 215 217 218
f 215 218 216
f 217 219 220
f 217 220 218
f 219 221 222
f 219 222 220
f 221 223 224
f 221 224 222
f 223 225 226
f 223 226 224
f 225 227 228
f 225 228 226
f 227 229 230
f 227 230 228
f 229 231 232
f 229 232 230
f 231 233 234
f 231 234 232
f 233 235 236
f 233 236 234
f 235 237 238
f 235 238 236
f 237 239 240
f 237 240 238
f 239 209 212
f 239 212 240
f 241 242 243
f 244 241 243
f 245 246 242
f 241 245 242
f 247 248 246
f 245 247 246
f 249 250 248
f 247 249 248
f 251 252 250
f 249 251 250
f 253 254 252
f 251 253 252
f 255 256 254
f 253 255 254
f 257 258 256
f 255 257 256
f 259 260 258
f 257 259 258
f 261 262 260
f 259 261 260
f 263 264 262
f 261 263 262
f 265 266 264
f 263 265 264
f 267 268 266
f 265 267 266
f 269 270 268
f 267 269 268
f 271 272 270
f 269 271 270
f 244 243 272
f 271 244 272
f 218 220 251
f 249 218 251
f 220 222 253
f 251 220 253
f 222 224 255
f 253 222 255
f 224 226 257
f 255 224 257
f 226 228 259
f 257 226 259
f 228 230 261
f 259 228 261
f 230 232 263
f 261 230 263
f 232 234 265
f 263 232 265
f 234 236 267
f 265 234 267
f 236 238 269
f 267 236 269
f 238 240 271
f 269 238 271
f 240 212 244
f 271 240 244
f 212 211 241
f 244 212 241
f 211 214 245
f 241 211 245
f 214 216 247
f 245 214 247
f 216 218 249
f 247 216 249
f 273 274 275
f 273 275 276
f 274 277 278
f 274 278 275
f 277 279 280
f 277 280 278
f 279 281 282
f 279 282 280
f 281 283 284
f 281 284 282
f 283 285 286
f 283 286 284
f 285 287 288
f 285 288 286
f 287 289 290
f 287 290 288
f 289 291 292
f 289 292 290
f 291 293 294
f 291 294 292
f 293 295 296
f 293 296 294
f 295 297 298
f 295 298 296
f 297 299 300
f 297 300 298
f 299 301 302
f 299 302 300
f 301 303 304
f 301 304 302
f 303 273 276
f 303 276 304
f 305 306 307
f 308 305 307
f 309 310 306
f 305 309 306
f 311 312 310
f 309 311 310
f 313 314 312
f 311 313 312
f 315 316 314
f 313 315 314
f 317 318 316
f 315 317 316
f 319 320 318
f 317 319 318
f 321 322 320
f 319 321 320
f 323 324 322
f 321 323 322
f 325 326 324
f 323 325 324
f 327 328 326
f 325 327 326
f 329 330 328
f 327 329 328
f 331 332 330
f 329 331 330
f 333 334 332
f 331 333 332
f 335 336 334
f 333 335 334
f 308 307 336
f 335 308 336
f 282 284 315
f 313 282 315
f 284 286 317
f 315 284 317
f 286 288 319
f 317 286 319
f 288 290 321
f 319 288 321
f 290 292 323
f 321 290 323
f 292 294 325
f 323 292 325
f 294 296 327
f 325 294 327
f 296 298 329
f 327 296 329
f 298 300 331
f 329 298 331
f 300 302 333
f 331 300 333
f 302 304 335
f 333 302 335
f 304 276 308
f 335 304 308
f 276 275 305
f 308 276 305
f 275 278 309
f 305 275 309
f 278 280 311
f 309 278 311
f 280 282 313
f 311 280 313
f 337 18 17
f 338 337 17
f 339 21 18
f 337 339 18
f 340 23 21
f 339 340 21
f 341 25 23
f 340 341 23
f 342 27 25
f 341 342 25
f 343 29 27
f 342 343 27
f 344 31 29
f 343 344 29
f 345 33 31
f 344 345 31
f 346 35 33
f 345 346 33
f 347 37 35
f 346 347 35
f 348 39 37
f 347 348 37
f 349 41 39
f 348 349 39
f 350 43 41
f 349 350 41
f 351 45 43
f 350 351 43
f 352 47 45
f 351 352 45
f 338 17 47
f 352 338 47
f 353 82 81
f 354 353 81
f 355 85 82
f 353 355 82
f 356 87 85
f 355 356 85
f 357 89 87
f 356 357 87
f 358 91 89
f 357 358 89
f 359 93 91
f 358 359 91
f 360 95 93
f 359 360 93
f 361 97 95
f 360 361 95
f 362 99 97
f 361 362 97
f 363 101 99
f 362 363 99
f 364 103 101
f 363 364 101
f 365 105 103
f 364 365 103
f 366 107 105
f 365 366 105
f 367 109 107
f 366 367 107
f 368 111 109
f 367 368 109
f 354 81 111
f 368 354 111
f 369 146 145
f 370 369 145
f 371 149 146
f 369 371 146
f 372 151 149
f 371 372 149
f 373 153 151
f 372 373 151
f 374 155 153
f 373 374 153
f 375 157 155
f 374 375 155
f 376 159 157
f 375 376 157
f 377 161 159
f 376 377 159
f 378 163 161
f 377 378 161
f 379 165 163
f 378 379 163
f 380 167 165
f 379 380 165
f 381 169 167
f 380 381 167
f 382 171 169
f 381 382 169
f 383 173 171
f 382 383 171
f 384 175 173
f 383 384 173
f 370 145 175
f 384 370 175
f 385 210 209
f 386 385 209
f 387 213 210
f 385 387 210
f 388 215 213
f 387 388 213
f 389 217 215
f 388 389 215
f 390 219 217
f 389 390 217
f 391 221 219
f 390 391 219
f 392 223 221
f 391 392 221
f 393 225 223
f 392 393 223
f 394 227 225
f 393 394 225
f 395 229 227
f 394 395 227
f 396 231 229
f 395 396 229
f 397 233 231
f 396 397 231
f 398 235 233
f 397 398 233
f 399 237 235
f 398 399 235
f 400 239 237
f 399 400 237
f 386 209 239
f 400 386 239
f 401 274 273
f 402 401 273
f 403 277 274
f 401 403 274
f 404 279 277
f 403 404 277
f 405 281 279
f 404 405 279
f 406 283 281
f 405 406 281
f 407 285 283
f 406 407 283
f 408 287 285
f 407 408 285
f 409 289 287
f 408 409 287
f 410 291 289
f 409 410 289
f 411 293 291
f 410 411 291
f 412 295 293
f 411 412 293
f 413 297 295
f 412 413 295
f 414 299 297
f 413 414 297
f 415 301 299
f 414 415 299
f 416 303 301
f 415 416 301
f 402 273 303
f 416 402 303
f 4 12 11
f 4 11 1
f 1 11 14
f 1 14 5
f 5 14 16
f 5 16 7
f 7 16 12
f 7 12 4
f 417 51 50
f 417 50 54
f 417 54 56
f 417 56 58
f 418 58 60
f 418 60 62
f 418 62 64
f 418 64 66
f 419 66 68
f 419 68 70
f 419 70 72
f 419 72 74
f 420 74 76
f 420 76 78
f 420 78 80
f 420 80 51
f 421 115 114
f 421 114 118
f 421 118 120
f 421 120 122
f 422 122 124
f 422 124 126
f 422 126 128
f 422 128 130
f 423 130 132
f 423 132 134
f 423 134 136
f 423 136 138
f 424 138 140
f 424 140 142
f 424 142 144
f 424 144 115
f 425 179 178
f 425 178 182
f 425 182 184
f 425 184 186
f 426 186 188
f 426 188 190
f 426 190 192
f 426 192 194
f 427 194 196
f 427 196 198
f 427 198 200
f 427 200 202
f 428 202 204
f 428 204 206
f 428 206 208
f 428 208 179
f 429 243 242
f 429 242 246
f 429 246 248
f 429 248 250
f 430 250 252
f 430 252 254
f 430 254 256
f 430 256 258
f 431 258 260
f 431 260 262
f 431 262 264
f 431 264 266
f 432 266 268
f 432 268 270
f 432 270 272
f 432 272 243
f 433 307 306
f 433 306 310
f 433 310 312
f 433 312 314
f 434 314 316
f 434 316 318
f 434 318 320
f 434 320 322
f 435 322 324
f 435 324 326
f 435 326 328
f 435 328 330
f 436 330 332
f 436 332 334
f 436 334 336
f 436 336 307
f 9 417 434
f 9 434 10
f 10 434 435
f 10 435 13
f 13 435 420
f 13 420 15
f 15 420 417
f 15 417 9
f 418 419 424
f 418 424 421
f 422 423 428
f 422 428 425
f 426 427 432
f 426 432 429
f 430 431 436
f 430 436 433
f 337 338 437
f 339 337 437
f 340 339 437
f 341 340 437
f 342 341 438
f 343 342 438
f 344 343 438
f 345 344 438
f 346 345 439
f 347 346 439
f 348 347 439
f 349 348 439
f 350 349 440
f 351 350 440
f 352 351 440
f 338 352 440
f 353 354 441
f 355 353 441
f 356 355 441
f 357 356 441
f 358 357 442
f 359 358 442
f 360 359 442
f 361 360 442
f 362 361 443
f 363 362 443
f 364 363 443
f 365 364 443
f 366 365 444
f 367 366 444
f 368 367 444
f 354 368 444
f 369 370 445
f 371 369 445
f 372 371 445
f 373 372 445
f 374 373 446
f 375 374 446
f 376 375 446
f 377 376 446
f 378 377 447
f 379 378 447
f 380 379 447
f 381 380 447
f 382 381 448
f 383 382 448
f 384 383 448
f 370 384 448
f 385 386 449
f 387 385 449
f 388 387 449
f 389 388 449
f 390 389 450
f 391 390 450
f 392 391 450
f 393 392 450
f 394 393 451
f 395 394 451
f 396 395 451
f 397 396 451
f 398 397 452
f 399 398 452
f 400 399 452
f 386 400 452
f 401 402 453
f 403 401 453
f 404 403 453
f 405 404 453
f 406 405 454
f 407 406 454
f 408 407 454
f 409 408 454
f 410 409 455
f 411 410 455
f 412 411 455
f 413 412 455
f 414 413 456
f 415 414 456
f 416 415 456
f 402 416 456
f 8 440 455
f 8 455 6
f 6 455 454
f 6 454 2
f 2 454 437
f 2 437 3
f 3 437 440
f 3 440 8
f 439 438 441
f 439 441 444
f 443 442 445
f 443 445 448
f 447 446 449
f 447 449 452
f 451 450 453
f 451 453 456
f 457 458 459
f 460 457 459
f 461 462 458
f 457 461 458
f 463 464 462
f 461 463 462
f 465 466 464
f 463 465 464
f 467 468 466
f 465 467 466
f 469 470 468
f 467 469 468
f 471 472 470
f 469 471 470
f 473 474 472
f 471 473 472
f 475 476 474
f 473 475 474
f 477 478 476
f 475 477 476
f 479 480 478
f 477 479 478
f 481 482 480
f 479 481 480
f 483 484 482
f 481 483 482
f 485 486 484
f 483 485 484
f 487 488 486
f 485 487 486
f 460 459 488
f 487 460 488
f 489 459 458
f 489 458 462
f 489 462 464
f 489 464 466
f 489 466 468
f 489 468 470
f 489 470 472
f 489 472 474
f 489 474 476
f 489 476 478
f 489 478 480
f 489 480 482
f 489 482 484
f 489 484 486
f 489 486 488
f 489 488 459
f 490 491 492
f 493 490 492
f 494 495 491
f 490 494 491
f 496 497 495
f 494 496 495
f 498 499 497
f 496 498 497
f 500 501 499
f 498 500 499
f 502 503 501
f 500 502 501
f 504 505 503
f 502 504 503
f 506 507 505
f 504 506 505
f 508 509 507
f 506 508 507
f 510 511 509
f 508 510 509
f 512 513 511
f 510 512 511
f 514 515 513
f 512 514 513
f 516 517 515
f 514 516 515
f 518 519 517
f 516 518 517
f 520 521 519
f 518 520 519
f 493 492 521
f 520 493 521
f 522 492 491
f 522 491 495
f 522 495 497
f 522 497 499
f 522 499 501
f 522 501 503
f 522 503 505
f 522 505 507
f 522 507 509
f 522 509 511
f 522 511 513
f 522 513 515
f 522 515 517
f 522 517 519
f 522 519 521
f 522 521 492
f 523 524 525
f 526 523 525
f 527 528 524
f 523 527 524
f 529 530 528
f 527 529 528
f 531 532 530
f 529 531 530
f 533 534 532
f 531 533 532
f 535 536 534
f 533 535 534
f 537 538 536
f 535 537 536
f 539 540 538
f 537 539 538
f 541 542 540
f 539 541 540
f 543 544 542
f 541 543 542
f 545 546 544
f 543 545 544
f 547 548 546
f 545 547 546
f 549 550 548
f 547 549 548
f 551 552 550
f 549 551 550
f 553 554 552
f 551 553 552
f 526 525 554
f 553 526 554
f 555 525 524
f 555 524 528
f 555 528 530
f 555 530 532
f 555 532 534
f 555 534 536
f 555 536 538
f 555 538 540
f 555 540 542
f 555 542 544
f 555 544 546
f 555 546 548
f 555 548 550
f 555 550 552
f 555 552 554
f 555 554 525
f 556 557 558
f 559 556 558
f 560 561 557
f 556 560 557
f 562 563 561
f 560 562 561
f 564 565 563
f 562 564 563
f 566 567 565
f 564 566 565
f 568 569 567
f 566 568 567
f 570 571 569
f 568 570 569
f 572 573 571
f 570 572 571
f 574 575 573
f 572 574 573
f 576 577 575
f 574 576 575
f 578 579 577
f 576 578 577
f 580 581 579
f 578 580 579
f 582 583 581
f 580 582 581
f 584 585 583
f 582 584 583
f 586 587 585
f 584 586 585
f 559 558 587
f 586 559 587
f 588 558 557
f 588 557 561
f 588 561 563
f 588 563 565
f 588 565 567
f 588 567 569
f 588 569 571
f 588 571 573
f 588 573 575
f 588 575 577
f 588 577 579
f 588 579 581
f 588 581 583
f 588 583 585
f 588 585 587
f 588 587 558
f 589 590 591
f 592 589 591
f 593 594 590
f 589 593 590
f 595 596 594
f 593 595 594
f 597 598 596
f 595 597 596
f 599 600 598
f 597 599 598
f 601 602 600
f 599 601 600
f 603 604 602
f 601 603 602
f 605 606 604
f 603 605 604
f 607 608 606
f 605 607 606
f 609 610 608
f 607 609 608
f 611 612 610
f 609 611 610
f 613 614 612
f 611 613 612
f 615 616 614
f 613 615 614
f 617 618 616
f 615 617 616
f 619 620 618
f 617 619 618
f 592 591 620
f 619 592 620
f 621 591 590
f 621 590 594
f 621 594 596
f 621 596 598
f 621 598 600
f 621 600 602
f 621 602 604
f 621 604 606
f 621 606 608
f 621 608 610
f 621 610 612
f 621 612 614
f 621 614 616
f 621 616 618
f 621 618 620
f 621 620 591
f 622 623 624
f 625 622 624
f 626 627 623
f 622 626 623
f 628 629 627
f 626 628 627
f 630 631 629
f 628 630 629
f 632 633 631
f 630 632 631
f 634 635 633
f 632 634 633
f 636 637 635
f 634 636 635
f 638 639 637
f 636 638 637
f 640 641 639
f 638 640 639
f 642 643 641
f 640 642 641
f 644 645 643
f 642 644 643
f 646 647 645
f 644 646 645
f 648 649 647
f 646 648 647
f 650 651 649
f 648 650 649
f 652 653 651
f 650 652 651
f 625 624 653
f 652 625 653
f 654 624 623
f 654 623 627
f 654 627 629
f 654 629 631
f 654 631 633
f 654 633 635
f 654 635 637
f 654 637 639
f 654 639 641
f 654 641 643
f 654 643 645
f 654 645 647
f 654 647 649
f 654 649 651
f 654 651 653
f 654 653 624
f 655 656 657
f 658 655 657
f 659 660 656
f 655 659 656
f 661 662 660
f 659 661 660
f 663 664 662
f 661 663 662
f 665 666 664
f 663 665 664
f 667 668 666
f 665 667 666
f 669 670 668
f 667 669 668
f 671 672 670
f 669 671 670
f 673 674 672
f 671 673 672
f 675 676 674
f 673 675 674
f 677 678 676
f 675 677 676
f 679 680 678
f 677 679 678
f 681 682 680
f 679 681 680
f 683 684 682
f 681 683 682
f 685 686 684
f 683 685 684
f 658 657 686
f 685 658 686
f 687 657 656
f 687 656 660
f 687 660 662
f 687 662 664
f 687 664 666
f 687 666 668
f 687 668 670
f 687 670 672
f 687 672 674
f 687 674 676
f 687 676 678
f 687 678 680
f 687 680 682
f 687 682 684
f 687 684 686
f 687 686 657
f 688 689 690
f 691 688 690
f 692 693 689
f 688 692 689
f 694 695 693
f 692 694 693
f 696 697 695
f 694 696 695
f 698 699 697
f 696 698 697
f 700 701 699
f 698 700 699
f 702 703 701
f 700 702 701
f 704 705 703
f 702 704 703
f 706 707 705
f 704 706 705
f 708 709 707
f 706 708 707
f 710 711 709
f 708 710 709
f 712 713 711
f 710 712 711
f 714 715 713
f 712 714 713
f 716 717 715
f 714 716 715
f 718 719 717
f 716 718 717
f 691 690 719
f 718 691 719
f 720 690 689
f 720 689 693
f 720 693 695
f 720 695 697
f 720 697 699
f 720 699 701
f 720 701 703
f 720 703 705
f 720 705 707
f 720 707 709
f 720 709 711
f 720 711 713
f 720 713 715
f 720 715 717
f 720 717 719
f 720 719 690
f 721 722 723
f 724 721 723
f 725 726 722
f 721 725 722
f 727 728 726
f 725 727 726
f 729 730 728
f 727 729 728
f 731 732 730
f 729 731 730
f 733 734 732
f 731 733 732
f 735 736 734
f 733 735 734
f 737 738 736
f 735 737 736
f 739 740 738
f 737 739 738
f 741 742 740
f 739 741 740
f 743 744 742
f 741 743 742
f 745 746 744
f 743 745 744
f 747 748 746
f 745 747 746
f 749 750 748
f 747 749 748
f 751 752 750
f 749 751 750
f 724 723 752
f 751 724 752
f 753 723 722
f 753 722 726
f 753 726 728
f 753 728 730
f 753 730 732
f 753 732 734
f 753 734 736
f 753 736 738
f 753 738 740
f 753 740 742
f 753 742 744
f 753 744 746
f 753 746 748
f 753 748 750
f 753 750 752
f 753 752 723
f 754 755 756
f 757 754 756
f 758 759 755
f 754 758 755
f 760 761 759
f 758 760 759
f 762 763 761
f 760 762 761
f 764 765 763
f 762 764 763
f 766 767 765
f 764 766 765
f 768 769 767
f 766 768 767
f 770 771 769
f 768 770 769
f 772 773 771
f 770 772 771
f 774 775 773
f 772 774 773
f 776 777 775
f 774 776 775
f 778 779 777
f 776 778 777
f 780 781 779
f 778 780 779
f 782 783 781
f 780 782 781
f 784 785 783
f 782 784 783
f 757 756 785
f 784 757 785
f 786 756 755
f 786 755 759
f 786 759 761
f 786 761 763
f 786 763 765
f 786 765 767
f 786 767 769
f 786 769 771
f 786 771 773
f 786 773 775
f 786 775 777
f 786 777 779
f 786 779 781
f 786 781 783
f 786 783 785
f 786 785 756
f 787 788 789
f 790 787 789
f 791 792 788
f 787 791 788
f 793 794 792
f 791 793 792
f 795 796 794
f 793 795 794
f 797 798 796
f 795 797 796
f 799 800 798
f 797 799 798
f 801 802 800
f 799 801 800
f 803 804 802
f 801 803 802
f 805 806 804
f 803 805 804
f 807 808 806
f 805 807 806
f 809 810 808
f 807 809 808
f 811 812 810
f 809 811 810
f 813 814 812
f 811 813 812
f 815 816 814
f 813 815 814
f 817 818 816
f 815 817 816
f 790 789 818
f 817 790 818
f 819 789 788
f 819 788 792
f 819 792 794
f 819 794 796
f 819 796 798
f 819 798 800
f 819 800 802
f 819 802 804
f 819 804 806
f 819 806 808
f 819 808 810
f 819 810 812
f 819 812 814
f 819 814 816
f 819 816 818
f 819 818 789
f 820 821 822
f 823 820 822
f 824 825 821
f 820 824 821
f 826 827 825
f 824 826 825
f 828 829 827
f 826 828 827
f 830 831 829
f 828 830 829
f 832 833 831
f 830 832 831
f 834 835 833
f 832 834 833
f 836 837 835
f 834 836 835
f 838 839 837
f 836 838 837
f 840 841 839
f 838 840 839
f 842 843 841
f 840 842 841
f 844 845 843
f 842 844 843
f 846 847 845
f 844 846 845
f 848 849 847
f 846 848 847
f 850 851 849
f 848 850 849
f 823 822 851
f 850 823 851
f 852 822 821
f 852 821 825
f 852 825 827
f 852 827 829
f 852 829 831
f 852 831 833
f 852 833 835
f 852 835 837
f 852 837 839
f 852 839 841
f 852 841 843
f 852 843 845
f 852 845 847
f 852 847 849
f 852 849 851
f 852 851 822
