# Botball Lab: metres, +Y up, centred XZ, base Y=0
s off
v 0.0032000 0.0036000 -0.0024000
v 0.0032000 0.0026815 -0.0022174
v 0.0032000 0.0023754 -0.0029565
v 0.0032000 0.0036000 -0.0032000
v 0.0032000 0.0019030 -0.0016970
v 0.0032000 0.0013373 -0.0022627
v 0.0032000 0.0013826 -0.0009185
v 0.0032000 0.0006435 -0.0012246
v 0.0032000 0.0012000 -0.0000000
v 0.0032000 0.0004000 -0.0000000
v 0.0032000 0.0013826 0.0009185
v 0.0032000 0.0006435 0.0012246
v 0.0032000 0.0019030 0.0016970
v 0.0032000 0.0013373 0.0022627
v 0.0032000 0.0026815 0.0022174
v 0.0032000 0.0023754 0.0029565
v 0.0032000 0.0036000 0.0024000
v 0.0032000 0.0036000 0.0032000
v 0.0032000 0.0045185 0.0022174
v 0.0032000 0.0048246 0.0029565
v 0.0032000 0.0052970 0.0016970
v 0.0032000 0.0058627 0.0022627
v 0.0032000 0.0058174 0.0009185
v 0.0032000 0.0065565 0.0012246
v 0.0032000 0.0060000 -0.0000000
v 0.0032000 0.0068000 -0.0000000
v 0.0032000 0.0058174 -0.0009185
v 0.0032000 0.0065565 -0.0012246
v 0.0032000 0.0052970 -0.0016970
v 0.0032000 0.0058627 -0.0022627
v 0.0032000 0.0045185 -0.0022174
v 0.0032000 0.0048246 -0.0029565
v 0.0040000 0.0065565 -0.0012246
v 0.0040000 0.0068000 -0.0000000
v 0.0040000 0.0058627 -0.0022627
v 0.0040000 0.0048246 -0.0029565
v 0.0040000 0.0036000 -0.0032000
v 0.0040000 0.0023754 -0.0029565
v 0.0040000 0.0013373 -0.0022627
v 0.0040000 0.0006435 -0.0012246
v 0.0040000 0.0004000 -0.0000000
v 0.0040000 0.0006435 0.0012246
v 0.0040000 0.0013373 0.0022627
v 0.0040000 0.0023754 0.0029565
v 0.0040000 0.0036000 0.0032000
v 0.0040000 0.0048246 0.0029565
v 0.0040000 0.0058627 0.0022627
v 0.0040000 0.0065565 0.0012246
v 0.0040000 0.0072000 -0.0000000
v 0.0040000 0.0069260 0.0013777
v 0.0040000 0.0061456 0.0025456
v 0.0040000 0.0049777 0.0033260
v 0.0040000 0.0036000 0.0036000
v 0.0040000 0.0022223 0.0033260
v 0.0040000 0.0010544 0.0025456
v 0.0040000 0.0002740 0.0013777
v 0.0040000 0.0000000 -0.0000000
v 0.0040000 0.0002740 -0.0013777
v 0.0040000 0.0010544 -0.0025456
v 0.0040000 0.0022223 -0.0033260
v 0.0040000 0.0036000 -0.0036000
v 0.0040000 0.0049777 -0.0033260
v 0.0040000 0.0061456 -0.0025456
v 0.0040000 0.0069260 -0.0013777
v -0.0032000 0.0058174 -0.0009185
v -0.0032000 0.0060000 -0.0000000
v -0.0032000 0.0052970 -0.0016970
v -0.0032000 0.0045185 -0.0022174
v -0.0032000 0.0036000 -0.0024000
v -0.0032000 0.0026815 -0.0022174
v -0.0032000 0.0019030 -0.0016970
v -0.0032000 0.0013826 -0.0009185
v -0.0032000 0.0012000 -0.0000000
v -0.0032000 0.0013826 0.0009185
v -0.0032000 0.0019030 0.0016970
v -0.0032000 0.0026815 0.0022174
v -0.0032000 0.0036000 0.0024000
v -0.0032000 0.0045185 0.0022174
v -0.0032000 0.0052970 0.0016970
v -0.0032000 0.0058174 0.0009185
v -0.0040000 0.0072000 -0.0000000
v -0.0040000 0.0069260 -0.0013777
v -0.0040000 0.0065565 -0.0012246
v -0.0040000 0.0068000 -0.0000000
v -0.0040000 0.0061456 -0.0025456
v -0.0040000 0.0058627 -0.0022627
v -0.0040000 0.0049777 -0.0033260
v -0.0040000 0.0048246 -0.0029565
v -0.0040000 0.0036000 -0.0036000
v -0.0040000 0.0036000 -0.0032000
v -0.0040000 0.0022223 -0.0033260
v -0.0040000 0.0023754 -0.0029565
v -0.0040000 0.0010544 -0.0025456
v -0.0040000 0.0013373 -0.0022627
v -0.0040000 0.0002740 -0.0013777
v -0.0040000 0.0006435 -0.0012246
v -0.0040000 0.0000000 -0.0000000
v -0.0040000 0.0004000 -0.0000000
v -0.0040000 0.0002740 0.0013777
v -0.0040000 0.0006435 0.0012246
v -0.0040000 0.0010544 0.0025456
v -0.0040000 0.0013373 0.0022627
v -0.0040000 0.0022223 0.0033260
v -0.0040000 0.0023754 0.0029565
v -0.0040000 0.0036000 0.0036000
v -0.0040000 0.0036000 0.0032000
v -0.0040000 0.0049777 0.0033260
v -0.0040000 0.0048246 0.0029565
v -0.0040000 0.0061456 0.0025456
v -0.0040000 0.0058627 0.0022627
v -0.0040000 0.0069260 0.0013777
v -0.0040000 0.0065565 0.0012246
v -0.0032000 0.0023754 -0.0029565
v -0.0032000 0.0036000 -0.0032000
v -0.0032000 0.0013373 -0.0022627
v -0.0032000 0.0006435 -0.0012246
v -0.0032000 0.0004000 -0.0000000
v -0.0032000 0.0006435 0.0012246
v -0.0032000 0.0013373 0.0022627
v -0.0032000 0.0023754 0.0029565
v -0.0032000 0.0036000 0.0032000
v -0.0032000 0.0048246 0.0029565
v -0.0032000 0.0058627 0.0022627
v -0.0032000 0.0065565 0.0012246
v -0.0032000 0.0068000 -0.0000000
v -0.0032000 0.0065565 -0.0012246
v -0.0032000 0.0058627 -0.0022627
v -0.0032000 0.0048246 -0.0029565
v 0.0024000 0.0036000 -0.0040000
v 0.0024000 0.0036000 -0.0116000
v 0.0022409 0.0028000 -0.0116000
v 0.0022409 0.0028000 -0.0040000
v 0.0016000 0.0028000 -0.0040000
v 0.0016000 0.0028000 -0.0116000
v 0.0010000 0.0026000 -0.0116000
v 0.0010000 0.0026000 -0.0040000
v 0.0008000 0.0020000 -0.0116000
v 0.0008000 0.0020000 -0.0040000
v 0.0008000 0.0013591 -0.0116000
v 0.0008000 0.0013591 -0.0040000
v 0.0000000 0.0012000 -0.0116000
v 0.0000000 0.0012000 -0.0040000
v -0.0009185 0.0013826 -0.0116000
v -0.0009185 0.0013826 -0.0040000
v -0.0014046 0.0017074 -0.0116000
v -0.0014046 0.0017074 -0.0040000
v -0.0009303 0.0023908 -0.0116000
v -0.0009303 0.0023908 -0.0040000
v -0.0010000 0.0026000 -0.0116000
v -0.0010000 0.0026000 -0.0040000
v -0.0012092 0.0026697 -0.0116000
v -0.0012092 0.0026697 -0.0040000
v -0.0018926 0.0021954 -0.0040000
v -0.0018926 0.0021954 -0.0116000
v -0.0022174 0.0026815 -0.0116000
v -0.0022174 0.0026815 -0.0040000
v -0.0024000 0.0036000 -0.0116000
v -0.0024000 0.0036000 -0.0040000
v -0.0022409 0.0044000 -0.0116000
v -0.0022409 0.0044000 -0.0040000
v -0.0016000 0.0044000 -0.0040000
v -0.0016000 0.0044000 -0.0116000
v -0.0010000 0.0046000 -0.0116000
v -0.0010000 0.0046000 -0.0040000
v -0.0008000 0.0052000 -0.0116000
v -0.0008000 0.0052000 -0.0040000
v -0.0008000 0.0058409 -0.0116000
v -0.0008000 0.0058409 -0.0040000
v 0.0000000 0.0060000 -0.0116000
v 0.0000000 0.0060000 -0.0040000
v 0.0009185 0.0058174 -0.0116000
v 0.0009185 0.0058174 -0.0040000
v 0.0014046 0.0054926 -0.0116000
v 0.0014046 0.0054926 -0.0040000
v 0.0009303 0.0048092 -0.0116000
v 0.0009303 0.0048092 -0.0040000
v 0.0010000 0.0046000 -0.0116000
v 0.0010000 0.0046000 -0.0040000
v 0.0012092 0.0045303 -0.0116000
v 0.0012092 0.0045303 -0.0040000
v 0.0018926 0.0050046 -0.0040000
v 0.0018926 0.0050046 -0.0116000
v 0.0022174 0.0045185 -0.0116000
v 0.0022174 0.0045185 -0.0040000
v 0.0022174 0.0026816 -0.0116000
v 0.0016971 0.0019029 -0.0116000
v 0.0009184 0.0013826 -0.0116000
v -0.0016972 0.0019028 -0.0116000
v -0.0016970 0.0019030 -0.0116000
v -0.0022174 0.0045184 -0.0116000
v -0.0016971 0.0052971 -0.0116000
v -0.0009184 0.0058174 -0.0116000
v 0.0016970 0.0052970 -0.0116000
v 0.0024000 0.0036000 -0.0120000
v 0.0022174 0.0026815 -0.0120000
v 0.0022174 0.0026815 -0.0116000
v 0.0016970 0.0019030 -0.0120000
v 0.0016970 0.0019030 -0.0116000
v 0.0009185 0.0013826 -0.0120000
v 0.0009185 0.0013826 -0.0116000
v 0.0000000 0.0012000 -0.0120000
v -0.0009185 0.0013826 -0.0120000
v -0.0016970 0.0019030 -0.0120000
v -0.0022174 0.0026815 -0.0120000
v -0.0024000 0.0036000 -0.0120000
v -0.0022174 0.0045185 -0.0120000
v -0.0022174 0.0045185 -0.0116000
v -0.0016970 0.0052970 -0.0120000
v -0.0016970 0.0052970 -0.0116000
v -0.0009185 0.0058174 -0.0120000
v -0.0009185 0.0058174 -0.0116000
v 0.0000000 0.0060000 -0.0120000
v 0.0009185 0.0058174 -0.0120000
v 0.0016970 0.0052970 -0.0120000
v 0.0022174 0.0045185 -0.0120000
v 0.0016970 0.0060000 -0.0120000
v -0.0016970 0.0060000 -0.0120000
v 0.0024000 0.0019030 -0.0120000
v 0.0024000 0.0052970 -0.0120000
v -0.0016970 0.0012000 -0.0120000
v 0.0016970 0.0012000 -0.0120000
v -0.0024000 0.0052970 -0.0120000
v -0.0024000 0.0019030 -0.0120000
v 0.0000000 0.0036000 -0.0040000
v 0.0016970 0.0052970 -0.0040000
v -0.0009185 0.0058174 -0.0040000
v -0.0016970 0.0052970 -0.0040000
v -0.0022174 0.0045185 -0.0040000
v -0.0016970 0.0019030 -0.0040000
v 0.0009185 0.0013826 -0.0040000
v 0.0016970 0.0019030 -0.0040000
v 0.0022174 0.0026815 -0.0040000
v 0.0034000 0.0049777 -0.0119998
v 0.0034000 0.0049777 -0.0033258
v 0.0034000 0.0022223 -0.0033258
v 0.0034000 0.0022223 -0.0119998
v 0.0004619 0.0001104 -0.0120000
v 0.0013776 0.0002002 -0.0120000
v 0.0013776 0.0002002 -0.0005544
v 0.0004619 0.0001104 -0.0005544
v -0.0004617 0.0001102 -0.0120000
v -0.0004617 0.0001102 -0.0005544
v -0.0013777 0.0002001 -0.0120000
v -0.0013777 0.0002001 -0.0005544
v 0.0024719 0.0018383 -0.0120000
v 0.0028977 0.0021227 -0.0120000
v 0.0033998 0.0022226 -0.0120000
v 0.0017618 0.0011280 -0.0120000
v 0.0020461 0.0015539 -0.0120000
v 0.0013774 0.0002002 -0.0120000
v 0.0014772 0.0007024 -0.0120000
v 0.0024719 0.0018383 -0.0033260
v 0.0033998 0.0022226 -0.0033260
v 0.0017618 0.0011280 -0.0033260
v 0.0013774 0.0002002 -0.0033260
v 0.0024719 0.0018383 -0.0030368
v 0.0017618 0.0011280 -0.0022130
v 0.0013774 0.0002002 -0.0009803
v -0.0033998 0.0022226 -0.0120000
v -0.0028977 0.0021227 -0.0120000
v -0.0024719 0.0018383 -0.0120000
v -0.0020461 0.0015539 -0.0120000
v -0.0017618 0.0011280 -0.0120000
v -0.0014772 0.0007024 -0.0120000
v -0.0013774 0.0002002 -0.0120000
v -0.0024719 0.0018383 -0.0033260
v -0.0033998 0.0022226 -0.0033260
v -0.0017618 0.0011280 -0.0033260
v -0.0013774 0.0002002 -0.0033260
v -0.0024719 0.0018383 -0.0030368
v -0.0017618 0.0011280 -0.0022130
v -0.0013774 0.0002002 -0.0009803
v -0.0034000 0.0022223 -0.0120002
v -0.0034000 0.0022223 -0.0033262
v -0.0034000 0.0049777 -0.0033262
v -0.0034000 0.0049777 -0.0120002
v -0.0004619 0.0070896 -0.0120000
v -0.0013776 0.0069998 -0.0120000
v -0.0013776 0.0069998 -0.0005544
v -0.0004619 0.0070896 -0.0005544
v 0.0004617 0.0070898 -0.0120000
v 0.0004617 0.0070898 -0.0005544
v 0.0013777 0.0069999 -0.0120000
v 0.0013777 0.0069999 -0.0005544
v -0.0024719 0.0053617 -0.0120000
v -0.0028977 0.0050773 -0.0120000
v -0.0033998 0.0049774 -0.0120000
v -0.0017618 0.0060720 -0.0120000
v -0.0020461 0.0056461 -0.0120000
v -0.0013774 0.0069998 -0.0120000
v -0.0014772 0.0064976 -0.0120000
v -0.0024719 0.0053617 -0.0033260
v -0.0033998 0.0049774 -0.0033260
v -0.0017618 0.0060720 -0.0033260
v -0.0013774 0.0069998 -0.0033260
v -0.0024719 0.0053617 -0.0030368
v -0.0017618 0.0060720 -0.0022130
v -0.0013774 0.0069998 -0.0009803
v 0.0033998 0.0049774 -0.0120000
v 0.0028977 0.0050773 -0.0120000
v 0.0024719 0.0053617 -0.0120000
v 0.0020461 0.0056461 -0.0120000
v 0.0017618 0.0060720 -0.0120000
v 0.0014772 0.0064976 -0.0120000
v 0.0013774 0.0069998 -0.0120000
v 0.0024719 0.0053617 -0.0033260
v 0.0033998 0.0049774 -0.0033260
v 0.0017618 0.0060720 -0.0033260
v 0.0013774 0.0069998 -0.0033260
v 0.0024719 0.0053617 -0.0030368
v 0.0017618 0.0060720 -0.0022130
v 0.0013774 0.0069998 -0.0009803
v 0.0020461 0.0056462 -0.0120000
v -0.0020461 0.0056462 -0.0120000
v -0.0020461 0.0015538 -0.0120000
v 0.0020461 0.0015538 -0.0120000
v 0.0022409 0.0028000 0.0116000
v 0.0024000 0.0036000 0.0116000
v 0.0024000 0.0036000 0.0040000
v 0.0022409 0.0028000 0.0040000
v 0.0016000 0.0028000 0.0040000
v 0.0016000 0.0028000 0.0116000
v 0.0010000 0.0026000 0.0040000
v 0.0010000 0.0026000 0.0116000
v 0.0008000 0.0020000 0.0040000
v 0.0008000 0.0020000 0.0116000
v 0.0008000 0.0013591 0.0040000
v 0.0008000 0.0013591 0.0116000
v 0.0000000 0.0012000 0.0040000
v 0.0000000 0.0012000 0.0116000
v -0.0009185 0.0013826 0.0116000
v -0.0009185 0.0013826 0.0040000
v -0.0014046 0.0017074 0.0116000
v -0.0014046 0.0017074 0.0040000
v -0.0009303 0.0023908 0.0040000
v -0.0009303 0.0023908 0.0116000
v -0.0010000 0.0026000 0.0040000
v -0.0010000 0.0026000 0.0116000
v -0.0012092 0.0026697 0.0116000
v -0.0012092 0.0026697 0.0040000
v -0.0018926 0.0021954 0.0040000
v -0.0018926 0.0021954 0.0116000
v -0.0022174 0.0026815 0.0116000
v -0.0022174 0.0026815 0.0040000
v -0.0024000 0.0036000 0.0116000
v -0.0024000 0.0036000 0.0040000
v -0.0022409 0.0044000 0.0116000
v -0.0022409 0.0044000 0.0040000
v -0.0016000 0.0044000 0.0040000
v -0.0016000 0.0044000 0.0116000
v -0.0010000 0.0046000 0.0040000
v -0.0010000 0.0046000 0.0116000
v -0.0008000 0.0052000 0.0040000
v -0.0008000 0.0052000 0.0116000
v -0.0008000 0.0058409 0.0040000
v -0.0008000 0.0058409 0.0116000
v 0.0000000 0.0060000 0.0040000
v 0.0000000 0.0060000 0.0116000
v 0.0009185 0.0058174 0.0116000
v 0.0009185 0.0058174 0.0040000
v 0.0014046 0.0054926 0.0116000
v 0.0014046 0.0054926 0.0040000
v 0.0009303 0.0048092 0.0040000
v 0.0009303 0.0048092 0.0116000
v 0.0010000 0.0046000 0.0040000
v 0.0010000 0.0046000 0.0116000
v 0.0012092 0.0045303 0.0116000
v 0.0012092 0.0045303 0.0040000
v 0.0018926 0.0050046 0.0040000
v 0.0018926 0.0050046 0.0116000
v 0.0022174 0.0045185 0.0116000
v 0.0022174 0.0045185 0.0040000
v 0.0016971 0.0019029 0.0116000
v 0.0022174 0.0026816 0.0116000
v 0.0009184 0.0013826 0.0116000
v -0.0016972 0.0019028 0.0116000
v -0.0016970 0.0019030 0.0116000
v -0.0016971 0.0052971 0.0116000
v -0.0022174 0.0045184 0.0116000
v -0.0009184 0.0058174 0.0116000
v 0.0016970 0.0052970 0.0116000
v 0.0022174 0.0026815 0.0116000
v 0.0022174 0.0026815 0.0120000
v 0.0024000 0.0036000 0.0120000
v 0.0016970 0.0019030 0.0116000
v 0.0016970 0.0019030 0.0120000
v 0.0009185 0.0013826 0.0116000
v 0.0009185 0.0013826 0.0120000
v 0.0000000 0.0012000 0.0120000
v -0.0009185 0.0013826 0.0120000
v -0.0016970 0.0019030 0.0120000
v -0.0022174 0.0026815 0.0120000
v -0.0024000 0.0036000 0.0120000
v -0.0022174 0.0045185 0.0116000
v -0.0022174 0.0045185 0.0120000
v -0.0016970 0.0052970 0.0116000
v -0.0016970 0.0052970 0.0120000
v -0.0009185 0.0058174 0.0116000
v -0.0009185 0.0058174 0.0120000
v 0.0000000 0.0060000 0.0120000
v 0.0009185 0.0058174 0.0120000
v 0.0016970 0.0052970 0.0120000
v 0.0022174 0.0045185 0.0120000
v 0.0016970 0.0060000 0.0120000
v -0.0016970 0.0060000 0.0120000
v 0.0024000 0.0019030 0.0120000
v 0.0024000 0.0052970 0.0120000
v -0.0016970 0.0012000 0.0120000
v 0.0016970 0.0012000 0.0120000
v -0.0024000 0.0052970 0.0120000
v -0.0024000 0.0019030 0.0120000
v 0.0000000 0.0036000 0.0040000
v 0.0016970 0.0052970 0.0040000
v -0.0009185 0.0058174 0.0040000
v -0.0016970 0.0052970 0.0040000
v -0.0022174 0.0045185 0.0040000
v -0.0016970 0.0019030 0.0040000
v 0.0009185 0.0013826 0.0040000
v 0.0016970 0.0019030 0.0040000
v 0.0022174 0.0026815 0.0040000
v 0.0034000 0.0022223 0.0033258
v 0.0034000 0.0049777 0.0033258
v 0.0034000 0.0049777 0.0119998
v 0.0034000 0.0022223 0.0119998
v 0.0013776 0.0002002 0.0005544
v 0.0013776 0.0002002 0.0120000
v 0.0004619 0.0001104 0.0120000
v 0.0004619 0.0001104 0.0005544
v -0.0004617 0.0001102 0.0120000
v -0.0004617 0.0001102 0.0005544
v -0.0013777 0.0002001 0.0120000
v -0.0013777 0.0002001 0.0005544
v 0.0033998 0.0022226 0.0120000
v 0.0028977 0.0021227 0.0120000
v 0.0024719 0.0018383 0.0120000
v 0.0020461 0.0015539 0.0120000
v 0.0017618 0.0011280 0.0120000
v 0.0014772 0.0007024 0.0120000
v 0.0013774 0.0002002 0.0120000
v 0.0024719 0.0018383 0.0033260
v 0.0033998 0.0022226 0.0033260
v 0.0017618 0.0011280 0.0033260
v 0.0013774 0.0002002 0.0033260
v 0.0024719 0.0018383 0.0030368
v 0.0017618 0.0011280 0.0022130
v 0.0013774 0.0002002 0.0009803
v -0.0024719 0.0018383 0.0120000
v -0.0028977 0.0021227 0.0120000
v -0.0033998 0.0022226 0.0120000
v -0.0017618 0.0011280 0.0120000
v -0.0020461 0.0015539 0.0120000
v -0.0013774 0.0002002 0.0120000
v -0.0014772 0.0007024 0.0120000
v -0.0024719 0.0018383 0.0033260
v -0.0033998 0.0022226 0.0033260
v -0.0017618 0.0011280 0.0033260
v -0.0013774 0.0002002 0.0033260
v -0.0024719 0.0018383 0.0030368
v -0.0017618 0.0011280 0.0022130
v -0.0013774 0.0002002 0.0009803
v -0.0034000 0.0049777 0.0033262
v -0.0034000 0.0022223 0.0033262
v -0.0034000 0.0022223 0.0120002
v -0.0034000 0.0049777 0.0120002
v -0.0013776 0.0069998 0.0005544
v -0.0013776 0.0069998 0.0120000
v -0.0004619 0.0070896 0.0120000
v -0.0004619 0.0070896 0.0005544
v 0.0004617 0.0070898 0.0120000
v 0.0004617 0.0070898 0.0005544
v 0.0013777 0.0069999 0.0120000
v 0.0013777 0.0069999 0.0005544
v -0.0033998 0.0049774 0.0120000
v -0.0028977 0.0050773 0.0120000
v -0.0024719 0.0053617 0.0120000
v -0.0020461 0.0056461 0.0120000
v -0.0017618 0.0060720 0.0120000
v -0.0014772 0.0064976 0.0120000
v -0.0013774 0.0069998 0.0120000
v -0.0024719 0.0053617 0.0033260
v -0.0033998 0.0049774 0.0033260
v -0.0017618 0.0060720 0.0033260
v -0.0013774 0.0069998 0.0033260
v -0.0024719 0.0053617 0.0030368
v -0.0017618 0.0060720 0.0022130
v -0.0013774 0.0069998 0.0009803
v 0.0024719 0.0053617 0.0120000
v 0.0028977 0.0050773 0.0120000
v 0.0033998 0.0049774 0.0120000
v 0.0017618 0.0060720 0.0120000
v 0.0020461 0.0056461 0.0120000
v 0.0013774 0.0069998 0.0120000
v 0.0014772 0.0064976 0.0120000
v 0.0024719 0.0053617 0.0033260
v 0.0033998 0.0049774 0.0033260
v 0.0017618 0.0060720 0.0033260
v 0.0013774 0.0069998 0.0033260
v 0.0024719 0.0053617 0.0030368
v 0.0017618 0.0060720 0.0022130
v 0.0013774 0.0069998 0.0009803
v 0.0020461 0.0056462 0.0120000
v -0.0020461 0.0056462 0.0120000
v -0.0020461 0.0015538 0.0120000
v 0.0020461 0.0015538 0.0120000
v 0.0036000 0.0031500 -0.0103000
v 0.0036000 0.0026000 -0.0107000
v 0.0036000 0.0045500 -0.0107000
v 0.0036000 0.0045500 -0.0103000
v 0.0036000 0.0046500 -0.0078500
v 0.0036000 0.0042000 -0.0078000
v 0.0036000 0.0026000 -0.0103500
v 0.0036000 0.0046000 -0.0072500
v 0.0036000 0.0042000 -0.0074000
v 0.0036000 0.0043000 -0.0068000
v 0.0036000 0.0040000 -0.0071000
v 0.0036000 0.0038500 -0.0065500
v 0.0036000 0.0037000 -0.0069500
v 0.0036000 0.0033000 -0.0065500
v 0.0036000 0.0034000 -0.0069500
v 0.0036000 0.0028000 -0.0069000
v 0.0036000 0.0031000 -0.0071500
v 0.0036000 0.0026000 -0.0074500
v 0.0036000 0.0030000 -0.0075000
v 0.0036000 0.0042998 -0.0067998
v 0.0034000 0.0042998 -0.0067998
v 0.0034000 0.0038498 -0.0065498
v 0.0036000 0.0038498 -0.0065498
v 0.0036000 0.0026000 -0.0074498
v 0.0034000 0.0026000 -0.0074498
v 0.0034000 0.0030000 -0.0074998
v 0.0036000 0.0030000 -0.0074998
v 0.0036000 0.0037000 -0.0069498
v 0.0034000 0.0037000 -0.0069498
v 0.0034000 0.0040000 -0.0070998
v 0.0036000 0.0040000 -0.0070998
v 0.0034000 0.0045500 -0.0107000
v 0.0034000 0.0045500 -0.0103000
v 0.0034000 0.0031500 -0.0103000
v 0.0036000 0.0031500 -0.0102998
v 0.0034000 0.0031500 -0.0102998
v 0.0034000 0.0046500 -0.0078498
v 0.0036000 0.0046500 -0.0078498
v 0.0036000 0.0046498 -0.0078500
v 0.0034000 0.0046498 -0.0078500
v 0.0034000 0.0045998 -0.0072500
v 0.0036000 0.0045998 -0.0072500
v 0.0036000 0.0046000 -0.0072498
v 0.0034000 0.0046000 -0.0072498
v 0.0034000 0.0043000 -0.0067998
v 0.0036000 0.0043000 -0.0067998
v 0.0036000 0.0038502 -0.0065500
v 0.0034000 0.0038502 -0.0065500
v 0.0034000 0.0033002 -0.0065500
v 0.0036000 0.0033002 -0.0065500
v 0.0036000 0.0033000 -0.0065498
v 0.0034000 0.0033000 -0.0065498
v 0.0034000 0.0028000 -0.0068998
v 0.0036000 0.0028000 -0.0068998
v 0.0034000 0.0031000 -0.0071498
v 0.0036000 0.0031000 -0.0071498
v 0.0034000 0.0031000 -0.0071500
v 0.0034000 0.0034000 -0.0069500
v 0.0034000 0.0037000 -0.0069500
v 0.0034000 0.0040000 -0.0071000
v 0.0034000 0.0042000 -0.0074000
v 0.0034000 0.0042000 -0.0078000
v 0.0036000 0.0042000 -0.0077998
v 0.0034000 0.0042000 -0.0077998
v 0.0034000 0.0026000 -0.0103498
v 0.0036000 0.0026000 -0.0103498
v 0.0036000 0.0026000 -0.0106998
v 0.0034000 0.0026000 -0.0106998
v 0.0036000 0.0026002 -0.0107000
v 0.0034000 0.0026002 -0.0107000
v 0.0034000 0.0045502 -0.0107000
v 0.0036000 0.0045502 -0.0107000
v -0.0036000 0.0031500 0.0103000
v -0.0036000 0.0026000 0.0107000
v -0.0036000 0.0045500 0.0107000
v -0.0036000 0.0045500 0.0103000
v -0.0036000 0.0046500 0.0078500
v -0.0036000 0.0042000 0.0078000
v -0.0036000 0.0026000 0.0103500
v -0.0036000 0.0046000 0.0072500
v -0.0036000 0.0042000 0.0074000
v -0.0036000 0.0043000 0.0068000
v -0.0036000 0.0040000 0.0071000
v -0.0036000 0.0038500 0.0065500
v -0.0036000 0.0037000 0.0069500
v -0.0036000 0.0033000 0.0065500
v -0.0036000 0.0034000 0.0069500
v -0.0036000 0.0028000 0.0069000
v -0.0036000 0.0031000 0.0071500
v -0.0036000 0.0026000 0.0074500
v -0.0036000 0.0030000 0.0075000
v -0.0036000 0.0042998 0.0067998
v -0.0034000 0.0042998 0.0067998
v -0.0034000 0.0038498 0.0065498
v -0.0036000 0.0038498 0.0065498
v -0.0036000 0.0026000 0.0074498
v -0.0034000 0.0026000 0.0074498
v -0.0034000 0.0030000 0.0074998
v -0.0036000 0.0030000 0.0074998
v -0.0036000 0.0037000 0.0069498
v -0.0034000 0.0037000 0.0069498
v -0.0034000 0.0040000 0.0070998
v -0.0036000 0.0040000 0.0070998
v -0.0034000 0.0045500 0.0107000
v -0.0034000 0.0045500 0.0103000
v -0.0034000 0.0031500 0.0103000
v -0.0036000 0.0031500 0.0102998
v -0.0034000 0.0031500 0.0102998
v -0.0034000 0.0046500 0.0078498
v -0.0036000 0.0046500 0.0078498
v -0.0036000 0.0046498 0.0078500
v -0.0034000 0.0046498 0.0078500
v -0.0034000 0.0045998 0.0072500
v -0.0036000 0.0045998 0.0072500
v -0.0036000 0.0046000 0.0072498
v -0.0034000 0.0046000 0.0072498
v -0.0034000 0.0043000 0.0067998
v -0.0036000 0.0043000 0.0067998
v -0.0036000 0.0038502 0.0065500
v -0.0034000 0.0038502 0.0065500
v -0.0034000 0.0033002 0.0065500
v -0.0036000 0.0033002 0.0065500
v -0.0036000 0.0033000 0.0065498
v -0.0034000 0.0033000 0.0065498
v -0.0034000 0.0028000 0.0068998
v -0.0036000 0.0028000 0.0068998
v -0.0034000 0.0031000 0.0071498
v -0.0036000 0.0031000 0.0071498
v -0.0034000 0.0031000 0.0071500
v -0.0034000 0.0034000 0.0069500
v -0.0034000 0.0037000 0.0069500
v -0.0034000 0.0040000 0.0071000
v -0.0034000 0.0042000 0.0074000
v -0.0034000 0.0042000 0.0078000
v -0.0036000 0.0042000 0.0077998
v -0.0034000 0.0042000 0.0077998
v -0.0034000 0.0026000 0.0103498
v -0.0036000 0.0026000 0.0103498
v -0.0036000 0.0026000 0.0106998
v -0.0034000 0.0026000 0.0106998
v -0.0036000 0.0026002 0.0107000
v -0.0034000 0.0026002 0.0107000
v -0.0034000 0.0045502 0.0107000
v -0.0036000 0.0045502 0.0107000
vn 1.0 0.0 0.0
vn 0.0 -0.9978107 0.066135
vn 0.0 -0.8965142 0.4430151
vn 0.0 -0.9471761 0.3207139
vn 0.0 -0.9978107 -0.066135
vn 0.0 -0.6588045 0.7523142
vn 0.0 -0.7523142 0.6588045
vn 0.0 -0.3207139 0.9471761
vn 0.0 -0.4430151 0.8965142
vn 0.0 0.066135 0.9978107
vn 0.0 -0.066135 0.9978107
vn 0.0 0.4430151 0.8965142
vn 0.0 0.3207139 0.9471761
vn 0.0 0.7523142 0.6588045
vn 0.0 0.6588045 0.7523142
vn 0.0 0.9471761 0.3207139
vn 0.0 0.8965142 0.4430151
vn 0.0 0.9978107 -0.066135
vn 0.0 0.9978107 0.066135
vn 0.0 0.8965142 -0.4430151
vn 0.0 0.9471761 -0.3207139
vn 0.0 0.6588045 -0.7523142
vn 0.0 0.7523142 -0.6588045
vn 0.0 0.3207139 -0.9471761
vn 0.0 0.4430151 -0.8965142
vn 0.0 -0.066135 -0.9978107
vn 0.0 0.066135 -0.9978107
vn 0.0 -0.4430151 -0.8965142
vn 0.0 -0.3207139 -0.9471761
vn 0.0 -0.7523142 -0.6588045
vn 0.0 -0.6588045 -0.7523142
vn 0.0 -0.9471761 -0.3207139
vn 0.0 -0.8965142 -0.4430151
vn 0.0 -0.947177 0.3207111
vn 0.0 -0.8964963 0.4430513
vn 0.0 -0.9978115 0.0661224
vn 0.0 -0.9978115 -0.0661224
vn 0.0 -0.752294 0.6588276
vn 0.0 -0.6588276 0.752294
vn 0.0 -0.4430513 0.8964963
vn 0.0 -0.3207111 0.947177
vn 0.0 -0.0661224 0.9978115
vn 0.0 0.0661224 0.9978115
vn 0.0 0.3207111 0.947177
vn 0.0 0.4430513 0.8964963
vn 0.0 0.6588276 0.752294
vn 0.0 0.752294 0.6588276
vn 0.0 0.8964963 0.4430513
vn 0.0 0.947177 0.3207111
vn 0.0 0.9978115 0.0661224
vn 0.0 0.9978115 -0.0661224
vn 0.0 0.947177 -0.3207111
vn 0.0 0.8964963 -0.4430513
vn 0.0 0.752294 -0.6588276
vn 0.0 0.6588276 -0.752294
vn 0.0 0.4430513 -0.8964963
vn 0.0 0.3207111 -0.947177
vn 0.0 0.0661224 -0.9978115
vn 0.0 -0.0661224 -0.9978115
vn 0.0 -0.3207111 -0.947177
vn 0.0 -0.4430513 -0.8964963
vn 0.0 -0.6588276 -0.752294
vn 0.0 -0.752294 -0.6588276
vn 0.0 -0.8964963 -0.4430513
vn 0.0 -0.947177 -0.3207111
vn -1.0 0.0 0.0
vn 0.0 0.9471783 -0.3207075
vn 0.0 0.8965369 -0.4429691
vn 0.0 0.9978098 -0.0661489
vn 0.0 0.9978098 0.0661489
vn 0.0 0.7523344 -0.6587815
vn 0.0 0.6587815 -0.7523344
vn 0.0 0.4429691 -0.8965369
vn 0.0 0.3207075 -0.9471783
vn 0.0 0.0661489 -0.9978098
vn 0.0 -0.0661489 -0.9978098
vn 0.0 -0.3207075 -0.9471783
vn 0.0 -0.4429691 -0.8965369
vn 0.0 -0.6587815 -0.7523344
vn 0.0 -0.7523344 -0.6587815
vn 0.0 -0.8965369 -0.4429691
vn 0.0 -0.9471783 -0.3207075
vn 0.0 -0.9978098 -0.0661489
vn 0.0 -0.9978098 0.0661489
vn 0.0 -0.9471783 0.3207075
vn 0.0 -0.8965369 0.4429691
vn 0.0 -0.7523344 0.6587815
vn 0.0 -0.6587815 0.7523344
vn 0.0 -0.4429691 0.8965369
vn 0.0 -0.3207075 0.9471783
vn 0.0 -0.0661489 0.9978098
vn 0.0 0.0661489 0.9978098
vn 0.0 0.3207075 0.9471783
vn 0.0 0.4429691 0.8965369
vn 0.0 0.6587815 0.7523344
vn 0.0 0.7523344 0.6587815
vn 0.0 0.8965369 0.4429691
vn 0.0 0.9471783 0.3207075
vn -0.9985537 0.0537637 0.0
vn -0.9970075 -0.0773052 0.0
vn -0.9807923 0.1950551 0.0
vn -0.105686 0.9943996 0.0
vn 0.0 1.0 0.0
vn -0.2123305 0.9771979 0.0
vn -0.3162278 0.9486833 0.0
vn -0.9771979 0.2123305 0.0
vn -0.9943996 0.105686 0.0
vn -0.9486833 0.3162278 0.0
vn -0.1950551 0.9807923 0.0
vn 0.0074531 0.9999722 0.0
vn 0.0136734 0.9999065 0.0
vn 0.2867704 0.9579994 0.0
vn 0.402857 0.9152629 0.0
vn 0.5555683 0.8314709 0.0
vn 0.8215295 -0.570166 0.0
vn 0.9487286 0.3160917 0.0
vn 0.3160917 0.9487286 0.0
vn -0.570166 0.8215295 0.0
vn 0.8314709 0.5555683 0.0
vn 0.9140846 0.4055235 0.0
vn 0.9586097 0.2847233 0.0
vn 0.9970075 0.0773052 0.0
vn 0.9985537 -0.0537637 0.0
vn 0.9807923 -0.1950551 0.0
vn 0.105686 -0.9943996 0.0
vn 0.0 -1.0 0.0
vn 0.2123305 -0.9771979 0.0
vn 0.3162278 -0.9486833 0.0
vn 0.9771979 -0.2123305 0.0
vn 0.9943996 -0.105686 0.0
vn 0.9486833 -0.3162278 0.0
vn 0.1950551 -0.9807923 0.0
vn -0.0074531 -0.9999722 0.0
vn -0.0136734 -0.9999065 0.0
vn -0.2867704 -0.9579994 0.0
vn -0.402857 -0.9152629 0.0
vn -0.5555683 -0.8314709 0.0
vn -0.8215295 0.570166 0.0
vn -0.9487286 -0.3160917 0.0
vn -0.3160917 -0.9487286 0.0
vn 0.570166 -0.8215295 0.0
vn -0.8314709 -0.5555683 0.0
vn -0.9140846 -0.4055235 0.0
vn -0.9586097 -0.2847233 0.0
vn 0.0 0.0 -1.0
vn -0.9978115 0.0661224 0.0
vn -0.8964963 0.4430513 0.0
vn -0.947177 0.3207111 0.0
vn -0.6588276 0.752294 0.0
vn -0.752294 0.6588276 0.0
vn -0.3207111 0.947177 0.0
vn -0.4430513 0.8964963 0.0
vn 0.0661224 0.9978115 0.0
vn 0.4430513 0.8964963 0.0
vn 0.752294 0.6588276 0.0
vn 0.6588276 0.752294 0.0
vn 0.947177 0.3207111 0.0
vn 0.9978115 -0.0661224 0.0
vn 0.8964963 -0.4430513 0.0
vn 0.947177 -0.3207111 0.0
vn 0.6588276 -0.752294 0.0
vn 0.752294 -0.6588276 0.0
vn 0.3207111 -0.947177 0.0
vn 0.4430513 -0.8964963 0.0
vn -0.0661224 -0.9978115 0.0
vn -0.4430513 -0.8964963 0.0
vn -0.752294 -0.6588276 0.0
vn -0.6588276 -0.752294 0.0
vn -0.947177 -0.3207111 0.0
vn 0.0001103 0.0 -1.0
vn 0.0651246 -0.9978771 0.0
vn 0.0975989 -0.9952258 0.0
vn 0.0326295 -0.9994675 0.0
vn -0.032373 -0.9994759 0.0
vn -0.0650384 -0.9978828 0.0
vn -0.0976748 -0.9952184 0.0
vn 0.0001916 2.25e-05 -1.0
vn 0.5097192 -0.8603408 0.0
vn 0.6094284 -0.7928411 0.0
vn 0.382642 -0.9238967 0.0
vn 0.8079524 -0.5892477 0.0
vn 0.8663941 -0.4993609 0.0
vn 0.9238469 -0.3827622 0.0
vn 0.5556135 -0.8314407 0.0
vn 0.8185674 -0.5744105 0.0
vn -0.382642 -0.9238967 0.0
vn -0.6094284 -0.7928411 0.0
vn -0.5097192 -0.8603408 0.0
vn -0.8663941 -0.4993609 0.0
vn -0.8079524 -0.5892477 0.0
vn -0.9238469 -0.3827622 0.0
vn -0.5556135 -0.8314407 0.0
vn -0.8185674 -0.5744105 0.0
vn -0.0651246 0.9978771 0.0
vn -0.0975989 0.9952258 0.0
vn -0.0326295 0.9994675 0.0
vn 0.032373 0.9994759 0.0
vn 0.0650384 0.9978828 0.0
vn 0.0976748 0.9952184 0.0
vn -0.5097192 0.8603408 0.0
vn -0.6094284 0.7928411 0.0
vn -0.382642 0.9238967 0.0
vn -0.8079524 0.5892477 0.0
vn -0.8663941 0.4993609 0.0
vn -0.9238469 0.3827622 0.0
vn -0.5556135 0.8314407 0.0
vn -0.8185674 0.5744105 0.0
vn 0.0001777 -5.99e-05 -1.0
vn 0.382642 0.9238967 0.0
vn 0.6094284 0.7928411 0.0
vn 0.5097192 0.8603408 0.0
vn 0.8663941 0.4993609 0.0
vn 0.8079524 0.5892477 0.0
vn 0.9238469 0.3827622 0.0
vn 0.5556135 0.8314407 0.0
vn 0.8185674 0.5744105 0.0
vn 0.0002632 0.0 -1.0
vn 0.0003982 0.0 -0.9999999
vn 0.0 0.0 1.0
vn 0.0001103 -0.0 1.0
vn 0.0001916 2.25e-05 1.0
vn 0.0001777 -5.99e-05 1.0
vn 0.0002632 -0.0 1.0
vn 0.0003982 0.0 0.9999999
vn 0.0 0.4856429 0.8741573
vn 0.0 -0.1240347 -0.9922779
vn 0.0 -0.4472136 -0.8944272
vn 0.0 0.8528513 -0.5221539
vn 0.0 0.9965458 0.0830455
vn 0.0 0.8320503 0.5547002
vn 0.0 -0.5734623 0.8192319
vn 0.0 -0.7213873 0.6925318
vn 0.0 -0.8496402 0.5273629
vn 0.0 -0.9397934 0.3417431
vn 0.0 0.9615239 -0.2747211
vn 0.0 0.5547002 -0.8320503
vn 0.0 0.4061385 -0.9138115
vn 0.0 0.2169305 -0.9761871
vn 0.0 -0.8320503 -0.5547002
vn 0.0 -0.9284767 -0.3713907
vn 0.0 -0.9838699 -0.1788854
vn 0.0 -0.8470639 0.5314911
vn 0.0 -0.8755777 0.4830773
vn 0.0 0.4856429 -0.8741573
vn 0.0 -0.1240347 0.9922779
vn 0.0 -0.4472136 0.8944272
vn 0.0 0.8528513 0.5221539
vn 0.0 0.9965458 -0.0830455
vn 0.0 0.8320503 -0.5547002
vn 0.0 -0.5734623 -0.8192319
vn 0.0 -0.7213873 -0.6925318
vn 0.0 -0.8496402 -0.5273629
vn 0.0 -0.9397934 -0.3417431
vn 0.0 0.9615239 0.2747211
vn 0.0 0.5547002 0.8320503
vn 0.0 0.4061385 0.9138115
vn 0.0 0.2169305 0.9761871
vn 0.0 -0.8320503 0.5547002
vn 0.0 -0.9284767 0.3713907
vn 0.0 -0.9838699 0.1788854
vn 0.0 -0.8470639 -0.5314911
vn 0.0 -0.8755777 -0.4830773
f 1//1 2//1 3//1
f 4//1 1//1 3//1
f 2//1 5//1 6//1
f 3//1 2//1 6//1
f 5//1 7//1 8//1
f 6//1 5//1 8//1
f 7//1 9//1 10//1
f 8//1 7//1 10//1
f 9//1 11//1 12//1
f 10//1 9//1 12//1
f 11//1 13//1 14//1
f 12//1 11//1 14//1
f 13//1 15//1 16//1
f 14//1 13//1 16//1
f 15//1 17//1 18//1
f 16//1 15//1 18//1
f 17//1 19//1 20//1
f 18//1 17//1 20//1
f 19//1 21//1 22//1
f 20//1 19//1 22//1
f 21//1 23//1 24//1
f 22//1 21//1 24//1
f 23//1 25//1 26//1
f 24//1 23//1 26//1
f 25//1 27//1 28//1
f 26//1 25//1 28//1
f 27//1 29//1 30//1
f 28//1 27//1 30//1
f 29//1 31//1 32//1
f 30//1 29//1 32//1
f 31//1 1//1 4//1
f 32//1 31//1 4//1
f 26//2 28//3 33//4
f 26//2 33//4 34//5
f 28//3 30//6 35//7
f 28//3 35//7 33//4
f 30//6 32//8 36//9
f 30//6 36//9 35//7
f 32//8 4//10 37//11
f 32//8 37//11 36//9
f 4//10 3//12 38//13
f 4//10 38//13 37//11
f 3//12 6//14 39//15
f 3//12 39//15 38//13
f 6//14 8//16 40//17
f 6//14 40//17 39//15
f 8//16 10//18 41//19
f 8//16 41//19 40//17
f 10//18 12//20 42//21
f 10//18 42//21 41//19
f 12//20 14//22 43//23
f 12//20 43//23 42//21
f 14//22 16//24 44//25
f 14//22 44//25 43//23
f 16//24 18//26 45//27
f 16//24 45//27 44//25
f 18//26 20//28 46//29
f 18//26 46//29 45//27
f 20//28 22//30 47//31
f 20//28 47//31 46//29
f 22//30 24//32 48//33
f 22//30 48//33 47//31
f 24//32 26//2 34//5
f 24//32 34//5 48//33
f 49//1 50//1 48//1
f 49//1 48//1 34//1
f 50//1 51//1 47//1
f 50//1 47//1 48//1
f 51//1 52//1 46//1
f 51//1 46//1 47//1
f 52//1 53//1 45//1
f 52//1 45//1 46//1
f 53//1 54//1 44//1
f 53//1 44//1 45//1
f 54//1 55//1 43//1
f 54//1 43//1 44//1
f 55//1 56//1 42//1
f 55//1 42//1 43//1
f 56//1 57//1 41//1
f 56//1 41//1 42//1
f 57//1 58//1 40//1
f 57//1 40//1 41//1
f 58//1 59//1 39//1
f 58//1 39//1 40//1
f 59//1 60//1 38//1
f 59//1 38//1 39//1
f 60//1 61//1 37//1
f 60//1 37//1 38//1
f 61//1 62//1 36//1
f 61//1 36//1 37//1
f 62//1 63//1 35//1
f 62//1 35//1 36//1
f 63//1 64//1 33//1
f 63//1 33//1 35//1
f 64//1 49//1 34//1
f 64//1 34//1 33//1
f 65//34 27//35 25//36
f 66//37 65//34 25//36
f 67//38 29//39 27//35
f 65//34 67//38 27//35
f 68//40 31//41 29//39
f 67//38 68//40 29//39
f 69//42 1//43 31//41
f 68//40 69//42 31//41
f 70//44 2//45 1//43
f 69//42 70//44 1//43
f 71//46 5//47 2//45
f 70//44 71//46 2//45
f 72//48 7//49 5//47
f 71//46 72//48 5//47
f 73//50 9//51 7//49
f 72//48 73//50 7//49
f 74//52 11//53 9//51
f 73//50 74//52 9//51
f 75//54 13//55 11//53
f 74//52 75//54 11//53
f 76//56 15//57 13//55
f 75//54 76//56 13//55
f 77//58 17//59 15//57
f 76//56 77//58 15//57
f 78//60 19//61 17//59
f 77//58 78//60 17//59
f 79//62 21//63 19//61
f 78//60 79//62 19//61
f 80//64 23//65 21//63
f 79//62 80//64 21//63
f 66//37 25//36 23//65
f 80//64 66//37 23//65
f 81//66 82//66 83//66
f 81//66 83//66 84//66
f 82//66 85//66 86//66
f 82//66 86//66 83//66
f 85//66 87//66 88//66
f 85//66 88//66 86//66
f 87//66 89//66 90//66
f 87//66 90//66 88//66
f 89//66 91//66 92//66
f 89//66 92//66 90//66
f 91//66 93//66 94//66
f 91//66 94//66 92//66
f 93//66 95//66 96//66
f 93//66 96//66 94//66
f 95//66 97//66 98//66
f 95//66 98//66 96//66
f 97//66 99//66 100//66
f 97//66 100//66 98//66
f 99//66 101//66 102//66
f 99//66 102//66 100//66
f 101//66 103//66 104//66
f 101//66 104//66 102//66
f 103//66 105//66 106//66
f 103//66 106//66 104//66
f 105//66 107//66 108//66
f 105//66 108//66 106//66
f 107//66 109//66 110//66
f 107//66 110//66 108//66
f 109//66 111//66 112//66
f 109//66 112//66 110//66
f 111//66 81//66 84//66
f 111//66 84//66 112//66
f 113//66 70//66 69//66
f 113//66 69//66 114//66
f 115//66 71//66 70//66
f 115//66 70//66 113//66
f 116//66 72//66 71//66
f 116//66 71//66 115//66
f 117//66 73//66 72//66
f 117//66 72//66 116//66
f 118//66 74//66 73//66
f 118//66 73//66 117//66
f 119//66 75//66 74//66
f 119//66 74//66 118//66
f 120//66 76//66 75//66
f 120//66 75//66 119//66
f 121//66 77//66 76//66
f 121//66 76//66 120//66
f 122//66 78//66 77//66
f 122//66 77//66 121//66
f 123//66 79//66 78//66
f 123//66 78//66 122//66
f 124//66 80//66 79//66
f 124//66 79//66 123//66
f 125//66 66//66 80//66
f 125//66 80//66 124//66
f 126//66 65//66 66//66
f 126//66 66//66 125//66
f 127//66 67//66 65//66
f 127//66 65//66 126//66
f 128//66 68//66 67//66
f 128//66 67//66 127//66
f 114//66 69//66 68//66
f 114//66 68//66 128//66
f 83//4 126//3 125//2
f 84//5 83//4 125//2
f 86//7 127//6 126//3
f 83//4 86//7 126//3
f 88//9 128//8 127//6
f 86//7 88//9 127//6
f 90//11 114//10 128//8
f 88//9 90//11 128//8
f 92//13 113//12 114//10
f 90//11 92//13 114//10
f 94//15 115//14 113//12
f 92//13 94//15 113//12
f 96//17 116//16 115//14
f 94//15 96//17 115//14
f 98//19 117//18 116//16
f 96//17 98//19 116//16
f 100//21 118//20 117//18
f 98//19 100//21 117//18
f 102//23 119//22 118//20
f 100//21 102//23 118//20
f 104//25 120//24 119//22
f 102//23 104//25 119//22
f 106//27 121//26 120//24
f 104//25 106//27 120//24
f 108//29 122//28 121//26
f 106//27 108//29 121//26
f 110//31 123//30 122//28
f 108//29 110//31 122//28
f 112//33 124//32 123//30
f 110//31 112//33 123//30
f 84//5 125//2 124//32
f 112//33 84//5 124//32
f 64//67 82//68 81//69
f 49//70 64//67 81//69
f 63//71 85//72 82//68
f 64//67 63//71 82//68
f 62//73 87//74 85//72
f 63//71 62//73 85//72
f 61//75 89//76 87//74
f 62//73 61//75 87//74
f 60//77 91//78 89//76
f 61//75 60//77 89//76
f 59//79 93//80 91//78
f 60//77 59//79 91//78
f 58//81 95//82 93//80
f 59//79 58//81 93//80
f 57//83 97//84 95//82
f 58//81 57//83 95//82
f 56//85 99//86 97//84
f 57//83 56//85 97//84
f 55//87 101//88 99//86
f 56//85 55//87 99//86
f 54//89 103//90 101//88
f 55//87 54//89 101//88
f 53//91 105//92 103//90
f 54//89 53//91 103//90
f 52//93 107//94 105//92
f 53//91 52//93 105//92
f 51//95 109//96 107//94
f 52//93 51//95 107//94
f 50//97 111//98 109//96
f 51//95 50//97 109//96
f 49//70 81//69 111//98
f 50//97 49//70 111//98
f 129//99 130//100 131//101
f 129//99 131//101 132//101
f 133//102 132//103 131//103
f 133//102 131//103 134//104
f 134//104 135//105 136//105
f 134//104 136//105 133//102
f 137//106 138//107 136//108
f 137//106 136//108 135//108
f 139//66 140//66 138//107
f 139//66 138//107 137//106
f 139//109 141//110 142//111
f 139//109 142//111 140//109
f 142//111 141//110 143//112
f 142//111 143//112 144//113
f 144//113 143//112 145//114
f 144//113 145//114 146//114
f 145//115 147//115 148//115
f 145//115 148//115 146//115
f 149//116 150//116 148//116
f 149//116 148//116 147//116
f 150//117 149//117 151//117
f 150//117 151//117 152//117
f 153//118 152//118 151//118
f 153//118 151//118 154//118
f 153//119 154//119 155//120
f 153//119 155//120 156//121
f 156//121 155//120 157//122
f 156//121 157//122 158//123
f 158//123 157//122 159//124
f 158//123 159//124 160//124
f 161//125 160//126 159//126
f 161//125 159//126 162//127
f 162//127 163//128 164//128
f 162//127 164//128 161//125
f 165//129 166//130 164//131
f 165//129 164//131 163//131
f 167//1 168//1 166//130
f 167//1 166//130 165//129
f 167//132 169//133 170//134
f 167//132 170//134 168//132
f 170//134 169//133 171//135
f 170//134 171//135 172//136
f 172//136 171//135 173//137
f 172//136 173//137 174//137
f 173//138 175//138 176//138
f 173//138 176//138 174//138
f 177//139 178//139 176//139
f 177//139 176//139 175//139
f 178//140 177//140 179//140
f 178//140 179//140 180//140
f 181//141 180//141 179//141
f 181//141 179//141 182//141
f 181//142 182//142 183//143
f 181//142 183//143 184//144
f 184//144 183//143 130//100
f 184//144 130//100 129//99
f 135//145 185//145 186//145
f 135//145 186//145 187//145
f 135//145 134//145 131//145
f 135//145 131//145 185//145
f 137//145 135//145 187//145
f 137//145 187//145 139//145
f 154//145 151//145 149//145
f 154//145 149//145 188//145
f 147//145 145//145 189//145
f 147//145 189//145 149//145
f 163//145 190//145 191//145
f 163//145 191//145 192//145
f 163//145 162//145 159//145
f 163//145 159//145 190//145
f 165//145 163//145 192//145
f 165//145 192//145 167//145
f 182//145 179//145 177//145
f 182//145 177//145 193//145
f 175//145 173//145 193//145
f 175//145 193//145 177//145
f 194//146 195//147 196//148
f 194//146 196//148 130//100
f 195//147 197//149 198//150
f 195//147 198//150 196//148
f 197//149 199//151 200//152
f 197//149 200//152 198//150
f 199//151 201//153 141//110
f 199//151 141//110 200//152
f 201//153 202//154 143//112
f 201//153 143//112 141//110
f 202//154 203//155 189//156
f 202//154 189//156 143//112
f 203//155 204//157 155//120
f 203//155 155//120 189//156
f 204//157 205//158 157//122
f 204//157 157//122 155//120
f 205//158 206//159 207//160
f 205//158 207//160 157//122
f 206//159 208//161 209//162
f 206//159 209//162 207//160
f 208//161 210//163 211//164
f 208//161 211//164 209//162
f 210//163 212//165 169//133
f 210//163 169//133 211//164
f 212//165 213//166 171//135
f 212//165 171//135 169//133
f 213//166 214//167 193//168
f 213//166 193//168 171//135
f 214//167 215//169 183//143
f 214//167 183//143 193//168
f 215//169 194//146 130//100
f 215//169 130//100 183//143
f 216//145 213//145 212//145
f 216//145 214//145 213//145
f 212//145 210//145 217//145
f 210//145 208//145 217//145
f 218//145 195//145 194//170
f 218//145 197//145 195//145
f 194//170 215//145 219//145
f 215//145 214//145 219//145
f 220//145 202//145 201//145
f 220//145 203//145 202//145
f 201//145 199//145 221//145
f 199//145 197//145 221//145
f 222//145 206//145 205//145
f 222//145 208//145 206//145
f 205//145 204//145 223//145
f 204//145 203//145 223//145
f 184//145 129//145 224//145
f 225//145 184//145 224//145
f 172//145 225//145 224//145
f 170//145 172//145 224//145
f 226//145 170//145 224//145
f 227//145 226//145 224//145
f 228//145 227//145 224//145
f 158//145 228//145 224//145
f 156//145 158//145 224//145
f 229//145 156//145 224//145
f 144//145 229//145 224//145
f 142//145 144//145 224//145
f 230//145 142//145 224//145
f 231//145 230//145 224//145
f 232//145 231//145 224//145
f 129//145 232//145 224//145
f 233//1 234//1 235//1
f 233//1 235//1 236//1
f 237//171 238//172 239//172
f 237//171 239//172 240//173
f 241//174 237//171 240//173
f 241//174 240//173 242//175
f 243//176 241//174 242//175
f 243//176 242//175 244//176
f 238//145 237//145 241//145
f 238//145 241//145 243//145
f 245//145 246//177 247//145
f 248//145 249//145 245//145
f 250//145 251//145 248//145
f 252//178 245//179 247//180
f 252//178 247//180 253//180
f 254//181 248//182 245//179
f 254//181 245//179 252//178
f 255//183 250//183 248//182
f 255//183 248//182 254//181
f 253//180 256//184 252//178
f 252//178 256//184 257//185
f 252//178 257//185 254//181
f 254//181 257//185 258//183
f 254//181 258//183 255//183
f 259//145 260//145 261//145
f 261//145 262//145 263//145
f 263//145 264//145 265//145
f 259//186 261//187 266//188
f 267//186 259//186 266//188
f 261//187 263//189 268//190
f 266//188 261//187 268//190
f 263//189 265//191 269//191
f 268//190 263//189 269//191
f 266//188 270//192 267//186
f 271//193 270//192 266//188
f 268//190 271//193 266//188
f 272//191 271//193 268//190
f 269//191 272//191 268//190
f 273//66 274//66 275//66
f 273//66 275//66 276//66
f 277//194 278//195 279//195
f 277//194 279//195 280//196
f 281//197 277//194 280//196
f 281//197 280//196 282//198
f 283//199 281//197 282//198
f 283//199 282//198 284//199
f 278//145 277//145 281//145
f 278//145 281//145 283//145
f 285//145 286//145 287//145
f 288//145 289//145 285//145
f 290//145 291//145 288//145
f 292//200 285//201 287//202
f 292//200 287//202 293//202
f 294//203 288//204 285//201
f 294//203 285//201 292//200
f 295//205 290//205 288//204
f 295//205 288//204 294//203
f 293//202 296//206 292//200
f 292//200 296//206 297//207
f 292//200 297//207 294//203
f 294//203 297//207 298//205
f 294//203 298//205 295//205
f 299//145 300//208 301//145
f 301//145 302//145 303//145
f 303//145 304//145 305//145
f 299//209 301//210 306//211
f 307//209 299//209 306//211
f 301//210 303//212 308//213
f 306//211 301//210 308//213
f 303//212 305//214 309//214
f 308//213 303//212 309//214
f 306//211 310//215 307//209
f 311//216 310//215 306//211
f 308//213 311//216 306//211
f 312//214 311//216 308//213
f 309//214 312//214 308//213
f 246//177 194//170 233//217
f 246//177 233//217 236//218
f 300//208 233//217 194//170
f 301//145 300//208 194//170
f 301//145 194//170 219//145
f 313//145 301//145 219//145
f 313//145 219//145 214//145
f 303//145 313//145 214//145
f 303//145 214//145 216//145
f 303//145 216//145 212//145
f 303//145 212//145 304//145
f 290//145 283//145 304//145
f 290//145 304//145 212//145
f 291//145 290//145 212//145
f 212//145 217//145 288//145
f 212//145 288//145 291//145
f 314//145 288//145 217//145
f 314//145 217//145 208//145
f 285//145 314//145 208//145
f 285//145 208//145 222//145
f 259//145 287//145 286//145
f 259//145 286//145 205//145
f 285//145 222//145 205//145
f 285//145 205//145 286//145
f 205//145 223//145 261//145
f 205//145 261//145 260//145
f 260//145 259//145 205//145
f 263//145 315//145 203//145
f 263//145 203//145 220//145
f 223//145 203//145 315//145
f 223//145 315//145 261//145
f 263//145 220//145 201//145
f 263//145 201//145 264//145
f 264//145 201//145 238//145
f 264//145 238//145 265//145
f 251//145 238//145 201//145
f 201//145 221//145 248//145
f 201//145 248//145 251//145
f 245//145 316//145 197//145
f 245//145 197//145 218//145
f 221//145 197//145 316//145
f 221//145 316//145 248//145
f 194//170 246//177 245//145
f 194//170 245//145 218//145
f 317//101 318//100 319//99
f 320//101 317//101 319//99
f 317//103 320//103 321//102
f 322//104 317//103 321//102
f 323//105 324//105 322//104
f 321//102 323//105 322//104
f 323//108 325//107 326//106
f 324//108 323//108 326//106
f 325//107 327//66 328//66
f 326//106 325//107 328//66
f 329//111 330//110 328//109
f 327//109 329//111 328//109
f 331//112 330//110 329//111
f 332//113 331//112 329//111
f 333//114 331//112 332//113
f 334//114 333//114 332//113
f 335//115 336//115 333//115
f 334//115 335//115 333//115
f 335//116 337//116 338//116
f 336//116 335//116 338//116
f 339//117 338//117 337//117
f 340//117 339//117 337//117
f 339//118 340//118 341//118
f 342//118 339//118 341//118
f 343//120 342//119 341//119
f 344//121 343//120 341//119
f 345//122 343//120 344//121
f 346//123 345//122 344//121
f 347//124 345//122 346//123
f 348//124 347//124 346//123
f 347//126 348//126 349//125
f 350//127 347//126 349//125
f 351//128 352//128 350//127
f 349//125 351//128 350//127
f 351//131 353//130 354//129
f 352//131 351//131 354//129
f 353//130 355//1 356//1
f 354//129 353//130 356//1
f 357//134 358//133 356//132
f 355//132 357//134 356//132
f 359//135 358//133 357//134
f 360//136 359//135 357//134
f 361//137 359//135 360//136
f 362//137 361//137 360//136
f 363//138 364//138 361//138
f 362//138 363//138 361//138
f 363//139 365//139 366//139
f 364//139 363//139 366//139
f 367//140 366//140 365//140
f 368//140 367//140 365//140
f 367//141 368//141 369//141
f 370//141 367//141 369//141
f 371//143 370//142 369//142
f 372//144 371//143 369//142
f 318//100 371//143 372//144
f 319//99 318//100 372//144
f 373//219 374//219 324//219
f 375//219 373//219 324//219
f 317//219 322//219 324//219
f 374//219 317//219 324//219
f 375//219 324//219 326//219
f 328//219 375//219 326//219
f 338//219 339//219 342//219
f 376//219 338//219 342//219
f 377//219 333//219 336//219
f 338//219 377//219 336//219
f 378//219 379//219 352//219
f 380//219 378//219 352//219
f 347//219 350//219 352//219
f 379//219 347//219 352//219
f 380//219 352//219 354//219
f 356//219 380//219 354//219
f 366//219 367//219 370//219
f 381//219 366//219 370//219
f 381//219 361//219 364//219
f 366//219 381//219 364//219
f 382//148 383//147 384//146
f 318//100 382//148 384//146
f 385//150 386//149 383//147
f 382//148 385//150 383//147
f 387//152 388//151 386//149
f 385//150 387//152 386//149
f 330//110 389//153 388//151
f 387//152 330//110 388//151
f 331//112 390//154 389//153
f 330//110 331//112 389//153
f 377//156 391//155 390//154
f 331//112 377//156 390//154
f 343//120 392//157 391//155
f 377//156 343//120 391//155
f 345//122 393//158 392//157
f 343//120 345//122 392//157
f 394//160 395//159 393//158
f 345//122 394//160 393//158
f 396//162 397//161 395//159
f 394//160 396//162 395//159
f 398//164 399//163 397//161
f 396//162 398//164 397//161
f 358//133 400//165 399//163
f 398//164 358//133 399//163
f 359//135 401//166 400//165
f 358//133 359//135 400//165
f 381//168 402//167 401//166
f 359//135 381//168 401//166
f 371//143 403//169 402//167
f 381//168 371//143 402//167
f 318//100 384//146 403//169
f 371//143 318//100 403//169
f 400//219 401//219 404//219
f 401//219 402//219 404//219
f 405//219 399//219 400//219
f 405//219 397//219 399//219
f 384//220 383//219 406//219
f 383//219 386//219 406//219
f 407//219 403//219 384//220
f 407//219 402//219 403//219
f 389//219 390//219 408//219
f 390//219 391//219 408//219
f 409//219 388//219 389//219
f 409//219 386//219 388//219
f 393//219 395//219 410//219
f 395//219 397//219 410//219
f 411//219 392//219 393//219
f 411//219 391//219 392//219
f 412//219 319//219 372//219
f 412//219 372//219 413//219
f 412//219 413//219 360//219
f 412//219 360//219 357//219
f 412//219 357//219 414//219
f 412//219 414//219 415//219
f 412//219 415//219 416//219
f 412//219 416//219 346//219
f 412//219 346//219 344//219
f 412//219 344//219 417//219
f 412//219 417//219 332//219
f 412//219 332//219 329//219
f 412//219 329//219 418//219
f 412//219 418//219 419//219
f 412//219 419//219 420//219
f 412//219 420//219 319//219
f 421//1 422//1 423//1
f 424//1 421//1 423//1
f 425//172 426//172 427//171
f 428//173 425//172 427//171
f 428//173 427//171 429//174
f 430//175 428//173 429//174
f 430//175 429//174 431//176
f 432//176 430//175 431//176
f 429//219 427//219 426//219
f 431//219 429//219 426//219
f 433//219 434//221 435//219
f 435//219 436//219 437//219
f 437//219 438//219 439//219
f 433//180 435//179 440//178
f 441//180 433//180 440//178
f 435//179 437//182 442//181
f 440//178 435//179 442//181
f 437//182 439//183 443//183
f 442//181 437//182 443//183
f 440//178 444//184 441//180
f 445//185 444//184 440//178
f 442//181 445//185 440//178
f 446//183 445//185 442//181
f 443//183 446//183 442//181
f 447//219 448//219 449//219
f 450//219 451//219 447//219
f 452//219 453//219 450//219
f 454//188 447//187 449//186
f 454//188 449//186 455//186
f 456//190 450//189 447//187
f 456//190 447//187 454//188
f 457//191 452//191 450//189
f 457//191 450//189 456//190
f 455//186 458//192 454//188
f 454//188 458//192 459//193
f 454//188 459//193 456//190
f 456//190 459//193 460//191
f 456//190 460//191 457//191
f 461//66 462//66 463//66
f 464//66 461//66 463//66
f 465//195 466//195 467//194
f 468//196 465//195 467//194
f 468//196 467//194 469//197
f 470//198 468//196 469//197
f 470//198 469//197 471//199
f 472//199 470//198 471//199
f 469//219 467//219 466//219
f 471//219 469//219 466//219
f 473//219 474//219 475//219
f 475//219 476//219 477//219
f 477//219 478//219 479//219
f 473//202 475//201 480//200
f 481//202 473//202 480//200
f 475//201 477//204 482//203
f 480//200 475//201 482//203
f 477//204 479//205 483//205
f 482//203 477//204 483//205
f 480//200 484//206 481//202
f 485//207 484//206 480//200
f 482//203 485//207 480//200
f 486//205 485//207 482//203
f 483//205 486//205 482//203
f 487//219 488//222 489//219
f 490//219 491//219 487//219
f 492//219 493//219 490//219
f 494//211 487//210 489//209
f 494//211 489//209 495//209
f 496//213 490//212 487//210
f 496//213 487//210 494//211
f 497//214 492//214 490//212
f 497//214 490//212 496//213
f 495//209 498//215 494//211
f 494//211 498//215 499//216
f 494//211 499//216 496//213
f 496//213 499//216 500//214
f 496//213 500//214 497//214
f 423//223 384//220 434//221
f 424//224 423//223 434//221
f 384//220 423//223 488//222
f 384//220 488//222 487//219
f 407//219 384//220 487//219
f 407//219 487//219 501//219
f 402//219 407//219 501//219
f 402//219 501//219 490//219
f 404//219 402//219 490//219
f 400//219 404//219 490//219
f 493//219 400//219 490//219
f 493//219 471//219 479//219
f 400//219 493//219 479//219
f 400//219 479//219 478//219
f 477//219 405//219 400//219
f 478//219 477//219 400//219
f 405//219 477//219 502//219
f 397//219 405//219 502//219
f 397//219 502//219 475//219
f 410//219 397//219 475//219
f 474//219 473//219 449//219
f 393//219 474//219 449//219
f 393//219 410//219 475//219
f 474//219 393//219 475//219
f 447//219 411//219 393//219
f 448//219 447//219 393//219
f 393//219 449//219 448//219
f 391//219 503//219 450//219
f 408//219 391//219 450//219
f 503//219 391//219 411//219
f 447//219 503//219 411//219
f 389//219 408//219 450//219
f 453//219 389//219 450//219
f 426//219 389//219 453//219
f 452//219 426//219 453//219
f 389//219 426//219 438//219
f 437//219 409//219 389//219
f 438//219 437//219 389//219
f 386//219 504//219 435//219
f 406//219 386//219 435//219
f 504//219 386//219 409//219
f 437//219 504//219 409//219
f 435//219 434//221 384//220
f 406//219 435//219 384//220
f 505//1 506//1 507//1
f 505//1 507//1 508//1
f 505//1 509//1 510//1
f 505//1 510//1 511//1
f 512//1 513//1 510//1
f 512//1 510//1 509//1
f 512//1 514//1 515//1
f 512//1 515//1 513//1
f 514//1 516//1 517//1
f 514//1 517//1 515//1
f 516//1 518//1 519//1
f 516//1 519//1 517//1
f 520//1 521//1 519//1
f 520//1 519//1 518//1
f 520//1 522//1 523//1
f 520//1 523//1 521//1
f 511//1 506//1 505//1
f 524//225 525//225 526//225
f 524//225 526//225 527//225
f 528//226 529//226 530//226
f 528//226 530//226 531//226
f 532//227 533//227 534//227
f 532//227 534//227 535//227
f 507//103 536//103 537//103
f 507//103 537//103 508//103
f 505//219 508//219 537//219
f 505//219 537//219 538//219
f 539//228 540//228 541//228
f 539//228 541//228 542//228
f 543//229 544//229 545//229
f 543//229 545//229 546//229
f 547//230 548//230 549//230
f 547//230 549//230 550//230
f 551//219 552//219 553//219
f 551//219 553//219 554//219
f 555//231 556//231 557//232
f 555//231 557//232 558//233
f 558//233 557//232 529//234
f 558//233 529//234 528//234
f 531//235 530//235 559//235
f 531//235 559//235 560//235
f 521//236 561//236 562//237
f 521//236 562//237 519//238
f 519//238 562//237 563//145
f 519//238 563//145 517//145
f 515//239 564//239 565//240
f 515//239 565//240 513//241
f 513//241 565//240 566//126
f 513//241 566//126 510//126
f 567//242 568//242 569//243
f 567//242 569//243 570//243
f 571//126 570//243 569//243
f 571//126 569//243 572//126
f 573//145 574//145 575//145
f 573//145 575//145 576//145
f 577//66 578//66 579//66
f 577//66 579//66 580//66
f 577//66 581//66 582//66
f 577//66 582//66 583//66
f 584//66 585//66 582//66
f 584//66 582//66 581//66
f 584//66 586//66 587//66
f 584//66 587//66 585//66
f 586//66 588//66 589//66
f 586//66 589//66 587//66
f 588//66 590//66 591//66
f 588//66 591//66 589//66
f 592//66 593//66 591//66
f 592//66 591//66 590//66
f 592//66 594//66 595//66
f 592//66 595//66 593//66
f 583//66 578//66 577//66
f 596//244 597//244 598//244
f 596//244 598//244 599//244
f 600//245 601//245 602//245
f 600//245 602//245 603//245
f 604//246 605//246 606//246
f 604//246 606//246 607//246
f 579//103 608//103 609//103
f 579//103 609//103 580//103
f 577//145 580//145 609//145
f 577//145 609//145 610//145
f 611//247 612//247 613//247
f 611//247 613//247 614//247
f 615//248 616//248 617//248
f 615//248 617//248 618//248
f 619//249 620//249 621//249
f 619//249 621//249 622//249
f 623//145 624//145 625//145
f 623//145 625//145 626//145
f 627//250 628//250 629//251
f 627//250 629//251 630//252
f 630//252 629//251 601//253
f 630//252 601//253 600//253
f 603//254 602//254 631//254
f 603//254 631//254 632//254
f 593//255 633//255 634//256
f 593//255 634//256 591//257
f 591//257 634//256 635//219
f 591//257 635//219 589//219
f 587//258 636//258 637//259
f 587//258 637//259 585//260
f 585//260 637//259 638//126
f 585//260 638//126 582//126
f 639//261 640//261 641//262
f 639//261 641//262 642//262
f 643//126 642//262 641//262
f 643//126 641//262 644//126
f 645//219 646//219 647//219
f 645//219 647//219 648//219
