# Botball Lab: metres, +Y up, centred XZ, base Y=0
s off
v 0.0475657 0.0004191 -0.0006520
v 0.0470000 0.0001591 -0.0008000
v 0.0470000 0.0016000 -0.0008000
v 0.0478000 0.0012463 -0.0006528
v 0.0478000 0.0016568 -0.0007432
v 0.0478000 0.0011134 -0.0000000
v 0.0475657 0.0002894 -0.0000000
v 0.0470000 0.0000000 -0.0000000
v 0.0478000 0.0024000 -0.0000000
v 0.0470000 0.0016000 -0.0022409
v 0.0475657 0.0017480 -0.0019809
v 0.0478000 0.0017472 -0.0011537
v 0.0478000 0.0024000 -0.0012866
v 0.0475657 0.0024000 -0.0021106
v 0.0470000 0.0024000 -0.0024000
v 0.0475657 0.0017480 0.0019809
v 0.0470000 0.0016000 0.0022409
v 0.0470000 0.0016000 0.0008000
v 0.0478000 0.0017472 0.0011537
v 0.0478000 0.0016568 0.0007432
v 0.0478000 0.0024000 0.0013124
v 0.0475657 0.0024000 0.0021106
v 0.0470000 0.0024000 0.0024000
v 0.0470000 0.0001591 0.0008000
v 0.0475657 0.0004191 0.0006520
v 0.0478000 0.0012463 0.0006528
v 0.0475657 0.0043809 0.0006520
v 0.0470000 0.0046409 0.0008000
v 0.0470000 0.0032000 0.0008000
v 0.0478000 0.0035537 0.0006528
v 0.0478000 0.0031432 0.0007432
v 0.0478000 0.0036866 -0.0000000
v 0.0475657 0.0045106 -0.0000000
v 0.0470000 0.0048000 -0.0000000
v 0.0470000 0.0032000 0.0022409
v 0.0475657 0.0030520 0.0019809
v 0.0478000 0.0030528 0.0011537
v 0.0475657 0.0030520 -0.0019809
v 0.0470000 0.0032000 -0.0022409
v 0.0470000 0.0032000 -0.0008000
v 0.0478000 0.0030528 -0.0011537
v 0.0478000 0.0031432 -0.0007432
v 0.0470000 0.0046409 -0.0008000
v 0.0475657 0.0043809 -0.0006520
v 0.0478000 0.0035537 -0.0006528
v -0.0475657 0.0004191 0.0006520
v -0.0470000 0.0001591 0.0008000
v -0.0470000 0.0016000 0.0008000
v -0.0478000 0.0012463 0.0006528
v -0.0478000 0.0016568 0.0007432
v -0.0478000 0.0011134 -0.0000000
v -0.0475657 0.0002894 -0.0000000
v -0.0470000 0.0000000 -0.0000000
v -0.0478000 0.0024000 -0.0000000
v -0.0470000 0.0016000 0.0022409
v -0.0475657 0.0017480 0.0019809
v -0.0478000 0.0017472 0.0011537
v -0.0478000 0.0024000 0.0012866
v -0.0475657 0.0024000 0.0021106
v -0.0470000 0.0024000 0.0024000
v -0.0475657 0.0017480 -0.0019809
v -0.0470000 0.0016000 -0.0022409
v -0.0470000 0.0016000 -0.0008000
v -0.0478000 0.0017472 -0.0011537
v -0.0478000 0.0016568 -0.0007432
v -0.0478000 0.0024000 -0.0013124
v -0.0475657 0.0024000 -0.0021106
v -0.0470000 0.0024000 -0.0024000
v -0.0470000 0.0001591 -0.0008000
v -0.0475657 0.0004191 -0.0006520
v -0.0478000 0.0012463 -0.0006528
v -0.0475657 0.0043809 -0.0006520
v -0.0470000 0.0046409 -0.0008000
v -0.0470000 0.0032000 -0.0008000
v -0.0478000 0.0035537 -0.0006528
v -0.0478000 0.0031432 -0.0007432
v -0.0478000 0.0036866 -0.0000000
v -0.0475657 0.0045106 -0.0000000
v -0.0470000 0.0048000 -0.0000000
v -0.0470000 0.0032000 -0.0022409
v -0.0475657 0.0030520 -0.0019809
v -0.0478000 0.0030528 -0.0011537
v -0.0475657 0.0030520 0.0019809
v -0.0470000 0.0032000 0.0022409
v -0.0470000 0.0032000 0.0008000
v -0.0478000 0.0030528 0.0011537
v -0.0478000 0.0031432 0.0007432
v -0.0470000 0.0046409 0.0008000
v -0.0475657 0.0043809 0.0006520
v -0.0478000 0.0035537 0.0006528
f 1 2 3
f 1 3 4
f 4 3 5
f 1 4 6
f 1 6 7
f 2 1 7
f 2 7 8
f 9 6 4
f 9 4 5
f 10 11 3
f 3 11 12
f 3 12 5
f 13 12 11
f 13 11 14
f 14 11 10
f 14 10 15
f 12 13 9
f 12 9 5
f 16 17 18
f 16 18 19
f 19 18 20
f 16 19 21
f 16 21 22
f 17 16 22
f 17 22 23
f 9 21 19
f 9 19 20
f 24 25 18
f 18 25 26
f 18 26 20
f 6 26 25
f 6 25 7
f 7 25 24
f 7 24 8
f 26 6 9
f 26 9 20
f 27 28 29
f 27 29 30
f 30 29 31
f 27 30 32
f 27 32 33
f 28 27 33
f 28 33 34
f 9 32 30
f 9 30 31
f 35 36 29
f 29 36 37
f 29 37 31
f 21 37 36
f 21 36 22
f 22 36 35
f 22 35 23
f 37 21 9
f 37 9 31
f 38 39 40
f 38 40 41
f 41 40 42
f 38 41 13
f 38 13 14
f 39 38 14
f 39 14 15
f 9 13 41
f 9 41 42
f 43 44 40
f 40 44 45
f 40 45 42
f 32 45 44
f 32 44 33
f 33 44 43
f 33 43 34
f 45 32 9
f 45 9 42
f 46 47 48
f 46 48 49
f 49 48 50
f 46 49 51
f 46 51 52
f 47 46 52
f 47 52 53
f 54 51 49
f 54 49 50
f 55 56 48
f 48 56 57
f 48 57 50
f 58 57 56
f 58 56 59
f 59 56 55
f 59 55 60
f 57 58 54
f 57 54 50
f 61 62 63
f 61 63 64
f 64 63 65
f 61 64 66
f 61 66 67
f 62 61 67
f 62 67 68
f 54 66 64
f 54 64 65
f 69 70 63
f 63 70 71
f 63 71 65
f 51 71 70
f 51 70 52
f 52 70 69
f 52 69 53
f 71 51 54
f 71 54 65
f 72 73 74
f 72 74 75
f 75 74 76
f 72 75 77
f 72 77 78
f 73 72 78
f 73 78 79
f 54 77 75
f 54 75 76
f 80 81 74
f 74 81 82
f 74 82 76
f 66 82 81
f 66 81 67
f 67 81 80
f 67 80 68
f 82 66 54
f 82 54 76
f 83 84 85
f 83 85 86
f 86 85 87
f 83 86 58
f 83 58 59
f 84 83 59
f 84 59 60
f 54 58 86
f 54 86 87
f 88 89 85
f 85 89 90
f 85 90 87
f 77 90 89
f 77 89 78
f 78 89 88
f 78 88 79
f 90 77 54
f 90 54 87
f 3 63 62
f 3 62 10
f 69 63 3
f 69 3 2
f 80 74 40
f 39 80 40
f 40 74 73
f 43 40 73
f 29 85 84
f 29 84 35
f 88 85 29
f 88 29 28
f 55 48 18
f 17 55 18
f 18 48 47
f 24 18 47
f 69 2 8
f 69 8 53
f 62 68 15
f 62 15 10
f 80 39 15
f 80 15 68
f 73 79 34
f 73 34 43
f 88 28 34
f 88 34 79
f 55 17 23
f 55 23 60
f 84 60 23
f 84 23 35
f 47 53 8
f 47 8 24
