# Botball Lab: metres, +Y up, centred XZ, base Y=0
s off
v 0.0032000 0.0036000 -0.0029236
v 0.0032000 0.0026815 -0.0027410
v 0.0032000 0.0023754 -0.0034801
v 0.0032000 0.0036000 -0.0037236
v 0.0032000 0.0019030 -0.0022207
v 0.0032000 0.0013373 -0.0027863
v 0.0032000 0.0013826 -0.0014421
v 0.0032000 0.0006435 -0.0017483
v 0.0032000 0.0012000 -0.0005236
v 0.0032000 0.0004000 -0.0005236
v 0.0032000 0.0013826 0.0003949
v 0.0032000 0.0006435 0.0007010
v 0.0032000 0.0019030 0.0011734
v 0.0032000 0.0013373 0.0017391
v 0.0032000 0.0026815 0.0016937
v 0.0032000 0.0023754 0.0024329
v 0.0032000 0.0036000 0.0018764
v 0.0032000 0.0036000 0.0026764
v 0.0032000 0.0045185 0.0016937
v 0.0032000 0.0048246 0.0024329
v 0.0032000 0.0052970 0.0011734
v 0.0032000 0.0058627 0.0017391
v 0.0032000 0.0058174 0.0003949
v 0.0032000 0.0065565 0.0007010
v 0.0032000 0.0060000 -0.0005236
v 0.0032000 0.0068000 -0.0005236
v 0.0032000 0.0058174 -0.0014421
v 0.0032000 0.0065565 -0.0017483
v 0.0032000 0.0052970 -0.0022207
v 0.0032000 0.0058627 -0.0027863
v 0.0032000 0.0045185 -0.0027410
v 0.0032000 0.0048246 -0.0034801
v 0.0040000 0.0065565 -0.0017483
v 0.0040000 0.0068000 -0.0005236
v 0.0040000 0.0058627 -0.0027863
v 0.0040000 0.0048246 -0.0034801
v 0.0040000 0.0036000 -0.0037236
v 0.0040000 0.0023754 -0.0034801
v 0.0040000 0.0013373 -0.0027863
v 0.0040000 0.0006435 -0.0017483
v 0.0040000 0.0004000 -0.0005236
v 0.0040000 0.0006435 0.0007010
v 0.0040000 0.0013373 0.0017391
v 0.0040000 0.0023754 0.0024329
v 0.0040000 0.0036000 0.0026764
v 0.0040000 0.0048246 0.0024329
v 0.0040000 0.0058627 0.0017391
v 0.0040000 0.0065565 0.0007010
v 0.0040000 0.0072000 -0.0005236
v 0.0040000 0.0069260 0.0008541
v 0.0040000 0.0061456 0.0020219
v 0.0040000 0.0049777 0.0028024
v 0.0040000 0.0036000 0.0030764
v 0.0040000 0.0022223 0.0028024
v 0.0040000 0.0010544 0.0020219
v 0.0040000 0.0002740 0.0008541
v 0.0040000 0.0000000 -0.0005236
v 0.0040000 0.0002740 -0.0019013
v 0.0040000 0.0010544 -0.0030692
v 0.0040000 0.0022223 -0.0038497
v 0.0040000 0.0036000 -0.0041236
v 0.0040000 0.0049777 -0.0038497
v 0.0040000 0.0061456 -0.0030692
v 0.0040000 0.0069260 -0.0019013
v -0.0032000 0.0058174 -0.0014421
v -0.0032000 0.0060000 -0.0005236
v -0.0032000 0.0052970 -0.0022207
v -0.0032000 0.0045185 -0.0027410
v -0.0032000 0.0036000 -0.0029236
v -0.0032000 0.0026815 -0.0027410
v -0.0032000 0.0019030 -0.0022207
v -0.0032000 0.0013826 -0.0014421
v -0.0032000 0.0012000 -0.0005236
v -0.0032000 0.0013826 0.0003949
v -0.0032000 0.0019030 0.0011734
v -0.0032000 0.0026815 0.0016937
v -0.0032000 0.0036000 0.0018764
v -0.0032000 0.0045185 0.0016937
v -0.0032000 0.0052970 0.0011734
v -0.0032000 0.0058174 0.0003949
v -0.0040000 0.0072000 -0.0005236
v -0.0040000 0.0069260 -0.0019013
v -0.0040000 0.0065565 -0.0017483
v -0.0040000 0.0068000 -0.0005236
v -0.0040000 0.0061456 -0.0030692
v -0.0040000 0.0058627 -0.0027863
v -0.0040000 0.0049777 -0.0038497
v -0.0040000 0.0048246 -0.0034801
v -0.0040000 0.0036000 -0.0041236
v -0.0040000 0.0036000 -0.0037236
v -0.0040000 0.0022223 -0.0038497
v -0.0040000 0.0023754 -0.0034801
v -0.0040000 0.0010544 -0.0030692
v -0.0040000 0.0013373 -0.0027863
v -0.0040000 0.0002740 -0.0019013
v -0.0040000 0.0006435 -0.0017483
v -0.0040000 0.0000000 -0.0005236
v -0.0040000 0.0004000 -0.0005236
v -0.0040000 0.0002740 0.0008541
v -0.0040000 0.0006435 0.0007010
v -0.0040000 0.0010544 0.0020219
v -0.0040000 0.0013373 0.0017391
v -0.0040000 0.0022223 0.0028024
v -0.0040000 0.0023754 0.0024329
v -0.0040000 0.0036000 0.0030764
v -0.0040000 0.0036000 0.0026764
v -0.0040000 0.0049777 0.0028024
v -0.0040000 0.0048246 0.0024329
v -0.0040000 0.0061456 0.0020219
v -0.0040000 0.0058627 0.0017391
v -0.0040000 0.0069260 0.0008541
v -0.0040000 0.0065565 0.0007010
v -0.0032000 0.0023754 -0.0034801
v -0.0032000 0.0036000 -0.0037236
v -0.0032000 0.0013373 -0.0027863
v -0.0032000 0.0006435 -0.0017483
v -0.0032000 0.0004000 -0.0005236
v -0.0032000 0.0006435 0.0007010
v -0.0032000 0.0013373 0.0017391
v -0.0032000 0.0023754 0.0024329
v -0.0032000 0.0036000 0.0026764
v -0.0032000 0.0048246 0.0024329
v -0.0032000 0.0058627 0.0017391
v -0.0032000 0.0065565 0.0007010
v -0.0032000 0.0068000 -0.0005236
v -0.0032000 0.0065565 -0.0017483
v -0.0032000 0.0058627 -0.0027863
v -0.0032000 0.0048246 -0.0034801
v 0.0022409 0.0123682 -0.0081604
v 0.0024000 0.0118025 -0.0087261
v 0.0024000 0.0064284 -0.0033521
v 0.0022409 0.0069941 -0.0027864
v 0.0016000 0.0069941 -0.0027864
v 0.0016000 0.0123682 -0.0081604
v 0.0010000 0.0071356 -0.0026449
v 0.0010000 0.0125096 -0.0080190
v 0.0008000 0.0075598 -0.0022207
v 0.0008000 0.0129339 -0.0075947
v 0.0008000 0.0080130 -0.0017675
v 0.0008000 0.0133871 -0.0071415
v 0.0000000 0.0081255 -0.0016550
v 0.0000000 0.0134995 -0.0070290
v -0.0009185 0.0133704 -0.0071582
v -0.0009185 0.0079964 -0.0017841
v -0.0014046 0.0131408 -0.0073878
v -0.0014046 0.0077667 -0.0020138
v -0.0009303 0.0072835 -0.0024970
v -0.0009303 0.0126575 -0.0078711
v -0.0010000 0.0071356 -0.0026449
v -0.0010000 0.0125096 -0.0080190
v -0.0012092 0.0124603 -0.0080683
v -0.0012092 0.0070863 -0.0026942
v -0.0018926 0.0074216 -0.0023589
v -0.0018926 0.0127957 -0.0077329
v -0.0022174 0.0124519 -0.0080766
v -0.0022174 0.0070779 -0.0027026
v -0.0024000 0.0118025 -0.0087261
v -0.0024000 0.0064284 -0.0033521
v -0.0022409 0.0112368 -0.0092918
v -0.0022409 0.0058628 -0.0039177
v -0.0016000 0.0058628 -0.0039177
v -0.0016000 0.0112368 -0.0092918
v -0.0010000 0.0057213 -0.0040592
v -0.0010000 0.0110954 -0.0094332
v -0.0008000 0.0052971 -0.0044834
v -0.0008000 0.0106711 -0.0098575
v -0.0008000 0.0048439 -0.0049366
v -0.0008000 0.0102179 -0.0103107
v 0.0000000 0.0047314 -0.0050491
v 0.0000000 0.0101054 -0.0104232
v 0.0009185 0.0102346 -0.0102940
v 0.0009185 0.0048605 -0.0049200
v 0.0014046 0.0104642 -0.0100644
v 0.0014046 0.0050901 -0.0046904
v 0.0009303 0.0055734 -0.0042071
v 0.0009303 0.0109474 -0.0095811
v 0.0010000 0.0057213 -0.0040592
v 0.0010000 0.0110954 -0.0094332
v 0.0012092 0.0111447 -0.0093839
v 0.0012092 0.0057706 -0.0040099
v 0.0018926 0.0054352 -0.0043453
v 0.0018926 0.0108093 -0.0097193
v 0.0022174 0.0111530 -0.0093756
v 0.0022174 0.0057790 -0.0040015
v 0.0016971 0.0130025 -0.0075260
v 0.0022174 0.0124519 -0.0080767
v 0.0009184 0.0133704 -0.0071582
v -0.0016972 0.0130026 -0.0075260
v -0.0016970 0.0130025 -0.0075261
v -0.0016971 0.0106024 -0.0099261
v -0.0022174 0.0111530 -0.0093755
v -0.0009184 0.0102346 -0.0102940
v 0.0016970 0.0106025 -0.0099261
v 0.0022174 0.0124519 -0.0080766
v 0.0022174 0.0127348 -0.0083595
v 0.0024000 0.0120853 -0.0090089
v 0.0016970 0.0130025 -0.0075261
v 0.0016970 0.0132853 -0.0078089
v 0.0009185 0.0133704 -0.0071582
v 0.0009185 0.0136532 -0.0074410
v 0.0000000 0.0137824 -0.0073119
v -0.0009185 0.0136532 -0.0074410
v -0.0016970 0.0132853 -0.0078089
v -0.0022174 0.0127348 -0.0083595
v -0.0024000 0.0120853 -0.0090089
v -0.0022174 0.0111530 -0.0093756
v -0.0022174 0.0114359 -0.0096584
v -0.0016970 0.0106025 -0.0099261
v -0.0016970 0.0108853 -0.0102089
v -0.0009185 0.0102346 -0.0102940
v -0.0009185 0.0105174 -0.0105769
v 0.0000000 0.0103883 -0.0107060
v 0.0009185 0.0105174 -0.0105769
v 0.0016970 0.0108853 -0.0102089
v 0.0022174 0.0114359 -0.0096584
v 0.0016970 0.0103883 -0.0107060
v -0.0016970 0.0103883 -0.0107060
v 0.0024000 0.0132853 -0.0078089
v 0.0024000 0.0108853 -0.0102089
v -0.0016970 0.0137824 -0.0073119
v 0.0016970 0.0137824 -0.0073119
v -0.0024000 0.0108853 -0.0102089
v -0.0024000 0.0132853 -0.0078089
v 0.0000000 0.0064284 -0.0033521
v 0.0016970 0.0052284 -0.0045521
v -0.0009185 0.0048605 -0.0049200
v -0.0016970 0.0052284 -0.0045521
v -0.0022174 0.0057790 -0.0040015
v -0.0016970 0.0076284 -0.0021521
v 0.0009185 0.0079964 -0.0017841
v 0.0016970 0.0076284 -0.0021521
v 0.0022174 0.0070779 -0.0027026
v 0.0034000 0.0069259 -0.0019012
v 0.0034000 0.0049775 -0.0038495
v 0.0034000 0.0111110 -0.0099830
v 0.0034000 0.0130593 -0.0080346
v 0.0013776 0.0063960 0.0014884
v 0.0013776 0.0144893 -0.0066049
v 0.0004619 0.0145529 -0.0065414
v 0.0004619 0.0064596 0.0015519
v -0.0004617 0.0145530 -0.0065413
v -0.0004617 0.0064597 0.0015520
v -0.0013777 0.0144894 -0.0066048
v -0.0013777 0.0063961 0.0014884
v 0.0033998 0.0130593 -0.0080349
v 0.0028977 0.0131299 -0.0079643
v 0.0024719 0.0133311 -0.0077632
v 0.0020461 0.0135322 -0.0075621
v 0.0017618 0.0138333 -0.0072610
v 0.0014772 0.0141342 -0.0069600
v 0.0013774 0.0144894 -0.0066049
v 0.0024719 0.0071976 -0.0016297
v 0.0033998 0.0069258 -0.0019015
v 0.0017618 0.0076998 -0.0011275
v 0.0013774 0.0083559 -0.0004714
v 0.0024719 0.0069931 -0.0014252
v 0.0017618 0.0069128 -0.0003405
v 0.0013774 0.0066972 0.0011873
v -0.0024719 0.0133311 -0.0077632
v -0.0028977 0.0131299 -0.0079643
v -0.0033998 0.0130593 -0.0080349
v -0.0017618 0.0138333 -0.0072610
v -0.0020461 0.0135322 -0.0075621
v -0.0013774 0.0144894 -0.0066049
v -0.0014772 0.0141342 -0.0069600
v -0.0024719 0.0071976 -0.0016297
v -0.0033998 0.0069258 -0.0019015
v -0.0017618 0.0076998 -0.0011275
v -0.0013774 0.0083559 -0.0004714
v -0.0024719 0.0069931 -0.0014252
v -0.0017618 0.0069128 -0.0003405
v -0.0013774 0.0066972 0.0011873
v -0.0034000 0.0049778 -0.0038498
v -0.0034000 0.0069261 -0.0019015
v -0.0034000 0.0130596 -0.0080349
v -0.0034000 0.0111113 -0.0099832
v -0.0013776 0.0015880 -0.0033196
v -0.0013776 0.0096813 -0.0114129
v -0.0004619 0.0096178 -0.0114765
v -0.0004619 0.0015245 -0.0033832
v 0.0004617 0.0096177 -0.0114766
v 0.0004617 0.0015244 -0.0033833
v 0.0013777 0.0096812 -0.0114130
v 0.0013777 0.0015879 -0.0033197
v -0.0033998 0.0111113 -0.0099829
v -0.0028977 0.0110407 -0.0100536
v -0.0024719 0.0108396 -0.0102547
v -0.0020461 0.0106385 -0.0104558
v -0.0017618 0.0103374 -0.0107569
v -0.0014772 0.0100364 -0.0110578
v -0.0013774 0.0096813 -0.0114130
v -0.0024719 0.0047061 -0.0041212
v -0.0033998 0.0049779 -0.0038495
v -0.0017618 0.0042039 -0.0046234
v -0.0013774 0.0035478 -0.0052795
v -0.0024719 0.0045016 -0.0039167
v -0.0017618 0.0034169 -0.0038364
v -0.0013774 0.0018891 -0.0036208
v 0.0024719 0.0108396 -0.0102547
v 0.0028977 0.0110407 -0.0100536
v 0.0033998 0.0111113 -0.0099829
v 0.0017618 0.0103374 -0.0107569
v 0.0020461 0.0106385 -0.0104558
v 0.0013774 0.0096813 -0.0114130
v 0.0014772 0.0100364 -0.0110578
v 0.0024719 0.0047061 -0.0041212
v 0.0033998 0.0049779 -0.0038495
v 0.0017618 0.0042039 -0.0046234
v 0.0013774 0.0035478 -0.0052795
v 0.0024719 0.0045016 -0.0039167
v 0.0017618 0.0034169 -0.0038364
v 0.0013774 0.0018891 -0.0036208
v -0.0024719 0.0133310 -0.0077632
v 0.0024719 0.0133310 -0.0077632
v -0.0022409 0.0044000 0.0110764
v -0.0024000 0.0036000 0.0110764
v -0.0024000 0.0036000 0.0034764
v -0.0022409 0.0044000 0.0034764
v -0.0016000 0.0044000 0.0034764
v -0.0016000 0.0044000 0.0110764
v -0.0010000 0.0046000 0.0034764
v -0.0010000 0.0046000 0.0110764
v -0.0008000 0.0052000 0.0034764
v -0.0008000 0.0052000 0.0110764
v -0.0008000 0.0058409 0.0034764
v -0.0008000 0.0058409 0.0110764
v 0.0000000 0.0060000 0.0034764
v 0.0000000 0.0060000 0.0110764
v 0.0009185 0.0058174 0.0110764
v 0.0009185 0.0058174 0.0034764
v 0.0014046 0.0054926 0.0110764
v 0.0014046 0.0054926 0.0034764
v 0.0009303 0.0048092 0.0034764
v 0.0009303 0.0048092 0.0110764
v 0.0010000 0.0046000 0.0034764
v 0.0010000 0.0046000 0.0110764
v 0.0012092 0.0045303 0.0110764
v 0.0012092 0.0045303 0.0034764
v 0.0018926 0.0050046 0.0034764
v 0.0018926 0.0050046 0.0110764
v 0.0022174 0.0045185 0.0110764
v 0.0022174 0.0045185 0.0034764
v 0.0024000 0.0036000 0.0110764
v 0.0024000 0.0036000 0.0034764
v 0.0022409 0.0028000 0.0110764
v 0.0022409 0.0028000 0.0034764
v 0.0016000 0.0028000 0.0034764
v 0.0016000 0.0028000 0.0110764
v 0.0010000 0.0026000 0.0034764
v 0.0010000 0.0026000 0.0110764
v 0.0008000 0.0020000 0.0034764
v 0.0008000 0.0020000 0.0110764
v 0.0008000 0.0013591 0.0034764
v 0.0008000 0.0013591 0.0110764
v 0.0000000 0.0012000 0.0034764
v 0.0000000 0.0012000 0.0110764
v -0.0009185 0.0013826 0.0110764
v -0.0009185 0.0013826 0.0034764
v -0.0014046 0.0017074 0.0110764
v -0.0014046 0.0017074 0.0034764
v -0.0009303 0.0023908 0.0034764
v -0.0009303 0.0023908 0.0110764
v -0.0010000 0.0026000 0.0034764
v -0.0010000 0.0026000 0.0110764
v -0.0012092 0.0026697 0.0110764
v -0.0012092 0.0026697 0.0034764
v -0.0018926 0.0021954 0.0034764
v -0.0018926 0.0021954 0.0110764
v -0.0022174 0.0026815 0.0110764
v -0.0022174 0.0026815 0.0034764
v -0.0016971 0.0052971 0.0110764
v -0.0022174 0.0045184 0.0110764
v -0.0009184 0.0058174 0.0110764
v 0.0016972 0.0052972 0.0110764
v 0.0016970 0.0052970 0.0110764
v 0.0016971 0.0019029 0.0110764
v 0.0022174 0.0026816 0.0110764
v 0.0009184 0.0013826 0.0110764
v -0.0016970 0.0019030 0.0110764
v -0.0022174 0.0045185 0.0110764
v -0.0022174 0.0045185 0.0114764
v -0.0024000 0.0036000 0.0114764
v -0.0016970 0.0052970 0.0110764
v -0.0016970 0.0052970 0.0114764
v -0.0009185 0.0058174 0.0110764
v -0.0009185 0.0058174 0.0114764
v 0.0000000 0.0060000 0.0114764
v 0.0009185 0.0058174 0.0114764
v 0.0016970 0.0052970 0.0114764
v 0.0022174 0.0045185 0.0114764
v 0.0024000 0.0036000 0.0114764
v 0.0022174 0.0026815 0.0110764
v 0.0022174 0.0026815 0.0114764
v 0.0016970 0.0019030 0.0110764
v 0.0016970 0.0019030 0.0114764
v 0.0009185 0.0013826 0.0110764
v 0.0009185 0.0013826 0.0114764
v 0.0000000 0.0012000 0.0114764
v -0.0009185 0.0013826 0.0114764
v -0.0016970 0.0019030 0.0114764
v -0.0022174 0.0026815 0.0114764
v -0.0016970 0.0012000 0.0114764
v 0.0016970 0.0012000 0.0114764
v -0.0024000 0.0052970 0.0114764
v -0.0024000 0.0019030 0.0114764
v 0.0016970 0.0060000 0.0114764
v -0.0016970 0.0060000 0.0114764
v 0.0024000 0.0019030 0.0114764
v 0.0024000 0.0052970 0.0114764
v 0.0000000 0.0036000 0.0034764
v -0.0016970 0.0019030 0.0034764
v 0.0009185 0.0013826 0.0034764
v 0.0016970 0.0019030 0.0034764
v 0.0022174 0.0026815 0.0034764
v 0.0016970 0.0052970 0.0034764
v -0.0009185 0.0058174 0.0034764
v -0.0016970 0.0052970 0.0034764
v -0.0022174 0.0045185 0.0034764
v -0.0034000 0.0049777 0.0028022
v -0.0034000 0.0022223 0.0028022
v -0.0034000 0.0022223 0.0114762
v -0.0034000 0.0049777 0.0114762
v -0.0013776 0.0069998 0.0000308
v -0.0013776 0.0069998 0.0114764
v -0.0004619 0.0070896 0.0114764
v -0.0004619 0.0070896 0.0000308
v 0.0004617 0.0070898 0.0114764
v 0.0004617 0.0070898 0.0000308
v 0.0013777 0.0069999 0.0114764
v 0.0013777 0.0069999 0.0000308
v -0.0033998 0.0049774 0.0114764
v -0.0028977 0.0050773 0.0114764
v -0.0024719 0.0053617 0.0114764
v -0.0020461 0.0056461 0.0114764
v -0.0017618 0.0060720 0.0114764
v -0.0014772 0.0064976 0.0114764
v -0.0013774 0.0069998 0.0114764
v -0.0024719 0.0053617 0.0028024
v -0.0033998 0.0049774 0.0028024
v -0.0017618 0.0060720 0.0028024
v -0.0013774 0.0069998 0.0028024
v -0.0024719 0.0053617 0.0025132
v -0.0017618 0.0060720 0.0016894
v -0.0013774 0.0069998 0.0004566
v 0.0024719 0.0053617 0.0114764
v 0.0028977 0.0050773 0.0114764
v 0.0033998 0.0049774 0.0114764
v 0.0017618 0.0060720 0.0114764
v 0.0020461 0.0056461 0.0114764
v 0.0013774 0.0069998 0.0114764
v 0.0014772 0.0064976 0.0114764
v 0.0024719 0.0053617 0.0028024
v 0.0033998 0.0049774 0.0028024
v 0.0017618 0.0060720 0.0028024
v 0.0013774 0.0069998 0.0028024
v 0.0024719 0.0053617 0.0025132
v 0.0017618 0.0060720 0.0016894
v 0.0013774 0.0069998 0.0004566
v 0.0034000 0.0022223 0.0028026
v 0.0034000 0.0049777 0.0028026
v 0.0034000 0.0049777 0.0114766
v 0.0034000 0.0022223 0.0114766
v 0.0013776 0.0002002 0.0000308
v 0.0013776 0.0002002 0.0114764
v 0.0004619 0.0001104 0.0114764
v 0.0004619 0.0001104 0.0000308
v -0.0004617 0.0001102 0.0114764
v -0.0004617 0.0001102 0.0000308
v -0.0013777 0.0002001 0.0114764
v -0.0013777 0.0002001 0.0000308
v 0.0033998 0.0022226 0.0114764
v 0.0028977 0.0021227 0.0114764
v 0.0024719 0.0018383 0.0114764
v 0.0020461 0.0015539 0.0114764
v 0.0017618 0.0011280 0.0114764
v 0.0014772 0.0007024 0.0114764
v 0.0013774 0.0002002 0.0114764
v 0.0024719 0.0018383 0.0028024
v 0.0033998 0.0022226 0.0028024
v 0.0017618 0.0011280 0.0028024
v 0.0013774 0.0002002 0.0028024
v 0.0024719 0.0018383 0.0025132
v 0.0017618 0.0011280 0.0016894
v 0.0013774 0.0002002 0.0004566
v -0.0024719 0.0018383 0.0114764
v -0.0028977 0.0021227 0.0114764
v -0.0033998 0.0022226 0.0114764
v -0.0017618 0.0011280 0.0114764
v -0.0020461 0.0015539 0.0114764
v -0.0013774 0.0002002 0.0114764
v -0.0014772 0.0007024 0.0114764
v -0.0024719 0.0018383 0.0028024
v -0.0033998 0.0022226 0.0028024
v -0.0017618 0.0011280 0.0028024
v -0.0013774 0.0002002 0.0028024
v -0.0024719 0.0018383 0.0025132
v -0.0017618 0.0011280 0.0016894
v -0.0013774 0.0002002 0.0004566
v -0.0020461 0.0015538 0.0114764
v 0.0020461 0.0015538 0.0114764
v 0.0020461 0.0056462 0.0114764
v -0.0020461 0.0056462 0.0114764
v 0.0036000 0.0097516 -0.0075944
v 0.0036000 0.0083020 -0.0050136
v 0.0036000 0.0079840 -0.0053316
v 0.0036000 0.0096456 -0.0082664
v 0.0036000 0.0105648 -0.0073468
v 0.0036000 0.0102820 -0.0070640
v 0.0036000 0.0108476 -0.0064984
v 0.0036000 0.0105648 -0.0067812
v 0.0036000 0.0108476 -0.0070641
v 0.0036000 0.0111304 -0.0067812
v 0.0036000 0.0097161 -0.0064986
v 0.0036000 0.0102818 -0.0070643
v 0.0036000 0.0105647 -0.0067814
v 0.0036000 0.0099990 -0.0062158
v 0.0036000 0.0115193 -0.0077361
v 0.0036000 0.0108475 -0.0070643
v 0.0036000 0.0105647 -0.0073472
v 0.0036000 0.0112365 -0.0080189
v 0.0036000 0.0108476 -0.0070640
v 0.0036000 0.0083019 -0.0050137
v 0.0034000 0.0083019 -0.0050137
v 0.0034000 0.0079837 -0.0053319
v 0.0036000 0.0079837 -0.0053319
v 0.0036000 0.0096456 -0.0082661
v 0.0034000 0.0079840 -0.0053316
v 0.0034000 0.0096456 -0.0082661
v 0.0036000 0.0096456 -0.0082660
v 0.0034000 0.0096456 -0.0082660
v 0.0034000 0.0105648 -0.0073468
v 0.0036000 0.0112367 -0.0080187
v 0.0036000 0.0105649 -0.0073469
v 0.0034000 0.0105649 -0.0073469
v 0.0034000 0.0112367 -0.0080187
v 0.0036000 0.0115194 -0.0077358
v 0.0036000 0.0112366 -0.0080186
v 0.0034000 0.0112366 -0.0080186
v 0.0034000 0.0115194 -0.0077358
v 0.0036000 0.0108477 -0.0070641
v 0.0036000 0.0115195 -0.0077359
v 0.0034000 0.0115195 -0.0077359
v 0.0034000 0.0108477 -0.0070641
v 0.0036000 0.0111306 -0.0067814
v 0.0036000 0.0108478 -0.0070642
v 0.0034000 0.0108478 -0.0070642
v 0.0034000 0.0111306 -0.0067814
v 0.0036000 0.0108478 -0.0064986
v 0.0034000 0.0108478 -0.0064986
v 0.0036000 0.0105650 -0.0067814
v 0.0034000 0.0105650 -0.0067814
v 0.0036000 0.0099992 -0.0062156
v 0.0036000 0.0105648 -0.0067813
v 0.0034000 0.0105648 -0.0067813
v 0.0034000 0.0099992 -0.0062156
v 0.0036000 0.0097162 -0.0064986
v 0.0034000 0.0099990 -0.0062158
v 0.0034000 0.0097162 -0.0064986
v 0.0036000 0.0102820 -0.0070641
v 0.0036000 0.0097164 -0.0064984
v 0.0034000 0.0097164 -0.0064984
v 0.0034000 0.0102820 -0.0070641
v 0.0034000 0.0097516 -0.0075944
v 0.0036000 0.0097516 -0.0075945
v 0.0034000 0.0097516 -0.0075945
v 0.0034000 0.0083020 -0.0050136
v -0.0036000 0.0029500 0.0088264
v -0.0036000 0.0037500 0.0059764
v -0.0036000 0.0033000 0.0059764
v -0.0036000 0.0024000 0.0092264
v -0.0036000 0.0037000 0.0092264
v -0.0036000 0.0037000 0.0088264
v -0.0036000 0.0045000 0.0088264
v -0.0036000 0.0041000 0.0088264
v -0.0036000 0.0041000 0.0092264
v -0.0036000 0.0045000 0.0092264
v -0.0036000 0.0037000 0.0080264
v -0.0036000 0.0041000 0.0080264
v -0.0036000 0.0041000 0.0101762
v -0.0036000 0.0041000 0.0092262
v -0.0036000 0.0037000 0.0092262
v -0.0036000 0.0037000 0.0101762
v -0.0036000 0.0037502 0.0059764
v -0.0034000 0.0037502 0.0059764
v -0.0034000 0.0033002 0.0059764
v -0.0036000 0.0033002 0.0059764
v -0.0036000 0.0024000 0.0092262
v -0.0036000 0.0033000 0.0059762
v -0.0034000 0.0033000 0.0059762
v -0.0034000 0.0024000 0.0092262
v -0.0034000 0.0024000 0.0092264
v -0.0034000 0.0037000 0.0092264
v -0.0034000 0.0037000 0.0092262
v -0.0034000 0.0037000 0.0101762
v -0.0036000 0.0041000 0.0101764
v -0.0036000 0.0037000 0.0101764
v -0.0034000 0.0037000 0.0101764
v -0.0034000 0.0041000 0.0101764
v -0.0034000 0.0041000 0.0101762
v -0.0034000 0.0041000 0.0092262
v -0.0034000 0.0041000 0.0092264
v -0.0034000 0.0045000 0.0092264
v -0.0034000 0.0045000 0.0088264
v -0.0034000 0.0041000 0.0088264
v -0.0034000 0.0041000 0.0080264
v -0.0034000 0.0037000 0.0080264
v -0.0034000 0.0037000 0.0088264
v -0.0036000 0.0029502 0.0088264
v -0.0036000 0.0037002 0.0088264
v -0.0034000 0.0037002 0.0088264
v -0.0034000 0.0029502 0.0088264
v -0.0036000 0.0029500 0.0088262
v -0.0034000 0.0029500 0.0088262
v -0.0034000 0.0037500 0.0059762
v -0.0036000 0.0037500 0.0059762
f 1 2 3
f 4 1 3
f 2 5 6
f 3 2 6
f 5 7 8
f 6 5 8
f 7 9 10
f 8 7 10
f 9 11 12
f 10 9 12
f 11 13 14
f 12 11 14
f 13 15 16
f 14 13 16
f 15 17 18
f 16 15 18
f 17 19 20
f 18 17 20
f 19 21 22
f 20 19 22
f 21 23 24
f 22 21 24
f 23 25 26
f 24 23 26
f 25 27 28
f 26 25 28
f 27 29 30
f 28 27 30
f 29 31 32
f 30 29 32
f 31 1 4
f 32 31 4
f 26 28 33
f 26 33 34
f 28 30 35
f 28 35 33
f 30 32 36
f 30 36 35
f 32 4 37
f 32 37 36
f 4 3 38
f 4 38 37
f 3 6 39
f 3 39 38
f 6 8 40
f 6 40 39
f 8 10 41
f 8 41 40
f 10 12 42
f 10 42 41
f 12 14 43
f 12 43 42
f 14 16 44
f 14 44 43
f 16 18 45
f 16 45 44
f 18 20 46
f 18 46 45
f 20 22 47
f 20 47 46
f 22 24 48
f 22 48 47
f 24 26 34
f 24 34 48
f 49 50 48
f 49 48 34
f 50 51 47
f 50 47 48
f 51 52 46
f 51 46 47
f 52 53 45
f 52 45 46
f 53 54 44
f 53 44 45
f 54 55 43
f 54 43 44
f 55 56 42
f 55 42 43
f 56 57 41
f 56 41 42
f 57 58 40
f 57 40 41
f 58 59 39
f 58 39 40
f 59 60 38
f 59 38 39
f 60 61 37
f 60 37 38
f 61 62 36
f 61 36 37
f 62 63 35
f 62 35 36
f 63 64 33
f 63 33 35
f 64 49 34
f 64 34 33
f 65 27 25
f 66 65 25
f 67 29 27
f 65 67 27
f 68 31 29
f 67 68 29
f 69 1 31
f 68 69 31
f 70 2 1
f 69 70 1
f 71 5 2
f 70 71 2
f 72 7 5
f 71 72 5
f 73 9 7
f 72 73 7
f 74 11 9
f 73 74 9
f 75 13 11
f 74 75 11
f 76 15 13
f 75 76 13
f 77 17 15
f 76 77 15
f 78 19 17
f 77 78 17
f 79 21 19
f 78 79 19
f 80 23 21
f 79 80 21
f 66 25 23
f 80 66 23
f 81 82 83
f 81 83 84
f 82 85 86
f 82 86 83
f 85 87 88
f 85 88 86
f 87 89 90
f 87 90 88
f 89 91 92
f 89 92 90
f 91 93 94
f 91 94 92
f 93 95 96
f 93 96 94
f 95 97 98
f 95 98 96
f 97 99 100
f 97 100 98
f 99 101 102
f 99 102 100
f 101 103 104
f 101 104 102
f 103 105 106
f 103 106 104
f 105 107 108
f 105 108 106
f 107 109 110
f 107 110 108
f 109 111 112
f 109 112 110
f 111 81 84
f 111 84 112
f 113 70 69
f 113 69 114
f 115 71 70
f 115 70 113
f 116 72 71
f 116 71 115
f 117 73 72
f 117 72 116
f 118 74 73
f 118 73 117
f 119 75 74
f 119 74 118
f 120 76 75
f 120 75 119
f 121 77 76
f 121 76 120
f 122 78 77
f 122 77 121
f 123 79 78
f 123 78 122
f 124 80 79
f 124 79 123
f 125 66 80
f 125 80 124
f 126 65 66
f 126 66 125
f 127 67 65
f 127 65 126
f 128 68 67
f 128 67 127
f 114 69 68
f 114 68 128
f 83 126 125
f 84 83 125
f 86 127 126
f 83 86 126
f 88 128 127
f 86 88 127
f 90 114 128
f 88 90 128
f 92 113 114
f 90 92 114
f 94 115 113
f 92 94 113
f 96 116 115
f 94 96 115
f 98 117 116
f 96 98 116
f 100 118 117
f 98 100 117
f 102 119 118
f 100 102 118
f 104 120 119
f 102 104 119
f 106 121 120
f 104 106 120
f 108 122 121
f 106 108 121
f 110 123 122
f 108 110 122
f 112 124 123
f 110 112 123
f 84 125 124
f 112 84 124
f 64 82 81
f 49 64 81
f 63 85 82
f 64 63 82
f 62 87 85
f 63 62 85
f 61 89 87
f 62 61 87
f 60 91 89
f 61 60 89
f 59 93 91
f 60 59 91
f 58 95 93
f 59 58 93
f 57 97 95
f 58 57 95
f 56 99 97
f 57 56 97
f 55 101 99
f 56 55 99
f 54 103 101
f 55 54 101
f 53 105 103
f 54 53 103
f 52 107 105
f 53 52 105
f 51 109 107
f 52 51 107
f 50 111 109
f 51 50 109
f 49 81 111
f 50 49 111
f 129 130 131
f 132 129 131
f 129 132 133
f 134 129 133
f 135 136 134
f 133 135 134
f 135 137 138
f 136 135 138
f 137 139 140
f 138 137 140
f 141 142 140
f 139 141 140
f 143 142 141
f 144 143 141
f 145 143 144
f 146 145 144
f 147 148 145
f 146 147 145
f 147 149 150
f 148 147 150
f 151 150 149
f 152 151 149
f 151 152 153
f 154 151 153
f 155 154 153
f 156 155 153
f 157 155 156
f 158 157 156
f 159 157 158
f 160 159 158
f 159 160 161
f 162 159 161
f 163 164 162
f 161 163 162
f 163 165 166
f 164 163 166
f 165 167 168
f 166 165 168
f 169 170 168
f 167 169 168
f 171 170 169
f 172 171 169
f 173 171 172
f 174 173 172
f 175 176 173
f 174 175 173
f 175 177 178
f 176 175 178
f 179 178 177
f 180 179 177
f 179 180 181
f 182 179 181
f 183 182 181
f 184 183 181
f 130 183 184
f 131 130 184
f 185 186 136
f 187 185 136
f 129 134 136
f 186 129 136
f 187 136 138
f 140 187 138
f 150 151 154
f 188 150 154
f 189 145 148
f 150 189 148
f 190 191 164
f 192 190 164
f 159 162 164
f 191 159 164
f 192 164 166
f 168 192 166
f 178 179 182
f 193 178 182
f 193 173 176
f 178 193 176
f 194 195 196
f 130 194 196
f 197 198 195
f 194 197 195
f 199 200 198
f 197 199 198
f 142 201 200
f 199 142 200
f 143 202 201
f 142 143 201
f 189 203 202
f 143 189 202
f 155 204 203
f 189 155 203
f 157 205 204
f 155 157 204
f 206 207 205
f 157 206 205
f 208 209 207
f 206 208 207
f 210 211 209
f 208 210 209
f 170 212 211
f 210 170 211
f 171 213 212
f 170 171 212
f 193 214 213
f 171 193 213
f 183 215 214
f 193 183 214
f 130 196 215
f 183 130 215
f 212 213 216
f 213 214 216
f 217 211 212
f 217 209 211
f 196 195 218
f 195 198 218
f 219 215 196
f 219 214 215
f 201 202 220
f 202 203 220
f 221 200 201
f 221 198 200
f 205 207 222
f 207 209 222
f 223 204 205
f 223 203 204
f 224 131 184
f 224 184 225
f 224 225 172
f 224 172 169
f 224 169 226
f 224 226 227
f 224 227 228
f 224 228 158
f 224 158 156
f 224 156 229
f 224 229 144
f 224 144 141
f 224 141 230
f 224 230 231
f 224 231 232
f 224 232 131
f 233 234 235
f 236 233 235
f 237 238 239
f 240 237 239
f 240 239 241
f 242 240 241
f 242 241 243
f 244 242 243
f 241 239 238
f 243 241 238
f 245 246 247
f 247 248 249
f 249 250 251
f 245 247 252
f 253 245 252
f 247 249 254
f 252 247 254
f 249 251 255
f 254 249 255
f 252 256 253
f 257 256 252
f 254 257 252
f 258 257 254
f 255 258 254
f 259 260 261
f 262 263 259
f 264 265 262
f 266 259 261
f 266 261 267
f 268 262 259
f 268 259 266
f 269 264 262
f 269 262 268
f 267 270 266
f 266 270 271
f 266 271 268
f 268 271 272
f 268 272 269
f 273 274 275
f 276 273 275
f 277 278 279
f 280 277 279
f 280 279 281
f 282 280 281
f 282 281 283
f 284 282 283
f 281 279 278
f 283 281 278
f 285 286 287
f 287 288 289
f 289 290 291
f 285 287 292
f 293 285 292
f 287 289 294
f 292 287 294
f 289 291 295
f 294 289 295
f 292 296 293
f 297 296 292
f 294 297 292
f 298 297 294
f 295 298 294
f 299 300 301
f 302 303 299
f 304 305 302
f 306 299 301
f 306 301 307
f 308 302 299
f 308 299 306
f 309 304 302
f 309 302 308
f 307 310 306
f 306 310 311
f 306 311 308
f 308 311 312
f 308 312 309
f 235 196 246
f 236 235 246
f 196 235 300
f 196 300 299
f 219 196 299
f 219 299 303
f 214 219 303
f 214 303 302
f 216 214 302
f 212 216 302
f 305 212 302
f 305 283 291
f 212 305 291
f 212 291 290
f 289 217 212
f 290 289 212
f 217 289 288
f 209 217 288
f 209 288 287
f 222 209 287
f 286 285 261
f 205 286 261
f 205 222 287
f 286 205 287
f 313 223 205
f 260 313 205
f 205 261 260
f 203 263 262
f 220 203 262
f 263 203 223
f 313 263 223
f 201 220 262
f 265 201 262
f 238 201 265
f 264 238 265
f 201 238 250
f 249 221 201
f 250 249 201
f 198 248 314
f 218 198 314
f 248 198 221
f 249 248 221
f 314 246 196
f 218 314 196
f 315 316 317
f 318 315 317
f 315 318 319
f 320 315 319
f 321 322 320
f 319 321 320
f 321 323 324
f 322 321 324
f 323 325 326
f 324 323 326
f 327 328 326
f 325 327 326
f 329 328 327
f 330 329 327
f 331 329 330
f 332 331 330
f 333 334 331
f 332 333 331
f 333 335 336
f 334 333 336
f 337 336 335
f 338 337 335
f 337 338 339
f 340 337 339
f 341 340 339
f 342 341 339
f 343 341 342
f 344 343 342
f 345 343 344
f 346 345 344
f 345 346 347
f 348 345 347
f 349 350 348
f 347 349 348
f 349 351 352
f 350 349 352
f 351 353 354
f 352 351 354
f 355 356 354
f 353 355 354
f 357 356 355
f 358 357 355
f 359 357 358
f 360 359 358
f 361 362 359
f 360 361 359
f 361 363 364
f 362 361 364
f 365 364 363
f 366 365 363
f 365 366 367
f 368 365 367
f 369 368 367
f 370 369 367
f 316 369 370
f 317 316 370
f 371 372 322
f 373 371 322
f 315 320 322
f 372 315 322
f 373 322 324
f 326 373 324
f 336 337 340
f 374 336 340
f 375 331 334
f 336 375 334
f 376 377 350
f 378 376 350
f 345 348 350
f 377 345 350
f 378 350 352
f 354 378 352
f 364 365 368
f 379 364 368
f 379 359 362
f 364 379 362
f 380 381 382
f 316 380 382
f 383 384 381
f 380 383 381
f 385 386 384
f 383 385 384
f 328 387 386
f 385 328 386
f 329 388 387
f 328 329 387
f 375 389 388
f 329 375 388
f 341 390 389
f 375 341 389
f 343 391 390
f 341 343 390
f 392 393 391
f 343 392 391
f 394 395 393
f 392 394 393
f 396 397 395
f 394 396 395
f 356 398 397
f 396 356 397
f 357 399 398
f 356 357 398
f 379 400 399
f 357 379 399
f 369 401 400
f 379 369 400
f 316 382 401
f 369 316 401
f 398 399 402
f 399 400 402
f 403 397 398
f 403 395 397
f 382 381 404
f 381 384 404
f 405 401 382
f 405 400 401
f 387 388 406
f 388 389 406
f 407 386 387
f 407 384 386
f 391 393 408
f 393 395 408
f 409 390 391
f 409 389 390
f 410 317 370
f 410 370 411
f 410 411 358
f 410 358 355
f 410 355 412
f 410 412 413
f 410 413 414
f 410 414 344
f 410 344 342
f 410 342 415
f 410 415 330
f 410 330 327
f 410 327 416
f 410 416 417
f 410 417 418
f 410 418 317
f 419 420 421
f 422 419 421
f 423 424 425
f 426 423 425
f 426 425 427
f 428 426 427
f 428 427 429
f 430 428 429
f 427 425 424
f 429 427 424
f 431 432 433
f 433 434 435
f 435 436 437
f 431 433 438
f 439 431 438
f 433 435 440
f 438 433 440
f 435 437 441
f 440 435 441
f 438 442 439
f 443 442 438
f 440 443 438
f 444 443 440
f 441 444 440
f 445 446 447
f 448 449 445
f 450 451 448
f 452 445 447
f 452 447 453
f 454 448 445
f 454 445 452
f 455 450 448
f 455 448 454
f 453 456 452
f 452 456 457
f 452 457 454
f 454 457 458
f 454 458 455
f 459 460 461
f 462 459 461
f 463 464 465
f 466 463 465
f 466 465 467
f 468 466 467
f 468 467 469
f 470 468 469
f 467 465 464
f 469 467 464
f 471 472 473
f 473 474 475
f 475 476 477
f 471 473 478
f 479 471 478
f 473 475 480
f 478 473 480
f 475 477 481
f 480 475 481
f 478 482 479
f 483 482 478
f 480 483 478
f 484 483 480
f 481 484 480
f 485 486 487
f 488 489 485
f 490 491 488
f 492 485 487
f 492 487 493
f 494 488 485
f 494 485 492
f 495 490 488
f 495 488 494
f 493 496 492
f 492 496 497
f 492 497 494
f 494 497 498
f 494 498 495
f 421 382 432
f 422 421 432
f 382 421 486
f 382 486 485
f 405 382 485
f 405 485 499
f 400 405 499
f 400 499 488
f 402 400 488
f 398 402 488
f 491 398 488
f 491 469 477
f 398 491 477
f 398 477 476
f 475 403 398
f 476 475 398
f 403 475 500
f 395 403 500
f 395 500 473
f 408 395 473
f 472 471 447
f 391 472 447
f 391 408 473
f 472 391 473
f 445 409 391
f 446 445 391
f 391 447 446
f 389 501 448
f 406 389 448
f 501 389 409
f 445 501 409
f 387 406 448
f 451 387 448
f 424 387 451
f 450 424 451
f 387 424 436
f 435 407 387
f 436 435 387
f 384 502 433
f 404 384 433
f 502 384 407
f 435 502 407
f 433 432 382
f 404 433 382
f 503 504 505
f 503 505 506
f 506 507 508
f 506 508 503
f 509 510 511
f 509 511 512
f 513 514 515
f 513 515 516
f 517 518 519
f 517 519 520
f 508 507 521
f 508 521 510
f 522 523 524
f 522 524 525
f 526 505 527
f 526 527 528
f 507 529 530
f 507 530 531
f 532 533 534
f 532 534 535
f 536 537 538
f 536 538 539
f 540 541 542
f 540 542 543
f 544 545 546
f 544 546 547
f 548 544 547
f 548 547 549
f 550 548 549
f 550 549 551
f 552 553 554
f 552 554 555
f 556 516 557
f 556 557 558
f 559 560 561
f 559 561 562
f 503 559 562
f 503 562 563
f 564 565 566
f 564 566 504
f 567 568 569
f 567 569 570
f 570 571 572
f 570 572 567
f 573 574 575
f 573 575 576
f 577 572 574
f 577 574 578
f 579 580 581
f 579 581 582
f 572 571 575
f 572 575 574
f 583 584 585
f 583 585 586
f 587 588 589
f 587 589 590
f 571 570 591
f 571 591 592
f 582 581 593
f 582 593 594
f 595 596 597
f 595 597 598
f 580 579 599
f 580 599 600
f 576 575 601
f 576 601 602
f 573 576 602
f 573 602 603
f 574 573 603
f 574 603 604
f 578 574 604
f 578 604 605
f 577 578 605
f 577 605 606
f 572 577 606
f 572 606 607
f 608 609 610
f 608 610 611
f 612 613 614
f 612 614 615
