# Botball Lab: metres, +Y up, centred XZ, base Y=0
s off
v 0.0009184 0.0027547 0.0040000
v 0.0016971 0.0032749 0.0040000
v 0.0022173 0.0040536 0.0040000
v -0.0022173 0.0040536 0.0040000
v -0.0016971 0.0032749 0.0040000
v -0.0009184 0.0027547 0.0040000
v -0.0009184 0.0071893 0.0040000
v -0.0016971 0.0066691 0.0040000
v -0.0022173 0.0058904 0.0040000
v 0.0022173 0.0058904 0.0040000
v 0.0016971 0.0066691 0.0040000
v 0.0009184 0.0071893 0.0040000
v 0.0010000 0.0039720 0.0040000
v 0.0022409 0.0041720 0.0040000
v 0.0016000 0.0041720 0.0040000
v 0.0008000 0.0033720 0.0040000
v 0.0008000 0.0027311 0.0040000
v -0.0010000 0.0039720 0.0040000
v -0.0008000 0.0027311 0.0040000
v -0.0008000 0.0033720 0.0040000
v -0.0016000 0.0041720 0.0040000
v -0.0022409 0.0041720 0.0040000
v -0.0022409 0.0057720 0.0040000
v -0.0016000 0.0057720 0.0040000
v -0.0010000 0.0059720 0.0040000
v -0.0008000 0.0065720 0.0040000
v -0.0008000 0.0072129 0.0040000
v 0.0010000 0.0059720 0.0040000
v 0.0008000 0.0072129 0.0040000
v 0.0008000 0.0065720 0.0040000
v 0.0016000 0.0057720 0.0040000
v 0.0022409 0.0057720 0.0040000
v 0.0009184 0.0071893 -0.0040000
v 0.0016971 0.0066691 -0.0040000
v 0.0022173 0.0058904 -0.0040000
v -0.0022173 0.0058904 -0.0040000
v -0.0016971 0.0066691 -0.0040000
v -0.0009184 0.0071893 -0.0040000
v -0.0009184 0.0027547 -0.0040000
v -0.0016971 0.0032749 -0.0040000
v -0.0022173 0.0040536 -0.0040000
v 0.0022173 0.0040536 -0.0040000
v 0.0016971 0.0032749 -0.0040000
v 0.0009184 0.0027547 -0.0040000
v 0.0010000 0.0059720 -0.0040000
v 0.0022409 0.0057720 -0.0040000
v 0.0016000 0.0057720 -0.0040000
v 0.0008000 0.0065720 -0.0040000
v 0.0008000 0.0072129 -0.0040000
v -0.0010000 0.0059720 -0.0040000
v -0.0008000 0.0072129 -0.0040000
v -0.0008000 0.0065720 -0.0040000
v -0.0016000 0.0057720 -0.0040000
v -0.0022409 0.0057720 -0.0040000
v -0.0022409 0.0041720 -0.0040000
v -0.0016000 0.0041720 -0.0040000
v -0.0010000 0.0039720 -0.0040000
v -0.0008000 0.0033720 -0.0040000
v -0.0008000 0.0027311 -0.0040000
v 0.0010000 0.0039720 -0.0040000
v 0.0008000 0.0027311 -0.0040000
v 0.0008000 0.0033720 -0.0040000
v 0.0016000 0.0041720 -0.0040000
v 0.0022409 0.0041720 -0.0040000
v 0.0024000 0.0049720 0.0040000
v 0.0024000 0.0049720 -0.0040000
v 0.0000000 0.0025720 -0.0040000
v 0.0000000 0.0025720 0.0040000
v -0.0024000 0.0049720 0.0040000
v -0.0024000 0.0049720 -0.0040000
v 0.0000000 0.0073720 -0.0040000
v 0.0000000 0.0073720 0.0040000
v 0.0025869 0.0039005 0.0040000
v 0.0028000 0.0049720 0.0040000
v 0.0016970 0.0032750 0.0040000
v 0.0019799 0.0029921 0.0040000
v 0.0010715 0.0023851 0.0040000
v 0.0000000 0.0021720 0.0040000
v -0.0010715 0.0023851 0.0040000
v -0.0016970 0.0032750 0.0040000
v -0.0019799 0.0029921 0.0040000
v -0.0025869 0.0039005 0.0040000
v -0.0028000 0.0049720 0.0040000
v -0.0025869 0.0060435 0.0040000
v -0.0016970 0.0066690 0.0040000
v -0.0019799 0.0069519 0.0040000
v -0.0010715 0.0075589 0.0040000
v 0.0000000 0.0077720 0.0040000
v 0.0010715 0.0075589 0.0040000
v 0.0016970 0.0066690 0.0040000
v 0.0019799 0.0069519 0.0040000
v 0.0025869 0.0060435 0.0040000
v 0.0025869 0.0039004 0.0040000
v 0.0027717 0.0038239 0.0040000
v 0.0030000 0.0049720 0.0040000
v 0.0021213 0.0028507 0.0040000
v 0.0010716 0.0023851 0.0040000
v 0.0011481 0.0022003 0.0040000
v 0.0000000 0.0019720 0.0040000
v -0.0010716 0.0023851 0.0040000
v -0.0011481 0.0022003 0.0040000
v -0.0021213 0.0028507 0.0040000
v -0.0025869 0.0039004 0.0040000
v -0.0027717 0.0038239 0.0040000
v -0.0030000 0.0049720 0.0040000
v -0.0025869 0.0060436 0.0040000
v -0.0027717 0.0061201 0.0040000
v -0.0021213 0.0070933 0.0040000
v -0.0010716 0.0075589 0.0040000
v -0.0011481 0.0077437 0.0040000
v 0.0000000 0.0079720 0.0040000
v 0.0010716 0.0075589 0.0040000
v 0.0011481 0.0077437 0.0040000
v 0.0021213 0.0070933 0.0040000
v 0.0025869 0.0060436 0.0040000
v 0.0027717 0.0061201 0.0040000
v 0.0028000 0.0049720 -0.0040000
v 0.0025869 0.0039005 -0.0040000
v 0.0019799 0.0029921 -0.0040000
v 0.0016970 0.0032750 -0.0040000
v 0.0010715 0.0023851 -0.0040000
v 0.0000000 0.0021720 -0.0040000
v -0.0010715 0.0023851 -0.0040000
v -0.0019799 0.0029921 -0.0040000
v -0.0016970 0.0032750 -0.0040000
v -0.0025869 0.0039005 -0.0040000
v -0.0028000 0.0049720 -0.0040000
v -0.0025869 0.0060435 -0.0040000
v -0.0019799 0.0069519 -0.0040000
v -0.0016970 0.0066690 -0.0040000
v -0.0010715 0.0075589 -0.0040000
v 0.0000000 0.0077720 -0.0040000
v 0.0010715 0.0075589 -0.0040000
v 0.0019799 0.0069519 -0.0040000
v 0.0016970 0.0066690 -0.0040000
v 0.0025869 0.0060435 -0.0040000
v 0.0030000 0.0049720 -0.0040000
v 0.0027717 0.0038239 -0.0040000
v 0.0025869 0.0039004 -0.0040000
v 0.0021213 0.0028507 -0.0040000
v 0.0011481 0.0022003 -0.0040000
v 0.0010716 0.0023851 -0.0040000
v 0.0000000 0.0019720 -0.0040000
v -0.0011481 0.0022003 -0.0040000
v -0.0010716 0.0023851 -0.0040000
v -0.0021213 0.0028507 -0.0040000
v -0.0027717 0.0038239 -0.0040000
v -0.0025869 0.0039004 -0.0040000
v -0.0030000 0.0049720 -0.0040000
v -0.0027717 0.0061201 -0.0040000
v -0.0025869 0.0060436 -0.0040000
v -0.0021213 0.0070933 -0.0040000
v -0.0011481 0.0077437 -0.0040000
v -0.0010716 0.0075589 -0.0040000
v 0.0000000 0.0079720 -0.0040000
v 0.0011481 0.0077437 -0.0040000
v 0.0010716 0.0075589 -0.0040000
v 0.0021213 0.0070933 -0.0040000
v 0.0027717 0.0061201 -0.0040000
v 0.0025869 0.0060436 -0.0040000
v -0.0002800 0.0099440 -0.0019000
v -0.0002800 0.0099440 0.0019000
v 0.0002800 0.0099440 0.0019000
v 0.0002800 0.0099440 -0.0019000
v 0.0006000 0.0091320 0.0019000
v 0.0006000 0.0091320 -0.0019000
v 0.0006000 0.0086120 -0.0019000
v 0.0006000 0.0086120 0.0019000
v 0.0005400 0.0078648 0.0019000
v 0.0005400 0.0078648 -0.0019000
v -0.0006000 0.0091320 -0.0019000
v -0.0006000 0.0091320 0.0019000
v -0.0005400 0.0078648 0.0019000
v -0.0006000 0.0086120 0.0019000
v -0.0006000 0.0086120 -0.0019000
v -0.0005400 0.0078648 -0.0019000
v 0.0000000 0.0079720 0.0019000
v 0.0000000 0.0079720 -0.0019000
v -0.0037136 0.0082896 -0.0019000
v -0.0037136 0.0082896 0.0019000
v -0.0033176 0.0086856 0.0019000
v -0.0033176 0.0086856 -0.0019000
v -0.0025173 0.0083377 0.0019000
v -0.0025173 0.0083377 -0.0019000
v -0.0021497 0.0079701 -0.0019000
v -0.0021497 0.0079701 0.0019000
v -0.0016638 0.0073994 0.0019000
v -0.0016638 0.0073994 -0.0019000
v -0.0033657 0.0074893 -0.0019000
v -0.0033657 0.0074893 0.0019000
v -0.0024274 0.0066358 0.0019000
v -0.0029981 0.0071217 0.0019000
v -0.0029981 0.0071217 -0.0019000
v -0.0024274 0.0066358 -0.0019000
v -0.0021214 0.0070934 0.0019000
v -0.0021214 0.0070934 -0.0019000
v -0.0049720 0.0046920 -0.0019000
v -0.0049720 0.0046920 0.0019000
v -0.0049720 0.0052520 0.0019000
v -0.0049720 0.0052520 -0.0019000
v -0.0041600 0.0055720 0.0019000
v -0.0041600 0.0055720 -0.0019000
v -0.0036400 0.0055720 -0.0019000
v -0.0036400 0.0055720 0.0019000
v -0.0028928 0.0055120 0.0019000
v -0.0028928 0.0055120 -0.0019000
v -0.0041600 0.0043720 -0.0019000
v -0.0041600 0.0043720 0.0019000
v -0.0028928 0.0044320 0.0019000
v -0.0036400 0.0043720 0.0019000
v -0.0036400 0.0043720 -0.0019000
v -0.0028928 0.0044320 -0.0019000
v -0.0030000 0.0049720 0.0019000
v -0.0030000 0.0049720 -0.0019000
v -0.0033176 0.0012584 -0.0019000
v -0.0033176 0.0012584 0.0019000
v -0.0037136 0.0016544 0.0019000
v -0.0037136 0.0016544 -0.0019000
v -0.0033657 0.0024547 0.0019000
v -0.0033657 0.0024547 -0.0019000
v -0.0029981 0.0028223 -0.0019000
v -0.0029981 0.0028223 0.0019000
v -0.0024274 0.0033082 0.0019000
v -0.0024274 0.0033082 -0.0019000
v -0.0025173 0.0016063 -0.0019000
v -0.0025173 0.0016063 0.0019000
v -0.0016638 0.0025446 0.0019000
v -0.0021497 0.0019739 0.0019000
v -0.0021497 0.0019739 -0.0019000
v -0.0016638 0.0025446 -0.0019000
v -0.0021214 0.0028506 0.0019000
v -0.0021214 0.0028506 -0.0019000
v 0.0002800 0.0000000 -0.0019000
v 0.0002800 0.0000000 0.0019000
v -0.0002800 0.0000000 0.0019000
v -0.0002800 0.0000000 -0.0019000
v -0.0006000 0.0008120 0.0019000
v -0.0006000 0.0008120 -0.0019000
v -0.0006000 0.0013320 -0.0019000
v -0.0006000 0.0013320 0.0019000
v -0.0005400 0.0020792 0.0019000
v -0.0005400 0.0020792 -0.0019000
v 0.0006000 0.0008120 -0.0019000
v 0.0006000 0.0008120 0.0019000
v 0.0005400 0.0020792 0.0019000
v 0.0006000 0.0013320 0.0019000
v 0.0006000 0.0013320 -0.0019000
v 0.0005400 0.0020792 -0.0019000
v 0.0000000 0.0019720 0.0019000
v 0.0000000 0.0019720 -0.0019000
v 0.0037136 0.0016544 -0.0019000
v 0.0037136 0.0016544 0.0019000
v 0.0033176 0.0012584 0.0019000
v 0.0033176 0.0012584 -0.0019000
v 0.0025173 0.0016063 0.0019000
v 0.0025173 0.0016063 -0.0019000
v 0.0021497 0.0019739 -0.0019000
v 0.0021497 0.0019739 0.0019000
v 0.0016638 0.0025446 0.0019000
v 0.0016638 0.0025446 -0.0019000
v 0.0033657 0.0024547 -0.0019000
v 0.0033657 0.0024547 0.0019000
v 0.0024274 0.0033082 0.0019000
v 0.0029981 0.0028223 0.0019000
v 0.0029981 0.0028223 -0.0019000
v 0.0024274 0.0033082 -0.0019000
v 0.0021214 0.0028506 0.0019000
v 0.0021214 0.0028506 -0.0019000
v 0.0049720 0.0052520 -0.0019000
v 0.0049720 0.0052520 0.0019000
v 0.0049720 0.0046920 0.0019000
v 0.0049720 0.0046920 -0.0019000
v 0.0041600 0.0043720 0.0019000
v 0.0041600 0.0043720 -0.0019000
v 0.0036400 0.0043720 -0.0019000
v 0.0036400 0.0043720 0.0019000
v 0.0028928 0.0044320 0.0019000
v 0.0028928 0.0044320 -0.0019000
v 0.0041600 0.0055720 -0.0019000
v 0.0041600 0.0055720 0.0019000
v 0.0028928 0.0055120 0.0019000
v 0.0036400 0.0055720 0.0019000
v 0.0036400 0.0055720 -0.0019000
v 0.0028928 0.0055120 -0.0019000
v 0.0030000 0.0049720 0.0019000
v 0.0030000 0.0049720 -0.0019000
v 0.0033176 0.0086856 -0.0019000
v 0.0033176 0.0086856 0.0019000
v 0.0037136 0.0082896 0.0019000
v 0.0037136 0.0082896 -0.0019000
v 0.0033657 0.0074893 0.0019000
v 0.0033657 0.0074893 -0.0019000
v 0.0029981 0.0071217 -0.0019000
v 0.0029981 0.0071217 0.0019000
v 0.0024274 0.0066358 0.0019000
v 0.0024274 0.0066358 -0.0019000
v 0.0025173 0.0083377 -0.0019000
v 0.0025173 0.0083377 0.0019000
v 0.0016638 0.0073994 0.0019000
v 0.0021497 0.0079701 0.0019000
v 0.0021497 0.0079701 -0.0019000
v 0.0016638 0.0073994 -0.0019000
v 0.0021214 0.0070934 0.0019000
v 0.0021214 0.0070934 -0.0019000
vn 0.0 0.0 1.0
vn 0.0 0.0 -1.0
vn -0.9807923 0.1950551 0.0
vn -0.9978099 -0.0661465 0.0
vn -0.9978099 0.0661465 0.0
vn 0.0 1.0 0.0
vn -0.1591199 0.9872593 0.0
vn -0.3162278 0.9486833 0.0
vn -0.9771979 0.2123305 0.0
vn -0.9486833 0.3162278 0.0
vn -0.9943996 0.105686 0.0
vn -1.0 0.0 0.0
vn -0.1950551 0.9807923 0.0
vn 0.1950551 0.9807923 0.0
vn 1.0 0.0 0.0
vn 0.9872593 0.1591199 0.0
vn 0.9486833 0.3162278 0.0
vn 0.2123305 0.9771979 0.0
vn 0.3162278 0.9486833 0.0
vn 0.105686 0.9943996 0.0
vn 0.9978099 0.0661465 0.0
vn 0.9807923 0.1950551 0.0
vn 0.9978099 -0.0661465 0.0
vn 0.9807923 -0.1950551 0.0
vn 0.105686 -0.9943996 0.0
vn 0.0 -1.0 0.0
vn 0.2123305 -0.9771979 0.0
vn 0.3162278 -0.9486833 0.0
vn 0.9771979 -0.2123305 0.0
vn 0.9486833 -0.3162278 0.0
vn 0.9943996 -0.105686 0.0
vn 0.1950551 -0.9807923 0.0
vn -0.1950551 -0.9807923 0.0
vn -0.9943996 -0.105686 0.0
vn -0.9771979 -0.2123305 0.0
vn -0.9486833 -0.3162278 0.0
vn -0.2123305 -0.9771979 0.0
vn -0.3162278 -0.9486833 0.0
vn -0.105686 -0.9943996 0.0
vn -0.9807923 -0.1950551 0.0
vn 0.9471778 -0.3207089 0.0
vn 0.8965206 -0.443002 0.0
vn 0.9978105 -0.0661383 0.0
vn 0.9978105 0.0661383 0.0
vn 0.7523182 -0.6587999 0.0
vn 0.6587999 -0.7523182 0.0
vn 0.443002 -0.8965206 0.0
vn 0.3207089 -0.9471778 0.0
vn 0.0661383 -0.9978105 0.0
vn -0.0661383 -0.9978105 0.0
vn -0.3207089 -0.9471778 0.0
vn -0.443002 -0.8965206 0.0
vn -0.6587999 -0.7523182 0.0
vn -0.7523182 -0.6587999 0.0
vn -0.8965206 -0.443002 0.0
vn -0.9471778 -0.3207089 0.0
vn -0.9978105 -0.0661383 0.0
vn -0.9978105 0.0661383 0.0
vn -0.9471778 0.3207089 0.0
vn -0.8965206 0.443002 0.0
vn -0.7523182 0.6587999 0.0
vn -0.6587999 0.7523182 0.0
vn -0.443002 0.8965206 0.0
vn -0.3207089 0.9471778 0.0
vn -0.0661383 0.9978105 0.0
vn 0.0661383 0.9978105 0.0
vn 0.3207089 0.9471778 0.0
vn 0.443002 0.8965206 0.0
vn 0.6587999 0.7523182 0.0
vn 0.7523182 0.6587999 0.0
vn 0.8965206 0.443002 0.0
vn 0.9471778 0.3207089 0.0
vn 0.930361 0.3666447 0.0
vn 0.9853986 0.1702633 0.0
vn 0.958219 0.2860355 0.0
vn 0.9988809 -0.0472955 0.0
vn 0.9967915 -0.0800421 0.0
vn -0.9723343 0.2335938 0.0
vn -0.930361 0.3666447 0.0
vn -0.9967915 -0.0800421 0.0
vn -0.9994369 -0.0335532 0.0
vn -0.9982304 -0.0594657 0.0
vn -0.7071068 0.7071068 0.0
vn 0.3986716 0.9170937 0.0
vn 0.5764053 0.817164 0.0
vn 0.4753469 0.8797985 0.0
vn 0.7397438 0.6728886 0.0
vn 0.7614091 0.6482717 0.0
vn -0.852702 -0.5223977 0.0
vn -0.9170937 -0.3986716 0.0
vn -0.6482717 -0.7614091 0.0
vn -0.6829935 -0.7304244 0.0
vn -0.6638284 -0.7478849 0.0
vn -0.3666447 0.930361 0.0
vn -0.1702633 0.9853986 0.0
vn -0.2860355 0.958219 0.0
vn 0.0472955 0.9988809 0.0
vn 0.0800421 0.9967915 0.0
vn -0.2335938 -0.9723343 0.0
vn -0.3666447 -0.930361 0.0
vn 0.0800421 -0.9967915 0.0
vn 0.0335532 -0.9994369 0.0
vn 0.0594657 -0.9982304 0.0
vn -0.7071068 -0.7071068 0.0
vn -0.9170937 0.3986716 0.0
vn -0.817164 0.5764053 0.0
vn -0.8797985 0.4753469 0.0
vn -0.6728886 0.7397438 0.0
vn -0.6482717 0.7614091 0.0
vn 0.5223977 -0.852702 0.0
vn 0.3986716 -0.9170937 0.0
vn 0.7614091 -0.6482717 0.0
vn 0.7304244 -0.6829935 0.0
vn 0.7478849 -0.6638284 0.0
vn -0.930361 -0.3666447 0.0
vn -0.9853986 -0.1702633 0.0
vn -0.958219 -0.2860355 0.0
vn -0.9988809 0.0472955 0.0
vn -0.9967915 0.0800421 0.0
vn 0.9723343 -0.2335938 0.0
vn 0.930361 -0.3666447 0.0
vn 0.9967915 0.0800421 0.0
vn 0.9994369 0.0335532 0.0
vn 0.9982304 0.0594657 0.0
vn 0.7071068 -0.7071068 0.0
vn -0.3986716 -0.9170937 0.0
vn -0.5764053 -0.817164 0.0
vn -0.4753469 -0.8797985 0.0
vn -0.7397438 -0.6728886 0.0
vn -0.7614091 -0.6482717 0.0
vn 0.852702 0.5223977 0.0
vn 0.9170937 0.3986716 0.0
vn 0.6482717 0.7614091 0.0
vn 0.6829935 0.7304244 0.0
vn 0.6638284 0.7478849 0.0
vn 0.3666447 -0.930361 0.0
vn 0.1702633 -0.9853986 0.0
vn 0.2860355 -0.958219 0.0
vn -0.0472955 -0.9988809 0.0
vn -0.0800421 -0.9967915 0.0
vn 0.2335938 0.9723343 0.0
vn 0.3666447 0.930361 0.0
vn -0.0800421 0.9967915 0.0
vn -0.0335532 0.9994369 0.0
vn -0.0594657 0.9982304 0.0
vn 0.7071068 0.7071068 0.0
vn 0.9170937 -0.3986716 0.0
vn 0.817164 -0.5764053 0.0
vn 0.8797985 -0.4753469 0.0
vn 0.6728886 -0.7397438 0.0
vn 0.6482717 -0.7614091 0.0
vn -0.5223977 0.852702 0.0
vn -0.3986716 0.9170937 0.0
vn -0.7614091 0.6482717 0.0
vn -0.7304244 0.6829935 0.0
vn -0.7478849 0.6638284 0.0
f 1//1 2//1 3//1
f 4//1 5//1 6//1
f 7//1 8//1 9//1
f 10//1 11//1 12//1
f 13//1 1//1 3//1
f 14//1 15//1 13//1
f 3//1 14//1 13//1
f 1//1 13//1 16//1
f 17//1 1//1 16//1
f 4//1 6//1 18//1
f 19//1 20//1 18//1
f 6//1 19//1 18//1
f 18//1 21//1 22//1
f 4//1 18//1 22//1
f 9//1 23//1 24//1
f 25//1 9//1 24//1
f 25//1 7//1 9//1
f 26//1 27//1 7//1
f 25//1 26//1 7//1
f 28//1 10//1 12//1
f 28//1 12//1 29//1
f 30//1 28//1 29//1
f 10//1 28//1 31//1
f 32//1 10//1 31//1
f 33//2 34//2 35//2
f 36//2 37//2 38//2
f 39//2 40//2 41//2
f 42//2 43//2 44//2
f 45//2 33//2 35//2
f 46//2 47//2 45//2
f 35//2 46//2 45//2
f 33//2 45//2 48//2
f 49//2 33//2 48//2
f 36//2 38//2 50//2
f 51//2 52//2 50//2
f 38//2 51//2 50//2
f 50//2 53//2 54//2
f 36//2 50//2 54//2
f 41//2 55//2 56//2
f 57//2 41//2 56//2
f 57//2 39//2 41//2
f 58//2 59//2 39//2
f 57//2 58//2 39//2
f 60//2 42//2 44//2
f 60//2 44//2 61//2
f 62//2 60//2 61//2
f 42//2 60//2 63//2
f 64//2 42//2 63//2
f 14//3 65//4 66//5
f 64//3 14//3 66//5
f 14//6 64//6 63//7
f 15//7 14//6 63//7
f 13//8 15//7 63//7
f 60//8 13//8 63//7
f 16//9 13//10 60//10
f 62//11 16//9 60//10
f 17//12 16//9 62//11
f 61//12 17//12 62//11
f 67//6 68//6 17//13
f 61//13 67//6 17//13
f 19//14 68//6 67//6
f 59//14 19//14 67//6
f 19//15 59//15 58//16
f 20//16 19//15 58//16
f 18//17 20//16 58//16
f 57//17 18//17 58//16
f 21//18 18//19 57//19
f 56//20 21//18 57//19
f 22//6 21//18 56//20
f 55//6 22//6 56//20
f 69//21 22//22 55//22
f 70//23 69//21 55//22
f 23//24 69//21 70//23
f 54//24 23//24 70//23
f 24//25 23//26 54//26
f 53//27 24//25 54//26
f 25//28 24//25 53//27
f 50//28 25//28 53//27
f 26//29 25//30 50//30
f 52//31 26//29 50//30
f 27//15 26//29 52//31
f 51//15 27//15 52//31
f 71//26 72//26 27//32
f 51//32 71//26 27//32
f 29//33 72//26 71//26
f 49//33 29//33 71//26
f 30//34 29//12 49//12
f 48//35 30//34 49//12
f 28//36 30//34 48//35
f 45//36 28//36 48//35
f 31//37 28//38 45//38
f 47//39 31//37 45//38
f 32//26 31//37 47//39
f 46//26 32//26 47//39
f 65//4 32//40 46//40
f 66//5 65//4 46//40
f 3//1 73//1 74//1
f 65//1 3//1 74//1
f 75//1 76//1 73//1
f 3//1 75//1 73//1
f 1//1 77//1 76//1
f 75//1 1//1 76//1
f 68//1 78//1 77//1
f 1//1 68//1 77//1
f 6//1 79//1 78//1
f 68//1 6//1 78//1
f 80//1 81//1 79//1
f 6//1 80//1 79//1
f 4//1 82//1 81//1
f 80//1 4//1 81//1
f 69//1 83//1 82//1
f 4//1 69//1 82//1
f 9//1 84//1 83//1
f 69//1 9//1 83//1
f 85//1 86//1 84//1
f 9//1 85//1 84//1
f 7//1 87//1 86//1
f 85//1 7//1 86//1
f 72//1 88//1 87//1
f 7//1 72//1 87//1
f 12//1 89//1 88//1
f 72//1 12//1 88//1
f 90//1 91//1 89//1
f 12//1 90//1 89//1
f 10//1 92//1 91//1
f 90//1 10//1 91//1
f 65//1 74//1 92//1
f 10//1 65//1 92//1
f 93//1 94//1 95//1
f 74//1 93//1 95//1
f 76//1 96//1 94//1
f 93//1 76//1 94//1
f 97//1 98//1 96//1
f 76//1 97//1 96//1
f 78//1 99//1 98//1
f 97//1 78//1 98//1
f 100//1 101//1 99//1
f 78//1 100//1 99//1
f 81//1 102//1 101//1
f 100//1 81//1 101//1
f 103//1 104//1 102//1
f 81//1 103//1 102//1
f 83//1 105//1 104//1
f 103//1 83//1 104//1
f 106//1 107//1 105//1
f 83//1 106//1 105//1
f 86//1 108//1 107//1
f 106//1 86//1 107//1
f 109//1 110//1 108//1
f 86//1 109//1 108//1
f 88//1 111//1 110//1
f 109//1 88//1 110//1
f 112//1 113//1 111//1
f 88//1 112//1 111//1
f 91//1 114//1 113//1
f 112//1 91//1 113//1
f 115//1 116//1 114//1
f 91//1 115//1 114//1
f 74//1 95//1 116//1
f 115//1 74//1 116//1
f 117//2 118//2 42//2
f 117//2 42//2 66//2
f 118//2 119//2 120//2
f 118//2 120//2 42//2
f 119//2 121//2 44//2
f 119//2 44//2 120//2
f 121//2 122//2 67//2
f 121//2 67//2 44//2
f 122//2 123//2 39//2
f 122//2 39//2 67//2
f 123//2 124//2 125//2
f 123//2 125//2 39//2
f 124//2 126//2 41//2
f 124//2 41//2 125//2
f 126//2 127//2 70//2
f 126//2 70//2 41//2
f 127//2 128//2 36//2
f 127//2 36//2 70//2
f 128//2 129//2 130//2
f 128//2 130//2 36//2
f 129//2 131//2 38//2
f 129//2 38//2 130//2
f 131//2 132//2 71//2
f 131//2 71//2 38//2
f 132//2 133//2 33//2
f 132//2 33//2 71//2
f 133//2 134//2 135//2
f 133//2 135//2 33//2
f 134//2 136//2 35//2
f 134//2 35//2 135//2
f 136//2 117//2 66//2
f 136//2 66//2 35//2
f 137//2 138//2 139//2
f 137//2 139//2 117//2
f 138//2 140//2 119//2
f 138//2 119//2 139//2
f 140//2 141//2 142//2
f 140//2 142//2 119//2
f 141//2 143//2 122//2
f 141//2 122//2 142//2
f 143//2 144//2 145//2
f 143//2 145//2 122//2
f 144//2 146//2 124//2
f 144//2 124//2 145//2
f 146//2 147//2 148//2
f 146//2 148//2 124//2
f 147//2 149//2 127//2
f 147//2 127//2 148//2
f 149//2 150//2 151//2
f 149//2 151//2 127//2
f 150//2 152//2 129//2
f 150//2 129//2 151//2
f 152//2 153//2 154//2
f 152//2 154//2 129//2
f 153//2 155//2 132//2
f 153//2 132//2 154//2
f 155//2 156//2 157//2
f 155//2 157//2 132//2
f 156//2 158//2 134//2
f 156//2 134//2 157//2
f 158//2 159//2 160//2
f 158//2 160//2 134//2
f 159//2 137//2 117//2
f 159//2 117//2 160//2
f 94//41 138//42 137//43
f 95//44 94//41 137//43
f 96//45 140//46 138//42
f 94//41 96//45 138//42
f 98//47 141//48 140//46
f 96//45 98//47 140//46
f 99//49 143//50 141//48
f 98//47 99//49 141//48
f 101//51 144//52 143//50
f 99//49 101//51 143//50
f 102//53 146//54 144//52
f 101//51 102//53 144//52
f 104//55 147//56 146//54
f 102//53 104//55 146//54
f 105//57 149//58 147//56
f 104//55 105//57 147//56
f 107//59 150//60 149//58
f 105//57 107//59 149//58
f 108//61 152//62 150//60
f 107//59 108//61 150//60
f 110//63 153//64 152//62
f 108//61 110//63 152//62
f 111//65 155//66 153//64
f 110//63 111//65 153//64
f 113//67 156//68 155//66
f 111//65 113//67 155//66
f 114//69 158//70 156//68
f 113//67 114//69 156//68
f 116//71 159//72 158//70
f 114//69 116//71 158//70
f 95//44 137//43 159//72
f 116//71 95//44 159//72
f 161//6 162//6 163//6
f 161//6 163//6 164//6
f 163//73 165//74 166//75
f 164//73 163//73 166//75
f 167//76 168//76 169//77
f 170//77 167//76 169//77
f 171//78 172//78 162//79
f 171//78 162//79 161//79
f 173//80 174//81 175//82
f 173//80 175//82 176//80
f 165//74 168//76 167//76
f 165//74 167//76 166//75
f 172//1 174//1 168//1
f 172//1 168//1 165//1
f 171//78 175//82 174//81
f 171//78 174//81 172//78
f 166//2 167//2 175//2
f 166//2 175//2 171//2
f 174//1 177//1 169//1
f 168//1 174//1 169//1
f 174//1 173//1 177//1
f 162//1 172//1 165//1
f 163//1 162//1 165//1
f 178//2 175//2 167//2
f 170//2 178//2 167//2
f 178//2 176//2 175//2
f 166//2 171//2 161//2
f 164//2 166//2 161//2
f 179//83 180//83 181//83
f 179//83 181//83 182//83
f 181//84 183//85 184//86
f 182//84 181//84 184//86
f 185//87 186//87 187//88
f 188//88 185//87 187//88
f 189//89 190//89 180//90
f 189//89 180//90 179//90
f 191//91 192//92 193//93
f 191//91 193//93 194//91
f 183//85 186//87 185//87
f 183//85 185//87 184//86
f 190//1 192//1 186//1
f 190//1 186//1 183//1
f 189//89 193//93 192//92
f 189//89 192//92 190//89
f 184//2 185//2 193//2
f 184//2 193//2 189//2
f 192//1 195//1 187//1
f 186//1 192//1 187//1
f 192//1 191//1 195//1
f 180//1 190//1 183//1
f 181//1 180//1 183//1
f 196//2 193//2 185//2
f 188//2 196//2 185//2
f 196//2 194//2 193//2
f 184//2 189//2 179//2
f 182//2 184//2 179//2
f 197//12 198//12 199//12
f 197//12 199//12 200//12
f 199//94 201//95 202//96
f 200//94 199//94 202//96
f 203//97 204//97 205//98
f 206//98 203//97 205//98
f 207//99 208//99 198//100
f 207//99 198//100 197//100
f 209//101 210//102 211//103
f 209//101 211//103 212//101
f 201//95 204//97 203//97
f 201//95 203//97 202//96
f 208//1 210//1 204//1
f 208//1 204//1 201//1
f 207//99 211//103 210//102
f 207//99 210//102 208//99
f 202//2 203//2 211//2
f 202//2 211//2 207//2
f 210//1 213//1 205//1
f 204//1 210//1 205//1
f 210//1 209//1 213//1
f 198//1 208//1 201//1
f 199//1 198//1 201//1
f 214//2 211//2 203//2
f 206//2 214//2 203//2
f 214//2 212//2 211//2
f 202//2 207//2 197//2
f 200//2 202//2 197//2
f 215//104 216//104 217//104
f 215//104 217//104 218//104
f 217//105 219//106 220//107
f 218//105 217//105 220//107
f 221//108 222//108 223//109
f 224//109 221//108 223//109
f 225//110 226//110 216//111
f 225//110 216//111 215//111
f 227//112 228//113 229//114
f 227//112 229//114 230//112
f 219//106 222//108 221//108
f 219//106 221//108 220//107
f 226//1 228//1 222//1
f 226//1 222//1 219//1
f 225//110 229//114 228//113
f 225//110 228//113 226//110
f 220//2 221//2 229//2
f 220//2 229//2 225//2
f 228//1 231//1 223//1
f 222//1 228//1 223//1
f 228//1 227//1 231//1
f 216//1 226//1 219//1
f 217//1 216//1 219//1
f 232//2 229//2 221//2
f 224//2 232//2 221//2
f 232//2 230//2 229//2
f 220//2 225//2 215//2
f 218//2 220//2 215//2
f 233//26 234//26 235//26
f 233//26 235//26 236//26
f 235//115 237//116 238//117
f 236//115 235//115 238//117
f 239//118 240//118 241//119
f 242//119 239//118 241//119
f 243//120 244//120 234//121
f 243//120 234//121 233//121
f 245//122 246//123 247//124
f 245//122 247//124 248//122
f 237//116 240//118 239//118
f 237//116 239//118 238//117
f 244//1 246//1 240//1
f 244//1 240//1 237//1
f 243//120 247//124 246//123
f 243//120 246//123 244//120
f 238//2 239//2 247//2
f 238//2 247//2 243//2
f 246//1 249//1 241//1
f 240//1 246//1 241//1
f 246//1 245//1 249//1
f 234//1 244//1 237//1
f 235//1 234//1 237//1
f 250//2 247//2 239//2
f 242//2 250//2 239//2
f 250//2 248//2 247//2
f 238//2 243//2 233//2
f 236//2 238//2 233//2
f 251//125 252//125 253//125
f 251//125 253//125 254//125
f 253//126 255//127 256//128
f 254//126 253//126 256//128
f 257//129 258//129 259//130
f 260//130 257//129 259//130
f 261//131 262//131 252//132
f 261//131 252//132 251//132
f 263//133 264//134 265//135
f 263//133 265//135 266//133
f 255//127 258//129 257//129
f 255//127 257//129 256//128
f 262//1 264//1 258//1
f 262//1 258//1 255//1
f 261//131 265//135 264//134
f 261//131 264//134 262//131
f 256//2 257//2 265//2
f 256//2 265//2 261//2
f 264//1 267//1 259//1
f 258//1 264//1 259//1
f 264//1 263//1 267//1
f 252//1 262//1 255//1
f 253//1 252//1 255//1
f 268//2 265//2 257//2
f 260//2 268//2 257//2
f 268//2 266//2 265//2
f 256//2 261//2 251//2
f 254//2 256//2 251//2
f 269//15 270//15 271//15
f 269//15 271//15 272//15
f 271//136 273//137 274//138
f 272//136 271//136 274//138
f 275//139 276//139 277//140
f 278//140 275//139 277//140
f 279//141 280//141 270//142
f 279//141 270//142 269//142
f 281//143 282//144 283//145
f 281//143 283//145 284//143
f 273//137 276//139 275//139
f 273//137 275//139 274//138
f 280//1 282//1 276//1
f 280//1 276//1 273//1
f 279//141 283//145 282//144
f 279//141 282//144 280//141
f 274//2 275//2 283//2
f 274//2 283//2 279//2
f 282//1 285//1 277//1
f 276//1 282//1 277//1
f 282//1 281//1 285//1
f 270//1 280//1 273//1
f 271//1 270//1 273//1
f 286//2 283//2 275//2
f 278//2 286//2 275//2
f 286//2 284//2 283//2
f 274//2 279//2 269//2
f 272//2 274//2 269//2
f 287//146 288//146 289//146
f 287//146 289//146 290//146
f 289//147 291//148 292//149
f 290//147 289//147 292//149
f 293//150 294//150 295//151
f 296//151 293//150 295//151
f 297//152 298//152 288//153
f 297//152 288//153 287//153
f 299//154 300//155 301//156
f 299//154 301//156 302//154
f 291//148 294//150 293//150
f 291//148 293//150 292//149
f 298//1 300//1 294//1
f 298//1 294//1 291//1
f 297//152 301//156 300//155
f 297//152 300//155 298//152
f 292//2 293//2 301//2
f 292//2 301//2 297//2
f 300//1 303//1 295//1
f 294//1 300//1 295//1
f 300//1 299//1 303//1
f 288//1 298//1 291//1
f 289//1 288//1 291//1
f 304//2 301//2 293//2
f 296//2 304//2 293//2
f 304//2 302//2 301//2
f 292//2 297//2 287//2
f 290//2 292//2 287//2
