# Botball Lab: metres, +Y up, centred XZ, base Y=0
s off
v 0.0022409 0.0028000 0.0020000
v 0.0024000 0.0036000 0.0020000
v 0.0024000 0.0036000 -0.0020000
v 0.0022409 0.0028000 -0.0020000
v 0.0016000 0.0028000 -0.0020000
v 0.0016000 0.0028000 0.0020000
v 0.0010000 0.0026000 -0.0020000
v 0.0010000 0.0026000 0.0020000
v 0.0008000 0.0020000 -0.0020000
v 0.0008000 0.0020000 0.0020000
v 0.0008000 0.0013591 -0.0020000
v 0.0008000 0.0013591 0.0020000
v 0.0000000 0.0012000 -0.0020000
v 0.0000000 0.0012000 0.0020000
v -0.0009185 0.0013826 0.0020000
v -0.0009185 0.0013826 -0.0020000
v -0.0014046 0.0017074 0.0020000
v -0.0014046 0.0017074 -0.0020000
v -0.0009303 0.0023908 -0.0020000
v -0.0009303 0.0023908 0.0020000
v -0.0010000 0.0026000 -0.0020000
v -0.0010000 0.0026000 0.0020000
v -0.0012092 0.0026697 0.0020000
v -0.0012092 0.0026697 -0.0020000
v -0.0018926 0.0021954 -0.0020000
v -0.0018926 0.0021954 0.0020000
v -0.0022174 0.0026815 0.0020000
v -0.0022174 0.0026815 -0.0020000
v -0.0024000 0.0036000 0.0020000
v -0.0024000 0.0036000 -0.0020000
v -0.0022409 0.0044000 0.0020000
v -0.0022409 0.0044000 -0.0020000
v -0.0016000 0.0044000 -0.0020000
v -0.0016000 0.0044000 0.0020000
v -0.0010000 0.0046000 -0.0020000
v -0.0010000 0.0046000 0.0020000
v -0.0008000 0.0052000 -0.0020000
v -0.0008000 0.0052000 0.0020000
v -0.0008000 0.0058409 -0.0020000
v -0.0008000 0.0058409 0.0020000
v 0.0000000 0.0060000 -0.0020000
v 0.0000000 0.0060000 0.0020000
v 0.0009185 0.0058174 0.0020000
v 0.0009185 0.0058174 -0.0020000
v 0.0014046 0.0054926 0.0020000
v 0.0014046 0.0054926 -0.0020000
v 0.0009303 0.0048092 -0.0020000
v 0.0009303 0.0048092 0.0020000
v 0.0010000 0.0046000 -0.0020000
v 0.0010000 0.0046000 0.0020000
v 0.0012092 0.0045303 0.0020000
v 0.0012092 0.0045303 -0.0020000
v 0.0018926 0.0050046 -0.0020000
v 0.0018926 0.0050046 0.0020000
v 0.0022174 0.0045185 0.0020000
v 0.0022174 0.0045185 -0.0020000
v 0.0016971 0.0019029 0.0020000
v 0.0022174 0.0026816 0.0020000
v 0.0009184 0.0013826 0.0020000
v -0.0016972 0.0019028 0.0020000
v -0.0016970 0.0019030 0.0020000
v -0.0016971 0.0052971 0.0020000
v -0.0022174 0.0045184 0.0020000
v -0.0009184 0.0058174 0.0020000
v 0.0016970 0.0052970 0.0020000
v 0.0016971 0.0019029 -0.0020000
v 0.0009184 0.0013826 -0.0020000
v 0.0022174 0.0026816 -0.0020000
v 0.0016972 0.0052972 -0.0020000
v 0.0016970 0.0052970 -0.0020000
v -0.0016971 0.0052971 -0.0020000
v -0.0009184 0.0058174 -0.0020000
v -0.0022174 0.0045184 -0.0020000
v -0.0016970 0.0019030 -0.0020000
v 0.0033260 0.0022223 0.0020000
v 0.0033260 0.0022223 0.0010000
v 0.0036000 0.0036000 0.0010000
v 0.0036000 0.0036000 0.0020000
v 0.0025456 0.0010544 0.0020000
v 0.0025456 0.0010544 0.0010000
v 0.0013777 0.0002740 0.0020000
v 0.0013777 0.0002740 0.0010000
v 0.0000000 0.0000000 0.0020000
v 0.0000000 0.0000000 0.0010000
v -0.0013777 0.0002740 0.0020000
v -0.0013777 0.0002740 0.0010000
v -0.0025456 0.0010544 0.0020000
v -0.0025456 0.0010544 0.0010000
v -0.0033260 0.0022223 0.0020000
v -0.0033260 0.0022223 0.0010000
v -0.0036000 0.0036000 0.0020000
v -0.0036000 0.0036000 0.0010000
v -0.0033260 0.0049777 0.0020000
v -0.0033260 0.0049777 0.0010000
v -0.0025456 0.0061456 0.0020000
v -0.0025456 0.0061456 0.0010000
v -0.0013777 0.0069260 0.0020000
v -0.0013777 0.0069260 0.0010000
v 0.0000000 0.0072000 0.0020000
v 0.0000000 0.0072000 0.0010000
v 0.0013777 0.0069260 0.0020000
v 0.0013777 0.0069260 0.0010000
v 0.0025456 0.0061456 0.0020000
v 0.0025456 0.0061456 0.0010000
v 0.0033260 0.0049777 0.0020000
v 0.0033260 0.0049777 0.0010000
v 0.0033260 0.0022223 -0.0010000
v 0.0033260 0.0022223 -0.0020000
v 0.0036000 0.0036000 -0.0020000
v 0.0036000 0.0036000 -0.0010000
v 0.0025456 0.0010544 -0.0010000
v 0.0025456 0.0010544 -0.0020000
v 0.0013777 0.0002740 -0.0010000
v 0.0013777 0.0002740 -0.0020000
v 0.0000000 0.0000000 -0.0010000
v 0.0000000 0.0000000 -0.0020000
v -0.0013777 0.0002740 -0.0010000
v -0.0013777 0.0002740 -0.0020000
v -0.0025456 0.0010544 -0.0010000
v -0.0025456 0.0010544 -0.0020000
v -0.0033260 0.0022223 -0.0010000
v -0.0033260 0.0022223 -0.0020000
v -0.0036000 0.0036000 -0.0010000
v -0.0036000 0.0036000 -0.0020000
v -0.0033260 0.0049777 -0.0010000
v -0.0033260 0.0049777 -0.0020000
v -0.0025456 0.0061456 -0.0010000
v -0.0025456 0.0061456 -0.0020000
v -0.0013777 0.0069260 -0.0010000
v -0.0013777 0.0069260 -0.0020000
v 0.0000000 0.0072000 -0.0010000
v 0.0000000 0.0072000 -0.0020000
v 0.0013777 0.0069260 -0.0010000
v 0.0013777 0.0069260 -0.0020000
v 0.0025456 0.0061456 -0.0010000
v 0.0025456 0.0061456 -0.0020000
v 0.0033260 0.0049777 -0.0010000
v 0.0033260 0.0049777 -0.0020000
v -0.0022174 0.0045185 0.0020000
v -0.0016970 0.0052970 0.0020000
v -0.0009185 0.0058174 0.0020000
v 0.0022174 0.0026815 0.0020000
v 0.0016970 0.0019030 0.0020000
v 0.0009185 0.0013826 0.0020000
v -0.0022174 0.0045185 -0.0020000
v -0.0016970 0.0052970 -0.0020000
v -0.0009185 0.0058174 -0.0020000
v 0.0022174 0.0026815 -0.0020000
v 0.0016970 0.0019030 -0.0020000
v 0.0009185 0.0013826 -0.0020000
v 0.0025578 0.0046595 -0.0003828
v 0.0024944 0.0046332 -0.0000000
v 0.0027000 0.0036000 -0.0000000
v 0.0027684 0.0036000 -0.0003828
v 0.0027382 0.0047340 -0.0007072
v 0.0029635 0.0036000 -0.0007072
v 0.0030078 0.0048460 -0.0009240
v 0.0032555 0.0036000 -0.0009240
v 0.0019577 0.0055577 -0.0003828
v 0.0019091 0.0055091 -0.0000000
v 0.0020956 0.0056956 -0.0007072
v 0.0023018 0.0059018 -0.0009240
v 0.0010595 0.0061578 -0.0003828
v 0.0010332 0.0060944 -0.0000000
v 0.0011340 0.0063382 -0.0007072
v 0.0012460 0.0066078 -0.0009240
v 0.0000000 0.0063684 -0.0003828
v 0.0000000 0.0063000 -0.0000000
v 0.0000000 0.0065635 -0.0007072
v 0.0000000 0.0068555 -0.0009240
v -0.0010595 0.0061578 -0.0003828
v -0.0010332 0.0060944 -0.0000000
v -0.0011340 0.0063382 -0.0007072
v -0.0012460 0.0066078 -0.0009240
v -0.0019577 0.0055577 -0.0003828
v -0.0019091 0.0055091 -0.0000000
v -0.0020956 0.0056956 -0.0007072
v -0.0023018 0.0059018 -0.0009240
v -0.0025578 0.0046595 -0.0003828
v -0.0024944 0.0046332 -0.0000000
v -0.0027382 0.0047340 -0.0007072
v -0.0030078 0.0048460 -0.0009240
v -0.0027684 0.0036000 -0.0003828
v -0.0027000 0.0036000 -0.0000000
v -0.0029635 0.0036000 -0.0007072
v -0.0032555 0.0036000 -0.0009240
v -0.0025578 0.0025405 -0.0003828
v -0.0024944 0.0025668 -0.0000000
v -0.0027382 0.0024660 -0.0007072
v -0.0030078 0.0023540 -0.0009240
v -0.0019577 0.0016423 -0.0003828
v -0.0019091 0.0016909 -0.0000000
v -0.0020956 0.0015044 -0.0007072
v -0.0023018 0.0012982 -0.0009240
v -0.0010595 0.0010422 -0.0003828
v -0.0010332 0.0011056 -0.0000000
v -0.0011340 0.0008618 -0.0007072
v -0.0012460 0.0005922 -0.0009240
v 0.0000000 0.0008316 -0.0003828
v 0.0000000 0.0009000 -0.0000000
v 0.0000000 0.0006365 -0.0007072
v 0.0000000 0.0003445 -0.0009240
v 0.0010595 0.0010422 -0.0003828
v 0.0010332 0.0011056 -0.0000000
v 0.0011340 0.0008618 -0.0007072
v 0.0012460 0.0005922 -0.0009240
v 0.0019577 0.0016423 -0.0003828
v 0.0019091 0.0016909 -0.0000000
v 0.0020956 0.0015044 -0.0007072
v 0.0023018 0.0012982 -0.0009240
v 0.0025578 0.0025405 -0.0003828
v 0.0024944 0.0025668 -0.0000000
v 0.0027382 0.0024660 -0.0007072
v 0.0030078 0.0023540 -0.0009240
v -0.0025578 0.0046595 0.0003828
v -0.0027684 0.0036000 0.0003828
v -0.0027382 0.0047340 0.0007072
v -0.0029635 0.0036000 0.0007072
v -0.0030078 0.0048460 0.0009240
v -0.0032555 0.0036000 0.0009240
v -0.0019577 0.0055577 0.0003828
v -0.0020956 0.0056956 0.0007072
v -0.0023018 0.0059018 0.0009240
v -0.0010595 0.0061578 0.0003828
v -0.0011340 0.0063382 0.0007072
v -0.0012460 0.0066078 0.0009240
v 0.0000000 0.0063684 0.0003828
v 0.0000000 0.0065635 0.0007072
v 0.0000000 0.0068555 0.0009240
v 0.0010595 0.0061578 0.0003828
v 0.0011340 0.0063382 0.0007072
v 0.0012460 0.0066078 0.0009240
v 0.0019577 0.0055577 0.0003828
v 0.0020956 0.0056956 0.0007072
v 0.0023018 0.0059018 0.0009240
v 0.0025578 0.0046595 0.0003828
v 0.0027382 0.0047340 0.0007072
v 0.0030078 0.0048460 0.0009240
v 0.0027684 0.0036000 0.0003828
v 0.0029635 0.0036000 0.0007072
v 0.0032555 0.0036000 0.0009240
v 0.0025578 0.0025405 0.0003828
v 0.0027382 0.0024660 0.0007072
v 0.0030078 0.0023540 0.0009240
v 0.0019577 0.0016423 0.0003828
v 0.0020956 0.0015044 0.0007072
v 0.0023018 0.0012982 0.0009240
v 0.0010595 0.0010422 0.0003828
v 0.0011340 0.0008618 0.0007072
v 0.0012460 0.0005922 0.0009240
v 0.0000000 0.0008316 0.0003828
v 0.0000000 0.0006365 0.0007072
v 0.0000000 0.0003445 0.0009240
v -0.0010595 0.0010422 0.0003828
v -0.0011340 0.0008618 0.0007072
v -0.0012460 0.0005922 0.0009240
v -0.0019577 0.0016423 0.0003828
v -0.0020956 0.0015044 0.0007072
v -0.0023018 0.0012982 0.0009240
v -0.0025578 0.0025405 0.0003828
v -0.0027382 0.0024660 0.0007072
v -0.0030078 0.0023540 0.0009240
vn -0.9807923 0.1950551 0.0
vn -0.9969597 -0.0779194 0.0
vn -0.9985537 0.0537637 0.0
vn 0.0 1.0 0.0
vn -0.105686 0.9943996 0.0
vn -0.2123305 0.9771979 0.0
vn -0.3162278 0.9486833 0.0
vn -0.9486833 0.3162278 0.0
vn -0.9943996 0.105686 0.0
vn -0.9771979 0.2123305 0.0
vn -1.0 0.0 0.0
vn 0.0136734 0.9999065 0.0
vn -0.1950551 0.9807923 0.0
vn 0.2847233 0.9586097 0.0
vn 0.402857 0.9152629 0.0
vn 0.5555683 0.8314709 0.0
vn 0.8215295 -0.570166 0.0
vn 0.9487286 0.3160917 0.0
vn 0.3160917 0.9487286 0.0
vn -0.570166 0.8215295 0.0
vn 0.9152629 0.402857 0.0
vn 0.8314709 0.5555683 0.0
vn 0.9586097 0.2847233 0.0
vn 0.9969597 0.0779194 0.0
vn 0.9985537 -0.0537637 0.0
vn 0.9807923 -0.1950551 0.0
vn 0.0 -1.0 0.0
vn 0.105686 -0.9943996 0.0
vn 0.2123305 -0.9771979 0.0
vn 0.3162278 -0.9486833 0.0
vn 0.9486833 -0.3162278 0.0
vn 0.9943996 -0.105686 0.0
vn 0.9771979 -0.2123305 0.0
vn 1.0 0.0 0.0
vn -0.0136734 -0.9999065 0.0
vn 0.1950551 -0.9807923 0.0
vn -0.2847233 -0.9586097 0.0
vn -0.402857 -0.9152629 0.0
vn -0.5555683 -0.8314709 0.0
vn -0.8215295 0.570166 0.0
vn -0.9487286 -0.3160917 0.0
vn -0.3160917 -0.9487286 0.0
vn 0.570166 -0.8215295 0.0
vn -0.9152629 -0.402857 0.0
vn -0.8314709 -0.5555683 0.0
vn -0.9586097 -0.2847233 0.0
vn 0.0 0.0 1.0
vn 0.0 0.0 -1.0
vn 0.9471783 -0.3207075 0.0
vn 0.8965369 -0.4429691 0.0
vn 0.9978098 -0.0661489 0.0
vn 0.9978098 0.0661489 0.0
vn 0.7523344 -0.6587815 0.0
vn 0.6587815 -0.7523344 0.0
vn 0.4429691 -0.8965369 0.0
vn 0.3207075 -0.9471783 0.0
vn 0.0661489 -0.9978098 0.0
vn -0.0661489 -0.9978098 0.0
vn -0.3207075 -0.9471783 0.0
vn -0.4429691 -0.8965369 0.0
vn -0.6587815 -0.7523344 0.0
vn -0.7523344 -0.6587815 0.0
vn -0.8965369 -0.4429691 0.0
vn -0.9471783 -0.3207075 0.0
vn -0.9978098 -0.0661489 0.0
vn -0.9978098 0.0661489 0.0
vn -0.9471783 0.3207075 0.0
vn -0.8965369 0.4429691 0.0
vn -0.7523344 0.6587815 0.0
vn -0.6587815 0.7523344 0.0
vn -0.4429691 0.8965369 0.0
vn -0.3207075 0.9471783 0.0
vn -0.0661489 0.9978098 0.0
vn 0.0661489 0.9978098 0.0
vn 0.3207075 0.9471783 0.0
vn 0.4429691 0.8965369 0.0
vn 0.6587815 0.7523344 0.0
vn 0.7523344 0.6587815 0.0
vn 0.8965369 0.4429691 0.0
vn 0.9471783 0.3207075 0.0
vn 0.8656003 0.356053 0.352083
vn 0.923877 0.3826894 0.0001452
vn 0.9359996 -0.0023241 0.3519935
vn 0.6856769 0.2776421 0.672876
vn 0.7396588 -0.0058719 0.6729565
vn 0.3843281 0.1476219 0.9113176
vn 0.4116082 -0.0106772 0.9112983
vn 0.2041673 0.0701145 0.9764219
vn 0.2154324 -0.013336 0.9764277
vn 0.6634097 0.6601997 0.3521704
vn 0.7071068 0.7071068 0.0
vn 0.5273565 0.5189731 0.6727273
vn 0.2986392 0.2835064 0.9112841
vn 0.1616729 0.1428476 0.9764509
vn 0.360182 0.8638279 0.352236
vn 0.3826894 0.923877 -0.0001452
vn 0.2884443 0.6811206 0.6729596
vn 0.1674703 0.3762498 0.9112573
vn 0.0947747 0.1938887 0.9764348
vn 0.0023241 0.9359996 0.3519935
vn 0.0058719 0.7396588 0.6729565
vn 0.0106772 0.4116082 0.9112983
vn 0.013336 0.2154324 0.9764277
vn -0.356053 0.8656003 0.352083
vn -0.3826894 0.923877 0.0001452
vn -0.2776421 0.6856769 0.672876
vn -0.1476219 0.3843281 0.9113176
vn -0.0701145 0.2041673 0.9764219
vn -0.6601997 0.6634097 0.3521704
vn -0.7071068 0.7071068 -0.0
vn -0.5189731 0.5273565 0.6727273
vn -0.2835064 0.2986392 0.9112841
vn -0.1428476 0.1616729 0.9764509
vn -0.8638279 0.360182 0.352236
vn -0.923877 0.3826894 -0.0001452
vn -0.6811206 0.2884443 0.6729596
vn -0.3762498 0.1674703 0.9112573
vn -0.1938887 0.0947747 0.9764348
vn -0.9359996 0.0023241 0.3519935
vn -0.7396588 0.0058719 0.6729565
vn -0.4116082 0.0106772 0.9112983
vn -0.2154324 0.013336 0.9764277
vn -0.8656003 -0.356053 0.352083
vn -0.923877 -0.3826894 0.0001452
vn -0.6856769 -0.2776421 0.672876
vn -0.3843281 -0.1476219 0.9113176
vn -0.2041673 -0.0701145 0.9764219
vn -0.6634097 -0.6601997 0.3521704
vn -0.7071068 -0.7071068 -0.0
vn -0.5273565 -0.5189731 0.6727273
vn -0.2986392 -0.2835064 0.9112841
vn -0.1616729 -0.1428476 0.9764509
vn -0.360182 -0.8638279 0.352236
vn -0.3826894 -0.923877 -0.0001452
vn -0.2884443 -0.6811206 0.6729596
vn -0.1674703 -0.3762498 0.9112573
vn -0.0947747 -0.1938887 0.9764348
vn -0.0023241 -0.9359996 0.3519935
vn -0.0058719 -0.7396588 0.6729565
vn -0.0106772 -0.4116082 0.9112983
vn -0.013336 -0.2154324 0.9764277
vn 0.356053 -0.8656003 0.352083
vn 0.3826894 -0.923877 0.0001452
vn 0.2776421 -0.6856769 0.672876
vn 0.1476219 -0.3843281 0.9113176
vn 0.0701145 -0.2041673 0.9764219
vn 0.6601997 -0.6634097 0.3521704
vn 0.7071068 -0.7071068 0.0
vn 0.5189731 -0.5273565 0.6727273
vn 0.2835064 -0.2986392 0.9112841
vn 0.1428476 -0.1616729 0.9764509
vn 0.8638279 -0.360182 0.352236
vn 0.923877 -0.3826894 -0.0001452
vn 0.6811206 -0.2884443 0.6729596
vn 0.3762498 -0.1674703 0.9112573
vn 0.1938887 -0.0947747 0.9764348
vn -0.8656003 0.356053 -0.352083
vn -0.9359996 -0.0023241 -0.3519935
vn -0.6856769 0.2776421 -0.672876
vn -0.7396588 -0.0058719 -0.6729565
vn -0.3843281 0.1476219 -0.9113176
vn -0.4116082 -0.0106772 -0.9112983
vn -0.2041673 0.0701145 -0.9764219
vn -0.2154324 -0.013336 -0.9764277
vn -0.6634097 0.6601997 -0.3521704
vn -0.5273565 0.5189731 -0.6727273
vn -0.2986392 0.2835064 -0.9112841
vn -0.1616729 0.1428476 -0.9764509
vn -0.360182 0.8638279 -0.352236
vn -0.2884443 0.6811206 -0.6729596
vn -0.1674703 0.3762498 -0.9112573
vn -0.0947747 0.1938887 -0.9764348
vn -0.0023241 0.9359996 -0.3519935
vn -0.0058719 0.7396588 -0.6729565
vn -0.0106772 0.4116082 -0.9112983
vn -0.013336 0.2154324 -0.9764277
vn 0.356053 0.8656003 -0.352083
vn 0.2776421 0.6856769 -0.672876
vn 0.1476219 0.3843281 -0.9113176
vn 0.0701145 0.2041673 -0.9764219
vn 0.6601997 0.6634097 -0.3521704
vn 0.5189731 0.5273565 -0.6727273
vn 0.2835064 0.2986392 -0.9112841
vn 0.1428476 0.1616729 -0.9764509
vn 0.8638279 0.360182 -0.352236
vn 0.6811206 0.2884443 -0.6729596
vn 0.3762498 0.1674703 -0.9112573
vn 0.1938887 0.0947747 -0.9764348
vn 0.9359996 0.0023241 -0.3519935
vn 0.7396588 0.0058719 -0.6729565
vn 0.4116082 0.0106772 -0.9112983
vn 0.2154324 0.013336 -0.9764277
vn 0.8656003 -0.356053 -0.352083
vn 0.6856769 -0.2776421 -0.672876
vn 0.3843281 -0.1476219 -0.9113176
vn 0.2041673 -0.0701145 -0.9764219
vn 0.6634097 -0.6601997 -0.3521704
vn 0.5273565 -0.5189731 -0.6727273
vn 0.2986392 -0.2835064 -0.9112841
vn 0.1616729 -0.1428476 -0.9764509
vn 0.360182 -0.8638279 -0.352236
vn 0.2884443 -0.6811206 -0.6729596
vn 0.1674703 -0.3762498 -0.9112573
vn 0.0947747 -0.1938887 -0.9764348
vn 0.0023241 -0.9359996 -0.3519935
vn 0.0058719 -0.7396588 -0.6729565
vn 0.0106772 -0.4116082 -0.9112983
vn 0.013336 -0.2154324 -0.9764277
vn -0.356053 -0.8656003 -0.352083
vn -0.2776421 -0.6856769 -0.672876
vn -0.1476219 -0.3843281 -0.9113176
vn -0.0701145 -0.2041673 -0.9764219
vn -0.6601997 -0.6634097 -0.3521704
vn -0.5189731 -0.5273565 -0.6727273
vn -0.2835064 -0.2986392 -0.9112841
vn -0.1428476 -0.1616729 -0.9764509
vn -0.8638279 -0.360182 -0.352236
vn -0.6811206 -0.2884443 -0.6729596
vn -0.3762498 -0.1674703 -0.9112573
vn -0.1938887 -0.0947747 -0.9764348
f 1//1 2//2 3//3
f 4//1 1//1 3//3
f 1//4 4//4 5//5
f 6//6 1//4 5//5
f 7//7 8//7 6//6
f 5//5 7//7 6//6
f 7//8 9//9 10//10
f 8//8 7//8 10//10
f 9//9 11//11 12//11
f 10//10 9//9 12//11
f 13//12 14//12 12//13
f 11//13 13//12 12//13
f 15//14 14//12 13//12
f 16//15 15//14 13//12
f 17//16 15//14 16//15
f 18//16 17//16 16//15
f 19//17 20//17 17//17
f 18//17 19//17 17//17
f 19//18 21//18 22//18
f 20//18 19//18 22//18
f 23//19 22//19 21//19
f 24//19 23//19 21//19
f 23//20 24//20 25//20
f 26//20 23//20 25//20
f 27//21 26//22 25//22
f 28//23 27//21 25//22
f 29//24 27//21 28//23
f 30//25 29//24 28//23
f 31//26 29//24 30//25
f 32//26 31//26 30//25
f 31//27 32//27 33//28
f 34//29 31//27 33//28
f 35//30 36//30 34//29
f 33//28 35//30 34//29
f 35//31 37//32 38//33
f 36//31 35//31 38//33
f 37//32 39//34 40//34
f 38//33 37//32 40//34
f 41//35 42//35 40//36
f 39//36 41//35 40//36
f 43//37 42//35 41//35
f 44//38 43//37 41//35
f 45//39 43//37 44//38
f 46//39 45//39 44//38
f 47//40 48//40 45//40
f 46//40 47//40 45//40
f 47//41 49//41 50//41
f 48//41 47//41 50//41
f 51//42 50//42 49//42
f 52//42 51//42 49//42
f 51//43 52//43 53//43
f 54//43 51//43 53//43
f 55//44 54//45 53//45
f 56//46 55//44 53//45
f 2//2 55//44 56//46
f 3//3 2//2 56//46
f 57//47 58//47 8//47
f 59//47 57//47 8//47
f 1//47 6//47 8//47
f 58//47 1//47 8//47
f 59//47 8//47 10//47
f 12//47 59//47 10//47
f 22//47 23//47 26//47
f 60//47 22//47 26//47
f 61//47 17//47 20//47
f 22//47 61//47 20//47
f 62//47 63//47 36//47
f 64//47 62//47 36//47
f 31//47 34//47 36//47
f 63//47 31//47 36//47
f 64//47 36//47 38//47
f 40//47 64//47 38//47
f 50//47 51//47 54//47
f 65//47 50//47 54//47
f 65//47 45//47 48//47
f 50//47 65//47 48//47
f 66//48 67//48 7//48
f 68//48 66//48 7//48
f 11//48 9//48 7//48
f 67//48 11//48 7//48
f 68//48 7//48 5//48
f 4//48 68//48 5//48
f 49//48 47//48 46//48
f 69//48 49//48 46//48
f 70//48 53//48 52//48
f 49//48 70//48 52//48
f 71//48 72//48 35//48
f 73//48 71//48 35//48
f 39//48 37//48 35//48
f 72//48 39//48 35//48
f 73//48 35//48 33//48
f 32//48 73//48 33//48
f 21//48 19//48 18//48
f 74//48 21//48 18//48
f 74//48 25//48 24//48
f 21//48 74//48 24//48
f 75//49 76//50 77//51
f 78//52 75//49 77//51
f 79//53 80//54 76//50
f 75//49 79//53 76//50
f 81//55 82//56 80//54
f 79//53 81//55 80//54
f 83//57 84//58 82//56
f 81//55 83//57 82//56
f 85//59 86//60 84//58
f 83//57 85//59 84//58
f 87//61 88//62 86//60
f 85//59 87//61 86//60
f 89//63 90//64 88//62
f 87//61 89//63 88//62
f 91//65 92//66 90//64
f 89//63 91//65 90//64
f 93//67 94//68 92//66
f 91//65 93//67 92//66
f 95//69 96//70 94//68
f 93//67 95//69 94//68
f 97//71 98//72 96//70
f 95//69 97//71 96//70
f 99//73 100//74 98//72
f 97//71 99//73 98//72
f 101//75 102//76 100//74
f 99//73 101//75 100//74
f 103//77 104//78 102//76
f 101//75 103//77 102//76
f 105//79 106//80 104//78
f 103//77 105//79 104//78
f 78//52 77//51 106//80
f 105//79 78//52 106//80
f 107//49 108//50 109//51
f 110//52 107//49 109//51
f 111//53 112//54 108//50
f 107//49 111//53 108//50
f 113//55 114//56 112//54
f 111//53 113//55 112//54
f 115//57 116//58 114//56
f 113//55 115//57 114//56
f 117//59 118//60 116//58
f 115//57 117//59 116//58
f 119//61 120//62 118//60
f 117//59 119//61 118//60
f 121//63 122//64 120//62
f 119//61 121//63 120//62
f 123//65 124//66 122//64
f 121//63 123//65 122//64
f 125//67 126//68 124//66
f 123//65 125//67 124//66
f 127//69 128//70 126//68
f 125//67 127//69 126//68
f 129//71 130//72 128//70
f 127//69 129//71 128//70
f 131//73 132//74 130//72
f 129//71 131//73 130//72
f 133//75 134//76 132//74
f 131//73 133//75 132//74
f 135//77 136//78 134//76
f 133//75 135//77 134//76
f 137//79 138//80 136//78
f 135//77 137//79 136//78
f 110//52 109//51 138//80
f 137//79 110//52 138//80
f 14//47 15//47 85//47
f 83//47 14//47 85//47
f 15//47 61//47 87//47
f 85//47 15//47 87//47
f 61//47 27//47 89//47
f 87//47 61//47 89//47
f 27//47 29//47 91//47
f 89//47 27//47 91//47
f 29//47 139//47 93//47
f 91//47 29//47 93//47
f 139//47 140//47 95//47
f 93//47 139//47 95//47
f 140//47 141//47 97//47
f 95//47 140//47 97//47
f 141//47 42//47 99//47
f 97//47 141//47 99//47
f 42//47 43//47 101//47
f 99//47 42//47 101//47
f 43//47 65//47 103//47
f 101//47 43//47 103//47
f 65//47 55//47 105//47
f 103//47 65//47 105//47
f 55//47 2//47 78//47
f 105//47 55//47 78//47
f 2//47 142//47 75//47
f 78//47 2//47 75//47
f 142//47 143//47 79//47
f 75//47 142//47 79//47
f 143//47 144//47 81//47
f 79//47 143//47 81//47
f 144//47 14//47 83//47
f 81//47 144//47 83//47
f 118//48 16//48 13//48
f 118//48 13//48 116//48
f 120//48 74//48 16//48
f 120//48 16//48 118//48
f 122//48 28//48 74//48
f 122//48 74//48 120//48
f 124//48 30//48 28//48
f 124//48 28//48 122//48
f 126//48 145//48 30//48
f 126//48 30//48 124//48
f 128//48 146//48 145//48
f 128//48 145//48 126//48
f 130//48 147//48 146//48
f 130//48 146//48 128//48
f 132//48 41//48 147//48
f 132//48 147//48 130//48
f 134//48 44//48 41//48
f 134//48 41//48 132//48
f 136//48 70//48 44//48
f 136//48 44//48 134//48
f 138//48 56//48 70//48
f 138//48 70//48 136//48
f 109//48 3//48 56//48
f 109//48 56//48 138//48
f 108//48 148//48 3//48
f 108//48 3//48 109//48
f 112//48 149//48 148//48
f 112//48 148//48 108//48
f 114//48 150//48 149//48
f 114//48 149//48 112//48
f 116//48 13//48 150//48
f 116//48 150//48 114//48
f 151//81 152//82 153//34
f 154//83 151//81 153//34
f 155//84 151//81 154//83
f 156//85 155//84 154//83
f 157//86 155//84 156//85
f 158//87 157//86 156//85
f 137//88 157//86 158//87
f 110//89 137//88 158//87
f 159//90 160//91 152//82
f 151//81 159//90 152//82
f 161//92 159//90 151//81
f 155//84 161//92 151//81
f 162//93 161//92 155//84
f 157//86 162//93 155//84
f 135//94 162//93 157//86
f 137//88 135//94 157//86
f 163//95 164//96 160//91
f 159//90 163//95 160//91
f 165//97 163//95 159//90
f 161//92 165//97 159//90
f 166//98 165//97 161//92
f 162//93 166//98 161//92
f 133//99 166//98 162//93
f 135//94 133//99 162//93
f 167//100 168//4 164//96
f 163//95 167//100 164//96
f 169//101 167//100 163//95
f 165//97 169//101 163//95
f 170//102 169//101 165//97
f 166//98 170//102 165//97
f 131//103 170//102 166//98
f 133//99 131//103 166//98
f 171//104 172//105 168//4
f 167//100 171//104 168//4
f 173//106 171//104 167//100
f 169//101 173//106 167//100
f 174//107 173//106 169//101
f 170//102 174//107 169//101
f 129//108 174//107 170//102
f 131//103 129//108 170//102
f 175//109 176//110 172//105
f 171//104 175//109 172//105
f 177//111 175//109 171//104
f 173//106 177//111 171//104
f 178//112 177//111 173//106
f 174//107 178//112 173//106
f 127//113 178//112 174//107
f 129//108 127//113 174//107
f 179//114 180//115 176//110
f 175//109 179//114 176//110
f 181//116 179//114 175//109
f 177//111 181//116 175//109
f 182//117 181//116 177//111
f 178//112 182//117 177//111
f 125//118 182//117 178//112
f 127//113 125//118 178//112
f 183//119 184//11 180//115
f 179//114 183//119 180//115
f 185//120 183//119 179//114
f 181//116 185//120 179//114
f 186//121 185//120 181//116
f 182//117 186//121 181//116
f 123//122 186//121 182//117
f 125//118 123//122 182//117
f 187//123 188//124 184//11
f 183//119 187//123 184//11
f 189//125 187//123 183//119
f 185//120 189//125 183//119
f 190//126 189//125 185//120
f 186//121 190//126 185//120
f 121//127 190//126 186//121
f 123//122 121//127 186//121
f 191//128 192//129 188//124
f 187//123 191//128 188//124
f 193//130 191//128 187//123
f 189//125 193//130 187//123
f 194//131 193//130 189//125
f 190//126 194//131 189//125
f 119//132 194//131 190//126
f 121//127 119//132 190//126
f 195//133 196//134 192//129
f 191//128 195//133 192//129
f 197//135 195//133 191//128
f 193//130 197//135 191//128
f 198//136 197//135 193//130
f 194//131 198//136 193//130
f 117//137 198//136 194//131
f 119//132 117//137 194//131
f 199//138 200//27 196//134
f 195//133 199//138 196//134
f 201//139 199//138 195//133
f 197//135 201//139 195//133
f 202//140 201//139 197//135
f 198//136 202//140 197//135
f 115//141 202//140 198//136
f 117//137 115//141 198//136
f 203//142 204//143 200//27
f 199//138 203//142 200//27
f 205//144 203//142 199//138
f 201//139 205//144 199//138
f 206//145 205//144 201//139
f 202//140 206//145 201//139
f 113//146 206//145 202//140
f 115//141 113//146 202//140
f 207//147 208//148 204//143
f 203//142 207//147 204//143
f 209//149 207//147 203//142
f 205//144 209//149 203//142
f 210//150 209//149 205//144
f 206//145 210//150 205//144
f 111//151 210//150 206//145
f 113//146 111//151 206//145
f 211//152 212//153 208//148
f 207//147 211//152 208//148
f 213//154 211//152 207//147
f 209//149 213//154 207//147
f 214//155 213//154 209//149
f 210//150 214//155 209//149
f 107//156 214//155 210//150
f 111//151 107//156 210//150
f 154//83 153//34 212//153
f 211//152 154//83 212//153
f 156//85 154//83 211//152
f 213//154 156//85 211//152
f 158//87 156//85 213//154
f 214//155 158//87 213//154
f 110//89 158//87 214//155
f 107//156 110//89 214//155
f 215//157 180//115 184//11
f 216//158 215//157 184//11
f 217//159 215//157 216//158
f 218//160 217//159 216//158
f 219//161 217//159 218//160
f 220//162 219//161 218//160
f 94//163 219//161 220//162
f 92//164 94//163 220//162
f 221//165 176//110 180//115
f 215//157 221//165 180//115
f 222//166 221//165 215//157
f 217//159 222//166 215//157
f 223//167 222//166 217//159
f 219//161 223//167 217//159
f 96//168 223//167 219//161
f 94//163 96//168 219//161
f 224//169 172//105 176//110
f 221//165 224//169 176//110
f 225//170 224//169 221//165
f 222//166 225//170 221//165
f 226//171 225//170 222//166
f 223//167 226//171 222//166
f 98//172 226//171 223//167
f 96//168 98//172 223//167
f 227//173 168//4 172//105
f 224//169 227//173 172//105
f 228//174 227//173 224//169
f 225//170 228//174 224//169
f 229//175 228//174 225//170
f 226//171 229//175 225//170
f 100//176 229//175 226//171
f 98//172 100//176 226//171
f 230//177 164//96 168//4
f 227//173 230//177 168//4
f 231//178 230//177 227//173
f 228//174 231//178 227//173
f 232//179 231//178 228//174
f 229//175 232//179 228//174
f 102//180 232//179 229//175
f 100//176 102//180 229//175
f 233//181 160//91 164//96
f 230//177 233//181 164//96
f 234//182 233//181 230//177
f 231//178 234//182 230//177
f 235//183 234//182 231//178
f 232//179 235//183 231//178
f 104//184 235//183 232//179
f 102//180 104//184 232//179
f 236//185 152//82 160//91
f 233//181 236//185 160//91
f 237//186 236//185 233//181
f 234//182 237//186 233//181
f 238//187 237//186 234//182
f 235//183 238//187 234//182
f 106//188 238//187 235//183
f 104//184 106//188 235//183
f 239//189 153//34 152//82
f 236//185 239//189 152//82
f 240//190 239//189 236//185
f 237//186 240//190 236//185
f 241//191 240//190 237//186
f 238//187 241//191 237//186
f 77//192 241//191 238//187
f 106//188 77//192 238//187
f 242//193 212//153 153//34
f 239//189 242//193 153//34
f 243//194 242//193 239//189
f 240//190 243//194 239//189
f 244//195 243//194 240//190
f 241//191 244//195 240//190
f 76//196 244//195 241//191
f 77//192 76//196 241//191
f 245//197 208//148 212//153
f 242//193 245//197 212//153
f 246//198 245//197 242//193
f 243//194 246//198 242//193
f 247//199 246//198 243//194
f 244//195 247//199 243//194
f 80//200 247//199 244//195
f 76//196 80//200 244//195
f 248//201 204//143 208//148
f 245//197 248//201 208//148
f 249//202 248//201 245//197
f 246//198 249//202 245//197
f 250//203 249//202 246//198
f 247//199 250//203 246//198
f 82//204 250//203 247//199
f 80//200 82//204 247//199
f 251//205 200//27 204//143
f 248//201 251//205 204//143
f 252//206 251//205 248//201
f 249//202 252//206 248//201
f 253//207 252//206 249//202
f 250//203 253//207 249//202
f 84//208 253//207 250//203
f 82//204 84//208 250//203
f 254//209 196//134 200//27
f 251//205 254//209 200//27
f 255//210 254//209 251//205
f 252//206 255//210 251//205
f 256//211 255//210 252//206
f 253//207 256//211 252//206
f 86//212 256//211 253//207
f 84//208 86//212 253//207
f 257//213 192//129 196//134
f 254//209 257//213 196//134
f 258//214 257//213 254//209
f 255//210 258//214 254//209
f 259//215 258//214 255//210
f 256//211 259//215 255//210
f 88//216 259//215 256//211
f 86//212 88//216 256//211
f 260//217 188//124 192//129
f 257//213 260//217 192//129
f 261//218 260//217 257//213
f 258//214 261//218 257//213
f 262//219 261//218 258//214
f 259//215 262//219 258//214
f 90//220 262//219 259//215
f 88//216 90//220 259//215
f 216//158 184//11 188//124
f 260//217 216//158 188//124
f 218//160 216//158 260//217
f 261//218 218//160 260//217
f 220//162 218//160 261//218
f 262//219 220//162 261//218
f 92//164 220//162 262//219
f 90//220 92//164 262//219
