# Botball Lab: metres, +Y up, centred XZ, base Y=0
s off
v 0.0023590 0.0077257 -0.0040000
v 0.0017868 0.0068692 -0.0040000
v 0.0009303 0.0062970 -0.0040000
v 0.0009303 0.0062970 0.0040000
v 0.0017868 0.0068692 0.0040000
v 0.0023590 0.0077257 0.0040000
v 0.0008000 0.0069760 -0.0040000
v 0.0008000 0.0069760 0.0040000
v 0.0010200 0.0076360 0.0040000
v 0.0010200 0.0076360 -0.0040000
v 0.0008000 0.0062710 -0.0040000
v 0.0008000 0.0062710 0.0040000
v 0.0016800 0.0078560 -0.0040000
v 0.0016800 0.0078560 0.0040000
v 0.0023850 0.0078560 0.0040000
v 0.0023850 0.0078560 -0.0040000
v 0.0023591 0.0077257 -0.0040000
v 0.0009303 0.0062969 -0.0040000
v 0.0023591 0.0077257 0.0040000
v 0.0009303 0.0062969 0.0040000
v 0.0009303 0.0110150 -0.0040000
v 0.0017868 0.0104428 -0.0040000
v 0.0023590 0.0095863 -0.0040000
v 0.0023590 0.0095863 0.0040000
v 0.0017868 0.0104428 0.0040000
v 0.0009303 0.0110150 0.0040000
v 0.0016800 0.0094560 -0.0040000
v 0.0016800 0.0094560 0.0040000
v 0.0010200 0.0096760 0.0040000
v 0.0010200 0.0096760 -0.0040000
v 0.0023850 0.0094560 -0.0040000
v 0.0023850 0.0094560 0.0040000
v 0.0008000 0.0103360 -0.0040000
v 0.0008000 0.0103360 0.0040000
v 0.0008000 0.0110410 0.0040000
v 0.0008000 0.0110410 -0.0040000
v 0.0009303 0.0110151 -0.0040000
v 0.0023591 0.0095863 -0.0040000
v 0.0009303 0.0110151 0.0040000
v 0.0023591 0.0095863 0.0040000
v -0.0023590 0.0095863 -0.0040000
v -0.0017868 0.0104428 -0.0040000
v -0.0009303 0.0110150 -0.0040000
v -0.0009303 0.0110150 0.0040000
v -0.0017868 0.0104428 0.0040000
v -0.0023590 0.0095863 0.0040000
v -0.0008000 0.0103360 -0.0040000
v -0.0008000 0.0103360 0.0040000
v -0.0010200 0.0096760 0.0040000
v -0.0010200 0.0096760 -0.0040000
v -0.0008000 0.0110410 -0.0040000
v -0.0008000 0.0110410 0.0040000
v -0.0016800 0.0094560 -0.0040000
v -0.0016800 0.0094560 0.0040000
v -0.0023850 0.0094560 0.0040000
v -0.0023850 0.0094560 -0.0040000
v -0.0023591 0.0095863 -0.0040000
v -0.0009303 0.0110151 -0.0040000
v -0.0023591 0.0095863 0.0040000
v -0.0009303 0.0110151 0.0040000
v -0.0009303 0.0062970 -0.0040000
v -0.0017868 0.0068692 -0.0040000
v -0.0023590 0.0077257 -0.0040000
v -0.0023590 0.0077257 0.0040000
v -0.0017868 0.0068692 0.0040000
v -0.0009303 0.0062970 0.0040000
v -0.0016800 0.0078560 -0.0040000
v -0.0016800 0.0078560 0.0040000
v -0.0010200 0.0076360 0.0040000
v -0.0010200 0.0076360 -0.0040000
v -0.0023850 0.0078560 -0.0040000
v -0.0023850 0.0078560 0.0040000
v -0.0008000 0.0069760 -0.0040000
v -0.0008000 0.0069760 0.0040000
v -0.0008000 0.0062710 0.0040000
v -0.0008000 0.0062710 -0.0040000
v -0.0009303 0.0062969 -0.0040000
v -0.0023591 0.0077257 -0.0040000
v -0.0009303 0.0062969 0.0040000
v -0.0023591 0.0077257 0.0040000
v 0.0011320 0.0057840 -0.0019000
v 0.0008000 0.0062560 -0.0019000
v 0.0024000 0.0078560 -0.0019000
v 0.0028720 0.0075240 -0.0019000
v -0.0028720 0.0075240 -0.0019000
v -0.0024000 0.0078560 -0.0019000
v -0.0008000 0.0062560 -0.0019000
v -0.0011320 0.0057840 -0.0019000
v -0.0011320 0.0115280 -0.0019000
v -0.0008000 0.0110560 -0.0019000
v -0.0024000 0.0094560 -0.0019000
v -0.0028720 0.0097880 -0.0019000
v 0.0028720 0.0097880 -0.0019000
v 0.0024000 0.0094560 -0.0019000
v 0.0008000 0.0110560 -0.0019000
v 0.0011320 0.0115280 -0.0019000
v 0.0028720 0.0075240 0.0019000
v 0.0024000 0.0078560 0.0019000
v 0.0008000 0.0062560 0.0019000
v 0.0011320 0.0057840 0.0019000
v -0.0011320 0.0057840 0.0019000
v -0.0008000 0.0062560 0.0019000
v -0.0024000 0.0078560 0.0019000
v -0.0028720 0.0075240 0.0019000
v -0.0028720 0.0097880 0.0019000
v -0.0024000 0.0094560 0.0019000
v -0.0008000 0.0110560 0.0019000
v -0.0011320 0.0115280 0.0019000
v 0.0011320 0.0115280 0.0019000
v 0.0008000 0.0110560 0.0019000
v 0.0024000 0.0094560 0.0019000
v 0.0028720 0.0097880 0.0019000
v -0.0032000 0.0070560 -0.0040000
v -0.0032000 0.0070560 -0.0019000
v -0.0024000 0.0078560 -0.0040000
v -0.0016000 0.0054560 -0.0019000
v -0.0016000 0.0054560 -0.0040000
v -0.0008000 0.0062560 -0.0040000
v -0.0016000 0.0118560 -0.0040000
v -0.0016000 0.0118560 -0.0019000
v -0.0008000 0.0110560 -0.0040000
v -0.0032000 0.0102560 -0.0019000
v -0.0032000 0.0102560 -0.0040000
v -0.0024000 0.0094560 -0.0040000
v 0.0032000 0.0102560 -0.0040000
v 0.0032000 0.0102560 -0.0019000
v 0.0024000 0.0094560 -0.0040000
v 0.0016000 0.0118560 -0.0019000
v 0.0016000 0.0118560 -0.0040000
v 0.0008000 0.0110560 -0.0040000
v 0.0016000 0.0054560 -0.0040000
v 0.0016000 0.0054560 -0.0019000
v 0.0008000 0.0062560 -0.0040000
v 0.0032000 0.0070560 -0.0019000
v 0.0032000 0.0070560 -0.0040000
v 0.0024000 0.0078560 -0.0040000
v -0.0032000 0.0070560 0.0019000
v -0.0032000 0.0070560 0.0040000
v -0.0024000 0.0078560 0.0040000
v -0.0008000 0.0062560 0.0040000
v -0.0016000 0.0054560 0.0040000
v -0.0016000 0.0054560 0.0019000
v -0.0016000 0.0118560 0.0019000
v -0.0016000 0.0118560 0.0040000
v -0.0008000 0.0110560 0.0040000
v -0.0024000 0.0094560 0.0040000
v -0.0032000 0.0102560 0.0040000
v -0.0032000 0.0102560 0.0019000
v 0.0032000 0.0102560 0.0019000
v 0.0032000 0.0102560 0.0040000
v 0.0024000 0.0094560 0.0040000
v 0.0008000 0.0110560 0.0040000
v 0.0016000 0.0118560 0.0040000
v 0.0016000 0.0118560 0.0019000
v 0.0016000 0.0054560 0.0019000
v 0.0016000 0.0054560 0.0040000
v 0.0008000 0.0062560 0.0040000
v 0.0024000 0.0078560 0.0040000
v 0.0032000 0.0070560 0.0040000
v 0.0032000 0.0070560 0.0019000
v -0.0011320 0.0057880 0.0019000
v -0.0014791 0.0052686 0.0019000
v -0.0014791 0.0052686 -0.0019000
v -0.0011320 0.0057880 -0.0019000
v -0.0016009 0.0046560 0.0019000
v -0.0016009 0.0046560 -0.0019000
v -0.0014791 0.0040434 0.0019000
v -0.0014791 0.0040434 -0.0019000
v -0.0011320 0.0035240 0.0019000
v -0.0011320 0.0035240 -0.0019000
v -0.0006126 0.0031769 0.0019000
v -0.0006126 0.0031769 -0.0019000
v 0.0000000 0.0030551 0.0019000
v 0.0000000 0.0030551 -0.0019000
v 0.0006126 0.0031769 0.0019000
v 0.0006126 0.0031769 -0.0019000
v 0.0011320 0.0035240 0.0019000
v 0.0011320 0.0035240 -0.0019000
v 0.0014791 0.0040434 0.0019000
v 0.0014791 0.0040434 -0.0019000
v 0.0016009 0.0046560 0.0019000
v 0.0016009 0.0046560 -0.0019000
v 0.0014791 0.0052686 0.0019000
v 0.0014791 0.0052686 -0.0019000
v 0.0011320 0.0057880 0.0019000
v 0.0011320 0.0057880 -0.0019000
v -0.0028680 0.0097880 0.0019000
v -0.0033874 0.0101351 0.0019000
v -0.0033874 0.0101351 -0.0019000
v -0.0028680 0.0097880 -0.0019000
v -0.0040000 0.0102569 0.0019000
v -0.0040000 0.0102569 -0.0019000
v -0.0046126 0.0101351 0.0019000
v -0.0046126 0.0101351 -0.0019000
v -0.0051320 0.0097880 0.0019000
v -0.0051320 0.0097880 -0.0019000
v -0.0054791 0.0092686 0.0019000
v -0.0054791 0.0092686 -0.0019000
v -0.0056009 0.0086560 0.0019000
v -0.0056009 0.0086560 -0.0019000
v -0.0054791 0.0080434 0.0019000
v -0.0054791 0.0080434 -0.0019000
v -0.0051320 0.0075240 0.0019000
v -0.0051320 0.0075240 -0.0019000
v -0.0046126 0.0071769 0.0019000
v -0.0046126 0.0071769 -0.0019000
v -0.0040000 0.0070551 0.0019000
v -0.0040000 0.0070551 -0.0019000
v -0.0033874 0.0071769 0.0019000
v -0.0033874 0.0071769 -0.0019000
v -0.0028680 0.0075240 0.0019000
v -0.0028680 0.0075240 -0.0019000
v 0.0011320 0.0115240 0.0019000
v 0.0014791 0.0120434 0.0019000
v 0.0014791 0.0120434 -0.0019000
v 0.0011320 0.0115240 -0.0019000
v 0.0016009 0.0126560 0.0019000
v 0.0016009 0.0126560 -0.0019000
v 0.0014791 0.0132686 0.0019000
v 0.0014791 0.0132686 -0.0019000
v 0.0011320 0.0137880 0.0019000
v 0.0011320 0.0137880 -0.0019000
v 0.0006126 0.0141351 0.0019000
v 0.0006126 0.0141351 -0.0019000
v 0.0000000 0.0142569 0.0019000
v 0.0000000 0.0142569 -0.0019000
v -0.0006126 0.0141351 0.0019000
v -0.0006126 0.0141351 -0.0019000
v -0.0011320 0.0137880 0.0019000
v -0.0011320 0.0137880 -0.0019000
v -0.0014791 0.0132686 0.0019000
v -0.0014791 0.0132686 -0.0019000
v -0.0016009 0.0126560 0.0019000
v -0.0016009 0.0126560 -0.0019000
v -0.0014791 0.0120434 0.0019000
v -0.0014791 0.0120434 -0.0019000
v -0.0011320 0.0115240 0.0019000
v -0.0011320 0.0115240 -0.0019000
v 0.0028680 0.0075240 0.0019000
v 0.0033874 0.0071769 0.0019000
v 0.0033874 0.0071769 -0.0019000
v 0.0028680 0.0075240 -0.0019000
v 0.0040000 0.0070551 0.0019000
v 0.0040000 0.0070551 -0.0019000
v 0.0046126 0.0071769 0.0019000
v 0.0046126 0.0071769 -0.0019000
v 0.0051320 0.0075240 0.0019000
v 0.0051320 0.0075240 -0.0019000
v 0.0054791 0.0080434 0.0019000
v 0.0054791 0.0080434 -0.0019000
v 0.0056009 0.0086560 0.0019000
v 0.0056009 0.0086560 -0.0019000
v 0.0054791 0.0092686 0.0019000
v 0.0054791 0.0092686 -0.0019000
v 0.0051320 0.0097880 0.0019000
v 0.0051320 0.0097880 -0.0019000
v 0.0046126 0.0101351 0.0019000
v 0.0046126 0.0101351 -0.0019000
v 0.0040000 0.0102569 0.0019000
v 0.0040000 0.0102569 -0.0019000
v 0.0033874 0.0101351 0.0019000
v 0.0033874 0.0101351 -0.0019000
v 0.0028680 0.0097880 0.0019000
v 0.0028680 0.0097880 -0.0019000
v 0.0016960 0.0063520 0.0019000
v 0.0022160 0.0055739 0.0019000
v 0.0022160 0.0055739 -0.0019000
v 0.0016960 0.0063520 -0.0019000
v 0.0023985 0.0046560 0.0019000
v 0.0023985 0.0046560 -0.0019000
v 0.0022160 0.0037381 0.0019000
v 0.0022160 0.0037381 -0.0019000
v 0.0016960 0.0029600 0.0019000
v 0.0016960 0.0029600 -0.0019000
v 0.0009179 0.0024400 0.0019000
v 0.0009179 0.0024400 -0.0019000
v 0.0000000 0.0022575 0.0019000
v 0.0000000 0.0022575 -0.0019000
v -0.0009179 0.0024400 0.0019000
v -0.0009179 0.0024400 -0.0019000
v -0.0016960 0.0029600 0.0019000
v -0.0016960 0.0029600 -0.0019000
v -0.0022160 0.0037381 0.0019000
v -0.0022160 0.0037381 -0.0019000
v -0.0023985 0.0046560 0.0019000
v -0.0023985 0.0046560 -0.0019000
v -0.0022160 0.0055739 0.0019000
v -0.0022160 0.0055739 -0.0019000
v -0.0016960 0.0063520 0.0019000
v -0.0016960 0.0063520 -0.0019000
v -0.0023040 0.0069600 0.0019000
v -0.0030821 0.0064400 0.0019000
v -0.0030821 0.0064400 -0.0019000
v -0.0023040 0.0069600 -0.0019000
v -0.0040000 0.0062575 0.0019000
v -0.0040000 0.0062575 -0.0019000
v -0.0049179 0.0064400 0.0019000
v -0.0049179 0.0064400 -0.0019000
v -0.0056960 0.0069600 0.0019000
v -0.0056960 0.0069600 -0.0019000
v -0.0062160 0.0077381 0.0019000
v -0.0062160 0.0077381 -0.0019000
v -0.0063985 0.0086560 0.0019000
v -0.0063985 0.0086560 -0.0019000
v -0.0062160 0.0095739 0.0019000
v -0.0062160 0.0095739 -0.0019000
v -0.0056960 0.0103520 0.0019000
v -0.0056960 0.0103520 -0.0019000
v -0.0049179 0.0108720 0.0019000
v -0.0049179 0.0108720 -0.0019000
v -0.0040000 0.0110545 0.0019000
v -0.0040000 0.0110545 -0.0019000
v -0.0030821 0.0108720 0.0019000
v -0.0030821 0.0108720 -0.0019000
v -0.0023040 0.0103520 0.0019000
v -0.0023040 0.0103520 -0.0019000
v -0.0016960 0.0109600 0.0019000
v -0.0022160 0.0117381 0.0019000
v -0.0022160 0.0117381 -0.0019000
v -0.0016960 0.0109600 -0.0019000
v -0.0023985 0.0126560 0.0019000
v -0.0023985 0.0126560 -0.0019000
v -0.0022160 0.0135739 0.0019000
v -0.0022160 0.0135739 -0.0019000
v -0.0016960 0.0143520 0.0019000
v -0.0016960 0.0143520 -0.0019000
v -0.0009179 0.0148720 0.0019000
v -0.0009179 0.0148720 -0.0019000
v 0.0000000 0.0150545 0.0019000
v 0.0000000 0.0150545 -0.0019000
v 0.0009179 0.0148720 0.0019000
v 0.0009179 0.0148720 -0.0019000
v 0.0016960 0.0143520 0.0019000
v 0.0016960 0.0143520 -0.0019000
v 0.0022160 0.0135739 0.0019000
v 0.0022160 0.0135739 -0.0019000
v 0.0023985 0.0126560 0.0019000
v 0.0023985 0.0126560 -0.0019000
v 0.0022160 0.0117381 0.0019000
v 0.0022160 0.0117381 -0.0019000
v 0.0016960 0.0109600 0.0019000
v 0.0016960 0.0109600 -0.0019000
v 0.0023040 0.0103520 0.0019000
v 0.0030821 0.0108720 0.0019000
v 0.0030821 0.0108720 -0.0019000
v 0.0023040 0.0103520 -0.0019000
v 0.0040000 0.0110545 0.0019000
v 0.0040000 0.0110545 -0.0019000
v 0.0049179 0.0108720 0.0019000
v 0.0049179 0.0108720 -0.0019000
v 0.0056960 0.0103520 0.0019000
v 0.0056960 0.0103520 -0.0019000
v 0.0062160 0.0095739 0.0019000
v 0.0062160 0.0095739 -0.0019000
v 0.0063985 0.0086560 0.0019000
v 0.0063985 0.0086560 -0.0019000
v 0.0062160 0.0077381 0.0019000
v 0.0062160 0.0077381 -0.0019000
v 0.0056960 0.0069600 0.0019000
v 0.0056960 0.0069600 -0.0019000
v 0.0049179 0.0064400 0.0019000
v 0.0049179 0.0064400 -0.0019000
v 0.0040000 0.0062575 0.0019000
v 0.0040000 0.0062575 -0.0019000
v 0.0030821 0.0064400 0.0019000
v 0.0030821 0.0064400 -0.0019000
v 0.0023040 0.0069600 0.0019000
v 0.0023040 0.0069600 -0.0019000
v 0.0016920 0.0063480 -0.0019000
v 0.0022108 0.0055717 -0.0019000
v 0.0014738 0.0052665 -0.0019000
v 0.0011280 0.0057840 -0.0019000
v 0.0023928 0.0046560 -0.0019000
v 0.0015952 0.0046560 -0.0019000
v 0.0022108 0.0037403 -0.0019000
v 0.0014738 0.0040455 -0.0019000
v 0.0016920 0.0029640 -0.0019000
v 0.0011280 0.0035280 -0.0019000
v 0.0009157 0.0024452 -0.0019000
v 0.0006105 0.0031822 -0.0019000
v 0.0000000 0.0022632 -0.0019000
v 0.0000000 0.0030608 -0.0019000
v -0.0009157 0.0024452 -0.0019000
v -0.0006105 0.0031822 -0.0019000
v -0.0016920 0.0029640 -0.0019000
v -0.0011280 0.0035280 -0.0019000
v -0.0022108 0.0037403 -0.0019000
v -0.0014738 0.0040455 -0.0019000
v -0.0023928 0.0046560 -0.0019000
v -0.0015952 0.0046560 -0.0019000
v -0.0022108 0.0055717 -0.0019000
v -0.0014738 0.0052665 -0.0019000
v -0.0016920 0.0063480 -0.0019000
v -0.0011280 0.0057840 -0.0019000
v -0.0023080 0.0069640 -0.0019000
v -0.0030843 0.0064452 -0.0019000
v -0.0033895 0.0071822 -0.0019000
v -0.0028720 0.0075280 -0.0019000
v -0.0040000 0.0062632 -0.0019000
v -0.0040000 0.0070608 -0.0019000
v -0.0049157 0.0064452 -0.0019000
v -0.0046105 0.0071822 -0.0019000
v -0.0056920 0.0069640 -0.0019000
v -0.0051280 0.0075280 -0.0019000
v -0.0062108 0.0077403 -0.0019000
v -0.0054738 0.0080455 -0.0019000
v -0.0063928 0.0086560 -0.0019000
v -0.0055952 0.0086560 -0.0019000
v -0.0062108 0.0095717 -0.0019000
v -0.0054738 0.0092665 -0.0019000
v -0.0056920 0.0103480 -0.0019000
v -0.0051280 0.0097840 -0.0019000
v -0.0049157 0.0108668 -0.0019000
v -0.0046105 0.0101298 -0.0019000
v -0.0040000 0.0110488 -0.0019000
v -0.0040000 0.0102512 -0.0019000
v -0.0030843 0.0108668 -0.0019000
v -0.0033895 0.0101298 -0.0019000
v -0.0023080 0.0103480 -0.0019000
v -0.0028720 0.0097840 -0.0019000
v -0.0016920 0.0109640 -0.0019000
v -0.0022108 0.0117403 -0.0019000
v -0.0014738 0.0120455 -0.0019000
v -0.0011280 0.0115280 -0.0019000
v -0.0023928 0.0126560 -0.0019000
v -0.0015952 0.0126560 -0.0019000
v -0.0022108 0.0135717 -0.0019000
v -0.0014738 0.0132665 -0.0019000
v -0.0016920 0.0143480 -0.0019000
v -0.0011280 0.0137840 -0.0019000
v -0.0009157 0.0148668 -0.0019000
v -0.0006105 0.0141298 -0.0019000
v 0.0000000 0.0150488 -0.0019000
v 0.0000000 0.0142512 -0.0019000
v 0.0009157 0.0148668 -0.0019000
v 0.0006105 0.0141298 -0.0019000
v 0.0016920 0.0143480 -0.0019000
v 0.0011280 0.0137840 -0.0019000
v 0.0022108 0.0135717 -0.0019000
v 0.0014738 0.0132665 -0.0019000
v 0.0023928 0.0126560 -0.0019000
v 0.0015952 0.0126560 -0.0019000
v 0.0022108 0.0117403 -0.0019000
v 0.0014738 0.0120455 -0.0019000
v 0.0016920 0.0109640 -0.0019000
v 0.0011280 0.0115280 -0.0019000
v 0.0023080 0.0103480 -0.0019000
v 0.0030843 0.0108668 -0.0019000
v 0.0033895 0.0101298 -0.0019000
v 0.0028720 0.0097840 -0.0019000
v 0.0040000 0.0110488 -0.0019000
v 0.0040000 0.0102512 -0.0019000
v 0.0049157 0.0108668 -0.0019000
v 0.0046105 0.0101298 -0.0019000
v 0.0056920 0.0103480 -0.0019000
v 0.0051280 0.0097840 -0.0019000
v 0.0062108 0.0095717 -0.0019000
v 0.0054738 0.0092665 -0.0019000
v 0.0063928 0.0086560 -0.0019000
v 0.0055952 0.0086560 -0.0019000
v 0.0062108 0.0077403 -0.0019000
v 0.0054738 0.0080455 -0.0019000
v 0.0056920 0.0069640 -0.0019000
v 0.0051280 0.0075280 -0.0019000
v 0.0049157 0.0064452 -0.0019000
v 0.0046105 0.0071822 -0.0019000
v 0.0040000 0.0062632 -0.0019000
v 0.0040000 0.0070608 -0.0019000
v 0.0030843 0.0064452 -0.0019000
v 0.0033895 0.0071822 -0.0019000
v 0.0023080 0.0069640 -0.0019000
v 0.0028720 0.0075280 -0.0019000
v 0.0014738 0.0052665 0.0019000
v 0.0022108 0.0055717 0.0019000
v 0.0016920 0.0063480 0.0019000
v 0.0011280 0.0057840 0.0019000
v 0.0015952 0.0046560 0.0019000
v 0.0023928 0.0046560 0.0019000
v 0.0014738 0.0040455 0.0019000
v 0.0022108 0.0037403 0.0019000
v 0.0011280 0.0035280 0.0019000
v 0.0016920 0.0029640 0.0019000
v 0.0006105 0.0031822 0.0019000
v 0.0009157 0.0024452 0.0019000
v 0.0000000 0.0030608 0.0019000
v 0.0000000 0.0022632 0.0019000
v -0.0006105 0.0031822 0.0019000
v -0.0009157 0.0024452 0.0019000
v -0.0011280 0.0035280 0.0019000
v -0.0016920 0.0029640 0.0019000
v -0.0014738 0.0040455 0.0019000
v -0.0022108 0.0037403 0.0019000
v -0.0015952 0.0046560 0.0019000
v -0.0023928 0.0046560 0.0019000
v -0.0014738 0.0052665 0.0019000
v -0.0022108 0.0055717 0.0019000
v -0.0011280 0.0057840 0.0019000
v -0.0016920 0.0063480 0.0019000
v -0.0033895 0.0071822 0.0019000
v -0.0030843 0.0064452 0.0019000
v -0.0023080 0.0069640 0.0019000
v -0.0028720 0.0075280 0.0019000
v -0.0040000 0.0070608 0.0019000
v -0.0040000 0.0062632 0.0019000
v -0.0046105 0.0071822 0.0019000
v -0.0049157 0.0064452 0.0019000
v -0.0051280 0.0075280 0.0019000
v -0.0056920 0.0069640 0.0019000
v -0.0054738 0.0080455 0.0019000
v -0.0062108 0.0077403 0.0019000
v -0.0055952 0.0086560 0.0019000
v -0.0063928 0.0086560 0.0019000
v -0.0054738 0.0092665 0.0019000
v -0.0062108 0.0095717 0.0019000
v -0.0051280 0.0097840 0.0019000
v -0.0056920 0.0103480 0.0019000
v -0.0046105 0.0101298 0.0019000
v -0.0049157 0.0108668 0.0019000
v -0.0040000 0.0102512 0.0019000
v -0.0040000 0.0110488 0.0019000
v -0.0033895 0.0101298 0.0019000
v -0.0030843 0.0108668 0.0019000
v -0.0028720 0.0097840 0.0019000
v -0.0023080 0.0103480 0.0019000
v -0.0014738 0.0120455 0.0019000
v -0.0022108 0.0117403 0.0019000
v -0.0016920 0.0109640 0.0019000
v -0.0011280 0.0115280 0.0019000
v -0.0015952 0.0126560 0.0019000
v -0.0023928 0.0126560 0.0019000
v -0.0014738 0.0132665 0.0019000
v -0.0022108 0.0135717 0.0019000
v -0.0011280 0.0137840 0.0019000
v -0.0016920 0.0143480 0.0019000
v -0.0006105 0.0141298 0.0019000
v -0.0009157 0.0148668 0.0019000
v 0.0000000 0.0142512 0.0019000
v 0.0000000 0.0150488 0.0019000
v 0.0006105 0.0141298 0.0019000
v 0.0009157 0.0148668 0.0019000
v 0.0011280 0.0137840 0.0019000
v 0.0016920 0.0143480 0.0019000
v 0.0014738 0.0132665 0.0019000
v 0.0022108 0.0135717 0.0019000
v 0.0015952 0.0126560 0.0019000
v 0.0023928 0.0126560 0.0019000
v 0.0014738 0.0120455 0.0019000
v 0.0022108 0.0117403 0.0019000
v 0.0011280 0.0115280 0.0019000
v 0.0016920 0.0109640 0.0019000
v 0.0033895 0.0101298 0.0019000
v 0.0030843 0.0108668 0.0019000
v 0.0023080 0.0103480 0.0019000
v 0.0028720 0.0097840 0.0019000
v 0.0040000 0.0102512 0.0019000
v 0.0040000 0.0110488 0.0019000
v 0.0046105 0.0101298 0.0019000
v 0.0049157 0.0108668 0.0019000
v 0.0051280 0.0097840 0.0019000
v 0.0056920 0.0103480 0.0019000
v 0.0054738 0.0092665 0.0019000
v 0.0062108 0.0095717 0.0019000
v 0.0055952 0.0086560 0.0019000
v 0.0063928 0.0086560 0.0019000
v 0.0054738 0.0080455 0.0019000
v 0.0062108 0.0077403 0.0019000
v 0.0051280 0.0075280 0.0019000
v 0.0056920 0.0069640 0.0019000
v 0.0046105 0.0071822 0.0019000
v 0.0049157 0.0064452 0.0019000
v 0.0040000 0.0070608 0.0019000
v 0.0040000 0.0062632 0.0019000
v 0.0033895 0.0071822 0.0019000
v 0.0030843 0.0064452 0.0019000
v 0.0028720 0.0075280 0.0019000
v 0.0023080 0.0069640 0.0019000
v 0.0000000 0.0018400 -0.0019000
v -0.0008895 0.0018986 -0.0019000
v -0.0007783 0.0027433 -0.0019000
v 0.0000000 0.0026920 -0.0019000
v -0.0017640 0.0020724 -0.0019000
v -0.0015435 0.0028954 -0.0019000
v -0.0026085 0.0023587 -0.0019000
v -0.0022824 0.0031459 -0.0019000
v -0.0034080 0.0027533 -0.0019000
v -0.0029820 0.0034912 -0.0019000
v -0.0041496 0.0032482 -0.0019000
v -0.0036309 0.0039242 -0.0019000
v -0.0048196 0.0038364 -0.0019000
v -0.0042171 0.0044389 -0.0019000
v -0.0054078 0.0045064 -0.0019000
v -0.0047318 0.0050251 -0.0019000
v -0.0059027 0.0052480 -0.0019000
v -0.0051648 0.0056740 -0.0019000
v -0.0062973 0.0060475 -0.0019000
v -0.0055101 0.0063736 -0.0019000
v -0.0065836 0.0068920 -0.0019000
v -0.0057606 0.0071125 -0.0019000
v -0.0067574 0.0077665 -0.0019000
v -0.0059127 0.0078777 -0.0019000
v -0.0068160 0.0086560 -0.0019000
v -0.0059640 0.0086560 -0.0019000
v -0.0067574 0.0095455 -0.0019000
v -0.0059127 0.0094343 -0.0019000
v -0.0065836 0.0104200 -0.0019000
v -0.0057606 0.0101995 -0.0019000
v -0.0062973 0.0112645 -0.0019000
v -0.0055101 0.0109384 -0.0019000
v -0.0059027 0.0120640 -0.0019000
v -0.0051648 0.0116380 -0.0019000
v -0.0054078 0.0128056 -0.0019000
v -0.0047318 0.0122869 -0.0019000
v -0.0048196 0.0134756 -0.0019000
v -0.0042171 0.0128731 -0.0019000
v -0.0041496 0.0140638 -0.0019000
v -0.0036309 0.0133878 -0.0019000
v -0.0034080 0.0145587 -0.0019000
v -0.0029820 0.0138208 -0.0019000
v -0.0026085 0.0149533 -0.0019000
v -0.0022824 0.0141661 -0.0019000
v -0.0017640 0.0152396 -0.0019000
v -0.0015435 0.0144166 -0.0019000
v -0.0008895 0.0154134 -0.0019000
v -0.0007783 0.0145687 -0.0019000
v 0.0000000 0.0154720 -0.0019000
v 0.0000000 0.0146200 -0.0019000
v 0.0008895 0.0154134 -0.0019000
v 0.0007783 0.0145687 -0.0019000
v 0.0017640 0.0152396 -0.0019000
v 0.0015435 0.0144166 -0.0019000
v 0.0026085 0.0149533 -0.0019000
v 0.0022824 0.0141661 -0.0019000
v 0.0034080 0.0145587 -0.0019000
v 0.0029820 0.0138208 -0.0019000
v 0.0041496 0.0140638 -0.0019000
v 0.0036309 0.0133878 -0.0019000
v 0.0048196 0.0134756 -0.0019000
v 0.0042171 0.0128731 -0.0019000
v 0.0054078 0.0128056 -0.0019000
v 0.0047318 0.0122869 -0.0019000
v 0.0059027 0.0120640 -0.0019000
v 0.0051648 0.0116380 -0.0019000
v 0.0062973 0.0112645 -0.0019000
v 0.0055101 0.0109384 -0.0019000
v 0.0065836 0.0104200 -0.0019000
v 0.0057606 0.0101995 -0.0019000
v 0.0067574 0.0095455 -0.0019000
v 0.0059127 0.0094343 -0.0019000
v 0.0068160 0.0086560 -0.0019000
v 0.0059640 0.0086560 -0.0019000
v 0.0067574 0.0077665 -0.0019000
v 0.0059127 0.0078777 -0.0019000
v 0.0065836 0.0068920 -0.0019000
v 0.0057606 0.0071125 -0.0019000
v 0.0062973 0.0060475 -0.0019000
v 0.0055101 0.0063736 -0.0019000
v 0.0059027 0.0052480 -0.0019000
v 0.0051648 0.0056740 -0.0019000
v 0.0054078 0.0045064 -0.0019000
v 0.0047318 0.0050251 -0.0019000
v 0.0048196 0.0038364 -0.0019000
v 0.0042171 0.0044389 -0.0019000
v 0.0041496 0.0032482 -0.0019000
v 0.0036309 0.0039242 -0.0019000
v 0.0034080 0.0027533 -0.0019000
v 0.0029820 0.0034912 -0.0019000
v 0.0026085 0.0023587 -0.0019000
v 0.0022824 0.0031459 -0.0019000
v 0.0017640 0.0020724 -0.0019000
v 0.0015435 0.0028954 -0.0019000
v 0.0008895 0.0018986 -0.0019000
v 0.0007783 0.0027433 -0.0019000
v -0.0007783 0.0027433 0.0019000
v -0.0008895 0.0018986 0.0019000
v 0.0000000 0.0018400 0.0019000
v 0.0000000 0.0026920 0.0019000
v -0.0015435 0.0028954 0.0019000
v -0.0017640 0.0020724 0.0019000
v -0.0022824 0.0031459 0.0019000
v -0.0026085 0.0023587 0.0019000
v -0.0029820 0.0034912 0.0019000
v -0.0034080 0.0027533 0.0019000
v -0.0036309 0.0039242 0.0019000
v -0.0041496 0.0032482 0.0019000
v -0.0042171 0.0044389 0.0019000
v -0.0048196 0.0038364 0.0019000
v -0.0047318 0.0050251 0.0019000
v -0.0054078 0.0045064 0.0019000
v -0.0051648 0.0056740 0.0019000
v -0.0059027 0.0052480 0.0019000
v -0.0055101 0.0063736 0.0019000
v -0.0062973 0.0060475 0.0019000
v -0.0057606 0.0071125 0.0019000
v -0.0065836 0.0068920 0.0019000
v -0.0059127 0.0078777 0.0019000
v -0.0067574 0.0077665 0.0019000
v -0.0059640 0.0086560 0.0019000
v -0.0068160 0.0086560 0.0019000
v -0.0059127 0.0094343 0.0019000
v -0.0067574 0.0095455 0.0019000
v -0.0057606 0.0101995 0.0019000
v -0.0065836 0.0104200 0.0019000
v -0.0055101 0.0109384 0.0019000
v -0.0062973 0.0112645 0.0019000
v -0.0051648 0.0116380 0.0019000
v -0.0059027 0.0120640 0.0019000
v -0.0047318 0.0122869 0.0019000
v -0.0054078 0.0128056 0.0019000
v -0.0042171 0.0128731 0.0019000
v -0.0048196 0.0134756 0.0019000
v -0.0036309 0.0133878 0.0019000
v -0.0041496 0.0140638 0.0019000
v -0.0029820 0.0138208 0.0019000
v -0.0034080 0.0145587 0.0019000
v -0.0022824 0.0141661 0.0019000
v -0.0026085 0.0149533 0.0019000
v -0.0015435 0.0144166 0.0019000
v -0.0017640 0.0152396 0.0019000
v -0.0007783 0.0145687 0.0019000
v -0.0008895 0.0154134 0.0019000
v 0.0000000 0.0146200 0.0019000
v 0.0000000 0.0154720 0.0019000
v 0.0007783 0.0145687 0.0019000
v 0.0008895 0.0154134 0.0019000
v 0.0015435 0.0144166 0.0019000
v 0.0017640 0.0152396 0.0019000
v 0.0022824 0.0141661 0.0019000
v 0.0026085 0.0149533 0.0019000
v 0.0029820 0.0138208 0.0019000
v 0.0034080 0.0145587 0.0019000
v 0.0036309 0.0133878 0.0019000
v 0.0041496 0.0140638 0.0019000
v 0.0042171 0.0128731 0.0019000
v 0.0048196 0.0134756 0.0019000
v 0.0047318 0.0122869 0.0019000
v 0.0054078 0.0128056 0.0019000
v 0.0051648 0.0116380 0.0019000
v 0.0059027 0.0120640 0.0019000
v 0.0055101 0.0109384 0.0019000
v 0.0062973 0.0112645 0.0019000
v 0.0057606 0.0101995 0.0019000
v 0.0065836 0.0104200 0.0019000
v 0.0059127 0.0094343 0.0019000
v 0.0067574 0.0095455 0.0019000
v 0.0059640 0.0086560 0.0019000
v 0.0068160 0.0086560 0.0019000
v 0.0059127 0.0078777 0.0019000
v 0.0067574 0.0077665 0.0019000
v 0.0057606 0.0071125 0.0019000
v 0.0065836 0.0068920 0.0019000
v 0.0055101 0.0063736 0.0019000
v 0.0062973 0.0060475 0.0019000
v 0.0051648 0.0056740 0.0019000
v 0.0059027 0.0052480 0.0019000
v 0.0047318 0.0050251 0.0019000
v 0.0054078 0.0045064 0.0019000
v 0.0042171 0.0044389 0.0019000
v 0.0048196 0.0038364 0.0019000
v 0.0036309 0.0039242 0.0019000
v 0.0041496 0.0032482 0.0019000
v 0.0029820 0.0034912 0.0019000
v 0.0034080 0.0027533 0.0019000
v 0.0022824 0.0031459 0.0019000
v 0.0026085 0.0023587 0.0019000
v 0.0015435 0.0028954 0.0019000
v 0.0017640 0.0020724 0.0019000
v 0.0007783 0.0027433 0.0019000
v 0.0008895 0.0018986 0.0019000
v 0.0028000 0.0067560 -0.0008000
v 0.0060000 0.0070560 -0.0008000
v 0.0016000 0.0026560 -0.0008000
v 0.0019000 0.0058560 -0.0008000
v 0.0019000 0.0114560 -0.0008000
v 0.0016000 0.0146560 -0.0008000
v 0.0060000 0.0102560 -0.0008000
v 0.0028000 0.0105560 -0.0008000
v -0.0028000 0.0105560 -0.0008000
v -0.0060000 0.0102560 -0.0008000
v -0.0016000 0.0146560 -0.0008000
v -0.0019000 0.0114560 -0.0008000
v -0.0019000 0.0058560 -0.0008000
v -0.0016000 0.0026560 -0.0008000
v -0.0060000 0.0070560 -0.0008000
v -0.0028000 0.0067560 -0.0008000
v -0.0036000 0.0034560 -0.0008000
v -0.0052000 0.0050560 -0.0008000
v -0.0052000 0.0122560 -0.0008000
v -0.0036000 0.0138560 -0.0008000
v 0.0036000 0.0138560 -0.0008000
v 0.0052000 0.0122560 -0.0008000
v 0.0052000 0.0050560 -0.0008000
v 0.0036000 0.0034560 -0.0008000
v -0.0028000 0.0067560 0.0008000
v -0.0060000 0.0070560 0.0008000
v -0.0016000 0.0026560 0.0008000
v -0.0019000 0.0058560 0.0008000
v -0.0019000 0.0114560 0.0008000
v -0.0016000 0.0146560 0.0008000
v -0.0060000 0.0102560 0.0008000
v -0.0028000 0.0105560 0.0008000
v 0.0028000 0.0105560 0.0008000
v 0.0060000 0.0102560 0.0008000
v 0.0016000 0.0146560 0.0008000
v 0.0019000 0.0114560 0.0008000
v 0.0019000 0.0058560 0.0008000
v 0.0016000 0.0026560 0.0008000
v 0.0060000 0.0070560 0.0008000
v 0.0028000 0.0067560 0.0008000
v 0.0036000 0.0034560 0.0008000
v 0.0052000 0.0050560 0.0008000
v 0.0052000 0.0122560 0.0008000
v 0.0036000 0.0138560 0.0008000
v -0.0036000 0.0138560 0.0008000
v -0.0052000 0.0122560 0.0008000
v -0.0052000 0.0050560 0.0008000
v -0.0036000 0.0034560 0.0008000
v -0.0007767 0.0027552 0.0019000
v 0.0000000 0.0027040 0.0019000
v 0.0000000 0.0027040 -0.0019000
v -0.0007767 0.0027552 -0.0019000
v -0.0015404 0.0029070 0.0019000
v -0.0015404 0.0029070 -0.0019000
v -0.0022778 0.0031569 0.0019000
v -0.0022778 0.0031569 -0.0019000
v -0.0029760 0.0035016 0.0019000
v -0.0029760 0.0035016 -0.0019000
v -0.0036236 0.0039337 0.0019000
v -0.0036236 0.0039337 -0.0019000
v -0.0042087 0.0044473 0.0019000
v -0.0042087 0.0044473 -0.0019000
v -0.0047223 0.0050324 0.0019000
v -0.0047223 0.0050324 -0.0019000
v -0.0051544 0.0056800 0.0019000
v -0.0051544 0.0056800 -0.0019000
v -0.0054991 0.0063782 0.0019000
v -0.0054991 0.0063782 -0.0019000
v -0.0057490 0.0071156 0.0019000
v -0.0057490 0.0071156 -0.0019000
v -0.0059008 0.0078793 0.0019000
v -0.0059008 0.0078793 -0.0019000
v -0.0059520 0.0086560 0.0019000
v -0.0059520 0.0086560 -0.0019000
v -0.0059008 0.0094327 0.0019000
v -0.0059008 0.0094327 -0.0019000
v -0.0057490 0.0101964 0.0019000
v -0.0057490 0.0101964 -0.0019000
v -0.0054991 0.0109338 0.0019000
v -0.0054991 0.0109338 -0.0019000
v -0.0051544 0.0116320 0.0019000
v -0.0051544 0.0116320 -0.0019000
v -0.0047223 0.0122796 0.0019000
v -0.0047223 0.0122796 -0.0019000
v -0.0042087 0.0128647 0.0019000
v -0.0042087 0.0128647 -0.0019000
v -0.0036236 0.0133783 0.0019000
v -0.0036236 0.0133783 -0.0019000
v -0.0029760 0.0138104 0.0019000
v -0.0029760 0.0138104 -0.0019000
v -0.0022778 0.0141551 0.0019000
v -0.0022778 0.0141551 -0.0019000
v -0.0015404 0.0144050 0.0019000
v -0.0015404 0.0144050 -0.0019000
v -0.0007767 0.0145568 0.0019000
v -0.0007767 0.0145568 -0.0019000
v 0.0000000 0.0146080 0.0019000
v 0.0000000 0.0146080 -0.0019000
v 0.0007767 0.0145568 0.0019000
v 0.0007767 0.0145568 -0.0019000
v 0.0015404 0.0144050 0.0019000
v 0.0015404 0.0144050 -0.0019000
v 0.0022778 0.0141551 0.0019000
v 0.0022778 0.0141551 -0.0019000
v 0.0029760 0.0138104 0.0019000
v 0.0029760 0.0138104 -0.0019000
v 0.0036236 0.0133783 0.0019000
v 0.0036236 0.0133783 -0.0019000
v 0.0042087 0.0128647 0.0019000
v 0.0042087 0.0128647 -0.0019000
v 0.0047223 0.0122796 0.0019000
v 0.0047223 0.0122796 -0.0019000
v 0.0051544 0.0116320 0.0019000
v 0.0051544 0.0116320 -0.0019000
v 0.0054991 0.0109338 0.0019000
v 0.0054991 0.0109338 -0.0019000
v 0.0057490 0.0101964 0.0019000
v 0.0057490 0.0101964 -0.0019000
v 0.0059008 0.0094327 0.0019000
v 0.0059008 0.0094327 -0.0019000
v 0.0059520 0.0086560 0.0019000
v 0.0059520 0.0086560 -0.0019000
v 0.0059008 0.0078793 0.0019000
v 0.0059008 0.0078793 -0.0019000
v 0.0057490 0.0071156 0.0019000
v 0.0057490 0.0071156 -0.0019000
v 0.0054991 0.0063782 0.0019000
v 0.0054991 0.0063782 -0.0019000
v 0.0051544 0.0056800 0.0019000
v 0.0051544 0.0056800 -0.0019000
v 0.0047223 0.0050324 0.0019000
v 0.0047223 0.0050324 -0.0019000
v 0.0042087 0.0044473 0.0019000
v 0.0042087 0.0044473 -0.0019000
v 0.0036236 0.0039337 0.0019000
v 0.0036236 0.0039337 -0.0019000
v 0.0029760 0.0035016 0.0019000
v 0.0029760 0.0035016 -0.0019000
v 0.0022778 0.0031569 0.0019000
v 0.0022778 0.0031569 -0.0019000
v 0.0015404 0.0029070 0.0019000
v 0.0015404 0.0029070 -0.0019000
v 0.0007767 0.0027552 0.0019000
v 0.0007767 0.0027552 -0.0019000
v 0.0000000 0.0018560 -0.0019000
v 0.0000000 0.0018560 0.0019000
v -0.0008874 0.0019145 0.0019000
v -0.0008874 0.0019145 -0.0019000
v -0.0017598 0.0020879 0.0019000
v -0.0017598 0.0020879 -0.0019000
v -0.0026024 0.0023735 0.0019000
v -0.0026024 0.0023735 -0.0019000
v -0.0034000 0.0027672 0.0019000
v -0.0034000 0.0027672 -0.0019000
v -0.0041398 0.0032609 0.0019000
v -0.0041398 0.0032609 -0.0019000
v -0.0048083 0.0038477 0.0019000
v -0.0048083 0.0038477 -0.0019000
v -0.0053951 0.0045162 0.0019000
v -0.0053951 0.0045162 -0.0019000
v -0.0058888 0.0052560 0.0019000
v -0.0058888 0.0052560 -0.0019000
v -0.0062825 0.0060536 0.0019000
v -0.0062825 0.0060536 -0.0019000
v -0.0065681 0.0068962 0.0019000
v -0.0065681 0.0068962 -0.0019000
v -0.0067415 0.0077686 0.0019000
v -0.0067415 0.0077686 -0.0019000
v -0.0068000 0.0086560 0.0019000
v -0.0068000 0.0086560 -0.0019000
v -0.0067415 0.0095434 0.0019000
v -0.0067415 0.0095434 -0.0019000
v -0.0065681 0.0104158 0.0019000
v -0.0065681 0.0104158 -0.0019000
v -0.0062825 0.0112584 0.0019000
v -0.0062825 0.0112584 -0.0019000
v -0.0058888 0.0120560 0.0019000
v -0.0058888 0.0120560 -0.0019000
v -0.0053951 0.0127958 0.0019000
v -0.0053951 0.0127958 -0.0019000
v -0.0048083 0.0134643 0.0019000
v -0.0048083 0.0134643 -0.0019000
v -0.0041398 0.0140511 0.0019000
v -0.0041398 0.0140511 -0.0019000
v -0.0034000 0.0145448 0.0019000
v -0.0034000 0.0145448 -0.0019000
v -0.0026024 0.0149385 0.0019000
v -0.0026024 0.0149385 -0.0019000
v -0.0017598 0.0152241 0.0019000
v -0.0017598 0.0152241 -0.0019000
v -0.0008874 0.0153975 0.0019000
v -0.0008874 0.0153975 -0.0019000
v 0.0000000 0.0154560 0.0019000
v 0.0000000 0.0154560 -0.0019000
v 0.0008874 0.0153975 0.0019000
v 0.0008874 0.0153975 -0.0019000
v 0.0017598 0.0152241 0.0019000
v 0.0017598 0.0152241 -0.0019000
v 0.0026024 0.0149385 0.0019000
v 0.0026024 0.0149385 -0.0019000
v 0.0034000 0.0145448 0.0019000
v 0.0034000 0.0145448 -0.0019000
v 0.0041398 0.0140511 0.0019000
v 0.0041398 0.0140511 -0.0019000
v 0.0048083 0.0134643 0.0019000
v 0.0048083 0.0134643 -0.0019000
v 0.0053951 0.0127958 0.0019000
v 0.0053951 0.0127958 -0.0019000
v 0.0058888 0.0120560 0.0019000
v 0.0058888 0.0120560 -0.0019000
v 0.0062825 0.0112584 0.0019000
v 0.0062825 0.0112584 -0.0019000
v 0.0065681 0.0104158 0.0019000
v 0.0065681 0.0104158 -0.0019000
v 0.0067415 0.0095434 0.0019000
v 0.0067415 0.0095434 -0.0019000
v 0.0068000 0.0086560 0.0019000
v 0.0068000 0.0086560 -0.0019000
v 0.0067415 0.0077686 0.0019000
v 0.0067415 0.0077686 -0.0019000
v 0.0065681 0.0068962 0.0019000
v 0.0065681 0.0068962 -0.0019000
v 0.0062825 0.0060536 0.0019000
v 0.0062825 0.0060536 -0.0019000
v 0.0058888 0.0052560 0.0019000
v 0.0058888 0.0052560 -0.0019000
v 0.0053951 0.0045162 0.0019000
v 0.0053951 0.0045162 -0.0019000
v 0.0048083 0.0038477 0.0019000
v 0.0048083 0.0038477 -0.0019000
v 0.0041398 0.0032609 0.0019000
v 0.0041398 0.0032609 -0.0019000
v 0.0034000 0.0027672 0.0019000
v 0.0034000 0.0027672 -0.0019000
v 0.0026024 0.0023735 0.0019000
v 0.0026024 0.0023735 -0.0019000
v 0.0017598 0.0020879 0.0019000
v 0.0017598 0.0020879 -0.0019000
v 0.0008874 0.0019145 0.0019000
v 0.0008874 0.0019145 -0.0019000
v -0.0004000 0.0173120 -0.0019000
v -0.0004000 0.0173120 0.0019000
v 0.0004000 0.0173120 0.0019000
v 0.0004000 0.0173120 -0.0019000
v 0.0007504 0.0162720 0.0019000
v 0.0008000 0.0154196 0.0019000
v 0.0008000 0.0154196 -0.0019000
v 0.0007504 0.0162720 -0.0019000
v -0.0007504 0.0162720 0.0019000
v -0.0007504 0.0162720 -0.0019000
v -0.0008000 0.0154196 -0.0019000
v -0.0008000 0.0154196 0.0019000
v -0.0007500 0.0162720 -0.0019000
v 0.0007500 0.0162720 -0.0019000
v 0.0007500 0.0162720 0.0019000
v -0.0007500 0.0162720 0.0019000
v -0.0036821 0.0165001 -0.0019000
v -0.0036821 0.0165001 0.0019000
v -0.0029430 0.0168063 0.0019000
v -0.0029430 0.0168063 -0.0019000
v -0.0022213 0.0159795 0.0019000
v -0.0018492 0.0152109 0.0019000
v -0.0018492 0.0152109 -0.0019000
v -0.0022213 0.0159795 -0.0019000
v -0.0036079 0.0154051 0.0019000
v -0.0036079 0.0154051 -0.0019000
v -0.0033275 0.0145986 -0.0019000
v -0.0033275 0.0145986 0.0019000
v -0.0036075 0.0154053 -0.0019000
v -0.0022216 0.0159793 -0.0019000
v -0.0026084 0.0149532 -0.0019000
v -0.0026084 0.0149532 0.0019000
v -0.0022216 0.0159793 0.0019000
v -0.0036075 0.0154053 0.0019000
v -0.0064035 0.0144938 -0.0019000
v -0.0064035 0.0144938 0.0019000
v -0.0058378 0.0150595 0.0019000
v -0.0058378 0.0150595 -0.0019000
v -0.0048547 0.0145719 0.0019000
v -0.0042169 0.0140042 0.0019000
v -0.0042169 0.0140042 -0.0019000
v -0.0048547 0.0145719 -0.0019000
v -0.0059159 0.0135107 0.0019000
v -0.0059159 0.0135107 -0.0019000
v -0.0053482 0.0128729 -0.0019000
v -0.0053482 0.0128729 0.0019000
v -0.0059156 0.0135110 -0.0019000
v -0.0048550 0.0145716 -0.0019000
v -0.0048550 0.0145716 0.0019000
v -0.0059156 0.0135110 0.0019000
v -0.0081503 0.0115990 -0.0019000
v -0.0081503 0.0115990 0.0019000
v -0.0078441 0.0123381 0.0019000
v -0.0078441 0.0123381 -0.0019000
v -0.0067491 0.0122639 0.0019000
v -0.0059426 0.0119835 0.0019000
v -0.0059426 0.0119835 -0.0019000
v -0.0067491 0.0122639 -0.0019000
v -0.0073235 0.0108773 0.0019000
v -0.0073235 0.0108773 -0.0019000
v -0.0065549 0.0105052 -0.0019000
v -0.0065549 0.0105052 0.0019000
v -0.0073233 0.0108776 -0.0019000
v -0.0067493 0.0122635 -0.0019000
v -0.0062972 0.0112644 -0.0019000
v -0.0062972 0.0112644 0.0019000
v -0.0067493 0.0122635 0.0019000
v -0.0073233 0.0108776 0.0019000
v -0.0086560 0.0082560 -0.0019000
v -0.0086560 0.0082560 0.0019000
v -0.0086560 0.0090560 0.0019000
v -0.0086560 0.0090560 -0.0019000
v -0.0076160 0.0094064 0.0019000
v -0.0067636 0.0094560 0.0019000
v -0.0067636 0.0094560 -0.0019000
v -0.0076160 0.0094064 -0.0019000
v -0.0076160 0.0079056 0.0019000
v -0.0076160 0.0079056 -0.0019000
v -0.0067636 0.0078560 -0.0019000
v -0.0067636 0.0078560 0.0019000
v -0.0076160 0.0079060 -0.0019000
v -0.0076160 0.0094060 -0.0019000
v -0.0076160 0.0094060 0.0019000
v -0.0076160 0.0079060 0.0019000
v -0.0078441 0.0049739 -0.0019000
v -0.0078441 0.0049739 0.0019000
v -0.0081503 0.0057130 0.0019000
v -0.0081503 0.0057130 -0.0019000
v -0.0073235 0.0064347 0.0019000
v -0.0065549 0.0068068 0.0019000
v -0.0065549 0.0068068 -0.0019000
v -0.0073235 0.0064347 -0.0019000
v -0.0067491 0.0050481 0.0019000
v -0.0067491 0.0050481 -0.0019000
v -0.0059426 0.0053285 -0.0019000
v -0.0059426 0.0053285 0.0019000
v -0.0067493 0.0050485 -0.0019000
v -0.0073233 0.0064344 -0.0019000
v -0.0062972 0.0060476 -0.0019000
v -0.0062972 0.0060476 0.0019000
v -0.0073233 0.0064344 0.0019000
v -0.0067493 0.0050485 0.0019000
v -0.0058378 0.0022525 -0.0019000
v -0.0058378 0.0022525 0.0019000
v -0.0064035 0.0028182 0.0019000
v -0.0064035 0.0028182 -0.0019000
v -0.0059159 0.0038013 0.0019000
v -0.0053482 0.0044391 0.0019000
v -0.0053482 0.0044391 -0.0019000
v -0.0059159 0.0038013 -0.0019000
v -0.0048547 0.0027401 0.0019000
v -0.0048547 0.0027401 -0.0019000
v -0.0042169 0.0033078 -0.0019000
v -0.0042169 0.0033078 0.0019000
v -0.0048550 0.0027404 -0.0019000
v -0.0059156 0.0038010 -0.0019000
v -0.0059156 0.0038010 0.0019000
v -0.0048550 0.0027404 0.0019000
v -0.0029430 0.0005057 -0.0019000
v -0.0029430 0.0005057 0.0019000
v -0.0036821 0.0008119 0.0019000
v -0.0036821 0.0008119 -0.0019000
v -0.0036079 0.0019069 0.0019000
v -0.0033275 0.0027134 0.0019000
v -0.0033275 0.0027134 -0.0019000
v -0.0036079 0.0019069 -0.0019000
v -0.0022213 0.0013325 0.0019000
v -0.0022213 0.0013325 -0.0019000
v -0.0018492 0.0021011 -0.0019000
v -0.0018492 0.0021011 0.0019000
v -0.0022216 0.0013327 -0.0019000
v -0.0036075 0.0019067 -0.0019000
v -0.0026084 0.0023588 -0.0019000
v -0.0026084 0.0023588 0.0019000
v -0.0036075 0.0019067 0.0019000
v -0.0022216 0.0013327 0.0019000
v 0.0004000 0.0000000 -0.0019000
v 0.0004000 0.0000000 0.0019000
v -0.0004000 0.0000000 0.0019000
v -0.0004000 0.0000000 -0.0019000
v -0.0007504 0.0010400 0.0019000
v -0.0008000 0.0018924 0.0019000
v -0.0008000 0.0018924 -0.0019000
v -0.0007504 0.0010400 -0.0019000
v 0.0007504 0.0010400 0.0019000
v 0.0007504 0.0010400 -0.0019000
v 0.0008000 0.0018924 -0.0019000
v 0.0008000 0.0018924 0.0019000
v 0.0007500 0.0010400 -0.0019000
v -0.0007500 0.0010400 -0.0019000
v -0.0007500 0.0010400 0.0019000
v 0.0007500 0.0010400 0.0019000
v 0.0036821 0.0008119 -0.0019000
v 0.0036821 0.0008119 0.0019000
v 0.0029430 0.0005057 0.0019000
v 0.0029430 0.0005057 -0.0019000
v 0.0022213 0.0013325 0.0019000
v 0.0018492 0.0021011 0.0019000
v 0.0018492 0.0021011 -0.0019000
v 0.0022213 0.0013325 -0.0019000
v 0.0036079 0.0019069 0.0019000
v 0.0036079 0.0019069 -0.0019000
v 0.0033275 0.0027134 -0.0019000
v 0.0033275 0.0027134 0.0019000
v 0.0036075 0.0019067 -0.0019000
v 0.0022216 0.0013327 -0.0019000
v 0.0026084 0.0023588 -0.0019000
v 0.0026084 0.0023588 0.0019000
v 0.0022216 0.0013327 0.0019000
v 0.0036075 0.0019067 0.0019000
v 0.0064035 0.0028182 -0.0019000
v 0.0064035 0.0028182 0.0019000
v 0.0058378 0.0022525 0.0019000
v 0.0058378 0.0022525 -0.0019000
v 0.0048547 0.0027401 0.0019000
v 0.0042169 0.0033078 0.0019000
v 0.0042169 0.0033078 -0.0019000
v 0.0048547 0.0027401 -0.0019000
v 0.0059159 0.0038013 0.0019000
v 0.0059159 0.0038013 -0.0019000
v 0.0053482 0.0044391 -0.0019000
v 0.0053482 0.0044391 0.0019000
v 0.0059156 0.0038010 -0.0019000
v 0.0048550 0.0027404 -0.0019000
v 0.0048550 0.0027404 0.0019000
v 0.0059156 0.0038010 0.0019000
v 0.0081503 0.0057130 -0.0019000
v 0.0081503 0.0057130 0.0019000
v 0.0078441 0.0049739 0.0019000
v 0.0078441 0.0049739 -0.0019000
v 0.0067491 0.0050481 0.0019000
v 0.0059426 0.0053285 0.0019000
v 0.0059426 0.0053285 -0.0019000
v 0.0067491 0.0050481 -0.0019000
v 0.0073235 0.0064347 0.0019000
v 0.0073235 0.0064347 -0.0019000
v 0.0065549 0.0068068 -0.0019000
v 0.0065549 0.0068068 0.0019000
v 0.0073233 0.0064344 -0.0019000
v 0.0067493 0.0050485 -0.0019000
v 0.0062972 0.0060476 -0.0019000
v 0.0062972 0.0060476 0.0019000
v 0.0067493 0.0050485 0.0019000
v 0.0073233 0.0064344 0.0019000
v 0.0086560 0.0090560 -0.0019000
v 0.0086560 0.0090560 0.0019000
v 0.0086560 0.0082560 0.0019000
v 0.0086560 0.0082560 -0.0019000
v 0.0076160 0.0079056 0.0019000
v 0.0067636 0.0078560 0.0019000
v 0.0067636 0.0078560 -0.0019000
v 0.0076160 0.0079056 -0.0019000
v 0.0076160 0.0094064 0.0019000
v 0.0076160 0.0094064 -0.0019000
v 0.0067636 0.0094560 -0.0019000
v 0.0067636 0.0094560 0.0019000
v 0.0076160 0.0094060 -0.0019000
v 0.0076160 0.0079060 -0.0019000
v 0.0076160 0.0079060 0.0019000
v 0.0076160 0.0094060 0.0019000
v 0.0078441 0.0123381 -0.0019000
v 0.0078441 0.0123381 0.0019000
v 0.0081503 0.0115990 0.0019000
v 0.0081503 0.0115990 -0.0019000
v 0.0073235 0.0108773 0.0019000
v 0.0065549 0.0105052 0.0019000
v 0.0065549 0.0105052 -0.0019000
v 0.0073235 0.0108773 -0.0019000
v 0.0067491 0.0122639 0.0019000
v 0.0067491 0.0122639 -0.0019000
v 0.0059426 0.0119835 -0.0019000
v 0.0059426 0.0119835 0.0019000
v 0.0067493 0.0122635 -0.0019000
v 0.0073233 0.0108776 -0.0019000
v 0.0062972 0.0112644 -0.0019000
v 0.0062972 0.0112644 0.0019000
v 0.0073233 0.0108776 0.0019000
v 0.0067493 0.0122635 0.0019000
v 0.0058378 0.0150595 -0.0019000
v 0.0058378 0.0150595 0.0019000
v 0.0064035 0.0144938 0.0019000
v 0.0064035 0.0144938 -0.0019000
v 0.0059159 0.0135107 0.0019000
v 0.0053482 0.0128729 0.0019000
v 0.0053482 0.0128729 -0.0019000
v 0.0059159 0.0135107 -0.0019000
v 0.0048547 0.0145719 0.0019000
v 0.0048547 0.0145719 -0.0019000
v 0.0042169 0.0140042 -0.0019000
v 0.0042169 0.0140042 0.0019000
v 0.0048550 0.0145716 -0.0019000
v 0.0059156 0.0135110 -0.0019000
v 0.0059156 0.0135110 0.0019000
v 0.0048550 0.0145716 0.0019000
v 0.0029430 0.0168063 -0.0019000
v 0.0029430 0.0168063 0.0019000
v 0.0036821 0.0165001 0.0019000
v 0.0036821 0.0165001 -0.0019000
v 0.0036079 0.0154051 0.0019000
v 0.0033275 0.0145986 0.0019000
v 0.0033275 0.0145986 -0.0019000
v 0.0036079 0.0154051 -0.0019000
v 0.0022213 0.0159795 0.0019000
v 0.0022213 0.0159795 -0.0019000
v 0.0018492 0.0152109 -0.0019000
v 0.0018492 0.0152109 0.0019000
v 0.0022216 0.0159793 -0.0019000
v 0.0036075 0.0154053 -0.0019000
v 0.0026084 0.0149532 -0.0019000
v 0.0026084 0.0149532 0.0019000
v 0.0036075 0.0154053 0.0019000
v 0.0022216 0.0159793 0.0019000
f 1 2 3
f 4 5 6
f 7 8 9
f 7 9 10
f 11 12 8
f 11 8 7
f 13 10 9
f 13 9 14
f 14 15 16
f 14 16 13
f 16 17 10
f 16 10 13
f 18 10 17
f 10 18 11
f 10 11 7
f 9 19 15
f 9 15 14
f 19 9 20
f 12 20 9
f 12 9 8
f 21 22 23
f 24 25 26
f 27 28 29
f 27 29 30
f 31 32 28
f 31 28 27
f 33 30 29
f 33 29 34
f 34 35 36
f 34 36 33
f 36 37 30
f 36 30 33
f 38 30 37
f 30 38 31
f 30 31 27
f 29 39 35
f 29 35 34
f 39 29 40
f 32 40 29
f 32 29 28
f 41 42 43
f 44 45 46
f 47 48 49
f 47 49 50
f 51 52 48
f 51 48 47
f 53 50 49
f 53 49 54
f 54 55 56
f 54 56 53
f 56 57 50
f 56 50 53
f 58 50 57
f 50 58 51
f 50 51 47
f 49 59 55
f 49 55 54
f 59 49 60
f 52 60 49
f 52 49 48
f 61 62 63
f 64 65 66
f 67 68 69
f 67 69 70
f 71 72 68
f 71 68 67
f 73 70 69
f 73 69 74
f 74 75 76
f 74 76 73
f 76 77 70
f 76 70 73
f 78 70 77
f 70 78 71
f 70 71 67
f 69 79 75
f 69 75 74
f 79 69 80
f 72 80 69
f 72 69 68
f 81 82 83
f 81 83 84
f 85 86 87
f 85 87 88
f 89 90 91
f 89 91 92
f 93 94 95
f 93 95 96
f 97 98 99
f 97 99 100
f 101 102 103
f 101 103 104
f 105 106 107
f 105 107 108
f 109 110 111
f 109 111 112
f 113 114 86
f 113 86 115
f 87 116 117
f 118 87 117
f 119 120 90
f 119 90 121
f 91 122 123
f 124 91 123
f 125 126 94
f 125 94 127
f 95 128 129
f 130 95 129
f 131 132 82
f 131 82 133
f 83 134 135
f 136 83 135
f 137 138 139
f 137 139 103
f 140 141 142
f 102 140 142
f 143 144 145
f 143 145 107
f 146 147 148
f 106 146 148
f 149 150 151
f 149 151 111
f 152 153 154
f 110 152 154
f 155 156 157
f 155 157 99
f 158 159 160
f 98 158 160
f 161 162 163
f 164 161 163
f 162 165 166
f 163 162 166
f 165 167 168
f 166 165 168
f 167 169 170
f 168 167 170
f 169 171 172
f 170 169 172
f 171 173 174
f 172 171 174
f 173 175 176
f 174 173 176
f 175 177 178
f 176 175 178
f 177 179 180
f 178 177 180
f 179 181 182
f 180 179 182
f 181 183 184
f 182 181 184
f 183 185 186
f 184 183 186
f 187 188 189
f 190 187 189
f 188 191 192
f 189 188 192
f 191 193 194
f 192 191 194
f 193 195 196
f 194 193 196
f 195 197 198
f 196 195 198
f 197 199 200
f 198 197 200
f 199 201 202
f 200 199 202
f 201 203 204
f 202 201 204
f 203 205 206
f 204 203 206
f 205 207 208
f 206 205 208
f 207 209 210
f 208 207 210
f 209 211 212
f 210 209 212
f 213 214 215
f 216 213 215
f 214 217 218
f 215 214 218
f 217 219 220
f 218 217 220
f 219 221 222
f 220 219 222
f 221 223 224
f 222 221 224
f 223 225 226
f 224 223 226
f 225 227 228
f 226 225 228
f 227 229 230
f 228 227 230
f 229 231 232
f 230 229 232
f 231 233 234
f 232 231 234
f 233 235 236
f 234 233 236
f 235 237 238
f 236 235 238
f 239 240 241
f 242 239 241
f 240 243 244
f 241 240 244
f 243 245 246
f 244 243 246
f 245 247 248
f 246 245 248
f 247 249 250
f 248 247 250
f 249 251 252
f 250 249 252
f 251 253 254
f 252 251 254
f 253 255 256
f 254 253 256
f 255 257 258
f 256 255 258
f 257 259 260
f 258 257 260
f 259 261 262
f 260 259 262
f 261 263 264
f 262 261 264
f 265 266 267
f 268 265 267
f 266 269 270
f 267 266 270
f 269 271 272
f 270 269 272
f 271 273 274
f 272 271 274
f 273 275 276
f 274 273 276
f 275 277 278
f 276 275 278
f 277 279 280
f 278 277 280
f 279 281 282
f 280 279 282
f 281 283 284
f 282 281 284
f 283 285 286
f 284 283 286
f 285 287 288
f 286 285 288
f 287 289 290
f 288 287 290
f 291 292 293
f 294 291 293
f 292 295 296
f 293 292 296
f 295 297 298
f 296 295 298
f 297 299 300
f 298 297 300
f 299 301 302
f 300 299 302
f 301 303 304
f 302 301 304
f 303 305 306
f 304 303 306
f 305 307 308
f 306 305 308
f 307 309 310
f 308 307 310
f 309 311 312
f 310 309 312
f 311 313 314
f 312 311 314
f 313 315 316
f 314 313 316
f 317 318 319
f 320 317 319
f 318 321 322
f 319 318 322
f 321 323 324
f 322 321 324
f 323 325 326
f 324 323 326
f 325 327 328
f 326 325 328
f 327 329 330
f 328 327 330
f 329 331 332
f 330 329 332
f 331 333 334
f 332 331 334
f 333 335 336
f 334 333 336
f 335 337 338
f 336 335 338
f 337 339 340
f 338 337 340
f 339 341 342
f 340 339 342
f 343 344 345
f 346 343 345
f 344 347 348
f 345 344 348
f 347 349 350
f 348 347 350
f 349 351 352
f 350 349 352
f 351 353 354
f 352 351 354
f 353 355 356
f 354 353 356
f 355 357 358
f 356 355 358
f 357 359 360
f 358 357 360
f 359 361 362
f 360 359 362
f 361 363 364
f 362 361 364
f 363 365 366
f 364 363 366
f 365 367 368
f 366 365 368
f 369 370 371
f 369 371 372
f 370 373 374
f 370 374 371
f 373 375 376
f 373 376 374
f 375 377 378
f 375 378 376
f 377 379 380
f 377 380 378
f 379 381 382
f 379 382 380
f 381 383 384
f 381 384 382
f 383 385 386
f 383 386 384
f 385 387 388
f 385 388 386
f 387 389 390
f 387 390 388
f 389 391 392
f 389 392 390
f 391 393 394
f 391 394 392
f 395 396 397
f 395 397 398
f 396 399 400
f 396 400 397
f 399 401 402
f 399 402 400
f 401 403 404
f 401 404 402
f 403 405 406
f 403 406 404
f 405 407 408
f 405 408 406
f 407 409 410
f 407 410 408
f 409 411 412
f 409 412 410
f 411 413 414
f 411 414 412
f 413 415 416
f 413 416 414
f 415 417 418
f 415 418 416
f 417 419 420
f 417 420 418
f 421 422 423
f 421 423 424
f 422 425 426
f 422 426 423
f 425 427 428
f 425 428 426
f 427 429 430
f 427 430 428
f 429 431 432
f 429 432 430
f 431 433 434
f 431 434 432
f 433 435 436
f 433 436 434
f 435 437 438
f 435 438 436
f 437 439 440
f 437 440 438
f 439 441 442
f 439 442 440
f 441 443 444
f 441 444 442
f 443 445 446
f 443 446 444
f 447 448 449
f 447 449 450
f 448 451 452
f 448 452 449
f 451 453 454
f 451 454 452
f 453 455 456
f 453 456 454
f 455 457 458
f 455 458 456
f 457 459 460
f 457 460 458
f 459 461 462
f 459 462 460
f 461 463 464
f 461 464 462
f 463 465 466
f 463 466 464
f 465 467 468
f 465 468 466
f 467 469 470
f 467 470 468
f 469 471 472
f 469 472 470
f 473 474 475
f 476 473 475
f 477 478 474
f 473 477 474
f 479 480 478
f 477 479 478
f 481 482 480
f 479 481 480
f 483 484 482
f 481 483 482
f 485 486 484
f 483 485 484
f 487 488 486
f 485 487 486
f 489 490 488
f 487 489 488
f 491 492 490
f 489 491 490
f 493 494 492
f 491 493 492
f 495 496 494
f 493 495 494
f 497 498 496
f 495 497 496
f 499 500 501
f 502 499 501
f 503 504 500
f 499 503 500
f 505 506 504
f 503 505 504
f 507 508 506
f 505 507 506
f 509 510 508
f 507 509 508
f 511 512 510
f 509 511 510
f 513 514 512
f 511 513 512
f 515 516 514
f 513 515 514
f 517 518 516
f 515 517 516
f 519 520 518
f 517 519 518
f 521 522 520
f 519 521 520
f 523 524 522
f 521 523 522
f 525 526 527
f 528 525 527
f 529 530 526
f 525 529 526
f 531 532 530
f 529 531 530
f 533 534 532
f 531 533 532
f 535 536 534
f 533 535 534
f 537 538 536
f 535 537 536
f 539 540 538
f 537 539 538
f 541 542 540
f 539 541 540
f 543 544 542
f 541 543 542
f 545 546 544
f 543 545 544
f 547 548 546
f 545 547 546
f 549 550 548
f 547 549 548
f 551 552 553
f 554 551 553
f 555 556 552
f 551 555 552
f 557 558 556
f 555 557 556
f 559 560 558
f 557 559 558
f 561 562 560
f 559 561 560
f 563 564 562
f 561 563 562
f 565 566 564
f 563 565 564
f 567 568 566
f 565 567 566
f 569 570 568
f 567 569 568
f 571 572 570
f 569 571 570
f 573 574 572
f 571 573 572
f 575 576 574
f 573 575 574
f 577 578 579
f 577 579 580
f 578 581 582
f 578 582 579
f 581 583 584
f 581 584 582
f 583 585 586
f 583 586 584
f 585 587 588
f 585 588 586
f 587 589 590
f 587 590 588
f 589 591 592
f 589 592 590
f 591 593 594
f 591 594 592
f 593 595 596
f 593 596 594
f 595 597 598
f 595 598 596
f 597 599 600
f 597 600 598
f 599 601 602
f 599 602 600
f 601 603 604
f 601 604 602
f 603 605 606
f 603 606 604
f 605 607 608
f 605 608 606
f 607 609 610
f 607 610 608
f 609 611 612
f 609 612 610
f 611 613 614
f 611 614 612
f 613 615 616
f 613 616 614
f 615 617 618
f 615 618 616
f 617 619 620
f 617 620 618
f 619 621 622
f 619 622 620
f 621 623 624
f 621 624 622
f 623 625 626
f 623 626 624
f 625 627 628
f 625 628 626
f 627 629 630
f 627 630 628
f 629 631 632
f 629 632 630
f 631 633 634
f 631 634 632
f 633 635 636
f 633 636 634
f 635 637 638
f 635 638 636
f 637 639 640
f 637 640 638
f 639 641 642
f 639 642 640
f 641 643 644
f 641 644 642
f 643 645 646
f 643 646 644
f 645 647 648
f 645 648 646
f 647 649 650
f 647 650 648
f 649 651 652
f 649 652 650
f 651 653 654
f 651 654 652
f 653 655 656
f 653 656 654
f 655 657 658
f 655 658 656
f 657 659 660
f 657 660 658
f 659 661 662
f 659 662 660
f 661 663 664
f 661 664 662
f 663 665 666
f 663 666 664
f 665 667 668
f 665 668 666
f 667 669 670
f 667 670 668
f 669 671 672
f 669 672 670
f 671 577 580
f 671 580 672
f 673 674 675
f 676 673 675
f 677 678 674
f 673 677 674
f 679 680 678
f 677 679 678
f 681 682 680
f 679 681 680
f 683 684 682
f 681 683 682
f 685 686 684
f 683 685 684
f 687 688 686
f 685 687 686
f 689 690 688
f 687 689 688
f 691 692 690
f 689 691 690
f 693 694 692
f 691 693 692
f 695 696 694
f 693 695 694
f 697 698 696
f 695 697 696
f 699 700 698
f 697 699 698
f 701 702 700
f 699 701 700
f 703 704 702
f 701 703 702
f 705 706 704
f 703 705 704
f 707 708 706
f 705 707 706
f 709 710 708
f 707 709 708
f 711 712 710
f 709 711 710
f 713 714 712
f 711 713 712
f 715 716 714
f 713 715 714
f 717 718 716
f 715 717 716
f 719 720 718
f 717 719 718
f 721 722 720
f 719 721 720
f 723 724 722
f 721 723 722
f 725 726 724
f 723 725 724
f 727 728 726
f 725 727 726
f 729 730 728
f 727 729 728
f 731 732 730
f 729 731 730
f 733 734 732
f 731 733 732
f 735 736 734
f 733 735 734
f 737 738 736
f 735 737 736
f 739 740 738
f 737 739 738
f 741 742 740
f 739 741 740
f 743 744 742
f 741 743 742
f 745 746 744
f 743 745 744
f 747 748 746
f 745 747 746
f 749 750 748
f 747 749 748
f 751 752 750
f 749 751 750
f 753 754 752
f 751 753 752
f 755 756 754
f 753 755 754
f 757 758 756
f 755 757 756
f 759 760 758
f 757 759 758
f 761 762 760
f 759 761 760
f 763 764 762
f 761 763 762
f 765 766 764
f 763 765 764
f 767 768 766
f 765 767 766
f 676 675 768
f 767 676 768
f 125 129 153
f 125 153 150
f 119 123 147
f 119 147 144
f 131 135 159
f 131 159 156
f 113 117 141
f 113 141 138
f 139 138 141
f 139 141 140
f 145 144 147
f 145 147 146
f 151 150 153
f 151 153 152
f 157 156 159
f 157 159 158
f 124 123 119
f 124 119 121
f 130 129 125
f 130 125 127
f 136 135 131
f 136 131 133
f 118 117 113
f 118 113 115
f 88 87 102
f 88 102 101
f 86 85 104
f 86 104 103
f 92 91 106
f 92 106 105
f 90 89 108
f 90 108 107
f 96 95 110
f 96 110 109
f 94 93 112
f 94 112 111
f 84 83 98
f 84 98 97
f 82 81 100
f 82 100 99
f 769 770 771
f 769 771 772
f 773 774 775
f 773 775 776
f 777 778 779
f 777 779 780
f 781 782 783
f 781 783 784
f 785 786 783
f 785 783 782
f 787 788 779
f 787 779 778
f 789 790 775
f 789 775 774
f 791 792 771
f 791 771 770
f 793 794 795
f 793 795 796
f 797 798 799
f 797 799 800
f 801 802 803
f 801 803 804
f 805 806 807
f 805 807 808
f 809 810 807
f 809 807 806
f 811 812 803
f 811 803 802
f 813 814 799
f 813 799 798
f 815 816 795
f 815 795 794
f 817 818 819
f 817 819 820
f 821 817 820
f 821 820 822
f 823 821 822
f 823 822 824
f 825 823 824
f 825 824 826
f 827 825 826
f 827 826 828
f 829 827 828
f 829 828 830
f 831 829 830
f 831 830 832
f 833 831 832
f 833 832 834
f 835 833 834
f 835 834 836
f 837 835 836
f 837 836 838
f 839 837 838
f 839 838 840
f 841 839 840
f 841 840 842
f 843 841 842
f 843 842 844
f 845 843 844
f 845 844 846
f 847 845 846
f 847 846 848
f 849 847 848
f 849 848 850
f 851 849 850
f 851 850 852
f 853 851 852
f 853 852 854
f 855 853 854
f 855 854 856
f 857 855 856
f 857 856 858
f 859 857 858
f 859 858 860
f 861 859 860
f 861 860 862
f 863 861 862
f 863 862 864
f 865 863 864
f 865 864 866
f 867 865 866
f 867 866 868
f 869 867 868
f 869 868 870
f 871 869 870
f 871 870 872
f 873 871 872
f 873 872 874
f 875 873 874
f 875 874 876
f 877 875 876
f 877 876 878
f 879 877 878
f 879 878 880
f 881 879 880
f 881 880 882
f 883 881 882
f 883 882 884
f 885 883 884
f 885 884 886
f 887 885 886
f 887 886 888
f 889 887 888
f 889 888 890
f 891 889 890
f 891 890 892
f 893 891 892
f 893 892 894
f 895 893 894
f 895 894 896
f 897 895 896
f 897 896 898
f 899 897 898
f 899 898 900
f 901 899 900
f 901 900 902
f 903 901 902
f 903 902 904
f 905 903 904
f 905 904 906
f 907 905 906
f 907 906 908
f 909 907 908
f 909 908 910
f 911 909 910
f 911 910 912
f 818 911 912
f 818 912 819
f 913 914 915
f 916 913 915
f 916 915 917
f 918 916 917
f 918 917 919
f 920 918 919
f 920 919 921
f 922 920 921
f 922 921 923
f 924 922 923
f 924 923 925
f 926 924 925
f 926 925 927
f 928 926 927
f 928 927 929
f 930 928 929
f 930 929 931
f 932 930 931
f 932 931 933
f 934 932 933
f 934 933 935
f 936 934 935
f 936 935 937
f 938 936 937
f 938 937 939
f 940 938 939
f 940 939 941
f 942 940 941
f 942 941 943
f 944 942 943
f 944 943 945
f 946 944 945
f 946 945 947
f 948 946 947
f 948 947 949
f 950 948 949
f 950 949 951
f 952 950 951
f 952 951 953
f 954 952 953
f 954 953 955
f 956 954 955
f 956 955 957
f 958 956 957
f 958 957 959
f 960 958 959
f 960 959 961
f 962 960 961
f 962 961 963
f 964 962 963
f 964 963 965
f 966 964 965
f 966 965 967
f 968 966 967
f 968 967 969
f 970 968 969
f 970 969 971
f 972 970 971
f 972 971 973
f 974 972 973
f 974 973 975
f 976 974 975
f 976 975 977
f 978 976 977
f 978 977 979
f 980 978 979
f 980 979 981
f 982 980 981
f 982 981 983
f 984 982 983
f 984 983 985
f 986 984 985
f 986 985 987
f 988 986 987
f 988 987 989
f 990 988 989
f 990 989 991
f 992 990 991
f 992 991 993
f 994 992 993
f 994 993 995
f 996 994 995
f 996 995 997
f 998 996 997
f 998 997 999
f 1000 998 999
f 1000 999 1001
f 1002 1000 1001
f 1002 1001 1003
f 1004 1002 1003
f 1004 1003 1005
f 1006 1004 1005
f 1006 1005 1007
f 1008 1006 1007
f 1008 1007 914
f 913 1008 914
f 1009 1010 1011
f 1009 1011 1012
f 1013 1014 1015
f 1016 1013 1015
f 1017 1018 1019
f 1020 1017 1019
f 1021 1022 1015
f 625 1021 1015
f 625 1019 1021
f 722 1014 1023
f 1020 722 1023
f 1024 1020 1023
f 1013 1016 1012
f 1011 1013 1012
f 1018 1017 1010
f 1009 1018 1010
f 1021 1009 1012
f 1022 1021 1012
f 1023 1011 1010
f 1024 1023 1010
f 1025 1026 1027
f 1025 1027 1028
f 1029 1030 1031
f 1032 1029 1031
f 1033 1034 1035
f 1036 1033 1035
f 1037 1038 1031
f 1039 1037 1031
f 1039 1035 1037
f 1040 1030 1041
f 1036 1040 1041
f 1042 1036 1041
f 1029 1032 1028
f 1027 1029 1028
f 1034 1033 1026
f 1025 1034 1026
f 1037 1025 1028
f 1038 1037 1028
f 1041 1027 1026
f 1042 1041 1026
f 1043 1044 1045
f 1043 1045 1046
f 1047 1048 1049
f 1050 1047 1049
f 1051 1052 1053
f 1054 1051 1053
f 1055 1056 1049
f 613 1055 1049
f 613 1053 1055
f 710 1048 1057
f 1054 710 1057
f 1058 1054 1057
f 1047 1050 1046
f 1045 1047 1046
f 1052 1051 1044
f 1043 1052 1044
f 1055 1043 1046
f 1056 1055 1046
f 1057 1045 1044
f 1058 1057 1044
f 1059 1060 1061
f 1059 1061 1062
f 1063 1064 1065
f 1066 1063 1065
f 1067 1068 1069
f 1070 1067 1069
f 1071 1072 1065
f 1073 1071 1065
f 1073 1069 1071
f 1074 1064 1075
f 1070 1074 1075
f 1076 1070 1075
f 1063 1066 1062
f 1061 1063 1062
f 1068 1067 1060
f 1059 1068 1060
f 1071 1059 1062
f 1072 1071 1062
f 1075 1061 1060
f 1076 1075 1060
f 1077 1078 1079
f 1077 1079 1080
f 1081 1082 1083
f 1084 1081 1083
f 1085 1086 1087
f 1088 1085 1087
f 1089 1090 1083
f 601 1089 1083
f 601 1087 1089
f 698 1082 1091
f 1088 698 1091
f 1092 1088 1091
f 1081 1084 1080
f 1079 1081 1080
f 1086 1085 1078
f 1077 1086 1078
f 1089 1077 1080
f 1090 1089 1080
f 1091 1079 1078
f 1092 1091 1078
f 1093 1094 1095
f 1093 1095 1096
f 1097 1098 1099
f 1100 1097 1099
f 1101 1102 1103
f 1104 1101 1103
f 1105 1106 1099
f 1107 1105 1099
f 1107 1103 1105
f 1108 1098 1109
f 1104 1108 1109
f 1110 1104 1109
f 1097 1100 1096
f 1095 1097 1096
f 1102 1101 1094
f 1093 1102 1094
f 1105 1093 1096
f 1106 1105 1096
f 1109 1095 1094
f 1110 1109 1094
f 1111 1112 1113
f 1111 1113 1114
f 1115 1116 1117
f 1118 1115 1117
f 1119 1120 1121
f 1122 1119 1121
f 1123 1124 1117
f 589 1123 1117
f 589 1121 1123
f 686 1116 1125
f 1122 686 1125
f 1126 1122 1125
f 1115 1118 1114
f 1113 1115 1114
f 1120 1119 1112
f 1111 1120 1112
f 1123 1111 1114
f 1124 1123 1114
f 1125 1113 1112
f 1126 1125 1112
f 1127 1128 1129
f 1127 1129 1130
f 1131 1132 1133
f 1134 1131 1133
f 1135 1136 1137
f 1138 1135 1137
f 1139 1140 1133
f 1141 1139 1133
f 1141 1137 1139
f 1142 1132 1143
f 1138 1142 1143
f 1144 1138 1143
f 1131 1134 1130
f 1129 1131 1130
f 1136 1135 1128
f 1127 1136 1128
f 1139 1127 1130
f 1140 1139 1130
f 1143 1129 1128
f 1144 1143 1128
f 1145 1146 1147
f 1145 1147 1148
f 1149 1150 1151
f 1152 1149 1151
f 1153 1154 1155
f 1156 1153 1155
f 1157 1158 1151
f 577 1157 1151
f 577 1155 1157
f 675 1150 1159
f 1156 675 1159
f 1160 1156 1159
f 1149 1152 1148
f 1147 1149 1148
f 1154 1153 1146
f 1145 1154 1146
f 1157 1145 1148
f 1158 1157 1148
f 1159 1147 1146
f 1160 1159 1146
f 1161 1162 1163
f 1161 1163 1164
f 1165 1166 1167
f 1168 1165 1167
f 1169 1170 1171
f 1172 1169 1171
f 1173 1174 1167
f 1175 1173 1167
f 1175 1171 1173
f 1176 1166 1177
f 1172 1176 1177
f 1178 1172 1177
f 1165 1168 1164
f 1163 1165 1164
f 1170 1169 1162
f 1161 1170 1162
f 1173 1161 1164
f 1174 1173 1164
f 1177 1163 1162
f 1178 1177 1162
f 1179 1180 1181
f 1179 1181 1182
f 1183 1184 1185
f 1186 1183 1185
f 1187 1188 1189
f 1190 1187 1189
f 1191 1192 1185
f 661 1191 1185
f 661 1189 1191
f 758 1184 1193
f 1190 758 1193
f 1194 1190 1193
f 1183 1186 1182
f 1181 1183 1182
f 1188 1187 1180
f 1179 1188 1180
f 1191 1179 1182
f 1192 1191 1182
f 1193 1181 1180
f 1194 1193 1180
f 1195 1196 1197
f 1195 1197 1198
f 1199 1200 1201
f 1202 1199 1201
f 1203 1204 1205
f 1206 1203 1205
f 1207 1208 1201
f 1209 1207 1201
f 1209 1205 1207
f 1210 1200 1211
f 1206 1210 1211
f 1212 1206 1211
f 1199 1202 1198
f 1197 1199 1198
f 1204 1203 1196
f 1195 1204 1196
f 1207 1195 1198
f 1208 1207 1198
f 1211 1197 1196
f 1212 1211 1196
f 1213 1214 1215
f 1213 1215 1216
f 1217 1218 1219
f 1220 1217 1219
f 1221 1222 1223
f 1224 1221 1223
f 1225 1226 1219
f 649 1225 1219
f 649 1223 1225
f 746 1218 1227
f 1224 746 1227
f 1228 1224 1227
f 1217 1220 1216
f 1215 1217 1216
f 1222 1221 1214
f 1213 1222 1214
f 1225 1213 1216
f 1226 1225 1216
f 1227 1215 1214
f 1228 1227 1214
f 1229 1230 1231
f 1229 1231 1232
f 1233 1234 1235
f 1236 1233 1235
f 1237 1238 1239
f 1240 1237 1239
f 1241 1242 1235
f 1243 1241 1235
f 1243 1239 1241
f 1244 1234 1245
f 1240 1244 1245
f 1246 1240 1245
f 1233 1236 1232
f 1231 1233 1232
f 1238 1237 1230
f 1229 1238 1230
f 1241 1229 1232
f 1242 1241 1232
f 1245 1231 1230
f 1246 1245 1230
f 1247 1248 1249
f 1247 1249 1250
f 1251 1252 1253
f 1254 1251 1253
f 1255 1256 1257
f 1258 1255 1257
f 1259 1260 1253
f 637 1259 1253
f 637 1257 1259
f 734 1252 1261
f 1258 734 1261
f 1262 1258 1261
f 1251 1254 1250
f 1249 1251 1250
f 1256 1255 1248
f 1247 1256 1248
f 1259 1247 1250
f 1260 1259 1250
f 1261 1249 1248
f 1262 1261 1248
f 1263 1264 1265
f 1263 1265 1266
f 1267 1268 1269
f 1270 1267 1269
f 1271 1272 1273
f 1274 1271 1273
f 1275 1276 1269
f 1277 1275 1269
f 1277 1273 1275
f 1278 1268 1279
f 1274 1278 1279
f 1280 1274 1279
f 1267 1270 1266
f 1265 1267 1266
f 1272 1271 1264
f 1263 1272 1264
f 1275 1263 1266
f 1276 1275 1266
f 1279 1265 1264
f 1280 1279 1264
