# Botball Lab: metres, +Y up, centred XZ, base Y=0
s off
v -0.0026000 0.0028000 -0.0023204
v -0.0026000 0.0022816 -0.0022172
v -0.0052000 0.0022816 -0.0022172
v -0.0052000 0.0028000 -0.0023204
v -0.0026000 0.0022816 0.0022172
v -0.0026000 0.0028000 0.0023204
v -0.0052000 0.0028000 0.0023204
v -0.0052000 0.0022816 0.0022172
v -0.0026000 0.0036000 0.0023204
v -0.0026000 0.0041184 0.0022172
v -0.0052000 0.0041184 0.0022172
v -0.0052000 0.0036000 0.0023204
v -0.0026000 0.0041184 -0.0022172
v -0.0026000 0.0036000 -0.0023204
v -0.0052000 0.0036000 -0.0023204
v -0.0052000 0.0041184 -0.0022172
v -0.0052000 0.0022048 -0.0024020
v -0.0052000 0.0028000 -0.0025204
v -0.0052000 0.0028000 0.0025204
v -0.0052000 0.0022048 0.0024020
v -0.0052000 0.0041952 0.0024020
v -0.0052000 0.0036000 0.0025204
v -0.0052000 0.0036000 -0.0025204
v -0.0052000 0.0041952 -0.0024020
v -0.0060000 0.0022048 -0.0024020
v -0.0060000 0.0028000 -0.0025204
v -0.0060000 0.0028000 0.0025204
v -0.0060000 0.0022048 0.0024020
v -0.0060000 0.0041952 0.0024020
v -0.0060000 0.0036000 0.0025204
v -0.0060000 0.0036000 -0.0025204
v -0.0060000 0.0041952 -0.0024020
v -0.0030000 0.0028000 -0.0023204
v -0.0052000 0.0028000 -0.0015204
v -0.0030000 0.0028000 -0.0015204
v -0.0060000 0.0028000 -0.0015204
v -0.0060000 0.0025876 -0.0014784
v -0.0060000 0.0028000 0.0015204
v -0.0060000 0.0025876 0.0014784
v -0.0052000 0.0028000 0.0015204
v -0.0030000 0.0028000 0.0023204
v -0.0030000 0.0028000 0.0015204
v -0.0030000 0.0036000 0.0023204
v -0.0052000 0.0036000 0.0015204
v -0.0030000 0.0036000 0.0015204
v -0.0060000 0.0036000 0.0015204
v -0.0060000 0.0038124 0.0014784
v -0.0060000 0.0036000 -0.0015204
v -0.0060000 0.0038124 -0.0014784
v -0.0052000 0.0036000 -0.0015204
v -0.0030000 0.0036000 -0.0023204
v -0.0030000 0.0036000 -0.0015204
v -0.0026000 0.0025876 -0.0014784
v -0.0026000 0.0028000 -0.0015204
v -0.0026000 0.0028000 0.0015204
v -0.0026000 0.0025876 0.0014784
v -0.0026000 0.0038124 0.0014784
v -0.0026000 0.0036000 0.0015204
v -0.0026000 0.0036000 -0.0015204
v -0.0026000 0.0038124 -0.0014784
v 0.0012000 0.0032000 -0.0024000
v 0.0012000 0.0022815 -0.0022174
v -0.0026000 0.0022815 -0.0022174
v -0.0026000 0.0032000 -0.0024000
v 0.0012000 0.0015030 -0.0016970
v -0.0026000 0.0015030 -0.0016970
v 0.0012000 0.0009826 -0.0009185
v -0.0026000 0.0009826 -0.0009185
v 0.0012000 0.0008000 -0.0000000
v -0.0026000 0.0008000 -0.0000000
v 0.0012000 0.0009826 0.0009185
v -0.0026000 0.0009826 0.0009185
v 0.0012000 0.0015030 0.0016970
v -0.0026000 0.0015030 0.0016970
v 0.0012000 0.0022815 0.0022174
v -0.0026000 0.0022815 0.0022174
v 0.0012000 0.0032000 0.0024000
v -0.0026000 0.0032000 0.0024000
v 0.0012000 0.0041185 0.0022174
v -0.0026000 0.0041185 0.0022174
v 0.0012000 0.0048970 0.0016970
v -0.0026000 0.0048970 0.0016970
v 0.0012000 0.0054174 0.0009185
v -0.0026000 0.0054174 0.0009185
v 0.0012000 0.0056000 -0.0000000
v -0.0026000 0.0056000 -0.0000000
v 0.0012000 0.0054174 -0.0009185
v -0.0026000 0.0054174 -0.0009185
v 0.0012000 0.0048970 -0.0016970
v -0.0026000 0.0048970 -0.0016970
v 0.0012000 0.0041185 -0.0022174
v -0.0026000 0.0041185 -0.0022174
v -0.0026000 0.0048971 0.0016971
v -0.0052000 0.0048971 0.0016971
v -0.0052000 0.0041184 0.0022173
v -0.0026000 0.0041184 0.0022173
v -0.0026000 0.0054173 0.0009184
v -0.0052000 0.0054173 0.0009184
v -0.0026000 0.0056001 0.0000000
v -0.0052000 0.0056001 0.0000000
v -0.0026000 0.0054173 -0.0009184
v -0.0052000 0.0054173 -0.0009184
v -0.0026000 0.0048971 -0.0016971
v -0.0052000 0.0048971 -0.0016971
v -0.0026000 0.0041184 -0.0022173
v -0.0052000 0.0041184 -0.0022173
v -0.0026000 0.0015029 -0.0016971
v -0.0052000 0.0015029 -0.0016971
v -0.0052000 0.0022816 -0.0022173
v -0.0026000 0.0022816 -0.0022173
v -0.0026000 0.0009827 -0.0009184
v -0.0052000 0.0009827 -0.0009184
v -0.0026000 0.0007999 -0.0000000
v -0.0052000 0.0007999 -0.0000000
v -0.0026000 0.0009827 0.0009184
v -0.0052000 0.0009827 0.0009184
v -0.0026000 0.0015029 0.0016971
v -0.0052000 0.0015029 0.0016971
v -0.0026000 0.0022816 0.0022173
v -0.0052000 0.0022816 0.0022173
v -0.0052000 0.0013615 -0.0018385
v -0.0060000 0.0013615 -0.0018385
v -0.0060000 0.0022050 -0.0024021
v -0.0052000 0.0022050 -0.0024021
v -0.0052000 0.0007979 -0.0009950
v -0.0060000 0.0007979 -0.0009950
v -0.0052000 0.0005999 -0.0000000
v -0.0060000 0.0005999 -0.0000000
v -0.0052000 0.0007979 0.0009950
v -0.0060000 0.0007979 0.0009950
v -0.0052000 0.0013615 0.0018385
v -0.0060000 0.0013615 0.0018385
v -0.0052000 0.0022050 0.0024021
v -0.0060000 0.0022050 0.0024021
v -0.0052000 0.0050385 0.0018385
v -0.0060000 0.0050385 0.0018385
v -0.0060000 0.0041950 0.0024021
v -0.0052000 0.0041950 0.0024021
v -0.0052000 0.0056021 0.0009950
v -0.0060000 0.0056021 0.0009950
v -0.0052000 0.0058001 0.0000000
v -0.0060000 0.0058001 0.0000000
v -0.0052000 0.0056021 -0.0009950
v -0.0060000 0.0056021 -0.0009950
v -0.0052000 0.0050385 -0.0018385
v -0.0060000 0.0050385 -0.0018385
v -0.0052000 0.0041950 -0.0024021
v -0.0060000 0.0041950 -0.0024021
v 0.0020000 0.0032000 -0.0032000
v 0.0020000 0.0019754 -0.0029565
v 0.0012000 0.0019754 -0.0029565
v 0.0012000 0.0032000 -0.0032000
v 0.0020000 0.0009373 -0.0022627
v 0.0012000 0.0009373 -0.0022627
v 0.0020000 0.0002435 -0.0012246
v 0.0012000 0.0002435 -0.0012246
v 0.0020000 0.0000000 -0.0000000
v 0.0012000 0.0000000 -0.0000000
v 0.0020000 0.0002435 0.0012246
v 0.0012000 0.0002435 0.0012246
v 0.0020000 0.0009373 0.0022627
v 0.0012000 0.0009373 0.0022627
v 0.0020000 0.0019754 0.0029565
v 0.0012000 0.0019754 0.0029565
v 0.0020000 0.0032000 0.0032000
v 0.0012000 0.0032000 0.0032000
v 0.0020000 0.0044246 0.0029565
v 0.0012000 0.0044246 0.0029565
v 0.0020000 0.0054627 0.0022627
v 0.0012000 0.0054627 0.0022627
v 0.0020000 0.0061565 0.0012246
v 0.0012000 0.0061565 0.0012246
v 0.0020000 0.0064000 -0.0000000
v 0.0012000 0.0064000 -0.0000000
v 0.0020000 0.0061565 -0.0012246
v 0.0012000 0.0061565 -0.0012246
v 0.0020000 0.0054627 -0.0022627
v 0.0012000 0.0054627 -0.0022627
v 0.0020000 0.0044246 -0.0029565
v 0.0012000 0.0044246 -0.0029565
v -0.0026000 0.0025877 -0.0014782
v 0.0020000 0.0025877 -0.0014782
v 0.0020000 0.0032000 -0.0016000
v -0.0026000 0.0032000 -0.0016000
v -0.0026000 0.0020686 -0.0011314
v 0.0020000 0.0020686 -0.0011314
v -0.0026000 0.0017218 -0.0006123
v 0.0020000 0.0017218 -0.0006123
v -0.0026000 0.0016000 -0.0000000
v 0.0020000 0.0016000 -0.0000000
v -0.0026000 0.0017218 0.0006123
v 0.0020000 0.0017218 0.0006123
v -0.0026000 0.0020686 0.0011314
v 0.0020000 0.0020686 0.0011314
v -0.0026000 0.0025877 0.0014782
v 0.0020000 0.0025877 0.0014782
v -0.0026000 0.0032000 0.0016000
v 0.0020000 0.0032000 0.0016000
v -0.0026000 0.0038123 0.0014782
v 0.0020000 0.0038123 0.0014782
v -0.0026000 0.0043314 0.0011314
v 0.0020000 0.0043314 0.0011314
v -0.0026000 0.0046782 0.0006123
v 0.0020000 0.0046782 0.0006123
v -0.0026000 0.0048000 -0.0000000
v 0.0020000 0.0048000 -0.0000000
v -0.0026000 0.0046782 -0.0006123
v 0.0020000 0.0046782 -0.0006123
v -0.0026000 0.0043314 -0.0011314
v 0.0020000 0.0043314 -0.0011314
v -0.0026000 0.0038123 -0.0014782
v 0.0020000 0.0038123 -0.0014782
v -0.0060000 0.0025877 -0.0014782
v -0.0060000 0.0020686 -0.0011314
v -0.0060000 0.0017218 -0.0006123
v -0.0060000 0.0016000 -0.0000000
v -0.0060000 0.0017218 0.0006123
v -0.0060000 0.0020686 0.0011314
v -0.0060000 0.0025877 0.0014782
v -0.0060000 0.0038123 0.0014782
v -0.0060000 0.0043314 0.0011314
v -0.0060000 0.0046782 0.0006123
v -0.0060000 0.0048000 0.0000000
v -0.0060000 0.0046782 -0.0006123
v -0.0060000 0.0043314 -0.0011314
v -0.0060000 0.0038123 -0.0014782
v -0.0060000 0.0022816 -0.0022173
v -0.0060000 0.0015029 -0.0016971
v -0.0060000 0.0009827 -0.0009184
v -0.0060000 0.0007999 -0.0000000
v -0.0060000 0.0009827 0.0009184
v -0.0060000 0.0015029 0.0016971
v -0.0060000 0.0022816 0.0022173
v -0.0060000 0.0041184 0.0022173
v -0.0060000 0.0048971 0.0016971
v -0.0060000 0.0054173 0.0009184
v -0.0060000 0.0056001 0.0000000
v -0.0060000 0.0054173 -0.0009184
v -0.0060000 0.0048971 -0.0016971
v -0.0060000 0.0041184 -0.0022173
v -0.0026304 0.0030469 0.0023695
v -0.0027172 0.0029172 0.0023437
v -0.0028469 0.0028304 0.0023265
v -0.0026304 0.0033531 0.0023695
v -0.0027172 0.0034828 0.0023437
v -0.0028469 0.0035696 0.0023265
v -0.0026304 0.0033531 -0.0023695
v -0.0027172 0.0034828 -0.0023437
v -0.0028469 0.0035696 -0.0023265
v -0.0026304 0.0030469 -0.0023695
v -0.0027172 0.0029172 -0.0023437
v -0.0028469 0.0028304 -0.0023265
v -0.0026304 0.0030469 0.0015695
v -0.0027172 0.0029172 0.0015437
v -0.0028469 0.0028304 0.0015265
v -0.0026304 0.0033531 0.0015695
v -0.0027172 0.0034828 0.0015437
v -0.0028469 0.0035696 0.0015265
v -0.0026304 0.0033531 -0.0015695
v -0.0027172 0.0034828 -0.0015437
v -0.0028469 0.0035696 -0.0015265
v -0.0026304 0.0030469 -0.0015695
v -0.0027172 0.0029172 -0.0015437
v -0.0028469 0.0028304 -0.0015265
v 0.0052000 0.0022816 -0.0022172
v 0.0036000 0.0022816 -0.0022172
v 0.0036000 0.0028000 -0.0023204
v 0.0052000 0.0028000 -0.0023204
v 0.0052000 0.0028000 0.0023204
v 0.0036000 0.0028000 0.0023204
v 0.0036000 0.0022816 0.0022172
v 0.0052000 0.0022816 0.0022172
v 0.0052000 0.0041184 0.0022172
v 0.0036000 0.0041184 0.0022172
v 0.0036000 0.0036000 0.0023204
v 0.0052000 0.0036000 0.0023204
v 0.0052000 0.0036000 -0.0023204
v 0.0036000 0.0036000 -0.0023204
v 0.0036000 0.0041184 -0.0022172
v 0.0052000 0.0041184 -0.0022172
v 0.0052000 0.0022048 -0.0024020
v 0.0052000 0.0028000 -0.0025204
v 0.0052000 0.0028000 0.0025204
v 0.0052000 0.0022048 0.0024020
v 0.0052000 0.0041952 0.0024020
v 0.0052000 0.0036000 0.0025204
v 0.0052000 0.0036000 -0.0025204
v 0.0052000 0.0041952 -0.0024020
v 0.0060000 0.0022048 -0.0024020
v 0.0060000 0.0028000 -0.0025204
v 0.0060000 0.0028000 0.0025204
v 0.0060000 0.0022048 0.0024020
v 0.0060000 0.0041952 0.0024020
v 0.0060000 0.0036000 0.0025204
v 0.0060000 0.0036000 -0.0025204
v 0.0060000 0.0041952 -0.0024020
v 0.0052000 0.0028000 -0.0015204
v 0.0040000 0.0028000 -0.0023204
v 0.0040000 0.0028000 -0.0015204
v 0.0060000 0.0028000 -0.0015204
v 0.0060000 0.0025876 -0.0014784
v 0.0060000 0.0028000 0.0015204
v 0.0060000 0.0025876 0.0014784
v 0.0052000 0.0028000 0.0015204
v 0.0040000 0.0028000 0.0023204
v 0.0040000 0.0028000 0.0015204
v 0.0052000 0.0036000 0.0015204
v 0.0040000 0.0036000 0.0023204
v 0.0040000 0.0036000 0.0015204
v 0.0060000 0.0036000 0.0015204
v 0.0060000 0.0038124 0.0014784
v 0.0060000 0.0036000 -0.0015204
v 0.0060000 0.0038124 -0.0014784
v 0.0052000 0.0036000 -0.0015204
v 0.0040000 0.0036000 -0.0023204
v 0.0040000 0.0036000 -0.0015204
v 0.0036000 0.0025876 -0.0014784
v 0.0036000 0.0028000 -0.0015204
v 0.0036000 0.0028000 0.0015204
v 0.0036000 0.0025876 0.0014784
v 0.0036000 0.0038124 0.0014784
v 0.0036000 0.0036000 0.0015204
v 0.0036000 0.0036000 -0.0015204
v 0.0036000 0.0038124 -0.0014784
v 0.0036000 0.0022815 -0.0022174
v 0.0028000 0.0022815 -0.0022174
v 0.0028000 0.0032000 -0.0024000
v 0.0036000 0.0032000 -0.0024000
v 0.0036000 0.0015030 -0.0016970
v 0.0028000 0.0015030 -0.0016970
v 0.0036000 0.0009826 -0.0009185
v 0.0028000 0.0009826 -0.0009185
v 0.0036000 0.0008000 -0.0000000
v 0.0028000 0.0008000 -0.0000000
v 0.0036000 0.0009826 0.0009185
v 0.0028000 0.0009826 0.0009185
v 0.0036000 0.0015030 0.0016970
v 0.0028000 0.0015030 0.0016970
v 0.0036000 0.0022815 0.0022174
v 0.0028000 0.0022815 0.0022174
v 0.0036000 0.0032000 0.0024000
v 0.0028000 0.0032000 0.0024000
v 0.0036000 0.0041185 0.0022174
v 0.0028000 0.0041185 0.0022174
v 0.0036000 0.0048970 0.0016970
v 0.0028000 0.0048970 0.0016970
v 0.0036000 0.0054174 0.0009185
v 0.0028000 0.0054174 0.0009185
v 0.0036000 0.0056000 -0.0000000
v 0.0028000 0.0056000 -0.0000000
v 0.0036000 0.0054174 -0.0009185
v 0.0028000 0.0054174 -0.0009185
v 0.0036000 0.0048970 -0.0016970
v 0.0028000 0.0048970 -0.0016970
v 0.0036000 0.0041185 -0.0022174
v 0.0028000 0.0041185 -0.0022174
v 0.0052000 0.0041184 0.0022173
v 0.0052000 0.0048971 0.0016971
v 0.0036000 0.0048971 0.0016971
v 0.0036000 0.0041184 0.0022173
v 0.0052000 0.0054173 0.0009184
v 0.0036000 0.0054173 0.0009184
v 0.0052000 0.0056001 0.0000000
v 0.0036000 0.0056001 0.0000000
v 0.0052000 0.0054173 -0.0009184
v 0.0036000 0.0054173 -0.0009184
v 0.0052000 0.0048971 -0.0016971
v 0.0036000 0.0048971 -0.0016971
v 0.0052000 0.0041184 -0.0022173
v 0.0036000 0.0041184 -0.0022173
v 0.0052000 0.0022816 -0.0022173
v 0.0052000 0.0015029 -0.0016971
v 0.0036000 0.0015029 -0.0016971
v 0.0036000 0.0022816 -0.0022173
v 0.0052000 0.0009827 -0.0009184
v 0.0036000 0.0009827 -0.0009184
v 0.0052000 0.0007999 -0.0000000
v 0.0036000 0.0007999 -0.0000000
v 0.0052000 0.0009827 0.0009184
v 0.0036000 0.0009827 0.0009184
v 0.0052000 0.0015029 0.0016971
v 0.0036000 0.0015029 0.0016971
v 0.0052000 0.0022816 0.0022173
v 0.0036000 0.0022816 0.0022173
v 0.0060000 0.0022050 -0.0024021
v 0.0060000 0.0013615 -0.0018385
v 0.0052000 0.0013615 -0.0018385
v 0.0052000 0.0022050 -0.0024021
v 0.0060000 0.0007979 -0.0009950
v 0.0052000 0.0007979 -0.0009950
v 0.0060000 0.0005999 -0.0000000
v 0.0052000 0.0005999 -0.0000000
v 0.0060000 0.0007979 0.0009950
v 0.0052000 0.0007979 0.0009950
v 0.0060000 0.0013615 0.0018385
v 0.0052000 0.0013615 0.0018385
v 0.0060000 0.0022050 0.0024021
v 0.0052000 0.0022050 0.0024021
v 0.0060000 0.0041950 0.0024021
v 0.0060000 0.0050385 0.0018385
v 0.0052000 0.0050385 0.0018385
v 0.0052000 0.0041950 0.0024021
v 0.0060000 0.0056021 0.0009950
v 0.0052000 0.0056021 0.0009950
v 0.0060000 0.0058001 0.0000000
v 0.0052000 0.0058001 0.0000000
v 0.0060000 0.0056021 -0.0009950
v 0.0052000 0.0056021 -0.0009950
v 0.0060000 0.0050385 -0.0018385
v 0.0052000 0.0050385 -0.0018385
v 0.0060000 0.0041950 -0.0024021
v 0.0052000 0.0041950 -0.0024021
v 0.0028000 0.0019754 -0.0029565
v 0.0028000 0.0032000 -0.0032000
v 0.0028000 0.0009373 -0.0022627
v 0.0028000 0.0002435 -0.0012246
v 0.0028000 0.0000000 -0.0000000
v 0.0028000 0.0002435 0.0012246
v 0.0028000 0.0009373 0.0022627
v 0.0028000 0.0019754 0.0029565
v 0.0028000 0.0032000 0.0032000
v 0.0028000 0.0044246 0.0029565
v 0.0028000 0.0054627 0.0022627
v 0.0028000 0.0061565 0.0012246
v 0.0028000 0.0064000 -0.0000000
v 0.0028000 0.0061565 -0.0012246
v 0.0028000 0.0054627 -0.0022627
v 0.0028000 0.0044246 -0.0029565
v 0.0036000 0.0025877 -0.0014782
v 0.0036000 0.0032000 -0.0016000
v 0.0036000 0.0020686 -0.0011314
v 0.0036000 0.0017218 -0.0006123
v 0.0036000 0.0016000 -0.0000000
v 0.0036000 0.0017218 0.0006123
v 0.0036000 0.0020686 0.0011314
v 0.0036000 0.0025877 0.0014782
v 0.0036000 0.0032000 0.0016000
v 0.0036000 0.0038123 0.0014782
v 0.0036000 0.0043314 0.0011314
v 0.0036000 0.0046782 0.0006123
v 0.0036000 0.0048000 -0.0000000
v 0.0036000 0.0046782 -0.0006123
v 0.0036000 0.0043314 -0.0011314
v 0.0036000 0.0038123 -0.0014782
v 0.0060000 0.0020686 -0.0011314
v 0.0060000 0.0025877 -0.0014782
v 0.0060000 0.0017218 -0.0006123
v 0.0060000 0.0016000 -0.0000000
v 0.0060000 0.0017218 0.0006123
v 0.0060000 0.0020686 0.0011314
v 0.0060000 0.0025877 0.0014782
v 0.0060000 0.0043314 0.0011314
v 0.0060000 0.0038123 0.0014782
v 0.0060000 0.0046782 0.0006123
v 0.0060000 0.0048000 0.0000000
v 0.0060000 0.0046782 -0.0006123
v 0.0060000 0.0043314 -0.0011314
v 0.0060000 0.0038123 -0.0014782
v 0.0060000 0.0015029 -0.0016971
v 0.0060000 0.0022816 -0.0022173
v 0.0060000 0.0009827 -0.0009184
v 0.0060000 0.0007999 -0.0000000
v 0.0060000 0.0009827 0.0009184
v 0.0060000 0.0015029 0.0016971
v 0.0060000 0.0022816 0.0022173
v 0.0060000 0.0048971 0.0016971
v 0.0060000 0.0041184 0.0022173
v 0.0060000 0.0054173 0.0009184
v 0.0060000 0.0056001 0.0000000
v 0.0060000 0.0054173 -0.0009184
v 0.0060000 0.0048971 -0.0016971
v 0.0060000 0.0041184 -0.0022173
v 0.0036304 0.0030469 0.0023695
v 0.0037172 0.0029172 0.0023437
v 0.0038469 0.0028304 0.0023265
v 0.0036304 0.0033531 0.0023695
v 0.0037172 0.0034828 0.0023437
v 0.0038469 0.0035696 0.0023265
v 0.0036304 0.0033531 -0.0023695
v 0.0037172 0.0034828 -0.0023437
v 0.0038469 0.0035696 -0.0023265
v 0.0036304 0.0030469 -0.0023695
v 0.0037172 0.0029172 -0.0023437
v 0.0038469 0.0028304 -0.0023265
v 0.0036304 0.0030469 0.0015695
v 0.0037172 0.0029172 0.0015437
v 0.0038469 0.0028304 0.0015265
v 0.0036304 0.0033531 0.0015695
v 0.0037172 0.0034828 0.0015437
v 0.0038469 0.0035696 0.0015265
v 0.0036304 0.0033531 -0.0015695
v 0.0037172 0.0034828 -0.0015437
v 0.0038469 0.0035696 -0.0015265
v 0.0036304 0.0030469 -0.0015695
v 0.0037172 0.0029172 -0.0015437
v 0.0038469 0.0028304 -0.0015265
vn -3e-06 -0.1952428 -0.9807549
vn 0.0 -0.1952429 -0.9807549
vn 0.0 -0.1952429 0.9807549
vn -5.8e-06 -0.1952428 0.9807549
vn -3e-06 0.1952428 0.9807549
vn 0.0 0.1952429 0.9807549
vn 0.0 0.1952429 -0.9807549
vn -5.8e-06 0.1952428 -0.9807549
vn 1.0 0.0 0.0
vn 0.0 -0.195102 -0.980783
vn 0.0 -0.195102 0.980783
vn 0.0 0.195102 0.980783
vn 0.0 0.195102 -0.980783
vn -0.012918 0.9999166 0.0
vn 0.0 1.0 0.0
vn -1.0 0.0 0.0
vn -0.012918 -0.9999166 0.0
vn 0.0 -1.0 0.0
vn 0.0 0.193984 0.9810047
vn 1.03e-05 0.1941024 0.9809813
vn 0.0 0.193984 -0.9810047
vn 5.4e-06 0.1940461 -0.9809924
vn 0.0 -0.193984 -0.9810047
vn 1.03e-05 -0.1941024 -0.9809813
vn 0.0 -0.193984 0.9810047
vn 5.4e-06 -0.1940461 0.9809924
vn 0.0 -0.0661224 -0.9978115
vn 0.0 -0.4430513 -0.8964963
vn 0.0 -0.3207111 -0.947177
vn -2.5e-06 0.0659699 -0.9978216
vn 0.0 -0.752294 -0.6588276
vn 0.0 -0.6588276 -0.752294
vn 0.0 -0.947177 -0.3207111
vn 0.0 -0.8964963 -0.4430513
vn 0.0 -0.9978115 0.0661224
vn 0.0 -0.9978115 -0.0661224
vn 0.0 -0.8964963 0.4430513
vn 0.0 -0.947177 0.3207111
vn 0.0 -0.6588276 0.752294
vn 0.0 -0.752294 0.6588276
vn 0.0 -0.3207111 0.947177
vn 0.0 -0.4430513 0.8964963
vn 0.0 0.0661224 0.9978115
vn -2.5e-06 -0.0659699 0.9978216
vn 0.0 0.4430513 0.8964963
vn 0.0 0.3207111 0.947177
vn 0.0 0.752294 0.6588276
vn 0.0 0.6588276 0.752294
vn 0.0 0.947177 0.3207111
vn 0.0 0.8964963 0.4430513
vn 0.0 0.9978115 -0.0661224
vn 0.0 0.9978115 0.0661224
vn 0.0 0.8964963 -0.4430513
vn 0.0 0.947177 -0.3207111
vn 0.0 0.6588276 -0.752294
vn 0.0 0.752294 -0.6588276
vn 0.0 0.3207111 -0.947177
vn 0.0 0.4430513 -0.8964963
vn 0.0 0.6587507 0.7523613
vn 0.0 0.7523613 0.6587507
vn 0.0 0.5554885 0.8315242
vn 0.0 0.8965463 0.4429499
vn 0.0 0.947155 0.3207761
vn 0.0 0.9978063 0.0662017
vn 0.0 0.9978063 -0.0662017
vn 0.0 0.947155 -0.3207761
vn 0.0 0.8965463 -0.4429499
vn 0.0 0.7523613 -0.6587507
vn 0.0 0.6587507 -0.7523613
vn 0.0 0.5554885 -0.8315242
vn 0.0 -0.6587507 -0.7523613
vn 0.0 -0.7523613 -0.6587507
vn 0.0 -0.5554885 -0.8315242
vn 0.0 -0.8965463 -0.4429499
vn 0.0 -0.947155 -0.3207761
vn 0.0 -0.9978063 -0.0662017
vn 0.0 -0.9978063 0.0662017
vn 0.0 -0.947155 0.3207761
vn 0.0 -0.8965463 0.4429499
vn 0.0 -0.7523613 0.6587507
vn 0.0 -0.6587507 0.7523613
vn 0.0 -0.5554885 0.8315242
vn 0.0 -0.6587744 -0.7523406
vn 0.0 -0.7523406 -0.6587744
vn 0.0 -0.5555643 -0.8314736
vn 0.0 -0.8965298 -0.4429833
vn 0.0 -0.9471582 -0.3207669
vn 0.0 -0.9978073 -0.0661862
vn 0.0 -0.9978073 0.0661862
vn 0.0 -0.9471582 0.3207669
vn 0.0 -0.8965298 0.4429833
vn 0.0 -0.7523406 0.6587744
vn 0.0 -0.6587744 0.7523406
vn 0.0 -0.5555643 0.8314736
vn 0.0 0.6587744 0.7523406
vn 0.0 0.7523406 0.6587744
vn 0.0 0.5555643 0.8314736
vn 0.0 0.8965298 0.4429833
vn 0.0 0.9471582 0.3207669
vn 0.0 0.9978073 0.0661862
vn 0.0 0.9978073 -0.0661862
vn 0.0 0.9471582 -0.3207669
vn 0.0 0.8965298 -0.4429833
vn 0.0 0.7523406 -0.6587744
vn 0.0 0.6587744 -0.7523406
vn 0.0 0.5555643 -0.8314736
vn 0.0 -0.066135 -0.9978107
vn 0.0 -0.4430151 -0.8965142
vn 0.0 -0.3207139 -0.9471761
vn 0.0 0.066135 -0.9978107
vn 0.0 -0.7523142 -0.6588045
vn 0.0 -0.6588045 -0.7523142
vn 0.0 -0.9471761 -0.3207139
vn 0.0 -0.8965142 -0.4430151
vn 0.0 -0.9978107 0.066135
vn 0.0 -0.9978107 -0.066135
vn 0.0 -0.8965142 0.4430151
vn 0.0 -0.9471761 0.3207139
vn 0.0 -0.6588045 0.7523142
vn 0.0 -0.7523142 0.6588045
vn 0.0 -0.3207139 0.9471761
vn 0.0 -0.4430151 0.8965142
vn 0.0 0.066135 0.9978107
vn 0.0 -0.066135 0.9978107
vn 0.0 0.4430151 0.8965142
vn 0.0 0.3207139 0.9471761
vn 0.0 0.7523142 0.6588045
vn 0.0 0.6588045 0.7523142
vn 0.0 0.9471761 0.3207139
vn 0.0 0.8965142 0.4430151
vn 0.0 0.9978107 -0.066135
vn 0.0 0.9978107 0.066135
vn 0.0 0.8965142 -0.4430151
vn 0.0 0.9471761 -0.3207139
vn 0.0 0.6588045 -0.7523142
vn 0.0 0.7523142 -0.6588045
vn 0.0 0.3207139 -0.9471761
vn 0.0 0.4430151 -0.8965142
vn 0.0 0.3698003 0.9291113
vn 0.0 0.442928 0.8965572
vn 0.0 0.0661621 0.9978089
vn 3.1e-06 -0.065973 0.9978214
vn 0.0 0.6587584 0.7523546
vn 0.0 0.7523546 0.6587584
vn 0.0 0.8965572 0.442928
vn 0.0 0.9471789 0.3207056
vn 0.0 0.9978089 0.0661621
vn 0.0 0.9978089 -0.0661621
vn 0.0 0.9471789 -0.3207056
vn 0.0 0.8965572 -0.442928
vn 0.0 0.7523546 -0.6587584
vn 0.0 0.6587584 -0.7523546
vn 0.0 0.4814274 -0.8764859
vn 0.0 0.3207056 -0.9471789
vn 3.1e-06 0.065973 -0.9978214
vn 0.0 -0.0661621 -0.9978089
vn 0.0 -0.3698003 -0.9291113
vn 0.0 -0.442928 -0.8965572
vn 0.0 -0.6587584 -0.7523546
vn 0.0 -0.7523546 -0.6587584
vn 0.0 -0.8965572 -0.442928
vn 0.0 -0.9471789 -0.3207056
vn 0.0 -0.9978089 -0.0661621
vn 0.0 -0.9978089 0.0661621
vn 0.0 -0.9471789 0.3207056
vn 0.0 -0.8965572 0.442928
vn 0.0 -0.7523546 0.6587584
vn 0.0 -0.6587584 0.7523546
vn 0.0 -0.4814274 0.8764859
vn 0.0 -0.3207056 0.9471789
vn 0.0 0.5555132 0.8315077
vn 0.0 0.5555132 -0.8315077
vn 0.0 -0.5555132 -0.8315077
vn 0.0 -0.5555132 0.8315077
vn -0.0003917 -0.1950929 0.9807847
vn 9.37e-05 -0.1948993 0.9808233
vn 0.0001725 -0.1953897 0.9807257
vn 0.0 -0.1967363 0.9804564
vn -0.0003917 0.1950929 0.9807847
vn 9.37e-05 0.1948993 0.9808233
vn 0.0001725 0.1953897 0.9807257
vn 0.0 0.1967363 0.9804564
vn -0.0003917 0.1950929 -0.9807847
vn 9.37e-05 0.1948993 -0.9808233
vn 0.0001725 0.1953897 -0.9807257
vn 0.0 0.1967363 -0.9804564
vn -0.0003917 -0.1950929 -0.9807847
vn 9.37e-05 -0.1948993 -0.9808233
vn 0.0001725 -0.1953897 -0.9807257
vn 0.0 -0.1967363 -0.9804564
vn 0.0003917 0.1950929 -0.9807847
vn -9.37e-05 0.1948993 -0.9808233
vn -0.0001725 0.1953897 -0.9807257
vn 0.0003917 -0.1950929 -0.9807847
vn -9.37e-05 -0.1948993 -0.9808233
vn -0.0001725 -0.1953897 -0.9807257
vn 0.0003917 -0.1950929 0.9807847
vn -9.37e-05 -0.1948993 0.9808233
vn -0.0001725 -0.1953897 0.9807257
vn 0.0003917 0.1950929 0.9807847
vn -9.37e-05 0.1948993 0.9808233
vn -0.0001725 0.1953897 0.9807257
vn -0.8963744 0.4432979 0.0
vn -0.9471733 0.3207221 0.0
vn -0.6589659 0.7521728 0.0
vn -0.7521728 0.6589659 0.0
vn -0.3207221 0.9471733 0.0
vn -0.4432979 0.8963744 0.0
vn -0.9471733 -0.3207221 0.0
vn -0.8963744 -0.4432979 0.0
vn -0.7521728 -0.6589659 0.0
vn -0.6589659 -0.7521728 0.0
vn -0.4432979 -0.8963744 0.0
vn -0.3207221 -0.9471733 0.0
vn 4.7e-06 -0.1952428 -0.9807549
vn 9.1e-06 -0.1952427 0.9807549
vn 4.7e-06 0.1952428 0.9807549
vn 9.1e-06 0.1952427 -0.9807549
vn 0.0224613 0.9997477 0.0
vn 0.0224613 -0.9997477 0.0
vn -1.41e-05 0.1941454 0.9809728
vn -7.5e-06 0.1940702 -0.9809876
vn -1.41e-05 -0.1941454 -0.9809728
vn -7.5e-06 -0.1940702 0.9809876
vn 1.19e-05 0.065404 -0.9978589
vn 1.19e-05 -0.065404 0.9978589
vn 0.0 0.4029715 0.9152125
vn -8.9e-06 -0.0656214 0.9978446
vn 0.0 0.5007639 -0.8655839
vn -8.9e-06 0.0656214 -0.9978446
vn 0.0 -0.4029715 -0.9152125
vn 0.0 -0.5007639 0.8655839
vn 0.9471733 0.3207221 0.0
vn 0.8963744 0.4432979 0.0
vn 0.7521728 0.6589659 0.0
vn 0.6589659 0.7521728 0.0
vn 0.4432979 0.8963744 0.0
vn 0.3207221 0.9471733 0.0
vn 0.8963744 -0.4432979 0.0
vn 0.9471733 -0.3207221 0.0
vn 0.6589659 -0.7521728 0.0
vn 0.7521728 -0.6589659 0.0
vn 0.3207221 -0.9471733 0.0
vn 0.4432979 -0.8963744 0.0
f 1//1 2//2 3//2
f 1//1 3//2 4//2
f 5//3 6//4 7//3
f 5//3 7//3 8//3
f 9//5 10//6 11//6
f 9//5 11//6 12//6
f 13//7 14//8 15//7
f 13//7 15//7 16//7
f 4//9 3//9 17//9
f 4//9 17//9 18//9
f 8//9 7//9 19//9
f 8//9 19//9 20//9
f 12//9 11//9 21//9
f 12//9 21//9 22//9
f 16//9 15//9 23//9
f 16//9 23//9 24//9
f 18//10 17//10 25//10
f 18//10 25//10 26//10
f 20//11 19//11 27//11
f 20//11 27//11 28//11
f 22//12 21//12 29//12
f 22//12 29//12 30//12
f 24//13 23//13 31//13
f 24//13 31//13 32//13
f 33//14 4//15 34//15
f 33//14 34//15 35//14
f 34//15 18//15 26//15
f 34//15 26//15 36//15
f 26//16 25//16 37//16
f 26//16 37//16 36//16
f 28//16 27//16 38//16
f 28//16 38//16 39//16
f 38//15 27//15 19//15
f 38//15 19//15 40//15
f 40//15 7//15 41//14
f 40//15 41//14 42//14
f 43//17 12//18 44//18
f 43//17 44//18 45//17
f 22//18 30//18 46//18
f 22//18 46//18 44//18
f 30//16 29//16 47//16
f 30//16 47//16 46//16
f 32//16 31//16 48//16
f 32//16 48//16 49//16
f 31//18 23//18 50//18
f 31//18 50//18 48//18
f 50//18 15//18 51//17
f 50//18 51//17 52//17
f 36//19 37//19 53//19
f 36//19 53//19 54//20
f 39//21 38//21 55//22
f 39//21 55//22 56//21
f 46//23 47//23 57//23
f 46//23 57//23 58//24
f 49//25 48//25 59//26
f 49//25 59//26 60//25
f 61//27 62//28 63//29
f 61//27 63//29 64//30
f 62//28 65//31 66//32
f 62//28 66//32 63//29
f 65//31 67//33 68//34
f 65//31 68//34 66//32
f 67//33 69//35 70//36
f 67//33 70//36 68//34
f 69//35 71//37 72//38
f 69//35 72//38 70//36
f 71//37 73//39 74//40
f 71//37 74//40 72//38
f 73//39 75//41 76//42
f 73//39 76//42 74//40
f 75//41 77//43 78//44
f 75//41 78//44 76//42
f 77//43 79//45 80//46
f 77//43 80//46 78//44
f 79//45 81//47 82//48
f 79//45 82//48 80//46
f 81//47 83//49 84//50
f 81//47 84//50 82//48
f 83//49 85//51 86//52
f 83//49 86//52 84//50
f 85//51 87//53 88//54
f 85//51 88//54 86//52
f 87//53 89//55 90//56
f 87//53 90//56 88//54
f 89//55 91//57 92//58
f 89//55 92//58 90//56
f 91//57 61//27 64//30
f 91//57 64//30 92//58
f 93//59 94//60 95//61
f 93//59 95//61 96//61
f 97//62 98//63 94//60
f 97//62 94//60 93//59
f 99//64 100//65 98//63
f 99//64 98//63 97//62
f 101//66 102//67 100//65
f 101//66 100//65 99//64
f 103//68 104//69 102//67
f 103//68 102//67 101//66
f 105//70 106//70 104//69
f 105//70 104//69 103//68
f 107//71 108//72 109//73
f 107//71 109//73 110//73
f 111//74 112//75 108//72
f 111//74 108//72 107//71
f 113//76 114//77 112//75
f 113//76 112//75 111//74
f 115//78 116//79 114//77
f 115//78 114//77 113//76
f 117//80 118//81 116//79
f 117//80 116//79 115//78
f 119//82 120//82 118//81
f 119//82 118//81 117//80
f 121//83 122//84 123//85
f 121//83 123//85 124//85
f 125//86 126//87 122//84
f 125//86 122//84 121//83
f 127//88 128//89 126//87
f 127//88 126//87 125//86
f 129//90 130//91 128//89
f 129//90 128//89 127//88
f 131//92 132//93 130//91
f 131//92 130//91 129//90
f 133//94 134//94 132//93
f 133//94 132//93 131//92
f 135//95 136//96 137//97
f 135//95 137//97 138//97
f 139//98 140//99 136//96
f 139//98 136//96 135//95
f 141//100 142//101 140//99
f 141//100 140//99 139//98
f 143//102 144//103 142//101
f 143//102 142//101 141//100
f 145//104 146//105 144//103
f 145//104 144//103 143//102
f 147//106 148//106 146//105
f 147//106 146//105 145//104
f 149//107 150//108 151//109
f 149//107 151//109 152//110
f 150//108 153//111 154//112
f 150//108 154//112 151//109
f 153//111 155//113 156//114
f 153//111 156//114 154//112
f 155//113 157//115 158//116
f 155//113 158//116 156//114
f 157//115 159//117 160//118
f 157//115 160//118 158//116
f 159//117 161//119 162//120
f 159//117 162//120 160//118
f 161//119 163//121 164//122
f 161//119 164//122 162//120
f 163//121 165//123 166//124
f 163//121 166//124 164//122
f 165//123 167//125 168//126
f 165//123 168//126 166//124
f 167//125 169//127 170//128
f 167//125 170//128 168//126
f 169//127 171//129 172//130
f 169//127 172//130 170//128
f 171//129 173//131 174//132
f 171//129 174//132 172//130
f 173//131 175//133 176//134
f 173//131 176//134 174//132
f 175//133 177//135 178//136
f 175//133 178//136 176//134
f 177//135 179//137 180//138
f 177//135 180//138 178//136
f 179//137 149//107 152//110
f 179//137 152//110 180//138
f 181//139 182//140 183//141
f 184//142 181//139 183//141
f 185//143 186//144 182//140
f 181//139 185//143 182//140
f 187//145 188//146 186//144
f 185//143 187//145 186//144
f 189//147 190//148 188//146
f 187//145 189//147 188//146
f 191//149 192//150 190//148
f 189//147 191//149 190//148
f 193//151 194//152 192//150
f 191//149 193//151 192//150
f 195//153 196//154 194//152
f 193//151 195//153 194//152
f 197//155 198//156 196//154
f 195//153 197//155 196//154
f 199//157 200//158 198//156
f 197//155 199//157 198//156
f 201//159 202//160 200//158
f 199//157 201//159 200//158
f 203//161 204//162 202//160
f 201//159 203//161 202//160
f 205//163 206//164 204//162
f 203//161 205//163 204//162
f 207//165 208//166 206//164
f 205//163 207//165 206//164
f 209//167 210//168 208//166
f 207//165 209//167 208//166
f 211//169 212//170 210//168
f 209//167 211//169 210//168
f 184//142 183//141 212//170
f 211//169 184//142 212//170
f 213//171 214//144 185//143
f 181//139 213//171 185//143
f 214//144 215//146 187//145
f 185//143 214//144 187//145
f 215//146 216//148 189//147
f 187//145 215//146 189//147
f 216//148 217//150 191//149
f 189//147 216//148 191//149
f 217//150 218//152 193//151
f 191//149 217//150 193//151
f 218//152 219//172 195//153
f 193//151 218//152 195//153
f 220//173 221//160 201//159
f 199//157 220//173 201//159
f 221//160 222//162 203//161
f 201//159 221//160 203//161
f 222//162 223//164 205//163
f 203//161 222//162 205//163
f 223//164 224//166 207//165
f 205//163 223//164 207//165
f 224//166 225//168 209//167
f 207//165 224//166 209//167
f 225//168 226//174 211//169
f 209//167 225//168 211//169
f 160//16 71//16 69//16
f 160//16 69//16 158//16
f 162//16 73//16 71//16
f 162//16 71//16 160//16
f 164//16 75//16 73//16
f 164//16 73//16 162//16
f 166//16 77//16 75//16
f 166//16 75//16 164//16
f 168//16 79//16 77//16
f 168//16 77//16 166//16
f 170//16 81//16 79//16
f 170//16 79//16 168//16
f 172//16 83//16 81//16
f 172//16 81//16 170//16
f 174//16 85//16 83//16
f 174//16 83//16 172//16
f 176//16 87//16 85//16
f 176//16 85//16 174//16
f 178//16 89//16 87//16
f 178//16 87//16 176//16
f 180//16 91//16 89//16
f 180//16 89//16 178//16
f 152//16 61//16 91//16
f 152//16 91//16 180//16
f 151//16 62//16 61//16
f 151//16 61//16 152//16
f 154//16 65//16 62//16
f 154//16 62//16 151//16
f 156//16 67//16 65//16
f 156//16 65//16 154//16
f 158//16 69//16 67//16
f 158//16 67//16 156//16
f 227//16 228//16 214//16
f 227//16 214//16 213//16
f 228//16 229//16 215//16
f 228//16 215//16 214//16
f 229//16 230//16 216//16
f 229//16 216//16 215//16
f 230//16 231//16 217//16
f 230//16 217//16 216//16
f 231//16 232//16 218//16
f 231//16 218//16 217//16
f 232//16 233//16 219//16
f 232//16 219//16 218//16
f 234//16 235//16 221//16
f 234//16 221//16 220//16
f 235//16 236//16 222//16
f 235//16 222//16 221//16
f 236//16 237//16 223//16
f 236//16 223//16 222//16
f 237//16 238//16 224//16
f 237//16 224//16 223//16
f 238//16 239//16 225//16
f 238//16 225//16 224//16
f 239//16 240//16 226//16
f 239//16 226//16 225//16
f 108//9 121//9 124//9
f 109//9 108//9 124//9
f 112//9 125//9 121//9
f 108//9 112//9 121//9
f 114//9 127//9 125//9
f 112//9 114//9 125//9
f 116//9 129//9 127//9
f 114//9 116//9 127//9
f 118//9 131//9 129//9
f 116//9 118//9 129//9
f 120//9 133//9 131//9
f 118//9 120//9 131//9
f 94//9 135//9 138//9
f 95//9 94//9 138//9
f 98//9 139//9 135//9
f 94//9 98//9 135//9
f 100//9 141//9 139//9
f 98//9 100//9 139//9
f 102//9 143//9 141//9
f 100//9 102//9 141//9
f 104//9 145//9 143//9
f 102//9 104//9 143//9
f 106//9 147//9 145//9
f 104//9 106//9 145//9
f 123//16 122//16 228//16
f 123//16 228//16 227//16
f 122//16 126//16 229//16
f 122//16 229//16 228//16
f 126//16 128//16 230//16
f 126//16 230//16 229//16
f 128//16 130//16 231//16
f 128//16 231//16 230//16
f 130//16 132//16 232//16
f 130//16 232//16 231//16
f 132//16 134//16 233//16
f 132//16 233//16 232//16
f 137//16 136//16 235//16
f 137//16 235//16 234//16
f 136//16 140//16 236//16
f 136//16 236//16 235//16
f 140//16 142//16 237//16
f 140//16 237//16 236//16
f 142//16 144//16 238//16
f 142//16 238//16 237//16
f 144//16 146//16 239//16
f 144//16 239//16 238//16
f 146//16 148//16 240//16
f 146//16 240//16 239//16
f 6//4 78//44 241//175
f 6//4 241//175 242//176
f 6//4 242//176 243//177
f 6//4 243//177 41//178
f 244//179 78//44 9//5
f 245//180 244//179 9//5
f 246//181 245//180 9//5
f 43//182 246//181 9//5
f 14//8 64//30 247//183
f 14//8 247//183 248//184
f 14//8 248//184 249//185
f 14//8 249//185 51//186
f 250//187 64//30 1//1
f 251//188 250//187 1//1
f 252//189 251//188 1//1
f 33//190 252//189 1//1
f 253//191 197//155 55//22
f 254//192 253//191 55//22
f 255//193 254//192 55//22
f 42//186 255//193 55//22
f 58//24 197//155 256//194
f 58//24 256//194 257//195
f 58//24 257//195 258//196
f 58//24 258//196 45//190
f 259//197 184//142 59//26
f 260//198 259//197 59//26
f 261//199 260//198 59//26
f 52//178 261//199 59//26
f 54//20 184//142 262//200
f 54//20 262//200 263//201
f 54//20 263//201 264//202
f 54//20 264//202 35//182
f 197//16 253//203 241//204
f 197//16 241//204 78//16
f 253//203 254//205 242//206
f 253//203 242//206 241//204
f 254//205 255//207 243//208
f 254//205 243//208 242//206
f 255//207 42//14 41//14
f 255//207 41//14 243//208
f 244//209 256//210 197//16
f 78//16 244//209 197//16
f 245//211 257//212 256//210
f 244//209 245//211 256//210
f 246//213 258//214 257//212
f 245//211 246//213 257//212
f 43//17 45//17 258//214
f 246//213 43//17 258//214
f 184//16 259//210 247//209
f 184//16 247//209 64//16
f 259//210 260//212 248//211
f 259//210 248//211 247//209
f 260//212 261//214 249//213
f 260//212 249//213 248//211
f 261//214 52//17 51//17
f 261//214 51//17 249//213
f 250//204 262//203 184//16
f 64//16 250//204 184//16
f 251//206 263//205 262//203
f 250//204 251//206 262//203
f 252//208 264//207 263//205
f 251//206 252//208 263//205
f 33//14 35//14 264//207
f 252//208 33//14 264//207
f 265//2 266//2 267//215
f 268//2 265//2 267//215
f 269//3 270//216 271//3
f 272//3 269//3 271//3
f 273//6 274//6 275//217
f 276//6 273//6 275//217
f 277//7 278//218 279//7
f 280//7 277//7 279//7
f 281//16 265//16 268//16
f 282//16 281//16 268//16
f 283//16 269//16 272//16
f 284//16 283//16 272//16
f 285//16 273//16 276//16
f 286//16 285//16 276//16
f 287//16 277//16 280//16
f 288//16 287//16 280//16
f 289//10 281//10 282//10
f 290//10 289//10 282//10
f 291//11 283//11 284//11
f 292//11 291//11 284//11
f 293//12 285//12 286//12
f 294//12 293//12 286//12
f 295//13 287//13 288//13
f 296//13 295//13 288//13
f 297//15 268//15 298//219
f 299//219 297//15 298//219
f 290//15 282//15 297//15
f 300//15 290//15 297//15
f 301//9 289//9 290//9
f 300//9 301//9 290//9
f 302//9 291//9 292//9
f 303//9 302//9 292//9
f 283//15 291//15 302//15
f 304//15 283//15 302//15
f 305//219 269//15 304//15
f 306//219 305//219 304//15
f 307//18 276//18 308//220
f 309//220 307//18 308//220
f 310//18 294//18 286//18
f 307//18 310//18 286//18
f 311//9 293//9 294//9
f 310//9 311//9 294//9
f 312//9 295//9 296//9
f 313//9 312//9 296//9
f 314//18 287//18 295//18
f 312//18 314//18 295//18
f 315//220 277//18 314//18
f 316//220 315//220 314//18
f 317//19 301//19 300//19
f 318//221 317//19 300//19
f 319//222 302//21 303//21
f 320//21 319//222 303//21
f 321//23 311//23 310//23
f 322//223 321//23 310//23
f 323//224 312//25 313//25
f 324//25 323//224 313//25
f 325//29 326//28 327//27
f 328//225 325//29 327//27
f 329//32 330//31 326//28
f 325//29 329//32 326//28
f 331//34 332//33 330//31
f 329//32 331//34 330//31
f 333//36 334//35 332//33
f 331//34 333//36 332//33
f 335//38 336//37 334//35
f 333//36 335//38 334//35
f 337//40 338//39 336//37
f 335//38 337//40 336//37
f 339//42 340//41 338//39
f 337//40 339//42 338//39
f 341//226 342//43 340//41
f 339//42 341//226 340//41
f 343//46 344//45 342//43
f 341//226 343//46 342//43
f 345//48 346//47 344//45
f 343//46 345//48 344//45
f 347//50 348//49 346//47
f 345//48 347//50 346//47
f 349//52 350//51 348//49
f 347//50 349//52 348//49
f 351//54 352//53 350//51
f 349//52 351//54 350//51
f 353//56 354//55 352//53
f 351//54 353//56 352//53
f 355//58 356//57 354//55
f 353//56 355//58 354//55
f 328//225 327//27 356//57
f 355//58 328//225 356//57
f 357//61 358//60 359//59
f 360//61 357//61 359//59
f 358//60 361//63 362//62
f 359//59 358//60 362//62
f 361//63 363//65 364//64
f 362//62 361//63 364//64
f 363//65 365//67 366//66
f 364//64 363//65 366//66
f 365//67 367//69 368//68
f 366//66 365//67 368//68
f 367//69 369//70 370//70
f 368//68 367//69 370//70
f 371//73 372//72 373//71
f 374//73 371//73 373//71
f 372//72 375//75 376//74
f 373//71 372//72 376//74
f 375//75 377//77 378//76
f 376//74 375//75 378//76
f 377//77 379//79 380//78
f 378//76 377//77 380//78
f 379//79 381//81 382//80
f 380//78 379//79 382//80
f 381//81 383//82 384//82
f 382//80 381//81 384//82
f 385//85 386//84 387//83
f 388//85 385//85 387//83
f 386//84 389//87 390//86
f 387//83 386//84 390//86
f 389//87 391//89 392//88
f 390//86 389//87 392//88
f 391//89 393//91 394//90
f 392//88 391//89 394//90
f 393//91 395//93 396//92
f 394//90 393//91 396//92
f 395//93 397//94 398//94
f 396//92 395//93 398//94
f 399//97 400//96 401//95
f 402//97 399//97 401//95
f 400//96 403//99 404//98
f 401//95 400//96 404//98
f 403//99 405//101 406//100
f 404//98 403//99 406//100
f 405//101 407//103 408//102
f 406//100 405//101 408//102
f 407//103 409//105 410//104
f 408//102 407//103 410//104
f 409//105 411//106 412//106
f 410//104 409//105 412//106
f 413//109 150//108 149//107
f 414//110 413//109 149//107
f 415//112 153//111 150//108
f 413//109 415//112 150//108
f 416//114 155//113 153//111
f 415//112 416//114 153//111
f 417//116 157//115 155//113
f 416//114 417//116 155//113
f 418//118 159//117 157//115
f 417//116 418//118 157//115
f 419//120 161//119 159//117
f 418//118 419//120 159//117
f 420//122 163//121 161//119
f 419//120 420//122 161//119
f 421//124 165//123 163//121
f 420//122 421//124 163//121
f 422//126 167//125 165//123
f 421//124 422//126 165//123
f 423//128 169//127 167//125
f 422//126 423//128 167//125
f 424//130 171//129 169//127
f 423//128 424//130 169//127
f 425//132 173//131 171//129
f 424//130 425//132 171//129
f 426//134 175//133 173//131
f 425//132 426//134 173//131
f 427//136 177//135 175//133
f 426//134 427//136 175//133
f 428//138 179//137 177//135
f 427//136 428//138 177//135
f 414//110 149//107 179//137
f 428//138 414//110 179//137
f 183//141 182//140 429//227
f 183//141 429//227 430//228
f 182//140 186//144 431//143
f 182//140 431//143 429//227
f 186//144 188//146 432//145
f 186//144 432//145 431//143
f 188//146 190//148 433//147
f 188//146 433//147 432//145
f 190//148 192//150 434//149
f 190//148 434//149 433//147
f 192//150 194//152 435//151
f 192//150 435//151 434//149
f 194//152 196//154 436//229
f 194//152 436//229 435//151
f 196//154 198//156 437//230
f 196//154 437//230 436//229
f 198//156 200//158 438//231
f 198//156 438//231 437//230
f 200//158 202//160 439//159
f 200//158 439//159 438//231
f 202//160 204//162 440//161
f 202//160 440//161 439//159
f 204//162 206//164 441//163
f 204//162 441//163 440//161
f 206//164 208//166 442//165
f 206//164 442//165 441//163
f 208//166 210//168 443//167
f 208//166 443//167 442//165
f 210//168 212//170 444//232
f 210//168 444//232 443//167
f 212//170 183//141 430//228
f 212//170 430//228 444//232
f 431//143 445//144 446//171
f 431//143 446//171 429//227
f 432//145 447//146 445//144
f 432//145 445//144 431//143
f 433//147 448//148 447//146
f 433//147 447//146 432//145
f 434//149 449//150 448//148
f 434//149 448//148 433//147
f 435//151 450//152 449//150
f 435//151 449//150 434//149
f 436//229 451//172 450//152
f 436//229 450//152 435//151
f 439//159 452//160 453//173
f 439//159 453//173 438//231
f 440//161 454//162 452//160
f 440//161 452//160 439//159
f 441//163 455//164 454//162
f 441//163 454//162 440//161
f 442//165 456//166 455//164
f 442//165 455//164 441//163
f 443//167 457//168 456//166
f 443//167 456//166 442//165
f 444//232 458//174 457//168
f 444//232 457//168 443//167
f 334//9 336//9 418//9
f 417//9 334//9 418//9
f 336//9 338//9 419//9
f 418//9 336//9 419//9
f 338//9 340//9 420//9
f 419//9 338//9 420//9
f 340//9 342//9 421//9
f 420//9 340//9 421//9
f 342//9 344//9 422//9
f 421//9 342//9 422//9
f 344//9 346//9 423//9
f 422//9 344//9 423//9
f 346//9 348//9 424//9
f 423//9 346//9 424//9
f 348//9 350//9 425//9
f 424//9 348//9 425//9
f 350//9 352//9 426//9
f 425//9 350//9 426//9
f 352//9 354//9 427//9
f 426//9 352//9 427//9
f 354//9 356//9 428//9
f 427//9 354//9 428//9
f 356//9 327//9 414//9
f 428//9 356//9 414//9
f 327//9 326//9 413//9
f 414//9 327//9 413//9
f 326//9 330//9 415//9
f 413//9 326//9 415//9
f 330//9 332//9 416//9
f 415//9 330//9 416//9
f 332//9 334//9 417//9
f 416//9 332//9 417//9
f 445//9 459//9 460//9
f 446//9 445//9 460//9
f 447//9 461//9 459//9
f 445//9 447//9 459//9
f 448//9 462//9 461//9
f 447//9 448//9 461//9
f 449//9 463//9 462//9
f 448//9 449//9 462//9
f 450//9 464//9 463//9
f 449//9 450//9 463//9
f 451//9 465//9 464//9
f 450//9 451//9 464//9
f 452//9 466//9 467//9
f 453//9 452//9 467//9
f 454//9 468//9 466//9
f 452//9 454//9 466//9
f 455//9 469//9 468//9
f 454//9 455//9 468//9
f 456//9 470//9 469//9
f 455//9 456//9 469//9
f 457//9 471//9 470//9
f 456//9 457//9 470//9
f 458//9 472//9 471//9
f 457//9 458//9 471//9
f 388//16 387//16 372//16
f 388//16 372//16 371//16
f 387//16 390//16 375//16
f 387//16 375//16 372//16
f 390//16 392//16 377//16
f 390//16 377//16 375//16
f 392//16 394//16 379//16
f 392//16 379//16 377//16
f 394//16 396//16 381//16
f 394//16 381//16 379//16
f 396//16 398//16 383//16
f 396//16 383//16 381//16
f 402//16 401//16 358//16
f 402//16 358//16 357//16
f 401//16 404//16 361//16
f 401//16 361//16 358//16
f 404//16 406//16 363//16
f 404//16 363//16 361//16
f 406//16 408//16 365//16
f 406//16 365//16 363//16
f 408//16 410//16 367//16
f 408//16 367//16 365//16
f 410//16 412//16 369//16
f 410//16 369//16 367//16
f 459//9 386//9 385//9
f 460//9 459//9 385//9
f 461//9 389//9 386//9
f 459//9 461//9 386//9
f 462//9 391//9 389//9
f 461//9 462//9 389//9
f 463//9 393//9 391//9
f 462//9 463//9 391//9
f 464//9 395//9 393//9
f 463//9 464//9 393//9
f 465//9 397//9 395//9
f 464//9 465//9 395//9
f 466//9 400//9 399//9
f 467//9 466//9 399//9
f 468//9 403//9 400//9
f 466//9 468//9 400//9
f 469//9 405//9 403//9
f 468//9 469//9 403//9
f 470//9 407//9 405//9
f 469//9 470//9 405//9
f 471//9 409//9 407//9
f 470//9 471//9 407//9
f 472//9 411//9 409//9
f 471//9 472//9 409//9
f 473//197 341//226 270//216
f 474//198 473//197 270//216
f 475//199 474//198 270//216
f 305//178 475//199 270//216
f 275//217 341//226 476//200
f 275//217 476//200 477//201
f 275//217 477//201 478//202
f 275//217 478//202 308//182
f 479//191 328//225 278//218
f 480//192 479//191 278//218
f 481//193 480//192 278//218
f 315//186 481//193 278//218
f 267//215 328//225 482//194
f 267//215 482//194 483//195
f 267//215 483//195 484//196
f 267//215 484//196 298//190
f 319//222 437//230 485//183
f 319//222 485//183 486//184
f 319//222 486//184 487//185
f 319//222 487//185 306//186
f 488//187 437//230 322//223
f 489//188 488//187 322//223
f 490//189 489//188 322//223
f 309//190 490//189 322//223
f 323//224 430//228 491//175
f 323//224 491//175 492//176
f 323//224 492//176 493//177
f 323//224 493//177 316//178
f 494//179 430//228 318//221
f 495//180 494//179 318//221
f 496//181 495//180 318//221
f 299//182 496//181 318//221
f 473//233 485//234 437//9
f 341//9 473//233 437//9
f 474//235 486//236 485//234
f 473//233 474//235 485//234
f 475//237 487//238 486//236
f 474//235 475//237 486//236
f 305//219 306//219 487//238
f 475//237 305//219 487//238
f 437//9 488//239 476//240
f 437//9 476//240 341//9
f 488//239 489//241 477//242
f 488//239 477//242 476//240
f 489//241 490//243 478//244
f 489//241 478//244 477//242
f 490//243 309//220 308//220
f 490//243 308//220 478//244
f 479//240 491//239 430//9
f 328//9 479//240 430//9
f 480//242 492//241 491//239
f 479//240 480//242 491//239
f 481//244 493//243 492//241
f 480//242 481//244 492//241
f 315//220 316//220 493//243
f 481//244 315//220 493//243
f 430//9 494//234 482//233
f 430//9 482//233 328//9
f 494//234 495//236 483//235
f 494//234 483//235 482//233
f 495//236 496//238 484//237
f 495//236 484//237 483//235
f 496//238 299//219 298//219
f 496//238 298//219 484//237
