# Botball Lab: metres, +Y up, centred XZ, base Y=0
s off
v -0.0017827 0.0045185 0.0040000
v -0.0023029 0.0052972 0.0040000
v -0.0030816 0.0058174 0.0040000
v -0.0049184 0.0058174 0.0040000
v -0.0056971 0.0052972 0.0040000
v -0.0062173 0.0045185 0.0040000
v -0.0062173 0.0026817 0.0040000
v -0.0056971 0.0019030 0.0040000
v -0.0049184 0.0013828 0.0040000
v -0.0030816 0.0013828 0.0040000
v -0.0023029 0.0019030 0.0040000
v -0.0017827 0.0026817 0.0040000
v -0.0030000 0.0046001 0.0040000
v -0.0024000 0.0044001 0.0040000
v -0.0017591 0.0044001 0.0040000
v -0.0032000 0.0052001 0.0040000
v -0.0032000 0.0058410 0.0040000
v -0.0050000 0.0046001 0.0040000
v -0.0048000 0.0052001 0.0040000
v -0.0048000 0.0058410 0.0040000
v -0.0062409 0.0044001 0.0040000
v -0.0056000 0.0044001 0.0040000
v -0.0056000 0.0028001 0.0040000
v -0.0062409 0.0028001 0.0040000
v -0.0050000 0.0026001 0.0040000
v -0.0048000 0.0013592 0.0040000
v -0.0048000 0.0020001 0.0040000
v -0.0030000 0.0026001 0.0040000
v -0.0032000 0.0013592 0.0040000
v -0.0032000 0.0020001 0.0040000
v -0.0024000 0.0028001 0.0040000
v -0.0017591 0.0028001 0.0040000
v -0.0017827 0.0026817 -0.0040000
v -0.0023029 0.0019030 -0.0040000
v -0.0030816 0.0013828 -0.0040000
v -0.0049184 0.0013828 -0.0040000
v -0.0056971 0.0019030 -0.0040000
v -0.0062173 0.0026817 -0.0040000
v -0.0062173 0.0045185 -0.0040000
v -0.0056971 0.0052972 -0.0040000
v -0.0049184 0.0058174 -0.0040000
v -0.0030816 0.0058174 -0.0040000
v -0.0023029 0.0052972 -0.0040000
v -0.0017827 0.0045185 -0.0040000
v -0.0030000 0.0026001 -0.0040000
v -0.0024000 0.0028001 -0.0040000
v -0.0017591 0.0028001 -0.0040000
v -0.0032000 0.0020001 -0.0040000
v -0.0032000 0.0013592 -0.0040000
v -0.0050000 0.0026001 -0.0040000
v -0.0048000 0.0020001 -0.0040000
v -0.0048000 0.0013592 -0.0040000
v -0.0062409 0.0028001 -0.0040000
v -0.0056000 0.0028001 -0.0040000
v -0.0056000 0.0044001 -0.0040000
v -0.0062409 0.0044001 -0.0040000
v -0.0050000 0.0046001 -0.0040000
v -0.0048000 0.0058410 -0.0040000
v -0.0048000 0.0052001 -0.0040000
v -0.0030000 0.0046001 -0.0040000
v -0.0032000 0.0058410 -0.0040000
v -0.0032000 0.0052001 -0.0040000
v -0.0024000 0.0044001 -0.0040000
v -0.0017591 0.0044001 -0.0040000
v -0.0016000 0.0036001 -0.0040000
v -0.0016000 0.0036001 0.0040000
v -0.0040000 0.0060001 0.0040000
v -0.0040000 0.0060001 -0.0040000
v -0.0064000 0.0036001 0.0040000
v -0.0064000 0.0036001 -0.0040000
v -0.0040000 0.0012001 0.0040000
v -0.0040000 0.0012001 -0.0040000
v 0.0062173 0.0045185 0.0040000
v 0.0056971 0.0052972 0.0040000
v 0.0049184 0.0058174 0.0040000
v 0.0030816 0.0058174 0.0040000
v 0.0023029 0.0052972 0.0040000
v 0.0017827 0.0045185 0.0040000
v 0.0017827 0.0026817 0.0040000
v 0.0023029 0.0019030 0.0040000
v 0.0030816 0.0013828 0.0040000
v 0.0049184 0.0013828 0.0040000
v 0.0056971 0.0019030 0.0040000
v 0.0062173 0.0026817 0.0040000
v 0.0050000 0.0046001 0.0040000
v 0.0056000 0.0044001 0.0040000
v 0.0062409 0.0044001 0.0040000
v 0.0048000 0.0052001 0.0040000
v 0.0048000 0.0058410 0.0040000
v 0.0030000 0.0046001 0.0040000
v 0.0032000 0.0052001 0.0040000
v 0.0032000 0.0058410 0.0040000
v 0.0017591 0.0044001 0.0040000
v 0.0024000 0.0044001 0.0040000
v 0.0024000 0.0028001 0.0040000
v 0.0017591 0.0028001 0.0040000
v 0.0030000 0.0026001 0.0040000
v 0.0032000 0.0013592 0.0040000
v 0.0032000 0.0020001 0.0040000
v 0.0050000 0.0026001 0.0040000
v 0.0048000 0.0013592 0.0040000
v 0.0048000 0.0020001 0.0040000
v 0.0056000 0.0028001 0.0040000
v 0.0062409 0.0028001 0.0040000
v 0.0062173 0.0026817 -0.0040000
v 0.0056971 0.0019030 -0.0040000
v 0.0049184 0.0013828 -0.0040000
v 0.0030816 0.0013828 -0.0040000
v 0.0023029 0.0019030 -0.0040000
v 0.0017827 0.0026817 -0.0040000
v 0.0017827 0.0045185 -0.0040000
v 0.0023029 0.0052972 -0.0040000
v 0.0030816 0.0058174 -0.0040000
v 0.0049184 0.0058174 -0.0040000
v 0.0056971 0.0052972 -0.0040000
v 0.0062173 0.0045185 -0.0040000
v 0.0050000 0.0026001 -0.0040000
v 0.0056000 0.0028001 -0.0040000
v 0.0062409 0.0028001 -0.0040000
v 0.0048000 0.0020001 -0.0040000
v 0.0048000 0.0013592 -0.0040000
v 0.0030000 0.0026001 -0.0040000
v 0.0032000 0.0020001 -0.0040000
v 0.0032000 0.0013592 -0.0040000
v 0.0017591 0.0028001 -0.0040000
v 0.0024000 0.0028001 -0.0040000
v 0.0024000 0.0044001 -0.0040000
v 0.0017591 0.0044001 -0.0040000
v 0.0030000 0.0046001 -0.0040000
v 0.0032000 0.0058410 -0.0040000
v 0.0032000 0.0052001 -0.0040000
v 0.0050000 0.0046001 -0.0040000
v 0.0048000 0.0058410 -0.0040000
v 0.0048000 0.0052001 -0.0040000
v 0.0056000 0.0044001 -0.0040000
v 0.0062409 0.0044001 -0.0040000
v 0.0064000 0.0036001 -0.0040000
v 0.0064000 0.0036001 0.0040000
v 0.0040000 0.0060001 0.0040000
v 0.0040000 0.0060001 -0.0040000
v 0.0016000 0.0036001 0.0040000
v 0.0016000 0.0036001 -0.0040000
v 0.0040000 0.0012001 0.0040000
v 0.0040000 0.0012001 -0.0040000
v -0.0049185 0.0058175 -0.0040000
v -0.0053777 0.0069261 -0.0040000
v -0.0040000 0.0072001 -0.0040000
v -0.0056970 0.0052971 -0.0040000
v -0.0065456 0.0061457 -0.0040000
v -0.0062174 0.0045186 -0.0040000
v -0.0073260 0.0049778 -0.0040000
v -0.0076000 0.0036001 -0.0040000
v -0.0062174 0.0026816 -0.0040000
v -0.0073260 0.0022224 -0.0040000
v -0.0056970 0.0019031 -0.0040000
v -0.0065456 0.0010545 -0.0040000
v -0.0049185 0.0013827 -0.0040000
v -0.0053777 0.0002741 -0.0040000
v -0.0040000 0.0000001 -0.0040000
v -0.0030815 0.0013827 -0.0040000
v -0.0026223 0.0002741 -0.0040000
v -0.0023030 0.0019031 -0.0040000
v -0.0014544 0.0010545 -0.0040000
v -0.0017826 0.0026816 -0.0040000
v -0.0006740 0.0022224 -0.0040000
v -0.0004000 0.0036001 -0.0040000
v -0.0017826 0.0045186 -0.0040000
v -0.0006740 0.0049778 -0.0040000
v -0.0023030 0.0052971 -0.0040000
v -0.0014544 0.0061457 -0.0040000
v -0.0030815 0.0058175 -0.0040000
v -0.0026223 0.0069261 -0.0040000
v -0.0053777 0.0069261 0.0040000
v -0.0049185 0.0058175 0.0040000
v -0.0040000 0.0072001 0.0040000
v -0.0065456 0.0061457 0.0040000
v -0.0056970 0.0052971 0.0040000
v -0.0073260 0.0049778 0.0040000
v -0.0062174 0.0045186 0.0040000
v -0.0076000 0.0036001 0.0040000
v -0.0073260 0.0022224 0.0040000
v -0.0062174 0.0026816 0.0040000
v -0.0065456 0.0010545 0.0040000
v -0.0056970 0.0019031 0.0040000
v -0.0053777 0.0002741 0.0040000
v -0.0049185 0.0013827 0.0040000
v -0.0040000 0.0000001 0.0040000
v -0.0026223 0.0002741 0.0040000
v -0.0030815 0.0013827 0.0040000
v -0.0014544 0.0010545 0.0040000
v -0.0023030 0.0019031 0.0040000
v -0.0006740 0.0022224 0.0040000
v -0.0017826 0.0026816 0.0040000
v -0.0004000 0.0036001 0.0040000
v -0.0006740 0.0049778 0.0040000
v -0.0017826 0.0045186 0.0040000
v -0.0014544 0.0061457 0.0040000
v -0.0023030 0.0052971 0.0040000
v -0.0026223 0.0069261 0.0040000
v -0.0030815 0.0058175 0.0040000
v 0.0030815 0.0058175 -0.0040000
v 0.0026223 0.0069261 -0.0040000
v 0.0040000 0.0072001 -0.0040000
v 0.0023030 0.0052971 -0.0040000
v 0.0014544 0.0061457 -0.0040000
v 0.0017826 0.0045186 -0.0040000
v 0.0006740 0.0049778 -0.0040000
v 0.0004000 0.0036001 -0.0040000
v 0.0017826 0.0026816 -0.0040000
v 0.0006740 0.0022224 -0.0040000
v 0.0023030 0.0019031 -0.0040000
v 0.0014544 0.0010545 -0.0040000
v 0.0030815 0.0013827 -0.0040000
v 0.0026223 0.0002741 -0.0040000
v 0.0040000 0.0000001 -0.0040000
v 0.0049185 0.0013827 -0.0040000
v 0.0053777 0.0002741 -0.0040000
v 0.0056970 0.0019031 -0.0040000
v 0.0065456 0.0010545 -0.0040000
v 0.0062174 0.0026816 -0.0040000
v 0.0073260 0.0022224 -0.0040000
v 0.0076000 0.0036001 -0.0040000
v 0.0062174 0.0045186 -0.0040000
v 0.0073260 0.0049778 -0.0040000
v 0.0056970 0.0052971 -0.0040000
v 0.0065456 0.0061457 -0.0040000
v 0.0049185 0.0058175 -0.0040000
v 0.0053777 0.0069261 -0.0040000
v 0.0026223 0.0069261 0.0040000
v 0.0030815 0.0058175 0.0040000
v 0.0040000 0.0072001 0.0040000
v 0.0014544 0.0061457 0.0040000
v 0.0023030 0.0052971 0.0040000
v 0.0006740 0.0049778 0.0040000
v 0.0017826 0.0045186 0.0040000
v 0.0004000 0.0036001 0.0040000
v 0.0006740 0.0022224 0.0040000
v 0.0017826 0.0026816 0.0040000
v 0.0014544 0.0010545 0.0040000
v 0.0023030 0.0019031 0.0040000
v 0.0026223 0.0002741 0.0040000
v 0.0030815 0.0013827 0.0040000
v 0.0040000 0.0000001 0.0040000
v 0.0053777 0.0002741 0.0040000
v 0.0049185 0.0013827 0.0040000
v 0.0065456 0.0010545 0.0040000
v 0.0056970 0.0019031 0.0040000
v 0.0073260 0.0022224 0.0040000
v 0.0062174 0.0026816 0.0040000
v 0.0076000 0.0036001 0.0040000
v 0.0073260 0.0049778 0.0040000
v 0.0062174 0.0045186 0.0040000
v 0.0065456 0.0061457 0.0040000
v 0.0056970 0.0052971 0.0040000
v 0.0053777 0.0069261 0.0040000
v 0.0049185 0.0058175 0.0040000
v -0.0040000 0.0072002 -0.0040000
v -0.0040000 0.0072002 0.0040000
v -0.0053776 0.0069260 -0.0040000
v -0.0053776 0.0069260 0.0040000
v -0.0065456 0.0061458 -0.0040000
v -0.0065456 0.0061458 0.0040000
v -0.0076001 0.0036001 -0.0040000
v -0.0076001 0.0036001 0.0040000
v -0.0073259 0.0022224 -0.0040000
v -0.0073259 0.0022224 0.0040000
v -0.0065457 0.0010545 -0.0040000
v -0.0065457 0.0010545 0.0040000
v -0.0040000 0.0000000 -0.0040000
v -0.0040000 0.0000000 0.0040000
v -0.0026224 0.0002742 -0.0040000
v -0.0026224 0.0002742 0.0040000
v 0.0040000 0.0000000 -0.0040000
v 0.0040000 0.0000000 0.0040000
v 0.0053776 0.0002742 -0.0040000
v 0.0053776 0.0002742 0.0040000
v 0.0065456 0.0010544 -0.0040000
v 0.0065456 0.0010544 0.0040000
v 0.0076001 0.0036001 -0.0040000
v 0.0076001 0.0036001 0.0040000
v 0.0073259 0.0049777 -0.0040000
v 0.0073259 0.0049777 0.0040000
v 0.0065457 0.0061457 -0.0040000
v 0.0065457 0.0061457 0.0040000
v 0.0040000 0.0072002 -0.0040000
v 0.0040000 0.0072002 0.0040000
v 0.0026224 0.0069260 -0.0040000
v 0.0026224 0.0069260 0.0040000
v 0.0013777 0.0010545 -0.0040000
v 0.0013777 0.0010545 0.0040000
v -0.0013777 0.0010545 0.0040000
v -0.0013777 0.0010545 -0.0040000
v -0.0013777 0.0061457 -0.0040000
v -0.0013777 0.0061457 0.0040000
v 0.0013777 0.0061457 0.0040000
v 0.0013777 0.0061457 -0.0040000
v -0.0000000 0.0058716 -0.0040000
v -0.0000000 0.0058716 0.0040000
v -0.0013776 0.0061458 -0.0040000
v -0.0013776 0.0061458 0.0040000
v 0.0000000 0.0013286 -0.0040000
v 0.0000000 0.0013286 0.0040000
v 0.0013776 0.0010544 -0.0040000
v 0.0013776 0.0010544 0.0040000
v 0.0000000 0.0013285 0.0040000
v 0.0000000 0.0058717 0.0040000
v 0.0000000 0.0013285 -0.0040000
v 0.0000000 0.0058717 -0.0040000
v 0.0014548 0.0010549 0.0040000
v -0.0014548 0.0010549 0.0040000
v -0.0014548 0.0061453 0.0040000
v 0.0014548 0.0061453 0.0040000
v -0.0014548 0.0010549 -0.0040000
v 0.0014548 0.0010549 -0.0040000
v 0.0014548 0.0061453 -0.0040000
v -0.0014548 0.0061453 -0.0040000
vn 0.0 0.0 1.0
vn 0.0 0.0 -1.0
vn -0.9978099 -0.0661465 0.0
vn -0.9978099 0.0661465 0.0
vn -0.9807923 -0.1950551 0.0
vn -0.1591199 -0.9872593 0.0
vn 0.0 -1.0 0.0
vn -0.3162278 -0.9486833 0.0
vn -0.9486833 -0.3162278 0.0
vn -0.9771979 -0.2123305 0.0
vn -0.9943996 -0.105686 0.0
vn -1.0 0.0 0.0
vn -0.1950551 -0.9807923 0.0
vn 0.1950551 -0.9807923 0.0
vn 0.9872593 -0.1591199 0.0
vn 1.0 0.0 0.0
vn 0.9486833 -0.3162278 0.0
vn 0.3162278 -0.9486833 0.0
vn 0.2123305 -0.9771979 0.0
vn 0.105686 -0.9943996 0.0
vn 0.9807923 -0.1950551 0.0
vn 0.9978099 -0.0661465 0.0
vn 0.9978099 0.0661465 0.0
vn 0.9807923 0.1950551 0.0
vn 0.0 1.0 0.0
vn 0.105686 0.9943996 0.0
vn 0.2123305 0.9771979 0.0
vn 0.3162278 0.9486833 0.0
vn 0.9486833 0.3162278 0.0
vn 0.9771979 0.2123305 0.0
vn 0.9943996 0.105686 0.0
vn 0.1950551 0.9807923 0.0
vn -0.1950551 0.9807923 0.0
vn -0.9943996 0.105686 0.0
vn -0.9771979 0.2123305 0.0
vn -0.9486833 0.3162278 0.0
vn -0.3162278 0.9486833 0.0
vn -0.2123305 0.9771979 0.0
vn -0.105686 0.9943996 0.0
vn -0.9807923 0.1950551 0.0
vn 0.0661505 0.9978097 0.0
vn -0.0662242 0.9978048 0.0
vn 0.373092 0.9277944 0.0
vn -0.3207581 0.9471611 0.0
vn -0.4429207 0.8965608 0.0
vn -0.6587165 0.7523912 0.0
vn -0.7523224 0.6587951 0.0
vn -0.8965368 0.4429694 0.0
vn -0.9471661 0.3207435 0.0
vn -0.9978098 0.0661489 0.0
vn -0.997805 -0.066221 0.0
vn -0.9471636 -0.3207508 0.0
vn -0.896556 -0.4429303 0.0
vn -0.7523703 -0.6587405 0.0
vn -0.6587815 -0.7523344 0.0
vn -0.4429694 -0.8965368 0.0
vn -0.3207435 -0.9471661 0.0
vn -0.0661505 -0.9978097 0.0
vn 0.0662242 -0.9978048 0.0
vn 0.1952124 -0.980761 0.0
vn -0.373092 -0.9277944 0.0
vn 0.3207581 -0.9471611 0.0
vn 0.4429207 -0.8965608 0.0
vn 0.6587165 -0.7523912 0.0
vn 0.7523224 -0.6587951 0.0
vn 0.8965368 -0.4429694 0.0
vn 0.9471661 -0.3207435 0.0
vn 0.9978097 -0.0661505 0.0
vn 0.9978048 0.0662242 0.0
vn 0.9471611 0.3207581 0.0
vn 0.8965608 0.4429207 0.0
vn 0.7523912 0.6587165 0.0
vn 0.6587951 0.7523224 0.0
vn 0.4429694 0.8965368 0.0
vn 0.3207435 0.9471661 0.0
vn -0.1952124 0.980761 0.0
vn -0.5312344 -0.8472249 0.0
vn 0.373092 -0.9277944 0.0
vn 0.5312344 -0.8472249 0.0
vn 0.5312344 0.8472249 0.0
vn -0.373092 0.9277944 0.0
vn -0.5312344 0.8472249 0.0
vn -0.0661505 0.9978097 0.0
vn 0.0662242 0.9978048 0.0
vn 0.1952124 0.980761 0.0
vn 0.0661505 -0.9978097 0.0
vn -0.0662242 -0.9978048 0.0
vn -0.1952124 -0.980761 0.0
f 1//1 2//1 3//1
f 4//1 5//1 6//1
f 7//1 8//1 9//1
f 10//1 11//1 12//1
f 1//1 3//1 13//1
f 13//1 14//1 15//1
f 13//1 15//1 1//1
f 16//1 13//1 3//1
f 16//1 3//1 17//1
f 18//1 4//1 6//1
f 18//1 19//1 20//1
f 18//1 20//1 4//1
f 21//1 22//1 18//1
f 21//1 18//1 6//1
f 23//1 24//1 7//1
f 23//1 7//1 25//1
f 7//1 9//1 25//1
f 9//1 26//1 27//1
f 9//1 27//1 25//1
f 10//1 12//1 28//1
f 29//1 10//1 28//1
f 29//1 28//1 30//1
f 31//1 28//1 12//1
f 31//1 12//1 32//1
f 33//2 34//2 35//2
f 36//2 37//2 38//2
f 39//2 40//2 41//2
f 42//2 43//2 44//2
f 33//2 35//2 45//2
f 45//2 46//2 47//2
f 45//2 47//2 33//2
f 48//2 45//2 35//2
f 48//2 35//2 49//2
f 50//2 36//2 38//2
f 50//2 51//2 52//2
f 50//2 52//2 36//2
f 53//2 54//2 50//2
f 53//2 50//2 38//2
f 55//2 56//2 39//2
f 55//2 39//2 57//2
f 39//2 41//2 57//2
f 41//2 58//2 59//2
f 41//2 59//2 57//2
f 42//2 44//2 60//2
f 61//2 42//2 60//2
f 61//2 60//2 62//2
f 63//2 60//2 44//2
f 63//2 44//2 64//2
f 65//3 66//4 15//5
f 65//3 15//5 64//5
f 63//6 64//7 15//7
f 63//6 15//7 14//6
f 63//6 14//6 13//8
f 63//6 13//8 60//8
f 60//9 13//9 16//10
f 60//9 16//10 62//11
f 62//11 16//10 17//12
f 62//11 17//12 61//12
f 17//13 67//7 68//7
f 17//13 68//7 61//13
f 68//7 67//7 20//14
f 68//7 20//14 58//14
f 59//15 58//16 20//16
f 59//15 20//16 19//15
f 59//15 19//15 18//17
f 59//15 18//17 57//17
f 57//18 18//18 22//19
f 57//18 22//19 55//20
f 55//20 22//19 21//7
f 55//20 21//7 56//7
f 56//21 21//21 69//22
f 56//21 69//22 70//23
f 70//23 69//22 24//24
f 70//23 24//24 53//24
f 53//25 24//25 23//26
f 53//25 23//26 54//27
f 54//27 23//26 25//28
f 54//27 25//28 50//28
f 50//29 25//29 27//30
f 50//29 27//30 51//31
f 51//31 27//30 26//16
f 51//31 26//16 52//16
f 26//32 71//25 72//25
f 26//32 72//25 52//32
f 72//25 71//25 29//33
f 72//25 29//33 49//33
f 49//12 29//12 30//34
f 49//12 30//34 48//35
f 48//35 30//34 28//36
f 48//35 28//36 45//36
f 45//37 28//37 31//38
f 45//37 31//38 46//39
f 46//39 31//38 32//25
f 46//39 32//25 47//25
f 47//40 32//40 66//4
f 47//40 66//4 65//3
f 73//1 74//1 75//1
f 76//1 77//1 78//1
f 79//1 80//1 81//1
f 82//1 83//1 84//1
f 73//1 75//1 85//1
f 85//1 86//1 87//1
f 85//1 87//1 73//1
f 88//1 85//1 75//1
f 88//1 75//1 89//1
f 90//1 76//1 78//1
f 90//1 91//1 92//1
f 90//1 92//1 76//1
f 93//1 94//1 90//1
f 93//1 90//1 78//1
f 95//1 96//1 79//1
f 95//1 79//1 97//1
f 79//1 81//1 97//1
f 81//1 98//1 99//1
f 81//1 99//1 97//1
f 82//1 84//1 100//1
f 101//1 82//1 100//1
f 101//1 100//1 102//1
f 103//1 100//1 84//1
f 103//1 84//1 104//1
f 105//2 106//2 107//2
f 108//2 109//2 110//2
f 111//2 112//2 113//2
f 114//2 115//2 116//2
f 105//2 107//2 117//2
f 117//2 118//2 119//2
f 117//2 119//2 105//2
f 120//2 117//2 107//2
f 120//2 107//2 121//2
f 122//2 108//2 110//2
f 122//2 123//2 124//2
f 122//2 124//2 108//2
f 125//2 126//2 122//2
f 125//2 122//2 110//2
f 127//2 128//2 111//2
f 127//2 111//2 129//2
f 111//2 113//2 129//2
f 113//2 130//2 131//2
f 113//2 131//2 129//2
f 114//2 116//2 132//2
f 133//2 114//2 132//2
f 133//2 132//2 134//2
f 135//2 132//2 116//2
f 135//2 116//2 136//2
f 137//3 138//4 87//5
f 137//3 87//5 136//5
f 135//6 136//7 87//7
f 135//6 87//7 86//6
f 135//6 86//6 85//8
f 135//6 85//8 132//8
f 132//9 85//9 88//10
f 132//9 88//10 134//11
f 134//11 88//10 89//12
f 134//11 89//12 133//12
f 89//13 139//7 140//7
f 89//13 140//7 133//13
f 140//7 139//7 92//14
f 140//7 92//14 130//14
f 131//15 130//16 92//16
f 131//15 92//16 91//15
f 131//15 91//15 90//17
f 131//15 90//17 129//17
f 129//18 90//18 94//19
f 129//18 94//19 127//20
f 127//20 94//19 93//7
f 127//20 93//7 128//7
f 128//21 93//21 141//22
f 128//21 141//22 142//23
f 142//23 141//22 96//24
f 142//23 96//24 125//24
f 125//25 96//25 95//26
f 125//25 95//26 126//27
f 126//27 95//26 97//28
f 126//27 97//28 122//28
f 122//29 97//29 99//30
f 122//29 99//30 123//31
f 123//31 99//30 98//16
f 123//31 98//16 124//16
f 98//32 143//25 144//25
f 98//32 144//25 124//32
f 144//25 143//25 101//33
f 144//25 101//33 121//33
f 121//12 101//12 102//34
f 121//12 102//34 120//35
f 120//35 102//34 100//36
f 120//35 100//36 117//36
f 117//37 100//37 103//38
f 117//37 103//38 118//39
f 118//39 103//38 104//25
f 118//39 104//25 119//25
f 119//40 104//40 138//4
f 119//40 138//4 137//3
f 68//2 145//2 146//2
f 147//2 68//2 146//2
f 145//2 148//2 149//2
f 146//2 145//2 149//2
f 148//2 150//2 151//2
f 149//2 148//2 151//2
f 150//2 70//2 152//2
f 151//2 150//2 152//2
f 70//2 153//2 154//2
f 152//2 70//2 154//2
f 153//2 155//2 156//2
f 154//2 153//2 156//2
f 155//2 157//2 158//2
f 156//2 155//2 158//2
f 157//2 72//2 159//2
f 158//2 157//2 159//2
f 72//2 160//2 161//2
f 159//2 72//2 161//2
f 160//2 162//2 163//2
f 161//2 160//2 163//2
f 162//2 164//2 165//2
f 163//2 162//2 165//2
f 164//2 65//2 166//2
f 165//2 164//2 166//2
f 65//2 167//2 168//2
f 166//2 65//2 168//2
f 167//2 169//2 170//2
f 168//2 167//2 170//2
f 169//2 171//2 172//2
f 170//2 169//2 172//2
f 171//2 68//2 147//2
f 172//2 171//2 147//2
f 173//1 174//1 67//1
f 173//1 67//1 175//1
f 176//1 177//1 174//1
f 176//1 174//1 173//1
f 178//1 179//1 177//1
f 178//1 177//1 176//1
f 180//1 69//1 179//1
f 180//1 179//1 178//1
f 181//1 182//1 69//1
f 181//1 69//1 180//1
f 183//1 184//1 182//1
f 183//1 182//1 181//1
f 185//1 186//1 184//1
f 185//1 184//1 183//1
f 187//1 71//1 186//1
f 187//1 186//1 185//1
f 188//1 189//1 71//1
f 188//1 71//1 187//1
f 190//1 191//1 189//1
f 190//1 189//1 188//1
f 192//1 193//1 191//1
f 192//1 191//1 190//1
f 194//1 66//1 193//1
f 194//1 193//1 192//1
f 195//1 196//1 66//1
f 195//1 66//1 194//1
f 197//1 198//1 196//1
f 197//1 196//1 195//1
f 199//1 200//1 198//1
f 199//1 198//1 197//1
f 175//1 67//1 200//1
f 175//1 200//1 199//1
f 140//2 201//2 202//2
f 203//2 140//2 202//2
f 201//2 204//2 205//2
f 202//2 201//2 205//2
f 204//2 206//2 207//2
f 205//2 204//2 207//2
f 206//2 142//2 208//2
f 207//2 206//2 208//2
f 142//2 209//2 210//2
f 208//2 142//2 210//2
f 209//2 211//2 212//2
f 210//2 209//2 212//2
f 211//2 213//2 214//2
f 212//2 211//2 214//2
f 213//2 144//2 215//2
f 214//2 213//2 215//2
f 144//2 216//2 217//2
f 215//2 144//2 217//2
f 216//2 218//2 219//2
f 217//2 216//2 219//2
f 218//2 220//2 221//2
f 219//2 218//2 221//2
f 220//2 137//2 222//2
f 221//2 220//2 222//2
f 137//2 223//2 224//2
f 222//2 137//2 224//2
f 223//2 225//2 226//2
f 224//2 223//2 226//2
f 225//2 227//2 228//2
f 226//2 225//2 228//2
f 227//2 140//2 203//2
f 228//2 227//2 203//2
f 229//1 230//1 139//1
f 229//1 139//1 231//1
f 232//1 233//1 230//1
f 232//1 230//1 229//1
f 234//1 235//1 233//1
f 234//1 233//1 232//1
f 236//1 141//1 235//1
f 236//1 235//1 234//1
f 237//1 238//1 141//1
f 237//1 141//1 236//1
f 239//1 240//1 238//1
f 239//1 238//1 237//1
f 241//1 242//1 240//1
f 241//1 240//1 239//1
f 243//1 143//1 242//1
f 243//1 242//1 241//1
f 244//1 245//1 143//1
f 244//1 143//1 243//1
f 246//1 247//1 245//1
f 246//1 245//1 244//1
f 248//1 249//1 247//1
f 248//1 247//1 246//1
f 250//1 138//1 249//1
f 250//1 249//1 248//1
f 251//1 252//1 138//1
f 251//1 138//1 250//1
f 253//1 254//1 252//1
f 253//1 252//1 251//1
f 255//1 256//1 254//1
f 255//1 254//1 253//1
f 231//1 139//1 256//1
f 231//1 256//1 255//1
f 257//41 258//42 199//43
f 257//41 199//43 172//43
f 259//44 260//45 258//42
f 259//44 258//42 257//41
f 261//46 262//47 260//45
f 261//46 260//45 259//44
f 151//48 178//49 262//47
f 151//48 262//47 261//46
f 263//50 264//51 178//49
f 263//50 178//49 151//48
f 265//52 266//53 264//51
f 265//52 264//51 263//50
f 267//54 268//55 266//53
f 267//54 266//53 265//52
f 158//56 185//57 268//55
f 158//56 268//55 267//54
f 269//58 270//59 185//57
f 269//58 185//57 158//56
f 271//60 272//60 270//59
f 271//60 270//59 269//58
f 273//58 274//59 241//61
f 273//58 241//61 214//61
f 275//62 276//63 274//59
f 275//62 274//59 273//58
f 277//64 278//65 276//63
f 277//64 276//63 275//62
f 221//66 248//67 278//65
f 221//66 278//65 277//64
f 279//68 280//69 248//67
f 279//68 248//67 221//66
f 281//70 282//71 280//69
f 281//70 280//69 279//68
f 283//72 284//73 282//71
f 283//72 282//71 281//70
f 228//74 255//75 284//73
f 228//74 284//73 283//72
f 285//41 286//42 255//75
f 285//41 255//75 228//74
f 287//76 288//76 286//42
f 287//76 286//42 285//41
f 289//77 214//61 241//61
f 289//77 241//61 290//77
f 291//78 188//79 161//79
f 291//78 161//79 292//78
f 293//80 172//43 199//43
f 293//80 199//43 294//80
f 295//81 229//82 202//82
f 295//81 202//82 296//81
f 297//83 298//84 295//81
f 297//83 295//81 296//81
f 299//85 300//85 298//84
f 299//85 298//84 297//83
f 301//86 302//87 291//78
f 301//86 291//78 292//78
f 303//88 304//88 302//87
f 303//88 302//87 301//86
f 236//1 194//1 192//1
f 236//1 192//1 237//1
f 234//1 195//1 194//1
f 234//1 194//1 236//1
f 166//2 208//2 210//2
f 166//2 210//2 165//2
f 168//2 207//2 208//2
f 168//2 208//2 166//2
f 237//1 192//1 305//1
f 306//1 195//1 234//1
f 165//2 210//2 307//2
f 308//2 207//2 168//2
f 290//1 237//1 305//1
f 305//1 192//1 291//1
f 296//2 207//2 308//2
f 308//2 168//2 293//2
f 292//2 165//2 307//2
f 307//2 210//2 289//2
f 294//1 195//1 306//1
f 306//1 234//1 295//1
f 237//1 290//1 309//1
f 310//1 291//1 192//1
f 195//1 294//1 311//1
f 312//1 295//1 234//1
f 165//2 292//2 313//2
f 314//2 289//2 210//2
f 207//2 296//2 315//2
f 316//2 293//2 168//2
f 309//1 290//1 241//1
f 188//1 291//1 310//1
f 311//1 294//1 199//1
f 229//1 295//1 312//1
f 313//2 292//2 161//2
f 214//2 289//2 314//2
f 315//2 296//2 202//2
f 172//2 293//2 316//2
