# Botball Lab: metres, +Y up, centred XZ, base Y=0
s off
v 0.0022174 0.0205184 0.0020000
v 0.0024000 0.0196000 0.0020000
v 0.0024000 0.0220000 0.0020000
v 0.0016970 0.0212970 0.0020000
v 0.0009185 0.0218173 0.0020000
v 0.0000000 0.0220000 0.0020000
v -0.0009185 0.0218173 0.0020000
v -0.0024000 0.0220000 0.0020000
v -0.0016970 0.0212970 0.0020000
v -0.0022174 0.0205184 0.0020000
v -0.0024000 0.0196000 0.0020000
v 0.0024000 0.0220000 -0.0020000
v 0.0024000 0.0196000 -0.0020000
v 0.0022174 0.0205184 -0.0020000
v 0.0016970 0.0212970 -0.0020000
v 0.0009185 0.0218173 -0.0020000
v 0.0000000 0.0220000 -0.0020000
v -0.0024000 0.0220000 -0.0020000
v -0.0009185 0.0218173 -0.0020000
v -0.0016970 0.0212970 -0.0020000
v -0.0022174 0.0205184 -0.0020000
v -0.0024000 0.0196000 -0.0020000
v -0.0036000 0.0116000 0.0020000
v -0.0033260 0.0102222 0.0020000
v -0.0022174 0.0106815 0.0020000
v -0.0024000 0.0116000 0.0020000
v -0.0025456 0.0090544 0.0020000
v -0.0016970 0.0099029 0.0020000
v -0.0013777 0.0082739 0.0020000
v -0.0009185 0.0093826 0.0020000
v 0.0000000 0.0080000 0.0020000
v 0.0000000 0.0092000 0.0020000
v 0.0013777 0.0082739 0.0020000
v 0.0009185 0.0093826 0.0020000
v 0.0025456 0.0090544 0.0020000
v 0.0016970 0.0099029 0.0020000
v 0.0033260 0.0102222 0.0020000
v 0.0022174 0.0106815 0.0020000
v 0.0036000 0.0116000 0.0020000
v 0.0024000 0.0116000 0.0020000
v -0.0022174 0.0106815 -0.0020000
v -0.0033260 0.0102222 -0.0020000
v -0.0036000 0.0116000 -0.0020000
v -0.0024000 0.0116000 -0.0020000
v -0.0016970 0.0099029 -0.0020000
v -0.0025456 0.0090544 -0.0020000
v -0.0009185 0.0093826 -0.0020000
v -0.0013777 0.0082739 -0.0020000
v 0.0000000 0.0092000 -0.0020000
v 0.0000000 0.0080000 -0.0020000
v 0.0009185 0.0093826 -0.0020000
v 0.0013777 0.0082739 -0.0020000
v 0.0016970 0.0099029 -0.0020000
v 0.0025456 0.0090544 -0.0020000
v 0.0022174 0.0106815 -0.0020000
v 0.0033260 0.0102222 -0.0020000
v 0.0024000 0.0116000 -0.0020000
v 0.0036000 0.0116000 -0.0020000
v 0.0076000 0.0156000 0.0020000
v 0.0073040 0.0118440 0.0020000
v 0.0073040 0.0118440 -0.0020000
v 0.0076000 0.0156000 -0.0020000
v 0.0064240 0.0081840 0.0020000
v 0.0064240 0.0081840 -0.0020000
v 0.0049840 0.0047040 -0.0020000
v 0.0049840 0.0047040 0.0020000
v 0.0025456 0.0010544 0.0020000
v 0.0025456 0.0010544 -0.0020000
v -0.0025456 0.0010544 0.0020000
v -0.0049840 0.0047040 0.0020000
v -0.0049840 0.0047040 -0.0020000
v -0.0025456 0.0010544 -0.0020000
v -0.0064240 0.0081840 0.0020000
v -0.0064240 0.0081840 -0.0020000
v -0.0073040 0.0118440 0.0020000
v -0.0073040 0.0118440 -0.0020000
v -0.0076000 0.0156000 0.0020000
v -0.0076000 0.0156000 -0.0020000
v -0.0064000 0.0156000 0.0020000
v -0.0061200 0.0120320 0.0020000
v -0.0061200 0.0120320 -0.0020000
v -0.0064000 0.0156000 -0.0020000
v -0.0052840 0.0085560 0.0020000
v -0.0052840 0.0085560 -0.0020000
v -0.0039160 0.0052480 0.0020000
v -0.0039160 0.0052480 -0.0020000
v -0.0034200 0.0045040 0.0020000
v -0.0034200 0.0045040 -0.0020000
v 0.0064000 0.0156000 -0.0020000
v 0.0061200 0.0120320 -0.0020000
v 0.0061200 0.0120320 0.0020000
v 0.0064000 0.0156000 0.0020000
v 0.0052840 0.0085560 -0.0020000
v 0.0052840 0.0085560 0.0020000
v 0.0039160 0.0052480 -0.0020000
v 0.0039160 0.0052480 0.0020000
v 0.0034200 0.0045040 -0.0020000
v 0.0034200 0.0045040 0.0020000
v 0.0033260 0.0049776 0.0020000
v 0.0033260 0.0049776 -0.0020000
v -0.0033259 0.0049776 -0.0020000
v -0.0033259 0.0049776 0.0020000
v 0.0022173 0.0045184 -0.0020000
v 0.0024000 0.0036000 -0.0020000
v 0.0024000 0.0012000 -0.0020000
v -0.0024000 0.0012000 -0.0020000
v -0.0024000 0.0036000 -0.0020000
v -0.0022173 0.0045184 -0.0020000
v 0.0022173 0.0045184 0.0020000
v 0.0024000 0.0036000 0.0020000
v 0.0024000 0.0012000 0.0020000
v -0.0024000 0.0012000 0.0020000
v -0.0024000 0.0036000 0.0020000
v -0.0022173 0.0045184 0.0020000
v 0.0012000 0.0082400 0.0020000
v 0.0012000 0.0069600 0.0020000
v 0.0012000 0.0069600 -0.0020000
v 0.0012000 0.0082400 -0.0020000
v 0.0013776 0.0069259 0.0020000
v 0.0013776 0.0069259 -0.0020000
v -0.0013777 0.0069259 -0.0020000
v -0.0013777 0.0069259 0.0020000
v -0.0012000 0.0069600 0.0020000
v -0.0012000 0.0069600 -0.0020000
v -0.0012000 0.0082400 0.0020000
v -0.0012000 0.0082400 -0.0020000
v 0.0013777 0.0082740 -0.0020000
v 0.0013777 0.0082740 0.0020000
v 0.0016971 0.0052971 0.0020000
v 0.0009184 0.0058173 0.0020000
v -0.0009184 0.0058173 0.0020000
v -0.0016971 0.0052971 0.0020000
v -0.0022173 0.0026815 0.0020000
v -0.0016971 0.0019029 0.0020000
v -0.0009184 0.0013827 0.0020000
v 0.0009184 0.0013827 0.0020000
v 0.0016971 0.0019029 0.0020000
v 0.0022173 0.0026815 0.0020000
v 0.0010000 0.0046000 0.0020000
v 0.0016000 0.0044000 0.0020000
v 0.0022409 0.0044000 0.0020000
v 0.0008000 0.0052000 0.0020000
v 0.0008000 0.0058409 0.0020000
v -0.0010000 0.0046000 0.0020000
v -0.0008000 0.0052000 0.0020000
v -0.0008000 0.0058409 0.0020000
v -0.0022409 0.0044000 0.0020000
v -0.0016000 0.0044000 0.0020000
v -0.0016000 0.0028000 0.0020000
v -0.0022409 0.0028000 0.0020000
v -0.0010000 0.0026000 0.0020000
v -0.0009184 0.0013826 0.0020000
v -0.0008000 0.0013590 0.0020000
v -0.0008000 0.0020000 0.0020000
v 0.0009184 0.0013826 0.0020000
v 0.0010000 0.0026000 0.0020000
v 0.0008000 0.0013590 0.0020000
v 0.0008000 0.0020000 0.0020000
v 0.0016000 0.0028000 0.0020000
v 0.0022409 0.0028000 0.0020000
v 0.0022173 0.0026815 -0.0020000
v 0.0016971 0.0019029 -0.0020000
v 0.0009184 0.0013827 -0.0020000
v -0.0009184 0.0013827 -0.0020000
v -0.0016971 0.0019029 -0.0020000
v -0.0022173 0.0026815 -0.0020000
v -0.0016971 0.0052971 -0.0020000
v -0.0009184 0.0058173 -0.0020000
v 0.0009184 0.0058173 -0.0020000
v 0.0016971 0.0052971 -0.0020000
v 0.0009184 0.0013826 -0.0020000
v 0.0010000 0.0026000 -0.0020000
v 0.0016000 0.0028000 -0.0020000
v 0.0022409 0.0028000 -0.0020000
v 0.0008000 0.0020000 -0.0020000
v 0.0008000 0.0013590 -0.0020000
v -0.0010000 0.0026000 -0.0020000
v -0.0009184 0.0013826 -0.0020000
v -0.0008000 0.0020000 -0.0020000
v -0.0008000 0.0013590 -0.0020000
v -0.0022409 0.0028000 -0.0020000
v -0.0016000 0.0028000 -0.0020000
v -0.0016000 0.0044000 -0.0020000
v -0.0022409 0.0044000 -0.0020000
v -0.0010000 0.0046000 -0.0020000
v -0.0008000 0.0058409 -0.0020000
v -0.0008000 0.0052000 -0.0020000
v 0.0010000 0.0046000 -0.0020000
v 0.0008000 0.0058409 -0.0020000
v 0.0008000 0.0052000 -0.0020000
v 0.0016000 0.0044000 -0.0020000
v 0.0022409 0.0044000 -0.0020000
v 0.0000000 0.0012000 0.0020000
v 0.0000000 0.0012000 -0.0020000
v 0.0022174 0.0026815 0.0020000
v 0.0016970 0.0019029 0.0020000
v 0.0009185 0.0013826 0.0020000
v -0.0009185 0.0013826 0.0020000
v -0.0016970 0.0019029 0.0020000
v -0.0022174 0.0026815 0.0020000
v 0.0022174 0.0026815 -0.0020000
v 0.0016970 0.0019029 -0.0020000
v 0.0009185 0.0013826 -0.0020000
v -0.0009185 0.0013826 -0.0020000
v -0.0016970 0.0019029 -0.0020000
v -0.0022174 0.0026815 -0.0020000
v -0.0013777 0.0002739 -0.0020000
v -0.0013777 0.0002739 0.0020000
v 0.0000000 0.0000000 -0.0020000
v 0.0000000 0.0000000 0.0020000
v 0.0013777 0.0002739 -0.0020000
v 0.0013777 0.0002739 0.0020000
v 0.0022173 0.0205184 0.0020000
v 0.0016971 0.0212971 0.0020000
v 0.0009184 0.0218172 0.0020000
v 0.0009184 0.0218172 -0.0020000
v 0.0016971 0.0212971 -0.0020000
v 0.0022173 0.0205184 -0.0020000
v 0.0008000 0.0212000 0.0020000
v 0.0008000 0.0212000 -0.0020000
v 0.0010000 0.0206000 -0.0020000
v 0.0010000 0.0206000 0.0020000
v 0.0008000 0.0218409 0.0020000
v 0.0008000 0.0218409 -0.0020000
v 0.0016000 0.0204000 0.0020000
v 0.0016000 0.0204000 -0.0020000
v 0.0022409 0.0204000 -0.0020000
v 0.0022409 0.0204000 0.0020000
v -0.0009184 0.0218173 0.0020000
v -0.0016971 0.0212971 0.0020000
v -0.0022173 0.0205184 0.0020000
v -0.0022173 0.0205184 -0.0020000
v -0.0016971 0.0212971 -0.0020000
v -0.0009184 0.0218173 -0.0020000
v -0.0016000 0.0204000 0.0020000
v -0.0016000 0.0204000 -0.0020000
v -0.0010000 0.0206000 -0.0020000
v -0.0010000 0.0206000 0.0020000
v -0.0022409 0.0204000 0.0020000
v -0.0022409 0.0204000 -0.0020000
v -0.0008000 0.0212000 0.0020000
v -0.0008000 0.0212000 -0.0020000
v -0.0008000 0.0218409 -0.0020000
v -0.0008000 0.0218409 0.0020000
v 0.0024000 0.0180000 0.0020000
v 0.0022174 0.0165184 0.0020000
v 0.0024000 0.0156000 0.0020000
v 0.0016970 0.0172970 0.0020000
v 0.0009185 0.0178173 0.0020000
v 0.0022409 0.0188000 0.0020000
v 0.0022409 0.0188000 -0.0020000
v 0.0016000 0.0188000 -0.0020000
v 0.0016000 0.0188000 0.0020000
v 0.0010000 0.0186000 -0.0020000
v 0.0010000 0.0186000 0.0020000
v 0.0009184 0.0178172 0.0020000
v 0.0022410 0.0188000 0.0020000
v 0.0008000 0.0180000 0.0020000
v 0.0008000 0.0178408 0.0020000
v 0.0022174 0.0146815 0.0020000
v 0.0024000 0.0132000 0.0020000
v 0.0016970 0.0139029 0.0020000
v 0.0009185 0.0133826 0.0020000
v 0.0016000 0.0124000 -0.0020000
v 0.0022409 0.0124000 -0.0020000
v 0.0022409 0.0124000 0.0020000
v 0.0016000 0.0124000 0.0020000
v 0.0010000 0.0126000 0.0020000
v 0.0010000 0.0126000 -0.0020000
v 0.0009184 0.0133826 0.0020000
v 0.0022410 0.0124000 0.0020000
v 0.0008000 0.0132000 0.0020000
v 0.0008000 0.0133592 0.0020000
v -0.0024000 0.0156000 0.0020000
v -0.0022174 0.0165184 0.0020000
v -0.0024000 0.0180000 0.0020000
v -0.0016970 0.0172970 0.0020000
v -0.0009185 0.0178173 0.0020000
v -0.0016000 0.0188000 -0.0020000
v -0.0022409 0.0188000 -0.0020000
v -0.0022409 0.0188000 0.0020000
v -0.0016000 0.0188000 0.0020000
v -0.0010000 0.0186000 0.0020000
v -0.0010000 0.0186000 -0.0020000
v -0.0022410 0.0188000 0.0020000
v -0.0008000 0.0180000 0.0020000
v -0.0008000 0.0178408 0.0020000
v -0.0024000 0.0132000 0.0020000
v -0.0022174 0.0146815 0.0020000
v -0.0016970 0.0139029 0.0020000
v -0.0009185 0.0133826 0.0020000
v -0.0022409 0.0124000 0.0020000
v -0.0022409 0.0124000 -0.0020000
v -0.0016000 0.0124000 -0.0020000
v -0.0016000 0.0124000 0.0020000
v -0.0010000 0.0126000 -0.0020000
v -0.0010000 0.0126000 0.0020000
v -0.0022410 0.0124000 0.0020000
v -0.0008000 0.0132000 0.0020000
v -0.0008000 0.0133592 0.0020000
v -0.0036000 0.0196000 -0.0020000
v -0.0022410 0.0188000 -0.0020000
v -0.0028000 0.0184000 -0.0020000
v -0.0028000 0.0156000 -0.0020000
v -0.0022410 0.0124000 -0.0020000
v -0.0028000 0.0128000 -0.0020000
v 0.0022410 0.0124000 -0.0020000
v 0.0028000 0.0128000 -0.0020000
v 0.0028000 0.0156000 -0.0020000
v 0.0036000 0.0196000 -0.0020000
v 0.0028000 0.0184000 -0.0020000
v 0.0022410 0.0188000 -0.0020000
v 0.0036000 0.0196000 0.0020000
v -0.0036000 0.0196000 0.0020000
v -0.0022173 0.0106815 0.0020000
v -0.0016971 0.0099029 0.0020000
v -0.0009184 0.0093827 0.0020000
v -0.0009184 0.0093827 -0.0020000
v -0.0016971 0.0099029 -0.0020000
v -0.0022173 0.0106815 -0.0020000
v -0.0008000 0.0100000 0.0020000
v -0.0008000 0.0100000 -0.0020000
v -0.0010000 0.0106000 -0.0020000
v -0.0010000 0.0106000 0.0020000
v -0.0008000 0.0093590 0.0020000
v -0.0008000 0.0093590 -0.0020000
v -0.0016000 0.0108000 0.0020000
v -0.0016000 0.0108000 -0.0020000
v -0.0022409 0.0108000 -0.0020000
v -0.0022409 0.0108000 0.0020000
v 0.0009184 0.0093827 0.0020000
v 0.0016971 0.0099029 0.0020000
v 0.0022173 0.0106815 0.0020000
v 0.0022173 0.0106815 -0.0020000
v 0.0016971 0.0099029 -0.0020000
v 0.0009184 0.0093827 -0.0020000
v 0.0016000 0.0108000 0.0020000
v 0.0016000 0.0108000 -0.0020000
v 0.0010000 0.0106000 -0.0020000
v 0.0010000 0.0106000 0.0020000
v 0.0022409 0.0108000 0.0020000
v 0.0022409 0.0108000 -0.0020000
v 0.0008000 0.0100000 0.0020000
v 0.0008000 0.0100000 -0.0020000
v 0.0008000 0.0093590 -0.0020000
v 0.0008000 0.0093590 0.0020000
v 0.0063450 0.0164352 0.0020000
v 0.0063450 0.0164352 -0.0020000
v 0.0061818 0.0172563 0.0020000
v 0.0061818 0.0172563 -0.0020000
v 0.0059130 0.0180492 0.0020000
v 0.0059130 0.0180492 -0.0020000
v 0.0055424 0.0188000 0.0020000
v 0.0055424 0.0188000 -0.0020000
v 0.0050778 0.0194963 0.0020000
v 0.0050778 0.0194963 -0.0020000
v 0.0045254 0.0201254 0.0020000
v 0.0045254 0.0201254 -0.0020000
v 0.0038963 0.0206777 0.0020000
v 0.0038963 0.0206777 -0.0020000
v 0.0032000 0.0211424 0.0020000
v 0.0032000 0.0211424 -0.0020000
v -0.0063450 0.0164352 0.0020000
v -0.0063450 0.0164352 -0.0020000
v -0.0061818 0.0172563 0.0020000
v -0.0061818 0.0172563 -0.0020000
v -0.0059130 0.0180492 0.0020000
v -0.0059130 0.0180492 -0.0020000
v -0.0055424 0.0188000 0.0020000
v -0.0055424 0.0188000 -0.0020000
v -0.0050778 0.0194963 0.0020000
v -0.0050778 0.0194963 -0.0020000
v -0.0045254 0.0201254 0.0020000
v -0.0045254 0.0201254 -0.0020000
v -0.0038963 0.0206777 0.0020000
v -0.0038963 0.0206777 -0.0020000
v -0.0032000 0.0211424 0.0020000
v -0.0032000 0.0211424 -0.0020000
v 0.0072000 0.0156000 0.0020000
v 0.0075346 0.0165918 0.0020000
v 0.0071381 0.0165396 0.0020000
v 0.0073408 0.0175668 0.0020000
v 0.0069545 0.0174633 0.0020000
v 0.0070216 0.0185085 0.0020000
v 0.0066521 0.0183554 0.0020000
v 0.0065816 0.0194000 0.0020000
v 0.0062352 0.0192000 0.0020000
v 0.0060298 0.0202268 0.0020000
v 0.0057125 0.0199833 0.0020000
v 0.0053740 0.0209739 0.0020000
v 0.0050911 0.0206911 0.0020000
v 0.0046269 0.0216298 0.0020000
v 0.0043834 0.0213124 0.0020000
v 0.0038000 0.0221816 0.0020000
v 0.0036000 0.0218352 0.0020000
v -0.0075346 0.0165918 0.0020000
v -0.0072000 0.0156000 0.0020000
v -0.0071381 0.0165396 0.0020000
v -0.0073408 0.0175668 0.0020000
v -0.0069545 0.0174633 0.0020000
v -0.0070216 0.0185085 0.0020000
v -0.0066521 0.0183554 0.0020000
v -0.0065816 0.0194000 0.0020000
v -0.0062352 0.0192000 0.0020000
v -0.0060298 0.0202268 0.0020000
v -0.0057125 0.0199833 0.0020000
v -0.0053740 0.0209739 0.0020000
v -0.0050911 0.0206911 0.0020000
v -0.0046269 0.0216298 0.0020000
v -0.0043834 0.0213124 0.0020000
v -0.0038000 0.0221816 0.0020000
v -0.0036000 0.0218352 0.0020000
v 0.0075346 0.0165918 -0.0020000
v 0.0072000 0.0156000 -0.0020000
v 0.0071381 0.0165396 -0.0020000
v 0.0073408 0.0175668 -0.0020000
v 0.0069545 0.0174633 -0.0020000
v 0.0070216 0.0185085 -0.0020000
v 0.0066521 0.0183554 -0.0020000
v 0.0065816 0.0194000 -0.0020000
v 0.0062352 0.0192000 -0.0020000
v 0.0060298 0.0202268 -0.0020000
v 0.0057125 0.0199833 -0.0020000
v 0.0053740 0.0209739 -0.0020000
v 0.0050911 0.0206911 -0.0020000
v 0.0046269 0.0216298 -0.0020000
v 0.0043834 0.0213124 -0.0020000
v 0.0038000 0.0221816 -0.0020000
v 0.0036000 0.0218352 -0.0020000
v -0.0072000 0.0156000 -0.0020000
v -0.0075346 0.0165918 -0.0020000
v -0.0071381 0.0165396 -0.0020000
v -0.0073408 0.0175668 -0.0020000
v -0.0069545 0.0174633 -0.0020000
v -0.0070216 0.0185085 -0.0020000
v -0.0066521 0.0183554 -0.0020000
v -0.0065816 0.0194000 -0.0020000
v -0.0062352 0.0192000 -0.0020000
v -0.0060298 0.0202268 -0.0020000
v -0.0057125 0.0199833 -0.0020000
v -0.0053740 0.0209739 -0.0020000
v -0.0050911 0.0206911 -0.0020000
v -0.0046269 0.0216298 -0.0020000
v -0.0043834 0.0213124 -0.0020000
v -0.0038000 0.0221816 -0.0020000
v -0.0036000 0.0218352 -0.0020000
v 0.0000000 0.0232000 0.0020000
v 0.0000000 0.0232000 -0.0020000
v 0.0029085 0.0226216 0.0020000
v 0.0029085 0.0226216 -0.0020000
v 0.0019669 0.0229408 0.0020000
v 0.0019669 0.0229408 -0.0020000
v 0.0009918 0.0231346 0.0020000
v 0.0009918 0.0231346 -0.0020000
v -0.0009918 0.0231346 0.0020000
v -0.0009918 0.0231346 -0.0020000
v -0.0019669 0.0229408 0.0020000
v -0.0019669 0.0229408 -0.0020000
v -0.0029085 0.0226216 0.0020000
v -0.0029085 0.0226216 -0.0020000
v -0.0025457 0.0061456 0.0020000
v 0.0025456 0.0061456 -0.0020000
v 0.0025456 0.0061456 0.0020000
v -0.0025457 0.0061456 -0.0020000
v 0.0000000 0.0091999 0.0020000
v 0.0000000 0.0091999 -0.0020000
v -0.0034200 0.0045040 -0.0004000
v -0.0036000 0.0116000 -0.0004000
v -0.0012000 0.0082400 -0.0004000
v -0.0012000 0.0069600 -0.0004000
v -0.0061200 0.0120320 -0.0004000
v -0.0048114 0.0065911 -0.0004000
v -0.0064000 0.0156000 -0.0004000
v -0.0036000 0.0196000 -0.0004000
v -0.0032000 0.0211424 -0.0004000
v -0.0061652 0.0191638 -0.0004000
v 0.0012000 0.0082400 -0.0004000
v 0.0036000 0.0116000 -0.0004000
v 0.0034200 0.0045040 -0.0004000
v 0.0012000 0.0069600 -0.0004000
v 0.0061200 0.0120320 -0.0004000
v 0.0048114 0.0065911 -0.0004000
v 0.0036000 0.0196000 -0.0004000
v 0.0064000 0.0156000 -0.0004000
v 0.0032000 0.0211424 -0.0004000
v 0.0061652 0.0191638 -0.0004000
v 0.0034200 0.0045040 0.0004000
v 0.0036000 0.0116000 0.0004000
v 0.0012000 0.0082400 0.0004000
v 0.0012000 0.0069600 0.0004000
v 0.0061200 0.0120320 0.0004000
v 0.0048114 0.0065911 0.0004000
v 0.0064000 0.0156000 0.0004000
v 0.0036000 0.0196000 0.0004000
v 0.0032000 0.0211424 0.0004000
v 0.0061652 0.0191638 0.0004000
v -0.0012000 0.0082400 0.0004000
v -0.0036000 0.0116000 0.0004000
v -0.0034200 0.0045040 0.0004000
v -0.0012000 0.0069600 0.0004000
v -0.0061200 0.0120320 0.0004000
v -0.0048114 0.0065911 0.0004000
v -0.0036000 0.0196000 0.0004000
v -0.0064000 0.0156000 0.0004000
v -0.0032000 0.0211424 0.0004000
v -0.0061652 0.0191638 0.0004000
v 0.0022173 0.0165184 0.0020000
v 0.0016971 0.0172971 0.0020000
v 0.0009184 0.0178173 0.0020000
v -0.0009184 0.0178173 0.0020000
v -0.0016971 0.0172971 0.0020000
v -0.0022173 0.0165184 0.0020000
v -0.0022173 0.0146815 0.0020000
v -0.0016971 0.0139029 0.0020000
v -0.0009184 0.0133827 0.0020000
v 0.0009184 0.0133827 0.0020000
v 0.0016971 0.0139029 0.0020000
v 0.0022173 0.0146815 0.0020000
v 0.0010000 0.0166000 0.0020000
v 0.0016000 0.0164000 0.0020000
v 0.0022409 0.0164000 0.0020000
v 0.0008000 0.0172000 0.0020000
v 0.0008000 0.0178409 0.0020000
v -0.0010000 0.0166000 0.0020000
v -0.0008000 0.0172000 0.0020000
v -0.0008000 0.0178409 0.0020000
v -0.0022409 0.0164000 0.0020000
v -0.0016000 0.0164000 0.0020000
v -0.0016000 0.0148000 0.0020000
v -0.0022409 0.0148000 0.0020000
v -0.0010000 0.0146000 0.0020000
v -0.0009184 0.0133826 0.0020000
v -0.0008000 0.0133590 0.0020000
v -0.0008000 0.0140000 0.0020000
v 0.0010000 0.0146000 0.0020000
v 0.0008000 0.0133590 0.0020000
v 0.0008000 0.0140000 0.0020000
v 0.0016000 0.0148000 0.0020000
v 0.0022409 0.0148000 0.0020000
v 0.0022173 0.0146815 -0.0016000
v 0.0016971 0.0139029 -0.0016000
v 0.0009184 0.0133827 -0.0016000
v -0.0009184 0.0133827 -0.0016000
v -0.0016971 0.0139029 -0.0016000
v -0.0022173 0.0146815 -0.0016000
v -0.0022173 0.0165184 -0.0016000
v -0.0016971 0.0172971 -0.0016000
v -0.0009184 0.0178173 -0.0016000
v 0.0009184 0.0178173 -0.0016000
v 0.0016971 0.0172971 -0.0016000
v 0.0022173 0.0165184 -0.0016000
v 0.0009184 0.0133826 -0.0016000
v 0.0010000 0.0146000 -0.0016000
v 0.0016000 0.0148000 -0.0016000
v 0.0022409 0.0148000 -0.0016000
v 0.0008000 0.0140000 -0.0016000
v 0.0008000 0.0133590 -0.0016000
v -0.0010000 0.0146000 -0.0016000
v -0.0009184 0.0133826 -0.0016000
v -0.0008000 0.0140000 -0.0016000
v -0.0008000 0.0133590 -0.0016000
v -0.0022409 0.0148000 -0.0016000
v -0.0016000 0.0148000 -0.0016000
v -0.0016000 0.0164000 -0.0016000
v -0.0022409 0.0164000 -0.0016000
v -0.0010000 0.0166000 -0.0016000
v -0.0008000 0.0178409 -0.0016000
v -0.0008000 0.0172000 -0.0016000
v 0.0010000 0.0166000 -0.0016000
v 0.0008000 0.0178409 -0.0016000
v 0.0008000 0.0172000 -0.0016000
v 0.0016000 0.0164000 -0.0016000
v 0.0022409 0.0164000 -0.0016000
v 0.0024000 0.0156000 -0.0016000
v -0.0024000 0.0156000 -0.0016000
v 0.0025869 0.0166715 -0.0020000
v 0.0019799 0.0175798 -0.0020000
v 0.0010716 0.0181869 -0.0020000
v 0.0008752 0.0182256 -0.0020000
v 0.0008752 0.0182256 -0.0016000
v 0.0008000 0.0180000 -0.0016000
v 0.0010715 0.0181868 -0.0020000
v 0.0010715 0.0181868 -0.0016000
v 0.0008000 0.0178408 -0.0016000
v 0.0025869 0.0145284 -0.0020000
v 0.0019799 0.0136201 -0.0020000
v 0.0010716 0.0130130 -0.0020000
v 0.0008752 0.0129744 -0.0016000
v 0.0008752 0.0129744 -0.0020000
v 0.0008000 0.0132000 -0.0016000
v 0.0010715 0.0130131 -0.0016000
v 0.0010715 0.0130131 -0.0020000
v 0.0008000 0.0133592 -0.0016000
v -0.0025869 0.0166715 -0.0020000
v -0.0019799 0.0175798 -0.0020000
v -0.0010716 0.0181869 -0.0020000
v -0.0008752 0.0182256 -0.0016000
v -0.0008752 0.0182256 -0.0020000
v -0.0008000 0.0180000 -0.0016000
v -0.0010715 0.0181868 -0.0016000
v -0.0008000 0.0178408 -0.0016000
v -0.0025869 0.0145284 -0.0020000
v -0.0019799 0.0136201 -0.0020000
v -0.0010716 0.0130130 -0.0020000
v -0.0008752 0.0129744 -0.0016000
v -0.0008752 0.0129744 -0.0020000
v -0.0008000 0.0132000 -0.0016000
v -0.0010715 0.0130131 -0.0016000
v -0.0008000 0.0133592 -0.0016000
v -0.0019800 0.0175799 -0.0016000
v -0.0019800 0.0175799 -0.0020000
v -0.0010715 0.0181868 -0.0020000
v -0.0025868 0.0166715 -0.0016000
v -0.0025868 0.0166715 -0.0020000
v -0.0028001 0.0156000 -0.0016000
v -0.0028001 0.0156000 -0.0020000
v -0.0025869 0.0145285 -0.0016000
v -0.0025869 0.0145285 -0.0020000
v -0.0019799 0.0136200 -0.0016000
v -0.0019799 0.0136200 -0.0020000
v -0.0010715 0.0130131 -0.0020000
v 0.0019800 0.0136200 -0.0016000
v 0.0019800 0.0136200 -0.0020000
v 0.0025868 0.0145285 -0.0016000
v 0.0025868 0.0145285 -0.0020000
v 0.0028001 0.0155999 -0.0016000
v 0.0028001 0.0155999 -0.0020000
v 0.0025869 0.0166715 -0.0016000
v 0.0019799 0.0175799 -0.0016000
v 0.0019799 0.0175799 -0.0020000
v 0.0024001 0.0155999 -0.0016000
v 0.0009184 0.0178172 -0.0016000
v -0.0024001 0.0156000 -0.0016000
v 0.0004000 0.0076000 -0.0020000
v 0.0002828 0.0078828 -0.0020000
v 0.0004000 0.0080000 -0.0020000
v -0.0002828 0.0078828 -0.0020000
v -0.0004000 0.0080000 -0.0020000
v -0.0004000 0.0076000 -0.0020000
v 0.0004000 0.0080000 0.0020000
v 0.0002828 0.0078828 0.0020000
v 0.0004000 0.0076000 0.0020000
v -0.0004000 0.0080000 0.0020000
v -0.0002828 0.0078828 0.0020000
v -0.0004000 0.0076000 0.0020000
v -0.0004000 0.0059200 0.0020000
v -0.0004000 0.0059200 -0.0020000
v 0.0004000 0.0059200 0.0020000
v 0.0004000 0.0059200 -0.0020000
v 0.0009184 0.0058172 -0.0020000
v 0.0009184 0.0058172 0.0020000
f 1 2 3
f 4 1 3
f 5 4 3
f 6 5 3
f 7 6 8
f 9 7 8
f 10 9 8
f 11 10 8
f 12 13 14
f 12 14 15
f 12 15 16
f 12 16 17
f 18 17 19
f 18 19 20
f 18 20 21
f 18 21 22
f 23 24 25
f 23 25 26
f 24 27 28
f 24 28 25
f 27 29 30
f 27 30 28
f 29 31 32
f 29 32 30
f 31 33 34
f 31 34 32
f 33 35 36
f 33 36 34
f 35 37 38
f 35 38 36
f 37 39 40
f 37 40 38
f 41 42 43
f 44 41 43
f 45 46 42
f 41 45 42
f 47 48 46
f 45 47 46
f 49 50 48
f 47 49 48
f 51 52 50
f 49 51 50
f 53 54 52
f 51 53 52
f 55 56 54
f 53 55 54
f 57 58 56
f 55 57 56
f 42 24 23
f 42 23 43
f 46 27 24
f 46 24 42
f 48 29 27
f 48 27 46
f 39 37 56
f 58 39 56
f 37 35 54
f 56 37 54
f 35 33 52
f 54 35 52
f 59 60 61
f 59 61 62
f 61 60 63
f 61 63 64
f 65 64 63
f 65 63 66
f 65 66 67
f 65 67 68
f 69 70 71
f 69 71 72
f 70 73 74
f 70 74 71
f 73 75 76
f 73 76 74
f 75 77 78
f 75 78 76
f 79 80 81
f 79 81 82
f 80 83 84
f 80 84 81
f 83 85 86
f 83 86 84
f 85 87 88
f 85 88 86
f 89 90 91
f 89 91 92
f 90 93 94
f 90 94 91
f 93 95 96
f 93 96 94
f 95 97 98
f 95 98 96
f 99 98 97
f 99 97 100
f 101 88 87
f 101 87 102
f 103 100 97
f 103 97 104
f 104 97 68
f 104 68 105
f 105 68 72
f 105 72 106
f 106 72 88
f 106 88 107
f 108 107 88
f 108 88 101
f 98 99 109
f 98 109 110
f 67 98 110
f 67 110 111
f 69 67 111
f 69 111 112
f 69 112 113
f 69 113 87
f 87 113 114
f 87 114 102
f 88 72 71
f 88 71 86
f 86 71 74
f 86 74 84
f 84 74 76
f 84 76 81
f 81 76 78
f 81 78 82
f 97 95 65
f 97 65 68
f 95 93 64
f 95 64 65
f 93 90 61
f 93 61 64
f 90 89 62
f 90 62 61
f 98 67 66
f 98 66 96
f 96 66 63
f 96 63 94
f 94 63 60
f 94 60 91
f 91 60 59
f 91 59 92
f 87 85 70
f 87 70 69
f 85 83 73
f 85 73 70
f 83 80 75
f 83 75 73
f 80 79 77
f 80 77 75
f 115 116 117
f 115 117 118
f 117 116 119
f 117 119 120
f 121 122 123
f 121 123 124
f 123 125 126
f 123 126 124
f 127 128 115
f 127 115 118
f 48 126 125
f 48 125 29
f 109 129 130
f 131 132 114
f 133 134 135
f 136 137 138
f 109 130 139
f 139 140 141
f 139 141 109
f 142 139 130
f 142 130 143
f 144 131 114
f 144 145 146
f 144 146 131
f 147 148 144
f 147 144 114
f 149 150 133
f 149 133 151
f 133 152 151
f 152 153 154
f 152 154 151
f 155 138 156
f 157 155 156
f 157 156 158
f 159 156 138
f 159 138 160
f 161 162 163
f 164 165 166
f 108 167 168
f 169 170 103
f 161 171 172
f 172 173 174
f 172 174 161
f 175 172 171
f 175 171 176
f 177 178 166
f 177 179 180
f 177 180 178
f 181 182 177
f 181 177 166
f 183 184 108
f 183 108 185
f 108 168 185
f 168 186 187
f 168 187 185
f 169 103 188
f 189 169 188
f 189 188 190
f 191 188 103
f 191 103 192
f 192 104 110
f 192 110 141
f 113 107 184
f 147 113 184
f 181 107 113
f 181 113 150
f 193 194 180
f 153 193 180
f 176 194 193
f 176 193 157
f 110 104 174
f 160 110 174
f 191 192 141
f 191 141 140
f 191 140 139
f 191 139 188
f 188 139 142
f 188 142 190
f 190 142 143
f 190 143 189
f 187 186 146
f 187 146 145
f 187 145 144
f 187 144 185
f 185 144 148
f 185 148 183
f 183 148 147
f 183 147 184
f 181 150 149
f 181 149 182
f 182 149 151
f 182 151 177
f 177 151 154
f 177 154 179
f 179 154 153
f 179 153 180
f 176 157 158
f 176 158 175
f 175 158 156
f 175 156 172
f 172 156 159
f 172 159 173
f 173 159 160
f 173 160 174
f 111 110 195
f 111 195 196
f 111 196 197
f 111 197 193
f 112 193 198
f 112 198 199
f 112 199 200
f 112 200 113
f 201 104 105
f 202 201 105
f 203 202 105
f 194 203 105
f 204 194 106
f 205 204 106
f 206 205 106
f 107 206 106
f 72 207 208
f 72 208 69
f 207 209 210
f 207 210 208
f 209 211 212
f 209 212 210
f 211 68 67
f 211 67 212
f 208 212 67
f 208 67 69
f 210 212 208
f 68 211 207
f 72 68 207
f 207 211 209
f 213 214 215
f 216 217 218
f 219 220 221
f 219 221 222
f 223 224 220
f 223 220 219
f 225 222 221
f 225 221 226
f 226 227 228
f 226 228 225
f 228 1 222
f 228 222 225
f 5 222 1
f 222 5 223
f 222 223 219
f 221 14 227
f 221 227 226
f 14 221 16
f 224 16 221
f 224 221 220
f 229 230 231
f 232 233 234
f 235 236 237
f 235 237 238
f 239 240 236
f 239 236 235
f 241 238 237
f 241 237 242
f 242 243 244
f 242 244 241
f 244 7 238
f 244 238 241
f 10 238 7
f 238 10 239
f 238 239 235
f 237 19 243
f 237 243 242
f 19 237 21
f 240 21 237
f 240 237 236
f 245 246 247
f 245 248 246
f 245 249 248
f 250 251 252
f 250 252 253
f 254 255 253
f 254 253 252
f 253 256 245
f 253 245 257
f 255 258 256
f 255 256 253
f 258 259 256
f 247 260 261
f 260 262 261
f 262 263 261
f 264 265 266
f 267 264 266
f 267 268 269
f 264 267 269
f 261 270 267
f 261 267 271
f 270 272 268
f 270 268 267
f 273 272 270
f 274 275 276
f 275 277 276
f 277 278 276
f 279 280 281
f 282 279 281
f 282 283 284
f 279 282 284
f 276 278 282
f 276 282 285
f 278 286 283
f 278 283 282
f 287 286 278
f 288 289 274
f 288 290 289
f 288 291 290
f 292 293 294
f 292 294 295
f 296 297 295
f 296 295 294
f 295 291 288
f 295 288 298
f 297 299 291
f 297 291 295
f 299 300 291
f 301 22 302
f 301 302 303
f 301 303 304
f 301 304 43
f 305 44 43
f 305 43 306
f 306 43 304
f 57 307 308
f 57 308 58
f 58 308 309
f 58 309 310
f 310 309 311
f 310 311 312
f 310 312 13
f 313 2 257
f 313 257 245
f 313 245 247
f 313 247 39
f 39 247 261
f 39 261 271
f 39 271 40
f 23 26 298
f 23 298 288
f 23 288 274
f 23 274 314
f 314 274 276
f 314 276 285
f 314 285 11
f 315 316 317
f 318 319 320
f 321 322 323
f 321 323 324
f 325 326 322
f 325 322 321
f 327 324 323
f 327 323 328
f 328 329 330
f 328 330 327
f 330 25 324
f 330 324 327
f 30 324 25
f 324 30 325
f 324 325 321
f 323 41 329
f 323 329 328
f 41 323 47
f 326 47 323
f 326 323 322
f 331 332 333
f 334 335 336
f 337 338 339
f 337 339 340
f 341 342 338
f 341 338 337
f 343 340 339
f 343 339 344
f 344 345 346
f 344 346 343
f 346 34 340
f 346 340 343
f 38 340 34
f 340 38 341
f 340 341 337
f 339 51 345
f 339 345 344
f 51 339 55
f 342 55 339
f 342 339 338
f 89 92 347
f 348 89 347
f 348 347 349
f 350 348 349
f 350 349 351
f 352 350 351
f 352 351 353
f 354 352 353
f 354 353 355
f 356 354 355
f 356 355 357
f 358 356 357
f 358 357 359
f 360 358 359
f 360 359 361
f 362 360 361
f 363 79 82
f 363 82 364
f 365 363 364
f 365 364 366
f 367 365 366
f 367 366 368
f 369 367 368
f 369 368 370
f 371 369 370
f 371 370 372
f 373 371 372
f 373 372 374
f 375 373 374
f 375 374 376
f 377 375 376
f 377 376 378
f 379 59 380
f 379 380 381
f 381 380 382
f 381 382 383
f 383 382 384
f 383 384 385
f 385 384 386
f 385 386 387
f 387 386 388
f 387 388 389
f 389 388 390
f 389 390 391
f 391 390 392
f 391 392 393
f 393 392 394
f 393 394 395
f 396 77 397
f 398 396 397
f 399 396 398
f 400 399 398
f 401 399 400
f 402 401 400
f 403 401 402
f 404 403 402
f 405 403 404
f 406 405 404
f 407 405 406
f 408 407 406
f 409 407 408
f 410 409 408
f 411 409 410
f 412 411 410
f 398 397 79
f 363 398 79
f 400 398 363
f 365 400 363
f 402 400 365
f 367 402 365
f 404 402 367
f 369 404 367
f 406 404 369
f 371 406 369
f 408 406 371
f 373 408 371
f 410 408 373
f 375 410 373
f 412 410 375
f 377 412 375
f 92 379 381
f 92 381 347
f 347 381 383
f 347 383 349
f 349 383 385
f 349 385 351
f 351 385 387
f 351 387 353
f 353 387 389
f 353 389 355
f 355 389 391
f 355 391 357
f 357 391 393
f 357 393 359
f 359 393 395
f 359 395 361
f 413 62 414
f 415 413 414
f 416 413 415
f 417 416 415
f 418 416 417
f 419 418 417
f 420 418 419
f 421 420 419
f 422 420 421
f 423 422 421
f 424 422 423
f 425 424 423
f 426 424 425
f 427 426 425
f 428 426 427
f 429 428 427
f 430 78 431
f 430 431 432
f 432 431 433
f 432 433 434
f 434 433 435
f 434 435 436
f 436 435 437
f 436 437 438
f 438 437 439
f 438 439 440
f 440 439 441
f 440 441 442
f 442 441 443
f 442 443 444
f 444 443 445
f 444 445 446
f 82 430 432
f 82 432 364
f 364 432 434
f 364 434 366
f 366 434 436
f 366 436 368
f 368 436 438
f 368 438 370
f 370 438 440
f 370 440 372
f 372 440 442
f 372 442 374
f 374 442 444
f 374 444 376
f 376 444 446
f 376 446 378
f 415 414 89
f 348 415 89
f 417 415 348
f 350 417 348
f 419 417 350
f 352 419 350
f 421 419 352
f 354 421 352
f 423 421 354
f 356 423 354
f 425 423 356
f 358 425 356
f 427 425 358
f 360 427 358
f 429 427 360
f 362 429 360
f 8 377 314
f 8 314 11
f 377 8 412
f 412 8 447
f 412 447 411
f 447 8 3
f 314 377 378
f 314 378 301
f 394 447 3
f 394 3 395
f 395 3 361
f 3 2 313
f 3 313 361
f 310 362 361
f 310 361 313
f 12 362 310
f 12 310 13
f 362 12 429
f 429 12 448
f 429 448 428
f 448 12 18
f 445 448 18
f 445 18 446
f 446 18 378
f 18 22 301
f 18 301 378
f 380 59 62
f 380 62 413
f 382 380 413
f 382 413 416
f 384 382 416
f 384 416 418
f 386 384 418
f 386 418 420
f 388 386 420
f 388 420 422
f 390 388 422
f 390 422 424
f 392 390 424
f 392 424 426
f 394 392 426
f 394 426 428
f 449 394 428
f 449 428 450
f 451 449 450
f 451 450 452
f 453 451 452
f 453 452 454
f 447 453 454
f 447 454 448
f 455 447 448
f 455 448 456
f 457 455 456
f 457 456 458
f 459 457 458
f 459 458 460
f 411 459 460
f 411 460 445
f 409 411 445
f 409 445 443
f 407 409 443
f 407 443 441
f 405 407 441
f 405 441 439
f 403 405 439
f 403 439 437
f 401 403 437
f 401 437 435
f 399 401 435
f 399 435 433
f 396 399 433
f 396 433 431
f 77 396 431
f 77 431 78
f 411 447 455
f 411 455 459
f 459 455 457
f 453 447 394
f 449 453 394
f 451 453 449
f 428 448 454
f 428 454 450
f 450 454 452
f 456 448 445
f 460 456 445
f 458 456 460
f 122 461 132
f 122 132 131
f 461 102 114
f 461 114 132
f 462 463 99
f 462 99 100
f 120 119 463
f 120 463 462
f 464 461 122
f 464 122 121
f 101 102 461
f 101 461 464
f 99 463 129
f 99 129 109
f 463 119 130
f 463 130 129
f 167 464 121
f 168 167 121
f 108 101 464
f 167 108 464
f 170 462 100
f 103 170 100
f 169 120 462
f 170 169 462
f 58 310 313
f 58 313 39
f 301 43 23
f 301 23 314
f 17 6 244
f 17 244 243
f 224 223 6
f 224 6 17
f 240 239 11
f 240 11 22
f 280 22 11
f 280 11 281
f 292 26 44
f 292 44 293
f 44 26 330
f 44 330 329
f 326 325 465
f 326 465 466
f 466 465 346
f 466 346 345
f 342 341 40
f 342 40 57
f 265 57 40
f 265 40 266
f 250 2 13
f 250 13 251
f 13 2 228
f 13 228 227
f 467 468 469
f 467 469 470
f 471 468 467
f 471 467 472
f 471 473 474
f 471 474 468
f 475 474 473
f 475 473 476
f 477 478 479
f 477 479 480
f 479 478 481
f 479 481 482
f 483 484 481
f 483 481 478
f 484 483 485
f 484 485 486
f 487 488 489
f 487 489 490
f 491 488 487
f 491 487 492
f 491 493 494
f 491 494 488
f 495 494 493
f 495 493 496
f 497 498 499
f 497 499 500
f 499 498 501
f 499 501 502
f 503 504 501
f 503 501 498
f 504 503 505
f 504 505 506
f 507 508 509
f 510 511 512
f 513 514 515
f 516 517 518
f 507 509 519
f 519 520 521
f 519 521 507
f 522 519 509
f 522 509 523
f 524 510 512
f 524 525 526
f 524 526 510
f 527 528 524
f 527 524 512
f 529 530 513
f 529 513 531
f 513 532 531
f 532 533 534
f 532 534 531
f 270 518 535
f 536 270 535
f 536 535 537
f 538 535 518
f 538 518 539
f 540 541 542
f 543 544 545
f 546 547 548
f 549 550 551
f 540 552 553
f 553 554 555
f 553 555 540
f 556 553 552
f 556 552 557
f 558 559 545
f 558 560 561
f 558 561 559
f 562 563 558
f 562 558 545
f 564 565 546
f 564 546 566
f 546 548 566
f 548 567 568
f 548 568 566
f 549 551 569
f 570 549 569
f 570 569 571
f 572 569 551
f 572 551 573
f 573 574 247
f 573 247 521
f 274 575 565
f 527 274 565
f 562 575 274
f 562 274 530
f 247 574 555
f 539 247 555
f 572 573 521
f 572 521 520
f 572 520 519
f 572 519 569
f 569 519 522
f 569 522 571
f 571 522 523
f 571 523 570
f 568 567 526
f 568 526 525
f 568 525 524
f 568 524 566
f 566 524 528
f 566 528 564
f 564 528 527
f 564 527 565
f 562 530 529
f 562 529 563
f 563 529 531
f 563 531 558
f 558 531 534
f 558 534 560
f 560 534 533
f 560 533 561
f 557 536 537
f 557 537 556
f 556 537 535
f 556 535 553
f 553 535 538
f 553 538 554
f 554 538 539
f 554 539 555
f 309 576 311
f 576 577 311
f 577 578 311
f 254 579 580
f 254 580 258
f 254 258 255
f 580 581 258
f 579 582 583
f 579 583 580
f 252 312 311
f 252 311 582
f 582 579 254
f 582 254 252
f 584 259 258
f 584 258 581
f 580 583 549
f 580 549 581
f 584 581 549
f 308 585 309
f 308 586 585
f 308 587 586
f 588 589 269
f 272 590 588
f 269 268 272
f 269 272 588
f 589 588 591
f 589 591 592
f 308 307 264
f 308 264 592
f 269 589 592
f 269 592 264
f 272 273 593
f 590 272 593
f 542 591 588
f 542 588 590
f 590 593 542
f 303 594 304
f 303 595 594
f 303 596 595
f 597 598 284
f 286 597 284
f 286 284 283
f 286 599 597
f 598 597 600
f 598 600 596
f 303 302 279
f 303 279 596
f 284 598 596
f 284 596 279
f 286 287 601
f 599 286 601
f 548 600 597
f 548 597 599
f 599 601 548
f 304 602 306
f 602 603 306
f 603 604 306
f 299 297 296
f 299 296 605
f 296 606 605
f 605 607 299
f 606 604 608
f 606 608 605
f 294 305 306
f 294 306 604
f 604 606 296
f 604 296 294
f 609 300 299
f 609 299 607
f 605 608 543
f 605 543 607
f 609 607 543
f 600 610 611
f 612 600 611
f 610 613 614
f 611 610 614
f 613 615 616
f 614 613 616
f 615 617 618
f 616 615 618
f 617 619 620
f 618 617 620
f 619 608 621
f 620 619 621
f 591 622 623
f 592 591 623
f 622 624 625
f 623 622 625
f 624 626 627
f 625 624 627
f 626 628 576
f 627 626 576
f 628 629 630
f 576 628 630
f 629 583 582
f 630 629 582
f 541 622 591
f 542 541 591
f 540 624 622
f 541 540 622
f 631 626 624
f 540 631 624
f 551 628 626
f 631 551 626
f 550 629 628
f 551 550 628
f 632 583 629
f 550 632 629
f 547 610 600
f 548 547 600
f 546 613 610
f 547 546 610
f 633 615 613
f 546 633 613
f 545 617 615
f 633 545 615
f 544 619 617
f 545 544 617
f 543 608 619
f 544 543 619
f 634 635 636
f 635 50 636
f 50 637 638
f 637 639 638
f 640 641 642
f 640 31 641
f 643 644 31
f 643 645 644
f 31 125 643
f 31 640 115
f 126 50 638
f 636 50 118
f 634 642 641
f 635 634 641
f 635 641 31
f 50 635 31
f 50 31 644
f 637 50 644
f 637 644 645
f 639 637 645
f 645 646 647
f 645 647 639
f 647 646 146
f 647 146 186
f 189 143 648
f 189 648 649
f 648 642 634
f 648 634 649
f 636 118 117
f 636 117 649
f 124 126 638
f 124 638 647
f 643 125 123
f 643 123 646
f 116 115 640
f 116 640 648
f 650 649 117
f 650 117 120
f 124 647 168
f 124 168 121
f 131 646 123
f 131 123 122
f 116 648 651
f 116 651 119
