# Botball Lab: metres, +Y up, centred XZ, base Y=0
s off
v 0.0040000 0.0138173 0.0009184
v 0.0040000 0.0132971 0.0016971
v 0.0040000 0.0125184 0.0022173
v 0.0040000 0.0106816 0.0022173
v 0.0040000 0.0099029 0.0016971
v 0.0040000 0.0093827 0.0009184
v 0.0040000 0.0093827 -0.0009184
v 0.0040000 0.0099029 -0.0016971
v 0.0040000 0.0106816 -0.0022173
v 0.0040000 0.0125184 -0.0022173
v 0.0040000 0.0132971 -0.0016971
v 0.0040000 0.0138173 -0.0009184
v 0.0040000 0.0126000 0.0010000
v 0.0040000 0.0132000 0.0008000
v 0.0040000 0.0138409 0.0008000
v 0.0040000 0.0124000 0.0016000
v 0.0040000 0.0124000 0.0022409
v 0.0040000 0.0106000 0.0010000
v 0.0040000 0.0108000 0.0016000
v 0.0040000 0.0108000 0.0022409
v 0.0040000 0.0093591 0.0008000
v 0.0040000 0.0100000 0.0008000
v 0.0040000 0.0100000 -0.0008000
v 0.0040000 0.0093591 -0.0008000
v 0.0040000 0.0106000 -0.0010000
v 0.0040000 0.0108000 -0.0022409
v 0.0040000 0.0108000 -0.0016000
v 0.0040000 0.0126000 -0.0010000
v 0.0040000 0.0124000 -0.0022409
v 0.0040000 0.0124000 -0.0016000
v 0.0040000 0.0132000 -0.0008000
v 0.0040000 0.0138409 -0.0008000
v -0.0040000 0.0138173 -0.0009184
v -0.0040000 0.0132971 -0.0016971
v -0.0040000 0.0125184 -0.0022173
v -0.0040000 0.0106816 -0.0022173
v -0.0040000 0.0099029 -0.0016971
v -0.0040000 0.0093827 -0.0009184
v -0.0040000 0.0093827 0.0009184
v -0.0040000 0.0099029 0.0016971
v -0.0040000 0.0106816 0.0022173
v -0.0040000 0.0125184 0.0022173
v -0.0040000 0.0132971 0.0016971
v -0.0040000 0.0138173 0.0009184
v -0.0040000 0.0126000 -0.0010000
v -0.0040000 0.0132000 -0.0008000
v -0.0040000 0.0138409 -0.0008000
v -0.0040000 0.0124000 -0.0016000
v -0.0040000 0.0124000 -0.0022409
v -0.0040000 0.0106000 -0.0010000
v -0.0040000 0.0108000 -0.0016000
v -0.0040000 0.0108000 -0.0022409
v -0.0040000 0.0093591 -0.0008000
v -0.0040000 0.0100000 -0.0008000
v -0.0040000 0.0100000 0.0008000
v -0.0040000 0.0093591 0.0008000
v -0.0040000 0.0106000 0.0010000
v -0.0040000 0.0108000 0.0022409
v -0.0040000 0.0108000 0.0016000
v -0.0040000 0.0126000 0.0010000
v -0.0040000 0.0124000 0.0022409
v -0.0040000 0.0124000 0.0016000
v -0.0040000 0.0132000 0.0008000
v -0.0040000 0.0138409 0.0008000
v -0.0040000 0.0140000 -0.0000000
v 0.0040000 0.0140000 -0.0000000
v 0.0040000 0.0092000 -0.0000000
v -0.0040000 0.0092000 -0.0000000
v 0.0018828 0.0118828 0.0023437
v 0.0020000 0.0116000 0.0024000
v 0.0020000 0.0116000 0.0028000
v 0.0018828 0.0118828 0.0027437
v 0.0016000 0.0120000 0.0023204
v 0.0016000 0.0120000 0.0027204
v 0.0018828 0.0113172 0.0023437
v 0.0018828 0.0113172 0.0027437
v 0.0016000 0.0112000 0.0023204
v 0.0016000 0.0112000 0.0027204
v -0.0018828 0.0113172 0.0023437
v -0.0020000 0.0116000 0.0024000
v -0.0020000 0.0116000 0.0028000
v -0.0018828 0.0113172 0.0027437
v -0.0016000 0.0112000 0.0023204
v -0.0016000 0.0112000 0.0027204
v -0.0018828 0.0118828 0.0023437
v -0.0018828 0.0118828 0.0027437
v -0.0016000 0.0120000 0.0023204
v -0.0016000 0.0120000 0.0027204
v 0.0018828 0.0113172 -0.0023437
v 0.0020000 0.0116000 -0.0024000
v 0.0020000 0.0116000 -0.0028000
v 0.0018828 0.0113172 -0.0027437
v 0.0016000 0.0112000 -0.0023204
v 0.0016000 0.0112000 -0.0027204
v 0.0018828 0.0118828 -0.0023437
v 0.0018828 0.0118828 -0.0027437
v 0.0016000 0.0120000 -0.0023204
v 0.0016000 0.0120000 -0.0027204
v -0.0018828 0.0118828 -0.0023437
v -0.0020000 0.0116000 -0.0024000
v -0.0020000 0.0116000 -0.0028000
v -0.0018828 0.0118828 -0.0027437
v -0.0016000 0.0120000 -0.0023204
v -0.0016000 0.0120000 -0.0027204
v -0.0018828 0.0113172 -0.0023437
v -0.0018828 0.0113172 -0.0027437
v -0.0016000 0.0112000 -0.0023204
v -0.0016000 0.0112000 -0.0027204
v 0.0020000 0.0120000 0.0023204
v 0.0020000 0.0112000 0.0023204
v -0.0020000 0.0112000 0.0023204
v -0.0020000 0.0120000 0.0023204
v 0.0020000 0.0112000 -0.0023204
v 0.0020000 0.0120000 -0.0023204
v -0.0020000 0.0120000 -0.0023204
v -0.0020000 0.0112000 -0.0023204
v 0.0040000 0.0124000 0.0022408
v 0.0040000 0.0116000 0.0024000
v -0.0040000 0.0116000 0.0024000
v -0.0040000 0.0124000 0.0022408
v 0.0040000 0.0108000 0.0022408
v -0.0040000 0.0108000 0.0022408
v 0.0040000 0.0116000 -0.0024000
v 0.0040000 0.0124000 -0.0022408
v -0.0040000 0.0124000 -0.0022408
v -0.0040000 0.0116000 -0.0024000
v 0.0040000 0.0108000 -0.0022408
v -0.0040000 0.0108000 -0.0022408
v 0.0020000 0.0120000 0.0027204
v 0.0020000 0.0112000 0.0027204
v -0.0020000 0.0112000 0.0027204
v -0.0020000 0.0120000 0.0027204
v 0.0020000 0.0112000 -0.0027204
v 0.0020000 0.0120000 -0.0027204
v -0.0020000 0.0120000 -0.0027204
v -0.0020000 0.0112000 -0.0027204
v -0.0024000 0.0105285 0.0025869
v -0.0024000 0.0096200 0.0019799
v 0.0024000 0.0096200 0.0019799
v 0.0024000 0.0105285 0.0025869
v -0.0024000 0.0090132 0.0010715
v 0.0024000 0.0090132 0.0010715
v -0.0024000 0.0087999 0.0000000
v 0.0024000 0.0087999 0.0000000
v -0.0024000 0.0090131 -0.0010715
v 0.0024000 0.0090131 -0.0010715
v -0.0024000 0.0096201 -0.0019800
v 0.0024000 0.0096201 -0.0019800
v -0.0024000 0.0105285 -0.0025868
v 0.0024000 0.0105285 -0.0025868
v 0.0024000 0.0135800 0.0019799
v -0.0024000 0.0135800 0.0019799
v -0.0024000 0.0126715 0.0025869
v 0.0024000 0.0126715 0.0025869
v 0.0024000 0.0141868 0.0010715
v -0.0024000 0.0141868 0.0010715
v 0.0024000 0.0144001 0.0000000
v -0.0024000 0.0144001 0.0000000
v 0.0024000 0.0141869 -0.0010715
v -0.0024000 0.0141869 -0.0010715
v 0.0024000 0.0135799 -0.0019800
v -0.0024000 0.0135799 -0.0019800
v 0.0024000 0.0126715 -0.0025868
v -0.0024000 0.0126715 -0.0025868
v -0.0024000 0.0126716 0.0025869
v 0.0024000 0.0126716 0.0025869
v 0.0024000 0.0105284 0.0025869
v -0.0024000 0.0105284 0.0025869
v 0.0024000 0.0116000 0.0028000
v -0.0024000 0.0116000 0.0028000
v 0.0024000 0.0126716 -0.0025869
v -0.0024000 0.0126716 -0.0025869
v -0.0024000 0.0105284 -0.0025869
v 0.0024000 0.0105284 -0.0025869
v 0.0024000 0.0116000 -0.0028000
v -0.0024000 0.0116000 -0.0028000
v -0.0026000 0.0103754 -0.0029565
v -0.0026000 0.0116000 -0.0032000
v -0.0024000 0.0096201 -0.0019799
v -0.0026000 0.0093373 -0.0022627
v -0.0024000 0.0090131 -0.0010716
v -0.0026000 0.0086435 -0.0012246
v -0.0024000 0.0088000 -0.0000000
v -0.0026000 0.0084000 -0.0000000
v -0.0024000 0.0090131 0.0010716
v -0.0026000 0.0086435 0.0012246
v -0.0024000 0.0096201 0.0019799
v -0.0026000 0.0093373 0.0022627
v -0.0026000 0.0103754 0.0029565
v -0.0026000 0.0116000 0.0032000
v -0.0026000 0.0128246 0.0029565
v -0.0024000 0.0135799 0.0019799
v -0.0026000 0.0138627 0.0022627
v -0.0024000 0.0141869 0.0010716
v -0.0026000 0.0145565 0.0012246
v -0.0024000 0.0144000 -0.0000000
v -0.0026000 0.0148000 -0.0000000
v -0.0024000 0.0141869 -0.0010716
v -0.0026000 0.0145565 -0.0012246
v -0.0024000 0.0135799 -0.0019799
v -0.0026000 0.0138627 -0.0022627
v -0.0026000 0.0128246 -0.0029565
v -0.0028000 0.0102223 -0.0033260
v -0.0028000 0.0116000 -0.0036000
v -0.0028000 0.0090544 -0.0025456
v -0.0028000 0.0082740 -0.0013777
v -0.0028000 0.0080000 -0.0000000
v -0.0028000 0.0082740 0.0013777
v -0.0028000 0.0090544 0.0025456
v -0.0028000 0.0102223 0.0033260
v -0.0028000 0.0116000 0.0036000
v -0.0028000 0.0129777 0.0033260
v -0.0028000 0.0141456 0.0025456
v -0.0028000 0.0149260 0.0013777
v -0.0028000 0.0152000 -0.0000000
v -0.0028000 0.0149260 -0.0013777
v -0.0028000 0.0141456 -0.0025456
v -0.0028000 0.0129777 -0.0033260
v 0.0026000 0.0103754 0.0029565
v 0.0026000 0.0116000 0.0032000
v 0.0024000 0.0096201 0.0019799
v 0.0026000 0.0093373 0.0022627
v 0.0024000 0.0090131 0.0010716
v 0.0026000 0.0086435 0.0012246
v 0.0024000 0.0088000 -0.0000000
v 0.0026000 0.0084000 -0.0000000
v 0.0024000 0.0090131 -0.0010716
v 0.0026000 0.0086435 -0.0012246
v 0.0024000 0.0096201 -0.0019799
v 0.0026000 0.0093373 -0.0022627
v 0.0026000 0.0103754 -0.0029565
v 0.0026000 0.0116000 -0.0032000
v 0.0026000 0.0128246 -0.0029565
v 0.0024000 0.0135799 -0.0019799
v 0.0026000 0.0138627 -0.0022627
v 0.0024000 0.0141869 -0.0010716
v 0.0026000 0.0145565 -0.0012246
v 0.0024000 0.0144000 -0.0000000
v 0.0026000 0.0148000 -0.0000000
v 0.0024000 0.0141869 0.0010716
v 0.0026000 0.0145565 0.0012246
v 0.0024000 0.0135799 0.0019799
v 0.0026000 0.0138627 0.0022627
v 0.0026000 0.0128246 0.0029565
v 0.0028000 0.0102223 0.0033260
v 0.0028000 0.0116000 0.0036000
v 0.0028000 0.0090544 0.0025456
v 0.0028000 0.0082740 0.0013777
v 0.0028000 0.0080000 -0.0000000
v 0.0028000 0.0082740 -0.0013777
v 0.0028000 0.0090544 -0.0025456
v 0.0028000 0.0102223 -0.0033260
v 0.0028000 0.0116000 -0.0036000
v 0.0028000 0.0129777 -0.0033260
v 0.0028000 0.0141456 -0.0025456
v 0.0028000 0.0149260 -0.0013777
v 0.0028000 0.0152000 -0.0000000
v 0.0028000 0.0149260 0.0013777
v 0.0028000 0.0141456 0.0025456
v 0.0028000 0.0129777 0.0033260
v 0.0040000 0.0129777 -0.0033260
v 0.0040000 0.0125185 -0.0022174
v 0.0040000 0.0116000 -0.0036000
v 0.0040000 0.0141456 -0.0025456
v 0.0040000 0.0132970 -0.0016970
v 0.0040000 0.0149260 -0.0013777
v 0.0040000 0.0138174 -0.0009185
v 0.0040000 0.0152000 -0.0000000
v 0.0040000 0.0149260 0.0013777
v 0.0040000 0.0138174 0.0009185
v 0.0040000 0.0141456 0.0025456
v 0.0040000 0.0132970 0.0016970
v 0.0040000 0.0129777 0.0033260
v 0.0040000 0.0125185 0.0022174
v 0.0040000 0.0116000 0.0036000
v 0.0040000 0.0102223 0.0033260
v 0.0040000 0.0106815 0.0022174
v 0.0040000 0.0090544 0.0025456
v 0.0040000 0.0099030 0.0016970
v 0.0040000 0.0082740 0.0013777
v 0.0040000 0.0093826 0.0009185
v 0.0040000 0.0080000 -0.0000000
v 0.0040000 0.0082740 -0.0013777
v 0.0040000 0.0093826 -0.0009185
v 0.0040000 0.0090544 -0.0025456
v 0.0040000 0.0099030 -0.0016970
v 0.0040000 0.0102223 -0.0033260
v 0.0040000 0.0106815 -0.0022174
v -0.0040000 0.0125185 -0.0022174
v -0.0040000 0.0129777 -0.0033260
v -0.0040000 0.0116000 -0.0036000
v -0.0040000 0.0132970 -0.0016970
v -0.0040000 0.0141456 -0.0025456
v -0.0040000 0.0138174 -0.0009185
v -0.0040000 0.0149260 -0.0013777
v -0.0040000 0.0152000 -0.0000000
v -0.0040000 0.0138174 0.0009185
v -0.0040000 0.0149260 0.0013777
v -0.0040000 0.0132970 0.0016970
v -0.0040000 0.0141456 0.0025456
v -0.0040000 0.0125185 0.0022174
v -0.0040000 0.0129777 0.0033260
v -0.0040000 0.0116000 0.0036000
v -0.0040000 0.0106815 0.0022174
v -0.0040000 0.0102223 0.0033260
v -0.0040000 0.0099030 0.0016970
v -0.0040000 0.0090544 0.0025456
v -0.0040000 0.0093826 0.0009185
v -0.0040000 0.0082740 0.0013777
v -0.0040000 0.0080000 -0.0000000
v -0.0040000 0.0093826 -0.0009185
v -0.0040000 0.0082740 -0.0013777
v -0.0040000 0.0099030 -0.0016970
v -0.0040000 0.0090544 -0.0025456
v -0.0040000 0.0106815 -0.0022174
v -0.0040000 0.0102223 -0.0033260
v 0.0036000 0.0080000 -0.0036000
v 0.0036000 0.0116000 -0.0036000
v 0.0036000 0.0102223 -0.0033260
v 0.0036000 0.0090544 -0.0025456
v 0.0036000 0.0082740 -0.0013777
v 0.0036000 0.0080000 -0.0000000
v 0.0036000 0.0080000 0.0036000
v 0.0036000 0.0082740 0.0013777
v 0.0036000 0.0090544 0.0025456
v 0.0036000 0.0102223 0.0033260
v 0.0036000 0.0116000 0.0036000
v 0.0028000 0.0080000 -0.0036000
v 0.0028000 0.0080000 0.0036000
v -0.0028000 0.0080000 -0.0036000
v -0.0028000 0.0080000 0.0036000
v -0.0036000 0.0102223 -0.0033260
v -0.0036000 0.0116000 -0.0036000
v -0.0036000 0.0080000 -0.0036000
v -0.0036000 0.0090544 -0.0025456
v -0.0036000 0.0082740 -0.0013777
v -0.0036000 0.0080000 -0.0000000
v -0.0036000 0.0082740 0.0013777
v -0.0036000 0.0080000 0.0036000
v -0.0036000 0.0090544 0.0025456
v -0.0036000 0.0102223 0.0033260
v -0.0036000 0.0116000 0.0036000
v -0.0028000 0.0069600 -0.0008000
v -0.0028000 0.0069600 -0.0036000
v -0.0028000 0.0080000 -0.0008000
v 0.0028000 0.0069600 -0.0036000
v 0.0028000 0.0069600 -0.0008000
v 0.0028000 0.0080000 -0.0008000
v -0.0028000 0.0069600 0.0036000
v -0.0028000 0.0069600 0.0008000
v -0.0028000 0.0080000 0.0008000
v 0.0028000 0.0069600 0.0008000
v 0.0028000 0.0069600 0.0036000
v 0.0028000 0.0080000 0.0008000
v 0.0062174 0.0026815 -0.0032000
v 0.0062174 0.0026815 0.0032000
v 0.0064000 0.0036000 0.0032000
v 0.0064000 0.0036000 -0.0032000
v 0.0056970 0.0019030 -0.0032000
v 0.0056970 0.0019030 0.0032000
v 0.0049185 0.0013826 -0.0032000
v 0.0049185 0.0013826 0.0032000
v 0.0040000 0.0012000 -0.0032000
v 0.0040000 0.0012000 0.0032000
v 0.0030815 0.0013826 -0.0032000
v 0.0030815 0.0013826 0.0032000
v 0.0023030 0.0019030 -0.0032000
v 0.0023030 0.0019030 0.0032000
v 0.0017826 0.0026815 -0.0032000
v 0.0017826 0.0026815 0.0032000
v 0.0016000 0.0036000 -0.0032000
v 0.0016000 0.0036000 0.0032000
v 0.0017826 0.0045185 -0.0032000
v 0.0017826 0.0045185 0.0032000
v 0.0023030 0.0052970 -0.0032000
v 0.0023030 0.0052970 0.0032000
v 0.0030815 0.0058174 -0.0032000
v 0.0030815 0.0058174 0.0032000
v 0.0040000 0.0060000 -0.0032000
v 0.0040000 0.0060000 0.0032000
v 0.0049185 0.0058174 -0.0032000
v 0.0049185 0.0058174 0.0032000
v 0.0056970 0.0052970 -0.0032000
v 0.0056970 0.0052970 0.0032000
v 0.0062174 0.0045185 -0.0032000
v 0.0062174 0.0045185 0.0032000
v -0.0017826 0.0026815 -0.0032000
v -0.0017826 0.0026815 0.0032000
v -0.0016000 0.0036000 0.0032000
v -0.0016000 0.0036000 -0.0032000
v -0.0023030 0.0019030 -0.0032000
v -0.0023030 0.0019030 0.0032000
v -0.0030815 0.0013826 -0.0032000
v -0.0030815 0.0013826 0.0032000
v -0.0040000 0.0012000 -0.0032000
v -0.0040000 0.0012000 0.0032000
v -0.0049185 0.0013826 -0.0032000
v -0.0049185 0.0013826 0.0032000
v -0.0056970 0.0019030 -0.0032000
v -0.0056970 0.0019030 0.0032000
v -0.0062174 0.0026815 -0.0032000
v -0.0062174 0.0026815 0.0032000
v -0.0064000 0.0036000 -0.0032000
v -0.0064000 0.0036000 0.0032000
v -0.0062174 0.0045185 -0.0032000
v -0.0062174 0.0045185 0.0032000
v -0.0056970 0.0052970 -0.0032000
v -0.0056970 0.0052970 0.0032000
v -0.0049185 0.0058174 -0.0032000
v -0.0049185 0.0058174 0.0032000
v -0.0040000 0.0060000 -0.0032000
v -0.0040000 0.0060000 0.0032000
v -0.0030815 0.0058174 -0.0032000
v -0.0030815 0.0058174 0.0032000
v -0.0023030 0.0052970 -0.0032000
v -0.0023030 0.0052970 0.0032000
v -0.0017826 0.0045185 -0.0032000
v -0.0017826 0.0045185 0.0032000
v 0.0027754 0.0006435 -0.0032000
v 0.0040000 0.0004000 -0.0032000
v 0.0017373 0.0013373 -0.0032000
v 0.0010435 0.0023754 -0.0032000
v 0.0008000 0.0036000 -0.0032000
v 0.0010435 0.0048246 -0.0032000
v 0.0017373 0.0058627 -0.0032000
v 0.0027754 0.0065565 -0.0032000
v 0.0040000 0.0068000 -0.0032000
v 0.0052246 0.0065565 -0.0032000
v 0.0062627 0.0058627 -0.0032000
v 0.0069565 0.0048246 -0.0032000
v 0.0072000 0.0036000 -0.0032000
v 0.0069565 0.0023754 -0.0032000
v 0.0062627 0.0013373 -0.0032000
v 0.0052246 0.0006435 -0.0032000
v 0.0069565 0.0023754 -0.0040000
v 0.0072000 0.0036000 -0.0040000
v 0.0062627 0.0013373 -0.0040000
v 0.0052246 0.0006435 -0.0040000
v 0.0040000 0.0004000 -0.0040000
v 0.0027754 0.0006435 -0.0040000
v 0.0017373 0.0013373 -0.0040000
v 0.0010435 0.0023754 -0.0040000
v 0.0008000 0.0036000 -0.0040000
v 0.0010435 0.0048246 -0.0040000
v 0.0017373 0.0058627 -0.0040000
v 0.0027754 0.0065565 -0.0040000
v 0.0040000 0.0068000 -0.0040000
v 0.0052246 0.0065565 -0.0040000
v 0.0062627 0.0058627 -0.0040000
v 0.0069565 0.0048246 -0.0040000
v 0.0027754 0.0006435 0.0032000
v 0.0040000 0.0004000 0.0032000
v 0.0017373 0.0013373 0.0032000
v 0.0010435 0.0023754 0.0032000
v 0.0008000 0.0036000 0.0032000
v 0.0010435 0.0048246 0.0032000
v 0.0017373 0.0058627 0.0032000
v 0.0027754 0.0065565 0.0032000
v 0.0040000 0.0068000 0.0032000
v 0.0052246 0.0065565 0.0032000
v 0.0062627 0.0058627 0.0032000
v 0.0069565 0.0048246 0.0032000
v 0.0072000 0.0036000 0.0032000
v 0.0069565 0.0023754 0.0032000
v 0.0062627 0.0013373 0.0032000
v 0.0052246 0.0006435 0.0032000
v 0.0069565 0.0023754 0.0040000
v 0.0072000 0.0036000 0.0040000
v 0.0062627 0.0013373 0.0040000
v 0.0052246 0.0006435 0.0040000
v 0.0040000 0.0004000 0.0040000
v 0.0027754 0.0006435 0.0040000
v 0.0017373 0.0013373 0.0040000
v 0.0010435 0.0023754 0.0040000
v 0.0008000 0.0036000 0.0040000
v 0.0010435 0.0048246 0.0040000
v 0.0017373 0.0058627 0.0040000
v 0.0027754 0.0065565 0.0040000
v 0.0040000 0.0068000 0.0040000
v 0.0052246 0.0065565 0.0040000
v 0.0062627 0.0058627 0.0040000
v 0.0069565 0.0048246 0.0040000
v -0.0052246 0.0006435 -0.0032000
v -0.0040000 0.0004000 -0.0032000
v -0.0062627 0.0013373 -0.0032000
v -0.0069565 0.0023754 -0.0032000
v -0.0072000 0.0036000 -0.0032000
v -0.0069565 0.0048246 -0.0032000
v -0.0062627 0.0058627 -0.0032000
v -0.0052246 0.0065565 -0.0032000
v -0.0040000 0.0068000 -0.0032000
v -0.0027754 0.0065565 -0.0032000
v -0.0017373 0.0058627 -0.0032000
v -0.0010435 0.0048246 -0.0032000
v -0.0008000 0.0036000 -0.0032000
v -0.0010435 0.0023754 -0.0032000
v -0.0017373 0.0013373 -0.0032000
v -0.0027754 0.0006435 -0.0032000
v -0.0010435 0.0023754 -0.0040000
v -0.0008000 0.0036000 -0.0040000
v -0.0017373 0.0013373 -0.0040000
v -0.0027754 0.0006435 -0.0040000
v -0.0040000 0.0004000 -0.0040000
v -0.0052246 0.0006435 -0.0040000
v -0.0062627 0.0013373 -0.0040000
v -0.0069565 0.0023754 -0.0040000
v -0.0072000 0.0036000 -0.0040000
v -0.0069565 0.0048246 -0.0040000
v -0.0062627 0.0058627 -0.0040000
v -0.0052246 0.0065565 -0.0040000
v -0.0040000 0.0068000 -0.0040000
v -0.0027754 0.0065565 -0.0040000
v -0.0017373 0.0058627 -0.0040000
v -0.0010435 0.0048246 -0.0040000
v -0.0052246 0.0006435 0.0032000
v -0.0040000 0.0004000 0.0032000
v -0.0062627 0.0013373 0.0032000
v -0.0069565 0.0023754 0.0032000
v -0.0072000 0.0036000 0.0032000
v -0.0069565 0.0048246 0.0032000
v -0.0062627 0.0058627 0.0032000
v -0.0052246 0.0065565 0.0032000
v -0.0040000 0.0068000 0.0032000
v -0.0027754 0.0065565 0.0032000
v -0.0017373 0.0058627 0.0032000
v -0.0010435 0.0048246 0.0032000
v -0.0008000 0.0036000 0.0032000
v -0.0010435 0.0023754 0.0032000
v -0.0017373 0.0013373 0.0032000
v -0.0027754 0.0006435 0.0032000
v -0.0010435 0.0023754 0.0040000
v -0.0008000 0.0036000 0.0040000
v -0.0017373 0.0013373 0.0040000
v -0.0027754 0.0006435 0.0040000
v -0.0040000 0.0004000 0.0040000
v -0.0052246 0.0006435 0.0040000
v -0.0062627 0.0013373 0.0040000
v -0.0069565 0.0023754 0.0040000
v -0.0072000 0.0036000 0.0040000
v -0.0069565 0.0048246 0.0040000
v -0.0062627 0.0058627 0.0040000
v -0.0052246 0.0065565 0.0040000
v -0.0040000 0.0068000 0.0040000
v -0.0027754 0.0065565 0.0040000
v -0.0017373 0.0058627 0.0040000
v -0.0010435 0.0048246 0.0040000
v -0.0006740 0.0022223 0.0040000
v -0.0004000 0.0036000 0.0040000
v -0.0014544 0.0010544 0.0040000
v -0.0026223 0.0002740 0.0040000
v -0.0040000 0.0000000 0.0040000
v -0.0053777 0.0002740 0.0040000
v -0.0065456 0.0010544 0.0040000
v -0.0073260 0.0022223 0.0040000
v -0.0076000 0.0036000 0.0040000
v -0.0073260 0.0049777 0.0040000
v -0.0065456 0.0061456 0.0040000
v -0.0053777 0.0069260 0.0040000
v -0.0040000 0.0072000 0.0040000
v -0.0026223 0.0069260 0.0040000
v -0.0014544 0.0061456 0.0040000
v -0.0006740 0.0049777 0.0040000
v 0.0073260 0.0022223 0.0040000
v 0.0076000 0.0036000 0.0040000
v 0.0065456 0.0010544 0.0040000
v 0.0053777 0.0002740 0.0040000
v 0.0040000 0.0000000 0.0040000
v 0.0026223 0.0002740 0.0040000
v 0.0014544 0.0010544 0.0040000
v 0.0006740 0.0022223 0.0040000
v 0.0004000 0.0036000 0.0040000
v 0.0006740 0.0049777 0.0040000
v 0.0014544 0.0061456 0.0040000
v 0.0026223 0.0069260 0.0040000
v 0.0040000 0.0072000 0.0040000
v 0.0053777 0.0069260 0.0040000
v 0.0065456 0.0061456 0.0040000
v 0.0073260 0.0049777 0.0040000
v 0.0076000 0.0036000 -0.0040000
v 0.0073260 0.0022223 -0.0040000
v 0.0065456 0.0010544 -0.0040000
v 0.0053777 0.0002740 -0.0040000
v 0.0040000 0.0000000 -0.0040000
v 0.0026223 0.0002740 -0.0040000
v 0.0014544 0.0010544 -0.0040000
v 0.0006740 0.0022223 -0.0040000
v 0.0004000 0.0036000 -0.0040000
v 0.0006740 0.0049777 -0.0040000
v 0.0014544 0.0061456 -0.0040000
v 0.0026223 0.0069260 -0.0040000
v 0.0040000 0.0072000 -0.0040000
v 0.0053777 0.0069260 -0.0040000
v 0.0065456 0.0061456 -0.0040000
v 0.0073260 0.0049777 -0.0040000
v -0.0004000 0.0036000 -0.0040000
v -0.0006740 0.0022223 -0.0040000
v -0.0014544 0.0010544 -0.0040000
v -0.0026223 0.0002740 -0.0040000
v -0.0040000 0.0000000 -0.0040000
v -0.0053777 0.0002740 -0.0040000
v -0.0065456 0.0010544 -0.0040000
v -0.0073260 0.0022223 -0.0040000
v -0.0076000 0.0036000 -0.0040000
v -0.0073260 0.0049777 -0.0040000
v -0.0065456 0.0061456 -0.0040000
v -0.0053777 0.0069260 -0.0040000
v -0.0040000 0.0072000 -0.0040000
v -0.0026223 0.0069260 -0.0040000
v -0.0014544 0.0061456 -0.0040000
v -0.0006740 0.0049777 -0.0040000
v 0.0036000 0.0071200 0.0036000
v 0.0036000 0.0071200 -0.0036000
v -0.0036000 0.0071200 -0.0036000
v -0.0036000 0.0071200 0.0036000
v -0.0028000 0.0089680 -0.0008000
v 0.0028000 0.0089680 -0.0008000
v 0.0028000 0.0089680 0.0008000
v -0.0028000 0.0089680 0.0008000
v 0.0026200 0.0069280 -0.0008000
v -0.0026200 0.0069280 -0.0008000
v -0.0026200 0.0069280 0.0008000
v 0.0026200 0.0069280 0.0008000
v 0.0014520 0.0061440 -0.0008000
v -0.0014520 0.0061440 -0.0008000
v -0.0014560 0.0061440 0.0008000
v 0.0014560 0.0061440 0.0008000
v 0.0014560 0.0061440 -0.0008000
v 0.0006720 0.0049760 -0.0008000
v -0.0006720 0.0049760 -0.0008000
v -0.0014560 0.0061440 -0.0008000
v -0.0006720 0.0049800 0.0008000
v 0.0006720 0.0049800 0.0008000
v 0.0006720 0.0049800 -0.0008000
v 0.0004800 0.0040000 -0.0008000
v -0.0004800 0.0040000 -0.0008000
v -0.0006720 0.0049800 -0.0008000
v -0.0004800 0.0040000 0.0008000
v 0.0004800 0.0040000 0.0008000
v 0.0004800 0.0040000 -0.0040000
v -0.0004800 0.0040000 -0.0040000
v -0.0004800 0.0032000 -0.0040000
v 0.0004800 0.0032000 -0.0040000
v -0.0004800 0.0040000 0.0040000
v 0.0004800 0.0040000 0.0040000
v 0.0004800 0.0032000 0.0040000
v -0.0004800 0.0032000 0.0040000
v -0.0004796 0.0040000 -0.0040000
v -0.0004796 0.0040000 -0.0008000
v 0.0004796 0.0040000 -0.0008000
v 0.0004796 0.0040000 -0.0040000
v -0.0004796 0.0040000 0.0008000
v -0.0004796 0.0040000 0.0040000
v 0.0004796 0.0040000 0.0040000
v 0.0004796 0.0040000 0.0008000
v 0.0004796 0.0032000 0.0040000
v -0.0004796 0.0032000 0.0040000
v -0.0004796 0.0032000 -0.0040000
v 0.0004796 0.0032000 -0.0040000
f 1 2 3
f 4 5 6
f 7 8 9
f 10 11 12
f 1 3 13
f 13 14 15
f 13 15 1
f 16 13 3
f 16 3 17
f 18 4 6
f 18 19 20
f 18 20 4
f 21 22 18
f 21 18 6
f 23 24 7
f 23 7 25
f 7 9 25
f 9 26 27
f 9 27 25
f 10 12 28
f 29 10 28
f 29 28 30
f 31 28 12
f 31 12 32
f 33 34 35
f 36 37 38
f 39 40 41
f 42 43 44
f 33 35 45
f 45 46 47
f 45 47 33
f 48 45 35
f 48 35 49
f 50 36 38
f 50 51 52
f 50 52 36
f 53 54 50
f 53 50 38
f 55 56 39
f 55 39 57
f 39 41 57
f 41 58 59
f 41 59 57
f 42 44 60
f 61 42 60
f 61 60 62
f 63 60 44
f 63 44 64
f 64 65 66
f 64 66 15
f 67 68 56
f 21 67 56
f 53 68 67
f 53 67 24
f 66 65 47
f 32 66 47
f 63 64 15
f 63 15 14
f 63 14 13
f 63 13 60
f 60 13 16
f 60 16 62
f 62 16 17
f 62 17 61
f 59 58 20
f 59 20 19
f 59 19 18
f 59 18 57
f 57 18 22
f 57 22 55
f 55 22 21
f 55 21 56
f 53 24 23
f 53 23 54
f 54 23 25
f 54 25 50
f 50 25 27
f 50 27 51
f 51 27 26
f 51 26 52
f 49 29 30
f 49 30 48
f 48 30 28
f 48 28 45
f 45 28 31
f 45 31 46
f 46 31 32
f 46 32 47
f 69 70 71
f 69 71 72
f 73 69 72
f 73 72 74
f 71 70 75
f 76 71 75
f 76 75 77
f 78 76 77
f 79 80 81
f 79 81 82
f 83 79 82
f 83 82 84
f 81 80 85
f 86 81 85
f 86 85 87
f 88 86 87
f 89 90 91
f 89 91 92
f 93 89 92
f 93 92 94
f 91 90 95
f 96 91 95
f 96 95 97
f 98 96 97
f 99 100 101
f 99 101 102
f 103 99 102
f 103 102 104
f 101 100 105
f 106 101 105
f 106 105 107
f 108 106 107
f 83 84 78
f 83 78 77
f 73 74 88
f 73 88 87
f 103 104 98
f 103 98 97
f 93 94 108
f 93 108 107
f 70 69 109
f 69 73 109
f 110 75 70
f 110 77 75
f 80 79 111
f 79 83 111
f 112 85 80
f 112 87 85
f 90 89 113
f 89 93 113
f 114 95 90
f 114 97 95
f 100 99 115
f 99 103 115
f 116 105 100
f 116 107 105
f 117 118 70
f 117 70 109
f 119 120 112
f 119 112 80
f 118 121 110
f 118 110 70
f 122 119 80
f 122 80 111
f 117 109 112
f 117 112 120
f 122 111 110
f 122 110 121
f 123 124 114
f 123 114 90
f 125 126 100
f 125 100 115
f 127 123 90
f 127 90 113
f 126 128 116
f 126 116 100
f 125 115 114
f 125 114 124
f 127 113 116
f 127 116 128
f 129 72 71
f 129 74 72
f 71 76 130
f 76 78 130
f 131 82 81
f 131 84 82
f 81 86 132
f 86 88 132
f 133 92 91
f 133 94 92
f 91 96 134
f 96 98 134
f 135 102 101
f 135 104 102
f 101 106 136
f 106 108 136
f 137 138 139
f 140 137 139
f 138 141 142
f 139 138 142
f 141 143 144
f 142 141 144
f 143 145 146
f 144 143 146
f 145 147 148
f 146 145 148
f 147 149 150
f 148 147 150
f 151 152 153
f 151 153 154
f 155 156 152
f 155 152 151
f 157 158 156
f 157 156 155
f 159 160 158
f 159 158 157
f 161 162 160
f 161 160 159
f 163 164 162
f 163 162 161
f 165 132 129
f 165 129 166
f 167 130 131
f 167 131 168
f 169 71 130
f 169 130 167
f 166 129 71
f 166 71 169
f 168 131 81
f 168 81 170
f 170 81 132
f 170 132 165
f 171 134 135
f 171 135 172
f 173 136 133
f 173 133 174
f 174 133 91
f 174 91 175
f 175 91 134
f 175 134 171
f 176 101 136
f 176 136 173
f 172 135 101
f 172 101 176
f 176 173 177
f 176 177 178
f 173 179 180
f 173 180 177
f 179 181 182
f 179 182 180
f 181 183 184
f 181 184 182
f 183 185 186
f 183 186 184
f 185 187 188
f 185 188 186
f 187 168 189
f 187 189 188
f 168 170 190
f 168 190 189
f 170 165 191
f 170 191 190
f 165 192 193
f 165 193 191
f 192 194 195
f 192 195 193
f 194 196 197
f 194 197 195
f 196 198 199
f 196 199 197
f 198 200 201
f 198 201 199
f 200 172 202
f 200 202 201
f 172 176 178
f 172 178 202
f 177 203 204
f 177 204 178
f 180 205 203
f 180 203 177
f 182 206 205
f 182 205 180
f 184 207 206
f 184 206 182
f 186 208 207
f 186 207 184
f 188 209 208
f 188 208 186
f 189 210 209
f 189 209 188
f 190 211 210
f 190 210 189
f 191 212 211
f 191 211 190
f 193 213 212
f 193 212 191
f 195 214 213
f 195 213 193
f 197 215 214
f 197 214 195
f 199 216 215
f 199 215 197
f 201 217 216
f 201 216 199
f 202 218 217
f 202 217 201
f 178 204 218
f 178 218 202
f 169 167 219
f 169 219 220
f 167 221 222
f 167 222 219
f 221 223 224
f 221 224 222
f 223 225 226
f 223 226 224
f 225 227 228
f 225 228 226
f 227 229 230
f 227 230 228
f 229 174 231
f 229 231 230
f 174 175 232
f 174 232 231
f 175 171 233
f 175 233 232
f 171 234 235
f 171 235 233
f 234 236 237
f 234 237 235
f 236 238 239
f 236 239 237
f 238 240 241
f 238 241 239
f 240 242 243
f 240 243 241
f 242 166 244
f 242 244 243
f 166 169 220
f 166 220 244
f 219 245 246
f 219 246 220
f 222 247 245
f 222 245 219
f 224 248 247
f 224 247 222
f 226 249 248
f 226 248 224
f 228 250 249
f 228 249 226
f 230 251 250
f 230 250 228
f 231 252 251
f 231 251 230
f 232 253 252
f 232 252 231
f 233 254 253
f 233 253 232
f 235 255 254
f 235 254 233
f 237 256 255
f 237 255 235
f 239 257 256
f 239 256 237
f 241 258 257
f 241 257 239
f 243 259 258
f 243 258 241
f 244 260 259
f 244 259 243
f 220 246 260
f 220 260 244
f 261 262 123
f 261 123 263
f 264 265 262
f 264 262 261
f 266 267 265
f 266 265 264
f 268 66 267
f 268 267 266
f 269 270 66
f 269 66 268
f 271 272 270
f 271 270 269
f 273 274 272
f 273 272 271
f 275 118 274
f 275 274 273
f 276 277 118
f 276 118 275
f 278 279 277
f 278 277 276
f 280 281 279
f 280 279 278
f 282 67 281
f 282 281 280
f 283 284 67
f 283 67 282
f 285 286 284
f 285 284 283
f 287 288 286
f 287 286 285
f 263 123 288
f 263 288 287
f 126 289 290
f 291 126 290
f 289 292 293
f 290 289 293
f 292 294 295
f 293 292 295
f 294 65 296
f 295 294 296
f 65 297 298
f 296 65 298
f 297 299 300
f 298 297 300
f 299 301 302
f 300 299 302
f 301 119 303
f 302 301 303
f 119 304 305
f 303 119 305
f 304 306 307
f 305 304 307
f 306 308 309
f 307 306 309
f 308 68 310
f 309 308 310
f 68 311 312
f 310 68 312
f 311 313 314
f 312 311 314
f 313 315 316
f 314 313 316
f 315 126 291
f 316 315 291
f 249 250 283
f 249 283 282
f 250 251 285
f 250 285 283
f 251 252 287
f 251 287 285
f 252 253 263
f 252 263 287
f 253 254 261
f 253 261 263
f 254 255 264
f 254 264 261
f 255 256 266
f 255 266 264
f 256 257 268
f 256 268 266
f 257 258 269
f 257 269 268
f 258 259 271
f 258 271 269
f 259 260 273
f 259 273 271
f 260 246 275
f 260 275 273
f 246 245 276
f 246 276 275
f 245 247 278
f 245 278 276
f 247 248 280
f 247 280 278
f 248 249 282
f 248 282 280
f 312 206 207
f 310 312 207
f 314 205 206
f 312 314 206
f 316 203 205
f 314 316 205
f 291 204 203
f 316 291 203
f 290 218 204
f 291 290 204
f 293 217 218
f 290 293 218
f 295 216 217
f 293 295 217
f 296 215 216
f 295 296 216
f 298 214 215
f 296 298 215
f 300 213 214
f 298 300 214
f 302 212 213
f 300 302 213
f 303 211 212
f 302 303 212
f 305 210 211
f 303 305 211
f 307 209 210
f 305 307 210
f 309 208 209
f 307 309 209
f 310 207 208
f 309 310 208
f 317 318 319
f 317 319 320
f 317 320 321
f 317 321 322
f 323 322 324
f 323 324 325
f 323 325 326
f 323 326 327
f 252 253 328
f 251 252 328
f 250 251 328
f 249 250 328
f 248 249 329
f 247 248 329
f 245 247 329
f 246 245 329
f 330 204 203
f 330 203 205
f 330 205 206
f 330 206 207
f 331 207 208
f 331 208 209
f 331 209 210
f 331 210 211
f 332 333 334
f 335 332 334
f 336 335 334
f 337 336 334
f 338 337 339
f 340 338 339
f 341 340 339
f 342 341 339
f 343 344 330
f 343 330 345
f 346 347 348
f 346 348 328
f 349 350 351
f 349 351 331
f 352 353 329
f 352 329 354
f 355 356 357
f 358 355 357
f 359 360 356
f 355 359 356
f 361 362 360
f 359 361 360
f 363 364 362
f 361 363 362
f 365 366 364
f 363 365 364
f 367 368 366
f 365 367 366
f 369 370 368
f 367 369 368
f 371 372 370
f 369 371 370
f 373 374 372
f 371 373 372
f 375 376 374
f 373 375 374
f 377 378 376
f 375 377 376
f 379 380 378
f 377 379 378
f 381 382 380
f 379 381 380
f 383 384 382
f 381 383 382
f 385 386 384
f 383 385 384
f 358 357 386
f 385 358 386
f 387 388 389
f 390 387 389
f 391 392 388
f 387 391 388
f 393 394 392
f 391 393 392
f 395 396 394
f 393 395 394
f 397 398 396
f 395 397 396
f 399 400 398
f 397 399 398
f 401 402 400
f 399 401 400
f 403 404 402
f 401 403 402
f 405 406 404
f 403 405 404
f 407 408 406
f 405 407 406
f 409 410 408
f 407 409 408
f 411 412 410
f 409 411 410
f 413 414 412
f 411 413 412
f 415 416 414
f 413 415 414
f 417 418 416
f 415 417 416
f 390 389 418
f 417 390 418
f 419 365 363
f 419 363 420
f 421 367 365
f 421 365 419
f 422 369 367
f 422 367 421
f 423 371 369
f 423 369 422
f 424 373 371
f 424 371 423
f 425 375 373
f 425 373 424
f 426 377 375
f 426 375 425
f 427 379 377
f 427 377 426
f 428 381 379
f 428 379 427
f 429 383 381
f 429 381 428
f 430 385 383
f 430 383 429
f 431 358 385
f 431 385 430
f 432 355 358
f 432 358 431
f 433 359 355
f 433 355 432
f 434 361 359
f 434 359 433
f 420 363 361
f 420 361 434
f 435 432 431
f 436 435 431
f 437 433 432
f 435 437 432
f 438 434 433
f 437 438 433
f 439 420 434
f 438 439 434
f 440 419 420
f 439 440 420
f 441 421 419
f 440 441 419
f 442 422 421
f 441 442 421
f 443 423 422
f 442 443 422
f 444 424 423
f 443 444 423
f 445 425 424
f 444 445 424
f 446 426 425
f 445 446 425
f 447 427 426
f 446 447 426
f 448 428 427
f 447 448 427
f 449 429 428
f 448 449 428
f 450 430 429
f 449 450 429
f 436 431 430
f 450 436 430
f 364 366 451
f 452 364 451
f 366 368 453
f 451 366 453
f 368 370 454
f 453 368 454
f 370 372 455
f 454 370 455
f 372 374 456
f 455 372 456
f 374 376 457
f 456 374 457
f 376 378 458
f 457 376 458
f 378 380 459
f 458 378 459
f 380 382 460
f 459 380 460
f 382 384 461
f 460 382 461
f 384 386 462
f 461 384 462
f 386 357 463
f 462 386 463
f 357 356 464
f 463 357 464
f 356 360 465
f 464 356 465
f 360 362 466
f 465 360 466
f 362 364 452
f 466 362 452
f 463 464 467
f 463 467 468
f 464 465 469
f 464 469 467
f 465 466 470
f 465 470 469
f 466 452 471
f 466 471 470
f 452 451 472
f 452 472 471
f 451 453 473
f 451 473 472
f 453 454 474
f 453 474 473
f 454 455 475
f 454 475 474
f 455 456 476
f 455 476 475
f 456 457 477
f 456 477 476
f 457 458 478
f 457 478 477
f 458 459 479
f 458 479 478
f 459 460 480
f 459 480 479
f 460 461 481
f 460 481 480
f 461 462 482
f 461 482 481
f 462 463 468
f 462 468 482
f 483 397 395
f 483 395 484
f 485 399 397
f 485 397 483
f 486 401 399
f 486 399 485
f 487 403 401
f 487 401 486
f 488 405 403
f 488 403 487
f 489 407 405
f 489 405 488
f 490 409 407
f 490 407 489
f 491 411 409
f 491 409 490
f 492 413 411
f 492 411 491
f 493 415 413
f 493 413 492
f 494 417 415
f 494 415 493
f 495 390 417
f 495 417 494
f 496 387 390
f 496 390 495
f 497 391 387
f 497 387 496
f 498 393 391
f 498 391 497
f 484 395 393
f 484 393 498
f 499 496 495
f 500 499 495
f 501 497 496
f 499 501 496
f 502 498 497
f 501 502 497
f 503 484 498
f 502 503 498
f 504 483 484
f 503 504 484
f 505 485 483
f 504 505 483
f 506 486 485
f 505 506 485
f 507 487 486
f 506 507 486
f 508 488 487
f 507 508 487
f 509 489 488
f 508 509 488
f 510 490 489
f 509 510 489
f 511 491 490
f 510 511 490
f 512 492 491
f 511 512 491
f 513 493 492
f 512 513 492
f 514 494 493
f 513 514 493
f 500 495 494
f 514 500 494
f 396 398 515
f 516 396 515
f 398 400 517
f 515 398 517
f 400 402 518
f 517 400 518
f 402 404 519
f 518 402 519
f 404 406 520
f 519 404 520
f 406 408 521
f 520 406 521
f 408 410 522
f 521 408 522
f 410 412 523
f 522 410 523
f 412 414 524
f 523 412 524
f 414 416 525
f 524 414 525
f 416 418 526
f 525 416 526
f 418 389 527
f 526 418 527
f 389 388 528
f 527 389 528
f 388 392 529
f 528 388 529
f 392 394 530
f 529 392 530
f 394 396 516
f 530 394 516
f 527 528 531
f 527 531 532
f 528 529 533
f 528 533 531
f 529 530 534
f 529 534 533
f 530 516 535
f 530 535 534
f 516 515 536
f 516 536 535
f 515 517 537
f 515 537 536
f 517 518 538
f 517 538 537
f 518 519 539
f 518 539 538
f 519 520 540
f 519 540 539
f 520 521 541
f 520 541 540
f 521 522 542
f 521 542 541
f 522 523 543
f 522 543 542
f 523 524 544
f 523 544 543
f 524 525 545
f 524 545 544
f 525 526 546
f 525 546 545
f 526 527 532
f 526 532 546
f 531 547 548
f 532 531 548
f 533 549 547
f 531 533 547
f 534 550 549
f 533 534 549
f 535 551 550
f 534 535 550
f 536 552 551
f 535 536 551
f 537 553 552
f 536 537 552
f 538 554 553
f 537 538 553
f 539 555 554
f 538 539 554
f 540 556 555
f 539 540 555
f 541 557 556
f 540 541 556
f 542 558 557
f 541 542 557
f 543 559 558
f 542 543 558
f 544 560 559
f 543 544 559
f 545 561 560
f 544 545 560
f 546 562 561
f 545 546 561
f 532 548 562
f 546 532 562
f 467 563 564
f 468 467 564
f 469 565 563
f 467 469 563
f 470 566 565
f 469 470 565
f 471 567 566
f 470 471 566
f 472 568 567
f 471 472 567
f 473 569 568
f 472 473 568
f 474 570 569
f 473 474 569
f 475 571 570
f 474 475 570
f 476 572 571
f 475 476 571
f 477 573 572
f 476 477 572
f 478 574 573
f 477 478 573
f 479 575 574
f 478 479 574
f 480 576 575
f 479 480 575
f 481 577 576
f 480 481 576
f 482 578 577
f 481 482 577
f 468 564 578
f 482 468 578
f 579 580 435
f 579 435 436
f 580 581 437
f 580 437 435
f 581 582 438
f 581 438 437
f 582 583 439
f 582 439 438
f 583 584 440
f 583 440 439
f 584 585 441
f 584 441 440
f 585 586 442
f 585 442 441
f 586 587 443
f 586 443 442
f 587 588 444
f 587 444 443
f 588 589 445
f 588 445 444
f 589 590 446
f 589 446 445
f 590 591 447
f 590 447 446
f 591 592 448
f 591 448 447
f 592 593 449
f 592 449 448
f 593 594 450
f 593 450 449
f 594 579 436
f 594 436 450
f 595 596 499
f 595 499 500
f 596 597 501
f 596 501 499
f 597 598 502
f 597 502 501
f 598 599 503
f 598 503 502
f 599 600 504
f 599 504 503
f 600 601 505
f 600 505 504
f 601 602 506
f 601 506 505
f 602 603 507
f 602 507 506
f 603 604 508
f 603 508 507
f 604 605 509
f 604 509 508
f 605 606 510
f 605 510 509
f 606 607 511
f 606 511 510
f 607 608 512
f 607 512 511
f 608 609 513
f 608 513 512
f 609 610 514
f 609 514 513
f 610 595 500
f 610 500 514
f 564 563 580
f 564 580 579
f 563 565 581
f 563 581 580
f 565 566 582
f 565 582 581
f 566 567 583
f 566 583 582
f 567 568 584
f 567 584 583
f 568 569 585
f 568 585 584
f 569 570 586
f 569 586 585
f 570 571 587
f 570 587 586
f 571 572 588
f 571 588 587
f 572 573 589
f 572 589 588
f 573 574 590
f 573 590 589
f 574 575 591
f 574 591 590
f 575 576 592
f 575 592 591
f 576 577 593
f 576 593 592
f 577 578 594
f 577 594 593
f 578 564 579
f 578 579 594
f 548 547 596
f 548 596 595
f 547 549 597
f 547 597 596
f 549 550 598
f 549 598 597
f 550 551 599
f 550 599 598
f 551 552 600
f 551 600 599
f 552 553 601
f 552 601 600
f 553 554 602
f 553 602 601
f 554 555 603
f 554 603 602
f 555 556 604
f 555 604 603
f 556 557 605
f 556 605 604
f 557 558 606
f 557 606 605
f 558 559 607
f 558 607 606
f 559 560 608
f 559 608 607
f 560 561 609
f 560 609 608
f 561 562 610
f 561 610 609
f 562 548 595
f 562 595 610
f 323 611 612
f 323 612 317
f 334 613 614
f 334 614 339
f 343 615 616
f 343 616 347
f 352 617 618
f 352 618 350
f 347 619 620
f 347 620 343
f 350 621 622
f 350 622 352
f 619 623 624
f 619 624 620
f 621 625 626
f 621 626 622
f 627 628 629
f 627 629 630
f 625 631 632
f 625 632 626
f 633 634 635
f 633 635 636
f 631 637 638
f 631 638 632
f 639 587 595
f 639 595 640
f 641 595 587
f 641 587 642
f 643 548 571
f 643 571 644
f 645 571 548
f 645 548 646
f 647 648 649
f 647 649 650
f 651 652 653
f 651 653 654
f 655 656 657
f 658 655 657
f 253 318 612
f 253 612 346
f 333 204 344
f 333 344 613
f 327 246 353
f 327 353 611
f 211 342 614
f 211 614 349
