# Botball Lab: metres, +Y up, centred XZ, base Y=0
s off
v 0.0080000 0.0032000 0.0040000
v 0.0080000 0.0032000 -0.0040000
v -0.0080000 0.0032000 -0.0040000
v -0.0080000 0.0032000 0.0040000
v -0.0080000 0.0004000 -0.0040000
v 0.0080000 0.0004000 -0.0040000
v -0.0080000 0.0004000 0.0040000
v 0.0080000 0.0004000 0.0040000
v -0.0076000 0.0000000 -0.0036000
v -0.0076000 0.0004000 -0.0036000
v 0.0076000 0.0004000 -0.0036000
v 0.0076000 0.0000000 -0.0036000
v -0.0076000 0.0000000 0.0036000
v -0.0076000 0.0004000 0.0036000
v 0.0076000 0.0000000 0.0036000
v 0.0076000 0.0004000 0.0036000
v -0.0064000 0.0016000 -0.0024000
v 0.0064000 0.0016000 -0.0024000
v 0.0064000 0.0016000 0.0024000
v -0.0064000 0.0016000 0.0024000
v -0.0064000 0.0000000 -0.0024000
v 0.0064000 0.0000000 -0.0024000
v -0.0064000 0.0000000 0.0024000
v 0.0064000 0.0000000 0.0024000
f 1 2 3
f 1 3 4
f 5 3 2
f 5 2 6
f 7 4 3
f 7 3 5
f 8 1 4
f 8 4 7
f 6 2 1
f 6 1 8
f 9 10 11
f 9 11 12
f 13 14 10
f 13 10 9
f 15 16 14
f 15 14 13
f 12 11 16
f 12 16 15
f 17 18 19
f 17 19 20
f 17 21 22
f 17 22 18
f 20 23 21
f 20 21 17
f 19 24 23
f 19 23 20
f 18 22 24
f 18 24 19
f 9 21 23
f 9 23 13
f 15 24 22
f 15 22 12
f 12 22 21
f 12 21 9
f 13 23 24
f 13 24 15
f 5 10 14
f 5 14 7
f 8 16 11
f 8 11 6
f 6 11 10
f 6 10 5
f 7 14 16
f 7 16 8
