# Botball Lab: metres, +Y up, centred XZ, base Y=0
s off
v -0.0012000 0.0032000 -0.0000000
v -0.0014435 0.0019754 -0.0000000
v -0.0014435 0.0032000 -0.0012246
v -0.0018925 0.0017942 -0.0014058
v -0.0021373 0.0032000 -0.0022627
v -0.0029942 0.0017942 -0.0025075
v -0.0031754 0.0032000 -0.0029565
v -0.0044000 0.0019754 -0.0029565
v -0.0044000 0.0032000 -0.0032000
v -0.0021373 0.0009373 -0.0000000
v -0.0029942 0.0006925 -0.0014058
v -0.0044000 0.0009373 -0.0022627
v -0.0031754 0.0002435 -0.0000000
v -0.0044000 0.0002435 -0.0012246
v -0.0044000 0.0000000 -0.0000000
v -0.0014435 0.0032000 0.0012246
v -0.0018925 0.0017942 0.0014058
v -0.0021373 0.0032000 0.0022627
v -0.0029942 0.0017942 0.0025075
v -0.0031754 0.0032000 0.0029565
v -0.0044000 0.0019754 0.0029565
v -0.0044000 0.0032000 0.0032000
v -0.0029942 0.0006925 0.0014058
v -0.0044000 0.0009373 0.0022627
v -0.0044000 0.0002435 0.0012246
v -0.0014435 0.0044246 -0.0000000
v -0.0018925 0.0046058 -0.0014058
v -0.0029942 0.0046058 -0.0025075
v -0.0044000 0.0044246 -0.0029565
v -0.0021373 0.0054627 -0.0000000
v -0.0029942 0.0057075 -0.0014058
v -0.0044000 0.0054627 -0.0022627
v -0.0031754 0.0061565 -0.0000000
v -0.0044000 0.0061565 -0.0012246
v -0.0044000 0.0064000 -0.0000000
v -0.0018925 0.0046058 0.0014058
v -0.0029942 0.0046058 0.0025075
v -0.0044000 0.0044246 0.0029565
v -0.0029942 0.0057075 0.0014058
v -0.0044000 0.0054627 0.0022627
v -0.0044000 0.0061565 0.0012246
v -0.0073565 0.0032000 -0.0012246
v -0.0073565 0.0019754 -0.0000000
v -0.0076000 0.0032000 -0.0000000
v -0.0069075 0.0017942 -0.0014058
v -0.0066627 0.0032000 -0.0022627
v -0.0058058 0.0017942 -0.0025075
v -0.0056246 0.0032000 -0.0029565
v -0.0066627 0.0009373 -0.0000000
v -0.0058058 0.0006925 -0.0014058
v -0.0056246 0.0002435 -0.0000000
v -0.0073565 0.0032000 0.0012246
v -0.0069075 0.0017942 0.0014058
v -0.0066627 0.0032000 0.0022627
v -0.0058058 0.0017942 0.0025075
v -0.0056246 0.0032000 0.0029565
v -0.0058058 0.0006925 0.0014058
v -0.0073565 0.0044246 -0.0000000
v -0.0069075 0.0046058 -0.0014058
v -0.0058058 0.0046058 -0.0025075
v -0.0066627 0.0054627 -0.0000000
v -0.0058058 0.0057075 -0.0014058
v -0.0056246 0.0061565 -0.0000000
v -0.0069075 0.0046058 0.0014058
v -0.0058058 0.0046058 0.0025075
v -0.0058058 0.0057075 0.0014058
v -0.0012000 0.0017218 0.0006123
v -0.0017558 0.0017218 0.0006123
v -0.0017558 0.0016000 -0.0000000
v -0.0012000 0.0016000 -0.0000000
v -0.0012000 0.0020686 0.0011314
v -0.0017558 0.0020686 0.0011314
v -0.0012000 0.0025877 0.0014782
v -0.0017558 0.0025877 0.0014782
v -0.0012000 0.0032000 0.0016000
v -0.0017558 0.0032000 0.0016000
v -0.0012000 0.0038123 0.0014782
v -0.0017558 0.0038123 0.0014782
v -0.0012000 0.0043314 0.0011314
v -0.0017558 0.0043314 0.0011314
v -0.0012000 0.0046782 0.0006123
v -0.0017558 0.0046782 0.0006123
v -0.0012000 0.0048000 -0.0000000
v -0.0017558 0.0048000 -0.0000000
v -0.0012000 0.0046782 -0.0006123
v -0.0017558 0.0046782 -0.0006123
v -0.0012000 0.0043314 -0.0011314
v -0.0017558 0.0043314 -0.0011314
v -0.0012000 0.0038123 -0.0014782
v -0.0017558 0.0038123 -0.0014782
v -0.0012000 0.0032000 -0.0016000
v -0.0017558 0.0032000 -0.0016000
v -0.0012000 0.0025877 -0.0014782
v -0.0017558 0.0025877 -0.0014782
v -0.0012000 0.0020686 -0.0011314
v -0.0017558 0.0020686 -0.0011314
v -0.0012000 0.0017218 -0.0006123
v -0.0017558 0.0017218 -0.0006123
v -0.0004000 0.0017218 0.0006123
v -0.0004000 0.0016000 -0.0000000
v -0.0004000 0.0020686 0.0011314
v -0.0004000 0.0025877 0.0014782
v -0.0004000 0.0032000 0.0016000
v -0.0004000 0.0038123 0.0014782
v -0.0004000 0.0043314 0.0011314
v -0.0004000 0.0046782 0.0006123
v -0.0004000 0.0048000 -0.0000000
v -0.0004000 0.0046782 -0.0006123
v -0.0004000 0.0043314 -0.0011314
v -0.0004000 0.0038123 -0.0014782
v -0.0004000 0.0032000 -0.0016000
v -0.0004000 0.0025877 -0.0014782
v -0.0004000 0.0020686 -0.0011314
v -0.0004000 0.0017218 -0.0006123
v -0.0004000 0.0044246 -0.0029565
v -0.0004000 0.0032000 -0.0032000
v -0.0004000 0.0054627 -0.0022627
v -0.0004000 0.0061565 -0.0012246
v -0.0004000 0.0064000 -0.0000000
v -0.0004000 0.0061565 0.0012246
v -0.0004000 0.0054627 0.0022627
v -0.0004000 0.0044246 0.0029565
v -0.0004000 0.0032000 0.0032000
v -0.0004000 0.0019754 0.0029565
v -0.0004000 0.0009373 0.0022627
v -0.0004000 0.0002435 0.0012246
v -0.0004000 0.0000000 -0.0000000
v -0.0004000 0.0002435 -0.0012246
v -0.0004000 0.0009373 -0.0022627
v -0.0004000 0.0019754 -0.0029565
v 0.0004000 0.0032000 -0.0000000
v 0.0004000 0.0016000 -0.0000000
v 0.0004000 0.0017218 -0.0006123
v 0.0004000 0.0020686 -0.0011314
v 0.0004000 0.0025877 -0.0014782
v 0.0004000 0.0032000 -0.0016000
v 0.0004000 0.0038123 -0.0014782
v 0.0004000 0.0043314 -0.0011314
v 0.0004000 0.0046782 -0.0006123
v 0.0004000 0.0048000 -0.0000000
v 0.0004000 0.0046782 0.0006123
v 0.0004000 0.0043314 0.0011314
v 0.0004000 0.0038123 0.0014782
v 0.0004000 0.0032000 0.0016000
v 0.0004000 0.0025877 0.0014782
v 0.0004000 0.0020686 0.0011314
v 0.0004000 0.0017218 0.0006123
v 0.0042000 0.0017218 -0.0006123
v 0.0042000 0.0016000 -0.0000000
v 0.0042000 0.0020686 -0.0011314
v 0.0042000 0.0025877 -0.0014782
v 0.0042000 0.0032000 -0.0016000
v 0.0042000 0.0038123 -0.0014782
v 0.0042000 0.0043314 -0.0011314
v 0.0042000 0.0046782 -0.0006123
v 0.0042000 0.0048000 -0.0000000
v 0.0042000 0.0046782 0.0006123
v 0.0042000 0.0043314 0.0011314
v 0.0042000 0.0038123 0.0014782
v 0.0042000 0.0032000 0.0016000
v 0.0042000 0.0025877 0.0014782
v 0.0042000 0.0020686 0.0011314
v 0.0042000 0.0017218 0.0006123
v 0.0004000 0.0002435 -0.0012246
v 0.0004000 0.0000000 -0.0000000
v 0.0004000 0.0009373 -0.0022627
v 0.0004000 0.0019754 -0.0029565
v 0.0004000 0.0032000 -0.0032000
v 0.0004000 0.0044246 -0.0029565
v 0.0004000 0.0054627 -0.0022627
v 0.0004000 0.0061565 -0.0012246
v 0.0004000 0.0064000 -0.0000000
v 0.0004000 0.0061565 0.0012246
v 0.0004000 0.0054627 0.0022627
v 0.0004000 0.0044246 0.0029565
v 0.0004000 0.0032000 0.0032000
v 0.0004000 0.0019754 0.0029565
v 0.0004000 0.0009373 0.0022627
v 0.0004000 0.0002435 0.0012246
v 0.0004000 0.0041185 -0.0022174
v 0.0004000 0.0032000 -0.0024000
v 0.0004000 0.0048970 -0.0016970
v 0.0004000 0.0054174 -0.0009185
v 0.0004000 0.0056000 -0.0000000
v 0.0004000 0.0054174 0.0009185
v 0.0004000 0.0048970 0.0016970
v 0.0004000 0.0041185 0.0022174
v 0.0004000 0.0032000 0.0024000
v 0.0004000 0.0022815 0.0022174
v 0.0004000 0.0015030 0.0016970
v 0.0004000 0.0009826 0.0009185
v 0.0004000 0.0008000 -0.0000000
v 0.0004000 0.0009826 -0.0009185
v 0.0004000 0.0015030 -0.0016970
v 0.0004000 0.0022815 -0.0022174
v 0.0042000 0.0009826 -0.0009185
v 0.0042000 0.0008000 -0.0000000
v 0.0042000 0.0015030 -0.0016970
v 0.0042000 0.0022815 -0.0022174
v 0.0042000 0.0032000 -0.0024000
v 0.0042000 0.0041185 -0.0022174
v 0.0042000 0.0048970 -0.0016970
v 0.0042000 0.0054174 -0.0009185
v 0.0042000 0.0056000 -0.0000000
v 0.0042000 0.0054174 0.0009185
v 0.0042000 0.0048970 0.0016970
v 0.0042000 0.0041185 0.0022174
v 0.0042000 0.0032000 0.0024000
v 0.0042000 0.0022815 0.0022174
v 0.0042000 0.0015030 0.0016970
v 0.0042000 0.0009826 0.0009185
v 0.0042304 0.0008305 -0.0001531
v 0.0042000 0.0008796 -0.0004000
v 0.0043172 0.0008563 -0.0002828
v 0.0044469 0.0008735 -0.0003696
v 0.0046000 0.0008796 -0.0004000
v 0.0068000 0.0008796 -0.0004000
v 0.0042000 0.0009828 -0.0009184
v 0.0068000 0.0009828 -0.0009184
v 0.0068000 0.0015030 -0.0016970
v 0.0042000 0.0022816 -0.0022172
v 0.0068000 0.0022816 -0.0022172
v 0.0042000 0.0032000 -0.0023999
v 0.0068000 0.0032000 -0.0023999
v 0.0042000 0.0041184 -0.0022172
v 0.0068000 0.0041184 -0.0022172
v 0.0068000 0.0048970 -0.0016970
v 0.0042000 0.0054172 -0.0009184
v 0.0068000 0.0054172 -0.0009184
v 0.0042000 0.0055204 -0.0004000
v 0.0068000 0.0055204 -0.0004000
v 0.0042304 0.0055695 -0.0001531
v 0.0043172 0.0055437 -0.0002828
v 0.0044469 0.0055265 -0.0003696
v 0.0046000 0.0055204 -0.0004000
v 0.0042304 0.0055695 0.0001531
v 0.0042000 0.0055204 0.0004000
v 0.0043172 0.0055437 0.0002828
v 0.0044469 0.0055265 0.0003696
v 0.0046000 0.0055204 0.0004000
v 0.0068000 0.0055204 0.0004000
v 0.0042000 0.0054172 0.0009184
v 0.0068000 0.0054172 0.0009184
v 0.0068000 0.0048970 0.0016970
v 0.0042000 0.0041184 0.0022172
v 0.0068000 0.0041184 0.0022172
v 0.0042000 0.0032000 0.0023999
v 0.0068000 0.0032000 0.0023999
v 0.0042000 0.0022816 0.0022172
v 0.0068000 0.0022816 0.0022172
v 0.0068000 0.0015030 0.0016970
v 0.0042000 0.0009828 0.0009184
v 0.0068000 0.0009828 0.0009184
v 0.0042000 0.0008796 0.0004000
v 0.0068000 0.0008796 0.0004000
v 0.0042304 0.0008305 0.0001531
v 0.0043172 0.0008563 0.0002828
v 0.0044469 0.0008735 0.0003696
v 0.0046000 0.0008796 0.0004000
v 0.0068000 0.0006796 0.0004000
v 0.0068000 0.0007980 0.0009952
v 0.0068000 0.0013616 0.0018384
v 0.0068000 0.0015028 0.0016972
v 0.0068000 0.0022048 0.0024020
v 0.0068000 0.0032000 0.0026000
v 0.0068000 0.0032000 0.0024000
v 0.0068000 0.0041952 0.0024020
v 0.0068000 0.0050384 0.0018384
v 0.0068000 0.0048972 0.0016972
v 0.0068000 0.0056020 0.0009952
v 0.0068000 0.0057204 0.0004000
v 0.0068000 0.0057204 -0.0004000
v 0.0068000 0.0056020 -0.0009952
v 0.0068000 0.0050384 -0.0018384
v 0.0068000 0.0048972 -0.0016972
v 0.0068000 0.0041952 -0.0024020
v 0.0068000 0.0032000 -0.0026000
v 0.0068000 0.0032000 -0.0024000
v 0.0068000 0.0022048 -0.0024020
v 0.0068000 0.0013616 -0.0018384
v 0.0068000 0.0015028 -0.0016972
v 0.0068000 0.0007980 -0.0009952
v 0.0068000 0.0006796 -0.0004000
v 0.0076000 0.0007980 -0.0009952
v 0.0076000 0.0006796 -0.0004000
v 0.0068000 0.0013617 -0.0018387
v 0.0076000 0.0013617 -0.0018387
v 0.0068000 0.0022053 -0.0024022
v 0.0076000 0.0022053 -0.0024022
v 0.0068000 0.0032002 -0.0026001
v 0.0076000 0.0032002 -0.0026001
v 0.0076000 0.0041952 -0.0024020
v 0.0068000 0.0050387 -0.0018383
v 0.0076000 0.0050387 -0.0018383
v 0.0068000 0.0056022 -0.0009947
v 0.0076000 0.0056022 -0.0009947
v 0.0076000 0.0057204 -0.0004000
v 0.0076000 0.0056020 -0.0009952
v 0.0076000 0.0056020 0.0009952
v 0.0076000 0.0057204 0.0004000
v 0.0068000 0.0050383 0.0018387
v 0.0076000 0.0050383 0.0018387
v 0.0068000 0.0041947 0.0024022
v 0.0076000 0.0041947 0.0024022
v 0.0068000 0.0031998 0.0026001
v 0.0076000 0.0031998 0.0026001
v 0.0076000 0.0022048 0.0024020
v 0.0068000 0.0013613 0.0018383
v 0.0076000 0.0013613 0.0018383
v 0.0068000 0.0007978 0.0009947
v 0.0076000 0.0007978 0.0009947
v 0.0076000 0.0006796 0.0004000
v 0.0076000 0.0007980 0.0009952
v 0.0042304 0.0016305 -0.0001531
v 0.0043172 0.0016563 -0.0002828
v 0.0044469 0.0016735 -0.0003696
v 0.0046000 0.0016796 -0.0004000
v 0.0068000 0.0016796 -0.0004000
v 0.0076000 0.0016796 -0.0004000
v 0.0076000 0.0017216 -0.0006124
v 0.0076000 0.0020688 -0.0011312
v 0.0076000 0.0013616 -0.0018384
v 0.0076000 0.0025876 -0.0014784
v 0.0076000 0.0022048 -0.0024020
v 0.0076000 0.0032000 -0.0016000
v 0.0076000 0.0032000 -0.0026000
v 0.0076000 0.0038124 -0.0014784
v 0.0076000 0.0043312 -0.0011312
v 0.0076000 0.0050384 -0.0018384
v 0.0076000 0.0046784 -0.0006124
v 0.0076000 0.0047204 -0.0004000
v 0.0068000 0.0047204 -0.0004000
v 0.0046000 0.0047204 -0.0004000
v 0.0042304 0.0047695 -0.0001531
v 0.0043172 0.0047437 -0.0002828
v 0.0044469 0.0047265 -0.0003696
v 0.0042304 0.0047695 0.0001531
v 0.0043172 0.0047437 0.0002828
v 0.0044469 0.0047265 0.0003696
v 0.0046000 0.0047204 0.0004000
v 0.0068000 0.0047204 0.0004000
v 0.0076000 0.0047204 0.0004000
v 0.0076000 0.0046784 0.0006124
v 0.0076000 0.0043312 0.0011312
v 0.0076000 0.0050384 0.0018384
v 0.0076000 0.0038124 0.0014784
v 0.0076000 0.0041952 0.0024020
v 0.0076000 0.0032000 0.0016000
v 0.0076000 0.0032000 0.0026000
v 0.0076000 0.0025876 0.0014784
v 0.0076000 0.0020688 0.0011312
v 0.0076000 0.0013616 0.0018384
v 0.0076000 0.0017216 0.0006124
v 0.0076000 0.0016796 0.0004000
v 0.0068000 0.0016796 0.0004000
v 0.0046000 0.0016796 0.0004000
v 0.0042304 0.0016305 0.0001531
v 0.0043172 0.0016563 0.0002828
v 0.0044469 0.0016735 0.0003696
v 0.0042000 0.0016796 -0.0004000
v 0.0042000 0.0017220 -0.0006120
v 0.0076000 0.0017220 -0.0006120
v 0.0076000 0.0017220 -0.0006124
v 0.0076000 0.0020688 -0.0011314
v 0.0042000 0.0020688 -0.0011314
v 0.0042000 0.0017220 -0.0006124
v 0.0076000 0.0025879 -0.0014781
v 0.0042000 0.0025879 -0.0014781
v 0.0076000 0.0032002 -0.0015999
v 0.0042000 0.0032002 -0.0015999
v 0.0076000 0.0038124 -0.0014780
v 0.0042000 0.0038124 -0.0014780
v 0.0076000 0.0043314 -0.0011312
v 0.0042000 0.0043314 -0.0011312
v 0.0076000 0.0046781 -0.0006121
v 0.0042000 0.0046781 -0.0006121
v 0.0042000 0.0047204 -0.0004000
v 0.0042000 0.0046780 -0.0006120
v 0.0076000 0.0046780 -0.0006120
v 0.0042000 0.0047204 0.0004000
v 0.0042000 0.0046780 0.0006120
v 0.0076000 0.0046780 0.0006120
v 0.0076000 0.0046780 0.0006124
v 0.0076000 0.0043312 0.0011314
v 0.0042000 0.0043312 0.0011314
v 0.0042000 0.0046780 0.0006124
v 0.0076000 0.0038121 0.0014781
v 0.0042000 0.0038121 0.0014781
v 0.0076000 0.0031998 0.0015999
v 0.0042000 0.0031998 0.0015999
v 0.0076000 0.0025876 0.0014780
v 0.0042000 0.0025876 0.0014780
v 0.0076000 0.0020686 0.0011312
v 0.0042000 0.0020686 0.0011312
v 0.0076000 0.0017219 0.0006121
v 0.0042000 0.0017219 0.0006121
v 0.0042000 0.0016796 0.0004000
v 0.0042000 0.0017220 0.0006120
v 0.0076000 0.0017220 0.0006120
v 0.0020000 0.0017716 0.0019940
v 0.0020000 0.0018424 0.0019233
v 0.0004000 0.0018424 0.0019233
v 0.0004000 0.0017716 0.0019940
v 0.0020000 0.0012767 0.0013576
v 0.0020000 0.0012060 0.0014284
v 0.0004000 0.0012060 0.0014284
v 0.0004000 0.0012767 0.0013576
v 0.0024000 0.0015029 0.0016971
v 0.0023696 0.0016328 0.0017837
v 0.0023696 0.0015621 0.0018544
v 0.0024000 0.0014322 0.0017678
v 0.0022828 0.0017429 0.0018571
v 0.0022828 0.0016722 0.0019278
v 0.0021531 0.0018165 0.0019061
v 0.0021531 0.0017458 0.0019768
v 0.0021531 0.0012939 0.0013835
v 0.0021531 0.0012232 0.0014542
v 0.0022828 0.0013429 0.0014571
v 0.0022828 0.0012722 0.0015278
v 0.0023696 0.0014163 0.0015672
v 0.0023696 0.0013456 0.0016379
v 0.0004000 0.0014322 0.0017678
v 0.0020000 0.0051940 0.0014284
v 0.0020000 0.0051233 0.0013576
v 0.0004000 0.0051233 0.0013576
v 0.0004000 0.0051940 0.0014284
v 0.0020000 0.0045576 0.0019233
v 0.0020000 0.0046284 0.0019940
v 0.0004000 0.0046284 0.0019940
v 0.0004000 0.0045576 0.0019233
v 0.0024000 0.0048971 0.0016971
v 0.0023696 0.0049837 0.0015672
v 0.0023696 0.0050544 0.0016379
v 0.0024000 0.0049678 0.0017678
v 0.0022828 0.0050571 0.0014571
v 0.0022828 0.0051278 0.0015278
v 0.0021531 0.0051061 0.0013835
v 0.0021531 0.0051768 0.0014542
v 0.0021531 0.0045835 0.0019061
v 0.0021531 0.0046542 0.0019768
v 0.0022828 0.0046571 0.0018571
v 0.0022828 0.0047278 0.0019278
v 0.0023696 0.0047672 0.0017837
v 0.0023696 0.0048379 0.0018544
v 0.0004000 0.0049678 0.0017678
v 0.0020000 0.0046284 -0.0019940
v 0.0020000 0.0045576 -0.0019233
v 0.0004000 0.0045576 -0.0019233
v 0.0004000 0.0046284 -0.0019940
v 0.0020000 0.0051233 -0.0013576
v 0.0020000 0.0051940 -0.0014284
v 0.0004000 0.0051940 -0.0014284
v 0.0004000 0.0051233 -0.0013576
v 0.0024000 0.0048971 -0.0016971
v 0.0023696 0.0047672 -0.0017837
v 0.0023696 0.0048379 -0.0018544
v 0.0024000 0.0049678 -0.0017678
v 0.0022828 0.0046571 -0.0018571
v 0.0022828 0.0047278 -0.0019278
v 0.0021531 0.0045835 -0.0019061
v 0.0021531 0.0046542 -0.0019768
v 0.0021531 0.0051061 -0.0013835
v 0.0021531 0.0051768 -0.0014542
v 0.0022828 0.0050571 -0.0014571
v 0.0022828 0.0051278 -0.0015278
v 0.0023696 0.0049837 -0.0015672
v 0.0023696 0.0050544 -0.0016379
v 0.0004000 0.0049678 -0.0017678
v 0.0020000 0.0012060 -0.0014284
v 0.0020000 0.0012767 -0.0013576
v 0.0004000 0.0012767 -0.0013576
v 0.0004000 0.0012060 -0.0014284
v 0.0020000 0.0018424 -0.0019233
v 0.0020000 0.0017716 -0.0019940
v 0.0004000 0.0017716 -0.0019940
v 0.0004000 0.0018424 -0.0019233
v 0.0024000 0.0015029 -0.0016971
v 0.0023696 0.0014163 -0.0015672
v 0.0023696 0.0013456 -0.0016379
v 0.0024000 0.0014322 -0.0017678
v 0.0022828 0.0013429 -0.0014571
v 0.0022828 0.0012722 -0.0015278
v 0.0021531 0.0012939 -0.0013835
v 0.0021531 0.0012232 -0.0014542
v 0.0021531 0.0018165 -0.0019061
v 0.0021531 0.0017458 -0.0019768
v 0.0022828 0.0017429 -0.0018571
v 0.0022828 0.0016722 -0.0019278
v 0.0023696 0.0016328 -0.0017837
v 0.0023696 0.0015621 -0.0018544
v 0.0004000 0.0014322 -0.0017678
v 0.0068000 0.0018424 0.0019233
v 0.0052000 0.0018424 0.0019233
v 0.0052000 0.0017716 0.0019940
v 0.0068000 0.0017716 0.0019940
v 0.0068000 0.0012060 0.0014284
v 0.0052000 0.0012060 0.0014284
v 0.0052000 0.0012767 0.0013576
v 0.0068000 0.0012767 0.0013576
v 0.0048304 0.0015621 0.0018544
v 0.0048304 0.0016328 0.0017837
v 0.0048000 0.0015029 0.0016971
v 0.0048000 0.0014322 0.0017678
v 0.0049172 0.0016722 0.0019278
v 0.0049172 0.0017429 0.0018571
v 0.0050469 0.0017458 0.0019768
v 0.0050469 0.0018165 0.0019061
v 0.0050469 0.0012232 0.0014542
v 0.0050469 0.0012939 0.0013835
v 0.0049172 0.0012722 0.0015278
v 0.0049172 0.0013429 0.0014571
v 0.0048304 0.0013456 0.0016379
v 0.0048304 0.0014163 0.0015672
v 0.0068000 0.0014322 0.0017678
v 0.0068000 0.0051233 0.0013576
v 0.0052000 0.0051233 0.0013576
v 0.0052000 0.0051940 0.0014284
v 0.0068000 0.0051940 0.0014284
v 0.0068000 0.0046284 0.0019940
v 0.0052000 0.0046284 0.0019940
v 0.0052000 0.0045576 0.0019233
v 0.0068000 0.0045576 0.0019233
v 0.0048304 0.0050544 0.0016379
v 0.0048304 0.0049837 0.0015672
v 0.0048000 0.0048971 0.0016971
v 0.0048000 0.0049678 0.0017678
v 0.0049172 0.0051278 0.0015278
v 0.0049172 0.0050571 0.0014571
v 0.0050469 0.0051768 0.0014542
v 0.0050469 0.0051061 0.0013835
v 0.0050469 0.0046542 0.0019768
v 0.0050469 0.0045835 0.0019061
v 0.0049172 0.0047278 0.0019278
v 0.0049172 0.0046571 0.0018571
v 0.0048304 0.0048379 0.0018544
v 0.0048304 0.0047672 0.0017837
v 0.0068000 0.0049678 0.0017678
v 0.0068000 0.0045576 -0.0019233
v 0.0052000 0.0045576 -0.0019233
v 0.0052000 0.0046284 -0.0019940
v 0.0068000 0.0046284 -0.0019940
v 0.0068000 0.0051940 -0.0014284
v 0.0052000 0.0051940 -0.0014284
v 0.0052000 0.0051233 -0.0013576
v 0.0068000 0.0051233 -0.0013576
v 0.0048304 0.0048379 -0.0018544
v 0.0048304 0.0047672 -0.0017837
v 0.0048000 0.0048971 -0.0016971
v 0.0048000 0.0049678 -0.0017678
v 0.0049172 0.0047278 -0.0019278
v 0.0049172 0.0046571 -0.0018571
v 0.0050469 0.0046542 -0.0019768
v 0.0050469 0.0045835 -0.0019061
v 0.0050469 0.0051768 -0.0014542
v 0.0050469 0.0051061 -0.0013835
v 0.0049172 0.0051278 -0.0015278
v 0.0049172 0.0050571 -0.0014571
v 0.0048304 0.0050544 -0.0016379
v 0.0048304 0.0049837 -0.0015672
v 0.0068000 0.0049678 -0.0017678
v 0.0068000 0.0012767 -0.0013576
v 0.0052000 0.0012767 -0.0013576
v 0.0052000 0.0012060 -0.0014284
v 0.0068000 0.0012060 -0.0014284
v 0.0068000 0.0017716 -0.0019940
v 0.0052000 0.0017716 -0.0019940
v 0.0052000 0.0018424 -0.0019233
v 0.0068000 0.0018424 -0.0019233
v 0.0048304 0.0013456 -0.0016379
v 0.0048304 0.0014163 -0.0015672
v 0.0048000 0.0015029 -0.0016971
v 0.0048000 0.0014322 -0.0017678
v 0.0049172 0.0012722 -0.0015278
v 0.0049172 0.0013429 -0.0014571
v 0.0050469 0.0012232 -0.0014542
v 0.0050469 0.0012939 -0.0013835
v 0.0050469 0.0017458 -0.0019768
v 0.0050469 0.0018165 -0.0019061
v 0.0049172 0.0016722 -0.0019278
v 0.0049172 0.0017429 -0.0018571
v 0.0048304 0.0015621 -0.0018544
v 0.0048304 0.0016328 -0.0017837
v 0.0068000 0.0014322 -0.0017678
f 1 2 3
f 2 4 3
f 3 4 5
f 4 6 5
f 5 6 7
f 6 8 7
f 7 8 9
f 2 10 4
f 10 11 4
f 4 11 6
f 11 12 6
f 6 12 8
f 10 13 11
f 13 14 11
f 11 14 12
f 13 15 14
f 16 2 1
f 16 17 2
f 18 17 16
f 18 19 17
f 20 19 18
f 20 21 19
f 22 21 20
f 17 10 2
f 17 23 10
f 19 23 17
f 19 24 23
f 21 24 19
f 23 13 10
f 23 25 13
f 24 25 23
f 25 15 13
f 3 26 1
f 3 27 26
f 5 27 3
f 5 28 27
f 7 28 5
f 7 29 28
f 9 29 7
f 27 30 26
f 27 31 30
f 28 31 27
f 28 32 31
f 29 32 28
f 31 33 30
f 31 34 33
f 32 34 31
f 34 35 33
f 1 26 16
f 26 36 16
f 16 36 18
f 36 37 18
f 18 37 20
f 37 38 20
f 20 38 22
f 26 30 36
f 30 39 36
f 36 39 37
f 39 40 37
f 37 40 38
f 30 33 39
f 33 41 39
f 39 41 40
f 33 35 41
f 42 43 44
f 42 45 43
f 46 45 42
f 46 47 45
f 48 47 46
f 48 8 47
f 9 8 48
f 45 49 43
f 45 50 49
f 47 50 45
f 47 12 50
f 8 12 47
f 50 51 49
f 50 14 51
f 12 14 50
f 14 15 51
f 44 43 52
f 43 53 52
f 52 53 54
f 53 55 54
f 54 55 56
f 55 21 56
f 56 21 22
f 43 49 53
f 49 57 53
f 53 57 55
f 57 24 55
f 55 24 21
f 49 51 57
f 51 25 57
f 57 25 24
f 51 15 25
f 44 58 42
f 58 59 42
f 42 59 46
f 59 60 46
f 46 60 48
f 60 29 48
f 48 29 9
f 58 61 59
f 61 62 59
f 59 62 60
f 62 32 60
f 60 32 29
f 61 63 62
f 63 34 62
f 62 34 32
f 63 35 34
f 52 58 44
f 52 64 58
f 54 64 52
f 54 65 64
f 56 65 54
f 56 38 65
f 22 38 56
f 64 61 58
f 64 66 61
f 65 66 64
f 65 40 66
f 38 40 65
f 66 63 61
f 66 41 63
f 40 41 66
f 41 35 63
f 67 68 69
f 70 67 69
f 71 72 68
f 67 71 68
f 73 74 72
f 71 73 72
f 75 76 74
f 73 75 74
f 77 78 76
f 75 77 76
f 79 80 78
f 77 79 78
f 81 82 80
f 79 81 80
f 83 84 82
f 81 83 82
f 85 86 84
f 83 85 84
f 87 88 86
f 85 87 86
f 89 90 88
f 87 89 88
f 91 92 90
f 89 91 90
f 93 94 92
f 91 93 92
f 95 96 94
f 93 95 94
f 97 98 96
f 95 97 96
f 70 69 98
f 97 70 98
f 99 67 70
f 100 99 70
f 101 71 67
f 99 101 67
f 102 73 71
f 101 102 71
f 103 75 73
f 102 103 73
f 104 77 75
f 103 104 75
f 105 79 77
f 104 105 77
f 106 81 79
f 105 106 79
f 107 83 81
f 106 107 81
f 108 85 83
f 107 108 83
f 109 87 85
f 108 109 85
f 110 89 87
f 109 110 87
f 111 91 89
f 110 111 89
f 112 93 91
f 111 112 91
f 113 95 93
f 112 113 93
f 114 97 95
f 113 114 95
f 100 70 97
f 114 100 97
f 111 110 115
f 116 111 115
f 110 109 117
f 115 110 117
f 109 108 118
f 117 109 118
f 108 107 119
f 118 108 119
f 107 106 120
f 119 107 120
f 106 105 121
f 120 106 121
f 105 104 122
f 121 105 122
f 104 103 123
f 122 104 123
f 103 102 124
f 123 103 124
f 102 101 125
f 124 102 125
f 101 99 126
f 125 101 126
f 99 100 127
f 126 99 127
f 100 114 128
f 127 100 128
f 114 113 129
f 128 114 129
f 113 112 130
f 129 113 130
f 112 111 116
f 130 112 116
f 131 132 133
f 131 133 134
f 131 134 135
f 131 135 136
f 131 136 137
f 131 137 138
f 131 138 139
f 131 139 140
f 131 140 141
f 131 141 142
f 131 142 143
f 131 143 144
f 131 144 145
f 131 145 146
f 131 146 147
f 131 147 132
f 148 133 132
f 149 148 132
f 150 134 133
f 148 150 133
f 151 135 134
f 150 151 134
f 152 136 135
f 151 152 135
f 153 137 136
f 152 153 136
f 154 138 137
f 153 154 137
f 155 139 138
f 154 155 138
f 156 140 139
f 155 156 139
f 157 141 140
f 156 157 140
f 158 142 141
f 157 158 141
f 159 143 142
f 158 159 142
f 160 144 143
f 159 160 143
f 161 145 144
f 160 161 144
f 162 146 145
f 161 162 145
f 163 147 146
f 162 163 146
f 149 132 147
f 163 149 147
f 127 128 164
f 127 164 165
f 128 129 166
f 128 166 164
f 129 130 167
f 129 167 166
f 130 116 168
f 130 168 167
f 116 115 169
f 116 169 168
f 115 117 170
f 115 170 169
f 117 118 171
f 117 171 170
f 118 119 172
f 118 172 171
f 119 120 173
f 119 173 172
f 120 121 174
f 120 174 173
f 121 122 175
f 121 175 174
f 122 123 176
f 122 176 175
f 123 124 177
f 123 177 176
f 124 125 178
f 124 178 177
f 125 126 179
f 125 179 178
f 126 127 165
f 126 165 179
f 169 180 181
f 169 181 168
f 170 182 180
f 170 180 169
f 171 183 182
f 171 182 170
f 172 184 183
f 172 183 171
f 173 185 184
f 173 184 172
f 174 186 185
f 174 185 173
f 175 187 186
f 175 186 174
f 176 188 187
f 176 187 175
f 177 189 188
f 177 188 176
f 178 190 189
f 178 189 177
f 179 191 190
f 179 190 178
f 165 192 191
f 165 191 179
f 164 193 192
f 164 192 165
f 166 194 193
f 166 193 164
f 167 195 194
f 167 194 166
f 168 181 195
f 168 195 167
f 193 196 197
f 192 193 197
f 194 198 196
f 193 194 196
f 195 199 198
f 194 195 198
f 181 200 199
f 195 181 199
f 180 201 200
f 181 180 200
f 182 202 201
f 180 182 201
f 183 203 202
f 182 183 202
f 184 204 203
f 183 184 203
f 185 205 204
f 184 185 204
f 186 206 205
f 185 186 205
f 187 207 206
f 186 187 206
f 188 208 207
f 187 188 207
f 189 209 208
f 188 189 208
f 190 210 209
f 189 190 209
f 191 211 210
f 190 191 210
f 192 197 211
f 191 192 211
f 212 197 213
f 214 212 213
f 215 214 213
f 216 215 213
f 217 213 218
f 219 217 218
f 198 220 219
f 198 219 218
f 221 222 220
f 221 220 198
f 223 224 222
f 223 222 221
f 225 226 224
f 225 224 223
f 202 227 226
f 202 226 225
f 228 229 227
f 228 227 202
f 228 230 231
f 228 231 229
f 230 204 232
f 230 232 233
f 230 233 234
f 230 234 235
f 236 204 237
f 238 236 237
f 239 238 237
f 240 239 237
f 241 237 242
f 243 241 242
f 206 244 243
f 206 243 242
f 245 246 244
f 245 244 206
f 247 248 246
f 247 246 245
f 249 250 248
f 249 248 247
f 210 251 250
f 210 250 249
f 252 253 251
f 252 251 210
f 252 254 255
f 252 255 253
f 254 197 256
f 254 256 257
f 254 257 258
f 254 258 259
f 260 261 253
f 260 253 255
f 261 262 263
f 261 263 253
f 262 264 250
f 262 250 263
f 264 265 266
f 264 266 250
f 265 267 246
f 265 246 266
f 267 268 269
f 267 269 246
f 268 270 243
f 268 243 269
f 270 271 241
f 270 241 243
f 272 273 229
f 272 229 231
f 273 274 275
f 273 275 229
f 274 276 226
f 274 226 275
f 276 277 278
f 276 278 226
f 277 279 222
f 277 222 278
f 279 280 281
f 279 281 222
f 280 282 219
f 280 219 281
f 282 283 217
f 282 217 219
f 284 285 283
f 282 284 283
f 286 287 284
f 286 284 282
f 288 289 287
f 288 287 286
f 290 291 289
f 290 289 288
f 276 292 291
f 276 291 290
f 293 294 292
f 293 292 276
f 295 296 294
f 295 294 293
f 272 297 298
f 272 298 273
f 299 300 271
f 270 299 271
f 301 302 299
f 301 299 270
f 303 304 302
f 303 302 301
f 305 306 304
f 305 304 303
f 264 307 306
f 264 306 305
f 308 309 307
f 308 307 264
f 310 311 309
f 310 309 308
f 260 312 313
f 260 313 261
f 197 212 314
f 197 314 149
f 212 214 315
f 212 315 314
f 214 215 316
f 214 316 315
f 215 216 317
f 215 317 316
f 217 318 317
f 217 317 216
f 319 318 283
f 319 283 285
f 320 319 285
f 320 285 284
f 321 320 284
f 321 284 322
f 323 321 322
f 323 322 324
f 325 323 324
f 325 324 326
f 327 325 326
f 327 326 292
f 328 327 292
f 328 292 329
f 330 328 329
f 330 329 298
f 331 330 298
f 331 298 297
f 297 272 332
f 297 332 331
f 332 231 235
f 332 235 333
f 156 334 232
f 156 232 204
f 334 335 233
f 334 233 232
f 335 336 234
f 335 234 233
f 336 333 235
f 336 235 234
f 236 337 156
f 204 236 156
f 238 338 337
f 236 238 337
f 239 339 338
f 238 239 338
f 240 340 339
f 239 240 339
f 240 241 341
f 340 240 341
f 341 271 300
f 342 341 300
f 343 342 300
f 343 300 299
f 344 343 299
f 344 299 345
f 346 344 345
f 346 345 347
f 348 346 347
f 348 347 349
f 350 348 349
f 350 349 307
f 351 350 307
f 351 307 352
f 353 351 352
f 353 352 313
f 354 353 313
f 354 313 312
f 260 355 354
f 312 260 354
f 356 355 255
f 259 356 255
f 357 256 197
f 149 357 197
f 358 257 256
f 357 358 256
f 359 258 257
f 358 359 257
f 356 259 258
f 359 356 258
f 360 149 314
f 360 314 315
f 360 315 316
f 360 316 317
f 361 360 319
f 361 319 362
f 363 364 365
f 366 363 365
f 364 367 368
f 365 364 368
f 367 369 370
f 368 367 370
f 369 371 372
f 370 369 372
f 371 373 374
f 372 371 374
f 373 375 376
f 374 373 376
f 331 377 378
f 379 331 378
f 334 156 377
f 335 334 377
f 336 335 377
f 333 336 377
f 380 156 337
f 380 337 338
f 380 338 339
f 380 339 340
f 381 380 342
f 381 342 382
f 383 384 385
f 386 383 385
f 384 387 388
f 385 384 388
f 387 389 390
f 388 387 390
f 389 391 392
f 390 389 392
f 391 393 394
f 392 391 394
f 393 395 396
f 394 393 396
f 354 397 398
f 399 354 398
f 357 149 397
f 358 357 397
f 359 358 397
f 356 359 397
f 400 401 402
f 403 400 402
f 404 405 406
f 407 404 406
f 408 409 410
f 408 410 411
f 409 412 413
f 409 413 410
f 412 414 415
f 412 415 413
f 414 401 400
f 414 400 415
f 404 416 417
f 404 417 405
f 416 418 419
f 416 419 417
f 418 420 421
f 418 421 419
f 420 408 411
f 420 411 421
f 422 411 400
f 422 400 403
f 406 405 411
f 406 411 422
f 410 415 400
f 410 400 411
f 413 415 410
f 417 421 411
f 417 411 405
f 419 421 417
f 423 424 425
f 426 423 425
f 427 428 429
f 430 427 429
f 431 432 433
f 431 433 434
f 432 435 436
f 432 436 433
f 435 437 438
f 435 438 436
f 437 424 423
f 437 423 438
f 427 439 440
f 427 440 428
f 439 441 442
f 439 442 440
f 441 443 444
f 441 444 442
f 443 431 434
f 443 434 444
f 445 434 423
f 445 423 426
f 429 428 434
f 429 434 445
f 433 438 423
f 433 423 434
f 436 438 433
f 440 444 434
f 440 434 428
f 442 444 440
f 446 447 448
f 449 446 448
f 450 451 452
f 453 450 452
f 454 455 456
f 454 456 457
f 455 458 459
f 455 459 456
f 458 460 461
f 458 461 459
f 460 447 446
f 460 446 461
f 450 462 463
f 450 463 451
f 462 464 465
f 462 465 463
f 464 466 467
f 464 467 465
f 466 454 457
f 466 457 467
f 468 457 446
f 468 446 449
f 452 451 457
f 452 457 468
f 456 461 446
f 456 446 457
f 459 461 456
f 463 467 457
f 463 457 451
f 465 467 463
f 469 470 471
f 472 469 471
f 473 474 475
f 476 473 475
f 477 478 479
f 477 479 480
f 478 481 482
f 478 482 479
f 481 483 484
f 481 484 482
f 483 470 469
f 483 469 484
f 473 485 486
f 473 486 474
f 485 487 488
f 485 488 486
f 487 489 490
f 487 490 488
f 489 477 480
f 489 480 490
f 491 480 469
f 491 469 472
f 475 474 480
f 475 480 491
f 479 484 469
f 479 469 480
f 482 484 479
f 486 490 480
f 486 480 474
f 488 490 486
f 492 493 494
f 492 494 495
f 496 497 498
f 496 498 499
f 500 501 502
f 503 500 502
f 504 505 501
f 500 504 501
f 506 507 505
f 504 506 505
f 494 493 507
f 506 494 507
f 508 509 498
f 497 508 498
f 510 511 509
f 508 510 509
f 512 513 511
f 510 512 511
f 503 502 513
f 512 503 513
f 494 503 514
f 495 494 514
f 503 497 496
f 514 503 496
f 494 506 500
f 503 494 500
f 500 506 504
f 503 512 508
f 497 503 508
f 508 512 510
f 515 516 517
f 515 517 518
f 519 520 521
f 519 521 522
f 523 524 525
f 526 523 525
f 527 528 524
f 523 527 524
f 529 530 528
f 527 529 528
f 517 516 530
f 529 517 530
f 531 532 521
f 520 531 521
f 533 534 532
f 531 533 532
f 535 536 534
f 533 535 534
f 526 525 536
f 535 526 536
f 517 526 537
f 518 517 537
f 526 520 519
f 537 526 519
f 517 529 523
f 526 517 523
f 523 529 527
f 526 535 531
f 520 526 531
f 531 535 533
f 538 539 540
f 538 540 541
f 542 543 544
f 542 544 545
f 546 547 548
f 549 546 548
f 550 551 547
f 546 550 547
f 552 553 551
f 550 552 551
f 540 539 553
f 552 540 553
f 554 555 544
f 543 554 544
f 556 557 555
f 554 556 555
f 558 559 557
f 556 558 557
f 549 548 559
f 558 549 559
f 540 549 560
f 541 540 560
f 549 543 542
f 560 549 542
f 540 552 546
f 549 540 546
f 546 552 550
f 549 558 554
f 543 549 554
f 554 558 556
f 561 562 563
f 561 563 564
f 565 566 567
f 565 567 568
f 569 570 571
f 572 569 571
f 573 574 570
f 569 573 570
f 575 576 574
f 573 575 574
f 563 562 576
f 575 563 576
f 577 578 567
f 566 577 567
f 579 580 578
f 577 579 578
f 581 582 580
f 579 581 580
f 572 571 582
f 581 572 582
f 563 572 583
f 564 563 583
f 572 566 565
f 583 572 565
f 563 575 569
f 572 563 569
f 569 575 573
f 572 581 577
f 566 572 577
f 577 581 579
