# Botball Lab: metres, +Y up, centred XZ, base Y=0
s off
v 0.0094782 0.0000000 -0.0006123
v 0.0096000 0.0000000 -0.0000000
v 0.0080000 0.0000000 -0.0000000
v 0.0091314 0.0000000 -0.0011314
v 0.0086123 0.0000000 -0.0014782
v 0.0080000 0.0000000 -0.0016000
v 0.0073877 0.0000000 -0.0014782
v 0.0068686 0.0000000 -0.0011314
v 0.0065218 0.0000000 -0.0006123
v 0.0064000 0.0000000 -0.0000000
v 0.0065218 0.0000000 0.0006123
v 0.0068686 0.0000000 0.0011314
v 0.0073877 0.0000000 0.0014782
v 0.0080000 0.0000000 0.0016000
v 0.0086123 0.0000000 0.0014782
v 0.0091314 0.0000000 0.0011314
v 0.0094782 0.0000000 0.0006123
v 0.0094782 0.0024000 -0.0006123
v 0.0096000 0.0024000 -0.0000000
v 0.0091314 0.0024000 -0.0011314
v 0.0086123 0.0024000 -0.0014782
v 0.0080000 0.0024000 -0.0016000
v 0.0073877 0.0024000 -0.0014782
v 0.0068686 0.0024000 -0.0011314
v 0.0065218 0.0024000 -0.0006123
v 0.0064000 0.0024000 -0.0000000
v 0.0065218 0.0024000 0.0006123
v 0.0068686 0.0024000 0.0011314
v 0.0073877 0.0024000 0.0014782
v 0.0080000 0.0024000 0.0016000
v 0.0086123 0.0024000 0.0014782
v 0.0091314 0.0024000 0.0011314
v 0.0094782 0.0024000 0.0006123
v 0.0014782 0.0000000 -0.0006123
v 0.0016000 0.0000000 -0.0000000
v 0.0000000 0.0000000 -0.0000000
v 0.0011314 0.0000000 -0.0011314
v 0.0006123 0.0000000 -0.0014782
v 0.0000000 0.0000000 -0.0016000
v -0.0006123 0.0000000 -0.0014782
v -0.0011314 0.0000000 -0.0011314
v -0.0014782 0.0000000 -0.0006123
v -0.0016000 0.0000000 -0.0000000
v -0.0014782 0.0000000 0.0006123
v -0.0011314 0.0000000 0.0011314
v -0.0006123 0.0000000 0.0014782
v 0.0000000 0.0000000 0.0016000
v 0.0006123 0.0000000 0.0014782
v 0.0011314 0.0000000 0.0011314
v 0.0014782 0.0000000 0.0006123
v 0.0014782 0.0024000 -0.0006123
v 0.0016000 0.0024000 -0.0000000
v 0.0011314 0.0024000 -0.0011314
v 0.0006123 0.0024000 -0.0014782
v 0.0000000 0.0024000 -0.0016000
v -0.0006123 0.0024000 -0.0014782
v -0.0011314 0.0024000 -0.0011314
v -0.0014782 0.0024000 -0.0006123
v -0.0016000 0.0024000 -0.0000000
v -0.0014782 0.0024000 0.0006123
v -0.0011314 0.0024000 0.0011314
v -0.0006123 0.0024000 0.0014782
v 0.0000000 0.0024000 0.0016000
v 0.0006123 0.0024000 0.0014782
v 0.0011314 0.0024000 0.0011314
v 0.0014782 0.0024000 0.0006123
v -0.0065218 0.0000000 -0.0006123
v -0.0064000 0.0000000 -0.0000000
v -0.0080000 0.0000000 -0.0000000
v -0.0068686 0.0000000 -0.0011314
v -0.0073877 0.0000000 -0.0014782
v -0.0080000 0.0000000 -0.0016000
v -0.0086123 0.0000000 -0.0014782
v -0.0091314 0.0000000 -0.0011314
v -0.0094782 0.0000000 -0.0006123
v -0.0096000 0.0000000 -0.0000000
v -0.0094782 0.0000000 0.0006123
v -0.0091314 0.0000000 0.0011314
v -0.0086123 0.0000000 0.0014782
v -0.0080000 0.0000000 0.0016000
v -0.0073877 0.0000000 0.0014782
v -0.0068686 0.0000000 0.0011314
v -0.0065218 0.0000000 0.0006123
v -0.0065218 0.0024000 -0.0006123
v -0.0064000 0.0024000 -0.0000000
v -0.0068686 0.0024000 -0.0011314
v -0.0073877 0.0024000 -0.0014782
v -0.0080000 0.0024000 -0.0016000
v -0.0086123 0.0024000 -0.0014782
v -0.0091314 0.0024000 -0.0011314
v -0.0094782 0.0024000 -0.0006123
v -0.0096000 0.0024000 -0.0000000
v -0.0094782 0.0024000 0.0006123
v -0.0091314 0.0024000 0.0011314
v -0.0086123 0.0024000 0.0014782
v -0.0080000 0.0024000 0.0016000
v -0.0073877 0.0024000 0.0014782
v -0.0068686 0.0024000 0.0011314
v -0.0065218 0.0024000 0.0006123
v -0.0065218 0.0028130 -0.0006123
v -0.0064000 0.0028944 -0.0000000
v -0.0067754 0.0026435 -0.0009918
v -0.0068686 0.0026250 -0.0011314
v -0.0073877 0.0025218 -0.0014782
v -0.0086123 0.0025218 -0.0014782
v -0.0091314 0.0026250 -0.0011314
v -0.0092246 0.0026435 -0.0009918
v -0.0094782 0.0028130 -0.0006123
v -0.0096000 0.0028944 -0.0000000
v -0.0094782 0.0028130 0.0006123
v -0.0092246 0.0026435 0.0009918
v -0.0091314 0.0026250 0.0011314
v -0.0086123 0.0025218 0.0014782
v -0.0073877 0.0025218 0.0014782
v -0.0068686 0.0026250 0.0011314
v -0.0067754 0.0026435 0.0009918
v -0.0065218 0.0028130 0.0006123
v 0.0014782 0.0028130 -0.0006123
v 0.0016000 0.0028944 -0.0000000
v 0.0012246 0.0026435 -0.0009918
v 0.0011314 0.0026250 -0.0011314
v 0.0006123 0.0025218 -0.0014782
v -0.0006123 0.0025218 -0.0014782
v -0.0011314 0.0026250 -0.0011314
v -0.0012246 0.0026435 -0.0009918
v -0.0014782 0.0028130 -0.0006123
v -0.0016000 0.0028944 -0.0000000
v -0.0014782 0.0028130 0.0006123
v -0.0012246 0.0026435 0.0009918
v -0.0011314 0.0026250 0.0011314
v -0.0006123 0.0025218 0.0014782
v 0.0006123 0.0025218 0.0014782
v 0.0011314 0.0026250 0.0011314
v 0.0012246 0.0026435 0.0009918
v 0.0014782 0.0028130 0.0006123
v 0.0094782 0.0028130 -0.0006123
v 0.0096000 0.0028944 -0.0000000
v 0.0092246 0.0026435 -0.0009918
v 0.0091314 0.0026250 -0.0011314
v 0.0086123 0.0025218 -0.0014782
v 0.0073877 0.0025218 -0.0014782
v 0.0068686 0.0026250 -0.0011314
v 0.0067754 0.0026435 -0.0009918
v 0.0065218 0.0028130 -0.0006123
v 0.0064000 0.0028944 -0.0000000
v 0.0065218 0.0028130 0.0006123
v 0.0067754 0.0026435 0.0009918
v 0.0068686 0.0026250 0.0011314
v 0.0073877 0.0025218 0.0014782
v 0.0086123 0.0025218 0.0014782
v 0.0091314 0.0026250 0.0011314
v 0.0092246 0.0026435 0.0009918
v 0.0094782 0.0028130 0.0006123
v 0.0067754 0.0026435 -0.0032000
v 0.0070815 0.0033826 -0.0032000
v 0.0080000 0.0032000 -0.0032000
v 0.0080000 0.0024000 -0.0032000
v 0.0057373 0.0033373 -0.0032000
v 0.0063030 0.0039030 -0.0032000
v 0.0050435 0.0043754 -0.0032000
v 0.0057826 0.0046815 -0.0032000
v 0.0048000 0.0056000 -0.0032000
v 0.0056000 0.0056000 -0.0032000
v 0.0050435 0.0068246 -0.0032000
v 0.0057826 0.0065185 -0.0032000
v 0.0057373 0.0078627 -0.0032000
v 0.0063030 0.0072970 -0.0032000
v 0.0067754 0.0085565 -0.0032000
v 0.0070815 0.0078174 -0.0032000
v 0.0080000 0.0088000 -0.0032000
v 0.0080000 0.0080000 -0.0032000
v 0.0092246 0.0085565 -0.0032000
v 0.0089185 0.0078174 -0.0032000
v 0.0102627 0.0078627 -0.0032000
v 0.0096970 0.0072970 -0.0032000
v 0.0109565 0.0068246 -0.0032000
v 0.0102174 0.0065185 -0.0032000
v 0.0112000 0.0056000 -0.0032000
v 0.0104000 0.0056000 -0.0032000
v 0.0109565 0.0043754 -0.0032000
v 0.0102174 0.0046815 -0.0032000
v 0.0102627 0.0033373 -0.0032000
v 0.0096970 0.0039030 -0.0032000
v 0.0092246 0.0026435 -0.0032000
v 0.0089185 0.0033826 -0.0032000
v 0.0109565 0.0043754 -0.0040000
v 0.0112000 0.0056000 -0.0040000
v 0.0102627 0.0033373 -0.0040000
v 0.0092246 0.0026435 -0.0040000
v 0.0080000 0.0024000 -0.0040000
v 0.0067754 0.0026435 -0.0040000
v 0.0057373 0.0033373 -0.0040000
v 0.0050435 0.0043754 -0.0040000
v 0.0048000 0.0056000 -0.0040000
v 0.0050435 0.0068246 -0.0040000
v 0.0057373 0.0078627 -0.0040000
v 0.0067754 0.0085565 -0.0040000
v 0.0080000 0.0088000 -0.0040000
v 0.0092246 0.0085565 -0.0040000
v 0.0102627 0.0078627 -0.0040000
v 0.0109565 0.0068246 -0.0040000
v 0.0080000 0.0032000 0.0032000
v 0.0070815 0.0033826 0.0032000
v 0.0067754 0.0026435 0.0032000
v 0.0080000 0.0024000 0.0032000
v 0.0063030 0.0039030 0.0032000
v 0.0057373 0.0033373 0.0032000
v 0.0057826 0.0046815 0.0032000
v 0.0050435 0.0043754 0.0032000
v 0.0056000 0.0056000 0.0032000
v 0.0048000 0.0056000 0.0032000
v 0.0057826 0.0065185 0.0032000
v 0.0050435 0.0068246 0.0032000
v 0.0063030 0.0072970 0.0032000
v 0.0057373 0.0078627 0.0032000
v 0.0070815 0.0078174 0.0032000
v 0.0067754 0.0085565 0.0032000
v 0.0080000 0.0080000 0.0032000
v 0.0080000 0.0088000 0.0032000
v 0.0089185 0.0078174 0.0032000
v 0.0092246 0.0085565 0.0032000
v 0.0096970 0.0072970 0.0032000
v 0.0102627 0.0078627 0.0032000
v 0.0102174 0.0065185 0.0032000
v 0.0109565 0.0068246 0.0032000
v 0.0104000 0.0056000 0.0032000
v 0.0112000 0.0056000 0.0032000
v 0.0102174 0.0046815 0.0032000
v 0.0109565 0.0043754 0.0032000
v 0.0096970 0.0039030 0.0032000
v 0.0102627 0.0033373 0.0032000
v 0.0089185 0.0033826 0.0032000
v 0.0092246 0.0026435 0.0032000
v 0.0109565 0.0043754 0.0040000
v 0.0112000 0.0056000 0.0040000
v 0.0102627 0.0033373 0.0040000
v 0.0092246 0.0026435 0.0040000
v 0.0080000 0.0024000 0.0040000
v 0.0067754 0.0026435 0.0040000
v 0.0057373 0.0033373 0.0040000
v 0.0050435 0.0043754 0.0040000
v 0.0048000 0.0056000 0.0040000
v 0.0050435 0.0068246 0.0040000
v 0.0057373 0.0078627 0.0040000
v 0.0067754 0.0085565 0.0040000
v 0.0080000 0.0088000 0.0040000
v 0.0092246 0.0085565 0.0040000
v 0.0102627 0.0078627 0.0040000
v 0.0109565 0.0068246 0.0040000
v -0.0012246 0.0026435 -0.0032000
v -0.0009185 0.0033826 -0.0032000
v 0.0000000 0.0032000 -0.0032000
v 0.0000000 0.0024000 -0.0032000
v -0.0022627 0.0033373 -0.0032000
v -0.0016970 0.0039030 -0.0032000
v -0.0029565 0.0043754 -0.0032000
v -0.0022174 0.0046815 -0.0032000
v -0.0032000 0.0056000 -0.0032000
v -0.0024000 0.0056000 -0.0032000
v -0.0029565 0.0068246 -0.0032000
v -0.0022174 0.0065185 -0.0032000
v -0.0022627 0.0078627 -0.0032000
v -0.0016970 0.0072970 -0.0032000
v -0.0012246 0.0085565 -0.0032000
v -0.0009185 0.0078174 -0.0032000
v 0.0000000 0.0088000 -0.0032000
v 0.0000000 0.0080000 -0.0032000
v 0.0012246 0.0085565 -0.0032000
v 0.0009185 0.0078174 -0.0032000
v 0.0022627 0.0078627 -0.0032000
v 0.0016970 0.0072970 -0.0032000
v 0.0029565 0.0068246 -0.0032000
v 0.0022174 0.0065185 -0.0032000
v 0.0032000 0.0056000 -0.0032000
v 0.0024000 0.0056000 -0.0032000
v 0.0029565 0.0043754 -0.0032000
v 0.0022174 0.0046815 -0.0032000
v 0.0022627 0.0033373 -0.0032000
v 0.0016970 0.0039030 -0.0032000
v 0.0012246 0.0026435 -0.0032000
v 0.0009185 0.0033826 -0.0032000
v 0.0029565 0.0043754 -0.0040000
v 0.0032000 0.0056000 -0.0040000
v 0.0022627 0.0033373 -0.0040000
v 0.0012246 0.0026435 -0.0040000
v 0.0000000 0.0024000 -0.0040000
v -0.0012246 0.0026435 -0.0040000
v -0.0022627 0.0033373 -0.0040000
v -0.0029565 0.0043754 -0.0040000
v -0.0032000 0.0056000 -0.0040000
v -0.0029565 0.0068246 -0.0040000
v -0.0022627 0.0078627 -0.0040000
v -0.0012246 0.0085565 -0.0040000
v 0.0000000 0.0088000 -0.0040000
v 0.0012246 0.0085565 -0.0040000
v 0.0022627 0.0078627 -0.0040000
v 0.0029565 0.0068246 -0.0040000
v 0.0000000 0.0032000 0.0032000
v -0.0009185 0.0033826 0.0032000
v -0.0012246 0.0026435 0.0032000
v 0.0000000 0.0024000 0.0032000
v -0.0016970 0.0039030 0.0032000
v -0.0022627 0.0033373 0.0032000
v -0.0022174 0.0046815 0.0032000
v -0.0029565 0.0043754 0.0032000
v -0.0024000 0.0056000 0.0032000
v -0.0032000 0.0056000 0.0032000
v -0.0022174 0.0065185 0.0032000
v -0.0029565 0.0068246 0.0032000
v -0.0016970 0.0072970 0.0032000
v -0.0022627 0.0078627 0.0032000
v -0.0009185 0.0078174 0.0032000
v -0.0012246 0.0085565 0.0032000
v 0.0000000 0.0080000 0.0032000
v 0.0000000 0.0088000 0.0032000
v 0.0009185 0.0078174 0.0032000
v 0.0012246 0.0085565 0.0032000
v 0.0016970 0.0072970 0.0032000
v 0.0022627 0.0078627 0.0032000
v 0.0022174 0.0065185 0.0032000
v 0.0029565 0.0068246 0.0032000
v 0.0024000 0.0056000 0.0032000
v 0.0032000 0.0056000 0.0032000
v 0.0022174 0.0046815 0.0032000
v 0.0029565 0.0043754 0.0032000
v 0.0016970 0.0039030 0.0032000
v 0.0022627 0.0033373 0.0032000
v 0.0009185 0.0033826 0.0032000
v 0.0012246 0.0026435 0.0032000
v 0.0029565 0.0043754 0.0040000
v 0.0032000 0.0056000 0.0040000
v 0.0022627 0.0033373 0.0040000
v 0.0012246 0.0026435 0.0040000
v 0.0000000 0.0024000 0.0040000
v -0.0012246 0.0026435 0.0040000
v -0.0022627 0.0033373 0.0040000
v -0.0029565 0.0043754 0.0040000
v -0.0032000 0.0056000 0.0040000
v -0.0029565 0.0068246 0.0040000
v -0.0022627 0.0078627 0.0040000
v -0.0012246 0.0085565 0.0040000
v 0.0000000 0.0088000 0.0040000
v 0.0012246 0.0085565 0.0040000
v 0.0022627 0.0078627 0.0040000
v 0.0029565 0.0068246 0.0040000
v -0.0092246 0.0026435 -0.0032000
v -0.0089185 0.0033826 -0.0032000
v -0.0080000 0.0032000 -0.0032000
v -0.0080000 0.0024000 -0.0032000
v -0.0102627 0.0033373 -0.0032000
v -0.0096970 0.0039030 -0.0032000
v -0.0109565 0.0043754 -0.0032000
v -0.0102174 0.0046815 -0.0032000
v -0.0112000 0.0056000 -0.0032000
v -0.0104000 0.0056000 -0.0032000
v -0.0109565 0.0068246 -0.0032000
v -0.0102174 0.0065185 -0.0032000
v -0.0102627 0.0078627 -0.0032000
v -0.0096970 0.0072970 -0.0032000
v -0.0092246 0.0085565 -0.0032000
v -0.0089185 0.0078174 -0.0032000
v -0.0080000 0.0088000 -0.0032000
v -0.0080000 0.0080000 -0.0032000
v -0.0067754 0.0085565 -0.0032000
v -0.0070815 0.0078174 -0.0032000
v -0.0057373 0.0078627 -0.0032000
v -0.0063030 0.0072970 -0.0032000
v -0.0050435 0.0068246 -0.0032000
v -0.0057826 0.0065185 -0.0032000
v -0.0048000 0.0056000 -0.0032000
v -0.0056000 0.0056000 -0.0032000
v -0.0050435 0.0043754 -0.0032000
v -0.0057826 0.0046815 -0.0032000
v -0.0057373 0.0033373 -0.0032000
v -0.0063030 0.0039030 -0.0032000
v -0.0067754 0.0026435 -0.0032000
v -0.0070815 0.0033826 -0.0032000
v -0.0050435 0.0043754 -0.0040000
v -0.0048000 0.0056000 -0.0040000
v -0.0057373 0.0033373 -0.0040000
v -0.0067754 0.0026435 -0.0040000
v -0.0080000 0.0024000 -0.0040000
v -0.0092246 0.0026435 -0.0040000
v -0.0102627 0.0033373 -0.0040000
v -0.0109565 0.0043754 -0.0040000
v -0.0112000 0.0056000 -0.0040000
v -0.0109565 0.0068246 -0.0040000
v -0.0102627 0.0078627 -0.0040000
v -0.0092246 0.0085565 -0.0040000
v -0.0080000 0.0088000 -0.0040000
v -0.0067754 0.0085565 -0.0040000
v -0.0057373 0.0078627 -0.0040000
v -0.0050435 0.0068246 -0.0040000
v -0.0080000 0.0032000 0.0032000
v -0.0089185 0.0033826 0.0032000
v -0.0092246 0.0026435 0.0032000
v -0.0080000 0.0024000 0.0032000
v -0.0096970 0.0039030 0.0032000
v -0.0102627 0.0033373 0.0032000
v -0.0102174 0.0046815 0.0032000
v -0.0109565 0.0043754 0.0032000
v -0.0104000 0.0056000 0.0032000
v -0.0112000 0.0056000 0.0032000
v -0.0102174 0.0065185 0.0032000
v -0.0109565 0.0068246 0.0032000
v -0.0096970 0.0072970 0.0032000
v -0.0102627 0.0078627 0.0032000
v -0.0089185 0.0078174 0.0032000
v -0.0092246 0.0085565 0.0032000
v -0.0080000 0.0080000 0.0032000
v -0.0080000 0.0088000 0.0032000
v -0.0070815 0.0078174 0.0032000
v -0.0067754 0.0085565 0.0032000
v -0.0063030 0.0072970 0.0032000
v -0.0057373 0.0078627 0.0032000
v -0.0057826 0.0065185 0.0032000
v -0.0050435 0.0068246 0.0032000
v -0.0056000 0.0056000 0.0032000
v -0.0048000 0.0056000 0.0032000
v -0.0057826 0.0046815 0.0032000
v -0.0050435 0.0043754 0.0032000
v -0.0063030 0.0039030 0.0032000
v -0.0057373 0.0033373 0.0032000
v -0.0070815 0.0033826 0.0032000
v -0.0067754 0.0026435 0.0032000
v -0.0050435 0.0043754 0.0040000
v -0.0048000 0.0056000 0.0040000
v -0.0057373 0.0033373 0.0040000
v -0.0067754 0.0026435 0.0040000
v -0.0080000 0.0024000 0.0040000
v -0.0092246 0.0026435 0.0040000
v -0.0102627 0.0033373 0.0040000
v -0.0109565 0.0043754 0.0040000
v -0.0112000 0.0056000 0.0040000
v -0.0109565 0.0068246 0.0040000
v -0.0102627 0.0078627 0.0040000
v -0.0092246 0.0085565 0.0040000
v -0.0080000 0.0088000 0.0040000
v -0.0067754 0.0085565 0.0040000
v -0.0057373 0.0078627 0.0040000
v -0.0050435 0.0068246 0.0040000
v 0.0048000 0.0080000 -0.0024000
v 0.0048000 0.0080000 0.0024000
v 0.0032000 0.0080000 0.0024000
v 0.0032000 0.0080000 -0.0024000
v 0.0032000 0.0056000 0.0024000
v 0.0032000 0.0056000 -0.0024000
v 0.0048000 0.0056000 -0.0024000
v 0.0048000 0.0056000 0.0024000
v -0.0032000 0.0080000 -0.0024000
v -0.0032000 0.0080000 0.0024000
v -0.0048000 0.0080000 0.0024000
v -0.0048000 0.0080000 -0.0024000
v -0.0048000 0.0056000 0.0024000
v -0.0048000 0.0056000 -0.0024000
v -0.0032000 0.0056000 -0.0024000
v -0.0032000 0.0056000 0.0024000
v 0.0144000 0.0080000 0.0024000
v 0.0112000 0.0080000 0.0024000
v 0.0112000 0.0080000 -0.0024000
v 0.0144000 0.0080000 -0.0024000
v 0.0144000 0.0000000 -0.0024000
v 0.0144000 0.0000000 0.0024000
v -0.0144000 0.0080000 -0.0024000
v -0.0112000 0.0080000 -0.0024000
v -0.0112000 0.0080000 0.0024000
v -0.0144000 0.0080000 0.0024000
v -0.0144000 0.0000000 0.0024000
v -0.0144000 0.0000000 -0.0024000
v 0.0109565 0.0043754 0.0024000
v 0.0109565 0.0043754 -0.0024000
v 0.0112000 0.0056000 -0.0024000
v 0.0112000 0.0056000 0.0024000
v 0.0102627 0.0033373 0.0024000
v 0.0102627 0.0033373 -0.0024000
v 0.0092246 0.0026435 0.0024000
v 0.0092246 0.0026435 -0.0024000
v 0.0080000 0.0024000 0.0024000
v 0.0080000 0.0024000 -0.0024000
v 0.0067754 0.0026435 0.0024000
v 0.0067754 0.0026435 -0.0024000
v 0.0057373 0.0033373 0.0024000
v 0.0057373 0.0033373 -0.0024000
v 0.0050435 0.0043754 0.0024000
v 0.0050435 0.0043754 -0.0024000
v 0.0029565 0.0043754 0.0024000
v 0.0029565 0.0043754 -0.0024000
v 0.0022627 0.0033373 0.0024000
v 0.0022627 0.0033373 -0.0024000
v 0.0012246 0.0026435 0.0024000
v 0.0012246 0.0026435 -0.0024000
v 0.0000000 0.0024000 0.0024000
v 0.0000000 0.0024000 -0.0024000
v -0.0012246 0.0026435 0.0024000
v -0.0012246 0.0026435 -0.0024000
v -0.0022627 0.0033373 0.0024000
v -0.0022627 0.0033373 -0.0024000
v -0.0029565 0.0043754 0.0024000
v -0.0029565 0.0043754 -0.0024000
v -0.0050435 0.0043754 0.0024000
v -0.0050435 0.0043754 -0.0024000
v -0.0057373 0.0033373 0.0024000
v -0.0057373 0.0033373 -0.0024000
v -0.0067754 0.0026435 0.0024000
v -0.0067754 0.0026435 -0.0024000
v -0.0080000 0.0024000 0.0024000
v -0.0080000 0.0024000 -0.0024000
v -0.0092246 0.0026435 0.0024000
v -0.0092246 0.0026435 -0.0024000
v -0.0102627 0.0033373 0.0024000
v -0.0102627 0.0033373 -0.0024000
v -0.0109565 0.0043754 0.0024000
v -0.0109565 0.0043754 -0.0024000
v -0.0112000 0.0056000 0.0024000
v -0.0112000 0.0056000 -0.0024000
v 0.0112000 0.0024000 -0.0024000
v 0.0048000 0.0024000 -0.0024000
v 0.0112000 0.0024000 0.0024000
v 0.0048000 0.0024000 0.0024000
v 0.0032000 0.0024000 -0.0024000
v -0.0032000 0.0024000 -0.0024000
v 0.0032000 0.0024000 0.0024000
v -0.0032000 0.0024000 0.0024000
v -0.0048000 0.0024000 -0.0024000
v -0.0112000 0.0024000 -0.0024000
v -0.0048000 0.0024000 0.0024000
v -0.0112000 0.0024000 0.0024000
v 0.0160000 0.0000000 -0.0040000
v -0.0160000 0.0000000 -0.0040000
v 0.0160000 0.0000000 0.0040000
v -0.0160000 0.0000000 0.0040000
v 0.0160000 0.0096000 -0.0040000
v -0.0160000 0.0096000 -0.0040000
v -0.0160000 0.0096000 0.0040000
v 0.0160000 0.0096000 0.0040000
v 0.0112000 0.0024000 -0.0040000
v 0.0048000 0.0024000 -0.0040000
v 0.0048000 0.0088000 -0.0040000
v 0.0112000 0.0088000 -0.0040000
v 0.0112000 0.0024000 0.0040000
v 0.0048000 0.0024000 0.0040000
v 0.0048000 0.0088000 0.0040000
v 0.0112000 0.0088000 0.0040000
v 0.0032000 0.0024000 -0.0040000
v -0.0032000 0.0024000 -0.0040000
v -0.0032000 0.0088000 -0.0040000
v 0.0032000 0.0088000 -0.0040000
v 0.0032000 0.0024000 0.0040000
v -0.0032000 0.0024000 0.0040000
v -0.0032000 0.0088000 0.0040000
v 0.0032000 0.0088000 0.0040000
v -0.0048000 0.0024000 -0.0040000
v -0.0112000 0.0024000 -0.0040000
v -0.0112000 0.0088000 -0.0040000
v -0.0048000 0.0088000 -0.0040000
v -0.0048000 0.0024000 0.0040000
v -0.0112000 0.0024000 0.0040000
v -0.0112000 0.0088000 0.0040000
v -0.0048000 0.0088000 0.0040000
v 0.0134782 0.0112000 -0.0006123
v 0.0134782 0.0096000 -0.0006123
v 0.0136000 0.0096000 -0.0000000
v 0.0136000 0.0112000 -0.0000000
v 0.0131314 0.0112000 -0.0011314
v 0.0131314 0.0096000 -0.0011314
v 0.0126123 0.0112000 -0.0014782
v 0.0126123 0.0096000 -0.0014782
v 0.0120000 0.0112000 -0.0016000
v 0.0120000 0.0096000 -0.0016000
v 0.0113877 0.0112000 -0.0014782
v 0.0113877 0.0096000 -0.0014782
v 0.0108686 0.0112000 -0.0011314
v 0.0108686 0.0096000 -0.0011314
v 0.0105218 0.0112000 -0.0006123
v 0.0105218 0.0096000 -0.0006123
v 0.0104000 0.0112000 -0.0000000
v 0.0104000 0.0096000 -0.0000000
v 0.0105218 0.0112000 0.0006123
v 0.0105218 0.0096000 0.0006123
v 0.0108686 0.0112000 0.0011314
v 0.0108686 0.0096000 0.0011314
v 0.0113877 0.0112000 0.0014782
v 0.0113877 0.0096000 0.0014782
v 0.0120000 0.0112000 0.0016000
v 0.0120000 0.0096000 0.0016000
v 0.0126123 0.0112000 0.0014782
v 0.0126123 0.0096000 0.0014782
v 0.0131314 0.0112000 0.0011314
v 0.0131314 0.0096000 0.0011314
v 0.0134782 0.0112000 0.0006123
v 0.0134782 0.0096000 0.0006123
v 0.0144000 0.0096000 -0.0000000
v 0.0142174 0.0096000 -0.0009185
v 0.0142174 0.0112000 -0.0009185
v 0.0144000 0.0112000 -0.0000000
v 0.0136970 0.0096000 -0.0016970
v 0.0136970 0.0112000 -0.0016970
v 0.0129185 0.0096000 -0.0022174
v 0.0129185 0.0112000 -0.0022174
v 0.0120000 0.0096000 -0.0024000
v 0.0120000 0.0112000 -0.0024000
v 0.0110815 0.0096000 -0.0022174
v 0.0110815 0.0112000 -0.0022174
v 0.0103030 0.0096000 -0.0016970
v 0.0103030 0.0112000 -0.0016970
v 0.0097826 0.0096000 -0.0009185
v 0.0097826 0.0112000 -0.0009185
v 0.0096000 0.0096000 -0.0000000
v 0.0096000 0.0112000 -0.0000000
v 0.0097826 0.0096000 0.0009185
v 0.0097826 0.0112000 0.0009185
v 0.0103030 0.0096000 0.0016970
v 0.0103030 0.0112000 0.0016970
v 0.0110815 0.0096000 0.0022174
v 0.0110815 0.0112000 0.0022174
v 0.0120000 0.0096000 0.0024000
v 0.0120000 0.0112000 0.0024000
v 0.0129185 0.0096000 0.0022174
v 0.0129185 0.0112000 0.0022174
v 0.0136970 0.0096000 0.0016970
v 0.0136970 0.0112000 0.0016970
v 0.0142174 0.0096000 0.0009185
v 0.0142174 0.0112000 0.0009185
v 0.0054782 0.0112000 -0.0006123
v 0.0054782 0.0096000 -0.0006123
v 0.0056000 0.0096000 -0.0000000
v 0.0056000 0.0112000 -0.0000000
v 0.0051314 0.0112000 -0.0011314
v 0.0051314 0.0096000 -0.0011314
v 0.0046123 0.0112000 -0.0014782
v 0.0046123 0.0096000 -0.0014782
v 0.0040000 0.0112000 -0.0016000
v 0.0040000 0.0096000 -0.0016000
v 0.0033877 0.0112000 -0.0014782
v 0.0033877 0.0096000 -0.0014782
v 0.0028686 0.0112000 -0.0011314
v 0.0028686 0.0096000 -0.0011314
v 0.0025218 0.0112000 -0.0006123
v 0.0025218 0.0096000 -0.0006123
v 0.0024000 0.0112000 -0.0000000
v 0.0024000 0.0096000 -0.0000000
v 0.0025218 0.0112000 0.0006123
v 0.0025218 0.0096000 0.0006123
v 0.0028686 0.0112000 0.0011314
v 0.0028686 0.0096000 0.0011314
v 0.0033877 0.0112000 0.0014782
v 0.0033877 0.0096000 0.0014782
v 0.0040000 0.0112000 0.0016000
v 0.0040000 0.0096000 0.0016000
v 0.0046123 0.0112000 0.0014782
v 0.0046123 0.0096000 0.0014782
v 0.0051314 0.0112000 0.0011314
v 0.0051314 0.0096000 0.0011314
v 0.0054782 0.0112000 0.0006123
v 0.0054782 0.0096000 0.0006123
v 0.0064000 0.0096000 -0.0000000
v 0.0062174 0.0096000 -0.0009185
v 0.0062174 0.0112000 -0.0009185
v 0.0064000 0.0112000 -0.0000000
v 0.0056970 0.0096000 -0.0016970
v 0.0056970 0.0112000 -0.0016970
v 0.0049185 0.0096000 -0.0022174
v 0.0049185 0.0112000 -0.0022174
v 0.0040000 0.0096000 -0.0024000
v 0.0040000 0.0112000 -0.0024000
v 0.0030815 0.0096000 -0.0022174
v 0.0030815 0.0112000 -0.0022174
v 0.0023030 0.0096000 -0.0016970
v 0.0023030 0.0112000 -0.0016970
v 0.0017826 0.0096000 -0.0009185
v 0.0017826 0.0112000 -0.0009185
v 0.0016000 0.0096000 -0.0000000
v 0.0016000 0.0112000 -0.0000000
v 0.0017826 0.0096000 0.0009185
v 0.0017826 0.0112000 0.0009185
v 0.0023030 0.0096000 0.0016970
v 0.0023030 0.0112000 0.0016970
v 0.0030815 0.0096000 0.0022174
v 0.0030815 0.0112000 0.0022174
v 0.0040000 0.0096000 0.0024000
v 0.0040000 0.0112000 0.0024000
v 0.0049185 0.0096000 0.0022174
v 0.0049185 0.0112000 0.0022174
v 0.0056970 0.0096000 0.0016970
v 0.0056970 0.0112000 0.0016970
v 0.0062174 0.0096000 0.0009185
v 0.0062174 0.0112000 0.0009185
v -0.0025218 0.0112000 -0.0006123
v -0.0025218 0.0096000 -0.0006123
v -0.0024000 0.0096000 -0.0000000
v -0.0024000 0.0112000 -0.0000000
v -0.0028686 0.0112000 -0.0011314
v -0.0028686 0.0096000 -0.0011314
v -0.0033877 0.0112000 -0.0014782
v -0.0033877 0.0096000 -0.0014782
v -0.0040000 0.0112000 -0.0016000
v -0.0040000 0.0096000 -0.0016000
v -0.0046123 0.0112000 -0.0014782
v -0.0046123 0.0096000 -0.0014782
v -0.0051314 0.0112000 -0.0011314
v -0.0051314 0.0096000 -0.0011314
v -0.0054782 0.0112000 -0.0006123
v -0.0054782 0.0096000 -0.0006123
v -0.0056000 0.0112000 -0.0000000
v -0.0056000 0.0096000 -0.0000000
v -0.0054782 0.0112000 0.0006123
v -0.0054782 0.0096000 0.0006123
v -0.0051314 0.0112000 0.0011314
v -0.0051314 0.0096000 0.0011314
v -0.0046123 0.0112000 0.0014782
v -0.0046123 0.0096000 0.0014782
v -0.0040000 0.0112000 0.0016000
v -0.0040000 0.0096000 0.0016000
v -0.0033877 0.0112000 0.0014782
v -0.0033877 0.0096000 0.0014782
v -0.0028686 0.0112000 0.0011314
v -0.0028686 0.0096000 0.0011314
v -0.0025218 0.0112000 0.0006123
v -0.0025218 0.0096000 0.0006123
v -0.0016000 0.0096000 -0.0000000
v -0.0017826 0.0096000 -0.0009185
v -0.0017826 0.0112000 -0.0009185
v -0.0016000 0.0112000 -0.0000000
v -0.0023030 0.0096000 -0.0016970
v -0.0023030 0.0112000 -0.0016970
v -0.0030815 0.0096000 -0.0022174
v -0.0030815 0.0112000 -0.0022174
v -0.0040000 0.0096000 -0.0024000
v -0.0040000 0.0112000 -0.0024000
v -0.0049185 0.0096000 -0.0022174
v -0.0049185 0.0112000 -0.0022174
v -0.0056970 0.0096000 -0.0016970
v -0.0056970 0.0112000 -0.0016970
v -0.0062174 0.0096000 -0.0009185
v -0.0062174 0.0112000 -0.0009185
v -0.0064000 0.0096000 -0.0000000
v -0.0064000 0.0112000 -0.0000000
v -0.0062174 0.0096000 0.0009185
v -0.0062174 0.0112000 0.0009185
v -0.0056970 0.0096000 0.0016970
v -0.0056970 0.0112000 0.0016970
v -0.0049185 0.0096000 0.0022174
v -0.0049185 0.0112000 0.0022174
v -0.0040000 0.0096000 0.0024000
v -0.0040000 0.0112000 0.0024000
v -0.0030815 0.0096000 0.0022174
v -0.0030815 0.0112000 0.0022174
v -0.0023030 0.0096000 0.0016970
v -0.0023030 0.0112000 0.0016970
v -0.0017826 0.0096000 0.0009185
v -0.0017826 0.0112000 0.0009185
v -0.0105218 0.0112000 -0.0006123
v -0.0105218 0.0096000 -0.0006123
v -0.0104000 0.0096000 -0.0000000
v -0.0104000 0.0112000 -0.0000000
v -0.0108686 0.0112000 -0.0011314
v -0.0108686 0.0096000 -0.0011314
v -0.0113877 0.0112000 -0.0014782
v -0.0113877 0.0096000 -0.0014782
v -0.0120000 0.0112000 -0.0016000
v -0.0120000 0.0096000 -0.0016000
v -0.0126123 0.0112000 -0.0014782
v -0.0126123 0.0096000 -0.0014782
v -0.0131314 0.0112000 -0.0011314
v -0.0131314 0.0096000 -0.0011314
v -0.0134782 0.0112000 -0.0006123
v -0.0134782 0.0096000 -0.0006123
v -0.0136000 0.0112000 -0.0000000
v -0.0136000 0.0096000 -0.0000000
v -0.0134782 0.0112000 0.0006123
v -0.0134782 0.0096000 0.0006123
v -0.0131314 0.0112000 0.0011314
v -0.0131314 0.0096000 0.0011314
v -0.0126123 0.0112000 0.0014782
v -0.0126123 0.0096000 0.0014782
v -0.0120000 0.0112000 0.0016000
v -0.0120000 0.0096000 0.0016000
v -0.0113877 0.0112000 0.0014782
v -0.0113877 0.0096000 0.0014782
v -0.0108686 0.0112000 0.0011314
v -0.0108686 0.0096000 0.0011314
v -0.0105218 0.0112000 0.0006123
v -0.0105218 0.0096000 0.0006123
v -0.0096000 0.0096000 -0.0000000
v -0.0097826 0.0096000 -0.0009185
v -0.0097826 0.0112000 -0.0009185
v -0.0096000 0.0112000 -0.0000000
v -0.0103030 0.0096000 -0.0016970
v -0.0103030 0.0112000 -0.0016970
v -0.0110815 0.0096000 -0.0022174
v -0.0110815 0.0112000 -0.0022174
v -0.0120000 0.0096000 -0.0024000
v -0.0120000 0.0112000 -0.0024000
v -0.0129185 0.0096000 -0.0022174
v -0.0129185 0.0112000 -0.0022174
v -0.0136970 0.0096000 -0.0016970
v -0.0136970 0.0112000 -0.0016970
v -0.0142174 0.0096000 -0.0009185
v -0.0142174 0.0112000 -0.0009185
v -0.0144000 0.0096000 -0.0000000
v -0.0144000 0.0112000 -0.0000000
v -0.0142174 0.0096000 0.0009185
v -0.0142174 0.0112000 0.0009185
v -0.0136970 0.0096000 0.0016970
v -0.0136970 0.0112000 0.0016970
v -0.0129185 0.0096000 0.0022174
v -0.0129185 0.0112000 0.0022174
v -0.0120000 0.0096000 0.0024000
v -0.0120000 0.0112000 0.0024000
v -0.0110815 0.0096000 0.0022174
v -0.0110815 0.0112000 0.0022174
v -0.0103030 0.0096000 0.0016970
v -0.0103030 0.0112000 0.0016970
v -0.0097826 0.0096000 0.0009185
v -0.0097826 0.0112000 0.0009185
vn 0.0 -1.0 0.0
vn 0.9471789 0.0 -0.3207056
vn 0.8981164 6.6e-06 -0.4397578
vn 0.9978908 0.0 -0.0649152
vn 0.9978089 0.0 0.0661621
vn 0.7523546 0.0 -0.6587584
vn 0.660077 0.0 -0.7511979
vn 0.442928 0.0 -0.8965572
vn 0.322751 0.0 -0.9464839
vn 0.0661621 0.0 -0.9978089
vn -0.0640059 0.0 -0.9979495
vn -0.3207056 0.0 -0.9471789
vn -0.4445198 0.0 -0.895769
vn -0.6587584 0.0 -0.7523546
vn -0.7497893 0.0 -0.6616767
vn -0.8965572 0.0 -0.442928
vn -0.9456884 6.2e-06 -0.3250746
vn -0.9978089 0.0 -0.0661621
vn -0.9978908 0.0 0.0649152
vn -0.9471789 0.0 0.3207056
vn -0.8981164 6.6e-06 0.4397578
vn -0.7523546 0.0 0.6587584
vn -0.660077 0.0 0.7511979
vn -0.442928 0.0 0.8965572
vn -0.322751 0.0 0.9464839
vn -0.0661621 0.0 0.9978089
vn 0.0640059 0.0 0.9979495
vn 0.3207056 0.0 0.9471789
vn 0.4445198 0.0 0.895769
vn 0.6587584 0.0 0.7523546
vn 0.7497893 0.0 0.6616767
vn 0.8965572 0.0 0.442928
vn 0.9456884 6.2e-06 0.3250746
vn 0.9572482 0.0 -0.2892678
vn 0.998287 0.0 0.0585063
vn 0.8314844 0.0001394 -0.5555481
vn 0.7278218 0.0001023 -0.6857662
vn 0.4687443 0.0 -0.8833339
vn -0.3826547 0.0 -0.9238914
vn -0.6978137 8.32e-05 -0.7162793
vn -0.8314844 0.0001394 -0.5555481
vn -0.9352474 0.0 -0.3539946
vn -0.998287 0.0 -0.0585063
vn -0.9572482 0.0 0.2892678
vn -0.8314844 0.0001394 0.5555481
vn -0.7278218 0.0001023 0.6857662
vn -0.4687443 0.0 0.8833339
vn 0.3826547 0.0 0.9238914
vn 0.6978137 8.32e-05 0.7162793
vn 0.8314844 0.0001394 0.5555481
vn 0.9352474 0.0 0.3539946
vn 0.0 0.0 -1.0
vn -0.9471761 0.3207139 0.0
vn -0.8965142 0.4430151 0.0
vn -0.9978107 0.066135 0.0
vn -0.9978107 -0.066135 0.0
vn -0.7523142 0.6588045 0.0
vn -0.6588045 0.7523142 0.0
vn -0.4430151 0.8965142 0.0
vn -0.3207139 0.9471761 0.0
vn -0.066135 0.9978107 0.0
vn 0.066135 0.9978107 0.0
vn 0.3207139 0.9471761 0.0
vn 0.4430151 0.8965142 0.0
vn 0.6588045 0.7523142 0.0
vn 0.7523142 0.6588045 0.0
vn 0.8965142 0.4430151 0.0
vn 0.9471761 0.3207139 0.0
vn 0.9978107 0.066135 0.0
vn 0.9978107 -0.066135 0.0
vn 0.9471761 -0.3207139 0.0
vn 0.8965142 -0.4430151 0.0
vn 0.7523142 -0.6588045 0.0
vn 0.6588045 -0.7523142 0.0
vn 0.4430151 -0.8965142 0.0
vn 0.3207139 -0.9471761 0.0
vn 0.066135 -0.9978107 0.0
vn -0.066135 -0.9978107 0.0
vn -0.3207139 -0.9471761 0.0
vn -0.4430151 -0.8965142 0.0
vn -0.6588045 -0.7523142 0.0
vn -0.7523142 -0.6588045 0.0
vn -0.8965142 -0.4430151 0.0
vn -0.9471761 -0.3207139 0.0
vn 0.0 0.0 1.0
vn 1.0 0.0 0.0
vn 0.9991842 -0.0403846 0.0
vn 0.9949948 -0.0999263 0.0
vn -1.0 0.0 0.0
vn -0.9991842 -0.0403846 0.0
vn -0.9949948 -0.0999263 0.0
vn -0.947177 0.3207111 0.0
vn -0.8964963 0.4430513 0.0
vn -0.9978115 0.0661224 0.0
vn -0.9978115 -0.0661224 0.0
vn -0.752294 0.6588276 0.0
vn -0.6588276 0.752294 0.0
vn -0.4430513 0.8964963 0.0
vn -0.3207111 0.947177 0.0
vn -0.0661224 0.9978115 0.0
vn 0.0661224 0.9978115 0.0
vn 0.3207111 0.947177 0.0
vn 0.4430513 0.8964963 0.0
vn 0.6588276 0.752294 0.0
vn 0.752294 0.6588276 0.0
vn 0.8964963 0.4430513 0.0
vn 0.947177 0.3207111 0.0
vn 0.9978115 0.0661224 0.0
vn 0.9978115 -0.0661224 0.0
vn 0.947177 -0.3207111 0.0
vn 0.8964963 -0.4430513 0.0
vn 0.752294 -0.6588276 0.0
vn 0.6588276 -0.752294 0.0
vn 0.4430513 -0.8964963 0.0
vn 0.3207111 -0.947177 0.0
vn 0.0661224 -0.9978115 0.0
vn -0.0661224 -0.9978115 0.0
vn -0.3207111 -0.947177 0.0
vn -0.4430513 -0.8964963 0.0
vn -0.6588276 -0.752294 0.0
vn -0.752294 -0.6588276 0.0
vn -0.8964963 -0.4430513 0.0
vn -0.947177 -0.3207111 0.0
vn 0.0 1.0 0.0
vn -0.8965572 0.0 0.442928
vn -0.9978089 0.0 0.0661621
vn -0.6587584 0.0 0.7523546
vn -0.3207056 0.0 0.9471789
vn 0.0661621 0.0 0.9978089
vn 0.442928 0.0 0.8965572
vn 0.7523546 0.0 0.6587584
vn 0.9471789 0.0 0.3207056
vn 0.9978089 0.0 -0.0661621
vn 0.8965572 0.0 -0.442928
vn 0.6587584 0.0 -0.7523546
vn 0.3207056 0.0 -0.9471789
vn -0.0661621 0.0 -0.9978089
vn -0.442928 0.0 -0.8965572
vn -0.7523546 0.0 -0.6587584
vn -0.9471789 0.0 -0.3207056
vn 0.9978115 0.0 -0.0661224
vn 0.8964963 0.0 -0.4430513
vn 0.947177 0.0 -0.3207111
vn 0.9978115 0.0 0.0661224
vn 0.6588276 0.0 -0.752294
vn 0.752294 0.0 -0.6588276
vn 0.3207111 0.0 -0.947177
vn 0.4430513 0.0 -0.8964963
vn -0.0661224 0.0 -0.9978115
vn 0.0661224 0.0 -0.9978115
vn -0.4430513 0.0 -0.8964963
vn -0.3207111 0.0 -0.947177
vn -0.752294 0.0 -0.6588276
vn -0.6588276 0.0 -0.752294
vn -0.947177 0.0 -0.3207111
vn -0.8964963 0.0 -0.4430513
vn -0.9978115 0.0 0.0661224
vn -0.9978115 0.0 -0.0661224
vn -0.8964963 0.0 0.4430513
vn -0.947177 0.0 0.3207111
vn -0.6588276 0.0 0.752294
vn -0.752294 0.0 0.6588276
vn -0.3207111 0.0 0.947177
vn -0.4430513 0.0 0.8964963
vn 0.0661224 0.0 0.9978115
vn -0.0661224 0.0 0.9978115
vn 0.4430513 0.0 0.8964963
vn 0.3207111 0.0 0.947177
vn 0.752294 0.0 0.6588276
vn 0.6588276 0.0 0.752294
vn 0.947177 0.0 0.3207111
vn 0.8964963 0.0 0.4430513
f 1//1 2//1 3//1
f 4//1 1//1 3//1
f 5//1 4//1 3//1
f 6//1 5//1 3//1
f 7//1 6//1 3//1
f 8//1 7//1 3//1
f 9//1 8//1 3//1
f 10//1 9//1 3//1
f 11//1 10//1 3//1
f 12//1 11//1 3//1
f 13//1 12//1 3//1
f 14//1 13//1 3//1
f 15//1 14//1 3//1
f 16//1 15//1 3//1
f 17//1 16//1 3//1
f 2//1 17//1 3//1
f 1//2 18//3 19//4
f 2//5 1//2 19//4
f 4//6 20//7 18//3
f 1//2 4//6 18//3
f 5//8 21//9 20//7
f 4//6 5//8 20//7
f 6//10 22//11 21//9
f 5//8 6//10 21//9
f 7//12 23//13 22//11
f 6//10 7//12 22//11
f 8//14 24//15 23//13
f 7//12 8//14 23//13
f 9//16 25//17 24//15
f 8//14 9//16 24//15
f 10//18 26//19 25//17
f 9//16 10//18 25//17
f 11//20 27//21 26//19
f 10//18 11//20 26//19
f 12//22 28//23 27//21
f 11//20 12//22 27//21
f 13//24 29//25 28//23
f 12//22 13//24 28//23
f 14//26 30//27 29//25
f 13//24 14//26 29//25
f 15//28 31//29 30//27
f 14//26 15//28 30//27
f 16//30 32//31 31//29
f 15//28 16//30 31//29
f 17//32 33//33 32//31
f 16//30 17//32 32//31
f 2//5 19//4 33//33
f 17//32 2//5 33//33
f 34//1 35//1 36//1
f 37//1 34//1 36//1
f 38//1 37//1 36//1
f 39//1 38//1 36//1
f 40//1 39//1 36//1
f 41//1 40//1 36//1
f 42//1 41//1 36//1
f 43//1 42//1 36//1
f 44//1 43//1 36//1
f 45//1 44//1 36//1
f 46//1 45//1 36//1
f 47//1 46//1 36//1
f 48//1 47//1 36//1
f 49//1 48//1 36//1
f 50//1 49//1 36//1
f 35//1 50//1 36//1
f 34//2 51//3 52//4
f 35//5 34//2 52//4
f 37//6 53//7 51//3
f 34//2 37//6 51//3
f 38//8 54//9 53//7
f 37//6 38//8 53//7
f 39//10 55//11 54//9
f 38//8 39//10 54//9
f 40//12 56//13 55//11
f 39//10 40//12 55//11
f 41//14 57//15 56//13
f 40//12 41//14 56//13
f 42//16 58//17 57//15
f 41//14 42//16 57//15
f 43//18 59//19 58//17
f 42//16 43//18 58//17
f 44//20 60//21 59//19
f 43//18 44//20 59//19
f 45//22 61//23 60//21
f 44//20 45//22 60//21
f 46//24 62//25 61//23
f 45//22 46//24 61//23
f 47//26 63//27 62//25
f 46//24 47//26 62//25
f 48//28 64//29 63//27
f 47//26 48//28 63//27
f 49//30 65//31 64//29
f 48//28 49//30 64//29
f 50//32 66//33 65//31
f 49//30 50//32 65//31
f 35//5 52//4 66//33
f 50//32 35//5 66//33
f 67//1 68//1 69//1
f 70//1 67//1 69//1
f 71//1 70//1 69//1
f 72//1 71//1 69//1
f 73//1 72//1 69//1
f 74//1 73//1 69//1
f 75//1 74//1 69//1
f 76//1 75//1 69//1
f 77//1 76//1 69//1
f 78//1 77//1 69//1
f 79//1 78//1 69//1
f 80//1 79//1 69//1
f 81//1 80//1 69//1
f 82//1 81//1 69//1
f 83//1 82//1 69//1
f 68//1 83//1 69//1
f 67//2 84//3 85//4
f 68//5 67//2 85//4
f 70//6 86//7 84//3
f 67//2 70//6 84//3
f 71//8 87//9 86//7
f 70//6 71//8 86//7
f 72//10 88//11 87//9
f 71//8 72//10 87//9
f 73//12 89//13 88//11
f 72//10 73//12 88//11
f 74//14 90//15 89//13
f 73//12 74//14 89//13
f 75//16 91//17 90//15
f 74//14 75//16 90//15
f 76//18 92//19 91//17
f 75//16 76//18 91//17
f 77//20 93//21 92//19
f 76//18 77//20 92//19
f 78//22 94//23 93//21
f 77//20 78//22 93//21
f 79//24 95//25 94//23
f 78//22 79//24 94//23
f 80//26 96//27 95//25
f 79//24 80//26 95//25
f 81//28 97//29 96//27
f 80//26 81//28 96//27
f 82//30 98//31 97//29
f 81//28 82//30 97//29
f 83//32 99//33 98//31
f 82//30 83//32 98//31
f 68//5 85//4 99//33
f 83//32 68//5 99//33
f 85//4 84//3 100//34
f 85//4 100//34 101//35
f 102//36 100//34 84//3
f 84//3 86//7 103//37
f 84//3 103//37 102//36
f 86//7 87//9 104//38
f 86//7 104//38 103//37
f 87//9 88//11 104//38
f 88//11 89//13 105//39
f 89//13 90//15 106//40
f 89//13 106//40 105//39
f 91//17 107//41 106//40
f 91//17 106//40 90//15
f 108//42 107//41 91//17
f 91//17 92//19 109//43
f 91//17 109//43 108//42
f 92//19 93//21 110//44
f 92//19 110//44 109//43
f 111//45 110//44 93//21
f 93//21 94//23 112//46
f 93//21 112//46 111//45
f 94//23 95//25 113//47
f 94//23 113//47 112//46
f 95//25 96//27 113//47
f 96//27 97//29 114//48
f 97//29 98//31 115//49
f 97//29 115//49 114//48
f 99//33 116//50 115//49
f 99//33 115//49 98//31
f 117//51 116//50 99//33
f 99//33 85//4 101//35
f 99//33 101//35 117//51
f 52//4 51//3 118//34
f 52//4 118//34 119//35
f 120//36 118//34 51//3
f 51//3 53//7 121//37
f 51//3 121//37 120//36
f 53//7 54//9 122//38
f 53//7 122//38 121//37
f 54//9 55//11 122//38
f 55//11 56//13 123//39
f 56//13 57//15 124//40
f 56//13 124//40 123//39
f 58//17 125//41 124//40
f 58//17 124//40 57//15
f 126//42 125//41 58//17
f 58//17 59//19 127//43
f 58//17 127//43 126//42
f 59//19 60//21 128//44
f 59//19 128//44 127//43
f 129//45 128//44 60//21
f 60//21 61//23 130//46
f 60//21 130//46 129//45
f 61//23 62//25 131//47
f 61//23 131//47 130//46
f 62//25 63//27 131//47
f 63//27 64//29 132//48
f 64//29 65//31 133//49
f 64//29 133//49 132//48
f 66//33 134//50 133//49
f 66//33 133//49 65//31
f 135//51 134//50 66//33
f 66//33 52//4 119//35
f 66//33 119//35 135//51
f 19//4 18//3 136//34
f 19//4 136//34 137//35
f 138//36 136//34 18//3
f 18//3 20//7 139//37
f 18//3 139//37 138//36
f 20//7 21//9 140//38
f 20//7 140//38 139//37
f 21//9 22//11 140//38
f 22//11 23//13 141//39
f 23//13 24//15 142//40
f 23//13 142//40 141//39
f 25//17 143//41 142//40
f 25//17 142//40 24//15
f 144//42 143//41 25//17
f 25//17 26//19 145//43
f 25//17 145//43 144//42
f 26//19 27//21 146//44
f 26//19 146//44 145//43
f 147//45 146//44 27//21
f 27//21 28//23 148//46
f 27//21 148//46 147//45
f 28//23 29//25 149//47
f 28//23 149//47 148//46
f 29//25 30//27 149//47
f 30//27 31//29 150//48
f 31//29 32//31 151//49
f 31//29 151//49 150//48
f 33//33 152//50 151//49
f 33//33 151//49 32//31
f 153//51 152//50 33//33
f 33//33 19//4 137//35
f 33//33 137//35 153//51
f 154//52 155//52 156//52
f 154//52 156//52 157//52
f 158//52 159//52 155//52
f 158//52 155//52 154//52
f 160//52 161//52 159//52
f 160//52 159//52 158//52
f 162//52 163//52 161//52
f 162//52 161//52 160//52
f 164//52 165//52 163//52
f 164//52 163//52 162//52
f 166//52 167//52 165//52
f 166//52 165//52 164//52
f 168//52 169//52 167//52
f 168//52 167//52 166//52
f 170//52 171//52 169//52
f 170//52 169//52 168//52
f 172//52 173//52 171//52
f 172//52 171//52 170//52
f 174//52 175//52 173//52
f 174//52 173//52 172//52
f 176//52 177//52 175//52
f 176//52 175//52 174//52
f 178//52 179//52 177//52
f 178//52 177//52 176//52
f 180//52 181//52 179//52
f 180//52 179//52 178//52
f 182//52 183//52 181//52
f 182//52 181//52 180//52
f 184//52 185//52 183//52
f 184//52 183//52 182//52
f 157//52 156//52 185//52
f 157//52 185//52 184//52
f 186//53 180//54 178//55
f 187//56 186//53 178//55
f 188//57 182//58 180//54
f 186//53 188//57 180//54
f 189//59 184//60 182//58
f 188//57 189//59 182//58
f 190//61 157//62 184//60
f 189//59 190//61 184//60
f 191//63 154//64 157//62
f 190//61 191//63 157//62
f 192//65 158//66 154//64
f 191//63 192//65 154//64
f 193//67 160//68 158//66
f 192//65 193//67 158//66
f 194//69 162//70 160//68
f 193//67 194//69 160//68
f 195//71 164//72 162//70
f 194//69 195//71 162//70
f 196//73 166//74 164//72
f 195//71 196//73 164//72
f 197//75 168//76 166//74
f 196//73 197//75 166//74
f 198//77 170//78 168//76
f 197//75 198//77 168//76
f 199//79 172//80 170//78
f 198//77 199//79 170//78
f 200//81 174//82 172//80
f 199//79 200//81 172//80
f 201//83 176//84 174//82
f 200//81 201//83 174//82
f 187//56 178//55 176//84
f 201//83 187//56 176//84
f 202//85 203//85 204//85
f 205//85 202//85 204//85
f 203//85 206//85 207//85
f 204//85 203//85 207//85
f 206//85 208//85 209//85
f 207//85 206//85 209//85
f 208//85 210//85 211//85
f 209//85 208//85 211//85
f 210//85 212//85 213//85
f 211//85 210//85 213//85
f 212//85 214//85 215//85
f 213//85 212//85 215//85
f 214//85 216//85 217//85
f 215//85 214//85 217//85
f 216//85 218//85 219//85
f 217//85 216//85 219//85
f 218//85 220//85 221//85
f 219//85 218//85 221//85
f 220//85 222//85 223//85
f 221//85 220//85 223//85
f 222//85 224//85 225//85
f 223//85 222//85 225//85
f 224//85 226//85 227//85
f 225//85 224//85 227//85
f 226//85 228//85 229//85
f 227//85 226//85 229//85
f 228//85 230//85 231//85
f 229//85 228//85 231//85
f 230//85 232//85 233//85
f 231//85 230//85 233//85
f 232//85 202//85 205//85
f 233//85 232//85 205//85
f 227//55 229//54 234//53
f 227//55 234//53 235//56
f 229//54 231//58 236//57
f 229//54 236//57 234//53
f 231//58 233//60 237//59
f 231//58 237//59 236//57
f 233//60 205//62 238//61
f 233//60 238//61 237//59
f 205//62 204//64 239//63
f 205//62 239//63 238//61
f 204//64 207//66 240//65
f 204//64 240//65 239//63
f 207//66 209//68 241//67
f 207//66 241//67 240//65
f 209//68 211//70 242//69
f 209//68 242//69 241//67
f 211//70 213//72 243//71
f 211//70 243//71 242//69
f 213//72 215//74 244//73
f 213//72 244//73 243//71
f 215//74 217//76 245//75
f 215//74 245//75 244//73
f 217//76 219//78 246//77
f 217//76 246//77 245//75
f 219//78 221//80 247//79
f 219//78 247//79 246//77
f 221//80 223//82 248//81
f 221//80 248//81 247//79
f 223//82 225//84 249//83
f 223//82 249//83 248//81
f 225//84 227//55 235//56
f 225//84 235//56 249//83
f 250//52 251//52 252//52
f 250//52 252//52 253//52
f 254//52 255//52 251//52
f 254//52 251//52 250//52
f 256//52 257//52 255//52
f 256//52 255//52 254//52
f 258//52 259//52 257//52
f 258//52 257//52 256//52
f 260//52 261//52 259//52
f 260//52 259//52 258//52
f 262//52 263//52 261//52
f 262//52 261//52 260//52
f 264//52 265//52 263//52
f 264//52 263//52 262//52
f 266//52 267//52 265//52
f 266//52 265//52 264//52
f 268//52 269//52 267//52
f 268//52 267//52 266//52
f 270//52 271//52 269//52
f 270//52 269//52 268//52
f 272//52 273//52 271//52
f 272//52 271//52 270//52
f 274//52 275//52 273//52
f 274//52 273//52 272//52
f 276//52 277//52 275//52
f 276//52 275//52 274//52
f 278//52 279//52 277//52
f 278//52 277//52 276//52
f 280//52 281//52 279//52
f 280//52 279//52 278//52
f 253//52 252//52 281//52
f 253//52 281//52 280//52
f 282//53 276//54 274//55
f 283//56 282//53 274//55
f 284//57 278//58 276//54
f 282//53 284//57 276//54
f 285//59 280//60 278//58
f 284//57 285//59 278//58
f 286//61 253//62 280//60
f 285//59 286//61 280//60
f 287//63 250//64 253//62
f 286//61 287//63 253//62
f 288//65 254//66 250//64
f 287//63 288//65 250//64
f 289//67 256//68 254//66
f 288//65 289//67 254//66
f 290//69 258//70 256//68
f 289//67 290//69 256//68
f 291//71 260//72 258//70
f 290//69 291//71 258//70
f 292//73 262//74 260//72
f 291//71 292//73 260//72
f 293//75 264//76 262//74
f 292//73 293//75 262//74
f 294//77 266//78 264//76
f 293//75 294//77 264//76
f 295//79 268//80 266//78
f 294//77 295//79 266//78
f 296//81 270//82 268//80
f 295//79 296//81 268//80
f 297//83 272//84 270//82
f 296//81 297//83 270//82
f 283//56 274//55 272//84
f 297//83 283//56 272//84
f 298//85 299//85 300//85
f 301//85 298//85 300//85
f 299//85 302//85 303//85
f 300//85 299//85 303//85
f 302//85 304//85 305//85
f 303//85 302//85 305//85
f 304//85 306//85 307//85
f 305//85 304//85 307//85
f 306//85 308//85 309//85
f 307//85 306//85 309//85
f 308//85 310//85 311//85
f 309//85 308//85 311//85
f 310//85 312//85 313//85
f 311//85 310//85 313//85
f 312//85 314//85 315//85
f 313//85 312//85 315//85
f 314//85 316//85 317//85
f 315//85 314//85 317//85
f 316//85 318//85 319//85
f 317//85 316//85 319//85
f 318//85 320//85 321//85
f 319//85 318//85 321//85
f 320//85 322//85 323//85
f 321//85 320//85 323//85
f 322//85 324//85 325//85
f 323//85 322//85 325//85
f 324//85 326//85 327//85
f 325//85 324//85 327//85
f 326//85 328//85 329//85
f 327//85 326//85 329//85
f 328//85 298//85 301//85
f 329//85 328//85 301//85
f 323//55 325//54 330//53
f 323//55 330//53 331//56
f 325//54 327//58 332//57
f 325//54 332//57 330//53
f 327//58 329//60 333//59
f 327//58 333//59 332//57
f 329//60 301//62 334//61
f 329//60 334//61 333//59
f 301//62 300//64 335//63
f 301//62 335//63 334//61
f 300//64 303//66 336//65
f 300//64 336//65 335//63
f 303//66 305//68 337//67
f 303//66 337//67 336//65
f 305//68 307//70 338//69
f 305//68 338//69 337//67
f 307//70 309//72 339//71
f 307//70 339//71 338//69
f 309//72 311//74 340//73
f 309//72 340//73 339//71
f 311//74 313//76 341//75
f 311//74 341//75 340//73
f 313//76 315//78 342//77
f 313//76 342//77 341//75
f 315//78 317//80 343//79
f 315//78 343//79 342//77
f 317//80 319//82 344//81
f 317//80 344//81 343//79
f 319//82 321//84 345//83
f 319//82 345//83 344//81
f 321//84 323//55 331//56
f 321//84 331//56 345//83
f 346//52 347//52 348//52
f 346//52 348//52 349//52
f 350//52 351//52 347//52
f 350//52 347//52 346//52
f 352//52 353//52 351//52
f 352//52 351//52 350//52
f 354//52 355//52 353//52
f 354//52 353//52 352//52
f 356//52 357//52 355//52
f 356//52 355//52 354//52
f 358//52 359//52 357//52
f 358//52 357//52 356//52
f 360//52 361//52 359//52
f 360//52 359//52 358//52
f 362//52 363//52 361//52
f 362//52 361//52 360//52
f 364//52 365//52 363//52
f 364//52 363//52 362//52
f 366//52 367//52 365//52
f 366//52 365//52 364//52
f 368//52 369//52 367//52
f 368//52 367//52 366//52
f 370//52 371//52 369//52
f 370//52 369//52 368//52
f 372//52 373//52 371//52
f 372//52 371//52 370//52
f 374//52 375//52 373//52
f 374//52 373//52 372//52
f 376//52 377//52 375//52
f 376//52 375//52 374//52
f 349//52 348//52 377//52
f 349//52 377//52 376//52
f 378//53 372//54 370//55
f 379//56 378//53 370//55
f 380//57 374//58 372//54
f 378//53 380//57 372//54
f 381//59 376//60 374//58
f 380//57 381//59 374//58
f 382//61 349//62 376//60
f 381//59 382//61 376//60
f 383//63 346//64 349//62
f 382//61 383//63 349//62
f 384//65 350//66 346//64
f 383//63 384//65 346//64
f 385//67 352//68 350//66
f 384//65 385//67 350//66
f 386//69 354//70 352//68
f 385//67 386//69 352//68
f 387//71 356//72 354//70
f 386//69 387//71 354//70
f 388//73 358//74 356//72
f 387//71 388//73 356//72
f 389//75 360//76 358//74
f 388//73 389//75 358//74
f 390//77 362//78 360//76
f 389//75 390//77 360//76
f 391//79 364//80 362//78
f 390//77 391//79 362//78
f 392//81 366//82 364//80
f 391//79 392//81 364//80
f 393//83 368//84 366//82
f 392//81 393//83 366//82
f 379//56 370//55 368//84
f 393//83 379//56 368//84
f 394//85 395//85 396//85
f 397//85 394//85 396//85
f 395//85 398//85 399//85
f 396//85 395//85 399//85
f 398//85 400//85 401//85
f 399//85 398//85 401//85
f 400//85 402//85 403//85
f 401//85 400//85 403//85
f 402//85 404//85 405//85
f 403//85 402//85 405//85
f 404//85 406//85 407//85
f 405//85 404//85 407//85
f 406//85 408//85 409//85
f 407//85 406//85 409//85
f 408//85 410//85 411//85
f 409//85 408//85 411//85
f 410//85 412//85 413//85
f 411//85 410//85 413//85
f 412//85 414//85 415//85
f 413//85 412//85 415//85
f 414//85 416//85 417//85
f 415//85 414//85 417//85
f 416//85 418//85 419//85
f 417//85 416//85 419//85
f 418//85 420//85 421//85
f 419//85 418//85 421//85
f 420//85 422//85 423//85
f 421//85 420//85 423//85
f 422//85 424//85 425//85
f 423//85 422//85 425//85
f 424//85 394//85 397//85
f 425//85 424//85 397//85
f 419//55 421//54 426//53
f 419//55 426//53 427//56
f 421//54 423//58 428//57
f 421//54 428//57 426//53
f 423//58 425//60 429//59
f 423//58 429//59 428//57
f 425//60 397//62 430//61
f 425//60 430//61 429//59
f 397//62 396//64 431//63
f 397//62 431//63 430//61
f 396//64 399//66 432//65
f 396//64 432//65 431//63
f 399//66 401//68 433//67
f 399//66 433//67 432//65
f 401//68 403//70 434//69
f 401//68 434//69 433//67
f 403//70 405//72 435//71
f 403//70 435//71 434//69
f 405//72 407//74 436//73
f 405//72 436//73 435//71
f 407//74 409//76 437//75
f 407//74 437//75 436//73
f 409//76 411//78 438//77
f 409//76 438//77 437//75
f 411//78 413//80 439//79
f 411//78 439//79 438//77
f 413//80 415//82 440//81
f 413//80 440//81 439//79
f 415//82 417//84 441//83
f 415//82 441//83 440//81
f 417//84 419//55 427//56
f 417//84 427//56 441//83
f 442//1 443//1 444//1
f 442//1 444//1 445//1
f 445//86 444//86 446//87
f 445//86 446//87 447//88
f 443//89 442//89 448//90
f 443//89 448//90 449//91
f 442//85 445//85 447//85
f 442//85 447//85 448//85
f 444//52 443//52 449//52
f 444//52 449//52 446//52
f 450//1 451//1 452//1
f 450//1 452//1 453//1
f 453//86 452//86 454//87
f 453//86 454//87 455//88
f 451//89 450//89 456//90
f 451//89 456//90 457//91
f 450//85 453//85 455//85
f 450//85 455//85 456//85
f 452//52 451//52 457//52
f 452//52 457//52 454//52
f 458//1 459//1 460//1
f 458//1 460//1 461//1
f 458//89 461//89 462//89
f 458//89 462//89 463//89
f 464//1 465//1 466//1
f 464//1 466//1 467//1
f 464//86 467//86 468//86
f 464//86 468//86 469//86
f 470//71 471//72 472//88
f 470//71 472//88 473//87
f 474//73 475//74 471//72
f 474//73 471//72 470//71
f 476//75 477//76 475//74
f 476//75 475//74 474//73
f 478//77 479//78 477//76
f 478//77 477//76 476//75
f 480//79 481//80 479//78
f 480//79 479//78 478//77
f 482//81 483//82 481//80
f 482//81 481//80 480//79
f 484//83 485//84 483//82
f 484//83 483//82 482//81
f 449//91 448//90 485//84
f 449//91 485//84 484//83
f 486//71 487//72 447//88
f 486//71 447//88 446//87
f 488//73 489//74 487//72
f 488//73 487//72 486//71
f 490//75 491//76 489//74
f 490//75 489//74 488//73
f 492//77 493//78 491//76
f 492//77 491//76 490//75
f 494//79 495//80 493//78
f 494//79 493//78 492//77
f 496//81 497//82 495//80
f 496//81 495//80 494//79
f 498//83 499//84 497//82
f 498//83 497//82 496//81
f 457//91 456//90 499//84
f 457//91 499//84 498//83
f 500//71 501//72 455//88
f 500//71 455//88 454//87
f 502//73 503//74 501//72
f 502//73 501//72 500//71
f 504//75 505//76 503//74
f 504//75 503//74 502//73
f 506//77 507//78 505//76
f 506//77 505//76 504//75
f 508//79 509//80 507//78
f 508//79 507//78 506//77
f 510//81 511//82 509//80
f 510//81 509//80 508//79
f 512//83 513//84 511//82
f 512//83 511//82 510//81
f 514//91 515//90 513//84
f 514//91 513//84 512//83
f 473//87 472//88 460//86
f 473//87 460//86 459//86
f 515//90 514//91 466//89
f 515//90 466//89 465//89
f 516//85 472//85 471//85
f 516//85 471//85 475//85
f 516//85 475//85 477//85
f 516//85 477//85 479//85
f 517//85 479//85 481//85
f 517//85 481//85 483//85
f 517//85 483//85 485//85
f 517//85 485//85 448//85
f 470//52 473//52 518//52
f 474//52 470//52 518//52
f 476//52 474//52 518//52
f 478//52 476//52 518//52
f 480//52 478//52 519//52
f 482//52 480//52 519//52
f 484//52 482//52 519//52
f 449//52 484//52 519//52
f 520//85 447//85 487//85
f 520//85 487//85 489//85
f 520//85 489//85 491//85
f 520//85 491//85 493//85
f 521//85 493//85 495//85
f 521//85 495//85 497//85
f 521//85 497//85 499//85
f 521//85 499//85 456//85
f 486//52 446//52 522//52
f 488//52 486//52 522//52
f 490//52 488//52 522//52
f 492//52 490//52 522//52
f 494//52 492//52 523//52
f 496//52 494//52 523//52
f 498//52 496//52 523//52
f 457//52 498//52 523//52
f 524//85 455//85 501//85
f 524//85 501//85 503//85
f 524//85 503//85 505//85
f 524//85 505//85 507//85
f 525//85 507//85 509//85
f 525//85 509//85 511//85
f 525//85 511//85 513//85
f 525//85 513//85 515//85
f 500//52 454//52 526//52
f 502//52 500//52 526//52
f 504//52 502//52 526//52
f 506//52 504//52 526//52
f 508//52 506//52 527//52
f 510//52 508//52 527//52
f 512//52 510//52 527//52
f 514//52 512//52 527//52
f 517//85 448//85 447//85
f 517//85 447//85 520//85
f 519//52 522//52 446//52
f 519//52 446//52 449//52
f 521//85 456//85 455//85
f 521//85 455//85 524//85
f 523//52 526//52 454//52
f 523//52 454//52 457//52
f 462//85 461//85 460//85
f 462//85 460//85 516//85
f 463//52 518//52 459//52
f 463//52 459//52 458//52
f 525//85 465//85 464//85
f 525//85 464//85 469//85
f 527//52 468//52 467//52
f 527//52 467//52 466//52
f 462//85 516//85 525//85
f 462//85 525//85 469//85
f 463//52 468//52 527//52
f 463//52 527//52 518//52
f 528//1 462//1 469//1
f 528//1 469//1 529//1
f 530//1 531//1 468//1
f 530//1 468//1 463//1
f 528//1 530//1 463//1
f 528//1 463//1 462//1
f 529//1 469//1 468//1
f 529//1 468//1 531//1
f 181//92 228//93 226//94
f 179//95 181//92 226//94
f 183//96 230//97 228//93
f 181//92 183//96 228//93
f 185//98 232//99 230//97
f 183//96 185//98 230//97
f 156//100 202//101 232//99
f 185//98 156//100 232//99
f 155//102 203//103 202//101
f 156//100 155//102 202//101
f 159//104 206//105 203//103
f 155//102 159//104 203//103
f 161//106 208//107 206//105
f 159//104 161//106 206//105
f 163//108 210//109 208//107
f 161//106 163//108 208//107
f 165//110 212//111 210//109
f 163//108 165//110 210//109
f 167//112 214//113 212//111
f 165//110 167//112 212//111
f 169//114 216//115 214//113
f 167//112 169//114 214//113
f 171//116 218//117 216//115
f 169//114 171//116 216//115
f 173//118 220//119 218//117
f 171//116 173//118 218//117
f 175//120 222//121 220//119
f 173//118 175//120 220//119
f 177//122 224//123 222//121
f 175//120 177//122 222//121
f 179//95 226//94 224//123
f 177//122 179//95 224//123
f 277//92 324//93 322//94
f 275//95 277//92 322//94
f 279//96 326//97 324//93
f 277//92 279//96 324//93
f 281//98 328//99 326//97
f 279//96 281//98 326//97
f 252//100 298//101 328//99
f 281//98 252//100 328//99
f 251//102 299//103 298//101
f 252//100 251//102 298//101
f 255//104 302//105 299//103
f 251//102 255//104 299//103
f 257//106 304//107 302//105
f 255//104 257//106 302//105
f 259//108 306//109 304//107
f 257//106 259//108 304//107
f 261//110 308//111 306//109
f 259//108 261//110 306//109
f 263//112 310//113 308//111
f 261//110 263//112 308//111
f 265//114 312//115 310//113
f 263//112 265//114 310//113
f 267//116 314//117 312//115
f 265//114 267//116 312//115
f 269//118 316//119 314//117
f 267//116 269//118 314//117
f 271//120 318//121 316//119
f 269//118 271//120 316//119
f 273//122 320//123 318//121
f 271//120 273//122 318//121
f 275//95 322//94 320//123
f 273//122 275//95 320//123
f 373//92 420//93 418//94
f 371//95 373//92 418//94
f 375//96 422//97 420//93
f 373//92 375//96 420//93
f 377//98 424//99 422//97
f 375//96 377//98 422//97
f 348//100 394//101 424//99
f 377//98 348//100 424//99
f 347//102 395//103 394//101
f 348//100 347//102 394//101
f 351//104 398//105 395//103
f 347//102 351//104 395//103
f 353//106 400//107 398//105
f 351//104 353//106 398//105
f 355//108 402//109 400//107
f 353//106 355//108 400//107
f 357//110 404//111 402//109
f 355//108 357//110 402//109
f 359//112 406//113 404//111
f 357//110 359//112 404//111
f 361//114 408//115 406//113
f 359//112 361//114 406//113
f 363//116 410//117 408//115
f 361//114 363//116 408//115
f 365//118 412//119 410//117
f 363//116 365//118 410//117
f 367//120 414//121 412//119
f 365//118 367//120 412//119
f 369//122 416//123 414//121
f 367//120 369//122 414//121
f 371//95 418//94 416//123
f 369//122 371//95 416//123
f 532//124 533//124 534//124
f 532//124 534//124 535//124
f 533//89 529//89 531//89
f 533//89 531//89 534//89
f 535//86 530//86 528//86
f 535//86 528//86 532//86
f 186//52 187//52 536//52
f 188//52 186//52 536//52
f 189//52 188//52 536//52
f 190//52 189//52 536//52
f 191//52 190//52 537//52
f 192//52 191//52 537//52
f 193//52 192//52 537//52
f 194//52 193//52 537//52
f 195//52 194//52 538//52
f 196//52 195//52 538//52
f 197//52 196//52 538//52
f 198//52 197//52 538//52
f 199//52 198//52 539//52
f 200//52 199//52 539//52
f 201//52 200//52 539//52
f 187//52 201//52 539//52
f 540//85 235//85 234//85
f 540//85 234//85 236//85
f 540//85 236//85 237//85
f 540//85 237//85 238//85
f 541//85 238//85 239//85
f 541//85 239//85 240//85
f 541//85 240//85 241//85
f 541//85 241//85 242//85
f 542//85 242//85 243//85
f 542//85 243//85 244//85
f 542//85 244//85 245//85
f 542//85 245//85 246//85
f 543//85 246//85 247//85
f 543//85 247//85 248//85
f 543//85 248//85 249//85
f 543//85 249//85 235//85
f 282//52 283//52 544//52
f 284//52 282//52 544//52
f 285//52 284//52 544//52
f 286//52 285//52 544//52
f 287//52 286//52 545//52
f 288//52 287//52 545//52
f 289//52 288//52 545//52
f 290//52 289//52 545//52
f 291//52 290//52 546//52
f 292//52 291//52 546//52
f 293//52 292//52 546//52
f 294//52 293//52 546//52
f 295//52 294//52 547//52
f 296//52 295//52 547//52
f 297//52 296//52 547//52
f 283//52 297//52 547//52
f 548//85 331//85 330//85
f 548//85 330//85 332//85
f 548//85 332//85 333//85
f 548//85 333//85 334//85
f 549//85 334//85 335//85
f 549//85 335//85 336//85
f 549//85 336//85 337//85
f 549//85 337//85 338//85
f 550//85 338//85 339//85
f 550//85 339//85 340//85
f 550//85 340//85 341//85
f 550//85 341//85 342//85
f 551//85 342//85 343//85
f 551//85 343//85 344//85
f 551//85 344//85 345//85
f 551//85 345//85 331//85
f 378//52 379//52 552//52
f 380//52 378//52 552//52
f 381//52 380//52 552//52
f 382//52 381//52 552//52
f 383//52 382//52 553//52
f 384//52 383//52 553//52
f 385//52 384//52 553//52
f 386//52 385//52 553//52
f 387//52 386//52 554//52
f 388//52 387//52 554//52
f 389//52 388//52 554//52
f 390//52 389//52 554//52
f 391//52 390//52 555//52
f 392//52 391//52 555//52
f 393//52 392//52 555//52
f 379//52 393//52 555//52
f 556//85 427//85 426//85
f 556//85 426//85 428//85
f 556//85 428//85 429//85
f 556//85 429//85 430//85
f 557//85 430//85 431//85
f 557//85 431//85 432//85
f 557//85 432//85 433//85
f 557//85 433//85 434//85
f 558//85 434//85 435//85
f 558//85 435//85 436//85
f 558//85 436//85 437//85
f 558//85 437//85 438//85
f 559//85 438//85 439//85
f 559//85 439//85 440//85
f 559//85 440//85 441//85
f 559//85 441//85 427//85
f 537//52 544//52 547//52
f 537//52 547//52 538//52
f 541//85 542//85 551//85
f 541//85 551//85 548//85
f 545//52 552//52 555//52
f 545//52 555//52 546//52
f 549//85 550//85 559//85
f 549//85 559//85 556//85
f 528//52 529//52 553//52
f 528//52 553//52 536//52
f 530//85 540//85 557//85
f 530//85 557//85 531//85
f 532//52 539//52 554//52
f 532//52 554//52 533//52
f 535//85 534//85 558//85
f 535//85 558//85 543//85
f 528//52 536//52 539//52
f 528//52 539//52 532//52
f 530//85 535//85 543//85
f 530//85 543//85 540//85
f 529//52 533//52 554//52
f 529//52 554//52 553//52
f 531//85 557//85 558//85
f 531//85 558//85 534//85
f 560//20 561//125 562//126
f 563//18 560//20 562//126
f 564//22 565//127 561//125
f 560//20 564//22 561//125
f 566//24 567//128 565//127
f 564//22 566//24 565//127
f 568//26 569//129 567//128
f 566//24 568//26 567//128
f 570//28 571//130 569//129
f 568//26 570//28 569//129
f 572//30 573//131 571//130
f 570//28 572//30 571//130
f 574//32 575//132 573//131
f 572//30 574//32 573//131
f 576//5 577//133 575//132
f 574//32 576//5 575//132
f 578//2 579//134 577//133
f 576//5 578//2 577//133
f 580//6 581//135 579//134
f 578//2 580//6 579//134
f 582//8 583//136 581//135
f 580//6 582//8 581//135
f 584//10 585//137 583//136
f 582//8 584//10 583//136
f 586//12 587//138 585//137
f 584//10 586//12 585//137
f 588//14 589//139 587//138
f 586//12 588//14 587//138
f 590//16 591//140 589//139
f 588//14 590//16 589//139
f 563//18 562//126 591//140
f 590//16 563//18 591//140
f 592//141 593//142 594//143
f 592//141 594//143 595//144
f 593//142 596//145 597//146
f 593//142 597//146 594//143
f 596//145 598//147 599//148
f 596//145 599//148 597//146
f 598//147 600//149 601//150
f 598//147 601//150 599//148
f 600//149 602//151 603//152
f 600//149 603//152 601//150
f 602//151 604//153 605//154
f 602//151 605//154 603//152
f 604//153 606//155 607//156
f 604//153 607//156 605//154
f 606//155 608//157 609//158
f 606//155 609//158 607//156
f 608//157 610//159 611//160
f 608//157 611//160 609//158
f 610//159 612//161 613//162
f 610//159 613//162 611//160
f 612//161 614//163 615//164
f 612//161 615//164 613//162
f 614//163 616//165 617//166
f 614//163 617//166 615//164
f 616//165 618//167 619//168
f 616//165 619//168 617//166
f 618//167 620//169 621//170
f 618//167 621//170 619//168
f 620//169 622//171 623//172
f 620//169 623//172 621//170
f 622//171 592//141 595//144
f 622//171 595//144 623//172
f 603//124 570//124 568//124
f 603//124 568//124 601//124
f 605//124 572//124 570//124
f 605//124 570//124 603//124
f 607//124 574//124 572//124
f 607//124 572//124 605//124
f 609//124 576//124 574//124
f 609//124 574//124 607//124
f 611//124 578//124 576//124
f 611//124 576//124 609//124
f 613//124 580//124 578//124
f 613//124 578//124 611//124
f 615//124 582//124 580//124
f 615//124 580//124 613//124
f 617//124 584//124 582//124
f 617//124 582//124 615//124
f 619//124 586//124 584//124
f 619//124 584//124 617//124
f 621//124 588//124 586//124
f 621//124 586//124 619//124
f 623//124 590//124 588//124
f 623//124 588//124 621//124
f 595//124 563//124 590//124
f 595//124 590//124 623//124
f 594//124 560//124 563//124
f 594//124 563//124 595//124
f 597//124 564//124 560//124
f 597//124 560//124 594//124
f 599//124 566//124 564//124
f 599//124 564//124 597//124
f 601//124 568//124 566//124
f 601//124 566//124 599//124
f 624//20 625//125 626//126
f 627//18 624//20 626//126
f 628//22 629//127 625//125
f 624//20 628//22 625//125
f 630//24 631//128 629//127
f 628//22 630//24 629//127
f 632//26 633//129 631//128
f 630//24 632//26 631//128
f 634//28 635//130 633//129
f 632//26 634//28 633//129
f 636//30 637//131 635//130
f 634//28 636//30 635//130
f 638//32 639//132 637//131
f 636//30 638//32 637//131
f 640//5 641//133 639//132
f 638//32 640//5 639//132
f 642//2 643//134 641//133
f 640//5 642//2 641//133
f 644//6 645//135 643//134
f 642//2 644//6 643//134
f 646//8 647//136 645//135
f 644//6 646//8 645//135
f 648//10 649//137 647//136
f 646//8 648//10 647//136
f 650//12 651//138 649//137
f 648//10 650//12 649//137
f 652//14 653//139 651//138
f 650//12 652//14 651//138
f 654//16 655//140 653//139
f 652//14 654//16 653//139
f 627//18 626//126 655//140
f 654//16 627//18 655//140
f 656//141 657//142 658//143
f 656//141 658//143 659//144
f 657//142 660//145 661//146
f 657//142 661//146 658//143
f 660//145 662//147 663//148
f 660//145 663//148 661//146
f 662//147 664//149 665//150
f 662//147 665//150 663//148
f 664//149 666//151 667//152
f 664//149 667//152 665//150
f 666//151 668//153 669//154
f 666//151 669//154 667//152
f 668//153 670//155 671//156
f 668//153 671//156 669//154
f 670//155 672//157 673//158
f 670//155 673//158 671//156
f 672//157 674//159 675//160
f 672//157 675//160 673//158
f 674//159 676//161 677//162
f 674//159 677//162 675//160
f 676//161 678//163 679//164
f 676//161 679//164 677//162
f 678//163 680//165 681//166
f 678//163 681//166 679//164
f 680//165 682//167 683//168
f 680//165 683//168 681//166
f 682//167 684//169 685//170
f 682//167 685//170 683//168
f 684//169 686//171 687//172
f 684//169 687//172 685//170
f 686//171 656//141 659//144
f 686//171 659//144 687//172
f 667//124 634//124 632//124
f 667//124 632//124 665//124
f 669//124 636//124 634//124
f 669//124 634//124 667//124
f 671//124 638//124 636//124
f 671//124 636//124 669//124
f 673//124 640//124 638//124
f 673//124 638//124 671//124
f 675//124 642//124 640//124
f 675//124 640//124 673//124
f 677//124 644//124 642//124
f 677//124 642//124 675//124
f 679//124 646//124 644//124
f 679//124 644//124 677//124
f 681//124 648//124 646//124
f 681//124 646//124 679//124
f 683//124 650//124 648//124
f 683//124 648//124 681//124
f 685//124 652//124 650//124
f 685//124 650//124 683//124
f 687//124 654//124 652//124
f 687//124 652//124 685//124
f 659//124 627//124 654//124
f 659//124 654//124 687//124
f 658//124 624//124 627//124
f 658//124 627//124 659//124
f 661//124 628//124 624//124
f 661//124 624//124 658//124
f 663//124 630//124 628//124
f 663//124 628//124 661//124
f 665//124 632//124 630//124
f 665//124 630//124 663//124
f 688//20 689//125 690//126
f 691//18 688//20 690//126
f 692//22 693//127 689//125
f 688//20 692//22 689//125
f 694//24 695//128 693//127
f 692//22 694//24 693//127
f 696//26 697//129 695//128
f 694//24 696//26 695//128
f 698//28 699//130 697//129
f 696//26 698//28 697//129
f 700//30 701//131 699//130
f 698//28 700//30 699//130
f 702//32 703//132 701//131
f 700//30 702//32 701//131
f 704//5 705//133 703//132
f 702//32 704//5 703//132
f 706//2 707//134 705//133
f 704//5 706//2 705//133
f 708//6 709//135 707//134
f 706//2 708//6 707//134
f 710//8 711//136 709//135
f 708//6 710//8 709//135
f 712//10 713//137 711//136
f 710//8 712//10 711//136
f 714//12 715//138 713//137
f 712//10 714//12 713//137
f 716//14 717//139 715//138
f 714//12 716//14 715//138
f 718//16 719//140 717//139
f 716//14 718//16 717//139
f 691//18 690//126 719//140
f 718//16 691//18 719//140
f 720//141 721//142 722//143
f 720//141 722//143 723//144
f 721//142 724//145 725//146
f 721//142 725//146 722//143
f 724//145 726//147 727//148
f 724//145 727//148 725//146
f 726//147 728//149 729//150
f 726//147 729//150 727//148
f 728//149 730//151 731//152
f 728//149 731//152 729//150
f 730//151 732//153 733//154
f 730//151 733//154 731//152
f 732//153 734//155 735//156
f 732//153 735//156 733//154
f 734//155 736//157 737//158
f 734//155 737//158 735//156
f 736//157 738//159 739//160
f 736//157 739//160 737//158
f 738//159 740//161 741//162
f 738//159 741//162 739//160
f 740//161 742//163 743//164
f 740//161 743//164 741//162
f 742//163 744//165 745//166
f 742//163 745//166 743//164
f 744//165 746//167 747//168
f 744//165 747//168 745//166
f 746//167 748//169 749//170
f 746//167 749//170 747//168
f 748//169 750//171 751//172
f 748//169 751//172 749//170
f 750//171 720//141 723//144
f 750//171 723//144 751//172
f 731//124 698//124 696//124
f 731//124 696//124 729//124
f 733//124 700//124 698//124
f 733//124 698//124 731//124
f 735//124 702//124 700//124
f 735//124 700//124 733//124
f 737//124 704//124 702//124
f 737//124 702//124 735//124
f 739//124 706//124 704//124
f 739//124 704//124 737//124
f 741//124 708//124 706//124
f 741//124 706//124 739//124
f 743//124 710//124 708//124
f 743//124 708//124 741//124
f 745//124 712//124 710//124
f 745//124 710//124 743//124
f 747//124 714//124 712//124
f 747//124 712//124 745//124
f 749//124 716//124 714//124
f 749//124 714//124 747//124
f 751//124 718//124 716//124
f 751//124 716//124 749//124
f 723//124 691//124 718//124
f 723//124 718//124 751//124
f 722//124 688//124 691//124
f 722//124 691//124 723//124
f 725//124 692//124 688//124
f 725//124 688//124 722//124
f 727//124 694//124 692//124
f 727//124 692//124 725//124
f 729//124 696//124 694//124
f 729//124 694//124 727//124
f 752//20 753//125 754//126
f 755//18 752//20 754//126
f 756//22 757//127 753//125
f 752//20 756//22 753//125
f 758//24 759//128 757//127
f 756//22 758//24 757//127
f 760//26 761//129 759//128
f 758//24 760//26 759//128
f 762//28 763//130 761//129
f 760//26 762//28 761//129
f 764//30 765//131 763//130
f 762//28 764//30 763//130
f 766//32 767//132 765//131
f 764//30 766//32 765//131
f 768//5 769//133 767//132
f 766//32 768//5 767//132
f 770//2 771//134 769//133
f 768//5 770//2 769//133
f 772//6 773//135 771//134
f 770//2 772//6 771//134
f 774//8 775//136 773//135
f 772//6 774//8 773//135
f 776//10 777//137 775//136
f 774//8 776//10 775//136
f 778//12 779//138 777//137
f 776//10 778//12 777//137
f 780//14 781//139 779//138
f 778//12 780//14 779//138
f 782//16 783//140 781//139
f 780//14 782//16 781//139
f 755//18 754//126 783//140
f 782//16 755//18 783//140
f 784//141 785//142 786//143
f 784//141 786//143 787//144
f 785//142 788//145 789//146
f 785//142 789//146 786//143
f 788//145 790//147 791//148
f 788//145 791//148 789//146
f 790//147 792//149 793//150
f 790//147 793//150 791//148
f 792//149 794//151 795//152
f 792//149 795//152 793//150
f 794//151 796//153 797//154
f 794//151 797//154 795//152
f 796//153 798//155 799//156
f 796//153 799//156 797//154
f 798//155 800//157 801//158
f 798//155 801//158 799//156
f 800//157 802//159 803//160
f 800//157 803//160 801//158
f 802//159 804//161 805//162
f 802//159 805//162 803//160
f 804//161 806//163 807//164
f 804//161 807//164 805//162
f 806//163 808//165 809//166
f 806//163 809//166 807//164
f 808//165 810//167 811//168
f 808//165 811//168 809//166
f 810//167 812//169 813//170
f 810//167 813//170 811//168
f 812//169 814//171 815//172
f 812//169 815//172 813//170
f 814//171 784//141 787//144
f 814//171 787//144 815//172
f 795//124 762//124 760//124
f 795//124 760//124 793//124
f 797//124 764//124 762//124
f 797//124 762//124 795//124
f 799//124 766//124 764//124
f 799//124 764//124 797//124
f 801//124 768//124 766//124
f 801//124 766//124 799//124
f 803//124 770//124 768//124
f 803//124 768//124 801//124
f 805//124 772//124 770//124
f 805//124 770//124 803//124
f 807//124 774//124 772//124
f 807//124 772//124 805//124
f 809//124 776//124 774//124
f 809//124 774//124 807//124
f 811//124 778//124 776//124
f 811//124 776//124 809//124
f 813//124 780//124 778//124
f 813//124 778//124 811//124
f 815//124 782//124 780//124
f 815//124 780//124 813//124
f 787//124 755//124 782//124
f 787//124 782//124 815//124
f 786//124 752//124 755//124
f 786//124 755//124 787//124
f 789//124 756//124 752//124
f 789//124 752//124 786//124
f 791//124 758//124 756//124
f 791//124 756//124 789//124
f 793//124 760//124 758//124
f 793//124 758//124 791//124
