# Botball Lab: metres, +Y up, centred XZ, base Y=0
s off
v 0.0014782 0.0000000 -0.0006123
v 0.0016000 0.0000000 -0.0000000
v 0.0000000 0.0000000 -0.0000000
v 0.0011314 0.0000000 -0.0011314
v 0.0006123 0.0000000 -0.0014782
v 0.0000000 0.0000000 -0.0016000
v -0.0006123 0.0000000 -0.0014782
v -0.0011314 0.0000000 -0.0011314
v -0.0014782 0.0000000 -0.0006123
v -0.0016000 0.0000000 -0.0000000
v -0.0014782 0.0000000 0.0006123
v -0.0011314 0.0000000 0.0011314
v -0.0006123 0.0000000 0.0014782
v 0.0000000 0.0000000 0.0016000
v 0.0006123 0.0000000 0.0014782
v 0.0011314 0.0000000 0.0011314
v 0.0014782 0.0000000 0.0006123
v 0.0014782 0.0016000 -0.0006123
v 0.0016000 0.0016000 -0.0000000
v 0.0011314 0.0016000 -0.0011314
v 0.0006123 0.0016000 -0.0014782
v 0.0000000 0.0016000 -0.0016000
v -0.0006123 0.0016000 -0.0014782
v -0.0011314 0.0016000 -0.0011314
v -0.0014782 0.0016000 -0.0006123
v -0.0016000 0.0016000 -0.0000000
v -0.0014782 0.0016000 0.0006123
v -0.0011314 0.0016000 0.0011314
v -0.0006123 0.0016000 0.0014782
v 0.0000000 0.0016000 0.0016000
v 0.0006123 0.0016000 0.0014782
v 0.0011314 0.0016000 0.0011314
v 0.0014782 0.0016000 0.0006123
v -0.0064000 0.0016000 -0.0024000
v 0.0064000 0.0016000 -0.0024000
v 0.0064000 0.0016000 0.0024000
v -0.0064000 0.0016000 0.0024000
v -0.0064000 0.0000000 -0.0024000
v 0.0064000 0.0000000 -0.0024000
v -0.0064000 0.0000000 0.0024000
v 0.0064000 0.0000000 0.0024000
v -0.0080000 0.0032000 0.0040000
v 0.0080000 0.0032000 0.0040000
v 0.0080000 0.0032000 -0.0040000
v -0.0080000 0.0032000 -0.0040000
v -0.0080000 0.0000000 -0.0040000
v 0.0080000 0.0000000 -0.0040000
v -0.0080000 0.0000000 0.0040000
v 0.0080000 0.0000000 0.0040000
v -0.0017826 0.0032000 -0.0009185
v -0.0017826 0.0048000 -0.0009185
v -0.0016000 0.0048000 -0.0000000
v -0.0016000 0.0032000 -0.0000000
v -0.0023030 0.0032000 -0.0016970
v -0.0023030 0.0048000 -0.0016970
v -0.0030815 0.0032000 -0.0022174
v -0.0030815 0.0048000 -0.0022174
v -0.0040000 0.0032000 -0.0024000
v -0.0040000 0.0048000 -0.0024000
v -0.0049185 0.0032000 -0.0022174
v -0.0049185 0.0048000 -0.0022174
v -0.0056970 0.0032000 -0.0016970
v -0.0056970 0.0048000 -0.0016970
v -0.0062174 0.0032000 -0.0009185
v -0.0062174 0.0048000 -0.0009185
v -0.0064000 0.0032000 -0.0000000
v -0.0064000 0.0048000 -0.0000000
v -0.0062174 0.0032000 0.0009185
v -0.0062174 0.0048000 0.0009185
v -0.0056970 0.0032000 0.0016970
v -0.0056970 0.0048000 0.0016970
v -0.0049185 0.0032000 0.0022174
v -0.0049185 0.0048000 0.0022174
v -0.0040000 0.0032000 0.0024000
v -0.0040000 0.0048000 0.0024000
v -0.0030815 0.0032000 0.0022174
v -0.0030815 0.0048000 0.0022174
v -0.0023030 0.0032000 0.0016970
v -0.0023030 0.0048000 0.0016970
v -0.0017826 0.0032000 0.0009185
v -0.0017826 0.0048000 0.0009185
v -0.0040000 0.0048000 -0.0000000
v 0.0062174 0.0032000 -0.0009185
v 0.0062174 0.0048000 -0.0009185
v 0.0064000 0.0048000 -0.0000000
v 0.0064000 0.0032000 -0.0000000
v 0.0056970 0.0032000 -0.0016970
v 0.0056970 0.0048000 -0.0016970
v 0.0049185 0.0032000 -0.0022174
v 0.0049185 0.0048000 -0.0022174
v 0.0040000 0.0032000 -0.0024000
v 0.0040000 0.0048000 -0.0024000
v 0.0030815 0.0032000 -0.0022174
v 0.0030815 0.0048000 -0.0022174
v 0.0023030 0.0032000 -0.0016970
v 0.0023030 0.0048000 -0.0016970
v 0.0017826 0.0032000 -0.0009185
v 0.0017826 0.0048000 -0.0009185
v 0.0016000 0.0032000 -0.0000000
v 0.0016000 0.0048000 -0.0000000
v 0.0017826 0.0032000 0.0009185
v 0.0017826 0.0048000 0.0009185
v 0.0023030 0.0032000 0.0016970
v 0.0023030 0.0048000 0.0016970
v 0.0030815 0.0032000 0.0022174
v 0.0030815 0.0048000 0.0022174
v 0.0040000 0.0032000 0.0024000
v 0.0040000 0.0048000 0.0024000
v 0.0049185 0.0032000 0.0022174
v 0.0049185 0.0048000 0.0022174
v 0.0056970 0.0032000 0.0016970
v 0.0056970 0.0048000 0.0016970
v 0.0062174 0.0032000 0.0009185
v 0.0062174 0.0048000 0.0009185
v 0.0040000 0.0048000 -0.0000000
f 1 2 3
f 4 1 3
f 5 4 3
f 6 5 3
f 7 6 3
f 8 7 3
f 9 8 3
f 10 9 3
f 11 10 3
f 12 11 3
f 13 12 3
f 14 13 3
f 15 14 3
f 16 15 3
f 17 16 3
f 2 17 3
f 1 18 19
f 2 1 19
f 4 20 18
f 1 4 18
f 5 21 20
f 4 5 20
f 6 22 21
f 5 6 21
f 7 23 22
f 6 7 22
f 8 24 23
f 7 8 23
f 9 25 24
f 8 9 24
f 10 26 25
f 9 10 25
f 11 27 26
f 10 11 26
f 12 28 27
f 11 12 27
f 13 29 28
f 12 13 28
f 14 30 29
f 13 14 29
f 15 31 30
f 14 15 30
f 16 32 31
f 15 16 31
f 17 33 32
f 16 17 32
f 2 19 33
f 17 2 33
f 34 35 36
f 34 36 37
f 34 38 39
f 34 39 35
f 37 40 38
f 37 38 34
f 36 41 40
f 36 40 37
f 35 39 41
f 35 41 36
f 42 43 44
f 45 42 44
f 46 45 44
f 47 46 44
f 48 42 45
f 46 48 45
f 47 44 43
f 49 47 43
f 50 51 52
f 53 50 52
f 54 55 51
f 50 54 51
f 56 57 55
f 54 56 55
f 58 59 57
f 56 58 57
f 60 61 59
f 58 60 59
f 62 63 61
f 60 62 61
f 64 65 63
f 62 64 63
f 66 67 65
f 64 66 65
f 68 69 67
f 66 68 67
f 70 71 69
f 68 70 69
f 72 73 71
f 70 72 71
f 74 75 73
f 72 74 73
f 76 77 75
f 74 76 75
f 78 79 77
f 76 78 77
f 80 81 79
f 78 80 79
f 53 52 81
f 80 53 81
f 82 52 51
f 82 51 55
f 82 55 57
f 82 57 59
f 82 59 61
f 82 61 63
f 82 63 65
f 82 65 67
f 82 67 69
f 82 69 71
f 82 71 73
f 82 73 75
f 82 75 77
f 82 77 79
f 82 79 81
f 82 81 52
f 83 84 85
f 86 83 85
f 87 88 84
f 83 87 84
f 89 90 88
f 87 89 88
f 91 92 90
f 89 91 90
f 93 94 92
f 91 93 92
f 95 96 94
f 93 95 94
f 97 98 96
f 95 97 96
f 99 100 98
f 97 99 98
f 101 102 100
f 99 101 100
f 103 104 102
f 101 103 102
f 105 106 104
f 103 105 104
f 107 108 106
f 105 107 106
f 109 110 108
f 107 109 108
f 111 112 110
f 109 111 110
f 113 114 112
f 111 113 112
f 86 85 114
f 113 86 114
f 115 85 84
f 115 84 88
f 115 88 90
f 115 90 92
f 115 92 94
f 115 94 96
f 115 96 98
f 115 98 100
f 115 100 102
f 115 102 104
f 115 104 106
f 115 106 108
f 115 108 110
f 115 110 112
f 115 112 114
f 115 114 85
f 47 39 38
f 47 38 46
f 46 38 40
f 46 40 48
f 48 40 41
f 48 41 49
f 49 41 39
f 49 39 47
f 42 48 49
f 42 49 43
