# Botball Lab: metres, +Y up, centred XZ, base Y=0
s off
v -0.0320000 0.0000000 -0.0080000
v -0.0320000 0.0032000 -0.0080000
v 0.0320000 0.0032000 -0.0080000
v 0.0320000 0.0000000 -0.0080000
v -0.0320000 0.0000000 0.0080000
v -0.0320000 0.0032000 0.0080000
v 0.0320000 0.0000000 0.0080000
v 0.0320000 0.0032000 0.0080000
v 0.0304000 0.0016000 -0.0064000
v -0.0304000 0.0016000 -0.0064000
v -0.0304000 0.0000000 -0.0064000
v 0.0304000 0.0000000 -0.0064000
v -0.0304000 0.0016000 0.0064000
v -0.0304000 0.0000000 0.0064000
v 0.0304000 0.0016000 0.0064000
v 0.0304000 0.0000000 0.0064000
v 0.0264000 0.0016000 -0.0000000
v 0.0262174 0.0016000 -0.0009185
v 0.0262174 0.0000000 -0.0009185
v 0.0264000 0.0000000 -0.0000000
v 0.0256970 0.0016000 -0.0016970
v 0.0256970 0.0000000 -0.0016970
v 0.0249185 0.0016000 -0.0022174
v 0.0249185 0.0000000 -0.0022174
v 0.0240000 0.0016000 -0.0024000
v 0.0240000 0.0000000 -0.0024000
v 0.0230815 0.0016000 -0.0022174
v 0.0230815 0.0000000 -0.0022174
v 0.0223030 0.0016000 -0.0016970
v 0.0223030 0.0000000 -0.0016970
v 0.0217826 0.0016000 -0.0009185
v 0.0217826 0.0000000 -0.0009185
v 0.0216000 0.0016000 -0.0000000
v 0.0216000 0.0000000 -0.0000000
v 0.0217826 0.0016000 0.0009185
v 0.0217826 0.0000000 0.0009185
v 0.0223030 0.0016000 0.0016970
v 0.0223030 0.0000000 0.0016970
v 0.0230815 0.0016000 0.0022174
v 0.0230815 0.0000000 0.0022174
v 0.0240000 0.0016000 0.0024000
v 0.0240000 0.0000000 0.0024000
v 0.0249185 0.0016000 0.0022174
v 0.0249185 0.0000000 0.0022174
v 0.0256970 0.0016000 0.0016970
v 0.0256970 0.0000000 0.0016970
v 0.0262174 0.0016000 0.0009185
v 0.0262174 0.0000000 0.0009185
v 0.0269565 0.0000000 -0.0012246
v 0.0269565 0.0016000 -0.0012246
v 0.0272000 0.0016000 -0.0000000
v 0.0272000 0.0000000 -0.0000000
v 0.0262627 0.0000000 -0.0022627
v 0.0262627 0.0016000 -0.0022627
v 0.0252246 0.0000000 -0.0029565
v 0.0252246 0.0016000 -0.0029565
v 0.0240000 0.0000000 -0.0032000
v 0.0240000 0.0016000 -0.0032000
v 0.0227754 0.0000000 -0.0029565
v 0.0227754 0.0016000 -0.0029565
v 0.0217373 0.0000000 -0.0022627
v 0.0217373 0.0016000 -0.0022627
v 0.0210435 0.0000000 -0.0012246
v 0.0210435 0.0016000 -0.0012246
v 0.0208000 0.0000000 -0.0000000
v 0.0208000 0.0016000 -0.0000000
v 0.0210435 0.0000000 0.0012246
v 0.0210435 0.0016000 0.0012246
v 0.0217373 0.0000000 0.0022627
v 0.0217373 0.0016000 0.0022627
v 0.0227754 0.0000000 0.0029565
v 0.0227754 0.0016000 0.0029565
v 0.0240000 0.0000000 0.0032000
v 0.0240000 0.0016000 0.0032000
v 0.0252246 0.0000000 0.0029565
v 0.0252246 0.0016000 0.0029565
v 0.0262627 0.0000000 0.0022627
v 0.0262627 0.0016000 0.0022627
v 0.0269565 0.0000000 0.0012246
v 0.0269565 0.0016000 0.0012246
v 0.0184000 0.0016000 -0.0000000
v 0.0182174 0.0016000 -0.0009185
v 0.0182174 0.0000000 -0.0009185
v 0.0184000 0.0000000 -0.0000000
v 0.0176970 0.0016000 -0.0016970
v 0.0176970 0.0000000 -0.0016970
v 0.0169185 0.0016000 -0.0022174
v 0.0169185 0.0000000 -0.0022174
v 0.0160000 0.0016000 -0.0024000
v 0.0160000 0.0000000 -0.0024000
v 0.0150815 0.0016000 -0.0022174
v 0.0150815 0.0000000 -0.0022174
v 0.0143030 0.0016000 -0.0016970
v 0.0143030 0.0000000 -0.0016970
v 0.0137826 0.0016000 -0.0009185
v 0.0137826 0.0000000 -0.0009185
v 0.0136000 0.0016000 -0.0000000
v 0.0136000 0.0000000 -0.0000000
v 0.0137826 0.0016000 0.0009185
v 0.0137826 0.0000000 0.0009185
v 0.0143030 0.0016000 0.0016970
v 0.0143030 0.0000000 0.0016970
v 0.0150815 0.0016000 0.0022174
v 0.0150815 0.0000000 0.0022174
v 0.0160000 0.0016000 0.0024000
v 0.0160000 0.0000000 0.0024000
v 0.0169185 0.0016000 0.0022174
v 0.0169185 0.0000000 0.0022174
v 0.0176970 0.0016000 0.0016970
v 0.0176970 0.0000000 0.0016970
v 0.0182174 0.0016000 0.0009185
v 0.0182174 0.0000000 0.0009185
v 0.0189565 0.0000000 -0.0012246
v 0.0189565 0.0016000 -0.0012246
v 0.0192000 0.0016000 -0.0000000
v 0.0192000 0.0000000 -0.0000000
v 0.0182627 0.0000000 -0.0022627
v 0.0182627 0.0016000 -0.0022627
v 0.0172246 0.0000000 -0.0029565
v 0.0172246 0.0016000 -0.0029565
v 0.0160000 0.0000000 -0.0032000
v 0.0160000 0.0016000 -0.0032000
v 0.0147754 0.0000000 -0.0029565
v 0.0147754 0.0016000 -0.0029565
v 0.0137373 0.0000000 -0.0022627
v 0.0137373 0.0016000 -0.0022627
v 0.0130435 0.0000000 -0.0012246
v 0.0130435 0.0016000 -0.0012246
v 0.0128000 0.0000000 -0.0000000
v 0.0128000 0.0016000 -0.0000000
v 0.0130435 0.0000000 0.0012246
v 0.0130435 0.0016000 0.0012246
v 0.0137373 0.0000000 0.0022627
v 0.0137373 0.0016000 0.0022627
v 0.0147754 0.0000000 0.0029565
v 0.0147754 0.0016000 0.0029565
v 0.0160000 0.0000000 0.0032000
v 0.0160000 0.0016000 0.0032000
v 0.0172246 0.0000000 0.0029565
v 0.0172246 0.0016000 0.0029565
v 0.0182627 0.0000000 0.0022627
v 0.0182627 0.0016000 0.0022627
v 0.0189565 0.0000000 0.0012246
v 0.0189565 0.0016000 0.0012246
v 0.0104000 0.0016000 -0.0000000
v 0.0102174 0.0016000 -0.0009185
v 0.0102174 0.0000000 -0.0009185
v 0.0104000 0.0000000 -0.0000000
v 0.0096970 0.0016000 -0.0016970
v 0.0096970 0.0000000 -0.0016970
v 0.0089185 0.0016000 -0.0022174
v 0.0089185 0.0000000 -0.0022174
v 0.0080000 0.0016000 -0.0024000
v 0.0080000 0.0000000 -0.0024000
v 0.0070815 0.0016000 -0.0022174
v 0.0070815 0.0000000 -0.0022174
v 0.0063030 0.0016000 -0.0016970
v 0.0063030 0.0000000 -0.0016970
v 0.0057826 0.0016000 -0.0009185
v 0.0057826 0.0000000 -0.0009185
v 0.0056000 0.0016000 -0.0000000
v 0.0056000 0.0000000 -0.0000000
v 0.0057826 0.0016000 0.0009185
v 0.0057826 0.0000000 0.0009185
v 0.0063030 0.0016000 0.0016970
v 0.0063030 0.0000000 0.0016970
v 0.0070815 0.0016000 0.0022174
v 0.0070815 0.0000000 0.0022174
v 0.0080000 0.0016000 0.0024000
v 0.0080000 0.0000000 0.0024000
v 0.0089185 0.0016000 0.0022174
v 0.0089185 0.0000000 0.0022174
v 0.0096970 0.0016000 0.0016970
v 0.0096970 0.0000000 0.0016970
v 0.0102174 0.0016000 0.0009185
v 0.0102174 0.0000000 0.0009185
v 0.0109565 0.0000000 -0.0012246
v 0.0109565 0.0016000 -0.0012246
v 0.0112000 0.0016000 -0.0000000
v 0.0112000 0.0000000 -0.0000000
v 0.0102627 0.0000000 -0.0022627
v 0.0102627 0.0016000 -0.0022627
v 0.0092246 0.0000000 -0.0029565
v 0.0092246 0.0016000 -0.0029565
v 0.0080000 0.0000000 -0.0032000
v 0.0080000 0.0016000 -0.0032000
v 0.0067754 0.0000000 -0.0029565
v 0.0067754 0.0016000 -0.0029565
v 0.0057373 0.0000000 -0.0022627
v 0.0057373 0.0016000 -0.0022627
v 0.0050435 0.0000000 -0.0012246
v 0.0050435 0.0016000 -0.0012246
v 0.0048000 0.0000000 -0.0000000
v 0.0048000 0.0016000 -0.0000000
v 0.0050435 0.0000000 0.0012246
v 0.0050435 0.0016000 0.0012246
v 0.0057373 0.0000000 0.0022627
v 0.0057373 0.0016000 0.0022627
v 0.0067754 0.0000000 0.0029565
v 0.0067754 0.0016000 0.0029565
v 0.0080000 0.0000000 0.0032000
v 0.0080000 0.0016000 0.0032000
v 0.0092246 0.0000000 0.0029565
v 0.0092246 0.0016000 0.0029565
v 0.0102627 0.0000000 0.0022627
v 0.0102627 0.0016000 0.0022627
v 0.0109565 0.0000000 0.0012246
v 0.0109565 0.0016000 0.0012246
v 0.0024000 0.0016000 -0.0000000
v 0.0022174 0.0016000 -0.0009185
v 0.0022174 0.0000000 -0.0009185
v 0.0024000 0.0000000 -0.0000000
v 0.0016970 0.0016000 -0.0016970
v 0.0016970 0.0000000 -0.0016970
v 0.0009185 0.0016000 -0.0022174
v 0.0009185 0.0000000 -0.0022174
v 0.0000000 0.0016000 -0.0024000
v 0.0000000 0.0000000 -0.0024000
v -0.0009185 0.0016000 -0.0022174
v -0.0009185 0.0000000 -0.0022174
v -0.0016970 0.0016000 -0.0016970
v -0.0016970 0.0000000 -0.0016970
v -0.0022174 0.0016000 -0.0009185
v -0.0022174 0.0000000 -0.0009185
v -0.0024000 0.0016000 -0.0000000
v -0.0024000 0.0000000 -0.0000000
v -0.0022174 0.0016000 0.0009185
v -0.0022174 0.0000000 0.0009185
v -0.0016970 0.0016000 0.0016970
v -0.0016970 0.0000000 0.0016970
v -0.0009185 0.0016000 0.0022174
v -0.0009185 0.0000000 0.0022174
v 0.0000000 0.0016000 0.0024000
v 0.0000000 0.0000000 0.0024000
v 0.0009185 0.0016000 0.0022174
v 0.0009185 0.0000000 0.0022174
v 0.0016970 0.0016000 0.0016970
v 0.0016970 0.0000000 0.0016970
v 0.0022174 0.0016000 0.0009185
v 0.0022174 0.0000000 0.0009185
v 0.0029565 0.0000000 -0.0012246
v 0.0029565 0.0016000 -0.0012246
v 0.0032000 0.0016000 -0.0000000
v 0.0032000 0.0000000 -0.0000000
v 0.0022627 0.0000000 -0.0022627
v 0.0022627 0.0016000 -0.0022627
v 0.0012246 0.0000000 -0.0029565
v 0.0012246 0.0016000 -0.0029565
v 0.0000000 0.0000000 -0.0032000
v 0.0000000 0.0016000 -0.0032000
v -0.0012246 0.0000000 -0.0029565
v -0.0012246 0.0016000 -0.0029565
v -0.0022627 0.0000000 -0.0022627
v -0.0022627 0.0016000 -0.0022627
v -0.0029565 0.0000000 -0.0012246
v -0.0029565 0.0016000 -0.0012246
v -0.0032000 0.0000000 -0.0000000
v -0.0032000 0.0016000 -0.0000000
v -0.0029565 0.0000000 0.0012246
v -0.0029565 0.0016000 0.0012246
v -0.0022627 0.0000000 0.0022627
v -0.0022627 0.0016000 0.0022627
v -0.0012246 0.0000000 0.0029565
v -0.0012246 0.0016000 0.0029565
v 0.0000000 0.0000000 0.0032000
v 0.0000000 0.0016000 0.0032000
v 0.0012246 0.0000000 0.0029565
v 0.0012246 0.0016000 0.0029565
v 0.0022627 0.0000000 0.0022627
v 0.0022627 0.0016000 0.0022627
v 0.0029565 0.0000000 0.0012246
v 0.0029565 0.0016000 0.0012246
v -0.0056000 0.0016000 -0.0000000
v -0.0057826 0.0016000 -0.0009185
v -0.0057826 0.0000000 -0.0009185
v -0.0056000 0.0000000 -0.0000000
v -0.0063030 0.0016000 -0.0016970
v -0.0063030 0.0000000 -0.0016970
v -0.0070815 0.0016000 -0.0022174
v -0.0070815 0.0000000 -0.0022174
v -0.0080000 0.0016000 -0.0024000
v -0.0080000 0.0000000 -0.0024000
v -0.0089185 0.0016000 -0.0022174
v -0.0089185 0.0000000 -0.0022174
v -0.0096970 0.0016000 -0.0016970
v -0.0096970 0.0000000 -0.0016970
v -0.0102174 0.0016000 -0.0009185
v -0.0102174 0.0000000 -0.0009185
v -0.0104000 0.0016000 -0.0000000
v -0.0104000 0.0000000 -0.0000000
v -0.0102174 0.0016000 0.0009185
v -0.0102174 0.0000000 0.0009185
v -0.0096970 0.0016000 0.0016970
v -0.0096970 0.0000000 0.0016970
v -0.0089185 0.0016000 0.0022174
v -0.0089185 0.0000000 0.0022174
v -0.0080000 0.0016000 0.0024000
v -0.0080000 0.0000000 0.0024000
v -0.0070815 0.0016000 0.0022174
v -0.0070815 0.0000000 0.0022174
v -0.0063030 0.0016000 0.0016970
v -0.0063030 0.0000000 0.0016970
v -0.0057826 0.0016000 0.0009185
v -0.0057826 0.0000000 0.0009185
v -0.0050435 0.0000000 -0.0012246
v -0.0050435 0.0016000 -0.0012246
v -0.0048000 0.0016000 -0.0000000
v -0.0048000 0.0000000 -0.0000000
v -0.0057373 0.0000000 -0.0022627
v -0.0057373 0.0016000 -0.0022627
v -0.0067754 0.0000000 -0.0029565
v -0.0067754 0.0016000 -0.0029565
v -0.0080000 0.0000000 -0.0032000
v -0.0080000 0.0016000 -0.0032000
v -0.0092246 0.0000000 -0.0029565
v -0.0092246 0.0016000 -0.0029565
v -0.0102627 0.0000000 -0.0022627
v -0.0102627 0.0016000 -0.0022627
v -0.0109565 0.0000000 -0.0012246
v -0.0109565 0.0016000 -0.0012246
v -0.0112000 0.0000000 -0.0000000
v -0.0112000 0.0016000 -0.0000000
v -0.0109565 0.0000000 0.0012246
v -0.0109565 0.0016000 0.0012246
v -0.0102627 0.0000000 0.0022627
v -0.0102627 0.0016000 0.0022627
v -0.0092246 0.0000000 0.0029565
v -0.0092246 0.0016000 0.0029565
v -0.0080000 0.0000000 0.0032000
v -0.0080000 0.0016000 0.0032000
v -0.0067754 0.0000000 0.0029565
v -0.0067754 0.0016000 0.0029565
v -0.0057373 0.0000000 0.0022627
v -0.0057373 0.0016000 0.0022627
v -0.0050435 0.0000000 0.0012246
v -0.0050435 0.0016000 0.0012246
v -0.0136000 0.0016000 -0.0000000
v -0.0137826 0.0016000 -0.0009185
v -0.0137826 0.0000000 -0.0009185
v -0.0136000 0.0000000 -0.0000000
v -0.0143030 0.0016000 -0.0016970
v -0.0143030 0.0000000 -0.0016970
v -0.0150815 0.0016000 -0.0022174
v -0.0150815 0.0000000 -0.0022174
v -0.0160000 0.0016000 -0.0024000
v -0.0160000 0.0000000 -0.0024000
v -0.0169185 0.0016000 -0.0022174
v -0.0169185 0.0000000 -0.0022174
v -0.0176970 0.0016000 -0.0016970
v -0.0176970 0.0000000 -0.0016970
v -0.0182174 0.0016000 -0.0009185
v -0.0182174 0.0000000 -0.0009185
v -0.0184000 0.0016000 -0.0000000
v -0.0184000 0.0000000 -0.0000000
v -0.0182174 0.0016000 0.0009185
v -0.0182174 0.0000000 0.0009185
v -0.0176970 0.0016000 0.0016970
v -0.0176970 0.0000000 0.0016970
v -0.0169185 0.0016000 0.0022174
v -0.0169185 0.0000000 0.0022174
v -0.0160000 0.0016000 0.0024000
v -0.0160000 0.0000000 0.0024000
v -0.0150815 0.0016000 0.0022174
v -0.0150815 0.0000000 0.0022174
v -0.0143030 0.0016000 0.0016970
v -0.0143030 0.0000000 0.0016970
v -0.0137826 0.0016000 0.0009185
v -0.0137826 0.0000000 0.0009185
v -0.0130435 0.0000000 -0.0012246
v -0.0130435 0.0016000 -0.0012246
v -0.0128000 0.0016000 -0.0000000
v -0.0128000 0.0000000 -0.0000000
v -0.0137373 0.0000000 -0.0022627
v -0.0137373 0.0016000 -0.0022627
v -0.0147754 0.0000000 -0.0029565
v -0.0147754 0.0016000 -0.0029565
v -0.0160000 0.0000000 -0.0032000
v -0.0160000 0.0016000 -0.0032000
v -0.0172246 0.0000000 -0.0029565
v -0.0172246 0.0016000 -0.0029565
v -0.0182627 0.0000000 -0.0022627
v -0.0182627 0.0016000 -0.0022627
v -0.0189565 0.0000000 -0.0012246
v -0.0189565 0.0016000 -0.0012246
v -0.0192000 0.0000000 -0.0000000
v -0.0192000 0.0016000 -0.0000000
v -0.0189565 0.0000000 0.0012246
v -0.0189565 0.0016000 0.0012246
v -0.0182627 0.0000000 0.0022627
v -0.0182627 0.0016000 0.0022627
v -0.0172246 0.0000000 0.0029565
v -0.0172246 0.0016000 0.0029565
v -0.0160000 0.0000000 0.0032000
v -0.0160000 0.0016000 0.0032000
v -0.0147754 0.0000000 0.0029565
v -0.0147754 0.0016000 0.0029565
v -0.0137373 0.0000000 0.0022627
v -0.0137373 0.0016000 0.0022627
v -0.0130435 0.0000000 0.0012246
v -0.0130435 0.0016000 0.0012246
v -0.0216000 0.0016000 -0.0000000
v -0.0217826 0.0016000 -0.0009185
v -0.0217826 0.0000000 -0.0009185
v -0.0216000 0.0000000 -0.0000000
v -0.0223030 0.0016000 -0.0016970
v -0.0223030 0.0000000 -0.0016970
v -0.0230815 0.0016000 -0.0022174
v -0.0230815 0.0000000 -0.0022174
v -0.0240000 0.0016000 -0.0024000
v -0.0240000 0.0000000 -0.0024000
v -0.0249185 0.0016000 -0.0022174
v -0.0249185 0.0000000 -0.0022174
v -0.0256970 0.0016000 -0.0016970
v -0.0256970 0.0000000 -0.0016970
v -0.0262174 0.0016000 -0.0009185
v -0.0262174 0.0000000 -0.0009185
v -0.0264000 0.0016000 -0.0000000
v -0.0264000 0.0000000 -0.0000000
v -0.0262174 0.0016000 0.0009185
v -0.0262174 0.0000000 0.0009185
v -0.0256970 0.0016000 0.0016970
v -0.0256970 0.0000000 0.0016970
v -0.0249185 0.0016000 0.0022174
v -0.0249185 0.0000000 0.0022174
v -0.0240000 0.0016000 0.0024000
v -0.0240000 0.0000000 0.0024000
v -0.0230815 0.0016000 0.0022174
v -0.0230815 0.0000000 0.0022174
v -0.0223030 0.0016000 0.0016970
v -0.0223030 0.0000000 0.0016970
v -0.0217826 0.0016000 0.0009185
v -0.0217826 0.0000000 0.0009185
v -0.0210435 0.0000000 -0.0012246
v -0.0210435 0.0016000 -0.0012246
v -0.0208000 0.0016000 -0.0000000
v -0.0208000 0.0000000 -0.0000000
v -0.0217373 0.0000000 -0.0022627
v -0.0217373 0.0016000 -0.0022627
v -0.0227754 0.0000000 -0.0029565
v -0.0227754 0.0016000 -0.0029565
v -0.0240000 0.0000000 -0.0032000
v -0.0240000 0.0016000 -0.0032000
v -0.0252246 0.0000000 -0.0029565
v -0.0252246 0.0016000 -0.0029565
v -0.0262627 0.0000000 -0.0022627
v -0.0262627 0.0016000 -0.0022627
v -0.0269565 0.0000000 -0.0012246
v -0.0269565 0.0016000 -0.0012246
v -0.0272000 0.0000000 -0.0000000
v -0.0272000 0.0016000 -0.0000000
v -0.0269565 0.0000000 0.0012246
v -0.0269565 0.0016000 0.0012246
v -0.0262627 0.0000000 0.0022627
v -0.0262627 0.0016000 0.0022627
v -0.0252246 0.0000000 0.0029565
v -0.0252246 0.0016000 0.0029565
v -0.0240000 0.0000000 0.0032000
v -0.0240000 0.0016000 0.0032000
v -0.0227754 0.0000000 0.0029565
v -0.0227754 0.0016000 0.0029565
v -0.0217373 0.0000000 0.0022627
v -0.0217373 0.0016000 0.0022627
v -0.0210435 0.0000000 0.0012246
v -0.0210435 0.0016000 0.0012246
v 0.0262174 0.0032000 -0.0009185
v 0.0264000 0.0032000 -0.0000000
v 0.0256970 0.0032000 -0.0016970
v 0.0249185 0.0032000 -0.0022174
v 0.0240000 0.0032000 -0.0024000
v 0.0230815 0.0032000 -0.0022174
v 0.0223030 0.0032000 -0.0016970
v 0.0217826 0.0032000 -0.0009185
v 0.0216000 0.0032000 -0.0000000
v 0.0217826 0.0032000 0.0009185
v 0.0223030 0.0032000 0.0016970
v 0.0230815 0.0032000 0.0022174
v 0.0240000 0.0032000 0.0024000
v 0.0249185 0.0032000 0.0022174
v 0.0256970 0.0032000 0.0016970
v 0.0262174 0.0032000 0.0009185
v 0.0182174 0.0032000 -0.0009185
v 0.0184000 0.0032000 -0.0000000
v 0.0176970 0.0032000 -0.0016970
v 0.0169185 0.0032000 -0.0022174
v 0.0160000 0.0032000 -0.0024000
v 0.0150815 0.0032000 -0.0022174
v 0.0143030 0.0032000 -0.0016970
v 0.0137826 0.0032000 -0.0009185
v 0.0136000 0.0032000 -0.0000000
v 0.0137826 0.0032000 0.0009185
v 0.0143030 0.0032000 0.0016970
v 0.0150815 0.0032000 0.0022174
v 0.0160000 0.0032000 0.0024000
v 0.0169185 0.0032000 0.0022174
v 0.0176970 0.0032000 0.0016970
v 0.0182174 0.0032000 0.0009185
v 0.0102174 0.0032000 -0.0009185
v 0.0104000 0.0032000 -0.0000000
v 0.0096970 0.0032000 -0.0016970
v 0.0089185 0.0032000 -0.0022174
v 0.0080000 0.0032000 -0.0024000
v 0.0070815 0.0032000 -0.0022174
v 0.0063030 0.0032000 -0.0016970
v 0.0057826 0.0032000 -0.0009185
v 0.0056000 0.0032000 -0.0000000
v 0.0057826 0.0032000 0.0009185
v 0.0063030 0.0032000 0.0016970
v 0.0070815 0.0032000 0.0022174
v 0.0080000 0.0032000 0.0024000
v 0.0089185 0.0032000 0.0022174
v 0.0096970 0.0032000 0.0016970
v 0.0102174 0.0032000 0.0009185
v 0.0022174 0.0032000 -0.0009185
v 0.0024000 0.0032000 -0.0000000
v 0.0016970 0.0032000 -0.0016970
v 0.0009185 0.0032000 -0.0022174
v 0.0000000 0.0032000 -0.0024000
v -0.0009185 0.0032000 -0.0022174
v -0.0016970 0.0032000 -0.0016970
v -0.0022174 0.0032000 -0.0009185
v -0.0024000 0.0032000 -0.0000000
v -0.0022174 0.0032000 0.0009185
v -0.0016970 0.0032000 0.0016970
v -0.0009185 0.0032000 0.0022174
v 0.0000000 0.0032000 0.0024000
v 0.0009185 0.0032000 0.0022174
v 0.0016970 0.0032000 0.0016970
v 0.0022174 0.0032000 0.0009185
v -0.0057826 0.0032000 -0.0009185
v -0.0056000 0.0032000 -0.0000000
v -0.0063030 0.0032000 -0.0016970
v -0.0070815 0.0032000 -0.0022174
v -0.0080000 0.0032000 -0.0024000
v -0.0089185 0.0032000 -0.0022174
v -0.0096970 0.0032000 -0.0016970
v -0.0102174 0.0032000 -0.0009185
v -0.0104000 0.0032000 -0.0000000
v -0.0102174 0.0032000 0.0009185
v -0.0096970 0.0032000 0.0016970
v -0.0089185 0.0032000 0.0022174
v -0.0080000 0.0032000 0.0024000
v -0.0070815 0.0032000 0.0022174
v -0.0063030 0.0032000 0.0016970
v -0.0057826 0.0032000 0.0009185
v -0.0137826 0.0032000 -0.0009185
v -0.0136000 0.0032000 -0.0000000
v -0.0143030 0.0032000 -0.0016970
v -0.0150815 0.0032000 -0.0022174
v -0.0160000 0.0032000 -0.0024000
v -0.0169185 0.0032000 -0.0022174
v -0.0176970 0.0032000 -0.0016970
v -0.0182174 0.0032000 -0.0009185
v -0.0184000 0.0032000 -0.0000000
v -0.0182174 0.0032000 0.0009185
v -0.0176970 0.0032000 0.0016970
v -0.0169185 0.0032000 0.0022174
v -0.0160000 0.0032000 0.0024000
v -0.0150815 0.0032000 0.0022174
v -0.0143030 0.0032000 0.0016970
v -0.0137826 0.0032000 0.0009185
v -0.0217826 0.0032000 -0.0009185
v -0.0216000 0.0032000 -0.0000000
v -0.0223030 0.0032000 -0.0016970
v -0.0230815 0.0032000 -0.0022174
v -0.0240000 0.0032000 -0.0024000
v -0.0249185 0.0032000 -0.0022174
v -0.0256970 0.0032000 -0.0016970
v -0.0262174 0.0032000 -0.0009185
v -0.0264000 0.0032000 -0.0000000
v -0.0262174 0.0032000 0.0009185
v -0.0256970 0.0032000 0.0016970
v -0.0249185 0.0032000 0.0022174
v -0.0240000 0.0032000 0.0024000
v -0.0230815 0.0032000 0.0022174
v -0.0223030 0.0032000 0.0016970
v -0.0217826 0.0032000 0.0009185
v 0.0272000 0.0016000 -0.0032000
v 0.0208000 0.0016000 -0.0032000
v 0.0208000 0.0016000 0.0032000
v 0.0272000 0.0016000 0.0032000
v 0.0192000 0.0016000 -0.0032000
v 0.0128000 0.0016000 -0.0032000
v 0.0128000 0.0016000 0.0032000
v 0.0192000 0.0016000 0.0032000
v 0.0112000 0.0016000 -0.0032000
v 0.0048000 0.0016000 -0.0032000
v 0.0048000 0.0016000 0.0032000
v 0.0112000 0.0016000 0.0032000
v 0.0032000 0.0016000 -0.0032000
v -0.0032000 0.0016000 -0.0032000
v -0.0032000 0.0016000 0.0032000
v 0.0032000 0.0016000 0.0032000
v -0.0048000 0.0016000 -0.0032000
v -0.0112000 0.0016000 -0.0032000
v -0.0112000 0.0016000 0.0032000
v -0.0048000 0.0016000 0.0032000
v -0.0128000 0.0016000 -0.0032000
v -0.0192000 0.0016000 -0.0032000
v -0.0192000 0.0016000 0.0032000
v -0.0128000 0.0016000 0.0032000
v -0.0208000 0.0016000 -0.0032000
v -0.0272000 0.0016000 -0.0032000
v -0.0272000 0.0016000 0.0032000
v -0.0208000 0.0016000 0.0032000
v 0.0264000 0.0032000 -0.0024000
v 0.0216000 0.0032000 -0.0024000
v 0.0216000 0.0032000 0.0024000
v 0.0264000 0.0032000 0.0024000
v 0.0184000 0.0032000 -0.0024000
v 0.0136000 0.0032000 -0.0024000
v 0.0136000 0.0032000 0.0024000
v 0.0184000 0.0032000 0.0024000
v 0.0104000 0.0032000 -0.0024000
v 0.0056000 0.0032000 -0.0024000
v 0.0056000 0.0032000 0.0024000
v 0.0104000 0.0032000 0.0024000
v 0.0024000 0.0032000 -0.0024000
v -0.0024000 0.0032000 -0.0024000
v -0.0024000 0.0032000 0.0024000
v 0.0024000 0.0032000 0.0024000
v -0.0056000 0.0032000 -0.0024000
v -0.0104000 0.0032000 -0.0024000
v -0.0104000 0.0032000 0.0024000
v -0.0056000 0.0032000 0.0024000
v -0.0136000 0.0032000 -0.0024000
v -0.0184000 0.0032000 -0.0024000
v -0.0184000 0.0032000 0.0024000
v -0.0136000 0.0032000 0.0024000
v -0.0216000 0.0032000 -0.0024000
v -0.0264000 0.0032000 -0.0024000
v -0.0264000 0.0032000 0.0024000
v -0.0216000 0.0032000 0.0024000
v 0.0302174 0.0032000 -0.0049185
v 0.0302174 0.0048000 -0.0049185
v 0.0304000 0.0048000 -0.0040000
v 0.0304000 0.0032000 -0.0040000
v 0.0296970 0.0032000 -0.0056970
v 0.0296970 0.0048000 -0.0056970
v 0.0289185 0.0032000 -0.0062174
v 0.0289185 0.0048000 -0.0062174
v 0.0280000 0.0032000 -0.0064000
v 0.0280000 0.0048000 -0.0064000
v 0.0270815 0.0032000 -0.0062174
v 0.0270815 0.0048000 -0.0062174
v 0.0263030 0.0032000 -0.0056970
v 0.0263030 0.0048000 -0.0056970
v 0.0257826 0.0032000 -0.0049185
v 0.0257826 0.0048000 -0.0049185
v 0.0256000 0.0032000 -0.0040000
v 0.0256000 0.0048000 -0.0040000
v 0.0257826 0.0032000 -0.0030815
v 0.0257826 0.0048000 -0.0030815
v 0.0263030 0.0032000 -0.0023030
v 0.0263030 0.0048000 -0.0023030
v 0.0270815 0.0032000 -0.0017826
v 0.0270815 0.0048000 -0.0017826
v 0.0280000 0.0032000 -0.0016000
v 0.0280000 0.0048000 -0.0016000
v 0.0289185 0.0032000 -0.0017826
v 0.0289185 0.0048000 -0.0017826
v 0.0296970 0.0032000 -0.0023030
v 0.0296970 0.0048000 -0.0023030
v 0.0302174 0.0032000 -0.0030815
v 0.0302174 0.0048000 -0.0030815
v 0.0280000 0.0048000 -0.0040000
v 0.0222174 0.0032000 -0.0049185
v 0.0222174 0.0048000 -0.0049185
v 0.0224000 0.0048000 -0.0040000
v 0.0224000 0.0032000 -0.0040000
v 0.0216970 0.0032000 -0.0056970
v 0.0216970 0.0048000 -0.0056970
v 0.0209185 0.0032000 -0.0062174
v 0.0209185 0.0048000 -0.0062174
v 0.0200000 0.0032000 -0.0064000
v 0.0200000 0.0048000 -0.0064000
v 0.0190815 0.0032000 -0.0062174
v 0.0190815 0.0048000 -0.0062174
v 0.0183030 0.0032000 -0.0056970
v 0.0183030 0.0048000 -0.0056970
v 0.0177826 0.0032000 -0.0049185
v 0.0177826 0.0048000 -0.0049185
v 0.0176000 0.0032000 -0.0040000
v 0.0176000 0.0048000 -0.0040000
v 0.0177826 0.0032000 -0.0030815
v 0.0177826 0.0048000 -0.0030815
v 0.0183030 0.0032000 -0.0023030
v 0.0183030 0.0048000 -0.0023030
v 0.0190815 0.0032000 -0.0017826
v 0.0190815 0.0048000 -0.0017826
v 0.0200000 0.0032000 -0.0016000
v 0.0200000 0.0048000 -0.0016000
v 0.0209185 0.0032000 -0.0017826
v 0.0209185 0.0048000 -0.0017826
v 0.0216970 0.0032000 -0.0023030
v 0.0216970 0.0048000 -0.0023030
v 0.0222174 0.0032000 -0.0030815
v 0.0222174 0.0048000 -0.0030815
v 0.0200000 0.0048000 -0.0040000
v 0.0142174 0.0032000 -0.0049185
v 0.0142174 0.0048000 -0.0049185
v 0.0144000 0.0048000 -0.0040000
v 0.0144000 0.0032000 -0.0040000
v 0.0136970 0.0032000 -0.0056970
v 0.0136970 0.0048000 -0.0056970
v 0.0129185 0.0032000 -0.0062174
v 0.0129185 0.0048000 -0.0062174
v 0.0120000 0.0032000 -0.0064000
v 0.0120000 0.0048000 -0.0064000
v 0.0110815 0.0032000 -0.0062174
v 0.0110815 0.0048000 -0.0062174
v 0.0103030 0.0032000 -0.0056970
v 0.0103030 0.0048000 -0.0056970
v 0.0097826 0.0032000 -0.0049185
v 0.0097826 0.0048000 -0.0049185
v 0.0096000 0.0032000 -0.0040000
v 0.0096000 0.0048000 -0.0040000
v 0.0097826 0.0032000 -0.0030815
v 0.0097826 0.0048000 -0.0030815
v 0.0103030 0.0032000 -0.0023030
v 0.0103030 0.0048000 -0.0023030
v 0.0110815 0.0032000 -0.0017826
v 0.0110815 0.0048000 -0.0017826
v 0.0120000 0.0032000 -0.0016000
v 0.0120000 0.0048000 -0.0016000
v 0.0129185 0.0032000 -0.0017826
v 0.0129185 0.0048000 -0.0017826
v 0.0136970 0.0032000 -0.0023030
v 0.0136970 0.0048000 -0.0023030
v 0.0142174 0.0032000 -0.0030815
v 0.0142174 0.0048000 -0.0030815
v 0.0120000 0.0048000 -0.0040000
v 0.0062174 0.0032000 -0.0049185
v 0.0062174 0.0048000 -0.0049185
v 0.0064000 0.0048000 -0.0040000
v 0.0064000 0.0032000 -0.0040000
v 0.0056970 0.0032000 -0.0056970
v 0.0056970 0.0048000 -0.0056970
v 0.0049185 0.0032000 -0.0062174
v 0.0049185 0.0048000 -0.0062174
v 0.0040000 0.0032000 -0.0064000
v 0.0040000 0.0048000 -0.0064000
v 0.0030815 0.0032000 -0.0062174
v 0.0030815 0.0048000 -0.0062174
v 0.0023030 0.0032000 -0.0056970
v 0.0023030 0.0048000 -0.0056970
v 0.0017826 0.0032000 -0.0049185
v 0.0017826 0.0048000 -0.0049185
v 0.0016000 0.0032000 -0.0040000
v 0.0016000 0.0048000 -0.0040000
v 0.0017826 0.0032000 -0.0030815
v 0.0017826 0.0048000 -0.0030815
v 0.0023030 0.0032000 -0.0023030
v 0.0023030 0.0048000 -0.0023030
v 0.0030815 0.0032000 -0.0017826
v 0.0030815 0.0048000 -0.0017826
v 0.0040000 0.0032000 -0.0016000
v 0.0040000 0.0048000 -0.0016000
v 0.0049185 0.0032000 -0.0017826
v 0.0049185 0.0048000 -0.0017826
v 0.0056970 0.0032000 -0.0023030
v 0.0056970 0.0048000 -0.0023030
v 0.0062174 0.0032000 -0.0030815
v 0.0062174 0.0048000 -0.0030815
v 0.0040000 0.0048000 -0.0040000
v -0.0017826 0.0032000 -0.0049185
v -0.0017826 0.0048000 -0.0049185
v -0.0016000 0.0048000 -0.0040000
v -0.0016000 0.0032000 -0.0040000
v -0.0023030 0.0032000 -0.0056970
v -0.0023030 0.0048000 -0.0056970
v -0.0030815 0.0032000 -0.0062174
v -0.0030815 0.0048000 -0.0062174
v -0.0040000 0.0032000 -0.0064000
v -0.0040000 0.0048000 -0.0064000
v -0.0049185 0.0032000 -0.0062174
v -0.0049185 0.0048000 -0.0062174
v -0.0056970 0.0032000 -0.0056970
v -0.0056970 0.0048000 -0.0056970
v -0.0062174 0.0032000 -0.0049185
v -0.0062174 0.0048000 -0.0049185
v -0.0064000 0.0032000 -0.0040000
v -0.0064000 0.0048000 -0.0040000
v -0.0062174 0.0032000 -0.0030815
v -0.0062174 0.0048000 -0.0030815
v -0.0056970 0.0032000 -0.0023030
v -0.0056970 0.0048000 -0.0023030
v -0.0049185 0.0032000 -0.0017826
v -0.0049185 0.0048000 -0.0017826
v -0.0040000 0.0032000 -0.0016000
v -0.0040000 0.0048000 -0.0016000
v -0.0030815 0.0032000 -0.0017826
v -0.0030815 0.0048000 -0.0017826
v -0.0023030 0.0032000 -0.0023030
v -0.0023030 0.0048000 -0.0023030
v -0.0017826 0.0032000 -0.0030815
v -0.0017826 0.0048000 -0.0030815
v -0.0040000 0.0048000 -0.0040000
v -0.0097826 0.0032000 -0.0049185
v -0.0097826 0.0048000 -0.0049185
v -0.0096000 0.0048000 -0.0040000
v -0.0096000 0.0032000 -0.0040000
v -0.0103030 0.0032000 -0.0056970
v -0.0103030 0.0048000 -0.0056970
v -0.0110815 0.0032000 -0.0062174
v -0.0110815 0.0048000 -0.0062174
v -0.0120000 0.0032000 -0.0064000
v -0.0120000 0.0048000 -0.0064000
v -0.0129185 0.0032000 -0.0062174
v -0.0129185 0.0048000 -0.0062174
v -0.0136970 0.0032000 -0.0056970
v -0.0136970 0.0048000 -0.0056970
v -0.0142174 0.0032000 -0.0049185
v -0.0142174 0.0048000 -0.0049185
v -0.0144000 0.0032000 -0.0040000
v -0.0144000 0.0048000 -0.0040000
v -0.0142174 0.0032000 -0.0030815
v -0.0142174 0.0048000 -0.0030815
v -0.0136970 0.0032000 -0.0023030
v -0.0136970 0.0048000 -0.0023030
v -0.0129185 0.0032000 -0.0017826
v -0.0129185 0.0048000 -0.0017826
v -0.0120000 0.0032000 -0.0016000
v -0.0120000 0.0048000 -0.0016000
v -0.0110815 0.0032000 -0.0017826
v -0.0110815 0.0048000 -0.0017826
v -0.0103030 0.0032000 -0.0023030
v -0.0103030 0.0048000 -0.0023030
v -0.0097826 0.0032000 -0.0030815
v -0.0097826 0.0048000 -0.0030815
v -0.0120000 0.0048000 -0.0040000
v -0.0177826 0.0032000 -0.0049185
v -0.0177826 0.0048000 -0.0049185
v -0.0176000 0.0048000 -0.0040000
v -0.0176000 0.0032000 -0.0040000
v -0.0183030 0.0032000 -0.0056970
v -0.0183030 0.0048000 -0.0056970
v -0.0190815 0.0032000 -0.0062174
v -0.0190815 0.0048000 -0.0062174
v -0.0200000 0.0032000 -0.0064000
v -0.0200000 0.0048000 -0.0064000
v -0.0209185 0.0032000 -0.0062174
v -0.0209185 0.0048000 -0.0062174
v -0.0216970 0.0032000 -0.0056970
v -0.0216970 0.0048000 -0.0056970
v -0.0222174 0.0032000 -0.0049185
v -0.0222174 0.0048000 -0.0049185
v -0.0224000 0.0032000 -0.0040000
v -0.0224000 0.0048000 -0.0040000
v -0.0222174 0.0032000 -0.0030815
v -0.0222174 0.0048000 -0.0030815
v -0.0216970 0.0032000 -0.0023030
v -0.0216970 0.0048000 -0.0023030
v -0.0209185 0.0032000 -0.0017826
v -0.0209185 0.0048000 -0.0017826
v -0.0200000 0.0032000 -0.0016000
v -0.0200000 0.0048000 -0.0016000
v -0.0190815 0.0032000 -0.0017826
v -0.0190815 0.0048000 -0.0017826
v -0.0183030 0.0032000 -0.0023030
v -0.0183030 0.0048000 -0.0023030
v -0.0177826 0.0032000 -0.0030815
v -0.0177826 0.0048000 -0.0030815
v -0.0200000 0.0048000 -0.0040000
v -0.0257826 0.0032000 -0.0049185
v -0.0257826 0.0048000 -0.0049185
v -0.0256000 0.0048000 -0.0040000
v -0.0256000 0.0032000 -0.0040000
v -0.0263030 0.0032000 -0.0056970
v -0.0263030 0.0048000 -0.0056970
v -0.0270815 0.0032000 -0.0062174
v -0.0270815 0.0048000 -0.0062174
v -0.0280000 0.0032000 -0.0064000
v -0.0280000 0.0048000 -0.0064000
v -0.0289185 0.0032000 -0.0062174
v -0.0289185 0.0048000 -0.0062174
v -0.0296970 0.0032000 -0.0056970
v -0.0296970 0.0048000 -0.0056970
v -0.0302174 0.0032000 -0.0049185
v -0.0302174 0.0048000 -0.0049185
v -0.0304000 0.0032000 -0.0040000
v -0.0304000 0.0048000 -0.0040000
v -0.0302174 0.0032000 -0.0030815
v -0.0302174 0.0048000 -0.0030815
v -0.0296970 0.0032000 -0.0023030
v -0.0296970 0.0048000 -0.0023030
v -0.0289185 0.0032000 -0.0017826
v -0.0289185 0.0048000 -0.0017826
v -0.0280000 0.0032000 -0.0016000
v -0.0280000 0.0048000 -0.0016000
v -0.0270815 0.0032000 -0.0017826
v -0.0270815 0.0048000 -0.0017826
v -0.0263030 0.0032000 -0.0023030
v -0.0263030 0.0048000 -0.0023030
v -0.0257826 0.0032000 -0.0030815
v -0.0257826 0.0048000 -0.0030815
v -0.0280000 0.0048000 -0.0040000
v 0.0302174 0.0032000 0.0030815
v 0.0302174 0.0048000 0.0030815
v 0.0304000 0.0048000 0.0040000
v 0.0304000 0.0032000 0.0040000
v 0.0296970 0.0032000 0.0023030
v 0.0296970 0.0048000 0.0023030
v 0.0289185 0.0032000 0.0017826
v 0.0289185 0.0048000 0.0017826
v 0.0280000 0.0032000 0.0016000
v 0.0280000 0.0048000 0.0016000
v 0.0270815 0.0032000 0.0017826
v 0.0270815 0.0048000 0.0017826
v 0.0263030 0.0032000 0.0023030
v 0.0263030 0.0048000 0.0023030
v 0.0257826 0.0032000 0.0030815
v 0.0257826 0.0048000 0.0030815
v 0.0256000 0.0032000 0.0040000
v 0.0256000 0.0048000 0.0040000
v 0.0257826 0.0032000 0.0049185
v 0.0257826 0.0048000 0.0049185
v 0.0263030 0.0032000 0.0056970
v 0.0263030 0.0048000 0.0056970
v 0.0270815 0.0032000 0.0062174
v 0.0270815 0.0048000 0.0062174
v 0.0280000 0.0032000 0.0064000
v 0.0280000 0.0048000 0.0064000
v 0.0289185 0.0032000 0.0062174
v 0.0289185 0.0048000 0.0062174
v 0.0296970 0.0032000 0.0056970
v 0.0296970 0.0048000 0.0056970
v 0.0302174 0.0032000 0.0049185
v 0.0302174 0.0048000 0.0049185
v 0.0280000 0.0048000 0.0040000
v 0.0222174 0.0032000 0.0030815
v 0.0222174 0.0048000 0.0030815
v 0.0224000 0.0048000 0.0040000
v 0.0224000 0.0032000 0.0040000
v 0.0216970 0.0032000 0.0023030
v 0.0216970 0.0048000 0.0023030
v 0.0209185 0.0032000 0.0017826
v 0.0209185 0.0048000 0.0017826
v 0.0200000 0.0032000 0.0016000
v 0.0200000 0.0048000 0.0016000
v 0.0190815 0.0032000 0.0017826
v 0.0190815 0.0048000 0.0017826
v 0.0183030 0.0032000 0.0023030
v 0.0183030 0.0048000 0.0023030
v 0.0177826 0.0032000 0.0030815
v 0.0177826 0.0048000 0.0030815
v 0.0176000 0.0032000 0.0040000
v 0.0176000 0.0048000 0.0040000
v 0.0177826 0.0032000 0.0049185
v 0.0177826 0.0048000 0.0049185
v 0.0183030 0.0032000 0.0056970
v 0.0183030 0.0048000 0.0056970
v 0.0190815 0.0032000 0.0062174
v 0.0190815 0.0048000 0.0062174
v 0.0200000 0.0032000 0.0064000
v 0.0200000 0.0048000 0.0064000
v 0.0209185 0.0032000 0.0062174
v 0.0209185 0.0048000 0.0062174
v 0.0216970 0.0032000 0.0056970
v 0.0216970 0.0048000 0.0056970
v 0.0222174 0.0032000 0.0049185
v 0.0222174 0.0048000 0.0049185
v 0.0200000 0.0048000 0.0040000
v 0.0142174 0.0032000 0.0030815
v 0.0142174 0.0048000 0.0030815
v 0.0144000 0.0048000 0.0040000
v 0.0144000 0.0032000 0.0040000
v 0.0136970 0.0032000 0.0023030
v 0.0136970 0.0048000 0.0023030
v 0.0129185 0.0032000 0.0017826
v 0.0129185 0.0048000 0.0017826
v 0.0120000 0.0032000 0.0016000
v 0.0120000 0.0048000 0.0016000
v 0.0110815 0.0032000 0.0017826
v 0.0110815 0.0048000 0.0017826
v 0.0103030 0.0032000 0.0023030
v 0.0103030 0.0048000 0.0023030
v 0.0097826 0.0032000 0.0030815
v 0.0097826 0.0048000 0.0030815
v 0.0096000 0.0032000 0.0040000
v 0.0096000 0.0048000 0.0040000
v 0.0097826 0.0032000 0.0049185
v 0.0097826 0.0048000 0.0049185
v 0.0103030 0.0032000 0.0056970
v 0.0103030 0.0048000 0.0056970
v 0.0110815 0.0032000 0.0062174
v 0.0110815 0.0048000 0.0062174
v 0.0120000 0.0032000 0.0064000
v 0.0120000 0.0048000 0.0064000
v 0.0129185 0.0032000 0.0062174
v 0.0129185 0.0048000 0.0062174
v 0.0136970 0.0032000 0.0056970
v 0.0136970 0.0048000 0.0056970
v 0.0142174 0.0032000 0.0049185
v 0.0142174 0.0048000 0.0049185
v 0.0120000 0.0048000 0.0040000
v 0.0062174 0.0032000 0.0030815
v 0.0062174 0.0048000 0.0030815
v 0.0064000 0.0048000 0.0040000
v 0.0064000 0.0032000 0.0040000
v 0.0056970 0.0032000 0.0023030
v 0.0056970 0.0048000 0.0023030
v 0.0049185 0.0032000 0.0017826
v 0.0049185 0.0048000 0.0017826
v 0.0040000 0.0032000 0.0016000
v 0.0040000 0.0048000 0.0016000
v 0.0030815 0.0032000 0.0017826
v 0.0030815 0.0048000 0.0017826
v 0.0023030 0.0032000 0.0023030
v 0.0023030 0.0048000 0.0023030
v 0.0017826 0.0032000 0.0030815
v 0.0017826 0.0048000 0.0030815
v 0.0016000 0.0032000 0.0040000
v 0.0016000 0.0048000 0.0040000
v 0.0017826 0.0032000 0.0049185
v 0.0017826 0.0048000 0.0049185
v 0.0023030 0.0032000 0.0056970
v 0.0023030 0.0048000 0.0056970
v 0.0030815 0.0032000 0.0062174
v 0.0030815 0.0048000 0.0062174
v 0.0040000 0.0032000 0.0064000
v 0.0040000 0.0048000 0.0064000
v 0.0049185 0.0032000 0.0062174
v 0.0049185 0.0048000 0.0062174
v 0.0056970 0.0032000 0.0056970
v 0.0056970 0.0048000 0.0056970
v 0.0062174 0.0032000 0.0049185
v 0.0062174 0.0048000 0.0049185
v 0.0040000 0.0048000 0.0040000
v -0.0017826 0.0032000 0.0030815
v -0.0017826 0.0048000 0.0030815
v -0.0016000 0.0048000 0.0040000
v -0.0016000 0.0032000 0.0040000
v -0.0023030 0.0032000 0.0023030
v -0.0023030 0.0048000 0.0023030
v -0.0030815 0.0032000 0.0017826
v -0.0030815 0.0048000 0.0017826
v -0.0040000 0.0032000 0.0016000
v -0.0040000 0.0048000 0.0016000
v -0.0049185 0.0032000 0.0017826
v -0.0049185 0.0048000 0.0017826
v -0.0056970 0.0032000 0.0023030
v -0.0056970 0.0048000 0.0023030
v -0.0062174 0.0032000 0.0030815
v -0.0062174 0.0048000 0.0030815
v -0.0064000 0.0032000 0.0040000
v -0.0064000 0.0048000 0.0040000
v -0.0062174 0.0032000 0.0049185
v -0.0062174 0.0048000 0.0049185
v -0.0056970 0.0032000 0.0056970
v -0.0056970 0.0048000 0.0056970
v -0.0049185 0.0032000 0.0062174
v -0.0049185 0.0048000 0.0062174
v -0.0040000 0.0032000 0.0064000
v -0.0040000 0.0048000 0.0064000
v -0.0030815 0.0032000 0.0062174
v -0.0030815 0.0048000 0.0062174
v -0.0023030 0.0032000 0.0056970
v -0.0023030 0.0048000 0.0056970
v -0.0017826 0.0032000 0.0049185
v -0.0017826 0.0048000 0.0049185
v -0.0040000 0.0048000 0.0040000
v -0.0097826 0.0032000 0.0030815
v -0.0097826 0.0048000 0.0030815
v -0.0096000 0.0048000 0.0040000
v -0.0096000 0.0032000 0.0040000
v -0.0103030 0.0032000 0.0023030
v -0.0103030 0.0048000 0.0023030
v -0.0110815 0.0032000 0.0017826
v -0.0110815 0.0048000 0.0017826
v -0.0120000 0.0032000 0.0016000
v -0.0120000 0.0048000 0.0016000
v -0.0129185 0.0032000 0.0017826
v -0.0129185 0.0048000 0.0017826
v -0.0136970 0.0032000 0.0023030
v -0.0136970 0.0048000 0.0023030
v -0.0142174 0.0032000 0.0030815
v -0.0142174 0.0048000 0.0030815
v -0.0144000 0.0032000 0.0040000
v -0.0144000 0.0048000 0.0040000
v -0.0142174 0.0032000 0.0049185
v -0.0142174 0.0048000 0.0049185
v -0.0136970 0.0032000 0.0056970
v -0.0136970 0.0048000 0.0056970
v -0.0129185 0.0032000 0.0062174
v -0.0129185 0.0048000 0.0062174
v -0.0120000 0.0032000 0.0064000
v -0.0120000 0.0048000 0.0064000
v -0.0110815 0.0032000 0.0062174
v -0.0110815 0.0048000 0.0062174
v -0.0103030 0.0032000 0.0056970
v -0.0103030 0.0048000 0.0056970
v -0.0097826 0.0032000 0.0049185
v -0.0097826 0.0048000 0.0049185
v -0.0120000 0.0048000 0.0040000
v -0.0177826 0.0032000 0.0030815
v -0.0177826 0.0048000 0.0030815
v -0.0176000 0.0048000 0.0040000
v -0.0176000 0.0032000 0.0040000
v -0.0183030 0.0032000 0.0023030
v -0.0183030 0.0048000 0.0023030
v -0.0190815 0.0032000 0.0017826
v -0.0190815 0.0048000 0.0017826
v -0.0200000 0.0032000 0.0016000
v -0.0200000 0.0048000 0.0016000
v -0.0209185 0.0032000 0.0017826
v -0.0209185 0.0048000 0.0017826
v -0.0216970 0.0032000 0.0023030
v -0.0216970 0.0048000 0.0023030
v -0.0222174 0.0032000 0.0030815
v -0.0222174 0.0048000 0.0030815
v -0.0224000 0.0032000 0.0040000
v -0.0224000 0.0048000 0.0040000
v -0.0222174 0.0032000 0.0049185
v -0.0222174 0.0048000 0.0049185
v -0.0216970 0.0032000 0.0056970
v -0.0216970 0.0048000 0.0056970
v -0.0209185 0.0032000 0.0062174
v -0.0209185 0.0048000 0.0062174
v -0.0200000 0.0032000 0.0064000
v -0.0200000 0.0048000 0.0064000
v -0.0190815 0.0032000 0.0062174
v -0.0190815 0.0048000 0.0062174
v -0.0183030 0.0032000 0.0056970
v -0.0183030 0.0048000 0.0056970
v -0.0177826 0.0032000 0.0049185
v -0.0177826 0.0048000 0.0049185
v -0.0200000 0.0048000 0.0040000
v -0.0257826 0.0032000 0.0030815
v -0.0257826 0.0048000 0.0030815
v -0.0256000 0.0048000 0.0040000
v -0.0256000 0.0032000 0.0040000
v -0.0263030 0.0032000 0.0023030
v -0.0263030 0.0048000 0.0023030
v -0.0270815 0.0032000 0.0017826
v -0.0270815 0.0048000 0.0017826
v -0.0280000 0.0032000 0.0016000
v -0.0280000 0.0048000 0.0016000
v -0.0289185 0.0032000 0.0017826
v -0.0289185 0.0048000 0.0017826
v -0.0296970 0.0032000 0.0023030
v -0.0296970 0.0048000 0.0023030
v -0.0302174 0.0032000 0.0030815
v -0.0302174 0.0048000 0.0030815
v -0.0304000 0.0032000 0.0040000
v -0.0304000 0.0048000 0.0040000
v -0.0302174 0.0032000 0.0049185
v -0.0302174 0.0048000 0.0049185
v -0.0296970 0.0032000 0.0056970
v -0.0296970 0.0048000 0.0056970
v -0.0289185 0.0032000 0.0062174
v -0.0289185 0.0048000 0.0062174
v -0.0280000 0.0032000 0.0064000
v -0.0280000 0.0048000 0.0064000
v -0.0270815 0.0032000 0.0062174
v -0.0270815 0.0048000 0.0062174
v -0.0263030 0.0032000 0.0056970
v -0.0263030 0.0048000 0.0056970
v -0.0257826 0.0032000 0.0049185
v -0.0257826 0.0048000 0.0049185
v -0.0280000 0.0048000 0.0040000
f 1 2 3
f 1 3 4
f 5 6 2
f 5 2 1
f 7 8 6
f 7 6 5
f 4 3 8
f 4 8 7
f 9 10 11
f 12 9 11
f 10 13 14
f 11 10 14
f 13 15 16
f 14 13 16
f 15 9 12
f 16 15 12
f 17 18 19
f 17 19 20
f 18 21 22
f 18 22 19
f 21 23 24
f 21 24 22
f 23 25 26
f 23 26 24
f 25 27 28
f 25 28 26
f 27 29 30
f 27 30 28
f 29 31 32
f 29 32 30
f 31 33 34
f 31 34 32
f 33 35 36
f 33 36 34
f 35 37 38
f 35 38 36
f 37 39 40
f 37 40 38
f 39 41 42
f 39 42 40
f 41 43 44
f 41 44 42
f 43 45 46
f 43 46 44
f 45 47 48
f 45 48 46
f 47 17 20
f 47 20 48
f 49 50 51
f 52 49 51
f 53 54 50
f 49 53 50
f 55 56 54
f 53 55 54
f 57 58 56
f 55 57 56
f 59 60 58
f 57 59 58
f 61 62 60
f 59 61 60
f 63 64 62
f 61 63 62
f 65 66 64
f 63 65 64
f 67 68 66
f 65 67 66
f 69 70 68
f 67 69 68
f 71 72 70
f 69 71 70
f 73 74 72
f 71 73 72
f 75 76 74
f 73 75 74
f 77 78 76
f 75 77 76
f 79 80 78
f 77 79 78
f 52 51 80
f 79 52 80
f 26 28 59
f 57 26 59
f 28 30 61
f 59 28 61
f 30 32 63
f 61 30 63
f 32 34 65
f 63 32 65
f 34 36 67
f 65 34 67
f 36 38 69
f 67 36 69
f 38 40 71
f 69 38 71
f 40 42 73
f 71 40 73
f 42 44 75
f 73 42 75
f 44 46 77
f 75 44 77
f 46 48 79
f 77 46 79
f 48 20 52
f 79 48 52
f 20 19 49
f 52 20 49
f 19 22 53
f 49 19 53
f 22 24 55
f 53 22 55
f 24 26 57
f 55 24 57
f 81 82 83
f 81 83 84
f 82 85 86
f 82 86 83
f 85 87 88
f 85 88 86
f 87 89 90
f 87 90 88
f 89 91 92
f 89 92 90
f 91 93 94
f 91 94 92
f 93 95 96
f 93 96 94
f 95 97 98
f 95 98 96
f 97 99 100
f 97 100 98
f 99 101 102
f 99 102 100
f 101 103 104
f 101 104 102
f 103 105 106
f 103 106 104
f 105 107 108
f 105 108 106
f 107 109 110
f 107 110 108
f 109 111 112
f 109 112 110
f 111 81 84
f 111 84 112
f 113 114 115
f 116 113 115
f 117 118 114
f 113 117 114
f 119 120 118
f 117 119 118
f 121 122 120
f 119 121 120
f 123 124 122
f 121 123 122
f 125 126 124
f 123 125 124
f 127 128 126
f 125 127 126
f 129 130 128
f 127 129 128
f 131 132 130
f 129 131 130
f 133 134 132
f 131 133 132
f 135 136 134
f 133 135 134
f 137 138 136
f 135 137 136
f 139 140 138
f 137 139 138
f 141 142 140
f 139 141 140
f 143 144 142
f 141 143 142
f 116 115 144
f 143 116 144
f 90 92 123
f 121 90 123
f 92 94 125
f 123 92 125
f 94 96 127
f 125 94 127
f 96 98 129
f 127 96 129
f 98 100 131
f 129 98 131
f 100 102 133
f 131 100 133
f 102 104 135
f 133 102 135
f 104 106 137
f 135 104 137
f 106 108 139
f 137 106 139
f 108 110 141
f 139 108 141
f 110 112 143
f 141 110 143
f 112 84 116
f 143 112 116
f 84 83 113
f 116 84 113
f 83 86 117
f 113 83 117
f 86 88 119
f 117 86 119
f 88 90 121
f 119 88 121
f 145 146 147
f 145 147 148
f 146 149 150
f 146 150 147
f 149 151 152
f 149 152 150
f 151 153 154
f 151 154 152
f 153 155 156
f 153 156 154
f 155 157 158
f 155 158 156
f 157 159 160
f 157 160 158
f 159 161 162
f 159 162 160
f 161 163 164
f 161 164 162
f 163 165 166
f 163 166 164
f 165 167 168
f 165 168 166
f 167 169 170
f 167 170 168
f 169 171 172
f 169 172 170
f 171 173 174
f 171 174 172
f 173 175 176
f 173 176 174
f 175 145 148
f 175 148 176
f 177 178 179
f 180 177 179
f 181 182 178
f 177 181 178
f 183 184 182
f 181 183 182
f 185 186 184
f 183 185 184
f 187 188 186
f 185 187 186
f 189 190 188
f 187 189 188
f 191 192 190
f 189 191 190
f 193 194 192
f 191 193 192
f 195 196 194
f 193 195 194
f 197 198 196
f 195 197 196
f 199 200 198
f 197 199 198
f 201 202 200
f 199 201 200
f 203 204 202
f 201 203 202
f 205 206 204
f 203 205 204
f 207 208 206
f 205 207 206
f 180 179 208
f 207 180 208
f 154 156 187
f 185 154 187
f 156 158 189
f 187 156 189
f 158 160 191
f 189 158 191
f 160 162 193
f 191 160 193
f 162 164 195
f 193 162 195
f 164 166 197
f 195 164 197
f 166 168 199
f 197 166 199
f 168 170 201
f 199 168 201
f 170 172 203
f 201 170 203
f 172 174 205
f 203 172 205
f 174 176 207
f 205 174 207
f 176 148 180
f 207 176 180
f 148 147 177
f 180 148 177
f 147 150 181
f 177 147 181
f 150 152 183
f 181 150 183
f 152 154 185
f 183 152 185
f 209 210 211
f 209 211 212
f 210 213 214
f 210 214 211
f 213 215 216
f 213 216 214
f 215 217 218
f 215 218 216
f 217 219 220
f 217 220 218
f 219 221 222
f 219 222 220
f 221 223 224
f 221 224 222
f 223 225 226
f 223 226 224
f 225 227 228
f 225 228 226
f 227 229 230
f 227 230 228
f 229 231 232
f 229 232 230
f 231 233 234
f 231 234 232
f 233 235 236
f 233 236 234
f 235 237 238
f 235 238 236
f 237 239 240
f 237 240 238
f 239 209 212
f 239 212 240
f 241 242 243
f 244 241 243
f 245 246 242
f 241 245 242
f 247 248 246
f 245 247 246
f 249 250 248
f 247 249 248
f 251 252 250
f 249 251 250
f 253 254 252
f 251 253 252
f 255 256 254
f 253 255 254
f 257 258 256
f 255 257 256
f 259 260 258
f 257 259 258
f 261 262 260
f 259 261 260
f 263 264 262
f 261 263 262
f 265 266 264
f 263 265 264
f 267 268 266
f 265 267 266
f 269 270 268
f 267 269 268
f 271 272 270
f 269 271 270
f 244 243 272
f 271 244 272
f 218 220 251
f 249 218 251
f 220 222 253
f 251 220 253
f 222 224 255
f 253 222 255
f 224 226 257
f 255 224 257
f 226 228 259
f 257 226 259
f 228 230 261
f 259 228 261
f 230 232 263
f 261 230 263
f 232 234 265
f 263 232 265
f 234 236 267
f 265 234 267
f 236 238 269
f 267 236 269
f 238 240 271
f 269 238 271
f 240 212 244
f 271 240 244
f 212 211 241
f 244 212 241
f 211 214 245
f 241 211 245
f 214 216 247
f 245 214 247
f 216 218 249
f 247 216 249
f 273 274 275
f 273 275 276
f 274 277 278
f 274 278 275
f 277 279 280
f 277 280 278
f 279 281 282
f 279 282 280
f 281 283 284
f 281 284 282
f 283 285 286
f 283 286 284
f 285 287 288
f 285 288 286
f 287 289 290
f 287 290 288
f 289 291 292
f 289 292 290
f 291 293 294
f 291 294 292
f 293 295 296
f 293 296 294
f 295 297 298
f 295 298 296
f 297 299 300
f 297 300 298
f 299 301 302
f 299 302 300
f 301 303 304
f 301 304 302
f 303 273 276
f 303 276 304
f 305 306 307
f 308 305 307
f 309 310 306
f 305 309 306
f 311 312 310
f 309 311 310
f 313 314 312
f 311 313 312
f 315 316 314
f 313 315 314
f 317 318 316
f 315 317 316
f 319 320 318
f 317 319 318
f 321 322 320
f 319 321 320
f 323 324 322
f 321 323 322
f 325 326 324
f 323 325 324
f 327 328 326
f 325 327 326
f 329 330 328
f 327 329 328
f 331 332 330
f 329 331 330
f 333 334 332
f 331 333 332
f 335 336 334
f 333 335 334
f 308 307 336
f 335 308 336
f 282 284 315
f 313 282 315
f 284 286 317
f 315 284 317
f 286 288 319
f 317 286 319
f 288 290 321
f 319 288 321
f 290 292 323
f 321 290 323
f 292 294 325
f 323 292 325
f 294 296 327
f 325 294 327
f 296 298 329
f 327 296 329
f 298 300 331
f 329 298 331
f 300 302 333
f 331 300 333
f 302 304 335
f 333 302 335
f 304 276 308
f 335 304 308
f 276 275 305
f 308 276 305
f 275 278 309
f 305 275 309
f 278 280 311
f 309 278 311
f 280 282 313
f 311 280 313
f 337 338 339
f 337 339 340
f 338 341 342
f 338 342 339
f 341 343 344
f 341 344 342
f 343 345 346
f 343 346 344
f 345 347 348
f 345 348 346
f 347 349 350
f 347 350 348
f 349 351 352
f 349 352 350
f 351 353 354
f 351 354 352
f 353 355 356
f 353 356 354
f 355 357 358
f 355 358 356
f 357 359 360
f 357 360 358
f 359 361 362
f 359 362 360
f 361 363 364
f 361 364 362
f 363 365 366
f 363 366 364
f 365 367 368
f 365 368 366
f 367 337 340
f 367 340 368
f 369 370 371
f 372 369 371
f 373 374 370
f 369 373 370
f 375 376 374
f 373 375 374
f 377 378 376
f 375 377 376
f 379 380 378
f 377 379 378
f 381 382 380
f 379 381 380
f 383 384 382
f 381 383 382
f 385 386 384
f 383 385 384
f 387 388 386
f 385 387 386
f 389 390 388
f 387 389 388
f 391 392 390
f 389 391 390
f 393 394 392
f 391 393 392
f 395 396 394
f 393 395 394
f 397 398 396
f 395 397 396
f 399 400 398
f 397 399 398
f 372 371 400
f 399 372 400
f 346 348 379
f 377 346 379
f 348 350 381
f 379 348 381
f 350 352 383
f 381 350 383
f 352 354 385
f 383 352 385
f 354 356 387
f 385 354 387
f 356 358 389
f 387 356 389
f 358 360 391
f 389 358 391
f 360 362 393
f 391 360 393
f 362 364 395
f 393 362 395
f 364 366 397
f 395 364 397
f 366 368 399
f 397 366 399
f 368 340 372
f 399 368 372
f 340 339 369
f 372 340 369
f 339 342 373
f 369 339 373
f 342 344 375
f 373 342 375
f 344 346 377
f 375 344 377
f 401 402 403
f 401 403 404
f 402 405 406
f 402 406 403
f 405 407 408
f 405 408 406
f 407 409 410
f 407 410 408
f 409 411 412
f 409 412 410
f 411 413 414
f 411 414 412
f 413 415 416
f 413 416 414
f 415 417 418
f 415 418 416
f 417 419 420
f 417 420 418
f 419 421 422
f 419 422 420
f 421 423 424
f 421 424 422
f 423 425 426
f 423 426 424
f 425 427 428
f 425 428 426
f 427 429 430
f 427 430 428
f 429 431 432
f 429 432 430
f 431 401 404
f 431 404 432
f 433 434 435
f 436 433 435
f 437 438 434
f 433 437 434
f 439 440 438
f 437 439 438
f 441 442 440
f 439 441 440
f 443 444 442
f 441 443 442
f 445 446 444
f 443 445 444
f 447 448 446
f 445 447 446
f 449 450 448
f 447 449 448
f 451 452 450
f 449 451 450
f 453 454 452
f 451 453 452
f 455 456 454
f 453 455 454
f 457 458 456
f 455 457 456
f 459 460 458
f 457 459 458
f 461 462 460
f 459 461 460
f 463 464 462
f 461 463 462
f 436 435 464
f 463 436 464
f 410 412 443
f 441 410 443
f 412 414 445
f 443 412 445
f 414 416 447
f 445 414 447
f 416 418 449
f 447 416 449
f 418 420 451
f 449 418 451
f 420 422 453
f 451 420 453
f 422 424 455
f 453 422 455
f 424 426 457
f 455 424 457
f 426 428 459
f 457 426 459
f 428 430 461
f 459 428 461
f 430 432 463
f 461 430 463
f 432 404 436
f 463 432 436
f 404 403 433
f 436 404 433
f 403 406 437
f 433 403 437
f 406 408 439
f 437 406 439
f 408 410 441
f 439 408 441
f 465 18 17
f 466 465 17
f 467 21 18
f 465 467 18
f 468 23 21
f 467 468 21
f 469 25 23
f 468 469 23
f 470 27 25
f 469 470 25
f 471 29 27
f 470 471 27
f 472 31 29
f 471 472 29
f 473 33 31
f 472 473 31
f 474 35 33
f 473 474 33
f 475 37 35
f 474 475 35
f 476 39 37
f 475 476 37
f 477 41 39
f 476 477 39
f 478 43 41
f 477 478 41
f 479 45 43
f 478 479 43
f 480 47 45
f 479 480 45
f 466 17 47
f 480 466 47
f 481 82 81
f 482 481 81
f 483 85 82
f 481 483 82
f 484 87 85
f 483 484 85
f 485 89 87
f 484 485 87
f 486 91 89
f 485 486 89
f 487 93 91
f 486 487 91
f 488 95 93
f 487 488 93
f 489 97 95
f 488 489 95
f 490 99 97
f 489 490 97
f 491 101 99
f 490 491 99
f 492 103 101
f 491 492 101
f 493 105 103
f 492 493 103
f 494 107 105
f 493 494 105
f 495 109 107
f 494 495 107
f 496 111 109
f 495 496 109
f 482 81 111
f 496 482 111
f 497 146 145
f 498 497 145
f 499 149 146
f 497 499 146
f 500 151 149
f 499 500 149
f 501 153 151
f 500 501 151
f 502 155 153
f 501 502 153
f 503 157 155
f 502 503 155
f 504 159 157
f 503 504 157
f 505 161 159
f 504 505 159
f 506 163 161
f 505 506 161
f 507 165 163
f 506 507 163
f 508 167 165
f 507 508 165
f 509 169 167
f 508 509 167
f 510 171 169
f 509 510 169
f 511 173 171
f 510 511 171
f 512 175 173
f 511 512 173
f 498 145 175
f 512 498 175
f 513 210 209
f 514 513 209
f 515 213 210
f 513 515 210
f 516 215 213
f 515 516 213
f 517 217 215
f 516 517 215
f 518 219 217
f 517 518 217
f 519 221 219
f 518 519 219
f 520 223 221
f 519 520 221
f 521 225 223
f 520 521 223
f 522 227 225
f 521 522 225
f 523 229 227
f 522 523 227
f 524 231 229
f 523 524 229
f 525 233 231
f 524 525 231
f 526 235 233
f 525 526 233
f 527 237 235
f 526 527 235
f 528 239 237
f 527 528 237
f 514 209 239
f 528 514 239
f 529 274 273
f 530 529 273
f 531 277 274
f 529 531 274
f 532 279 277
f 531 532 277
f 533 281 279
f 532 533 279
f 534 283 281
f 533 534 281
f 535 285 283
f 534 535 283
f 536 287 285
f 535 536 285
f 537 289 287
f 536 537 287
f 538 291 289
f 537 538 289
f 539 293 291
f 538 539 291
f 540 295 293
f 539 540 293
f 541 297 295
f 540 541 295
f 542 299 297
f 541 542 297
f 543 301 299
f 542 543 299
f 544 303 301
f 543 544 301
f 530 273 303
f 544 530 303
f 545 338 337
f 546 545 337
f 547 341 338
f 545 547 338
f 548 343 341
f 547 548 341
f 549 345 343
f 548 549 343
f 550 347 345
f 549 550 345
f 551 349 347
f 550 551 347
f 552 351 349
f 551 552 349
f 553 353 351
f 552 553 351
f 554 355 353
f 553 554 353
f 555 357 355
f 554 555 355
f 556 359 357
f 555 556 357
f 557 361 359
f 556 557 359
f 558 363 361
f 557 558 361
f 559 365 363
f 558 559 363
f 560 367 365
f 559 560 365
f 546 337 367
f 560 546 367
f 561 402 401
f 562 561 401
f 563 405 402
f 561 563 402
f 564 407 405
f 563 564 405
f 565 409 407
f 564 565 407
f 566 411 409
f 565 566 409
f 567 413 411
f 566 567 411
f 568 415 413
f 567 568 413
f 569 417 415
f 568 569 415
f 570 419 417
f 569 570 417
f 571 421 419
f 570 571 419
f 572 423 421
f 571 572 421
f 573 425 423
f 572 573 423
f 574 427 425
f 573 574 425
f 575 429 427
f 574 575 427
f 576 431 429
f 575 576 429
f 562 401 431
f 576 562 431
f 4 12 11
f 4 11 1
f 1 11 14
f 1 14 5
f 5 14 16
f 5 16 7
f 7 16 12
f 7 12 4
f 577 51 50
f 577 50 54
f 577 54 56
f 577 56 58
f 578 58 60
f 578 60 62
f 578 62 64
f 578 64 66
f 579 66 68
f 579 68 70
f 579 70 72
f 579 72 74
f 580 74 76
f 580 76 78
f 580 78 80
f 580 80 51
f 581 115 114
f 581 114 118
f 581 118 120
f 581 120 122
f 582 122 124
f 582 124 126
f 582 126 128
f 582 128 130
f 583 130 132
f 583 132 134
f 583 134 136
f 583 136 138
f 584 138 140
f 584 140 142
f 584 142 144
f 584 144 115
f 585 179 178
f 585 178 182
f 585 182 184
f 585 184 186
f 586 186 188
f 586 188 190
f 586 190 192
f 586 192 194
f 587 194 196
f 587 196 198
f 587 198 200
f 587 200 202
f 588 202 204
f 588 204 206
f 588 206 208
f 588 208 179
f 589 243 242
f 589 242 246
f 589 246 248
f 589 248 250
f 590 250 252
f 590 252 254
f 590 254 256
f 590 256 258
f 591 258 260
f 591 260 262
f 591 262 264
f 591 264 266
f 592 266 268
f 592 268 270
f 592 270 272
f 592 272 243
f 593 307 306
f 593 306 310
f 593 310 312
f 593 312 314
f 594 314 316
f 594 316 318
f 594 318 320
f 594 320 322
f 595 322 324
f 595 324 326
f 595 326 328
f 595 328 330
f 596 330 332
f 596 332 334
f 596 334 336
f 596 336 307
f 597 371 370
f 597 370 374
f 597 374 376
f 597 376 378
f 598 378 380
f 598 380 382
f 598 382 384
f 598 384 386
f 599 386 388
f 599 388 390
f 599 390 392
f 599 392 394
f 600 394 396
f 600 396 398
f 600 398 400
f 600 400 371
f 601 435 434
f 601 434 438
f 601 438 440
f 601 440 442
f 602 442 444
f 602 444 446
f 602 446 448
f 602 448 450
f 603 450 452
f 603 452 454
f 603 454 456
f 603 456 458
f 604 458 460
f 604 460 462
f 604 462 464
f 604 464 435
f 9 577 602
f 9 602 10
f 10 602 603
f 10 603 13
f 13 603 580
f 13 580 15
f 15 580 577
f 15 577 9
f 578 579 584
f 578 584 581
f 582 583 588
f 582 588 585
f 586 587 592
f 586 592 589
f 590 591 596
f 590 596 593
f 594 595 600
f 594 600 597
f 598 599 604
f 598 604 601
f 465 466 605
f 467 465 605
f 468 467 605
f 469 468 605
f 470 469 606
f 471 470 606
f 472 471 606
f 473 472 606
f 474 473 607
f 475 474 607
f 476 475 607
f 477 476 607
f 478 477 608
f 479 478 608
f 480 479 608
f 466 480 608
f 481 482 609
f 483 481 609
f 484 483 609
f 485 484 609
f 486 485 610
f 487 486 610
f 488 487 610
f 489 488 610
f 490 489 611
f 491 490 611
f 492 491 611
f 493 492 611
f 494 493 612
f 495 494 612
f 496 495 612
f 482 496 612
f 497 498 613
f 499 497 613
f 500 499 613
f 501 500 613
f 502 501 614
f 503 502 614
f 504 503 614
f 505 504 614
f 506 505 615
f 507 506 615
f 508 507 615
f 509 508 615
f 510 509 616
f 511 510 616
f 512 511 616
f 498 512 616
f 513 514 617
f 515 513 617
f 516 515 617
f 517 516 617
f 518 517 618
f 519 518 618
f 520 519 618
f 521 520 618
f 522 521 619
f 523 522 619
f 524 523 619
f 525 524 619
f 526 525 620
f 527 526 620
f 528 527 620
f 514 528 620
f 529 530 621
f 531 529 621
f 532 531 621
f 533 532 621
f 534 533 622
f 535 534 622
f 536 535 622
f 537 536 622
f 538 537 623
f 539 538 623
f 540 539 623
f 541 540 623
f 542 541 624
f 543 542 624
f 544 543 624
f 530 544 624
f 545 546 625
f 547 545 625
f 548 547 625
f 549 548 625
f 550 549 626
f 551 550 626
f 552 551 626
f 553 552 626
f 554 553 627
f 555 554 627
f 556 555 627
f 557 556 627
f 558 557 628
f 559 558 628
f 560 559 628
f 546 560 628
f 561 562 629
f 563 561 629
f 564 563 629
f 565 564 629
f 566 565 630
f 567 566 630
f 568 567 630
f 569 568 630
f 570 569 631
f 571 570 631
f 572 571 631
f 573 572 631
f 574 573 632
f 575 574 632
f 576 575 632
f 562 576 632
f 8 608 631
f 8 631 6
f 6 631 630
f 6 630 2
f 2 630 605
f 2 605 3
f 3 605 608
f 3 608 8
f 607 606 609
f 607 609 612
f 611 610 613
f 611 613 616
f 615 614 617
f 615 617 620
f 619 618 621
f 619 621 624
f 623 622 625
f 623 625 628
f 627 626 629
f 627 629 632
f 633 634 635
f 636 633 635
f 637 638 634
f 633 637 634
f 639 640 638
f 637 639 638
f 641 642 640
f 639 641 640
f 643 644 642
f 641 643 642
f 645 646 644
f 643 645 644
f 647 648 646
f 645 647 646
f 649 650 648
f 647 649 648
f 651 652 650
f 649 651 650
f 653 654 652
f 651 653 652
f 655 656 654
f 653 655 654
f 657 658 656
f 655 657 656
f 659 660 658
f 657 659 658
f 661 662 660
f 659 661 660
f 663 664 662
f 661 663 662
f 636 635 664
f 663 636 664
f 665 635 634
f 665 634 638
f 665 638 640
f 665 640 642
f 665 642 644
f 665 644 646
f 665 646 648
f 665 648 650
f 665 650 652
f 665 652 654
f 665 654 656
f 665 656 658
f 665 658 660
f 665 660 662
f 665 662 664
f 665 664 635
f 666 667 668
f 669 666 668
f 670 671 667
f 666 670 667
f 672 673 671
f 670 672 671
f 674 675 673
f 672 674 673
f 676 677 675
f 674 676 675
f 678 679 677
f 676 678 677
f 680 681 679
f 678 680 679
f 682 683 681
f 680 682 681
f 684 685 683
f 682 684 683
f 686 687 685
f 684 686 685
f 688 689 687
f 686 688 687
f 690 691 689
f 688 690 689
f 692 693 691
f 690 692 691
f 694 695 693
f 692 694 693
f 696 697 695
f 694 696 695
f 669 668 697
f 696 669 697
f 698 668 667
f 698 667 671
f 698 671 673
f 698 673 675
f 698 675 677
f 698 677 679
f 698 679 681
f 698 681 683
f 698 683 685
f 698 685 687
f 698 687 689
f 698 689 691
f 698 691 693
f 698 693 695
f 698 695 697
f 698 697 668
f 699 700 701
f 702 699 701
f 703 704 700
f 699 703 700
f 705 706 704
f 703 705 704
f 707 708 706
f 705 707 706
f 709 710 708
f 707 709 708
f 711 712 710
f 709 711 710
f 713 714 712
f 711 713 712
f 715 716 714
f 713 715 714
f 717 718 716
f 715 717 716
f 719 720 718
f 717 719 718
f 721 722 720
f 719 721 720
f 723 724 722
f 721 723 722
f 725 726 724
f 723 725 724
f 727 728 726
f 725 727 726
f 729 730 728
f 727 729 728
f 702 701 730
f 729 702 730
f 731 701 700
f 731 700 704
f 731 704 706
f 731 706 708
f 731 708 710
f 731 710 712
f 731 712 714
f 731 714 716
f 731 716 718
f 731 718 720
f 731 720 722
f 731 722 724
f 731 724 726
f 731 726 728
f 731 728 730
f 731 730 701
f 732 733 734
f 735 732 734
f 736 737 733
f 732 736 733
f 738 739 737
f 736 738 737
f 740 741 739
f 738 740 739
f 742 743 741
f 740 742 741
f 744 745 743
f 742 744 743
f 746 747 745
f 744 746 745
f 748 749 747
f 746 748 747
f 750 751 749
f 748 750 749
f 752 753 751
f 750 752 751
f 754 755 753
f 752 754 753
f 756 757 755
f 754 756 755
f 758 759 757
f 756 758 757
f 760 761 759
f 758 760 759
f 762 763 761
f 760 762 761
f 735 734 763
f 762 735 763
f 764 734 733
f 764 733 737
f 764 737 739
f 764 739 741
f 764 741 743
f 764 743 745
f 764 745 747
f 764 747 749
f 764 749 751
f 764 751 753
f 764 753 755
f 764 755 757
f 764 757 759
f 764 759 761
f 764 761 763
f 764 763 734
f 765 766 767
f 768 765 767
f 769 770 766
f 765 769 766
f 771 772 770
f 769 771 770
f 773 774 772
f 771 773 772
f 775 776 774
f 773 775 774
f 777 778 776
f 775 777 776
f 779 780 778
f 777 779 778
f 781 782 780
f 779 781 780
f 783 784 782
f 781 783 782
f 785 786 784
f 783 785 784
f 787 788 786
f 785 787 786
f 789 790 788
f 787 789 788
f 791 792 790
f 789 791 790
f 793 794 792
f 791 793 792
f 795 796 794
f 793 795 794
f 768 767 796
f 795 768 796
f 797 767 766
f 797 766 770
f 797 770 772
f 797 772 774
f 797 774 776
f 797 776 778
f 797 778 780
f 797 780 782
f 797 782 784
f 797 784 786
f 797 786 788
f 797 788 790
f 797 790 792
f 797 792 794
f 797 794 796
f 797 796 767
f 798 799 800
f 801 798 800
f 802 803 799
f 798 802 799
f 804 805 803
f 802 804 803
f 806 807 805
f 804 806 805
f 808 809 807
f 806 808 807
f 810 811 809
f 808 810 809
f 812 813 811
f 810 812 811
f 814 815 813
f 812 814 813
f 816 817 815
f 814 816 815
f 818 819 817
f 816 818 817
f 820 821 819
f 818 820 819
f 822 823 821
f 820 822 821
f 824 825 823
f 822 824 823
f 826 827 825
f 824 826 825
f 828 829 827
f 826 828 827
f 801 800 829
f 828 801 829
f 830 800 799
f 830 799 803
f 830 803 805
f 830 805 807
f 830 807 809
f 830 809 811
f 830 811 813
f 830 813 815
f 830 815 817
f 830 817 819
f 830 819 821
f 830 821 823
f 830 823 825
f 830 825 827
f 830 827 829
f 830 829 800
f 831 832 833
f 834 831 833
f 835 836 832
f 831 835 832
f 837 838 836
f 835 837 836
f 839 840 838
f 837 839 838
f 841 842 840
f 839 841 840
f 843 844 842
f 841 843 842
f 845 846 844
f 843 845 844
f 847 848 846
f 845 847 846
f 849 850 848
f 847 849 848
f 851 852 850
f 849 851 850
f 853 854 852
f 851 853 852
f 855 856 854
f 853 855 854
f 857 858 856
f 855 857 856
f 859 860 858
f 857 859 858
f 861 862 860
f 859 861 860
f 834 833 862
f 861 834 862
f 863 833 832
f 863 832 836
f 863 836 838
f 863 838 840
f 863 840 842
f 863 842 844
f 863 844 846
f 863 846 848
f 863 848 850
f 863 850 852
f 863 852 854
f 863 854 856
f 863 856 858
f 863 858 860
f 863 860 862
f 863 862 833
f 864 865 866
f 867 864 866
f 868 869 865
f 864 868 865
f 870 871 869
f 868 870 869
f 872 873 871
f 870 872 871
f 874 875 873
f 872 874 873
f 876 877 875
f 874 876 875
f 878 879 877
f 876 878 877
f 880 881 879
f 878 880 879
f 882 883 881
f 880 882 881
f 884 885 883
f 882 884 883
f 886 887 885
f 884 886 885
f 888 889 887
f 886 888 887
f 890 891 889
f 888 890 889
f 892 893 891
f 890 892 891
f 894 895 893
f 892 894 893
f 867 866 895
f 894 867 895
f 896 866 865
f 896 865 869
f 896 869 871
f 896 871 873
f 896 873 875
f 896 875 877
f 896 877 879
f 896 879 881
f 896 881 883
f 896 883 885
f 896 885 887
f 896 887 889
f 896 889 891
f 896 891 893
f 896 893 895
f 896 895 866
f 897 898 899
f 900 897 899
f 901 902 898
f 897 901 898
f 903 904 902
f 901 903 902
f 905 906 904
f 903 905 904
f 907 908 906
f 905 907 906
f 909 910 908
f 907 909 908
f 911 912 910
f 909 911 910
f 913 914 912
f 911 913 912
f 915 916 914
f 913 915 914
f 917 918 916
f 915 917 916
f 919 920 918
f 917 919 918
f 921 922 920
f 919 921 920
f 923 924 922
f 921 923 922
f 925 926 924
f 923 925 924
f 927 928 926
f 925 927 926
f 900 899 928
f 927 900 928
f 929 899 898
f 929 898 902
f 929 902 904
f 929 904 906
f 929 906 908
f 929 908 910
f 929 910 912
f 929 912 914
f 929 914 916
f 929 916 918
f 929 918 920
f 929 920 922
f 929 922 924
f 929 924 926
f 929 926 928
f 929 928 899
f 930 931 932
f 933 930 932
f 934 935 931
f 930 934 931
f 936 937 935
f 934 936 935
f 938 939 937
f 936 938 937
f 940 941 939
f 938 940 939
f 942 943 941
f 940 942 941
f 944 945 943
f 942 944 943
f 946 947 945
f 944 946 945
f 948 949 947
f 946 948 947
f 950 951 949
f 948 950 949
f 952 953 951
f 950 952 951
f 954 955 953
f 952 954 953
f 956 957 955
f 954 956 955
f 958 959 957
f 956 958 957
f 960 961 959
f 958 960 959
f 933 932 961
f 960 933 961
f 962 932 931
f 962 931 935
f 962 935 937
f 962 937 939
f 962 939 941
f 962 941 943
f 962 943 945
f 962 945 947
f 962 947 949
f 962 949 951
f 962 951 953
f 962 953 955
f 962 955 957
f 962 957 959
f 962 959 961
f 962 961 932
f 963 964 965
f 966 963 965
f 967 968 964
f 963 967 964
f 969 970 968
f 967 969 968
f 971 972 970
f 969 971 970
f 973 974 972
f 971 973 972
f 975 976 974
f 973 975 974
f 977 978 976
f 975 977 976
f 979 980 978
f 977 979 978
f 981 982 980
f 979 981 980
f 983 984 982
f 981 983 982
f 985 986 984
f 983 985 984
f 987 988 986
f 985 987 986
f 989 990 988
f 987 989 988
f 991 992 990
f 989 991 990
f 993 994 992
f 991 993 992
f 966 965 994
f 993 966 994
f 995 965 964
f 995 964 968
f 995 968 970
f 995 970 972
f 995 972 974
f 995 974 976
f 995 976 978
f 995 978 980
f 995 980 982
f 995 982 984
f 995 984 986
f 995 986 988
f 995 988 990
f 995 990 992
f 995 992 994
f 995 994 965
f 996 997 998
f 999 996 998
f 1000 1001 997
f 996 1000 997
f 1002 1003 1001
f 1000 1002 1001
f 1004 1005 1003
f 1002 1004 1003
f 1006 1007 1005
f 1004 1006 1005
f 1008 1009 1007
f 1006 1008 1007
f 1010 1011 1009
f 1008 1010 1009
f 1012 1013 1011
f 1010 1012 1011
f 1014 1015 1013
f 1012 1014 1013
f 1016 1017 1015
f 1014 1016 1015
f 1018 1019 1017
f 1016 1018 1017
f 1020 1021 1019
f 1018 1020 1019
f 1022 1023 1021
f 1020 1022 1021
f 1024 1025 1023
f 1022 1024 1023
f 1026 1027 1025
f 1024 1026 1025
f 999 998 1027
f 1026 999 1027
f 1028 998 997
f 1028 997 1001
f 1028 1001 1003
f 1028 1003 1005
f 1028 1005 1007
f 1028 1007 1009
f 1028 1009 1011
f 1028 1011 1013
f 1028 1013 1015
f 1028 1015 1017
f 1028 1017 1019
f 1028 1019 1021
f 1028 1021 1023
f 1028 1023 1025
f 1028 1025 1027
f 1028 1027 998
f 1029 1030 1031
f 1032 1029 1031
f 1033 1034 1030
f 1029 1033 1030
f 1035 1036 1034
f 1033 1035 1034
f 1037 1038 1036
f 1035 1037 1036
f 1039 1040 1038
f 1037 1039 1038
f 1041 1042 1040
f 1039 1041 1040
f 1043 1044 1042
f 1041 1043 1042
f 1045 1046 1044
f 1043 1045 1044
f 1047 1048 1046
f 1045 1047 1046
f 1049 1050 1048
f 1047 1049 1048
f 1051 1052 1050
f 1049 1051 1050
f 1053 1054 1052
f 1051 1053 1052
f 1055 1056 1054
f 1053 1055 1054
f 1057 1058 1056
f 1055 1057 1056
f 1059 1060 1058
f 1057 1059 1058
f 1032 1031 1060
f 1059 1032 1060
f 1061 1031 1030
f 1061 1030 1034
f 1061 1034 1036
f 1061 1036 1038
f 1061 1038 1040
f 1061 1040 1042
f 1061 1042 1044
f 1061 1044 1046
f 1061 1046 1048
f 1061 1048 1050
f 1061 1050 1052
f 1061 1052 1054
f 1061 1054 1056
f 1061 1056 1058
f 1061 1058 1060
f 1061 1060 1031
f 1062 1063 1064
f 1065 1062 1064
f 1066 1067 1063
f 1062 1066 1063
f 1068 1069 1067
f 1066 1068 1067
f 1070 1071 1069
f 1068 1070 1069
f 1072 1073 1071
f 1070 1072 1071
f 1074 1075 1073
f 1072 1074 1073
f 1076 1077 1075
f 1074 1076 1075
f 1078 1079 1077
f 1076 1078 1077
f 1080 1081 1079
f 1078 1080 1079
f 1082 1083 1081
f 1080 1082 1081
f 1084 1085 1083
f 1082 1084 1083
f 1086 1087 1085
f 1084 1086 1085
f 1088 1089 1087
f 1086 1088 1087
f 1090 1091 1089
f 1088 1090 1089
f 1092 1093 1091
f 1090 1092 1091
f 1065 1064 1093
f 1092 1065 1093
f 1094 1064 1063
f 1094 1063 1067
f 1094 1067 1069
f 1094 1069 1071
f 1094 1071 1073
f 1094 1073 1075
f 1094 1075 1077
f 1094 1077 1079
f 1094 1079 1081
f 1094 1081 1083
f 1094 1083 1085
f 1094 1085 1087
f 1094 1087 1089
f 1094 1089 1091
f 1094 1091 1093
f 1094 1093 1064
f 1095 1096 1097
f 1098 1095 1097
f 1099 1100 1096
f 1095 1099 1096
f 1101 1102 1100
f 1099 1101 1100
f 1103 1104 1102
f 1101 1103 1102
f 1105 1106 1104
f 1103 1105 1104
f 1107 1108 1106
f 1105 1107 1106
f 1109 1110 1108
f 1107 1109 1108
f 1111 1112 1110
f 1109 1111 1110
f 1113 1114 1112
f 1111 1113 1112
f 1115 1116 1114
f 1113 1115 1114
f 1117 1118 1116
f 1115 1117 1116
f 1119 1120 1118
f 1117 1119 1118
f 1121 1122 1120
f 1119 1121 1120
f 1123 1124 1122
f 1121 1123 1122
f 1125 1126 1124
f 1123 1125 1124
f 1098 1097 1126
f 1125 1098 1126
f 1127 1097 1096
f 1127 1096 1100
f 1127 1100 1102
f 1127 1102 1104
f 1127 1104 1106
f 1127 1106 1108
f 1127 1108 1110
f 1127 1110 1112
f 1127 1112 1114
f 1127 1114 1116
f 1127 1116 1118
f 1127 1118 1120
f 1127 1120 1122
f 1127 1122 1124
f 1127 1124 1126
f 1127 1126 1097
f 1128 1129 1130
f 1131 1128 1130
f 1132 1133 1129
f 1128 1132 1129
f 1134 1135 1133
f 1132 1134 1133
f 1136 1137 1135
f 1134 1136 1135
f 1138 1139 1137
f 1136 1138 1137
f 1140 1141 1139
f 1138 1140 1139
f 1142 1143 1141
f 1140 1142 1141
f 1144 1145 1143
f 1142 1144 1143
f 1146 1147 1145
f 1144 1146 1145
f 1148 1149 1147
f 1146 1148 1147
f 1150 1151 1149
f 1148 1150 1149
f 1152 1153 1151
f 1150 1152 1151
f 1154 1155 1153
f 1152 1154 1153
f 1156 1157 1155
f 1154 1156 1155
f 1158 1159 1157
f 1156 1158 1157
f 1131 1130 1159
f 1158 1131 1159
f 1160 1130 1129
f 1160 1129 1133
f 1160 1133 1135
f 1160 1135 1137
f 1160 1137 1139
f 1160 1139 1141
f 1160 1141 1143
f 1160 1143 1145
f 1160 1145 1147
f 1160 1147 1149
f 1160 1149 1151
f 1160 1151 1153
f 1160 1153 1155
f 1160 1155 1157
f 1160 1157 1159
f 1160 1159 1130
