# Botball Lab: metres, +Y up, centred XZ, base Y=0
s off
v 0.0024000 0.0016000 -0.0000000
v 0.0022174 0.0016000 -0.0009185
v 0.0022174 0.0000000 -0.0009185
v 0.0024000 0.0000000 -0.0000000
v 0.0016970 0.0016000 -0.0016970
v 0.0016970 0.0000000 -0.0016970
v 0.0009185 0.0016000 -0.0022174
v 0.0009185 0.0000000 -0.0022174
v 0.0000000 0.0016000 -0.0024000
v 0.0000000 0.0000000 -0.0024000
v -0.0009185 0.0016000 -0.0022174
v -0.0009185 0.0000000 -0.0022174
v -0.0016970 0.0016000 -0.0016970
v -0.0016970 0.0000000 -0.0016970
v -0.0022174 0.0016000 -0.0009185
v -0.0022174 0.0000000 -0.0009185
v -0.0024000 0.0016000 -0.0000000
v -0.0024000 0.0000000 -0.0000000
v -0.0022174 0.0016000 0.0009185
v -0.0022174 0.0000000 0.0009185
v -0.0016970 0.0016000 0.0016970
v -0.0016970 0.0000000 0.0016970
v -0.0009185 0.0016000 0.0022174
v -0.0009185 0.0000000 0.0022174
v 0.0000000 0.0016000 0.0024000
v 0.0000000 0.0000000 0.0024000
v 0.0009185 0.0016000 0.0022174
v 0.0009185 0.0000000 0.0022174
v 0.0016970 0.0016000 0.0016970
v 0.0016970 0.0000000 0.0016970
v 0.0022174 0.0016000 0.0009185
v 0.0022174 0.0000000 0.0009185
v 0.0029565 0.0000000 -0.0012246
v 0.0029565 0.0016000 -0.0012246
v 0.0032000 0.0016000 -0.0000000
v 0.0032000 0.0000000 -0.0000000
v 0.0022627 0.0000000 -0.0022627
v 0.0022627 0.0016000 -0.0022627
v 0.0012246 0.0000000 -0.0029565
v 0.0012246 0.0016000 -0.0029565
v 0.0000000 0.0000000 -0.0032000
v 0.0000000 0.0016000 -0.0032000
v -0.0012246 0.0000000 -0.0029565
v -0.0012246 0.0016000 -0.0029565
v -0.0022627 0.0000000 -0.0022627
v -0.0022627 0.0016000 -0.0022627
v -0.0029565 0.0000000 -0.0012246
v -0.0029565 0.0016000 -0.0012246
v -0.0032000 0.0000000 -0.0000000
v -0.0032000 0.0016000 -0.0000000
v -0.0029565 0.0000000 0.0012246
v -0.0029565 0.0016000 0.0012246
v -0.0022627 0.0000000 0.0022627
v -0.0022627 0.0016000 0.0022627
v -0.0012246 0.0000000 0.0029565
v -0.0012246 0.0016000 0.0029565
v 0.0000000 0.0000000 0.0032000
v 0.0000000 0.0016000 0.0032000
v 0.0012246 0.0000000 0.0029565
v 0.0012246 0.0016000 0.0029565
v 0.0022627 0.0000000 0.0022627
v 0.0022627 0.0016000 0.0022627
v 0.0029565 0.0000000 0.0012246
v 0.0029565 0.0016000 0.0012246
v 0.0029565 0.0080000 -0.0012246
v 0.0032000 0.0080000 -0.0000000
v 0.0022627 0.0080000 -0.0022627
v 0.0012246 0.0080000 -0.0029565
v 0.0000000 0.0080000 -0.0032000
v -0.0012246 0.0080000 -0.0029565
v -0.0022627 0.0080000 -0.0022627
v -0.0029565 0.0080000 -0.0012246
v -0.0032000 0.0080000 -0.0000000
v -0.0029565 0.0080000 0.0012246
v -0.0022627 0.0080000 0.0022627
v -0.0012246 0.0080000 0.0029565
v 0.0000000 0.0080000 0.0032000
v 0.0012246 0.0080000 0.0029565
v 0.0022627 0.0080000 0.0022627
v 0.0029565 0.0080000 0.0012246
v 0.0022173 0.0096000 -0.0009184
v 0.0016971 0.0096000 -0.0016971
v 0.0009184 0.0096000 -0.0022173
v -0.0009184 0.0096000 -0.0022173
v -0.0016971 0.0096000 -0.0016971
v -0.0022173 0.0096000 -0.0009184
v -0.0022173 0.0096000 0.0009184
v -0.0016971 0.0096000 0.0016971
v -0.0009184 0.0096000 0.0022173
v 0.0009184 0.0096000 0.0022173
v 0.0016971 0.0096000 0.0016971
v 0.0022173 0.0096000 0.0009184
v 0.0010000 0.0096000 -0.0010000
v 0.0016000 0.0096000 -0.0008000
v 0.0022409 0.0096000 -0.0008000
v 0.0008000 0.0096000 -0.0016000
v 0.0008000 0.0096000 -0.0022409
v -0.0010000 0.0096000 -0.0010000
v -0.0008000 0.0096000 -0.0016000
v -0.0008000 0.0096000 -0.0022409
v -0.0022409 0.0096000 -0.0008000
v -0.0016000 0.0096000 -0.0008000
v -0.0016000 0.0096000 0.0008000
v -0.0022409 0.0096000 0.0008000
v -0.0010000 0.0096000 0.0010000
v -0.0008000 0.0096000 0.0022409
v -0.0008000 0.0096000 0.0016000
v 0.0010000 0.0096000 0.0010000
v 0.0008000 0.0096000 0.0022409
v 0.0008000 0.0096000 0.0016000
v 0.0016000 0.0096000 0.0008000
v 0.0022409 0.0096000 0.0008000
v 0.0022173 0.0016000 0.0009184
v 0.0016971 0.0016000 0.0016971
v 0.0009184 0.0016000 0.0022173
v -0.0009184 0.0016000 0.0022173
v -0.0016971 0.0016000 0.0016971
v -0.0022173 0.0016000 0.0009184
v -0.0022173 0.0016000 -0.0009184
v -0.0016971 0.0016000 -0.0016971
v -0.0009184 0.0016000 -0.0022173
v 0.0009184 0.0016000 -0.0022173
v 0.0016971 0.0016000 -0.0016971
v 0.0022173 0.0016000 -0.0009184
v 0.0010000 0.0016000 0.0010000
v 0.0016000 0.0016000 0.0008000
v 0.0022409 0.0016000 0.0008000
v 0.0008000 0.0016000 0.0016000
v 0.0008000 0.0016000 0.0022409
v -0.0010000 0.0016000 0.0010000
v -0.0008000 0.0016000 0.0016000
v -0.0008000 0.0016000 0.0022409
v -0.0022409 0.0016000 0.0008000
v -0.0016000 0.0016000 0.0008000
v -0.0016000 0.0016000 -0.0008000
v -0.0022409 0.0016000 -0.0008000
v -0.0010000 0.0016000 -0.0010000
v -0.0008000 0.0016000 -0.0022409
v -0.0008000 0.0016000 -0.0016000
v 0.0010000 0.0016000 -0.0010000
v 0.0008000 0.0016000 -0.0022409
v 0.0008000 0.0016000 -0.0016000
v 0.0016000 0.0016000 -0.0008000
v 0.0022409 0.0016000 -0.0008000
v 0.0024000 0.0096000 -0.0000000
v 0.0000000 0.0096000 -0.0024000
v -0.0024000 0.0096000 -0.0000000
v 0.0000000 0.0096000 0.0024000
v 0.0080002 0.0000000 -0.0000001
v 0.0080002 0.0016000 -0.0000001
v 0.0073910 0.0016000 0.0030615
v 0.0073910 0.0000000 0.0030615
v 0.0073910 0.0000000 -0.0030614
v 0.0073910 0.0016000 -0.0030614
v 0.0000001 0.0000000 0.0080002
v 0.0000001 0.0016000 0.0080002
v -0.0030615 0.0016000 0.0073910
v -0.0030615 0.0000000 0.0073910
v 0.0030614 0.0000000 0.0073910
v 0.0030614 0.0016000 0.0073910
v -0.0080002 0.0000000 0.0000001
v -0.0080002 0.0016000 0.0000001
v -0.0073910 0.0016000 -0.0030615
v -0.0073910 0.0000000 -0.0030615
v -0.0073910 0.0000000 0.0030614
v -0.0073910 0.0016000 0.0030614
v -0.0000001 0.0000000 -0.0080002
v -0.0000001 0.0016000 -0.0080002
v 0.0030615 0.0016000 -0.0073910
v 0.0030615 0.0000000 -0.0073910
v -0.0030614 0.0000000 -0.0073910
v -0.0030614 0.0016000 -0.0073910
v 0.0064000 0.0000000 -0.0045440
v 0.0064000 0.0000000 0.0045440
v 0.0064000 0.0016000 0.0045440
v 0.0064000 0.0016000 -0.0045440
v 0.0045440 0.0000000 0.0064000
v -0.0045440 0.0000000 0.0064000
v -0.0045440 0.0016000 0.0064000
v 0.0045440 0.0016000 0.0064000
v -0.0064000 0.0000000 0.0045440
v -0.0064000 0.0000000 -0.0045440
v -0.0064000 0.0016000 -0.0045440
v -0.0064000 0.0016000 0.0045440
v -0.0045440 0.0000000 -0.0064000
v 0.0045440 0.0000000 -0.0064000
v 0.0045440 0.0016000 -0.0064000
v -0.0045440 0.0016000 -0.0064000
v -0.0030600 0.0000000 -0.0073920
v 0.0030600 0.0000000 -0.0073920
v -0.0073920 0.0000000 0.0030600
v -0.0073920 0.0000000 -0.0030600
v 0.0030600 0.0000000 0.0073920
v -0.0030600 0.0000000 0.0073920
v 0.0073920 0.0000000 -0.0030600
v 0.0073920 0.0000000 0.0030600
v 0.0073920 0.0016000 -0.0030600
v 0.0030600 0.0016000 -0.0073920
v -0.0073920 0.0016000 -0.0030600
v -0.0030600 0.0016000 -0.0073920
v 0.0073920 0.0016000 0.0030600
v 0.0030600 0.0016000 0.0073920
v -0.0073920 0.0016000 0.0030600
v -0.0030600 0.0016000 0.0073920
v -0.0024493 0.0080000 -0.0059130
v 0.0000000 0.0080000 -0.0064000
v -0.0045254 0.0080000 -0.0045254
v -0.0059130 0.0080000 -0.0024493
v -0.0064000 0.0080000 -0.0000000
v -0.0059130 0.0080000 0.0024493
v -0.0045254 0.0080000 0.0045254
v -0.0024493 0.0080000 0.0059130
v 0.0000000 0.0080000 0.0064000
v 0.0024493 0.0080000 0.0059130
v 0.0045254 0.0080000 0.0045254
v 0.0059130 0.0080000 0.0024493
v 0.0064000 0.0080000 -0.0000000
v 0.0059130 0.0080000 -0.0024493
v 0.0045254 0.0080000 -0.0045254
v 0.0024493 0.0080000 -0.0059130
v 0.0059130 0.0016000 -0.0024493
v 0.0064000 0.0016000 -0.0000000
v 0.0045254 0.0016000 -0.0045254
v 0.0024493 0.0016000 -0.0059130
v 0.0000000 0.0016000 -0.0064000
v -0.0024493 0.0016000 -0.0059130
v -0.0045254 0.0016000 -0.0045254
v -0.0059130 0.0016000 -0.0024493
v -0.0064000 0.0016000 -0.0000000
v -0.0059130 0.0016000 0.0024493
v -0.0045254 0.0016000 0.0045254
v -0.0024493 0.0016000 0.0059130
v 0.0000000 0.0016000 0.0064000
v 0.0024493 0.0016000 0.0059130
v 0.0045254 0.0016000 0.0045254
v 0.0059130 0.0016000 0.0024493
v 0.0059120 0.0016000 -0.0024480
v 0.0045240 0.0016000 -0.0045240
v 0.0056560 0.0016000 -0.0056560
v 0.0024480 0.0016000 -0.0059120
v -0.0059120 0.0016000 -0.0024480
v -0.0056560 0.0016000 -0.0056560
v -0.0045240 0.0016000 -0.0045240
v -0.0024480 0.0016000 -0.0059120
v 0.0059120 0.0016000 0.0024480
v 0.0056560 0.0016000 0.0056560
v 0.0045240 0.0016000 0.0045240
v 0.0024480 0.0016000 0.0059120
v -0.0059120 0.0016000 0.0024480
v -0.0045240 0.0016000 0.0045240
v -0.0056560 0.0016000 0.0056560
v -0.0024480 0.0016000 0.0059120
v 0.0009184 0.0096000 -0.0022174
v 0.0000000 0.0096000 -0.0033941
v -0.0009184 0.0096000 -0.0022174
v -0.0022174 0.0096000 -0.0009184
v -0.0033941 0.0096000 -0.0000000
v -0.0022174 0.0096000 0.0009184
v -0.0009184 0.0096000 0.0022174
v 0.0000000 0.0096000 0.0033941
v 0.0009184 0.0096000 0.0022174
v 0.0022174 0.0096000 0.0009184
v 0.0033941 0.0096000 -0.0000000
v 0.0022174 0.0096000 -0.0009184
v 0.0073912 0.0096000 -0.0030616
v 0.0030616 0.0096000 -0.0073912
v 0.0000000 0.0096000 -0.0080000
v 0.0080000 0.0096000 -0.0000000
v 0.0056568 0.0096000 -0.0056568
v -0.0030616 0.0096000 -0.0073912
v -0.0073912 0.0096000 -0.0030616
v -0.0080000 0.0096000 -0.0000000
v -0.0056568 0.0096000 -0.0056568
v -0.0073912 0.0096000 0.0030616
v -0.0030616 0.0096000 0.0073912
v 0.0000000 0.0096000 0.0080000
v -0.0056568 0.0096000 0.0056568
v 0.0030616 0.0096000 0.0073912
v 0.0073912 0.0096000 0.0030616
v 0.0056568 0.0096000 0.0056568
v 0.0030815 0.0096000 -0.0062174
v 0.0030815 0.0112000 -0.0062174
v 0.0040000 0.0112000 -0.0064000
v 0.0040000 0.0096000 -0.0064000
v 0.0023030 0.0096000 -0.0056970
v 0.0023030 0.0112000 -0.0056970
v 0.0017826 0.0096000 -0.0049185
v 0.0017826 0.0112000 -0.0049185
v 0.0016000 0.0096000 -0.0040000
v 0.0016000 0.0112000 -0.0040000
v 0.0017826 0.0096000 -0.0030815
v 0.0017826 0.0112000 -0.0030815
v 0.0023030 0.0096000 -0.0023030
v 0.0023030 0.0112000 -0.0023030
v 0.0030815 0.0096000 -0.0017826
v 0.0030815 0.0112000 -0.0017826
v 0.0040000 0.0096000 -0.0016000
v 0.0040000 0.0112000 -0.0016000
v 0.0049185 0.0096000 -0.0017826
v 0.0049185 0.0112000 -0.0017826
v 0.0056970 0.0096000 -0.0023030
v 0.0056970 0.0112000 -0.0023030
v 0.0062174 0.0096000 -0.0030815
v 0.0062174 0.0112000 -0.0030815
v 0.0064000 0.0096000 -0.0040000
v 0.0064000 0.0112000 -0.0040000
v 0.0040000 0.0112000 -0.0040000
v 0.0062458 0.0112000 -0.0047759
v 0.0056568 0.0112000 -0.0056568
v 0.0047759 0.0112000 -0.0062458
v 0.0062458 0.0096000 -0.0047759
v 0.0047755 0.0096000 -0.0062458
v -0.0062174 0.0096000 -0.0030815
v -0.0062174 0.0112000 -0.0030815
v -0.0064000 0.0112000 -0.0040000
v -0.0064000 0.0096000 -0.0040000
v -0.0056970 0.0096000 -0.0023030
v -0.0056970 0.0112000 -0.0023030
v -0.0049185 0.0096000 -0.0017826
v -0.0049185 0.0112000 -0.0017826
v -0.0040000 0.0096000 -0.0016000
v -0.0040000 0.0112000 -0.0016000
v -0.0030815 0.0096000 -0.0017826
v -0.0030815 0.0112000 -0.0017826
v -0.0023030 0.0096000 -0.0023030
v -0.0023030 0.0112000 -0.0023030
v -0.0017826 0.0096000 -0.0030815
v -0.0017826 0.0112000 -0.0030815
v -0.0016000 0.0096000 -0.0040000
v -0.0016000 0.0112000 -0.0040000
v -0.0017826 0.0096000 -0.0049185
v -0.0017826 0.0112000 -0.0049185
v -0.0023030 0.0096000 -0.0056970
v -0.0023030 0.0112000 -0.0056970
v -0.0030815 0.0096000 -0.0062174
v -0.0030815 0.0112000 -0.0062174
v -0.0040000 0.0096000 -0.0064000
v -0.0040000 0.0112000 -0.0064000
v -0.0040000 0.0112000 -0.0040000
v -0.0047759 0.0112000 -0.0062458
v -0.0056568 0.0112000 -0.0056568
v -0.0062458 0.0112000 -0.0047759
v -0.0047759 0.0096000 -0.0062458
v -0.0062458 0.0096000 -0.0047755
v 0.0062174 0.0096000 0.0030815
v 0.0062174 0.0112000 0.0030815
v 0.0064000 0.0112000 0.0040000
v 0.0064000 0.0096000 0.0040000
v 0.0056970 0.0096000 0.0023030
v 0.0056970 0.0112000 0.0023030
v 0.0049185 0.0096000 0.0017826
v 0.0049185 0.0112000 0.0017826
v 0.0040000 0.0096000 0.0016000
v 0.0040000 0.0112000 0.0016000
v 0.0030815 0.0096000 0.0017826
v 0.0030815 0.0112000 0.0017826
v 0.0023030 0.0096000 0.0023030
v 0.0023030 0.0112000 0.0023030
v 0.0017826 0.0096000 0.0030815
v 0.0017826 0.0112000 0.0030815
v 0.0016000 0.0096000 0.0040000
v 0.0016000 0.0112000 0.0040000
v 0.0017826 0.0096000 0.0049185
v 0.0017826 0.0112000 0.0049185
v 0.0023030 0.0096000 0.0056970
v 0.0023030 0.0112000 0.0056970
v 0.0030815 0.0096000 0.0062174
v 0.0030815 0.0112000 0.0062174
v 0.0040000 0.0096000 0.0064000
v 0.0040000 0.0112000 0.0064000
v 0.0040000 0.0112000 0.0040000
v 0.0047759 0.0112000 0.0062458
v 0.0056568 0.0112000 0.0056568
v 0.0062458 0.0112000 0.0047759
v 0.0047759 0.0096000 0.0062458
v 0.0062458 0.0096000 0.0047755
v -0.0030815 0.0096000 0.0062174
v -0.0030815 0.0112000 0.0062174
v -0.0040000 0.0112000 0.0064000
v -0.0040000 0.0096000 0.0064000
v -0.0023030 0.0096000 0.0056970
v -0.0023030 0.0112000 0.0056970
v -0.0017826 0.0096000 0.0049185
v -0.0017826 0.0112000 0.0049185
v -0.0016000 0.0096000 0.0040000
v -0.0016000 0.0112000 0.0040000
v -0.0017826 0.0096000 0.0030815
v -0.0017826 0.0112000 0.0030815
v -0.0023030 0.0096000 0.0023030
v -0.0023030 0.0112000 0.0023030
v -0.0030815 0.0096000 0.0017826
v -0.0030815 0.0112000 0.0017826
v -0.0040000 0.0096000 0.0016000
v -0.0040000 0.0112000 0.0016000
v -0.0049185 0.0096000 0.0017826
v -0.0049185 0.0112000 0.0017826
v -0.0056970 0.0096000 0.0023030
v -0.0056970 0.0112000 0.0023030
v -0.0062174 0.0096000 0.0030815
v -0.0062174 0.0112000 0.0030815
v -0.0064000 0.0096000 0.0040000
v -0.0064000 0.0112000 0.0040000
v -0.0040000 0.0112000 0.0040000
v -0.0062458 0.0112000 0.0047759
v -0.0056568 0.0112000 0.0056568
v -0.0047759 0.0112000 0.0062458
v -0.0062458 0.0096000 0.0047759
v -0.0047755 0.0096000 0.0062458
v 0.0080000 0.0016000 -0.0000000
v 0.0073912 0.0016000 -0.0030616
v 0.0056568 0.0016000 -0.0056568
v 0.0030616 0.0016000 -0.0073912
v 0.0000000 0.0016000 -0.0080000
v -0.0030616 0.0016000 -0.0073912
v -0.0056568 0.0016000 -0.0056568
v -0.0073912 0.0016000 -0.0030616
v -0.0080000 0.0016000 -0.0000000
v -0.0073912 0.0016000 0.0030616
v -0.0056568 0.0016000 0.0056568
v -0.0030616 0.0016000 0.0073912
v 0.0000000 0.0016000 0.0080000
v 0.0030616 0.0016000 0.0073912
v 0.0056568 0.0016000 0.0056568
v 0.0073912 0.0016000 0.0030616
f 1 2 3
f 1 3 4
f 2 5 6
f 2 6 3
f 5 7 8
f 5 8 6
f 7 9 10
f 7 10 8
f 9 11 12
f 9 12 10
f 11 13 14
f 11 14 12
f 13 15 16
f 13 16 14
f 15 17 18
f 15 18 16
f 17 19 20
f 17 20 18
f 19 21 22
f 19 22 20
f 21 23 24
f 21 24 22
f 23 25 26
f 23 26 24
f 25 27 28
f 25 28 26
f 27 29 30
f 27 30 28
f 29 31 32
f 29 32 30
f 31 1 4
f 31 4 32
f 33 34 35
f 36 33 35
f 37 38 34
f 33 37 34
f 39 40 38
f 37 39 38
f 41 42 40
f 39 41 40
f 43 44 42
f 41 43 42
f 45 46 44
f 43 45 44
f 47 48 46
f 45 47 46
f 49 50 48
f 47 49 48
f 51 52 50
f 49 51 50
f 53 54 52
f 51 53 52
f 55 56 54
f 53 55 54
f 57 58 56
f 55 57 56
f 59 60 58
f 57 59 58
f 61 62 60
f 59 61 60
f 63 64 62
f 61 63 62
f 36 35 64
f 63 36 64
f 10 12 43
f 41 10 43
f 12 14 45
f 43 12 45
f 14 16 47
f 45 14 47
f 16 18 49
f 47 16 49
f 18 20 51
f 49 18 51
f 20 22 53
f 51 20 53
f 22 24 55
f 53 22 55
f 24 26 57
f 55 24 57
f 26 28 59
f 57 26 59
f 28 30 61
f 59 28 61
f 30 32 63
f 61 30 63
f 32 4 36
f 63 32 36
f 4 3 33
f 36 4 33
f 3 6 37
f 33 3 37
f 6 8 39
f 37 6 39
f 8 10 41
f 39 8 41
f 35 34 65
f 35 65 66
f 34 38 67
f 34 67 65
f 38 40 68
f 38 68 67
f 40 42 69
f 40 69 68
f 42 44 70
f 42 70 69
f 44 46 71
f 44 71 70
f 46 48 72
f 46 72 71
f 48 50 73
f 48 73 72
f 50 52 74
f 50 74 73
f 52 54 75
f 52 75 74
f 54 56 76
f 54 76 75
f 56 58 77
f 56 77 76
f 58 60 78
f 58 78 77
f 60 62 79
f 60 79 78
f 62 64 80
f 62 80 79
f 64 35 66
f 64 66 80
f 81 82 83
f 84 85 86
f 87 88 89
f 90 91 92
f 81 83 93
f 93 94 95
f 93 95 81
f 96 93 83
f 96 83 97
f 98 84 86
f 98 99 100
f 98 100 84
f 101 102 98
f 101 98 86
f 103 104 87
f 103 87 105
f 87 89 105
f 89 106 107
f 89 107 105
f 90 92 108
f 109 90 108
f 109 108 110
f 111 108 92
f 111 92 112
f 113 114 115
f 116 117 118
f 119 120 121
f 122 123 124
f 113 115 125
f 125 126 127
f 125 127 113
f 128 125 115
f 128 115 129
f 130 116 118
f 130 131 132
f 130 132 116
f 133 134 130
f 133 130 118
f 135 136 119
f 135 119 137
f 119 121 137
f 121 138 139
f 121 139 137
f 122 124 140
f 141 122 140
f 141 140 142
f 143 140 124
f 143 124 144
f 1 145 95
f 1 95 144
f 143 144 95
f 143 95 94
f 143 94 93
f 143 93 140
f 140 93 96
f 140 96 142
f 142 96 97
f 142 97 141
f 97 146 9
f 97 9 141
f 9 146 100
f 9 100 138
f 139 138 100
f 139 100 99
f 139 99 98
f 139 98 137
f 137 98 102
f 137 102 135
f 135 102 101
f 135 101 136
f 136 101 147
f 136 147 17
f 17 147 104
f 17 104 133
f 133 104 103
f 133 103 134
f 134 103 105
f 134 105 130
f 130 105 107
f 130 107 131
f 131 107 106
f 131 106 132
f 106 148 25
f 106 25 132
f 25 148 109
f 25 109 129
f 129 109 110
f 129 110 128
f 128 110 108
f 128 108 125
f 125 108 111
f 125 111 126
f 126 111 112
f 126 112 127
f 127 112 145
f 127 145 1
f 149 150 151
f 149 151 152
f 153 154 150
f 153 150 149
f 153 149 152
f 155 156 157
f 155 157 158
f 159 160 156
f 159 156 155
f 159 155 158
f 161 162 163
f 161 163 164
f 165 166 162
f 165 162 161
f 165 161 164
f 167 168 169
f 167 169 170
f 171 172 168
f 171 168 167
f 171 167 170
f 173 174 175
f 173 175 176
f 177 178 179
f 177 179 180
f 181 182 183
f 181 183 184
f 185 186 187
f 185 187 188
f 186 185 189
f 186 189 190
f 182 181 191
f 182 191 192
f 178 177 193
f 178 193 194
f 174 173 195
f 174 195 196
f 176 197 195
f 176 195 173
f 198 187 186
f 198 186 190
f 199 183 182
f 199 182 192
f 188 200 189
f 188 189 185
f 201 175 174
f 201 174 196
f 180 202 193
f 180 193 177
f 184 203 191
f 184 191 181
f 204 179 178
f 204 178 194
f 69 70 205
f 206 69 205
f 70 71 207
f 205 70 207
f 71 72 208
f 207 71 208
f 72 73 209
f 208 72 209
f 73 74 210
f 209 73 210
f 74 75 211
f 210 74 211
f 75 76 212
f 211 75 212
f 76 77 213
f 212 76 213
f 77 78 214
f 213 77 214
f 78 79 215
f 214 78 215
f 79 80 216
f 215 79 216
f 80 66 217
f 216 80 217
f 66 65 218
f 217 66 218
f 65 67 219
f 218 65 219
f 67 68 220
f 219 67 220
f 68 69 206
f 220 68 206
f 218 221 222
f 217 218 222
f 219 223 221
f 218 219 221
f 220 224 223
f 219 220 223
f 206 225 224
f 220 206 224
f 205 226 225
f 206 205 225
f 207 227 226
f 205 207 226
f 208 228 227
f 207 208 227
f 209 229 228
f 208 209 228
f 210 230 229
f 209 210 229
f 211 231 230
f 210 211 230
f 212 232 231
f 211 212 231
f 213 233 232
f 212 213 232
f 214 234 233
f 213 214 233
f 215 235 234
f 214 215 234
f 216 236 235
f 215 216 235
f 217 222 236
f 216 217 236
f 222 237 176
f 237 238 239
f 237 239 176
f 240 187 239
f 240 239 238
f 225 187 240
f 229 183 241
f 241 183 242
f 241 242 243
f 244 243 242
f 244 242 188
f 225 244 188
f 222 175 245
f 245 175 246
f 245 246 247
f 248 247 246
f 248 246 180
f 233 248 180
f 229 249 184
f 249 250 251
f 249 251 184
f 252 179 251
f 252 251 250
f 233 179 252
f 253 82 254
f 146 253 254
f 255 146 254
f 85 255 254
f 256 85 257
f 147 256 257
f 258 147 257
f 88 258 257
f 259 88 260
f 148 259 260
f 261 148 260
f 91 261 260
f 262 91 263
f 145 262 263
f 264 145 263
f 82 264 263
f 265 266 267
f 265 267 268
f 269 266 265
f 267 270 271
f 272 267 271
f 271 270 273
f 274 275 276
f 274 276 272
f 277 275 274
f 276 278 279
f 268 276 279
f 279 278 280
f 276 260 257
f 276 257 272
f 267 272 257
f 267 257 254
f 268 267 254
f 268 254 263
f 276 268 263
f 276 263 260
f 281 282 283
f 281 283 284
f 285 286 282
f 285 282 281
f 287 288 286
f 287 286 285
f 289 290 288
f 289 288 287
f 291 292 290
f 291 290 289
f 293 294 292
f 293 292 291
f 295 296 294
f 295 294 293
f 297 298 296
f 297 296 295
f 299 300 298
f 299 298 297
f 301 302 300
f 301 300 299
f 303 304 302
f 303 302 301
f 305 306 304
f 305 304 303
f 307 283 282
f 307 282 286
f 307 286 288
f 307 288 290
f 307 290 292
f 307 292 294
f 307 294 296
f 307 296 298
f 307 298 300
f 307 300 302
f 307 302 304
f 307 304 306
f 306 308 307
f 308 309 307
f 309 310 307
f 310 283 307
f 305 311 308
f 305 308 306
f 311 269 309
f 311 309 308
f 269 312 310
f 269 310 309
f 312 284 283
f 312 283 310
f 313 314 315
f 313 315 316
f 317 318 314
f 317 314 313
f 319 320 318
f 319 318 317
f 321 322 320
f 321 320 319
f 323 324 322
f 323 322 321
f 325 326 324
f 325 324 323
f 327 328 326
f 327 326 325
f 329 330 328
f 329 328 327
f 331 332 330
f 331 330 329
f 333 334 332
f 333 332 331
f 335 336 334
f 335 334 333
f 337 338 336
f 337 336 335
f 339 315 314
f 339 314 318
f 339 318 320
f 339 320 322
f 339 322 324
f 339 324 326
f 339 326 328
f 339 328 330
f 339 330 332
f 339 332 334
f 339 334 336
f 339 336 338
f 338 340 339
f 340 341 339
f 341 342 339
f 342 315 339
f 337 343 340
f 337 340 338
f 343 273 341
f 343 341 340
f 273 344 342
f 273 342 341
f 344 316 315
f 344 315 342
f 345 346 347
f 345 347 348
f 349 350 346
f 349 346 345
f 351 352 350
f 351 350 349
f 353 354 352
f 353 352 351
f 355 356 354
f 355 354 353
f 357 358 356
f 357 356 355
f 359 360 358
f 359 358 357
f 361 362 360
f 361 360 359
f 363 364 362
f 363 362 361
f 365 366 364
f 365 364 363
f 367 368 366
f 367 366 365
f 369 370 368
f 369 368 367
f 371 347 346
f 371 346 350
f 371 350 352
f 371 352 354
f 371 354 356
f 371 356 358
f 371 358 360
f 371 360 362
f 371 362 364
f 371 364 366
f 371 366 368
f 371 368 370
f 370 372 371
f 372 373 371
f 373 374 371
f 374 347 371
f 369 375 372
f 369 372 370
f 375 280 373
f 375 373 372
f 280 376 374
f 280 374 373
f 376 348 347
f 376 347 374
f 377 378 379
f 377 379 380
f 381 382 378
f 381 378 377
f 383 384 382
f 383 382 381
f 385 386 384
f 385 384 383
f 387 388 386
f 387 386 385
f 389 390 388
f 389 388 387
f 391 392 390
f 391 390 389
f 393 394 392
f 393 392 391
f 395 396 394
f 395 394 393
f 397 398 396
f 397 396 395
f 399 400 398
f 399 398 397
f 401 402 400
f 401 400 399
f 403 379 378
f 403 378 382
f 403 382 384
f 403 384 386
f 403 386 388
f 403 388 390
f 403 390 392
f 403 392 394
f 403 394 396
f 403 396 398
f 403 398 400
f 403 400 402
f 402 404 403
f 404 405 403
f 405 406 403
f 406 379 403
f 401 407 404
f 401 404 402
f 407 277 405
f 407 405 404
f 277 408 406
f 277 406 405
f 408 380 379
f 408 379 406
f 409 410 265
f 409 265 268
f 410 411 269
f 410 269 265
f 411 412 266
f 411 266 269
f 412 413 267
f 412 267 266
f 413 414 270
f 413 270 267
f 414 415 273
f 414 273 270
f 415 416 271
f 415 271 273
f 416 417 272
f 416 272 271
f 417 418 274
f 417 274 272
f 418 419 277
f 418 277 274
f 419 420 275
f 419 275 277
f 420 421 276
f 420 276 275
f 421 422 278
f 421 278 276
f 422 423 280
f 422 280 278
f 423 424 279
f 423 279 280
f 424 409 268
f 424 268 279
