# Botball Lab: metres, +Y up, centred XZ, base Y=0
s off
v 0.0032000 0.0016000 -0.0032000
v 0.0064000 0.0016000 -0.0045440
v 0.0064000 0.0016000 0.0045440
v 0.0032000 0.0016000 0.0032000
v 0.0056568 0.0016000 0.0056568
v 0.0045440 0.0016000 0.0064000
v 0.0064000 0.0000000 -0.0045440
v 0.0064000 0.0000000 0.0045440
v 0.0073910 0.0000000 -0.0030614
v 0.0073910 0.0000000 0.0030615
v 0.0080002 0.0000000 -0.0000000
v 0.0080002 0.0032000 -0.0000000
v 0.0073910 0.0032000 0.0030615
v 0.0073910 0.0032000 -0.0030614
v 0.0062458 0.0032000 0.0047755
v 0.0062458 0.0032000 -0.0047759
v 0.0024000 0.0032000 -0.0024000
v 0.0024000 0.0032000 0.0024000
v 0.0056568 0.0032000 0.0056568
v 0.0056568 0.0016000 -0.0056568
v 0.0056568 0.0032000 -0.0056568
v -0.0045440 0.0016000 0.0064000
v -0.0032000 0.0016000 0.0032000
v -0.0056568 0.0016000 0.0056568
v -0.0064000 0.0016000 0.0045440
v 0.0045440 0.0000000 0.0064000
v -0.0045440 0.0000000 0.0064000
v 0.0030614 0.0000000 0.0073910
v -0.0030615 0.0000000 0.0073910
v 0.0000000 0.0000000 0.0080002
v 0.0000000 0.0032000 0.0080002
v -0.0030615 0.0032000 0.0073910
v 0.0030614 0.0032000 0.0073910
v -0.0047755 0.0032000 0.0062458
v 0.0047759 0.0032000 0.0062458
v -0.0024000 0.0032000 0.0024000
v -0.0056568 0.0032000 0.0056568
v -0.0064000 0.0016000 -0.0045440
v -0.0032000 0.0016000 -0.0032000
v -0.0056568 0.0016000 -0.0056568
v -0.0045440 0.0016000 -0.0064000
v -0.0064000 0.0000000 0.0045440
v -0.0064000 0.0000000 -0.0045440
v -0.0073910 0.0000000 0.0030614
v -0.0073910 0.0000000 -0.0030615
v -0.0080002 0.0000000 0.0000000
v -0.0080002 0.0032000 0.0000000
v -0.0073910 0.0032000 -0.0030615
v -0.0073910 0.0032000 0.0030614
v -0.0062458 0.0032000 -0.0047755
v -0.0062458 0.0032000 0.0047759
v -0.0024000 0.0032000 -0.0024000
v -0.0056568 0.0032000 -0.0056568
v 0.0045440 0.0016000 -0.0064000
v -0.0045440 0.0000000 -0.0064000
v 0.0045440 0.0000000 -0.0064000
v -0.0030614 0.0000000 -0.0073910
v 0.0030615 0.0000000 -0.0073910
v -0.0000000 0.0000000 -0.0080002
v -0.0000000 0.0032000 -0.0080002
v 0.0030615 0.0032000 -0.0073910
v -0.0030614 0.0032000 -0.0073910
v 0.0047755 0.0032000 -0.0062458
v -0.0047759 0.0032000 -0.0062458
v 0.0024000 0.0016000 -0.0000000
v 0.0022174 0.0016000 -0.0009185
v 0.0022174 0.0000000 -0.0009185
v 0.0024000 0.0000000 -0.0000000
v 0.0016970 0.0016000 -0.0016970
v 0.0016970 0.0000000 -0.0016970
v 0.0009185 0.0016000 -0.0022174
v 0.0009185 0.0000000 -0.0022174
v 0.0000000 0.0016000 -0.0024000
v 0.0000000 0.0000000 -0.0024000
v -0.0009185 0.0016000 -0.0022174
v -0.0009185 0.0000000 -0.0022174
v -0.0016970 0.0016000 -0.0016970
v -0.0016970 0.0000000 -0.0016970
v -0.0022174 0.0016000 -0.0009185
v -0.0022174 0.0000000 -0.0009185
v -0.0024000 0.0016000 -0.0000000
v -0.0024000 0.0000000 -0.0000000
v -0.0022174 0.0016000 0.0009185
v -0.0022174 0.0000000 0.0009185
v -0.0016970 0.0016000 0.0016970
v -0.0016970 0.0000000 0.0016970
v -0.0009185 0.0016000 0.0022174
v -0.0009185 0.0000000 0.0022174
v 0.0000000 0.0016000 0.0024000
v 0.0000000 0.0000000 0.0024000
v 0.0009185 0.0016000 0.0022174
v 0.0009185 0.0000000 0.0022174
v 0.0016970 0.0016000 0.0016970
v 0.0016970 0.0000000 0.0016970
v 0.0022174 0.0016000 0.0009185
v 0.0022174 0.0000000 0.0009185
v 0.0029565 0.0000000 -0.0012246
v 0.0029565 0.0016000 -0.0012246
v 0.0032000 0.0016000 -0.0000000
v 0.0032000 0.0000000 -0.0000000
v 0.0022627 0.0000000 -0.0022627
v 0.0022627 0.0016000 -0.0022627
v 0.0012246 0.0000000 -0.0029565
v 0.0012246 0.0016000 -0.0029565
v 0.0000000 0.0000000 -0.0032000
v 0.0000000 0.0016000 -0.0032000
v -0.0012246 0.0000000 -0.0029565
v -0.0012246 0.0016000 -0.0029565
v -0.0022627 0.0000000 -0.0022627
v -0.0022627 0.0016000 -0.0022627
v -0.0029565 0.0000000 -0.0012246
v -0.0029565 0.0016000 -0.0012246
v -0.0032000 0.0000000 -0.0000000
v -0.0032000 0.0016000 -0.0000000
v -0.0029565 0.0000000 0.0012246
v -0.0029565 0.0016000 0.0012246
v -0.0022627 0.0000000 0.0022627
v -0.0022627 0.0016000 0.0022627
v -0.0012246 0.0000000 0.0029565
v -0.0012246 0.0016000 0.0029565
v 0.0000000 0.0000000 0.0032000
v 0.0000000 0.0016000 0.0032000
v 0.0012246 0.0000000 0.0029565
v 0.0012246 0.0016000 0.0029565
v 0.0022627 0.0000000 0.0022627
v 0.0022627 0.0016000 0.0022627
v 0.0029565 0.0000000 0.0012246
v 0.0029565 0.0016000 0.0012246
v 0.0024000 0.0032000 -0.0000000
v 0.0022409 0.0032000 -0.0008000
v 0.0022409 0.0016000 -0.0008000
v 0.0016000 0.0016000 -0.0008000
v 0.0016000 0.0032000 -0.0008000
v 0.0010000 0.0032000 -0.0010000
v 0.0010000 0.0016000 -0.0010000
v 0.0008000 0.0032000 -0.0016000
v 0.0008000 0.0016000 -0.0016000
v 0.0008000 0.0032000 -0.0022409
v 0.0008000 0.0016000 -0.0022409
v 0.0000000 0.0032000 -0.0024000
v -0.0009185 0.0032000 -0.0022174
v -0.0014046 0.0032000 -0.0018926
v -0.0014046 0.0016000 -0.0018926
v -0.0009303 0.0032000 -0.0012092
v -0.0009303 0.0016000 -0.0012092
v -0.0010000 0.0032000 -0.0010000
v -0.0010000 0.0016000 -0.0010000
v -0.0012092 0.0032000 -0.0009303
v -0.0012092 0.0016000 -0.0009303
v -0.0018926 0.0016000 -0.0014046
v -0.0018926 0.0032000 -0.0014046
v -0.0022174 0.0032000 -0.0009185
v -0.0024000 0.0032000 -0.0000000
v -0.0022409 0.0032000 0.0008000
v -0.0022409 0.0016000 0.0008000
v -0.0016000 0.0016000 0.0008000
v -0.0016000 0.0032000 0.0008000
v -0.0010000 0.0032000 0.0010000
v -0.0010000 0.0016000 0.0010000
v -0.0008000 0.0032000 0.0016000
v -0.0008000 0.0016000 0.0016000
v -0.0008000 0.0032000 0.0022409
v -0.0008000 0.0016000 0.0022409
v 0.0000000 0.0032000 0.0024000
v 0.0009185 0.0032000 0.0022174
v 0.0014046 0.0032000 0.0018926
v 0.0014046 0.0016000 0.0018926
v 0.0009303 0.0032000 0.0012092
v 0.0009303 0.0016000 0.0012092
v 0.0010000 0.0032000 0.0010000
v 0.0010000 0.0016000 0.0010000
v 0.0012092 0.0032000 0.0009303
v 0.0012092 0.0016000 0.0009303
v 0.0018926 0.0016000 0.0014046
v 0.0018926 0.0032000 0.0014046
v 0.0022174 0.0032000 0.0009185
v 0.0022174 0.0032000 -0.0009184
v 0.0016971 0.0032000 -0.0016971
v 0.0009184 0.0032000 -0.0022174
v -0.0016972 0.0032000 -0.0016972
v -0.0016970 0.0032000 -0.0016970
v -0.0022174 0.0032000 0.0009184
v -0.0016971 0.0032000 0.0016971
v -0.0009184 0.0032000 0.0022174
v 0.0016970 0.0032000 0.0016970
v 0.0009184 0.0016000 -0.0022174
v 0.0016971 0.0016000 -0.0016971
v 0.0022174 0.0016000 -0.0009184
v 0.0016972 0.0016000 0.0016972
v -0.0009184 0.0016000 0.0022174
v -0.0016971 0.0016000 0.0016971
v -0.0022174 0.0016000 0.0009184
v 0.0022174 0.0032000 -0.0009185
v 0.0016970 0.0032000 -0.0016970
v 0.0009185 0.0032000 -0.0022174
v -0.0022174 0.0032000 0.0009185
v -0.0016970 0.0032000 0.0016970
v -0.0009185 0.0032000 0.0022174
v 0.0030815 0.0032000 -0.0062174
v 0.0030815 0.0048000 -0.0062174
v 0.0040000 0.0048000 -0.0064000
v 0.0040000 0.0032000 -0.0064000
v 0.0023030 0.0032000 -0.0056970
v 0.0023030 0.0048000 -0.0056970
v 0.0017826 0.0032000 -0.0049185
v 0.0017826 0.0048000 -0.0049185
v 0.0016000 0.0032000 -0.0040000
v 0.0016000 0.0048000 -0.0040000
v 0.0017826 0.0032000 -0.0030815
v 0.0017826 0.0048000 -0.0030815
v 0.0023030 0.0032000 -0.0023030
v 0.0023030 0.0048000 -0.0023030
v 0.0030815 0.0032000 -0.0017826
v 0.0030815 0.0048000 -0.0017826
v 0.0040000 0.0032000 -0.0016000
v 0.0040000 0.0048000 -0.0016000
v 0.0049185 0.0032000 -0.0017826
v 0.0049185 0.0048000 -0.0017826
v 0.0056970 0.0032000 -0.0023030
v 0.0056970 0.0048000 -0.0023030
v 0.0062174 0.0032000 -0.0030815
v 0.0062174 0.0048000 -0.0030815
v 0.0064000 0.0032000 -0.0040000
v 0.0064000 0.0048000 -0.0040000
v 0.0040000 0.0048000 -0.0040000
v 0.0062458 0.0048000 -0.0047759
v 0.0056568 0.0048000 -0.0056568
v 0.0047759 0.0048000 -0.0062458
v -0.0062174 0.0032000 -0.0030815
v -0.0062174 0.0048000 -0.0030815
v -0.0064000 0.0048000 -0.0040000
v -0.0064000 0.0032000 -0.0040000
v -0.0056970 0.0032000 -0.0023030
v -0.0056970 0.0048000 -0.0023030
v -0.0049185 0.0032000 -0.0017826
v -0.0049185 0.0048000 -0.0017826
v -0.0040000 0.0032000 -0.0016000
v -0.0040000 0.0048000 -0.0016000
v -0.0030815 0.0032000 -0.0017826
v -0.0030815 0.0048000 -0.0017826
v -0.0023030 0.0032000 -0.0023030
v -0.0023030 0.0048000 -0.0023030
v -0.0017826 0.0032000 -0.0030815
v -0.0017826 0.0048000 -0.0030815
v -0.0016000 0.0032000 -0.0040000
v -0.0016000 0.0048000 -0.0040000
v -0.0017826 0.0032000 -0.0049185
v -0.0017826 0.0048000 -0.0049185
v -0.0023030 0.0032000 -0.0056970
v -0.0023030 0.0048000 -0.0056970
v -0.0030815 0.0032000 -0.0062174
v -0.0030815 0.0048000 -0.0062174
v -0.0040000 0.0032000 -0.0064000
v -0.0040000 0.0048000 -0.0064000
v -0.0040000 0.0048000 -0.0040000
v -0.0047759 0.0048000 -0.0062458
v -0.0056568 0.0048000 -0.0056568
v -0.0062458 0.0048000 -0.0047759
v 0.0062174 0.0032000 0.0030815
v 0.0062174 0.0048000 0.0030815
v 0.0064000 0.0048000 0.0040000
v 0.0064000 0.0032000 0.0040000
v 0.0056970 0.0032000 0.0023030
v 0.0056970 0.0048000 0.0023030
v 0.0049185 0.0032000 0.0017826
v 0.0049185 0.0048000 0.0017826
v 0.0040000 0.0032000 0.0016000
v 0.0040000 0.0048000 0.0016000
v 0.0030815 0.0032000 0.0017826
v 0.0030815 0.0048000 0.0017826
v 0.0023030 0.0032000 0.0023030
v 0.0023030 0.0048000 0.0023030
v 0.0017826 0.0032000 0.0030815
v 0.0017826 0.0048000 0.0030815
v 0.0016000 0.0032000 0.0040000
v 0.0016000 0.0048000 0.0040000
v 0.0017826 0.0032000 0.0049185
v 0.0017826 0.0048000 0.0049185
v 0.0023030 0.0032000 0.0056970
v 0.0023030 0.0048000 0.0056970
v 0.0030815 0.0032000 0.0062174
v 0.0030815 0.0048000 0.0062174
v 0.0040000 0.0032000 0.0064000
v 0.0040000 0.0048000 0.0064000
v 0.0040000 0.0048000 0.0040000
v 0.0047759 0.0048000 0.0062458
v 0.0056568 0.0048000 0.0056568
v 0.0062458 0.0048000 0.0047759
v -0.0030815 0.0032000 0.0062174
v -0.0030815 0.0048000 0.0062174
v -0.0040000 0.0048000 0.0064000
v -0.0040000 0.0032000 0.0064000
v -0.0023030 0.0032000 0.0056970
v -0.0023030 0.0048000 0.0056970
v -0.0017826 0.0032000 0.0049185
v -0.0017826 0.0048000 0.0049185
v -0.0016000 0.0032000 0.0040000
v -0.0016000 0.0048000 0.0040000
v -0.0017826 0.0032000 0.0030815
v -0.0017826 0.0048000 0.0030815
v -0.0023030 0.0032000 0.0023030
v -0.0023030 0.0048000 0.0023030
v -0.0030815 0.0032000 0.0017826
v -0.0030815 0.0048000 0.0017826
v -0.0040000 0.0032000 0.0016000
v -0.0040000 0.0048000 0.0016000
v -0.0049185 0.0032000 0.0017826
v -0.0049185 0.0048000 0.0017826
v -0.0056970 0.0032000 0.0023030
v -0.0056970 0.0048000 0.0023030
v -0.0062174 0.0032000 0.0030815
v -0.0062174 0.0048000 0.0030815
v -0.0064000 0.0032000 0.0040000
v -0.0064000 0.0048000 0.0040000
v -0.0040000 0.0048000 0.0040000
v -0.0062458 0.0048000 0.0047759
v -0.0056568 0.0048000 0.0056568
v -0.0047759 0.0048000 0.0062458
vn 0.0 -1.0 0.0
vn -1.0 0.0 0.0
vn 0.9512948 0.0 0.3082826
vn 0.9978074 0.0 -0.0661851
vn 0.9978074 0.0 0.0661844
vn 0.9277404 -4.37e-05 0.3732261
vn 0.9432223 0.0 -0.3321621
vn 0.9420535 -3.83e-05 -0.3354625
vn 0.0 1.0 0.0
vn 0.8313768 0.0 -0.5557091
vn 0.8314682 -0.0001953 -0.5555723
vn 0.8314238 -9.09e-05 0.5556388
vn 0.8313595 0.0 0.5557351
vn 0.8763749 -0.00014 0.4816295
vn 0.7011759 -9.5e-05 0.7129884
vn 0.7458047 -7.78e-05 0.6661646
vn 0.8584844 -0.0002039 -0.5128396
vn 0.6661646 -7.78e-05 -0.7458047
vn 0.7129884 -9.5e-05 -0.7011759
vn 0.0 0.0 -1.0
vn -0.3082826 0.0 0.9512948
vn 0.0661851 0.0 0.9978074
vn -0.0661844 0.0 0.9978074
vn -0.3732261 -4.37e-05 0.9277404
vn 0.3321621 0.0 0.9432223
vn 0.3354625 -3.83e-05 0.9420535
vn 0.5557091 0.0 0.8313768
vn 0.5555723 -0.0001953 0.8314682
vn -0.5556388 -9.09e-05 0.8314238
vn -0.5557351 0.0 0.8313595
vn -0.4816295 -0.00014 0.8763749
vn -0.7129884 -9.5e-05 0.7011759
vn -0.6661646 -7.78e-05 0.7458047
vn 0.5128396 -0.0002039 0.8584844
vn 1.0 0.0 0.0
vn -0.9512948 0.0 -0.3082826
vn -0.9978074 0.0 0.0661851
vn -0.9978074 0.0 -0.0661844
vn -0.9277404 -4.37e-05 -0.3732261
vn -0.9432223 0.0 0.3321621
vn -0.9420535 -3.83e-05 0.3354625
vn -0.8313768 0.0 0.5557091
vn -0.8314682 -0.0001953 0.5555723
vn -0.8314238 -9.09e-05 -0.5556388
vn -0.8313595 0.0 -0.5557351
vn -0.8763749 -0.00014 -0.4816295
vn -0.7011759 -9.5e-05 -0.7129884
vn -0.7458047 -7.78e-05 -0.6661646
vn -0.8584844 -0.0002039 0.5128396
vn 0.0 0.0 1.0
vn 0.3082826 0.0 -0.9512948
vn -0.0661851 0.0 -0.9978074
vn 0.0661844 0.0 -0.9978074
vn 0.3732261 -4.37e-05 -0.9277404
vn -0.3321621 0.0 -0.9432223
vn -0.3354625 -3.83e-05 -0.9420535
vn -0.5557091 0.0 -0.8313768
vn -0.5555723 -0.0001953 -0.8314682
vn 0.5556388 -9.09e-05 -0.8314238
vn 0.5557351 0.0 -0.8313595
vn 0.4816295 -0.00014 -0.8763749
vn -0.5128396 -0.0002039 -0.8584844
vn -0.9981849 0.0 0.0602242
vn -0.8964963 0.0 0.4430513
vn -0.947177 0.0 0.3207111
vn -0.9978115 0.0 -0.0661224
vn -0.6588276 0.0 0.752294
vn -0.752294 0.0 0.6588276
vn -0.3207111 0.0 0.947177
vn -0.4430513 0.0 0.8964963
vn 0.0370517 0.0 0.9993134
vn -0.0661224 0.0 0.9978115
vn 0.4259527 0.0 0.9047454
vn 0.3207111 0.0 0.947177
vn 0.752294 0.0 0.6588276
vn 0.6588276 0.0 0.752294
vn 0.9526899 0.0 0.3039441
vn 0.8964963 0.0 0.4430513
vn 0.9981849 0.0 -0.0602242
vn 0.9978115 0.0 0.0661224
vn 0.8964963 0.0 -0.4430513
vn 0.947177 0.0 -0.3207111
vn 0.6588276 0.0 -0.752294
vn 0.752294 0.0 -0.6588276
vn 0.3207111 0.0 -0.947177
vn 0.4430513 0.0 -0.8964963
vn -0.0370517 0.0 -0.9993134
vn 0.0661224 0.0 -0.9978115
vn -0.4259527 0.0 -0.9047454
vn -0.3207111 0.0 -0.947177
vn -0.752294 0.0 -0.6588276
vn -0.6588276 0.0 -0.752294
vn -0.9526899 0.0 -0.3039441
vn -0.8964963 0.0 -0.4430513
vn 0.9471761 0.0 -0.3207139
vn 0.8965142 0.0 -0.4430151
vn 0.9978107 0.0 -0.066135
vn 0.9978107 0.0 0.066135
vn 0.7523142 0.0 -0.6588045
vn 0.6588045 0.0 -0.7523142
vn 0.4430151 0.0 -0.8965142
vn 0.3207139 0.0 -0.9471761
vn 0.066135 0.0 -0.9978107
vn -0.066135 0.0 -0.9978107
vn -0.3207139 0.0 -0.9471761
vn -0.4430151 0.0 -0.8965142
vn -0.6588045 0.0 -0.7523142
vn -0.7523142 0.0 -0.6588045
vn -0.8965142 0.0 -0.4430151
vn -0.9471761 0.0 -0.3207139
vn -0.9978107 0.0 -0.066135
vn -0.9978107 0.0 0.066135
vn -0.9471761 0.0 0.3207139
vn -0.8965142 0.0 0.4430151
vn -0.7523142 0.0 0.6588045
vn -0.6588045 0.0 0.7523142
vn -0.4430151 0.0 0.8965142
vn -0.3207139 0.0 0.9471761
vn -0.066135 0.0 0.9978107
vn 0.066135 0.0 0.9978107
vn 0.3207139 0.0 0.9471761
vn 0.4430151 0.0 0.8965142
vn 0.6588045 0.0 0.7523142
vn 0.7523142 0.0 0.6588045
vn 0.8965142 0.0 0.4430151
vn 0.9471761 0.0 0.3207139
vn -0.9969597 0.0 -0.0779194
vn -0.9807923 0.0 0.1950551
vn -0.105686 0.0 0.9943996
vn -0.2123305 0.0 0.9771979
vn -0.3162278 0.0 0.9486833
vn -0.9771979 0.0 0.2123305
vn -0.9943996 0.0 0.105686
vn -0.9486833 0.0 0.3162278
vn -0.1950551 0.0 0.9807923
vn 0.0136734 0.0 0.9999065
vn 0.2847233 0.0 0.9586097
vn 0.5555683 0.0 0.8314709
vn 0.8215295 0.0 -0.570166
vn 0.9487286 0.0 0.3160917
vn 0.3160917 0.0 0.9487286
vn -0.570166 0.0 0.8215295
vn 0.8314709 0.0 0.5555683
vn 0.9152629 0.0 0.402857
vn 0.9969597 0.0 0.0779194
vn 0.9807923 0.0 -0.1950551
vn 0.105686 0.0 -0.9943996
vn 0.2123305 0.0 -0.9771979
vn 0.3162278 0.0 -0.9486833
vn 0.9771979 0.0 -0.2123305
vn 0.9943996 0.0 -0.105686
vn 0.9486833 0.0 -0.3162278
vn 0.1950551 0.0 -0.9807923
vn -0.0136734 0.0 -0.9999065
vn -0.2847233 0.0 -0.9586097
vn -0.5555683 0.0 -0.8314709
vn -0.8215295 0.0 0.570166
vn -0.9487286 0.0 -0.3160917
vn -0.3160917 0.0 -0.9487286
vn 0.570166 0.0 -0.8215295
vn -0.8314709 0.0 -0.5555683
vn -0.9152629 0.0 -0.402857
vn -0.4430513 0.0 -0.8964963
vn -0.0167607 -1.14e-05 -0.9998595
vn -0.0167627 0.0 -0.9998595
vn -0.947177 0.0 -0.3207111
vn -0.9978115 0.0 0.0661224
vn 0.0661224 0.0 0.9978115
vn 0.4430513 0.0 0.8964963
vn 0.947177 0.0 0.3207111
vn 0.9998596 0.0 0.0167587
vn 0.9382002 0.0 -0.3460932
vn 0.7522674 0.0 -0.658858
vn 0.4647512 -6.48e-05 -0.8854413
vn -0.9998595 -1.14e-05 0.0167607
vn -0.9998595 0.0 0.0167627
vn 0.9978115 0.0 -0.0661224
vn 0.0167587 0.0 -0.9998596
vn -0.3460932 0.0 -0.9382002
vn -0.658858 0.0 -0.7522674
vn -0.8854413 -6.48e-05 -0.4647512
vn 0.9998595 -1.14e-05 -0.0167607
vn 0.9998595 0.0 -0.0167627
vn -0.0661224 0.0 -0.9978115
vn -0.0167587 0.0 0.9998596
vn 0.3460932 0.0 0.9382002
vn 0.658858 0.0 0.7522674
vn 0.8854413 -6.48e-05 0.4647512
vn 0.0167607 -1.14e-05 0.9998595
vn 0.0167627 0.0 0.9998595
vn -0.9998596 0.0 -0.0167587
vn -0.9382002 0.0 0.3460932
vn -0.7522674 0.0 0.658858
vn -0.4647512 -6.48e-05 0.8854413
f 1//1 2//1 3//1
f 1//1 3//1 4//1
f 3//1 5//1 6//1
f 3//1 6//1 4//1
f 7//2 8//2 3//2
f 2//2 7//2 3//2
f 9//1 10//1 8//1
f 9//1 8//1 7//1
f 9//1 11//1 10//1
f 10//3 11//4 12//5
f 13//6 10//3 12//5
f 11//4 9//7 14//8
f 12//5 11//4 14//8
f 13//9 12//9 14//9
f 14//8 9//7 7//10
f 14//8 7//10 2//11
f 10//3 13//6 3//12
f 10//3 3//12 8//13
f 15//9 16//9 17//9
f 15//9 17//9 18//9
f 15//9 13//9 14//9
f 15//9 14//9 16//9
f 15//14 19//15 5//16
f 15//14 5//16 3//12
f 15//14 3//12 13//6
f 14//8 2//11 16//17
f 2//11 20//18 21//19
f 2//11 21//19 16//17
f 4//1 6//1 22//1
f 4//1 22//1 23//1
f 22//1 24//1 25//1
f 22//1 25//1 23//1
f 26//20 27//20 22//20
f 6//20 26//20 22//20
f 28//1 29//1 27//1
f 28//1 27//1 26//1
f 28//1 30//1 29//1
f 29//21 30//22 31//23
f 32//24 29//21 31//23
f 30//22 28//25 33//26
f 31//23 30//22 33//26
f 32//9 31//9 33//9
f 33//26 28//25 26//27
f 33//26 26//27 6//28
f 29//21 32//24 22//29
f 29//21 22//29 27//30
f 34//9 35//9 18//9
f 34//9 18//9 36//9
f 34//9 32//9 33//9
f 34//9 33//9 35//9
f 34//31 37//32 24//33
f 34//31 24//33 22//29
f 34//31 22//29 32//24
f 33//26 6//28 35//34
f 6//28 5//16 19//15
f 6//28 19//15 35//34
f 23//1 25//1 38//1
f 23//1 38//1 39//1
f 38//1 40//1 41//1
f 38//1 41//1 39//1
f 42//35 43//35 38//35
f 25//35 42//35 38//35
f 44//1 45//1 43//1
f 44//1 43//1 42//1
f 44//1 46//1 45//1
f 45//36 46//37 47//38
f 48//39 45//36 47//38
f 46//37 44//40 49//41
f 47//38 46//37 49//41
f 48//9 47//9 49//9
f 49//41 44//40 42//42
f 49//41 42//42 25//43
f 45//36 48//39 38//44
f 45//36 38//44 43//45
f 50//9 51//9 36//9
f 50//9 36//9 52//9
f 50//9 48//9 49//9
f 50//9 49//9 51//9
f 50//46 53//47 40//48
f 50//46 40//48 38//44
f 50//46 38//44 48//39
f 49//41 25//43 51//49
f 25//43 24//33 37//32
f 25//43 37//32 51//49
f 39//1 41//1 54//1
f 39//1 54//1 1//1
f 54//1 20//1 2//1
f 54//1 2//1 1//1
f 55//50 56//50 54//50
f 41//50 55//50 54//50
f 57//1 58//1 56//1
f 57//1 56//1 55//1
f 57//1 59//1 58//1
f 58//51 59//52 60//53
f 61//54 58//51 60//53
f 59//52 57//55 62//56
f 60//53 59//52 62//56
f 61//9 60//9 62//9
f 62//56 57//55 55//57
f 62//56 55//57 41//58
f 58//51 61//54 54//59
f 58//51 54//59 56//60
f 63//9 64//9 52//9
f 63//9 52//9 17//9
f 63//9 61//9 62//9
f 63//9 62//9 64//9
f 63//61 21//19 20//18
f 63//61 20//18 54//59
f 63//61 54//59 61//54
f 62//56 41//58 64//62
f 41//58 40//48 53//47
f 41//58 53//47 64//62
f 65//63 66//64 67//65
f 65//63 67//65 68//66
f 66//64 69//67 70//68
f 66//64 70//68 67//65
f 69//67 71//69 72//70
f 69//67 72//70 70//68
f 71//69 73//71 74//72
f 71//69 74//72 72//70
f 73//71 75//73 76//74
f 73//71 76//74 74//72
f 75//73 77//75 78//76
f 75//73 78//76 76//74
f 77//75 79//77 80//78
f 77//75 80//78 78//76
f 79//77 81//79 82//80
f 79//77 82//80 80//78
f 81//79 83//81 84//82
f 81//79 84//82 82//80
f 83//81 85//83 86//84
f 83//81 86//84 84//82
f 85//83 87//85 88//86
f 85//83 88//86 86//84
f 87//85 89//87 90//88
f 87//85 90//88 88//86
f 89//87 91//89 92//90
f 89//87 92//90 90//88
f 91//89 93//91 94//92
f 91//89 94//92 92//90
f 93//91 95//93 96//94
f 93//91 96//94 94//92
f 95//93 65//63 68//66
f 95//93 68//66 96//94
f 97//95 98//96 99//97
f 100//98 97//95 99//97
f 101//99 102//100 98//96
f 97//95 101//99 98//96
f 103//101 104//102 102//100
f 101//99 103//101 102//100
f 105//103 106//104 104//102
f 103//101 105//103 104//102
f 107//105 108//106 106//104
f 105//103 107//105 106//104
f 109//107 110//108 108//106
f 107//105 109//107 108//106
f 111//109 112//110 110//108
f 109//107 111//109 110//108
f 113//111 114//112 112//110
f 111//109 113//111 112//110
f 115//113 116//114 114//112
f 113//111 115//113 114//112
f 117//115 118//116 116//114
f 115//113 117//115 116//114
f 119//117 120//118 118//116
f 117//115 119//117 118//116
f 121//119 122//120 120//118
f 119//117 121//119 120//118
f 123//121 124//122 122//120
f 121//119 123//121 122//120
f 125//123 126//124 124//122
f 123//121 125//123 124//122
f 127//125 128//126 126//124
f 125//123 127//125 126//124
f 100//98 99//97 128//126
f 127//125 100//98 128//126
f 74//1 76//1 107//1
f 105//1 74//1 107//1
f 76//1 78//1 109//1
f 107//1 76//1 109//1
f 78//1 80//1 111//1
f 109//1 78//1 111//1
f 80//1 82//1 113//1
f 111//1 80//1 113//1
f 82//1 84//1 115//1
f 113//1 82//1 115//1
f 84//1 86//1 117//1
f 115//1 84//1 117//1
f 86//1 88//1 119//1
f 117//1 86//1 119//1
f 88//1 90//1 121//1
f 119//1 88//1 121//1
f 90//1 92//1 123//1
f 121//1 90//1 123//1
f 92//1 94//1 125//1
f 123//1 92//1 125//1
f 94//1 96//1 127//1
f 125//1 94//1 127//1
f 96//1 68//1 100//1
f 127//1 96//1 100//1
f 68//1 67//1 97//1
f 100//1 68//1 97//1
f 67//1 70//1 101//1
f 97//1 67//1 101//1
f 70//1 72//1 103//1
f 101//1 70//1 103//1
f 72//1 74//1 105//1
f 103//1 72//1 105//1
f 1//1 99//1 98//1
f 1//1 98//1 102//1
f 1//1 102//1 104//1
f 1//1 104//1 106//1
f 39//1 106//1 108//1
f 39//1 108//1 110//1
f 39//1 110//1 112//1
f 39//1 112//1 114//1
f 23//1 114//1 116//1
f 23//1 116//1 118//1
f 23//1 118//1 120//1
f 23//1 120//1 122//1
f 4//1 122//1 124//1
f 4//1 124//1 126//1
f 4//1 126//1 128//1
f 4//1 128//1 99//1
f 65//63 129//127 130//128
f 65//63 130//128 131//128
f 132//129 131//50 130//50
f 132//129 130//50 133//130
f 133//130 134//131 135//131
f 133//130 135//131 132//129
f 136//132 137//133 135//134
f 136//132 135//134 134//134
f 138//2 139//2 137//133
f 138//2 137//133 136//132
f 138//135 140//136 73//71
f 138//135 73//71 139//135
f 73//71 140//136 141//137
f 73//71 141//137 75//73
f 75//73 141//137 142//138
f 75//73 142//138 143//138
f 142//139 144//139 145//139
f 142//139 145//139 143//139
f 146//140 147//140 145//140
f 146//140 145//140 144//140
f 147//141 146//141 148//141
f 147//141 148//141 149//141
f 150//142 149//142 148//142
f 150//142 148//142 151//142
f 150//143 151//143 152//144
f 150//143 152//144 79//77
f 79//77 152//144 153//145
f 79//77 153//145 81//79
f 81//79 153//145 154//146
f 81//79 154//146 155//146
f 156//147 155//20 154//20
f 156//147 154//20 157//148
f 157//148 158//149 159//149
f 157//148 159//149 156//147
f 160//150 161//151 159//152
f 160//150 159//152 158//152
f 162//35 163//35 161//151
f 162//35 161//151 160//150
f 162//153 164//154 89//87
f 162//153 89//87 163//153
f 89//87 164//154 165//155
f 89//87 165//155 91//89
f 91//89 165//155 166//156
f 91//89 166//156 167//156
f 166//157 168//157 169//157
f 166//157 169//157 167//157
f 170//158 171//158 169//158
f 170//158 169//158 168//158
f 171//159 170//159 172//159
f 171//159 172//159 173//159
f 174//160 173//160 172//160
f 174//160 172//160 175//160
f 174//161 175//161 176//162
f 174//161 176//162 95//93
f 95//93 176//162 129//127
f 95//93 129//127 65//63
f 134//9 177//9 178//9
f 134//9 178//9 179//9
f 134//9 133//9 130//9
f 134//9 130//9 177//9
f 136//9 134//9 179//9
f 136//9 179//9 138//9
f 151//9 148//9 146//9
f 151//9 146//9 180//9
f 144//9 142//9 181//9
f 144//9 181//9 146//9
f 158//9 182//9 183//9
f 158//9 183//9 184//9
f 158//9 157//9 154//9
f 158//9 154//9 182//9
f 160//9 158//9 184//9
f 160//9 184//9 162//9
f 175//9 172//9 170//9
f 175//9 170//9 185//9
f 168//9 166//9 185//9
f 168//9 185//9 170//9
f 135//1 186//1 187//1
f 135//1 187//1 188//1
f 135//1 137//1 139//1
f 135//1 139//1 186//1
f 132//1 135//1 188//1
f 132//1 188//1 131//1
f 167//1 169//1 171//1
f 167//1 171//1 189//1
f 173//1 174//1 93//1
f 173//1 93//1 171//1
f 159//1 190//1 191//1
f 159//1 191//1 192//1
f 159//1 161//1 163//1
f 159//1 163//1 190//1
f 156//1 159//1 192//1
f 156//1 192//1 155//1
f 143//1 145//1 147//1
f 143//1 147//1 77//1
f 149//1 150//1 77//1
f 149//1 77//1 147//1
f 193//9 129//9 17//9
f 194//9 193//9 17//9
f 195//9 194//9 17//9
f 140//9 195//9 17//9
f 141//9 140//9 52//9
f 181//9 141//9 52//9
f 152//9 181//9 52//9
f 153//9 152//9 52//9
f 196//9 153//9 36//9
f 197//9 196//9 36//9
f 198//9 197//9 36//9
f 164//9 198//9 36//9
f 165//9 164//9 18//9
f 185//9 165//9 18//9
f 176//9 185//9 18//9
f 129//9 176//9 18//9
f 199//90 200//163 201//164
f 199//90 201//164 202//165
f 203//92 204//91 200//163
f 203//92 200//163 199//90
f 205//94 206//166 204//91
f 205//94 204//91 203//92
f 207//66 208//167 206//166
f 207//66 206//166 205//94
f 209//65 210//64 208//167
f 209//65 208//167 207//66
f 211//68 212//67 210//64
f 211//68 210//64 209//65
f 213//70 214//69 212//67
f 213//70 212//67 211//68
f 215//72 216//168 214//69
f 215//72 214//69 213//70
f 217//74 218//169 216//168
f 217//74 216//168 215//72
f 219//76 220//75 218//169
f 219//76 218//169 217//74
f 221//78 222//170 220//75
f 221//78 220//75 219//76
f 223//171 224//171 222//170
f 223//171 222//170 221//78
f 225//9 201//9 200//9
f 225//9 200//9 204//9
f 225//9 204//9 206//9
f 225//9 206//9 208//9
f 225//9 208//9 210//9
f 225//9 210//9 212//9
f 225//9 212//9 214//9
f 225//9 214//9 216//9
f 225//9 216//9 218//9
f 225//9 218//9 220//9
f 225//9 220//9 222//9
f 225//9 222//9 224//9
f 224//9 226//9 225//9
f 226//9 227//9 225//9
f 227//9 228//9 225//9
f 228//9 201//9 225//9
f 223//171 16//17 226//172
f 223//171 226//172 224//171
f 16//17 21//19 227//173
f 16//17 227//173 226//172
f 21//19 63//61 228//174
f 21//19 228//174 227//173
f 63//61 202//165 201//164
f 63//61 201//164 228//174
f 229//65 230//64 231//175
f 229//65 231//175 232//176
f 233//68 234//67 230//64
f 233//68 230//64 229//65
f 235//70 236//69 234//67
f 235//70 234//67 233//68
f 237//72 238//168 236//69
f 237//72 236//69 235//70
f 239//74 240//169 238//168
f 239//74 238//168 237//72
f 241//76 242//75 240//169
f 241//76 240//169 239//74
f 243//78 244//170 242//75
f 243//78 242//75 241//76
f 245//80 246//177 244//170
f 245//80 244//170 243//78
f 247//82 248//81 246//177
f 247//82 246//177 245//80
f 249//84 250//83 248//81
f 249//84 248//81 247//82
f 251//86 252//85 250//83
f 251//86 250//83 249//84
f 253//178 254//178 252//85
f 253//178 252//85 251//86
f 255//9 231//9 230//9
f 255//9 230//9 234//9
f 255//9 234//9 236//9
f 255//9 236//9 238//9
f 255//9 238//9 240//9
f 255//9 240//9 242//9
f 255//9 242//9 244//9
f 255//9 244//9 246//9
f 255//9 246//9 248//9
f 255//9 248//9 250//9
f 255//9 250//9 252//9
f 255//9 252//9 254//9
f 254//9 256//9 255//9
f 256//9 257//9 255//9
f 257//9 258//9 255//9
f 258//9 231//9 255//9
f 253//178 64//62 256//179
f 253//178 256//179 254//178
f 64//62 53//47 257//180
f 64//62 257//180 256//179
f 53//47 50//46 258//181
f 53//47 258//181 257//180
f 50//46 232//176 231//175
f 50//46 231//175 258//181
f 259//82 260//81 261//182
f 259//82 261//182 262//183
f 263//84 264//83 260//81
f 263//84 260//81 259//82
f 265//86 266//85 264//83
f 265//86 264//83 263//84
f 267//88 268//184 266//85
f 267//88 266//85 265//86
f 269//90 270//163 268//184
f 269//90 268//184 267//88
f 271//92 272//91 270//163
f 271//92 270//163 269//90
f 273//94 274//166 272//91
f 273//94 272//91 271//92
f 275//66 276//167 274//166
f 275//66 274//166 273//94
f 277//65 278//64 276//167
f 277//65 276//167 275//66
f 279//68 280//67 278//64
f 279//68 278//64 277//65
f 281//70 282//69 280//67
f 281//70 280//67 279//68
f 283//185 284//185 282//69
f 283//185 282//69 281//70
f 285//9 261//9 260//9
f 285//9 260//9 264//9
f 285//9 264//9 266//9
f 285//9 266//9 268//9
f 285//9 268//9 270//9
f 285//9 270//9 272//9
f 285//9 272//9 274//9
f 285//9 274//9 276//9
f 285//9 276//9 278//9
f 285//9 278//9 280//9
f 285//9 280//9 282//9
f 285//9 282//9 284//9
f 284//9 286//9 285//9
f 286//9 287//9 285//9
f 287//9 288//9 285//9
f 288//9 261//9 285//9
f 283//185 35//34 286//186
f 283//185 286//186 284//185
f 35//34 19//15 287//187
f 35//34 287//187 286//186
f 19//15 15//14 288//188
f 19//15 288//188 287//187
f 15//14 262//183 261//182
f 15//14 261//182 288//188
f 289//74 290//169 291//189
f 289//74 291//189 292//190
f 293//76 294//75 290//169
f 293//76 290//169 289//74
f 295//78 296//170 294//75
f 295//78 294//75 293//76
f 297//80 298//177 296//170
f 297//80 296//170 295//78
f 299//82 300//81 298//177
f 299//82 298//177 297//80
f 301//84 302//83 300//81
f 301//84 300//81 299//82
f 303//86 304//85 302//83
f 303//86 302//83 301//84
f 305//88 306//184 304//85
f 305//88 304//85 303//86
f 307//90 308//163 306//184
f 307//90 306//184 305//88
f 309//92 310//91 308//163
f 309//92 308//163 307//90
f 311//94 312//166 310//91
f 311//94 310//91 309//92
f 313//191 314//191 312//166
f 313//191 312//166 311//94
f 315//9 291//9 290//9
f 315//9 290//9 294//9
f 315//9 294//9 296//9
f 315//9 296//9 298//9
f 315//9 298//9 300//9
f 315//9 300//9 302//9
f 315//9 302//9 304//9
f 315//9 304//9 306//9
f 315//9 306//9 308//9
f 315//9 308//9 310//9
f 315//9 310//9 312//9
f 315//9 312//9 314//9
f 314//9 316//9 315//9
f 316//9 317//9 315//9
f 317//9 318//9 315//9
f 318//9 291//9 315//9
f 313//191 51//49 316//192
f 313//191 316//192 314//191
f 51//49 37//32 317//193
f 51//49 317//193 316//192
f 37//32 34//31 318//194
f 37//32 318//194 317//193
f 34//31 292//190 291//189
f 34//31 291//189 318//194
