# Botball Lab: metres, +Y up, centred XZ, base Y=0
s off
v 0.0127000 0.0017218 -0.0006123
v 0.0111000 0.0017218 -0.0006123
v 0.0111000 0.0016000 -0.0000000
v 0.0127000 0.0016000 -0.0000000
v 0.0127000 0.0020686 -0.0011314
v 0.0111000 0.0020686 -0.0011314
v 0.0127000 0.0025877 -0.0014782
v 0.0111000 0.0025877 -0.0014782
v 0.0127000 0.0032000 -0.0016000
v 0.0111000 0.0032000 -0.0016000
v 0.0127000 0.0038123 -0.0014782
v 0.0111000 0.0038123 -0.0014782
v 0.0127000 0.0043314 -0.0011314
v 0.0111000 0.0043314 -0.0011314
v 0.0127000 0.0046782 -0.0006123
v 0.0111000 0.0046782 -0.0006123
v 0.0127000 0.0048000 -0.0000000
v 0.0111000 0.0048000 -0.0000000
v 0.0127000 0.0046782 0.0006123
v 0.0111000 0.0046782 0.0006123
v 0.0127000 0.0043314 0.0011314
v 0.0111000 0.0043314 0.0011314
v 0.0127000 0.0038123 0.0014782
v 0.0111000 0.0038123 0.0014782
v 0.0127000 0.0032000 0.0016000
v 0.0111000 0.0032000 0.0016000
v 0.0127000 0.0025877 0.0014782
v 0.0111000 0.0025877 0.0014782
v 0.0127000 0.0020686 0.0011314
v 0.0111000 0.0020686 0.0011314
v 0.0127000 0.0017218 0.0006123
v 0.0111000 0.0017218 0.0006123
v 0.0111000 0.0008000 -0.0000000
v 0.0111000 0.0009826 -0.0009185
v 0.0127000 0.0009826 -0.0009185
v 0.0127000 0.0008000 -0.0000000
v 0.0111000 0.0015030 -0.0016970
v 0.0127000 0.0015030 -0.0016970
v 0.0111000 0.0022815 -0.0022174
v 0.0127000 0.0022815 -0.0022174
v 0.0111000 0.0032000 -0.0024000
v 0.0127000 0.0032000 -0.0024000
v 0.0111000 0.0041185 -0.0022174
v 0.0127000 0.0041185 -0.0022174
v 0.0111000 0.0048970 -0.0016970
v 0.0127000 0.0048970 -0.0016970
v 0.0111000 0.0054174 -0.0009185
v 0.0127000 0.0054174 -0.0009185
v 0.0111000 0.0056000 -0.0000000
v 0.0127000 0.0056000 -0.0000000
v 0.0111000 0.0054174 0.0009185
v 0.0127000 0.0054174 0.0009185
v 0.0111000 0.0048970 0.0016970
v 0.0127000 0.0048970 0.0016970
v 0.0111000 0.0041185 0.0022174
v 0.0127000 0.0041185 0.0022174
v 0.0111000 0.0032000 0.0024000
v 0.0127000 0.0032000 0.0024000
v 0.0111000 0.0022815 0.0022174
v 0.0127000 0.0022815 0.0022174
v 0.0111000 0.0015030 0.0016970
v 0.0127000 0.0015030 0.0016970
v 0.0111000 0.0009826 0.0009185
v 0.0127000 0.0009826 0.0009185
v 0.0103000 0.0002435 -0.0012246
v 0.0103000 0.0000000 -0.0000000
v 0.0103000 0.0032000 -0.0000000
v 0.0103000 0.0009373 -0.0022627
v 0.0103000 0.0019754 -0.0029565
v 0.0103000 0.0032000 -0.0032000
v 0.0103000 0.0044246 -0.0029565
v 0.0103000 0.0054627 -0.0022627
v 0.0103000 0.0061565 -0.0012246
v 0.0103000 0.0064000 -0.0000000
v 0.0103000 0.0061565 0.0012246
v 0.0103000 0.0054627 0.0022627
v 0.0103000 0.0044246 0.0029565
v 0.0103000 0.0032000 0.0032000
v 0.0103000 0.0019754 0.0029565
v 0.0103000 0.0009373 0.0022627
v 0.0103000 0.0002435 0.0012246
v 0.0111000 0.0032000 -0.0000000
v 0.0111000 0.0000000 -0.0000000
v 0.0111000 0.0002435 -0.0012246
v 0.0111000 0.0009373 -0.0022627
v 0.0111000 0.0019754 -0.0029565
v 0.0111000 0.0032000 -0.0032000
v 0.0111000 0.0044246 -0.0029565
v 0.0111000 0.0054627 -0.0022627
v 0.0111000 0.0061565 -0.0012246
v 0.0111000 0.0064000 -0.0000000
v 0.0111000 0.0061565 0.0012246
v 0.0111000 0.0054627 0.0022627
v 0.0111000 0.0044246 0.0029565
v 0.0111000 0.0032000 0.0032000
v 0.0111000 0.0019754 0.0029565
v 0.0111000 0.0009373 0.0022627
v 0.0111000 0.0002435 0.0012246
v -0.0124657 0.0012191 0.0006520
v -0.0119000 0.0009591 0.0008000
v -0.0119000 0.0024000 0.0008000
v -0.0127000 0.0020463 0.0006528
v -0.0127000 0.0024568 0.0007432
v -0.0127000 0.0019134 -0.0000000
v -0.0124657 0.0010894 -0.0000000
v -0.0119000 0.0008000 -0.0000000
v -0.0127000 0.0032000 -0.0000000
v -0.0119000 0.0024000 0.0022409
v -0.0124657 0.0025480 0.0019809
v -0.0127000 0.0025472 0.0011537
v -0.0127000 0.0032000 0.0012866
v -0.0124657 0.0032000 0.0021106
v -0.0119000 0.0032000 0.0024000
v -0.0124657 0.0025480 -0.0019809
v -0.0119000 0.0024000 -0.0022409
v -0.0119000 0.0024000 -0.0008000
v -0.0127000 0.0025472 -0.0011537
v -0.0127000 0.0024568 -0.0007432
v -0.0127000 0.0032000 -0.0013124
v -0.0124657 0.0032000 -0.0021106
v -0.0119000 0.0032000 -0.0024000
v -0.0119000 0.0009591 -0.0008000
v -0.0124657 0.0012191 -0.0006520
v -0.0127000 0.0020463 -0.0006528
v -0.0124657 0.0051809 -0.0006520
v -0.0119000 0.0054409 -0.0008000
v -0.0119000 0.0040000 -0.0008000
v -0.0127000 0.0043537 -0.0006528
v -0.0127000 0.0039432 -0.0007432
v -0.0127000 0.0044866 -0.0000000
v -0.0124657 0.0053106 -0.0000000
v -0.0119000 0.0056000 -0.0000000
v -0.0119000 0.0040000 -0.0022409
v -0.0124657 0.0038520 -0.0019809
v -0.0127000 0.0038528 -0.0011537
v -0.0124657 0.0038520 0.0019809
v -0.0119000 0.0040000 0.0022409
v -0.0119000 0.0040000 0.0008000
v -0.0127000 0.0038528 0.0011537
v -0.0127000 0.0039432 0.0007432
v -0.0119000 0.0054409 0.0008000
v -0.0124657 0.0051809 0.0006520
v -0.0127000 0.0043537 0.0006528
v 0.0103000 0.0024000 -0.0008000
v 0.0103000 0.0024000 -0.0022409
v 0.0103000 0.0009591 -0.0008000
v 0.0103000 0.0040000 -0.0008000
v 0.0103000 0.0040000 -0.0022409
v 0.0103000 0.0054409 -0.0008000
v 0.0103000 0.0040000 0.0008000
v 0.0103000 0.0040000 0.0022409
v 0.0103000 0.0054409 0.0008000
v 0.0103000 0.0024000 0.0008000
v 0.0103000 0.0024000 0.0022409
v 0.0103000 0.0009591 0.0008000
v 0.0103000 0.0008000 -0.0000000
v 0.0103000 0.0032000 -0.0024000
v 0.0103000 0.0056000 -0.0000000
v 0.0103000 0.0032000 0.0024000
f 1 2 3
f 4 1 3
f 5 6 2
f 1 5 2
f 7 8 6
f 5 7 6
f 9 10 8
f 7 9 8
f 11 12 10
f 9 11 10
f 13 14 12
f 11 13 12
f 15 16 14
f 13 15 14
f 17 18 16
f 15 17 16
f 19 20 18
f 17 19 18
f 21 22 20
f 19 21 20
f 23 24 22
f 21 23 22
f 25 26 24
f 23 25 24
f 27 28 26
f 25 27 26
f 29 30 28
f 27 29 28
f 31 32 30
f 29 31 30
f 4 3 32
f 31 4 32
f 33 34 35
f 33 35 36
f 34 37 38
f 34 38 35
f 37 39 40
f 37 40 38
f 39 41 42
f 39 42 40
f 41 43 44
f 41 44 42
f 43 45 46
f 43 46 44
f 45 47 48
f 45 48 46
f 47 49 50
f 47 50 48
f 49 51 52
f 49 52 50
f 51 53 54
f 51 54 52
f 53 55 56
f 53 56 54
f 55 57 58
f 55 58 56
f 57 59 60
f 57 60 58
f 59 61 62
f 59 62 60
f 61 63 64
f 61 64 62
f 63 33 36
f 63 36 64
f 44 11 9
f 44 9 42
f 46 13 11
f 46 11 44
f 48 15 13
f 48 13 46
f 50 17 15
f 50 15 48
f 52 19 17
f 52 17 50
f 54 21 19
f 54 19 52
f 56 23 21
f 56 21 54
f 58 25 23
f 58 23 56
f 60 27 25
f 60 25 58
f 62 29 27
f 62 27 60
f 64 31 29
f 64 29 62
f 36 4 31
f 36 31 64
f 35 1 4
f 35 4 36
f 38 5 1
f 38 1 35
f 40 7 5
f 40 5 38
f 42 9 7
f 42 7 40
f 65 66 67
f 68 65 67
f 69 68 67
f 70 69 67
f 71 70 67
f 72 71 67
f 73 72 67
f 74 73 67
f 75 74 67
f 76 75 67
f 77 76 67
f 78 77 67
f 79 78 67
f 80 79 67
f 81 80 67
f 66 81 67
f 82 83 84
f 82 84 85
f 82 85 86
f 82 86 87
f 82 87 88
f 82 88 89
f 82 89 90
f 82 90 91
f 82 91 92
f 82 92 93
f 82 93 94
f 82 94 95
f 82 95 96
f 82 96 97
f 82 97 98
f 82 98 83
f 66 65 84
f 66 84 83
f 65 68 85
f 65 85 84
f 68 69 86
f 68 86 85
f 69 70 87
f 69 87 86
f 70 71 88
f 70 88 87
f 71 72 89
f 71 89 88
f 72 73 90
f 72 90 89
f 73 74 91
f 73 91 90
f 74 75 92
f 74 92 91
f 75 76 93
f 75 93 92
f 76 77 94
f 76 94 93
f 77 78 95
f 77 95 94
f 78 79 96
f 78 96 95
f 79 80 97
f 79 97 96
f 80 81 98
f 80 98 97
f 81 66 83
f 81 83 98
f 99 100 101
f 99 101 102
f 102 101 103
f 99 102 104
f 99 104 105
f 100 99 105
f 100 105 106
f 107 104 102
f 107 102 103
f 108 109 101
f 101 109 110
f 101 110 103
f 111 110 109
f 111 109 112
f 112 109 108
f 112 108 113
f 110 111 107
f 110 107 103
f 114 115 116
f 114 116 117
f 117 116 118
f 114 117 119
f 114 119 120
f 115 114 120
f 115 120 121
f 107 119 117
f 107 117 118
f 122 123 116
f 116 123 124
f 116 124 118
f 104 124 123
f 104 123 105
f 105 123 122
f 105 122 106
f 124 104 107
f 124 107 118
f 125 126 127
f 125 127 128
f 128 127 129
f 125 128 130
f 125 130 131
f 126 125 131
f 126 131 132
f 107 130 128
f 107 128 129
f 133 134 127
f 127 134 135
f 127 135 129
f 119 135 134
f 119 134 120
f 120 134 133
f 120 133 121
f 135 119 107
f 135 107 129
f 136 137 138
f 136 138 139
f 139 138 140
f 136 139 111
f 136 111 112
f 137 136 112
f 137 112 113
f 107 111 139
f 107 139 140
f 141 142 138
f 138 142 143
f 138 143 140
f 130 143 142
f 130 142 131
f 131 142 141
f 131 141 132
f 143 130 107
f 143 107 140
f 144 116 115
f 144 115 145
f 122 116 144
f 122 144 146
f 133 127 147
f 148 133 147
f 147 127 126
f 149 147 126
f 150 138 137
f 150 137 151
f 141 138 150
f 141 150 152
f 108 101 153
f 154 108 153
f 153 101 100
f 155 153 100
f 122 146 156
f 122 156 106
f 115 121 157
f 115 157 145
f 133 148 157
f 133 157 121
f 126 132 158
f 126 158 149
f 141 152 158
f 141 158 132
f 108 154 159
f 108 159 113
f 137 113 159
f 137 159 151
f 100 106 156
f 100 156 155
