# Botball Lab: metres, +Y up, centred XZ, base Y=0
s off
v -0.0032000 0.0036000 -0.0021891
v -0.0032000 0.0045185 -0.0020065
v -0.0032000 0.0048246 -0.0027456
v -0.0032000 0.0036000 -0.0029891
v -0.0032000 0.0052970 -0.0014861
v -0.0032000 0.0058627 -0.0020518
v -0.0032000 0.0058174 -0.0007076
v -0.0032000 0.0065565 -0.0010137
v -0.0032000 0.0060000 0.0002109
v -0.0032000 0.0068000 0.0002109
v -0.0032000 0.0058174 0.0011294
v -0.0032000 0.0065565 0.0014355
v -0.0032000 0.0052970 0.0019079
v -0.0032000 0.0058627 0.0024736
v -0.0032000 0.0045185 0.0024283
v -0.0032000 0.0048246 0.0031674
v -0.0032000 0.0036000 0.0026109
v -0.0032000 0.0036000 0.0034109
v -0.0032000 0.0026815 0.0024283
v -0.0032000 0.0023754 0.0031674
v -0.0032000 0.0019030 0.0019079
v -0.0032000 0.0013373 0.0024736
v -0.0032000 0.0013826 0.0011294
v -0.0032000 0.0006435 0.0014355
v -0.0032000 0.0012000 0.0002109
v -0.0032000 0.0004000 0.0002109
v -0.0032000 0.0013826 -0.0007076
v -0.0032000 0.0006435 -0.0010137
v -0.0032000 0.0019030 -0.0014861
v -0.0032000 0.0013373 -0.0020518
v -0.0032000 0.0026815 -0.0020065
v -0.0032000 0.0023754 -0.0027456
v -0.0040000 0.0006435 -0.0010137
v -0.0040000 0.0004000 0.0002109
v -0.0040000 0.0013373 -0.0020518
v -0.0040000 0.0023754 -0.0027456
v -0.0040000 0.0036000 -0.0029891
v -0.0040000 0.0048246 -0.0027456
v -0.0040000 0.0058627 -0.0020518
v -0.0040000 0.0065565 -0.0010137
v -0.0040000 0.0068000 0.0002109
v -0.0040000 0.0065565 0.0014355
v -0.0040000 0.0058627 0.0024736
v -0.0040000 0.0048246 0.0031674
v -0.0040000 0.0036000 0.0034109
v -0.0040000 0.0023754 0.0031674
v -0.0040000 0.0013373 0.0024736
v -0.0040000 0.0006435 0.0014355
v -0.0040000 0.0000000 0.0002109
v -0.0040000 0.0002740 0.0015886
v -0.0040000 0.0010544 0.0027565
v -0.0040000 0.0022223 0.0035369
v -0.0040000 0.0036000 0.0038109
v -0.0040000 0.0049777 0.0035369
v -0.0040000 0.0061456 0.0027565
v -0.0040000 0.0069260 0.0015886
v -0.0040000 0.0072000 0.0002109
v -0.0040000 0.0069260 -0.0011668
v -0.0040000 0.0061456 -0.0023347
v -0.0040000 0.0049777 -0.0031151
v -0.0040000 0.0036000 -0.0033891
v -0.0040000 0.0022223 -0.0031151
v -0.0040000 0.0010544 -0.0023347
v -0.0040000 0.0002740 -0.0011668
v 0.0032000 0.0013826 -0.0007076
v 0.0032000 0.0012000 0.0002109
v 0.0032000 0.0019030 -0.0014861
v 0.0032000 0.0026815 -0.0020065
v 0.0032000 0.0036000 -0.0021891
v 0.0032000 0.0045185 -0.0020065
v 0.0032000 0.0052970 -0.0014861
v 0.0032000 0.0058174 -0.0007076
v 0.0032000 0.0060000 0.0002109
v 0.0032000 0.0058174 0.0011294
v 0.0032000 0.0052970 0.0019079
v 0.0032000 0.0045185 0.0024283
v 0.0032000 0.0036000 0.0026109
v 0.0032000 0.0026815 0.0024283
v 0.0032000 0.0019030 0.0019079
v 0.0032000 0.0013826 0.0011294
v 0.0040000 0.0000000 0.0002109
v 0.0040000 0.0002740 -0.0011668
v 0.0040000 0.0006435 -0.0010137
v 0.0040000 0.0004000 0.0002109
v 0.0040000 0.0010544 -0.0023347
v 0.0040000 0.0013373 -0.0020518
v 0.0040000 0.0022223 -0.0031151
v 0.0040000 0.0023754 -0.0027456
v 0.0040000 0.0036000 -0.0033891
v 0.0040000 0.0036000 -0.0029891
v 0.0040000 0.0049777 -0.0031151
v 0.0040000 0.0048246 -0.0027456
v 0.0040000 0.0061456 -0.0023347
v 0.0040000 0.0058627 -0.0020518
v 0.0040000 0.0069260 -0.0011668
v 0.0040000 0.0065565 -0.0010137
v 0.0040000 0.0072000 0.0002109
v 0.0040000 0.0068000 0.0002109
v 0.0040000 0.0069260 0.0015886
v 0.0040000 0.0065565 0.0014355
v 0.0040000 0.0061456 0.0027565
v 0.0040000 0.0058627 0.0024736
v 0.0040000 0.0049777 0.0035369
v 0.0040000 0.0048246 0.0031674
v 0.0040000 0.0036000 0.0038109
v 0.0040000 0.0036000 0.0034109
v 0.0040000 0.0022223 0.0035369
v 0.0040000 0.0023754 0.0031674
v 0.0040000 0.0010544 0.0027565
v 0.0040000 0.0013373 0.0024736
v 0.0040000 0.0002740 0.0015886
v 0.0040000 0.0006435 0.0014355
v 0.0032000 0.0048246 -0.0027456
v 0.0032000 0.0036000 -0.0029891
v 0.0032000 0.0058627 -0.0020518
v 0.0032000 0.0065565 -0.0010137
v 0.0032000 0.0068000 0.0002109
v 0.0032000 0.0065565 0.0014355
v 0.0032000 0.0058627 0.0024736
v 0.0032000 0.0048246 0.0031674
v 0.0032000 0.0036000 0.0034109
v 0.0032000 0.0023754 0.0031674
v 0.0032000 0.0013373 0.0024736
v 0.0032000 0.0006435 0.0014355
v 0.0032000 0.0004000 0.0002109
v 0.0032000 0.0006435 -0.0010137
v 0.0032000 0.0013373 -0.0020518
v 0.0032000 0.0023754 -0.0027456
v -0.0024000 0.0051307 -0.0034846
v -0.0024000 0.0080391 -0.0105061
v -0.0022409 0.0087782 -0.0102000
v -0.0022409 0.0058698 -0.0031785
v -0.0016000 0.0058698 -0.0031785
v -0.0016000 0.0087782 -0.0102000
v -0.0010000 0.0089630 -0.0101234
v -0.0010000 0.0060546 -0.0031019
v -0.0008000 0.0095173 -0.0098938
v -0.0008000 0.0066089 -0.0028723
v -0.0008000 0.0101094 -0.0096485
v -0.0008000 0.0072011 -0.0026271
v 0.0000000 0.0102564 -0.0095877
v 0.0000000 0.0073480 -0.0025662
v 0.0009185 0.0100877 -0.0096576
v 0.0009185 0.0071793 -0.0026361
v 0.0014046 0.0097877 -0.0097818
v 0.0014046 0.0068793 -0.0027603
v 0.0009303 0.0091562 -0.0100434
v 0.0009303 0.0062479 -0.0030219
v 0.0010000 0.0089630 -0.0101234
v 0.0010000 0.0060546 -0.0031019
v 0.0012092 0.0088986 -0.0101501
v 0.0012092 0.0059902 -0.0031286
v 0.0018926 0.0064284 -0.0029471
v 0.0018926 0.0093368 -0.0099686
v 0.0022174 0.0088877 -0.0101546
v 0.0022174 0.0059793 -0.0031331
v 0.0024000 0.0080391 -0.0105061
v 0.0024000 0.0051307 -0.0034846
v 0.0022409 0.0073000 -0.0108122
v 0.0022409 0.0043916 -0.0037908
v 0.0016000 0.0043916 -0.0037908
v 0.0016000 0.0073000 -0.0108122
v 0.0010000 0.0071152 -0.0108888
v 0.0010000 0.0042068 -0.0038673
v 0.0008000 0.0065609 -0.0111184
v 0.0008000 0.0036525 -0.0040969
v 0.0008000 0.0059687 -0.0113637
v 0.0008000 0.0030604 -0.0043422
v 0.0000000 0.0058218 -0.0114245
v 0.0000000 0.0029134 -0.0044030
v -0.0009185 0.0059905 -0.0113546
v -0.0009185 0.0030821 -0.0043331
v -0.0014046 0.0062905 -0.0112304
v -0.0014046 0.0033821 -0.0042089
v -0.0009303 0.0069219 -0.0109688
v -0.0009303 0.0040136 -0.0039473
v -0.0010000 0.0071152 -0.0108888
v -0.0010000 0.0042068 -0.0038673
v -0.0012092 0.0071796 -0.0108621
v -0.0012092 0.0042713 -0.0038406
v -0.0018926 0.0038330 -0.0040221
v -0.0018926 0.0067414 -0.0110436
v -0.0022174 0.0071905 -0.0108576
v -0.0022174 0.0042822 -0.0038361
v -0.0022174 0.0088876 -0.0101546
v -0.0016971 0.0096070 -0.0098566
v -0.0009184 0.0100877 -0.0096576
v 0.0016972 0.0096071 -0.0098566
v 0.0016970 0.0096069 -0.0098567
v 0.0022174 0.0071906 -0.0108576
v 0.0016971 0.0064712 -0.0111556
v 0.0009184 0.0059905 -0.0113546
v -0.0016970 0.0064712 -0.0111555
v -0.0024000 0.0081922 -0.0108757
v -0.0022174 0.0090407 -0.0105242
v -0.0022174 0.0088877 -0.0101546
v -0.0016970 0.0097600 -0.0102262
v -0.0016970 0.0096069 -0.0098567
v -0.0009185 0.0102407 -0.0100271
v -0.0009185 0.0100877 -0.0096576
v 0.0000000 0.0104095 -0.0099572
v 0.0009185 0.0102407 -0.0100271
v 0.0016970 0.0097600 -0.0102262
v 0.0022174 0.0090407 -0.0105242
v 0.0024000 0.0081922 -0.0108757
v 0.0022174 0.0073436 -0.0112271
v 0.0022174 0.0071905 -0.0108576
v 0.0016970 0.0066243 -0.0115251
v 0.0016970 0.0064712 -0.0111555
v 0.0009185 0.0061436 -0.0117242
v 0.0009185 0.0059905 -0.0113546
v 0.0000000 0.0059748 -0.0117941
v -0.0009185 0.0061436 -0.0117242
v -0.0016970 0.0066243 -0.0115251
v -0.0022174 0.0073436 -0.0112271
v -0.0016970 0.0059748 -0.0117941
v 0.0016970 0.0059748 -0.0117941
v -0.0024000 0.0097600 -0.0102262
v -0.0024000 0.0066243 -0.0115251
v 0.0016970 0.0104095 -0.0099572
v -0.0016970 0.0104095 -0.0099572
v 0.0024000 0.0066243 -0.0115251
v 0.0024000 0.0097600 -0.0102262
v 0.0000000 0.0051307 -0.0034846
v -0.0016970 0.0035629 -0.0041340
v 0.0009185 0.0030821 -0.0043331
v 0.0016970 0.0035629 -0.0041340
v 0.0022174 0.0042822 -0.0038361
v 0.0016970 0.0066986 -0.0028352
v -0.0009185 0.0071793 -0.0026361
v -0.0016970 0.0066986 -0.0028352
v -0.0022174 0.0059793 -0.0031331
v -0.0034000 0.0069193 -0.0114027
v -0.0034000 0.0035999 -0.0033889
v -0.0034000 0.0061455 -0.0023345
v -0.0034000 0.0094649 -0.0103483
v -0.0004619 0.0114162 -0.0095402
v -0.0013776 0.0113331 -0.0095746
v -0.0013776 0.0069531 0.0009997
v -0.0004619 0.0070362 0.0010341
v 0.0004617 0.0114163 -0.0095402
v 0.0004617 0.0070363 0.0010342
v 0.0013777 0.0113332 -0.0095746
v 0.0013777 0.0069532 0.0009998
v -0.0024719 0.0098198 -0.0102015
v -0.0028977 0.0095570 -0.0103103
v -0.0033998 0.0094647 -0.0103485
v -0.0017618 0.0104760 -0.0099297
v -0.0020461 0.0100826 -0.0100926
v -0.0013774 0.0113332 -0.0095746
v -0.0014772 0.0108692 -0.0097668
v -0.0024719 0.0065004 -0.0021877
v -0.0033998 0.0061454 -0.0023348
v -0.0017618 0.0071566 -0.0019159
v -0.0013774 0.0080138 -0.0015609
v -0.0024719 0.0063898 -0.0019206
v -0.0017618 0.0067307 -0.0008876
v -0.0013774 0.0071161 0.0006063
v 0.0033998 0.0094647 -0.0103485
v 0.0028977 0.0095570 -0.0103103
v 0.0024719 0.0098198 -0.0102015
v 0.0020461 0.0100826 -0.0100926
v 0.0017618 0.0104760 -0.0099297
v 0.0014772 0.0108692 -0.0097668
v 0.0013774 0.0113332 -0.0095746
v 0.0024719 0.0065004 -0.0021877
v 0.0033998 0.0061454 -0.0023348
v 0.0017618 0.0071566 -0.0019159
v 0.0013774 0.0080138 -0.0015609
v 0.0024719 0.0063898 -0.0019206
v 0.0017618 0.0067307 -0.0008876
v 0.0013774 0.0071161 0.0006063
v 0.0034000 0.0094650 -0.0103486
v 0.0034000 0.0061457 -0.0023349
v 0.0034000 0.0036001 -0.0033893
v 0.0034000 0.0069194 -0.0114030
v 0.0004619 0.0049681 -0.0122111
v 0.0013776 0.0050512 -0.0121767
v 0.0013776 0.0006712 -0.0016023
v 0.0004619 0.0005881 -0.0016367
v -0.0004617 0.0049680 -0.0122111
v -0.0004617 0.0005880 -0.0016367
v -0.0013777 0.0050511 -0.0121767
v -0.0013777 0.0006711 -0.0016024
v 0.0024719 0.0065645 -0.0115498
v 0.0028977 0.0068273 -0.0114410
v 0.0033998 0.0069196 -0.0114028
v 0.0017618 0.0059084 -0.0118216
v 0.0020461 0.0063018 -0.0116587
v 0.0013774 0.0050512 -0.0121767
v 0.0014772 0.0055152 -0.0119845
v 0.0024719 0.0032452 -0.0035361
v 0.0033998 0.0036002 -0.0033890
v 0.0017618 0.0025890 -0.0038079
v 0.0013774 0.0017318 -0.0041630
v 0.0024719 0.0031345 -0.0032689
v 0.0017618 0.0021631 -0.0027796
v 0.0013774 0.0008341 -0.0019958
v -0.0033998 0.0069196 -0.0114028
v -0.0028977 0.0068273 -0.0114410
v -0.0024719 0.0065645 -0.0115498
v -0.0020461 0.0063018 -0.0116587
v -0.0017618 0.0059084 -0.0118216
v -0.0014772 0.0055152 -0.0119845
v -0.0013774 0.0050512 -0.0121767
v -0.0024719 0.0032452 -0.0035361
v -0.0033998 0.0036002 -0.0033890
v -0.0017618 0.0025890 -0.0038079
v -0.0013774 0.0017318 -0.0041630
v -0.0024719 0.0031345 -0.0032689
v -0.0017618 0.0021631 -0.0027796
v -0.0013774 0.0008341 -0.0019958
v -0.0022409 0.0044000 0.0118109
v -0.0024000 0.0036000 0.0118109
v -0.0024000 0.0036000 0.0042109
v -0.0022409 0.0044000 0.0042109
v -0.0016000 0.0044000 0.0042109
v -0.0016000 0.0044000 0.0118109
v -0.0010000 0.0046000 0.0042109
v -0.0010000 0.0046000 0.0118109
v -0.0008000 0.0052000 0.0042109
v -0.0008000 0.0052000 0.0118109
v -0.0008000 0.0058409 0.0042109
v -0.0008000 0.0058409 0.0118109
v 0.0000000 0.0060000 0.0042109
v 0.0000000 0.0060000 0.0118109
v 0.0009185 0.0058174 0.0118109
v 0.0009185 0.0058174 0.0042109
v 0.0014046 0.0054926 0.0118109
v 0.0014046 0.0054926 0.0042109
v 0.0009303 0.0048092 0.0042109
v 0.0009303 0.0048092 0.0118109
v 0.0010000 0.0046000 0.0042109
v 0.0010000 0.0046000 0.0118109
v 0.0012092 0.0045303 0.0118109
v 0.0012092 0.0045303 0.0042109
v 0.0018926 0.0050046 0.0042109
v 0.0018926 0.0050046 0.0118109
v 0.0022174 0.0045185 0.0118109
v 0.0022174 0.0045185 0.0042109
v 0.0024000 0.0036000 0.0118109
v 0.0024000 0.0036000 0.0042109
v 0.0022409 0.0028000 0.0118109
v 0.0022409 0.0028000 0.0042109
v 0.0016000 0.0028000 0.0042109
v 0.0016000 0.0028000 0.0118109
v 0.0010000 0.0026000 0.0042109
v 0.0010000 0.0026000 0.0118109
v 0.0008000 0.0020000 0.0042109
v 0.0008000 0.0020000 0.0118109
v 0.0008000 0.0013591 0.0042109
v 0.0008000 0.0013591 0.0118109
v 0.0000000 0.0012000 0.0042109
v 0.0000000 0.0012000 0.0118109
v -0.0009185 0.0013826 0.0118109
v -0.0009185 0.0013826 0.0042109
v -0.0014046 0.0017074 0.0118109
v -0.0014046 0.0017074 0.0042109
v -0.0009303 0.0023908 0.0042109
v -0.0009303 0.0023908 0.0118109
v -0.0010000 0.0026000 0.0042109
v -0.0010000 0.0026000 0.0118109
v -0.0012092 0.0026697 0.0118109
v -0.0012092 0.0026697 0.0042109
v -0.0018926 0.0021954 0.0042109
v -0.0018926 0.0021954 0.0118109
v -0.0022174 0.0026815 0.0118109
v -0.0022174 0.0026815 0.0042109
v -0.0016971 0.0052971 0.0118109
v -0.0022174 0.0045184 0.0118109
v -0.0009184 0.0058174 0.0118109
v 0.0016972 0.0052972 0.0118109
v 0.0016970 0.0052970 0.0118109
v 0.0016971 0.0019029 0.0118109
v 0.0022174 0.0026816 0.0118109
v 0.0009184 0.0013826 0.0118109
v -0.0016970 0.0019030 0.0118109
v -0.0022174 0.0045185 0.0118109
v -0.0022174 0.0045185 0.0122109
v -0.0024000 0.0036000 0.0122109
v -0.0016970 0.0052970 0.0118109
v -0.0016970 0.0052970 0.0122109
v -0.0009185 0.0058174 0.0118109
v -0.0009185 0.0058174 0.0122109
v 0.0000000 0.0060000 0.0122109
v 0.0009185 0.0058174 0.0122109
v 0.0016970 0.0052970 0.0122109
v 0.0022174 0.0045185 0.0122109
v 0.0024000 0.0036000 0.0122109
v 0.0022174 0.0026815 0.0118109
v 0.0022174 0.0026815 0.0122109
v 0.0016970 0.0019030 0.0118109
v 0.0016970 0.0019030 0.0122109
v 0.0009185 0.0013826 0.0118109
v 0.0009185 0.0013826 0.0122109
v 0.0000000 0.0012000 0.0122109
v -0.0009185 0.0013826 0.0122109
v -0.0016970 0.0019030 0.0122109
v -0.0022174 0.0026815 0.0122109
v -0.0016970 0.0012000 0.0122109
v 0.0016970 0.0012000 0.0122109
v -0.0024000 0.0052970 0.0122109
v -0.0024000 0.0019030 0.0122109
v 0.0016970 0.0060000 0.0122109
v -0.0016970 0.0060000 0.0122109
v 0.0024000 0.0019030 0.0122109
v 0.0024000 0.0052970 0.0122109
v 0.0000000 0.0036000 0.0042109
v -0.0016970 0.0019030 0.0042109
v 0.0009185 0.0013826 0.0042109
v 0.0016970 0.0019030 0.0042109
v 0.0022174 0.0026815 0.0042109
v 0.0016970 0.0052970 0.0042109
v -0.0009185 0.0058174 0.0042109
v -0.0016970 0.0052970 0.0042109
v -0.0022174 0.0045185 0.0042109
v -0.0034000 0.0049777 0.0035367
v -0.0034000 0.0022223 0.0035367
v -0.0034000 0.0022223 0.0122107
v -0.0034000 0.0049777 0.0122107
v -0.0013776 0.0069998 0.0007653
v -0.0013776 0.0069998 0.0122109
v -0.0004619 0.0070896 0.0122109
v -0.0004619 0.0070896 0.0007653
v 0.0004617 0.0070898 0.0122109
v 0.0004617 0.0070898 0.0007653
v 0.0013777 0.0069999 0.0122109
v 0.0013777 0.0069999 0.0007653
v -0.0033998 0.0049774 0.0122109
v -0.0028977 0.0050773 0.0122109
v -0.0024719 0.0053617 0.0122109
v -0.0020461 0.0056461 0.0122109
v -0.0017618 0.0060720 0.0122109
v -0.0014772 0.0064976 0.0122109
v -0.0013774 0.0069998 0.0122109
v -0.0024719 0.0053617 0.0035369
v -0.0033998 0.0049774 0.0035369
v -0.0017618 0.0060720 0.0035369
v -0.0013774 0.0069998 0.0035369
v -0.0024719 0.0053617 0.0032477
v -0.0017618 0.0060720 0.0024239
v -0.0013774 0.0069998 0.0011912
v 0.0024719 0.0053617 0.0122109
v 0.0028977 0.0050773 0.0122109
v 0.0033998 0.0049774 0.0122109
v 0.0017618 0.0060720 0.0122109
v 0.0020461 0.0056461 0.0122109
v 0.0013774 0.0069998 0.0122109
v 0.0014772 0.0064976 0.0122109
v 0.0024719 0.0053617 0.0035369
v 0.0033998 0.0049774 0.0035369
v 0.0017618 0.0060720 0.0035369
v 0.0013774 0.0069998 0.0035369
v 0.0024719 0.0053617 0.0032477
v 0.0017618 0.0060720 0.0024239
v 0.0013774 0.0069998 0.0011912
v 0.0034000 0.0022223 0.0035371
v 0.0034000 0.0049777 0.0035371
v 0.0034000 0.0049777 0.0122111
v 0.0034000 0.0022223 0.0122111
v 0.0013776 0.0002002 0.0007653
v 0.0013776 0.0002002 0.0122109
v 0.0004619 0.0001104 0.0122109
v 0.0004619 0.0001104 0.0007653
v -0.0004617 0.0001102 0.0122109
v -0.0004617 0.0001102 0.0007653
v -0.0013777 0.0002001 0.0122109
v -0.0013777 0.0002001 0.0007653
v 0.0033998 0.0022226 0.0122109
v 0.0028977 0.0021227 0.0122109
v 0.0024719 0.0018383 0.0122109
v 0.0020461 0.0015539 0.0122109
v 0.0017618 0.0011280 0.0122109
v 0.0014772 0.0007024 0.0122109
v 0.0013774 0.0002002 0.0122109
v 0.0024719 0.0018383 0.0035369
v 0.0033998 0.0022226 0.0035369
v 0.0017618 0.0011280 0.0035369
v 0.0013774 0.0002002 0.0035369
v 0.0024719 0.0018383 0.0032477
v 0.0017618 0.0011280 0.0024239
v 0.0013774 0.0002002 0.0011912
v -0.0024719 0.0018383 0.0122109
v -0.0028977 0.0021227 0.0122109
v -0.0033998 0.0022226 0.0122109
v -0.0017618 0.0011280 0.0122109
v -0.0020461 0.0015539 0.0122109
v -0.0013774 0.0002002 0.0122109
v -0.0014772 0.0007024 0.0122109
v -0.0024719 0.0018383 0.0035369
v -0.0033998 0.0022226 0.0035369
v -0.0017618 0.0011280 0.0035369
v -0.0013774 0.0002002 0.0035369
v -0.0024719 0.0018383 0.0032477
v -0.0017618 0.0011280 0.0024239
v -0.0013774 0.0002002 0.0011912
v -0.0020461 0.0015538 0.0122109
v 0.0020461 0.0015538 0.0122109
v 0.0020461 0.0056462 0.0122109
v -0.0020461 0.0056462 0.0122109
v -0.0036000 0.0030000 0.0087609
v -0.0036000 0.0036000 0.0087609
v -0.0036000 0.0036000 0.0083609
v -0.0036000 0.0030000 0.0083609
v -0.0036000 0.0039000 0.0089109
v -0.0036000 0.0039000 0.0082109
v -0.0036000 0.0042500 0.0085609
v -0.0036000 0.0041000 0.0079109
v -0.0036000 0.0046000 0.0080109
v -0.0036000 0.0046000 0.0075109
v -0.0036000 0.0041000 0.0075609
v -0.0036000 0.0043500 0.0070109
v -0.0036000 0.0039500 0.0073109
v -0.0036000 0.0038500 0.0067109
v -0.0036000 0.0037500 0.0071609
v -0.0036000 0.0030000 0.0067109
v -0.0036000 0.0032000 0.0071609
v -0.0036000 0.0025000 0.0070109
v -0.0036000 0.0027500 0.0074109
v -0.0036000 0.0041500 0.0092609
v -0.0036000 0.0046000 0.0091109
v -0.0036000 0.0041500 0.0100609
v -0.0036000 0.0046000 0.0101909
v -0.0036000 0.0039000 0.0103109
v -0.0036000 0.0042000 0.0107109
v -0.0036000 0.0035500 0.0104609
v -0.0036000 0.0036000 0.0109109
v -0.0036000 0.0030500 0.0104609
v -0.0036000 0.0029000 0.0109109
v -0.0036000 0.0027500 0.0102109
v -0.0036000 0.0025000 0.0105609
v -0.0036000 0.0027500 0.0102107
v -0.0036000 0.0030500 0.0104607
v -0.0034000 0.0030500 0.0104607
v -0.0034000 0.0027500 0.0102107
v -0.0034000 0.0025000 0.0105607
v -0.0034000 0.0029000 0.0109107
v -0.0036000 0.0029000 0.0109107
v -0.0036000 0.0025000 0.0105607
v -0.0034000 0.0043500 0.0070109
v -0.0034000 0.0038500 0.0067109
v -0.0036000 0.0037500 0.0071607
v -0.0034000 0.0037500 0.0071607
v -0.0034000 0.0039500 0.0073107
v -0.0036000 0.0039500 0.0073107
v -0.0034000 0.0030000 0.0087609
v -0.0034000 0.0030000 0.0083609
v -0.0034000 0.0036000 0.0087609
v -0.0036000 0.0036000 0.0087607
v -0.0034000 0.0036000 0.0087607
v -0.0034000 0.0039000 0.0089107
v -0.0036000 0.0039000 0.0089107
v -0.0036000 0.0038998 0.0089107
v -0.0034000 0.0038998 0.0089107
v -0.0034000 0.0041498 0.0092607
v -0.0036000 0.0041498 0.0092607
v -0.0034000 0.0041500 0.0092609
v -0.0034000 0.0041500 0.0100609
v -0.0036000 0.0041498 0.0100607
v -0.0034000 0.0041498 0.0100607
v -0.0034000 0.0038998 0.0103107
v -0.0036000 0.0038998 0.0103107
v -0.0034000 0.0035498 0.0104607
v -0.0036000 0.0035498 0.0104607
v -0.0034000 0.0035500 0.0104609
v -0.0034000 0.0030500 0.0104609
v -0.0036000 0.0027502 0.0102107
v -0.0034000 0.0027502 0.0102107
v -0.0034000 0.0025002 0.0105607
v -0.0036000 0.0025002 0.0105607
v -0.0034000 0.0029000 0.0109109
v -0.0034000 0.0036000 0.0109109
v -0.0034000 0.0042000 0.0107109
v -0.0034000 0.0046000 0.0101909
v -0.0034000 0.0046000 0.0091109
v -0.0036000 0.0045998 0.0091107
v -0.0034000 0.0045998 0.0091107
v -0.0034000 0.0042498 0.0085607
v -0.0036000 0.0042498 0.0085607
v -0.0034000 0.0045998 0.0080107
v -0.0036000 0.0045998 0.0080107
v -0.0034000 0.0046000 0.0080109
v -0.0034000 0.0046000 0.0075109
v -0.0036000 0.0045998 0.0075109
v -0.0034000 0.0045998 0.0075109
v -0.0034000 0.0043498 0.0070109
v -0.0036000 0.0043498 0.0070109
v -0.0036000 0.0038502 0.0067109
v -0.0034000 0.0038502 0.0067109
v -0.0034000 0.0030002 0.0067109
v -0.0036000 0.0030002 0.0067109
v -0.0034000 0.0030000 0.0067109
v -0.0034000 0.0025000 0.0070109
v -0.0036000 0.0027502 0.0074109
v -0.0036000 0.0025002 0.0070109
v -0.0034000 0.0025002 0.0070109
v -0.0034000 0.0027502 0.0074109
v -0.0036000 0.0027502 0.0074107
v -0.0034000 0.0027502 0.0074107
v -0.0034000 0.0032002 0.0071607
v -0.0036000 0.0032002 0.0071607
v -0.0036000 0.0032002 0.0071609
v -0.0034000 0.0032002 0.0071609
v -0.0034000 0.0037502 0.0071609
v -0.0036000 0.0037502 0.0071609
v -0.0036000 0.0039498 0.0073107
v -0.0034000 0.0039498 0.0073107
v -0.0034000 0.0040998 0.0075607
v -0.0036000 0.0040998 0.0075607
v -0.0036000 0.0041000 0.0075607
v -0.0034000 0.0041000 0.0075607
v -0.0034000 0.0041000 0.0079107
v -0.0036000 0.0041000 0.0079107
v -0.0034000 0.0041000 0.0079109
v -0.0034000 0.0039000 0.0082109
v -0.0036000 0.0039000 0.0082107
v -0.0034000 0.0039000 0.0082107
v -0.0034000 0.0036000 0.0083607
v -0.0036000 0.0036000 0.0083607
v -0.0034000 0.0036000 0.0083609
v 0.0036000 0.0063174 -0.0079179
v 0.0036000 0.0068717 -0.0076883
v 0.0036000 0.0067186 -0.0073187
v 0.0036000 0.0061643 -0.0075483
v 0.0036000 0.0067188 -0.0073187
v 0.0036000 0.0068720 -0.0076883
v 0.0036000 0.0072064 -0.0077123
v 0.0036000 0.0069384 -0.0070655
v 0.0036000 0.0073960 -0.0072547
v 0.0036000 0.0070084 -0.0067119
v 0.0036000 0.0075088 -0.0066127
v 0.0036000 0.0073172 -0.0061507
v 0.0036000 0.0068744 -0.0063883
v 0.0036000 0.0068952 -0.0057847
v 0.0036000 0.0066404 -0.0062147
v 0.0036000 0.0063184 -0.0056987
v 0.0036000 0.0063980 -0.0061527
v 0.0036000 0.0055332 -0.0060239
v 0.0036000 0.0058900 -0.0063631
v 0.0036000 0.0051860 -0.0064927
v 0.0036000 0.0055700 -0.0067663
v 0.0036000 0.0075712 -0.0079399
v 0.0036000 0.0079296 -0.0076291
v 0.0036000 0.0078776 -0.0086791
v 0.0036000 0.0083428 -0.0086267
v 0.0036000 0.0077420 -0.0090055
v 0.0036000 0.0081724 -0.0092603
v 0.0036000 0.0074764 -0.0092783
v 0.0036000 0.0076948 -0.0096747
v 0.0036000 0.0070144 -0.0094695
v 0.0036000 0.0070480 -0.0099427
v 0.0036000 0.0066416 -0.0093535
v 0.0036000 0.0065444 -0.0097723
v 0.0036000 0.0066416 -0.0093534
v 0.0036000 0.0070144 -0.0094696
v 0.0034000 0.0070144 -0.0094696
v 0.0034000 0.0066416 -0.0093534
v 0.0034000 0.0065443 -0.0097723
v 0.0034000 0.0070477 -0.0099426
v 0.0036000 0.0070477 -0.0099426
v 0.0036000 0.0065443 -0.0097723
v 0.0036000 0.0068952 -0.0057844
v 0.0034000 0.0068952 -0.0057844
v 0.0034000 0.0063184 -0.0056986
v 0.0036000 0.0063184 -0.0056986
v 0.0036000 0.0063981 -0.0061529
v 0.0034000 0.0063981 -0.0061529
v 0.0034000 0.0066403 -0.0062149
v 0.0036000 0.0066403 -0.0062149
v 0.0034000 0.0063173 -0.0079179
v 0.0036000 0.0063173 -0.0079179
v 0.0034000 0.0061643 -0.0075483
v 0.0036000 0.0063176 -0.0079179
v 0.0034000 0.0063176 -0.0079179
v 0.0034000 0.0068720 -0.0076883
v 0.0036000 0.0068719 -0.0076884
v 0.0034000 0.0068719 -0.0076884
v 0.0034000 0.0072065 -0.0077122
v 0.0036000 0.0072065 -0.0077122
v 0.0036000 0.0072063 -0.0077120
v 0.0034000 0.0072063 -0.0077120
v 0.0034000 0.0075713 -0.0079397
v 0.0036000 0.0075713 -0.0079397
v 0.0036000 0.0075713 -0.0079399
v 0.0034000 0.0075713 -0.0079399
v 0.0034000 0.0078775 -0.0086790
v 0.0036000 0.0078775 -0.0086790
v 0.0036000 0.0078776 -0.0086790
v 0.0034000 0.0078776 -0.0086790
v 0.0034000 0.0077424 -0.0090056
v 0.0036000 0.0077424 -0.0090056
v 0.0036000 0.0077422 -0.0090056
v 0.0034000 0.0077422 -0.0090056
v 0.0034000 0.0074762 -0.0092782
v 0.0036000 0.0074762 -0.0092782
v 0.0034000 0.0070142 -0.0094696
v 0.0036000 0.0070142 -0.0094696
v 0.0036000 0.0066413 -0.0093532
v 0.0034000 0.0066413 -0.0093532
v 0.0034000 0.0065443 -0.0097722
v 0.0036000 0.0065443 -0.0097722
v 0.0036000 0.0070478 -0.0099426
v 0.0034000 0.0070478 -0.0099426
v 0.0034000 0.0076946 -0.0096748
v 0.0036000 0.0076946 -0.0096748
v 0.0036000 0.0076947 -0.0096747
v 0.0034000 0.0076947 -0.0096747
v 0.0034000 0.0081725 -0.0092603
v 0.0036000 0.0081725 -0.0092603
v 0.0036000 0.0081723 -0.0092602
v 0.0034000 0.0081723 -0.0092602
v 0.0034000 0.0083429 -0.0086267
v 0.0036000 0.0083429 -0.0086267
v 0.0036000 0.0083430 -0.0086268
v 0.0034000 0.0083430 -0.0086268
v 0.0034000 0.0079298 -0.0076290
v 0.0036000 0.0079298 -0.0076290
v 0.0036000 0.0079297 -0.0076290
v 0.0034000 0.0079297 -0.0076290
v 0.0034000 0.0073959 -0.0072548
v 0.0036000 0.0073959 -0.0072548
v 0.0036000 0.0073960 -0.0072549
v 0.0034000 0.0073960 -0.0072549
v 0.0034000 0.0075088 -0.0066129
v 0.0036000 0.0075088 -0.0066129
v 0.0036000 0.0075089 -0.0066129
v 0.0034000 0.0075089 -0.0066129
v 0.0034000 0.0073175 -0.0061509
v 0.0036000 0.0073175 -0.0061509
v 0.0036000 0.0073176 -0.0061510
v 0.0034000 0.0073176 -0.0061510
v 0.0034000 0.0068952 -0.0057848
v 0.0036000 0.0068952 -0.0057848
v 0.0036000 0.0063182 -0.0056989
v 0.0034000 0.0063182 -0.0056989
v 0.0034000 0.0055330 -0.0060241
v 0.0036000 0.0055330 -0.0060241
v 0.0036000 0.0051860 -0.0064925
v 0.0036000 0.0055332 -0.0060240
v 0.0034000 0.0055332 -0.0060240
v 0.0034000 0.0051860 -0.0064925
v 0.0036000 0.0055700 -0.0067664
v 0.0036000 0.0051860 -0.0064926
v 0.0034000 0.0051860 -0.0064926
v 0.0034000 0.0055700 -0.0067664
v 0.0034000 0.0055700 -0.0067663
v 0.0034000 0.0058900 -0.0063631
v 0.0036000 0.0058899 -0.0063631
v 0.0034000 0.0058899 -0.0063631
v 0.0034000 0.0063981 -0.0061527
v 0.0036000 0.0063981 -0.0061527
v 0.0036000 0.0066405 -0.0062147
v 0.0034000 0.0066405 -0.0062147
v 0.0034000 0.0068747 -0.0063883
v 0.0036000 0.0068747 -0.0063883
v 0.0036000 0.0068746 -0.0063882
v 0.0034000 0.0068746 -0.0063882
v 0.0034000 0.0070086 -0.0067116
v 0.0036000 0.0070086 -0.0067116
v 0.0036000 0.0070086 -0.0067118
v 0.0034000 0.0070086 -0.0067118
v 0.0034000 0.0069386 -0.0070655
v 0.0036000 0.0069386 -0.0070655
v 0.0036000 0.0069387 -0.0070656
v 0.0034000 0.0069387 -0.0070656
v 0.0034000 0.0067189 -0.0073190
v 0.0036000 0.0067189 -0.0073190
v 0.0036000 0.0061644 -0.0075483
v 0.0034000 0.0067188 -0.0073187
v 0.0034000 0.0061644 -0.0075483
f 1 2 3
f 4 1 3
f 2 5 6
f 3 2 6
f 5 7 8
f 6 5 8
f 7 9 10
f 8 7 10
f 9 11 12
f 10 9 12
f 11 13 14
f 12 11 14
f 13 15 16
f 14 13 16
f 15 17 18
f 16 15 18
f 17 19 20
f 18 17 20
f 19 21 22
f 20 19 22
f 21 23 24
f 22 21 24
f 23 25 26
f 24 23 26
f 25 27 28
f 26 25 28
f 27 29 30
f 28 27 30
f 29 31 32
f 30 29 32
f 31 1 4
f 32 31 4
f 26 28 33
f 26 33 34
f 28 30 35
f 28 35 33
f 30 32 36
f 30 36 35
f 32 4 37
f 32 37 36
f 4 3 38
f 4 38 37
f 3 6 39
f 3 39 38
f 6 8 40
f 6 40 39
f 8 10 41
f 8 41 40
f 10 12 42
f 10 42 41
f 12 14 43
f 12 43 42
f 14 16 44
f 14 44 43
f 16 18 45
f 16 45 44
f 18 20 46
f 18 46 45
f 20 22 47
f 20 47 46
f 22 24 48
f 22 48 47
f 24 26 34
f 24 34 48
f 49 50 48
f 49 48 34
f 50 51 47
f 50 47 48
f 51 52 46
f 51 46 47
f 52 53 45
f 52 45 46
f 53 54 44
f 53 44 45
f 54 55 43
f 54 43 44
f 55 56 42
f 55 42 43
f 56 57 41
f 56 41 42
f 57 58 40
f 57 40 41
f 58 59 39
f 58 39 40
f 59 60 38
f 59 38 39
f 60 61 37
f 60 37 38
f 61 62 36
f 61 36 37
f 62 63 35
f 62 35 36
f 63 64 33
f 63 33 35
f 64 49 34
f 64 34 33
f 65 27 25
f 66 65 25
f 67 29 27
f 65 67 27
f 68 31 29
f 67 68 29
f 69 1 31
f 68 69 31
f 70 2 1
f 69 70 1
f 71 5 2
f 70 71 2
f 72 7 5
f 71 72 5
f 73 9 7
f 72 73 7
f 74 11 9
f 73 74 9
f 75 13 11
f 74 75 11
f 76 15 13
f 75 76 13
f 77 17 15
f 76 77 15
f 78 19 17
f 77 78 17
f 79 21 19
f 78 79 19
f 80 23 21
f 79 80 21
f 66 25 23
f 80 66 23
f 81 82 83
f 81 83 84
f 82 85 86
f 82 86 83
f 85 87 88
f 85 88 86
f 87 89 90
f 87 90 88
f 89 91 92
f 89 92 90
f 91 93 94
f 91 94 92
f 93 95 96
f 93 96 94
f 95 97 98
f 95 98 96
f 97 99 100
f 97 100 98
f 99 101 102
f 99 102 100
f 101 103 104
f 101 104 102
f 103 105 106
f 103 106 104
f 105 107 108
f 105 108 106
f 107 109 110
f 107 110 108
f 109 111 112
f 109 112 110
f 111 81 84
f 111 84 112
f 113 70 69
f 113 69 114
f 115 71 70
f 115 70 113
f 116 72 71
f 116 71 115
f 117 73 72
f 117 72 116
f 118 74 73
f 118 73 117
f 119 75 74
f 119 74 118
f 120 76 75
f 120 75 119
f 121 77 76
f 121 76 120
f 122 78 77
f 122 77 121
f 123 79 78
f 123 78 122
f 124 80 79
f 124 79 123
f 125 66 80
f 125 80 124
f 126 65 66
f 126 66 125
f 127 67 65
f 127 65 126
f 128 68 67
f 128 67 127
f 114 69 68
f 114 68 128
f 83 126 125
f 84 83 125
f 86 127 126
f 83 86 126
f 88 128 127
f 86 88 127
f 90 114 128
f 88 90 128
f 92 113 114
f 90 92 114
f 94 115 113
f 92 94 113
f 96 116 115
f 94 96 115
f 98 117 116
f 96 98 116
f 100 118 117
f 98 100 117
f 102 119 118
f 100 102 118
f 104 120 119
f 102 104 119
f 106 121 120
f 104 106 120
f 108 122 121
f 106 108 121
f 110 123 122
f 108 110 122
f 112 124 123
f 110 112 123
f 84 125 124
f 112 84 124
f 64 82 81
f 49 64 81
f 63 85 82
f 64 63 82
f 62 87 85
f 63 62 85
f 61 89 87
f 62 61 87
f 60 91 89
f 61 60 89
f 59 93 91
f 60 59 91
f 58 95 93
f 59 58 93
f 57 97 95
f 58 57 95
f 56 99 97
f 57 56 97
f 55 101 99
f 56 55 99
f 54 103 101
f 55 54 101
f 53 105 103
f 54 53 103
f 52 107 105
f 53 52 105
f 51 109 107
f 52 51 107
f 50 111 109
f 51 50 109
f 49 81 111
f 50 49 111
f 129 130 131
f 129 131 132
f 133 132 131
f 133 131 134
f 134 135 136
f 134 136 133
f 137 138 136
f 137 136 135
f 139 140 138
f 139 138 137
f 139 141 142
f 139 142 140
f 142 141 143
f 142 143 144
f 144 143 145
f 144 145 146
f 145 147 148
f 145 148 146
f 149 150 148
f 149 148 147
f 150 149 151
f 150 151 152
f 153 152 151
f 153 151 154
f 153 154 155
f 153 155 156
f 156 155 157
f 156 157 158
f 158 157 159
f 158 159 160
f 161 160 159
f 161 159 162
f 162 163 164
f 162 164 161
f 165 166 164
f 165 164 163
f 167 168 166
f 167 166 165
f 167 169 170
f 167 170 168
f 170 169 171
f 170 171 172
f 172 171 173
f 172 173 174
f 173 175 176
f 173 176 174
f 177 178 176
f 177 176 175
f 178 177 179
f 178 179 180
f 181 180 179
f 181 179 182
f 181 182 183
f 181 183 184
f 184 183 130
f 184 130 129
f 135 185 186
f 135 186 187
f 135 134 131
f 135 131 185
f 137 135 187
f 137 187 139
f 154 151 149
f 154 149 188
f 147 145 189
f 147 189 149
f 163 190 191
f 163 191 192
f 163 162 159
f 163 159 190
f 165 163 192
f 165 192 167
f 182 179 177
f 182 177 193
f 175 173 193
f 175 193 177
f 194 195 196
f 194 196 130
f 195 197 198
f 195 198 196
f 197 199 200
f 197 200 198
f 199 201 141
f 199 141 200
f 201 202 143
f 201 143 141
f 202 203 189
f 202 189 143
f 203 204 155
f 203 155 189
f 204 205 157
f 204 157 155
f 205 206 207
f 205 207 157
f 206 208 209
f 206 209 207
f 208 210 211
f 208 211 209
f 210 212 169
f 210 169 211
f 212 213 171
f 212 171 169
f 213 214 193
f 213 193 171
f 214 215 183
f 214 183 193
f 215 194 130
f 215 130 183
f 216 213 212
f 216 214 213
f 212 210 217
f 210 208 217
f 218 195 194
f 218 197 195
f 194 215 219
f 215 214 219
f 220 202 201
f 220 203 202
f 201 199 221
f 199 197 221
f 222 206 205
f 222 208 206
f 205 204 223
f 204 203 223
f 184 129 224
f 225 184 224
f 172 225 224
f 170 172 224
f 226 170 224
f 227 226 224
f 228 227 224
f 158 228 224
f 156 158 224
f 229 156 224
f 144 229 224
f 142 144 224
f 230 142 224
f 231 230 224
f 232 231 224
f 129 232 224
f 233 234 235
f 233 235 236
f 237 238 239
f 237 239 240
f 241 237 240
f 241 240 242
f 243 241 242
f 243 242 244
f 238 237 241
f 238 241 243
f 245 246 247
f 248 249 245
f 250 251 248
f 252 245 247
f 252 247 253
f 254 248 245
f 254 245 252
f 255 250 248
f 255 248 254
f 253 256 252
f 252 256 257
f 252 257 254
f 254 257 258
f 254 258 255
f 259 260 261
f 261 262 263
f 263 264 265
f 259 261 266
f 267 259 266
f 261 263 268
f 266 261 268
f 263 265 269
f 268 263 269
f 266 270 267
f 271 270 266
f 268 271 266
f 272 271 268
f 269 272 268
f 273 274 275
f 273 275 276
f 277 278 279
f 277 279 280
f 281 277 280
f 281 280 282
f 283 281 282
f 283 282 284
f 278 277 281
f 278 281 283
f 285 286 287
f 288 289 285
f 290 291 288
f 292 285 287
f 292 287 293
f 294 288 285
f 294 285 292
f 295 290 288
f 295 288 294
f 293 296 292
f 292 296 297
f 292 297 294
f 294 297 298
f 294 298 295
f 299 300 301
f 301 302 303
f 303 304 305
f 299 301 306
f 307 299 306
f 301 303 308
f 306 301 308
f 303 305 309
f 308 303 309
f 306 310 307
f 311 310 306
f 308 311 306
f 312 311 308
f 309 312 308
f 246 194 233
f 246 233 236
f 300 233 194
f 301 300 194
f 301 194 219
f 302 301 219
f 302 219 214
f 303 302 214
f 303 214 216
f 303 216 212
f 303 212 304
f 290 283 304
f 290 304 212
f 291 290 212
f 212 217 288
f 212 288 291
f 289 288 217
f 289 217 208
f 285 289 208
f 285 208 222
f 259 287 286
f 259 286 205
f 285 222 205
f 285 205 286
f 205 223 261
f 205 261 260
f 260 259 205
f 263 262 203
f 263 203 220
f 223 203 262
f 223 262 261
f 263 220 201
f 263 201 264
f 264 201 238
f 264 238 265
f 251 238 201
f 201 221 248
f 201 248 251
f 245 249 197
f 245 197 218
f 221 197 249
f 221 249 248
f 194 246 245
f 194 245 218
f 313 314 315
f 316 313 315
f 313 316 317
f 318 313 317
f 319 320 318
f 317 319 318
f 319 321 322
f 320 319 322
f 321 323 324
f 322 321 324
f 325 326 324
f 323 325 324
f 327 326 325
f 328 327 325
f 329 327 328
f 330 329 328
f 331 332 329
f 330 331 329
f 331 333 334
f 332 331 334
f 335 334 333
f 336 335 333
f 335 336 337
f 338 335 337
f 339 338 337
f 340 339 337
f 341 339 340
f 342 341 340
f 343 341 342
f 344 343 342
f 343 344 345
f 346 343 345
f 347 348 346
f 345 347 346
f 347 349 350
f 348 347 350
f 349 351 352
f 350 349 352
f 353 354 352
f 351 353 352
f 355 354 353
f 356 355 353
f 357 355 356
f 358 357 356
f 359 360 357
f 358 359 357
f 359 361 362
f 360 359 362
f 363 362 361
f 364 363 361
f 363 364 365
f 366 363 365
f 367 366 365
f 368 367 365
f 314 367 368
f 315 314 368
f 369 370 320
f 371 369 320
f 313 318 320
f 370 313 320
f 371 320 322
f 324 371 322
f 334 335 338
f 372 334 338
f 373 329 332
f 334 373 332
f 374 375 348
f 376 374 348
f 343 346 348
f 375 343 348
f 376 348 350
f 352 376 350
f 362 363 366
f 377 362 366
f 377 357 360
f 362 377 360
f 378 379 380
f 314 378 380
f 381 382 379
f 378 381 379
f 383 384 382
f 381 383 382
f 326 385 384
f 383 326 384
f 327 386 385
f 326 327 385
f 373 387 386
f 327 373 386
f 339 388 387
f 373 339 387
f 341 389 388
f 339 341 388
f 390 391 389
f 341 390 389
f 392 393 391
f 390 392 391
f 394 395 393
f 392 394 393
f 354 396 395
f 394 354 395
f 355 397 396
f 354 355 396
f 377 398 397
f 355 377 397
f 367 399 398
f 377 367 398
f 314 380 399
f 367 314 399
f 396 397 400
f 397 398 400
f 401 395 396
f 401 393 395
f 380 379 402
f 379 382 402
f 403 399 380
f 403 398 399
f 385 386 404
f 386 387 404
f 405 384 385
f 405 382 384
f 389 391 406
f 391 393 406
f 407 388 389
f 407 387 388
f 408 315 368
f 408 368 409
f 408 409 356
f 408 356 353
f 408 353 410
f 408 410 411
f 408 411 412
f 408 412 342
f 408 342 340
f 408 340 413
f 408 413 328
f 408 328 325
f 408 325 414
f 408 414 415
f 408 415 416
f 408 416 315
f 417 418 419
f 420 417 419
f 421 422 423
f 424 421 423
f 424 423 425
f 426 424 425
f 426 425 427
f 428 426 427
f 425 423 422
f 427 425 422
f 429 430 431
f 431 432 433
f 433 434 435
f 429 431 436
f 437 429 436
f 431 433 438
f 436 431 438
f 433 435 439
f 438 433 439
f 436 440 437
f 441 440 436
f 438 441 436
f 442 441 438
f 439 442 438
f 443 444 445
f 446 447 443
f 448 449 446
f 450 443 445
f 450 445 451
f 452 446 443
f 452 443 450
f 453 448 446
f 453 446 452
f 451 454 450
f 450 454 455
f 450 455 452
f 452 455 456
f 452 456 453
f 457 458 459
f 460 457 459
f 461 462 463
f 464 461 463
f 464 463 465
f 466 464 465
f 466 465 467
f 468 466 467
f 465 463 462
f 467 465 462
f 469 470 471
f 471 472 473
f 473 474 475
f 469 471 476
f 477 469 476
f 471 473 478
f 476 471 478
f 473 475 479
f 478 473 479
f 476 480 477
f 481 480 476
f 478 481 476
f 482 481 478
f 479 482 478
f 483 484 485
f 486 487 483
f 488 489 486
f 490 483 485
f 490 485 491
f 492 486 483
f 492 483 490
f 493 488 486
f 493 486 492
f 491 494 490
f 490 494 495
f 490 495 492
f 492 495 496
f 492 496 493
f 419 380 430
f 420 419 430
f 380 419 484
f 380 484 483
f 403 380 483
f 403 483 497
f 398 403 497
f 398 497 486
f 400 398 486
f 396 400 486
f 489 396 486
f 489 467 475
f 396 489 475
f 396 475 474
f 473 401 396
f 474 473 396
f 401 473 498
f 393 401 498
f 393 498 471
f 406 393 471
f 470 469 445
f 389 470 445
f 389 406 471
f 470 389 471
f 443 407 389
f 444 443 389
f 389 445 444
f 387 499 446
f 404 387 446
f 499 387 407
f 443 499 407
f 385 404 446
f 449 385 446
f 422 385 449
f 448 422 449
f 385 422 434
f 433 405 385
f 434 433 385
f 382 500 431
f 402 382 431
f 500 382 405
f 433 500 405
f 431 430 380
f 402 431 380
f 501 502 503
f 501 503 504
f 503 502 505
f 503 505 506
f 505 507 506
f 508 506 507
f 508 507 509
f 509 510 511
f 509 511 508
f 510 512 513
f 510 513 511
f 512 514 515
f 512 515 513
f 516 517 515
f 516 515 514
f 518 519 517
f 518 517 516
f 507 505 520
f 507 520 521
f 522 523 521
f 522 521 520
f 524 525 523
f 524 523 522
f 526 527 525
f 526 525 524
f 526 528 529
f 526 529 527
f 530 531 529
f 530 529 528
f 532 533 534
f 532 534 535
f 536 537 538
f 536 538 539
f 512 540 541
f 512 541 514
f 542 543 544
f 542 544 545
f 546 501 504
f 546 504 547
f 502 501 546
f 502 546 548
f 549 550 551
f 549 551 552
f 553 554 555
f 553 555 556
f 520 557 558
f 520 558 522
f 559 560 561
f 559 561 562
f 562 561 563
f 562 563 564
f 526 565 566
f 526 566 528
f 567 568 569
f 567 569 570
f 529 571 572
f 529 572 527
f 527 572 573
f 527 573 525
f 525 573 574
f 525 574 523
f 523 574 575
f 523 575 521
f 576 577 578
f 576 578 579
f 579 578 580
f 579 580 581
f 509 582 583
f 509 583 510
f 584 585 586
f 584 586 587
f 588 589 590
f 588 590 591
f 518 516 592
f 518 592 593
f 594 595 596
f 594 596 597
f 598 599 600
f 598 600 601
f 602 603 604
f 602 604 605
f 606 607 608
f 606 608 609
f 610 611 612
f 610 612 613
f 508 614 615
f 508 615 506
f 616 617 618
f 616 618 619
f 504 503 620
f 504 620 547
f 621 622 623
f 621 623 624
f 625 626 627
f 625 627 628
f 627 629 628
f 630 628 629
f 630 629 631
f 631 632 633
f 631 633 630
f 632 634 635
f 632 635 633
f 634 636 637
f 634 637 635
f 638 639 637
f 638 637 636
f 640 641 639
f 640 639 638
f 629 627 642
f 629 642 643
f 644 645 643
f 644 643 642
f 646 647 645
f 646 645 644
f 648 649 647
f 648 647 646
f 648 650 651
f 648 651 649
f 652 653 651
f 652 651 650
f 654 655 656
f 654 656 657
f 658 659 660
f 658 660 661
f 662 663 664
f 662 664 665
f 666 667 668
f 666 668 669
f 670 671 624
f 670 624 672
f 626 673 674
f 626 674 675
f 676 677 678
f 676 678 679
f 680 681 682
f 680 682 683
f 684 685 686
f 684 686 687
f 688 689 690
f 688 690 691
f 692 693 694
f 692 694 695
f 695 694 696
f 695 696 697
f 698 699 700
f 698 700 701
f 702 703 704
f 702 704 705
f 706 707 708
f 706 708 709
f 710 711 712
f 710 712 713
f 714 715 716
f 714 716 717
f 718 719 720
f 718 720 721
f 722 723 724
f 722 724 725
f 726 727 728
f 726 728 729
f 730 731 732
f 730 732 733
f 734 735 736
f 734 736 737
f 738 739 740
f 738 740 741
f 742 743 744
f 742 744 745
f 641 746 747
f 641 747 639
f 748 749 750
f 748 750 751
f 752 753 754
f 752 754 755
f 756 757 758
f 756 758 759
f 760 761 762
f 760 762 763
f 764 765 766
f 764 766 767
f 768 625 769
f 768 769 770
