# Botball Lab: metres, +Y up, centred XZ, base Y=0
s off
v -0.0036000 0.0080000 -0.0160000
v -0.0033260 0.0080000 -0.0173777
v -0.0033260 0.0000000 -0.0173777
v -0.0036000 0.0000000 -0.0160000
v -0.0025456 0.0080000 -0.0185456
v -0.0025456 0.0000000 -0.0185456
v -0.0013777 0.0080000 -0.0193260
v -0.0013777 0.0000000 -0.0193260
v 0.0000000 0.0080000 -0.0196000
v 0.0000000 0.0000000 -0.0196000
v 0.0013777 0.0080000 -0.0193260
v 0.0013777 0.0000000 -0.0193260
v 0.0025456 0.0080000 -0.0185456
v 0.0025456 0.0000000 -0.0185456
v 0.0033260 0.0080000 -0.0173777
v 0.0033260 0.0000000 -0.0173777
v 0.0036000 0.0080000 -0.0160000
v 0.0036000 0.0000000 -0.0160000
v -0.0036000 0.0000000 0.0160000
v -0.0036000 0.0080000 0.0160000
v 0.0036000 0.0080000 0.0160000
v 0.0033260 0.0080000 0.0173777
v 0.0033260 0.0000000 0.0173777
v 0.0036000 0.0000000 0.0160000
v 0.0025456 0.0080000 0.0185456
v 0.0025456 0.0000000 0.0185456
v 0.0013777 0.0080000 0.0193260
v 0.0013777 0.0000000 0.0193260
v 0.0000000 0.0080000 0.0196000
v 0.0000000 0.0000000 0.0196000
v -0.0013777 0.0080000 0.0193260
v -0.0013777 0.0000000 0.0193260
v -0.0025456 0.0080000 0.0185456
v -0.0025456 0.0000000 0.0185456
v -0.0033260 0.0080000 0.0173777
v -0.0033260 0.0000000 0.0173777
v 0.0033260 0.0080000 0.0146223
v 0.0029565 0.0080000 0.0147754
v 0.0032000 0.0080000 0.0160000
v 0.0025456 0.0080000 0.0134544
v 0.0022627 0.0080000 0.0137373
v 0.0013777 0.0080000 0.0126740
v 0.0012246 0.0080000 0.0130435
v 0.0000000 0.0080000 0.0124000
v 0.0000000 0.0080000 0.0128000
v -0.0013777 0.0080000 0.0126740
v -0.0012246 0.0080000 0.0130435
v -0.0025456 0.0080000 0.0134544
v -0.0022627 0.0080000 0.0137373
v -0.0033260 0.0080000 0.0146223
v -0.0029565 0.0080000 0.0147754
v -0.0032000 0.0080000 0.0160000
v -0.0029565 0.0080000 0.0172246
v -0.0022627 0.0080000 0.0182627
v -0.0012246 0.0080000 0.0189565
v 0.0000000 0.0080000 0.0192000
v 0.0012246 0.0080000 0.0189565
v 0.0022627 0.0080000 0.0182627
v 0.0029565 0.0080000 0.0172246
v 0.0013777 0.0048000 0.0113260
v 0.0013777 0.0080000 0.0113260
v 0.0000000 0.0080000 0.0116000
v 0.0000000 0.0048000 0.0116000
v 0.0025456 0.0048000 0.0120000
v 0.0025456 0.0080000 0.0120000
v 0.0025456 0.0080000 0.0113872
v 0.0025456 0.0048000 0.0113872
v 0.0024818 0.0080000 0.0111469
v 0.0024818 0.0048000 0.0111469
v 0.0022721 0.0080000 0.0110080
v 0.0022721 0.0048000 0.0110080
v 0.0020393 0.0080000 0.0110519
v 0.0020393 0.0048000 0.0110519
v 0.0013777 0.0080000 0.0113261
v 0.0025456 0.0080000 0.0105456
v -0.0013777 0.0080000 0.0113260
v -0.0013777 0.0048000 0.0113260
v -0.0025456 0.0080000 0.0113872
v -0.0025456 0.0080000 0.0120000
v -0.0025456 0.0048000 0.0120000
v -0.0025456 0.0048000 0.0113872
v -0.0020393 0.0048000 0.0110519
v -0.0024818 0.0080000 0.0111469
v -0.0024818 0.0048000 0.0111469
v -0.0022721 0.0080000 0.0110080
v -0.0022721 0.0048000 0.0110080
v -0.0020393 0.0080000 0.0110519
v -0.0025456 0.0080000 0.0105456
v -0.0013777 0.0080000 0.0113261
v 0.0036000 0.0080000 0.0116000
v 0.0036000 0.0080000 0.0080000
v 0.0033260 0.0080000 0.0093777
v -0.0033260 0.0080000 0.0093777
v -0.0036000 0.0080000 0.0080000
v -0.0036000 0.0080000 0.0116000
v 0.0036000 0.0080000 0.0120000
v -0.0036000 0.0080000 0.0120000
v 0.0013777 0.0048000 0.0126740
v 0.0000000 0.0048000 0.0124000
v 0.0025456 0.0080000 0.0126128
v 0.0025456 0.0048000 0.0126128
v 0.0024818 0.0080000 0.0128531
v 0.0024818 0.0048000 0.0128531
v 0.0022721 0.0080000 0.0129920
v 0.0022721 0.0048000 0.0129920
v 0.0020393 0.0080000 0.0129481
v 0.0020393 0.0048000 0.0129481
v 0.0013777 0.0080000 0.0126739
v -0.0013777 0.0048000 0.0126740
v -0.0025456 0.0080000 0.0126128
v -0.0025456 0.0048000 0.0126128
v -0.0020393 0.0048000 0.0129481
v -0.0024818 0.0080000 0.0128531
v -0.0024818 0.0048000 0.0128531
v -0.0022721 0.0080000 0.0129920
v -0.0022721 0.0048000 0.0129920
v -0.0020393 0.0080000 0.0129481
v -0.0013777 0.0080000 0.0126739
v 0.0036000 0.0080000 0.0124000
v -0.0036000 0.0080000 0.0124000
v -0.0012246 0.0072000 0.0130435
v -0.0009185 0.0072000 0.0137826
v 0.0000000 0.0072000 0.0136000
v 0.0000000 0.0072000 0.0128000
v -0.0022627 0.0072000 0.0137373
v -0.0016970 0.0072000 0.0143030
v -0.0029565 0.0072000 0.0147754
v -0.0022174 0.0072000 0.0150815
v -0.0032000 0.0072000 0.0160000
v -0.0024000 0.0072000 0.0160000
v -0.0029565 0.0072000 0.0172246
v -0.0022174 0.0072000 0.0169185
v -0.0022627 0.0072000 0.0182627
v -0.0016970 0.0072000 0.0176970
v -0.0012246 0.0072000 0.0189565
v -0.0009185 0.0072000 0.0182174
v 0.0000000 0.0072000 0.0192000
v 0.0000000 0.0072000 0.0184000
v 0.0012246 0.0072000 0.0189565
v 0.0009185 0.0072000 0.0182174
v 0.0022627 0.0072000 0.0182627
v 0.0016970 0.0072000 0.0176970
v 0.0029565 0.0072000 0.0172246
v 0.0022174 0.0072000 0.0169185
v 0.0032000 0.0072000 0.0160000
v 0.0024000 0.0072000 0.0160000
v 0.0029565 0.0072000 0.0147754
v 0.0022174 0.0072000 0.0150815
v 0.0022627 0.0072000 0.0137373
v 0.0016970 0.0072000 0.0143030
v 0.0012246 0.0072000 0.0130435
v 0.0009185 0.0072000 0.0137826
v 0.0022174 0.0008000 0.0150815
v 0.0024000 0.0008000 0.0160000
v 0.0016970 0.0008000 0.0143030
v 0.0009185 0.0008000 0.0137826
v 0.0000000 0.0008000 0.0136000
v -0.0009185 0.0008000 0.0137826
v -0.0016970 0.0008000 0.0143030
v -0.0022174 0.0008000 0.0150815
v -0.0024000 0.0008000 0.0160000
v -0.0022174 0.0008000 0.0169185
v -0.0016970 0.0008000 0.0176970
v -0.0009185 0.0008000 0.0182174
v 0.0000000 0.0008000 0.0184000
v 0.0009185 0.0008000 0.0182174
v 0.0016970 0.0008000 0.0176970
v 0.0022174 0.0008000 0.0169185
v -0.0012246 0.0008000 0.0130435
v 0.0000000 0.0008000 0.0128000
v -0.0022627 0.0008000 0.0137373
v -0.0029565 0.0008000 0.0147754
v -0.0032000 0.0008000 0.0160000
v -0.0029565 0.0008000 0.0172246
v -0.0022627 0.0008000 0.0182627
v -0.0012246 0.0008000 0.0189565
v 0.0000000 0.0008000 0.0192000
v 0.0012246 0.0008000 0.0189565
v 0.0022627 0.0008000 0.0182627
v 0.0029565 0.0008000 0.0172246
v 0.0032000 0.0008000 0.0160000
v 0.0029565 0.0008000 0.0147754
v 0.0022627 0.0008000 0.0137373
v 0.0012246 0.0008000 0.0130435
v 0.0029565 0.0000000 0.0147754
v 0.0032000 0.0000000 0.0160000
v 0.0022627 0.0000000 0.0137373
v 0.0012246 0.0000000 0.0130435
v 0.0000000 0.0000000 0.0128000
v -0.0012246 0.0000000 0.0130435
v -0.0022627 0.0000000 0.0137373
v -0.0029565 0.0000000 0.0147754
v -0.0032000 0.0000000 0.0160000
v -0.0029565 0.0000000 0.0172246
v -0.0022627 0.0000000 0.0182627
v -0.0012246 0.0000000 0.0189565
v 0.0000000 0.0000000 0.0192000
v 0.0012246 0.0000000 0.0189565
v 0.0022627 0.0000000 0.0182627
v 0.0029565 0.0000000 0.0172246
v 0.0000000 0.0000000 0.0116000
v 0.0013777 0.0000000 0.0113260
v 0.0013777 0.0032000 0.0113260
v 0.0000000 0.0032000 0.0116000
v 0.0025456 0.0000000 0.0113872
v 0.0025456 0.0000000 0.0120000
v 0.0025456 0.0032000 0.0120000
v 0.0025456 0.0032000 0.0113872
v 0.0024818 0.0000000 0.0111469
v 0.0024818 0.0032000 0.0111469
v 0.0022721 0.0000000 0.0110080
v 0.0022721 0.0032000 0.0110080
v 0.0020393 0.0000000 0.0110519
v 0.0020393 0.0032000 0.0110519
v 0.0025456 0.0000000 0.0105456
v 0.0013777 0.0000000 0.0113261
v -0.0013777 0.0032000 0.0113260
v -0.0013777 0.0000000 0.0113260
v -0.0025456 0.0032000 0.0120000
v -0.0025456 0.0000000 0.0120000
v -0.0025456 0.0000000 0.0113872
v -0.0025456 0.0032000 0.0113872
v -0.0020393 0.0032000 0.0110519
v -0.0024818 0.0000000 0.0111469
v -0.0024818 0.0032000 0.0111469
v -0.0022721 0.0000000 0.0110080
v -0.0022721 0.0032000 0.0110080
v -0.0020393 0.0000000 0.0110519
v -0.0013777 0.0000000 0.0113261
v -0.0025456 0.0000000 0.0105456
v 0.0033260 0.0000000 0.0093777
v 0.0036000 0.0000000 0.0080000
v 0.0036000 0.0000000 0.0116000
v -0.0036000 0.0000000 0.0116000
v -0.0036000 0.0000000 0.0080000
v -0.0033260 0.0000000 0.0093777
v 0.0036000 0.0000000 0.0120000
v -0.0036000 0.0000000 0.0120000
v 0.0013777 0.0032000 0.0126740
v 0.0013777 0.0000000 0.0126740
v 0.0000000 0.0000000 0.0124000
v 0.0000000 0.0032000 0.0124000
v 0.0025456 0.0000000 0.0126128
v 0.0025456 0.0032000 0.0126128
v 0.0024818 0.0000000 0.0128531
v 0.0024818 0.0032000 0.0128531
v 0.0022721 0.0000000 0.0129920
v 0.0022721 0.0032000 0.0129920
v 0.0020393 0.0000000 0.0129481
v 0.0020393 0.0032000 0.0129481
v 0.0013777 0.0000000 0.0126739
v 0.0025456 0.0000000 0.0134544
v -0.0013777 0.0000000 0.0126740
v -0.0013777 0.0032000 0.0126740
v -0.0025456 0.0000000 0.0126128
v -0.0025456 0.0032000 0.0126128
v -0.0020393 0.0032000 0.0129481
v -0.0024818 0.0000000 0.0128531
v -0.0024818 0.0032000 0.0128531
v -0.0022721 0.0000000 0.0129920
v -0.0022721 0.0032000 0.0129920
v -0.0020393 0.0000000 0.0129481
v -0.0025456 0.0000000 0.0134544
v -0.0013777 0.0000000 0.0126739
v 0.0036000 0.0000000 0.0124000
v 0.0033260 0.0000000 0.0146223
v -0.0033260 0.0000000 0.0146223
v -0.0036000 0.0000000 0.0124000
v 0.0033260 0.0080000 0.0066223
v 0.0029565 0.0080000 0.0067754
v 0.0032000 0.0080000 0.0080000
v 0.0025456 0.0080000 0.0054544
v 0.0022627 0.0080000 0.0057373
v 0.0013777 0.0080000 0.0046740
v 0.0012246 0.0080000 0.0050435
v 0.0000000 0.0080000 0.0044000
v 0.0000000 0.0080000 0.0048000
v -0.0013777 0.0080000 0.0046740
v -0.0012246 0.0080000 0.0050435
v -0.0025456 0.0080000 0.0054544
v -0.0022627 0.0080000 0.0057373
v -0.0033260 0.0080000 0.0066223
v -0.0029565 0.0080000 0.0067754
v -0.0032000 0.0080000 0.0080000
v -0.0029565 0.0080000 0.0092246
v -0.0022627 0.0080000 0.0102627
v -0.0012246 0.0080000 0.0109565
v 0.0000000 0.0080000 0.0112000
v 0.0012246 0.0080000 0.0109565
v 0.0022627 0.0080000 0.0102627
v 0.0029565 0.0080000 0.0092246
v 0.0013777 0.0048000 0.0033260
v 0.0013777 0.0080000 0.0033260
v 0.0000000 0.0080000 0.0036000
v 0.0000000 0.0048000 0.0036000
v 0.0025456 0.0048000 0.0040000
v 0.0025456 0.0080000 0.0040000
v 0.0025456 0.0080000 0.0033872
v 0.0025456 0.0048000 0.0033872
v 0.0024818 0.0080000 0.0031469
v 0.0024818 0.0048000 0.0031469
v 0.0022721 0.0080000 0.0030080
v 0.0022721 0.0048000 0.0030080
v 0.0020393 0.0080000 0.0030519
v 0.0020393 0.0048000 0.0030519
v 0.0013777 0.0080000 0.0033261
v 0.0025456 0.0080000 0.0025456
v -0.0013777 0.0080000 0.0033260
v -0.0013777 0.0048000 0.0033260
v -0.0025456 0.0080000 0.0033872
v -0.0025456 0.0080000 0.0040000
v -0.0025456 0.0048000 0.0040000
v -0.0025456 0.0048000 0.0033872
v -0.0020393 0.0048000 0.0030519
v -0.0024818 0.0080000 0.0031469
v -0.0024818 0.0048000 0.0031469
v -0.0022721 0.0080000 0.0030080
v -0.0022721 0.0048000 0.0030080
v -0.0020393 0.0080000 0.0030519
v -0.0025456 0.0080000 0.0025456
v -0.0013777 0.0080000 0.0033261
v 0.0036000 0.0080000 0.0036000
v 0.0036000 0.0080000 -0.0000000
v 0.0033260 0.0080000 0.0013777
v -0.0033260 0.0080000 0.0013777
v -0.0036000 0.0080000 -0.0000000
v -0.0036000 0.0080000 0.0036000
v 0.0036000 0.0080000 0.0040000
v -0.0036000 0.0080000 0.0040000
v 0.0013777 0.0048000 0.0046740
v 0.0000000 0.0048000 0.0044000
v 0.0025456 0.0080000 0.0046128
v 0.0025456 0.0048000 0.0046128
v 0.0024818 0.0080000 0.0048531
v 0.0024818 0.0048000 0.0048531
v 0.0022721 0.0080000 0.0049920
v 0.0022721 0.0048000 0.0049920
v 0.0020393 0.0080000 0.0049481
v 0.0020393 0.0048000 0.0049481
v 0.0013777 0.0080000 0.0046739
v -0.0013777 0.0048000 0.0046740
v -0.0025456 0.0080000 0.0046128
v -0.0025456 0.0048000 0.0046128
v -0.0020393 0.0048000 0.0049481
v -0.0024818 0.0080000 0.0048531
v -0.0024818 0.0048000 0.0048531
v -0.0022721 0.0080000 0.0049920
v -0.0022721 0.0048000 0.0049920
v -0.0020393 0.0080000 0.0049481
v -0.0013777 0.0080000 0.0046739
v 0.0036000 0.0080000 0.0044000
v -0.0036000 0.0080000 0.0044000
v -0.0012246 0.0072000 0.0050435
v -0.0009185 0.0072000 0.0057826
v 0.0000000 0.0072000 0.0056000
v 0.0000000 0.0072000 0.0048000
v -0.0022627 0.0072000 0.0057373
v -0.0016970 0.0072000 0.0063030
v -0.0029565 0.0072000 0.0067754
v -0.0022174 0.0072000 0.0070815
v -0.0032000 0.0072000 0.0080000
v -0.0024000 0.0072000 0.0080000
v -0.0029565 0.0072000 0.0092246
v -0.0022174 0.0072000 0.0089185
v -0.0022627 0.0072000 0.0102627
v -0.0016970 0.0072000 0.0096970
v -0.0012246 0.0072000 0.0109565
v -0.0009185 0.0072000 0.0102174
v 0.0000000 0.0072000 0.0112000
v 0.0000000 0.0072000 0.0104000
v 0.0012246 0.0072000 0.0109565
v 0.0009185 0.0072000 0.0102174
v 0.0022627 0.0072000 0.0102627
v 0.0016970 0.0072000 0.0096970
v 0.0029565 0.0072000 0.0092246
v 0.0022174 0.0072000 0.0089185
v 0.0032000 0.0072000 0.0080000
v 0.0024000 0.0072000 0.0080000
v 0.0029565 0.0072000 0.0067754
v 0.0022174 0.0072000 0.0070815
v 0.0022627 0.0072000 0.0057373
v 0.0016970 0.0072000 0.0063030
v 0.0012246 0.0072000 0.0050435
v 0.0009185 0.0072000 0.0057826
v 0.0022174 0.0008000 0.0070815
v 0.0024000 0.0008000 0.0080000
v 0.0016970 0.0008000 0.0063030
v 0.0009185 0.0008000 0.0057826
v 0.0000000 0.0008000 0.0056000
v -0.0009185 0.0008000 0.0057826
v -0.0016970 0.0008000 0.0063030
v -0.0022174 0.0008000 0.0070815
v -0.0024000 0.0008000 0.0080000
v -0.0022174 0.0008000 0.0089185
v -0.0016970 0.0008000 0.0096970
v -0.0009185 0.0008000 0.0102174
v 0.0000000 0.0008000 0.0104000
v 0.0009185 0.0008000 0.0102174
v 0.0016970 0.0008000 0.0096970
v 0.0022174 0.0008000 0.0089185
v -0.0012246 0.0008000 0.0050435
v 0.0000000 0.0008000 0.0048000
v -0.0022627 0.0008000 0.0057373
v -0.0029565 0.0008000 0.0067754
v -0.0032000 0.0008000 0.0080000
v -0.0029565 0.0008000 0.0092246
v -0.0022627 0.0008000 0.0102627
v -0.0012246 0.0008000 0.0109565
v 0.0000000 0.0008000 0.0112000
v 0.0012246 0.0008000 0.0109565
v 0.0022627 0.0008000 0.0102627
v 0.0029565 0.0008000 0.0092246
v 0.0032000 0.0008000 0.0080000
v 0.0029565 0.0008000 0.0067754
v 0.0022627 0.0008000 0.0057373
v 0.0012246 0.0008000 0.0050435
v 0.0029565 0.0000000 0.0067754
v 0.0032000 0.0000000 0.0080000
v 0.0022627 0.0000000 0.0057373
v 0.0012246 0.0000000 0.0050435
v 0.0000000 0.0000000 0.0048000
v -0.0012246 0.0000000 0.0050435
v -0.0022627 0.0000000 0.0057373
v -0.0029565 0.0000000 0.0067754
v -0.0032000 0.0000000 0.0080000
v -0.0029565 0.0000000 0.0092246
v -0.0022627 0.0000000 0.0102627
v -0.0012246 0.0000000 0.0109565
v 0.0000000 0.0000000 0.0112000
v 0.0012246 0.0000000 0.0109565
v 0.0022627 0.0000000 0.0102627
v 0.0029565 0.0000000 0.0092246
v 0.0000000 0.0000000 0.0036000
v 0.0013777 0.0000000 0.0033260
v 0.0013777 0.0032000 0.0033260
v 0.0000000 0.0032000 0.0036000
v 0.0025456 0.0000000 0.0033872
v 0.0025456 0.0000000 0.0040000
v 0.0025456 0.0032000 0.0040000
v 0.0025456 0.0032000 0.0033872
v 0.0024818 0.0000000 0.0031469
v 0.0024818 0.0032000 0.0031469
v 0.0022721 0.0000000 0.0030080
v 0.0022721 0.0032000 0.0030080
v 0.0020393 0.0000000 0.0030519
v 0.0020393 0.0032000 0.0030519
v 0.0025456 0.0000000 0.0025456
v 0.0013777 0.0000000 0.0033261
v -0.0013777 0.0032000 0.0033260
v -0.0013777 0.0000000 0.0033260
v -0.0025456 0.0032000 0.0040000
v -0.0025456 0.0000000 0.0040000
v -0.0025456 0.0000000 0.0033872
v -0.0025456 0.0032000 0.0033872
v -0.0020393 0.0032000 0.0030519
v -0.0024818 0.0000000 0.0031469
v -0.0024818 0.0032000 0.0031469
v -0.0022721 0.0000000 0.0030080
v -0.0022721 0.0032000 0.0030080
v -0.0020393 0.0000000 0.0030519
v -0.0013777 0.0000000 0.0033261
v -0.0025456 0.0000000 0.0025456
v 0.0033260 0.0000000 0.0013777
v 0.0036000 0.0000000 -0.0000000
v 0.0036000 0.0000000 0.0036000
v -0.0036000 0.0000000 0.0036000
v -0.0036000 0.0000000 -0.0000000
v -0.0033260 0.0000000 0.0013777
v 0.0036000 0.0000000 0.0040000
v -0.0036000 0.0000000 0.0040000
v 0.0013777 0.0032000 0.0046740
v 0.0013777 0.0000000 0.0046740
v 0.0000000 0.0000000 0.0044000
v 0.0000000 0.0032000 0.0044000
v 0.0025456 0.0000000 0.0046128
v 0.0025456 0.0032000 0.0046128
v 0.0024818 0.0000000 0.0048531
v 0.0024818 0.0032000 0.0048531
v 0.0022721 0.0000000 0.0049920
v 0.0022721 0.0032000 0.0049920
v 0.0020393 0.0000000 0.0049481
v 0.0020393 0.0032000 0.0049481
v 0.0013777 0.0000000 0.0046739
v 0.0025456 0.0000000 0.0054544
v -0.0013777 0.0000000 0.0046740
v -0.0013777 0.0032000 0.0046740
v -0.0025456 0.0000000 0.0046128
v -0.0025456 0.0032000 0.0046128
v -0.0020393 0.0032000 0.0049481
v -0.0024818 0.0000000 0.0048531
v -0.0024818 0.0032000 0.0048531
v -0.0022721 0.0000000 0.0049920
v -0.0022721 0.0032000 0.0049920
v -0.0020393 0.0000000 0.0049481
v -0.0025456 0.0000000 0.0054544
v -0.0013777 0.0000000 0.0046739
v 0.0036000 0.0000000 0.0044000
v 0.0033260 0.0000000 0.0066223
v -0.0033260 0.0000000 0.0066223
v -0.0036000 0.0000000 0.0044000
v 0.0033260 0.0080000 -0.0013777
v 0.0029565 0.0080000 -0.0012246
v 0.0032000 0.0080000 -0.0000000
v 0.0025456 0.0080000 -0.0025456
v 0.0022627 0.0080000 -0.0022627
v 0.0013777 0.0080000 -0.0033260
v 0.0012246 0.0080000 -0.0029565
v 0.0000000 0.0080000 -0.0036000
v 0.0000000 0.0080000 -0.0032000
v -0.0013777 0.0080000 -0.0033260
v -0.0012246 0.0080000 -0.0029565
v -0.0025456 0.0080000 -0.0025456
v -0.0022627 0.0080000 -0.0022627
v -0.0033260 0.0080000 -0.0013777
v -0.0029565 0.0080000 -0.0012246
v -0.0032000 0.0080000 -0.0000000
v -0.0029565 0.0080000 0.0012246
v -0.0022627 0.0080000 0.0022627
v -0.0012246 0.0080000 0.0029565
v 0.0000000 0.0080000 0.0032000
v 0.0012246 0.0080000 0.0029565
v 0.0022627 0.0080000 0.0022627
v 0.0029565 0.0080000 0.0012246
v 0.0013777 0.0048000 -0.0046740
v 0.0013777 0.0080000 -0.0046740
v 0.0000000 0.0080000 -0.0044000
v 0.0000000 0.0048000 -0.0044000
v 0.0025456 0.0048000 -0.0040000
v 0.0025456 0.0080000 -0.0040000
v 0.0025456 0.0080000 -0.0046128
v 0.0025456 0.0048000 -0.0046128
v 0.0024818 0.0080000 -0.0048531
v 0.0024818 0.0048000 -0.0048531
v 0.0022721 0.0080000 -0.0049920
v 0.0022721 0.0048000 -0.0049920
v 0.0020393 0.0080000 -0.0049481
v 0.0020393 0.0048000 -0.0049481
v 0.0013777 0.0080000 -0.0046739
v 0.0025456 0.0080000 -0.0054544
v -0.0013777 0.0080000 -0.0046740
v -0.0013777 0.0048000 -0.0046740
v -0.0025456 0.0080000 -0.0046128
v -0.0025456 0.0080000 -0.0040000
v -0.0025456 0.0048000 -0.0040000
v -0.0025456 0.0048000 -0.0046128
v -0.0020393 0.0048000 -0.0049481
v -0.0024818 0.0080000 -0.0048531
v -0.0024818 0.0048000 -0.0048531
v -0.0022721 0.0080000 -0.0049920
v -0.0022721 0.0048000 -0.0049920
v -0.0020393 0.0080000 -0.0049481
v -0.0025456 0.0080000 -0.0054544
v -0.0013777 0.0080000 -0.0046739
v 0.0036000 0.0080000 -0.0044000
v 0.0036000 0.0080000 -0.0080000
v 0.0033260 0.0080000 -0.0066223
v -0.0033260 0.0080000 -0.0066223
v -0.0036000 0.0080000 -0.0080000
v -0.0036000 0.0080000 -0.0044000
v 0.0036000 0.0080000 -0.0040000
v -0.0036000 0.0080000 -0.0040000
v 0.0013777 0.0048000 -0.0033260
v 0.0000000 0.0048000 -0.0036000
v 0.0025456 0.0080000 -0.0033872
v 0.0025456 0.0048000 -0.0033872
v 0.0024818 0.0080000 -0.0031469
v 0.0024818 0.0048000 -0.0031469
v 0.0022721 0.0080000 -0.0030080
v 0.0022721 0.0048000 -0.0030080
v 0.0020393 0.0080000 -0.0030519
v 0.0020393 0.0048000 -0.0030519
v 0.0013777 0.0080000 -0.0033261
v -0.0013777 0.0048000 -0.0033260
v -0.0025456 0.0080000 -0.0033872
v -0.0025456 0.0048000 -0.0033872
v -0.0020393 0.0048000 -0.0030519
v -0.0024818 0.0080000 -0.0031469
v -0.0024818 0.0048000 -0.0031469
v -0.0022721 0.0080000 -0.0030080
v -0.0022721 0.0048000 -0.0030080
v -0.0020393 0.0080000 -0.0030519
v -0.0013777 0.0080000 -0.0033261
v 0.0036000 0.0080000 -0.0036000
v -0.0036000 0.0080000 -0.0036000
v -0.0012246 0.0072000 -0.0029565
v -0.0009185 0.0072000 -0.0022174
v 0.0000000 0.0072000 -0.0024000
v 0.0000000 0.0072000 -0.0032000
v -0.0022627 0.0072000 -0.0022627
v -0.0016970 0.0072000 -0.0016970
v -0.0029565 0.0072000 -0.0012246
v -0.0022174 0.0072000 -0.0009185
v -0.0032000 0.0072000 -0.0000000
v -0.0024000 0.0072000 -0.0000000
v -0.0029565 0.0072000 0.0012246
v -0.0022174 0.0072000 0.0009185
v -0.0022627 0.0072000 0.0022627
v -0.0016970 0.0072000 0.0016970
v -0.0012246 0.0072000 0.0029565
v -0.0009185 0.0072000 0.0022174
v 0.0000000 0.0072000 0.0032000
v 0.0000000 0.0072000 0.0024000
v 0.0012246 0.0072000 0.0029565
v 0.0009185 0.0072000 0.0022174
v 0.0022627 0.0072000 0.0022627
v 0.0016970 0.0072000 0.0016970
v 0.0029565 0.0072000 0.0012246
v 0.0022174 0.0072000 0.0009185
v 0.0032000 0.0072000 -0.0000000
v 0.0024000 0.0072000 -0.0000000
v 0.0029565 0.0072000 -0.0012246
v 0.0022174 0.0072000 -0.0009185
v 0.0022627 0.0072000 -0.0022627
v 0.0016970 0.0072000 -0.0016970
v 0.0012246 0.0072000 -0.0029565
v 0.0009185 0.0072000 -0.0022174
v 0.0022174 0.0008000 -0.0009185
v 0.0024000 0.0008000 -0.0000000
v 0.0016970 0.0008000 -0.0016970
v 0.0009185 0.0008000 -0.0022174
v 0.0000000 0.0008000 -0.0024000
v -0.0009185 0.0008000 -0.0022174
v -0.0016970 0.0008000 -0.0016970
v -0.0022174 0.0008000 -0.0009185
v -0.0024000 0.0008000 -0.0000000
v -0.0022174 0.0008000 0.0009185
v -0.0016970 0.0008000 0.0016970
v -0.0009185 0.0008000 0.0022174
v 0.0000000 0.0008000 0.0024000
v 0.0009185 0.0008000 0.0022174
v 0.0016970 0.0008000 0.0016970
v 0.0022174 0.0008000 0.0009185
v -0.0012246 0.0008000 -0.0029565
v 0.0000000 0.0008000 -0.0032000
v -0.0022627 0.0008000 -0.0022627
v -0.0029565 0.0008000 -0.0012246
v -0.0032000 0.0008000 -0.0000000
v -0.0029565 0.0008000 0.0012246
v -0.0022627 0.0008000 0.0022627
v -0.0012246 0.0008000 0.0029565
v 0.0000000 0.0008000 0.0032000
v 0.0012246 0.0008000 0.0029565
v 0.0022627 0.0008000 0.0022627
v 0.0029565 0.0008000 0.0012246
v 0.0032000 0.0008000 -0.0000000
v 0.0029565 0.0008000 -0.0012246
v 0.0022627 0.0008000 -0.0022627
v 0.0012246 0.0008000 -0.0029565
v 0.0029565 0.0000000 -0.0012246
v 0.0032000 0.0000000 -0.0000000
v 0.0022627 0.0000000 -0.0022627
v 0.0012246 0.0000000 -0.0029565
v 0.0000000 0.0000000 -0.0032000
v -0.0012246 0.0000000 -0.0029565
v -0.0022627 0.0000000 -0.0022627
v -0.0029565 0.0000000 -0.0012246
v -0.0032000 0.0000000 -0.0000000
v -0.0029565 0.0000000 0.0012246
v -0.0022627 0.0000000 0.0022627
v -0.0012246 0.0000000 0.0029565
v 0.0000000 0.0000000 0.0032000
v 0.0012246 0.0000000 0.0029565
v 0.0022627 0.0000000 0.0022627
v 0.0029565 0.0000000 0.0012246
v 0.0000000 0.0000000 -0.0044000
v 0.0013777 0.0000000 -0.0046740
v 0.0013777 0.0032000 -0.0046740
v 0.0000000 0.0032000 -0.0044000
v 0.0025456 0.0000000 -0.0046128
v 0.0025456 0.0000000 -0.0040000
v 0.0025456 0.0032000 -0.0040000
v 0.0025456 0.0032000 -0.0046128
v 0.0024818 0.0000000 -0.0048531
v 0.0024818 0.0032000 -0.0048531
v 0.0022721 0.0000000 -0.0049920
v 0.0022721 0.0032000 -0.0049920
v 0.0020393 0.0000000 -0.0049481
v 0.0020393 0.0032000 -0.0049481
v 0.0025456 0.0000000 -0.0054544
v 0.0013777 0.0000000 -0.0046739
v -0.0013777 0.0032000 -0.0046740
v -0.0013777 0.0000000 -0.0046740
v -0.0025456 0.0032000 -0.0040000
v -0.0025456 0.0000000 -0.0040000
v -0.0025456 0.0000000 -0.0046128
v -0.0025456 0.0032000 -0.0046128
v -0.0020393 0.0032000 -0.0049481
v -0.0024818 0.0000000 -0.0048531
v -0.0024818 0.0032000 -0.0048531
v -0.0022721 0.0000000 -0.0049920
v -0.0022721 0.0032000 -0.0049920
v -0.0020393 0.0000000 -0.0049481
v -0.0013777 0.0000000 -0.0046739
v -0.0025456 0.0000000 -0.0054544
v 0.0033260 0.0000000 -0.0066223
v 0.0036000 0.0000000 -0.0080000
v 0.0036000 0.0000000 -0.0044000
v -0.0036000 0.0000000 -0.0044000
v -0.0036000 0.0000000 -0.0080000
v -0.0033260 0.0000000 -0.0066223
v 0.0036000 0.0000000 -0.0040000
v -0.0036000 0.0000000 -0.0040000
v 0.0013777 0.0032000 -0.0033260
v 0.0013777 0.0000000 -0.0033260
v 0.0000000 0.0000000 -0.0036000
v 0.0000000 0.0032000 -0.0036000
v 0.0025456 0.0000000 -0.0033872
v 0.0025456 0.0032000 -0.0033872
v 0.0024818 0.0000000 -0.0031469
v 0.0024818 0.0032000 -0.0031469
v 0.0022721 0.0000000 -0.0030080
v 0.0022721 0.0032000 -0.0030080
v 0.0020393 0.0000000 -0.0030519
v 0.0020393 0.0032000 -0.0030519
v 0.0013777 0.0000000 -0.0033261
v 0.0025456 0.0000000 -0.0025456
v -0.0013777 0.0000000 -0.0033260
v -0.0013777 0.0032000 -0.0033260
v -0.0025456 0.0000000 -0.0033872
v -0.0025456 0.0032000 -0.0033872
v -0.0020393 0.0032000 -0.0030519
v -0.0024818 0.0000000 -0.0031469
v -0.0024818 0.0032000 -0.0031469
v -0.0022721 0.0000000 -0.0030080
v -0.0022721 0.0032000 -0.0030080
v -0.0020393 0.0000000 -0.0030519
v -0.0025456 0.0000000 -0.0025456
v -0.0013777 0.0000000 -0.0033261
v 0.0036000 0.0000000 -0.0036000
v 0.0033260 0.0000000 -0.0013777
v -0.0033260 0.0000000 -0.0013777
v -0.0036000 0.0000000 -0.0036000
v 0.0033260 0.0080000 -0.0093777
v 0.0029565 0.0080000 -0.0092246
v 0.0032000 0.0080000 -0.0080000
v 0.0025456 0.0080000 -0.0105456
v 0.0022627 0.0080000 -0.0102627
v 0.0013777 0.0080000 -0.0113260
v 0.0012246 0.0080000 -0.0109565
v 0.0000000 0.0080000 -0.0116000
v 0.0000000 0.0080000 -0.0112000
v -0.0013777 0.0080000 -0.0113260
v -0.0012246 0.0080000 -0.0109565
v -0.0025456 0.0080000 -0.0105456
v -0.0022627 0.0080000 -0.0102627
v -0.0033260 0.0080000 -0.0093777
v -0.0029565 0.0080000 -0.0092246
v -0.0032000 0.0080000 -0.0080000
v -0.0029565 0.0080000 -0.0067754
v -0.0022627 0.0080000 -0.0057373
v -0.0012246 0.0080000 -0.0050435
v 0.0000000 0.0080000 -0.0048000
v 0.0012246 0.0080000 -0.0050435
v 0.0022627 0.0080000 -0.0057373
v 0.0029565 0.0080000 -0.0067754
v 0.0013777 0.0048000 -0.0126740
v 0.0013777 0.0080000 -0.0126740
v 0.0000000 0.0080000 -0.0124000
v 0.0000000 0.0048000 -0.0124000
v 0.0025456 0.0048000 -0.0120000
v 0.0025456 0.0080000 -0.0120000
v 0.0025456 0.0080000 -0.0126128
v 0.0025456 0.0048000 -0.0126128
v 0.0024818 0.0080000 -0.0128531
v 0.0024818 0.0048000 -0.0128531
v 0.0022721 0.0080000 -0.0129920
v 0.0022721 0.0048000 -0.0129920
v 0.0020393 0.0080000 -0.0129481
v 0.0020393 0.0048000 -0.0129481
v 0.0013777 0.0080000 -0.0126739
v 0.0025456 0.0080000 -0.0134544
v -0.0013777 0.0080000 -0.0126740
v -0.0013777 0.0048000 -0.0126740
v -0.0025456 0.0080000 -0.0126128
v -0.0025456 0.0080000 -0.0120000
v -0.0025456 0.0048000 -0.0120000
v -0.0025456 0.0048000 -0.0126128
v -0.0020393 0.0048000 -0.0129481
v -0.0024818 0.0080000 -0.0128531
v -0.0024818 0.0048000 -0.0128531
v -0.0022721 0.0080000 -0.0129920
v -0.0022721 0.0048000 -0.0129920
v -0.0020393 0.0080000 -0.0129481
v -0.0025456 0.0080000 -0.0134544
v -0.0013777 0.0080000 -0.0126739
v 0.0036000 0.0080000 -0.0124000
v 0.0033260 0.0080000 -0.0146223
v -0.0033260 0.0080000 -0.0146223
v -0.0036000 0.0080000 -0.0124000
v 0.0036000 0.0080000 -0.0120000
v -0.0036000 0.0080000 -0.0120000
v 0.0013777 0.0048000 -0.0113260
v 0.0000000 0.0048000 -0.0116000
v 0.0025456 0.0080000 -0.0113872
v 0.0025456 0.0048000 -0.0113872
v 0.0024818 0.0080000 -0.0111469
v 0.0024818 0.0048000 -0.0111469
v 0.0022721 0.0080000 -0.0110080
v 0.0022721 0.0048000 -0.0110080
v 0.0020393 0.0080000 -0.0110519
v 0.0020393 0.0048000 -0.0110519
v 0.0013777 0.0080000 -0.0113261
v -0.0013777 0.0048000 -0.0113260
v -0.0025456 0.0080000 -0.0113872
v -0.0025456 0.0048000 -0.0113872
v -0.0020393 0.0048000 -0.0110519
v -0.0024818 0.0080000 -0.0111469
v -0.0024818 0.0048000 -0.0111469
v -0.0022721 0.0080000 -0.0110080
v -0.0022721 0.0048000 -0.0110080
v -0.0020393 0.0080000 -0.0110519
v -0.0013777 0.0080000 -0.0113261
v 0.0036000 0.0080000 -0.0116000
v -0.0036000 0.0080000 -0.0116000
v -0.0012246 0.0072000 -0.0109565
v -0.0009185 0.0072000 -0.0102174
v 0.0000000 0.0072000 -0.0104000
v 0.0000000 0.0072000 -0.0112000
v -0.0022627 0.0072000 -0.0102627
v -0.0016970 0.0072000 -0.0096970
v -0.0029565 0.0072000 -0.0092246
v -0.0022174 0.0072000 -0.0089185
v -0.0032000 0.0072000 -0.0080000
v -0.0024000 0.0072000 -0.0080000
v -0.0029565 0.0072000 -0.0067754
v -0.0022174 0.0072000 -0.0070815
v -0.0022627 0.0072000 -0.0057373
v -0.0016970 0.0072000 -0.0063030
v -0.0012246 0.0072000 -0.0050435
v -0.0009185 0.0072000 -0.0057826
v 0.0000000 0.0072000 -0.0048000
v 0.0000000 0.0072000 -0.0056000
v 0.0012246 0.0072000 -0.0050435
v 0.0009185 0.0072000 -0.0057826
v 0.0022627 0.0072000 -0.0057373
v 0.0016970 0.0072000 -0.0063030
v 0.0029565 0.0072000 -0.0067754
v 0.0022174 0.0072000 -0.0070815
v 0.0032000 0.0072000 -0.0080000
v 0.0024000 0.0072000 -0.0080000
v 0.0029565 0.0072000 -0.0092246
v 0.0022174 0.0072000 -0.0089185
v 0.0022627 0.0072000 -0.0102627
v 0.0016970 0.0072000 -0.0096970
v 0.0012246 0.0072000 -0.0109565
v 0.0009185 0.0072000 -0.0102174
v 0.0022174 0.0008000 -0.0089185
v 0.0024000 0.0008000 -0.0080000
v 0.0016970 0.0008000 -0.0096970
v 0.0009185 0.0008000 -0.0102174
v 0.0000000 0.0008000 -0.0104000
v -0.0009185 0.0008000 -0.0102174
v -0.0016970 0.0008000 -0.0096970
v -0.0022174 0.0008000 -0.0089185
v -0.0024000 0.0008000 -0.0080000
v -0.0022174 0.0008000 -0.0070815
v -0.0016970 0.0008000 -0.0063030
v -0.0009185 0.0008000 -0.0057826
v 0.0000000 0.0008000 -0.0056000
v 0.0009185 0.0008000 -0.0057826
v 0.0016970 0.0008000 -0.0063030
v 0.0022174 0.0008000 -0.0070815
v -0.0012246 0.0008000 -0.0109565
v 0.0000000 0.0008000 -0.0112000
v -0.0022627 0.0008000 -0.0102627
v -0.0029565 0.0008000 -0.0092246
v -0.0032000 0.0008000 -0.0080000
v -0.0029565 0.0008000 -0.0067754
v -0.0022627 0.0008000 -0.0057373
v -0.0012246 0.0008000 -0.0050435
v 0.0000000 0.0008000 -0.0048000
v 0.0012246 0.0008000 -0.0050435
v 0.0022627 0.0008000 -0.0057373
v 0.0029565 0.0008000 -0.0067754
v 0.0032000 0.0008000 -0.0080000
v 0.0029565 0.0008000 -0.0092246
v 0.0022627 0.0008000 -0.0102627
v 0.0012246 0.0008000 -0.0109565
v 0.0029565 0.0000000 -0.0092246
v 0.0032000 0.0000000 -0.0080000
v 0.0022627 0.0000000 -0.0102627
v 0.0012246 0.0000000 -0.0109565
v 0.0000000 0.0000000 -0.0112000
v -0.0012246 0.0000000 -0.0109565
v -0.0022627 0.0000000 -0.0102627
v -0.0029565 0.0000000 -0.0092246
v -0.0032000 0.0000000 -0.0080000
v -0.0029565 0.0000000 -0.0067754
v -0.0022627 0.0000000 -0.0057373
v -0.0012246 0.0000000 -0.0050435
v 0.0000000 0.0000000 -0.0048000
v 0.0012246 0.0000000 -0.0050435
v 0.0022627 0.0000000 -0.0057373
v 0.0029565 0.0000000 -0.0067754
v 0.0000000 0.0000000 -0.0124000
v 0.0013777 0.0000000 -0.0126740
v 0.0013777 0.0032000 -0.0126740
v 0.0000000 0.0032000 -0.0124000
v 0.0025456 0.0000000 -0.0126128
v 0.0025456 0.0000000 -0.0120000
v 0.0025456 0.0032000 -0.0120000
v 0.0025456 0.0032000 -0.0126128
v 0.0024818 0.0000000 -0.0128531
v 0.0024818 0.0032000 -0.0128531
v 0.0022721 0.0000000 -0.0129920
v 0.0022721 0.0032000 -0.0129920
v 0.0020393 0.0000000 -0.0129481
v 0.0020393 0.0032000 -0.0129481
v 0.0025456 0.0000000 -0.0134544
v 0.0013777 0.0000000 -0.0126739
v -0.0013777 0.0032000 -0.0126740
v -0.0013777 0.0000000 -0.0126740
v -0.0025456 0.0032000 -0.0120000
v -0.0025456 0.0000000 -0.0120000
v -0.0025456 0.0000000 -0.0126128
v -0.0025456 0.0032000 -0.0126128
v -0.0020393 0.0032000 -0.0129481
v -0.0024818 0.0000000 -0.0128531
v -0.0024818 0.0032000 -0.0128531
v -0.0022721 0.0000000 -0.0129920
v -0.0022721 0.0032000 -0.0129920
v -0.0020393 0.0000000 -0.0129481
v -0.0013777 0.0000000 -0.0126739
v -0.0025456 0.0000000 -0.0134544
v 0.0033260 0.0000000 -0.0146223
v 0.0036000 0.0000000 -0.0124000
v -0.0036000 0.0000000 -0.0124000
v -0.0033260 0.0000000 -0.0146223
v 0.0036000 0.0000000 -0.0120000
v -0.0036000 0.0000000 -0.0120000
v 0.0013777 0.0032000 -0.0113260
v 0.0013777 0.0000000 -0.0113260
v 0.0000000 0.0000000 -0.0116000
v 0.0000000 0.0032000 -0.0116000
v 0.0025456 0.0000000 -0.0113872
v 0.0025456 0.0032000 -0.0113872
v 0.0024818 0.0000000 -0.0111469
v 0.0024818 0.0032000 -0.0111469
v 0.0022721 0.0000000 -0.0110080
v 0.0022721 0.0032000 -0.0110080
v 0.0020393 0.0000000 -0.0110519
v 0.0020393 0.0032000 -0.0110519
v 0.0013777 0.0000000 -0.0113261
v 0.0025456 0.0000000 -0.0105456
v -0.0013777 0.0000000 -0.0113260
v -0.0013777 0.0032000 -0.0113260
v -0.0025456 0.0000000 -0.0113872
v -0.0025456 0.0032000 -0.0113872
v -0.0020393 0.0032000 -0.0110519
v -0.0024818 0.0000000 -0.0111469
v -0.0024818 0.0032000 -0.0111469
v -0.0022721 0.0000000 -0.0110080
v -0.0022721 0.0032000 -0.0110080
v -0.0020393 0.0000000 -0.0110519
v -0.0025456 0.0000000 -0.0105456
v -0.0013777 0.0000000 -0.0113261
v 0.0036000 0.0000000 -0.0116000
v 0.0033260 0.0000000 -0.0093777
v -0.0033260 0.0000000 -0.0093777
v -0.0036000 0.0000000 -0.0116000
v 0.0000000 0.0008000 -0.0184000
v -0.0009185 0.0008000 -0.0182174
v -0.0012246 0.0008000 -0.0189565
v 0.0000000 0.0008000 -0.0192000
v -0.0016970 0.0008000 -0.0176970
v -0.0022627 0.0008000 -0.0182627
v -0.0022174 0.0008000 -0.0169185
v -0.0029565 0.0008000 -0.0172246
v -0.0024000 0.0008000 -0.0160000
v -0.0032000 0.0008000 -0.0160000
v -0.0022174 0.0008000 -0.0150815
v -0.0029565 0.0008000 -0.0147754
v -0.0016970 0.0008000 -0.0143030
v -0.0022627 0.0008000 -0.0137373
v -0.0009185 0.0008000 -0.0137826
v -0.0012246 0.0008000 -0.0130435
v 0.0000000 0.0008000 -0.0136000
v 0.0000000 0.0008000 -0.0128000
v 0.0009185 0.0008000 -0.0137826
v 0.0012246 0.0008000 -0.0130435
v 0.0016970 0.0008000 -0.0143030
v 0.0022627 0.0008000 -0.0137373
v 0.0022174 0.0008000 -0.0150815
v 0.0029565 0.0008000 -0.0147754
v 0.0024000 0.0008000 -0.0160000
v 0.0032000 0.0008000 -0.0160000
v 0.0022174 0.0008000 -0.0169185
v 0.0029565 0.0008000 -0.0172246
v 0.0016970 0.0008000 -0.0176970
v 0.0022627 0.0008000 -0.0182627
v 0.0009185 0.0008000 -0.0182174
v 0.0012246 0.0008000 -0.0189565
v 0.0029565 0.0000000 -0.0172246
v 0.0032000 0.0000000 -0.0160000
v 0.0022627 0.0000000 -0.0182627
v 0.0012246 0.0000000 -0.0189565
v 0.0000000 0.0000000 -0.0192000
v -0.0012246 0.0000000 -0.0189565
v -0.0022627 0.0000000 -0.0182627
v -0.0029565 0.0000000 -0.0172246
v -0.0032000 0.0000000 -0.0160000
v -0.0029565 0.0000000 -0.0147754
v -0.0022627 0.0000000 -0.0137373
v -0.0012246 0.0000000 -0.0130435
v 0.0000000 0.0000000 -0.0128000
v 0.0012246 0.0000000 -0.0130435
v 0.0022627 0.0000000 -0.0137373
v 0.0029565 0.0000000 -0.0147754
v 0.0022174 0.0072000 -0.0169185
v 0.0024000 0.0072000 -0.0160000
v 0.0016970 0.0072000 -0.0176970
v 0.0009185 0.0072000 -0.0182174
v 0.0000000 0.0072000 -0.0184000
v -0.0009185 0.0072000 -0.0182174
v -0.0016970 0.0072000 -0.0176970
v -0.0022174 0.0072000 -0.0169185
v -0.0024000 0.0072000 -0.0160000
v -0.0022174 0.0072000 -0.0150815
v -0.0016970 0.0072000 -0.0143030
v -0.0009185 0.0072000 -0.0137826
v 0.0000000 0.0072000 -0.0136000
v 0.0009185 0.0072000 -0.0137826
v 0.0016970 0.0072000 -0.0143030
v 0.0022174 0.0072000 -0.0150815
v 0.0029565 0.0080000 -0.0172246
v 0.0032000 0.0080000 -0.0160000
v 0.0022627 0.0080000 -0.0182627
v 0.0012246 0.0080000 -0.0189565
v 0.0000000 0.0080000 -0.0192000
v -0.0012246 0.0080000 -0.0189565
v -0.0022627 0.0080000 -0.0182627
v -0.0029565 0.0080000 -0.0172246
v -0.0032000 0.0080000 -0.0160000
v -0.0029565 0.0080000 -0.0147754
v -0.0022627 0.0080000 -0.0137373
v -0.0012246 0.0080000 -0.0130435
v 0.0000000 0.0080000 -0.0128000
v 0.0012246 0.0080000 -0.0130435
v 0.0022627 0.0080000 -0.0137373
v 0.0029565 0.0080000 -0.0147754
v -0.0012246 0.0072000 -0.0189565
v 0.0000000 0.0072000 -0.0192000
v -0.0022627 0.0072000 -0.0182627
v -0.0029565 0.0072000 -0.0172246
v -0.0032000 0.0072000 -0.0160000
v -0.0029565 0.0072000 -0.0147754
v -0.0022627 0.0072000 -0.0137373
v -0.0012246 0.0072000 -0.0130435
v 0.0000000 0.0072000 -0.0128000
v 0.0012246 0.0072000 -0.0130435
v 0.0022627 0.0072000 -0.0137373
v 0.0029565 0.0072000 -0.0147754
v 0.0032000 0.0072000 -0.0160000
v 0.0029565 0.0072000 -0.0172246
v 0.0022627 0.0072000 -0.0182627
v 0.0012246 0.0072000 -0.0189565
vn -0.9999663 0.0 -0.0082088
vn -0.8965369 0.0 -0.4429691
vn -0.9471783 0.0 -0.3207075
vn -0.6587815 0.0 -0.7523344
vn -0.7523344 0.0 -0.6587815
vn -0.3207075 0.0 -0.9471783
vn -0.4429691 0.0 -0.8965369
vn 0.0661489 0.0 -0.9978098
vn -0.0661489 0.0 -0.9978098
vn 0.4429691 0.0 -0.8965369
vn 0.3207075 0.0 -0.9471783
vn 0.7523344 0.0 -0.6587815
vn 0.6587815 0.0 -0.7523344
vn 0.9471783 0.0 -0.3207075
vn 0.8965369 0.0 -0.4429691
vn 0.9999663 0.0 -0.0082088
vn -0.9999663 0.0 0.0082088
vn 0.9999663 0.0 0.0082088
vn 0.8965369 0.0 0.4429691
vn 0.9471783 0.0 0.3207075
vn 0.6587815 0.0 0.7523344
vn 0.7523344 0.0 0.6587815
vn 0.3207075 0.0 0.9471783
vn 0.4429691 0.0 0.8965369
vn -0.0661489 0.0 0.9978098
vn 0.0661489 0.0 0.9978098
vn -0.4429691 0.0 0.8965369
vn -0.3207075 0.0 0.9471783
vn -0.7523344 0.0 0.6587815
vn -0.6587815 0.0 0.7523344
vn -0.9471783 0.0 0.3207075
vn -0.8965369 0.0 0.4429691
vn 0.0 1.0 0.0
vn 0.2595795 -4.9e-06 0.9657218
vn 0.1950619 0.0 0.9807909
vn 0.0 0.0 1.0
vn -1.0 0.0 0.0
vn -0.9990542 0.0 0.0434816
vn -0.9932593 0.0 0.1159136
vn -0.8782583 0.0 0.4781865
vn -0.7313087 0.0 0.6820466
vn -0.3375795 0.0 0.941297
vn -0.0754544 0.0 0.9971493
vn 0.3350481 -1.09e-05 0.942201
vn 0.3350014 0.0 0.9422176
vn -0.2912222 0.0 0.9566554
vn -0.2339164 0.0 0.9722567
vn 0.9990542 0.0 0.0434816
vn 1.0 0.0 0.0
vn 0.9932593 0.0 0.1159136
vn 0.8782583 0.0 0.4781865
vn 0.7313087 0.0 0.6820466
vn 0.3375795 0.0 0.941297
vn 0.0754544 0.0 0.9971493
vn -0.305692 0.0 0.9521305
vn -0.3556481 0.0 0.9346199
vn 0.3828697 -2.89e-05 0.9238023
vn 0.0 0.0 -1.0
vn 0.1950619 0.0 -0.9807909
vn 0.2595795 -4.9e-06 -0.9657218
vn -0.9990542 0.0 -0.0434816
vn -0.9932593 0.0 -0.1159136
vn -0.8782583 0.0 -0.4781865
vn -0.7313087 0.0 -0.6820466
vn -0.3375795 0.0 -0.941297
vn -0.0754544 0.0 -0.9971493
vn 0.3350481 -1.09e-05 -0.942201
vn 0.3350014 0.0 -0.9422176
vn -0.2339164 0.0 -0.9722567
vn -0.2912222 0.0 -0.9566554
vn 0.9990542 0.0 -0.0434816
vn 0.9932593 0.0 -0.1159136
vn 0.8782583 0.0 -0.4781865
vn 0.7313087 0.0 -0.6820466
vn 0.3375795 0.0 -0.941297
vn 0.0754544 0.0 -0.9971493
vn -0.305692 0.0 -0.9521305
vn -0.3556481 0.0 -0.9346199
vn 0.3828697 -2.89e-05 -0.9238023
vn -0.9471761 0.0 0.3207139
vn -0.8965142 0.0 0.4430151
vn -0.9978107 0.0 0.066135
vn -0.9978107 0.0 -0.066135
vn -0.7523142 0.0 0.6588045
vn -0.6588045 0.0 0.7523142
vn -0.4430151 0.0 0.8965142
vn -0.3207139 0.0 0.9471761
vn -0.066135 0.0 0.9978107
vn 0.066135 0.0 0.9978107
vn 0.3207139 0.0 0.9471761
vn 0.4430151 0.0 0.8965142
vn 0.6588045 0.0 0.7523142
vn 0.7523142 0.0 0.6588045
vn 0.8965142 0.0 0.4430151
vn 0.9471761 0.0 0.3207139
vn 0.9978107 0.0 0.066135
vn 0.9978107 0.0 -0.066135
vn 0.9471761 0.0 -0.3207139
vn 0.8965142 0.0 -0.4430151
vn 0.7523142 0.0 -0.6588045
vn 0.6588045 0.0 -0.7523142
vn 0.4430151 0.0 -0.8965142
vn 0.3207139 0.0 -0.9471761
vn 0.066135 0.0 -0.9978107
vn -0.066135 0.0 -0.9978107
vn -0.3207139 0.0 -0.9471761
vn -0.4430151 0.0 -0.8965142
vn -0.6588045 0.0 -0.7523142
vn -0.7523142 0.0 -0.6588045
vn -0.8965142 0.0 -0.4430151
vn -0.9471761 0.0 -0.3207139
vn -0.947177 0.0 0.3207111
vn -0.8964963 0.0 0.4430513
vn -0.9978115 0.0 0.0661224
vn -0.9978115 0.0 -0.0661224
vn -0.752294 0.0 0.6588276
vn -0.6588276 0.0 0.752294
vn -0.4430513 0.0 0.8964963
vn -0.3207111 0.0 0.947177
vn -0.0661224 0.0 0.9978115
vn 0.0661224 0.0 0.9978115
vn 0.3207111 0.0 0.947177
vn 0.4430513 0.0 0.8964963
vn 0.6588276 0.0 0.752294
vn 0.752294 0.0 0.6588276
vn 0.8964963 0.0 0.4430513
vn 0.947177 0.0 0.3207111
vn 0.9978115 0.0 0.0661224
vn 0.9978115 0.0 -0.0661224
vn 0.947177 0.0 -0.3207111
vn 0.8964963 0.0 -0.4430513
vn 0.752294 0.0 -0.6588276
vn 0.6588276 0.0 -0.752294
vn 0.4430513 0.0 -0.8964963
vn 0.3207111 0.0 -0.947177
vn 0.0661224 0.0 -0.9978115
vn -0.0661224 0.0 -0.9978115
vn -0.3207111 0.0 -0.947177
vn -0.4430513 0.0 -0.8964963
vn -0.6588276 0.0 -0.752294
vn -0.752294 0.0 -0.6588276
vn -0.8964963 0.0 -0.4430513
vn -0.947177 0.0 -0.3207111
vn 0.0 -1.0 0.0
vn 0.2595795 4.9e-06 0.9657218
vn 0.3350481 1.09e-05 0.942201
vn 0.3828697 2.89e-05 0.9238023
vn 0.2595795 4.9e-06 -0.9657218
vn 0.3350481 1.09e-05 -0.942201
vn 0.3828697 2.89e-05 -0.9238023
f 1//1 2//2 3//3
f 4//1 1//1 3//3
f 2//2 5//4 6//5
f 3//3 2//2 6//5
f 5//4 7//6 8//7
f 6//5 5//4 8//7
f 7//6 9//8 10//9
f 8//7 7//6 10//9
f 9//8 11//10 12//11
f 10//9 9//8 12//11
f 11//10 13//12 14//13
f 12//11 11//10 14//13
f 13//12 15//14 16//15
f 14//13 13//12 16//15
f 15//14 17//16 18//16
f 16//15 15//14 18//16
f 1//1 4//1 19//17
f 1//1 19//17 20//17
f 21//18 22//19 23//20
f 24//18 21//18 23//20
f 22//19 25//21 26//22
f 23//20 22//19 26//22
f 25//21 27//23 28//24
f 26//22 25//21 28//24
f 27//23 29//25 30//26
f 28//24 27//23 30//26
f 29//25 31//27 32//28
f 30//26 29//25 32//28
f 31//27 33//29 34//30
f 32//28 31//27 34//30
f 33//29 35//31 36//32
f 34//30 33//29 36//32
f 35//31 20//17 19//17
f 36//32 35//31 19//17
f 21//33 37//33 38//33
f 21//33 38//33 39//33
f 37//33 40//33 41//33
f 37//33 41//33 38//33
f 40//33 42//33 43//33
f 40//33 43//33 41//33
f 42//33 44//33 45//33
f 42//33 45//33 43//33
f 44//33 46//33 47//33
f 44//33 47//33 45//33
f 46//33 48//33 49//33
f 46//33 49//33 47//33
f 48//33 50//33 51//33
f 48//33 51//33 49//33
f 50//33 20//33 52//33
f 50//33 52//33 51//33
f 20//33 35//33 53//33
f 20//33 53//33 52//33
f 35//33 33//33 54//33
f 35//33 54//33 53//33
f 33//33 31//33 55//33
f 33//33 55//33 54//33
f 31//33 29//33 56//33
f 31//33 56//33 55//33
f 29//33 27//33 57//33
f 29//33 57//33 56//33
f 27//33 25//33 58//33
f 27//33 58//33 57//33
f 25//33 22//33 59//33
f 25//33 59//33 58//33
f 22//33 21//33 39//33
f 22//33 39//33 59//33
f 60//34 61//35 62//36
f 60//34 62//36 63//36
f 64//37 65//37 66//38
f 64//37 66//38 67//39
f 60//33 63//33 64//33
f 67//39 66//38 68//40
f 69//41 67//39 68//40
f 69//41 68//40 70//42
f 71//43 69//41 70//42
f 71//43 70//42 72//44
f 73//45 71//43 72//44
f 69//33 71//33 73//33
f 69//33 73//33 67//33
f 74//33 72//33 75//33
f 72//33 70//33 75//33
f 75//33 70//33 68//33
f 75//33 68//33 66//33
f 62//36 76//46 77//47
f 63//36 62//36 77//47
f 78//48 79//49 80//49
f 81//50 78//48 80//49
f 81//33 80//33 77//33
f 81//33 77//33 82//33
f 83//51 78//48 81//50
f 83//51 81//50 84//52
f 85//53 83//51 84//52
f 85//53 84//52 86//54
f 87//55 85//53 86//54
f 87//55 86//54 82//56
f 82//33 86//33 84//33
f 81//33 82//33 84//33
f 88//33 87//33 89//33
f 85//33 87//33 88//33
f 85//33 88//33 83//33
f 83//33 88//33 78//33
f 67//33 73//33 60//33
f 67//33 60//33 64//33
f 77//33 80//33 63//33
f 63//33 80//33 64//33
f 72//44 74//57 60//34
f 72//44 60//34 73//45
f 76//46 87//55 82//56
f 76//46 82//56 77//47
f 90//33 91//33 92//33
f 90//33 92//33 75//33
f 93//33 94//33 95//33
f 88//33 93//33 95//33
f 90//33 75//33 66//33
f 90//33 66//33 65//33
f 90//33 65//33 96//33
f 95//33 78//33 88//33
f 95//33 97//33 79//33
f 95//33 79//33 78//33
f 44//58 42//59 98//60
f 99//58 44//58 98//60
f 100//61 65//37 64//37
f 101//62 100//61 64//37
f 64//33 99//33 98//33
f 102//63 100//61 101//62
f 102//63 101//62 103//64
f 104//65 102//63 103//64
f 104//65 103//64 105//66
f 106//67 104//65 105//66
f 106//67 105//66 107//68
f 107//33 105//33 103//33
f 101//33 107//33 103//33
f 40//33 106//33 108//33
f 40//33 104//33 106//33
f 102//33 104//33 40//33
f 100//33 102//33 40//33
f 109//69 46//70 44//58
f 109//69 44//58 99//58
f 80//49 79//49 110//71
f 80//49 110//71 111//72
f 109//33 80//33 111//33
f 112//33 109//33 111//33
f 111//72 110//71 113//73
f 114//74 111//72 113//73
f 114//74 113//73 115//75
f 116//76 114//74 115//75
f 116//76 115//75 117//77
f 112//78 116//76 117//77
f 114//33 116//33 112//33
f 114//33 112//33 111//33
f 118//33 117//33 48//33
f 48//33 117//33 115//33
f 113//33 48//33 115//33
f 110//33 48//33 113//33
f 98//33 107//33 101//33
f 64//33 98//33 101//33
f 99//33 80//33 109//33
f 64//33 80//33 99//33
f 98//60 108//79 106//67
f 107//68 98//60 106//67
f 112//78 117//77 46//70
f 109//69 112//78 46//70
f 37//33 21//33 119//33
f 40//33 37//33 119//33
f 120//33 20//33 50//33
f 120//33 50//33 48//33
f 100//33 40//33 119//33
f 65//33 100//33 119//33
f 96//33 65//33 119//33
f 48//33 110//33 120//33
f 79//33 97//33 120//33
f 110//33 79//33 120//33
f 121//33 122//33 123//33
f 121//33 123//33 124//33
f 125//33 126//33 122//33
f 125//33 122//33 121//33
f 127//33 128//33 126//33
f 127//33 126//33 125//33
f 129//33 130//33 128//33
f 129//33 128//33 127//33
f 131//33 132//33 130//33
f 131//33 130//33 129//33
f 133//33 134//33 132//33
f 133//33 132//33 131//33
f 135//33 136//33 134//33
f 135//33 134//33 133//33
f 137//33 138//33 136//33
f 137//33 136//33 135//33
f 139//33 140//33 138//33
f 139//33 138//33 137//33
f 141//33 142//33 140//33
f 141//33 140//33 139//33
f 143//33 144//33 142//33
f 143//33 142//33 141//33
f 145//33 146//33 144//33
f 145//33 144//33 143//33
f 147//33 148//33 146//33
f 147//33 146//33 145//33
f 149//33 150//33 148//33
f 149//33 148//33 147//33
f 151//33 152//33 150//33
f 151//33 150//33 149//33
f 124//33 123//33 152//33
f 124//33 152//33 151//33
f 38//80 147//81 145//82
f 39//83 38//80 145//82
f 41//84 149//85 147//81
f 38//80 41//84 147//81
f 43//86 151//87 149//85
f 41//84 43//86 149//85
f 45//88 124//89 151//87
f 43//86 45//88 151//87
f 47//90 121//91 124//89
f 45//88 47//90 124//89
f 49//92 125//93 121//91
f 47//90 49//92 121//91
f 51//94 127//95 125//93
f 49//92 51//94 125//93
f 52//96 129//97 127//95
f 51//94 52//96 127//95
f 53//98 131//99 129//97
f 52//96 53//98 129//97
f 54//100 133//101 131//99
f 53//98 54//100 131//99
f 55//102 135//103 133//101
f 54//100 55//102 133//101
f 56//104 137//105 135//103
f 55//102 56//104 135//103
f 57//106 139//107 137//105
f 56//104 57//106 137//105
f 58//108 141//109 139//107
f 57//106 58//108 139//107
f 59//110 143//111 141//109
f 58//108 59//110 141//109
f 39//83 145//82 143//111
f 59//110 39//83 143//111
f 148//112 153//113 154//114
f 146//115 148//112 154//114
f 150//116 155//117 153//113
f 148//112 150//116 153//113
f 152//118 156//119 155//117
f 150//116 152//118 155//117
f 123//120 157//121 156//119
f 152//118 123//120 156//119
f 122//122 158//123 157//121
f 123//120 122//122 157//121
f 126//124 159//125 158//123
f 122//122 126//124 158//123
f 128//126 160//127 159//125
f 126//124 128//126 159//125
f 130//128 161//129 160//127
f 128//126 130//128 160//127
f 132//130 162//131 161//129
f 130//128 132//130 161//129
f 134//132 163//133 162//131
f 132//130 134//132 162//131
f 136//134 164//135 163//133
f 134//132 136//134 163//133
f 138//136 165//137 164//135
f 136//134 138//136 164//135
f 140//138 166//139 165//137
f 138//136 140//138 165//137
f 142//140 167//141 166//139
f 140//138 142//140 166//139
f 144//142 168//143 167//141
f 142//140 144//142 167//141
f 146//115 154//114 168//143
f 144//142 146//115 168//143
f 157//144 158//144 169//144
f 170//144 157//144 169//144
f 158//144 159//144 171//144
f 169//144 158//144 171//144
f 159//144 160//144 172//144
f 171//144 159//144 172//144
f 160//144 161//144 173//144
f 172//144 160//144 173//144
f 161//144 162//144 174//144
f 173//144 161//144 174//144
f 162//144 163//144 175//144
f 174//144 162//144 175//144
f 163//144 164//144 176//144
f 175//144 163//144 176//144
f 164//144 165//144 177//144
f 176//144 164//144 177//144
f 165//144 166//144 178//144
f 177//144 165//144 178//144
f 166//144 167//144 179//144
f 178//144 166//144 179//144
f 167//144 168//144 180//144
f 179//144 167//144 180//144
f 168//144 154//144 181//144
f 180//144 168//144 181//144
f 154//144 153//144 182//144
f 181//144 154//144 182//144
f 153//144 155//144 183//144
f 182//144 153//144 183//144
f 155//144 156//144 184//144
f 183//144 155//144 184//144
f 156//144 157//144 170//144
f 184//144 156//144 170//144
f 181//82 182//81 185//80
f 181//82 185//80 186//83
f 182//81 183//85 187//84
f 182//81 187//84 185//80
f 183//85 184//87 188//86
f 183//85 188//86 187//84
f 184//87 170//89 189//88
f 184//87 189//88 188//86
f 170//89 169//91 190//90
f 170//89 190//90 189//88
f 169//91 171//93 191//92
f 169//91 191//92 190//90
f 171//93 172//95 192//94
f 171//93 192//94 191//92
f 172//95 173//97 193//96
f 172//95 193//96 192//94
f 173//97 174//99 194//98
f 173//97 194//98 193//96
f 174//99 175//101 195//100
f 174//99 195//100 194//98
f 175//101 176//103 196//102
f 175//101 196//102 195//100
f 176//103 177//105 197//104
f 176//103 197//104 196//102
f 177//105 178//107 198//106
f 177//105 198//106 197//104
f 178//107 179//109 199//108
f 178//107 199//108 198//106
f 179//109 180//111 200//110
f 179//109 200//110 199//108
f 180//111 181//82 186//83
f 180//111 186//83 200//110
f 201//36 202//35 203//145
f 204//36 201//36 203//145
f 205//38 206//37 207//37
f 208//39 205//38 207//37
f 207//144 204//144 203//144
f 209//40 205//38 208//39
f 209//40 208//39 210//41
f 211//42 209//40 210//41
f 211//42 210//41 212//43
f 213//146 211//42 212//43
f 213//146 212//43 214//45
f 214//144 212//144 210//144
f 208//144 214//144 210//144
f 215//144 213//144 216//144
f 215//144 211//144 213//144
f 209//144 211//144 215//144
f 205//144 209//144 215//144
f 217//47 218//46 201//36
f 217//47 201//36 204//36
f 219//49 220//49 221//48
f 219//49 221//48 222//50
f 217//144 219//144 222//144
f 223//144 217//144 222//144
f 222//50 221//48 224//51
f 225//52 222//50 224//51
f 225//52 224//51 226//53
f 227//54 225//52 226//53
f 227//54 226//53 228//55
f 223//56 227//54 228//55
f 225//144 227//144 223//144
f 225//144 223//144 222//144
f 229//144 228//144 230//144
f 230//144 228//144 226//144
f 224//144 230//144 226//144
f 221//144 230//144 224//144
f 203//144 214//144 208//144
f 207//144 203//144 208//144
f 204//144 219//144 217//144
f 207//144 219//144 204//144
f 203//145 216//147 213//146
f 214//45 203//145 213//146
f 223//56 228//55 218//46
f 217//47 223//56 218//46
f 231//144 232//144 233//144
f 215//144 231//144 233//144
f 234//144 235//144 236//144
f 234//144 236//144 230//144
f 205//144 215//144 233//144
f 206//144 205//144 233//144
f 237//144 206//144 233//144
f 230//144 221//144 234//144
f 220//144 238//144 234//144
f 221//144 220//144 234//144
f 239//148 240//59 241//58
f 239//148 241//58 242//58
f 207//37 206//37 243//61
f 207//37 243//61 244//62
f 239//144 242//144 207//144
f 244//62 243//61 245//63
f 246//64 244//62 245//63
f 246//64 245//63 247//65
f 248//66 246//64 247//65
f 248//66 247//65 249//149
f 250//68 248//66 249//149
f 246//144 248//144 250//144
f 246//144 250//144 244//144
f 251//144 249//144 252//144
f 249//144 247//144 252//144
f 252//144 247//144 245//144
f 252//144 245//144 243//144
f 241//58 253//70 254//69
f 242//58 241//58 254//69
f 255//71 220//49 219//49
f 256//72 255//71 219//49
f 256//144 219//144 254//144
f 256//144 254//144 257//144
f 258//73 255//71 256//72
f 258//73 256//72 259//74
f 260//75 258//73 259//74
f 260//75 259//74 261//76
f 262//77 260//75 261//76
f 262//77 261//76 257//78
f 257//144 261//144 259//144
f 256//144 257//144 259//144
f 263//144 262//144 264//144
f 260//144 262//144 263//144
f 260//144 263//144 258//144
f 258//144 263//144 255//144
f 244//144 250//144 239//144
f 244//144 239//144 207//144
f 254//144 219//144 242//144
f 242//144 219//144 207//144
f 249//149 251//150 239//148
f 249//149 239//148 250//68
f 253//70 262//77 257//78
f 253//70 257//78 254//69
f 265//144 24//144 266//144
f 265//144 266//144 252//144
f 267//144 19//144 268//144
f 263//144 267//144 268//144
f 265//144 252//144 243//144
f 265//144 243//144 206//144
f 265//144 206//144 237//144
f 268//144 255//144 263//144
f 268//144 238//144 220//144
f 268//144 220//144 255//144
f 185//144 266//144 24//144
f 186//144 185//144 24//144
f 187//144 252//144 266//144
f 185//144 187//144 266//144
f 188//144 240//144 252//144
f 187//144 188//144 252//144
f 189//144 241//144 240//144
f 188//144 189//144 240//144
f 190//144 253//144 241//144
f 189//144 190//144 241//144
f 191//144 263//144 253//144
f 190//144 191//144 253//144
f 192//144 267//144 263//144
f 191//144 192//144 263//144
f 193//144 19//144 267//144
f 192//144 193//144 267//144
f 194//144 36//144 19//144
f 193//144 194//144 19//144
f 195//144 34//144 36//144
f 194//144 195//144 36//144
f 196//144 32//144 34//144
f 195//144 196//144 34//144
f 197//144 30//144 32//144
f 196//144 197//144 32//144
f 198//144 28//144 30//144
f 197//144 198//144 30//144
f 199//144 26//144 28//144
f 198//144 199//144 28//144
f 200//144 23//144 26//144
f 199//144 200//144 26//144
f 186//144 24//144 23//144
f 200//144 186//144 23//144
f 91//33 269//33 270//33
f 91//33 270//33 271//33
f 269//33 272//33 273//33
f 269//33 273//33 270//33
f 272//33 274//33 275//33
f 272//33 275//33 273//33
f 274//33 276//33 277//33
f 274//33 277//33 275//33
f 276//33 278//33 279//33
f 276//33 279//33 277//33
f 278//33 280//33 281//33
f 278//33 281//33 279//33
f 280//33 282//33 283//33
f 280//33 283//33 281//33
f 282//33 94//33 284//33
f 282//33 284//33 283//33
f 94//33 93//33 285//33
f 94//33 285//33 284//33
f 93//33 88//33 286//33
f 93//33 286//33 285//33
f 88//33 76//33 287//33
f 88//33 287//33 286//33
f 76//33 62//33 288//33
f 76//33 288//33 287//33
f 62//33 61//33 289//33
f 62//33 289//33 288//33
f 61//33 75//33 290//33
f 61//33 290//33 289//33
f 75//33 92//33 291//33
f 75//33 291//33 290//33
f 92//33 91//33 271//33
f 92//33 271//33 291//33
f 292//34 293//35 294//36
f 292//34 294//36 295//36
f 296//37 297//37 298//38
f 296//37 298//38 299//39
f 292//33 295//33 296//33
f 299//39 298//38 300//40
f 301//41 299//39 300//40
f 301//41 300//40 302//42
f 303//43 301//41 302//42
f 303//43 302//42 304//44
f 305//45 303//43 304//44
f 301//33 303//33 305//33
f 301//33 305//33 299//33
f 306//33 304//33 307//33
f 304//33 302//33 307//33
f 307//33 302//33 300//33
f 307//33 300//33 298//33
f 294//36 308//46 309//47
f 295//36 294//36 309//47
f 310//48 311//49 312//49
f 313//50 310//48 312//49
f 313//33 312//33 309//33
f 313//33 309//33 314//33
f 315//51 310//48 313//50
f 315//51 313//50 316//52
f 317//53 315//51 316//52
f 317//53 316//52 318//54
f 319//55 317//53 318//54
f 319//55 318//54 314//56
f 314//33 318//33 316//33
f 313//33 314//33 316//33
f 320//33 319//33 321//33
f 317//33 319//33 320//33
f 317//33 320//33 315//33
f 315//33 320//33 310//33
f 299//33 305//33 292//33
f 299//33 292//33 296//33
f 309//33 312//33 295//33
f 295//33 312//33 296//33
f 304//44 306//57 292//34
f 304//44 292//34 305//45
f 308//46 319//55 314//56
f 308//46 314//56 309//47
f 322//33 323//33 324//33
f 322//33 324//33 307//33
f 325//33 326//33 327//33
f 320//33 325//33 327//33
f 322//33 307//33 298//33
f 322//33 298//33 297//33
f 322//33 297//33 328//33
f 327//33 310//33 320//33
f 327//33 329//33 311//33
f 327//33 311//33 310//33
f 276//58 274//59 330//60
f 331//58 276//58 330//60
f 332//61 297//37 296//37
f 333//62 332//61 296//37
f 296//33 331//33 330//33
f 334//63 332//61 333//62
f 334//63 333//62 335//64
f 336//65 334//63 335//64
f 336//65 335//64 337//66
f 338//67 336//65 337//66
f 338//67 337//66 339//68
f 339//33 337//33 335//33
f 333//33 339//33 335//33
f 272//33 338//33 340//33
f 272//33 336//33 338//33
f 334//33 336//33 272//33
f 332//33 334//33 272//33
f 341//69 278//70 276//58
f 341//69 276//58 331//58
f 312//49 311//49 342//71
f 312//49 342//71 343//72
f 341//33 312//33 343//33
f 344//33 341//33 343//33
f 343//72 342//71 345//73
f 346//74 343//72 345//73
f 346//74 345//73 347//75
f 348//76 346//74 347//75
f 348//76 347//75 349//77
f 344//78 348//76 349//77
f 346//33 348//33 344//33
f 346//33 344//33 343//33
f 350//33 349//33 280//33
f 280//33 349//33 347//33
f 345//33 280//33 347//33
f 342//33 280//33 345//33
f 330//33 339//33 333//33
f 296//33 330//33 333//33
f 331//33 312//33 341//33
f 296//33 312//33 331//33
f 330//60 340//79 338//67
f 339//68 330//60 338//67
f 344//78 349//77 278//70
f 341//69 344//78 278//70
f 269//33 91//33 351//33
f 272//33 269//33 351//33
f 352//33 94//33 282//33
f 352//33 282//33 280//33
f 332//33 272//33 351//33
f 297//33 332//33 351//33
f 328//33 297//33 351//33
f 280//33 342//33 352//33
f 311//33 329//33 352//33
f 342//33 311//33 352//33
f 353//33 354//33 355//33
f 353//33 355//33 356//33
f 357//33 358//33 354//33
f 357//33 354//33 353//33
f 359//33 360//33 358//33
f 359//33 358//33 357//33
f 361//33 362//33 360//33
f 361//33 360//33 359//33
f 363//33 364//33 362//33
f 363//33 362//33 361//33
f 365//33 366//33 364//33
f 365//33 364//33 363//33
f 367//33 368//33 366//33
f 367//33 366//33 365//33
f 369//33 370//33 368//33
f 369//33 368//33 367//33
f 371//33 372//33 370//33
f 371//33 370//33 369//33
f 373//33 374//33 372//33
f 373//33 372//33 371//33
f 375//33 376//33 374//33
f 375//33 374//33 373//33
f 377//33 378//33 376//33
f 377//33 376//33 375//33
f 379//33 380//33 378//33
f 379//33 378//33 377//33
f 381//33 382//33 380//33
f 381//33 380//33 379//33
f 383//33 384//33 382//33
f 383//33 382//33 381//33
f 356//33 355//33 384//33
f 356//33 384//33 383//33
f 270//80 379//81 377//82
f 271//83 270//80 377//82
f 273//84 381//85 379//81
f 270//80 273//84 379//81
f 275//86 383//87 381//85
f 273//84 275//86 381//85
f 277//88 356//89 383//87
f 275//86 277//88 383//87
f 279//90 353//91 356//89
f 277//88 279//90 356//89
f 281//92 357//93 353//91
f 279//90 281//92 353//91
f 283//94 359//95 357//93
f 281//92 283//94 357//93
f 284//96 361//97 359//95
f 283//94 284//96 359//95
f 285//98 363//99 361//97
f 284//96 285//98 361//97
f 286//100 365//101 363//99
f 285//98 286//100 363//99
f 287//102 367//103 365//101
f 286//100 287//102 365//101
f 288//104 369//105 367//103
f 287//102 288//104 367//103
f 289//106 371//107 369//105
f 288//104 289//106 369//105
f 290//108 373//109 371//107
f 289//106 290//108 371//107
f 291//110 375//111 373//109
f 290//108 291//110 373//109
f 271//83 377//82 375//111
f 291//110 271//83 375//111
f 380//112 385//113 386//114
f 378//115 380//112 386//114
f 382//116 387//117 385//113
f 380//112 382//116 385//113
f 384//118 388//119 387//117
f 382//116 384//118 387//117
f 355//120 389//121 388//119
f 384//118 355//120 388//119
f 354//122 390//123 389//121
f 355//120 354//122 389//121
f 358//124 391//125 390//123
f 354//122 358//124 390//123
f 360//126 392//127 391//125
f 358//124 360//126 391//125
f 362//128 393//129 392//127
f 360//126 362//128 392//127
f 364//130 394//131 393//129
f 362//128 364//130 393//129
f 366//132 395//133 394//131
f 364//130 366//132 394//131
f 368//134 396//135 395//133
f 366//132 368//134 395//133
f 370//136 397//137 396//135
f 368//134 370//136 396//135
f 372//138 398//139 397//137
f 370//136 372//138 397//137
f 374//140 399//141 398//139
f 372//138 374//140 398//139
f 376//142 400//143 399//141
f 374//140 376//142 399//141
f 378//115 386//114 400//143
f 376//142 378//115 400//143
f 389//144 390//144 401//144
f 402//144 389//144 401//144
f 390//144 391//144 403//144
f 401//144 390//144 403//144
f 391//144 392//144 404//144
f 403//144 391//144 404//144
f 392//144 393//144 405//144
f 404//144 392//144 405//144
f 393//144 394//144 406//144
f 405//144 393//144 406//144
f 394//144 395//144 407//144
f 406//144 394//144 407//144
f 395//144 396//144 408//144
f 407//144 395//144 408//144
f 396//144 397//144 409//144
f 408//144 396//144 409//144
f 397//144 398//144 410//144
f 409//144 397//144 410//144
f 398//144 399//144 411//144
f 410//144 398//144 411//144
f 399//144 400//144 412//144
f 411//144 399//144 412//144
f 400//144 386//144 413//144
f 412//144 400//144 413//144
f 386//144 385//144 414//144
f 413//144 386//144 414//144
f 385//144 387//144 415//144
f 414//144 385//144 415//144
f 387//144 388//144 416//144
f 415//144 387//144 416//144
f 388//144 389//144 402//144
f 416//144 388//144 402//144
f 413//82 414//81 417//80
f 413//82 417//80 418//83
f 414//81 415//85 419//84
f 414//81 419//84 417//80
f 415//85 416//87 420//86
f 415//85 420//86 419//84
f 416//87 402//89 421//88
f 416//87 421//88 420//86
f 402//89 401//91 422//90
f 402//89 422//90 421//88
f 401//91 403//93 423//92
f 401//91 423//92 422//90
f 403//93 404//95 424//94
f 403//93 424//94 423//92
f 404//95 405//97 425//96
f 404//95 425//96 424//94
f 405//97 406//99 426//98
f 405//97 426//98 425//96
f 406//99 407//101 427//100
f 406//99 427//100 426//98
f 407//101 408//103 428//102
f 407//101 428//102 427//100
f 408//103 409//105 429//104
f 408//103 429//104 428//102
f 409//105 410//107 430//106
f 409//105 430//106 429//104
f 410//107 411//109 431//108
f 410//107 431//108 430//106
f 411//109 412//111 432//110
f 411//109 432//110 431//108
f 412//111 413//82 418//83
f 412//111 418//83 432//110
f 433//36 434//35 435//145
f 436//36 433//36 435//145
f 437//38 438//37 439//37
f 440//39 437//38 439//37
f 439//144 436//144 435//144
f 441//40 437//38 440//39
f 441//40 440//39 442//41
f 443//42 441//40 442//41
f 443//42 442//41 444//43
f 445//146 443//42 444//43
f 445//146 444//43 446//45
f 446//144 444//144 442//144
f 440//144 446//144 442//144
f 447//144 445//144 448//144
f 447//144 443//144 445//144
f 441//144 443//144 447//144
f 437//144 441//144 447//144
f 449//47 450//46 433//36
f 449//47 433//36 436//36
f 451//49 452//49 453//48
f 451//49 453//48 454//50
f 449//144 451//144 454//144
f 455//144 449//144 454//144
f 454//50 453//48 456//51
f 457//52 454//50 456//51
f 457//52 456//51 458//53
f 459//54 457//52 458//53
f 459//54 458//53 460//55
f 455//56 459//54 460//55
f 457//144 459//144 455//144
f 457//144 455//144 454//144
f 461//144 460//144 462//144
f 462//144 460//144 458//144
f 456//144 462//144 458//144
f 453//144 462//144 456//144
f 435//144 446//144 440//144
f 439//144 435//144 440//144
f 436//144 451//144 449//144
f 439//144 451//144 436//144
f 435//145 448//147 445//146
f 446//45 435//145 445//146
f 455//56 460//55 450//46
f 449//47 455//56 450//46
f 463//144 464//144 465//144
f 447//144 463//144 465//144
f 466//144 467//144 468//144
f 466//144 468//144 462//144
f 437//144 447//144 465//144
f 438//144 437//144 465//144
f 469//144 438//144 465//144
f 462//144 453//144 466//144
f 452//144 470//144 466//144
f 453//144 452//144 466//144
f 471//148 472//59 473//58
f 471//148 473//58 474//58
f 439//37 438//37 475//61
f 439//37 475//61 476//62
f 471//144 474//144 439//144
f 476//62 475//61 477//63
f 478//64 476//62 477//63
f 478//64 477//63 479//65
f 480//66 478//64 479//65
f 480//66 479//65 481//149
f 482//68 480//66 481//149
f 478//144 480//144 482//144
f 478//144 482//144 476//144
f 483//144 481//144 484//144
f 481//144 479//144 484//144
f 484//144 479//144 477//144
f 484//144 477//144 475//144
f 473//58 485//70 486//69
f 474//58 473//58 486//69
f 487//71 452//49 451//49
f 488//72 487//71 451//49
f 488//144 451//144 486//144
f 488//144 486//144 489//144
f 490//73 487//71 488//72
f 490//73 488//72 491//74
f 492//75 490//73 491//74
f 492//75 491//74 493//76
f 494//77 492//75 493//76
f 494//77 493//76 489//78
f 489//144 493//144 491//144
f 488//144 489//144 491//144
f 495//144 494//144 496//144
f 492//144 494//144 495//144
f 492//144 495//144 490//144
f 490//144 495//144 487//144
f 476//144 482//144 471//144
f 476//144 471//144 439//144
f 486//144 451//144 474//144
f 474//144 451//144 439//144
f 481//149 483//150 471//148
f 481//149 471//148 482//68
f 485//70 494//77 489//78
f 485//70 489//78 486//69
f 497//144 232//144 498//144
f 497//144 498//144 484//144
f 499//144 235//144 500//144
f 495//144 499//144 500//144
f 497//144 484//144 475//144
f 497//144 475//144 438//144
f 497//144 438//144 469//144
f 500//144 487//144 495//144
f 500//144 470//144 452//144
f 500//144 452//144 487//144
f 417//144 498//144 232//144
f 418//144 417//144 232//144
f 419//144 484//144 498//144
f 417//144 419//144 498//144
f 420//144 472//144 484//144
f 419//144 420//144 484//144
f 421//144 473//144 472//144
f 420//144 421//144 472//144
f 422//144 485//144 473//144
f 421//144 422//144 473//144
f 423//144 495//144 485//144
f 422//144 423//144 485//144
f 424//144 499//144 495//144
f 423//144 424//144 495//144
f 425//144 235//144 499//144
f 424//144 425//144 499//144
f 426//144 236//144 235//144
f 425//144 426//144 235//144
f 427//144 230//144 236//144
f 426//144 427//144 236//144
f 428//144 218//144 230//144
f 427//144 428//144 230//144
f 429//144 201//144 218//144
f 428//144 429//144 218//144
f 430//144 202//144 201//144
f 429//144 430//144 201//144
f 431//144 215//144 202//144
f 430//144 431//144 202//144
f 432//144 231//144 215//144
f 431//144 432//144 215//144
f 418//144 232//144 231//144
f 432//144 418//144 231//144
f 323//33 501//33 502//33
f 323//33 502//33 503//33
f 501//33 504//33 505//33
f 501//33 505//33 502//33
f 504//33 506//33 507//33
f 504//33 507//33 505//33
f 506//33 508//33 509//33
f 506//33 509//33 507//33
f 508//33 510//33 511//33
f 508//33 511//33 509//33
f 510//33 512//33 513//33
f 510//33 513//33 511//33
f 512//33 514//33 515//33
f 512//33 515//33 513//33
f 514//33 326//33 516//33
f 514//33 516//33 515//33
f 326//33 325//33 517//33
f 326//33 517//33 516//33
f 325//33 320//33 518//33
f 325//33 518//33 517//33
f 320//33 308//33 519//33
f 320//33 519//33 518//33
f 308//33 294//33 520//33
f 308//33 520//33 519//33
f 294//33 293//33 521//33
f 294//33 521//33 520//33
f 293//33 307//33 522//33
f 293//33 522//33 521//33
f 307//33 324//33 523//33
f 307//33 523//33 522//33
f 324//33 323//33 503//33
f 324//33 503//33 523//33
f 524//34 525//35 526//36
f 524//34 526//36 527//36
f 528//37 529//37 530//38
f 528//37 530//38 531//39
f 524//33 527//33 528//33
f 531//39 530//38 532//40
f 533//41 531//39 532//40
f 533//41 532//40 534//42
f 535//43 533//41 534//42
f 535//43 534//42 536//44
f 537//45 535//43 536//44
f 533//33 535//33 537//33
f 533//33 537//33 531//33
f 538//33 536//33 539//33
f 536//33 534//33 539//33
f 539//33 534//33 532//33
f 539//33 532//33 530//33
f 526//36 540//46 541//47
f 527//36 526//36 541//47
f 542//48 543//49 544//49
f 545//50 542//48 544//49
f 545//33 544//33 541//33
f 545//33 541//33 546//33
f 547//51 542//48 545//50
f 547//51 545//50 548//52
f 549//53 547//51 548//52
f 549//53 548//52 550//54
f 551//55 549//53 550//54
f 551//55 550//54 546//56
f 546//33 550//33 548//33
f 545//33 546//33 548//33
f 552//33 551//33 553//33
f 549//33 551//33 552//33
f 549//33 552//33 547//33
f 547//33 552//33 542//33
f 531//33 537//33 524//33
f 531//33 524//33 528//33
f 541//33 544//33 527//33
f 527//33 544//33 528//33
f 536//44 538//57 524//34
f 536//44 524//34 537//45
f 540//46 551//55 546//56
f 540//46 546//56 541//47
f 554//33 555//33 556//33
f 554//33 556//33 539//33
f 557//33 558//33 559//33
f 552//33 557//33 559//33
f 554//33 539//33 530//33
f 554//33 530//33 529//33
f 554//33 529//33 560//33
f 559//33 542//33 552//33
f 559//33 561//33 543//33
f 559//33 543//33 542//33
f 508//58 506//59 562//60
f 563//58 508//58 562//60
f 564//61 529//37 528//37
f 565//62 564//61 528//37
f 528//33 563//33 562//33
f 566//63 564//61 565//62
f 566//63 565//62 567//64
f 568//65 566//63 567//64
f 568//65 567//64 569//66
f 570//67 568//65 569//66
f 570//67 569//66 571//68
f 571//33 569//33 567//33
f 565//33 571//33 567//33
f 504//33 570//33 572//33
f 504//33 568//33 570//33
f 566//33 568//33 504//33
f 564//33 566//33 504//33
f 573//69 510//70 508//58
f 573//69 508//58 563//58
f 544//49 543//49 574//71
f 544//49 574//71 575//72
f 573//33 544//33 575//33
f 576//33 573//33 575//33
f 575//72 574//71 577//73
f 578//74 575//72 577//73
f 578//74 577//73 579//75
f 580//76 578//74 579//75
f 580//76 579//75 581//77
f 576//78 580//76 581//77
f 578//33 580//33 576//33
f 578//33 576//33 575//33
f 582//33 581//33 512//33
f 512//33 581//33 579//33
f 577//33 512//33 579//33
f 574//33 512//33 577//33
f 562//33 571//33 565//33
f 528//33 562//33 565//33
f 563//33 544//33 573//33
f 528//33 544//33 563//33
f 562//60 572//79 570//67
f 571//68 562//60 570//67
f 576//78 581//77 510//70
f 573//69 576//78 510//70
f 501//33 323//33 583//33
f 504//33 501//33 583//33
f 584//33 326//33 514//33
f 584//33 514//33 512//33
f 564//33 504//33 583//33
f 529//33 564//33 583//33
f 560//33 529//33 583//33
f 512//33 574//33 584//33
f 543//33 561//33 584//33
f 574//33 543//33 584//33
f 585//33 586//33 587//33
f 585//33 587//33 588//33
f 589//33 590//33 586//33
f 589//33 586//33 585//33
f 591//33 592//33 590//33
f 591//33 590//33 589//33
f 593//33 594//33 592//33
f 593//33 592//33 591//33
f 595//33 596//33 594//33
f 595//33 594//33 593//33
f 597//33 598//33 596//33
f 597//33 596//33 595//33
f 599//33 600//33 598//33
f 599//33 598//33 597//33
f 601//33 602//33 600//33
f 601//33 600//33 599//33
f 603//33 604//33 602//33
f 603//33 602//33 601//33
f 605//33 606//33 604//33
f 605//33 604//33 603//33
f 607//33 608//33 606//33
f 607//33 606//33 605//33
f 609//33 610//33 608//33
f 609//33 608//33 607//33
f 611//33 612//33 610//33
f 611//33 610//33 609//33
f 613//33 614//33 612//33
f 613//33 612//33 611//33
f 615//33 616//33 614//33
f 615//33 614//33 613//33
f 588//33 587//33 616//33
f 588//33 616//33 615//33
f 502//80 611//81 609//82
f 503//83 502//80 609//82
f 505//84 613//85 611//81
f 502//80 505//84 611//81
f 507//86 615//87 613//85
f 505//84 507//86 613//85
f 509//88 588//89 615//87
f 507//86 509//88 615//87
f 511//90 585//91 588//89
f 509//88 511//90 588//89
f 513//92 589//93 585//91
f 511//90 513//92 585//91
f 515//94 591//95 589//93
f 513//92 515//94 589//93
f 516//96 593//97 591//95
f 515//94 516//96 591//95
f 517//98 595//99 593//97
f 516//96 517//98 593//97
f 518//100 597//101 595//99
f 517//98 518//100 595//99
f 519//102 599//103 597//101
f 518//100 519//102 597//101
f 520//104 601//105 599//103
f 519//102 520//104 599//103
f 521//106 603//107 601//105
f 520//104 521//106 601//105
f 522//108 605//109 603//107
f 521//106 522//108 603//107
f 523//110 607//111 605//109
f 522//108 523//110 605//109
f 503//83 609//82 607//111
f 523//110 503//83 607//111
f 612//112 617//113 618//114
f 610//115 612//112 618//114
f 614//116 619//117 617//113
f 612//112 614//116 617//113
f 616//118 620//119 619//117
f 614//116 616//118 619//117
f 587//120 621//121 620//119
f 616//118 587//120 620//119
f 586//122 622//123 621//121
f 587//120 586//122 621//121
f 590//124 623//125 622//123
f 586//122 590//124 622//123
f 592//126 624//127 623//125
f 590//124 592//126 623//125
f 594//128 625//129 624//127
f 592//126 594//128 624//127
f 596//130 626//131 625//129
f 594//128 596//130 625//129
f 598//132 627//133 626//131
f 596//130 598//132 626//131
f 600//134 628//135 627//133
f 598//132 600//134 627//133
f 602//136 629//137 628//135
f 600//134 602//136 628//135
f 604//138 630//139 629//137
f 602//136 604//138 629//137
f 606//140 631//141 630//139
f 604//138 606//140 630//139
f 608//142 632//143 631//141
f 606//140 608//142 631//141
f 610//115 618//114 632//143
f 608//142 610//115 632//143
f 621//144 622//144 633//144
f 634//144 621//144 633//144
f 622//144 623//144 635//144
f 633//144 622//144 635//144
f 623//144 624//144 636//144
f 635//144 623//144 636//144
f 624//144 625//144 637//144
f 636//144 624//144 637//144
f 625//144 626//144 638//144
f 637//144 625//144 638//144
f 626//144 627//144 639//144
f 638//144 626//144 639//144
f 627//144 628//144 640//144
f 639//144 627//144 640//144
f 628//144 629//144 641//144
f 640//144 628//144 641//144
f 629//144 630//144 642//144
f 641//144 629//144 642//144
f 630//144 631//144 643//144
f 642//144 630//144 643//144
f 631//144 632//144 644//144
f 643//144 631//144 644//144
f 632//144 618//144 645//144
f 644//144 632//144 645//144
f 618//144 617//144 646//144
f 645//144 618//144 646//144
f 617//144 619//144 647//144
f 646//144 617//144 647//144
f 619//144 620//144 648//144
f 647//144 619//144 648//144
f 620//144 621//144 634//144
f 648//144 620//144 634//144
f 645//82 646//81 649//80
f 645//82 649//80 650//83
f 646//81 647//85 651//84
f 646//81 651//84 649//80
f 647//85 648//87 652//86
f 647//85 652//86 651//84
f 648//87 634//89 653//88
f 648//87 653//88 652//86
f 634//89 633//91 654//90
f 634//89 654//90 653//88
f 633//91 635//93 655//92
f 633//91 655//92 654//90
f 635//93 636//95 656//94
f 635//93 656//94 655//92
f 636//95 637//97 657//96
f 636//95 657//96 656//94
f 637//97 638//99 658//98
f 637//97 658//98 657//96
f 638//99 639//101 659//100
f 638//99 659//100 658//98
f 639//101 640//103 660//102
f 639//101 660//102 659//100
f 640//103 641//105 661//104
f 640//103 661//104 660//102
f 641//105 642//107 662//106
f 641//105 662//106 661//104
f 642//107 643//109 663//108
f 642//107 663//108 662//106
f 643//109 644//111 664//110
f 643//109 664//110 663//108
f 644//111 645//82 650//83
f 644//111 650//83 664//110
f 665//36 666//35 667//145
f 668//36 665//36 667//145
f 669//38 670//37 671//37
f 672//39 669//38 671//37
f 671//144 668//144 667//144
f 673//40 669//38 672//39
f 673//40 672//39 674//41
f 675//42 673//40 674//41
f 675//42 674//41 676//43
f 677//146 675//42 676//43
f 677//146 676//43 678//45
f 678//144 676//144 674//144
f 672//144 678//144 674//144
f 679//144 677//144 680//144
f 679//144 675//144 677//144
f 673//144 675//144 679//144
f 669//144 673//144 679//144
f 681//47 682//46 665//36
f 681//47 665//36 668//36
f 683//49 684//49 685//48
f 683//49 685//48 686//50
f 681//144 683//144 686//144
f 687//144 681//144 686//144
f 686//50 685//48 688//51
f 689//52 686//50 688//51
f 689//52 688//51 690//53
f 691//54 689//52 690//53
f 691//54 690//53 692//55
f 687//56 691//54 692//55
f 689//144 691//144 687//144
f 689//144 687//144 686//144
f 693//144 692//144 694//144
f 694//144 692//144 690//144
f 688//144 694//144 690//144
f 685//144 694//144 688//144
f 667//144 678//144 672//144
f 671//144 667//144 672//144
f 668//144 683//144 681//144
f 671//144 683//144 668//144
f 667//145 680//147 677//146
f 678//45 667//145 677//146
f 687//56 692//55 682//46
f 681//47 687//56 682//46
f 695//144 696//144 697//144
f 679//144 695//144 697//144
f 698//144 699//144 700//144
f 698//144 700//144 694//144
f 669//144 679//144 697//144
f 670//144 669//144 697//144
f 701//144 670//144 697//144
f 694//144 685//144 698//144
f 684//144 702//144 698//144
f 685//144 684//144 698//144
f 703//148 704//59 705//58
f 703//148 705//58 706//58
f 671//37 670//37 707//61
f 671//37 707//61 708//62
f 703//144 706//144 671//144
f 708//62 707//61 709//63
f 710//64 708//62 709//63
f 710//64 709//63 711//65
f 712//66 710//64 711//65
f 712//66 711//65 713//149
f 714//68 712//66 713//149
f 710//144 712//144 714//144
f 710//144 714//144 708//144
f 715//144 713//144 716//144
f 713//144 711//144 716//144
f 716//144 711//144 709//144
f 716//144 709//144 707//144
f 705//58 717//70 718//69
f 706//58 705//58 718//69
f 719//71 684//49 683//49
f 720//72 719//71 683//49
f 720//144 683//144 718//144
f 720//144 718//144 721//144
f 722//73 719//71 720//72
f 722//73 720//72 723//74
f 724//75 722//73 723//74
f 724//75 723//74 725//76
f 726//77 724//75 725//76
f 726//77 725//76 721//78
f 721//144 725//144 723//144
f 720//144 721//144 723//144
f 727//144 726//144 728//144
f 724//144 726//144 727//144
f 724//144 727//144 722//144
f 722//144 727//144 719//144
f 708//144 714//144 703//144
f 708//144 703//144 671//144
f 718//144 683//144 706//144
f 706//144 683//144 671//144
f 713//149 715//150 703//148
f 713//149 703//148 714//68
f 717//70 726//77 721//78
f 717//70 721//78 718//69
f 729//144 464//144 730//144
f 729//144 730//144 716//144
f 731//144 467//144 732//144
f 727//144 731//144 732//144
f 729//144 716//144 707//144
f 729//144 707//144 670//144
f 729//144 670//144 701//144
f 732//144 719//144 727//144
f 732//144 702//144 684//144
f 732//144 684//144 719//144
f 649//144 730//144 464//144
f 650//144 649//144 464//144
f 651//144 716//144 730//144
f 649//144 651//144 730//144
f 652//144 704//144 716//144
f 651//144 652//144 716//144
f 653//144 705//144 704//144
f 652//144 653//144 704//144
f 654//144 717//144 705//144
f 653//144 654//144 705//144
f 655//144 727//144 717//144
f 654//144 655//144 717//144
f 656//144 731//144 727//144
f 655//144 656//144 727//144
f 657//144 467//144 731//144
f 656//144 657//144 731//144
f 658//144 468//144 467//144
f 657//144 658//144 467//144
f 659//144 462//144 468//144
f 658//144 659//144 468//144
f 660//144 450//144 462//144
f 659//144 660//144 462//144
f 661//144 433//144 450//144
f 660//144 661//144 450//144
f 662//144 434//144 433//144
f 661//144 662//144 433//144
f 663//144 447//144 434//144
f 662//144 663//144 434//144
f 664//144 463//144 447//144
f 663//144 664//144 447//144
f 650//144 464//144 463//144
f 664//144 650//144 463//144
f 555//33 733//33 734//33
f 555//33 734//33 735//33
f 733//33 736//33 737//33
f 733//33 737//33 734//33
f 736//33 738//33 739//33
f 736//33 739//33 737//33
f 738//33 740//33 741//33
f 738//33 741//33 739//33
f 740//33 742//33 743//33
f 740//33 743//33 741//33
f 742//33 744//33 745//33
f 742//33 745//33 743//33
f 744//33 746//33 747//33
f 744//33 747//33 745//33
f 746//33 558//33 748//33
f 746//33 748//33 747//33
f 558//33 557//33 749//33
f 558//33 749//33 748//33
f 557//33 552//33 750//33
f 557//33 750//33 749//33
f 552//33 540//33 751//33
f 552//33 751//33 750//33
f 540//33 526//33 752//33
f 540//33 752//33 751//33
f 526//33 525//33 753//33
f 526//33 753//33 752//33
f 525//33 539//33 754//33
f 525//33 754//33 753//33
f 539//33 556//33 755//33
f 539//33 755//33 754//33
f 556//33 555//33 735//33
f 556//33 735//33 755//33
f 756//34 757//35 758//36
f 756//34 758//36 759//36
f 760//37 761//37 762//38
f 760//37 762//38 763//39
f 756//33 759//33 760//33
f 763//39 762//38 764//40
f 765//41 763//39 764//40
f 765//41 764//40 766//42
f 767//43 765//41 766//42
f 767//43 766//42 768//44
f 769//45 767//43 768//44
f 765//33 767//33 769//33
f 765//33 769//33 763//33
f 770//33 768//33 771//33
f 768//33 766//33 771//33
f 771//33 766//33 764//33
f 771//33 764//33 762//33
f 758//36 772//46 773//47
f 759//36 758//36 773//47
f 774//48 775//49 776//49
f 777//50 774//48 776//49
f 777//33 776//33 773//33
f 777//33 773//33 778//33
f 779//51 774//48 777//50
f 779//51 777//50 780//52
f 781//53 779//51 780//52
f 781//53 780//52 782//54
f 783//55 781//53 782//54
f 783//55 782//54 778//56
f 778//33 782//33 780//33
f 777//33 778//33 780//33
f 784//33 783//33 785//33
f 781//33 783//33 784//33
f 781//33 784//33 779//33
f 779//33 784//33 774//33
f 763//33 769//33 756//33
f 763//33 756//33 760//33
f 773//33 776//33 759//33
f 759//33 776//33 760//33
f 768//44 770//57 756//34
f 768//44 756//34 769//45
f 772//46 783//55 778//56
f 772//46 778//56 773//47
f 786//33 17//33 787//33
f 786//33 787//33 771//33
f 788//33 1//33 789//33
f 784//33 788//33 789//33
f 786//33 771//33 762//33
f 786//33 762//33 761//33
f 786//33 761//33 790//33
f 789//33 774//33 784//33
f 789//33 791//33 775//33
f 789//33 775//33 774//33
f 740//58 738//59 792//60
f 793//58 740//58 792//60
f 794//61 761//37 760//37
f 795//62 794//61 760//37
f 760//33 793//33 792//33
f 796//63 794//61 795//62
f 796//63 795//62 797//64
f 798//65 796//63 797//64
f 798//65 797//64 799//66
f 800//67 798//65 799//66
f 800//67 799//66 801//68
f 801//33 799//33 797//33
f 795//33 801//33 797//33
f 736//33 800//33 802//33
f 736//33 798//33 800//33
f 796//33 798//33 736//33
f 794//33 796//33 736//33
f 803//69 742//70 740//58
f 803//69 740//58 793//58
f 776//49 775//49 804//71
f 776//49 804//71 805//72
f 803//33 776//33 805//33
f 806//33 803//33 805//33
f 805//72 804//71 807//73
f 808//74 805//72 807//73
f 808//74 807//73 809//75
f 810//76 808//74 809//75
f 810//76 809//75 811//77
f 806//78 810//76 811//77
f 808//33 810//33 806//33
f 808//33 806//33 805//33
f 812//33 811//33 744//33
f 744//33 811//33 809//33
f 807//33 744//33 809//33
f 804//33 744//33 807//33
f 792//33 801//33 795//33
f 760//33 792//33 795//33
f 793//33 776//33 803//33
f 760//33 776//33 793//33
f 792//60 802//79 800//67
f 801//68 792//60 800//67
f 806//78 811//77 742//70
f 803//69 806//78 742//70
f 733//33 555//33 813//33
f 736//33 733//33 813//33
f 814//33 558//33 746//33
f 814//33 746//33 744//33
f 794//33 736//33 813//33
f 761//33 794//33 813//33
f 790//33 761//33 813//33
f 744//33 804//33 814//33
f 775//33 791//33 814//33
f 804//33 775//33 814//33
f 815//33 816//33 817//33
f 815//33 817//33 818//33
f 819//33 820//33 816//33
f 819//33 816//33 815//33
f 821//33 822//33 820//33
f 821//33 820//33 819//33
f 823//33 824//33 822//33
f 823//33 822//33 821//33
f 825//33 826//33 824//33
f 825//33 824//33 823//33
f 827//33 828//33 826//33
f 827//33 826//33 825//33
f 829//33 830//33 828//33
f 829//33 828//33 827//33
f 831//33 832//33 830//33
f 831//33 830//33 829//33
f 833//33 834//33 832//33
f 833//33 832//33 831//33
f 835//33 836//33 834//33
f 835//33 834//33 833//33
f 837//33 838//33 836//33
f 837//33 836//33 835//33
f 839//33 840//33 838//33
f 839//33 838//33 837//33
f 841//33 842//33 840//33
f 841//33 840//33 839//33
f 843//33 844//33 842//33
f 843//33 842//33 841//33
f 845//33 846//33 844//33
f 845//33 844//33 843//33
f 818//33 817//33 846//33
f 818//33 846//33 845//33
f 734//80 841//81 839//82
f 735//83 734//80 839//82
f 737//84 843//85 841//81
f 734//80 737//84 841//81
f 739//86 845//87 843//85
f 737//84 739//86 843//85
f 741//88 818//89 845//87
f 739//86 741//88 845//87
f 743//90 815//91 818//89
f 741//88 743//90 818//89
f 745//92 819//93 815//91
f 743//90 745//92 815//91
f 747//94 821//95 819//93
f 745//92 747//94 819//93
f 748//96 823//97 821//95
f 747//94 748//96 821//95
f 749//98 825//99 823//97
f 748//96 749//98 823//97
f 750//100 827//101 825//99
f 749//98 750//100 825//99
f 751//102 829//103 827//101
f 750//100 751//102 827//101
f 752//104 831//105 829//103
f 751//102 752//104 829//103
f 753//106 833//107 831//105
f 752//104 753//106 831//105
f 754//108 835//109 833//107
f 753//106 754//108 833//107
f 755//110 837//111 835//109
f 754//108 755//110 835//109
f 735//83 839//82 837//111
f 755//110 735//83 837//111
f 842//112 847//113 848//114
f 840//115 842//112 848//114
f 844//116 849//117 847//113
f 842//112 844//116 847//113
f 846//118 850//119 849//117
f 844//116 846//118 849//117
f 817//120 851//121 850//119
f 846//118 817//120 850//119
f 816//122 852//123 851//121
f 817//120 816//122 851//121
f 820//124 853//125 852//123
f 816//122 820//124 852//123
f 822//126 854//127 853//125
f 820//124 822//126 853//125
f 824//128 855//129 854//127
f 822//126 824//128 854//127
f 826//130 856//131 855//129
f 824//128 826//130 855//129
f 828//132 857//133 856//131
f 826//130 828//132 856//131
f 830//134 858//135 857//133
f 828//132 830//134 857//133
f 832//136 859//137 858//135
f 830//134 832//136 858//135
f 834//138 860//139 859//137
f 832//136 834//138 859//137
f 836//140 861//141 860//139
f 834//138 836//140 860//139
f 838//142 862//143 861//141
f 836//140 838//142 861//141
f 840//115 848//114 862//143
f 838//142 840//115 862//143
f 851//144 852//144 863//144
f 864//144 851//144 863//144
f 852//144 853//144 865//144
f 863//144 852//144 865//144
f 853//144 854//144 866//144
f 865//144 853//144 866//144
f 854//144 855//144 867//144
f 866//144 854//144 867//144
f 855//144 856//144 868//144
f 867//144 855//144 868//144
f 856//144 857//144 869//144
f 868//144 856//144 869//144
f 857//144 858//144 870//144
f 869//144 857//144 870//144
f 858//144 859//144 871//144
f 870//144 858//144 871//144
f 859//144 860//144 872//144
f 871//144 859//144 872//144
f 860//144 861//144 873//144
f 872//144 860//144 873//144
f 861//144 862//144 874//144
f 873//144 861//144 874//144
f 862//144 848//144 875//144
f 874//144 862//144 875//144
f 848//144 847//144 876//144
f 875//144 848//144 876//144
f 847//144 849//144 877//144
f 876//144 847//144 877//144
f 849//144 850//144 878//144
f 877//144 849//144 878//144
f 850//144 851//144 864//144
f 878//144 850//144 864//144
f 875//82 876//81 879//80
f 875//82 879//80 880//83
f 876//81 877//85 881//84
f 876//81 881//84 879//80
f 877//85 878//87 882//86
f 877//85 882//86 881//84
f 878//87 864//89 883//88
f 878//87 883//88 882//86
f 864//89 863//91 884//90
f 864//89 884//90 883//88
f 863//91 865//93 885//92
f 863//91 885//92 884//90
f 865//93 866//95 886//94
f 865//93 886//94 885//92
f 866//95 867//97 887//96
f 866//95 887//96 886//94
f 867//97 868//99 888//98
f 867//97 888//98 887//96
f 868//99 869//101 889//100
f 868//99 889//100 888//98
f 869//101 870//103 890//102
f 869//101 890//102 889//100
f 870//103 871//105 891//104
f 870//103 891//104 890//102
f 871//105 872//107 892//106
f 871//105 892//106 891//104
f 872//107 873//109 893//108
f 872//107 893//108 892//106
f 873//109 874//111 894//110
f 873//109 894//110 893//108
f 874//111 875//82 880//83
f 874//111 880//83 894//110
f 895//36 896//35 897//145
f 898//36 895//36 897//145
f 899//38 900//37 901//37
f 902//39 899//38 901//37
f 901//144 898//144 897//144
f 903//40 899//38 902//39
f 903//40 902//39 904//41
f 905//42 903//40 904//41
f 905//42 904//41 906//43
f 907//146 905//42 906//43
f 907//146 906//43 908//45
f 908//144 906//144 904//144
f 902//144 908//144 904//144
f 909//144 907//144 910//144
f 909//144 905//144 907//144
f 903//144 905//144 909//144
f 899//144 903//144 909//144
f 911//47 912//46 895//36
f 911//47 895//36 898//36
f 913//49 914//49 915//48
f 913//49 915//48 916//50
f 911//144 913//144 916//144
f 917//144 911//144 916//144
f 916//50 915//48 918//51
f 919//52 916//50 918//51
f 919//52 918//51 920//53
f 921//54 919//52 920//53
f 921//54 920//53 922//55
f 917//56 921//54 922//55
f 919//144 921//144 917//144
f 919//144 917//144 916//144
f 923//144 922//144 924//144
f 924//144 922//144 920//144
f 918//144 924//144 920//144
f 915//144 924//144 918//144
f 897//144 908//144 902//144
f 901//144 897//144 902//144
f 898//144 913//144 911//144
f 901//144 913//144 898//144
f 897//145 910//147 907//146
f 908//45 897//145 907//146
f 917//56 922//55 912//46
f 911//47 917//56 912//46
f 925//144 18//144 926//144
f 909//144 925//144 926//144
f 927//144 4//144 928//144
f 927//144 928//144 924//144
f 899//144 909//144 926//144
f 900//144 899//144 926//144
f 929//144 900//144 926//144
f 924//144 915//144 927//144
f 914//144 930//144 927//144
f 915//144 914//144 927//144
f 931//148 932//59 933//58
f 931//148 933//58 934//58
f 901//37 900//37 935//61
f 901//37 935//61 936//62
f 931//144 934//144 901//144
f 936//62 935//61 937//63
f 938//64 936//62 937//63
f 938//64 937//63 939//65
f 940//66 938//64 939//65
f 940//66 939//65 941//149
f 942//68 940//66 941//149
f 938//144 940//144 942//144
f 938//144 942//144 936//144
f 943//144 941//144 944//144
f 941//144 939//144 944//144
f 944//144 939//144 937//144
f 944//144 937//144 935//144
f 933//58 945//70 946//69
f 934//58 933//58 946//69
f 947//71 914//49 913//49
f 948//72 947//71 913//49
f 948//144 913//144 946//144
f 948//144 946//144 949//144
f 950//73 947//71 948//72
f 950//73 948//72 951//74
f 952//75 950//73 951//74
f 952//75 951//74 953//76
f 954//77 952//75 953//76
f 954//77 953//76 949//78
f 949//144 953//144 951//144
f 948//144 949//144 951//144
f 955//144 954//144 956//144
f 952//144 954//144 955//144
f 952//144 955//144 950//144
f 950//144 955//144 947//144
f 936//144 942//144 931//144
f 936//144 931//144 901//144
f 946//144 913//144 934//144
f 934//144 913//144 901//144
f 941//149 943//150 931//148
f 941//149 931//148 942//68
f 945//70 954//77 949//78
f 945//70 949//78 946//69
f 957//144 696//144 958//144
f 957//144 958//144 944//144
f 959//144 699//144 960//144
f 955//144 959//144 960//144
f 957//144 944//144 935//144
f 957//144 935//144 900//144
f 957//144 900//144 929//144
f 960//144 947//144 955//144
f 960//144 930//144 914//144
f 960//144 914//144 947//144
f 879//144 958//144 696//144
f 880//144 879//144 696//144
f 881//144 944//144 958//144
f 879//144 881//144 958//144
f 882//144 932//144 944//144
f 881//144 882//144 944//144
f 883//144 933//144 932//144
f 882//144 883//144 932//144
f 884//144 945//144 933//144
f 883//144 884//144 933//144
f 885//144 955//144 945//144
f 884//144 885//144 945//144
f 886//144 959//144 955//144
f 885//144 886//144 955//144
f 887//144 699//144 959//144
f 886//144 887//144 959//144
f 888//144 700//144 699//144
f 887//144 888//144 699//144
f 889//144 694//144 700//144
f 888//144 889//144 700//144
f 890//144 682//144 694//144
f 889//144 890//144 694//144
f 891//144 665//144 682//144
f 890//144 891//144 682//144
f 892//144 666//144 665//144
f 891//144 892//144 665//144
f 893//144 679//144 666//144
f 892//144 893//144 666//144
f 894//144 695//144 679//144
f 893//144 894//144 679//144
f 880//144 696//144 695//144
f 894//144 880//144 695//144
f 961//144 962//144 963//144
f 964//144 961//144 963//144
f 962//144 965//144 966//144
f 963//144 962//144 966//144
f 965//144 967//144 968//144
f 966//144 965//144 968//144
f 967//144 969//144 970//144
f 968//144 967//144 970//144
f 969//144 971//144 972//144
f 970//144 969//144 972//144
f 971//144 973//144 974//144
f 972//144 971//144 974//144
f 973//144 975//144 976//144
f 974//144 973//144 976//144
f 975//144 977//144 978//144
f 976//144 975//144 978//144
f 977//144 979//144 980//144
f 978//144 977//144 980//144
f 979//144 981//144 982//144
f 980//144 979//144 982//144
f 981//144 983//144 984//144
f 982//144 981//144 984//144
f 983//144 985//144 986//144
f 984//144 983//144 986//144
f 985//144 987//144 988//144
f 986//144 985//144 988//144
f 987//144 989//144 990//144
f 988//144 987//144 990//144
f 989//144 991//144 992//144
f 990//144 989//144 992//144
f 991//144 961//144 964//144
f 992//144 991//144 964//144
f 986//82 988//81 993//80
f 986//82 993//80 994//83
f 988//81 990//85 995//84
f 988//81 995//84 993//80
f 990//85 992//87 996//86
f 990//85 996//86 995//84
f 992//87 964//89 997//88
f 992//87 997//88 996//86
f 964//89 963//91 998//90
f 964//89 998//90 997//88
f 963//91 966//93 999//92
f 963//91 999//92 998//90
f 966//93 968//95 1000//94
f 966//93 1000//94 999//92
f 968//95 970//97 1001//96
f 968//95 1001//96 1000//94
f 970//97 972//99 1002//98
f 970//97 1002//98 1001//96
f 972//99 974//101 1003//100
f 972//99 1003//100 1002//98
f 974//101 976//103 1004//102
f 974//101 1004//102 1003//100
f 976//103 978//105 1005//104
f 976//103 1005//104 1004//102
f 978//105 980//107 1006//106
f 978//105 1006//106 1005//104
f 980//107 982//109 1007//108
f 980//107 1007//108 1006//106
f 982//109 984//111 1008//110
f 982//109 1008//110 1007//108
f 984//111 986//82 994//83
f 984//111 994//83 1008//110
f 18//144 925//144 1008//144
f 18//144 1008//144 994//144
f 925//144 909//144 1007//144
f 925//144 1007//144 1008//144
f 909//144 896//144 1006//144
f 909//144 1006//144 1007//144
f 896//144 895//144 1005//144
f 896//144 1005//144 1006//144
f 895//144 912//144 1004//144
f 895//144 1004//144 1005//144
f 912//144 924//144 1003//144
f 912//144 1003//144 1004//144
f 924//144 928//144 1002//144
f 924//144 1002//144 1003//144
f 928//144 4//144 1001//144
f 928//144 1001//144 1002//144
f 4//144 3//144 1000//144
f 4//144 1000//144 1001//144
f 3//144 6//144 999//144
f 3//144 999//144 1000//144
f 6//144 8//144 998//144
f 6//144 998//144 999//144
f 8//144 10//144 997//144
f 8//144 997//144 998//144
f 10//144 12//144 996//144
f 10//144 996//144 997//144
f 12//144 14//144 995//144
f 12//144 995//144 996//144
f 14//144 16//144 993//144
f 14//144 993//144 995//144
f 16//144 18//144 994//144
f 16//144 994//144 993//144
f 1009//112 987//113 985//114
f 1010//115 1009//112 985//114
f 1011//116 989//117 987//113
f 1009//112 1011//116 987//113
f 1012//118 991//119 989//117
f 1011//116 1012//118 989//117
f 1013//120 961//121 991//119
f 1012//118 1013//120 991//119
f 1014//122 962//123 961//121
f 1013//120 1014//122 961//121
f 1015//124 965//125 962//123
f 1014//122 1015//124 962//123
f 1016//126 967//127 965//125
f 1015//124 1016//126 965//125
f 1017//128 969//129 967//127
f 1016//126 1017//128 967//127
f 1018//130 971//131 969//129
f 1017//128 1018//130 969//129
f 1019//132 973//133 971//131
f 1018//130 1019//132 971//131
f 1020//134 975//135 973//133
f 1019//132 1020//134 973//133
f 1021//136 977//137 975//135
f 1020//134 1021//136 975//135
f 1022//138 979//139 977//137
f 1021//136 1022//138 977//137
f 1023//140 981//141 979//139
f 1022//138 1023//140 979//139
f 1024//142 983//143 981//141
f 1023//140 1024//142 981//141
f 1010//115 985//114 983//143
f 1024//142 1010//115 983//143
f 17//33 15//33 1025//33
f 17//33 1025//33 1026//33
f 15//33 13//33 1027//33
f 15//33 1027//33 1025//33
f 13//33 11//33 1028//33
f 13//33 1028//33 1027//33
f 11//33 9//33 1029//33
f 11//33 1029//33 1028//33
f 9//33 7//33 1030//33
f 9//33 1030//33 1029//33
f 7//33 5//33 1031//33
f 7//33 1031//33 1030//33
f 5//33 2//33 1032//33
f 5//33 1032//33 1031//33
f 2//33 1//33 1033//33
f 2//33 1033//33 1032//33
f 1//33 788//33 1034//33
f 1//33 1034//33 1033//33
f 788//33 784//33 1035//33
f 788//33 1035//33 1034//33
f 784//33 772//33 1036//33
f 784//33 1036//33 1035//33
f 772//33 758//33 1037//33
f 772//33 1037//33 1036//33
f 758//33 757//33 1038//33
f 758//33 1038//33 1037//33
f 757//33 771//33 1039//33
f 757//33 1039//33 1038//33
f 771//33 787//33 1040//33
f 771//33 1040//33 1039//33
f 787//33 17//33 1026//33
f 787//33 1026//33 1040//33
f 1041//33 1014//33 1013//33
f 1041//33 1013//33 1042//33
f 1043//33 1015//33 1014//33
f 1043//33 1014//33 1041//33
f 1044//33 1016//33 1015//33
f 1044//33 1015//33 1043//33
f 1045//33 1017//33 1016//33
f 1045//33 1016//33 1044//33
f 1046//33 1018//33 1017//33
f 1046//33 1017//33 1045//33
f 1047//33 1019//33 1018//33
f 1047//33 1018//33 1046//33
f 1048//33 1020//33 1019//33
f 1048//33 1019//33 1047//33
f 1049//33 1021//33 1020//33
f 1049//33 1020//33 1048//33
f 1050//33 1022//33 1021//33
f 1050//33 1021//33 1049//33
f 1051//33 1023//33 1022//33
f 1051//33 1022//33 1050//33
f 1052//33 1024//33 1023//33
f 1052//33 1023//33 1051//33
f 1053//33 1010//33 1024//33
f 1053//33 1024//33 1052//33
f 1054//33 1009//33 1010//33
f 1054//33 1010//33 1053//33
f 1055//33 1011//33 1009//33
f 1055//33 1009//33 1054//33
f 1056//33 1012//33 1011//33
f 1056//33 1011//33 1055//33
f 1042//33 1013//33 1012//33
f 1042//33 1012//33 1056//33
f 1025//80 1054//81 1053//82
f 1026//83 1025//80 1053//82
f 1027//84 1055//85 1054//81
f 1025//80 1027//84 1054//81
f 1028//86 1056//87 1055//85
f 1027//84 1028//86 1055//85
f 1029//88 1042//89 1056//87
f 1028//86 1029//88 1056//87
f 1030//90 1041//91 1042//89
f 1029//88 1030//90 1042//89
f 1031//92 1043//93 1041//91
f 1030//90 1031//92 1041//91
f 1032//94 1044//95 1043//93
f 1031//92 1032//94 1043//93
f 1033//96 1045//97 1044//95
f 1032//94 1033//96 1044//95
f 1034//98 1046//99 1045//97
f 1033//96 1034//98 1045//97
f 1035//100 1047//101 1046//99
f 1034//98 1035//100 1046//99
f 1036//102 1048//103 1047//101
f 1035//100 1036//102 1047//101
f 1037//104 1049//105 1048//103
f 1036//102 1037//104 1048//103
f 1038//106 1050//107 1049//105
f 1037//104 1038//106 1049//105
f 1039//108 1051//109 1050//107
f 1038//106 1039//108 1050//107
f 1040//110 1052//111 1051//109
f 1039//108 1040//110 1051//109
f 1026//83 1053//82 1052//111
f 1040//110 1026//83 1052//111
f 21//18 24//18 18//16
f 21//18 18//16 17//16
