# Botball Lab: metres, +Y up, centred XZ, base Y=0
s off
v 0.0000000 0.0016000 0.0040000
v 0.0005240 0.0028360 0.0040000
v -0.0005240 0.0028360 0.0040000
v 0.0000000 0.0016000 -0.0040000
v -0.0005240 0.0028360 -0.0040000
v 0.0005240 0.0028360 -0.0040000
v -0.0008000 0.0010400 0.0018880
v -0.0008000 0.0010400 -0.0018880
v -0.0006800 0.0004000 0.0012000
v -0.0006800 0.0004000 -0.0012000
v 0.0000000 0.0004000 -0.0032000
v 0.0006800 0.0004000 -0.0012000
v 0.0002800 0.0004000 -0.0012000
v 0.0006496 0.0002469 -0.0012000
v 0.0005628 0.0001172 -0.0012000
v 0.0004331 0.0000304 -0.0012000
v 0.0002800 0.0000000 -0.0012000
v 0.0006800 0.0004000 0.0012000
v 0.0006496 0.0002469 0.0012000
v 0.0005628 0.0001172 0.0012000
v 0.0004331 0.0000304 0.0012000
v 0.0002800 0.0000000 0.0012000
v 0.0002800 0.0004000 0.0012000
v -0.0002800 0.0000000 0.0012000
v -0.0002800 0.0000000 -0.0012000
v -0.0002800 0.0004000 -0.0012000
v -0.0002800 0.0004000 0.0012000
v -0.0006496 0.0002469 0.0012000
v -0.0005628 0.0001172 0.0012000
v -0.0004331 0.0000304 0.0012000
v -0.0006496 0.0002469 -0.0012000
v -0.0005628 0.0001172 -0.0012000
v -0.0004331 0.0000304 -0.0012000
v 0.0008000 0.0010400 0.0018880
v 0.0008000 0.0010400 -0.0018880
v 0.0000000 0.0004000 0.0032000
v 0.0026000 0.0022968 0.0040000
v 0.0024358 0.0036292 0.0040000
v 0.0015282 0.0031052 0.0040000
v 0.0026000 0.0022968 -0.0040000
v 0.0015282 0.0031052 -0.0040000
v 0.0024358 0.0036292 -0.0040000
v 0.0021872 0.0014118 0.0018880
v 0.0021872 0.0014118 -0.0018880
v 0.0026111 0.0009176 0.0012000
v 0.0026111 0.0009176 -0.0012000
v 0.0032000 0.0012576 -0.0032000
v 0.0037889 0.0015976 -0.0012000
v 0.0034425 0.0013976 -0.0012000
v 0.0038391 0.0014498 -0.0012000
v 0.0038288 0.0012941 -0.0012000
v 0.0037598 0.0011541 -0.0012000
v 0.0036425 0.0010512 -0.0012000
v 0.0037889 0.0015976 0.0012000
v 0.0038391 0.0014498 0.0012000
v 0.0038288 0.0012941 0.0012000
v 0.0037598 0.0011541 0.0012000
v 0.0036425 0.0010512 0.0012000
v 0.0034425 0.0013976 0.0012000
v 0.0031575 0.0007712 0.0012000
v 0.0031575 0.0007712 -0.0012000
v 0.0029575 0.0011176 -0.0012000
v 0.0029575 0.0011176 0.0012000
v 0.0027140 0.0008003 0.0012000
v 0.0028540 0.0007312 0.0012000
v 0.0030097 0.0007210 0.0012000
v 0.0027140 0.0008003 -0.0012000
v 0.0028540 0.0007312 -0.0012000
v 0.0030097 0.0007210 -0.0012000
v 0.0035728 0.0022118 0.0018880
v 0.0035728 0.0022118 -0.0018880
v 0.0032000 0.0012576 0.0032000
v 0.0045032 0.0042000 0.0040000
v 0.0036948 0.0052718 0.0040000
v 0.0031708 0.0043642 0.0040000
v 0.0045032 0.0042000 -0.0040000
v 0.0031708 0.0043642 -0.0040000
v 0.0036948 0.0052718 -0.0040000
v 0.0045882 0.0032272 0.0018880
v 0.0045882 0.0032272 -0.0018880
v 0.0052024 0.0030111 0.0012000
v 0.0052024 0.0030111 -0.0012000
v 0.0055424 0.0036000 -0.0032000
v 0.0058824 0.0041889 -0.0012000
v 0.0056824 0.0038425 -0.0012000
v 0.0059997 0.0040860 -0.0012000
v 0.0060688 0.0039460 -0.0012000
v 0.0060790 0.0037903 -0.0012000
v 0.0060288 0.0036425 -0.0012000
v 0.0058824 0.0041889 0.0012000
v 0.0059997 0.0040860 0.0012000
v 0.0060688 0.0039460 0.0012000
v 0.0060790 0.0037903 0.0012000
v 0.0060288 0.0036425 0.0012000
v 0.0056824 0.0038425 0.0012000
v 0.0057488 0.0031575 0.0012000
v 0.0057488 0.0031575 -0.0012000
v 0.0054024 0.0033575 -0.0012000
v 0.0054024 0.0033575 0.0012000
v 0.0053502 0.0029609 0.0012000
v 0.0055059 0.0029712 0.0012000
v 0.0056459 0.0030402 0.0012000
v 0.0053502 0.0029609 -0.0012000
v 0.0055059 0.0029712 -0.0012000
v 0.0056459 0.0030402 -0.0012000
v 0.0053882 0.0046128 0.0018880
v 0.0053882 0.0046128 -0.0018880
v 0.0055424 0.0036000 0.0032000
v 0.0052000 0.0068000 0.0040000
v 0.0039640 0.0073240 0.0040000
v 0.0039640 0.0062760 0.0040000
v 0.0052000 0.0068000 -0.0040000
v 0.0039640 0.0062760 -0.0040000
v 0.0039640 0.0073240 -0.0040000
v 0.0057600 0.0060000 0.0018880
v 0.0057600 0.0060000 -0.0018880
v 0.0064000 0.0061200 0.0012000
v 0.0064000 0.0061200 -0.0012000
v 0.0064000 0.0068000 -0.0032000
v 0.0064000 0.0074800 -0.0012000
v 0.0064000 0.0070800 -0.0012000
v 0.0065531 0.0074496 -0.0012000
v 0.0066828 0.0073628 -0.0012000
v 0.0067696 0.0072331 -0.0012000
v 0.0068000 0.0070800 -0.0012000
v 0.0064000 0.0074800 0.0012000
v 0.0065531 0.0074496 0.0012000
v 0.0066828 0.0073628 0.0012000
v 0.0067696 0.0072331 0.0012000
v 0.0068000 0.0070800 0.0012000
v 0.0064000 0.0070800 0.0012000
v 0.0068000 0.0065200 0.0012000
v 0.0068000 0.0065200 -0.0012000
v 0.0064000 0.0065200 -0.0012000
v 0.0064000 0.0065200 0.0012000
v 0.0065531 0.0061504 0.0012000
v 0.0066828 0.0062372 0.0012000
v 0.0067696 0.0063669 0.0012000
v 0.0065531 0.0061504 -0.0012000
v 0.0066828 0.0062372 -0.0012000
v 0.0067696 0.0063669 -0.0012000
v 0.0057600 0.0076000 0.0018880
v 0.0057600 0.0076000 -0.0018880
v 0.0064000 0.0068000 0.0032000
v 0.0045032 0.0094000 0.0040000
v 0.0031708 0.0092358 0.0040000
v 0.0036948 0.0083282 0.0040000
v 0.0045032 0.0094000 -0.0040000
v 0.0036948 0.0083282 -0.0040000
v 0.0031708 0.0092358 -0.0040000
v 0.0053882 0.0089872 0.0018880
v 0.0053882 0.0089872 -0.0018880
v 0.0058824 0.0094111 0.0012000
v 0.0058824 0.0094111 -0.0012000
v 0.0055424 0.0100000 -0.0032000
v 0.0052024 0.0105889 -0.0012000
v 0.0054024 0.0102425 -0.0012000
v 0.0053502 0.0106391 -0.0012000
v 0.0055059 0.0106288 -0.0012000
v 0.0056459 0.0105598 -0.0012000
v 0.0057488 0.0104425 -0.0012000
v 0.0052024 0.0105889 0.0012000
v 0.0053502 0.0106391 0.0012000
v 0.0055059 0.0106288 0.0012000
v 0.0056459 0.0105598 0.0012000
v 0.0057488 0.0104425 0.0012000
v 0.0054024 0.0102425 0.0012000
v 0.0060288 0.0099575 0.0012000
v 0.0060288 0.0099575 -0.0012000
v 0.0056824 0.0097575 -0.0012000
v 0.0056824 0.0097575 0.0012000
v 0.0059997 0.0095140 0.0012000
v 0.0060688 0.0096540 0.0012000
v 0.0060790 0.0098097 0.0012000
v 0.0059997 0.0095140 -0.0012000
v 0.0060688 0.0096540 -0.0012000
v 0.0060790 0.0098097 -0.0012000
v 0.0045882 0.0103728 0.0018880
v 0.0045882 0.0103728 -0.0018880
v 0.0055424 0.0100000 0.0032000
v 0.0026000 0.0113032 0.0040000
v 0.0015282 0.0104948 0.0040000
v 0.0024358 0.0099708 0.0040000
v 0.0026000 0.0113032 -0.0040000
v 0.0024358 0.0099708 -0.0040000
v 0.0015282 0.0104948 -0.0040000
v 0.0035728 0.0113882 0.0018880
v 0.0035728 0.0113882 -0.0018880
v 0.0037889 0.0120024 0.0012000
v 0.0037889 0.0120024 -0.0012000
v 0.0032000 0.0123424 -0.0032000
v 0.0026111 0.0126824 -0.0012000
v 0.0029575 0.0124824 -0.0012000
v 0.0027140 0.0127997 -0.0012000
v 0.0028540 0.0128688 -0.0012000
v 0.0030097 0.0128790 -0.0012000
v 0.0031575 0.0128288 -0.0012000
v 0.0026111 0.0126824 0.0012000
v 0.0027140 0.0127997 0.0012000
v 0.0028540 0.0128688 0.0012000
v 0.0030097 0.0128790 0.0012000
v 0.0031575 0.0128288 0.0012000
v 0.0029575 0.0124824 0.0012000
v 0.0036425 0.0125488 0.0012000
v 0.0036425 0.0125488 -0.0012000
v 0.0034425 0.0122024 -0.0012000
v 0.0034425 0.0122024 0.0012000
v 0.0038391 0.0121502 0.0012000
v 0.0038288 0.0123059 0.0012000
v 0.0037598 0.0124459 0.0012000
v 0.0038391 0.0121502 -0.0012000
v 0.0038288 0.0123059 -0.0012000
v 0.0037598 0.0124459 -0.0012000
v 0.0021872 0.0121882 0.0018880
v 0.0021872 0.0121882 -0.0018880
v 0.0032000 0.0123424 0.0032000
v 0.0000000 0.0120000 0.0040000
v -0.0005240 0.0107640 0.0040000
v 0.0005240 0.0107640 0.0040000
v 0.0000000 0.0120000 -0.0040000
v 0.0005240 0.0107640 -0.0040000
v -0.0005240 0.0107640 -0.0040000
v 0.0008000 0.0125600 0.0018880
v 0.0008000 0.0125600 -0.0018880
v 0.0006800 0.0132000 0.0012000
v 0.0006800 0.0132000 -0.0012000
v 0.0000000 0.0132000 -0.0032000
v -0.0006800 0.0132000 -0.0012000
v -0.0002800 0.0132000 -0.0012000
v -0.0006496 0.0133531 -0.0012000
v -0.0005628 0.0134828 -0.0012000
v -0.0004331 0.0135696 -0.0012000
v -0.0002800 0.0136000 -0.0012000
v -0.0006800 0.0132000 0.0012000
v -0.0006496 0.0133531 0.0012000
v -0.0005628 0.0134828 0.0012000
v -0.0004331 0.0135696 0.0012000
v -0.0002800 0.0136000 0.0012000
v -0.0002800 0.0132000 0.0012000
v 0.0002800 0.0136000 0.0012000
v 0.0002800 0.0136000 -0.0012000
v 0.0002800 0.0132000 -0.0012000
v 0.0002800 0.0132000 0.0012000
v 0.0006496 0.0133531 0.0012000
v 0.0005628 0.0134828 0.0012000
v 0.0004331 0.0135696 0.0012000
v 0.0006496 0.0133531 -0.0012000
v 0.0005628 0.0134828 -0.0012000
v 0.0004331 0.0135696 -0.0012000
v -0.0008000 0.0125600 0.0018880
v -0.0008000 0.0125600 -0.0018880
v 0.0000000 0.0132000 0.0032000
v -0.0026000 0.0113032 0.0040000
v -0.0024358 0.0099708 0.0040000
v -0.0015282 0.0104948 0.0040000
v -0.0026000 0.0113032 -0.0040000
v -0.0015282 0.0104948 -0.0040000
v -0.0024358 0.0099708 -0.0040000
v -0.0021872 0.0121882 0.0018880
v -0.0021872 0.0121882 -0.0018880
v -0.0026111 0.0126824 0.0012000
v -0.0026111 0.0126824 -0.0012000
v -0.0032000 0.0123424 -0.0032000
v -0.0037889 0.0120024 -0.0012000
v -0.0034425 0.0122024 -0.0012000
v -0.0038391 0.0121502 -0.0012000
v -0.0038288 0.0123059 -0.0012000
v -0.0037598 0.0124459 -0.0012000
v -0.0036425 0.0125488 -0.0012000
v -0.0037889 0.0120024 0.0012000
v -0.0038391 0.0121502 0.0012000
v -0.0038288 0.0123059 0.0012000
v -0.0037598 0.0124459 0.0012000
v -0.0036425 0.0125488 0.0012000
v -0.0034425 0.0122024 0.0012000
v -0.0031575 0.0128288 0.0012000
v -0.0031575 0.0128288 -0.0012000
v -0.0029575 0.0124824 -0.0012000
v -0.0029575 0.0124824 0.0012000
v -0.0027140 0.0127997 0.0012000
v -0.0028540 0.0128688 0.0012000
v -0.0030097 0.0128790 0.0012000
v -0.0027140 0.0127997 -0.0012000
v -0.0028540 0.0128688 -0.0012000
v -0.0030097 0.0128790 -0.0012000
v -0.0035728 0.0113882 0.0018880
v -0.0035728 0.0113882 -0.0018880
v -0.0032000 0.0123424 0.0032000
v -0.0045032 0.0094000 0.0040000
v -0.0036948 0.0083282 0.0040000
v -0.0031708 0.0092358 0.0040000
v -0.0045032 0.0094000 -0.0040000
v -0.0031708 0.0092358 -0.0040000
v -0.0036948 0.0083282 -0.0040000
v -0.0045882 0.0103728 0.0018880
v -0.0045882 0.0103728 -0.0018880
v -0.0052024 0.0105889 0.0012000
v -0.0052024 0.0105889 -0.0012000
v -0.0055424 0.0100000 -0.0032000
v -0.0058824 0.0094111 -0.0012000
v -0.0056824 0.0097575 -0.0012000
v -0.0059997 0.0095140 -0.0012000
v -0.0060688 0.0096540 -0.0012000
v -0.0060790 0.0098097 -0.0012000
v -0.0060288 0.0099575 -0.0012000
v -0.0058824 0.0094111 0.0012000
v -0.0059997 0.0095140 0.0012000
v -0.0060688 0.0096540 0.0012000
v -0.0060790 0.0098097 0.0012000
v -0.0060288 0.0099575 0.0012000
v -0.0056824 0.0097575 0.0012000
v -0.0057488 0.0104425 0.0012000
v -0.0057488 0.0104425 -0.0012000
v -0.0054024 0.0102425 -0.0012000
v -0.0054024 0.0102425 0.0012000
v -0.0053502 0.0106391 0.0012000
v -0.0055059 0.0106288 0.0012000
v -0.0056459 0.0105598 0.0012000
v -0.0053502 0.0106391 -0.0012000
v -0.0055059 0.0106288 -0.0012000
v -0.0056459 0.0105598 -0.0012000
v -0.0053882 0.0089872 0.0018880
v -0.0053882 0.0089872 -0.0018880
v -0.0055424 0.0100000 0.0032000
v -0.0052000 0.0068000 0.0040000
v -0.0039640 0.0062760 0.0040000
v -0.0039640 0.0073240 0.0040000
v -0.0052000 0.0068000 -0.0040000
v -0.0039640 0.0073240 -0.0040000
v -0.0039640 0.0062760 -0.0040000
v -0.0057600 0.0076000 0.0018880
v -0.0057600 0.0076000 -0.0018880
v -0.0064000 0.0074800 0.0012000
v -0.0064000 0.0074800 -0.0012000
v -0.0064000 0.0068000 -0.0032000
v -0.0064000 0.0061200 -0.0012000
v -0.0064000 0.0065200 -0.0012000
v -0.0065531 0.0061504 -0.0012000
v -0.0066828 0.0062372 -0.0012000
v -0.0067696 0.0063669 -0.0012000
v -0.0068000 0.0065200 -0.0012000
v -0.0064000 0.0061200 0.0012000
v -0.0065531 0.0061504 0.0012000
v -0.0066828 0.0062372 0.0012000
v -0.0067696 0.0063669 0.0012000
v -0.0068000 0.0065200 0.0012000
v -0.0064000 0.0065200 0.0012000
v -0.0068000 0.0070800 0.0012000
v -0.0068000 0.0070800 -0.0012000
v -0.0064000 0.0070800 -0.0012000
v -0.0064000 0.0070800 0.0012000
v -0.0065531 0.0074496 0.0012000
v -0.0066828 0.0073628 0.0012000
v -0.0067696 0.0072331 0.0012000
v -0.0065531 0.0074496 -0.0012000
v -0.0066828 0.0073628 -0.0012000
v -0.0067696 0.0072331 -0.0012000
v -0.0057600 0.0060000 0.0018880
v -0.0057600 0.0060000 -0.0018880
v -0.0064000 0.0068000 0.0032000
v -0.0045032 0.0042000 0.0040000
v -0.0031708 0.0043642 0.0040000
v -0.0036948 0.0052718 0.0040000
v -0.0045032 0.0042000 -0.0040000
v -0.0036948 0.0052718 -0.0040000
v -0.0031708 0.0043642 -0.0040000
v -0.0053882 0.0046128 0.0018880
v -0.0053882 0.0046128 -0.0018880
v -0.0058824 0.0041889 0.0012000
v -0.0058824 0.0041889 -0.0012000
v -0.0055424 0.0036000 -0.0032000
v -0.0052024 0.0030111 -0.0012000
v -0.0054024 0.0033575 -0.0012000
v -0.0053502 0.0029609 -0.0012000
v -0.0055059 0.0029712 -0.0012000
v -0.0056459 0.0030402 -0.0012000
v -0.0057488 0.0031575 -0.0012000
v -0.0052024 0.0030111 0.0012000
v -0.0053502 0.0029609 0.0012000
v -0.0055059 0.0029712 0.0012000
v -0.0056459 0.0030402 0.0012000
v -0.0057488 0.0031575 0.0012000
v -0.0054024 0.0033575 0.0012000
v -0.0060288 0.0036425 0.0012000
v -0.0060288 0.0036425 -0.0012000
v -0.0056824 0.0038425 -0.0012000
v -0.0056824 0.0038425 0.0012000
v -0.0059997 0.0040860 0.0012000
v -0.0060688 0.0039460 0.0012000
v -0.0060790 0.0037903 0.0012000
v -0.0059997 0.0040860 -0.0012000
v -0.0060688 0.0039460 -0.0012000
v -0.0060790 0.0037903 -0.0012000
v -0.0045882 0.0032272 0.0018880
v -0.0045882 0.0032272 -0.0018880
v -0.0055424 0.0036000 0.0032000
v -0.0026000 0.0022968 0.0040000
v -0.0015282 0.0031052 0.0040000
v -0.0024358 0.0036292 0.0040000
v -0.0026000 0.0022968 -0.0040000
v -0.0024358 0.0036292 -0.0040000
v -0.0015282 0.0031052 -0.0040000
v -0.0035728 0.0022118 0.0018880
v -0.0035728 0.0022118 -0.0018880
v -0.0037889 0.0015976 0.0012000
v -0.0037889 0.0015976 -0.0012000
v -0.0032000 0.0012576 -0.0032000
v -0.0026111 0.0009176 -0.0012000
v -0.0029575 0.0011176 -0.0012000
v -0.0027140 0.0008003 -0.0012000
v -0.0028540 0.0007312 -0.0012000
v -0.0030097 0.0007210 -0.0012000
v -0.0031575 0.0007712 -0.0012000
v -0.0026111 0.0009176 0.0012000
v -0.0027140 0.0008003 0.0012000
v -0.0028540 0.0007312 0.0012000
v -0.0030097 0.0007210 0.0012000
v -0.0031575 0.0007712 0.0012000
v -0.0029575 0.0011176 0.0012000
v -0.0036425 0.0010512 0.0012000
v -0.0036425 0.0010512 -0.0012000
v -0.0034425 0.0013976 -0.0012000
v -0.0034425 0.0013976 0.0012000
v -0.0038391 0.0014498 0.0012000
v -0.0038288 0.0012941 0.0012000
v -0.0037598 0.0011541 0.0012000
v -0.0038391 0.0014498 -0.0012000
v -0.0038288 0.0012941 -0.0012000
v -0.0037598 0.0011541 -0.0012000
v -0.0021872 0.0014118 0.0018880
v -0.0021872 0.0014118 -0.0018880
v -0.0032000 0.0012576 0.0032000
v 0.0040000 0.0068000 -0.0040000
v 0.0040000 0.0068000 0.0040000
v 0.0039656 0.0062780 0.0040000
v 0.0039656 0.0062780 -0.0040000
v 0.0038636 0.0057648 0.0040000
v 0.0038636 0.0057648 -0.0040000
v 0.0036956 0.0052692 0.0040000
v 0.0036956 0.0052692 -0.0040000
v 0.0034640 0.0048000 0.0040000
v 0.0034640 0.0048000 -0.0040000
v 0.0031736 0.0043648 0.0040000
v 0.0031736 0.0043648 -0.0040000
v 0.0028284 0.0039716 0.0040000
v 0.0028284 0.0039716 -0.0040000
v 0.0024352 0.0036264 0.0040000
v 0.0024352 0.0036264 -0.0040000
v 0.0020000 0.0033360 0.0040000
v 0.0020000 0.0033360 -0.0040000
v 0.0015308 0.0031044 0.0040000
v 0.0015308 0.0031044 -0.0040000
v 0.0010352 0.0029364 0.0040000
v 0.0010352 0.0029364 -0.0040000
v 0.0005220 0.0028344 0.0040000
v 0.0005220 0.0028344 -0.0040000
v 0.0000000 0.0028000 0.0040000
v 0.0000000 0.0028000 -0.0040000
v -0.0005220 0.0028344 0.0040000
v -0.0005220 0.0028344 -0.0040000
v -0.0010352 0.0029364 0.0040000
v -0.0010352 0.0029364 -0.0040000
v -0.0015308 0.0031044 0.0040000
v -0.0015308 0.0031044 -0.0040000
v -0.0020000 0.0033360 0.0040000
v -0.0020000 0.0033360 -0.0040000
v -0.0024352 0.0036264 0.0040000
v -0.0024352 0.0036264 -0.0040000
v -0.0028284 0.0039716 0.0040000
v -0.0028284 0.0039716 -0.0040000
v -0.0031736 0.0043648 0.0040000
v -0.0031736 0.0043648 -0.0040000
v -0.0034640 0.0048000 0.0040000
v -0.0034640 0.0048000 -0.0040000
v -0.0036956 0.0052692 0.0040000
v -0.0036956 0.0052692 -0.0040000
v -0.0038636 0.0057648 0.0040000
v -0.0038636 0.0057648 -0.0040000
v -0.0039656 0.0062780 0.0040000
v -0.0039656 0.0062780 -0.0040000
v -0.0040000 0.0068000 0.0040000
v -0.0040000 0.0068000 -0.0040000
v -0.0039656 0.0073220 0.0040000
v -0.0039656 0.0073220 -0.0040000
v -0.0038636 0.0078352 0.0040000
v -0.0038636 0.0078352 -0.0040000
v -0.0036956 0.0083308 0.0040000
v -0.0036956 0.0083308 -0.0040000
v -0.0034640 0.0088000 0.0040000
v -0.0034640 0.0088000 -0.0040000
v -0.0031736 0.0092352 0.0040000
v -0.0031736 0.0092352 -0.0040000
v -0.0028284 0.0096284 0.0040000
v -0.0028284 0.0096284 -0.0040000
v -0.0024352 0.0099736 0.0040000
v -0.0024352 0.0099736 -0.0040000
v -0.0020000 0.0102640 0.0040000
v -0.0020000 0.0102640 -0.0040000
v -0.0015308 0.0104956 0.0040000
v -0.0015308 0.0104956 -0.0040000
v -0.0010352 0.0106636 0.0040000
v -0.0010352 0.0106636 -0.0040000
v -0.0005220 0.0107656 0.0040000
v -0.0005220 0.0107656 -0.0040000
v 0.0000000 0.0108000 0.0040000
v 0.0000000 0.0108000 -0.0040000
v 0.0005220 0.0107656 0.0040000
v 0.0005220 0.0107656 -0.0040000
v 0.0010352 0.0106636 0.0040000
v 0.0010352 0.0106636 -0.0040000
v 0.0015308 0.0104956 0.0040000
v 0.0015308 0.0104956 -0.0040000
v 0.0020000 0.0102640 0.0040000
v 0.0020000 0.0102640 -0.0040000
v 0.0024352 0.0099736 0.0040000
v 0.0024352 0.0099736 -0.0040000
v 0.0028284 0.0096284 0.0040000
v 0.0028284 0.0096284 -0.0040000
v 0.0031736 0.0092352 0.0040000
v 0.0031736 0.0092352 -0.0040000
v 0.0034640 0.0088000 0.0040000
v 0.0034640 0.0088000 -0.0040000
v 0.0036956 0.0083308 0.0040000
v 0.0036956 0.0083308 -0.0040000
v 0.0038636 0.0078352 0.0040000
v 0.0038636 0.0078352 -0.0040000
v 0.0039656 0.0073220 0.0040000
v 0.0039656 0.0073220 -0.0040000
v 0.0031725 0.0063824 -0.0040000
v 0.0032000 0.0068000 -0.0040000
v 0.0030909 0.0059718 -0.0040000
v 0.0029565 0.0055754 -0.0040000
v 0.0027712 0.0052000 -0.0040000
v 0.0025389 0.0048518 -0.0040000
v 0.0022627 0.0045373 -0.0040000
v 0.0019482 0.0042611 -0.0040000
v 0.0016000 0.0040288 -0.0040000
v 0.0012246 0.0038435 -0.0040000
v 0.0008282 0.0037091 -0.0040000
v 0.0004176 0.0036275 -0.0040000
v 0.0000000 0.0036000 -0.0040000
v -0.0004176 0.0036275 -0.0040000
v -0.0008282 0.0037091 -0.0040000
v -0.0012246 0.0038435 -0.0040000
v -0.0016000 0.0040288 -0.0040000
v -0.0019482 0.0042611 -0.0040000
v -0.0022627 0.0045373 -0.0040000
v -0.0025389 0.0048518 -0.0040000
v -0.0027712 0.0052000 -0.0040000
v -0.0029565 0.0055754 -0.0040000
v -0.0030909 0.0059718 -0.0040000
v -0.0031725 0.0063824 -0.0040000
v -0.0032000 0.0068000 -0.0040000
v -0.0031725 0.0072176 -0.0040000
v -0.0030909 0.0076282 -0.0040000
v -0.0029565 0.0080246 -0.0040000
v -0.0027712 0.0084000 -0.0040000
v -0.0025389 0.0087482 -0.0040000
v -0.0022627 0.0090627 -0.0040000
v -0.0019482 0.0093389 -0.0040000
v -0.0016000 0.0095712 -0.0040000
v -0.0012246 0.0097565 -0.0040000
v -0.0008282 0.0098909 -0.0040000
v -0.0004176 0.0099725 -0.0040000
v 0.0000000 0.0100000 -0.0040000
v 0.0004176 0.0099725 -0.0040000
v 0.0008282 0.0098909 -0.0040000
v 0.0012246 0.0097565 -0.0040000
v 0.0016000 0.0095712 -0.0040000
v 0.0019482 0.0093389 -0.0040000
v 0.0022627 0.0090627 -0.0040000
v 0.0025389 0.0087482 -0.0040000
v 0.0027712 0.0084000 -0.0040000
v 0.0029565 0.0080246 -0.0040000
v 0.0030909 0.0076282 -0.0040000
v 0.0031725 0.0072176 -0.0040000
v -0.0031725 0.0063824 0.0040000
v -0.0032000 0.0068000 0.0040000
v -0.0030909 0.0059718 0.0040000
v -0.0029565 0.0055754 0.0040000
v -0.0027712 0.0052000 0.0040000
v -0.0025389 0.0048518 0.0040000
v -0.0022627 0.0045373 0.0040000
v -0.0019482 0.0042611 0.0040000
v -0.0016000 0.0040288 0.0040000
v -0.0012246 0.0038435 0.0040000
v -0.0008282 0.0037091 0.0040000
v -0.0004176 0.0036275 0.0040000
v 0.0000000 0.0036000 0.0040000
v 0.0004176 0.0036275 0.0040000
v 0.0008282 0.0037091 0.0040000
v 0.0012246 0.0038435 0.0040000
v 0.0016000 0.0040288 0.0040000
v 0.0019482 0.0042611 0.0040000
v 0.0022627 0.0045373 0.0040000
v 0.0025389 0.0048518 0.0040000
v 0.0027712 0.0052000 0.0040000
v 0.0029565 0.0055754 0.0040000
v 0.0030909 0.0059718 0.0040000
v 0.0031725 0.0063824 0.0040000
v 0.0032000 0.0068000 0.0040000
v 0.0031725 0.0072176 0.0040000
v 0.0030909 0.0076282 0.0040000
v 0.0029565 0.0080246 0.0040000
v 0.0027712 0.0084000 0.0040000
v 0.0025389 0.0087482 0.0040000
v 0.0022627 0.0090627 0.0040000
v 0.0019482 0.0093389 0.0040000
v 0.0016000 0.0095712 0.0040000
v 0.0012246 0.0097565 0.0040000
v 0.0008282 0.0098909 0.0040000
v 0.0004176 0.0099725 0.0040000
v 0.0000000 0.0100000 0.0040000
v -0.0004176 0.0099725 0.0040000
v -0.0008282 0.0098909 0.0040000
v -0.0012246 0.0097565 0.0040000
v -0.0016000 0.0095712 0.0040000
v -0.0019482 0.0093389 0.0040000
v -0.0022627 0.0090627 0.0040000
v -0.0025389 0.0087482 0.0040000
v -0.0027712 0.0084000 0.0040000
v -0.0029565 0.0080246 0.0040000
v -0.0030909 0.0076282 0.0040000
v -0.0031725 0.0072176 0.0040000
v -0.0013777 0.0034740 -0.0040000
v -0.0009185 0.0045826 -0.0040000
v 0.0000000 0.0044000 -0.0040000
v 0.0000000 0.0032000 -0.0040000
v -0.0025456 0.0042544 -0.0040000
v -0.0016970 0.0051030 -0.0040000
v -0.0033260 0.0054223 -0.0040000
v -0.0022174 0.0058815 -0.0040000
v -0.0036000 0.0068000 -0.0040000
v -0.0024000 0.0068000 -0.0040000
v -0.0033260 0.0081777 -0.0040000
v -0.0022174 0.0077185 -0.0040000
v -0.0025456 0.0093456 -0.0040000
v -0.0016970 0.0084970 -0.0040000
v -0.0013777 0.0101260 -0.0040000
v -0.0009185 0.0090174 -0.0040000
v 0.0000000 0.0104000 -0.0040000
v 0.0000000 0.0092000 -0.0040000
v 0.0013777 0.0101260 -0.0040000
v 0.0009185 0.0090174 -0.0040000
v 0.0025456 0.0093456 -0.0040000
v 0.0016970 0.0084970 -0.0040000
v 0.0033260 0.0081777 -0.0040000
v 0.0022174 0.0077185 -0.0040000
v 0.0036000 0.0068000 -0.0040000
v 0.0024000 0.0068000 -0.0040000
v 0.0033260 0.0054223 -0.0040000
v 0.0022174 0.0058815 -0.0040000
v 0.0025456 0.0042544 -0.0040000
v 0.0016970 0.0051030 -0.0040000
v 0.0013777 0.0034740 -0.0040000
v 0.0009185 0.0045826 -0.0040000
v 0.0013777 0.0034740 0.0040000
v 0.0009185 0.0045826 0.0040000
v 0.0000000 0.0044000 0.0040000
v 0.0000000 0.0032000 0.0040000
v 0.0025456 0.0042544 0.0040000
v 0.0016970 0.0051030 0.0040000
v 0.0033260 0.0054223 0.0040000
v 0.0022174 0.0058815 0.0040000
v 0.0036000 0.0068000 0.0040000
v 0.0024000 0.0068000 0.0040000
v 0.0033260 0.0081777 0.0040000
v 0.0022174 0.0077185 0.0040000
v 0.0025456 0.0093456 0.0040000
v 0.0016970 0.0084970 0.0040000
v 0.0013777 0.0101260 0.0040000
v 0.0009185 0.0090174 0.0040000
v 0.0000000 0.0104000 0.0040000
v 0.0000000 0.0092000 0.0040000
v -0.0013777 0.0101260 0.0040000
v -0.0009185 0.0090174 0.0040000
v -0.0025456 0.0093456 0.0040000
v -0.0016970 0.0084970 0.0040000
v -0.0033260 0.0081777 0.0040000
v -0.0022174 0.0077185 0.0040000
v -0.0036000 0.0068000 0.0040000
v -0.0024000 0.0068000 0.0040000
v -0.0033260 0.0054223 0.0040000
v -0.0022174 0.0058815 0.0040000
v -0.0025456 0.0042544 0.0040000
v -0.0016970 0.0051030 0.0040000
v -0.0013777 0.0034740 0.0040000
v -0.0009185 0.0045826 0.0040000
v 0.0022409 0.0060000 0.0040000
v 0.0022409 0.0060000 -0.0040000
v 0.0016000 0.0060000 -0.0040000
v 0.0016000 0.0060000 0.0040000
v 0.0010000 0.0058000 -0.0040000
v 0.0010000 0.0058000 0.0040000
v 0.0008000 0.0052000 -0.0040000
v 0.0008000 0.0052000 0.0040000
v 0.0008000 0.0045591 -0.0040000
v 0.0008000 0.0045591 0.0040000
v -0.0014046 0.0049074 0.0040000
v -0.0014046 0.0049074 -0.0040000
v -0.0009303 0.0055908 -0.0040000
v -0.0009303 0.0055908 0.0040000
v -0.0010000 0.0058000 -0.0040000
v -0.0010000 0.0058000 0.0040000
v -0.0012092 0.0058697 0.0040000
v -0.0012092 0.0058697 -0.0040000
v -0.0018926 0.0053954 -0.0040000
v -0.0018926 0.0053954 0.0040000
v -0.0022409 0.0076000 0.0040000
v -0.0022409 0.0076000 -0.0040000
v -0.0016000 0.0076000 -0.0040000
v -0.0016000 0.0076000 0.0040000
v -0.0010000 0.0078000 -0.0040000
v -0.0010000 0.0078000 0.0040000
v -0.0008000 0.0084000 -0.0040000
v -0.0008000 0.0084000 0.0040000
v -0.0008000 0.0090409 -0.0040000
v -0.0008000 0.0090409 0.0040000
v 0.0014046 0.0086926 0.0040000
v 0.0014046 0.0086926 -0.0040000
v 0.0009303 0.0080092 -0.0040000
v 0.0009303 0.0080092 0.0040000
v 0.0010000 0.0078000 -0.0040000
v 0.0010000 0.0078000 0.0040000
v 0.0012092 0.0077303 0.0040000
v 0.0012092 0.0077303 -0.0040000
v 0.0018926 0.0082046 -0.0040000
v 0.0018926 0.0082046 0.0040000
v 0.0016971 0.0051029 0.0040000
v 0.0022174 0.0058816 0.0040000
v 0.0009184 0.0045826 0.0040000
v -0.0016972 0.0051028 0.0040000
v -0.0016971 0.0084971 0.0040000
v -0.0022174 0.0077184 0.0040000
v -0.0009184 0.0090174 0.0040000
v 0.0016971 0.0051029 -0.0040000
v 0.0009184 0.0045826 -0.0040000
v 0.0022174 0.0058816 -0.0040000
v 0.0016972 0.0084972 -0.0040000
v -0.0016971 0.0084971 -0.0040000
v -0.0009184 0.0090174 -0.0040000
v -0.0022174 0.0077184 -0.0040000
f 1 2 3
f 4 5 6
f 7 3 5
f 7 5 8
f 9 7 8
f 9 8 10
f 4 11 5
f 11 12 10
f 13 12 14
f 13 14 15
f 13 15 16
f 13 16 17
f 18 19 14
f 18 14 12
f 19 20 15
f 19 15 14
f 20 21 16
f 20 16 15
f 21 22 17
f 21 17 16
f 19 18 23
f 20 19 23
f 21 20 23
f 22 21 23
f 17 22 24
f 25 17 24
f 26 13 17
f 25 26 17
f 23 27 24
f 22 23 24
f 27 9 28
f 27 28 29
f 27 29 30
f 27 30 24
f 31 28 9
f 10 31 9
f 32 29 28
f 31 32 28
f 33 30 29
f 32 33 29
f 25 24 30
f 33 25 30
f 31 10 26
f 32 31 26
f 33 32 26
f 25 33 26
f 6 2 34
f 6 34 35
f 35 34 18
f 35 18 12
f 36 9 18
f 36 1 3
f 2 1 36
f 2 36 34
f 34 36 18
f 8 5 11
f 11 10 8
f 11 4 6
f 11 6 35
f 35 12 11
f 3 7 36
f 36 7 9
f 37 38 39
f 40 41 42
f 43 39 41
f 43 41 44
f 45 43 44
f 45 44 46
f 40 47 41
f 47 48 46
f 49 48 50
f 49 50 51
f 49 51 52
f 49 52 53
f 54 55 50
f 54 50 48
f 55 56 51
f 55 51 50
f 56 57 52
f 56 52 51
f 57 58 53
f 57 53 52
f 55 54 59
f 56 55 59
f 57 56 59
f 58 57 59
f 53 58 60
f 61 53 60
f 62 49 53
f 61 62 53
f 59 63 60
f 58 59 60
f 63 45 64
f 63 64 65
f 63 65 66
f 63 66 60
f 67 64 45
f 46 67 45
f 68 65 64
f 67 68 64
f 69 66 65
f 68 69 65
f 61 60 66
f 69 61 66
f 67 46 62
f 68 67 62
f 69 68 62
f 61 69 62
f 42 38 70
f 42 70 71
f 71 70 54
f 71 54 48
f 72 45 54
f 72 37 39
f 38 37 72
f 38 72 70
f 70 72 54
f 44 41 47
f 47 46 44
f 47 40 42
f 47 42 71
f 71 48 47
f 39 43 72
f 72 43 45
f 73 74 75
f 76 77 78
f 79 75 77
f 79 77 80
f 81 79 80
f 81 80 82
f 76 83 77
f 83 84 82
f 85 84 86
f 85 86 87
f 85 87 88
f 85 88 89
f 90 91 86
f 90 86 84
f 91 92 87
f 91 87 86
f 92 93 88
f 92 88 87
f 93 94 89
f 93 89 88
f 91 90 95
f 92 91 95
f 93 92 95
f 94 93 95
f 89 94 96
f 97 89 96
f 98 85 89
f 97 98 89
f 95 99 96
f 94 95 96
f 99 81 100
f 99 100 101
f 99 101 102
f 99 102 96
f 103 100 81
f 82 103 81
f 104 101 100
f 103 104 100
f 105 102 101
f 104 105 101
f 97 96 102
f 105 97 102
f 103 82 98
f 104 103 98
f 105 104 98
f 97 105 98
f 78 74 106
f 78 106 107
f 107 106 90
f 107 90 84
f 108 81 90
f 108 73 75
f 74 73 108
f 74 108 106
f 106 108 90
f 80 77 83
f 83 82 80
f 83 76 78
f 83 78 107
f 107 84 83
f 75 79 108
f 108 79 81
f 109 110 111
f 112 113 114
f 115 111 113
f 115 113 116
f 117 115 116
f 117 116 118
f 112 119 113
f 119 120 118
f 121 120 122
f 121 122 123
f 121 123 124
f 121 124 125
f 126 127 122
f 126 122 120
f 127 128 123
f 127 123 122
f 128 129 124
f 128 124 123
f 129 130 125
f 129 125 124
f 127 126 131
f 128 127 131
f 129 128 131
f 130 129 131
f 125 130 132
f 133 125 132
f 134 121 125
f 133 134 125
f 131 135 132
f 130 131 132
f 135 117 136
f 135 136 137
f 135 137 138
f 135 138 132
f 139 136 117
f 118 139 117
f 140 137 136
f 139 140 136
f 141 138 137
f 140 141 137
f 133 132 138
f 141 133 138
f 139 118 134
f 140 139 134
f 141 140 134
f 133 141 134
f 114 110 142
f 114 142 143
f 143 142 126
f 143 126 120
f 144 117 126
f 144 109 111
f 110 109 144
f 110 144 142
f 142 144 126
f 116 113 119
f 119 118 116
f 119 112 114
f 119 114 143
f 143 120 119
f 111 115 144
f 144 115 117
f 145 146 147
f 148 149 150
f 151 147 149
f 151 149 152
f 153 151 152
f 153 152 154
f 148 155 149
f 155 156 154
f 157 156 158
f 157 158 159
f 157 159 160
f 157 160 161
f 162 163 158
f 162 158 156
f 163 164 159
f 163 159 158
f 164 165 160
f 164 160 159
f 165 166 161
f 165 161 160
f 163 162 167
f 164 163 167
f 165 164 167
f 166 165 167
f 161 166 168
f 169 161 168
f 170 157 161
f 169 170 161
f 167 171 168
f 166 167 168
f 171 153 172
f 171 172 173
f 171 173 174
f 171 174 168
f 175 172 153
f 154 175 153
f 176 173 172
f 175 176 172
f 177 174 173
f 176 177 173
f 169 168 174
f 177 169 174
f 175 154 170
f 176 175 170
f 177 176 170
f 169 177 170
f 150 146 178
f 150 178 179
f 179 178 162
f 179 162 156
f 180 153 162
f 180 145 147
f 146 145 180
f 146 180 178
f 178 180 162
f 152 149 155
f 155 154 152
f 155 148 150
f 155 150 179
f 179 156 155
f 147 151 180
f 180 151 153
f 181 182 183
f 184 185 186
f 187 183 185
f 187 185 188
f 189 187 188
f 189 188 190
f 184 191 185
f 191 192 190
f 193 192 194
f 193 194 195
f 193 195 196
f 193 196 197
f 198 199 194
f 198 194 192
f 199 200 195
f 199 195 194
f 200 201 196
f 200 196 195
f 201 202 197
f 201 197 196
f 199 198 203
f 200 199 203
f 201 200 203
f 202 201 203
f 197 202 204
f 205 197 204
f 206 193 197
f 205 206 197
f 203 207 204
f 202 203 204
f 207 189 208
f 207 208 209
f 207 209 210
f 207 210 204
f 211 208 189
f 190 211 189
f 212 209 208
f 211 212 208
f 213 210 209
f 212 213 209
f 205 204 210
f 213 205 210
f 211 190 206
f 212 211 206
f 213 212 206
f 205 213 206
f 186 182 214
f 186 214 215
f 215 214 198
f 215 198 192
f 216 189 198
f 216 181 183
f 182 181 216
f 182 216 214
f 214 216 198
f 188 185 191
f 191 190 188
f 191 184 186
f 191 186 215
f 215 192 191
f 183 187 216
f 216 187 189
f 217 218 219
f 220 221 222
f 223 219 221
f 223 221 224
f 225 223 224
f 225 224 226
f 220 227 221
f 227 228 226
f 229 228 230
f 229 230 231
f 229 231 232
f 229 232 233
f 234 235 230
f 234 230 228
f 235 236 231
f 235 231 230
f 236 237 232
f 236 232 231
f 237 238 233
f 237 233 232
f 235 234 239
f 236 235 239
f 237 236 239
f 238 237 239
f 233 238 240
f 241 233 240
f 242 229 233
f 241 242 233
f 239 243 240
f 238 239 240
f 243 225 244
f 243 244 245
f 243 245 246
f 243 246 240
f 247 244 225
f 226 247 225
f 248 245 244
f 247 248 244
f 249 246 245
f 248 249 245
f 241 240 246
f 249 241 246
f 247 226 242
f 248 247 242
f 249 248 242
f 241 249 242
f 222 218 250
f 222 250 251
f 251 250 234
f 251 234 228
f 252 225 234
f 252 217 219
f 218 217 252
f 218 252 250
f 250 252 234
f 224 221 227
f 227 226 224
f 227 220 222
f 227 222 251
f 251 228 227
f 219 223 252
f 252 223 225
f 253 254 255
f 256 257 258
f 259 255 257
f 259 257 260
f 261 259 260
f 261 260 262
f 256 263 257
f 263 264 262
f 265 264 266
f 265 266 267
f 265 267 268
f 265 268 269
f 270 271 266
f 270 266 264
f 271 272 267
f 271 267 266
f 272 273 268
f 272 268 267
f 273 274 269
f 273 269 268
f 271 270 275
f 272 271 275
f 273 272 275
f 274 273 275
f 269 274 276
f 277 269 276
f 278 265 269
f 277 278 269
f 275 279 276
f 274 275 276
f 279 261 280
f 279 280 281
f 279 281 282
f 279 282 276
f 283 280 261
f 262 283 261
f 284 281 280
f 283 284 280
f 285 282 281
f 284 285 281
f 277 276 282
f 285 277 282
f 283 262 278
f 284 283 278
f 285 284 278
f 277 285 278
f 258 254 286
f 258 286 287
f 287 286 270
f 287 270 264
f 288 261 270
f 288 253 255
f 254 253 288
f 254 288 286
f 286 288 270
f 260 257 263
f 263 262 260
f 263 256 258
f 263 258 287
f 287 264 263
f 255 259 288
f 288 259 261
f 289 290 291
f 292 293 294
f 295 291 293
f 295 293 296
f 297 295 296
f 297 296 298
f 292 299 293
f 299 300 298
f 301 300 302
f 301 302 303
f 301 303 304
f 301 304 305
f 306 307 302
f 306 302 300
f 307 308 303
f 307 303 302
f 308 309 304
f 308 304 303
f 309 310 305
f 309 305 304
f 307 306 311
f 308 307 311
f 309 308 311
f 310 309 311
f 305 310 312
f 313 305 312
f 314 301 305
f 313 314 305
f 311 315 312
f 310 311 312
f 315 297 316
f 315 316 317
f 315 317 318
f 315 318 312
f 319 316 297
f 298 319 297
f 320 317 316
f 319 320 316
f 321 318 317
f 320 321 317
f 313 312 318
f 321 313 318
f 319 298 314
f 320 319 314
f 321 320 314
f 313 321 314
f 294 290 322
f 294 322 323
f 323 322 306
f 323 306 300
f 324 297 306
f 324 289 291
f 290 289 324
f 290 324 322
f 322 324 306
f 296 293 299
f 299 298 296
f 299 292 294
f 299 294 323
f 323 300 299
f 291 295 324
f 324 295 297
f 325 326 327
f 328 329 330
f 331 327 329
f 331 329 332
f 333 331 332
f 333 332 334
f 328 335 329
f 335 336 334
f 337 336 338
f 337 338 339
f 337 339 340
f 337 340 341
f 342 343 338
f 342 338 336
f 343 344 339
f 343 339 338
f 344 345 340
f 344 340 339
f 345 346 341
f 345 341 340
f 343 342 347
f 344 343 347
f 345 344 347
f 346 345 347
f 341 346 348
f 349 341 348
f 350 337 341
f 349 350 341
f 347 351 348
f 346 347 348
f 351 333 352
f 351 352 353
f 351 353 354
f 351 354 348
f 355 352 333
f 334 355 333
f 356 353 352
f 355 356 352
f 357 354 353
f 356 357 353
f 349 348 354
f 357 349 354
f 355 334 350
f 356 355 350
f 357 356 350
f 349 357 350
f 330 326 358
f 330 358 359
f 359 358 342
f 359 342 336
f 360 333 342
f 360 325 327
f 326 325 360
f 326 360 358
f 358 360 342
f 332 329 335
f 335 334 332
f 335 328 330
f 335 330 359
f 359 336 335
f 327 331 360
f 360 331 333
f 361 362 363
f 364 365 366
f 367 363 365
f 367 365 368
f 369 367 368
f 369 368 370
f 364 371 365
f 371 372 370
f 373 372 374
f 373 374 375
f 373 375 376
f 373 376 377
f 378 379 374
f 378 374 372
f 379 380 375
f 379 375 374
f 380 381 376
f 380 376 375
f 381 382 377
f 381 377 376
f 379 378 383
f 380 379 383
f 381 380 383
f 382 381 383
f 377 382 384
f 385 377 384
f 386 373 377
f 385 386 377
f 383 387 384
f 382 383 384
f 387 369 388
f 387 388 389
f 387 389 390
f 387 390 384
f 391 388 369
f 370 391 369
f 392 389 388
f 391 392 388
f 393 390 389
f 392 393 389
f 385 384 390
f 393 385 390
f 391 370 386
f 392 391 386
f 393 392 386
f 385 393 386
f 366 362 394
f 366 394 395
f 395 394 378
f 395 378 372
f 396 369 378
f 396 361 363
f 362 361 396
f 362 396 394
f 394 396 378
f 368 365 371
f 371 370 368
f 371 364 366
f 371 366 395
f 395 372 371
f 363 367 396
f 396 367 369
f 397 398 399
f 400 401 402
f 403 399 401
f 403 401 404
f 405 403 404
f 405 404 406
f 400 407 401
f 407 408 406
f 409 408 410
f 409 410 411
f 409 411 412
f 409 412 413
f 414 415 410
f 414 410 408
f 415 416 411
f 415 411 410
f 416 417 412
f 416 412 411
f 417 418 413
f 417 413 412
f 415 414 419
f 416 415 419
f 417 416 419
f 418 417 419
f 413 418 420
f 421 413 420
f 422 409 413
f 421 422 413
f 419 423 420
f 418 419 420
f 423 405 424
f 423 424 425
f 423 425 426
f 423 426 420
f 427 424 405
f 406 427 405
f 428 425 424
f 427 428 424
f 429 426 425
f 428 429 425
f 421 420 426
f 429 421 426
f 427 406 422
f 428 427 422
f 429 428 422
f 421 429 422
f 402 398 430
f 402 430 431
f 431 430 414
f 431 414 408
f 432 405 414
f 432 397 399
f 398 397 432
f 398 432 430
f 430 432 414
f 404 401 407
f 407 406 404
f 407 400 402
f 407 402 431
f 431 408 407
f 399 403 432
f 432 403 405
f 433 434 435
f 436 433 435
f 436 435 437
f 438 436 437
f 438 437 439
f 440 438 439
f 440 439 441
f 442 440 441
f 442 441 443
f 444 442 443
f 444 443 445
f 446 444 445
f 446 445 447
f 448 446 447
f 448 447 449
f 450 448 449
f 450 449 451
f 452 450 451
f 452 451 453
f 454 452 453
f 454 453 455
f 456 454 455
f 456 455 457
f 458 456 457
f 458 457 459
f 460 458 459
f 460 459 461
f 462 460 461
f 462 461 463
f 464 462 463
f 464 463 465
f 466 464 465
f 466 465 467
f 468 466 467
f 468 467 469
f 470 468 469
f 470 469 471
f 472 470 471
f 472 471 473
f 474 472 473
f 474 473 475
f 476 474 475
f 476 475 477
f 478 476 477
f 478 477 479
f 480 478 479
f 480 479 481
f 482 480 481
f 482 481 483
f 484 482 483
f 484 483 485
f 486 484 485
f 486 485 487
f 488 486 487
f 488 487 489
f 490 488 489
f 490 489 491
f 492 490 491
f 492 491 493
f 494 492 493
f 494 493 495
f 496 494 495
f 496 495 497
f 498 496 497
f 498 497 499
f 500 498 499
f 500 499 501
f 502 500 501
f 502 501 503
f 504 502 503
f 504 503 505
f 506 504 505
f 506 505 507
f 508 506 507
f 508 507 509
f 510 508 509
f 510 509 511
f 512 510 511
f 512 511 513
f 514 512 513
f 514 513 515
f 516 514 515
f 516 515 517
f 518 516 517
f 518 517 519
f 520 518 519
f 520 519 521
f 522 520 521
f 522 521 523
f 524 522 523
f 524 523 525
f 526 524 525
f 526 525 527
f 528 526 527
f 528 527 434
f 433 528 434
f 433 436 529
f 433 529 530
f 436 438 531
f 436 531 529
f 438 440 532
f 438 532 531
f 440 442 533
f 440 533 532
f 442 444 534
f 442 534 533
f 444 446 535
f 444 535 534
f 446 448 536
f 446 536 535
f 448 450 537
f 448 537 536
f 450 452 538
f 450 538 537
f 452 454 539
f 452 539 538
f 454 456 540
f 454 540 539
f 456 458 541
f 456 541 540
f 458 460 542
f 458 542 541
f 460 462 543
f 460 543 542
f 462 464 544
f 462 544 543
f 464 466 545
f 464 545 544
f 466 468 546
f 466 546 545
f 468 470 547
f 468 547 546
f 470 472 548
f 470 548 547
f 472 474 549
f 472 549 548
f 474 476 550
f 474 550 549
f 476 478 551
f 476 551 550
f 478 480 552
f 478 552 551
f 480 482 553
f 480 553 552
f 482 484 554
f 482 554 553
f 484 486 555
f 484 555 554
f 486 488 556
f 486 556 555
f 488 490 557
f 488 557 556
f 490 492 558
f 490 558 557
f 492 494 559
f 492 559 558
f 494 496 560
f 494 560 559
f 496 498 561
f 496 561 560
f 498 500 562
f 498 562 561
f 500 502 563
f 500 563 562
f 502 504 564
f 502 564 563
f 504 506 565
f 504 565 564
f 506 508 566
f 506 566 565
f 508 510 567
f 508 567 566
f 510 512 568
f 510 568 567
f 512 514 569
f 512 569 568
f 514 516 570
f 514 570 569
f 516 518 571
f 516 571 570
f 518 520 572
f 518 572 571
f 520 522 573
f 520 573 572
f 522 524 574
f 522 574 573
f 524 526 575
f 524 575 574
f 526 528 576
f 526 576 575
f 528 433 530
f 528 530 576
f 481 479 577
f 481 577 578
f 479 477 579
f 479 579 577
f 477 475 580
f 477 580 579
f 475 473 581
f 475 581 580
f 473 471 582
f 473 582 581
f 471 469 583
f 471 583 582
f 469 467 584
f 469 584 583
f 467 465 585
f 467 585 584
f 465 463 586
f 465 586 585
f 463 461 587
f 463 587 586
f 461 459 588
f 461 588 587
f 459 457 589
f 459 589 588
f 457 455 590
f 457 590 589
f 455 453 591
f 455 591 590
f 453 451 592
f 453 592 591
f 451 449 593
f 451 593 592
f 449 447 594
f 449 594 593
f 447 445 595
f 447 595 594
f 445 443 596
f 445 596 595
f 443 441 597
f 443 597 596
f 441 439 598
f 441 598 597
f 439 437 599
f 439 599 598
f 437 435 600
f 437 600 599
f 435 434 601
f 435 601 600
f 434 527 602
f 434 602 601
f 527 525 603
f 527 603 602
f 525 523 604
f 525 604 603
f 523 521 605
f 523 605 604
f 521 519 606
f 521 606 605
f 519 517 607
f 519 607 606
f 517 515 608
f 517 608 607
f 515 513 609
f 515 609 608
f 513 511 610
f 513 610 609
f 511 509 611
f 511 611 610
f 509 507 612
f 509 612 611
f 507 505 613
f 507 613 612
f 505 503 614
f 505 614 613
f 503 501 615
f 503 615 614
f 501 499 616
f 501 616 615
f 499 497 617
f 499 617 616
f 497 495 618
f 497 618 617
f 495 493 619
f 495 619 618
f 493 491 620
f 493 620 619
f 491 489 621
f 491 621 620
f 489 487 622
f 489 622 621
f 487 485 623
f 487 623 622
f 485 483 624
f 485 624 623
f 483 481 578
f 483 578 624
f 625 626 627
f 625 627 628
f 629 630 626
f 629 626 625
f 631 632 630
f 631 630 629
f 633 634 632
f 633 632 631
f 635 636 634
f 635 634 633
f 637 638 636
f 637 636 635
f 639 640 638
f 639 638 637
f 641 642 640
f 641 640 639
f 643 644 642
f 643 642 641
f 645 646 644
f 645 644 643
f 647 648 646
f 647 646 645
f 649 650 648
f 649 648 647
f 651 652 650
f 651 650 649
f 653 654 652
f 653 652 651
f 655 656 654
f 655 654 653
f 628 627 656
f 628 656 655
f 657 658 659
f 657 659 660
f 661 662 658
f 661 658 657
f 663 664 662
f 663 662 661
f 665 666 664
f 665 664 663
f 667 668 666
f 667 666 665
f 669 670 668
f 669 668 667
f 671 672 670
f 671 670 669
f 673 674 672
f 673 672 671
f 675 676 674
f 675 674 673
f 677 678 676
f 677 676 675
f 679 680 678
f 679 678 677
f 681 682 680
f 681 680 679
f 683 684 682
f 683 682 681
f 685 686 684
f 685 684 683
f 687 688 686
f 687 686 685
f 660 659 688
f 660 688 687
f 689 666 650
f 690 689 650
f 689 690 691
f 692 689 691
f 693 694 692
f 691 693 692
f 693 695 696
f 694 693 696
f 695 697 698
f 696 695 698
f 627 659 698
f 697 627 698
f 688 659 627
f 626 688 627
f 699 688 626
f 700 699 626
f 701 702 699
f 700 701 699
f 701 703 704
f 702 701 704
f 705 704 703
f 706 705 703
f 705 706 707
f 708 705 707
f 684 708 707
f 632 684 707
f 682 684 632
f 634 682 632
f 709 682 634
f 710 709 634
f 709 710 711
f 712 709 711
f 713 714 712
f 711 713 712
f 713 715 716
f 714 713 716
f 715 717 718
f 716 715 718
f 642 674 718
f 717 642 718
f 672 674 642
f 644 672 642
f 719 672 644
f 720 719 644
f 721 722 719
f 720 721 719
f 721 723 724
f 722 721 724
f 725 724 723
f 726 725 723
f 725 726 727
f 728 725 727
f 668 728 727
f 648 668 727
f 666 668 648
f 650 666 648
f 729 730 694
f 731 729 694
f 689 692 694
f 730 689 694
f 731 694 696
f 698 731 696
f 704 705 708
f 732 704 708
f 686 699 702
f 704 686 702
f 733 734 714
f 735 733 714
f 709 712 714
f 734 709 714
f 735 714 716
f 718 735 716
f 724 725 728
f 670 724 728
f 670 719 722
f 724 670 722
f 736 737 693
f 738 736 693
f 697 695 693
f 737 697 693
f 738 693 691
f 690 738 691
f 723 721 720
f 739 723 720
f 646 727 726
f 723 646 726
f 740 741 713
f 742 740 713
f 717 715 713
f 741 717 713
f 742 713 711
f 710 742 711
f 703 701 700
f 630 703 700
f 630 707 706
f 703 630 706
