# Botball Lab: metres, +Y up, centred XZ, base Y=0
s off
v -0.0006000 0.0052246 0.0012435
v -0.0006000 0.0049185 0.0019826
v -0.0006000 0.0040000 0.0018000
v -0.0006000 0.0040000 0.0010000
v -0.0006000 0.0062627 0.0019373
v -0.0006000 0.0056970 0.0025030
v -0.0006000 0.0069565 0.0029754
v -0.0006000 0.0062174 0.0032815
v -0.0006000 0.0072000 0.0042000
v -0.0006000 0.0064000 0.0042000
v -0.0006000 0.0069565 0.0054246
v -0.0006000 0.0062174 0.0051185
v -0.0006000 0.0062627 0.0064627
v -0.0006000 0.0056970 0.0058970
v -0.0006000 0.0052246 0.0071565
v -0.0006000 0.0049185 0.0064174
v -0.0006000 0.0040000 0.0074000
v -0.0006000 0.0040000 0.0066000
v -0.0006000 0.0027754 0.0071565
v -0.0006000 0.0030815 0.0064174
v -0.0006000 0.0017373 0.0064627
v -0.0006000 0.0023030 0.0058970
v -0.0006000 0.0010435 0.0054246
v -0.0006000 0.0017826 0.0051185
v -0.0006000 0.0008000 0.0042000
v -0.0006000 0.0016000 0.0042000
v -0.0006000 0.0010435 0.0029754
v -0.0006000 0.0017826 0.0032815
v -0.0006000 0.0017373 0.0019373
v -0.0006000 0.0023030 0.0025030
v -0.0006000 0.0027754 0.0012435
v -0.0006000 0.0030815 0.0019826
v -0.0006000 0.0040000 0.0006000
v -0.0006000 0.0053777 0.0008740
v -0.0006000 0.0065456 0.0016544
v -0.0006000 0.0073260 0.0028223
v -0.0006000 0.0076000 0.0042000
v -0.0006000 0.0073260 0.0055777
v -0.0006000 0.0065456 0.0067456
v -0.0006000 0.0053777 0.0075260
v -0.0006000 0.0040000 0.0078000
v -0.0006000 0.0076000 0.0006000
v 0.0002000 0.0027754 0.0071565
v 0.0002000 0.0040000 0.0074000
v 0.0002000 0.0017373 0.0064627
v 0.0002000 0.0010435 0.0054246
v 0.0002000 0.0008000 0.0042000
v 0.0002000 0.0010435 0.0029754
v 0.0002000 0.0017373 0.0019373
v 0.0002000 0.0027754 0.0012435
v 0.0002000 0.0040000 0.0010000
v -0.0074000 0.0004000 0.0006000
v -0.0074000 0.0004000 0.0042000
v -0.0074000 0.0006740 0.0028223
v -0.0074000 0.0014544 0.0016544
v -0.0074000 0.0026223 0.0008740
v -0.0074000 0.0040000 0.0006000
v -0.0074000 0.0076000 0.0006000
v -0.0074000 0.0053777 0.0008740
v -0.0074000 0.0065456 0.0016544
v -0.0074000 0.0073260 0.0028223
v -0.0074000 0.0076000 0.0042000
v -0.0002000 0.0006740 0.0028223
v -0.0002000 0.0004000 0.0042000
v -0.0002000 0.0004000 0.0006000
v -0.0002000 0.0014544 0.0016544
v -0.0002000 0.0026223 0.0008740
v -0.0002000 0.0040000 0.0006000
v 0.0028223 0.0006740 -0.0074000
v 0.0042000 0.0004000 -0.0074000
v 0.0006000 0.0004000 -0.0074000
v 0.0016544 0.0014544 -0.0074000
v 0.0008740 0.0026223 -0.0074000
v 0.0006000 0.0040000 -0.0074000
v 0.0008740 0.0053777 -0.0074000
v 0.0006000 0.0076000 -0.0074000
v 0.0016544 0.0065456 -0.0074000
v 0.0028223 0.0073260 -0.0074000
v 0.0042000 0.0076000 -0.0074000
v 0.0006000 0.0004000 -0.0002000
v 0.0042000 0.0004000 -0.0002000
v 0.0028223 0.0006740 -0.0002000
v 0.0016544 0.0014544 -0.0002000
v 0.0008740 0.0026223 -0.0002000
v 0.0006000 0.0040000 -0.0002000
v -0.0070000 0.0040000 0.0018000
v -0.0070000 0.0049185 0.0019826
v -0.0070000 0.0052246 0.0012435
v -0.0070000 0.0040000 0.0010000
v -0.0070000 0.0056970 0.0025030
v -0.0070000 0.0062627 0.0019373
v -0.0070000 0.0062174 0.0032815
v -0.0070000 0.0069565 0.0029754
v -0.0070000 0.0064000 0.0042000
v -0.0070000 0.0072000 0.0042000
v -0.0070000 0.0062174 0.0051185
v -0.0070000 0.0069565 0.0054246
v -0.0070000 0.0056970 0.0058970
v -0.0070000 0.0062627 0.0064627
v -0.0070000 0.0049185 0.0064174
v -0.0070000 0.0052246 0.0071565
v -0.0070000 0.0040000 0.0066000
v -0.0070000 0.0040000 0.0074000
v -0.0070000 0.0030815 0.0064174
v -0.0070000 0.0027754 0.0071565
v -0.0070000 0.0023030 0.0058970
v -0.0070000 0.0017373 0.0064627
v -0.0070000 0.0017826 0.0051185
v -0.0070000 0.0010435 0.0054246
v -0.0070000 0.0016000 0.0042000
v -0.0070000 0.0008000 0.0042000
v -0.0070000 0.0017826 0.0032815
v -0.0070000 0.0010435 0.0029754
v -0.0070000 0.0023030 0.0025030
v -0.0070000 0.0017373 0.0019373
v -0.0070000 0.0030815 0.0019826
v -0.0070000 0.0027754 0.0012435
v -0.0078000 0.0010435 0.0029754
v -0.0078000 0.0008000 0.0042000
v -0.0078000 0.0017373 0.0019373
v -0.0078000 0.0027754 0.0012435
v -0.0078000 0.0040000 0.0010000
v -0.0078000 0.0052246 0.0012435
v -0.0078000 0.0062627 0.0019373
v -0.0078000 0.0069565 0.0029754
v -0.0078000 0.0072000 0.0042000
v -0.0078000 0.0069565 0.0054246
v -0.0078000 0.0062627 0.0064627
v -0.0078000 0.0052246 0.0071565
v -0.0078000 0.0040000 0.0074000
v -0.0078000 0.0027754 0.0071565
v -0.0078000 0.0017373 0.0064627
v -0.0078000 0.0010435 0.0054246
v -0.0078000 0.0006740 0.0028223
v -0.0078000 0.0004000 0.0042000
v -0.0078000 0.0014544 0.0016544
v -0.0078000 0.0026223 0.0008740
v -0.0078000 0.0040000 0.0006000
v -0.0078000 0.0053777 0.0008740
v -0.0078000 0.0065456 0.0016544
v -0.0078000 0.0073260 0.0028223
v -0.0078000 0.0076000 0.0042000
v -0.0078000 0.0073260 0.0055777
v -0.0078000 0.0065456 0.0067456
v -0.0078000 0.0053777 0.0075260
v -0.0078000 0.0040000 0.0078000
v -0.0078000 0.0026223 0.0075260
v -0.0078000 0.0014544 0.0067456
v -0.0078000 0.0006740 0.0055777
v 0.0002000 0.0040000 0.0078000
v 0.0002000 0.0026223 0.0075260
v 0.0002000 0.0014544 0.0067456
v 0.0002000 0.0006740 0.0055777
v 0.0002000 0.0004000 0.0042000
v 0.0002000 0.0006740 0.0028223
v 0.0002000 0.0014544 0.0016544
v 0.0002000 0.0026223 0.0008740
v 0.0002000 0.0040000 0.0006000
v -0.0074000 0.0073260 0.0055777
v -0.0074000 0.0065456 0.0067456
v -0.0074000 0.0053777 0.0075260
v -0.0074000 0.0040000 0.0078000
v -0.0074000 0.0026223 0.0075260
v -0.0074000 0.0014544 0.0067456
v -0.0074000 0.0006740 0.0055777
v -0.0006000 0.0026223 0.0075260
v -0.0006000 0.0014544 0.0067456
v -0.0006000 0.0006740 0.0055777
v -0.0006000 0.0004000 0.0042000
v -0.0002000 0.0026223 0.0075260
v -0.0002000 0.0040000 0.0078000
v -0.0002000 0.0014544 0.0067456
v -0.0002000 0.0006740 0.0055777
v 0.0055777 0.0073260 -0.0006000
v 0.0055777 0.0073260 -0.0074000
v 0.0042000 0.0076000 -0.0006000
v 0.0067456 0.0065456 -0.0006000
v 0.0067456 0.0065456 -0.0074000
v 0.0075260 0.0053777 -0.0006000
v 0.0075260 0.0053777 -0.0074000
v 0.0078000 0.0040000 -0.0006000
v 0.0078000 0.0040000 -0.0074000
v 0.0075260 0.0026223 -0.0006000
v 0.0075260 0.0026223 -0.0074000
v 0.0067456 0.0014544 -0.0006000
v 0.0067456 0.0014544 -0.0074000
v 0.0055777 0.0006740 -0.0006000
v 0.0055777 0.0006740 -0.0074000
v 0.0042000 0.0004000 -0.0006000
v 0.0075260 0.0026223 0.0002000
v 0.0075260 0.0026223 -0.0002000
v 0.0078000 0.0040000 -0.0002000
v 0.0078000 0.0040000 0.0002000
v 0.0067456 0.0014544 0.0002000
v 0.0067456 0.0014544 -0.0002000
v 0.0055777 0.0006740 0.0002000
v 0.0055777 0.0006740 -0.0002000
v 0.0042000 0.0004000 0.0002000
v 0.0028223 0.0006740 0.0002000
v 0.0016544 0.0014544 0.0002000
v 0.0008740 0.0026223 0.0002000
v 0.0006000 0.0040000 0.0002000
v 0.0042000 0.0016000 -0.0006000
v 0.0032815 0.0017826 -0.0006000
v 0.0029754 0.0010435 -0.0006000
v 0.0042000 0.0008000 -0.0006000
v 0.0025030 0.0023030 -0.0006000
v 0.0019373 0.0017373 -0.0006000
v 0.0019826 0.0030815 -0.0006000
v 0.0012435 0.0027754 -0.0006000
v 0.0018000 0.0040000 -0.0006000
v 0.0010000 0.0040000 -0.0006000
v 0.0019826 0.0049185 -0.0006000
v 0.0012435 0.0052246 -0.0006000
v 0.0025030 0.0056970 -0.0006000
v 0.0019373 0.0062627 -0.0006000
v 0.0032815 0.0062174 -0.0006000
v 0.0029754 0.0069565 -0.0006000
v 0.0042000 0.0064000 -0.0006000
v 0.0042000 0.0072000 -0.0006000
v 0.0051185 0.0062174 -0.0006000
v 0.0054246 0.0069565 -0.0006000
v 0.0058970 0.0056970 -0.0006000
v 0.0064627 0.0062627 -0.0006000
v 0.0064174 0.0049185 -0.0006000
v 0.0071565 0.0052246 -0.0006000
v 0.0066000 0.0040000 -0.0006000
v 0.0074000 0.0040000 -0.0006000
v 0.0064174 0.0030815 -0.0006000
v 0.0071565 0.0027754 -0.0006000
v 0.0058970 0.0023030 -0.0006000
v 0.0064627 0.0017373 -0.0006000
v 0.0051185 0.0017826 -0.0006000
v 0.0054246 0.0010435 -0.0006000
v 0.0008740 0.0053777 -0.0006000
v 0.0006000 0.0040000 -0.0006000
v 0.0016544 0.0065456 -0.0006000
v 0.0028223 0.0073260 -0.0006000
v 0.0006000 0.0076000 -0.0006000
v 0.0071565 0.0027754 0.0002000
v 0.0074000 0.0040000 0.0002000
v 0.0064627 0.0017373 0.0002000
v 0.0054246 0.0010435 0.0002000
v 0.0042000 0.0008000 0.0002000
v 0.0029754 0.0010435 0.0002000
v 0.0019373 0.0017373 0.0002000
v 0.0012435 0.0027754 0.0002000
v 0.0010000 0.0040000 0.0002000
v 0.0012435 0.0052246 -0.0070000
v 0.0019826 0.0049185 -0.0070000
v 0.0018000 0.0040000 -0.0070000
v 0.0010000 0.0040000 -0.0070000
v 0.0019373 0.0062627 -0.0070000
v 0.0025030 0.0056970 -0.0070000
v 0.0029754 0.0069565 -0.0070000
v 0.0032815 0.0062174 -0.0070000
v 0.0042000 0.0072000 -0.0070000
v 0.0042000 0.0064000 -0.0070000
v 0.0054246 0.0069565 -0.0070000
v 0.0051185 0.0062174 -0.0070000
v 0.0064627 0.0062627 -0.0070000
v 0.0058970 0.0056970 -0.0070000
v 0.0071565 0.0052246 -0.0070000
v 0.0064174 0.0049185 -0.0070000
v 0.0074000 0.0040000 -0.0070000
v 0.0066000 0.0040000 -0.0070000
v 0.0071565 0.0027754 -0.0070000
v 0.0064174 0.0030815 -0.0070000
v 0.0064627 0.0017373 -0.0070000
v 0.0058970 0.0023030 -0.0070000
v 0.0054246 0.0010435 -0.0070000
v 0.0051185 0.0017826 -0.0070000
v 0.0042000 0.0008000 -0.0070000
v 0.0042000 0.0016000 -0.0070000
v 0.0029754 0.0010435 -0.0070000
v 0.0032815 0.0017826 -0.0070000
v 0.0019373 0.0017373 -0.0070000
v 0.0025030 0.0023030 -0.0070000
v 0.0012435 0.0027754 -0.0070000
v 0.0019826 0.0030815 -0.0070000
v 0.0029754 0.0010435 -0.0078000
v 0.0042000 0.0008000 -0.0078000
v 0.0019373 0.0017373 -0.0078000
v 0.0012435 0.0027754 -0.0078000
v 0.0010000 0.0040000 -0.0078000
v 0.0012435 0.0052246 -0.0078000
v 0.0019373 0.0062627 -0.0078000
v 0.0029754 0.0069565 -0.0078000
v 0.0042000 0.0072000 -0.0078000
v 0.0054246 0.0069565 -0.0078000
v 0.0064627 0.0062627 -0.0078000
v 0.0071565 0.0052246 -0.0078000
v 0.0074000 0.0040000 -0.0078000
v 0.0071565 0.0027754 -0.0078000
v 0.0064627 0.0017373 -0.0078000
v 0.0054246 0.0010435 -0.0078000
v 0.0042000 0.0004000 -0.0078000
v 0.0028223 0.0006740 -0.0078000
v 0.0016544 0.0014544 -0.0078000
v 0.0008740 0.0026223 -0.0078000
v 0.0006000 0.0040000 -0.0078000
v 0.0008740 0.0053777 -0.0078000
v 0.0016544 0.0065456 -0.0078000
v 0.0028223 0.0073260 -0.0078000
v 0.0042000 0.0076000 -0.0078000
v 0.0055777 0.0073260 -0.0078000
v 0.0067456 0.0065456 -0.0078000
v 0.0075260 0.0053777 -0.0078000
v 0.0078000 0.0040000 -0.0078000
v 0.0075260 0.0026223 -0.0078000
v 0.0067456 0.0014544 -0.0078000
v 0.0055777 0.0006740 -0.0078000
v -0.0006000 0.0076000 0.0010000
v -0.0006000 0.0058000 0.0010000
v -0.0002000 0.0058000 0.0010000
v -0.0002000 0.0076000 0.0010000
v -0.0002000 0.0004000 -0.0002000
v -0.0002000 0.0076000 -0.0002000
v -0.0002000 0.0076000 0.0006000
v 0.0006000 0.0076000 -0.0002000
v 0.0010000 0.0058000 -0.0002000
v 0.0010000 0.0076000 -0.0002000
v 0.0010000 0.0058000 -0.0006000
v 0.0010000 0.0076000 -0.0006000
v -0.0063452 0.0076000 -0.0012548
v -0.0063452 0.0076000 0.0010000
v -0.0063452 0.0046000 0.0010000
v -0.0063452 0.0046000 -0.0012548
v -0.0063452 0.0034000 -0.0012548
v -0.0063452 0.0034000 0.0010000
v -0.0063452 0.0004000 0.0010000
v -0.0063452 0.0004000 -0.0012548
v -0.0063452 0.0072000 0.0042000
v -0.0063452 0.0072000 0.0010000
v -0.0063452 0.0076000 0.0042000
v -0.0063452 0.0004000 0.0042000
v -0.0063452 0.0008000 0.0010000
v -0.0063452 0.0008000 0.0042000
v -0.0018000 0.0076000 0.0042000
v -0.0018000 0.0076000 0.0010000
v -0.0018000 0.0072000 0.0010000
v -0.0018000 0.0072000 0.0042000
v -0.0018000 0.0008000 0.0042000
v -0.0018000 0.0008000 0.0010000
v -0.0018000 0.0004000 0.0010000
v -0.0018000 0.0004000 0.0042000
v 0.0042000 0.0072000 -0.0018000
v 0.0010000 0.0072000 -0.0018000
v 0.0010000 0.0076000 -0.0018000
v 0.0042000 0.0076000 -0.0018000
v 0.0042000 0.0004000 -0.0018000
v 0.0010000 0.0004000 -0.0018000
v 0.0010000 0.0008000 -0.0018000
v 0.0042000 0.0008000 -0.0018000
v 0.0042000 0.0076000 -0.0063452
v 0.0010000 0.0076000 -0.0063452
v 0.0010000 0.0072000 -0.0063452
v 0.0042000 0.0072000 -0.0063452
v 0.0042000 0.0008000 -0.0063452
v 0.0010000 0.0008000 -0.0063452
v 0.0010000 0.0004000 -0.0063452
v 0.0042000 0.0004000 -0.0063452
v -0.0012548 0.0004000 -0.0063452
v 0.0010000 0.0034000 -0.0063452
v -0.0012548 0.0034000 -0.0063452
v -0.0012548 0.0046000 -0.0063452
v 0.0010000 0.0046000 -0.0063452
v -0.0012548 0.0076000 -0.0063452
v -0.0074000 0.0076000 -0.0038000
v -0.0074000 0.0004000 -0.0038000
v -0.0038000 0.0076000 -0.0074000
v -0.0038000 0.0004000 -0.0074000
v -0.0050246 0.0072000 -0.0067565
v -0.0047185 0.0072000 -0.0060174
v -0.0038000 0.0072000 -0.0062000
v -0.0038000 0.0072000 -0.0070000
v -0.0060627 0.0072000 -0.0060627
v -0.0054970 0.0072000 -0.0054970
v -0.0067565 0.0072000 -0.0050246
v -0.0060174 0.0072000 -0.0047185
v -0.0070000 0.0072000 -0.0038000
v -0.0062000 0.0072000 -0.0038000
v -0.0067565 0.0072000 -0.0025754
v -0.0060174 0.0072000 -0.0028815
v -0.0060627 0.0072000 -0.0015373
v -0.0054970 0.0072000 -0.0021030
v -0.0050246 0.0072000 -0.0008435
v -0.0047185 0.0072000 -0.0015826
v -0.0038000 0.0072000 -0.0006000
v -0.0038000 0.0072000 -0.0014000
v -0.0025754 0.0072000 -0.0008435
v -0.0028815 0.0072000 -0.0015826
v -0.0015373 0.0072000 -0.0015373
v -0.0021030 0.0072000 -0.0021030
v -0.0008435 0.0072000 -0.0025754
v -0.0015826 0.0072000 -0.0028815
v -0.0006000 0.0072000 -0.0038000
v -0.0014000 0.0072000 -0.0038000
v -0.0008435 0.0072000 -0.0050246
v -0.0015826 0.0072000 -0.0047185
v -0.0015373 0.0072000 -0.0060627
v -0.0021030 0.0072000 -0.0054970
v -0.0025754 0.0072000 -0.0067565
v -0.0028815 0.0072000 -0.0060174
v -0.0008435 0.0080000 -0.0050246
v -0.0006000 0.0080000 -0.0038000
v -0.0015373 0.0080000 -0.0060627
v -0.0025754 0.0080000 -0.0067565
v -0.0038000 0.0080000 -0.0070000
v -0.0050246 0.0080000 -0.0067565
v -0.0060627 0.0080000 -0.0060627
v -0.0067565 0.0080000 -0.0050246
v -0.0070000 0.0080000 -0.0038000
v -0.0067565 0.0080000 -0.0025754
v -0.0060627 0.0080000 -0.0015373
v -0.0050246 0.0080000 -0.0008435
v -0.0038000 0.0080000 -0.0006000
v -0.0025754 0.0080000 -0.0008435
v -0.0015373 0.0080000 -0.0015373
v -0.0008435 0.0080000 -0.0025754
v -0.0038000 0.0008000 -0.0062000
v -0.0047185 0.0008000 -0.0060174
v -0.0050246 0.0008000 -0.0067565
v -0.0038000 0.0008000 -0.0070000
v -0.0054970 0.0008000 -0.0054970
v -0.0060627 0.0008000 -0.0060627
v -0.0060174 0.0008000 -0.0047185
v -0.0067565 0.0008000 -0.0050246
v -0.0062000 0.0008000 -0.0038000
v -0.0070000 0.0008000 -0.0038000
v -0.0060174 0.0008000 -0.0028815
v -0.0067565 0.0008000 -0.0025754
v -0.0054970 0.0008000 -0.0021030
v -0.0060627 0.0008000 -0.0015373
v -0.0047185 0.0008000 -0.0015826
v -0.0050246 0.0008000 -0.0008435
v -0.0038000 0.0008000 -0.0014000
v -0.0038000 0.0008000 -0.0006000
v -0.0028815 0.0008000 -0.0015826
v -0.0025754 0.0008000 -0.0008435
v -0.0021030 0.0008000 -0.0021030
v -0.0015373 0.0008000 -0.0015373
v -0.0015826 0.0008000 -0.0028815
v -0.0008435 0.0008000 -0.0025754
v -0.0014000 0.0008000 -0.0038000
v -0.0006000 0.0008000 -0.0038000
v -0.0015826 0.0008000 -0.0047185
v -0.0008435 0.0008000 -0.0050246
v -0.0021030 0.0008000 -0.0054970
v -0.0015373 0.0008000 -0.0060627
v -0.0028815 0.0008000 -0.0060174
v -0.0025754 0.0008000 -0.0067565
v -0.0008435 0.0000000 -0.0050246
v -0.0006000 0.0000000 -0.0038000
v -0.0015373 0.0000000 -0.0060627
v -0.0025754 0.0000000 -0.0067565
v -0.0038000 0.0000000 -0.0070000
v -0.0050246 0.0000000 -0.0067565
v -0.0060627 0.0000000 -0.0060627
v -0.0067565 0.0000000 -0.0050246
v -0.0070000 0.0000000 -0.0038000
v -0.0067565 0.0000000 -0.0025754
v -0.0060627 0.0000000 -0.0015373
v -0.0050246 0.0000000 -0.0008435
v -0.0038000 0.0000000 -0.0006000
v -0.0025754 0.0000000 -0.0008435
v -0.0015373 0.0000000 -0.0015373
v -0.0008435 0.0000000 -0.0025754
v -0.0004740 0.0000000 -0.0051777
v -0.0002000 0.0000000 -0.0038000
v -0.0012544 0.0000000 -0.0063456
v -0.0024223 0.0000000 -0.0071260
v -0.0038000 0.0000000 -0.0074000
v -0.0051777 0.0000000 -0.0071260
v -0.0063456 0.0000000 -0.0063456
v -0.0071260 0.0000000 -0.0051777
v -0.0074000 0.0000000 -0.0038000
v -0.0071260 0.0000000 -0.0024223
v -0.0063456 0.0000000 -0.0012544
v -0.0051777 0.0000000 -0.0004740
v -0.0038000 0.0000000 -0.0002000
v -0.0024223 0.0000000 -0.0004740
v -0.0012544 0.0000000 -0.0012544
v -0.0004740 0.0000000 -0.0024223
v -0.0002000 0.0080000 -0.0038000
v -0.0004740 0.0080000 -0.0051777
v -0.0012544 0.0080000 -0.0063456
v -0.0024223 0.0080000 -0.0071260
v -0.0038000 0.0080000 -0.0074000
v -0.0051777 0.0080000 -0.0071260
v -0.0063456 0.0080000 -0.0063456
v -0.0071260 0.0080000 -0.0051777
v -0.0074000 0.0080000 -0.0038000
v -0.0071260 0.0080000 -0.0024223
v -0.0063456 0.0080000 -0.0012544
v -0.0051777 0.0080000 -0.0004740
v -0.0038000 0.0080000 -0.0002000
v -0.0024223 0.0080000 -0.0004740
v -0.0012544 0.0080000 -0.0012544
v -0.0004740 0.0080000 -0.0024223
v -0.0002000 0.0076000 -0.0038000
v -0.0004740 0.0076000 -0.0051777
v -0.0012544 0.0076000 -0.0063456
v -0.0024223 0.0076000 -0.0071260
v -0.0051777 0.0076000 -0.0071260
v -0.0063456 0.0076000 -0.0063456
v -0.0071260 0.0076000 -0.0051777
v -0.0071260 0.0076000 -0.0024223
v -0.0063456 0.0076000 -0.0012544
v -0.0051777 0.0076000 -0.0004740
v -0.0038000 0.0076000 -0.0002000
v -0.0024223 0.0076000 -0.0004740
v -0.0012544 0.0076000 -0.0012544
v -0.0004740 0.0076000 -0.0024223
v -0.0051777 0.0004000 -0.0071260
v -0.0063456 0.0004000 -0.0063456
v -0.0071260 0.0004000 -0.0051777
v -0.0051777 0.0046000 -0.0004739
v -0.0051777 0.0076000 -0.0004739
v -0.0063456 0.0046000 -0.0012544
v -0.0038000 0.0046000 -0.0002000
v -0.0024223 0.0046000 -0.0004739
v -0.0024223 0.0076000 -0.0004739
v -0.0012544 0.0046000 -0.0012544
v -0.0004739 0.0046000 -0.0024223
v -0.0004739 0.0076000 -0.0024223
v -0.0002000 0.0046000 -0.0038000
v -0.0004739 0.0046000 -0.0051777
v -0.0004739 0.0076000 -0.0051777
v -0.0012544 0.0046000 -0.0063456
v -0.0063456 0.0004000 -0.0012544
v -0.0051777 0.0004000 -0.0004739
v -0.0051777 0.0034000 -0.0004739
v -0.0063456 0.0034000 -0.0012544
v -0.0038000 0.0004000 -0.0002000
v -0.0038000 0.0034000 -0.0002000
v -0.0024223 0.0004000 -0.0004739
v -0.0024223 0.0034000 -0.0004739
v -0.0012544 0.0004000 -0.0012544
v -0.0012544 0.0034000 -0.0012544
v -0.0004739 0.0004000 -0.0024223
v -0.0004739 0.0034000 -0.0024223
v -0.0002000 0.0004000 -0.0038000
v -0.0002000 0.0034000 -0.0038000
v -0.0004739 0.0004000 -0.0051777
v -0.0004739 0.0034000 -0.0051777
v -0.0012544 0.0004000 -0.0063456
v -0.0012544 0.0034000 -0.0063456
v -0.0004740 0.0004000 -0.0051777
v -0.0024223 0.0004000 -0.0071260
v -0.0071260 0.0004000 -0.0024223
v -0.0051777 0.0004000 -0.0004740
v -0.0024223 0.0004000 -0.0004740
v -0.0004740 0.0004000 -0.0024223
v -0.0006000 0.0053788 0.0075264
v 0.0075264 0.0053788 -0.0006000
v -0.0063452 0.0010435 0.0029754
v -0.0063452 0.0017373 0.0019373
v -0.0063452 0.0027754 0.0012435
v -0.0063452 0.0040000 0.0010000
v -0.0063452 0.0052246 0.0012435
v -0.0063452 0.0062627 0.0019373
v -0.0063452 0.0069565 0.0029754
v -0.0018000 0.0010435 0.0029754
v -0.0018000 0.0017373 0.0019373
v -0.0018000 0.0027754 0.0012435
v -0.0018000 0.0040000 0.0010000
v -0.0018000 0.0052246 0.0012435
v -0.0018000 0.0062627 0.0019373
v -0.0018000 0.0069565 0.0029754
v 0.0029754 0.0010435 -0.0063452
v 0.0019373 0.0017373 -0.0063452
v 0.0012435 0.0027754 -0.0063452
v 0.0010000 0.0040000 -0.0063452
v 0.0012435 0.0052246 -0.0063452
v 0.0019373 0.0062627 -0.0063452
v 0.0029754 0.0069565 -0.0063452
v 0.0029754 0.0010435 -0.0018000
v 0.0019373 0.0017373 -0.0018000
v 0.0012435 0.0027754 -0.0018000
v 0.0010000 0.0040000 -0.0018000
v 0.0012435 0.0052246 -0.0018000
v 0.0019373 0.0062627 -0.0018000
v 0.0029754 0.0069565 -0.0018000
v -0.0063452 0.0034000 0.0011192
v -0.0038000 0.0034000 0.0011192
v -0.0063452 0.0046000 0.0011192
v -0.0038000 0.0046000 0.0011192
v 0.0011192 0.0046000 -0.0063452
v 0.0011192 0.0046000 -0.0038000
v 0.0011192 0.0034000 -0.0063452
v 0.0011192 0.0034000 -0.0038000
v -0.0018000 0.0076000 0.0008000
v -0.0029656 0.0076000 -0.0003656
v -0.0029656 0.0046000 -0.0003656
v -0.0018000 0.0046000 0.0008000
v -0.0018000 0.0034000 0.0008000
v -0.0029656 0.0034000 -0.0003656
v -0.0029656 0.0004000 -0.0003656
v -0.0018000 0.0004000 0.0008000
v 0.0008000 0.0004000 -0.0018000
v -0.0003656 0.0004000 -0.0029656
v -0.0003656 0.0034000 -0.0029656
v 0.0008000 0.0034000 -0.0018000
v 0.0008000 0.0046000 -0.0018000
v -0.0003656 0.0046000 -0.0029656
v -0.0003656 0.0076000 -0.0029656
v 0.0008000 0.0076000 -0.0018000
v -0.0018000 0.0034000 0.0010000
v -0.0018000 0.0046000 0.0010000
v 0.0010000 0.0046000 -0.0018000
v 0.0010000 0.0034000 -0.0018000
v -0.0018000 0.0046000 0.0011192
v -0.0018000 0.0034000 0.0011192
v 0.0011192 0.0034000 -0.0018000
v 0.0011192 0.0046000 -0.0018000
v -0.0012680 0.0076000 -0.0003320
v -0.0003320 0.0076000 -0.0012680
v -0.0003320 0.0046000 -0.0012680
v -0.0012680 0.0046000 -0.0003320
v -0.0012680 0.0034000 -0.0003320
v -0.0003320 0.0034000 -0.0012680
v -0.0003320 0.0004000 -0.0012680
v -0.0012680 0.0004000 -0.0003320
v -0.0018344 0.0004000 -0.0008664
v -0.0018344 0.0034000 -0.0008664
v -0.0018344 0.0046000 -0.0008664
v -0.0018344 0.0076000 -0.0008664
v -0.0008664 0.0076000 -0.0018344
v -0.0008664 0.0046000 -0.0018344
v -0.0008664 0.0034000 -0.0018344
v -0.0008664 0.0004000 -0.0018344
f 1 2 3
f 1 3 4
f 5 6 2
f 5 2 1
f 7 8 6
f 7 6 5
f 9 10 8
f 9 8 7
f 11 12 10
f 11 10 9
f 13 14 12
f 13 12 11
f 15 16 14
f 15 14 13
f 17 18 16
f 17 16 15
f 19 20 18
f 19 18 17
f 21 22 20
f 21 20 19
f 23 24 22
f 23 22 21
f 25 26 24
f 25 24 23
f 27 28 26
f 27 26 25
f 29 30 28
f 29 28 27
f 31 32 30
f 31 30 29
f 4 3 32
f 4 32 31
f 33 34 1
f 33 1 4
f 34 35 5
f 34 5 1
f 35 36 7
f 35 7 5
f 36 37 9
f 36 9 7
f 37 38 11
f 37 11 9
f 38 39 13
f 38 13 11
f 39 40 15
f 39 15 13
f 40 41 17
f 40 17 15
f 34 33 42
f 35 34 42
f 36 35 42
f 37 36 42
f 43 19 17
f 43 17 44
f 45 21 19
f 45 19 43
f 46 23 21
f 46 21 45
f 47 25 23
f 47 23 46
f 48 27 25
f 48 25 47
f 49 29 27
f 49 27 48
f 50 31 29
f 50 29 49
f 51 4 31
f 51 31 50
f 52 53 54
f 52 54 55
f 52 55 56
f 52 56 57
f 58 57 59
f 58 59 60
f 58 60 61
f 58 61 62
f 63 64 65
f 66 63 65
f 67 66 65
f 68 67 65
f 69 70 71
f 72 69 71
f 73 72 71
f 74 73 71
f 75 74 76
f 77 75 76
f 78 77 76
f 79 78 76
f 80 81 82
f 80 82 83
f 80 83 84
f 80 84 85
f 86 87 88
f 89 86 88
f 87 90 91
f 88 87 91
f 90 92 93
f 91 90 93
f 92 94 95
f 93 92 95
f 94 96 97
f 95 94 97
f 96 98 99
f 97 96 99
f 98 100 101
f 99 98 101
f 100 102 103
f 101 100 103
f 102 104 105
f 103 102 105
f 104 106 107
f 105 104 107
f 106 108 109
f 107 106 109
f 108 110 111
f 109 108 111
f 110 112 113
f 111 110 113
f 112 114 115
f 113 112 115
f 114 116 117
f 115 114 117
f 116 86 89
f 117 116 89
f 111 113 118
f 111 118 119
f 113 115 120
f 113 120 118
f 115 117 121
f 115 121 120
f 117 89 122
f 117 122 121
f 89 88 123
f 89 123 122
f 88 91 124
f 88 124 123
f 91 93 125
f 91 125 124
f 93 95 126
f 93 126 125
f 95 97 127
f 95 127 126
f 97 99 128
f 97 128 127
f 99 101 129
f 99 129 128
f 101 103 130
f 101 130 129
f 103 105 131
f 103 131 130
f 105 107 132
f 105 132 131
f 107 109 133
f 107 133 132
f 109 111 119
f 109 119 133
f 118 134 135
f 119 118 135
f 120 136 134
f 118 120 134
f 121 137 136
f 120 121 136
f 122 138 137
f 121 122 137
f 123 139 138
f 122 123 138
f 124 140 139
f 123 124 139
f 125 141 140
f 124 125 140
f 126 142 141
f 125 126 141
f 127 143 142
f 126 127 142
f 128 144 143
f 127 128 143
f 129 145 144
f 128 129 144
f 130 146 145
f 129 130 145
f 131 147 146
f 130 131 146
f 132 148 147
f 131 132 147
f 133 149 148
f 132 133 148
f 119 135 149
f 133 119 149
f 150 151 43
f 150 43 44
f 151 152 45
f 151 45 43
f 152 153 46
f 152 46 45
f 153 154 47
f 153 47 46
f 154 155 48
f 154 48 47
f 155 156 49
f 155 49 48
f 156 157 50
f 156 50 49
f 157 158 51
f 157 51 50
f 28 112 110
f 26 28 110
f 30 114 112
f 28 30 112
f 32 116 114
f 30 32 114
f 3 86 116
f 32 3 116
f 2 87 86
f 3 2 86
f 6 90 87
f 2 6 87
f 8 92 90
f 6 8 90
f 10 94 92
f 8 10 92
f 12 96 94
f 10 12 94
f 14 98 96
f 12 14 96
f 16 100 98
f 14 16 98
f 18 102 100
f 16 18 100
f 20 104 102
f 18 20 102
f 22 106 104
f 20 22 104
f 24 108 106
f 22 24 106
f 26 110 108
f 24 26 108
f 135 134 54
f 135 54 53
f 134 136 55
f 134 55 54
f 136 137 56
f 136 56 55
f 137 138 57
f 137 57 56
f 138 139 59
f 138 59 57
f 139 140 60
f 139 60 59
f 140 141 61
f 140 61 60
f 141 142 62
f 141 62 61
f 142 143 159
f 142 159 62
f 143 144 160
f 143 160 159
f 144 145 161
f 144 161 160
f 145 146 162
f 145 162 161
f 146 147 163
f 146 163 162
f 147 148 164
f 147 164 163
f 148 149 165
f 148 165 164
f 149 135 53
f 149 53 165
f 159 38 37
f 159 37 62
f 160 39 38
f 160 38 159
f 161 40 39
f 161 39 160
f 162 41 40
f 162 40 161
f 163 166 41
f 163 41 162
f 164 167 166
f 164 166 163
f 165 168 167
f 165 167 164
f 53 169 168
f 53 168 165
f 170 151 150
f 170 150 171
f 172 152 151
f 172 151 170
f 173 153 152
f 173 152 172
f 64 154 153
f 64 153 173
f 63 155 154
f 63 154 64
f 66 156 155
f 66 155 63
f 67 157 156
f 67 156 66
f 68 158 157
f 68 157 67
f 41 166 170
f 41 170 171
f 166 167 172
f 166 172 170
f 167 168 173
f 167 173 172
f 168 169 64
f 168 64 173
f 174 175 79
f 174 79 176
f 177 178 175
f 177 175 174
f 179 180 178
f 179 178 177
f 181 182 180
f 181 180 179
f 183 184 182
f 183 182 181
f 185 186 184
f 185 184 183
f 187 188 186
f 187 186 185
f 189 70 188
f 189 188 187
f 190 191 192
f 190 192 193
f 194 195 191
f 194 191 190
f 196 197 195
f 196 195 194
f 198 81 197
f 198 197 196
f 199 82 81
f 199 81 198
f 200 83 82
f 200 82 199
f 201 84 83
f 201 83 200
f 202 85 84
f 202 84 201
f 192 191 183
f 192 183 181
f 191 195 185
f 191 185 183
f 195 197 187
f 195 187 185
f 197 81 189
f 197 189 187
f 203 204 205
f 206 203 205
f 204 207 208
f 205 204 208
f 207 209 210
f 208 207 210
f 209 211 212
f 210 209 212
f 211 213 214
f 212 211 214
f 213 215 216
f 214 213 216
f 215 217 218
f 216 215 218
f 217 219 220
f 218 217 220
f 219 221 222
f 220 219 222
f 221 223 224
f 222 221 224
f 223 225 226
f 224 223 226
f 225 227 228
f 226 225 228
f 227 229 230
f 228 227 230
f 229 231 232
f 230 229 232
f 231 233 234
f 232 231 234
f 233 203 206
f 234 233 206
f 214 235 236
f 212 214 236
f 216 237 235
f 214 216 235
f 218 238 237
f 216 218 237
f 220 176 238
f 218 220 238
f 222 174 176
f 220 222 176
f 224 177 174
f 222 224 174
f 226 179 177
f 224 226 177
f 228 181 179
f 226 228 179
f 239 236 235
f 239 235 237
f 239 237 238
f 239 238 176
f 230 240 241
f 230 241 228
f 232 242 240
f 232 240 230
f 234 243 242
f 234 242 232
f 206 244 243
f 206 243 234
f 205 245 244
f 205 244 206
f 208 246 245
f 208 245 205
f 210 247 246
f 210 246 208
f 212 248 247
f 212 247 210
f 249 250 251
f 249 251 252
f 253 254 250
f 253 250 249
f 255 256 254
f 255 254 253
f 257 258 256
f 257 256 255
f 259 260 258
f 259 258 257
f 261 262 260
f 261 260 259
f 263 264 262
f 263 262 261
f 265 266 264
f 265 264 263
f 267 268 266
f 267 266 265
f 269 270 268
f 269 268 267
f 271 272 270
f 271 270 269
f 273 274 272
f 273 272 271
f 275 276 274
f 275 274 273
f 277 278 276
f 277 276 275
f 279 280 278
f 279 278 277
f 252 251 280
f 252 280 279
f 281 275 273
f 282 281 273
f 283 277 275
f 281 283 275
f 284 279 277
f 283 284 277
f 285 252 279
f 284 285 279
f 286 249 252
f 285 286 252
f 287 253 249
f 286 287 249
f 288 255 253
f 287 288 253
f 289 257 255
f 288 289 255
f 290 259 257
f 289 290 257
f 291 261 259
f 290 291 259
f 292 263 261
f 291 292 261
f 293 265 263
f 292 293 263
f 294 267 265
f 293 294 265
f 295 269 267
f 294 295 267
f 296 271 269
f 295 296 269
f 282 273 271
f 296 282 271
f 240 190 193
f 241 240 193
f 242 194 190
f 240 242 190
f 243 196 194
f 242 243 194
f 244 198 196
f 243 244 196
f 245 199 198
f 244 245 198
f 246 200 199
f 245 246 199
f 247 201 200
f 246 247 200
f 248 202 201
f 247 248 201
f 297 298 281
f 297 281 282
f 298 299 283
f 298 283 281
f 299 300 284
f 299 284 283
f 300 301 285
f 300 285 284
f 301 302 286
f 301 286 285
f 302 303 287
f 302 287 286
f 303 304 288
f 303 288 287
f 304 305 289
f 304 289 288
f 305 306 290
f 305 290 289
f 306 307 291
f 306 291 290
f 307 308 292
f 307 292 291
f 308 309 293
f 308 293 292
f 309 310 294
f 309 294 293
f 310 311 295
f 310 295 294
f 311 312 296
f 311 296 295
f 312 297 282
f 312 282 296
f 276 204 203
f 274 276 203
f 278 207 204
f 276 278 204
f 280 209 207
f 278 280 207
f 251 211 209
f 280 251 209
f 250 213 211
f 251 250 211
f 254 215 213
f 250 254 213
f 256 217 215
f 254 256 215
f 258 219 217
f 256 258 217
f 260 221 219
f 258 260 219
f 262 223 221
f 260 262 221
f 264 225 223
f 262 264 223
f 266 227 225
f 264 266 225
f 268 229 227
f 266 268 227
f 270 231 229
f 268 270 229
f 272 233 231
f 270 272 231
f 274 203 233
f 272 274 233
f 70 69 298
f 70 298 297
f 69 72 299
f 69 299 298
f 72 73 300
f 72 300 299
f 73 74 301
f 73 301 300
f 74 75 302
f 74 302 301
f 75 77 303
f 75 303 302
f 77 78 304
f 77 304 303
f 78 79 305
f 78 305 304
f 79 175 306
f 79 306 305
f 175 178 307
f 175 307 306
f 178 180 308
f 178 308 307
f 180 182 309
f 180 309 308
f 182 184 310
f 182 310 309
f 184 186 311
f 184 311 310
f 186 188 312
f 186 312 311
f 188 70 297
f 188 297 312
f 313 314 315
f 313 315 316
f 51 315 314
f 51 314 4
f 158 315 51
f 68 315 158
f 65 317 318
f 65 318 319
f 315 68 319
f 315 319 316
f 317 80 320
f 317 320 318
f 85 321 322
f 85 322 320
f 322 321 323
f 322 323 324
f 212 323 321
f 212 321 248
f 248 321 202
f 202 321 85
f 325 326 327
f 325 327 328
f 329 330 331
f 329 331 332
f 333 334 326
f 333 326 335
f 336 331 337
f 336 337 338
f 339 340 341
f 339 341 342
f 343 344 345
f 343 345 346
f 347 348 349
f 347 349 350
f 351 352 353
f 351 353 354
f 355 356 357
f 355 357 358
f 359 360 361
f 359 361 362
f 363 361 364
f 363 364 365
f 366 367 356
f 366 356 368
f 358 347 350
f 358 350 355
f 362 351 354
f 362 354 359
f 342 333 335
f 342 335 339
f 346 336 338
f 346 338 343
f 58 369 370
f 58 370 52
f 371 76 71
f 371 71 372
f 370 332 336
f 370 336 53
f 62 335 325
f 62 325 369
f 70 362 363
f 70 363 372
f 371 368 355
f 371 355 79
f 373 374 375
f 373 375 376
f 377 378 374
f 377 374 373
f 379 380 378
f 379 378 377
f 381 382 380
f 381 380 379
f 383 384 382
f 383 382 381
f 385 386 384
f 385 384 383
f 387 388 386
f 387 386 385
f 389 390 388
f 389 388 387
f 391 392 390
f 391 390 389
f 393 394 392
f 393 392 391
f 395 396 394
f 395 394 393
f 397 398 396
f 397 396 395
f 399 400 398
f 399 398 397
f 401 402 400
f 401 400 399
f 403 404 402
f 403 402 401
f 376 375 404
f 376 404 403
f 405 399 397
f 406 405 397
f 407 401 399
f 405 407 399
f 408 403 401
f 407 408 401
f 409 376 403
f 408 409 403
f 410 373 376
f 409 410 376
f 411 377 373
f 410 411 373
f 412 379 377
f 411 412 377
f 413 381 379
f 412 413 379
f 414 383 381
f 413 414 381
f 415 385 383
f 414 415 383
f 416 387 385
f 415 416 385
f 417 389 387
f 416 417 387
f 418 391 389
f 417 418 389
f 419 393 391
f 418 419 391
f 420 395 393
f 419 420 393
f 406 397 395
f 420 406 395
f 421 422 423
f 424 421 423
f 422 425 426
f 423 422 426
f 425 427 428
f 426 425 428
f 427 429 430
f 428 427 430
f 429 431 432
f 430 429 432
f 431 433 434
f 432 431 434
f 433 435 436
f 434 433 436
f 435 437 438
f 436 435 438
f 437 439 440
f 438 437 440
f 439 441 442
f 440 439 442
f 441 443 444
f 442 441 444
f 443 445 446
f 444 443 446
f 445 447 448
f 446 445 448
f 447 449 450
f 448 447 450
f 449 451 452
f 450 449 452
f 451 421 424
f 452 451 424
f 446 448 453
f 446 453 454
f 448 450 455
f 448 455 453
f 450 452 456
f 450 456 455
f 452 424 457
f 452 457 456
f 424 423 458
f 424 458 457
f 423 426 459
f 423 459 458
f 426 428 460
f 426 460 459
f 428 430 461
f 428 461 460
f 430 432 462
f 430 462 461
f 432 434 463
f 432 463 462
f 434 436 464
f 434 464 463
f 436 438 465
f 436 465 464
f 438 440 466
f 438 466 465
f 440 442 467
f 440 467 466
f 442 444 468
f 442 468 467
f 444 446 454
f 444 454 468
f 453 469 470
f 454 453 470
f 455 471 469
f 453 455 469
f 456 472 471
f 455 456 471
f 457 473 472
f 456 457 472
f 458 474 473
f 457 458 473
f 459 475 474
f 458 459 474
f 460 476 475
f 459 460 475
f 461 477 476
f 460 461 476
f 462 478 477
f 461 462 477
f 463 479 478
f 462 463 478
f 464 480 479
f 463 464 479
f 465 481 480
f 464 465 480
f 466 482 481
f 465 466 481
f 467 483 482
f 466 467 482
f 468 484 483
f 467 468 483
f 454 470 484
f 468 454 484
f 485 486 405
f 485 405 406
f 486 487 407
f 486 407 405
f 487 488 408
f 487 408 407
f 488 489 409
f 488 409 408
f 489 490 410
f 489 410 409
f 490 491 411
f 490 411 410
f 491 492 412
f 491 412 411
f 492 493 413
f 492 413 412
f 493 494 414
f 493 414 413
f 494 495 415
f 494 415 414
f 495 496 416
f 495 416 415
f 496 497 417
f 496 417 416
f 497 498 418
f 497 418 417
f 498 499 419
f 498 419 418
f 499 500 420
f 499 420 419
f 500 485 406
f 500 406 420
f 400 447 445
f 398 400 445
f 402 449 447
f 400 402 447
f 404 451 449
f 402 404 449
f 375 421 451
f 404 375 451
f 374 422 421
f 375 374 421
f 378 425 422
f 374 378 422
f 380 427 425
f 378 380 425
f 382 429 427
f 380 382 427
f 384 431 429
f 382 384 429
f 386 433 431
f 384 386 431
f 388 435 433
f 386 388 433
f 390 437 435
f 388 390 435
f 392 439 437
f 390 392 437
f 394 441 439
f 392 394 439
f 396 443 441
f 394 396 441
f 398 445 443
f 396 398 443
f 501 502 486
f 501 486 485
f 502 503 487
f 502 487 486
f 503 504 488
f 503 488 487
f 504 371 489
f 504 489 488
f 371 505 490
f 371 490 489
f 505 506 491
f 505 491 490
f 506 507 492
f 506 492 491
f 507 369 493
f 507 493 492
f 369 508 494
f 369 494 493
f 508 509 495
f 508 495 494
f 509 510 496
f 509 496 495
f 510 511 497
f 510 497 496
f 511 512 498
f 511 498 497
f 512 513 499
f 512 499 498
f 513 514 500
f 513 500 499
f 514 501 485
f 514 485 500
f 372 515 505
f 372 505 371
f 515 516 506
f 515 506 505
f 516 517 507
f 516 507 506
f 517 370 369
f 517 369 507
f 518 519 509
f 518 509 520
f 521 511 519
f 521 519 518
f 522 523 511
f 522 511 521
f 524 513 523
f 524 523 522
f 525 526 513
f 525 513 524
f 527 501 526
f 527 526 525
f 528 529 501
f 528 501 527
f 530 503 529
f 530 529 528
f 531 532 533
f 534 531 533
f 532 535 536
f 533 532 536
f 535 537 538
f 536 535 538
f 537 539 540
f 538 537 540
f 539 541 542
f 540 539 542
f 541 543 544
f 542 541 544
f 543 545 546
f 544 543 546
f 545 547 548
f 546 545 548
f 469 549 543
f 470 469 543
f 471 547 549
f 469 471 549
f 472 550 547
f 471 472 547
f 473 372 550
f 472 473 550
f 474 515 372
f 473 474 372
f 475 516 515
f 474 475 515
f 476 517 516
f 475 476 516
f 477 370 517
f 476 477 517
f 478 551 370
f 477 478 370
f 479 531 551
f 478 479 551
f 480 552 531
f 479 480 531
f 481 535 552
f 480 481 552
f 482 553 535
f 481 482 535
f 483 539 553
f 482 483 553
f 484 554 539
f 483 484 539
f 470 543 554
f 484 470 554
f 555 41 150
f 555 150 44
f 555 44 17
f 556 193 181
f 556 241 193
f 556 228 241
f 557 338 337
f 558 557 337
f 559 558 337
f 560 559 337
f 561 560 334
f 562 561 334
f 563 562 334
f 333 563 334
f 344 343 564
f 344 564 565
f 344 565 566
f 344 566 567
f 341 567 568
f 341 568 569
f 341 569 570
f 341 570 342
f 360 359 571
f 360 571 572
f 360 572 573
f 360 573 574
f 357 574 575
f 357 575 576
f 357 576 577
f 357 577 358
f 578 354 353
f 579 578 353
f 580 579 353
f 581 580 353
f 582 581 348
f 583 582 348
f 584 583 348
f 347 584 348
f 338 557 564
f 343 338 564
f 557 558 565
f 564 557 565
f 558 559 566
f 565 558 566
f 559 560 567
f 566 559 567
f 560 561 568
f 567 560 568
f 561 562 569
f 568 561 569
f 562 563 570
f 569 562 570
f 563 333 342
f 570 563 342
f 354 578 571
f 359 354 571
f 578 579 572
f 571 578 572
f 579 580 573
f 572 579 573
f 580 581 574
f 573 580 574
f 581 582 575
f 574 581 575
f 582 583 576
f 575 582 576
f 583 584 577
f 576 583 577
f 584 347 358
f 577 584 358
f 585 329 536
f 585 536 586
f 328 587 588
f 328 588 521
f 589 366 527
f 589 527 590
f 365 591 592
f 365 592 544
f 593 594 595
f 593 595 596
f 597 598 599
f 597 599 600
f 601 602 603
f 601 603 604
f 605 606 607
f 605 607 608
f 600 345 609
f 600 609 597
f 596 610 340
f 596 340 593
f 608 349 611
f 608 611 605
f 604 612 352
f 604 352 601
f 598 597 586
f 598 586 536
f 596 595 521
f 596 521 588
f 588 613 596
f 586 597 614
f 606 605 590
f 606 590 527
f 604 603 544
f 604 544 592
f 592 615 604
f 590 605 616
f 617 618 619
f 617 619 620
f 621 622 623
f 621 623 624
f 624 625 626
f 624 626 621
f 620 627 628
f 620 628 617
f 618 629 630
f 618 630 619
f 622 631 632
f 622 632 623
f 621 626 631
f 621 631 622
f 619 630 627
f 619 627 620
f 600 599 625
f 600 625 624
f 594 593 617
f 594 617 628
f 608 607 629
f 608 629 618
f 602 601 623
f 602 623 632
f 593 339 37
f 593 37 313
f 346 600 317
f 346 317 64
f 601 351 81
f 601 81 317
f 350 608 324
f 350 324 176
f 316 318 593
f 316 593 313
f 318 322 324
f 318 324 608
f 624 623 601
f 624 601 600
f 618 617 593
f 618 593 608
f 600 601 317
f 593 318 608
