# Botball Lab: metres, +Y up, centred XZ, base Y=0
s off
v -0.0044000 0.0080000 0.0160000
v -0.0046740 0.0080000 0.0173777
v -0.0046740 0.0000000 0.0173777
v -0.0044000 0.0000000 0.0160000
v -0.0054544 0.0080000 0.0185456
v -0.0054544 0.0000000 0.0185456
v -0.0066223 0.0080000 0.0193260
v -0.0066223 0.0000000 0.0193260
v -0.0080000 0.0080000 0.0196000
v -0.0080000 0.0000000 0.0196000
v -0.0093777 0.0080000 0.0193260
v -0.0093777 0.0000000 0.0193260
v -0.0105456 0.0080000 0.0185456
v -0.0105456 0.0000000 0.0185456
v -0.0113260 0.0080000 0.0173777
v -0.0113260 0.0000000 0.0173777
v -0.0116000 0.0080000 0.0160000
v -0.0116000 0.0000000 0.0160000
v -0.0116000 0.0080000 -0.0160000
v -0.0116000 0.0000000 -0.0160000
v -0.0044000 0.0080000 -0.0124000
v -0.0044000 0.0000000 -0.0124000
v 0.0080000 0.0080000 -0.0196000
v 0.0093777 0.0080000 -0.0193260
v 0.0093777 0.0000000 -0.0193260
v 0.0080000 0.0000000 -0.0196000
v 0.0105456 0.0080000 -0.0185456
v 0.0105456 0.0000000 -0.0185456
v 0.0113260 0.0080000 -0.0173777
v 0.0113260 0.0000000 -0.0173777
v 0.0116000 0.0080000 -0.0160000
v 0.0116000 0.0000000 -0.0160000
v 0.0113260 0.0080000 -0.0146223
v 0.0113260 0.0000000 -0.0146223
v 0.0105456 0.0080000 -0.0134544
v 0.0105456 0.0000000 -0.0134544
v 0.0093777 0.0080000 -0.0126740
v 0.0093777 0.0000000 -0.0126740
v 0.0080000 0.0080000 -0.0124000
v 0.0080000 0.0000000 -0.0124000
v -0.0113260 0.0080000 -0.0173777
v -0.0113260 0.0000000 -0.0173777
v -0.0105456 0.0080000 -0.0185456
v -0.0105456 0.0000000 -0.0185456
v -0.0093777 0.0080000 -0.0193260
v -0.0093777 0.0000000 -0.0193260
v -0.0080000 0.0080000 -0.0196000
v -0.0080000 0.0000000 -0.0196000
v -0.0046740 0.0080000 0.0146223
v -0.0050435 0.0080000 0.0147754
v -0.0048000 0.0080000 0.0160000
v -0.0054544 0.0080000 0.0134544
v -0.0057373 0.0080000 0.0137373
v -0.0066223 0.0080000 0.0126740
v -0.0067754 0.0080000 0.0130435
v -0.0080000 0.0080000 0.0124000
v -0.0080000 0.0080000 0.0128000
v -0.0093777 0.0080000 0.0126740
v -0.0092246 0.0080000 0.0130435
v -0.0105456 0.0080000 0.0134544
v -0.0102627 0.0080000 0.0137373
v -0.0113260 0.0080000 0.0146223
v -0.0109565 0.0080000 0.0147754
v -0.0112000 0.0080000 0.0160000
v -0.0109565 0.0080000 0.0172246
v -0.0102627 0.0080000 0.0182627
v -0.0092246 0.0080000 0.0189565
v -0.0080000 0.0080000 0.0192000
v -0.0067754 0.0080000 0.0189565
v -0.0057373 0.0080000 0.0182627
v -0.0050435 0.0080000 0.0172246
v -0.0066223 0.0048000 0.0113260
v -0.0066223 0.0080000 0.0113260
v -0.0080000 0.0080000 0.0116000
v -0.0080000 0.0048000 0.0116000
v -0.0054544 0.0048000 0.0120000
v -0.0054544 0.0080000 0.0120000
v -0.0054544 0.0080000 0.0113872
v -0.0054544 0.0048000 0.0113872
v -0.0055182 0.0080000 0.0111469
v -0.0055182 0.0048000 0.0111469
v -0.0057279 0.0080000 0.0110080
v -0.0057279 0.0048000 0.0110080
v -0.0059607 0.0080000 0.0110519
v -0.0059607 0.0048000 0.0110519
v -0.0066223 0.0080000 0.0113261
v -0.0054544 0.0080000 0.0105456
v -0.0093777 0.0080000 0.0113260
v -0.0093777 0.0048000 0.0113260
v -0.0105456 0.0080000 0.0113872
v -0.0105456 0.0080000 0.0120000
v -0.0105456 0.0048000 0.0120000
v -0.0105456 0.0048000 0.0113872
v -0.0100393 0.0048000 0.0110519
v -0.0104818 0.0080000 0.0111469
v -0.0104818 0.0048000 0.0111469
v -0.0102721 0.0080000 0.0110080
v -0.0102721 0.0048000 0.0110080
v -0.0100393 0.0080000 0.0110519
v -0.0105456 0.0080000 0.0105456
v -0.0093777 0.0080000 0.0113261
v -0.0044000 0.0080000 0.0116000
v -0.0044000 0.0080000 0.0080000
v -0.0046740 0.0080000 0.0093777
v -0.0113260 0.0080000 0.0093777
v -0.0116000 0.0080000 0.0080000
v -0.0116000 0.0080000 0.0116000
v -0.0044000 0.0080000 0.0120000
v -0.0116000 0.0080000 0.0120000
v -0.0066223 0.0048000 0.0126740
v -0.0080000 0.0048000 0.0124000
v -0.0054544 0.0080000 0.0126128
v -0.0054544 0.0048000 0.0126128
v -0.0055182 0.0080000 0.0128531
v -0.0055182 0.0048000 0.0128531
v -0.0057279 0.0080000 0.0129920
v -0.0057279 0.0048000 0.0129920
v -0.0059607 0.0080000 0.0129481
v -0.0059607 0.0048000 0.0129481
v -0.0066223 0.0080000 0.0126739
v -0.0093777 0.0048000 0.0126740
v -0.0105456 0.0080000 0.0126128
v -0.0105456 0.0048000 0.0126128
v -0.0100393 0.0048000 0.0129481
v -0.0104818 0.0080000 0.0128531
v -0.0104818 0.0048000 0.0128531
v -0.0102721 0.0080000 0.0129920
v -0.0102721 0.0048000 0.0129920
v -0.0100393 0.0080000 0.0129481
v -0.0093777 0.0080000 0.0126739
v -0.0044000 0.0080000 0.0124000
v -0.0116000 0.0080000 0.0124000
v -0.0092246 0.0072000 0.0130435
v -0.0089185 0.0072000 0.0137826
v -0.0080000 0.0072000 0.0136000
v -0.0080000 0.0072000 0.0128000
v -0.0102627 0.0072000 0.0137373
v -0.0096970 0.0072000 0.0143030
v -0.0109565 0.0072000 0.0147754
v -0.0102174 0.0072000 0.0150815
v -0.0112000 0.0072000 0.0160000
v -0.0104000 0.0072000 0.0160000
v -0.0109565 0.0072000 0.0172246
v -0.0102174 0.0072000 0.0169185
v -0.0102627 0.0072000 0.0182627
v -0.0096970 0.0072000 0.0176970
v -0.0092246 0.0072000 0.0189565
v -0.0089185 0.0072000 0.0182174
v -0.0080000 0.0072000 0.0192000
v -0.0080000 0.0072000 0.0184000
v -0.0067754 0.0072000 0.0189565
v -0.0070815 0.0072000 0.0182174
v -0.0057373 0.0072000 0.0182627
v -0.0063030 0.0072000 0.0176970
v -0.0050435 0.0072000 0.0172246
v -0.0057826 0.0072000 0.0169185
v -0.0048000 0.0072000 0.0160000
v -0.0056000 0.0072000 0.0160000
v -0.0050435 0.0072000 0.0147754
v -0.0057826 0.0072000 0.0150815
v -0.0057373 0.0072000 0.0137373
v -0.0063030 0.0072000 0.0143030
v -0.0067754 0.0072000 0.0130435
v -0.0070815 0.0072000 0.0137826
v -0.0057826 0.0008000 0.0150815
v -0.0056000 0.0008000 0.0160000
v -0.0063030 0.0008000 0.0143030
v -0.0070815 0.0008000 0.0137826
v -0.0080000 0.0008000 0.0136000
v -0.0089185 0.0008000 0.0137826
v -0.0096970 0.0008000 0.0143030
v -0.0102174 0.0008000 0.0150815
v -0.0104000 0.0008000 0.0160000
v -0.0102174 0.0008000 0.0169185
v -0.0096970 0.0008000 0.0176970
v -0.0089185 0.0008000 0.0182174
v -0.0080000 0.0008000 0.0184000
v -0.0070815 0.0008000 0.0182174
v -0.0063030 0.0008000 0.0176970
v -0.0057826 0.0008000 0.0169185
v -0.0092246 0.0008000 0.0130435
v -0.0080000 0.0008000 0.0128000
v -0.0102627 0.0008000 0.0137373
v -0.0109565 0.0008000 0.0147754
v -0.0112000 0.0008000 0.0160000
v -0.0109565 0.0008000 0.0172246
v -0.0102627 0.0008000 0.0182627
v -0.0092246 0.0008000 0.0189565
v -0.0080000 0.0008000 0.0192000
v -0.0067754 0.0008000 0.0189565
v -0.0057373 0.0008000 0.0182627
v -0.0050435 0.0008000 0.0172246
v -0.0048000 0.0008000 0.0160000
v -0.0050435 0.0008000 0.0147754
v -0.0057373 0.0008000 0.0137373
v -0.0067754 0.0008000 0.0130435
v -0.0050435 0.0000000 0.0147754
v -0.0048000 0.0000000 0.0160000
v -0.0057373 0.0000000 0.0137373
v -0.0067754 0.0000000 0.0130435
v -0.0080000 0.0000000 0.0128000
v -0.0092246 0.0000000 0.0130435
v -0.0102627 0.0000000 0.0137373
v -0.0109565 0.0000000 0.0147754
v -0.0112000 0.0000000 0.0160000
v -0.0109565 0.0000000 0.0172246
v -0.0102627 0.0000000 0.0182627
v -0.0092246 0.0000000 0.0189565
v -0.0080000 0.0000000 0.0192000
v -0.0067754 0.0000000 0.0189565
v -0.0057373 0.0000000 0.0182627
v -0.0050435 0.0000000 0.0172246
v -0.0080000 0.0000000 0.0116000
v -0.0066223 0.0000000 0.0113260
v -0.0066223 0.0032000 0.0113260
v -0.0080000 0.0032000 0.0116000
v -0.0054544 0.0000000 0.0113872
v -0.0054544 0.0000000 0.0120000
v -0.0054544 0.0032000 0.0120000
v -0.0054544 0.0032000 0.0113872
v -0.0055182 0.0000000 0.0111469
v -0.0055182 0.0032000 0.0111469
v -0.0057279 0.0000000 0.0110080
v -0.0057279 0.0032000 0.0110080
v -0.0059607 0.0000000 0.0110519
v -0.0059607 0.0032000 0.0110519
v -0.0054544 0.0000000 0.0105456
v -0.0066223 0.0000000 0.0113261
v -0.0093777 0.0032000 0.0113260
v -0.0093777 0.0000000 0.0113260
v -0.0105456 0.0032000 0.0120000
v -0.0105456 0.0000000 0.0120000
v -0.0105456 0.0000000 0.0113872
v -0.0105456 0.0032000 0.0113872
v -0.0100393 0.0032000 0.0110519
v -0.0104818 0.0000000 0.0111469
v -0.0104818 0.0032000 0.0111469
v -0.0102721 0.0000000 0.0110080
v -0.0102721 0.0032000 0.0110080
v -0.0100393 0.0000000 0.0110519
v -0.0093777 0.0000000 0.0113261
v -0.0105456 0.0000000 0.0105456
v -0.0046740 0.0000000 0.0093777
v -0.0044000 0.0000000 0.0080000
v -0.0044000 0.0000000 0.0116000
v -0.0116000 0.0000000 0.0116000
v -0.0116000 0.0000000 0.0080000
v -0.0113260 0.0000000 0.0093777
v -0.0044000 0.0000000 0.0120000
v -0.0116000 0.0000000 0.0120000
v -0.0066223 0.0032000 0.0126740
v -0.0066223 0.0000000 0.0126740
v -0.0080000 0.0000000 0.0124000
v -0.0080000 0.0032000 0.0124000
v -0.0054544 0.0000000 0.0126128
v -0.0054544 0.0032000 0.0126128
v -0.0055182 0.0000000 0.0128531
v -0.0055182 0.0032000 0.0128531
v -0.0057279 0.0000000 0.0129920
v -0.0057279 0.0032000 0.0129920
v -0.0059607 0.0000000 0.0129481
v -0.0059607 0.0032000 0.0129481
v -0.0066223 0.0000000 0.0126739
v -0.0054544 0.0000000 0.0134544
v -0.0093777 0.0000000 0.0126740
v -0.0093777 0.0032000 0.0126740
v -0.0105456 0.0000000 0.0126128
v -0.0105456 0.0032000 0.0126128
v -0.0100393 0.0032000 0.0129481
v -0.0104818 0.0000000 0.0128531
v -0.0104818 0.0032000 0.0128531
v -0.0102721 0.0000000 0.0129920
v -0.0102721 0.0032000 0.0129920
v -0.0100393 0.0000000 0.0129481
v -0.0105456 0.0000000 0.0134544
v -0.0093777 0.0000000 0.0126739
v -0.0044000 0.0000000 0.0124000
v -0.0046740 0.0000000 0.0146223
v -0.0113260 0.0000000 0.0146223
v -0.0116000 0.0000000 0.0124000
v -0.0046740 0.0080000 0.0066223
v -0.0050435 0.0080000 0.0067754
v -0.0048000 0.0080000 0.0080000
v -0.0054544 0.0080000 0.0054544
v -0.0057373 0.0080000 0.0057373
v -0.0066223 0.0080000 0.0046740
v -0.0067754 0.0080000 0.0050435
v -0.0080000 0.0080000 0.0044000
v -0.0080000 0.0080000 0.0048000
v -0.0093777 0.0080000 0.0046740
v -0.0092246 0.0080000 0.0050435
v -0.0105456 0.0080000 0.0054544
v -0.0102627 0.0080000 0.0057373
v -0.0113260 0.0080000 0.0066223
v -0.0109565 0.0080000 0.0067754
v -0.0112000 0.0080000 0.0080000
v -0.0109565 0.0080000 0.0092246
v -0.0102627 0.0080000 0.0102627
v -0.0092246 0.0080000 0.0109565
v -0.0080000 0.0080000 0.0112000
v -0.0067754 0.0080000 0.0109565
v -0.0057373 0.0080000 0.0102627
v -0.0050435 0.0080000 0.0092246
v -0.0066223 0.0048000 0.0033260
v -0.0066223 0.0080000 0.0033260
v -0.0080000 0.0080000 0.0036000
v -0.0080000 0.0048000 0.0036000
v -0.0054544 0.0048000 0.0040000
v -0.0054544 0.0080000 0.0040000
v -0.0054544 0.0080000 0.0033872
v -0.0054544 0.0048000 0.0033872
v -0.0055182 0.0080000 0.0031469
v -0.0055182 0.0048000 0.0031469
v -0.0057279 0.0080000 0.0030080
v -0.0057279 0.0048000 0.0030080
v -0.0059607 0.0080000 0.0030519
v -0.0059607 0.0048000 0.0030519
v -0.0066223 0.0080000 0.0033261
v -0.0054544 0.0080000 0.0025456
v -0.0093777 0.0080000 0.0033260
v -0.0093777 0.0048000 0.0033260
v -0.0105456 0.0080000 0.0033872
v -0.0105456 0.0080000 0.0040000
v -0.0105456 0.0048000 0.0040000
v -0.0105456 0.0048000 0.0033872
v -0.0100393 0.0048000 0.0030519
v -0.0104818 0.0080000 0.0031469
v -0.0104818 0.0048000 0.0031469
v -0.0102721 0.0080000 0.0030080
v -0.0102721 0.0048000 0.0030080
v -0.0100393 0.0080000 0.0030519
v -0.0105456 0.0080000 0.0025456
v -0.0093777 0.0080000 0.0033261
v -0.0044000 0.0080000 0.0036000
v -0.0044000 0.0080000 0.0000000
v -0.0046740 0.0080000 0.0013777
v -0.0113260 0.0080000 0.0013777
v -0.0116000 0.0080000 0.0000000
v -0.0116000 0.0080000 0.0036000
v -0.0044000 0.0080000 0.0040000
v -0.0116000 0.0080000 0.0040000
v -0.0066223 0.0048000 0.0046740
v -0.0080000 0.0048000 0.0044000
v -0.0054544 0.0080000 0.0046128
v -0.0054544 0.0048000 0.0046128
v -0.0055182 0.0080000 0.0048531
v -0.0055182 0.0048000 0.0048531
v -0.0057279 0.0080000 0.0049920
v -0.0057279 0.0048000 0.0049920
v -0.0059607 0.0080000 0.0049481
v -0.0059607 0.0048000 0.0049481
v -0.0066223 0.0080000 0.0046739
v -0.0093777 0.0048000 0.0046740
v -0.0105456 0.0080000 0.0046128
v -0.0105456 0.0048000 0.0046128
v -0.0100393 0.0048000 0.0049481
v -0.0104818 0.0080000 0.0048531
v -0.0104818 0.0048000 0.0048531
v -0.0102721 0.0080000 0.0049920
v -0.0102721 0.0048000 0.0049920
v -0.0100393 0.0080000 0.0049481
v -0.0093777 0.0080000 0.0046739
v -0.0044000 0.0080000 0.0044000
v -0.0116000 0.0080000 0.0044000
v -0.0092246 0.0072000 0.0050435
v -0.0089185 0.0072000 0.0057826
v -0.0080000 0.0072000 0.0056000
v -0.0080000 0.0072000 0.0048000
v -0.0102627 0.0072000 0.0057373
v -0.0096970 0.0072000 0.0063030
v -0.0109565 0.0072000 0.0067754
v -0.0102174 0.0072000 0.0070815
v -0.0112000 0.0072000 0.0080000
v -0.0104000 0.0072000 0.0080000
v -0.0109565 0.0072000 0.0092246
v -0.0102174 0.0072000 0.0089185
v -0.0102627 0.0072000 0.0102627
v -0.0096970 0.0072000 0.0096970
v -0.0092246 0.0072000 0.0109565
v -0.0089185 0.0072000 0.0102174
v -0.0080000 0.0072000 0.0112000
v -0.0080000 0.0072000 0.0104000
v -0.0067754 0.0072000 0.0109565
v -0.0070815 0.0072000 0.0102174
v -0.0057373 0.0072000 0.0102627
v -0.0063030 0.0072000 0.0096970
v -0.0050435 0.0072000 0.0092246
v -0.0057826 0.0072000 0.0089185
v -0.0048000 0.0072000 0.0080000
v -0.0056000 0.0072000 0.0080000
v -0.0050435 0.0072000 0.0067754
v -0.0057826 0.0072000 0.0070815
v -0.0057373 0.0072000 0.0057373
v -0.0063030 0.0072000 0.0063030
v -0.0067754 0.0072000 0.0050435
v -0.0070815 0.0072000 0.0057826
v -0.0057826 0.0008000 0.0070815
v -0.0056000 0.0008000 0.0080000
v -0.0063030 0.0008000 0.0063030
v -0.0070815 0.0008000 0.0057826
v -0.0080000 0.0008000 0.0056000
v -0.0089185 0.0008000 0.0057826
v -0.0096970 0.0008000 0.0063030
v -0.0102174 0.0008000 0.0070815
v -0.0104000 0.0008000 0.0080000
v -0.0102174 0.0008000 0.0089185
v -0.0096970 0.0008000 0.0096970
v -0.0089185 0.0008000 0.0102174
v -0.0080000 0.0008000 0.0104000
v -0.0070815 0.0008000 0.0102174
v -0.0063030 0.0008000 0.0096970
v -0.0057826 0.0008000 0.0089185
v -0.0092246 0.0008000 0.0050435
v -0.0080000 0.0008000 0.0048000
v -0.0102627 0.0008000 0.0057373
v -0.0109565 0.0008000 0.0067754
v -0.0112000 0.0008000 0.0080000
v -0.0109565 0.0008000 0.0092246
v -0.0102627 0.0008000 0.0102627
v -0.0092246 0.0008000 0.0109565
v -0.0080000 0.0008000 0.0112000
v -0.0067754 0.0008000 0.0109565
v -0.0057373 0.0008000 0.0102627
v -0.0050435 0.0008000 0.0092246
v -0.0048000 0.0008000 0.0080000
v -0.0050435 0.0008000 0.0067754
v -0.0057373 0.0008000 0.0057373
v -0.0067754 0.0008000 0.0050435
v -0.0050435 0.0000000 0.0067754
v -0.0048000 0.0000000 0.0080000
v -0.0057373 0.0000000 0.0057373
v -0.0067754 0.0000000 0.0050435
v -0.0080000 0.0000000 0.0048000
v -0.0092246 0.0000000 0.0050435
v -0.0102627 0.0000000 0.0057373
v -0.0109565 0.0000000 0.0067754
v -0.0112000 0.0000000 0.0080000
v -0.0109565 0.0000000 0.0092246
v -0.0102627 0.0000000 0.0102627
v -0.0092246 0.0000000 0.0109565
v -0.0080000 0.0000000 0.0112000
v -0.0067754 0.0000000 0.0109565
v -0.0057373 0.0000000 0.0102627
v -0.0050435 0.0000000 0.0092246
v -0.0080000 0.0000000 0.0036000
v -0.0066223 0.0000000 0.0033260
v -0.0066223 0.0032000 0.0033260
v -0.0080000 0.0032000 0.0036000
v -0.0054544 0.0000000 0.0033872
v -0.0054544 0.0000000 0.0040000
v -0.0054544 0.0032000 0.0040000
v -0.0054544 0.0032000 0.0033872
v -0.0055182 0.0000000 0.0031469
v -0.0055182 0.0032000 0.0031469
v -0.0057279 0.0000000 0.0030080
v -0.0057279 0.0032000 0.0030080
v -0.0059607 0.0000000 0.0030519
v -0.0059607 0.0032000 0.0030519
v -0.0054544 0.0000000 0.0025456
v -0.0066223 0.0000000 0.0033261
v -0.0093777 0.0032000 0.0033260
v -0.0093777 0.0000000 0.0033260
v -0.0105456 0.0032000 0.0040000
v -0.0105456 0.0000000 0.0040000
v -0.0105456 0.0000000 0.0033872
v -0.0105456 0.0032000 0.0033872
v -0.0100393 0.0032000 0.0030519
v -0.0104818 0.0000000 0.0031469
v -0.0104818 0.0032000 0.0031469
v -0.0102721 0.0000000 0.0030080
v -0.0102721 0.0032000 0.0030080
v -0.0100393 0.0000000 0.0030519
v -0.0093777 0.0000000 0.0033261
v -0.0105456 0.0000000 0.0025456
v -0.0046740 0.0000000 0.0013777
v -0.0044000 0.0000000 0.0000000
v -0.0044000 0.0000000 0.0036000
v -0.0116000 0.0000000 0.0036000
v -0.0116000 0.0000000 0.0000000
v -0.0113260 0.0000000 0.0013777
v -0.0044000 0.0000000 0.0040000
v -0.0116000 0.0000000 0.0040000
v -0.0066223 0.0032000 0.0046740
v -0.0066223 0.0000000 0.0046740
v -0.0080000 0.0000000 0.0044000
v -0.0080000 0.0032000 0.0044000
v -0.0054544 0.0000000 0.0046128
v -0.0054544 0.0032000 0.0046128
v -0.0055182 0.0000000 0.0048531
v -0.0055182 0.0032000 0.0048531
v -0.0057279 0.0000000 0.0049920
v -0.0057279 0.0032000 0.0049920
v -0.0059607 0.0000000 0.0049481
v -0.0059607 0.0032000 0.0049481
v -0.0066223 0.0000000 0.0046739
v -0.0054544 0.0000000 0.0054544
v -0.0093777 0.0000000 0.0046740
v -0.0093777 0.0032000 0.0046740
v -0.0105456 0.0000000 0.0046128
v -0.0105456 0.0032000 0.0046128
v -0.0100393 0.0032000 0.0049481
v -0.0104818 0.0000000 0.0048531
v -0.0104818 0.0032000 0.0048531
v -0.0102721 0.0000000 0.0049920
v -0.0102721 0.0032000 0.0049920
v -0.0100393 0.0000000 0.0049481
v -0.0105456 0.0000000 0.0054544
v -0.0093777 0.0000000 0.0046739
v -0.0044000 0.0000000 0.0044000
v -0.0046740 0.0000000 0.0066223
v -0.0113260 0.0000000 0.0066223
v -0.0116000 0.0000000 0.0044000
v -0.0046740 0.0080000 -0.0013777
v -0.0050435 0.0080000 -0.0012246
v -0.0048000 0.0080000 0.0000000
v -0.0054544 0.0080000 -0.0025456
v -0.0057373 0.0080000 -0.0022627
v -0.0066223 0.0080000 -0.0033260
v -0.0067754 0.0080000 -0.0029565
v -0.0080000 0.0080000 -0.0036000
v -0.0080000 0.0080000 -0.0032000
v -0.0093777 0.0080000 -0.0033260
v -0.0092246 0.0080000 -0.0029565
v -0.0105456 0.0080000 -0.0025456
v -0.0102627 0.0080000 -0.0022627
v -0.0113260 0.0080000 -0.0013777
v -0.0109565 0.0080000 -0.0012246
v -0.0112000 0.0080000 0.0000000
v -0.0109565 0.0080000 0.0012246
v -0.0102627 0.0080000 0.0022627
v -0.0092246 0.0080000 0.0029565
v -0.0080000 0.0080000 0.0032000
v -0.0067754 0.0080000 0.0029565
v -0.0057373 0.0080000 0.0022627
v -0.0050435 0.0080000 0.0012246
v -0.0066223 0.0048000 -0.0046740
v -0.0066223 0.0080000 -0.0046740
v -0.0080000 0.0080000 -0.0044000
v -0.0080000 0.0048000 -0.0044000
v -0.0054544 0.0048000 -0.0040000
v -0.0054544 0.0080000 -0.0040000
v -0.0054544 0.0080000 -0.0046128
v -0.0054544 0.0048000 -0.0046128
v -0.0055182 0.0080000 -0.0048531
v -0.0055182 0.0048000 -0.0048531
v -0.0057279 0.0080000 -0.0049920
v -0.0057279 0.0048000 -0.0049920
v -0.0059607 0.0080000 -0.0049481
v -0.0059607 0.0048000 -0.0049481
v -0.0066223 0.0080000 -0.0046739
v -0.0054544 0.0080000 -0.0054544
v -0.0093777 0.0080000 -0.0046740
v -0.0093777 0.0048000 -0.0046740
v -0.0105456 0.0080000 -0.0046128
v -0.0105456 0.0080000 -0.0040000
v -0.0105456 0.0048000 -0.0040000
v -0.0105456 0.0048000 -0.0046128
v -0.0100393 0.0048000 -0.0049481
v -0.0104818 0.0080000 -0.0048531
v -0.0104818 0.0048000 -0.0048531
v -0.0102721 0.0080000 -0.0049920
v -0.0102721 0.0048000 -0.0049920
v -0.0100393 0.0080000 -0.0049481
v -0.0105456 0.0080000 -0.0054544
v -0.0093777 0.0080000 -0.0046739
v -0.0044000 0.0080000 -0.0044000
v -0.0044000 0.0080000 -0.0080000
v -0.0046740 0.0080000 -0.0066223
v -0.0113260 0.0080000 -0.0066223
v -0.0116000 0.0080000 -0.0080000
v -0.0116000 0.0080000 -0.0044000
v -0.0044000 0.0080000 -0.0040000
v -0.0116000 0.0080000 -0.0040000
v -0.0066223 0.0048000 -0.0033260
v -0.0080000 0.0048000 -0.0036000
v -0.0054544 0.0080000 -0.0033872
v -0.0054544 0.0048000 -0.0033872
v -0.0055182 0.0080000 -0.0031469
v -0.0055182 0.0048000 -0.0031469
v -0.0057279 0.0080000 -0.0030080
v -0.0057279 0.0048000 -0.0030080
v -0.0059607 0.0080000 -0.0030519
v -0.0059607 0.0048000 -0.0030519
v -0.0066223 0.0080000 -0.0033261
v -0.0093777 0.0048000 -0.0033260
v -0.0105456 0.0080000 -0.0033872
v -0.0105456 0.0048000 -0.0033872
v -0.0100393 0.0048000 -0.0030519
v -0.0104818 0.0080000 -0.0031469
v -0.0104818 0.0048000 -0.0031469
v -0.0102721 0.0080000 -0.0030080
v -0.0102721 0.0048000 -0.0030080
v -0.0100393 0.0080000 -0.0030519
v -0.0093777 0.0080000 -0.0033261
v -0.0044000 0.0080000 -0.0036000
v -0.0116000 0.0080000 -0.0036000
v -0.0092246 0.0072000 -0.0029565
v -0.0089185 0.0072000 -0.0022174
v -0.0080000 0.0072000 -0.0024000
v -0.0080000 0.0072000 -0.0032000
v -0.0102627 0.0072000 -0.0022627
v -0.0096970 0.0072000 -0.0016970
v -0.0109565 0.0072000 -0.0012246
v -0.0102174 0.0072000 -0.0009185
v -0.0112000 0.0072000 0.0000000
v -0.0104000 0.0072000 0.0000000
v -0.0109565 0.0072000 0.0012246
v -0.0102174 0.0072000 0.0009185
v -0.0102627 0.0072000 0.0022627
v -0.0096970 0.0072000 0.0016970
v -0.0092246 0.0072000 0.0029565
v -0.0089185 0.0072000 0.0022174
v -0.0080000 0.0072000 0.0032000
v -0.0080000 0.0072000 0.0024000
v -0.0067754 0.0072000 0.0029565
v -0.0070815 0.0072000 0.0022174
v -0.0057373 0.0072000 0.0022627
v -0.0063030 0.0072000 0.0016970
v -0.0050435 0.0072000 0.0012246
v -0.0057826 0.0072000 0.0009185
v -0.0048000 0.0072000 0.0000000
v -0.0056000 0.0072000 0.0000000
v -0.0050435 0.0072000 -0.0012246
v -0.0057826 0.0072000 -0.0009185
v -0.0057373 0.0072000 -0.0022627
v -0.0063030 0.0072000 -0.0016970
v -0.0067754 0.0072000 -0.0029565
v -0.0070815 0.0072000 -0.0022174
v -0.0057826 0.0008000 -0.0009185
v -0.0056000 0.0008000 0.0000000
v -0.0063030 0.0008000 -0.0016970
v -0.0070815 0.0008000 -0.0022174
v -0.0080000 0.0008000 -0.0024000
v -0.0089185 0.0008000 -0.0022174
v -0.0096970 0.0008000 -0.0016970
v -0.0102174 0.0008000 -0.0009185
v -0.0104000 0.0008000 0.0000000
v -0.0102174 0.0008000 0.0009185
v -0.0096970 0.0008000 0.0016970
v -0.0089185 0.0008000 0.0022174
v -0.0080000 0.0008000 0.0024000
v -0.0070815 0.0008000 0.0022174
v -0.0063030 0.0008000 0.0016970
v -0.0057826 0.0008000 0.0009185
v -0.0092246 0.0008000 -0.0029565
v -0.0080000 0.0008000 -0.0032000
v -0.0102627 0.0008000 -0.0022627
v -0.0109565 0.0008000 -0.0012246
v -0.0112000 0.0008000 0.0000000
v -0.0109565 0.0008000 0.0012246
v -0.0102627 0.0008000 0.0022627
v -0.0092246 0.0008000 0.0029565
v -0.0080000 0.0008000 0.0032000
v -0.0067754 0.0008000 0.0029565
v -0.0057373 0.0008000 0.0022627
v -0.0050435 0.0008000 0.0012246
v -0.0048000 0.0008000 0.0000000
v -0.0050435 0.0008000 -0.0012246
v -0.0057373 0.0008000 -0.0022627
v -0.0067754 0.0008000 -0.0029565
v -0.0050435 0.0000000 -0.0012246
v -0.0048000 0.0000000 0.0000000
v -0.0057373 0.0000000 -0.0022627
v -0.0067754 0.0000000 -0.0029565
v -0.0080000 0.0000000 -0.0032000
v -0.0092246 0.0000000 -0.0029565
v -0.0102627 0.0000000 -0.0022627
v -0.0109565 0.0000000 -0.0012246
v -0.0112000 0.0000000 0.0000000
v -0.0109565 0.0000000 0.0012246
v -0.0102627 0.0000000 0.0022627
v -0.0092246 0.0000000 0.0029565
v -0.0080000 0.0000000 0.0032000
v -0.0067754 0.0000000 0.0029565
v -0.0057373 0.0000000 0.0022627
v -0.0050435 0.0000000 0.0012246
v -0.0080000 0.0000000 -0.0044000
v -0.0066223 0.0000000 -0.0046740
v -0.0066223 0.0032000 -0.0046740
v -0.0080000 0.0032000 -0.0044000
v -0.0054544 0.0000000 -0.0046128
v -0.0054544 0.0000000 -0.0040000
v -0.0054544 0.0032000 -0.0040000
v -0.0054544 0.0032000 -0.0046128
v -0.0055182 0.0000000 -0.0048531
v -0.0055182 0.0032000 -0.0048531
v -0.0057279 0.0000000 -0.0049920
v -0.0057279 0.0032000 -0.0049920
v -0.0059607 0.0000000 -0.0049481
v -0.0059607 0.0032000 -0.0049481
v -0.0054544 0.0000000 -0.0054544
v -0.0066223 0.0000000 -0.0046739
v -0.0093777 0.0032000 -0.0046740
v -0.0093777 0.0000000 -0.0046740
v -0.0105456 0.0032000 -0.0040000
v -0.0105456 0.0000000 -0.0040000
v -0.0105456 0.0000000 -0.0046128
v -0.0105456 0.0032000 -0.0046128
v -0.0100393 0.0032000 -0.0049481
v -0.0104818 0.0000000 -0.0048531
v -0.0104818 0.0032000 -0.0048531
v -0.0102721 0.0000000 -0.0049920
v -0.0102721 0.0032000 -0.0049920
v -0.0100393 0.0000000 -0.0049481
v -0.0093777 0.0000000 -0.0046739
v -0.0105456 0.0000000 -0.0054544
v -0.0046740 0.0000000 -0.0066223
v -0.0044000 0.0000000 -0.0080000
v -0.0044000 0.0000000 -0.0044000
v -0.0116000 0.0000000 -0.0044000
v -0.0116000 0.0000000 -0.0080000
v -0.0113260 0.0000000 -0.0066223
v -0.0044000 0.0000000 -0.0040000
v -0.0116000 0.0000000 -0.0040000
v -0.0066223 0.0032000 -0.0033260
v -0.0066223 0.0000000 -0.0033260
v -0.0080000 0.0000000 -0.0036000
v -0.0080000 0.0032000 -0.0036000
v -0.0054544 0.0000000 -0.0033872
v -0.0054544 0.0032000 -0.0033872
v -0.0055182 0.0000000 -0.0031469
v -0.0055182 0.0032000 -0.0031469
v -0.0057279 0.0000000 -0.0030080
v -0.0057279 0.0032000 -0.0030080
v -0.0059607 0.0000000 -0.0030519
v -0.0059607 0.0032000 -0.0030519
v -0.0066223 0.0000000 -0.0033261
v -0.0054544 0.0000000 -0.0025456
v -0.0093777 0.0000000 -0.0033260
v -0.0093777 0.0032000 -0.0033260
v -0.0105456 0.0000000 -0.0033872
v -0.0105456 0.0032000 -0.0033872
v -0.0100393 0.0032000 -0.0030519
v -0.0104818 0.0000000 -0.0031469
v -0.0104818 0.0032000 -0.0031469
v -0.0102721 0.0000000 -0.0030080
v -0.0102721 0.0032000 -0.0030080
v -0.0100393 0.0000000 -0.0030519
v -0.0105456 0.0000000 -0.0025456
v -0.0093777 0.0000000 -0.0033261
v -0.0044000 0.0000000 -0.0036000
v -0.0046740 0.0000000 -0.0013777
v -0.0113260 0.0000000 -0.0013777
v -0.0116000 0.0000000 -0.0036000
v 0.0066223 0.0080000 -0.0193260
v 0.0067754 0.0080000 -0.0189565
v 0.0080000 0.0080000 -0.0192000
v 0.0054544 0.0080000 -0.0185456
v 0.0057373 0.0080000 -0.0182627
v 0.0046740 0.0080000 -0.0173777
v 0.0050435 0.0080000 -0.0172246
v 0.0044000 0.0080000 -0.0160000
v 0.0048000 0.0080000 -0.0160000
v 0.0046740 0.0080000 -0.0146223
v 0.0050435 0.0080000 -0.0147754
v 0.0054544 0.0080000 -0.0134544
v 0.0057373 0.0080000 -0.0137373
v 0.0066223 0.0080000 -0.0126740
v 0.0067754 0.0080000 -0.0130435
v 0.0080000 0.0080000 -0.0128000
v 0.0092246 0.0080000 -0.0130435
v 0.0102627 0.0080000 -0.0137373
v 0.0109565 0.0080000 -0.0147754
v 0.0112000 0.0080000 -0.0160000
v 0.0109565 0.0080000 -0.0172246
v 0.0102627 0.0080000 -0.0182627
v 0.0092246 0.0080000 -0.0189565
v 0.0033260 0.0048000 -0.0173777
v 0.0033260 0.0080000 -0.0173777
v 0.0036000 0.0080000 -0.0160000
v 0.0036000 0.0048000 -0.0160000
v 0.0040000 0.0048000 -0.0185456
v 0.0040000 0.0080000 -0.0185456
v 0.0033872 0.0080000 -0.0185456
v 0.0033872 0.0048000 -0.0185456
v 0.0031469 0.0080000 -0.0184818
v 0.0031469 0.0048000 -0.0184818
v 0.0030080 0.0080000 -0.0182721
v 0.0030080 0.0048000 -0.0182721
v 0.0030519 0.0080000 -0.0180393
v 0.0030519 0.0048000 -0.0180393
v 0.0033261 0.0080000 -0.0173777
v 0.0025456 0.0080000 -0.0185456
v 0.0033260 0.0080000 -0.0146223
v 0.0033260 0.0048000 -0.0146223
v 0.0033872 0.0080000 -0.0134544
v 0.0040000 0.0080000 -0.0134544
v 0.0040000 0.0048000 -0.0134544
v 0.0033872 0.0048000 -0.0134544
v 0.0030519 0.0048000 -0.0139607
v 0.0031469 0.0080000 -0.0135182
v 0.0031469 0.0048000 -0.0135182
v 0.0030080 0.0080000 -0.0137279
v 0.0030080 0.0048000 -0.0137279
v 0.0030519 0.0080000 -0.0139607
v 0.0025456 0.0080000 -0.0134544
v 0.0033261 0.0080000 -0.0146223
v 0.0036000 0.0080000 -0.0196000
v 0.0000000 0.0080000 -0.0196000
v 0.0013777 0.0080000 -0.0193260
v 0.0013777 0.0080000 -0.0126740
v 0.0000000 0.0080000 -0.0124000
v 0.0036000 0.0080000 -0.0124000
v 0.0040000 0.0080000 -0.0196000
v 0.0040000 0.0080000 -0.0124000
v 0.0046740 0.0048000 -0.0173777
v 0.0044000 0.0048000 -0.0160000
v 0.0046128 0.0080000 -0.0185456
v 0.0046128 0.0048000 -0.0185456
v 0.0048531 0.0080000 -0.0184818
v 0.0048531 0.0048000 -0.0184818
v 0.0049920 0.0080000 -0.0182721
v 0.0049920 0.0048000 -0.0182721
v 0.0049481 0.0080000 -0.0180393
v 0.0049481 0.0048000 -0.0180393
v 0.0046739 0.0080000 -0.0173777
v 0.0046740 0.0048000 -0.0146223
v 0.0046128 0.0080000 -0.0134544
v 0.0046128 0.0048000 -0.0134544
v 0.0049481 0.0048000 -0.0139607
v 0.0048531 0.0080000 -0.0135182
v 0.0048531 0.0048000 -0.0135182
v 0.0049920 0.0080000 -0.0137279
v 0.0049920 0.0048000 -0.0137279
v 0.0049481 0.0080000 -0.0139607
v 0.0046739 0.0080000 -0.0146223
v 0.0044000 0.0080000 -0.0196000
v 0.0044000 0.0080000 -0.0124000
v 0.0050435 0.0072000 -0.0147754
v 0.0057826 0.0072000 -0.0150815
v 0.0056000 0.0072000 -0.0160000
v 0.0048000 0.0072000 -0.0160000
v 0.0057373 0.0072000 -0.0137373
v 0.0063030 0.0072000 -0.0143030
v 0.0067754 0.0072000 -0.0130435
v 0.0070815 0.0072000 -0.0137826
v 0.0080000 0.0072000 -0.0128000
v 0.0080000 0.0072000 -0.0136000
v 0.0092246 0.0072000 -0.0130435
v 0.0089185 0.0072000 -0.0137826
v 0.0102627 0.0072000 -0.0137373
v 0.0096970 0.0072000 -0.0143030
v 0.0109565 0.0072000 -0.0147754
v 0.0102174 0.0072000 -0.0150815
v 0.0112000 0.0072000 -0.0160000
v 0.0104000 0.0072000 -0.0160000
v 0.0109565 0.0072000 -0.0172246
v 0.0102174 0.0072000 -0.0169185
v 0.0102627 0.0072000 -0.0182627
v 0.0096970 0.0072000 -0.0176970
v 0.0092246 0.0072000 -0.0189565
v 0.0089185 0.0072000 -0.0182174
v 0.0080000 0.0072000 -0.0192000
v 0.0080000 0.0072000 -0.0184000
v 0.0067754 0.0072000 -0.0189565
v 0.0070815 0.0072000 -0.0182174
v 0.0057373 0.0072000 -0.0182627
v 0.0063030 0.0072000 -0.0176970
v 0.0050435 0.0072000 -0.0172246
v 0.0057826 0.0072000 -0.0169185
v 0.0070815 0.0008000 -0.0182174
v 0.0080000 0.0008000 -0.0184000
v 0.0063030 0.0008000 -0.0176970
v 0.0057826 0.0008000 -0.0169185
v 0.0056000 0.0008000 -0.0160000
v 0.0057826 0.0008000 -0.0150815
v 0.0063030 0.0008000 -0.0143030
v 0.0070815 0.0008000 -0.0137826
v 0.0080000 0.0008000 -0.0136000
v 0.0089185 0.0008000 -0.0137826
v 0.0096970 0.0008000 -0.0143030
v 0.0102174 0.0008000 -0.0150815
v 0.0104000 0.0008000 -0.0160000
v 0.0102174 0.0008000 -0.0169185
v 0.0096970 0.0008000 -0.0176970
v 0.0089185 0.0008000 -0.0182174
v 0.0050435 0.0008000 -0.0147754
v 0.0048000 0.0008000 -0.0160000
v 0.0057373 0.0008000 -0.0137373
v 0.0067754 0.0008000 -0.0130435
v 0.0080000 0.0008000 -0.0128000
v 0.0092246 0.0008000 -0.0130435
v 0.0102627 0.0008000 -0.0137373
v 0.0109565 0.0008000 -0.0147754
v 0.0112000 0.0008000 -0.0160000
v 0.0109565 0.0008000 -0.0172246
v 0.0102627 0.0008000 -0.0182627
v 0.0092246 0.0008000 -0.0189565
v 0.0080000 0.0008000 -0.0192000
v 0.0067754 0.0008000 -0.0189565
v 0.0057373 0.0008000 -0.0182627
v 0.0050435 0.0008000 -0.0172246
v 0.0067754 0.0000000 -0.0189565
v 0.0080000 0.0000000 -0.0192000
v 0.0057373 0.0000000 -0.0182627
v 0.0050435 0.0000000 -0.0172246
v 0.0048000 0.0000000 -0.0160000
v 0.0050435 0.0000000 -0.0147754
v 0.0057373 0.0000000 -0.0137373
v 0.0067754 0.0000000 -0.0130435
v 0.0080000 0.0000000 -0.0128000
v 0.0092246 0.0000000 -0.0130435
v 0.0102627 0.0000000 -0.0137373
v 0.0109565 0.0000000 -0.0147754
v 0.0112000 0.0000000 -0.0160000
v 0.0109565 0.0000000 -0.0172246
v 0.0102627 0.0000000 -0.0182627
v 0.0092246 0.0000000 -0.0189565
v 0.0036000 0.0000000 -0.0160000
v 0.0033260 0.0000000 -0.0173777
v 0.0033260 0.0032000 -0.0173777
v 0.0036000 0.0032000 -0.0160000
v 0.0033872 0.0000000 -0.0185456
v 0.0040000 0.0000000 -0.0185456
v 0.0040000 0.0032000 -0.0185456
v 0.0033872 0.0032000 -0.0185456
v 0.0031469 0.0000000 -0.0184818
v 0.0031469 0.0032000 -0.0184818
v 0.0030080 0.0000000 -0.0182721
v 0.0030080 0.0032000 -0.0182721
v 0.0030519 0.0000000 -0.0180393
v 0.0030519 0.0032000 -0.0180393
v 0.0025456 0.0000000 -0.0185456
v 0.0033261 0.0000000 -0.0173777
v 0.0033260 0.0032000 -0.0146223
v 0.0033260 0.0000000 -0.0146223
v 0.0040000 0.0032000 -0.0134544
v 0.0040000 0.0000000 -0.0134544
v 0.0033872 0.0000000 -0.0134544
v 0.0033872 0.0032000 -0.0134544
v 0.0030519 0.0032000 -0.0139607
v 0.0031469 0.0000000 -0.0135182
v 0.0031469 0.0032000 -0.0135182
v 0.0030080 0.0000000 -0.0137279
v 0.0030080 0.0032000 -0.0137279
v 0.0030519 0.0000000 -0.0139607
v 0.0033261 0.0000000 -0.0146223
v 0.0025456 0.0000000 -0.0134544
v 0.0013777 0.0000000 -0.0193260
v 0.0000000 0.0000000 -0.0196000
v 0.0036000 0.0000000 -0.0196000
v 0.0036000 0.0000000 -0.0124000
v 0.0000000 0.0000000 -0.0124000
v 0.0013777 0.0000000 -0.0126740
v 0.0040000 0.0000000 -0.0196000
v 0.0040000 0.0000000 -0.0124000
v 0.0046740 0.0032000 -0.0173777
v 0.0046740 0.0000000 -0.0173777
v 0.0044000 0.0000000 -0.0160000
v 0.0044000 0.0032000 -0.0160000
v 0.0046128 0.0000000 -0.0185456
v 0.0046128 0.0032000 -0.0185456
v 0.0048531 0.0000000 -0.0184818
v 0.0048531 0.0032000 -0.0184818
v 0.0049920 0.0000000 -0.0182721
v 0.0049920 0.0032000 -0.0182721
v 0.0049481 0.0000000 -0.0180393
v 0.0049481 0.0032000 -0.0180393
v 0.0046739 0.0000000 -0.0173777
v 0.0054544 0.0000000 -0.0185456
v 0.0046740 0.0000000 -0.0146223
v 0.0046740 0.0032000 -0.0146223
v 0.0046128 0.0000000 -0.0134544
v 0.0046128 0.0032000 -0.0134544
v 0.0049481 0.0032000 -0.0139607
v 0.0048531 0.0000000 -0.0135182
v 0.0048531 0.0032000 -0.0135182
v 0.0049920 0.0000000 -0.0137279
v 0.0049920 0.0032000 -0.0137279
v 0.0049481 0.0000000 -0.0139607
v 0.0054544 0.0000000 -0.0134544
v 0.0046739 0.0000000 -0.0146223
v 0.0044000 0.0000000 -0.0196000
v 0.0066223 0.0000000 -0.0193260
v 0.0066223 0.0000000 -0.0126740
v 0.0044000 0.0000000 -0.0124000
v -0.0046740 0.0048000 -0.0173777
v -0.0046740 0.0080000 -0.0173777
v -0.0044000 0.0080000 -0.0160000
v -0.0044000 0.0048000 -0.0160000
v -0.0040000 0.0048000 -0.0185456
v -0.0040000 0.0080000 -0.0185456
v -0.0046128 0.0080000 -0.0185456
v -0.0046128 0.0048000 -0.0185456
v -0.0048531 0.0080000 -0.0184818
v -0.0048531 0.0048000 -0.0184818
v -0.0049920 0.0080000 -0.0182721
v -0.0049920 0.0048000 -0.0182721
v -0.0049481 0.0080000 -0.0180393
v -0.0049481 0.0048000 -0.0180393
v -0.0046739 0.0080000 -0.0173777
v -0.0054544 0.0080000 -0.0185456
v -0.0046740 0.0080000 -0.0146223
v -0.0046740 0.0048000 -0.0146223
v -0.0046128 0.0080000 -0.0134544
v -0.0040000 0.0080000 -0.0134544
v -0.0040000 0.0048000 -0.0134544
v -0.0046128 0.0048000 -0.0134544
v -0.0049481 0.0048000 -0.0139607
v -0.0048531 0.0080000 -0.0135182
v -0.0048531 0.0048000 -0.0135182
v -0.0049920 0.0080000 -0.0137279
v -0.0049920 0.0048000 -0.0137279
v -0.0049481 0.0080000 -0.0139607
v -0.0054544 0.0080000 -0.0134544
v -0.0046739 0.0080000 -0.0146223
v -0.0036000 0.0080000 -0.0160000
v -0.0033260 0.0080000 -0.0173777
v -0.0033260 0.0048000 -0.0173777
v -0.0036000 0.0048000 -0.0160000
v -0.0033872 0.0080000 -0.0185456
v -0.0033872 0.0048000 -0.0185456
v -0.0031469 0.0080000 -0.0184818
v -0.0031469 0.0048000 -0.0184818
v -0.0030080 0.0080000 -0.0182721
v -0.0030080 0.0048000 -0.0182721
v -0.0030519 0.0080000 -0.0180393
v -0.0030519 0.0048000 -0.0180393
v -0.0025456 0.0080000 -0.0185456
v -0.0033261 0.0080000 -0.0173777
v -0.0033260 0.0048000 -0.0146223
v -0.0033260 0.0080000 -0.0146223
v -0.0033872 0.0080000 -0.0134544
v -0.0033872 0.0048000 -0.0134544
v -0.0030519 0.0048000 -0.0139607
v -0.0031469 0.0080000 -0.0135182
v -0.0031469 0.0048000 -0.0135182
v -0.0030080 0.0080000 -0.0137279
v -0.0030080 0.0048000 -0.0137279
v -0.0030519 0.0080000 -0.0139607
v -0.0033261 0.0080000 -0.0146223
v -0.0025456 0.0080000 -0.0134544
v -0.0044000 0.0000000 -0.0160000
v -0.0046740 0.0000000 -0.0173777
v -0.0046740 0.0032000 -0.0173777
v -0.0044000 0.0032000 -0.0160000
v -0.0046128 0.0000000 -0.0185456
v -0.0040000 0.0000000 -0.0185456
v -0.0040000 0.0032000 -0.0185456
v -0.0046128 0.0032000 -0.0185456
v -0.0048531 0.0000000 -0.0184818
v -0.0048531 0.0032000 -0.0184818
v -0.0049920 0.0000000 -0.0182721
v -0.0049920 0.0032000 -0.0182721
v -0.0049481 0.0000000 -0.0180393
v -0.0049481 0.0032000 -0.0180393
v -0.0054544 0.0000000 -0.0185456
v -0.0046739 0.0000000 -0.0173777
v -0.0046740 0.0032000 -0.0146223
v -0.0046740 0.0000000 -0.0146223
v -0.0040000 0.0032000 -0.0134544
v -0.0040000 0.0000000 -0.0134544
v -0.0046128 0.0000000 -0.0134544
v -0.0046128 0.0032000 -0.0134544
v -0.0049481 0.0032000 -0.0139607
v -0.0048531 0.0000000 -0.0135182
v -0.0048531 0.0032000 -0.0135182
v -0.0049920 0.0000000 -0.0137279
v -0.0049920 0.0032000 -0.0137279
v -0.0049481 0.0000000 -0.0139607
v -0.0046739 0.0000000 -0.0146223
v -0.0054544 0.0000000 -0.0134544
v -0.0033260 0.0032000 -0.0173777
v -0.0033260 0.0000000 -0.0173777
v -0.0036000 0.0000000 -0.0160000
v -0.0036000 0.0032000 -0.0160000
v -0.0033872 0.0000000 -0.0185456
v -0.0033872 0.0032000 -0.0185456
v -0.0031469 0.0000000 -0.0184818
v -0.0031469 0.0032000 -0.0184818
v -0.0030080 0.0000000 -0.0182721
v -0.0030080 0.0032000 -0.0182721
v -0.0030519 0.0000000 -0.0180393
v -0.0030519 0.0032000 -0.0180393
v -0.0033261 0.0000000 -0.0173777
v -0.0025456 0.0000000 -0.0185456
v -0.0033260 0.0000000 -0.0146223
v -0.0033260 0.0032000 -0.0146223
v -0.0033872 0.0000000 -0.0134544
v -0.0033872 0.0032000 -0.0134544
v -0.0030519 0.0032000 -0.0139607
v -0.0031469 0.0000000 -0.0135182
v -0.0031469 0.0032000 -0.0135182
v -0.0030080 0.0000000 -0.0137279
v -0.0030080 0.0032000 -0.0137279
v -0.0030519 0.0000000 -0.0139607
v -0.0025456 0.0000000 -0.0134544
v -0.0033261 0.0000000 -0.0146223
v -0.0066223 0.0048000 -0.0126740
v -0.0066223 0.0080000 -0.0126740
v -0.0080000 0.0080000 -0.0124000
v -0.0080000 0.0048000 -0.0124000
v -0.0054544 0.0048000 -0.0120000
v -0.0054544 0.0080000 -0.0120000
v -0.0054544 0.0080000 -0.0126128
v -0.0054544 0.0048000 -0.0126128
v -0.0055182 0.0080000 -0.0128531
v -0.0055182 0.0048000 -0.0128531
v -0.0057279 0.0080000 -0.0129920
v -0.0057279 0.0048000 -0.0129920
v -0.0059607 0.0080000 -0.0129481
v -0.0059607 0.0048000 -0.0129481
v -0.0066223 0.0080000 -0.0126739
v -0.0093777 0.0080000 -0.0126740
v -0.0093777 0.0048000 -0.0126740
v -0.0105456 0.0080000 -0.0126128
v -0.0105456 0.0080000 -0.0120000
v -0.0105456 0.0048000 -0.0120000
v -0.0105456 0.0048000 -0.0126128
v -0.0100393 0.0048000 -0.0129481
v -0.0104818 0.0080000 -0.0128531
v -0.0104818 0.0048000 -0.0128531
v -0.0102721 0.0080000 -0.0129920
v -0.0102721 0.0048000 -0.0129920
v -0.0100393 0.0080000 -0.0129481
v -0.0105456 0.0080000 -0.0134544
v -0.0093777 0.0080000 -0.0126739
v -0.0080000 0.0080000 -0.0116000
v -0.0066223 0.0080000 -0.0113260
v -0.0066223 0.0048000 -0.0113260
v -0.0080000 0.0048000 -0.0116000
v -0.0054544 0.0080000 -0.0113872
v -0.0054544 0.0048000 -0.0113872
v -0.0055182 0.0080000 -0.0111469
v -0.0055182 0.0048000 -0.0111469
v -0.0057279 0.0080000 -0.0110080
v -0.0057279 0.0048000 -0.0110080
v -0.0059607 0.0080000 -0.0110519
v -0.0059607 0.0048000 -0.0110519
v -0.0054544 0.0080000 -0.0105456
v -0.0066223 0.0080000 -0.0113261
v -0.0093777 0.0048000 -0.0113260
v -0.0093777 0.0080000 -0.0113260
v -0.0105456 0.0080000 -0.0113872
v -0.0105456 0.0048000 -0.0113872
v -0.0100393 0.0048000 -0.0110519
v -0.0104818 0.0080000 -0.0111469
v -0.0104818 0.0048000 -0.0111469
v -0.0102721 0.0080000 -0.0110080
v -0.0102721 0.0048000 -0.0110080
v -0.0100393 0.0080000 -0.0110519
v -0.0093777 0.0080000 -0.0113261
v -0.0105456 0.0080000 -0.0105456
v -0.0080000 0.0000000 -0.0124000
v -0.0066223 0.0000000 -0.0126740
v -0.0066223 0.0032000 -0.0126740
v -0.0080000 0.0032000 -0.0124000
v -0.0054544 0.0000000 -0.0126128
v -0.0054544 0.0000000 -0.0120000
v -0.0054544 0.0032000 -0.0120000
v -0.0054544 0.0032000 -0.0126128
v -0.0055182 0.0000000 -0.0128531
v -0.0055182 0.0032000 -0.0128531
v -0.0057279 0.0000000 -0.0129920
v -0.0057279 0.0032000 -0.0129920
v -0.0059607 0.0000000 -0.0129481
v -0.0059607 0.0032000 -0.0129481
v -0.0066223 0.0000000 -0.0126739
v -0.0093777 0.0032000 -0.0126740
v -0.0093777 0.0000000 -0.0126740
v -0.0105456 0.0032000 -0.0120000
v -0.0105456 0.0000000 -0.0120000
v -0.0105456 0.0000000 -0.0126128
v -0.0105456 0.0032000 -0.0126128
v -0.0100393 0.0032000 -0.0129481
v -0.0104818 0.0000000 -0.0128531
v -0.0104818 0.0032000 -0.0128531
v -0.0102721 0.0000000 -0.0129920
v -0.0102721 0.0032000 -0.0129920
v -0.0100393 0.0000000 -0.0129481
v -0.0093777 0.0000000 -0.0126739
v -0.0105456 0.0000000 -0.0134544
v -0.0066223 0.0032000 -0.0113260
v -0.0066223 0.0000000 -0.0113260
v -0.0080000 0.0000000 -0.0116000
v -0.0080000 0.0032000 -0.0116000
v -0.0054544 0.0000000 -0.0113872
v -0.0054544 0.0032000 -0.0113872
v -0.0055182 0.0000000 -0.0111469
v -0.0055182 0.0032000 -0.0111469
v -0.0057279 0.0000000 -0.0110080
v -0.0057279 0.0032000 -0.0110080
v -0.0059607 0.0000000 -0.0110519
v -0.0059607 0.0032000 -0.0110519
v -0.0066223 0.0000000 -0.0113261
v -0.0054544 0.0000000 -0.0105456
v -0.0093777 0.0000000 -0.0113260
v -0.0093777 0.0032000 -0.0113260
v -0.0105456 0.0000000 -0.0113872
v -0.0105456 0.0032000 -0.0113872
v -0.0100393 0.0032000 -0.0110519
v -0.0104818 0.0000000 -0.0111469
v -0.0104818 0.0032000 -0.0111469
v -0.0102721 0.0000000 -0.0110080
v -0.0102721 0.0032000 -0.0110080
v -0.0100393 0.0000000 -0.0110519
v -0.0105456 0.0000000 -0.0105456
v -0.0093777 0.0000000 -0.0113261
v -0.0013777 0.0080000 -0.0193260
v -0.0036000 0.0080000 -0.0196000
v -0.0036000 0.0000000 -0.0196000
v -0.0013777 0.0000000 -0.0193260
v -0.0036000 0.0080000 -0.0124000
v -0.0013777 0.0080000 -0.0126740
v -0.0013777 0.0000000 -0.0126740
v -0.0036000 0.0000000 -0.0124000
v -0.0046740 0.0080000 -0.0093777
v -0.0044000 0.0080000 -0.0116000
v -0.0044000 0.0000000 -0.0116000
v -0.0046740 0.0000000 -0.0093777
v -0.0116000 0.0080000 -0.0116000
v -0.0113260 0.0080000 -0.0093777
v -0.0113260 0.0000000 -0.0093777
v -0.0116000 0.0000000 -0.0116000
v -0.0113260 0.0080000 -0.0146223
v -0.0116000 0.0080000 -0.0124000
v -0.0116000 0.0000000 -0.0124000
v -0.0113260 0.0000000 -0.0146223
v -0.0044000 0.0080000 -0.0196000
v -0.0066223 0.0080000 -0.0193260
v -0.0066223 0.0000000 -0.0193260
v -0.0044000 0.0000000 -0.0196000
v -0.0054560 0.0080000 -0.0185440
v -0.0054560 0.0000000 -0.0185440
v -0.0054560 0.0000000 -0.0134560
v -0.0054560 0.0000000 -0.0105440
v -0.0054560 0.0080000 -0.0105440
v -0.0054560 0.0080000 -0.0134560
v -0.0080000 0.0008000 -0.0104000
v -0.0089185 0.0008000 -0.0102174
v -0.0092246 0.0008000 -0.0109565
v -0.0080000 0.0008000 -0.0112000
v -0.0096970 0.0008000 -0.0096970
v -0.0102627 0.0008000 -0.0102627
v -0.0102174 0.0008000 -0.0089185
v -0.0109565 0.0008000 -0.0092246
v -0.0104000 0.0008000 -0.0080000
v -0.0112000 0.0008000 -0.0080000
v -0.0102174 0.0008000 -0.0070815
v -0.0109565 0.0008000 -0.0067754
v -0.0096970 0.0008000 -0.0063030
v -0.0102627 0.0008000 -0.0057373
v -0.0089185 0.0008000 -0.0057826
v -0.0092246 0.0008000 -0.0050435
v -0.0080000 0.0008000 -0.0056000
v -0.0080000 0.0008000 -0.0048000
v -0.0070815 0.0008000 -0.0057826
v -0.0067754 0.0008000 -0.0050435
v -0.0063030 0.0008000 -0.0063030
v -0.0057373 0.0008000 -0.0057373
v -0.0057826 0.0008000 -0.0070815
v -0.0050435 0.0008000 -0.0067754
v -0.0056000 0.0008000 -0.0080000
v -0.0048000 0.0008000 -0.0080000
v -0.0057826 0.0008000 -0.0089185
v -0.0050435 0.0008000 -0.0092246
v -0.0063030 0.0008000 -0.0096970
v -0.0057373 0.0008000 -0.0102627
v -0.0070815 0.0008000 -0.0102174
v -0.0067754 0.0008000 -0.0109565
v -0.0050435 0.0000000 -0.0092246
v -0.0048000 0.0000000 -0.0080000
v -0.0057373 0.0000000 -0.0102627
v -0.0067754 0.0000000 -0.0109565
v -0.0080000 0.0000000 -0.0112000
v -0.0092246 0.0000000 -0.0109565
v -0.0102627 0.0000000 -0.0102627
v -0.0109565 0.0000000 -0.0092246
v -0.0112000 0.0000000 -0.0080000
v -0.0109565 0.0000000 -0.0067754
v -0.0102627 0.0000000 -0.0057373
v -0.0092246 0.0000000 -0.0050435
v -0.0080000 0.0000000 -0.0048000
v -0.0067754 0.0000000 -0.0050435
v -0.0057373 0.0000000 -0.0057373
v -0.0050435 0.0000000 -0.0067754
v -0.0057826 0.0072000 -0.0089185
v -0.0056000 0.0072000 -0.0080000
v -0.0063030 0.0072000 -0.0096970
v -0.0070815 0.0072000 -0.0102174
v -0.0080000 0.0072000 -0.0104000
v -0.0089185 0.0072000 -0.0102174
v -0.0096970 0.0072000 -0.0096970
v -0.0102174 0.0072000 -0.0089185
v -0.0104000 0.0072000 -0.0080000
v -0.0102174 0.0072000 -0.0070815
v -0.0096970 0.0072000 -0.0063030
v -0.0089185 0.0072000 -0.0057826
v -0.0080000 0.0072000 -0.0056000
v -0.0070815 0.0072000 -0.0057826
v -0.0063030 0.0072000 -0.0063030
v -0.0057826 0.0072000 -0.0070815
v -0.0050435 0.0080000 -0.0092246
v -0.0048000 0.0080000 -0.0080000
v -0.0057373 0.0080000 -0.0102627
v -0.0067754 0.0080000 -0.0109565
v -0.0080000 0.0080000 -0.0112000
v -0.0092246 0.0080000 -0.0109565
v -0.0102627 0.0080000 -0.0102627
v -0.0109565 0.0080000 -0.0092246
v -0.0112000 0.0080000 -0.0080000
v -0.0109565 0.0080000 -0.0067754
v -0.0102627 0.0080000 -0.0057373
v -0.0092246 0.0080000 -0.0050435
v -0.0080000 0.0080000 -0.0048000
v -0.0067754 0.0080000 -0.0050435
v -0.0057373 0.0080000 -0.0057373
v -0.0050435 0.0080000 -0.0067754
v -0.0092246 0.0072000 -0.0109565
v -0.0080000 0.0072000 -0.0112000
v -0.0102627 0.0072000 -0.0102627
v -0.0109565 0.0072000 -0.0092246
v -0.0112000 0.0072000 -0.0080000
v -0.0109565 0.0072000 -0.0067754
v -0.0102627 0.0072000 -0.0057373
v -0.0092246 0.0072000 -0.0050435
v -0.0080000 0.0072000 -0.0048000
v -0.0067754 0.0072000 -0.0050435
v -0.0057373 0.0072000 -0.0057373
v -0.0050435 0.0072000 -0.0067754
v -0.0048000 0.0072000 -0.0080000
v -0.0050435 0.0072000 -0.0092246
v -0.0057373 0.0072000 -0.0102627
v -0.0067754 0.0072000 -0.0109565
v -0.0080000 0.0008000 -0.0184000
v -0.0089185 0.0008000 -0.0182174
v -0.0092246 0.0008000 -0.0189565
v -0.0080000 0.0008000 -0.0192000
v -0.0096970 0.0008000 -0.0176970
v -0.0102627 0.0008000 -0.0182627
v -0.0102174 0.0008000 -0.0169185
v -0.0109565 0.0008000 -0.0172246
v -0.0104000 0.0008000 -0.0160000
v -0.0112000 0.0008000 -0.0160000
v -0.0102174 0.0008000 -0.0150815
v -0.0109565 0.0008000 -0.0147754
v -0.0096970 0.0008000 -0.0143030
v -0.0102627 0.0008000 -0.0137373
v -0.0089185 0.0008000 -0.0137826
v -0.0092246 0.0008000 -0.0130435
v -0.0080000 0.0008000 -0.0136000
v -0.0080000 0.0008000 -0.0128000
v -0.0070815 0.0008000 -0.0137826
v -0.0067754 0.0008000 -0.0130435
v -0.0063030 0.0008000 -0.0143030
v -0.0057373 0.0008000 -0.0137373
v -0.0057826 0.0008000 -0.0150815
v -0.0050435 0.0008000 -0.0147754
v -0.0056000 0.0008000 -0.0160000
v -0.0048000 0.0008000 -0.0160000
v -0.0057826 0.0008000 -0.0169185
v -0.0050435 0.0008000 -0.0172246
v -0.0063030 0.0008000 -0.0176970
v -0.0057373 0.0008000 -0.0182627
v -0.0070815 0.0008000 -0.0182174
v -0.0067754 0.0008000 -0.0189565
v -0.0050435 0.0000000 -0.0172246
v -0.0048000 0.0000000 -0.0160000
v -0.0057373 0.0000000 -0.0182627
v -0.0067754 0.0000000 -0.0189565
v -0.0080000 0.0000000 -0.0192000
v -0.0092246 0.0000000 -0.0189565
v -0.0102627 0.0000000 -0.0182627
v -0.0109565 0.0000000 -0.0172246
v -0.0112000 0.0000000 -0.0160000
v -0.0109565 0.0000000 -0.0147754
v -0.0102627 0.0000000 -0.0137373
v -0.0092246 0.0000000 -0.0130435
v -0.0080000 0.0000000 -0.0128000
v -0.0067754 0.0000000 -0.0130435
v -0.0057373 0.0000000 -0.0137373
v -0.0050435 0.0000000 -0.0147754
v -0.0057826 0.0072000 -0.0169185
v -0.0056000 0.0072000 -0.0160000
v -0.0063030 0.0072000 -0.0176970
v -0.0070815 0.0072000 -0.0182174
v -0.0080000 0.0072000 -0.0184000
v -0.0089185 0.0072000 -0.0182174
v -0.0096970 0.0072000 -0.0176970
v -0.0102174 0.0072000 -0.0169185
v -0.0104000 0.0072000 -0.0160000
v -0.0102174 0.0072000 -0.0150815
v -0.0096970 0.0072000 -0.0143030
v -0.0089185 0.0072000 -0.0137826
v -0.0080000 0.0072000 -0.0136000
v -0.0070815 0.0072000 -0.0137826
v -0.0063030 0.0072000 -0.0143030
v -0.0057826 0.0072000 -0.0150815
v -0.0050435 0.0080000 -0.0172246
v -0.0048000 0.0080000 -0.0160000
v -0.0057373 0.0080000 -0.0182627
v -0.0067754 0.0080000 -0.0189565
v -0.0080000 0.0080000 -0.0192000
v -0.0092246 0.0080000 -0.0189565
v -0.0102627 0.0080000 -0.0182627
v -0.0109565 0.0080000 -0.0172246
v -0.0112000 0.0080000 -0.0160000
v -0.0109565 0.0080000 -0.0147754
v -0.0102627 0.0080000 -0.0137373
v -0.0092246 0.0080000 -0.0130435
v -0.0080000 0.0080000 -0.0128000
v -0.0067754 0.0080000 -0.0130435
v -0.0057373 0.0080000 -0.0137373
v -0.0050435 0.0080000 -0.0147754
v -0.0092246 0.0072000 -0.0189565
v -0.0080000 0.0072000 -0.0192000
v -0.0102627 0.0072000 -0.0182627
v -0.0109565 0.0072000 -0.0172246
v -0.0112000 0.0072000 -0.0160000
v -0.0109565 0.0072000 -0.0147754
v -0.0102627 0.0072000 -0.0137373
v -0.0092246 0.0072000 -0.0130435
v -0.0080000 0.0072000 -0.0128000
v -0.0067754 0.0072000 -0.0130435
v -0.0057373 0.0072000 -0.0137373
v -0.0050435 0.0072000 -0.0147754
v -0.0048000 0.0072000 -0.0160000
v -0.0050435 0.0072000 -0.0172246
v -0.0057373 0.0072000 -0.0182627
v -0.0067754 0.0072000 -0.0189565
v 0.0000000 0.0008000 -0.0184000
v -0.0009185 0.0008000 -0.0182174
v -0.0012246 0.0008000 -0.0189565
v 0.0000000 0.0008000 -0.0192000
v -0.0016970 0.0008000 -0.0176970
v -0.0022627 0.0008000 -0.0182627
v -0.0022174 0.0008000 -0.0169185
v -0.0029565 0.0008000 -0.0172246
v -0.0024000 0.0008000 -0.0160000
v -0.0032000 0.0008000 -0.0160000
v -0.0022174 0.0008000 -0.0150815
v -0.0029565 0.0008000 -0.0147754
v -0.0016970 0.0008000 -0.0143030
v -0.0022627 0.0008000 -0.0137373
v -0.0009185 0.0008000 -0.0137826
v -0.0012246 0.0008000 -0.0130435
v 0.0000000 0.0008000 -0.0136000
v 0.0000000 0.0008000 -0.0128000
v 0.0009185 0.0008000 -0.0137826
v 0.0012246 0.0008000 -0.0130435
v 0.0016970 0.0008000 -0.0143030
v 0.0022627 0.0008000 -0.0137373
v 0.0022174 0.0008000 -0.0150815
v 0.0029565 0.0008000 -0.0147754
v 0.0024000 0.0008000 -0.0160000
v 0.0032000 0.0008000 -0.0160000
v 0.0022174 0.0008000 -0.0169185
v 0.0029565 0.0008000 -0.0172246
v 0.0016970 0.0008000 -0.0176970
v 0.0022627 0.0008000 -0.0182627
v 0.0009185 0.0008000 -0.0182174
v 0.0012246 0.0008000 -0.0189565
v 0.0029565 0.0000000 -0.0172246
v 0.0032000 0.0000000 -0.0160000
v 0.0022627 0.0000000 -0.0182627
v 0.0012246 0.0000000 -0.0189565
v 0.0000000 0.0000000 -0.0192000
v -0.0012246 0.0000000 -0.0189565
v -0.0022627 0.0000000 -0.0182627
v -0.0029565 0.0000000 -0.0172246
v -0.0032000 0.0000000 -0.0160000
v -0.0029565 0.0000000 -0.0147754
v -0.0022627 0.0000000 -0.0137373
v -0.0012246 0.0000000 -0.0130435
v 0.0000000 0.0000000 -0.0128000
v 0.0012246 0.0000000 -0.0130435
v 0.0022627 0.0000000 -0.0137373
v 0.0029565 0.0000000 -0.0147754
v 0.0022174 0.0072000 -0.0169185
v 0.0024000 0.0072000 -0.0160000
v 0.0016970 0.0072000 -0.0176970
v 0.0009185 0.0072000 -0.0182174
v 0.0000000 0.0072000 -0.0184000
v -0.0009185 0.0072000 -0.0182174
v -0.0016970 0.0072000 -0.0176970
v -0.0022174 0.0072000 -0.0169185
v -0.0024000 0.0072000 -0.0160000
v -0.0022174 0.0072000 -0.0150815
v -0.0016970 0.0072000 -0.0143030
v -0.0009185 0.0072000 -0.0137826
v 0.0000000 0.0072000 -0.0136000
v 0.0009185 0.0072000 -0.0137826
v 0.0016970 0.0072000 -0.0143030
v 0.0022174 0.0072000 -0.0150815
v 0.0029565 0.0080000 -0.0172246
v 0.0032000 0.0080000 -0.0160000
v 0.0022627 0.0080000 -0.0182627
v 0.0012246 0.0080000 -0.0189565
v 0.0000000 0.0080000 -0.0192000
v -0.0012246 0.0080000 -0.0189565
v -0.0022627 0.0080000 -0.0182627
v -0.0029565 0.0080000 -0.0172246
v -0.0032000 0.0080000 -0.0160000
v -0.0029565 0.0080000 -0.0147754
v -0.0022627 0.0080000 -0.0137373
v -0.0012246 0.0080000 -0.0130435
v 0.0000000 0.0080000 -0.0128000
v 0.0012246 0.0080000 -0.0130435
v 0.0022627 0.0080000 -0.0137373
v 0.0029565 0.0080000 -0.0147754
v -0.0012246 0.0072000 -0.0189565
v 0.0000000 0.0072000 -0.0192000
v -0.0022627 0.0072000 -0.0182627
v -0.0029565 0.0072000 -0.0172246
v -0.0032000 0.0072000 -0.0160000
v -0.0029565 0.0072000 -0.0147754
v -0.0022627 0.0072000 -0.0137373
v -0.0012246 0.0072000 -0.0130435
v 0.0000000 0.0072000 -0.0128000
v 0.0012246 0.0072000 -0.0130435
v 0.0022627 0.0072000 -0.0137373
v 0.0029565 0.0072000 -0.0147754
v 0.0032000 0.0072000 -0.0160000
v 0.0029565 0.0072000 -0.0172246
v 0.0022627 0.0072000 -0.0182627
v 0.0012246 0.0072000 -0.0189565
f 1 2 3
f 4 1 3
f 2 5 6
f 3 2 6
f 5 7 8
f 6 5 8
f 7 9 10
f 8 7 10
f 9 11 12
f 10 9 12
f 11 13 14
f 12 11 14
f 13 15 16
f 14 13 16
f 15 17 18
f 16 15 18
f 17 19 20
f 18 17 20
f 21 1 4
f 22 21 4
f 23 24 25
f 26 23 25
f 24 27 28
f 25 24 28
f 27 29 30
f 28 27 30
f 29 31 32
f 30 29 32
f 31 33 34
f 32 31 34
f 33 35 36
f 34 33 36
f 35 37 38
f 36 35 38
f 37 39 40
f 38 37 40
f 40 39 21
f 22 40 21
f 41 42 20
f 19 41 20
f 43 44 42
f 41 43 42
f 45 46 44
f 43 45 44
f 47 48 46
f 45 47 46
f 1 49 50
f 1 50 51
f 49 52 53
f 49 53 50
f 52 54 55
f 52 55 53
f 54 56 57
f 54 57 55
f 56 58 59
f 56 59 57
f 58 60 61
f 58 61 59
f 60 62 63
f 60 63 61
f 62 17 64
f 62 64 63
f 17 15 65
f 17 65 64
f 15 13 66
f 15 66 65
f 13 11 67
f 13 67 66
f 11 9 68
f 11 68 67
f 9 7 69
f 9 69 68
f 7 5 70
f 7 70 69
f 5 2 71
f 5 71 70
f 2 1 51
f 2 51 71
f 72 73 74
f 72 74 75
f 76 77 78
f 76 78 79
f 72 75 76
f 79 78 80
f 81 79 80
f 81 80 82
f 83 81 82
f 83 82 84
f 85 83 84
f 81 83 85
f 81 85 79
f 86 84 87
f 84 82 87
f 87 82 80
f 87 80 78
f 74 88 89
f 75 74 89
f 90 91 92
f 93 90 92
f 93 92 89
f 93 89 94
f 95 90 93
f 95 93 96
f 97 95 96
f 97 96 98
f 99 97 98
f 99 98 94
f 94 98 96
f 93 94 96
f 100 99 101
f 97 99 100
f 97 100 95
f 95 100 90
f 79 85 72
f 79 72 76
f 89 92 75
f 75 92 76
f 84 86 72
f 84 72 85
f 88 99 94
f 88 94 89
f 102 103 104
f 102 104 87
f 105 106 107
f 100 105 107
f 102 87 78
f 102 78 77
f 102 77 108
f 107 90 100
f 107 109 91
f 107 91 90
f 56 54 110
f 111 56 110
f 112 77 76
f 113 112 76
f 76 111 110
f 114 112 113
f 114 113 115
f 116 114 115
f 116 115 117
f 118 116 117
f 118 117 119
f 119 117 115
f 113 119 115
f 52 118 120
f 52 116 118
f 114 116 52
f 112 114 52
f 121 58 56
f 121 56 111
f 92 91 122
f 92 122 123
f 121 92 123
f 124 121 123
f 123 122 125
f 126 123 125
f 126 125 127
f 128 126 127
f 128 127 129
f 124 128 129
f 126 128 124
f 126 124 123
f 130 129 60
f 60 129 127
f 125 60 127
f 122 60 125
f 110 119 113
f 76 110 113
f 111 92 121
f 76 92 111
f 110 120 118
f 119 110 118
f 124 129 58
f 121 124 58
f 49 1 131
f 52 49 131
f 132 17 62
f 132 62 60
f 112 52 131
f 77 112 131
f 108 77 131
f 60 122 132
f 91 109 132
f 122 91 132
f 133 134 135
f 133 135 136
f 137 138 134
f 137 134 133
f 139 140 138
f 139 138 137
f 141 142 140
f 141 140 139
f 143 144 142
f 143 142 141
f 145 146 144
f 145 144 143
f 147 148 146
f 147 146 145
f 149 150 148
f 149 148 147
f 151 152 150
f 151 150 149
f 153 154 152
f 153 152 151
f 155 156 154
f 155 154 153
f 157 158 156
f 157 156 155
f 159 160 158
f 159 158 157
f 161 162 160
f 161 160 159
f 163 164 162
f 163 162 161
f 136 135 164
f 136 164 163
f 50 159 157
f 51 50 157
f 53 161 159
f 50 53 159
f 55 163 161
f 53 55 161
f 57 136 163
f 55 57 163
f 59 133 136
f 57 59 136
f 61 137 133
f 59 61 133
f 63 139 137
f 61 63 137
f 64 141 139
f 63 64 139
f 65 143 141
f 64 65 141
f 66 145 143
f 65 66 143
f 67 147 145
f 66 67 145
f 68 149 147
f 67 68 147
f 69 151 149
f 68 69 149
f 70 153 151
f 69 70 151
f 71 155 153
f 70 71 153
f 51 157 155
f 71 51 155
f 160 165 166
f 158 160 166
f 162 167 165
f 160 162 165
f 164 168 167
f 162 164 167
f 135 169 168
f 164 135 168
f 134 170 169
f 135 134 169
f 138 171 170
f 134 138 170
f 140 172 171
f 138 140 171
f 142 173 172
f 140 142 172
f 144 174 173
f 142 144 173
f 146 175 174
f 144 146 174
f 148 176 175
f 146 148 175
f 150 177 176
f 148 150 176
f 152 178 177
f 150 152 177
f 154 179 178
f 152 154 178
f 156 180 179
f 154 156 179
f 158 166 180
f 156 158 180
f 169 170 181
f 182 169 181
f 170 171 183
f 181 170 183
f 171 172 184
f 183 171 184
f 172 173 185
f 184 172 185
f 173 174 186
f 185 173 186
f 174 175 187
f 186 174 187
f 175 176 188
f 187 175 188
f 176 177 189
f 188 176 189
f 177 178 190
f 189 177 190
f 178 179 191
f 190 178 191
f 179 180 192
f 191 179 192
f 180 166 193
f 192 180 193
f 166 165 194
f 193 166 194
f 165 167 195
f 194 165 195
f 167 168 196
f 195 167 196
f 168 169 182
f 196 168 182
f 193 194 197
f 193 197 198
f 194 195 199
f 194 199 197
f 195 196 200
f 195 200 199
f 196 182 201
f 196 201 200
f 182 181 202
f 182 202 201
f 181 183 203
f 181 203 202
f 183 184 204
f 183 204 203
f 184 185 205
f 184 205 204
f 185 186 206
f 185 206 205
f 186 187 207
f 186 207 206
f 187 188 208
f 187 208 207
f 188 189 209
f 188 209 208
f 189 190 210
f 189 210 209
f 190 191 211
f 190 211 210
f 191 192 212
f 191 212 211
f 192 193 198
f 192 198 212
f 213 214 215
f 216 213 215
f 217 218 219
f 220 217 219
f 219 216 215
f 221 217 220
f 221 220 222
f 223 221 222
f 223 222 224
f 225 223 224
f 225 224 226
f 226 224 222
f 220 226 222
f 227 225 228
f 227 223 225
f 221 223 227
f 217 221 227
f 229 230 213
f 229 213 216
f 231 232 233
f 231 233 234
f 229 231 234
f 235 229 234
f 234 233 236
f 237 234 236
f 237 236 238
f 239 237 238
f 239 238 240
f 235 239 240
f 237 239 235
f 237 235 234
f 241 240 242
f 242 240 238
f 236 242 238
f 233 242 236
f 215 226 220
f 219 215 220
f 216 231 229
f 219 231 216
f 215 228 225
f 226 215 225
f 235 240 230
f 229 235 230
f 243 244 245
f 227 243 245
f 246 247 248
f 246 248 242
f 217 227 245
f 218 217 245
f 249 218 245
f 242 233 246
f 232 250 246
f 233 232 246
f 251 252 253
f 251 253 254
f 219 218 255
f 219 255 256
f 251 254 219
f 256 255 257
f 258 256 257
f 258 257 259
f 260 258 259
f 260 259 261
f 262 260 261
f 258 260 262
f 258 262 256
f 263 261 264
f 261 259 264
f 264 259 257
f 264 257 255
f 253 265 266
f 254 253 266
f 267 232 231
f 268 267 231
f 268 231 266
f 268 266 269
f 270 267 268
f 270 268 271
f 272 270 271
f 272 271 273
f 274 272 273
f 274 273 269
f 269 273 271
f 268 269 271
f 275 274 276
f 272 274 275
f 272 275 270
f 270 275 267
f 256 262 251
f 256 251 219
f 266 231 254
f 254 231 219
f 261 263 251
f 261 251 262
f 265 274 269
f 265 269 266
f 277 4 278
f 277 278 264
f 279 18 280
f 275 279 280
f 277 264 255
f 277 255 218
f 277 218 249
f 280 267 275
f 280 250 232
f 280 232 267
f 197 278 4
f 198 197 4
f 199 264 278
f 197 199 278
f 200 252 264
f 199 200 264
f 201 253 252
f 200 201 252
f 202 265 253
f 201 202 253
f 203 275 265
f 202 203 265
f 204 279 275
f 203 204 275
f 205 18 279
f 204 205 279
f 206 16 18
f 205 206 18
f 207 14 16
f 206 207 16
f 208 12 14
f 207 208 14
f 209 10 12
f 208 209 12
f 210 8 10
f 209 210 10
f 211 6 8
f 210 211 8
f 212 3 6
f 211 212 6
f 198 4 3
f 212 198 3
f 103 281 282
f 103 282 283
f 281 284 285
f 281 285 282
f 284 286 287
f 284 287 285
f 286 288 289
f 286 289 287
f 288 290 291
f 288 291 289
f 290 292 293
f 290 293 291
f 292 294 295
f 292 295 293
f 294 106 296
f 294 296 295
f 106 105 297
f 106 297 296
f 105 100 298
f 105 298 297
f 100 88 299
f 100 299 298
f 88 74 300
f 88 300 299
f 74 73 301
f 74 301 300
f 73 87 302
f 73 302 301
f 87 104 303
f 87 303 302
f 104 103 283
f 104 283 303
f 304 305 306
f 304 306 307
f 308 309 310
f 308 310 311
f 304 307 308
f 311 310 312
f 313 311 312
f 313 312 314
f 315 313 314
f 315 314 316
f 317 315 316
f 313 315 317
f 313 317 311
f 318 316 319
f 316 314 319
f 319 314 312
f 319 312 310
f 306 320 321
f 307 306 321
f 322 323 324
f 325 322 324
f 325 324 321
f 325 321 326
f 327 322 325
f 327 325 328
f 329 327 328
f 329 328 330
f 331 329 330
f 331 330 326
f 326 330 328
f 325 326 328
f 332 331 333
f 329 331 332
f 329 332 327
f 327 332 322
f 311 317 304
f 311 304 308
f 321 324 307
f 307 324 308
f 316 318 304
f 316 304 317
f 320 331 326
f 320 326 321
f 334 335 336
f 334 336 319
f 337 338 339
f 332 337 339
f 334 319 310
f 334 310 309
f 334 309 340
f 339 322 332
f 339 341 323
f 339 323 322
f 288 286 342
f 343 288 342
f 344 309 308
f 345 344 308
f 308 343 342
f 346 344 345
f 346 345 347
f 348 346 347
f 348 347 349
f 350 348 349
f 350 349 351
f 351 349 347
f 345 351 347
f 284 350 352
f 284 348 350
f 346 348 284
f 344 346 284
f 353 290 288
f 353 288 343
f 324 323 354
f 324 354 355
f 353 324 355
f 356 353 355
f 355 354 357
f 358 355 357
f 358 357 359
f 360 358 359
f 360 359 361
f 356 360 361
f 358 360 356
f 358 356 355
f 362 361 292
f 292 361 359
f 357 292 359
f 354 292 357
f 342 351 345
f 308 342 345
f 343 324 353
f 308 324 343
f 342 352 350
f 351 342 350
f 356 361 290
f 353 356 290
f 281 103 363
f 284 281 363
f 364 106 294
f 364 294 292
f 344 284 363
f 309 344 363
f 340 309 363
f 292 354 364
f 323 341 364
f 354 323 364
f 365 366 367
f 365 367 368
f 369 370 366
f 369 366 365
f 371 372 370
f 371 370 369
f 373 374 372
f 373 372 371
f 375 376 374
f 375 374 373
f 377 378 376
f 377 376 375
f 379 380 378
f 379 378 377
f 381 382 380
f 381 380 379
f 383 384 382
f 383 382 381
f 385 386 384
f 385 384 383
f 387 388 386
f 387 386 385
f 389 390 388
f 389 388 387
f 391 392 390
f 391 390 389
f 393 394 392
f 393 392 391
f 395 396 394
f 395 394 393
f 368 367 396
f 368 396 395
f 282 391 389
f 283 282 389
f 285 393 391
f 282 285 391
f 287 395 393
f 285 287 393
f 289 368 395
f 287 289 395
f 291 365 368
f 289 291 368
f 293 369 365
f 291 293 365
f 295 371 369
f 293 295 369
f 296 373 371
f 295 296 371
f 297 375 373
f 296 297 373
f 298 377 375
f 297 298 375
f 299 379 377
f 298 299 377
f 300 381 379
f 299 300 379
f 301 383 381
f 300 301 381
f 302 385 383
f 301 302 383
f 303 387 385
f 302 303 385
f 283 389 387
f 303 283 387
f 392 397 398
f 390 392 398
f 394 399 397
f 392 394 397
f 396 400 399
f 394 396 399
f 367 401 400
f 396 367 400
f 366 402 401
f 367 366 401
f 370 403 402
f 366 370 402
f 372 404 403
f 370 372 403
f 374 405 404
f 372 374 404
f 376 406 405
f 374 376 405
f 378 407 406
f 376 378 406
f 380 408 407
f 378 380 407
f 382 409 408
f 380 382 408
f 384 410 409
f 382 384 409
f 386 411 410
f 384 386 410
f 388 412 411
f 386 388 411
f 390 398 412
f 388 390 412
f 401 402 413
f 414 401 413
f 402 403 415
f 413 402 415
f 403 404 416
f 415 403 416
f 404 405 417
f 416 404 417
f 405 406 418
f 417 405 418
f 406 407 419
f 418 406 419
f 407 408 420
f 419 407 420
f 408 409 421
f 420 408 421
f 409 410 422
f 421 409 422
f 410 411 423
f 422 410 423
f 411 412 424
f 423 411 424
f 412 398 425
f 424 412 425
f 398 397 426
f 425 398 426
f 397 399 427
f 426 397 427
f 399 400 428
f 427 399 428
f 400 401 414
f 428 400 414
f 425 426 429
f 425 429 430
f 426 427 431
f 426 431 429
f 427 428 432
f 427 432 431
f 428 414 433
f 428 433 432
f 414 413 434
f 414 434 433
f 413 415 435
f 413 435 434
f 415 416 436
f 415 436 435
f 416 417 437
f 416 437 436
f 417 418 438
f 417 438 437
f 418 419 439
f 418 439 438
f 419 420 440
f 419 440 439
f 420 421 441
f 420 441 440
f 421 422 442
f 421 442 441
f 422 423 443
f 422 443 442
f 423 424 444
f 423 444 443
f 424 425 430
f 424 430 444
f 445 446 447
f 448 445 447
f 449 450 451
f 452 449 451
f 451 448 447
f 453 449 452
f 453 452 454
f 455 453 454
f 455 454 456
f 457 455 456
f 457 456 458
f 458 456 454
f 452 458 454
f 459 457 460
f 459 455 457
f 453 455 459
f 449 453 459
f 461 462 445
f 461 445 448
f 463 464 465
f 463 465 466
f 461 463 466
f 467 461 466
f 466 465 468
f 469 466 468
f 469 468 470
f 471 469 470
f 471 470 472
f 467 471 472
f 469 471 467
f 469 467 466
f 473 472 474
f 474 472 470
f 468 474 470
f 465 474 468
f 447 458 452
f 451 447 452
f 448 463 461
f 451 463 448
f 447 460 457
f 458 447 457
f 467 472 462
f 461 467 462
f 475 476 477
f 459 475 477
f 478 479 480
f 478 480 474
f 449 459 477
f 450 449 477
f 481 450 477
f 474 465 478
f 464 482 478
f 465 464 478
f 483 484 485
f 483 485 486
f 451 450 487
f 451 487 488
f 483 486 451
f 488 487 489
f 490 488 489
f 490 489 491
f 492 490 491
f 492 491 493
f 494 492 493
f 490 492 494
f 490 494 488
f 495 493 496
f 493 491 496
f 496 491 489
f 496 489 487
f 485 497 498
f 486 485 498
f 499 464 463
f 500 499 463
f 500 463 498
f 500 498 501
f 502 499 500
f 502 500 503
f 504 502 503
f 504 503 505
f 506 504 505
f 506 505 501
f 501 505 503
f 500 501 503
f 507 506 508
f 504 506 507
f 504 507 502
f 502 507 499
f 488 494 483
f 488 483 451
f 498 463 486
f 486 463 451
f 493 495 483
f 493 483 494
f 497 506 501
f 497 501 498
f 509 244 510
f 509 510 496
f 511 247 512
f 507 511 512
f 509 496 487
f 509 487 450
f 509 450 481
f 512 499 507
f 512 482 464
f 512 464 499
f 429 510 244
f 430 429 244
f 431 496 510
f 429 431 510
f 432 484 496
f 431 432 496
f 433 485 484
f 432 433 484
f 434 497 485
f 433 434 485
f 435 507 497
f 434 435 497
f 436 511 507
f 435 436 507
f 437 247 511
f 436 437 511
f 438 248 247
f 437 438 247
f 439 242 248
f 438 439 248
f 440 230 242
f 439 440 242
f 441 213 230
f 440 441 230
f 442 214 213
f 441 442 213
f 443 227 214
f 442 443 214
f 444 243 227
f 443 444 227
f 430 244 243
f 444 430 243
f 335 513 514
f 335 514 515
f 513 516 517
f 513 517 514
f 516 518 519
f 516 519 517
f 518 520 521
f 518 521 519
f 520 522 523
f 520 523 521
f 522 524 525
f 522 525 523
f 524 526 527
f 524 527 525
f 526 338 528
f 526 528 527
f 338 337 529
f 338 529 528
f 337 332 530
f 337 530 529
f 332 320 531
f 332 531 530
f 320 306 532
f 320 532 531
f 306 305 533
f 306 533 532
f 305 319 534
f 305 534 533
f 319 336 535
f 319 535 534
f 336 335 515
f 336 515 535
f 536 537 538
f 536 538 539
f 540 541 542
f 540 542 543
f 536 539 540
f 543 542 544
f 545 543 544
f 545 544 546
f 547 545 546
f 547 546 548
f 549 547 548
f 545 547 549
f 545 549 543
f 550 548 551
f 548 546 551
f 551 546 544
f 551 544 542
f 538 552 553
f 539 538 553
f 554 555 556
f 557 554 556
f 557 556 553
f 557 553 558
f 559 554 557
f 559 557 560
f 561 559 560
f 561 560 562
f 563 561 562
f 563 562 558
f 558 562 560
f 557 558 560
f 564 563 565
f 561 563 564
f 561 564 559
f 559 564 554
f 543 549 536
f 543 536 540
f 553 556 539
f 539 556 540
f 548 550 536
f 548 536 549
f 552 563 558
f 552 558 553
f 566 567 568
f 566 568 551
f 569 570 571
f 564 569 571
f 566 551 542
f 566 542 541
f 566 541 572
f 571 554 564
f 571 573 555
f 571 555 554
f 520 518 574
f 575 520 574
f 576 541 540
f 577 576 540
f 540 575 574
f 578 576 577
f 578 577 579
f 580 578 579
f 580 579 581
f 582 580 581
f 582 581 583
f 583 581 579
f 577 583 579
f 516 582 584
f 516 580 582
f 578 580 516
f 576 578 516
f 585 522 520
f 585 520 575
f 556 555 586
f 556 586 587
f 585 556 587
f 588 585 587
f 587 586 589
f 590 587 589
f 590 589 591
f 592 590 591
f 592 591 593
f 588 592 593
f 590 592 588
f 590 588 587
f 594 593 524
f 524 593 591
f 589 524 591
f 586 524 589
f 574 583 577
f 540 574 577
f 575 556 585
f 540 556 575
f 574 584 582
f 583 574 582
f 588 593 522
f 585 588 522
f 513 335 595
f 516 513 595
f 596 338 526
f 596 526 524
f 576 516 595
f 541 576 595
f 572 541 595
f 524 586 596
f 555 573 596
f 586 555 596
f 597 598 599
f 597 599 600
f 601 602 598
f 601 598 597
f 603 604 602
f 603 602 601
f 605 606 604
f 605 604 603
f 607 608 606
f 607 606 605
f 609 610 608
f 609 608 607
f 611 612 610
f 611 610 609
f 613 614 612
f 613 612 611
f 615 616 614
f 615 614 613
f 617 618 616
f 617 616 615
f 619 620 618
f 619 618 617
f 621 622 620
f 621 620 619
f 623 624 622
f 623 622 621
f 625 626 624
f 625 624 623
f 627 628 626
f 627 626 625
f 600 599 628
f 600 628 627
f 514 623 621
f 515 514 621
f 517 625 623
f 514 517 623
f 519 627 625
f 517 519 625
f 521 600 627
f 519 521 627
f 523 597 600
f 521 523 600
f 525 601 597
f 523 525 597
f 527 603 601
f 525 527 601
f 528 605 603
f 527 528 603
f 529 607 605
f 528 529 605
f 530 609 607
f 529 530 607
f 531 611 609
f 530 531 609
f 532 613 611
f 531 532 611
f 533 615 613
f 532 533 613
f 534 617 615
f 533 534 615
f 535 619 617
f 534 535 617
f 515 621 619
f 535 515 619
f 624 629 630
f 622 624 630
f 626 631 629
f 624 626 629
f 628 632 631
f 626 628 631
f 599 633 632
f 628 599 632
f 598 634 633
f 599 598 633
f 602 635 634
f 598 602 634
f 604 636 635
f 602 604 635
f 606 637 636
f 604 606 636
f 608 638 637
f 606 608 637
f 610 639 638
f 608 610 638
f 612 640 639
f 610 612 639
f 614 641 640
f 612 614 640
f 616 642 641
f 614 616 641
f 618 643 642
f 616 618 642
f 620 644 643
f 618 620 643
f 622 630 644
f 620 622 644
f 633 634 645
f 646 633 645
f 634 635 647
f 645 634 647
f 635 636 648
f 647 635 648
f 636 637 649
f 648 636 649
f 637 638 650
f 649 637 650
f 638 639 651
f 650 638 651
f 639 640 652
f 651 639 652
f 640 641 653
f 652 640 653
f 641 642 654
f 653 641 654
f 642 643 655
f 654 642 655
f 643 644 656
f 655 643 656
f 644 630 657
f 656 644 657
f 630 629 658
f 657 630 658
f 629 631 659
f 658 629 659
f 631 632 660
f 659 631 660
f 632 633 646
f 660 632 646
f 657 658 661
f 657 661 662
f 658 659 663
f 658 663 661
f 659 660 664
f 659 664 663
f 660 646 665
f 660 665 664
f 646 645 666
f 646 666 665
f 645 647 667
f 645 667 666
f 647 648 668
f 647 668 667
f 648 649 669
f 648 669 668
f 649 650 670
f 649 670 669
f 650 651 671
f 650 671 670
f 651 652 672
f 651 672 671
f 652 653 673
f 652 673 672
f 653 654 674
f 653 674 673
f 654 655 675
f 654 675 674
f 655 656 676
f 655 676 675
f 656 657 662
f 656 662 676
f 677 678 679
f 680 677 679
f 681 682 683
f 684 681 683
f 683 680 679
f 685 681 684
f 685 684 686
f 687 685 686
f 687 686 688
f 689 687 688
f 689 688 690
f 690 688 686
f 684 690 686
f 691 689 692
f 691 687 689
f 685 687 691
f 681 685 691
f 693 694 677
f 693 677 680
f 695 696 697
f 695 697 698
f 693 695 698
f 699 693 698
f 698 697 700
f 701 698 700
f 701 700 702
f 703 701 702
f 703 702 704
f 699 703 704
f 701 703 699
f 701 699 698
f 705 704 706
f 706 704 702
f 700 706 702
f 697 706 700
f 679 690 684
f 683 679 684
f 680 695 693
f 683 695 680
f 679 692 689
f 690 679 689
f 699 704 694
f 693 699 694
f 707 708 709
f 691 707 709
f 710 711 712
f 710 712 706
f 681 691 709
f 682 681 709
f 713 682 709
f 706 697 710
f 696 714 710
f 697 696 710
f 715 716 717
f 715 717 718
f 683 682 719
f 683 719 720
f 715 718 683
f 720 719 721
f 722 720 721
f 722 721 723
f 724 722 723
f 724 723 725
f 726 724 725
f 722 724 726
f 722 726 720
f 727 725 728
f 725 723 728
f 728 723 721
f 728 721 719
f 717 729 730
f 718 717 730
f 731 696 695
f 732 731 695
f 732 695 730
f 732 730 733
f 734 731 732
f 734 732 735
f 736 734 735
f 736 735 737
f 738 736 737
f 738 737 733
f 733 737 735
f 732 733 735
f 739 738 740
f 736 738 739
f 736 739 734
f 734 739 731
f 720 726 715
f 720 715 683
f 730 695 718
f 718 695 683
f 725 727 715
f 725 715 726
f 729 738 733
f 729 733 730
f 741 476 742
f 741 742 728
f 743 479 744
f 739 743 744
f 741 728 719
f 741 719 682
f 741 682 713
f 744 731 739
f 744 714 696
f 744 696 731
f 661 742 476
f 662 661 476
f 663 728 742
f 661 663 742
f 664 716 728
f 663 664 728
f 665 717 716
f 664 665 716
f 666 729 717
f 665 666 717
f 667 739 729
f 666 667 729
f 668 743 739
f 667 668 739
f 669 479 743
f 668 669 743
f 670 480 479
f 669 670 479
f 671 474 480
f 670 671 480
f 672 462 474
f 671 672 474
f 673 445 462
f 672 673 462
f 674 446 445
f 673 674 445
f 675 459 446
f 674 675 446
f 676 475 459
f 675 676 459
f 662 476 475
f 676 662 475
f 23 745 746
f 23 746 747
f 745 748 749
f 745 749 746
f 748 750 751
f 748 751 749
f 750 752 753
f 750 753 751
f 752 754 755
f 752 755 753
f 754 756 757
f 754 757 755
f 756 758 759
f 756 759 757
f 758 39 760
f 758 760 759
f 39 37 761
f 39 761 760
f 37 35 762
f 37 762 761
f 35 33 763
f 35 763 762
f 33 31 764
f 33 764 763
f 31 29 765
f 31 765 764
f 29 27 766
f 29 766 765
f 27 24 767
f 27 767 766
f 24 23 747
f 24 747 767
f 768 769 770
f 768 770 771
f 772 773 774
f 772 774 775
f 768 771 772
f 775 774 776
f 777 775 776
f 777 776 778
f 779 777 778
f 779 778 780
f 781 779 780
f 777 779 781
f 777 781 775
f 782 780 783
f 780 778 783
f 783 778 776
f 783 776 774
f 770 784 785
f 771 770 785
f 786 787 788
f 789 786 788
f 789 788 785
f 789 785 790
f 791 786 789
f 791 789 792
f 793 791 792
f 793 792 794
f 795 793 794
f 795 794 790
f 790 794 792
f 789 790 792
f 796 795 797
f 793 795 796
f 793 796 791
f 791 796 786
f 775 781 768
f 775 768 772
f 785 788 771
f 771 788 772
f 780 782 768
f 780 768 781
f 784 795 790
f 784 790 785
f 798 799 800
f 798 800 783
f 801 802 803
f 796 801 803
f 798 783 774
f 798 774 773
f 798 773 804
f 803 786 796
f 803 805 787
f 803 787 786
f 752 750 806
f 807 752 806
f 808 773 772
f 809 808 772
f 772 807 806
f 810 808 809
f 810 809 811
f 812 810 811
f 812 811 813
f 814 812 813
f 814 813 815
f 815 813 811
f 809 815 811
f 748 814 816
f 748 812 814
f 810 812 748
f 808 810 748
f 817 754 752
f 817 752 807
f 788 787 818
f 788 818 819
f 817 788 819
f 820 817 819
f 819 818 821
f 822 819 821
f 822 821 823
f 824 822 823
f 824 823 825
f 820 824 825
f 822 824 820
f 822 820 819
f 826 825 756
f 756 825 823
f 821 756 823
f 818 756 821
f 806 815 809
f 772 806 809
f 807 788 817
f 772 788 807
f 806 816 814
f 815 806 814
f 820 825 754
f 817 820 754
f 745 23 827
f 748 745 827
f 828 39 758
f 828 758 756
f 808 748 827
f 773 808 827
f 804 773 827
f 756 818 828
f 787 805 828
f 818 787 828
f 829 830 831
f 829 831 832
f 833 834 830
f 833 830 829
f 835 836 834
f 835 834 833
f 837 838 836
f 837 836 835
f 839 840 838
f 839 838 837
f 841 842 840
f 841 840 839
f 843 844 842
f 843 842 841
f 845 846 844
f 845 844 843
f 847 848 846
f 847 846 845
f 849 850 848
f 849 848 847
f 851 852 850
f 851 850 849
f 853 854 852
f 853 852 851
f 855 856 854
f 855 854 853
f 857 858 856
f 857 856 855
f 859 860 858
f 859 858 857
f 832 831 860
f 832 860 859
f 746 855 853
f 747 746 853
f 749 857 855
f 746 749 855
f 751 859 857
f 749 751 857
f 753 832 859
f 751 753 859
f 755 829 832
f 753 755 832
f 757 833 829
f 755 757 829
f 759 835 833
f 757 759 833
f 760 837 835
f 759 760 835
f 761 839 837
f 760 761 837
f 762 841 839
f 761 762 839
f 763 843 841
f 762 763 841
f 764 845 843
f 763 764 843
f 765 847 845
f 764 765 845
f 766 849 847
f 765 766 847
f 767 851 849
f 766 767 849
f 747 853 851
f 767 747 851
f 856 861 862
f 854 856 862
f 858 863 861
f 856 858 861
f 860 864 863
f 858 860 863
f 831 865 864
f 860 831 864
f 830 866 865
f 831 830 865
f 834 867 866
f 830 834 866
f 836 868 867
f 834 836 867
f 838 869 868
f 836 838 868
f 840 870 869
f 838 840 869
f 842 871 870
f 840 842 870
f 844 872 871
f 842 844 871
f 846 873 872
f 844 846 872
f 848 874 873
f 846 848 873
f 850 875 874
f 848 850 874
f 852 876 875
f 850 852 875
f 854 862 876
f 852 854 876
f 865 866 877
f 878 865 877
f 866 867 879
f 877 866 879
f 867 868 880
f 879 867 880
f 868 869 881
f 880 868 881
f 869 870 882
f 881 869 882
f 870 871 883
f 882 870 883
f 871 872 884
f 883 871 884
f 872 873 885
f 884 872 885
f 873 874 886
f 885 873 886
f 874 875 887
f 886 874 887
f 875 876 888
f 887 875 888
f 876 862 889
f 888 876 889
f 862 861 890
f 889 862 890
f 861 863 891
f 890 861 891
f 863 864 892
f 891 863 892
f 864 865 878
f 892 864 878
f 889 890 893
f 889 893 894
f 890 891 895
f 890 895 893
f 891 892 896
f 891 896 895
f 892 878 897
f 892 897 896
f 878 877 898
f 878 898 897
f 877 879 899
f 877 899 898
f 879 880 900
f 879 900 899
f 880 881 901
f 880 901 900
f 881 882 902
f 881 902 901
f 882 883 903
f 882 903 902
f 883 884 904
f 883 904 903
f 884 885 905
f 884 905 904
f 885 886 906
f 885 906 905
f 886 887 907
f 886 907 906
f 887 888 908
f 887 908 907
f 888 889 894
f 888 894 908
f 909 910 911
f 912 909 911
f 913 914 915
f 916 913 915
f 915 912 911
f 917 913 916
f 917 916 918
f 919 917 918
f 919 918 920
f 921 919 920
f 921 920 922
f 922 920 918
f 916 922 918
f 923 921 924
f 923 919 921
f 917 919 923
f 913 917 923
f 925 926 909
f 925 909 912
f 927 928 929
f 927 929 930
f 925 927 930
f 931 925 930
f 930 929 932
f 933 930 932
f 933 932 934
f 935 933 934
f 935 934 936
f 931 935 936
f 933 935 931
f 933 931 930
f 937 936 938
f 938 936 934
f 932 938 934
f 929 938 932
f 911 922 916
f 915 911 916
f 912 927 925
f 915 927 912
f 911 924 921
f 922 911 921
f 931 936 926
f 925 931 926
f 939 940 941
f 923 939 941
f 942 943 944
f 942 944 938
f 913 923 941
f 914 913 941
f 945 914 941
f 938 929 942
f 928 946 942
f 929 928 942
f 947 948 949
f 947 949 950
f 915 914 951
f 915 951 952
f 947 950 915
f 952 951 953
f 954 952 953
f 954 953 955
f 956 954 955
f 956 955 957
f 958 956 957
f 954 956 958
f 954 958 952
f 959 957 960
f 957 955 960
f 960 955 953
f 960 953 951
f 949 961 962
f 950 949 962
f 963 928 927
f 964 963 927
f 964 927 962
f 964 962 965
f 966 963 964
f 966 964 967
f 968 966 967
f 968 967 969
f 970 968 969
f 970 969 965
f 965 969 967
f 964 965 967
f 971 970 972
f 968 970 971
f 968 971 966
f 966 971 963
f 952 958 947
f 952 947 915
f 962 927 950
f 950 927 915
f 957 959 947
f 957 947 958
f 961 970 965
f 961 965 962
f 973 26 974
f 973 974 960
f 975 40 976
f 971 975 976
f 973 960 951
f 973 951 914
f 973 914 945
f 976 963 971
f 976 946 928
f 976 928 963
f 893 974 26
f 894 893 26
f 895 960 974
f 893 895 974
f 896 948 960
f 895 896 960
f 897 949 948
f 896 897 948
f 898 961 949
f 897 898 949
f 899 971 961
f 898 899 961
f 900 975 971
f 899 900 971
f 901 40 975
f 900 901 975
f 902 38 40
f 901 902 40
f 903 36 38
f 902 903 38
f 904 34 36
f 903 904 36
f 905 32 34
f 904 905 34
f 906 30 32
f 905 906 32
f 907 28 30
f 906 907 30
f 908 25 28
f 907 908 28
f 894 26 25
f 908 894 25
f 977 978 979
f 977 979 980
f 981 982 983
f 981 983 984
f 977 980 981
f 984 983 985
f 986 984 985
f 986 985 987
f 988 986 987
f 988 987 989
f 990 988 989
f 986 988 990
f 986 990 984
f 991 989 992
f 989 987 992
f 992 987 985
f 992 985 983
f 979 993 994
f 980 979 994
f 995 996 997
f 998 995 997
f 998 997 994
f 998 994 999
f 1000 995 998
f 1000 998 1001
f 1002 1000 1001
f 1002 1001 1003
f 1004 1002 1003
f 1004 1003 999
f 999 1003 1001
f 998 999 1001
f 1005 1004 1006
f 1002 1004 1005
f 1002 1005 1000
f 1000 1005 995
f 984 990 977
f 984 977 981
f 994 997 980
f 980 997 981
f 989 991 977
f 989 977 990
f 993 1004 999
f 993 999 994
f 1007 1008 1009
f 1010 1007 1009
f 1011 982 981
f 1012 1011 981
f 981 1010 1009
f 1013 1011 1012
f 1013 1012 1014
f 1015 1013 1014
f 1015 1014 1016
f 1017 1015 1016
f 1017 1016 1018
f 1018 1016 1014
f 1012 1018 1014
f 1019 1017 1020
f 1019 1015 1017
f 1013 1015 1019
f 1011 1013 1019
f 1021 1022 1007
f 1021 1007 1010
f 997 996 1023
f 997 1023 1024
f 1021 997 1024
f 1025 1021 1024
f 1024 1023 1026
f 1027 1024 1026
f 1027 1026 1028
f 1029 1027 1028
f 1029 1028 1030
f 1025 1029 1030
f 1027 1029 1025
f 1027 1025 1024
f 1031 1030 1032
f 1032 1030 1028
f 1026 1032 1028
f 1023 1032 1026
f 1009 1018 1012
f 981 1009 1012
f 1010 997 1021
f 981 997 1010
f 1009 1020 1017
f 1018 1009 1017
f 1025 1030 1022
f 1021 1025 1022
f 1033 1034 1035
f 1036 1033 1035
f 1037 1038 1039
f 1040 1037 1039
f 1039 1036 1035
f 1041 1037 1040
f 1041 1040 1042
f 1043 1041 1042
f 1043 1042 1044
f 1045 1043 1044
f 1045 1044 1046
f 1046 1044 1042
f 1040 1046 1042
f 1047 1045 1048
f 1047 1043 1045
f 1041 1043 1047
f 1037 1041 1047
f 1049 1050 1033
f 1049 1033 1036
f 1051 1052 1053
f 1051 1053 1054
f 1049 1051 1054
f 1055 1049 1054
f 1054 1053 1056
f 1057 1054 1056
f 1057 1056 1058
f 1059 1057 1058
f 1059 1058 1060
f 1055 1059 1060
f 1057 1059 1055
f 1057 1055 1054
f 1061 1060 1062
f 1062 1060 1058
f 1056 1062 1058
f 1053 1062 1056
f 1035 1046 1040
f 1039 1035 1040
f 1036 1051 1049
f 1039 1051 1036
f 1035 1048 1045
f 1046 1035 1045
f 1055 1060 1050
f 1049 1055 1050
f 1063 1064 1065
f 1063 1065 1066
f 1039 1038 1067
f 1039 1067 1068
f 1063 1066 1039
f 1068 1067 1069
f 1070 1068 1069
f 1070 1069 1071
f 1072 1070 1071
f 1072 1071 1073
f 1074 1072 1073
f 1070 1072 1074
f 1070 1074 1068
f 1075 1073 1076
f 1073 1071 1076
f 1076 1071 1069
f 1076 1069 1067
f 1065 1077 1078
f 1066 1065 1078
f 1079 1052 1051
f 1080 1079 1051
f 1080 1051 1078
f 1080 1078 1081
f 1082 1079 1080
f 1082 1080 1083
f 1084 1082 1083
f 1084 1083 1085
f 1086 1084 1085
f 1086 1085 1081
f 1081 1085 1083
f 1080 1081 1083
f 1087 1086 1088
f 1084 1086 1087
f 1084 1087 1082
f 1082 1087 1079
f 1068 1074 1063
f 1068 1063 1039
f 1078 1051 1066
f 1066 1051 1039
f 1073 1075 1063
f 1073 1063 1074
f 1077 1086 1081
f 1077 1081 1078
f 1089 1090 1091
f 1089 1091 1092
f 1093 1094 1095
f 1093 1095 1096
f 1089 1092 1093
f 1096 1095 1097
f 1098 1096 1097
f 1098 1097 1099
f 1100 1098 1099
f 1100 1099 1101
f 1102 1100 1101
f 1098 1100 1102
f 1098 1102 1096
f 1103 1101 1005
f 1101 1099 1005
f 1005 1099 1097
f 1005 1097 1095
f 1091 1104 1105
f 1092 1091 1105
f 1106 1107 1108
f 1109 1106 1108
f 1109 1108 1105
f 1109 1105 1110
f 1111 1106 1109
f 1111 1109 1112
f 1113 1111 1112
f 1113 1112 1114
f 1115 1113 1114
f 1115 1114 1110
f 1110 1114 1112
f 1109 1110 1112
f 1116 1115 1117
f 1113 1115 1116
f 1113 1116 1111
f 1111 1116 1106
f 1096 1102 1089
f 1096 1089 1093
f 1105 1108 1092
f 1092 1108 1093
f 1101 1103 1089
f 1101 1089 1102
f 1104 1115 1110
f 1104 1110 1105
f 1118 1119 1120
f 1121 1118 1120
f 1122 1094 1093
f 1123 1122 1093
f 1093 1121 1120
f 1124 1122 1123
f 1124 1123 1125
f 1126 1124 1125
f 1126 1125 1127
f 1128 1126 1127
f 1128 1127 1129
f 1129 1127 1125
f 1123 1129 1125
f 1130 1128 1131
f 1130 1126 1128
f 1124 1126 1130
f 1122 1124 1130
f 1132 1133 1118
f 1132 1118 1121
f 1108 1107 1134
f 1108 1134 1135
f 1132 1108 1135
f 1136 1132 1135
f 1135 1134 1137
f 1138 1135 1137
f 1138 1137 1139
f 1140 1138 1139
f 1140 1139 1141
f 1136 1140 1141
f 1138 1140 1136
f 1138 1136 1135
f 1142 1141 1143
f 1143 1141 1139
f 1137 1143 1139
f 1134 1143 1137
f 1120 1129 1123
f 1093 1120 1123
f 1121 1108 1132
f 1093 1108 1121
f 1120 1131 1128
f 1129 1120 1128
f 1136 1141 1133
f 1132 1136 1133
f 1144 1145 1146
f 1147 1144 1146
f 1148 1149 1150
f 1151 1148 1150
f 1150 1147 1146
f 1152 1148 1151
f 1152 1151 1153
f 1154 1152 1153
f 1154 1153 1155
f 1156 1154 1155
f 1156 1155 1157
f 1157 1155 1153
f 1151 1157 1153
f 1062 1156 1158
f 1062 1154 1156
f 1152 1154 1062
f 1148 1152 1062
f 1159 1160 1144
f 1159 1144 1147
f 1161 1162 1163
f 1161 1163 1164
f 1159 1161 1164
f 1165 1159 1164
f 1164 1163 1166
f 1167 1164 1166
f 1167 1166 1168
f 1169 1167 1168
f 1169 1168 1170
f 1165 1169 1170
f 1167 1169 1165
f 1167 1165 1164
f 1171 1170 1172
f 1172 1170 1168
f 1166 1172 1168
f 1163 1172 1166
f 1146 1157 1151
f 1150 1146 1151
f 1147 1161 1159
f 1150 1161 1147
f 1146 1158 1156
f 1157 1146 1156
f 1165 1170 1160
f 1159 1165 1160
f 1173 1174 1175
f 1173 1175 1176
f 1150 1149 1177
f 1150 1177 1178
f 1173 1176 1150
f 1178 1177 1179
f 1180 1178 1179
f 1180 1179 1181
f 1182 1180 1181
f 1182 1181 1183
f 1184 1182 1183
f 1180 1182 1184
f 1180 1184 1178
f 1185 1183 1186
f 1183 1181 1186
f 1186 1181 1179
f 1186 1179 1177
f 1175 1187 1188
f 1176 1175 1188
f 1189 1162 1161
f 1190 1189 1161
f 1190 1161 1188
f 1190 1188 1191
f 1192 1189 1190
f 1192 1190 1193
f 1194 1192 1193
f 1194 1193 1195
f 1196 1194 1195
f 1196 1195 1191
f 1191 1195 1193
f 1190 1191 1193
f 1197 1196 1198
f 1194 1196 1197
f 1194 1197 1192
f 1192 1197 1189
f 1178 1184 1173
f 1178 1173 1150
f 1188 1161 1176
f 1176 1161 1150
f 1183 1185 1173
f 1183 1173 1184
f 1187 1196 1191
f 1187 1191 1188
f 1199 799 1200
f 1019 1199 1200
f 1201 940 1202
f 1201 1202 1076
f 1203 802 1204
f 1203 1204 1032
f 1205 943 1206
f 1087 1205 1206
f 1207 567 1208
f 1130 1207 1208
f 1209 708 1210
f 1209 1210 1186
f 1211 570 1212
f 1211 1212 1143
f 1213 711 1214
f 1197 1213 1214
f 1215 19 1216
f 1116 1215 1216
f 1217 20 1218
f 1217 1218 1172
f 1219 47 1220
f 1219 1220 992
f 1221 48 1222
f 1047 1221 1222
f 1200 1219 1223
f 1200 1223 1019
f 1224 1222 1201
f 1224 1201 1076
f 1206 22 1225
f 1206 1225 1087
f 1225 22 1209
f 1225 1209 1226
f 1197 1214 1217
f 1197 1217 1172
f 1227 1208 21
f 1227 21 1228
f 1203 1032 1228
f 1203 1228 21
f 1216 1211 1143
f 1216 1143 1116
f 1229 1230 1231
f 1232 1229 1231
f 1230 1233 1234
f 1231 1230 1234
f 1233 1235 1236
f 1234 1233 1236
f 1235 1237 1238
f 1236 1235 1238
f 1237 1239 1240
f 1238 1237 1240
f 1239 1241 1242
f 1240 1239 1242
f 1241 1243 1244
f 1242 1241 1244
f 1243 1245 1246
f 1244 1243 1246
f 1245 1247 1248
f 1246 1245 1248
f 1247 1249 1250
f 1248 1247 1250
f 1249 1251 1252
f 1250 1249 1252
f 1251 1253 1254
f 1252 1251 1254
f 1253 1255 1256
f 1254 1253 1256
f 1255 1257 1258
f 1256 1255 1258
f 1257 1259 1260
f 1258 1257 1260
f 1259 1229 1232
f 1260 1259 1232
f 1254 1256 1261
f 1254 1261 1262
f 1256 1258 1263
f 1256 1263 1261
f 1258 1260 1264
f 1258 1264 1263
f 1260 1232 1265
f 1260 1265 1264
f 1232 1231 1266
f 1232 1266 1265
f 1231 1234 1267
f 1231 1267 1266
f 1234 1236 1268
f 1234 1268 1267
f 1236 1238 1269
f 1236 1269 1268
f 1238 1240 1270
f 1238 1270 1269
f 1240 1242 1271
f 1240 1271 1270
f 1242 1244 1272
f 1242 1272 1271
f 1244 1246 1273
f 1244 1273 1272
f 1246 1248 1274
f 1246 1274 1273
f 1248 1250 1275
f 1248 1275 1274
f 1250 1252 1276
f 1250 1276 1275
f 1252 1254 1262
f 1252 1262 1276
f 708 707 1276
f 708 1276 1262
f 707 691 1275
f 707 1275 1276
f 691 678 1274
f 691 1274 1275
f 678 677 1273
f 678 1273 1274
f 677 694 1272
f 677 1272 1273
f 694 706 1271
f 694 1271 1272
f 706 712 1270
f 706 1270 1271
f 712 711 1269
f 712 1269 1270
f 711 1213 1268
f 711 1268 1269
f 1213 1197 1267
f 1213 1267 1268
f 1197 1187 1266
f 1197 1266 1267
f 1187 1175 1265
f 1187 1265 1266
f 1175 1174 1264
f 1175 1264 1265
f 1174 1186 1263
f 1174 1263 1264
f 1186 1210 1261
f 1186 1261 1263
f 1210 708 1262
f 1210 1262 1261
f 1277 1255 1253
f 1278 1277 1253
f 1279 1257 1255
f 1277 1279 1255
f 1280 1259 1257
f 1279 1280 1257
f 1281 1229 1259
f 1280 1281 1259
f 1282 1230 1229
f 1281 1282 1229
f 1283 1233 1230
f 1282 1283 1230
f 1284 1235 1233
f 1283 1284 1233
f 1285 1237 1235
f 1284 1285 1235
f 1286 1239 1237
f 1285 1286 1237
f 1287 1241 1239
f 1286 1287 1239
f 1288 1243 1241
f 1287 1288 1241
f 1289 1245 1243
f 1288 1289 1243
f 1290 1247 1245
f 1289 1290 1245
f 1291 1249 1247
f 1290 1291 1247
f 1292 1251 1249
f 1291 1292 1249
f 1278 1253 1251
f 1292 1278 1251
f 567 1207 1293
f 567 1293 1294
f 1207 1130 1295
f 1207 1295 1293
f 1130 1119 1296
f 1130 1296 1295
f 1119 1118 1297
f 1119 1297 1296
f 1118 1133 1298
f 1118 1298 1297
f 1133 1143 1299
f 1133 1299 1298
f 1143 1212 1300
f 1143 1300 1299
f 1212 570 1301
f 1212 1301 1300
f 570 569 1302
f 570 1302 1301
f 569 564 1303
f 569 1303 1302
f 564 552 1304
f 564 1304 1303
f 552 538 1305
f 552 1305 1304
f 538 537 1306
f 538 1306 1305
f 537 551 1307
f 537 1307 1306
f 551 568 1308
f 551 1308 1307
f 568 567 1294
f 568 1294 1308
f 1309 1282 1281
f 1309 1281 1310
f 1311 1283 1282
f 1311 1282 1309
f 1312 1284 1283
f 1312 1283 1311
f 1313 1285 1284
f 1313 1284 1312
f 1314 1286 1285
f 1314 1285 1313
f 1315 1287 1286
f 1315 1286 1314
f 1316 1288 1287
f 1316 1287 1315
f 1317 1289 1288
f 1317 1288 1316
f 1318 1290 1289
f 1318 1289 1317
f 1319 1291 1290
f 1319 1290 1318
f 1320 1292 1291
f 1320 1291 1319
f 1321 1278 1292
f 1321 1292 1320
f 1322 1277 1278
f 1322 1278 1321
f 1323 1279 1277
f 1323 1277 1322
f 1324 1280 1279
f 1324 1279 1323
f 1310 1281 1280
f 1310 1280 1324
f 1293 1322 1321
f 1294 1293 1321
f 1295 1323 1322
f 1293 1295 1322
f 1296 1324 1323
f 1295 1296 1323
f 1297 1310 1324
f 1296 1297 1324
f 1298 1309 1310
f 1297 1298 1310
f 1299 1311 1309
f 1298 1299 1309
f 1300 1312 1311
f 1299 1300 1311
f 1301 1313 1312
f 1300 1301 1312
f 1302 1314 1313
f 1301 1302 1313
f 1303 1315 1314
f 1302 1303 1314
f 1304 1316 1315
f 1303 1304 1315
f 1305 1317 1316
f 1304 1305 1316
f 1306 1318 1317
f 1305 1306 1317
f 1307 1319 1318
f 1306 1307 1318
f 1308 1320 1319
f 1307 1308 1319
f 1294 1321 1320
f 1308 1294 1320
f 1325 1326 1327
f 1328 1325 1327
f 1326 1329 1330
f 1327 1326 1330
f 1329 1331 1332
f 1330 1329 1332
f 1331 1333 1334
f 1332 1331 1334
f 1333 1335 1336
f 1334 1333 1336
f 1335 1337 1338
f 1336 1335 1338
f 1337 1339 1340
f 1338 1337 1340
f 1339 1341 1342
f 1340 1339 1342
f 1341 1343 1344
f 1342 1341 1344
f 1343 1345 1346
f 1344 1343 1346
f 1345 1347 1348
f 1346 1345 1348
f 1347 1349 1350
f 1348 1347 1350
f 1349 1351 1352
f 1350 1349 1352
f 1351 1353 1354
f 1352 1351 1354
f 1353 1355 1356
f 1354 1353 1356
f 1355 1325 1328
f 1356 1355 1328
f 1350 1352 1357
f 1350 1357 1358
f 1352 1354 1359
f 1352 1359 1357
f 1354 1356 1360
f 1354 1360 1359
f 1356 1328 1361
f 1356 1361 1360
f 1328 1327 1362
f 1328 1362 1361
f 1327 1330 1363
f 1327 1363 1362
f 1330 1332 1364
f 1330 1364 1363
f 1332 1334 1365
f 1332 1365 1364
f 1334 1336 1366
f 1334 1366 1365
f 1336 1338 1367
f 1336 1367 1366
f 1338 1340 1368
f 1338 1368 1367
f 1340 1342 1369
f 1340 1369 1368
f 1342 1344 1370
f 1342 1370 1369
f 1344 1346 1371
f 1344 1371 1370
f 1346 1348 1372
f 1346 1372 1371
f 1348 1350 1358
f 1348 1358 1372
f 1033 1050 1372
f 1033 1372 1358
f 1050 1062 1371
f 1050 1371 1372
f 1062 1145 1370
f 1062 1370 1371
f 1145 1144 1369
f 1145 1369 1370
f 1144 1160 1368
f 1144 1368 1369
f 1160 1172 1367
f 1160 1367 1368
f 1172 1218 1366
f 1172 1366 1367
f 1218 20 1365
f 1218 1365 1366
f 20 42 1364
f 20 1364 1365
f 42 44 1363
f 42 1363 1364
f 44 46 1362
f 44 1362 1363
f 46 48 1361
f 46 1361 1362
f 48 1221 1360
f 48 1360 1361
f 1221 1047 1359
f 1221 1359 1360
f 1047 1034 1357
f 1047 1357 1359
f 1034 1033 1358
f 1034 1358 1357
f 1373 1351 1349
f 1374 1373 1349
f 1375 1353 1351
f 1373 1375 1351
f 1376 1355 1353
f 1375 1376 1353
f 1377 1325 1355
f 1376 1377 1355
f 1378 1326 1325
f 1377 1378 1325
f 1379 1329 1326
f 1378 1379 1326
f 1380 1331 1329
f 1379 1380 1329
f 1381 1333 1331
f 1380 1381 1331
f 1382 1335 1333
f 1381 1382 1333
f 1383 1337 1335
f 1382 1383 1335
f 1384 1339 1337
f 1383 1384 1337
f 1385 1341 1339
f 1384 1385 1339
f 1386 1343 1341
f 1385 1386 1341
f 1387 1345 1343
f 1386 1387 1343
f 1388 1347 1345
f 1387 1388 1345
f 1374 1349 1347
f 1388 1374 1347
f 979 978 1389
f 979 1389 1390
f 978 992 1391
f 978 1391 1389
f 992 1220 1392
f 992 1392 1391
f 1220 47 1393
f 1220 1393 1392
f 47 45 1394
f 47 1394 1393
f 45 43 1395
f 45 1395 1394
f 43 41 1396
f 43 1396 1395
f 41 19 1397
f 41 1397 1396
f 19 1215 1398
f 19 1398 1397
f 1215 1116 1399
f 1215 1399 1398
f 1116 1104 1400
f 1116 1400 1399
f 1104 1091 1401
f 1104 1401 1400
f 1091 1090 1402
f 1091 1402 1401
f 1090 1005 1403
f 1090 1403 1402
f 1005 993 1404
f 1005 1404 1403
f 993 979 1390
f 993 1390 1404
f 1405 1378 1377
f 1405 1377 1406
f 1407 1379 1378
f 1407 1378 1405
f 1408 1380 1379
f 1408 1379 1407
f 1409 1381 1380
f 1409 1380 1408
f 1410 1382 1381
f 1410 1381 1409
f 1411 1383 1382
f 1411 1382 1410
f 1412 1384 1383
f 1412 1383 1411
f 1413 1385 1384
f 1413 1384 1412
f 1414 1386 1385
f 1414 1385 1413
f 1415 1387 1386
f 1415 1386 1414
f 1416 1388 1387
f 1416 1387 1415
f 1417 1374 1388
f 1417 1388 1416
f 1418 1373 1374
f 1418 1374 1417
f 1419 1375 1373
f 1419 1373 1418
f 1420 1376 1375
f 1420 1375 1419
f 1406 1377 1376
f 1406 1376 1420
f 1389 1418 1417
f 1390 1389 1417
f 1391 1419 1418
f 1389 1391 1418
f 1392 1420 1419
f 1391 1392 1419
f 1393 1406 1420
f 1392 1393 1420
f 1394 1405 1406
f 1393 1394 1406
f 1395 1407 1405
f 1394 1395 1405
f 1396 1408 1407
f 1395 1396 1407
f 1397 1409 1408
f 1396 1397 1408
f 1398 1410 1409
f 1397 1398 1409
f 1399 1411 1410
f 1398 1399 1410
f 1400 1412 1411
f 1399 1400 1411
f 1401 1413 1412
f 1400 1401 1412
f 1402 1414 1413
f 1401 1402 1413
f 1403 1415 1414
f 1402 1403 1414
f 1404 1416 1415
f 1403 1404 1415
f 1390 1417 1416
f 1404 1390 1416
f 1421 1422 1423
f 1424 1421 1423
f 1422 1425 1426
f 1423 1422 1426
f 1425 1427 1428
f 1426 1425 1428
f 1427 1429 1430
f 1428 1427 1430
f 1429 1431 1432
f 1430 1429 1432
f 1431 1433 1434
f 1432 1431 1434
f 1433 1435 1436
f 1434 1433 1436
f 1435 1437 1438
f 1436 1435 1438
f 1437 1439 1440
f 1438 1437 1440
f 1439 1441 1442
f 1440 1439 1442
f 1441 1443 1444
f 1442 1441 1444
f 1443 1445 1446
f 1444 1443 1446
f 1445 1447 1448
f 1446 1445 1448
f 1447 1449 1450
f 1448 1447 1450
f 1449 1451 1452
f 1450 1449 1452
f 1451 1421 1424
f 1452 1451 1424
f 1446 1448 1453
f 1446 1453 1454
f 1448 1450 1455
f 1448 1455 1453
f 1450 1452 1456
f 1450 1456 1455
f 1452 1424 1457
f 1452 1457 1456
f 1424 1423 1458
f 1424 1458 1457
f 1423 1426 1459
f 1423 1459 1458
f 1426 1428 1460
f 1426 1460 1459
f 1428 1430 1461
f 1428 1461 1460
f 1430 1432 1462
f 1430 1462 1461
f 1432 1434 1463
f 1432 1463 1462
f 1434 1436 1464
f 1434 1464 1463
f 1436 1438 1465
f 1436 1465 1464
f 1438 1440 1466
f 1438 1466 1465
f 1440 1442 1467
f 1440 1467 1466
f 1442 1444 1468
f 1442 1468 1467
f 1444 1446 1454
f 1444 1454 1468
f 909 926 1468
f 909 1468 1454
f 926 938 1467
f 926 1467 1468
f 938 944 1466
f 938 1466 1467
f 944 943 1465
f 944 1465 1466
f 943 1205 1464
f 943 1464 1465
f 1205 1087 1463
f 1205 1463 1464
f 1087 1077 1462
f 1087 1462 1463
f 1077 1065 1461
f 1077 1461 1462
f 1065 1064 1460
f 1065 1460 1461
f 1064 1076 1459
f 1064 1459 1460
f 1076 1202 1458
f 1076 1458 1459
f 1202 940 1457
f 1202 1457 1458
f 940 939 1456
f 940 1456 1457
f 939 923 1455
f 939 1455 1456
f 923 910 1453
f 923 1453 1455
f 910 909 1454
f 910 1454 1453
f 1469 1447 1445
f 1470 1469 1445
f 1471 1449 1447
f 1469 1471 1447
f 1472 1451 1449
f 1471 1472 1449
f 1473 1421 1451
f 1472 1473 1451
f 1474 1422 1421
f 1473 1474 1421
f 1475 1425 1422
f 1474 1475 1422
f 1476 1427 1425
f 1475 1476 1425
f 1477 1429 1427
f 1476 1477 1427
f 1478 1431 1429
f 1477 1478 1429
f 1479 1433 1431
f 1478 1479 1431
f 1480 1435 1433
f 1479 1480 1433
f 1481 1437 1435
f 1480 1481 1435
f 1482 1439 1437
f 1481 1482 1437
f 1483 1441 1439
f 1482 1483 1439
f 1484 1443 1441
f 1483 1484 1441
f 1470 1445 1443
f 1484 1470 1443
f 770 769 1485
f 770 1485 1486
f 769 783 1487
f 769 1487 1485
f 783 800 1488
f 783 1488 1487
f 800 799 1489
f 800 1489 1488
f 799 1199 1490
f 799 1490 1489
f 1199 1019 1491
f 1199 1491 1490
f 1019 1008 1492
f 1019 1492 1491
f 1008 1007 1493
f 1008 1493 1492
f 1007 1022 1494
f 1007 1494 1493
f 1022 1032 1495
f 1022 1495 1494
f 1032 1204 1496
f 1032 1496 1495
f 1204 802 1497
f 1204 1497 1496
f 802 801 1498
f 802 1498 1497
f 801 796 1499
f 801 1499 1498
f 796 784 1500
f 796 1500 1499
f 784 770 1486
f 784 1486 1500
f 1501 1474 1473
f 1501 1473 1502
f 1503 1475 1474
f 1503 1474 1501
f 1504 1476 1475
f 1504 1475 1503
f 1505 1477 1476
f 1505 1476 1504
f 1506 1478 1477
f 1506 1477 1505
f 1507 1479 1478
f 1507 1478 1506
f 1508 1480 1479
f 1508 1479 1507
f 1509 1481 1480
f 1509 1480 1508
f 1510 1482 1481
f 1510 1481 1509
f 1511 1483 1482
f 1511 1482 1510
f 1512 1484 1483
f 1512 1483 1511
f 1513 1470 1484
f 1513 1484 1512
f 1514 1469 1470
f 1514 1470 1513
f 1515 1471 1469
f 1515 1469 1514
f 1516 1472 1471
f 1516 1471 1515
f 1502 1473 1472
f 1502 1472 1516
f 1485 1514 1513
f 1486 1485 1513
f 1487 1515 1514
f 1485 1487 1514
f 1488 1516 1515
f 1487 1488 1515
f 1489 1502 1516
f 1488 1489 1516
f 1490 1501 1502
f 1489 1490 1502
f 1491 1503 1501
f 1490 1491 1501
f 1492 1504 1503
f 1491 1492 1503
f 1493 1505 1504
f 1492 1493 1504
f 1494 1506 1505
f 1493 1494 1505
f 1495 1507 1506
f 1494 1495 1506
f 1496 1508 1507
f 1495 1496 1507
f 1497 1509 1508
f 1496 1497 1508
f 1498 1510 1509
f 1497 1498 1509
f 1499 1511 1510
f 1498 1499 1510
f 1500 1512 1511
f 1499 1500 1511
f 1486 1513 1512
f 1500 1486 1512
f 47 23 26
f 47 26 48
