# Botball Lab: metres, +Y up, centred XZ, base Y=0
s off
v -0.0046000 0.0036000 0.0023204
v -0.0046000 0.0041184 0.0022172
v -0.0072000 0.0041184 0.0022172
v -0.0072000 0.0036000 0.0023204
v -0.0046000 0.0041184 -0.0022172
v -0.0046000 0.0036000 -0.0023204
v -0.0072000 0.0036000 -0.0023204
v -0.0072000 0.0041184 -0.0022172
v -0.0046000 0.0028000 -0.0023204
v -0.0046000 0.0022816 -0.0022172
v -0.0072000 0.0022816 -0.0022172
v -0.0072000 0.0028000 -0.0023204
v -0.0046000 0.0022816 0.0022172
v -0.0046000 0.0028000 0.0023204
v -0.0072000 0.0028000 0.0023204
v -0.0072000 0.0022816 0.0022172
v -0.0072000 0.0041952 0.0024020
v -0.0072000 0.0036000 0.0025204
v -0.0072000 0.0036000 -0.0025204
v -0.0072000 0.0041952 -0.0024020
v -0.0072000 0.0022048 -0.0024020
v -0.0072000 0.0028000 -0.0025204
v -0.0072000 0.0028000 0.0025204
v -0.0072000 0.0022048 0.0024020
v -0.0080000 0.0041952 0.0024020
v -0.0080000 0.0036000 0.0025204
v -0.0080000 0.0036000 -0.0025204
v -0.0080000 0.0041952 -0.0024020
v -0.0080000 0.0022048 -0.0024020
v -0.0080000 0.0028000 -0.0025204
v -0.0080000 0.0028000 0.0025204
v -0.0080000 0.0022048 0.0024020
v -0.0050000 0.0036000 0.0023204
v -0.0072000 0.0036000 0.0015204
v -0.0050000 0.0036000 0.0015204
v -0.0080000 0.0036000 0.0015204
v -0.0080000 0.0038124 0.0014784
v -0.0080000 0.0036000 -0.0015204
v -0.0080000 0.0038124 -0.0014784
v -0.0072000 0.0036000 -0.0015204
v -0.0050000 0.0036000 -0.0023204
v -0.0050000 0.0036000 -0.0015204
v -0.0050000 0.0028000 -0.0023204
v -0.0072000 0.0028000 -0.0015204
v -0.0050000 0.0028000 -0.0015204
v -0.0080000 0.0028000 -0.0015204
v -0.0080000 0.0025876 -0.0014784
v -0.0080000 0.0028000 0.0015204
v -0.0080000 0.0025876 0.0014784
v -0.0072000 0.0028000 0.0015204
v -0.0050000 0.0028000 0.0023204
v -0.0050000 0.0028000 0.0015204
v -0.0046000 0.0038124 0.0014784
v -0.0046000 0.0036000 0.0015204
v -0.0046000 0.0036000 -0.0015204
v -0.0046000 0.0038124 -0.0014784
v -0.0046000 0.0025876 -0.0014784
v -0.0046000 0.0028000 -0.0015204
v -0.0046000 0.0028000 0.0015204
v -0.0046000 0.0025876 0.0014784
v -0.0008000 0.0032000 0.0024000
v -0.0008000 0.0041185 0.0022174
v -0.0046000 0.0041185 0.0022174
v -0.0046000 0.0032000 0.0024000
v -0.0008000 0.0048970 0.0016970
v -0.0046000 0.0048970 0.0016970
v -0.0008000 0.0054174 0.0009185
v -0.0046000 0.0054174 0.0009185
v -0.0008000 0.0056000 -0.0000000
v -0.0046000 0.0056000 -0.0000000
v -0.0008000 0.0054174 -0.0009185
v -0.0046000 0.0054174 -0.0009185
v -0.0008000 0.0048970 -0.0016970
v -0.0046000 0.0048970 -0.0016970
v -0.0008000 0.0041185 -0.0022174
v -0.0046000 0.0041185 -0.0022174
v -0.0008000 0.0032000 -0.0024000
v -0.0046000 0.0032000 -0.0024000
v -0.0008000 0.0022815 -0.0022174
v -0.0046000 0.0022815 -0.0022174
v -0.0008000 0.0015030 -0.0016970
v -0.0046000 0.0015030 -0.0016970
v -0.0008000 0.0009826 -0.0009185
v -0.0046000 0.0009826 -0.0009185
v -0.0008000 0.0008000 -0.0000000
v -0.0046000 0.0008000 -0.0000000
v -0.0008000 0.0009826 0.0009185
v -0.0046000 0.0009826 0.0009185
v -0.0008000 0.0015030 0.0016970
v -0.0046000 0.0015030 0.0016970
v -0.0008000 0.0022815 0.0022174
v -0.0046000 0.0022815 0.0022174
v -0.0046000 0.0015029 -0.0016971
v -0.0072000 0.0015029 -0.0016971
v -0.0072000 0.0022816 -0.0022173
v -0.0046000 0.0022816 -0.0022173
v -0.0046000 0.0009827 -0.0009184
v -0.0072000 0.0009827 -0.0009184
v -0.0046000 0.0007999 -0.0000000
v -0.0072000 0.0007999 -0.0000000
v -0.0046000 0.0009827 0.0009184
v -0.0072000 0.0009827 0.0009184
v -0.0046000 0.0015029 0.0016971
v -0.0072000 0.0015029 0.0016971
v -0.0046000 0.0022816 0.0022173
v -0.0072000 0.0022816 0.0022173
v -0.0046000 0.0048971 0.0016971
v -0.0072000 0.0048971 0.0016971
v -0.0072000 0.0041184 0.0022173
v -0.0046000 0.0041184 0.0022173
v -0.0046000 0.0054173 0.0009184
v -0.0072000 0.0054173 0.0009184
v -0.0046000 0.0056001 0.0000000
v -0.0072000 0.0056001 0.0000000
v -0.0046000 0.0054173 -0.0009184
v -0.0072000 0.0054173 -0.0009184
v -0.0046000 0.0048971 -0.0016971
v -0.0072000 0.0048971 -0.0016971
v -0.0046000 0.0041184 -0.0022173
v -0.0072000 0.0041184 -0.0022173
v -0.0072000 0.0050385 0.0018385
v -0.0080000 0.0050385 0.0018385
v -0.0080000 0.0041950 0.0024021
v -0.0072000 0.0041950 0.0024021
v -0.0072000 0.0056021 0.0009950
v -0.0080000 0.0056021 0.0009950
v -0.0072000 0.0058001 0.0000000
v -0.0080000 0.0058001 0.0000000
v -0.0072000 0.0056021 -0.0009950
v -0.0080000 0.0056021 -0.0009950
v -0.0072000 0.0050385 -0.0018385
v -0.0080000 0.0050385 -0.0018385
v -0.0072000 0.0041950 -0.0024021
v -0.0080000 0.0041950 -0.0024021
v -0.0072000 0.0013615 -0.0018385
v -0.0080000 0.0013615 -0.0018385
v -0.0080000 0.0022050 -0.0024021
v -0.0072000 0.0022050 -0.0024021
v -0.0072000 0.0007979 -0.0009950
v -0.0080000 0.0007979 -0.0009950
v -0.0072000 0.0005999 -0.0000000
v -0.0080000 0.0005999 -0.0000000
v -0.0072000 0.0007979 0.0009950
v -0.0080000 0.0007979 0.0009950
v -0.0072000 0.0013615 0.0018385
v -0.0080000 0.0013615 0.0018385
v -0.0072000 0.0022050 0.0024021
v -0.0080000 0.0022050 0.0024021
v 0.0000000 0.0032000 0.0032000
v 0.0000000 0.0044246 0.0029565
v -0.0008000 0.0044246 0.0029565
v -0.0008000 0.0032000 0.0032000
v 0.0000000 0.0054627 0.0022627
v -0.0008000 0.0054627 0.0022627
v 0.0000000 0.0061565 0.0012246
v -0.0008000 0.0061565 0.0012246
v 0.0000000 0.0064000 -0.0000000
v -0.0008000 0.0064000 -0.0000000
v 0.0000000 0.0061565 -0.0012246
v -0.0008000 0.0061565 -0.0012246
v 0.0000000 0.0054627 -0.0022627
v -0.0008000 0.0054627 -0.0022627
v 0.0000000 0.0044246 -0.0029565
v -0.0008000 0.0044246 -0.0029565
v 0.0000000 0.0032000 -0.0032000
v -0.0008000 0.0032000 -0.0032000
v 0.0000000 0.0019754 -0.0029565
v -0.0008000 0.0019754 -0.0029565
v 0.0000000 0.0009373 -0.0022627
v -0.0008000 0.0009373 -0.0022627
v 0.0000000 0.0002435 -0.0012246
v -0.0008000 0.0002435 -0.0012246
v 0.0000000 0.0000000 -0.0000000
v -0.0008000 0.0000000 -0.0000000
v 0.0000000 0.0002435 0.0012246
v -0.0008000 0.0002435 0.0012246
v 0.0000000 0.0009373 0.0022627
v -0.0008000 0.0009373 0.0022627
v 0.0000000 0.0019754 0.0029565
v -0.0008000 0.0019754 0.0029565
v -0.0046000 0.0038123 0.0014782
v 0.0000000 0.0038123 0.0014782
v 0.0000000 0.0032000 0.0016000
v -0.0046000 0.0032000 0.0016000
v -0.0046000 0.0043314 0.0011314
v 0.0000000 0.0043314 0.0011314
v -0.0046000 0.0046782 0.0006123
v 0.0000000 0.0046782 0.0006123
v -0.0046000 0.0048000 -0.0000000
v 0.0000000 0.0048000 -0.0000000
v -0.0046000 0.0046782 -0.0006123
v 0.0000000 0.0046782 -0.0006123
v -0.0046000 0.0043314 -0.0011314
v 0.0000000 0.0043314 -0.0011314
v -0.0046000 0.0038123 -0.0014782
v 0.0000000 0.0038123 -0.0014782
v -0.0046000 0.0032000 -0.0016000
v 0.0000000 0.0032000 -0.0016000
v -0.0046000 0.0025877 -0.0014782
v 0.0000000 0.0025877 -0.0014782
v -0.0046000 0.0020686 -0.0011314
v 0.0000000 0.0020686 -0.0011314
v -0.0046000 0.0017218 -0.0006123
v 0.0000000 0.0017218 -0.0006123
v -0.0046000 0.0016000 -0.0000000
v 0.0000000 0.0016000 -0.0000000
v -0.0046000 0.0017218 0.0006123
v 0.0000000 0.0017218 0.0006123
v -0.0046000 0.0020686 0.0011314
v 0.0000000 0.0020686 0.0011314
v -0.0046000 0.0025877 0.0014782
v 0.0000000 0.0025877 0.0014782
v -0.0080000 0.0038123 0.0014782
v -0.0080000 0.0043314 0.0011314
v -0.0080000 0.0046782 0.0006123
v -0.0080000 0.0048000 0.0000000
v -0.0080000 0.0046782 -0.0006123
v -0.0080000 0.0043314 -0.0011314
v -0.0080000 0.0038123 -0.0014782
v -0.0080000 0.0025877 -0.0014782
v -0.0080000 0.0020686 -0.0011314
v -0.0080000 0.0017218 -0.0006123
v -0.0080000 0.0016000 -0.0000000
v -0.0080000 0.0017218 0.0006123
v -0.0080000 0.0020686 0.0011314
v -0.0080000 0.0025877 0.0014782
v -0.0080000 0.0041184 0.0022173
v -0.0080000 0.0048971 0.0016971
v -0.0080000 0.0054173 0.0009184
v -0.0080000 0.0056001 0.0000000
v -0.0080000 0.0054173 -0.0009184
v -0.0080000 0.0048971 -0.0016971
v -0.0080000 0.0041184 -0.0022173
v -0.0080000 0.0022816 -0.0022173
v -0.0080000 0.0015029 -0.0016971
v -0.0080000 0.0009827 -0.0009184
v -0.0080000 0.0007999 -0.0000000
v -0.0080000 0.0009827 0.0009184
v -0.0080000 0.0015029 0.0016971
v -0.0080000 0.0022816 0.0022173
v -0.0046304 0.0033531 -0.0023695
v -0.0047172 0.0034828 -0.0023437
v -0.0048469 0.0035696 -0.0023265
v -0.0046304 0.0030469 -0.0023695
v -0.0047172 0.0029172 -0.0023437
v -0.0048469 0.0028304 -0.0023265
v -0.0046304 0.0030469 0.0023695
v -0.0047172 0.0029172 0.0023437
v -0.0048469 0.0028304 0.0023265
v -0.0046304 0.0033531 0.0023695
v -0.0047172 0.0034828 0.0023437
v -0.0048469 0.0035696 0.0023265
v -0.0046304 0.0033531 -0.0015695
v -0.0047172 0.0034828 -0.0015437
v -0.0048469 0.0035696 -0.0015265
v -0.0046304 0.0030469 -0.0015695
v -0.0047172 0.0029172 -0.0015437
v -0.0048469 0.0028304 -0.0015265
v -0.0046304 0.0030469 0.0015695
v -0.0047172 0.0029172 0.0015437
v -0.0048469 0.0028304 0.0015265
v -0.0046304 0.0033531 0.0015695
v -0.0047172 0.0034828 0.0015437
v -0.0048469 0.0035696 0.0015265
v 0.0046000 0.0036000 -0.0023204
v 0.0046000 0.0041184 -0.0022172
v 0.0072000 0.0041184 -0.0022172
v 0.0072000 0.0036000 -0.0023204
v 0.0046000 0.0041184 0.0022172
v 0.0046000 0.0036000 0.0023204
v 0.0072000 0.0036000 0.0023204
v 0.0072000 0.0041184 0.0022172
v 0.0046000 0.0028000 0.0023204
v 0.0046000 0.0022816 0.0022172
v 0.0072000 0.0022816 0.0022172
v 0.0072000 0.0028000 0.0023204
v 0.0046000 0.0022816 -0.0022172
v 0.0046000 0.0028000 -0.0023204
v 0.0072000 0.0028000 -0.0023204
v 0.0072000 0.0022816 -0.0022172
v 0.0072000 0.0041952 -0.0024020
v 0.0072000 0.0036000 -0.0025204
v 0.0072000 0.0036000 0.0025204
v 0.0072000 0.0041952 0.0024020
v 0.0072000 0.0022048 0.0024020
v 0.0072000 0.0028000 0.0025204
v 0.0072000 0.0028000 -0.0025204
v 0.0072000 0.0022048 -0.0024020
v 0.0080000 0.0041952 -0.0024020
v 0.0080000 0.0036000 -0.0025204
v 0.0080000 0.0036000 0.0025204
v 0.0080000 0.0041952 0.0024020
v 0.0080000 0.0022048 0.0024020
v 0.0080000 0.0028000 0.0025204
v 0.0080000 0.0028000 -0.0025204
v 0.0080000 0.0022048 -0.0024020
v 0.0050000 0.0036000 -0.0023204
v 0.0072000 0.0036000 -0.0015204
v 0.0050000 0.0036000 -0.0015204
v 0.0080000 0.0036000 -0.0015204
v 0.0080000 0.0038124 -0.0014784
v 0.0080000 0.0036000 0.0015204
v 0.0080000 0.0038124 0.0014784
v 0.0072000 0.0036000 0.0015204
v 0.0050000 0.0036000 0.0023204
v 0.0050000 0.0036000 0.0015204
v 0.0050000 0.0028000 0.0023204
v 0.0072000 0.0028000 0.0015204
v 0.0050000 0.0028000 0.0015204
v 0.0080000 0.0028000 0.0015204
v 0.0080000 0.0025876 0.0014784
v 0.0080000 0.0028000 -0.0015204
v 0.0080000 0.0025876 -0.0014784
v 0.0072000 0.0028000 -0.0015204
v 0.0050000 0.0028000 -0.0023204
v 0.0050000 0.0028000 -0.0015204
v 0.0046000 0.0038124 -0.0014784
v 0.0046000 0.0036000 -0.0015204
v 0.0046000 0.0036000 0.0015204
v 0.0046000 0.0038124 0.0014784
v 0.0046000 0.0025876 0.0014784
v 0.0046000 0.0028000 0.0015204
v 0.0046000 0.0028000 -0.0015204
v 0.0046000 0.0025876 -0.0014784
v 0.0008000 0.0032000 -0.0024000
v 0.0008000 0.0041185 -0.0022174
v 0.0046000 0.0041185 -0.0022174
v 0.0046000 0.0032000 -0.0024000
v 0.0008000 0.0048970 -0.0016970
v 0.0046000 0.0048970 -0.0016970
v 0.0008000 0.0054174 -0.0009185
v 0.0046000 0.0054174 -0.0009185
v 0.0008000 0.0056000 -0.0000000
v 0.0046000 0.0056000 -0.0000000
v 0.0008000 0.0054174 0.0009185
v 0.0046000 0.0054174 0.0009185
v 0.0008000 0.0048970 0.0016970
v 0.0046000 0.0048970 0.0016970
v 0.0008000 0.0041185 0.0022174
v 0.0046000 0.0041185 0.0022174
v 0.0008000 0.0032000 0.0024000
v 0.0046000 0.0032000 0.0024000
v 0.0008000 0.0022815 0.0022174
v 0.0046000 0.0022815 0.0022174
v 0.0008000 0.0015030 0.0016970
v 0.0046000 0.0015030 0.0016970
v 0.0008000 0.0009826 0.0009185
v 0.0046000 0.0009826 0.0009185
v 0.0008000 0.0008000 -0.0000000
v 0.0046000 0.0008000 -0.0000000
v 0.0008000 0.0009826 -0.0009185
v 0.0046000 0.0009826 -0.0009185
v 0.0008000 0.0015030 -0.0016970
v 0.0046000 0.0015030 -0.0016970
v 0.0008000 0.0022815 -0.0022174
v 0.0046000 0.0022815 -0.0022174
v 0.0046000 0.0015029 0.0016971
v 0.0072000 0.0015029 0.0016971
v 0.0072000 0.0022816 0.0022173
v 0.0046000 0.0022816 0.0022173
v 0.0046000 0.0009827 0.0009184
v 0.0072000 0.0009827 0.0009184
v 0.0046000 0.0007999 0.0000000
v 0.0072000 0.0007999 0.0000000
v 0.0046000 0.0009827 -0.0009184
v 0.0072000 0.0009827 -0.0009184
v 0.0046000 0.0015029 -0.0016971
v 0.0072000 0.0015029 -0.0016971
v 0.0046000 0.0022816 -0.0022173
v 0.0072000 0.0022816 -0.0022173
v 0.0046000 0.0048971 -0.0016971
v 0.0072000 0.0048971 -0.0016971
v 0.0072000 0.0041184 -0.0022173
v 0.0046000 0.0041184 -0.0022173
v 0.0046000 0.0054173 -0.0009184
v 0.0072000 0.0054173 -0.0009184
v 0.0046000 0.0056001 -0.0000000
v 0.0072000 0.0056001 -0.0000000
v 0.0046000 0.0054173 0.0009184
v 0.0072000 0.0054173 0.0009184
v 0.0046000 0.0048971 0.0016971
v 0.0072000 0.0048971 0.0016971
v 0.0046000 0.0041184 0.0022173
v 0.0072000 0.0041184 0.0022173
v 0.0072000 0.0050385 -0.0018385
v 0.0080000 0.0050385 -0.0018385
v 0.0080000 0.0041950 -0.0024021
v 0.0072000 0.0041950 -0.0024021
v 0.0072000 0.0056021 -0.0009950
v 0.0080000 0.0056021 -0.0009950
v 0.0072000 0.0058001 -0.0000000
v 0.0080000 0.0058001 -0.0000000
v 0.0072000 0.0056021 0.0009950
v 0.0080000 0.0056021 0.0009950
v 0.0072000 0.0050385 0.0018385
v 0.0080000 0.0050385 0.0018385
v 0.0072000 0.0041950 0.0024021
v 0.0080000 0.0041950 0.0024021
v 0.0072000 0.0013615 0.0018385
v 0.0080000 0.0013615 0.0018385
v 0.0080000 0.0022050 0.0024021
v 0.0072000 0.0022050 0.0024021
v 0.0072000 0.0007979 0.0009950
v 0.0080000 0.0007979 0.0009950
v 0.0072000 0.0005999 0.0000000
v 0.0080000 0.0005999 0.0000000
v 0.0072000 0.0007979 -0.0009950
v 0.0080000 0.0007979 -0.0009950
v 0.0072000 0.0013615 -0.0018385
v 0.0080000 0.0013615 -0.0018385
v 0.0072000 0.0022050 -0.0024021
v 0.0080000 0.0022050 -0.0024021
v 0.0008000 0.0044246 -0.0029565
v 0.0008000 0.0032000 -0.0032000
v 0.0008000 0.0054627 -0.0022627
v 0.0008000 0.0061565 -0.0012246
v 0.0008000 0.0064000 -0.0000000
v 0.0008000 0.0061565 0.0012246
v 0.0008000 0.0054627 0.0022627
v 0.0008000 0.0044246 0.0029565
v 0.0008000 0.0032000 0.0032000
v 0.0008000 0.0019754 0.0029565
v 0.0008000 0.0009373 0.0022627
v 0.0008000 0.0002435 0.0012246
v 0.0008000 0.0000000 -0.0000000
v 0.0008000 0.0002435 -0.0012246
v 0.0008000 0.0009373 -0.0022627
v 0.0008000 0.0019754 -0.0029565
v 0.0046000 0.0038123 -0.0014782
v 0.0046000 0.0032000 -0.0016000
v 0.0046000 0.0043314 -0.0011314
v 0.0046000 0.0046782 -0.0006123
v 0.0046000 0.0048000 -0.0000000
v 0.0046000 0.0046782 0.0006123
v 0.0046000 0.0043314 0.0011314
v 0.0046000 0.0038123 0.0014782
v 0.0046000 0.0032000 0.0016000
v 0.0046000 0.0025877 0.0014782
v 0.0046000 0.0020686 0.0011314
v 0.0046000 0.0017218 0.0006123
v 0.0046000 0.0016000 -0.0000000
v 0.0046000 0.0017218 -0.0006123
v 0.0046000 0.0020686 -0.0011314
v 0.0046000 0.0025877 -0.0014782
v 0.0080000 0.0038123 -0.0014782
v 0.0080000 0.0043314 -0.0011314
v 0.0080000 0.0046782 -0.0006123
v 0.0080000 0.0048000 -0.0000000
v 0.0080000 0.0046782 0.0006123
v 0.0080000 0.0043314 0.0011314
v 0.0080000 0.0038123 0.0014782
v 0.0080000 0.0025877 0.0014782
v 0.0080000 0.0020686 0.0011314
v 0.0080000 0.0017218 0.0006123
v 0.0080000 0.0016000 0.0000000
v 0.0080000 0.0017218 -0.0006123
v 0.0080000 0.0020686 -0.0011314
v 0.0080000 0.0025877 -0.0014782
v 0.0080000 0.0041184 -0.0022173
v 0.0080000 0.0048971 -0.0016971
v 0.0080000 0.0054173 -0.0009184
v 0.0080000 0.0056001 -0.0000000
v 0.0080000 0.0054173 0.0009184
v 0.0080000 0.0048971 0.0016971
v 0.0080000 0.0041184 0.0022173
v 0.0080000 0.0022816 0.0022173
v 0.0080000 0.0015029 0.0016971
v 0.0080000 0.0009827 0.0009184
v 0.0080000 0.0007999 0.0000000
v 0.0080000 0.0009827 -0.0009184
v 0.0080000 0.0015029 -0.0016971
v 0.0080000 0.0022816 -0.0022173
v 0.0046304 0.0033531 0.0023695
v 0.0047172 0.0034828 0.0023437
v 0.0048469 0.0035696 0.0023265
v 0.0046304 0.0030469 0.0023695
v 0.0047172 0.0029172 0.0023437
v 0.0048469 0.0028304 0.0023265
v 0.0046304 0.0030469 -0.0023695
v 0.0047172 0.0029172 -0.0023437
v 0.0048469 0.0028304 -0.0023265
v 0.0046304 0.0033531 -0.0023695
v 0.0047172 0.0034828 -0.0023437
v 0.0048469 0.0035696 -0.0023265
v 0.0046304 0.0033531 0.0015695
v 0.0047172 0.0034828 0.0015437
v 0.0048469 0.0035696 0.0015265
v 0.0046304 0.0030469 0.0015695
v 0.0047172 0.0029172 0.0015437
v 0.0048469 0.0028304 0.0015265
v 0.0046304 0.0030469 -0.0015695
v 0.0047172 0.0029172 -0.0015437
v 0.0048469 0.0028304 -0.0015265
v 0.0046304 0.0033531 -0.0015695
v 0.0047172 0.0034828 -0.0015437
v 0.0048469 0.0035696 -0.0015265
vn -3e-06 0.1952428 0.9807549
vn 0.0 0.1952429 0.9807549
vn 0.0 0.1952429 -0.9807549
vn -5.8e-06 0.1952428 -0.9807549
vn -3e-06 -0.1952428 -0.9807549
vn 0.0 -0.1952429 -0.9807549
vn 0.0 -0.1952429 0.9807549
vn -5.8e-06 -0.1952428 0.9807549
vn 1.0 0.0 0.0
vn 0.0 0.195102 0.980783
vn 0.0 0.195102 -0.980783
vn 0.0 -0.195102 -0.980783
vn 0.0 -0.195102 0.980783
vn -0.012918 -0.9999166 0.0
vn 0.0 -1.0 0.0
vn -1.0 0.0 0.0
vn -0.012918 0.9999166 0.0
vn 0.0 1.0 0.0
vn 0.0 -0.193984 -0.9810047
vn 1.03e-05 -0.1941024 -0.9809813
vn 0.0 -0.193984 0.9810047
vn 5.4e-06 -0.1940461 0.9809924
vn 0.0 0.193984 0.9810047
vn 1.03e-05 0.1941024 0.9809813
vn 0.0 0.193984 -0.9810047
vn 5.4e-06 0.1940461 -0.9809924
vn 0.0 0.0661224 0.9978115
vn 0.0 0.4430513 0.8964963
vn 0.0 0.3207111 0.947177
vn -2.5e-06 -0.0659699 0.9978216
vn 0.0 0.752294 0.6588276
vn 0.0 0.6588276 0.752294
vn 0.0 0.947177 0.3207111
vn 0.0 0.8964963 0.4430513
vn 0.0 0.9978115 -0.0661224
vn 0.0 0.9978115 0.0661224
vn 0.0 0.8964963 -0.4430513
vn 0.0 0.947177 -0.3207111
vn 0.0 0.6588276 -0.752294
vn 0.0 0.752294 -0.6588276
vn 0.0 0.3207111 -0.947177
vn 0.0 0.4430513 -0.8964963
vn 0.0 -0.0661224 -0.9978115
vn -2.5e-06 0.0659699 -0.9978216
vn 0.0 -0.4430513 -0.8964963
vn 0.0 -0.3207111 -0.947177
vn 0.0 -0.752294 -0.6588276
vn 0.0 -0.6588276 -0.752294
vn 0.0 -0.947177 -0.3207111
vn 0.0 -0.8964963 -0.4430513
vn 0.0 -0.9978115 0.0661224
vn 0.0 -0.9978115 -0.0661224
vn 0.0 -0.8964963 0.4430513
vn 0.0 -0.947177 0.3207111
vn 0.0 -0.6588276 0.752294
vn 0.0 -0.752294 0.6588276
vn 0.0 -0.3207111 0.947177
vn 0.0 -0.4430513 0.8964963
vn 0.0 -0.6587507 -0.7523613
vn 0.0 -0.7523613 -0.6587507
vn 0.0 -0.5554885 -0.8315242
vn 0.0 -0.8965463 -0.4429499
vn 0.0 -0.947155 -0.3207761
vn 0.0 -0.9978063 -0.0662017
vn 0.0 -0.9978063 0.0662017
vn 0.0 -0.947155 0.3207761
vn 0.0 -0.8965463 0.4429499
vn 0.0 -0.7523613 0.6587507
vn 0.0 -0.6587507 0.7523613
vn 0.0 -0.5554885 0.8315242
vn 0.0 0.6587507 0.7523613
vn 0.0 0.7523613 0.6587507
vn 0.0 0.5554885 0.8315242
vn 0.0 0.8965463 0.4429499
vn 0.0 0.947155 0.3207761
vn 0.0 0.9978063 0.0662017
vn 0.0 0.9978063 -0.0662017
vn 0.0 0.947155 -0.3207761
vn 0.0 0.8965463 -0.4429499
vn 0.0 0.7523613 -0.6587507
vn 0.0 0.6587507 -0.7523613
vn 0.0 0.5554885 -0.8315242
vn 0.0 0.6587744 0.7523406
vn 0.0 0.7523406 0.6587744
vn 0.0 0.5555643 0.8314736
vn 0.0 0.8965298 0.4429833
vn 0.0 0.9471582 0.3207669
vn 0.0 0.9978073 0.0661862
vn 0.0 0.9978073 -0.0661862
vn 0.0 0.9471582 -0.3207669
vn 0.0 0.8965298 -0.4429833
vn 0.0 0.7523406 -0.6587744
vn 0.0 0.6587744 -0.7523406
vn 0.0 0.5555643 -0.8314736
vn 0.0 -0.6587744 -0.7523406
vn 0.0 -0.7523406 -0.6587744
vn 0.0 -0.5555643 -0.8314736
vn 0.0 -0.8965298 -0.4429833
vn 0.0 -0.9471582 -0.3207669
vn 0.0 -0.9978073 -0.0661862
vn 0.0 -0.9978073 0.0661862
vn 0.0 -0.9471582 0.3207669
vn 0.0 -0.8965298 0.4429833
vn 0.0 -0.7523406 0.6587744
vn 0.0 -0.6587744 0.7523406
vn 0.0 -0.5555643 0.8314736
vn 0.0 0.0 1.0
vn 0.0 0.382704 0.923871
vn 0.0 0.3207139 0.9471761
vn 0.0 -0.066135 0.9978107
vn 0.0 0.7071068 0.7071068
vn 0.0 0.6588045 0.7523142
vn 0.0 0.923871 0.382704
vn 0.0 0.8965142 0.4430151
vn 0.0 0.9978107 0.066135
vn 0.0 0.923871 -0.382704
vn 0.0 0.9471761 -0.3207139
vn 0.0 0.7071068 -0.7071068
vn 0.0 0.7523142 -0.6588045
vn 0.0 0.382704 -0.923871
vn 0.0 0.4430151 -0.8965142
vn 0.0 0.0 -1.0
vn 0.0 0.066135 -0.9978107
vn 0.0 -0.382704 -0.923871
vn 0.0 -0.3207139 -0.9471761
vn 0.0 -0.7071068 -0.7071068
vn 0.0 -0.6588045 -0.7523142
vn 0.0 -0.923871 -0.382704
vn 0.0 -0.8965142 -0.4430151
vn 0.0 -0.9978107 -0.066135
vn 0.0 -0.923871 0.382704
vn 0.0 -0.9471761 0.3207139
vn 0.0 -0.7071068 0.7071068
vn 0.0 -0.7523142 0.6588045
vn 0.0 -0.382704 0.923871
vn 0.0 -0.4430151 0.8965142
vn 0.0 -0.3698003 -0.9291113
vn 0.0 -0.3826547 -0.9238914
vn 3.1e-06 0.065973 -0.9978214
vn 0.0 -0.6587584 -0.7523546
vn 0.0 -0.8965572 -0.442928
vn 0.0 -0.9238914 -0.3826547
vn 0.0 -0.9978089 -0.0661621
vn 0.0 -0.9471789 0.3207056
vn 0.0 -0.9238914 0.3826547
vn 0.0 -0.7523546 0.6587584
vn 0.0 -0.4814274 0.8764859
vn 0.0 -0.3826547 0.9238914
vn 3.1e-06 -0.065973 0.9978214
vn 0.0 0.3698003 0.9291113
vn 0.0 0.3826547 0.9238914
vn 0.0 0.6587584 0.7523546
vn 0.0 0.8965572 0.442928
vn 0.0 0.9238914 0.3826547
vn 0.0 0.9978089 0.0661621
vn 0.0 0.9471789 -0.3207056
vn 0.0 0.9238914 -0.3826547
vn 0.0 0.7523546 -0.6587584
vn 0.0 0.4814274 -0.8764859
vn 0.0 0.3826547 -0.9238914
vn 0.0 -0.5555132 -0.8315077
vn 0.0 -0.7523546 -0.6587584
vn 0.0 -0.9471789 -0.3207056
vn 0.0 -0.9978089 0.0661621
vn 0.0 -0.8965572 0.442928
vn 0.0 -0.6587584 0.7523546
vn 0.0 -0.5555132 0.8315077
vn 0.0 0.5555132 0.8315077
vn 0.0 0.7523546 0.6587584
vn 0.0 0.9471789 0.3207056
vn 0.0 0.9978089 -0.0661621
vn 0.0 0.8965572 -0.442928
vn 0.0 0.6587584 -0.7523546
vn 0.0 0.5555132 -0.8315077
vn -0.0003917 0.1950929 -0.9807847
vn 9.37e-05 0.1948993 -0.9808233
vn 0.0001725 0.1953897 -0.9807257
vn 0.0 0.1967363 -0.9804564
vn -0.0003917 -0.1950929 -0.9807847
vn 9.37e-05 -0.1948993 -0.9808233
vn 0.0001725 -0.1953897 -0.9807257
vn 0.0 -0.1967363 -0.9804564
vn -0.0003917 -0.1950929 0.9807847
vn 9.37e-05 -0.1948993 0.9808233
vn 0.0001725 -0.1953897 0.9807257
vn 0.0 -0.1967363 0.9804564
vn -0.0003917 0.1950929 0.9807847
vn 9.37e-05 0.1948993 0.9808233
vn 0.0001725 0.1953897 0.9807257
vn 0.0 0.1967363 0.9804564
vn 0.0003917 -0.1950929 0.9807847
vn -9.37e-05 -0.1948993 0.9808233
vn -0.0001725 -0.1953897 0.9807257
vn 0.0003917 0.1950929 0.9807847
vn -9.37e-05 0.1948993 0.9808233
vn -0.0001725 0.1953897 0.9807257
vn 0.0003917 0.1950929 -0.9807847
vn -9.37e-05 0.1948993 -0.9808233
vn -0.0001725 0.1953897 -0.9807257
vn 0.0003917 -0.1950929 -0.9807847
vn -9.37e-05 -0.1948993 -0.9808233
vn -0.0001725 -0.1953897 -0.9807257
vn -0.8963744 -0.4432979 0.0
vn -0.9471733 -0.3207221 0.0
vn -0.6589659 -0.7521728 0.0
vn -0.7521728 -0.6589659 0.0
vn -0.3207221 -0.9471733 0.0
vn -0.4432979 -0.8963744 0.0
vn -0.9471733 0.3207221 0.0
vn -0.8963744 0.4432979 0.0
vn -0.7521728 0.6589659 0.0
vn -0.6589659 0.7521728 0.0
vn -0.4432979 0.8963744 0.0
vn -0.3207221 0.9471733 0.0
vn 3e-06 0.1952428 -0.9807549
vn 5.8e-06 0.1952428 0.9807549
vn 3e-06 -0.1952428 0.9807549
vn 5.8e-06 -0.1952428 -0.9807549
vn 0.012918 -0.9999166 0.0
vn 0.012918 0.9999166 0.0
vn -1.03e-05 -0.1941024 0.9809813
vn -5.4e-06 -0.1940461 -0.9809924
vn -1.03e-05 0.1941024 -0.9809813
vn -5.4e-06 0.1940461 0.9809924
vn 0.0 0.0661224 -0.9978115
vn 2.5e-06 -0.0659699 -0.9978216
vn 0.0 -0.0661224 0.9978115
vn 2.5e-06 0.0659699 0.9978216
vn 0.0 0.3207139 -0.9471761
vn 0.0 -0.066135 -0.9978107
vn 0.0 0.6588045 -0.7523142
vn 0.0 0.8965142 -0.4430151
vn 0.0 0.9978107 -0.066135
vn 0.0 0.9471761 0.3207139
vn 0.0 0.7523142 0.6588045
vn 0.0 0.4430151 0.8965142
vn 0.0 0.066135 0.9978107
vn 0.0 -0.3207139 0.9471761
vn 0.0 -0.6588045 0.7523142
vn 0.0 -0.8965142 0.4430151
vn 0.0 -0.9978107 0.066135
vn 0.0 -0.9471761 -0.3207139
vn 0.0 -0.7523142 -0.6588045
vn 0.0 -0.4430151 -0.8965142
vn 0.0 -0.3698003 0.9291113
vn -3.1e-06 0.065973 0.9978214
vn 0.0 -0.4814274 -0.8764859
vn -3.1e-06 -0.065973 -0.9978214
vn 0.0 0.3698003 -0.9291113
vn 0.0 0.4814274 0.8764859
vn 0.8963744 -0.4432979 0.0
vn 0.9471733 -0.3207221 0.0
vn 0.6589659 -0.7521728 0.0
vn 0.7521728 -0.6589659 0.0
vn 0.3207221 -0.9471733 0.0
vn 0.4432979 -0.8963744 0.0
vn 0.9471733 0.3207221 0.0
vn 0.8963744 0.4432979 0.0
vn 0.7521728 0.6589659 0.0
vn 0.6589659 0.7521728 0.0
vn 0.4432979 0.8963744 0.0
vn 0.3207221 0.9471733 0.0
f 1//1 2//2 3//2
f 1//1 3//2 4//2
f 5//3 6//4 7//3
f 5//3 7//3 8//3
f 9//5 10//6 11//6
f 9//5 11//6 12//6
f 13//7 14//8 15//7
f 13//7 15//7 16//7
f 4//9 3//9 17//9
f 4//9 17//9 18//9
f 8//9 7//9 19//9
f 8//9 19//9 20//9
f 12//9 11//9 21//9
f 12//9 21//9 22//9
f 16//9 15//9 23//9
f 16//9 23//9 24//9
f 18//10 17//10 25//10
f 18//10 25//10 26//10
f 20//11 19//11 27//11
f 20//11 27//11 28//11
f 22//12 21//12 29//12
f 22//12 29//12 30//12
f 24//13 23//13 31//13
f 24//13 31//13 32//13
f 33//14 4//15 34//15
f 33//14 34//15 35//14
f 34//15 18//15 26//15
f 34//15 26//15 36//15
f 26//16 25//16 37//16
f 26//16 37//16 36//16
f 28//16 27//16 38//16
f 28//16 38//16 39//16
f 38//15 27//15 19//15
f 38//15 19//15 40//15
f 40//15 7//15 41//14
f 40//15 41//14 42//14
f 43//17 12//18 44//18
f 43//17 44//18 45//17
f 22//18 30//18 46//18
f 22//18 46//18 44//18
f 30//16 29//16 47//16
f 30//16 47//16 46//16
f 32//16 31//16 48//16
f 32//16 48//16 49//16
f 31//18 23//18 50//18
f 31//18 50//18 48//18
f 50//18 15//18 51//17
f 50//18 51//17 52//17
f 36//19 37//19 53//19
f 36//19 53//19 54//20
f 39//21 38//21 55//22
f 39//21 55//22 56//21
f 46//23 47//23 57//23
f 46//23 57//23 58//24
f 49//25 48//25 59//26
f 49//25 59//26 60//25
f 61//27 62//28 63//29
f 61//27 63//29 64//30
f 62//28 65//31 66//32
f 62//28 66//32 63//29
f 65//31 67//33 68//34
f 65//31 68//34 66//32
f 67//33 69//35 70//36
f 67//33 70//36 68//34
f 69//35 71//37 72//38
f 69//35 72//38 70//36
f 71//37 73//39 74//40
f 71//37 74//40 72//38
f 73//39 75//41 76//42
f 73//39 76//42 74//40
f 75//41 77//43 78//44
f 75//41 78//44 76//42
f 77//43 79//45 80//46
f 77//43 80//46 78//44
f 79//45 81//47 82//48
f 79//45 82//48 80//46
f 81//47 83//49 84//50
f 81//47 84//50 82//48
f 83//49 85//51 86//52
f 83//49 86//52 84//50
f 85//51 87//53 88//54
f 85//51 88//54 86//52
f 87//53 89//55 90//56
f 87//53 90//56 88//54
f 89//55 91//57 92//58
f 89//55 92//58 90//56
f 91//57 61//27 64//30
f 91//57 64//30 92//58
f 93//59 94//60 95//61
f 93//59 95//61 96//61
f 97//62 98//63 94//60
f 97//62 94//60 93//59
f 99//64 100//65 98//63
f 99//64 98//63 97//62
f 101//66 102//67 100//65
f 101//66 100//65 99//64
f 103//68 104//69 102//67
f 103//68 102//67 101//66
f 105//70 106//70 104//69
f 105//70 104//69 103//68
f 107//71 108//72 109//73
f 107//71 109//73 110//73
f 111//74 112//75 108//72
f 111//74 108//72 107//71
f 113//76 114//77 112//75
f 113//76 112//75 111//74
f 115//78 116//79 114//77
f 115//78 114//77 113//76
f 117//80 118//81 116//79
f 117//80 116//79 115//78
f 119//82 120//82 118//81
f 119//82 118//81 117//80
f 121//83 122//84 123//85
f 121//83 123//85 124//85
f 125//86 126//87 122//84
f 125//86 122//84 121//83
f 127//88 128//89 126//87
f 127//88 126//87 125//86
f 129//90 130//91 128//89
f 129//90 128//89 127//88
f 131//92 132//93 130//91
f 131//92 130//91 129//90
f 133//94 134//94 132//93
f 133//94 132//93 131//92
f 135//95 136//96 137//97
f 135//95 137//97 138//97
f 139//98 140//99 136//96
f 139//98 136//96 135//95
f 141//100 142//101 140//99
f 141//100 140//99 139//98
f 143//102 144//103 142//101
f 143//102 142//101 141//100
f 145//104 146//105 144//103
f 145//104 144//103 143//102
f 147//106 148//106 146//105
f 147//106 146//105 145//104
f 149//107 150//108 151//109
f 149//107 151//109 152//110
f 150//108 153//111 154//112
f 150//108 154//112 151//109
f 153//111 155//113 156//114
f 153//111 156//114 154//112
f 155//113 157//18 158//115
f 155//113 158//115 156//114
f 157//18 159//116 160//117
f 157//18 160//117 158//115
f 159//116 161//118 162//119
f 159//116 162//119 160//117
f 161//118 163//120 164//121
f 161//118 164//121 162//119
f 163//120 165//122 166//123
f 163//120 166//123 164//121
f 165//122 167//124 168//125
f 165//122 168//125 166//123
f 167//124 169//126 170//127
f 167//124 170//127 168//125
f 169//126 171//128 172//129
f 169//126 172//129 170//127
f 171//128 173//15 174//130
f 171//128 174//130 172//129
f 173//15 175//131 176//132
f 173//15 176//132 174//130
f 175//131 177//133 178//134
f 175//131 178//134 176//132
f 177//133 179//135 180//136
f 177//133 180//136 178//134
f 179//135 149//107 152//110
f 179//135 152//110 180//136
f 181//137 182//138 183//122
f 184//139 181//137 183//122
f 185//140 186//126 182//138
f 181//137 185//140 182//138
f 187//141 188//142 186//126
f 185//140 187//141 186//126
f 189//143 190//15 188//142
f 187//141 189//143 188//142
f 191//144 192//145 190//15
f 189//143 191//144 190//15
f 193//146 194//133 192//145
f 191//144 193//146 192//145
f 195//147 196//148 194//133
f 193//146 195//147 194//133
f 197//149 198//107 196//148
f 195//147 197//149 196//148
f 199//150 200//151 198//107
f 197//149 199//150 198//107
f 201//152 202//111 200//151
f 199//150 201//152 200//151
f 203//153 204//154 202//111
f 201//152 203//153 202//111
f 205//155 206//18 204//154
f 203//153 205//155 204//154
f 207//156 208//157 206//18
f 205//155 207//156 206//18
f 209//158 210//118 208//157
f 207//156 209//158 208//157
f 211//159 212//160 210//118
f 209//158 211//159 210//118
f 184//139 183//122 212//160
f 211//159 184//139 212//160
f 213//161 214//162 185//140
f 181//137 213//161 185//140
f 214//162 215//163 187//141
f 185//140 214//162 187//141
f 215//163 216//164 189//143
f 187//141 215//163 189//143
f 216//164 217//165 191//144
f 189//143 216//164 191//144
f 217//165 218//166 193//146
f 191//144 217//165 193//146
f 218//166 219//167 195//147
f 193//146 218//166 195//147
f 220//168 221//169 201//152
f 199//150 220//168 201//152
f 221//169 222//170 203//153
f 201//152 221//169 203//153
f 222//170 223//171 205//155
f 203//153 222//170 205//155
f 223//171 224//172 207//156
f 205//155 223//171 207//156
f 224//172 225//173 209//158
f 207//156 224//172 209//158
f 225//173 226//174 211//159
f 209//158 225//173 211//159
f 160//16 71//16 69//16
f 160//16 69//16 158//16
f 162//16 73//16 71//16
f 162//16 71//16 160//16
f 164//16 75//16 73//16
f 164//16 73//16 162//16
f 166//16 77//16 75//16
f 166//16 75//16 164//16
f 168//16 79//16 77//16
f 168//16 77//16 166//16
f 170//16 81//16 79//16
f 170//16 79//16 168//16
f 172//16 83//16 81//16
f 172//16 81//16 170//16
f 174//16 85//16 83//16
f 174//16 83//16 172//16
f 176//16 87//16 85//16
f 176//16 85//16 174//16
f 178//16 89//16 87//16
f 178//16 87//16 176//16
f 180//16 91//16 89//16
f 180//16 89//16 178//16
f 152//16 61//16 91//16
f 152//16 91//16 180//16
f 151//16 62//16 61//16
f 151//16 61//16 152//16
f 154//16 65//16 62//16
f 154//16 62//16 151//16
f 156//16 67//16 65//16
f 156//16 65//16 154//16
f 158//16 69//16 67//16
f 158//16 67//16 156//16
f 227//16 228//16 214//16
f 227//16 214//16 213//16
f 228//16 229//16 215//16
f 228//16 215//16 214//16
f 229//16 230//16 216//16
f 229//16 216//16 215//16
f 230//16 231//16 217//16
f 230//16 217//16 216//16
f 231//16 232//16 218//16
f 231//16 218//16 217//16
f 232//16 233//16 219//16
f 232//16 219//16 218//16
f 234//16 235//16 221//16
f 234//16 221//16 220//16
f 235//16 236//16 222//16
f 235//16 222//16 221//16
f 236//16 237//16 223//16
f 236//16 223//16 222//16
f 237//16 238//16 224//16
f 237//16 224//16 223//16
f 238//16 239//16 225//16
f 238//16 225//16 224//16
f 239//16 240//16 226//16
f 239//16 226//16 225//16
f 108//9 121//9 124//9
f 109//9 108//9 124//9
f 112//9 125//9 121//9
f 108//9 112//9 121//9
f 114//9 127//9 125//9
f 112//9 114//9 125//9
f 116//9 129//9 127//9
f 114//9 116//9 127//9
f 118//9 131//9 129//9
f 116//9 118//9 129//9
f 120//9 133//9 131//9
f 118//9 120//9 131//9
f 94//9 135//9 138//9
f 95//9 94//9 138//9
f 98//9 139//9 135//9
f 94//9 98//9 135//9
f 100//9 141//9 139//9
f 98//9 100//9 139//9
f 102//9 143//9 141//9
f 100//9 102//9 141//9
f 104//9 145//9 143//9
f 102//9 104//9 143//9
f 106//9 147//9 145//9
f 104//9 106//9 145//9
f 123//16 122//16 228//16
f 123//16 228//16 227//16
f 122//16 126//16 229//16
f 122//16 229//16 228//16
f 126//16 128//16 230//16
f 126//16 230//16 229//16
f 128//16 130//16 231//16
f 128//16 231//16 230//16
f 130//16 132//16 232//16
f 130//16 232//16 231//16
f 132//16 134//16 233//16
f 132//16 233//16 232//16
f 137//16 136//16 235//16
f 137//16 235//16 234//16
f 136//16 140//16 236//16
f 136//16 236//16 235//16
f 140//16 142//16 237//16
f 140//16 237//16 236//16
f 142//16 144//16 238//16
f 142//16 238//16 237//16
f 144//16 146//16 239//16
f 144//16 239//16 238//16
f 146//16 148//16 240//16
f 146//16 240//16 239//16
f 6//4 78//44 241//175
f 6//4 241//175 242//176
f 6//4 242//176 243//177
f 6//4 243//177 41//178
f 244//179 78//44 9//5
f 245//180 244//179 9//5
f 246//181 245//180 9//5
f 43//182 246//181 9//5
f 14//8 64//30 247//183
f 14//8 247//183 248//184
f 14//8 248//184 249//185
f 14//8 249//185 51//186
f 250//187 64//30 1//1
f 251//188 250//187 1//1
f 252//189 251//188 1//1
f 33//190 252//189 1//1
f 253//191 197//149 55//22
f 254//192 253//191 55//22
f 255//193 254//192 55//22
f 42//186 255//193 55//22
f 58//24 197//149 256//194
f 58//24 256//194 257//195
f 58//24 257//195 258//196
f 58//24 258//196 45//190
f 259//197 184//139 59//26
f 260//198 259//197 59//26
f 261//199 260//198 59//26
f 52//178 261//199 59//26
f 54//20 184//139 262//200
f 54//20 262//200 263//201
f 54//20 263//201 264//202
f 54//20 264//202 35//182
f 197//16 253//203 241//204
f 197//16 241//204 78//16
f 253//203 254//205 242//206
f 253//203 242//206 241//204
f 254//205 255//207 243//208
f 254//205 243//208 242//206
f 255//207 42//14 41//14
f 255//207 41//14 243//208
f 244//209 256//210 197//16
f 78//16 244//209 197//16
f 245//211 257//212 256//210
f 244//209 245//211 256//210
f 246//213 258//214 257//212
f 245//211 246//213 257//212
f 43//17 45//17 258//214
f 246//213 43//17 258//214
f 184//16 259//210 247//209
f 184//16 247//209 64//16
f 259//210 260//212 248//211
f 259//210 248//211 247//209
f 260//212 261//214 249//213
f 260//212 249//213 248//211
f 261//214 52//17 51//17
f 261//214 51//17 249//213
f 250//204 262//203 184//16
f 64//16 250//204 184//16
f 251//206 263//205 262//203
f 250//204 251//206 262//203
f 252//208 264//207 263//205
f 251//206 252//208 263//205
f 33//14 35//14 264//207
f 252//208 33//14 264//207
f 265//215 266//3 267//3
f 265//215 267//3 268//3
f 269//2 270//216 271//2
f 269//2 271//2 272//2
f 273//217 274//7 275//7
f 273//217 275//7 276//7
f 277//6 278//218 279//6
f 277//6 279//6 280//6
f 268//16 267//16 281//16
f 268//16 281//16 282//16
f 272//16 271//16 283//16
f 272//16 283//16 284//16
f 276//16 275//16 285//16
f 276//16 285//16 286//16
f 280//16 279//16 287//16
f 280//16 287//16 288//16
f 282//11 281//11 289//11
f 282//11 289//11 290//11
f 284//10 283//10 291//10
f 284//10 291//10 292//10
f 286//13 285//13 293//13
f 286//13 293//13 294//13
f 288//12 287//12 295//12
f 288//12 295//12 296//12
f 297//219 268//15 298//15
f 297//219 298//15 299//219
f 298//15 282//15 290//15
f 298//15 290//15 300//15
f 290//9 289//9 301//9
f 290//9 301//9 300//9
f 292//9 291//9 302//9
f 292//9 302//9 303//9
f 302//15 291//15 283//15
f 302//15 283//15 304//15
f 304//15 271//15 305//219
f 304//15 305//219 306//219
f 307//220 276//18 308//18
f 307//220 308//18 309//220
f 286//18 294//18 310//18
f 286//18 310//18 308//18
f 294//9 293//9 311//9
f 294//9 311//9 310//9
f 296//9 295//9 312//9
f 296//9 312//9 313//9
f 295//18 287//18 314//18
f 295//18 314//18 312//18
f 314//18 279//18 315//220
f 314//18 315//220 316//220
f 300//21 301//21 317//21
f 300//21 317//21 318//221
f 303//19 302//19 319//222
f 303//19 319//222 320//19
f 310//25 311//25 321//25
f 310//25 321//25 322//223
f 313//23 312//23 323//224
f 313//23 323//224 324//23
f 325//225 326//42 327//41
f 325//225 327//41 328//226
f 326//42 329//40 330//39
f 326//42 330//39 327//41
f 329//40 331//38 332//37
f 329//40 332//37 330//39
f 331//38 333//36 334//35
f 331//38 334//35 332//37
f 333//36 335//34 336//33
f 333//36 336//33 334//35
f 335//34 337//32 338//31
f 335//34 338//31 336//33
f 337//32 339//29 340//28
f 337//32 340//28 338//31
f 339//29 341//227 342//228
f 339//29 342//228 340//28
f 341//227 343//58 344//57
f 341//227 344//57 342//228
f 343//58 345//56 346//55
f 343//58 346//55 344//57
f 345//56 347//54 348//53
f 345//56 348//53 346//55
f 347//54 349//52 350//51
f 347//54 350//51 348//53
f 349//52 351//50 352//49
f 349//52 352//49 350//51
f 351//50 353//48 354//47
f 351//50 354//47 352//49
f 353//48 355//46 356//45
f 353//48 356//45 354//47
f 355//46 325//225 328//226
f 355//46 328//226 356//45
f 357//69 358//68 359//70
f 357//69 359//70 360//70
f 361//67 362//66 358//68
f 361//67 358//68 357//69
f 363//65 364//64 362//66
f 363//65 362//66 361//67
f 365//63 366//62 364//64
f 365//63 364//64 363//65
f 367//60 368//59 366//62
f 367//60 366//62 365//63
f 369//61 370//61 368//59
f 369//61 368//59 367//60
f 371//81 372//80 373//82
f 371//81 373//82 374//82
f 375//79 376//78 372//80
f 375//79 372//80 371//81
f 377//77 378//76 376//78
f 377//77 376//78 375//79
f 379//75 380//74 378//76
f 379//75 378//76 377//77
f 381//72 382//71 380//74
f 381//72 380//74 379//75
f 383//73 384//73 382//71
f 383//73 382//71 381//72
f 385//93 386//92 387//94
f 385//93 387//94 388//94
f 389//91 390//90 386//92
f 389//91 386//92 385//93
f 391//89 392//88 390//90
f 391//89 390//90 389//91
f 393//87 394//86 392//88
f 393//87 392//88 391//89
f 395//84 396//83 394//86
f 395//84 394//86 393//87
f 397//85 398//85 396//83
f 397//85 396//83 395//84
f 399//105 400//104 401//106
f 399//105 401//106 402//106
f 403//103 404//102 400//104
f 403//103 400//104 399//105
f 405//101 406//100 404//102
f 405//101 404//102 403//103
f 407//99 408//98 406//100
f 407//99 406//100 405//101
f 409//96 410//95 408//98
f 409//96 408//98 407//99
f 411//97 412//97 410//95
f 411//97 410//95 409//96
f 165//122 163//120 413//229
f 165//122 413//229 414//230
f 163//120 161//118 415//231
f 163//120 415//231 413//229
f 161//118 159//116 416//232
f 161//118 416//232 415//231
f 159//116 157//18 417//233
f 159//116 417//233 416//232
f 157//18 155//113 418//234
f 157//18 418//234 417//233
f 155//113 153//111 419//235
f 155//113 419//235 418//234
f 153//111 150//108 420//236
f 153//111 420//236 419//235
f 150//108 149//107 421//237
f 150//108 421//237 420//236
f 149//107 179//135 422//238
f 149//107 422//238 421//237
f 179//135 177//133 423//239
f 179//135 423//239 422//238
f 177//133 175//131 424//240
f 177//133 424//240 423//239
f 175//131 173//15 425//241
f 175//131 425//241 424//240
f 173//15 171//128 426//242
f 173//15 426//242 425//241
f 171//128 169//126 427//243
f 171//128 427//243 426//242
f 169//126 167//124 428//244
f 169//126 428//244 427//243
f 167//124 165//122 414//230
f 167//124 414//230 428//244
f 429//245 196//148 198//107
f 430//246 429//245 198//107
f 431//166 194//133 196//148
f 429//245 431//166 196//148
f 432//165 192//145 194//133
f 431//166 432//165 194//133
f 433//164 190//15 192//145
f 432//165 433//164 192//145
f 434//163 188//142 190//15
f 433//164 434//163 190//15
f 435//162 186//126 188//142
f 434//163 435//162 188//142
f 436//247 182//138 186//126
f 435//162 436//247 186//126
f 437//248 183//122 182//138
f 436//247 437//248 182//138
f 438//249 212//160 183//122
f 437//248 438//249 183//122
f 439//173 210//118 212//160
f 438//249 439//173 212//160
f 440//172 208//157 210//118
f 439//173 440//172 210//118
f 441//171 206//18 208//157
f 440//172 441//171 208//157
f 442//170 204//154 206//18
f 441//171 442//170 206//18
f 443//169 202//111 204//154
f 442//170 443//169 204//154
f 444//250 200//151 202//111
f 443//169 444//250 202//111
f 430//246 198//107 200//151
f 444//250 430//246 200//151
f 445//167 446//146 431//166
f 429//245 445//167 431//166
f 446//146 447//144 432//165
f 431//166 446//146 432//165
f 447//144 448//143 433//164
f 432//165 447//144 433//164
f 448//143 449//141 434//163
f 433//164 448//143 434//163
f 449//141 450//140 435//162
f 434//163 449//141 435//162
f 450//140 451//161 436//247
f 435//162 450//140 436//247
f 452//174 453//158 439//173
f 438//249 452//174 439//173
f 453//158 454//156 440//172
f 439//173 453//158 440//172
f 454//156 455//155 441//171
f 440//172 454//156 441//171
f 455//155 456//153 442//170
f 441//171 455//155 442//170
f 456//153 457//152 443//169
f 442//170 456//153 443//169
f 457//152 458//168 444//250
f 443//169 457//152 444//250
f 418//9 335//9 333//9
f 418//9 333//9 417//9
f 419//9 337//9 335//9
f 419//9 335//9 418//9
f 420//9 339//9 337//9
f 420//9 337//9 419//9
f 421//9 341//9 339//9
f 421//9 339//9 420//9
f 422//9 343//9 341//9
f 422//9 341//9 421//9
f 423//9 345//9 343//9
f 423//9 343//9 422//9
f 424//9 347//9 345//9
f 424//9 345//9 423//9
f 425//9 349//9 347//9
f 425//9 347//9 424//9
f 426//9 351//9 349//9
f 426//9 349//9 425//9
f 427//9 353//9 351//9
f 427//9 351//9 426//9
f 428//9 355//9 353//9
f 428//9 353//9 427//9
f 414//9 325//9 355//9
f 414//9 355//9 428//9
f 413//9 326//9 325//9
f 413//9 325//9 414//9
f 415//9 329//9 326//9
f 415//9 326//9 413//9
f 416//9 331//9 329//9
f 416//9 329//9 415//9
f 417//9 333//9 331//9
f 417//9 331//9 416//9
f 459//9 460//9 446//9
f 459//9 446//9 445//9
f 460//9 461//9 447//9
f 460//9 447//9 446//9
f 461//9 462//9 448//9
f 461//9 448//9 447//9
f 462//9 463//9 449//9
f 462//9 449//9 448//9
f 463//9 464//9 450//9
f 463//9 450//9 449//9
f 464//9 465//9 451//9
f 464//9 451//9 450//9
f 466//9 467//9 453//9
f 466//9 453//9 452//9
f 467//9 468//9 454//9
f 467//9 454//9 453//9
f 468//9 469//9 455//9
f 468//9 455//9 454//9
f 469//9 470//9 456//9
f 469//9 456//9 455//9
f 470//9 471//9 457//9
f 470//9 457//9 456//9
f 471//9 472//9 458//9
f 471//9 458//9 457//9
f 372//16 385//16 388//16
f 373//16 372//16 388//16
f 376//16 389//16 385//16
f 372//16 376//16 385//16
f 378//16 391//16 389//16
f 376//16 378//16 389//16
f 380//16 393//16 391//16
f 378//16 380//16 391//16
f 382//16 395//16 393//16
f 380//16 382//16 393//16
f 384//16 397//16 395//16
f 382//16 384//16 395//16
f 358//16 399//16 402//16
f 359//16 358//16 402//16
f 362//16 403//16 399//16
f 358//16 362//16 399//16
f 364//16 405//16 403//16
f 362//16 364//16 403//16
f 366//16 407//16 405//16
f 364//16 366//16 405//16
f 368//16 409//16 407//16
f 366//16 368//16 407//16
f 370//16 411//16 409//16
f 368//16 370//16 409//16
f 387//9 386//9 460//9
f 387//9 460//9 459//9
f 386//9 390//9 461//9
f 386//9 461//9 460//9
f 390//9 392//9 462//9
f 390//9 462//9 461//9
f 392//9 394//9 463//9
f 392//9 463//9 462//9
f 394//9 396//9 464//9
f 394//9 464//9 463//9
f 396//9 398//9 465//9
f 396//9 465//9 464//9
f 401//9 400//9 467//9
f 401//9 467//9 466//9
f 400//9 404//9 468//9
f 400//9 468//9 467//9
f 404//9 406//9 469//9
f 404//9 469//9 468//9
f 406//9 408//9 470//9
f 406//9 470//9 469//9
f 408//9 410//9 471//9
f 408//9 471//9 470//9
f 410//9 412//9 472//9
f 410//9 472//9 471//9
f 270//216 342//228 473//194
f 270//216 473//194 474//195
f 270//216 474//195 475//196
f 270//216 475//196 305//190
f 476//191 342//228 273//217
f 477//192 476//191 273//217
f 478//193 477//192 273//217
f 307//186 478//193 273//217
f 278//218 328//226 479//200
f 278//218 479//200 480//201
f 278//218 480//201 481//202
f 278//218 481//202 315//182
f 482//197 328//226 265//215
f 483//198 482//197 265//215
f 484//199 483//198 265//215
f 297//178 484//199 265//215
f 485//179 437//248 319//222
f 486//180 485//179 319//222
f 487//181 486//180 319//222
f 306//182 487//181 319//222
f 322//223 437//248 488//175
f 322//223 488//175 489//176
f 322//223 489//176 490//177
f 322//223 490//177 309//178
f 491//187 430//246 323//224
f 492//188 491//187 323//224
f 493//189 492//188 323//224
f 316//190 493//189 323//224
f 318//221 430//246 494//183
f 318//221 494//183 495//184
f 318//221 495//184 496//185
f 318//221 496//185 299//186
f 437//9 485//251 473//252
f 437//9 473//252 342//9
f 485//251 486//253 474//254
f 485//251 474//254 473//252
f 486//253 487//255 475//256
f 486//253 475//256 474//254
f 487//255 306//219 305//219
f 487//255 305//219 475//256
f 476//257 488//258 437//9
f 342//9 476//257 437//9
f 477//259 489//260 488//258
f 476//257 477//259 488//258
f 478//261 490//262 489//260
f 477//259 478//261 489//260
f 307//220 309//220 490//262
f 478//261 307//220 490//262
f 430//9 491//258 479//257
f 430//9 479//257 328//9
f 491//258 492//260 480//259
f 491//258 480//259 479//257
f 492//260 493//262 481//261
f 492//260 481//261 480//259
f 493//262 316//220 315//220
f 493//262 315//220 481//261
f 482//252 494//251 430//9
f 328//9 482//252 430//9
f 483//254 495//253 494//251
f 482//252 483//254 494//251
f 484//256 496//255 495//253
f 483//254 484//256 495//253
f 297//219 299//219 496//255
f 484//256 297//219 496//255
