# Botball Lab: metres, +Y up, centred XZ, base Y=0
s off
v -0.0013760 0.0069240 -0.0040000
v 0.0000000 0.0072000 -0.0040000
v 0.0000000 0.0060000 -0.0040000
v -0.0009200 0.0058160 -0.0040000
v -0.0016960 0.0052960 -0.0040000
v -0.0018200 0.0066280 -0.0040000
v -0.0023040 0.0059040 -0.0040000
v -0.0030280 0.0054200 -0.0040000
v -0.0022160 0.0045200 -0.0040000
v -0.0033240 0.0049760 -0.0040000
v -0.0036000 0.0036000 -0.0040000
v -0.0024000 0.0036000 -0.0040000
v -0.0033240 0.0049760 -0.0028000
v -0.0036000 0.0036000 -0.0028000
v -0.0028000 0.0036000 -0.0024000
v -0.0025880 0.0046720 -0.0024000
v -0.0019800 0.0055800 -0.0024000
v -0.0030280 0.0054200 -0.0028000
v -0.0023040 0.0059040 -0.0026280
v -0.0018200 0.0066280 -0.0028000
v -0.0010720 0.0061880 -0.0024000
v -0.0013760 0.0069240 -0.0028000
v 0.0000000 0.0072000 -0.0028000
v 0.0000000 0.0064000 -0.0024000
v 0.0033240 0.0049760 -0.0040000
v 0.0036000 0.0036000 -0.0040000
v 0.0024000 0.0036000 -0.0040000
v 0.0022160 0.0045200 -0.0040000
v 0.0016960 0.0052960 -0.0040000
v 0.0030280 0.0054200 -0.0040000
v 0.0023040 0.0059040 -0.0040000
v 0.0018200 0.0066280 -0.0040000
v 0.0009200 0.0058160 -0.0040000
v 0.0013760 0.0069240 -0.0040000
v 0.0013760 0.0069240 -0.0028000
v 0.0010720 0.0061880 -0.0024000
v 0.0019800 0.0055800 -0.0024000
v 0.0018200 0.0066280 -0.0028000
v 0.0023040 0.0059040 -0.0026280
v 0.0030280 0.0054200 -0.0028000
v 0.0025880 0.0046720 -0.0024000
v 0.0033240 0.0049760 -0.0028000
v 0.0036000 0.0036000 -0.0028000
v 0.0028000 0.0036000 -0.0024000
v 0.0013760 0.0002760 -0.0040000
v 0.0000000 0.0000000 -0.0040000
v 0.0000000 0.0012000 -0.0040000
v 0.0009200 0.0013840 -0.0040000
v 0.0016960 0.0019040 -0.0040000
v 0.0018200 0.0005720 -0.0040000
v 0.0023040 0.0012960 -0.0040000
v 0.0030280 0.0017800 -0.0040000
v 0.0022160 0.0026800 -0.0040000
v 0.0033240 0.0022240 -0.0040000
v 0.0033240 0.0022240 -0.0028000
v 0.0025880 0.0025280 -0.0024000
v 0.0019800 0.0016200 -0.0024000
v 0.0030280 0.0017800 -0.0028000
v 0.0023040 0.0012960 -0.0026280
v 0.0018200 0.0005720 -0.0028000
v 0.0010720 0.0010120 -0.0024000
v 0.0013760 0.0002760 -0.0028000
v 0.0000000 0.0000000 -0.0028000
v 0.0000000 0.0008000 -0.0024000
v -0.0033240 0.0022240 -0.0040000
v -0.0022160 0.0026800 -0.0040000
v -0.0016960 0.0019040 -0.0040000
v -0.0030280 0.0017800 -0.0040000
v -0.0023040 0.0012960 -0.0040000
v -0.0018200 0.0005720 -0.0040000
v -0.0009200 0.0013840 -0.0040000
v -0.0013760 0.0002760 -0.0040000
v -0.0013760 0.0002760 -0.0028000
v -0.0010720 0.0010120 -0.0024000
v -0.0019800 0.0016200 -0.0024000
v -0.0018200 0.0005720 -0.0028000
v -0.0023040 0.0012960 -0.0026280
v -0.0030280 0.0017800 -0.0028000
v -0.0025880 0.0025280 -0.0024000
v -0.0033240 0.0022240 -0.0028000
v -0.0009184 0.0058173 0.0040000
v -0.0016971 0.0052971 0.0040000
v -0.0022173 0.0045184 0.0040000
v -0.0022173 0.0026816 0.0040000
v -0.0016971 0.0019029 0.0040000
v -0.0009184 0.0013827 0.0040000
v 0.0009184 0.0013827 0.0040000
v 0.0016971 0.0019029 0.0040000
v 0.0022173 0.0026816 0.0040000
v 0.0022173 0.0045184 0.0040000
v 0.0016971 0.0052971 0.0040000
v 0.0009184 0.0058173 0.0040000
v -0.0010000 0.0046000 0.0040000
v -0.0008000 0.0052000 0.0040000
v -0.0008000 0.0058409 0.0040000
v -0.0016000 0.0044000 0.0040000
v -0.0022409 0.0044000 0.0040000
v -0.0010000 0.0026000 0.0040000
v -0.0016000 0.0028000 0.0040000
v -0.0022409 0.0028000 0.0040000
v -0.0008000 0.0013591 0.0040000
v -0.0008000 0.0020000 0.0040000
v 0.0008000 0.0020000 0.0040000
v 0.0008000 0.0013591 0.0040000
v 0.0010000 0.0026000 0.0040000
v 0.0022409 0.0028000 0.0040000
v 0.0016000 0.0028000 0.0040000
v 0.0010000 0.0046000 0.0040000
v 0.0022409 0.0044000 0.0040000
v 0.0016000 0.0044000 0.0040000
v 0.0008000 0.0052000 0.0040000
v 0.0008000 0.0058409 0.0040000
v 0.0009184 0.0058173 -0.0040000
v 0.0016971 0.0052971 -0.0040000
v 0.0022173 0.0045184 -0.0040000
v 0.0022173 0.0026816 -0.0040000
v 0.0016971 0.0019029 -0.0040000
v 0.0009184 0.0013827 -0.0040000
v -0.0009184 0.0013827 -0.0040000
v -0.0016971 0.0019029 -0.0040000
v -0.0022173 0.0026816 -0.0040000
v -0.0022173 0.0045184 -0.0040000
v -0.0016971 0.0052971 -0.0040000
v -0.0009184 0.0058173 -0.0040000
v 0.0010000 0.0046000 -0.0040000
v 0.0008000 0.0052000 -0.0040000
v 0.0008000 0.0058409 -0.0040000
v 0.0016000 0.0044000 -0.0040000
v 0.0022409 0.0044000 -0.0040000
v 0.0010000 0.0026000 -0.0040000
v 0.0016000 0.0028000 -0.0040000
v 0.0022409 0.0028000 -0.0040000
v 0.0008000 0.0013591 -0.0040000
v 0.0008000 0.0020000 -0.0040000
v -0.0008000 0.0020000 -0.0040000
v -0.0008000 0.0013591 -0.0040000
v -0.0010000 0.0026000 -0.0040000
v -0.0022409 0.0028000 -0.0040000
v -0.0016000 0.0028000 -0.0040000
v -0.0010000 0.0046000 -0.0040000
v -0.0022409 0.0044000 -0.0040000
v -0.0016000 0.0044000 -0.0040000
v -0.0008000 0.0052000 -0.0040000
v -0.0008000 0.0058409 -0.0040000
v 0.0000000 0.0060000 0.0040000
v 0.0000000 0.0012000 0.0040000
v -0.0023437 0.0038828 0.0018828
v -0.0024000 0.0036000 0.0020000
v -0.0028000 0.0036000 0.0020000
v -0.0027437 0.0038828 0.0018828
v -0.0023204 0.0040000 0.0016000
v -0.0027204 0.0040000 0.0016000
v -0.0023437 0.0033172 0.0018828
v -0.0027437 0.0033172 0.0018828
v -0.0023204 0.0032000 0.0016000
v -0.0027204 0.0032000 0.0016000
v -0.0023437 0.0033172 -0.0018828
v -0.0024000 0.0036000 -0.0020000
v -0.0028000 0.0036000 -0.0020000
v -0.0027437 0.0033172 -0.0018828
v -0.0023204 0.0032000 -0.0016000
v -0.0027204 0.0032000 -0.0016000
v -0.0023437 0.0038828 -0.0018828
v -0.0027437 0.0038828 -0.0018828
v -0.0023204 0.0040000 -0.0016000
v -0.0027204 0.0040000 -0.0016000
v 0.0023437 0.0033172 0.0018828
v 0.0024000 0.0036000 0.0020000
v 0.0028000 0.0036000 0.0020000
v 0.0027437 0.0033172 0.0018828
v 0.0023204 0.0032000 0.0016000
v 0.0027204 0.0032000 0.0016000
v 0.0023437 0.0038828 0.0018828
v 0.0027437 0.0038828 0.0018828
v 0.0023204 0.0040000 0.0016000
v 0.0027204 0.0040000 0.0016000
v 0.0023437 0.0038828 -0.0018828
v 0.0024000 0.0036000 -0.0020000
v 0.0028000 0.0036000 -0.0020000
v 0.0027437 0.0038828 -0.0018828
v 0.0023204 0.0040000 -0.0016000
v 0.0027204 0.0040000 -0.0016000
v 0.0023437 0.0033172 -0.0018828
v 0.0027437 0.0033172 -0.0018828
v 0.0023204 0.0032000 -0.0016000
v 0.0027204 0.0032000 -0.0016000
v -0.0023204 0.0040000 0.0020000
v -0.0023204 0.0032000 0.0020000
v -0.0023204 0.0032000 -0.0020000
v -0.0023204 0.0040000 -0.0020000
v 0.0023204 0.0032000 0.0020000
v 0.0023204 0.0040000 0.0020000
v 0.0023204 0.0040000 -0.0020000
v 0.0023204 0.0032000 -0.0020000
v -0.0022408 0.0044000 0.0040000
v -0.0024000 0.0036000 0.0040000
v -0.0022408 0.0044000 -0.0040000
v -0.0022408 0.0028000 0.0040000
v -0.0022408 0.0028000 -0.0040000
v 0.0024000 0.0036000 0.0040000
v 0.0022408 0.0044000 0.0040000
v 0.0022408 0.0044000 -0.0040000
v 0.0022408 0.0028000 0.0040000
v 0.0022408 0.0028000 -0.0040000
v -0.0027204 0.0040000 0.0020000
v -0.0027204 0.0032000 0.0020000
v -0.0027204 0.0032000 -0.0020000
v -0.0027204 0.0040000 -0.0020000
v 0.0027204 0.0032000 0.0020000
v 0.0027204 0.0040000 0.0020000
v 0.0027204 0.0040000 -0.0020000
v 0.0027204 0.0032000 -0.0020000
v -0.0025869 0.0025285 -0.0024000
v -0.0019799 0.0016200 -0.0024000
v -0.0019799 0.0016200 0.0024000
v -0.0025869 0.0025285 0.0024000
v -0.0010715 0.0010132 -0.0024000
v -0.0010715 0.0010132 0.0024000
v -0.0000000 0.0007999 -0.0024000
v -0.0000000 0.0007999 0.0024000
v 0.0010715 0.0010131 -0.0024000
v 0.0010715 0.0010131 0.0024000
v 0.0019800 0.0016201 -0.0024000
v 0.0019800 0.0016201 0.0024000
v 0.0025868 0.0025285 -0.0024000
v 0.0025868 0.0025285 0.0024000
v -0.0019799 0.0055800 0.0024000
v -0.0019799 0.0055800 -0.0024000
v -0.0025869 0.0046715 -0.0024000
v -0.0025869 0.0046715 0.0024000
v -0.0010715 0.0061868 0.0024000
v -0.0010715 0.0061868 -0.0024000
v -0.0000000 0.0064001 0.0024000
v -0.0000000 0.0064001 -0.0024000
v 0.0010715 0.0061869 0.0024000
v 0.0010715 0.0061869 -0.0024000
v 0.0019800 0.0055799 0.0024000
v 0.0019800 0.0055799 -0.0024000
v 0.0025868 0.0046715 0.0024000
v 0.0025868 0.0046715 -0.0024000
v -0.0025869 0.0046716 -0.0024000
v -0.0025869 0.0046716 0.0024000
v -0.0025869 0.0025284 0.0024000
v -0.0025869 0.0025284 -0.0024000
v -0.0028000 0.0036000 0.0024000
v 0.0025869 0.0046716 0.0024000
v 0.0025869 0.0046716 -0.0024000
v 0.0025869 0.0025284 -0.0024000
v 0.0025869 0.0025284 0.0024000
v 0.0028000 0.0036000 0.0024000
v 0.0033260 0.0049777 0.0040000
v 0.0022174 0.0045185 0.0040000
v 0.0036000 0.0036000 0.0040000
v 0.0025456 0.0061456 0.0040000
v 0.0016970 0.0052970 0.0040000
v 0.0013777 0.0069260 0.0040000
v 0.0009185 0.0058174 0.0040000
v 0.0000000 0.0072000 0.0040000
v -0.0013777 0.0069260 0.0040000
v -0.0009185 0.0058174 0.0040000
v -0.0025456 0.0061456 0.0040000
v -0.0016970 0.0052970 0.0040000
v -0.0033260 0.0049777 0.0040000
v -0.0022174 0.0045185 0.0040000
v -0.0036000 0.0036000 0.0040000
v -0.0033260 0.0022223 0.0040000
v -0.0022174 0.0026815 0.0040000
v -0.0025456 0.0010544 0.0040000
v -0.0016970 0.0019030 0.0040000
v -0.0013777 0.0002740 0.0040000
v -0.0009185 0.0013826 0.0040000
v 0.0000000 0.0000000 0.0040000
v 0.0013777 0.0002740 0.0040000
v 0.0009185 0.0013826 0.0040000
v 0.0025456 0.0010544 0.0040000
v 0.0016970 0.0019030 0.0040000
v 0.0033260 0.0022223 0.0040000
v 0.0022174 0.0026815 0.0040000
v 0.0000000 0.0000000 0.0028000
v 0.0013777 0.0002740 0.0028000
v 0.0025456 0.0010544 0.0028000
v 0.0033260 0.0022223 0.0028000
v 0.0036000 0.0036000 0.0028000
v 0.0033260 0.0049777 0.0028000
v 0.0025456 0.0061456 0.0028000
v 0.0013777 0.0069260 0.0028000
v 0.0000000 0.0072000 0.0028000
v -0.0013777 0.0069260 0.0028000
v -0.0025456 0.0061456 0.0028000
v -0.0033260 0.0049777 0.0028000
v -0.0036000 0.0036000 0.0028000
v -0.0033260 0.0022223 0.0028000
v -0.0025456 0.0010544 0.0028000
v -0.0013777 0.0002740 0.0028000
v 0.0000000 0.0008000 0.0024000
v 0.0010716 0.0010131 0.0024000
v 0.0012246 0.0006435 0.0026000
v 0.0000000 0.0004000 0.0026000
v 0.0019799 0.0016201 0.0024000
v 0.0022627 0.0013373 0.0026000
v 0.0029565 0.0023754 0.0026000
v 0.0032000 0.0036000 0.0026000
v 0.0029565 0.0048246 0.0026000
v 0.0019799 0.0055799 0.0024000
v 0.0022627 0.0058627 0.0026000
v 0.0010716 0.0061869 0.0024000
v 0.0012246 0.0065565 0.0026000
v 0.0000000 0.0064000 0.0024000
v 0.0000000 0.0068000 0.0026000
v -0.0010716 0.0061869 0.0024000
v -0.0012246 0.0065565 0.0026000
v -0.0019799 0.0055799 0.0024000
v -0.0022627 0.0058627 0.0026000
v -0.0029565 0.0048246 0.0026000
v -0.0032000 0.0036000 0.0026000
v -0.0029565 0.0023754 0.0026000
v -0.0019799 0.0016201 0.0024000
v -0.0022627 0.0013373 0.0026000
v -0.0010716 0.0010131 0.0024000
v -0.0012246 0.0006435 0.0026000
f 1 2 3
f 1 3 4
f 5 6 1
f 5 1 4
f 5 7 6
f 5 8 7
f 8 5 9
f 8 9 10
f 11 10 9
f 11 9 12
f 13 14 15
f 13 15 16
f 17 18 13
f 17 13 16
f 17 19 18
f 17 20 19
f 20 17 21
f 20 21 22
f 23 22 21
f 23 21 24
f 14 13 10
f 14 10 11
f 13 18 8
f 13 8 10
f 18 19 7
f 18 7 8
f 19 20 6
f 19 6 7
f 20 22 1
f 20 1 6
f 22 23 2
f 22 2 1
f 25 26 27
f 25 27 28
f 29 30 25
f 29 25 28
f 29 31 30
f 29 32 31
f 32 29 33
f 32 33 34
f 2 34 33
f 2 33 3
f 35 23 24
f 35 24 36
f 37 38 35
f 37 35 36
f 37 39 38
f 37 40 39
f 40 37 41
f 40 41 42
f 43 42 41
f 43 41 44
f 23 35 34
f 23 34 2
f 35 38 32
f 35 32 34
f 38 39 31
f 38 31 32
f 39 40 30
f 39 30 31
f 40 42 25
f 40 25 30
f 42 43 26
f 42 26 25
f 45 46 47
f 45 47 48
f 49 50 45
f 49 45 48
f 49 51 50
f 49 52 51
f 52 49 53
f 52 53 54
f 26 54 53
f 26 53 27
f 55 43 44
f 55 44 56
f 57 58 55
f 57 55 56
f 57 59 58
f 57 60 59
f 60 57 61
f 60 61 62
f 63 62 61
f 63 61 64
f 43 55 54
f 43 54 26
f 55 58 52
f 55 52 54
f 58 59 51
f 58 51 52
f 59 60 50
f 59 50 51
f 60 62 45
f 60 45 50
f 62 63 46
f 62 46 45
f 65 11 12
f 65 12 66
f 67 68 65
f 67 65 66
f 67 69 68
f 67 70 69
f 70 67 71
f 70 71 72
f 46 72 71
f 46 71 47
f 73 63 64
f 73 64 74
f 75 76 73
f 75 73 74
f 75 77 76
f 75 78 77
f 78 75 79
f 78 79 80
f 14 80 79
f 14 79 15
f 63 73 72
f 63 72 46
f 73 76 70
f 73 70 72
f 76 77 69
f 76 69 70
f 77 78 68
f 77 68 69
f 78 80 65
f 78 65 68
f 80 14 11
f 80 11 65
f 81 82 83
f 84 85 86
f 87 88 89
f 90 91 92
f 81 83 93
f 93 94 95
f 93 95 81
f 96 93 83
f 96 83 97
f 98 84 86
f 98 99 100
f 98 100 84
f 101 102 98
f 101 98 86
f 103 104 87
f 103 87 105
f 87 89 105
f 89 106 107
f 89 107 105
f 90 92 108
f 109 90 108
f 109 108 110
f 111 108 92
f 111 92 112
f 113 114 115
f 116 117 118
f 119 120 121
f 122 123 124
f 113 115 125
f 125 126 127
f 125 127 113
f 128 125 115
f 128 115 129
f 130 116 118
f 130 131 132
f 130 132 116
f 133 134 130
f 133 130 118
f 135 136 119
f 135 119 137
f 119 121 137
f 121 138 139
f 121 139 137
f 122 124 140
f 141 122 140
f 141 140 142
f 143 140 124
f 143 124 144
f 144 3 145
f 144 145 95
f 146 47 136
f 101 146 136
f 133 47 146
f 133 146 104
f 145 3 127
f 112 145 127
f 143 144 95
f 143 95 94
f 143 94 93
f 143 93 140
f 140 93 96
f 140 96 142
f 142 96 97
f 142 97 141
f 139 138 100
f 139 100 99
f 139 99 98
f 139 98 137
f 137 98 102
f 137 102 135
f 135 102 101
f 135 101 136
f 133 104 103
f 133 103 134
f 134 103 105
f 134 105 130
f 130 105 107
f 130 107 131
f 131 107 106
f 131 106 132
f 129 109 110
f 129 110 128
f 128 110 108
f 128 108 125
f 125 108 111
f 125 111 126
f 126 111 112
f 126 112 127
f 147 148 149
f 147 149 150
f 151 147 150
f 151 150 152
f 149 148 153
f 154 149 153
f 154 153 155
f 156 154 155
f 157 158 159
f 157 159 160
f 161 157 160
f 161 160 162
f 159 158 163
f 164 159 163
f 164 163 165
f 166 164 165
f 167 168 169
f 167 169 170
f 171 167 170
f 171 170 172
f 169 168 173
f 174 169 173
f 174 173 175
f 176 174 175
f 177 178 179
f 177 179 180
f 181 177 180
f 181 180 182
f 179 178 183
f 184 179 183
f 184 183 185
f 186 184 185
f 161 162 156
f 161 156 155
f 151 152 166
f 151 166 165
f 181 182 176
f 181 176 175
f 171 172 186
f 171 186 185
f 148 147 187
f 147 151 187
f 188 153 148
f 188 155 153
f 158 157 189
f 157 161 189
f 190 163 158
f 190 165 163
f 168 167 191
f 167 171 191
f 192 173 168
f 192 175 173
f 178 177 193
f 177 181 193
f 194 183 178
f 194 185 183
f 195 196 148
f 195 148 187
f 12 197 190
f 12 190 158
f 196 198 188
f 196 188 148
f 199 12 158
f 199 158 189
f 195 187 190
f 195 190 197
f 199 189 188
f 199 188 198
f 200 201 192
f 200 192 168
f 202 27 178
f 202 178 193
f 203 200 168
f 203 168 191
f 27 204 194
f 27 194 178
f 202 193 192
f 202 192 201
f 203 191 194
f 203 194 204
f 205 150 149
f 205 152 150
f 149 154 206
f 154 156 206
f 207 160 159
f 207 162 160
f 159 164 208
f 164 166 208
f 209 170 169
f 209 172 170
f 169 174 210
f 174 176 210
f 211 180 179
f 211 182 180
f 179 184 212
f 184 186 212
f 213 214 215
f 216 213 215
f 214 217 218
f 215 214 218
f 217 219 220
f 218 217 220
f 219 221 222
f 220 219 222
f 221 223 224
f 222 221 224
f 223 225 226
f 224 223 226
f 227 228 229
f 227 229 230
f 231 232 228
f 231 228 227
f 233 234 232
f 233 232 231
f 235 236 234
f 235 234 233
f 237 238 236
f 237 236 235
f 239 240 238
f 239 238 237
f 241 208 205
f 241 205 242
f 243 206 207
f 243 207 244
f 245 149 206
f 245 206 243
f 242 205 149
f 242 149 245
f 244 207 159
f 244 159 15
f 15 159 208
f 15 208 241
f 246 210 211
f 246 211 247
f 248 212 209
f 248 209 249
f 249 209 169
f 249 169 250
f 250 169 210
f 250 210 246
f 44 179 212
f 44 212 248
f 247 211 179
f 247 179 44
f 251 252 200
f 251 200 253
f 254 255 252
f 254 252 251
f 256 257 255
f 256 255 254
f 258 145 257
f 258 257 256
f 259 260 145
f 259 145 258
f 261 262 260
f 261 260 259
f 263 264 262
f 263 262 261
f 265 196 264
f 265 264 263
f 266 267 196
f 266 196 265
f 268 269 267
f 268 267 266
f 270 271 269
f 270 269 268
f 272 146 271
f 272 271 270
f 273 274 146
f 273 146 272
f 275 276 274
f 275 274 273
f 277 278 276
f 277 276 275
f 253 200 278
f 253 278 277
f 279 280 273
f 279 273 272
f 280 281 275
f 280 275 273
f 281 282 277
f 281 277 275
f 282 283 253
f 282 253 277
f 283 284 251
f 283 251 253
f 284 285 254
f 284 254 251
f 285 286 256
f 285 256 254
f 286 287 258
f 286 258 256
f 287 288 259
f 287 259 258
f 288 289 261
f 288 261 259
f 289 290 263
f 289 263 261
f 290 291 265
f 290 265 263
f 291 292 266
f 291 266 265
f 292 293 268
f 292 268 266
f 293 294 270
f 293 270 268
f 294 279 272
f 294 272 270
f 295 296 297
f 295 297 298
f 296 299 300
f 296 300 297
f 299 249 301
f 299 301 300
f 249 250 302
f 249 302 301
f 250 246 303
f 250 303 302
f 246 304 305
f 246 305 303
f 304 306 307
f 304 307 305
f 306 308 309
f 306 309 307
f 308 310 311
f 308 311 309
f 310 312 313
f 310 313 311
f 312 242 314
f 312 314 313
f 242 245 315
f 242 315 314
f 245 243 316
f 245 316 315
f 243 317 318
f 243 318 316
f 317 319 320
f 317 320 318
f 319 295 298
f 319 298 320
f 297 280 279
f 297 279 298
f 300 281 280
f 300 280 297
f 301 282 281
f 301 281 300
f 302 283 282
f 302 282 301
f 303 284 283
f 303 283 302
f 305 285 284
f 305 284 303
f 307 286 285
f 307 285 305
f 309 287 286
f 309 286 307
f 311 288 287
f 311 287 309
f 313 289 288
f 313 288 311
f 314 290 289
f 314 289 313
f 315 291 290
f 315 290 314
f 316 292 291
f 316 291 315
f 318 293 292
f 318 292 316
f 320 294 293
f 320 293 318
f 298 279 294
f 298 294 320
