# Botball Lab: metres, +Y up, centred XZ, base Y=0
s off
v 0.0024000 0.0000000 0.0020947
v 0.0024000 0.0080000 0.0020947
v 0.0022409 0.0080000 0.0012947
v 0.0022409 0.0000000 0.0012947
v 0.0016000 0.0000000 0.0012947
v 0.0016000 0.0080000 0.0012947
v 0.0010000 0.0080000 0.0010947
v 0.0010000 0.0000000 0.0010947
v 0.0008000 0.0080000 0.0004947
v 0.0008000 0.0000000 0.0004947
v 0.0008000 0.0080000 -0.0001462
v 0.0008000 0.0000000 -0.0001462
v 0.0000000 0.0080000 -0.0003053
v 0.0000000 0.0000000 -0.0003053
v -0.0009185 0.0080000 -0.0001227
v -0.0009185 0.0000000 -0.0001227
v -0.0014046 0.0080000 0.0002021
v -0.0014046 0.0000000 0.0002021
v -0.0009303 0.0080000 0.0008855
v -0.0009303 0.0000000 0.0008855
v -0.0010000 0.0080000 0.0010947
v -0.0010000 0.0000000 0.0010947
v -0.0012092 0.0080000 0.0011644
v -0.0012092 0.0000000 0.0011644
v -0.0018926 0.0000000 0.0006901
v -0.0018926 0.0080000 0.0006901
v -0.0022174 0.0080000 0.0011762
v -0.0022174 0.0000000 0.0011762
v -0.0024000 0.0080000 0.0020947
v -0.0024000 0.0000000 0.0020947
v -0.0022409 0.0080000 0.0028947
v -0.0022409 0.0000000 0.0028947
v -0.0016000 0.0000000 0.0028947
v -0.0016000 0.0080000 0.0028947
v -0.0010000 0.0080000 0.0030947
v -0.0010000 0.0000000 0.0030947
v -0.0008000 0.0080000 0.0036947
v -0.0008000 0.0000000 0.0036947
v -0.0008000 0.0080000 0.0043356
v -0.0008000 0.0000000 0.0043356
v 0.0000000 0.0080000 0.0044947
v 0.0000000 0.0000000 0.0044947
v 0.0009185 0.0080000 0.0043121
v 0.0009185 0.0000000 0.0043121
v 0.0014046 0.0080000 0.0039873
v 0.0014046 0.0000000 0.0039873
v 0.0009303 0.0080000 0.0033039
v 0.0009303 0.0000000 0.0033039
v 0.0010000 0.0080000 0.0030947
v 0.0010000 0.0000000 0.0030947
v 0.0012092 0.0080000 0.0030250
v 0.0012092 0.0000000 0.0030250
v 0.0018926 0.0000000 0.0034993
v 0.0018926 0.0080000 0.0034993
v 0.0022174 0.0080000 0.0030132
v 0.0022174 0.0000000 0.0030132
v 0.0022174 0.0080000 0.0011763
v 0.0016971 0.0080000 0.0003976
v 0.0009184 0.0080000 -0.0001227
v -0.0016972 0.0080000 0.0003975
v -0.0016970 0.0080000 0.0003977
v -0.0022174 0.0080000 0.0030131
v -0.0016971 0.0080000 0.0037918
v -0.0009184 0.0080000 0.0043121
v 0.0016970 0.0080000 0.0037917
v 0.0009184 0.0000000 -0.0001227
v 0.0016971 0.0000000 0.0003976
v 0.0022174 0.0000000 0.0011763
v 0.0016972 0.0000000 0.0037919
v 0.0016970 0.0000000 0.0037917
v -0.0009184 0.0000000 0.0043121
v -0.0016971 0.0000000 0.0037918
v -0.0022174 0.0000000 0.0030131
v -0.0016970 0.0000000 0.0003977
v -0.0013777 0.0080000 -0.0012313
v 0.0000000 0.0080000 -0.0015053
v -0.0025456 0.0080000 -0.0004509
v -0.0033260 0.0080000 0.0007170
v -0.0036000 0.0080000 0.0020947
v -0.0033260 0.0080000 0.0034724
v -0.0022174 0.0080000 0.0030132
v -0.0025456 0.0080000 0.0046403
v -0.0016970 0.0080000 0.0037917
v -0.0013777 0.0080000 0.0054207
v -0.0009185 0.0080000 0.0043121
v 0.0000000 0.0080000 0.0056947
v 0.0013777 0.0080000 0.0054207
v 0.0025456 0.0080000 0.0046403
v 0.0033260 0.0080000 0.0034724
v 0.0036000 0.0080000 0.0020947
v 0.0033260 0.0080000 0.0007170
v 0.0022174 0.0080000 0.0011762
v 0.0025456 0.0080000 -0.0004509
v 0.0016970 0.0080000 0.0003977
v 0.0013777 0.0080000 -0.0012313
v 0.0009185 0.0080000 -0.0001227
v -0.0013777 0.0000000 -0.0012313
v 0.0000000 0.0000000 -0.0015053
v -0.0025456 0.0000000 -0.0004509
v -0.0033260 0.0000000 0.0007170
v -0.0036000 0.0000000 0.0020947
v -0.0022174 0.0000000 0.0030132
v -0.0033260 0.0000000 0.0034724
v -0.0016970 0.0000000 0.0037917
v -0.0025456 0.0000000 0.0046403
v -0.0009185 0.0000000 0.0043121
v -0.0013777 0.0000000 0.0054207
v 0.0000000 0.0000000 0.0056947
v 0.0013777 0.0000000 0.0054207
v 0.0025456 0.0000000 0.0046403
v 0.0033260 0.0000000 0.0034724
v 0.0036000 0.0000000 0.0020947
v 0.0022174 0.0000000 0.0011762
v 0.0033260 0.0000000 0.0007170
v 0.0016970 0.0000000 0.0003977
v 0.0025456 0.0000000 -0.0004509
v 0.0009185 0.0000000 -0.0001227
v 0.0013777 0.0000000 -0.0012313
v 0.0008000 0.0017591 -0.0089053
v 0.0008000 0.0032000 -0.0089053
v 0.0008000 0.0032000 -0.0019053
v 0.0008000 0.0017591 -0.0019053
v 0.0022409 0.0032000 -0.0089053
v 0.0022409 0.0032000 -0.0019053
v -0.0008000 0.0032000 -0.0019053
v -0.0008000 0.0032000 -0.0089053
v -0.0008000 0.0017591 -0.0089053
v -0.0008000 0.0017591 -0.0019053
v -0.0022409 0.0032000 -0.0089053
v -0.0022409 0.0032000 -0.0019053
v -0.0008000 0.0062409 -0.0089053
v -0.0008000 0.0048000 -0.0089053
v -0.0008000 0.0048000 -0.0019053
v -0.0008000 0.0062409 -0.0019053
v -0.0022409 0.0048000 -0.0089053
v -0.0022409 0.0048000 -0.0019053
v 0.0008000 0.0048000 -0.0019053
v 0.0008000 0.0048000 -0.0089053
v 0.0008000 0.0062409 -0.0089053
v 0.0008000 0.0062409 -0.0019053
v 0.0022409 0.0048000 -0.0089053
v 0.0022409 0.0048000 -0.0019053
v 0.0024000 0.0040000 -0.0019053
v 0.0024000 0.0040000 -0.0089053
v 0.0000000 0.0016000 -0.0019053
v 0.0000000 0.0016000 -0.0089053
v -0.0024000 0.0040000 -0.0019053
v -0.0024000 0.0040000 -0.0089053
v 0.0000000 0.0064000 -0.0019053
v 0.0000000 0.0064000 -0.0089053
v 0.0019809 0.0033480 -0.0094710
v 0.0011537 0.0033472 -0.0097053
v 0.0007432 0.0032568 -0.0097053
v 0.0012866 0.0040000 -0.0097053
v 0.0021106 0.0040000 -0.0094710
v 0.0000000 0.0040000 -0.0097053
v 0.0006520 0.0020191 -0.0094710
v 0.0006528 0.0028463 -0.0097053
v 0.0000000 0.0027134 -0.0097053
v 0.0000000 0.0018894 -0.0094710
v 0.0006520 0.0059809 -0.0094710
v 0.0006528 0.0051537 -0.0097053
v 0.0007432 0.0047432 -0.0097053
v 0.0000000 0.0053124 -0.0097053
v 0.0000000 0.0061106 -0.0094710
v 0.0019809 0.0046520 -0.0094710
v 0.0011537 0.0046528 -0.0097053
v -0.0019809 0.0046520 -0.0094710
v -0.0011537 0.0046528 -0.0097053
v -0.0007432 0.0047432 -0.0097053
v -0.0012866 0.0040000 -0.0097053
v -0.0021106 0.0040000 -0.0094710
v -0.0006520 0.0059809 -0.0094710
v -0.0006528 0.0051537 -0.0097053
v -0.0006520 0.0020191 -0.0094710
v -0.0006528 0.0028463 -0.0097053
v -0.0007432 0.0032568 -0.0097053
v -0.0019809 0.0033480 -0.0094710
v -0.0011537 0.0033472 -0.0097053
v 0.0000000 0.0040000 -0.0019053
v 0.0036000 0.0040000 -0.0019053
v 0.0033260 0.0026223 -0.0019053
v 0.0025456 0.0014544 -0.0019053
v 0.0013777 0.0006740 -0.0019053
v 0.0000000 0.0004000 -0.0019053
v -0.0013777 0.0006740 -0.0019053
v -0.0025456 0.0014544 -0.0019053
v -0.0033260 0.0026223 -0.0019053
v -0.0036000 0.0040000 -0.0019053
v -0.0033260 0.0053777 -0.0019053
v -0.0025456 0.0065456 -0.0019053
v -0.0013777 0.0073260 -0.0019053
v 0.0000000 0.0076000 -0.0019053
v 0.0013777 0.0073260 -0.0019053
v 0.0025456 0.0065456 -0.0019053
v 0.0033260 0.0053777 -0.0019053
v 0.0036000 0.0040000 -0.0015053
v 0.0033260 0.0026223 -0.0015053
v 0.0025456 0.0014544 -0.0015053
v 0.0013777 0.0006740 -0.0015053
v 0.0000000 0.0004000 -0.0015053
v -0.0013777 0.0006740 -0.0015053
v -0.0025456 0.0014544 -0.0015053
v -0.0033260 0.0026223 -0.0015053
v -0.0036000 0.0040000 -0.0015053
v -0.0033260 0.0053777 -0.0015053
v -0.0025456 0.0065456 -0.0015053
v -0.0013777 0.0073260 -0.0015053
v 0.0000000 0.0076000 -0.0015053
v 0.0013777 0.0073260 -0.0015053
v 0.0025456 0.0065456 -0.0015053
v 0.0033260 0.0053777 -0.0015053
v -0.0013777 0.0006740 -0.0006787
v -0.0025456 0.0014544 0.0000220
v -0.0033260 0.0026223 0.0004903
v -0.0036000 0.0040000 0.0006547
v -0.0013777 0.0073260 -0.0006787
v -0.0025456 0.0065456 0.0000220
v -0.0033260 0.0053777 0.0004903
v 0.0013777 0.0006740 -0.0006787
v 0.0025456 0.0014544 0.0000220
v 0.0033260 0.0026223 0.0004903
v 0.0036000 0.0040000 0.0006547
v 0.0013777 0.0073260 -0.0006787
v 0.0025456 0.0065456 0.0000220
v 0.0033260 0.0053777 0.0004903
v 0.0091260 0.0017591 0.0082875
v 0.0091260 0.0032000 0.0082875
v 0.0030640 0.0032000 0.0047875
v 0.0030640 0.0017591 0.0047875
v 0.0084055 0.0032000 0.0095353
v 0.0023435 0.0032000 0.0060353
v 0.0038640 0.0032000 0.0034019
v 0.0099260 0.0032000 0.0069019
v 0.0099260 0.0017591 0.0069019
v 0.0038640 0.0017591 0.0034019
v 0.0106465 0.0032000 0.0056541
v 0.0045845 0.0032000 0.0021541
v 0.0099260 0.0062409 0.0069019
v 0.0099260 0.0048000 0.0069019
v 0.0038640 0.0048000 0.0034019
v 0.0038640 0.0062409 0.0034019
v 0.0106465 0.0048000 0.0056541
v 0.0045845 0.0048000 0.0021541
v 0.0030640 0.0048000 0.0047875
v 0.0091260 0.0048000 0.0082875
v 0.0091260 0.0062409 0.0082875
v 0.0030640 0.0062409 0.0047875
v 0.0084055 0.0048000 0.0095353
v 0.0023435 0.0048000 0.0060353
v 0.0022640 0.0040000 0.0061731
v 0.0083260 0.0040000 0.0096731
v 0.0034640 0.0016000 0.0040947
v 0.0095260 0.0016000 0.0075947
v 0.0046640 0.0040000 0.0020163
v 0.0107260 0.0040000 0.0055163
v 0.0034640 0.0064000 0.0040947
v 0.0095260 0.0064000 0.0075947
v 0.0090254 0.0033480 0.0095930
v 0.0096420 0.0033472 0.0089938
v 0.0098472 0.0032568 0.0086383
v 0.0095755 0.0040000 0.0091089
v 0.0089606 0.0040000 0.0097053
v 0.0102188 0.0040000 0.0079947
v 0.0096899 0.0020191 0.0084422
v 0.0098924 0.0028463 0.0085600
v 0.0102188 0.0027134 0.0079947
v 0.0100159 0.0018894 0.0078775
v 0.0096899 0.0059809 0.0084422
v 0.0098924 0.0051537 0.0085600
v 0.0098472 0.0047432 0.0086383
v 0.0102188 0.0053124 0.0079947
v 0.0100159 0.0061106 0.0078775
v 0.0090254 0.0046520 0.0095930
v 0.0096420 0.0046528 0.0089938
v 0.0110063 0.0046520 0.0061621
v 0.0107956 0.0046528 0.0069956
v 0.0105904 0.0047432 0.0073511
v 0.0108621 0.0040000 0.0068805
v 0.0110712 0.0040000 0.0060498
v 0.0103419 0.0059809 0.0073129
v 0.0105452 0.0051537 0.0074294
v 0.0103419 0.0020191 0.0073129
v 0.0105452 0.0028463 0.0074294
v 0.0105904 0.0032568 0.0073511
v 0.0110063 0.0033480 0.0061621
v 0.0107956 0.0033472 0.0069956
v 0.0034640 0.0040000 0.0040947
v 0.0016640 0.0040000 0.0072123
v 0.0018010 0.0026223 0.0069750
v 0.0021912 0.0014544 0.0062991
v 0.0027751 0.0006740 0.0052878
v 0.0034640 0.0004000 0.0040947
v 0.0041529 0.0006740 0.0029016
v 0.0047368 0.0014544 0.0018902
v 0.0051270 0.0026223 0.0012143
v 0.0052640 0.0040000 0.0009771
v 0.0051270 0.0053777 0.0012143
v 0.0047368 0.0065456 0.0018902
v 0.0041529 0.0073260 0.0029016
v 0.0034640 0.0076000 0.0040947
v 0.0027751 0.0073260 0.0052878
v 0.0021912 0.0065456 0.0062991
v 0.0018010 0.0053777 0.0069750
v 0.0012484 0.0040000 0.0069723
v 0.0013854 0.0026223 0.0067350
v 0.0017756 0.0014544 0.0060591
v 0.0023595 0.0006740 0.0050478
v 0.0030484 0.0004000 0.0038547
v 0.0037373 0.0006740 0.0026616
v 0.0043212 0.0014544 0.0016502
v 0.0047114 0.0026223 0.0009743
v 0.0048484 0.0040000 0.0007371
v 0.0047114 0.0053777 0.0009743
v 0.0043212 0.0065456 0.0016502
v 0.0037373 0.0073260 0.0026616
v 0.0030484 0.0076000 0.0038547
v 0.0023595 0.0073260 0.0050478
v 0.0017756 0.0065456 0.0060591
v 0.0013854 0.0053777 0.0067350
v 0.0030213 0.0006740 0.0022483
v 0.0029983 0.0014544 0.0008866
v 0.0029830 0.0026223 -0.0000235
v 0.0029776 0.0040000 -0.0003429
v 0.0030213 0.0073260 0.0022483
v 0.0029983 0.0065456 0.0008866
v 0.0029830 0.0053777 -0.0000235
v 0.0016436 0.0006740 0.0046345
v 0.0004528 0.0014544 0.0052955
v -0.0003431 0.0026223 0.0057372
v -0.0006224 0.0040000 0.0058923
v 0.0016436 0.0073260 0.0046345
v 0.0004528 0.0065456 0.0052955
v -0.0003431 0.0053777 0.0057372
v -0.0099260 0.0017591 0.0069019
v -0.0099260 0.0032000 0.0069019
v -0.0038640 0.0032000 0.0034019
v -0.0038640 0.0017591 0.0034019
v -0.0106465 0.0032000 0.0056541
v -0.0045845 0.0032000 0.0021541
v -0.0030640 0.0032000 0.0047875
v -0.0091260 0.0032000 0.0082875
v -0.0091260 0.0017591 0.0082875
v -0.0030640 0.0017591 0.0047875
v -0.0084055 0.0032000 0.0095353
v -0.0023435 0.0032000 0.0060353
v -0.0091260 0.0062409 0.0082875
v -0.0091260 0.0048000 0.0082875
v -0.0030640 0.0048000 0.0047875
v -0.0030640 0.0062409 0.0047875
v -0.0084055 0.0048000 0.0095353
v -0.0023435 0.0048000 0.0060353
v -0.0038640 0.0048000 0.0034019
v -0.0099260 0.0048000 0.0069019
v -0.0099260 0.0062409 0.0069019
v -0.0038640 0.0062409 0.0034019
v -0.0106465 0.0048000 0.0056541
v -0.0045845 0.0048000 0.0021541
v -0.0046640 0.0040000 0.0020163
v -0.0107260 0.0040000 0.0055163
v -0.0034640 0.0016000 0.0040947
v -0.0095260 0.0016000 0.0075947
v -0.0022640 0.0040000 0.0061731
v -0.0083260 0.0040000 0.0096731
v -0.0034640 0.0064000 0.0040947
v -0.0095260 0.0064000 0.0075947
v -0.0110063 0.0033480 0.0061621
v -0.0107956 0.0033472 0.0069956
v -0.0105904 0.0032568 0.0073511
v -0.0108621 0.0040000 0.0068805
v -0.0110712 0.0040000 0.0060498
v -0.0102188 0.0040000 0.0079947
v -0.0103419 0.0020191 0.0073129
v -0.0105452 0.0028463 0.0074294
v -0.0102188 0.0027134 0.0079947
v -0.0100159 0.0018894 0.0078775
v -0.0103419 0.0059809 0.0073129
v -0.0105452 0.0051537 0.0074294
v -0.0105904 0.0047432 0.0073511
v -0.0102188 0.0053124 0.0079947
v -0.0100159 0.0061106 0.0078775
v -0.0110063 0.0046520 0.0061621
v -0.0107956 0.0046528 0.0069956
v -0.0090254 0.0046520 0.0095930
v -0.0096420 0.0046528 0.0089938
v -0.0098472 0.0047432 0.0086383
v -0.0095755 0.0040000 0.0091089
v -0.0089606 0.0040000 0.0097053
v -0.0096899 0.0059809 0.0084422
v -0.0098924 0.0051537 0.0085600
v -0.0096899 0.0020191 0.0084422
v -0.0098924 0.0028463 0.0085600
v -0.0098472 0.0032568 0.0086383
v -0.0090254 0.0033480 0.0095930
v -0.0096420 0.0033472 0.0089938
v -0.0034640 0.0040000 0.0040947
v -0.0052640 0.0040000 0.0009771
v -0.0051270 0.0026223 0.0012143
v -0.0047368 0.0014544 0.0018902
v -0.0041529 0.0006740 0.0029016
v -0.0034640 0.0004000 0.0040947
v -0.0027751 0.0006740 0.0052878
v -0.0021912 0.0014544 0.0062991
v -0.0018010 0.0026223 0.0069750
v -0.0016640 0.0040000 0.0072123
v -0.0018010 0.0053777 0.0069750
v -0.0021912 0.0065456 0.0062991
v -0.0027751 0.0073260 0.0052878
v -0.0034640 0.0076000 0.0040947
v -0.0041529 0.0073260 0.0029016
v -0.0047368 0.0065456 0.0018902
v -0.0051270 0.0053777 0.0012143
v -0.0048484 0.0040000 0.0007371
v -0.0047114 0.0026223 0.0009743
v -0.0043212 0.0014544 0.0016502
v -0.0037373 0.0006740 0.0026616
v -0.0030484 0.0004000 0.0038547
v -0.0023595 0.0006740 0.0050478
v -0.0017756 0.0014544 0.0060591
v -0.0013854 0.0026223 0.0067350
v -0.0012484 0.0040000 0.0069723
v -0.0013854 0.0053777 0.0067350
v -0.0017756 0.0065456 0.0060591
v -0.0023595 0.0073260 0.0050478
v -0.0030484 0.0076000 0.0038547
v -0.0037373 0.0073260 0.0026616
v -0.0043212 0.0065456 0.0016502
v -0.0047114 0.0053777 0.0009743
v -0.0016436 0.0006740 0.0046345
v -0.0004528 0.0014544 0.0052955
v 0.0003431 0.0026223 0.0057372
v 0.0006224 0.0040000 0.0058923
v -0.0016436 0.0073260 0.0046345
v -0.0004528 0.0065456 0.0052955
v 0.0003431 0.0053777 0.0057372
v -0.0030213 0.0006740 0.0022483
v -0.0029983 0.0014544 0.0008866
v -0.0029830 0.0026223 -0.0000235
v -0.0029776 0.0040000 -0.0003429
v -0.0030213 0.0073260 0.0022483
v -0.0029983 0.0065456 0.0008866
v -0.0029830 0.0053777 -0.0000235
f 1 2 3
f 1 3 4
f 5 4 3
f 5 3 6
f 6 7 8
f 6 8 5
f 9 10 8
f 9 8 7
f 11 12 10
f 11 10 9
f 11 13 14
f 11 14 12
f 14 13 15
f 14 15 16
f 16 15 17
f 16 17 18
f 17 19 20
f 17 20 18
f 21 22 20
f 21 20 19
f 22 21 23
f 22 23 24
f 25 24 23
f 25 23 26
f 25 26 27
f 25 27 28
f 28 27 29
f 28 29 30
f 30 29 31
f 30 31 32
f 33 32 31
f 33 31 34
f 34 35 36
f 34 36 33
f 37 38 36
f 37 36 35
f 39 40 38
f 39 38 37
f 39 41 42
f 39 42 40
f 42 41 43
f 42 43 44
f 44 43 45
f 44 45 46
f 45 47 48
f 45 48 46
f 49 50 48
f 49 48 47
f 50 49 51
f 50 51 52
f 53 52 51
f 53 51 54
f 53 54 55
f 53 55 56
f 56 55 2
f 56 2 1
f 7 57 58
f 7 58 59
f 7 6 3
f 7 3 57
f 9 7 59
f 9 59 11
f 26 23 21
f 26 21 60
f 19 17 61
f 19 61 21
f 35 62 63
f 35 63 64
f 35 34 31
f 35 31 62
f 37 35 64
f 37 64 39
f 54 51 49
f 54 49 65
f 47 45 65
f 47 65 49
f 8 66 67
f 8 67 68
f 8 10 12
f 8 12 66
f 5 8 68
f 5 68 4
f 46 48 50
f 46 50 69
f 52 53 70
f 52 70 50
f 36 71 72
f 36 72 73
f 36 38 40
f 36 40 71
f 33 36 73
f 33 73 32
f 18 20 22
f 18 22 74
f 24 25 74
f 24 74 22
f 75 15 13
f 75 13 76
f 77 61 15
f 77 15 75
f 78 27 61
f 78 61 77
f 79 29 27
f 79 27 78
f 80 81 29
f 80 29 79
f 82 83 81
f 82 81 80
f 84 85 83
f 84 83 82
f 86 41 85
f 86 85 84
f 87 43 41
f 87 41 86
f 88 65 43
f 88 43 87
f 89 55 65
f 89 65 88
f 90 2 55
f 90 55 89
f 91 92 2
f 91 2 90
f 93 94 92
f 93 92 91
f 95 96 94
f 95 94 93
f 76 13 96
f 76 96 95
f 14 16 97
f 98 14 97
f 16 74 99
f 97 16 99
f 74 28 100
f 99 74 100
f 28 30 101
f 100 28 101
f 30 102 103
f 101 30 103
f 102 104 105
f 103 102 105
f 104 106 107
f 105 104 107
f 106 42 108
f 107 106 108
f 42 44 109
f 108 42 109
f 44 70 110
f 109 44 110
f 70 56 111
f 110 70 111
f 56 1 112
f 111 56 112
f 1 113 114
f 112 1 114
f 113 115 116
f 114 113 116
f 115 117 118
f 116 115 118
f 117 14 98
f 118 117 98
f 112 114 91
f 112 91 90
f 114 116 93
f 114 93 91
f 116 118 95
f 116 95 93
f 118 98 76
f 118 76 95
f 98 97 75
f 98 75 76
f 97 99 77
f 97 77 75
f 99 100 78
f 99 78 77
f 100 101 79
f 100 79 78
f 101 103 80
f 101 80 79
f 103 105 82
f 103 82 80
f 105 107 84
f 105 84 82
f 107 108 86
f 107 86 84
f 108 109 87
f 108 87 86
f 109 110 88
f 109 88 87
f 110 111 89
f 110 89 88
f 111 112 90
f 111 90 89
f 119 120 121
f 122 119 121
f 121 120 123
f 124 121 123
f 125 126 127
f 125 127 128
f 129 126 125
f 129 125 130
f 131 132 133
f 134 131 133
f 133 132 135
f 136 133 135
f 137 138 139
f 137 139 140
f 141 138 137
f 141 137 142
f 143 124 123
f 144 143 123
f 145 146 119
f 122 145 119
f 145 128 127
f 146 145 127
f 147 148 129
f 130 147 129
f 147 136 135
f 148 147 135
f 149 140 139
f 150 149 139
f 149 150 131
f 134 149 131
f 143 144 141
f 142 143 141
f 151 123 120
f 151 120 152
f 152 120 153
f 151 152 154
f 151 154 155
f 123 151 155
f 123 155 144
f 156 154 152
f 156 152 153
f 119 157 120
f 120 157 158
f 120 158 153
f 159 158 157
f 159 157 160
f 160 157 119
f 160 119 146
f 158 159 156
f 158 156 153
f 161 139 138
f 161 138 162
f 162 138 163
f 161 162 164
f 161 164 165
f 139 161 165
f 139 165 150
f 156 164 162
f 156 162 163
f 141 166 138
f 138 166 167
f 138 167 163
f 154 167 166
f 154 166 155
f 155 166 141
f 155 141 144
f 167 154 156
f 167 156 163
f 168 135 132
f 168 132 169
f 169 132 170
f 168 169 171
f 168 171 172
f 135 168 172
f 135 172 148
f 156 171 169
f 156 169 170
f 131 173 132
f 132 173 174
f 132 174 170
f 164 174 173
f 164 173 165
f 165 173 131
f 165 131 150
f 174 164 156
f 174 156 170
f 175 127 126
f 175 126 176
f 176 126 177
f 175 176 159
f 175 159 160
f 127 175 160
f 127 160 146
f 156 159 176
f 156 176 177
f 129 178 126
f 126 178 179
f 126 179 177
f 171 179 178
f 171 178 172
f 172 178 129
f 172 129 148
f 179 171 156
f 179 156 177
f 180 181 182
f 180 182 183
f 180 183 184
f 180 184 185
f 180 185 186
f 180 186 187
f 180 187 188
f 180 188 189
f 180 189 190
f 180 190 191
f 180 191 192
f 180 192 193
f 180 193 194
f 180 194 195
f 180 195 196
f 180 196 181
f 197 198 182
f 197 182 181
f 198 199 183
f 198 183 182
f 199 200 184
f 199 184 183
f 200 201 185
f 200 185 184
f 201 202 186
f 201 186 185
f 202 203 187
f 202 187 186
f 203 204 188
f 203 188 187
f 204 205 189
f 204 189 188
f 205 206 190
f 205 190 189
f 206 207 191
f 206 191 190
f 207 208 192
f 207 192 191
f 208 209 193
f 208 193 192
f 209 210 194
f 209 194 193
f 210 211 195
f 210 195 194
f 211 212 196
f 211 196 195
f 212 197 181
f 212 181 196
f 213 202 201
f 213 214 203
f 213 203 202
f 214 215 204
f 214 204 203
f 215 216 205
f 215 205 204
f 209 208 217
f 207 218 217
f 208 207 217
f 206 219 218
f 207 206 218
f 205 216 219
f 206 205 219
f 201 200 220
f 199 221 220
f 200 199 220
f 198 222 221
f 199 198 221
f 197 223 222
f 198 197 222
f 224 210 209
f 224 225 211
f 224 211 210
f 225 226 212
f 225 212 211
f 226 223 197
f 226 197 212
f 227 228 229
f 230 227 229
f 229 228 231
f 232 229 231
f 233 234 235
f 233 235 236
f 237 234 233
f 237 233 238
f 239 240 241
f 242 239 241
f 241 240 243
f 244 241 243
f 245 246 247
f 245 247 248
f 249 246 245
f 249 245 250
f 251 232 231
f 252 251 231
f 253 254 227
f 230 253 227
f 253 236 235
f 254 253 235
f 255 256 237
f 238 255 237
f 255 244 243
f 256 255 243
f 257 248 247
f 258 257 247
f 257 258 239
f 242 257 239
f 251 252 249
f 250 251 249
f 259 231 228
f 259 228 260
f 260 228 261
f 259 260 262
f 259 262 263
f 231 259 263
f 231 263 252
f 264 262 260
f 264 260 261
f 227 265 228
f 228 265 266
f 228 266 261
f 267 266 265
f 267 265 268
f 268 265 227
f 268 227 254
f 266 267 264
f 266 264 261
f 269 247 246
f 269 246 270
f 270 246 271
f 269 270 272
f 269 272 273
f 247 269 273
f 247 273 258
f 264 272 270
f 264 270 271
f 249 274 246
f 246 274 275
f 246 275 271
f 262 275 274
f 262 274 263
f 263 274 249
f 263 249 252
f 275 262 264
f 275 264 271
f 276 243 240
f 276 240 277
f 277 240 278
f 276 277 279
f 276 279 280
f 243 276 280
f 243 280 256
f 264 279 277
f 264 277 278
f 239 281 240
f 240 281 282
f 240 282 278
f 272 282 281
f 272 281 273
f 273 281 239
f 273 239 258
f 282 272 264
f 282 264 278
f 283 235 234
f 283 234 284
f 284 234 285
f 283 284 267
f 283 267 268
f 235 283 268
f 235 268 254
f 264 267 284
f 264 284 285
f 237 286 234
f 234 286 287
f 234 287 285
f 279 287 286
f 279 286 280
f 280 286 237
f 280 237 256
f 287 279 264
f 287 264 285
f 288 289 290
f 288 290 291
f 288 291 292
f 288 292 293
f 288 293 294
f 288 294 295
f 288 295 296
f 288 296 297
f 288 297 298
f 288 298 299
f 288 299 300
f 288 300 301
f 288 301 302
f 288 302 303
f 288 303 304
f 288 304 289
f 305 306 290
f 305 290 289
f 306 307 291
f 306 291 290
f 307 308 292
f 307 292 291
f 308 309 293
f 308 293 292
f 309 310 294
f 309 294 293
f 310 311 295
f 310 295 294
f 311 312 296
f 311 296 295
f 312 313 297
f 312 297 296
f 313 314 298
f 313 298 297
f 314 315 299
f 314 299 298
f 315 316 300
f 315 300 299
f 316 317 301
f 316 301 300
f 317 318 302
f 317 302 301
f 318 319 303
f 318 303 302
f 319 320 304
f 319 304 303
f 320 305 289
f 320 289 304
f 321 310 309
f 321 322 311
f 321 311 310
f 322 323 312
f 322 312 311
f 323 324 313
f 323 313 312
f 317 316 325
f 315 326 325
f 316 315 325
f 314 327 326
f 315 314 326
f 313 324 327
f 314 313 327
f 309 308 328
f 307 329 328
f 308 307 328
f 306 330 329
f 307 306 329
f 305 331 330
f 306 305 330
f 332 318 317
f 332 333 319
f 332 319 318
f 333 334 320
f 333 320 319
f 334 331 305
f 334 305 320
f 335 336 337
f 338 335 337
f 337 336 339
f 340 337 339
f 341 342 343
f 341 343 344
f 345 342 341
f 345 341 346
f 347 348 349
f 350 347 349
f 349 348 351
f 352 349 351
f 353 354 355
f 353 355 356
f 357 354 353
f 357 353 358
f 359 340 339
f 360 359 339
f 361 362 335
f 338 361 335
f 361 344 343
f 362 361 343
f 363 364 345
f 346 363 345
f 363 352 351
f 364 363 351
f 365 356 355
f 366 365 355
f 365 366 347
f 350 365 347
f 359 360 357
f 358 359 357
f 367 339 336
f 367 336 368
f 368 336 369
f 367 368 370
f 367 370 371
f 339 367 371
f 339 371 360
f 372 370 368
f 372 368 369
f 335 373 336
f 336 373 374
f 336 374 369
f 375 374 373
f 375 373 376
f 376 373 335
f 376 335 362
f 374 375 372
f 374 372 369
f 377 355 354
f 377 354 378
f 378 354 379
f 377 378 380
f 377 380 381
f 355 377 381
f 355 381 366
f 372 380 378
f 372 378 379
f 357 382 354
f 354 382 383
f 354 383 379
f 370 383 382
f 370 382 371
f 371 382 357
f 371 357 360
f 383 370 372
f 383 372 379
f 384 351 348
f 384 348 385
f 385 348 386
f 384 385 387
f 384 387 388
f 351 384 388
f 351 388 364
f 372 387 385
f 372 385 386
f 347 389 348
f 348 389 390
f 348 390 386
f 380 390 389
f 380 389 381
f 381 389 347
f 381 347 366
f 390 380 372
f 390 372 386
f 391 343 342
f 391 342 392
f 392 342 393
f 391 392 375
f 391 375 376
f 343 391 376
f 343 376 362
f 372 375 392
f 372 392 393
f 345 394 342
f 342 394 395
f 342 395 393
f 387 395 394
f 387 394 388
f 388 394 345
f 388 345 364
f 395 387 372
f 395 372 393
f 396 397 398
f 396 398 399
f 396 399 400
f 396 400 401
f 396 401 402
f 396 402 403
f 396 403 404
f 396 404 405
f 396 405 406
f 396 406 407
f 396 407 408
f 396 408 409
f 396 409 410
f 396 410 411
f 396 411 412
f 396 412 397
f 413 414 398
f 413 398 397
f 414 415 399
f 414 399 398
f 415 416 400
f 415 400 399
f 416 417 401
f 416 401 400
f 417 418 402
f 417 402 401
f 418 419 403
f 418 403 402
f 419 420 404
f 419 404 403
f 420 421 405
f 420 405 404
f 421 422 406
f 421 406 405
f 422 423 407
f 422 407 406
f 423 424 408
f 423 408 407
f 424 425 409
f 424 409 408
f 425 426 410
f 425 410 409
f 426 427 411
f 426 411 410
f 427 428 412
f 427 412 411
f 428 413 397
f 428 397 412
f 429 418 417
f 429 430 419
f 429 419 418
f 430 431 420
f 430 420 419
f 431 432 421
f 431 421 420
f 425 424 433
f 423 434 433
f 424 423 433
f 422 435 434
f 423 422 434
f 421 432 435
f 422 421 435
f 417 416 436
f 415 437 436
f 416 415 436
f 414 438 437
f 415 414 437
f 413 439 438
f 414 413 438
f 440 426 425
f 440 441 427
f 440 427 426
f 441 442 428
f 441 428 427
f 442 439 413
f 442 413 428
