# Botball Lab: metres, +Y up, centred XZ, base Y=0
s off
v 0.0155657 0.0004191 -0.0006520
v 0.0150000 0.0001591 -0.0008000
v 0.0150000 0.0016000 -0.0008000
v 0.0158000 0.0012463 -0.0006528
v 0.0158000 0.0016568 -0.0007432
v 0.0158000 0.0011134 -0.0000000
v 0.0155657 0.0002894 -0.0000000
v 0.0150000 0.0000000 -0.0000000
v 0.0158000 0.0024000 -0.0000000
v 0.0150000 0.0016000 -0.0022409
v 0.0155657 0.0017480 -0.0019809
v 0.0158000 0.0017472 -0.0011537
v 0.0158000 0.0024000 -0.0012866
v 0.0155657 0.0024000 -0.0021106
v 0.0150000 0.0024000 -0.0024000
v 0.0155657 0.0017480 0.0019809
v 0.0150000 0.0016000 0.0022409
v 0.0150000 0.0016000 0.0008000
v 0.0158000 0.0017472 0.0011537
v 0.0158000 0.0016568 0.0007432
v 0.0158000 0.0024000 0.0013124
v 0.0155657 0.0024000 0.0021106
v 0.0150000 0.0024000 0.0024000
v 0.0150000 0.0001591 0.0008000
v 0.0155657 0.0004191 0.0006520
v 0.0158000 0.0012463 0.0006528
v 0.0155657 0.0043809 0.0006520
v 0.0150000 0.0046409 0.0008000
v 0.0150000 0.0032000 0.0008000
v 0.0158000 0.0035537 0.0006528
v 0.0158000 0.0031432 0.0007432
v 0.0158000 0.0036866 -0.0000000
v 0.0155657 0.0045106 -0.0000000
v 0.0150000 0.0048000 -0.0000000
v 0.0150000 0.0032000 0.0022409
v 0.0155657 0.0030520 0.0019809
v 0.0158000 0.0030528 0.0011537
v 0.0155657 0.0030520 -0.0019809
v 0.0150000 0.0032000 -0.0022409
v 0.0150000 0.0032000 -0.0008000
v 0.0158000 0.0030528 -0.0011537
v 0.0158000 0.0031432 -0.0007432
v 0.0150000 0.0046409 -0.0008000
v 0.0155657 0.0043809 -0.0006520
v 0.0158000 0.0035537 -0.0006528
v -0.0155657 0.0004191 0.0006520
v -0.0150000 0.0001591 0.0008000
v -0.0150000 0.0016000 0.0008000
v -0.0158000 0.0012463 0.0006528
v -0.0158000 0.0016568 0.0007432
v -0.0158000 0.0011134 -0.0000000
v -0.0155657 0.0002894 -0.0000000
v -0.0150000 0.0000000 -0.0000000
v -0.0158000 0.0024000 -0.0000000
v -0.0150000 0.0016000 0.0022409
v -0.0155657 0.0017480 0.0019809
v -0.0158000 0.0017472 0.0011537
v -0.0158000 0.0024000 0.0012866
v -0.0155657 0.0024000 0.0021106
v -0.0150000 0.0024000 0.0024000
v -0.0155657 0.0017480 -0.0019809
v -0.0150000 0.0016000 -0.0022409
v -0.0150000 0.0016000 -0.0008000
v -0.0158000 0.0017472 -0.0011537
v -0.0158000 0.0016568 -0.0007432
v -0.0158000 0.0024000 -0.0013124
v -0.0155657 0.0024000 -0.0021106
v -0.0150000 0.0024000 -0.0024000
v -0.0150000 0.0001591 -0.0008000
v -0.0155657 0.0004191 -0.0006520
v -0.0158000 0.0012463 -0.0006528
v -0.0155657 0.0043809 -0.0006520
v -0.0150000 0.0046409 -0.0008000
v -0.0150000 0.0032000 -0.0008000
v -0.0158000 0.0035537 -0.0006528
v -0.0158000 0.0031432 -0.0007432
v -0.0158000 0.0036866 -0.0000000
v -0.0155657 0.0045106 -0.0000000
v -0.0150000 0.0048000 -0.0000000
v -0.0150000 0.0032000 -0.0022409
v -0.0155657 0.0030520 -0.0019809
v -0.0158000 0.0030528 -0.0011537
v -0.0155657 0.0030520 0.0019809
v -0.0150000 0.0032000 0.0022409
v -0.0150000 0.0032000 0.0008000
v -0.0158000 0.0030528 0.0011537
v -0.0158000 0.0031432 0.0007432
v -0.0150000 0.0046409 0.0008000
v -0.0155657 0.0043809 0.0006520
v -0.0158000 0.0035537 0.0006528
vn 0.2097792 -0.0220155 -0.9775009
vn 0.004842 0.0 -0.9999883
vn 0.0041111 -0.0012163 -0.9999908
vn 0.1377076 -0.0986883 -0.9855441
vn 0.084307 -0.2143003 -0.9731226
vn 0.8786409 -0.4682123 -0.0936343
vn 0.996055 -0.0869539 -0.0177025
vn 0.9875217 -0.1574831 -0.0
vn 0.700976 -0.7131848 -0.0
vn 0.0166029 -0.980657 -0.1950289
vn 0.0047782 -0.9999886 0.0
vn 1.0 0.0 0.0
vn 0.004842 -0.9999883 0.0
vn 0.2097792 -0.9775009 -0.0220155
vn 0.0041111 -0.9999908 -0.0012163
vn 0.1377076 -0.9855441 -0.0986883
vn 0.084307 -0.9731226 -0.2143003
vn 0.9875217 0.0 -0.1574831
vn 0.996055 -0.0177025 -0.0869539
vn 0.8786409 -0.0936343 -0.4682123
vn 0.700976 0.0 -0.7131848
vn 0.0166029 -0.1950289 -0.980657
vn 0.0047782 0.0 -0.9999886
vn 0.2097792 -0.9775009 0.0220155
vn 0.0041111 -0.9999908 0.0012163
vn 0.1377076 -0.9855441 0.0986883
vn 0.084307 -0.9731226 0.2143003
vn 0.8755751 -0.0988034 0.4728701
vn 0.9960641 -0.0209382 0.0861277
vn 0.9875217 0.0 0.1574831
vn 0.6946303 0.0 0.7193669
vn 0.0166029 -0.1950289 0.980657
vn 0.0047782 0.0 0.9999886
vn 0.004842 0.0 0.9999883
vn 0.2097792 -0.0220155 0.9775009
vn 0.0041111 -0.0012163 0.9999908
vn 0.1377076 -0.0986883 0.9855441
vn 0.084307 -0.2143003 0.9731226
vn 0.996055 -0.0869539 0.0177025
vn 0.8786409 -0.4682123 0.0936343
vn 0.0166029 -0.980657 0.1950289
vn 0.2097792 0.0220155 0.9775009
vn 0.0041111 0.0012163 0.9999908
vn 0.1377076 0.0986883 0.9855441
vn 0.084307 0.2143003 0.9731226
vn 0.8786409 0.4682123 0.0936343
vn 0.996055 0.0869539 0.0177025
vn 0.9875217 0.1574831 0.0
vn 0.700976 0.7131848 0.0
vn 0.0166029 0.980657 0.1950289
vn 0.0047782 0.9999886 0.0
vn 0.004842 0.9999883 0.0
vn 0.2097792 0.9775009 0.0220155
vn 0.0041111 0.9999908 0.0012163
vn 0.1377076 0.9855441 0.0986883
vn 0.084307 0.9731226 0.2143003
vn 0.9960641 0.0209382 0.0861277
vn 0.8755751 0.0988034 0.4728701
vn 0.0166029 0.1950289 0.980657
vn 0.2097792 0.9775009 -0.0220155
vn 0.0041111 0.9999908 -0.0012163
vn 0.1377076 0.9855441 -0.0986883
vn 0.084307 0.9731226 -0.2143003
vn 0.8786409 0.0936343 -0.4682123
vn 0.996055 0.0177025 -0.0869539
vn 0.0166029 0.1950289 -0.980657
vn 0.2097792 0.0220155 -0.9775009
vn 0.0041111 0.0012163 -0.9999908
vn 0.1377076 0.0986883 -0.9855441
vn 0.084307 0.2143003 -0.9731226
vn 0.996055 0.0869539 -0.0177025
vn 0.8786409 0.4682123 -0.0936343
vn 0.0166029 0.980657 -0.1950289
vn -0.2097792 -0.0220155 0.9775009
vn -0.0024436 0.0 0.999997
vn -0.0080499 -0.0023816 0.9999648
vn -0.1377076 -0.0986883 0.9855441
vn -0.084307 -0.2143003 0.9731226
vn -0.8786409 -0.4682123 0.0936343
vn -0.996055 -0.0869539 0.0177025
vn -0.9875217 -0.1574831 0.0
vn -0.700976 -0.7131848 0.0
vn -0.008442 -0.9807573 0.1950485
vn -0.0094677 -0.9999552 0.0
vn -1.0 0.0 0.0
vn -0.0024436 -0.999997 0.0
vn -0.2097792 -0.9775009 0.0220155
vn -0.0080499 -0.9999648 0.0023816
vn -0.1377076 -0.9855441 0.0986883
vn -0.084307 -0.9731226 0.2143003
vn -0.9875217 0.0 0.1574831
vn -0.996055 -0.0177025 0.0869539
vn -0.8786409 -0.0936343 0.4682123
vn -0.700976 0.0 0.7131848
vn -0.008442 -0.1950485 0.9807573
vn -0.0094677 0.0 0.9999552
vn -0.2097792 -0.9775009 -0.0220155
vn -0.0080499 -0.9999648 -0.0023816
vn -0.1377076 -0.9855441 -0.0986883
vn -0.084307 -0.9731226 -0.2143003
vn -0.8755751 -0.0988034 -0.4728701
vn -0.9960641 -0.0209382 -0.0861277
vn -0.9875217 0.0 -0.1574831
vn -0.6946303 0.0 -0.7193669
vn -0.008442 -0.1950485 -0.9807573
vn -0.0094677 0.0 -0.9999552
vn -0.0024436 0.0 -0.999997
vn -0.2097792 -0.0220155 -0.9775009
vn -0.0080499 -0.0023816 -0.9999648
vn -0.1377076 -0.0986883 -0.9855441
vn -0.084307 -0.2143003 -0.9731226
vn -0.996055 -0.0869539 -0.0177025
vn -0.8786409 -0.4682123 -0.0936343
vn -0.008442 -0.9807573 -0.1950485
vn -0.2097792 0.0220155 -0.9775009
vn -0.0080499 0.0023816 -0.9999648
vn -0.1377076 0.0986883 -0.9855441
vn -0.084307 0.2143003 -0.9731226
vn -0.8786409 0.4682123 -0.0936343
vn -0.996055 0.0869539 -0.0177025
vn -0.9875217 0.1574831 -0.0
vn -0.700976 0.7131848 0.0
vn -0.008442 0.9807573 -0.1950485
vn -0.0094677 0.9999552 0.0
vn -0.0024436 0.999997 0.0
vn -0.2097792 0.9775009 -0.0220155
vn -0.0080499 0.9999648 -0.0023816
vn -0.1377076 0.9855441 -0.0986883
vn -0.084307 0.9731226 -0.2143003
vn -0.9960641 0.0209382 -0.0861277
vn -0.8755751 0.0988034 -0.4728701
vn -0.008442 0.1950485 -0.9807573
vn -0.2097792 0.9775009 0.0220155
vn -0.0080499 0.9999648 0.0023816
vn -0.1377076 0.9855441 0.0986883
vn -0.084307 0.9731226 0.2143003
vn -0.8786409 0.0936343 0.4682123
vn -0.996055 0.0177025 0.0869539
vn -0.008442 0.1950485 0.9807573
vn -0.2097792 0.0220155 0.9775009
vn -0.0080499 0.0023816 0.9999648
vn -0.1377076 0.0986883 0.9855441
vn -0.084307 0.2143003 0.9731226
vn -0.996055 0.0869539 0.0177025
vn -0.8786409 0.4682123 0.0936343
vn -0.008442 0.9807573 0.1950485
f 1//1 2//2 3//3
f 1//1 3//3 4//4
f 4//4 3//3 5//5
f 1//6 4//7 6//8
f 1//6 6//8 7//9
f 2//10 1//6 7//9
f 2//10 7//9 8//11
f 9//12 6//8 4//7
f 9//12 4//7 5//12
f 10//13 11//14 3//15
f 3//15 11//14 12//16
f 3//15 12//16 5//17
f 13//18 12//19 11//20
f 13//18 11//20 14//21
f 14//21 11//20 10//22
f 14//21 10//22 15//23
f 12//19 13//18 9//12
f 12//19 9//12 5//12
f 16//24 17//13 18//25
f 16//24 18//25 19//26
f 19//26 18//25 20//27
f 16//28 19//29 21//30
f 16//28 21//30 22//31
f 17//32 16//28 22//31
f 17//32 22//31 23//33
f 9//12 21//30 19//29
f 9//12 19//29 20//12
f 24//34 25//35 18//36
f 18//36 25//35 26//37
f 18//36 26//37 20//38
f 6//8 26//39 25//40
f 6//8 25//40 7//9
f 7//9 25//40 24//41
f 7//9 24//41 8//11
f 26//39 6//8 9//12
f 26//39 9//12 20//12
f 27//42 28//34 29//43
f 27//42 29//43 30//44
f 30//44 29//43 31//45
f 27//46 30//47 32//48
f 27//46 32//48 33//49
f 28//50 27//46 33//49
f 28//50 33//49 34//51
f 9//12 32//48 30//47
f 9//12 30//47 31//12
f 35//52 36//53 29//54
f 29//54 36//53 37//55
f 29//54 37//55 31//56
f 21//30 37//57 36//58
f 21//30 36//58 22//31
f 22//31 36//58 35//59
f 22//31 35//59 23//33
f 37//57 21//30 9//12
f 37//57 9//12 31//12
f 38//60 39//52 40//61
f 38//60 40//61 41//62
f 41//62 40//61 42//63
f 38//64 41//65 13//18
f 38//64 13//18 14//21
f 39//66 38//64 14//21
f 39//66 14//21 15//23
f 9//12 13//18 41//65
f 9//12 41//65 42//12
f 43//2 44//67 40//68
f 40//68 44//67 45//69
f 40//68 45//69 42//70
f 32//48 45//71 44//72
f 32//48 44//72 33//49
f 33//49 44//72 43//73
f 33//49 43//73 34//51
f 45//71 32//48 9//12
f 45//71 9//12 42//12
f 46//74 47//75 48//76
f 46//74 48//76 49//77
f 49//77 48//76 50//78
f 46//79 49//80 51//81
f 46//79 51//81 52//82
f 47//83 46//79 52//82
f 47//83 52//82 53//84
f 54//85 51//81 49//80
f 54//85 49//80 50//85
f 55//86 56//87 48//88
f 48//88 56//87 57//89
f 48//88 57//89 50//90
f 58//91 57//92 56//93
f 58//91 56//93 59//94
f 59//94 56//93 55//95
f 59//94 55//95 60//96
f 57//92 58//91 54//85
f 57//92 54//85 50//85
f 61//97 62//86 63//98
f 61//97 63//98 64//99
f 64//99 63//98 65//100
f 61//101 64//102 66//103
f 61//101 66//103 67//104
f 62//105 61//101 67//104
f 62//105 67//104 68//106
f 54//85 66//103 64//102
f 54//85 64//102 65//85
f 69//107 70//108 63//109
f 63//109 70//108 71//110
f 63//109 71//110 65//111
f 51//81 71//112 70//113
f 51//81 70//113 52//82
f 52//82 70//113 69//114
f 52//82 69//114 53//84
f 71//112 51//81 54//85
f 71//112 54//85 65//85
f 72//115 73//107 74//116
f 72//115 74//116 75//117
f 75//117 74//116 76//118
f 72//119 75//120 77//121
f 72//119 77//121 78//122
f 73//123 72//119 78//122
f 73//123 78//122 79//124
f 54//85 77//121 75//120
f 54//85 75//120 76//85
f 80//125 81//126 74//127
f 74//127 81//126 82//128
f 74//127 82//128 76//129
f 66//103 82//130 81//131
f 66//103 81//131 67//104
f 67//104 81//131 80//132
f 67//104 80//132 68//106
f 82//130 66//103 54//85
f 82//130 54//85 76//85
f 83//133 84//125 85//134
f 83//133 85//134 86//135
f 86//135 85//134 87//136
f 83//137 86//138 58//91
f 83//137 58//91 59//94
f 84//139 83//137 59//94
f 84//139 59//94 60//96
f 54//85 58//91 86//138
f 54//85 86//138 87//85
f 88//75 89//140 85//141
f 85//141 89//140 90//142
f 85//141 90//142 87//143
f 77//121 90//144 89//145
f 77//121 89//145 78//122
f 78//122 89//145 88//146
f 78//122 88//146 79//124
f 90//144 77//121 54//85
f 90//144 54//85 87//85
f 3//15 63//98 62//86
f 3//15 62//86 10//13
f 69//107 63//109 3//3
f 69//107 3//3 2//2
f 80//125 74//127 40//61
f 39//52 80//125 40//61
f 40//68 74//116 73//107
f 43//2 40//68 73//107
f 29//54 85//134 84//125
f 29//54 84//125 35//52
f 88//75 85//141 29//43
f 88//75 29//43 28//34
f 55//86 48//88 18//25
f 17//13 55//86 18//25
f 18//36 48//76 47//75
f 24//34 18//36 47//75
f 69//114 2//10 8//11
f 69//114 8//11 53//84
f 62//105 68//106 15//23
f 62//105 15//23 10//22
f 80//132 39//66 15//23
f 80//132 15//23 68//106
f 73//123 79//124 34//51
f 73//123 34//51 43//73
f 88//146 28//50 34//51
f 88//146 34//51 79//124
f 55//95 17//32 23//33
f 55//95 23//33 60//96
f 84//139 60//96 23//33
f 84//139 23//33 35//59
f 47//83 53//84 8//11
f 47//83 8//11 24//41
