# Botball Lab: metres, +Y up, centred XZ, base Y=0
s off
v 0.0014782 0.0000000 -0.0006123
v 0.0016000 0.0000000 -0.0000000
v 0.0000000 0.0000000 -0.0000000
v 0.0011314 0.0000000 -0.0011314
v 0.0006123 0.0000000 -0.0014782
v 0.0000000 0.0000000 -0.0016000
v -0.0006123 0.0000000 -0.0014782
v -0.0011314 0.0000000 -0.0011314
v -0.0014782 0.0000000 -0.0006123
v -0.0016000 0.0000000 -0.0000000
v -0.0014782 0.0000000 0.0006123
v -0.0011314 0.0000000 0.0011314
v -0.0006123 0.0000000 0.0014782
v 0.0000000 0.0000000 0.0016000
v 0.0006123 0.0000000 0.0014782
v 0.0011314 0.0000000 0.0011314
v 0.0014782 0.0000000 0.0006123
v 0.0014782 0.0024000 -0.0006123
v 0.0016000 0.0024000 -0.0000000
v 0.0011314 0.0024000 -0.0011314
v 0.0006123 0.0024000 -0.0014782
v 0.0000000 0.0024000 -0.0016000
v -0.0006123 0.0024000 -0.0014782
v -0.0011314 0.0024000 -0.0011314
v -0.0014782 0.0024000 -0.0006123
v -0.0016000 0.0024000 -0.0000000
v -0.0014782 0.0024000 0.0006123
v -0.0011314 0.0024000 0.0011314
v -0.0006123 0.0024000 0.0014782
v 0.0000000 0.0024000 0.0016000
v 0.0006123 0.0024000 0.0014782
v 0.0011314 0.0024000 0.0011314
v 0.0014782 0.0024000 0.0006123
v 0.0014782 0.0028130 -0.0006123
v 0.0016000 0.0028944 -0.0000000
v 0.0012246 0.0026435 -0.0009918
v 0.0011314 0.0026250 -0.0011314
v 0.0006123 0.0025218 -0.0014782
v -0.0006123 0.0025218 -0.0014782
v -0.0011314 0.0026250 -0.0011314
v -0.0012246 0.0026435 -0.0009918
v -0.0014782 0.0028130 -0.0006123
v -0.0016000 0.0028944 -0.0000000
v -0.0014782 0.0028130 0.0006123
v -0.0012246 0.0026435 0.0009918
v -0.0011314 0.0026250 0.0011314
v -0.0006123 0.0025218 0.0014782
v 0.0006123 0.0025218 0.0014782
v 0.0011314 0.0026250 0.0011314
v 0.0012246 0.0026435 0.0009918
v 0.0014782 0.0028130 0.0006123
v -0.0012246 0.0026435 -0.0032000
v -0.0009185 0.0033826 -0.0032000
v 0.0000000 0.0032000 -0.0032000
v 0.0000000 0.0024000 -0.0032000
v -0.0022627 0.0033373 -0.0032000
v -0.0016970 0.0039030 -0.0032000
v -0.0029565 0.0043754 -0.0032000
v -0.0022174 0.0046815 -0.0032000
v -0.0032000 0.0056000 -0.0032000
v -0.0024000 0.0056000 -0.0032000
v -0.0029565 0.0068246 -0.0032000
v -0.0022174 0.0065185 -0.0032000
v -0.0022627 0.0078627 -0.0032000
v -0.0016970 0.0072970 -0.0032000
v -0.0012246 0.0085565 -0.0032000
v -0.0009185 0.0078174 -0.0032000
v 0.0000000 0.0088000 -0.0032000
v 0.0000000 0.0080000 -0.0032000
v 0.0012246 0.0085565 -0.0032000
v 0.0009185 0.0078174 -0.0032000
v 0.0022627 0.0078627 -0.0032000
v 0.0016970 0.0072970 -0.0032000
v 0.0029565 0.0068246 -0.0032000
v 0.0022174 0.0065185 -0.0032000
v 0.0032000 0.0056000 -0.0032000
v 0.0024000 0.0056000 -0.0032000
v 0.0029565 0.0043754 -0.0032000
v 0.0022174 0.0046815 -0.0032000
v 0.0022627 0.0033373 -0.0032000
v 0.0016970 0.0039030 -0.0032000
v 0.0012246 0.0026435 -0.0032000
v 0.0009185 0.0033826 -0.0032000
v 0.0029565 0.0043754 -0.0040000
v 0.0032000 0.0056000 -0.0040000
v 0.0022627 0.0033373 -0.0040000
v 0.0012246 0.0026435 -0.0040000
v 0.0000000 0.0024000 -0.0040000
v -0.0012246 0.0026435 -0.0040000
v -0.0022627 0.0033373 -0.0040000
v -0.0029565 0.0043754 -0.0040000
v -0.0032000 0.0056000 -0.0040000
v -0.0029565 0.0068246 -0.0040000
v -0.0022627 0.0078627 -0.0040000
v -0.0012246 0.0085565 -0.0040000
v 0.0000000 0.0088000 -0.0040000
v 0.0012246 0.0085565 -0.0040000
v 0.0022627 0.0078627 -0.0040000
v 0.0029565 0.0068246 -0.0040000
v 0.0000000 0.0032000 0.0032000
v -0.0009185 0.0033826 0.0032000
v -0.0012246 0.0026435 0.0032000
v 0.0000000 0.0024000 0.0032000
v -0.0016970 0.0039030 0.0032000
v -0.0022627 0.0033373 0.0032000
v -0.0022174 0.0046815 0.0032000
v -0.0029565 0.0043754 0.0032000
v -0.0024000 0.0056000 0.0032000
v -0.0032000 0.0056000 0.0032000
v -0.0022174 0.0065185 0.0032000
v -0.0029565 0.0068246 0.0032000
v -0.0016970 0.0072970 0.0032000
v -0.0022627 0.0078627 0.0032000
v -0.0009185 0.0078174 0.0032000
v -0.0012246 0.0085565 0.0032000
v 0.0000000 0.0080000 0.0032000
v 0.0000000 0.0088000 0.0032000
v 0.0009185 0.0078174 0.0032000
v 0.0012246 0.0085565 0.0032000
v 0.0016970 0.0072970 0.0032000
v 0.0022627 0.0078627 0.0032000
v 0.0022174 0.0065185 0.0032000
v 0.0029565 0.0068246 0.0032000
v 0.0024000 0.0056000 0.0032000
v 0.0032000 0.0056000 0.0032000
v 0.0022174 0.0046815 0.0032000
v 0.0029565 0.0043754 0.0032000
v 0.0016970 0.0039030 0.0032000
v 0.0022627 0.0033373 0.0032000
v 0.0009185 0.0033826 0.0032000
v 0.0012246 0.0026435 0.0032000
v 0.0029565 0.0043754 0.0040000
v 0.0032000 0.0056000 0.0040000
v 0.0022627 0.0033373 0.0040000
v 0.0012246 0.0026435 0.0040000
v 0.0000000 0.0024000 0.0040000
v -0.0012246 0.0026435 0.0040000
v -0.0022627 0.0033373 0.0040000
v -0.0029565 0.0043754 0.0040000
v -0.0032000 0.0056000 0.0040000
v -0.0029565 0.0068246 0.0040000
v -0.0022627 0.0078627 0.0040000
v -0.0012246 0.0085565 0.0040000
v 0.0000000 0.0088000 0.0040000
v 0.0012246 0.0085565 0.0040000
v 0.0022627 0.0078627 0.0040000
v 0.0029565 0.0068246 0.0040000
v 0.0064000 0.0080000 0.0024000
v 0.0032000 0.0080000 0.0024000
v 0.0032000 0.0080000 -0.0024000
v 0.0064000 0.0080000 -0.0024000
v 0.0064000 0.0000000 -0.0024000
v 0.0064000 0.0000000 0.0024000
v -0.0064000 0.0080000 -0.0024000
v -0.0032000 0.0080000 -0.0024000
v -0.0032000 0.0080000 0.0024000
v -0.0064000 0.0080000 0.0024000
v -0.0064000 0.0000000 0.0024000
v -0.0064000 0.0000000 -0.0024000
v 0.0029565 0.0043754 0.0024000
v 0.0029565 0.0043754 -0.0024000
v 0.0032000 0.0056000 -0.0024000
v 0.0032000 0.0056000 0.0024000
v 0.0022627 0.0033373 0.0024000
v 0.0022627 0.0033373 -0.0024000
v 0.0012246 0.0026435 0.0024000
v 0.0012246 0.0026435 -0.0024000
v 0.0000000 0.0024000 0.0024000
v 0.0000000 0.0024000 -0.0024000
v -0.0012246 0.0026435 0.0024000
v -0.0012246 0.0026435 -0.0024000
v -0.0022627 0.0033373 0.0024000
v -0.0022627 0.0033373 -0.0024000
v -0.0029565 0.0043754 0.0024000
v -0.0029565 0.0043754 -0.0024000
v -0.0032000 0.0056000 0.0024000
v -0.0032000 0.0056000 -0.0024000
v 0.0032000 0.0024000 -0.0024000
v -0.0032000 0.0024000 -0.0024000
v 0.0032000 0.0024000 0.0024000
v -0.0032000 0.0024000 0.0024000
v 0.0080000 0.0000000 -0.0040000
v -0.0080000 0.0000000 -0.0040000
v 0.0080000 0.0000000 0.0040000
v -0.0080000 0.0000000 0.0040000
v 0.0080000 0.0096000 -0.0040000
v -0.0080000 0.0096000 -0.0040000
v -0.0080000 0.0096000 0.0040000
v 0.0080000 0.0096000 0.0040000
v 0.0032000 0.0024000 -0.0040000
v -0.0032000 0.0024000 -0.0040000
v -0.0032000 0.0088000 -0.0040000
v 0.0032000 0.0088000 -0.0040000
v 0.0032000 0.0024000 0.0040000
v -0.0032000 0.0024000 0.0040000
v -0.0032000 0.0088000 0.0040000
v 0.0032000 0.0088000 0.0040000
v 0.0054782 0.0112000 -0.0006123
v 0.0054782 0.0096000 -0.0006123
v 0.0056000 0.0096000 -0.0000000
v 0.0056000 0.0112000 -0.0000000
v 0.0051314 0.0112000 -0.0011314
v 0.0051314 0.0096000 -0.0011314
v 0.0046123 0.0112000 -0.0014782
v 0.0046123 0.0096000 -0.0014782
v 0.0040000 0.0112000 -0.0016000
v 0.0040000 0.0096000 -0.0016000
v 0.0033877 0.0112000 -0.0014782
v 0.0033877 0.0096000 -0.0014782
v 0.0028686 0.0112000 -0.0011314
v 0.0028686 0.0096000 -0.0011314
v 0.0025218 0.0112000 -0.0006123
v 0.0025218 0.0096000 -0.0006123
v 0.0024000 0.0112000 -0.0000000
v 0.0024000 0.0096000 -0.0000000
v 0.0025218 0.0112000 0.0006123
v 0.0025218 0.0096000 0.0006123
v 0.0028686 0.0112000 0.0011314
v 0.0028686 0.0096000 0.0011314
v 0.0033877 0.0112000 0.0014782
v 0.0033877 0.0096000 0.0014782
v 0.0040000 0.0112000 0.0016000
v 0.0040000 0.0096000 0.0016000
v 0.0046123 0.0112000 0.0014782
v 0.0046123 0.0096000 0.0014782
v 0.0051314 0.0112000 0.0011314
v 0.0051314 0.0096000 0.0011314
v 0.0054782 0.0112000 0.0006123
v 0.0054782 0.0096000 0.0006123
v 0.0064000 0.0096000 -0.0000000
v 0.0062174 0.0096000 -0.0009185
v 0.0062174 0.0112000 -0.0009185
v 0.0064000 0.0112000 -0.0000000
v 0.0056970 0.0096000 -0.0016970
v 0.0056970 0.0112000 -0.0016970
v 0.0049185 0.0096000 -0.0022174
v 0.0049185 0.0112000 -0.0022174
v 0.0040000 0.0096000 -0.0024000
v 0.0040000 0.0112000 -0.0024000
v 0.0030815 0.0096000 -0.0022174
v 0.0030815 0.0112000 -0.0022174
v 0.0023030 0.0096000 -0.0016970
v 0.0023030 0.0112000 -0.0016970
v 0.0017826 0.0096000 -0.0009185
v 0.0017826 0.0112000 -0.0009185
v 0.0016000 0.0096000 -0.0000000
v 0.0016000 0.0112000 -0.0000000
v 0.0017826 0.0096000 0.0009185
v 0.0017826 0.0112000 0.0009185
v 0.0023030 0.0096000 0.0016970
v 0.0023030 0.0112000 0.0016970
v 0.0030815 0.0096000 0.0022174
v 0.0030815 0.0112000 0.0022174
v 0.0040000 0.0096000 0.0024000
v 0.0040000 0.0112000 0.0024000
v 0.0049185 0.0096000 0.0022174
v 0.0049185 0.0112000 0.0022174
v 0.0056970 0.0096000 0.0016970
v 0.0056970 0.0112000 0.0016970
v 0.0062174 0.0096000 0.0009185
v 0.0062174 0.0112000 0.0009185
v -0.0025218 0.0112000 -0.0006123
v -0.0025218 0.0096000 -0.0006123
v -0.0024000 0.0096000 -0.0000000
v -0.0024000 0.0112000 -0.0000000
v -0.0028686 0.0112000 -0.0011314
v -0.0028686 0.0096000 -0.0011314
v -0.0033877 0.0112000 -0.0014782
v -0.0033877 0.0096000 -0.0014782
v -0.0040000 0.0112000 -0.0016000
v -0.0040000 0.0096000 -0.0016000
v -0.0046123 0.0112000 -0.0014782
v -0.0046123 0.0096000 -0.0014782
v -0.0051314 0.0112000 -0.0011314
v -0.0051314 0.0096000 -0.0011314
v -0.0054782 0.0112000 -0.0006123
v -0.0054782 0.0096000 -0.0006123
v -0.0056000 0.0112000 -0.0000000
v -0.0056000 0.0096000 -0.0000000
v -0.0054782 0.0112000 0.0006123
v -0.0054782 0.0096000 0.0006123
v -0.0051314 0.0112000 0.0011314
v -0.0051314 0.0096000 0.0011314
v -0.0046123 0.0112000 0.0014782
v -0.0046123 0.0096000 0.0014782
v -0.0040000 0.0112000 0.0016000
v -0.0040000 0.0096000 0.0016000
v -0.0033877 0.0112000 0.0014782
v -0.0033877 0.0096000 0.0014782
v -0.0028686 0.0112000 0.0011314
v -0.0028686 0.0096000 0.0011314
v -0.0025218 0.0112000 0.0006123
v -0.0025218 0.0096000 0.0006123
v -0.0016000 0.0096000 -0.0000000
v -0.0017826 0.0096000 -0.0009185
v -0.0017826 0.0112000 -0.0009185
v -0.0016000 0.0112000 -0.0000000
v -0.0023030 0.0096000 -0.0016970
v -0.0023030 0.0112000 -0.0016970
v -0.0030815 0.0096000 -0.0022174
v -0.0030815 0.0112000 -0.0022174
v -0.0040000 0.0096000 -0.0024000
v -0.0040000 0.0112000 -0.0024000
v -0.0049185 0.0096000 -0.0022174
v -0.0049185 0.0112000 -0.0022174
v -0.0056970 0.0096000 -0.0016970
v -0.0056970 0.0112000 -0.0016970
v -0.0062174 0.0096000 -0.0009185
v -0.0062174 0.0112000 -0.0009185
v -0.0064000 0.0096000 -0.0000000
v -0.0064000 0.0112000 -0.0000000
v -0.0062174 0.0096000 0.0009185
v -0.0062174 0.0112000 0.0009185
v -0.0056970 0.0096000 0.0016970
v -0.0056970 0.0112000 0.0016970
v -0.0049185 0.0096000 0.0022174
v -0.0049185 0.0112000 0.0022174
v -0.0040000 0.0096000 0.0024000
v -0.0040000 0.0112000 0.0024000
v -0.0030815 0.0096000 0.0022174
v -0.0030815 0.0112000 0.0022174
v -0.0023030 0.0096000 0.0016970
v -0.0023030 0.0112000 0.0016970
v -0.0017826 0.0096000 0.0009185
v -0.0017826 0.0112000 0.0009185
vn 0.0 -1.0 0.0
vn 0.9471789 0.0 -0.3207056
vn 0.8981164 6.6e-06 -0.4397578
vn 0.9978908 0.0 -0.0649152
vn 0.9978089 0.0 0.0661621
vn 0.7523546 0.0 -0.6587584
vn 0.660077 0.0 -0.7511979
vn 0.442928 0.0 -0.8965572
vn 0.322751 0.0 -0.9464839
vn 0.0661621 0.0 -0.9978089
vn -0.0640059 0.0 -0.9979495
vn -0.3207056 0.0 -0.9471789
vn -0.4445198 0.0 -0.895769
vn -0.6587584 0.0 -0.7523546
vn -0.7497893 0.0 -0.6616767
vn -0.8965572 0.0 -0.442928
vn -0.9456884 6.2e-06 -0.3250746
vn -0.9978089 0.0 -0.0661621
vn -0.9978908 0.0 0.0649152
vn -0.9471789 0.0 0.3207056
vn -0.8981164 6.6e-06 0.4397578
vn -0.7523546 0.0 0.6587584
vn -0.660077 0.0 0.7511979
vn -0.442928 0.0 0.8965572
vn -0.322751 0.0 0.9464839
vn -0.0661621 0.0 0.9978089
vn 0.0640059 0.0 0.9979495
vn 0.3207056 0.0 0.9471789
vn 0.4445198 0.0 0.895769
vn 0.6587584 0.0 0.7523546
vn 0.7497893 0.0 0.6616767
vn 0.8965572 0.0 0.442928
vn 0.9456884 6.2e-06 0.3250746
vn 0.9572482 0.0 -0.2892678
vn 0.998287 0.0 0.0585063
vn 0.8314844 0.0001394 -0.5555481
vn 0.7278218 0.0001023 -0.6857662
vn 0.4687443 0.0 -0.8833339
vn -0.3826547 0.0 -0.9238914
vn -0.6978137 8.32e-05 -0.7162793
vn -0.8314844 0.0001394 -0.5555481
vn -0.9352474 0.0 -0.3539946
vn -0.998287 0.0 -0.0585063
vn -0.9572482 0.0 0.2892678
vn -0.8314844 0.0001394 0.5555481
vn -0.7278218 0.0001023 0.6857662
vn -0.4687443 0.0 0.8833339
vn 0.3826547 0.0 0.9238914
vn 0.6978137 8.32e-05 0.7162793
vn 0.8314844 0.0001394 0.5555481
vn 0.9352474 0.0 0.3539946
vn 0.0 0.0 -1.0
vn -0.9471761 0.3207139 0.0
vn -0.8965142 0.4430151 0.0
vn -0.9978107 0.066135 0.0
vn -0.9978107 -0.066135 0.0
vn -0.7523142 0.6588045 0.0
vn -0.6588045 0.7523142 0.0
vn -0.4430151 0.8965142 0.0
vn -0.3207139 0.9471761 0.0
vn -0.066135 0.9978107 0.0
vn 0.066135 0.9978107 0.0
vn 0.3207139 0.9471761 0.0
vn 0.4430151 0.8965142 0.0
vn 0.6588045 0.7523142 0.0
vn 0.7523142 0.6588045 0.0
vn 0.8965142 0.4430151 0.0
vn 0.9471761 0.3207139 0.0
vn 0.9978107 0.066135 0.0
vn 0.9978107 -0.066135 0.0
vn 0.9471761 -0.3207139 0.0
vn 0.8965142 -0.4430151 0.0
vn 0.7523142 -0.6588045 0.0
vn 0.6588045 -0.7523142 0.0
vn 0.4430151 -0.8965142 0.0
vn 0.3207139 -0.9471761 0.0
vn 0.066135 -0.9978107 0.0
vn -0.066135 -0.9978107 0.0
vn -0.3207139 -0.9471761 0.0
vn -0.4430151 -0.8965142 0.0
vn -0.6588045 -0.7523142 0.0
vn -0.7523142 -0.6588045 0.0
vn -0.8965142 -0.4430151 0.0
vn -0.9471761 -0.3207139 0.0
vn 0.0 0.0 1.0
vn -1.0 0.0 0.0
vn 1.0 0.0 0.0
vn 0.9949948 -0.0999263 0.0
vn 0.9991842 -0.0403846 0.0
vn -0.9949948 -0.0999263 0.0
vn -0.9991842 -0.0403846 0.0
vn -0.947177 0.3207111 0.0
vn -0.8964963 0.4430513 0.0
vn -0.9978115 0.0661224 0.0
vn -0.9978115 -0.0661224 0.0
vn -0.752294 0.6588276 0.0
vn -0.6588276 0.752294 0.0
vn -0.4430513 0.8964963 0.0
vn -0.3207111 0.947177 0.0
vn -0.0661224 0.9978115 0.0
vn 0.0661224 0.9978115 0.0
vn 0.3207111 0.947177 0.0
vn 0.4430513 0.8964963 0.0
vn 0.6588276 0.752294 0.0
vn 0.752294 0.6588276 0.0
vn 0.8964963 0.4430513 0.0
vn 0.947177 0.3207111 0.0
vn 0.9978115 0.0661224 0.0
vn 0.9978115 -0.0661224 0.0
vn 0.947177 -0.3207111 0.0
vn 0.8964963 -0.4430513 0.0
vn 0.752294 -0.6588276 0.0
vn 0.6588276 -0.752294 0.0
vn 0.4430513 -0.8964963 0.0
vn 0.3207111 -0.947177 0.0
vn 0.0661224 -0.9978115 0.0
vn -0.0661224 -0.9978115 0.0
vn -0.3207111 -0.947177 0.0
vn -0.4430513 -0.8964963 0.0
vn -0.6588276 -0.752294 0.0
vn -0.752294 -0.6588276 0.0
vn -0.8964963 -0.4430513 0.0
vn -0.947177 -0.3207111 0.0
vn 0.0 1.0 0.0
vn -0.8965572 0.0 0.442928
vn -0.9978089 0.0 0.0661621
vn -0.6587584 0.0 0.7523546
vn -0.3207056 0.0 0.9471789
vn 0.0661621 0.0 0.9978089
vn 0.442928 0.0 0.8965572
vn 0.7523546 0.0 0.6587584
vn 0.9471789 0.0 0.3207056
vn 0.9978089 0.0 -0.0661621
vn 0.8965572 0.0 -0.442928
vn 0.6587584 0.0 -0.7523546
vn 0.3207056 0.0 -0.9471789
vn -0.0661621 0.0 -0.9978089
vn -0.442928 0.0 -0.8965572
vn -0.7523546 0.0 -0.6587584
vn -0.9471789 0.0 -0.3207056
vn 0.9978115 0.0 -0.0661224
vn 0.8964963 0.0 -0.4430513
vn 0.947177 0.0 -0.3207111
vn 0.9978115 0.0 0.0661224
vn 0.6588276 0.0 -0.752294
vn 0.752294 0.0 -0.6588276
vn 0.3207111 0.0 -0.947177
vn 0.4430513 0.0 -0.8964963
vn -0.0661224 0.0 -0.9978115
vn 0.0661224 0.0 -0.9978115
vn -0.4430513 0.0 -0.8964963
vn -0.3207111 0.0 -0.947177
vn -0.752294 0.0 -0.6588276
vn -0.6588276 0.0 -0.752294
vn -0.947177 0.0 -0.3207111
vn -0.8964963 0.0 -0.4430513
vn -0.9978115 0.0 0.0661224
vn -0.9978115 0.0 -0.0661224
vn -0.8964963 0.0 0.4430513
vn -0.947177 0.0 0.3207111
vn -0.6588276 0.0 0.752294
vn -0.752294 0.0 0.6588276
vn -0.3207111 0.0 0.947177
vn -0.4430513 0.0 0.8964963
vn 0.0661224 0.0 0.9978115
vn -0.0661224 0.0 0.9978115
vn 0.4430513 0.0 0.8964963
vn 0.3207111 0.0 0.947177
vn 0.752294 0.0 0.6588276
vn 0.6588276 0.0 0.752294
vn 0.947177 0.0 0.3207111
vn 0.8964963 0.0 0.4430513
f 1//1 2//1 3//1
f 4//1 1//1 3//1
f 5//1 4//1 3//1
f 6//1 5//1 3//1
f 7//1 6//1 3//1
f 8//1 7//1 3//1
f 9//1 8//1 3//1
f 10//1 9//1 3//1
f 11//1 10//1 3//1
f 12//1 11//1 3//1
f 13//1 12//1 3//1
f 14//1 13//1 3//1
f 15//1 14//1 3//1
f 16//1 15//1 3//1
f 17//1 16//1 3//1
f 2//1 17//1 3//1
f 1//2 18//3 19//4
f 2//5 1//2 19//4
f 4//6 20//7 18//3
f 1//2 4//6 18//3
f 5//8 21//9 20//7
f 4//6 5//8 20//7
f 6//10 22//11 21//9
f 5//8 6//10 21//9
f 7//12 23//13 22//11
f 6//10 7//12 22//11
f 8//14 24//15 23//13
f 7//12 8//14 23//13
f 9//16 25//17 24//15
f 8//14 9//16 24//15
f 10//18 26//19 25//17
f 9//16 10//18 25//17
f 11//20 27//21 26//19
f 10//18 11//20 26//19
f 12//22 28//23 27//21
f 11//20 12//22 27//21
f 13//24 29//25 28//23
f 12//22 13//24 28//23
f 14//26 30//27 29//25
f 13//24 14//26 29//25
f 15//28 31//29 30//27
f 14//26 15//28 30//27
f 16//30 32//31 31//29
f 15//28 16//30 31//29
f 17//32 33//33 32//31
f 16//30 17//32 32//31
f 2//5 19//4 33//33
f 17//32 2//5 33//33
f 19//4 18//3 34//34
f 19//4 34//34 35//35
f 36//36 34//34 18//3
f 18//3 20//7 37//37
f 18//3 37//37 36//36
f 20//7 21//9 38//38
f 20//7 38//38 37//37
f 21//9 22//11 38//38
f 22//11 23//13 39//39
f 23//13 24//15 40//40
f 23//13 40//40 39//39
f 25//17 41//41 40//40
f 25//17 40//40 24//15
f 42//42 41//41 25//17
f 25//17 26//19 43//43
f 25//17 43//43 42//42
f 26//19 27//21 44//44
f 26//19 44//44 43//43
f 45//45 44//44 27//21
f 27//21 28//23 46//46
f 27//21 46//46 45//45
f 28//23 29//25 47//47
f 28//23 47//47 46//46
f 29//25 30//27 47//47
f 30//27 31//29 48//48
f 31//29 32//31 49//49
f 31//29 49//49 48//48
f 33//33 50//50 49//49
f 33//33 49//49 32//31
f 51//51 50//50 33//33
f 33//33 19//4 35//35
f 33//33 35//35 51//51
f 52//52 53//52 54//52
f 52//52 54//52 55//52
f 56//52 57//52 53//52
f 56//52 53//52 52//52
f 58//52 59//52 57//52
f 58//52 57//52 56//52
f 60//52 61//52 59//52
f 60//52 59//52 58//52
f 62//52 63//52 61//52
f 62//52 61//52 60//52
f 64//52 65//52 63//52
f 64//52 63//52 62//52
f 66//52 67//52 65//52
f 66//52 65//52 64//52
f 68//52 69//52 67//52
f 68//52 67//52 66//52
f 70//52 71//52 69//52
f 70//52 69//52 68//52
f 72//52 73//52 71//52
f 72//52 71//52 70//52
f 74//52 75//52 73//52
f 74//52 73//52 72//52
f 76//52 77//52 75//52
f 76//52 75//52 74//52
f 78//52 79//52 77//52
f 78//52 77//52 76//52
f 80//52 81//52 79//52
f 80//52 79//52 78//52
f 82//52 83//52 81//52
f 82//52 81//52 80//52
f 55//52 54//52 83//52
f 55//52 83//52 82//52
f 84//53 78//54 76//55
f 85//56 84//53 76//55
f 86//57 80//58 78//54
f 84//53 86//57 78//54
f 87//59 82//60 80//58
f 86//57 87//59 80//58
f 88//61 55//62 82//60
f 87//59 88//61 82//60
f 89//63 52//64 55//62
f 88//61 89//63 55//62
f 90//65 56//66 52//64
f 89//63 90//65 52//64
f 91//67 58//68 56//66
f 90//65 91//67 56//66
f 92//69 60//70 58//68
f 91//67 92//69 58//68
f 93//71 62//72 60//70
f 92//69 93//71 60//70
f 94//73 64//74 62//72
f 93//71 94//73 62//72
f 95//75 66//76 64//74
f 94//73 95//75 64//74
f 96//77 68//78 66//76
f 95//75 96//77 66//76
f 97//79 70//80 68//78
f 96//77 97//79 68//78
f 98//81 72//82 70//80
f 97//79 98//81 70//80
f 99//83 74//84 72//82
f 98//81 99//83 72//82
f 85//56 76//55 74//84
f 99//83 85//56 74//84
f 100//85 101//85 102//85
f 103//85 100//85 102//85
f 101//85 104//85 105//85
f 102//85 101//85 105//85
f 104//85 106//85 107//85
f 105//85 104//85 107//85
f 106//85 108//85 109//85
f 107//85 106//85 109//85
f 108//85 110//85 111//85
f 109//85 108//85 111//85
f 110//85 112//85 113//85
f 111//85 110//85 113//85
f 112//85 114//85 115//85
f 113//85 112//85 115//85
f 114//85 116//85 117//85
f 115//85 114//85 117//85
f 116//85 118//85 119//85
f 117//85 116//85 119//85
f 118//85 120//85 121//85
f 119//85 118//85 121//85
f 120//85 122//85 123//85
f 121//85 120//85 123//85
f 122//85 124//85 125//85
f 123//85 122//85 125//85
f 124//85 126//85 127//85
f 125//85 124//85 127//85
f 126//85 128//85 129//85
f 127//85 126//85 129//85
f 128//85 130//85 131//85
f 129//85 128//85 131//85
f 130//85 100//85 103//85
f 131//85 130//85 103//85
f 125//55 127//54 132//53
f 125//55 132//53 133//56
f 127//54 129//58 134//57
f 127//54 134//57 132//53
f 129//58 131//60 135//59
f 129//58 135//59 134//57
f 131//60 103//62 136//61
f 131//60 136//61 135//59
f 103//62 102//64 137//63
f 103//62 137//63 136//61
f 102//64 105//66 138//65
f 102//64 138//65 137//63
f 105//66 107//68 139//67
f 105//66 139//67 138//65
f 107//68 109//70 140//69
f 107//68 140//69 139//67
f 109//70 111//72 141//71
f 109//70 141//71 140//69
f 111//72 113//74 142//73
f 111//72 142//73 141//71
f 113//74 115//76 143//75
f 113//74 143//75 142//73
f 115//76 117//78 144//77
f 115//76 144//77 143//75
f 117//78 119//80 145//79
f 117//78 145//79 144//77
f 119//80 121//82 146//81
f 119//80 146//81 145//79
f 121//82 123//84 147//83
f 121//82 147//83 146//81
f 123//84 125//55 133//56
f 123//84 133//56 147//83
f 148//1 149//1 150//1
f 148//1 150//1 151//1
f 148//86 151//86 152//86
f 148//86 152//86 153//86
f 154//1 155//1 156//1
f 154//1 156//1 157//1
f 154//87 157//87 158//87
f 154//87 158//87 159//87
f 160//71 161//72 162//88
f 160//71 162//88 163//89
f 164//73 165//74 161//72
f 164//73 161//72 160//71
f 166//75 167//76 165//74
f 166//75 165//74 164//73
f 168//77 169//78 167//76
f 168//77 167//76 166//75
f 170//79 171//80 169//78
f 170//79 169//78 168//77
f 172//81 173//82 171//80
f 172//81 171//80 170//79
f 174//83 175//84 173//82
f 174//83 173//82 172//81
f 176//90 177//91 175//84
f 176//90 175//84 174//83
f 163//89 162//88 150//87
f 163//89 150//87 149//87
f 177//91 176//90 156//86
f 177//91 156//86 155//86
f 178//85 162//85 161//85
f 178//85 161//85 165//85
f 178//85 165//85 167//85
f 178//85 167//85 169//85
f 179//85 169//85 171//85
f 179//85 171//85 173//85
f 179//85 173//85 175//85
f 179//85 175//85 177//85
f 160//52 163//52 180//52
f 164//52 160//52 180//52
f 166//52 164//52 180//52
f 168//52 166//52 180//52
f 170//52 168//52 181//52
f 172//52 170//52 181//52
f 174//52 172//52 181//52
f 176//52 174//52 181//52
f 152//85 151//85 150//85
f 152//85 150//85 178//85
f 153//52 180//52 149//52
f 153//52 149//52 148//52
f 179//85 155//85 154//85
f 179//85 154//85 159//85
f 181//52 158//52 157//52
f 181//52 157//52 156//52
f 152//85 178//85 179//85
f 152//85 179//85 159//85
f 153//52 158//52 181//52
f 153//52 181//52 180//52
f 182//1 152//1 159//1
f 182//1 159//1 183//1
f 184//1 185//1 158//1
f 184//1 158//1 153//1
f 182//1 184//1 153//1
f 182//1 153//1 152//1
f 183//1 159//1 158//1
f 183//1 158//1 185//1
f 79//92 126//93 124//94
f 77//95 79//92 124//94
f 81//96 128//97 126//93
f 79//92 81//96 126//93
f 83//98 130//99 128//97
f 81//96 83//98 128//97
f 54//100 100//101 130//99
f 83//98 54//100 130//99
f 53//102 101//103 100//101
f 54//100 53//102 100//101
f 57//104 104//105 101//103
f 53//102 57//104 101//103
f 59//106 106//107 104//105
f 57//104 59//106 104//105
f 61//108 108//109 106//107
f 59//106 61//108 106//107
f 63//110 110//111 108//109
f 61//108 63//110 108//109
f 65//112 112//113 110//111
f 63//110 65//112 110//111
f 67//114 114//115 112//113
f 65//112 67//114 112//113
f 69//116 116//117 114//115
f 67//114 69//116 114//115
f 71//118 118//119 116//117
f 69//116 71//118 116//117
f 73//120 120//121 118//119
f 71//118 73//120 118//119
f 75//122 122//123 120//121
f 73//120 75//122 120//121
f 77//95 124//94 122//123
f 75//122 77//95 122//123
f 186//124 187//124 188//124
f 186//124 188//124 189//124
f 187//86 183//86 185//86
f 187//86 185//86 188//86
f 189//87 184//87 182//87
f 189//87 182//87 186//87
f 84//52 85//52 190//52
f 86//52 84//52 190//52
f 87//52 86//52 190//52
f 88//52 87//52 190//52
f 89//52 88//52 191//52
f 90//52 89//52 191//52
f 91//52 90//52 191//52
f 92//52 91//52 191//52
f 93//52 92//52 192//52
f 94//52 93//52 192//52
f 95//52 94//52 192//52
f 96//52 95//52 192//52
f 97//52 96//52 193//52
f 98//52 97//52 193//52
f 99//52 98//52 193//52
f 85//52 99//52 193//52
f 194//85 133//85 132//85
f 194//85 132//85 134//85
f 194//85 134//85 135//85
f 194//85 135//85 136//85
f 195//85 136//85 137//85
f 195//85 137//85 138//85
f 195//85 138//85 139//85
f 195//85 139//85 140//85
f 196//85 140//85 141//85
f 196//85 141//85 142//85
f 196//85 142//85 143//85
f 196//85 143//85 144//85
f 197//85 144//85 145//85
f 197//85 145//85 146//85
f 197//85 146//85 147//85
f 197//85 147//85 133//85
f 182//52 183//52 191//52
f 182//52 191//52 190//52
f 184//85 194//85 195//85
f 184//85 195//85 185//85
f 186//52 193//52 192//52
f 186//52 192//52 187//52
f 189//85 188//85 196//85
f 189//85 196//85 197//85
f 182//52 190//52 193//52
f 182//52 193//52 186//52
f 184//85 189//85 197//85
f 184//85 197//85 194//85
f 183//52 187//52 192//52
f 183//52 192//52 191//52
f 185//85 195//85 196//85
f 185//85 196//85 188//85
f 198//20 199//125 200//126
f 201//18 198//20 200//126
f 202//22 203//127 199//125
f 198//20 202//22 199//125
f 204//24 205//128 203//127
f 202//22 204//24 203//127
f 206//26 207//129 205//128
f 204//24 206//26 205//128
f 208//28 209//130 207//129
f 206//26 208//28 207//129
f 210//30 211//131 209//130
f 208//28 210//30 209//130
f 212//32 213//132 211//131
f 210//30 212//32 211//131
f 214//5 215//133 213//132
f 212//32 214//5 213//132
f 216//2 217//134 215//133
f 214//5 216//2 215//133
f 218//6 219//135 217//134
f 216//2 218//6 217//134
f 220//8 221//136 219//135
f 218//6 220//8 219//135
f 222//10 223//137 221//136
f 220//8 222//10 221//136
f 224//12 225//138 223//137
f 222//10 224//12 223//137
f 226//14 227//139 225//138
f 224//12 226//14 225//138
f 228//16 229//140 227//139
f 226//14 228//16 227//139
f 201//18 200//126 229//140
f 228//16 201//18 229//140
f 230//141 231//142 232//143
f 230//141 232//143 233//144
f 231//142 234//145 235//146
f 231//142 235//146 232//143
f 234//145 236//147 237//148
f 234//145 237//148 235//146
f 236//147 238//149 239//150
f 236//147 239//150 237//148
f 238//149 240//151 241//152
f 238//149 241//152 239//150
f 240//151 242//153 243//154
f 240//151 243//154 241//152
f 242//153 244//155 245//156
f 242//153 245//156 243//154
f 244//155 246//157 247//158
f 244//155 247//158 245//156
f 246//157 248//159 249//160
f 246//157 249//160 247//158
f 248//159 250//161 251//162
f 248//159 251//162 249//160
f 250//161 252//163 253//164
f 250//161 253//164 251//162
f 252//163 254//165 255//166
f 252//163 255//166 253//164
f 254//165 256//167 257//168
f 254//165 257//168 255//166
f 256//167 258//169 259//170
f 256//167 259//170 257//168
f 258//169 260//171 261//172
f 258//169 261//172 259//170
f 260//171 230//141 233//144
f 260//171 233//144 261//172
f 241//124 208//124 206//124
f 241//124 206//124 239//124
f 243//124 210//124 208//124
f 243//124 208//124 241//124
f 245//124 212//124 210//124
f 245//124 210//124 243//124
f 247//124 214//124 212//124
f 247//124 212//124 245//124
f 249//124 216//124 214//124
f 249//124 214//124 247//124
f 251//124 218//124 216//124
f 251//124 216//124 249//124
f 253//124 220//124 218//124
f 253//124 218//124 251//124
f 255//124 222//124 220//124
f 255//124 220//124 253//124
f 257//124 224//124 222//124
f 257//124 222//124 255//124
f 259//124 226//124 224//124
f 259//124 224//124 257//124
f 261//124 228//124 226//124
f 261//124 226//124 259//124
f 233//124 201//124 228//124
f 233//124 228//124 261//124
f 232//124 198//124 201//124
f 232//124 201//124 233//124
f 235//124 202//124 198//124
f 235//124 198//124 232//124
f 237//124 204//124 202//124
f 237//124 202//124 235//124
f 239//124 206//124 204//124
f 239//124 204//124 237//124
f 262//20 263//125 264//126
f 265//18 262//20 264//126
f 266//22 267//127 263//125
f 262//20 266//22 263//125
f 268//24 269//128 267//127
f 266//22 268//24 267//127
f 270//26 271//129 269//128
f 268//24 270//26 269//128
f 272//28 273//130 271//129
f 270//26 272//28 271//129
f 274//30 275//131 273//130
f 272//28 274//30 273//130
f 276//32 277//132 275//131
f 274//30 276//32 275//131
f 278//5 279//133 277//132
f 276//32 278//5 277//132
f 280//2 281//134 279//133
f 278//5 280//2 279//133
f 282//6 283//135 281//134
f 280//2 282//6 281//134
f 284//8 285//136 283//135
f 282//6 284//8 283//135
f 286//10 287//137 285//136
f 284//8 286//10 285//136
f 288//12 289//138 287//137
f 286//10 288//12 287//137
f 290//14 291//139 289//138
f 288//12 290//14 289//138
f 292//16 293//140 291//139
f 290//14 292//16 291//139
f 265//18 264//126 293//140
f 292//16 265//18 293//140
f 294//141 295//142 296//143
f 294//141 296//143 297//144
f 295//142 298//145 299//146
f 295//142 299//146 296//143
f 298//145 300//147 301//148
f 298//145 301//148 299//146
f 300//147 302//149 303//150
f 300//147 303//150 301//148
f 302//149 304//151 305//152
f 302//149 305//152 303//150
f 304//151 306//153 307//154
f 304//151 307//154 305//152
f 306//153 308//155 309//156
f 306//153 309//156 307//154
f 308//155 310//157 311//158
f 308//155 311//158 309//156
f 310//157 312//159 313//160
f 310//157 313//160 311//158
f 312//159 314//161 315//162
f 312//159 315//162 313//160
f 314//161 316//163 317//164
f 314//161 317//164 315//162
f 316//163 318//165 319//166
f 316//163 319//166 317//164
f 318//165 320//167 321//168
f 318//165 321//168 319//166
f 320//167 322//169 323//170
f 320//167 323//170 321//168
f 322//169 324//171 325//172
f 322//169 325//172 323//170
f 324//171 294//141 297//144
f 324//171 297//144 325//172
f 305//124 272//124 270//124
f 305//124 270//124 303//124
f 307//124 274//124 272//124
f 307//124 272//124 305//124
f 309//124 276//124 274//124
f 309//124 274//124 307//124
f 311//124 278//124 276//124
f 311//124 276//124 309//124
f 313//124 280//124 278//124
f 313//124 278//124 311//124
f 315//124 282//124 280//124
f 315//124 280//124 313//124
f 317//124 284//124 282//124
f 317//124 282//124 315//124
f 319//124 286//124 284//124
f 319//124 284//124 317//124
f 321//124 288//124 286//124
f 321//124 286//124 319//124
f 323//124 290//124 288//124
f 323//124 288//124 321//124
f 325//124 292//124 290//124
f 325//124 290//124 323//124
f 297//124 265//124 292//124
f 297//124 292//124 325//124
f 296//124 262//124 265//124
f 296//124 265//124 297//124
f 299//124 266//124 262//124
f 299//124 262//124 296//124
f 301//124 268//124 266//124
f 301//124 266//124 299//124
f 303//124 270//124 268//124
f 303//124 268//124 301//124
