# Botball Lab: metres, +Y up, centred XZ, base Y=0
s off
v 0.0008000 0.0000000 -0.0000000
v 0.0008000 0.0003044 -0.0015308
v 0.0080000 0.0003044 -0.0015308
v 0.0080000 0.0000000 -0.0000000
v 0.0008000 0.0011716 -0.0028284
v 0.0080000 0.0011716 -0.0028284
v 0.0008000 0.0024692 -0.0036956
v 0.0080000 0.0024692 -0.0036956
v 0.0008000 0.0040000 -0.0040000
v 0.0080000 0.0040000 -0.0040000
v 0.0008000 0.0055308 -0.0036956
v 0.0080000 0.0055308 -0.0036956
v 0.0008000 0.0068284 -0.0028284
v 0.0080000 0.0068284 -0.0028284
v 0.0008000 0.0076956 -0.0015308
v 0.0080000 0.0076956 -0.0015308
v 0.0008000 0.0080000 -0.0000000
v 0.0080000 0.0080000 -0.0000000
v 0.0008000 0.0076956 0.0015308
v 0.0080000 0.0076956 0.0015308
v 0.0008000 0.0068284 0.0028284
v 0.0080000 0.0068284 0.0028284
v 0.0008000 0.0055308 0.0036956
v 0.0080000 0.0055308 0.0036956
v 0.0008000 0.0040000 0.0040000
v 0.0080000 0.0040000 0.0040000
v 0.0008000 0.0024692 0.0036956
v 0.0080000 0.0024692 0.0036956
v 0.0008000 0.0011716 0.0028284
v 0.0080000 0.0011716 0.0028284
v 0.0008000 0.0003044 0.0015308
v 0.0080000 0.0003044 0.0015308
v 0.0072000 0.0017826 -0.0009185
v 0.0008000 0.0017826 -0.0009185
v 0.0008000 0.0016000 -0.0000000
v 0.0072000 0.0016000 -0.0000000
v 0.0072000 0.0023030 -0.0016970
v 0.0008000 0.0023030 -0.0016970
v 0.0072000 0.0030815 -0.0022174
v 0.0008000 0.0030815 -0.0022174
v 0.0072000 0.0040000 -0.0024000
v 0.0008000 0.0040000 -0.0024000
v 0.0072000 0.0049185 -0.0022174
v 0.0008000 0.0049185 -0.0022174
v 0.0072000 0.0056970 -0.0016970
v 0.0008000 0.0056970 -0.0016970
v 0.0072000 0.0062174 -0.0009185
v 0.0008000 0.0062174 -0.0009185
v 0.0072000 0.0064000 -0.0000000
v 0.0008000 0.0064000 -0.0000000
v 0.0072000 0.0062174 0.0009185
v 0.0008000 0.0062174 0.0009185
v 0.0072000 0.0056970 0.0016970
v 0.0008000 0.0056970 0.0016970
v 0.0072000 0.0049185 0.0022174
v 0.0008000 0.0049185 0.0022174
v 0.0072000 0.0040000 0.0024000
v 0.0008000 0.0040000 0.0024000
v 0.0072000 0.0030815 0.0022174
v 0.0008000 0.0030815 0.0022174
v 0.0072000 0.0023030 0.0016970
v 0.0008000 0.0023030 0.0016970
v 0.0072000 0.0017826 0.0009185
v 0.0008000 0.0017826 0.0009185
v 0.0072000 0.0052246 -0.0029565
v 0.0072000 0.0040000 -0.0032000
v 0.0072000 0.0062627 -0.0022627
v 0.0072000 0.0069565 -0.0012246
v 0.0072000 0.0072000 -0.0000000
v 0.0072000 0.0069565 0.0012246
v 0.0072000 0.0062627 0.0022627
v 0.0072000 0.0052246 0.0029565
v 0.0072000 0.0040000 0.0032000
v 0.0072000 0.0027754 0.0029565
v 0.0072000 0.0017373 0.0022627
v 0.0072000 0.0010435 0.0012246
v 0.0072000 0.0008000 -0.0000000
v 0.0072000 0.0010435 -0.0012246
v 0.0072000 0.0017373 -0.0022627
v 0.0072000 0.0027754 -0.0029565
v 0.0080000 0.0010435 -0.0012246
v 0.0080000 0.0008000 -0.0000000
v 0.0080000 0.0017373 -0.0022627
v 0.0080000 0.0027754 -0.0029565
v 0.0080000 0.0040000 -0.0032000
v 0.0080000 0.0052246 -0.0029565
v 0.0080000 0.0062627 -0.0022627
v 0.0080000 0.0069565 -0.0012246
v 0.0080000 0.0072000 -0.0000000
v 0.0080000 0.0069565 0.0012246
v 0.0080000 0.0062627 0.0022627
v 0.0080000 0.0052246 0.0029565
v 0.0080000 0.0040000 0.0032000
v 0.0080000 0.0027754 0.0029565
v 0.0080000 0.0017373 0.0022627
v 0.0080000 0.0010435 0.0012246
v 0.0008000 0.0040000 -0.0028000
v 0.0008000 0.0029284 -0.0025869
v 0.0008000 0.0020201 -0.0019799
v 0.0008000 0.0014131 -0.0010716
v 0.0008000 0.0012000 -0.0000000
v 0.0008000 0.0014131 0.0010716
v 0.0008000 0.0020201 0.0019799
v 0.0008000 0.0029284 0.0025869
v 0.0008000 0.0040000 0.0028000
v -0.0008000 0.0029284 0.0025869
v -0.0008000 0.0040000 0.0028000
v -0.0008000 0.0020201 0.0019799
v -0.0008000 0.0014131 0.0010716
v -0.0008000 0.0012000 -0.0000000
v -0.0008000 0.0014131 -0.0010716
v -0.0008000 0.0020201 -0.0019799
v -0.0008000 0.0029284 -0.0025869
v -0.0008000 0.0040000 -0.0028000
v 0.0008000 0.0064000 -0.0024000
v 0.0008000 0.0064000 0.0024000
v -0.0080000 0.0003044 -0.0015308
v -0.0008000 0.0003044 -0.0015308
v -0.0008000 0.0000000 -0.0000000
v -0.0080000 0.0000000 -0.0000000
v -0.0080000 0.0011716 -0.0028284
v -0.0008000 0.0011716 -0.0028284
v -0.0080000 0.0024692 -0.0036956
v -0.0008000 0.0024692 -0.0036956
v -0.0080000 0.0040000 -0.0040000
v -0.0008000 0.0040000 -0.0040000
v -0.0080000 0.0055308 -0.0036956
v -0.0008000 0.0055308 -0.0036956
v -0.0080000 0.0068284 -0.0028284
v -0.0008000 0.0068284 -0.0028284
v -0.0080000 0.0076956 -0.0015308
v -0.0008000 0.0076956 -0.0015308
v -0.0080000 0.0080000 -0.0000000
v -0.0008000 0.0080000 -0.0000000
v -0.0080000 0.0076956 0.0015308
v -0.0008000 0.0076956 0.0015308
v -0.0080000 0.0068284 0.0028284
v -0.0008000 0.0068284 0.0028284
v -0.0080000 0.0055308 0.0036956
v -0.0008000 0.0055308 0.0036956
v -0.0080000 0.0040000 0.0040000
v -0.0008000 0.0040000 0.0040000
v -0.0080000 0.0024692 0.0036956
v -0.0008000 0.0024692 0.0036956
v -0.0080000 0.0011716 0.0028284
v -0.0008000 0.0011716 0.0028284
v -0.0080000 0.0003044 0.0015308
v -0.0008000 0.0003044 0.0015308
v -0.0008000 0.0016000 -0.0000000
v -0.0008000 0.0017826 -0.0009185
v -0.0072000 0.0017826 -0.0009185
v -0.0072000 0.0016000 -0.0000000
v -0.0008000 0.0023030 -0.0016970
v -0.0072000 0.0023030 -0.0016970
v -0.0008000 0.0030815 -0.0022174
v -0.0072000 0.0030815 -0.0022174
v -0.0008000 0.0040000 -0.0024000
v -0.0072000 0.0040000 -0.0024000
v -0.0008000 0.0049185 -0.0022174
v -0.0072000 0.0049185 -0.0022174
v -0.0008000 0.0056970 -0.0016970
v -0.0072000 0.0056970 -0.0016970
v -0.0008000 0.0062174 -0.0009185
v -0.0072000 0.0062174 -0.0009185
v -0.0008000 0.0064000 -0.0000000
v -0.0072000 0.0064000 -0.0000000
v -0.0008000 0.0062174 0.0009185
v -0.0072000 0.0062174 0.0009185
v -0.0008000 0.0056970 0.0016970
v -0.0072000 0.0056970 0.0016970
v -0.0008000 0.0049185 0.0022174
v -0.0072000 0.0049185 0.0022174
v -0.0008000 0.0040000 0.0024000
v -0.0072000 0.0040000 0.0024000
v -0.0008000 0.0030815 0.0022174
v -0.0072000 0.0030815 0.0022174
v -0.0008000 0.0023030 0.0016970
v -0.0072000 0.0023030 0.0016970
v -0.0008000 0.0017826 0.0009185
v -0.0072000 0.0017826 0.0009185
v -0.0072000 0.0052246 -0.0029565
v -0.0072000 0.0040000 -0.0032000
v -0.0072000 0.0062627 -0.0022627
v -0.0072000 0.0069565 -0.0012246
v -0.0072000 0.0072000 -0.0000000
v -0.0072000 0.0069565 0.0012246
v -0.0072000 0.0062627 0.0022627
v -0.0072000 0.0052246 0.0029565
v -0.0072000 0.0040000 0.0032000
v -0.0072000 0.0027754 0.0029565
v -0.0072000 0.0017373 0.0022627
v -0.0072000 0.0010435 0.0012246
v -0.0072000 0.0008000 -0.0000000
v -0.0072000 0.0010435 -0.0012246
v -0.0072000 0.0017373 -0.0022627
v -0.0072000 0.0027754 -0.0029565
v -0.0080000 0.0010435 -0.0012246
v -0.0080000 0.0008000 -0.0000000
v -0.0080000 0.0017373 -0.0022627
v -0.0080000 0.0027754 -0.0029565
v -0.0080000 0.0040000 -0.0032000
v -0.0080000 0.0052246 -0.0029565
v -0.0080000 0.0062627 -0.0022627
v -0.0080000 0.0069565 -0.0012246
v -0.0080000 0.0072000 -0.0000000
v -0.0080000 0.0069565 0.0012246
v -0.0080000 0.0062627 0.0022627
v -0.0080000 0.0052246 0.0029565
v -0.0080000 0.0040000 0.0032000
v -0.0080000 0.0027754 0.0029565
v -0.0080000 0.0017373 0.0022627
v -0.0080000 0.0010435 0.0012246
v -0.0008000 0.0064000 -0.0024000
v -0.0008000 0.0064000 0.0024000
f 1 2 3
f 1 3 4
f 2 5 6
f 2 6 3
f 5 7 8
f 5 8 6
f 7 9 10
f 7 10 8
f 9 11 12
f 9 12 10
f 11 13 14
f 11 14 12
f 13 15 16
f 13 16 14
f 15 17 18
f 15 18 16
f 17 19 20
f 17 20 18
f 19 21 22
f 19 22 20
f 21 23 24
f 21 24 22
f 23 25 26
f 23 26 24
f 25 27 28
f 25 28 26
f 27 29 30
f 27 30 28
f 29 31 32
f 29 32 30
f 31 1 4
f 31 4 32
f 33 34 35
f 36 33 35
f 37 38 34
f 33 37 34
f 39 40 38
f 37 39 38
f 41 42 40
f 39 41 40
f 43 44 42
f 41 43 42
f 45 46 44
f 43 45 44
f 47 48 46
f 45 47 46
f 49 50 48
f 47 49 48
f 51 52 50
f 49 51 50
f 53 54 52
f 51 53 52
f 55 56 54
f 53 55 54
f 57 58 56
f 55 57 56
f 59 60 58
f 57 59 58
f 61 62 60
f 59 61 60
f 63 64 62
f 61 63 62
f 36 35 64
f 63 36 64
f 65 43 41
f 65 41 66
f 67 45 43
f 67 43 65
f 68 47 45
f 68 45 67
f 69 49 47
f 69 47 68
f 70 51 49
f 70 49 69
f 71 53 51
f 71 51 70
f 72 55 53
f 72 53 71
f 73 57 55
f 73 55 72
f 74 59 57
f 74 57 73
f 75 61 59
f 75 59 74
f 76 63 61
f 76 61 75
f 77 36 63
f 77 63 76
f 78 33 36
f 78 36 77
f 79 37 33
f 79 33 78
f 80 39 37
f 80 37 79
f 66 41 39
f 66 39 80
f 81 78 77
f 82 81 77
f 83 79 78
f 81 83 78
f 84 80 79
f 83 84 79
f 85 66 80
f 84 85 80
f 86 65 66
f 85 86 66
f 87 67 65
f 86 87 65
f 88 68 67
f 87 88 67
f 89 69 68
f 88 89 68
f 90 70 69
f 89 90 69
f 91 71 70
f 90 91 70
f 92 72 71
f 91 92 71
f 93 73 72
f 92 93 72
f 94 74 73
f 93 94 73
f 95 75 74
f 94 95 74
f 96 76 75
f 95 96 75
f 82 77 76
f 96 82 76
f 12 86 85
f 12 85 10
f 14 87 86
f 14 86 12
f 16 88 87
f 16 87 14
f 18 89 88
f 18 88 16
f 20 90 89
f 20 89 18
f 22 91 90
f 22 90 20
f 24 92 91
f 24 91 22
f 26 93 92
f 26 92 24
f 28 94 93
f 28 93 26
f 30 95 94
f 30 94 28
f 32 96 95
f 32 95 30
f 4 82 96
f 4 96 32
f 3 81 82
f 3 82 4
f 6 83 81
f 6 81 3
f 8 84 83
f 8 83 6
f 10 85 84
f 10 84 8
f 97 98 40
f 97 40 42
f 98 99 38
f 98 38 40
f 99 100 34
f 99 34 38
f 100 101 35
f 100 35 34
f 101 102 64
f 101 64 35
f 102 103 62
f 102 62 64
f 103 104 60
f 103 60 62
f 104 105 58
f 104 58 60
f 104 106 107
f 104 107 105
f 103 108 106
f 103 106 104
f 102 109 108
f 102 108 103
f 101 110 109
f 101 109 102
f 100 111 110
f 100 110 101
f 99 112 111
f 99 111 100
f 98 113 112
f 98 112 99
f 97 114 113
f 97 113 98
f 115 42 44
f 115 44 46
f 115 46 48
f 115 48 50
f 116 50 52
f 116 52 54
f 116 54 56
f 116 56 58
f 17 15 13
f 13 97 42
f 13 42 115
f 17 13 115
f 17 115 50
f 21 19 17
f 58 105 21
f 58 21 116
f 116 21 17
f 116 17 50
f 117 118 119
f 120 117 119
f 121 122 118
f 117 121 118
f 123 124 122
f 121 123 122
f 125 126 124
f 123 125 124
f 127 128 126
f 125 127 126
f 129 130 128
f 127 129 128
f 131 132 130
f 129 131 130
f 133 134 132
f 131 133 132
f 135 136 134
f 133 135 134
f 137 138 136
f 135 137 136
f 139 140 138
f 137 139 138
f 141 142 140
f 139 141 140
f 143 144 142
f 141 143 142
f 145 146 144
f 143 145 144
f 147 148 146
f 145 147 146
f 120 119 148
f 147 120 148
f 149 150 151
f 149 151 152
f 150 153 154
f 150 154 151
f 153 155 156
f 153 156 154
f 155 157 158
f 155 158 156
f 157 159 160
f 157 160 158
f 159 161 162
f 159 162 160
f 161 163 164
f 161 164 162
f 163 165 166
f 163 166 164
f 165 167 168
f 165 168 166
f 167 169 170
f 167 170 168
f 169 171 172
f 169 172 170
f 171 173 174
f 171 174 172
f 173 175 176
f 173 176 174
f 175 177 178
f 175 178 176
f 177 179 180
f 177 180 178
f 179 149 152
f 179 152 180
f 158 160 181
f 182 158 181
f 160 162 183
f 181 160 183
f 162 164 184
f 183 162 184
f 164 166 185
f 184 164 185
f 166 168 186
f 185 166 186
f 168 170 187
f 186 168 187
f 170 172 188
f 187 170 188
f 172 174 189
f 188 172 189
f 174 176 190
f 189 174 190
f 176 178 191
f 190 176 191
f 178 180 192
f 191 178 192
f 180 152 193
f 192 180 193
f 152 151 194
f 193 152 194
f 151 154 195
f 194 151 195
f 154 156 196
f 195 154 196
f 156 158 182
f 196 156 182
f 193 194 197
f 193 197 198
f 194 195 199
f 194 199 197
f 195 196 200
f 195 200 199
f 196 182 201
f 196 201 200
f 182 181 202
f 182 202 201
f 181 183 203
f 181 203 202
f 183 184 204
f 183 204 203
f 184 185 205
f 184 205 204
f 185 186 206
f 185 206 205
f 186 187 207
f 186 207 206
f 187 188 208
f 187 208 207
f 188 189 209
f 188 209 208
f 189 190 210
f 189 210 209
f 190 191 211
f 190 211 210
f 191 192 212
f 191 212 211
f 192 193 198
f 192 198 212
f 201 202 127
f 125 201 127
f 202 203 129
f 127 202 129
f 203 204 131
f 129 203 131
f 204 205 133
f 131 204 133
f 205 206 135
f 133 205 135
f 206 207 137
f 135 206 137
f 207 208 139
f 137 207 139
f 208 209 141
f 139 208 141
f 209 210 143
f 141 209 143
f 210 211 145
f 143 210 145
f 211 212 147
f 145 211 147
f 212 198 120
f 147 212 120
f 198 197 117
f 120 198 117
f 197 199 121
f 117 197 121
f 199 200 123
f 121 199 123
f 200 201 125
f 123 200 125
f 155 113 114
f 157 155 114
f 153 112 113
f 155 153 113
f 150 111 112
f 153 150 112
f 149 110 111
f 150 149 111
f 179 109 110
f 149 179 110
f 177 108 109
f 179 177 109
f 175 106 108
f 177 175 108
f 173 107 106
f 175 173 106
f 159 157 213
f 161 159 213
f 163 161 213
f 165 163 213
f 167 165 214
f 169 167 214
f 171 169 214
f 173 171 214
f 130 132 134
f 157 114 130
f 157 130 213
f 213 130 134
f 213 134 165
f 134 136 138
f 138 107 173
f 138 173 214
f 134 138 214
f 134 214 165
f 21 105 107
f 21 107 138
f 1 31 148
f 119 1 148
f 31 29 146
f 148 31 146
f 29 27 144
f 146 29 144
f 27 25 142
f 144 27 142
f 25 23 140
f 142 25 140
f 23 21 138
f 140 23 138
f 130 114 97
f 130 97 13
f 118 2 1
f 118 1 119
f 122 5 2
f 122 2 118
f 124 7 5
f 124 5 122
f 126 9 7
f 126 7 124
f 128 11 9
f 128 9 126
f 130 13 11
f 130 11 128
