# Botball Lab: metres, +Y up, centred XZ, base Y=0
s off
v 0.0036000 0.0080000 0.0040000
v 0.0033260 0.0080000 0.0053777
v 0.0033260 0.0000000 0.0053777
v 0.0036000 0.0000000 0.0040000
v 0.0025456 0.0080000 0.0065456
v 0.0025456 0.0000000 0.0065456
v 0.0013777 0.0080000 0.0073260
v 0.0013777 0.0000000 0.0073260
v 0.0000000 0.0080000 0.0076000
v 0.0000000 0.0000000 0.0076000
v -0.0013777 0.0080000 0.0073260
v -0.0013777 0.0000000 0.0073260
v -0.0025456 0.0080000 0.0065456
v -0.0025456 0.0000000 0.0065456
v -0.0033260 0.0080000 0.0053777
v -0.0033260 0.0000000 0.0053777
v -0.0036000 0.0080000 0.0040000
v -0.0036000 0.0000000 0.0040000
v 0.0022173 0.0080000 0.0030816
v 0.0016971 0.0080000 0.0023029
v 0.0009184 0.0080000 0.0017827
v -0.0009184 0.0080000 0.0017827
v -0.0016971 0.0080000 0.0023029
v -0.0022173 0.0080000 0.0030816
v -0.0022173 0.0080000 0.0049184
v -0.0016971 0.0080000 0.0056971
v -0.0009184 0.0080000 0.0062173
v 0.0009184 0.0080000 0.0062173
v 0.0016971 0.0080000 0.0056971
v 0.0022173 0.0080000 0.0049184
v 0.0010000 0.0080000 0.0030000
v 0.0016000 0.0080000 0.0032000
v 0.0022409 0.0080000 0.0032000
v 0.0008000 0.0080000 0.0024000
v 0.0008000 0.0080000 0.0017591
v -0.0010000 0.0080000 0.0030000
v -0.0008000 0.0080000 0.0024000
v -0.0008000 0.0080000 0.0017591
v -0.0022409 0.0080000 0.0032000
v -0.0016000 0.0080000 0.0032000
v -0.0016000 0.0080000 0.0048000
v -0.0022409 0.0080000 0.0048000
v -0.0010000 0.0080000 0.0050000
v -0.0008000 0.0080000 0.0062409
v -0.0008000 0.0080000 0.0056000
v 0.0010000 0.0080000 0.0050000
v 0.0008000 0.0080000 0.0062409
v 0.0008000 0.0080000 0.0056000
v 0.0016000 0.0080000 0.0048000
v 0.0022409 0.0080000 0.0048000
v 0.0022173 0.0000000 0.0049184
v 0.0016971 0.0000000 0.0056971
v 0.0009184 0.0000000 0.0062173
v -0.0009184 0.0000000 0.0062173
v -0.0016971 0.0000000 0.0056971
v -0.0022173 0.0000000 0.0049184
v -0.0022173 0.0000000 0.0030816
v -0.0016971 0.0000000 0.0023029
v -0.0009184 0.0000000 0.0017827
v 0.0009184 0.0000000 0.0017827
v 0.0016971 0.0000000 0.0023029
v 0.0022173 0.0000000 0.0030816
v 0.0010000 0.0000000 0.0050000
v 0.0016000 0.0000000 0.0048000
v 0.0022409 0.0000000 0.0048000
v 0.0008000 0.0000000 0.0056000
v 0.0008000 0.0000000 0.0062409
v -0.0010000 0.0000000 0.0050000
v -0.0008000 0.0000000 0.0056000
v -0.0008000 0.0000000 0.0062409
v -0.0022409 0.0000000 0.0048000
v -0.0016000 0.0000000 0.0048000
v -0.0016000 0.0000000 0.0032000
v -0.0022409 0.0000000 0.0032000
v -0.0010000 0.0000000 0.0030000
v -0.0008000 0.0000000 0.0017591
v -0.0008000 0.0000000 0.0024000
v 0.0010000 0.0000000 0.0030000
v 0.0008000 0.0000000 0.0017591
v 0.0008000 0.0000000 0.0024000
v 0.0016000 0.0000000 0.0032000
v 0.0022409 0.0000000 0.0032000
v 0.0024000 0.0000000 0.0040000
v 0.0024000 0.0080000 0.0040000
v -0.0024000 0.0080000 0.0040000
v -0.0024000 0.0000000 0.0040000
v 0.0000000 0.0080000 0.0064000
v 0.0000000 0.0000000 0.0064000
v 0.0025456 0.0000000 -0.0006128
v 0.0025456 0.0080000 -0.0006128
v 0.0024818 0.0080000 -0.0008531
v 0.0024818 0.0000000 -0.0008531
v 0.0022721 0.0080000 -0.0009920
v 0.0022721 0.0000000 -0.0009920
v 0.0020393 0.0080000 -0.0009481
v 0.0020393 0.0000000 -0.0009481
v 0.0013777 0.0080000 -0.0006739
v 0.0025456 0.0080000 -0.0014544
v 0.0025456 0.0000000 -0.0014544
v 0.0013777 0.0000000 -0.0006739
v 0.0013777 0.0000000 -0.0006740
v 0.0013777 0.0080000 -0.0006740
v 0.0000000 0.0080000 -0.0004000
v 0.0000000 0.0000000 -0.0004000
v -0.0013777 0.0080000 -0.0006740
v -0.0013777 0.0000000 -0.0006740
v -0.0024818 0.0080000 -0.0008531
v -0.0025456 0.0080000 -0.0006128
v -0.0025456 0.0000000 -0.0006128
v -0.0024818 0.0000000 -0.0008531
v -0.0022721 0.0080000 -0.0009920
v -0.0022721 0.0000000 -0.0009920
v -0.0020393 0.0080000 -0.0009481
v -0.0020393 0.0000000 -0.0009481
v -0.0025456 0.0080000 -0.0014544
v -0.0013777 0.0080000 -0.0006739
v -0.0013777 0.0000000 -0.0006739
v -0.0025456 0.0000000 -0.0014544
v 0.0025456 0.0000000 0.0006128
v 0.0025456 0.0080000 0.0006128
v -0.0025456 0.0080000 0.0006128
v -0.0025456 0.0000000 0.0006128
v 0.0024818 0.0080000 0.0008531
v 0.0024818 0.0000000 0.0008531
v 0.0022721 0.0080000 0.0009920
v 0.0022721 0.0000000 0.0009920
v 0.0020393 0.0080000 0.0009481
v 0.0020393 0.0000000 0.0009481
v 0.0025456 0.0080000 0.0014544
v 0.0025456 0.0000000 0.0014544
v 0.0024000 0.0080000 0.0017826
v 0.0022174 0.0080000 0.0030815
v 0.0016970 0.0080000 0.0023030
v 0.0009185 0.0080000 0.0017826
v 0.0033260 0.0080000 0.0026223
v 0.0013777 0.0080000 0.0006739
v -0.0024818 0.0080000 0.0008531
v -0.0024818 0.0000000 0.0008531
v -0.0022721 0.0080000 0.0009920
v -0.0022721 0.0000000 0.0009920
v -0.0020393 0.0080000 0.0009481
v -0.0020393 0.0000000 0.0009481
v -0.0025456 0.0080000 0.0014544
v -0.0025456 0.0000000 0.0014544
v 0.0022174 0.0000000 0.0030815
v 0.0024000 0.0000000 0.0017826
v 0.0016970 0.0000000 0.0023030
v 0.0009185 0.0000000 0.0017826
v 0.0033260 0.0000000 0.0026223
v 0.0013777 0.0000000 0.0006739
v -0.0022174 0.0080000 0.0030815
v -0.0024000 0.0080000 0.0017826
v -0.0016970 0.0080000 0.0023030
v -0.0009185 0.0080000 0.0017826
v -0.0033260 0.0080000 0.0026223
v -0.0013777 0.0080000 0.0006740
v -0.0024000 0.0000000 0.0017826
v -0.0022174 0.0000000 0.0030815
v -0.0016970 0.0000000 0.0023030
v -0.0009185 0.0000000 0.0017826
v -0.0033260 0.0000000 0.0026223
v -0.0013777 0.0000000 0.0006740
v -0.0008000 0.0000000 0.0005588
v -0.0008000 0.0080000 0.0005588
v 0.0008000 0.0080000 0.0005588
v 0.0008000 0.0000000 0.0005588
v 0.0036000 0.0080000 0.0004000
v 0.0036000 0.0080000 -0.0004000
v 0.0036000 0.0080000 -0.0040000
v 0.0033260 0.0080000 -0.0026223
v -0.0033260 0.0080000 -0.0026223
v -0.0036000 0.0080000 -0.0040000
v -0.0036000 0.0080000 -0.0004000
v -0.0036000 0.0080000 0.0004000
v 0.0036000 0.0000000 0.0004000
v 0.0033260 0.0000000 -0.0026223
v 0.0036000 0.0000000 -0.0040000
v 0.0036000 0.0000000 -0.0004000
v -0.0036000 0.0000000 -0.0004000
v -0.0036000 0.0000000 -0.0040000
v -0.0033260 0.0000000 -0.0026223
v -0.0036000 0.0000000 0.0004000
v 0.0022174 0.0080000 0.0049185
v 0.0016970 0.0080000 0.0056970
v 0.0009185 0.0080000 0.0062174
v -0.0009185 0.0080000 0.0062174
v -0.0016970 0.0080000 0.0056970
v -0.0022174 0.0080000 0.0049185
v 0.0022174 0.0000000 0.0049185
v 0.0016970 0.0000000 0.0056970
v 0.0009185 0.0000000 0.0062174
v -0.0009185 0.0000000 0.0062174
v -0.0016970 0.0000000 0.0056970
v -0.0022174 0.0000000 0.0049185
v 0.0000000 0.0008000 -0.0064000
v -0.0009185 0.0008000 -0.0062174
v -0.0012246 0.0008000 -0.0069565
v 0.0000000 0.0008000 -0.0072000
v -0.0016970 0.0008000 -0.0056970
v -0.0022627 0.0008000 -0.0062627
v -0.0022174 0.0008000 -0.0049185
v -0.0029565 0.0008000 -0.0052246
v -0.0024000 0.0008000 -0.0040000
v -0.0032000 0.0008000 -0.0040000
v -0.0022174 0.0008000 -0.0030815
v -0.0029565 0.0008000 -0.0027754
v -0.0016970 0.0008000 -0.0023030
v -0.0022627 0.0008000 -0.0017373
v -0.0009185 0.0008000 -0.0017826
v -0.0012246 0.0008000 -0.0010435
v 0.0000000 0.0008000 -0.0016000
v 0.0000000 0.0008000 -0.0008000
v 0.0009185 0.0008000 -0.0017826
v 0.0012246 0.0008000 -0.0010435
v 0.0016970 0.0008000 -0.0023030
v 0.0022627 0.0008000 -0.0017373
v 0.0022174 0.0008000 -0.0030815
v 0.0029565 0.0008000 -0.0027754
v 0.0024000 0.0008000 -0.0040000
v 0.0032000 0.0008000 -0.0040000
v 0.0022174 0.0008000 -0.0049185
v 0.0029565 0.0008000 -0.0052246
v 0.0016970 0.0008000 -0.0056970
v 0.0022627 0.0008000 -0.0062627
v 0.0009185 0.0008000 -0.0062174
v 0.0012246 0.0008000 -0.0069565
v 0.0029565 0.0000000 -0.0052246
v 0.0032000 0.0000000 -0.0040000
v 0.0022627 0.0000000 -0.0062627
v 0.0012246 0.0000000 -0.0069565
v 0.0000000 0.0000000 -0.0072000
v -0.0012246 0.0000000 -0.0069565
v -0.0022627 0.0000000 -0.0062627
v -0.0029565 0.0000000 -0.0052246
v -0.0032000 0.0000000 -0.0040000
v -0.0029565 0.0000000 -0.0027754
v -0.0022627 0.0000000 -0.0017373
v -0.0012246 0.0000000 -0.0010435
v 0.0000000 0.0000000 -0.0008000
v 0.0012246 0.0000000 -0.0010435
v 0.0022627 0.0000000 -0.0017373
v 0.0029565 0.0000000 -0.0027754
v -0.0033260 0.0000000 -0.0053777
v -0.0025456 0.0000000 -0.0065456
v -0.0013777 0.0000000 -0.0073260
v 0.0000000 0.0000000 -0.0076000
v 0.0013777 0.0000000 -0.0073260
v 0.0025456 0.0000000 -0.0065456
v 0.0033260 0.0000000 -0.0053777
v 0.0022174 0.0072000 -0.0049185
v 0.0024000 0.0072000 -0.0040000
v 0.0016970 0.0072000 -0.0056970
v 0.0009185 0.0072000 -0.0062174
v 0.0000000 0.0072000 -0.0064000
v -0.0009185 0.0072000 -0.0062174
v -0.0016970 0.0072000 -0.0056970
v -0.0022174 0.0072000 -0.0049185
v -0.0024000 0.0072000 -0.0040000
v -0.0022174 0.0072000 -0.0030815
v -0.0016970 0.0072000 -0.0023030
v -0.0009185 0.0072000 -0.0017826
v 0.0000000 0.0072000 -0.0016000
v 0.0009185 0.0072000 -0.0017826
v 0.0016970 0.0072000 -0.0023030
v 0.0022174 0.0072000 -0.0030815
v 0.0033260 0.0080000 -0.0053777
v 0.0029565 0.0080000 -0.0052246
v 0.0032000 0.0080000 -0.0040000
v 0.0025456 0.0080000 -0.0065456
v 0.0022627 0.0080000 -0.0062627
v 0.0013777 0.0080000 -0.0073260
v 0.0012246 0.0080000 -0.0069565
v 0.0000000 0.0080000 -0.0076000
v 0.0000000 0.0080000 -0.0072000
v -0.0013777 0.0080000 -0.0073260
v -0.0012246 0.0080000 -0.0069565
v -0.0025456 0.0080000 -0.0065456
v -0.0022627 0.0080000 -0.0062627
v -0.0033260 0.0080000 -0.0053777
v -0.0029565 0.0080000 -0.0052246
v -0.0032000 0.0080000 -0.0040000
v -0.0029565 0.0080000 -0.0027754
v -0.0022627 0.0080000 -0.0017373
v -0.0012246 0.0080000 -0.0010435
v 0.0000000 0.0080000 -0.0008000
v 0.0012246 0.0080000 -0.0010435
v 0.0022627 0.0080000 -0.0017373
v 0.0029565 0.0080000 -0.0027754
v -0.0012246 0.0072000 -0.0069565
v 0.0000000 0.0072000 -0.0072000
v -0.0022627 0.0072000 -0.0062627
v -0.0029565 0.0072000 -0.0052246
v -0.0032000 0.0072000 -0.0040000
v -0.0029565 0.0072000 -0.0027754
v -0.0022627 0.0072000 -0.0017373
v -0.0012246 0.0072000 -0.0010435
v 0.0000000 0.0072000 -0.0008000
v 0.0012246 0.0072000 -0.0010435
v 0.0022627 0.0072000 -0.0017373
v 0.0029565 0.0072000 -0.0027754
v 0.0032000 0.0072000 -0.0040000
v 0.0029565 0.0072000 -0.0052246
v 0.0022627 0.0072000 -0.0062627
v 0.0012246 0.0072000 -0.0069565
vn 0.9987045 0.0 0.0508851
vn 0.8965369 0.0 0.4429691
vn 0.9471783 0.0 0.3207075
vn 0.9998757 0.0 0.0157654
vn 0.6587815 0.0 0.7523344
vn 0.7523344 0.0 0.6587815
vn 0.3207075 0.0 0.9471783
vn 0.4429691 0.0 0.8965369
vn -0.0661489 0.0 0.9978098
vn 0.0661489 0.0 0.9978098
vn -0.4429691 0.0 0.8965369
vn -0.3207075 0.0 0.9471783
vn -0.7523344 0.0 0.6587815
vn -0.6587815 0.0 0.7523344
vn -0.9471783 0.0 0.3207075
vn -0.8965369 0.0 0.4429691
vn -0.9995734 0.0 0.0292058
vn 0.0 1.0 0.0
vn 0.0 -1.0 0.0
vn -0.9807923 0.0 0.1950551
vn -1.0 0.0 0.0
vn 1.0 0.0 0.0
vn 0.9807923 0.0 0.1950551
vn 0.9807923 0.0 -0.1950551
vn 0.0 0.0 -1.0
vn 0.1950551 0.0 -0.9807923
vn -0.1950551 0.0 -0.9807923
vn -0.9807923 0.0 -0.1950551
vn -0.1591199 0.0 0.9872593
vn 0.0 0.0 1.0
vn -0.3162278 0.0 0.9486833
vn -0.9486833 0.0 0.3162278
vn -0.9771979 0.0 0.2123305
vn -0.9943996 0.0 0.105686
vn 0.9872593 0.0 0.1591199
vn 0.9486833 0.0 0.3162278
vn 0.3162278 0.0 0.9486833
vn 0.2123305 0.0 0.9771979
vn 0.105686 0.0 0.9943996
vn 0.105686 0.0 -0.9943996
vn 0.2123305 0.0 -0.9771979
vn 0.3162278 0.0 -0.9486833
vn 0.9486833 0.0 -0.3162278
vn 0.9771979 0.0 -0.2123305
vn 0.9943996 0.0 -0.105686
vn -0.9943996 0.0 -0.105686
vn -0.9771979 0.0 -0.2123305
vn -0.9486833 0.0 -0.3162278
vn -0.3162278 0.0 -0.9486833
vn -0.2123305 0.0 -0.9771979
vn -0.105686 0.0 -0.9943996
vn -0.9972152 0.0 0.0745778
vn -0.9997192 0.0 0.0236976
vn -0.8782583 0.0 0.4781865
vn -0.7313087 0.0 0.6820466
vn -0.3375795 0.0 0.941297
vn -0.0754544 0.0 0.9971493
vn 0.305692 0.0 0.9521305
vn 0.3557006 5e-06 0.9346
vn 0.1950619 0.0 0.9807909
vn 0.2912546 2.9e-06 0.9566456
vn -0.2912222 0.0 0.9566554
vn -0.2339164 0.0 0.9722567
vn 0.8782583 0.0 0.4781865
vn 0.9997192 0.0 0.0236976
vn 0.9972152 0.0 0.0745778
vn 0.7313087 0.0 0.6820466
vn 0.3375795 0.0 0.941297
vn 0.0754544 0.0 0.9971493
vn -0.305692 0.0 0.9521305
vn -0.3556481 0.0 0.9346199
vn -0.9990542 0.0 -0.0434816
vn 0.9990542 0.0 -0.0434816
vn -0.8782583 0.0 -0.4781865
vn -0.7313087 0.0 -0.6820466
vn -0.3375795 0.0 -0.941297
vn -0.0754544 0.0 -0.9971493
vn 0.3350949 0.0 -0.9421844
vn 0.8782583 0.0 -0.4781865
vn 0.7313087 0.0 -0.6820466
vn 0.3375795 0.0 -0.941297
vn 0.0754544 0.0 -0.9971493
vn -0.3350014 0.0 -0.9422176
vn -0.2996905 0.0 -0.9540365
vn -0.1955611 0.0 -0.9806915
vn 0.1953979 0.0 -0.9807241
vn 0.2674852 0.0 -0.963562
vn 0.3295472 0.0 -0.9441391
vn 0.3828697 1.15e-05 0.9238023
vn -0.9978107 0.0 0.066135
vn -0.8965142 0.0 0.4430151
vn -0.9471761 0.0 0.3207139
vn -0.9978107 0.0 -0.066135
vn -0.6588045 0.0 0.7523142
vn -0.7523142 0.0 0.6588045
vn -0.3207139 0.0 0.9471761
vn -0.4430151 0.0 0.8965142
vn 0.066135 0.0 0.9978107
vn -0.066135 0.0 0.9978107
vn 0.4430151 0.0 0.8965142
vn 0.3207139 0.0 0.9471761
vn 0.7523142 0.0 0.6588045
vn 0.6588045 0.0 0.7523142
vn 0.9471761 0.0 0.3207139
vn 0.8965142 0.0 0.4430151
vn 0.9978107 0.0 -0.066135
vn 0.9978107 0.0 0.066135
vn 0.8965142 0.0 -0.4430151
vn 0.9471761 0.0 -0.3207139
vn 0.6588045 0.0 -0.7523142
vn 0.7523142 0.0 -0.6588045
vn 0.3207139 0.0 -0.9471761
vn 0.4430151 0.0 -0.8965142
vn -0.066135 0.0 -0.9978107
vn 0.066135 0.0 -0.9978107
vn -0.4430151 0.0 -0.8965142
vn -0.3207139 0.0 -0.9471761
vn -0.7523142 0.0 -0.6588045
vn -0.6588045 0.0 -0.7523142
vn -0.9471761 0.0 -0.3207139
vn -0.8965142 0.0 -0.4430151
vn -0.947177 0.0 0.3207111
vn -0.8964963 0.0 0.4430513
vn -0.9978115 0.0 0.0661224
vn -0.9978115 0.0 -0.0661224
vn -0.752294 0.0 0.6588276
vn -0.6588276 0.0 0.752294
vn -0.4430513 0.0 0.8964963
vn -0.3207111 0.0 0.947177
vn -0.0661224 0.0 0.9978115
vn 0.0661224 0.0 0.9978115
vn 0.3207111 0.0 0.947177
vn 0.4430513 0.0 0.8964963
vn 0.6588276 0.0 0.752294
vn 0.752294 0.0 0.6588276
vn 0.8964963 0.0 0.4430513
vn 0.947177 0.0 0.3207111
vn 0.9978115 0.0 0.0661224
vn 0.9978115 0.0 -0.0661224
vn 0.947177 0.0 -0.3207111
vn 0.8964963 0.0 -0.4430513
vn 0.752294 0.0 -0.6588276
vn 0.6588276 0.0 -0.752294
vn 0.4430513 0.0 -0.8964963
vn 0.3207111 0.0 -0.947177
vn 0.0661224 0.0 -0.9978115
vn -0.0661224 0.0 -0.9978115
vn -0.3207111 0.0 -0.947177
vn -0.4430513 0.0 -0.8964963
vn -0.6588276 0.0 -0.752294
vn -0.752294 0.0 -0.6588276
vn -0.8964963 0.0 -0.4430513
vn -0.947177 0.0 -0.3207111
vn -0.9995734 0.0 -0.0292058
vn -0.8965369 0.0 -0.4429691
vn -0.9471783 0.0 -0.3207075
vn -0.6587815 0.0 -0.7523344
vn -0.7523344 0.0 -0.6587815
vn -0.3207075 0.0 -0.9471783
vn -0.4429691 0.0 -0.8965369
vn 0.0661489 0.0 -0.9978098
vn -0.0661489 0.0 -0.9978098
vn 0.4429691 0.0 -0.8965369
vn 0.3207075 0.0 -0.9471783
vn 0.7523344 0.0 -0.6587815
vn 0.6587815 0.0 -0.7523344
vn 0.9471783 0.0 -0.3207075
vn 0.8965369 0.0 -0.4429691
vn 0.9998757 0.0 -0.0157654
vn 0.9987045 0.0 -0.0508851
f 1//1 2//2 3//3
f 4//4 1//1 3//3
f 2//2 5//5 6//6
f 3//3 2//2 6//6
f 5//5 7//7 8//8
f 6//6 5//5 8//8
f 7//7 9//9 10//10
f 8//8 7//7 10//10
f 9//9 11//11 12//12
f 10//10 9//9 12//12
f 11//11 13//13 14//14
f 12//12 11//11 14//14
f 13//13 15//15 16//16
f 14//14 13//13 16//16
f 15//15 17//17 18//17
f 16//16 15//15 18//17
f 19//18 20//18 21//18
f 22//18 23//18 24//18
f 25//18 26//18 27//18
f 28//18 29//18 30//18
f 19//18 21//18 31//18
f 31//18 32//18 33//18
f 31//18 33//18 19//18
f 34//18 31//18 21//18
f 34//18 21//18 35//18
f 36//18 22//18 24//18
f 36//18 37//18 38//18
f 36//18 38//18 22//18
f 39//18 40//18 36//18
f 39//18 36//18 24//18
f 41//18 42//18 25//18
f 41//18 25//18 43//18
f 25//18 27//18 43//18
f 27//18 44//18 45//18
f 27//18 45//18 43//18
f 28//18 30//18 46//18
f 47//18 28//18 46//18
f 47//18 46//18 48//18
f 49//18 46//18 30//18
f 49//18 30//18 50//18
f 51//19 52//19 53//19
f 54//19 55//19 56//19
f 57//19 58//19 59//19
f 60//19 61//19 62//19
f 51//19 53//19 63//19
f 63//19 64//19 65//19
f 63//19 65//19 51//19
f 66//19 63//19 53//19
f 66//19 53//19 67//19
f 68//19 54//19 56//19
f 68//19 69//19 70//19
f 68//19 70//19 54//19
f 71//19 72//19 68//19
f 71//19 68//19 56//19
f 73//19 74//19 57//19
f 73//19 57//19 75//19
f 57//19 59//19 75//19
f 59//19 76//19 77//19
f 59//19 77//19 75//19
f 60//19 62//19 78//19
f 79//19 60//19 78//19
f 79//19 78//19 80//19
f 81//19 78//19 62//19
f 81//19 62//19 82//19
f 82//20 83//21 84//21
f 82//20 84//21 33//20
f 85//22 86//22 74//23
f 39//23 85//22 74//23
f 71//24 86//22 85//22
f 71//24 85//22 42//24
f 87//25 88//25 70//26
f 44//26 87//25 70//26
f 67//27 88//25 87//25
f 67//27 87//25 47//27
f 84//21 83//21 65//28
f 50//28 84//21 65//28
f 81//29 82//30 33//30
f 81//29 33//30 32//29
f 81//29 32//29 31//31
f 81//29 31//31 78//31
f 78//32 31//32 34//33
f 78//32 34//33 80//34
f 80//34 34//33 35//21
f 80//34 35//21 79//21
f 77//35 76//22 38//22
f 77//35 38//22 37//35
f 77//35 37//35 36//36
f 77//35 36//36 75//36
f 75//37 36//37 40//38
f 75//37 40//38 73//39
f 73//39 40//38 39//30
f 73//39 39//30 74//30
f 71//25 42//25 41//40
f 71//25 41//40 72//41
f 72//41 41//40 43//42
f 72//41 43//42 68//42
f 68//43 43//43 45//44
f 68//43 45//44 69//45
f 69//45 45//44 44//22
f 69//45 44//22 70//22
f 67//21 47//21 48//46
f 67//21 48//46 66//47
f 66//47 48//46 46//48
f 66//47 46//48 63//48
f 63//49 46//49 49//50
f 63//49 49//50 64//51
f 64//51 49//50 50//25
f 64//51 50//25 65//25
f 89//52 90//53 91//54
f 92//55 89//52 91//54
f 92//55 91//54 93//56
f 94//57 92//55 93//56
f 94//57 93//56 95//58
f 96//59 94//57 95//58
f 97//18 95//18 98//18
f 95//18 93//18 98//18
f 98//18 93//18 91//18
f 98//18 91//18 90//18
f 99//19 96//19 100//19
f 99//19 94//19 96//19
f 92//19 94//19 99//19
f 89//19 92//19 99//19
f 101//60 102//61 103//30
f 101//60 103//30 104//30
f 103//30 105//62 106//63
f 104//30 103//30 106//63
f 107//64 108//65 109//66
f 107//64 109//66 110//67
f 111//68 107//64 110//67
f 111//68 110//67 112//69
f 113//70 111//68 112//69
f 113//70 112//69 114//71
f 115//18 113//18 116//18
f 111//18 113//18 115//18
f 111//18 115//18 107//18
f 107//18 115//18 108//18
f 117//19 114//19 118//19
f 118//19 114//19 112//19
f 110//19 118//19 112//19
f 109//19 118//19 110//19
f 119//72 120//72 90//53
f 119//72 90//53 89//52
f 108//65 121//73 122//73
f 109//66 108//65 122//73
f 123//74 120//72 119//72
f 123//74 119//72 124//75
f 125//76 123//74 124//75
f 125//76 124//75 126//77
f 127//78 125//76 126//77
f 127//78 126//77 128//78
f 125//18 129//18 123//18
f 123//18 129//18 120//18
f 130//19 126//19 124//19
f 130//19 124//19 119//19
f 131//18 132//18 84//18
f 131//18 133//18 132//18
f 131//18 134//18 133//18
f 1//18 135//18 129//18
f 131//18 84//18 1//18
f 131//18 1//18 129//18
f 131//18 129//18 125//18
f 131//18 125//18 127//18
f 134//18 131//18 127//18
f 134//18 127//18 136//18
f 122//73 121//73 137//79
f 138//80 122//73 137//79
f 138//80 137//79 139//81
f 140//82 138//80 139//81
f 140//82 139//81 141//83
f 142//83 140//82 141//83
f 143//18 139//18 137//18
f 143//18 137//18 121//18
f 140//19 144//19 138//19
f 138//19 144//19 122//19
f 83//19 145//19 146//19
f 145//19 147//19 146//19
f 147//19 148//19 146//19
f 130//19 149//19 4//19
f 4//19 83//19 146//19
f 4//19 146//19 130//19
f 126//19 130//19 146//19
f 126//19 146//19 128//19
f 128//19 146//19 148//19
f 128//19 148//19 150//19
f 85//18 151//18 152//18
f 151//18 153//18 152//18
f 153//18 154//18 152//18
f 143//18 155//18 17//18
f 139//18 143//18 152//18
f 139//18 152//18 141//18
f 141//18 152//18 154//18
f 141//18 154//18 156//18
f 157//19 158//19 86//19
f 157//19 159//19 158//19
f 157//19 160//19 159//19
f 18//19 161//19 144//19
f 157//19 86//19 18//19
f 157//19 18//19 144//19
f 160//19 157//19 142//19
f 160//19 142//19 162//19
f 152//18 143//18 17//18
f 152//18 17//18 85//18
f 144//19 140//19 142//19
f 144//19 142//19 157//19
f 141//83 156//84 162//84
f 141//83 162//84 142//83
f 163//22 164//22 38//22
f 163//22 38//22 76//22
f 35//21 165//21 166//21
f 35//21 166//21 79//21
f 164//18 156//18 154//18
f 164//18 154//18 38//18
f 76//19 160//19 162//19
f 76//19 162//19 163//19
f 162//84 156//84 164//85
f 162//84 164//85 163//85
f 136//18 165//18 35//18
f 136//18 35//18 134//18
f 166//86 165//86 136//87
f 166//86 136//87 150//88
f 148//19 79//19 166//19
f 148//19 166//19 150//19
f 150//88 136//87 127//78
f 150//88 127//78 128//78
f 96//59 95//58 102//61
f 96//59 102//61 100//89
f 105//62 113//70 114//71
f 105//62 114//71 106//63
f 135//18 1//18 167//18
f 129//18 135//18 167//18
f 168//18 169//18 170//18
f 168//18 170//18 98//18
f 171//18 172//18 173//18
f 115//18 171//18 173//18
f 174//18 17//18 155//18
f 174//18 155//18 143//18
f 120//18 129//18 167//18
f 90//18 168//18 98//18
f 173//18 108//18 115//18
f 174//18 143//18 121//18
f 108//18 173//18 174//18
f 108//18 174//18 121//18
f 90//18 120//18 167//18
f 90//18 167//18 168//18
f 175//19 4//19 149//19
f 175//19 149//19 130//19
f 176//19 177//19 178//19
f 99//19 176//19 178//19
f 179//19 180//19 181//19
f 179//19 181//19 118//19
f 161//19 18//19 182//19
f 144//19 161//19 182//19
f 130//19 119//19 175//19
f 178//19 89//19 99//19
f 109//19 179//19 118//19
f 144//19 182//19 122//19
f 182//19 179//19 109//19
f 182//19 109//19 122//19
f 175//19 119//19 89//19
f 175//19 89//19 178//19
f 183//18 2//18 1//18
f 84//18 183//18 1//18
f 184//18 5//18 2//18
f 183//18 184//18 2//18
f 185//18 7//18 5//18
f 184//18 185//18 5//18
f 87//18 9//18 7//18
f 185//18 87//18 7//18
f 186//18 11//18 9//18
f 87//18 186//18 9//18
f 187//18 13//18 11//18
f 186//18 187//18 11//18
f 188//18 15//18 13//18
f 187//18 188//18 13//18
f 85//18 17//18 15//18
f 188//18 85//18 15//18
f 4//19 3//19 189//19
f 4//19 189//19 83//19
f 3//19 6//19 190//19
f 3//19 190//19 189//19
f 6//19 8//19 191//19
f 6//19 191//19 190//19
f 8//19 10//19 88//19
f 8//19 88//19 191//19
f 10//19 12//19 192//19
f 10//19 192//19 88//19
f 12//19 14//19 193//19
f 12//19 193//19 192//19
f 14//19 16//19 194//19
f 14//19 194//19 193//19
f 16//19 18//19 86//19
f 16//19 86//19 194//19
f 195//19 196//19 197//19
f 198//19 195//19 197//19
f 196//19 199//19 200//19
f 197//19 196//19 200//19
f 199//19 201//19 202//19
f 200//19 199//19 202//19
f 201//19 203//19 204//19
f 202//19 201//19 204//19
f 203//19 205//19 206//19
f 204//19 203//19 206//19
f 205//19 207//19 208//19
f 206//19 205//19 208//19
f 207//19 209//19 210//19
f 208//19 207//19 210//19
f 209//19 211//19 212//19
f 210//19 209//19 212//19
f 211//19 213//19 214//19
f 212//19 211//19 214//19
f 213//19 215//19 216//19
f 214//19 213//19 216//19
f 215//19 217//19 218//19
f 216//19 215//19 218//19
f 217//19 219//19 220//19
f 218//19 217//19 220//19
f 219//19 221//19 222//19
f 220//19 219//19 222//19
f 221//19 223//19 224//19
f 222//19 221//19 224//19
f 223//19 225//19 226//19
f 224//19 223//19 226//19
f 225//19 195//19 198//19
f 226//19 225//19 198//19
f 220//90 222//91 227//92
f 220//90 227//92 228//93
f 222//91 224//94 229//95
f 222//91 229//95 227//92
f 224//94 226//96 230//97
f 224//94 230//97 229//95
f 226//96 198//98 231//99
f 226//96 231//99 230//97
f 198//98 197//100 232//101
f 198//98 232//101 231//99
f 197//100 200//102 233//103
f 197//100 233//103 232//101
f 200//102 202//104 234//105
f 200//102 234//105 233//103
f 202//104 204//106 235//107
f 202//104 235//107 234//105
f 204//106 206//108 236//109
f 204//106 236//109 235//107
f 206//108 208//110 237//111
f 206//108 237//111 236//109
f 208//110 210//112 238//113
f 208//110 238//113 237//111
f 210//112 212//114 239//115
f 210//112 239//115 238//113
f 212//114 214//116 240//117
f 212//114 240//117 239//115
f 214//116 216//118 241//119
f 214//116 241//119 240//117
f 216//118 218//120 242//121
f 216//118 242//121 241//119
f 218//120 220//90 228//93
f 218//120 228//93 242//121
f 177//19 176//19 242//19
f 177//19 242//19 228//19
f 176//19 99//19 241//19
f 176//19 241//19 242//19
f 99//19 101//19 240//19
f 99//19 240//19 241//19
f 101//19 104//19 239//19
f 101//19 239//19 240//19
f 104//19 106//19 238//19
f 104//19 238//19 239//19
f 106//19 118//19 237//19
f 106//19 237//19 238//19
f 118//19 181//19 236//19
f 118//19 236//19 237//19
f 181//19 180//19 235//19
f 181//19 235//19 236//19
f 180//19 243//19 234//19
f 180//19 234//19 235//19
f 243//19 244//19 233//19
f 243//19 233//19 234//19
f 244//19 245//19 232//19
f 244//19 232//19 233//19
f 245//19 246//19 231//19
f 245//19 231//19 232//19
f 246//19 247//19 230//19
f 246//19 230//19 231//19
f 247//19 248//19 229//19
f 247//19 229//19 230//19
f 248//19 249//19 227//19
f 248//19 227//19 229//19
f 249//19 177//19 228//19
f 249//19 228//19 227//19
f 250//122 221//123 219//124
f 251//125 250//122 219//124
f 252//126 223//127 221//123
f 250//122 252//126 221//123
f 253//128 225//129 223//127
f 252//126 253//128 223//127
f 254//130 195//131 225//129
f 253//128 254//130 225//129
f 255//132 196//133 195//131
f 254//130 255//132 195//131
f 256//134 199//135 196//133
f 255//132 256//134 196//133
f 257//136 201//137 199//135
f 256//134 257//136 199//135
f 258//138 203//139 201//137
f 257//136 258//138 201//137
f 259//140 205//141 203//139
f 258//138 259//140 203//139
f 260//142 207//143 205//141
f 259//140 260//142 205//141
f 261//144 209//145 207//143
f 260//142 261//144 207//143
f 262//146 211//147 209//145
f 261//144 262//146 209//145
f 263//148 213//149 211//147
f 262//146 263//148 211//147
f 264//150 215//151 213//149
f 263//148 264//150 213//149
f 265//152 217//153 215//151
f 264//150 265//152 215//151
f 251//125 219//124 217//153
f 265//152 251//125 217//153
f 169//18 266//18 267//18
f 169//18 267//18 268//18
f 266//18 269//18 270//18
f 266//18 270//18 267//18
f 269//18 271//18 272//18
f 269//18 272//18 270//18
f 271//18 273//18 274//18
f 271//18 274//18 272//18
f 273//18 275//18 276//18
f 273//18 276//18 274//18
f 275//18 277//18 278//18
f 275//18 278//18 276//18
f 277//18 279//18 280//18
f 277//18 280//18 278//18
f 279//18 172//18 281//18
f 279//18 281//18 280//18
f 172//18 171//18 282//18
f 172//18 282//18 281//18
f 171//18 115//18 283//18
f 171//18 283//18 282//18
f 115//18 105//18 284//18
f 115//18 284//18 283//18
f 105//18 103//18 285//18
f 105//18 285//18 284//18
f 103//18 102//18 286//18
f 103//18 286//18 285//18
f 102//18 98//18 287//18
f 102//18 287//18 286//18
f 98//18 170//18 288//18
f 98//18 288//18 287//18
f 170//18 169//18 268//18
f 170//18 268//18 288//18
f 289//18 255//18 254//18
f 289//18 254//18 290//18
f 291//18 256//18 255//18
f 291//18 255//18 289//18
f 292//18 257//18 256//18
f 292//18 256//18 291//18
f 293//18 258//18 257//18
f 293//18 257//18 292//18
f 294//18 259//18 258//18
f 294//18 258//18 293//18
f 295//18 260//18 259//18
f 295//18 259//18 294//18
f 296//18 261//18 260//18
f 296//18 260//18 295//18
f 297//18 262//18 261//18
f 297//18 261//18 296//18
f 298//18 263//18 262//18
f 298//18 262//18 297//18
f 299//18 264//18 263//18
f 299//18 263//18 298//18
f 300//18 265//18 264//18
f 300//18 264//18 299//18
f 301//18 251//18 265//18
f 301//18 265//18 300//18
f 302//18 250//18 251//18
f 302//18 251//18 301//18
f 303//18 252//18 250//18
f 303//18 250//18 302//18
f 304//18 253//18 252//18
f 304//18 252//18 303//18
f 290//18 254//18 253//18
f 290//18 253//18 304//18
f 267//92 302//91 301//90
f 268//93 267//92 301//90
f 270//95 303//94 302//91
f 267//92 270//95 302//91
f 272//97 304//96 303//94
f 270//95 272//97 303//94
f 274//99 290//98 304//96
f 272//97 274//99 304//96
f 276//101 289//100 290//98
f 274//99 276//101 290//98
f 278//103 291//102 289//100
f 276//101 278//103 289//100
f 280//105 292//104 291//102
f 278//103 280//105 291//102
f 281//107 293//106 292//104
f 280//105 281//107 292//104
f 282//109 294//108 293//106
f 281//107 282//109 293//106
f 283//111 295//110 294//108
f 282//109 283//111 294//108
f 284//113 296//112 295//110
f 283//111 284//113 295//110
f 285//115 297//114 296//112
f 284//113 285//115 296//112
f 286//117 298//116 297//114
f 285//115 286//117 297//114
f 287//119 299//118 298//116
f 286//117 287//119 298//116
f 288//121 300//120 299//118
f 287//119 288//121 299//118
f 268//93 301//90 300//120
f 288//121 268//93 300//120
f 172//154 180//154 18//17
f 172//154 18//17 17//17
f 172//154 279//155 243//156
f 180//154 172//154 243//156
f 279//155 277//157 244//158
f 243//156 279//155 244//158
f 277//157 275//159 245//160
f 244//158 277//157 245//160
f 275//159 273//161 246//162
f 245//160 275//159 246//162
f 273//161 271//163 247//164
f 246//162 273//161 247//164
f 271//163 269//165 248//166
f 247//164 271//163 248//166
f 269//165 266//167 249//168
f 248//166 269//165 249//168
f 266//167 169//169 177//170
f 249//168 266//167 177//170
f 4//4 177//170 169//169
f 4//4 169//169 1//1
