# Botball Lab: metres, +Y up, centred XZ, base Y=0
s off
v -0.0059818 0.0080000 0.0191819
v -0.0062558 0.0080000 0.0205596
v -0.0062558 0.0000000 0.0205596
v -0.0059818 0.0000000 0.0191819
v -0.0070362 0.0080000 0.0217275
v -0.0070362 0.0000000 0.0217275
v -0.0082041 0.0080000 0.0225079
v -0.0082041 0.0000000 0.0225079
v -0.0095818 0.0080000 0.0227819
v -0.0095818 0.0000000 0.0227819
v -0.0109595 0.0080000 0.0225079
v -0.0109595 0.0000000 0.0225079
v -0.0121274 0.0080000 0.0217275
v -0.0121274 0.0000000 0.0217275
v -0.0129078 0.0080000 0.0205596
v -0.0129078 0.0000000 0.0205596
v -0.0131818 0.0080000 0.0191819
v -0.0131818 0.0000000 0.0191819
v -0.0073645 0.0080000 0.0182635
v -0.0078847 0.0080000 0.0174848
v -0.0086634 0.0080000 0.0169646
v -0.0105002 0.0080000 0.0169646
v -0.0112789 0.0080000 0.0174848
v -0.0117991 0.0080000 0.0182635
v -0.0117991 0.0080000 0.0201003
v -0.0112789 0.0080000 0.0208790
v -0.0105002 0.0080000 0.0213992
v -0.0086634 0.0080000 0.0213992
v -0.0078847 0.0080000 0.0208790
v -0.0073645 0.0080000 0.0201003
v -0.0085818 0.0080000 0.0181819
v -0.0079818 0.0080000 0.0183819
v -0.0073409 0.0080000 0.0183819
v -0.0087818 0.0080000 0.0175819
v -0.0087818 0.0080000 0.0169410
v -0.0105818 0.0080000 0.0181819
v -0.0103818 0.0080000 0.0175819
v -0.0103818 0.0080000 0.0169410
v -0.0118227 0.0080000 0.0183819
v -0.0111818 0.0080000 0.0183819
v -0.0111818 0.0080000 0.0199819
v -0.0118227 0.0080000 0.0199819
v -0.0105818 0.0080000 0.0201819
v -0.0103818 0.0080000 0.0214228
v -0.0103818 0.0080000 0.0207819
v -0.0085818 0.0080000 0.0201819
v -0.0087818 0.0080000 0.0214228
v -0.0087818 0.0080000 0.0207819
v -0.0079818 0.0080000 0.0199819
v -0.0073409 0.0080000 0.0199819
v -0.0073645 0.0000000 0.0201003
v -0.0078847 0.0000000 0.0208790
v -0.0086634 0.0000000 0.0213992
v -0.0105002 0.0000000 0.0213992
v -0.0112789 0.0000000 0.0208790
v -0.0117991 0.0000000 0.0201003
v -0.0117991 0.0000000 0.0182635
v -0.0112789 0.0000000 0.0174848
v -0.0105002 0.0000000 0.0169646
v -0.0086634 0.0000000 0.0169646
v -0.0078847 0.0000000 0.0174848
v -0.0073645 0.0000000 0.0182635
v -0.0085818 0.0000000 0.0201819
v -0.0079818 0.0000000 0.0199819
v -0.0073409 0.0000000 0.0199819
v -0.0087818 0.0000000 0.0207819
v -0.0087818 0.0000000 0.0214228
v -0.0105818 0.0000000 0.0201819
v -0.0103818 0.0000000 0.0207819
v -0.0103818 0.0000000 0.0214228
v -0.0118227 0.0000000 0.0199819
v -0.0111818 0.0000000 0.0199819
v -0.0111818 0.0000000 0.0183819
v -0.0118227 0.0000000 0.0183819
v -0.0105818 0.0000000 0.0181819
v -0.0103818 0.0000000 0.0169410
v -0.0103818 0.0000000 0.0175819
v -0.0085818 0.0000000 0.0181819
v -0.0087818 0.0000000 0.0169410
v -0.0087818 0.0000000 0.0175819
v -0.0079818 0.0000000 0.0183819
v -0.0073409 0.0000000 0.0183819
v -0.0071818 0.0000000 0.0191819
v -0.0071818 0.0080000 0.0191819
v -0.0119818 0.0080000 0.0191819
v -0.0119818 0.0000000 0.0191819
v -0.0095818 0.0080000 0.0215819
v -0.0095818 0.0000000 0.0215819
v -0.0117992 0.0080000 0.0201004
v -0.0112788 0.0080000 0.0208789
v -0.0105003 0.0080000 0.0213993
v -0.0086633 0.0080000 0.0213993
v -0.0078848 0.0080000 0.0208789
v -0.0073644 0.0080000 0.0201004
v -0.0117992 0.0000000 0.0201004
v -0.0112788 0.0000000 0.0208789
v -0.0105003 0.0000000 0.0213993
v -0.0086633 0.0000000 0.0213993
v -0.0078848 0.0000000 0.0208789
v -0.0073644 0.0000000 0.0201004
v -0.0070362 0.0000000 0.0145690
v -0.0070362 0.0080000 0.0145690
v -0.0071000 0.0080000 0.0143288
v -0.0071000 0.0000000 0.0143288
v -0.0073097 0.0080000 0.0141899
v -0.0073097 0.0000000 0.0141899
v -0.0075425 0.0080000 0.0142338
v -0.0075425 0.0000000 0.0142338
v -0.0082041 0.0080000 0.0145080
v -0.0070362 0.0080000 0.0137275
v -0.0070362 0.0000000 0.0137275
v -0.0082041 0.0000000 0.0145080
v -0.0082041 0.0000000 0.0145079
v -0.0082041 0.0080000 0.0145079
v -0.0095818 0.0080000 0.0147819
v -0.0095818 0.0000000 0.0147819
v -0.0109595 0.0080000 0.0145079
v -0.0109595 0.0000000 0.0145079
v -0.0120636 0.0080000 0.0143288
v -0.0121274 0.0080000 0.0145690
v -0.0121274 0.0000000 0.0145690
v -0.0120636 0.0000000 0.0143288
v -0.0118539 0.0080000 0.0141899
v -0.0118539 0.0000000 0.0141899
v -0.0116211 0.0080000 0.0142338
v -0.0116211 0.0000000 0.0142338
v -0.0121274 0.0080000 0.0137275
v -0.0109595 0.0080000 0.0145080
v -0.0109595 0.0000000 0.0145080
v -0.0121274 0.0000000 0.0137275
v -0.0070362 0.0000000 0.0157947
v -0.0070362 0.0080000 0.0157947
v -0.0121274 0.0080000 0.0157947
v -0.0121274 0.0000000 0.0157947
v -0.0071000 0.0080000 0.0160350
v -0.0071000 0.0000000 0.0160350
v -0.0073097 0.0080000 0.0161739
v -0.0073097 0.0000000 0.0161739
v -0.0075425 0.0080000 0.0161300
v -0.0075425 0.0000000 0.0161300
v -0.0070362 0.0080000 0.0166363
v -0.0070362 0.0000000 0.0166363
v -0.0071818 0.0080000 0.0169645
v -0.0073644 0.0080000 0.0182634
v -0.0078848 0.0080000 0.0174849
v -0.0086633 0.0080000 0.0169645
v -0.0062558 0.0080000 0.0178042
v -0.0082041 0.0080000 0.0158558
v -0.0120636 0.0080000 0.0160350
v -0.0120636 0.0000000 0.0160350
v -0.0118539 0.0080000 0.0161739
v -0.0118539 0.0000000 0.0161739
v -0.0116211 0.0080000 0.0161300
v -0.0116211 0.0000000 0.0161300
v -0.0121274 0.0080000 0.0166363
v -0.0121274 0.0000000 0.0166363
v -0.0073644 0.0000000 0.0182634
v -0.0071818 0.0000000 0.0169645
v -0.0078848 0.0000000 0.0174849
v -0.0086633 0.0000000 0.0169645
v -0.0062558 0.0000000 0.0178042
v -0.0082041 0.0000000 0.0158558
v -0.0117992 0.0080000 0.0182634
v -0.0119818 0.0080000 0.0169645
v -0.0112788 0.0080000 0.0174849
v -0.0105003 0.0080000 0.0169645
v -0.0129078 0.0080000 0.0178042
v -0.0109595 0.0080000 0.0158559
v -0.0119818 0.0000000 0.0169645
v -0.0117992 0.0000000 0.0182634
v -0.0112788 0.0000000 0.0174849
v -0.0105003 0.0000000 0.0169645
v -0.0129078 0.0000000 0.0178042
v -0.0109595 0.0000000 0.0158559
v -0.0103818 0.0000000 0.0157407
v -0.0103818 0.0080000 0.0157407
v -0.0087818 0.0080000 0.0157407
v -0.0087818 0.0000000 0.0157407
v -0.0059818 0.0080000 0.0155819
v -0.0059818 0.0080000 0.0147819
v -0.0059818 0.0080000 0.0111819
v -0.0062558 0.0080000 0.0125596
v -0.0129078 0.0080000 0.0125596
v -0.0131818 0.0080000 0.0111819
v -0.0131818 0.0080000 0.0147819
v -0.0131818 0.0080000 0.0155819
v -0.0059818 0.0000000 0.0155819
v -0.0062558 0.0000000 0.0125596
v -0.0059818 0.0000000 0.0111819
v -0.0059818 0.0000000 0.0147819
v -0.0131818 0.0000000 0.0147819
v -0.0131818 0.0000000 0.0111819
v -0.0129078 0.0000000 0.0125596
v -0.0131818 0.0000000 0.0155819
v -0.0062558 0.0080000 0.0098042
v -0.0066253 0.0080000 0.0099573
v -0.0063818 0.0080000 0.0111819
v -0.0070362 0.0080000 0.0086363
v -0.0073191 0.0080000 0.0089192
v -0.0082041 0.0080000 0.0078559
v -0.0083572 0.0080000 0.0082254
v -0.0095818 0.0080000 0.0075819
v -0.0095818 0.0080000 0.0079819
v -0.0109595 0.0080000 0.0078559
v -0.0108064 0.0080000 0.0082254
v -0.0121274 0.0080000 0.0086363
v -0.0118445 0.0080000 0.0089192
v -0.0129078 0.0080000 0.0098042
v -0.0125383 0.0080000 0.0099573
v -0.0127818 0.0080000 0.0111819
v -0.0125383 0.0080000 0.0124065
v -0.0118445 0.0080000 0.0134446
v -0.0108064 0.0080000 0.0141384
v -0.0095818 0.0080000 0.0143819
v -0.0083572 0.0080000 0.0141384
v -0.0073191 0.0080000 0.0134446
v -0.0066253 0.0080000 0.0124065
v -0.0082041 0.0048000 0.0065079
v -0.0082041 0.0080000 0.0065079
v -0.0095818 0.0080000 0.0067819
v -0.0095818 0.0048000 0.0067819
v -0.0070362 0.0048000 0.0071819
v -0.0070362 0.0080000 0.0071819
v -0.0070362 0.0080000 0.0065690
v -0.0070362 0.0048000 0.0065690
v -0.0071000 0.0080000 0.0063288
v -0.0071000 0.0048000 0.0063288
v -0.0073097 0.0080000 0.0061899
v -0.0073097 0.0048000 0.0061899
v -0.0075425 0.0080000 0.0062338
v -0.0075425 0.0048000 0.0062338
v -0.0082041 0.0080000 0.0065080
v -0.0070362 0.0080000 0.0057275
v -0.0070362 0.0080000 0.0065691
v -0.0109595 0.0080000 0.0065079
v -0.0109595 0.0048000 0.0065079
v -0.0121274 0.0080000 0.0065690
v -0.0121274 0.0080000 0.0071819
v -0.0121274 0.0048000 0.0071819
v -0.0121274 0.0048000 0.0065690
v -0.0121274 0.0048000 0.0065691
v -0.0116211 0.0048000 0.0062338
v -0.0120636 0.0080000 0.0063288
v -0.0120636 0.0048000 0.0063288
v -0.0118539 0.0080000 0.0061899
v -0.0118539 0.0048000 0.0061899
v -0.0116211 0.0080000 0.0062338
v -0.0121274 0.0080000 0.0057275
v -0.0109595 0.0080000 0.0065080
v -0.0121274 0.0080000 0.0065691
v -0.0070362 0.0048000 0.0065691
v -0.0059818 0.0080000 0.0067819
v -0.0059818 0.0080000 0.0031819
v -0.0062558 0.0080000 0.0045596
v -0.0129078 0.0080000 0.0045596
v -0.0131818 0.0080000 0.0031819
v -0.0131818 0.0080000 0.0067819
v -0.0059818 0.0080000 0.0071819
v -0.0131818 0.0080000 0.0071819
v -0.0082041 0.0048000 0.0078559
v -0.0095818 0.0048000 0.0075819
v -0.0070362 0.0080000 0.0077947
v -0.0070362 0.0048000 0.0077947
v -0.0071000 0.0080000 0.0080350
v -0.0071000 0.0048000 0.0080350
v -0.0073097 0.0080000 0.0081739
v -0.0073097 0.0048000 0.0081739
v -0.0075425 0.0080000 0.0081300
v -0.0075425 0.0048000 0.0081300
v -0.0082041 0.0080000 0.0078558
v -0.0109595 0.0048000 0.0078559
v -0.0121274 0.0080000 0.0077947
v -0.0121274 0.0048000 0.0077947
v -0.0116211 0.0048000 0.0081300
v -0.0120636 0.0080000 0.0080350
v -0.0120636 0.0048000 0.0080350
v -0.0118539 0.0080000 0.0081739
v -0.0118539 0.0048000 0.0081739
v -0.0116211 0.0080000 0.0081300
v -0.0109595 0.0080000 0.0078558
v -0.0059818 0.0080000 0.0075819
v -0.0131818 0.0080000 0.0075819
v -0.0108064 0.0072000 0.0082254
v -0.0105003 0.0072000 0.0089645
v -0.0095818 0.0072000 0.0087819
v -0.0095818 0.0072000 0.0079819
v -0.0118445 0.0072000 0.0089192
v -0.0112788 0.0072000 0.0094849
v -0.0125383 0.0072000 0.0099573
v -0.0117992 0.0072000 0.0102634
v -0.0127818 0.0072000 0.0111819
v -0.0119818 0.0072000 0.0111819
v -0.0125383 0.0072000 0.0124065
v -0.0117992 0.0072000 0.0121004
v -0.0118445 0.0072000 0.0134446
v -0.0112788 0.0072000 0.0128789
v -0.0108064 0.0072000 0.0141384
v -0.0105003 0.0072000 0.0133993
v -0.0095818 0.0072000 0.0143819
v -0.0095818 0.0072000 0.0135819
v -0.0083572 0.0072000 0.0141384
v -0.0086633 0.0072000 0.0133993
v -0.0073191 0.0072000 0.0134446
v -0.0078848 0.0072000 0.0128789
v -0.0066253 0.0072000 0.0124065
v -0.0073644 0.0072000 0.0121004
v -0.0063818 0.0072000 0.0111819
v -0.0071818 0.0072000 0.0111819
v -0.0066253 0.0072000 0.0099573
v -0.0073644 0.0072000 0.0102634
v -0.0073191 0.0072000 0.0089192
v -0.0078848 0.0072000 0.0094849
v -0.0083572 0.0072000 0.0082254
v -0.0086633 0.0072000 0.0089645
v -0.0073644 0.0008000 0.0102634
v -0.0071818 0.0008000 0.0111819
v -0.0078848 0.0008000 0.0094849
v -0.0086633 0.0008000 0.0089645
v -0.0095818 0.0008000 0.0087819
v -0.0105003 0.0008000 0.0089645
v -0.0112788 0.0008000 0.0094849
v -0.0117992 0.0008000 0.0102634
v -0.0119818 0.0008000 0.0111819
v -0.0117992 0.0008000 0.0121004
v -0.0112788 0.0008000 0.0128789
v -0.0105003 0.0008000 0.0133993
v -0.0095818 0.0008000 0.0135819
v -0.0086633 0.0008000 0.0133993
v -0.0078848 0.0008000 0.0128789
v -0.0073644 0.0008000 0.0121004
v -0.0108064 0.0008000 0.0082254
v -0.0095818 0.0008000 0.0079819
v -0.0118445 0.0008000 0.0089192
v -0.0125383 0.0008000 0.0099573
v -0.0127818 0.0008000 0.0111819
v -0.0125383 0.0008000 0.0124065
v -0.0118445 0.0008000 0.0134446
v -0.0108064 0.0008000 0.0141384
v -0.0095818 0.0008000 0.0143819
v -0.0083572 0.0008000 0.0141384
v -0.0073191 0.0008000 0.0134446
v -0.0066253 0.0008000 0.0124065
v -0.0063818 0.0008000 0.0111819
v -0.0066253 0.0008000 0.0099573
v -0.0073191 0.0008000 0.0089192
v -0.0083572 0.0008000 0.0082254
v -0.0066253 0.0000000 0.0099573
v -0.0063818 0.0000000 0.0111819
v -0.0073191 0.0000000 0.0089192
v -0.0083572 0.0000000 0.0082254
v -0.0095818 0.0000000 0.0079819
v -0.0108064 0.0000000 0.0082254
v -0.0118445 0.0000000 0.0089192
v -0.0125383 0.0000000 0.0099573
v -0.0127818 0.0000000 0.0111819
v -0.0125383 0.0000000 0.0124065
v -0.0118445 0.0000000 0.0134446
v -0.0108064 0.0000000 0.0141384
v -0.0095818 0.0000000 0.0143819
v -0.0083572 0.0000000 0.0141384
v -0.0073191 0.0000000 0.0134446
v -0.0066253 0.0000000 0.0124065
v -0.0095818 0.0000000 0.0067819
v -0.0082041 0.0000000 0.0065079
v -0.0082041 0.0032000 0.0065079
v -0.0095818 0.0032000 0.0067819
v -0.0070362 0.0000000 0.0065690
v -0.0070362 0.0000000 0.0071819
v -0.0070362 0.0032000 0.0071819
v -0.0070362 0.0032000 0.0065690
v -0.0071000 0.0000000 0.0063288
v -0.0071000 0.0032000 0.0063288
v -0.0073097 0.0000000 0.0061899
v -0.0073097 0.0032000 0.0061899
v -0.0075425 0.0000000 0.0062338
v -0.0075425 0.0032000 0.0062338
v -0.0070362 0.0000000 0.0057275
v -0.0082041 0.0000000 0.0065080
v -0.0070362 0.0000000 0.0065691
v -0.0109595 0.0032000 0.0065079
v -0.0109595 0.0000000 0.0065079
v -0.0121274 0.0032000 0.0071819
v -0.0121274 0.0000000 0.0071819
v -0.0121274 0.0000000 0.0065690
v -0.0121274 0.0032000 0.0065690
v -0.0121274 0.0032000 0.0065691
v -0.0116211 0.0032000 0.0062338
v -0.0120636 0.0000000 0.0063288
v -0.0120636 0.0032000 0.0063288
v -0.0118539 0.0000000 0.0061899
v -0.0118539 0.0032000 0.0061899
v -0.0116211 0.0000000 0.0062338
v -0.0109595 0.0000000 0.0065080
v -0.0121274 0.0000000 0.0057275
v -0.0121274 0.0000000 0.0065691
v -0.0070362 0.0032000 0.0065691
v -0.0062558 0.0000000 0.0045596
v -0.0059818 0.0000000 0.0031819
v -0.0059818 0.0000000 0.0067819
v -0.0131818 0.0000000 0.0067819
v -0.0131818 0.0000000 0.0031819
v -0.0129078 0.0000000 0.0045596
v -0.0059818 0.0000000 0.0071819
v -0.0131818 0.0000000 0.0071819
v -0.0082041 0.0032000 0.0078559
v -0.0082041 0.0000000 0.0078559
v -0.0095818 0.0000000 0.0075819
v -0.0095818 0.0032000 0.0075819
v -0.0070362 0.0000000 0.0077947
v -0.0070362 0.0032000 0.0077947
v -0.0071000 0.0000000 0.0080350
v -0.0071000 0.0032000 0.0080350
v -0.0073097 0.0000000 0.0081739
v -0.0073097 0.0032000 0.0081739
v -0.0075425 0.0000000 0.0081300
v -0.0075425 0.0032000 0.0081300
v -0.0082041 0.0000000 0.0078558
v -0.0070362 0.0000000 0.0086363
v -0.0109595 0.0000000 0.0078559
v -0.0109595 0.0032000 0.0078559
v -0.0121274 0.0000000 0.0077947
v -0.0121274 0.0032000 0.0077947
v -0.0116211 0.0032000 0.0081300
v -0.0120636 0.0000000 0.0080350
v -0.0120636 0.0032000 0.0080350
v -0.0118539 0.0000000 0.0081739
v -0.0118539 0.0032000 0.0081739
v -0.0116211 0.0000000 0.0081300
v -0.0121274 0.0000000 0.0086363
v -0.0109595 0.0000000 0.0078558
v -0.0059818 0.0000000 0.0075819
v -0.0062558 0.0000000 0.0098042
v -0.0129078 0.0000000 0.0098042
v -0.0131818 0.0000000 0.0075819
v -0.0095818 0.0008000 0.0007819
v -0.0105003 0.0008000 0.0009645
v -0.0108064 0.0008000 0.0002254
v -0.0095818 0.0008000 -0.0000181
v -0.0112788 0.0008000 0.0014849
v -0.0118445 0.0008000 0.0009192
v -0.0117992 0.0008000 0.0022634
v -0.0125383 0.0008000 0.0019573
v -0.0119818 0.0008000 0.0031819
v -0.0127818 0.0008000 0.0031819
v -0.0117992 0.0008000 0.0041004
v -0.0125383 0.0008000 0.0044065
v -0.0112788 0.0008000 0.0048789
v -0.0118445 0.0008000 0.0054446
v -0.0105003 0.0008000 0.0053993
v -0.0108064 0.0008000 0.0061384
v -0.0095818 0.0008000 0.0055819
v -0.0095818 0.0008000 0.0063819
v -0.0086633 0.0008000 0.0053993
v -0.0083572 0.0008000 0.0061384
v -0.0078848 0.0008000 0.0048789
v -0.0073191 0.0008000 0.0054446
v -0.0073644 0.0008000 0.0041004
v -0.0066253 0.0008000 0.0044065
v -0.0071818 0.0008000 0.0031819
v -0.0063818 0.0008000 0.0031819
v -0.0073644 0.0008000 0.0022634
v -0.0066253 0.0008000 0.0019573
v -0.0078848 0.0008000 0.0014849
v -0.0073191 0.0008000 0.0009192
v -0.0086633 0.0008000 0.0009645
v -0.0083572 0.0008000 0.0002254
v -0.0066253 0.0000000 0.0019573
v -0.0063818 0.0000000 0.0031819
v -0.0073191 0.0000000 0.0009192
v -0.0083572 0.0000000 0.0002254
v -0.0095818 0.0000000 -0.0000181
v -0.0108064 0.0000000 0.0002254
v -0.0118445 0.0000000 0.0009192
v -0.0125383 0.0000000 0.0019573
v -0.0127818 0.0000000 0.0031819
v -0.0125383 0.0000000 0.0044065
v -0.0118445 0.0000000 0.0054446
v -0.0108064 0.0000000 0.0061384
v -0.0095818 0.0000000 0.0063819
v -0.0083572 0.0000000 0.0061384
v -0.0073191 0.0000000 0.0054446
v -0.0066253 0.0000000 0.0044065
v -0.0129078 0.0000000 0.0018042
v -0.0121274 0.0000000 0.0006363
v -0.0109595 0.0000000 -0.0001441
v -0.0095818 0.0000000 -0.0004181
v -0.0082041 0.0000000 -0.0001441
v -0.0070362 0.0000000 0.0006363
v -0.0062558 0.0000000 0.0018042
v -0.0073644 0.0072000 0.0022634
v -0.0071818 0.0072000 0.0031819
v -0.0078848 0.0072000 0.0014849
v -0.0086633 0.0072000 0.0009645
v -0.0095818 0.0072000 0.0007819
v -0.0105003 0.0072000 0.0009645
v -0.0112788 0.0072000 0.0014849
v -0.0117992 0.0072000 0.0022634
v -0.0119818 0.0072000 0.0031819
v -0.0117992 0.0072000 0.0041004
v -0.0112788 0.0072000 0.0048789
v -0.0105003 0.0072000 0.0053993
v -0.0095818 0.0072000 0.0055819
v -0.0086633 0.0072000 0.0053993
v -0.0078848 0.0072000 0.0048789
v -0.0073644 0.0072000 0.0041004
v -0.0062558 0.0080000 0.0018042
v -0.0066253 0.0080000 0.0019573
v -0.0063818 0.0080000 0.0031819
v -0.0070362 0.0080000 0.0006363
v -0.0073191 0.0080000 0.0009192
v -0.0082041 0.0080000 -0.0001441
v -0.0083572 0.0080000 0.0002254
v -0.0095818 0.0080000 -0.0004181
v -0.0095818 0.0080000 -0.0000181
v -0.0109595 0.0080000 -0.0001441
v -0.0108064 0.0080000 0.0002254
v -0.0121274 0.0080000 0.0006363
v -0.0118445 0.0080000 0.0009192
v -0.0129078 0.0080000 0.0018042
v -0.0125383 0.0080000 0.0019573
v -0.0127818 0.0080000 0.0031819
v -0.0125383 0.0080000 0.0044065
v -0.0118445 0.0080000 0.0054446
v -0.0108064 0.0080000 0.0061384
v -0.0095818 0.0080000 0.0063819
v -0.0083572 0.0080000 0.0061384
v -0.0073191 0.0080000 0.0054446
v -0.0066253 0.0080000 0.0044065
v -0.0108064 0.0072000 0.0002254
v -0.0095818 0.0072000 -0.0000181
v -0.0118445 0.0072000 0.0009192
v -0.0125383 0.0072000 0.0019573
v -0.0127818 0.0072000 0.0031819
v -0.0125383 0.0072000 0.0044065
v -0.0118445 0.0072000 0.0054446
v -0.0108064 0.0072000 0.0061384
v -0.0095818 0.0072000 0.0063819
v -0.0083572 0.0072000 0.0061384
v -0.0073191 0.0072000 0.0054446
v -0.0066253 0.0072000 0.0044065
v -0.0063818 0.0072000 0.0031819
v -0.0066253 0.0072000 0.0019573
v -0.0073191 0.0072000 0.0009192
v -0.0083572 0.0072000 0.0002254
v -0.0082041 0.0048000 -0.0014921
v -0.0082041 0.0080000 -0.0014921
v -0.0095818 0.0080000 -0.0012181
v -0.0095818 0.0048000 -0.0012181
v -0.0070362 0.0048000 -0.0008181
v -0.0070362 0.0080000 -0.0008181
v -0.0070362 0.0080000 -0.0014310
v -0.0070362 0.0048000 -0.0014310
v -0.0071000 0.0080000 -0.0016712
v -0.0071000 0.0048000 -0.0016712
v -0.0073097 0.0080000 -0.0018101
v -0.0073097 0.0048000 -0.0018101
v -0.0075425 0.0080000 -0.0017662
v -0.0075425 0.0048000 -0.0017662
v -0.0082041 0.0080000 -0.0014920
v -0.0070362 0.0080000 -0.0022725
v -0.0070362 0.0080000 -0.0014309
v -0.0109595 0.0080000 -0.0014921
v -0.0109595 0.0048000 -0.0014921
v -0.0121274 0.0080000 -0.0014310
v -0.0121274 0.0080000 -0.0008181
v -0.0121274 0.0048000 -0.0008181
v -0.0121274 0.0048000 -0.0014310
v -0.0121274 0.0048000 -0.0014309
v -0.0116211 0.0048000 -0.0017662
v -0.0120636 0.0080000 -0.0016712
v -0.0120636 0.0048000 -0.0016712
v -0.0118539 0.0080000 -0.0018101
v -0.0118539 0.0048000 -0.0018101
v -0.0116211 0.0080000 -0.0017662
v -0.0121274 0.0080000 -0.0022725
v -0.0109595 0.0080000 -0.0014920
v -0.0121274 0.0080000 -0.0014309
v -0.0070362 0.0048000 -0.0014309
v -0.0082041 0.0048000 -0.0001441
v -0.0095818 0.0048000 -0.0004181
v -0.0070362 0.0080000 -0.0002053
v -0.0070362 0.0048000 -0.0002053
v -0.0071000 0.0080000 0.0000350
v -0.0071000 0.0048000 0.0000350
v -0.0073097 0.0080000 0.0001739
v -0.0073097 0.0048000 0.0001739
v -0.0075425 0.0080000 0.0001300
v -0.0075425 0.0048000 0.0001300
v -0.0082041 0.0080000 -0.0001442
v -0.0109595 0.0048000 -0.0001441
v -0.0121274 0.0080000 -0.0002053
v -0.0121274 0.0048000 -0.0002053
v -0.0116211 0.0048000 0.0001300
v -0.0120636 0.0080000 0.0000350
v -0.0120636 0.0048000 0.0000350
v -0.0118539 0.0080000 0.0001739
v -0.0118539 0.0048000 0.0001739
v -0.0116211 0.0080000 0.0001300
v -0.0109595 0.0080000 -0.0001442
v -0.0095818 0.0000000 -0.0012181
v -0.0082041 0.0000000 -0.0014921
v -0.0082041 0.0032000 -0.0014921
v -0.0095818 0.0032000 -0.0012181
v -0.0070362 0.0000000 -0.0014310
v -0.0070362 0.0000000 -0.0008181
v -0.0070362 0.0032000 -0.0008181
v -0.0070362 0.0032000 -0.0014310
v -0.0071000 0.0000000 -0.0016712
v -0.0071000 0.0032000 -0.0016712
v -0.0073097 0.0000000 -0.0018101
v -0.0073097 0.0032000 -0.0018101
v -0.0075425 0.0000000 -0.0017662
v -0.0075425 0.0032000 -0.0017662
v -0.0070362 0.0000000 -0.0022725
v -0.0082041 0.0000000 -0.0014920
v -0.0070362 0.0000000 -0.0014309
v -0.0109595 0.0032000 -0.0014921
v -0.0109595 0.0000000 -0.0014921
v -0.0121274 0.0032000 -0.0008181
v -0.0121274 0.0000000 -0.0008181
v -0.0121274 0.0000000 -0.0014310
v -0.0121274 0.0032000 -0.0014310
v -0.0121274 0.0032000 -0.0014309
v -0.0116211 0.0032000 -0.0017662
v -0.0120636 0.0000000 -0.0016712
v -0.0120636 0.0032000 -0.0016712
v -0.0118539 0.0000000 -0.0018101
v -0.0118539 0.0032000 -0.0018101
v -0.0116211 0.0000000 -0.0017662
v -0.0109595 0.0000000 -0.0014920
v -0.0121274 0.0000000 -0.0022725
v -0.0121274 0.0000000 -0.0014309
v -0.0070362 0.0032000 -0.0014309
v -0.0082041 0.0032000 -0.0001441
v -0.0095818 0.0032000 -0.0004181
v -0.0070362 0.0000000 -0.0002053
v -0.0070362 0.0032000 -0.0002053
v -0.0071000 0.0000000 0.0000350
v -0.0071000 0.0032000 0.0000350
v -0.0073097 0.0000000 0.0001739
v -0.0073097 0.0032000 0.0001739
v -0.0075425 0.0000000 0.0001300
v -0.0075425 0.0032000 0.0001300
v -0.0082041 0.0000000 -0.0001442
v -0.0109595 0.0032000 -0.0001441
v -0.0121274 0.0000000 -0.0002053
v -0.0121274 0.0032000 -0.0002053
v -0.0116211 0.0032000 0.0001300
v -0.0120636 0.0000000 0.0000350
v -0.0120636 0.0032000 0.0000350
v -0.0118539 0.0000000 0.0001739
v -0.0118539 0.0032000 0.0001739
v -0.0116211 0.0000000 0.0001300
v -0.0109595 0.0000000 -0.0001442
v -0.0131818 0.0000000 -0.0048181
v -0.0121270 0.0000000 -0.0022729
v -0.0121270 0.0000000 0.0006367
v -0.0121270 0.0080000 0.0006367
v -0.0121270 0.0080000 -0.0022729
v -0.0131818 0.0080000 -0.0048181
v -0.0070366 0.0000000 0.0006367
v -0.0070366 0.0000000 -0.0022729
v -0.0059818 0.0000000 -0.0030601
v -0.0059818 0.0080000 -0.0030601
v -0.0070366 0.0080000 -0.0022729
v -0.0070366 0.0080000 0.0006367
v -0.0059818 0.0080000 -0.0030181
v -0.0059818 0.0000000 -0.0030181
v -0.0108064 0.0072000 -0.0077746
v -0.0105003 0.0072000 -0.0070355
v -0.0095818 0.0072000 -0.0072181
v -0.0095818 0.0072000 -0.0080181
v -0.0118445 0.0072000 -0.0070808
v -0.0112788 0.0072000 -0.0065151
v -0.0125383 0.0072000 -0.0060427
v -0.0117992 0.0072000 -0.0057366
v -0.0127818 0.0072000 -0.0048181
v -0.0119818 0.0072000 -0.0048181
v -0.0125383 0.0072000 -0.0035935
v -0.0117992 0.0072000 -0.0038996
v -0.0118445 0.0072000 -0.0025554
v -0.0112788 0.0072000 -0.0031211
v -0.0108064 0.0072000 -0.0018616
v -0.0105003 0.0072000 -0.0026007
v -0.0095818 0.0072000 -0.0016181
v -0.0095818 0.0072000 -0.0024181
v -0.0083572 0.0072000 -0.0018616
v -0.0086633 0.0072000 -0.0026007
v -0.0073191 0.0072000 -0.0025554
v -0.0078848 0.0072000 -0.0031211
v -0.0066253 0.0072000 -0.0035935
v -0.0073644 0.0072000 -0.0038996
v -0.0063818 0.0072000 -0.0048181
v -0.0071818 0.0072000 -0.0048181
v -0.0066253 0.0072000 -0.0060427
v -0.0073644 0.0072000 -0.0057366
v -0.0073191 0.0072000 -0.0070808
v -0.0078848 0.0072000 -0.0065151
v -0.0083572 0.0072000 -0.0077746
v -0.0086633 0.0072000 -0.0070355
v -0.0066253 0.0080000 -0.0060427
v -0.0063818 0.0080000 -0.0048181
v -0.0073191 0.0080000 -0.0070808
v -0.0083572 0.0080000 -0.0077746
v -0.0095818 0.0080000 -0.0080181
v -0.0108064 0.0080000 -0.0077746
v -0.0118445 0.0080000 -0.0070808
v -0.0125383 0.0080000 -0.0060427
v -0.0127818 0.0080000 -0.0048181
v -0.0125383 0.0080000 -0.0035935
v -0.0118445 0.0080000 -0.0025554
v -0.0108064 0.0080000 -0.0018616
v -0.0095818 0.0080000 -0.0016181
v -0.0083572 0.0080000 -0.0018616
v -0.0073191 0.0080000 -0.0025554
v -0.0066253 0.0080000 -0.0035935
v -0.0108831 0.0080000 -0.0079598
v -0.0119863 0.0080000 -0.0072226
v -0.0118448 0.0080000 -0.0070811
v -0.0108066 0.0080000 -0.0077750
v -0.0095818 0.0080000 -0.0082185
v -0.0095818 0.0080000 -0.0080185
v -0.0082805 0.0080000 -0.0079598
v -0.0083570 0.0080000 -0.0077750
v -0.0071773 0.0080000 -0.0072226
v -0.0073188 0.0080000 -0.0070811
v -0.0064401 0.0080000 -0.0061194
v -0.0066249 0.0080000 -0.0060429
v -0.0061814 0.0080000 -0.0048181
v -0.0063814 0.0080000 -0.0048181
v -0.0064401 0.0080000 -0.0035168
v -0.0066249 0.0080000 -0.0035934
v -0.0071773 0.0080000 -0.0024136
v -0.0073188 0.0080000 -0.0025551
v -0.0129078 0.0080000 -0.0061958
v -0.0131820 0.0080000 -0.0048181
v -0.0127820 0.0080000 -0.0048181
v -0.0129078 0.0080000 -0.0034405
v -0.0121276 0.0080000 -0.0022724
v -0.0118447 0.0080000 -0.0025553
v -0.0095818 0.0080000 -0.0012179
v -0.0095818 0.0080000 -0.0016179
v -0.0070361 0.0080000 -0.0022724
v -0.0073190 0.0080000 -0.0025552
v -0.0062558 0.0080000 -0.0034404
v -0.0109595 0.0080000 -0.0081441
v -0.0121276 0.0080000 -0.0073638
v -0.0118447 0.0080000 -0.0070809
v -0.0064842 0.0080000 -0.0029841
v -0.0060180 0.0080000 -0.0043091
v -0.0062921 0.0080000 -0.0043483
v -0.0067224 0.0080000 -0.0031251
v -0.0060946 0.0080000 -0.0057116
v -0.0063629 0.0080000 -0.0056429
v -0.0067019 0.0080000 -0.0069781
v -0.0069234 0.0080000 -0.0068120
v -0.0077478 0.0080000 -0.0079157
v -0.0078888 0.0080000 -0.0076775
v -0.0090728 0.0080000 -0.0083819
v -0.0091120 0.0080000 -0.0081078
v -0.0104753 0.0080000 -0.0083053
v -0.0104066 0.0080000 -0.0080371
v -0.0073644 0.0008000 -0.0057366
v -0.0071818 0.0008000 -0.0048181
v -0.0078848 0.0008000 -0.0065151
v -0.0086633 0.0008000 -0.0070355
v -0.0095818 0.0008000 -0.0072181
v -0.0105003 0.0008000 -0.0070355
v -0.0112788 0.0008000 -0.0065151
v -0.0117992 0.0008000 -0.0057366
v -0.0119818 0.0008000 -0.0048181
v -0.0117992 0.0008000 -0.0038996
v -0.0112788 0.0008000 -0.0031211
v -0.0105003 0.0008000 -0.0026007
v -0.0095818 0.0008000 -0.0024181
v -0.0086633 0.0008000 -0.0026007
v -0.0078848 0.0008000 -0.0031211
v -0.0073644 0.0008000 -0.0038996
v -0.0108064 0.0008000 -0.0077746
v -0.0095818 0.0008000 -0.0080181
v -0.0118445 0.0008000 -0.0070808
v -0.0125383 0.0008000 -0.0060427
v -0.0127818 0.0008000 -0.0048181
v -0.0125383 0.0008000 -0.0035935
v -0.0118445 0.0008000 -0.0025554
v -0.0108064 0.0008000 -0.0018616
v -0.0095818 0.0008000 -0.0016181
v -0.0083572 0.0008000 -0.0018616
v -0.0073191 0.0008000 -0.0025554
v -0.0066253 0.0008000 -0.0035935
v -0.0063818 0.0008000 -0.0048181
v -0.0066253 0.0008000 -0.0060427
v -0.0073191 0.0008000 -0.0070808
v -0.0083572 0.0008000 -0.0077746
v -0.0066253 0.0000000 -0.0060427
v -0.0063818 0.0000000 -0.0048181
v -0.0073191 0.0000000 -0.0070808
v -0.0083572 0.0000000 -0.0077746
v -0.0095818 0.0000000 -0.0080181
v -0.0108064 0.0000000 -0.0077746
v -0.0118445 0.0000000 -0.0070808
v -0.0125383 0.0000000 -0.0060427
v -0.0127818 0.0000000 -0.0048181
v -0.0125383 0.0000000 -0.0035935
v -0.0118445 0.0000000 -0.0025554
v -0.0108064 0.0000000 -0.0018616
v -0.0095818 0.0000000 -0.0016181
v -0.0083572 0.0000000 -0.0018616
v -0.0073191 0.0000000 -0.0025554
v -0.0066253 0.0000000 -0.0035935
v -0.0118448 0.0000000 -0.0070811
v -0.0119863 0.0000000 -0.0072226
v -0.0108831 0.0000000 -0.0079598
v -0.0108066 0.0000000 -0.0077750
v -0.0095818 0.0000000 -0.0082185
v -0.0095818 0.0000000 -0.0080185
v -0.0082805 0.0000000 -0.0079598
v -0.0083570 0.0000000 -0.0077750
v -0.0071773 0.0000000 -0.0072226
v -0.0073188 0.0000000 -0.0070811
v -0.0064401 0.0000000 -0.0061194
v -0.0066249 0.0000000 -0.0060429
v -0.0061814 0.0000000 -0.0048181
v -0.0063814 0.0000000 -0.0048181
v -0.0064401 0.0000000 -0.0035168
v -0.0066249 0.0000000 -0.0035934
v -0.0071773 0.0000000 -0.0024136
v -0.0073188 0.0000000 -0.0025551
v -0.0127820 0.0000000 -0.0048181
v -0.0131820 0.0000000 -0.0048181
v -0.0129078 0.0000000 -0.0061958
v -0.0129078 0.0000000 -0.0034405
v -0.0118447 0.0000000 -0.0025553
v -0.0121276 0.0000000 -0.0022724
v -0.0095818 0.0000000 -0.0016179
v -0.0095818 0.0000000 -0.0012179
v -0.0073190 0.0000000 -0.0025552
v -0.0070361 0.0000000 -0.0022724
v -0.0062558 0.0000000 -0.0034404
v -0.0118447 0.0000000 -0.0070809
v -0.0121276 0.0000000 -0.0073638
v -0.0109595 0.0000000 -0.0081441
v -0.0062921 0.0000000 -0.0043483
v -0.0060180 0.0000000 -0.0043091
v -0.0064842 0.0000000 -0.0029841
v -0.0067224 0.0000000 -0.0031251
v -0.0063629 0.0000000 -0.0056429
v -0.0060946 0.0000000 -0.0057116
v -0.0069234 0.0000000 -0.0068120
v -0.0067019 0.0000000 -0.0069781
v -0.0078888 0.0000000 -0.0076775
v -0.0077478 0.0000000 -0.0079157
v -0.0091120 0.0000000 -0.0081078
v -0.0090728 0.0000000 -0.0083819
v -0.0104066 0.0000000 -0.0080371
v -0.0104753 0.0000000 -0.0083053
v -0.0012618 0.0008000 -0.0110581
v -0.0019590 0.0008000 -0.0116833
v -0.0015514 0.0008000 -0.0123717
v -0.0006218 0.0008000 -0.0115381
v -0.0028424 0.0008000 -0.0119940
v -0.0027293 0.0008000 -0.0127859
v -0.0037774 0.0008000 -0.0119431
v -0.0039760 0.0008000 -0.0127181
v -0.0046218 0.0008000 -0.0115381
v -0.0051018 0.0008000 -0.0121781
v -0.0052470 0.0008000 -0.0108409
v -0.0059354 0.0008000 -0.0112485
v -0.0055577 0.0008000 -0.0099575
v -0.0063496 0.0008000 -0.0100707
v -0.0055068 0.0008000 -0.0090225
v -0.0062818 0.0008000 -0.0088239
v -0.0051018 0.0008000 -0.0081781
v -0.0057418 0.0008000 -0.0076981
v -0.0044046 0.0008000 -0.0075529
v -0.0048122 0.0008000 -0.0068645
v -0.0035212 0.0008000 -0.0072423
v -0.0036343 0.0008000 -0.0064503
v -0.0025862 0.0008000 -0.0072931
v -0.0023876 0.0008000 -0.0065181
v -0.0017418 0.0008000 -0.0076981
v -0.0012618 0.0008000 -0.0070581
v -0.0011166 0.0008000 -0.0083953
v -0.0004282 0.0008000 -0.0079877
v -0.0008059 0.0008000 -0.0092787
v -0.0000140 0.0008000 -0.0091656
v -0.0008568 0.0008000 -0.0102137
v -0.0000818 0.0008000 -0.0104123
v -0.0004282 0.0000000 -0.0079877
v -0.0012618 0.0000000 -0.0070581
v -0.0000140 0.0000000 -0.0091656
v -0.0000818 0.0000000 -0.0104123
v -0.0006218 0.0000000 -0.0115381
v -0.0015514 0.0000000 -0.0123717
v -0.0027293 0.0000000 -0.0127859
v -0.0039760 0.0000000 -0.0127181
v -0.0051018 0.0000000 -0.0121781
v -0.0059354 0.0000000 -0.0112485
v -0.0063496 0.0000000 -0.0100707
v -0.0062818 0.0000000 -0.0088239
v -0.0057418 0.0000000 -0.0076981
v -0.0048122 0.0000000 -0.0068645
v -0.0036343 0.0000000 -0.0064503
v -0.0023876 0.0000000 -0.0065181
v -0.0010218 0.0000000 -0.0067381
v -0.0022884 0.0000000 -0.0061306
v -0.0036909 0.0000000 -0.0060543
v -0.0050160 0.0000000 -0.0065203
v -0.0060618 0.0000000 -0.0074581
v -0.0066693 0.0000000 -0.0087247
v -0.0067456 0.0000000 -0.0101272
v -0.0062796 0.0000000 -0.0114523
v -0.0053418 0.0000000 -0.0124981
v -0.0040752 0.0000000 -0.0131056
v -0.0026727 0.0000000 -0.0131819
v -0.0013476 0.0000000 -0.0127159
v -0.0003018 0.0000000 -0.0117781
v 0.0003057 0.0000000 -0.0105116
v 0.0003820 0.0000000 -0.0091090
v -0.0000840 0.0000000 -0.0077839
v -0.0011166 0.0072000 -0.0083953
v -0.0017418 0.0072000 -0.0076981
v -0.0008059 0.0072000 -0.0092787
v -0.0008568 0.0072000 -0.0102137
v -0.0012618 0.0072000 -0.0110581
v -0.0019590 0.0072000 -0.0116833
v -0.0028424 0.0072000 -0.0119940
v -0.0037774 0.0072000 -0.0119431
v -0.0046218 0.0072000 -0.0115381
v -0.0052470 0.0072000 -0.0108409
v -0.0055577 0.0072000 -0.0099575
v -0.0055068 0.0072000 -0.0090225
v -0.0051018 0.0072000 -0.0081781
v -0.0044046 0.0072000 -0.0075529
v -0.0035212 0.0072000 -0.0072423
v -0.0025862 0.0072000 -0.0072931
v -0.0010218 0.0080000 -0.0067381
v -0.0000840 0.0080000 -0.0077839
v -0.0004282 0.0080000 -0.0079877
v -0.0012618 0.0080000 -0.0070581
v 0.0003820 0.0080000 -0.0091090
v -0.0000140 0.0080000 -0.0091656
v 0.0003057 0.0080000 -0.0105116
v -0.0000818 0.0080000 -0.0104123
v -0.0003018 0.0080000 -0.0117781
v -0.0006218 0.0080000 -0.0115381
v -0.0013476 0.0080000 -0.0127159
v -0.0015514 0.0080000 -0.0123717
v -0.0026727 0.0080000 -0.0131819
v -0.0027293 0.0080000 -0.0127859
v -0.0040752 0.0080000 -0.0131056
v -0.0039760 0.0080000 -0.0127181
v -0.0053418 0.0080000 -0.0124981
v -0.0051018 0.0080000 -0.0121781
v -0.0062796 0.0080000 -0.0114523
v -0.0059354 0.0080000 -0.0112485
v -0.0067456 0.0080000 -0.0101272
v -0.0063496 0.0080000 -0.0100707
v -0.0066693 0.0080000 -0.0087247
v -0.0062818 0.0080000 -0.0088239
v -0.0060618 0.0080000 -0.0074581
v -0.0057418 0.0080000 -0.0076981
v -0.0050160 0.0080000 -0.0065203
v -0.0048122 0.0080000 -0.0068645
v -0.0036909 0.0080000 -0.0060543
v -0.0036343 0.0080000 -0.0064503
v -0.0022884 0.0080000 -0.0061306
v -0.0023876 0.0080000 -0.0065181
v -0.0015514 0.0072000 -0.0123717
v -0.0006218 0.0072000 -0.0115381
v -0.0027293 0.0072000 -0.0127859
v -0.0039760 0.0072000 -0.0127181
v -0.0051018 0.0072000 -0.0121781
v -0.0059354 0.0072000 -0.0112485
v -0.0063496 0.0072000 -0.0100707
v -0.0062818 0.0072000 -0.0088239
v -0.0057418 0.0072000 -0.0076981
v -0.0048122 0.0072000 -0.0068645
v -0.0036343 0.0072000 -0.0064503
v -0.0023876 0.0072000 -0.0065181
v -0.0012618 0.0072000 -0.0070581
v -0.0004282 0.0072000 -0.0079877
v -0.0000140 0.0072000 -0.0091656
v -0.0000818 0.0072000 -0.0104123
v -0.0067018 0.0080000 -0.0069781
v -0.0060943 0.0080000 -0.0057116
v -0.0060943 0.0048000 -0.0057116
v -0.0067018 0.0048000 -0.0069781
v -0.0053447 0.0080000 -0.0048140
v -0.0048545 0.0080000 -0.0051817
v -0.0048545 0.0048000 -0.0051817
v -0.0053447 0.0048000 -0.0048140
v -0.0060944 0.0048000 -0.0057115
v -0.0055753 0.0080000 -0.0047208
v -0.0055753 0.0048000 -0.0047208
v -0.0058122 0.0080000 -0.0048053
v -0.0058122 0.0048000 -0.0048053
v -0.0059167 0.0080000 -0.0050178
v -0.0059167 0.0048000 -0.0050178
v -0.0060180 0.0080000 -0.0043090
v -0.0077476 0.0048000 -0.0079159
v -0.0077476 0.0080000 -0.0079159
v -0.0079091 0.0048000 -0.0092546
v -0.0079091 0.0080000 -0.0092546
v -0.0083994 0.0080000 -0.0088868
v -0.0083994 0.0048000 -0.0088868
v -0.0077476 0.0048000 -0.0079158
v -0.0083994 0.0048000 -0.0088869
v -0.0083638 0.0048000 -0.0082807
v -0.0085534 0.0080000 -0.0086916
v -0.0085534 0.0048000 -0.0086916
v -0.0085386 0.0080000 -0.0084406
v -0.0085386 0.0048000 -0.0084406
v -0.0083639 0.0080000 -0.0082807
v -0.0083639 0.0048000 -0.0082807
v -0.0083638 0.0080000 -0.0082807
v -0.0090727 0.0080000 -0.0083819
v -0.0083994 0.0080000 -0.0088869
v -0.0050160 0.0048000 -0.0065203
v -0.0060618 0.0048000 -0.0074581
v -0.0043642 0.0080000 -0.0055494
v -0.0043642 0.0048000 -0.0055494
v -0.0050160 0.0048000 -0.0065204
v -0.0042102 0.0080000 -0.0057446
v -0.0042102 0.0048000 -0.0057446
v -0.0042250 0.0080000 -0.0059957
v -0.0042250 0.0048000 -0.0059957
v -0.0043997 0.0080000 -0.0061555
v -0.0043997 0.0048000 -0.0061555
v -0.0050161 0.0080000 -0.0065203
v -0.0043998 0.0080000 -0.0061556
v -0.0066693 0.0048000 -0.0087247
v -0.0074189 0.0080000 -0.0096223
v -0.0074189 0.0048000 -0.0096223
v -0.0066692 0.0048000 -0.0087247
v -0.0068469 0.0048000 -0.0094184
v -0.0071884 0.0080000 -0.0097154
v -0.0071884 0.0048000 -0.0097154
v -0.0069514 0.0080000 -0.0096310
v -0.0069514 0.0048000 -0.0096310
v -0.0068469 0.0080000 -0.0094184
v -0.0066693 0.0080000 -0.0087246
v -0.0043998 0.0048000 -0.0061556
v -0.0060943 0.0032000 -0.0057116
v -0.0060943 0.0000000 -0.0057116
v -0.0067018 0.0000000 -0.0069781
v -0.0067018 0.0032000 -0.0069781
v -0.0048545 0.0032000 -0.0051817
v -0.0048545 0.0000000 -0.0051817
v -0.0053447 0.0000000 -0.0048140
v -0.0053447 0.0032000 -0.0048140
v -0.0060944 0.0032000 -0.0057115
v -0.0055753 0.0000000 -0.0047208
v -0.0055753 0.0032000 -0.0047208
v -0.0058122 0.0000000 -0.0048053
v -0.0058122 0.0032000 -0.0048053
v -0.0059167 0.0000000 -0.0050178
v -0.0059167 0.0032000 -0.0050178
v -0.0060180 0.0000000 -0.0043090
v -0.0077476 0.0000000 -0.0079159
v -0.0077476 0.0032000 -0.0079159
v -0.0083994 0.0000000 -0.0088868
v -0.0079091 0.0000000 -0.0092546
v -0.0079091 0.0032000 -0.0092546
v -0.0083994 0.0032000 -0.0088868
v -0.0083994 0.0032000 -0.0088869
v -0.0077476 0.0032000 -0.0079158
v -0.0083638 0.0032000 -0.0082807
v -0.0085534 0.0000000 -0.0086916
v -0.0085534 0.0032000 -0.0086916
v -0.0085386 0.0000000 -0.0084406
v -0.0085386 0.0032000 -0.0084406
v -0.0083639 0.0000000 -0.0082807
v -0.0083639 0.0032000 -0.0082807
v -0.0090727 0.0000000 -0.0083819
v -0.0083638 0.0000000 -0.0082807
v -0.0083994 0.0000000 -0.0088869
v -0.0050160 0.0032000 -0.0065203
v -0.0060618 0.0032000 -0.0074581
v -0.0043642 0.0000000 -0.0055494
v -0.0043642 0.0032000 -0.0055494
v -0.0050160 0.0032000 -0.0065204
v -0.0042102 0.0000000 -0.0057446
v -0.0042102 0.0032000 -0.0057446
v -0.0042250 0.0000000 -0.0059957
v -0.0042250 0.0032000 -0.0059957
v -0.0043997 0.0000000 -0.0061555
v -0.0043997 0.0032000 -0.0061555
v -0.0043998 0.0000000 -0.0061556
v -0.0050161 0.0000000 -0.0065203
v -0.0066693 0.0032000 -0.0087247
v -0.0074189 0.0000000 -0.0096223
v -0.0074189 0.0032000 -0.0096223
v -0.0066692 0.0032000 -0.0087247
v -0.0068469 0.0032000 -0.0094184
v -0.0071884 0.0000000 -0.0097154
v -0.0071884 0.0032000 -0.0097154
v -0.0069514 0.0000000 -0.0096310
v -0.0069514 0.0032000 -0.0096310
v -0.0068469 0.0000000 -0.0094184
v -0.0066693 0.0000000 -0.0087246
v -0.0043998 0.0032000 -0.0061556
v -0.0060218 0.0080000 -0.0043101
v -0.0036898 0.0080000 -0.0060581
v -0.0070378 0.0080000 -0.0022741
v -0.0070378 0.0000000 -0.0022741
v -0.0060218 0.0000000 -0.0043101
v -0.0121270 0.0080000 -0.0073633
v -0.0090738 0.0080000 -0.0083781
v -0.0067418 0.0080000 -0.0101261
v -0.0036898 0.0000000 -0.0060581
v -0.0090738 0.0000000 -0.0083781
v -0.0121270 0.0000000 -0.0073633
v -0.0067418 0.0000000 -0.0101261
v 0.0010582 0.0080000 -0.0172981
v 0.0001204 0.0080000 -0.0162523
v 0.0004646 0.0080000 -0.0160485
v 0.0012982 0.0080000 -0.0169781
v -0.0003456 0.0080000 -0.0149272
v 0.0000504 0.0080000 -0.0148707
v -0.0002693 0.0080000 -0.0135247
v 0.0001182 0.0080000 -0.0136239
v 0.0003382 0.0080000 -0.0122581
v 0.0006582 0.0080000 -0.0124981
v 0.0013840 0.0080000 -0.0113203
v 0.0015878 0.0080000 -0.0116645
v 0.0027091 0.0080000 -0.0108543
v 0.0027657 0.0080000 -0.0112503
v 0.0041116 0.0080000 -0.0109306
v 0.0040124 0.0080000 -0.0113181
v 0.0053782 0.0080000 -0.0115381
v 0.0051382 0.0080000 -0.0118581
v 0.0063160 0.0080000 -0.0125839
v 0.0059718 0.0080000 -0.0127877
v 0.0067820 0.0080000 -0.0139090
v 0.0063860 0.0080000 -0.0139656
v 0.0067057 0.0080000 -0.0153116
v 0.0063182 0.0080000 -0.0152123
v 0.0060982 0.0080000 -0.0165781
v 0.0057782 0.0080000 -0.0163381
v 0.0050524 0.0080000 -0.0175159
v 0.0048486 0.0080000 -0.0171717
v 0.0037273 0.0080000 -0.0179819
v 0.0036707 0.0080000 -0.0175859
v 0.0023248 0.0080000 -0.0179056
v 0.0024240 0.0080000 -0.0175181
v -0.0013476 0.0048000 -0.0127159
v -0.0003018 0.0048000 -0.0117781
v -0.0015091 0.0048000 -0.0140546
v -0.0015091 0.0080000 -0.0140546
v -0.0019994 0.0080000 -0.0136868
v -0.0019994 0.0048000 -0.0136868
v -0.0013476 0.0048000 -0.0127158
v -0.0021534 0.0080000 -0.0134916
v -0.0021534 0.0048000 -0.0134916
v -0.0021386 0.0080000 -0.0132406
v -0.0021386 0.0048000 -0.0132406
v -0.0019639 0.0080000 -0.0130807
v -0.0019639 0.0048000 -0.0130807
v -0.0019638 0.0080000 -0.0130807
v -0.0019994 0.0080000 -0.0136869
v 0.0003057 0.0048000 -0.0105116
v 0.0010553 0.0080000 -0.0096140
v 0.0015455 0.0080000 -0.0099817
v 0.0015455 0.0048000 -0.0099817
v 0.0010553 0.0048000 -0.0096140
v 0.0003056 0.0048000 -0.0105115
v 0.0004833 0.0048000 -0.0098178
v 0.0008247 0.0080000 -0.0095208
v 0.0008247 0.0048000 -0.0095208
v 0.0005878 0.0080000 -0.0096053
v 0.0005878 0.0048000 -0.0096053
v 0.0004833 0.0080000 -0.0098178
v -0.0019994 0.0048000 -0.0136869
v -0.0019638 0.0048000 -0.0130807
v -0.0024618 0.0080000 -0.0146581
v 0.0018582 0.0080000 -0.0088981
v -0.0021418 0.0080000 -0.0148981
v 0.0021782 0.0080000 -0.0091381
v -0.0002693 0.0048000 -0.0135247
v 0.0003382 0.0048000 -0.0122581
v -0.0010189 0.0080000 -0.0144223
v -0.0010189 0.0048000 -0.0144223
v -0.0002692 0.0048000 -0.0135247
v -0.0007884 0.0080000 -0.0145154
v -0.0007884 0.0048000 -0.0145154
v -0.0005514 0.0080000 -0.0144310
v -0.0005514 0.0048000 -0.0144310
v -0.0004469 0.0080000 -0.0142184
v -0.0004469 0.0048000 -0.0142184
v -0.0002693 0.0080000 -0.0135246
v 0.0013840 0.0048000 -0.0113203
v 0.0020358 0.0080000 -0.0103494
v 0.0020358 0.0048000 -0.0103494
v 0.0013840 0.0048000 -0.0113204
v 0.0020002 0.0048000 -0.0109556
v 0.0021898 0.0080000 -0.0105446
v 0.0021898 0.0048000 -0.0105446
v 0.0021750 0.0080000 -0.0107957
v 0.0021750 0.0048000 -0.0107957
v 0.0020003 0.0080000 -0.0109555
v 0.0020003 0.0048000 -0.0109555
v 0.0013839 0.0080000 -0.0113203
v 0.0020002 0.0080000 -0.0109556
v 0.0020002 0.0048000 -0.0109555
v 0.0020002 0.0080000 -0.0109555
v -0.0018218 0.0080000 -0.0151381
v 0.0024982 0.0080000 -0.0093781
v 0.0015878 0.0072000 -0.0116645
v 0.0019954 0.0072000 -0.0123529
v 0.0012982 0.0072000 -0.0129781
v 0.0006582 0.0072000 -0.0124981
v 0.0027657 0.0072000 -0.0112503
v 0.0028788 0.0072000 -0.0120423
v 0.0040124 0.0072000 -0.0113181
v 0.0038138 0.0072000 -0.0120931
v 0.0051382 0.0072000 -0.0118581
v 0.0046582 0.0072000 -0.0124981
v 0.0059718 0.0072000 -0.0127877
v 0.0052834 0.0072000 -0.0131953
v 0.0063860 0.0072000 -0.0139656
v 0.0055941 0.0072000 -0.0140787
v 0.0063182 0.0072000 -0.0152123
v 0.0055432 0.0072000 -0.0150137
v 0.0057782 0.0072000 -0.0163381
v 0.0051382 0.0072000 -0.0158581
v 0.0048486 0.0072000 -0.0171717
v 0.0044410 0.0072000 -0.0164833
v 0.0036707 0.0072000 -0.0175859
v 0.0035576 0.0072000 -0.0167940
v 0.0024240 0.0072000 -0.0175181
v 0.0026226 0.0072000 -0.0167431
v 0.0012982 0.0072000 -0.0169781
v 0.0017782 0.0072000 -0.0163381
v 0.0004646 0.0072000 -0.0160485
v 0.0011530 0.0072000 -0.0156409
v 0.0000504 0.0072000 -0.0148707
v 0.0008423 0.0072000 -0.0147575
v 0.0001182 0.0072000 -0.0136239
v 0.0008932 0.0072000 -0.0138225
v 0.0011530 0.0008000 -0.0156409
v 0.0017782 0.0008000 -0.0163381
v 0.0008423 0.0008000 -0.0147575
v 0.0008932 0.0008000 -0.0138225
v 0.0012982 0.0008000 -0.0129781
v 0.0019954 0.0008000 -0.0123529
v 0.0028788 0.0008000 -0.0120423
v 0.0038138 0.0008000 -0.0120931
v 0.0046582 0.0008000 -0.0124981
v 0.0052834 0.0008000 -0.0131953
v 0.0055941 0.0008000 -0.0140787
v 0.0055432 0.0008000 -0.0150137
v 0.0051382 0.0008000 -0.0158581
v 0.0044410 0.0008000 -0.0164833
v 0.0035576 0.0008000 -0.0167940
v 0.0026226 0.0008000 -0.0167431
v 0.0015878 0.0008000 -0.0116645
v 0.0006582 0.0008000 -0.0124981
v 0.0027657 0.0008000 -0.0112503
v 0.0040124 0.0008000 -0.0113181
v 0.0051382 0.0008000 -0.0118581
v 0.0059718 0.0008000 -0.0127877
v 0.0063860 0.0008000 -0.0139656
v 0.0063182 0.0008000 -0.0152123
v 0.0057782 0.0008000 -0.0163381
v 0.0048486 0.0008000 -0.0171717
v 0.0036707 0.0008000 -0.0175859
v 0.0024240 0.0008000 -0.0175181
v 0.0012982 0.0008000 -0.0169781
v 0.0004646 0.0008000 -0.0160485
v 0.0000504 0.0008000 -0.0148707
v 0.0001182 0.0008000 -0.0136239
v 0.0004646 0.0000000 -0.0160485
v 0.0012982 0.0000000 -0.0169781
v 0.0000504 0.0000000 -0.0148707
v 0.0001182 0.0000000 -0.0136239
v 0.0006582 0.0000000 -0.0124981
v 0.0015878 0.0000000 -0.0116645
v 0.0027657 0.0000000 -0.0112503
v 0.0040124 0.0000000 -0.0113181
v 0.0051382 0.0000000 -0.0118581
v 0.0059718 0.0000000 -0.0127877
v 0.0063860 0.0000000 -0.0139656
v 0.0063182 0.0000000 -0.0152123
v 0.0057782 0.0000000 -0.0163381
v 0.0048486 0.0000000 -0.0171717
v 0.0036707 0.0000000 -0.0175859
v 0.0024240 0.0000000 -0.0175181
v -0.0013476 0.0032000 -0.0127159
v -0.0003018 0.0032000 -0.0117781
v -0.0019994 0.0000000 -0.0136868
v -0.0015091 0.0000000 -0.0140546
v -0.0015091 0.0032000 -0.0140546
v -0.0019994 0.0032000 -0.0136868
v -0.0013476 0.0032000 -0.0127158
v -0.0021534 0.0000000 -0.0134916
v -0.0021534 0.0032000 -0.0134916
v -0.0021386 0.0000000 -0.0132406
v -0.0021386 0.0032000 -0.0132406
v -0.0019639 0.0000000 -0.0130807
v -0.0019639 0.0032000 -0.0130807
v -0.0019638 0.0000000 -0.0130807
v -0.0019994 0.0000000 -0.0136869
v 0.0003057 0.0032000 -0.0105116
v 0.0015455 0.0032000 -0.0099817
v 0.0015455 0.0000000 -0.0099817
v 0.0010553 0.0000000 -0.0096140
v 0.0010553 0.0032000 -0.0096140
v 0.0003056 0.0032000 -0.0105115
v 0.0004833 0.0032000 -0.0098178
v 0.0008247 0.0000000 -0.0095208
v 0.0008247 0.0032000 -0.0095208
v 0.0005878 0.0000000 -0.0096053
v 0.0005878 0.0032000 -0.0096053
v 0.0004833 0.0000000 -0.0098178
v -0.0019638 0.0032000 -0.0130807
v -0.0019994 0.0032000 -0.0136869
v -0.0024618 0.0000000 -0.0146581
v 0.0018582 0.0000000 -0.0088981
v -0.0021418 0.0000000 -0.0148981
v 0.0021782 0.0000000 -0.0091381
v -0.0002693 0.0032000 -0.0135247
v -0.0002693 0.0000000 -0.0135247
v 0.0003382 0.0000000 -0.0122581
v 0.0003382 0.0032000 -0.0122581
v -0.0010189 0.0000000 -0.0144223
v -0.0010189 0.0032000 -0.0144223
v -0.0002692 0.0032000 -0.0135247
v -0.0007884 0.0000000 -0.0145154
v -0.0007884 0.0032000 -0.0145154
v -0.0005514 0.0000000 -0.0144310
v -0.0005514 0.0032000 -0.0144310
v -0.0004469 0.0000000 -0.0142184
v -0.0004469 0.0032000 -0.0142184
v -0.0002693 0.0000000 -0.0135246
v -0.0003456 0.0000000 -0.0149272
v 0.0013840 0.0000000 -0.0113203
v 0.0013840 0.0032000 -0.0113203
v 0.0020358 0.0000000 -0.0103494
v 0.0020358 0.0032000 -0.0103494
v 0.0013840 0.0032000 -0.0113204
v 0.0020002 0.0032000 -0.0109556
v 0.0021898 0.0000000 -0.0105446
v 0.0021898 0.0032000 -0.0105446
v 0.0021750 0.0000000 -0.0107957
v 0.0021750 0.0032000 -0.0107957
v 0.0020003 0.0000000 -0.0109555
v 0.0020003 0.0032000 -0.0109555
v 0.0027091 0.0000000 -0.0108543
v 0.0020002 0.0000000 -0.0109556
v 0.0013839 0.0000000 -0.0113203
v 0.0020002 0.0000000 -0.0109555
v 0.0020002 0.0032000 -0.0109555
v -0.0018218 0.0000000 -0.0151381
v 0.0010582 0.0000000 -0.0172981
v 0.0001204 0.0000000 -0.0162523
v 0.0041116 0.0000000 -0.0109306
v 0.0053782 0.0000000 -0.0115381
v 0.0024982 0.0000000 -0.0093781
v 0.0063160 0.0000000 -0.0125839
v 0.0067820 0.0000000 -0.0139090
v 0.0067057 0.0000000 -0.0153116
v 0.0060982 0.0000000 -0.0165781
v 0.0050524 0.0000000 -0.0175159
v 0.0037273 0.0000000 -0.0179819
v 0.0023248 0.0000000 -0.0179056
v 0.0127160 0.0000000 -0.0173839
v 0.0127160 0.0080000 -0.0173839
v 0.0117782 0.0080000 -0.0163381
v 0.0117782 0.0000000 -0.0163381
v 0.0131820 0.0000000 -0.0187090
v 0.0131820 0.0080000 -0.0187090
v 0.0131057 0.0000000 -0.0201116
v 0.0131057 0.0080000 -0.0201116
v 0.0124982 0.0000000 -0.0213781
v 0.0124982 0.0080000 -0.0213781
v 0.0114524 0.0000000 -0.0223159
v 0.0114524 0.0080000 -0.0223159
v 0.0101273 0.0000000 -0.0227819
v 0.0101273 0.0080000 -0.0227819
v 0.0087248 0.0000000 -0.0227056
v 0.0087248 0.0080000 -0.0227056
v 0.0074582 0.0000000 -0.0220981
v 0.0074582 0.0080000 -0.0220981
v 0.0083954 0.0080000 -0.0171530
v 0.0092788 0.0080000 -0.0168422
v 0.0102138 0.0080000 -0.0168932
v 0.0075531 0.0080000 -0.0204409
v 0.0072423 0.0080000 -0.0195575
v 0.0072933 0.0080000 -0.0186225
v 0.0108410 0.0080000 -0.0212832
v 0.0099576 0.0080000 -0.0215940
v 0.0090226 0.0080000 -0.0215430
v 0.0116833 0.0080000 -0.0179953
v 0.0119941 0.0080000 -0.0188787
v 0.0119431 0.0080000 -0.0198137
v 0.0094182 0.0080000 -0.0178181
v 0.0103228 0.0080000 -0.0169454
v 0.0099382 0.0080000 -0.0174581
v 0.0088182 0.0080000 -0.0176181
v 0.0083055 0.0080000 -0.0172336
v 0.0082182 0.0080000 -0.0194181
v 0.0073455 0.0080000 -0.0185136
v 0.0078582 0.0080000 -0.0188981
v 0.0080182 0.0080000 -0.0200181
v 0.0076336 0.0080000 -0.0205308
v 0.0089136 0.0080000 -0.0214908
v 0.0092982 0.0080000 -0.0209781
v 0.0098182 0.0080000 -0.0206181
v 0.0108410 0.0080000 -0.0212833
v 0.0104182 0.0080000 -0.0208181
v 0.0109309 0.0080000 -0.0212027
v 0.0110182 0.0080000 -0.0190181
v 0.0118909 0.0080000 -0.0199227
v 0.0113782 0.0080000 -0.0195381
v 0.0112182 0.0080000 -0.0184181
v 0.0116028 0.0080000 -0.0179054
v 0.0119431 0.0000000 -0.0198137
v 0.0119941 0.0000000 -0.0188787
v 0.0116833 0.0000000 -0.0179953
v 0.0090226 0.0000000 -0.0215430
v 0.0099576 0.0000000 -0.0215941
v 0.0108410 0.0000000 -0.0212832
v 0.0072933 0.0000000 -0.0186225
v 0.0072423 0.0000000 -0.0195575
v 0.0075531 0.0000000 -0.0204409
v 0.0102138 0.0000000 -0.0168932
v 0.0092788 0.0000000 -0.0168422
v 0.0083954 0.0000000 -0.0171530
v 0.0110182 0.0000000 -0.0190181
v 0.0116028 0.0000000 -0.0179054
v 0.0112182 0.0000000 -0.0184181
v 0.0113782 0.0000000 -0.0195381
v 0.0118909 0.0000000 -0.0199227
v 0.0108410 0.0000000 -0.0212833
v 0.0098182 0.0000000 -0.0206181
v 0.0109309 0.0000000 -0.0212027
v 0.0104182 0.0000000 -0.0208181
v 0.0092982 0.0000000 -0.0209781
v 0.0089136 0.0000000 -0.0214908
v 0.0076336 0.0000000 -0.0205308
v 0.0080182 0.0000000 -0.0200181
v 0.0082182 0.0000000 -0.0194181
v 0.0078582 0.0000000 -0.0188981
v 0.0073455 0.0000000 -0.0185136
v 0.0094182 0.0000000 -0.0178181
v 0.0083055 0.0000000 -0.0172336
v 0.0088182 0.0000000 -0.0176181
v 0.0099382 0.0000000 -0.0174581
v 0.0103228 0.0000000 -0.0169454
v 0.0110582 0.0080000 -0.0172981
v 0.0110582 0.0000000 -0.0172981
v 0.0081782 0.0000000 -0.0211381
v 0.0081782 0.0080000 -0.0211381
v 0.0115382 0.0000000 -0.0206581
v 0.0115382 0.0080000 -0.0206581
v 0.0090226 0.0080000 -0.0215431
v 0.0119432 0.0080000 -0.0198137
v 0.0116834 0.0080000 -0.0179953
v 0.0090226 0.0000000 -0.0215431
v 0.0099576 0.0000000 -0.0215940
v 0.0119432 0.0000000 -0.0198137
v 0.0116834 0.0000000 -0.0179953
v 0.0072247 0.0080000 -0.0143208
v 0.0074553 0.0080000 -0.0144140
v 0.0074553 0.0000000 -0.0144140
v 0.0072247 0.0000000 -0.0143208
v 0.0069878 0.0080000 -0.0144053
v 0.0069878 0.0000000 -0.0144053
v 0.0068833 0.0080000 -0.0146178
v 0.0068833 0.0000000 -0.0146178
v 0.0044006 0.0000000 -0.0184868
v 0.0044006 0.0080000 -0.0184868
v 0.0042466 0.0080000 -0.0182916
v 0.0042466 0.0000000 -0.0182916
v 0.0042614 0.0080000 -0.0180406
v 0.0042614 0.0000000 -0.0180406
v 0.0044361 0.0080000 -0.0178807
v 0.0044361 0.0000000 -0.0178807
v 0.0044362 0.0080000 -0.0178807
v 0.0044362 0.0000000 -0.0178807
v 0.0084358 0.0080000 -0.0151494
v 0.0084358 0.0000000 -0.0151494
v 0.0053811 0.0000000 -0.0192223
v 0.0053811 0.0080000 -0.0192223
v 0.0085898 0.0080000 -0.0153446
v 0.0085898 0.0000000 -0.0153446
v 0.0085750 0.0080000 -0.0155957
v 0.0085750 0.0000000 -0.0155957
v 0.0084003 0.0080000 -0.0157555
v 0.0084003 0.0000000 -0.0157555
v 0.0091091 0.0080000 -0.0156543
v 0.0091091 0.0000000 -0.0156543
v 0.0102138 0.0080000 -0.0168931
v 0.0092843 0.0080000 -0.0159677
v 0.0092788 0.0080000 -0.0168423
v 0.0083954 0.0080000 -0.0171529
v 0.0105116 0.0080000 -0.0157306
v 0.0084002 0.0080000 -0.0157556
v 0.0077839 0.0080000 -0.0161203
v 0.0056116 0.0080000 -0.0193154
v 0.0056116 0.0000000 -0.0193154
v 0.0058486 0.0080000 -0.0192310
v 0.0058486 0.0000000 -0.0192310
v 0.0059531 0.0080000 -0.0190184
v 0.0059531 0.0000000 -0.0190184
v 0.0060544 0.0080000 -0.0197272
v 0.0060544 0.0000000 -0.0197272
v 0.0092843 0.0000000 -0.0159677
v 0.0102138 0.0000000 -0.0168931
v 0.0092788 0.0000000 -0.0168423
v 0.0083954 0.0000000 -0.0171529
v 0.0105116 0.0000000 -0.0157306
v 0.0084002 0.0000000 -0.0157556
v 0.0077839 0.0000000 -0.0161203
v 0.0064043 0.0080000 -0.0198077
v 0.0075530 0.0080000 -0.0204409
v 0.0072932 0.0080000 -0.0186225
v 0.0065204 0.0080000 -0.0210523
v 0.0061307 0.0080000 -0.0183246
v 0.0075530 0.0000000 -0.0204409
v 0.0064043 0.0000000 -0.0198077
v 0.0072932 0.0000000 -0.0186225
v 0.0065204 0.0000000 -0.0210523
v 0.0061307 0.0000000 -0.0183246
v 0.0063852 0.0080000 -0.0177934
v 0.0063852 0.0000000 -0.0177934
v 0.0073452 0.0000000 -0.0165134
v 0.0073452 0.0080000 -0.0165134
v 0.0067056 0.0080000 -0.0153116
v 0.0088982 0.0080000 -0.0141781
v 0.0082582 0.0080000 -0.0136981
v 0.0039382 0.0080000 -0.0194581
v 0.0045782 0.0080000 -0.0199381
v 0.0088982 0.0000000 -0.0141781
v 0.0082582 0.0000000 -0.0136981
v 0.0039382 0.0000000 -0.0194581
v 0.0045782 0.0000000 -0.0199381
v -0.0121274 0.0080000 -0.0073637
v -0.0121274 0.0000000 -0.0073637
f 1 2 3
f 4 1 3
f 2 5 6
f 3 2 6
f 5 7 8
f 6 5 8
f 7 9 10
f 8 7 10
f 9 11 12
f 10 9 12
f 11 13 14
f 12 11 14
f 13 15 16
f 14 13 16
f 15 17 18
f 16 15 18
f 19 20 21
f 22 23 24
f 25 26 27
f 28 29 30
f 19 21 31
f 31 32 33
f 31 33 19
f 34 31 21
f 34 21 35
f 36 22 24
f 36 37 38
f 36 38 22
f 39 40 36
f 39 36 24
f 41 42 25
f 41 25 43
f 25 27 43
f 27 44 45
f 27 45 43
f 28 30 46
f 47 28 46
f 47 46 48
f 49 46 30
f 49 30 50
f 51 52 53
f 54 55 56
f 57 58 59
f 60 61 62
f 51 53 63
f 63 64 65
f 63 65 51
f 66 63 53
f 66 53 67
f 68 54 56
f 68 69 70
f 68 70 54
f 71 72 68
f 71 68 56
f 73 74 57
f 73 57 75
f 57 59 75
f 59 76 77
f 59 77 75
f 60 62 78
f 79 60 78
f 79 78 80
f 81 78 62
f 81 62 82
f 82 83 84
f 82 84 33
f 85 86 74
f 39 85 74
f 71 86 85
f 71 85 42
f 87 88 70
f 44 87 70
f 67 88 87
f 67 87 47
f 84 83 65
f 50 84 65
f 81 82 33
f 81 33 32
f 81 32 31
f 81 31 78
f 78 31 34
f 78 34 80
f 80 34 35
f 80 35 79
f 77 76 38
f 77 38 37
f 77 37 36
f 77 36 75
f 75 36 40
f 75 40 73
f 73 40 39
f 73 39 74
f 71 42 41
f 71 41 72
f 72 41 43
f 72 43 68
f 68 43 45
f 68 45 69
f 69 45 44
f 69 44 70
f 67 47 48
f 67 48 66
f 66 48 46
f 66 46 63
f 63 46 49
f 63 49 64
f 64 49 50
f 64 50 65
f 17 15 89
f 17 89 85
f 15 13 90
f 15 90 89
f 13 11 91
f 13 91 90
f 11 9 87
f 11 87 91
f 9 7 92
f 9 92 87
f 7 5 93
f 7 93 92
f 5 2 94
f 5 94 93
f 2 1 84
f 2 84 94
f 95 16 18
f 86 95 18
f 96 14 16
f 95 96 16
f 97 12 14
f 96 97 14
f 88 10 12
f 97 88 12
f 98 8 10
f 88 98 10
f 99 6 8
f 98 99 8
f 100 3 6
f 99 100 6
f 83 4 3
f 100 83 3
f 101 102 103
f 104 101 103
f 104 103 105
f 106 104 105
f 106 105 107
f 108 106 107
f 109 107 110
f 107 105 110
f 110 105 103
f 110 103 102
f 111 108 112
f 111 106 108
f 104 106 111
f 101 104 111
f 113 114 115
f 113 115 116
f 115 117 118
f 116 115 118
f 119 120 121
f 119 121 122
f 123 119 122
f 123 122 124
f 125 123 124
f 125 124 126
f 127 125 128
f 123 125 127
f 123 127 119
f 119 127 120
f 129 126 130
f 130 126 124
f 122 130 124
f 121 130 122
f 131 132 102
f 131 102 101
f 120 133 134
f 121 120 134
f 135 132 131
f 135 131 136
f 137 135 136
f 137 136 138
f 139 137 138
f 139 138 140
f 137 141 135
f 135 141 132
f 142 138 136
f 142 136 131
f 143 144 84
f 143 145 144
f 143 146 145
f 1 147 141
f 143 84 1
f 143 1 141
f 143 141 137
f 143 137 139
f 146 143 139
f 146 139 148
f 134 133 149
f 150 134 149
f 150 149 151
f 152 150 151
f 152 151 153
f 154 152 153
f 155 151 149
f 155 149 133
f 152 156 150
f 150 156 134
f 83 157 158
f 157 159 158
f 159 160 158
f 142 161 4
f 4 83 158
f 4 158 142
f 138 142 158
f 138 158 140
f 140 158 160
f 140 160 162
f 85 163 164
f 163 165 164
f 165 166 164
f 155 167 17
f 151 155 164
f 151 164 153
f 153 164 166
f 153 166 168
f 169 170 86
f 169 171 170
f 169 172 171
f 18 173 156
f 169 86 18
f 169 18 156
f 172 169 154
f 172 154 174
f 164 155 17
f 164 17 85
f 156 152 154
f 156 154 169
f 153 168 174
f 153 174 154
f 175 176 38
f 175 38 76
f 35 177 178
f 35 178 79
f 176 168 166
f 176 166 38
f 76 172 174
f 76 174 175
f 174 168 176
f 174 176 175
f 148 177 35
f 148 35 146
f 178 177 148
f 178 148 162
f 160 79 178
f 160 178 162
f 162 148 139
f 162 139 140
f 108 107 114
f 108 114 112
f 117 125 126
f 117 126 118
f 147 1 179
f 141 147 179
f 180 181 182
f 180 182 110
f 183 184 185
f 127 183 185
f 186 17 167
f 186 167 155
f 132 141 179
f 102 180 110
f 185 120 127
f 186 155 133
f 120 185 186
f 120 186 133
f 102 132 179
f 102 179 180
f 187 4 161
f 187 161 142
f 188 189 190
f 111 188 190
f 191 192 193
f 191 193 130
f 173 18 194
f 156 173 194
f 142 131 187
f 190 101 111
f 121 191 130
f 156 194 134
f 194 191 121
f 194 121 134
f 187 131 101
f 187 101 190
f 181 195 196
f 181 196 197
f 195 198 199
f 195 199 196
f 198 200 201
f 198 201 199
f 200 202 203
f 200 203 201
f 202 204 205
f 202 205 203
f 204 206 207
f 204 207 205
f 206 208 209
f 206 209 207
f 208 184 210
f 208 210 209
f 184 183 211
f 184 211 210
f 183 127 212
f 183 212 211
f 127 117 213
f 127 213 212
f 117 115 214
f 117 214 213
f 115 114 215
f 115 215 214
f 114 110 216
f 114 216 215
f 110 182 217
f 110 217 216
f 182 181 197
f 182 197 217
f 218 219 220
f 218 220 221
f 222 223 224
f 222 224 225
f 218 221 222
f 225 224 226
f 227 225 226
f 227 226 228
f 229 227 228
f 229 228 230
f 231 229 230
f 227 229 231
f 227 231 225
f 232 230 233
f 230 228 233
f 233 228 226
f 233 226 234
f 220 235 236
f 221 220 236
f 237 238 239
f 240 237 239
f 241 239 236
f 241 236 242
f 243 237 240
f 243 240 244
f 245 243 244
f 245 244 246
f 247 245 246
f 247 246 242
f 242 246 244
f 240 242 244
f 248 247 249
f 245 247 248
f 245 248 243
f 243 248 250
f 251 231 218
f 251 218 222
f 236 239 221
f 221 239 222
f 230 232 218
f 230 218 231
f 235 247 242
f 235 242 236
f 252 253 254
f 252 254 233
f 255 256 257
f 248 255 257
f 252 233 234
f 252 234 223
f 252 223 258
f 257 250 248
f 257 259 238
f 257 238 250
f 202 200 260
f 261 202 260
f 262 223 222
f 263 262 222
f 222 261 260
f 264 262 263
f 264 263 265
f 266 264 265
f 266 265 267
f 268 266 267
f 268 267 269
f 269 267 265
f 263 269 265
f 198 268 270
f 198 266 268
f 264 266 198
f 262 264 198
f 271 204 202
f 271 202 261
f 239 238 272
f 239 272 273
f 271 239 273
f 274 271 273
f 273 272 275
f 276 273 275
f 276 275 277
f 278 276 277
f 278 277 279
f 274 278 279
f 276 278 274
f 276 274 273
f 280 279 206
f 206 279 277
f 275 206 277
f 272 206 275
f 260 269 263
f 222 260 263
f 261 239 271
f 222 239 261
f 260 270 268
f 269 260 268
f 274 279 204
f 271 274 204
f 195 181 281
f 198 195 281
f 282 184 208
f 282 208 206
f 262 198 281
f 223 262 281
f 258 223 281
f 206 272 282
f 238 259 282
f 272 238 282
f 283 284 285
f 283 285 286
f 287 288 284
f 287 284 283
f 289 290 288
f 289 288 287
f 291 292 290
f 291 290 289
f 293 294 292
f 293 292 291
f 295 296 294
f 295 294 293
f 297 298 296
f 297 296 295
f 299 300 298
f 299 298 297
f 301 302 300
f 301 300 299
f 303 304 302
f 303 302 301
f 305 306 304
f 305 304 303
f 307 308 306
f 307 306 305
f 309 310 308
f 309 308 307
f 311 312 310
f 311 310 309
f 313 314 312
f 313 312 311
f 286 285 314
f 286 314 313
f 196 309 307
f 197 196 307
f 199 311 309
f 196 199 309
f 201 313 311
f 199 201 311
f 203 286 313
f 201 203 313
f 205 283 286
f 203 205 286
f 207 287 283
f 205 207 283
f 209 289 287
f 207 209 287
f 210 291 289
f 209 210 289
f 211 293 291
f 210 211 291
f 212 295 293
f 211 212 293
f 213 297 295
f 212 213 295
f 214 299 297
f 213 214 297
f 215 301 299
f 214 215 299
f 216 303 301
f 215 216 301
f 217 305 303
f 216 217 303
f 197 307 305
f 217 197 305
f 310 315 316
f 308 310 316
f 312 317 315
f 310 312 315
f 314 318 317
f 312 314 317
f 285 319 318
f 314 285 318
f 284 320 319
f 285 284 319
f 288 321 320
f 284 288 320
f 290 322 321
f 288 290 321
f 292 323 322
f 290 292 322
f 294 324 323
f 292 294 323
f 296 325 324
f 294 296 324
f 298 326 325
f 296 298 325
f 300 327 326
f 298 300 326
f 302 328 327
f 300 302 327
f 304 329 328
f 302 304 328
f 306 330 329
f 304 306 329
f 308 316 330
f 306 308 330
f 319 320 331
f 332 319 331
f 320 321 333
f 331 320 333
f 321 322 334
f 333 321 334
f 322 323 335
f 334 322 335
f 323 324 336
f 335 323 336
f 324 325 337
f 336 324 337
f 325 326 338
f 337 325 338
f 326 327 339
f 338 326 339
f 327 328 340
f 339 327 340
f 328 329 341
f 340 328 341
f 329 330 342
f 341 329 342
f 330 316 343
f 342 330 343
f 316 315 344
f 343 316 344
f 315 317 345
f 344 315 345
f 317 318 346
f 345 317 346
f 318 319 332
f 346 318 332
f 343 344 347
f 343 347 348
f 344 345 349
f 344 349 347
f 345 346 350
f 345 350 349
f 346 332 351
f 346 351 350
f 332 331 352
f 332 352 351
f 331 333 353
f 331 353 352
f 333 334 354
f 333 354 353
f 334 335 355
f 334 355 354
f 335 336 356
f 335 356 355
f 336 337 357
f 336 357 356
f 337 338 358
f 337 358 357
f 338 339 359
f 338 359 358
f 339 340 360
f 339 360 359
f 340 341 361
f 340 361 360
f 341 342 362
f 341 362 361
f 342 343 348
f 342 348 362
f 363 364 365
f 366 363 365
f 367 368 369
f 370 367 369
f 369 366 365
f 371 367 370
f 371 370 372
f 373 371 372
f 373 372 374
f 375 373 374
f 375 374 376
f 376 374 372
f 370 376 372
f 377 375 378
f 377 373 375
f 371 373 377
f 379 371 377
f 380 381 363
f 380 363 366
f 382 383 384
f 382 384 385
f 380 382 386
f 387 380 386
f 385 384 388
f 389 385 388
f 389 388 390
f 391 389 390
f 391 390 392
f 387 391 392
f 389 391 387
f 389 387 385
f 393 392 394
f 394 392 390
f 388 394 390
f 395 394 388
f 365 376 396
f 369 365 396
f 366 382 380
f 369 382 366
f 365 378 375
f 376 365 375
f 387 392 381
f 380 387 381
f 397 398 399
f 377 397 399
f 400 401 402
f 400 402 394
f 379 377 399
f 368 379 399
f 403 368 399
f 394 395 400
f 383 404 400
f 395 383 400
f 405 406 407
f 405 407 408
f 369 368 409
f 369 409 410
f 405 408 369
f 410 409 411
f 412 410 411
f 412 411 413
f 414 412 413
f 414 413 415
f 416 414 415
f 412 414 416
f 412 416 410
f 417 415 418
f 415 413 418
f 418 413 411
f 418 411 409
f 407 419 420
f 408 407 420
f 421 383 382
f 422 421 382
f 422 382 420
f 422 420 423
f 424 421 422
f 424 422 425
f 426 424 425
f 426 425 427
f 428 426 427
f 428 427 423
f 423 427 425
f 422 423 425
f 429 428 430
f 426 428 429
f 426 429 424
f 424 429 421
f 410 416 405
f 410 405 369
f 420 382 408
f 408 382 369
f 415 417 405
f 415 405 416
f 419 428 423
f 419 423 420
f 431 189 432
f 431 432 418
f 433 192 434
f 429 433 434
f 431 418 409
f 431 409 368
f 431 368 403
f 434 421 429
f 434 404 383
f 434 383 421
f 347 432 189
f 348 347 189
f 349 418 432
f 347 349 432
f 350 406 418
f 349 350 418
f 351 407 406
f 350 351 406
f 352 419 407
f 351 352 407
f 353 429 419
f 352 353 419
f 354 433 429
f 353 354 429
f 355 192 433
f 354 355 433
f 356 193 192
f 355 356 192
f 357 130 193
f 356 357 193
f 358 118 130
f 357 358 130
f 359 116 118
f 358 359 118
f 360 113 116
f 359 360 116
f 361 111 113
f 360 361 113
f 362 188 111
f 361 362 111
f 348 189 188
f 362 348 188
f 435 436 437
f 438 435 437
f 436 439 440
f 437 436 440
f 439 441 442
f 440 439 442
f 441 443 444
f 442 441 444
f 443 445 446
f 444 443 446
f 445 447 448
f 446 445 448
f 447 449 450
f 448 447 450
f 449 451 452
f 450 449 452
f 451 453 454
f 452 451 454
f 453 455 456
f 454 453 456
f 455 457 458
f 456 455 458
f 457 459 460
f 458 457 460
f 459 461 462
f 460 459 462
f 461 463 464
f 462 461 464
f 463 465 466
f 464 463 466
f 465 435 438
f 466 465 438
f 460 462 467
f 460 467 468
f 462 464 469
f 462 469 467
f 464 466 470
f 464 470 469
f 466 438 471
f 466 471 470
f 438 437 472
f 438 472 471
f 437 440 473
f 437 473 472
f 440 442 474
f 440 474 473
f 442 444 475
f 442 475 474
f 444 446 476
f 444 476 475
f 446 448 477
f 446 477 476
f 448 450 478
f 448 478 477
f 450 452 479
f 450 479 478
f 452 454 480
f 452 480 479
f 454 456 481
f 454 481 480
f 456 458 482
f 456 482 481
f 458 460 468
f 458 468 482
f 398 397 482
f 398 482 468
f 397 377 481
f 397 481 482
f 377 364 480
f 377 480 481
f 364 363 479
f 364 479 480
f 363 381 478
f 363 478 479
f 381 394 477
f 381 477 478
f 394 402 476
f 394 476 477
f 402 401 475
f 402 475 476
f 401 483 474
f 401 474 475
f 483 484 473
f 483 473 474
f 484 485 472
f 484 472 473
f 485 486 471
f 485 471 472
f 486 487 470
f 486 470 471
f 487 488 469
f 487 469 470
f 488 489 467
f 488 467 469
f 489 398 468
f 489 468 467
f 490 461 459
f 491 490 459
f 492 463 461
f 490 492 461
f 493 465 463
f 492 493 463
f 494 435 465
f 493 494 465
f 495 436 435
f 494 495 435
f 496 439 436
f 495 496 436
f 497 441 439
f 496 497 439
f 498 443 441
f 497 498 441
f 499 445 443
f 498 499 443
f 500 447 445
f 499 500 445
f 501 449 447
f 500 501 447
f 502 451 449
f 501 502 449
f 503 453 451
f 502 503 451
f 504 455 453
f 503 504 453
f 505 457 455
f 504 505 455
f 491 459 457
f 505 491 457
f 253 506 507
f 253 507 508
f 506 509 510
f 506 510 507
f 509 511 512
f 509 512 510
f 511 513 514
f 511 514 512
f 513 515 516
f 513 516 514
f 515 517 518
f 515 518 516
f 517 519 520
f 517 520 518
f 519 256 521
f 519 521 520
f 256 255 522
f 256 522 521
f 255 248 523
f 255 523 522
f 248 235 524
f 248 524 523
f 235 220 525
f 235 525 524
f 220 219 526
f 220 526 525
f 219 233 527
f 219 527 526
f 233 254 528
f 233 528 527
f 254 253 508
f 254 508 528
f 529 495 494
f 529 494 530
f 531 496 495
f 531 495 529
f 532 497 496
f 532 496 531
f 533 498 497
f 533 497 532
f 534 499 498
f 534 498 533
f 535 500 499
f 535 499 534
f 536 501 500
f 536 500 535
f 537 502 501
f 537 501 536
f 538 503 502
f 538 502 537
f 539 504 503
f 539 503 538
f 540 505 504
f 540 504 539
f 541 491 505
f 541 505 540
f 542 490 491
f 542 491 541
f 543 492 490
f 543 490 542
f 544 493 492
f 544 492 543
f 530 494 493
f 530 493 544
f 507 542 541
f 508 507 541
f 510 543 542
f 507 510 542
f 512 544 543
f 510 512 543
f 514 530 544
f 512 514 544
f 516 529 530
f 514 516 530
f 518 531 529
f 516 518 529
f 520 532 531
f 518 520 531
f 521 533 532
f 520 521 532
f 522 534 533
f 521 522 533
f 523 535 534
f 522 523 534
f 524 536 535
f 523 524 535
f 525 537 536
f 524 525 536
f 526 538 537
f 525 526 537
f 527 539 538
f 526 527 538
f 528 540 539
f 527 528 539
f 508 541 540
f 528 508 540
f 545 546 547
f 545 547 548
f 549 550 551
f 549 551 552
f 545 548 549
f 552 551 553
f 554 552 553
f 554 553 555
f 556 554 555
f 556 555 557
f 558 556 557
f 554 556 558
f 554 558 552
f 559 557 560
f 557 555 560
f 560 555 553
f 560 553 561
f 547 562 563
f 548 547 563
f 564 565 566
f 567 564 566
f 568 566 563
f 568 563 569
f 570 564 567
f 570 567 571
f 572 570 571
f 572 571 573
f 574 572 573
f 574 573 569
f 569 573 571
f 567 569 571
f 575 574 576
f 572 574 575
f 572 575 570
f 570 575 577
f 578 558 545
f 578 545 549
f 563 566 548
f 548 566 549
f 557 559 545
f 557 545 558
f 562 574 569
f 562 569 563
f 513 511 579
f 580 513 579
f 581 550 549
f 582 581 549
f 549 580 579
f 583 581 582
f 583 582 584
f 585 583 584
f 585 584 586
f 587 585 586
f 587 586 588
f 588 586 584
f 582 588 584
f 509 587 589
f 509 585 587
f 583 585 509
f 581 583 509
f 590 515 513
f 590 513 580
f 566 565 591
f 566 591 592
f 590 566 592
f 593 590 592
f 592 591 594
f 595 592 594
f 595 594 596
f 597 595 596
f 597 596 598
f 593 597 598
f 595 597 593
f 595 593 592
f 599 598 517
f 517 598 596
f 594 517 596
f 591 517 594
f 579 588 582
f 549 579 582
f 580 566 590
f 549 566 580
f 579 589 587
f 588 579 587
f 593 598 515
f 590 593 515
f 600 601 602
f 603 600 602
f 604 605 606
f 607 604 606
f 606 603 602
f 608 604 607
f 608 607 609
f 610 608 609
f 610 609 611
f 612 610 611
f 612 611 613
f 613 611 609
f 607 613 609
f 614 612 615
f 614 610 612
f 608 610 614
f 616 608 614
f 617 618 600
f 617 600 603
f 619 620 621
f 619 621 622
f 617 619 623
f 624 617 623
f 622 621 625
f 626 622 625
f 626 625 627
f 628 626 627
f 628 627 629
f 624 628 629
f 626 628 624
f 626 624 622
f 630 629 631
f 631 629 627
f 625 631 627
f 632 631 625
f 602 613 633
f 606 602 633
f 603 619 617
f 606 619 603
f 602 615 612
f 613 602 612
f 624 629 618
f 617 624 618
f 634 487 486
f 634 486 635
f 606 605 636
f 606 636 637
f 634 635 606
f 637 636 638
f 639 637 638
f 639 638 640
f 641 639 640
f 641 640 642
f 643 641 642
f 639 641 643
f 639 643 637
f 644 642 488
f 642 640 488
f 488 640 638
f 488 638 636
f 486 485 645
f 635 486 645
f 646 620 619
f 647 646 619
f 647 619 645
f 647 645 648
f 649 646 647
f 649 647 650
f 651 649 650
f 651 650 652
f 653 651 652
f 653 652 648
f 648 652 650
f 647 648 650
f 484 653 654
f 651 653 484
f 651 484 649
f 649 484 646
f 637 643 634
f 637 634 606
f 645 619 635
f 635 619 606
f 642 644 634
f 642 634 643
f 485 653 648
f 485 648 645
f 655 656 657
f 655 657 401
f 256 658 659
f 256 659 660
f 398 661 662
f 398 662 663
f 664 665 666
f 664 666 253
f 667 1 4
f 667 4 668
f 655 18 17
f 660 655 17
f 669 670 671
f 669 671 672
f 673 674 670
f 673 670 669
f 675 676 674
f 675 674 673
f 677 678 676
f 677 676 675
f 679 680 678
f 679 678 677
f 681 682 680
f 681 680 679
f 683 684 682
f 683 682 681
f 685 686 684
f 685 684 683
f 687 688 686
f 687 686 685
f 689 690 688
f 689 688 687
f 691 692 690
f 691 690 689
f 693 694 692
f 693 692 691
f 695 696 694
f 695 694 693
f 697 698 696
f 697 696 695
f 699 700 698
f 699 698 697
f 672 671 700
f 672 700 699
f 701 695 693
f 702 701 693
f 703 697 695
f 701 703 695
f 704 699 697
f 703 704 697
f 705 672 699
f 704 705 699
f 706 669 672
f 705 706 672
f 707 673 669
f 706 707 669
f 708 675 673
f 707 708 673
f 709 677 675
f 708 709 675
f 710 679 677
f 709 710 677
f 711 681 679
f 710 711 679
f 712 683 681
f 711 712 681
f 713 685 683
f 712 713 683
f 714 687 685
f 713 714 685
f 715 689 687
f 714 715 687
f 716 691 689
f 715 716 689
f 702 693 691
f 716 702 691
f 717 718 719
f 720 717 719
f 721 717 720
f 722 721 720
f 723 721 722
f 724 723 722
f 725 723 724
f 726 725 724
f 727 725 726
f 728 727 726
f 729 727 728
f 730 729 728
f 731 729 730
f 732 731 730
f 733 731 732
f 734 733 732
f 735 736 737
f 735 737 708
f 736 738 710
f 736 710 737
f 738 739 740
f 738 740 710
f 739 562 712
f 739 712 740
f 562 741 742
f 562 742 712
f 741 546 714
f 741 714 742
f 546 743 744
f 546 744 714
f 743 745 716
f 743 716 744
f 746 747 748
f 746 748 706
f 747 735 708
f 747 708 748
f 749 750 751
f 749 751 752
f 750 753 754
f 750 754 751
f 753 755 756
f 753 756 754
f 755 757 758
f 755 758 756
f 757 759 760
f 757 760 758
f 759 761 762
f 759 762 760
f 696 763 764
f 694 696 764
f 698 765 763
f 696 698 763
f 700 766 765
f 698 700 765
f 671 767 766
f 700 671 766
f 670 768 767
f 671 670 767
f 674 769 768
f 670 674 768
f 676 770 769
f 674 676 769
f 678 771 770
f 676 678 770
f 680 772 771
f 678 680 771
f 682 773 772
f 680 682 772
f 684 774 773
f 682 684 773
f 686 775 774
f 684 686 774
f 688 776 775
f 686 688 775
f 690 777 776
f 688 690 776
f 692 778 777
f 690 692 777
f 694 764 778
f 692 694 778
f 767 768 779
f 780 767 779
f 768 769 781
f 779 768 781
f 769 770 782
f 781 769 782
f 770 771 783
f 782 770 783
f 771 772 784
f 783 771 784
f 772 773 785
f 784 772 785
f 773 774 786
f 785 773 786
f 774 775 787
f 786 774 787
f 775 776 788
f 787 775 788
f 776 777 789
f 788 776 789
f 777 778 790
f 789 777 790
f 778 764 791
f 790 778 791
f 764 763 792
f 791 764 792
f 763 765 793
f 792 763 793
f 765 766 794
f 793 765 794
f 766 767 780
f 794 766 780
f 791 792 795
f 791 795 796
f 792 793 797
f 792 797 795
f 793 794 798
f 793 798 797
f 794 780 799
f 794 799 798
f 780 779 800
f 780 800 799
f 779 781 801
f 779 801 800
f 781 782 802
f 781 802 801
f 782 783 803
f 782 803 802
f 783 784 804
f 783 804 803
f 784 785 805
f 784 805 804
f 785 786 806
f 785 806 805
f 786 787 807
f 786 807 806
f 787 788 808
f 787 808 807
f 788 789 809
f 788 809 808
f 789 790 810
f 789 810 809
f 790 791 796
f 790 796 810
f 811 812 813
f 811 813 814
f 814 813 815
f 814 815 816
f 816 815 817
f 816 817 818
f 818 817 819
f 818 819 820
f 820 819 821
f 820 821 822
f 822 821 823
f 822 823 824
f 824 823 825
f 824 825 826
f 826 825 827
f 826 827 828
f 829 830 831
f 802 829 831
f 804 832 830
f 829 804 830
f 833 834 832
f 804 833 832
f 806 618 834
f 833 806 834
f 835 836 618
f 806 835 618
f 808 601 836
f 835 808 836
f 837 838 601
f 808 837 601
f 810 839 838
f 837 810 838
f 840 841 842
f 800 840 842
f 802 831 841
f 840 802 841
f 843 844 845
f 846 843 845
f 847 848 844
f 843 847 844
f 849 850 848
f 847 849 848
f 851 852 850
f 849 851 850
f 853 854 852
f 851 853 852
f 855 856 854
f 853 855 854
f 857 858 859
f 860 857 859
f 858 861 862
f 859 858 862
f 861 863 864
f 862 861 864
f 863 865 866
f 864 863 866
f 865 867 868
f 866 865 868
f 867 869 870
f 868 867 870
f 869 871 872
f 870 869 872
f 871 873 874
f 872 871 874
f 873 875 876
f 874 873 876
f 875 877 878
f 876 875 878
f 877 879 880
f 878 877 880
f 879 881 882
f 880 879 882
f 881 883 884
f 882 881 884
f 883 885 886
f 884 883 886
f 885 887 888
f 886 885 888
f 887 857 860
f 888 887 860
f 882 884 889
f 882 889 890
f 884 886 891
f 884 891 889
f 886 888 892
f 886 892 891
f 888 860 893
f 888 893 892
f 860 859 894
f 860 894 893
f 859 862 895
f 859 895 894
f 862 864 896
f 862 896 895
f 864 866 897
f 864 897 896
f 866 868 898
f 866 898 897
f 868 870 899
f 868 899 898
f 870 872 900
f 870 900 899
f 872 874 901
f 872 901 900
f 874 876 902
f 874 902 901
f 876 878 903
f 876 903 902
f 878 880 904
f 878 904 903
f 880 882 890
f 880 890 904
f 905 906 904
f 905 904 890
f 906 907 903
f 906 903 904
f 907 908 902
f 907 902 903
f 908 909 901
f 908 901 902
f 909 910 900
f 909 900 901
f 910 911 899
f 910 899 900
f 911 912 898
f 911 898 899
f 912 913 897
f 912 897 898
f 913 914 896
f 913 896 897
f 914 915 895
f 914 895 896
f 915 916 894
f 915 894 895
f 916 917 893
f 916 893 894
f 917 918 892
f 917 892 893
f 918 919 891
f 918 891 892
f 919 920 889
f 919 889 891
f 920 905 890
f 920 890 889
f 921 883 881
f 922 921 881
f 923 885 883
f 921 923 883
f 924 887 885
f 923 924 885
f 925 857 887
f 924 925 887
f 926 858 857
f 925 926 857
f 927 861 858
f 926 927 858
f 928 863 861
f 927 928 861
f 929 865 863
f 928 929 863
f 930 867 865
f 929 930 865
f 931 869 867
f 930 931 867
f 932 871 869
f 931 932 869
f 933 873 871
f 932 933 871
f 934 875 873
f 933 934 873
f 935 877 875
f 934 935 875
f 936 879 877
f 935 936 877
f 922 881 879
f 936 922 879
f 937 938 939
f 937 939 940
f 938 941 942
f 938 942 939
f 941 943 944
f 941 944 942
f 943 945 946
f 943 946 944
f 945 947 948
f 945 948 946
f 947 949 950
f 947 950 948
f 949 951 952
f 949 952 950
f 951 953 954
f 951 954 952
f 953 955 956
f 953 956 954
f 955 957 958
f 955 958 956
f 957 959 960
f 957 960 958
f 959 961 962
f 959 962 960
f 961 963 964
f 961 964 962
f 963 965 966
f 963 966 964
f 965 967 968
f 965 968 966
f 967 937 940
f 967 940 968
f 969 926 925
f 969 925 970
f 971 927 926
f 971 926 969
f 972 928 927
f 972 927 971
f 973 929 928
f 973 928 972
f 974 930 929
f 974 929 973
f 975 931 930
f 975 930 974
f 976 932 931
f 976 931 975
f 977 933 932
f 977 932 976
f 978 934 933
f 978 933 977
f 979 935 934
f 979 934 978
f 980 936 935
f 980 935 979
f 981 922 936
f 981 936 980
f 982 921 922
f 982 922 981
f 983 923 921
f 983 921 982
f 984 924 923
f 984 923 983
f 970 925 924
f 970 924 984
f 939 982 981
f 940 939 981
f 942 983 982
f 939 942 982
f 944 984 983
f 942 944 983
f 946 970 984
f 944 946 984
f 948 969 970
f 946 948 970
f 950 971 969
f 948 950 969
f 952 972 971
f 950 952 971
f 954 973 972
f 952 954 972
f 956 974 973
f 954 956 973
f 958 975 974
f 956 958 974
f 960 976 975
f 958 960 975
f 962 977 976
f 960 962 976
f 964 978 977
f 962 964 977
f 966 979 978
f 964 966 978
f 968 980 979
f 966 968 979
f 940 981 980
f 968 940 980
f 985 986 987
f 988 985 987
f 989 990 991
f 992 989 991
f 991 988 993
f 994 989 992
f 994 992 995
f 996 994 995
f 996 995 997
f 998 996 997
f 998 997 999
f 999 997 995
f 992 999 995
f 1000 998 986
f 1000 996 998
f 994 996 1000
f 989 994 1000
f 1001 1002 985
f 1001 985 988
f 1003 1004 1005
f 1003 1005 1006
f 1007 1003 1008
f 1009 1007 1008
f 1006 1005 1010
f 1011 1006 1010
f 1011 1010 1012
f 1013 1011 1012
f 1013 1012 1014
f 1015 1013 1014
f 1011 1013 1015
f 1011 1015 1006
f 1002 1016 1017
f 1017 1014 1012
f 1010 1017 1012
f 1018 1017 1010
f 993 999 992
f 991 993 992
f 988 1003 1001
f 991 1003 988
f 993 986 998
f 999 993 998
f 1015 1014 1002
f 1001 1015 1002
f 1019 963 961
f 1019 961 1020
f 991 990 1021
f 991 1021 1022
f 1023 1020 991
f 1022 1021 1024
f 1025 1022 1024
f 1025 1024 1026
f 1027 1025 1026
f 1027 1026 1028
f 1029 1027 1028
f 1025 1027 1029
f 1025 1029 1022
f 1030 1031 965
f 1028 1026 965
f 965 1026 1024
f 965 1024 1021
f 961 959 1032
f 1020 961 1032
f 1033 1004 1003
f 1034 1033 1003
f 1034 1003 1035
f 1034 1035 1036
f 1037 1033 1034
f 1037 1034 1038
f 1039 1037 1038
f 1039 1038 1040
f 1041 1039 1040
f 1041 1040 1036
f 1036 1040 1038
f 1034 1036 1038
f 957 1041 1042
f 1039 1041 957
f 1039 957 1037
f 1037 957 1033
f 1022 1043 1023
f 1022 1023 991
f 1032 1003 1020
f 1020 1003 991
f 1031 1030 1023
f 1031 1023 1043
f 959 1041 1036
f 959 1036 1032
f 1044 1045 1046
f 1044 1046 1047
f 1048 1049 1050
f 1048 1050 1051
f 1052 1047 1048
f 1051 1050 1053
f 1054 1051 1053
f 1054 1053 1055
f 1056 1054 1055
f 1056 1055 1057
f 1058 1056 1057
f 1054 1056 1058
f 1054 1058 1051
f 1045 1057 1059
f 1057 1055 1059
f 1059 1055 1053
f 1059 1053 1050
f 1046 1060 1061
f 1047 1046 1061
f 1062 1063 1064
f 1065 1062 1064
f 1066 1064 1067
f 1066 1067 1068
f 1069 1062 1065
f 1069 1065 1070
f 1071 1069 1070
f 1071 1070 1072
f 1073 1071 1072
f 1073 1072 1074
f 1074 1072 1070
f 1065 1074 1070
f 1075 1076 1060
f 1071 1073 1075
f 1071 1075 1069
f 1069 1075 1077
f 1051 1058 1052
f 1051 1052 1048
f 1061 1064 1047
f 1047 1064 1048
f 1057 1045 1052
f 1057 1052 1058
f 1060 1073 1074
f 1060 1074 1061
f 909 908 1078
f 1079 909 1078
f 1080 1049 1048
f 1081 1080 1048
f 1048 1079 1082
f 1083 1080 1081
f 1083 1081 1084
f 1085 1083 1084
f 1085 1084 1086
f 1087 1085 1086
f 1087 1086 1088
f 1088 1086 1084
f 1081 1088 1084
f 907 1089 1090
f 907 1085 1087
f 1083 1085 907
f 1080 1083 907
f 1091 910 909
f 1091 909 1079
f 1064 1063 1092
f 1064 1092 1093
f 1094 1064 1093
f 1095 1094 1093
f 1093 1092 1096
f 1097 1093 1096
f 1097 1096 1098
f 1099 1097 1098
f 1099 1098 1100
f 1095 1099 1100
f 1097 1099 1095
f 1097 1095 1093
f 1101 1100 911
f 911 1100 1098
f 1096 911 1098
f 1092 911 1096
f 1082 1102 1081
f 1048 1082 1081
f 1079 1064 1091
f 1048 1064 1079
f 1082 1090 1089
f 1102 1082 1089
f 1095 1100 910
f 1091 1095 910
f 1103 667 937
f 1103 937 1104
f 1103 1105 667
f 668 1106 1107
f 1108 1109 1110
f 1108 1110 953
f 668 1107 1111
f 668 1111 905
f 1112 1113 913
f 1112 913 1114
f 1115 1116 1117
f 1115 1117 1118
f 1116 1119 1120
f 1116 1120 1117
f 1119 1121 1122
f 1119 1122 1120
f 1121 1123 1124
f 1121 1124 1122
f 1123 1125 1126
f 1123 1126 1124
f 1125 1127 1128
f 1125 1128 1126
f 1127 1129 1130
f 1127 1130 1128
f 1129 1131 1132
f 1129 1132 1130
f 1131 1133 1134
f 1131 1134 1132
f 1133 1135 1136
f 1133 1136 1134
f 1135 1137 1138
f 1135 1138 1136
f 1137 1139 1140
f 1137 1140 1138
f 1139 1141 1142
f 1139 1142 1140
f 1141 1143 1144
f 1141 1144 1142
f 1143 1145 1146
f 1143 1146 1144
f 1145 1115 1118
f 1145 1118 1146
f 1147 947 945
f 1147 945 1148
f 1149 1150 1151
f 1149 1151 1152
f 1153 1148 1149
f 1152 1151 1154
f 1155 1152 1154
f 1155 1154 1156
f 1157 1155 1156
f 1157 1156 1158
f 1159 1157 1158
f 1155 1157 1159
f 1155 1159 1152
f 947 1160 949
f 1158 1156 949
f 949 1156 1154
f 949 1154 1161
f 945 943 1162
f 1148 945 1162
f 1163 1164 1165
f 1166 1163 1165
f 1166 1165 1167
f 1166 1167 1168
f 1169 1163 1166
f 1169 1166 1170
f 1171 1169 1170
f 1171 1170 1172
f 1173 1171 1172
f 1173 1172 1168
f 1168 1172 1170
f 1166 1168 1170
f 941 1173 943
f 1171 1173 941
f 1171 941 1169
f 1169 941 1163
f 1174 1175 1153
f 1174 1153 1149
f 1162 1165 1148
f 1148 1165 1149
f 1160 947 1153
f 1160 1153 1175
f 943 1173 1168
f 943 1168 1162
f 1176 953 951
f 1176 951 949
f 938 937 1177
f 941 938 1177
f 1176 949 1161
f 1176 1161 1150
f 1176 1150 1178
f 1177 1163 941
f 1177 1179 1164
f 1177 1164 1163
f 1123 1121 1180
f 1181 1123 1180
f 1182 1150 1149
f 1183 1182 1149
f 1149 1181 1184
f 1185 1182 1183
f 1185 1183 1186
f 1187 1185 1186
f 1187 1186 1188
f 1189 1187 1188
f 1189 1188 1190
f 1190 1188 1186
f 1183 1190 1186
f 1119 1189 1191
f 1119 1187 1189
f 1185 1187 1119
f 1182 1185 1119
f 1192 1125 1123
f 1192 1123 1181
f 1165 1164 1193
f 1165 1193 1194
f 1195 1165 1194
f 1196 1195 1194
f 1194 1193 1197
f 1198 1194 1197
f 1198 1197 1199
f 1200 1198 1199
f 1200 1199 1201
f 1202 1200 1201
f 1198 1200 1202
f 1198 1202 1194
f 1203 1204 1127
f 1127 1201 1199
f 1197 1127 1199
f 1193 1127 1197
f 1184 1190 1183
f 1149 1184 1183
f 1181 1165 1192
f 1149 1165 1181
f 1184 1191 1189
f 1190 1184 1189
f 1205 1206 1125
f 1192 1205 1125
f 1116 1115 1207
f 1119 1116 1207
f 1208 1131 1129
f 1208 1129 1127
f 1182 1119 1207
f 1150 1182 1207
f 1178 1150 1207
f 1127 1193 1208
f 1164 1179 1208
f 1193 1164 1208
f 1209 1210 1211
f 1209 1211 1212
f 1213 1214 1210
f 1213 1210 1209
f 1215 1216 1214
f 1215 1214 1213
f 1217 1218 1216
f 1217 1216 1215
f 1219 1220 1218
f 1219 1218 1217
f 1221 1222 1220
f 1221 1220 1219
f 1223 1224 1222
f 1223 1222 1221
f 1225 1226 1224
f 1225 1224 1223
f 1227 1228 1226
f 1227 1226 1225
f 1229 1230 1228
f 1229 1228 1227
f 1231 1232 1230
f 1231 1230 1229
f 1233 1234 1232
f 1233 1232 1231
f 1235 1236 1234
f 1235 1234 1233
f 1237 1238 1236
f 1237 1236 1235
f 1239 1240 1238
f 1239 1238 1237
f 1212 1211 1240
f 1212 1240 1239
f 1117 1235 1233
f 1118 1117 1233
f 1120 1237 1235
f 1117 1120 1235
f 1122 1239 1237
f 1120 1122 1237
f 1124 1212 1239
f 1122 1124 1239
f 1126 1209 1212
f 1124 1126 1212
f 1128 1213 1209
f 1126 1128 1209
f 1130 1215 1213
f 1128 1130 1213
f 1132 1217 1215
f 1130 1132 1215
f 1134 1219 1217
f 1132 1134 1217
f 1136 1221 1219
f 1134 1136 1219
f 1138 1223 1221
f 1136 1138 1221
f 1140 1225 1223
f 1138 1140 1223
f 1142 1227 1225
f 1140 1142 1225
f 1144 1229 1227
f 1142 1144 1227
f 1146 1231 1229
f 1144 1146 1229
f 1118 1233 1231
f 1146 1118 1231
f 1236 1241 1242
f 1234 1236 1242
f 1238 1243 1241
f 1236 1238 1241
f 1240 1244 1243
f 1238 1240 1243
f 1211 1245 1244
f 1240 1211 1244
f 1210 1246 1245
f 1211 1210 1245
f 1214 1247 1246
f 1210 1214 1246
f 1216 1248 1247
f 1214 1216 1247
f 1218 1249 1248
f 1216 1218 1248
f 1220 1250 1249
f 1218 1220 1249
f 1222 1251 1250
f 1220 1222 1250
f 1224 1252 1251
f 1222 1224 1251
f 1226 1253 1252
f 1224 1226 1252
f 1228 1254 1253
f 1226 1228 1253
f 1230 1255 1254
f 1228 1230 1254
f 1232 1256 1255
f 1230 1232 1255
f 1234 1242 1256
f 1232 1234 1256
f 1245 1246 1257
f 1258 1245 1257
f 1246 1247 1259
f 1257 1246 1259
f 1247 1248 1260
f 1259 1247 1260
f 1248 1249 1261
f 1260 1248 1261
f 1249 1250 1262
f 1261 1249 1262
f 1250 1251 1263
f 1262 1250 1263
f 1251 1252 1264
f 1263 1251 1264
f 1252 1253 1265
f 1264 1252 1265
f 1253 1254 1266
f 1265 1253 1266
f 1254 1255 1267
f 1266 1254 1267
f 1255 1256 1268
f 1267 1255 1268
f 1256 1242 1269
f 1268 1256 1269
f 1242 1241 1270
f 1269 1242 1270
f 1241 1243 1271
f 1270 1241 1271
f 1243 1244 1272
f 1271 1243 1272
f 1244 1245 1258
f 1272 1244 1258
f 1269 1270 1273
f 1269 1273 1274
f 1270 1271 1275
f 1270 1275 1273
f 1271 1272 1276
f 1271 1276 1275
f 1272 1258 1277
f 1272 1277 1276
f 1258 1257 1278
f 1258 1278 1277
f 1257 1259 1279
f 1257 1279 1278
f 1259 1260 1280
f 1259 1280 1279
f 1260 1261 1281
f 1260 1281 1280
f 1261 1262 1282
f 1261 1282 1281
f 1262 1263 1283
f 1262 1283 1282
f 1263 1264 1284
f 1263 1284 1283
f 1264 1265 1285
f 1264 1285 1284
f 1265 1266 1286
f 1265 1286 1285
f 1266 1267 1287
f 1266 1287 1286
f 1267 1268 1288
f 1267 1288 1287
f 1268 1269 1274
f 1268 1274 1288
f 917 916 1289
f 1290 917 1289
f 1291 1292 1293
f 1294 1291 1293
f 1293 1290 1295
f 1296 1291 1294
f 1296 1294 1297
f 1298 1296 1297
f 1298 1297 1299
f 1300 1298 1299
f 1300 1299 1301
f 1301 1299 1297
f 1294 1301 1297
f 915 1302 916
f 915 1298 1300
f 1296 1298 915
f 1303 1296 915
f 1304 918 917
f 1304 917 1290
f 1305 1306 1307
f 1305 1307 1308
f 1309 1305 1308
f 1310 1309 1308
f 1308 1307 1311
f 1312 1308 1311
f 1312 1311 1313
f 1314 1312 1313
f 1314 1313 1315
f 1310 1314 1315
f 1312 1314 1310
f 1312 1310 1308
f 918 1315 919
f 919 1315 1313
f 1311 919 1313
f 1307 919 1311
f 1295 1316 1317
f 1293 1295 1317
f 1290 1305 1304
f 1293 1305 1290
f 1295 916 1302
f 1316 1295 1302
f 1310 1315 918
f 1304 1310 918
f 914 913 1318
f 915 914 1318
f 1319 905 920
f 1319 920 919
f 1303 915 1318
f 1292 1303 1318
f 1320 1292 1318
f 919 1307 1319
f 1306 1321 1319
f 1307 1306 1319
f 1322 1323 1324
f 1322 1324 1325
f 1293 1292 1326
f 1293 1326 1327
f 1328 1325 1293
f 1327 1326 1329
f 1330 1327 1329
f 1330 1329 1331
f 1332 1330 1331
f 1332 1331 1333
f 1334 1332 1333
f 1330 1332 1334
f 1330 1334 1327
f 1335 1333 1336
f 1333 1331 1336
f 1336 1331 1329
f 1336 1329 1326
f 1324 1337 1338
f 1325 1324 1338
f 1339 1306 1305
f 1340 1339 1305
f 1340 1305 1341
f 1340 1341 1342
f 1343 1339 1340
f 1343 1340 1344
f 1345 1343 1344
f 1345 1344 1346
f 1347 1345 1346
f 1347 1346 1348
f 1348 1346 1344
f 1340 1348 1344
f 1349 1350 1351
f 1345 1347 1349
f 1345 1349 1343
f 1343 1349 1339
f 1327 1334 1328
f 1327 1328 1293
f 1338 1305 1325
f 1325 1305 1293
f 1333 1335 1328
f 1333 1328 1334
f 1337 1352 1353
f 1337 1353 1338
f 1354 1355 1356
f 1354 1356 1336
f 1357 1358 1359
f 1349 1357 1359
f 1354 1336 1326
f 1354 1326 1292
f 1354 1292 1320
f 1359 1339 1349
f 1359 1321 1306
f 1359 1306 1339
f 1273 1356 1355
f 1274 1273 1355
f 1275 1336 1356
f 1273 1275 1356
f 1276 1323 1336
f 1275 1276 1336
f 1277 1324 1323
f 1276 1277 1323
f 1278 1337 1324
f 1277 1278 1324
f 1279 1349 1337
f 1278 1279 1337
f 1280 1357 1349
f 1279 1280 1349
f 1281 1358 1357
f 1280 1281 1357
f 1282 1360 1358
f 1281 1282 1358
f 1283 1361 1360
f 1282 1283 1360
f 1284 1362 1361
f 1283 1284 1361
f 1285 1363 1362
f 1284 1285 1362
f 1286 1364 1363
f 1285 1286 1363
f 1287 1365 1364
f 1286 1287 1364
f 1288 1366 1365
f 1287 1288 1365
f 1274 1355 1366
f 1288 1274 1366
f 1367 1368 1369
f 1367 1369 1370
f 1371 1372 1368
f 1371 1368 1367
f 1373 1374 1372
f 1373 1372 1371
f 1375 1376 1374
f 1375 1374 1373
f 1377 1378 1376
f 1377 1376 1375
f 1379 1380 1378
f 1379 1378 1377
f 1381 1382 1380
f 1381 1380 1379
f 1383 1384 1382
f 1383 1382 1381
f 1385 1386 1387
f 1388 1389 1390
f 1391 1392 1393
f 1394 1395 1396
f 1397 1385 1387
f 1398 1399 1397
f 1387 1398 1397
f 1385 1397 1400
f 1401 1385 1400
f 1388 1390 1402
f 1403 1404 1402
f 1390 1403 1402
f 1402 1405 1406
f 1388 1402 1406
f 1393 1407 1408
f 1409 1393 1408
f 1409 1410 1393
f 1411 1412 1410
f 1409 1411 1410
f 1413 1394 1396
f 1413 1396 1414
f 1415 1413 1414
f 1394 1413 1416
f 1417 1394 1416
f 1418 1419 1420
f 1421 1422 1423
f 1424 1425 1426
f 1427 1428 1429
f 1430 1418 1420
f 1431 1432 1430
f 1420 1431 1430
f 1418 1430 1433
f 1434 1418 1433
f 1421 1435 1436
f 1437 1438 1436
f 1435 1437 1436
f 1436 1439 1440
f 1421 1436 1440
f 1426 1441 1442
f 1443 1426 1442
f 1443 1424 1426
f 1444 1445 1424
f 1443 1444 1424
f 1446 1427 1429
f 1446 1429 1447
f 1448 1446 1447
f 1427 1446 1449
f 1450 1427 1449
f 1451 1452 1450
f 1398 1451 1450
f 1441 1453 1454
f 1441 1454 1406
f 1454 1453 1440
f 1407 1454 1440
f 1437 1455 1456
f 1437 1456 1412
f 1456 1455 1434
f 1414 1456 1434
f 1431 1452 1451
f 1431 1451 1417
f 1398 1450 1449
f 1399 1398 1449
f 1397 1399 1449
f 1446 1397 1449
f 1400 1397 1446
f 1448 1400 1446
f 1401 1400 1448
f 1447 1401 1448
f 1403 1445 1444
f 1404 1403 1444
f 1402 1404 1444
f 1443 1402 1444
f 1405 1402 1443
f 1442 1405 1443
f 1406 1405 1442
f 1441 1406 1442
f 1408 1407 1440
f 1439 1408 1440
f 1409 1408 1439
f 1436 1409 1439
f 1411 1409 1436
f 1438 1411 1436
f 1412 1411 1438
f 1437 1412 1438
f 1415 1414 1434
f 1433 1415 1434
f 1413 1415 1433
f 1430 1413 1433
f 1416 1413 1430
f 1432 1416 1430
f 1417 1416 1432
f 1431 1417 1432
f 1457 1382 1384
f 1454 1457 1384
f 1392 1380 1382
f 1457 1392 1382
f 1410 1378 1380
f 1392 1410 1380
f 1456 1376 1378
f 1410 1456 1378
f 1458 1374 1376
f 1456 1458 1376
f 1395 1372 1374
f 1458 1395 1374
f 1459 1368 1372
f 1395 1459 1372
f 1451 1369 1368
f 1459 1451 1368
f 1383 1381 1460
f 1383 1460 1453
f 1381 1379 1461
f 1381 1461 1460
f 1379 1377 1435
f 1379 1435 1461
f 1377 1375 1455
f 1377 1455 1435
f 1375 1373 1462
f 1375 1462 1455
f 1373 1371 1419
f 1373 1419 1462
f 1371 1367 1463
f 1371 1463 1419
f 1367 1370 1452
f 1367 1452 1463
f 1464 1465 1466
f 1464 1466 1467
f 1468 1464 1467
f 1468 1467 1469
f 1470 1468 1469
f 1470 1469 1471
f 1135 1470 1137
f 1135 1468 1470
f 1464 1468 1135
f 1465 1464 1135
f 1362 1471 1361
f 1471 1469 1361
f 1361 1469 1467
f 1361 1467 1466
f 1139 1137 1362
f 1363 1139 1362
f 1364 1141 1139
f 1364 1139 1363
f 1472 1473 1474
f 1475 1472 1474
f 1475 1474 1476
f 1477 1475 1476
f 1477 1476 1478
f 1479 1477 1478
f 1141 1480 1143
f 1143 1478 1476
f 1474 1143 1476
f 1473 1143 1474
f 1365 1481 1364
f 1477 1479 1365
f 1477 1365 1475
f 1475 1365 1472
f 1465 1482 1483
f 1466 1465 1483
f 1484 1485 1473
f 1484 1473 1472
f 1483 1482 1486
f 1487 1483 1486
f 1487 1486 1488
f 1489 1487 1488
f 1489 1488 1490
f 1491 1489 1490
f 1486 1492 1488
f 1482 1492 1486
f 1487 1489 1493
f 1483 1487 1493
f 1451 1494 1495
f 1494 1496 1495
f 1496 1497 1495
f 1492 1498 1369
f 1369 1451 1495
f 1492 1369 1495
f 1488 1492 1495
f 1499 1488 1495
f 1499 1495 1497
f 1500 1499 1497
f 1501 1485 1484
f 1501 1484 1502
f 1503 1501 1502
f 1503 1502 1504
f 1505 1503 1504
f 1505 1504 1506
f 1501 1503 1507
f 1485 1501 1507
f 1502 1508 1504
f 1484 1508 1502
f 1509 1510 1452
f 1509 1511 1510
f 1509 1512 1511
f 1370 1513 1493
f 1509 1452 1370
f 1493 1509 1370
f 1509 1493 1489
f 1514 1509 1489
f 1512 1509 1514
f 1515 1512 1514
f 1516 1517 1454
f 1516 1389 1517
f 1516 1518 1389
f 1384 1519 1507
f 1516 1507 1503
f 1505 1516 1503
f 1518 1516 1505
f 1520 1518 1505
f 1453 1521 1522
f 1521 1425 1522
f 1425 1523 1522
f 1508 1524 1383
f 1383 1453 1522
f 1508 1383 1522
f 1506 1522 1523
f 1525 1506 1523
f 1384 1507 1516
f 1454 1384 1516
f 1506 1504 1508
f 1522 1506 1508
f 1525 1520 1505
f 1506 1525 1505
f 1403 1526 1527
f 1445 1403 1527
f 1528 1529 1401
f 1447 1528 1401
f 1518 1520 1526
f 1403 1518 1526
f 1525 1523 1445
f 1527 1525 1445
f 1526 1520 1525
f 1527 1526 1525
f 1401 1529 1500
f 1497 1401 1500
f 1500 1529 1528
f 1515 1500 1528
f 1528 1447 1512
f 1515 1528 1512
f 1499 1500 1515
f 1514 1499 1515
f 1530 1470 1471
f 1362 1530 1471
f 1479 1478 1141
f 1364 1479 1141
f 1531 1369 1498
f 1531 1498 1492
f 1133 1131 1532
f 1135 1133 1532
f 1533 1115 1145
f 1533 1145 1143
f 1519 1384 1534
f 1507 1519 1534
f 1531 1492 1482
f 1135 1532 1465
f 1143 1473 1533
f 1485 1507 1534
f 1534 1533 1473
f 1485 1534 1473
f 1531 1482 1465
f 1532 1531 1465
f 1513 1370 1535
f 1493 1513 1535
f 1536 1358 1360
f 1536 1360 1361
f 1366 1355 1537
f 1365 1366 1537
f 1538 1383 1524
f 1538 1524 1508
f 1535 1483 1493
f 1361 1466 1536
f 1365 1537 1472
f 1484 1538 1508
f 1472 1537 1538
f 1484 1472 1538
f 1466 1483 1535
f 1536 1466 1535
f 735 831 655
f 735 655 660
f 1539 1540 831
f 1539 831 735
f 1540 1539 1384
f 1540 1384 1383
f 667 668 1370
f 667 1370 1369
