# Botball Lab: metres, +Y up, centred XZ, base Y=0
s off
v -0.0014000 0.0028000 -0.0023204
v -0.0014000 0.0022816 -0.0022172
v -0.0040000 0.0022816 -0.0022172
v -0.0040000 0.0028000 -0.0023204
v -0.0014000 0.0022816 0.0022172
v -0.0014000 0.0028000 0.0023204
v -0.0040000 0.0028000 0.0023204
v -0.0040000 0.0022816 0.0022172
v -0.0014000 0.0036000 0.0023204
v -0.0014000 0.0041184 0.0022172
v -0.0040000 0.0041184 0.0022172
v -0.0040000 0.0036000 0.0023204
v -0.0014000 0.0041184 -0.0022172
v -0.0014000 0.0036000 -0.0023204
v -0.0040000 0.0036000 -0.0023204
v -0.0040000 0.0041184 -0.0022172
v -0.0040000 0.0022048 -0.0024020
v -0.0040000 0.0028000 -0.0025204
v -0.0040000 0.0028000 0.0025204
v -0.0040000 0.0022048 0.0024020
v -0.0040000 0.0041952 0.0024020
v -0.0040000 0.0036000 0.0025204
v -0.0040000 0.0036000 -0.0025204
v -0.0040000 0.0041952 -0.0024020
v -0.0048000 0.0022048 -0.0024020
v -0.0048000 0.0028000 -0.0025204
v -0.0048000 0.0028000 0.0025204
v -0.0048000 0.0022048 0.0024020
v -0.0048000 0.0041952 0.0024020
v -0.0048000 0.0036000 0.0025204
v -0.0048000 0.0036000 -0.0025204
v -0.0048000 0.0041952 -0.0024020
v -0.0018000 0.0028000 -0.0023204
v -0.0040000 0.0028000 -0.0015204
v -0.0018000 0.0028000 -0.0015204
v -0.0048000 0.0028000 -0.0015204
v -0.0048000 0.0025876 -0.0014784
v -0.0048000 0.0028000 0.0015204
v -0.0048000 0.0025876 0.0014784
v -0.0040000 0.0028000 0.0015204
v -0.0018000 0.0028000 0.0023204
v -0.0018000 0.0028000 0.0015204
v -0.0018000 0.0036000 0.0023204
v -0.0040000 0.0036000 0.0015204
v -0.0018000 0.0036000 0.0015204
v -0.0048000 0.0036000 0.0015204
v -0.0048000 0.0038124 0.0014784
v -0.0048000 0.0036000 -0.0015204
v -0.0048000 0.0038124 -0.0014784
v -0.0040000 0.0036000 -0.0015204
v -0.0018000 0.0036000 -0.0023204
v -0.0018000 0.0036000 -0.0015204
v -0.0014000 0.0025876 -0.0014784
v -0.0014000 0.0028000 -0.0015204
v -0.0014000 0.0028000 0.0015204
v -0.0014000 0.0025876 0.0014784
v -0.0014000 0.0038124 0.0014784
v -0.0014000 0.0036000 0.0015204
v -0.0014000 0.0036000 -0.0015204
v -0.0014000 0.0038124 -0.0014784
v 0.0024000 0.0032000 -0.0024000
v 0.0024000 0.0022815 -0.0022174
v -0.0014000 0.0022815 -0.0022174
v -0.0014000 0.0032000 -0.0024000
v 0.0024000 0.0015030 -0.0016970
v -0.0014000 0.0015030 -0.0016970
v 0.0024000 0.0009826 -0.0009185
v -0.0014000 0.0009826 -0.0009185
v 0.0024000 0.0008000 -0.0000000
v -0.0014000 0.0008000 -0.0000000
v 0.0024000 0.0009826 0.0009185
v -0.0014000 0.0009826 0.0009185
v 0.0024000 0.0015030 0.0016970
v -0.0014000 0.0015030 0.0016970
v 0.0024000 0.0022815 0.0022174
v -0.0014000 0.0022815 0.0022174
v 0.0024000 0.0032000 0.0024000
v -0.0014000 0.0032000 0.0024000
v 0.0024000 0.0041185 0.0022174
v -0.0014000 0.0041185 0.0022174
v 0.0024000 0.0048970 0.0016970
v -0.0014000 0.0048970 0.0016970
v 0.0024000 0.0054174 0.0009185
v -0.0014000 0.0054174 0.0009185
v 0.0024000 0.0056000 -0.0000000
v -0.0014000 0.0056000 -0.0000000
v 0.0024000 0.0054174 -0.0009185
v -0.0014000 0.0054174 -0.0009185
v 0.0024000 0.0048970 -0.0016970
v -0.0014000 0.0048970 -0.0016970
v 0.0024000 0.0041185 -0.0022174
v -0.0014000 0.0041185 -0.0022174
v -0.0014000 0.0048971 0.0016971
v -0.0040000 0.0048971 0.0016971
v -0.0040000 0.0041184 0.0022173
v -0.0014000 0.0041184 0.0022173
v -0.0014000 0.0054173 0.0009184
v -0.0040000 0.0054173 0.0009184
v -0.0014000 0.0056001 0.0000000
v -0.0040000 0.0056001 0.0000000
v -0.0014000 0.0054173 -0.0009184
v -0.0040000 0.0054173 -0.0009184
v -0.0014000 0.0048971 -0.0016971
v -0.0040000 0.0048971 -0.0016971
v -0.0014000 0.0041184 -0.0022173
v -0.0040000 0.0041184 -0.0022173
v -0.0014000 0.0015029 -0.0016971
v -0.0040000 0.0015029 -0.0016971
v -0.0040000 0.0022816 -0.0022173
v -0.0014000 0.0022816 -0.0022173
v -0.0014000 0.0009827 -0.0009184
v -0.0040000 0.0009827 -0.0009184
v -0.0014000 0.0007999 -0.0000000
v -0.0040000 0.0007999 -0.0000000
v -0.0014000 0.0009827 0.0009184
v -0.0040000 0.0009827 0.0009184
v -0.0014000 0.0015029 0.0016971
v -0.0040000 0.0015029 0.0016971
v -0.0014000 0.0022816 0.0022173
v -0.0040000 0.0022816 0.0022173
v -0.0040000 0.0013615 -0.0018385
v -0.0048000 0.0013615 -0.0018385
v -0.0048000 0.0022050 -0.0024021
v -0.0040000 0.0022050 -0.0024021
v -0.0040000 0.0007979 -0.0009950
v -0.0048000 0.0007979 -0.0009950
v -0.0040000 0.0005999 -0.0000000
v -0.0048000 0.0005999 -0.0000000
v -0.0040000 0.0007979 0.0009950
v -0.0048000 0.0007979 0.0009950
v -0.0040000 0.0013615 0.0018385
v -0.0048000 0.0013615 0.0018385
v -0.0040000 0.0022050 0.0024021
v -0.0048000 0.0022050 0.0024021
v -0.0040000 0.0050385 0.0018385
v -0.0048000 0.0050385 0.0018385
v -0.0048000 0.0041950 0.0024021
v -0.0040000 0.0041950 0.0024021
v -0.0040000 0.0056021 0.0009950
v -0.0048000 0.0056021 0.0009950
v -0.0040000 0.0058001 0.0000000
v -0.0048000 0.0058001 0.0000000
v -0.0040000 0.0056021 -0.0009950
v -0.0048000 0.0056021 -0.0009950
v -0.0040000 0.0050385 -0.0018385
v -0.0048000 0.0050385 -0.0018385
v -0.0040000 0.0041950 -0.0024021
v -0.0048000 0.0041950 -0.0024021
v 0.0032000 0.0032000 -0.0032000
v 0.0032000 0.0019754 -0.0029565
v 0.0024000 0.0019754 -0.0029565
v 0.0024000 0.0032000 -0.0032000
v 0.0032000 0.0009373 -0.0022627
v 0.0024000 0.0009373 -0.0022627
v 0.0032000 0.0002435 -0.0012246
v 0.0024000 0.0002435 -0.0012246
v 0.0032000 0.0000000 -0.0000000
v 0.0024000 0.0000000 -0.0000000
v 0.0032000 0.0002435 0.0012246
v 0.0024000 0.0002435 0.0012246
v 0.0032000 0.0009373 0.0022627
v 0.0024000 0.0009373 0.0022627
v 0.0032000 0.0019754 0.0029565
v 0.0024000 0.0019754 0.0029565
v 0.0032000 0.0032000 0.0032000
v 0.0024000 0.0032000 0.0032000
v 0.0032000 0.0044246 0.0029565
v 0.0024000 0.0044246 0.0029565
v 0.0032000 0.0054627 0.0022627
v 0.0024000 0.0054627 0.0022627
v 0.0032000 0.0061565 0.0012246
v 0.0024000 0.0061565 0.0012246
v 0.0032000 0.0064000 -0.0000000
v 0.0024000 0.0064000 -0.0000000
v 0.0032000 0.0061565 -0.0012246
v 0.0024000 0.0061565 -0.0012246
v 0.0032000 0.0054627 -0.0022627
v 0.0024000 0.0054627 -0.0022627
v 0.0032000 0.0044246 -0.0029565
v 0.0024000 0.0044246 -0.0029565
v -0.0014000 0.0025877 -0.0014782
v 0.0032000 0.0025877 -0.0014782
v 0.0032000 0.0032000 -0.0016000
v -0.0014000 0.0032000 -0.0016000
v -0.0014000 0.0020686 -0.0011314
v 0.0032000 0.0020686 -0.0011314
v -0.0014000 0.0017218 -0.0006123
v 0.0032000 0.0017218 -0.0006123
v -0.0014000 0.0016000 -0.0000000
v 0.0032000 0.0016000 -0.0000000
v -0.0014000 0.0017218 0.0006123
v 0.0032000 0.0017218 0.0006123
v -0.0014000 0.0020686 0.0011314
v 0.0032000 0.0020686 0.0011314
v -0.0014000 0.0025877 0.0014782
v 0.0032000 0.0025877 0.0014782
v -0.0014000 0.0032000 0.0016000
v 0.0032000 0.0032000 0.0016000
v -0.0014000 0.0038123 0.0014782
v 0.0032000 0.0038123 0.0014782
v -0.0014000 0.0043314 0.0011314
v 0.0032000 0.0043314 0.0011314
v -0.0014000 0.0046782 0.0006123
v 0.0032000 0.0046782 0.0006123
v -0.0014000 0.0048000 -0.0000000
v 0.0032000 0.0048000 -0.0000000
v -0.0014000 0.0046782 -0.0006123
v 0.0032000 0.0046782 -0.0006123
v -0.0014000 0.0043314 -0.0011314
v 0.0032000 0.0043314 -0.0011314
v -0.0014000 0.0038123 -0.0014782
v 0.0032000 0.0038123 -0.0014782
v -0.0048000 0.0025877 -0.0014782
v -0.0048000 0.0020686 -0.0011314
v -0.0048000 0.0017218 -0.0006123
v -0.0048000 0.0016000 -0.0000000
v -0.0048000 0.0017218 0.0006123
v -0.0048000 0.0020686 0.0011314
v -0.0048000 0.0025877 0.0014782
v -0.0048000 0.0038123 0.0014782
v -0.0048000 0.0043314 0.0011314
v -0.0048000 0.0046782 0.0006123
v -0.0048000 0.0048000 0.0000000
v -0.0048000 0.0046782 -0.0006123
v -0.0048000 0.0043314 -0.0011314
v -0.0048000 0.0038123 -0.0014782
v -0.0048000 0.0022816 -0.0022173
v -0.0048000 0.0015029 -0.0016971
v -0.0048000 0.0009827 -0.0009184
v -0.0048000 0.0007999 -0.0000000
v -0.0048000 0.0009827 0.0009184
v -0.0048000 0.0015029 0.0016971
v -0.0048000 0.0022816 0.0022173
v -0.0048000 0.0041184 0.0022173
v -0.0048000 0.0048971 0.0016971
v -0.0048000 0.0054173 0.0009184
v -0.0048000 0.0056001 0.0000000
v -0.0048000 0.0054173 -0.0009184
v -0.0048000 0.0048971 -0.0016971
v -0.0048000 0.0041184 -0.0022173
v -0.0014304 0.0030469 0.0023695
v -0.0015172 0.0029172 0.0023437
v -0.0016469 0.0028304 0.0023265
v -0.0014304 0.0033531 0.0023695
v -0.0015172 0.0034828 0.0023437
v -0.0016469 0.0035696 0.0023265
v -0.0014304 0.0033531 -0.0023695
v -0.0015172 0.0034828 -0.0023437
v -0.0016469 0.0035696 -0.0023265
v -0.0014304 0.0030469 -0.0023695
v -0.0015172 0.0029172 -0.0023437
v -0.0016469 0.0028304 -0.0023265
v -0.0014304 0.0030469 0.0015695
v -0.0015172 0.0029172 0.0015437
v -0.0016469 0.0028304 0.0015265
v -0.0014304 0.0033531 0.0015695
v -0.0015172 0.0034828 0.0015437
v -0.0016469 0.0035696 0.0015265
v -0.0014304 0.0033531 -0.0015695
v -0.0015172 0.0034828 -0.0015437
v -0.0016469 0.0035696 -0.0015265
v -0.0014304 0.0030469 -0.0015695
v -0.0015172 0.0029172 -0.0015437
v -0.0016469 0.0028304 -0.0015265
v 0.0048000 0.0025877 -0.0014782
v 0.0048000 0.0032000 -0.0016000
v 0.0048000 0.0020686 -0.0011314
v 0.0048000 0.0017218 -0.0006123
v 0.0048000 0.0016000 -0.0000000
v 0.0048000 0.0017218 0.0006123
v 0.0048000 0.0020686 0.0011314
v 0.0048000 0.0025877 0.0014782
v 0.0048000 0.0032000 0.0016000
v 0.0048000 0.0038123 0.0014782
v 0.0048000 0.0043314 0.0011314
v 0.0048000 0.0046782 0.0006123
v 0.0048000 0.0048000 -0.0000000
v 0.0048000 0.0046782 -0.0006123
v 0.0048000 0.0043314 -0.0011314
v 0.0048000 0.0038123 -0.0014782
v 0.0048000 0.0022815 -0.0022174
v 0.0032000 0.0022815 -0.0022174
v 0.0032000 0.0032000 -0.0024000
v 0.0048000 0.0032000 -0.0024000
v 0.0048000 0.0015030 -0.0016970
v 0.0032000 0.0015030 -0.0016970
v 0.0048000 0.0009826 -0.0009185
v 0.0032000 0.0009826 -0.0009185
v 0.0048000 0.0008000 -0.0000000
v 0.0032000 0.0008000 -0.0000000
v 0.0048000 0.0009826 0.0009185
v 0.0032000 0.0009826 0.0009185
v 0.0048000 0.0015030 0.0016970
v 0.0032000 0.0015030 0.0016970
v 0.0048000 0.0022815 0.0022174
v 0.0032000 0.0022815 0.0022174
v 0.0048000 0.0032000 0.0024000
v 0.0032000 0.0032000 0.0024000
v 0.0048000 0.0041185 0.0022174
v 0.0032000 0.0041185 0.0022174
v 0.0048000 0.0048970 0.0016970
v 0.0032000 0.0048970 0.0016970
v 0.0048000 0.0054174 0.0009185
v 0.0032000 0.0054174 0.0009185
v 0.0048000 0.0056000 -0.0000000
v 0.0032000 0.0056000 -0.0000000
v 0.0048000 0.0054174 -0.0009185
v 0.0032000 0.0054174 -0.0009185
v 0.0048000 0.0048970 -0.0016970
v 0.0032000 0.0048970 -0.0016970
v 0.0048000 0.0041185 -0.0022174
v 0.0032000 0.0041185 -0.0022174
f 1 2 3
f 1 3 4
f 5 6 7
f 5 7 8
f 9 10 11
f 9 11 12
f 13 14 15
f 13 15 16
f 4 3 17
f 4 17 18
f 8 7 19
f 8 19 20
f 12 11 21
f 12 21 22
f 16 15 23
f 16 23 24
f 18 17 25
f 18 25 26
f 20 19 27
f 20 27 28
f 22 21 29
f 22 29 30
f 24 23 31
f 24 31 32
f 33 4 34
f 33 34 35
f 34 18 26
f 34 26 36
f 26 25 37
f 26 37 36
f 28 27 38
f 28 38 39
f 38 27 19
f 38 19 40
f 40 7 41
f 40 41 42
f 43 12 44
f 43 44 45
f 22 30 46
f 22 46 44
f 30 29 47
f 30 47 46
f 32 31 48
f 32 48 49
f 31 23 50
f 31 50 48
f 50 15 51
f 50 51 52
f 36 37 53
f 36 53 54
f 39 38 55
f 39 55 56
f 46 47 57
f 46 57 58
f 49 48 59
f 49 59 60
f 61 62 63
f 61 63 64
f 62 65 66
f 62 66 63
f 65 67 68
f 65 68 66
f 67 69 70
f 67 70 68
f 69 71 72
f 69 72 70
f 71 73 74
f 71 74 72
f 73 75 76
f 73 76 74
f 75 77 78
f 75 78 76
f 77 79 80
f 77 80 78
f 79 81 82
f 79 82 80
f 81 83 84
f 81 84 82
f 83 85 86
f 83 86 84
f 85 87 88
f 85 88 86
f 87 89 90
f 87 90 88
f 89 91 92
f 89 92 90
f 91 61 64
f 91 64 92
f 93 94 95
f 93 95 96
f 97 98 94
f 97 94 93
f 99 100 98
f 99 98 97
f 101 102 100
f 101 100 99
f 103 104 102
f 103 102 101
f 105 106 104
f 105 104 103
f 107 108 109
f 107 109 110
f 111 112 108
f 111 108 107
f 113 114 112
f 113 112 111
f 115 116 114
f 115 114 113
f 117 118 116
f 117 116 115
f 119 120 118
f 119 118 117
f 121 122 123
f 121 123 124
f 125 126 122
f 125 122 121
f 127 128 126
f 127 126 125
f 129 130 128
f 129 128 127
f 131 132 130
f 131 130 129
f 133 134 132
f 133 132 131
f 135 136 137
f 135 137 138
f 139 140 136
f 139 136 135
f 141 142 140
f 141 140 139
f 143 144 142
f 143 142 141
f 145 146 144
f 145 144 143
f 147 148 146
f 147 146 145
f 149 150 151
f 149 151 152
f 150 153 154
f 150 154 151
f 153 155 156
f 153 156 154
f 155 157 158
f 155 158 156
f 157 159 160
f 157 160 158
f 159 161 162
f 159 162 160
f 161 163 164
f 161 164 162
f 163 165 166
f 163 166 164
f 165 167 168
f 165 168 166
f 167 169 170
f 167 170 168
f 169 171 172
f 169 172 170
f 171 173 174
f 171 174 172
f 173 175 176
f 173 176 174
f 175 177 178
f 175 178 176
f 177 179 180
f 177 180 178
f 179 149 152
f 179 152 180
f 181 182 183
f 184 181 183
f 185 186 182
f 181 185 182
f 187 188 186
f 185 187 186
f 189 190 188
f 187 189 188
f 191 192 190
f 189 191 190
f 193 194 192
f 191 193 192
f 195 196 194
f 193 195 194
f 197 198 196
f 195 197 196
f 199 200 198
f 197 199 198
f 201 202 200
f 199 201 200
f 203 204 202
f 201 203 202
f 205 206 204
f 203 205 204
f 207 208 206
f 205 207 206
f 209 210 208
f 207 209 208
f 211 212 210
f 209 211 210
f 184 183 212
f 211 184 212
f 213 214 185
f 181 213 185
f 214 215 187
f 185 214 187
f 215 216 189
f 187 215 189
f 216 217 191
f 189 216 191
f 217 218 193
f 191 217 193
f 218 219 195
f 193 218 195
f 220 221 201
f 199 220 201
f 221 222 203
f 201 221 203
f 222 223 205
f 203 222 205
f 223 224 207
f 205 223 207
f 224 225 209
f 207 224 209
f 225 226 211
f 209 225 211
f 160 71 69
f 160 69 158
f 162 73 71
f 162 71 160
f 164 75 73
f 164 73 162
f 166 77 75
f 166 75 164
f 168 79 77
f 168 77 166
f 170 81 79
f 170 79 168
f 172 83 81
f 172 81 170
f 174 85 83
f 174 83 172
f 176 87 85
f 176 85 174
f 178 89 87
f 178 87 176
f 180 91 89
f 180 89 178
f 152 61 91
f 152 91 180
f 151 62 61
f 151 61 152
f 154 65 62
f 154 62 151
f 156 67 65
f 156 65 154
f 158 69 67
f 158 67 156
f 227 228 214
f 227 214 213
f 228 229 215
f 228 215 214
f 229 230 216
f 229 216 215
f 230 231 217
f 230 217 216
f 231 232 218
f 231 218 217
f 232 233 219
f 232 219 218
f 234 235 221
f 234 221 220
f 235 236 222
f 235 222 221
f 236 237 223
f 236 223 222
f 237 238 224
f 237 224 223
f 238 239 225
f 238 225 224
f 239 240 226
f 239 226 225
f 108 121 124
f 109 108 124
f 112 125 121
f 108 112 121
f 114 127 125
f 112 114 125
f 116 129 127
f 114 116 127
f 118 131 129
f 116 118 129
f 120 133 131
f 118 120 131
f 94 135 138
f 95 94 138
f 98 139 135
f 94 98 135
f 100 141 139
f 98 100 139
f 102 143 141
f 100 102 141
f 104 145 143
f 102 104 143
f 106 147 145
f 104 106 145
f 123 122 228
f 123 228 227
f 122 126 229
f 122 229 228
f 126 128 230
f 126 230 229
f 128 130 231
f 128 231 230
f 130 132 232
f 130 232 231
f 132 134 233
f 132 233 232
f 137 136 235
f 137 235 234
f 136 140 236
f 136 236 235
f 140 142 237
f 140 237 236
f 142 144 238
f 142 238 237
f 144 146 239
f 144 239 238
f 146 148 240
f 146 240 239
f 6 78 241
f 6 241 242
f 6 242 243
f 6 243 41
f 244 78 9
f 245 244 9
f 246 245 9
f 43 246 9
f 14 64 247
f 14 247 248
f 14 248 249
f 14 249 51
f 250 64 1
f 251 250 1
f 252 251 1
f 33 252 1
f 253 197 55
f 254 253 55
f 255 254 55
f 42 255 55
f 58 197 256
f 58 256 257
f 58 257 258
f 58 258 45
f 259 184 59
f 260 259 59
f 261 260 59
f 52 261 59
f 54 184 262
f 54 262 263
f 54 263 264
f 54 264 35
f 197 253 241
f 197 241 78
f 253 254 242
f 253 242 241
f 254 255 243
f 254 243 242
f 255 42 41
f 255 41 243
f 244 256 197
f 78 244 197
f 245 257 256
f 244 245 256
f 246 258 257
f 245 246 257
f 43 45 258
f 246 43 258
f 184 259 247
f 184 247 64
f 259 260 248
f 259 248 247
f 260 261 249
f 260 249 248
f 261 52 51
f 261 51 249
f 250 262 184
f 64 250 184
f 251 263 262
f 250 251 262
f 252 264 263
f 251 252 263
f 33 35 264
f 252 33 264
f 183 182 265
f 183 265 266
f 182 186 267
f 182 267 265
f 186 188 268
f 186 268 267
f 188 190 269
f 188 269 268
f 190 192 270
f 190 270 269
f 192 194 271
f 192 271 270
f 194 196 272
f 194 272 271
f 196 198 273
f 196 273 272
f 198 200 274
f 198 274 273
f 200 202 275
f 200 275 274
f 202 204 276
f 202 276 275
f 204 206 277
f 204 277 276
f 206 208 278
f 206 278 277
f 208 210 279
f 208 279 278
f 210 212 280
f 210 280 279
f 212 183 266
f 212 266 280
f 281 282 283
f 284 281 283
f 285 286 282
f 281 285 282
f 287 288 286
f 285 287 286
f 289 290 288
f 287 289 288
f 291 292 290
f 289 291 290
f 293 294 292
f 291 293 292
f 295 296 294
f 293 295 294
f 297 298 296
f 295 297 296
f 299 300 298
f 297 299 298
f 301 302 300
f 299 301 300
f 303 304 302
f 301 303 302
f 305 306 304
f 303 305 304
f 307 308 306
f 305 307 306
f 309 310 308
f 307 309 308
f 311 312 310
f 309 311 310
f 284 283 312
f 311 284 312
f 269 270 291
f 289 269 291
f 270 271 293
f 291 270 293
f 271 272 295
f 293 271 295
f 272 273 297
f 295 272 297
f 273 274 299
f 297 273 299
f 274 275 301
f 299 274 301
f 275 276 303
f 301 275 303
f 276 277 305
f 303 276 305
f 277 278 307
f 305 277 307
f 278 279 309
f 307 278 309
f 279 280 311
f 309 279 311
f 280 266 284
f 311 280 284
f 266 265 281
f 284 266 281
f 265 267 285
f 281 265 285
f 267 268 287
f 285 267 287
f 268 269 289
f 287 268 289
f 290 292 159
f 157 290 159
f 292 294 161
f 159 292 161
f 294 296 163
f 161 294 163
f 296 298 165
f 163 296 165
f 298 300 167
f 165 298 167
f 300 302 169
f 167 300 169
f 302 304 171
f 169 302 171
f 304 306 173
f 171 304 173
f 306 308 175
f 173 306 175
f 308 310 177
f 175 308 177
f 310 312 179
f 177 310 179
f 312 283 149
f 179 312 149
f 283 282 150
f 149 283 150
f 282 286 153
f 150 282 153
f 286 288 155
f 153 286 155
f 288 290 157
f 155 288 157
