# Botball Lab: metres, +Y up, centred XZ, base Y=0
s off
v 0.0040000 0.0218173 0.0009184
v 0.0040000 0.0212971 0.0016971
v 0.0040000 0.0205184 0.0022173
v 0.0040000 0.0186816 0.0022173
v 0.0040000 0.0179029 0.0016971
v 0.0040000 0.0173827 0.0009184
v 0.0040000 0.0173827 -0.0009184
v 0.0040000 0.0179029 -0.0016971
v 0.0040000 0.0186816 -0.0022173
v 0.0040000 0.0205184 -0.0022173
v 0.0040000 0.0212971 -0.0016971
v 0.0040000 0.0218173 -0.0009184
v 0.0040000 0.0206000 0.0010000
v 0.0040000 0.0212000 0.0008000
v 0.0040000 0.0218409 0.0008000
v 0.0040000 0.0204000 0.0016000
v 0.0040000 0.0204000 0.0022409
v 0.0040000 0.0186000 0.0010000
v 0.0040000 0.0188000 0.0016000
v 0.0040000 0.0188000 0.0022409
v 0.0040000 0.0173591 0.0008000
v 0.0040000 0.0180000 0.0008000
v 0.0040000 0.0180000 -0.0008000
v 0.0040000 0.0173591 -0.0008000
v 0.0040000 0.0186000 -0.0010000
v 0.0040000 0.0188000 -0.0022409
v 0.0040000 0.0188000 -0.0016000
v 0.0040000 0.0206000 -0.0010000
v 0.0040000 0.0204000 -0.0022409
v 0.0040000 0.0204000 -0.0016000
v 0.0040000 0.0212000 -0.0008000
v 0.0040000 0.0218409 -0.0008000
v -0.0040000 0.0218173 -0.0009184
v -0.0040000 0.0212971 -0.0016971
v -0.0040000 0.0205184 -0.0022173
v -0.0040000 0.0186816 -0.0022173
v -0.0040000 0.0179029 -0.0016971
v -0.0040000 0.0173827 -0.0009184
v -0.0040000 0.0173827 0.0009184
v -0.0040000 0.0179029 0.0016971
v -0.0040000 0.0186816 0.0022173
v -0.0040000 0.0205184 0.0022173
v -0.0040000 0.0212971 0.0016971
v -0.0040000 0.0218173 0.0009184
v -0.0040000 0.0206000 -0.0010000
v -0.0040000 0.0212000 -0.0008000
v -0.0040000 0.0218409 -0.0008000
v -0.0040000 0.0204000 -0.0016000
v -0.0040000 0.0204000 -0.0022409
v -0.0040000 0.0186000 -0.0010000
v -0.0040000 0.0188000 -0.0016000
v -0.0040000 0.0188000 -0.0022409
v -0.0040000 0.0173591 -0.0008000
v -0.0040000 0.0180000 -0.0008000
v -0.0040000 0.0180000 0.0008000
v -0.0040000 0.0173591 0.0008000
v -0.0040000 0.0186000 0.0010000
v -0.0040000 0.0188000 0.0022409
v -0.0040000 0.0188000 0.0016000
v -0.0040000 0.0206000 0.0010000
v -0.0040000 0.0204000 0.0022409
v -0.0040000 0.0204000 0.0016000
v -0.0040000 0.0212000 0.0008000
v -0.0040000 0.0218409 0.0008000
v -0.0040000 0.0220000 -0.0000000
v 0.0040000 0.0220000 -0.0000000
v 0.0040000 0.0172000 -0.0000000
v -0.0040000 0.0172000 -0.0000000
v 0.0018828 0.0198828 0.0023437
v 0.0020000 0.0196000 0.0024000
v 0.0020000 0.0196000 0.0028000
v 0.0018828 0.0198828 0.0027437
v 0.0016000 0.0200000 0.0023204
v 0.0016000 0.0200000 0.0027204
v 0.0018828 0.0193172 0.0023437
v 0.0018828 0.0193172 0.0027437
v 0.0016000 0.0192000 0.0023204
v 0.0016000 0.0192000 0.0027204
v -0.0018828 0.0193172 0.0023437
v -0.0020000 0.0196000 0.0024000
v -0.0020000 0.0196000 0.0028000
v -0.0018828 0.0193172 0.0027437
v -0.0016000 0.0192000 0.0023204
v -0.0016000 0.0192000 0.0027204
v -0.0018828 0.0198828 0.0023437
v -0.0018828 0.0198828 0.0027437
v -0.0016000 0.0200000 0.0023204
v -0.0016000 0.0200000 0.0027204
v 0.0018828 0.0193172 -0.0023437
v 0.0020000 0.0196000 -0.0024000
v 0.0020000 0.0196000 -0.0028000
v 0.0018828 0.0193172 -0.0027437
v 0.0016000 0.0192000 -0.0023204
v 0.0016000 0.0192000 -0.0027204
v 0.0018828 0.0198828 -0.0023437
v 0.0018828 0.0198828 -0.0027437
v 0.0016000 0.0200000 -0.0023204
v 0.0016000 0.0200000 -0.0027204
v -0.0018828 0.0198828 -0.0023437
v -0.0020000 0.0196000 -0.0024000
v -0.0020000 0.0196000 -0.0028000
v -0.0018828 0.0198828 -0.0027437
v -0.0016000 0.0200000 -0.0023204
v -0.0016000 0.0200000 -0.0027204
v -0.0018828 0.0193172 -0.0023437
v -0.0018828 0.0193172 -0.0027437
v -0.0016000 0.0192000 -0.0023204
v -0.0016000 0.0192000 -0.0027204
v 0.0020000 0.0200000 0.0023204
v 0.0020000 0.0192000 0.0023204
v -0.0020000 0.0192000 0.0023204
v -0.0020000 0.0200000 0.0023204
v 0.0020000 0.0192000 -0.0023204
v 0.0020000 0.0200000 -0.0023204
v -0.0020000 0.0200000 -0.0023204
v -0.0020000 0.0192000 -0.0023204
v 0.0040000 0.0204000 0.0022408
v 0.0040000 0.0196000 0.0024000
v -0.0040000 0.0196000 0.0024000
v -0.0040000 0.0204000 0.0022408
v 0.0040000 0.0188000 0.0022408
v -0.0040000 0.0188000 0.0022408
v 0.0040000 0.0196000 -0.0024000
v 0.0040000 0.0204000 -0.0022408
v -0.0040000 0.0204000 -0.0022408
v -0.0040000 0.0196000 -0.0024000
v 0.0040000 0.0188000 -0.0022408
v -0.0040000 0.0188000 -0.0022408
v 0.0020000 0.0200000 0.0027204
v 0.0020000 0.0192000 0.0027204
v -0.0020000 0.0192000 0.0027204
v -0.0020000 0.0200000 0.0027204
v 0.0020000 0.0192000 -0.0027204
v 0.0020000 0.0200000 -0.0027204
v -0.0020000 0.0200000 -0.0027204
v -0.0020000 0.0192000 -0.0027204
v -0.0024000 0.0185285 0.0025869
v -0.0024000 0.0176200 0.0019799
v 0.0024000 0.0176200 0.0019799
v 0.0024000 0.0185285 0.0025869
v -0.0024000 0.0170132 0.0010715
v 0.0024000 0.0170132 0.0010715
v -0.0024000 0.0167999 0.0000000
v 0.0024000 0.0167999 0.0000000
v -0.0024000 0.0170131 -0.0010715
v 0.0024000 0.0170131 -0.0010715
v -0.0024000 0.0176201 -0.0019800
v 0.0024000 0.0176201 -0.0019800
v -0.0024000 0.0185285 -0.0025868
v 0.0024000 0.0185285 -0.0025868
v 0.0024000 0.0215800 0.0019799
v -0.0024000 0.0215800 0.0019799
v -0.0024000 0.0206715 0.0025869
v 0.0024000 0.0206715 0.0025869
v 0.0024000 0.0221868 0.0010715
v -0.0024000 0.0221868 0.0010715
v 0.0024000 0.0224001 0.0000000
v -0.0024000 0.0224001 0.0000000
v 0.0024000 0.0221869 -0.0010715
v -0.0024000 0.0221869 -0.0010715
v 0.0024000 0.0215799 -0.0019800
v -0.0024000 0.0215799 -0.0019800
v 0.0024000 0.0206715 -0.0025868
v -0.0024000 0.0206715 -0.0025868
v -0.0024000 0.0206716 0.0025869
v 0.0024000 0.0206716 0.0025869
v 0.0024000 0.0185284 0.0025869
v -0.0024000 0.0185284 0.0025869
v 0.0024000 0.0196000 0.0028000
v -0.0024000 0.0196000 0.0028000
v 0.0024000 0.0206716 -0.0025869
v -0.0024000 0.0206716 -0.0025869
v -0.0024000 0.0185284 -0.0025869
v 0.0024000 0.0185284 -0.0025869
v 0.0024000 0.0196000 -0.0028000
v -0.0024000 0.0196000 -0.0028000
v 0.0040000 0.0058173 0.0009184
v 0.0040000 0.0052971 0.0016971
v 0.0040000 0.0045184 0.0022173
v 0.0040000 0.0026816 0.0022173
v 0.0040000 0.0019029 0.0016971
v 0.0040000 0.0013827 0.0009184
v 0.0040000 0.0013827 -0.0009184
v 0.0040000 0.0019029 -0.0016971
v 0.0040000 0.0026816 -0.0022173
v 0.0040000 0.0045184 -0.0022173
v 0.0040000 0.0052971 -0.0016971
v 0.0040000 0.0058173 -0.0009184
v 0.0040000 0.0046000 0.0010000
v 0.0040000 0.0052000 0.0008000
v 0.0040000 0.0058409 0.0008000
v 0.0040000 0.0044000 0.0016000
v 0.0040000 0.0044000 0.0022409
v 0.0040000 0.0026000 0.0010000
v 0.0040000 0.0028000 0.0016000
v 0.0040000 0.0028000 0.0022409
v 0.0040000 0.0013591 0.0008000
v 0.0040000 0.0020000 0.0008000
v 0.0040000 0.0020000 -0.0008000
v 0.0040000 0.0013591 -0.0008000
v 0.0040000 0.0026000 -0.0010000
v 0.0040000 0.0028000 -0.0022409
v 0.0040000 0.0028000 -0.0016000
v 0.0040000 0.0046000 -0.0010000
v 0.0040000 0.0044000 -0.0022409
v 0.0040000 0.0044000 -0.0016000
v 0.0040000 0.0052000 -0.0008000
v 0.0040000 0.0058409 -0.0008000
v -0.0040000 0.0058173 -0.0009184
v -0.0040000 0.0052971 -0.0016971
v -0.0040000 0.0045184 -0.0022173
v -0.0040000 0.0026816 -0.0022173
v -0.0040000 0.0019029 -0.0016971
v -0.0040000 0.0013827 -0.0009184
v -0.0040000 0.0013827 0.0009184
v -0.0040000 0.0019029 0.0016971
v -0.0040000 0.0026816 0.0022173
v -0.0040000 0.0045184 0.0022173
v -0.0040000 0.0052971 0.0016971
v -0.0040000 0.0058173 0.0009184
v -0.0040000 0.0046000 -0.0010000
v -0.0040000 0.0052000 -0.0008000
v -0.0040000 0.0058409 -0.0008000
v -0.0040000 0.0044000 -0.0016000
v -0.0040000 0.0044000 -0.0022409
v -0.0040000 0.0026000 -0.0010000
v -0.0040000 0.0028000 -0.0016000
v -0.0040000 0.0028000 -0.0022409
v -0.0040000 0.0013591 -0.0008000
v -0.0040000 0.0020000 -0.0008000
v -0.0040000 0.0020000 0.0008000
v -0.0040000 0.0013591 0.0008000
v -0.0040000 0.0026000 0.0010000
v -0.0040000 0.0028000 0.0022409
v -0.0040000 0.0028000 0.0016000
v -0.0040000 0.0046000 0.0010000
v -0.0040000 0.0044000 0.0022409
v -0.0040000 0.0044000 0.0016000
v -0.0040000 0.0052000 0.0008000
v -0.0040000 0.0058409 0.0008000
v -0.0040000 0.0060000 -0.0000000
v 0.0040000 0.0060000 -0.0000000
v 0.0040000 0.0012000 -0.0000000
v -0.0040000 0.0012000 -0.0000000
v 0.0018828 0.0038828 0.0023437
v 0.0020000 0.0036000 0.0024000
v 0.0020000 0.0036000 0.0028000
v 0.0018828 0.0038828 0.0027437
v 0.0016000 0.0040000 0.0023204
v 0.0016000 0.0040000 0.0027204
v 0.0018828 0.0033172 0.0023437
v 0.0018828 0.0033172 0.0027437
v 0.0016000 0.0032000 0.0023204
v 0.0016000 0.0032000 0.0027204
v -0.0018828 0.0033172 0.0023437
v -0.0020000 0.0036000 0.0024000
v -0.0020000 0.0036000 0.0028000
v -0.0018828 0.0033172 0.0027437
v -0.0016000 0.0032000 0.0023204
v -0.0016000 0.0032000 0.0027204
v -0.0018828 0.0038828 0.0023437
v -0.0018828 0.0038828 0.0027437
v -0.0016000 0.0040000 0.0023204
v -0.0016000 0.0040000 0.0027204
v 0.0018828 0.0033172 -0.0023437
v 0.0020000 0.0036000 -0.0024000
v 0.0020000 0.0036000 -0.0028000
v 0.0018828 0.0033172 -0.0027437
v 0.0016000 0.0032000 -0.0023204
v 0.0016000 0.0032000 -0.0027204
v 0.0018828 0.0038828 -0.0023437
v 0.0018828 0.0038828 -0.0027437
v 0.0016000 0.0040000 -0.0023204
v 0.0016000 0.0040000 -0.0027204
v -0.0018828 0.0038828 -0.0023437
v -0.0020000 0.0036000 -0.0024000
v -0.0020000 0.0036000 -0.0028000
v -0.0018828 0.0038828 -0.0027437
v -0.0016000 0.0040000 -0.0023204
v -0.0016000 0.0040000 -0.0027204
v -0.0018828 0.0033172 -0.0023437
v -0.0018828 0.0033172 -0.0027437
v -0.0016000 0.0032000 -0.0023204
v -0.0016000 0.0032000 -0.0027204
v 0.0020000 0.0040000 0.0023204
v 0.0020000 0.0032000 0.0023204
v -0.0020000 0.0032000 0.0023204
v -0.0020000 0.0040000 0.0023204
v 0.0020000 0.0032000 -0.0023204
v 0.0020000 0.0040000 -0.0023204
v -0.0020000 0.0040000 -0.0023204
v -0.0020000 0.0032000 -0.0023204
v 0.0040000 0.0044000 0.0022408
v 0.0040000 0.0036000 0.0024000
v -0.0040000 0.0036000 0.0024000
v -0.0040000 0.0044000 0.0022408
v 0.0040000 0.0028000 0.0022408
v -0.0040000 0.0028000 0.0022408
v 0.0040000 0.0036000 -0.0024000
v 0.0040000 0.0044000 -0.0022408
v -0.0040000 0.0044000 -0.0022408
v -0.0040000 0.0036000 -0.0024000
v 0.0040000 0.0028000 -0.0022408
v -0.0040000 0.0028000 -0.0022408
v 0.0020000 0.0040000 0.0027204
v 0.0020000 0.0032000 0.0027204
v -0.0020000 0.0032000 0.0027204
v -0.0020000 0.0040000 0.0027204
v 0.0020000 0.0032000 -0.0027204
v 0.0020000 0.0040000 -0.0027204
v -0.0020000 0.0040000 -0.0027204
v -0.0020000 0.0032000 -0.0027204
v -0.0024000 0.0025285 0.0025869
v -0.0024000 0.0016200 0.0019799
v 0.0024000 0.0016200 0.0019799
v 0.0024000 0.0025285 0.0025869
v -0.0024000 0.0010132 0.0010715
v 0.0024000 0.0010132 0.0010715
v -0.0024000 0.0007999 0.0000000
v 0.0024000 0.0007999 0.0000000
v -0.0024000 0.0010131 -0.0010715
v 0.0024000 0.0010131 -0.0010715
v -0.0024000 0.0016201 -0.0019800
v 0.0024000 0.0016201 -0.0019800
v -0.0024000 0.0025285 -0.0025868
v 0.0024000 0.0025285 -0.0025868
v 0.0024000 0.0055800 0.0019799
v -0.0024000 0.0055800 0.0019799
v -0.0024000 0.0046715 0.0025869
v 0.0024000 0.0046715 0.0025869
v 0.0024000 0.0061868 0.0010715
v -0.0024000 0.0061868 0.0010715
v 0.0024000 0.0064001 0.0000000
v -0.0024000 0.0064001 0.0000000
v 0.0024000 0.0061869 -0.0010715
v -0.0024000 0.0061869 -0.0010715
v 0.0024000 0.0055799 -0.0019800
v -0.0024000 0.0055799 -0.0019800
v 0.0024000 0.0046715 -0.0025868
v -0.0024000 0.0046715 -0.0025868
v -0.0024000 0.0046716 0.0025869
v 0.0024000 0.0046716 0.0025869
v 0.0024000 0.0025284 0.0025869
v -0.0024000 0.0025284 0.0025869
v 0.0024000 0.0036000 0.0028000
v -0.0024000 0.0036000 0.0028000
v 0.0024000 0.0046716 -0.0025869
v -0.0024000 0.0046716 -0.0025869
v -0.0024000 0.0025284 -0.0025869
v 0.0024000 0.0025284 -0.0025869
v 0.0024000 0.0036000 -0.0028000
v -0.0024000 0.0036000 -0.0028000
v 0.0040000 0.0209777 -0.0033260
v 0.0040000 0.0205185 -0.0022174
v 0.0040000 0.0196000 -0.0036000
v 0.0040000 0.0221456 -0.0025456
v 0.0040000 0.0212970 -0.0016970
v 0.0040000 0.0229260 -0.0013777
v 0.0040000 0.0218174 -0.0009185
v 0.0040000 0.0232000 -0.0000000
v 0.0040000 0.0229260 0.0013777
v 0.0040000 0.0218174 0.0009185
v 0.0040000 0.0221456 0.0025456
v 0.0040000 0.0212970 0.0016970
v 0.0040000 0.0209777 0.0033260
v 0.0040000 0.0205185 0.0022174
v 0.0040000 0.0196000 0.0036000
v 0.0040000 0.0182223 0.0033260
v 0.0040000 0.0186815 0.0022174
v 0.0040000 0.0170544 0.0025456
v 0.0040000 0.0179030 0.0016970
v 0.0040000 0.0162740 0.0013777
v 0.0040000 0.0173826 0.0009185
v 0.0040000 0.0160000 -0.0000000
v 0.0040000 0.0162740 -0.0013777
v 0.0040000 0.0173826 -0.0009185
v 0.0040000 0.0170544 -0.0025456
v 0.0040000 0.0179030 -0.0016970
v 0.0040000 0.0182223 -0.0033260
v 0.0040000 0.0186815 -0.0022174
v -0.0040000 0.0205185 -0.0022174
v -0.0040000 0.0209777 -0.0033260
v -0.0040000 0.0196000 -0.0036000
v -0.0040000 0.0212970 -0.0016970
v -0.0040000 0.0221456 -0.0025456
v -0.0040000 0.0218174 -0.0009185
v -0.0040000 0.0229260 -0.0013777
v -0.0040000 0.0232000 -0.0000000
v -0.0040000 0.0218174 0.0009185
v -0.0040000 0.0229260 0.0013777
v -0.0040000 0.0212970 0.0016970
v -0.0040000 0.0221456 0.0025456
v -0.0040000 0.0205185 0.0022174
v -0.0040000 0.0209777 0.0033260
v -0.0040000 0.0196000 0.0036000
v -0.0040000 0.0186815 0.0022174
v -0.0040000 0.0182223 0.0033260
v -0.0040000 0.0179030 0.0016970
v -0.0040000 0.0170544 0.0025456
v -0.0040000 0.0173826 0.0009185
v -0.0040000 0.0162740 0.0013777
v -0.0040000 0.0160000 -0.0000000
v -0.0040000 0.0173826 -0.0009185
v -0.0040000 0.0162740 -0.0013777
v -0.0040000 0.0179030 -0.0016970
v -0.0040000 0.0170544 -0.0025456
v -0.0040000 0.0186815 -0.0022174
v -0.0040000 0.0182223 -0.0033260
v 0.0040000 0.0049777 -0.0033260
v 0.0040000 0.0045185 -0.0022174
v 0.0040000 0.0036000 -0.0036000
v 0.0040000 0.0061456 -0.0025456
v 0.0040000 0.0052970 -0.0016970
v 0.0040000 0.0069260 -0.0013777
v 0.0040000 0.0058174 -0.0009185
v 0.0040000 0.0072000 -0.0000000
v 0.0040000 0.0069260 0.0013777
v 0.0040000 0.0058174 0.0009185
v 0.0040000 0.0061456 0.0025456
v 0.0040000 0.0052970 0.0016970
v 0.0040000 0.0049777 0.0033260
v 0.0040000 0.0045185 0.0022174
v 0.0040000 0.0036000 0.0036000
v 0.0040000 0.0022223 0.0033260
v 0.0040000 0.0026815 0.0022174
v 0.0040000 0.0010544 0.0025456
v 0.0040000 0.0019030 0.0016970
v 0.0040000 0.0002740 0.0013777
v 0.0040000 0.0013826 0.0009185
v 0.0040000 0.0000000 -0.0000000
v 0.0040000 0.0002740 -0.0013777
v 0.0040000 0.0013826 -0.0009185
v 0.0040000 0.0010544 -0.0025456
v 0.0040000 0.0019030 -0.0016970
v 0.0040000 0.0022223 -0.0033260
v 0.0040000 0.0026815 -0.0022174
v -0.0040000 0.0045185 -0.0022174
v -0.0040000 0.0049777 -0.0033260
v -0.0040000 0.0036000 -0.0036000
v -0.0040000 0.0052970 -0.0016970
v -0.0040000 0.0061456 -0.0025456
v -0.0040000 0.0058174 -0.0009185
v -0.0040000 0.0069260 -0.0013777
v -0.0040000 0.0072000 -0.0000000
v -0.0040000 0.0058174 0.0009185
v -0.0040000 0.0069260 0.0013777
v -0.0040000 0.0052970 0.0016970
v -0.0040000 0.0061456 0.0025456
v -0.0040000 0.0045185 0.0022174
v -0.0040000 0.0049777 0.0033260
v -0.0040000 0.0036000 0.0036000
v -0.0040000 0.0026815 0.0022174
v -0.0040000 0.0022223 0.0033260
v -0.0040000 0.0019030 0.0016970
v -0.0040000 0.0010544 0.0025456
v -0.0040000 0.0013826 0.0009185
v -0.0040000 0.0002740 0.0013777
v -0.0040000 0.0000000 -0.0000000
v -0.0040000 0.0013826 -0.0009185
v -0.0040000 0.0002740 -0.0013777
v -0.0040000 0.0019030 -0.0016970
v -0.0040000 0.0010544 -0.0025456
v -0.0040000 0.0026815 -0.0022174
v -0.0040000 0.0022223 -0.0033260
v 0.0028000 0.0160000 -0.0000000
v 0.0028000 0.0162740 -0.0013777
v 0.0028000 0.0170544 -0.0025456
v 0.0028000 0.0182223 -0.0033260
v 0.0028000 0.0196000 -0.0036000
v 0.0028000 0.0209777 -0.0033260
v 0.0028000 0.0221456 -0.0025456
v 0.0028000 0.0229260 -0.0013777
v 0.0028000 0.0232000 -0.0000000
v 0.0028000 0.0229260 0.0013777
v 0.0028000 0.0221456 0.0025456
v 0.0028000 0.0209777 0.0033260
v 0.0028000 0.0196000 0.0036000
v 0.0028000 0.0182223 0.0033260
v 0.0028000 0.0170544 0.0025456
v 0.0028000 0.0162740 0.0013777
v -0.0028000 0.0162740 -0.0013777
v -0.0028000 0.0160000 -0.0000000
v -0.0028000 0.0170544 -0.0025456
v -0.0028000 0.0182223 -0.0033260
v -0.0028000 0.0196000 -0.0036000
v -0.0028000 0.0209777 -0.0033260
v -0.0028000 0.0221456 -0.0025456
v -0.0028000 0.0229260 -0.0013777
v -0.0028000 0.0232000 -0.0000000
v -0.0028000 0.0229260 0.0013777
v -0.0028000 0.0221456 0.0025456
v -0.0028000 0.0209777 0.0033260
v -0.0028000 0.0196000 0.0036000
v -0.0028000 0.0182223 0.0033260
v -0.0028000 0.0170544 0.0025456
v -0.0028000 0.0162740 0.0013777
v 0.0036000 0.0160000 -0.0036000
v 0.0036000 0.0196000 -0.0036000
v 0.0036000 0.0182223 -0.0033260
v 0.0036000 0.0170544 -0.0025456
v 0.0036000 0.0162740 -0.0013777
v 0.0036000 0.0160000 -0.0000000
v 0.0036000 0.0160000 0.0036000
v 0.0036000 0.0162740 0.0013777
v 0.0036000 0.0170544 0.0025456
v 0.0036000 0.0182223 0.0033260
v 0.0036000 0.0196000 0.0036000
v 0.0028000 0.0160000 -0.0036000
v 0.0028000 0.0160000 0.0036000
v -0.0028000 0.0160000 -0.0036000
v -0.0028000 0.0160000 0.0036000
v -0.0036000 0.0182223 -0.0033260
v -0.0036000 0.0196000 -0.0036000
v -0.0036000 0.0160000 -0.0036000
v -0.0036000 0.0170544 -0.0025456
v -0.0036000 0.0162740 -0.0013777
v -0.0036000 0.0160000 -0.0000000
v -0.0036000 0.0162740 0.0013777
v -0.0036000 0.0160000 0.0036000
v -0.0036000 0.0170544 0.0025456
v -0.0036000 0.0182223 0.0033260
v -0.0036000 0.0196000 0.0036000
v 0.0022174 0.0106815 -0.0032000
v 0.0022174 0.0106815 0.0032000
v 0.0024000 0.0116000 0.0032000
v 0.0024000 0.0116000 -0.0032000
v 0.0016970 0.0099030 -0.0032000
v 0.0016970 0.0099030 0.0032000
v 0.0009185 0.0093826 -0.0032000
v 0.0009185 0.0093826 0.0032000
v 0.0000000 0.0092000 -0.0032000
v 0.0000000 0.0092000 0.0032000
v -0.0009185 0.0093826 -0.0032000
v -0.0009185 0.0093826 0.0032000
v -0.0016970 0.0099030 -0.0032000
v -0.0016970 0.0099030 0.0032000
v -0.0022174 0.0106815 -0.0032000
v -0.0022174 0.0106815 0.0032000
v -0.0024000 0.0116000 -0.0032000
v -0.0024000 0.0116000 0.0032000
v -0.0022174 0.0125185 -0.0032000
v -0.0022174 0.0125185 0.0032000
v -0.0016970 0.0132970 -0.0032000
v -0.0016970 0.0132970 0.0032000
v -0.0009185 0.0138174 -0.0032000
v -0.0009185 0.0138174 0.0032000
v 0.0000000 0.0140000 -0.0032000
v 0.0000000 0.0140000 0.0032000
v 0.0009185 0.0138174 -0.0032000
v 0.0009185 0.0138174 0.0032000
v 0.0016970 0.0132970 -0.0032000
v 0.0016970 0.0132970 0.0032000
v 0.0022174 0.0125185 -0.0032000
v 0.0022174 0.0125185 0.0032000
v -0.0012246 0.0086435 -0.0032000
v 0.0000000 0.0084000 -0.0032000
v -0.0022627 0.0093373 -0.0032000
v -0.0029565 0.0103754 -0.0032000
v -0.0032000 0.0116000 -0.0032000
v -0.0029565 0.0128246 -0.0032000
v -0.0022627 0.0138627 -0.0032000
v -0.0012246 0.0145565 -0.0032000
v 0.0000000 0.0148000 -0.0032000
v 0.0012246 0.0145565 -0.0032000
v 0.0022627 0.0138627 -0.0032000
v 0.0029565 0.0128246 -0.0032000
v 0.0032000 0.0116000 -0.0032000
v 0.0029565 0.0103754 -0.0032000
v 0.0022627 0.0093373 -0.0032000
v 0.0012246 0.0086435 -0.0032000
v 0.0029565 0.0103754 -0.0040000
v 0.0032000 0.0116000 -0.0040000
v 0.0022627 0.0093373 -0.0040000
v 0.0012246 0.0086435 -0.0040000
v 0.0000000 0.0084000 -0.0040000
v -0.0012246 0.0086435 -0.0040000
v -0.0022627 0.0093373 -0.0040000
v -0.0029565 0.0103754 -0.0040000
v -0.0032000 0.0116000 -0.0040000
v -0.0029565 0.0128246 -0.0040000
v -0.0022627 0.0138627 -0.0040000
v -0.0012246 0.0145565 -0.0040000
v 0.0000000 0.0148000 -0.0040000
v 0.0012246 0.0145565 -0.0040000
v 0.0022627 0.0138627 -0.0040000
v 0.0029565 0.0128246 -0.0040000
v -0.0012246 0.0086435 0.0032000
v 0.0000000 0.0084000 0.0032000
v -0.0022627 0.0093373 0.0032000
v -0.0029565 0.0103754 0.0032000
v -0.0032000 0.0116000 0.0032000
v -0.0029565 0.0128246 0.0032000
v -0.0022627 0.0138627 0.0032000
v -0.0012246 0.0145565 0.0032000
v 0.0000000 0.0148000 0.0032000
v 0.0012246 0.0145565 0.0032000
v 0.0022627 0.0138627 0.0032000
v 0.0029565 0.0128246 0.0032000
v 0.0032000 0.0116000 0.0032000
v 0.0029565 0.0103754 0.0032000
v 0.0022627 0.0093373 0.0032000
v 0.0012246 0.0086435 0.0032000
v 0.0029565 0.0103754 0.0040000
v 0.0032000 0.0116000 0.0040000
v 0.0022627 0.0093373 0.0040000
v 0.0012246 0.0086435 0.0040000
v 0.0000000 0.0084000 0.0040000
v -0.0012246 0.0086435 0.0040000
v -0.0022627 0.0093373 0.0040000
v -0.0029565 0.0103754 0.0040000
v -0.0032000 0.0116000 0.0040000
v -0.0029565 0.0128246 0.0040000
v -0.0022627 0.0138627 0.0040000
v -0.0012246 0.0145565 0.0040000
v 0.0000000 0.0148000 0.0040000
v 0.0012246 0.0145565 0.0040000
v 0.0022627 0.0138627 0.0040000
v 0.0029565 0.0128246 0.0040000
v 0.0036000 0.0116000 0.0040000
v 0.0033260 0.0102223 0.0040000
v 0.0033260 0.0102223 -0.0040000
v 0.0036000 0.0116000 -0.0040000
v 0.0025456 0.0090544 0.0040000
v 0.0025456 0.0090544 -0.0040000
v 0.0013777 0.0082740 0.0040000
v 0.0013777 0.0082740 -0.0040000
v 0.0000000 0.0080000 0.0040000
v 0.0000000 0.0080000 -0.0040000
v -0.0013777 0.0082740 0.0040000
v -0.0013777 0.0082740 -0.0040000
v -0.0025456 0.0090544 0.0040000
v -0.0025456 0.0090544 -0.0040000
v -0.0033260 0.0102223 0.0040000
v -0.0033260 0.0102223 -0.0040000
v -0.0036000 0.0116000 0.0040000
v -0.0036000 0.0116000 -0.0040000
v -0.0033260 0.0129777 0.0040000
v -0.0033260 0.0129777 -0.0040000
v -0.0025456 0.0141456 0.0040000
v -0.0025456 0.0141456 -0.0040000
v -0.0013777 0.0149260 0.0040000
v -0.0013777 0.0149260 -0.0040000
v 0.0000000 0.0152000 0.0040000
v 0.0000000 0.0152000 -0.0040000
v 0.0013777 0.0149260 0.0040000
v 0.0013777 0.0149260 -0.0040000
v 0.0025456 0.0141456 0.0040000
v 0.0025456 0.0141456 -0.0040000
v 0.0033260 0.0129777 0.0040000
v 0.0033260 0.0129777 -0.0040000
v -0.0036000 0.0072000 -0.0036000
v -0.0036000 0.0072000 0.0036000
v 0.0028000 0.0137640 -0.0036000
v 0.0028000 0.0137640 0.0036000
v 0.0028000 0.0094360 -0.0036000
v 0.0028000 0.0072000 -0.0036000
v 0.0028000 0.0072000 0.0036000
v 0.0028000 0.0094360 0.0036000
v -0.0028000 0.0152000 -0.0008000
v -0.0028000 0.0169680 -0.0008000
v 0.0028000 0.0169680 -0.0008000
v 0.0028000 0.0152000 -0.0008000
v 0.0028000 0.0152000 0.0008000
v 0.0028000 0.0169680 0.0008000
v -0.0028000 0.0169680 0.0008000
v -0.0028000 0.0152000 0.0008000
v 0.0036000 0.0116000 -0.0036000
v -0.0028000 0.0137640 -0.0036000
v -0.0036000 0.0116000 -0.0036000
v 0.0036000 0.0116000 0.0036000
v -0.0036000 0.0116000 0.0036000
v -0.0028000 0.0137640 0.0036000
v -0.0028000 0.0072000 -0.0000000
v -0.0028000 0.0069260 -0.0013777
v -0.0028000 0.0061456 -0.0025456
v -0.0028000 0.0049777 -0.0033260
v -0.0028000 0.0036000 -0.0036000
v -0.0028000 0.0022223 -0.0033260
v -0.0028000 0.0010544 -0.0025456
v -0.0028000 0.0002740 -0.0013777
v -0.0028000 0.0000000 -0.0000000
v -0.0028000 0.0002740 0.0013777
v -0.0028000 0.0010544 0.0025456
v -0.0028000 0.0022223 0.0033260
v -0.0028000 0.0036000 0.0036000
v -0.0028000 0.0049777 0.0033260
v -0.0028000 0.0061456 0.0025456
v -0.0028000 0.0069260 0.0013777
v 0.0028000 0.0069260 -0.0013777
v 0.0028000 0.0072000 -0.0000000
v 0.0028000 0.0061456 -0.0025456
v 0.0028000 0.0049777 -0.0033260
v 0.0028000 0.0036000 -0.0036000
v 0.0028000 0.0022223 -0.0033260
v 0.0028000 0.0010544 -0.0025456
v 0.0028000 0.0002740 -0.0013777
v 0.0028000 0.0000000 -0.0000000
v 0.0028000 0.0002740 0.0013777
v 0.0028000 0.0010544 0.0025456
v 0.0028000 0.0022223 0.0033260
v 0.0028000 0.0036000 0.0036000
v 0.0028000 0.0049777 0.0033260
v 0.0028000 0.0061456 0.0025456
v 0.0028000 0.0069260 0.0013777
v -0.0036000 0.0036000 -0.0036000
v -0.0036000 0.0049777 -0.0033260
v -0.0036000 0.0061456 -0.0025456
v -0.0036000 0.0069260 -0.0013777
v -0.0036000 0.0072000 -0.0000000
v -0.0036000 0.0069260 0.0013777
v -0.0036000 0.0061456 0.0025456
v -0.0036000 0.0049777 0.0033260
v -0.0036000 0.0036000 0.0036000
v -0.0028000 0.0072000 -0.0036000
v -0.0028000 0.0072000 0.0036000
v 0.0036000 0.0049777 -0.0033260
v 0.0036000 0.0036000 -0.0036000
v 0.0036000 0.0072000 -0.0036000
v 0.0036000 0.0061456 -0.0025456
v 0.0036000 0.0069260 -0.0013777
v 0.0036000 0.0072000 -0.0000000
v 0.0036000 0.0069260 0.0013777
v 0.0036000 0.0072000 0.0036000
v 0.0036000 0.0061456 0.0025456
v 0.0036000 0.0049777 0.0033260
v 0.0036000 0.0036000 0.0036000
v -0.0028000 0.0094360 -0.0036000
v -0.0028000 0.0094360 0.0036000
v 0.0028000 0.0080000 -0.0008000
v 0.0028000 0.0062320 -0.0008000
v -0.0028000 0.0062320 -0.0008000
v -0.0028000 0.0080000 -0.0008000
v -0.0028000 0.0080000 0.0008000
v -0.0028000 0.0062320 0.0008000
v 0.0028000 0.0062320 0.0008000
v 0.0028000 0.0080000 0.0008000
v 0.0000000 0.0152000 0.0008000
v -0.0013800 0.0149280 0.0008000
v 0.0013800 0.0149280 0.0008000
v -0.0028000 0.0137640 0.0008000
v 0.0028000 0.0137640 0.0008000
v 0.0000000 0.0080000 0.0008000
v 0.0013800 0.0082720 0.0008000
v -0.0013800 0.0082720 0.0008000
v 0.0028000 0.0094360 0.0008000
v -0.0028000 0.0094360 0.0008000
v 0.0000000 0.0080000 -0.0008000
v -0.0013800 0.0082720 -0.0008000
v 0.0013800 0.0082720 -0.0008000
v -0.0028000 0.0094360 -0.0008000
v 0.0028000 0.0094360 -0.0008000
v 0.0000000 0.0152000 -0.0008000
v 0.0013800 0.0149280 -0.0008000
v -0.0013800 0.0149280 -0.0008000
v 0.0028000 0.0137640 -0.0008000
v -0.0028000 0.0137640 -0.0008000
v 0.0026000 0.0023754 0.0029565
v 0.0026000 0.0036000 0.0032000
v 0.0024000 0.0016201 0.0019799
v 0.0026000 0.0013373 0.0022627
v 0.0024000 0.0010131 0.0010716
v 0.0026000 0.0006435 0.0012246
v 0.0024000 0.0008000 -0.0000000
v 0.0026000 0.0004000 -0.0000000
v 0.0024000 0.0010131 -0.0010716
v 0.0026000 0.0006435 -0.0012246
v 0.0024000 0.0016201 -0.0019799
v 0.0026000 0.0013373 -0.0022627
v 0.0026000 0.0023754 -0.0029565
v 0.0026000 0.0036000 -0.0032000
v 0.0026000 0.0048246 -0.0029565
v 0.0024000 0.0055799 -0.0019799
v 0.0026000 0.0058627 -0.0022627
v 0.0024000 0.0061869 -0.0010716
v 0.0026000 0.0065565 -0.0012246
v 0.0024000 0.0064000 -0.0000000
v 0.0026000 0.0068000 -0.0000000
v 0.0024000 0.0061869 0.0010716
v 0.0026000 0.0065565 0.0012246
v 0.0024000 0.0055799 0.0019799
v 0.0026000 0.0058627 0.0022627
v 0.0026000 0.0048246 0.0029565
v -0.0026000 0.0023754 -0.0029565
v -0.0026000 0.0036000 -0.0032000
v -0.0024000 0.0016201 -0.0019799
v -0.0026000 0.0013373 -0.0022627
v -0.0024000 0.0010131 -0.0010716
v -0.0026000 0.0006435 -0.0012246
v -0.0024000 0.0008000 -0.0000000
v -0.0026000 0.0004000 -0.0000000
v -0.0024000 0.0010131 0.0010716
v -0.0026000 0.0006435 0.0012246
v -0.0024000 0.0016201 0.0019799
v -0.0026000 0.0013373 0.0022627
v -0.0026000 0.0023754 0.0029565
v -0.0026000 0.0036000 0.0032000
v -0.0026000 0.0048246 0.0029565
v -0.0024000 0.0055799 0.0019799
v -0.0026000 0.0058627 0.0022627
v -0.0024000 0.0061869 0.0010716
v -0.0026000 0.0065565 0.0012246
v -0.0024000 0.0064000 -0.0000000
v -0.0026000 0.0068000 -0.0000000
v -0.0024000 0.0061869 -0.0010716
v -0.0026000 0.0065565 -0.0012246
v -0.0024000 0.0055799 -0.0019799
v -0.0026000 0.0058627 -0.0022627
v -0.0026000 0.0048246 -0.0029565
v 0.0026000 0.0208246 -0.0029565
v 0.0026000 0.0196000 -0.0032000
v 0.0024000 0.0215799 -0.0019799
v 0.0026000 0.0218627 -0.0022627
v 0.0024000 0.0221869 -0.0010716
v 0.0026000 0.0225565 -0.0012246
v 0.0024000 0.0224000 -0.0000000
v 0.0026000 0.0228000 -0.0000000
v 0.0024000 0.0221869 0.0010716
v 0.0026000 0.0225565 0.0012246
v 0.0024000 0.0215799 0.0019799
v 0.0026000 0.0218627 0.0022627
v 0.0026000 0.0208246 0.0029565
v 0.0026000 0.0196000 0.0032000
v 0.0026000 0.0183754 0.0029565
v 0.0024000 0.0176201 0.0019799
v 0.0026000 0.0173373 0.0022627
v 0.0024000 0.0170131 0.0010716
v 0.0026000 0.0166435 0.0012246
v 0.0024000 0.0168000 -0.0000000
v 0.0026000 0.0164000 -0.0000000
v 0.0024000 0.0170131 -0.0010716
v 0.0026000 0.0166435 -0.0012246
v 0.0024000 0.0176201 -0.0019799
v 0.0026000 0.0173373 -0.0022627
v 0.0026000 0.0183754 -0.0029565
v -0.0026000 0.0208246 0.0029565
v -0.0026000 0.0196000 0.0032000
v -0.0024000 0.0215799 0.0019799
v -0.0026000 0.0218627 0.0022627
v -0.0024000 0.0221869 0.0010716
v -0.0026000 0.0225565 0.0012246
v -0.0024000 0.0224000 -0.0000000
v -0.0026000 0.0228000 -0.0000000
v -0.0024000 0.0221869 -0.0010716
v -0.0026000 0.0225565 -0.0012246
v -0.0024000 0.0215799 -0.0019799
v -0.0026000 0.0218627 -0.0022627
v -0.0026000 0.0208246 -0.0029565
v -0.0026000 0.0196000 -0.0032000
v -0.0026000 0.0183754 -0.0029565
v -0.0024000 0.0176201 -0.0019799
v -0.0026000 0.0173373 -0.0022627
v -0.0024000 0.0170131 -0.0010716
v -0.0026000 0.0166435 -0.0012246
v -0.0024000 0.0168000 -0.0000000
v -0.0026000 0.0164000 -0.0000000
v -0.0024000 0.0170131 0.0010716
v -0.0026000 0.0166435 0.0012246
v -0.0024000 0.0176201 0.0019799
v -0.0026000 0.0173373 0.0022627
v -0.0026000 0.0183754 0.0029565
f 1 2 3
f 4 5 6
f 7 8 9
f 10 11 12
f 1 3 13
f 13 14 15
f 13 15 1
f 16 13 3
f 16 3 17
f 18 4 6
f 18 19 20
f 18 20 4
f 21 22 18
f 21 18 6
f 23 24 7
f 23 7 25
f 7 9 25
f 9 26 27
f 9 27 25
f 10 12 28
f 29 10 28
f 29 28 30
f 31 28 12
f 31 12 32
f 33 34 35
f 36 37 38
f 39 40 41
f 42 43 44
f 33 35 45
f 45 46 47
f 45 47 33
f 48 45 35
f 48 35 49
f 50 36 38
f 50 51 52
f 50 52 36
f 53 54 50
f 53 50 38
f 55 56 39
f 55 39 57
f 39 41 57
f 41 58 59
f 41 59 57
f 42 44 60
f 61 42 60
f 61 60 62
f 63 60 44
f 63 44 64
f 64 65 66
f 64 66 15
f 67 68 56
f 21 67 56
f 53 68 67
f 53 67 24
f 66 65 47
f 32 66 47
f 63 64 15
f 63 15 14
f 63 14 13
f 63 13 60
f 60 13 16
f 60 16 62
f 62 16 17
f 62 17 61
f 59 58 20
f 59 20 19
f 59 19 18
f 59 18 57
f 57 18 22
f 57 22 55
f 55 22 21
f 55 21 56
f 53 24 23
f 53 23 54
f 54 23 25
f 54 25 50
f 50 25 27
f 50 27 51
f 51 27 26
f 51 26 52
f 49 29 30
f 49 30 48
f 48 30 28
f 48 28 45
f 45 28 31
f 45 31 46
f 46 31 32
f 46 32 47
f 69 70 71
f 69 71 72
f 73 69 72
f 73 72 74
f 71 70 75
f 76 71 75
f 76 75 77
f 78 76 77
f 79 80 81
f 79 81 82
f 83 79 82
f 83 82 84
f 81 80 85
f 86 81 85
f 86 85 87
f 88 86 87
f 89 90 91
f 89 91 92
f 93 89 92
f 93 92 94
f 91 90 95
f 96 91 95
f 96 95 97
f 98 96 97
f 99 100 101
f 99 101 102
f 103 99 102
f 103 102 104
f 101 100 105
f 106 101 105
f 106 105 107
f 108 106 107
f 83 84 78
f 83 78 77
f 73 74 88
f 73 88 87
f 103 104 98
f 103 98 97
f 93 94 108
f 93 108 107
f 70 69 109
f 69 73 109
f 110 75 70
f 110 77 75
f 80 79 111
f 79 83 111
f 112 85 80
f 112 87 85
f 90 89 113
f 89 93 113
f 114 95 90
f 114 97 95
f 100 99 115
f 99 103 115
f 116 105 100
f 116 107 105
f 117 118 70
f 117 70 109
f 119 120 112
f 119 112 80
f 118 121 110
f 118 110 70
f 122 119 80
f 122 80 111
f 117 109 112
f 117 112 120
f 122 111 110
f 122 110 121
f 123 124 114
f 123 114 90
f 125 126 100
f 125 100 115
f 127 123 90
f 127 90 113
f 126 128 116
f 126 116 100
f 125 115 114
f 125 114 124
f 127 113 116
f 127 116 128
f 129 72 71
f 129 74 72
f 71 76 130
f 76 78 130
f 131 82 81
f 131 84 82
f 81 86 132
f 86 88 132
f 133 92 91
f 133 94 92
f 91 96 134
f 96 98 134
f 135 102 101
f 135 104 102
f 101 106 136
f 106 108 136
f 137 138 139
f 140 137 139
f 138 141 142
f 139 138 142
f 141 143 144
f 142 141 144
f 143 145 146
f 144 143 146
f 145 147 148
f 146 145 148
f 147 149 150
f 148 147 150
f 151 152 153
f 151 153 154
f 155 156 152
f 155 152 151
f 157 158 156
f 157 156 155
f 159 160 158
f 159 158 157
f 161 162 160
f 161 160 159
f 163 164 162
f 163 162 161
f 165 132 129
f 165 129 166
f 167 130 131
f 167 131 168
f 169 71 130
f 169 130 167
f 166 129 71
f 166 71 169
f 168 131 81
f 168 81 170
f 170 81 132
f 170 132 165
f 171 134 135
f 171 135 172
f 173 136 133
f 173 133 174
f 174 133 91
f 174 91 175
f 175 91 134
f 175 134 171
f 176 101 136
f 176 136 173
f 172 135 101
f 172 101 176
f 177 178 179
f 180 181 182
f 183 184 185
f 186 187 188
f 177 179 189
f 189 190 191
f 189 191 177
f 192 189 179
f 192 179 193
f 194 180 182
f 194 195 196
f 194 196 180
f 197 198 194
f 197 194 182
f 199 200 183
f 199 183 201
f 183 185 201
f 185 202 203
f 185 203 201
f 186 188 204
f 205 186 204
f 205 204 206
f 207 204 188
f 207 188 208
f 209 210 211
f 212 213 214
f 215 216 217
f 218 219 220
f 209 211 221
f 221 222 223
f 221 223 209
f 224 221 211
f 224 211 225
f 226 212 214
f 226 227 228
f 226 228 212
f 229 230 226
f 229 226 214
f 231 232 215
f 231 215 233
f 215 217 233
f 217 234 235
f 217 235 233
f 218 220 236
f 237 218 236
f 237 236 238
f 239 236 220
f 239 220 240
f 240 241 242
f 240 242 191
f 243 244 232
f 197 243 232
f 229 244 243
f 229 243 200
f 242 241 223
f 208 242 223
f 239 240 191
f 239 191 190
f 239 190 189
f 239 189 236
f 236 189 192
f 236 192 238
f 238 192 193
f 238 193 237
f 235 234 196
f 235 196 195
f 235 195 194
f 235 194 233
f 233 194 198
f 233 198 231
f 231 198 197
f 231 197 232
f 229 200 199
f 229 199 230
f 230 199 201
f 230 201 226
f 226 201 203
f 226 203 227
f 227 203 202
f 227 202 228
f 225 205 206
f 225 206 224
f 224 206 204
f 224 204 221
f 221 204 207
f 221 207 222
f 222 207 208
f 222 208 223
f 245 246 247
f 245 247 248
f 249 245 248
f 249 248 250
f 247 246 251
f 252 247 251
f 252 251 253
f 254 252 253
f 255 256 257
f 255 257 258
f 259 255 258
f 259 258 260
f 257 256 261
f 262 257 261
f 262 261 263
f 264 262 263
f 265 266 267
f 265 267 268
f 269 265 268
f 269 268 270
f 267 266 271
f 272 267 271
f 272 271 273
f 274 272 273
f 275 276 277
f 275 277 278
f 279 275 278
f 279 278 280
f 277 276 281
f 282 277 281
f 282 281 283
f 284 282 283
f 259 260 254
f 259 254 253
f 249 250 264
f 249 264 263
f 279 280 274
f 279 274 273
f 269 270 284
f 269 284 283
f 246 245 285
f 245 249 285
f 286 251 246
f 286 253 251
f 256 255 287
f 255 259 287
f 288 261 256
f 288 263 261
f 266 265 289
f 265 269 289
f 290 271 266
f 290 273 271
f 276 275 291
f 275 279 291
f 292 281 276
f 292 283 281
f 293 294 246
f 293 246 285
f 295 296 288
f 295 288 256
f 294 297 286
f 294 286 246
f 298 295 256
f 298 256 287
f 293 285 288
f 293 288 296
f 298 287 286
f 298 286 297
f 299 300 290
f 299 290 266
f 301 302 276
f 301 276 291
f 303 299 266
f 303 266 289
f 302 304 292
f 302 292 276
f 301 291 290
f 301 290 300
f 303 289 292
f 303 292 304
f 305 248 247
f 305 250 248
f 247 252 306
f 252 254 306
f 307 258 257
f 307 260 258
f 257 262 308
f 262 264 308
f 309 268 267
f 309 270 268
f 267 272 310
f 272 274 310
f 311 278 277
f 311 280 278
f 277 282 312
f 282 284 312
f 313 314 315
f 316 313 315
f 314 317 318
f 315 314 318
f 317 319 320
f 318 317 320
f 319 321 322
f 320 319 322
f 321 323 324
f 322 321 324
f 323 325 326
f 324 323 326
f 327 328 329
f 327 329 330
f 331 332 328
f 331 328 327
f 333 334 332
f 333 332 331
f 335 336 334
f 335 334 333
f 337 338 336
f 337 336 335
f 339 340 338
f 339 338 337
f 341 308 305
f 341 305 342
f 343 306 307
f 343 307 344
f 345 247 306
f 345 306 343
f 342 305 247
f 342 247 345
f 344 307 257
f 344 257 346
f 346 257 308
f 346 308 341
f 347 310 311
f 347 311 348
f 349 312 309
f 349 309 350
f 350 309 267
f 350 267 351
f 351 267 310
f 351 310 347
f 352 277 312
f 352 312 349
f 348 311 277
f 348 277 352
f 353 354 123
f 353 123 355
f 356 357 354
f 356 354 353
f 358 359 357
f 358 357 356
f 360 66 359
f 360 359 358
f 361 362 66
f 361 66 360
f 363 364 362
f 363 362 361
f 365 366 364
f 365 364 363
f 367 118 366
f 367 366 365
f 368 369 118
f 368 118 367
f 370 371 369
f 370 369 368
f 372 373 371
f 372 371 370
f 374 67 373
f 374 373 372
f 375 376 67
f 375 67 374
f 377 378 376
f 377 376 375
f 379 380 378
f 379 378 377
f 355 123 380
f 355 380 379
f 126 381 382
f 383 126 382
f 381 384 385
f 382 381 385
f 384 386 387
f 385 384 387
f 386 65 388
f 387 386 388
f 65 389 390
f 388 65 390
f 389 391 392
f 390 389 392
f 391 393 394
f 392 391 394
f 393 119 395
f 394 393 395
f 119 396 397
f 395 119 397
f 396 398 399
f 397 396 399
f 398 400 401
f 399 398 401
f 400 68 402
f 401 400 402
f 68 403 404
f 402 68 404
f 403 405 406
f 404 403 406
f 405 407 408
f 406 405 408
f 407 126 383
f 408 407 383
f 409 410 299
f 409 299 411
f 412 413 410
f 412 410 409
f 414 415 413
f 414 413 412
f 416 242 415
f 416 415 414
f 417 418 242
f 417 242 416
f 419 420 418
f 419 418 417
f 421 422 420
f 421 420 419
f 423 294 422
f 423 422 421
f 424 425 294
f 424 294 423
f 426 427 425
f 426 425 424
f 428 429 427
f 428 427 426
f 430 243 429
f 430 429 428
f 431 432 243
f 431 243 430
f 433 434 432
f 433 432 431
f 435 436 434
f 435 434 433
f 411 299 436
f 411 436 435
f 302 437 438
f 439 302 438
f 437 440 441
f 438 437 441
f 440 442 443
f 441 440 443
f 442 241 444
f 443 442 444
f 241 445 446
f 444 241 446
f 445 447 448
f 446 445 448
f 447 449 450
f 448 447 450
f 449 295 451
f 450 449 451
f 295 452 453
f 451 295 453
f 452 454 455
f 453 452 455
f 454 456 457
f 455 454 457
f 456 244 458
f 457 456 458
f 244 459 460
f 458 244 460
f 459 461 462
f 460 459 462
f 461 463 464
f 462 461 464
f 463 302 439
f 464 463 439
f 465 466 375
f 465 375 374
f 466 467 377
f 466 377 375
f 467 468 379
f 467 379 377
f 468 469 355
f 468 355 379
f 469 470 353
f 469 353 355
f 470 471 356
f 470 356 353
f 471 472 358
f 471 358 356
f 472 473 360
f 472 360 358
f 473 474 361
f 473 361 360
f 474 475 363
f 474 363 361
f 475 476 365
f 475 365 363
f 476 477 367
f 476 367 365
f 477 478 368
f 477 368 367
f 478 479 370
f 478 370 368
f 479 480 372
f 479 372 370
f 480 465 374
f 480 374 372
f 404 481 482
f 402 404 482
f 406 483 481
f 404 406 481
f 408 484 483
f 406 408 483
f 383 485 484
f 408 383 484
f 382 486 485
f 383 382 485
f 385 487 486
f 382 385 486
f 387 488 487
f 385 387 487
f 388 489 488
f 387 388 488
f 390 490 489
f 388 390 489
f 392 491 490
f 390 392 490
f 394 492 491
f 392 394 491
f 395 493 492
f 394 395 492
f 397 494 493
f 395 397 493
f 399 495 494
f 397 399 494
f 401 496 495
f 399 401 495
f 402 482 496
f 401 402 496
f 497 498 499
f 497 499 500
f 497 500 501
f 497 501 502
f 503 502 504
f 503 504 505
f 503 505 506
f 503 506 507
f 468 469 508
f 467 468 508
f 466 467 508
f 465 466 508
f 480 465 509
f 479 480 509
f 478 479 509
f 477 478 509
f 510 485 484
f 510 484 483
f 510 483 481
f 510 481 482
f 511 482 496
f 511 496 495
f 511 495 494
f 511 494 493
f 512 513 514
f 515 512 514
f 516 515 514
f 517 516 514
f 518 517 519
f 520 518 519
f 521 520 519
f 522 521 519
f 523 524 525
f 526 523 525
f 527 528 524
f 523 527 524
f 529 530 528
f 527 529 528
f 531 532 530
f 529 531 530
f 533 534 532
f 531 533 532
f 535 536 534
f 533 535 534
f 537 538 536
f 535 537 536
f 539 540 538
f 537 539 538
f 541 542 540
f 539 541 540
f 543 544 542
f 541 543 542
f 545 546 544
f 543 545 544
f 547 548 546
f 545 547 546
f 549 550 548
f 547 549 548
f 551 552 550
f 549 551 550
f 553 554 552
f 551 553 552
f 526 525 554
f 553 526 554
f 555 533 531
f 555 531 556
f 557 535 533
f 557 533 555
f 558 537 535
f 558 535 557
f 559 539 537
f 559 537 558
f 560 541 539
f 560 539 559
f 561 543 541
f 561 541 560
f 562 545 543
f 562 543 561
f 563 547 545
f 563 545 562
f 564 549 547
f 564 547 563
f 565 551 549
f 565 549 564
f 566 553 551
f 566 551 565
f 567 526 553
f 567 553 566
f 568 523 526
f 568 526 567
f 569 527 523
f 569 523 568
f 570 529 527
f 570 527 569
f 556 531 529
f 556 529 570
f 571 568 567
f 572 571 567
f 573 569 568
f 571 573 568
f 574 570 569
f 573 574 569
f 575 556 570
f 574 575 570
f 576 555 556
f 575 576 556
f 577 557 555
f 576 577 555
f 578 558 557
f 577 578 557
f 579 559 558
f 578 579 558
f 580 560 559
f 579 580 559
f 581 561 560
f 580 581 560
f 582 562 561
f 581 582 561
f 583 563 562
f 582 583 562
f 584 564 563
f 583 584 563
f 585 565 564
f 584 585 564
f 586 566 565
f 585 586 565
f 572 567 566
f 586 572 566
f 532 534 587
f 588 532 587
f 534 536 589
f 587 534 589
f 536 538 590
f 589 536 590
f 538 540 591
f 590 538 591
f 540 542 592
f 591 540 592
f 542 544 593
f 592 542 593
f 544 546 594
f 593 544 594
f 546 548 595
f 594 546 595
f 548 550 596
f 595 548 596
f 550 552 597
f 596 550 597
f 552 554 598
f 597 552 598
f 554 525 599
f 598 554 599
f 525 524 600
f 599 525 600
f 524 528 601
f 600 524 601
f 528 530 602
f 601 528 602
f 530 532 588
f 602 530 588
f 599 600 603
f 599 603 604
f 600 601 605
f 600 605 603
f 601 602 606
f 601 606 605
f 602 588 607
f 602 607 606
f 588 587 608
f 588 608 607
f 587 589 609
f 587 609 608
f 589 590 610
f 589 610 609
f 590 591 611
f 590 611 610
f 591 592 612
f 591 612 611
f 592 593 613
f 592 613 612
f 593 594 614
f 593 614 613
f 594 595 615
f 594 615 614
f 595 596 616
f 595 616 615
f 596 597 617
f 596 617 616
f 597 598 618
f 597 618 617
f 598 599 604
f 598 604 618
f 619 620 621
f 619 621 622
f 620 623 624
f 620 624 621
f 623 625 626
f 623 626 624
f 625 627 628
f 625 628 626
f 627 629 630
f 627 630 628
f 629 631 632
f 629 632 630
f 631 633 634
f 631 634 632
f 633 635 636
f 633 636 634
f 635 637 638
f 635 638 636
f 637 639 640
f 637 640 638
f 639 641 642
f 639 642 640
f 641 643 644
f 641 644 642
f 643 645 646
f 643 646 644
f 645 647 648
f 645 648 646
f 647 649 650
f 647 650 648
f 649 619 622
f 649 622 650
f 622 621 571
f 622 571 572
f 621 624 573
f 621 573 571
f 624 626 574
f 624 574 573
f 626 628 575
f 626 575 574
f 628 630 576
f 628 576 575
f 630 632 577
f 630 577 576
f 632 634 578
f 632 578 577
f 634 636 579
f 634 579 578
f 636 638 580
f 636 580 579
f 638 640 581
f 638 581 580
f 640 642 582
f 640 582 581
f 642 644 583
f 642 583 582
f 644 646 584
f 644 584 583
f 646 648 585
f 646 585 584
f 648 650 586
f 648 586 585
f 650 622 572
f 650 572 586
f 603 620 619
f 604 603 619
f 605 623 620
f 603 605 620
f 606 625 623
f 605 606 623
f 607 627 625
f 606 607 625
f 608 629 627
f 607 608 627
f 609 631 629
f 608 609 629
f 610 633 631
f 609 610 631
f 611 635 633
f 610 611 633
f 612 637 635
f 611 612 635
f 613 639 637
f 612 613 637
f 614 641 639
f 613 614 639
f 615 643 641
f 614 615 641
f 616 645 643
f 615 616 643
f 617 647 645
f 616 617 645
f 618 649 647
f 617 618 647
f 604 619 649
f 618 604 649
f 514 651 652
f 514 652 519
f 508 653 654
f 508 654 509
f 655 656 657
f 655 657 658
f 659 660 661
f 659 661 662
f 663 664 665
f 663 665 666
f 667 653 469
f 667 469 498
f 513 485 668
f 513 668 669
f 507 477 654
f 507 654 670
f 671 672 493
f 671 493 522
f 673 674 443
f 673 443 444
f 674 675 441
f 674 441 443
f 675 676 438
f 675 438 441
f 676 677 439
f 676 439 438
f 677 678 464
f 677 464 439
f 678 679 462
f 678 462 464
f 679 680 460
f 679 460 462
f 680 681 458
f 680 458 460
f 681 682 457
f 681 457 458
f 682 683 455
f 682 455 457
f 683 684 453
f 683 453 455
f 684 685 451
f 684 451 453
f 685 686 450
f 685 450 451
f 686 687 448
f 686 448 450
f 687 688 446
f 687 446 448
f 688 673 444
f 688 444 446
f 414 689 690
f 416 414 690
f 412 691 689
f 414 412 689
f 409 692 691
f 412 409 691
f 411 693 692
f 409 411 692
f 435 694 693
f 411 435 693
f 433 695 694
f 435 433 694
f 431 696 695
f 433 431 695
f 430 697 696
f 431 430 696
f 428 698 697
f 430 428 697
f 426 699 698
f 428 426 698
f 424 700 699
f 426 424 699
f 423 701 700
f 424 423 700
f 421 702 701
f 423 421 701
f 419 703 702
f 421 419 702
f 417 704 703
f 419 417 703
f 416 690 704
f 417 416 704
f 651 705 706
f 651 706 707
f 651 707 708
f 651 708 709
f 652 709 710
f 652 710 711
f 652 711 712
f 652 712 713
f 676 677 714
f 675 676 714
f 674 675 714
f 673 674 714
f 688 673 715
f 687 688 715
f 686 687 715
f 685 686 715
f 656 693 692
f 656 692 691
f 656 691 689
f 656 689 690
f 657 690 704
f 657 704 703
f 657 703 702
f 657 702 701
f 716 717 718
f 719 716 718
f 720 719 718
f 721 720 718
f 722 721 723
f 724 722 723
f 725 724 723
f 726 725 723
f 718 497 503
f 718 503 723
f 714 727 728
f 714 728 715
f 668 510 511
f 668 511 672
f 729 730 731
f 729 731 732
f 733 734 735
f 733 735 736
f 669 727 677
f 669 677 705
f 717 693 655
f 717 655 667
f 713 685 728
f 713 728 671
f 670 658 701
f 670 701 726
f 737 666 738
f 663 737 739
f 738 666 740
f 739 741 663
f 742 736 743
f 733 742 744
f 743 736 745
f 744 746 733
f 747 732 748
f 729 747 749
f 748 732 750
f 749 751 729
f 752 662 753
f 659 752 754
f 753 662 755
f 754 756 659
f 345 343 757
f 345 757 758
f 343 759 760
f 343 760 757
f 759 761 762
f 759 762 760
f 761 763 764
f 761 764 762
f 763 765 766
f 763 766 764
f 765 767 768
f 765 768 766
f 767 350 769
f 767 769 768
f 350 351 770
f 350 770 769
f 351 347 771
f 351 771 770
f 347 772 773
f 347 773 771
f 772 774 775
f 772 775 773
f 774 776 777
f 774 777 775
f 776 778 779
f 776 779 777
f 778 780 781
f 778 781 779
f 780 342 782
f 780 782 781
f 342 345 758
f 342 758 782
f 757 700 701
f 757 701 758
f 760 699 700
f 760 700 757
f 762 698 699
f 762 699 760
f 764 697 698
f 764 698 762
f 766 696 697
f 766 697 764
f 768 695 696
f 768 696 766
f 769 694 695
f 769 695 768
f 770 693 694
f 770 694 769
f 771 692 693
f 771 693 770
f 773 691 692
f 773 692 771
f 775 689 691
f 775 691 773
f 777 690 689
f 777 689 775
f 779 704 690
f 779 690 777
f 781 703 704
f 781 704 779
f 782 702 703
f 782 703 781
f 758 701 702
f 758 702 782
f 352 349 783
f 352 783 784
f 349 785 786
f 349 786 783
f 785 787 788
f 785 788 786
f 787 789 790
f 787 790 788
f 789 791 792
f 789 792 790
f 791 793 794
f 791 794 792
f 793 344 795
f 793 795 794
f 344 346 796
f 344 796 795
f 346 341 797
f 346 797 796
f 341 798 799
f 341 799 797
f 798 800 801
f 798 801 799
f 800 802 803
f 800 803 801
f 802 804 805
f 802 805 803
f 804 806 807
f 804 807 805
f 806 348 808
f 806 808 807
f 348 352 784
f 348 784 808
f 783 678 677
f 783 677 784
f 786 679 678
f 786 678 783
f 788 680 679
f 788 679 786
f 790 681 680
f 790 680 788
f 792 682 681
f 792 681 790
f 794 683 682
f 794 682 792
f 795 684 683
f 795 683 794
f 796 685 684
f 796 684 795
f 797 686 685
f 797 685 796
f 799 687 686
f 799 686 797
f 801 688 687
f 801 687 799
f 803 673 688
f 803 688 801
f 805 674 673
f 805 673 803
f 807 675 674
f 807 674 805
f 808 676 675
f 808 675 807
f 784 677 676
f 784 676 808
f 175 171 809
f 175 809 810
f 171 811 812
f 171 812 809
f 811 813 814
f 811 814 812
f 813 815 816
f 813 816 814
f 815 817 818
f 815 818 816
f 817 819 820
f 817 820 818
f 819 166 821
f 819 821 820
f 166 169 822
f 166 822 821
f 169 167 823
f 169 823 822
f 167 824 825
f 167 825 823
f 824 826 827
f 824 827 825
f 826 828 829
f 826 829 827
f 828 830 831
f 828 831 829
f 830 832 833
f 830 833 831
f 832 174 834
f 832 834 833
f 174 175 810
f 174 810 834
f 809 470 469
f 809 469 810
f 812 471 470
f 812 470 809
f 814 472 471
f 814 471 812
f 816 473 472
f 816 472 814
f 818 474 473
f 818 473 816
f 820 475 474
f 820 474 818
f 821 476 475
f 821 475 820
f 822 477 476
f 822 476 821
f 823 478 477
f 823 477 822
f 825 479 478
f 825 478 823
f 827 480 479
f 827 479 825
f 829 465 480
f 829 480 827
f 831 466 465
f 831 465 829
f 833 467 466
f 833 466 831
f 834 468 467
f 834 467 833
f 810 469 468
f 810 468 834
f 170 165 835
f 170 835 836
f 165 837 838
f 165 838 835
f 837 839 840
f 837 840 838
f 839 841 842
f 839 842 840
f 841 843 844
f 841 844 842
f 843 845 846
f 843 846 844
f 845 172 847
f 845 847 846
f 172 176 848
f 172 848 847
f 176 173 849
f 176 849 848
f 173 850 851
f 173 851 849
f 850 852 853
f 850 853 851
f 852 854 855
f 852 855 853
f 854 856 857
f 854 857 855
f 856 858 859
f 856 859 857
f 858 168 860
f 858 860 859
f 168 170 836
f 168 836 860
f 835 492 493
f 835 493 836
f 838 491 492
f 838 492 835
f 840 490 491
f 840 491 838
f 842 489 490
f 842 490 840
f 844 488 489
f 844 489 842
f 846 487 488
f 846 488 844
f 847 486 487
f 847 487 846
f 848 485 486
f 848 486 847
f 849 484 485
f 849 485 848
f 851 483 484
f 851 484 849
f 853 481 483
f 853 483 851
f 855 482 481
f 855 481 853
f 857 496 482
f 857 482 855
f 859 495 496
f 859 496 857
f 860 494 495
f 860 495 859
f 836 493 494
f 836 494 860
