# Botball Lab: metres, +Y up, centred XZ, base Y=0
s off
v 0.0036000 0.0040000 0.0080000
v 0.0033260 0.0040000 0.0093777
v 0.0033260 0.0000000 0.0093777
v 0.0036000 0.0000000 0.0080000
v 0.0025456 0.0040000 0.0105456
v 0.0025456 0.0000000 0.0105456
v 0.0013777 0.0040000 0.0113260
v 0.0013777 0.0000000 0.0113260
v 0.0000000 0.0040000 0.0116000
v 0.0000000 0.0000000 0.0116000
v -0.0013777 0.0040000 0.0113260
v -0.0013777 0.0000000 0.0113260
v -0.0025456 0.0040000 0.0105456
v -0.0025456 0.0000000 0.0105456
v -0.0033260 0.0040000 0.0093777
v -0.0033260 0.0000000 0.0093777
v -0.0036000 0.0040000 0.0080000
v -0.0036000 0.0000000 0.0080000
v 0.0022173 0.0040000 0.0070816
v 0.0016971 0.0040000 0.0063029
v 0.0009184 0.0040000 0.0057827
v -0.0009184 0.0040000 0.0057827
v -0.0016971 0.0040000 0.0063029
v -0.0022173 0.0040000 0.0070816
v -0.0022173 0.0040000 0.0089184
v -0.0016971 0.0040000 0.0096971
v -0.0009184 0.0040000 0.0102173
v 0.0009184 0.0040000 0.0102173
v 0.0016971 0.0040000 0.0096971
v 0.0022173 0.0040000 0.0089184
v 0.0010000 0.0040000 0.0070000
v 0.0016000 0.0040000 0.0072000
v 0.0022409 0.0040000 0.0072000
v 0.0008000 0.0040000 0.0064000
v 0.0008000 0.0040000 0.0057591
v -0.0010000 0.0040000 0.0070000
v -0.0008000 0.0040000 0.0064000
v -0.0008000 0.0040000 0.0057591
v -0.0022409 0.0040000 0.0072000
v -0.0016000 0.0040000 0.0072000
v -0.0016000 0.0040000 0.0088000
v -0.0022409 0.0040000 0.0088000
v -0.0010000 0.0040000 0.0090000
v -0.0008000 0.0040000 0.0102409
v -0.0008000 0.0040000 0.0096000
v 0.0010000 0.0040000 0.0090000
v 0.0008000 0.0040000 0.0102409
v 0.0008000 0.0040000 0.0096000
v 0.0016000 0.0040000 0.0088000
v 0.0022409 0.0040000 0.0088000
v 0.0022173 0.0000000 0.0089184
v 0.0016971 0.0000000 0.0096971
v 0.0009184 0.0000000 0.0102173
v -0.0009184 0.0000000 0.0102173
v -0.0016971 0.0000000 0.0096971
v -0.0022173 0.0000000 0.0089184
v -0.0022173 0.0000000 0.0070816
v -0.0016971 0.0000000 0.0063029
v -0.0009184 0.0000000 0.0057827
v 0.0009184 0.0000000 0.0057827
v 0.0016971 0.0000000 0.0063029
v 0.0022173 0.0000000 0.0070816
v 0.0010000 0.0000000 0.0090000
v 0.0016000 0.0000000 0.0088000
v 0.0022409 0.0000000 0.0088000
v 0.0008000 0.0000000 0.0096000
v 0.0008000 0.0000000 0.0102409
v -0.0010000 0.0000000 0.0090000
v -0.0008000 0.0000000 0.0096000
v -0.0008000 0.0000000 0.0102409
v -0.0022409 0.0000000 0.0088000
v -0.0016000 0.0000000 0.0088000
v -0.0016000 0.0000000 0.0072000
v -0.0022409 0.0000000 0.0072000
v -0.0010000 0.0000000 0.0070000
v -0.0008000 0.0000000 0.0057591
v -0.0008000 0.0000000 0.0064000
v 0.0010000 0.0000000 0.0070000
v 0.0008000 0.0000000 0.0057591
v 0.0008000 0.0000000 0.0064000
v 0.0016000 0.0000000 0.0072000
v 0.0022409 0.0000000 0.0072000
v 0.0024000 0.0000000 0.0080000
v 0.0024000 0.0040000 0.0080000
v -0.0024000 0.0040000 0.0080000
v -0.0024000 0.0000000 0.0080000
v 0.0000000 0.0040000 0.0104000
v 0.0000000 0.0000000 0.0104000
v 0.0025456 0.0000000 0.0033872
v 0.0025456 0.0040000 0.0033872
v 0.0024818 0.0040000 0.0031469
v 0.0024818 0.0000000 0.0031469
v 0.0022721 0.0040000 0.0030080
v 0.0022721 0.0000000 0.0030080
v 0.0020393 0.0040000 0.0030519
v 0.0020393 0.0000000 0.0030519
v 0.0013777 0.0040000 0.0033261
v 0.0025456 0.0040000 0.0025456
v 0.0025456 0.0000000 0.0025456
v 0.0013777 0.0000000 0.0033261
v 0.0013777 0.0000000 0.0033260
v 0.0013777 0.0040000 0.0033260
v 0.0000000 0.0040000 0.0036000
v 0.0000000 0.0000000 0.0036000
v -0.0013777 0.0040000 0.0033260
v -0.0013777 0.0000000 0.0033260
v -0.0024818 0.0040000 0.0031469
v -0.0025456 0.0040000 0.0033872
v -0.0025456 0.0000000 0.0033872
v -0.0024818 0.0000000 0.0031469
v -0.0022721 0.0040000 0.0030080
v -0.0022721 0.0000000 0.0030080
v -0.0020393 0.0040000 0.0030519
v -0.0020393 0.0000000 0.0030519
v -0.0025456 0.0040000 0.0025456
v -0.0013777 0.0040000 0.0033261
v -0.0013777 0.0000000 0.0033261
v -0.0025456 0.0000000 0.0025456
v 0.0025456 0.0000000 0.0046128
v 0.0025456 0.0040000 0.0046128
v -0.0025456 0.0040000 0.0046128
v -0.0025456 0.0000000 0.0046128
v 0.0024818 0.0040000 0.0048531
v 0.0024818 0.0000000 0.0048531
v 0.0022721 0.0040000 0.0049920
v 0.0022721 0.0000000 0.0049920
v 0.0020393 0.0040000 0.0049481
v 0.0020393 0.0000000 0.0049481
v 0.0025456 0.0040000 0.0054544
v 0.0025456 0.0000000 0.0054544
v 0.0024000 0.0040000 0.0057826
v 0.0022174 0.0040000 0.0070815
v 0.0016970 0.0040000 0.0063030
v 0.0009185 0.0040000 0.0057826
v 0.0033260 0.0040000 0.0066223
v 0.0013777 0.0040000 0.0046739
v -0.0024818 0.0040000 0.0048531
v -0.0024818 0.0000000 0.0048531
v -0.0022721 0.0040000 0.0049920
v -0.0022721 0.0000000 0.0049920
v -0.0020393 0.0040000 0.0049481
v -0.0020393 0.0000000 0.0049481
v -0.0025456 0.0040000 0.0054544
v -0.0025456 0.0000000 0.0054544
v 0.0022174 0.0000000 0.0070815
v 0.0024000 0.0000000 0.0057826
v 0.0016970 0.0000000 0.0063030
v 0.0009185 0.0000000 0.0057826
v 0.0033260 0.0000000 0.0066223
v 0.0013777 0.0000000 0.0046739
v -0.0022174 0.0040000 0.0070815
v -0.0024000 0.0040000 0.0057826
v -0.0016970 0.0040000 0.0063030
v -0.0009185 0.0040000 0.0057826
v -0.0033260 0.0040000 0.0066223
v -0.0013777 0.0040000 0.0046740
v -0.0024000 0.0000000 0.0057826
v -0.0022174 0.0000000 0.0070815
v -0.0016970 0.0000000 0.0063030
v -0.0009185 0.0000000 0.0057826
v -0.0033260 0.0000000 0.0066223
v -0.0013777 0.0000000 0.0046740
v -0.0008000 0.0000000 0.0045588
v -0.0008000 0.0040000 0.0045588
v 0.0008000 0.0040000 0.0045588
v 0.0008000 0.0000000 0.0045588
v 0.0036000 0.0040000 0.0044000
v 0.0036000 0.0040000 0.0036000
v 0.0036000 0.0040000 0.0000000
v 0.0033260 0.0040000 0.0013777
v -0.0033260 0.0040000 0.0013777
v -0.0036000 0.0040000 0.0000000
v -0.0036000 0.0040000 0.0036000
v -0.0036000 0.0040000 0.0044000
v 0.0036000 0.0000000 0.0044000
v 0.0033260 0.0000000 0.0013777
v 0.0036000 0.0000000 0.0000000
v 0.0036000 0.0000000 0.0036000
v -0.0036000 0.0000000 0.0036000
v -0.0036000 0.0000000 0.0000000
v -0.0033260 0.0000000 0.0013777
v -0.0036000 0.0000000 0.0044000
v 0.0033260 0.0000000 -0.0093777
v 0.0033260 0.0040000 -0.0093777
v 0.0036000 0.0040000 -0.0080000
v 0.0036000 0.0000000 -0.0080000
v 0.0025456 0.0000000 -0.0105456
v 0.0025456 0.0040000 -0.0105456
v 0.0013777 0.0000000 -0.0113260
v 0.0013777 0.0040000 -0.0113260
v 0.0000000 0.0000000 -0.0116000
v 0.0000000 0.0040000 -0.0116000
v -0.0013777 0.0000000 -0.0113260
v -0.0013777 0.0040000 -0.0113260
v -0.0025456 0.0000000 -0.0105456
v -0.0025456 0.0040000 -0.0105456
v -0.0033260 0.0000000 -0.0093777
v -0.0033260 0.0040000 -0.0093777
v -0.0036000 0.0000000 -0.0080000
v -0.0036000 0.0040000 -0.0080000
v 0.0009184 0.0040000 -0.0057827
v 0.0016971 0.0040000 -0.0063029
v 0.0022173 0.0040000 -0.0070816
v -0.0022173 0.0040000 -0.0070816
v -0.0016971 0.0040000 -0.0063029
v -0.0009184 0.0040000 -0.0057827
v -0.0009184 0.0040000 -0.0102173
v -0.0016971 0.0040000 -0.0096971
v -0.0022173 0.0040000 -0.0089184
v 0.0022173 0.0040000 -0.0089184
v 0.0016971 0.0040000 -0.0096971
v 0.0009184 0.0040000 -0.0102173
v 0.0010000 0.0040000 -0.0070000
v 0.0022409 0.0040000 -0.0072000
v 0.0016000 0.0040000 -0.0072000
v 0.0008000 0.0040000 -0.0064000
v 0.0008000 0.0040000 -0.0057591
v -0.0010000 0.0040000 -0.0070000
v -0.0008000 0.0040000 -0.0057591
v -0.0008000 0.0040000 -0.0064000
v -0.0016000 0.0040000 -0.0072000
v -0.0022409 0.0040000 -0.0072000
v -0.0022409 0.0040000 -0.0088000
v -0.0016000 0.0040000 -0.0088000
v -0.0010000 0.0040000 -0.0090000
v -0.0008000 0.0040000 -0.0096000
v -0.0008000 0.0040000 -0.0102409
v 0.0010000 0.0040000 -0.0090000
v 0.0008000 0.0040000 -0.0102409
v 0.0008000 0.0040000 -0.0096000
v 0.0016000 0.0040000 -0.0088000
v 0.0022409 0.0040000 -0.0088000
v 0.0009184 0.0000000 -0.0102173
v 0.0016971 0.0000000 -0.0096971
v 0.0022173 0.0000000 -0.0089184
v -0.0022173 0.0000000 -0.0089184
v -0.0016971 0.0000000 -0.0096971
v -0.0009184 0.0000000 -0.0102173
v -0.0009184 0.0000000 -0.0057827
v -0.0016971 0.0000000 -0.0063029
v -0.0022173 0.0000000 -0.0070816
v 0.0022173 0.0000000 -0.0070816
v 0.0016971 0.0000000 -0.0063029
v 0.0009184 0.0000000 -0.0057827
v 0.0010000 0.0000000 -0.0090000
v 0.0022409 0.0000000 -0.0088000
v 0.0016000 0.0000000 -0.0088000
v 0.0008000 0.0000000 -0.0096000
v 0.0008000 0.0000000 -0.0102409
v -0.0010000 0.0000000 -0.0090000
v -0.0008000 0.0000000 -0.0102409
v -0.0008000 0.0000000 -0.0096000
v -0.0016000 0.0000000 -0.0088000
v -0.0022409 0.0000000 -0.0088000
v -0.0022409 0.0000000 -0.0072000
v -0.0016000 0.0000000 -0.0072000
v -0.0010000 0.0000000 -0.0070000
v -0.0008000 0.0000000 -0.0064000
v -0.0008000 0.0000000 -0.0057591
v 0.0010000 0.0000000 -0.0070000
v 0.0008000 0.0000000 -0.0057591
v 0.0008000 0.0000000 -0.0064000
v 0.0016000 0.0000000 -0.0072000
v 0.0022409 0.0000000 -0.0072000
v 0.0024000 0.0040000 -0.0080000
v 0.0024000 0.0000000 -0.0080000
v -0.0024000 0.0000000 -0.0080000
v -0.0024000 0.0040000 -0.0080000
v 0.0000000 0.0000000 -0.0104000
v 0.0000000 0.0040000 -0.0104000
v 0.0024818 0.0040000 -0.0031469
v 0.0025456 0.0040000 -0.0033872
v 0.0025456 0.0000000 -0.0033872
v 0.0024818 0.0000000 -0.0031469
v 0.0022721 0.0040000 -0.0030080
v 0.0022721 0.0000000 -0.0030080
v 0.0020393 0.0040000 -0.0030519
v 0.0020393 0.0000000 -0.0030519
v 0.0025456 0.0040000 -0.0025456
v 0.0013777 0.0040000 -0.0033261
v 0.0013777 0.0000000 -0.0033261
v 0.0025456 0.0000000 -0.0025456
v 0.0000000 0.0040000 -0.0036000
v 0.0013777 0.0040000 -0.0033260
v 0.0013777 0.0000000 -0.0033260
v 0.0000000 0.0000000 -0.0036000
v -0.0013777 0.0000000 -0.0033260
v -0.0013777 0.0040000 -0.0033260
v -0.0025456 0.0000000 -0.0033872
v -0.0025456 0.0040000 -0.0033872
v -0.0024818 0.0040000 -0.0031469
v -0.0024818 0.0000000 -0.0031469
v -0.0022721 0.0040000 -0.0030080
v -0.0022721 0.0000000 -0.0030080
v -0.0020393 0.0040000 -0.0030519
v -0.0020393 0.0000000 -0.0030519
v -0.0013777 0.0040000 -0.0033261
v -0.0025456 0.0040000 -0.0025456
v -0.0025456 0.0000000 -0.0025456
v -0.0013777 0.0000000 -0.0033261
v 0.0025456 0.0040000 -0.0046128
v 0.0025456 0.0000000 -0.0046128
v -0.0025456 0.0000000 -0.0046128
v -0.0025456 0.0040000 -0.0046128
v 0.0024818 0.0040000 -0.0048531
v 0.0024818 0.0000000 -0.0048531
v 0.0022721 0.0040000 -0.0049920
v 0.0022721 0.0000000 -0.0049920
v 0.0020393 0.0040000 -0.0049481
v 0.0020393 0.0000000 -0.0049481
v 0.0025456 0.0040000 -0.0054544
v 0.0025456 0.0000000 -0.0054544
v 0.0022174 0.0040000 -0.0070815
v 0.0024000 0.0040000 -0.0057826
v 0.0016970 0.0040000 -0.0063030
v 0.0009185 0.0040000 -0.0057826
v 0.0033260 0.0040000 -0.0066223
v 0.0013777 0.0040000 -0.0046739
v -0.0024818 0.0040000 -0.0048531
v -0.0024818 0.0000000 -0.0048531
v -0.0022721 0.0040000 -0.0049920
v -0.0022721 0.0000000 -0.0049920
v -0.0020393 0.0040000 -0.0049481
v -0.0020393 0.0000000 -0.0049481
v -0.0025456 0.0040000 -0.0054544
v -0.0025456 0.0000000 -0.0054544
v 0.0024000 0.0000000 -0.0057826
v 0.0022174 0.0000000 -0.0070815
v 0.0016970 0.0000000 -0.0063030
v 0.0009185 0.0000000 -0.0057826
v 0.0033260 0.0000000 -0.0066223
v 0.0013777 0.0000000 -0.0046739
v -0.0024000 0.0040000 -0.0057826
v -0.0022174 0.0040000 -0.0070815
v -0.0016970 0.0040000 -0.0063030
v -0.0009185 0.0040000 -0.0057826
v -0.0033260 0.0040000 -0.0066223
v -0.0013777 0.0040000 -0.0046740
v -0.0022174 0.0000000 -0.0070815
v -0.0024000 0.0000000 -0.0057826
v -0.0016970 0.0000000 -0.0063030
v -0.0009185 0.0000000 -0.0057826
v -0.0033260 0.0000000 -0.0066223
v -0.0013777 0.0000000 -0.0046740
v -0.0008000 0.0040000 -0.0045588
v -0.0008000 0.0000000 -0.0045588
v 0.0008000 0.0000000 -0.0045588
v 0.0008000 0.0040000 -0.0045588
v 0.0036000 0.0040000 -0.0044000
v 0.0033260 0.0040000 -0.0013777
v 0.0036000 0.0040000 -0.0036000
v -0.0036000 0.0040000 -0.0036000
v -0.0033260 0.0040000 -0.0013777
v -0.0036000 0.0040000 -0.0044000
v 0.0036000 0.0000000 -0.0044000
v 0.0036000 0.0000000 -0.0036000
v 0.0033260 0.0000000 -0.0013777
v -0.0033260 0.0000000 -0.0013777
v -0.0036000 0.0000000 -0.0036000
v -0.0036000 0.0000000 -0.0044000
v -0.0012246 0.0032000 -0.0029565
v -0.0009185 0.0032000 -0.0022174
v 0.0000000 0.0032000 -0.0024000
v 0.0000000 0.0032000 -0.0032000
v -0.0022627 0.0032000 -0.0022627
v -0.0016970 0.0032000 -0.0016970
v -0.0029565 0.0032000 -0.0012246
v -0.0022174 0.0032000 -0.0009185
v -0.0032000 0.0032000 0.0000000
v -0.0024000 0.0032000 0.0000000
v -0.0029565 0.0032000 0.0012246
v -0.0022174 0.0032000 0.0009185
v -0.0022627 0.0032000 0.0022627
v -0.0016970 0.0032000 0.0016970
v -0.0012246 0.0032000 0.0029565
v -0.0009185 0.0032000 0.0022174
v 0.0000000 0.0032000 0.0032000
v 0.0000000 0.0032000 0.0024000
v 0.0012246 0.0032000 0.0029565
v 0.0009185 0.0032000 0.0022174
v 0.0022627 0.0032000 0.0022627
v 0.0016970 0.0032000 0.0016970
v 0.0029565 0.0032000 0.0012246
v 0.0022174 0.0032000 0.0009185
v 0.0032000 0.0032000 0.0000000
v 0.0024000 0.0032000 0.0000000
v 0.0029565 0.0032000 -0.0012246
v 0.0022174 0.0032000 -0.0009185
v 0.0022627 0.0032000 -0.0022627
v 0.0016970 0.0032000 -0.0016970
v 0.0012246 0.0032000 -0.0029565
v 0.0009185 0.0032000 -0.0022174
v 0.0029565 0.0040000 -0.0012246
v 0.0032000 0.0040000 0.0000000
v 0.0022627 0.0040000 -0.0022627
v 0.0012246 0.0040000 -0.0029565
v 0.0000000 0.0040000 -0.0032000
v -0.0012246 0.0040000 -0.0029565
v -0.0022627 0.0040000 -0.0022627
v -0.0029565 0.0040000 -0.0012246
v -0.0032000 0.0040000 0.0000000
v -0.0029565 0.0040000 0.0012246
v -0.0022627 0.0040000 0.0022627
v -0.0012246 0.0040000 0.0029565
v 0.0000000 0.0040000 0.0032000
v 0.0012246 0.0040000 0.0029565
v 0.0022627 0.0040000 0.0022627
v 0.0029565 0.0040000 0.0012246
v 0.0000000 0.0008000 -0.0024000
v -0.0009185 0.0008000 -0.0022174
v -0.0012246 0.0008000 -0.0029565
v 0.0000000 0.0008000 -0.0032000
v -0.0016970 0.0008000 -0.0016970
v -0.0022627 0.0008000 -0.0022627
v -0.0022174 0.0008000 -0.0009185
v -0.0029565 0.0008000 -0.0012246
v -0.0024000 0.0008000 0.0000000
v -0.0032000 0.0008000 0.0000000
v -0.0022174 0.0008000 0.0009185
v -0.0029565 0.0008000 0.0012246
v -0.0016970 0.0008000 0.0016970
v -0.0022627 0.0008000 0.0022627
v -0.0009185 0.0008000 0.0022174
v -0.0012246 0.0008000 0.0029565
v 0.0000000 0.0008000 0.0024000
v 0.0000000 0.0008000 0.0032000
v 0.0009185 0.0008000 0.0022174
v 0.0012246 0.0008000 0.0029565
v 0.0016970 0.0008000 0.0016970
v 0.0022627 0.0008000 0.0022627
v 0.0022174 0.0008000 0.0009185
v 0.0029565 0.0008000 0.0012246
v 0.0024000 0.0008000 0.0000000
v 0.0032000 0.0008000 0.0000000
v 0.0022174 0.0008000 -0.0009185
v 0.0029565 0.0008000 -0.0012246
v 0.0016970 0.0008000 -0.0016970
v 0.0022627 0.0008000 -0.0022627
v 0.0009185 0.0008000 -0.0022174
v 0.0012246 0.0008000 -0.0029565
v 0.0029565 0.0000000 -0.0012246
v 0.0032000 0.0000000 0.0000000
v 0.0022627 0.0000000 -0.0022627
v 0.0012246 0.0000000 -0.0029565
v 0.0000000 0.0000000 -0.0032000
v -0.0012246 0.0000000 -0.0029565
v -0.0022627 0.0000000 -0.0022627
v -0.0029565 0.0000000 -0.0012246
v -0.0032000 0.0000000 0.0000000
v -0.0029565 0.0000000 0.0012246
v -0.0022627 0.0000000 0.0022627
v -0.0012246 0.0000000 0.0029565
v 0.0000000 0.0000000 0.0032000
v 0.0012246 0.0000000 0.0029565
v 0.0022627 0.0000000 0.0022627
v 0.0029565 0.0000000 0.0012246
v 0.0022174 0.0000000 0.0089185
v 0.0016970 0.0000000 0.0096970
v 0.0009185 0.0000000 0.0102174
v -0.0009185 0.0000000 0.0102174
v -0.0016970 0.0000000 0.0096970
v -0.0022174 0.0000000 0.0089185
v 0.0022174 0.0040000 0.0089185
v 0.0016970 0.0040000 0.0096970
v 0.0009185 0.0040000 0.0102174
v -0.0009185 0.0040000 0.0102174
v -0.0016970 0.0040000 0.0096970
v -0.0022174 0.0040000 0.0089185
v -0.0022174 0.0040000 -0.0089185
v -0.0016970 0.0040000 -0.0096970
v -0.0009185 0.0040000 -0.0102174
v 0.0009185 0.0040000 -0.0102174
v 0.0016970 0.0040000 -0.0096970
v 0.0022174 0.0040000 -0.0089185
v -0.0022174 0.0000000 -0.0089185
v -0.0016970 0.0000000 -0.0096970
v -0.0009185 0.0000000 -0.0102174
v 0.0009185 0.0000000 -0.0102174
v 0.0016970 0.0000000 -0.0096970
v 0.0022174 0.0000000 -0.0089185
vn 0.9995734 0.0 0.0292058
vn 0.8965369 0.0 0.4429691
vn 0.9471783 0.0 0.3207075
vn 0.9999663 0.0 0.0082088
vn 0.6587815 0.0 0.7523344
vn 0.7523344 0.0 0.6587815
vn 0.3207075 0.0 0.9471783
vn 0.4429691 0.0 0.8965369
vn -0.0661489 0.0 0.9978098
vn 0.0661489 0.0 0.9978098
vn -0.4429691 0.0 0.8965369
vn -0.3207075 0.0 0.9471783
vn -0.7523344 0.0 0.6587815
vn -0.6587815 0.0 0.7523344
vn -0.9471783 0.0 0.3207075
vn -0.8965369 0.0 0.4429691
vn -0.9999663 0.0 0.0082088
vn -0.9995734 0.0 0.0292058
vn 0.0 1.0 0.0
vn 0.0 -1.0 0.0
vn -0.9807923 0.0 0.1950551
vn -1.0 0.0 0.0
vn 1.0 0.0 0.0
vn 0.9807923 0.0 0.1950551
vn 0.9807923 0.0 -0.1950551
vn 0.0 0.0 -1.0
vn 0.1950551 0.0 -0.9807923
vn -0.1950551 0.0 -0.9807923
vn -0.9807923 0.0 -0.1950551
vn -0.1591199 0.0 0.9872593
vn 0.0 0.0 1.0
vn -0.3162278 0.0 0.9486833
vn -0.9486833 0.0 0.3162278
vn -0.9771979 0.0 0.2123305
vn -0.9943996 0.0 0.105686
vn 0.9872593 0.0 0.1591199
vn 0.9486833 0.0 0.3162278
vn 0.3162278 0.0 0.9486833
vn 0.2123305 0.0 0.9771979
vn 0.105686 0.0 0.9943996
vn 0.105686 0.0 -0.9943996
vn 0.2123305 0.0 -0.9771979
vn 0.3162278 0.0 -0.9486833
vn 0.9486833 0.0 -0.3162278
vn 0.9771979 0.0 -0.2123305
vn 0.9943996 0.0 -0.105686
vn -0.9943996 0.0 -0.105686
vn -0.9771979 0.0 -0.2123305
vn -0.9486833 0.0 -0.3162278
vn -0.3162278 0.0 -0.9486833
vn -0.2123305 0.0 -0.9771979
vn -0.105686 0.0 -0.9943996
vn -0.9972152 0.0 0.0745778
vn -0.9997192 0.0 0.0236976
vn -0.8782583 0.0 0.4781865
vn -0.7313087 0.0 0.6820466
vn -0.3375795 0.0 0.941297
vn -0.0754544 0.0 0.9971493
vn 0.305692 0.0 0.9521305
vn 0.3557006 9.9e-06 0.9346
vn 0.1950619 0.0 0.9807909
vn 0.2912546 5.9e-06 0.9566456
vn -0.2912222 0.0 0.9566554
vn -0.2339164 0.0 0.9722567
vn 0.8782583 0.0 0.4781865
vn 0.9997192 0.0 0.0236976
vn 0.9972152 0.0 0.0745778
vn 0.7313087 0.0 0.6820466
vn 0.3375795 0.0 0.941297
vn 0.0754544 0.0 0.9971493
vn -0.305692 0.0 0.9521305
vn -0.3556481 0.0 0.9346199
vn -0.9990542 0.0 -0.0434816
vn 0.9990542 0.0 -0.0434816
vn -0.8782583 0.0 -0.4781865
vn -0.7313087 0.0 -0.6820466
vn -0.3375795 0.0 -0.941297
vn -0.0754544 0.0 -0.9971493
vn 0.3350949 0.0 -0.9421844
vn 0.8782583 0.0 -0.4781865
vn 0.7313087 0.0 -0.6820466
vn 0.3375795 0.0 -0.941297
vn 0.0754544 0.0 -0.9971493
vn -0.3350014 0.0 -0.9422176
vn -0.2996905 0.0 -0.9540365
vn -0.1955611 0.0 -0.9806915
vn 0.1953979 0.0 -0.9807241
vn 0.2674852 0.0 -0.963562
vn 0.3295472 0.0 -0.9441391
vn 0.3828697 2.31e-05 0.9238023
vn 0.9471783 0.0 -0.3207075
vn 0.8965369 0.0 -0.4429691
vn 0.9998757 0.0 -0.0157654
vn 0.7523344 0.0 -0.6587815
vn 0.6587815 0.0 -0.7523344
vn 0.4429691 0.0 -0.8965369
vn 0.3207075 0.0 -0.9471783
vn 0.0661489 0.0 -0.9978098
vn -0.0661489 0.0 -0.9978098
vn -0.3207075 0.0 -0.9471783
vn -0.4429691 0.0 -0.8965369
vn -0.6587815 0.0 -0.7523344
vn -0.7523344 0.0 -0.6587815
vn -0.8965369 0.0 -0.4429691
vn -0.9471783 0.0 -0.3207075
vn -0.9998757 0.0 -0.0157654
vn 0.1950551 0.0 0.9807923
vn -0.1950551 0.0 0.9807923
vn -0.1591199 0.0 -0.9872593
vn 0.9872593 0.0 -0.1591199
vn 0.9771979 0.0 0.2123305
vn 0.9943996 0.0 0.105686
vn -0.2123305 0.0 0.9771979
vn -0.105686 0.0 0.9943996
vn -0.9997192 0.0 -0.0236976
vn -0.9972152 0.0 -0.0745778
vn 0.305692 0.0 -0.9521305
vn 0.3557006 9.9e-06 -0.9346
vn 0.2912546 5.9e-06 -0.9566456
vn 0.1950619 0.0 -0.9807909
vn -0.2339164 0.0 -0.9722567
vn -0.2912222 0.0 -0.9566554
vn 0.9972152 0.0 -0.0745778
vn 0.9997192 0.0 -0.0236976
vn -0.305692 0.0 -0.9521305
vn -0.3556481 0.0 -0.9346199
vn -0.9990542 0.0 0.0434816
vn 0.9990542 0.0 0.0434816
vn 0.3350949 0.0 0.9421844
vn -0.3350014 0.0 0.9422176
vn -0.2996905 0.0 0.9540365
vn -0.1955611 0.0 0.9806915
vn 0.2674852 0.0 0.963562
vn 0.1953979 0.0 0.9807241
vn 0.3295472 0.0 0.9441391
vn 0.3828697 2.31e-05 -0.9238023
vn -0.9471761 0.0 0.3207139
vn -0.8965142 0.0 0.4430151
vn -0.9978107 0.0 0.066135
vn -0.9978107 0.0 -0.066135
vn -0.7523142 0.0 0.6588045
vn -0.6588045 0.0 0.7523142
vn -0.4430151 0.0 0.8965142
vn -0.3207139 0.0 0.9471761
vn -0.066135 0.0 0.9978107
vn 0.066135 0.0 0.9978107
vn 0.3207139 0.0 0.9471761
vn 0.4430151 0.0 0.8965142
vn 0.6588045 0.0 0.7523142
vn 0.7523142 0.0 0.6588045
vn 0.8965142 0.0 0.4430151
vn 0.9471761 0.0 0.3207139
vn 0.9978107 0.0 0.066135
vn 0.9978107 0.0 -0.066135
vn 0.9471761 0.0 -0.3207139
vn 0.8965142 0.0 -0.4430151
vn 0.7523142 0.0 -0.6588045
vn 0.6588045 0.0 -0.7523142
vn 0.4430151 0.0 -0.8965142
vn 0.3207139 0.0 -0.9471761
vn 0.066135 0.0 -0.9978107
vn -0.066135 0.0 -0.9978107
vn -0.3207139 0.0 -0.9471761
vn -0.4430151 0.0 -0.8965142
vn -0.6588045 0.0 -0.7523142
vn -0.7523142 0.0 -0.6588045
vn -0.8965142 0.0 -0.4430151
vn -0.9471761 0.0 -0.3207139
vn -0.947177 0.0 0.3207111
vn -0.8964963 0.0 0.4430513
vn -0.9978115 0.0 0.0661224
vn -0.9978115 0.0 -0.0661224
vn -0.752294 0.0 0.6588276
vn -0.6588276 0.0 0.752294
vn -0.4430513 0.0 0.8964963
vn -0.3207111 0.0 0.947177
vn -0.0661224 0.0 0.9978115
vn 0.0661224 0.0 0.9978115
vn 0.3207111 0.0 0.947177
vn 0.4430513 0.0 0.8964963
vn 0.6588276 0.0 0.752294
vn 0.752294 0.0 0.6588276
vn 0.8964963 0.0 0.4430513
vn 0.947177 0.0 0.3207111
vn 0.9978115 0.0 0.0661224
vn 0.9978115 0.0 -0.0661224
vn 0.947177 0.0 -0.3207111
vn 0.8964963 0.0 -0.4430513
vn 0.752294 0.0 -0.6588276
vn 0.6588276 0.0 -0.752294
vn 0.4430513 0.0 -0.8964963
vn 0.3207111 0.0 -0.947177
vn 0.0661224 0.0 -0.9978115
vn -0.0661224 0.0 -0.9978115
vn -0.3207111 0.0 -0.947177
vn -0.4430513 0.0 -0.8964963
vn -0.6588276 0.0 -0.752294
vn -0.752294 0.0 -0.6588276
vn -0.8964963 0.0 -0.4430513
vn -0.947177 0.0 -0.3207111
f 1//1 2//2 3//3
f 4//4 1//1 3//3
f 2//2 5//5 6//6
f 3//3 2//2 6//6
f 5//5 7//7 8//8
f 6//6 5//5 8//8
f 7//7 9//9 10//10
f 8//8 7//7 10//10
f 9//9 11//11 12//12
f 10//10 9//9 12//12
f 11//11 13//13 14//14
f 12//12 11//11 14//14
f 13//13 15//15 16//16
f 14//14 13//13 16//16
f 15//15 17//17 18//18
f 16//16 15//15 18//18
f 19//19 20//19 21//19
f 22//19 23//19 24//19
f 25//19 26//19 27//19
f 28//19 29//19 30//19
f 19//19 21//19 31//19
f 31//19 32//19 33//19
f 31//19 33//19 19//19
f 34//19 31//19 21//19
f 34//19 21//19 35//19
f 36//19 22//19 24//19
f 36//19 37//19 38//19
f 36//19 38//19 22//19
f 39//19 40//19 36//19
f 39//19 36//19 24//19
f 41//19 42//19 25//19
f 41//19 25//19 43//19
f 25//19 27//19 43//19
f 27//19 44//19 45//19
f 27//19 45//19 43//19
f 28//19 30//19 46//19
f 47//19 28//19 46//19
f 47//19 46//19 48//19
f 49//19 46//19 30//19
f 49//19 30//19 50//19
f 51//20 52//20 53//20
f 54//20 55//20 56//20
f 57//20 58//20 59//20
f 60//20 61//20 62//20
f 51//20 53//20 63//20
f 63//20 64//20 65//20
f 63//20 65//20 51//20
f 66//20 63//20 53//20
f 66//20 53//20 67//20
f 68//20 54//20 56//20
f 68//20 69//20 70//20
f 68//20 70//20 54//20
f 71//20 72//20 68//20
f 71//20 68//20 56//20
f 73//20 74//20 57//20
f 73//20 57//20 75//20
f 57//20 59//20 75//20
f 59//20 76//20 77//20
f 59//20 77//20 75//20
f 60//20 62//20 78//20
f 79//20 60//20 78//20
f 79//20 78//20 80//20
f 81//20 78//20 62//20
f 81//20 62//20 82//20
f 82//21 83//22 84//22
f 82//21 84//22 33//21
f 85//23 86//23 74//24
f 39//24 85//23 74//24
f 71//25 86//23 85//23
f 71//25 85//23 42//25
f 87//26 88//26 70//27
f 44//27 87//26 70//27
f 67//28 88//26 87//26
f 67//28 87//26 47//28
f 84//22 83//22 65//29
f 50//29 84//22 65//29
f 81//30 82//31 33//31
f 81//30 33//31 32//30
f 81//30 32//30 31//32
f 81//30 31//32 78//32
f 78//33 31//33 34//34
f 78//33 34//34 80//35
f 80//35 34//34 35//22
f 80//35 35//22 79//22
f 77//36 76//23 38//23
f 77//36 38//23 37//36
f 77//36 37//36 36//37
f 77//36 36//37 75//37
f 75//38 36//38 40//39
f 75//38 40//39 73//40
f 73//40 40//39 39//31
f 73//40 39//31 74//31
f 71//26 42//26 41//41
f 71//26 41//41 72//42
f 72//42 41//41 43//43
f 72//42 43//43 68//43
f 68//44 43//44 45//45
f 68//44 45//45 69//46
f 69//46 45//45 44//23
f 69//46 44//23 70//23
f 67//22 47//22 48//47
f 67//22 48//47 66//48
f 66//48 48//47 46//49
f 66//48 46//49 63//49
f 63//50 46//50 49//51
f 63//50 49//51 64//52
f 64//52 49//51 50//26
f 64//52 50//26 65//26
f 89//53 90//54 91//55
f 92//56 89//53 91//55
f 92//56 91//55 93//57
f 94//58 92//56 93//57
f 94//58 93//57 95//59
f 96//60 94//58 95//59
f 97//19 95//19 98//19
f 95//19 93//19 98//19
f 98//19 93//19 91//19
f 98//19 91//19 90//19
f 99//20 96//20 100//20
f 99//20 94//20 96//20
f 92//20 94//20 99//20
f 89//20 92//20 99//20
f 101//61 102//62 103//31
f 101//61 103//31 104//31
f 103//31 105//63 106//64
f 104//31 103//31 106//64
f 107//65 108//66 109//67
f 107//65 109//67 110//68
f 111//69 107//65 110//68
f 111//69 110//68 112//70
f 113//71 111//69 112//70
f 113//71 112//70 114//72
f 115//19 113//19 116//19
f 111//19 113//19 115//19
f 111//19 115//19 107//19
f 107//19 115//19 108//19
f 117//20 114//20 118//20
f 118//20 114//20 112//20
f 110//20 118//20 112//20
f 109//20 118//20 110//20
f 119//73 120//73 90//54
f 119//73 90//54 89//53
f 108//66 121//74 122//74
f 109//67 108//66 122//74
f 123//75 120//73 119//73
f 123//75 119//73 124//76
f 125//77 123//75 124//76
f 125//77 124//76 126//78
f 127//79 125//77 126//78
f 127//79 126//78 128//79
f 125//19 129//19 123//19
f 123//19 129//19 120//19
f 130//20 126//20 124//20
f 130//20 124//20 119//20
f 131//19 132//19 84//19
f 131//19 133//19 132//19
f 131//19 134//19 133//19
f 1//19 135//19 129//19
f 131//19 84//19 1//19
f 131//19 1//19 129//19
f 131//19 129//19 125//19
f 131//19 125//19 127//19
f 134//19 131//19 127//19
f 134//19 127//19 136//19
f 122//74 121//74 137//80
f 138//81 122//74 137//80
f 138//81 137//80 139//82
f 140//83 138//81 139//82
f 140//83 139//82 141//84
f 142//84 140//83 141//84
f 143//19 139//19 137//19
f 143//19 137//19 121//19
f 140//20 144//20 138//20
f 138//20 144//20 122//20
f 83//20 145//20 146//20
f 145//20 147//20 146//20
f 147//20 148//20 146//20
f 130//20 149//20 4//20
f 4//20 83//20 146//20
f 4//20 146//20 130//20
f 126//20 130//20 146//20
f 126//20 146//20 128//20
f 128//20 146//20 148//20
f 128//20 148//20 150//20
f 85//19 151//19 152//19
f 151//19 153//19 152//19
f 153//19 154//19 152//19
f 143//19 155//19 17//19
f 139//19 143//19 152//19
f 139//19 152//19 141//19
f 141//19 152//19 154//19
f 141//19 154//19 156//19
f 157//20 158//20 86//20
f 157//20 159//20 158//20
f 157//20 160//20 159//20
f 18//20 161//20 144//20
f 157//20 86//20 18//20
f 157//20 18//20 144//20
f 160//20 157//20 142//20
f 160//20 142//20 162//20
f 152//19 143//19 17//19
f 152//19 17//19 85//19
f 144//20 140//20 142//20
f 144//20 142//20 157//20
f 141//84 156//85 162//85
f 141//84 162//85 142//84
f 163//23 164//23 38//23
f 163//23 38//23 76//23
f 35//22 165//22 166//22
f 35//22 166//22 79//22
f 164//19 156//19 154//19
f 164//19 154//19 38//19
f 76//20 160//20 162//20
f 76//20 162//20 163//20
f 162//85 156//85 164//86
f 162//85 164//86 163//86
f 136//19 165//19 35//19
f 136//19 35//19 134//19
f 166//87 165//87 136//88
f 166//87 136//88 150//89
f 148//20 79//20 166//20
f 148//20 166//20 150//20
f 150//89 136//88 127//79
f 150//89 127//79 128//79
f 96//60 95//59 102//62
f 96//60 102//62 100//90
f 105//63 113//71 114//72
f 105//63 114//72 106//64
f 135//19 1//19 167//19
f 129//19 135//19 167//19
f 168//19 169//19 170//19
f 168//19 170//19 98//19
f 171//19 172//19 173//19
f 115//19 171//19 173//19
f 174//19 17//19 155//19
f 174//19 155//19 143//19
f 120//19 129//19 167//19
f 90//19 168//19 98//19
f 173//19 108//19 115//19
f 174//19 143//19 121//19
f 108//19 173//19 174//19
f 108//19 174//19 121//19
f 90//19 120//19 167//19
f 90//19 167//19 168//19
f 175//20 4//20 149//20
f 175//20 149//20 130//20
f 176//20 177//20 178//20
f 99//20 176//20 178//20
f 179//20 180//20 181//20
f 179//20 181//20 118//20
f 161//20 18//20 182//20
f 144//20 161//20 182//20
f 130//20 119//20 175//20
f 178//20 89//20 99//20
f 109//20 179//20 118//20
f 144//20 182//20 122//20
f 182//20 179//20 109//20
f 182//20 109//20 122//20
f 175//20 119//20 89//20
f 175//20 89//20 178//20
f 183//91 184//92 185//93
f 183//91 185//93 186//93
f 187//94 188//95 184//92
f 187//94 184//92 183//91
f 189//96 190//97 188//95
f 189//96 188//95 187//94
f 191//98 192//99 190//97
f 191//98 190//97 189//96
f 193//100 194//101 192//99
f 193//100 192//99 191//98
f 195//102 196//103 194//101
f 195//102 194//101 193//100
f 197//104 198//105 196//103
f 197//104 196//103 195//102
f 199//106 200//106 198//105
f 199//106 198//105 197//104
f 201//19 202//19 203//19
f 204//19 205//19 206//19
f 207//19 208//19 209//19
f 210//19 211//19 212//19
f 213//19 201//19 203//19
f 214//19 215//19 213//19
f 203//19 214//19 213//19
f 201//19 213//19 216//19
f 217//19 201//19 216//19
f 204//19 206//19 218//19
f 219//19 220//19 218//19
f 206//19 219//19 218//19
f 218//19 221//19 222//19
f 204//19 218//19 222//19
f 209//19 223//19 224//19
f 225//19 209//19 224//19
f 225//19 207//19 209//19
f 226//19 227//19 207//19
f 225//19 226//19 207//19
f 228//19 210//19 212//19
f 228//19 212//19 229//19
f 230//19 228//19 229//19
f 210//19 228//19 231//19
f 232//19 210//19 231//19
f 233//20 234//20 235//20
f 236//20 237//20 238//20
f 239//20 240//20 241//20
f 242//20 243//20 244//20
f 245//20 233//20 235//20
f 246//20 247//20 245//20
f 235//20 246//20 245//20
f 233//20 245//20 248//20
f 249//20 233//20 248//20
f 236//20 238//20 250//20
f 251//20 252//20 250//20
f 238//20 251//20 250//20
f 250//20 253//20 254//20
f 236//20 250//20 254//20
f 241//20 255//20 256//20
f 257//20 241//20 256//20
f 257//20 239//20 241//20
f 258//20 259//20 239//20
f 257//20 258//20 239//20
f 260//20 242//20 244//20
f 260//20 244//20 261//20
f 262//20 260//20 261//20
f 242//20 260//20 263//20
f 264//20 242//20 263//20
f 265//22 266//22 264//29
f 214//29 265//22 264//29
f 255//25 267//23 268//23
f 255//25 268//23 222//25
f 268//23 267//23 254//24
f 223//24 268//23 254//24
f 251//107 269//31 270//31
f 251//107 270//31 227//107
f 270//31 269//31 249//108
f 229//108 270//31 249//108
f 246//21 266//22 265//22
f 246//21 265//22 232//21
f 214//26 264//26 263//109
f 215//109 214//26 263//109
f 213//50 215//109 263//109
f 260//50 213//50 263//109
f 216//48 213//49 260//49
f 262//47 216//48 260//49
f 217//22 216//48 262//47
f 261//22 217//22 262//47
f 219//23 259//23 258//110
f 220//110 219//23 258//110
f 218//44 220//110 258//110
f 257//44 218//44 258//110
f 221//42 218//43 257//43
f 256//41 221//42 257//43
f 222//26 221//42 256//41
f 255//26 222//26 256//41
f 224//40 223//31 254//31
f 253//39 224//40 254//31
f 225//38 224//40 253//39
f 250//38 225//38 253//39
f 226//111 225//37 250//37
f 252//112 226//111 250//37
f 227//23 226//111 252//112
f 251//23 227//23 252//112
f 230//35 229//22 249//22
f 248//34 230//35 249//22
f 228//33 230//35 248//34
f 245//33 228//33 248//34
f 231//113 228//32 245//32
f 247//114 231//113 245//32
f 232//31 231//113 247//114
f 246//31 232//31 247//114
f 271//75 272//115 273//116
f 271//75 273//116 274//76
f 275//77 271//75 274//76
f 275//77 274//76 276//78
f 277//117 275//77 276//78
f 277//117 276//78 278//118
f 279//19 277//19 280//19
f 279//19 275//19 277//19
f 271//19 275//19 279//19
f 272//19 271//19 279//19
f 281//20 278//20 282//20
f 278//20 276//20 282//20
f 282//20 276//20 274//20
f 282//20 274//20 273//20
f 283//26 284//119 285//120
f 286//26 283//26 285//120
f 287//121 288//122 283//26
f 287//121 283//26 286//26
f 289//123 290//124 291//80
f 292//81 289//123 291//80
f 292//81 291//80 293//82
f 294//83 292//81 293//82
f 294//83 293//82 295//125
f 296//126 294//83 295//125
f 297//19 295//19 298//19
f 298//19 295//19 293//19
f 291//19 298//19 293//19
f 290//19 298//19 291//19
f 299//20 296//20 300//20
f 294//20 296//20 299//20
f 294//20 299//20 292//20
f 292//20 299//20 289//20
f 272//115 301//127 302//127
f 273//116 272//115 302//127
f 303//128 304//128 290//124
f 303//128 290//124 289//123
f 302//127 301//127 305//55
f 306//56 302//127 305//55
f 306//56 305//55 307//57
f 308//58 306//56 307//57
f 308//58 307//57 309//129
f 310//129 308//58 309//129
f 305//19 311//19 307//19
f 301//19 311//19 305//19
f 306//20 308//20 312//20
f 302//20 306//20 312//20
f 265//19 313//19 314//19
f 313//19 315//19 314//19
f 315//19 316//19 314//19
f 311//19 317//19 185//19
f 185//19 265//19 314//19
f 311//19 185//19 314//19
f 307//19 311//19 314//19
f 309//19 307//19 314//19
f 309//19 314//19 316//19
f 318//19 309//19 316//19
f 319//65 304//128 303//128
f 319//65 303//128 320//68
f 321//69 319//65 320//68
f 321//69 320//68 322//70
f 323//130 321//69 322//70
f 323//130 322//70 324//130
f 319//19 321//19 325//19
f 304//19 319//19 325//19
f 320//20 326//20 322//20
f 303//20 326//20 320//20
f 327//20 328//20 266//20
f 327//20 329//20 328//20
f 327//20 330//20 329//20
f 186//20 331//20 312//20
f 327//20 266//20 186//20
f 312//20 327//20 186//20
f 327//20 312//20 308//20
f 310//20 327//20 308//20
f 330//20 327//20 310//20
f 332//20 330//20 310//20
f 333//19 334//19 268//19
f 333//19 335//19 334//19
f 333//19 336//19 335//19
f 200//19 337//19 325//19
f 333//19 325//19 321//19
f 323//19 333//19 321//19
f 336//19 333//19 323//19
f 338//19 336//19 323//19
f 267//20 339//20 340//20
f 339//20 341//20 340//20
f 341//20 342//20 340//20
f 326//20 343//20 199//20
f 199//20 267//20 340//20
f 326//20 199//20 340//20
f 324//20 340//20 342//20
f 344//20 324//20 342//20
f 200//19 325//19 333//19
f 268//19 200//19 333//19
f 324//20 322//20 326//20
f 340//20 324//20 326//20
f 344//131 338//131 323//130
f 324//130 344//131 323//130
f 219//23 345//23 346//23
f 259//23 219//23 346//23
f 347//22 348//22 217//22
f 261//22 347//22 217//22
f 336//19 338//19 345//19
f 219//19 336//19 345//19
f 344//20 342//20 259//20
f 346//20 344//20 259//20
f 345//132 338//131 344//131
f 346//132 345//132 344//131
f 217//19 348//19 318//19
f 316//19 217//19 318//19
f 318//133 348//134 347//134
f 332//135 318//133 347//134
f 347//20 261//20 330//20
f 332//20 347//20 330//20
f 309//129 318//133 332//135
f 310//129 309//129 332//135
f 284//119 277//117 278//118
f 281//136 284//119 278//118
f 296//126 295//125 288//122
f 287//121 296//126 288//122
f 349//19 185//19 317//19
f 349//19 317//19 311//19
f 350//19 169//19 351//19
f 279//19 350//19 351//19
f 352//19 172//19 353//19
f 352//19 353//19 298//19
f 337//19 200//19 354//19
f 325//19 337//19 354//19
f 349//19 311//19 301//19
f 279//19 351//19 272//19
f 298//19 290//19 352//19
f 304//19 325//19 354//19
f 354//19 352//19 290//19
f 304//19 354//19 290//19
f 349//19 301//19 272//19
f 351//19 349//19 272//19
f 331//20 186//20 355//20
f 312//20 331//20 355//20
f 356//20 177//20 357//20
f 356//20 357//20 282//20
f 358//20 180//20 359//20
f 299//20 358//20 359//20
f 360//20 199//20 343//20
f 360//20 343//20 326//20
f 355//20 302//20 312//20
f 282//20 273//20 356//20
f 299//20 359//20 289//20
f 303//20 360//20 326//20
f 289//20 359//20 360//20
f 303//20 289//20 360//20
f 273//20 302//20 355//20
f 356//20 273//20 355//20
f 17//17 200//106 199//106
f 18//18 17//17 199//106
f 185//93 1//1 4//4
f 186//93 185//93 4//4
f 361//19 362//19 363//19
f 361//19 363//19 364//19
f 365//19 366//19 362//19
f 365//19 362//19 361//19
f 367//19 368//19 366//19
f 367//19 366//19 365//19
f 369//19 370//19 368//19
f 369//19 368//19 367//19
f 371//19 372//19 370//19
f 371//19 370//19 369//19
f 373//19 374//19 372//19
f 373//19 372//19 371//19
f 375//19 376//19 374//19
f 375//19 374//19 373//19
f 377//19 378//19 376//19
f 377//19 376//19 375//19
f 379//19 380//19 378//19
f 379//19 378//19 377//19
f 381//19 382//19 380//19
f 381//19 380//19 379//19
f 383//19 384//19 382//19
f 383//19 382//19 381//19
f 385//19 386//19 384//19
f 385//19 384//19 383//19
f 387//19 388//19 386//19
f 387//19 386//19 385//19
f 389//19 390//19 388//19
f 389//19 388//19 387//19
f 391//19 392//19 390//19
f 391//19 390//19 389//19
f 364//19 363//19 392//19
f 364//19 392//19 391//19
f 393//137 387//138 385//139
f 394//140 393//137 385//139
f 395//141 389//142 387//138
f 393//137 395//141 387//138
f 396//143 391//144 389//142
f 395//141 396//143 389//142
f 397//145 364//146 391//144
f 396//143 397//145 391//144
f 398//147 361//148 364//146
f 397//145 398//147 364//146
f 399//149 365//150 361//148
f 398//147 399//149 361//148
f 400//151 367//152 365//150
f 399//149 400//151 365//150
f 401//153 369//154 367//152
f 400//151 401//153 367//152
f 402//155 371//156 369//154
f 401//153 402//155 369//154
f 403//157 373//158 371//156
f 402//155 403//157 371//156
f 404//159 375//160 373//158
f 403//157 404//159 373//158
f 405//161 377//162 375//160
f 404//159 405//161 375//160
f 406//163 379//164 377//162
f 405//161 406//163 377//162
f 407//165 381//166 379//164
f 406//163 407//165 379//164
f 408//167 383//168 381//166
f 407//165 408//167 381//166
f 394//140 385//139 383//168
f 408//167 394//140 383//168
f 409//20 410//20 411//20
f 412//20 409//20 411//20
f 410//20 413//20 414//20
f 411//20 410//20 414//20
f 413//20 415//20 416//20
f 414//20 413//20 416//20
f 415//20 417//20 418//20
f 416//20 415//20 418//20
f 417//20 419//20 420//20
f 418//20 417//20 420//20
f 419//20 421//20 422//20
f 420//20 419//20 422//20
f 421//20 423//20 424//20
f 422//20 421//20 424//20
f 423//20 425//20 426//20
f 424//20 423//20 426//20
f 425//20 427//20 428//20
f 426//20 425//20 428//20
f 427//20 429//20 430//20
f 428//20 427//20 430//20
f 429//20 431//20 432//20
f 430//20 429//20 432//20
f 431//20 433//20 434//20
f 432//20 431//20 434//20
f 433//20 435//20 436//20
f 434//20 433//20 436//20
f 435//20 437//20 438//20
f 436//20 435//20 438//20
f 437//20 439//20 440//20
f 438//20 437//20 440//20
f 439//20 409//20 412//20
f 440//20 439//20 412//20
f 434//139 436//138 441//137
f 434//139 441//137 442//140
f 436//138 438//142 443//141
f 436//138 443//141 441//137
f 438//142 440//144 444//143
f 438//142 444//143 443//141
f 440//144 412//146 445//145
f 440//144 445//145 444//143
f 412//146 411//148 446//147
f 412//146 446//147 445//145
f 411//148 414//150 447//149
f 411//148 447//149 446//147
f 414//150 416//152 448//151
f 414//150 448//151 447//149
f 416//152 418//154 449//153
f 416//152 449//153 448//151
f 418//154 420//156 450//155
f 418//154 450//155 449//153
f 420//156 422//158 451//157
f 420//156 451//157 450//155
f 422//158 424//160 452//159
f 422//158 452//159 451//157
f 424//160 426//162 453//161
f 424//160 453//161 452//159
f 426//162 428//164 454//163
f 426//162 454//163 453//161
f 428//164 430//166 455//165
f 428//164 455//165 454//163
f 430//166 432//168 456//167
f 430//166 456//167 455//165
f 432//168 434//139 442//140
f 432//168 442//140 456//167
f 388//169 435//170 433//171
f 386//172 388//169 433//171
f 390//173 437//174 435//170
f 388//169 390//173 435//170
f 392//175 439//176 437//174
f 390//173 392//175 437//174
f 363//177 409//178 439//176
f 392//175 363//177 439//176
f 362//179 410//180 409//178
f 363//177 362//179 409//178
f 366//181 413//182 410//180
f 362//179 366//181 410//180
f 368//183 415//184 413//182
f 366//181 368//183 413//182
f 370//185 417//186 415//184
f 368//183 370//185 415//184
f 372//187 419//188 417//186
f 370//185 372//187 417//186
f 374//189 421//190 419//188
f 372//187 374//189 419//188
f 376//191 423//192 421//190
f 374//189 376//191 421//190
f 378//193 425//194 423//192
f 376//191 378//193 423//192
f 380//195 427//196 425//194
f 378//193 380//195 425//194
f 382//197 429//198 427//196
f 380//195 382//197 427//196
f 384//199 431//200 429//198
f 382//197 384//199 429//198
f 386//172 433//171 431//200
f 384//199 386//172 431//200
f 4//20 3//20 457//20
f 4//20 457//20 83//20
f 3//20 6//20 458//20
f 3//20 458//20 457//20
f 6//20 8//20 459//20
f 6//20 459//20 458//20
f 8//20 10//20 88//20
f 8//20 88//20 459//20
f 10//20 12//20 460//20
f 10//20 460//20 88//20
f 12//20 14//20 461//20
f 12//20 461//20 460//20
f 14//20 16//20 462//20
f 14//20 462//20 461//20
f 16//20 18//20 86//20
f 16//20 86//20 462//20
f 463//19 2//19 1//19
f 84//19 463//19 1//19
f 464//19 5//19 2//19
f 463//19 464//19 2//19
f 465//19 7//19 5//19
f 464//19 465//19 5//19
f 87//19 9//19 7//19
f 465//19 87//19 7//19
f 466//19 11//19 9//19
f 87//19 466//19 9//19
f 467//19 13//19 11//19
f 466//19 467//19 11//19
f 468//19 15//19 13//19
f 467//19 468//19 13//19
f 85//19 17//19 15//19
f 468//19 85//19 15//19
f 469//19 198//19 200//19
f 268//19 469//19 200//19
f 470//19 196//19 198//19
f 469//19 470//19 198//19
f 471//19 194//19 196//19
f 470//19 471//19 196//19
f 270//19 192//19 194//19
f 471//19 270//19 194//19
f 472//19 190//19 192//19
f 270//19 472//19 192//19
f 473//19 188//19 190//19
f 472//19 473//19 190//19
f 474//19 184//19 188//19
f 473//19 474//19 188//19
f 265//19 185//19 184//19
f 474//19 265//19 184//19
f 199//20 197//20 475//20
f 199//20 475//20 267//20
f 197//20 195//20 476//20
f 197//20 476//20 475//20
f 195//20 193//20 477//20
f 195//20 477//20 476//20
f 193//20 191//20 269//20
f 193//20 269//20 477//20
f 191//20 189//20 478//20
f 191//20 478//20 269//20
f 189//20 187//20 479//20
f 189//20 479//20 478//20
f 187//20 183//20 480//20
f 187//20 480//20 479//20
f 183//20 186//20 266//20
f 183//20 266//20 480//20
f 169//19 350//19 393//19
f 169//19 393//19 394//19
f 350//19 279//19 395//19
f 350//19 395//19 393//19
f 279//19 284//19 396//19
f 279//19 396//19 395//19
f 284//19 283//19 397//19
f 284//19 397//19 396//19
f 283//19 288//19 398//19
f 283//19 398//19 397//19
f 288//19 298//19 399//19
f 288//19 399//19 398//19
f 298//19 353//19 400//19
f 298//19 400//19 399//19
f 353//19 172//19 401//19
f 353//19 401//19 400//19
f 172//19 171//19 402//19
f 172//19 402//19 401//19
f 171//19 115//19 403//19
f 171//19 403//19 402//19
f 115//19 105//19 404//19
f 115//19 404//19 403//19
f 105//19 103//19 405//19
f 105//19 405//19 404//19
f 103//19 102//19 406//19
f 103//19 406//19 405//19
f 102//19 98//19 407//19
f 102//19 407//19 406//19
f 98//19 170//19 408//19
f 98//19 408//19 407//19
f 170//19 169//19 394//19
f 170//19 394//19 408//19
f 441//20 357//20 177//20
f 442//20 441//20 177//20
f 443//20 282//20 357//20
f 441//20 443//20 357//20
f 444//20 285//20 282//20
f 443//20 444//20 282//20
f 445//20 286//20 285//20
f 444//20 445//20 285//20
f 446//20 287//20 286//20
f 445//20 446//20 286//20
f 447//20 299//20 287//20
f 446//20 447//20 287//20
f 448//20 358//20 299//20
f 447//20 448//20 299//20
f 449//20 180//20 358//20
f 448//20 449//20 358//20
f 450//20 181//20 180//20
f 449//20 450//20 180//20
f 451//20 118//20 181//20
f 450//20 451//20 181//20
f 452//20 106//20 118//20
f 451//20 452//20 118//20
f 453//20 104//20 106//20
f 452//20 453//20 106//20
f 454//20 101//20 104//20
f 453//20 454//20 104//20
f 455//20 99//20 101//20
f 454//20 455//20 101//20
f 456//20 176//20 99//20
f 455//20 456//20 99//20
f 442//20 177//20 176//20
f 456//20 442//20 176//20
