# Botball Lab: metres, +Y up, centred XZ, base Y=0
s off
v -0.0025218 0.0112000 -0.0006123
v -0.0025218 0.0096000 -0.0006123
v -0.0024000 0.0096000 -0.0000000
v -0.0024000 0.0112000 -0.0000000
v -0.0028686 0.0112000 -0.0011314
v -0.0028686 0.0096000 -0.0011314
v -0.0033877 0.0112000 -0.0014782
v -0.0033877 0.0096000 -0.0014782
v -0.0040000 0.0112000 -0.0016000
v -0.0040000 0.0096000 -0.0016000
v -0.0046123 0.0112000 -0.0014782
v -0.0046123 0.0096000 -0.0014782
v -0.0051314 0.0112000 -0.0011314
v -0.0051314 0.0096000 -0.0011314
v -0.0054782 0.0112000 -0.0006123
v -0.0054782 0.0096000 -0.0006123
v -0.0056000 0.0112000 -0.0000000
v -0.0056000 0.0096000 -0.0000000
v -0.0054782 0.0112000 0.0006123
v -0.0054782 0.0096000 0.0006123
v -0.0051314 0.0112000 0.0011314
v -0.0051314 0.0096000 0.0011314
v -0.0046123 0.0112000 0.0014782
v -0.0046123 0.0096000 0.0014782
v -0.0040000 0.0112000 0.0016000
v -0.0040000 0.0096000 0.0016000
v -0.0033877 0.0112000 0.0014782
v -0.0033877 0.0096000 0.0014782
v -0.0028686 0.0112000 0.0011314
v -0.0028686 0.0096000 0.0011314
v -0.0025218 0.0112000 0.0006123
v -0.0025218 0.0096000 0.0006123
v -0.0016000 0.0096000 -0.0000000
v -0.0017826 0.0096000 -0.0009185
v -0.0017826 0.0112000 -0.0009185
v -0.0016000 0.0112000 -0.0000000
v -0.0023030 0.0096000 -0.0016970
v -0.0023030 0.0112000 -0.0016970
v -0.0030815 0.0096000 -0.0022174
v -0.0030815 0.0112000 -0.0022174
v -0.0040000 0.0096000 -0.0024000
v -0.0040000 0.0112000 -0.0024000
v -0.0049185 0.0096000 -0.0022174
v -0.0049185 0.0112000 -0.0022174
v -0.0056970 0.0096000 -0.0016970
v -0.0056970 0.0112000 -0.0016970
v -0.0062174 0.0096000 -0.0009185
v -0.0062174 0.0112000 -0.0009185
v -0.0064000 0.0096000 -0.0000000
v -0.0064000 0.0112000 -0.0000000
v -0.0062174 0.0096000 0.0009185
v -0.0062174 0.0112000 0.0009185
v -0.0056970 0.0096000 0.0016970
v -0.0056970 0.0112000 0.0016970
v -0.0049185 0.0096000 0.0022174
v -0.0049185 0.0112000 0.0022174
v -0.0040000 0.0096000 0.0024000
v -0.0040000 0.0112000 0.0024000
v -0.0030815 0.0096000 0.0022174
v -0.0030815 0.0112000 0.0022174
v -0.0023030 0.0096000 0.0016970
v -0.0023030 0.0112000 0.0016970
v -0.0017826 0.0096000 0.0009185
v -0.0017826 0.0112000 0.0009185
v 0.0054782 0.0112000 -0.0006123
v 0.0054782 0.0096000 -0.0006123
v 0.0056000 0.0096000 -0.0000000
v 0.0056000 0.0112000 -0.0000000
v 0.0051314 0.0112000 -0.0011314
v 0.0051314 0.0096000 -0.0011314
v 0.0046123 0.0112000 -0.0014782
v 0.0046123 0.0096000 -0.0014782
v 0.0040000 0.0112000 -0.0016000
v 0.0040000 0.0096000 -0.0016000
v 0.0033877 0.0112000 -0.0014782
v 0.0033877 0.0096000 -0.0014782
v 0.0028686 0.0112000 -0.0011314
v 0.0028686 0.0096000 -0.0011314
v 0.0025218 0.0112000 -0.0006123
v 0.0025218 0.0096000 -0.0006123
v 0.0024000 0.0112000 -0.0000000
v 0.0024000 0.0096000 -0.0000000
v 0.0025218 0.0112000 0.0006123
v 0.0025218 0.0096000 0.0006123
v 0.0028686 0.0112000 0.0011314
v 0.0028686 0.0096000 0.0011314
v 0.0033877 0.0112000 0.0014782
v 0.0033877 0.0096000 0.0014782
v 0.0040000 0.0112000 0.0016000
v 0.0040000 0.0096000 0.0016000
v 0.0046123 0.0112000 0.0014782
v 0.0046123 0.0096000 0.0014782
v 0.0051314 0.0112000 0.0011314
v 0.0051314 0.0096000 0.0011314
v 0.0054782 0.0112000 0.0006123
v 0.0054782 0.0096000 0.0006123
v 0.0064000 0.0096000 -0.0000000
v 0.0062174 0.0096000 -0.0009185
v 0.0062174 0.0112000 -0.0009185
v 0.0064000 0.0112000 -0.0000000
v 0.0056970 0.0096000 -0.0016970
v 0.0056970 0.0112000 -0.0016970
v 0.0049185 0.0096000 -0.0022174
v 0.0049185 0.0112000 -0.0022174
v 0.0040000 0.0096000 -0.0024000
v 0.0040000 0.0112000 -0.0024000
v 0.0030815 0.0096000 -0.0022174
v 0.0030815 0.0112000 -0.0022174
v 0.0023030 0.0096000 -0.0016970
v 0.0023030 0.0112000 -0.0016970
v 0.0017826 0.0096000 -0.0009185
v 0.0017826 0.0112000 -0.0009185
v 0.0016000 0.0096000 -0.0000000
v 0.0016000 0.0112000 -0.0000000
v 0.0017826 0.0096000 0.0009185
v 0.0017826 0.0112000 0.0009185
v 0.0023030 0.0096000 0.0016970
v 0.0023030 0.0112000 0.0016970
v 0.0030815 0.0096000 0.0022174
v 0.0030815 0.0112000 0.0022174
v 0.0040000 0.0096000 0.0024000
v 0.0040000 0.0112000 0.0024000
v 0.0049185 0.0096000 0.0022174
v 0.0049185 0.0112000 0.0022174
v 0.0056970 0.0096000 0.0016970
v 0.0056970 0.0112000 0.0016970
v 0.0062174 0.0096000 0.0009185
v 0.0062174 0.0112000 0.0009185
v -0.0080000 0.0096000 -0.0040000
v -0.0080000 0.0096000 0.0040000
v 0.0080000 0.0096000 0.0040000
v 0.0080000 0.0096000 -0.0040000
v -0.0080000 0.0000000 -0.0040000
v -0.0080000 0.0000000 0.0040000
v 0.0080000 0.0000000 0.0040000
v 0.0080000 0.0000000 -0.0040000
v -0.0024000 0.0032000 -0.0040000
v 0.0024000 0.0032000 -0.0040000
v 0.0024000 0.0032000 0.0040000
v -0.0024000 0.0032000 0.0040000
v 0.0024000 0.0080000 -0.0040000
v -0.0024000 0.0080000 -0.0040000
v -0.0024000 0.0080000 0.0040000
v 0.0024000 0.0080000 0.0040000
v 0.0000000 0.0080000 0.0040000
v 0.0009185 0.0078174 0.0040000
v 0.0016970 0.0072970 0.0040000
v 0.0022174 0.0065185 0.0040000
v -0.0009185 0.0078174 0.0040000
v -0.0016970 0.0072970 0.0040000
v -0.0022174 0.0065185 0.0040000
v 0.0009185 0.0033826 0.0040000
v 0.0000000 0.0032000 0.0040000
v 0.0016970 0.0039030 0.0040000
v 0.0022174 0.0046815 0.0040000
v -0.0009185 0.0033826 0.0040000
v -0.0016970 0.0039030 0.0040000
v -0.0022174 0.0046815 0.0040000
v 0.0009185 0.0078174 -0.0040000
v 0.0000000 0.0080000 -0.0040000
v 0.0016970 0.0072970 -0.0040000
v 0.0022174 0.0065185 -0.0040000
v -0.0009185 0.0078174 -0.0040000
v -0.0016970 0.0072970 -0.0040000
v -0.0022174 0.0065185 -0.0040000
v 0.0000000 0.0032000 -0.0040000
v 0.0009185 0.0033826 -0.0040000
v 0.0016970 0.0039030 -0.0040000
v 0.0022174 0.0046815 -0.0040000
v -0.0009185 0.0033826 -0.0040000
v -0.0016970 0.0039030 -0.0040000
v -0.0022174 0.0046815 -0.0040000
v 0.0064000 0.0000000 -0.0024000
v -0.0064000 0.0000000 -0.0024000
v -0.0064000 0.0000000 0.0024000
v 0.0064000 0.0000000 0.0024000
v -0.0064000 0.0080000 -0.0024000
v -0.0064000 0.0080000 0.0024000
v 0.0064000 0.0080000 -0.0024000
v 0.0064000 0.0080000 0.0024000
v 0.0009184 0.0078173 -0.0040000
v 0.0016971 0.0072971 -0.0040000
v 0.0022173 0.0065184 -0.0040000
v 0.0022173 0.0046816 -0.0040000
v 0.0016971 0.0039029 -0.0040000
v 0.0009184 0.0033827 -0.0040000
v -0.0009184 0.0033827 -0.0040000
v -0.0016971 0.0039029 -0.0040000
v -0.0022173 0.0046816 -0.0040000
v -0.0022173 0.0065184 -0.0040000
v -0.0016971 0.0072971 -0.0040000
v -0.0009184 0.0078173 -0.0040000
v 0.0010000 0.0066000 -0.0040000
v 0.0008000 0.0072000 -0.0040000
v 0.0008000 0.0078409 -0.0040000
v 0.0016000 0.0064000 -0.0040000
v 0.0022409 0.0064000 -0.0040000
v 0.0010000 0.0046000 -0.0040000
v 0.0016000 0.0048000 -0.0040000
v 0.0022409 0.0048000 -0.0040000
v 0.0008000 0.0033591 -0.0040000
v 0.0008000 0.0040000 -0.0040000
v -0.0008000 0.0040000 -0.0040000
v -0.0008000 0.0033591 -0.0040000
v -0.0010000 0.0046000 -0.0040000
v -0.0022409 0.0048000 -0.0040000
v -0.0016000 0.0048000 -0.0040000
v -0.0010000 0.0066000 -0.0040000
v -0.0022409 0.0064000 -0.0040000
v -0.0016000 0.0064000 -0.0040000
v -0.0008000 0.0072000 -0.0040000
v -0.0008000 0.0078409 -0.0040000
v -0.0009184 0.0078173 0.0040000
v -0.0016971 0.0072971 0.0040000
v -0.0022173 0.0065184 0.0040000
v -0.0022173 0.0046816 0.0040000
v -0.0016971 0.0039029 0.0040000
v -0.0009184 0.0033827 0.0040000
v 0.0009184 0.0033827 0.0040000
v 0.0016971 0.0039029 0.0040000
v 0.0022173 0.0046816 0.0040000
v 0.0022173 0.0065184 0.0040000
v 0.0016971 0.0072971 0.0040000
v 0.0009184 0.0078173 0.0040000
v -0.0010000 0.0066000 0.0040000
v -0.0008000 0.0072000 0.0040000
v -0.0008000 0.0078409 0.0040000
v -0.0016000 0.0064000 0.0040000
v -0.0022409 0.0064000 0.0040000
v -0.0010000 0.0046000 0.0040000
v -0.0016000 0.0048000 0.0040000
v -0.0022409 0.0048000 0.0040000
v -0.0008000 0.0033591 0.0040000
v -0.0008000 0.0040000 0.0040000
v 0.0008000 0.0040000 0.0040000
v 0.0008000 0.0033591 0.0040000
v 0.0010000 0.0046000 0.0040000
v 0.0022409 0.0048000 0.0040000
v 0.0016000 0.0048000 0.0040000
v 0.0010000 0.0066000 0.0040000
v 0.0022409 0.0064000 0.0040000
v 0.0016000 0.0064000 0.0040000
v 0.0008000 0.0072000 0.0040000
v 0.0008000 0.0078409 0.0040000
v 0.0024000 0.0064000 -0.0040000
v 0.0024000 0.0064000 0.0040000
v -0.0024000 0.0064000 0.0040000
v -0.0024000 0.0064000 -0.0040000
v -0.0024000 0.0048000 -0.0040000
v -0.0024000 0.0048000 0.0040000
v 0.0024000 0.0048000 0.0040000
v 0.0024000 0.0048000 -0.0040000
v 0.0024000 0.0064000 0.0024000
v 0.0024000 0.0048000 0.0024000
v 0.0024000 0.0048000 -0.0024000
v 0.0024000 0.0064000 -0.0024000
v -0.0024000 0.0048000 0.0024000
v -0.0024000 0.0064000 0.0024000
v -0.0024000 0.0064000 -0.0024000
v -0.0024000 0.0048000 -0.0024000
v -0.0024000 0.0080000 0.0024000
v -0.0024000 0.0080000 -0.0024000
v 0.0024000 0.0080000 -0.0024000
v 0.0024000 0.0080000 0.0024000
v -0.0012246 0.0026435 0.0024000
v -0.0012246 0.0026435 -0.0024000
v 0.0000000 0.0024000 -0.0024000
v 0.0000000 0.0024000 0.0024000
v -0.0022627 0.0033373 0.0024000
v -0.0022627 0.0033373 -0.0024000
v 0.0012246 0.0026435 -0.0024000
v 0.0012246 0.0026435 0.0024000
v 0.0022627 0.0033373 -0.0024000
v 0.0022627 0.0033373 0.0024000
v 0.0024000 0.0035427 0.0018200
v 0.0024000 0.0035427 -0.0018200
v -0.0024000 0.0035427 0.0018200
v -0.0024000 0.0035427 -0.0018200
v 0.0024000 0.0000000 0.0024000
v 0.0024000 0.0000000 -0.0024000
v -0.0024000 0.0000000 0.0024000
v -0.0024000 0.0000000 -0.0024000
v 0.0014000 0.0027607 -0.0024000
v -0.0014000 0.0027607 -0.0024000
v -0.0014000 0.0000000 -0.0024000
v 0.0014000 0.0000000 -0.0024000
v -0.0014000 0.0027607 0.0024000
v 0.0014000 0.0027607 0.0024000
v 0.0014000 0.0000000 0.0024000
v -0.0014000 0.0000000 0.0024000
v 0.0014000 0.0000000 0.0014000
v 0.0024000 0.0000000 0.0018200
v 0.0019800 0.0000000 0.0014000
v 0.0019800 0.0031483 0.0014000
v 0.0014000 0.0027607 0.0014000
v -0.0014000 0.0000000 0.0014000
v -0.0024000 0.0000000 0.0018200
v -0.0019800 0.0000000 0.0014000
v -0.0019800 0.0031483 0.0014000
v -0.0014000 0.0027607 0.0014000
v 0.0014000 0.0000000 -0.0014000
v 0.0024000 0.0000000 -0.0018200
v 0.0019800 0.0000000 -0.0014000
v 0.0019800 0.0031483 -0.0014000
v 0.0014000 0.0027607 -0.0014000
v -0.0014000 0.0000000 -0.0014000
v -0.0024000 0.0000000 -0.0018200
v -0.0019800 0.0000000 -0.0014000
v -0.0019800 0.0031483 -0.0014000
v -0.0014000 0.0027607 -0.0014000
f 1 2 3
f 4 1 3
f 5 6 2
f 1 5 2
f 7 8 6
f 5 7 6
f 9 10 8
f 7 9 8
f 11 12 10
f 9 11 10
f 13 14 12
f 11 13 12
f 15 16 14
f 13 15 14
f 17 18 16
f 15 17 16
f 19 20 18
f 17 19 18
f 21 22 20
f 19 21 20
f 23 24 22
f 21 23 22
f 25 26 24
f 23 25 24
f 27 28 26
f 25 27 26
f 29 30 28
f 27 29 28
f 31 32 30
f 29 31 30
f 4 3 32
f 31 4 32
f 33 34 35
f 33 35 36
f 34 37 38
f 34 38 35
f 37 39 40
f 37 40 38
f 39 41 42
f 39 42 40
f 41 43 44
f 41 44 42
f 43 45 46
f 43 46 44
f 45 47 48
f 45 48 46
f 47 49 50
f 47 50 48
f 49 51 52
f 49 52 50
f 51 53 54
f 51 54 52
f 53 55 56
f 53 56 54
f 55 57 58
f 55 58 56
f 57 59 60
f 57 60 58
f 59 61 62
f 59 62 60
f 61 63 64
f 61 64 62
f 63 33 36
f 63 36 64
f 44 11 9
f 44 9 42
f 46 13 11
f 46 11 44
f 48 15 13
f 48 13 46
f 50 17 15
f 50 15 48
f 52 19 17
f 52 17 50
f 54 21 19
f 54 19 52
f 56 23 21
f 56 21 54
f 58 25 23
f 58 23 56
f 60 27 25
f 60 25 58
f 62 29 27
f 62 27 60
f 64 31 29
f 64 29 62
f 36 4 31
f 36 31 64
f 35 1 4
f 35 4 36
f 38 5 1
f 38 1 35
f 40 7 5
f 40 5 38
f 42 9 7
f 42 7 40
f 65 66 67
f 68 65 67
f 69 70 66
f 65 69 66
f 71 72 70
f 69 71 70
f 73 74 72
f 71 73 72
f 75 76 74
f 73 75 74
f 77 78 76
f 75 77 76
f 79 80 78
f 77 79 78
f 81 82 80
f 79 81 80
f 83 84 82
f 81 83 82
f 85 86 84
f 83 85 84
f 87 88 86
f 85 87 86
f 89 90 88
f 87 89 88
f 91 92 90
f 89 91 90
f 93 94 92
f 91 93 92
f 95 96 94
f 93 95 94
f 68 67 96
f 95 68 96
f 97 98 99
f 97 99 100
f 98 101 102
f 98 102 99
f 101 103 104
f 101 104 102
f 103 105 106
f 103 106 104
f 105 107 108
f 105 108 106
f 107 109 110
f 107 110 108
f 109 111 112
f 109 112 110
f 111 113 114
f 111 114 112
f 113 115 116
f 113 116 114
f 115 117 118
f 115 118 116
f 117 119 120
f 117 120 118
f 119 121 122
f 119 122 120
f 121 123 124
f 121 124 122
f 123 125 126
f 123 126 124
f 125 127 128
f 125 128 126
f 127 97 100
f 127 100 128
f 108 75 73
f 108 73 106
f 110 77 75
f 110 75 108
f 112 79 77
f 112 77 110
f 114 81 79
f 114 79 112
f 116 83 81
f 116 81 114
f 118 85 83
f 118 83 116
f 120 87 85
f 120 85 118
f 122 89 87
f 122 87 120
f 124 91 89
f 124 89 122
f 126 93 91
f 126 91 124
f 128 95 93
f 128 93 126
f 100 68 95
f 100 95 128
f 99 65 68
f 99 68 100
f 102 69 65
f 102 65 99
f 104 71 69
f 104 69 102
f 106 73 71
f 106 71 104
f 129 130 131
f 132 129 131
f 133 134 130
f 129 133 130
f 135 136 132
f 131 135 132
f 136 133 137
f 136 137 138
f 135 139 140
f 135 140 134
f 132 141 142
f 132 142 129
f 131 130 143
f 131 143 144
f 136 138 141
f 136 141 132
f 135 131 144
f 135 144 139
f 133 129 142
f 133 142 137
f 134 140 143
f 134 143 130
f 145 146 144
f 146 147 144
f 147 148 144
f 143 149 145
f 143 150 149
f 143 151 150
f 139 152 153
f 139 154 152
f 139 155 154
f 153 156 140
f 156 157 140
f 157 158 140
f 141 159 160
f 141 161 159
f 141 162 161
f 160 163 142
f 163 164 142
f 164 165 142
f 166 167 138
f 167 168 138
f 168 169 138
f 137 170 166
f 137 171 170
f 137 172 171
f 136 173 174
f 136 174 133
f 135 134 175
f 135 175 176
f 136 135 176
f 136 176 173
f 133 174 175
f 133 175 134
f 175 174 177
f 175 177 178
f 179 173 176
f 179 176 180
f 181 182 183
f 184 185 186
f 187 188 189
f 190 191 192
f 181 183 193
f 193 194 195
f 193 195 181
f 196 193 183
f 196 183 197
f 198 184 186
f 198 199 200
f 198 200 184
f 201 202 198
f 201 198 186
f 203 204 187
f 203 187 205
f 187 189 205
f 189 206 207
f 189 207 205
f 190 192 208
f 209 190 208
f 209 208 210
f 211 208 192
f 211 192 212
f 213 214 215
f 216 217 218
f 219 220 221
f 222 223 224
f 213 215 225
f 225 226 227
f 225 227 213
f 228 225 215
f 228 215 229
f 230 216 218
f 230 231 232
f 230 232 216
f 233 234 230
f 233 230 218
f 235 236 219
f 235 219 237
f 219 221 237
f 221 238 239
f 221 239 237
f 222 224 240
f 241 222 240
f 241 240 242
f 243 240 224
f 243 224 244
f 244 145 160
f 244 160 195
f 166 153 236
f 201 166 236
f 233 153 166
f 233 166 204
f 160 145 227
f 212 160 227
f 243 244 195
f 243 195 194
f 243 194 193
f 243 193 240
f 240 193 196
f 240 196 242
f 242 196 197
f 242 197 241
f 239 238 200
f 239 200 199
f 239 199 198
f 239 198 237
f 237 198 202
f 237 202 235
f 235 202 201
f 235 201 236
f 233 204 203
f 233 203 234
f 234 203 205
f 234 205 230
f 230 205 207
f 230 207 231
f 231 207 206
f 231 206 232
f 229 209 210
f 229 210 228
f 228 210 208
f 228 208 225
f 225 208 211
f 225 211 226
f 226 211 212
f 226 212 227
f 241 197 245
f 241 245 246
f 247 248 209
f 247 209 229
f 232 206 249
f 232 249 250
f 251 252 200
f 251 200 238
f 251 246 253
f 251 253 254
f 252 255 256
f 252 256 245
f 250 257 258
f 250 258 247
f 259 260 249
f 259 249 248
f 221 139 251
f 221 251 238
f 222 241 246
f 222 246 144
f 229 151 143
f 229 143 247
f 140 158 232
f 140 232 250
f 197 183 141
f 197 141 245
f 142 165 209
f 142 209 248
f 137 249 206
f 137 206 172
f 138 184 200
f 138 200 252
f 258 261 262
f 259 258 262
f 262 261 178
f 177 262 178
f 263 264 253
f 263 253 256
f 180 264 263
f 180 263 179
f 265 266 267
f 265 267 268
f 269 270 266
f 269 266 265
f 267 271 272
f 268 267 272
f 271 273 274
f 272 271 274
f 275 274 273
f 275 273 276
f 255 254 275
f 255 275 276
f 270 269 277
f 270 277 278
f 277 257 260
f 277 260 278
f 254 253 180
f 254 180 176
f 254 176 279
f 179 256 255
f 179 255 173
f 280 173 255
f 178 258 257
f 178 257 175
f 281 175 257
f 260 259 177
f 260 177 174
f 260 174 282
f 178 261 258
f 259 262 177
f 263 256 179
f 264 180 253
f 283 284 285
f 283 285 286
f 287 288 289
f 287 289 290
f 279 289 291
f 279 291 292
f 291 293 292
f 293 294 275
f 293 275 292
f 291 295 294
f 291 294 293
f 289 288 295
f 289 295 291
f 254 279 292
f 254 292 275
f 296 290 281
f 296 281 297
f 298 296 297
f 277 299 298
f 277 298 297
f 299 300 296
f 299 296 298
f 290 296 300
f 290 300 287
f 297 281 257
f 297 257 277
f 301 286 280
f 301 280 302
f 303 301 302
f 276 304 303
f 276 303 302
f 304 305 301
f 304 301 303
f 286 301 305
f 286 305 283
f 302 280 255
f 302 255 276
f 282 285 306
f 282 306 307
f 306 308 307
f 308 309 278
f 308 278 307
f 306 310 309
f 306 309 308
f 285 284 310
f 285 310 306
f 260 282 307
f 260 307 278
