# Botball Lab: metres, +Y up, centred XZ, base Y=0
s off
v -0.0007000 0.0032000 -0.0000000
v -0.0007000 0.0032000 -0.0016000
v -0.0007000 0.0025877 -0.0014782
v -0.0007000 0.0020686 -0.0011314
v -0.0007000 0.0017218 -0.0006123
v -0.0007000 0.0016000 -0.0000000
v -0.0007000 0.0017218 0.0006123
v -0.0007000 0.0020686 0.0011314
v -0.0007000 0.0025877 0.0014782
v -0.0007000 0.0032000 0.0016000
v -0.0007000 0.0038123 0.0014782
v -0.0007000 0.0043314 0.0011314
v -0.0007000 0.0046782 0.0006123
v -0.0007000 0.0048000 -0.0000000
v -0.0007000 0.0046782 -0.0006123
v -0.0007000 0.0043314 -0.0011314
v -0.0007000 0.0038123 -0.0014782
v -0.0045000 0.0025877 -0.0014782
v -0.0045000 0.0032000 -0.0016000
v -0.0045000 0.0020686 -0.0011314
v -0.0045000 0.0017218 -0.0006123
v -0.0045000 0.0016000 -0.0000000
v -0.0045000 0.0017218 0.0006123
v -0.0045000 0.0020686 0.0011314
v -0.0045000 0.0025877 0.0014782
v -0.0045000 0.0032000 0.0016000
v -0.0045000 0.0038123 0.0014782
v -0.0045000 0.0043314 0.0011314
v -0.0045000 0.0046782 0.0006123
v -0.0045000 0.0048000 -0.0000000
v -0.0045000 0.0046782 -0.0006123
v -0.0045000 0.0043314 -0.0011314
v -0.0045000 0.0038123 -0.0014782
v 0.0001000 0.0032000 -0.0032000
v 0.0001000 0.0019754 -0.0029565
v -0.0007000 0.0019754 -0.0029565
v -0.0007000 0.0032000 -0.0032000
v 0.0001000 0.0009373 -0.0022627
v -0.0007000 0.0009373 -0.0022627
v 0.0001000 0.0002435 -0.0012246
v -0.0007000 0.0002435 -0.0012246
v 0.0001000 0.0000000 -0.0000000
v -0.0007000 0.0000000 -0.0000000
v 0.0001000 0.0002435 0.0012246
v -0.0007000 0.0002435 0.0012246
v 0.0001000 0.0009373 0.0022627
v -0.0007000 0.0009373 0.0022627
v 0.0001000 0.0019754 0.0029565
v -0.0007000 0.0019754 0.0029565
v 0.0001000 0.0032000 0.0032000
v -0.0007000 0.0032000 0.0032000
v 0.0001000 0.0044246 0.0029565
v -0.0007000 0.0044246 0.0029565
v 0.0001000 0.0054627 0.0022627
v -0.0007000 0.0054627 0.0022627
v 0.0001000 0.0061565 0.0012246
v -0.0007000 0.0061565 0.0012246
v 0.0001000 0.0064000 -0.0000000
v -0.0007000 0.0064000 -0.0000000
v 0.0001000 0.0061565 -0.0012246
v -0.0007000 0.0061565 -0.0012246
v 0.0001000 0.0054627 -0.0022627
v -0.0007000 0.0054627 -0.0022627
v 0.0001000 0.0044246 -0.0029565
v -0.0007000 0.0044246 -0.0029565
v -0.0007000 0.0009826 0.0009185
v -0.0007000 0.0008000 -0.0000000
v -0.0007000 0.0015030 0.0016970
v -0.0007000 0.0022815 0.0022174
v -0.0007000 0.0032000 0.0024000
v -0.0007000 0.0041185 0.0022174
v -0.0007000 0.0048970 0.0016970
v -0.0007000 0.0054174 0.0009185
v -0.0007000 0.0056000 -0.0000000
v -0.0007000 0.0054174 -0.0009185
v -0.0007000 0.0048970 -0.0016970
v -0.0007000 0.0041185 -0.0022174
v -0.0007000 0.0032000 -0.0024000
v -0.0007000 0.0022815 -0.0022174
v -0.0007000 0.0015030 -0.0016970
v -0.0007000 0.0009826 -0.0009185
v -0.0045000 0.0022815 -0.0022174
v -0.0045000 0.0032000 -0.0024000
v -0.0045000 0.0015030 -0.0016970
v -0.0045000 0.0009826 -0.0009185
v -0.0045000 0.0008000 -0.0000000
v -0.0045000 0.0009826 0.0009185
v -0.0045000 0.0015030 0.0016970
v -0.0045000 0.0022815 0.0022174
v -0.0045000 0.0032000 0.0024000
v -0.0045000 0.0041185 0.0022174
v -0.0045000 0.0048970 0.0016970
v -0.0045000 0.0054174 0.0009185
v -0.0045000 0.0056000 -0.0000000
v -0.0045000 0.0054174 -0.0009185
v -0.0045000 0.0048970 -0.0016970
v -0.0045000 0.0041185 -0.0022174
v -0.0045304 0.0030469 -0.0023695
v -0.0045000 0.0028000 -0.0023204
v -0.0046172 0.0029172 -0.0023437
v -0.0047469 0.0028304 -0.0023265
v -0.0049000 0.0028000 -0.0023204
v -0.0071000 0.0028000 -0.0023204
v -0.0045000 0.0022816 -0.0022172
v -0.0071000 0.0022816 -0.0022172
v -0.0071000 0.0015030 -0.0016970
v -0.0045000 0.0009828 -0.0009184
v -0.0071000 0.0009828 -0.0009184
v -0.0045000 0.0008001 -0.0000000
v -0.0071000 0.0008001 -0.0000000
v -0.0045000 0.0009828 0.0009184
v -0.0071000 0.0009828 0.0009184
v -0.0071000 0.0015030 0.0016970
v -0.0045000 0.0022816 0.0022172
v -0.0071000 0.0022816 0.0022172
v -0.0045000 0.0028000 0.0023204
v -0.0071000 0.0028000 0.0023204
v -0.0045304 0.0030469 0.0023695
v -0.0046172 0.0029172 0.0023437
v -0.0047469 0.0028304 0.0023265
v -0.0049000 0.0028000 0.0023204
v -0.0045304 0.0033531 0.0023695
v -0.0045000 0.0036000 0.0023204
v -0.0046172 0.0034828 0.0023437
v -0.0047469 0.0035696 0.0023265
v -0.0049000 0.0036000 0.0023204
v -0.0071000 0.0036000 0.0023204
v -0.0045000 0.0041184 0.0022172
v -0.0071000 0.0041184 0.0022172
v -0.0071000 0.0048970 0.0016970
v -0.0045000 0.0054172 0.0009184
v -0.0071000 0.0054172 0.0009184
v -0.0045000 0.0055999 0.0000000
v -0.0071000 0.0055999 0.0000000
v -0.0045000 0.0054172 -0.0009184
v -0.0071000 0.0054172 -0.0009184
v -0.0071000 0.0048970 -0.0016970
v -0.0045000 0.0041184 -0.0022172
v -0.0071000 0.0041184 -0.0022172
v -0.0045000 0.0036000 -0.0023204
v -0.0071000 0.0036000 -0.0023204
v -0.0045304 0.0033531 -0.0023695
v -0.0046172 0.0034828 -0.0023437
v -0.0047469 0.0035696 -0.0023265
v -0.0049000 0.0036000 -0.0023204
v -0.0071000 0.0036000 -0.0025204
v -0.0071000 0.0041952 -0.0024020
v -0.0071000 0.0050384 -0.0018384
v -0.0071000 0.0048972 -0.0016972
v -0.0071000 0.0056020 -0.0009952
v -0.0071000 0.0058000 -0.0000000
v -0.0071000 0.0056000 -0.0000000
v -0.0071000 0.0056020 0.0009952
v -0.0071000 0.0050384 0.0018384
v -0.0071000 0.0048972 0.0016972
v -0.0071000 0.0041952 0.0024020
v -0.0071000 0.0036000 0.0025204
v -0.0071000 0.0028000 0.0025204
v -0.0071000 0.0022048 0.0024020
v -0.0071000 0.0013616 0.0018384
v -0.0071000 0.0015028 0.0016972
v -0.0071000 0.0007980 0.0009952
v -0.0071000 0.0006000 -0.0000000
v -0.0071000 0.0008000 -0.0000000
v -0.0071000 0.0007980 -0.0009952
v -0.0071000 0.0013616 -0.0018384
v -0.0071000 0.0015028 -0.0016972
v -0.0071000 0.0022048 -0.0024020
v -0.0071000 0.0028000 -0.0025204
v -0.0079000 0.0022048 -0.0024020
v -0.0079000 0.0028000 -0.0025204
v -0.0071000 0.0013613 -0.0018383
v -0.0079000 0.0013613 -0.0018383
v -0.0071000 0.0007978 -0.0009947
v -0.0079000 0.0007978 -0.0009947
v -0.0071000 0.0005999 0.0000002
v -0.0079000 0.0005999 0.0000002
v -0.0079000 0.0007980 0.0009952
v -0.0071000 0.0013617 0.0018387
v -0.0079000 0.0013617 0.0018387
v -0.0071000 0.0022053 0.0024022
v -0.0079000 0.0022053 0.0024022
v -0.0079000 0.0028000 0.0025204
v -0.0079000 0.0022048 0.0024020
v -0.0079000 0.0041952 0.0024020
v -0.0079000 0.0036000 0.0025204
v -0.0071000 0.0050387 0.0018383
v -0.0079000 0.0050387 0.0018383
v -0.0071000 0.0056022 0.0009947
v -0.0079000 0.0056022 0.0009947
v -0.0071000 0.0058001 -0.0000002
v -0.0079000 0.0058001 -0.0000002
v -0.0079000 0.0056020 -0.0009952
v -0.0071000 0.0050383 -0.0018387
v -0.0079000 0.0050383 -0.0018387
v -0.0071000 0.0041947 -0.0024022
v -0.0079000 0.0041947 -0.0024022
v -0.0079000 0.0036000 -0.0025204
v -0.0079000 0.0041952 -0.0024020
v -0.0045304 0.0030469 -0.0015695
v -0.0046172 0.0029172 -0.0015437
v -0.0047469 0.0028304 -0.0015265
v -0.0049000 0.0028000 -0.0015204
v -0.0071000 0.0028000 -0.0015204
v -0.0079000 0.0028000 -0.0015204
v -0.0079000 0.0025876 -0.0014784
v -0.0079000 0.0020688 -0.0011312
v -0.0079000 0.0013616 -0.0018384
v -0.0079000 0.0017216 -0.0006124
v -0.0079000 0.0007980 -0.0009952
v -0.0079000 0.0016000 -0.0000000
v -0.0079000 0.0006000 -0.0000000
v -0.0079000 0.0017216 0.0006124
v -0.0079000 0.0020688 0.0011312
v -0.0079000 0.0013616 0.0018384
v -0.0079000 0.0025876 0.0014784
v -0.0079000 0.0028000 0.0015204
v -0.0071000 0.0028000 0.0015204
v -0.0049000 0.0028000 0.0015204
v -0.0045304 0.0030469 0.0015695
v -0.0046172 0.0029172 0.0015437
v -0.0047469 0.0028304 0.0015265
v -0.0045304 0.0033531 0.0015695
v -0.0046172 0.0034828 0.0015437
v -0.0047469 0.0035696 0.0015265
v -0.0049000 0.0036000 0.0015204
v -0.0071000 0.0036000 0.0015204
v -0.0079000 0.0036000 0.0015204
v -0.0079000 0.0038124 0.0014784
v -0.0079000 0.0043312 0.0011312
v -0.0079000 0.0050384 0.0018384
v -0.0079000 0.0046784 0.0006124
v -0.0079000 0.0056020 0.0009952
v -0.0079000 0.0048000 -0.0000000
v -0.0079000 0.0058000 -0.0000000
v -0.0079000 0.0046784 -0.0006124
v -0.0079000 0.0043312 -0.0011312
v -0.0079000 0.0050384 -0.0018384
v -0.0079000 0.0038124 -0.0014784
v -0.0079000 0.0036000 -0.0015204
v -0.0071000 0.0036000 -0.0015204
v -0.0049000 0.0036000 -0.0015204
v -0.0045304 0.0033531 -0.0015695
v -0.0046172 0.0034828 -0.0015437
v -0.0047469 0.0035696 -0.0015265
v -0.0045000 0.0028000 -0.0015204
v -0.0045000 0.0025880 -0.0014780
v -0.0079000 0.0025880 -0.0014780
v -0.0079000 0.0025876 -0.0014780
v -0.0079000 0.0020686 -0.0011312
v -0.0045000 0.0020686 -0.0011312
v -0.0045000 0.0025876 -0.0014780
v -0.0079000 0.0017219 -0.0006121
v -0.0045000 0.0017219 -0.0006121
v -0.0079000 0.0016001 0.0000002
v -0.0045000 0.0016001 0.0000002
v -0.0079000 0.0017220 0.0006124
v -0.0045000 0.0017220 0.0006124
v -0.0079000 0.0020688 0.0011314
v -0.0045000 0.0020688 0.0011314
v -0.0079000 0.0025879 0.0014781
v -0.0045000 0.0025879 0.0014781
v -0.0045000 0.0028000 0.0015204
v -0.0045000 0.0025880 0.0014780
v -0.0079000 0.0025880 0.0014780
v -0.0045000 0.0036000 0.0015204
v -0.0045000 0.0038120 0.0014780
v -0.0079000 0.0038120 0.0014780
v -0.0079000 0.0038124 0.0014780
v -0.0079000 0.0043314 0.0011312
v -0.0045000 0.0043314 0.0011312
v -0.0045000 0.0038124 0.0014780
v -0.0079000 0.0046781 0.0006121
v -0.0045000 0.0046781 0.0006121
v -0.0079000 0.0047999 -0.0000002
v -0.0045000 0.0047999 -0.0000002
v -0.0079000 0.0046780 -0.0006124
v -0.0045000 0.0046780 -0.0006124
v -0.0079000 0.0043312 -0.0011314
v -0.0045000 0.0043312 -0.0011314
v -0.0079000 0.0038121 -0.0014781
v -0.0045000 0.0038121 -0.0014781
v -0.0045000 0.0036000 -0.0015204
v -0.0045000 0.0038120 -0.0014780
v -0.0079000 0.0038120 -0.0014780
v -0.0023000 0.0051940 -0.0014284
v -0.0023000 0.0051233 -0.0013576
v -0.0007000 0.0051233 -0.0013576
v -0.0007000 0.0051940 -0.0014284
v -0.0023000 0.0045576 -0.0019233
v -0.0023000 0.0046284 -0.0019940
v -0.0007000 0.0046284 -0.0019940
v -0.0007000 0.0045576 -0.0019233
v -0.0027000 0.0048971 -0.0016971
v -0.0026696 0.0049837 -0.0015672
v -0.0026696 0.0050544 -0.0016379
v -0.0027000 0.0049678 -0.0017678
v -0.0025828 0.0050571 -0.0014571
v -0.0025828 0.0051278 -0.0015278
v -0.0024531 0.0051061 -0.0013835
v -0.0024531 0.0051768 -0.0014542
v -0.0024531 0.0045835 -0.0019061
v -0.0024531 0.0046542 -0.0019768
v -0.0025828 0.0046571 -0.0018571
v -0.0025828 0.0047278 -0.0019278
v -0.0026696 0.0047672 -0.0017837
v -0.0026696 0.0048379 -0.0018544
v -0.0007000 0.0049678 -0.0017678
v -0.0023000 0.0046284 0.0019940
v -0.0023000 0.0045576 0.0019233
v -0.0007000 0.0045576 0.0019233
v -0.0007000 0.0046284 0.0019940
v -0.0023000 0.0051233 0.0013576
v -0.0023000 0.0051940 0.0014284
v -0.0007000 0.0051940 0.0014284
v -0.0007000 0.0051233 0.0013576
v -0.0027000 0.0048971 0.0016971
v -0.0026696 0.0047672 0.0017837
v -0.0026696 0.0048379 0.0018544
v -0.0027000 0.0049678 0.0017678
v -0.0025828 0.0046571 0.0018571
v -0.0025828 0.0047278 0.0019278
v -0.0024531 0.0045835 0.0019061
v -0.0024531 0.0046542 0.0019768
v -0.0024531 0.0051061 0.0013835
v -0.0024531 0.0051768 0.0014542
v -0.0025828 0.0050571 0.0014571
v -0.0025828 0.0051278 0.0015278
v -0.0026696 0.0049837 0.0015672
v -0.0026696 0.0050544 0.0016379
v -0.0007000 0.0049678 0.0017678
v -0.0023000 0.0012060 0.0014284
v -0.0023000 0.0012767 0.0013576
v -0.0007000 0.0012767 0.0013576
v -0.0007000 0.0012060 0.0014284
v -0.0023000 0.0018424 0.0019233
v -0.0023000 0.0017716 0.0019940
v -0.0007000 0.0017716 0.0019940
v -0.0007000 0.0018424 0.0019233
v -0.0027000 0.0015029 0.0016971
v -0.0026696 0.0014163 0.0015672
v -0.0026696 0.0013456 0.0016379
v -0.0027000 0.0014322 0.0017678
v -0.0025828 0.0013429 0.0014571
v -0.0025828 0.0012722 0.0015278
v -0.0024531 0.0012939 0.0013835
v -0.0024531 0.0012232 0.0014542
v -0.0024531 0.0018165 0.0019061
v -0.0024531 0.0017458 0.0019768
v -0.0025828 0.0017429 0.0018571
v -0.0025828 0.0016722 0.0019278
v -0.0026696 0.0016328 0.0017837
v -0.0026696 0.0015621 0.0018544
v -0.0007000 0.0014322 0.0017678
v -0.0023000 0.0017716 -0.0019940
v -0.0023000 0.0018424 -0.0019233
v -0.0007000 0.0018424 -0.0019233
v -0.0007000 0.0017716 -0.0019940
v -0.0023000 0.0012767 -0.0013576
v -0.0023000 0.0012060 -0.0014284
v -0.0007000 0.0012060 -0.0014284
v -0.0007000 0.0012767 -0.0013576
v -0.0027000 0.0015029 -0.0016971
v -0.0026696 0.0016328 -0.0017837
v -0.0026696 0.0015621 -0.0018544
v -0.0027000 0.0014322 -0.0017678
v -0.0025828 0.0017429 -0.0018571
v -0.0025828 0.0016722 -0.0019278
v -0.0024531 0.0018165 -0.0019061
v -0.0024531 0.0017458 -0.0019768
v -0.0024531 0.0012939 -0.0013835
v -0.0024531 0.0012232 -0.0014542
v -0.0025828 0.0013429 -0.0014571
v -0.0025828 0.0012722 -0.0015278
v -0.0026696 0.0014163 -0.0015672
v -0.0026696 0.0013456 -0.0016379
v -0.0007000 0.0014322 -0.0017678
v -0.0071000 0.0051233 -0.0013576
v -0.0055000 0.0051233 -0.0013576
v -0.0055000 0.0051940 -0.0014284
v -0.0071000 0.0051940 -0.0014284
v -0.0071000 0.0046284 -0.0019940
v -0.0055000 0.0046284 -0.0019940
v -0.0055000 0.0045576 -0.0019233
v -0.0071000 0.0045576 -0.0019233
v -0.0051304 0.0050544 -0.0016379
v -0.0051304 0.0049837 -0.0015672
v -0.0051000 0.0048971 -0.0016971
v -0.0051000 0.0049678 -0.0017678
v -0.0052172 0.0051278 -0.0015278
v -0.0052172 0.0050571 -0.0014571
v -0.0053469 0.0051768 -0.0014542
v -0.0053469 0.0051061 -0.0013835
v -0.0053469 0.0046542 -0.0019768
v -0.0053469 0.0045835 -0.0019061
v -0.0052172 0.0047278 -0.0019278
v -0.0052172 0.0046571 -0.0018571
v -0.0051304 0.0048379 -0.0018544
v -0.0051304 0.0047672 -0.0017837
v -0.0071000 0.0049678 -0.0017678
v -0.0071000 0.0045576 0.0019233
v -0.0055000 0.0045576 0.0019233
v -0.0055000 0.0046284 0.0019940
v -0.0071000 0.0046284 0.0019940
v -0.0071000 0.0051940 0.0014284
v -0.0055000 0.0051940 0.0014284
v -0.0055000 0.0051233 0.0013576
v -0.0071000 0.0051233 0.0013576
v -0.0051304 0.0048379 0.0018544
v -0.0051304 0.0047672 0.0017837
v -0.0051000 0.0048971 0.0016971
v -0.0051000 0.0049678 0.0017678
v -0.0052172 0.0047278 0.0019278
v -0.0052172 0.0046571 0.0018571
v -0.0053469 0.0046542 0.0019768
v -0.0053469 0.0045835 0.0019061
v -0.0053469 0.0051768 0.0014542
v -0.0053469 0.0051061 0.0013835
v -0.0052172 0.0051278 0.0015278
v -0.0052172 0.0050571 0.0014571
v -0.0051304 0.0050544 0.0016379
v -0.0051304 0.0049837 0.0015672
v -0.0071000 0.0049678 0.0017678
v -0.0071000 0.0012767 0.0013576
v -0.0055000 0.0012767 0.0013576
v -0.0055000 0.0012060 0.0014284
v -0.0071000 0.0012060 0.0014284
v -0.0071000 0.0017716 0.0019940
v -0.0055000 0.0017716 0.0019940
v -0.0055000 0.0018424 0.0019233
v -0.0071000 0.0018424 0.0019233
v -0.0051304 0.0013456 0.0016379
v -0.0051304 0.0014163 0.0015672
v -0.0051000 0.0015029 0.0016971
v -0.0051000 0.0014322 0.0017678
v -0.0052172 0.0012722 0.0015278
v -0.0052172 0.0013429 0.0014571
v -0.0053469 0.0012232 0.0014542
v -0.0053469 0.0012939 0.0013835
v -0.0053469 0.0017458 0.0019768
v -0.0053469 0.0018165 0.0019061
v -0.0052172 0.0016722 0.0019278
v -0.0052172 0.0017429 0.0018571
v -0.0051304 0.0015621 0.0018544
v -0.0051304 0.0016328 0.0017837
v -0.0071000 0.0014322 0.0017678
v -0.0071000 0.0018424 -0.0019233
v -0.0055000 0.0018424 -0.0019233
v -0.0055000 0.0017716 -0.0019940
v -0.0071000 0.0017716 -0.0019940
v -0.0071000 0.0012060 -0.0014284
v -0.0055000 0.0012060 -0.0014284
v -0.0055000 0.0012767 -0.0013576
v -0.0071000 0.0012767 -0.0013576
v -0.0051304 0.0015621 -0.0018544
v -0.0051304 0.0016328 -0.0017837
v -0.0051000 0.0015029 -0.0016971
v -0.0051000 0.0014322 -0.0017678
v -0.0052172 0.0016722 -0.0019278
v -0.0052172 0.0017429 -0.0018571
v -0.0053469 0.0017458 -0.0019768
v -0.0053469 0.0018165 -0.0019061
v -0.0053469 0.0012232 -0.0014542
v -0.0053469 0.0012939 -0.0013835
v -0.0052172 0.0012722 -0.0015278
v -0.0052172 0.0013429 -0.0014571
v -0.0051304 0.0013456 -0.0016379
v -0.0051304 0.0014163 -0.0015672
v -0.0071000 0.0014322 -0.0017678
v 0.0001000 0.0032000 -0.0000000
v 0.0001000 0.0024000 0.0008000
v 0.0071000 0.0024000 0.0008000
v 0.0071000 0.0024000 0.0022409
v 0.0001000 0.0024000 0.0022409
v 0.0071000 0.0009591 0.0008000
v 0.0001000 0.0009591 0.0008000
v 0.0071000 0.0040000 0.0022409
v 0.0071000 0.0040000 0.0008000
v 0.0001000 0.0040000 0.0008000
v 0.0001000 0.0040000 0.0022409
v 0.0071000 0.0054409 0.0008000
v 0.0001000 0.0054409 0.0008000
v 0.0001000 0.0040000 -0.0008000
v 0.0071000 0.0040000 -0.0008000
v 0.0071000 0.0040000 -0.0022409
v 0.0001000 0.0040000 -0.0022409
v 0.0071000 0.0054409 -0.0008000
v 0.0001000 0.0054409 -0.0008000
v 0.0071000 0.0024000 -0.0022409
v 0.0071000 0.0024000 -0.0008000
v 0.0001000 0.0024000 -0.0008000
v 0.0001000 0.0024000 -0.0022409
v 0.0071000 0.0009591 -0.0008000
v 0.0001000 0.0009591 -0.0008000
v 0.0001000 0.0008000 -0.0000000
v 0.0071000 0.0008000 -0.0000000
v 0.0071000 0.0032000 0.0024000
v 0.0001000 0.0032000 0.0024000
v 0.0071000 0.0056000 -0.0000000
v 0.0001000 0.0056000 -0.0000000
v 0.0001000 0.0032000 -0.0024000
v 0.0071000 0.0032000 -0.0024000
v 0.0076657 0.0012191 0.0006520
v 0.0079000 0.0020463 0.0006528
v 0.0079000 0.0024568 0.0007432
v 0.0079000 0.0019134 -0.0000000
v 0.0076657 0.0010894 -0.0000000
v 0.0079000 0.0032000 -0.0000000
v 0.0076657 0.0025480 0.0019809
v 0.0079000 0.0025472 0.0011537
v 0.0079000 0.0032000 0.0012866
v 0.0076657 0.0032000 0.0021106
v 0.0076657 0.0025480 -0.0019809
v 0.0079000 0.0025472 -0.0011537
v 0.0079000 0.0024568 -0.0007432
v 0.0079000 0.0032000 -0.0013124
v 0.0076657 0.0032000 -0.0021106
v 0.0076657 0.0012191 -0.0006520
v 0.0079000 0.0020463 -0.0006528
v 0.0076657 0.0051809 -0.0006520
v 0.0079000 0.0043537 -0.0006528
v 0.0079000 0.0039432 -0.0007432
v 0.0079000 0.0044866 -0.0000000
v 0.0076657 0.0053106 -0.0000000
v 0.0076657 0.0038520 -0.0019809
v 0.0079000 0.0038528 -0.0011537
v 0.0076657 0.0038520 0.0019809
v 0.0079000 0.0038528 0.0011537
v 0.0079000 0.0039432 0.0007432
v 0.0076657 0.0051809 0.0006520
v 0.0079000 0.0043537 0.0006528
vn -1.0 0.0 0.0
vn 0.0 0.3207056 0.9471789
vn 0.0 0.442928 0.8965572
vn 0.0 0.0661621 0.9978089
vn 3.8e-06 -0.0659334 0.997824
vn 0.0 0.6587584 0.7523546
vn 0.0 0.7523546 0.6587584
vn 0.0 0.8965572 0.442928
vn 0.0 0.9471789 0.3207056
vn 0.0 0.9978089 0.0661621
vn 0.0 0.9978089 -0.0661621
vn 0.0 0.9471789 -0.3207056
vn 0.0 0.8965572 -0.442928
vn 0.0 0.7523546 -0.6587584
vn 0.0 0.6587584 -0.7523546
vn 0.0 0.442928 -0.8965572
vn 0.0 0.3207056 -0.9471789
vn 3.8e-06 0.0659334 -0.997824
vn 0.0 -0.0661621 -0.9978089
vn 0.0 -0.3207056 -0.9471789
vn 0.0 -0.442928 -0.8965572
vn 0.0 -0.6587584 -0.7523546
vn 0.0 -0.7523546 -0.6587584
vn 0.0 -0.8965572 -0.442928
vn 0.0 -0.9471789 -0.3207056
vn 0.0 -0.9978089 -0.0661621
vn 0.0 -0.9978089 0.0661621
vn 0.0 -0.9471789 0.3207056
vn 0.0 -0.8965572 0.442928
vn 0.0 -0.7523546 0.6587584
vn 0.0 -0.6587584 0.7523546
vn 0.0 -0.442928 0.8965572
vn 0.0 -0.3207056 0.9471789
vn 0.0 -0.066135 -0.9978107
vn 0.0 -0.4430151 -0.8965142
vn 0.0 -0.3207139 -0.9471761
vn 0.0 0.066135 -0.9978107
vn 0.0 -0.7523142 -0.6588045
vn 0.0 -0.6588045 -0.7523142
vn 0.0 -0.9471761 -0.3207139
vn 0.0 -0.8965142 -0.4430151
vn 0.0 -0.9978107 0.066135
vn 0.0 -0.9978107 -0.066135
vn 0.0 -0.8965142 0.4430151
vn 0.0 -0.9471761 0.3207139
vn 0.0 -0.6588045 0.7523142
vn 0.0 -0.7523142 0.6588045
vn 0.0 -0.3207139 0.9471761
vn 0.0 -0.4430151 0.8965142
vn 0.0 0.066135 0.9978107
vn 0.0 -0.066135 0.9978107
vn 0.0 0.4430151 0.8965142
vn 0.0 0.3207139 0.9471761
vn 0.0 0.7523142 0.6588045
vn 0.0 0.6588045 0.7523142
vn 0.0 0.9471761 0.3207139
vn 0.0 0.8965142 0.4430151
vn 0.0 0.9978107 -0.066135
vn 0.0 0.9978107 0.066135
vn 0.0 0.8965142 -0.4430151
vn 0.0 0.9471761 -0.3207139
vn 0.0 0.6588045 -0.7523142
vn 0.0 0.7523142 -0.6588045
vn 0.0 0.3207139 -0.9471761
vn 0.0 0.4430151 -0.8965142
vn 0.0 -0.3207111 -0.947177
vn 0.0 -0.4430513 -0.8964963
vn -2.5e-06 -0.0659699 -0.9978216
vn 0.0 0.0661224 -0.9978115
vn 0.0 -0.6588276 -0.752294
vn 0.0 -0.7158117 -0.6982934
vn 0.0 -0.8964963 -0.4430513
vn 0.0 -0.947177 -0.3207111
vn 0.0 -0.9978115 -0.0661224
vn 0.0 -0.9978115 0.0661224
vn 0.0 -0.947177 0.3207111
vn 0.0 -0.8964963 0.4430513
vn 0.0 -0.752294 0.6588276
vn 0.0 -0.6982934 0.7158117
vn 0.0 -0.4430513 0.8964963
vn 0.0 -0.3207111 0.947177
vn 0.0 -0.0661224 0.9978115
vn -2.5e-06 0.0659699 0.9978216
vn 0.0 0.3207111 0.947177
vn 0.0 0.4430513 0.8964963
vn 0.0 0.6588276 0.752294
vn 0.0 0.7158117 0.6982934
vn 0.0 0.8964963 0.4430513
vn 0.0 0.947177 0.3207111
vn 0.0 0.9978115 0.0661224
vn 0.0 0.9978115 -0.0661224
vn 0.0 0.947177 -0.3207111
vn 0.0 0.8964963 -0.4430513
vn 0.0 0.752294 -0.6588276
vn 0.0 0.6982934 -0.7158117
vn 0.0 0.4430513 -0.8964963
vn 0.0 0.3207111 -0.947177
vn -0.0003917 -0.1950929 -0.9807847
vn -5.8e-06 -0.1952428 -0.9807549
vn 9.37e-05 -0.1948993 -0.9808233
vn 0.0001725 -0.1953897 -0.9807257
vn 0.0 -0.1967363 -0.9804564
vn 0.0 -0.1952429 -0.9807549
vn 0.0 -0.3715846 -0.9283991
vn 0.0 -0.482573 -0.8758557
vn 0.0 -0.7523478 -0.6587661
vn 0.0 -0.8965465 -0.4429496
vn 0.0 -0.9471733 -0.3207221
vn 0.0 -0.9978087 -0.0661657
vn 0.0 -0.9978087 0.0661657
vn 0.0 -0.9471733 0.3207221
vn 0.0 -0.8965465 0.4429496
vn 0.0 -0.6587661 0.7523478
vn 0.0 -0.4332054 0.9012952
vn -5.8e-06 -0.1952428 0.9807549
vn 0.0 -0.1952429 0.9807549
vn -0.0003917 -0.1950929 0.9807847
vn 9.37e-05 -0.1948993 0.9808233
vn 0.0001725 -0.1953897 0.9807257
vn 0.0 -0.1967363 0.9804564
vn -0.0003917 0.1950929 0.9807847
vn -5.8e-06 0.1952428 0.9807549
vn 9.37e-05 0.1948993 0.9808233
vn 0.0001725 0.1953897 0.9807257
vn 0.0 0.1967363 0.9804564
vn 0.0 0.1952429 0.9807549
vn 0.0 0.3715846 0.9283991
vn 0.0 0.482573 0.8758557
vn 0.0 0.7523478 0.6587661
vn 0.0 0.8965465 0.4429496
vn 0.0 0.9471733 0.3207221
vn 0.0 0.9978087 0.0661657
vn 0.0 0.9978087 -0.0661657
vn 0.0 0.9471733 -0.3207221
vn 0.0 0.8965465 -0.4429496
vn 0.0 0.6587661 -0.7523478
vn 0.0 0.4332054 -0.9012952
vn -5.8e-06 0.1952428 -0.9807549
vn 0.0 0.1952429 -0.9807549
vn -0.0003917 0.1950929 -0.9807847
vn 9.37e-05 0.1948993 -0.9808233
vn 0.0001725 0.1953897 -0.9807257
vn 0.0 0.1967363 -0.9804564
vn 1.0 0.0 0.0
vn 0.0 -0.4283995 -0.9035894
vn 0.0 -0.195102 -0.980783
vn 0.0 -0.6588477 -0.7522764
vn 0.0 -0.7524172 -0.6586868
vn 0.0 -0.8965762 -0.4428895
vn 0.0 -0.9471852 -0.3206871
vn 0.0 -0.9978136 -0.0660908
vn 0.0 -0.9978005 0.0662883
vn 0.0 -0.9471277 0.3208568
vn 0.0 -0.89649 0.4430639
vn 0.0 -0.7522764 0.6588477
vn 0.0 -0.6586868 0.7524172
vn 0.0 -0.5554506 0.8315495
vn 0.0 -0.195102 0.980783
vn 0.0 0.4283995 0.9035894
vn 0.0 0.195102 0.980783
vn 0.0 0.6588477 0.7522764
vn 0.0 0.7524172 0.6586868
vn 0.0 0.8965762 0.4428895
vn 0.0 0.9471852 0.3206871
vn 0.0 0.9978136 0.0660908
vn 0.0 0.9978005 -0.0662883
vn 0.0 0.9471277 -0.3208568
vn 0.0 0.89649 -0.4430639
vn 0.0 0.7522764 -0.6588477
vn 0.0 0.6586868 -0.7524172
vn 0.0 0.5554506 -0.8315495
vn 0.0 0.195102 -0.980783
vn -0.8963744 0.4432979 0.0
vn -0.9471733 0.3207221 0.0
vn -0.6589659 0.7521728 0.0
vn -0.7521728 0.6589659 0.0
vn -0.3207221 0.9471733 0.0
vn -0.4432979 0.8963744 0.0
vn -0.012918 0.9999166 0.0
vn 0.0 1.0 0.0
vn -0.9471733 -0.3207221 0.0
vn -0.8963744 -0.4432979 0.0
vn -0.7521728 -0.6589659 0.0
vn -0.6589659 -0.7521728 0.0
vn -0.4432979 -0.8963744 0.0
vn -0.3207221 -0.9471733 0.0
vn -0.012918 -0.9999166 0.0
vn 0.0 -1.0 0.0
vn 1.03e-05 0.1960336 0.9805972
vn 0.0003917 0.1950929 0.9807847
vn -9.37e-05 0.1948993 0.9808233
vn -0.0001725 0.1953897 0.9807257
vn 0.0 0.1961161 0.9805807
vn 0.0 0.5555872 0.8314583
vn 0.0 0.7524353 0.6586661
vn 0.0 0.6588392 0.7522838
vn 0.0 0.9471954 0.3206569
vn 0.0 0.8966003 0.4428407
vn 0.0 0.9978012 -0.0662774
vn 0.0 0.9978122 0.0661116
vn 0.0 0.8965036 -0.4430364
vn 0.0 0.9471291 -0.3208526
vn 0.0 0.6586661 -0.7524353
vn 0.0 0.7522838 -0.6588392
vn 0.0 0.5554024 -0.8315817
vn 0.0 0.1961161 -0.9805807
vn 1.03e-05 0.1960336 -0.9805972
vn 0.0003917 0.1950929 -0.9807847
vn -9.37e-05 0.1948993 -0.9808233
vn -0.0001725 0.1953897 -0.9807257
vn 1.03e-05 -0.1960336 -0.9805972
vn 0.0003917 -0.1950929 -0.9807847
vn -9.37e-05 -0.1948993 -0.9808233
vn -0.0001725 -0.1953897 -0.9807257
vn 0.0 -0.1961161 -0.9805807
vn 0.0 -0.5555872 -0.8314583
vn 0.0 -0.7524353 -0.6586661
vn 0.0 -0.6588392 -0.7522838
vn 0.0 -0.9471954 -0.3206569
vn 0.0 -0.8966003 -0.4428407
vn 0.0 -0.9978012 0.0662774
vn 0.0 -0.9978122 -0.0661116
vn 0.0 -0.8965036 0.4430364
vn 0.0 -0.9471291 0.3208526
vn 0.0 -0.6586661 0.7524353
vn 0.0 -0.7522838 0.6588392
vn 0.0 -0.5554024 0.8315817
vn 0.0 -0.1961161 0.9805807
vn 1.03e-05 -0.1960336 0.9805972
vn 0.0003917 -0.1950929 0.9807847
vn -9.37e-05 -0.1948993 0.9808233
vn -0.0001725 -0.1953897 0.9807257
vn -0.0173546 0.707478 0.7065223
vn -0.0173791 0.7074995 0.7065002
vn 0.0 0.7076063 0.7066069
vn -0.0173546 -0.7065223 -0.707478
vn -0.0173388 -0.7065007 -0.7075
vn 0.0 -0.7066069 -0.7076063
vn -0.9978164 0.046703 0.046703
vn -0.8964157 0.3133998 0.3133998
vn -0.9471803 0.2267702 0.2267702
vn -0.9978164 -0.046703 -0.046703
vn -0.6587651 0.5319909 0.5319909
vn -0.7521723 0.4659597 0.4659597
vn -0.3206319 0.6699406 0.6696079
vn -0.4429279 0.6339617 0.6339617
vn -0.4430514 -0.6339185 -0.6339185
vn -0.3206319 -0.6696079 -0.6699406
vn -0.7521723 -0.4659597 -0.4659597
vn -0.6587651 -0.5319909 -0.5319909
vn -0.9471803 -0.2267702 -0.2267702
vn -0.8964157 -0.3133998 -0.3133998
vn 0.0 0.7463222 -0.6655848
vn 6.6e-06 0.6661546 -0.7458137
vn 4.5e-06 0.8321244 -0.554589
vn 0.0 0.8321257 -0.554587
vn 0.0 0.554587 -0.8321257
vn -2.4e-06 0.554585 -0.8321271
vn 0.0001649 0.832063 -0.5546811
vn 0.0001537 0.8321061 -0.5546165
vn 0.0007736 0.8317684 -0.5551222
vn 0.0001649 0.5546811 -0.832063
vn 0.0004374 0.554848 -0.8319516
vn 0.0007736 0.5551222 -0.8317684
vn -0.0173546 -0.7065223 0.707478
vn -0.0173791 -0.7065002 0.7074995
vn 0.0 -0.7066069 0.7076063
vn -0.0173546 0.707478 -0.7065223
vn -0.0173388 0.7075 -0.7065007
vn 0.0 0.7076063 -0.7066069
vn -0.9978164 -0.046703 0.046703
vn -0.8964157 -0.3133998 0.3133998
vn -0.9471803 -0.2267702 0.2267702
vn -0.9978164 0.046703 -0.046703
vn -0.6587651 -0.5319909 0.5319909
vn -0.7521723 -0.4659597 0.4659597
vn -0.3206319 -0.6696079 0.6699406
vn -0.4429279 -0.6339617 0.6339617
vn -0.4430514 0.6339185 -0.6339185
vn -0.3206319 0.6699406 -0.6696079
vn -0.7521723 0.4659597 -0.4659597
vn -0.6587651 0.5319909 -0.5319909
vn -0.9471803 0.2267702 -0.2267702
vn -0.8964157 0.3133998 -0.3133998
vn 0.0 0.6655848 0.7463222
vn 6.6e-06 0.7458137 0.6661546
vn 4.5e-06 0.554589 0.8321244
vn 0.0 0.554587 0.8321257
vn 0.0 0.8321257 0.554587
vn -2.4e-06 0.8321271 0.554585
vn 0.0001649 0.5546811 0.832063
vn 0.0001537 0.5546165 0.8321061
vn 0.0007736 0.5551222 0.8317684
vn 0.0001649 0.832063 0.5546811
vn 0.0004374 0.8319516 0.554848
vn 0.0007736 0.8317684 0.5551222
vn -0.0173546 -0.707478 -0.7065223
vn -0.0173791 -0.7074995 -0.7065002
vn 0.0 -0.7076063 -0.7066069
vn -0.0173546 0.7065223 0.707478
vn -0.0173388 0.7065007 0.7075
vn 0.0 0.7066069 0.7076063
vn -0.3206319 -0.6699406 -0.6696079
vn -0.4429279 -0.6339617 -0.6339617
vn -0.4430514 0.6339185 0.6339185
vn -0.3206319 0.6696079 0.6699406
vn 0.0 -0.7463222 0.6655848
vn 6.6e-06 -0.6661546 0.7458137
vn 4.5e-06 -0.8321244 0.554589
vn 0.0 -0.8321257 0.554587
vn 0.0 -0.554587 0.8321257
vn -2.4e-06 -0.554585 0.8321271
vn 0.0001649 -0.832063 0.5546811
vn 0.0001537 -0.8321061 0.5546165
vn 0.0007736 -0.8317684 0.5551222
vn 0.0001649 -0.5546811 0.832063
vn 0.0004374 -0.554848 0.8319516
vn 0.0007736 -0.5551222 0.8317684
vn -0.0173546 0.7065223 -0.707478
vn -0.0173791 0.7065002 -0.7074995
vn 0.0 0.7066069 -0.7076063
vn -0.0173546 -0.707478 0.7065223
vn -0.0173388 -0.7075 0.7065007
vn 0.0 -0.7076063 0.7066069
vn -0.3206319 0.6696079 -0.6699406
vn -0.4429279 0.6339617 -0.6339617
vn -0.4430514 -0.6339185 0.6339185
vn -0.3206319 -0.6699406 0.6696079
vn 0.0 -0.6655848 -0.7463222
vn 6.6e-06 -0.7458137 -0.6661546
vn 4.5e-06 -0.554589 -0.8321244
vn 0.0 -0.554587 -0.8321257
vn 0.0 -0.8321257 -0.554587
vn -2.4e-06 -0.8321271 -0.554585
vn 0.0001649 -0.5546811 -0.832063
vn 0.0001537 -0.5546165 -0.8321061
vn 0.0007736 -0.5551222 -0.8317684
vn 0.0001649 -0.832063 -0.5546811
vn 0.0004374 -0.8319516 -0.554848
vn 0.0007736 -0.8317684 -0.5551222
vn 0.0173791 0.7074995 0.7065002
vn 0.0173546 0.707478 0.7065223
vn 0.0173388 -0.7065007 -0.7075
vn 0.0173546 -0.7065223 -0.707478
vn 0.9471803 0.2267702 0.2267702
vn 0.8964157 0.3133998 0.3133998
vn 0.9978164 0.046703 0.046703
vn 0.9978164 -0.046703 -0.046703
vn 0.7521723 0.4659597 0.4659597
vn 0.6587651 0.5319909 0.5319909
vn 0.4429279 0.6339617 0.6339617
vn 0.3206319 0.6699406 0.6696079
vn 0.3206319 -0.6696079 -0.6699406
vn 0.4430514 -0.6339185 -0.6339185
vn 0.6587651 -0.5319909 -0.5319909
vn 0.7521723 -0.4659597 -0.4659597
vn 0.8964157 -0.3133998 -0.3133998
vn 0.9471803 -0.2267702 -0.2267702
vn -4.5e-06 0.8321244 -0.554589
vn -6.6e-06 0.6661546 -0.7458137
vn 2.4e-06 0.554585 -0.8321271
vn -0.0001537 0.8321061 -0.5546165
vn -0.0001649 0.832063 -0.5546811
vn -0.0007736 0.8317684 -0.5551222
vn -0.0004374 0.554848 -0.8319516
vn -0.0001649 0.5546811 -0.832063
vn -0.0007736 0.5551222 -0.8317684
vn 0.0173791 -0.7065002 0.7074995
vn 0.0173546 -0.7065223 0.707478
vn 0.0173388 0.7075 -0.7065007
vn 0.0173546 0.707478 -0.7065223
vn 0.9471803 -0.2267702 0.2267702
vn 0.8964157 -0.3133998 0.3133998
vn 0.9978164 -0.046703 0.046703
vn 0.9978164 0.046703 -0.046703
vn 0.7521723 -0.4659597 0.4659597
vn 0.6587651 -0.5319909 0.5319909
vn 0.4429279 -0.6339617 0.6339617
vn 0.3206319 -0.6696079 0.6699406
vn 0.3206319 0.6699406 -0.6696079
vn 0.4430514 0.6339185 -0.6339185
vn 0.6587651 0.5319909 -0.5319909
vn 0.7521723 0.4659597 -0.4659597
vn 0.8964157 0.3133998 -0.3133998
vn 0.9471803 0.2267702 -0.2267702
vn -4.5e-06 0.554589 0.8321244
vn -6.6e-06 0.7458137 0.6661546
vn 2.4e-06 0.8321271 0.554585
vn -0.0001537 0.5546165 0.8321061
vn -0.0001649 0.5546811 0.832063
vn -0.0007736 0.5551222 0.8317684
vn -0.0004374 0.8319516 0.554848
vn -0.0001649 0.832063 0.5546811
vn -0.0007736 0.8317684 0.5551222
vn 0.0173791 -0.7074995 -0.7065002
vn 0.0173546 -0.707478 -0.7065223
vn 0.0173388 0.7065007 0.7075
vn 0.0173546 0.7065223 0.707478
vn 0.4429279 -0.6339617 -0.6339617
vn 0.3206319 -0.6699406 -0.6696079
vn 0.3206319 0.6696079 0.6699406
vn 0.4430514 0.6339185 0.6339185
vn -4.5e-06 -0.8321244 0.554589
vn -6.6e-06 -0.6661546 0.7458137
vn 2.4e-06 -0.554585 0.8321271
vn -0.0001537 -0.8321061 0.5546165
vn -0.0001649 -0.832063 0.5546811
vn -0.0007736 -0.8317684 0.5551222
vn -0.0004374 -0.554848 0.8319516
vn -0.0001649 -0.5546811 0.832063
vn -0.0007736 -0.5551222 0.8317684
vn 0.0173791 0.7065002 -0.7074995
vn 0.0173546 0.7065223 -0.707478
vn 0.0173388 -0.7075 0.7065007
vn 0.0173546 -0.707478 0.7065223
vn 0.4429279 0.6339617 -0.6339617
vn 0.3206319 0.6696079 -0.6699406
vn 0.3206319 -0.6699406 0.6696079
vn 0.4430514 -0.6339185 0.6339185
vn -4.5e-06 -0.554589 -0.8321244
vn -6.6e-06 -0.7458137 -0.6661546
vn 2.4e-06 -0.8321271 -0.554585
vn -0.0001537 -0.5546165 -0.8321061
vn -0.0001649 -0.5546811 -0.832063
vn -0.0007736 -0.5551222 -0.8317684
vn -0.0004374 -0.8319516 -0.554848
vn -0.0001649 -0.832063 -0.5546811
vn -0.0007736 -0.8317684 -0.5551222
vn 0.0303149 -0.9995002 0.0089687
vn 0.0101603 -0.9999484 0.0
vn 0.0101603 0.0 0.9999484
vn 0.0303149 -0.0089687 0.9995002
vn 0.0 0.0 1.0
vn 0.0101603 0.9999484 0.0
vn 0.0303149 0.9995002 0.0089687
vn 0.0303149 0.0089687 0.9995002
vn 0.0303149 0.9995002 -0.0089687
vn 0.0101603 0.0 -0.9999484
vn 0.0303149 0.0089687 -0.9995002
vn 0.0 0.0 -1.0
vn 0.0303149 -0.9995002 -0.0089687
vn 0.0303149 -0.0089687 -0.9995002
vn 0.0342657 -0.980216 0.194942
vn 0.0 -0.9807923 0.1950551
vn 0.0382236 -0.9992692 0.0
vn 0.0342657 -0.194942 0.980216
vn 0.0382236 0.0 0.9992692
vn 0.0 -0.1950551 0.9807923
vn 0.0342657 0.194942 0.980216
vn 0.0 0.1950551 0.9807923
vn 0.0342657 0.980216 0.194942
vn 0.0382236 0.9992692 0.0
vn 0.0 0.9807923 0.1950551
vn 0.0342657 0.980216 -0.194942
vn 0.0 0.9807923 -0.1950551
vn 0.0342657 -0.194942 -0.980216
vn 0.0 -0.1950551 -0.9807923
vn 0.0382236 0.0 -0.9992692
vn 0.0342657 0.194942 -0.980216
vn 0.0 0.1950551 -0.9807923
vn 0.0342657 -0.980216 -0.194942
vn 0.0 -0.9807923 -0.1950551
vn 0.2097792 -0.0220155 0.9775009
vn 0.1377076 -0.0986883 0.9855441
vn 0.084307 -0.2143003 0.9731226
vn 0.9875217 -0.1574831 0.0
vn 0.996055 -0.0869539 0.0177025
vn 0.8786409 -0.4682123 0.0936343
vn 0.700976 -0.7131848 0.0
vn 0.2097792 -0.9775009 0.0220155
vn 0.1377076 -0.9855441 0.0986883
vn 0.084307 -0.9731226 0.2143003
vn 0.8786409 -0.0936343 0.4682123
vn 0.996055 -0.0177025 0.0869539
vn 0.9875217 0.0 0.1574831
vn 0.700976 0.0 0.7131848
vn 0.2097792 -0.9775009 -0.0220155
vn 0.1377076 -0.9855441 -0.0986883
vn 0.084307 -0.9731226 -0.2143003
vn 0.9875217 -0.0 -0.1574831
vn 0.9960641 -0.0209382 -0.0861277
vn 0.8755751 -0.0988034 -0.4728701
vn 0.6946303 0.0 -0.7193669
vn 0.2097792 -0.0220155 -0.9775009
vn 0.1377076 -0.0986883 -0.9855441
vn 0.084307 -0.2143003 -0.9731226
vn 0.8786409 -0.4682123 -0.0936343
vn 0.996055 -0.0869539 -0.0177025
vn 0.2097792 0.0220155 -0.9775009
vn 0.1377076 0.0986883 -0.9855441
vn 0.084307 0.2143003 -0.9731226
vn 0.9875217 0.1574831 -0.0
vn 0.996055 0.0869539 -0.0177025
vn 0.8786409 0.4682123 -0.0936343
vn 0.700976 0.7131848 -0.0
vn 0.2097792 0.9775009 -0.0220155
vn 0.1377076 0.9855441 -0.0986883
vn 0.084307 0.9731226 -0.2143003
vn 0.8755751 0.0988034 -0.4728701
vn 0.9960641 0.0209382 -0.0861277
vn 0.2097792 0.9775009 0.0220155
vn 0.1377076 0.9855441 0.0986883
vn 0.084307 0.9731226 0.2143003
vn 0.996055 0.0177025 0.0869539
vn 0.8786409 0.0936343 0.4682123
vn 0.2097792 0.0220155 0.9775009
vn 0.1377076 0.0986883 0.9855441
vn 0.084307 0.2143003 0.9731226
vn 0.8786409 0.4682123 0.0936343
vn 0.996055 0.0869539 0.0177025
f 1//1 2//1 3//1
f 1//1 3//1 4//1
f 1//1 4//1 5//1
f 1//1 5//1 6//1
f 1//1 6//1 7//1
f 1//1 7//1 8//1
f 1//1 8//1 9//1
f 1//1 9//1 10//1
f 1//1 10//1 11//1
f 1//1 11//1 12//1
f 1//1 12//1 13//1
f 1//1 13//1 14//1
f 1//1 14//1 15//1
f 1//1 15//1 16//1
f 1//1 16//1 17//1
f 1//1 17//1 2//1
f 18//2 3//3 2//4
f 19//5 18//2 2//4
f 20//6 4//7 3//3
f 18//2 20//6 3//3
f 21//8 5//9 4//7
f 20//6 21//8 4//7
f 22//10 6//11 5//9
f 21//8 22//10 5//9
f 23//12 7//13 6//11
f 22//10 23//12 6//11
f 24//14 8//15 7//13
f 23//12 24//14 7//13
f 25//16 9//17 8//15
f 24//14 25//16 8//15
f 26//18 10//19 9//17
f 25//16 26//18 9//17
f 27//20 11//21 10//19
f 26//18 27//20 10//19
f 28//22 12//23 11//21
f 27//20 28//22 11//21
f 29//24 13//25 12//23
f 28//22 29//24 12//23
f 30//26 14//27 13//25
f 29//24 30//26 13//25
f 31//28 15//29 14//27
f 30//26 31//28 14//27
f 32//30 16//31 15//29
f 31//28 32//30 15//29
f 33//32 17//33 16//31
f 32//30 33//32 16//31
f 19//5 2//4 17//33
f 33//32 19//5 17//33
f 34//34 35//35 36//36
f 34//34 36//36 37//37
f 35//35 38//38 39//39
f 35//35 39//39 36//36
f 38//38 40//40 41//41
f 38//38 41//41 39//39
f 40//40 42//42 43//43
f 40//40 43//43 41//41
f 42//42 44//44 45//45
f 42//42 45//45 43//43
f 44//44 46//46 47//47
f 44//44 47//47 45//45
f 46//46 48//48 49//49
f 46//46 49//49 47//47
f 48//48 50//50 51//51
f 48//48 51//51 49//49
f 50//50 52//52 53//53
f 50//50 53//53 51//51
f 52//52 54//54 55//55
f 52//52 55//55 53//53
f 54//54 56//56 57//57
f 54//54 57//57 55//55
f 56//56 58//58 59//59
f 56//56 59//59 57//57
f 58//58 60//60 61//61
f 58//58 61//61 59//59
f 60//60 62//62 63//63
f 60//60 63//63 61//61
f 62//62 64//64 65//65
f 62//62 65//65 63//63
f 64//64 34//34 37//37
f 64//64 37//37 65//65
f 45//1 66//1 67//1
f 45//1 67//1 43//1
f 47//1 68//1 66//1
f 47//1 66//1 45//1
f 49//1 69//1 68//1
f 49//1 68//1 47//1
f 51//1 70//1 69//1
f 51//1 69//1 49//1
f 53//1 71//1 70//1
f 53//1 70//1 51//1
f 55//1 72//1 71//1
f 55//1 71//1 53//1
f 57//1 73//1 72//1
f 57//1 72//1 55//1
f 59//1 74//1 73//1
f 59//1 73//1 57//1
f 61//1 75//1 74//1
f 61//1 74//1 59//1
f 63//1 76//1 75//1
f 63//1 75//1 61//1
f 65//1 77//1 76//1
f 65//1 76//1 63//1
f 37//1 78//1 77//1
f 37//1 77//1 65//1
f 36//1 79//1 78//1
f 36//1 78//1 37//1
f 39//1 80//1 79//1
f 39//1 79//1 36//1
f 41//1 81//1 80//1
f 41//1 80//1 39//1
f 43//1 67//1 81//1
f 43//1 81//1 41//1
f 79//66 82//67 83//68
f 78//69 79//66 83//68
f 80//70 84//71 82//67
f 79//66 80//70 82//67
f 81//72 85//73 84//71
f 80//70 81//72 84//71
f 67//74 86//75 85//73
f 81//72 67//74 85//73
f 66//76 87//77 86//75
f 67//74 66//76 86//75
f 68//78 88//79 87//77
f 66//76 68//78 87//77
f 69//80 89//81 88//79
f 68//78 69//80 88//79
f 70//82 90//83 89//81
f 69//80 70//82 89//81
f 71//84 91//85 90//83
f 70//82 71//84 90//83
f 72//86 92//87 91//85
f 71//84 72//86 91//85
f 73//88 93//89 92//87
f 72//86 73//88 92//87
f 74//90 94//91 93//89
f 73//88 74//90 93//89
f 75//92 95//93 94//91
f 74//90 75//92 94//91
f 76//94 96//95 95//93
f 75//92 76//94 95//93
f 77//96 97//97 96//95
f 76//94 77//96 96//95
f 78//69 83//68 97//97
f 77//96 78//69 97//97
f 98//98 83//68 99//99
f 100//100 98//98 99//99
f 101//101 100//100 99//99
f 102//102 101//101 99//99
f 103//103 99//99 104//104
f 105//105 103//103 104//104
f 84//71 106//106 105//105
f 84//71 105//105 104//104
f 107//107 108//108 106//106
f 107//107 106//106 84//71
f 109//109 110//110 108//108
f 109//109 108//108 107//107
f 111//111 112//112 110//110
f 111//111 110//110 109//109
f 88//79 113//113 112//112
f 88//79 112//112 111//111
f 114//114 115//114 113//113
f 114//114 113//113 88//79
f 114//114 116//115 117//116
f 114//114 117//116 115//114
f 116//115 90//83 118//117
f 116//115 118//117 119//118
f 116//115 119//118 120//119
f 116//115 120//119 121//120
f 122//121 90//83 123//122
f 124//123 122//121 123//122
f 125//124 124//123 123//122
f 126//125 125//124 123//122
f 127//126 123//122 128//127
f 129//128 127//126 128//127
f 92//87 130//129 129//128
f 92//87 129//128 128//127
f 131//130 132//131 130//129
f 131//130 130//129 92//87
f 133//132 134//133 132//131
f 133//132 132//131 131//130
f 135//134 136//135 134//133
f 135//134 134//133 133//132
f 96//95 137//136 136//135
f 96//95 136//135 135//134
f 138//137 139//137 137//136
f 138//137 137//136 96//95
f 138//137 140//138 141//139
f 138//137 141//139 139//137
f 140//138 83//68 142//140
f 140//138 142//140 143//141
f 140//138 143//141 144//142
f 140//138 144//142 145//143
f 146//144 147//144 139//144
f 146//144 139//144 141//144
f 147//144 148//144 149//144
f 147//144 149//144 139//144
f 148//144 150//144 136//144
f 148//144 136//144 149//144
f 150//144 151//144 152//144
f 150//144 152//144 136//144
f 151//144 153//144 132//144
f 151//144 132//144 152//144
f 153//144 154//144 155//144
f 153//144 155//144 132//144
f 154//144 156//144 129//144
f 154//144 129//144 155//144
f 156//144 157//144 127//144
f 156//144 127//144 129//144
f 158//144 159//144 115//144
f 158//144 115//144 117//144
f 159//144 160//144 161//144
f 159//144 161//144 115//144
f 160//144 162//144 112//144
f 160//144 112//144 161//144
f 162//144 163//144 164//144
f 162//144 164//144 112//144
f 163//144 165//144 108//144
f 163//144 108//144 164//144
f 165//144 166//144 167//144
f 165//144 167//144 108//144
f 166//144 168//144 105//144
f 166//144 105//144 167//144
f 168//144 169//144 103//144
f 168//144 103//144 105//144
f 170//145 171//146 169//146
f 168//145 170//145 169//146
f 172//147 173//148 170//145
f 172//147 170//145 168//145
f 174//149 175//150 173//148
f 174//149 173//148 172//147
f 176//151 177//152 175//150
f 176//151 175//150 174//149
f 162//153 178//154 177//152
f 162//153 177//152 176//151
f 179//155 180//156 178//154
f 179//155 178//154 162//153
f 181//157 182//157 180//156
f 181//157 180//156 179//155
f 158//158 183//158 184//158
f 158//158 184//158 159//158
f 185//159 186//160 157//160
f 156//159 185//159 157//160
f 187//161 188//162 185//159
f 187//161 185//159 156//159
f 189//163 190//164 188//162
f 189//163 188//162 187//161
f 191//165 192//166 190//164
f 191//165 190//164 189//163
f 150//167 193//168 192//166
f 150//167 192//166 191//165
f 194//169 195//170 193//168
f 194//169 193//168 150//167
f 196//171 197//171 195//170
f 196//171 195//170 194//169
f 146//172 198//172 199//172
f 146//172 199//172 147//172
f 83//1 98//173 200//174
f 83//1 200//174 19//1
f 98//173 100//175 201//176
f 98//173 201//176 200//174
f 100//175 101//177 202//178
f 100//175 202//178 201//176
f 101//177 102//179 203//179
f 101//177 203//179 202//178
f 103//180 204//180 203//179
f 103//180 203//179 102//179
f 205//180 204//180 169//180
f 205//180 169//180 171//180
f 206//1 205//1 171//1
f 206//1 171//1 170//1
f 207//1 206//1 170//1
f 207//1 170//1 208//1
f 209//1 207//1 208//1
f 209//1 208//1 210//1
f 211//1 209//1 210//1
f 211//1 210//1 212//1
f 213//1 211//1 212//1
f 213//1 212//1 178//1
f 214//1 213//1 178//1
f 214//1 178//1 215//1
f 216//1 214//1 215//1
f 216//1 215//1 184//1
f 217//1 216//1 184//1
f 217//1 184//1 183//1
f 183//180 158//180 218//180
f 183//180 218//180 217//180
f 218//180 117//180 121//179
f 218//180 121//179 219//179
f 26//1 220//173 118//174
f 26//1 118//174 90//1
f 220//173 221//175 119//176
f 220//173 119//176 118//174
f 221//175 222//177 120//178
f 221//175 120//178 119//176
f 222//177 219//179 121//179
f 222//177 121//179 120//178
f 122//181 223//182 26//1
f 90//1 122//181 26//1
f 124//183 224//184 223//182
f 122//181 124//183 223//182
f 125//185 225//186 224//184
f 124//183 125//185 224//184
f 126//187 226//187 225//186
f 125//185 126//187 225//186
f 126//187 127//188 227//188
f 226//187 126//187 227//188
f 227//188 157//188 186//188
f 228//188 227//188 186//188
f 229//1 228//1 186//1
f 229//1 186//1 185//1
f 230//1 229//1 185//1
f 230//1 185//1 231//1
f 232//1 230//1 231//1
f 232//1 231//1 233//1
f 234//1 232//1 233//1
f 234//1 233//1 235//1
f 236//1 234//1 235//1
f 236//1 235//1 193//1
f 237//1 236//1 193//1
f 237//1 193//1 238//1
f 239//1 237//1 238//1
f 239//1 238//1 199//1
f 240//1 239//1 199//1
f 240//1 199//1 198//1
f 146//188 241//188 240//188
f 198//188 146//188 240//188
f 242//187 241//188 141//188
f 145//187 242//187 141//188
f 243//181 142//182 83//1
f 19//1 243//181 83//1
f 244//183 143//184 142//182
f 243//181 244//183 142//182
f 245//185 144//186 143//184
f 244//183 245//185 143//184
f 242//187 145//187 144//186
f 245//185 242//187 144//186
f 246//189 19//5 200//190
f 246//189 200//190 201//191
f 246//189 201//191 202//192
f 246//189 202//192 203//125
f 247//193 246//189 205//193
f 247//193 205//193 248//193
f 249//194 250//195 251//196
f 252//194 249//194 251//196
f 250//195 253//197 254//198
f 251//196 250//195 254//198
f 253//197 255//199 256//200
f 254//198 253//197 256//200
f 255//199 257//201 258//202
f 256//200 255//199 258//202
f 257//201 259//203 260//204
f 258//202 257//201 260//204
f 259//203 261//205 262//205
f 260//204 259//203 262//205
f 217//206 263//207 264//206
f 265//206 217//206 264//206
f 220//208 26//18 263//207
f 221//209 220//208 263//207
f 222//210 221//209 263//207
f 219//143 222//210 263//207
f 266//211 26//18 223//212
f 266//211 223//212 224//213
f 266//211 224//213 225//214
f 266//211 225//214 226//102
f 267//215 266//211 228//215
f 267//215 228//215 268//215
f 269//216 270//217 271//218
f 272//216 269//216 271//218
f 270//217 273//219 274//220
f 271//218 270//217 274//220
f 273//219 275//221 276//222
f 274//220 273//219 276//222
f 275//221 277//223 278//224
f 276//222 275//221 278//224
f 277//223 279//225 280//226
f 278//224 277//223 280//226
f 279//225 281//227 282//227
f 280//226 279//225 282//227
f 240//228 283//229 284//228
f 285//228 240//228 284//228
f 243//230 19//5 283//229
f 244//231 243//230 283//229
f 245//232 244//231 283//229
f 242//120 245//232 283//229
f 286//233 287//234 288//235
f 289//235 286//233 288//235
f 290//236 291//237 292//238
f 293//238 290//236 292//238
f 294//239 295//240 296//241
f 294//239 296//241 297//242
f 295//240 298//243 299//244
f 295//240 299//244 296//241
f 298//243 300//245 301//246
f 298//243 301//246 299//244
f 300//245 287//234 286//233
f 300//245 286//233 301//246
f 290//236 302//247 303//248
f 290//236 303//248 291//237
f 302//247 304//249 305//250
f 302//247 305//250 303//248
f 304//249 306//251 307//252
f 304//249 307//252 305//250
f 306//251 294//239 297//242
f 306//251 297//242 307//252
f 308//253 297//254 286//255
f 308//253 286//255 289//256
f 292//257 291//258 297//254
f 292//257 297//254 308//253
f 296//259 301//260 286//255
f 296//259 286//255 297//254
f 299//261 301//260 296//259
f 303//262 307//263 297//254
f 303//262 297//254 291//258
f 305//264 307//263 303//262
f 309//265 310//266 311//267
f 312//267 309//265 311//267
f 313//268 314//269 315//270
f 316//270 313//268 315//270
f 317//271 318//272 319//273
f 317//271 319//273 320//274
f 318//272 321//275 322//276
f 318//272 322//276 319//273
f 321//275 323//277 324//278
f 321//275 324//278 322//276
f 323//277 310//266 309//265
f 323//277 309//265 324//278
f 313//268 325//279 326//280
f 313//268 326//280 314//269
f 325//279 327//281 328//282
f 325//279 328//282 326//280
f 327//281 329//283 330//284
f 327//281 330//284 328//282
f 329//283 317//271 320//274
f 329//283 320//274 330//284
f 331//285 320//286 309//287
f 331//285 309//287 312//288
f 315//289 314//290 320//286
f 315//289 320//286 331//285
f 319//291 324//292 309//287
f 319//291 309//287 320//286
f 322//293 324//292 319//291
f 326//294 330//295 320//286
f 326//294 320//286 314//290
f 328//296 330//295 326//294
f 332//297 333//298 334//299
f 335//299 332//297 334//299
f 336//300 337//301 338//302
f 339//302 336//300 338//302
f 340//242 341//252 342//251
f 340//242 342//251 343//239
f 341//252 344//250 345//249
f 341//252 345//249 342//251
f 344//250 346//303 347//304
f 344//250 347//304 345//249
f 346//303 333//298 332//297
f 346//303 332//297 347//304
f 336//300 348//305 349//306
f 336//300 349//306 337//301
f 348//305 350//244 351//243
f 348//305 351//243 349//306
f 350//244 352//241 353//240
f 350//244 353//240 351//243
f 352//241 340//242 343//239
f 352//241 343//239 353//240
f 354//307 343//308 332//309
f 354//307 332//309 335//310
f 338//311 337//312 343//308
f 338//311 343//308 354//307
f 342//313 347//314 332//309
f 342//313 332//309 343//308
f 345//315 347//314 342//313
f 349//316 353//317 343//308
f 349//316 343//308 337//312
f 351//318 353//317 349//316
f 355//319 356//320 357//321
f 358//321 355//319 357//321
f 359//322 360//323 361//324
f 362//324 359//322 361//324
f 363//274 364//284 365//283
f 363//274 365//283 366//271
f 364//284 367//282 368//281
f 364//284 368//281 365//283
f 367//282 369//325 370//326
f 367//282 370//326 368//281
f 369//325 356//320 355//319
f 369//325 355//319 370//326
f 359//322 371//327 372//328
f 359//322 372//328 360//323
f 371//327 373//276 374//275
f 371//327 374//275 372//328
f 373//276 375//273 376//272
f 373//276 376//272 374//275
f 375//273 363//274 366//271
f 375//273 366//271 376//272
f 377//329 366//330 355//331
f 377//329 355//331 358//332
f 361//333 360//334 366//330
f 361//333 366//330 377//329
f 365//335 370//336 355//331
f 365//335 355//331 366//330
f 368//337 370//336 365//335
f 372//338 376//339 366//330
f 372//338 366//330 360//334
f 374//340 376//339 372//338
f 378//235 379//341 380//342
f 378//235 380//342 381//235
f 382//238 383//343 384//344
f 382//238 384//344 385//238
f 386//345 387//346 388//347
f 389//348 386//345 388//347
f 390//349 391//350 387//346
f 386//345 390//349 387//346
f 392//351 393//352 391//350
f 390//349 392//351 391//350
f 380//342 379//341 393//352
f 392//351 380//342 393//352
f 394//353 395//354 384//344
f 383//343 394//353 384//344
f 396//355 397//356 395//354
f 394//353 396//355 395//354
f 398//357 399//358 397//356
f 396//355 398//357 397//356
f 389//348 388//347 399//358
f 398//357 389//348 399//358
f 380//359 389//360 400//253
f 381//256 380//359 400//253
f 389//360 383//361 382//257
f 400//253 389//360 382//257
f 380//359 392//362 386//363
f 389//360 380//359 386//363
f 386//363 392//362 390//364
f 389//360 398//365 394//366
f 383//361 389//360 394//366
f 394//366 398//365 396//367
f 401//267 402//368 403//369
f 401//267 403//369 404//267
f 405//270 406//370 407//371
f 405//270 407//371 408//270
f 409//372 410//373 411//374
f 412//375 409//372 411//374
f 413//376 414//377 410//373
f 409//372 413//376 410//373
f 415//378 416//379 414//377
f 413//376 415//378 414//377
f 403//369 402//368 416//379
f 415//378 403//369 416//379
f 417//380 418//381 407//371
f 406//370 417//380 407//371
f 419//382 420//383 418//381
f 417//380 419//382 418//381
f 421//384 422//385 420//383
f 419//382 421//384 420//383
f 412//375 411//374 422//385
f 421//384 412//375 422//385
f 403//386 412//387 423//285
f 404//288 403//386 423//285
f 412//387 406//388 405//289
f 423//285 412//387 405//289
f 403//386 415//389 409//390
f 412//387 403//386 409//390
f 409//390 415//389 413//391
f 412//387 421//392 417//393
f 406//388 412//387 417//393
f 417//393 421//392 419//394
f 424//299 425//395 426//396
f 424//299 426//396 427//299
f 428//302 429//397 430//398
f 428//302 430//398 431//302
f 432//358 433//357 434//348
f 435//347 432//358 434//348
f 436//356 437//355 433//357
f 432//358 436//356 433//357
f 438//399 439//400 437//355
f 436//356 438//399 437//355
f 426//396 425//395 439//400
f 438//399 426//396 439//400
f 440//401 441//402 430//398
f 429//397 440//401 430//398
f 442//350 443//349 441//402
f 440//401 442//350 441//402
f 444//346 445//345 443//349
f 442//350 444//346 443//349
f 435//347 434//348 445//345
f 444//346 435//347 445//345
f 426//403 435//404 446//307
f 427//310 426//403 446//307
f 435//404 429//405 428//311
f 446//307 435//404 428//311
f 426//403 438//406 432//407
f 435//404 426//403 432//407
f 432//407 438//406 436//408
f 435//404 444//409 440//410
f 429//405 435//404 440//410
f 440//410 444//409 442//411
f 447//321 448//412 449//413
f 447//321 449//413 450//321
f 451//324 452//414 453//415
f 451//324 453//415 454//324
f 455//385 456//384 457//375
f 458//374 455//385 457//375
f 459//383 460//382 456//384
f 455//385 459//383 456//384
f 461//416 462//417 460//382
f 459//383 461//416 460//382
f 449//413 448//412 462//417
f 461//416 449//413 462//417
f 463//418 464//419 453//415
f 452//414 463//418 453//415
f 465//377 466//376 464//419
f 463//418 465//377 464//419
f 467//373 468//372 466//376
f 465//377 467//373 466//376
f 458//374 457//375 468//372
f 467//373 458//374 468//372
f 449//420 458//421 469//329
f 450//332 449//420 469//329
f 458//421 452//422 451//333
f 469//329 458//421 451//333
f 449//420 461//423 455//424
f 458//421 449//420 455//424
f 455//424 461//423 459//425
f 458//421 467//426 463//427
f 452//422 458//421 463//427
f 463//427 467//426 465//428
f 470//144 42//144 40//144
f 470//144 40//144 38//144
f 470//144 38//144 35//144
f 470//144 35//144 34//144
f 470//144 34//144 64//144
f 470//144 64//144 62//144
f 470//144 62//144 60//144
f 470//144 60//144 58//144
f 470//144 58//144 56//144
f 470//144 56//144 54//144
f 470//144 54//144 52//144
f 470//144 52//144 50//144
f 470//144 50//144 48//144
f 470//144 48//144 46//144
f 470//144 46//144 44//144
f 470//144 44//144 42//144
f 471//188 472//429 473//430
f 471//188 473//430 474//188
f 475//431 472//432 471//433
f 475//431 471//433 476//433
f 477//434 478//435 479//180
f 480//180 477//434 479//180
f 479//433 478//436 481//431
f 482//433 479//433 481//431
f 483//180 484//437 485//434
f 483//180 485//434 486//180
f 487//438 484//439 483//440
f 487//438 483//440 488//440
f 489//430 490//441 491//188
f 492//188 489//430 491//188
f 491//440 490//442 493//438
f 494//440 491//440 493//438
f 475//443 476//444 495//188
f 475//443 495//188 496//445
f 473//446 497//447 498//433
f 473//446 498//433 474//448
f 477//449 480//450 498//433
f 477//449 498//433 497//447
f 481//451 499//452 500//180
f 481//451 500//180 482//453
f 487//454 488//455 500//180
f 487//454 500//180 499//452
f 489//456 492//457 501//440
f 489//456 501//440 502//458
f 485//459 502//458 501//440
f 485//459 501//440 486//460
f 493//461 496//445 495//188
f 493//461 495//188 494//462
f 472//432 475//431 503//463
f 504//464 472//432 503//463
f 505//465 472//432 504//464
f 506//466 504//467 503//468
f 507//469 506//466 503//468
f 507//469 503//468 475//443
f 496//445 507//469 475//443
f 504//467 506//466 508//144
f 505//144 504//467 508//144
f 472//429 509//470 473//430
f 510//471 509//470 472//429
f 505//472 510//471 472//429
f 509//473 510//474 511//475
f 512//476 509//473 511//475
f 473//446 509//473 512//476
f 497//447 473//446 512//476
f 508//144 511//475 510//474
f 505//144 508//144 510//474
f 490//441 489//430 513//477
f 514//478 490//441 513//477
f 515//479 490//441 514//478
f 516//480 514//481 513//482
f 517//483 516//480 513//482
f 517//483 513//482 489//456
f 502//458 517//483 489//456
f 514//481 516//480 508//144
f 515//144 514//481 508//144
f 490//442 518//484 493//438
f 519//485 518//484 490//442
f 515//486 519//485 490//442
f 518//487 519//488 506//466
f 507//469 518//487 506//466
f 493//461 518//487 507//469
f 496//445 493//461 507//469
f 508//144 506//466 519//488
f 515//144 508//144 519//488
f 484//439 487//438 520//489
f 521//490 484//439 520//489
f 522//491 484//439 521//490
f 523//492 521//493 520//494
f 524//495 523//492 520//494
f 524//495 520//494 487//454
f 499//452 524//495 487//454
f 521//493 523//492 508//144
f 522//144 521//493 508//144
f 484//437 525//496 485//434
f 526//497 525//496 484//437
f 522//498 526//497 484//437
f 525//499 526//500 516//480
f 517//483 525//499 516//480
f 485//459 525//499 517//483
f 502//458 485//459 517//483
f 508//144 516//480 526//500
f 522//144 508//144 526//500
f 478//435 477//434 527//501
f 528//502 478//435 527//501
f 529//503 478//435 528//502
f 511//475 528//504 527//505
f 512//476 511//475 527//505
f 512//476 527//505 477//449
f 497//447 512//476 477//449
f 528//504 511//475 508//144
f 529//144 528//504 508//144
f 478//436 530//506 481//431
f 531//507 530//506 478//436
f 529//508 531//507 478//436
f 530//509 531//510 523//492
f 524//495 530//509 523//492
f 481//451 530//509 524//495
f 499//452 481//451 524//495
f 508//144 523//492 531//510
f 529//144 508//144 531//510
