# Botball Lab: metres, +Y up, centred XZ, base Y=0
s off
v 0.0094782 0.0000000 -0.0006123
v 0.0096000 0.0000000 -0.0000000
v 0.0080000 0.0000000 -0.0000000
v 0.0091314 0.0000000 -0.0011314
v 0.0086123 0.0000000 -0.0014782
v 0.0080000 0.0000000 -0.0016000
v 0.0073877 0.0000000 -0.0014782
v 0.0068686 0.0000000 -0.0011314
v 0.0065218 0.0000000 -0.0006123
v 0.0064000 0.0000000 -0.0000000
v 0.0065218 0.0000000 0.0006123
v 0.0068686 0.0000000 0.0011314
v 0.0073877 0.0000000 0.0014782
v 0.0080000 0.0000000 0.0016000
v 0.0086123 0.0000000 0.0014782
v 0.0091314 0.0000000 0.0011314
v 0.0094782 0.0000000 0.0006123
v 0.0094782 0.0016000 -0.0006123
v 0.0096000 0.0016000 -0.0000000
v 0.0091314 0.0016000 -0.0011314
v 0.0086123 0.0016000 -0.0014782
v 0.0080000 0.0016000 -0.0016000
v 0.0073877 0.0016000 -0.0014782
v 0.0068686 0.0016000 -0.0011314
v 0.0065218 0.0016000 -0.0006123
v 0.0064000 0.0016000 -0.0000000
v 0.0065218 0.0016000 0.0006123
v 0.0068686 0.0016000 0.0011314
v 0.0073877 0.0016000 0.0014782
v 0.0080000 0.0016000 0.0016000
v 0.0086123 0.0016000 0.0014782
v 0.0091314 0.0016000 0.0011314
v 0.0094782 0.0016000 0.0006123
v 0.0014782 0.0000000 -0.0006123
v 0.0016000 0.0000000 -0.0000000
v 0.0000000 0.0000000 -0.0000000
v 0.0011314 0.0000000 -0.0011314
v 0.0006123 0.0000000 -0.0014782
v 0.0000000 0.0000000 -0.0016000
v -0.0006123 0.0000000 -0.0014782
v -0.0011314 0.0000000 -0.0011314
v -0.0014782 0.0000000 -0.0006123
v -0.0016000 0.0000000 -0.0000000
v -0.0014782 0.0000000 0.0006123
v -0.0011314 0.0000000 0.0011314
v -0.0006123 0.0000000 0.0014782
v 0.0000000 0.0000000 0.0016000
v 0.0006123 0.0000000 0.0014782
v 0.0011314 0.0000000 0.0011314
v 0.0014782 0.0000000 0.0006123
v 0.0014782 0.0016000 -0.0006123
v 0.0016000 0.0016000 -0.0000000
v 0.0011314 0.0016000 -0.0011314
v 0.0006123 0.0016000 -0.0014782
v 0.0000000 0.0016000 -0.0016000
v -0.0006123 0.0016000 -0.0014782
v -0.0011314 0.0016000 -0.0011314
v -0.0014782 0.0016000 -0.0006123
v -0.0016000 0.0016000 -0.0000000
v -0.0014782 0.0016000 0.0006123
v -0.0011314 0.0016000 0.0011314
v -0.0006123 0.0016000 0.0014782
v 0.0000000 0.0016000 0.0016000
v 0.0006123 0.0016000 0.0014782
v 0.0011314 0.0016000 0.0011314
v 0.0014782 0.0016000 0.0006123
v -0.0065218 0.0000000 -0.0006123
v -0.0064000 0.0000000 -0.0000000
v -0.0080000 0.0000000 -0.0000000
v -0.0068686 0.0000000 -0.0011314
v -0.0073877 0.0000000 -0.0014782
v -0.0080000 0.0000000 -0.0016000
v -0.0086123 0.0000000 -0.0014782
v -0.0091314 0.0000000 -0.0011314
v -0.0094782 0.0000000 -0.0006123
v -0.0096000 0.0000000 -0.0000000
v -0.0094782 0.0000000 0.0006123
v -0.0091314 0.0000000 0.0011314
v -0.0086123 0.0000000 0.0014782
v -0.0080000 0.0000000 0.0016000
v -0.0073877 0.0000000 0.0014782
v -0.0068686 0.0000000 0.0011314
v -0.0065218 0.0000000 0.0006123
v -0.0065218 0.0016000 -0.0006123
v -0.0064000 0.0016000 -0.0000000
v -0.0068686 0.0016000 -0.0011314
v -0.0073877 0.0016000 -0.0014782
v -0.0080000 0.0016000 -0.0016000
v -0.0086123 0.0016000 -0.0014782
v -0.0091314 0.0016000 -0.0011314
v -0.0094782 0.0016000 -0.0006123
v -0.0096000 0.0016000 -0.0000000
v -0.0094782 0.0016000 0.0006123
v -0.0091314 0.0016000 0.0011314
v -0.0086123 0.0016000 0.0014782
v -0.0080000 0.0016000 0.0016000
v -0.0073877 0.0016000 0.0014782
v -0.0068686 0.0016000 0.0011314
v -0.0065218 0.0016000 0.0006123
v -0.0144000 0.0016000 -0.0024000
v 0.0144000 0.0016000 -0.0024000
v 0.0144000 0.0016000 0.0024000
v -0.0144000 0.0016000 0.0024000
v -0.0144000 0.0000000 -0.0024000
v 0.0144000 0.0000000 -0.0024000
v -0.0144000 0.0000000 0.0024000
v 0.0144000 0.0000000 0.0024000
v 0.0160000 0.0000000 -0.0040000
v -0.0160000 0.0000000 -0.0040000
v -0.0160000 0.0036000 -0.0040000
v 0.0160000 0.0036000 -0.0040000
v -0.0160000 0.0000000 0.0040000
v -0.0160000 0.0036000 0.0040000
v 0.0160000 0.0000000 0.0040000
v 0.0160000 0.0036000 0.0040000
v 0.0156000 0.0036000 -0.0040000
v 0.0156000 0.0036000 0.0040000
v 0.0148000 0.0056000 -0.0040000
v 0.0148000 0.0056000 0.0040000
v 0.0140000 0.0056000 -0.0040000
v 0.0140000 0.0056000 0.0040000
v 0.0132000 0.0036000 -0.0040000
v 0.0132000 0.0036000 0.0040000
v 0.0124000 0.0036000 -0.0040000
v 0.0124000 0.0036000 0.0040000
v 0.0116000 0.0056000 -0.0040000
v 0.0116000 0.0056000 0.0040000
v 0.0108000 0.0056000 -0.0040000
v 0.0108000 0.0056000 0.0040000
v 0.0100000 0.0036000 -0.0040000
v 0.0100000 0.0036000 0.0040000
v 0.0092000 0.0036000 -0.0040000
v 0.0092000 0.0036000 0.0040000
v 0.0084000 0.0056000 -0.0040000
v 0.0084000 0.0056000 0.0040000
v 0.0076000 0.0056000 -0.0040000
v 0.0076000 0.0056000 0.0040000
v 0.0068000 0.0036000 -0.0040000
v 0.0068000 0.0036000 0.0040000
v 0.0060000 0.0036000 -0.0040000
v 0.0060000 0.0036000 0.0040000
v 0.0052000 0.0056000 -0.0040000
v 0.0052000 0.0056000 0.0040000
v 0.0044000 0.0056000 -0.0040000
v 0.0044000 0.0056000 0.0040000
v 0.0036000 0.0036000 -0.0040000
v 0.0036000 0.0036000 0.0040000
v 0.0028000 0.0036000 -0.0040000
v 0.0028000 0.0036000 0.0040000
v 0.0020000 0.0056000 -0.0040000
v 0.0020000 0.0056000 0.0040000
v 0.0012000 0.0056000 -0.0040000
v 0.0012000 0.0056000 0.0040000
v 0.0004000 0.0036000 -0.0040000
v 0.0004000 0.0036000 0.0040000
v -0.0004000 0.0036000 -0.0040000
v -0.0004000 0.0036000 0.0040000
v -0.0012000 0.0056000 -0.0040000
v -0.0012000 0.0056000 0.0040000
v -0.0020000 0.0056000 -0.0040000
v -0.0020000 0.0056000 0.0040000
v -0.0028000 0.0036000 -0.0040000
v -0.0028000 0.0036000 0.0040000
v -0.0036000 0.0036000 -0.0040000
v -0.0036000 0.0036000 0.0040000
v -0.0044000 0.0056000 -0.0040000
v -0.0044000 0.0056000 0.0040000
v -0.0052000 0.0056000 -0.0040000
v -0.0052000 0.0056000 0.0040000
v -0.0060000 0.0036000 -0.0040000
v -0.0060000 0.0036000 0.0040000
v -0.0068000 0.0036000 -0.0040000
v -0.0068000 0.0036000 0.0040000
v -0.0076000 0.0056000 -0.0040000
v -0.0076000 0.0056000 0.0040000
v -0.0084000 0.0056000 -0.0040000
v -0.0084000 0.0056000 0.0040000
v -0.0092000 0.0036000 -0.0040000
v -0.0092000 0.0036000 0.0040000
v -0.0100000 0.0036000 -0.0040000
v -0.0100000 0.0036000 0.0040000
v -0.0108000 0.0056000 -0.0040000
v -0.0108000 0.0056000 0.0040000
v -0.0116000 0.0056000 -0.0040000
v -0.0116000 0.0056000 0.0040000
v -0.0124000 0.0036000 -0.0040000
v -0.0124000 0.0036000 0.0040000
v -0.0132000 0.0036000 -0.0040000
v -0.0132000 0.0036000 0.0040000
v -0.0140000 0.0056000 -0.0040000
v -0.0140000 0.0056000 0.0040000
v -0.0148000 0.0056000 -0.0040000
v -0.0148000 0.0056000 0.0040000
v -0.0156000 0.0036000 -0.0040000
v -0.0156000 0.0036000 0.0040000
vn 0.0 -1.0 0.0
vn 0.9471789 0.0 -0.3207056
vn 0.8965572 0.0 -0.442928
vn 0.9978089 0.0 -0.0661621
vn 0.9978089 0.0 0.0661621
vn 0.7523546 0.0 -0.6587584
vn 0.6587584 0.0 -0.7523546
vn 0.442928 0.0 -0.8965572
vn 0.3207056 0.0 -0.9471789
vn 0.0661621 0.0 -0.9978089
vn -0.0661621 0.0 -0.9978089
vn -0.3207056 0.0 -0.9471789
vn -0.442928 0.0 -0.8965572
vn -0.6587584 0.0 -0.7523546
vn -0.7523546 0.0 -0.6587584
vn -0.8965572 0.0 -0.442928
vn -0.9471789 0.0 -0.3207056
vn -0.9978089 0.0 -0.0661621
vn -0.9978089 0.0 0.0661621
vn -0.9471789 0.0 0.3207056
vn -0.8965572 0.0 0.442928
vn -0.7523546 0.0 0.6587584
vn -0.6587584 0.0 0.7523546
vn -0.442928 0.0 0.8965572
vn -0.3207056 0.0 0.9471789
vn -0.0661621 0.0 0.9978089
vn 0.0661621 0.0 0.9978089
vn 0.3207056 0.0 0.9471789
vn 0.442928 0.0 0.8965572
vn 0.6587584 0.0 0.7523546
vn 0.7523546 0.0 0.6587584
vn 0.8965572 0.0 0.442928
vn 0.9471789 0.0 0.3207056
vn 0.0 0.0 1.0
vn 1.0 0.0 0.0
vn 0.0 0.0 -1.0
vn -1.0 0.0 0.0
vn 0.0 1.0 0.0
vn 0.9284767 0.3713907 0.0
vn -0.9284767 0.3713907 0.0
f 1//1 2//1 3//1
f 4//1 1//1 3//1
f 5//1 4//1 3//1
f 6//1 5//1 3//1
f 7//1 6//1 3//1
f 8//1 7//1 3//1
f 9//1 8//1 3//1
f 10//1 9//1 3//1
f 11//1 10//1 3//1
f 12//1 11//1 3//1
f 13//1 12//1 3//1
f 14//1 13//1 3//1
f 15//1 14//1 3//1
f 16//1 15//1 3//1
f 17//1 16//1 3//1
f 2//1 17//1 3//1
f 1//2 18//3 19//4
f 2//5 1//2 19//4
f 4//6 20//7 18//3
f 1//2 4//6 18//3
f 5//8 21//9 20//7
f 4//6 5//8 20//7
f 6//10 22//11 21//9
f 5//8 6//10 21//9
f 7//12 23//13 22//11
f 6//10 7//12 22//11
f 8//14 24//15 23//13
f 7//12 8//14 23//13
f 9//16 25//17 24//15
f 8//14 9//16 24//15
f 10//18 26//19 25//17
f 9//16 10//18 25//17
f 11//20 27//21 26//19
f 10//18 11//20 26//19
f 12//22 28//23 27//21
f 11//20 12//22 27//21
f 13//24 29//25 28//23
f 12//22 13//24 28//23
f 14//26 30//27 29//25
f 13//24 14//26 29//25
f 15//28 31//29 30//27
f 14//26 15//28 30//27
f 16//30 32//31 31//29
f 15//28 16//30 31//29
f 17//32 33//33 32//31
f 16//30 17//32 32//31
f 2//5 19//4 33//33
f 17//32 2//5 33//33
f 34//1 35//1 36//1
f 37//1 34//1 36//1
f 38//1 37//1 36//1
f 39//1 38//1 36//1
f 40//1 39//1 36//1
f 41//1 40//1 36//1
f 42//1 41//1 36//1
f 43//1 42//1 36//1
f 44//1 43//1 36//1
f 45//1 44//1 36//1
f 46//1 45//1 36//1
f 47//1 46//1 36//1
f 48//1 47//1 36//1
f 49//1 48//1 36//1
f 50//1 49//1 36//1
f 35//1 50//1 36//1
f 34//2 51//3 52//4
f 35//5 34//2 52//4
f 37//6 53//7 51//3
f 34//2 37//6 51//3
f 38//8 54//9 53//7
f 37//6 38//8 53//7
f 39//10 55//11 54//9
f 38//8 39//10 54//9
f 40//12 56//13 55//11
f 39//10 40//12 55//11
f 41//14 57//15 56//13
f 40//12 41//14 56//13
f 42//16 58//17 57//15
f 41//14 42//16 57//15
f 43//18 59//19 58//17
f 42//16 43//18 58//17
f 44//20 60//21 59//19
f 43//18 44//20 59//19
f 45//22 61//23 60//21
f 44//20 45//22 60//21
f 46//24 62//25 61//23
f 45//22 46//24 61//23
f 47//26 63//27 62//25
f 46//24 47//26 62//25
f 48//28 64//29 63//27
f 47//26 48//28 63//27
f 49//30 65//31 64//29
f 48//28 49//30 64//29
f 50//32 66//33 65//31
f 49//30 50//32 65//31
f 35//5 52//4 66//33
f 50//32 35//5 66//33
f 67//1 68//1 69//1
f 70//1 67//1 69//1
f 71//1 70//1 69//1
f 72//1 71//1 69//1
f 73//1 72//1 69//1
f 74//1 73//1 69//1
f 75//1 74//1 69//1
f 76//1 75//1 69//1
f 77//1 76//1 69//1
f 78//1 77//1 69//1
f 79//1 78//1 69//1
f 80//1 79//1 69//1
f 81//1 80//1 69//1
f 82//1 81//1 69//1
f 83//1 82//1 69//1
f 68//1 83//1 69//1
f 67//2 84//3 85//4
f 68//5 67//2 85//4
f 70//6 86//7 84//3
f 67//2 70//6 84//3
f 71//8 87//9 86//7
f 70//6 71//8 86//7
f 72//10 88//11 87//9
f 71//8 72//10 87//9
f 73//12 89//13 88//11
f 72//10 73//12 88//11
f 74//14 90//15 89//13
f 73//12 74//14 89//13
f 75//16 91//17 90//15
f 74//14 75//16 90//15
f 76//18 92//19 91//17
f 75//16 76//18 91//17
f 77//20 93//21 92//19
f 76//18 77//20 92//19
f 78//22 94//23 93//21
f 77//20 78//22 93//21
f 79//24 95//25 94//23
f 78//22 79//24 94//23
f 80//26 96//27 95//25
f 79//24 80//26 95//25
f 81//28 97//29 96//27
f 80//26 81//28 96//27
f 82//30 98//31 97//29
f 81//28 82//30 97//29
f 83//32 99//33 98//31
f 82//30 83//32 98//31
f 68//5 85//4 99//33
f 83//32 68//5 99//33
f 100//1 101//1 102//1
f 100//1 102//1 103//1
f 100//34 104//34 105//34
f 100//34 105//34 101//34
f 103//35 106//35 104//35
f 103//35 104//35 100//35
f 102//36 107//36 106//36
f 102//36 106//36 103//36
f 101//37 105//37 107//37
f 101//37 107//37 102//37
f 108//36 109//36 110//36
f 111//36 108//36 110//36
f 109//37 112//37 113//37
f 110//37 109//37 113//37
f 112//34 114//34 115//34
f 113//34 112//34 115//34
f 114//35 108//35 111//35
f 115//35 114//35 111//35
f 116//38 117//38 115//38
f 111//38 116//38 115//38
f 118//39 119//39 117//39
f 118//39 117//39 116//39
f 120//38 121//38 119//38
f 120//38 119//38 118//38
f 122//40 123//40 121//40
f 122//40 121//40 120//40
f 120//36 118//36 116//36
f 122//36 120//36 116//36
f 119//34 121//34 123//34
f 117//34 119//34 123//34
f 124//38 125//38 123//38
f 124//38 123//38 122//38
f 126//39 127//39 125//39
f 126//39 125//39 124//39
f 128//38 129//38 127//38
f 128//38 127//38 126//38
f 130//40 131//40 129//40
f 130//40 129//40 128//40
f 128//36 126//36 124//36
f 130//36 128//36 124//36
f 127//34 129//34 131//34
f 125//34 127//34 131//34
f 132//38 133//38 131//38
f 132//38 131//38 130//38
f 134//39 135//39 133//39
f 134//39 133//39 132//39
f 136//38 137//38 135//38
f 136//38 135//38 134//38
f 138//40 139//40 137//40
f 138//40 137//40 136//40
f 136//36 134//36 132//36
f 138//36 136//36 132//36
f 135//34 137//34 139//34
f 133//34 135//34 139//34
f 140//38 141//38 139//38
f 140//38 139//38 138//38
f 142//39 143//39 141//39
f 142//39 141//39 140//39
f 144//38 145//38 143//38
f 144//38 143//38 142//38
f 146//40 147//40 145//40
f 146//40 145//40 144//40
f 144//36 142//36 140//36
f 146//36 144//36 140//36
f 143//34 145//34 147//34
f 141//34 143//34 147//34
f 148//38 149//38 147//38
f 148//38 147//38 146//38
f 150//39 151//39 149//39
f 150//39 149//39 148//39
f 152//38 153//38 151//38
f 152//38 151//38 150//38
f 154//40 155//40 153//40
f 154//40 153//40 152//40
f 152//36 150//36 148//36
f 154//36 152//36 148//36
f 151//34 153//34 155//34
f 149//34 151//34 155//34
f 156//38 157//38 155//38
f 156//38 155//38 154//38
f 158//39 159//39 157//39
f 158//39 157//39 156//39
f 160//38 161//38 159//38
f 160//38 159//38 158//38
f 162//40 163//40 161//40
f 162//40 161//40 160//40
f 160//36 158//36 156//36
f 162//36 160//36 156//36
f 159//34 161//34 163//34
f 157//34 159//34 163//34
f 164//38 165//38 163//38
f 164//38 163//38 162//38
f 166//39 167//39 165//39
f 166//39 165//39 164//39
f 168//38 169//38 167//38
f 168//38 167//38 166//38
f 170//40 171//40 169//40
f 170//40 169//40 168//40
f 168//36 166//36 164//36
f 170//36 168//36 164//36
f 167//34 169//34 171//34
f 165//34 167//34 171//34
f 172//38 173//38 171//38
f 172//38 171//38 170//38
f 174//39 175//39 173//39
f 174//39 173//39 172//39
f 176//38 177//38 175//38
f 176//38 175//38 174//38
f 178//40 179//40 177//40
f 178//40 177//40 176//40
f 176//36 174//36 172//36
f 178//36 176//36 172//36
f 175//34 177//34 179//34
f 173//34 175//34 179//34
f 180//38 181//38 179//38
f 180//38 179//38 178//38
f 182//39 183//39 181//39
f 182//39 181//39 180//39
f 184//38 185//38 183//38
f 184//38 183//38 182//38
f 186//40 187//40 185//40
f 186//40 185//40 184//40
f 184//36 182//36 180//36
f 186//36 184//36 180//36
f 183//34 185//34 187//34
f 181//34 183//34 187//34
f 188//38 189//38 187//38
f 188//38 187//38 186//38
f 190//39 191//39 189//39
f 190//39 189//39 188//39
f 192//38 193//38 191//38
f 192//38 191//38 190//38
f 194//40 195//40 193//40
f 194//40 193//40 192//40
f 192//36 190//36 188//36
f 194//36 192//36 188//36
f 191//34 193//34 195//34
f 189//34 191//34 195//34
f 113//38 195//38 194//38
f 113//38 194//38 110//38
f 108//1 105//1 104//1
f 108//1 104//1 109//1
f 109//1 104//1 106//1
f 109//1 106//1 112//1
f 112//1 106//1 107//1
f 112//1 107//1 114//1
f 114//1 107//1 105//1
f 114//1 105//1 108//1
