# Botball Lab: metres, +Y up, centred XZ, base Y=0
s off
v -0.0156657 0.0012191 0.0006520
v -0.0151000 0.0009591 0.0008000
v -0.0151000 0.0024000 0.0008000
v -0.0159000 0.0020463 0.0006528
v -0.0159000 0.0024568 0.0007432
v -0.0159000 0.0019134 -0.0000000
v -0.0156657 0.0010894 -0.0000000
v -0.0151000 0.0008000 -0.0000000
v -0.0159000 0.0032000 -0.0000000
v -0.0151000 0.0024000 0.0022409
v -0.0156657 0.0025480 0.0019809
v -0.0159000 0.0025472 0.0011537
v -0.0159000 0.0032000 0.0012866
v -0.0156657 0.0032000 0.0021106
v -0.0151000 0.0032000 0.0024000
v -0.0156657 0.0025480 -0.0019809
v -0.0151000 0.0024000 -0.0022409
v -0.0151000 0.0024000 -0.0008000
v -0.0159000 0.0025472 -0.0011537
v -0.0159000 0.0024568 -0.0007432
v -0.0159000 0.0032000 -0.0013124
v -0.0156657 0.0032000 -0.0021106
v -0.0151000 0.0032000 -0.0024000
v -0.0151000 0.0009591 -0.0008000
v -0.0156657 0.0012191 -0.0006520
v -0.0159000 0.0020463 -0.0006528
v -0.0156657 0.0051809 -0.0006520
v -0.0151000 0.0054409 -0.0008000
v -0.0151000 0.0040000 -0.0008000
v -0.0159000 0.0043537 -0.0006528
v -0.0159000 0.0039432 -0.0007432
v -0.0159000 0.0044866 -0.0000000
v -0.0156657 0.0053106 -0.0000000
v -0.0151000 0.0056000 -0.0000000
v -0.0151000 0.0040000 -0.0022409
v -0.0156657 0.0038520 -0.0019809
v -0.0159000 0.0038528 -0.0011537
v -0.0156657 0.0038520 0.0019809
v -0.0151000 0.0040000 0.0022409
v -0.0151000 0.0040000 0.0008000
v -0.0159000 0.0038528 0.0011537
v -0.0159000 0.0039432 0.0007432
v -0.0151000 0.0054409 0.0008000
v -0.0156657 0.0051809 0.0006520
v -0.0159000 0.0043537 0.0006528
v 0.0151000 0.0024000 -0.0008000
v 0.0151000 0.0024000 -0.0022409
v 0.0151000 0.0009591 -0.0008000
v 0.0151000 0.0040000 -0.0008000
v 0.0151000 0.0040000 -0.0022409
v 0.0151000 0.0054409 -0.0008000
v 0.0151000 0.0040000 0.0008000
v 0.0151000 0.0040000 0.0022409
v 0.0151000 0.0054409 0.0008000
v 0.0151000 0.0024000 0.0008000
v 0.0151000 0.0024000 0.0022409
v 0.0151000 0.0009591 0.0008000
v 0.0151000 0.0008000 -0.0000000
v 0.0151000 0.0032000 -0.0024000
v 0.0151000 0.0056000 -0.0000000
v 0.0151000 0.0032000 0.0024000
v 0.0151000 0.0002435 -0.0012246
v 0.0151000 0.0000000 -0.0000000
v 0.0151000 0.0032000 -0.0000000
v 0.0151000 0.0009373 -0.0022627
v 0.0151000 0.0019754 -0.0029565
v 0.0151000 0.0032000 -0.0032000
v 0.0151000 0.0044246 -0.0029565
v 0.0151000 0.0054627 -0.0022627
v 0.0151000 0.0061565 -0.0012246
v 0.0151000 0.0064000 -0.0000000
v 0.0151000 0.0061565 0.0012246
v 0.0151000 0.0054627 0.0022627
v 0.0151000 0.0044246 0.0029565
v 0.0151000 0.0032000 0.0032000
v 0.0151000 0.0019754 0.0029565
v 0.0151000 0.0009373 0.0022627
v 0.0151000 0.0002435 0.0012246
v 0.0159000 0.0032000 -0.0000000
v 0.0159000 0.0000000 -0.0000000
v 0.0159000 0.0002435 -0.0012246
v 0.0159000 0.0009373 -0.0022627
v 0.0159000 0.0019754 -0.0029565
v 0.0159000 0.0032000 -0.0032000
v 0.0159000 0.0044246 -0.0029565
v 0.0159000 0.0054627 -0.0022627
v 0.0159000 0.0061565 -0.0012246
v 0.0159000 0.0064000 -0.0000000
v 0.0159000 0.0061565 0.0012246
v 0.0159000 0.0054627 0.0022627
v 0.0159000 0.0044246 0.0029565
v 0.0159000 0.0032000 0.0032000
v 0.0159000 0.0019754 0.0029565
v 0.0159000 0.0009373 0.0022627
v 0.0159000 0.0002435 0.0012246
f 1 2 3
f 1 3 4
f 4 3 5
f 1 4 6
f 1 6 7
f 2 1 7
f 2 7 8
f 9 6 4
f 9 4 5
f 10 11 3
f 3 11 12
f 3 12 5
f 13 12 11
f 13 11 14
f 14 11 10
f 14 10 15
f 12 13 9
f 12 9 5
f 16 17 18
f 16 18 19
f 19 18 20
f 16 19 21
f 16 21 22
f 17 16 22
f 17 22 23
f 9 21 19
f 9 19 20
f 24 25 18
f 18 25 26
f 18 26 20
f 6 26 25
f 6 25 7
f 7 25 24
f 7 24 8
f 26 6 9
f 26 9 20
f 27 28 29
f 27 29 30
f 30 29 31
f 27 30 32
f 27 32 33
f 28 27 33
f 28 33 34
f 9 32 30
f 9 30 31
f 35 36 29
f 29 36 37
f 29 37 31
f 21 37 36
f 21 36 22
f 22 36 35
f 22 35 23
f 37 21 9
f 37 9 31
f 38 39 40
f 38 40 41
f 41 40 42
f 38 41 13
f 38 13 14
f 39 38 14
f 39 14 15
f 9 13 41
f 9 41 42
f 43 44 40
f 40 44 45
f 40 45 42
f 32 45 44
f 32 44 33
f 33 44 43
f 33 43 34
f 45 32 9
f 45 9 42
f 46 18 17
f 46 17 47
f 24 18 46
f 24 46 48
f 35 29 49
f 50 35 49
f 49 29 28
f 51 49 28
f 52 40 39
f 52 39 53
f 43 40 52
f 43 52 54
f 10 3 55
f 56 10 55
f 55 3 2
f 57 55 2
f 24 48 58
f 24 58 8
f 17 23 59
f 17 59 47
f 35 50 59
f 35 59 23
f 28 34 60
f 28 60 51
f 43 54 60
f 43 60 34
f 10 56 61
f 10 61 15
f 39 15 61
f 39 61 53
f 2 8 58
f 2 58 57
f 62 63 64
f 65 62 64
f 66 65 64
f 67 66 64
f 68 67 64
f 69 68 64
f 70 69 64
f 71 70 64
f 72 71 64
f 73 72 64
f 74 73 64
f 75 74 64
f 76 75 64
f 77 76 64
f 78 77 64
f 63 78 64
f 79 80 81
f 79 81 82
f 79 82 83
f 79 83 84
f 79 84 85
f 79 85 86
f 79 86 87
f 79 87 88
f 79 88 89
f 79 89 90
f 79 90 91
f 79 91 92
f 79 92 93
f 79 93 94
f 79 94 95
f 79 95 80
f 63 62 81
f 63 81 80
f 62 65 82
f 62 82 81
f 65 66 83
f 65 83 82
f 66 67 84
f 66 84 83
f 67 68 85
f 67 85 84
f 68 69 86
f 68 86 85
f 69 70 87
f 69 87 86
f 70 71 88
f 70 88 87
f 71 72 89
f 71 89 88
f 72 73 90
f 72 90 89
f 73 74 91
f 73 91 90
f 74 75 92
f 74 92 91
f 75 76 93
f 75 93 92
f 76 77 94
f 76 94 93
f 77 78 95
f 77 95 94
f 78 63 80
f 78 80 95
