# Botball Lab: metres, +Y up, centred XZ, base Y=0
s off
v 0.0000000 0.0000000 -0.0024000
v -0.0009185 0.0000000 -0.0022174
v -0.0012246 0.0000000 -0.0029565
v 0.0000000 0.0000000 -0.0032000
v -0.0016970 0.0000000 -0.0016970
v -0.0022627 0.0000000 -0.0022627
v -0.0022174 0.0000000 -0.0009185
v -0.0029565 0.0000000 -0.0012246
v -0.0024000 0.0000000 -0.0000000
v -0.0032000 0.0000000 -0.0000000
v -0.0022174 0.0000000 0.0009185
v -0.0029565 0.0000000 0.0012246
v -0.0016970 0.0000000 0.0016970
v -0.0022627 0.0000000 0.0022627
v -0.0009185 0.0000000 0.0022174
v -0.0012246 0.0000000 0.0029565
v 0.0000000 0.0000000 0.0024000
v 0.0000000 0.0000000 0.0032000
v 0.0009185 0.0000000 0.0022174
v 0.0012246 0.0000000 0.0029565
v 0.0016970 0.0000000 0.0016970
v 0.0022627 0.0000000 0.0022627
v 0.0022174 0.0000000 0.0009185
v 0.0029565 0.0000000 0.0012246
v 0.0024000 0.0000000 -0.0000000
v 0.0032000 0.0000000 -0.0000000
v 0.0022174 0.0000000 -0.0009185
v 0.0029565 0.0000000 -0.0012246
v 0.0016970 0.0000000 -0.0016970
v 0.0022627 0.0000000 -0.0022627
v 0.0009185 0.0000000 -0.0022174
v 0.0012246 0.0000000 -0.0029565
v 0.0029565 0.0020000 -0.0012246
v 0.0032000 0.0020000 -0.0000000
v 0.0022627 0.0020000 -0.0022627
v 0.0012246 0.0020000 -0.0029565
v 0.0000000 0.0020000 -0.0032000
v -0.0012246 0.0020000 -0.0029565
v -0.0022627 0.0020000 -0.0022627
v -0.0029565 0.0020000 -0.0012246
v -0.0032000 0.0020000 -0.0000000
v -0.0029565 0.0020000 0.0012246
v -0.0022627 0.0020000 0.0022627
v -0.0012246 0.0020000 0.0029565
v 0.0000000 0.0020000 0.0032000
v 0.0012246 0.0020000 0.0029565
v 0.0022627 0.0020000 0.0022627
v 0.0029565 0.0020000 0.0012246
v -0.0022174 0.0020000 -0.0009185
v -0.0024000 0.0020000 -0.0000000
v -0.0016970 0.0020000 -0.0016970
v -0.0009185 0.0020000 -0.0022174
v 0.0000000 0.0020000 -0.0024000
v 0.0009185 0.0020000 -0.0022174
v 0.0016970 0.0020000 -0.0016970
v 0.0022174 0.0020000 -0.0009185
v 0.0024000 0.0020000 -0.0000000
v 0.0022174 0.0020000 0.0009185
v 0.0016970 0.0020000 0.0016970
v 0.0009185 0.0020000 0.0022174
v 0.0000000 0.0020000 0.0024000
v -0.0009185 0.0020000 0.0022174
v -0.0016970 0.0020000 0.0016970
v -0.0022174 0.0020000 0.0009185
v 0.0022174 0.0024000 -0.0009185
v 0.0024000 0.0024000 -0.0000000
v 0.0016970 0.0024000 -0.0016970
v 0.0009185 0.0024000 -0.0022174
v 0.0000000 0.0024000 -0.0024000
v -0.0009185 0.0024000 -0.0022174
v -0.0016970 0.0024000 -0.0016970
v -0.0022174 0.0024000 -0.0009185
v -0.0024000 0.0024000 -0.0000000
v -0.0022174 0.0024000 0.0009185
v -0.0016970 0.0024000 0.0016970
v -0.0009185 0.0024000 0.0022174
v 0.0000000 0.0024000 0.0024000
v 0.0009185 0.0024000 0.0022174
v 0.0016970 0.0024000 0.0016970
v 0.0022174 0.0024000 0.0009185
v 0.0022173 0.0048000 -0.0009184
v 0.0016971 0.0048000 -0.0016971
v 0.0009184 0.0048000 -0.0022173
v -0.0009184 0.0048000 -0.0022173
v -0.0016971 0.0048000 -0.0016971
v -0.0022173 0.0048000 -0.0009184
v -0.0022173 0.0048000 0.0009184
v -0.0016971 0.0048000 0.0016971
v -0.0009184 0.0048000 0.0022173
v 0.0009184 0.0048000 0.0022173
v 0.0016971 0.0048000 0.0016971
v 0.0022173 0.0048000 0.0009184
v 0.0010000 0.0048000 -0.0010000
v 0.0016000 0.0048000 -0.0008000
v 0.0022409 0.0048000 -0.0008000
v 0.0008000 0.0048000 -0.0016000
v 0.0008000 0.0048000 -0.0022409
v -0.0010000 0.0048000 -0.0010000
v -0.0008000 0.0048000 -0.0016000
v -0.0008000 0.0048000 -0.0022409
v -0.0022409 0.0048000 -0.0008000
v -0.0016000 0.0048000 -0.0008000
v -0.0016000 0.0048000 0.0008000
v -0.0022409 0.0048000 0.0008000
v -0.0010000 0.0048000 0.0010000
v -0.0008000 0.0048000 0.0022409
v -0.0008000 0.0048000 0.0016000
v 0.0010000 0.0048000 0.0010000
v 0.0008000 0.0048000 0.0022409
v 0.0008000 0.0048000 0.0016000
v 0.0016000 0.0048000 0.0008000
v 0.0022409 0.0048000 0.0008000
v 0.0022173 0.0024000 0.0009184
v 0.0016971 0.0024000 0.0016971
v 0.0009184 0.0024000 0.0022173
v -0.0009184 0.0024000 0.0022173
v -0.0016971 0.0024000 0.0016971
v -0.0022173 0.0024000 0.0009184
v -0.0022173 0.0024000 -0.0009184
v -0.0016971 0.0024000 -0.0016971
v -0.0009184 0.0024000 -0.0022173
v 0.0009184 0.0024000 -0.0022173
v 0.0016971 0.0024000 -0.0016971
v 0.0022173 0.0024000 -0.0009184
v 0.0010000 0.0024000 0.0010000
v 0.0016000 0.0024000 0.0008000
v 0.0022409 0.0024000 0.0008000
v 0.0008000 0.0024000 0.0016000
v 0.0008000 0.0024000 0.0022409
v -0.0010000 0.0024000 0.0010000
v -0.0008000 0.0024000 0.0016000
v -0.0008000 0.0024000 0.0022409
v -0.0022409 0.0024000 0.0008000
v -0.0016000 0.0024000 0.0008000
v -0.0016000 0.0024000 -0.0008000
v -0.0022409 0.0024000 -0.0008000
v -0.0010000 0.0024000 -0.0010000
v -0.0008000 0.0024000 -0.0022409
v -0.0008000 0.0024000 -0.0016000
v 0.0010000 0.0024000 -0.0010000
v 0.0008000 0.0024000 -0.0022409
v 0.0008000 0.0024000 -0.0016000
v 0.0016000 0.0024000 -0.0008000
v 0.0022409 0.0024000 -0.0008000
v 0.0024000 0.0048000 -0.0000000
v 0.0000000 0.0048000 -0.0024000
v -0.0024000 0.0048000 -0.0000000
v 0.0000000 0.0048000 0.0024000
v 0.0014782 0.0096000 -0.0006123
v 0.0014782 0.0048000 -0.0006123
v 0.0016000 0.0048000 -0.0000000
v 0.0016000 0.0096000 -0.0000000
v 0.0011314 0.0096000 -0.0011314
v 0.0011314 0.0048000 -0.0011314
v 0.0006123 0.0096000 -0.0014782
v 0.0006123 0.0048000 -0.0014782
v 0.0000000 0.0096000 -0.0016000
v 0.0000000 0.0048000 -0.0016000
v -0.0006123 0.0096000 -0.0014782
v -0.0006123 0.0048000 -0.0014782
v -0.0011314 0.0096000 -0.0011314
v -0.0011314 0.0048000 -0.0011314
v -0.0014782 0.0096000 -0.0006123
v -0.0014782 0.0048000 -0.0006123
v -0.0016000 0.0096000 -0.0000000
v -0.0016000 0.0048000 -0.0000000
v -0.0014782 0.0096000 0.0006123
v -0.0014782 0.0048000 0.0006123
v -0.0011314 0.0096000 0.0011314
v -0.0011314 0.0048000 0.0011314
v -0.0006123 0.0096000 0.0014782
v -0.0006123 0.0048000 0.0014782
v 0.0000000 0.0096000 0.0016000
v 0.0000000 0.0048000 0.0016000
v 0.0006123 0.0096000 0.0014782
v 0.0006123 0.0048000 0.0014782
v 0.0011314 0.0096000 0.0011314
v 0.0011314 0.0048000 0.0011314
v 0.0014782 0.0096000 0.0006123
v 0.0014782 0.0048000 0.0006123
v 0.0014782 0.0112000 -0.0006123
v 0.0016000 0.0112000 -0.0000000
v 0.0011314 0.0112000 -0.0011314
v 0.0006123 0.0112000 -0.0014782
v 0.0000000 0.0112000 -0.0016000
v -0.0006123 0.0112000 -0.0014782
v -0.0011314 0.0112000 -0.0011314
v -0.0014782 0.0112000 -0.0006123
v -0.0016000 0.0112000 -0.0000000
v -0.0014782 0.0112000 0.0006123
v -0.0011314 0.0112000 0.0011314
v -0.0006123 0.0112000 0.0014782
v 0.0000000 0.0112000 0.0016000
v 0.0006123 0.0112000 0.0014782
v 0.0011314 0.0112000 0.0011314
v 0.0014782 0.0112000 0.0006123
v 0.0024000 0.0096000 -0.0000000
v 0.0022174 0.0096000 -0.0009185
v 0.0022174 0.0112000 -0.0009185
v 0.0024000 0.0112000 -0.0000000
v 0.0016970 0.0096000 -0.0016970
v 0.0016970 0.0112000 -0.0016970
v 0.0009185 0.0096000 -0.0022174
v 0.0009185 0.0112000 -0.0022174
v 0.0000000 0.0096000 -0.0024000
v 0.0000000 0.0112000 -0.0024000
v -0.0009185 0.0096000 -0.0022174
v -0.0009185 0.0112000 -0.0022174
v -0.0016970 0.0096000 -0.0016970
v -0.0016970 0.0112000 -0.0016970
v -0.0022174 0.0096000 -0.0009185
v -0.0022174 0.0112000 -0.0009185
v -0.0024000 0.0096000 -0.0000000
v -0.0024000 0.0112000 -0.0000000
v -0.0022174 0.0096000 0.0009185
v -0.0022174 0.0112000 0.0009185
v -0.0016970 0.0096000 0.0016970
v -0.0016970 0.0112000 0.0016970
v -0.0009185 0.0096000 0.0022174
v -0.0009185 0.0112000 0.0022174
v 0.0000000 0.0096000 0.0024000
v 0.0000000 0.0112000 0.0024000
v 0.0009185 0.0096000 0.0022174
v 0.0009185 0.0112000 0.0022174
v 0.0016970 0.0096000 0.0016970
v 0.0016970 0.0112000 0.0016970
v 0.0022174 0.0096000 0.0009185
v 0.0022174 0.0112000 0.0009185
v 0.0015308 0.0020000 -0.0036956
v 0.0000000 0.0020000 -0.0040000
v 0.0028284 0.0020000 -0.0028284
v 0.0036956 0.0020000 -0.0015308
v 0.0040000 0.0020000 -0.0000000
v 0.0036956 0.0020000 0.0015308
v 0.0028284 0.0020000 0.0028284
v 0.0015308 0.0020000 0.0036956
v 0.0000000 0.0020000 0.0040000
v -0.0015308 0.0020000 0.0036956
v -0.0028284 0.0020000 0.0028284
v -0.0036956 0.0020000 0.0015308
v -0.0040000 0.0020000 -0.0000000
v -0.0036956 0.0020000 -0.0015308
v -0.0028284 0.0020000 -0.0028284
v -0.0015308 0.0020000 -0.0036956
v 0.0009185 0.0048000 -0.0022174
v 0.0016970 0.0048000 -0.0016970
v 0.0022174 0.0048000 -0.0009185
v 0.0022174 0.0048000 0.0009185
v 0.0016970 0.0048000 0.0016970
v 0.0009185 0.0048000 0.0022174
v -0.0009185 0.0048000 0.0022174
v -0.0016970 0.0048000 0.0016970
v -0.0022174 0.0048000 0.0009185
v -0.0022174 0.0048000 -0.0009185
v -0.0016970 0.0048000 -0.0016970
v -0.0009185 0.0048000 -0.0022174
v -0.0029565 0.0058000 -0.0012246
v -0.0032000 0.0058000 -0.0000000
v -0.0022627 0.0058000 -0.0022627
v -0.0012246 0.0058000 -0.0029565
v 0.0000000 0.0058000 -0.0032000
v 0.0012246 0.0058000 -0.0029565
v 0.0022627 0.0058000 -0.0022627
v 0.0029565 0.0058000 -0.0012246
v 0.0032000 0.0058000 -0.0000000
v 0.0029565 0.0058000 0.0012246
v 0.0022627 0.0058000 0.0022627
v 0.0012246 0.0058000 0.0029565
v 0.0000000 0.0058000 0.0032000
v -0.0012246 0.0058000 0.0029565
v -0.0022627 0.0058000 0.0022627
v -0.0029565 0.0058000 0.0012246
f 1 2 3
f 4 1 3
f 2 5 6
f 3 2 6
f 5 7 8
f 6 5 8
f 7 9 10
f 8 7 10
f 9 11 12
f 10 9 12
f 11 13 14
f 12 11 14
f 13 15 16
f 14 13 16
f 15 17 18
f 16 15 18
f 17 19 20
f 18 17 20
f 19 21 22
f 20 19 22
f 21 23 24
f 22 21 24
f 23 25 26
f 24 23 26
f 25 27 28
f 26 25 28
f 27 29 30
f 28 27 30
f 29 31 32
f 30 29 32
f 31 1 4
f 32 31 4
f 26 28 33
f 26 33 34
f 28 30 35
f 28 35 33
f 30 32 36
f 30 36 35
f 32 4 37
f 32 37 36
f 4 3 38
f 4 38 37
f 3 6 39
f 3 39 38
f 6 8 40
f 6 40 39
f 8 10 41
f 8 41 40
f 10 12 42
f 10 42 41
f 12 14 43
f 12 43 42
f 14 16 44
f 14 44 43
f 16 18 45
f 16 45 44
f 18 20 46
f 18 46 45
f 20 22 47
f 20 47 46
f 22 24 48
f 22 48 47
f 24 26 34
f 24 34 48
f 7 49 50
f 9 7 50
f 5 51 49
f 7 5 49
f 2 52 51
f 5 2 51
f 1 53 52
f 2 1 52
f 31 54 53
f 1 31 53
f 29 55 54
f 31 29 54
f 27 56 55
f 29 27 55
f 25 57 56
f 27 25 56
f 23 58 57
f 25 23 57
f 21 59 58
f 23 21 58
f 19 60 59
f 21 19 59
f 17 61 60
f 19 17 60
f 15 62 61
f 17 15 61
f 13 63 62
f 15 13 62
f 11 64 63
f 13 11 63
f 9 50 64
f 11 9 64
f 65 56 57
f 66 65 57
f 67 55 56
f 65 67 56
f 68 54 55
f 67 68 55
f 69 53 54
f 68 69 54
f 70 52 53
f 69 70 53
f 71 51 52
f 70 71 52
f 72 49 51
f 71 72 51
f 73 50 49
f 72 73 49
f 74 64 50
f 73 74 50
f 75 63 64
f 74 75 64
f 76 62 63
f 75 76 63
f 77 61 62
f 76 77 62
f 78 60 61
f 77 78 61
f 79 59 60
f 78 79 60
f 80 58 59
f 79 80 59
f 66 57 58
f 80 66 58
f 81 82 83
f 84 85 86
f 87 88 89
f 90 91 92
f 81 83 93
f 93 94 95
f 93 95 81
f 96 93 83
f 96 83 97
f 98 84 86
f 98 99 100
f 98 100 84
f 101 102 98
f 101 98 86
f 103 104 87
f 103 87 105
f 87 89 105
f 89 106 107
f 89 107 105
f 90 92 108
f 109 90 108
f 109 108 110
f 111 108 92
f 111 92 112
f 113 114 115
f 116 117 118
f 119 120 121
f 122 123 124
f 113 115 125
f 125 126 127
f 125 127 113
f 128 125 115
f 128 115 129
f 130 116 118
f 130 131 132
f 130 132 116
f 133 134 130
f 133 130 118
f 135 136 119
f 135 119 137
f 119 121 137
f 121 138 139
f 121 139 137
f 122 124 140
f 141 122 140
f 141 140 142
f 143 140 124
f 143 124 144
f 66 145 95
f 66 95 144
f 143 144 95
f 143 95 94
f 143 94 93
f 143 93 140
f 140 93 96
f 140 96 142
f 142 96 97
f 142 97 141
f 97 146 69
f 97 69 141
f 69 146 100
f 69 100 138
f 139 138 100
f 139 100 99
f 139 99 98
f 139 98 137
f 137 98 102
f 137 102 135
f 135 102 101
f 135 101 136
f 136 101 147
f 136 147 73
f 73 147 104
f 73 104 133
f 133 104 103
f 133 103 134
f 134 103 105
f 134 105 130
f 130 105 107
f 130 107 131
f 131 107 106
f 131 106 132
f 106 148 77
f 106 77 132
f 77 148 109
f 77 109 129
f 129 109 110
f 129 110 128
f 128 110 108
f 128 108 125
f 125 108 111
f 125 111 126
f 126 111 112
f 126 112 127
f 127 112 145
f 127 145 66
f 149 150 151
f 152 149 151
f 153 154 150
f 149 153 150
f 155 156 154
f 153 155 154
f 157 158 156
f 155 157 156
f 159 160 158
f 157 159 158
f 161 162 160
f 159 161 160
f 163 164 162
f 161 163 162
f 165 166 164
f 163 165 164
f 167 168 166
f 165 167 166
f 169 170 168
f 167 169 168
f 171 172 170
f 169 171 170
f 173 174 172
f 171 173 172
f 175 176 174
f 173 175 174
f 177 178 176
f 175 177 176
f 179 180 178
f 177 179 178
f 152 151 180
f 179 152 180
f 181 149 152
f 182 181 152
f 183 153 149
f 181 183 149
f 184 155 153
f 183 184 153
f 185 157 155
f 184 185 155
f 186 159 157
f 185 186 157
f 187 161 159
f 186 187 159
f 188 163 161
f 187 188 161
f 189 165 163
f 188 189 163
f 190 167 165
f 189 190 165
f 191 169 167
f 190 191 167
f 192 171 169
f 191 192 169
f 193 173 171
f 192 193 171
f 194 175 173
f 193 194 173
f 195 177 175
f 194 195 175
f 196 179 177
f 195 196 177
f 182 152 179
f 196 182 179
f 197 198 199
f 197 199 200
f 198 201 202
f 198 202 199
f 201 203 204
f 201 204 202
f 203 205 206
f 203 206 204
f 205 207 208
f 205 208 206
f 207 209 210
f 207 210 208
f 209 211 212
f 209 212 210
f 211 213 214
f 211 214 212
f 213 215 216
f 213 216 214
f 215 217 218
f 215 218 216
f 217 219 220
f 217 220 218
f 219 221 222
f 219 222 220
f 221 223 224
f 221 224 222
f 223 225 226
f 223 226 224
f 225 227 228
f 225 228 226
f 227 197 200
f 227 200 228
f 208 186 185
f 208 185 206
f 210 187 186
f 210 186 208
f 212 188 187
f 212 187 210
f 214 189 188
f 214 188 212
f 216 190 189
f 216 189 214
f 218 191 190
f 218 190 216
f 220 192 191
f 220 191 218
f 222 193 192
f 222 192 220
f 224 194 193
f 224 193 222
f 226 195 194
f 226 194 224
f 228 196 195
f 228 195 226
f 200 182 196
f 200 196 228
f 199 181 182
f 199 182 200
f 202 183 181
f 202 181 199
f 204 184 183
f 204 183 202
f 206 185 184
f 206 184 204
f 229 36 37
f 229 37 230
f 231 35 36
f 231 36 229
f 232 33 35
f 232 35 231
f 233 34 33
f 233 33 232
f 234 48 34
f 234 34 233
f 235 47 48
f 235 48 234
f 236 46 47
f 236 47 235
f 237 45 46
f 237 46 236
f 238 44 45
f 238 45 237
f 239 43 44
f 239 44 238
f 240 42 43
f 240 43 239
f 241 41 42
f 241 42 240
f 242 40 41
f 242 41 241
f 243 39 40
f 243 40 242
f 244 38 39
f 244 39 243
f 230 37 38
f 230 38 244
f 245 156 158
f 245 158 146
f 246 154 156
f 246 156 245
f 247 150 154
f 247 154 246
f 145 151 150
f 145 150 247
f 248 180 151
f 248 151 145
f 249 178 180
f 249 180 248
f 250 176 178
f 250 178 249
f 148 174 176
f 148 176 250
f 251 172 174
f 251 174 148
f 252 170 172
f 252 172 251
f 253 168 170
f 253 170 252
f 147 166 168
f 147 168 253
f 254 164 166
f 254 166 147
f 255 162 164
f 255 164 254
f 256 160 162
f 256 162 255
f 146 158 160
f 146 160 256
f 213 211 257
f 213 257 258
f 211 209 259
f 211 259 257
f 209 207 260
f 209 260 259
f 207 205 261
f 207 261 260
f 205 203 262
f 205 262 261
f 203 201 263
f 203 263 262
f 201 198 264
f 201 264 263
f 198 197 265
f 198 265 264
f 197 227 266
f 197 266 265
f 227 225 267
f 227 267 266
f 225 223 268
f 225 268 267
f 223 221 269
f 223 269 268
f 221 219 270
f 221 270 269
f 219 217 271
f 219 271 270
f 217 215 272
f 217 272 271
f 215 213 258
f 215 258 272
f 269 270 238
f 269 238 237
f 270 271 239
f 270 239 238
f 271 272 240
f 271 240 239
f 272 258 241
f 272 241 240
f 258 257 242
f 258 242 241
f 257 259 243
f 257 243 242
f 259 260 244
f 259 244 243
f 260 261 230
f 260 230 244
f 261 262 229
f 261 229 230
f 262 263 231
f 262 231 229
f 263 264 232
f 263 232 231
f 264 265 233
f 264 233 232
f 265 266 234
f 265 234 233
f 266 267 235
f 266 235 234
f 267 268 236
f 267 236 235
f 268 269 237
f 268 237 236
