# Botball Lab: metres, +Y up, centred XZ, base Y=0
s off
v 0.0066000 0.0024000 -0.0022409
v 0.0066000 0.0024000 -0.0008000
v 0.0006000 0.0024000 -0.0008000
v 0.0006000 0.0024000 -0.0022409
v 0.0066000 0.0009591 -0.0008000
v 0.0006000 0.0009591 -0.0008000
v 0.0006000 0.0040000 -0.0008000
v 0.0066000 0.0040000 -0.0008000
v 0.0066000 0.0040000 -0.0022409
v 0.0006000 0.0040000 -0.0022409
v 0.0066000 0.0054409 -0.0008000
v 0.0006000 0.0054409 -0.0008000
v 0.0066000 0.0040000 0.0022409
v 0.0066000 0.0040000 0.0008000
v 0.0006000 0.0040000 0.0008000
v 0.0006000 0.0040000 0.0022409
v 0.0066000 0.0054409 0.0008000
v 0.0006000 0.0054409 0.0008000
v 0.0006000 0.0024000 0.0008000
v 0.0066000 0.0024000 0.0008000
v 0.0066000 0.0024000 0.0022409
v 0.0006000 0.0024000 0.0022409
v 0.0066000 0.0009591 0.0008000
v 0.0006000 0.0009591 0.0008000
v 0.0006000 0.0008000 -0.0000000
v 0.0066000 0.0008000 -0.0000000
v 0.0006000 0.0032000 -0.0024000
v 0.0066000 0.0032000 -0.0024000
v 0.0006000 0.0056000 -0.0000000
v 0.0066000 0.0056000 -0.0000000
v 0.0006000 0.0032000 0.0024000
v 0.0066000 0.0032000 0.0024000
v 0.0071657 0.0012191 0.0006520
v 0.0074000 0.0020463 0.0006528
v 0.0074000 0.0024568 0.0007432
v 0.0074000 0.0019134 -0.0000000
v 0.0071657 0.0010894 -0.0000000
v 0.0074000 0.0032000 -0.0000000
v 0.0071657 0.0025480 0.0019809
v 0.0074000 0.0025472 0.0011537
v 0.0074000 0.0032000 0.0012866
v 0.0071657 0.0032000 0.0021106
v 0.0071657 0.0025480 -0.0019809
v 0.0074000 0.0025472 -0.0011537
v 0.0074000 0.0024568 -0.0007432
v 0.0074000 0.0032000 -0.0013124
v 0.0071657 0.0032000 -0.0021106
v 0.0071657 0.0012191 -0.0006520
v 0.0074000 0.0020463 -0.0006528
v 0.0071657 0.0051809 -0.0006520
v 0.0074000 0.0043537 -0.0006528
v 0.0074000 0.0039432 -0.0007432
v 0.0074000 0.0044866 -0.0000000
v 0.0071657 0.0053106 -0.0000000
v 0.0071657 0.0038520 -0.0019809
v 0.0074000 0.0038528 -0.0011537
v 0.0071657 0.0038520 0.0019809
v 0.0074000 0.0038528 0.0011537
v 0.0074000 0.0039432 0.0007432
v 0.0071657 0.0051809 0.0006520
v 0.0074000 0.0043537 0.0006528
v 0.0006000 0.0002435 0.0012246
v 0.0006000 0.0000000 -0.0000000
v 0.0006000 0.0032000 -0.0000000
v 0.0006000 0.0009373 0.0022627
v 0.0006000 0.0019754 0.0029565
v 0.0006000 0.0032000 0.0032000
v 0.0006000 0.0044246 0.0029565
v 0.0006000 0.0054627 0.0022627
v 0.0006000 0.0061565 0.0012246
v 0.0006000 0.0064000 -0.0000000
v 0.0006000 0.0061565 -0.0012246
v 0.0006000 0.0054627 -0.0022627
v 0.0006000 0.0044246 -0.0029565
v 0.0006000 0.0032000 -0.0032000
v 0.0006000 0.0019754 -0.0029565
v 0.0006000 0.0009373 -0.0022627
v 0.0006000 0.0002435 -0.0012246
v -0.0002000 0.0002435 0.0012246
v -0.0002000 0.0000000 -0.0000000
v -0.0002000 0.0009373 0.0022627
v -0.0002000 0.0019754 0.0029565
v -0.0002000 0.0032000 0.0032000
v -0.0002000 0.0044246 0.0029565
v -0.0002000 0.0054627 0.0022627
v -0.0002000 0.0061565 0.0012246
v -0.0002000 0.0064000 -0.0000000
v -0.0002000 0.0061565 -0.0012246
v -0.0002000 0.0054627 -0.0022627
v -0.0002000 0.0044246 -0.0029565
v -0.0002000 0.0032000 -0.0032000
v -0.0002000 0.0019754 -0.0029565
v -0.0002000 0.0009373 -0.0022627
v -0.0002000 0.0002435 -0.0012246
v -0.0002000 0.0032000 -0.0016000
v -0.0002000 0.0038123 -0.0014782
v -0.0002000 0.0043314 -0.0011314
v -0.0002000 0.0046782 -0.0006123
v -0.0002000 0.0048000 -0.0000000
v -0.0002000 0.0046782 0.0006123
v -0.0002000 0.0043314 0.0011314
v -0.0002000 0.0038123 0.0014782
v -0.0002000 0.0032000 0.0016000
v -0.0002000 0.0025877 0.0014782
v -0.0002000 0.0020686 0.0011314
v -0.0002000 0.0017218 0.0006123
v -0.0002000 0.0016000 -0.0000000
v -0.0002000 0.0017218 -0.0006123
v -0.0002000 0.0020686 -0.0011314
v -0.0002000 0.0025877 -0.0014782
v -0.0010000 0.0017218 0.0006123
v -0.0010000 0.0016000 -0.0000000
v -0.0010000 0.0020686 0.0011314
v -0.0010000 0.0025877 0.0014782
v -0.0010000 0.0032000 0.0016000
v -0.0010000 0.0038123 0.0014782
v -0.0010000 0.0043314 0.0011314
v -0.0010000 0.0046782 0.0006123
v -0.0010000 0.0048000 -0.0000000
v -0.0010000 0.0046782 -0.0006123
v -0.0010000 0.0043314 -0.0011314
v -0.0010000 0.0038123 -0.0014782
v -0.0010000 0.0032000 -0.0016000
v -0.0010000 0.0025877 -0.0014782
v -0.0010000 0.0020686 -0.0011314
v -0.0010000 0.0017218 -0.0006123
v -0.0015558 0.0016000 -0.0000000
v -0.0015558 0.0017218 -0.0006123
v -0.0015558 0.0020686 -0.0011314
v -0.0015558 0.0025877 -0.0014782
v -0.0015558 0.0032000 -0.0016000
v -0.0015558 0.0038123 -0.0014782
v -0.0015558 0.0043314 -0.0011314
v -0.0015558 0.0046782 -0.0006123
v -0.0015558 0.0048000 -0.0000000
v -0.0015558 0.0046782 0.0006123
v -0.0015558 0.0043314 0.0011314
v -0.0015558 0.0038123 0.0014782
v -0.0015558 0.0032000 0.0016000
v -0.0015558 0.0025877 0.0014782
v -0.0015558 0.0020686 0.0011314
v -0.0015558 0.0017218 0.0006123
v -0.0010000 0.0032000 -0.0000000
v -0.0012435 0.0019754 -0.0000000
v -0.0012435 0.0032000 -0.0012246
v -0.0016925 0.0017942 -0.0014058
v -0.0019373 0.0032000 -0.0022627
v -0.0027942 0.0017942 -0.0025075
v -0.0029754 0.0032000 -0.0029565
v -0.0042000 0.0019754 -0.0029565
v -0.0042000 0.0032000 -0.0032000
v -0.0019373 0.0009373 -0.0000000
v -0.0027942 0.0006925 -0.0014058
v -0.0042000 0.0009373 -0.0022627
v -0.0029754 0.0002435 -0.0000000
v -0.0042000 0.0002435 -0.0012246
v -0.0042000 0.0000000 -0.0000000
v -0.0012435 0.0032000 0.0012246
v -0.0016925 0.0017942 0.0014058
v -0.0019373 0.0032000 0.0022627
v -0.0027942 0.0017942 0.0025075
v -0.0029754 0.0032000 0.0029565
v -0.0042000 0.0019754 0.0029565
v -0.0042000 0.0032000 0.0032000
v -0.0027942 0.0006925 0.0014058
v -0.0042000 0.0009373 0.0022627
v -0.0042000 0.0002435 0.0012246
v -0.0012435 0.0044246 -0.0000000
v -0.0016925 0.0046058 -0.0014058
v -0.0027942 0.0046058 -0.0025075
v -0.0042000 0.0044246 -0.0029565
v -0.0019373 0.0054627 -0.0000000
v -0.0027942 0.0057075 -0.0014058
v -0.0042000 0.0054627 -0.0022627
v -0.0029754 0.0061565 -0.0000000
v -0.0042000 0.0061565 -0.0012246
v -0.0042000 0.0064000 -0.0000000
v -0.0016925 0.0046058 0.0014058
v -0.0027942 0.0046058 0.0025075
v -0.0042000 0.0044246 0.0029565
v -0.0027942 0.0057075 0.0014058
v -0.0042000 0.0054627 0.0022627
v -0.0042000 0.0061565 0.0012246
v -0.0071565 0.0032000 -0.0012246
v -0.0071565 0.0019754 -0.0000000
v -0.0074000 0.0032000 -0.0000000
v -0.0067075 0.0017942 -0.0014058
v -0.0064627 0.0032000 -0.0022627
v -0.0056058 0.0017942 -0.0025075
v -0.0054246 0.0032000 -0.0029565
v -0.0064627 0.0009373 -0.0000000
v -0.0056058 0.0006925 -0.0014058
v -0.0054246 0.0002435 -0.0000000
v -0.0071565 0.0032000 0.0012246
v -0.0067075 0.0017942 0.0014058
v -0.0064627 0.0032000 0.0022627
v -0.0056058 0.0017942 0.0025075
v -0.0054246 0.0032000 0.0029565
v -0.0056058 0.0006925 0.0014058
v -0.0071565 0.0044246 -0.0000000
v -0.0067075 0.0046058 -0.0014058
v -0.0056058 0.0046058 -0.0025075
v -0.0064627 0.0054627 -0.0000000
v -0.0056058 0.0057075 -0.0014058
v -0.0054246 0.0061565 -0.0000000
v -0.0067075 0.0046058 0.0014058
v -0.0056058 0.0046058 0.0025075
v -0.0056058 0.0057075 0.0014058
f 1 2 3
f 4 1 3
f 3 2 5
f 6 3 5
f 7 8 9
f 7 9 10
f 11 8 7
f 11 7 12
f 13 14 15
f 16 13 15
f 15 14 17
f 18 15 17
f 19 20 21
f 19 21 22
f 23 20 19
f 23 19 24
f 25 6 5
f 26 25 5
f 27 28 1
f 4 27 1
f 27 10 9
f 28 27 9
f 29 30 11
f 12 29 11
f 29 18 17
f 30 29 17
f 31 22 21
f 32 31 21
f 31 32 13
f 16 31 13
f 25 26 23
f 24 25 23
f 20 23 33
f 34 20 33
f 35 20 34
f 36 34 33
f 37 36 33
f 37 33 23
f 26 37 23
f 34 36 38
f 35 34 38
f 20 39 21
f 40 39 20
f 35 40 20
f 39 40 41
f 42 39 41
f 21 39 42
f 32 21 42
f 38 41 40
f 35 38 40
f 2 1 43
f 44 2 43
f 45 2 44
f 46 44 43
f 47 46 43
f 47 43 1
f 28 47 1
f 44 46 38
f 45 44 38
f 2 48 5
f 49 48 2
f 45 49 2
f 48 49 36
f 37 48 36
f 5 48 37
f 26 5 37
f 38 36 49
f 45 38 49
f 8 11 50
f 51 8 50
f 52 8 51
f 53 51 50
f 54 53 50
f 54 50 11
f 30 54 11
f 51 53 38
f 52 51 38
f 8 55 9
f 56 55 8
f 52 56 8
f 55 56 46
f 47 55 46
f 9 55 47
f 28 9 47
f 38 46 56
f 52 38 56
f 14 13 57
f 58 14 57
f 59 14 58
f 41 58 57
f 42 41 57
f 42 57 13
f 32 42 13
f 58 41 38
f 59 58 38
f 14 60 17
f 61 60 14
f 59 61 14
f 60 61 53
f 54 60 53
f 17 60 54
f 30 17 54
f 38 53 61
f 59 38 61
f 62 63 64
f 65 62 64
f 66 65 64
f 67 66 64
f 68 67 64
f 69 68 64
f 70 69 64
f 71 70 64
f 72 71 64
f 73 72 64
f 74 73 64
f 75 74 64
f 76 75 64
f 77 76 64
f 78 77 64
f 63 78 64
f 62 79 80
f 63 62 80
f 65 81 79
f 62 65 79
f 66 82 81
f 65 66 81
f 67 83 82
f 66 67 82
f 68 84 83
f 67 68 83
f 69 85 84
f 68 69 84
f 70 86 85
f 69 70 85
f 71 87 86
f 70 71 86
f 72 88 87
f 71 72 87
f 73 89 88
f 72 73 88
f 74 90 89
f 73 74 89
f 75 91 90
f 74 75 90
f 76 92 91
f 75 76 91
f 77 93 92
f 76 77 92
f 78 94 93
f 77 78 93
f 63 80 94
f 78 63 94
f 95 96 90
f 91 95 90
f 96 97 89
f 90 96 89
f 97 98 88
f 89 97 88
f 98 99 87
f 88 98 87
f 99 100 86
f 87 99 86
f 100 101 85
f 86 100 85
f 101 102 84
f 85 101 84
f 102 103 83
f 84 102 83
f 103 104 82
f 83 103 82
f 104 105 81
f 82 104 81
f 105 106 79
f 81 105 79
f 106 107 80
f 79 106 80
f 107 108 94
f 80 107 94
f 108 109 93
f 94 108 93
f 109 110 92
f 93 109 92
f 110 95 91
f 92 110 91
f 106 111 112
f 107 106 112
f 105 113 111
f 106 105 111
f 104 114 113
f 105 104 113
f 103 115 114
f 104 103 114
f 102 116 115
f 103 102 115
f 101 117 116
f 102 101 116
f 100 118 117
f 101 100 117
f 99 119 118
f 100 99 118
f 98 120 119
f 99 98 119
f 97 121 120
f 98 97 120
f 96 122 121
f 97 96 121
f 95 123 122
f 96 95 122
f 110 124 123
f 95 110 123
f 109 125 124
f 110 109 124
f 108 126 125
f 109 108 125
f 107 112 126
f 108 107 126
f 127 128 126
f 127 126 112
f 128 129 125
f 128 125 126
f 129 130 124
f 129 124 125
f 130 131 123
f 130 123 124
f 131 132 122
f 131 122 123
f 132 133 121
f 132 121 122
f 133 134 120
f 133 120 121
f 134 135 119
f 134 119 120
f 135 136 118
f 135 118 119
f 136 137 117
f 136 117 118
f 137 138 116
f 137 116 117
f 138 139 115
f 138 115 116
f 139 140 114
f 139 114 115
f 140 141 113
f 140 113 114
f 141 142 111
f 141 111 113
f 142 127 112
f 142 112 111
f 143 144 145
f 144 146 145
f 145 146 147
f 146 148 147
f 147 148 149
f 148 150 149
f 149 150 151
f 144 152 146
f 152 153 146
f 146 153 148
f 153 154 148
f 148 154 150
f 152 155 153
f 155 156 153
f 153 156 154
f 155 157 156
f 158 144 143
f 158 159 144
f 160 159 158
f 160 161 159
f 162 161 160
f 162 163 161
f 164 163 162
f 159 152 144
f 159 165 152
f 161 165 159
f 161 166 165
f 163 166 161
f 165 155 152
f 165 167 155
f 166 167 165
f 167 157 155
f 145 168 143
f 145 169 168
f 147 169 145
f 147 170 169
f 149 170 147
f 149 171 170
f 151 171 149
f 169 172 168
f 169 173 172
f 170 173 169
f 170 174 173
f 171 174 170
f 173 175 172
f 173 176 175
f 174 176 173
f 176 177 175
f 143 168 158
f 168 178 158
f 158 178 160
f 178 179 160
f 160 179 162
f 179 180 162
f 162 180 164
f 168 172 178
f 172 181 178
f 178 181 179
f 181 182 179
f 179 182 180
f 172 175 181
f 175 183 181
f 181 183 182
f 175 177 183
f 184 185 186
f 184 187 185
f 188 187 184
f 188 189 187
f 190 189 188
f 190 150 189
f 151 150 190
f 187 191 185
f 187 192 191
f 189 192 187
f 189 154 192
f 150 154 189
f 192 193 191
f 192 156 193
f 154 156 192
f 156 157 193
f 186 185 194
f 185 195 194
f 194 195 196
f 195 197 196
f 196 197 198
f 197 163 198
f 198 163 164
f 185 191 195
f 191 199 195
f 195 199 197
f 199 166 197
f 197 166 163
f 191 193 199
f 193 167 199
f 199 167 166
f 193 157 167
f 186 200 184
f 200 201 184
f 184 201 188
f 201 202 188
f 188 202 190
f 202 171 190
f 190 171 151
f 200 203 201
f 203 204 201
f 201 204 202
f 204 174 202
f 202 174 171
f 203 205 204
f 205 176 204
f 204 176 174
f 205 177 176
f 194 200 186
f 194 206 200
f 196 206 194
f 196 207 206
f 198 207 196
f 198 180 207
f 164 180 198
f 206 203 200
f 206 208 203
f 207 208 206
f 207 182 208
f 180 182 207
f 208 205 203
f 208 183 205
f 182 183 208
f 183 177 205
