# Botball Lab: metres, +Y up, centred XZ, base Y=0
s off
v 0.0060000 0.0012650 -0.0000000
v 0.0055434 0.0012650 -0.0022962
v 0.0073912 0.0023000 -0.0030616
v 0.0080000 0.0023000 -0.0000000
v 0.0042426 0.0012650 -0.0042426
v 0.0056568 0.0023000 -0.0056568
v 0.0022962 0.0012650 -0.0055434
v 0.0030616 0.0023000 -0.0073912
v 0.0000000 0.0012650 -0.0060000
v 0.0000000 0.0023000 -0.0080000
v -0.0022962 0.0012650 -0.0055434
v -0.0030616 0.0023000 -0.0073912
v -0.0042426 0.0012650 -0.0042426
v -0.0056568 0.0023000 -0.0056568
v -0.0055434 0.0012650 -0.0022962
v -0.0073912 0.0023000 -0.0030616
v -0.0060000 0.0012650 -0.0000000
v -0.0080000 0.0023000 -0.0000000
v -0.0055434 0.0012650 0.0022962
v -0.0073912 0.0023000 0.0030616
v -0.0042426 0.0012650 0.0042426
v -0.0056568 0.0023000 0.0056568
v -0.0022962 0.0012650 0.0055434
v -0.0030616 0.0023000 0.0073912
v 0.0000000 0.0012650 0.0060000
v 0.0000000 0.0023000 0.0080000
v 0.0022962 0.0012650 0.0055434
v 0.0030616 0.0023000 0.0073912
v 0.0042426 0.0012650 0.0042426
v 0.0056568 0.0023000 0.0056568
v 0.0055434 0.0012650 0.0022962
v 0.0073912 0.0023000 0.0030616
v 0.0030000 0.0002300 -0.0000000
v 0.0027717 0.0002300 -0.0011481
v 0.0021213 0.0002300 -0.0021213
v 0.0011481 0.0002300 -0.0027717
v 0.0000000 0.0002300 -0.0030000
v -0.0011481 0.0002300 -0.0027717
v -0.0021213 0.0002300 -0.0021213
v -0.0027717 0.0002300 -0.0011481
v -0.0030000 0.0002300 -0.0000000
v -0.0027717 0.0002300 0.0011481
v -0.0021213 0.0002300 0.0021213
v -0.0011481 0.0002300 0.0027717
v 0.0000000 0.0002300 0.0030000
v 0.0011481 0.0002300 0.0027717
v 0.0021213 0.0002300 0.0021213
v 0.0027717 0.0002300 0.0011481
v 0.0000000 0.0000000 -0.0000000
v 0.0021216 0.0002300 -0.0021216
v -0.0021216 0.0002300 -0.0021216
v -0.0021216 0.0002300 0.0021216
v 0.0021216 0.0002300 0.0021216
v 0.0073912 0.0027500 -0.0030616
v 0.0080000 0.0027500 -0.0000000
v 0.0056568 0.0027500 -0.0056568
v 0.0030616 0.0027500 -0.0073912
v 0.0000000 0.0027500 -0.0080000
v -0.0030616 0.0027500 -0.0073912
v -0.0056568 0.0027500 -0.0056568
v -0.0073912 0.0027500 -0.0030616
v -0.0080000 0.0027500 -0.0000000
v -0.0073912 0.0027500 0.0030616
v -0.0056568 0.0027500 0.0056568
v -0.0030616 0.0027500 0.0073912
v 0.0000000 0.0027500 0.0080000
v 0.0030616 0.0027500 0.0073912
v 0.0056568 0.0027500 0.0056568
v 0.0073912 0.0027500 0.0030616
v 0.0060054 0.0027500 -0.0024875
v 0.0048043 0.0019700 -0.0019900
v 0.0052000 0.0019700 -0.0000000
v 0.0065000 0.0027500 -0.0000000
v 0.0045962 0.0027500 -0.0045962
v 0.0036769 0.0019700 -0.0036769
v 0.0024875 0.0027500 -0.0060054
v 0.0019900 0.0019700 -0.0048043
v 0.0000000 0.0027500 -0.0065000
v 0.0000000 0.0019700 -0.0052000
v -0.0024875 0.0027500 -0.0060054
v -0.0019900 0.0019700 -0.0048043
v -0.0045962 0.0027500 -0.0045962
v -0.0036769 0.0019700 -0.0036769
v -0.0060054 0.0027500 -0.0024875
v -0.0048043 0.0019700 -0.0019900
v -0.0065000 0.0027500 -0.0000000
v -0.0052000 0.0019700 -0.0000000
v -0.0060054 0.0027500 0.0024875
v -0.0048043 0.0019700 0.0019900
v -0.0045962 0.0027500 0.0045962
v -0.0036769 0.0019700 0.0036769
v -0.0024875 0.0027500 0.0060054
v -0.0019900 0.0019700 0.0048043
v 0.0000000 0.0027500 0.0065000
v 0.0000000 0.0019700 0.0052000
v 0.0024875 0.0027500 0.0060054
v 0.0019900 0.0019700 0.0048043
v 0.0045962 0.0027500 0.0045962
v 0.0036769 0.0019700 0.0036769
v 0.0060054 0.0027500 0.0024875
v 0.0048043 0.0019700 0.0019900
v 0.0044347 0.0017200 -0.0018370
v 0.0048000 0.0017200 -0.0000000
v 0.0033941 0.0017200 -0.0033941
v 0.0018370 0.0017200 -0.0044347
v 0.0000000 0.0017200 -0.0048000
v -0.0018370 0.0017200 -0.0044347
v -0.0033941 0.0017200 -0.0033941
v -0.0044347 0.0017200 -0.0018370
v -0.0048000 0.0017200 -0.0000000
v -0.0044347 0.0017200 0.0018370
v -0.0033941 0.0017200 0.0033941
v -0.0018370 0.0017200 0.0044347
v 0.0000000 0.0017200 0.0048000
v 0.0018370 0.0017200 0.0044347
v 0.0033941 0.0017200 0.0033941
v 0.0044347 0.0017200 0.0018370
v -0.0022174 0.0013200 0.0009185
v -0.0024000 0.0013200 -0.0000000
v -0.0016970 0.0013200 0.0016970
v -0.0009185 0.0013200 0.0022174
v 0.0000000 0.0013200 0.0024000
v 0.0009185 0.0013200 0.0022174
v 0.0016970 0.0013200 0.0016970
v 0.0022174 0.0013200 0.0009185
v 0.0024000 0.0013200 -0.0000000
v 0.0022174 0.0013200 -0.0009185
v 0.0016970 0.0013200 -0.0016970
v 0.0009185 0.0013200 -0.0022174
v 0.0000000 0.0013200 -0.0024000
v -0.0009185 0.0013200 -0.0022174
v -0.0016970 0.0013200 -0.0016970
v -0.0022174 0.0013200 -0.0009185
v 0.0000000 0.0013200 -0.0000000
v -0.0056000 0.0048000 -0.0040000
v -0.0054782 0.0048000 -0.0046123
v -0.0056000 0.0048000 -0.0043182
v -0.0051314 0.0048000 -0.0051314
v -0.0053565 0.0048000 -0.0049064
v -0.0046123 0.0048000 -0.0054782
v -0.0049064 0.0048000 -0.0053565
v -0.0040000 0.0048000 -0.0056000
v -0.0043182 0.0048000 -0.0056000
v -0.0046123 0.0032000 -0.0054782
v -0.0040000 0.0032000 -0.0056000
v -0.0051314 0.0032000 -0.0051314
v -0.0054782 0.0032000 -0.0046123
v -0.0056000 0.0032000 -0.0040000
v -0.0054782 0.0048000 -0.0033877
v -0.0054782 0.0032000 -0.0033877
v -0.0051314 0.0048000 -0.0028686
v -0.0051314 0.0032000 -0.0028686
v -0.0046123 0.0048000 -0.0025218
v -0.0046123 0.0032000 -0.0025218
v -0.0040000 0.0048000 -0.0024000
v -0.0040000 0.0032000 -0.0024000
v -0.0033877 0.0048000 -0.0025218
v -0.0033877 0.0032000 -0.0025218
v -0.0028686 0.0048000 -0.0028686
v -0.0028686 0.0032000 -0.0028686
v -0.0025218 0.0048000 -0.0033877
v -0.0025218 0.0032000 -0.0033877
v -0.0024000 0.0048000 -0.0040000
v -0.0024000 0.0032000 -0.0040000
v -0.0025218 0.0048000 -0.0046123
v -0.0025218 0.0032000 -0.0046123
v -0.0028686 0.0048000 -0.0051314
v -0.0028686 0.0032000 -0.0051314
v -0.0033877 0.0048000 -0.0054782
v -0.0033877 0.0032000 -0.0054782
v -0.0064000 0.0048000 -0.0040000
v -0.0062174 0.0048000 -0.0030815
v -0.0056970 0.0048000 -0.0023030
v -0.0049185 0.0048000 -0.0017826
v -0.0040000 0.0048000 -0.0016000
v -0.0030815 0.0048000 -0.0017826
v -0.0023030 0.0048000 -0.0023030
v -0.0017826 0.0048000 -0.0030815
v -0.0016000 0.0048000 -0.0040000
v -0.0017826 0.0048000 -0.0049185
v -0.0023030 0.0048000 -0.0056970
v -0.0030815 0.0048000 -0.0062174
v -0.0040000 0.0048000 -0.0064000
v -0.0047755 0.0048000 -0.0062458
v -0.0046124 0.0048000 -0.0054780
v -0.0056568 0.0048000 -0.0056568
v -0.0051312 0.0048000 -0.0051312
v -0.0054780 0.0048000 -0.0046124
v -0.0062458 0.0048000 -0.0047755
v -0.0062174 0.0032000 -0.0030815
v -0.0064000 0.0032000 -0.0040000
v -0.0056970 0.0032000 -0.0023030
v -0.0049185 0.0032000 -0.0017826
v -0.0040000 0.0032000 -0.0016000
v -0.0030815 0.0032000 -0.0017826
v -0.0023030 0.0032000 -0.0023030
v -0.0017826 0.0032000 -0.0030815
v -0.0016000 0.0032000 -0.0040000
v -0.0017826 0.0032000 -0.0049185
v -0.0023030 0.0032000 -0.0056970
v -0.0030815 0.0032000 -0.0062174
v -0.0040000 0.0032000 -0.0064000
v -0.0047755 0.0032000 -0.0062458
v -0.0056568 0.0032000 -0.0056568
v -0.0062458 0.0032000 -0.0047755
v -0.0040000 0.0032000 -0.0040000
v 0.0000000 0.0027500 -0.0080004
v -0.0000000 0.0027500 -0.0076004
v 0.0029085 0.0027500 -0.0070216
v -0.0030615 0.0027500 -0.0073912
v -0.0029084 0.0027500 -0.0070216
v -0.0000000 0.0027500 -0.0076002
v -0.0000000 0.0032000 -0.0076002
v 0.0029084 0.0032000 -0.0070215
v 0.0029084 0.0027500 -0.0070215
v -0.0029084 0.0027500 -0.0070214
v -0.0029084 0.0032000 -0.0070214
v 0.0000001 0.0032000 -0.0072002
v 0.0000001 0.0032000 -0.0076002
v -0.0029084 0.0032000 -0.0070215
v -0.0027553 0.0032000 -0.0066519
v 0.0027553 0.0032000 -0.0066519
v 0.0029084 0.0032000 -0.0070214
v 0.0000001 0.0032000 -0.0070002
v -0.0026788 0.0032000 -0.0064672
v 0.0026788 0.0032000 -0.0064671
v 0.0000001 0.0032000 -0.0065002
v -0.0024874 0.0032000 -0.0060052
v 0.0024874 0.0032000 -0.0060051
v 0.0024874 0.0032000 -0.0060052
v -0.0000000 0.0032000 -0.0065001
v -0.0000000 0.0027500 -0.0065001
v 0.0024874 0.0027500 -0.0060052
v -0.0024874 0.0032000 -0.0060051
v -0.0024874 0.0027500 -0.0060051
v -0.0040000 0.0027500 -0.0064000
v -0.0038757 0.0032000 -0.0063753
v -0.0038757 0.0027500 -0.0063753
v -0.0064000 0.0027500 -0.0040000
v -0.0062458 0.0027500 -0.0047755
v -0.0063753 0.0027500 -0.0038757
v -0.0070215 0.0027500 -0.0029084
v -0.0070215 0.0032000 -0.0029084
v -0.0063753 0.0032000 -0.0038757
v -0.0047759 0.0032000 -0.0062458
v -0.0047753 0.0027500 -0.0062459
v -0.0026259 0.0032000 -0.0059129
v -0.0024876 0.0032000 -0.0060054
v -0.0060054 0.0032000 -0.0024876
v -0.0059129 0.0032000 -0.0026259
v -0.0059129 0.0027500 -0.0026259
v -0.0056970 0.0025430 -0.0023030
v -0.0060054 0.0027500 -0.0024876
v -0.0026259 0.0027500 -0.0059129
v -0.0024876 0.0027500 -0.0060054
v -0.0023030 0.0025430 -0.0056970
v -0.0017826 0.0020138 -0.0049185
v -0.0016000 0.0016397 -0.0040000
v -0.0016922 0.0017200 -0.0044635
v -0.0017826 0.0015237 -0.0030815
v -0.0023030 0.0014628 -0.0023030
v -0.0030815 0.0015237 -0.0017826
v -0.0040000 0.0016397 -0.0016000
v -0.0049185 0.0020138 -0.0017826
v -0.0044635 0.0017200 -0.0016922
v 0.0040000 0.0048000 -0.0056000
v 0.0046123 0.0048000 -0.0054782
v 0.0043182 0.0048000 -0.0056000
v 0.0051314 0.0048000 -0.0051314
v 0.0049064 0.0048000 -0.0053565
v 0.0054782 0.0048000 -0.0046123
v 0.0053565 0.0048000 -0.0049064
v 0.0056000 0.0048000 -0.0040000
v 0.0056000 0.0048000 -0.0043182
v 0.0054782 0.0032000 -0.0046123
v 0.0056000 0.0032000 -0.0040000
v 0.0051314 0.0032000 -0.0051314
v 0.0046123 0.0032000 -0.0054782
v 0.0040000 0.0032000 -0.0056000
v 0.0033877 0.0048000 -0.0054782
v 0.0033877 0.0032000 -0.0054782
v 0.0028686 0.0048000 -0.0051314
v 0.0028686 0.0032000 -0.0051314
v 0.0025218 0.0048000 -0.0046123
v 0.0025218 0.0032000 -0.0046123
v 0.0024000 0.0048000 -0.0040000
v 0.0024000 0.0032000 -0.0040000
v 0.0025218 0.0048000 -0.0033877
v 0.0025218 0.0032000 -0.0033877
v 0.0028686 0.0048000 -0.0028686
v 0.0028686 0.0032000 -0.0028686
v 0.0033877 0.0048000 -0.0025218
v 0.0033877 0.0032000 -0.0025218
v 0.0040000 0.0048000 -0.0024000
v 0.0040000 0.0032000 -0.0024000
v 0.0046123 0.0048000 -0.0025218
v 0.0046123 0.0032000 -0.0025218
v 0.0051314 0.0048000 -0.0028686
v 0.0051314 0.0032000 -0.0028686
v 0.0054782 0.0048000 -0.0033877
v 0.0054782 0.0032000 -0.0033877
v 0.0040000 0.0048000 -0.0064000
v 0.0030815 0.0048000 -0.0062174
v 0.0023030 0.0048000 -0.0056970
v 0.0017826 0.0048000 -0.0049185
v 0.0016000 0.0048000 -0.0040000
v 0.0017826 0.0048000 -0.0030815
v 0.0023030 0.0048000 -0.0023030
v 0.0030815 0.0048000 -0.0017826
v 0.0040000 0.0048000 -0.0016000
v 0.0049185 0.0048000 -0.0017826
v 0.0056970 0.0048000 -0.0023030
v 0.0062174 0.0048000 -0.0030815
v 0.0064000 0.0048000 -0.0040000
v 0.0062458 0.0048000 -0.0047755
v 0.0054780 0.0048000 -0.0046124
v 0.0056568 0.0048000 -0.0056568
v 0.0051312 0.0048000 -0.0051312
v 0.0046124 0.0048000 -0.0054780
v 0.0047755 0.0048000 -0.0062458
v 0.0030815 0.0032000 -0.0062174
v 0.0040000 0.0032000 -0.0064000
v 0.0023030 0.0032000 -0.0056970
v 0.0017826 0.0032000 -0.0049185
v 0.0016000 0.0032000 -0.0040000
v 0.0017826 0.0032000 -0.0030815
v 0.0023030 0.0032000 -0.0023030
v 0.0030815 0.0032000 -0.0017826
v 0.0040000 0.0032000 -0.0016000
v 0.0049185 0.0032000 -0.0017826
v 0.0056970 0.0032000 -0.0023030
v 0.0062174 0.0032000 -0.0030815
v 0.0064000 0.0032000 -0.0040000
v 0.0062458 0.0032000 -0.0047755
v 0.0056568 0.0032000 -0.0056568
v 0.0047755 0.0032000 -0.0062458
v 0.0040000 0.0032000 -0.0040000
v 0.0080004 0.0027500 -0.0000000
v 0.0076004 0.0027500 -0.0000000
v 0.0070216 0.0027500 0.0029085
v 0.0073912 0.0027500 -0.0030615
v 0.0070216 0.0027500 -0.0029084
v 0.0076002 0.0027500 -0.0000000
v 0.0076002 0.0032000 -0.0000000
v 0.0070215 0.0032000 0.0029084
v 0.0070215 0.0027500 0.0029084
v 0.0070214 0.0027500 -0.0029084
v 0.0070214 0.0032000 -0.0029084
v 0.0072002 0.0032000 0.0000001
v 0.0076002 0.0032000 0.0000001
v 0.0070215 0.0032000 -0.0029084
v 0.0066519 0.0032000 -0.0027553
v 0.0066519 0.0032000 0.0027553
v 0.0070214 0.0032000 0.0029084
v 0.0070002 0.0032000 0.0000001
v 0.0064672 0.0032000 -0.0026788
v 0.0064671 0.0032000 0.0026788
v 0.0065002 0.0032000 0.0000001
v 0.0060052 0.0032000 -0.0024874
v 0.0060051 0.0032000 0.0024874
v 0.0060052 0.0032000 0.0024874
v 0.0065001 0.0032000 -0.0000000
v 0.0065001 0.0027500 -0.0000000
v 0.0060052 0.0027500 0.0024874
v 0.0060051 0.0032000 -0.0024874
v 0.0060051 0.0027500 -0.0024874
v 0.0064000 0.0027500 -0.0040000
v 0.0063753 0.0032000 -0.0038757
v 0.0063753 0.0027500 -0.0038757
v 0.0040000 0.0027500 -0.0064000
v 0.0047755 0.0027500 -0.0062458
v 0.0038757 0.0027500 -0.0063753
v 0.0038757 0.0032000 -0.0063753
v 0.0062458 0.0032000 -0.0047759
v 0.0062459 0.0027500 -0.0047753
v 0.0059129 0.0032000 -0.0026259
v 0.0060054 0.0032000 -0.0024876
v 0.0024876 0.0032000 -0.0060054
v 0.0026259 0.0032000 -0.0059129
v 0.0026259 0.0027500 -0.0059129
v 0.0023030 0.0025430 -0.0056970
v 0.0024876 0.0027500 -0.0060054
v 0.0059129 0.0027500 -0.0026259
v 0.0060054 0.0027500 -0.0024876
v 0.0056970 0.0025430 -0.0023030
v 0.0049185 0.0020138 -0.0017826
v 0.0040000 0.0016397 -0.0016000
v 0.0044635 0.0017200 -0.0016922
v 0.0030815 0.0015237 -0.0017826
v 0.0023030 0.0014628 -0.0023030
v 0.0017826 0.0015237 -0.0030815
v 0.0016000 0.0016397 -0.0040000
v 0.0017826 0.0020138 -0.0049185
v 0.0016922 0.0017200 -0.0044635
v 0.0056000 0.0048000 0.0040000
v 0.0054782 0.0048000 0.0046123
v 0.0056000 0.0048000 0.0043182
v 0.0051314 0.0048000 0.0051314
v 0.0053565 0.0048000 0.0049064
v 0.0046123 0.0048000 0.0054782
v 0.0049064 0.0048000 0.0053565
v 0.0040000 0.0048000 0.0056000
v 0.0043182 0.0048000 0.0056000
v 0.0046123 0.0032000 0.0054782
v 0.0040000 0.0032000 0.0056000
v 0.0051314 0.0032000 0.0051314
v 0.0054782 0.0032000 0.0046123
v 0.0056000 0.0032000 0.0040000
v 0.0054782 0.0048000 0.0033877
v 0.0054782 0.0032000 0.0033877
v 0.0051314 0.0048000 0.0028686
v 0.0051314 0.0032000 0.0028686
v 0.0046123 0.0048000 0.0025218
v 0.0046123 0.0032000 0.0025218
v 0.0040000 0.0048000 0.0024000
v 0.0040000 0.0032000 0.0024000
v 0.0033877 0.0048000 0.0025218
v 0.0033877 0.0032000 0.0025218
v 0.0028686 0.0048000 0.0028686
v 0.0028686 0.0032000 0.0028686
v 0.0025218 0.0048000 0.0033877
v 0.0025218 0.0032000 0.0033877
v 0.0024000 0.0048000 0.0040000
v 0.0024000 0.0032000 0.0040000
v 0.0025218 0.0048000 0.0046123
v 0.0025218 0.0032000 0.0046123
v 0.0028686 0.0048000 0.0051314
v 0.0028686 0.0032000 0.0051314
v 0.0033877 0.0048000 0.0054782
v 0.0033877 0.0032000 0.0054782
v 0.0064000 0.0048000 0.0040000
v 0.0062174 0.0048000 0.0030815
v 0.0056970 0.0048000 0.0023030
v 0.0049185 0.0048000 0.0017826
v 0.0040000 0.0048000 0.0016000
v 0.0030815 0.0048000 0.0017826
v 0.0023030 0.0048000 0.0023030
v 0.0017826 0.0048000 0.0030815
v 0.0016000 0.0048000 0.0040000
v 0.0017826 0.0048000 0.0049185
v 0.0023030 0.0048000 0.0056970
v 0.0030815 0.0048000 0.0062174
v 0.0040000 0.0048000 0.0064000
v 0.0047755 0.0048000 0.0062458
v 0.0046124 0.0048000 0.0054780
v 0.0056568 0.0048000 0.0056568
v 0.0051312 0.0048000 0.0051312
v 0.0054780 0.0048000 0.0046124
v 0.0062458 0.0048000 0.0047755
v 0.0062174 0.0032000 0.0030815
v 0.0064000 0.0032000 0.0040000
v 0.0056970 0.0032000 0.0023030
v 0.0049185 0.0032000 0.0017826
v 0.0040000 0.0032000 0.0016000
v 0.0030815 0.0032000 0.0017826
v 0.0023030 0.0032000 0.0023030
v 0.0017826 0.0032000 0.0030815
v 0.0016000 0.0032000 0.0040000
v 0.0017826 0.0032000 0.0049185
v 0.0023030 0.0032000 0.0056970
v 0.0030815 0.0032000 0.0062174
v 0.0040000 0.0032000 0.0064000
v 0.0047755 0.0032000 0.0062458
v 0.0056568 0.0032000 0.0056568
v 0.0062458 0.0032000 0.0047755
v 0.0040000 0.0032000 0.0040000
v 0.0000000 0.0027500 0.0080004
v 0.0000000 0.0027500 0.0076004
v -0.0029085 0.0027500 0.0070216
v 0.0030615 0.0027500 0.0073912
v 0.0029084 0.0027500 0.0070216
v 0.0000000 0.0027500 0.0076002
v 0.0000000 0.0032000 0.0076002
v -0.0029084 0.0032000 0.0070215
v -0.0029084 0.0027500 0.0070215
v 0.0029084 0.0027500 0.0070214
v 0.0029084 0.0032000 0.0070214
v -0.0000001 0.0032000 0.0072002
v -0.0000001 0.0032000 0.0076002
v 0.0029084 0.0032000 0.0070215
v 0.0027553 0.0032000 0.0066519
v -0.0027553 0.0032000 0.0066519
v -0.0029084 0.0032000 0.0070214
v -0.0000001 0.0032000 0.0070002
v 0.0026788 0.0032000 0.0064672
v -0.0026788 0.0032000 0.0064671
v -0.0000001 0.0032000 0.0065002
v 0.0024874 0.0032000 0.0060052
v -0.0024874 0.0032000 0.0060051
v -0.0024874 0.0032000 0.0060052
v 0.0000000 0.0032000 0.0065001
v 0.0000000 0.0027500 0.0065001
v -0.0024874 0.0027500 0.0060052
v 0.0024874 0.0032000 0.0060051
v 0.0024874 0.0027500 0.0060051
v 0.0040000 0.0027500 0.0064000
v 0.0038757 0.0032000 0.0063753
v 0.0038757 0.0027500 0.0063753
v 0.0064000 0.0027500 0.0040000
v 0.0062458 0.0027500 0.0047755
v 0.0063753 0.0027500 0.0038757
v 0.0063753 0.0032000 0.0038757
v 0.0047759 0.0032000 0.0062458
v 0.0047753 0.0027500 0.0062459
v 0.0026259 0.0032000 0.0059129
v 0.0024876 0.0032000 0.0060054
v 0.0060054 0.0032000 0.0024876
v 0.0059129 0.0032000 0.0026259
v 0.0059129 0.0027500 0.0026259
v 0.0056970 0.0025430 0.0023030
v 0.0060054 0.0027500 0.0024876
v 0.0026259 0.0027500 0.0059129
v 0.0024876 0.0027500 0.0060054
v 0.0023030 0.0025430 0.0056970
v 0.0017826 0.0020138 0.0049185
v 0.0016000 0.0016397 0.0040000
v 0.0016922 0.0017200 0.0044635
v 0.0017826 0.0015237 0.0030815
v 0.0023030 0.0014628 0.0023030
v 0.0030815 0.0015237 0.0017826
v 0.0040000 0.0016397 0.0016000
v 0.0049185 0.0020138 0.0017826
v 0.0044635 0.0017200 0.0016922
v -0.0040000 0.0048000 0.0056000
v -0.0046123 0.0048000 0.0054782
v -0.0043182 0.0048000 0.0056000
v -0.0051314 0.0048000 0.0051314
v -0.0049064 0.0048000 0.0053565
v -0.0054782 0.0048000 0.0046123
v -0.0053565 0.0048000 0.0049064
v -0.0056000 0.0048000 0.0040000
v -0.0056000 0.0048000 0.0043182
v -0.0054782 0.0032000 0.0046123
v -0.0056000 0.0032000 0.0040000
v -0.0051314 0.0032000 0.0051314
v -0.0046123 0.0032000 0.0054782
v -0.0040000 0.0032000 0.0056000
v -0.0033877 0.0048000 0.0054782
v -0.0033877 0.0032000 0.0054782
v -0.0028686 0.0048000 0.0051314
v -0.0028686 0.0032000 0.0051314
v -0.0025218 0.0048000 0.0046123
v -0.0025218 0.0032000 0.0046123
v -0.0024000 0.0048000 0.0040000
v -0.0024000 0.0032000 0.0040000
v -0.0025218 0.0048000 0.0033877
v -0.0025218 0.0032000 0.0033877
v -0.0028686 0.0048000 0.0028686
v -0.0028686 0.0032000 0.0028686
v -0.0033877 0.0048000 0.0025218
v -0.0033877 0.0032000 0.0025218
v -0.0040000 0.0048000 0.0024000
v -0.0040000 0.0032000 0.0024000
v -0.0046123 0.0048000 0.0025218
v -0.0046123 0.0032000 0.0025218
v -0.0051314 0.0048000 0.0028686
v -0.0051314 0.0032000 0.0028686
v -0.0054782 0.0048000 0.0033877
v -0.0054782 0.0032000 0.0033877
v -0.0040000 0.0048000 0.0064000
v -0.0030815 0.0048000 0.0062174
v -0.0023030 0.0048000 0.0056970
v -0.0017826 0.0048000 0.0049185
v -0.0016000 0.0048000 0.0040000
v -0.0017826 0.0048000 0.0030815
v -0.0023030 0.0048000 0.0023030
v -0.0030815 0.0048000 0.0017826
v -0.0040000 0.0048000 0.0016000
v -0.0049185 0.0048000 0.0017826
v -0.0056970 0.0048000 0.0023030
v -0.0062174 0.0048000 0.0030815
v -0.0064000 0.0048000 0.0040000
v -0.0062458 0.0048000 0.0047755
v -0.0054780 0.0048000 0.0046124
v -0.0056568 0.0048000 0.0056568
v -0.0051312 0.0048000 0.0051312
v -0.0046124 0.0048000 0.0054780
v -0.0047755 0.0048000 0.0062458
v -0.0030815 0.0032000 0.0062174
v -0.0040000 0.0032000 0.0064000
v -0.0023030 0.0032000 0.0056970
v -0.0017826 0.0032000 0.0049185
v -0.0016000 0.0032000 0.0040000
v -0.0017826 0.0032000 0.0030815
v -0.0023030 0.0032000 0.0023030
v -0.0030815 0.0032000 0.0017826
v -0.0040000 0.0032000 0.0016000
v -0.0049185 0.0032000 0.0017826
v -0.0056970 0.0032000 0.0023030
v -0.0062174 0.0032000 0.0030815
v -0.0064000 0.0032000 0.0040000
v -0.0062458 0.0032000 0.0047755
v -0.0056568 0.0032000 0.0056568
v -0.0047755 0.0032000 0.0062458
v -0.0040000 0.0032000 0.0040000
v -0.0080004 0.0027500 -0.0000000
v -0.0076004 0.0027500 0.0000000
v -0.0070216 0.0027500 -0.0029085
v -0.0073912 0.0027500 0.0030615
v -0.0070216 0.0027500 0.0029084
v -0.0076002 0.0027500 0.0000000
v -0.0076002 0.0032000 0.0000000
v -0.0070214 0.0027500 0.0029084
v -0.0070214 0.0032000 0.0029084
v -0.0072002 0.0032000 -0.0000001
v -0.0076002 0.0032000 -0.0000001
v -0.0070215 0.0032000 0.0029084
v -0.0066519 0.0032000 0.0027553
v -0.0066519 0.0032000 -0.0027553
v -0.0070214 0.0032000 -0.0029084
v -0.0070002 0.0032000 -0.0000001
v -0.0064672 0.0032000 0.0026788
v -0.0064671 0.0032000 -0.0026788
v -0.0065002 0.0032000 -0.0000001
v -0.0060052 0.0032000 0.0024874
v -0.0060051 0.0032000 -0.0024874
v -0.0060052 0.0032000 -0.0024874
v -0.0065001 0.0032000 0.0000000
v -0.0065001 0.0027500 0.0000000
v -0.0060052 0.0027500 -0.0024874
v -0.0060051 0.0032000 0.0024874
v -0.0060051 0.0027500 0.0024874
v -0.0064000 0.0027500 0.0040000
v -0.0063753 0.0032000 0.0038757
v -0.0063753 0.0027500 0.0038757
v -0.0040000 0.0027500 0.0064000
v -0.0047755 0.0027500 0.0062458
v -0.0038757 0.0027500 0.0063753
v -0.0038757 0.0032000 0.0063753
v -0.0062458 0.0032000 0.0047759
v -0.0062459 0.0027500 0.0047753
v -0.0059129 0.0032000 0.0026259
v -0.0060054 0.0032000 0.0024876
v -0.0024876 0.0032000 0.0060054
v -0.0026259 0.0032000 0.0059129
v -0.0026259 0.0027500 0.0059129
v -0.0023030 0.0025430 0.0056970
v -0.0024876 0.0027500 0.0060054
v -0.0059129 0.0027500 0.0026259
v -0.0060054 0.0027500 0.0024876
v -0.0056970 0.0025430 0.0023030
v -0.0049185 0.0020138 0.0017826
v -0.0040000 0.0016397 0.0016000
v -0.0044635 0.0017200 0.0016922
v -0.0030815 0.0015237 0.0017826
v -0.0023030 0.0014628 0.0023030
v -0.0017826 0.0015237 0.0030815
v -0.0016000 0.0016397 0.0040000
v -0.0017826 0.0020138 0.0049185
v -0.0016922 0.0017200 0.0044635
f 1 2 3
f 1 3 4
f 2 5 6
f 2 6 3
f 5 7 8
f 5 8 6
f 7 9 10
f 7 10 8
f 9 11 12
f 9 12 10
f 11 13 14
f 11 14 12
f 13 15 16
f 13 16 14
f 15 17 18
f 15 18 16
f 17 19 20
f 17 20 18
f 19 21 22
f 19 22 20
f 21 23 24
f 21 24 22
f 23 25 26
f 23 26 24
f 25 27 28
f 25 28 26
f 27 29 30
f 27 30 28
f 29 31 32
f 29 32 30
f 31 1 4
f 31 4 32
f 1 33 34
f 1 34 2
f 2 34 35
f 2 35 5
f 5 35 36
f 5 36 7
f 7 36 37
f 7 37 9
f 9 37 38
f 9 38 11
f 11 38 39
f 11 39 13
f 13 39 40
f 13 40 15
f 15 40 41
f 15 41 17
f 17 41 42
f 17 42 19
f 19 42 43
f 19 43 21
f 21 43 44
f 21 44 23
f 23 44 45
f 23 45 25
f 25 45 46
f 25 46 27
f 27 46 47
f 27 47 29
f 29 47 48
f 29 48 31
f 31 48 33
f 31 33 1
f 49 34 33
f 49 50 34
f 49 36 50
f 49 37 36
f 49 38 37
f 49 51 38
f 49 40 51
f 49 41 40
f 49 42 41
f 49 52 42
f 49 44 52
f 49 45 44
f 49 46 45
f 49 53 46
f 49 48 53
f 49 33 48
f 4 3 54
f 4 54 55
f 3 6 56
f 3 56 54
f 6 8 57
f 6 57 56
f 8 10 58
f 8 58 57
f 10 12 59
f 10 59 58
f 12 14 60
f 12 60 59
f 14 16 61
f 14 61 60
f 16 18 62
f 16 62 61
f 18 20 63
f 18 63 62
f 20 22 64
f 20 64 63
f 22 24 65
f 22 65 64
f 24 26 66
f 24 66 65
f 26 28 67
f 26 67 66
f 28 30 68
f 28 68 67
f 30 32 69
f 30 69 68
f 32 4 55
f 32 55 69
f 70 71 72
f 73 70 72
f 74 75 71
f 70 74 71
f 76 77 75
f 74 76 75
f 78 79 77
f 76 78 77
f 80 81 79
f 78 80 79
f 82 83 81
f 80 82 81
f 84 85 83
f 82 84 83
f 86 87 85
f 84 86 85
f 88 89 87
f 86 88 87
f 90 91 89
f 88 90 89
f 92 93 91
f 90 92 91
f 94 95 93
f 92 94 93
f 96 97 95
f 94 96 95
f 98 99 97
f 96 98 97
f 100 101 99
f 98 100 99
f 73 72 101
f 100 73 101
f 71 102 103
f 72 71 103
f 75 104 102
f 71 75 102
f 77 105 104
f 75 77 104
f 79 106 105
f 77 79 105
f 81 107 106
f 79 81 106
f 83 108 107
f 81 83 107
f 85 109 108
f 83 85 108
f 87 110 109
f 85 87 109
f 89 111 110
f 87 89 110
f 91 112 111
f 89 91 111
f 93 113 112
f 91 93 112
f 95 114 113
f 93 95 113
f 97 115 114
f 95 97 114
f 99 116 115
f 97 99 115
f 101 117 116
f 99 101 116
f 72 103 117
f 101 72 117
f 118 119 110
f 111 118 110
f 120 118 111
f 112 120 111
f 121 120 112
f 113 121 112
f 122 121 113
f 114 122 113
f 123 122 114
f 115 123 114
f 124 123 115
f 116 124 115
f 125 124 116
f 117 125 116
f 126 125 117
f 103 126 117
f 127 126 103
f 102 127 103
f 128 127 102
f 104 128 102
f 129 128 104
f 105 129 104
f 130 129 105
f 106 130 105
f 131 130 106
f 107 131 106
f 132 131 107
f 108 132 107
f 133 132 108
f 109 133 108
f 119 133 109
f 110 119 109
f 134 126 127
f 134 127 128
f 134 128 129
f 134 129 130
f 134 130 131
f 134 131 132
f 134 132 133
f 134 133 119
f 134 119 118
f 134 118 120
f 134 120 121
f 134 121 122
f 134 122 123
f 134 123 124
f 134 124 125
f 134 125 126
f 135 136 137
f 136 138 139
f 138 140 141
f 140 142 143
f 140 144 145
f 142 140 145
f 138 146 144
f 140 138 144
f 136 147 146
f 138 136 146
f 135 148 147
f 136 135 147
f 149 150 148
f 135 149 148
f 151 152 150
f 149 151 150
f 153 154 152
f 151 153 152
f 155 156 154
f 153 155 154
f 157 158 156
f 155 157 156
f 159 160 158
f 157 159 158
f 161 162 160
f 159 161 160
f 163 164 162
f 161 163 162
f 165 166 164
f 163 165 164
f 167 168 166
f 165 167 166
f 169 170 168
f 167 169 168
f 142 145 170
f 169 142 170
f 171 172 149
f 171 149 135
f 172 173 151
f 172 151 149
f 173 174 153
f 173 153 151
f 174 175 155
f 174 155 153
f 175 176 157
f 175 157 155
f 176 177 159
f 176 159 157
f 177 178 161
f 177 161 159
f 178 179 163
f 178 163 161
f 179 180 165
f 179 165 163
f 180 181 167
f 180 167 165
f 181 182 169
f 181 169 167
f 182 183 142
f 182 142 169
f 142 183 184
f 142 184 143
f 185 143 184
f 185 184 186
f 185 186 141
f 187 141 186
f 188 139 186
f 188 186 189
f 139 187 186
f 135 137 189
f 135 189 171
f 137 188 189
f 190 172 171
f 190 171 191
f 192 173 172
f 192 172 190
f 193 174 173
f 193 173 192
f 194 175 174
f 194 174 193
f 195 176 175
f 195 175 194
f 196 177 176
f 196 176 195
f 197 178 177
f 197 177 196
f 198 179 178
f 198 178 197
f 199 180 179
f 199 179 198
f 200 181 180
f 200 180 199
f 201 182 181
f 201 181 200
f 202 183 182
f 202 182 201
f 202 203 184
f 202 184 183
f 203 204 186
f 203 186 184
f 204 205 189
f 204 189 186
f 205 191 171
f 205 171 189
f 170 145 206
f 168 170 206
f 166 168 206
f 164 166 206
f 162 164 206
f 160 162 206
f 158 160 206
f 156 158 206
f 154 156 206
f 152 154 206
f 150 152 206
f 148 150 206
f 147 148 206
f 146 147 206
f 144 146 206
f 145 144 206
f 57 207 208
f 57 208 209
f 207 210 211
f 207 211 208
f 212 213 214
f 212 214 215
f 216 217 213
f 216 213 212
f 218 219 220
f 221 218 220
f 222 223 219
f 218 222 219
f 224 218 221
f 225 224 221
f 226 222 218
f 224 226 218
f 227 224 225
f 228 227 225
f 229 226 224
f 227 229 224
f 230 231 232
f 233 230 232
f 231 234 235
f 232 231 235
f 236 202 237
f 236 237 238
f 238 237 217
f 238 217 216
f 239 191 205
f 239 205 240
f 241 242 243
f 241 243 244
f 60 204 245
f 60 245 246
f 240 205 204
f 240 204 60
f 202 236 246
f 202 246 245
f 201 247 248
f 201 248 217
f 217 237 201
f 238 216 59
f 238 59 236
f 59 246 236
f 244 191 239
f 244 239 241
f 249 250 190
f 249 190 243
f 244 243 190
f 239 61 242
f 239 242 241
f 240 61 239
f 192 250 251
f 192 251 252
f 250 249 253
f 250 253 251
f 248 247 254
f 248 254 255
f 254 247 200
f 254 200 256
f 199 257 256
f 199 256 200
f 257 199 198
f 257 198 258
f 257 258 259
f 198 197 260
f 198 260 258
f 197 196 261
f 197 261 260
f 196 195 262
f 196 262 261
f 195 194 263
f 195 263 262
f 194 193 264
f 194 264 263
f 263 264 265
f 193 192 252
f 193 252 264
f 266 267 268
f 267 269 270
f 269 271 272
f 271 273 274
f 271 275 276
f 273 271 276
f 269 277 275
f 271 269 275
f 267 278 277
f 269 267 277
f 266 279 278
f 267 266 278
f 280 281 279
f 266 280 279
f 282 283 281
f 280 282 281
f 284 285 283
f 282 284 283
f 286 287 285
f 284 286 285
f 288 289 287
f 286 288 287
f 290 291 289
f 288 290 289
f 292 293 291
f 290 292 291
f 294 295 293
f 292 294 293
f 296 297 295
f 294 296 295
f 298 299 297
f 296 298 297
f 300 301 299
f 298 300 299
f 273 276 301
f 300 273 301
f 302 303 280
f 302 280 266
f 303 304 282
f 303 282 280
f 304 305 284
f 304 284 282
f 305 306 286
f 305 286 284
f 306 307 288
f 306 288 286
f 307 308 290
f 307 290 288
f 308 309 292
f 308 292 290
f 309 310 294
f 309 294 292
f 310 311 296
f 310 296 294
f 311 312 298
f 311 298 296
f 312 313 300
f 312 300 298
f 313 314 273
f 313 273 300
f 273 314 315
f 273 315 274
f 316 274 315
f 316 315 317
f 316 317 272
f 318 272 317
f 319 270 317
f 319 317 320
f 270 318 317
f 266 268 320
f 266 320 302
f 268 319 320
f 321 303 302
f 321 302 322
f 323 304 303
f 323 303 321
f 324 305 304
f 324 304 323
f 325 306 305
f 325 305 324
f 326 307 306
f 326 306 325
f 327 308 307
f 327 307 326
f 328 309 308
f 328 308 327
f 329 310 309
f 329 309 328
f 330 311 310
f 330 310 329
f 331 312 311
f 331 311 330
f 332 313 312
f 332 312 331
f 333 314 313
f 333 313 332
f 333 334 315
f 333 315 314
f 334 335 317
f 334 317 315
f 335 336 320
f 335 320 317
f 336 322 302
f 336 302 320
f 301 276 337
f 299 301 337
f 297 299 337
f 295 297 337
f 293 295 337
f 291 293 337
f 289 291 337
f 287 289 337
f 285 287 337
f 283 285 337
f 281 283 337
f 279 281 337
f 278 279 337
f 277 278 337
f 275 277 337
f 276 275 337
f 69 338 339
f 69 339 340
f 338 341 342
f 338 342 339
f 343 344 345
f 343 345 346
f 347 348 344
f 347 344 343
f 349 350 351
f 352 349 351
f 353 354 350
f 349 353 350
f 355 349 352
f 356 355 352
f 357 353 349
f 355 357 349
f 358 355 356
f 359 358 356
f 360 357 355
f 358 360 355
f 361 362 363
f 364 361 363
f 362 365 366
f 363 362 366
f 367 333 368
f 367 368 369
f 369 368 348
f 369 348 347
f 370 322 336
f 370 336 371
f 372 215 214
f 372 214 373
f 56 335 374
f 56 374 375
f 371 336 335
f 371 335 56
f 333 367 375
f 333 375 374
f 332 376 377
f 332 377 348
f 348 368 332
f 369 347 54
f 369 54 367
f 54 375 367
f 373 322 370
f 373 370 372
f 378 379 321
f 378 321 214
f 373 214 321
f 370 57 215
f 370 215 372
f 371 57 370
f 323 379 380
f 323 380 381
f 379 378 382
f 379 382 380
f 377 376 383
f 377 383 384
f 383 376 331
f 383 331 385
f 330 386 385
f 330 385 331
f 386 330 329
f 386 329 387
f 386 387 388
f 329 328 389
f 329 389 387
f 328 327 390
f 328 390 389
f 327 326 391
f 327 391 390
f 326 325 392
f 326 392 391
f 325 324 393
f 325 393 392
f 392 393 394
f 324 323 381
f 324 381 393
f 395 396 397
f 396 398 399
f 398 400 401
f 400 402 403
f 400 404 405
f 402 400 405
f 398 406 404
f 400 398 404
f 396 407 406
f 398 396 406
f 395 408 407
f 396 395 407
f 409 410 408
f 395 409 408
f 411 412 410
f 409 411 410
f 413 414 412
f 411 413 412
f 415 416 414
f 413 415 414
f 417 418 416
f 415 417 416
f 419 420 418
f 417 419 418
f 421 422 420
f 419 421 420
f 423 424 422
f 421 423 422
f 425 426 424
f 423 425 424
f 427 428 426
f 425 427 426
f 429 430 428
f 427 429 428
f 402 405 430
f 429 402 430
f 431 432 409
f 431 409 395
f 432 433 411
f 432 411 409
f 433 434 413
f 433 413 411
f 434 435 415
f 434 415 413
f 435 436 417
f 435 417 415
f 436 437 419
f 436 419 417
f 437 438 421
f 437 421 419
f 438 439 423
f 438 423 421
f 439 440 425
f 439 425 423
f 440 441 427
f 440 427 425
f 441 442 429
f 441 429 427
f 442 443 402
f 442 402 429
f 402 443 444
f 402 444 403
f 445 403 444
f 445 444 446
f 445 446 401
f 447 401 446
f 448 399 446
f 448 446 449
f 399 447 446
f 395 397 449
f 395 449 431
f 397 448 449
f 450 432 431
f 450 431 451
f 452 433 432
f 452 432 450
f 453 434 433
f 453 433 452
f 454 435 434
f 454 434 453
f 455 436 435
f 455 435 454
f 456 437 436
f 456 436 455
f 457 438 437
f 457 437 456
f 458 439 438
f 458 438 457
f 459 440 439
f 459 439 458
f 460 441 440
f 460 440 459
f 461 442 441
f 461 441 460
f 462 443 442
f 462 442 461
f 462 463 444
f 462 444 443
f 463 464 446
f 463 446 444
f 464 465 449
f 464 449 446
f 465 451 431
f 465 431 449
f 430 405 466
f 428 430 466
f 426 428 466
f 424 426 466
f 422 424 466
f 420 422 466
f 418 420 466
f 416 418 466
f 414 416 466
f 412 414 466
f 410 412 466
f 408 410 466
f 407 408 466
f 406 407 466
f 404 406 466
f 405 404 466
f 65 467 468
f 65 468 469
f 467 470 471
f 467 471 468
f 472 473 474
f 472 474 475
f 476 477 473
f 476 473 472
f 478 479 480
f 481 478 480
f 482 483 479
f 478 482 479
f 484 478 481
f 485 484 481
f 486 482 478
f 484 486 478
f 487 484 485
f 488 487 485
f 489 486 484
f 487 489 484
f 490 491 492
f 493 490 492
f 491 494 495
f 492 491 495
f 496 462 497
f 496 497 498
f 498 497 477
f 498 477 476
f 499 451 465
f 499 465 500
f 501 346 345
f 501 345 502
f 68 464 503
f 68 503 504
f 500 465 464
f 500 464 68
f 462 496 504
f 462 504 503
f 461 505 506
f 461 506 477
f 477 497 461
f 498 476 67
f 498 67 496
f 67 504 496
f 502 451 499
f 502 499 501
f 507 508 450
f 507 450 345
f 502 345 450
f 499 69 346
f 499 346 501
f 500 69 499
f 452 508 509
f 452 509 510
f 508 507 511
f 508 511 509
f 506 505 512
f 506 512 513
f 512 505 460
f 512 460 514
f 459 515 514
f 459 514 460
f 515 459 458
f 515 458 516
f 515 516 517
f 458 457 518
f 458 518 516
f 457 456 519
f 457 519 518
f 456 455 520
f 456 520 519
f 455 454 521
f 455 521 520
f 454 453 522
f 454 522 521
f 521 522 523
f 453 452 510
f 453 510 522
f 524 525 526
f 525 527 528
f 527 529 530
f 529 531 532
f 529 533 534
f 531 529 534
f 527 535 533
f 529 527 533
f 525 536 535
f 527 525 535
f 524 537 536
f 525 524 536
f 538 539 537
f 524 538 537
f 540 541 539
f 538 540 539
f 542 543 541
f 540 542 541
f 544 545 543
f 542 544 543
f 546 547 545
f 544 546 545
f 548 549 547
f 546 548 547
f 550 551 549
f 548 550 549
f 552 553 551
f 550 552 551
f 554 555 553
f 552 554 553
f 556 557 555
f 554 556 555
f 558 559 557
f 556 558 557
f 531 534 559
f 558 531 559
f 560 561 538
f 560 538 524
f 561 562 540
f 561 540 538
f 562 563 542
f 562 542 540
f 563 564 544
f 563 544 542
f 564 565 546
f 564 546 544
f 565 566 548
f 565 548 546
f 566 567 550
f 566 550 548
f 567 568 552
f 567 552 550
f 568 569 554
f 568 554 552
f 569 570 556
f 569 556 554
f 570 571 558
f 570 558 556
f 571 572 531
f 571 531 558
f 531 572 573
f 531 573 532
f 574 532 573
f 574 573 575
f 574 575 530
f 576 530 575
f 577 528 575
f 577 575 578
f 528 576 575
f 524 526 578
f 524 578 560
f 526 577 578
f 579 561 560
f 579 560 580
f 581 562 561
f 581 561 579
f 582 563 562
f 582 562 581
f 583 564 563
f 583 563 582
f 584 565 564
f 584 564 583
f 585 566 565
f 585 565 584
f 586 567 566
f 586 566 585
f 587 568 567
f 587 567 586
f 588 569 568
f 588 568 587
f 589 570 569
f 589 569 588
f 590 571 570
f 590 570 589
f 591 572 571
f 591 571 590
f 591 592 573
f 591 573 572
f 592 593 575
f 592 575 573
f 593 594 578
f 593 578 575
f 594 580 560
f 594 560 578
f 559 534 595
f 557 559 595
f 555 557 595
f 553 555 595
f 551 553 595
f 549 551 595
f 547 549 595
f 545 547 595
f 543 545 595
f 541 543 595
f 539 541 595
f 537 539 595
f 536 537 595
f 535 536 595
f 533 535 595
f 534 533 595
f 61 596 597
f 61 597 598
f 596 599 600
f 596 600 597
f 601 602 243
f 601 243 242
f 603 604 602
f 603 602 601
f 605 606 607
f 608 605 607
f 609 610 606
f 605 609 606
f 611 605 608
f 612 611 608
f 613 609 605
f 611 613 605
f 614 611 612
f 615 614 612
f 616 613 611
f 614 616 611
f 617 618 619
f 620 617 619
f 618 621 622
f 619 618 622
f 623 591 624
f 623 624 625
f 625 624 604
f 625 604 603
f 626 580 594
f 626 594 627
f 628 475 474
f 628 474 629
f 64 593 630
f 64 630 631
f 627 594 593
f 627 593 64
f 591 623 631
f 591 631 630
f 590 632 633
f 590 633 604
f 604 624 590
f 625 603 63
f 625 63 623
f 63 631 623
f 629 580 626
f 629 626 628
f 634 635 579
f 634 579 474
f 629 474 579
f 626 65 475
f 626 475 628
f 627 65 626
f 581 635 636
f 581 636 637
f 635 634 638
f 635 638 636
f 633 632 639
f 633 639 640
f 639 632 589
f 639 589 641
f 588 642 641
f 588 641 589
f 642 588 587
f 642 587 643
f 642 643 644
f 587 586 645
f 587 645 643
f 586 585 646
f 586 646 645
f 585 584 647
f 585 647 646
f 584 583 648
f 584 648 647
f 583 582 649
f 583 649 648
f 648 649 650
f 582 581 637
f 582 637 649
