# Botball Lab: metres, +Y up, centred XZ, base Y=0
s off
v 0.0000000 0.0062408 -0.0004000
v 0.0000000 0.0060768 -0.0012248
v -0.0008000 0.0060768 -0.0012248
v -0.0008000 0.0062408 -0.0004000
v 0.0000000 0.0053832 -0.0022626
v -0.0008000 0.0053832 -0.0022626
v -0.0008000 0.0060768 -0.0012244
v 0.0000000 0.0060768 -0.0012244
v 0.0000000 0.0043451 -0.0029562
v -0.0008000 0.0043451 -0.0029562
v 0.0000000 0.0031206 -0.0032000
v -0.0008000 0.0031206 -0.0032000
v 0.0000000 0.0018960 -0.0029564
v -0.0008000 0.0018960 -0.0029564
v 0.0000000 0.0008578 -0.0022628
v -0.0008000 0.0008578 -0.0022628
v 0.0000000 0.0001642 -0.0012247
v -0.0008000 0.0001642 -0.0012247
v -0.0008000 0.0001640 -0.0012248
v 0.0000000 0.0001640 -0.0012248
v 0.0000000 0.0000000 -0.0004000
v -0.0008000 0.0000000 -0.0004000
v 0.0000000 0.0000000 0.0004000
v 0.0000000 0.0001640 0.0012248
v -0.0008000 0.0001640 0.0012248
v -0.0008000 0.0000000 0.0004000
v 0.0000000 0.0008576 0.0022626
v -0.0008000 0.0008576 0.0022626
v -0.0008000 0.0001640 0.0012244
v 0.0000000 0.0001640 0.0012244
v 0.0000000 0.0018957 0.0029562
v -0.0008000 0.0018957 0.0029562
v 0.0000000 0.0031202 0.0032000
v -0.0008000 0.0031202 0.0032000
v 0.0000000 0.0043448 0.0029564
v -0.0008000 0.0043448 0.0029564
v 0.0000000 0.0053830 0.0022628
v -0.0008000 0.0053830 0.0022628
v 0.0000000 0.0060766 0.0012247
v -0.0008000 0.0060766 0.0012247
v -0.0008000 0.0060768 0.0012248
v 0.0000000 0.0060768 0.0012248
v 0.0000000 0.0062408 0.0004000
v -0.0008000 0.0062408 0.0004000
v -0.0008000 0.0053376 -0.0009184
v -0.0008000 0.0054408 -0.0004000
v -0.0008000 0.0060772 -0.0012240
v -0.0008000 0.0053837 -0.0022623
v -0.0008000 0.0048178 -0.0016968
v -0.0008000 0.0053380 -0.0009180
v -0.0008000 0.0043457 -0.0029562
v -0.0008000 0.0040393 -0.0022172
v -0.0008000 0.0043444 -0.0029568
v -0.0008000 0.0031197 -0.0032002
v -0.0008000 0.0031199 -0.0024002
v -0.0008000 0.0040384 -0.0022176
v -0.0008000 0.0018951 -0.0029562
v -0.0008000 0.0022015 -0.0022172
v -0.0008000 0.0008570 -0.0022624
v -0.0008000 0.0014229 -0.0016968
v -0.0008000 0.0001636 -0.0012240
v -0.0008000 0.0009028 -0.0009180
v -0.0008000 0.0009032 -0.0009184
v -0.0008000 0.0001640 -0.0012244
v -0.0008000 0.0008000 -0.0004000
v -0.0008000 0.0009032 0.0009184
v -0.0008000 0.0008000 0.0004000
v -0.0008000 0.0001636 0.0012240
v -0.0008000 0.0008571 0.0022623
v -0.0008000 0.0014230 0.0016968
v -0.0008000 0.0009028 0.0009180
v -0.0008000 0.0018951 0.0029562
v -0.0008000 0.0022015 0.0022172
v -0.0008000 0.0018964 0.0029568
v -0.0008000 0.0031211 0.0032002
v -0.0008000 0.0031209 0.0024002
v -0.0008000 0.0022024 0.0022176
v -0.0008000 0.0043457 0.0029562
v -0.0008000 0.0040393 0.0022172
v -0.0008000 0.0053838 0.0022624
v -0.0008000 0.0048179 0.0016968
v -0.0008000 0.0060772 0.0012240
v -0.0008000 0.0053380 0.0009180
v -0.0008000 0.0053376 0.0009184
v -0.0008000 0.0060768 0.0012244
v -0.0008000 0.0054408 0.0004000
v -0.0037696 0.0054899 0.0001531
v -0.0038000 0.0055204 -0.0000000
v -0.0038000 0.0054408 0.0004000
v -0.0036828 0.0054641 0.0002828
v -0.0035531 0.0054469 0.0003696
v -0.0034000 0.0054408 0.0004000
v -0.0038000 0.0053376 0.0009184
v -0.0038000 0.0048174 0.0016970
v -0.0008000 0.0048174 0.0016970
v -0.0038000 0.0040388 0.0022172
v -0.0008000 0.0040388 0.0022172
v -0.0038000 0.0031204 0.0023999
v -0.0008000 0.0031204 0.0023999
v -0.0038000 0.0022020 0.0022172
v -0.0008000 0.0022020 0.0022172
v -0.0038000 0.0014234 0.0016970
v -0.0008000 0.0014234 0.0016970
v -0.0038000 0.0009032 0.0009184
v -0.0038000 0.0008000 0.0004000
v -0.0038000 0.0007204 -0.0000000
v -0.0037696 0.0007509 0.0001531
v -0.0036828 0.0007767 0.0002828
v -0.0035531 0.0007939 0.0003696
v -0.0034000 0.0008000 0.0004000
v -0.0037696 0.0007509 -0.0001531
v -0.0038000 0.0008000 -0.0004000
v -0.0036828 0.0007767 -0.0002828
v -0.0035531 0.0007939 -0.0003696
v -0.0034000 0.0008000 -0.0004000
v -0.0038000 0.0009032 -0.0009184
v -0.0038000 0.0014234 -0.0016970
v -0.0008000 0.0014234 -0.0016970
v -0.0038000 0.0022020 -0.0022172
v -0.0008000 0.0022020 -0.0022172
v -0.0038000 0.0031204 -0.0023999
v -0.0008000 0.0031204 -0.0023999
v -0.0038000 0.0040388 -0.0022172
v -0.0008000 0.0040388 -0.0022172
v -0.0038000 0.0048174 -0.0016970
v -0.0008000 0.0048174 -0.0016970
v -0.0038000 0.0053376 -0.0009184
v -0.0038000 0.0054408 -0.0004000
v -0.0037696 0.0054899 -0.0001531
v -0.0036828 0.0054641 -0.0002828
v -0.0035531 0.0054469 -0.0003696
v -0.0034000 0.0054408 -0.0004000
v -0.0038000 0.0022019 -0.0022174
v -0.0046000 0.0022019 -0.0022174
v -0.0046000 0.0031204 -0.0024000
v -0.0038000 0.0031204 -0.0024000
v -0.0046000 0.0014234 -0.0016970
v -0.0038000 0.0009030 -0.0009185
v -0.0046000 0.0009030 -0.0009185
v -0.0046000 0.0007204 -0.0000000
v -0.0038000 0.0009030 0.0009185
v -0.0046000 0.0009030 0.0009185
v -0.0046000 0.0014234 0.0016970
v -0.0038000 0.0022019 0.0022174
v -0.0046000 0.0022019 0.0022174
v -0.0038000 0.0031204 0.0024000
v -0.0046000 0.0031204 0.0024000
v -0.0038000 0.0040389 0.0022174
v -0.0046000 0.0040389 0.0022174
v -0.0046000 0.0048174 0.0016970
v -0.0038000 0.0053378 0.0009185
v -0.0046000 0.0053378 0.0009185
v -0.0046000 0.0055204 -0.0000000
v -0.0038000 0.0053378 -0.0009185
v -0.0046000 0.0053378 -0.0009185
v -0.0046000 0.0048174 -0.0016970
v -0.0038000 0.0040389 -0.0022174
v -0.0046000 0.0040389 -0.0022174
v -0.0046304 0.0029673 -0.0023695
v -0.0046000 0.0027204 -0.0023204
v -0.0047172 0.0028376 -0.0023437
v -0.0048469 0.0027508 -0.0023265
v -0.0050000 0.0027204 -0.0023204
v -0.0072000 0.0027204 -0.0023204
v -0.0046000 0.0022020 -0.0022172
v -0.0072000 0.0022020 -0.0022172
v -0.0072000 0.0014234 -0.0016970
v -0.0046000 0.0009032 -0.0009184
v -0.0072000 0.0009032 -0.0009184
v -0.0046000 0.0007205 -0.0000000
v -0.0072000 0.0007205 -0.0000000
v -0.0046000 0.0009032 0.0009184
v -0.0072000 0.0009032 0.0009184
v -0.0072000 0.0014234 0.0016970
v -0.0046000 0.0022020 0.0022172
v -0.0072000 0.0022020 0.0022172
v -0.0046000 0.0027204 0.0023204
v -0.0072000 0.0027204 0.0023204
v -0.0046304 0.0029673 0.0023695
v -0.0047172 0.0028376 0.0023437
v -0.0048469 0.0027508 0.0023265
v -0.0050000 0.0027204 0.0023204
v -0.0046304 0.0032735 0.0023695
v -0.0046000 0.0035204 0.0023204
v -0.0047172 0.0034032 0.0023437
v -0.0048469 0.0034900 0.0023265
v -0.0050000 0.0035204 0.0023204
v -0.0072000 0.0035204 0.0023204
v -0.0046000 0.0040388 0.0022172
v -0.0072000 0.0040388 0.0022172
v -0.0072000 0.0048174 0.0016970
v -0.0046000 0.0053376 0.0009184
v -0.0072000 0.0053376 0.0009184
v -0.0046000 0.0055203 0.0000000
v -0.0072000 0.0055203 0.0000000
v -0.0046000 0.0053376 -0.0009184
v -0.0072000 0.0053376 -0.0009184
v -0.0072000 0.0048174 -0.0016970
v -0.0046000 0.0040388 -0.0022172
v -0.0072000 0.0040388 -0.0022172
v -0.0046000 0.0035204 -0.0023204
v -0.0072000 0.0035204 -0.0023204
v -0.0046304 0.0032735 -0.0023695
v -0.0047172 0.0034032 -0.0023437
v -0.0048469 0.0034900 -0.0023265
v -0.0050000 0.0035204 -0.0023204
v -0.0072000 0.0035204 -0.0025204
v -0.0072000 0.0041156 -0.0024020
v -0.0072000 0.0049588 -0.0018384
v -0.0072000 0.0048176 -0.0016972
v -0.0072000 0.0055224 -0.0009952
v -0.0072000 0.0057204 -0.0000000
v -0.0072000 0.0055204 -0.0000000
v -0.0072000 0.0055224 0.0009952
v -0.0072000 0.0049588 0.0018384
v -0.0072000 0.0048176 0.0016972
v -0.0072000 0.0041156 0.0024020
v -0.0072000 0.0035204 0.0025204
v -0.0072000 0.0027204 0.0025204
v -0.0072000 0.0021252 0.0024020
v -0.0072000 0.0012820 0.0018384
v -0.0072000 0.0014232 0.0016972
v -0.0072000 0.0007184 0.0009952
v -0.0072000 0.0005204 -0.0000000
v -0.0072000 0.0007204 -0.0000000
v -0.0072000 0.0007184 -0.0009952
v -0.0072000 0.0012820 -0.0018384
v -0.0072000 0.0014232 -0.0016972
v -0.0072000 0.0021252 -0.0024020
v -0.0072000 0.0027204 -0.0025204
v -0.0080000 0.0021252 -0.0024020
v -0.0080000 0.0027204 -0.0025204
v -0.0072000 0.0012817 -0.0018383
v -0.0080000 0.0012817 -0.0018383
v -0.0072000 0.0007182 -0.0009947
v -0.0080000 0.0007182 -0.0009947
v -0.0072000 0.0005203 0.0000002
v -0.0080000 0.0005203 0.0000002
v -0.0080000 0.0007184 0.0009952
v -0.0072000 0.0012821 0.0018387
v -0.0080000 0.0012821 0.0018387
v -0.0072000 0.0021257 0.0024022
v -0.0080000 0.0021257 0.0024022
v -0.0080000 0.0027204 0.0025204
v -0.0080000 0.0021252 0.0024020
v -0.0080000 0.0041156 0.0024020
v -0.0080000 0.0035204 0.0025204
v -0.0072000 0.0049591 0.0018383
v -0.0080000 0.0049591 0.0018383
v -0.0072000 0.0055226 0.0009947
v -0.0080000 0.0055226 0.0009947
v -0.0072000 0.0057205 -0.0000002
v -0.0080000 0.0057205 -0.0000002
v -0.0080000 0.0055224 -0.0009952
v -0.0072000 0.0049587 -0.0018387
v -0.0080000 0.0049587 -0.0018387
v -0.0072000 0.0041151 -0.0024022
v -0.0080000 0.0041151 -0.0024022
v -0.0080000 0.0035204 -0.0025204
v -0.0080000 0.0041156 -0.0024020
v -0.0046304 0.0029673 -0.0015695
v -0.0046000 0.0031204 -0.0016000
v -0.0047172 0.0028376 -0.0015437
v -0.0048469 0.0027508 -0.0015265
v -0.0050000 0.0027204 -0.0015204
v -0.0072000 0.0027204 -0.0015204
v -0.0080000 0.0027204 -0.0015204
v -0.0080000 0.0025080 -0.0014784
v -0.0080000 0.0019892 -0.0011312
v -0.0080000 0.0012820 -0.0018384
v -0.0080000 0.0016420 -0.0006124
v -0.0080000 0.0007184 -0.0009952
v -0.0080000 0.0015204 -0.0000000
v -0.0080000 0.0005204 -0.0000000
v -0.0080000 0.0016420 0.0006124
v -0.0080000 0.0019892 0.0011312
v -0.0080000 0.0012820 0.0018384
v -0.0080000 0.0025080 0.0014784
v -0.0080000 0.0027204 0.0015204
v -0.0072000 0.0027204 0.0015204
v -0.0050000 0.0027204 0.0015204
v -0.0046000 0.0031204 0.0016000
v -0.0046304 0.0029673 0.0015695
v -0.0047172 0.0028376 0.0015437
v -0.0048469 0.0027508 0.0015265
v -0.0046304 0.0032735 0.0015695
v -0.0047172 0.0034032 0.0015437
v -0.0048469 0.0034900 0.0015265
v -0.0050000 0.0035204 0.0015204
v -0.0072000 0.0035204 0.0015204
v -0.0080000 0.0035204 0.0015204
v -0.0080000 0.0037328 0.0014784
v -0.0080000 0.0042516 0.0011312
v -0.0080000 0.0049588 0.0018384
v -0.0080000 0.0045988 0.0006124
v -0.0080000 0.0055224 0.0009952
v -0.0080000 0.0047204 -0.0000000
v -0.0080000 0.0057204 -0.0000000
v -0.0080000 0.0045988 -0.0006124
v -0.0080000 0.0042516 -0.0011312
v -0.0080000 0.0049588 -0.0018384
v -0.0080000 0.0037328 -0.0014784
v -0.0080000 0.0035204 -0.0015204
v -0.0072000 0.0035204 -0.0015204
v -0.0050000 0.0035204 -0.0015204
v -0.0046304 0.0032735 -0.0015695
v -0.0047172 0.0034032 -0.0015437
v -0.0048469 0.0034900 -0.0015265
v -0.0046000 0.0027204 -0.0015204
v -0.0046000 0.0025084 -0.0014780
v -0.0080000 0.0025084 -0.0014780
v -0.0080000 0.0025080 -0.0014780
v -0.0080000 0.0019890 -0.0011312
v -0.0046000 0.0019890 -0.0011312
v -0.0046000 0.0025080 -0.0014780
v -0.0080000 0.0016423 -0.0006121
v -0.0046000 0.0016423 -0.0006121
v -0.0080000 0.0015205 0.0000002
v -0.0046000 0.0015205 0.0000002
v -0.0080000 0.0016424 0.0006124
v -0.0046000 0.0016424 0.0006124
v -0.0080000 0.0019892 0.0011314
v -0.0046000 0.0019892 0.0011314
v -0.0080000 0.0025083 0.0014781
v -0.0046000 0.0025083 0.0014781
v -0.0046000 0.0027204 0.0015204
v -0.0046000 0.0025084 0.0014780
v -0.0080000 0.0025084 0.0014780
v -0.0046000 0.0035204 0.0015204
v -0.0046000 0.0037324 0.0014780
v -0.0080000 0.0037324 0.0014780
v -0.0080000 0.0037328 0.0014780
v -0.0080000 0.0042518 0.0011312
v -0.0046000 0.0042518 0.0011312
v -0.0046000 0.0037328 0.0014780
v -0.0080000 0.0045985 0.0006121
v -0.0046000 0.0045985 0.0006121
v -0.0080000 0.0047203 -0.0000002
v -0.0046000 0.0047203 -0.0000002
v -0.0080000 0.0045984 -0.0006124
v -0.0046000 0.0045984 -0.0006124
v -0.0080000 0.0042516 -0.0011314
v -0.0046000 0.0042516 -0.0011314
v -0.0080000 0.0037325 -0.0014781
v -0.0046000 0.0037325 -0.0014781
v -0.0046000 0.0035204 -0.0015204
v -0.0046000 0.0037324 -0.0014780
v -0.0080000 0.0037324 -0.0014780
v -0.0046000 0.0025081 -0.0014782
v -0.0038000 0.0025081 -0.0014782
v -0.0038000 0.0031204 -0.0016000
v -0.0046000 0.0019890 -0.0011314
v -0.0038000 0.0019890 -0.0011314
v -0.0046000 0.0016422 -0.0006123
v -0.0038000 0.0016422 -0.0006123
v -0.0046000 0.0015204 -0.0000000
v -0.0038000 0.0015204 -0.0000000
v -0.0046000 0.0016422 0.0006123
v -0.0038000 0.0016422 0.0006123
v -0.0046000 0.0019890 0.0011314
v -0.0038000 0.0019890 0.0011314
v -0.0046000 0.0025081 0.0014782
v -0.0038000 0.0025081 0.0014782
v -0.0038000 0.0031204 0.0016000
v -0.0046000 0.0037327 0.0014782
v -0.0038000 0.0037327 0.0014782
v -0.0046000 0.0042518 0.0011314
v -0.0038000 0.0042518 0.0011314
v -0.0046000 0.0045986 0.0006123
v -0.0038000 0.0045986 0.0006123
v -0.0046000 0.0047204 -0.0000000
v -0.0038000 0.0047204 -0.0000000
v -0.0046000 0.0045986 -0.0006123
v -0.0038000 0.0045986 -0.0006123
v -0.0046000 0.0042518 -0.0011314
v -0.0038000 0.0042518 -0.0011314
v -0.0046000 0.0037327 -0.0014782
v -0.0038000 0.0037327 -0.0014782
v -0.0038000 0.0046408 0.0004000
v -0.0037696 0.0046899 0.0001531
v -0.0036828 0.0046641 0.0002828
v -0.0035531 0.0046469 0.0003696
v -0.0034000 0.0046408 0.0004000
v -0.0038000 0.0045984 0.0006124
v 0.0000000 0.0046408 0.0004000
v 0.0000000 0.0045984 0.0006124
v 0.0000000 0.0042516 0.0011314
v -0.0038000 0.0042516 0.0011314
v 0.0000000 0.0037325 0.0014781
v -0.0038000 0.0037325 0.0014781
v 0.0000000 0.0031202 0.0015999
v -0.0038000 0.0031202 0.0015999
v 0.0000000 0.0025080 0.0014780
v -0.0038000 0.0025080 0.0014780
v 0.0000000 0.0019890 0.0011312
v -0.0038000 0.0019890 0.0011312
v 0.0000000 0.0016423 0.0006121
v -0.0038000 0.0016423 0.0006121
v 0.0000000 0.0016424 0.0006124
v 0.0000000 0.0016000 0.0004000
v -0.0038000 0.0016000 0.0004000
v -0.0038000 0.0016424 0.0006124
v -0.0037696 0.0015509 0.0001531
v -0.0036828 0.0015767 0.0002828
v -0.0035531 0.0015939 0.0003696
v -0.0034000 0.0016000 0.0004000
v -0.0038000 0.0016000 -0.0004000
v -0.0037696 0.0015509 -0.0001531
v -0.0036828 0.0015767 -0.0002828
v -0.0035531 0.0015939 -0.0003696
v -0.0034000 0.0016000 -0.0004000
v -0.0038000 0.0016424 -0.0006124
v 0.0000000 0.0016000 -0.0004000
v 0.0000000 0.0016424 -0.0006124
v 0.0000000 0.0019892 -0.0011314
v -0.0038000 0.0019892 -0.0011314
v 0.0000000 0.0025083 -0.0014781
v -0.0038000 0.0025083 -0.0014781
v 0.0000000 0.0031206 -0.0015999
v -0.0038000 0.0031206 -0.0015999
v 0.0000000 0.0037328 -0.0014780
v -0.0038000 0.0037328 -0.0014780
v 0.0000000 0.0042518 -0.0011312
v -0.0038000 0.0042518 -0.0011312
v 0.0000000 0.0045985 -0.0006121
v -0.0038000 0.0045985 -0.0006121
v 0.0000000 0.0045984 -0.0006124
v 0.0000000 0.0046408 -0.0004000
v -0.0038000 0.0046408 -0.0004000
v -0.0038000 0.0045984 -0.0006124
v -0.0037696 0.0046899 -0.0001531
v -0.0036828 0.0046641 -0.0002828
v -0.0035531 0.0046469 -0.0003696
v -0.0034000 0.0046408 -0.0004000
v -0.0008000 0.0046408 0.0004000
v -0.0008000 0.0016000 0.0004000
v -0.0008000 0.0016000 -0.0004000
v -0.0008000 0.0046408 -0.0004000
v -0.0056000 0.0011260 -0.0014288
v -0.0054469 0.0011432 -0.0014546
v -0.0054469 0.0012140 -0.0013838
v -0.0056000 0.0011968 -0.0013580
v -0.0053172 0.0011923 -0.0015282
v -0.0053172 0.0012631 -0.0014574
v -0.0052304 0.0012658 -0.0016382
v -0.0052304 0.0013366 -0.0015674
v -0.0052000 0.0013524 -0.0017680
v -0.0052000 0.0014232 -0.0016972
v -0.0054469 0.0017366 -0.0019064
v -0.0054469 0.0016658 -0.0019772
v -0.0056000 0.0016916 -0.0019944
v -0.0056000 0.0017624 -0.0019236
v -0.0053172 0.0016630 -0.0018573
v -0.0053172 0.0015922 -0.0019281
v -0.0052304 0.0015530 -0.0017838
v -0.0052304 0.0014822 -0.0018546
v -0.0052000 0.0013528 -0.0017676
v -0.0052304 0.0012662 -0.0016378
v -0.0054469 0.0011436 -0.0014542
v -0.0056000 0.0011264 -0.0014284
v -0.0053172 0.0011927 -0.0015278
v -0.0054469 0.0016662 -0.0019768
v -0.0052304 0.0014826 -0.0018542
v -0.0056000 0.0016920 -0.0019940
v -0.0053172 0.0015926 -0.0019277
v -0.0072000 0.0011968 -0.0013580
v -0.0072000 0.0011264 -0.0014284
v -0.0072000 0.0017624 -0.0019236
v -0.0072000 0.0016920 -0.0019940
v -0.0072000 0.0011260 -0.0014288
v -0.0072000 0.0013528 -0.0017676
v -0.0072000 0.0016916 -0.0019944
v -0.0056000 0.0016916 0.0019944
v -0.0054469 0.0016658 0.0019772
v -0.0054469 0.0017366 0.0019064
v -0.0056000 0.0017624 0.0019236
v -0.0053172 0.0015922 0.0019281
v -0.0053172 0.0016630 0.0018573
v -0.0052304 0.0014822 0.0018546
v -0.0052304 0.0015530 0.0017838
v -0.0052000 0.0013524 0.0017680
v -0.0052000 0.0014232 0.0016972
v -0.0054469 0.0012140 0.0013838
v -0.0054469 0.0011432 0.0014546
v -0.0056000 0.0011260 0.0014288
v -0.0056000 0.0011968 0.0013580
v -0.0053172 0.0012631 0.0014574
v -0.0053172 0.0011923 0.0015282
v -0.0052304 0.0013366 0.0015674
v -0.0052304 0.0012658 0.0016382
v -0.0052000 0.0013528 0.0017676
v -0.0052304 0.0014826 0.0018542
v -0.0054469 0.0016662 0.0019768
v -0.0056000 0.0016920 0.0019940
v -0.0053172 0.0015926 0.0019277
v -0.0054469 0.0011436 0.0014542
v -0.0052304 0.0012662 0.0016378
v -0.0056000 0.0011264 0.0014284
v -0.0053172 0.0011927 0.0015278
v -0.0072000 0.0017624 0.0019236
v -0.0072000 0.0016920 0.0019940
v -0.0072000 0.0011968 0.0013580
v -0.0072000 0.0011264 0.0014284
v -0.0072000 0.0016916 0.0019944
v -0.0072000 0.0013528 0.0017676
v -0.0072000 0.0011260 0.0014288
v -0.0056000 0.0051148 0.0014288
v -0.0054469 0.0050976 0.0014546
v -0.0054469 0.0050268 0.0013838
v -0.0056000 0.0050440 0.0013580
v -0.0053172 0.0050485 0.0015282
v -0.0053172 0.0049777 0.0014574
v -0.0052304 0.0049750 0.0016382
v -0.0052304 0.0049042 0.0015674
v -0.0052000 0.0048884 0.0017680
v -0.0052000 0.0048176 0.0016972
v -0.0054469 0.0045042 0.0019064
v -0.0054469 0.0045750 0.0019772
v -0.0056000 0.0045492 0.0019944
v -0.0056000 0.0044784 0.0019236
v -0.0053172 0.0045778 0.0018573
v -0.0053172 0.0046486 0.0019281
v -0.0052304 0.0046878 0.0017838
v -0.0052304 0.0047586 0.0018546
v -0.0052000 0.0048880 0.0017676
v -0.0052304 0.0049746 0.0016378
v -0.0054469 0.0050972 0.0014542
v -0.0056000 0.0051144 0.0014284
v -0.0053172 0.0050481 0.0015278
v -0.0054469 0.0045746 0.0019768
v -0.0052304 0.0047582 0.0018542
v -0.0056000 0.0045488 0.0019940
v -0.0053172 0.0046482 0.0019277
v -0.0072000 0.0050440 0.0013580
v -0.0072000 0.0051144 0.0014284
v -0.0072000 0.0044784 0.0019236
v -0.0072000 0.0045488 0.0019940
v -0.0072000 0.0051148 0.0014288
v -0.0072000 0.0048880 0.0017676
v -0.0072000 0.0045492 0.0019944
v -0.0056000 0.0045492 -0.0019944
v -0.0054469 0.0045750 -0.0019772
v -0.0054469 0.0045042 -0.0019064
v -0.0056000 0.0044784 -0.0019236
v -0.0053172 0.0046486 -0.0019281
v -0.0053172 0.0045778 -0.0018573
v -0.0052304 0.0047586 -0.0018546
v -0.0052304 0.0046878 -0.0017838
v -0.0052000 0.0048884 -0.0017680
v -0.0052000 0.0048176 -0.0016972
v -0.0054469 0.0050268 -0.0013838
v -0.0054469 0.0050976 -0.0014546
v -0.0056000 0.0051148 -0.0014288
v -0.0056000 0.0050440 -0.0013580
v -0.0053172 0.0049777 -0.0014574
v -0.0053172 0.0050485 -0.0015282
v -0.0052304 0.0049042 -0.0015674
v -0.0052304 0.0049750 -0.0016382
v -0.0052000 0.0048880 -0.0017676
v -0.0052304 0.0047582 -0.0018542
v -0.0054469 0.0045746 -0.0019768
v -0.0056000 0.0045488 -0.0019940
v -0.0053172 0.0046482 -0.0019277
v -0.0054469 0.0050972 -0.0014542
v -0.0052304 0.0049746 -0.0016378
v -0.0056000 0.0051144 -0.0014284
v -0.0053172 0.0050481 -0.0015278
v -0.0072000 0.0044784 -0.0019236
v -0.0072000 0.0045488 -0.0019940
v -0.0072000 0.0050440 -0.0013580
v -0.0072000 0.0051144 -0.0014284
v -0.0072000 0.0045492 -0.0019944
v -0.0072000 0.0048880 -0.0017676
v -0.0072000 0.0051148 -0.0014288
v -0.0024000 0.0051148 -0.0014288
v -0.0025531 0.0050976 -0.0014546
v -0.0025531 0.0050268 -0.0013838
v -0.0024000 0.0050440 -0.0013580
v -0.0026828 0.0050485 -0.0015282
v -0.0026828 0.0049777 -0.0014574
v -0.0027696 0.0049750 -0.0016382
v -0.0027696 0.0049042 -0.0015674
v -0.0028000 0.0048884 -0.0017680
v -0.0028000 0.0048176 -0.0016972
v -0.0025531 0.0045042 -0.0019064
v -0.0025531 0.0045750 -0.0019772
v -0.0024000 0.0045492 -0.0019944
v -0.0024000 0.0044784 -0.0019236
v -0.0026828 0.0045778 -0.0018573
v -0.0026828 0.0046486 -0.0019281
v -0.0027696 0.0046878 -0.0017838
v -0.0027696 0.0047586 -0.0018546
v -0.0028000 0.0048880 -0.0017676
v -0.0027696 0.0049746 -0.0016378
v -0.0025531 0.0050972 -0.0014542
v -0.0024000 0.0051144 -0.0014284
v -0.0026828 0.0050481 -0.0015278
v -0.0025531 0.0045746 -0.0019768
v -0.0027696 0.0047582 -0.0018542
v -0.0024000 0.0045488 -0.0019940
v -0.0026828 0.0046482 -0.0019277
v -0.0008000 0.0050440 -0.0013580
v -0.0008000 0.0051144 -0.0014284
v -0.0008000 0.0044784 -0.0019236
v -0.0008000 0.0045488 -0.0019940
v -0.0008000 0.0051148 -0.0014288
v -0.0008000 0.0048880 -0.0017676
v -0.0008000 0.0045492 -0.0019944
v -0.0024000 0.0045492 0.0019944
v -0.0025531 0.0045750 0.0019772
v -0.0025531 0.0045042 0.0019064
v -0.0024000 0.0044784 0.0019236
v -0.0026828 0.0046486 0.0019281
v -0.0026828 0.0045778 0.0018573
v -0.0027696 0.0047586 0.0018546
v -0.0027696 0.0046878 0.0017838
v -0.0028000 0.0048884 0.0017680
v -0.0028000 0.0048176 0.0016972
v -0.0025531 0.0050268 0.0013838
v -0.0025531 0.0050976 0.0014546
v -0.0024000 0.0051148 0.0014288
v -0.0024000 0.0050440 0.0013580
v -0.0026828 0.0049777 0.0014574
v -0.0026828 0.0050485 0.0015282
v -0.0027696 0.0049042 0.0015674
v -0.0027696 0.0049750 0.0016382
v -0.0028000 0.0048880 0.0017676
v -0.0027696 0.0047582 0.0018542
v -0.0025531 0.0045746 0.0019768
v -0.0024000 0.0045488 0.0019940
v -0.0026828 0.0046482 0.0019277
v -0.0025531 0.0050972 0.0014542
v -0.0027696 0.0049746 0.0016378
v -0.0024000 0.0051144 0.0014284
v -0.0026828 0.0050481 0.0015278
v -0.0008000 0.0044784 0.0019236
v -0.0008000 0.0045488 0.0019940
v -0.0008000 0.0050440 0.0013580
v -0.0008000 0.0051144 0.0014284
v -0.0008000 0.0045492 0.0019944
v -0.0008000 0.0048880 0.0017676
v -0.0008000 0.0051148 0.0014288
v -0.0024000 0.0011260 0.0014288
v -0.0025531 0.0011432 0.0014546
v -0.0025531 0.0012140 0.0013838
v -0.0024000 0.0011968 0.0013580
v -0.0026828 0.0011923 0.0015282
v -0.0026828 0.0012631 0.0014574
v -0.0027696 0.0012658 0.0016382
v -0.0027696 0.0013366 0.0015674
v -0.0028000 0.0013524 0.0017680
v -0.0028000 0.0014232 0.0016972
v -0.0025531 0.0017366 0.0019064
v -0.0025531 0.0016658 0.0019772
v -0.0024000 0.0016916 0.0019944
v -0.0024000 0.0017624 0.0019236
v -0.0026828 0.0016630 0.0018573
v -0.0026828 0.0015922 0.0019281
v -0.0027696 0.0015530 0.0017838
v -0.0027696 0.0014822 0.0018546
v -0.0028000 0.0013528 0.0017676
v -0.0027696 0.0012662 0.0016378
v -0.0025531 0.0011436 0.0014542
v -0.0024000 0.0011264 0.0014284
v -0.0026828 0.0011927 0.0015278
v -0.0025531 0.0016662 0.0019768
v -0.0027696 0.0014826 0.0018542
v -0.0024000 0.0016920 0.0019940
v -0.0026828 0.0015926 0.0019277
v -0.0008000 0.0011968 0.0013580
v -0.0008000 0.0011264 0.0014284
v -0.0008000 0.0017624 0.0019236
v -0.0008000 0.0016920 0.0019940
v -0.0008000 0.0011260 0.0014288
v -0.0008000 0.0013528 0.0017676
v -0.0008000 0.0016916 0.0019944
v -0.0024000 0.0016916 -0.0019944
v -0.0025531 0.0016658 -0.0019772
v -0.0025531 0.0017366 -0.0019064
v -0.0024000 0.0017624 -0.0019236
v -0.0026828 0.0015922 -0.0019281
v -0.0026828 0.0016630 -0.0018573
v -0.0027696 0.0014822 -0.0018546
v -0.0027696 0.0015530 -0.0017838
v -0.0028000 0.0013524 -0.0017680
v -0.0028000 0.0014232 -0.0016972
v -0.0025531 0.0012140 -0.0013838
v -0.0025531 0.0011432 -0.0014546
v -0.0024000 0.0011260 -0.0014288
v -0.0024000 0.0011968 -0.0013580
v -0.0026828 0.0012631 -0.0014574
v -0.0026828 0.0011923 -0.0015282
v -0.0027696 0.0013366 -0.0015674
v -0.0027696 0.0012658 -0.0016382
v -0.0028000 0.0013528 -0.0017676
v -0.0027696 0.0014826 -0.0018542
v -0.0025531 0.0016662 -0.0019768
v -0.0024000 0.0016920 -0.0019940
v -0.0026828 0.0015926 -0.0019277
v -0.0025531 0.0011436 -0.0014542
v -0.0027696 0.0012662 -0.0016378
v -0.0024000 0.0011264 -0.0014284
v -0.0026828 0.0011927 -0.0015278
v -0.0008000 0.0017624 -0.0019236
v -0.0008000 0.0016920 -0.0019940
v -0.0008000 0.0011968 -0.0013580
v -0.0008000 0.0011264 -0.0014284
v -0.0008000 0.0016916 -0.0019944
v -0.0008000 0.0013528 -0.0017676
v -0.0008000 0.0011260 -0.0014288
v 0.0008000 0.0060768 -0.0012248
v 0.0008000 0.0062408 -0.0004000
v 0.0008000 0.0060768 -0.0012244
v 0.0008000 0.0053832 -0.0022626
v 0.0008000 0.0043451 -0.0029562
v 0.0008000 0.0031206 -0.0032000
v 0.0008000 0.0018960 -0.0029564
v 0.0008000 0.0008578 -0.0022628
v 0.0008000 0.0001642 -0.0012247
v 0.0008000 0.0001640 -0.0012248
v 0.0008000 0.0000000 -0.0004000
v 0.0008000 0.0001640 0.0012248
v 0.0008000 0.0000000 0.0004000
v 0.0008000 0.0001640 0.0012244
v 0.0008000 0.0008576 0.0022626
v 0.0008000 0.0018957 0.0029562
v 0.0008000 0.0031202 0.0032000
v 0.0008000 0.0043448 0.0029564
v 0.0008000 0.0053830 0.0022628
v 0.0008000 0.0060766 0.0012247
v 0.0008000 0.0060768 0.0012248
v 0.0008000 0.0062408 0.0004000
v 0.0008000 0.0054408 -0.0004000
v 0.0008000 0.0053376 -0.0009184
v 0.0008000 0.0048178 -0.0016968
v 0.0008000 0.0053837 -0.0022623
v 0.0008000 0.0060772 -0.0012240
v 0.0008000 0.0053380 -0.0009180
v 0.0008000 0.0040393 -0.0022172
v 0.0008000 0.0043457 -0.0029562
v 0.0008000 0.0031199 -0.0024002
v 0.0008000 0.0031197 -0.0032002
v 0.0008000 0.0043444 -0.0029568
v 0.0008000 0.0040384 -0.0022176
v 0.0008000 0.0022015 -0.0022172
v 0.0008000 0.0018951 -0.0029562
v 0.0008000 0.0014229 -0.0016968
v 0.0008000 0.0008570 -0.0022624
v 0.0008000 0.0009028 -0.0009180
v 0.0008000 0.0001636 -0.0012240
v 0.0008000 0.0001640 -0.0012244
v 0.0008000 0.0009032 -0.0009184
v 0.0008000 0.0008000 -0.0004000
v 0.0008000 0.0008000 0.0004000
v 0.0008000 0.0009032 0.0009184
v 0.0008000 0.0014230 0.0016968
v 0.0008000 0.0008571 0.0022623
v 0.0008000 0.0001636 0.0012240
v 0.0008000 0.0009028 0.0009180
v 0.0008000 0.0022015 0.0022172
v 0.0008000 0.0018951 0.0029562
v 0.0008000 0.0031209 0.0024002
v 0.0008000 0.0031211 0.0032002
v 0.0008000 0.0018964 0.0029568
v 0.0008000 0.0022024 0.0022176
v 0.0008000 0.0040393 0.0022172
v 0.0008000 0.0043457 0.0029562
v 0.0008000 0.0048179 0.0016968
v 0.0008000 0.0053838 0.0022624
v 0.0008000 0.0053380 0.0009180
v 0.0008000 0.0060772 0.0012240
v 0.0008000 0.0060768 0.0012244
v 0.0008000 0.0053376 0.0009184
v 0.0008000 0.0054408 0.0004000
v 0.0038000 0.0054408 0.0004000
v 0.0038000 0.0055204 -0.0000000
v 0.0037696 0.0054899 0.0001531
v 0.0036828 0.0054641 0.0002828
v 0.0035531 0.0054469 0.0003696
v 0.0034000 0.0054408 0.0004000
v 0.0038000 0.0053376 0.0009184
v 0.0008000 0.0048174 0.0016970
v 0.0038000 0.0048174 0.0016970
v 0.0008000 0.0040388 0.0022172
v 0.0038000 0.0040388 0.0022172
v 0.0008000 0.0031204 0.0023999
v 0.0038000 0.0031204 0.0023999
v 0.0008000 0.0022020 0.0022172
v 0.0038000 0.0022020 0.0022172
v 0.0008000 0.0014234 0.0016970
v 0.0038000 0.0014234 0.0016970
v 0.0038000 0.0009032 0.0009184
v 0.0038000 0.0008000 0.0004000
v 0.0037696 0.0007509 0.0001531
v 0.0038000 0.0007204 -0.0000000
v 0.0036828 0.0007767 0.0002828
v 0.0035531 0.0007939 0.0003696
v 0.0034000 0.0008000 0.0004000
v 0.0038000 0.0008000 -0.0004000
v 0.0037696 0.0007509 -0.0001531
v 0.0036828 0.0007767 -0.0002828
v 0.0035531 0.0007939 -0.0003696
v 0.0034000 0.0008000 -0.0004000
v 0.0038000 0.0009032 -0.0009184
v 0.0008000 0.0014234 -0.0016970
v 0.0038000 0.0014234 -0.0016970
v 0.0008000 0.0022020 -0.0022172
v 0.0038000 0.0022020 -0.0022172
v 0.0008000 0.0031204 -0.0023999
v 0.0038000 0.0031204 -0.0023999
v 0.0008000 0.0040388 -0.0022172
v 0.0038000 0.0040388 -0.0022172
v 0.0008000 0.0048174 -0.0016970
v 0.0038000 0.0048174 -0.0016970
v 0.0038000 0.0053376 -0.0009184
v 0.0038000 0.0054408 -0.0004000
v 0.0037696 0.0054899 -0.0001531
v 0.0036828 0.0054641 -0.0002828
v 0.0035531 0.0054469 -0.0003696
v 0.0034000 0.0054408 -0.0004000
v 0.0046000 0.0031204 -0.0024000
v 0.0046000 0.0022019 -0.0022174
v 0.0038000 0.0022019 -0.0022174
v 0.0038000 0.0031204 -0.0024000
v 0.0046000 0.0014234 -0.0016970
v 0.0046000 0.0009030 -0.0009185
v 0.0038000 0.0009030 -0.0009185
v 0.0046000 0.0007204 -0.0000000
v 0.0046000 0.0009030 0.0009185
v 0.0038000 0.0009030 0.0009185
v 0.0046000 0.0014234 0.0016970
v 0.0046000 0.0022019 0.0022174
v 0.0038000 0.0022019 0.0022174
v 0.0046000 0.0031204 0.0024000
v 0.0038000 0.0031204 0.0024000
v 0.0046000 0.0040389 0.0022174
v 0.0038000 0.0040389 0.0022174
v 0.0046000 0.0048174 0.0016970
v 0.0046000 0.0053378 0.0009185
v 0.0038000 0.0053378 0.0009185
v 0.0046000 0.0055204 -0.0000000
v 0.0046000 0.0053378 -0.0009185
v 0.0038000 0.0053378 -0.0009185
v 0.0046000 0.0048174 -0.0016970
v 0.0046000 0.0040389 -0.0022174
v 0.0038000 0.0040389 -0.0022174
v 0.0046000 0.0027204 -0.0023204
v 0.0046304 0.0029673 -0.0023695
v 0.0047172 0.0028376 -0.0023437
v 0.0048469 0.0027508 -0.0023265
v 0.0050000 0.0027204 -0.0023204
v 0.0046000 0.0022020 -0.0022172
v 0.0072000 0.0027204 -0.0023204
v 0.0072000 0.0022020 -0.0022172
v 0.0072000 0.0014234 -0.0016970
v 0.0072000 0.0009032 -0.0009184
v 0.0046000 0.0009032 -0.0009184
v 0.0072000 0.0007205 -0.0000000
v 0.0046000 0.0007205 -0.0000000
v 0.0072000 0.0009032 0.0009184
v 0.0046000 0.0009032 0.0009184
v 0.0072000 0.0014234 0.0016970
v 0.0072000 0.0022020 0.0022172
v 0.0046000 0.0022020 0.0022172
v 0.0072000 0.0027204 0.0023204
v 0.0046000 0.0027204 0.0023204
v 0.0046304 0.0029673 0.0023695
v 0.0047172 0.0028376 0.0023437
v 0.0048469 0.0027508 0.0023265
v 0.0050000 0.0027204 0.0023204
v 0.0046000 0.0035204 0.0023204
v 0.0046304 0.0032735 0.0023695
v 0.0047172 0.0034032 0.0023437
v 0.0048469 0.0034900 0.0023265
v 0.0050000 0.0035204 0.0023204
v 0.0046000 0.0040388 0.0022172
v 0.0072000 0.0035204 0.0023204
v 0.0072000 0.0040388 0.0022172
v 0.0072000 0.0048174 0.0016970
v 0.0072000 0.0053376 0.0009184
v 0.0046000 0.0053376 0.0009184
v 0.0072000 0.0055203 0.0000000
v 0.0046000 0.0055203 0.0000000
v 0.0072000 0.0053376 -0.0009184
v 0.0046000 0.0053376 -0.0009184
v 0.0072000 0.0048174 -0.0016970
v 0.0072000 0.0040388 -0.0022172
v 0.0046000 0.0040388 -0.0022172
v 0.0072000 0.0035204 -0.0023204
v 0.0046000 0.0035204 -0.0023204
v 0.0046304 0.0032735 -0.0023695
v 0.0047172 0.0034032 -0.0023437
v 0.0048469 0.0034900 -0.0023265
v 0.0050000 0.0035204 -0.0023204
v 0.0072000 0.0041156 -0.0024020
v 0.0072000 0.0035204 -0.0025204
v 0.0072000 0.0048176 -0.0016972
v 0.0072000 0.0049588 -0.0018384
v 0.0072000 0.0055224 -0.0009952
v 0.0072000 0.0055204 -0.0000000
v 0.0072000 0.0057204 -0.0000000
v 0.0072000 0.0055224 0.0009952
v 0.0072000 0.0048176 0.0016972
v 0.0072000 0.0049588 0.0018384
v 0.0072000 0.0041156 0.0024020
v 0.0072000 0.0035204 0.0025204
v 0.0072000 0.0021252 0.0024020
v 0.0072000 0.0027204 0.0025204
v 0.0072000 0.0014232 0.0016972
v 0.0072000 0.0012820 0.0018384
v 0.0072000 0.0007184 0.0009952
v 0.0072000 0.0007204 -0.0000000
v 0.0072000 0.0005204 -0.0000000
v 0.0072000 0.0007184 -0.0009952
v 0.0072000 0.0014232 -0.0016972
v 0.0072000 0.0012820 -0.0018384
v 0.0072000 0.0021252 -0.0024020
v 0.0072000 0.0027204 -0.0025204
v 0.0080000 0.0027204 -0.0025204
v 0.0080000 0.0021252 -0.0024020
v 0.0080000 0.0012817 -0.0018383
v 0.0072000 0.0012817 -0.0018383
v 0.0080000 0.0007182 -0.0009947
v 0.0072000 0.0007182 -0.0009947
v 0.0080000 0.0005203 0.0000002
v 0.0072000 0.0005203 0.0000002
v 0.0080000 0.0007184 0.0009952
v 0.0080000 0.0012821 0.0018387
v 0.0072000 0.0012821 0.0018387
v 0.0080000 0.0021257 0.0024022
v 0.0072000 0.0021257 0.0024022
v 0.0080000 0.0021252 0.0024020
v 0.0080000 0.0027204 0.0025204
v 0.0080000 0.0035204 0.0025204
v 0.0080000 0.0041156 0.0024020
v 0.0080000 0.0049591 0.0018383
v 0.0072000 0.0049591 0.0018383
v 0.0080000 0.0055226 0.0009947
v 0.0072000 0.0055226 0.0009947
v 0.0080000 0.0057205 -0.0000002
v 0.0072000 0.0057205 -0.0000002
v 0.0080000 0.0055224 -0.0009952
v 0.0080000 0.0049587 -0.0018387
v 0.0072000 0.0049587 -0.0018387
v 0.0080000 0.0041151 -0.0024022
v 0.0072000 0.0041151 -0.0024022
v 0.0080000 0.0041156 -0.0024020
v 0.0080000 0.0035204 -0.0025204
v 0.0046304 0.0029673 -0.0015695
v 0.0046000 0.0031204 -0.0016000
v 0.0047172 0.0028376 -0.0015437
v 0.0048469 0.0027508 -0.0015265
v 0.0050000 0.0027204 -0.0015204
v 0.0072000 0.0027204 -0.0015204
v 0.0080000 0.0027204 -0.0015204
v 0.0080000 0.0025080 -0.0014784
v 0.0080000 0.0019892 -0.0011312
v 0.0080000 0.0012820 -0.0018384
v 0.0080000 0.0016420 -0.0006124
v 0.0080000 0.0007184 -0.0009952
v 0.0080000 0.0015204 -0.0000000
v 0.0080000 0.0005204 -0.0000000
v 0.0080000 0.0016420 0.0006124
v 0.0080000 0.0019892 0.0011312
v 0.0080000 0.0012820 0.0018384
v 0.0080000 0.0025080 0.0014784
v 0.0080000 0.0027204 0.0015204
v 0.0072000 0.0027204 0.0015204
v 0.0050000 0.0027204 0.0015204
v 0.0046304 0.0029673 0.0015695
v 0.0046000 0.0031204 0.0016000
v 0.0047172 0.0028376 0.0015437
v 0.0048469 0.0027508 0.0015265
v 0.0046304 0.0032735 0.0015695
v 0.0047172 0.0034032 0.0015437
v 0.0048469 0.0034900 0.0015265
v 0.0050000 0.0035204 0.0015204
v 0.0072000 0.0035204 0.0015204
v 0.0080000 0.0035204 0.0015204
v 0.0080000 0.0037328 0.0014784
v 0.0080000 0.0042516 0.0011312
v 0.0080000 0.0049588 0.0018384
v 0.0080000 0.0045988 0.0006124
v 0.0080000 0.0055224 0.0009952
v 0.0080000 0.0047204 -0.0000000
v 0.0080000 0.0057204 -0.0000000
v 0.0080000 0.0045988 -0.0006124
v 0.0080000 0.0042516 -0.0011312
v 0.0080000 0.0049588 -0.0018384
v 0.0080000 0.0037328 -0.0014784
v 0.0080000 0.0035204 -0.0015204
v 0.0072000 0.0035204 -0.0015204
v 0.0050000 0.0035204 -0.0015204
v 0.0046304 0.0032735 -0.0015695
v 0.0047172 0.0034032 -0.0015437
v 0.0048469 0.0034900 -0.0015265
v 0.0046000 0.0027204 -0.0015204
v 0.0046000 0.0025084 -0.0014780
v 0.0080000 0.0025084 -0.0014780
v 0.0046000 0.0019890 -0.0011312
v 0.0080000 0.0019890 -0.0011312
v 0.0080000 0.0025080 -0.0014780
v 0.0046000 0.0025080 -0.0014780
v 0.0046000 0.0016423 -0.0006121
v 0.0080000 0.0016423 -0.0006121
v 0.0046000 0.0015205 0.0000002
v 0.0080000 0.0015205 0.0000002
v 0.0046000 0.0016424 0.0006124
v 0.0080000 0.0016424 0.0006124
v 0.0046000 0.0019892 0.0011314
v 0.0080000 0.0019892 0.0011314
v 0.0046000 0.0025083 0.0014781
v 0.0080000 0.0025083 0.0014781
v 0.0046000 0.0025084 0.0014780
v 0.0046000 0.0027204 0.0015204
v 0.0080000 0.0025084 0.0014780
v 0.0046000 0.0035204 0.0015204
v 0.0046000 0.0037324 0.0014780
v 0.0080000 0.0037324 0.0014780
v 0.0046000 0.0042518 0.0011312
v 0.0080000 0.0042518 0.0011312
v 0.0080000 0.0037328 0.0014780
v 0.0046000 0.0037328 0.0014780
v 0.0046000 0.0045985 0.0006121
v 0.0080000 0.0045985 0.0006121
v 0.0046000 0.0047203 -0.0000002
v 0.0080000 0.0047203 -0.0000002
v 0.0046000 0.0045984 -0.0006124
v 0.0080000 0.0045984 -0.0006124
v 0.0046000 0.0042516 -0.0011314
v 0.0080000 0.0042516 -0.0011314
v 0.0046000 0.0037325 -0.0014781
v 0.0080000 0.0037325 -0.0014781
v 0.0046000 0.0037324 -0.0014780
v 0.0046000 0.0035204 -0.0015204
v 0.0080000 0.0037324 -0.0014780
v 0.0038000 0.0025081 -0.0014782
v 0.0046000 0.0025081 -0.0014782
v 0.0038000 0.0031204 -0.0016000
v 0.0038000 0.0019890 -0.0011314
v 0.0046000 0.0019890 -0.0011314
v 0.0038000 0.0016422 -0.0006123
v 0.0046000 0.0016422 -0.0006123
v 0.0038000 0.0015204 -0.0000000
v 0.0046000 0.0015204 -0.0000000
v 0.0038000 0.0016422 0.0006123
v 0.0046000 0.0016422 0.0006123
v 0.0038000 0.0019890 0.0011314
v 0.0046000 0.0019890 0.0011314
v 0.0038000 0.0025081 0.0014782
v 0.0046000 0.0025081 0.0014782
v 0.0038000 0.0031204 0.0016000
v 0.0038000 0.0037327 0.0014782
v 0.0046000 0.0037327 0.0014782
v 0.0038000 0.0042518 0.0011314
v 0.0046000 0.0042518 0.0011314
v 0.0038000 0.0045986 0.0006123
v 0.0046000 0.0045986 0.0006123
v 0.0038000 0.0047204 -0.0000000
v 0.0046000 0.0047204 -0.0000000
v 0.0038000 0.0045986 -0.0006123
v 0.0046000 0.0045986 -0.0006123
v 0.0038000 0.0042518 -0.0011314
v 0.0046000 0.0042518 -0.0011314
v 0.0038000 0.0037327 -0.0014782
v 0.0046000 0.0037327 -0.0014782
v 0.0037696 0.0046899 0.0001531
v 0.0038000 0.0046408 0.0004000
v 0.0036828 0.0046641 0.0002828
v 0.0035531 0.0046469 0.0003696
v 0.0034000 0.0046408 0.0004000
v 0.0038000 0.0045984 0.0006124
v 0.0038000 0.0042516 0.0011314
v 0.0038000 0.0037325 0.0014781
v 0.0038000 0.0031202 0.0015999
v 0.0038000 0.0025080 0.0014780
v 0.0038000 0.0019890 0.0011312
v 0.0038000 0.0016423 0.0006121
v 0.0038000 0.0016000 0.0004000
v 0.0038000 0.0016424 0.0006124
v 0.0037696 0.0015509 0.0001531
v 0.0036828 0.0015767 0.0002828
v 0.0035531 0.0015939 0.0003696
v 0.0034000 0.0016000 0.0004000
v 0.0037696 0.0015509 -0.0001531
v 0.0038000 0.0016000 -0.0004000
v 0.0036828 0.0015767 -0.0002828
v 0.0035531 0.0015939 -0.0003696
v 0.0034000 0.0016000 -0.0004000
v 0.0038000 0.0016424 -0.0006124
v 0.0038000 0.0019892 -0.0011314
v 0.0038000 0.0025083 -0.0014781
v 0.0038000 0.0031206 -0.0015999
v 0.0038000 0.0037328 -0.0014780
v 0.0038000 0.0042518 -0.0011312
v 0.0038000 0.0045985 -0.0006121
v 0.0038000 0.0046408 -0.0004000
v 0.0038000 0.0045984 -0.0006124
v 0.0037696 0.0046899 -0.0001531
v 0.0036828 0.0046641 -0.0002828
v 0.0035531 0.0046469 -0.0003696
v 0.0034000 0.0046408 -0.0004000
v 0.0008000 0.0046408 0.0004000
v 0.0008000 0.0016000 0.0004000
v 0.0008000 0.0016000 -0.0004000
v 0.0008000 0.0046408 -0.0004000
v 0.0054469 0.0012140 -0.0013838
v 0.0054469 0.0011432 -0.0014546
v 0.0056000 0.0011260 -0.0014288
v 0.0056000 0.0011968 -0.0013580
v 0.0053172 0.0012631 -0.0014574
v 0.0053172 0.0011923 -0.0015282
v 0.0052304 0.0013366 -0.0015674
v 0.0052304 0.0012658 -0.0016382
v 0.0052000 0.0014232 -0.0016972
v 0.0052000 0.0013524 -0.0017680
v 0.0056000 0.0016916 -0.0019944
v 0.0054469 0.0016658 -0.0019772
v 0.0054469 0.0017366 -0.0019064
v 0.0056000 0.0017624 -0.0019236
v 0.0053172 0.0015922 -0.0019281
v 0.0053172 0.0016630 -0.0018573
v 0.0052304 0.0014822 -0.0018546
v 0.0052304 0.0015530 -0.0017838
v 0.0054469 0.0011436 -0.0014542
v 0.0052304 0.0012662 -0.0016378
v 0.0052000 0.0013528 -0.0017676
v 0.0056000 0.0011264 -0.0014284
v 0.0053172 0.0011927 -0.0015278
v 0.0052304 0.0014826 -0.0018542
v 0.0054469 0.0016662 -0.0019768
v 0.0056000 0.0016920 -0.0019940
v 0.0053172 0.0015926 -0.0019277
v 0.0072000 0.0011968 -0.0013580
v 0.0072000 0.0011264 -0.0014284
v 0.0072000 0.0017624 -0.0019236
v 0.0072000 0.0016920 -0.0019940
v 0.0072000 0.0011260 -0.0014288
v 0.0072000 0.0013528 -0.0017676
v 0.0072000 0.0016916 -0.0019944
v 0.0054469 0.0017366 0.0019064
v 0.0054469 0.0016658 0.0019772
v 0.0056000 0.0016916 0.0019944
v 0.0056000 0.0017624 0.0019236
v 0.0053172 0.0016630 0.0018573
v 0.0053172 0.0015922 0.0019281
v 0.0052304 0.0015530 0.0017838
v 0.0052304 0.0014822 0.0018546
v 0.0052000 0.0014232 0.0016972
v 0.0052000 0.0013524 0.0017680
v 0.0056000 0.0011260 0.0014288
v 0.0054469 0.0011432 0.0014546
v 0.0054469 0.0012140 0.0013838
v 0.0056000 0.0011968 0.0013580
v 0.0053172 0.0011923 0.0015282
v 0.0053172 0.0012631 0.0014574
v 0.0052304 0.0012658 0.0016382
v 0.0052304 0.0013366 0.0015674
v 0.0054469 0.0016662 0.0019768
v 0.0052304 0.0014826 0.0018542
v 0.0052000 0.0013528 0.0017676
v 0.0056000 0.0016920 0.0019940
v 0.0053172 0.0015926 0.0019277
v 0.0052304 0.0012662 0.0016378
v 0.0054469 0.0011436 0.0014542
v 0.0056000 0.0011264 0.0014284
v 0.0053172 0.0011927 0.0015278
v 0.0072000 0.0017624 0.0019236
v 0.0072000 0.0016920 0.0019940
v 0.0072000 0.0011968 0.0013580
v 0.0072000 0.0011264 0.0014284
v 0.0072000 0.0016916 0.0019944
v 0.0072000 0.0013528 0.0017676
v 0.0072000 0.0011260 0.0014288
v 0.0054469 0.0050268 0.0013838
v 0.0054469 0.0050976 0.0014546
v 0.0056000 0.0051148 0.0014288
v 0.0056000 0.0050440 0.0013580
v 0.0053172 0.0049777 0.0014574
v 0.0053172 0.0050485 0.0015282
v 0.0052304 0.0049042 0.0015674
v 0.0052304 0.0049750 0.0016382
v 0.0052000 0.0048176 0.0016972
v 0.0052000 0.0048884 0.0017680
v 0.0056000 0.0045492 0.0019944
v 0.0054469 0.0045750 0.0019772
v 0.0054469 0.0045042 0.0019064
v 0.0056000 0.0044784 0.0019236
v 0.0053172 0.0046486 0.0019281
v 0.0053172 0.0045778 0.0018573
v 0.0052304 0.0047586 0.0018546
v 0.0052304 0.0046878 0.0017838
v 0.0054469 0.0050972 0.0014542
v 0.0052304 0.0049746 0.0016378
v 0.0052000 0.0048880 0.0017676
v 0.0056000 0.0051144 0.0014284
v 0.0053172 0.0050481 0.0015278
v 0.0052304 0.0047582 0.0018542
v 0.0054469 0.0045746 0.0019768
v 0.0056000 0.0045488 0.0019940
v 0.0053172 0.0046482 0.0019277
v 0.0072000 0.0050440 0.0013580
v 0.0072000 0.0051144 0.0014284
v 0.0072000 0.0044784 0.0019236
v 0.0072000 0.0045488 0.0019940
v 0.0072000 0.0051148 0.0014288
v 0.0072000 0.0048880 0.0017676
v 0.0072000 0.0045492 0.0019944
v 0.0054469 0.0045042 -0.0019064
v 0.0054469 0.0045750 -0.0019772
v 0.0056000 0.0045492 -0.0019944
v 0.0056000 0.0044784 -0.0019236
v 0.0053172 0.0045778 -0.0018573
v 0.0053172 0.0046486 -0.0019281
v 0.0052304 0.0046878 -0.0017838
v 0.0052304 0.0047586 -0.0018546
v 0.0052000 0.0048176 -0.0016972
v 0.0052000 0.0048884 -0.0017680
v 0.0056000 0.0051148 -0.0014288
v 0.0054469 0.0050976 -0.0014546
v 0.0054469 0.0050268 -0.0013838
v 0.0056000 0.0050440 -0.0013580
v 0.0053172 0.0050485 -0.0015282
v 0.0053172 0.0049777 -0.0014574
v 0.0052304 0.0049750 -0.0016382
v 0.0052304 0.0049042 -0.0015674
v 0.0054469 0.0045746 -0.0019768
v 0.0052304 0.0047582 -0.0018542
v 0.0052000 0.0048880 -0.0017676
v 0.0056000 0.0045488 -0.0019940
v 0.0053172 0.0046482 -0.0019277
v 0.0052304 0.0049746 -0.0016378
v 0.0054469 0.0050972 -0.0014542
v 0.0056000 0.0051144 -0.0014284
v 0.0053172 0.0050481 -0.0015278
v 0.0072000 0.0044784 -0.0019236
v 0.0072000 0.0045488 -0.0019940
v 0.0072000 0.0050440 -0.0013580
v 0.0072000 0.0051144 -0.0014284
v 0.0072000 0.0045492 -0.0019944
v 0.0072000 0.0048880 -0.0017676
v 0.0072000 0.0051148 -0.0014288
v 0.0025531 0.0050268 -0.0013838
v 0.0025531 0.0050976 -0.0014546
v 0.0024000 0.0051148 -0.0014288
v 0.0024000 0.0050440 -0.0013580
v 0.0026828 0.0049777 -0.0014574
v 0.0026828 0.0050485 -0.0015282
v 0.0027696 0.0049042 -0.0015674
v 0.0027696 0.0049750 -0.0016382
v 0.0028000 0.0048176 -0.0016972
v 0.0028000 0.0048884 -0.0017680
v 0.0024000 0.0045492 -0.0019944
v 0.0025531 0.0045750 -0.0019772
v 0.0025531 0.0045042 -0.0019064
v 0.0024000 0.0044784 -0.0019236
v 0.0026828 0.0046486 -0.0019281
v 0.0026828 0.0045778 -0.0018573
v 0.0027696 0.0047586 -0.0018546
v 0.0027696 0.0046878 -0.0017838
v 0.0025531 0.0050972 -0.0014542
v 0.0027696 0.0049746 -0.0016378
v 0.0028000 0.0048880 -0.0017676
v 0.0024000 0.0051144 -0.0014284
v 0.0026828 0.0050481 -0.0015278
v 0.0027696 0.0047582 -0.0018542
v 0.0025531 0.0045746 -0.0019768
v 0.0024000 0.0045488 -0.0019940
v 0.0026828 0.0046482 -0.0019277
v 0.0008000 0.0050440 -0.0013580
v 0.0008000 0.0051144 -0.0014284
v 0.0008000 0.0044784 -0.0019236
v 0.0008000 0.0045488 -0.0019940
v 0.0008000 0.0051148 -0.0014288
v 0.0008000 0.0048880 -0.0017676
v 0.0008000 0.0045492 -0.0019944
v 0.0025531 0.0045042 0.0019064
v 0.0025531 0.0045750 0.0019772
v 0.0024000 0.0045492 0.0019944
v 0.0024000 0.0044784 0.0019236
v 0.0026828 0.0045778 0.0018573
v 0.0026828 0.0046486 0.0019281
v 0.0027696 0.0046878 0.0017838
v 0.0027696 0.0047586 0.0018546
v 0.0028000 0.0048176 0.0016972
v 0.0028000 0.0048884 0.0017680
v 0.0024000 0.0051148 0.0014288
v 0.0025531 0.0050976 0.0014546
v 0.0025531 0.0050268 0.0013838
v 0.0024000 0.0050440 0.0013580
v 0.0026828 0.0050485 0.0015282
v 0.0026828 0.0049777 0.0014574
v 0.0027696 0.0049750 0.0016382
v 0.0027696 0.0049042 0.0015674
v 0.0025531 0.0045746 0.0019768
v 0.0027696 0.0047582 0.0018542
v 0.0028000 0.0048880 0.0017676
v 0.0024000 0.0045488 0.0019940
v 0.0026828 0.0046482 0.0019277
v 0.0027696 0.0049746 0.0016378
v 0.0025531 0.0050972 0.0014542
v 0.0024000 0.0051144 0.0014284
v 0.0026828 0.0050481 0.0015278
v 0.0008000 0.0044784 0.0019236
v 0.0008000 0.0045488 0.0019940
v 0.0008000 0.0050440 0.0013580
v 0.0008000 0.0051144 0.0014284
v 0.0008000 0.0045492 0.0019944
v 0.0008000 0.0048880 0.0017676
v 0.0008000 0.0051148 0.0014288
v 0.0025531 0.0012140 0.0013838
v 0.0025531 0.0011432 0.0014546
v 0.0024000 0.0011260 0.0014288
v 0.0024000 0.0011968 0.0013580
v 0.0026828 0.0012631 0.0014574
v 0.0026828 0.0011923 0.0015282
v 0.0027696 0.0013366 0.0015674
v 0.0027696 0.0012658 0.0016382
v 0.0028000 0.0014232 0.0016972
v 0.0028000 0.0013524 0.0017680
v 0.0024000 0.0016916 0.0019944
v 0.0025531 0.0016658 0.0019772
v 0.0025531 0.0017366 0.0019064
v 0.0024000 0.0017624 0.0019236
v 0.0026828 0.0015922 0.0019281
v 0.0026828 0.0016630 0.0018573
v 0.0027696 0.0014822 0.0018546
v 0.0027696 0.0015530 0.0017838
v 0.0025531 0.0011436 0.0014542
v 0.0027696 0.0012662 0.0016378
v 0.0028000 0.0013528 0.0017676
v 0.0024000 0.0011264 0.0014284
v 0.0026828 0.0011927 0.0015278
v 0.0027696 0.0014826 0.0018542
v 0.0025531 0.0016662 0.0019768
v 0.0024000 0.0016920 0.0019940
v 0.0026828 0.0015926 0.0019277
v 0.0008000 0.0011968 0.0013580
v 0.0008000 0.0011264 0.0014284
v 0.0008000 0.0017624 0.0019236
v 0.0008000 0.0016920 0.0019940
v 0.0008000 0.0011260 0.0014288
v 0.0008000 0.0013528 0.0017676
v 0.0008000 0.0016916 0.0019944
v 0.0025531 0.0017366 -0.0019064
v 0.0025531 0.0016658 -0.0019772
v 0.0024000 0.0016916 -0.0019944
v 0.0024000 0.0017624 -0.0019236
v 0.0026828 0.0016630 -0.0018573
v 0.0026828 0.0015922 -0.0019281
v 0.0027696 0.0015530 -0.0017838
v 0.0027696 0.0014822 -0.0018546
v 0.0028000 0.0014232 -0.0016972
v 0.0028000 0.0013524 -0.0017680
v 0.0024000 0.0011260 -0.0014288
v 0.0025531 0.0011432 -0.0014546
v 0.0025531 0.0012140 -0.0013838
v 0.0024000 0.0011968 -0.0013580
v 0.0026828 0.0011923 -0.0015282
v 0.0026828 0.0012631 -0.0014574
v 0.0027696 0.0012658 -0.0016382
v 0.0027696 0.0013366 -0.0015674
v 0.0025531 0.0016662 -0.0019768
v 0.0027696 0.0014826 -0.0018542
v 0.0028000 0.0013528 -0.0017676
v 0.0024000 0.0016920 -0.0019940
v 0.0026828 0.0015926 -0.0019277
v 0.0027696 0.0012662 -0.0016378
v 0.0025531 0.0011436 -0.0014542
v 0.0024000 0.0011264 -0.0014284
v 0.0026828 0.0011927 -0.0015278
v 0.0008000 0.0017624 -0.0019236
v 0.0008000 0.0016920 -0.0019940
v 0.0008000 0.0011968 -0.0013580
v 0.0008000 0.0011264 -0.0014284
v 0.0008000 0.0016916 -0.0019944
v 0.0008000 0.0013528 -0.0017676
v 0.0008000 0.0011260 -0.0014288
f 1 2 3
f 1 3 4
f 5 6 7
f 5 7 8
f 9 10 6
f 9 6 5
f 11 12 10
f 11 10 9
f 13 14 12
f 13 12 11
f 15 16 14
f 15 14 13
f 17 18 16
f 17 16 15
f 19 20 21
f 22 19 21
f 23 24 25
f 23 25 26
f 27 28 29
f 27 29 30
f 31 32 28
f 31 28 27
f 33 34 32
f 33 32 31
f 35 36 34
f 35 34 33
f 37 38 36
f 37 36 35
f 39 40 38
f 39 38 37
f 41 42 43
f 44 41 43
f 7 45 46
f 7 46 4
f 47 48 49
f 47 49 50
f 48 51 52
f 48 52 49
f 53 54 55
f 53 55 56
f 54 57 58
f 54 58 55
f 57 59 60
f 57 60 58
f 59 61 62
f 59 62 60
f 63 64 22
f 63 22 65
f 29 66 67
f 29 67 26
f 68 69 70
f 68 70 71
f 69 72 73
f 69 73 70
f 74 75 76
f 74 76 77
f 75 78 79
f 75 79 76
f 78 80 81
f 78 81 79
f 80 82 83
f 80 83 81
f 84 85 44
f 84 44 86
f 87 88 89
f 90 87 89
f 91 90 89
f 92 91 89
f 86 89 93
f 84 86 93
f 94 95 84
f 94 84 93
f 96 97 95
f 96 95 94
f 98 99 97
f 98 97 96
f 100 101 99
f 100 99 98
f 102 103 101
f 102 101 100
f 104 66 103
f 104 103 102
f 104 105 67
f 104 67 66
f 105 106 107
f 105 107 108
f 105 108 109
f 105 109 110
f 111 106 112
f 113 111 112
f 114 113 112
f 115 114 112
f 65 112 116
f 63 65 116
f 117 118 63
f 117 63 116
f 119 120 118
f 119 118 117
f 121 122 120
f 121 120 119
f 123 124 122
f 123 122 121
f 125 126 124
f 125 124 123
f 127 45 126
f 127 126 125
f 127 128 46
f 127 46 45
f 128 88 129
f 128 129 130
f 128 130 131
f 128 131 132
f 133 134 135
f 136 133 135
f 117 137 134
f 133 117 134
f 138 139 137
f 117 138 137
f 106 140 139
f 138 106 139
f 141 142 140
f 106 141 140
f 102 143 142
f 141 102 142
f 144 145 143
f 102 144 143
f 146 147 145
f 144 146 145
f 148 149 147
f 146 148 147
f 94 150 149
f 148 94 149
f 151 152 150
f 94 151 150
f 88 153 152
f 151 88 152
f 154 155 153
f 88 154 153
f 125 156 155
f 154 125 155
f 157 158 156
f 125 157 156
f 136 135 158
f 157 136 158
f 159 135 160
f 161 159 160
f 162 161 160
f 163 162 160
f 164 160 165
f 166 164 165
f 137 167 166
f 137 166 165
f 168 169 167
f 168 167 137
f 170 171 169
f 170 169 168
f 172 173 171
f 172 171 170
f 143 174 173
f 143 173 172
f 175 176 174
f 175 174 143
f 175 177 178
f 175 178 176
f 177 147 179
f 177 179 180
f 177 180 181
f 177 181 182
f 183 147 184
f 185 183 184
f 186 185 184
f 187 186 184
f 188 184 189
f 190 188 189
f 150 191 190
f 150 190 189
f 192 193 191
f 192 191 150
f 194 195 193
f 194 193 192
f 196 197 195
f 196 195 194
f 156 198 197
f 156 197 196
f 199 200 198
f 199 198 156
f 199 201 202
f 199 202 200
f 201 135 203
f 201 203 204
f 201 204 205
f 201 205 206
f 207 208 200
f 207 200 202
f 208 209 210
f 208 210 200
f 209 211 197
f 209 197 210
f 211 212 213
f 211 213 197
f 212 214 193
f 212 193 213
f 214 215 216
f 214 216 193
f 215 217 190
f 215 190 216
f 217 218 188
f 217 188 190
f 219 220 176
f 219 176 178
f 220 221 222
f 220 222 176
f 221 223 173
f 221 173 222
f 223 224 225
f 223 225 173
f 224 226 169
f 224 169 225
f 226 227 228
f 226 228 169
f 227 229 166
f 227 166 228
f 229 230 164
f 229 164 166
f 231 232 230
f 229 231 230
f 233 234 231
f 233 231 229
f 235 236 234
f 235 234 233
f 237 238 236
f 237 236 235
f 223 239 238
f 223 238 237
f 240 241 239
f 240 239 223
f 242 243 241
f 242 241 240
f 219 244 245
f 219 245 220
f 246 247 218
f 217 246 218
f 248 249 246
f 248 246 217
f 250 251 249
f 250 249 248
f 252 253 251
f 252 251 250
f 211 254 253
f 211 253 252
f 255 256 254
f 255 254 211
f 257 258 256
f 257 256 255
f 207 259 260
f 207 260 208
f 135 159 261
f 135 261 262
f 159 161 263
f 159 263 261
f 161 162 264
f 161 264 263
f 162 163 265
f 162 265 264
f 164 266 265
f 164 265 163
f 267 266 230
f 267 230 232
f 268 267 232
f 268 232 231
f 269 268 231
f 269 231 270
f 271 269 270
f 271 270 272
f 273 271 272
f 273 272 274
f 275 273 274
f 275 274 239
f 276 275 239
f 276 239 277
f 278 276 277
f 278 277 245
f 279 278 245
f 279 245 244
f 244 219 280
f 244 280 279
f 280 178 182
f 280 182 281
f 282 283 179
f 282 179 147
f 283 284 180
f 283 180 179
f 284 285 181
f 284 181 180
f 285 281 182
f 285 182 181
f 183 286 282
f 147 183 282
f 185 287 286
f 183 185 286
f 186 288 287
f 185 186 287
f 187 289 288
f 186 187 288
f 187 188 290
f 289 187 290
f 290 218 247
f 291 290 247
f 292 291 247
f 292 247 246
f 293 292 246
f 293 246 294
f 295 293 294
f 295 294 296
f 297 295 296
f 297 296 298
f 299 297 298
f 299 298 254
f 300 299 254
f 300 254 301
f 302 300 301
f 302 301 260
f 303 302 260
f 303 260 259
f 207 304 303
f 259 207 303
f 305 304 202
f 206 305 202
f 306 203 135
f 262 306 135
f 307 204 203
f 306 307 203
f 308 205 204
f 307 308 204
f 305 206 205
f 308 305 205
f 309 262 261
f 309 261 263
f 309 263 264
f 309 264 265
f 310 309 267
f 310 267 311
f 312 313 314
f 315 312 314
f 313 316 317
f 314 313 317
f 316 318 319
f 317 316 319
f 318 320 321
f 319 318 321
f 320 322 323
f 321 320 323
f 322 324 325
f 323 322 325
f 279 326 327
f 328 279 327
f 283 282 326
f 284 283 326
f 285 284 326
f 281 285 326
f 329 282 286
f 329 286 287
f 329 287 288
f 329 288 289
f 330 329 291
f 330 291 331
f 332 333 334
f 335 332 334
f 333 336 337
f 334 333 337
f 336 338 339
f 337 336 339
f 338 340 341
f 339 338 341
f 340 342 343
f 341 340 343
f 342 344 345
f 343 342 345
f 303 346 347
f 348 303 347
f 306 262 346
f 307 306 346
f 308 307 346
f 305 308 346
f 262 349 350
f 262 350 351
f 349 352 353
f 349 353 350
f 352 354 355
f 352 355 353
f 354 356 357
f 354 357 355
f 356 358 359
f 356 359 357
f 358 360 361
f 358 361 359
f 360 362 363
f 360 363 361
f 362 282 364
f 362 364 363
f 282 365 366
f 282 366 364
f 365 367 368
f 365 368 366
f 367 369 370
f 367 370 368
f 369 371 372
f 369 372 370
f 371 373 374
f 371 374 372
f 373 375 376
f 373 376 374
f 375 377 378
f 375 378 376
f 377 262 351
f 377 351 378
f 379 372 380
f 379 380 381
f 379 381 382
f 379 382 383
f 384 379 385
f 384 385 386
f 386 387 388
f 384 386 388
f 387 389 390
f 388 387 390
f 389 391 392
f 390 389 392
f 391 393 394
f 392 391 394
f 393 395 396
f 394 393 396
f 395 397 398
f 396 395 398
f 399 400 401
f 399 401 402
f 403 357 401
f 404 403 401
f 405 404 401
f 406 405 401
f 407 357 408
f 407 408 409
f 407 409 410
f 407 410 411
f 412 407 413
f 412 413 414
f 414 415 416
f 412 414 416
f 415 417 418
f 416 415 418
f 417 419 420
f 418 417 420
f 419 421 422
f 420 419 422
f 421 423 424
f 422 421 424
f 423 425 426
f 424 423 426
f 427 428 429
f 427 429 430
f 431 372 429
f 432 431 429
f 433 432 429
f 434 433 429
f 88 87 380
f 88 380 372
f 87 90 381
f 87 381 380
f 90 91 382
f 90 382 381
f 91 92 383
f 91 383 382
f 86 435 383
f 86 383 92
f 435 44 43
f 435 43 385
f 26 436 400
f 26 400 23
f 436 67 110
f 436 110 406
f 357 403 107
f 357 107 106
f 403 404 108
f 403 108 107
f 404 405 109
f 404 109 108
f 405 406 110
f 405 110 109
f 111 408 357
f 106 111 357
f 113 409 408
f 111 113 408
f 114 410 409
f 113 114 409
f 115 411 410
f 114 115 410
f 115 65 437
f 411 115 437
f 413 437 22
f 21 413 22
f 1 4 438
f 428 1 438
f 434 438 46
f 132 434 46
f 431 129 88
f 372 431 88
f 432 130 129
f 431 432 129
f 433 131 130
f 432 433 130
f 434 132 131
f 433 434 131
f 439 440 441
f 439 441 442
f 440 443 444
f 440 444 441
f 443 445 446
f 443 446 444
f 445 447 448
f 445 448 446
f 449 450 451
f 452 449 451
f 453 454 450
f 449 453 450
f 455 456 454
f 453 455 454
f 448 447 456
f 455 448 456
f 457 458 459
f 460 457 459
f 459 458 461
f 462 463 457
f 462 457 464
f 465 463 462
f 460 442 466
f 467 460 466
f 468 452 464
f 468 464 469
f 457 439 470
f 457 470 471
f 471 472 451
f 471 451 457
f 473 474 475
f 473 475 476
f 474 477 478
f 474 478 475
f 477 479 480
f 477 480 478
f 479 481 482
f 479 482 480
f 483 484 485
f 486 483 485
f 487 488 484
f 483 487 484
f 489 490 488
f 487 489 488
f 482 481 490
f 489 482 490
f 491 492 493
f 494 491 493
f 493 492 495
f 496 497 491
f 496 491 498
f 499 497 496
f 494 476 500
f 501 494 500
f 502 486 498
f 502 498 503
f 491 473 504
f 491 504 505
f 505 506 485
f 505 485 491
f 507 508 509
f 507 509 510
f 508 511 512
f 508 512 509
f 511 513 514
f 511 514 512
f 513 515 516
f 513 516 514
f 517 518 519
f 520 517 519
f 521 522 518
f 517 521 518
f 523 524 522
f 521 523 522
f 516 515 524
f 523 516 524
f 525 526 527
f 528 525 527
f 527 526 529
f 530 531 525
f 530 525 532
f 533 531 530
f 528 510 534
f 535 528 534
f 536 520 532
f 536 532 537
f 525 507 538
f 525 538 539
f 539 540 519
f 539 519 525
f 541 542 543
f 541 543 544
f 542 545 546
f 542 546 543
f 545 547 548
f 545 548 546
f 547 549 550
f 547 550 548
f 551 552 553
f 554 551 553
f 555 556 552
f 551 555 552
f 557 558 556
f 555 557 556
f 550 549 558
f 557 550 558
f 559 560 561
f 562 559 561
f 561 560 563
f 564 565 559
f 564 559 566
f 567 565 564
f 562 544 568
f 569 562 568
f 570 554 566
f 570 566 571
f 559 541 572
f 559 572 573
f 573 574 553
f 573 553 559
f 575 576 577
f 575 577 578
f 576 579 580
f 576 580 577
f 579 581 582
f 579 582 580
f 581 583 584
f 581 584 582
f 585 586 587
f 588 585 587
f 589 590 586
f 585 589 586
f 591 592 590
f 589 591 590
f 584 583 592
f 591 584 592
f 593 594 595
f 596 593 595
f 595 594 597
f 598 599 593
f 598 593 600
f 601 599 598
f 596 578 602
f 603 596 602
f 604 588 600
f 604 600 605
f 593 575 606
f 593 606 607
f 607 608 587
f 607 587 593
f 609 610 611
f 609 611 612
f 610 613 614
f 610 614 611
f 613 615 616
f 613 616 614
f 615 617 618
f 615 618 616
f 619 620 621
f 622 619 621
f 623 624 620
f 619 623 620
f 625 626 624
f 623 625 624
f 618 617 626
f 625 618 626
f 627 628 629
f 630 627 629
f 629 628 631
f 632 633 627
f 632 627 634
f 635 633 632
f 630 612 636
f 637 630 636
f 638 622 634
f 638 634 639
f 627 609 640
f 627 640 641
f 641 642 621
f 641 621 627
f 643 644 645
f 643 645 646
f 644 647 648
f 644 648 645
f 647 649 650
f 647 650 648
f 649 651 652
f 649 652 650
f 653 654 655
f 656 653 655
f 657 658 654
f 653 657 654
f 659 660 658
f 657 659 658
f 652 651 660
f 659 652 660
f 661 662 663
f 664 661 663
f 663 662 665
f 666 667 661
f 666 661 668
f 669 667 666
f 664 646 670
f 671 664 670
f 672 656 668
f 672 668 673
f 661 643 674
f 661 674 675
f 675 676 655
f 675 655 661
f 677 678 679
f 677 679 680
f 678 681 682
f 678 682 679
f 681 683 684
f 681 684 682
f 683 685 686
f 683 686 684
f 687 688 689
f 690 687 689
f 691 692 688
f 687 691 688
f 693 694 692
f 691 693 692
f 686 685 694
f 693 686 694
f 695 696 697
f 698 695 697
f 697 696 699
f 700 701 695
f 700 695 702
f 703 701 700
f 698 680 704
f 705 698 704
f 706 690 702
f 706 702 707
f 695 677 708
f 695 708 709
f 709 710 689
f 709 689 695
f 711 2 1
f 712 711 1
f 713 714 5
f 8 713 5
f 714 715 9
f 5 714 9
f 715 716 11
f 9 715 11
f 716 717 13
f 11 716 13
f 717 718 15
f 13 717 15
f 718 719 17
f 15 718 17
f 21 20 720
f 21 720 721
f 722 24 23
f 723 722 23
f 724 725 27
f 30 724 27
f 725 726 31
f 27 725 31
f 726 727 33
f 31 726 33
f 727 728 35
f 33 727 35
f 728 729 37
f 35 728 37
f 729 730 39
f 37 729 39
f 43 42 731
f 43 731 732
f 733 734 713
f 712 733 713
f 735 736 737
f 738 735 737
f 739 740 736
f 735 739 736
f 741 742 743
f 744 741 743
f 745 746 742
f 741 745 742
f 747 748 746
f 745 747 746
f 749 750 748
f 747 749 748
f 721 751 752
f 753 721 752
f 754 755 724
f 723 754 724
f 756 757 758
f 759 756 758
f 760 761 757
f 756 760 757
f 762 763 764
f 765 762 764
f 766 767 763
f 762 766 763
f 768 769 767
f 766 768 767
f 770 771 769
f 768 770 769
f 732 772 773
f 774 732 773
f 775 776 777
f 775 777 778
f 775 778 779
f 775 779 780
f 781 775 774
f 781 774 773
f 773 782 783
f 781 773 783
f 782 784 785
f 783 782 785
f 784 786 787
f 785 784 787
f 786 788 789
f 787 786 789
f 788 790 791
f 789 788 791
f 790 755 792
f 791 790 792
f 754 793 792
f 755 754 792
f 794 795 793
f 796 794 793
f 797 796 793
f 798 797 793
f 799 795 800
f 799 800 801
f 799 801 802
f 799 802 803
f 804 799 753
f 804 753 752
f 752 805 806
f 804 752 806
f 805 807 808
f 806 805 808
f 807 809 810
f 808 807 810
f 809 811 812
f 810 809 812
f 811 813 814
f 812 811 814
f 813 734 815
f 814 813 815
f 733 816 815
f 734 733 815
f 817 776 816
f 818 817 816
f 819 818 816
f 820 819 816
f 821 822 823
f 821 823 824
f 822 825 806
f 822 806 823
f 825 826 827
f 825 827 806
f 826 828 795
f 826 795 827
f 828 829 830
f 828 830 795
f 829 831 791
f 829 791 830
f 831 832 833
f 831 833 791
f 832 834 835
f 832 835 833
f 834 836 837
f 834 837 835
f 836 838 783
f 836 783 837
f 838 839 840
f 838 840 783
f 839 841 776
f 839 776 840
f 841 842 843
f 841 843 776
f 842 844 814
f 842 814 843
f 844 845 846
f 844 846 814
f 845 821 824
f 845 824 846
f 847 821 848
f 847 848 849
f 847 849 850
f 847 850 851
f 852 847 853
f 852 853 854
f 854 855 825
f 852 854 825
f 855 856 857
f 825 855 857
f 856 858 859
f 857 856 859
f 858 860 861
f 859 858 861
f 860 862 831
f 861 860 831
f 862 863 864
f 831 862 864
f 865 866 864
f 863 865 864
f 867 834 866
f 868 867 866
f 869 868 866
f 870 869 866
f 871 834 872
f 871 872 873
f 871 873 874
f 871 874 875
f 876 871 877
f 876 877 878
f 878 879 838
f 876 878 838
f 879 880 881
f 838 879 881
f 880 882 883
f 881 880 883
f 882 884 885
f 883 882 885
f 884 886 844
f 885 884 844
f 886 887 888
f 844 886 888
f 889 890 888
f 887 889 888
f 891 821 890
f 892 891 890
f 893 892 890
f 894 893 890
f 887 895 896
f 889 887 896
f 897 898 895
f 887 897 895
f 884 899 898
f 897 884 898
f 900 901 899
f 884 900 899
f 880 902 901
f 900 880 901
f 903 904 902
f 880 903 902
f 878 905 904
f 903 878 904
f 877 906 905
f 878 877 905
f 863 907 908
f 865 863 908
f 909 910 907
f 863 909 907
f 860 911 910
f 909 860 910
f 912 913 911
f 860 912 911
f 856 914 913
f 912 856 913
f 915 916 914
f 856 915 914
f 854 917 916
f 915 854 916
f 853 918 917
f 854 853 917
f 918 919 920
f 918 920 917
f 920 921 922
f 917 920 922
f 921 923 924
f 922 921 924
f 923 925 926
f 924 923 926
f 925 927 911
f 926 925 911
f 927 928 929
f 911 927 929
f 928 930 931
f 929 928 931
f 932 933 908
f 907 932 908
f 906 934 935
f 906 935 905
f 935 936 937
f 905 935 937
f 936 938 939
f 937 936 939
f 938 940 941
f 939 938 941
f 940 942 899
f 941 940 899
f 942 943 944
f 899 942 944
f 943 945 946
f 944 943 946
f 947 948 896
f 895 947 896
f 949 848 821
f 950 949 821
f 951 849 848
f 949 951 848
f 952 850 849
f 951 952 849
f 953 851 850
f 952 953 850
f 953 954 853
f 851 953 853
f 918 954 955
f 919 918 955
f 919 955 956
f 920 919 956
f 920 956 957
f 958 920 957
f 958 957 959
f 960 958 959
f 960 959 961
f 962 960 961
f 962 961 963
f 927 962 963
f 927 963 964
f 965 927 964
f 965 964 966
f 932 965 966
f 932 966 967
f 933 932 967
f 968 908 933
f 967 968 933
f 870 865 968
f 969 870 968
f 867 970 971
f 834 867 971
f 868 972 970
f 867 868 970
f 869 973 972
f 868 869 972
f 870 969 973
f 869 870 973
f 971 974 872
f 971 872 834
f 974 975 873
f 974 873 872
f 975 976 874
f 975 874 873
f 976 977 875
f 976 875 874
f 978 877 875
f 978 875 977
f 934 906 978
f 934 978 979
f 934 979 980
f 935 934 980
f 935 980 981
f 982 935 981
f 982 981 983
f 984 982 983
f 984 983 985
f 986 984 985
f 986 985 987
f 942 986 987
f 942 987 988
f 989 942 988
f 989 988 990
f 947 989 990
f 947 990 991
f 948 947 991
f 991 992 896
f 991 896 948
f 889 992 993
f 889 993 894
f 821 891 994
f 821 994 950
f 891 892 995
f 891 995 994
f 892 893 996
f 892 996 995
f 893 894 993
f 893 993 996
f 949 950 997
f 951 949 997
f 952 951 997
f 953 952 997
f 955 997 998
f 999 955 998
f 1000 1001 1002
f 1000 1002 1003
f 1004 1005 1001
f 1004 1001 1000
f 1006 1007 1005
f 1006 1005 1004
f 1008 1009 1007
f 1008 1007 1006
f 1010 1011 1009
f 1010 1009 1008
f 1012 1013 1011
f 1012 1011 1010
f 1014 1015 967
f 1014 967 1016
f 1015 971 970
f 1015 970 972
f 1015 972 973
f 1015 973 969
f 974 971 1017
f 975 974 1017
f 976 975 1017
f 977 976 1017
f 979 1017 1018
f 1019 979 1018
f 1020 1021 1022
f 1020 1022 1023
f 1024 1025 1021
f 1024 1021 1020
f 1026 1027 1025
f 1026 1025 1024
f 1028 1029 1027
f 1028 1027 1026
f 1030 1031 1029
f 1030 1029 1028
f 1032 1033 1031
f 1032 1031 1030
f 1034 1035 991
f 1034 991 1036
f 1035 950 994
f 1035 994 995
f 1035 995 996
f 1035 996 993
f 1037 1038 950
f 1039 1037 950
f 1040 1041 1038
f 1037 1040 1038
f 1042 1043 1041
f 1040 1042 1041
f 1044 1045 1043
f 1042 1044 1043
f 1046 1047 1045
f 1044 1046 1045
f 1048 1049 1047
f 1046 1048 1047
f 1050 1051 1049
f 1048 1050 1049
f 1052 971 1051
f 1050 1052 1051
f 1053 1054 971
f 1052 1053 971
f 1055 1056 1054
f 1053 1055 1054
f 1057 1058 1056
f 1055 1057 1056
f 1059 1060 1058
f 1057 1059 1058
f 1061 1062 1060
f 1059 1061 1060
f 1063 1064 1062
f 1061 1063 1062
f 1065 1066 1064
f 1063 1065 1064
f 1039 950 1066
f 1065 1039 1066
f 1067 1059 1068
f 1069 1067 1068
f 1070 1069 1068
f 1071 1070 1068
f 385 1068 1072
f 386 385 1072
f 1073 387 386
f 1073 386 1072
f 1074 389 387
f 1074 387 1073
f 1075 391 389
f 1075 389 1074
f 1076 393 391
f 1076 391 1075
f 1077 395 393
f 1077 393 1076
f 1078 397 395
f 1078 395 1077
f 1079 400 399
f 1080 1079 399
f 1079 1044 1081
f 1079 1081 1082
f 1079 1082 1083
f 1079 1083 1084
f 1085 1044 1086
f 1087 1085 1086
f 1088 1087 1086
f 1089 1088 1086
f 413 1086 1090
f 414 413 1090
f 1091 415 414
f 1091 414 1090
f 1092 417 415
f 1092 415 1091
f 1093 419 417
f 1093 417 1092
f 1094 421 419
f 1094 419 1093
f 1095 423 421
f 1095 421 1094
f 1096 425 423
f 1096 423 1095
f 1097 428 427
f 1098 1097 427
f 1097 1059 1099
f 1097 1099 1100
f 1097 1100 1101
f 1097 1101 1102
f 1067 777 776
f 1059 1067 776
f 1069 778 777
f 1067 1069 777
f 1070 779 778
f 1069 1070 778
f 1071 780 779
f 1070 1071 779
f 1071 1103 774
f 780 1071 774
f 43 732 1103
f 385 43 1103
f 400 1104 723
f 23 400 723
f 798 754 1104
f 1084 798 1104
f 794 1081 1044
f 795 794 1044
f 796 1082 1081
f 794 796 1081
f 797 1083 1082
f 796 797 1082
f 798 1084 1083
f 797 798 1083
f 1044 1085 800
f 1044 800 795
f 1085 1087 801
f 1085 801 800
f 1087 1088 802
f 1087 802 801
f 1088 1089 803
f 1088 803 802
f 1105 753 803
f 1105 803 1089
f 721 1105 413
f 721 413 21
f 1106 712 1
f 1106 1 428
f 733 1106 1102
f 733 1102 820
f 776 817 1099
f 776 1099 1059
f 817 818 1100
f 817 1100 1099
f 818 819 1101
f 818 1101 1100
f 819 820 1102
f 819 1102 1101
f 1107 1108 1109
f 1110 1107 1109
f 1111 1112 1108
f 1107 1111 1108
f 1113 1114 1112
f 1111 1113 1112
f 1115 1116 1114
f 1113 1115 1114
f 1117 1118 1119
f 1117 1119 1120
f 1118 1121 1122
f 1118 1122 1119
f 1121 1123 1124
f 1121 1124 1122
f 1123 1116 1115
f 1123 1115 1124
f 1125 1126 1127
f 1125 1127 1128
f 1129 1126 1125
f 1127 1130 1131
f 1132 1127 1131
f 1131 1130 1133
f 1134 1110 1128
f 1134 1128 1135
f 1132 1120 1136
f 1137 1132 1136
f 1138 1109 1127
f 1139 1138 1127
f 1117 1140 1139
f 1127 1117 1139
f 1141 1142 1143
f 1144 1141 1143
f 1145 1146 1142
f 1141 1145 1142
f 1147 1148 1146
f 1145 1147 1146
f 1149 1150 1148
f 1147 1149 1148
f 1151 1152 1153
f 1151 1153 1154
f 1152 1155 1156
f 1152 1156 1153
f 1155 1157 1158
f 1155 1158 1156
f 1157 1150 1149
f 1157 1149 1158
f 1159 1160 1161
f 1159 1161 1162
f 1163 1160 1159
f 1161 1164 1165
f 1166 1161 1165
f 1165 1164 1167
f 1168 1144 1162
f 1168 1162 1169
f 1166 1154 1170
f 1171 1166 1170
f 1172 1143 1161
f 1173 1172 1161
f 1151 1174 1173
f 1161 1151 1173
f 1175 1176 1177
f 1178 1175 1177
f 1179 1180 1176
f 1175 1179 1176
f 1181 1182 1180
f 1179 1181 1180
f 1183 1184 1182
f 1181 1183 1182
f 1185 1186 1187
f 1185 1187 1188
f 1186 1189 1190
f 1186 1190 1187
f 1189 1191 1192
f 1189 1192 1190
f 1191 1184 1183
f 1191 1183 1192
f 1193 1194 1195
f 1193 1195 1196
f 1197 1194 1193
f 1195 1198 1199
f 1200 1195 1199
f 1199 1198 1201
f 1202 1178 1196
f 1202 1196 1203
f 1200 1188 1204
f 1205 1200 1204
f 1206 1177 1195
f 1207 1206 1195
f 1185 1208 1207
f 1195 1185 1207
f 1209 1210 1211
f 1212 1209 1211
f 1213 1214 1210
f 1209 1213 1210
f 1215 1216 1214
f 1213 1215 1214
f 1217 1218 1216
f 1215 1217 1216
f 1219 1220 1221
f 1219 1221 1222
f 1220 1223 1224
f 1220 1224 1221
f 1223 1225 1226
f 1223 1226 1224
f 1225 1218 1217
f 1225 1217 1226
f 1227 1228 1229
f 1227 1229 1230
f 1231 1228 1227
f 1229 1232 1233
f 1234 1229 1233
f 1233 1232 1235
f 1236 1212 1230
f 1236 1230 1237
f 1234 1222 1238
f 1239 1234 1238
f 1240 1211 1229
f 1241 1240 1229
f 1219 1242 1241
f 1229 1219 1241
f 1243 1244 1245
f 1246 1243 1245
f 1247 1248 1244
f 1243 1247 1244
f 1249 1250 1248
f 1247 1249 1248
f 1251 1252 1250
f 1249 1251 1250
f 1253 1254 1255
f 1253 1255 1256
f 1254 1257 1258
f 1254 1258 1255
f 1257 1259 1260
f 1257 1260 1258
f 1259 1252 1251
f 1259 1251 1260
f 1261 1262 1263
f 1261 1263 1264
f 1265 1262 1261
f 1263 1266 1267
f 1268 1263 1267
f 1267 1266 1269
f 1270 1246 1264
f 1270 1264 1271
f 1268 1256 1272
f 1273 1268 1272
f 1274 1245 1263
f 1275 1274 1263
f 1253 1276 1275
f 1263 1253 1275
f 1277 1278 1279
f 1280 1277 1279
f 1281 1282 1278
f 1277 1281 1278
f 1283 1284 1282
f 1281 1283 1282
f 1285 1286 1284
f 1283 1285 1284
f 1287 1288 1289
f 1287 1289 1290
f 1288 1291 1292
f 1288 1292 1289
f 1291 1293 1294
f 1291 1294 1292
f 1293 1286 1285
f 1293 1285 1294
f 1295 1296 1297
f 1295 1297 1298
f 1299 1296 1295
f 1297 1300 1301
f 1302 1297 1301
f 1301 1300 1303
f 1304 1280 1298
f 1304 1298 1305
f 1302 1290 1306
f 1307 1302 1306
f 1308 1279 1297
f 1309 1308 1297
f 1287 1310 1309
f 1297 1287 1309
f 1311 1312 1313
f 1314 1311 1313
f 1315 1316 1312
f 1311 1315 1312
f 1317 1318 1316
f 1315 1317 1316
f 1319 1320 1318
f 1317 1319 1318
f 1321 1322 1323
f 1321 1323 1324
f 1322 1325 1326
f 1322 1326 1323
f 1325 1327 1328
f 1325 1328 1326
f 1327 1320 1319
f 1327 1319 1328
f 1329 1330 1331
f 1329 1331 1332
f 1333 1330 1329
f 1331 1334 1335
f 1336 1331 1335
f 1335 1334 1337
f 1338 1314 1332
f 1338 1332 1339
f 1336 1324 1340
f 1341 1336 1340
f 1342 1313 1331
f 1343 1342 1331
f 1321 1344 1343
f 1331 1321 1343
f 1345 1346 1347
f 1348 1345 1347
f 1349 1350 1346
f 1345 1349 1346
f 1351 1352 1350
f 1349 1351 1350
f 1353 1354 1352
f 1351 1353 1352
f 1355 1356 1357
f 1355 1357 1358
f 1356 1359 1360
f 1356 1360 1357
f 1359 1361 1362
f 1359 1362 1360
f 1361 1354 1353
f 1361 1353 1362
f 1363 1364 1365
f 1363 1365 1366
f 1367 1364 1363
f 1365 1368 1369
f 1370 1365 1369
f 1369 1368 1371
f 1372 1348 1366
f 1372 1366 1373
f 1370 1358 1374
f 1375 1370 1374
f 1376 1347 1365
f 1377 1376 1365
f 1355 1378 1377
f 1365 1355 1377
