# Botball Lab: metres, +Y up, centred XZ, base Y=0
s off
v 0.0044802 0.0017959 0.0003747
v 0.0052763 0.0018743 0.0011747
v 0.0052763 0.0018743 0.0040000
v 0.0007961 0.0014331 0.0003747
v 0.0000000 0.0013547 0.0011747
v 0.0000000 0.0013547 0.0040000
v 0.0097967 0.0047487 0.0080000
v 0.0103324 0.0034553 0.0078000
v 0.0108682 0.0021618 0.0040000
v 0.0103498 0.0034133 0.0040000
v 0.0108682 0.0021618 0.0011747
v 0.0103498 0.0034133 0.0011747
v 0.0101026 0.0019296 -0.0004253
v 0.0108682 0.0021618 -0.0012253
v 0.0055406 0.0005457 0.0011747
v 0.0055406 0.0005457 -0.0012253
v 0.0063061 0.0007779 -0.0004253
v 0.0055406 0.0005457 0.0040000
v 0.0007961 0.0000784 0.0003747
v 0.0000000 0.0000000 0.0011747
v 0.0000000 0.0000000 -0.0012253
v 0.0047444 0.0004673 0.0003747
v 0.0000000 0.0000000 -0.0040000
v 0.0055406 0.0005457 -0.0040000
v 0.0052674 0.0019188 0.0078000
v 0.0049943 0.0032919 0.0080000
v 0.0052818 0.0018465 -0.0012253
v 0.0052818 0.0018465 -0.0040000
v 0.0052674 0.0019188 -0.0078000
v 0.0049943 0.0032919 -0.0080000
v 0.0060474 0.0020788 -0.0004253
v 0.0095951 0.0031550 -0.0004253
v 0.0103606 0.0033872 -0.0040000
v 0.0103606 0.0033872 -0.0012253
v 0.0000000 0.0028000 -0.0080000
v 0.0000000 0.0014000 -0.0078000
v 0.0000000 0.0013263 -0.0040000
v 0.0000000 0.0013263 -0.0012253
v 0.0000000 0.0150000 0.0084000
v 0.0000000 0.0134000 0.0084000
v 0.0029264 0.0136883 0.0084000
v 0.0026142 0.0152575 0.0084000
v 0.0057402 0.0145418 0.0084000
v 0.0051280 0.0160200 0.0084000
v 0.0032385 0.0121190 0.0067998
v 0.0000000 0.0118000 0.0067998
v 0.0000000 0.0148000 0.0067998
v 0.0063526 0.0130636 0.0067998
v 0.0000000 0.0150000 0.0067998
v 0.0026142 0.0152575 0.0067998
v 0.0051280 0.0160200 0.0067998
v 0.0000000 0.0148000 -0.0068000
v 0.0000000 0.0116000 -0.0068000
v 0.0032775 0.0119228 -0.0068000
v 0.0026532 0.0150613 -0.0068000
v 0.0064291 0.0128789 -0.0068000
v 0.0052045 0.0158353 -0.0068000
v 0.0052045 0.0158353 -0.0084000
v 0.0058168 0.0143571 -0.0084000
v 0.0029654 0.0134921 -0.0084000
v 0.0026532 0.0150613 -0.0084000
v 0.0000000 0.0132000 -0.0084000
v 0.0000000 0.0148000 -0.0084000
v 0.0068883 0.0117702 -0.0128000
v 0.0083425 0.0082595 -0.0128000
v 0.0042530 0.0070189 -0.0128000
v 0.0035116 0.0107459 -0.0128000
v 0.0000000 0.0066000 -0.0128000
v 0.0000000 0.0104000 -0.0128000
v 0.0000000 0.0106000 0.0128000
v 0.0000000 0.0066000 0.0128000
v 0.0042530 0.0070189 0.0128000
v 0.0034726 0.0109420 0.0128000
v 0.0083425 0.0082595 0.0128000
v 0.0068118 0.0119550 0.0128000
v 0.0045261 0.0056458 0.0100000
v 0.0000000 0.0052000 0.0100000
v 0.0000000 0.0116000 0.0100000
v 0.0088782 0.0069660 0.0100000
v 0.0000000 0.0118000 0.0100000
v 0.0032385 0.0121190 0.0100000
v 0.0064291 0.0128789 0.0100000
v 0.0063526 0.0130636 0.0100000
v 0.0000000 0.0116000 -0.0100000
v 0.0000000 0.0052000 -0.0100000
v 0.0045261 0.0056458 -0.0100000
v 0.0032775 0.0119228 -0.0100000
v 0.0088782 0.0069660 -0.0100000
v 0.0064291 0.0128789 -0.0100000
v 0.0097202 0.0049335 0.0112000
v 0.0000000 0.0030000 -0.0112000
v 0.0029264 0.0136883 0.0100000
v 0.0057402 0.0145418 0.0100000
v 0.0058168 0.0143571 -0.0100000
v 0.0029654 0.0134921 -0.0100000
v 0.0049553 0.0034881 0.0112000
v 0.0000000 0.0134000 0.0100000
v 0.0049553 0.0034881 -0.0112000
v 0.0000000 0.0132000 -0.0100000
v 0.0000000 0.0028000 0.0080000
v 0.0097967 0.0047487 -0.0080000
v 0.0143201 0.0055355 0.0003747
v 0.0150256 0.0059126 0.0011747
v 0.0150256 0.0059126 0.0040000
v 0.0110553 0.0037905 0.0003747
v 0.0103498 0.0034134 0.0011747
v 0.0103498 0.0034134 0.0040000
v 0.0181019 0.0102981 0.0080000
v 0.0190919 0.0093081 0.0078000
v 0.0200818 0.0083182 0.0040000
v 0.0191240 0.0092760 0.0040000
v 0.0200818 0.0083182 0.0011747
v 0.0191240 0.0092760 0.0011747
v 0.0194634 0.0078107 -0.0004253
v 0.0200818 0.0083182 -0.0012253
v 0.0157782 0.0047863 0.0011747
v 0.0157782 0.0047863 -0.0012253
v 0.0163966 0.0052938 -0.0004253
v 0.0157782 0.0047863 0.0040000
v 0.0115737 0.0025389 0.0003747
v 0.0150726 0.0044091 0.0003747
v 0.0108682 0.0021618 -0.0040000
v 0.0157782 0.0047863 -0.0040000
v 0.0150004 0.0059503 0.0078000
v 0.0142226 0.0071144 0.0080000
v 0.0150413 0.0058890 -0.0012253
v 0.0150413 0.0058890 -0.0040000
v 0.0150004 0.0059503 -0.0078000
v 0.0142226 0.0071144 -0.0080000
v 0.0156597 0.0063966 -0.0004253
v 0.0185256 0.0087485 -0.0004253
v 0.0191440 0.0092560 -0.0040000
v 0.0191440 0.0092560 -0.0012253
v 0.0103324 0.0034553 -0.0078000
v 0.0083335 0.0159280 0.0084000
v 0.0074446 0.0172583 0.0084000
v 0.0106066 0.0177934 0.0084000
v 0.0094752 0.0189248 0.0084000
v 0.0092225 0.0145976 0.0067998
v 0.0063525 0.0130636 0.0067998
v 0.0052045 0.0158353 0.0067998
v 0.0117380 0.0166620 0.0067998
v 0.0074446 0.0172583 0.0067998
v 0.0094752 0.0189248 0.0067998
v 0.0064291 0.0128788 -0.0068000
v 0.0093336 0.0144313 -0.0068000
v 0.0075558 0.0170920 -0.0068000
v 0.0118794 0.0165206 -0.0068000
v 0.0096166 0.0187834 -0.0068000
v 0.0096166 0.0187834 -0.0084000
v 0.0107480 0.0176520 -0.0084000
v 0.0084447 0.0157617 -0.0084000
v 0.0075558 0.0170920 -0.0084000
v 0.0058168 0.0143570 -0.0084000
v 0.0127279 0.0156721 -0.0128000
v 0.0154149 0.0129851 -0.0128000
v 0.0121114 0.0102740 -0.0128000
v 0.0100003 0.0134336 -0.0128000
v 0.0083425 0.0082594 -0.0128000
v 0.0083425 0.0082594 0.0128000
v 0.0121114 0.0102740 0.0128000
v 0.0098892 0.0135998 0.0128000
v 0.0154149 0.0129851 0.0128000
v 0.0125865 0.0158135 0.0128000
v 0.0128892 0.0091099 0.0100000
v 0.0064291 0.0128788 0.0100000
v 0.0164049 0.0119951 0.0100000
v 0.0063525 0.0130636 0.0100000
v 0.0092225 0.0145976 0.0100000
v 0.0118794 0.0165206 0.0100000
v 0.0117380 0.0166620 0.0100000
v 0.0064291 0.0128788 -0.0100000
v 0.0128892 0.0091099 -0.0100000
v 0.0093336 0.0144313 -0.0100000
v 0.0164049 0.0119951 -0.0100000
v 0.0118794 0.0165206 -0.0100000
v 0.0179605 0.0104395 0.0112000
v 0.0097201 0.0049335 -0.0112000
v 0.0083335 0.0159280 0.0100000
v 0.0106066 0.0177934 0.0100000
v 0.0107480 0.0176520 -0.0100000
v 0.0084447 0.0157617 -0.0100000
v 0.0141115 0.0072807 0.0112000
v 0.0141115 0.0072807 -0.0112000
v 0.0058168 0.0143570 -0.0100000
v 0.0181019 0.0102981 -0.0080000
v 0.0219799 0.0127560 0.0003747
v 0.0224874 0.0133744 0.0011747
v 0.0224874 0.0133744 0.0040000
v 0.0196315 0.0098945 0.0003747
v 0.0191240 0.0092761 0.0011747
v 0.0191240 0.0092761 0.0040000
v 0.0236513 0.0186033 0.0080000
v 0.0249448 0.0180675 0.0078000
v 0.0262382 0.0175318 0.0040000
v 0.0249867 0.0180502 0.0040000
v 0.0262382 0.0175318 0.0011747
v 0.0249867 0.0180502 0.0011747
v 0.0258611 0.0168263 -0.0004253
v 0.0262382 0.0175318 -0.0012253
v 0.0236138 0.0126218 0.0011747
v 0.0236138 0.0126218 -0.0012253
v 0.0239909 0.0133274 -0.0004253
v 0.0236138 0.0126218 0.0040000
v 0.0205894 0.0089366 0.0003747
v 0.0231062 0.0120034 0.0003747
v 0.0200818 0.0083182 -0.0040000
v 0.0236138 0.0126218 -0.0040000
v 0.0224497 0.0133996 0.0078000
v 0.0212856 0.0141774 0.0080000
v 0.0225109 0.0133587 -0.0012253
v 0.0225109 0.0133587 -0.0040000
v 0.0224497 0.0133996 -0.0078000
v 0.0212856 0.0141774 -0.0080000
v 0.0228881 0.0140642 -0.0004253
v 0.0246357 0.0173338 -0.0004253
v 0.0250128 0.0180394 -0.0040000
v 0.0250128 0.0180394 -0.0012253
v 0.0190919 0.0093081 -0.0078000
v 0.0124720 0.0200665 0.0084000
v 0.0111417 0.0209554 0.0084000
v 0.0138582 0.0226598 0.0084000
v 0.0123800 0.0232721 0.0084000
v 0.0138024 0.0191776 0.0067998
v 0.0096167 0.0187834 0.0067998
v 0.0153364 0.0220475 0.0067998
v 0.0111417 0.0209554 0.0067998
v 0.0123800 0.0232721 0.0067998
v 0.0096167 0.0187834 -0.0068000
v 0.0139687 0.0190664 -0.0068000
v 0.0113080 0.0208443 -0.0068000
v 0.0155212 0.0219710 -0.0068000
v 0.0125648 0.0231955 -0.0068000
v 0.0125648 0.0231955 -0.0084000
v 0.0140430 0.0225832 -0.0084000
v 0.0126383 0.0199554 -0.0084000
v 0.0113080 0.0208443 -0.0084000
v 0.0096167 0.0187834 -0.0084000
v 0.0166298 0.0215117 -0.0128000
v 0.0201406 0.0200575 -0.0128000
v 0.0181260 0.0162886 -0.0128000
v 0.0149664 0.0183998 -0.0128000
v 0.0181260 0.0162886 0.0128000
v 0.0148002 0.0185109 0.0128000
v 0.0201406 0.0200575 0.0128000
v 0.0164450 0.0215883 0.0128000
v 0.0192901 0.0155108 0.0100000
v 0.0214340 0.0195218 0.0100000
v 0.0138024 0.0191776 0.0100000
v 0.0155212 0.0219710 0.0100000
v 0.0153364 0.0220475 0.0100000
v 0.0192901 0.0155108 -0.0100000
v 0.0139687 0.0190664 -0.0100000
v 0.0214340 0.0195218 -0.0100000
v 0.0155212 0.0219710 -0.0100000
v 0.0234666 0.0186798 0.0112000
v 0.0179605 0.0104395 -0.0112000
v 0.0124720 0.0200665 0.0100000
v 0.0138582 0.0226598 0.0100000
v 0.0140430 0.0225832 -0.0100000
v 0.0126383 0.0199554 -0.0100000
v 0.0211193 0.0142885 0.0112000
v 0.0211193 0.0142885 -0.0112000
v 0.0236513 0.0186033 -0.0080000
v 0.0262935 0.0223582 0.0003747
v 0.0265257 0.0231237 0.0011747
v 0.0265257 0.0231237 0.0040000
v 0.0252189 0.0188158 0.0003747
v 0.0256000 0.0284000 0.0080000
v 0.0270000 0.0284000 0.0078000
v 0.0284000 0.0284000 0.0040000
v 0.0270454 0.0284000 0.0040000
v 0.0284000 0.0284000 0.0011747
v 0.0270454 0.0284000 0.0011747
v 0.0283216 0.0276039 -0.0004253
v 0.0284000 0.0284000 -0.0012253
v 0.0278543 0.0228595 0.0011747
v 0.0278543 0.0228595 -0.0012253
v 0.0279327 0.0236556 -0.0004253
v 0.0278543 0.0228595 0.0040000
v 0.0264704 0.0182974 0.0003747
v 0.0276221 0.0220939 0.0003747
v 0.0262382 0.0175318 -0.0040000
v 0.0278543 0.0228595 -0.0040000
v 0.0264812 0.0231326 0.0078000
v 0.0251081 0.0234057 0.0080000
v 0.0265535 0.0231182 -0.0012253
v 0.0265535 0.0231182 -0.0040000
v 0.0264812 0.0231326 -0.0078000
v 0.0251081 0.0234057 -0.0080000
v 0.0266319 0.0239144 -0.0004253
v 0.0269953 0.0276039 -0.0004253
v 0.0270737 0.0284000 -0.0040000
v 0.0270737 0.0284000 -0.0012253
v 0.0249448 0.0180676 -0.0078000
v 0.0147118 0.0254737 0.0084000
v 0.0131425 0.0257858 0.0084000
v 0.0150000 0.0284000 0.0084000
v 0.0134000 0.0284000 0.0084000
v 0.0162810 0.0251615 0.0067998
v 0.0125648 0.0231955 0.0067998
v 0.0166000 0.0284000 0.0067998
v 0.0131425 0.0257858 0.0067998
v 0.0134000 0.0284000 0.0067998
v 0.0155212 0.0219709 -0.0068000
v 0.0164772 0.0251225 -0.0068000
v 0.0133387 0.0257468 -0.0068000
v 0.0168000 0.0284000 -0.0068000
v 0.0136000 0.0284000 -0.0068000
v 0.0136000 0.0284000 -0.0084000
v 0.0152000 0.0284000 -0.0084000
v 0.0149079 0.0254347 -0.0084000
v 0.0133387 0.0257468 -0.0084000
v 0.0180000 0.0284000 -0.0128000
v 0.0218000 0.0284000 -0.0128000
v 0.0213811 0.0241471 -0.0128000
v 0.0176541 0.0248884 -0.0128000
v 0.0164451 0.0215883 0.0128000
v 0.0213811 0.0241471 0.0128000
v 0.0174580 0.0249274 0.0128000
v 0.0218000 0.0284000 0.0128000
v 0.0178000 0.0284000 0.0128000
v 0.0227542 0.0238739 0.0100000
v 0.0155212 0.0219709 0.0100000
v 0.0232000 0.0284000 0.0100000
v 0.0162810 0.0251615 0.0100000
v 0.0168000 0.0284000 0.0100000
v 0.0166000 0.0284000 0.0100000
v 0.0155212 0.0219709 -0.0100000
v 0.0227542 0.0238739 -0.0100000
v 0.0164772 0.0251225 -0.0100000
v 0.0232000 0.0284000 -0.0100000
v 0.0168000 0.0284000 -0.0100000
v 0.0254000 0.0284000 0.0112000
v 0.0234666 0.0186799 -0.0112000
v 0.0147118 0.0254737 0.0100000
v 0.0150000 0.0284000 0.0100000
v 0.0152000 0.0284000 -0.0100000
v 0.0149079 0.0254347 -0.0100000
v 0.0249120 0.0234447 0.0112000
v 0.0249120 0.0234447 -0.0112000
v 0.0256000 0.0284000 -0.0080000
v 0.0266041 0.0328802 0.0003747
v 0.0265257 0.0336763 0.0011747
v 0.0265257 0.0336763 0.0040000
v 0.0269670 0.0291962 0.0003747
v 0.0236513 0.0381967 0.0080000
v 0.0249448 0.0387325 0.0078000
v 0.0262382 0.0392682 0.0040000
v 0.0249867 0.0387498 0.0040000
v 0.0262382 0.0392682 0.0011747
v 0.0249867 0.0387498 0.0011747
v 0.0264704 0.0385027 -0.0004253
v 0.0262382 0.0392682 -0.0012253
v 0.0278543 0.0339406 0.0011747
v 0.0278543 0.0339406 -0.0012253
v 0.0276221 0.0347061 -0.0004253
v 0.0278543 0.0339406 0.0040000
v 0.0283216 0.0291962 0.0003747
v 0.0279327 0.0331444 0.0003747
v 0.0284000 0.0284000 -0.0040000
v 0.0278543 0.0339406 -0.0040000
v 0.0264812 0.0336675 0.0078000
v 0.0251081 0.0333943 0.0080000
v 0.0265535 0.0336818 -0.0012253
v 0.0265535 0.0336818 -0.0040000
v 0.0264812 0.0336675 -0.0078000
v 0.0251081 0.0333943 -0.0080000
v 0.0263212 0.0344474 -0.0004253
v 0.0252450 0.0379951 -0.0004253
v 0.0250128 0.0387607 -0.0040000
v 0.0250128 0.0387607 -0.0012253
v 0.0270000 0.0284000 -0.0078000
v 0.0147118 0.0313264 0.0084000
v 0.0131425 0.0310142 0.0084000
v 0.0138582 0.0341403 0.0084000
v 0.0123800 0.0335280 0.0084000
v 0.0162810 0.0316385 0.0067998
v 0.0136000 0.0284000 0.0067998
v 0.0153364 0.0347526 0.0067998
v 0.0131425 0.0310142 0.0067998
v 0.0123800 0.0335280 0.0067998
v 0.0164772 0.0316775 -0.0068000
v 0.0133387 0.0310533 -0.0068000
v 0.0155212 0.0348291 -0.0068000
v 0.0125648 0.0336045 -0.0068000
v 0.0125648 0.0336045 -0.0084000
v 0.0140430 0.0342168 -0.0084000
v 0.0149079 0.0313654 -0.0084000
v 0.0133387 0.0310533 -0.0084000
v 0.0166298 0.0352883 -0.0128000
v 0.0201406 0.0367425 -0.0128000
v 0.0213811 0.0326530 -0.0128000
v 0.0176541 0.0319116 -0.0128000
v 0.0213811 0.0326530 0.0128000
v 0.0174580 0.0318726 0.0128000
v 0.0201406 0.0367425 0.0128000
v 0.0164450 0.0352118 0.0128000
v 0.0227542 0.0329261 0.0100000
v 0.0214340 0.0372783 0.0100000
v 0.0162810 0.0316385 0.0100000
v 0.0155212 0.0348291 0.0100000
v 0.0153364 0.0347526 0.0100000
v 0.0227542 0.0329261 -0.0100000
v 0.0164772 0.0316775 -0.0100000
v 0.0214340 0.0372783 -0.0100000
v 0.0155212 0.0348291 -0.0100000
v 0.0234666 0.0381202 0.0112000
v 0.0254000 0.0284000 -0.0112000
v 0.0147118 0.0313264 0.0100000
v 0.0138582 0.0341403 0.0100000
v 0.0140430 0.0342168 -0.0100000
v 0.0149079 0.0313654 -0.0100000
v 0.0249120 0.0333553 0.0112000
v 0.0249120 0.0333553 -0.0112000
v 0.0236513 0.0381967 -0.0080000
v 0.0228645 0.0427201 0.0003747
v 0.0224874 0.0434256 0.0011747
v 0.0224874 0.0434256 0.0040000
v 0.0246096 0.0394554 0.0003747
v 0.0181020 0.0465019 0.0080000
v 0.0190919 0.0474919 0.0078000
v 0.0200819 0.0484818 0.0040000
v 0.0191240 0.0475240 0.0040000
v 0.0200819 0.0484818 0.0011747
v 0.0191240 0.0475240 0.0011747
v 0.0205894 0.0478634 -0.0004253
v 0.0200819 0.0484818 -0.0012253
v 0.0236138 0.0441782 0.0011747
v 0.0236138 0.0441782 -0.0012253
v 0.0231062 0.0447966 -0.0004253
v 0.0236138 0.0441782 0.0040000
v 0.0258611 0.0399738 0.0003747
v 0.0239909 0.0434727 0.0003747
v 0.0262382 0.0392682 -0.0040000
v 0.0236138 0.0441782 -0.0040000
v 0.0224497 0.0434004 0.0078000
v 0.0212856 0.0426226 0.0080000
v 0.0225110 0.0434413 -0.0012253
v 0.0225110 0.0434413 -0.0040000
v 0.0224497 0.0434004 -0.0078000
v 0.0212856 0.0426226 -0.0080000
v 0.0220034 0.0440597 -0.0004253
v 0.0196515 0.0469256 -0.0004253
v 0.0191440 0.0475440 -0.0040000
v 0.0191440 0.0475440 -0.0012253
v 0.0249448 0.0387325 -0.0078000
v 0.0124720 0.0367336 0.0084000
v 0.0111417 0.0358447 0.0084000
v 0.0106066 0.0390066 0.0084000
v 0.0094753 0.0378753 0.0084000
v 0.0138024 0.0376225 0.0067998
v 0.0125648 0.0336045 0.0067998
v 0.0117380 0.0401380 0.0067998
v 0.0111417 0.0358447 0.0067998
v 0.0094753 0.0378753 0.0067998
v 0.0139687 0.0377336 -0.0068000
v 0.0113080 0.0359558 -0.0068000
v 0.0118794 0.0402794 -0.0068000
v 0.0096167 0.0380167 -0.0068000
v 0.0096167 0.0380167 -0.0084000
v 0.0107480 0.0391481 -0.0084000
v 0.0126383 0.0368447 -0.0084000
v 0.0113080 0.0359558 -0.0084000
v 0.0127279 0.0411279 -0.0128000
v 0.0154149 0.0438149 -0.0128000
v 0.0181261 0.0405114 -0.0128000
v 0.0149664 0.0384003 -0.0128000
v 0.0164451 0.0352118 0.0128000
v 0.0181261 0.0405114 0.0128000
v 0.0148002 0.0382892 0.0128000
v 0.0154149 0.0438149 0.0128000
v 0.0125865 0.0409865 0.0128000
v 0.0192901 0.0412892 0.0100000
v 0.0164049 0.0448049 0.0100000
v 0.0138024 0.0376225 0.0100000
v 0.0118794 0.0402794 0.0100000
v 0.0117380 0.0401380 0.0100000
v 0.0192901 0.0412892 -0.0100000
v 0.0139687 0.0377336 -0.0100000
v 0.0164049 0.0448049 -0.0100000
v 0.0118794 0.0402794 -0.0100000
v 0.0179605 0.0463605 0.0112000
v 0.0234666 0.0381202 -0.0112000
v 0.0124720 0.0367336 0.0100000
v 0.0106066 0.0390066 0.0100000
v 0.0107480 0.0391481 -0.0100000
v 0.0126383 0.0368447 -0.0100000
v 0.0211194 0.0425115 0.0112000
v 0.0211194 0.0425115 -0.0112000
v 0.0181020 0.0465019 -0.0080000
v 0.0156440 0.0503799 0.0003747
v 0.0150256 0.0508874 0.0011747
v 0.0150256 0.0508874 0.0040000
v 0.0185056 0.0480315 0.0003747
v 0.0097967 0.0520513 0.0080000
v 0.0103325 0.0533448 0.0078000
v 0.0108682 0.0546382 0.0040000
v 0.0103498 0.0533867 0.0040000
v 0.0108682 0.0546382 0.0011747
v 0.0103498 0.0533867 0.0011747
v 0.0115738 0.0542611 -0.0004253
v 0.0108682 0.0546382 -0.0012253
v 0.0157782 0.0520138 0.0011747
v 0.0157782 0.0520138 -0.0012253
v 0.0150727 0.0523909 -0.0004253
v 0.0157782 0.0520138 0.0040000
v 0.0194634 0.0489894 0.0003747
v 0.0200818 0.0484819 0.0011747
v 0.0200818 0.0484819 -0.0012253
v 0.0163966 0.0515062 0.0003747
v 0.0200818 0.0484819 -0.0040000
v 0.0157782 0.0520138 -0.0040000
v 0.0150004 0.0508497 0.0078000
v 0.0142226 0.0496857 0.0080000
v 0.0150414 0.0509110 -0.0012253
v 0.0150414 0.0509110 -0.0040000
v 0.0150004 0.0508497 -0.0078000
v 0.0142226 0.0496857 -0.0080000
v 0.0143358 0.0512881 -0.0004253
v 0.0110662 0.0530357 -0.0004253
v 0.0103607 0.0534129 -0.0040000
v 0.0103607 0.0534129 -0.0012253
v 0.0181019 0.0465020 -0.0080000
v 0.0190919 0.0474919 -0.0078000
v 0.0094752 0.0378753 0.0084000
v 0.0083335 0.0408721 0.0084000
v 0.0074446 0.0395417 0.0084000
v 0.0057403 0.0422582 0.0084000
v 0.0051280 0.0407800 0.0084000
v 0.0092225 0.0422024 0.0067998
v 0.0096167 0.0380167 0.0067998
v 0.0063525 0.0437364 0.0067998
v 0.0094752 0.0378753 0.0067998
v 0.0074446 0.0395417 0.0067998
v 0.0051280 0.0407800 0.0067998
v 0.0093336 0.0423687 -0.0068000
v 0.0075558 0.0397080 -0.0068000
v 0.0064291 0.0439212 -0.0068000
v 0.0052045 0.0409648 -0.0068000
v 0.0052045 0.0409648 -0.0084000
v 0.0058168 0.0424430 -0.0084000
v 0.0084447 0.0410384 -0.0084000
v 0.0075558 0.0397080 -0.0084000
v 0.0107480 0.0391480 -0.0084000
v 0.0068883 0.0450299 -0.0128000
v 0.0083425 0.0485406 -0.0128000
v 0.0121114 0.0465261 -0.0128000
v 0.0100003 0.0433665 -0.0128000
v 0.0154149 0.0438150 -0.0128000
v 0.0154149 0.0438150 0.0128000
v 0.0121114 0.0465261 0.0128000
v 0.0098892 0.0432002 0.0128000
v 0.0083425 0.0485406 0.0128000
v 0.0068118 0.0448451 0.0128000
v 0.0128893 0.0476901 0.0100000
v 0.0088783 0.0498340 0.0100000
v 0.0092225 0.0422024 0.0100000
v 0.0064291 0.0439212 0.0100000
v 0.0063525 0.0437364 0.0100000
v 0.0128893 0.0476901 -0.0100000
v 0.0093336 0.0423687 -0.0100000
v 0.0088783 0.0498340 -0.0100000
v 0.0064291 0.0439212 -0.0100000
v 0.0097202 0.0518666 0.0112000
v 0.0179605 0.0463605 -0.0112000
v 0.0083335 0.0408721 0.0100000
v 0.0057403 0.0422582 0.0100000
v 0.0058168 0.0424430 -0.0100000
v 0.0084447 0.0410384 -0.0100000
v 0.0141115 0.0495194 0.0112000
v 0.0141115 0.0495194 -0.0112000
v 0.0107480 0.0391480 -0.0100000
v 0.0181019 0.0465020 0.0080000
v 0.0097967 0.0520513 -0.0080000
v 0.0060418 0.0546935 0.0003747
v 0.0052763 0.0549257 0.0011747
v 0.0052763 0.0549257 0.0040000
v 0.0095843 0.0536189 0.0003747
v 0.0000000 0.0540000 0.0080000
v 0.0000000 0.0554000 0.0078000
v 0.0000000 0.0568000 0.0040000
v 0.0000000 0.0554454 0.0040000
v 0.0000000 0.0568000 0.0011747
v 0.0000000 0.0554454 0.0011747
v 0.0007961 0.0567216 -0.0004253
v 0.0000000 0.0568000 -0.0012253
v 0.0055406 0.0562544 0.0011747
v 0.0055406 0.0562544 -0.0012253
v 0.0047444 0.0563328 -0.0004253
v 0.0055406 0.0562544 0.0040000
v 0.0101026 0.0548705 0.0003747
v 0.0063061 0.0560221 0.0003747
v 0.0108682 0.0546382 -0.0040000
v 0.0055406 0.0562544 -0.0040000
v 0.0052674 0.0548812 0.0078000
v 0.0049943 0.0535082 0.0080000
v 0.0052818 0.0549535 -0.0012253
v 0.0052818 0.0549535 -0.0040000
v 0.0052674 0.0548812 -0.0078000
v 0.0049943 0.0535082 -0.0080000
v 0.0044857 0.0550319 -0.0004253
v 0.0007961 0.0553953 -0.0004253
v 0.0000000 0.0554737 -0.0040000
v 0.0000000 0.0554737 -0.0012253
v 0.0097967 0.0520514 -0.0080000
v 0.0103324 0.0533448 -0.0078000
v 0.0103606 0.0534129 -0.0040000
v 0.0103606 0.0534129 -0.0012253
v 0.0057402 0.0422582 0.0084000
v 0.0029263 0.0431118 0.0084000
v 0.0026142 0.0415425 0.0084000
v 0.0000000 0.0434000 0.0084000
v -0.0000000 0.0418000 0.0084000
v 0.0032385 0.0446811 0.0067998
v 0.0052045 0.0409648 0.0067998
v -0.0000000 0.0450000 0.0067998
v 0.0026142 0.0415425 0.0067998
v -0.0000000 0.0418000 0.0067998
v 0.0032775 0.0448772 -0.0068000
v 0.0026532 0.0417387 -0.0068000
v -0.0000000 0.0452000 -0.0068000
v 0.0000000 0.0420000 -0.0068000
v 0.0000000 0.0420000 -0.0084000
v -0.0000000 0.0436000 -0.0084000
v 0.0029654 0.0433080 -0.0084000
v 0.0026532 0.0417387 -0.0084000
v 0.0000000 0.0464000 -0.0128000
v -0.0000000 0.0502000 -0.0128000
v 0.0042530 0.0497811 -0.0128000
v 0.0035116 0.0460542 -0.0128000
v 0.0042530 0.0497811 0.0128000
v 0.0034726 0.0458580 0.0128000
v -0.0000000 0.0502000 0.0128000
v -0.0000000 0.0462000 0.0128000
v 0.0045261 0.0511543 0.0100000
v 0.0088782 0.0498340 0.0100000
v -0.0000000 0.0516000 0.0100000
v 0.0032385 0.0446811 0.0100000
v -0.0000000 0.0452000 0.0100000
v -0.0000000 0.0450000 0.0100000
v 0.0088782 0.0498340 -0.0100000
v 0.0045261 0.0511543 -0.0100000
v 0.0032775 0.0448772 -0.0100000
v -0.0000000 0.0516000 -0.0100000
v -0.0000000 0.0452000 -0.0100000
v -0.0000000 0.0538000 0.0112000
v 0.0097201 0.0518666 -0.0112000
v 0.0029263 0.0431118 0.0100000
v 0.0000000 0.0434000 0.0100000
v -0.0000000 0.0436000 -0.0100000
v 0.0029654 0.0433080 -0.0100000
v 0.0049553 0.0533120 0.0112000
v 0.0057402 0.0422582 0.0100000
v 0.0049553 0.0533120 -0.0112000
v 0.0097967 0.0520514 0.0080000
v 0.0000000 0.0540000 -0.0080000
v -0.0044802 0.0550041 0.0003747
v -0.0052763 0.0549257 0.0011747
v -0.0052763 0.0549257 0.0040000
v -0.0007961 0.0553670 0.0003747
v -0.0097967 0.0520513 0.0080000
v -0.0103324 0.0533448 0.0078000
v -0.0108682 0.0546382 0.0040000
v -0.0103498 0.0533867 0.0040000
v -0.0108682 0.0546382 0.0011747
v -0.0103498 0.0533867 0.0011747
v -0.0101026 0.0548704 -0.0004253
v -0.0108682 0.0546382 -0.0012253
v -0.0055406 0.0562543 0.0011747
v -0.0055406 0.0562543 -0.0012253
v -0.0063061 0.0560221 -0.0004253
v -0.0055406 0.0562543 0.0040000
v -0.0007961 0.0567216 0.0003747
v -0.0047444 0.0563327 0.0003747
v 0.0000000 0.0568000 -0.0040000
v -0.0055406 0.0562543 -0.0040000
v -0.0052674 0.0548812 0.0078000
v -0.0049943 0.0535081 0.0080000
v -0.0052818 0.0549535 -0.0012253
v -0.0052818 0.0549535 -0.0040000
v -0.0052674 0.0548812 -0.0078000
v -0.0049943 0.0535081 -0.0080000
v -0.0060474 0.0547213 -0.0004253
v -0.0095951 0.0536451 -0.0004253
v -0.0103606 0.0534129 -0.0040000
v -0.0103606 0.0534129 -0.0012253
v 0.0000000 0.0554000 -0.0078000
v -0.0029264 0.0431118 0.0084000
v -0.0026142 0.0415425 0.0084000
v -0.0057402 0.0422582 0.0084000
v -0.0051280 0.0407800 0.0084000
v -0.0032385 0.0446811 0.0067998
v 0.0000000 0.0420000 0.0067998
v -0.0063526 0.0437364 0.0067998
v -0.0026142 0.0415425 0.0067998
v -0.0051280 0.0407800 0.0067998
v -0.0032775 0.0448772 -0.0068000
v -0.0026532 0.0417387 -0.0068000
v -0.0064291 0.0439212 -0.0068000
v -0.0052045 0.0409648 -0.0068000
v -0.0052045 0.0409648 -0.0084000
v -0.0058168 0.0424430 -0.0084000
v -0.0029654 0.0433079 -0.0084000
v -0.0026532 0.0417387 -0.0084000
v -0.0068883 0.0450299 -0.0128000
v -0.0083425 0.0485406 -0.0128000
v -0.0042530 0.0497811 -0.0128000
v -0.0035116 0.0460541 -0.0128000
v -0.0042530 0.0497811 0.0128000
v -0.0034726 0.0458580 0.0128000
v -0.0083425 0.0485406 0.0128000
v -0.0068118 0.0448451 0.0128000
v -0.0045261 0.0511543 0.0100000
v -0.0088782 0.0498340 0.0100000
v -0.0032385 0.0446811 0.0100000
v -0.0064291 0.0439212 0.0100000
v -0.0063526 0.0437364 0.0100000
v -0.0045261 0.0511543 -0.0100000
v -0.0032775 0.0448772 -0.0100000
v -0.0088782 0.0498340 -0.0100000
v -0.0064291 0.0439212 -0.0100000
v -0.0097202 0.0518666 0.0112000
v 0.0000000 0.0538000 -0.0112000
v -0.0029264 0.0431118 0.0100000
v -0.0057402 0.0422582 0.0100000
v -0.0058168 0.0424430 -0.0100000
v -0.0029654 0.0433079 -0.0100000
v -0.0049553 0.0533120 0.0112000
v -0.0049553 0.0533120 -0.0112000
v -0.0097967 0.0520513 -0.0080000
v -0.0143201 0.0512646 0.0003747
v -0.0150256 0.0508875 0.0011747
v -0.0150256 0.0508875 0.0040000
v -0.0110553 0.0530096 0.0003747
v -0.0181019 0.0465020 0.0080000
v -0.0190919 0.0474919 0.0078000
v -0.0200818 0.0484819 0.0040000
v -0.0191240 0.0475240 0.0040000
v -0.0200818 0.0484819 0.0011747
v -0.0191240 0.0475240 0.0011747
v -0.0194634 0.0489894 -0.0004253
v -0.0200818 0.0484819 -0.0012253
v -0.0157782 0.0520138 0.0011747
v -0.0157782 0.0520138 -0.0012253
v -0.0163966 0.0515063 -0.0004253
v -0.0157782 0.0520138 0.0040000
v -0.0115737 0.0542611 0.0003747
v -0.0150726 0.0523909 0.0003747
v -0.0108682 0.0546382 -0.0040000
v -0.0157782 0.0520138 -0.0040000
v -0.0150004 0.0508497 0.0078000
v -0.0142226 0.0496857 0.0080000
v -0.0150413 0.0509110 -0.0012253
v -0.0150413 0.0509110 -0.0040000
v -0.0150004 0.0508497 -0.0078000
v -0.0142226 0.0496857 -0.0080000
v -0.0156597 0.0504035 -0.0004253
v -0.0185256 0.0480515 -0.0004253
v -0.0191440 0.0475440 -0.0040000
v -0.0191440 0.0475440 -0.0012253
v -0.0097967 0.0520514 -0.0080000
v -0.0103324 0.0533448 -0.0078000
v -0.0083335 0.0408721 0.0084000
v -0.0074446 0.0395417 0.0084000
v -0.0106066 0.0390066 0.0084000
v -0.0094752 0.0378753 0.0084000
v -0.0092225 0.0422024 0.0067998
v -0.0063525 0.0437364 0.0067998
v -0.0052045 0.0409648 0.0067998
v -0.0117380 0.0401380 0.0067998
v -0.0074446 0.0395417 0.0067998
v -0.0094752 0.0378753 0.0067998
v -0.0093336 0.0423687 -0.0068000
v -0.0075558 0.0397080 -0.0068000
v -0.0118794 0.0402794 -0.0068000
v -0.0096166 0.0380167 -0.0068000
v -0.0096166 0.0380167 -0.0084000
v -0.0107480 0.0391480 -0.0084000
v -0.0084447 0.0410384 -0.0084000
v -0.0075558 0.0397080 -0.0084000
v -0.0127279 0.0411280 -0.0128000
v -0.0154149 0.0438150 -0.0128000
v -0.0121114 0.0465261 -0.0128000
v -0.0100003 0.0433665 -0.0128000
v -0.0121114 0.0465261 0.0128000
v -0.0098892 0.0432002 0.0128000
v -0.0154149 0.0438150 0.0128000
v -0.0125865 0.0409865 0.0128000
v -0.0128892 0.0476902 0.0100000
v -0.0164049 0.0448049 0.0100000
v -0.0063525 0.0437364 0.0100000
v -0.0092225 0.0422024 0.0100000
v -0.0118794 0.0402794 0.0100000
v -0.0117380 0.0401380 0.0100000
v -0.0128892 0.0476902 -0.0100000
v -0.0093336 0.0423687 -0.0100000
v -0.0164049 0.0448049 -0.0100000
v -0.0118794 0.0402794 -0.0100000
v -0.0179605 0.0463606 0.0112000
v -0.0097201 0.0518666 -0.0112000
v -0.0083335 0.0408721 0.0100000
v -0.0106066 0.0390066 0.0100000
v -0.0107480 0.0391480 -0.0100000
v -0.0084447 0.0410384 -0.0100000
v -0.0141115 0.0495194 0.0112000
v -0.0141115 0.0495194 -0.0112000
v -0.0097967 0.0520514 0.0080000
v -0.0181019 0.0465020 -0.0080000
v -0.0219799 0.0440440 0.0003747
v -0.0224874 0.0434257 0.0011747
v -0.0224874 0.0434257 0.0040000
v -0.0196315 0.0469056 0.0003747
v -0.0236513 0.0381967 0.0080000
v -0.0249448 0.0387325 0.0078000
v -0.0262382 0.0392683 0.0040000
v -0.0249867 0.0387499 0.0040000
v -0.0262382 0.0392683 0.0011747
v -0.0249867 0.0387499 0.0011747
v -0.0258611 0.0399738 -0.0004253
v -0.0262382 0.0392683 -0.0012253
v -0.0236138 0.0441782 0.0011747
v -0.0236138 0.0441782 -0.0012253
v -0.0239909 0.0434727 -0.0004253
v -0.0236138 0.0441782 0.0040000
v -0.0205894 0.0478635 0.0003747
v -0.0231062 0.0447966 0.0003747
v -0.0200818 0.0484819 -0.0040000
v -0.0236138 0.0441782 -0.0040000
v -0.0224497 0.0434004 0.0078000
v -0.0212856 0.0426226 0.0080000
v -0.0225109 0.0434414 -0.0012253
v -0.0225109 0.0434414 -0.0040000
v -0.0224497 0.0434004 -0.0078000
v -0.0212856 0.0426226 -0.0080000
v -0.0228881 0.0427358 -0.0004253
v -0.0246357 0.0394662 -0.0004253
v -0.0250128 0.0387607 -0.0040000
v -0.0250128 0.0387607 -0.0012253
v -0.0190919 0.0474919 -0.0078000
v -0.0124720 0.0367336 0.0084000
v -0.0111417 0.0358447 0.0084000
v -0.0138582 0.0341403 0.0084000
v -0.0123800 0.0335280 0.0084000
v -0.0138024 0.0376225 0.0067998
v -0.0096167 0.0380167 0.0067998
v -0.0153364 0.0347526 0.0067998
v -0.0111417 0.0358447 0.0067998
v -0.0123800 0.0335280 0.0067998
v -0.0096167 0.0380167 -0.0068000
v -0.0139687 0.0377336 -0.0068000
v -0.0113080 0.0359558 -0.0068000
v -0.0155212 0.0348291 -0.0068000
v -0.0125648 0.0336045 -0.0068000
v -0.0125648 0.0336045 -0.0084000
v -0.0140430 0.0342168 -0.0084000
v -0.0126383 0.0368447 -0.0084000
v -0.0113080 0.0359558 -0.0084000
v -0.0096167 0.0380167 -0.0084000
v -0.0166298 0.0352883 -0.0128000
v -0.0201406 0.0367425 -0.0128000
v -0.0181260 0.0405115 -0.0128000
v -0.0149664 0.0384003 -0.0128000
v -0.0127279 0.0411279 -0.0128000
v -0.0181260 0.0405115 0.0128000
v -0.0148002 0.0382892 0.0128000
v -0.0201406 0.0367425 0.0128000
v -0.0164450 0.0352118 0.0128000
v -0.0192901 0.0412893 0.0100000
v -0.0214340 0.0372783 0.0100000
v -0.0138024 0.0376225 0.0100000
v -0.0155212 0.0348291 0.0100000
v -0.0153364 0.0347526 0.0100000
v -0.0192901 0.0412893 -0.0100000
v -0.0139687 0.0377336 -0.0100000
v -0.0214340 0.0372783 -0.0100000
v -0.0155212 0.0348291 -0.0100000
v -0.0234666 0.0381202 0.0112000
v -0.0179605 0.0463605 -0.0112000
v -0.0124720 0.0367336 0.0100000
v -0.0138582 0.0341403 0.0100000
v -0.0140430 0.0342168 -0.0100000
v -0.0126383 0.0368447 -0.0100000
v -0.0211193 0.0425115 0.0112000
v -0.0211193 0.0425115 -0.0112000
v -0.0236513 0.0381967 -0.0080000
v -0.0262935 0.0344418 0.0003747
v -0.0265257 0.0336763 0.0011747
v -0.0265257 0.0336763 0.0040000
v -0.0252189 0.0379843 0.0003747
v -0.0249867 0.0387498 0.0011747
v -0.0249867 0.0387498 0.0040000
v -0.0256000 0.0284000 0.0080000
v -0.0270000 0.0284000 0.0078000
v -0.0284000 0.0284000 0.0040000
v -0.0270454 0.0284000 0.0040000
v -0.0284000 0.0284000 0.0011747
v -0.0270454 0.0284000 0.0011747
v -0.0283216 0.0291962 -0.0004253
v -0.0284000 0.0284000 -0.0012253
v -0.0278543 0.0339406 0.0011747
v -0.0278543 0.0339406 -0.0012253
v -0.0279327 0.0331444 -0.0004253
v -0.0278543 0.0339406 0.0040000
v -0.0264704 0.0385027 0.0003747
v -0.0262382 0.0392682 0.0011747
v -0.0262382 0.0392682 -0.0012253
v -0.0276221 0.0347061 0.0003747
v -0.0262382 0.0392682 -0.0040000
v -0.0278543 0.0339406 -0.0040000
v -0.0264812 0.0336674 0.0078000
v -0.0251081 0.0333943 0.0080000
v -0.0265535 0.0336818 -0.0012253
v -0.0265535 0.0336818 -0.0040000
v -0.0264812 0.0336674 -0.0078000
v -0.0251081 0.0333943 -0.0080000
v -0.0266319 0.0328857 -0.0004253
v -0.0269953 0.0291962 -0.0004253
v -0.0270737 0.0284000 -0.0040000
v -0.0270737 0.0284000 -0.0012253
v -0.0249448 0.0387325 -0.0078000
v -0.0147118 0.0313264 0.0084000
v -0.0131425 0.0310142 0.0084000
v -0.0150000 0.0284000 0.0084000
v -0.0134000 0.0284000 0.0084000
v -0.0162810 0.0316385 0.0067998
v -0.0125648 0.0336045 0.0067998
v -0.0166000 0.0284000 0.0067998
v -0.0131425 0.0310142 0.0067998
v -0.0134000 0.0284000 0.0067998
v -0.0164772 0.0316775 -0.0068000
v -0.0133387 0.0310532 -0.0068000
v -0.0168000 0.0284000 -0.0068000
v -0.0136000 0.0284000 -0.0068000
v -0.0136000 0.0284000 -0.0084000
v -0.0152000 0.0284000 -0.0084000
v -0.0149079 0.0313654 -0.0084000
v -0.0133387 0.0310532 -0.0084000
v -0.0180000 0.0284000 -0.0128000
v -0.0218000 0.0284000 -0.0128000
v -0.0213811 0.0326530 -0.0128000
v -0.0176541 0.0319116 -0.0128000
v -0.0164451 0.0352118 0.0128000
v -0.0213811 0.0326530 0.0128000
v -0.0174580 0.0318726 0.0128000
v -0.0218000 0.0284000 0.0128000
v -0.0178000 0.0284000 0.0128000
v -0.0227542 0.0329261 0.0100000
v -0.0232000 0.0284000 0.0100000
v -0.0162810 0.0316385 0.0100000
v -0.0168000 0.0284000 0.0100000
v -0.0166000 0.0284000 0.0100000
v -0.0227542 0.0329261 -0.0100000
v -0.0164772 0.0316775 -0.0100000
v -0.0232000 0.0284000 -0.0100000
v -0.0168000 0.0284000 -0.0100000
v -0.0254000 0.0284000 0.0112000
v -0.0234666 0.0381202 -0.0112000
v -0.0147118 0.0313264 0.0100000
v -0.0150000 0.0284000 0.0100000
v -0.0152000 0.0284000 -0.0100000
v -0.0149079 0.0313654 -0.0100000
v -0.0249120 0.0333553 0.0112000
v -0.0249120 0.0333553 -0.0112000
v -0.0256000 0.0284000 -0.0080000
v -0.0266041 0.0239199 0.0003747
v -0.0265257 0.0231237 0.0011747
v -0.0265257 0.0231237 0.0040000
v -0.0269670 0.0276039 0.0003747
v -0.0236513 0.0186033 0.0080000
v -0.0249448 0.0180676 0.0078000
v -0.0262382 0.0175318 0.0040000
v -0.0249867 0.0180502 0.0040000
v -0.0262382 0.0175318 0.0011747
v -0.0249867 0.0180502 0.0011747
v -0.0264704 0.0182974 -0.0004253
v -0.0262382 0.0175318 -0.0012253
v -0.0278543 0.0228595 0.0011747
v -0.0278543 0.0228595 -0.0012253
v -0.0276221 0.0220939 -0.0004253
v -0.0278543 0.0228595 0.0040000
v -0.0283216 0.0276039 0.0003747
v -0.0279327 0.0236556 0.0003747
v -0.0284000 0.0284000 -0.0040000
v -0.0278543 0.0228595 -0.0040000
v -0.0264812 0.0231326 0.0078000
v -0.0251081 0.0234057 0.0080000
v -0.0265535 0.0231182 -0.0012253
v -0.0265535 0.0231182 -0.0040000
v -0.0264812 0.0231326 -0.0078000
v -0.0251081 0.0234057 -0.0080000
v -0.0263212 0.0223527 -0.0004253
v -0.0252450 0.0188049 -0.0004253
v -0.0250128 0.0180394 -0.0040000
v -0.0250128 0.0180394 -0.0012253
v -0.0270000 0.0284000 -0.0078000
v -0.0147118 0.0254737 0.0084000
v -0.0131425 0.0257858 0.0084000
v -0.0138582 0.0226598 0.0084000
v -0.0123800 0.0232721 0.0084000
v -0.0162810 0.0251615 0.0067998
v -0.0136000 0.0284000 0.0067998
v -0.0153364 0.0220475 0.0067998
v -0.0131425 0.0257858 0.0067998
v -0.0123800 0.0232721 0.0067998
v -0.0164772 0.0251225 -0.0068000
v -0.0133387 0.0257468 -0.0068000
v -0.0155212 0.0219709 -0.0068000
v -0.0125648 0.0231955 -0.0068000
v -0.0125648 0.0231955 -0.0084000
v -0.0140430 0.0225832 -0.0084000
v -0.0149079 0.0254347 -0.0084000
v -0.0133387 0.0257468 -0.0084000
v -0.0166298 0.0215117 -0.0128000
v -0.0201406 0.0200575 -0.0128000
v -0.0213811 0.0241471 -0.0128000
v -0.0176541 0.0248884 -0.0128000
v -0.0213811 0.0241471 0.0128000
v -0.0174580 0.0249274 0.0128000
v -0.0201406 0.0200575 0.0128000
v -0.0164450 0.0215883 0.0128000
v -0.0227542 0.0238739 0.0100000
v -0.0214340 0.0195218 0.0100000
v -0.0162810 0.0251615 0.0100000
v -0.0155212 0.0219709 0.0100000
v -0.0153364 0.0220475 0.0100000
v -0.0227542 0.0238739 -0.0100000
v -0.0164772 0.0251225 -0.0100000
v -0.0214340 0.0195218 -0.0100000
v -0.0155212 0.0219709 -0.0100000
v -0.0234666 0.0186799 0.0112000
v -0.0254000 0.0284000 -0.0112000
v -0.0147118 0.0254737 0.0100000
v -0.0138582 0.0226598 0.0100000
v -0.0140430 0.0225832 -0.0100000
v -0.0149079 0.0254347 -0.0100000
v -0.0249120 0.0234447 0.0112000
v -0.0249120 0.0234447 -0.0112000
v -0.0236513 0.0186033 -0.0080000
v -0.0228645 0.0140799 0.0003747
v -0.0224874 0.0133744 0.0011747
v -0.0224874 0.0133744 0.0040000
v -0.0246096 0.0173447 0.0003747
v -0.0181020 0.0102981 0.0080000
v -0.0190919 0.0093082 0.0078000
v -0.0200819 0.0083182 0.0040000
v -0.0191240 0.0092761 0.0040000
v -0.0200819 0.0083182 0.0011747
v -0.0191240 0.0092761 0.0011747
v -0.0205894 0.0089366 -0.0004253
v -0.0200819 0.0083182 -0.0012253
v -0.0236138 0.0126218 0.0011747
v -0.0236138 0.0126218 -0.0012253
v -0.0231062 0.0120034 -0.0004253
v -0.0236138 0.0126218 0.0040000
v -0.0258611 0.0168263 0.0003747
v -0.0239909 0.0133274 0.0003747
v -0.0262382 0.0175318 -0.0040000
v -0.0236138 0.0126218 -0.0040000
v -0.0224497 0.0133996 0.0078000
v -0.0212856 0.0141774 0.0080000
v -0.0225110 0.0133587 -0.0012253
v -0.0225110 0.0133587 -0.0040000
v -0.0224497 0.0133996 -0.0078000
v -0.0212856 0.0141774 -0.0080000
v -0.0220034 0.0127403 -0.0004253
v -0.0196515 0.0098745 -0.0004253
v -0.0191440 0.0092560 -0.0040000
v -0.0191440 0.0092560 -0.0012253
v -0.0249448 0.0180676 -0.0078000
v -0.0124720 0.0200665 0.0084000
v -0.0111417 0.0209554 0.0084000
v -0.0106066 0.0177934 0.0084000
v -0.0094753 0.0189248 0.0084000
v -0.0138024 0.0191776 0.0067998
v -0.0125648 0.0231955 0.0067998
v -0.0117380 0.0166620 0.0067998
v -0.0111417 0.0209554 0.0067998
v -0.0094753 0.0189248 0.0067998
v -0.0139687 0.0190664 -0.0068000
v -0.0113080 0.0208443 -0.0068000
v -0.0118794 0.0165206 -0.0068000
v -0.0096167 0.0187834 -0.0068000
v -0.0096167 0.0187834 -0.0084000
v -0.0107480 0.0176520 -0.0084000
v -0.0126383 0.0199554 -0.0084000
v -0.0113080 0.0208443 -0.0084000
v -0.0127279 0.0156721 -0.0128000
v -0.0154149 0.0129851 -0.0128000
v -0.0181261 0.0162886 -0.0128000
v -0.0149664 0.0183998 -0.0128000
v -0.0164451 0.0215883 0.0128000
v -0.0181261 0.0162886 0.0128000
v -0.0148002 0.0185109 0.0128000
v -0.0154149 0.0129851 0.0128000
v -0.0125865 0.0158135 0.0128000
v -0.0192901 0.0155108 0.0100000
v -0.0164049 0.0119952 0.0100000
v -0.0138024 0.0191776 0.0100000
v -0.0118794 0.0165206 0.0100000
v -0.0117380 0.0166620 0.0100000
v -0.0192901 0.0155108 -0.0100000
v -0.0139687 0.0190664 -0.0100000
v -0.0164049 0.0119952 -0.0100000
v -0.0118794 0.0165206 -0.0100000
v -0.0179605 0.0104395 0.0112000
v -0.0234666 0.0186799 -0.0112000
v -0.0124720 0.0200665 0.0100000
v -0.0106066 0.0177934 0.0100000
v -0.0107480 0.0176520 -0.0100000
v -0.0126383 0.0199554 -0.0100000
v -0.0211194 0.0142886 0.0112000
v -0.0211194 0.0142886 -0.0112000
v -0.0181020 0.0102981 -0.0080000
v -0.0156440 0.0064201 0.0003747
v -0.0150256 0.0059126 0.0011747
v -0.0150256 0.0059126 0.0040000
v -0.0185056 0.0087685 0.0003747
v -0.0097967 0.0047487 0.0080000
v -0.0103325 0.0034553 0.0078000
v -0.0108682 0.0021618 0.0040000
v -0.0103498 0.0034134 0.0040000
v -0.0108682 0.0021618 0.0011747
v -0.0103498 0.0034134 0.0011747
v -0.0115738 0.0025390 -0.0004253
v -0.0108682 0.0021618 -0.0012253
v -0.0157782 0.0047863 0.0011747
v -0.0157782 0.0047863 -0.0012253
v -0.0150727 0.0044092 -0.0004253
v -0.0157782 0.0047863 0.0040000
v -0.0194634 0.0078107 0.0003747
v -0.0200818 0.0083182 0.0011747
v -0.0200818 0.0083182 -0.0012253
v -0.0163966 0.0052938 0.0003747
v -0.0200818 0.0083182 -0.0040000
v -0.0157782 0.0047863 -0.0040000
v -0.0150004 0.0059503 0.0078000
v -0.0142226 0.0071144 0.0080000
v -0.0150414 0.0058891 -0.0012253
v -0.0150414 0.0058891 -0.0040000
v -0.0150004 0.0059503 -0.0078000
v -0.0142226 0.0071144 -0.0080000
v -0.0143358 0.0055120 -0.0004253
v -0.0110662 0.0037643 -0.0004253
v -0.0103607 0.0033872 -0.0040000
v -0.0103607 0.0033872 -0.0012253
v -0.0181019 0.0102981 -0.0080000
v -0.0190919 0.0093081 -0.0078000
v -0.0094752 0.0189248 0.0084000
v -0.0083335 0.0159280 0.0084000
v -0.0074446 0.0172583 0.0084000
v -0.0057403 0.0145418 0.0084000
v -0.0051280 0.0160200 0.0084000
v -0.0092225 0.0145976 0.0067998
v -0.0096167 0.0187834 0.0067998
v -0.0063525 0.0130636 0.0067998
v -0.0094752 0.0189248 0.0067998
v -0.0074446 0.0172583 0.0067998
v -0.0051280 0.0160200 0.0067998
v -0.0093336 0.0144313 -0.0068000
v -0.0075558 0.0170920 -0.0068000
v -0.0064291 0.0128789 -0.0068000
v -0.0052045 0.0158353 -0.0068000
v -0.0052045 0.0158353 -0.0084000
v -0.0058168 0.0143570 -0.0084000
v -0.0084447 0.0157617 -0.0084000
v -0.0075558 0.0170920 -0.0084000
v -0.0068883 0.0117702 -0.0128000
v -0.0083425 0.0082595 -0.0128000
v -0.0121114 0.0102740 -0.0128000
v -0.0100003 0.0134336 -0.0128000
v -0.0121114 0.0102740 0.0128000
v -0.0098892 0.0135998 0.0128000
v -0.0083425 0.0082595 0.0128000
v -0.0068118 0.0119550 0.0128000
v -0.0128893 0.0091099 0.0100000
v -0.0164049 0.0119951 0.0100000
v -0.0088783 0.0069660 0.0100000
v -0.0092225 0.0145976 0.0100000
v -0.0064291 0.0128789 0.0100000
v -0.0063525 0.0130636 0.0100000
v -0.0164049 0.0119951 -0.0100000
v -0.0128893 0.0091099 -0.0100000
v -0.0093336 0.0144313 -0.0100000
v -0.0088783 0.0069660 -0.0100000
v -0.0064291 0.0128789 -0.0100000
v -0.0097202 0.0049335 0.0112000
v -0.0179605 0.0104395 -0.0112000
v -0.0083335 0.0159280 0.0100000
v -0.0057403 0.0145418 0.0100000
v -0.0058168 0.0143570 -0.0100000
v -0.0084447 0.0157617 -0.0100000
v -0.0141115 0.0072807 0.0112000
v -0.0141115 0.0072807 -0.0112000
v -0.0181019 0.0102981 0.0080000
v -0.0097967 0.0047487 -0.0080000
v -0.0060418 0.0021065 0.0003747
v -0.0052763 0.0018743 0.0011747
v -0.0052763 0.0018743 0.0040000
v -0.0095843 0.0031811 0.0003747
v -0.0000000 0.0014000 0.0078000
v -0.0000000 0.0000000 0.0040000
v -0.0000000 0.0013546 0.0040000
v -0.0000000 0.0013546 0.0011747
v -0.0007961 0.0000784 -0.0004253
v -0.0055406 0.0005457 0.0011747
v -0.0055406 0.0005457 -0.0012253
v -0.0047444 0.0004673 -0.0004253
v -0.0055406 0.0005457 0.0040000
v -0.0101026 0.0019296 0.0003747
v -0.0063061 0.0007779 0.0003747
v -0.0108682 0.0021618 -0.0040000
v -0.0055406 0.0005457 -0.0040000
v -0.0052674 0.0019188 0.0078000
v -0.0049943 0.0032919 0.0080000
v -0.0052818 0.0018465 -0.0012253
v -0.0052818 0.0018465 -0.0040000
v -0.0052674 0.0019188 -0.0078000
v -0.0049943 0.0032919 -0.0080000
v -0.0044857 0.0017681 -0.0004253
v -0.0007961 0.0014048 -0.0004253
v -0.0103324 0.0034553 -0.0078000
v -0.0103606 0.0033872 -0.0040000
v -0.0103606 0.0033872 -0.0012253
v -0.0057402 0.0145418 0.0084000
v -0.0029263 0.0136883 0.0084000
v -0.0026142 0.0152575 0.0084000
v -0.0032385 0.0121190 0.0067998
v -0.0052045 0.0158353 0.0067998
v -0.0026142 0.0152575 0.0067998
v -0.0064291 0.0128788 -0.0068000
v -0.0032775 0.0119228 -0.0068000
v -0.0026532 0.0150613 -0.0068000
v -0.0029654 0.0134921 -0.0084000
v -0.0026532 0.0150613 -0.0084000
v -0.0042530 0.0070189 -0.0128000
v -0.0035116 0.0107459 -0.0128000
v -0.0083425 0.0082594 -0.0128000
v -0.0083425 0.0082594 0.0128000
v -0.0042530 0.0070189 0.0128000
v -0.0034726 0.0109420 0.0128000
v -0.0045261 0.0056458 0.0100000
v -0.0088782 0.0069660 0.0100000
v -0.0064291 0.0128788 0.0100000
v -0.0032385 0.0121190 0.0100000
v -0.0064291 0.0128788 -0.0100000
v -0.0088782 0.0069660 -0.0100000
v -0.0045261 0.0056458 -0.0100000
v -0.0032775 0.0119228 -0.0100000
v 0.0000000 0.0030000 0.0112000
v -0.0097201 0.0049335 -0.0112000
v -0.0029263 0.0136883 0.0100000
v -0.0029654 0.0134921 -0.0100000
v -0.0049553 0.0034881 0.0112000
v -0.0057402 0.0145418 0.0100000
v -0.0049553 0.0034881 -0.0112000
f 1 2 3
f 4 1 5
f 5 1 3
f 5 3 6
f 7 8 9
f 7 9 10
f 10 9 11
f 10 11 12
f 13 14 11
f 15 16 17
f 9 18 15
f 9 15 11
f 11 15 17
f 11 17 13
f 19 20 21
f 16 15 22
f 23 24 16
f 23 16 21
f 21 16 22
f 21 22 19
f 2 15 18
f 2 18 3
f 3 18 25
f 3 25 26
f 27 16 24
f 27 24 28
f 28 24 29
f 28 29 30
f 31 27 28
f 31 28 32
f 32 28 33
f 32 33 34
f 35 36 23
f 35 23 37
f 37 23 21
f 37 21 38
f 39 40 41
f 39 41 42
f 42 41 43
f 42 43 44
f 45 46 47
f 45 47 48
f 47 49 50
f 47 50 48
f 48 50 51
f 52 53 54
f 52 54 55
f 55 54 56
f 55 56 57
f 58 59 60
f 58 60 61
f 61 60 62
f 61 62 63
f 64 65 66
f 64 66 67
f 67 66 68
f 67 68 69
f 70 71 72
f 70 72 73
f 73 72 74
f 73 74 75
f 76 77 78
f 76 78 79
f 78 80 81
f 78 81 79
f 79 81 82
f 82 81 83
f 84 85 86
f 84 86 87
f 87 86 88
f 87 88 89
f 74 90 7
f 35 68 91
f 17 31 32
f 17 32 13
f 22 1 4
f 22 4 19
f 43 41 92
f 43 92 93
f 51 50 42
f 51 42 44
f 83 81 45
f 83 45 48
f 88 86 76
f 88 76 79
f 56 54 87
f 56 87 89
f 58 61 55
f 58 55 57
f 94 95 60
f 94 60 59
f 64 67 95
f 64 95 94
f 8 25 18
f 8 18 9
f 7 26 25
f 7 25 8
f 90 96 26
f 90 26 7
f 74 72 96
f 74 96 90
f 93 92 73
f 93 73 75
f 40 97 92
f 40 92 41
f 97 70 73
f 97 73 92
f 23 36 29
f 23 29 24
f 36 35 30
f 36 30 29
f 35 91 98
f 35 98 30
f 91 68 66
f 91 66 98
f 69 99 95
f 69 95 67
f 99 62 60
f 99 60 95
f 63 52 55
f 63 55 61
f 53 84 87
f 53 87 54
f 85 77 76
f 85 76 86
f 80 46 45
f 80 45 81
f 49 39 42
f 49 42 50
f 26 96 72
f 72 71 100
f 72 100 26
f 26 100 6
f 26 6 3
f 22 15 2
f 22 2 1
f 66 30 98
f 30 66 65
f 30 65 101
f 28 30 101
f 28 101 33
f 20 19 4
f 20 4 5
f 17 16 27
f 17 27 31
f 14 13 32
f 14 32 34
f 102 103 104
f 105 102 106
f 106 102 104
f 106 104 107
f 108 109 110
f 108 110 111
f 111 110 112
f 111 112 113
f 114 115 112
f 116 117 118
f 110 119 116
f 110 116 112
f 112 116 118
f 112 118 114
f 120 11 14
f 117 116 121
f 122 123 117
f 122 117 14
f 14 117 121
f 14 121 120
f 103 116 119
f 103 119 104
f 104 119 124
f 104 124 125
f 126 117 123
f 126 123 127
f 127 123 128
f 127 128 129
f 130 126 127
f 130 127 131
f 131 127 132
f 131 132 133
f 101 134 122
f 101 122 33
f 33 122 14
f 33 14 34
f 44 43 135
f 44 135 136
f 136 135 137
f 136 137 138
f 139 140 141
f 139 141 142
f 141 51 143
f 141 143 142
f 142 143 144
f 57 145 146
f 57 146 147
f 147 146 148
f 147 148 149
f 150 151 152
f 150 152 153
f 153 152 154
f 153 154 58
f 155 156 157
f 155 157 158
f 158 157 159
f 158 159 64
f 75 160 161
f 75 161 162
f 162 161 163
f 162 163 164
f 165 79 166
f 165 166 167
f 166 168 169
f 166 169 167
f 167 169 170
f 170 169 171
f 172 88 173
f 172 173 174
f 174 173 175
f 174 175 176
f 163 177 108
f 101 159 178
f 118 130 131
f 118 131 114
f 121 102 105
f 121 105 120
f 137 135 179
f 137 179 180
f 144 143 136
f 144 136 138
f 171 169 139
f 171 139 142
f 175 173 165
f 175 165 167
f 148 146 174
f 148 174 176
f 150 153 147
f 150 147 149
f 181 182 152
f 181 152 151
f 155 158 182
f 155 182 181
f 109 124 119
f 109 119 110
f 108 125 124
f 108 124 109
f 177 183 125
f 177 125 108
f 163 161 183
f 163 183 177
f 180 179 162
f 180 162 164
f 43 93 179
f 43 179 135
f 93 75 162
f 93 162 179
f 122 134 128
f 122 128 123
f 134 101 129
f 134 129 128
f 101 178 184
f 101 184 129
f 178 159 157
f 178 157 184
f 64 185 182
f 64 182 158
f 185 154 152
f 185 152 182
f 58 57 147
f 58 147 153
f 145 172 174
f 145 174 146
f 88 79 165
f 88 165 173
f 168 140 139
f 168 139 169
f 51 44 136
f 51 136 143
f 125 183 161
f 161 160 7
f 161 7 125
f 125 7 107
f 125 107 104
f 121 116 103
f 121 103 102
f 157 129 184
f 129 157 156
f 129 156 186
f 127 129 186
f 127 186 132
f 11 120 105
f 11 105 106
f 118 117 126
f 118 126 130
f 115 114 131
f 115 131 133
f 187 188 189
f 190 187 191
f 191 187 189
f 191 189 192
f 193 194 195
f 193 195 196
f 196 195 197
f 196 197 198
f 199 200 197
f 201 202 203
f 195 204 201
f 195 201 197
f 197 201 203
f 197 203 199
f 205 112 115
f 202 201 206
f 207 208 202
f 207 202 115
f 115 202 206
f 115 206 205
f 188 201 204
f 188 204 189
f 189 204 209
f 189 209 210
f 211 202 208
f 211 208 212
f 212 208 213
f 212 213 214
f 215 211 212
f 215 212 216
f 216 212 217
f 216 217 218
f 186 219 207
f 186 207 132
f 132 207 115
f 132 115 133
f 138 137 220
f 138 220 221
f 221 220 222
f 221 222 223
f 224 142 225
f 224 225 226
f 225 144 227
f 225 227 226
f 226 227 228
f 229 148 230
f 229 230 231
f 231 230 232
f 231 232 233
f 234 235 236
f 234 236 237
f 237 236 151
f 237 151 238
f 239 240 241
f 239 241 242
f 242 241 156
f 242 156 155
f 164 163 243
f 164 243 244
f 244 243 245
f 244 245 246
f 247 167 170
f 247 170 248
f 170 171 249
f 170 249 248
f 248 249 250
f 250 249 251
f 176 175 252
f 176 252 253
f 253 252 254
f 253 254 255
f 245 256 193
f 186 156 257
f 203 215 216
f 203 216 199
f 206 187 190
f 206 190 205
f 222 220 258
f 222 258 259
f 228 227 221
f 228 221 223
f 251 249 224
f 251 224 226
f 254 252 247
f 254 247 248
f 232 230 253
f 232 253 255
f 234 237 231
f 234 231 233
f 260 261 236
f 260 236 235
f 239 242 261
f 239 261 260
f 194 209 204
f 194 204 195
f 193 210 209
f 193 209 194
f 256 262 210
f 256 210 193
f 245 243 262
f 245 262 256
f 259 258 244
f 259 244 246
f 137 180 258
f 137 258 220
f 180 164 244
f 180 244 258
f 207 219 213
f 207 213 208
f 219 186 214
f 219 214 213
f 186 257 263
f 186 263 214
f 257 156 241
f 257 241 263
f 155 181 261
f 155 261 242
f 181 151 236
f 181 236 261
f 238 229 231
f 238 231 237
f 148 176 253
f 148 253 230
f 175 167 247
f 175 247 252
f 171 142 224
f 171 224 249
f 144 138 221
f 144 221 227
f 210 262 243
f 243 163 108
f 243 108 210
f 210 108 192
f 210 192 189
f 206 201 188
f 206 188 187
f 241 214 263
f 214 241 240
f 214 240 264
f 212 214 264
f 212 264 217
f 112 205 190
f 112 190 191
f 203 202 211
f 203 211 215
f 200 199 216
f 200 216 218
f 265 266 267
f 268 265 198
f 198 265 267
f 198 267 196
f 269 270 271
f 269 271 272
f 272 271 273
f 272 273 274
f 275 276 273
f 277 278 279
f 271 280 277
f 271 277 273
f 273 277 279
f 273 279 275
f 281 197 200
f 278 277 282
f 283 284 278
f 283 278 200
f 200 278 282
f 200 282 281
f 266 277 280
f 266 280 267
f 267 280 285
f 267 285 286
f 287 278 284
f 287 284 288
f 288 284 289
f 288 289 290
f 291 287 288
f 291 288 292
f 292 288 293
f 292 293 294
f 264 295 283
f 264 283 217
f 217 283 200
f 217 200 218
f 223 222 296
f 223 296 297
f 297 296 298
f 297 298 299
f 300 226 301
f 300 301 302
f 301 228 303
f 301 303 302
f 302 303 304
f 233 305 306
f 233 306 307
f 307 306 308
f 307 308 309
f 310 311 312
f 310 312 313
f 313 312 235
f 313 235 234
f 314 315 316
f 314 316 317
f 317 316 240
f 317 240 239
f 318 245 319
f 318 319 320
f 320 319 321
f 320 321 322
f 323 248 324
f 323 324 325
f 324 251 326
f 324 326 325
f 325 326 327
f 327 326 328
f 329 254 330
f 329 330 331
f 331 330 332
f 331 332 333
f 321 334 269
f 264 240 335
f 279 291 292
f 279 292 275
f 282 265 268
f 282 268 281
f 298 296 336
f 298 336 337
f 304 303 297
f 304 297 299
f 328 326 300
f 328 300 302
f 332 330 323
f 332 323 325
f 308 306 331
f 308 331 333
f 310 313 307
f 310 307 309
f 338 339 312
f 338 312 311
f 314 317 339
f 314 339 338
f 270 285 280
f 270 280 271
f 269 286 285
f 269 285 270
f 334 340 286
f 334 286 269
f 321 319 340
f 321 340 334
f 337 336 320
f 337 320 322
f 222 259 336
f 222 336 296
f 259 318 320
f 259 320 336
f 283 295 289
f 283 289 284
f 295 264 290
f 295 290 289
f 264 335 341
f 264 341 290
f 335 240 316
f 335 316 341
f 239 260 339
f 239 339 317
f 260 235 312
f 260 312 339
f 234 233 307
f 234 307 313
f 305 329 331
f 305 331 306
f 254 248 323
f 254 323 330
f 251 226 300
f 251 300 326
f 228 223 297
f 228 297 303
f 286 340 319
f 319 245 193
f 319 193 286
f 286 193 196
f 286 196 267
f 282 277 266
f 282 266 265
f 316 290 341
f 290 316 315
f 290 315 342
f 288 290 342
f 288 342 293
f 197 281 268
f 197 268 198
f 279 278 287
f 279 287 291
f 276 275 292
f 276 292 294
f 343 344 345
f 346 343 274
f 274 343 345
f 274 345 272
f 347 348 349
f 347 349 350
f 350 349 351
f 350 351 352
f 353 354 351
f 355 356 357
f 349 358 355
f 349 355 351
f 351 355 357
f 351 357 353
f 359 273 276
f 356 355 360
f 361 362 356
f 361 356 276
f 276 356 360
f 276 360 359
f 344 355 358
f 344 358 345
f 345 358 363
f 345 363 364
f 365 356 362
f 365 362 366
f 366 362 367
f 366 367 368
f 369 365 366
f 369 366 370
f 370 366 371
f 370 371 372
f 342 373 361
f 342 361 293
f 293 361 276
f 293 276 294
f 299 298 374
f 299 374 375
f 375 374 376
f 375 376 377
f 378 302 379
f 378 379 380
f 379 304 381
f 379 381 380
f 380 381 382
f 309 308 383
f 309 383 384
f 384 383 385
f 384 385 386
f 387 388 389
f 387 389 390
f 390 389 311
f 390 311 310
f 391 392 393
f 391 393 394
f 394 393 315
f 394 315 314
f 322 321 395
f 322 395 396
f 396 395 397
f 396 397 398
f 399 325 327
f 399 327 400
f 327 328 401
f 327 401 400
f 400 401 402
f 402 401 403
f 333 332 404
f 333 404 405
f 405 404 406
f 405 406 407
f 397 408 347
f 342 315 409
f 357 369 370
f 357 370 353
f 360 343 346
f 360 346 359
f 376 374 410
f 376 410 411
f 382 381 375
f 382 375 377
f 403 401 378
f 403 378 380
f 406 404 399
f 406 399 400
f 385 383 405
f 385 405 407
f 387 390 384
f 387 384 386
f 412 413 389
f 412 389 388
f 391 394 413
f 391 413 412
f 348 363 358
f 348 358 349
f 347 364 363
f 347 363 348
f 408 414 364
f 408 364 347
f 397 395 414
f 397 414 408
f 411 410 396
f 411 396 398
f 298 337 410
f 298 410 374
f 337 322 396
f 337 396 410
f 361 373 367
f 361 367 362
f 373 342 368
f 373 368 367
f 342 409 415
f 342 415 368
f 409 315 393
f 409 393 415
f 314 338 413
f 314 413 394
f 338 311 389
f 338 389 413
f 310 309 384
f 310 384 390
f 308 333 405
f 308 405 383
f 332 325 399
f 332 399 404
f 328 302 378
f 328 378 401
f 304 299 375
f 304 375 381
f 364 414 395
f 395 321 269
f 395 269 364
f 364 269 272
f 364 272 345
f 360 355 344
f 360 344 343
f 393 368 415
f 368 393 392
f 368 392 416
f 366 368 416
f 366 416 371
f 273 359 346
f 273 346 274
f 357 356 365
f 357 365 369
f 354 353 370
f 354 370 372
f 417 418 419
f 420 417 352
f 352 417 419
f 352 419 350
f 421 422 423
f 421 423 424
f 424 423 425
f 424 425 426
f 427 428 425
f 429 430 431
f 423 432 429
f 423 429 425
f 425 429 431
f 425 431 427
f 433 351 354
f 430 429 434
f 435 436 430
f 435 430 354
f 354 430 434
f 354 434 433
f 418 429 432
f 418 432 419
f 419 432 437
f 419 437 438
f 439 430 436
f 439 436 440
f 440 436 441
f 440 441 442
f 443 439 440
f 443 440 444
f 444 440 445
f 444 445 446
f 416 447 435
f 416 435 371
f 371 435 354
f 371 354 372
f 377 376 448
f 377 448 449
f 449 448 450
f 449 450 451
f 452 380 453
f 452 453 454
f 453 382 455
f 453 455 454
f 454 455 456
f 386 385 457
f 386 457 458
f 458 457 459
f 458 459 460
f 461 462 463
f 461 463 464
f 464 463 388
f 464 388 387
f 465 466 467
f 465 467 468
f 468 467 392
f 468 392 391
f 469 397 470
f 469 470 471
f 471 470 472
f 471 472 473
f 474 400 402
f 474 402 475
f 402 403 476
f 402 476 475
f 475 476 477
f 477 476 478
f 407 406 479
f 407 479 480
f 480 479 481
f 480 481 482
f 472 483 421
f 416 392 484
f 431 443 444
f 431 444 427
f 434 417 420
f 434 420 433
f 450 448 485
f 450 485 486
f 456 455 449
f 456 449 451
f 478 476 452
f 478 452 454
f 481 479 474
f 481 474 475
f 459 457 480
f 459 480 482
f 461 464 458
f 461 458 460
f 487 488 463
f 487 463 462
f 465 468 488
f 465 488 487
f 422 437 432
f 422 432 423
f 421 438 437
f 421 437 422
f 483 489 438
f 483 438 421
f 472 470 489
f 472 489 483
f 486 485 471
f 486 471 473
f 376 411 485
f 376 485 448
f 411 469 471
f 411 471 485
f 435 447 441
f 435 441 436
f 447 416 442
f 447 442 441
f 416 484 490
f 416 490 442
f 484 392 467
f 484 467 490
f 391 412 488
f 391 488 468
f 412 388 463
f 412 463 488
f 387 386 458
f 387 458 464
f 385 407 480
f 385 480 457
f 406 400 474
f 406 474 479
f 403 380 452
f 403 452 476
f 382 377 449
f 382 449 455
f 438 489 470
f 470 397 347
f 470 347 438
f 438 347 350
f 438 350 419
f 434 429 418
f 434 418 417
f 467 442 490
f 442 467 466
f 442 466 491
f 440 442 491
f 440 491 445
f 351 433 420
f 351 420 352
f 431 430 439
f 431 439 443
f 428 427 444
f 428 444 446
f 492 493 494
f 495 492 426
f 426 492 494
f 426 494 424
f 496 497 498
f 496 498 499
f 499 498 500
f 499 500 501
f 502 503 500
f 504 505 506
f 498 507 504
f 498 504 500
f 500 504 506
f 500 506 502
f 508 509 510
f 505 504 511
f 512 513 505
f 512 505 510
f 510 505 511
f 510 511 508
f 493 504 507
f 493 507 494
f 494 507 514
f 494 514 515
f 516 505 513
f 516 513 517
f 517 513 518
f 517 518 519
f 520 516 517
f 520 517 521
f 521 517 522
f 521 522 523
f 524 525 512
f 524 512 445
f 445 512 510
f 445 510 446
f 526 450 527
f 526 527 528
f 528 527 529
f 528 529 530
f 531 454 532
f 531 532 533
f 532 534 535
f 532 535 533
f 533 535 536
f 460 459 537
f 460 537 538
f 538 537 539
f 538 539 540
f 541 542 543
f 541 543 544
f 544 543 545
f 544 545 461
f 546 547 548
f 546 548 549
f 549 548 550
f 549 550 465
f 473 551 552
f 473 552 553
f 553 552 554
f 553 554 555
f 556 475 477
f 556 477 557
f 477 478 558
f 477 558 557
f 557 558 559
f 559 558 560
f 482 481 561
f 482 561 562
f 562 561 563
f 562 563 564
f 554 565 496
f 524 550 566
f 506 520 521
f 506 521 502
f 511 492 495
f 511 495 508
f 529 527 567
f 529 567 568
f 536 535 528
f 536 528 530
f 560 558 531
f 560 531 533
f 563 561 556
f 563 556 557
f 539 537 562
f 539 562 564
f 541 544 538
f 541 538 540
f 569 570 543
f 569 543 542
f 546 549 570
f 546 570 569
f 497 514 507
f 497 507 498
f 496 515 514
f 496 514 497
f 565 571 515
f 565 515 496
f 554 552 571
f 554 571 565
f 568 567 553
f 568 553 555
f 450 486 567
f 450 567 527
f 486 473 553
f 486 553 567
f 512 525 518
f 512 518 513
f 525 524 519
f 525 519 518
f 524 566 572
f 524 572 519
f 566 550 548
f 566 548 572
f 465 573 570
f 465 570 549
f 573 545 543
f 573 543 570
f 461 460 538
f 461 538 544
f 459 482 562
f 459 562 537
f 481 475 556
f 481 556 561
f 478 454 531
f 478 531 558
f 534 526 528
f 534 528 535
f 515 571 552
f 552 551 574
f 552 574 515
f 515 574 424
f 515 424 494
f 511 504 493
f 511 493 492
f 548 519 572
f 519 548 547
f 519 547 575
f 517 519 575
f 517 575 522
f 509 508 495
f 509 495 426
f 506 505 516
f 506 516 520
f 503 502 521
f 503 521 523
f 576 577 578
f 579 576 501
f 501 576 578
f 501 578 499
f 580 581 582
f 580 582 583
f 583 582 584
f 583 584 585
f 586 587 584
f 588 589 590
f 582 591 588
f 582 588 584
f 584 588 590
f 584 590 586
f 592 500 503
f 589 588 593
f 594 595 589
f 594 589 503
f 503 589 593
f 503 593 592
f 577 588 591
f 577 591 578
f 578 591 596
f 578 596 597
f 598 589 595
f 598 595 599
f 599 595 600
f 599 600 601
f 602 598 599
f 602 599 603
f 603 599 604
f 603 604 605
f 606 607 594
f 606 594 608
f 608 594 503
f 608 503 609
f 530 610 611
f 530 611 612
f 612 611 613
f 612 613 614
f 615 533 616
f 615 616 617
f 616 536 618
f 616 618 617
f 617 618 619
f 540 539 620
f 540 620 621
f 621 620 622
f 621 622 623
f 624 625 626
f 624 626 627
f 627 626 542
f 627 542 541
f 628 629 630
f 628 630 631
f 631 630 547
f 631 547 546
f 555 554 632
f 555 632 633
f 633 632 634
f 633 634 635
f 636 637 559
f 636 559 638
f 559 560 639
f 559 639 638
f 638 639 640
f 640 639 641
f 564 642 643
f 564 643 644
f 644 643 645
f 644 645 646
f 634 647 580
f 606 547 648
f 590 602 603
f 590 603 586
f 593 576 579
f 593 579 592
f 613 611 649
f 613 649 650
f 619 618 612
f 619 612 614
f 641 639 615
f 641 615 617
f 645 643 636
f 645 636 638
f 622 620 644
f 622 644 646
f 624 627 621
f 624 621 623
f 651 652 626
f 651 626 625
f 628 631 652
f 628 652 651
f 581 596 591
f 581 591 582
f 580 597 596
f 580 596 581
f 647 653 597
f 647 597 580
f 634 632 653
f 634 653 647
f 650 649 633
f 650 633 635
f 610 654 649
f 610 649 611
f 654 555 633
f 654 633 649
f 594 607 600
f 594 600 595
f 607 606 601
f 607 601 600
f 606 648 655
f 606 655 601
f 648 547 630
f 648 630 655
f 546 569 652
f 546 652 631
f 569 542 626
f 569 626 652
f 541 540 621
f 541 621 627
f 539 564 644
f 539 644 620
f 642 637 636
f 642 636 643
f 560 533 615
f 560 615 639
f 536 530 612
f 536 612 618
f 597 653 632
f 632 554 656
f 632 656 597
f 597 656 499
f 597 499 578
f 593 588 577
f 593 577 576
f 630 601 655
f 601 630 629
f 601 629 657
f 599 601 657
f 599 657 604
f 500 592 579
f 500 579 501
f 590 589 598
f 590 598 602
f 587 586 603
f 587 603 605
f 658 659 660
f 661 658 585
f 585 658 660
f 585 660 583
f 662 663 664
f 662 664 665
f 665 664 666
f 665 666 667
f 668 669 666
f 670 671 672
f 664 673 670
f 664 670 666
f 666 670 672
f 666 672 668
f 674 584 587
f 671 670 675
f 676 677 671
f 676 671 587
f 587 671 675
f 587 675 674
f 659 670 673
f 659 673 660
f 660 673 678
f 660 678 679
f 680 671 677
f 680 677 681
f 681 677 682
f 681 682 683
f 684 680 681
f 684 681 685
f 685 681 686
f 685 686 687
f 657 688 676
f 657 676 604
f 604 676 587
f 604 587 605
f 614 613 689
f 614 689 690
f 690 689 691
f 690 691 692
f 693 617 694
f 693 694 695
f 694 619 696
f 694 696 695
f 695 696 697
f 623 622 698
f 623 698 699
f 699 698 700
f 699 700 701
f 702 703 704
f 702 704 705
f 705 704 625
f 705 625 624
f 706 707 708
f 706 708 709
f 709 708 629
f 709 629 628
f 635 634 710
f 635 710 711
f 711 710 712
f 711 712 713
f 714 638 640
f 714 640 715
f 640 641 716
f 640 716 715
f 715 716 717
f 717 716 718
f 646 645 719
f 646 719 720
f 720 719 721
f 720 721 722
f 712 723 662
f 657 629 724
f 672 684 685
f 672 685 668
f 675 658 661
f 675 661 674
f 691 689 725
f 691 725 726
f 697 696 690
f 697 690 692
f 718 716 693
f 718 693 695
f 721 719 714
f 721 714 715
f 700 698 720
f 700 720 722
f 702 705 699
f 702 699 701
f 727 728 704
f 727 704 703
f 706 709 728
f 706 728 727
f 663 678 673
f 663 673 664
f 662 679 678
f 662 678 663
f 723 729 679
f 723 679 662
f 712 710 729
f 712 729 723
f 726 725 711
f 726 711 713
f 613 650 725
f 613 725 689
f 650 635 711
f 650 711 725
f 676 688 682
f 676 682 677
f 688 657 683
f 688 683 682
f 657 724 730
f 657 730 683
f 724 629 708
f 724 708 730
f 628 651 728
f 628 728 709
f 651 625 704
f 651 704 728
f 624 623 699
f 624 699 705
f 622 646 720
f 622 720 698
f 645 638 714
f 645 714 719
f 641 617 693
f 641 693 716
f 619 614 690
f 619 690 696
f 679 729 710
f 710 634 580
f 710 580 679
f 679 580 583
f 679 583 660
f 675 670 659
f 675 659 658
f 708 683 730
f 683 708 707
f 683 707 731
f 681 683 731
f 681 731 686
f 584 674 661
f 584 661 585
f 672 671 680
f 672 680 684
f 669 668 685
f 669 685 687
f 732 733 734
f 735 732 667
f 667 732 734
f 667 734 665
f 736 737 738
f 736 738 739
f 739 738 740
f 739 740 741
f 742 743 740
f 744 745 746
f 738 747 744
f 738 744 740
f 740 744 746
f 740 746 742
f 748 666 669
f 745 744 749
f 750 751 745
f 750 745 669
f 669 745 749
f 669 749 748
f 733 744 747
f 733 747 734
f 734 747 752
f 734 752 753
f 754 745 751
f 754 751 755
f 755 751 756
f 755 756 757
f 758 754 755
f 758 755 759
f 759 755 760
f 759 760 761
f 762 763 750
f 762 750 686
f 686 750 669
f 686 669 687
f 692 691 764
f 692 764 765
f 765 764 766
f 765 766 767
f 768 769 770
f 768 770 771
f 770 697 772
f 770 772 771
f 771 772 773
f 701 700 774
f 701 774 775
f 775 774 776
f 775 776 777
f 778 779 780
f 778 780 781
f 781 780 703
f 781 703 702
f 782 783 784
f 782 784 785
f 785 784 707
f 785 707 706
f 713 712 786
f 713 786 787
f 787 786 788
f 787 788 789
f 790 715 717
f 790 717 791
f 717 792 793
f 717 793 791
f 791 793 794
f 794 793 795
f 722 721 796
f 722 796 797
f 797 796 798
f 797 798 799
f 788 800 736
f 762 707 801
f 746 758 759
f 746 759 742
f 749 732 735
f 749 735 748
f 766 764 802
f 766 802 803
f 773 772 765
f 773 765 767
f 795 793 768
f 795 768 771
f 798 796 790
f 798 790 791
f 776 774 797
f 776 797 799
f 778 781 775
f 778 775 777
f 804 805 780
f 804 780 779
f 782 785 805
f 782 805 804
f 737 752 747
f 737 747 738
f 736 753 752
f 736 752 737
f 800 806 753
f 800 753 736
f 788 786 806
f 788 806 800
f 803 802 787
f 803 787 789
f 691 726 802
f 691 802 764
f 726 713 787
f 726 787 802
f 750 763 756
f 750 756 751
f 763 762 757
f 763 757 756
f 762 801 807
f 762 807 757
f 801 707 784
f 801 784 807
f 706 727 805
f 706 805 785
f 727 703 780
f 727 780 805
f 702 701 775
f 702 775 781
f 700 722 797
f 700 797 774
f 721 715 790
f 721 790 796
f 792 769 768
f 792 768 793
f 697 692 765
f 697 765 772
f 753 806 786
f 786 712 808
f 786 808 753
f 753 808 665
f 753 665 734
f 749 744 733
f 749 733 732
f 784 757 807
f 757 784 783
f 757 783 809
f 755 757 809
f 755 809 760
f 666 748 735
f 666 735 667
f 746 745 754
f 746 754 758
f 743 742 759
f 743 759 761
f 810 811 812
f 813 810 741
f 741 810 812
f 741 812 739
f 814 815 816
f 814 816 817
f 817 816 818
f 817 818 819
f 820 821 818
f 822 823 824
f 816 825 822
f 816 822 818
f 818 822 824
f 818 824 820
f 826 740 743
f 823 822 827
f 828 829 823
f 828 823 743
f 743 823 827
f 743 827 826
f 811 822 825
f 811 825 812
f 812 825 830
f 812 830 831
f 832 823 829
f 832 829 833
f 833 829 834
f 833 834 835
f 836 832 833
f 836 833 837
f 837 833 838
f 837 838 839
f 809 840 828
f 809 828 760
f 760 828 743
f 760 743 761
f 767 766 841
f 767 841 842
f 842 841 843
f 842 843 844
f 845 771 846
f 845 846 847
f 846 773 848
f 846 848 847
f 847 848 849
f 850 776 851
f 850 851 852
f 852 851 853
f 852 853 854
f 855 856 857
f 855 857 858
f 858 857 779
f 858 779 859
f 860 861 862
f 860 862 863
f 863 862 783
f 863 783 864
f 789 788 865
f 789 865 866
f 866 865 867
f 866 867 868
f 869 791 794
f 869 794 870
f 794 795 871
f 794 871 870
f 870 871 872
f 872 871 873
f 799 798 874
f 799 874 875
f 875 874 876
f 875 876 877
f 867 878 814
f 809 783 879
f 824 836 837
f 824 837 820
f 827 810 813
f 827 813 826
f 843 841 880
f 843 880 881
f 849 848 842
f 849 842 844
f 873 871 845
f 873 845 847
f 876 874 869
f 876 869 870
f 853 851 875
f 853 875 877
f 855 858 852
f 855 852 854
f 882 883 857
f 882 857 856
f 860 863 883
f 860 883 882
f 815 830 825
f 815 825 816
f 814 831 830
f 814 830 815
f 878 884 831
f 878 831 814
f 867 865 884
f 867 884 878
f 881 880 866
f 881 866 868
f 766 803 880
f 766 880 841
f 803 789 866
f 803 866 880
f 828 840 834
f 828 834 829
f 840 809 835
f 840 835 834
f 809 879 885
f 809 885 835
f 879 783 862
f 879 862 885
f 864 804 883
f 864 883 863
f 804 779 857
f 804 857 883
f 859 850 852
f 859 852 858
f 776 799 875
f 776 875 851
f 798 791 869
f 798 869 874
f 795 771 845
f 795 845 871
f 773 767 842
f 773 842 848
f 831 884 865
f 865 788 736
f 865 736 831
f 831 736 739
f 831 739 812
f 827 822 811
f 827 811 810
f 862 835 885
f 835 862 861
f 835 861 886
f 833 835 886
f 833 886 838
f 740 826 813
f 740 813 741
f 824 823 832
f 824 832 836
f 821 820 837
f 821 837 839
f 887 888 889
f 890 887 891
f 891 887 889
f 891 889 892
f 893 894 895
f 893 895 896
f 896 895 897
f 896 897 898
f 899 900 897
f 901 902 903
f 895 904 901
f 895 901 897
f 897 901 903
f 897 903 899
f 905 906 907
f 902 901 908
f 909 910 902
f 909 902 907
f 907 902 908
f 907 908 905
f 888 901 904
f 888 904 889
f 889 904 911
f 889 911 912
f 913 902 910
f 913 910 914
f 914 910 915
f 914 915 916
f 917 913 914
f 917 914 918
f 918 914 919
f 918 919 920
f 886 921 909
f 886 909 838
f 838 909 907
f 838 907 839
f 844 843 922
f 844 922 923
f 923 922 924
f 923 924 925
f 926 847 927
f 926 927 928
f 927 849 929
f 927 929 928
f 928 929 930
f 854 853 931
f 854 931 932
f 932 931 933
f 932 933 934
f 935 936 937
f 935 937 938
f 938 937 856
f 938 856 855
f 939 940 941
f 939 941 942
f 942 941 861
f 942 861 860
f 943 867 944
f 943 944 945
f 945 944 946
f 945 946 947
f 948 870 872
f 948 872 949
f 872 873 950
f 872 950 949
f 949 950 951
f 951 950 952
f 877 876 953
f 877 953 954
f 954 953 955
f 954 955 956
f 946 957 893
f 886 861 958
f 903 917 918
f 903 918 899
f 908 887 890
f 908 890 905
f 924 922 959
f 924 959 960
f 930 929 923
f 930 923 925
f 952 950 926
f 952 926 928
f 955 953 948
f 955 948 949
f 933 931 954
f 933 954 956
f 935 938 932
f 935 932 934
f 961 962 937
f 961 937 936
f 939 942 962
f 939 962 961
f 894 911 904
f 894 904 895
f 893 912 911
f 893 911 894
f 957 963 912
f 957 912 893
f 946 944 963
f 946 963 957
f 960 959 945
f 960 945 947
f 843 881 959
f 843 959 922
f 881 943 945
f 881 945 959
f 909 921 915
f 909 915 910
f 921 886 916
f 921 916 915
f 886 958 964
f 886 964 916
f 958 861 941
f 958 941 964
f 860 882 962
f 860 962 942
f 882 856 937
f 882 937 962
f 855 854 932
f 855 932 938
f 853 877 954
f 853 954 931
f 876 870 948
f 876 948 953
f 873 847 926
f 873 926 950
f 849 844 923
f 849 923 929
f 912 963 944
f 944 867 814
f 944 814 912
f 912 814 892
f 912 892 889
f 908 901 888
f 908 888 887
f 941 916 964
f 916 941 940
f 916 940 965
f 914 916 965
f 914 965 919
f 906 905 890
f 906 890 891
f 903 902 913
f 903 913 917
f 900 899 918
f 900 918 920
f 966 967 968
f 969 966 898
f 898 966 968
f 898 968 896
f 970 971 972
f 970 972 973
f 973 972 974
f 973 974 975
f 976 977 974
f 978 979 980
f 972 981 978
f 972 978 974
f 974 978 980
f 974 980 976
f 982 897 900
f 979 978 983
f 984 985 979
f 984 979 900
f 900 979 983
f 900 983 982
f 967 978 981
f 967 981 968
f 968 981 986
f 968 986 987
f 988 979 985
f 988 985 989
f 989 985 990
f 989 990 991
f 992 988 989
f 992 989 993
f 993 989 994
f 993 994 995
f 965 996 984
f 965 984 919
f 919 984 900
f 919 900 920
f 925 924 997
f 925 997 998
f 998 997 999
f 998 999 1000
f 1001 928 1002
f 1001 1002 1003
f 1002 930 1004
f 1002 1004 1003
f 1003 1004 1005
f 934 933 1006
f 934 1006 1007
f 1007 1006 1008
f 1007 1008 1009
f 1010 1011 1012
f 1010 1012 1013
f 1013 1012 936
f 1013 936 935
f 1014 1015 1016
f 1014 1016 1017
f 1017 1016 940
f 1017 940 939
f 947 946 1018
f 947 1018 1019
f 1019 1018 1020
f 1019 1020 1021
f 1022 949 951
f 1022 951 1023
f 951 952 1024
f 951 1024 1023
f 1023 1024 1025
f 1025 1024 1026
f 956 955 1027
f 956 1027 1028
f 1028 1027 1029
f 1028 1029 1030
f 1020 1031 970
f 965 940 1032
f 980 992 993
f 980 993 976
f 983 966 969
f 983 969 982
f 999 997 1033
f 999 1033 1034
f 1005 1004 998
f 1005 998 1000
f 1026 1024 1001
f 1026 1001 1003
f 1029 1027 1022
f 1029 1022 1023
f 1008 1006 1028
f 1008 1028 1030
f 1010 1013 1007
f 1010 1007 1009
f 1035 1036 1012
f 1035 1012 1011
f 1014 1017 1036
f 1014 1036 1035
f 971 986 981
f 971 981 972
f 970 987 986
f 970 986 971
f 1031 1037 987
f 1031 987 970
f 1020 1018 1037
f 1020 1037 1031
f 1034 1033 1019
f 1034 1019 1021
f 924 960 1033
f 924 1033 997
f 960 947 1019
f 960 1019 1033
f 984 996 990
f 984 990 985
f 996 965 991
f 996 991 990
f 965 1032 1038
f 965 1038 991
f 1032 940 1016
f 1032 1016 1038
f 939 961 1036
f 939 1036 1017
f 961 936 1012
f 961 1012 1036
f 935 934 1007
f 935 1007 1013
f 933 956 1028
f 933 1028 1006
f 955 949 1022
f 955 1022 1027
f 952 928 1001
f 952 1001 1024
f 930 925 998
f 930 998 1004
f 987 1037 1018
f 1018 946 893
f 1018 893 987
f 987 893 896
f 987 896 968
f 983 978 967
f 983 967 966
f 1016 991 1038
f 991 1016 1015
f 991 1015 1039
f 989 991 1039
f 989 1039 994
f 897 982 969
f 897 969 898
f 980 979 988
f 980 988 992
f 977 976 993
f 977 993 995
f 1040 1041 1042
f 1043 1040 975
f 975 1040 1042
f 975 1042 973
f 1044 1045 1046
f 1044 1046 1047
f 1047 1046 1048
f 1047 1048 1049
f 1050 1051 1048
f 1052 1053 1054
f 1046 1055 1052
f 1046 1052 1048
f 1048 1052 1054
f 1048 1054 1050
f 1056 974 977
f 1053 1052 1057
f 1058 1059 1053
f 1058 1053 977
f 977 1053 1057
f 977 1057 1056
f 1041 1052 1055
f 1041 1055 1042
f 1042 1055 1060
f 1042 1060 1061
f 1062 1053 1059
f 1062 1059 1063
f 1063 1059 1064
f 1063 1064 1065
f 1066 1062 1063
f 1066 1063 1067
f 1067 1063 1068
f 1067 1068 1069
f 1039 1070 1058
f 1039 1058 994
f 994 1058 977
f 994 977 995
f 1000 999 1071
f 1000 1071 1072
f 1072 1071 1073
f 1072 1073 1074
f 1075 1003 1076
f 1075 1076 1077
f 1076 1005 1078
f 1076 1078 1077
f 1077 1078 1079
f 1009 1008 1080
f 1009 1080 1081
f 1081 1080 1082
f 1081 1082 1083
f 1084 1085 1086
f 1084 1086 1087
f 1087 1086 1011
f 1087 1011 1010
f 1088 1089 1090
f 1088 1090 1091
f 1091 1090 1015
f 1091 1015 1014
f 1092 1020 1093
f 1092 1093 1094
f 1094 1093 1095
f 1094 1095 1096
f 1097 1023 1025
f 1097 1025 1098
f 1025 1026 1099
f 1025 1099 1098
f 1098 1099 1100
f 1100 1099 1101
f 1030 1029 1102
f 1030 1102 1103
f 1103 1102 1104
f 1103 1104 1105
f 1095 1106 1044
f 1039 1015 1107
f 1054 1066 1067
f 1054 1067 1050
f 1057 1040 1043
f 1057 1043 1056
f 1073 1071 1108
f 1073 1108 1109
f 1079 1078 1072
f 1079 1072 1074
f 1101 1099 1075
f 1101 1075 1077
f 1104 1102 1097
f 1104 1097 1098
f 1082 1080 1103
f 1082 1103 1105
f 1084 1087 1081
f 1084 1081 1083
f 1110 1111 1086
f 1110 1086 1085
f 1088 1091 1111
f 1088 1111 1110
f 1045 1060 1055
f 1045 1055 1046
f 1044 1061 1060
f 1044 1060 1045
f 1106 1112 1061
f 1106 1061 1044
f 1095 1093 1112
f 1095 1112 1106
f 1109 1108 1094
f 1109 1094 1096
f 999 1034 1108
f 999 1108 1071
f 1034 1092 1094
f 1034 1094 1108
f 1058 1070 1064
f 1058 1064 1059
f 1070 1039 1065
f 1070 1065 1064
f 1039 1107 1113
f 1039 1113 1065
f 1107 1015 1090
f 1107 1090 1113
f 1014 1035 1111
f 1014 1111 1091
f 1035 1011 1086
f 1035 1086 1111
f 1010 1009 1081
f 1010 1081 1087
f 1008 1030 1103
f 1008 1103 1080
f 1029 1023 1097
f 1029 1097 1102
f 1026 1003 1075
f 1026 1075 1099
f 1005 1000 1072
f 1005 1072 1078
f 1061 1112 1093
f 1093 1020 970
f 1093 970 1061
f 1061 970 973
f 1061 973 1042
f 1057 1052 1041
f 1057 1041 1040
f 1090 1065 1113
f 1065 1090 1089
f 1065 1089 1114
f 1063 1065 1114
f 1063 1114 1068
f 974 1056 1043
f 974 1043 975
f 1054 1053 1062
f 1054 1062 1066
f 1051 1050 1067
f 1051 1067 1069
f 1115 1116 1117
f 1118 1115 1049
f 1049 1115 1117
f 1049 1117 1047
f 1119 1120 1121
f 1119 1121 1122
f 1122 1121 1123
f 1122 1123 1124
f 1125 1126 1123
f 1127 1128 1129
f 1121 1130 1127
f 1121 1127 1123
f 1123 1127 1129
f 1123 1129 1125
f 1131 1132 1133
f 1128 1127 1134
f 1135 1136 1128
f 1135 1128 1133
f 1133 1128 1134
f 1133 1134 1131
f 1116 1127 1130
f 1116 1130 1117
f 1117 1130 1137
f 1117 1137 1138
f 1139 1128 1136
f 1139 1136 1140
f 1140 1136 1141
f 1140 1141 1142
f 1143 1139 1140
f 1143 1140 1144
f 1144 1140 1145
f 1144 1145 1146
f 1147 1148 1135
f 1147 1135 1068
f 1068 1135 1133
f 1068 1133 1069
f 1149 1073 1150
f 1149 1150 1151
f 1151 1150 1152
f 1151 1152 1153
f 1154 1077 1155
f 1154 1155 1156
f 1155 1157 1158
f 1155 1158 1156
f 1156 1158 1159
f 1083 1082 1160
f 1083 1160 1161
f 1161 1160 1162
f 1161 1162 1163
f 1164 1165 1166
f 1164 1166 1167
f 1167 1166 1085
f 1167 1085 1084
f 1168 1169 1170
f 1168 1170 1171
f 1171 1170 1089
f 1171 1089 1088
f 1096 1095 1172
f 1096 1172 1173
f 1173 1172 1174
f 1173 1174 1175
f 1176 1177 1100
f 1176 1100 1178
f 1100 1101 1179
f 1100 1179 1178
f 1178 1179 1180
f 1180 1179 1181
f 1105 1182 1183
f 1105 1183 1184
f 1184 1183 1185
f 1184 1185 1186
f 1174 1187 1119
f 1147 1089 1188
f 1129 1143 1144
f 1129 1144 1125
f 1134 1115 1118
f 1134 1118 1131
f 1152 1150 1189
f 1152 1189 1190
f 1159 1158 1151
f 1159 1151 1153
f 1181 1179 1154
f 1181 1154 1156
f 1185 1183 1176
f 1185 1176 1178
f 1162 1160 1184
f 1162 1184 1186
f 1164 1167 1161
f 1164 1161 1163
f 1191 1192 1166
f 1191 1166 1165
f 1168 1171 1192
f 1168 1192 1191
f 1120 1137 1130
f 1120 1130 1121
f 1119 1138 1137
f 1119 1137 1120
f 1187 1193 1138
f 1187 1138 1119
f 1174 1172 1193
f 1174 1193 1187
f 1190 1189 1173
f 1190 1173 1175
f 1073 1109 1189
f 1073 1189 1150
f 1109 1096 1173
f 1109 1173 1189
f 1135 1148 1141
f 1135 1141 1136
f 1148 1147 1142
f 1148 1142 1141
f 1147 1188 1194
f 1147 1194 1142
f 1188 1089 1170
f 1188 1170 1194
f 1088 1110 1192
f 1088 1192 1171
f 1110 1085 1166
f 1110 1166 1192
f 1084 1083 1161
f 1084 1161 1167
f 1082 1105 1184
f 1082 1184 1160
f 1182 1177 1176
f 1182 1176 1183
f 1101 1077 1154
f 1101 1154 1179
f 1157 1149 1151
f 1157 1151 1158
f 1138 1193 1172
f 1172 1095 1195
f 1172 1195 1138
f 1138 1195 1047
f 1138 1047 1117
f 1134 1127 1116
f 1134 1116 1115
f 1170 1142 1194
f 1142 1170 1169
f 1142 1169 1196
f 1140 1142 1196
f 1140 1196 1145
f 1132 1131 1118
f 1132 1118 1049
f 1129 1128 1139
f 1129 1139 1143
f 1126 1125 1144
f 1126 1144 1146
f 1197 1198 1199
f 1200 1197 1124
f 1124 1197 1199
f 1124 1199 1122
f 100 1201 1202
f 100 1202 1203
f 1203 1202 20
f 1203 20 1204
f 1205 21 20
f 1206 1207 1208
f 1202 1209 1206
f 1202 1206 20
f 20 1206 1208
f 20 1208 1205
f 1210 1123 1126
f 1207 1206 1211
f 1212 1213 1207
f 1212 1207 1126
f 1126 1207 1211
f 1126 1211 1210
f 1198 1206 1209
f 1198 1209 1199
f 1199 1209 1214
f 1199 1214 1215
f 1216 1207 1213
f 1216 1213 1217
f 1217 1213 1218
f 1217 1218 1219
f 1220 1216 1217
f 1220 1217 1221
f 1221 1217 37
f 1221 37 38
f 1196 1222 1212
f 1196 1212 1223
f 1223 1212 1126
f 1223 1126 1224
f 1153 1225 1226
f 1153 1226 1227
f 1227 1226 40
f 1227 40 39
f 1228 1156 1229
f 1228 1229 46
f 1229 1159 1230
f 1229 1230 46
f 46 1230 49
f 1163 1231 1232
f 1163 1232 1233
f 1233 1232 53
f 1233 53 52
f 63 62 1234
f 63 1234 1235
f 1235 1234 1165
f 1235 1165 1164
f 69 68 1236
f 69 1236 1237
f 1237 1236 1238
f 1237 1238 1168
f 1175 1239 1240
f 1175 1240 1241
f 1241 1240 71
f 1241 71 70
f 1242 1243 1244
f 1242 1244 77
f 1244 1181 1245
f 1244 1245 77
f 77 1245 78
f 78 1245 80
f 1246 1247 1248
f 1246 1248 1249
f 1249 1248 85
f 1249 85 84
f 71 1250 100
f 1196 1238 1251
f 1208 1220 1221
f 1208 1221 1205
f 1211 1197 1200
f 1211 1200 1210
f 40 1226 1252
f 40 1252 97
f 49 1230 1227
f 49 1227 39
f 80 1245 1228
f 80 1228 46
f 85 1248 1242
f 85 1242 77
f 53 1232 1249
f 53 1249 84
f 63 1235 1233
f 63 1233 52
f 99 1253 1234
f 99 1234 62
f 69 1237 1253
f 69 1253 99
f 1201 1214 1209
f 1201 1209 1202
f 100 1215 1214
f 100 1214 1201
f 1250 1254 1215
f 1250 1215 100
f 71 1240 1254
f 71 1254 1250
f 97 1252 1241
f 97 1241 70
f 1225 1255 1252
f 1225 1252 1226
f 1255 1175 1241
f 1255 1241 1252
f 1212 1222 1218
f 1212 1218 1213
f 1222 1196 1219
f 1222 1219 1218
f 1196 1251 1256
f 1196 1256 1219
f 1251 1238 1236
f 1251 1236 1256
f 1168 1191 1253
f 1168 1253 1237
f 1191 1165 1234
f 1191 1234 1253
f 1164 1163 1233
f 1164 1233 1235
f 1231 1246 1249
f 1231 1249 1232
f 1247 1243 1242
f 1247 1242 1248
f 1181 1156 1228
f 1181 1228 1245
f 1159 1153 1227
f 1159 1227 1230
f 1215 1254 1240
f 1240 1239 1119
f 1240 1119 1215
f 1215 1119 1122
f 1215 1122 1199
f 1211 1206 1198
f 1211 1198 1197
f 1236 1219 1256
f 1219 1236 68
f 1219 68 35
f 1217 1219 35
f 1217 35 37
f 1123 1210 1200
f 1123 1200 1124
f 1208 1207 1216
f 1208 1216 1220
f 21 1205 1221
f 21 1221 38
