# Botball Lab: metres, +Y up, centred XZ, base Y=0
s off
v 0.0212657 0.0012191 -0.0006520
v 0.0207000 0.0009591 -0.0008000
v 0.0207000 0.0024000 -0.0008000
v 0.0215000 0.0020463 -0.0006528
v 0.0215000 0.0024568 -0.0007432
v 0.0215000 0.0019134 -0.0000000
v 0.0212657 0.0010894 -0.0000000
v 0.0207000 0.0008000 -0.0000000
v 0.0215000 0.0032000 -0.0000000
v 0.0207000 0.0024000 -0.0022409
v 0.0212657 0.0025480 -0.0019809
v 0.0215000 0.0025472 -0.0011537
v 0.0215000 0.0032000 -0.0012866
v 0.0212657 0.0032000 -0.0021106
v 0.0207000 0.0032000 -0.0024000
v 0.0212657 0.0025480 0.0019809
v 0.0207000 0.0024000 0.0022409
v 0.0207000 0.0024000 0.0008000
v 0.0215000 0.0025472 0.0011537
v 0.0215000 0.0024568 0.0007432
v 0.0215000 0.0032000 0.0013124
v 0.0212657 0.0032000 0.0021106
v 0.0207000 0.0032000 0.0024000
v 0.0207000 0.0009591 0.0008000
v 0.0212657 0.0012191 0.0006520
v 0.0215000 0.0020463 0.0006528
v 0.0212657 0.0051809 0.0006520
v 0.0207000 0.0054409 0.0008000
v 0.0207000 0.0040000 0.0008000
v 0.0215000 0.0043537 0.0006528
v 0.0215000 0.0039432 0.0007432
v 0.0215000 0.0044866 -0.0000000
v 0.0212657 0.0053106 -0.0000000
v 0.0207000 0.0056000 -0.0000000
v 0.0207000 0.0040000 0.0022409
v 0.0212657 0.0038520 0.0019809
v 0.0215000 0.0038528 0.0011537
v 0.0212657 0.0038520 -0.0019809
v 0.0207000 0.0040000 -0.0022409
v 0.0207000 0.0040000 -0.0008000
v 0.0215000 0.0038528 -0.0011537
v 0.0215000 0.0039432 -0.0007432
v 0.0207000 0.0054409 -0.0008000
v 0.0212657 0.0051809 -0.0006520
v 0.0215000 0.0043537 -0.0006528
v -0.0103000 0.0024000 -0.0008000
v -0.0103000 0.0024000 -0.0022409
v -0.0103000 0.0009591 -0.0008000
v -0.0103000 0.0040000 -0.0008000
v -0.0103000 0.0040000 -0.0022409
v -0.0103000 0.0054409 -0.0008000
v -0.0103000 0.0040000 0.0008000
v -0.0103000 0.0040000 0.0022409
v -0.0103000 0.0054409 0.0008000
v -0.0103000 0.0024000 0.0008000
v -0.0103000 0.0024000 0.0022409
v -0.0103000 0.0009591 0.0008000
v -0.0103000 0.0008000 -0.0000000
v -0.0103000 0.0032000 -0.0024000
v -0.0103000 0.0056000 -0.0000000
v -0.0103000 0.0032000 0.0024000
v -0.0103000 0.0009827 -0.0009184
v -0.0103000 0.0022816 -0.0022173
v -0.0103000 0.0054173 -0.0009184
v -0.0103000 0.0041184 -0.0022173
v -0.0103000 0.0009827 0.0009184
v -0.0103000 0.0022816 0.0022173
v -0.0103000 0.0054173 0.0009184
v -0.0103000 0.0041184 0.0022173
v -0.0103000 0.0015029 -0.0016971
v -0.0103000 0.0048971 -0.0016971
v -0.0103000 0.0048971 0.0016971
v -0.0103000 0.0015029 0.0016971
v -0.0135000 0.0009827 -0.0009184
v -0.0135000 0.0015029 -0.0016971
v -0.0135000 0.0022816 -0.0022173
v -0.0135000 0.0022816 0.0022173
v -0.0135000 0.0015029 0.0016971
v -0.0135000 0.0009827 0.0009184
v -0.0135000 0.0054173 0.0009184
v -0.0135000 0.0048971 0.0016971
v -0.0135000 0.0041184 0.0022173
v -0.0135000 0.0041184 -0.0022173
v -0.0135000 0.0048971 -0.0016971
v -0.0135000 0.0054173 -0.0009184
v -0.0135000 0.0040000 0.0022409
v -0.0135000 0.0032000 0.0024000
v -0.0135000 0.0024000 0.0022409
v -0.0135000 0.0009591 0.0008000
v -0.0135000 0.0008000 -0.0000000
v -0.0135000 0.0009591 -0.0008000
v -0.0135000 0.0024000 -0.0022409
v -0.0135000 0.0032000 -0.0024000
v -0.0135000 0.0040000 -0.0022409
v -0.0135000 0.0054409 -0.0008000
v -0.0135000 0.0056000 -0.0000000
v -0.0135000 0.0054409 0.0008000
v -0.0135000 0.0032000 -0.0000000
v -0.0135000 0.0000000 -0.0000000
v -0.0135000 0.0002435 -0.0012246
v -0.0135000 0.0009373 -0.0022627
v -0.0135000 0.0019754 -0.0029565
v -0.0135000 0.0032000 -0.0032000
v -0.0135000 0.0044246 -0.0029565
v -0.0135000 0.0054627 -0.0022627
v -0.0135000 0.0061565 -0.0012246
v -0.0135000 0.0064000 -0.0000000
v -0.0135000 0.0061565 0.0012246
v -0.0135000 0.0054627 0.0022627
v -0.0135000 0.0044246 0.0029565
v -0.0135000 0.0032000 0.0032000
v -0.0135000 0.0019754 0.0029565
v -0.0135000 0.0009373 0.0022627
v -0.0135000 0.0002435 0.0012246
v -0.0143000 0.0002435 -0.0012246
v -0.0143000 0.0000000 -0.0000000
v -0.0143000 0.0032000 -0.0000000
v -0.0143000 0.0009373 -0.0022627
v -0.0143000 0.0019754 -0.0029565
v -0.0143000 0.0032000 -0.0032000
v -0.0143000 0.0044246 -0.0029565
v -0.0143000 0.0054627 -0.0022627
v -0.0143000 0.0061565 -0.0012246
v -0.0143000 0.0064000 -0.0000000
v -0.0143000 0.0061565 0.0012246
v -0.0143000 0.0054627 0.0022627
v -0.0143000 0.0044246 0.0029565
v -0.0143000 0.0032000 0.0032000
v -0.0143000 0.0019754 0.0029565
v -0.0143000 0.0009373 0.0022627
v -0.0143000 0.0002435 0.0012246
v -0.0143000 0.0024000 -0.0022409
v -0.0143000 0.0024000 -0.0008000
v -0.0215000 0.0024000 -0.0008000
v -0.0215000 0.0024000 -0.0022409
v -0.0143000 0.0009591 -0.0008000
v -0.0215000 0.0009591 -0.0008000
v -0.0215000 0.0040000 -0.0008000
v -0.0143000 0.0040000 -0.0008000
v -0.0143000 0.0040000 -0.0022409
v -0.0215000 0.0040000 -0.0022409
v -0.0143000 0.0054409 -0.0008000
v -0.0215000 0.0054409 -0.0008000
v -0.0143000 0.0040000 0.0022409
v -0.0143000 0.0040000 0.0008000
v -0.0215000 0.0040000 0.0008000
v -0.0215000 0.0040000 0.0022409
v -0.0143000 0.0054409 0.0008000
v -0.0215000 0.0054409 0.0008000
v -0.0215000 0.0024000 0.0008000
v -0.0143000 0.0024000 0.0008000
v -0.0143000 0.0024000 0.0022409
v -0.0215000 0.0024000 0.0022409
v -0.0143000 0.0009591 0.0008000
v -0.0215000 0.0009591 0.0008000
v -0.0215000 0.0008000 -0.0000000
v -0.0143000 0.0008000 -0.0000000
v -0.0215000 0.0032000 -0.0024000
v -0.0143000 0.0032000 -0.0024000
v -0.0215000 0.0056000 -0.0000000
v -0.0143000 0.0056000 -0.0000000
v -0.0215000 0.0032000 0.0024000
v -0.0143000 0.0032000 0.0024000
v -0.0215000 0.0009592 -0.0008000
v -0.0215000 0.0032000 -0.0000000
v -0.0215000 0.0054408 -0.0008000
v -0.0215000 0.0009592 0.0008000
v -0.0215000 0.0054408 0.0008000
v -0.0215000 0.0024000 -0.0022408
v -0.0215000 0.0040000 -0.0022408
v -0.0215000 0.0024000 0.0022408
v -0.0215000 0.0040000 0.0022408
vn 0.2097792 -0.0220155 -0.9775009
vn 0.0023655 0.0 -0.9999972
vn 0.0078008 -0.0023079 -0.9999669
vn 0.1377076 -0.0986883 -0.9855441
vn 0.084307 -0.2143003 -0.9731226
vn 0.8786409 -0.4682123 -0.0936343
vn 0.996055 -0.0869539 -0.0177025
vn 0.9875217 -0.1574831 -0.0
vn 0.700976 -0.7131848 -0.0
vn 0.0081741 -0.9807595 -0.1950489
vn 0.0091678 -0.999958 0.0
vn 1.0 0.0 0.0
vn 0.0023655 -0.9999972 0.0
vn 0.2097792 -0.9775009 -0.0220155
vn 0.0078008 -0.9999669 -0.0023079
vn 0.1377076 -0.9855441 -0.0986883
vn 0.084307 -0.9731226 -0.2143003
vn 0.9875217 0.0 -0.1574831
vn 0.996055 -0.0177025 -0.0869539
vn 0.8786409 -0.0936343 -0.4682123
vn 0.700976 0.0 -0.7131848
vn 0.0081741 -0.1950489 -0.9807595
vn 0.0091678 0.0 -0.999958
vn 0.2097792 -0.9775009 0.0220155
vn 0.0078008 -0.9999669 0.0023079
vn 0.1377076 -0.9855441 0.0986883
vn 0.084307 -0.9731226 0.2143003
vn 0.8755751 -0.0988034 0.4728701
vn 0.9960641 -0.0209382 0.0861277
vn 0.9875217 -0.0 0.1574831
vn 0.6946303 0.0 0.7193669
vn 0.0081741 -0.1950489 0.9807595
vn 0.0091678 0.0 0.999958
vn 0.0023655 0.0 0.9999972
vn 0.2097792 -0.0220155 0.9775009
vn 0.0078008 -0.0023079 0.9999669
vn 0.1377076 -0.0986883 0.9855441
vn 0.084307 -0.2143003 0.9731226
vn 0.996055 -0.0869539 0.0177025
vn 0.8786409 -0.4682123 0.0936343
vn 0.0081741 -0.9807595 0.1950489
vn 0.2097792 0.0220155 0.9775009
vn 0.0078008 0.0023079 0.9999669
vn 0.1377076 0.0986883 0.9855441
vn 0.084307 0.2143003 0.9731226
vn 0.8786409 0.4682123 0.0936343
vn 0.996055 0.0869539 0.0177025
vn 0.9875217 0.1574831 0.0
vn 0.700976 0.7131848 -0.0
vn 0.0081741 0.9807595 0.1950489
vn 0.0091678 0.999958 0.0
vn 0.0023655 0.9999972 0.0
vn 0.2097792 0.9775009 0.0220155
vn 0.0078008 0.9999669 0.0023079
vn 0.1377076 0.9855441 0.0986883
vn 0.084307 0.9731226 0.2143003
vn 0.9960641 0.0209382 0.0861277
vn 0.8755751 0.0988034 0.4728701
vn 0.0081741 0.1950489 0.9807595
vn 0.2097792 0.9775009 -0.0220155
vn 0.0078008 0.9999669 -0.0023079
vn 0.1377076 0.9855441 -0.0986883
vn 0.084307 0.9731226 -0.2143003
vn 0.8786409 0.0936343 -0.4682123
vn 0.996055 0.0177025 -0.0869539
vn 0.0081741 0.1950489 -0.9807595
vn 0.2097792 0.0220155 -0.9775009
vn 0.0078008 0.0023079 -0.9999669
vn 0.1377076 0.0986883 -0.9855441
vn 0.084307 0.2143003 -0.9731226
vn 0.996055 0.0869539 -0.0177025
vn 0.8786409 0.4682123 -0.0936343
vn 0.0081741 0.9807595 -0.1950489
vn 0.0 -1.0 0.0
vn 0.0 0.0 -1.0
vn 0.0 1.0 0.0
vn 0.0 0.0 1.0
vn 0.0 -0.9807902 -0.1950655
vn 0.0 0.0047634 -0.9999887
vn 0.0 -0.1950604 -0.9807912
vn 0.0 0.1950665 -0.98079
vn 0.0 0.9999887 0.0047634
vn 0.0 0.9807912 -0.1950604
vn 0.0 0.98079 0.1950665
vn 0.0 -0.0047634 0.9999887
vn 0.0 -0.1950665 0.98079
vn 0.0 0.1950604 0.9807912
vn 0.0 -0.9807912 0.1950604
vn 0.0 -0.8551543 -0.5183735
vn 0.0 -0.6587507 -0.7523613
vn 0.0 -0.7523613 -0.6587507
vn 0.0 -0.5183735 -0.8551543
vn 0.0 -0.5183735 0.8551543
vn 0.0 -0.7523613 0.6587507
vn 0.0 -0.6587507 0.7523613
vn 0.0 -0.8551543 0.5183735
vn 0.0 0.8551543 0.5183735
vn 0.0 0.6587507 0.7523613
vn 0.0 0.7523613 0.6587507
vn 0.0 0.5183735 0.8551543
vn 0.0 0.5183735 -0.8551543
vn 0.0 0.7523613 -0.6587507
vn 0.0 0.6587507 -0.7523613
vn 0.0 0.8551543 -0.5183735
vn 0.0 0.1951519 0.980773
vn 0.0 0.0661465 0.9978099
vn 0.0 -0.1950843 0.9807865
vn 0.0 -0.980773 0.1951519
vn 0.0 -0.9807814 -0.1951097
vn 0.0 -0.1951519 -0.980773
vn 0.0 -0.0661465 -0.9978099
vn 0.0 0.1950843 -0.9807865
vn 0.0 0.980773 -0.1951519
vn 0.0 0.9978099 -0.0661465
vn 0.0 0.9807865 0.1950843
vn -1.0 0.0 0.0
vn 0.0 -0.9471761 -0.3207139
vn 0.0 -0.8965142 -0.4430151
vn 0.0 -0.9978107 -0.066135
vn 0.0 -0.9978107 0.066135
vn 0.0 -0.7523142 -0.6588045
vn 0.0 -0.6588045 -0.7523142
vn 0.0 -0.4430151 -0.8965142
vn 0.0 -0.3207139 -0.9471761
vn 0.0 -0.066135 -0.9978107
vn 0.0 0.066135 -0.9978107
vn 0.0 0.3207139 -0.9471761
vn 0.0 0.4430151 -0.8965142
vn 0.0 0.6588045 -0.7523142
vn 0.0 0.7523142 -0.6588045
vn 0.0 0.8965142 -0.4430151
vn 0.0 0.9471761 -0.3207139
vn 0.0 0.9978107 -0.066135
vn 0.0 0.9978107 0.066135
vn 0.0 0.9471761 0.3207139
vn 0.0 0.8965142 0.4430151
vn 0.0 0.7523142 0.6588045
vn 0.0 0.6588045 0.7523142
vn 0.0 0.4430151 0.8965142
vn 0.0 0.3207139 0.9471761
vn 0.0 0.066135 0.9978107
vn 0.0 -0.066135 0.9978107
vn 0.0 -0.3207139 0.9471761
vn 0.0 -0.4430151 0.8965142
vn 0.0 -0.6588045 0.7523142
vn 0.0 -0.7523142 0.6588045
vn 0.0 -0.8965142 0.4430151
vn 0.0 -0.9471761 0.3207139
vn 0.0 -0.9807923 -0.1950551
vn 0.0 -0.1950551 -0.9807923
vn 0.0 0.1950551 -0.9807923
vn 0.0 0.9807923 -0.1950551
vn 0.0 0.9807923 0.1950551
vn 0.0 -0.1950551 0.9807923
vn 0.0 0.1950551 0.9807923
vn 0.0 -0.9807923 0.1950551
f 1//1 2//2 3//3
f 1//1 3//3 4//4
f 4//4 3//3 5//5
f 1//6 4//7 6//8
f 1//6 6//8 7//9
f 2//10 1//6 7//9
f 2//10 7//9 8//11
f 9//12 6//8 4//7
f 9//12 4//7 5//12
f 10//13 11//14 3//15
f 3//15 11//14 12//16
f 3//15 12//16 5//17
f 13//18 12//19 11//20
f 13//18 11//20 14//21
f 14//21 11//20 10//22
f 14//21 10//22 15//23
f 12//19 13//18 9//12
f 12//19 9//12 5//12
f 16//24 17//13 18//25
f 16//24 18//25 19//26
f 19//26 18//25 20//27
f 16//28 19//29 21//30
f 16//28 21//30 22//31
f 17//32 16//28 22//31
f 17//32 22//31 23//33
f 9//12 21//30 19//29
f 9//12 19//29 20//12
f 24//34 25//35 18//36
f 18//36 25//35 26//37
f 18//36 26//37 20//38
f 6//8 26//39 25//40
f 6//8 25//40 7//9
f 7//9 25//40 24//41
f 7//9 24//41 8//11
f 26//39 6//8 9//12
f 26//39 9//12 20//12
f 27//42 28//34 29//43
f 27//42 29//43 30//44
f 30//44 29//43 31//45
f 27//46 30//47 32//48
f 27//46 32//48 33//49
f 28//50 27//46 33//49
f 28//50 33//49 34//51
f 9//12 32//48 30//47
f 9//12 30//47 31//12
f 35//52 36//53 29//54
f 29//54 36//53 37//55
f 29//54 37//55 31//56
f 21//30 37//57 36//58
f 21//30 36//58 22//31
f 22//31 36//58 35//59
f 22//31 35//59 23//33
f 37//57 21//30 9//12
f 37//57 9//12 31//12
f 38//60 39//52 40//61
f 38//60 40//61 41//62
f 41//62 40//61 42//63
f 38//64 41//65 13//18
f 38//64 13//18 14//21
f 39//66 38//64 14//21
f 39//66 14//21 15//23
f 9//12 13//18 41//65
f 9//12 41//65 42//12
f 43//2 44//67 40//68
f 40//68 44//67 45//69
f 40//68 45//69 42//70
f 32//48 45//71 44//72
f 32//48 44//72 33//49
f 33//49 44//72 43//73
f 33//49 43//73 34//51
f 45//71 32//48 9//12
f 45//71 9//12 42//12
f 10//13 3//15 46//74
f 47//74 10//13 46//74
f 46//75 3//3 2//2
f 48//75 46//75 2//2
f 49//76 40//61 39//52
f 49//76 39//52 50//76
f 43//2 40//68 49//75
f 43//2 49//75 51//75
f 35//52 29//54 52//76
f 53//76 35//52 52//76
f 52//77 29//43 28//34
f 54//77 52//77 28//34
f 55//74 18//25 17//13
f 55//74 17//13 56//74
f 24//34 18//36 55//77
f 24//34 55//77 57//77
f 58//74 48//78 2//10
f 8//11 58//74 2//10
f 59//79 15//23 10//22
f 47//80 59//79 10//22
f 59//79 50//81 39//66
f 15//23 59//79 39//66
f 60//82 34//51 43//73
f 51//83 60//82 43//73
f 60//82 54//84 28//50
f 34//51 60//82 28//50
f 61//85 56//86 17//32
f 23//33 61//85 17//32
f 61//85 23//33 35//59
f 53//87 61//85 35//59
f 58//74 8//11 24//41
f 57//88 58//74 24//41
f 62//12 46//12 48//12
f 47//12 46//12 63//12
f 49//12 64//12 51//12
f 49//12 50//12 65//12
f 55//12 66//12 57//12
f 55//12 56//12 67//12
f 68//12 52//12 54//12
f 53//12 52//12 69//12
f 63//12 46//12 62//12
f 62//12 70//12 63//12
f 64//12 49//12 65//12
f 65//12 71//12 64//12
f 69//12 52//12 68//12
f 68//12 72//12 69//12
f 66//12 55//12 67//12
f 67//12 73//12 66//12
f 74//89 75//90 70//91
f 62//89 74//89 70//91
f 75//90 76//92 63//92
f 70//91 75//90 63//92
f 77//93 78//94 73//95
f 67//93 77//93 73//95
f 78//94 79//96 66//96
f 73//95 78//94 66//96
f 80//97 81//98 72//99
f 68//97 80//97 72//99
f 81//98 82//100 69//100
f 72//99 81//98 69//100
f 83//101 84//102 71//103
f 65//101 83//101 71//103
f 84//102 85//104 64//104
f 71//103 84//102 64//104
f 69//100 82//100 86//105
f 53//87 69//100 86//105
f 53//87 86//105 87//106
f 61//85 53//87 87//106
f 61//85 87//106 88//107
f 56//86 61//85 88//107
f 56//86 88//107 77//93
f 67//93 56//86 77//93
f 66//96 79//96 89//108
f 57//88 66//96 89//108
f 57//88 89//108 90//74
f 58//74 57//88 90//74
f 90//74 91//109 48//78
f 58//74 90//74 48//78
f 48//78 91//109 74//89
f 62//89 48//78 74//89
f 63//92 76//92 92//110
f 47//80 63//92 92//110
f 47//80 92//110 93//111
f 59//79 47//80 93//111
f 59//79 93//111 94//112
f 50//81 59//79 94//112
f 50//81 94//112 83//101
f 65//101 50//81 83//101
f 64//104 85//104 95//113
f 51//83 64//104 95//113
f 51//83 95//113 96//114
f 60//82 51//83 96//114
f 60//82 96//114 97//115
f 54//84 60//82 97//115
f 54//84 97//115 80//97
f 68//97 54//84 80//97
f 98//12 99//12 100//12
f 98//12 100//12 101//12
f 98//12 101//12 102//12
f 98//12 102//12 103//12
f 98//12 103//12 104//12
f 98//12 104//12 105//12
f 98//12 105//12 106//12
f 98//12 106//12 107//12
f 98//12 107//12 108//12
f 98//12 108//12 109//12
f 98//12 109//12 110//12
f 98//12 110//12 111//12
f 98//12 111//12 112//12
f 98//12 112//12 113//12
f 98//12 113//12 114//12
f 98//12 114//12 99//12
f 115//116 116//116 117//116
f 118//116 115//116 117//116
f 119//116 118//116 117//116
f 120//116 119//116 117//116
f 121//116 120//116 117//116
f 122//116 121//116 117//116
f 123//116 122//116 117//116
f 124//116 123//116 117//116
f 125//116 124//116 117//116
f 126//116 125//116 117//116
f 127//116 126//116 117//116
f 128//116 127//116 117//116
f 129//116 128//116 117//116
f 130//116 129//116 117//116
f 131//116 130//116 117//116
f 116//116 131//116 117//116
f 115//117 100//118 99//119
f 116//120 115//117 99//119
f 118//121 101//122 100//118
f 115//117 118//121 100//118
f 119//123 102//124 101//122
f 118//121 119//123 101//122
f 120//125 103//126 102//124
f 119//123 120//125 102//124
f 121//127 104//128 103//126
f 120//125 121//127 103//126
f 122//129 105//130 104//128
f 121//127 122//129 104//128
f 123//131 106//132 105//130
f 122//129 123//131 105//130
f 124//133 107//134 106//132
f 123//131 124//133 106//132
f 125//135 108//136 107//134
f 124//133 125//135 107//134
f 126//137 109//138 108//136
f 125//135 126//137 108//136
f 127//139 110//140 109//138
f 126//137 127//139 109//138
f 128//141 111//142 110//140
f 127//139 128//141 110//140
f 129//143 112//144 111//142
f 128//141 129//143 111//142
f 130//145 113//146 112//144
f 129//143 130//145 112//144
f 131//147 114//148 113//146
f 130//145 131//147 113//146
f 116//120 99//119 114//148
f 131//147 116//120 114//148
f 132//74 133//74 134//74
f 135//74 132//74 134//74
f 134//75 133//75 136//75
f 137//75 134//75 136//75
f 138//76 139//76 140//76
f 138//76 140//76 141//76
f 142//75 139//75 138//75
f 142//75 138//75 143//75
f 144//76 145//76 146//76
f 147//76 144//76 146//76
f 146//77 145//77 148//77
f 149//77 146//77 148//77
f 150//74 151//74 152//74
f 150//74 152//74 153//74
f 154//77 151//77 150//77
f 154//77 150//77 155//77
f 156//74 137//149 136//149
f 157//74 156//74 136//149
f 158//75 159//75 132//150
f 135//150 158//75 132//150
f 158//75 141//151 140//151
f 159//75 158//75 140//151
f 160//76 161//76 142//152
f 143//152 160//76 142//152
f 160//76 149//153 148//153
f 161//76 160//76 148//153
f 162//77 153//154 152//154
f 163//77 162//77 152//154
f 162//77 163//77 144//155
f 147//155 162//77 144//155
f 156//74 157//74 154//156
f 155//156 156//74 154//156
f 134//116 164//116 156//116
f 165//116 134//116 156//116
f 138//116 165//116 160//116
f 166//116 138//116 160//116
f 150//116 165//116 156//116
f 167//116 150//116 156//116
f 146//116 168//116 160//116
f 165//116 146//116 160//116
f 134//116 165//116 158//116
f 169//116 134//116 158//116
f 138//116 170//116 158//116
f 165//116 138//116 158//116
f 150//116 171//116 162//116
f 165//116 150//116 162//116
f 146//116 165//116 162//116
f 172//116 146//116 162//116
