# Botball Lab: metres, +Y up, centred XZ, base Y=0
s off
v 0.0036000 0.0080000 0.0240000
v 0.0033260 0.0080000 0.0253777
v 0.0033260 0.0000000 0.0253777
v 0.0036000 0.0000000 0.0240000
v 0.0025456 0.0080000 0.0265456
v 0.0025456 0.0000000 0.0265456
v 0.0013777 0.0080000 0.0273260
v 0.0013777 0.0000000 0.0273260
v 0.0000000 0.0080000 0.0276000
v 0.0000000 0.0000000 0.0276000
v -0.0013777 0.0080000 0.0273260
v -0.0013777 0.0000000 0.0273260
v -0.0025456 0.0080000 0.0265456
v -0.0025456 0.0000000 0.0265456
v -0.0033260 0.0080000 0.0253777
v -0.0033260 0.0000000 0.0253777
v -0.0036000 0.0080000 0.0240000
v -0.0036000 0.0000000 0.0240000
v 0.0036000 0.0080000 -0.0240000
v 0.0036000 0.0000000 -0.0240000
v -0.0036000 0.0080000 -0.0240000
v -0.0036000 0.0000000 -0.0240000
v -0.0033260 0.0080000 -0.0253777
v -0.0033260 0.0000000 -0.0253777
v -0.0025456 0.0080000 -0.0265456
v -0.0025456 0.0000000 -0.0265456
v -0.0013777 0.0080000 -0.0273260
v -0.0013777 0.0000000 -0.0273260
v 0.0000000 0.0080000 -0.0276000
v 0.0000000 0.0000000 -0.0276000
v 0.0013777 0.0080000 -0.0273260
v 0.0013777 0.0000000 -0.0273260
v 0.0025456 0.0080000 -0.0265456
v 0.0025456 0.0000000 -0.0265456
v 0.0033260 0.0080000 -0.0253777
v 0.0033260 0.0000000 -0.0253777
v 0.0022174 0.0072000 -0.0249185
v 0.0022174 0.0008000 -0.0249185
v 0.0024000 0.0008000 -0.0240000
v 0.0024000 0.0072000 -0.0240000
v 0.0016970 0.0072000 -0.0256970
v 0.0016970 0.0008000 -0.0256970
v 0.0009185 0.0072000 -0.0262174
v 0.0009185 0.0008000 -0.0262174
v 0.0000000 0.0072000 -0.0264000
v 0.0000000 0.0008000 -0.0264000
v -0.0009185 0.0072000 -0.0262174
v -0.0009185 0.0008000 -0.0262174
v -0.0016970 0.0072000 -0.0256970
v -0.0016970 0.0008000 -0.0256970
v -0.0022174 0.0072000 -0.0249185
v -0.0022174 0.0008000 -0.0249185
v -0.0024000 0.0072000 -0.0240000
v -0.0024000 0.0008000 -0.0240000
v -0.0022174 0.0072000 -0.0230815
v -0.0022174 0.0008000 -0.0230815
v -0.0016970 0.0072000 -0.0223030
v -0.0016970 0.0008000 -0.0223030
v -0.0009185 0.0072000 -0.0217826
v -0.0009185 0.0008000 -0.0217826
v 0.0000000 0.0072000 -0.0216000
v 0.0000000 0.0008000 -0.0216000
v 0.0009185 0.0072000 -0.0217826
v 0.0009185 0.0008000 -0.0217826
v 0.0016970 0.0072000 -0.0223030
v 0.0016970 0.0008000 -0.0223030
v 0.0022174 0.0072000 -0.0230815
v 0.0022174 0.0008000 -0.0230815
v 0.0029565 0.0080000 -0.0252246
v 0.0032000 0.0080000 -0.0240000
v 0.0022627 0.0080000 -0.0262627
v 0.0012246 0.0080000 -0.0269565
v 0.0000000 0.0080000 -0.0272000
v -0.0012246 0.0080000 -0.0269565
v -0.0022627 0.0080000 -0.0262627
v -0.0029565 0.0080000 -0.0252246
v -0.0032000 0.0080000 -0.0240000
v -0.0033260 0.0080000 -0.0226223
v -0.0029565 0.0080000 -0.0227754
v -0.0025456 0.0080000 -0.0214544
v -0.0022627 0.0080000 -0.0217373
v -0.0013777 0.0080000 -0.0206740
v -0.0012246 0.0080000 -0.0210435
v 0.0000000 0.0080000 -0.0204000
v 0.0000000 0.0080000 -0.0208000
v 0.0013777 0.0080000 -0.0206740
v 0.0012246 0.0080000 -0.0210435
v 0.0025456 0.0080000 -0.0214544
v 0.0022627 0.0080000 -0.0217373
v 0.0033260 0.0080000 -0.0226223
v 0.0029565 0.0080000 -0.0227754
v -0.0029565 0.0000000 -0.0252246
v -0.0032000 0.0000000 -0.0240000
v -0.0022627 0.0000000 -0.0262627
v -0.0012246 0.0000000 -0.0269565
v 0.0000000 0.0000000 -0.0272000
v 0.0012246 0.0000000 -0.0269565
v 0.0022627 0.0000000 -0.0262627
v 0.0029565 0.0000000 -0.0252246
v 0.0032000 0.0000000 -0.0240000
v 0.0033260 0.0000000 -0.0226223
v 0.0029565 0.0000000 -0.0227754
v 0.0025456 0.0000000 -0.0214544
v 0.0022627 0.0000000 -0.0217373
v 0.0013777 0.0000000 -0.0206740
v 0.0012246 0.0000000 -0.0210435
v 0.0000000 0.0000000 -0.0204000
v 0.0000000 0.0000000 -0.0208000
v -0.0013777 0.0000000 -0.0206740
v -0.0012246 0.0000000 -0.0210435
v -0.0025456 0.0000000 -0.0214544
v -0.0022627 0.0000000 -0.0217373
v -0.0033260 0.0000000 -0.0226223
v -0.0029565 0.0000000 -0.0227754
v -0.0012246 0.0072000 -0.0269565
v 0.0000000 0.0072000 -0.0272000
v -0.0022627 0.0072000 -0.0262627
v -0.0029565 0.0072000 -0.0252246
v -0.0032000 0.0072000 -0.0240000
v -0.0029565 0.0072000 -0.0227754
v -0.0022627 0.0072000 -0.0217373
v -0.0012246 0.0072000 -0.0210435
v 0.0000000 0.0072000 -0.0208000
v 0.0012246 0.0072000 -0.0210435
v 0.0022627 0.0072000 -0.0217373
v 0.0029565 0.0072000 -0.0227754
v 0.0032000 0.0072000 -0.0240000
v 0.0029565 0.0072000 -0.0252246
v 0.0022627 0.0072000 -0.0262627
v 0.0012246 0.0072000 -0.0269565
v -0.0012246 0.0008000 -0.0269565
v 0.0000000 0.0008000 -0.0272000
v -0.0022627 0.0008000 -0.0262627
v -0.0029565 0.0008000 -0.0252246
v -0.0032000 0.0008000 -0.0240000
v -0.0029565 0.0008000 -0.0227754
v -0.0022627 0.0008000 -0.0217373
v -0.0012246 0.0008000 -0.0210435
v 0.0000000 0.0008000 -0.0208000
v 0.0012246 0.0008000 -0.0210435
v 0.0022627 0.0008000 -0.0217373
v 0.0029565 0.0008000 -0.0227754
v 0.0032000 0.0008000 -0.0240000
v 0.0029565 0.0008000 -0.0252246
v 0.0022627 0.0008000 -0.0262627
v 0.0012246 0.0008000 -0.0269565
v 0.0029565 0.0000000 -0.0172246
v 0.0033260 0.0000000 -0.0173777
v 0.0036000 0.0000000 -0.0160000
v 0.0032000 0.0000000 -0.0160000
v 0.0022627 0.0000000 -0.0182627
v 0.0025456 0.0000000 -0.0185456
v 0.0012246 0.0000000 -0.0189565
v 0.0013777 0.0000000 -0.0193260
v 0.0000000 0.0000000 -0.0192000
v 0.0000000 0.0000000 -0.0196000
v -0.0012246 0.0000000 -0.0189565
v -0.0013777 0.0000000 -0.0193260
v -0.0022627 0.0000000 -0.0182627
v -0.0025456 0.0000000 -0.0185456
v -0.0029565 0.0000000 -0.0172246
v -0.0033260 0.0000000 -0.0173777
v -0.0032000 0.0000000 -0.0160000
v -0.0036000 0.0000000 -0.0160000
v -0.0029565 0.0000000 -0.0147754
v -0.0033260 0.0000000 -0.0146223
v -0.0022627 0.0000000 -0.0137373
v -0.0025456 0.0000000 -0.0134544
v -0.0012246 0.0000000 -0.0130435
v -0.0013777 0.0000000 -0.0126740
v 0.0000000 0.0000000 -0.0128000
v 0.0000000 0.0000000 -0.0124000
v 0.0012246 0.0000000 -0.0130435
v 0.0013777 0.0000000 -0.0126740
v 0.0022627 0.0000000 -0.0137373
v 0.0025456 0.0000000 -0.0134544
v 0.0029565 0.0000000 -0.0147754
v 0.0033260 0.0000000 -0.0146223
v 0.0013777 0.0032000 -0.0206740
v 0.0000000 0.0032000 -0.0204000
v 0.0025456 0.0000000 -0.0206128
v 0.0025456 0.0000000 -0.0200000
v 0.0025456 0.0032000 -0.0200000
v 0.0025456 0.0032000 -0.0206128
v 0.0024818 0.0000000 -0.0208531
v 0.0024818 0.0032000 -0.0208531
v 0.0022721 0.0000000 -0.0209920
v 0.0022721 0.0032000 -0.0209920
v 0.0020393 0.0000000 -0.0209481
v 0.0020393 0.0032000 -0.0209481
v 0.0013777 0.0000000 -0.0206739
v -0.0013777 0.0032000 -0.0206740
v -0.0025456 0.0032000 -0.0200000
v -0.0025456 0.0000000 -0.0200000
v -0.0025456 0.0000000 -0.0206128
v -0.0025456 0.0032000 -0.0206128
v -0.0020393 0.0032000 -0.0209481
v -0.0024818 0.0000000 -0.0208531
v -0.0024818 0.0032000 -0.0208531
v -0.0022721 0.0000000 -0.0209920
v -0.0022721 0.0032000 -0.0209920
v -0.0020393 0.0000000 -0.0209481
v -0.0013777 0.0000000 -0.0206739
v 0.0036000 0.0000000 -0.0204000
v -0.0036000 0.0000000 -0.0204000
v 0.0036000 0.0000000 -0.0200000
v -0.0036000 0.0000000 -0.0200000
v 0.0013777 0.0032000 -0.0193260
v 0.0000000 0.0032000 -0.0196000
v 0.0025456 0.0000000 -0.0193872
v 0.0025456 0.0032000 -0.0193872
v 0.0024818 0.0000000 -0.0191469
v 0.0024818 0.0032000 -0.0191469
v 0.0022721 0.0000000 -0.0190080
v 0.0022721 0.0032000 -0.0190080
v 0.0020393 0.0000000 -0.0190519
v 0.0020393 0.0032000 -0.0190519
v 0.0013777 0.0000000 -0.0193261
v -0.0013777 0.0032000 -0.0193260
v -0.0025456 0.0000000 -0.0193872
v -0.0025456 0.0032000 -0.0193872
v -0.0020393 0.0032000 -0.0190519
v -0.0024818 0.0000000 -0.0191469
v -0.0024818 0.0032000 -0.0191469
v -0.0022721 0.0000000 -0.0190080
v -0.0022721 0.0032000 -0.0190080
v -0.0020393 0.0000000 -0.0190519
v -0.0013777 0.0000000 -0.0193261
v 0.0036000 0.0000000 -0.0196000
v -0.0036000 0.0000000 -0.0196000
v 0.0000000 0.0008000 -0.0184000
v -0.0009185 0.0008000 -0.0182174
v -0.0012246 0.0008000 -0.0189565
v 0.0000000 0.0008000 -0.0192000
v -0.0016970 0.0008000 -0.0176970
v -0.0022627 0.0008000 -0.0182627
v -0.0022174 0.0008000 -0.0169185
v -0.0029565 0.0008000 -0.0172246
v -0.0024000 0.0008000 -0.0160000
v -0.0032000 0.0008000 -0.0160000
v -0.0022174 0.0008000 -0.0150815
v -0.0029565 0.0008000 -0.0147754
v -0.0016970 0.0008000 -0.0143030
v -0.0022627 0.0008000 -0.0137373
v -0.0009185 0.0008000 -0.0137826
v -0.0012246 0.0008000 -0.0130435
v 0.0000000 0.0008000 -0.0136000
v 0.0000000 0.0008000 -0.0128000
v 0.0009185 0.0008000 -0.0137826
v 0.0012246 0.0008000 -0.0130435
v 0.0016970 0.0008000 -0.0143030
v 0.0022627 0.0008000 -0.0137373
v 0.0022174 0.0008000 -0.0150815
v 0.0029565 0.0008000 -0.0147754
v 0.0024000 0.0008000 -0.0160000
v 0.0032000 0.0008000 -0.0160000
v 0.0022174 0.0008000 -0.0169185
v 0.0029565 0.0008000 -0.0172246
v 0.0016970 0.0008000 -0.0176970
v 0.0022627 0.0008000 -0.0182627
v 0.0009185 0.0008000 -0.0182174
v 0.0012246 0.0008000 -0.0189565
v 0.0024000 0.0072000 -0.0160000
v 0.0022174 0.0072000 -0.0169185
v 0.0016970 0.0072000 -0.0176970
v 0.0009185 0.0072000 -0.0182174
v 0.0000000 0.0072000 -0.0184000
v -0.0009185 0.0072000 -0.0182174
v -0.0016970 0.0072000 -0.0176970
v -0.0022174 0.0072000 -0.0169185
v -0.0024000 0.0072000 -0.0160000
v -0.0022174 0.0072000 -0.0150815
v -0.0016970 0.0072000 -0.0143030
v -0.0009185 0.0072000 -0.0137826
v 0.0000000 0.0072000 -0.0136000
v 0.0009185 0.0072000 -0.0137826
v 0.0016970 0.0072000 -0.0143030
v 0.0022174 0.0072000 -0.0150815
v -0.0012246 0.0072000 -0.0189565
v 0.0000000 0.0072000 -0.0192000
v -0.0022627 0.0072000 -0.0182627
v -0.0029565 0.0072000 -0.0172246
v -0.0032000 0.0072000 -0.0160000
v -0.0029565 0.0072000 -0.0147754
v -0.0022627 0.0072000 -0.0137373
v -0.0012246 0.0072000 -0.0130435
v 0.0000000 0.0072000 -0.0128000
v 0.0012246 0.0072000 -0.0130435
v 0.0022627 0.0072000 -0.0137373
v 0.0029565 0.0072000 -0.0147754
v 0.0032000 0.0072000 -0.0160000
v 0.0029565 0.0072000 -0.0172246
v 0.0022627 0.0072000 -0.0182627
v 0.0012246 0.0072000 -0.0189565
v 0.0029565 0.0080000 -0.0172246
v 0.0032000 0.0080000 -0.0160000
v 0.0022627 0.0080000 -0.0182627
v 0.0012246 0.0080000 -0.0189565
v 0.0000000 0.0080000 -0.0192000
v -0.0012246 0.0080000 -0.0189565
v -0.0022627 0.0080000 -0.0182627
v -0.0029565 0.0080000 -0.0172246
v -0.0032000 0.0080000 -0.0160000
v -0.0029565 0.0080000 -0.0147754
v -0.0022627 0.0080000 -0.0137373
v -0.0012246 0.0080000 -0.0130435
v 0.0000000 0.0080000 -0.0128000
v 0.0012246 0.0080000 -0.0130435
v 0.0022627 0.0080000 -0.0137373
v 0.0029565 0.0080000 -0.0147754
v 0.0013777 0.0048000 -0.0206740
v 0.0000000 0.0048000 -0.0204000
v 0.0025456 0.0048000 -0.0200000
v 0.0025456 0.0080000 -0.0200000
v 0.0025456 0.0080000 -0.0206128
v 0.0025456 0.0048000 -0.0206128
v 0.0024818 0.0080000 -0.0208531
v 0.0024818 0.0048000 -0.0208531
v 0.0022721 0.0080000 -0.0209920
v 0.0022721 0.0048000 -0.0209920
v 0.0020393 0.0080000 -0.0209481
v 0.0020393 0.0048000 -0.0209481
v 0.0013777 0.0080000 -0.0206739
v -0.0013777 0.0048000 -0.0206740
v -0.0025456 0.0080000 -0.0206128
v -0.0025456 0.0080000 -0.0200000
v -0.0025456 0.0048000 -0.0200000
v -0.0025456 0.0048000 -0.0206128
v -0.0020393 0.0048000 -0.0209481
v -0.0024818 0.0080000 -0.0208531
v -0.0024818 0.0048000 -0.0208531
v -0.0022721 0.0080000 -0.0209920
v -0.0022721 0.0048000 -0.0209920
v -0.0020393 0.0080000 -0.0209481
v -0.0013777 0.0080000 -0.0206739
v 0.0036000 0.0080000 -0.0204000
v -0.0036000 0.0080000 -0.0204000
v 0.0036000 0.0080000 -0.0200000
v -0.0036000 0.0080000 -0.0200000
v 0.0000000 0.0080000 -0.0196000
v 0.0013777 0.0080000 -0.0193260
v 0.0013777 0.0048000 -0.0193260
v 0.0000000 0.0048000 -0.0196000
v 0.0025456 0.0080000 -0.0193872
v 0.0025456 0.0048000 -0.0193872
v 0.0024818 0.0080000 -0.0191469
v 0.0024818 0.0048000 -0.0191469
v 0.0022721 0.0080000 -0.0190080
v 0.0022721 0.0048000 -0.0190080
v 0.0020393 0.0080000 -0.0190519
v 0.0020393 0.0048000 -0.0190519
v 0.0025456 0.0080000 -0.0185456
v 0.0013777 0.0080000 -0.0193261
v -0.0013777 0.0048000 -0.0193260
v -0.0013777 0.0080000 -0.0193260
v -0.0025456 0.0080000 -0.0193872
v -0.0025456 0.0048000 -0.0193872
v -0.0020393 0.0048000 -0.0190519
v -0.0024818 0.0080000 -0.0191469
v -0.0024818 0.0048000 -0.0191469
v -0.0022721 0.0080000 -0.0190080
v -0.0022721 0.0048000 -0.0190080
v -0.0020393 0.0080000 -0.0190519
v -0.0013777 0.0080000 -0.0193261
v -0.0025456 0.0080000 -0.0185456
v 0.0033260 0.0080000 -0.0173777
v 0.0036000 0.0080000 -0.0160000
v 0.0036000 0.0080000 -0.0196000
v -0.0036000 0.0080000 -0.0196000
v -0.0036000 0.0080000 -0.0160000
v -0.0033260 0.0080000 -0.0173777
v -0.0033260 0.0080000 -0.0146223
v -0.0025456 0.0080000 -0.0134544
v -0.0013777 0.0080000 -0.0126740
v 0.0000000 0.0080000 -0.0124000
v 0.0013777 0.0080000 -0.0126740
v 0.0025456 0.0080000 -0.0134544
v 0.0033260 0.0080000 -0.0146223
v 0.0029565 0.0000000 -0.0092246
v 0.0033260 0.0000000 -0.0093777
v 0.0036000 0.0000000 -0.0080000
v 0.0032000 0.0000000 -0.0080000
v 0.0022627 0.0000000 -0.0102627
v 0.0025456 0.0000000 -0.0105456
v 0.0012246 0.0000000 -0.0109565
v 0.0013777 0.0000000 -0.0113260
v 0.0000000 0.0000000 -0.0112000
v 0.0000000 0.0000000 -0.0116000
v -0.0012246 0.0000000 -0.0109565
v -0.0013777 0.0000000 -0.0113260
v -0.0022627 0.0000000 -0.0102627
v -0.0025456 0.0000000 -0.0105456
v -0.0029565 0.0000000 -0.0092246
v -0.0033260 0.0000000 -0.0093777
v -0.0032000 0.0000000 -0.0080000
v -0.0036000 0.0000000 -0.0080000
v -0.0029565 0.0000000 -0.0067754
v -0.0033260 0.0000000 -0.0066223
v -0.0022627 0.0000000 -0.0057373
v -0.0025456 0.0000000 -0.0054544
v -0.0012246 0.0000000 -0.0050435
v -0.0013777 0.0000000 -0.0046740
v 0.0000000 0.0000000 -0.0048000
v 0.0000000 0.0000000 -0.0044000
v 0.0012246 0.0000000 -0.0050435
v 0.0013777 0.0000000 -0.0046740
v 0.0022627 0.0000000 -0.0057373
v 0.0025456 0.0000000 -0.0054544
v 0.0029565 0.0000000 -0.0067754
v 0.0033260 0.0000000 -0.0066223
v 0.0013777 0.0032000 -0.0126740
v 0.0000000 0.0032000 -0.0124000
v 0.0025456 0.0000000 -0.0126128
v 0.0025456 0.0000000 -0.0120000
v 0.0025456 0.0032000 -0.0120000
v 0.0025456 0.0032000 -0.0126128
v 0.0024818 0.0000000 -0.0128531
v 0.0024818 0.0032000 -0.0128531
v 0.0022721 0.0000000 -0.0129920
v 0.0022721 0.0032000 -0.0129920
v 0.0020393 0.0000000 -0.0129481
v 0.0020393 0.0032000 -0.0129481
v 0.0013777 0.0000000 -0.0126739
v -0.0013777 0.0032000 -0.0126740
v -0.0025456 0.0032000 -0.0120000
v -0.0025456 0.0000000 -0.0120000
v -0.0025456 0.0000000 -0.0126128
v -0.0025456 0.0032000 -0.0126128
v -0.0020393 0.0032000 -0.0129481
v -0.0024818 0.0000000 -0.0128531
v -0.0024818 0.0032000 -0.0128531
v -0.0022721 0.0000000 -0.0129920
v -0.0022721 0.0032000 -0.0129920
v -0.0020393 0.0000000 -0.0129481
v -0.0013777 0.0000000 -0.0126739
v 0.0036000 0.0000000 -0.0124000
v -0.0036000 0.0000000 -0.0124000
v 0.0036000 0.0000000 -0.0120000
v -0.0036000 0.0000000 -0.0120000
v 0.0013777 0.0032000 -0.0113260
v 0.0000000 0.0032000 -0.0116000
v 0.0025456 0.0000000 -0.0113872
v 0.0025456 0.0032000 -0.0113872
v 0.0024818 0.0000000 -0.0111469
v 0.0024818 0.0032000 -0.0111469
v 0.0022721 0.0000000 -0.0110080
v 0.0022721 0.0032000 -0.0110080
v 0.0020393 0.0000000 -0.0110519
v 0.0020393 0.0032000 -0.0110519
v 0.0013777 0.0000000 -0.0113261
v -0.0013777 0.0032000 -0.0113260
v -0.0025456 0.0000000 -0.0113872
v -0.0025456 0.0032000 -0.0113872
v -0.0020393 0.0032000 -0.0110519
v -0.0024818 0.0000000 -0.0111469
v -0.0024818 0.0032000 -0.0111469
v -0.0022721 0.0000000 -0.0110080
v -0.0022721 0.0032000 -0.0110080
v -0.0020393 0.0000000 -0.0110519
v -0.0013777 0.0000000 -0.0113261
v 0.0036000 0.0000000 -0.0116000
v -0.0036000 0.0000000 -0.0116000
v 0.0000000 0.0008000 -0.0104000
v -0.0009185 0.0008000 -0.0102174
v -0.0012246 0.0008000 -0.0109565
v 0.0000000 0.0008000 -0.0112000
v -0.0016970 0.0008000 -0.0096970
v -0.0022627 0.0008000 -0.0102627
v -0.0022174 0.0008000 -0.0089185
v -0.0029565 0.0008000 -0.0092246
v -0.0024000 0.0008000 -0.0080000
v -0.0032000 0.0008000 -0.0080000
v -0.0022174 0.0008000 -0.0070815
v -0.0029565 0.0008000 -0.0067754
v -0.0016970 0.0008000 -0.0063030
v -0.0022627 0.0008000 -0.0057373
v -0.0009185 0.0008000 -0.0057826
v -0.0012246 0.0008000 -0.0050435
v 0.0000000 0.0008000 -0.0056000
v 0.0000000 0.0008000 -0.0048000
v 0.0009185 0.0008000 -0.0057826
v 0.0012246 0.0008000 -0.0050435
v 0.0016970 0.0008000 -0.0063030
v 0.0022627 0.0008000 -0.0057373
v 0.0022174 0.0008000 -0.0070815
v 0.0029565 0.0008000 -0.0067754
v 0.0024000 0.0008000 -0.0080000
v 0.0032000 0.0008000 -0.0080000
v 0.0022174 0.0008000 -0.0089185
v 0.0029565 0.0008000 -0.0092246
v 0.0016970 0.0008000 -0.0096970
v 0.0022627 0.0008000 -0.0102627
v 0.0009185 0.0008000 -0.0102174
v 0.0012246 0.0008000 -0.0109565
v 0.0024000 0.0072000 -0.0080000
v 0.0022174 0.0072000 -0.0089185
v 0.0016970 0.0072000 -0.0096970
v 0.0009185 0.0072000 -0.0102174
v 0.0000000 0.0072000 -0.0104000
v -0.0009185 0.0072000 -0.0102174
v -0.0016970 0.0072000 -0.0096970
v -0.0022174 0.0072000 -0.0089185
v -0.0024000 0.0072000 -0.0080000
v -0.0022174 0.0072000 -0.0070815
v -0.0016970 0.0072000 -0.0063030
v -0.0009185 0.0072000 -0.0057826
v 0.0000000 0.0072000 -0.0056000
v 0.0009185 0.0072000 -0.0057826
v 0.0016970 0.0072000 -0.0063030
v 0.0022174 0.0072000 -0.0070815
v -0.0012246 0.0072000 -0.0109565
v 0.0000000 0.0072000 -0.0112000
v -0.0022627 0.0072000 -0.0102627
v -0.0029565 0.0072000 -0.0092246
v -0.0032000 0.0072000 -0.0080000
v -0.0029565 0.0072000 -0.0067754
v -0.0022627 0.0072000 -0.0057373
v -0.0012246 0.0072000 -0.0050435
v 0.0000000 0.0072000 -0.0048000
v 0.0012246 0.0072000 -0.0050435
v 0.0022627 0.0072000 -0.0057373
v 0.0029565 0.0072000 -0.0067754
v 0.0032000 0.0072000 -0.0080000
v 0.0029565 0.0072000 -0.0092246
v 0.0022627 0.0072000 -0.0102627
v 0.0012246 0.0072000 -0.0109565
v 0.0029565 0.0080000 -0.0092246
v 0.0032000 0.0080000 -0.0080000
v 0.0022627 0.0080000 -0.0102627
v 0.0012246 0.0080000 -0.0109565
v 0.0000000 0.0080000 -0.0112000
v -0.0012246 0.0080000 -0.0109565
v -0.0022627 0.0080000 -0.0102627
v -0.0029565 0.0080000 -0.0092246
v -0.0032000 0.0080000 -0.0080000
v -0.0029565 0.0080000 -0.0067754
v -0.0022627 0.0080000 -0.0057373
v -0.0012246 0.0080000 -0.0050435
v 0.0000000 0.0080000 -0.0048000
v 0.0012246 0.0080000 -0.0050435
v 0.0022627 0.0080000 -0.0057373
v 0.0029565 0.0080000 -0.0067754
v 0.0013777 0.0048000 -0.0126740
v 0.0000000 0.0048000 -0.0124000
v 0.0025456 0.0048000 -0.0120000
v 0.0025456 0.0080000 -0.0120000
v 0.0025456 0.0080000 -0.0126128
v 0.0025456 0.0048000 -0.0126128
v 0.0024818 0.0080000 -0.0128531
v 0.0024818 0.0048000 -0.0128531
v 0.0022721 0.0080000 -0.0129920
v 0.0022721 0.0048000 -0.0129920
v 0.0020393 0.0080000 -0.0129481
v 0.0020393 0.0048000 -0.0129481
v 0.0013777 0.0080000 -0.0126739
v -0.0013777 0.0048000 -0.0126740
v -0.0025456 0.0080000 -0.0126128
v -0.0025456 0.0080000 -0.0120000
v -0.0025456 0.0048000 -0.0120000
v -0.0025456 0.0048000 -0.0126128
v -0.0020393 0.0048000 -0.0129481
v -0.0024818 0.0080000 -0.0128531
v -0.0024818 0.0048000 -0.0128531
v -0.0022721 0.0080000 -0.0129920
v -0.0022721 0.0048000 -0.0129920
v -0.0020393 0.0080000 -0.0129481
v -0.0013777 0.0080000 -0.0126739
v 0.0036000 0.0080000 -0.0124000
v -0.0036000 0.0080000 -0.0124000
v 0.0036000 0.0080000 -0.0120000
v -0.0036000 0.0080000 -0.0120000
v 0.0000000 0.0080000 -0.0116000
v 0.0013777 0.0080000 -0.0113260
v 0.0013777 0.0048000 -0.0113260
v 0.0000000 0.0048000 -0.0116000
v 0.0025456 0.0080000 -0.0113872
v 0.0025456 0.0048000 -0.0113872
v 0.0024818 0.0080000 -0.0111469
v 0.0024818 0.0048000 -0.0111469
v 0.0022721 0.0080000 -0.0110080
v 0.0022721 0.0048000 -0.0110080
v 0.0020393 0.0080000 -0.0110519
v 0.0020393 0.0048000 -0.0110519
v 0.0025456 0.0080000 -0.0105456
v 0.0013777 0.0080000 -0.0113261
v -0.0013777 0.0048000 -0.0113260
v -0.0013777 0.0080000 -0.0113260
v -0.0025456 0.0080000 -0.0113872
v -0.0025456 0.0048000 -0.0113872
v -0.0020393 0.0048000 -0.0110519
v -0.0024818 0.0080000 -0.0111469
v -0.0024818 0.0048000 -0.0111469
v -0.0022721 0.0080000 -0.0110080
v -0.0022721 0.0048000 -0.0110080
v -0.0020393 0.0080000 -0.0110519
v -0.0013777 0.0080000 -0.0113261
v -0.0025456 0.0080000 -0.0105456
v 0.0033260 0.0080000 -0.0093777
v 0.0036000 0.0080000 -0.0080000
v 0.0036000 0.0080000 -0.0116000
v -0.0036000 0.0080000 -0.0116000
v -0.0036000 0.0080000 -0.0080000
v -0.0033260 0.0080000 -0.0093777
v -0.0033260 0.0080000 -0.0066223
v -0.0025456 0.0080000 -0.0054544
v -0.0013777 0.0080000 -0.0046740
v 0.0000000 0.0080000 -0.0044000
v 0.0013777 0.0080000 -0.0046740
v 0.0025456 0.0080000 -0.0054544
v 0.0033260 0.0080000 -0.0066223
v 0.0029565 0.0000000 -0.0012246
v 0.0033260 0.0000000 -0.0013777
v 0.0036000 0.0000000 -0.0000000
v 0.0032000 0.0000000 -0.0000000
v 0.0022627 0.0000000 -0.0022627
v 0.0025456 0.0000000 -0.0025456
v 0.0012246 0.0000000 -0.0029565
v 0.0013777 0.0000000 -0.0033260
v 0.0000000 0.0000000 -0.0032000
v 0.0000000 0.0000000 -0.0036000
v -0.0012246 0.0000000 -0.0029565
v -0.0013777 0.0000000 -0.0033260
v -0.0022627 0.0000000 -0.0022627
v -0.0025456 0.0000000 -0.0025456
v -0.0029565 0.0000000 -0.0012246
v -0.0033260 0.0000000 -0.0013777
v -0.0032000 0.0000000 -0.0000000
v -0.0036000 0.0000000 -0.0000000
v -0.0029565 0.0000000 0.0012246
v -0.0033260 0.0000000 0.0013777
v -0.0022627 0.0000000 0.0022627
v -0.0025456 0.0000000 0.0025456
v -0.0012246 0.0000000 0.0029565
v -0.0013777 0.0000000 0.0033260
v 0.0000000 0.0000000 0.0032000
v 0.0000000 0.0000000 0.0036000
v 0.0012246 0.0000000 0.0029565
v 0.0013777 0.0000000 0.0033260
v 0.0022627 0.0000000 0.0022627
v 0.0025456 0.0000000 0.0025456
v 0.0029565 0.0000000 0.0012246
v 0.0033260 0.0000000 0.0013777
v 0.0013777 0.0032000 -0.0046740
v 0.0000000 0.0032000 -0.0044000
v 0.0025456 0.0000000 -0.0046128
v 0.0025456 0.0000000 -0.0040000
v 0.0025456 0.0032000 -0.0040000
v 0.0025456 0.0032000 -0.0046128
v 0.0024818 0.0000000 -0.0048531
v 0.0024818 0.0032000 -0.0048531
v 0.0022721 0.0000000 -0.0049920
v 0.0022721 0.0032000 -0.0049920
v 0.0020393 0.0000000 -0.0049481
v 0.0020393 0.0032000 -0.0049481
v 0.0013777 0.0000000 -0.0046739
v -0.0013777 0.0032000 -0.0046740
v -0.0025456 0.0032000 -0.0040000
v -0.0025456 0.0000000 -0.0040000
v -0.0025456 0.0000000 -0.0046128
v -0.0025456 0.0032000 -0.0046128
v -0.0020393 0.0032000 -0.0049481
v -0.0024818 0.0000000 -0.0048531
v -0.0024818 0.0032000 -0.0048531
v -0.0022721 0.0000000 -0.0049920
v -0.0022721 0.0032000 -0.0049920
v -0.0020393 0.0000000 -0.0049481
v -0.0013777 0.0000000 -0.0046739
v 0.0036000 0.0000000 -0.0044000
v -0.0036000 0.0000000 -0.0044000
v 0.0036000 0.0000000 -0.0040000
v -0.0036000 0.0000000 -0.0040000
v 0.0013777 0.0032000 -0.0033260
v 0.0000000 0.0032000 -0.0036000
v 0.0025456 0.0000000 -0.0033872
v 0.0025456 0.0032000 -0.0033872
v 0.0024818 0.0000000 -0.0031469
v 0.0024818 0.0032000 -0.0031469
v 0.0022721 0.0000000 -0.0030080
v 0.0022721 0.0032000 -0.0030080
v 0.0020393 0.0000000 -0.0030519
v 0.0020393 0.0032000 -0.0030519
v 0.0013777 0.0000000 -0.0033261
v -0.0013777 0.0032000 -0.0033260
v -0.0025456 0.0000000 -0.0033872
v -0.0025456 0.0032000 -0.0033872
v -0.0020393 0.0032000 -0.0030519
v -0.0024818 0.0000000 -0.0031469
v -0.0024818 0.0032000 -0.0031469
v -0.0022721 0.0000000 -0.0030080
v -0.0022721 0.0032000 -0.0030080
v -0.0020393 0.0000000 -0.0030519
v -0.0013777 0.0000000 -0.0033261
v 0.0036000 0.0000000 -0.0036000
v -0.0036000 0.0000000 -0.0036000
v 0.0000000 0.0008000 -0.0024000
v -0.0009185 0.0008000 -0.0022174
v -0.0012246 0.0008000 -0.0029565
v 0.0000000 0.0008000 -0.0032000
v -0.0016970 0.0008000 -0.0016970
v -0.0022627 0.0008000 -0.0022627
v -0.0022174 0.0008000 -0.0009185
v -0.0029565 0.0008000 -0.0012246
v -0.0024000 0.0008000 -0.0000000
v -0.0032000 0.0008000 -0.0000000
v -0.0022174 0.0008000 0.0009185
v -0.0029565 0.0008000 0.0012246
v -0.0016970 0.0008000 0.0016970
v -0.0022627 0.0008000 0.0022627
v -0.0009185 0.0008000 0.0022174
v -0.0012246 0.0008000 0.0029565
v 0.0000000 0.0008000 0.0024000
v 0.0000000 0.0008000 0.0032000
v 0.0009185 0.0008000 0.0022174
v 0.0012246 0.0008000 0.0029565
v 0.0016970 0.0008000 0.0016970
v 0.0022627 0.0008000 0.0022627
v 0.0022174 0.0008000 0.0009185
v 0.0029565 0.0008000 0.0012246
v 0.0024000 0.0008000 -0.0000000
v 0.0032000 0.0008000 -0.0000000
v 0.0022174 0.0008000 -0.0009185
v 0.0029565 0.0008000 -0.0012246
v 0.0016970 0.0008000 -0.0016970
v 0.0022627 0.0008000 -0.0022627
v 0.0009185 0.0008000 -0.0022174
v 0.0012246 0.0008000 -0.0029565
v 0.0024000 0.0072000 -0.0000000
v 0.0022174 0.0072000 -0.0009185
v 0.0016970 0.0072000 -0.0016970
v 0.0009185 0.0072000 -0.0022174
v 0.0000000 0.0072000 -0.0024000
v -0.0009185 0.0072000 -0.0022174
v -0.0016970 0.0072000 -0.0016970
v -0.0022174 0.0072000 -0.0009185
v -0.0024000 0.0072000 -0.0000000
v -0.0022174 0.0072000 0.0009185
v -0.0016970 0.0072000 0.0016970
v -0.0009185 0.0072000 0.0022174
v 0.0000000 0.0072000 0.0024000
v 0.0009185 0.0072000 0.0022174
v 0.0016970 0.0072000 0.0016970
v 0.0022174 0.0072000 0.0009185
v -0.0012246 0.0072000 -0.0029565
v 0.0000000 0.0072000 -0.0032000
v -0.0022627 0.0072000 -0.0022627
v -0.0029565 0.0072000 -0.0012246
v -0.0032000 0.0072000 -0.0000000
v -0.0029565 0.0072000 0.0012246
v -0.0022627 0.0072000 0.0022627
v -0.0012246 0.0072000 0.0029565
v 0.0000000 0.0072000 0.0032000
v 0.0012246 0.0072000 0.0029565
v 0.0022627 0.0072000 0.0022627
v 0.0029565 0.0072000 0.0012246
v 0.0032000 0.0072000 -0.0000000
v 0.0029565 0.0072000 -0.0012246
v 0.0022627 0.0072000 -0.0022627
v 0.0012246 0.0072000 -0.0029565
v 0.0029565 0.0080000 -0.0012246
v 0.0032000 0.0080000 -0.0000000
v 0.0022627 0.0080000 -0.0022627
v 0.0012246 0.0080000 -0.0029565
v 0.0000000 0.0080000 -0.0032000
v -0.0012246 0.0080000 -0.0029565
v -0.0022627 0.0080000 -0.0022627
v -0.0029565 0.0080000 -0.0012246
v -0.0032000 0.0080000 -0.0000000
v -0.0029565 0.0080000 0.0012246
v -0.0022627 0.0080000 0.0022627
v -0.0012246 0.0080000 0.0029565
v 0.0000000 0.0080000 0.0032000
v 0.0012246 0.0080000 0.0029565
v 0.0022627 0.0080000 0.0022627
v 0.0029565 0.0080000 0.0012246
v 0.0013777 0.0048000 -0.0046740
v 0.0000000 0.0048000 -0.0044000
v 0.0025456 0.0048000 -0.0040000
v 0.0025456 0.0080000 -0.0040000
v 0.0025456 0.0080000 -0.0046128
v 0.0025456 0.0048000 -0.0046128
v 0.0024818 0.0080000 -0.0048531
v 0.0024818 0.0048000 -0.0048531
v 0.0022721 0.0080000 -0.0049920
v 0.0022721 0.0048000 -0.0049920
v 0.0020393 0.0080000 -0.0049481
v 0.0020393 0.0048000 -0.0049481
v 0.0013777 0.0080000 -0.0046739
v -0.0013777 0.0048000 -0.0046740
v -0.0025456 0.0080000 -0.0046128
v -0.0025456 0.0080000 -0.0040000
v -0.0025456 0.0048000 -0.0040000
v -0.0025456 0.0048000 -0.0046128
v -0.0020393 0.0048000 -0.0049481
v -0.0024818 0.0080000 -0.0048531
v -0.0024818 0.0048000 -0.0048531
v -0.0022721 0.0080000 -0.0049920
v -0.0022721 0.0048000 -0.0049920
v -0.0020393 0.0080000 -0.0049481
v -0.0013777 0.0080000 -0.0046739
v 0.0036000 0.0080000 -0.0044000
v -0.0036000 0.0080000 -0.0044000
v 0.0036000 0.0080000 -0.0040000
v -0.0036000 0.0080000 -0.0040000
v 0.0000000 0.0080000 -0.0036000
v 0.0013777 0.0080000 -0.0033260
v 0.0013777 0.0048000 -0.0033260
v 0.0000000 0.0048000 -0.0036000
v 0.0025456 0.0080000 -0.0033872
v 0.0025456 0.0048000 -0.0033872
v 0.0024818 0.0080000 -0.0031469
v 0.0024818 0.0048000 -0.0031469
v 0.0022721 0.0080000 -0.0030080
v 0.0022721 0.0048000 -0.0030080
v 0.0020393 0.0080000 -0.0030519
v 0.0020393 0.0048000 -0.0030519
v 0.0025456 0.0080000 -0.0025456
v 0.0013777 0.0080000 -0.0033261
v -0.0013777 0.0048000 -0.0033260
v -0.0013777 0.0080000 -0.0033260
v -0.0025456 0.0080000 -0.0033872
v -0.0025456 0.0048000 -0.0033872
v -0.0020393 0.0048000 -0.0030519
v -0.0024818 0.0080000 -0.0031469
v -0.0024818 0.0048000 -0.0031469
v -0.0022721 0.0080000 -0.0030080
v -0.0022721 0.0048000 -0.0030080
v -0.0020393 0.0080000 -0.0030519
v -0.0013777 0.0080000 -0.0033261
v -0.0025456 0.0080000 -0.0025456
v 0.0033260 0.0080000 -0.0013777
v 0.0036000 0.0080000 -0.0000000
v 0.0036000 0.0080000 -0.0036000
v -0.0036000 0.0080000 -0.0036000
v -0.0036000 0.0080000 -0.0000000
v -0.0033260 0.0080000 -0.0013777
v -0.0033260 0.0080000 0.0013777
v -0.0025456 0.0080000 0.0025456
v -0.0013777 0.0080000 0.0033260
v 0.0000000 0.0080000 0.0036000
v 0.0013777 0.0080000 0.0033260
v 0.0025456 0.0080000 0.0025456
v 0.0033260 0.0080000 0.0013777
v 0.0029565 0.0000000 0.0067754
v 0.0033260 0.0000000 0.0066223
v 0.0036000 0.0000000 0.0080000
v 0.0032000 0.0000000 0.0080000
v 0.0022627 0.0000000 0.0057373
v 0.0025456 0.0000000 0.0054544
v 0.0012246 0.0000000 0.0050435
v 0.0013777 0.0000000 0.0046740
v 0.0000000 0.0000000 0.0048000
v 0.0000000 0.0000000 0.0044000
v -0.0012246 0.0000000 0.0050435
v -0.0013777 0.0000000 0.0046740
v -0.0022627 0.0000000 0.0057373
v -0.0025456 0.0000000 0.0054544
v -0.0029565 0.0000000 0.0067754
v -0.0033260 0.0000000 0.0066223
v -0.0032000 0.0000000 0.0080000
v -0.0036000 0.0000000 0.0080000
v -0.0029565 0.0000000 0.0092246
v -0.0033260 0.0000000 0.0093777
v -0.0022627 0.0000000 0.0102627
v -0.0025456 0.0000000 0.0105456
v -0.0012246 0.0000000 0.0109565
v -0.0013777 0.0000000 0.0113260
v 0.0000000 0.0000000 0.0112000
v 0.0000000 0.0000000 0.0116000
v 0.0012246 0.0000000 0.0109565
v 0.0013777 0.0000000 0.0113260
v 0.0022627 0.0000000 0.0102627
v 0.0025456 0.0000000 0.0105456
v 0.0029565 0.0000000 0.0092246
v 0.0033260 0.0000000 0.0093777
v 0.0013777 0.0032000 0.0033260
v 0.0000000 0.0032000 0.0036000
v 0.0025456 0.0000000 0.0033872
v 0.0025456 0.0000000 0.0040000
v 0.0025456 0.0032000 0.0040000
v 0.0025456 0.0032000 0.0033872
v 0.0024818 0.0000000 0.0031469
v 0.0024818 0.0032000 0.0031469
v 0.0022721 0.0000000 0.0030080
v 0.0022721 0.0032000 0.0030080
v 0.0020393 0.0000000 0.0030519
v 0.0020393 0.0032000 0.0030519
v 0.0013777 0.0000000 0.0033261
v -0.0013777 0.0032000 0.0033260
v -0.0025456 0.0032000 0.0040000
v -0.0025456 0.0000000 0.0040000
v -0.0025456 0.0000000 0.0033872
v -0.0025456 0.0032000 0.0033872
v -0.0020393 0.0032000 0.0030519
v -0.0024818 0.0000000 0.0031469
v -0.0024818 0.0032000 0.0031469
v -0.0022721 0.0000000 0.0030080
v -0.0022721 0.0032000 0.0030080
v -0.0020393 0.0000000 0.0030519
v -0.0013777 0.0000000 0.0033261
v 0.0036000 0.0000000 0.0036000
v -0.0036000 0.0000000 0.0036000
v 0.0036000 0.0000000 0.0040000
v -0.0036000 0.0000000 0.0040000
v 0.0013777 0.0032000 0.0046740
v 0.0000000 0.0032000 0.0044000
v 0.0025456 0.0000000 0.0046128
v 0.0025456 0.0032000 0.0046128
v 0.0024818 0.0000000 0.0048531
v 0.0024818 0.0032000 0.0048531
v 0.0022721 0.0000000 0.0049920
v 0.0022721 0.0032000 0.0049920
v 0.0020393 0.0000000 0.0049481
v 0.0020393 0.0032000 0.0049481
v 0.0013777 0.0000000 0.0046739
v -0.0013777 0.0032000 0.0046740
v -0.0025456 0.0000000 0.0046128
v -0.0025456 0.0032000 0.0046128
v -0.0020393 0.0032000 0.0049481
v -0.0024818 0.0000000 0.0048531
v -0.0024818 0.0032000 0.0048531
v -0.0022721 0.0000000 0.0049920
v -0.0022721 0.0032000 0.0049920
v -0.0020393 0.0000000 0.0049481
v -0.0013777 0.0000000 0.0046739
v 0.0036000 0.0000000 0.0044000
v -0.0036000 0.0000000 0.0044000
v 0.0000000 0.0008000 0.0056000
v -0.0009185 0.0008000 0.0057826
v -0.0012246 0.0008000 0.0050435
v 0.0000000 0.0008000 0.0048000
v -0.0016970 0.0008000 0.0063030
v -0.0022627 0.0008000 0.0057373
v -0.0022174 0.0008000 0.0070815
v -0.0029565 0.0008000 0.0067754
v -0.0024000 0.0008000 0.0080000
v -0.0032000 0.0008000 0.0080000
v -0.0022174 0.0008000 0.0089185
v -0.0029565 0.0008000 0.0092246
v -0.0016970 0.0008000 0.0096970
v -0.0022627 0.0008000 0.0102627
v -0.0009185 0.0008000 0.0102174
v -0.0012246 0.0008000 0.0109565
v 0.0000000 0.0008000 0.0104000
v 0.0000000 0.0008000 0.0112000
v 0.0009185 0.0008000 0.0102174
v 0.0012246 0.0008000 0.0109565
v 0.0016970 0.0008000 0.0096970
v 0.0022627 0.0008000 0.0102627
v 0.0022174 0.0008000 0.0089185
v 0.0029565 0.0008000 0.0092246
v 0.0024000 0.0008000 0.0080000
v 0.0032000 0.0008000 0.0080000
v 0.0022174 0.0008000 0.0070815
v 0.0029565 0.0008000 0.0067754
v 0.0016970 0.0008000 0.0063030
v 0.0022627 0.0008000 0.0057373
v 0.0009185 0.0008000 0.0057826
v 0.0012246 0.0008000 0.0050435
v 0.0024000 0.0072000 0.0080000
v 0.0022174 0.0072000 0.0070815
v 0.0016970 0.0072000 0.0063030
v 0.0009185 0.0072000 0.0057826
v 0.0000000 0.0072000 0.0056000
v -0.0009185 0.0072000 0.0057826
v -0.0016970 0.0072000 0.0063030
v -0.0022174 0.0072000 0.0070815
v -0.0024000 0.0072000 0.0080000
v -0.0022174 0.0072000 0.0089185
v -0.0016970 0.0072000 0.0096970
v -0.0009185 0.0072000 0.0102174
v 0.0000000 0.0072000 0.0104000
v 0.0009185 0.0072000 0.0102174
v 0.0016970 0.0072000 0.0096970
v 0.0022174 0.0072000 0.0089185
v -0.0012246 0.0072000 0.0050435
v 0.0000000 0.0072000 0.0048000
v -0.0022627 0.0072000 0.0057373
v -0.0029565 0.0072000 0.0067754
v -0.0032000 0.0072000 0.0080000
v -0.0029565 0.0072000 0.0092246
v -0.0022627 0.0072000 0.0102627
v -0.0012246 0.0072000 0.0109565
v 0.0000000 0.0072000 0.0112000
v 0.0012246 0.0072000 0.0109565
v 0.0022627 0.0072000 0.0102627
v 0.0029565 0.0072000 0.0092246
v 0.0032000 0.0072000 0.0080000
v 0.0029565 0.0072000 0.0067754
v 0.0022627 0.0072000 0.0057373
v 0.0012246 0.0072000 0.0050435
v 0.0029565 0.0080000 0.0067754
v 0.0032000 0.0080000 0.0080000
v 0.0022627 0.0080000 0.0057373
v 0.0012246 0.0080000 0.0050435
v 0.0000000 0.0080000 0.0048000
v -0.0012246 0.0080000 0.0050435
v -0.0022627 0.0080000 0.0057373
v -0.0029565 0.0080000 0.0067754
v -0.0032000 0.0080000 0.0080000
v -0.0029565 0.0080000 0.0092246
v -0.0022627 0.0080000 0.0102627
v -0.0012246 0.0080000 0.0109565
v 0.0000000 0.0080000 0.0112000
v 0.0012246 0.0080000 0.0109565
v 0.0022627 0.0080000 0.0102627
v 0.0029565 0.0080000 0.0092246
v 0.0013777 0.0048000 0.0033260
v 0.0000000 0.0048000 0.0036000
v 0.0025456 0.0048000 0.0040000
v 0.0025456 0.0080000 0.0040000
v 0.0025456 0.0080000 0.0033872
v 0.0025456 0.0048000 0.0033872
v 0.0024818 0.0080000 0.0031469
v 0.0024818 0.0048000 0.0031469
v 0.0022721 0.0080000 0.0030080
v 0.0022721 0.0048000 0.0030080
v 0.0020393 0.0080000 0.0030519
v 0.0020393 0.0048000 0.0030519
v 0.0013777 0.0080000 0.0033261
v -0.0013777 0.0048000 0.0033260
v -0.0025456 0.0080000 0.0033872
v -0.0025456 0.0080000 0.0040000
v -0.0025456 0.0048000 0.0040000
v -0.0025456 0.0048000 0.0033872
v -0.0020393 0.0048000 0.0030519
v -0.0024818 0.0080000 0.0031469
v -0.0024818 0.0048000 0.0031469
v -0.0022721 0.0080000 0.0030080
v -0.0022721 0.0048000 0.0030080
v -0.0020393 0.0080000 0.0030519
v -0.0013777 0.0080000 0.0033261
v 0.0036000 0.0080000 0.0036000
v -0.0036000 0.0080000 0.0036000
v 0.0036000 0.0080000 0.0040000
v -0.0036000 0.0080000 0.0040000
v 0.0000000 0.0080000 0.0044000
v 0.0013777 0.0080000 0.0046740
v 0.0013777 0.0048000 0.0046740
v 0.0000000 0.0048000 0.0044000
v 0.0025456 0.0080000 0.0046128
v 0.0025456 0.0048000 0.0046128
v 0.0024818 0.0080000 0.0048531
v 0.0024818 0.0048000 0.0048531
v 0.0022721 0.0080000 0.0049920
v 0.0022721 0.0048000 0.0049920
v 0.0020393 0.0080000 0.0049481
v 0.0020393 0.0048000 0.0049481
v 0.0025456 0.0080000 0.0054544
v 0.0013777 0.0080000 0.0046739
v -0.0013777 0.0048000 0.0046740
v -0.0013777 0.0080000 0.0046740
v -0.0025456 0.0080000 0.0046128
v -0.0025456 0.0048000 0.0046128
v -0.0020393 0.0048000 0.0049481
v -0.0024818 0.0080000 0.0048531
v -0.0024818 0.0048000 0.0048531
v -0.0022721 0.0080000 0.0049920
v -0.0022721 0.0048000 0.0049920
v -0.0020393 0.0080000 0.0049481
v -0.0013777 0.0080000 0.0046739
v -0.0025456 0.0080000 0.0054544
v 0.0033260 0.0080000 0.0066223
v 0.0036000 0.0080000 0.0080000
v 0.0036000 0.0080000 0.0044000
v -0.0036000 0.0080000 0.0044000
v -0.0036000 0.0080000 0.0080000
v -0.0033260 0.0080000 0.0066223
v -0.0033260 0.0080000 0.0093777
v -0.0025456 0.0080000 0.0105456
v -0.0013777 0.0080000 0.0113260
v 0.0000000 0.0080000 0.0116000
v 0.0013777 0.0080000 0.0113260
v 0.0025456 0.0080000 0.0105456
v 0.0033260 0.0080000 0.0093777
v 0.0029565 0.0000000 0.0147754
v 0.0033260 0.0000000 0.0146223
v 0.0036000 0.0000000 0.0160000
v 0.0032000 0.0000000 0.0160000
v 0.0022627 0.0000000 0.0137373
v 0.0025456 0.0000000 0.0134544
v 0.0012246 0.0000000 0.0130435
v 0.0013777 0.0000000 0.0126740
v 0.0000000 0.0000000 0.0128000
v 0.0000000 0.0000000 0.0124000
v -0.0012246 0.0000000 0.0130435
v -0.0013777 0.0000000 0.0126740
v -0.0022627 0.0000000 0.0137373
v -0.0025456 0.0000000 0.0134544
v -0.0029565 0.0000000 0.0147754
v -0.0033260 0.0000000 0.0146223
v -0.0032000 0.0000000 0.0160000
v -0.0036000 0.0000000 0.0160000
v -0.0029565 0.0000000 0.0172246
v -0.0033260 0.0000000 0.0173777
v -0.0022627 0.0000000 0.0182627
v -0.0025456 0.0000000 0.0185456
v -0.0012246 0.0000000 0.0189565
v -0.0013777 0.0000000 0.0193260
v 0.0000000 0.0000000 0.0192000
v 0.0000000 0.0000000 0.0196000
v 0.0012246 0.0000000 0.0189565
v 0.0013777 0.0000000 0.0193260
v 0.0022627 0.0000000 0.0182627
v 0.0025456 0.0000000 0.0185456
v 0.0029565 0.0000000 0.0172246
v 0.0033260 0.0000000 0.0173777
v 0.0013777 0.0032000 0.0113260
v 0.0000000 0.0032000 0.0116000
v 0.0025456 0.0000000 0.0113872
v 0.0025456 0.0000000 0.0120000
v 0.0025456 0.0032000 0.0120000
v 0.0025456 0.0032000 0.0113872
v 0.0024818 0.0000000 0.0111469
v 0.0024818 0.0032000 0.0111469
v 0.0022721 0.0000000 0.0110080
v 0.0022721 0.0032000 0.0110080
v 0.0020393 0.0000000 0.0110519
v 0.0020393 0.0032000 0.0110519
v 0.0013777 0.0000000 0.0113261
v -0.0013777 0.0032000 0.0113260
v -0.0025456 0.0032000 0.0120000
v -0.0025456 0.0000000 0.0120000
v -0.0025456 0.0000000 0.0113872
v -0.0025456 0.0032000 0.0113872
v -0.0020393 0.0032000 0.0110519
v -0.0024818 0.0000000 0.0111469
v -0.0024818 0.0032000 0.0111469
v -0.0022721 0.0000000 0.0110080
v -0.0022721 0.0032000 0.0110080
v -0.0020393 0.0000000 0.0110519
v -0.0013777 0.0000000 0.0113261
v 0.0036000 0.0000000 0.0116000
v -0.0036000 0.0000000 0.0116000
v 0.0036000 0.0000000 0.0120000
v -0.0036000 0.0000000 0.0120000
v 0.0013777 0.0032000 0.0126740
v 0.0000000 0.0032000 0.0124000
v 0.0025456 0.0000000 0.0126128
v 0.0025456 0.0032000 0.0126128
v 0.0024818 0.0000000 0.0128531
v 0.0024818 0.0032000 0.0128531
v 0.0022721 0.0000000 0.0129920
v 0.0022721 0.0032000 0.0129920
v 0.0020393 0.0000000 0.0129481
v 0.0020393 0.0032000 0.0129481
v 0.0013777 0.0000000 0.0126739
v -0.0013777 0.0032000 0.0126740
v -0.0025456 0.0000000 0.0126128
v -0.0025456 0.0032000 0.0126128
v -0.0020393 0.0032000 0.0129481
v -0.0024818 0.0000000 0.0128531
v -0.0024818 0.0032000 0.0128531
v -0.0022721 0.0000000 0.0129920
v -0.0022721 0.0032000 0.0129920
v -0.0020393 0.0000000 0.0129481
v -0.0013777 0.0000000 0.0126739
v 0.0036000 0.0000000 0.0124000
v -0.0036000 0.0000000 0.0124000
v 0.0000000 0.0008000 0.0136000
v -0.0009185 0.0008000 0.0137826
v -0.0012246 0.0008000 0.0130435
v 0.0000000 0.0008000 0.0128000
v -0.0016970 0.0008000 0.0143030
v -0.0022627 0.0008000 0.0137373
v -0.0022174 0.0008000 0.0150815
v -0.0029565 0.0008000 0.0147754
v -0.0024000 0.0008000 0.0160000
v -0.0032000 0.0008000 0.0160000
v -0.0022174 0.0008000 0.0169185
v -0.0029565 0.0008000 0.0172246
v -0.0016970 0.0008000 0.0176970
v -0.0022627 0.0008000 0.0182627
v -0.0009185 0.0008000 0.0182174
v -0.0012246 0.0008000 0.0189565
v 0.0000000 0.0008000 0.0184000
v 0.0000000 0.0008000 0.0192000
v 0.0009185 0.0008000 0.0182174
v 0.0012246 0.0008000 0.0189565
v 0.0016970 0.0008000 0.0176970
v 0.0022627 0.0008000 0.0182627
v 0.0022174 0.0008000 0.0169185
v 0.0029565 0.0008000 0.0172246
v 0.0024000 0.0008000 0.0160000
v 0.0032000 0.0008000 0.0160000
v 0.0022174 0.0008000 0.0150815
v 0.0029565 0.0008000 0.0147754
v 0.0016970 0.0008000 0.0143030
v 0.0022627 0.0008000 0.0137373
v 0.0009185 0.0008000 0.0137826
v 0.0012246 0.0008000 0.0130435
v 0.0024000 0.0072000 0.0160000
v 0.0022174 0.0072000 0.0150815
v 0.0016970 0.0072000 0.0143030
v 0.0009185 0.0072000 0.0137826
v 0.0000000 0.0072000 0.0136000
v -0.0009185 0.0072000 0.0137826
v -0.0016970 0.0072000 0.0143030
v -0.0022174 0.0072000 0.0150815
v -0.0024000 0.0072000 0.0160000
v -0.0022174 0.0072000 0.0169185
v -0.0016970 0.0072000 0.0176970
v -0.0009185 0.0072000 0.0182174
v 0.0000000 0.0072000 0.0184000
v 0.0009185 0.0072000 0.0182174
v 0.0016970 0.0072000 0.0176970
v 0.0022174 0.0072000 0.0169185
v -0.0012246 0.0072000 0.0130435
v 0.0000000 0.0072000 0.0128000
v -0.0022627 0.0072000 0.0137373
v -0.0029565 0.0072000 0.0147754
v -0.0032000 0.0072000 0.0160000
v -0.0029565 0.0072000 0.0172246
v -0.0022627 0.0072000 0.0182627
v -0.0012246 0.0072000 0.0189565
v 0.0000000 0.0072000 0.0192000
v 0.0012246 0.0072000 0.0189565
v 0.0022627 0.0072000 0.0182627
v 0.0029565 0.0072000 0.0172246
v 0.0032000 0.0072000 0.0160000
v 0.0029565 0.0072000 0.0147754
v 0.0022627 0.0072000 0.0137373
v 0.0012246 0.0072000 0.0130435
v 0.0029565 0.0080000 0.0147754
v 0.0032000 0.0080000 0.0160000
v 0.0022627 0.0080000 0.0137373
v 0.0012246 0.0080000 0.0130435
v 0.0000000 0.0080000 0.0128000
v -0.0012246 0.0080000 0.0130435
v -0.0022627 0.0080000 0.0137373
v -0.0029565 0.0080000 0.0147754
v -0.0032000 0.0080000 0.0160000
v -0.0029565 0.0080000 0.0172246
v -0.0022627 0.0080000 0.0182627
v -0.0012246 0.0080000 0.0189565
v 0.0000000 0.0080000 0.0192000
v 0.0012246 0.0080000 0.0189565
v 0.0022627 0.0080000 0.0182627
v 0.0029565 0.0080000 0.0172246
v 0.0013777 0.0048000 0.0113260
v 0.0000000 0.0048000 0.0116000
v 0.0025456 0.0048000 0.0120000
v 0.0025456 0.0080000 0.0120000
v 0.0025456 0.0080000 0.0113872
v 0.0025456 0.0048000 0.0113872
v 0.0024818 0.0080000 0.0111469
v 0.0024818 0.0048000 0.0111469
v 0.0022721 0.0080000 0.0110080
v 0.0022721 0.0048000 0.0110080
v 0.0020393 0.0080000 0.0110519
v 0.0020393 0.0048000 0.0110519
v 0.0013777 0.0080000 0.0113261
v -0.0013777 0.0048000 0.0113260
v -0.0025456 0.0080000 0.0113872
v -0.0025456 0.0080000 0.0120000
v -0.0025456 0.0048000 0.0120000
v -0.0025456 0.0048000 0.0113872
v -0.0020393 0.0048000 0.0110519
v -0.0024818 0.0080000 0.0111469
v -0.0024818 0.0048000 0.0111469
v -0.0022721 0.0080000 0.0110080
v -0.0022721 0.0048000 0.0110080
v -0.0020393 0.0080000 0.0110519
v -0.0013777 0.0080000 0.0113261
v 0.0036000 0.0080000 0.0116000
v -0.0036000 0.0080000 0.0116000
v 0.0036000 0.0080000 0.0120000
v -0.0036000 0.0080000 0.0120000
v 0.0000000 0.0080000 0.0124000
v 0.0013777 0.0080000 0.0126740
v 0.0013777 0.0048000 0.0126740
v 0.0000000 0.0048000 0.0124000
v 0.0025456 0.0080000 0.0126128
v 0.0025456 0.0048000 0.0126128
v 0.0024818 0.0080000 0.0128531
v 0.0024818 0.0048000 0.0128531
v 0.0022721 0.0080000 0.0129920
v 0.0022721 0.0048000 0.0129920
v 0.0020393 0.0080000 0.0129481
v 0.0020393 0.0048000 0.0129481
v 0.0025456 0.0080000 0.0134544
v 0.0013777 0.0080000 0.0126739
v -0.0013777 0.0048000 0.0126740
v -0.0013777 0.0080000 0.0126740
v -0.0025456 0.0080000 0.0126128
v -0.0025456 0.0048000 0.0126128
v -0.0020393 0.0048000 0.0129481
v -0.0024818 0.0080000 0.0128531
v -0.0024818 0.0048000 0.0128531
v -0.0022721 0.0080000 0.0129920
v -0.0022721 0.0048000 0.0129920
v -0.0020393 0.0080000 0.0129481
v -0.0013777 0.0080000 0.0126739
v -0.0025456 0.0080000 0.0134544
v 0.0033260 0.0080000 0.0146223
v 0.0036000 0.0080000 0.0160000
v 0.0036000 0.0080000 0.0124000
v -0.0036000 0.0080000 0.0124000
v -0.0036000 0.0080000 0.0160000
v -0.0033260 0.0080000 0.0146223
v -0.0033260 0.0080000 0.0173777
v -0.0025456 0.0080000 0.0185456
v -0.0013777 0.0080000 0.0193260
v 0.0000000 0.0080000 0.0196000
v 0.0013777 0.0080000 0.0193260
v 0.0025456 0.0080000 0.0185456
v 0.0033260 0.0080000 0.0173777
v 0.0029565 0.0000000 0.0227754
v 0.0033260 0.0000000 0.0226223
v 0.0032000 0.0000000 0.0240000
v 0.0022627 0.0000000 0.0217373
v 0.0025456 0.0000000 0.0214544
v 0.0012246 0.0000000 0.0210435
v 0.0013777 0.0000000 0.0206740
v 0.0000000 0.0000000 0.0208000
v 0.0000000 0.0000000 0.0204000
v -0.0012246 0.0000000 0.0210435
v -0.0013777 0.0000000 0.0206740
v -0.0022627 0.0000000 0.0217373
v -0.0025456 0.0000000 0.0214544
v -0.0029565 0.0000000 0.0227754
v -0.0033260 0.0000000 0.0226223
v -0.0032000 0.0000000 0.0240000
v -0.0029565 0.0000000 0.0252246
v -0.0022627 0.0000000 0.0262627
v -0.0012246 0.0000000 0.0269565
v 0.0000000 0.0000000 0.0272000
v 0.0012246 0.0000000 0.0269565
v 0.0022627 0.0000000 0.0262627
v 0.0029565 0.0000000 0.0252246
v 0.0013777 0.0032000 0.0193260
v 0.0000000 0.0032000 0.0196000
v 0.0025456 0.0000000 0.0193872
v 0.0025456 0.0000000 0.0200000
v 0.0025456 0.0032000 0.0200000
v 0.0025456 0.0032000 0.0193872
v 0.0024818 0.0000000 0.0191469
v 0.0024818 0.0032000 0.0191469
v 0.0022721 0.0000000 0.0190080
v 0.0022721 0.0032000 0.0190080
v 0.0020393 0.0000000 0.0190519
v 0.0020393 0.0032000 0.0190519
v 0.0013777 0.0000000 0.0193261
v -0.0013777 0.0032000 0.0193260
v -0.0025456 0.0032000 0.0200000
v -0.0025456 0.0000000 0.0200000
v -0.0025456 0.0000000 0.0193872
v -0.0025456 0.0032000 0.0193872
v -0.0020393 0.0032000 0.0190519
v -0.0024818 0.0000000 0.0191469
v -0.0024818 0.0032000 0.0191469
v -0.0022721 0.0000000 0.0190080
v -0.0022721 0.0032000 0.0190080
v -0.0020393 0.0000000 0.0190519
v -0.0013777 0.0000000 0.0193261
v 0.0036000 0.0000000 0.0196000
v -0.0036000 0.0000000 0.0196000
v 0.0036000 0.0000000 0.0200000
v -0.0036000 0.0000000 0.0200000
v 0.0013777 0.0032000 0.0206740
v 0.0000000 0.0032000 0.0204000
v 0.0025456 0.0000000 0.0206128
v 0.0025456 0.0032000 0.0206128
v 0.0024818 0.0000000 0.0208531
v 0.0024818 0.0032000 0.0208531
v 0.0022721 0.0000000 0.0209920
v 0.0022721 0.0032000 0.0209920
v 0.0020393 0.0000000 0.0209481
v 0.0020393 0.0032000 0.0209481
v 0.0013777 0.0000000 0.0206739
v -0.0013777 0.0032000 0.0206740
v -0.0025456 0.0000000 0.0206128
v -0.0025456 0.0032000 0.0206128
v -0.0020393 0.0032000 0.0209481
v -0.0024818 0.0000000 0.0208531
v -0.0024818 0.0032000 0.0208531
v -0.0022721 0.0000000 0.0209920
v -0.0022721 0.0032000 0.0209920
v -0.0020393 0.0000000 0.0209481
v -0.0013777 0.0000000 0.0206739
v 0.0036000 0.0000000 0.0204000
v -0.0036000 0.0000000 0.0204000
v 0.0000000 0.0008000 0.0216000
v -0.0009185 0.0008000 0.0217826
v -0.0012246 0.0008000 0.0210435
v 0.0000000 0.0008000 0.0208000
v -0.0016970 0.0008000 0.0223030
v -0.0022627 0.0008000 0.0217373
v -0.0022174 0.0008000 0.0230815
v -0.0029565 0.0008000 0.0227754
v -0.0024000 0.0008000 0.0240000
v -0.0032000 0.0008000 0.0240000
v -0.0022174 0.0008000 0.0249185
v -0.0029565 0.0008000 0.0252246
v -0.0016970 0.0008000 0.0256970
v -0.0022627 0.0008000 0.0262627
v -0.0009185 0.0008000 0.0262174
v -0.0012246 0.0008000 0.0269565
v 0.0000000 0.0008000 0.0264000
v 0.0000000 0.0008000 0.0272000
v 0.0009185 0.0008000 0.0262174
v 0.0012246 0.0008000 0.0269565
v 0.0016970 0.0008000 0.0256970
v 0.0022627 0.0008000 0.0262627
v 0.0022174 0.0008000 0.0249185
v 0.0029565 0.0008000 0.0252246
v 0.0024000 0.0008000 0.0240000
v 0.0032000 0.0008000 0.0240000
v 0.0022174 0.0008000 0.0230815
v 0.0029565 0.0008000 0.0227754
v 0.0016970 0.0008000 0.0223030
v 0.0022627 0.0008000 0.0217373
v 0.0009185 0.0008000 0.0217826
v 0.0012246 0.0008000 0.0210435
v 0.0024000 0.0072000 0.0240000
v 0.0022174 0.0072000 0.0230815
v 0.0016970 0.0072000 0.0223030
v 0.0009185 0.0072000 0.0217826
v 0.0000000 0.0072000 0.0216000
v -0.0009185 0.0072000 0.0217826
v -0.0016970 0.0072000 0.0223030
v -0.0022174 0.0072000 0.0230815
v -0.0024000 0.0072000 0.0240000
v -0.0022174 0.0072000 0.0249185
v -0.0016970 0.0072000 0.0256970
v -0.0009185 0.0072000 0.0262174
v 0.0000000 0.0072000 0.0264000
v 0.0009185 0.0072000 0.0262174
v 0.0016970 0.0072000 0.0256970
v 0.0022174 0.0072000 0.0249185
v -0.0012246 0.0072000 0.0210435
v 0.0000000 0.0072000 0.0208000
v -0.0022627 0.0072000 0.0217373
v -0.0029565 0.0072000 0.0227754
v -0.0032000 0.0072000 0.0240000
v -0.0029565 0.0072000 0.0252246
v -0.0022627 0.0072000 0.0262627
v -0.0012246 0.0072000 0.0269565
v 0.0000000 0.0072000 0.0272000
v 0.0012246 0.0072000 0.0269565
v 0.0022627 0.0072000 0.0262627
v 0.0029565 0.0072000 0.0252246
v 0.0032000 0.0072000 0.0240000
v 0.0029565 0.0072000 0.0227754
v 0.0022627 0.0072000 0.0217373
v 0.0012246 0.0072000 0.0210435
v 0.0029565 0.0080000 0.0227754
v 0.0032000 0.0080000 0.0240000
v 0.0022627 0.0080000 0.0217373
v 0.0012246 0.0080000 0.0210435
v 0.0000000 0.0080000 0.0208000
v -0.0012246 0.0080000 0.0210435
v -0.0022627 0.0080000 0.0217373
v -0.0029565 0.0080000 0.0227754
v -0.0032000 0.0080000 0.0240000
v -0.0029565 0.0080000 0.0252246
v -0.0022627 0.0080000 0.0262627
v -0.0012246 0.0080000 0.0269565
v 0.0000000 0.0080000 0.0272000
v 0.0012246 0.0080000 0.0269565
v 0.0022627 0.0080000 0.0262627
v 0.0029565 0.0080000 0.0252246
v 0.0013777 0.0048000 0.0193260
v 0.0000000 0.0048000 0.0196000
v 0.0025456 0.0048000 0.0200000
v 0.0025456 0.0080000 0.0200000
v 0.0025456 0.0080000 0.0193872
v 0.0025456 0.0048000 0.0193872
v 0.0024818 0.0080000 0.0191469
v 0.0024818 0.0048000 0.0191469
v 0.0022721 0.0080000 0.0190080
v 0.0022721 0.0048000 0.0190080
v 0.0020393 0.0080000 0.0190519
v 0.0020393 0.0048000 0.0190519
v 0.0013777 0.0080000 0.0193261
v -0.0013777 0.0048000 0.0193260
v -0.0025456 0.0080000 0.0193872
v -0.0025456 0.0080000 0.0200000
v -0.0025456 0.0048000 0.0200000
v -0.0025456 0.0048000 0.0193872
v -0.0020393 0.0048000 0.0190519
v -0.0024818 0.0080000 0.0191469
v -0.0024818 0.0048000 0.0191469
v -0.0022721 0.0080000 0.0190080
v -0.0022721 0.0048000 0.0190080
v -0.0020393 0.0080000 0.0190519
v -0.0013777 0.0080000 0.0193261
v 0.0036000 0.0080000 0.0196000
v -0.0036000 0.0080000 0.0196000
v 0.0036000 0.0080000 0.0200000
v -0.0036000 0.0080000 0.0200000
v 0.0000000 0.0080000 0.0204000
v 0.0013777 0.0080000 0.0206740
v 0.0013777 0.0048000 0.0206740
v 0.0000000 0.0048000 0.0204000
v 0.0025456 0.0080000 0.0206128
v 0.0025456 0.0048000 0.0206128
v 0.0024818 0.0080000 0.0208531
v 0.0024818 0.0048000 0.0208531
v 0.0022721 0.0080000 0.0209920
v 0.0022721 0.0048000 0.0209920
v 0.0020393 0.0080000 0.0209481
v 0.0020393 0.0048000 0.0209481
v 0.0025456 0.0080000 0.0214544
v 0.0013777 0.0080000 0.0206739
v -0.0013777 0.0048000 0.0206740
v -0.0013777 0.0080000 0.0206740
v -0.0025456 0.0080000 0.0206128
v -0.0025456 0.0048000 0.0206128
v -0.0020393 0.0048000 0.0209481
v -0.0024818 0.0080000 0.0208531
v -0.0024818 0.0048000 0.0208531
v -0.0022721 0.0080000 0.0209920
v -0.0022721 0.0048000 0.0209920
v -0.0020393 0.0080000 0.0209481
v -0.0013777 0.0080000 0.0206739
v -0.0025456 0.0080000 0.0214544
v 0.0033260 0.0080000 0.0226223
v 0.0036000 0.0080000 0.0204000
v -0.0036000 0.0080000 0.0204000
v -0.0033260 0.0080000 0.0226223
f 1 2 3
f 4 1 3
f 2 5 6
f 3 2 6
f 5 7 8
f 6 5 8
f 7 9 10
f 8 7 10
f 9 11 12
f 10 9 12
f 11 13 14
f 12 11 14
f 13 15 16
f 14 13 16
f 15 17 18
f 16 15 18
f 19 1 4
f 20 19 4
f 17 21 22
f 18 17 22
f 21 23 24
f 22 21 24
f 23 25 26
f 24 23 26
f 25 27 28
f 26 25 28
f 27 29 30
f 28 27 30
f 29 31 32
f 30 29 32
f 31 33 34
f 32 31 34
f 33 35 36
f 34 33 36
f 35 19 20
f 36 35 20
f 37 38 39
f 40 37 39
f 41 42 38
f 37 41 38
f 43 44 42
f 41 43 42
f 45 46 44
f 43 45 44
f 47 48 46
f 45 47 46
f 49 50 48
f 47 49 48
f 51 52 50
f 49 51 50
f 53 54 52
f 51 53 52
f 55 56 54
f 53 55 54
f 57 58 56
f 55 57 56
f 59 60 58
f 57 59 58
f 61 62 60
f 59 61 60
f 63 64 62
f 61 63 62
f 65 66 64
f 63 65 64
f 67 68 66
f 65 67 66
f 40 39 68
f 67 40 68
f 19 35 69
f 19 69 70
f 35 33 71
f 35 71 69
f 33 31 72
f 33 72 71
f 31 29 73
f 31 73 72
f 29 27 74
f 29 74 73
f 27 25 75
f 27 75 74
f 25 23 76
f 25 76 75
f 23 21 77
f 23 77 76
f 21 78 79
f 21 79 77
f 78 80 81
f 78 81 79
f 80 82 83
f 80 83 81
f 82 84 85
f 82 85 83
f 84 86 87
f 84 87 85
f 86 88 89
f 86 89 87
f 88 90 91
f 88 91 89
f 90 19 70
f 90 70 91
f 22 24 92
f 22 92 93
f 24 26 94
f 24 94 92
f 26 28 95
f 26 95 94
f 28 30 96
f 28 96 95
f 30 32 97
f 30 97 96
f 32 34 98
f 32 98 97
f 34 36 99
f 34 99 98
f 36 20 100
f 36 100 99
f 20 101 102
f 20 102 100
f 101 103 104
f 101 104 102
f 103 105 106
f 103 106 104
f 105 107 108
f 105 108 106
f 107 109 110
f 107 110 108
f 109 111 112
f 109 112 110
f 111 113 114
f 111 114 112
f 113 22 93
f 113 93 114
f 115 47 45
f 115 45 116
f 117 49 47
f 117 47 115
f 118 51 49
f 118 49 117
f 119 53 51
f 119 51 118
f 120 55 53
f 120 53 119
f 121 57 55
f 121 55 120
f 122 59 57
f 122 57 121
f 123 61 59
f 123 59 122
f 124 63 61
f 124 61 123
f 125 65 63
f 125 63 124
f 126 67 65
f 126 65 125
f 127 40 67
f 127 67 126
f 128 37 40
f 128 40 127
f 129 41 37
f 129 37 128
f 130 43 41
f 130 41 129
f 116 45 43
f 116 43 130
f 69 128 127
f 70 69 127
f 71 129 128
f 69 71 128
f 72 130 129
f 71 72 129
f 73 116 130
f 72 73 130
f 74 115 116
f 73 74 116
f 75 117 115
f 74 75 115
f 76 118 117
f 75 76 117
f 77 119 118
f 76 77 118
f 79 120 119
f 77 79 119
f 81 121 120
f 79 81 120
f 83 122 121
f 81 83 121
f 85 123 122
f 83 85 122
f 87 124 123
f 85 87 123
f 89 125 124
f 87 89 124
f 91 126 125
f 89 91 125
f 70 127 126
f 91 70 126
f 46 48 131
f 132 46 131
f 48 50 133
f 131 48 133
f 50 52 134
f 133 50 134
f 52 54 135
f 134 52 135
f 54 56 136
f 135 54 136
f 56 58 137
f 136 56 137
f 58 60 138
f 137 58 138
f 60 62 139
f 138 60 139
f 62 64 140
f 139 62 140
f 64 66 141
f 140 64 141
f 66 68 142
f 141 66 142
f 68 39 143
f 142 68 143
f 39 38 144
f 143 39 144
f 38 42 145
f 144 38 145
f 42 44 146
f 145 42 146
f 44 46 132
f 146 44 132
f 143 144 99
f 143 99 100
f 144 145 98
f 144 98 99
f 145 146 97
f 145 97 98
f 146 132 96
f 146 96 97
f 132 131 95
f 132 95 96
f 131 133 94
f 131 94 95
f 133 134 92
f 133 92 94
f 134 135 93
f 134 93 92
f 135 136 114
f 135 114 93
f 136 137 112
f 136 112 114
f 137 138 110
f 137 110 112
f 138 139 108
f 138 108 110
f 139 140 106
f 139 106 108
f 140 141 104
f 140 104 106
f 141 142 102
f 141 102 104
f 142 143 100
f 142 100 102
f 147 148 149
f 150 147 149
f 151 152 148
f 147 151 148
f 153 154 152
f 151 153 152
f 155 156 154
f 153 155 154
f 157 158 156
f 155 157 156
f 159 160 158
f 157 159 158
f 161 162 160
f 159 161 160
f 163 164 162
f 161 163 162
f 165 166 164
f 163 165 164
f 167 168 166
f 165 167 166
f 169 170 168
f 167 169 168
f 171 172 170
f 169 171 170
f 173 174 172
f 171 173 172
f 175 176 174
f 173 175 174
f 177 178 176
f 175 177 176
f 150 149 178
f 177 150 178
f 107 105 179
f 180 107 179
f 181 182 183
f 184 181 183
f 183 180 179
f 185 181 184
f 185 184 186
f 187 185 186
f 187 186 188
f 189 187 188
f 189 188 190
f 190 188 186
f 184 190 186
f 103 189 191
f 103 187 189
f 185 187 103
f 181 185 103
f 192 109 107
f 192 107 180
f 193 194 195
f 193 195 196
f 192 193 196
f 197 192 196
f 196 195 198
f 199 196 198
f 199 198 200
f 201 199 200
f 201 200 202
f 197 201 202
f 199 201 197
f 199 197 196
f 203 202 111
f 111 202 200
f 198 111 200
f 195 111 198
f 179 190 184
f 183 179 184
f 180 193 192
f 183 193 180
f 179 191 189
f 190 179 189
f 197 202 109
f 192 197 109
f 101 20 204
f 103 101 204
f 205 22 113
f 205 113 111
f 181 103 204
f 182 181 204
f 206 182 204
f 111 195 205
f 194 207 205
f 195 194 205
f 208 154 156
f 208 156 209
f 183 182 210
f 183 210 211
f 208 209 183
f 211 210 212
f 213 211 212
f 213 212 214
f 215 213 214
f 215 214 216
f 217 215 216
f 213 215 217
f 213 217 211
f 218 216 152
f 216 214 152
f 152 214 212
f 152 212 210
f 156 158 219
f 209 156 219
f 220 194 193
f 221 220 193
f 221 193 219
f 221 219 222
f 223 220 221
f 223 221 224
f 225 223 224
f 225 224 226
f 227 225 226
f 227 226 222
f 222 226 224
f 221 222 224
f 160 227 228
f 225 227 160
f 225 160 223
f 223 160 220
f 211 217 208
f 211 208 183
f 219 193 209
f 209 193 183
f 216 218 208
f 216 208 217
f 158 227 222
f 158 222 219
f 229 149 148
f 229 148 152
f 162 164 230
f 160 162 230
f 229 152 210
f 229 210 182
f 229 182 206
f 230 220 160
f 230 207 194
f 230 194 220
f 231 232 233
f 234 231 233
f 232 235 236
f 233 232 236
f 235 237 238
f 236 235 238
f 237 239 240
f 238 237 240
f 239 241 242
f 240 239 242
f 241 243 244
f 242 241 244
f 243 245 246
f 244 243 246
f 245 247 248
f 246 245 248
f 247 249 250
f 248 247 250
f 249 251 252
f 250 249 252
f 251 253 254
f 252 251 254
f 253 255 256
f 254 253 256
f 255 257 258
f 256 255 258
f 257 259 260
f 258 257 260
f 259 261 262
f 260 259 262
f 261 231 234
f 262 261 234
f 256 258 147
f 256 147 150
f 258 260 151
f 258 151 147
f 260 262 153
f 260 153 151
f 262 234 155
f 262 155 153
f 234 233 157
f 234 157 155
f 233 236 159
f 233 159 157
f 236 238 161
f 236 161 159
f 238 240 163
f 238 163 161
f 240 242 165
f 240 165 163
f 242 244 167
f 242 167 165
f 244 246 169
f 244 169 167
f 246 248 171
f 246 171 169
f 248 250 173
f 248 173 171
f 250 252 175
f 250 175 173
f 252 254 177
f 252 177 175
f 254 256 150
f 254 150 177
f 263 264 257
f 263 257 255
f 264 265 259
f 264 259 257
f 265 266 261
f 265 261 259
f 266 267 231
f 266 231 261
f 267 268 232
f 267 232 231
f 268 269 235
f 268 235 232
f 269 270 237
f 269 237 235
f 270 271 239
f 270 239 237
f 271 272 241
f 271 241 239
f 272 273 243
f 272 243 241
f 273 274 245
f 273 245 243
f 274 275 247
f 274 247 245
f 275 276 249
f 275 249 247
f 276 277 251
f 276 251 249
f 277 278 253
f 277 253 251
f 278 263 255
f 278 255 253
f 279 268 267
f 279 267 280
f 281 269 268
f 281 268 279
f 282 270 269
f 282 269 281
f 283 271 270
f 283 270 282
f 284 272 271
f 284 271 283
f 285 273 272
f 285 272 284
f 286 274 273
f 286 273 285
f 287 275 274
f 287 274 286
f 288 276 275
f 288 275 287
f 289 277 276
f 289 276 288
f 290 278 277
f 290 277 289
f 291 263 278
f 291 278 290
f 292 264 263
f 292 263 291
f 293 265 264
f 293 264 292
f 294 266 265
f 294 265 293
f 280 267 266
f 280 266 294
f 295 292 291
f 296 295 291
f 297 293 292
f 295 297 292
f 298 294 293
f 297 298 293
f 299 280 294
f 298 299 294
f 300 279 280
f 299 300 280
f 301 281 279
f 300 301 279
f 302 282 281
f 301 302 281
f 303 283 282
f 302 303 282
f 304 284 283
f 303 304 283
f 305 285 284
f 304 305 284
f 306 286 285
f 305 306 285
f 307 287 286
f 306 307 286
f 308 288 287
f 307 308 287
f 309 289 288
f 308 309 288
f 310 290 289
f 309 310 289
f 296 291 290
f 310 296 290
f 311 86 84
f 311 84 312
f 313 314 315
f 313 315 316
f 311 312 313
f 316 315 317
f 318 316 317
f 318 317 319
f 320 318 319
f 320 319 321
f 322 320 321
f 318 320 322
f 318 322 316
f 323 321 88
f 321 319 88
f 88 319 317
f 88 317 315
f 84 82 324
f 312 84 324
f 325 326 327
f 328 325 327
f 328 327 324
f 328 324 329
f 330 325 328
f 330 328 331
f 332 330 331
f 332 331 333
f 334 332 333
f 334 333 329
f 329 333 331
f 328 329 331
f 80 334 335
f 332 334 80
f 332 80 330
f 330 80 325
f 316 322 311
f 316 311 313
f 324 327 312
f 312 327 313
f 321 323 311
f 321 311 322
f 82 334 329
f 82 329 324
f 336 19 90
f 336 90 88
f 78 21 337
f 80 78 337
f 336 88 315
f 336 315 314
f 336 314 338
f 337 325 80
f 337 339 326
f 337 326 325
f 340 341 342
f 343 340 342
f 344 314 313
f 345 344 313
f 313 343 342
f 346 344 345
f 346 345 347
f 348 346 347
f 348 347 349
f 350 348 349
f 350 349 351
f 351 349 347
f 345 351 347
f 352 350 353
f 352 348 350
f 346 348 352
f 344 346 352
f 354 355 340
f 354 340 343
f 327 326 356
f 327 356 357
f 354 327 357
f 358 354 357
f 357 356 359
f 360 357 359
f 360 359 361
f 362 360 361
f 362 361 363
f 358 362 363
f 360 362 358
f 360 358 357
f 364 363 365
f 365 363 361
f 359 365 361
f 356 365 359
f 342 351 345
f 313 342 345
f 343 327 354
f 313 327 343
f 342 353 350
f 351 342 350
f 358 363 355
f 354 358 355
f 366 367 368
f 352 366 368
f 369 370 371
f 369 371 365
f 344 352 368
f 314 344 368
f 338 314 368
f 365 356 369
f 326 339 369
f 356 326 369
f 367 366 295
f 367 295 296
f 366 352 297
f 366 297 295
f 352 341 298
f 352 298 297
f 341 340 299
f 341 299 298
f 340 355 300
f 340 300 299
f 355 365 301
f 355 301 300
f 365 371 302
f 365 302 301
f 371 370 303
f 371 303 302
f 370 372 304
f 370 304 303
f 372 373 305
f 372 305 304
f 373 374 306
f 373 306 305
f 374 375 307
f 374 307 306
f 375 376 308
f 375 308 307
f 376 377 309
f 376 309 308
f 377 378 310
f 377 310 309
f 378 367 296
f 378 296 310
f 379 380 381
f 382 379 381
f 383 384 380
f 379 383 380
f 385 386 384
f 383 385 384
f 387 388 386
f 385 387 386
f 389 390 388
f 387 389 388
f 391 392 390
f 389 391 390
f 393 394 392
f 391 393 392
f 395 396 394
f 393 395 394
f 397 398 396
f 395 397 396
f 399 400 398
f 397 399 398
f 401 402 400
f 399 401 400
f 403 404 402
f 401 403 402
f 405 406 404
f 403 405 404
f 407 408 406
f 405 407 406
f 409 410 408
f 407 409 408
f 382 381 410
f 409 382 410
f 172 174 411
f 412 172 411
f 413 414 415
f 416 413 415
f 415 412 411
f 417 413 416
f 417 416 418
f 419 417 418
f 419 418 420
f 421 419 420
f 421 420 422
f 422 420 418
f 416 422 418
f 176 421 423
f 176 419 421
f 417 419 176
f 413 417 176
f 424 170 172
f 424 172 412
f 425 426 427
f 425 427 428
f 424 425 428
f 429 424 428
f 428 427 430
f 431 428 430
f 431 430 432
f 433 431 432
f 433 432 434
f 429 433 434
f 431 433 429
f 431 429 428
f 435 434 168
f 168 434 432
f 430 168 432
f 427 168 430
f 411 422 416
f 415 411 416
f 412 425 424
f 415 425 412
f 411 423 421
f 422 411 421
f 429 434 170
f 424 429 170
f 178 149 436
f 176 178 436
f 437 164 166
f 437 166 168
f 413 176 436
f 414 413 436
f 438 414 436
f 168 427 437
f 426 439 437
f 427 426 437
f 440 386 388
f 440 388 441
f 415 414 442
f 415 442 443
f 440 441 415
f 443 442 444
f 445 443 444
f 445 444 446
f 447 445 446
f 447 446 448
f 449 447 448
f 445 447 449
f 445 449 443
f 450 448 384
f 448 446 384
f 384 446 444
f 384 444 442
f 388 390 451
f 441 388 451
f 452 426 425
f 453 452 425
f 453 425 451
f 453 451 454
f 455 452 453
f 455 453 456
f 457 455 456
f 457 456 458
f 459 457 458
f 459 458 454
f 454 458 456
f 453 454 456
f 392 459 460
f 457 459 392
f 457 392 455
f 455 392 452
f 443 449 440
f 443 440 415
f 451 425 441
f 441 425 415
f 448 450 440
f 448 440 449
f 390 459 454
f 390 454 451
f 461 381 380
f 461 380 384
f 394 396 462
f 392 394 462
f 461 384 442
f 461 442 414
f 461 414 438
f 462 452 392
f 462 439 426
f 462 426 452
f 463 464 465
f 466 463 465
f 464 467 468
f 465 464 468
f 467 469 470
f 468 467 470
f 469 471 472
f 470 469 472
f 471 473 474
f 472 471 474
f 473 475 476
f 474 473 476
f 475 477 478
f 476 475 478
f 477 479 480
f 478 477 480
f 479 481 482
f 480 479 482
f 481 483 484
f 482 481 484
f 483 485 486
f 484 483 486
f 485 487 488
f 486 485 488
f 487 489 490
f 488 487 490
f 489 491 492
f 490 489 492
f 491 493 494
f 492 491 494
f 493 463 466
f 494 493 466
f 488 490 379
f 488 379 382
f 490 492 383
f 490 383 379
f 492 494 385
f 492 385 383
f 494 466 387
f 494 387 385
f 466 465 389
f 466 389 387
f 465 468 391
f 465 391 389
f 468 470 393
f 468 393 391
f 470 472 395
f 470 395 393
f 472 474 397
f 472 397 395
f 474 476 399
f 474 399 397
f 476 478 401
f 476 401 399
f 478 480 403
f 478 403 401
f 480 482 405
f 480 405 403
f 482 484 407
f 482 407 405
f 484 486 409
f 484 409 407
f 486 488 382
f 486 382 409
f 495 496 489
f 495 489 487
f 496 497 491
f 496 491 489
f 497 498 493
f 497 493 491
f 498 499 463
f 498 463 493
f 499 500 464
f 499 464 463
f 500 501 467
f 500 467 464
f 501 502 469
f 501 469 467
f 502 503 471
f 502 471 469
f 503 504 473
f 503 473 471
f 504 505 475
f 504 475 473
f 505 506 477
f 505 477 475
f 506 507 479
f 506 479 477
f 507 508 481
f 507 481 479
f 508 509 483
f 508 483 481
f 509 510 485
f 509 485 483
f 510 495 487
f 510 487 485
f 511 500 499
f 511 499 512
f 513 501 500
f 513 500 511
f 514 502 501
f 514 501 513
f 515 503 502
f 515 502 514
f 516 504 503
f 516 503 515
f 517 505 504
f 517 504 516
f 518 506 505
f 518 505 517
f 519 507 506
f 519 506 518
f 520 508 507
f 520 507 519
f 521 509 508
f 521 508 520
f 522 510 509
f 522 509 521
f 523 495 510
f 523 510 522
f 524 496 495
f 524 495 523
f 525 497 496
f 525 496 524
f 526 498 497
f 526 497 525
f 512 499 498
f 512 498 526
f 527 524 523
f 528 527 523
f 529 525 524
f 527 529 524
f 530 526 525
f 529 530 525
f 531 512 526
f 530 531 526
f 532 511 512
f 531 532 512
f 533 513 511
f 532 533 511
f 534 514 513
f 533 534 513
f 535 515 514
f 534 535 514
f 536 516 515
f 535 536 515
f 537 517 516
f 536 537 516
f 538 518 517
f 537 538 517
f 539 519 518
f 538 539 518
f 540 520 519
f 539 540 519
f 541 521 520
f 540 541 520
f 542 522 521
f 541 542 521
f 528 523 522
f 542 528 522
f 543 376 375
f 543 375 544
f 545 546 547
f 545 547 548
f 543 544 545
f 548 547 549
f 550 548 549
f 550 549 551
f 552 550 551
f 552 551 553
f 554 552 553
f 550 552 554
f 550 554 548
f 555 553 377
f 553 551 377
f 377 551 549
f 377 549 547
f 375 374 556
f 544 375 556
f 557 558 559
f 560 557 559
f 560 559 556
f 560 556 561
f 562 557 560
f 562 560 563
f 564 562 563
f 564 563 565
f 566 564 565
f 566 565 561
f 561 565 563
f 560 561 563
f 373 566 567
f 564 566 373
f 564 373 562
f 562 373 557
f 548 554 543
f 548 543 545
f 556 559 544
f 544 559 545
f 553 555 543
f 553 543 554
f 374 566 561
f 374 561 556
f 568 367 378
f 568 378 377
f 372 370 569
f 373 372 569
f 568 377 547
f 568 547 546
f 568 546 570
f 569 557 373
f 569 571 558
f 569 558 557
f 572 573 574
f 575 572 574
f 576 546 545
f 577 576 545
f 545 575 574
f 578 576 577
f 578 577 579
f 580 578 579
f 580 579 581
f 582 580 581
f 582 581 583
f 583 581 579
f 577 583 579
f 584 582 585
f 584 580 582
f 578 580 584
f 576 578 584
f 586 587 572
f 586 572 575
f 559 558 588
f 559 588 589
f 586 559 589
f 590 586 589
f 589 588 591
f 592 589 591
f 592 591 593
f 594 592 593
f 594 593 595
f 590 594 595
f 592 594 590
f 592 590 589
f 596 595 597
f 597 595 593
f 591 597 593
f 588 597 591
f 574 583 577
f 545 574 577
f 575 559 586
f 545 559 575
f 574 585 582
f 583 574 582
f 590 595 587
f 586 590 587
f 598 599 600
f 584 598 600
f 601 602 603
f 601 603 597
f 576 584 600
f 546 576 600
f 570 546 600
f 597 588 601
f 558 571 601
f 588 558 601
f 599 598 527
f 599 527 528
f 598 584 529
f 598 529 527
f 584 573 530
f 584 530 529
f 573 572 531
f 573 531 530
f 572 587 532
f 572 532 531
f 587 597 533
f 587 533 532
f 597 603 534
f 597 534 533
f 603 602 535
f 603 535 534
f 602 604 536
f 602 536 535
f 604 605 537
f 604 537 536
f 605 606 538
f 605 538 537
f 606 607 539
f 606 539 538
f 607 608 540
f 607 540 539
f 608 609 541
f 608 541 540
f 609 610 542
f 609 542 541
f 610 599 528
f 610 528 542
f 611 612 613
f 614 611 613
f 615 616 612
f 611 615 612
f 617 618 616
f 615 617 616
f 619 620 618
f 617 619 618
f 621 622 620
f 619 621 620
f 623 624 622
f 621 623 622
f 625 626 624
f 623 625 624
f 627 628 626
f 625 627 626
f 629 630 628
f 627 629 628
f 631 632 630
f 629 631 630
f 633 634 632
f 631 633 632
f 635 636 634
f 633 635 634
f 637 638 636
f 635 637 636
f 639 640 638
f 637 639 638
f 641 642 640
f 639 641 640
f 614 613 642
f 641 614 642
f 404 406 643
f 644 404 643
f 645 646 647
f 648 645 647
f 647 644 643
f 649 645 648
f 649 648 650
f 651 649 650
f 651 650 652
f 653 651 652
f 653 652 654
f 654 652 650
f 648 654 650
f 408 653 655
f 408 651 653
f 649 651 408
f 645 649 408
f 656 402 404
f 656 404 644
f 657 658 659
f 657 659 660
f 656 657 660
f 661 656 660
f 660 659 662
f 663 660 662
f 663 662 664
f 665 663 664
f 665 664 666
f 661 665 666
f 663 665 661
f 663 661 660
f 667 666 400
f 400 666 664
f 662 400 664
f 659 400 662
f 643 654 648
f 647 643 648
f 644 657 656
f 647 657 644
f 643 655 653
f 654 643 653
f 661 666 402
f 656 661 402
f 410 381 668
f 408 410 668
f 669 396 398
f 669 398 400
f 645 408 668
f 646 645 668
f 670 646 668
f 400 659 669
f 658 671 669
f 659 658 669
f 672 618 620
f 672 620 673
f 647 646 674
f 647 674 675
f 672 673 647
f 675 674 676
f 677 675 676
f 677 676 678
f 679 677 678
f 679 678 680
f 681 679 680
f 677 679 681
f 677 681 675
f 682 680 616
f 680 678 616
f 616 678 676
f 616 676 674
f 620 622 683
f 673 620 683
f 684 658 657
f 685 684 657
f 685 657 683
f 685 683 686
f 687 684 685
f 687 685 688
f 689 687 688
f 689 688 690
f 691 689 690
f 691 690 686
f 686 690 688
f 685 686 688
f 624 691 692
f 689 691 624
f 689 624 687
f 687 624 684
f 675 681 672
f 675 672 647
f 683 657 673
f 673 657 647
f 680 682 672
f 680 672 681
f 622 691 686
f 622 686 683
f 693 613 612
f 693 612 616
f 626 628 694
f 624 626 694
f 693 616 674
f 693 674 646
f 693 646 670
f 694 684 624
f 694 671 658
f 694 658 684
f 695 696 697
f 698 695 697
f 696 699 700
f 697 696 700
f 699 701 702
f 700 699 702
f 701 703 704
f 702 701 704
f 703 705 706
f 704 703 706
f 705 707 708
f 706 705 708
f 707 709 710
f 708 707 710
f 709 711 712
f 710 709 712
f 711 713 714
f 712 711 714
f 713 715 716
f 714 713 716
f 715 717 718
f 716 715 718
f 717 719 720
f 718 717 720
f 719 721 722
f 720 719 722
f 721 723 724
f 722 721 724
f 723 725 726
f 724 723 726
f 725 695 698
f 726 725 698
f 720 722 611
f 720 611 614
f 722 724 615
f 722 615 611
f 724 726 617
f 724 617 615
f 726 698 619
f 726 619 617
f 698 697 621
f 698 621 619
f 697 700 623
f 697 623 621
f 700 702 625
f 700 625 623
f 702 704 627
f 702 627 625
f 704 706 629
f 704 629 627
f 706 708 631
f 706 631 629
f 708 710 633
f 708 633 631
f 710 712 635
f 710 635 633
f 712 714 637
f 712 637 635
f 714 716 639
f 714 639 637
f 716 718 641
f 716 641 639
f 718 720 614
f 718 614 641
f 727 728 721
f 727 721 719
f 728 729 723
f 728 723 721
f 729 730 725
f 729 725 723
f 730 731 695
f 730 695 725
f 731 732 696
f 731 696 695
f 732 733 699
f 732 699 696
f 733 734 701
f 733 701 699
f 734 735 703
f 734 703 701
f 735 736 705
f 735 705 703
f 736 737 707
f 736 707 705
f 737 738 709
f 737 709 707
f 738 739 711
f 738 711 709
f 739 740 713
f 739 713 711
f 740 741 715
f 740 715 713
f 741 742 717
f 741 717 715
f 742 727 719
f 742 719 717
f 743 732 731
f 743 731 744
f 745 733 732
f 745 732 743
f 746 734 733
f 746 733 745
f 747 735 734
f 747 734 746
f 748 736 735
f 748 735 747
f 749 737 736
f 749 736 748
f 750 738 737
f 750 737 749
f 751 739 738
f 751 738 750
f 752 740 739
f 752 739 751
f 753 741 740
f 753 740 752
f 754 742 741
f 754 741 753
f 755 727 742
f 755 742 754
f 756 728 727
f 756 727 755
f 757 729 728
f 757 728 756
f 758 730 729
f 758 729 757
f 744 731 730
f 744 730 758
f 759 756 755
f 760 759 755
f 761 757 756
f 759 761 756
f 762 758 757
f 761 762 757
f 763 744 758
f 762 763 758
f 764 743 744
f 763 764 744
f 765 745 743
f 764 765 743
f 766 746 745
f 765 766 745
f 767 747 746
f 766 767 746
f 768 748 747
f 767 768 747
f 769 749 748
f 768 769 748
f 770 750 749
f 769 770 749
f 771 751 750
f 770 771 750
f 772 752 751
f 771 772 751
f 773 753 752
f 772 773 752
f 774 754 753
f 773 774 753
f 760 755 754
f 774 760 754
f 775 608 607
f 775 607 776
f 777 778 779
f 777 779 780
f 775 776 777
f 780 779 781
f 782 780 781
f 782 781 783
f 784 782 783
f 784 783 785
f 786 784 785
f 782 784 786
f 782 786 780
f 787 785 609
f 785 783 609
f 609 783 781
f 609 781 779
f 607 606 788
f 776 607 788
f 789 790 791
f 792 789 791
f 792 791 788
f 792 788 793
f 794 789 792
f 794 792 795
f 796 794 795
f 796 795 797
f 798 796 797
f 798 797 793
f 793 797 795
f 792 793 795
f 605 798 799
f 796 798 605
f 796 605 794
f 794 605 789
f 780 786 775
f 780 775 777
f 788 791 776
f 776 791 777
f 785 787 775
f 785 775 786
f 606 798 793
f 606 793 788
f 800 599 610
f 800 610 609
f 604 602 801
f 605 604 801
f 800 609 779
f 800 779 778
f 800 778 802
f 801 789 605
f 801 803 790
f 801 790 789
f 804 805 806
f 807 804 806
f 808 778 777
f 809 808 777
f 777 807 806
f 810 808 809
f 810 809 811
f 812 810 811
f 812 811 813
f 814 812 813
f 814 813 815
f 815 813 811
f 809 815 811
f 816 814 817
f 816 812 814
f 810 812 816
f 808 810 816
f 818 819 804
f 818 804 807
f 791 790 820
f 791 820 821
f 818 791 821
f 822 818 821
f 821 820 823
f 824 821 823
f 824 823 825
f 826 824 825
f 826 825 827
f 822 826 827
f 824 826 822
f 824 822 821
f 828 827 829
f 829 827 825
f 823 829 825
f 820 829 823
f 806 815 809
f 777 806 809
f 807 791 818
f 777 791 807
f 806 817 814
f 815 806 814
f 822 827 819
f 818 822 819
f 830 831 832
f 816 830 832
f 833 834 835
f 833 835 829
f 808 816 832
f 778 808 832
f 802 778 832
f 829 820 833
f 790 803 833
f 820 790 833
f 831 830 759
f 831 759 760
f 830 816 761
f 830 761 759
f 816 805 762
f 816 762 761
f 805 804 763
f 805 763 762
f 804 819 764
f 804 764 763
f 819 829 765
f 819 765 764
f 829 835 766
f 829 766 765
f 835 834 767
f 835 767 766
f 834 836 768
f 834 768 767
f 836 837 769
f 836 769 768
f 837 838 770
f 837 770 769
f 838 839 771
f 838 771 770
f 839 840 772
f 839 772 771
f 840 841 773
f 840 773 772
f 841 842 774
f 841 774 773
f 842 831 760
f 842 760 774
f 843 844 845
f 846 843 845
f 847 848 844
f 843 847 844
f 849 850 848
f 847 849 848
f 851 852 850
f 849 851 850
f 853 854 852
f 851 853 852
f 855 856 854
f 853 855 854
f 857 858 856
f 855 857 856
f 859 860 858
f 857 859 858
f 861 862 860
f 859 861 860
f 863 864 862
f 861 863 862
f 865 866 864
f 863 865 864
f 867 868 866
f 865 867 866
f 869 870 868
f 867 869 868
f 871 872 870
f 869 871 870
f 873 874 872
f 871 873 872
f 846 845 874
f 873 846 874
f 636 638 875
f 876 636 875
f 877 878 879
f 880 877 879
f 879 876 875
f 881 877 880
f 881 880 882
f 883 881 882
f 883 882 884
f 885 883 884
f 885 884 886
f 886 884 882
f 880 886 882
f 640 885 887
f 640 883 885
f 881 883 640
f 877 881 640
f 888 634 636
f 888 636 876
f 889 890 891
f 889 891 892
f 888 889 892
f 893 888 892
f 892 891 894
f 895 892 894
f 895 894 896
f 897 895 896
f 897 896 898
f 893 897 898
f 895 897 893
f 895 893 892
f 899 898 632
f 632 898 896
f 894 632 896
f 891 632 894
f 875 886 880
f 879 875 880
f 876 889 888
f 879 889 876
f 875 887 885
f 886 875 885
f 893 898 634
f 888 893 634
f 642 613 900
f 640 642 900
f 901 628 630
f 901 630 632
f 877 640 900
f 878 877 900
f 902 878 900
f 632 891 901
f 890 903 901
f 891 890 901
f 904 850 852
f 904 852 905
f 879 878 906
f 879 906 907
f 904 905 879
f 907 906 908
f 909 907 908
f 909 908 910
f 911 909 910
f 911 910 912
f 913 911 912
f 909 911 913
f 909 913 907
f 914 912 848
f 912 910 848
f 848 910 908
f 848 908 906
f 852 854 915
f 905 852 915
f 916 890 889
f 917 916 889
f 917 889 915
f 917 915 918
f 919 916 917
f 919 917 920
f 921 919 920
f 921 920 922
f 923 921 922
f 923 922 918
f 918 922 920
f 917 918 920
f 856 923 924
f 921 923 856
f 921 856 919
f 919 856 916
f 907 913 904
f 907 904 879
f 915 889 905
f 905 889 879
f 912 914 904
f 912 904 913
f 854 923 918
f 854 918 915
f 925 845 844
f 925 844 848
f 858 860 926
f 856 858 926
f 925 848 906
f 925 906 878
f 925 878 902
f 926 916 856
f 926 903 890
f 926 890 916
f 927 928 929
f 930 927 929
f 928 931 932
f 929 928 932
f 931 933 934
f 932 931 934
f 933 935 936
f 934 933 936
f 935 937 938
f 936 935 938
f 937 939 940
f 938 937 940
f 939 941 942
f 940 939 942
f 941 943 944
f 942 941 944
f 943 945 946
f 944 943 946
f 945 947 948
f 946 945 948
f 947 949 950
f 948 947 950
f 949 951 952
f 950 949 952
f 951 953 954
f 952 951 954
f 953 955 956
f 954 953 956
f 955 957 958
f 956 955 958
f 957 927 930
f 958 957 930
f 952 954 843
f 952 843 846
f 954 956 847
f 954 847 843
f 956 958 849
f 956 849 847
f 958 930 851
f 958 851 849
f 930 929 853
f 930 853 851
f 929 932 855
f 929 855 853
f 932 934 857
f 932 857 855
f 934 936 859
f 934 859 857
f 936 938 861
f 936 861 859
f 938 940 863
f 938 863 861
f 940 942 865
f 940 865 863
f 942 944 867
f 942 867 865
f 944 946 869
f 944 869 867
f 946 948 871
f 946 871 869
f 948 950 873
f 948 873 871
f 950 952 846
f 950 846 873
f 959 960 953
f 959 953 951
f 960 961 955
f 960 955 953
f 961 962 957
f 961 957 955
f 962 963 927
f 962 927 957
f 963 964 928
f 963 928 927
f 964 965 931
f 964 931 928
f 965 966 933
f 965 933 931
f 966 967 935
f 966 935 933
f 967 968 937
f 967 937 935
f 968 969 939
f 968 939 937
f 969 970 941
f 969 941 939
f 970 971 943
f 970 943 941
f 971 972 945
f 971 945 943
f 972 973 947
f 972 947 945
f 973 974 949
f 973 949 947
f 974 959 951
f 974 951 949
f 975 964 963
f 975 963 976
f 977 965 964
f 977 964 975
f 978 966 965
f 978 965 977
f 979 967 966
f 979 966 978
f 980 968 967
f 980 967 979
f 981 969 968
f 981 968 980
f 982 970 969
f 982 969 981
f 983 971 970
f 983 970 982
f 984 972 971
f 984 971 983
f 985 973 972
f 985 972 984
f 986 974 973
f 986 973 985
f 987 959 974
f 987 974 986
f 988 960 959
f 988 959 987
f 989 961 960
f 989 960 988
f 990 962 961
f 990 961 989
f 976 963 962
f 976 962 990
f 991 988 987
f 992 991 987
f 993 989 988
f 991 993 988
f 994 990 989
f 993 994 989
f 995 976 990
f 994 995 990
f 996 975 976
f 995 996 976
f 997 977 975
f 996 997 975
f 998 978 977
f 997 998 977
f 999 979 978
f 998 999 978
f 1000 980 979
f 999 1000 979
f 1001 981 980
f 1000 1001 980
f 1002 982 981
f 1001 1002 981
f 1003 983 982
f 1002 1003 982
f 1004 984 983
f 1003 1004 983
f 1005 985 984
f 1004 1005 984
f 1006 986 985
f 1005 1006 985
f 992 987 986
f 1006 992 986
f 1007 840 839
f 1007 839 1008
f 1009 1010 1011
f 1009 1011 1012
f 1007 1008 1009
f 1012 1011 1013
f 1014 1012 1013
f 1014 1013 1015
f 1016 1014 1015
f 1016 1015 1017
f 1018 1016 1017
f 1014 1016 1018
f 1014 1018 1012
f 1019 1017 841
f 1017 1015 841
f 841 1015 1013
f 841 1013 1011
f 839 838 1020
f 1008 839 1020
f 1021 1022 1023
f 1024 1021 1023
f 1024 1023 1020
f 1024 1020 1025
f 1026 1021 1024
f 1026 1024 1027
f 1028 1026 1027
f 1028 1027 1029
f 1030 1028 1029
f 1030 1029 1025
f 1025 1029 1027
f 1024 1025 1027
f 837 1030 1031
f 1028 1030 837
f 1028 837 1026
f 1026 837 1021
f 1012 1018 1007
f 1012 1007 1009
f 1020 1023 1008
f 1008 1023 1009
f 1017 1019 1007
f 1017 1007 1018
f 838 1030 1025
f 838 1025 1020
f 1032 831 842
f 1032 842 841
f 836 834 1033
f 837 836 1033
f 1032 841 1011
f 1032 1011 1010
f 1032 1010 1034
f 1033 1021 837
f 1033 1035 1022
f 1033 1022 1021
f 1036 1037 1038
f 1039 1036 1038
f 1040 1010 1009
f 1041 1040 1009
f 1009 1039 1038
f 1042 1040 1041
f 1042 1041 1043
f 1044 1042 1043
f 1044 1043 1045
f 1046 1044 1045
f 1046 1045 1047
f 1047 1045 1043
f 1041 1047 1043
f 1048 1046 1049
f 1048 1044 1046
f 1042 1044 1048
f 1040 1042 1048
f 1050 1051 1036
f 1050 1036 1039
f 1023 1022 1052
f 1023 1052 1053
f 1050 1023 1053
f 1054 1050 1053
f 1053 1052 1055
f 1056 1053 1055
f 1056 1055 1057
f 1058 1056 1057
f 1058 1057 1059
f 1054 1058 1059
f 1056 1058 1054
f 1056 1054 1053
f 1060 1059 1061
f 1061 1059 1057
f 1055 1061 1057
f 1052 1061 1055
f 1038 1047 1041
f 1009 1038 1041
f 1039 1023 1050
f 1009 1023 1039
f 1038 1049 1046
f 1047 1038 1046
f 1054 1059 1051
f 1050 1054 1051
f 1062 1063 1064
f 1048 1062 1064
f 1065 1066 1067
f 1065 1067 1061
f 1040 1048 1064
f 1010 1040 1064
f 1034 1010 1064
f 1061 1052 1065
f 1022 1035 1065
f 1052 1022 1065
f 1063 1062 991
f 1063 991 992
f 1062 1048 993
f 1062 993 991
f 1048 1037 994
f 1048 994 993
f 1037 1036 995
f 1037 995 994
f 1036 1051 996
f 1036 996 995
f 1051 1061 997
f 1051 997 996
f 1061 1067 998
f 1061 998 997
f 1067 1066 999
f 1067 999 998
f 1066 1068 1000
f 1066 1000 999
f 1068 1069 1001
f 1068 1001 1000
f 1069 1070 1002
f 1069 1002 1001
f 1070 1071 1003
f 1070 1003 1002
f 1071 1072 1004
f 1071 1004 1003
f 1072 1073 1005
f 1072 1005 1004
f 1073 1074 1006
f 1073 1006 1005
f 1074 1063 992
f 1074 992 1006
f 1075 1076 1077
f 1078 1075 1077
f 1079 1080 1076
f 1075 1079 1076
f 1081 1082 1080
f 1079 1081 1080
f 1083 1084 1082
f 1081 1083 1082
f 1085 1086 1084
f 1083 1085 1084
f 1087 1088 1086
f 1085 1087 1086
f 1089 1090 1088
f 1087 1089 1088
f 1091 1092 1090
f 1089 1091 1090
f 1093 1094 1092
f 1091 1093 1092
f 1095 1096 1094
f 1093 1095 1094
f 1097 1098 1096
f 1095 1097 1096
f 1099 1100 1098
f 1097 1099 1098
f 1101 1102 1100
f 1099 1101 1100
f 1103 1104 1102
f 1101 1103 1102
f 1105 1106 1104
f 1103 1105 1104
f 1078 1077 1106
f 1105 1078 1106
f 868 870 1107
f 1108 868 1107
f 1109 1110 1111
f 1112 1109 1111
f 1111 1108 1107
f 1113 1109 1112
f 1113 1112 1114
f 1115 1113 1114
f 1115 1114 1116
f 1117 1115 1116
f 1117 1116 1118
f 1118 1116 1114
f 1112 1118 1114
f 872 1117 1119
f 872 1115 1117
f 1113 1115 872
f 1109 1113 872
f 1120 866 868
f 1120 868 1108
f 1121 1122 1123
f 1121 1123 1124
f 1120 1121 1124
f 1125 1120 1124
f 1124 1123 1126
f 1127 1124 1126
f 1127 1126 1128
f 1129 1127 1128
f 1129 1128 1130
f 1125 1129 1130
f 1127 1129 1125
f 1127 1125 1124
f 1131 1130 864
f 864 1130 1128
f 1126 864 1128
f 1123 864 1126
f 1107 1118 1112
f 1111 1107 1112
f 1108 1121 1120
f 1111 1121 1108
f 1107 1119 1117
f 1118 1107 1117
f 1125 1130 866
f 1120 1125 866
f 874 845 1132
f 872 874 1132
f 1133 860 862
f 1133 862 864
f 1109 872 1132
f 1110 1109 1132
f 1134 1110 1132
f 864 1123 1133
f 1122 1135 1133
f 1123 1122 1133
f 1136 1082 1084
f 1136 1084 1137
f 1111 1110 1138
f 1111 1138 1139
f 1136 1137 1111
f 1139 1138 1140
f 1141 1139 1140
f 1141 1140 1142
f 1143 1141 1142
f 1143 1142 1144
f 1145 1143 1144
f 1141 1143 1145
f 1141 1145 1139
f 1146 1144 1080
f 1144 1142 1080
f 1080 1142 1140
f 1080 1140 1138
f 1084 1086 1147
f 1137 1084 1147
f 1148 1122 1121
f 1149 1148 1121
f 1149 1121 1147
f 1149 1147 1150
f 1151 1148 1149
f 1151 1149 1152
f 1153 1151 1152
f 1153 1152 1154
f 1155 1153 1154
f 1155 1154 1150
f 1150 1154 1152
f 1149 1150 1152
f 1088 1155 1156
f 1153 1155 1088
f 1153 1088 1151
f 1151 1088 1148
f 1139 1145 1136
f 1139 1136 1111
f 1147 1121 1137
f 1137 1121 1111
f 1144 1146 1136
f 1144 1136 1145
f 1086 1155 1150
f 1086 1150 1147
f 1157 1077 1076
f 1157 1076 1080
f 1090 1092 1158
f 1088 1090 1158
f 1157 1080 1138
f 1157 1138 1110
f 1157 1110 1134
f 1158 1148 1088
f 1158 1135 1122
f 1158 1122 1148
f 1159 1160 1161
f 1162 1159 1161
f 1160 1163 1164
f 1161 1160 1164
f 1163 1165 1166
f 1164 1163 1166
f 1165 1167 1168
f 1166 1165 1168
f 1167 1169 1170
f 1168 1167 1170
f 1169 1171 1172
f 1170 1169 1172
f 1171 1173 1174
f 1172 1171 1174
f 1173 1175 1176
f 1174 1173 1176
f 1175 1177 1178
f 1176 1175 1178
f 1177 1179 1180
f 1178 1177 1180
f 1179 1181 1182
f 1180 1179 1182
f 1181 1183 1184
f 1182 1181 1184
f 1183 1185 1186
f 1184 1183 1186
f 1185 1187 1188
f 1186 1185 1188
f 1187 1189 1190
f 1188 1187 1190
f 1189 1159 1162
f 1190 1189 1162
f 1184 1186 1075
f 1184 1075 1078
f 1186 1188 1079
f 1186 1079 1075
f 1188 1190 1081
f 1188 1081 1079
f 1190 1162 1083
f 1190 1083 1081
f 1162 1161 1085
f 1162 1085 1083
f 1161 1164 1087
f 1161 1087 1085
f 1164 1166 1089
f 1164 1089 1087
f 1166 1168 1091
f 1166 1091 1089
f 1168 1170 1093
f 1168 1093 1091
f 1170 1172 1095
f 1170 1095 1093
f 1172 1174 1097
f 1172 1097 1095
f 1174 1176 1099
f 1174 1099 1097
f 1176 1178 1101
f 1176 1101 1099
f 1178 1180 1103
f 1178 1103 1101
f 1180 1182 1105
f 1180 1105 1103
f 1182 1184 1078
f 1182 1078 1105
f 1191 1192 1185
f 1191 1185 1183
f 1192 1193 1187
f 1192 1187 1185
f 1193 1194 1189
f 1193 1189 1187
f 1194 1195 1159
f 1194 1159 1189
f 1195 1196 1160
f 1195 1160 1159
f 1196 1197 1163
f 1196 1163 1160
f 1197 1198 1165
f 1197 1165 1163
f 1198 1199 1167
f 1198 1167 1165
f 1199 1200 1169
f 1199 1169 1167
f 1200 1201 1171
f 1200 1171 1169
f 1201 1202 1173
f 1201 1173 1171
f 1202 1203 1175
f 1202 1175 1173
f 1203 1204 1177
f 1203 1177 1175
f 1204 1205 1179
f 1204 1179 1177
f 1205 1206 1181
f 1205 1181 1179
f 1206 1191 1183
f 1206 1183 1181
f 1207 1196 1195
f 1207 1195 1208
f 1209 1197 1196
f 1209 1196 1207
f 1210 1198 1197
f 1210 1197 1209
f 1211 1199 1198
f 1211 1198 1210
f 1212 1200 1199
f 1212 1199 1211
f 1213 1201 1200
f 1213 1200 1212
f 1214 1202 1201
f 1214 1201 1213
f 1215 1203 1202
f 1215 1202 1214
f 1216 1204 1203
f 1216 1203 1215
f 1217 1205 1204
f 1217 1204 1216
f 1218 1206 1205
f 1218 1205 1217
f 1219 1191 1206
f 1219 1206 1218
f 1220 1192 1191
f 1220 1191 1219
f 1221 1193 1192
f 1221 1192 1220
f 1222 1194 1193
f 1222 1193 1221
f 1208 1195 1194
f 1208 1194 1222
f 1223 1220 1219
f 1224 1223 1219
f 1225 1221 1220
f 1223 1225 1220
f 1226 1222 1221
f 1225 1226 1221
f 1227 1208 1222
f 1226 1227 1222
f 1228 1207 1208
f 1227 1228 1208
f 1229 1209 1207
f 1228 1229 1207
f 1230 1210 1209
f 1229 1230 1209
f 1231 1211 1210
f 1230 1231 1210
f 1232 1212 1211
f 1231 1232 1211
f 1233 1213 1212
f 1232 1233 1212
f 1234 1214 1213
f 1233 1234 1213
f 1235 1215 1214
f 1234 1235 1214
f 1236 1216 1215
f 1235 1236 1215
f 1237 1217 1216
f 1236 1237 1216
f 1238 1218 1217
f 1237 1238 1217
f 1224 1219 1218
f 1238 1224 1218
f 1239 1072 1071
f 1239 1071 1240
f 1241 1242 1243
f 1241 1243 1244
f 1239 1240 1241
f 1244 1243 1245
f 1246 1244 1245
f 1246 1245 1247
f 1248 1246 1247
f 1248 1247 1249
f 1250 1248 1249
f 1246 1248 1250
f 1246 1250 1244
f 1251 1249 1073
f 1249 1247 1073
f 1073 1247 1245
f 1073 1245 1243
f 1071 1070 1252
f 1240 1071 1252
f 1253 1254 1255
f 1256 1253 1255
f 1256 1255 1252
f 1256 1252 1257
f 1258 1253 1256
f 1258 1256 1259
f 1260 1258 1259
f 1260 1259 1261
f 1262 1260 1261
f 1262 1261 1257
f 1257 1261 1259
f 1256 1257 1259
f 1069 1262 1263
f 1260 1262 1069
f 1260 1069 1258
f 1258 1069 1253
f 1244 1250 1239
f 1244 1239 1241
f 1252 1255 1240
f 1240 1255 1241
f 1249 1251 1239
f 1249 1239 1250
f 1070 1262 1257
f 1070 1257 1252
f 1264 1063 1074
f 1264 1074 1073
f 1068 1066 1265
f 1069 1068 1265
f 1264 1073 1243
f 1264 1243 1242
f 1264 1242 1266
f 1265 1253 1069
f 1265 1267 1254
f 1265 1254 1253
f 1268 1269 1270
f 1271 1268 1270
f 1272 1242 1241
f 1273 1272 1241
f 1241 1271 1270
f 1274 1272 1273
f 1274 1273 1275
f 1276 1274 1275
f 1276 1275 1277
f 1278 1276 1277
f 1278 1277 1279
f 1279 1277 1275
f 1273 1279 1275
f 1280 1278 1281
f 1280 1276 1278
f 1274 1276 1280
f 1272 1274 1280
f 1282 1283 1268
f 1282 1268 1271
f 1255 1254 1284
f 1255 1284 1285
f 1282 1255 1285
f 1286 1282 1285
f 1285 1284 1287
f 1288 1285 1287
f 1288 1287 1289
f 1290 1288 1289
f 1290 1289 1291
f 1286 1290 1291
f 1288 1290 1286
f 1288 1286 1285
f 1292 1291 1293
f 1293 1291 1289
f 1287 1293 1289
f 1284 1293 1287
f 1270 1279 1273
f 1241 1270 1273
f 1271 1255 1282
f 1241 1255 1271
f 1270 1281 1278
f 1279 1270 1278
f 1286 1291 1283
f 1282 1286 1283
f 1294 1295 1296
f 1280 1294 1296
f 1297 1298 1299
f 1297 1299 1293
f 1272 1280 1296
f 1242 1272 1296
f 1266 1242 1296
f 1293 1284 1297
f 1254 1267 1297
f 1284 1254 1297
f 1295 1294 1223
f 1295 1223 1224
f 1294 1280 1225
f 1294 1225 1223
f 1280 1269 1226
f 1280 1226 1225
f 1269 1268 1227
f 1269 1227 1226
f 1268 1283 1228
f 1268 1228 1227
f 1283 1293 1229
f 1283 1229 1228
f 1293 1299 1230
f 1293 1230 1229
f 1299 1298 1231
f 1299 1231 1230
f 1298 1300 1232
f 1298 1232 1231
f 1300 1301 1233
f 1300 1233 1232
f 1301 1302 1234
f 1301 1234 1233
f 1302 1303 1235
f 1302 1235 1234
f 1303 1304 1236
f 1303 1236 1235
f 1304 1305 1237
f 1304 1237 1236
f 1305 1306 1238
f 1305 1238 1237
f 1306 1295 1224
f 1306 1224 1238
f 1307 1308 4
f 1309 1307 4
f 1310 1311 1308
f 1307 1310 1308
f 1312 1313 1311
f 1310 1312 1311
f 1314 1315 1313
f 1312 1314 1313
f 1316 1317 1315
f 1314 1316 1315
f 1318 1319 1317
f 1316 1318 1317
f 1320 1321 1319
f 1318 1320 1319
f 1322 18 1321
f 1320 1322 1321
f 1323 16 18
f 1322 1323 18
f 1324 14 16
f 1323 1324 16
f 1325 12 14
f 1324 1325 14
f 1326 10 12
f 1325 1326 12
f 1327 8 10
f 1326 1327 10
f 1328 6 8
f 1327 1328 8
f 1329 3 6
f 1328 1329 6
f 1309 4 3
f 1329 1309 3
f 1100 1102 1330
f 1331 1100 1330
f 1332 1333 1334
f 1335 1332 1334
f 1334 1331 1330
f 1336 1332 1335
f 1336 1335 1337
f 1338 1336 1337
f 1338 1337 1339
f 1340 1338 1339
f 1340 1339 1341
f 1341 1339 1337
f 1335 1341 1337
f 1104 1340 1342
f 1104 1338 1340
f 1336 1338 1104
f 1332 1336 1104
f 1343 1098 1100
f 1343 1100 1331
f 1344 1345 1346
f 1344 1346 1347
f 1343 1344 1347
f 1348 1343 1347
f 1347 1346 1349
f 1350 1347 1349
f 1350 1349 1351
f 1352 1350 1351
f 1352 1351 1353
f 1348 1352 1353
f 1350 1352 1348
f 1350 1348 1347
f 1354 1353 1096
f 1096 1353 1351
f 1349 1096 1351
f 1346 1096 1349
f 1330 1341 1335
f 1334 1330 1335
f 1331 1344 1343
f 1334 1344 1331
f 1330 1342 1340
f 1341 1330 1340
f 1348 1353 1098
f 1343 1348 1098
f 1106 1077 1355
f 1104 1106 1355
f 1356 1092 1094
f 1356 1094 1096
f 1332 1104 1355
f 1333 1332 1355
f 1357 1333 1355
f 1096 1346 1356
f 1345 1358 1356
f 1346 1345 1356
f 1359 1313 1315
f 1359 1315 1360
f 1334 1333 1361
f 1334 1361 1362
f 1359 1360 1334
f 1362 1361 1363
f 1364 1362 1363
f 1364 1363 1365
f 1366 1364 1365
f 1366 1365 1367
f 1368 1366 1367
f 1364 1366 1368
f 1364 1368 1362
f 1369 1367 1311
f 1367 1365 1311
f 1311 1365 1363
f 1311 1363 1361
f 1315 1317 1370
f 1360 1315 1370
f 1371 1345 1344
f 1372 1371 1344
f 1372 1344 1370
f 1372 1370 1373
f 1374 1371 1372
f 1374 1372 1375
f 1376 1374 1375
f 1376 1375 1377
f 1378 1376 1377
f 1378 1377 1373
f 1373 1377 1375
f 1372 1373 1375
f 1319 1378 1379
f 1376 1378 1319
f 1376 1319 1374
f 1374 1319 1371
f 1362 1368 1359
f 1362 1359 1334
f 1370 1344 1360
f 1360 1344 1334
f 1367 1369 1359
f 1367 1359 1368
f 1317 1378 1373
f 1317 1373 1370
f 1380 4 1308
f 1380 1308 1311
f 1321 18 1381
f 1319 1321 1381
f 1380 1311 1361
f 1380 1361 1333
f 1380 1333 1357
f 1381 1371 1319
f 1381 1358 1345
f 1381 1345 1371
f 1382 1383 1384
f 1385 1382 1384
f 1383 1386 1387
f 1384 1383 1387
f 1386 1388 1389
f 1387 1386 1389
f 1388 1390 1391
f 1389 1388 1391
f 1390 1392 1393
f 1391 1390 1393
f 1392 1394 1395
f 1393 1392 1395
f 1394 1396 1397
f 1395 1394 1397
f 1396 1398 1399
f 1397 1396 1399
f 1398 1400 1401
f 1399 1398 1401
f 1400 1402 1403
f 1401 1400 1403
f 1402 1404 1405
f 1403 1402 1405
f 1404 1406 1407
f 1405 1404 1407
f 1406 1408 1409
f 1407 1406 1409
f 1408 1410 1411
f 1409 1408 1411
f 1410 1412 1413
f 1411 1410 1413
f 1412 1382 1385
f 1413 1412 1385
f 1407 1409 1307
f 1407 1307 1309
f 1409 1411 1310
f 1409 1310 1307
f 1411 1413 1312
f 1411 1312 1310
f 1413 1385 1314
f 1413 1314 1312
f 1385 1384 1316
f 1385 1316 1314
f 1384 1387 1318
f 1384 1318 1316
f 1387 1389 1320
f 1387 1320 1318
f 1389 1391 1322
f 1389 1322 1320
f 1391 1393 1323
f 1391 1323 1322
f 1393 1395 1324
f 1393 1324 1323
f 1395 1397 1325
f 1395 1325 1324
f 1397 1399 1326
f 1397 1326 1325
f 1399 1401 1327
f 1399 1327 1326
f 1401 1403 1328
f 1401 1328 1327
f 1403 1405 1329
f 1403 1329 1328
f 1405 1407 1309
f 1405 1309 1329
f 1414 1415 1408
f 1414 1408 1406
f 1415 1416 1410
f 1415 1410 1408
f 1416 1417 1412
f 1416 1412 1410
f 1417 1418 1382
f 1417 1382 1412
f 1418 1419 1383
f 1418 1383 1382
f 1419 1420 1386
f 1419 1386 1383
f 1420 1421 1388
f 1420 1388 1386
f 1421 1422 1390
f 1421 1390 1388
f 1422 1423 1392
f 1422 1392 1390
f 1423 1424 1394
f 1423 1394 1392
f 1424 1425 1396
f 1424 1396 1394
f 1425 1426 1398
f 1425 1398 1396
f 1426 1427 1400
f 1426 1400 1398
f 1427 1428 1402
f 1427 1402 1400
f 1428 1429 1404
f 1428 1404 1402
f 1429 1414 1406
f 1429 1406 1404
f 1430 1419 1418
f 1430 1418 1431
f 1432 1420 1419
f 1432 1419 1430
f 1433 1421 1420
f 1433 1420 1432
f 1434 1422 1421
f 1434 1421 1433
f 1435 1423 1422
f 1435 1422 1434
f 1436 1424 1423
f 1436 1423 1435
f 1437 1425 1424
f 1437 1424 1436
f 1438 1426 1425
f 1438 1425 1437
f 1439 1427 1426
f 1439 1426 1438
f 1440 1428 1427
f 1440 1427 1439
f 1441 1429 1428
f 1441 1428 1440
f 1442 1414 1429
f 1442 1429 1441
f 1443 1415 1414
f 1443 1414 1442
f 1444 1416 1415
f 1444 1415 1443
f 1445 1417 1416
f 1445 1416 1444
f 1431 1418 1417
f 1431 1417 1445
f 1446 1443 1442
f 1447 1446 1442
f 1448 1444 1443
f 1446 1448 1443
f 1449 1445 1444
f 1448 1449 1444
f 1450 1431 1445
f 1449 1450 1445
f 1451 1430 1431
f 1450 1451 1431
f 1452 1432 1430
f 1451 1452 1430
f 1453 1433 1432
f 1452 1453 1432
f 1454 1434 1433
f 1453 1454 1433
f 1455 1435 1434
f 1454 1455 1434
f 1456 1436 1435
f 1455 1456 1435
f 1457 1437 1436
f 1456 1457 1436
f 1458 1438 1437
f 1457 1458 1437
f 1459 1439 1438
f 1458 1459 1438
f 1460 1440 1439
f 1459 1460 1439
f 1461 1441 1440
f 1460 1461 1440
f 1447 1442 1441
f 1461 1447 1441
f 1462 1304 1303
f 1462 1303 1463
f 1464 1465 1466
f 1464 1466 1467
f 1462 1463 1464
f 1467 1466 1468
f 1469 1467 1468
f 1469 1468 1470
f 1471 1469 1470
f 1471 1470 1472
f 1473 1471 1472
f 1469 1471 1473
f 1469 1473 1467
f 1474 1472 1305
f 1472 1470 1305
f 1305 1470 1468
f 1305 1468 1466
f 1303 1302 1475
f 1463 1303 1475
f 1476 1477 1478
f 1479 1476 1478
f 1479 1478 1475
f 1479 1475 1480
f 1481 1476 1479
f 1481 1479 1482
f 1483 1481 1482
f 1483 1482 1484
f 1485 1483 1484
f 1485 1484 1480
f 1480 1484 1482
f 1479 1480 1482
f 1301 1485 1486
f 1483 1485 1301
f 1483 1301 1481
f 1481 1301 1476
f 1467 1473 1462
f 1467 1462 1464
f 1475 1478 1463
f 1463 1478 1464
f 1472 1474 1462
f 1472 1462 1473
f 1302 1485 1480
f 1302 1480 1475
f 1487 1295 1306
f 1487 1306 1305
f 1300 1298 1488
f 1301 1300 1488
f 1487 1305 1466
f 1487 1466 1465
f 1487 1465 1489
f 1488 1476 1301
f 1488 1490 1477
f 1488 1477 1476
f 1491 1492 1493
f 1494 1491 1493
f 1495 1465 1464
f 1496 1495 1464
f 1464 1494 1493
f 1497 1495 1496
f 1497 1496 1498
f 1499 1497 1498
f 1499 1498 1500
f 1501 1499 1500
f 1501 1500 1502
f 1502 1500 1498
f 1496 1502 1498
f 1503 1501 1504
f 1503 1499 1501
f 1497 1499 1503
f 1495 1497 1503
f 1505 1506 1491
f 1505 1491 1494
f 1478 1477 1507
f 1478 1507 1508
f 1505 1478 1508
f 1509 1505 1508
f 1508 1507 1510
f 1511 1508 1510
f 1511 1510 1512
f 1513 1511 1512
f 1513 1512 1514
f 1509 1513 1514
f 1511 1513 1509
f 1511 1509 1508
f 1515 1514 1516
f 1516 1514 1512
f 1510 1516 1512
f 1507 1516 1510
f 1493 1502 1496
f 1464 1493 1496
f 1494 1478 1505
f 1464 1478 1494
f 1493 1504 1501
f 1502 1493 1501
f 1509 1514 1506
f 1505 1509 1506
f 1517 1 1518
f 1503 1517 1518
f 1519 17 1520
f 1519 1520 1516
f 1495 1503 1518
f 1465 1495 1518
f 1489 1465 1518
f 1516 1507 1519
f 1477 1490 1519
f 1507 1477 1519
f 1 1517 1446
f 1 1446 1447
f 1517 1503 1448
f 1517 1448 1446
f 1503 1492 1449
f 1503 1449 1448
f 1492 1491 1450
f 1492 1450 1449
f 1491 1506 1451
f 1491 1451 1450
f 1506 1516 1452
f 1506 1452 1451
f 1516 1520 1453
f 1516 1453 1452
f 1520 17 1454
f 1520 1454 1453
f 17 15 1455
f 17 1455 1454
f 15 13 1456
f 15 1456 1455
f 13 11 1457
f 13 1457 1456
f 11 9 1458
f 11 1458 1457
f 9 7 1459
f 9 1459 1458
f 7 5 1460
f 7 1460 1459
f 5 2 1461
f 5 1461 1460
f 2 1 1447
f 2 1447 1461
