# Botball Lab: metres, +Y up, centred XZ, base Y=0
s off
v -0.0065218 0.0000000 -0.0006123
v -0.0064000 0.0000000 -0.0000000
v -0.0080000 0.0000000 -0.0000000
v -0.0068686 0.0000000 -0.0011314
v -0.0073877 0.0000000 -0.0014782
v -0.0080000 0.0000000 -0.0016000
v -0.0086123 0.0000000 -0.0014782
v -0.0091314 0.0000000 -0.0011314
v -0.0094782 0.0000000 -0.0006123
v -0.0096000 0.0000000 -0.0000000
v -0.0094782 0.0000000 0.0006123
v -0.0091314 0.0000000 0.0011314
v -0.0086123 0.0000000 0.0014782
v -0.0080000 0.0000000 0.0016000
v -0.0073877 0.0000000 0.0014782
v -0.0068686 0.0000000 0.0011314
v -0.0065218 0.0000000 0.0006123
v -0.0065218 0.0016000 -0.0006123
v -0.0064000 0.0016000 -0.0000000
v -0.0068686 0.0016000 -0.0011314
v -0.0073877 0.0016000 -0.0014782
v -0.0080000 0.0016000 -0.0016000
v -0.0086123 0.0016000 -0.0014782
v -0.0091314 0.0016000 -0.0011314
v -0.0094782 0.0016000 -0.0006123
v -0.0096000 0.0016000 -0.0000000
v -0.0094782 0.0016000 0.0006123
v -0.0091314 0.0016000 0.0011314
v -0.0086123 0.0016000 0.0014782
v -0.0080000 0.0016000 0.0016000
v -0.0073877 0.0016000 0.0014782
v -0.0068686 0.0016000 0.0011314
v -0.0065218 0.0016000 0.0006123
v 0.0014782 0.0000000 -0.0006123
v 0.0016000 0.0000000 -0.0000000
v 0.0000000 0.0000000 -0.0000000
v 0.0011314 0.0000000 -0.0011314
v 0.0006123 0.0000000 -0.0014782
v 0.0000000 0.0000000 -0.0016000
v -0.0006123 0.0000000 -0.0014782
v -0.0011314 0.0000000 -0.0011314
v -0.0014782 0.0000000 -0.0006123
v -0.0016000 0.0000000 -0.0000000
v -0.0014782 0.0000000 0.0006123
v -0.0011314 0.0000000 0.0011314
v -0.0006123 0.0000000 0.0014782
v 0.0000000 0.0000000 0.0016000
v 0.0006123 0.0000000 0.0014782
v 0.0011314 0.0000000 0.0011314
v 0.0014782 0.0000000 0.0006123
v 0.0014782 0.0016000 -0.0006123
v 0.0016000 0.0016000 -0.0000000
v 0.0011314 0.0016000 -0.0011314
v 0.0006123 0.0016000 -0.0014782
v 0.0000000 0.0016000 -0.0016000
v -0.0006123 0.0016000 -0.0014782
v -0.0011314 0.0016000 -0.0011314
v -0.0014782 0.0016000 -0.0006123
v -0.0016000 0.0016000 -0.0000000
v -0.0014782 0.0016000 0.0006123
v -0.0011314 0.0016000 0.0011314
v -0.0006123 0.0016000 0.0014782
v 0.0000000 0.0016000 0.0016000
v 0.0006123 0.0016000 0.0014782
v 0.0011314 0.0016000 0.0011314
v 0.0014782 0.0016000 0.0006123
v 0.0094782 0.0000000 -0.0006123
v 0.0096000 0.0000000 -0.0000000
v 0.0080000 0.0000000 -0.0000000
v 0.0091314 0.0000000 -0.0011314
v 0.0086123 0.0000000 -0.0014782
v 0.0080000 0.0000000 -0.0016000
v 0.0073877 0.0000000 -0.0014782
v 0.0068686 0.0000000 -0.0011314
v 0.0065218 0.0000000 -0.0006123
v 0.0064000 0.0000000 -0.0000000
v 0.0065218 0.0000000 0.0006123
v 0.0068686 0.0000000 0.0011314
v 0.0073877 0.0000000 0.0014782
v 0.0080000 0.0000000 0.0016000
v 0.0086123 0.0000000 0.0014782
v 0.0091314 0.0000000 0.0011314
v 0.0094782 0.0000000 0.0006123
v 0.0094782 0.0016000 -0.0006123
v 0.0096000 0.0016000 -0.0000000
v 0.0091314 0.0016000 -0.0011314
v 0.0086123 0.0016000 -0.0014782
v 0.0080000 0.0016000 -0.0016000
v 0.0073877 0.0016000 -0.0014782
v 0.0068686 0.0016000 -0.0011314
v 0.0065218 0.0016000 -0.0006123
v 0.0064000 0.0016000 -0.0000000
v 0.0065218 0.0016000 0.0006123
v 0.0068686 0.0016000 0.0011314
v 0.0073877 0.0016000 0.0014782
v 0.0080000 0.0016000 0.0016000
v 0.0086123 0.0016000 0.0014782
v 0.0091314 0.0016000 0.0011314
v 0.0094782 0.0016000 0.0006123
v -0.0144000 0.0016000 -0.0024000
v 0.0144000 0.0016000 -0.0024000
v 0.0144000 0.0016000 0.0024000
v -0.0144000 0.0016000 0.0024000
v -0.0144000 0.0000000 -0.0024000
v 0.0144000 0.0000000 -0.0024000
v -0.0144000 0.0000000 0.0024000
v 0.0144000 0.0000000 0.0024000
v 0.0160000 0.0000000 -0.0040000
v -0.0160000 0.0000000 -0.0040000
v -0.0160000 0.0000000 0.0040000
v 0.0160000 0.0000000 0.0040000
v -0.0160000 0.0032000 0.0040000
v 0.0160000 0.0032000 0.0040000
v 0.0160000 0.0032000 -0.0040000
v -0.0160000 0.0032000 -0.0040000
v -0.0097826 0.0032000 -0.0009185
v -0.0097826 0.0048000 -0.0009185
v -0.0096000 0.0048000 -0.0000000
v -0.0096000 0.0032000 -0.0000000
v -0.0103030 0.0032000 -0.0016970
v -0.0103030 0.0048000 -0.0016970
v -0.0110815 0.0032000 -0.0022174
v -0.0110815 0.0048000 -0.0022174
v -0.0120000 0.0032000 -0.0024000
v -0.0120000 0.0048000 -0.0024000
v -0.0129185 0.0032000 -0.0022174
v -0.0129185 0.0048000 -0.0022174
v -0.0136970 0.0032000 -0.0016970
v -0.0136970 0.0048000 -0.0016970
v -0.0142174 0.0032000 -0.0009185
v -0.0142174 0.0048000 -0.0009185
v -0.0144000 0.0032000 -0.0000000
v -0.0144000 0.0048000 -0.0000000
v -0.0142174 0.0032000 0.0009185
v -0.0142174 0.0048000 0.0009185
v -0.0136970 0.0032000 0.0016970
v -0.0136970 0.0048000 0.0016970
v -0.0129185 0.0032000 0.0022174
v -0.0129185 0.0048000 0.0022174
v -0.0120000 0.0032000 0.0024000
v -0.0120000 0.0048000 0.0024000
v -0.0110815 0.0032000 0.0022174
v -0.0110815 0.0048000 0.0022174
v -0.0103030 0.0032000 0.0016970
v -0.0103030 0.0048000 0.0016970
v -0.0097826 0.0032000 0.0009185
v -0.0097826 0.0048000 0.0009185
v -0.0120000 0.0048000 -0.0000000
v -0.0017826 0.0032000 -0.0009185
v -0.0017826 0.0048000 -0.0009185
v -0.0016000 0.0048000 -0.0000000
v -0.0016000 0.0032000 -0.0000000
v -0.0023030 0.0032000 -0.0016970
v -0.0023030 0.0048000 -0.0016970
v -0.0030815 0.0032000 -0.0022174
v -0.0030815 0.0048000 -0.0022174
v -0.0040000 0.0032000 -0.0024000
v -0.0040000 0.0048000 -0.0024000
v -0.0049185 0.0032000 -0.0022174
v -0.0049185 0.0048000 -0.0022174
v -0.0056970 0.0032000 -0.0016970
v -0.0056970 0.0048000 -0.0016970
v -0.0062174 0.0032000 -0.0009185
v -0.0062174 0.0048000 -0.0009185
v -0.0064000 0.0032000 -0.0000000
v -0.0064000 0.0048000 -0.0000000
v -0.0062174 0.0032000 0.0009185
v -0.0062174 0.0048000 0.0009185
v -0.0056970 0.0032000 0.0016970
v -0.0056970 0.0048000 0.0016970
v -0.0049185 0.0032000 0.0022174
v -0.0049185 0.0048000 0.0022174
v -0.0040000 0.0032000 0.0024000
v -0.0040000 0.0048000 0.0024000
v -0.0030815 0.0032000 0.0022174
v -0.0030815 0.0048000 0.0022174
v -0.0023030 0.0032000 0.0016970
v -0.0023030 0.0048000 0.0016970
v -0.0017826 0.0032000 0.0009185
v -0.0017826 0.0048000 0.0009185
v -0.0040000 0.0048000 -0.0000000
v 0.0062174 0.0032000 -0.0009185
v 0.0062174 0.0048000 -0.0009185
v 0.0064000 0.0048000 -0.0000000
v 0.0064000 0.0032000 -0.0000000
v 0.0056970 0.0032000 -0.0016970
v 0.0056970 0.0048000 -0.0016970
v 0.0049185 0.0032000 -0.0022174
v 0.0049185 0.0048000 -0.0022174
v 0.0040000 0.0032000 -0.0024000
v 0.0040000 0.0048000 -0.0024000
v 0.0030815 0.0032000 -0.0022174
v 0.0030815 0.0048000 -0.0022174
v 0.0023030 0.0032000 -0.0016970
v 0.0023030 0.0048000 -0.0016970
v 0.0017826 0.0032000 -0.0009185
v 0.0017826 0.0048000 -0.0009185
v 0.0016000 0.0032000 -0.0000000
v 0.0016000 0.0048000 -0.0000000
v 0.0017826 0.0032000 0.0009185
v 0.0017826 0.0048000 0.0009185
v 0.0023030 0.0032000 0.0016970
v 0.0023030 0.0048000 0.0016970
v 0.0030815 0.0032000 0.0022174
v 0.0030815 0.0048000 0.0022174
v 0.0040000 0.0032000 0.0024000
v 0.0040000 0.0048000 0.0024000
v 0.0049185 0.0032000 0.0022174
v 0.0049185 0.0048000 0.0022174
v 0.0056970 0.0032000 0.0016970
v 0.0056970 0.0048000 0.0016970
v 0.0062174 0.0032000 0.0009185
v 0.0062174 0.0048000 0.0009185
v 0.0040000 0.0048000 -0.0000000
v 0.0142174 0.0032000 -0.0009185
v 0.0142174 0.0048000 -0.0009185
v 0.0144000 0.0048000 -0.0000000
v 0.0144000 0.0032000 -0.0000000
v 0.0136970 0.0032000 -0.0016970
v 0.0136970 0.0048000 -0.0016970
v 0.0129185 0.0032000 -0.0022174
v 0.0129185 0.0048000 -0.0022174
v 0.0120000 0.0032000 -0.0024000
v 0.0120000 0.0048000 -0.0024000
v 0.0110815 0.0032000 -0.0022174
v 0.0110815 0.0048000 -0.0022174
v 0.0103030 0.0032000 -0.0016970
v 0.0103030 0.0048000 -0.0016970
v 0.0097826 0.0032000 -0.0009185
v 0.0097826 0.0048000 -0.0009185
v 0.0096000 0.0032000 -0.0000000
v 0.0096000 0.0048000 -0.0000000
v 0.0097826 0.0032000 0.0009185
v 0.0097826 0.0048000 0.0009185
v 0.0103030 0.0032000 0.0016970
v 0.0103030 0.0048000 0.0016970
v 0.0110815 0.0032000 0.0022174
v 0.0110815 0.0048000 0.0022174
v 0.0120000 0.0032000 0.0024000
v 0.0120000 0.0048000 0.0024000
v 0.0129185 0.0032000 0.0022174
v 0.0129185 0.0048000 0.0022174
v 0.0136970 0.0032000 0.0016970
v 0.0136970 0.0048000 0.0016970
v 0.0142174 0.0032000 0.0009185
v 0.0142174 0.0048000 0.0009185
v 0.0120000 0.0048000 -0.0000000
vn 0.0 -1.0 0.0
vn 0.9471789 0.0 -0.3207056
vn 0.8965572 0.0 -0.442928
vn 0.9978089 0.0 -0.0661621
vn 0.9978089 0.0 0.0661621
vn 0.7523546 0.0 -0.6587584
vn 0.6587584 0.0 -0.7523546
vn 0.442928 0.0 -0.8965572
vn 0.3207056 0.0 -0.9471789
vn 0.0661621 0.0 -0.9978089
vn -0.0661621 0.0 -0.9978089
vn -0.3207056 0.0 -0.9471789
vn -0.442928 0.0 -0.8965572
vn -0.6587584 0.0 -0.7523546
vn -0.7523546 0.0 -0.6587584
vn -0.8965572 0.0 -0.442928
vn -0.9471789 0.0 -0.3207056
vn -0.9978089 0.0 -0.0661621
vn -0.9978089 0.0 0.0661621
vn -0.9471789 0.0 0.3207056
vn -0.8965572 0.0 0.442928
vn -0.7523546 0.0 0.6587584
vn -0.6587584 0.0 0.7523546
vn -0.442928 0.0 0.8965572
vn -0.3207056 0.0 0.9471789
vn -0.0661621 0.0 0.9978089
vn 0.0661621 0.0 0.9978089
vn 0.3207056 0.0 0.9471789
vn 0.442928 0.0 0.8965572
vn 0.6587584 0.0 0.7523546
vn 0.7523546 0.0 0.6587584
vn 0.8965572 0.0 0.442928
vn 0.9471789 0.0 0.3207056
vn 0.0 0.0 1.0
vn 1.0 0.0 0.0
vn 0.0 0.0 -1.0
vn -1.0 0.0 0.0
vn 0.0 1.0 0.0
vn 0.947177 0.0 -0.3207111
vn 0.8964963 0.0 -0.4430513
vn 0.9978115 0.0 -0.0661224
vn 0.9978115 0.0 0.0661224
vn 0.752294 0.0 -0.6588276
vn 0.6588276 0.0 -0.752294
vn 0.4430513 0.0 -0.8964963
vn 0.3207111 0.0 -0.947177
vn 0.0661224 0.0 -0.9978115
vn -0.0661224 0.0 -0.9978115
vn -0.3207111 0.0 -0.947177
vn -0.4430513 0.0 -0.8964963
vn -0.6588276 0.0 -0.752294
vn -0.752294 0.0 -0.6588276
vn -0.8964963 0.0 -0.4430513
vn -0.947177 0.0 -0.3207111
vn -0.9978115 0.0 -0.0661224
vn -0.9978115 0.0 0.0661224
vn -0.947177 0.0 0.3207111
vn -0.8964963 0.0 0.4430513
vn -0.752294 0.0 0.6588276
vn -0.6588276 0.0 0.752294
vn -0.4430513 0.0 0.8964963
vn -0.3207111 0.0 0.947177
vn -0.0661224 0.0 0.9978115
vn 0.0661224 0.0 0.9978115
vn 0.3207111 0.0 0.947177
vn 0.4430513 0.0 0.8964963
vn 0.6588276 0.0 0.752294
vn 0.752294 0.0 0.6588276
vn 0.8964963 0.0 0.4430513
vn 0.947177 0.0 0.3207111
f 1//1 2//1 3//1
f 4//1 1//1 3//1
f 5//1 4//1 3//1
f 6//1 5//1 3//1
f 7//1 6//1 3//1
f 8//1 7//1 3//1
f 9//1 8//1 3//1
f 10//1 9//1 3//1
f 11//1 10//1 3//1
f 12//1 11//1 3//1
f 13//1 12//1 3//1
f 14//1 13//1 3//1
f 15//1 14//1 3//1
f 16//1 15//1 3//1
f 17//1 16//1 3//1
f 2//1 17//1 3//1
f 1//2 18//3 19//4
f 2//5 1//2 19//4
f 4//6 20//7 18//3
f 1//2 4//6 18//3
f 5//8 21//9 20//7
f 4//6 5//8 20//7
f 6//10 22//11 21//9
f 5//8 6//10 21//9
f 7//12 23//13 22//11
f 6//10 7//12 22//11
f 8//14 24//15 23//13
f 7//12 8//14 23//13
f 9//16 25//17 24//15
f 8//14 9//16 24//15
f 10//18 26//19 25//17
f 9//16 10//18 25//17
f 11//20 27//21 26//19
f 10//18 11//20 26//19
f 12//22 28//23 27//21
f 11//20 12//22 27//21
f 13//24 29//25 28//23
f 12//22 13//24 28//23
f 14//26 30//27 29//25
f 13//24 14//26 29//25
f 15//28 31//29 30//27
f 14//26 15//28 30//27
f 16//30 32//31 31//29
f 15//28 16//30 31//29
f 17//32 33//33 32//31
f 16//30 17//32 32//31
f 2//5 19//4 33//33
f 17//32 2//5 33//33
f 34//1 35//1 36//1
f 37//1 34//1 36//1
f 38//1 37//1 36//1
f 39//1 38//1 36//1
f 40//1 39//1 36//1
f 41//1 40//1 36//1
f 42//1 41//1 36//1
f 43//1 42//1 36//1
f 44//1 43//1 36//1
f 45//1 44//1 36//1
f 46//1 45//1 36//1
f 47//1 46//1 36//1
f 48//1 47//1 36//1
f 49//1 48//1 36//1
f 50//1 49//1 36//1
f 35//1 50//1 36//1
f 34//2 51//3 52//4
f 35//5 34//2 52//4
f 37//6 53//7 51//3
f 34//2 37//6 51//3
f 38//8 54//9 53//7
f 37//6 38//8 53//7
f 39//10 55//11 54//9
f 38//8 39//10 54//9
f 40//12 56//13 55//11
f 39//10 40//12 55//11
f 41//14 57//15 56//13
f 40//12 41//14 56//13
f 42//16 58//17 57//15
f 41//14 42//16 57//15
f 43//18 59//19 58//17
f 42//16 43//18 58//17
f 44//20 60//21 59//19
f 43//18 44//20 59//19
f 45//22 61//23 60//21
f 44//20 45//22 60//21
f 46//24 62//25 61//23
f 45//22 46//24 61//23
f 47//26 63//27 62//25
f 46//24 47//26 62//25
f 48//28 64//29 63//27
f 47//26 48//28 63//27
f 49//30 65//31 64//29
f 48//28 49//30 64//29
f 50//32 66//33 65//31
f 49//30 50//32 65//31
f 35//5 52//4 66//33
f 50//32 35//5 66//33
f 67//1 68//1 69//1
f 70//1 67//1 69//1
f 71//1 70//1 69//1
f 72//1 71//1 69//1
f 73//1 72//1 69//1
f 74//1 73//1 69//1
f 75//1 74//1 69//1
f 76//1 75//1 69//1
f 77//1 76//1 69//1
f 78//1 77//1 69//1
f 79//1 78//1 69//1
f 80//1 79//1 69//1
f 81//1 80//1 69//1
f 82//1 81//1 69//1
f 83//1 82//1 69//1
f 68//1 83//1 69//1
f 67//2 84//3 85//4
f 68//5 67//2 85//4
f 70//6 86//7 84//3
f 67//2 70//6 84//3
f 71//8 87//9 86//7
f 70//6 71//8 86//7
f 72//10 88//11 87//9
f 71//8 72//10 87//9
f 73//12 89//13 88//11
f 72//10 73//12 88//11
f 74//14 90//15 89//13
f 73//12 74//14 89//13
f 75//16 91//17 90//15
f 74//14 75//16 90//15
f 76//18 92//19 91//17
f 75//16 76//18 91//17
f 77//20 93//21 92//19
f 76//18 77//20 92//19
f 78//22 94//23 93//21
f 77//20 78//22 93//21
f 79//24 95//25 94//23
f 78//22 79//24 94//23
f 80//26 96//27 95//25
f 79//24 80//26 95//25
f 81//28 97//29 96//27
f 80//26 81//28 96//27
f 82//30 98//31 97//29
f 81//28 82//30 97//29
f 83//32 99//33 98//31
f 82//30 83//32 98//31
f 68//5 85//4 99//33
f 83//32 68//5 99//33
f 100//1 101//1 102//1
f 100//1 102//1 103//1
f 100//34 104//34 105//34
f 100//34 105//34 101//34
f 103//35 106//35 104//35
f 103//35 104//35 100//35
f 102//36 107//36 106//36
f 102//36 106//36 103//36
f 101//37 105//37 107//37
f 101//37 107//37 102//37
f 108//1 105//1 104//1
f 108//1 104//1 109//1
f 109//1 104//1 106//1
f 109//1 106//1 110//1
f 110//1 106//1 107//1
f 110//1 107//1 111//1
f 111//1 107//1 105//1
f 111//1 105//1 108//1
f 112//38 113//38 114//38
f 115//38 112//38 114//38
f 109//36 115//36 114//36
f 108//36 109//36 114//36
f 110//37 112//37 115//37
f 109//37 110//37 115//37
f 108//35 114//35 113//35
f 111//35 108//35 113//35
f 116//39 117//40 118//41
f 119//42 116//39 118//41
f 120//43 121//44 117//40
f 116//39 120//43 117//40
f 122//45 123//46 121//44
f 120//43 122//45 121//44
f 124//47 125//48 123//46
f 122//45 124//47 123//46
f 126//49 127//50 125//48
f 124//47 126//49 125//48
f 128//51 129//52 127//50
f 126//49 128//51 127//50
f 130//53 131//54 129//52
f 128//51 130//53 129//52
f 132//55 133//56 131//54
f 130//53 132//55 131//54
f 134//57 135//58 133//56
f 132//55 134//57 133//56
f 136//59 137//60 135//58
f 134//57 136//59 135//58
f 138//61 139//62 137//60
f 136//59 138//61 137//60
f 140//63 141//64 139//62
f 138//61 140//63 139//62
f 142//65 143//66 141//64
f 140//63 142//65 141//64
f 144//67 145//68 143//66
f 142//65 144//67 143//66
f 146//69 147//70 145//68
f 144//67 146//69 145//68
f 119//42 118//41 147//70
f 146//69 119//42 147//70
f 148//38 118//38 117//38
f 148//38 117//38 121//38
f 148//38 121//38 123//38
f 148//38 123//38 125//38
f 148//38 125//38 127//38
f 148//38 127//38 129//38
f 148//38 129//38 131//38
f 148//38 131//38 133//38
f 148//38 133//38 135//38
f 148//38 135//38 137//38
f 148//38 137//38 139//38
f 148//38 139//38 141//38
f 148//38 141//38 143//38
f 148//38 143//38 145//38
f 148//38 145//38 147//38
f 148//38 147//38 118//38
f 149//39 150//40 151//41
f 152//42 149//39 151//41
f 153//43 154//44 150//40
f 149//39 153//43 150//40
f 155//45 156//46 154//44
f 153//43 155//45 154//44
f 157//47 158//48 156//46
f 155//45 157//47 156//46
f 159//49 160//50 158//48
f 157//47 159//49 158//48
f 161//51 162//52 160//50
f 159//49 161//51 160//50
f 163//53 164//54 162//52
f 161//51 163//53 162//52
f 165//55 166//56 164//54
f 163//53 165//55 164//54
f 167//57 168//58 166//56
f 165//55 167//57 166//56
f 169//59 170//60 168//58
f 167//57 169//59 168//58
f 171//61 172//62 170//60
f 169//59 171//61 170//60
f 173//63 174//64 172//62
f 171//61 173//63 172//62
f 175//65 176//66 174//64
f 173//63 175//65 174//64
f 177//67 178//68 176//66
f 175//65 177//67 176//66
f 179//69 180//70 178//68
f 177//67 179//69 178//68
f 152//42 151//41 180//70
f 179//69 152//42 180//70
f 181//38 151//38 150//38
f 181//38 150//38 154//38
f 181//38 154//38 156//38
f 181//38 156//38 158//38
f 181//38 158//38 160//38
f 181//38 160//38 162//38
f 181//38 162//38 164//38
f 181//38 164//38 166//38
f 181//38 166//38 168//38
f 181//38 168//38 170//38
f 181//38 170//38 172//38
f 181//38 172//38 174//38
f 181//38 174//38 176//38
f 181//38 176//38 178//38
f 181//38 178//38 180//38
f 181//38 180//38 151//38
f 182//39 183//40 184//41
f 185//42 182//39 184//41
f 186//43 187//44 183//40
f 182//39 186//43 183//40
f 188//45 189//46 187//44
f 186//43 188//45 187//44
f 190//47 191//48 189//46
f 188//45 190//47 189//46
f 192//49 193//50 191//48
f 190//47 192//49 191//48
f 194//51 195//52 193//50
f 192//49 194//51 193//50
f 196//53 197//54 195//52
f 194//51 196//53 195//52
f 198//55 199//56 197//54
f 196//53 198//55 197//54
f 200//57 201//58 199//56
f 198//55 200//57 199//56
f 202//59 203//60 201//58
f 200//57 202//59 201//58
f 204//61 205//62 203//60
f 202//59 204//61 203//60
f 206//63 207//64 205//62
f 204//61 206//63 205//62
f 208//65 209//66 207//64
f 206//63 208//65 207//64
f 210//67 211//68 209//66
f 208//65 210//67 209//66
f 212//69 213//70 211//68
f 210//67 212//69 211//68
f 185//42 184//41 213//70
f 212//69 185//42 213//70
f 214//38 184//38 183//38
f 214//38 183//38 187//38
f 214//38 187//38 189//38
f 214//38 189//38 191//38
f 214//38 191//38 193//38
f 214//38 193//38 195//38
f 214//38 195//38 197//38
f 214//38 197//38 199//38
f 214//38 199//38 201//38
f 214//38 201//38 203//38
f 214//38 203//38 205//38
f 214//38 205//38 207//38
f 214//38 207//38 209//38
f 214//38 209//38 211//38
f 214//38 211//38 213//38
f 214//38 213//38 184//38
f 215//39 216//40 217//41
f 218//42 215//39 217//41
f 219//43 220//44 216//40
f 215//39 219//43 216//40
f 221//45 222//46 220//44
f 219//43 221//45 220//44
f 223//47 224//48 222//46
f 221//45 223//47 222//46
f 225//49 226//50 224//48
f 223//47 225//49 224//48
f 227//51 228//52 226//50
f 225//49 227//51 226//50
f 229//53 230//54 228//52
f 227//51 229//53 228//52
f 231//55 232//56 230//54
f 229//53 231//55 230//54
f 233//57 234//58 232//56
f 231//55 233//57 232//56
f 235//59 236//60 234//58
f 233//57 235//59 234//58
f 237//61 238//62 236//60
f 235//59 237//61 236//60
f 239//63 240//64 238//62
f 237//61 239//63 238//62
f 241//65 242//66 240//64
f 239//63 241//65 240//64
f 243//67 244//68 242//66
f 241//65 243//67 242//66
f 245//69 246//70 244//68
f 243//67 245//69 244//68
f 218//42 217//41 246//70
f 245//69 218//42 246//70
f 247//38 217//38 216//38
f 247//38 216//38 220//38
f 247//38 220//38 222//38
f 247//38 222//38 224//38
f 247//38 224//38 226//38
f 247//38 226//38 228//38
f 247//38 228//38 230//38
f 247//38 230//38 232//38
f 247//38 232//38 234//38
f 247//38 234//38 236//38
f 247//38 236//38 238//38
f 247//38 238//38 240//38
f 247//38 240//38 242//38
f 247//38 242//38 244//38
f 247//38 244//38 246//38
f 247//38 246//38 217//38
f 112//34 110//34 111//34
f 112//34 111//34 113//34
