# Botball Lab: metres, +Y up, centred XZ, base Y=0
s off
v -0.0032000 0.0036000 -0.0066001
v -0.0032000 0.0045185 -0.0064175
v -0.0032000 0.0048246 -0.0071566
v -0.0032000 0.0036000 -0.0074001
v -0.0032000 0.0052970 -0.0058971
v -0.0032000 0.0058627 -0.0064628
v -0.0032000 0.0058174 -0.0051186
v -0.0032000 0.0065565 -0.0054247
v -0.0032000 0.0060000 -0.0042001
v -0.0032000 0.0068000 -0.0042001
v -0.0032000 0.0058174 -0.0032816
v -0.0032000 0.0065565 -0.0029755
v -0.0032000 0.0052970 -0.0025031
v -0.0032000 0.0058627 -0.0019374
v -0.0032000 0.0045185 -0.0019827
v -0.0032000 0.0048246 -0.0012436
v -0.0032000 0.0036000 -0.0018001
v -0.0032000 0.0036000 -0.0010001
v -0.0032000 0.0026815 -0.0019827
v -0.0032000 0.0023754 -0.0012436
v -0.0032000 0.0019030 -0.0025031
v -0.0032000 0.0013373 -0.0019374
v -0.0032000 0.0013826 -0.0032816
v -0.0032000 0.0006435 -0.0029755
v -0.0032000 0.0012000 -0.0042001
v -0.0032000 0.0004000 -0.0042001
v -0.0032000 0.0013826 -0.0051186
v -0.0032000 0.0006435 -0.0054247
v -0.0032000 0.0019030 -0.0058971
v -0.0032000 0.0013373 -0.0064628
v -0.0032000 0.0026815 -0.0064175
v -0.0032000 0.0023754 -0.0071566
v -0.0040000 0.0006435 -0.0054247
v -0.0040000 0.0004000 -0.0042001
v -0.0040000 0.0013373 -0.0064628
v -0.0040000 0.0023754 -0.0071566
v -0.0040000 0.0036000 -0.0074001
v -0.0040000 0.0048246 -0.0071566
v -0.0040000 0.0058627 -0.0064628
v -0.0040000 0.0065565 -0.0054247
v -0.0040000 0.0068000 -0.0042001
v -0.0040000 0.0065565 -0.0029755
v -0.0040000 0.0058627 -0.0019374
v -0.0040000 0.0048246 -0.0012436
v -0.0040000 0.0036000 -0.0010001
v -0.0040000 0.0023754 -0.0012436
v -0.0040000 0.0013373 -0.0019374
v -0.0040000 0.0006435 -0.0029755
v -0.0040000 0.0000000 -0.0042001
v -0.0040000 0.0002740 -0.0028224
v -0.0040000 0.0010544 -0.0016545
v -0.0040000 0.0022223 -0.0008741
v -0.0040000 0.0036000 -0.0006001
v -0.0040000 0.0049777 -0.0008741
v -0.0040000 0.0061456 -0.0016545
v -0.0040000 0.0069260 -0.0028224
v -0.0040000 0.0072000 -0.0042001
v -0.0040000 0.0069260 -0.0055778
v -0.0040000 0.0061456 -0.0067457
v -0.0040000 0.0049777 -0.0075261
v -0.0040000 0.0036000 -0.0078001
v -0.0040000 0.0022223 -0.0075261
v -0.0040000 0.0010544 -0.0067457
v -0.0040000 0.0002740 -0.0055778
v 0.0032000 0.0013826 -0.0051186
v 0.0032000 0.0012000 -0.0042001
v 0.0032000 0.0019030 -0.0058971
v 0.0032000 0.0026815 -0.0064175
v 0.0032000 0.0036000 -0.0066001
v 0.0032000 0.0045185 -0.0064175
v 0.0032000 0.0052970 -0.0058971
v 0.0032000 0.0058174 -0.0051186
v 0.0032000 0.0060000 -0.0042001
v 0.0032000 0.0058174 -0.0032816
v 0.0032000 0.0052970 -0.0025031
v 0.0032000 0.0045185 -0.0019827
v 0.0032000 0.0036000 -0.0018001
v 0.0032000 0.0026815 -0.0019827
v 0.0032000 0.0019030 -0.0025031
v 0.0032000 0.0013826 -0.0032816
v 0.0040000 0.0000000 -0.0042001
v 0.0040000 0.0002740 -0.0055778
v 0.0040000 0.0006435 -0.0054247
v 0.0040000 0.0004000 -0.0042001
v 0.0040000 0.0010544 -0.0067457
v 0.0040000 0.0013373 -0.0064628
v 0.0040000 0.0022223 -0.0075261
v 0.0040000 0.0023754 -0.0071566
v 0.0040000 0.0036000 -0.0078001
v 0.0040000 0.0036000 -0.0074001
v 0.0040000 0.0049777 -0.0075261
v 0.0040000 0.0048246 -0.0071566
v 0.0040000 0.0061456 -0.0067457
v 0.0040000 0.0058627 -0.0064628
v 0.0040000 0.0069260 -0.0055778
v 0.0040000 0.0065565 -0.0054247
v 0.0040000 0.0072000 -0.0042001
v 0.0040000 0.0068000 -0.0042001
v 0.0040000 0.0069260 -0.0028224
v 0.0040000 0.0065565 -0.0029755
v 0.0040000 0.0061456 -0.0016545
v 0.0040000 0.0058627 -0.0019374
v 0.0040000 0.0049777 -0.0008741
v 0.0040000 0.0048246 -0.0012436
v 0.0040000 0.0036000 -0.0006001
v 0.0040000 0.0036000 -0.0010001
v 0.0040000 0.0022223 -0.0008741
v 0.0040000 0.0023754 -0.0012436
v 0.0040000 0.0010544 -0.0016545
v 0.0040000 0.0013373 -0.0019374
v 0.0040000 0.0002740 -0.0028224
v 0.0040000 0.0006435 -0.0029755
v 0.0032000 0.0048246 -0.0071566
v 0.0032000 0.0036000 -0.0074001
v 0.0032000 0.0058627 -0.0064628
v 0.0032000 0.0065565 -0.0054247
v 0.0032000 0.0068000 -0.0042001
v 0.0032000 0.0065565 -0.0029755
v 0.0032000 0.0058627 -0.0019374
v 0.0032000 0.0048246 -0.0012436
v 0.0032000 0.0036000 -0.0010001
v 0.0032000 0.0023754 -0.0012436
v 0.0032000 0.0013373 -0.0019374
v 0.0032000 0.0006435 -0.0029755
v 0.0032000 0.0004000 -0.0042001
v 0.0032000 0.0006435 -0.0054247
v 0.0032000 0.0013373 -0.0064628
v 0.0032000 0.0023754 -0.0071566
v -0.0024000 0.0076000 -0.0042001
v -0.0024000 0.0152000 -0.0042001
v -0.0022409 0.0152000 -0.0034001
v -0.0022409 0.0076000 -0.0034001
v -0.0016000 0.0076000 -0.0034001
v -0.0016000 0.0152000 -0.0034001
v -0.0010000 0.0152000 -0.0032001
v -0.0010000 0.0076000 -0.0032001
v -0.0008000 0.0152000 -0.0026001
v -0.0008000 0.0076000 -0.0026001
v -0.0008000 0.0152000 -0.0019592
v -0.0008000 0.0076000 -0.0019592
v 0.0000000 0.0152000 -0.0018001
v 0.0000000 0.0076000 -0.0018001
v 0.0009185 0.0152000 -0.0019827
v 0.0009185 0.0076000 -0.0019827
v 0.0014046 0.0152000 -0.0023075
v 0.0014046 0.0076000 -0.0023075
v 0.0009303 0.0152000 -0.0029909
v 0.0009303 0.0076000 -0.0029909
v 0.0010000 0.0152000 -0.0032001
v 0.0010000 0.0076000 -0.0032001
v 0.0012092 0.0152000 -0.0032698
v 0.0012092 0.0076000 -0.0032698
v 0.0018926 0.0076000 -0.0027955
v 0.0018926 0.0152000 -0.0027955
v 0.0022174 0.0152000 -0.0032816
v 0.0022174 0.0076000 -0.0032816
v 0.0024000 0.0152000 -0.0042001
v 0.0024000 0.0076000 -0.0042001
v 0.0022409 0.0152000 -0.0050001
v 0.0022409 0.0076000 -0.0050001
v 0.0016000 0.0076000 -0.0050001
v 0.0016000 0.0152000 -0.0050001
v 0.0010000 0.0152000 -0.0052001
v 0.0010000 0.0076000 -0.0052001
v 0.0008000 0.0152000 -0.0058001
v 0.0008000 0.0076000 -0.0058001
v 0.0008000 0.0152000 -0.0064410
v 0.0008000 0.0076000 -0.0064410
v 0.0000000 0.0152000 -0.0066001
v 0.0000000 0.0076000 -0.0066001
v -0.0009185 0.0152000 -0.0064175
v -0.0009185 0.0076000 -0.0064175
v -0.0014046 0.0152000 -0.0060927
v -0.0014046 0.0076000 -0.0060927
v -0.0009303 0.0152000 -0.0054093
v -0.0009303 0.0076000 -0.0054093
v -0.0010000 0.0152000 -0.0052001
v -0.0010000 0.0076000 -0.0052001
v -0.0012092 0.0152000 -0.0051304
v -0.0012092 0.0076000 -0.0051304
v -0.0018926 0.0076000 -0.0056047
v -0.0018926 0.0152000 -0.0056047
v -0.0022174 0.0152000 -0.0051186
v -0.0022174 0.0076000 -0.0051186
v -0.0022174 0.0152000 -0.0032817
v -0.0016971 0.0152000 -0.0025030
v -0.0009184 0.0152000 -0.0019827
v 0.0016972 0.0152000 -0.0025029
v 0.0016970 0.0152000 -0.0025031
v 0.0022174 0.0152000 -0.0051185
v 0.0016971 0.0152000 -0.0058972
v 0.0009184 0.0152000 -0.0064175
v -0.0016970 0.0152000 -0.0058971
v -0.0024000 0.0156000 -0.0042001
v -0.0022174 0.0156000 -0.0032816
v -0.0022174 0.0152000 -0.0032816
v -0.0016970 0.0156000 -0.0025031
v -0.0016970 0.0152000 -0.0025031
v -0.0009185 0.0156000 -0.0019827
v -0.0009185 0.0152000 -0.0019827
v 0.0000000 0.0156000 -0.0018001
v 0.0009185 0.0156000 -0.0019827
v 0.0016970 0.0156000 -0.0025031
v 0.0022174 0.0156000 -0.0032816
v 0.0024000 0.0156000 -0.0042001
v 0.0022174 0.0156000 -0.0051186
v 0.0022174 0.0152000 -0.0051186
v 0.0016970 0.0156000 -0.0058971
v 0.0016970 0.0152000 -0.0058971
v 0.0009185 0.0156000 -0.0064175
v 0.0009185 0.0152000 -0.0064175
v 0.0000000 0.0156000 -0.0066001
v -0.0009185 0.0156000 -0.0064175
v -0.0016970 0.0156000 -0.0058971
v -0.0022174 0.0156000 -0.0051186
v -0.0016970 0.0156000 -0.0066001
v 0.0016970 0.0156000 -0.0066001
v -0.0024000 0.0156000 -0.0025031
v -0.0024000 0.0156000 -0.0058971
v 0.0016970 0.0156000 -0.0018001
v -0.0016970 0.0156000 -0.0018001
v 0.0024000 0.0156000 -0.0058971
v 0.0024000 0.0156000 -0.0025031
v 0.0000000 0.0076000 -0.0042001
v -0.0016970 0.0076000 -0.0058971
v 0.0009185 0.0076000 -0.0064175
v 0.0016970 0.0076000 -0.0058971
v 0.0022174 0.0076000 -0.0051186
v 0.0016970 0.0076000 -0.0025031
v -0.0009185 0.0076000 -0.0019827
v -0.0016970 0.0076000 -0.0025031
v -0.0022174 0.0076000 -0.0032816
v -0.0034000 0.0155998 -0.0055778
v -0.0034000 0.0069258 -0.0055778
v -0.0034000 0.0069258 -0.0028224
v -0.0034000 0.0155998 -0.0028224
v -0.0004619 0.0156000 -0.0007105
v -0.0013776 0.0156000 -0.0008003
v -0.0013776 0.0041544 -0.0008003
v -0.0004619 0.0041544 -0.0007105
v 0.0004617 0.0156000 -0.0007103
v 0.0004617 0.0041544 -0.0007103
v 0.0013777 0.0156000 -0.0008002
v 0.0013777 0.0041544 -0.0008002
v -0.0024719 0.0156000 -0.0024384
v -0.0028977 0.0156000 -0.0027228
v -0.0033998 0.0156000 -0.0028227
v -0.0017618 0.0156000 -0.0017281
v -0.0020461 0.0156000 -0.0021540
v -0.0013774 0.0156000 -0.0008003
v -0.0014772 0.0156000 -0.0013025
v -0.0024719 0.0069260 -0.0024384
v -0.0033998 0.0069260 -0.0028227
v -0.0017618 0.0069260 -0.0017281
v -0.0013774 0.0069260 -0.0008003
v -0.0024719 0.0066368 -0.0024384
v -0.0017618 0.0058130 -0.0017281
v -0.0013774 0.0045803 -0.0008003
v 0.0033998 0.0156000 -0.0028227
v 0.0028977 0.0156000 -0.0027228
v 0.0024719 0.0156000 -0.0024384
v 0.0020461 0.0156000 -0.0021540
v 0.0017618 0.0156000 -0.0017281
v 0.0014772 0.0156000 -0.0013025
v 0.0013774 0.0156000 -0.0008003
v 0.0024719 0.0069260 -0.0024384
v 0.0033998 0.0069260 -0.0028227
v 0.0017618 0.0069260 -0.0017281
v 0.0013774 0.0069260 -0.0008003
v 0.0024719 0.0066368 -0.0024384
v 0.0017618 0.0058130 -0.0017281
v 0.0013774 0.0045803 -0.0008003
v 0.0034000 0.0156002 -0.0028224
v 0.0034000 0.0069262 -0.0028224
v 0.0034000 0.0069262 -0.0055778
v 0.0034000 0.0156002 -0.0055778
v 0.0004619 0.0156000 -0.0076897
v 0.0013776 0.0156000 -0.0075999
v 0.0013776 0.0041544 -0.0075999
v 0.0004619 0.0041544 -0.0076897
v -0.0004617 0.0156000 -0.0076899
v -0.0004617 0.0041544 -0.0076899
v -0.0013777 0.0156000 -0.0076000
v -0.0013777 0.0041544 -0.0076000
v 0.0024719 0.0156000 -0.0059618
v 0.0028977 0.0156000 -0.0056774
v 0.0033998 0.0156000 -0.0055775
v 0.0017618 0.0156000 -0.0066721
v 0.0020461 0.0156000 -0.0062462
v 0.0013774 0.0156000 -0.0075999
v 0.0014772 0.0156000 -0.0070977
v 0.0024719 0.0069260 -0.0059618
v 0.0033998 0.0069260 -0.0055775
v 0.0017618 0.0069260 -0.0066721
v 0.0013774 0.0069260 -0.0075999
v 0.0024719 0.0066368 -0.0059618
v 0.0017618 0.0058130 -0.0066721
v 0.0013774 0.0045803 -0.0075999
v -0.0033998 0.0156000 -0.0055775
v -0.0028977 0.0156000 -0.0056774
v -0.0024719 0.0156000 -0.0059618
v -0.0020461 0.0156000 -0.0062462
v -0.0017618 0.0156000 -0.0066721
v -0.0014772 0.0156000 -0.0070977
v -0.0013774 0.0156000 -0.0075999
v -0.0024719 0.0069260 -0.0059618
v -0.0033998 0.0069260 -0.0055775
v -0.0017618 0.0069260 -0.0066721
v -0.0013774 0.0069260 -0.0075999
v -0.0024719 0.0066368 -0.0059618
v -0.0017618 0.0058130 -0.0066721
v -0.0013774 0.0045803 -0.0075999
v -0.0020461 0.0156000 -0.0062463
v 0.0020461 0.0156000 -0.0062463
v 0.0020461 0.0156000 -0.0021539
v -0.0020461 0.0156000 -0.0021539
v -0.0022409 0.0044000 0.0073999
v -0.0024000 0.0036000 0.0073999
v -0.0024000 0.0036000 -0.0002001
v -0.0022409 0.0044000 -0.0002001
v -0.0016000 0.0044000 -0.0002001
v -0.0016000 0.0044000 0.0073999
v -0.0010000 0.0046000 -0.0002001
v -0.0010000 0.0046000 0.0073999
v -0.0008000 0.0052000 -0.0002001
v -0.0008000 0.0052000 0.0073999
v -0.0008000 0.0058409 -0.0002001
v -0.0008000 0.0058409 0.0073999
v 0.0000000 0.0060000 -0.0002001
v 0.0000000 0.0060000 0.0073999
v 0.0009185 0.0058174 0.0073999
v 0.0009185 0.0058174 -0.0002001
v 0.0014046 0.0054926 0.0073999
v 0.0014046 0.0054926 -0.0002001
v 0.0009303 0.0048092 -0.0002001
v 0.0009303 0.0048092 0.0073999
v 0.0010000 0.0046000 -0.0002001
v 0.0010000 0.0046000 0.0073999
v 0.0012092 0.0045303 0.0073999
v 0.0012092 0.0045303 -0.0002001
v 0.0018926 0.0050046 -0.0002001
v 0.0018926 0.0050046 0.0073999
v 0.0022174 0.0045185 0.0073999
v 0.0022174 0.0045185 -0.0002001
v 0.0024000 0.0036000 0.0073999
v 0.0024000 0.0036000 -0.0002001
v 0.0022409 0.0028000 0.0073999
v 0.0022409 0.0028000 -0.0002001
v 0.0016000 0.0028000 -0.0002001
v 0.0016000 0.0028000 0.0073999
v 0.0010000 0.0026000 -0.0002001
v 0.0010000 0.0026000 0.0073999
v 0.0008000 0.0020000 -0.0002001
v 0.0008000 0.0020000 0.0073999
v 0.0008000 0.0013591 -0.0002001
v 0.0008000 0.0013591 0.0073999
v 0.0000000 0.0012000 -0.0002001
v 0.0000000 0.0012000 0.0073999
v -0.0009185 0.0013826 0.0073999
v -0.0009185 0.0013826 -0.0002001
v -0.0014046 0.0017074 0.0073999
v -0.0014046 0.0017074 -0.0002001
v -0.0009303 0.0023908 -0.0002001
v -0.0009303 0.0023908 0.0073999
v -0.0010000 0.0026000 -0.0002001
v -0.0010000 0.0026000 0.0073999
v -0.0012092 0.0026697 0.0073999
v -0.0012092 0.0026697 -0.0002001
v -0.0018926 0.0021954 -0.0002001
v -0.0018926 0.0021954 0.0073999
v -0.0022174 0.0026815 0.0073999
v -0.0022174 0.0026815 -0.0002001
v -0.0016971 0.0052971 0.0073999
v -0.0022174 0.0045184 0.0073999
v -0.0009184 0.0058174 0.0073999
v 0.0016972 0.0052972 0.0073999
v 0.0016970 0.0052970 0.0073999
v 0.0016971 0.0019029 0.0073999
v 0.0022174 0.0026816 0.0073999
v 0.0009184 0.0013826 0.0073999
v -0.0016970 0.0019030 0.0073999
v -0.0022174 0.0045185 0.0073999
v -0.0022174 0.0045185 0.0077999
v -0.0024000 0.0036000 0.0077999
v -0.0016970 0.0052970 0.0073999
v -0.0016970 0.0052970 0.0077999
v -0.0009185 0.0058174 0.0073999
v -0.0009185 0.0058174 0.0077999
v 0.0000000 0.0060000 0.0077999
v 0.0009185 0.0058174 0.0077999
v 0.0016970 0.0052970 0.0077999
v 0.0022174 0.0045185 0.0077999
v 0.0024000 0.0036000 0.0077999
v 0.0022174 0.0026815 0.0073999
v 0.0022174 0.0026815 0.0077999
v 0.0016970 0.0019030 0.0073999
v 0.0016970 0.0019030 0.0077999
v 0.0009185 0.0013826 0.0073999
v 0.0009185 0.0013826 0.0077999
v 0.0000000 0.0012000 0.0077999
v -0.0009185 0.0013826 0.0077999
v -0.0016970 0.0019030 0.0077999
v -0.0022174 0.0026815 0.0077999
v -0.0016970 0.0012000 0.0077999
v 0.0016970 0.0012000 0.0077999
v -0.0024000 0.0052970 0.0077999
v -0.0024000 0.0019030 0.0077999
v 0.0016970 0.0060000 0.0077999
v -0.0016970 0.0060000 0.0077999
v 0.0024000 0.0019030 0.0077999
v 0.0024000 0.0052970 0.0077999
v 0.0000000 0.0036000 -0.0002001
v -0.0016970 0.0019030 -0.0002001
v 0.0009185 0.0013826 -0.0002001
v 0.0016970 0.0019030 -0.0002001
v 0.0022174 0.0026815 -0.0002001
v 0.0016970 0.0052970 -0.0002001
v -0.0009185 0.0058174 -0.0002001
v -0.0016970 0.0052970 -0.0002001
v -0.0022174 0.0045185 -0.0002001
v -0.0034000 0.0049777 -0.0008743
v -0.0034000 0.0022223 -0.0008743
v -0.0034000 0.0022223 0.0077997
v -0.0034000 0.0049777 0.0077997
v -0.0013776 0.0069998 -0.0036457
v -0.0013776 0.0069998 0.0077999
v -0.0004619 0.0070896 0.0077999
v -0.0004619 0.0070896 -0.0036457
v 0.0004617 0.0070898 0.0077999
v 0.0004617 0.0070898 -0.0036457
v 0.0013777 0.0069999 0.0077999
v 0.0013777 0.0069999 -0.0036457
v -0.0033998 0.0049774 0.0077999
v -0.0028977 0.0050773 0.0077999
v -0.0024719 0.0053617 0.0077999
v -0.0020461 0.0056461 0.0077999
v -0.0017618 0.0060720 0.0077999
v -0.0014772 0.0064976 0.0077999
v -0.0013774 0.0069998 0.0077999
v -0.0024719 0.0053617 -0.0008741
v -0.0033998 0.0049774 -0.0008741
v -0.0017618 0.0060720 -0.0008741
v -0.0013774 0.0069998 -0.0008741
v -0.0024719 0.0053617 -0.0011633
v -0.0017618 0.0060720 -0.0019871
v -0.0013774 0.0069998 -0.0032198
v 0.0024719 0.0053617 0.0077999
v 0.0028977 0.0050773 0.0077999
v 0.0033998 0.0049774 0.0077999
v 0.0017618 0.0060720 0.0077999
v 0.0020461 0.0056461 0.0077999
v 0.0013774 0.0069998 0.0077999
v 0.0014772 0.0064976 0.0077999
v 0.0024719 0.0053617 -0.0008741
v 0.0033998 0.0049774 -0.0008741
v 0.0017618 0.0060720 -0.0008741
v 0.0013774 0.0069998 -0.0008741
v 0.0024719 0.0053617 -0.0011633
v 0.0017618 0.0060720 -0.0019871
v 0.0013774 0.0069998 -0.0032198
v 0.0034000 0.0022223 -0.0008739
v 0.0034000 0.0049777 -0.0008739
v 0.0034000 0.0049777 0.0078001
v 0.0034000 0.0022223 0.0078001
v 0.0013776 0.0002002 -0.0036457
v 0.0013776 0.0002002 0.0077999
v 0.0004619 0.0001104 0.0077999
v 0.0004619 0.0001104 -0.0036457
v -0.0004617 0.0001102 0.0077999
v -0.0004617 0.0001102 -0.0036457
v -0.0013777 0.0002001 0.0077999
v -0.0013777 0.0002001 -0.0036457
v 0.0033998 0.0022226 0.0077999
v 0.0028977 0.0021227 0.0077999
v 0.0024719 0.0018383 0.0077999
v 0.0020461 0.0015539 0.0077999
v 0.0017618 0.0011280 0.0077999
v 0.0014772 0.0007024 0.0077999
v 0.0013774 0.0002002 0.0077999
v 0.0024719 0.0018383 -0.0008741
v 0.0033998 0.0022226 -0.0008741
v 0.0017618 0.0011280 -0.0008741
v 0.0013774 0.0002002 -0.0008741
v 0.0024719 0.0018383 -0.0011633
v 0.0017618 0.0011280 -0.0019871
v 0.0013774 0.0002002 -0.0032198
v -0.0024719 0.0018383 0.0077999
v -0.0028977 0.0021227 0.0077999
v -0.0033998 0.0022226 0.0077999
v -0.0017618 0.0011280 0.0077999
v -0.0020461 0.0015539 0.0077999
v -0.0013774 0.0002002 0.0077999
v -0.0014772 0.0007024 0.0077999
v -0.0024719 0.0018383 -0.0008741
v -0.0033998 0.0022226 -0.0008741
v -0.0017618 0.0011280 -0.0008741
v -0.0013774 0.0002002 -0.0008741
v -0.0024719 0.0018383 -0.0011633
v -0.0017618 0.0011280 -0.0019871
v -0.0013774 0.0002002 -0.0032198
v -0.0020461 0.0015538 0.0077999
v 0.0020461 0.0015538 0.0077999
v 0.0020461 0.0056462 0.0077999
v -0.0020461 0.0056462 0.0077999
v -0.0036000 0.0035800 0.0031999
v -0.0036000 0.0041800 0.0026499
v -0.0036000 0.0039300 0.0022999
v -0.0036000 0.0032300 0.0028999
v -0.0036000 0.0027800 0.0035999
v -0.0036000 0.0031300 0.0037999
v -0.0036000 0.0025300 0.0043999
v -0.0036000 0.0030300 0.0041999
v -0.0036000 0.0025300 0.0056999
v -0.0036000 0.0029300 0.0056999
v -0.0036000 0.0029300 0.0047999
v -0.0036000 0.0033300 0.0044499
v -0.0036000 0.0033300 0.0039999
v -0.0036000 0.0037300 0.0044499
v -0.0036000 0.0038300 0.0039999
v -0.0036000 0.0040300 0.0046499
v -0.0036000 0.0043300 0.0042999
v -0.0036000 0.0041800 0.0049999
v -0.0036000 0.0045800 0.0048999
v -0.0036000 0.0041800 0.0056999
v -0.0036000 0.0045800 0.0057999
v -0.0036000 0.0039800 0.0059499
v -0.0036000 0.0042300 0.0063499
v -0.0036000 0.0036800 0.0060499
v -0.0036000 0.0037300 0.0064999
v -0.0036000 0.0032800 0.0060499
v -0.0036000 0.0032800 0.0064999
v -0.0036000 0.0030800 0.0059499
v -0.0036000 0.0028300 0.0062999
v -0.0036000 0.0041798 0.0026497
v -0.0034000 0.0041798 0.0026497
v -0.0034000 0.0039298 0.0022997
v -0.0036000 0.0039298 0.0022997
v -0.0034000 0.0039300 0.0022999
v -0.0034000 0.0032300 0.0028999
v -0.0036000 0.0032298 0.0028999
v -0.0034000 0.0032298 0.0028999
v -0.0034000 0.0027798 0.0035999
v -0.0036000 0.0027798 0.0035999
v -0.0036000 0.0027802 0.0035999
v -0.0034000 0.0027802 0.0035999
v -0.0034000 0.0025302 0.0043999
v -0.0036000 0.0025302 0.0043999
v -0.0034000 0.0025300 0.0043999
v -0.0034000 0.0025300 0.0056999
v -0.0034000 0.0028300 0.0062999
v -0.0036000 0.0032802 0.0064999
v -0.0034000 0.0032802 0.0064999
v -0.0034000 0.0037302 0.0064999
v -0.0036000 0.0037302 0.0064999
v -0.0036000 0.0037300 0.0064997
v -0.0034000 0.0037300 0.0064997
v -0.0034000 0.0042300 0.0063497
v -0.0036000 0.0042300 0.0063497
v -0.0036000 0.0042302 0.0063497
v -0.0034000 0.0042302 0.0063497
v -0.0034000 0.0045802 0.0057997
v -0.0036000 0.0045802 0.0057997
v -0.0034000 0.0045800 0.0057999
v -0.0034000 0.0045800 0.0048999
v -0.0036000 0.0045802 0.0048999
v -0.0034000 0.0045802 0.0048999
v -0.0034000 0.0043302 0.0042999
v -0.0036000 0.0043302 0.0042999
v -0.0034000 0.0038300 0.0039999
v -0.0034000 0.0033300 0.0039999
v -0.0034000 0.0030300 0.0041999
v -0.0034000 0.0031300 0.0037999
v -0.0036000 0.0031298 0.0037999
v -0.0034000 0.0031298 0.0037999
v -0.0034000 0.0035798 0.0031999
v -0.0036000 0.0035798 0.0031999
v -0.0036000 0.0035800 0.0031997
v -0.0034000 0.0035800 0.0031997
v -0.0034000 0.0041800 0.0026497
v -0.0036000 0.0041800 0.0026497
v -0.0036000 0.0029300 0.0047997
v -0.0034000 0.0029300 0.0047997
v -0.0034000 0.0033300 0.0044497
v -0.0036000 0.0033300 0.0044497
v -0.0034000 0.0033300 0.0044499
v -0.0034000 0.0037300 0.0044499
v -0.0036000 0.0040298 0.0046497
v -0.0034000 0.0040298 0.0046497
v -0.0034000 0.0041798 0.0049997
v -0.0036000 0.0041798 0.0049997
v -0.0034000 0.0041800 0.0049999
v -0.0034000 0.0041800 0.0056999
v -0.0036000 0.0041800 0.0056997
v -0.0034000 0.0041800 0.0056997
v -0.0034000 0.0039800 0.0059497
v -0.0036000 0.0039800 0.0059497
v -0.0034000 0.0039800 0.0059499
v -0.0034000 0.0036800 0.0060499
v -0.0034000 0.0032800 0.0060499
v -0.0036000 0.0030798 0.0059497
v -0.0034000 0.0030798 0.0059497
v -0.0034000 0.0029298 0.0056997
v -0.0036000 0.0029298 0.0056997
v -0.0034000 0.0029300 0.0056999
v -0.0034000 0.0029300 0.0047999
v -0.0036000 0.0028298 0.0062999
v -0.0034000 0.0028298 0.0062999
v -0.0034000 0.0032798 0.0064999
v -0.0036000 0.0032798 0.0064999
v -0.0034000 0.0043300 0.0042999
v -0.0034000 0.0040300 0.0046499
v -0.0034000 0.0030800 0.0059499
v 0.0036000 0.0110000 -0.0042201
v 0.0036000 0.0104500 -0.0036201
v 0.0036000 0.0101000 -0.0038701
v 0.0036000 0.0107000 -0.0045701
v 0.0036000 0.0114000 -0.0050201
v 0.0036000 0.0116000 -0.0046701
v 0.0036000 0.0122000 -0.0052701
v 0.0036000 0.0120000 -0.0047701
v 0.0036000 0.0135000 -0.0052701
v 0.0036000 0.0135000 -0.0048701
v 0.0036000 0.0126000 -0.0048701
v 0.0036000 0.0122500 -0.0044701
v 0.0036000 0.0118000 -0.0044701
v 0.0036000 0.0122500 -0.0040701
v 0.0036000 0.0118000 -0.0039701
v 0.0036000 0.0124500 -0.0037701
v 0.0036000 0.0121000 -0.0034701
v 0.0036000 0.0128000 -0.0036201
v 0.0036000 0.0127000 -0.0032201
v 0.0036000 0.0135000 -0.0036201
v 0.0036000 0.0136000 -0.0032201
v 0.0036000 0.0137500 -0.0038201
v 0.0036000 0.0141500 -0.0035701
v 0.0036000 0.0138500 -0.0041201
v 0.0036000 0.0143000 -0.0040701
v 0.0036000 0.0138500 -0.0045201
v 0.0036000 0.0143000 -0.0045201
v 0.0036000 0.0137500 -0.0047201
v 0.0036000 0.0141000 -0.0049701
v 0.0036000 0.0104498 -0.0036203
v 0.0034000 0.0104498 -0.0036203
v 0.0034000 0.0100998 -0.0038703
v 0.0036000 0.0100998 -0.0038703
v 0.0034000 0.0101000 -0.0038701
v 0.0034000 0.0107000 -0.0045701
v 0.0036000 0.0107000 -0.0045703
v 0.0034000 0.0107000 -0.0045703
v 0.0034000 0.0114000 -0.0050203
v 0.0036000 0.0114000 -0.0050203
v 0.0036000 0.0114000 -0.0050199
v 0.0034000 0.0114000 -0.0050199
v 0.0034000 0.0122000 -0.0052699
v 0.0036000 0.0122000 -0.0052699
v 0.0034000 0.0122000 -0.0052701
v 0.0034000 0.0135000 -0.0052701
v 0.0034000 0.0141000 -0.0049701
v 0.0036000 0.0143000 -0.0045199
v 0.0034000 0.0143000 -0.0045199
v 0.0034000 0.0143000 -0.0040699
v 0.0036000 0.0143000 -0.0040699
v 0.0036000 0.0142998 -0.0040701
v 0.0034000 0.0142998 -0.0040701
v 0.0034000 0.0141498 -0.0035701
v 0.0036000 0.0141498 -0.0035701
v 0.0036000 0.0141498 -0.0035699
v 0.0034000 0.0141498 -0.0035699
v 0.0034000 0.0135998 -0.0032199
v 0.0036000 0.0135998 -0.0032199
v 0.0034000 0.0136000 -0.0032201
v 0.0034000 0.0127000 -0.0032201
v 0.0036000 0.0127000 -0.0032199
v 0.0034000 0.0127000 -0.0032199
v 0.0034000 0.0121000 -0.0034699
v 0.0036000 0.0121000 -0.0034699
v 0.0034000 0.0118000 -0.0039701
v 0.0034000 0.0118000 -0.0044701
v 0.0034000 0.0120000 -0.0047701
v 0.0034000 0.0116000 -0.0046701
v 0.0036000 0.0116000 -0.0046703
v 0.0034000 0.0116000 -0.0046703
v 0.0034000 0.0110000 -0.0042203
v 0.0036000 0.0110000 -0.0042203
v 0.0036000 0.0109998 -0.0042201
v 0.0034000 0.0109998 -0.0042201
v 0.0034000 0.0104498 -0.0036201
v 0.0036000 0.0104498 -0.0036201
v 0.0036000 0.0125998 -0.0048701
v 0.0034000 0.0125998 -0.0048701
v 0.0034000 0.0122498 -0.0044701
v 0.0036000 0.0122498 -0.0044701
v 0.0034000 0.0122500 -0.0044701
v 0.0034000 0.0122500 -0.0040701
v 0.0036000 0.0124498 -0.0037703
v 0.0034000 0.0124498 -0.0037703
v 0.0034000 0.0127998 -0.0036203
v 0.0036000 0.0127998 -0.0036203
v 0.0034000 0.0128000 -0.0036201
v 0.0034000 0.0135000 -0.0036201
v 0.0036000 0.0134998 -0.0036201
v 0.0034000 0.0134998 -0.0036201
v 0.0034000 0.0137498 -0.0038201
v 0.0036000 0.0137498 -0.0038201
v 0.0034000 0.0137500 -0.0038201
v 0.0034000 0.0138500 -0.0041201
v 0.0034000 0.0138500 -0.0045201
v 0.0036000 0.0137498 -0.0047203
v 0.0034000 0.0137498 -0.0047203
v 0.0034000 0.0134998 -0.0048703
v 0.0036000 0.0134998 -0.0048703
v 0.0034000 0.0135000 -0.0048701
v 0.0034000 0.0126000 -0.0048701
v 0.0036000 0.0141000 -0.0049703
v 0.0034000 0.0141000 -0.0049703
v 0.0034000 0.0143000 -0.0045203
v 0.0036000 0.0143000 -0.0045203
v 0.0034000 0.0121000 -0.0034701
v 0.0034000 0.0124500 -0.0037701
v 0.0034000 0.0137500 -0.0047201
f 1 2 3
f 4 1 3
f 2 5 6
f 3 2 6
f 5 7 8
f 6 5 8
f 7 9 10
f 8 7 10
f 9 11 12
f 10 9 12
f 11 13 14
f 12 11 14
f 13 15 16
f 14 13 16
f 15 17 18
f 16 15 18
f 17 19 20
f 18 17 20
f 19 21 22
f 20 19 22
f 21 23 24
f 22 21 24
f 23 25 26
f 24 23 26
f 25 27 28
f 26 25 28
f 27 29 30
f 28 27 30
f 29 31 32
f 30 29 32
f 31 1 4
f 32 31 4
f 26 28 33
f 26 33 34
f 28 30 35
f 28 35 33
f 30 32 36
f 30 36 35
f 32 4 37
f 32 37 36
f 4 3 38
f 4 38 37
f 3 6 39
f 3 39 38
f 6 8 40
f 6 40 39
f 8 10 41
f 8 41 40
f 10 12 42
f 10 42 41
f 12 14 43
f 12 43 42
f 14 16 44
f 14 44 43
f 16 18 45
f 16 45 44
f 18 20 46
f 18 46 45
f 20 22 47
f 20 47 46
f 22 24 48
f 22 48 47
f 24 26 34
f 24 34 48
f 49 50 48
f 49 48 34
f 50 51 47
f 50 47 48
f 51 52 46
f 51 46 47
f 52 53 45
f 52 45 46
f 53 54 44
f 53 44 45
f 54 55 43
f 54 43 44
f 55 56 42
f 55 42 43
f 56 57 41
f 56 41 42
f 57 58 40
f 57 40 41
f 58 59 39
f 58 39 40
f 59 60 38
f 59 38 39
f 60 61 37
f 60 37 38
f 61 62 36
f 61 36 37
f 62 63 35
f 62 35 36
f 63 64 33
f 63 33 35
f 64 49 34
f 64 34 33
f 65 27 25
f 66 65 25
f 67 29 27
f 65 67 27
f 68 31 29
f 67 68 29
f 69 1 31
f 68 69 31
f 70 2 1
f 69 70 1
f 71 5 2
f 70 71 2
f 72 7 5
f 71 72 5
f 73 9 7
f 72 73 7
f 74 11 9
f 73 74 9
f 75 13 11
f 74 75 11
f 76 15 13
f 75 76 13
f 77 17 15
f 76 77 15
f 78 19 17
f 77 78 17
f 79 21 19
f 78 79 19
f 80 23 21
f 79 80 21
f 66 25 23
f 80 66 23
f 81 82 83
f 81 83 84
f 82 85 86
f 82 86 83
f 85 87 88
f 85 88 86
f 87 89 90
f 87 90 88
f 89 91 92
f 89 92 90
f 91 93 94
f 91 94 92
f 93 95 96
f 93 96 94
f 95 97 98
f 95 98 96
f 97 99 100
f 97 100 98
f 99 101 102
f 99 102 100
f 101 103 104
f 101 104 102
f 103 105 106
f 103 106 104
f 105 107 108
f 105 108 106
f 107 109 110
f 107 110 108
f 109 111 112
f 109 112 110
f 111 81 84
f 111 84 112
f 113 70 69
f 113 69 114
f 115 71 70
f 115 70 113
f 116 72 71
f 116 71 115
f 117 73 72
f 117 72 116
f 118 74 73
f 118 73 117
f 119 75 74
f 119 74 118
f 120 76 75
f 120 75 119
f 121 77 76
f 121 76 120
f 122 78 77
f 122 77 121
f 123 79 78
f 123 78 122
f 124 80 79
f 124 79 123
f 125 66 80
f 125 80 124
f 126 65 66
f 126 66 125
f 127 67 65
f 127 65 126
f 128 68 67
f 128 67 127
f 114 69 68
f 114 68 128
f 83 126 125
f 84 83 125
f 86 127 126
f 83 86 126
f 88 128 127
f 86 88 127
f 90 114 128
f 88 90 128
f 92 113 114
f 90 92 114
f 94 115 113
f 92 94 113
f 96 116 115
f 94 96 115
f 98 117 116
f 96 98 116
f 100 118 117
f 98 100 117
f 102 119 118
f 100 102 118
f 104 120 119
f 102 104 119
f 106 121 120
f 104 106 120
f 108 122 121
f 106 108 121
f 110 123 122
f 108 110 122
f 112 124 123
f 110 112 123
f 84 125 124
f 112 84 124
f 64 82 81
f 49 64 81
f 63 85 82
f 64 63 82
f 62 87 85
f 63 62 85
f 61 89 87
f 62 61 87
f 60 91 89
f 61 60 89
f 59 93 91
f 60 59 91
f 58 95 93
f 59 58 93
f 57 97 95
f 58 57 95
f 56 99 97
f 57 56 97
f 55 101 99
f 56 55 99
f 54 103 101
f 55 54 101
f 53 105 103
f 54 53 103
f 52 107 105
f 53 52 105
f 51 109 107
f 52 51 107
f 50 111 109
f 51 50 109
f 49 81 111
f 50 49 111
f 129 130 131
f 129 131 132
f 133 132 131
f 133 131 134
f 134 135 136
f 134 136 133
f 137 138 136
f 137 136 135
f 139 140 138
f 139 138 137
f 139 141 142
f 139 142 140
f 142 141 143
f 142 143 144
f 144 143 145
f 144 145 146
f 145 147 148
f 145 148 146
f 149 150 148
f 149 148 147
f 150 149 151
f 150 151 152
f 153 152 151
f 153 151 154
f 153 154 155
f 153 155 156
f 156 155 157
f 156 157 158
f 158 157 159
f 158 159 160
f 161 160 159
f 161 159 162
f 162 163 164
f 162 164 161
f 165 166 164
f 165 164 163
f 167 168 166
f 167 166 165
f 167 169 170
f 167 170 168
f 170 169 171
f 170 171 172
f 172 171 173
f 172 173 174
f 173 175 176
f 173 176 174
f 177 178 176
f 177 176 175
f 178 177 179
f 178 179 180
f 181 180 179
f 181 179 182
f 181 182 183
f 181 183 184
f 184 183 130
f 184 130 129
f 135 185 186
f 135 186 187
f 135 134 131
f 135 131 185
f 137 135 187
f 137 187 139
f 154 151 149
f 154 149 188
f 147 145 189
f 147 189 149
f 163 190 191
f 163 191 192
f 163 162 159
f 163 159 190
f 165 163 192
f 165 192 167
f 182 179 177
f 182 177 193
f 175 173 193
f 175 193 177
f 194 195 196
f 194 196 130
f 195 197 198
f 195 198 196
f 197 199 200
f 197 200 198
f 199 201 141
f 199 141 200
f 201 202 143
f 201 143 141
f 202 203 189
f 202 189 143
f 203 204 155
f 203 155 189
f 204 205 157
f 204 157 155
f 205 206 207
f 205 207 157
f 206 208 209
f 206 209 207
f 208 210 211
f 208 211 209
f 210 212 169
f 210 169 211
f 212 213 171
f 212 171 169
f 213 214 193
f 213 193 171
f 214 215 183
f 214 183 193
f 215 194 130
f 215 130 183
f 216 213 212
f 216 214 213
f 212 210 217
f 210 208 217
f 218 195 194
f 218 197 195
f 194 215 219
f 215 214 219
f 220 202 201
f 220 203 202
f 201 199 221
f 199 197 221
f 222 206 205
f 222 208 206
f 205 204 223
f 204 203 223
f 184 129 224
f 225 184 224
f 172 225 224
f 170 172 224
f 226 170 224
f 227 226 224
f 228 227 224
f 158 228 224
f 156 158 224
f 229 156 224
f 144 229 224
f 142 144 224
f 230 142 224
f 231 230 224
f 232 231 224
f 129 232 224
f 233 234 235
f 233 235 236
f 237 238 239
f 237 239 240
f 241 237 240
f 241 240 242
f 243 241 242
f 243 242 244
f 238 237 241
f 238 241 243
f 245 246 247
f 248 249 245
f 250 251 248
f 252 245 247
f 252 247 253
f 254 248 245
f 254 245 252
f 255 250 248
f 255 248 254
f 253 256 252
f 252 256 257
f 252 257 254
f 254 257 258
f 254 258 255
f 259 260 261
f 261 262 263
f 263 264 265
f 259 261 266
f 267 259 266
f 261 263 268
f 266 261 268
f 263 265 269
f 268 263 269
f 266 270 267
f 271 270 266
f 268 271 266
f 272 271 268
f 269 272 268
f 273 274 275
f 273 275 276
f 277 278 279
f 277 279 280
f 281 277 280
f 281 280 282
f 283 281 282
f 283 282 284
f 278 277 281
f 278 281 283
f 285 286 287
f 288 289 285
f 290 291 288
f 292 285 287
f 292 287 293
f 294 288 285
f 294 285 292
f 295 290 288
f 295 288 294
f 293 296 292
f 292 296 297
f 292 297 294
f 294 297 298
f 294 298 295
f 299 300 301
f 301 302 303
f 303 304 305
f 299 301 306
f 307 299 306
f 301 303 308
f 306 301 308
f 303 305 309
f 308 303 309
f 306 310 307
f 311 310 306
f 308 311 306
f 312 311 308
f 309 312 308
f 246 194 233
f 246 233 236
f 300 233 194
f 301 300 194
f 301 194 219
f 313 301 219
f 313 219 214
f 303 313 214
f 303 214 216
f 303 216 212
f 303 212 304
f 290 283 304
f 290 304 212
f 291 290 212
f 212 217 288
f 212 288 291
f 314 288 217
f 314 217 208
f 285 314 208
f 285 208 222
f 259 287 286
f 259 286 205
f 285 222 205
f 285 205 286
f 205 223 261
f 205 261 260
f 260 259 205
f 263 315 203
f 263 203 220
f 223 203 315
f 223 315 261
f 263 220 201
f 263 201 264
f 264 201 238
f 264 238 265
f 251 238 201
f 201 221 248
f 201 248 251
f 245 316 197
f 245 197 218
f 221 197 316
f 221 316 248
f 194 246 245
f 194 245 218
f 317 318 319
f 320 317 319
f 317 320 321
f 322 317 321
f 323 324 322
f 321 323 322
f 323 325 326
f 324 323 326
f 325 327 328
f 326 325 328
f 329 330 328
f 327 329 328
f 331 330 329
f 332 331 329
f 333 331 332
f 334 333 332
f 335 336 333
f 334 335 333
f 335 337 338
f 336 335 338
f 339 338 337
f 340 339 337
f 339 340 341
f 342 339 341
f 343 342 341
f 344 343 341
f 345 343 344
f 346 345 344
f 347 345 346
f 348 347 346
f 347 348 349
f 350 347 349
f 351 352 350
f 349 351 350
f 351 353 354
f 352 351 354
f 353 355 356
f 354 353 356
f 357 358 356
f 355 357 356
f 359 358 357
f 360 359 357
f 361 359 360
f 362 361 360
f 363 364 361
f 362 363 361
f 363 365 366
f 364 363 366
f 367 366 365
f 368 367 365
f 367 368 369
f 370 367 369
f 371 370 369
f 372 371 369
f 318 371 372
f 319 318 372
f 373 374 324
f 375 373 324
f 317 322 324
f 374 317 324
f 375 324 326
f 328 375 326
f 338 339 342
f 376 338 342
f 377 333 336
f 338 377 336
f 378 379 352
f 380 378 352
f 347 350 352
f 379 347 352
f 380 352 354
f 356 380 354
f 366 367 370
f 381 366 370
f 381 361 364
f 366 381 364
f 382 383 384
f 318 382 384
f 385 386 383
f 382 385 383
f 387 388 386
f 385 387 386
f 330 389 388
f 387 330 388
f 331 390 389
f 330 331 389
f 377 391 390
f 331 377 390
f 343 392 391
f 377 343 391
f 345 393 392
f 343 345 392
f 394 395 393
f 345 394 393
f 396 397 395
f 394 396 395
f 398 399 397
f 396 398 397
f 358 400 399
f 398 358 399
f 359 401 400
f 358 359 400
f 381 402 401
f 359 381 401
f 371 403 402
f 381 371 402
f 318 384 403
f 371 318 403
f 400 401 404
f 401 402 404
f 405 399 400
f 405 397 399
f 384 383 406
f 383 386 406
f 407 403 384
f 407 402 403
f 389 390 408
f 390 391 408
f 409 388 389
f 409 386 388
f 393 395 410
f 395 397 410
f 411 392 393
f 411 391 392
f 412 319 372
f 412 372 413
f 412 413 360
f 412 360 357
f 412 357 414
f 412 414 415
f 412 415 416
f 412 416 346
f 412 346 344
f 412 344 417
f 412 417 332
f 412 332 329
f 412 329 418
f 412 418 419
f 412 419 420
f 412 420 319
f 421 422 423
f 424 421 423
f 425 426 427
f 428 425 427
f 428 427 429
f 430 428 429
f 430 429 431
f 432 430 431
f 429 427 426
f 431 429 426
f 433 434 435
f 435 436 437
f 437 438 439
f 433 435 440
f 441 433 440
f 435 437 442
f 440 435 442
f 437 439 443
f 442 437 443
f 440 444 441
f 445 444 440
f 442 445 440
f 446 445 442
f 443 446 442
f 447 448 449
f 450 451 447
f 452 453 450
f 454 447 449
f 454 449 455
f 456 450 447
f 456 447 454
f 457 452 450
f 457 450 456
f 455 458 454
f 454 458 459
f 454 459 456
f 456 459 460
f 456 460 457
f 461 462 463
f 464 461 463
f 465 466 467
f 468 465 467
f 468 467 469
f 470 468 469
f 470 469 471
f 472 470 471
f 469 467 466
f 471 469 466
f 473 474 475
f 475 476 477
f 477 478 479
f 473 475 480
f 481 473 480
f 475 477 482
f 480 475 482
f 477 479 483
f 482 477 483
f 480 484 481
f 485 484 480
f 482 485 480
f 486 485 482
f 483 486 482
f 487 488 489
f 490 491 487
f 492 493 490
f 494 487 489
f 494 489 495
f 496 490 487
f 496 487 494
f 497 492 490
f 497 490 496
f 495 498 494
f 494 498 499
f 494 499 496
f 496 499 500
f 496 500 497
f 423 384 434
f 424 423 434
f 384 423 488
f 384 488 487
f 407 384 487
f 407 487 501
f 402 407 501
f 402 501 490
f 404 402 490
f 400 404 490
f 493 400 490
f 493 471 479
f 400 493 479
f 400 479 478
f 477 405 400
f 478 477 400
f 405 477 502
f 397 405 502
f 397 502 475
f 410 397 475
f 474 473 449
f 393 474 449
f 393 410 475
f 474 393 475
f 447 411 393
f 448 447 393
f 393 449 448
f 391 503 450
f 408 391 450
f 503 391 411
f 447 503 411
f 389 408 450
f 453 389 450
f 426 389 453
f 452 426 453
f 389 426 438
f 437 409 389
f 438 437 389
f 386 504 435
f 406 386 435
f 504 386 409
f 437 504 409
f 435 434 384
f 406 435 384
f 505 506 507
f 505 507 508
f 508 509 510
f 508 510 505
f 511 512 510
f 511 510 509
f 511 513 514
f 511 514 515
f 512 515 516
f 512 516 517
f 518 519 517
f 518 517 516
f 518 520 521
f 518 521 519
f 522 523 521
f 522 521 520
f 522 524 525
f 522 525 523
f 526 527 525
f 526 525 524
f 528 529 527
f 528 527 526
f 528 530 531
f 528 531 529
f 532 533 531
f 532 531 530
f 514 513 533
f 514 533 532
f 515 512 511
f 534 535 536
f 534 536 537
f 507 538 539
f 507 539 508
f 540 541 542
f 540 542 543
f 544 545 546
f 544 546 547
f 511 548 549
f 511 549 513
f 513 549 550
f 513 550 533
f 551 552 553
f 551 553 554
f 555 556 557
f 555 557 558
f 559 560 561
f 559 561 562
f 525 563 564
f 525 564 523
f 565 566 567
f 565 567 568
f 519 569 570
f 519 570 517
f 512 517 570
f 512 570 571
f 512 571 572
f 512 572 510
f 573 574 575
f 573 575 576
f 577 578 579
f 577 579 580
f 581 582 583
f 581 583 584
f 516 585 586
f 516 586 518
f 587 588 589
f 587 589 590
f 522 591 592
f 522 592 524
f 593 594 595
f 593 595 596
f 526 597 598
f 526 598 528
f 528 598 599
f 528 599 530
f 600 601 602
f 600 602 603
f 514 604 605
f 514 605 515
f 606 607 608
f 606 608 609
f 521 610 569
f 521 569 519
f 518 586 611
f 518 611 520
f 530 599 612
f 530 612 532
f 613 614 615
f 613 615 616
f 616 617 618
f 616 618 613
f 619 620 618
f 619 618 617
f 619 621 622
f 619 622 623
f 620 623 624
f 620 624 625
f 626 627 625
f 626 625 624
f 626 628 629
f 626 629 627
f 630 631 629
f 630 629 628
f 630 632 633
f 630 633 631
f 634 635 633
f 634 633 632
f 636 637 635
f 636 635 634
f 636 638 639
f 636 639 637
f 640 641 639
f 640 639 638
f 622 621 641
f 622 641 640
f 623 620 619
f 642 643 644
f 642 644 645
f 615 646 647
f 615 647 616
f 648 649 650
f 648 650 651
f 652 653 654
f 652 654 655
f 619 656 657
f 619 657 621
f 621 657 658
f 621 658 641
f 659 660 661
f 659 661 662
f 663 664 665
f 663 665 666
f 667 668 669
f 667 669 670
f 633 671 672
f 633 672 631
f 673 674 675
f 673 675 676
f 627 677 678
f 627 678 625
f 620 625 678
f 620 678 679
f 620 679 680
f 620 680 618
f 681 682 683
f 681 683 684
f 685 686 687
f 685 687 688
f 689 690 691
f 689 691 692
f 624 693 694
f 624 694 626
f 695 696 697
f 695 697 698
f 630 699 700
f 630 700 632
f 701 702 703
f 701 703 704
f 634 705 706
f 634 706 636
f 636 706 707
f 636 707 638
f 708 709 710
f 708 710 711
f 622 712 713
f 622 713 623
f 714 715 716
f 714 716 717
f 629 718 677
f 629 677 627
f 626 694 719
f 626 719 628
f 638 707 720
f 638 720 640
