# Botball Lab: metres, +Y up, centred XZ, base Y=0
s off
v -0.0040000 0.0026816 0.0019827
v -0.0040000 0.0019029 0.0025029
v -0.0040000 0.0013827 0.0032816
v -0.0040000 0.0013827 0.0051184
v -0.0040000 0.0019029 0.0058971
v -0.0040000 0.0026816 0.0064173
v -0.0040000 0.0045184 0.0064173
v -0.0040000 0.0052971 0.0058971
v -0.0040000 0.0058173 0.0051184
v -0.0040000 0.0058173 0.0032816
v -0.0040000 0.0052971 0.0025029
v -0.0040000 0.0045184 0.0019827
v -0.0040000 0.0026000 0.0032000
v -0.0040000 0.0028000 0.0026000
v -0.0040000 0.0028000 0.0019591
v -0.0040000 0.0020000 0.0034000
v -0.0040000 0.0013591 0.0034000
v -0.0040000 0.0026000 0.0052000
v -0.0040000 0.0020000 0.0050000
v -0.0040000 0.0013591 0.0050000
v -0.0040000 0.0028000 0.0064409
v -0.0040000 0.0028000 0.0058000
v -0.0040000 0.0044000 0.0058000
v -0.0040000 0.0044000 0.0064409
v -0.0040000 0.0046000 0.0052000
v -0.0040000 0.0058409 0.0050000
v -0.0040000 0.0052000 0.0050000
v -0.0040000 0.0046000 0.0032000
v -0.0040000 0.0058409 0.0034000
v -0.0040000 0.0052000 0.0034000
v -0.0040000 0.0044000 0.0026000
v -0.0040000 0.0044000 0.0019591
v 0.0040000 0.0045184 0.0019827
v 0.0040000 0.0052971 0.0025029
v 0.0040000 0.0058173 0.0032816
v 0.0040000 0.0058173 0.0051184
v 0.0040000 0.0052971 0.0058971
v 0.0040000 0.0045184 0.0064173
v 0.0040000 0.0026816 0.0064173
v 0.0040000 0.0019029 0.0058971
v 0.0040000 0.0013827 0.0051184
v 0.0040000 0.0013827 0.0032816
v 0.0040000 0.0019029 0.0025029
v 0.0040000 0.0026816 0.0019827
v 0.0040000 0.0046000 0.0032000
v 0.0040000 0.0044000 0.0026000
v 0.0040000 0.0044000 0.0019591
v 0.0040000 0.0052000 0.0034000
v 0.0040000 0.0058409 0.0034000
v 0.0040000 0.0046000 0.0052000
v 0.0040000 0.0052000 0.0050000
v 0.0040000 0.0058409 0.0050000
v 0.0040000 0.0044000 0.0064409
v 0.0040000 0.0044000 0.0058000
v 0.0040000 0.0028000 0.0058000
v 0.0040000 0.0028000 0.0064409
v 0.0040000 0.0026000 0.0052000
v 0.0040000 0.0013591 0.0050000
v 0.0040000 0.0020000 0.0050000
v 0.0040000 0.0026000 0.0032000
v 0.0040000 0.0013591 0.0034000
v 0.0040000 0.0020000 0.0034000
v 0.0040000 0.0028000 0.0026000
v 0.0040000 0.0028000 0.0019591
v 0.0040000 0.0036000 0.0018000
v -0.0040000 0.0036000 0.0018000
v -0.0040000 0.0036000 0.0066000
v 0.0040000 0.0036000 0.0066000
v -0.0018828 0.0012563 0.0039172
v -0.0020000 0.0012000 0.0042000
v -0.0020000 0.0008000 0.0042000
v -0.0018828 0.0008563 0.0039172
v -0.0016000 0.0012796 0.0038000
v -0.0016000 0.0008796 0.0038000
v -0.0018828 0.0012563 0.0044828
v -0.0018828 0.0008563 0.0044828
v -0.0016000 0.0012796 0.0046000
v -0.0016000 0.0008796 0.0046000
v 0.0018828 0.0012563 0.0044828
v 0.0020000 0.0012000 0.0042000
v 0.0020000 0.0008000 0.0042000
v 0.0018828 0.0008563 0.0044828
v 0.0016000 0.0012796 0.0046000
v 0.0016000 0.0008796 0.0046000
v 0.0018828 0.0012563 0.0039172
v 0.0018828 0.0008563 0.0039172
v 0.0016000 0.0012796 0.0038000
v 0.0016000 0.0008796 0.0038000
v -0.0018828 0.0059437 0.0044828
v -0.0020000 0.0060000 0.0042000
v -0.0020000 0.0064000 0.0042000
v -0.0018828 0.0063437 0.0044828
v -0.0016000 0.0059204 0.0046000
v -0.0016000 0.0063204 0.0046000
v -0.0018828 0.0059437 0.0039172
v -0.0018828 0.0063437 0.0039172
v -0.0016000 0.0059204 0.0038000
v -0.0016000 0.0063204 0.0038000
v 0.0018828 0.0059437 0.0039172
v 0.0020000 0.0060000 0.0042000
v 0.0020000 0.0064000 0.0042000
v 0.0018828 0.0063437 0.0039172
v 0.0016000 0.0059204 0.0038000
v 0.0016000 0.0063204 0.0038000
v 0.0018828 0.0059437 0.0044828
v 0.0018828 0.0063437 0.0044828
v 0.0016000 0.0059204 0.0046000
v 0.0016000 0.0063204 0.0046000
v -0.0020000 0.0012796 0.0038000
v -0.0020000 0.0012796 0.0046000
v 0.0020000 0.0012796 0.0046000
v 0.0020000 0.0012796 0.0038000
v -0.0020000 0.0059204 0.0046000
v -0.0020000 0.0059204 0.0038000
v 0.0020000 0.0059204 0.0038000
v 0.0020000 0.0059204 0.0046000
v -0.0040000 0.0013592 0.0034000
v -0.0040000 0.0012000 0.0042000
v 0.0040000 0.0012000 0.0042000
v 0.0040000 0.0013592 0.0034000
v -0.0040000 0.0013592 0.0050000
v 0.0040000 0.0013592 0.0050000
v -0.0040000 0.0060000 0.0042000
v -0.0040000 0.0058408 0.0034000
v 0.0040000 0.0058408 0.0034000
v 0.0040000 0.0060000 0.0042000
v -0.0040000 0.0058408 0.0050000
v 0.0040000 0.0058408 0.0050000
v -0.0020000 0.0008796 0.0038000
v -0.0020000 0.0008796 0.0046000
v 0.0020000 0.0008796 0.0046000
v 0.0020000 0.0008796 0.0038000
v -0.0020000 0.0063204 0.0046000
v -0.0020000 0.0063204 0.0038000
v 0.0020000 0.0063204 0.0038000
v 0.0020000 0.0063204 0.0046000
v 0.0024000 0.0010131 0.0052715
v 0.0024000 0.0016201 0.0061800
v -0.0024000 0.0016201 0.0061800
v -0.0024000 0.0010131 0.0052715
v 0.0024000 0.0025285 0.0067868
v -0.0024000 0.0025285 0.0067868
v 0.0024000 0.0036000 0.0070001
v -0.0024000 0.0036000 0.0070001
v 0.0024000 0.0046715 0.0067869
v -0.0024000 0.0046715 0.0067869
v 0.0024000 0.0055800 0.0061799
v -0.0024000 0.0055800 0.0061799
v 0.0024000 0.0061868 0.0052715
v -0.0024000 0.0061868 0.0052715
v -0.0024000 0.0016201 0.0022200
v 0.0024000 0.0016201 0.0022200
v 0.0024000 0.0010131 0.0031285
v -0.0024000 0.0010131 0.0031285
v -0.0024000 0.0025285 0.0016132
v 0.0024000 0.0025285 0.0016132
v -0.0024000 0.0036000 0.0013999
v 0.0024000 0.0036000 0.0013999
v -0.0024000 0.0046715 0.0016131
v 0.0024000 0.0046715 0.0016131
v -0.0024000 0.0055800 0.0022201
v 0.0024000 0.0055800 0.0022201
v -0.0024000 0.0061868 0.0031285
v 0.0024000 0.0061868 0.0031285
v 0.0024000 0.0010131 0.0031284
v -0.0024000 0.0010131 0.0031284
v -0.0024000 0.0010131 0.0052716
v 0.0024000 0.0010131 0.0052716
v -0.0024000 0.0008000 0.0042000
v 0.0024000 0.0008000 0.0042000
v -0.0024000 0.0061869 0.0031284
v 0.0024000 0.0061869 0.0031284
v 0.0024000 0.0061869 0.0052716
v -0.0024000 0.0061869 0.0052716
v -0.0024000 0.0064000 0.0042000
v 0.0024000 0.0064000 0.0042000
v 0.0026000 0.0006435 0.0029754
v 0.0026000 0.0004000 0.0042000
v 0.0024000 0.0016201 0.0022201
v 0.0026000 0.0013373 0.0019373
v 0.0024000 0.0025284 0.0016131
v 0.0026000 0.0023754 0.0012435
v 0.0024000 0.0036000 0.0014000
v 0.0026000 0.0036000 0.0010000
v 0.0024000 0.0046716 0.0016131
v 0.0026000 0.0048246 0.0012435
v 0.0024000 0.0055799 0.0022201
v 0.0026000 0.0058627 0.0019373
v 0.0026000 0.0065565 0.0029754
v 0.0026000 0.0068000 0.0042000
v 0.0026000 0.0065565 0.0054246
v 0.0024000 0.0055799 0.0061799
v 0.0026000 0.0058627 0.0064627
v 0.0024000 0.0046716 0.0067869
v 0.0026000 0.0048246 0.0071565
v 0.0024000 0.0036000 0.0070000
v 0.0026000 0.0036000 0.0074000
v 0.0024000 0.0025284 0.0067869
v 0.0026000 0.0023754 0.0071565
v 0.0024000 0.0016201 0.0061799
v 0.0026000 0.0013373 0.0064627
v 0.0026000 0.0006435 0.0054246
v 0.0028000 0.0002740 0.0028223
v 0.0028000 0.0000000 0.0042000
v 0.0028000 0.0010544 0.0016544
v 0.0028000 0.0022223 0.0008740
v 0.0028000 0.0036000 0.0006000
v 0.0028000 0.0049777 0.0008740
v 0.0028000 0.0061456 0.0016544
v 0.0028000 0.0069260 0.0028223
v 0.0028000 0.0072000 0.0042000
v 0.0028000 0.0069260 0.0055777
v 0.0028000 0.0061456 0.0067456
v 0.0028000 0.0049777 0.0075260
v 0.0028000 0.0036000 0.0078000
v 0.0028000 0.0022223 0.0075260
v 0.0028000 0.0010544 0.0067456
v 0.0028000 0.0002740 0.0055777
v -0.0026000 0.0065565 0.0029754
v -0.0026000 0.0068000 0.0042000
v -0.0024000 0.0055799 0.0022201
v -0.0026000 0.0058627 0.0019373
v -0.0024000 0.0046716 0.0016131
v -0.0026000 0.0048246 0.0012435
v -0.0024000 0.0036000 0.0014000
v -0.0026000 0.0036000 0.0010000
v -0.0024000 0.0025284 0.0016131
v -0.0026000 0.0023754 0.0012435
v -0.0024000 0.0016201 0.0022201
v -0.0026000 0.0013373 0.0019373
v -0.0026000 0.0006435 0.0029754
v -0.0026000 0.0004000 0.0042000
v -0.0026000 0.0006435 0.0054246
v -0.0024000 0.0016201 0.0061799
v -0.0026000 0.0013373 0.0064627
v -0.0024000 0.0025284 0.0067869
v -0.0026000 0.0023754 0.0071565
v -0.0024000 0.0036000 0.0070000
v -0.0026000 0.0036000 0.0074000
v -0.0024000 0.0046716 0.0067869
v -0.0026000 0.0048246 0.0071565
v -0.0024000 0.0055799 0.0061799
v -0.0026000 0.0058627 0.0064627
v -0.0026000 0.0065565 0.0054246
v -0.0028000 0.0069260 0.0028223
v -0.0028000 0.0072000 0.0042000
v -0.0028000 0.0061456 0.0016544
v -0.0028000 0.0049777 0.0008740
v -0.0028000 0.0036000 0.0006000
v -0.0028000 0.0022223 0.0008740
v -0.0028000 0.0010544 0.0016544
v -0.0028000 0.0002740 0.0028223
v -0.0028000 0.0000000 0.0042000
v -0.0028000 0.0002740 0.0055777
v -0.0028000 0.0010544 0.0067456
v -0.0028000 0.0022223 0.0075260
v -0.0028000 0.0036000 0.0078000
v -0.0028000 0.0049777 0.0075260
v -0.0028000 0.0061456 0.0067456
v -0.0028000 0.0069260 0.0055777
v 0.0040000 0.0049777 0.0008740
v 0.0040000 0.0045185 0.0019826
v 0.0040000 0.0036000 0.0006000
v 0.0040000 0.0061456 0.0016544
v 0.0040000 0.0052970 0.0025030
v 0.0040000 0.0069260 0.0028223
v 0.0040000 0.0058174 0.0032815
v 0.0040000 0.0072000 0.0042000
v 0.0040000 0.0069260 0.0055777
v 0.0040000 0.0058174 0.0051185
v 0.0040000 0.0061456 0.0067456
v 0.0040000 0.0052970 0.0058970
v 0.0040000 0.0049777 0.0075260
v 0.0040000 0.0045185 0.0064174
v 0.0040000 0.0036000 0.0078000
v 0.0040000 0.0022223 0.0075260
v 0.0040000 0.0026815 0.0064174
v 0.0040000 0.0010544 0.0067456
v 0.0040000 0.0019030 0.0058970
v 0.0040000 0.0002740 0.0055777
v 0.0040000 0.0013826 0.0051185
v 0.0040000 0.0000000 0.0042000
v 0.0040000 0.0002740 0.0028223
v 0.0040000 0.0013826 0.0032815
v 0.0040000 0.0010544 0.0016544
v 0.0040000 0.0019030 0.0025030
v 0.0040000 0.0022223 0.0008740
v 0.0040000 0.0026815 0.0019826
v -0.0033240 0.0022240 -0.0078000
v -0.0036000 0.0036000 -0.0078000
v -0.0024000 0.0036000 -0.0078000
v -0.0022160 0.0026800 -0.0078000
v -0.0016960 0.0019040 -0.0078000
v -0.0030280 0.0017800 -0.0078000
v -0.0023040 0.0012960 -0.0078000
v -0.0018200 0.0005720 -0.0078000
v -0.0009200 0.0013840 -0.0078000
v -0.0013760 0.0002760 -0.0078000
v 0.0000000 0.0000000 -0.0078000
v 0.0000000 0.0012000 -0.0078000
v -0.0013760 0.0002760 -0.0066000
v 0.0000000 0.0000000 -0.0066000
v 0.0000000 0.0008000 -0.0062000
v -0.0010720 0.0010120 -0.0062000
v -0.0019800 0.0016200 -0.0062000
v -0.0018200 0.0005720 -0.0066000
v -0.0023040 0.0012960 -0.0064280
v -0.0030280 0.0017800 -0.0066000
v -0.0025880 0.0025280 -0.0062000
v -0.0033240 0.0022240 -0.0066000
v -0.0036000 0.0036000 -0.0066000
v -0.0028000 0.0036000 -0.0062000
v -0.0013760 0.0069240 -0.0078000
v 0.0000000 0.0072000 -0.0078000
v 0.0000000 0.0060000 -0.0078000
v -0.0009200 0.0058160 -0.0078000
v -0.0016960 0.0052960 -0.0078000
v -0.0018200 0.0066280 -0.0078000
v -0.0023040 0.0059040 -0.0078000
v -0.0030280 0.0054200 -0.0078000
v -0.0022160 0.0045200 -0.0078000
v -0.0033240 0.0049760 -0.0078000
v -0.0033240 0.0049760 -0.0066000
v -0.0025880 0.0046720 -0.0062000
v -0.0019800 0.0055800 -0.0062000
v -0.0030280 0.0054200 -0.0066000
v -0.0023040 0.0059040 -0.0064280
v -0.0018200 0.0066280 -0.0066000
v -0.0010720 0.0061880 -0.0062000
v -0.0013760 0.0069240 -0.0066000
v 0.0000000 0.0072000 -0.0066000
v 0.0000000 0.0064000 -0.0062000
v 0.0033240 0.0049760 -0.0078000
v 0.0036000 0.0036000 -0.0078000
v 0.0024000 0.0036000 -0.0078000
v 0.0022160 0.0045200 -0.0078000
v 0.0016960 0.0052960 -0.0078000
v 0.0030280 0.0054200 -0.0078000
v 0.0023040 0.0059040 -0.0078000
v 0.0018200 0.0066280 -0.0078000
v 0.0009200 0.0058160 -0.0078000
v 0.0013760 0.0069240 -0.0078000
v 0.0013760 0.0069240 -0.0066000
v 0.0010720 0.0061880 -0.0062000
v 0.0019800 0.0055800 -0.0062000
v 0.0018200 0.0066280 -0.0066000
v 0.0023040 0.0059040 -0.0064280
v 0.0030280 0.0054200 -0.0066000
v 0.0025880 0.0046720 -0.0062000
v 0.0033240 0.0049760 -0.0066000
v 0.0036000 0.0036000 -0.0066000
v 0.0028000 0.0036000 -0.0062000
v 0.0013760 0.0002760 -0.0078000
v 0.0009200 0.0013840 -0.0078000
v 0.0016960 0.0019040 -0.0078000
v 0.0018200 0.0005720 -0.0078000
v 0.0023040 0.0012960 -0.0078000
v 0.0030280 0.0017800 -0.0078000
v 0.0022160 0.0026800 -0.0078000
v 0.0033240 0.0022240 -0.0078000
v 0.0033240 0.0022240 -0.0066000
v 0.0025880 0.0025280 -0.0062000
v 0.0019800 0.0016200 -0.0062000
v 0.0030280 0.0017800 -0.0066000
v 0.0023040 0.0012960 -0.0064280
v 0.0018200 0.0005720 -0.0066000
v 0.0010720 0.0010120 -0.0062000
v 0.0013760 0.0002760 -0.0066000
v -0.0022173 0.0026816 0.0002000
v -0.0016971 0.0019029 0.0002000
v -0.0009184 0.0013827 0.0002000
v 0.0009184 0.0013827 0.0002000
v 0.0016971 0.0019029 0.0002000
v 0.0022173 0.0026816 0.0002000
v 0.0022173 0.0045184 0.0002000
v 0.0016971 0.0052971 0.0002000
v 0.0009184 0.0058173 0.0002000
v -0.0009184 0.0058173 0.0002000
v -0.0016971 0.0052971 0.0002000
v -0.0022173 0.0045184 0.0002000
v -0.0010000 0.0026000 0.0002000
v -0.0016000 0.0028000 0.0002000
v -0.0022409 0.0028000 0.0002000
v -0.0008000 0.0020000 0.0002000
v -0.0008000 0.0013591 0.0002000
v 0.0010000 0.0026000 0.0002000
v 0.0008000 0.0020000 0.0002000
v 0.0008000 0.0013591 0.0002000
v 0.0022409 0.0028000 0.0002000
v 0.0016000 0.0028000 0.0002000
v 0.0016000 0.0044000 0.0002000
v 0.0022409 0.0044000 0.0002000
v 0.0010000 0.0046000 0.0002000
v 0.0008000 0.0058409 0.0002000
v 0.0008000 0.0052000 0.0002000
v -0.0010000 0.0046000 0.0002000
v -0.0008000 0.0058409 0.0002000
v -0.0008000 0.0052000 0.0002000
v -0.0016000 0.0044000 0.0002000
v -0.0022409 0.0044000 0.0002000
v -0.0022173 0.0045184 -0.0078000
v -0.0016971 0.0052971 -0.0078000
v -0.0009184 0.0058173 -0.0078000
v 0.0009184 0.0058173 -0.0078000
v 0.0016971 0.0052971 -0.0078000
v 0.0022173 0.0045184 -0.0078000
v 0.0022173 0.0026816 -0.0078000
v 0.0016971 0.0019029 -0.0078000
v 0.0009184 0.0013827 -0.0078000
v -0.0009184 0.0013827 -0.0078000
v -0.0016971 0.0019029 -0.0078000
v -0.0022173 0.0026816 -0.0078000
v -0.0010000 0.0046000 -0.0078000
v -0.0016000 0.0044000 -0.0078000
v -0.0022409 0.0044000 -0.0078000
v -0.0008000 0.0052000 -0.0078000
v -0.0008000 0.0058409 -0.0078000
v 0.0010000 0.0046000 -0.0078000
v 0.0008000 0.0052000 -0.0078000
v 0.0008000 0.0058409 -0.0078000
v 0.0022409 0.0044000 -0.0078000
v 0.0016000 0.0044000 -0.0078000
v 0.0016000 0.0028000 -0.0078000
v 0.0022409 0.0028000 -0.0078000
v 0.0010000 0.0026000 -0.0078000
v 0.0008000 0.0013591 -0.0078000
v 0.0008000 0.0020000 -0.0078000
v -0.0010000 0.0026000 -0.0078000
v -0.0008000 0.0013591 -0.0078000
v -0.0008000 0.0020000 -0.0078000
v -0.0016000 0.0028000 -0.0078000
v -0.0022409 0.0028000 -0.0078000
v -0.0024000 0.0036000 0.0002000
v 0.0024000 0.0036000 0.0002000
v -0.0002828 0.0012563 -0.0019172
v 0.0000000 0.0012000 -0.0018000
v 0.0000000 0.0008000 -0.0018000
v -0.0002828 0.0008563 -0.0019172
v -0.0004000 0.0012796 -0.0022000
v -0.0004000 0.0008796 -0.0022000
v 0.0002828 0.0012563 -0.0019172
v 0.0002828 0.0008563 -0.0019172
v 0.0004000 0.0012796 -0.0022000
v 0.0004000 0.0008796 -0.0022000
v 0.0002828 0.0012563 -0.0056828
v 0.0000000 0.0012000 -0.0058000
v 0.0000000 0.0008000 -0.0058000
v 0.0002828 0.0008563 -0.0056828
v 0.0004000 0.0012796 -0.0054000
v 0.0004000 0.0008796 -0.0054000
v -0.0002828 0.0012563 -0.0056828
v -0.0002828 0.0008563 -0.0056828
v -0.0004000 0.0012796 -0.0054000
v -0.0004000 0.0008796 -0.0054000
v 0.0002828 0.0059437 -0.0019172
v 0.0000000 0.0060000 -0.0018000
v 0.0000000 0.0064000 -0.0018000
v 0.0002828 0.0063437 -0.0019172
v 0.0004000 0.0059204 -0.0022000
v 0.0004000 0.0063204 -0.0022000
v -0.0002828 0.0059437 -0.0019172
v -0.0002828 0.0063437 -0.0019172
v -0.0004000 0.0059204 -0.0022000
v -0.0004000 0.0063204 -0.0022000
v -0.0002828 0.0059437 -0.0056828
v 0.0000000 0.0060000 -0.0058000
v 0.0000000 0.0064000 -0.0058000
v -0.0002828 0.0063437 -0.0056828
v -0.0004000 0.0059204 -0.0054000
v -0.0004000 0.0063204 -0.0054000
v 0.0002828 0.0059437 -0.0056828
v 0.0002828 0.0063437 -0.0056828
v 0.0004000 0.0059204 -0.0054000
v 0.0004000 0.0063204 -0.0054000
v -0.0004000 0.0012796 -0.0018000
v 0.0004000 0.0012796 -0.0018000
v 0.0004000 0.0012796 -0.0058000
v -0.0004000 0.0012796 -0.0058000
v 0.0004000 0.0059204 -0.0018000
v -0.0004000 0.0059204 -0.0018000
v -0.0004000 0.0059204 -0.0058000
v 0.0004000 0.0059204 -0.0058000
v -0.0008000 0.0013592 0.0002000
v 0.0000000 0.0012000 0.0002000
v -0.0008000 0.0013592 -0.0078000
v 0.0008000 0.0013592 0.0002000
v 0.0008000 0.0013592 -0.0078000
v 0.0000000 0.0060000 0.0002000
v -0.0008000 0.0058408 0.0002000
v -0.0008000 0.0058408 -0.0078000
v 0.0008000 0.0058408 0.0002000
v 0.0008000 0.0058408 -0.0078000
v -0.0004000 0.0008796 -0.0018000
v 0.0004000 0.0008796 -0.0018000
v 0.0004000 0.0008796 -0.0058000
v -0.0004000 0.0008796 -0.0058000
v 0.0004000 0.0063204 -0.0018000
v -0.0004000 0.0063204 -0.0018000
v -0.0004000 0.0063204 -0.0058000
v 0.0004000 0.0063204 -0.0058000
v 0.0010715 0.0010131 -0.0062000
v 0.0019800 0.0016201 -0.0062000
v 0.0019800 0.0016201 -0.0014000
v 0.0010715 0.0010131 -0.0014000
v 0.0025868 0.0025285 -0.0062000
v 0.0025868 0.0025285 -0.0014000
v 0.0028001 0.0036000 -0.0062000
v 0.0028001 0.0036000 -0.0014000
v 0.0025869 0.0046715 -0.0062000
v 0.0025869 0.0046715 -0.0014000
v 0.0019799 0.0055800 -0.0062000
v 0.0019799 0.0055800 -0.0014000
v 0.0010715 0.0061868 -0.0062000
v 0.0010715 0.0061868 -0.0014000
v -0.0019800 0.0016201 -0.0014000
v -0.0019800 0.0016201 -0.0062000
v -0.0010715 0.0010131 -0.0062000
v -0.0010715 0.0010131 -0.0014000
v -0.0025868 0.0025285 -0.0014000
v -0.0025868 0.0025285 -0.0062000
v -0.0028001 0.0036000 -0.0014000
v -0.0028001 0.0036000 -0.0062000
v -0.0025869 0.0046715 -0.0014000
v -0.0025869 0.0046715 -0.0062000
v -0.0019799 0.0055800 -0.0014000
v -0.0019799 0.0055800 -0.0062000
v -0.0010715 0.0061868 -0.0014000
v -0.0010715 0.0061868 -0.0062000
v -0.0010716 0.0010131 -0.0062000
v -0.0010716 0.0010131 -0.0014000
v 0.0010716 0.0010131 -0.0014000
v 0.0010716 0.0010131 -0.0062000
v 0.0000000 0.0008000 -0.0014000
v -0.0010716 0.0061869 -0.0014000
v -0.0010716 0.0061869 -0.0062000
v 0.0010716 0.0061869 -0.0062000
v 0.0010716 0.0061869 -0.0014000
v 0.0000000 0.0064000 -0.0014000
v 0.0036000 0.0064000 -0.0014000
v -0.0036000 0.0064000 -0.0014000
v -0.0028000 0.0064000 0.0004000
v 0.0028000 0.0064000 0.0004000
v -0.0036000 0.0008000 -0.0014000
v 0.0036000 0.0008000 -0.0014000
v 0.0028000 0.0008000 0.0004000
v -0.0028000 0.0008000 0.0004000
v -0.0036000 0.0064000 0.0020360
v -0.0028000 0.0064000 0.0020360
v -0.0028000 0.0008000 0.0020360
v -0.0036000 0.0008000 0.0020360
v 0.0028000 0.0064000 0.0020360
v 0.0036000 0.0064000 0.0020360
v 0.0036000 0.0008000 0.0020360
v 0.0028000 0.0008000 0.0020360
v -0.0040000 0.0022223 0.0008740
v -0.0040000 0.0036000 0.0006000
v -0.0040000 0.0010544 0.0016544
v -0.0040000 0.0002740 0.0028223
v -0.0040000 0.0000000 0.0042000
v -0.0040000 0.0002740 0.0055777
v -0.0040000 0.0010544 0.0067456
v -0.0040000 0.0022223 0.0075260
v -0.0040000 0.0036000 0.0078000
v -0.0040000 0.0049777 0.0075260
v -0.0040000 0.0061456 0.0067456
v -0.0040000 0.0069260 0.0055777
v -0.0040000 0.0072000 0.0042000
v -0.0040000 0.0069260 0.0028223
v -0.0040000 0.0061456 0.0016544
v -0.0040000 0.0049777 0.0008740
v -0.0040000 0.0045185 0.0019826
v -0.0040000 0.0052970 0.0025030
v -0.0040000 0.0058174 0.0032815
v -0.0040000 0.0058174 0.0051185
v -0.0040000 0.0052970 0.0058970
v -0.0040000 0.0045185 0.0064174
v -0.0040000 0.0026815 0.0064174
v -0.0040000 0.0019030 0.0058970
v -0.0040000 0.0013826 0.0051185
v -0.0040000 0.0013826 0.0032815
v -0.0040000 0.0019030 0.0025030
v -0.0040000 0.0026815 0.0019826
v -0.0019800 0.0016200 -0.0014000
v -0.0028000 0.0036000 -0.0014000
v -0.0019800 0.0055800 -0.0014000
v 0.0019800 0.0016200 -0.0014000
v 0.0028000 0.0036000 -0.0014000
v 0.0019800 0.0055800 -0.0014000
v 0.0036000 0.0036000 0.0006000
v -0.0036000 0.0036000 0.0006000
v -0.0028000 0.0044000 0.0004000
v -0.0028000 0.0044000 0.0007591
v 0.0028000 0.0044000 0.0007591
v 0.0028000 0.0044000 0.0004000
v -0.0024000 0.0044000 0.0015591
v 0.0024000 0.0044000 0.0015591
v 0.0028000 0.0028000 0.0004000
v 0.0028000 0.0028000 0.0007591
v -0.0028000 0.0028000 0.0007591
v -0.0028000 0.0028000 0.0004000
v 0.0024000 0.0028000 0.0015591
v -0.0024000 0.0028000 0.0015591
f 1 2 3
f 4 5 6
f 7 8 9
f 10 11 12
f 1 3 13
f 13 14 15
f 13 15 1
f 16 13 3
f 16 3 17
f 18 4 6
f 18 19 20
f 18 20 4
f 21 22 18
f 21 18 6
f 23 24 7
f 23 7 25
f 7 9 25
f 9 26 27
f 9 27 25
f 10 12 28
f 29 10 28
f 29 28 30
f 31 28 12
f 31 12 32
f 33 34 35
f 36 37 38
f 39 40 41
f 42 43 44
f 33 35 45
f 45 46 47
f 45 47 33
f 48 45 35
f 48 35 49
f 50 36 38
f 50 51 52
f 50 52 36
f 53 54 50
f 53 50 38
f 55 56 39
f 55 39 57
f 39 41 57
f 41 58 59
f 41 59 57
f 42 44 60
f 61 42 60
f 61 60 62
f 63 60 44
f 63 44 64
f 64 65 66
f 64 66 15
f 67 68 56
f 21 67 56
f 53 68 67
f 53 67 24
f 66 65 47
f 32 66 47
f 63 64 15
f 63 15 14
f 63 14 13
f 63 13 60
f 60 13 16
f 60 16 62
f 62 16 17
f 62 17 61
f 59 58 20
f 59 20 19
f 59 19 18
f 59 18 57
f 57 18 22
f 57 22 55
f 55 22 21
f 55 21 56
f 53 24 23
f 53 23 54
f 54 23 25
f 54 25 50
f 50 25 27
f 50 27 51
f 51 27 26
f 51 26 52
f 49 29 30
f 49 30 48
f 48 30 28
f 48 28 45
f 45 28 31
f 45 31 46
f 46 31 32
f 46 32 47
f 69 70 71
f 69 71 72
f 73 69 72
f 73 72 74
f 71 70 75
f 76 71 75
f 76 75 77
f 78 76 77
f 79 80 81
f 79 81 82
f 83 79 82
f 83 82 84
f 81 80 85
f 86 81 85
f 86 85 87
f 88 86 87
f 89 90 91
f 89 91 92
f 93 89 92
f 93 92 94
f 91 90 95
f 96 91 95
f 96 95 97
f 98 96 97
f 99 100 101
f 99 101 102
f 103 99 102
f 103 102 104
f 101 100 105
f 106 101 105
f 106 105 107
f 108 106 107
f 83 84 78
f 83 78 77
f 73 74 88
f 73 88 87
f 103 104 98
f 103 98 97
f 93 94 108
f 93 108 107
f 70 69 109
f 69 73 109
f 110 75 70
f 110 77 75
f 80 79 111
f 79 83 111
f 112 85 80
f 112 87 85
f 90 89 113
f 89 93 113
f 114 95 90
f 114 97 95
f 100 99 115
f 99 103 115
f 116 105 100
f 116 107 105
f 117 118 70
f 117 70 109
f 119 120 112
f 119 112 80
f 118 121 110
f 118 110 70
f 122 119 80
f 122 80 111
f 117 109 112
f 117 112 120
f 122 111 110
f 122 110 121
f 123 124 114
f 123 114 90
f 125 126 100
f 125 100 115
f 127 123 90
f 127 90 113
f 126 128 116
f 126 116 100
f 125 115 114
f 125 114 124
f 127 113 116
f 127 116 128
f 129 72 71
f 129 74 72
f 71 76 130
f 76 78 130
f 131 82 81
f 131 84 82
f 81 86 132
f 86 88 132
f 133 92 91
f 133 94 92
f 91 96 134
f 96 98 134
f 135 102 101
f 135 104 102
f 101 106 136
f 106 108 136
f 137 138 139
f 140 137 139
f 138 141 142
f 139 138 142
f 141 143 144
f 142 141 144
f 143 145 146
f 144 143 146
f 145 147 148
f 146 145 148
f 147 149 150
f 148 147 150
f 151 152 153
f 151 153 154
f 155 156 152
f 155 152 151
f 157 158 156
f 157 156 155
f 159 160 158
f 159 158 157
f 161 162 160
f 161 160 159
f 163 164 162
f 163 162 161
f 165 132 129
f 165 129 166
f 167 130 131
f 167 131 168
f 169 71 130
f 169 130 167
f 166 129 71
f 166 71 169
f 168 131 81
f 168 81 170
f 170 81 132
f 170 132 165
f 171 134 135
f 171 135 172
f 173 136 133
f 173 133 174
f 174 133 91
f 174 91 175
f 175 91 134
f 175 134 171
f 176 101 136
f 176 136 173
f 172 135 101
f 172 101 176
f 170 165 177
f 170 177 178
f 165 179 180
f 165 180 177
f 179 181 182
f 179 182 180
f 181 183 184
f 181 184 182
f 183 185 186
f 183 186 184
f 185 187 188
f 185 188 186
f 187 172 189
f 187 189 188
f 172 176 190
f 172 190 189
f 176 173 191
f 176 191 190
f 173 192 193
f 173 193 191
f 192 194 195
f 192 195 193
f 194 196 197
f 194 197 195
f 196 198 199
f 196 199 197
f 198 200 201
f 198 201 199
f 200 168 202
f 200 202 201
f 168 170 178
f 168 178 202
f 177 203 204
f 177 204 178
f 180 205 203
f 180 203 177
f 182 206 205
f 182 205 180
f 184 207 206
f 184 206 182
f 186 208 207
f 186 207 184
f 188 209 208
f 188 208 186
f 189 210 209
f 189 209 188
f 190 211 210
f 190 210 189
f 191 212 211
f 191 211 190
f 193 213 212
f 193 212 191
f 195 214 213
f 195 213 193
f 197 215 214
f 197 214 195
f 199 216 215
f 199 215 197
f 201 217 216
f 201 216 199
f 202 218 217
f 202 217 201
f 178 204 218
f 178 218 202
f 175 171 219
f 175 219 220
f 171 221 222
f 171 222 219
f 221 223 224
f 221 224 222
f 223 225 226
f 223 226 224
f 225 227 228
f 225 228 226
f 227 229 230
f 227 230 228
f 229 166 231
f 229 231 230
f 166 169 232
f 166 232 231
f 169 167 233
f 169 233 232
f 167 234 235
f 167 235 233
f 234 236 237
f 234 237 235
f 236 238 239
f 236 239 237
f 238 240 241
f 238 241 239
f 240 242 243
f 240 243 241
f 242 174 244
f 242 244 243
f 174 175 220
f 174 220 244
f 219 245 246
f 219 246 220
f 222 247 245
f 222 245 219
f 224 248 247
f 224 247 222
f 226 249 248
f 226 248 224
f 228 250 249
f 228 249 226
f 230 251 250
f 230 250 228
f 231 252 251
f 231 251 230
f 232 253 252
f 232 252 231
f 233 254 253
f 233 253 232
f 235 255 254
f 235 254 233
f 237 256 255
f 237 255 235
f 239 257 256
f 239 256 237
f 241 258 257
f 241 257 239
f 243 259 258
f 243 258 241
f 244 260 259
f 244 259 243
f 220 246 260
f 220 260 244
f 261 262 65
f 261 65 263
f 264 265 262
f 264 262 261
f 266 267 265
f 266 265 264
f 268 126 267
f 268 267 266
f 269 270 126
f 269 126 268
f 271 272 270
f 271 270 269
f 273 274 272
f 273 272 271
f 275 68 274
f 275 274 273
f 276 277 68
f 276 68 275
f 278 279 277
f 278 277 276
f 280 281 279
f 280 279 278
f 282 119 281
f 282 281 280
f 283 284 119
f 283 119 282
f 285 286 284
f 285 284 283
f 287 288 286
f 287 286 285
f 263 65 288
f 263 288 287
f 289 290 291
f 289 291 292
f 293 294 289
f 293 289 292
f 293 295 294
f 293 296 295
f 296 293 297
f 296 297 298
f 299 298 297
f 299 297 300
f 301 302 303
f 301 303 304
f 305 306 301
f 305 301 304
f 305 307 306
f 305 308 307
f 308 305 309
f 308 309 310
f 311 310 309
f 311 309 312
f 302 301 298
f 302 298 299
f 301 306 296
f 301 296 298
f 306 307 295
f 306 295 296
f 307 308 294
f 307 294 295
f 308 310 289
f 308 289 294
f 310 311 290
f 310 290 289
f 313 314 315
f 313 315 316
f 317 318 313
f 317 313 316
f 317 319 318
f 317 320 319
f 320 317 321
f 320 321 322
f 290 322 321
f 290 321 291
f 323 311 312
f 323 312 324
f 325 326 323
f 325 323 324
f 325 327 326
f 325 328 327
f 328 325 329
f 328 329 330
f 331 330 329
f 331 329 332
f 311 323 322
f 311 322 290
f 323 326 320
f 323 320 322
f 326 327 319
f 326 319 320
f 327 328 318
f 327 318 319
f 328 330 313
f 328 313 318
f 330 331 314
f 330 314 313
f 333 334 335
f 333 335 336
f 337 338 333
f 337 333 336
f 337 339 338
f 337 340 339
f 340 337 341
f 340 341 342
f 314 342 341
f 314 341 315
f 343 331 332
f 343 332 344
f 345 346 343
f 345 343 344
f 345 347 346
f 345 348 347
f 348 345 349
f 348 349 350
f 351 350 349
f 351 349 352
f 331 343 342
f 331 342 314
f 343 346 340
f 343 340 342
f 346 347 339
f 346 339 340
f 347 348 338
f 347 338 339
f 348 350 333
f 348 333 338
f 350 351 334
f 350 334 333
f 353 299 300
f 353 300 354
f 355 356 353
f 355 353 354
f 355 357 356
f 355 358 357
f 358 355 359
f 358 359 360
f 334 360 359
f 334 359 335
f 361 351 352
f 361 352 362
f 363 364 361
f 363 361 362
f 363 365 364
f 363 366 365
f 366 363 367
f 366 367 368
f 302 368 367
f 302 367 303
f 351 361 360
f 351 360 334
f 361 364 358
f 361 358 360
f 364 365 357
f 364 357 358
f 365 366 356
f 365 356 357
f 366 368 353
f 366 353 356
f 368 302 299
f 368 299 353
f 369 370 371
f 372 373 374
f 375 376 377
f 378 379 380
f 369 371 381
f 381 382 383
f 381 383 369
f 384 381 371
f 384 371 385
f 386 372 374
f 386 387 388
f 386 388 372
f 389 390 386
f 389 386 374
f 391 392 375
f 391 375 393
f 375 377 393
f 377 394 395
f 377 395 393
f 378 380 396
f 397 378 396
f 397 396 398
f 399 396 380
f 399 380 400
f 401 402 403
f 404 405 406
f 407 408 409
f 410 411 412
f 401 403 413
f 413 414 415
f 413 415 401
f 416 413 403
f 416 403 417
f 418 404 406
f 418 419 420
f 418 420 404
f 421 422 418
f 421 418 406
f 423 424 407
f 423 407 425
f 407 409 425
f 409 426 427
f 409 427 425
f 410 412 428
f 429 410 428
f 429 428 430
f 431 428 412
f 431 412 432
f 432 291 433
f 432 433 383
f 434 335 424
f 389 434 424
f 421 335 434
f 421 434 392
f 433 291 415
f 400 433 415
f 431 432 383
f 431 383 382
f 431 382 381
f 431 381 428
f 428 381 384
f 428 384 430
f 430 384 385
f 430 385 429
f 427 426 388
f 427 388 387
f 427 387 386
f 427 386 425
f 425 386 390
f 425 390 423
f 423 390 389
f 423 389 424
f 421 392 391
f 421 391 422
f 422 391 393
f 422 393 418
f 418 393 395
f 418 395 419
f 419 395 394
f 419 394 420
f 417 397 398
f 417 398 416
f 416 398 396
f 416 396 413
f 413 396 399
f 413 399 414
f 414 399 400
f 414 400 415
f 435 436 437
f 435 437 438
f 439 435 438
f 439 438 440
f 437 436 441
f 442 437 441
f 442 441 443
f 444 442 443
f 445 446 447
f 445 447 448
f 449 445 448
f 449 448 450
f 447 446 451
f 452 447 451
f 452 451 453
f 454 452 453
f 455 456 457
f 455 457 458
f 459 455 458
f 459 458 460
f 457 456 461
f 462 457 461
f 462 461 463
f 464 462 463
f 465 466 467
f 465 467 468
f 469 465 468
f 469 468 470
f 467 466 471
f 472 467 471
f 472 471 473
f 474 472 473
f 449 450 444
f 449 444 443
f 439 440 454
f 439 454 453
f 469 470 464
f 469 464 463
f 459 460 474
f 459 474 473
f 436 435 475
f 435 439 475
f 476 441 436
f 476 443 441
f 446 445 477
f 445 449 477
f 478 451 446
f 478 453 451
f 456 455 479
f 455 459 479
f 480 461 456
f 480 463 461
f 466 465 481
f 465 469 481
f 482 471 466
f 482 473 471
f 483 484 436
f 483 436 475
f 300 485 478
f 300 478 446
f 484 486 476
f 484 476 436
f 487 300 446
f 487 446 477
f 483 475 478
f 483 478 485
f 487 477 476
f 487 476 486
f 488 489 480
f 488 480 456
f 490 315 466
f 490 466 481
f 491 488 456
f 491 456 479
f 315 492 482
f 315 482 466
f 490 481 480
f 490 480 489
f 491 479 482
f 491 482 492
f 493 438 437
f 493 440 438
f 437 442 494
f 442 444 494
f 495 448 447
f 495 450 448
f 447 452 496
f 452 454 496
f 497 458 457
f 497 460 458
f 457 462 498
f 462 464 498
f 499 468 467
f 499 470 468
f 467 472 500
f 472 474 500
f 501 502 503
f 504 501 503
f 502 505 506
f 503 502 506
f 505 507 508
f 506 505 508
f 507 509 510
f 508 507 510
f 509 511 512
f 510 509 512
f 511 513 514
f 512 511 514
f 515 516 517
f 515 517 518
f 519 520 516
f 519 516 515
f 521 522 520
f 521 520 519
f 523 524 522
f 523 522 521
f 525 526 524
f 525 524 523
f 527 528 526
f 527 526 525
f 529 496 493
f 529 493 530
f 531 494 495
f 531 495 532
f 533 437 494
f 533 494 531
f 530 493 437
f 530 437 533
f 532 495 447
f 532 447 303
f 303 447 496
f 303 496 529
f 534 498 499
f 534 499 535
f 536 500 497
f 536 497 537
f 537 497 457
f 537 457 538
f 538 457 498
f 538 498 534
f 332 467 500
f 332 500 536
f 535 499 467
f 535 467 332
f 389 392 434
f 389 390 391
f 389 391 392
f 386 393 391
f 386 391 390
f 388 484 385
f 384 387 388
f 384 388 385
f 381 386 387
f 381 387 384
f 383 433 400
f 399 382 383
f 399 383 400
f 381 382 399
f 381 399 396
f 397 488 394
f 395 398 397
f 395 397 394
f 396 398 395
f 396 395 393
f 396 393 386
f 396 386 381
f 539 540 541
f 539 541 542
f 543 544 545
f 543 545 546
f 547 548 541
f 547 541 540
f 543 546 549
f 543 549 550
f 539 542 551
f 539 551 552
f 553 554 545
f 553 545 544
f 541 546 545
f 541 545 542
f 249 250 555
f 249 555 556
f 250 251 557
f 250 557 555
f 251 252 558
f 251 558 557
f 252 253 559
f 252 559 558
f 253 254 560
f 253 560 559
f 254 255 561
f 254 561 560
f 255 256 562
f 255 562 561
f 256 257 563
f 256 563 562
f 257 258 564
f 257 564 563
f 258 259 565
f 258 565 564
f 259 260 566
f 259 566 565
f 260 246 567
f 260 567 566
f 246 245 568
f 246 568 567
f 245 247 569
f 245 569 568
f 247 248 570
f 247 570 569
f 248 249 556
f 248 556 570
f 215 216 276
f 215 276 275
f 216 217 278
f 216 278 276
f 217 218 280
f 217 280 278
f 218 204 282
f 218 282 280
f 204 203 283
f 204 283 282
f 203 205 285
f 203 285 283
f 205 206 287
f 205 287 285
f 206 207 263
f 206 263 287
f 207 208 261
f 207 261 263
f 208 209 264
f 208 264 261
f 209 210 266
f 209 266 264
f 210 211 268
f 210 268 266
f 211 212 269
f 211 269 268
f 212 213 271
f 212 271 269
f 213 214 273
f 213 273 271
f 214 215 275
f 214 275 273
f 66 571 570
f 556 66 570
f 571 572 569
f 570 571 569
f 572 573 568
f 569 572 568
f 573 123 567
f 568 573 567
f 123 574 566
f 567 123 566
f 574 575 565
f 566 574 565
f 575 576 564
f 565 575 564
f 576 67 563
f 564 576 563
f 67 577 562
f 563 67 562
f 577 578 561
f 562 577 561
f 578 579 560
f 561 578 560
f 579 118 559
f 560 579 559
f 118 580 558
f 559 118 558
f 580 581 557
f 558 580 557
f 581 582 555
f 557 581 555
f 582 66 556
f 555 582 556
f 583 533 543
f 584 583 543
f 584 543 540
f 584 540 585
f 538 585 540
f 533 586 544
f 586 587 544
f 544 587 539
f 539 587 588
f 588 538 539
f 551 542 207
f 207 542 545
f 207 545 554
f 589 553 544
f 589 544 539
f 589 539 552
f 541 548 249
f 541 249 546
f 546 249 549
f 543 550 590
f 543 590 540
f 540 590 547
f 591 592 593
f 591 593 594
f 592 595 596
f 592 596 593
f 597 598 599
f 597 599 600
f 601 602 599
f 601 599 598
