# Botball Lab: metres, +Y up, centred XZ, base Y=0
s off
v 0.0032000 0.0125185 -0.0022174
v -0.0032000 0.0125185 -0.0022174
v -0.0032000 0.0116000 -0.0024000
v 0.0032000 0.0116000 -0.0024000
v 0.0032000 0.0132970 -0.0016970
v -0.0032000 0.0132970 -0.0016970
v 0.0032000 0.0138174 -0.0009185
v -0.0032000 0.0138174 -0.0009185
v 0.0032000 0.0140000 -0.0000000
v -0.0032000 0.0140000 -0.0000000
v 0.0032000 0.0138174 0.0009185
v -0.0032000 0.0138174 0.0009185
v 0.0032000 0.0132970 0.0016970
v -0.0032000 0.0132970 0.0016970
v 0.0032000 0.0125185 0.0022174
v -0.0032000 0.0125185 0.0022174
v 0.0032000 0.0116000 0.0024000
v -0.0032000 0.0116000 0.0024000
v 0.0032000 0.0106815 0.0022174
v -0.0032000 0.0106815 0.0022174
v 0.0032000 0.0099030 0.0016970
v -0.0032000 0.0099030 0.0016970
v 0.0032000 0.0093826 0.0009185
v -0.0032000 0.0093826 0.0009185
v 0.0032000 0.0092000 -0.0000000
v -0.0032000 0.0092000 -0.0000000
v 0.0032000 0.0093826 -0.0009185
v -0.0032000 0.0093826 -0.0009185
v 0.0032000 0.0099030 -0.0016970
v -0.0032000 0.0099030 -0.0016970
v 0.0032000 0.0106815 -0.0022174
v -0.0032000 0.0106815 -0.0022174
v 0.0032000 0.0186815 0.0022174
v -0.0032000 0.0186815 0.0022174
v -0.0032000 0.0196000 0.0024000
v 0.0032000 0.0196000 0.0024000
v 0.0032000 0.0179030 0.0016970
v -0.0032000 0.0179030 0.0016970
v 0.0032000 0.0173826 0.0009185
v -0.0032000 0.0173826 0.0009185
v 0.0032000 0.0172000 -0.0000000
v -0.0032000 0.0172000 -0.0000000
v 0.0032000 0.0173826 -0.0009185
v -0.0032000 0.0173826 -0.0009185
v 0.0032000 0.0179030 -0.0016970
v -0.0032000 0.0179030 -0.0016970
v 0.0032000 0.0186815 -0.0022174
v -0.0032000 0.0186815 -0.0022174
v 0.0032000 0.0196000 -0.0024000
v -0.0032000 0.0196000 -0.0024000
v 0.0032000 0.0205185 -0.0022174
v -0.0032000 0.0205185 -0.0022174
v 0.0032000 0.0212970 -0.0016970
v -0.0032000 0.0212970 -0.0016970
v 0.0032000 0.0218174 -0.0009185
v -0.0032000 0.0218174 -0.0009185
v 0.0032000 0.0220000 -0.0000000
v -0.0032000 0.0220000 -0.0000000
v 0.0032000 0.0218174 0.0009185
v -0.0032000 0.0218174 0.0009185
v 0.0032000 0.0212970 0.0016970
v -0.0032000 0.0212970 0.0016970
v 0.0032000 0.0205185 0.0022174
v -0.0032000 0.0205185 0.0022174
v -0.0062174 0.0026815 0.0032000
v -0.0062174 0.0026815 -0.0032000
v -0.0064000 0.0036000 -0.0032000
v -0.0064000 0.0036000 0.0032000
v -0.0056970 0.0019030 0.0032000
v -0.0056970 0.0019030 -0.0032000
v -0.0049185 0.0013826 0.0032000
v -0.0049185 0.0013826 -0.0032000
v -0.0040000 0.0012000 0.0032000
v -0.0040000 0.0012000 -0.0032000
v -0.0030815 0.0013826 0.0032000
v -0.0030815 0.0013826 -0.0032000
v -0.0023030 0.0019030 0.0032000
v -0.0023030 0.0019030 -0.0032000
v -0.0017826 0.0026815 0.0032000
v -0.0017826 0.0026815 -0.0032000
v -0.0016000 0.0036000 0.0032000
v -0.0016000 0.0036000 -0.0032000
v -0.0017826 0.0045185 0.0032000
v -0.0017826 0.0045185 -0.0032000
v -0.0023030 0.0052970 0.0032000
v -0.0023030 0.0052970 -0.0032000
v -0.0030815 0.0058174 0.0032000
v -0.0030815 0.0058174 -0.0032000
v -0.0040000 0.0060000 0.0032000
v -0.0040000 0.0060000 -0.0032000
v -0.0049185 0.0058174 0.0032000
v -0.0049185 0.0058174 -0.0032000
v -0.0056970 0.0052970 0.0032000
v -0.0056970 0.0052970 -0.0032000
v -0.0062174 0.0045185 0.0032000
v -0.0062174 0.0045185 -0.0032000
v 0.0017826 0.0026815 0.0032000
v 0.0017826 0.0026815 -0.0032000
v 0.0016000 0.0036000 -0.0032000
v 0.0016000 0.0036000 0.0032000
v 0.0023030 0.0019030 0.0032000
v 0.0023030 0.0019030 -0.0032000
v 0.0030815 0.0013826 0.0032000
v 0.0030815 0.0013826 -0.0032000
v 0.0040000 0.0012000 0.0032000
v 0.0040000 0.0012000 -0.0032000
v 0.0049185 0.0013826 0.0032000
v 0.0049185 0.0013826 -0.0032000
v 0.0056970 0.0019030 0.0032000
v 0.0056970 0.0019030 -0.0032000
v 0.0062174 0.0026815 0.0032000
v 0.0062174 0.0026815 -0.0032000
v 0.0064000 0.0036000 0.0032000
v 0.0064000 0.0036000 -0.0032000
v 0.0062174 0.0045185 0.0032000
v 0.0062174 0.0045185 -0.0032000
v 0.0056970 0.0052970 0.0032000
v 0.0056970 0.0052970 -0.0032000
v 0.0049185 0.0058174 0.0032000
v 0.0049185 0.0058174 -0.0032000
v 0.0040000 0.0060000 0.0032000
v 0.0040000 0.0060000 -0.0032000
v 0.0030815 0.0058174 0.0032000
v 0.0030815 0.0058174 -0.0032000
v 0.0023030 0.0052970 0.0032000
v 0.0023030 0.0052970 -0.0032000
v 0.0017826 0.0045185 0.0032000
v 0.0017826 0.0045185 -0.0032000
v 0.0032000 0.0086435 -0.0012246
v 0.0032000 0.0084000 -0.0000000
v 0.0032000 0.0093373 -0.0022627
v 0.0032000 0.0103754 -0.0029565
v 0.0032000 0.0116000 -0.0032000
v 0.0032000 0.0128246 -0.0029565
v 0.0032000 0.0138627 -0.0022627
v 0.0032000 0.0145565 -0.0012246
v 0.0032000 0.0148000 -0.0000000
v 0.0032000 0.0145565 0.0012246
v 0.0032000 0.0138627 0.0022627
v 0.0032000 0.0128246 0.0029565
v 0.0032000 0.0116000 0.0032000
v 0.0032000 0.0103754 0.0029565
v 0.0032000 0.0093373 0.0022627
v 0.0032000 0.0086435 0.0012246
v 0.0040000 0.0103754 0.0029565
v 0.0040000 0.0116000 0.0032000
v 0.0040000 0.0093373 0.0022627
v 0.0040000 0.0086435 0.0012246
v 0.0040000 0.0084000 -0.0000000
v 0.0040000 0.0086435 -0.0012246
v 0.0040000 0.0093373 -0.0022627
v 0.0040000 0.0103754 -0.0029565
v 0.0040000 0.0116000 -0.0032000
v 0.0040000 0.0128246 -0.0029565
v 0.0040000 0.0138627 -0.0022627
v 0.0040000 0.0145565 -0.0012246
v 0.0040000 0.0148000 -0.0000000
v 0.0040000 0.0145565 0.0012246
v 0.0040000 0.0138627 0.0022627
v 0.0040000 0.0128246 0.0029565
v 0.0008000 0.0149260 0.0013777
v 0.0040000 0.0149260 0.0013777
v 0.0040000 0.0152000 -0.0000000
v 0.0008000 0.0152000 -0.0000000
v 0.0008000 0.0156000 0.0025456
v 0.0040000 0.0156000 0.0025456
v 0.0040000 0.0149872 0.0025456
v 0.0008000 0.0149872 0.0025456
v 0.0040000 0.0147469 0.0024818
v 0.0008000 0.0147469 0.0024818
v 0.0040000 0.0146080 0.0022721
v 0.0008000 0.0146080 0.0022721
v 0.0040000 0.0146519 0.0020393
v 0.0008000 0.0146519 0.0020393
v 0.0040000 0.0149261 0.0013777
v 0.0040000 0.0141456 0.0025456
v 0.0040000 0.0149260 -0.0013777
v 0.0008000 0.0149260 -0.0013777
v 0.0040000 0.0149872 -0.0025456
v 0.0040000 0.0156000 -0.0025456
v 0.0008000 0.0156000 -0.0025456
v 0.0008000 0.0149872 -0.0025456
v 0.0008000 0.0146519 -0.0020393
v 0.0040000 0.0147469 -0.0024818
v 0.0008000 0.0147469 -0.0024818
v 0.0040000 0.0146080 -0.0022721
v 0.0008000 0.0146080 -0.0022721
v 0.0040000 0.0146519 -0.0020393
v 0.0040000 0.0141456 -0.0025456
v 0.0040000 0.0149261 -0.0013777
v 0.0040000 0.0152000 0.0036000
v 0.0040000 0.0116000 0.0036000
v 0.0040000 0.0129777 0.0033260
v 0.0040000 0.0129777 -0.0033260
v 0.0040000 0.0116000 -0.0036000
v 0.0040000 0.0152000 -0.0036000
v 0.0040000 0.0156000 0.0036000
v 0.0040000 0.0156000 -0.0036000
v 0.0040000 0.0160000 -0.0000000
v 0.0040000 0.0162740 0.0013777
v 0.0008000 0.0162740 0.0013777
v 0.0008000 0.0160000 -0.0000000
v 0.0040000 0.0162128 0.0025456
v 0.0008000 0.0162128 0.0025456
v 0.0040000 0.0164531 0.0024818
v 0.0008000 0.0164531 0.0024818
v 0.0040000 0.0165920 0.0022721
v 0.0008000 0.0165920 0.0022721
v 0.0040000 0.0165481 0.0020393
v 0.0008000 0.0165481 0.0020393
v 0.0040000 0.0170544 0.0025456
v 0.0040000 0.0162739 0.0013777
v 0.0008000 0.0162740 -0.0013777
v 0.0040000 0.0162740 -0.0013777
v 0.0040000 0.0162128 -0.0025456
v 0.0008000 0.0162128 -0.0025456
v 0.0008000 0.0165481 -0.0020393
v 0.0040000 0.0164531 -0.0024818
v 0.0008000 0.0164531 -0.0024818
v 0.0040000 0.0165920 -0.0022721
v 0.0008000 0.0165920 -0.0022721
v 0.0040000 0.0165481 -0.0020393
v 0.0040000 0.0162739 -0.0013777
v 0.0040000 0.0170544 -0.0025456
v 0.0040000 0.0182223 0.0033260
v 0.0040000 0.0196000 0.0036000
v 0.0040000 0.0160000 0.0036000
v 0.0040000 0.0160000 -0.0036000
v 0.0040000 0.0196000 -0.0036000
v 0.0040000 0.0182223 -0.0033260
v -0.0040000 0.0152000 -0.0000000
v -0.0040000 0.0149260 0.0013777
v -0.0008000 0.0149260 0.0013777
v -0.0008000 0.0152000 -0.0000000
v -0.0040000 0.0149872 0.0025456
v -0.0040000 0.0156000 0.0025456
v -0.0008000 0.0156000 0.0025456
v -0.0008000 0.0149872 0.0025456
v -0.0040000 0.0147469 0.0024818
v -0.0008000 0.0147469 0.0024818
v -0.0040000 0.0146080 0.0022721
v -0.0008000 0.0146080 0.0022721
v -0.0040000 0.0146519 0.0020393
v -0.0008000 0.0146519 0.0020393
v -0.0040000 0.0141456 0.0025456
v -0.0040000 0.0149261 0.0013777
v -0.0008000 0.0149260 -0.0013777
v -0.0040000 0.0149260 -0.0013777
v -0.0008000 0.0156000 -0.0025456
v -0.0040000 0.0156000 -0.0025456
v -0.0040000 0.0149872 -0.0025456
v -0.0008000 0.0149872 -0.0025456
v -0.0008000 0.0146519 -0.0020393
v -0.0040000 0.0147469 -0.0024818
v -0.0008000 0.0147469 -0.0024818
v -0.0040000 0.0146080 -0.0022721
v -0.0008000 0.0146080 -0.0022721
v -0.0040000 0.0146519 -0.0020393
v -0.0040000 0.0149261 -0.0013777
v -0.0040000 0.0141456 -0.0025456
v -0.0040000 0.0129777 0.0033260
v -0.0040000 0.0116000 0.0036000
v -0.0040000 0.0152000 0.0036000
v -0.0040000 0.0152000 -0.0036000
v -0.0040000 0.0116000 -0.0036000
v -0.0040000 0.0129777 -0.0033260
v -0.0040000 0.0156000 0.0036000
v -0.0040000 0.0156000 -0.0036000
v -0.0008000 0.0162740 0.0013777
v -0.0040000 0.0162740 0.0013777
v -0.0040000 0.0160000 -0.0000000
v -0.0008000 0.0160000 -0.0000000
v -0.0040000 0.0162128 0.0025456
v -0.0008000 0.0162128 0.0025456
v -0.0040000 0.0164531 0.0024818
v -0.0008000 0.0164531 0.0024818
v -0.0040000 0.0165920 0.0022721
v -0.0008000 0.0165920 0.0022721
v -0.0040000 0.0165481 0.0020393
v -0.0008000 0.0165481 0.0020393
v -0.0040000 0.0162739 0.0013777
v -0.0040000 0.0170544 0.0025456
v -0.0040000 0.0162740 -0.0013777
v -0.0008000 0.0162740 -0.0013777
v -0.0040000 0.0162128 -0.0025456
v -0.0008000 0.0162128 -0.0025456
v -0.0008000 0.0165481 -0.0020393
v -0.0040000 0.0164531 -0.0024818
v -0.0008000 0.0164531 -0.0024818
v -0.0040000 0.0165920 -0.0022721
v -0.0008000 0.0165920 -0.0022721
v -0.0040000 0.0165481 -0.0020393
v -0.0040000 0.0170544 -0.0025456
v -0.0040000 0.0162739 -0.0013777
v -0.0040000 0.0160000 0.0036000
v -0.0040000 0.0196000 0.0036000
v -0.0040000 0.0182223 0.0033260
v -0.0040000 0.0182223 -0.0033260
v -0.0040000 0.0196000 -0.0036000
v -0.0040000 0.0160000 -0.0036000
v -0.0032000 0.0086435 0.0012246
v -0.0032000 0.0084000 -0.0000000
v -0.0032000 0.0093373 0.0022627
v -0.0032000 0.0103754 0.0029565
v -0.0032000 0.0116000 0.0032000
v -0.0032000 0.0128246 0.0029565
v -0.0032000 0.0138627 0.0022627
v -0.0032000 0.0145565 0.0012246
v -0.0032000 0.0148000 -0.0000000
v -0.0032000 0.0145565 -0.0012246
v -0.0032000 0.0138627 -0.0022627
v -0.0032000 0.0128246 -0.0029565
v -0.0032000 0.0116000 -0.0032000
v -0.0032000 0.0103754 -0.0029565
v -0.0032000 0.0093373 -0.0022627
v -0.0032000 0.0086435 -0.0012246
v -0.0040000 0.0103754 -0.0029565
v -0.0040000 0.0116000 -0.0032000
v -0.0040000 0.0093373 -0.0022627
v -0.0040000 0.0086435 -0.0012246
v -0.0040000 0.0084000 -0.0000000
v -0.0040000 0.0086435 0.0012246
v -0.0040000 0.0093373 0.0022627
v -0.0040000 0.0103754 0.0029565
v -0.0040000 0.0116000 0.0032000
v -0.0040000 0.0128246 0.0029565
v -0.0040000 0.0138627 0.0022627
v -0.0040000 0.0145565 0.0012246
v -0.0040000 0.0148000 -0.0000000
v -0.0040000 0.0145565 -0.0012246
v -0.0040000 0.0138627 -0.0022627
v -0.0040000 0.0128246 -0.0029565
v 0.0032000 0.0166435 -0.0012246
v 0.0032000 0.0164000 -0.0000000
v 0.0032000 0.0173373 -0.0022627
v 0.0032000 0.0183754 -0.0029565
v 0.0032000 0.0196000 -0.0032000
v 0.0032000 0.0208246 -0.0029565
v 0.0032000 0.0218627 -0.0022627
v 0.0032000 0.0225565 -0.0012246
v 0.0032000 0.0228000 -0.0000000
v 0.0032000 0.0225565 0.0012246
v 0.0032000 0.0218627 0.0022627
v 0.0032000 0.0208246 0.0029565
v 0.0032000 0.0196000 0.0032000
v 0.0032000 0.0183754 0.0029565
v 0.0032000 0.0173373 0.0022627
v 0.0032000 0.0166435 0.0012246
v 0.0040000 0.0183754 0.0029565
v 0.0040000 0.0196000 0.0032000
v 0.0040000 0.0173373 0.0022627
v 0.0040000 0.0166435 0.0012246
v 0.0040000 0.0164000 -0.0000000
v 0.0040000 0.0166435 -0.0012246
v 0.0040000 0.0173373 -0.0022627
v 0.0040000 0.0183754 -0.0029565
v 0.0040000 0.0196000 -0.0032000
v 0.0040000 0.0208246 -0.0029565
v 0.0040000 0.0218627 -0.0022627
v 0.0040000 0.0225565 -0.0012246
v 0.0040000 0.0228000 -0.0000000
v 0.0040000 0.0225565 0.0012246
v 0.0040000 0.0218627 0.0022627
v 0.0040000 0.0208246 0.0029565
v -0.0032000 0.0166435 0.0012246
v -0.0032000 0.0164000 -0.0000000
v -0.0032000 0.0173373 0.0022627
v -0.0032000 0.0183754 0.0029565
v -0.0032000 0.0196000 0.0032000
v -0.0032000 0.0208246 0.0029565
v -0.0032000 0.0218627 0.0022627
v -0.0032000 0.0225565 0.0012246
v -0.0032000 0.0228000 -0.0000000
v -0.0032000 0.0225565 -0.0012246
v -0.0032000 0.0218627 -0.0022627
v -0.0032000 0.0208246 -0.0029565
v -0.0032000 0.0196000 -0.0032000
v -0.0032000 0.0183754 -0.0029565
v -0.0032000 0.0173373 -0.0022627
v -0.0032000 0.0166435 -0.0012246
v -0.0040000 0.0183754 -0.0029565
v -0.0040000 0.0196000 -0.0032000
v -0.0040000 0.0173373 -0.0022627
v -0.0040000 0.0166435 -0.0012246
v -0.0040000 0.0164000 -0.0000000
v -0.0040000 0.0166435 0.0012246
v -0.0040000 0.0173373 0.0022627
v -0.0040000 0.0183754 0.0029565
v -0.0040000 0.0196000 0.0032000
v -0.0040000 0.0208246 0.0029565
v -0.0040000 0.0218627 0.0022627
v -0.0040000 0.0225565 0.0012246
v -0.0040000 0.0228000 -0.0000000
v -0.0040000 0.0225565 -0.0012246
v -0.0040000 0.0218627 -0.0022627
v -0.0040000 0.0208246 -0.0029565
v 0.0027754 0.0006435 -0.0032000
v 0.0040000 0.0004000 -0.0032000
v 0.0017373 0.0013373 -0.0032000
v 0.0010435 0.0023754 -0.0032000
v 0.0008000 0.0036000 -0.0032000
v 0.0010435 0.0048246 -0.0032000
v 0.0017373 0.0058627 -0.0032000
v 0.0027754 0.0065565 -0.0032000
v 0.0040000 0.0068000 -0.0032000
v 0.0052246 0.0065565 -0.0032000
v 0.0062627 0.0058627 -0.0032000
v 0.0069565 0.0048246 -0.0032000
v 0.0072000 0.0036000 -0.0032000
v 0.0069565 0.0023754 -0.0032000
v 0.0062627 0.0013373 -0.0032000
v 0.0052246 0.0006435 -0.0032000
v 0.0069565 0.0023754 -0.0040000
v 0.0072000 0.0036000 -0.0040000
v 0.0062627 0.0013373 -0.0040000
v 0.0052246 0.0006435 -0.0040000
v 0.0040000 0.0004000 -0.0040000
v 0.0027754 0.0006435 -0.0040000
v 0.0017373 0.0013373 -0.0040000
v 0.0010435 0.0023754 -0.0040000
v 0.0008000 0.0036000 -0.0040000
v 0.0010435 0.0048246 -0.0040000
v 0.0017373 0.0058627 -0.0040000
v 0.0027754 0.0065565 -0.0040000
v 0.0040000 0.0068000 -0.0040000
v 0.0052246 0.0065565 -0.0040000
v 0.0062627 0.0058627 -0.0040000
v 0.0069565 0.0048246 -0.0040000
v 0.0052246 0.0006435 0.0032000
v 0.0040000 0.0004000 0.0032000
v 0.0062627 0.0013373 0.0032000
v 0.0069565 0.0023754 0.0032000
v 0.0072000 0.0036000 0.0032000
v 0.0069565 0.0048246 0.0032000
v 0.0062627 0.0058627 0.0032000
v 0.0052246 0.0065565 0.0032000
v 0.0040000 0.0068000 0.0032000
v 0.0027754 0.0065565 0.0032000
v 0.0017373 0.0058627 0.0032000
v 0.0010435 0.0048246 0.0032000
v 0.0008000 0.0036000 0.0032000
v 0.0010435 0.0023754 0.0032000
v 0.0017373 0.0013373 0.0032000
v 0.0027754 0.0006435 0.0032000
v 0.0010435 0.0023754 0.0040000
v 0.0008000 0.0036000 0.0040000
v 0.0017373 0.0013373 0.0040000
v 0.0027754 0.0006435 0.0040000
v 0.0040000 0.0004000 0.0040000
v 0.0052246 0.0006435 0.0040000
v 0.0062627 0.0013373 0.0040000
v 0.0069565 0.0023754 0.0040000
v 0.0072000 0.0036000 0.0040000
v 0.0069565 0.0048246 0.0040000
v 0.0062627 0.0058627 0.0040000
v 0.0052246 0.0065565 0.0040000
v 0.0040000 0.0068000 0.0040000
v 0.0027754 0.0065565 0.0040000
v 0.0017373 0.0058627 0.0040000
v 0.0010435 0.0048246 0.0040000
v -0.0052246 0.0006435 -0.0032000
v -0.0040000 0.0004000 -0.0032000
v -0.0062627 0.0013373 -0.0032000
v -0.0069565 0.0023754 -0.0032000
v -0.0072000 0.0036000 -0.0032000
v -0.0069565 0.0048246 -0.0032000
v -0.0062627 0.0058627 -0.0032000
v -0.0052246 0.0065565 -0.0032000
v -0.0040000 0.0068000 -0.0032000
v -0.0027754 0.0065565 -0.0032000
v -0.0017373 0.0058627 -0.0032000
v -0.0010435 0.0048246 -0.0032000
v -0.0008000 0.0036000 -0.0032000
v -0.0010435 0.0023754 -0.0032000
v -0.0017373 0.0013373 -0.0032000
v -0.0027754 0.0006435 -0.0032000
v -0.0010435 0.0023754 -0.0040000
v -0.0008000 0.0036000 -0.0040000
v -0.0017373 0.0013373 -0.0040000
v -0.0027754 0.0006435 -0.0040000
v -0.0040000 0.0004000 -0.0040000
v -0.0052246 0.0006435 -0.0040000
v -0.0062627 0.0013373 -0.0040000
v -0.0069565 0.0023754 -0.0040000
v -0.0072000 0.0036000 -0.0040000
v -0.0069565 0.0048246 -0.0040000
v -0.0062627 0.0058627 -0.0040000
v -0.0052246 0.0065565 -0.0040000
v -0.0040000 0.0068000 -0.0040000
v -0.0027754 0.0065565 -0.0040000
v -0.0017373 0.0058627 -0.0040000
v -0.0010435 0.0048246 -0.0040000
v -0.0027754 0.0006435 0.0032000
v -0.0040000 0.0004000 0.0032000
v -0.0017373 0.0013373 0.0032000
v -0.0010435 0.0023754 0.0032000
v -0.0008000 0.0036000 0.0032000
v -0.0010435 0.0048246 0.0032000
v -0.0017373 0.0058627 0.0032000
v -0.0027754 0.0065565 0.0032000
v -0.0040000 0.0068000 0.0032000
v -0.0052246 0.0065565 0.0032000
v -0.0062627 0.0058627 0.0032000
v -0.0069565 0.0048246 0.0032000
v -0.0072000 0.0036000 0.0032000
v -0.0069565 0.0023754 0.0032000
v -0.0062627 0.0013373 0.0032000
v -0.0052246 0.0006435 0.0032000
v -0.0069565 0.0023754 0.0040000
v -0.0072000 0.0036000 0.0040000
v -0.0062627 0.0013373 0.0040000
v -0.0052246 0.0006435 0.0040000
v -0.0040000 0.0004000 0.0040000
v -0.0027754 0.0006435 0.0040000
v -0.0017373 0.0013373 0.0040000
v -0.0010435 0.0023754 0.0040000
v -0.0008000 0.0036000 0.0040000
v -0.0010435 0.0048246 0.0040000
v -0.0017373 0.0058627 0.0040000
v -0.0027754 0.0065565 0.0040000
v -0.0040000 0.0068000 0.0040000
v -0.0052246 0.0065565 0.0040000
v -0.0062627 0.0058627 0.0040000
v -0.0069565 0.0048246 0.0040000
v -0.0076000 0.0036000 -0.0040000
v -0.0073260 0.0022223 -0.0040000
v -0.0073260 0.0022223 0.0040000
v -0.0076000 0.0036000 0.0040000
v -0.0065456 0.0010544 -0.0040000
v -0.0065456 0.0010544 0.0040000
v -0.0053777 0.0002740 -0.0040000
v -0.0053777 0.0002740 0.0040000
v -0.0040000 0.0000000 -0.0040000
v -0.0040000 0.0000000 0.0040000
v -0.0026223 0.0002740 -0.0040000
v -0.0026223 0.0002740 0.0040000
v -0.0014544 0.0010544 -0.0040000
v -0.0014544 0.0010544 0.0040000
v -0.0006740 0.0022223 -0.0040000
v -0.0006740 0.0022223 0.0040000
v -0.0004000 0.0036000 -0.0040000
v -0.0004000 0.0036000 0.0040000
v -0.0006740 0.0049777 -0.0040000
v -0.0006740 0.0049777 0.0040000
v -0.0014544 0.0061456 -0.0040000
v -0.0014544 0.0061456 0.0040000
v -0.0026223 0.0069260 -0.0040000
v -0.0026223 0.0069260 0.0040000
v -0.0040000 0.0072000 -0.0040000
v -0.0040000 0.0072000 0.0040000
v -0.0053777 0.0069260 -0.0040000
v -0.0053777 0.0069260 0.0040000
v -0.0065456 0.0061456 -0.0040000
v -0.0065456 0.0061456 0.0040000
v -0.0073260 0.0049777 -0.0040000
v -0.0073260 0.0049777 0.0040000
v 0.0004000 0.0036000 -0.0040000
v 0.0006740 0.0022223 -0.0040000
v 0.0006740 0.0022223 0.0040000
v 0.0004000 0.0036000 0.0040000
v 0.0014544 0.0010544 -0.0040000
v 0.0014544 0.0010544 0.0040000
v 0.0026223 0.0002740 -0.0040000
v 0.0026223 0.0002740 0.0040000
v 0.0040000 0.0000000 -0.0040000
v 0.0040000 0.0000000 0.0040000
v 0.0053777 0.0002740 -0.0040000
v 0.0053777 0.0002740 0.0040000
v 0.0065456 0.0010544 -0.0040000
v 0.0065456 0.0010544 0.0040000
v 0.0073260 0.0022223 -0.0040000
v 0.0073260 0.0022223 0.0040000
v 0.0076000 0.0036000 -0.0040000
v 0.0076000 0.0036000 0.0040000
v 0.0073260 0.0049777 -0.0040000
v 0.0073260 0.0049777 0.0040000
v 0.0065456 0.0061456 -0.0040000
v 0.0065456 0.0061456 0.0040000
v 0.0053777 0.0069260 -0.0040000
v 0.0053777 0.0069260 0.0040000
v 0.0040000 0.0072000 -0.0040000
v 0.0040000 0.0072000 0.0040000
v 0.0026223 0.0069260 -0.0040000
v 0.0026223 0.0069260 0.0040000
v 0.0014544 0.0061456 -0.0040000
v 0.0014544 0.0061456 0.0040000
v 0.0006740 0.0049777 -0.0040000
v 0.0006740 0.0049777 0.0040000
v -0.0032000 0.0102223 0.0033260
v 0.0032000 0.0102223 0.0033260
v 0.0032000 0.0116000 0.0036000
v -0.0032000 0.0116000 0.0036000
v -0.0032000 0.0090544 0.0025456
v 0.0032000 0.0090544 0.0025456
v -0.0032000 0.0082740 0.0013777
v 0.0032000 0.0082740 0.0013777
v -0.0032000 0.0080000 -0.0000000
v 0.0032000 0.0080000 -0.0000000
v -0.0032000 0.0082740 -0.0013777
v 0.0032000 0.0082740 -0.0013777
v -0.0032000 0.0090544 -0.0025456
v 0.0032000 0.0090544 -0.0025456
v -0.0032000 0.0102223 -0.0033260
v 0.0032000 0.0102223 -0.0033260
v -0.0032000 0.0116000 -0.0036000
v 0.0032000 0.0116000 -0.0036000
v 0.0040000 0.0102223 0.0033260
v 0.0040000 0.0080000 0.0036000
v 0.0040000 0.0090544 0.0025456
v 0.0040000 0.0082740 0.0013777
v 0.0040000 0.0080000 -0.0000000
v 0.0040000 0.0082740 -0.0013777
v 0.0040000 0.0080000 -0.0036000
v 0.0040000 0.0090544 -0.0025456
v 0.0040000 0.0102223 -0.0033260
v 0.0032000 0.0080000 0.0036000
v 0.0032000 0.0080000 -0.0036000
v -0.0032000 0.0080000 0.0036000
v -0.0032000 0.0080000 -0.0036000
v -0.0040000 0.0080000 0.0036000
v -0.0040000 0.0102223 0.0033260
v -0.0040000 0.0090544 0.0025456
v -0.0040000 0.0082740 0.0013777
v -0.0040000 0.0080000 -0.0000000
v -0.0040000 0.0080000 -0.0036000
v -0.0040000 0.0082740 -0.0013777
v -0.0040000 0.0090544 -0.0025456
v -0.0040000 0.0102223 -0.0033260
v -0.0040000 0.0209777 -0.0033260
v 0.0040000 0.0209777 -0.0033260
v -0.0040000 0.0221456 -0.0025456
v 0.0040000 0.0221456 -0.0025456
v -0.0040000 0.0229260 -0.0013777
v 0.0040000 0.0229260 -0.0013777
v -0.0040000 0.0232000 -0.0000000
v 0.0040000 0.0232000 -0.0000000
v -0.0040000 0.0229260 0.0013777
v 0.0040000 0.0229260 0.0013777
v -0.0040000 0.0221456 0.0025456
v 0.0040000 0.0221456 0.0025456
v -0.0040000 0.0209777 0.0033260
v 0.0040000 0.0209777 0.0033260
v 0.0040000 0.0072000 -0.0036000
v 0.0032000 0.0070448 -0.0036000
v 0.0032000 0.0084000 -0.0008000
v 0.0032000 0.0084000 -0.0036000
v 0.0032000 0.0070448 -0.0008000
v -0.0032000 0.0081480 -0.0008000
v 0.0032000 0.0081480 -0.0008000
v -0.0032000 0.0070448 -0.0008000
v -0.0032000 0.0084000 -0.0036000
v -0.0032000 0.0084000 -0.0008000
v -0.0032000 0.0070448 -0.0036000
v -0.0040000 0.0072000 -0.0036000
v 0.0005520 0.0044000 -0.0008000
v -0.0005520 0.0044000 -0.0008000
v -0.0005520 0.0044000 -0.0040000
v 0.0005520 0.0044000 -0.0040000
v 0.0005520 0.0028000 -0.0040000
v -0.0005520 0.0028000 -0.0040000
v 0.0032000 0.0070448 0.0036000
v 0.0040000 0.0072000 0.0036000
v 0.0032000 0.0084000 0.0036000
v 0.0032000 0.0084000 0.0008000
v 0.0032000 0.0070448 0.0008000
v 0.0032000 0.0081480 0.0008000
v -0.0032000 0.0081480 0.0008000
v -0.0032000 0.0070448 0.0008000
v -0.0032000 0.0084000 0.0008000
v -0.0032000 0.0084000 0.0036000
v -0.0032000 0.0070448 0.0036000
v -0.0040000 0.0072000 0.0036000
v -0.0005520 0.0044000 0.0008000
v 0.0005520 0.0044000 0.0008000
v 0.0005520 0.0044000 0.0040000
v -0.0005520 0.0044000 0.0040000
v -0.0005520 0.0028000 0.0040000
v 0.0005520 0.0028000 0.0040000
vn 0.0 -0.3207111 0.947177
vn 0.0 -0.4430513 0.8964963
vn 0.0 -0.0661224 0.9978115
vn 0.0 0.0661224 0.9978115
vn 0.0 -0.6588276 0.752294
vn 0.0 -0.752294 0.6588276
vn 0.0 -0.8964963 0.4430513
vn 0.0 -0.947177 0.3207111
vn 0.0 -0.9978115 0.0661224
vn 0.0 -0.9978115 -0.0661224
vn 0.0 -0.947177 -0.3207111
vn 0.0 -0.8964963 -0.4430513
vn 0.0 -0.752294 -0.6588276
vn 0.0 -0.6588276 -0.752294
vn 0.0 -0.4430513 -0.8964963
vn 0.0 -0.3207111 -0.947177
vn 0.0 -0.0661224 -0.9978115
vn 0.0 0.0661224 -0.9978115
vn 0.0 0.3207111 -0.947177
vn 0.0 0.4430513 -0.8964963
vn 0.0 0.6588276 -0.752294
vn 0.0 0.752294 -0.6588276
vn 0.0 0.8964963 -0.4430513
vn 0.0 0.947177 -0.3207111
vn 0.0 0.9978115 -0.0661224
vn 0.0 0.9978115 0.0661224
vn 0.0 0.947177 0.3207111
vn 0.0 0.8964963 0.4430513
vn 0.0 0.752294 0.6588276
vn 0.0 0.6588276 0.752294
vn 0.0 0.4430513 0.8964963
vn 0.0 0.3207111 0.947177
vn 0.947177 0.3207111 0.0
vn 0.8964963 0.4430513 0.0
vn 0.9978115 0.0661224 0.0
vn 0.9978115 -0.0661224 0.0
vn 0.752294 0.6588276 0.0
vn 0.6588276 0.752294 0.0
vn 0.4430513 0.8964963 0.0
vn 0.3207111 0.947177 0.0
vn 0.0661224 0.9978115 0.0
vn -0.0661224 0.9978115 0.0
vn -0.3207111 0.947177 0.0
vn -0.4430513 0.8964963 0.0
vn -0.6588276 0.752294 0.0
vn -0.752294 0.6588276 0.0
vn -0.8964963 0.4430513 0.0
vn -0.947177 0.3207111 0.0
vn -0.9978115 0.0661224 0.0
vn -0.9978115 -0.0661224 0.0
vn -0.947177 -0.3207111 0.0
vn -0.8964963 -0.4430513 0.0
vn -0.752294 -0.6588276 0.0
vn -0.6588276 -0.752294 0.0
vn -0.4430513 -0.8964963 0.0
vn -0.3207111 -0.947177 0.0
vn -0.0661224 -0.9978115 0.0
vn 0.0661224 -0.9978115 0.0
vn 0.3207111 -0.947177 0.0
vn 0.4430513 -0.8964963 0.0
vn 0.6588276 -0.752294 0.0
vn 0.752294 -0.6588276 0.0
vn 0.8964963 -0.4430513 0.0
vn 0.947177 -0.3207111 0.0
vn 1.0 0.0 0.0
vn 0.0 0.3207139 -0.9471761
vn 0.0 0.4430151 -0.8965142
vn 0.0 0.066135 -0.9978107
vn 0.0 -0.066135 -0.9978107
vn 0.0 0.6588045 -0.7523142
vn 0.0 0.7523142 -0.6588045
vn 0.0 0.8965142 -0.4430151
vn 0.0 0.9471761 -0.3207139
vn 0.0 0.9978107 -0.066135
vn 0.0 0.9978107 0.066135
vn 0.0 0.9471761 0.3207139
vn 0.0 0.8965142 0.4430151
vn 0.0 0.7523142 0.6588045
vn 0.0 0.6588045 0.7523142
vn 0.0 0.4430151 0.8965142
vn 0.0 0.3207139 0.9471761
vn 0.0 0.066135 0.9978107
vn 0.0 -0.066135 0.9978107
vn 0.0 -0.3207139 0.9471761
vn 0.0 -0.4430151 0.8965142
vn 0.0 -0.6588045 0.7523142
vn 0.0 -0.7523142 0.6588045
vn 0.0 -0.8965142 0.4430151
vn 0.0 -0.9471761 0.3207139
vn 0.0 -0.9978107 0.066135
vn 0.0 -0.9978107 -0.066135
vn 0.0 -0.9471761 -0.3207139
vn 0.0 -0.8965142 -0.4430151
vn 0.0 -0.7523142 -0.6588045
vn 0.0 -0.6588045 -0.7523142
vn 0.0 -0.4430151 -0.8965142
vn 0.0 -0.3207139 -0.9471761
vn -4.9e-06 0.9657218 0.2595795
vn 0.0 0.9807909 0.1950619
vn 0.0 1.0 0.0
vn 0.0 0.0 -1.0
vn 0.0 0.0434816 -0.9990542
vn 0.0 0.1159136 -0.9932593
vn 0.0 0.4781865 -0.8782583
vn 0.0 0.6820466 -0.7313087
vn 0.0 0.941297 -0.3375795
vn 0.0 0.9971493 -0.0754544
vn -1.09e-05 0.942201 0.3350481
vn 0.0 0.9422176 0.3350014
vn 0.0 0.9566554 -0.2912222
vn 0.0 0.9722567 -0.2339164
vn 0.0 0.0434816 0.9990542
vn 0.0 0.0 1.0
vn 0.0 0.1159136 0.9932593
vn 0.0 0.4781865 0.8782583
vn 0.0 0.6820466 0.7313087
vn 0.0 0.941297 0.3375795
vn 0.0 0.9971493 0.0754544
vn 0.0 0.9521305 -0.305692
vn 0.0 0.9346199 -0.3556481
vn -2.89e-05 0.9238023 0.3828697
vn 0.0 -1.0 0.0
vn 0.0 -0.9807909 0.1950619
vn -4.9e-06 -0.9657218 0.2595795
vn 0.0 -0.0434816 -0.9990542
vn 0.0 -0.1159136 -0.9932593
vn 0.0 -0.4781865 -0.8782583
vn 0.0 -0.6820466 -0.7313087
vn 0.0 -0.941297 -0.3375795
vn 0.0 -0.9971493 -0.0754544
vn -1.09e-05 -0.942201 0.3350481
vn 0.0 -0.9422176 0.3350014
vn 0.0 -0.9722567 -0.2339164
vn 0.0 -0.9566554 -0.2912222
vn 0.0 -0.0434816 0.9990542
vn 0.0 -0.1159136 0.9932593
vn 0.0 -0.4781865 0.8782583
vn 0.0 -0.6820466 0.7313087
vn 0.0 -0.941297 0.3375795
vn 0.0 -0.9971493 0.0754544
vn 0.0 -0.9521305 -0.305692
vn 0.0 -0.9346199 -0.3556481
vn -2.89e-05 -0.9238023 0.3828697
vn 4.9e-06 0.9657218 0.2595795
vn -1.0 0.0 0.0
vn 1.09e-05 0.942201 0.3350481
vn 2.89e-05 0.9238023 0.3828697
vn 4.9e-06 -0.9657218 0.2595795
vn 1.09e-05 -0.942201 0.3350481
vn 2.89e-05 -0.9238023 0.3828697
vn -0.9471761 0.3207139 0.0
vn -0.8965142 0.4430151 0.0
vn -0.9978107 0.066135 0.0
vn -0.9978107 -0.066135 0.0
vn -0.7523142 0.6588045 0.0
vn -0.6588045 0.7523142 0.0
vn -0.4430151 0.8965142 0.0
vn -0.3207139 0.9471761 0.0
vn -0.066135 0.9978107 0.0
vn 0.066135 0.9978107 0.0
vn 0.3207139 0.9471761 0.0
vn 0.4430151 0.8965142 0.0
vn 0.6588045 0.7523142 0.0
vn 0.7523142 0.6588045 0.0
vn 0.8965142 0.4430151 0.0
vn 0.9471761 0.3207139 0.0
vn 0.9978107 0.066135 0.0
vn 0.9978107 -0.066135 0.0
vn 0.9471761 -0.3207139 0.0
vn 0.8965142 -0.4430151 0.0
vn 0.7523142 -0.6588045 0.0
vn 0.6588045 -0.7523142 0.0
vn 0.4430151 -0.8965142 0.0
vn 0.3207139 -0.9471761 0.0
vn 0.066135 -0.9978107 0.0
vn -0.066135 -0.9978107 0.0
vn -0.3207139 -0.9471761 0.0
vn -0.4430151 -0.8965142 0.0
vn -0.6588045 -0.7523142 0.0
vn -0.7523142 -0.6588045 0.0
vn -0.8965142 -0.4430151 0.0
vn -0.9471761 -0.3207139 0.0
vn -0.9978098 -0.0661489 0.0
vn -0.8965369 -0.4429691 0.0
vn -0.9471783 -0.3207075 0.0
vn -0.9978098 0.0661489 0.0
vn -0.6587815 -0.7523344 0.0
vn -0.7523344 -0.6587815 0.0
vn -0.3207075 -0.9471783 0.0
vn -0.4429691 -0.8965369 0.0
vn 0.0661489 -0.9978098 0.0
vn -0.0661489 -0.9978098 0.0
vn 0.4429691 -0.8965369 0.0
vn 0.3207075 -0.9471783 0.0
vn 0.7523344 -0.6587815 0.0
vn 0.6587815 -0.7523344 0.0
vn 0.9471783 -0.3207075 0.0
vn 0.8965369 -0.4429691 0.0
vn 0.9978098 0.0661489 0.0
vn 0.9978098 -0.0661489 0.0
vn 0.8965369 0.4429691 0.0
vn 0.9471783 0.3207075 0.0
vn 0.6587815 0.7523344 0.0
vn 0.7523344 0.6587815 0.0
vn 0.3207075 0.9471783 0.0
vn 0.4429691 0.8965369 0.0
vn -0.0661489 0.9978098 0.0
vn 0.0661489 0.9978098 0.0
vn -0.4429691 0.8965369 0.0
vn -0.3207075 0.9471783 0.0
vn -0.7523344 0.6587815 0.0
vn -0.6587815 0.7523344 0.0
vn -0.9471783 0.3207075 0.0
vn -0.8965369 0.4429691 0.0
vn 0.0 -0.3207075 0.9471783
vn 0.0 -0.4429691 0.8965369
vn 0.0 -0.1626278 0.9866875
vn 0.0 -0.1090726 0.9940338
vn 0.0 -0.6587815 0.7523344
vn 0.0 -0.7523344 0.6587815
vn 0.0 -0.8965369 0.4429691
vn 0.0 -0.9471783 0.3207075
vn 0.0 -0.9978098 0.0661489
vn 0.0 -0.9978098 -0.0661489
vn 0.0 -0.9471783 -0.3207075
vn 0.0 -0.8965369 -0.4429691
vn 0.0 -0.7523344 -0.6587815
vn 0.0 -0.6587815 -0.7523344
vn 0.0 -0.4429691 -0.8965369
vn 0.0 -0.3207075 -0.9471783
vn 0.0 -0.1626278 -0.9866875
vn 0.0 -0.1090726 -0.9940338
vn 0.0 0.3207075 -0.9471783
vn 0.0 0.4429691 -0.8965369
vn 0.0 0.0508851 -0.9987045
vn 0.0 0.0157654 -0.9998757
vn 0.0 0.6587815 -0.7523344
vn 0.0 0.7523344 -0.6587815
vn 0.0 0.8965369 -0.4429691
vn 0.0 0.9471783 -0.3207075
vn 0.0 0.9978098 -0.0661489
vn 0.0 0.9978098 0.0661489
vn 0.0 0.9471783 0.3207075
vn 0.0 0.8965369 0.4429691
vn 0.0 0.7523344 0.6587815
vn 0.0 0.6587815 0.7523344
vn 0.0 0.4429691 0.8965369
vn 0.0 0.3207075 0.9471783
vn 0.0 0.0508851 0.9987045
vn 0.0 0.0157654 0.9998757
f 1//1 2//2 3//3
f 4//4 1//1 3//3
f 5//5 6//6 2//2
f 1//1 5//5 2//2
f 7//7 8//8 6//6
f 5//5 7//7 6//6
f 9//9 10//10 8//8
f 7//7 9//9 8//8
f 11//11 12//12 10//10
f 9//9 11//11 10//10
f 13//13 14//14 12//12
f 11//11 13//13 12//12
f 15//15 16//16 14//14
f 13//13 15//15 14//14
f 17//17 18//18 16//16
f 15//15 17//17 16//16
f 19//19 20//20 18//18
f 17//17 19//19 18//18
f 21//21 22//22 20//20
f 19//19 21//21 20//20
f 23//23 24//24 22//22
f 21//21 23//23 22//22
f 25//25 26//26 24//24
f 23//23 25//25 24//24
f 27//27 28//28 26//26
f 25//25 27//27 26//26
f 29//29 30//30 28//28
f 27//27 29//29 28//28
f 31//31 32//32 30//30
f 29//29 31//31 30//30
f 4//4 3//3 32//32
f 31//31 4//4 32//32
f 33//19 34//20 35//18
f 36//17 33//19 35//18
f 37//21 38//22 34//20
f 33//19 37//21 34//20
f 39//23 40//24 38//22
f 37//21 39//23 38//22
f 41//25 42//26 40//24
f 39//23 41//25 40//24
f 43//27 44//28 42//26
f 41//25 43//27 42//26
f 45//29 46//30 44//28
f 43//27 45//29 44//28
f 47//31 48//32 46//30
f 45//29 47//31 46//30
f 49//4 50//3 48//32
f 47//31 49//4 48//32
f 51//1 52//2 50//3
f 49//4 51//1 50//3
f 53//5 54//6 52//2
f 51//1 53//5 52//2
f 55//7 56//8 54//6
f 53//5 55//7 54//6
f 57//9 58//10 56//8
f 55//7 57//9 56//8
f 59//11 60//12 58//10
f 57//9 59//11 58//10
f 61//13 62//14 60//12
f 59//11 61//13 60//12
f 63//15 64//16 62//14
f 61//13 63//15 62//14
f 36//17 35//18 64//16
f 63//15 36//17 64//16
f 65//33 66//34 67//35
f 68//36 65//33 67//35
f 69//37 70//38 66//34
f 65//33 69//37 66//34
f 71//39 72//40 70//38
f 69//37 71//39 70//38
f 73//41 74//42 72//40
f 71//39 73//41 72//40
f 75//43 76//44 74//42
f 73//41 75//43 74//42
f 77//45 78//46 76//44
f 75//43 77//45 76//44
f 79//47 80//48 78//46
f 77//45 79//47 78//46
f 81//49 82//50 80//48
f 79//47 81//49 80//48
f 83//51 84//52 82//50
f 81//49 83//51 82//50
f 85//53 86//54 84//52
f 83//51 85//53 84//52
f 87//55 88//56 86//54
f 85//53 87//55 86//54
f 89//57 90//58 88//56
f 87//55 89//57 88//56
f 91//59 92//60 90//58
f 89//57 91//59 90//58
f 93//61 94//62 92//60
f 91//59 93//61 92//60
f 95//63 96//64 94//62
f 93//61 95//63 94//62
f 68//36 67//35 96//64
f 95//63 68//36 96//64
f 97//33 98//34 99//35
f 100//36 97//33 99//35
f 101//37 102//38 98//34
f 97//33 101//37 98//34
f 103//39 104//40 102//38
f 101//37 103//39 102//38
f 105//41 106//42 104//40
f 103//39 105//41 104//40
f 107//43 108//44 106//42
f 105//41 107//43 106//42
f 109//45 110//46 108//44
f 107//43 109//45 108//44
f 111//47 112//48 110//46
f 109//45 111//47 110//46
f 113//49 114//50 112//48
f 111//47 113//49 112//48
f 115//51 116//52 114//50
f 113//49 115//51 114//50
f 117//53 118//54 116//52
f 115//51 117//53 116//52
f 119//55 120//56 118//54
f 117//53 119//55 118//54
f 121//57 122//58 120//56
f 119//55 121//57 120//56
f 123//59 124//60 122//58
f 121//57 123//59 122//58
f 125//61 126//62 124//60
f 123//59 125//61 124//60
f 127//63 128//64 126//62
f 125//61 127//63 126//62
f 100//36 99//35 128//64
f 127//63 100//36 128//64
f 129//65 27//65 25//65
f 129//65 25//65 130//65
f 131//65 29//65 27//65
f 131//65 27//65 129//65
f 132//65 31//65 29//65
f 132//65 29//65 131//65
f 133//65 4//65 31//65
f 133//65 31//65 132//65
f 134//65 1//65 4//65
f 134//65 4//65 133//65
f 135//65 5//65 1//65
f 135//65 1//65 134//65
f 136//65 7//65 5//65
f 136//65 5//65 135//65
f 137//65 9//65 7//65
f 137//65 7//65 136//65
f 138//65 11//65 9//65
f 138//65 9//65 137//65
f 139//65 13//65 11//65
f 139//65 11//65 138//65
f 140//65 15//65 13//65
f 140//65 13//65 139//65
f 141//65 17//65 15//65
f 141//65 15//65 140//65
f 142//65 19//65 17//65
f 142//65 17//65 141//65
f 143//65 21//65 19//65
f 143//65 19//65 142//65
f 144//65 23//65 21//65
f 144//65 21//65 143//65
f 130//65 25//65 23//65
f 130//65 23//65 144//65
f 145//66 142//67 141//68
f 146//69 145//66 141//68
f 147//70 143//71 142//67
f 145//66 147//70 142//67
f 148//72 144//73 143//71
f 147//70 148//72 143//71
f 149//74 130//75 144//73
f 148//72 149//74 144//73
f 150//76 129//77 130//75
f 149//74 150//76 130//75
f 151//78 131//79 129//77
f 150//76 151//78 129//77
f 152//80 132//81 131//79
f 151//78 152//80 131//79
f 153//82 133//83 132//81
f 152//80 153//82 132//81
f 154//84 134//85 133//83
f 153//82 154//84 133//83
f 155//86 135//87 134//85
f 154//84 155//86 134//85
f 156//88 136//89 135//87
f 155//86 156//88 135//87
f 157//90 137//91 136//89
f 156//88 157//90 136//89
f 158//92 138//93 137//91
f 157//90 158//92 137//91
f 159//94 139//95 138//93
f 158//92 159//94 138//93
f 160//96 140//97 139//95
f 159//94 160//96 139//95
f 146//69 141//68 140//97
f 160//96 146//69 140//97
f 161//98 162//99 163//100
f 161//98 163//100 164//100
f 165//101 166//101 167//102
f 165//101 167//102 168//103
f 161//65 164//65 165//65
f 168//103 167//102 169//104
f 170//105 168//103 169//104
f 170//105 169//104 171//106
f 172//107 170//105 171//106
f 172//107 171//106 173//108
f 174//109 172//107 173//108
f 170//65 172//65 174//65
f 170//65 174//65 168//65
f 175//65 173//65 176//65
f 173//65 171//65 176//65
f 176//65 171//65 169//65
f 176//65 169//65 167//65
f 163//100 177//110 178//111
f 164//100 163//100 178//111
f 179//112 180//113 181//113
f 182//114 179//112 181//113
f 182//65 181//65 178//65
f 182//65 178//65 183//65
f 184//115 179//112 182//114
f 184//115 182//114 185//116
f 186//117 184//115 185//116
f 186//117 185//116 187//118
f 188//119 186//117 187//118
f 188//119 187//118 183//120
f 183//65 187//65 185//65
f 182//65 183//65 185//65
f 189//65 188//65 190//65
f 186//65 188//65 189//65
f 186//65 189//65 184//65
f 184//65 189//65 179//65
f 168//65 174//65 161//65
f 168//65 161//65 165//65
f 178//65 181//65 164//65
f 164//65 181//65 165//65
f 173//108 175//121 161//98
f 173//108 161//98 174//109
f 177//110 188//119 183//120
f 177//110 183//120 178//111
f 191//65 192//65 193//65
f 191//65 193//65 176//65
f 194//65 195//65 196//65
f 189//65 194//65 196//65
f 191//65 176//65 167//65
f 191//65 167//65 166//65
f 191//65 166//65 197//65
f 196//65 179//65 189//65
f 196//65 198//65 180//65
f 196//65 180//65 179//65
f 199//122 200//123 201//124
f 202//122 199//122 201//124
f 203//125 166//101 165//101
f 204//126 203//125 165//101
f 165//65 202//65 201//65
f 205//127 203//125 204//126
f 205//127 204//126 206//128
f 207//129 205//127 206//128
f 207//129 206//128 208//130
f 209//131 207//129 208//130
f 209//131 208//130 210//132
f 210//65 208//65 206//65
f 204//65 210//65 206//65
f 211//65 209//65 212//65
f 211//65 207//65 209//65
f 205//65 207//65 211//65
f 203//65 205//65 211//65
f 213//133 214//134 199//122
f 213//133 199//122 202//122
f 181//113 180//113 215//135
f 181//113 215//135 216//136
f 213//65 181//65 216//65
f 217//65 213//65 216//65
f 216//136 215//135 218//137
f 219//138 216//136 218//137
f 219//138 218//137 220//139
f 221//140 219//138 220//139
f 221//140 220//139 222//141
f 217//142 221//140 222//141
f 219//65 221//65 217//65
f 219//65 217//65 216//65
f 223//65 222//65 224//65
f 224//65 222//65 220//65
f 218//65 224//65 220//65
f 215//65 224//65 218//65
f 201//65 210//65 204//65
f 165//65 201//65 204//65
f 202//65 181//65 213//65
f 165//65 181//65 202//65
f 201//124 212//143 209//131
f 210//132 201//124 209//131
f 217//142 222//141 214//134
f 213//133 217//142 214//134
f 225//65 226//65 227//65
f 211//65 225//65 227//65
f 228//65 229//65 230//65
f 228//65 230//65 224//65
f 203//65 211//65 227//65
f 166//65 203//65 227//65
f 197//65 166//65 227//65
f 224//65 215//65 228//65
f 180//65 198//65 228//65
f 215//65 180//65 228//65
f 231//100 232//99 233//144
f 234//100 231//100 233//144
f 235//102 236//101 237//101
f 238//103 235//102 237//101
f 237//145 234//145 233//145
f 239//104 235//102 238//103
f 239//104 238//103 240//105
f 241//106 239//104 240//105
f 241//106 240//105 242//107
f 243//146 241//106 242//107
f 243//146 242//107 244//109
f 244//145 242//145 240//145
f 238//145 244//145 240//145
f 245//145 243//145 246//145
f 245//145 241//145 243//145
f 239//145 241//145 245//145
f 235//145 239//145 245//145
f 247//111 248//110 231//100
f 247//111 231//100 234//100
f 249//113 250//113 251//112
f 249//113 251//112 252//114
f 247//145 249//145 252//145
f 253//145 247//145 252//145
f 252//114 251//112 254//115
f 255//116 252//114 254//115
f 255//116 254//115 256//117
f 257//118 255//116 256//117
f 257//118 256//117 258//119
f 253//120 257//118 258//119
f 255//145 257//145 253//145
f 255//145 253//145 252//145
f 259//145 258//145 260//145
f 260//145 258//145 256//145
f 254//145 260//145 256//145
f 251//145 260//145 254//145
f 233//145 244//145 238//145
f 237//145 233//145 238//145
f 234//145 249//145 247//145
f 237//145 249//145 234//145
f 233//144 246//147 243//146
f 244//109 233//144 243//146
f 253//120 258//119 248//110
f 247//111 253//120 248//110
f 261//145 262//145 263//145
f 245//145 261//145 263//145
f 264//145 265//145 266//145
f 264//145 266//145 260//145
f 235//145 245//145 263//145
f 236//145 235//145 263//145
f 267//145 236//145 263//145
f 260//145 251//145 264//145
f 250//145 268//145 264//145
f 251//145 250//145 264//145
f 269//148 270//123 271//122
f 269//148 271//122 272//122
f 237//101 236//101 273//125
f 237//101 273//125 274//126
f 269//145 272//145 237//145
f 274//126 273//125 275//127
f 276//128 274//126 275//127
f 276//128 275//127 277//129
f 278//130 276//128 277//129
f 278//130 277//129 279//149
f 280//132 278//130 279//149
f 276//145 278//145 280//145
f 276//145 280//145 274//145
f 281//145 279//145 282//145
f 279//145 277//145 282//145
f 282//145 277//145 275//145
f 282//145 275//145 273//145
f 271//122 283//134 284//133
f 272//122 271//122 284//133
f 285//135 250//113 249//113
f 286//136 285//135 249//113
f 286//145 249//145 284//145
f 286//145 284//145 287//145
f 288//137 285//135 286//136
f 288//137 286//136 289//138
f 290//139 288//137 289//138
f 290//139 289//138 291//140
f 292//141 290//139 291//140
f 292//141 291//140 287//142
f 287//145 291//145 289//145
f 286//145 287//145 289//145
f 293//145 292//145 294//145
f 290//145 292//145 293//145
f 290//145 293//145 288//145
f 288//145 293//145 285//145
f 274//145 280//145 269//145
f 274//145 269//145 237//145
f 284//145 249//145 272//145
f 272//145 249//145 237//145
f 279//149 281//150 269//148
f 279//149 269//148 280//132
f 283//134 292//141 287//142
f 283//134 287//142 284//133
f 295//145 296//145 297//145
f 295//145 297//145 282//145
f 298//145 299//145 300//145
f 293//145 298//145 300//145
f 295//145 282//145 273//145
f 295//145 273//145 236//145
f 295//145 236//145 267//145
f 300//145 285//145 293//145
f 300//145 268//145 250//145
f 300//145 250//145 285//145
f 301//145 24//145 26//145
f 301//145 26//145 302//145
f 303//145 22//145 24//145
f 303//145 24//145 301//145
f 304//145 20//145 22//145
f 304//145 22//145 303//145
f 305//145 18//145 20//145
f 305//145 20//145 304//145
f 306//145 16//145 18//145
f 306//145 18//145 305//145
f 307//145 14//145 16//145
f 307//145 16//145 306//145
f 308//145 12//145 14//145
f 308//145 14//145 307//145
f 309//145 10//145 12//145
f 309//145 12//145 308//145
f 310//145 8//145 10//145
f 310//145 10//145 309//145
f 311//145 6//145 8//145
f 311//145 8//145 310//145
f 312//145 2//145 6//145
f 312//145 6//145 311//145
f 313//145 3//145 2//145
f 313//145 2//145 312//145
f 314//145 32//145 3//145
f 314//145 3//145 313//145
f 315//145 30//145 32//145
f 315//145 32//145 314//145
f 316//145 28//145 30//145
f 316//145 30//145 315//145
f 302//145 26//145 28//145
f 302//145 28//145 316//145
f 317//81 314//80 313//82
f 318//83 317//81 313//82
f 319//79 315//78 314//80
f 317//81 319//79 314//80
f 320//77 316//76 315//78
f 319//79 320//77 315//78
f 321//75 302//74 316//76
f 320//77 321//75 316//76
f 322//73 301//72 302//74
f 321//75 322//73 302//74
f 323//71 303//70 301//72
f 322//73 323//71 301//72
f 324//67 304//66 303//70
f 323//71 324//67 303//70
f 325//68 305//69 304//66
f 324//67 325//68 304//66
f 326//97 306//96 305//69
f 325//68 326//97 305//69
f 327//95 307//94 306//96
f 326//97 327//95 306//96
f 328//93 308//92 307//94
f 327//95 328//93 307//94
f 329//91 309//90 308//92
f 328//93 329//91 308//92
f 330//89 310//88 309//90
f 329//91 330//89 309//90
f 331//87 311//86 310//88
f 330//89 331//87 310//88
f 332//85 312//84 311//86
f 331//87 332//85 311//86
f 318//83 313//82 312//84
f 332//85 318//83 312//84
f 333//65 43//65 41//65
f 333//65 41//65 334//65
f 335//65 45//65 43//65
f 335//65 43//65 333//65
f 336//65 47//65 45//65
f 336//65 45//65 335//65
f 337//65 49//65 47//65
f 337//65 47//65 336//65
f 338//65 51//65 49//65
f 338//65 49//65 337//65
f 339//65 53//65 51//65
f 339//65 51//65 338//65
f 340//65 55//65 53//65
f 340//65 53//65 339//65
f 341//65 57//65 55//65
f 341//65 55//65 340//65
f 342//65 59//65 57//65
f 342//65 57//65 341//65
f 343//65 61//65 59//65
f 343//65 59//65 342//65
f 344//65 63//65 61//65
f 344//65 61//65 343//65
f 345//65 36//65 63//65
f 345//65 63//65 344//65
f 346//65 33//65 36//65
f 346//65 36//65 345//65
f 347//65 37//65 33//65
f 347//65 33//65 346//65
f 348//65 39//65 37//65
f 348//65 37//65 347//65
f 334//65 41//65 39//65
f 334//65 39//65 348//65
f 349//66 346//67 345//68
f 350//69 349//66 345//68
f 351//70 347//71 346//67
f 349//66 351//70 346//67
f 352//72 348//73 347//71
f 351//70 352//72 347//71
f 353//74 334//75 348//73
f 352//72 353//74 348//73
f 354//76 333//77 334//75
f 353//74 354//76 334//75
f 355//78 335//79 333//77
f 354//76 355//78 333//77
f 356//80 336//81 335//79
f 355//78 356//80 335//79
f 357//82 337//83 336//81
f 356//80 357//82 336//81
f 358//84 338//85 337//83
f 357//82 358//84 337//83
f 359//86 339//87 338//85
f 358//84 359//86 338//85
f 360//88 340//89 339//87
f 359//86 360//88 339//87
f 361//90 341//91 340//89
f 360//88 361//90 340//89
f 362//92 342//93 341//91
f 361//90 362//92 341//91
f 363//94 343//95 342//93
f 362//92 363//94 342//93
f 364//96 344//97 343//95
f 363//94 364//96 343//95
f 350//69 345//68 344//97
f 364//96 350//69 344//97
f 365//145 40//145 42//145
f 365//145 42//145 366//145
f 367//145 38//145 40//145
f 367//145 40//145 365//145
f 368//145 34//145 38//145
f 368//145 38//145 367//145
f 369//145 35//145 34//145
f 369//145 34//145 368//145
f 370//145 64//145 35//145
f 370//145 35//145 369//145
f 371//145 62//145 64//145
f 371//145 64//145 370//145
f 372//145 60//145 62//145
f 372//145 62//145 371//145
f 373//145 58//145 60//145
f 373//145 60//145 372//145
f 374//145 56//145 58//145
f 374//145 58//145 373//145
f 375//145 54//145 56//145
f 375//145 56//145 374//145
f 376//145 52//145 54//145
f 376//145 54//145 375//145
f 377//145 50//145 52//145
f 377//145 52//145 376//145
f 378//145 48//145 50//145
f 378//145 50//145 377//145
f 379//145 46//145 48//145
f 379//145 48//145 378//145
f 380//145 44//145 46//145
f 380//145 46//145 379//145
f 366//145 42//145 44//145
f 366//145 44//145 380//145
f 381//81 378//80 377//82
f 382//83 381//81 377//82
f 383//79 379//78 378//80
f 381//81 383//79 378//80
f 384//77 380//76 379//78
f 383//79 384//77 379//78
f 385//75 366//74 380//76
f 384//77 385//75 380//76
f 386//73 365//72 366//74
f 385//75 386//73 366//74
f 387//71 367//70 365//72
f 386//73 387//71 365//72
f 388//67 368//66 367//70
f 387//71 388//67 367//70
f 389//68 369//69 368//66
f 388//67 389//68 368//66
f 390//97 370//96 369//69
f 389//68 390//97 369//69
f 391//95 371//94 370//96
f 390//97 391//95 370//96
f 392//93 372//92 371//94
f 391//95 392//93 371//94
f 393//91 373//90 372//92
f 392//93 393//91 372//92
f 394//89 374//88 373//90
f 393//91 394//89 373//90
f 395//87 375//86 374//88
f 394//89 395//87 374//88
f 396//85 376//84 375//86
f 395//87 396//85 375//86
f 382//83 377//82 376//84
f 396//85 382//83 376//84
f 397//101 104//101 106//101
f 397//101 106//101 398//101
f 399//101 102//101 104//101
f 399//101 104//101 397//101
f 400//101 98//101 102//101
f 400//101 102//101 399//101
f 401//101 99//101 98//101
f 401//101 98//101 400//101
f 402//101 128//101 99//101
f 402//101 99//101 401//101
f 403//101 126//101 128//101
f 403//101 128//101 402//101
f 404//101 124//101 126//101
f 404//101 126//101 403//101
f 405//101 122//101 124//101
f 405//101 124//101 404//101
f 406//101 120//101 122//101
f 406//101 122//101 405//101
f 407//101 118//101 120//101
f 407//101 120//101 406//101
f 408//101 116//101 118//101
f 408//101 118//101 407//101
f 409//101 114//101 116//101
f 409//101 116//101 408//101
f 410//101 112//101 114//101
f 410//101 114//101 409//101
f 411//101 110//101 112//101
f 411//101 112//101 410//101
f 412//101 108//101 110//101
f 412//101 110//101 411//101
f 398//101 106//101 108//101
f 398//101 108//101 412//101
f 413//151 410//152 409//153
f 414//154 413//151 409//153
f 415//155 411//156 410//152
f 413//151 415//155 410//152
f 416//157 412//158 411//156
f 415//155 416//157 411//156
f 417//159 398//160 412//158
f 416//157 417//159 412//158
f 418//161 397//162 398//160
f 417//159 418//161 398//160
f 419//163 399//164 397//162
f 418//161 419//163 397//162
f 420//165 400//166 399//164
f 419//163 420//165 399//164
f 421//167 401//168 400//166
f 420//165 421//167 400//166
f 422//169 402//170 401//168
f 421//167 422//169 401//168
f 423//171 403//172 402//170
f 422//169 423//171 402//170
f 424//173 404//174 403//172
f 423//171 424//173 403//172
f 425//175 405//176 404//174
f 424//173 425//175 404//174
f 426//177 406//178 405//176
f 425//175 426//177 405//176
f 427//179 407//180 406//178
f 426//177 427//179 406//178
f 428//181 408//182 407//180
f 427//179 428//181 407//180
f 414//154 409//153 408//182
f 428//181 414//154 408//182
f 429//113 107//113 105//113
f 429//113 105//113 430//113
f 431//113 109//113 107//113
f 431//113 107//113 429//113
f 432//113 111//113 109//113
f 432//113 109//113 431//113
f 433//113 113//113 111//113
f 433//113 111//113 432//113
f 434//113 115//113 113//113
f 434//113 113//113 433//113
f 435//113 117//113 115//113
f 435//113 115//113 434//113
f 436//113 119//113 117//113
f 436//113 117//113 435//113
f 437//113 121//113 119//113
f 437//113 119//113 436//113
f 438//113 123//113 121//113
f 438//113 121//113 437//113
f 439//113 125//113 123//113
f 439//113 123//113 438//113
f 440//113 127//113 125//113
f 440//113 125//113 439//113
f 441//113 100//113 127//113
f 441//113 127//113 440//113
f 442//113 97//113 100//113
f 442//113 100//113 441//113
f 443//113 101//113 97//113
f 443//113 97//113 442//113
f 444//113 103//113 101//113
f 444//113 101//113 443//113
f 430//113 105//113 103//113
f 430//113 103//113 444//113
f 445//166 442//165 441//167
f 446//168 445//166 441//167
f 447//164 443//163 442//165
f 445//166 447//164 442//165
f 448//162 444//161 443//163
f 447//164 448//162 443//163
f 449//160 430//159 444//161
f 448//162 449//160 444//161
f 450//158 429//157 430//159
f 449//160 450//158 430//159
f 451//156 431//155 429//157
f 450//158 451//156 429//157
f 452//152 432//151 431//155
f 451//156 452//152 431//155
f 453//153 433//154 432//151
f 452//152 453//153 432//151
f 454//182 434//181 433//154
f 453//153 454//182 433//154
f 455//180 435//179 434//181
f 454//182 455//180 434//181
f 456//178 436//177 435//179
f 455//180 456//178 435//179
f 457//176 437//175 436//177
f 456//178 457//176 436//177
f 458//174 438//173 437//175
f 457//176 458//174 437//175
f 459//172 439//171 438//173
f 458//174 459//172 438//173
f 460//170 440//169 439//171
f 459//172 460//170 439//171
f 446//168 441//167 440//169
f 460//170 446//168 440//169
f 461//101 72//101 74//101
f 461//101 74//101 462//101
f 463//101 70//101 72//101
f 463//101 72//101 461//101
f 464//101 66//101 70//101
f 464//101 70//101 463//101
f 465//101 67//101 66//101
f 465//101 66//101 464//101
f 466//101 96//101 67//101
f 466//101 67//101 465//101
f 467//101 94//101 96//101
f 467//101 96//101 466//101
f 468//101 92//101 94//101
f 468//101 94//101 467//101
f 469//101 90//101 92//101
f 469//101 92//101 468//101
f 470//101 88//101 90//101
f 470//101 90//101 469//101
f 471//101 86//101 88//101
f 471//101 88//101 470//101
f 472//101 84//101 86//101
f 472//101 86//101 471//101
f 473//101 82//101 84//101
f 473//101 84//101 472//101
f 474//101 80//101 82//101
f 474//101 82//101 473//101
f 475//101 78//101 80//101
f 475//101 80//101 474//101
f 476//101 76//101 78//101
f 476//101 78//101 475//101
f 462//101 74//101 76//101
f 462//101 76//101 476//101
f 477//151 474//152 473//153
f 478//154 477//151 473//153
f 479//155 475//156 474//152
f 477//151 479//155 474//152
f 480//157 476//158 475//156
f 479//155 480//157 475//156
f 481//159 462//160 476//158
f 480//157 481//159 476//158
f 482//161 461//162 462//160
f 481//159 482//161 462//160
f 483//163 463//164 461//162
f 482//161 483//163 461//162
f 484//165 464//166 463//164
f 483//163 484//165 463//164
f 485//167 465//168 464//166
f 484//165 485//167 464//166
f 486//169 466//170 465//168
f 485//167 486//169 465//168
f 487//171 467//172 466//170
f 486//169 487//171 466//170
f 488//173 468//174 467//172
f 487//171 488//173 467//172
f 489//175 469//176 468//174
f 488//173 489//175 468//174
f 490//177 470//178 469//176
f 489//175 490//177 469//176
f 491//179 471//180 470//178
f 490//177 491//179 470//178
f 492//181 472//182 471//180
f 491//179 492//181 471//180
f 478//154 473//153 472//182
f 492//181 478//154 472//182
f 493//113 75//113 73//113
f 493//113 73//113 494//113
f 495//113 77//113 75//113
f 495//113 75//113 493//113
f 496//113 79//113 77//113
f 496//113 77//113 495//113
f 497//113 81//113 79//113
f 497//113 79//113 496//113
f 498//113 83//113 81//113
f 498//113 81//113 497//113
f 499//113 85//113 83//113
f 499//113 83//113 498//113
f 500//113 87//113 85//113
f 500//113 85//113 499//113
f 501//113 89//113 87//113
f 501//113 87//113 500//113
f 502//113 91//113 89//113
f 502//113 89//113 501//113
f 503//113 93//113 91//113
f 503//113 91//113 502//113
f 504//113 95//113 93//113
f 504//113 93//113 503//113
f 505//113 68//113 95//113
f 505//113 95//113 504//113
f 506//113 65//113 68//113
f 506//113 68//113 505//113
f 507//113 69//113 65//113
f 507//113 65//113 506//113
f 508//113 71//113 69//113
f 508//113 69//113 507//113
f 494//113 73//113 71//113
f 494//113 71//113 508//113
f 509//166 506//165 505//167
f 510//168 509//166 505//167
f 511//164 507//163 506//165
f 509//166 511//164 506//165
f 512//162 508//161 507//163
f 511//164 512//162 507//163
f 513//160 494//159 508//161
f 512//162 513//160 508//161
f 514//158 493//157 494//159
f 513//160 514//158 494//159
f 515//156 495//155 493//157
f 514//158 515//156 493//157
f 516//152 496//151 495//155
f 515//156 516//152 495//155
f 517//153 497//154 496//151
f 516//152 517//153 496//151
f 518//182 498//181 497//154
f 517//153 518//182 497//154
f 519//180 499//179 498//181
f 518//182 519//180 498//181
f 520//178 500//177 499//179
f 519//180 520//178 499//179
f 521//176 501//175 500//177
f 520//178 521//176 500//177
f 522//174 502//173 501//175
f 521//176 522//174 501//175
f 523//172 503//171 502//173
f 522//174 523//172 502//173
f 524//170 504//169 503//171
f 523//172 524//170 503//171
f 510//168 505//167 504//169
f 524//170 510//168 504//169
f 525//183 526//184 527//185
f 525//183 527//185 528//186
f 526//184 529//187 530//188
f 526//184 530//188 527//185
f 529//187 531//189 532//190
f 529//187 532//190 530//188
f 531//189 533//191 534//192
f 531//189 534//192 532//190
f 533//191 535//193 536//194
f 533//191 536//194 534//192
f 535//193 537//195 538//196
f 535//193 538//196 536//194
f 537//195 539//197 540//198
f 537//195 540//198 538//196
f 539//197 541//199 542//200
f 539//197 542//200 540//198
f 541//199 543//201 544//202
f 541//199 544//202 542//200
f 543//201 545//203 546//204
f 543//201 546//204 544//202
f 545//203 547//205 548//206
f 545//203 548//206 546//204
f 547//205 549//207 550//208
f 547//205 550//208 548//206
f 549//207 551//209 552//210
f 549//207 552//210 550//208
f 551//209 553//211 554//212
f 551//209 554//212 552//210
f 553//211 555//213 556//214
f 553//211 556//214 554//212
f 555//213 525//183 528//186
f 555//213 528//186 556//214
f 557//183 558//184 559//185
f 557//183 559//185 560//186
f 558//184 561//187 562//188
f 558//184 562//188 559//185
f 561//187 563//189 564//190
f 561//187 564//190 562//188
f 563//189 565//191 566//192
f 563//189 566//192 564//190
f 565//191 567//193 568//194
f 565//191 568//194 566//192
f 567//193 569//195 570//196
f 567//193 570//196 568//194
f 569//195 571//197 572//198
f 569//195 572//198 570//196
f 571//197 573//199 574//200
f 571//197 574//200 572//198
f 573//199 575//201 576//202
f 573//199 576//202 574//200
f 575//201 577//203 578//204
f 575//201 578//204 576//202
f 577//203 579//205 580//206
f 577//203 580//206 578//204
f 579//205 581//207 582//208
f 579//205 582//208 580//206
f 581//207 583//209 584//210
f 581//207 584//210 582//208
f 583//209 585//211 586//212
f 583//209 586//212 584//210
f 585//211 587//213 588//214
f 585//211 588//214 586//212
f 587//213 557//183 560//186
f 587//213 560//186 588//214
f 589//215 590//216 591//217
f 589//215 591//217 592//218
f 593//219 594//220 590//216
f 593//219 590//216 589//215
f 595//221 596//222 594//220
f 595//221 594//220 593//219
f 597//223 598//224 596//222
f 597//223 596//222 595//221
f 599//225 600//226 598//224
f 599//225 598//224 597//223
f 601//227 602//228 600//226
f 601//227 600//226 599//225
f 603//229 604//230 602//228
f 603//229 602//228 601//227
f 605//231 606//232 604//230
f 605//231 604//230 603//229
f 607//65 192//65 608//65
f 609//65 607//65 608//65
f 610//65 609//65 608//65
f 611//65 610//65 608//65
f 612//65 611//65 613//65
f 614//65 612//65 613//65
f 615//65 614//65 613//65
f 195//65 615//65 613//65
f 616//145 591//145 590//145
f 616//145 590//145 594//145
f 616//145 594//145 596//145
f 616//145 596//145 598//145
f 617//145 598//145 600//145
f 617//145 600//145 602//145
f 617//145 602//145 604//145
f 617//145 604//145 606//145
f 589//65 592//65 618//65
f 593//65 589//65 618//65
f 595//65 593//65 618//65
f 597//65 595//65 618//65
f 599//65 597//65 619//65
f 601//65 599//65 619//65
f 603//65 601//65 619//65
f 605//65 603//65 619//65
f 620//145 262//145 621//145
f 620//145 621//145 622//145
f 620//145 622//145 623//145
f 620//145 623//145 624//145
f 625//145 624//145 626//145
f 625//145 626//145 627//145
f 625//145 627//145 628//145
f 625//145 628//145 265//145
f 629//233 630//234 229//235
f 629//233 229//235 299//236
f 631//237 632//238 630//234
f 631//237 630//234 629//233
f 633//239 634//240 632//238
f 633//239 632//238 631//237
f 635//241 636//242 634//240
f 635//241 634//240 633//239
f 637//243 638//244 636//242
f 637//243 636//242 635//241
f 639//245 640//246 638//244
f 639//245 638//244 637//243
f 641//247 642//248 640//246
f 641//247 640//246 639//245
f 296//249 226//250 642//248
f 296//249 642//248 641//247
f 533//101 531//101 482//101
f 533//101 482//101 481//101
f 531//101 529//101 483//101
f 531//101 483//101 482//101
f 529//101 526//101 484//101
f 529//101 484//101 483//101
f 526//101 525//101 485//101
f 526//101 485//101 484//101
f 525//101 555//101 486//101
f 525//101 486//101 485//101
f 555//101 553//101 487//101
f 555//101 487//101 486//101
f 553//101 551//101 488//101
f 553//101 488//101 487//101
f 551//101 549//101 489//101
f 551//101 489//101 488//101
f 549//101 547//101 490//101
f 549//101 490//101 489//101
f 547//101 545//101 491//101
f 547//101 491//101 490//101
f 545//101 543//101 492//101
f 545//101 492//101 491//101
f 543//101 541//101 478//101
f 543//101 478//101 492//101
f 541//101 539//101 477//101
f 541//101 477//101 478//101
f 539//101 537//101 479//101
f 539//101 479//101 477//101
f 537//101 535//101 480//101
f 537//101 480//101 479//101
f 535//101 533//101 481//101
f 535//101 481//101 480//101
f 573//101 571//101 413//101
f 573//101 413//101 414//101
f 571//101 569//101 415//101
f 571//101 415//101 413//101
f 569//101 567//101 416//101
f 569//101 416//101 415//101
f 567//101 565//101 417//101
f 567//101 417//101 416//101
f 565//101 563//101 418//101
f 565//101 418//101 417//101
f 563//101 561//101 419//101
f 563//101 419//101 418//101
f 561//101 558//101 420//101
f 561//101 420//101 419//101
f 558//101 557//101 421//101
f 558//101 421//101 420//101
f 557//101 587//101 422//101
f 557//101 422//101 421//101
f 587//101 585//101 423//101
f 587//101 423//101 422//101
f 585//101 583//101 424//101
f 585//101 424//101 423//101
f 583//101 581//101 425//101
f 583//101 425//101 424//101
f 581//101 579//101 426//101
f 581//101 426//101 425//101
f 579//101 577//101 427//101
f 579//101 427//101 426//101
f 577//101 575//101 428//101
f 577//101 428//101 427//101
f 575//101 573//101 414//101
f 575//101 414//101 428//101
f 528//113 527//113 509//113
f 528//113 509//113 510//113
f 527//113 530//113 511//113
f 527//113 511//113 509//113
f 530//113 532//113 512//113
f 530//113 512//113 511//113
f 532//113 534//113 513//113
f 532//113 513//113 512//113
f 534//113 536//113 514//113
f 534//113 514//113 513//113
f 536//113 538//113 515//113
f 536//113 515//113 514//113
f 538//113 540//113 516//113
f 538//113 516//113 515//113
f 540//113 542//113 517//113
f 540//113 517//113 516//113
f 542//113 544//113 518//113
f 542//113 518//113 517//113
f 544//113 546//113 519//113
f 544//113 519//113 518//113
f 546//113 548//113 520//113
f 546//113 520//113 519//113
f 548//113 550//113 521//113
f 548//113 521//113 520//113
f 550//113 552//113 522//113
f 550//113 522//113 521//113
f 552//113 554//113 523//113
f 552//113 523//113 522//113
f 554//113 556//113 524//113
f 554//113 524//113 523//113
f 556//113 528//113 510//113
f 556//113 510//113 524//113
f 566//113 568//113 450//113
f 566//113 450//113 449//113
f 568//113 570//113 451//113
f 568//113 451//113 450//113
f 570//113 572//113 452//113
f 570//113 452//113 451//113
f 572//113 574//113 453//113
f 572//113 453//113 452//113
f 574//113 576//113 454//113
f 574//113 454//113 453//113
f 576//113 578//113 455//113
f 576//113 455//113 454//113
f 578//113 580//113 456//113
f 578//113 456//113 455//113
f 580//113 582//113 457//113
f 580//113 457//113 456//113
f 582//113 584//113 458//113
f 582//113 458//113 457//113
f 584//113 586//113 459//113
f 584//113 459//113 458//113
f 586//113 588//113 460//113
f 586//113 460//113 459//113
f 588//113 560//113 446//113
f 588//113 446//113 460//113
f 560//113 559//113 445//113
f 560//113 445//113 446//113
f 559//113 562//113 447//113
f 559//113 447//113 445//113
f 562//113 564//113 448//113
f 562//113 448//113 447//113
f 564//113 566//113 449//113
f 564//113 449//113 448//113
f 611//65 612//65 150//65
f 611//65 150//65 149//65
f 612//65 614//65 151//65
f 612//65 151//65 150//65
f 614//65 615//65 152//65
f 614//65 152//65 151//65
f 615//65 195//65 153//65
f 615//65 153//65 152//65
f 195//65 194//65 154//65
f 195//65 154//65 153//65
f 194//65 189//65 155//65
f 194//65 155//65 154//65
f 189//65 177//65 156//65
f 189//65 156//65 155//65
f 177//65 163//65 157//65
f 177//65 157//65 156//65
f 163//65 162//65 158//65
f 163//65 158//65 157//65
f 162//65 176//65 159//65
f 162//65 159//65 158//65
f 176//65 193//65 160//65
f 176//65 160//65 159//65
f 193//65 192//65 146//65
f 193//65 146//65 160//65
f 192//65 607//65 145//65
f 192//65 145//65 146//65
f 607//65 609//65 147//65
f 607//65 147//65 145//65
f 609//65 610//65 148//65
f 609//65 148//65 147//65
f 610//65 611//65 149//65
f 610//65 149//65 148//65
f 229//65 630//65 358//65
f 229//65 358//65 357//65
f 630//65 632//65 359//65
f 630//65 359//65 358//65
f 632//65 634//65 360//65
f 632//65 360//65 359//65
f 634//65 636//65 361//65
f 634//65 361//65 360//65
f 636//65 638//65 362//65
f 636//65 362//65 361//65
f 638//65 640//65 363//65
f 638//65 363//65 362//65
f 640//65 642//65 364//65
f 640//65 364//65 363//65
f 642//65 226//65 350//65
f 642//65 350//65 364//65
f 226//65 225//65 349//65
f 226//65 349//65 350//65
f 225//65 211//65 351//65
f 225//65 351//65 349//65
f 211//65 200//65 352//65
f 211//65 352//65 351//65
f 200//65 199//65 353//65
f 200//65 353//65 352//65
f 199//65 214//65 354//65
f 199//65 354//65 353//65
f 214//65 224//65 355//65
f 214//65 355//65 354//65
f 224//65 230//65 356//65
f 224//65 356//65 355//65
f 230//65 229//65 357//65
f 230//65 357//65 356//65
f 265//145 628//145 317//145
f 265//145 317//145 318//145
f 628//145 627//145 319//145
f 628//145 319//145 317//145
f 627//145 626//145 320//145
f 627//145 320//145 319//145
f 626//145 624//145 321//145
f 626//145 321//145 320//145
f 624//145 623//145 322//145
f 624//145 322//145 321//145
f 623//145 622//145 323//145
f 623//145 323//145 322//145
f 622//145 621//145 324//145
f 622//145 324//145 323//145
f 621//145 262//145 325//145
f 621//145 325//145 324//145
f 262//145 261//145 326//145
f 262//145 326//145 325//145
f 261//145 245//145 327//145
f 261//145 327//145 326//145
f 245//145 232//145 328//145
f 245//145 328//145 327//145
f 232//145 231//145 329//145
f 232//145 329//145 328//145
f 231//145 248//145 330//145
f 231//145 330//145 329//145
f 248//145 260//145 331//145
f 248//145 331//145 330//145
f 260//145 266//145 332//145
f 260//145 332//145 331//145
f 266//145 265//145 318//145
f 266//145 318//145 332//145
f 635//145 633//145 394//145
f 635//145 394//145 393//145
f 633//145 631//145 395//145
f 633//145 395//145 394//145
f 631//145 629//145 396//145
f 631//145 396//145 395//145
f 629//145 299//145 382//145
f 629//145 382//145 396//145
f 299//145 298//145 381//145
f 299//145 381//145 382//145
f 298//145 293//145 383//145
f 298//145 383//145 381//145
f 293//145 283//145 384//145
f 293//145 384//145 383//145
f 283//145 271//145 385//145
f 283//145 385//145 384//145
f 271//145 270//145 386//145
f 271//145 386//145 385//145
f 270//145 282//145 387//145
f 270//145 387//145 386//145
f 282//145 297//145 388//145
f 282//145 388//145 387//145
f 297//145 296//145 389//145
f 297//145 389//145 388//145
f 296//145 641//145 390//145
f 296//145 390//145 389//145
f 641//145 639//145 391//145
f 641//145 391//145 390//145
f 639//145 637//145 392//145
f 639//145 392//145 391//145
f 637//145 635//145 393//145
f 637//145 393//145 392//145
f 195//101 265//101 299//236
f 195//101 299//236 229//235
f 606//232 195//101 643//101
f 606//232 643//101 644//101
f 645//145 646//145 644//145
f 645//145 644//145 647//145
f 648//101 649//101 647//101
f 648//101 647//101 650//101
f 651//65 652//65 650//65
f 651//65 650//65 653//65
f 265//101 605//231 653//101
f 265//101 653//101 654//101
f 650//101 647//101 655//101
f 650//101 655//101 656//101
f 657//101 658//101 659//101
f 657//101 659//101 660//101
f 262//113 192//113 226//250
f 262//113 226//250 296//249
f 192//113 591//217 661//113
f 192//113 661//113 662//113
f 663//145 664//145 665//145
f 663//145 665//145 661//145
f 666//113 667//113 668//113
f 666//113 668//113 665//113
f 669//65 670//65 671//65
f 669//65 671//65 668//65
f 592//218 262//113 672//113
f 592//218 672//113 671//113
f 665//113 668//113 673//113
f 665//113 673//113 674//113
f 675//113 676//113 677//113
f 675//113 677//113 678//113
f 613//65 608//65 662//65
f 613//65 662//65 643//65
f 654//145 672//145 620//145
f 654//145 620//145 625//145
f 659//122 678//122 677//122
f 659//122 677//122 660//122
f 676//100 675//100 674//100
f 673//100 676//100 674//100
f 656//100 655//100 658//100
f 657//100 656//100 658//100
