# Botball Lab: metres, +Y up, centred XZ, base Y=0
s off
v 0.0120000 0.0120000 0.0017500
v 0.0120000 0.0120000 0.0013000
v 0.0118968 0.0135660 0.0013000
v 0.0118968 0.0135660 0.0017500
v 0.0115908 0.0151056 0.0013000
v 0.0115908 0.0151056 0.0017500
v 0.0110868 0.0165924 0.0013000
v 0.0110868 0.0165924 0.0017500
v 0.0103920 0.0180000 0.0013000
v 0.0103920 0.0180000 0.0017500
v 0.0095208 0.0193056 0.0013000
v 0.0095208 0.0193056 0.0017500
v 0.0084852 0.0204852 0.0013000
v 0.0084852 0.0204852 0.0017500
v 0.0073056 0.0215208 0.0013000
v 0.0073056 0.0215208 0.0017500
v 0.0060000 0.0223920 0.0013000
v 0.0060000 0.0223920 0.0017500
v 0.0045924 0.0230868 0.0013000
v 0.0045924 0.0230868 0.0017500
v 0.0031056 0.0235908 0.0013000
v 0.0031056 0.0235908 0.0017500
v 0.0015660 0.0238968 0.0013000
v 0.0015660 0.0238968 0.0017500
v 0.0000000 0.0240000 0.0013000
v 0.0000000 0.0240000 0.0017500
v 0.0110000 0.0120000 0.0006500
v 0.0109054 0.0134355 0.0006500
v 0.0106249 0.0148468 0.0006500
v 0.0101629 0.0162097 0.0006500
v 0.0095260 0.0175000 0.0006500
v 0.0087274 0.0186968 0.0006500
v 0.0077781 0.0197781 0.0006500
v 0.0066968 0.0207274 0.0006500
v 0.0055000 0.0215260 0.0006500
v 0.0042097 0.0221629 0.0006500
v 0.0028468 0.0226249 0.0006500
v 0.0014355 0.0229054 0.0006500
v 0.0000000 0.0230000 0.0006500
v 0.0022628 0.0222628 0.0017500
v 0.0029168 0.0212840 0.0012000
v 0.0027176 0.0221420 0.0017500
v 0.0037312 0.0210080 0.0012000
v 0.0040184 0.0217008 0.0017500
v 0.0052500 0.0210932 0.0017500
v 0.0048752 0.0204436 0.0012000
v 0.0063924 0.0203308 0.0017500
v 0.0059360 0.0197356 0.0012000
v 0.0065824 0.0191680 0.0012000
v 0.0074244 0.0194244 0.0017500
v 0.0077564 0.0190908 0.0017500
v 0.0100192 0.0151716 0.0017500
v 0.0094988 0.0141160 0.0012000
v 0.0101420 0.0147176 0.0017500
v 0.0096660 0.0132724 0.0012000
v 0.0104096 0.0133704 0.0017500
v 0.0105000 0.0120000 0.0017500
v 0.0097500 0.0120000 0.0012000
v 0.0000000 0.0232000 0.0012000
v 0.0012246 0.0229565 0.0012000
v 0.0012246 0.0229565 0.0017500
v 0.0000000 0.0232000 0.0017500
v 0.0022627 0.0222627 0.0012000
v 0.0022627 0.0222627 0.0017500
v 0.0022628 0.0222628 0.0012000
v 0.0100194 0.0151718 0.0017500
v 0.0101011 0.0164177 0.0017500
v 0.0101011 0.0164177 0.0012000
v 0.0100194 0.0151718 0.0012000
v 0.0096997 0.0176000 0.0017500
v 0.0096997 0.0176000 0.0012000
v 0.0088765 0.0185388 0.0017500
v 0.0088765 0.0185388 0.0012000
v 0.0077566 0.0190910 0.0017500
v 0.0077566 0.0190910 0.0012000
v 0.0077564 0.0190908 0.0012000
v 0.0100192 0.0151716 0.0012000
v 0.0009185 0.0222173 0.0012000
v 0.0012246 0.0229564 0.0012000
v 0.0000000 0.0224000 0.0012000
v 0.0016970 0.0216970 0.0012000
v 0.0033941 0.0200000 0.0012000
v 0.0016971 0.0216971 0.0012000
v 0.0022174 0.0209184 0.0012000
v 0.0024000 0.0200000 0.0012000
v 0.0016972 0.0216972 0.0012000
v 0.0033940 0.0200000 0.0012000
v 0.0088764 0.0185387 0.0012000
v 0.0083894 0.0179041 0.0012000
v 0.0090069 0.0172000 0.0012000
v 0.0077566 0.0190909 0.0012000
v 0.0075496 0.0183182 0.0012000
v 0.0066151 0.0183795 0.0012000
v 0.0052313 0.0189394 0.0012000
v 0.0057284 0.0180784 0.0012000
v 0.0052312 0.0189392 0.0012000
v 0.0075492 0.0183184 0.0012000
v 0.0059356 0.0197356 0.0012000
v 0.0048748 0.0204436 0.0012000
v 0.0093079 0.0163132 0.0012000
v 0.0101010 0.0164177 0.0012000
v 0.0092466 0.0153788 0.0012000
v 0.0100193 0.0151718 0.0012000
v 0.0086255 0.0130606 0.0012000
v 0.0088325 0.0145389 0.0012000
v 0.0081284 0.0139216 0.0012000
v 0.0092464 0.0153788 0.0012000
v 0.0086252 0.0130608 0.0012000
v 0.0097496 0.0120000 0.0012000
v 0.0096668 0.0132724 0.0012000
v 0.0000000 0.0152500 0.0012000
v 0.0012438 0.0150027 0.0012000
v 0.0032500 0.0152500 0.0012000
v 0.0022981 0.0142981 0.0012000
v 0.0030027 0.0132438 0.0012000
v 0.0024000 0.0176000 0.0012000
v 0.0022174 0.0190815 0.0012000
v 0.0016970 0.0183030 0.0012000
v 0.0009185 0.0177826 0.0012000
v 0.0000000 0.0176000 0.0012000
v 0.0060484 0.0127200 0.0012000
v 0.0081284 0.0139200 0.0012000
v 0.0072411 0.0136190 0.0012000
v 0.0063062 0.0136807 0.0012000
v 0.0054659 0.0140953 0.0012000
v 0.0048484 0.0148000 0.0012000
v 0.0036484 0.0168800 0.0012000
v 0.0045474 0.0156873 0.0012000
v 0.0046091 0.0166222 0.0012000
v 0.0050237 0.0174625 0.0012000
v 0.0057284 0.0180800 0.0012000
v 0.0048000 0.0124000 0.0012000
v 0.0044000 0.0124000 0.0012000
v 0.0045531 0.0123696 0.0012000
v 0.0046828 0.0122828 0.0012000
v 0.0047696 0.0121531 0.0012000
v 0.0048000 0.0120000 0.0012000
v 0.0081280 0.0139216 0.0012000
v 0.0031704 0.0124000 0.0012000
v 0.0030028 0.0132436 0.0012000
v 0.0000000 0.0152500 0.0020000
v 0.0012438 0.0150027 0.0020000
v 0.0022981 0.0142981 0.0020000
v 0.0030027 0.0132438 0.0020000
v 0.0030025 0.0132439 0.0012000
v 0.0030025 0.0132439 0.0020000
v 0.0031703 0.0124001 0.0020000
v 0.0031703 0.0124001 0.0012000
v 0.0011481 0.0147717 0.0020000
v 0.0000000 0.0150000 0.0020000
v 0.0000000 0.0144000 0.0020000
v 0.0009185 0.0142174 0.0020000
v 0.0021213 0.0141213 0.0020000
v 0.0016970 0.0136970 0.0020000
v 0.0027717 0.0131481 0.0020000
v 0.0022174 0.0129185 0.0020000
v 0.0023204 0.0124000 0.0020000
v 0.0027716 0.0131480 0.0020000
v 0.0022172 0.0129184 0.0020000
v 0.0031704 0.0124000 0.0020000
v 0.0030028 0.0132436 0.0020000
v 0.0032000 0.0232000 0.0017500
v 0.0080997 0.0203713 0.0017500
v 0.0077566 0.0190909 0.0017500
v 0.0112997 0.0148287 0.0017500
v 0.0100193 0.0151718 0.0017500
v 0.0080996 0.0203712 0.0017500
v 0.0096996 0.0176000 0.0017500
v 0.0112996 0.0148288 0.0017500
v 0.0118968 0.0135660 -0.0013000
v 0.0120000 0.0120000 -0.0013000
v 0.0120000 0.0120000 -0.0017500
v 0.0118968 0.0135660 -0.0017500
v 0.0115908 0.0151056 -0.0013000
v 0.0115908 0.0151056 -0.0017500
v 0.0110868 0.0165924 -0.0013000
v 0.0110868 0.0165924 -0.0017500
v 0.0103920 0.0180000 -0.0013000
v 0.0103920 0.0180000 -0.0017500
v 0.0095208 0.0193056 -0.0013000
v 0.0095208 0.0193056 -0.0017500
v 0.0084852 0.0204852 -0.0013000
v 0.0084852 0.0204852 -0.0017500
v 0.0073056 0.0215208 -0.0013000
v 0.0073056 0.0215208 -0.0017500
v 0.0060000 0.0223920 -0.0013000
v 0.0060000 0.0223920 -0.0017500
v 0.0045924 0.0230868 -0.0013000
v 0.0045924 0.0230868 -0.0017500
v 0.0031056 0.0235908 -0.0013000
v 0.0031056 0.0235908 -0.0017500
v 0.0015660 0.0238968 -0.0013000
v 0.0015660 0.0238968 -0.0017500
v 0.0000000 0.0240000 -0.0013000
v 0.0000000 0.0240000 -0.0017500
v 0.0109054 0.0134355 -0.0006500
v 0.0110000 0.0120000 -0.0006500
v 0.0106249 0.0148468 -0.0006500
v 0.0101629 0.0162097 -0.0006500
v 0.0095260 0.0175000 -0.0006500
v 0.0087274 0.0186968 -0.0006500
v 0.0077781 0.0197781 -0.0006500
v 0.0066968 0.0207274 -0.0006500
v 0.0055000 0.0215260 -0.0006500
v 0.0042097 0.0221629 -0.0006500
v 0.0028468 0.0226249 -0.0006500
v 0.0014355 0.0229054 -0.0006500
v 0.0000000 0.0230000 -0.0006500
v 0.0027176 0.0221420 -0.0017500
v 0.0029168 0.0212840 -0.0012000
v 0.0022628 0.0222628 -0.0017500
v 0.0037312 0.0210080 -0.0012000
v 0.0040184 0.0217008 -0.0017500
v 0.0052500 0.0210932 -0.0017500
v 0.0048752 0.0204436 -0.0012000
v 0.0063924 0.0203308 -0.0017500
v 0.0059360 0.0197356 -0.0012000
v 0.0074244 0.0194244 -0.0017500
v 0.0065824 0.0191680 -0.0012000
v 0.0077564 0.0190908 -0.0017500
v 0.0101420 0.0147176 -0.0017500
v 0.0094988 0.0141160 -0.0012000
v 0.0100192 0.0151716 -0.0017500
v 0.0096660 0.0132724 -0.0012000
v 0.0104096 0.0133704 -0.0017500
v 0.0105000 0.0120000 -0.0017500
v 0.0097500 0.0120000 -0.0012000
v 0.0012246 0.0229565 -0.0017500
v 0.0012246 0.0229565 -0.0012000
v 0.0000000 0.0232000 -0.0012000
v 0.0000000 0.0232000 -0.0017500
v 0.0022627 0.0222627 -0.0017500
v 0.0022627 0.0222627 -0.0012000
v 0.0022628 0.0222628 -0.0012000
v 0.0101011 0.0164177 -0.0012000
v 0.0101011 0.0164177 -0.0017500
v 0.0100194 0.0151718 -0.0017500
v 0.0100194 0.0151718 -0.0012000
v 0.0096997 0.0176000 -0.0012000
v 0.0096997 0.0176000 -0.0017500
v 0.0088765 0.0185388 -0.0012000
v 0.0088765 0.0185388 -0.0017500
v 0.0077566 0.0190910 -0.0012000
v 0.0077566 0.0190910 -0.0017500
v 0.0077564 0.0190908 -0.0012000
v 0.0100192 0.0151716 -0.0012000
v 0.0012246 0.0229564 -0.0012000
v 0.0009185 0.0222173 -0.0012000
v 0.0000000 0.0224000 -0.0012000
v 0.0016970 0.0216970 -0.0012000
v 0.0022174 0.0209184 -0.0012000
v 0.0016971 0.0216971 -0.0012000
v 0.0033941 0.0200000 -0.0012000
v 0.0024000 0.0200000 -0.0012000
v 0.0016972 0.0216972 -0.0012000
v 0.0033940 0.0200000 -0.0012000
v 0.0083894 0.0179041 -0.0012000
v 0.0088764 0.0185387 -0.0012000
v 0.0090069 0.0172000 -0.0012000
v 0.0075496 0.0183182 -0.0012000
v 0.0077566 0.0190909 -0.0012000
v 0.0052313 0.0189394 -0.0012000
v 0.0066151 0.0183795 -0.0012000
v 0.0057284 0.0180784 -0.0012000
v 0.0075492 0.0183184 -0.0012000
v 0.0052312 0.0189392 -0.0012000
v 0.0048748 0.0204436 -0.0012000
v 0.0059356 0.0197356 -0.0012000
v 0.0101010 0.0164177 -0.0012000
v 0.0093079 0.0163132 -0.0012000
v 0.0100193 0.0151718 -0.0012000
v 0.0092466 0.0153788 -0.0012000
v 0.0088325 0.0145389 -0.0012000
v 0.0086255 0.0130606 -0.0012000
v 0.0081284 0.0139216 -0.0012000
v 0.0092464 0.0153788 -0.0012000
v 0.0086252 0.0130608 -0.0012000
v 0.0097496 0.0120000 -0.0012000
v 0.0096668 0.0132724 -0.0012000
v 0.0032500 0.0152500 -0.0012000
v 0.0012438 0.0150027 -0.0012000
v 0.0000000 0.0152500 -0.0012000
v 0.0022981 0.0142981 -0.0012000
v 0.0030027 0.0132438 -0.0012000
v 0.0022174 0.0190815 -0.0012000
v 0.0024000 0.0176000 -0.0012000
v 0.0016970 0.0183030 -0.0012000
v 0.0009185 0.0177826 -0.0012000
v 0.0000000 0.0176000 -0.0012000
v 0.0072411 0.0136190 -0.0012000
v 0.0081284 0.0139200 -0.0012000
v 0.0060484 0.0127200 -0.0012000
v 0.0063062 0.0136807 -0.0012000
v 0.0054659 0.0140953 -0.0012000
v 0.0048484 0.0148000 -0.0012000
v 0.0045474 0.0156873 -0.0012000
v 0.0036484 0.0168800 -0.0012000
v 0.0046091 0.0166222 -0.0012000
v 0.0050237 0.0174625 -0.0012000
v 0.0057284 0.0180800 -0.0012000
v 0.0045531 0.0123696 -0.0012000
v 0.0044000 0.0124000 -0.0012000
v 0.0048000 0.0124000 -0.0012000
v 0.0046828 0.0122828 -0.0012000
v 0.0047696 0.0121531 -0.0012000
v 0.0048000 0.0120000 -0.0012000
v 0.0081280 0.0139216 -0.0012000
v 0.0031704 0.0124000 -0.0012000
v 0.0030028 0.0132436 -0.0012000
v 0.0012438 0.0150027 -0.0020000
v 0.0000000 0.0152500 -0.0020000
v 0.0022981 0.0142981 -0.0020000
v 0.0030027 0.0132438 -0.0020000
v 0.0031703 0.0124001 -0.0020000
v 0.0030025 0.0132439 -0.0020000
v 0.0030025 0.0132439 -0.0012000
v 0.0031703 0.0124001 -0.0012000
v 0.0000000 0.0144000 -0.0020000
v 0.0000000 0.0150000 -0.0020000
v 0.0011481 0.0147717 -0.0020000
v 0.0009185 0.0142174 -0.0020000
v 0.0021213 0.0141213 -0.0020000
v 0.0016970 0.0136970 -0.0020000
v 0.0027717 0.0131481 -0.0020000
v 0.0022174 0.0129185 -0.0020000
v 0.0022172 0.0129184 -0.0020000
v 0.0027716 0.0131480 -0.0020000
v 0.0023204 0.0124000 -0.0020000
v 0.0030028 0.0132436 -0.0020000
v 0.0031704 0.0124000 -0.0020000
v 0.0032000 0.0232000 -0.0017500
v 0.0080997 0.0203713 -0.0017500
v 0.0077566 0.0190909 -0.0017500
v 0.0112997 0.0148287 -0.0017500
v 0.0100193 0.0151718 -0.0017500
v 0.0080996 0.0203712 -0.0017500
v 0.0112996 0.0148288 -0.0017500
v 0.0096996 0.0176000 -0.0017500
v -0.0118968 0.0135660 0.0013000
v -0.0120000 0.0120000 0.0013000
v -0.0120000 0.0120000 0.0017500
v -0.0118968 0.0135660 0.0017500
v -0.0115908 0.0151056 0.0013000
v -0.0115908 0.0151056 0.0017500
v -0.0110868 0.0165924 0.0013000
v -0.0110868 0.0165924 0.0017500
v -0.0103920 0.0180000 0.0013000
v -0.0103920 0.0180000 0.0017500
v -0.0095208 0.0193056 0.0013000
v -0.0095208 0.0193056 0.0017500
v -0.0084852 0.0204852 0.0013000
v -0.0084852 0.0204852 0.0017500
v -0.0073056 0.0215208 0.0013000
v -0.0073056 0.0215208 0.0017500
v -0.0060000 0.0223920 0.0013000
v -0.0060000 0.0223920 0.0017500
v -0.0045924 0.0230868 0.0013000
v -0.0045924 0.0230868 0.0017500
v -0.0031056 0.0235908 0.0013000
v -0.0031056 0.0235908 0.0017500
v -0.0015660 0.0238968 0.0013000
v -0.0015660 0.0238968 0.0017500
v -0.0109054 0.0134355 0.0006500
v -0.0110000 0.0120000 0.0006500
v -0.0106249 0.0148468 0.0006500
v -0.0101629 0.0162097 0.0006500
v -0.0095260 0.0175000 0.0006500
v -0.0087274 0.0186968 0.0006500
v -0.0077781 0.0197781 0.0006500
v -0.0066968 0.0207274 0.0006500
v -0.0055000 0.0215260 0.0006500
v -0.0042097 0.0221629 0.0006500
v -0.0028468 0.0226249 0.0006500
v -0.0014355 0.0229054 0.0006500
v -0.0027176 0.0221420 0.0017500
v -0.0029168 0.0212840 0.0012000
v -0.0022628 0.0222628 0.0017500
v -0.0037312 0.0210080 0.0012000
v -0.0040184 0.0217008 0.0017500
v -0.0052500 0.0210932 0.0017500
v -0.0048752 0.0204436 0.0012000
v -0.0063924 0.0203308 0.0017500
v -0.0059360 0.0197356 0.0012000
v -0.0074244 0.0194244 0.0017500
v -0.0065824 0.0191680 0.0012000
v -0.0077564 0.0190908 0.0017500
v -0.0101420 0.0147176 0.0017500
v -0.0094988 0.0141160 0.0012000
v -0.0100192 0.0151716 0.0017500
v -0.0096660 0.0132724 0.0012000
v -0.0104096 0.0133704 0.0017500
v -0.0105000 0.0120000 0.0017500
v -0.0097500 0.0120000 0.0012000
v -0.0012246 0.0229565 0.0017500
v -0.0012246 0.0229565 0.0012000
v -0.0022627 0.0222627 0.0017500
v -0.0022627 0.0222627 0.0012000
v -0.0022628 0.0222628 0.0012000
v -0.0101011 0.0164177 0.0012000
v -0.0101011 0.0164177 0.0017500
v -0.0100194 0.0151718 0.0017500
v -0.0100194 0.0151718 0.0012000
v -0.0096997 0.0176000 0.0012000
v -0.0096997 0.0176000 0.0017500
v -0.0088765 0.0185388 0.0012000
v -0.0088765 0.0185388 0.0017500
v -0.0077566 0.0190910 0.0012000
v -0.0077566 0.0190910 0.0017500
v -0.0077564 0.0190908 0.0012000
v -0.0100192 0.0151716 0.0012000
v -0.0012246 0.0229564 0.0012000
v -0.0009185 0.0222173 0.0012000
v -0.0016970 0.0216970 0.0012000
v -0.0022174 0.0209184 0.0012000
v -0.0016971 0.0216971 0.0012000
v -0.0033941 0.0200000 0.0012000
v -0.0024000 0.0200000 0.0012000
v -0.0016972 0.0216972 0.0012000
v -0.0033940 0.0200000 0.0012000
v -0.0083894 0.0179041 0.0012000
v -0.0088764 0.0185387 0.0012000
v -0.0090069 0.0172000 0.0012000
v -0.0075496 0.0183182 0.0012000
v -0.0077566 0.0190909 0.0012000
v -0.0052313 0.0189394 0.0012000
v -0.0066151 0.0183795 0.0012000
v -0.0057284 0.0180784 0.0012000
v -0.0075492 0.0183184 0.0012000
v -0.0052312 0.0189392 0.0012000
v -0.0048748 0.0204436 0.0012000
v -0.0059356 0.0197356 0.0012000
v -0.0101010 0.0164177 0.0012000
v -0.0093079 0.0163132 0.0012000
v -0.0100193 0.0151718 0.0012000
v -0.0092466 0.0153788 0.0012000
v -0.0088325 0.0145389 0.0012000
v -0.0086255 0.0130606 0.0012000
v -0.0081284 0.0139216 0.0012000
v -0.0092464 0.0153788 0.0012000
v -0.0086252 0.0130608 0.0012000
v -0.0097496 0.0120000 0.0012000
v -0.0096668 0.0132724 0.0012000
v -0.0032500 0.0152500 0.0012000
v -0.0012438 0.0150027 0.0012000
v -0.0022981 0.0142981 0.0012000
v -0.0030027 0.0132438 0.0012000
v -0.0022174 0.0190815 0.0012000
v -0.0024000 0.0176000 0.0012000
v -0.0016970 0.0183030 0.0012000
v -0.0009185 0.0177826 0.0012000
v -0.0072411 0.0136190 0.0012000
v -0.0081284 0.0139200 0.0012000
v -0.0060484 0.0127200 0.0012000
v -0.0063062 0.0136807 0.0012000
v -0.0054659 0.0140953 0.0012000
v -0.0048484 0.0148000 0.0012000
v -0.0045474 0.0156873 0.0012000
v -0.0036484 0.0168800 0.0012000
v -0.0046091 0.0166222 0.0012000
v -0.0050237 0.0174625 0.0012000
v -0.0057284 0.0180800 0.0012000
v -0.0045531 0.0123696 0.0012000
v -0.0044000 0.0124000 0.0012000
v -0.0048000 0.0124000 0.0012000
v -0.0046828 0.0122828 0.0012000
v -0.0047696 0.0121531 0.0012000
v -0.0048000 0.0120000 0.0012000
v -0.0081280 0.0139216 0.0012000
v -0.0031704 0.0124000 0.0012000
v -0.0030028 0.0132436 0.0012000
v -0.0012438 0.0150027 0.0020000
v -0.0022981 0.0142981 0.0020000
v -0.0030027 0.0132438 0.0020000
v -0.0031703 0.0124001 0.0020000
v -0.0030025 0.0132439 0.0020000
v -0.0030025 0.0132439 0.0012000
v -0.0031703 0.0124001 0.0012000
v -0.0011481 0.0147717 0.0020000
v -0.0009185 0.0142174 0.0020000
v -0.0021213 0.0141213 0.0020000
v -0.0016970 0.0136970 0.0020000
v -0.0027717 0.0131481 0.0020000
v -0.0022174 0.0129185 0.0020000
v -0.0022172 0.0129184 0.0020000
v -0.0027716 0.0131480 0.0020000
v -0.0023204 0.0124000 0.0020000
v -0.0030028 0.0132436 0.0020000
v -0.0031704 0.0124000 0.0020000
v -0.0032000 0.0232000 0.0017500
v -0.0080997 0.0203713 0.0017500
v -0.0077566 0.0190909 0.0017500
v -0.0112997 0.0148287 0.0017500
v -0.0100193 0.0151718 0.0017500
v -0.0080996 0.0203712 0.0017500
v -0.0112996 0.0148288 0.0017500
v -0.0096996 0.0176000 0.0017500
v -0.0120000 0.0120000 -0.0017500
v -0.0120000 0.0120000 -0.0013000
v -0.0118968 0.0135660 -0.0013000
v -0.0118968 0.0135660 -0.0017500
v -0.0115908 0.0151056 -0.0013000
v -0.0115908 0.0151056 -0.0017500
v -0.0110868 0.0165924 -0.0013000
v -0.0110868 0.0165924 -0.0017500
v -0.0103920 0.0180000 -0.0013000
v -0.0103920 0.0180000 -0.0017500
v -0.0095208 0.0193056 -0.0013000
v -0.0095208 0.0193056 -0.0017500
v -0.0084852 0.0204852 -0.0013000
v -0.0084852 0.0204852 -0.0017500
v -0.0073056 0.0215208 -0.0013000
v -0.0073056 0.0215208 -0.0017500
v -0.0060000 0.0223920 -0.0013000
v -0.0060000 0.0223920 -0.0017500
v -0.0045924 0.0230868 -0.0013000
v -0.0045924 0.0230868 -0.0017500
v -0.0031056 0.0235908 -0.0013000
v -0.0031056 0.0235908 -0.0017500
v -0.0015660 0.0238968 -0.0013000
v -0.0015660 0.0238968 -0.0017500
v -0.0110000 0.0120000 -0.0006500
v -0.0109054 0.0134355 -0.0006500
v -0.0106249 0.0148468 -0.0006500
v -0.0101629 0.0162097 -0.0006500
v -0.0095260 0.0175000 -0.0006500
v -0.0087274 0.0186968 -0.0006500
v -0.0077781 0.0197781 -0.0006500
v -0.0066968 0.0207274 -0.0006500
v -0.0055000 0.0215260 -0.0006500
v -0.0042097 0.0221629 -0.0006500
v -0.0028468 0.0226249 -0.0006500
v -0.0014355 0.0229054 -0.0006500
v -0.0022628 0.0222628 -0.0017500
v -0.0029168 0.0212840 -0.0012000
v -0.0027176 0.0221420 -0.0017500
v -0.0037312 0.0210080 -0.0012000
v -0.0040184 0.0217008 -0.0017500
v -0.0052500 0.0210932 -0.0017500
v -0.0048752 0.0204436 -0.0012000
v -0.0063924 0.0203308 -0.0017500
v -0.0059360 0.0197356 -0.0012000
v -0.0065824 0.0191680 -0.0012000
v -0.0074244 0.0194244 -0.0017500
v -0.0077564 0.0190908 -0.0017500
v -0.0100192 0.0151716 -0.0017500
v -0.0094988 0.0141160 -0.0012000
v -0.0101420 0.0147176 -0.0017500
v -0.0096660 0.0132724 -0.0012000
v -0.0104096 0.0133704 -0.0017500
v -0.0105000 0.0120000 -0.0017500
v -0.0097500 0.0120000 -0.0012000
v -0.0012246 0.0229565 -0.0012000
v -0.0012246 0.0229565 -0.0017500
v -0.0022627 0.0222627 -0.0012000
v -0.0022627 0.0222627 -0.0017500
v -0.0022628 0.0222628 -0.0012000
v -0.0100194 0.0151718 -0.0017500
v -0.0101011 0.0164177 -0.0017500
v -0.0101011 0.0164177 -0.0012000
v -0.0100194 0.0151718 -0.0012000
v -0.0096997 0.0176000 -0.0017500
v -0.0096997 0.0176000 -0.0012000
v -0.0088765 0.0185388 -0.0017500
v -0.0088765 0.0185388 -0.0012000
v -0.0077566 0.0190910 -0.0017500
v -0.0077566 0.0190910 -0.0012000
v -0.0077564 0.0190908 -0.0012000
v -0.0100192 0.0151716 -0.0012000
v -0.0009185 0.0222173 -0.0012000
v -0.0012246 0.0229564 -0.0012000
v -0.0016970 0.0216970 -0.0012000
v -0.0033941 0.0200000 -0.0012000
v -0.0016971 0.0216971 -0.0012000
v -0.0022174 0.0209184 -0.0012000
v -0.0024000 0.0200000 -0.0012000
v -0.0016972 0.0216972 -0.0012000
v -0.0033940 0.0200000 -0.0012000
v -0.0088764 0.0185387 -0.0012000
v -0.0083894 0.0179041 -0.0012000
v -0.0090069 0.0172000 -0.0012000
v -0.0077566 0.0190909 -0.0012000
v -0.0075496 0.0183182 -0.0012000
v -0.0066151 0.0183795 -0.0012000
v -0.0052313 0.0189394 -0.0012000
v -0.0057284 0.0180784 -0.0012000
v -0.0052312 0.0189392 -0.0012000
v -0.0075492 0.0183184 -0.0012000
v -0.0059356 0.0197356 -0.0012000
v -0.0048748 0.0204436 -0.0012000
v -0.0093079 0.0163132 -0.0012000
v -0.0101010 0.0164177 -0.0012000
v -0.0092466 0.0153788 -0.0012000
v -0.0100193 0.0151718 -0.0012000
v -0.0086255 0.0130606 -0.0012000
v -0.0088325 0.0145389 -0.0012000
v -0.0081284 0.0139216 -0.0012000
v -0.0092464 0.0153788 -0.0012000
v -0.0086252 0.0130608 -0.0012000
v -0.0097496 0.0120000 -0.0012000
v -0.0096668 0.0132724 -0.0012000
v -0.0012438 0.0150027 -0.0012000
v -0.0032500 0.0152500 -0.0012000
v -0.0022981 0.0142981 -0.0012000
v -0.0030027 0.0132438 -0.0012000
v -0.0024000 0.0176000 -0.0012000
v -0.0022174 0.0190815 -0.0012000
v -0.0016970 0.0183030 -0.0012000
v -0.0009185 0.0177826 -0.0012000
v -0.0060484 0.0127200 -0.0012000
v -0.0081284 0.0139200 -0.0012000
v -0.0072411 0.0136190 -0.0012000
v -0.0063062 0.0136807 -0.0012000
v -0.0054659 0.0140953 -0.0012000
v -0.0048484 0.0148000 -0.0012000
v -0.0036484 0.0168800 -0.0012000
v -0.0045474 0.0156873 -0.0012000
v -0.0046091 0.0166222 -0.0012000
v -0.0050237 0.0174625 -0.0012000
v -0.0057284 0.0180800 -0.0012000
v -0.0048000 0.0124000 -0.0012000
v -0.0044000 0.0124000 -0.0012000
v -0.0045531 0.0123696 -0.0012000
v -0.0046828 0.0122828 -0.0012000
v -0.0047696 0.0121531 -0.0012000
v -0.0048000 0.0120000 -0.0012000
v -0.0081280 0.0139216 -0.0012000
v -0.0031704 0.0124000 -0.0012000
v -0.0030028 0.0132436 -0.0012000
v -0.0012438 0.0150027 -0.0020000
v -0.0022981 0.0142981 -0.0020000
v -0.0030027 0.0132438 -0.0020000
v -0.0030025 0.0132439 -0.0012000
v -0.0030025 0.0132439 -0.0020000
v -0.0031703 0.0124001 -0.0020000
v -0.0031703 0.0124001 -0.0012000
v -0.0011481 0.0147717 -0.0020000
v -0.0009185 0.0142174 -0.0020000
v -0.0021213 0.0141213 -0.0020000
v -0.0016970 0.0136970 -0.0020000
v -0.0027717 0.0131481 -0.0020000
v -0.0022174 0.0129185 -0.0020000
v -0.0023204 0.0124000 -0.0020000
v -0.0027716 0.0131480 -0.0020000
v -0.0022172 0.0129184 -0.0020000
v -0.0031704 0.0124000 -0.0020000
v -0.0030028 0.0132436 -0.0020000
v -0.0032000 0.0232000 -0.0017500
v -0.0080997 0.0203713 -0.0017500
v -0.0077566 0.0190909 -0.0017500
v -0.0112997 0.0148287 -0.0017500
v -0.0100193 0.0151718 -0.0017500
v -0.0080996 0.0203712 -0.0017500
v -0.0096996 0.0176000 -0.0017500
v -0.0112996 0.0148288 -0.0017500
v 0.0118968 0.0104340 0.0013000
v 0.0118968 0.0104340 0.0017500
v 0.0115908 0.0088944 0.0013000
v 0.0115908 0.0088944 0.0017500
v 0.0110868 0.0074076 0.0013000
v 0.0110868 0.0074076 0.0017500
v 0.0103920 0.0060000 0.0013000
v 0.0103920 0.0060000 0.0017500
v 0.0095208 0.0046944 0.0013000
v 0.0095208 0.0046944 0.0017500
v 0.0084852 0.0035148 0.0013000
v 0.0084852 0.0035148 0.0017500
v 0.0073056 0.0024792 0.0013000
v 0.0073056 0.0024792 0.0017500
v 0.0060000 0.0016080 0.0013000
v 0.0060000 0.0016080 0.0017500
v 0.0045924 0.0009132 0.0013000
v 0.0045924 0.0009132 0.0017500
v 0.0031056 0.0004092 0.0013000
v 0.0031056 0.0004092 0.0017500
v 0.0015660 0.0001032 0.0013000
v 0.0015660 0.0001032 0.0017500
v 0.0000000 0.0000000 0.0013000
v 0.0000000 0.0000000 0.0017500
v 0.0109054 0.0105645 0.0006500
v 0.0106249 0.0091532 0.0006500
v 0.0101629 0.0077903 0.0006500
v 0.0095260 0.0065000 0.0006500
v 0.0087274 0.0053032 0.0006500
v 0.0077781 0.0042219 0.0006500
v 0.0066968 0.0032726 0.0006500
v 0.0055000 0.0024740 0.0006500
v 0.0042097 0.0018371 0.0006500
v 0.0028468 0.0013751 0.0006500
v 0.0014355 0.0010946 0.0006500
v 0.0000000 0.0010000 0.0006500
v 0.0027176 0.0018580 0.0017500
v 0.0029168 0.0027160 0.0012000
v 0.0022628 0.0017372 0.0017500
v 0.0037312 0.0029920 0.0012000
v 0.0040184 0.0022992 0.0017500
v 0.0052500 0.0029068 0.0017500
v 0.0048752 0.0035564 0.0012000
v 0.0063924 0.0036692 0.0017500
v 0.0059360 0.0042644 0.0012000
v 0.0074244 0.0045756 0.0017500
v 0.0065824 0.0048320 0.0012000
v 0.0077564 0.0049092 0.0017500
v 0.0101420 0.0092824 0.0017500
v 0.0094988 0.0098840 0.0012000
v 0.0100192 0.0088284 0.0017500
v 0.0096660 0.0107276 0.0012000
v 0.0104096 0.0106296 0.0017500
v 0.0012246 0.0010435 0.0017500
v 0.0012246 0.0010435 0.0012000
v 0.0000000 0.0008000 0.0012000
v 0.0000000 0.0008000 0.0017500
v 0.0022627 0.0017373 0.0017500
v 0.0022627 0.0017373 0.0012000
v 0.0022628 0.0017372 0.0012000
v 0.0101011 0.0075823 0.0012000
v 0.0101011 0.0075823 0.0017500
v 0.0100194 0.0088282 0.0017500
v 0.0100194 0.0088282 0.0012000
v 0.0096997 0.0064000 0.0012000
v 0.0096997 0.0064000 0.0017500
v 0.0088765 0.0054612 0.0012000
v 0.0088765 0.0054612 0.0017500
v 0.0077566 0.0049090 0.0012000
v 0.0077566 0.0049090 0.0017500
v 0.0077564 0.0049092 0.0012000
v 0.0100192 0.0088284 0.0012000
v 0.0012246 0.0010436 0.0012000
v 0.0009185 0.0017827 0.0012000
v 0.0000000 0.0016000 0.0012000
v 0.0016970 0.0023030 0.0012000
v 0.0022174 0.0030816 0.0012000
v 0.0016971 0.0023029 0.0012000
v 0.0033941 0.0040000 0.0012000
v 0.0024000 0.0040000 0.0012000
v 0.0016972 0.0023028 0.0012000
v 0.0033940 0.0040000 0.0012000
v 0.0083894 0.0060959 0.0012000
v 0.0088764 0.0054613 0.0012000
v 0.0090069 0.0068000 0.0012000
v 0.0075496 0.0056818 0.0012000
v 0.0077566 0.0049091 0.0012000
v 0.0052313 0.0050606 0.0012000
v 0.0066151 0.0056205 0.0012000
v 0.0057284 0.0059216 0.0012000
v 0.0075492 0.0056816 0.0012000
v 0.0052312 0.0050608 0.0012000
v 0.0048748 0.0035564 0.0012000
v 0.0059356 0.0042644 0.0012000
v 0.0101010 0.0075823 0.0012000
v 0.0093079 0.0076868 0.0012000
v 0.0100193 0.0088282 0.0012000
v 0.0092466 0.0086212 0.0012000
v 0.0088325 0.0094611 0.0012000
v 0.0086255 0.0109394 0.0012000
v 0.0081284 0.0100784 0.0012000
v 0.0092464 0.0086212 0.0012000
v 0.0086252 0.0109392 0.0012000
v 0.0096668 0.0107276 0.0012000
v 0.0032500 0.0087500 0.0012000
v 0.0012438 0.0089973 0.0012000
v 0.0000000 0.0087500 0.0012000
v 0.0022981 0.0097019 0.0012000
v 0.0030027 0.0107562 0.0012000
v 0.0022174 0.0049185 0.0012000
v 0.0024000 0.0064000 0.0012000
v 0.0016970 0.0056970 0.0012000
v 0.0009185 0.0062174 0.0012000
v 0.0000000 0.0064000 0.0012000
v 0.0072411 0.0103810 0.0012000
v 0.0081284 0.0100800 0.0012000
v 0.0060484 0.0112800 0.0012000
v 0.0063062 0.0103193 0.0012000
v 0.0054659 0.0099047 0.0012000
v 0.0048484 0.0092000 0.0012000
v 0.0045474 0.0083127 0.0012000
v 0.0036484 0.0071200 0.0012000
v 0.0046091 0.0073778 0.0012000
v 0.0050237 0.0065375 0.0012000
v 0.0057284 0.0059200 0.0012000
v 0.0045531 0.0116304 0.0012000
v 0.0044000 0.0116000 0.0012000
v 0.0048000 0.0116000 0.0012000
v 0.0046828 0.0117172 0.0012000
v 0.0047696 0.0118469 0.0012000
v 0.0081280 0.0100784 0.0012000
v 0.0031704 0.0116000 0.0012000
v 0.0030028 0.0107564 0.0012000
v 0.0012438 0.0089973 0.0020000
v 0.0000000 0.0087500 0.0020000
v 0.0022981 0.0097019 0.0020000
v 0.0030027 0.0107562 0.0020000
v 0.0031703 0.0115999 0.0020000
v 0.0030025 0.0107561 0.0020000
v 0.0030025 0.0107561 0.0012000
v 0.0031703 0.0115999 0.0012000
v 0.0000000 0.0096000 0.0020000
v 0.0000000 0.0090000 0.0020000
v 0.0011481 0.0092283 0.0020000
v 0.0009185 0.0097826 0.0020000
v 0.0021213 0.0098787 0.0020000
v 0.0016970 0.0103030 0.0020000
v 0.0027717 0.0108519 0.0020000
v 0.0022174 0.0110815 0.0020000
v 0.0022172 0.0110816 0.0020000
v 0.0027716 0.0108520 0.0020000
v 0.0023204 0.0116000 0.0020000
v 0.0030028 0.0107564 0.0020000
v 0.0031704 0.0116000 0.0020000
v 0.0032000 0.0008000 0.0017500
v 0.0080997 0.0036287 0.0017500
v 0.0077566 0.0049091 0.0017500
v 0.0112997 0.0091713 0.0017500
v 0.0100193 0.0088282 0.0017500
v 0.0080996 0.0036288 0.0017500
v 0.0112996 0.0091712 0.0017500
v 0.0096996 0.0064000 0.0017500
v 0.0118968 0.0104340 -0.0013000
v 0.0118968 0.0104340 -0.0017500
v 0.0115908 0.0088944 -0.0013000
v 0.0115908 0.0088944 -0.0017500
v 0.0110868 0.0074076 -0.0013000
v 0.0110868 0.0074076 -0.0017500
v 0.0103920 0.0060000 -0.0013000
v 0.0103920 0.0060000 -0.0017500
v 0.0095208 0.0046944 -0.0013000
v 0.0095208 0.0046944 -0.0017500
v 0.0084852 0.0035148 -0.0013000
v 0.0084852 0.0035148 -0.0017500
v 0.0073056 0.0024792 -0.0013000
v 0.0073056 0.0024792 -0.0017500
v 0.0060000 0.0016080 -0.0013000
v 0.0060000 0.0016080 -0.0017500
v 0.0045924 0.0009132 -0.0013000
v 0.0045924 0.0009132 -0.0017500
v 0.0031056 0.0004092 -0.0013000
v 0.0031056 0.0004092 -0.0017500
v 0.0015660 0.0001032 -0.0013000
v 0.0015660 0.0001032 -0.0017500
v 0.0000000 0.0000000 -0.0013000
v 0.0000000 0.0000000 -0.0017500
v 0.0109054 0.0105645 -0.0006500
v 0.0106249 0.0091532 -0.0006500
v 0.0101629 0.0077903 -0.0006500
v 0.0095260 0.0065000 -0.0006500
v 0.0087274 0.0053032 -0.0006500
v 0.0077781 0.0042219 -0.0006500
v 0.0066968 0.0032726 -0.0006500
v 0.0055000 0.0024740 -0.0006500
v 0.0042097 0.0018371 -0.0006500
v 0.0028468 0.0013751 -0.0006500
v 0.0014355 0.0010946 -0.0006500
v 0.0000000 0.0010000 -0.0006500
v 0.0022628 0.0017372 -0.0017500
v 0.0029168 0.0027160 -0.0012000
v 0.0027176 0.0018580 -0.0017500
v 0.0037312 0.0029920 -0.0012000
v 0.0040184 0.0022992 -0.0017500
v 0.0052500 0.0029068 -0.0017500
v 0.0048752 0.0035564 -0.0012000
v 0.0063924 0.0036692 -0.0017500
v 0.0059360 0.0042644 -0.0012000
v 0.0065824 0.0048320 -0.0012000
v 0.0074244 0.0045756 -0.0017500
v 0.0077564 0.0049092 -0.0017500
v 0.0100192 0.0088284 -0.0017500
v 0.0094988 0.0098840 -0.0012000
v 0.0101420 0.0092824 -0.0017500
v 0.0096660 0.0107276 -0.0012000
v 0.0104096 0.0106296 -0.0017500
v 0.0000000 0.0008000 -0.0012000
v 0.0012246 0.0010435 -0.0012000
v 0.0012246 0.0010435 -0.0017500
v 0.0000000 0.0008000 -0.0017500
v 0.0022627 0.0017373 -0.0012000
v 0.0022627 0.0017373 -0.0017500
v 0.0022628 0.0017372 -0.0012000
v 0.0100194 0.0088282 -0.0017500
v 0.0101011 0.0075823 -0.0017500
v 0.0101011 0.0075823 -0.0012000
v 0.0100194 0.0088282 -0.0012000
v 0.0096997 0.0064000 -0.0017500
v 0.0096997 0.0064000 -0.0012000
v 0.0088765 0.0054612 -0.0017500
v 0.0088765 0.0054612 -0.0012000
v 0.0077566 0.0049090 -0.0017500
v 0.0077566 0.0049090 -0.0012000
v 0.0077564 0.0049092 -0.0012000
v 0.0100192 0.0088284 -0.0012000
v 0.0009185 0.0017827 -0.0012000
v 0.0012246 0.0010436 -0.0012000
v 0.0000000 0.0016000 -0.0012000
v 0.0016970 0.0023030 -0.0012000
v 0.0033941 0.0040000 -0.0012000
v 0.0016971 0.0023029 -0.0012000
v 0.0022174 0.0030816 -0.0012000
v 0.0024000 0.0040000 -0.0012000
v 0.0016972 0.0023028 -0.0012000
v 0.0033940 0.0040000 -0.0012000
v 0.0088764 0.0054613 -0.0012000
v 0.0083894 0.0060959 -0.0012000
v 0.0090069 0.0068000 -0.0012000
v 0.0077566 0.0049091 -0.0012000
v 0.0075496 0.0056818 -0.0012000
v 0.0066151 0.0056205 -0.0012000
v 0.0052313 0.0050606 -0.0012000
v 0.0057284 0.0059216 -0.0012000
v 0.0052312 0.0050608 -0.0012000
v 0.0075492 0.0056816 -0.0012000
v 0.0059356 0.0042644 -0.0012000
v 0.0048748 0.0035564 -0.0012000
v 0.0093079 0.0076868 -0.0012000
v 0.0101010 0.0075823 -0.0012000
v 0.0092466 0.0086212 -0.0012000
v 0.0100193 0.0088282 -0.0012000
v 0.0086255 0.0109394 -0.0012000
v 0.0088325 0.0094611 -0.0012000
v 0.0081284 0.0100784 -0.0012000
v 0.0092464 0.0086212 -0.0012000
v 0.0086252 0.0109392 -0.0012000
v 0.0096668 0.0107276 -0.0012000
v 0.0000000 0.0087500 -0.0012000
v 0.0012438 0.0089973 -0.0012000
v 0.0032500 0.0087500 -0.0012000
v 0.0022981 0.0097019 -0.0012000
v 0.0030027 0.0107562 -0.0012000
v 0.0024000 0.0064000 -0.0012000
v 0.0022174 0.0049185 -0.0012000
v 0.0016970 0.0056970 -0.0012000
v 0.0009185 0.0062174 -0.0012000
v 0.0000000 0.0064000 -0.0012000
v 0.0060484 0.0112800 -0.0012000
v 0.0081284 0.0100800 -0.0012000
v 0.0072411 0.0103810 -0.0012000
v 0.0063062 0.0103193 -0.0012000
v 0.0054659 0.0099047 -0.0012000
v 0.0048484 0.0092000 -0.0012000
v 0.0036484 0.0071200 -0.0012000
v 0.0045474 0.0083127 -0.0012000
v 0.0046091 0.0073778 -0.0012000
v 0.0050237 0.0065375 -0.0012000
v 0.0057284 0.0059200 -0.0012000
v 0.0048000 0.0116000 -0.0012000
v 0.0044000 0.0116000 -0.0012000
v 0.0045531 0.0116304 -0.0012000
v 0.0046828 0.0117172 -0.0012000
v 0.0047696 0.0118469 -0.0012000
v 0.0081280 0.0100784 -0.0012000
v 0.0031704 0.0116000 -0.0012000
v 0.0030028 0.0107564 -0.0012000
v 0.0000000 0.0087500 -0.0020000
v 0.0012438 0.0089973 -0.0020000
v 0.0022981 0.0097019 -0.0020000
v 0.0030027 0.0107562 -0.0020000
v 0.0030025 0.0107561 -0.0012000
v 0.0030025 0.0107561 -0.0020000
v 0.0031703 0.0115999 -0.0020000
v 0.0031703 0.0115999 -0.0012000
v 0.0011481 0.0092283 -0.0020000
v 0.0000000 0.0090000 -0.0020000
v 0.0000000 0.0096000 -0.0020000
v 0.0009185 0.0097826 -0.0020000
v 0.0021213 0.0098787 -0.0020000
v 0.0016970 0.0103030 -0.0020000
v 0.0027717 0.0108519 -0.0020000
v 0.0022174 0.0110815 -0.0020000
v 0.0023204 0.0116000 -0.0020000
v 0.0027716 0.0108520 -0.0020000
v 0.0022172 0.0110816 -0.0020000
v 0.0031704 0.0116000 -0.0020000
v 0.0030028 0.0107564 -0.0020000
v 0.0032000 0.0008000 -0.0017500
v 0.0080997 0.0036287 -0.0017500
v 0.0077566 0.0049091 -0.0017500
v 0.0112997 0.0091713 -0.0017500
v 0.0100193 0.0088282 -0.0017500
v 0.0080996 0.0036288 -0.0017500
v 0.0096996 0.0064000 -0.0017500
v 0.0112996 0.0091712 -0.0017500
v -0.0118968 0.0104340 0.0013000
v -0.0118968 0.0104340 0.0017500
v -0.0115908 0.0088944 0.0013000
v -0.0115908 0.0088944 0.0017500
v -0.0110868 0.0074076 0.0013000
v -0.0110868 0.0074076 0.0017500
v -0.0103920 0.0060000 0.0013000
v -0.0103920 0.0060000 0.0017500
v -0.0095208 0.0046944 0.0013000
v -0.0095208 0.0046944 0.0017500
v -0.0084852 0.0035148 0.0013000
v -0.0084852 0.0035148 0.0017500
v -0.0073056 0.0024792 0.0013000
v -0.0073056 0.0024792 0.0017500
v -0.0060000 0.0016080 0.0013000
v -0.0060000 0.0016080 0.0017500
v -0.0045924 0.0009132 0.0013000
v -0.0045924 0.0009132 0.0017500
v -0.0031056 0.0004092 0.0013000
v -0.0031056 0.0004092 0.0017500
v -0.0015660 0.0001032 0.0013000
v -0.0015660 0.0001032 0.0017500
v -0.0109054 0.0105645 0.0006500
v -0.0106249 0.0091532 0.0006500
v -0.0101629 0.0077903 0.0006500
v -0.0095260 0.0065000 0.0006500
v -0.0087274 0.0053032 0.0006500
v -0.0077781 0.0042219 0.0006500
v -0.0066968 0.0032726 0.0006500
v -0.0055000 0.0024740 0.0006500
v -0.0042097 0.0018371 0.0006500
v -0.0028468 0.0013751 0.0006500
v -0.0014355 0.0010946 0.0006500
v -0.0022628 0.0017372 0.0017500
v -0.0029168 0.0027160 0.0012000
v -0.0027176 0.0018580 0.0017500
v -0.0037312 0.0029920 0.0012000
v -0.0040184 0.0022992 0.0017500
v -0.0052500 0.0029068 0.0017500
v -0.0048752 0.0035564 0.0012000
v -0.0063924 0.0036692 0.0017500
v -0.0059360 0.0042644 0.0012000
v -0.0065824 0.0048320 0.0012000
v -0.0074244 0.0045756 0.0017500
v -0.0077564 0.0049092 0.0017500
v -0.0100192 0.0088284 0.0017500
v -0.0094988 0.0098840 0.0012000
v -0.0101420 0.0092824 0.0017500
v -0.0096660 0.0107276 0.0012000
v -0.0104096 0.0106296 0.0017500
v -0.0012246 0.0010435 0.0012000
v -0.0012246 0.0010435 0.0017500
v -0.0022627 0.0017373 0.0012000
v -0.0022627 0.0017373 0.0017500
v -0.0022628 0.0017372 0.0012000
v -0.0100194 0.0088282 0.0017500
v -0.0101011 0.0075823 0.0017500
v -0.0101011 0.0075823 0.0012000
v -0.0100194 0.0088282 0.0012000
v -0.0096997 0.0064000 0.0017500
v -0.0096997 0.0064000 0.0012000
v -0.0088765 0.0054612 0.0017500
v -0.0088765 0.0054612 0.0012000
v -0.0077566 0.0049090 0.0017500
v -0.0077566 0.0049090 0.0012000
v -0.0077564 0.0049092 0.0012000
v -0.0100192 0.0088284 0.0012000
v -0.0009185 0.0017827 0.0012000
v -0.0012246 0.0010436 0.0012000
v -0.0016970 0.0023030 0.0012000
v -0.0033941 0.0040000 0.0012000
v -0.0016971 0.0023029 0.0012000
v -0.0022174 0.0030816 0.0012000
v -0.0024000 0.0040000 0.0012000
v -0.0016972 0.0023028 0.0012000
v -0.0033940 0.0040000 0.0012000
v -0.0088764 0.0054613 0.0012000
v -0.0083894 0.0060959 0.0012000
v -0.0090069 0.0068000 0.0012000
v -0.0077566 0.0049091 0.0012000
v -0.0075496 0.0056818 0.0012000
v -0.0066151 0.0056205 0.0012000
v -0.0052313 0.0050606 0.0012000
v -0.0057284 0.0059216 0.0012000
v -0.0052312 0.0050608 0.0012000
v -0.0075492 0.0056816 0.0012000
v -0.0059356 0.0042644 0.0012000
v -0.0048748 0.0035564 0.0012000
v -0.0093079 0.0076868 0.0012000
v -0.0101010 0.0075823 0.0012000
v -0.0092466 0.0086212 0.0012000
v -0.0100193 0.0088282 0.0012000
v -0.0086255 0.0109394 0.0012000
v -0.0088325 0.0094611 0.0012000
v -0.0081284 0.0100784 0.0012000
v -0.0092464 0.0086212 0.0012000
v -0.0086252 0.0109392 0.0012000
v -0.0096668 0.0107276 0.0012000
v -0.0012438 0.0089973 0.0012000
v -0.0032500 0.0087500 0.0012000
v -0.0022981 0.0097019 0.0012000
v -0.0030027 0.0107562 0.0012000
v -0.0024000 0.0064000 0.0012000
v -0.0022174 0.0049185 0.0012000
v -0.0016970 0.0056970 0.0012000
v -0.0009185 0.0062174 0.0012000
v -0.0060484 0.0112800 0.0012000
v -0.0081284 0.0100800 0.0012000
v -0.0072411 0.0103810 0.0012000
v -0.0063062 0.0103193 0.0012000
v -0.0054659 0.0099047 0.0012000
v -0.0048484 0.0092000 0.0012000
v -0.0036484 0.0071200 0.0012000
v -0.0045474 0.0083127 0.0012000
v -0.0046091 0.0073778 0.0012000
v -0.0050237 0.0065375 0.0012000
v -0.0057284 0.0059200 0.0012000
v -0.0048000 0.0116000 0.0012000
v -0.0044000 0.0116000 0.0012000
v -0.0045531 0.0116304 0.0012000
v -0.0046828 0.0117172 0.0012000
v -0.0047696 0.0118469 0.0012000
v -0.0081280 0.0100784 0.0012000
v -0.0031704 0.0116000 0.0012000
v -0.0030028 0.0107564 0.0012000
v -0.0012438 0.0089973 0.0020000
v -0.0022981 0.0097019 0.0020000
v -0.0030027 0.0107562 0.0020000
v -0.0030025 0.0107561 0.0012000
v -0.0030025 0.0107561 0.0020000
v -0.0031703 0.0115999 0.0020000
v -0.0031703 0.0115999 0.0012000
v -0.0011481 0.0092283 0.0020000
v -0.0009185 0.0097826 0.0020000
v -0.0021213 0.0098787 0.0020000
v -0.0016970 0.0103030 0.0020000
v -0.0027717 0.0108519 0.0020000
v -0.0022174 0.0110815 0.0020000
v -0.0023204 0.0116000 0.0020000
v -0.0027716 0.0108520 0.0020000
v -0.0022172 0.0110816 0.0020000
v -0.0031704 0.0116000 0.0020000
v -0.0030028 0.0107564 0.0020000
v -0.0032000 0.0008000 0.0017500
v -0.0080997 0.0036287 0.0017500
v -0.0077566 0.0049091 0.0017500
v -0.0112997 0.0091713 0.0017500
v -0.0100193 0.0088282 0.0017500
v -0.0080996 0.0036288 0.0017500
v -0.0096996 0.0064000 0.0017500
v -0.0112996 0.0091712 0.0017500
v -0.0118968 0.0104340 -0.0013000
v -0.0118968 0.0104340 -0.0017500
v -0.0115908 0.0088944 -0.0013000
v -0.0115908 0.0088944 -0.0017500
v -0.0110868 0.0074076 -0.0013000
v -0.0110868 0.0074076 -0.0017500
v -0.0103920 0.0060000 -0.0013000
v -0.0103920 0.0060000 -0.0017500
v -0.0095208 0.0046944 -0.0013000
v -0.0095208 0.0046944 -0.0017500
v -0.0084852 0.0035148 -0.0013000
v -0.0084852 0.0035148 -0.0017500
v -0.0073056 0.0024792 -0.0013000
v -0.0073056 0.0024792 -0.0017500
v -0.0060000 0.0016080 -0.0013000
v -0.0060000 0.0016080 -0.0017500
v -0.0045924 0.0009132 -0.0013000
v -0.0045924 0.0009132 -0.0017500
v -0.0031056 0.0004092 -0.0013000
v -0.0031056 0.0004092 -0.0017500
v -0.0015660 0.0001032 -0.0013000
v -0.0015660 0.0001032 -0.0017500
v -0.0109054 0.0105645 -0.0006500
v -0.0106249 0.0091532 -0.0006500
v -0.0101629 0.0077903 -0.0006500
v -0.0095260 0.0065000 -0.0006500
v -0.0087274 0.0053032 -0.0006500
v -0.0077781 0.0042219 -0.0006500
v -0.0066968 0.0032726 -0.0006500
v -0.0055000 0.0024740 -0.0006500
v -0.0042097 0.0018371 -0.0006500
v -0.0028468 0.0013751 -0.0006500
v -0.0014355 0.0010946 -0.0006500
v -0.0027176 0.0018580 -0.0017500
v -0.0029168 0.0027160 -0.0012000
v -0.0022628 0.0017372 -0.0017500
v -0.0037312 0.0029920 -0.0012000
v -0.0040184 0.0022992 -0.0017500
v -0.0052500 0.0029068 -0.0017500
v -0.0048752 0.0035564 -0.0012000
v -0.0063924 0.0036692 -0.0017500
v -0.0059360 0.0042644 -0.0012000
v -0.0074244 0.0045756 -0.0017500
v -0.0065824 0.0048320 -0.0012000
v -0.0077564 0.0049092 -0.0017500
v -0.0101420 0.0092824 -0.0017500
v -0.0094988 0.0098840 -0.0012000
v -0.0100192 0.0088284 -0.0017500
v -0.0096660 0.0107276 -0.0012000
v -0.0104096 0.0106296 -0.0017500
v -0.0012246 0.0010435 -0.0017500
v -0.0012246 0.0010435 -0.0012000
v -0.0022627 0.0017373 -0.0017500
v -0.0022627 0.0017373 -0.0012000
v -0.0022628 0.0017372 -0.0012000
v -0.0101011 0.0075823 -0.0012000
v -0.0101011 0.0075823 -0.0017500
v -0.0100194 0.0088282 -0.0017500
v -0.0100194 0.0088282 -0.0012000
v -0.0096997 0.0064000 -0.0012000
v -0.0096997 0.0064000 -0.0017500
v -0.0088765 0.0054612 -0.0012000
v -0.0088765 0.0054612 -0.0017500
v -0.0077566 0.0049090 -0.0012000
v -0.0077566 0.0049090 -0.0017500
v -0.0077564 0.0049092 -0.0012000
v -0.0100192 0.0088284 -0.0012000
v -0.0012246 0.0010436 -0.0012000
v -0.0009185 0.0017827 -0.0012000
v -0.0016970 0.0023030 -0.0012000
v -0.0022174 0.0030816 -0.0012000
v -0.0016971 0.0023029 -0.0012000
v -0.0033941 0.0040000 -0.0012000
v -0.0024000 0.0040000 -0.0012000
v -0.0016972 0.0023028 -0.0012000
v -0.0033940 0.0040000 -0.0012000
v -0.0083894 0.0060959 -0.0012000
v -0.0088764 0.0054613 -0.0012000
v -0.0090069 0.0068000 -0.0012000
v -0.0075496 0.0056818 -0.0012000
v -0.0077566 0.0049091 -0.0012000
v -0.0052313 0.0050606 -0.0012000
v -0.0066151 0.0056205 -0.0012000
v -0.0057284 0.0059216 -0.0012000
v -0.0075492 0.0056816 -0.0012000
v -0.0052312 0.0050608 -0.0012000
v -0.0048748 0.0035564 -0.0012000
v -0.0059356 0.0042644 -0.0012000
v -0.0101010 0.0075823 -0.0012000
v -0.0093079 0.0076868 -0.0012000
v -0.0100193 0.0088282 -0.0012000
v -0.0092466 0.0086212 -0.0012000
v -0.0088325 0.0094611 -0.0012000
v -0.0086255 0.0109394 -0.0012000
v -0.0081284 0.0100784 -0.0012000
v -0.0092464 0.0086212 -0.0012000
v -0.0086252 0.0109392 -0.0012000
v -0.0096668 0.0107276 -0.0012000
v -0.0032500 0.0087500 -0.0012000
v -0.0012438 0.0089973 -0.0012000
v -0.0022981 0.0097019 -0.0012000
v -0.0030027 0.0107562 -0.0012000
v -0.0022174 0.0049185 -0.0012000
v -0.0024000 0.0064000 -0.0012000
v -0.0016970 0.0056970 -0.0012000
v -0.0009185 0.0062174 -0.0012000
v -0.0072411 0.0103810 -0.0012000
v -0.0081284 0.0100800 -0.0012000
v -0.0060484 0.0112800 -0.0012000
v -0.0063062 0.0103193 -0.0012000
v -0.0054659 0.0099047 -0.0012000
v -0.0048484 0.0092000 -0.0012000
v -0.0045474 0.0083127 -0.0012000
v -0.0036484 0.0071200 -0.0012000
v -0.0046091 0.0073778 -0.0012000
v -0.0050237 0.0065375 -0.0012000
v -0.0057284 0.0059200 -0.0012000
v -0.0045531 0.0116304 -0.0012000
v -0.0044000 0.0116000 -0.0012000
v -0.0048000 0.0116000 -0.0012000
v -0.0046828 0.0117172 -0.0012000
v -0.0047696 0.0118469 -0.0012000
v -0.0081280 0.0100784 -0.0012000
v -0.0031704 0.0116000 -0.0012000
v -0.0030028 0.0107564 -0.0012000
v -0.0012438 0.0089973 -0.0020000
v -0.0022981 0.0097019 -0.0020000
v -0.0030027 0.0107562 -0.0020000
v -0.0031703 0.0115999 -0.0020000
v -0.0030025 0.0107561 -0.0020000
v -0.0030025 0.0107561 -0.0012000
v -0.0031703 0.0115999 -0.0012000
v -0.0011481 0.0092283 -0.0020000
v -0.0009185 0.0097826 -0.0020000
v -0.0021213 0.0098787 -0.0020000
v -0.0016970 0.0103030 -0.0020000
v -0.0027717 0.0108519 -0.0020000
v -0.0022174 0.0110815 -0.0020000
v -0.0022172 0.0110816 -0.0020000
v -0.0027716 0.0108520 -0.0020000
v -0.0023204 0.0116000 -0.0020000
v -0.0030028 0.0107564 -0.0020000
v -0.0031704 0.0116000 -0.0020000
v -0.0032000 0.0008000 -0.0017500
v -0.0080997 0.0036287 -0.0017500
v -0.0077566 0.0049091 -0.0017500
v -0.0112997 0.0091713 -0.0017500
v -0.0100193 0.0088282 -0.0017500
v -0.0080996 0.0036288 -0.0017500
v -0.0112996 0.0091712 -0.0017500
v -0.0096996 0.0064000 -0.0017500
v 0.0023205 0.0124000 0.0020000
v 0.0023205 0.0124000 -0.0020000
v 0.0023205 0.0116000 -0.0020000
v 0.0023205 0.0116000 0.0020000
v -0.0023205 0.0124000 -0.0020000
v -0.0023205 0.0124000 0.0020000
v -0.0023205 0.0116000 0.0020000
v -0.0023205 0.0116000 -0.0020000
v 0.0022408 0.0128000 -0.0020000
v 0.0022408 0.0128000 0.0020000
v 0.0022408 0.0112000 -0.0020000
v 0.0022408 0.0112000 0.0020000
v -0.0022408 0.0128000 -0.0020000
v -0.0022408 0.0128000 0.0020000
v -0.0022408 0.0112000 0.0020000
v -0.0022408 0.0112000 -0.0020000
v 0.0009184 0.0097827 0.0020000
v 0.0016971 0.0103029 0.0020000
v 0.0022173 0.0110816 0.0020000
v 0.0022173 0.0129184 0.0020000
v 0.0016971 0.0136971 0.0020000
v 0.0009184 0.0142173 0.0020000
v -0.0009184 0.0142173 0.0020000
v -0.0016971 0.0136971 0.0020000
v -0.0022173 0.0129184 0.0020000
v -0.0022173 0.0110816 0.0020000
v -0.0016971 0.0103029 0.0020000
v -0.0009184 0.0097827 0.0020000
v 0.0010000 0.0110000 0.0020000
v 0.0008000 0.0104000 0.0020000
v 0.0008000 0.0097591 0.0020000
v 0.0016000 0.0112000 0.0020000
v 0.0022409 0.0112000 0.0020000
v 0.0010000 0.0130000 0.0020000
v 0.0016000 0.0128000 0.0020000
v 0.0022409 0.0128000 0.0020000
v 0.0008000 0.0142409 0.0020000
v 0.0008000 0.0136000 0.0020000
v -0.0008000 0.0136000 0.0020000
v -0.0008000 0.0142409 0.0020000
v -0.0010000 0.0130000 0.0020000
v -0.0022409 0.0128000 0.0020000
v -0.0016000 0.0128000 0.0020000
v -0.0010000 0.0110000 0.0020000
v -0.0022409 0.0112000 0.0020000
v -0.0016000 0.0112000 0.0020000
v -0.0008000 0.0104000 0.0020000
v -0.0008000 0.0097591 0.0020000
v -0.0009184 0.0097827 -0.0020000
v -0.0016971 0.0103029 -0.0020000
v -0.0022173 0.0110816 -0.0020000
v -0.0022173 0.0129184 -0.0020000
v -0.0016971 0.0136971 -0.0020000
v -0.0009184 0.0142173 -0.0020000
v 0.0009184 0.0142173 -0.0020000
v 0.0016971 0.0136971 -0.0020000
v 0.0022173 0.0129184 -0.0020000
v 0.0022173 0.0110816 -0.0020000
v 0.0016971 0.0103029 -0.0020000
v 0.0009184 0.0097827 -0.0020000
v -0.0010000 0.0110000 -0.0020000
v -0.0008000 0.0104000 -0.0020000
v -0.0008000 0.0097591 -0.0020000
v -0.0016000 0.0112000 -0.0020000
v -0.0022409 0.0112000 -0.0020000
v -0.0010000 0.0130000 -0.0020000
v -0.0016000 0.0128000 -0.0020000
v -0.0022409 0.0128000 -0.0020000
v -0.0008000 0.0142409 -0.0020000
v -0.0008000 0.0136000 -0.0020000
v 0.0008000 0.0136000 -0.0020000
v 0.0008000 0.0142409 -0.0020000
v 0.0010000 0.0130000 -0.0020000
v 0.0022409 0.0128000 -0.0020000
v 0.0016000 0.0128000 -0.0020000
v 0.0010000 0.0110000 -0.0020000
v 0.0022409 0.0112000 -0.0020000
v 0.0016000 0.0112000 -0.0020000
v 0.0008000 0.0104000 -0.0020000
v 0.0008000 0.0097591 -0.0020000
v -0.0022174 0.0209185 -0.0012000
v -0.0022174 0.0209185 0.0012000
v -0.0009185 0.0222174 -0.0012000
v -0.0009185 0.0222174 0.0012000
v 0.0009185 0.0222174 -0.0012000
v 0.0009185 0.0222174 0.0012000
v 0.0022174 0.0209185 -0.0012000
v 0.0022174 0.0209185 0.0012000
v 0.0066157 0.0183810 -0.0012000
v 0.0066157 0.0183810 0.0012000
v 0.0075506 0.0183193 -0.0012000
v 0.0075506 0.0183193 0.0012000
v 0.0083909 0.0179047 -0.0012000
v 0.0083909 0.0179047 0.0012000
v 0.0090084 0.0172000 -0.0012000
v 0.0090084 0.0172000 0.0012000
v 0.0093094 0.0163127 -0.0012000
v 0.0093094 0.0163127 0.0012000
v 0.0092477 0.0153778 -0.0012000
v 0.0092477 0.0153778 0.0012000
v 0.0088331 0.0145375 -0.0012000
v 0.0088331 0.0145375 0.0012000
v 0.0066157 0.0056190 0.0012000
v 0.0066157 0.0056190 -0.0012000
v 0.0075506 0.0056807 0.0012000
v 0.0075506 0.0056807 -0.0012000
v 0.0083909 0.0060953 0.0012000
v 0.0083909 0.0060953 -0.0012000
v 0.0090084 0.0068000 0.0012000
v 0.0090084 0.0068000 -0.0012000
v 0.0093094 0.0076873 0.0012000
v 0.0093094 0.0076873 -0.0012000
v 0.0092477 0.0086222 0.0012000
v 0.0092477 0.0086222 -0.0012000
v 0.0088331 0.0094625 0.0012000
v 0.0088331 0.0094625 -0.0012000
v 0.0022174 0.0030815 -0.0012000
v 0.0022174 0.0030815 0.0012000
v 0.0009185 0.0017826 -0.0012000
v 0.0009185 0.0017826 0.0012000
v -0.0009185 0.0017826 -0.0012000
v -0.0009185 0.0017826 0.0012000
v -0.0022174 0.0030815 -0.0012000
v -0.0022174 0.0030815 0.0012000
v -0.0066157 0.0183810 0.0012000
v -0.0066157 0.0183810 -0.0012000
v -0.0075506 0.0183193 0.0012000
v -0.0075506 0.0183193 -0.0012000
v -0.0083909 0.0179047 0.0012000
v -0.0083909 0.0179047 -0.0012000
v -0.0090084 0.0172000 0.0012000
v -0.0090084 0.0172000 -0.0012000
v -0.0093094 0.0163127 0.0012000
v -0.0093094 0.0163127 -0.0012000
v -0.0092477 0.0153778 0.0012000
v -0.0092477 0.0153778 -0.0012000
v -0.0088331 0.0145375 0.0012000
v -0.0088331 0.0145375 -0.0012000
v -0.0066157 0.0056190 -0.0012000
v -0.0066157 0.0056190 0.0012000
v -0.0075506 0.0056807 -0.0012000
v -0.0075506 0.0056807 0.0012000
v -0.0083909 0.0060953 -0.0012000
v -0.0083909 0.0060953 0.0012000
v -0.0090084 0.0068000 -0.0012000
v -0.0090084 0.0068000 0.0012000
v -0.0093094 0.0076873 -0.0012000
v -0.0093094 0.0076873 0.0012000
v -0.0092477 0.0086222 -0.0012000
v -0.0092477 0.0086222 0.0012000
v -0.0088331 0.0094625 -0.0012000
v -0.0088331 0.0094625 0.0012000
f 1 2 3
f 4 1 3
f 4 3 5
f 6 4 5
f 6 5 7
f 8 6 7
f 8 7 9
f 10 8 9
f 10 9 11
f 12 10 11
f 12 11 13
f 14 12 13
f 14 13 15
f 16 14 15
f 16 15 17
f 18 16 17
f 18 17 19
f 20 18 19
f 20 19 21
f 22 20 21
f 22 21 23
f 24 22 23
f 24 23 25
f 26 24 25
f 27 28 3
f 27 3 2
f 28 29 5
f 28 5 3
f 29 30 7
f 29 7 5
f 30 31 9
f 30 9 7
f 31 32 11
f 31 11 9
f 32 33 13
f 32 13 11
f 33 34 15
f 33 15 13
f 34 35 17
f 34 17 15
f 35 36 19
f 35 19 17
f 36 37 21
f 36 21 19
f 37 38 23
f 37 23 21
f 38 39 25
f 38 25 23
f 40 41 42
f 42 41 43
f 42 43 44
f 45 44 43
f 45 43 46
f 47 45 46
f 47 46 48
f 49 50 47
f 49 47 48
f 50 49 51
f 52 53 54
f 54 53 55
f 54 55 56
f 57 56 55
f 57 55 58
f 59 60 61
f 62 59 61
f 60 63 64
f 61 60 64
f 65 41 40
f 66 67 68
f 66 68 69
f 67 70 71
f 67 71 68
f 70 72 73
f 70 73 71
f 72 74 75
f 72 75 73
f 76 51 49
f 77 53 52
f 78 79 59
f 80 78 59
f 81 63 79
f 78 81 79
f 82 83 84
f 82 84 85
f 41 65 86
f 41 86 87
f 41 87 46
f 41 46 43
f 71 88 89
f 71 89 90
f 88 91 92
f 88 92 89
f 93 92 94
f 95 93 94
f 96 97 76
f 96 76 49
f 98 99 96
f 98 96 49
f 100 101 71
f 90 100 71
f 102 103 101
f 100 102 101
f 104 102 105
f 104 105 106
f 53 77 107
f 53 107 108
f 53 108 109
f 53 109 110
f 111 112 113
f 112 114 113
f 114 115 113
f 116 85 117
f 116 117 118
f 116 118 119
f 116 119 120
f 121 122 123
f 121 123 124
f 121 124 125
f 121 125 126
f 127 126 128
f 127 128 129
f 127 129 130
f 127 130 131
f 132 133 134
f 132 134 135
f 132 135 136
f 132 136 137
f 109 108 132
f 109 132 137
f 138 121 108
f 133 132 108
f 133 108 121
f 126 139 133
f 126 133 121
f 126 113 140
f 126 140 139
f 126 127 116
f 126 116 113
f 113 116 120
f 113 120 111
f 87 85 116
f 87 116 127
f 87 127 96
f 87 96 46
f 131 96 127
f 141 142 112
f 111 141 112
f 142 143 114
f 112 142 114
f 143 144 115
f 114 143 115
f 145 146 147
f 148 145 147
f 149 150 151
f 152 149 151
f 153 149 152
f 154 153 152
f 155 153 154
f 156 155 154
f 142 141 150
f 149 142 150
f 143 142 149
f 153 143 149
f 144 143 153
f 155 144 153
f 157 158 159
f 157 160 161
f 157 161 158
f 139 160 157
f 162 62 61
f 162 61 64
f 72 70 163
f 164 72 163
f 8 1 4
f 8 4 6
f 14 8 10
f 14 10 12
f 20 14 16
f 20 16 18
f 26 20 22
f 26 22 24
f 165 70 67
f 165 67 166
f 26 62 162
f 26 162 20
f 162 40 42
f 162 42 20
f 50 167 20
f 50 20 47
f 42 44 20
f 20 44 45
f 20 45 47
f 20 167 14
f 167 50 51
f 8 168 169
f 8 169 1
f 14 167 168
f 14 168 8
f 169 54 56
f 169 56 1
f 56 57 1
f 52 54 169
f 170 171 172
f 170 172 173
f 174 170 173
f 174 173 175
f 176 174 175
f 176 175 177
f 178 176 177
f 178 177 179
f 180 178 179
f 180 179 181
f 182 180 181
f 182 181 183
f 184 182 183
f 184 183 185
f 186 184 185
f 186 185 187
f 188 186 187
f 188 187 189
f 190 188 189
f 190 189 191
f 192 190 191
f 192 191 193
f 194 192 193
f 194 193 195
f 170 196 197
f 171 170 197
f 174 198 196
f 170 174 196
f 176 199 198
f 174 176 198
f 178 200 199
f 176 178 199
f 180 201 200
f 178 180 200
f 182 202 201
f 180 182 201
f 184 203 202
f 182 184 202
f 186 204 203
f 184 186 203
f 188 205 204
f 186 188 204
f 190 206 205
f 188 190 205
f 192 207 206
f 190 192 206
f 194 208 207
f 192 194 207
f 209 210 211
f 212 210 209
f 213 212 209
f 212 213 214
f 215 212 214
f 215 214 216
f 217 215 216
f 216 218 219
f 217 216 219
f 220 219 218
f 221 222 223
f 224 222 221
f 225 224 221
f 224 225 226
f 227 224 226
f 228 229 230
f 228 230 231
f 232 233 229
f 232 229 228
f 211 210 234
f 235 236 237
f 238 235 237
f 239 240 236
f 235 239 236
f 241 242 240
f 239 241 240
f 243 244 242
f 241 243 242
f 219 220 245
f 223 222 246
f 230 247 248
f 230 248 249
f 247 233 250
f 247 250 248
f 251 252 253
f 254 251 253
f 255 234 210
f 256 255 210
f 215 256 210
f 212 215 210
f 257 258 239
f 259 257 239
f 260 261 258
f 257 260 258
f 262 260 263
f 262 263 264
f 245 265 266
f 219 245 266
f 266 267 268
f 219 266 268
f 239 269 270
f 239 270 259
f 269 271 272
f 269 272 270
f 273 272 274
f 275 273 274
f 276 246 222
f 277 276 222
f 278 277 222
f 279 278 222
f 280 281 282
f 280 283 281
f 280 284 283
f 285 254 286
f 287 285 286
f 288 287 286
f 289 288 286
f 290 291 292
f 293 290 292
f 294 293 292
f 295 294 292
f 296 295 297
f 298 296 297
f 299 298 297
f 300 299 297
f 301 302 303
f 304 301 303
f 305 304 303
f 306 305 303
f 303 277 278
f 306 303 278
f 277 292 307
f 277 303 302
f 292 277 302
f 302 308 295
f 292 302 295
f 309 280 295
f 308 309 295
f 286 297 295
f 280 286 295
f 289 286 280
f 282 289 280
f 286 254 256
f 297 286 256
f 266 297 256
f 215 266 256
f 297 266 300
f 281 310 311
f 281 311 282
f 283 312 310
f 283 310 281
f 284 313 312
f 284 312 283
f 314 315 316
f 314 316 317
f 318 319 320
f 318 320 321
f 321 320 322
f 321 322 323
f 323 322 324
f 323 324 325
f 319 311 310
f 319 310 320
f 320 310 312
f 320 312 322
f 322 312 313
f 322 313 324
f 326 327 328
f 329 330 328
f 327 329 328
f 328 330 308
f 228 231 331
f 232 228 331
f 332 240 242
f 332 242 333
f 173 172 177
f 175 173 177
f 179 177 183
f 181 179 183
f 185 183 189
f 187 185 189
f 191 189 195
f 193 191 195
f 236 240 334
f 335 236 334
f 331 231 195
f 189 331 195
f 209 211 331
f 189 209 331
f 189 336 218
f 216 189 218
f 189 213 209
f 214 213 189
f 216 214 189
f 183 336 189
f 220 218 336
f 337 338 177
f 172 337 177
f 338 336 183
f 177 338 183
f 225 221 337
f 172 225 337
f 172 226 225
f 337 221 223
f 339 340 341
f 339 341 342
f 343 339 342
f 343 342 344
f 345 343 344
f 345 344 346
f 347 345 346
f 347 346 348
f 349 347 348
f 349 348 350
f 351 349 350
f 351 350 352
f 353 351 352
f 353 352 354
f 355 353 354
f 355 354 356
f 357 355 356
f 357 356 358
f 359 357 358
f 359 358 360
f 361 359 360
f 361 360 362
f 25 361 362
f 25 362 26
f 339 363 364
f 340 339 364
f 343 365 363
f 339 343 363
f 345 366 365
f 343 345 365
f 347 367 366
f 345 347 366
f 349 368 367
f 347 349 367
f 351 369 368
f 349 351 368
f 353 370 369
f 351 353 369
f 355 371 370
f 353 355 370
f 357 372 371
f 355 357 371
f 359 373 372
f 357 359 372
f 361 374 373
f 359 361 373
f 25 39 374
f 361 25 374
f 375 376 377
f 378 376 375
f 379 378 375
f 378 379 380
f 381 378 380
f 381 380 382
f 383 381 382
f 382 384 385
f 383 382 385
f 386 385 384
f 387 388 389
f 390 388 387
f 391 390 387
f 390 391 392
f 393 390 392
f 394 395 59
f 394 59 62
f 396 397 395
f 396 395 394
f 377 376 398
f 399 400 401
f 402 399 401
f 403 404 400
f 399 403 400
f 405 406 404
f 403 405 404
f 407 408 406
f 405 407 406
f 385 386 409
f 389 388 410
f 59 411 412
f 59 412 80
f 411 397 413
f 411 413 412
f 414 415 416
f 417 414 416
f 418 398 376
f 419 418 376
f 381 419 376
f 378 381 376
f 420 421 403
f 422 420 403
f 423 424 421
f 420 423 421
f 425 423 426
f 425 426 427
f 409 428 429
f 385 409 429
f 429 430 431
f 385 429 431
f 403 432 433
f 403 433 422
f 432 434 435
f 432 435 433
f 436 435 437
f 438 436 437
f 439 410 388
f 440 439 388
f 441 440 388
f 442 441 388
f 443 444 111
f 443 445 444
f 443 446 445
f 447 417 448
f 449 447 448
f 450 449 448
f 120 450 448
f 451 452 453
f 454 451 453
f 455 454 453
f 456 455 453
f 457 456 458
f 459 457 458
f 460 459 458
f 461 460 458
f 462 463 464
f 465 462 464
f 466 465 464
f 467 466 464
f 464 440 441
f 467 464 441
f 440 453 468
f 440 464 463
f 453 440 463
f 463 469 456
f 453 463 456
f 470 443 456
f 469 470 456
f 448 458 456
f 443 448 456
f 120 448 443
f 111 120 443
f 448 417 419
f 458 448 419
f 429 458 419
f 381 429 419
f 458 429 461
f 444 471 141
f 444 141 111
f 445 472 471
f 445 471 444
f 446 473 472
f 446 472 445
f 474 475 476
f 474 476 477
f 151 150 478
f 151 478 479
f 479 478 480
f 479 480 481
f 481 480 482
f 481 482 483
f 150 141 471
f 150 471 478
f 478 471 472
f 478 472 480
f 480 472 473
f 480 473 482
f 484 485 486
f 487 488 486
f 485 487 486
f 486 488 469
f 394 62 489
f 396 394 489
f 490 404 406
f 490 406 491
f 342 341 346
f 344 342 346
f 348 346 352
f 350 348 352
f 354 352 358
f 356 354 358
f 360 358 26
f 362 360 26
f 400 404 492
f 493 400 492
f 489 62 26
f 358 489 26
f 375 377 489
f 358 375 489
f 358 494 384
f 382 358 384
f 358 379 375
f 380 379 358
f 382 380 358
f 352 494 358
f 386 384 494
f 495 496 346
f 341 495 346
f 496 494 352
f 346 496 352
f 391 387 495
f 341 391 495
f 341 392 391
f 495 387 389
f 497 498 499
f 500 497 499
f 500 499 501
f 502 500 501
f 502 501 503
f 504 502 503
f 504 503 505
f 506 504 505
f 506 505 507
f 508 506 507
f 508 507 509
f 510 508 509
f 510 509 511
f 512 510 511
f 512 511 513
f 514 512 513
f 514 513 515
f 516 514 515
f 516 515 517
f 518 516 517
f 518 517 519
f 520 518 519
f 520 519 194
f 195 520 194
f 521 522 499
f 521 499 498
f 522 523 501
f 522 501 499
f 523 524 503
f 523 503 501
f 524 525 505
f 524 505 503
f 525 526 507
f 525 507 505
f 526 527 509
f 526 509 507
f 527 528 511
f 527 511 509
f 528 529 513
f 528 513 511
f 529 530 515
f 529 515 513
f 530 531 517
f 530 517 515
f 531 532 519
f 531 519 517
f 532 208 194
f 532 194 519
f 533 534 535
f 535 534 536
f 535 536 537
f 538 537 536
f 538 536 539
f 540 538 539
f 540 539 541
f 542 543 540
f 542 540 541
f 543 542 544
f 545 546 547
f 547 546 548
f 547 548 549
f 550 549 548
f 550 548 551
f 230 552 553
f 231 230 553
f 552 554 555
f 553 552 555
f 556 534 533
f 557 558 559
f 557 559 560
f 558 561 562
f 558 562 559
f 561 563 564
f 561 564 562
f 563 565 566
f 563 566 564
f 567 544 542
f 568 546 545
f 569 570 230
f 249 569 230
f 571 554 570
f 569 571 570
f 572 573 574
f 572 574 575
f 534 556 576
f 534 576 577
f 534 577 539
f 534 539 536
f 562 578 579
f 562 579 580
f 578 581 582
f 578 582 579
f 583 582 584
f 585 583 584
f 586 587 567
f 586 567 542
f 588 589 586
f 588 586 542
f 590 591 562
f 580 590 562
f 592 593 591
f 590 592 591
f 594 592 595
f 594 595 596
f 546 568 597
f 546 597 598
f 546 598 599
f 546 599 600
f 282 601 602
f 601 603 602
f 603 604 602
f 605 575 606
f 605 606 607
f 605 607 608
f 605 608 289
f 609 610 611
f 609 611 612
f 609 612 613
f 609 613 614
f 615 614 616
f 615 616 617
f 615 617 618
f 615 618 619
f 620 621 622
f 620 622 623
f 620 623 624
f 620 624 625
f 599 598 620
f 599 620 625
f 626 609 598
f 621 620 598
f 621 598 609
f 614 627 621
f 614 621 609
f 614 602 628
f 614 628 627
f 614 615 605
f 614 605 602
f 602 605 289
f 602 289 282
f 577 575 605
f 577 605 615
f 577 615 586
f 577 586 539
f 619 586 615
f 311 629 601
f 282 311 601
f 629 630 603
f 601 629 603
f 630 631 604
f 603 630 604
f 632 633 634
f 635 632 634
f 636 319 318
f 637 636 318
f 638 636 637
f 639 638 637
f 640 638 639
f 641 640 639
f 629 311 319
f 636 629 319
f 630 629 636
f 638 630 636
f 631 630 638
f 640 631 638
f 642 643 644
f 642 645 646
f 642 646 643
f 627 645 642
f 647 231 553
f 647 553 555
f 563 561 648
f 649 563 648
f 504 497 500
f 504 500 502
f 510 504 506
f 510 506 508
f 516 510 512
f 516 512 514
f 195 516 518
f 195 518 520
f 650 561 558
f 650 558 651
f 195 231 647
f 195 647 516
f 647 533 535
f 647 535 516
f 543 652 516
f 543 516 540
f 535 537 516
f 516 537 538
f 516 538 540
f 516 652 510
f 652 543 544
f 504 653 654
f 504 654 497
f 510 652 653
f 510 653 504
f 654 547 549
f 654 549 497
f 549 550 497
f 545 547 654
f 655 2 1
f 655 1 656
f 657 655 656
f 657 656 658
f 659 657 658
f 659 658 660
f 661 659 660
f 661 660 662
f 663 661 662
f 663 662 664
f 665 663 664
f 665 664 666
f 667 665 666
f 667 666 668
f 669 667 668
f 669 668 670
f 671 669 670
f 671 670 672
f 673 671 672
f 673 672 674
f 675 673 674
f 675 674 676
f 677 675 676
f 677 676 678
f 655 679 27
f 2 655 27
f 657 680 679
f 655 657 679
f 659 681 680
f 657 659 680
f 661 682 681
f 659 661 681
f 663 683 682
f 661 663 682
f 665 684 683
f 663 665 683
f 667 685 684
f 665 667 684
f 669 686 685
f 667 669 685
f 671 687 686
f 669 671 686
f 673 688 687
f 671 673 687
f 675 689 688
f 673 675 688
f 677 690 689
f 675 677 689
f 691 692 693
f 694 692 691
f 695 694 691
f 694 695 696
f 697 694 696
f 697 696 698
f 699 697 698
f 698 700 701
f 699 698 701
f 702 701 700
f 703 704 705
f 706 704 703
f 707 706 703
f 706 707 57
f 58 706 57
f 708 709 710
f 708 710 711
f 712 713 709
f 712 709 708
f 693 692 714
f 715 716 717
f 718 715 717
f 719 720 716
f 715 719 716
f 721 722 720
f 719 721 720
f 723 724 722
f 721 723 722
f 701 702 725
f 705 704 726
f 710 727 728
f 710 728 729
f 727 713 730
f 727 730 728
f 731 732 733
f 734 731 733
f 735 714 692
f 736 735 692
f 697 736 692
f 694 697 692
f 737 738 719
f 739 737 719
f 740 741 738
f 737 740 738
f 742 740 743
f 742 743 744
f 725 745 746
f 701 725 746
f 746 747 748
f 701 746 748
f 719 749 750
f 719 750 739
f 749 751 752
f 749 752 750
f 753 752 754
f 755 753 754
f 756 726 704
f 757 756 704
f 109 757 704
f 758 109 704
f 759 760 761
f 759 762 760
f 759 763 762
f 764 734 765
f 766 764 765
f 767 766 765
f 768 767 765
f 769 770 771
f 772 769 771
f 773 772 771
f 774 773 771
f 775 774 776
f 777 775 776
f 778 777 776
f 779 778 776
f 780 781 782
f 783 780 782
f 784 783 782
f 137 784 782
f 782 757 109
f 137 782 109
f 757 771 785
f 757 782 781
f 771 757 781
f 781 786 774
f 771 781 774
f 787 759 774
f 786 787 774
f 765 776 774
f 759 765 774
f 768 765 759
f 761 768 759
f 765 734 736
f 776 765 736
f 746 776 736
f 697 746 736
f 776 746 779
f 760 788 789
f 760 789 761
f 762 790 788
f 762 788 760
f 763 791 790
f 763 790 762
f 792 793 794
f 792 794 795
f 796 797 798
f 796 798 799
f 799 798 800
f 799 800 801
f 801 800 802
f 801 802 803
f 797 789 788
f 797 788 798
f 798 788 790
f 798 790 800
f 800 790 791
f 800 791 802
f 804 805 806
f 807 808 806
f 805 807 806
f 806 808 786
f 708 711 809
f 712 708 809
f 810 720 722
f 810 722 811
f 656 1 660
f 658 656 660
f 662 660 666
f 664 662 666
f 668 666 672
f 670 668 672
f 674 672 678
f 676 674 678
f 716 720 812
f 813 716 812
f 809 711 678
f 672 809 678
f 691 693 809
f 672 691 809
f 672 814 700
f 698 672 700
f 672 695 691
f 696 695 672
f 698 696 672
f 666 814 672
f 702 700 814
f 815 816 660
f 1 815 660
f 816 814 666
f 660 816 666
f 707 703 815
f 1 707 815
f 1 57 707
f 815 703 705
f 172 171 817
f 818 172 817
f 818 817 819
f 820 818 819
f 820 819 821
f 822 820 821
f 822 821 823
f 824 822 823
f 824 823 825
f 826 824 825
f 826 825 827
f 828 826 827
f 828 827 829
f 830 828 829
f 830 829 831
f 832 830 831
f 832 831 833
f 834 832 833
f 834 833 835
f 836 834 835
f 836 835 837
f 838 836 837
f 838 837 839
f 840 838 839
f 197 841 817
f 197 817 171
f 841 842 819
f 841 819 817
f 842 843 821
f 842 821 819
f 843 844 823
f 843 823 821
f 844 845 825
f 844 825 823
f 845 846 827
f 845 827 825
f 846 847 829
f 846 829 827
f 847 848 831
f 847 831 829
f 848 849 833
f 848 833 831
f 849 850 835
f 849 835 833
f 850 851 837
f 850 837 835
f 851 852 839
f 851 839 837
f 853 854 855
f 855 854 856
f 855 856 857
f 858 857 856
f 858 856 859
f 860 858 859
f 860 859 861
f 862 863 860
f 862 860 861
f 863 862 864
f 865 866 867
f 867 866 868
f 867 868 869
f 226 869 868
f 226 868 227
f 870 871 872
f 873 870 872
f 871 874 875
f 872 871 875
f 876 854 853
f 877 878 879
f 877 879 880
f 878 881 882
f 878 882 879
f 881 883 884
f 881 884 882
f 883 885 886
f 883 886 884
f 887 864 862
f 888 866 865
f 889 890 870
f 891 889 870
f 892 874 890
f 889 892 890
f 893 894 895
f 893 895 896
f 854 876 897
f 854 897 898
f 854 898 859
f 854 859 856
f 882 899 900
f 882 900 901
f 899 902 903
f 899 903 900
f 904 903 905
f 906 904 905
f 907 908 887
f 907 887 862
f 909 910 907
f 909 907 862
f 911 912 882
f 901 911 882
f 913 914 912
f 911 913 912
f 915 913 916
f 915 916 917
f 866 888 918
f 866 918 919
f 866 919 278
f 866 278 920
f 921 922 923
f 922 924 923
f 924 925 923
f 926 896 927
f 926 927 928
f 926 928 929
f 926 929 930
f 931 932 933
f 931 933 934
f 931 934 935
f 931 935 936
f 937 936 938
f 937 938 939
f 937 939 940
f 937 940 941
f 942 943 944
f 942 944 945
f 942 945 946
f 942 946 306
f 278 919 942
f 278 942 306
f 947 931 919
f 943 942 919
f 943 919 931
f 936 948 943
f 936 943 931
f 936 923 949
f 936 949 948
f 936 937 926
f 936 926 923
f 923 926 930
f 923 930 921
f 898 896 926
f 898 926 937
f 898 937 907
f 898 907 859
f 941 907 937
f 950 951 922
f 921 950 922
f 951 952 924
f 922 951 924
f 952 953 925
f 924 952 925
f 954 955 956
f 957 954 956
f 958 959 960
f 961 958 960
f 962 958 961
f 963 962 961
f 964 962 963
f 965 964 963
f 951 950 959
f 958 951 959
f 952 951 958
f 962 952 958
f 953 952 962
f 964 953 962
f 966 967 968
f 966 969 970
f 966 970 967
f 948 969 966
f 971 873 872
f 971 872 875
f 883 881 972
f 973 883 972
f 822 172 818
f 822 818 820
f 828 822 824
f 828 824 826
f 834 828 830
f 834 830 832
f 840 834 836
f 840 836 838
f 974 881 878
f 974 878 975
f 840 873 971
f 840 971 834
f 971 853 855
f 971 855 834
f 863 976 834
f 863 834 860
f 855 857 834
f 834 857 858
f 834 858 860
f 834 976 828
f 976 863 864
f 822 977 978
f 822 978 172
f 828 976 977
f 828 977 822
f 978 867 869
f 978 869 172
f 869 226 172
f 865 867 978
f 341 340 979
f 980 341 979
f 980 979 981
f 982 980 981
f 982 981 983
f 984 982 983
f 984 983 985
f 986 984 985
f 986 985 987
f 988 986 987
f 988 987 989
f 990 988 989
f 990 989 991
f 992 990 991
f 992 991 993
f 994 992 993
f 994 993 995
f 996 994 995
f 996 995 997
f 998 996 997
f 998 997 999
f 1000 998 999
f 1000 999 677
f 678 1000 677
f 364 1001 979
f 364 979 340
f 1001 1002 981
f 1001 981 979
f 1002 1003 983
f 1002 983 981
f 1003 1004 985
f 1003 985 983
f 1004 1005 987
f 1004 987 985
f 1005 1006 989
f 1005 989 987
f 1006 1007 991
f 1006 991 989
f 1007 1008 993
f 1007 993 991
f 1008 1009 995
f 1008 995 993
f 1009 1010 997
f 1009 997 995
f 1010 1011 999
f 1010 999 997
f 1011 690 677
f 1011 677 999
f 1012 1013 1014
f 1014 1013 1015
f 1014 1015 1016
f 1017 1016 1015
f 1017 1015 1018
f 1019 1017 1018
f 1019 1018 1020
f 1021 1022 1019
f 1021 1019 1020
f 1022 1021 1023
f 1024 1025 1026
f 1026 1025 1027
f 1026 1027 1028
f 392 1028 1027
f 392 1027 393
f 710 1029 1030
f 711 710 1030
f 1029 1031 1032
f 1030 1029 1032
f 1033 1013 1012
f 1034 1035 1036
f 1034 1036 1037
f 1035 1038 1039
f 1035 1039 1036
f 1038 1040 1041
f 1038 1041 1039
f 1040 1042 1043
f 1040 1043 1041
f 1044 1023 1021
f 1045 1025 1024
f 1046 1047 710
f 729 1046 710
f 1048 1031 1047
f 1046 1048 1047
f 1049 1050 1051
f 1049 1051 1052
f 1013 1033 1053
f 1013 1053 1054
f 1013 1054 1018
f 1013 1018 1015
f 1039 1055 1056
f 1039 1056 1057
f 1055 1058 1059
f 1055 1059 1056
f 1060 1059 1061
f 1062 1060 1061
f 1063 1064 1044
f 1063 1044 1021
f 1065 1066 1063
f 1065 1063 1021
f 1067 1068 1039
f 1057 1067 1039
f 1069 1070 1068
f 1067 1069 1068
f 1071 1069 1072
f 1071 1072 1073
f 1025 1045 1074
f 1025 1074 1075
f 1025 1075 441
f 1025 441 1076
f 761 1077 1078
f 1077 1079 1078
f 1079 1080 1078
f 1081 1052 1082
f 1081 1082 1083
f 1081 1083 1084
f 1081 1084 768
f 1085 1086 1087
f 1085 1087 1088
f 1085 1088 1089
f 1085 1089 1090
f 1091 1090 1092
f 1091 1092 1093
f 1091 1093 1094
f 1091 1094 1095
f 1096 1097 1098
f 1096 1098 1099
f 1096 1099 1100
f 1096 1100 467
f 441 1075 1096
f 441 1096 467
f 1101 1085 1075
f 1097 1096 1075
f 1097 1075 1085
f 1090 1102 1097
f 1090 1097 1085
f 1090 1078 1103
f 1090 1103 1102
f 1090 1091 1081
f 1090 1081 1078
f 1078 1081 768
f 1078 768 761
f 1054 1052 1081
f 1054 1081 1091
f 1054 1091 1063
f 1054 1063 1018
f 1095 1063 1091
f 789 1104 1077
f 761 789 1077
f 1104 1105 1079
f 1077 1104 1079
f 1105 1106 1080
f 1079 1105 1080
f 1107 1108 1109
f 1110 1107 1109
f 1111 797 796
f 1112 1111 796
f 1113 1111 1112
f 1114 1113 1112
f 1115 1113 1114
f 1116 1115 1114
f 1104 789 797
f 1111 1104 797
f 1105 1104 1111
f 1113 1105 1111
f 1106 1105 1113
f 1115 1106 1113
f 1117 1118 1119
f 1117 1120 1121
f 1117 1121 1118
f 1102 1120 1117
f 1122 711 1030
f 1122 1030 1032
f 1040 1038 1123
f 1124 1040 1123
f 984 341 980
f 984 980 982
f 990 984 986
f 990 986 988
f 996 990 992
f 996 992 994
f 678 996 998
f 678 998 1000
f 1125 1038 1035
f 1125 1035 1126
f 678 711 1122
f 678 1122 996
f 1122 1012 1014
f 1122 1014 996
f 1022 1127 996
f 1022 996 1019
f 1014 1016 996
f 996 1016 1017
f 996 1017 1019
f 996 1127 990
f 1127 1022 1023
f 984 1128 1129
f 984 1129 341
f 990 1127 1128
f 990 1128 984
f 1129 1026 1028
f 1129 1028 341
f 1028 392 341
f 1024 1026 1129
f 1130 498 497
f 1130 497 1131
f 1132 1130 1131
f 1132 1131 1133
f 1134 1132 1133
f 1134 1133 1135
f 1136 1134 1135
f 1136 1135 1137
f 1138 1136 1137
f 1138 1137 1139
f 1140 1138 1139
f 1140 1139 1141
f 1142 1140 1141
f 1142 1141 1143
f 1144 1142 1143
f 1144 1143 1145
f 1146 1144 1145
f 1146 1145 1147
f 1148 1146 1147
f 1148 1147 1149
f 1150 1148 1149
f 1150 1149 1151
f 839 1150 1151
f 839 1151 840
f 1130 1152 521
f 498 1130 521
f 1132 1153 1152
f 1130 1132 1152
f 1134 1154 1153
f 1132 1134 1153
f 1136 1155 1154
f 1134 1136 1154
f 1138 1156 1155
f 1136 1138 1155
f 1140 1157 1156
f 1138 1140 1156
f 1142 1158 1157
f 1140 1142 1157
f 1144 1159 1158
f 1142 1144 1158
f 1146 1160 1159
f 1144 1146 1159
f 1148 1161 1160
f 1146 1148 1160
f 1150 1162 1161
f 1148 1150 1161
f 839 852 1162
f 1150 839 1162
f 1163 1164 1165
f 1166 1164 1163
f 1167 1166 1163
f 1166 1167 1168
f 1169 1166 1168
f 1169 1168 1170
f 1171 1169 1170
f 1170 1172 1173
f 1171 1170 1173
f 1174 1173 1172
f 1175 1176 1177
f 1178 1176 1175
f 1179 1178 1175
f 1178 1179 550
f 551 1178 550
f 1180 1181 870
f 1180 870 873
f 1182 1183 1181
f 1182 1181 1180
f 1165 1164 1184
f 1185 1186 1187
f 1188 1185 1187
f 1189 1190 1186
f 1185 1189 1186
f 1191 1192 1190
f 1189 1191 1190
f 1193 1194 1192
f 1191 1193 1192
f 1173 1174 1195
f 1177 1176 1196
f 870 1197 1198
f 870 1198 891
f 1197 1183 1199
f 1197 1199 1198
f 1200 1201 1202
f 1203 1200 1202
f 1204 1184 1164
f 1205 1204 1164
f 1169 1205 1164
f 1166 1169 1164
f 1206 1207 1189
f 1208 1206 1189
f 1209 1210 1207
f 1206 1209 1207
f 1211 1209 1212
f 1211 1212 1213
f 1195 1214 1215
f 1173 1195 1215
f 1215 1216 1217
f 1173 1215 1217
f 1189 1218 1219
f 1189 1219 1208
f 1218 1220 1221
f 1218 1221 1219
f 1222 1221 1223
f 1224 1222 1223
f 1225 1196 1176
f 1226 1225 1176
f 599 1226 1176
f 1227 599 1176
f 1228 1229 921
f 1228 1230 1229
f 1228 1231 1230
f 1232 1203 1233
f 1234 1232 1233
f 1235 1234 1233
f 930 1235 1233
f 1236 1237 1238
f 1239 1236 1238
f 1240 1239 1238
f 1241 1240 1238
f 1242 1241 1243
f 1244 1242 1243
f 1245 1244 1243
f 1246 1245 1243
f 1247 1248 1249
f 1250 1247 1249
f 1251 1250 1249
f 625 1251 1249
f 1249 1226 599
f 625 1249 599
f 1226 1238 1252
f 1226 1249 1248
f 1238 1226 1248
f 1248 1253 1241
f 1238 1248 1241
f 1254 1228 1241
f 1253 1254 1241
f 1233 1243 1241
f 1228 1233 1241
f 930 1233 1228
f 921 930 1228
f 1233 1203 1205
f 1243 1233 1205
f 1215 1243 1205
f 1169 1215 1205
f 1243 1215 1246
f 1229 1255 950
f 1229 950 921
f 1230 1256 1255
f 1230 1255 1229
f 1231 1257 1256
f 1231 1256 1230
f 1258 1259 1260
f 1258 1260 1261
f 960 959 1262
f 960 1262 1263
f 1263 1262 1264
f 1263 1264 1265
f 1265 1264 1266
f 1265 1266 1267
f 959 950 1255
f 959 1255 1262
f 1262 1255 1256
f 1262 1256 1264
f 1264 1256 1257
f 1264 1257 1266
f 1268 1269 1270
f 1271 1272 1270
f 1269 1271 1270
f 1270 1272 1253
f 1180 873 1273
f 1182 1180 1273
f 1274 1190 1192
f 1274 1192 1275
f 1131 497 1135
f 1133 1131 1135
f 1137 1135 1141
f 1139 1137 1141
f 1143 1141 1147
f 1145 1143 1147
f 1149 1147 840
f 1151 1149 840
f 1186 1190 1276
f 1277 1186 1276
f 1273 873 840
f 1147 1273 840
f 1163 1165 1273
f 1147 1163 1273
f 1147 1278 1172
f 1170 1147 1172
f 1147 1167 1163
f 1168 1167 1147
f 1170 1168 1147
f 1141 1278 1147
f 1174 1172 1278
f 1279 1280 1135
f 497 1279 1135
f 1280 1278 1141
f 1135 1280 1141
f 1179 1175 1279
f 497 1179 1279
f 497 550 1179
f 1279 1175 1177
f 28 27 197
f 28 197 196
f 29 28 196
f 29 196 198
f 30 29 198
f 30 198 199
f 31 30 199
f 31 199 200
f 32 31 200
f 32 200 201
f 33 32 201
f 33 201 202
f 34 33 202
f 34 202 203
f 35 34 203
f 35 203 204
f 36 35 204
f 36 204 205
f 37 36 205
f 37 205 206
f 38 37 206
f 38 206 207
f 39 38 207
f 39 207 208
f 374 39 208
f 374 208 532
f 373 374 532
f 373 532 531
f 372 373 531
f 372 531 530
f 371 372 530
f 371 530 529
f 370 371 529
f 370 529 528
f 369 370 528
f 369 528 527
f 368 369 527
f 368 527 526
f 367 368 526
f 367 526 525
f 366 367 525
f 366 525 524
f 365 366 524
f 365 524 523
f 363 365 523
f 363 523 522
f 364 363 522
f 364 522 521
f 1001 364 521
f 1001 521 1152
f 1002 1001 1152
f 1002 1152 1153
f 1003 1002 1153
f 1003 1153 1154
f 1004 1003 1154
f 1004 1154 1155
f 1005 1004 1155
f 1005 1155 1156
f 1006 1005 1156
f 1006 1156 1157
f 1007 1006 1157
f 1007 1157 1158
f 1008 1007 1158
f 1008 1158 1159
f 1009 1008 1159
f 1009 1159 1160
f 1010 1009 1160
f 1010 1160 1161
f 1011 1010 1161
f 1011 1161 1162
f 690 1011 1162
f 690 1162 852
f 689 690 852
f 689 852 851
f 688 689 851
f 688 851 850
f 687 688 850
f 687 850 849
f 686 687 849
f 686 849 848
f 685 686 848
f 685 848 847
f 684 685 847
f 684 847 846
f 683 684 846
f 683 846 845
f 682 683 845
f 682 845 844
f 681 682 844
f 681 844 843
f 680 681 843
f 680 843 842
f 679 680 842
f 679 842 841
f 27 679 841
f 27 841 197
f 139 1281 1282
f 139 1282 308
f 139 308 302
f 139 302 133
f 948 1283 1284
f 948 1284 786
f 943 948 786
f 781 943 786
f 627 1285 1286
f 627 1286 469
f 463 621 627
f 463 627 469
f 1102 1287 1288
f 1102 1288 1253
f 1253 1248 1097
f 1102 1253 1097
f 1289 1282 1281
f 1289 1281 1290
f 1283 1291 1292
f 1283 1292 1284
f 1286 1285 1293
f 1294 1286 1293
f 1295 1296 1288
f 1287 1295 1288
f 1297 1298 1299
f 1300 1301 1302
f 1303 1304 1305
f 1306 1307 1308
f 1297 1299 1309
f 1309 1310 1311
f 1309 1311 1297
f 1312 1309 1299
f 1312 1299 1313
f 1314 1300 1302
f 1314 1315 1316
f 1314 1316 1300
f 1317 1318 1314
f 1317 1314 1302
f 1319 1320 1303
f 1319 1303 1321
f 1303 1305 1321
f 1305 1322 1323
f 1305 1323 1321
f 1306 1308 1324
f 1325 1306 1324
f 1325 1324 1326
f 1327 1324 1308
f 1327 1308 1328
f 1329 1330 1331
f 1332 1333 1334
f 1335 1336 1337
f 1338 1339 1340
f 1329 1331 1341
f 1341 1342 1343
f 1341 1343 1329
f 1344 1341 1331
f 1344 1331 1345
f 1346 1332 1334
f 1346 1347 1348
f 1346 1348 1332
f 1349 1350 1346
f 1349 1346 1334
f 1351 1352 1335
f 1351 1335 1353
f 1335 1337 1353
f 1337 1354 1355
f 1337 1355 1353
f 1338 1340 1356
f 1357 1338 1356
f 1357 1356 1358
f 1359 1356 1340
f 1359 1340 1360
f 1360 960 796
f 1360 796 1311
f 151 318 1352
f 1317 151 1352
f 1349 318 151
f 1349 151 1320
f 796 960 1343
f 1328 796 1343
f 1359 1360 1311
f 1359 1311 1310
f 1359 1310 1309
f 1359 1309 1356
f 1356 1309 1312
f 1356 1312 1358
f 1358 1312 1313
f 1358 1313 1357
f 1355 1354 1316
f 1355 1316 1315
f 1355 1315 1314
f 1355 1314 1353
f 1353 1314 1318
f 1353 1318 1351
f 1351 1318 1317
f 1351 1317 1352
f 1349 1320 1319
f 1349 1319 1350
f 1350 1319 1321
f 1350 1321 1346
f 1346 1321 1323
f 1346 1323 1347
f 1347 1323 1322
f 1347 1322 1348
f 1345 1325 1326
f 1345 1326 1344
f 1344 1326 1324
f 1344 1324 1341
f 1341 1324 1327
f 1341 1327 1342
f 1342 1327 1328
f 1342 1328 1343
f 254 285 117
f 254 117 85
f 285 287 118
f 285 118 117
f 287 288 119
f 287 119 118
f 288 289 120
f 288 120 119
f 289 608 450
f 289 450 120
f 608 607 449
f 608 449 450
f 607 606 447
f 607 447 449
f 606 575 417
f 606 417 447
f 575 1361 1362
f 575 1362 417
f 1361 571 413
f 1361 413 1362
f 571 1363 1364
f 571 1364 413
f 1363 249 80
f 1363 80 1364
f 249 1365 1366
f 249 1366 80
f 1365 250 81
f 1365 81 1366
f 250 1367 1368
f 250 1368 81
f 1367 254 85
f 1367 85 1368
f 291 290 123
f 291 123 122
f 290 293 124
f 290 124 123
f 293 294 125
f 293 125 124
f 294 295 126
f 294 126 125
f 295 296 128
f 295 128 126
f 296 298 129
f 296 129 128
f 298 299 130
f 298 130 129
f 299 300 131
f 299 131 130
f 300 1369 1370
f 300 1370 131
f 1369 1371 1372
f 1369 1372 1370
f 1371 1373 1374
f 1371 1374 1372
f 1373 1375 1376
f 1373 1376 1374
f 1375 1377 1378
f 1375 1378 1376
f 1377 1379 1380
f 1377 1380 1378
f 1379 1381 1382
f 1379 1382 1380
f 1381 291 122
f 1381 122 1382
f 769 933 932
f 770 769 932
f 772 934 933
f 769 772 933
f 773 935 934
f 772 773 934
f 774 936 935
f 773 774 935
f 775 938 936
f 774 775 936
f 777 939 938
f 775 777 938
f 778 940 939
f 777 778 939
f 779 941 940
f 778 779 940
f 1383 1384 941
f 779 1383 941
f 1385 1386 1384
f 1383 1385 1384
f 1387 1388 1386
f 1385 1387 1386
f 1389 1390 1388
f 1387 1389 1388
f 1391 1392 1390
f 1389 1391 1390
f 1393 1394 1392
f 1391 1393 1392
f 1395 1396 1394
f 1393 1395 1394
f 770 932 1396
f 1395 770 1396
f 896 1397 1398
f 896 1398 734
f 1397 892 730
f 1397 730 1398
f 892 1399 1400
f 892 1400 730
f 1399 891 729
f 1399 729 1400
f 891 1401 1402
f 891 1402 729
f 1401 1199 1048
f 1401 1048 1402
f 1199 1403 1404
f 1199 1404 1048
f 1403 1203 1052
f 1403 1052 1404
f 1203 1232 1082
f 1203 1082 1052
f 1232 1234 1083
f 1232 1083 1082
f 1234 1235 1084
f 1234 1084 1083
f 1235 930 768
f 1235 768 1084
f 930 929 767
f 930 767 768
f 929 928 766
f 929 766 767
f 928 927 764
f 928 764 766
f 927 896 734
f 927 734 764
f 1405 1406 619
f 461 1405 619
f 1407 1408 1406
f 1405 1407 1406
f 1409 1410 1408
f 1407 1409 1408
f 1411 1412 1410
f 1409 1411 1410
f 1413 1414 1412
f 1411 1413 1412
f 1415 1416 1414
f 1413 1415 1414
f 1417 1418 1416
f 1415 1417 1416
f 452 610 1418
f 1417 452 1418
f 451 611 610
f 452 451 610
f 454 612 611
f 451 454 611
f 455 613 612
f 454 455 612
f 456 614 613
f 455 456 613
f 457 616 614
f 456 457 614
f 459 617 616
f 457 459 616
f 460 618 617
f 459 460 617
f 461 619 618
f 460 461 618
f 1246 1419 1420
f 1246 1420 1095
f 1419 1421 1422
f 1419 1422 1420
f 1421 1423 1424
f 1421 1424 1422
f 1423 1425 1426
f 1423 1426 1424
f 1425 1427 1428
f 1425 1428 1426
f 1427 1429 1430
f 1427 1430 1428
f 1429 1431 1432
f 1429 1432 1430
f 1431 1237 1086
f 1431 1086 1432
f 1237 1236 1087
f 1237 1087 1086
f 1236 1239 1088
f 1236 1088 1087
f 1239 1240 1089
f 1239 1089 1088
f 1240 1241 1090
f 1240 1090 1089
f 1241 1242 1092
f 1241 1092 1090
f 1242 1244 1093
f 1242 1093 1092
f 1244 1245 1094
f 1244 1094 1093
f 1245 1246 1095
f 1245 1095 1094
f 781 780 944
f 943 781 944
f 780 783 945
f 944 780 945
f 783 784 946
f 945 783 946
f 784 137 306
f 946 784 306
f 137 136 305
f 306 137 305
f 136 135 304
f 305 136 304
f 135 134 301
f 304 135 301
f 134 133 302
f 301 134 302
f 1247 1098 1097
f 1247 1097 1248
f 1250 1099 1098
f 1250 1098 1247
f 1251 1100 1099
f 1251 1099 1250
f 625 467 1100
f 625 1100 1251
f 624 466 467
f 624 467 625
f 623 465 466
f 623 466 624
f 622 462 465
f 622 465 623
f 621 463 462
f 621 462 622
