# Botball Lab: metres, +Y up, centred XZ, base Y=0
s off
v -0.0020852 0.0023734 0.0080000
v -0.0010000 0.0024898 0.0080000
v -0.0010000 0.0024898 0.0001000
v -0.0020852 0.0023734 0.0001000
v -0.0011164 0.0014046 0.0080000
v -0.0011164 0.0014046 0.0001000
v -0.0009184 0.0012726 0.0080000
v 0.0000000 0.0010898 0.0080000
v 0.0000000 0.0010898 0.0001000
v -0.0009184 0.0012726 0.0001000
v -0.0022172 0.0025714 0.0080000
v -0.0022172 0.0025714 0.0001000
v -0.0024000 0.0034898 0.0080000
v -0.0024000 0.0034898 0.0001000
v -0.0016972 0.0017926 0.0001000
v -0.0016972 0.0017926 0.0080000
v 0.0020852 0.0046062 0.0080000
v 0.0010000 0.0044898 0.0080000
v 0.0010000 0.0044898 0.0001000
v 0.0020852 0.0046062 0.0001000
v 0.0011164 0.0055750 0.0080000
v 0.0011164 0.0055750 0.0001000
v 0.0009184 0.0057070 0.0080000
v 0.0000000 0.0058898 0.0080000
v 0.0000000 0.0058898 0.0001000
v 0.0009184 0.0057070 0.0001000
v 0.0022172 0.0044082 0.0080000
v 0.0022172 0.0044082 0.0001000
v 0.0024000 0.0034898 0.0080000
v 0.0024000 0.0034898 0.0001000
v 0.0016972 0.0051870 0.0001000
v 0.0016972 0.0051870 0.0080000
v -0.0022408 0.0042898 0.0080000
v -0.0022408 0.0042898 0.0001000
v -0.0016000 0.0042898 0.0080000
v -0.0016000 0.0042898 0.0001000
v -0.0010000 0.0044898 0.0080000
v -0.0010000 0.0044898 0.0001000
v -0.0008000 0.0050898 0.0080000
v -0.0008000 0.0050898 0.0001000
v -0.0008000 0.0057306 0.0080000
v -0.0008000 0.0057306 0.0001000
v -0.0022172 0.0044082 0.0001000
v -0.0016972 0.0051870 0.0001000
v -0.0009184 0.0057070 0.0001000
v -0.0016972 0.0051870 0.0080000
v -0.0022172 0.0044082 0.0080000
v -0.0009184 0.0057070 0.0080000
v 0.0022408 0.0026898 0.0080000
v 0.0022408 0.0026898 0.0001000
v 0.0016000 0.0026898 0.0001000
v 0.0016000 0.0026898 0.0080000
v 0.0010000 0.0024898 0.0080000
v 0.0010000 0.0024898 0.0001000
v 0.0008000 0.0018898 0.0080000
v 0.0008000 0.0018898 0.0001000
v 0.0008000 0.0012490 0.0080000
v 0.0008000 0.0012490 0.0001000
v 0.0022172 0.0025714 0.0001000
v 0.0016972 0.0017926 0.0001000
v 0.0009184 0.0012726 0.0001000
v 0.0016972 0.0017926 0.0080000
v 0.0022172 0.0025714 0.0080000
v 0.0009184 0.0012726 0.0080000
v 0.0008658 0.0013995 0.0001000
v 0.0004329 0.0024446 0.0001000
v 0.0000000 0.0023586 0.0001000
v 0.0000000 0.0012274 0.0001000
v 0.0015997 0.0018900 0.0001000
v 0.0007999 0.0026899 0.0001000
v 0.0020902 0.0026239 0.0001000
v 0.0010451 0.0030568 0.0001000
v 0.0022624 0.0034898 0.0001000
v 0.0011312 0.0034898 0.0001000
v 0.0020902 0.0043556 0.0001000
v 0.0010451 0.0039227 0.0001000
v 0.0015997 0.0050895 0.0001000
v 0.0007999 0.0042896 0.0001000
v 0.0008658 0.0055800 0.0001000
v 0.0004329 0.0045349 0.0001000
v 0.0000000 0.0057522 0.0001000
v 0.0000000 0.0046210 0.0001000
v -0.0008658 0.0055800 0.0001000
v -0.0004329 0.0045349 0.0001000
v -0.0015997 0.0050895 0.0001000
v -0.0007999 0.0042896 0.0001000
v -0.0020902 0.0043556 0.0001000
v -0.0010451 0.0039227 0.0001000
v -0.0022624 0.0034898 0.0001000
v -0.0011312 0.0034898 0.0001000
v -0.0020902 0.0026239 0.0001000
v -0.0010451 0.0030568 0.0001000
v -0.0015997 0.0018900 0.0001000
v -0.0007999 0.0026899 0.0001000
v -0.0008658 0.0013995 0.0001000
v -0.0004329 0.0024446 0.0001000
v -0.0025452 0.0034898 0.0001000
v -0.0023515 0.0025157 0.0001000
v -0.0017997 0.0016900 0.0001000
v -0.0009740 0.0011382 0.0001000
v 0.0000000 0.0009446 0.0001000
v 0.0009740 0.0011382 0.0001000
v 0.0017997 0.0016900 0.0001000
v 0.0023515 0.0025157 0.0001000
v 0.0025452 0.0034898 0.0001000
v 0.0023515 0.0044638 0.0001000
v 0.0017997 0.0052895 0.0001000
v 0.0009740 0.0058413 0.0001000
v 0.0000000 0.0060350 0.0001000
v -0.0009740 0.0058413 0.0001000
v -0.0017997 0.0052895 0.0001000
v -0.0023515 0.0044638 0.0001000
v -0.0008658 0.0013995 -0.0001000
v -0.0004329 0.0024446 -0.0001000
v 0.0000000 0.0023586 -0.0001000
v 0.0000000 0.0012274 -0.0001000
v -0.0015997 0.0018900 -0.0001000
v -0.0007999 0.0026899 -0.0001000
v -0.0020902 0.0026239 -0.0001000
v -0.0010451 0.0030568 -0.0001000
v -0.0022624 0.0034898 -0.0001000
v -0.0011312 0.0034898 -0.0001000
v -0.0020902 0.0043556 -0.0001000
v -0.0010451 0.0039227 -0.0001000
v -0.0015997 0.0050895 -0.0001000
v -0.0007999 0.0042896 -0.0001000
v -0.0008658 0.0055800 -0.0001000
v -0.0004329 0.0045349 -0.0001000
v 0.0000000 0.0057522 -0.0001000
v 0.0000000 0.0046210 -0.0001000
v 0.0008658 0.0055800 -0.0001000
v 0.0004329 0.0045349 -0.0001000
v 0.0015997 0.0050895 -0.0001000
v 0.0007999 0.0042896 -0.0001000
v 0.0020902 0.0043556 -0.0001000
v 0.0010451 0.0039227 -0.0001000
v 0.0022624 0.0034898 -0.0001000
v 0.0011312 0.0034898 -0.0001000
v 0.0020902 0.0026239 -0.0001000
v 0.0010451 0.0030568 -0.0001000
v 0.0015997 0.0018900 -0.0001000
v 0.0007999 0.0026899 -0.0001000
v 0.0008658 0.0013995 -0.0001000
v 0.0004329 0.0024446 -0.0001000
v 0.0025452 0.0034898 -0.0001000
v 0.0023515 0.0025157 -0.0001000
v 0.0017997 0.0016900 -0.0001000
v 0.0009740 0.0011382 -0.0001000
v 0.0000000 0.0009446 -0.0001000
v -0.0009740 0.0011382 -0.0001000
v -0.0017997 0.0016900 -0.0001000
v -0.0023515 0.0025157 -0.0001000
v -0.0025452 0.0034898 -0.0001000
v -0.0023515 0.0044638 -0.0001000
v -0.0017997 0.0052895 -0.0001000
v -0.0009740 0.0058413 -0.0001000
v 0.0000000 0.0060350 -0.0001000
v 0.0009740 0.0058413 -0.0001000
v 0.0017997 0.0052895 -0.0001000
v 0.0023515 0.0044638 -0.0001000
v -0.0011164 0.0014046 -0.0080000
v -0.0010000 0.0024898 -0.0080000
v -0.0010000 0.0024898 -0.0001000
v -0.0011164 0.0014046 -0.0001000
v -0.0020852 0.0023734 -0.0080000
v -0.0020852 0.0023734 -0.0001000
v -0.0022172 0.0025714 -0.0080000
v -0.0024000 0.0034898 -0.0080000
v -0.0024000 0.0034898 -0.0001000
v -0.0022172 0.0025714 -0.0001000
v -0.0009184 0.0012726 -0.0080000
v -0.0009184 0.0012726 -0.0001000
v 0.0000000 0.0010898 -0.0080000
v 0.0000000 0.0010898 -0.0001000
v -0.0016972 0.0017926 -0.0001000
v -0.0016972 0.0017926 -0.0080000
v 0.0011164 0.0055750 -0.0080000
v 0.0010000 0.0044898 -0.0080000
v 0.0010000 0.0044898 -0.0001000
v 0.0011164 0.0055750 -0.0001000
v 0.0020852 0.0046062 -0.0080000
v 0.0020852 0.0046062 -0.0001000
v 0.0022172 0.0044082 -0.0080000
v 0.0024000 0.0034898 -0.0080000
v 0.0024000 0.0034898 -0.0001000
v 0.0022172 0.0044082 -0.0001000
v 0.0009184 0.0057070 -0.0080000
v 0.0009184 0.0057070 -0.0001000
v 0.0000000 0.0058898 -0.0080000
v 0.0000000 0.0058898 -0.0001000
v 0.0016972 0.0051870 -0.0001000
v 0.0016972 0.0051870 -0.0080000
v 0.0008000 0.0012490 -0.0080000
v 0.0008000 0.0012490 -0.0001000
v 0.0008000 0.0018898 -0.0080000
v 0.0008000 0.0018898 -0.0001000
v 0.0010000 0.0024898 -0.0080000
v 0.0010000 0.0024898 -0.0001000
v 0.0016000 0.0026898 -0.0080000
v 0.0016000 0.0026898 -0.0001000
v 0.0022408 0.0026898 -0.0080000
v 0.0022408 0.0026898 -0.0001000
v 0.0009184 0.0012726 -0.0001000
v 0.0016972 0.0017926 -0.0001000
v 0.0022172 0.0025714 -0.0001000
v 0.0016972 0.0017926 -0.0080000
v 0.0009184 0.0012726 -0.0080000
v 0.0022172 0.0025714 -0.0080000
v -0.0008000 0.0057306 -0.0080000
v -0.0008000 0.0057306 -0.0001000
v -0.0008000 0.0050898 -0.0001000
v -0.0008000 0.0050898 -0.0080000
v -0.0010000 0.0044898 -0.0080000
v -0.0010000 0.0044898 -0.0001000
v -0.0016000 0.0042898 -0.0080000
v -0.0016000 0.0042898 -0.0001000
v -0.0022408 0.0042898 -0.0080000
v -0.0022408 0.0042898 -0.0001000
v -0.0009184 0.0057070 -0.0001000
v -0.0016972 0.0051870 -0.0001000
v -0.0022172 0.0044082 -0.0001000
v -0.0016972 0.0051870 -0.0080000
v -0.0009184 0.0057070 -0.0080000
v -0.0022172 0.0044082 -0.0080000
v -0.0034000 0.0021121 -0.0080000
v -0.0034000 0.0021121 0.0080000
v -0.0034000 0.0048674 0.0080000
v -0.0034000 0.0048674 -0.0080000
v 0.0034000 0.0048674 0.0080000
v 0.0034000 0.0021121 0.0080000
v 0.0034000 0.0021121 -0.0080000
v 0.0034000 0.0048674 -0.0080000
v -0.0004619 0.0069794 -0.0080000
v -0.0013776 0.0068895 -0.0080000
v -0.0013776 0.0068895 0.0080000
v -0.0004619 0.0069794 0.0080000
v 0.0004617 0.0069795 -0.0080000
v 0.0004617 0.0069795 0.0080000
v 0.0013777 0.0068896 -0.0080000
v 0.0013777 0.0068896 0.0080000
v -0.0013776 0.0000900 0.0080000
v -0.0013776 0.0000900 -0.0080000
v -0.0004619 0.0000001 -0.0080000
v -0.0004619 0.0000001 0.0080000
v 0.0004617 0.0000000 -0.0080000
v 0.0004617 0.0000000 0.0080000
v 0.0013777 0.0000899 -0.0080000
v 0.0013777 0.0000899 0.0080000
v -0.0024719 0.0052515 0.0080000
v -0.0024719 0.0052515 -0.0080000
v -0.0033998 0.0048672 -0.0080000
v -0.0033998 0.0048672 0.0080000
v -0.0017618 0.0059617 0.0080000
v -0.0017618 0.0059617 -0.0080000
v -0.0013774 0.0068896 0.0080000
v -0.0013774 0.0068896 -0.0080000
v 0.0033998 0.0048672 -0.0080000
v 0.0024719 0.0052515 -0.0080000
v 0.0024719 0.0052515 0.0080000
v 0.0033998 0.0048672 0.0080000
v 0.0017618 0.0059617 -0.0080000
v 0.0017618 0.0059617 0.0080000
v 0.0013774 0.0068896 -0.0080000
v 0.0013774 0.0068896 0.0080000
v -0.0033998 0.0021123 -0.0080000
v -0.0024719 0.0017280 -0.0080000
v -0.0024719 0.0017280 0.0080000
v -0.0033998 0.0021123 0.0080000
v -0.0017618 0.0010178 -0.0080000
v -0.0017618 0.0010178 0.0080000
v -0.0013774 0.0000900 -0.0080000
v -0.0013774 0.0000900 0.0080000
v 0.0024719 0.0017280 0.0080000
v 0.0024719 0.0017280 -0.0080000
v 0.0033998 0.0021123 -0.0080000
v 0.0033998 0.0021123 0.0080000
v 0.0017618 0.0010178 0.0080000
v 0.0017618 0.0010178 -0.0080000
v 0.0013774 0.0000900 0.0080000
v 0.0013774 0.0000900 -0.0080000
v -0.0034000 0.0021122 -0.0080000
v -0.0024720 0.0017282 -0.0080000
v -0.0017616 0.0010178 -0.0080000
v -0.0013776 0.0000898 -0.0080000
v -0.0004616 0.0000002 -0.0080000
v 0.0004620 0.0000002 -0.0080000
v 0.0013772 0.0000902 -0.0080000
v 0.0017616 0.0010178 -0.0080000
v 0.0024720 0.0017282 -0.0080000
v 0.0034000 0.0021122 -0.0080000
v 0.0024720 0.0052514 -0.0080000
v 0.0017616 0.0059618 -0.0080000
v 0.0013776 0.0068898 -0.0080000
v 0.0004616 0.0069794 -0.0080000
v -0.0004620 0.0069794 -0.0080000
v -0.0013776 0.0068898 -0.0080000
v -0.0017620 0.0059618 -0.0080000
v -0.0024720 0.0052518 -0.0080000
v -0.0034000 0.0021122 0.0080000
v -0.0024720 0.0017282 0.0080000
v -0.0017616 0.0010178 0.0080000
v -0.0013776 0.0000898 0.0080000
v 0.0004620 0.0000002 0.0080000
v -0.0004616 0.0000002 0.0080000
v 0.0013772 0.0000902 0.0080000
v 0.0017616 0.0010178 0.0080000
v 0.0024720 0.0017282 0.0080000
v 0.0034000 0.0021122 0.0080000
v 0.0024720 0.0052514 0.0080000
v 0.0017616 0.0059618 0.0080000
v 0.0013776 0.0068898 0.0080000
v -0.0004620 0.0069794 0.0080000
v 0.0004616 0.0069794 0.0080000
v -0.0013776 0.0068898 0.0080000
v -0.0017620 0.0059618 0.0080000
v -0.0024720 0.0052518 0.0080000
f 1 2 3
f 4 1 3
f 2 5 6
f 3 2 6
f 7 8 9
f 10 7 9
f 5 7 10
f 6 5 10
f 11 1 4
f 12 11 4
f 13 11 12
f 14 13 12
f 6 15 4
f 3 6 4
f 16 5 2
f 1 16 2
f 17 18 19
f 20 17 19
f 18 21 22
f 19 18 22
f 23 24 25
f 26 23 25
f 21 23 26
f 22 21 26
f 27 17 20
f 28 27 20
f 29 27 28
f 30 29 28
f 22 31 20
f 19 22 20
f 32 21 18
f 17 32 18
f 33 13 14
f 34 33 14
f 35 33 34
f 36 35 34
f 37 35 36
f 38 37 36
f 39 37 38
f 40 39 38
f 41 39 40
f 42 41 40
f 25 24 41
f 42 25 41
f 36 34 43
f 44 36 43
f 36 44 40
f 38 36 40
f 44 45 42
f 40 44 42
f 46 47 33
f 35 46 33
f 39 46 35
f 37 39 35
f 39 41 48
f 46 39 48
f 49 29 30
f 50 49 30
f 49 50 51
f 52 49 51
f 53 52 51
f 54 53 51
f 55 53 54
f 56 55 54
f 57 55 56
f 58 57 56
f 9 8 57
f 58 9 57
f 51 50 59
f 60 51 59
f 51 60 56
f 54 51 56
f 60 61 58
f 56 60 58
f 62 63 49
f 52 62 49
f 55 62 52
f 53 55 52
f 55 57 64
f 62 55 64
f 65 66 67
f 65 67 68
f 69 70 66
f 69 66 65
f 71 72 70
f 71 70 69
f 73 74 72
f 73 72 71
f 75 76 74
f 75 74 73
f 77 78 76
f 77 76 75
f 79 80 78
f 79 78 77
f 81 82 80
f 81 80 79
f 83 84 82
f 83 82 81
f 85 86 84
f 85 84 83
f 87 88 86
f 87 86 85
f 89 90 88
f 89 88 87
f 91 92 90
f 91 90 89
f 93 94 92
f 93 92 91
f 95 96 94
f 95 94 93
f 68 67 96
f 68 96 95
f 97 98 91
f 97 91 89
f 98 99 93
f 98 93 91
f 99 100 95
f 99 95 93
f 100 101 68
f 100 68 95
f 101 102 65
f 101 65 68
f 102 103 69
f 102 69 65
f 103 104 71
f 103 71 69
f 104 105 73
f 104 73 71
f 105 106 75
f 105 75 73
f 106 107 77
f 106 77 75
f 107 108 79
f 107 79 77
f 108 109 81
f 108 81 79
f 109 110 83
f 109 83 81
f 110 111 85
f 110 85 83
f 111 112 87
f 111 87 85
f 112 97 89
f 112 89 87
f 113 114 115
f 113 115 116
f 117 118 114
f 117 114 113
f 119 120 118
f 119 118 117
f 121 122 120
f 121 120 119
f 123 124 122
f 123 122 121
f 125 126 124
f 125 124 123
f 127 128 126
f 127 126 125
f 129 130 128
f 129 128 127
f 131 132 130
f 131 130 129
f 133 134 132
f 133 132 131
f 135 136 134
f 135 134 133
f 137 138 136
f 137 136 135
f 139 140 138
f 139 138 137
f 141 142 140
f 141 140 139
f 143 144 142
f 143 142 141
f 116 115 144
f 116 144 143
f 140 72 74
f 138 140 74
f 142 70 72
f 140 142 72
f 144 66 70
f 142 144 70
f 115 67 66
f 144 115 66
f 114 96 67
f 115 114 67
f 118 94 96
f 114 118 96
f 120 92 94
f 118 120 94
f 122 90 92
f 120 122 92
f 124 88 90
f 122 124 90
f 126 86 88
f 124 126 88
f 128 84 86
f 126 128 86
f 130 82 84
f 128 130 84
f 132 80 82
f 130 132 82
f 134 78 80
f 132 134 80
f 136 76 78
f 134 136 78
f 138 74 76
f 136 138 76
f 145 146 139
f 145 139 137
f 146 147 141
f 146 141 139
f 147 148 143
f 147 143 141
f 148 149 116
f 148 116 143
f 149 150 113
f 149 113 116
f 150 151 117
f 150 117 113
f 151 152 119
f 151 119 117
f 152 153 121
f 152 121 119
f 153 154 123
f 153 123 121
f 154 155 125
f 154 125 123
f 155 156 127
f 155 127 125
f 156 157 129
f 156 129 127
f 157 158 131
f 157 131 129
f 158 159 133
f 158 133 131
f 159 160 135
f 159 135 133
f 160 145 137
f 160 137 135
f 161 162 163
f 164 161 163
f 162 165 166
f 163 162 166
f 167 168 169
f 170 167 169
f 165 167 170
f 166 165 170
f 171 161 164
f 172 171 164
f 173 171 172
f 174 173 172
f 166 175 164
f 163 166 164
f 176 165 162
f 161 176 162
f 177 178 179
f 180 177 179
f 178 181 182
f 179 178 182
f 183 184 185
f 186 183 185
f 181 183 186
f 182 181 186
f 187 177 180
f 188 187 180
f 189 187 188
f 190 189 188
f 182 191 180
f 179 182 180
f 192 181 178
f 177 192 178
f 193 173 174
f 194 193 174
f 195 193 194
f 196 195 194
f 197 195 196
f 198 197 196
f 199 197 198
f 200 199 198
f 201 199 200
f 202 201 200
f 185 184 201
f 202 185 201
f 196 194 203
f 204 196 203
f 196 204 200
f 198 196 200
f 204 205 202
f 200 204 202
f 206 207 193
f 195 206 193
f 199 206 195
f 197 199 195
f 199 201 208
f 206 199 208
f 209 189 190
f 210 209 190
f 209 210 211
f 212 209 211
f 213 212 211
f 214 213 211
f 215 213 214
f 216 215 214
f 217 215 216
f 218 217 216
f 169 168 217
f 218 169 217
f 211 210 219
f 220 211 219
f 211 220 216
f 214 211 216
f 220 221 218
f 216 220 218
f 222 223 209
f 212 222 209
f 215 222 212
f 213 215 212
f 215 217 224
f 222 215 224
f 225 226 227
f 225 227 228
f 229 230 231
f 232 229 231
f 233 234 235
f 233 235 236
f 237 233 236
f 237 236 238
f 239 237 238
f 239 238 240
f 241 242 243
f 244 241 243
f 244 243 245
f 246 244 245
f 246 245 247
f 248 246 247
f 249 250 251
f 249 251 252
f 253 254 250
f 253 250 249
f 255 256 254
f 255 254 253
f 257 258 259
f 260 257 259
f 258 261 262
f 259 258 262
f 261 263 264
f 262 261 264
f 265 266 267
f 268 265 267
f 266 269 270
f 267 266 270
f 269 271 272
f 270 269 272
f 273 274 275
f 273 275 276
f 277 278 274
f 277 274 273
f 279 280 278
f 279 278 277
f 281 228 168
f 281 168 167
f 282 281 167
f 282 167 176
f 283 282 176
f 283 176 171
f 284 283 171
f 284 171 173
f 285 284 173
f 285 173 286
f 286 173 207
f 286 207 287
f 287 207 206
f 287 206 288
f 288 206 208
f 288 208 289
f 289 208 184
f 289 184 290
f 232 290 184
f 232 184 183
f 291 232 183
f 291 183 192
f 292 291 192
f 292 192 187
f 293 292 187
f 293 187 189
f 294 293 189
f 294 189 295
f 295 189 223
f 295 223 296
f 296 223 222
f 296 222 297
f 297 222 224
f 297 224 298
f 298 224 168
f 298 168 228
f 11 13 227
f 11 227 299
f 16 11 299
f 16 299 300
f 7 16 300
f 7 300 301
f 8 7 301
f 8 301 302
f 303 8 302
f 303 302 304
f 305 64 8
f 305 8 303
f 306 62 64
f 306 64 305
f 307 63 62
f 307 62 306
f 308 29 63
f 308 63 307
f 27 29 308
f 27 308 229
f 32 27 229
f 32 229 309
f 23 32 309
f 23 309 310
f 24 23 310
f 24 310 311
f 312 24 311
f 312 311 313
f 314 48 24
f 314 24 312
f 315 46 48
f 315 48 314
f 316 47 46
f 316 46 315
f 227 13 47
f 227 47 316
