# Botball Lab: metres, +Y up, centred XZ, base Y=0
s off
v -0.0160000 0.0000000 -0.0080000
v -0.0160000 0.0032000 -0.0080000
v 0.0160000 0.0032000 -0.0080000
v 0.0160000 0.0000000 -0.0080000
v -0.0160000 0.0000000 0.0080000
v -0.0160000 0.0032000 0.0080000
v 0.0160000 0.0000000 0.0080000
v 0.0160000 0.0032000 0.0080000
v 0.0144000 0.0016000 -0.0064000
v -0.0144000 0.0016000 -0.0064000
v -0.0144000 0.0000000 -0.0064000
v 0.0144000 0.0000000 -0.0064000
v -0.0144000 0.0016000 0.0064000
v -0.0144000 0.0000000 0.0064000
v 0.0144000 0.0016000 0.0064000
v 0.0144000 0.0000000 0.0064000
v 0.0104000 0.0016000 -0.0000000
v 0.0102174 0.0016000 -0.0009185
v 0.0102174 0.0000000 -0.0009185
v 0.0104000 0.0000000 -0.0000000
v 0.0096970 0.0016000 -0.0016970
v 0.0096970 0.0000000 -0.0016970
v 0.0089185 0.0016000 -0.0022174
v 0.0089185 0.0000000 -0.0022174
v 0.0080000 0.0016000 -0.0024000
v 0.0080000 0.0000000 -0.0024000
v 0.0070815 0.0016000 -0.0022174
v 0.0070815 0.0000000 -0.0022174
v 0.0063030 0.0016000 -0.0016970
v 0.0063030 0.0000000 -0.0016970
v 0.0057826 0.0016000 -0.0009185
v 0.0057826 0.0000000 -0.0009185
v 0.0056000 0.0016000 -0.0000000
v 0.0056000 0.0000000 -0.0000000
v 0.0057826 0.0016000 0.0009185
v 0.0057826 0.0000000 0.0009185
v 0.0063030 0.0016000 0.0016970
v 0.0063030 0.0000000 0.0016970
v 0.0070815 0.0016000 0.0022174
v 0.0070815 0.0000000 0.0022174
v 0.0080000 0.0016000 0.0024000
v 0.0080000 0.0000000 0.0024000
v 0.0089185 0.0016000 0.0022174
v 0.0089185 0.0000000 0.0022174
v 0.0096970 0.0016000 0.0016970
v 0.0096970 0.0000000 0.0016970
v 0.0102174 0.0016000 0.0009185
v 0.0102174 0.0000000 0.0009185
v 0.0109565 0.0000000 -0.0012246
v 0.0109565 0.0016000 -0.0012246
v 0.0112000 0.0016000 -0.0000000
v 0.0112000 0.0000000 -0.0000000
v 0.0102627 0.0000000 -0.0022627
v 0.0102627 0.0016000 -0.0022627
v 0.0092246 0.0000000 -0.0029565
v 0.0092246 0.0016000 -0.0029565
v 0.0080000 0.0000000 -0.0032000
v 0.0080000 0.0016000 -0.0032000
v 0.0067754 0.0000000 -0.0029565
v 0.0067754 0.0016000 -0.0029565
v 0.0057373 0.0000000 -0.0022627
v 0.0057373 0.0016000 -0.0022627
v 0.0050435 0.0000000 -0.0012246
v 0.0050435 0.0016000 -0.0012246
v 0.0048000 0.0000000 -0.0000000
v 0.0048000 0.0016000 -0.0000000
v 0.0050435 0.0000000 0.0012246
v 0.0050435 0.0016000 0.0012246
v 0.0057373 0.0000000 0.0022627
v 0.0057373 0.0016000 0.0022627
v 0.0067754 0.0000000 0.0029565
v 0.0067754 0.0016000 0.0029565
v 0.0080000 0.0000000 0.0032000
v 0.0080000 0.0016000 0.0032000
v 0.0092246 0.0000000 0.0029565
v 0.0092246 0.0016000 0.0029565
v 0.0102627 0.0000000 0.0022627
v 0.0102627 0.0016000 0.0022627
v 0.0109565 0.0000000 0.0012246
v 0.0109565 0.0016000 0.0012246
v 0.0024000 0.0016000 -0.0000000
v 0.0022174 0.0016000 -0.0009185
v 0.0022174 0.0000000 -0.0009185
v 0.0024000 0.0000000 -0.0000000
v 0.0016970 0.0016000 -0.0016970
v 0.0016970 0.0000000 -0.0016970
v 0.0009185 0.0016000 -0.0022174
v 0.0009185 0.0000000 -0.0022174
v 0.0000000 0.0016000 -0.0024000
v 0.0000000 0.0000000 -0.0024000
v -0.0009185 0.0016000 -0.0022174
v -0.0009185 0.0000000 -0.0022174
v -0.0016970 0.0016000 -0.0016970
v -0.0016970 0.0000000 -0.0016970
v -0.0022174 0.0016000 -0.0009185
v -0.0022174 0.0000000 -0.0009185
v -0.0024000 0.0016000 -0.0000000
v -0.0024000 0.0000000 -0.0000000
v -0.0022174 0.0016000 0.0009185
v -0.0022174 0.0000000 0.0009185
v -0.0016970 0.0016000 0.0016970
v -0.0016970 0.0000000 0.0016970
v -0.0009185 0.0016000 0.0022174
v -0.0009185 0.0000000 0.0022174
v 0.0000000 0.0016000 0.0024000
v 0.0000000 0.0000000 0.0024000
v 0.0009185 0.0016000 0.0022174
v 0.0009185 0.0000000 0.0022174
v 0.0016970 0.0016000 0.0016970
v 0.0016970 0.0000000 0.0016970
v 0.0022174 0.0016000 0.0009185
v 0.0022174 0.0000000 0.0009185
v 0.0029565 0.0000000 -0.0012246
v 0.0029565 0.0016000 -0.0012246
v 0.0032000 0.0016000 -0.0000000
v 0.0032000 0.0000000 -0.0000000
v 0.0022627 0.0000000 -0.0022627
v 0.0022627 0.0016000 -0.0022627
v 0.0012246 0.0000000 -0.0029565
v 0.0012246 0.0016000 -0.0029565
v 0.0000000 0.0000000 -0.0032000
v 0.0000000 0.0016000 -0.0032000
v -0.0012246 0.0000000 -0.0029565
v -0.0012246 0.0016000 -0.0029565
v -0.0022627 0.0000000 -0.0022627
v -0.0022627 0.0016000 -0.0022627
v -0.0029565 0.0000000 -0.0012246
v -0.0029565 0.0016000 -0.0012246
v -0.0032000 0.0000000 -0.0000000
v -0.0032000 0.0016000 -0.0000000
v -0.0029565 0.0000000 0.0012246
v -0.0029565 0.0016000 0.0012246
v -0.0022627 0.0000000 0.0022627
v -0.0022627 0.0016000 0.0022627
v -0.0012246 0.0000000 0.0029565
v -0.0012246 0.0016000 0.0029565
v 0.0000000 0.0000000 0.0032000
v 0.0000000 0.0016000 0.0032000
v 0.0012246 0.0000000 0.0029565
v 0.0012246 0.0016000 0.0029565
v 0.0022627 0.0000000 0.0022627
v 0.0022627 0.0016000 0.0022627
v 0.0029565 0.0000000 0.0012246
v 0.0029565 0.0016000 0.0012246
v -0.0056000 0.0016000 -0.0000000
v -0.0057826 0.0016000 -0.0009185
v -0.0057826 0.0000000 -0.0009185
v -0.0056000 0.0000000 -0.0000000
v -0.0063030 0.0016000 -0.0016970
v -0.0063030 0.0000000 -0.0016970
v -0.0070815 0.0016000 -0.0022174
v -0.0070815 0.0000000 -0.0022174
v -0.0080000 0.0016000 -0.0024000
v -0.0080000 0.0000000 -0.0024000
v -0.0089185 0.0016000 -0.0022174
v -0.0089185 0.0000000 -0.0022174
v -0.0096970 0.0016000 -0.0016970
v -0.0096970 0.0000000 -0.0016970
v -0.0102174 0.0016000 -0.0009185
v -0.0102174 0.0000000 -0.0009185
v -0.0104000 0.0016000 -0.0000000
v -0.0104000 0.0000000 -0.0000000
v -0.0102174 0.0016000 0.0009185
v -0.0102174 0.0000000 0.0009185
v -0.0096970 0.0016000 0.0016970
v -0.0096970 0.0000000 0.0016970
v -0.0089185 0.0016000 0.0022174
v -0.0089185 0.0000000 0.0022174
v -0.0080000 0.0016000 0.0024000
v -0.0080000 0.0000000 0.0024000
v -0.0070815 0.0016000 0.0022174
v -0.0070815 0.0000000 0.0022174
v -0.0063030 0.0016000 0.0016970
v -0.0063030 0.0000000 0.0016970
v -0.0057826 0.0016000 0.0009185
v -0.0057826 0.0000000 0.0009185
v -0.0050435 0.0000000 -0.0012246
v -0.0050435 0.0016000 -0.0012246
v -0.0048000 0.0016000 -0.0000000
v -0.0048000 0.0000000 -0.0000000
v -0.0057373 0.0000000 -0.0022627
v -0.0057373 0.0016000 -0.0022627
v -0.0067754 0.0000000 -0.0029565
v -0.0067754 0.0016000 -0.0029565
v -0.0080000 0.0000000 -0.0032000
v -0.0080000 0.0016000 -0.0032000
v -0.0092246 0.0000000 -0.0029565
v -0.0092246 0.0016000 -0.0029565
v -0.0102627 0.0000000 -0.0022627
v -0.0102627 0.0016000 -0.0022627
v -0.0109565 0.0000000 -0.0012246
v -0.0109565 0.0016000 -0.0012246
v -0.0112000 0.0000000 -0.0000000
v -0.0112000 0.0016000 -0.0000000
v -0.0109565 0.0000000 0.0012246
v -0.0109565 0.0016000 0.0012246
v -0.0102627 0.0000000 0.0022627
v -0.0102627 0.0016000 0.0022627
v -0.0092246 0.0000000 0.0029565
v -0.0092246 0.0016000 0.0029565
v -0.0080000 0.0000000 0.0032000
v -0.0080000 0.0016000 0.0032000
v -0.0067754 0.0000000 0.0029565
v -0.0067754 0.0016000 0.0029565
v -0.0057373 0.0000000 0.0022627
v -0.0057373 0.0016000 0.0022627
v -0.0050435 0.0000000 0.0012246
v -0.0050435 0.0016000 0.0012246
v 0.0102174 0.0032000 -0.0009185
v 0.0104000 0.0032000 -0.0000000
v 0.0096970 0.0032000 -0.0016970
v 0.0089185 0.0032000 -0.0022174
v 0.0080000 0.0032000 -0.0024000
v 0.0070815 0.0032000 -0.0022174
v 0.0063030 0.0032000 -0.0016970
v 0.0057826 0.0032000 -0.0009185
v 0.0056000 0.0032000 -0.0000000
v 0.0057826 0.0032000 0.0009185
v 0.0063030 0.0032000 0.0016970
v 0.0070815 0.0032000 0.0022174
v 0.0080000 0.0032000 0.0024000
v 0.0089185 0.0032000 0.0022174
v 0.0096970 0.0032000 0.0016970
v 0.0102174 0.0032000 0.0009185
v 0.0022174 0.0032000 -0.0009185
v 0.0024000 0.0032000 -0.0000000
v 0.0016970 0.0032000 -0.0016970
v 0.0009185 0.0032000 -0.0022174
v 0.0000000 0.0032000 -0.0024000
v -0.0009185 0.0032000 -0.0022174
v -0.0016970 0.0032000 -0.0016970
v -0.0022174 0.0032000 -0.0009185
v -0.0024000 0.0032000 -0.0000000
v -0.0022174 0.0032000 0.0009185
v -0.0016970 0.0032000 0.0016970
v -0.0009185 0.0032000 0.0022174
v 0.0000000 0.0032000 0.0024000
v 0.0009185 0.0032000 0.0022174
v 0.0016970 0.0032000 0.0016970
v 0.0022174 0.0032000 0.0009185
v -0.0057826 0.0032000 -0.0009185
v -0.0056000 0.0032000 -0.0000000
v -0.0063030 0.0032000 -0.0016970
v -0.0070815 0.0032000 -0.0022174
v -0.0080000 0.0032000 -0.0024000
v -0.0089185 0.0032000 -0.0022174
v -0.0096970 0.0032000 -0.0016970
v -0.0102174 0.0032000 -0.0009185
v -0.0104000 0.0032000 -0.0000000
v -0.0102174 0.0032000 0.0009185
v -0.0096970 0.0032000 0.0016970
v -0.0089185 0.0032000 0.0022174
v -0.0080000 0.0032000 0.0024000
v -0.0070815 0.0032000 0.0022174
v -0.0063030 0.0032000 0.0016970
v -0.0057826 0.0032000 0.0009185
v 0.0112000 0.0016000 -0.0032000
v 0.0048000 0.0016000 -0.0032000
v 0.0048000 0.0016000 0.0032000
v 0.0112000 0.0016000 0.0032000
v 0.0032000 0.0016000 -0.0032000
v -0.0032000 0.0016000 -0.0032000
v -0.0032000 0.0016000 0.0032000
v 0.0032000 0.0016000 0.0032000
v -0.0048000 0.0016000 -0.0032000
v -0.0112000 0.0016000 -0.0032000
v -0.0112000 0.0016000 0.0032000
v -0.0048000 0.0016000 0.0032000
v 0.0104000 0.0032000 -0.0024000
v 0.0056000 0.0032000 -0.0024000
v 0.0056000 0.0032000 0.0024000
v 0.0104000 0.0032000 0.0024000
v 0.0024000 0.0032000 -0.0024000
v -0.0024000 0.0032000 -0.0024000
v -0.0024000 0.0032000 0.0024000
v 0.0024000 0.0032000 0.0024000
v -0.0056000 0.0032000 -0.0024000
v -0.0104000 0.0032000 -0.0024000
v -0.0104000 0.0032000 0.0024000
v -0.0056000 0.0032000 0.0024000
v 0.0142174 0.0032000 -0.0049185
v 0.0142174 0.0048000 -0.0049185
v 0.0144000 0.0048000 -0.0040000
v 0.0144000 0.0032000 -0.0040000
v 0.0136970 0.0032000 -0.0056970
v 0.0136970 0.0048000 -0.0056970
v 0.0129185 0.0032000 -0.0062174
v 0.0129185 0.0048000 -0.0062174
v 0.0120000 0.0032000 -0.0064000
v 0.0120000 0.0048000 -0.0064000
v 0.0110815 0.0032000 -0.0062174
v 0.0110815 0.0048000 -0.0062174
v 0.0103030 0.0032000 -0.0056970
v 0.0103030 0.0048000 -0.0056970
v 0.0097826 0.0032000 -0.0049185
v 0.0097826 0.0048000 -0.0049185
v 0.0096000 0.0032000 -0.0040000
v 0.0096000 0.0048000 -0.0040000
v 0.0097826 0.0032000 -0.0030815
v 0.0097826 0.0048000 -0.0030815
v 0.0103030 0.0032000 -0.0023030
v 0.0103030 0.0048000 -0.0023030
v 0.0110815 0.0032000 -0.0017826
v 0.0110815 0.0048000 -0.0017826
v 0.0120000 0.0032000 -0.0016000
v 0.0120000 0.0048000 -0.0016000
v 0.0129185 0.0032000 -0.0017826
v 0.0129185 0.0048000 -0.0017826
v 0.0136970 0.0032000 -0.0023030
v 0.0136970 0.0048000 -0.0023030
v 0.0142174 0.0032000 -0.0030815
v 0.0142174 0.0048000 -0.0030815
v 0.0120000 0.0048000 -0.0040000
v 0.0062174 0.0032000 -0.0049185
v 0.0062174 0.0048000 -0.0049185
v 0.0064000 0.0048000 -0.0040000
v 0.0064000 0.0032000 -0.0040000
v 0.0056970 0.0032000 -0.0056970
v 0.0056970 0.0048000 -0.0056970
v 0.0049185 0.0032000 -0.0062174
v 0.0049185 0.0048000 -0.0062174
v 0.0040000 0.0032000 -0.0064000
v 0.0040000 0.0048000 -0.0064000
v 0.0030815 0.0032000 -0.0062174
v 0.0030815 0.0048000 -0.0062174
v 0.0023030 0.0032000 -0.0056970
v 0.0023030 0.0048000 -0.0056970
v 0.0017826 0.0032000 -0.0049185
v 0.0017826 0.0048000 -0.0049185
v 0.0016000 0.0032000 -0.0040000
v 0.0016000 0.0048000 -0.0040000
v 0.0017826 0.0032000 -0.0030815
v 0.0017826 0.0048000 -0.0030815
v 0.0023030 0.0032000 -0.0023030
v 0.0023030 0.0048000 -0.0023030
v 0.0030815 0.0032000 -0.0017826
v 0.0030815 0.0048000 -0.0017826
v 0.0040000 0.0032000 -0.0016000
v 0.0040000 0.0048000 -0.0016000
v 0.0049185 0.0032000 -0.0017826
v 0.0049185 0.0048000 -0.0017826
v 0.0056970 0.0032000 -0.0023030
v 0.0056970 0.0048000 -0.0023030
v 0.0062174 0.0032000 -0.0030815
v 0.0062174 0.0048000 -0.0030815
v 0.0040000 0.0048000 -0.0040000
v -0.0017826 0.0032000 -0.0049185
v -0.0017826 0.0048000 -0.0049185
v -0.0016000 0.0048000 -0.0040000
v -0.0016000 0.0032000 -0.0040000
v -0.0023030 0.0032000 -0.0056970
v -0.0023030 0.0048000 -0.0056970
v -0.0030815 0.0032000 -0.0062174
v -0.0030815 0.0048000 -0.0062174
v -0.0040000 0.0032000 -0.0064000
v -0.0040000 0.0048000 -0.0064000
v -0.0049185 0.0032000 -0.0062174
v -0.0049185 0.0048000 -0.0062174
v -0.0056970 0.0032000 -0.0056970
v -0.0056970 0.0048000 -0.0056970
v -0.0062174 0.0032000 -0.0049185
v -0.0062174 0.0048000 -0.0049185
v -0.0064000 0.0032000 -0.0040000
v -0.0064000 0.0048000 -0.0040000
v -0.0062174 0.0032000 -0.0030815
v -0.0062174 0.0048000 -0.0030815
v -0.0056970 0.0032000 -0.0023030
v -0.0056970 0.0048000 -0.0023030
v -0.0049185 0.0032000 -0.0017826
v -0.0049185 0.0048000 -0.0017826
v -0.0040000 0.0032000 -0.0016000
v -0.0040000 0.0048000 -0.0016000
v -0.0030815 0.0032000 -0.0017826
v -0.0030815 0.0048000 -0.0017826
v -0.0023030 0.0032000 -0.0023030
v -0.0023030 0.0048000 -0.0023030
v -0.0017826 0.0032000 -0.0030815
v -0.0017826 0.0048000 -0.0030815
v -0.0040000 0.0048000 -0.0040000
v -0.0097826 0.0032000 -0.0049185
v -0.0097826 0.0048000 -0.0049185
v -0.0096000 0.0048000 -0.0040000
v -0.0096000 0.0032000 -0.0040000
v -0.0103030 0.0032000 -0.0056970
v -0.0103030 0.0048000 -0.0056970
v -0.0110815 0.0032000 -0.0062174
v -0.0110815 0.0048000 -0.0062174
v -0.0120000 0.0032000 -0.0064000
v -0.0120000 0.0048000 -0.0064000
v -0.0129185 0.0032000 -0.0062174
v -0.0129185 0.0048000 -0.0062174
v -0.0136970 0.0032000 -0.0056970
v -0.0136970 0.0048000 -0.0056970
v -0.0142174 0.0032000 -0.0049185
v -0.0142174 0.0048000 -0.0049185
v -0.0144000 0.0032000 -0.0040000
v -0.0144000 0.0048000 -0.0040000
v -0.0142174 0.0032000 -0.0030815
v -0.0142174 0.0048000 -0.0030815
v -0.0136970 0.0032000 -0.0023030
v -0.0136970 0.0048000 -0.0023030
v -0.0129185 0.0032000 -0.0017826
v -0.0129185 0.0048000 -0.0017826
v -0.0120000 0.0032000 -0.0016000
v -0.0120000 0.0048000 -0.0016000
v -0.0110815 0.0032000 -0.0017826
v -0.0110815 0.0048000 -0.0017826
v -0.0103030 0.0032000 -0.0023030
v -0.0103030 0.0048000 -0.0023030
v -0.0097826 0.0032000 -0.0030815
v -0.0097826 0.0048000 -0.0030815
v -0.0120000 0.0048000 -0.0040000
v 0.0142174 0.0032000 0.0030815
v 0.0142174 0.0048000 0.0030815
v 0.0144000 0.0048000 0.0040000
v 0.0144000 0.0032000 0.0040000
v 0.0136970 0.0032000 0.0023030
v 0.0136970 0.0048000 0.0023030
v 0.0129185 0.0032000 0.0017826
v 0.0129185 0.0048000 0.0017826
v 0.0120000 0.0032000 0.0016000
v 0.0120000 0.0048000 0.0016000
v 0.0110815 0.0032000 0.0017826
v 0.0110815 0.0048000 0.0017826
v 0.0103030 0.0032000 0.0023030
v 0.0103030 0.0048000 0.0023030
v 0.0097826 0.0032000 0.0030815
v 0.0097826 0.0048000 0.0030815
v 0.0096000 0.0032000 0.0040000
v 0.0096000 0.0048000 0.0040000
v 0.0097826 0.0032000 0.0049185
v 0.0097826 0.0048000 0.0049185
v 0.0103030 0.0032000 0.0056970
v 0.0103030 0.0048000 0.0056970
v 0.0110815 0.0032000 0.0062174
v 0.0110815 0.0048000 0.0062174
v 0.0120000 0.0032000 0.0064000
v 0.0120000 0.0048000 0.0064000
v 0.0129185 0.0032000 0.0062174
v 0.0129185 0.0048000 0.0062174
v 0.0136970 0.0032000 0.0056970
v 0.0136970 0.0048000 0.0056970
v 0.0142174 0.0032000 0.0049185
v 0.0142174 0.0048000 0.0049185
v 0.0120000 0.0048000 0.0040000
v 0.0062174 0.0032000 0.0030815
v 0.0062174 0.0048000 0.0030815
v 0.0064000 0.0048000 0.0040000
v 0.0064000 0.0032000 0.0040000
v 0.0056970 0.0032000 0.0023030
v 0.0056970 0.0048000 0.0023030
v 0.0049185 0.0032000 0.0017826
v 0.0049185 0.0048000 0.0017826
v 0.0040000 0.0032000 0.0016000
v 0.0040000 0.0048000 0.0016000
v 0.0030815 0.0032000 0.0017826
v 0.0030815 0.0048000 0.0017826
v 0.0023030 0.0032000 0.0023030
v 0.0023030 0.0048000 0.0023030
v 0.0017826 0.0032000 0.0030815
v 0.0017826 0.0048000 0.0030815
v 0.0016000 0.0032000 0.0040000
v 0.0016000 0.0048000 0.0040000
v 0.0017826 0.0032000 0.0049185
v 0.0017826 0.0048000 0.0049185
v 0.0023030 0.0032000 0.0056970
v 0.0023030 0.0048000 0.0056970
v 0.0030815 0.0032000 0.0062174
v 0.0030815 0.0048000 0.0062174
v 0.0040000 0.0032000 0.0064000
v 0.0040000 0.0048000 0.0064000
v 0.0049185 0.0032000 0.0062174
v 0.0049185 0.0048000 0.0062174
v 0.0056970 0.0032000 0.0056970
v 0.0056970 0.0048000 0.0056970
v 0.0062174 0.0032000 0.0049185
v 0.0062174 0.0048000 0.0049185
v 0.0040000 0.0048000 0.0040000
v -0.0017826 0.0032000 0.0030815
v -0.0017826 0.0048000 0.0030815
v -0.0016000 0.0048000 0.0040000
v -0.0016000 0.0032000 0.0040000
v -0.0023030 0.0032000 0.0023030
v -0.0023030 0.0048000 0.0023030
v -0.0030815 0.0032000 0.0017826
v -0.0030815 0.0048000 0.0017826
v -0.0040000 0.0032000 0.0016000
v -0.0040000 0.0048000 0.0016000
v -0.0049185 0.0032000 0.0017826
v -0.0049185 0.0048000 0.0017826
v -0.0056970 0.0032000 0.0023030
v -0.0056970 0.0048000 0.0023030
v -0.0062174 0.0032000 0.0030815
v -0.0062174 0.0048000 0.0030815
v -0.0064000 0.0032000 0.0040000
v -0.0064000 0.0048000 0.0040000
v -0.0062174 0.0032000 0.0049185
v -0.0062174 0.0048000 0.0049185
v -0.0056970 0.0032000 0.0056970
v -0.0056970 0.0048000 0.0056970
v -0.0049185 0.0032000 0.0062174
v -0.0049185 0.0048000 0.0062174
v -0.0040000 0.0032000 0.0064000
v -0.0040000 0.0048000 0.0064000
v -0.0030815 0.0032000 0.0062174
v -0.0030815 0.0048000 0.0062174
v -0.0023030 0.0032000 0.0056970
v -0.0023030 0.0048000 0.0056970
v -0.0017826 0.0032000 0.0049185
v -0.0017826 0.0048000 0.0049185
v -0.0040000 0.0048000 0.0040000
v -0.0097826 0.0032000 0.0030815
v -0.0097826 0.0048000 0.0030815
v -0.0096000 0.0048000 0.0040000
v -0.0096000 0.0032000 0.0040000
v -0.0103030 0.0032000 0.0023030
v -0.0103030 0.0048000 0.0023030
v -0.0110815 0.0032000 0.0017826
v -0.0110815 0.0048000 0.0017826
v -0.0120000 0.0032000 0.0016000
v -0.0120000 0.0048000 0.0016000
v -0.0129185 0.0032000 0.0017826
v -0.0129185 0.0048000 0.0017826
v -0.0136970 0.0032000 0.0023030
v -0.0136970 0.0048000 0.0023030
v -0.0142174 0.0032000 0.0030815
v -0.0142174 0.0048000 0.0030815
v -0.0144000 0.0032000 0.0040000
v -0.0144000 0.0048000 0.0040000
v -0.0142174 0.0032000 0.0049185
v -0.0142174 0.0048000 0.0049185
v -0.0136970 0.0032000 0.0056970
v -0.0136970 0.0048000 0.0056970
v -0.0129185 0.0032000 0.0062174
v -0.0129185 0.0048000 0.0062174
v -0.0120000 0.0032000 0.0064000
v -0.0120000 0.0048000 0.0064000
v -0.0110815 0.0032000 0.0062174
v -0.0110815 0.0048000 0.0062174
v -0.0103030 0.0032000 0.0056970
v -0.0103030 0.0048000 0.0056970
v -0.0097826 0.0032000 0.0049185
v -0.0097826 0.0048000 0.0049185
v -0.0120000 0.0048000 0.0040000
vn 0.0 0.0 -1.0
vn -1.0 0.0 0.0
vn 0.0 0.0 1.0
vn 1.0 0.0 0.0
vn -0.9978115 0.0 0.0661224
vn -0.8964963 0.0 0.4430513
vn -0.947177 0.0 0.3207111
vn -0.9978115 0.0 -0.0661224
vn -0.6588276 0.0 0.752294
vn -0.752294 0.0 0.6588276
vn -0.3207111 0.0 0.947177
vn -0.4430513 0.0 0.8964963
vn 0.0661224 0.0 0.9978115
vn -0.0661224 0.0 0.9978115
vn 0.4430513 0.0 0.8964963
vn 0.3207111 0.0 0.947177
vn 0.752294 0.0 0.6588276
vn 0.6588276 0.0 0.752294
vn 0.947177 0.0 0.3207111
vn 0.8964963 0.0 0.4430513
vn 0.9978115 0.0 -0.0661224
vn 0.9978115 0.0 0.0661224
vn 0.8964963 0.0 -0.4430513
vn 0.947177 0.0 -0.3207111
vn 0.6588276 0.0 -0.752294
vn 0.752294 0.0 -0.6588276
vn 0.3207111 0.0 -0.947177
vn 0.4430513 0.0 -0.8964963
vn -0.0661224 0.0 -0.9978115
vn 0.0661224 0.0 -0.9978115
vn -0.4430513 0.0 -0.8964963
vn -0.3207111 0.0 -0.947177
vn -0.752294 0.0 -0.6588276
vn -0.6588276 0.0 -0.752294
vn -0.947177 0.0 -0.3207111
vn -0.8964963 0.0 -0.4430513
vn 0.9471761 0.0 -0.3207139
vn 0.8965142 0.0 -0.4430151
vn 0.9978107 0.0 -0.066135
vn 0.9978107 0.0 0.066135
vn 0.7523142 0.0 -0.6588045
vn 0.6588045 0.0 -0.7523142
vn 0.4430151 0.0 -0.8965142
vn 0.3207139 0.0 -0.9471761
vn 0.066135 0.0 -0.9978107
vn -0.066135 0.0 -0.9978107
vn -0.3207139 0.0 -0.9471761
vn -0.4430151 0.0 -0.8965142
vn -0.6588045 0.0 -0.7523142
vn -0.7523142 0.0 -0.6588045
vn -0.8965142 0.0 -0.4430151
vn -0.9471761 0.0 -0.3207139
vn -0.9978107 0.0 -0.066135
vn -0.9978107 0.0 0.066135
vn -0.9471761 0.0 0.3207139
vn -0.8965142 0.0 0.4430151
vn -0.7523142 0.0 0.6588045
vn -0.6588045 0.0 0.7523142
vn -0.4430151 0.0 0.8965142
vn -0.3207139 0.0 0.9471761
vn -0.066135 0.0 0.9978107
vn 0.066135 0.0 0.9978107
vn 0.3207139 0.0 0.9471761
vn 0.4430151 0.0 0.8965142
vn 0.6588045 0.0 0.7523142
vn 0.7523142 0.0 0.6588045
vn 0.8965142 0.0 0.4430151
vn 0.9471761 0.0 0.3207139
vn 0.0 -1.0 0.0
vn 0.0 1.0 0.0
f 1//1 2//1 3//1
f 1//1 3//1 4//1
f 5//2 6//2 2//2
f 5//2 2//2 1//2
f 7//3 8//3 6//3
f 7//3 6//3 5//3
f 4//4 3//4 8//4
f 4//4 8//4 7//4
f 9//3 10//3 11//3
f 12//3 9//3 11//3
f 10//4 13//4 14//4
f 11//4 10//4 14//4
f 13//1 15//1 16//1
f 14//1 13//1 16//1
f 15//2 9//2 12//2
f 16//2 15//2 12//2
f 17//5 18//6 19//7
f 17//5 19//7 20//8
f 18//6 21//9 22//10
f 18//6 22//10 19//7
f 21//9 23//11 24//12
f 21//9 24//12 22//10
f 23//11 25//13 26//14
f 23//11 26//14 24//12
f 25//13 27//15 28//16
f 25//13 28//16 26//14
f 27//15 29//17 30//18
f 27//15 30//18 28//16
f 29//17 31//19 32//20
f 29//17 32//20 30//18
f 31//19 33//21 34//22
f 31//19 34//22 32//20
f 33//21 35//23 36//24
f 33//21 36//24 34//22
f 35//23 37//25 38//26
f 35//23 38//26 36//24
f 37//25 39//27 40//28
f 37//25 40//28 38//26
f 39//27 41//29 42//30
f 39//27 42//30 40//28
f 41//29 43//31 44//32
f 41//29 44//32 42//30
f 43//31 45//33 46//34
f 43//31 46//34 44//32
f 45//33 47//35 48//36
f 45//33 48//36 46//34
f 47//35 17//5 20//8
f 47//35 20//8 48//36
f 49//37 50//38 51//39
f 52//40 49//37 51//39
f 53//41 54//42 50//38
f 49//37 53//41 50//38
f 55//43 56//44 54//42
f 53//41 55//43 54//42
f 57//45 58//46 56//44
f 55//43 57//45 56//44
f 59//47 60//48 58//46
f 57//45 59//47 58//46
f 61//49 62//50 60//48
f 59//47 61//49 60//48
f 63//51 64//52 62//50
f 61//49 63//51 62//50
f 65//53 66//54 64//52
f 63//51 65//53 64//52
f 67//55 68//56 66//54
f 65//53 67//55 66//54
f 69//57 70//58 68//56
f 67//55 69//57 68//56
f 71//59 72//60 70//58
f 69//57 71//59 70//58
f 73//61 74//62 72//60
f 71//59 73//61 72//60
f 75//63 76//64 74//62
f 73//61 75//63 74//62
f 77//65 78//66 76//64
f 75//63 77//65 76//64
f 79//67 80//68 78//66
f 77//65 79//67 78//66
f 52//40 51//39 80//68
f 79//67 52//40 80//68
f 26//69 28//69 59//69
f 57//69 26//69 59//69
f 28//69 30//69 61//69
f 59//69 28//69 61//69
f 30//69 32//69 63//69
f 61//69 30//69 63//69
f 32//69 34//69 65//69
f 63//69 32//69 65//69
f 34//69 36//69 67//69
f 65//69 34//69 67//69
f 36//69 38//69 69//69
f 67//69 36//69 69//69
f 38//69 40//69 71//69
f 69//69 38//69 71//69
f 40//69 42//69 73//69
f 71//69 40//69 73//69
f 42//69 44//69 75//69
f 73//69 42//69 75//69
f 44//69 46//69 77//69
f 75//69 44//69 77//69
f 46//69 48//69 79//69
f 77//69 46//69 79//69
f 48//69 20//69 52//69
f 79//69 48//69 52//69
f 20//69 19//69 49//69
f 52//69 20//69 49//69
f 19//69 22//69 53//69
f 49//69 19//69 53//69
f 22//69 24//69 55//69
f 53//69 22//69 55//69
f 24//69 26//69 57//69
f 55//69 24//69 57//69
f 81//5 82//6 83//7
f 81//5 83//7 84//8
f 82//6 85//9 86//10
f 82//6 86//10 83//7
f 85//9 87//11 88//12
f 85//9 88//12 86//10
f 87//11 89//13 90//14
f 87//11 90//14 88//12
f 89//13 91//15 92//16
f 89//13 92//16 90//14
f 91//15 93//17 94//18
f 91//15 94//18 92//16
f 93//17 95//19 96//20
f 93//17 96//20 94//18
f 95//19 97//21 98//22
f 95//19 98//22 96//20
f 97//21 99//23 100//24
f 97//21 100//24 98//22
f 99//23 101//25 102//26
f 99//23 102//26 100//24
f 101//25 103//27 104//28
f 101//25 104//28 102//26
f 103//27 105//29 106//30
f 103//27 106//30 104//28
f 105//29 107//31 108//32
f 105//29 108//32 106//30
f 107//31 109//33 110//34
f 107//31 110//34 108//32
f 109//33 111//35 112//36
f 109//33 112//36 110//34
f 111//35 81//5 84//8
f 111//35 84//8 112//36
f 113//37 114//38 115//39
f 116//40 113//37 115//39
f 117//41 118//42 114//38
f 113//37 117//41 114//38
f 119//43 120//44 118//42
f 117//41 119//43 118//42
f 121//45 122//46 120//44
f 119//43 121//45 120//44
f 123//47 124//48 122//46
f 121//45 123//47 122//46
f 125//49 126//50 124//48
f 123//47 125//49 124//48
f 127//51 128//52 126//50
f 125//49 127//51 126//50
f 129//53 130//54 128//52
f 127//51 129//53 128//52
f 131//55 132//56 130//54
f 129//53 131//55 130//54
f 133//57 134//58 132//56
f 131//55 133//57 132//56
f 135//59 136//60 134//58
f 133//57 135//59 134//58
f 137//61 138//62 136//60
f 135//59 137//61 136//60
f 139//63 140//64 138//62
f 137//61 139//63 138//62
f 141//65 142//66 140//64
f 139//63 141//65 140//64
f 143//67 144//68 142//66
f 141//65 143//67 142//66
f 116//40 115//39 144//68
f 143//67 116//40 144//68
f 90//69 92//69 123//69
f 121//69 90//69 123//69
f 92//69 94//69 125//69
f 123//69 92//69 125//69
f 94//69 96//69 127//69
f 125//69 94//69 127//69
f 96//69 98//69 129//69
f 127//69 96//69 129//69
f 98//69 100//69 131//69
f 129//69 98//69 131//69
f 100//69 102//69 133//69
f 131//69 100//69 133//69
f 102//69 104//69 135//69
f 133//69 102//69 135//69
f 104//69 106//69 137//69
f 135//69 104//69 137//69
f 106//69 108//69 139//69
f 137//69 106//69 139//69
f 108//69 110//69 141//69
f 139//69 108//69 141//69
f 110//69 112//69 143//69
f 141//69 110//69 143//69
f 112//69 84//69 116//69
f 143//69 112//69 116//69
f 84//69 83//69 113//69
f 116//69 84//69 113//69
f 83//69 86//69 117//69
f 113//69 83//69 117//69
f 86//69 88//69 119//69
f 117//69 86//69 119//69
f 88//69 90//69 121//69
f 119//69 88//69 121//69
f 145//5 146//6 147//7
f 145//5 147//7 148//8
f 146//6 149//9 150//10
f 146//6 150//10 147//7
f 149//9 151//11 152//12
f 149//9 152//12 150//10
f 151//11 153//13 154//14
f 151//11 154//14 152//12
f 153//13 155//15 156//16
f 153//13 156//16 154//14
f 155//15 157//17 158//18
f 155//15 158//18 156//16
f 157//17 159//19 160//20
f 157//17 160//20 158//18
f 159//19 161//21 162//22
f 159//19 162//22 160//20
f 161//21 163//23 164//24
f 161//21 164//24 162//22
f 163//23 165//25 166//26
f 163//23 166//26 164//24
f 165//25 167//27 168//28
f 165//25 168//28 166//26
f 167//27 169//29 170//30
f 167//27 170//30 168//28
f 169//29 171//31 172//32
f 169//29 172//32 170//30
f 171//31 173//33 174//34
f 171//31 174//34 172//32
f 173//33 175//35 176//36
f 173//33 176//36 174//34
f 175//35 145//5 148//8
f 175//35 148//8 176//36
f 177//37 178//38 179//39
f 180//40 177//37 179//39
f 181//41 182//42 178//38
f 177//37 181//41 178//38
f 183//43 184//44 182//42
f 181//41 183//43 182//42
f 185//45 186//46 184//44
f 183//43 185//45 184//44
f 187//47 188//48 186//46
f 185//45 187//47 186//46
f 189//49 190//50 188//48
f 187//47 189//49 188//48
f 191//51 192//52 190//50
f 189//49 191//51 190//50
f 193//53 194//54 192//52
f 191//51 193//53 192//52
f 195//55 196//56 194//54
f 193//53 195//55 194//54
f 197//57 198//58 196//56
f 195//55 197//57 196//56
f 199//59 200//60 198//58
f 197//57 199//59 198//58
f 201//61 202//62 200//60
f 199//59 201//61 200//60
f 203//63 204//64 202//62
f 201//61 203//63 202//62
f 205//65 206//66 204//64
f 203//63 205//65 204//64
f 207//67 208//68 206//66
f 205//65 207//67 206//66
f 180//40 179//39 208//68
f 207//67 180//40 208//68
f 154//69 156//69 187//69
f 185//69 154//69 187//69
f 156//69 158//69 189//69
f 187//69 156//69 189//69
f 158//69 160//69 191//69
f 189//69 158//69 191//69
f 160//69 162//69 193//69
f 191//69 160//69 193//69
f 162//69 164//69 195//69
f 193//69 162//69 195//69
f 164//69 166//69 197//69
f 195//69 164//69 197//69
f 166//69 168//69 199//69
f 197//69 166//69 199//69
f 168//69 170//69 201//69
f 199//69 168//69 201//69
f 170//69 172//69 203//69
f 201//69 170//69 203//69
f 172//69 174//69 205//69
f 203//69 172//69 205//69
f 174//69 176//69 207//69
f 205//69 174//69 207//69
f 176//69 148//69 180//69
f 207//69 176//69 180//69
f 148//69 147//69 177//69
f 180//69 148//69 177//69
f 147//69 150//69 181//69
f 177//69 147//69 181//69
f 150//69 152//69 183//69
f 181//69 150//69 183//69
f 152//69 154//69 185//69
f 183//69 152//69 185//69
f 209//7 18//6 17//5
f 210//8 209//7 17//5
f 211//10 21//9 18//6
f 209//7 211//10 18//6
f 212//12 23//11 21//9
f 211//10 212//12 21//9
f 213//14 25//13 23//11
f 212//12 213//14 23//11
f 214//16 27//15 25//13
f 213//14 214//16 25//13
f 215//18 29//17 27//15
f 214//16 215//18 27//15
f 216//20 31//19 29//17
f 215//18 216//20 29//17
f 217//22 33//21 31//19
f 216//20 217//22 31//19
f 218//24 35//23 33//21
f 217//22 218//24 33//21
f 219//26 37//25 35//23
f 218//24 219//26 35//23
f 220//28 39//27 37//25
f 219//26 220//28 37//25
f 221//30 41//29 39//27
f 220//28 221//30 39//27
f 222//32 43//31 41//29
f 221//30 222//32 41//29
f 223//34 45//33 43//31
f 222//32 223//34 43//31
f 224//36 47//35 45//33
f 223//34 224//36 45//33
f 210//8 17//5 47//35
f 224//36 210//8 47//35
f 225//7 82//6 81//5
f 226//8 225//7 81//5
f 227//10 85//9 82//6
f 225//7 227//10 82//6
f 228//12 87//11 85//9
f 227//10 228//12 85//9
f 229//14 89//13 87//11
f 228//12 229//14 87//11
f 230//16 91//15 89//13
f 229//14 230//16 89//13
f 231//18 93//17 91//15
f 230//16 231//18 91//15
f 232//20 95//19 93//17
f 231//18 232//20 93//17
f 233//22 97//21 95//19
f 232//20 233//22 95//19
f 234//24 99//23 97//21
f 233//22 234//24 97//21
f 235//26 101//25 99//23
f 234//24 235//26 99//23
f 236//28 103//27 101//25
f 235//26 236//28 101//25
f 237//30 105//29 103//27
f 236//28 237//30 103//27
f 238//32 107//31 105//29
f 237//30 238//32 105//29
f 239//34 109//33 107//31
f 238//32 239//34 107//31
f 240//36 111//35 109//33
f 239//34 240//36 109//33
f 226//8 81//5 111//35
f 240//36 226//8 111//35
f 241//7 146//6 145//5
f 242//8 241//7 145//5
f 243//10 149//9 146//6
f 241//7 243//10 146//6
f 244//12 151//11 149//9
f 243//10 244//12 149//9
f 245//14 153//13 151//11
f 244//12 245//14 151//11
f 246//16 155//15 153//13
f 245//14 246//16 153//13
f 247//18 157//17 155//15
f 246//16 247//18 155//15
f 248//20 159//19 157//17
f 247//18 248//20 157//17
f 249//22 161//21 159//19
f 248//20 249//22 159//19
f 250//24 163//23 161//21
f 249//22 250//24 161//21
f 251//26 165//25 163//23
f 250//24 251//26 163//23
f 252//28 167//27 165//25
f 251//26 252//28 165//25
f 253//30 169//29 167//27
f 252//28 253//30 167//27
f 254//32 171//31 169//29
f 253//30 254//32 169//29
f 255//34 173//33 171//31
f 254//32 255//34 171//31
f 256//36 175//35 173//33
f 255//34 256//36 173//33
f 242//8 145//5 175//35
f 256//36 242//8 175//35
f 4//69 12//69 11//69
f 4//69 11//69 1//69
f 1//69 11//69 14//69
f 1//69 14//69 5//69
f 5//69 14//69 16//69
f 5//69 16//69 7//69
f 7//69 16//69 12//69
f 7//69 12//69 4//69
f 257//69 51//69 50//69
f 257//69 50//69 54//69
f 257//69 54//69 56//69
f 257//69 56//69 58//69
f 258//69 58//69 60//69
f 258//69 60//69 62//69
f 258//69 62//69 64//69
f 258//69 64//69 66//69
f 259//69 66//69 68//69
f 259//69 68//69 70//69
f 259//69 70//69 72//69
f 259//69 72//69 74//69
f 260//69 74//69 76//69
f 260//69 76//69 78//69
f 260//69 78//69 80//69
f 260//69 80//69 51//69
f 261//69 115//69 114//69
f 261//69 114//69 118//69
f 261//69 118//69 120//69
f 261//69 120//69 122//69
f 262//69 122//69 124//69
f 262//69 124//69 126//69
f 262//69 126//69 128//69
f 262//69 128//69 130//69
f 263//69 130//69 132//69
f 263//69 132//69 134//69
f 263//69 134//69 136//69
f 263//69 136//69 138//69
f 264//69 138//69 140//69
f 264//69 140//69 142//69
f 264//69 142//69 144//69
f 264//69 144//69 115//69
f 265//69 179//69 178//69
f 265//69 178//69 182//69
f 265//69 182//69 184//69
f 265//69 184//69 186//69
f 266//69 186//69 188//69
f 266//69 188//69 190//69
f 266//69 190//69 192//69
f 266//69 192//69 194//69
f 267//69 194//69 196//69
f 267//69 196//69 198//69
f 267//69 198//69 200//69
f 267//69 200//69 202//69
f 268//69 202//69 204//69
f 268//69 204//69 206//69
f 268//69 206//69 208//69
f 268//69 208//69 179//69
f 9//69 257//69 266//69
f 9//69 266//69 10//69
f 10//69 266//69 267//69
f 10//69 267//69 13//69
f 13//69 267//69 260//69
f 13//69 260//69 15//69
f 15//69 260//69 257//69
f 15//69 257//69 9//69
f 258//69 259//69 264//69
f 258//69 264//69 261//69
f 262//69 263//69 268//69
f 262//69 268//69 265//69
f 209//70 210//70 269//70
f 211//70 209//70 269//70
f 212//70 211//70 269//70
f 213//70 212//70 269//70
f 214//70 213//70 270//70
f 215//70 214//70 270//70
f 216//70 215//70 270//70
f 217//70 216//70 270//70
f 218//70 217//70 271//70
f 219//70 218//70 271//70
f 220//70 219//70 271//70
f 221//70 220//70 271//70
f 222//70 221//70 272//70
f 223//70 222//70 272//70
f 224//70 223//70 272//70
f 210//70 224//70 272//70
f 225//70 226//70 273//70
f 227//70 225//70 273//70
f 228//70 227//70 273//70
f 229//70 228//70 273//70
f 230//70 229//70 274//70
f 231//70 230//70 274//70
f 232//70 231//70 274//70
f 233//70 232//70 274//70
f 234//70 233//70 275//70
f 235//70 234//70 275//70
f 236//70 235//70 275//70
f 237//70 236//70 275//70
f 238//70 237//70 276//70
f 239//70 238//70 276//70
f 240//70 239//70 276//70
f 226//70 240//70 276//70
f 241//70 242//70 277//70
f 243//70 241//70 277//70
f 244//70 243//70 277//70
f 245//70 244//70 277//70
f 246//70 245//70 278//70
f 247//70 246//70 278//70
f 248//70 247//70 278//70
f 249//70 248//70 278//70
f 250//70 249//70 279//70
f 251//70 250//70 279//70
f 252//70 251//70 279//70
f 253//70 252//70 279//70
f 254//70 253//70 280//70
f 255//70 254//70 280//70
f 256//70 255//70 280//70
f 242//70 256//70 280//70
f 8//70 272//70 279//70
f 8//70 279//70 6//70
f 6//70 279//70 278//70
f 6//70 278//70 2//70
f 2//70 278//70 269//70
f 2//70 269//70 3//70
f 3//70 269//70 272//70
f 3//70 272//70 8//70
f 271//70 270//70 273//70
f 271//70 273//70 276//70
f 275//70 274//70 277//70
f 275//70 277//70 280//70
f 281//24 282//23 283//21
f 284//22 281//24 283//21
f 285//26 286//25 282//23
f 281//24 285//26 282//23
f 287//28 288//27 286//25
f 285//26 287//28 286//25
f 289//30 290//29 288//27
f 287//28 289//30 288//27
f 291//32 292//31 290//29
f 289//30 291//32 290//29
f 293//34 294//33 292//31
f 291//32 293//34 292//31
f 295//36 296//35 294//33
f 293//34 295//36 294//33
f 297//8 298//5 296//35
f 295//36 297//8 296//35
f 299//7 300//6 298//5
f 297//8 299//7 298//5
f 301//10 302//9 300//6
f 299//7 301//10 300//6
f 303//12 304//11 302//9
f 301//10 303//12 302//9
f 305//14 306//13 304//11
f 303//12 305//14 304//11
f 307//16 308//15 306//13
f 305//14 307//16 306//13
f 309//18 310//17 308//15
f 307//16 309//18 308//15
f 311//20 312//19 310//17
f 309//18 311//20 310//17
f 284//22 283//21 312//19
f 311//20 284//22 312//19
f 313//70 283//70 282//70
f 313//70 282//70 286//70
f 313//70 286//70 288//70
f 313//70 288//70 290//70
f 313//70 290//70 292//70
f 313//70 292//70 294//70
f 313//70 294//70 296//70
f 313//70 296//70 298//70
f 313//70 298//70 300//70
f 313//70 300//70 302//70
f 313//70 302//70 304//70
f 313//70 304//70 306//70
f 313//70 306//70 308//70
f 313//70 308//70 310//70
f 313//70 310//70 312//70
f 313//70 312//70 283//70
f 314//24 315//23 316//21
f 317//22 314//24 316//21
f 318//26 319//25 315//23
f 314//24 318//26 315//23
f 320//28 321//27 319//25
f 318//26 320//28 319//25
f 322//30 323//29 321//27
f 320//28 322//30 321//27
f 324//32 325//31 323//29
f 322//30 324//32 323//29
f 326//34 327//33 325//31
f 324//32 326//34 325//31
f 328//36 329//35 327//33
f 326//34 328//36 327//33
f 330//8 331//5 329//35
f 328//36 330//8 329//35
f 332//7 333//6 331//5
f 330//8 332//7 331//5
f 334//10 335//9 333//6
f 332//7 334//10 333//6
f 336//12 337//11 335//9
f 334//10 336//12 335//9
f 338//14 339//13 337//11
f 336//12 338//14 337//11
f 340//16 341//15 339//13
f 338//14 340//16 339//13
f 342//18 343//17 341//15
f 340//16 342//18 341//15
f 344//20 345//19 343//17
f 342//18 344//20 343//17
f 317//22 316//21 345//19
f 344//20 317//22 345//19
f 346//70 316//70 315//70
f 346//70 315//70 319//70
f 346//70 319//70 321//70
f 346//70 321//70 323//70
f 346//70 323//70 325//70
f 346//70 325//70 327//70
f 346//70 327//70 329//70
f 346//70 329//70 331//70
f 346//70 331//70 333//70
f 346//70 333//70 335//70
f 346//70 335//70 337//70
f 346//70 337//70 339//70
f 346//70 339//70 341//70
f 346//70 341//70 343//70
f 346//70 343//70 345//70
f 346//70 345//70 316//70
f 347//24 348//23 349//21
f 350//22 347//24 349//21
f 351//26 352//25 348//23
f 347//24 351//26 348//23
f 353//28 354//27 352//25
f 351//26 353//28 352//25
f 355//30 356//29 354//27
f 353//28 355//30 354//27
f 357//32 358//31 356//29
f 355//30 357//32 356//29
f 359//34 360//33 358//31
f 357//32 359//34 358//31
f 361//36 362//35 360//33
f 359//34 361//36 360//33
f 363//8 364//5 362//35
f 361//36 363//8 362//35
f 365//7 366//6 364//5
f 363//8 365//7 364//5
f 367//10 368//9 366//6
f 365//7 367//10 366//6
f 369//12 370//11 368//9
f 367//10 369//12 368//9
f 371//14 372//13 370//11
f 369//12 371//14 370//11
f 373//16 374//15 372//13
f 371//14 373//16 372//13
f 375//18 376//17 374//15
f 373//16 375//18 374//15
f 377//20 378//19 376//17
f 375//18 377//20 376//17
f 350//22 349//21 378//19
f 377//20 350//22 378//19
f 379//70 349//70 348//70
f 379//70 348//70 352//70
f 379//70 352//70 354//70
f 379//70 354//70 356//70
f 379//70 356//70 358//70
f 379//70 358//70 360//70
f 379//70 360//70 362//70
f 379//70 362//70 364//70
f 379//70 364//70 366//70
f 379//70 366//70 368//70
f 379//70 368//70 370//70
f 379//70 370//70 372//70
f 379//70 372//70 374//70
f 379//70 374//70 376//70
f 379//70 376//70 378//70
f 379//70 378//70 349//70
f 380//24 381//23 382//21
f 383//22 380//24 382//21
f 384//26 385//25 381//23
f 380//24 384//26 381//23
f 386//28 387//27 385//25
f 384//26 386//28 385//25
f 388//30 389//29 387//27
f 386//28 388//30 387//27
f 390//32 391//31 389//29
f 388//30 390//32 389//29
f 392//34 393//33 391//31
f 390//32 392//34 391//31
f 394//36 395//35 393//33
f 392//34 394//36 393//33
f 396//8 397//5 395//35
f 394//36 396//8 395//35
f 398//7 399//6 397//5
f 396//8 398//7 397//5
f 400//10 401//9 399//6
f 398//7 400//10 399//6
f 402//12 403//11 401//9
f 400//10 402//12 401//9
f 404//14 405//13 403//11
f 402//12 404//14 403//11
f 406//16 407//15 405//13
f 404//14 406//16 405//13
f 408//18 409//17 407//15
f 406//16 408//18 407//15
f 410//20 411//19 409//17
f 408//18 410//20 409//17
f 383//22 382//21 411//19
f 410//20 383//22 411//19
f 412//70 382//70 381//70
f 412//70 381//70 385//70
f 412//70 385//70 387//70
f 412//70 387//70 389//70
f 412//70 389//70 391//70
f 412//70 391//70 393//70
f 412//70 393//70 395//70
f 412//70 395//70 397//70
f 412//70 397//70 399//70
f 412//70 399//70 401//70
f 412//70 401//70 403//70
f 412//70 403//70 405//70
f 412//70 405//70 407//70
f 412//70 407//70 409//70
f 412//70 409//70 411//70
f 412//70 411//70 382//70
f 413//24 414//23 415//21
f 416//22 413//24 415//21
f 417//26 418//25 414//23
f 413//24 417//26 414//23
f 419//28 420//27 418//25
f 417//26 419//28 418//25
f 421//30 422//29 420//27
f 419//28 421//30 420//27
f 423//32 424//31 422//29
f 421//30 423//32 422//29
f 425//34 426//33 424//31
f 423//32 425//34 424//31
f 427//36 428//35 426//33
f 425//34 427//36 426//33
f 429//8 430//5 428//35
f 427//36 429//8 428//35
f 431//7 432//6 430//5
f 429//8 431//7 430//5
f 433//10 434//9 432//6
f 431//7 433//10 432//6
f 435//12 436//11 434//9
f 433//10 435//12 434//9
f 437//14 438//13 436//11
f 435//12 437//14 436//11
f 439//16 440//15 438//13
f 437//14 439//16 438//13
f 441//18 442//17 440//15
f 439//16 441//18 440//15
f 443//20 444//19 442//17
f 441//18 443//20 442//17
f 416//22 415//21 444//19
f 443//20 416//22 444//19
f 445//70 415//70 414//70
f 445//70 414//70 418//70
f 445//70 418//70 420//70
f 445//70 420//70 422//70
f 445//70 422//70 424//70
f 445//70 424//70 426//70
f 445//70 426//70 428//70
f 445//70 428//70 430//70
f 445//70 430//70 432//70
f 445//70 432//70 434//70
f 445//70 434//70 436//70
f 445//70 436//70 438//70
f 445//70 438//70 440//70
f 445//70 440//70 442//70
f 445//70 442//70 444//70
f 445//70 444//70 415//70
f 446//24 447//23 448//21
f 449//22 446//24 448//21
f 450//26 451//25 447//23
f 446//24 450//26 447//23
f 452//28 453//27 451//25
f 450//26 452//28 451//25
f 454//30 455//29 453//27
f 452//28 454//30 453//27
f 456//32 457//31 455//29
f 454//30 456//32 455//29
f 458//34 459//33 457//31
f 456//32 458//34 457//31
f 460//36 461//35 459//33
f 458//34 460//36 459//33
f 462//8 463//5 461//35
f 460//36 462//8 461//35
f 464//7 465//6 463//5
f 462//8 464//7 463//5
f 466//10 467//9 465//6
f 464//7 466//10 465//6
f 468//12 469//11 467//9
f 466//10 468//12 467//9
f 470//14 471//13 469//11
f 468//12 470//14 469//11
f 472//16 473//15 471//13
f 470//14 472//16 471//13
f 474//18 475//17 473//15
f 472//16 474//18 473//15
f 476//20 477//19 475//17
f 474//18 476//20 475//17
f 449//22 448//21 477//19
f 476//20 449//22 477//19
f 478//70 448//70 447//70
f 478//70 447//70 451//70
f 478//70 451//70 453//70
f 478//70 453//70 455//70
f 478//70 455//70 457//70
f 478//70 457//70 459//70
f 478//70 459//70 461//70
f 478//70 461//70 463//70
f 478//70 463//70 465//70
f 478//70 465//70 467//70
f 478//70 467//70 469//70
f 478//70 469//70 471//70
f 478//70 471//70 473//70
f 478//70 473//70 475//70
f 478//70 475//70 477//70
f 478//70 477//70 448//70
f 479//24 480//23 481//21
f 482//22 479//24 481//21
f 483//26 484//25 480//23
f 479//24 483//26 480//23
f 485//28 486//27 484//25
f 483//26 485//28 484//25
f 487//30 488//29 486//27
f 485//28 487//30 486//27
f 489//32 490//31 488//29
f 487//30 489//32 488//29
f 491//34 492//33 490//31
f 489//32 491//34 490//31
f 493//36 494//35 492//33
f 491//34 493//36 492//33
f 495//8 496//5 494//35
f 493//36 495//8 494//35
f 497//7 498//6 496//5
f 495//8 497//7 496//5
f 499//10 500//9 498//6
f 497//7 499//10 498//6
f 501//12 502//11 500//9
f 499//10 501//12 500//9
f 503//14 504//13 502//11
f 501//12 503//14 502//11
f 505//16 506//15 504//13
f 503//14 505//16 504//13
f 507//18 508//17 506//15
f 505//16 507//18 506//15
f 509//20 510//19 508//17
f 507//18 509//20 508//17
f 482//22 481//21 510//19
f 509//20 482//22 510//19
f 511//70 481//70 480//70
f 511//70 480//70 484//70
f 511//70 484//70 486//70
f 511//70 486//70 488//70
f 511//70 488//70 490//70
f 511//70 490//70 492//70
f 511//70 492//70 494//70
f 511//70 494//70 496//70
f 511//70 496//70 498//70
f 511//70 498//70 500//70
f 511//70 500//70 502//70
f 511//70 502//70 504//70
f 511//70 504//70 506//70
f 511//70 506//70 508//70
f 511//70 508//70 510//70
f 511//70 510//70 481//70
f 512//24 513//23 514//21
f 515//22 512//24 514//21
f 516//26 517//25 513//23
f 512//24 516//26 513//23
f 518//28 519//27 517//25
f 516//26 518//28 517//25
f 520//30 521//29 519//27
f 518//28 520//30 519//27
f 522//32 523//31 521//29
f 520//30 522//32 521//29
f 524//34 525//33 523//31
f 522//32 524//34 523//31
f 526//36 527//35 525//33
f 524//34 526//36 525//33
f 528//8 529//5 527//35
f 526//36 528//8 527//35
f 530//7 531//6 529//5
f 528//8 530//7 529//5
f 532//10 533//9 531//6
f 530//7 532//10 531//6
f 534//12 535//11 533//9
f 532//10 534//12 533//9
f 536//14 537//13 535//11
f 534//12 536//14 535//11
f 538//16 539//15 537//13
f 536//14 538//16 537//13
f 540//18 541//17 539//15
f 538//16 540//18 539//15
f 542//20 543//19 541//17
f 540//18 542//20 541//17
f 515//22 514//21 543//19
f 542//20 515//22 543//19
f 544//70 514//70 513//70
f 544//70 513//70 517//70
f 544//70 517//70 519//70
f 544//70 519//70 521//70
f 544//70 521//70 523//70
f 544//70 523//70 525//70
f 544//70 525//70 527//70
f 544//70 527//70 529//70
f 544//70 529//70 531//70
f 544//70 531//70 533//70
f 544//70 533//70 535//70
f 544//70 535//70 537//70
f 544//70 537//70 539//70
f 544//70 539//70 541//70
f 544//70 541//70 543//70
f 544//70 543//70 514//70
