# Botball Lab: metres, +Y up, centred XZ, base Y=0
s off
v -0.0008000 0.0072000 -0.0055591
v 0.0000000 0.0072000 -0.0054000
v 0.0000000 0.0008000 -0.0054000
v -0.0008000 0.0008000 -0.0055591
v -0.0008000 0.0008000 -0.0062000
v -0.0008000 0.0072000 -0.0062000
v -0.0010000 0.0008000 -0.0068000
v -0.0010000 0.0072000 -0.0068000
v -0.0016000 0.0008000 -0.0070000
v -0.0016000 0.0072000 -0.0070000
v -0.0022409 0.0008000 -0.0070000
v -0.0022409 0.0072000 -0.0070000
v -0.0024000 0.0008000 -0.0078000
v -0.0024000 0.0072000 -0.0078000
v -0.0022174 0.0072000 -0.0087185
v -0.0022174 0.0008000 -0.0087185
v -0.0018926 0.0072000 -0.0092046
v -0.0018926 0.0008000 -0.0092046
v -0.0012092 0.0008000 -0.0087303
v -0.0012092 0.0072000 -0.0087303
v -0.0010000 0.0008000 -0.0088000
v -0.0010000 0.0072000 -0.0088000
v -0.0009303 0.0072000 -0.0090092
v -0.0009303 0.0008000 -0.0090092
v -0.0014046 0.0008000 -0.0096926
v -0.0014046 0.0072000 -0.0096926
v -0.0009185 0.0072000 -0.0100174
v -0.0009185 0.0008000 -0.0100174
v 0.0000000 0.0072000 -0.0102000
v 0.0000000 0.0008000 -0.0102000
v 0.0008000 0.0072000 -0.0100409
v 0.0008000 0.0008000 -0.0100409
v 0.0008000 0.0008000 -0.0094000
v 0.0008000 0.0072000 -0.0094000
v 0.0010000 0.0008000 -0.0088000
v 0.0010000 0.0072000 -0.0088000
v 0.0016000 0.0008000 -0.0086000
v 0.0016000 0.0072000 -0.0086000
v 0.0022409 0.0008000 -0.0086000
v 0.0022409 0.0072000 -0.0086000
v 0.0024000 0.0008000 -0.0078000
v 0.0024000 0.0072000 -0.0078000
v 0.0022174 0.0072000 -0.0068815
v 0.0022174 0.0008000 -0.0068815
v 0.0018926 0.0072000 -0.0063954
v 0.0018926 0.0008000 -0.0063954
v 0.0012092 0.0008000 -0.0068697
v 0.0012092 0.0072000 -0.0068697
v 0.0010000 0.0008000 -0.0068000
v 0.0010000 0.0072000 -0.0068000
v 0.0009303 0.0072000 -0.0065908
v 0.0009303 0.0008000 -0.0065908
v 0.0014046 0.0008000 -0.0059074
v 0.0014046 0.0072000 -0.0059074
v 0.0009185 0.0072000 -0.0055826
v 0.0009185 0.0008000 -0.0055826
v -0.0016971 0.0072000 -0.0061029
v -0.0009184 0.0072000 -0.0055826
v -0.0022174 0.0072000 -0.0068816
v -0.0016972 0.0072000 -0.0094972
v -0.0016970 0.0072000 -0.0094970
v 0.0016971 0.0072000 -0.0094971
v 0.0009184 0.0072000 -0.0100174
v 0.0022174 0.0072000 -0.0087184
v 0.0016970 0.0072000 -0.0061030
v -0.0009184 0.0008000 -0.0055826
v -0.0016971 0.0008000 -0.0061029
v -0.0022174 0.0008000 -0.0068816
v -0.0016972 0.0008000 -0.0094972
v -0.0016970 0.0008000 -0.0094970
v 0.0009184 0.0008000 -0.0100174
v 0.0016971 0.0008000 -0.0094971
v 0.0022174 0.0008000 -0.0087184
v 0.0016970 0.0008000 -0.0061030
v -0.0036000 0.0000000 -0.0078000
v -0.0033260 0.0000000 -0.0091777
v -0.0022174 0.0000000 -0.0087185
v -0.0024000 0.0000000 -0.0078000
v -0.0025456 0.0000000 -0.0103456
v -0.0016970 0.0000000 -0.0094970
v -0.0013777 0.0000000 -0.0111260
v -0.0009185 0.0000000 -0.0100174
v 0.0000000 0.0000000 -0.0114000
v 0.0000000 0.0000000 -0.0102000
v 0.0013777 0.0000000 -0.0111260
v 0.0009185 0.0000000 -0.0100174
v 0.0025456 0.0000000 -0.0103456
v 0.0016970 0.0000000 -0.0094970
v 0.0033260 0.0000000 -0.0091777
v 0.0022174 0.0000000 -0.0087185
v 0.0036000 0.0000000 -0.0078000
v 0.0024000 0.0000000 -0.0078000
v -0.0004774 0.0000000 -0.0054000
v -0.0009185 0.0000000 -0.0055826
v 0.0000000 0.0000000 -0.0054000
v -0.0013596 0.0000000 -0.0057653
v -0.0016970 0.0000000 -0.0061030
v -0.0020347 0.0000000 -0.0064404
v -0.0022174 0.0000000 -0.0068815
v -0.0024000 0.0000000 -0.0073226
v 0.0009185 0.0000000 -0.0055826
v 0.0004774 0.0000000 -0.0054000
v 0.0016970 0.0000000 -0.0061030
v 0.0013596 0.0000000 -0.0057653
v 0.0022174 0.0000000 -0.0068815
v 0.0020347 0.0000000 -0.0064404
v 0.0024000 0.0000000 -0.0073226
v 0.0035480 0.0000000 -0.0050240
v 0.0023235 0.0000000 -0.0051088
v 0.0013776 0.0000000 -0.0044740
v 0.0000000 0.0000000 -0.0042000
v -0.0035480 0.0000000 -0.0050240
v -0.0013776 0.0000000 -0.0044740
v -0.0023248 0.0000000 -0.0051069
v -0.0022174 0.0080000 -0.0087185
v -0.0033260 0.0080000 -0.0091777
v -0.0036000 0.0080000 -0.0078000
v -0.0024000 0.0080000 -0.0078000
v -0.0016970 0.0080000 -0.0094970
v -0.0025456 0.0080000 -0.0103456
v -0.0009185 0.0080000 -0.0100174
v -0.0013777 0.0080000 -0.0111260
v 0.0000000 0.0080000 -0.0102000
v 0.0000000 0.0080000 -0.0114000
v 0.0009185 0.0080000 -0.0100174
v 0.0013777 0.0080000 -0.0111260
v 0.0016970 0.0080000 -0.0094970
v 0.0025456 0.0080000 -0.0103456
v 0.0022174 0.0080000 -0.0087185
v 0.0033260 0.0080000 -0.0091777
v 0.0024000 0.0080000 -0.0078000
v 0.0036000 0.0080000 -0.0078000
v 0.0000000 0.0080000 -0.0054000
v -0.0009185 0.0080000 -0.0055826
v -0.0004774 0.0080000 -0.0054000
v -0.0016970 0.0080000 -0.0061030
v -0.0013596 0.0080000 -0.0057653
v -0.0022174 0.0080000 -0.0068815
v -0.0020347 0.0080000 -0.0064404
v -0.0024000 0.0080000 -0.0073226
v 0.0004774 0.0080000 -0.0054000
v 0.0009185 0.0080000 -0.0055826
v 0.0013596 0.0080000 -0.0057653
v 0.0016970 0.0080000 -0.0061030
v 0.0020347 0.0080000 -0.0064404
v 0.0022174 0.0080000 -0.0068815
v 0.0024000 0.0080000 -0.0073226
v 0.0033250 0.0080000 -0.0064231
v 0.0025448 0.0080000 -0.0052552
v 0.0013769 0.0080000 -0.0044750
v 0.0000000 0.0080000 -0.0042000
v -0.0033250 0.0080000 -0.0064231
v -0.0025448 0.0080000 -0.0052552
v -0.0013769 0.0080000 -0.0044750
v -0.0009185 0.0072000 -0.0055826
v -0.0016970 0.0072000 -0.0061030
v -0.0022174 0.0072000 -0.0068815
v 0.0009185 0.0072000 -0.0100174
v 0.0016970 0.0072000 -0.0094970
v 0.0022174 0.0072000 -0.0087185
v 0.0022174 0.0008000 -0.0087185
v 0.0016970 0.0008000 -0.0094970
v 0.0009185 0.0008000 -0.0100174
v -0.0022174 0.0008000 -0.0068815
v -0.0016970 0.0008000 -0.0061030
v -0.0009185 0.0008000 -0.0055826
v 0.0008760 0.0011680 0.0114000
v 0.0000000 0.0020000 0.0114000
v -0.0008760 0.0011680 0.0114000
v 0.0012000 0.0000000 0.0114000
v -0.0012000 0.0000000 0.0114000
v -0.0033240 0.0022440 -0.0064240
v -0.0025440 0.0043800 -0.0052560
v -0.0013760 0.0063200 -0.0044760
v 0.0033240 0.0022440 -0.0064240
v 0.0025440 0.0043800 -0.0052560
v 0.0013760 0.0063200 -0.0044760
v 0.0000000 0.0052000 -0.0042000
v -0.0013776 0.0021200 -0.0044740
v 0.0013776 0.0021200 -0.0044740
v 0.0034040 0.0000000 -0.0022480
v 0.0022640 0.0000000 -0.0040080
v -0.0022640 0.0000000 -0.0040080
v -0.0034040 0.0000000 -0.0022480
v 0.0021000 0.0000000 -0.0021160
v -0.0021000 0.0000000 -0.0021160
v 0.0012080 0.0000000 0.0035080
v 0.0023880 0.0000000 0.0060200
v 0.0007840 0.0000000 0.0053600
v -0.0012080 0.0000000 0.0035080
v -0.0007840 0.0000000 0.0053600
v -0.0023880 0.0000000 0.0060200
v 0.0018600 0.0000000 0.0087480
v 0.0002920 0.0000000 0.0071920
v -0.0002922 0.0000000 0.0071920
v -0.0018600 0.0000000 0.0087480
v 0.0000000 0.0000000 0.0082000
v 0.0000000 0.0028960 0.0044000
v 0.0000000 0.0035920 0.0030680
v 0.0000000 0.0020920 0.0056640
v 0.0000000 0.0011760 0.0068520
v 0.0032360 0.0021440 -0.0027440
v 0.0029640 0.0018480 0.0009280
v 0.0031600 0.0000000 0.0005200
v 0.0028240 0.0000000 0.0032760
v 0.0025160 0.0013520 0.0045800
v 0.0018880 0.0007200 0.0082080
v -0.0032360 0.0021440 -0.0027440
v -0.0029640 0.0018480 0.0009280
v -0.0031600 0.0000000 0.0005200
v -0.0028240 0.0000000 0.0032770
v -0.0025160 0.0013520 0.0045800
v -0.0018880 0.0007200 0.0082080
v 0.0025440 0.0043033 -0.0019714
v 0.0022960 0.0039094 0.0012836
v 0.0019840 0.0032612 0.0045374
v 0.0015520 0.0023700 0.0077819
v -0.0025440 0.0043033 -0.0019714
v -0.0022960 0.0039094 0.0012836
v -0.0019840 0.0032612 0.0045374
v -0.0015520 0.0023700 0.0077819
v 0.0013240 0.0060109 -0.0012672
v 0.0011680 0.0054677 0.0017656
v 0.0009080 0.0046078 0.0050807
v 0.0000000 0.0046372 0.0073209
v 0.0005400 0.0034598 0.0081297
v 0.0000000 0.0035994 0.0090382
v -0.0013240 0.0060109 -0.0012672
v -0.0011680 0.0054677 0.0017656
v -0.0009080 0.0046078 0.0050807
v -0.0005400 0.0034598 0.0081297
v 0.0000000 0.0025002 0.0106881
v 0.0000000 0.0077336 -0.0022350
v 0.0000000 0.0073645 -0.0002602
v 0.0000000 0.0069139 0.0017112
v 0.0000000 0.0063059 0.0036392
v 0.0000000 0.0055444 0.0055158
v 0.0000000 0.0051320 -0.0027040
v -0.0023235 0.0000000 -0.0051088
v 0.0008882 0.0045352 -0.0008166
v 0.0010158 0.0045600 0.0002000
v 0.0007183 0.0052965 0.0002000
v 0.0001842 0.0045600 -0.0017279
v 0.0003888 0.0045600 -0.0016478
v 0.0000000 0.0052965 -0.0012142
v 0.0000000 0.0049700 -0.0014739
v 0.0000000 0.0056015 0.0002000
v 0.0008882 0.0042986 -0.0008166
v 0.0010158 0.0043976 0.0002000
v 0.0003594 0.0041299 -0.0016626
v 0.0020794 0.0027600 0.0002000
v 0.0019212 0.0034945 0.0002000
v 0.0019212 0.0027600 -0.0009061
v 0.0016294 0.0036032 -0.0010696
v 0.0014704 0.0027600 -0.0018436
v 0.0009135 0.0036032 -0.0020647
v 0.0009052 0.0029122 -0.0023189
v 0.0005596 0.0037029 -0.0020791
v 0.0014704 0.0041172 0.0002000
v 0.0019212 0.0000000 -0.0009061
v 0.0020794 0.0000000 0.0002000
v 0.0014694 0.0014818 -0.0018445
v 0.0008882 0.0045352 0.0012166
v 0.0003888 0.0045600 0.0020478
v 0.0000000 0.0045600 0.0022000
v 0.0000000 0.0052965 0.0016142
v 0.0008882 0.0042986 0.0012166
v 0.0003888 0.0041310 0.0020478
v 0.0000000 0.0041172 0.0022436
v 0.0019212 0.0027600 0.0013061
v 0.0016294 0.0036032 0.0014696
v 0.0014704 0.0027600 0.0022436
v 0.0009135 0.0036032 0.0024647
v 0.0007958 0.0027600 0.0028702
v 0.0000646 0.0035022 0.0028415
v 0.0003035 0.0027600 0.0030063
v 0.0000000 0.0037978 0.0025650
v 0.0019212 0.0000000 0.0013061
v 0.0014704 0.0000000 0.0022436
v 0.0007958 0.0014268 0.0028702
v -0.0010158 0.0045600 0.0002000
v -0.0008882 0.0045352 -0.0008166
v -0.0007183 0.0052965 0.0002000
v -0.0003888 0.0045600 -0.0016478
v -0.0001842 0.0045600 -0.0017279
v -0.0010158 0.0043976 0.0002000
v -0.0008882 0.0042986 -0.0008166
v -0.0003594 0.0041299 -0.0016626
v -0.0019212 0.0034945 0.0002000
v -0.0020794 0.0027600 0.0002000
v -0.0019212 0.0027600 -0.0009061
v -0.0016294 0.0036032 -0.0010696
v -0.0014704 0.0027600 -0.0018436
v -0.0009135 0.0036032 -0.0020647
v -0.0009052 0.0029122 -0.0023189
v -0.0005596 0.0037029 -0.0020791
v -0.0014704 0.0041172 0.0002000
v -0.0020794 0.0000000 0.0002000
v -0.0019212 0.0000000 -0.0009061
v -0.0014694 0.0014818 -0.0018445
v -0.0008882 0.0045352 0.0012166
v -0.0003888 0.0045600 0.0020478
v -0.0008882 0.0042986 0.0012166
v -0.0003888 0.0041310 0.0020478
v -0.0019212 0.0027600 0.0013061
v -0.0016294 0.0036032 0.0014696
v -0.0014704 0.0027600 0.0022436
v -0.0009135 0.0036032 0.0024647
v -0.0007958 0.0027600 0.0028702
v -0.0000646 0.0035022 0.0028415
v -0.0003035 0.0027600 0.0030063
v -0.0019212 0.0000000 0.0013061
v -0.0014704 0.0000000 0.0022436
v -0.0007958 0.0014268 0.0028702
v -0.0028240 0.0000000 0.0032760
vn 0.1950551 0.0 -0.9807923
vn -0.0613562 0.0 -0.9981159
vn 0.0393608 0.0 -0.9992251
vn 1.0 0.0 0.0
vn 0.9943996 0.0 -0.105686
vn 0.9771979 0.0 -0.2123305
vn 0.9486833 0.0 -0.3162278
vn 0.3162278 0.0 -0.9486833
vn 0.105686 0.0 -0.9943996
vn 0.2123305 0.0 -0.9771979
vn 0.0 0.0 -1.0
vn 0.9999796 0.0 0.0063929
vn 0.999748 0.0 0.0224502
vn 0.9807923 0.0 -0.1950551
vn 0.9523703 0.0 0.3049441
vn 0.9202705 0.0 0.3912827
vn 0.8314709 0.0 0.5555683
vn -0.570166 0.0 0.8215295
vn 0.3160917 0.0 0.9487286
vn 0.9487286 0.0 0.3160917
vn 0.8215295 0.0 -0.570166
vn 0.3912827 0.0 0.9202705
vn 0.5555683 0.0 0.8314709
vn 0.3049441 0.0 0.9523703
vn 0.0613562 0.0 0.9981159
vn -0.0393608 0.0 0.9992251
vn -0.1950551 0.0 0.9807923
vn -1.0 0.0 0.0
vn -0.9943996 0.0 0.105686
vn -0.9771979 0.0 0.2123305
vn -0.9486833 0.0 0.3162278
vn -0.3162278 0.0 0.9486833
vn -0.105686 0.0 0.9943996
vn -0.2123305 0.0 0.9771979
vn 0.0 0.0 1.0
vn -0.9999796 0.0 -0.0063929
vn -0.999748 0.0 -0.0224502
vn -0.9807923 0.0 0.1950551
vn -0.9523703 0.0 -0.3049441
vn -0.9202705 0.0 -0.3912827
vn -0.8314709 0.0 -0.5555683
vn 0.570166 0.0 -0.8215295
vn -0.3160917 0.0 -0.9487286
vn -0.9487286 0.0 -0.3160917
vn -0.8215295 0.0 0.570166
vn -0.3912827 0.0 -0.9202705
vn -0.5555683 0.0 -0.8314709
vn -0.3049441 0.0 -0.9523703
vn 0.0 1.0 0.0
vn 0.0 -1.0 0.0
vn -0.9978248 0.0 -0.0659212
vn -0.8965369 0.0 -0.4429691
vn -0.9471783 0.0 -0.3207075
vn -0.9986952 0.0191269 0.0473505
vn -0.6587815 0.0 -0.7523344
vn -0.7523344 0.0 -0.6587815
vn -0.3207075 0.0 -0.9471783
vn -0.4429691 0.0 -0.8965369
vn 0.0661489 0.0 -0.9978098
vn -0.0661489 0.0 -0.9978098
vn 0.4429691 0.0 -0.8965369
vn 0.3207075 0.0 -0.9471783
vn 0.7523344 0.0 -0.6587815
vn 0.6587815 0.0 -0.7523344
vn 0.9471783 0.0 -0.3207075
vn 0.8965369 0.0 -0.4429691
vn 0.9985785 -5.42e-05 0.0533008
vn 0.9984729 0.0176567 -0.0523457
vn 0.4430513 0.0 -0.8964963
vn 0.3207111 0.0 -0.947177
vn -0.0661224 0.0 -0.9978115
vn 0.752294 0.0 -0.6588276
vn 0.6588276 0.0 -0.752294
vn 0.947177 0.0 -0.3207111
vn 0.8964963 0.0 -0.4430513
vn 0.9978115 0.0 -0.0661224
vn 0.947177 0.0 0.3207111
vn 0.6588276 0.0 0.752294
vn 0.752294 0.0 0.6588276
vn 0.4430513 0.0 0.8964963
vn 0.0661224 0.0 0.9978115
vn -0.4430513 0.0 0.8964963
vn -0.3207111 0.0 0.947177
vn -0.752294 0.0 0.6588276
vn -0.6588276 0.0 0.752294
vn -0.947177 0.0 0.3207111
vn -0.8964963 0.0 0.4430513
vn -0.9978115 0.0 0.0661224
vn -0.947177 0.0 -0.3207111
vn -0.6588276 0.0 -0.752294
vn -0.752294 0.0 -0.6588276
vn -0.4430513 0.0 -0.8964963
vn -0.3207111 0.0 -0.947177
vn 0.0661224 0.0 -0.9978115
vn -0.8964963 0.0 -0.4430513
vn -0.9978115 0.0 -0.0661224
vn -0.0661224 0.0 0.9978115
vn 0.3207111 0.0 0.947177
vn 0.8964963 0.0 0.4430513
vn 0.9978115 0.0 0.0661224
vn -0.9721082 0.134277 0.1922896
vn -0.9516474 -0.0001296 0.3071924
vn -0.8906941 0.2600658 0.3728671
vn -0.7664047 -0.0002775 0.6423579
vn -0.679849 -0.0004056 0.733352
vn -0.3824611 -0.0007549 0.9239713
vn -0.4753168 -0.0005227 0.8798146
vn 0.0 -0.0007022 0.9999998
vn 0.9801266 0.1187444 0.1589074
vn 0.9045044 -0.0002421 0.4264642
vn 0.8986703 0.210396 0.3848705
vn 0.6799479 -0.0004056 0.7332604
vn 0.4753168 -0.0005227 0.8798146
vn 0.7663 -0.0002775 0.6424828
vn 0.383027 -0.000755 0.9237368
vn -0.0336599 0.0 0.9994333
vn -0.3634246 0.0 0.9316236
vn -0.2667938 0.0 0.9637536
vn 0.0336599 0.0 0.9994333
vn -0.555571 0.0 0.8314691
vn 0.2671485 0.0 0.9636554
vn 0.3642618 0.0 0.9312966
vn 0.5572501 0.0 0.8303447
vn -0.9254355 -0.3241496 -0.1962042
vn -0.9280045 -0.3326443 -0.1677959
vn -0.9253207 -0.3299592 -0.1868383
vn 0.9280045 -0.3326443 -0.1677959
vn 0.9254355 -0.3241496 -0.1962042
vn 0.9253207 -0.3299592 -0.1868383
vn -0.9228183 -0.3158908 -0.2204982
vn -0.9229421 -0.3102829 -0.2278211
vn 0.9228234 -0.3158972 -0.2204675
vn 0.9229378 -0.3103167 -0.2277923
vn -0.9195921 -0.3054307 -0.2471081
vn 0.9195681 -0.3055083 -0.2471016
vn -0.9210948 -0.3003368 -0.2477542
vn 0.9209992 -0.3005113 -0.2478981
vn -0.9150951 -0.3038583 -0.2650871
vn 0.9149931 -0.3040326 -0.2652391
vn 0.9937867 0.106724 0.031592
vn 0.9816081 0.182137 0.0571978
vn 0.9930774 0.0915546 0.0735863
vn 0.9760887 0.1865527 0.1115748
vn 0.9911717 0.0821479 0.1040694
vn 0.9872858 0.0837411 0.1351078
vn 0.9629788 0.2099177 0.1691341
vn 0.9798933 0.0937712 0.176114
vn 0.9560261 0.1950192 0.2190472
vn 0.9690852 0.1228068 0.2139913
vn 0.9368971 0.2381279 0.2559667
vn -0.9937867 0.106724 0.031592
vn -0.9816081 0.182137 0.0571978
vn -0.9930774 0.0915546 0.0735863
vn -0.9760876 0.1865607 0.1115714
vn -0.9911733 0.0821522 0.1040508
vn -0.9872815 0.0837937 0.1351072
vn -0.9629726 0.2099405 0.169141
vn -0.9798866 0.0937966 0.1761375
vn -0.9560261 0.1950192 0.2190472
vn -0.9690852 0.1228068 0.2139913
vn -0.9368971 0.2381279 0.2559667
vn 0.9280116 0.2423642 0.2829383
vn 0.9148291 0.3987986 0.0636197
vn 0.900931 0.4090145 0.1450188
vn 0.8771583 0.4365604 0.2000206
vn 0.871153 0.4124048 0.2664859
vn 0.7826158 0.5207436 0.3410845
vn -0.9148291 0.3987986 0.0636197
vn -0.9293917 0.3346773 0.1556348
vn -0.900931 0.4090145 0.1450188
vn -0.8771583 0.4365604 0.2000206
vn -0.871153 0.4124048 0.2664859
vn -0.7826158 0.5207436 0.3410845
vn 0.8141649 0.5779464 0.0557983
vn 0.7987222 0.5911091 0.1123958
vn 0.7916749 0.5843634 0.1782423
vn 0.7786876 0.5748644 0.2513493
vn 0.7515366 0.5815234 0.3114856
vn 0.7372634 0.5845187 0.3387928
vn 0.7022784 0.6075581 0.3710501
vn -0.8141649 0.5779464 0.0557983
vn -0.7987222 0.5911091 0.1123958
vn -0.7916749 0.5843634 0.1782423
vn -0.7786876 0.5748644 0.2513493
vn -0.7372634 0.5845187 0.3387928
vn -0.7515366 0.5815234 0.3114856
vn -0.6263706 0.6454508 0.4370963
vn -0.7022784 0.6075581 0.3710501
vn -0.6136185 0.6460694 0.4539457
vn 0.7776218 0.6230327 0.0844661
vn 0.7680488 0.6341366 0.0892847
vn 0.7603816 0.6340836 0.1405622
vn 0.7636323 0.6230983 0.1691573
vn 0.7641104 0.6074468 0.2171259
vn 0.7509886 0.6014238 0.2725904
vn 0.6263706 0.6454508 0.4370963
vn 0.6136185 0.6460694 0.4539457
vn -0.7680488 0.6341366 0.0892847
vn -0.7776218 0.6230327 0.0844661
vn -0.7603816 0.6340836 0.1405622
vn -0.7636323 0.6230983 0.1691573
vn -0.7641104 0.6074468 0.2171259
vn -0.7509886 0.6014238 0.2725904
vn -0.9162838 -0.3989461 -0.0355814
vn -0.9175406 -0.3945373 -0.0495945
vn -0.9193005 -0.3884727 -0.063052
vn -0.9179196 -0.3940414 -0.0464217
vn -0.9133068 -0.4068521 -0.0184933
vn 0.9193005 -0.3884727 -0.063052
vn 0.9175406 -0.3945373 -0.0495945
vn 0.9162838 -0.3989461 -0.0355814
vn 0.9179196 -0.3940414 -0.0464217
vn 0.9133068 -0.4068521 -0.0184933
vn -0.8160779 -0.484912 0.3144475
vn -0.9493571 -0.3141993 0.0
vn -0.7021008 -0.7120776 -0.0
vn -0.3228237 -0.4645922 0.8245841
vn -0.627016 -0.5778826 0.5224009
vn -0.5480477 -0.7359316 0.3975531
vn 0.0 -0.6225002 0.7826196
vn -0.7585628 -0.393073 0.5196885
vn -0.5928914 -0.7215415 0.3575719
vn -0.1397874 -0.9876327 0.0710008
vn -0.4051122 -0.8432627 0.3532594
vn -0.8177673 -0.4658423 0.3380053
vn -0.7894682 -0.3399324 0.5110635
vn -0.9470146 -0.28912 0.1399033
vn -0.7657172 -0.463188 0.4462444
vn -0.7248405 -0.5823716 0.3680346
vn -0.6929106 -0.209219 0.6900017
vn -0.7420669 -0.1178747 0.6598805
vn -0.9989768 -0.0452248 -0.0
vn -0.9275374 -0.3737304 -0.0
vn -0.968604 -0.059539 0.2413741
vn -0.7819894 -0.5263894 0.3337765
vn -0.8483426 -0.0975352 0.5203862
vn -0.5854467 -0.589647 0.5563889
vn -0.9263431 -0.3726007 0.0552921
vn -0.1826601 -0.5286507 0.8289534
vn -0.5909047 -0.13432 0.7954809
vn -0.6867636 -0.7268809 -0.0
vn -0.6244405 -0.6901067 0.3658234
vn -0.4107108 -0.7433632 0.5279467
vn -0.971185 -0.0803011 0.2243911
vn -0.9460299 -0.3208385 0.0457171
vn -0.6148485 -0.7158906 0.3308503
vn -0.5494789 -0.7724882 0.3183314
vn -0.5249746 -0.8511179 -0.0
vn -0.7624354 -0.615831 0.1986065
vn -0.8160779 -0.484912 -0.3144475
vn -0.5760011 -0.5097218 -0.6390669
vn -0.0761825 -0.5340805 -0.8419942
vn -0.5276458 -0.7382817 -0.4201547
vn -0.6848199 -0.3731331 -0.6259341
vn -0.5869431 -0.7206079 -0.3690826
vn -0.4036147 -0.839821 -0.3630371
vn -0.1397874 -0.9876327 -0.0710008
vn -0.814668 -0.4744909 -0.3334282
vn -0.7224806 -0.5872172 -0.3649626
vn -0.7563691 0.0 -0.6541451
vn -0.7501199 -0.3145318 -0.5817129
vn -0.1626044 -0.5022749 -0.8492819
vn -0.1620016 -0.3781579 -0.911456
vn -0.6378004 -0.3138521 -0.7033545
vn -0.2286286 -0.5412663 -0.8091723
vn -0.968604 -0.059539 -0.2413741
vn -0.7819894 -0.5263894 -0.3337765
vn -0.8356625 -0.0733591 -0.5443222
vn -0.5302166 -0.5803814 -0.6180839
vn -0.5827869 -0.0978645 -0.8067106
vn -0.2828254 -0.491645 -0.8235866
vn -0.264944 -0.1065972 -0.9583536
vn -0.6260463 -0.6907295 -0.3618823
vn -0.0607028 -0.6623621 -0.7467206
vn 0.0 -0.7093103 -0.7048964
vn -0.9422293 0.0 -0.3349685
vn -0.8432824 -0.0834687 -0.5309498
vn -0.8557961 -0.2343818 -0.4611705
vn -0.6571945 -0.6648 -0.3551569
vn -0.5529223 -0.7708665 -0.3162939
vn -0.4267546 -0.7048888 -0.5665795
vn -0.3996352 -0.7789707 -0.4832145
vn -0.9007369 -0.2588405 -0.348819
vn -0.9338494 -0.3307724 -0.1360696
vn -0.9340016 -0.3306628 -0.1352891
vn -0.9339993 -0.3306708 -0.1352853
vn -0.5471121 0.0 -0.8370593
vn -0.9404641 -0.3391476 -0.0225003
vn -0.9219455 -0.3736783 -0.1018869
vn -0.8116469 0.0002237 0.5841483
vn -0.9217404 -0.3865037 -0.0317728
vn -0.9216638 -0.3842859 -0.0534804
vn -0.8376562 -0.4989324 0.2222579
vn -0.922279 -0.3832092 -0.0505193
vn -0.9223225 -0.383113 -0.0504547
vn 0.9493571 -0.3141993 0.0
vn 0.8160779 -0.484912 0.3144475
vn 0.7021008 -0.7120776 -0.0
vn 0.5480477 -0.7359316 0.3975531
vn 0.627016 -0.5778826 0.5224009
vn 0.3228237 -0.4645922 0.8245841
vn 0.7585628 -0.393073 0.5196885
vn 0.5928914 -0.7215415 0.3575719
vn 0.4051122 -0.8432627 0.3532594
vn 0.1397874 -0.9876327 0.0710008
vn 0.8177673 -0.4658423 0.3380053
vn 0.7657172 -0.463188 0.4462444
vn 0.9470146 -0.28912 0.1399033
vn 0.7894682 -0.3399324 0.5110635
vn 0.7248405 -0.5823716 0.3680346
vn 0.6929106 -0.209219 0.6900017
vn 0.7420669 -0.1178747 0.6598805
vn 0.9275374 -0.3737304 0.0
vn 0.9989768 -0.0452248 -0.0
vn 0.968604 -0.059539 0.2413741
vn 0.7819894 -0.5263894 0.3337765
vn 0.8483426 -0.0975352 0.5203862
vn 0.5854467 -0.589647 0.5563889
vn 0.9263431 -0.3726007 0.0552921
vn 0.1826601 -0.5286507 0.8289534
vn 0.5909047 -0.13432 0.7954809
vn 0.6867636 -0.7268809 0.0
vn 0.6244405 -0.6901067 0.3658234
vn 0.4107108 -0.7433632 0.5279467
vn 0.971185 -0.0803011 0.2243911
vn 0.9460299 -0.3208385 0.0457171
vn 0.6148485 -0.7158906 0.3308503
vn 0.5494789 -0.7724882 0.3183314
vn 0.5249746 -0.8511179 0.0
vn 0.7624354 -0.615831 0.1986065
vn 0.8160779 -0.484912 -0.3144475
vn 0.0761825 -0.5340805 -0.8419942
vn 0.5760011 -0.5097218 -0.6390669
vn 0.5276458 -0.7382817 -0.4201547
vn 0.6848199 -0.3731331 -0.6259341
vn 0.5869431 -0.7206079 -0.3690826
vn 0.1397874 -0.9876327 -0.0710008
vn 0.4036147 -0.839821 -0.3630371
vn 0.814668 -0.4744909 -0.3334282
vn 0.7501199 -0.3145318 -0.5817129
vn 0.7563691 0.0 -0.6541451
vn 0.7224806 -0.5872172 -0.3649626
vn 0.1620016 -0.3781579 -0.911456
vn 0.1626044 -0.5022749 -0.8492819
vn 0.6378004 -0.3138521 -0.7033545
vn 0.2286286 -0.5412663 -0.8091723
vn 0.968604 -0.059539 -0.2413741
vn 0.7819894 -0.5263894 -0.3337765
vn 0.8356625 -0.0733591 -0.5443222
vn 0.5302166 -0.5803814 -0.6180839
vn 0.5827869 -0.0978645 -0.8067106
vn 0.2828254 -0.491645 -0.8235866
vn 0.264944 -0.1065972 -0.9583536
vn 0.6260463 -0.6907295 -0.3618823
vn 0.0607028 -0.6623621 -0.7467206
vn 0.9422293 0.0 -0.3349685
vn 0.8432824 -0.0834687 -0.5309498
vn 0.8557961 -0.2343818 -0.4611705
vn 0.6571945 -0.6648 -0.3551569
vn 0.5529223 -0.7708665 -0.3162939
vn 0.4267546 -0.7048888 -0.5665795
vn 0.3996352 -0.7789707 -0.4832145
vn 0.9007369 -0.2588405 -0.348819
vn 0.9338494 -0.3307724 -0.1360696
vn 0.9339993 -0.3306708 -0.1352853
vn 0.9340016 -0.3306628 -0.1352891
vn 0.5471121 0.0 -0.8370593
vn 0.9219455 -0.3736783 -0.1018869
vn 0.9404641 -0.3391476 -0.0225003
vn 0.8116469 0.0002237 0.5841483
vn 0.9217404 -0.3865037 -0.0317728
vn 0.9216638 -0.3842859 -0.0534804
vn 0.8376562 -0.4989324 0.2222579
vn 0.922279 -0.3832092 -0.0505193
vn 0.9223225 -0.383113 -0.0504547
f 1//1 2//2 3//3
f 4//1 1//1 3//3
f 1//4 4//4 5//5
f 6//6 1//4 5//5
f 7//7 8//7 6//6
f 5//5 7//7 6//6
f 7//8 9//9 10//10
f 8//8 7//8 10//10
f 9//9 11//11 12//11
f 10//10 9//9 12//11
f 13//12 14//13 12//14
f 11//14 13//12 12//14
f 15//15 14//13 13//12
f 16//16 15//15 13//12
f 17//17 15//15 16//16
f 18//17 17//17 16//16
f 19//18 20//18 17//18
f 18//18 19//18 17//18
f 19//19 21//19 22//19
f 20//19 19//19 22//19
f 23//20 22//20 21//20
f 24//20 23//20 21//20
f 23//21 24//21 25//21
f 26//21 23//21 25//21
f 27//22 26//23 25//23
f 28//24 27//22 25//23
f 29//25 27//22 28//24
f 30//26 29//25 28//24
f 31//27 29//25 30//26
f 32//27 31//27 30//26
f 31//28 32//28 33//29
f 34//30 31//28 33//29
f 35//31 36//31 34//30
f 33//29 35//31 34//30
f 35//32 37//33 38//34
f 36//32 35//32 38//34
f 37//33 39//35 40//35
f 38//34 37//33 40//35
f 41//36 42//37 40//38
f 39//38 41//36 40//38
f 43//39 42//37 41//36
f 44//40 43//39 41//36
f 45//41 43//39 44//40
f 46//41 45//41 44//40
f 47//42 48//42 45//42
f 46//42 47//42 45//42
f 47//43 49//43 50//43
f 48//43 47//43 50//43
f 51//44 50//44 49//44
f 52//44 51//44 49//44
f 51//45 52//45 53//45
f 54//45 51//45 53//45
f 55//46 54//47 53//47
f 56//48 55//46 53//47
f 2//2 55//46 56//48
f 3//3 2//2 56//48
f 57//49 58//49 8//49
f 59//49 57//49 8//49
f 1//49 6//49 8//49
f 58//49 1//49 8//49
f 59//49 8//49 10//49
f 12//49 59//49 10//49
f 22//49 23//49 26//49
f 60//49 22//49 26//49
f 61//49 17//49 20//49
f 22//49 61//49 20//49
f 62//49 63//49 36//49
f 64//49 62//49 36//49
f 31//49 34//49 36//49
f 63//49 31//49 36//49
f 64//49 36//49 38//49
f 40//49 64//49 38//49
f 50//49 51//49 54//49
f 65//49 50//49 54//49
f 65//49 45//49 48//49
f 50//49 65//49 48//49
f 7//50 66//50 67//50
f 7//50 67//50 68//50
f 7//50 5//50 4//50
f 7//50 4//50 66//50
f 9//50 7//50 68//50
f 9//50 68//50 11//50
f 25//50 24//50 21//50
f 25//50 21//50 69//50
f 19//50 18//50 70//50
f 19//50 70//50 21//50
f 35//50 71//50 72//50
f 35//50 72//50 73//50
f 35//50 33//50 32//50
f 35//50 32//50 71//50
f 37//50 35//50 73//50
f 37//50 73//50 39//50
f 53//50 52//50 49//50
f 53//50 49//50 74//50
f 47//50 46//50 74//50
f 47//50 74//50 49//50
f 75//50 76//50 77//50
f 75//50 77//50 78//50
f 76//50 79//50 80//50
f 76//50 80//50 77//50
f 79//50 81//50 82//50
f 79//50 82//50 80//50
f 81//50 83//50 84//50
f 81//50 84//50 82//50
f 83//50 85//50 86//50
f 83//50 86//50 84//50
f 85//50 87//50 88//50
f 85//50 88//50 86//50
f 87//50 89//50 90//50
f 87//50 90//50 88//50
f 89//50 91//50 92//50
f 89//50 92//50 90//50
f 93//50 94//50 95//50
f 96//50 97//50 94//50
f 98//50 99//50 97//50
f 100//50 78//50 99//50
f 95//50 101//50 102//50
f 101//50 103//50 104//50
f 103//50 105//50 106//50
f 105//50 92//50 107//50
f 107//50 92//50 91//50
f 107//50 91//50 108//50
f 109//50 110//50 104//50
f 109//50 104//50 106//50
f 107//50 108//50 109//50
f 107//50 109//50 106//50
f 102//50 104//50 110//50
f 102//50 110//50 111//50
f 75//50 78//50 100//50
f 75//50 100//50 112//50
f 113//50 114//50 98//50
f 113//50 98//50 96//50
f 100//50 98//50 114//50
f 100//50 114//50 112//50
f 113//50 96//50 93//50
f 113//50 93//50 111//50
f 93//50 102//50 111//50
f 115//49 116//49 117//49
f 118//49 115//49 117//49
f 119//49 120//49 116//49
f 115//49 119//49 116//49
f 121//49 122//49 120//49
f 119//49 121//49 120//49
f 123//49 124//49 122//49
f 121//49 123//49 122//49
f 125//49 126//49 124//49
f 123//49 125//49 124//49
f 127//49 128//49 126//49
f 125//49 127//49 126//49
f 129//49 130//49 128//49
f 127//49 129//49 128//49
f 131//49 132//49 130//49
f 129//49 131//49 130//49
f 133//49 134//49 135//49
f 134//49 136//49 137//49
f 136//49 138//49 139//49
f 138//49 118//49 140//49
f 141//49 142//49 133//49
f 143//49 144//49 142//49
f 145//49 146//49 144//49
f 147//49 131//49 146//49
f 132//49 131//49 147//49
f 132//49 147//49 148//49
f 148//49 147//49 145//49
f 148//49 145//49 149//49
f 149//49 145//49 143//49
f 149//49 143//49 150//49
f 150//49 143//49 141//49
f 150//49 141//49 151//49
f 140//49 118//49 117//49
f 140//49 117//49 152//49
f 139//49 140//49 152//49
f 139//49 152//49 153//49
f 139//49 153//49 154//49
f 139//49 154//49 137//49
f 135//49 137//49 154//49
f 135//49 154//49 151//49
f 141//49 135//49 151//49
f 117//51 116//52 76//53
f 75//54 117//51 76//53
f 116//52 120//55 79//56
f 76//53 116//52 79//56
f 120//55 122//57 81//58
f 79//56 120//55 81//58
f 122//57 124//59 83//60
f 81//58 122//57 83//60
f 124//59 126//61 85//62
f 83//60 124//59 85//62
f 126//61 128//63 87//64
f 85//62 126//61 87//64
f 128//63 130//65 89//66
f 87//64 128//63 89//66
f 130//65 132//67 91//68
f 89//66 130//65 91//68
f 2//2 155//69 134//70
f 2//2 134//70 133//71
f 155//69 156//72 136//73
f 155//69 136//73 134//70
f 156//72 157//74 138//75
f 156//72 138//75 136//73
f 157//74 14//13 118//76
f 157//74 118//76 138//75
f 14//13 15//15 115//77
f 14//13 115//77 118//76
f 15//15 61//78 119//79
f 15//15 119//79 115//77
f 61//78 27//22 121//80
f 61//78 121//80 119//79
f 27//22 29//25 123//81
f 27//22 123//81 121//80
f 29//25 158//82 125//83
f 29//25 125//83 123//81
f 158//82 159//84 127//85
f 158//82 127//85 125//83
f 159//84 160//86 129//87
f 159//84 129//87 127//85
f 160//86 42//37 131//88
f 160//86 131//88 129//87
f 42//37 43//39 146//89
f 42//37 146//89 131//88
f 43//39 65//90 144//91
f 43//39 144//91 146//89
f 65//90 55//46 142//92
f 65//90 142//92 144//91
f 55//46 2//2 133//71
f 55//46 133//71 142//92
f 3//3 56//48 101//93
f 3//3 101//93 95//94
f 56//48 74//91 103//90
f 56//48 103//90 101//93
f 74//91 44//40 105//95
f 74//91 105//95 103//90
f 44//40 41//36 92//96
f 44//40 92//96 105//95
f 41//36 161//87 90//86
f 41//36 90//86 92//96
f 161//87 162//85 88//84
f 161//87 88//84 90//86
f 162//85 163//83 86//82
f 162//85 86//82 88//84
f 163//83 30//26 84//97
f 163//83 84//97 86//82
f 30//26 28//24 82//98
f 30//26 82//98 84//97
f 28//24 70//79 80//78
f 28//24 80//78 82//98
f 70//79 16//16 77//99
f 70//79 77//99 80//78
f 16//16 13//12 78//100
f 16//16 78//100 77//99
f 13//12 164//75 99//74
f 13//12 99//74 78//100
f 164//75 165//73 97//72
f 164//75 97//72 99//74
f 165//73 166//70 94//69
f 165//73 94//69 97//72
f 166//70 3//3 95//94
f 166//70 95//94 94//69
f 167//35 168//35 169//35
f 170//35 167//35 169//35
f 170//35 169//35 171//35
f 75//54 172//101 152//102
f 75//54 152//102 117//51
f 172//101 173//103 153//104
f 172//101 153//104 152//102
f 173//105 174//106 154//107
f 173//105 154//107 153//104
f 174//106 151//108 154//107
f 175//109 91//68 132//67
f 175//109 132//67 148//110
f 176//111 175//109 148//110
f 176//111 148//110 149//112
f 177//113 176//114 149//112
f 177//113 149//112 150//115
f 177//113 150//115 151//108
f 178//116 179//117 113//118
f 178//116 113//118 111//119
f 114//120 113//118 179//117
f 180//121 178//116 111//119
f 180//121 111//119 110//122
f 109//123 180//121 110//122
f 109//50 108//50 181//50
f 109//50 181//50 182//50
f 112//50 114//50 183//50
f 112//50 183//50 184//50
f 182//50 181//50 185//50
f 184//50 183//50 186//50
f 187//50 188//50 189//50
f 190//50 191//50 192//50
f 189//50 188//50 193//50
f 189//50 193//50 194//50
f 192//50 191//50 195//50
f 192//50 195//50 196//50
f 197//50 194//50 193//50
f 195//50 197//50 196//50
f 196//50 193//50 170//50
f 196//50 170//50 171//50
f 196//50 197//50 193//50
f 198//124 199//125 187//126
f 199//127 198//128 190//129
f 198//124 187//126 189//130
f 198//124 189//130 200//131
f 191//132 190//129 198//128
f 191//132 198//128 200//133
f 189//130 194//134 200//131
f 195//135 191//132 200//133
f 200//131 194//134 201//136
f 201//137 195//135 200//133
f 201//136 194//134 197//138
f 201//137 197//139 195//135
f 108//140 91//68 175//109
f 202//141 108//140 175//109
f 108//140 202//141 181//142
f 181//142 202//141 203//143
f 181//142 203//143 204//144
f 204//144 203//143 205//145
f 203//143 206//146 205//145
f 206//146 188//147 205//145
f 188//147 206//146 207//148
f 188//147 207//148 193//149
f 170//150 193//149 207//148
f 75//54 112//151 172//101
f 112//151 208//152 172//101
f 208//152 112//151 184//153
f 209//154 208//152 184//153
f 209//154 184//153 210//155
f 209//154 210//155 211//156
f 212//157 209//154 211//156
f 212//157 211//156 192//158
f 213//159 212//157 192//158
f 213//159 192//158 196//160
f 196//160 171//161 213//159
f 175//109 176//162 214//163
f 214//163 202//141 175//109
f 202//141 214//163 203//143
f 214//163 215//164 203//143
f 206//146 203//143 215//164
f 206//146 215//164 216//165
f 206//146 216//165 217//166
f 217//166 207//148 206//146
f 170//150 207//148 217//166
f 170//150 217//166 167//167
f 172//101 208//152 218//168
f 218//168 173//169 172//101
f 218//168 208//152 209//154
f 219//170 218//168 209//154
f 219//170 209//154 212//157
f 219//170 212//157 220//171
f 212//157 213//159 221//172
f 221//172 220//171 212//157
f 221//172 213//159 171//161
f 221//172 171//161 169//173
f 214//163 176//162 177//174
f 222//175 214//163 177//174
f 214//163 222//175 215//164
f 222//175 223//176 215//164
f 223//176 216//165 215//164
f 216//165 223//176 224//177
f 217//166 216//165 224//177
f 217//166 224//177 225//178
f 217//166 226//179 167//167
f 167//167 226//179 227//180
f 173//169 218//168 174//181
f 218//168 228//182 174//181
f 228//182 218//168 219//170
f 229//183 228//182 219//170
f 229//183 219//170 220//171
f 229//183 220//171 230//184
f 220//171 221//172 230//184
f 221//172 231//185 225//186
f 231//185 221//172 169//173
f 232//187 227//188 169//173
f 168//189 232//187 169//173
f 151//190 233//191 177//174
f 233//191 222//175 177//174
f 222//175 233//191 234//192
f 223//176 222//175 234//192
f 223//176 234//192 235//193
f 235//193 236//194 223//176
f 224//177 223//176 236//194
f 237//195 224//177 236//194
f 224//177 237//195 225//178
f 225//178 226//179 217//166
f 227//180 226//179 225//178
f 232//196 168//197 167//167
f 227//180 232//196 167//167
f 233//198 151//199 174//181
f 228//182 233//198 174//181
f 228//182 234//200 233//198
f 234//200 228//182 229//183
f 234//200 229//183 235//201
f 235//201 229//183 236//202
f 230//184 236//202 229//183
f 230//184 237//203 236//202
f 230//184 225//186 237//203
f 225//186 230//184 221//172
f 225//186 231//185 227//188
f 227//188 231//185 169//173
f 180//204 109//205 182//206
f 180//204 182//206 238//207
f 238//207 178//208 180//204
f 183//209 239//210 179//211
f 183//209 179//211 238//212
f 178//213 238//212 179//211
f 240//214 241//215 242//216
f 243//217 244//218 245//219
f 243//217 245//219 246//220
f 244//221 240//214 245//222
f 242//216 245//222 240//214
f 247//223 245//224 242//216
f 240//214 248//225 249//28
f 240//214 249//28 241//215
f 244//226 250//227 248//228
f 244//226 248//229 240//214
f 243//217 250//230 244//231
f 251//232 252//233 253//234
f 252//233 254//235 253//234
f 253//234 254//235 255//236
f 254//235 256//237 255//236
f 255//236 256//237 257//238
f 256//237 258//239 257//240
f 252//233 259//241 254//235
f 254//235 248//242 256//237
f 256//237 250//243 258//239
f 253//234 260//244 261//28
f 253//234 261//28 251//232
f 255//236 262//245 260//244
f 255//236 260//244 253//234
f 254//235 259//241 248//246
f 248//247 259//241 249//248
f 250//249 256//237 248//247
f 241//215 263//250 242//216
f 264//251 265//252 266//253
f 263//250 264//254 266//255
f 266//255 242//216 263//250
f 266//256 247//257 242//216
f 249//28 267//258 263//250
f 249//28 263//250 241//215
f 267//259 268//260 264//261
f 267//259 264//261 263//250
f 269//262 265//263 264//254
f 264//254 268//264 269//265
f 252//233 251//232 270//266
f 271//267 252//233 270//266
f 271//267 270//266 272//268
f 273//269 271//267 272//268
f 273//269 272//268 274//270
f 275//271 273//269 274//270
f 275//271 274//270 276//272
f 259//241 252//233 271//267
f 267//273 271//267 273//269
f 269//274 273//269 275//271
f 269//274 275//271 277//275
f 261//28 278//276 270//266
f 261//28 270//266 251//232
f 278//276 279//277 272//268
f 278//276 272//268 270//266
f 274//270 272//268 279//277
f 274//270 279//277 280//278
f 259//241 271//267 267//279
f 259//241 267//280 249//248
f 269//274 268//281 273//269
f 273//269 268//282 267//280
f 280//283 279//277 187//126
f 276//284 280//283 187//126
f 199//125 276//284 187//126
f 277//285 275//286 199//125
f 199//125 275//286 276//284
f 276//272 274//270 280//287
f 262//288 185//289 260//244
f 257//240 262//290 255//236
f 185//289 262//288 182//206
f 182//206 262//288 257//291
f 182//206 257//291 238//207
f 238//207 257//291 258//292
f 238//207 258//292 250//293
f 238//207 250//293 243//294
f 238//207 243//294 246//295
f 188//50 187//50 279//50
f 188//50 279//50 205//50
f 205//50 279//50 278//50
f 205//50 278//50 204//50
f 204//50 278//50 261//50
f 204//50 261//50 181//50
f 181//50 261//50 260//50
f 181//50 260//50 185//50
f 281//296 282//297 283//298
f 245//299 284//300 285//301
f 245//299 285//301 246//220
f 282//297 284//302 245//303
f 245//303 283//298 282//297
f 245//304 247//305 283//298
f 286//4 287//306 282//297
f 286//4 282//297 281//296
f 287//307 288//308 284//309
f 287//310 284//309 282//297
f 288//311 285//301 284//312
f 289//313 290//314 291//315
f 292//316 289//313 291//315
f 292//316 291//315 293//317
f 294//318 292//316 293//317
f 294//318 293//317 295//319
f 296//320 294//318 295//321
f 297//322 289//313 292//316
f 287//323 292//316 294//318
f 288//324 294//318 296//320
f 298//4 299//325 291//315
f 298//4 291//315 290//314
f 299//325 300//326 293//317
f 299//325 293//317 291//315
f 297//322 292//316 287//327
f 297//322 287//328 286//329
f 294//318 288//330 287//328
f 301//331 281//296 283//298
f 265//332 302//333 266//334
f 302//335 301//331 266//336
f 283//298 266//336 301//331
f 247//337 266//338 283//298
f 301//331 303//339 286//4
f 301//331 286//4 281//296
f 302//340 304//341 303//342
f 302//340 303//342 301//331
f 265//343 269//344 302//335
f 304//345 302//335 269//346
f 290//314 289//313 305//347
f 289//313 306//348 305//347
f 305//347 306//348 307//349
f 306//348 308//350 307//349
f 307//349 308//350 309//351
f 308//350 310//352 309//351
f 309//351 310//352 311//353
f 289//313 297//322 306//348
f 306//348 303//354 308//350
f 310//352 308//350 269//355
f 310//352 269//355 277//275
f 305//347 312//356 298//4
f 305//347 298//4 290//314
f 307//349 313//357 312//356
f 307//349 312//356 305//347
f 313//357 307//349 309//351
f 313//357 309//351 314//358
f 306//348 297//322 303//359
f 303//360 297//322 286//329
f 304//361 269//355 308//350
f 304//362 308//350 303//360
f 313//357 314//363 190//129
f 314//363 311//364 190//129
f 311//364 199//127 190//129
f 310//365 277//366 199//127
f 310//365 199//127 311//364
f 309//351 311//353 314//367
f 186//368 300//369 299//325
f 300//370 295//321 293//317
f 300//369 186//368 183//209
f 300//369 183//209 295//371
f 295//371 183//209 238//212
f 295//371 238//212 296//372
f 288//373 296//372 238//212
f 288//373 238//212 285//374
f 285//374 238//212 246//375
f 313//50 190//50 192//50
f 313//50 192//50 315//50
f 312//50 313//50 315//50
f 312//50 315//50 210//50
f 298//50 312//50 210//50
f 298//50 210//50 184//50
f 299//50 298//50 184//50
f 299//50 184//50 186//50
