# Botball Lab: metres, +Y up, centred XZ, base Y=0
s off
v 0.0032000 0.0196000 -0.0024000
v 0.0032000 0.0186815 -0.0022174
v 0.0032000 0.0183754 -0.0029565
v 0.0032000 0.0196000 -0.0032000
v 0.0032000 0.0179030 -0.0016970
v 0.0032000 0.0173373 -0.0022627
v 0.0032000 0.0173826 -0.0009185
v 0.0032000 0.0166435 -0.0012246
v 0.0032000 0.0172000 -0.0000000
v 0.0032000 0.0164000 -0.0000000
v 0.0032000 0.0173826 0.0009185
v 0.0032000 0.0166435 0.0012246
v 0.0032000 0.0179030 0.0016970
v 0.0032000 0.0173373 0.0022627
v 0.0032000 0.0186815 0.0022174
v 0.0032000 0.0183754 0.0029565
v 0.0032000 0.0196000 0.0024000
v 0.0032000 0.0196000 0.0032000
v 0.0032000 0.0205185 0.0022174
v 0.0032000 0.0208246 0.0029565
v 0.0032000 0.0212970 0.0016970
v 0.0032000 0.0218627 0.0022627
v 0.0032000 0.0218174 0.0009185
v 0.0032000 0.0225565 0.0012246
v 0.0032000 0.0220000 -0.0000000
v 0.0032000 0.0228000 -0.0000000
v 0.0032000 0.0218174 -0.0009185
v 0.0032000 0.0225565 -0.0012246
v 0.0032000 0.0212970 -0.0016970
v 0.0032000 0.0218627 -0.0022627
v 0.0032000 0.0205185 -0.0022174
v 0.0032000 0.0208246 -0.0029565
v 0.0040000 0.0225565 -0.0012246
v 0.0040000 0.0228000 -0.0000000
v 0.0040000 0.0218627 -0.0022627
v 0.0040000 0.0208246 -0.0029565
v 0.0040000 0.0196000 -0.0032000
v 0.0040000 0.0183754 -0.0029565
v 0.0040000 0.0173373 -0.0022627
v 0.0040000 0.0166435 -0.0012246
v 0.0040000 0.0164000 -0.0000000
v 0.0040000 0.0166435 0.0012246
v 0.0040000 0.0173373 0.0022627
v 0.0040000 0.0183754 0.0029565
v 0.0040000 0.0196000 0.0032000
v 0.0040000 0.0208246 0.0029565
v 0.0040000 0.0218627 0.0022627
v 0.0040000 0.0225565 0.0012246
v 0.0040000 0.0232000 -0.0000000
v 0.0040000 0.0229260 0.0013777
v 0.0040000 0.0221456 0.0025456
v 0.0040000 0.0209777 0.0033260
v 0.0040000 0.0196000 0.0036000
v 0.0040000 0.0182223 0.0033260
v 0.0040000 0.0170544 0.0025456
v 0.0040000 0.0162740 0.0013777
v 0.0040000 0.0160000 -0.0000000
v 0.0040000 0.0162740 -0.0013777
v 0.0040000 0.0170544 -0.0025456
v 0.0040000 0.0182223 -0.0033260
v 0.0040000 0.0196000 -0.0036000
v 0.0040000 0.0209777 -0.0033260
v 0.0040000 0.0221456 -0.0025456
v 0.0040000 0.0229260 -0.0013777
v -0.0032000 0.0218174 -0.0009185
v -0.0032000 0.0220000 -0.0000000
v -0.0032000 0.0212970 -0.0016970
v -0.0032000 0.0205185 -0.0022174
v -0.0032000 0.0196000 -0.0024000
v -0.0032000 0.0186815 -0.0022174
v -0.0032000 0.0179030 -0.0016970
v -0.0032000 0.0173826 -0.0009185
v -0.0032000 0.0172000 -0.0000000
v -0.0032000 0.0173826 0.0009185
v -0.0032000 0.0179030 0.0016970
v -0.0032000 0.0186815 0.0022174
v -0.0032000 0.0196000 0.0024000
v -0.0032000 0.0205185 0.0022174
v -0.0032000 0.0212970 0.0016970
v -0.0032000 0.0218174 0.0009185
v -0.0040000 0.0232000 -0.0000000
v -0.0040000 0.0229260 -0.0013777
v -0.0040000 0.0225565 -0.0012246
v -0.0040000 0.0228000 -0.0000000
v -0.0040000 0.0221456 -0.0025456
v -0.0040000 0.0218627 -0.0022627
v -0.0040000 0.0209777 -0.0033260
v -0.0040000 0.0208246 -0.0029565
v -0.0040000 0.0196000 -0.0036000
v -0.0040000 0.0196000 -0.0032000
v -0.0040000 0.0182223 -0.0033260
v -0.0040000 0.0183754 -0.0029565
v -0.0040000 0.0170544 -0.0025456
v -0.0040000 0.0173373 -0.0022627
v -0.0040000 0.0162740 -0.0013777
v -0.0040000 0.0166435 -0.0012246
v -0.0040000 0.0160000 -0.0000000
v -0.0040000 0.0164000 -0.0000000
v -0.0040000 0.0162740 0.0013777
v -0.0040000 0.0166435 0.0012246
v -0.0040000 0.0170544 0.0025456
v -0.0040000 0.0173373 0.0022627
v -0.0040000 0.0182223 0.0033260
v -0.0040000 0.0183754 0.0029565
v -0.0040000 0.0196000 0.0036000
v -0.0040000 0.0196000 0.0032000
v -0.0040000 0.0209777 0.0033260
v -0.0040000 0.0208246 0.0029565
v -0.0040000 0.0221456 0.0025456
v -0.0040000 0.0218627 0.0022627
v -0.0040000 0.0229260 0.0013777
v -0.0040000 0.0225565 0.0012246
v -0.0032000 0.0183754 -0.0029565
v -0.0032000 0.0196000 -0.0032000
v -0.0032000 0.0173373 -0.0022627
v -0.0032000 0.0166435 -0.0012246
v -0.0032000 0.0164000 -0.0000000
v -0.0032000 0.0166435 0.0012246
v -0.0032000 0.0173373 0.0022627
v -0.0032000 0.0183754 0.0029565
v -0.0032000 0.0196000 0.0032000
v -0.0032000 0.0208246 0.0029565
v -0.0032000 0.0218627 0.0022627
v -0.0032000 0.0225565 0.0012246
v -0.0032000 0.0228000 -0.0000000
v -0.0032000 0.0225565 -0.0012246
v -0.0032000 0.0218627 -0.0022627
v -0.0032000 0.0208246 -0.0029565
v 0.0032000 0.0036000 -0.0024000
v 0.0032000 0.0026815 -0.0022174
v 0.0032000 0.0023754 -0.0029565
v 0.0032000 0.0036000 -0.0032000
v 0.0032000 0.0019030 -0.0016970
v 0.0032000 0.0013373 -0.0022627
v 0.0032000 0.0013826 -0.0009185
v 0.0032000 0.0006435 -0.0012246
v 0.0032000 0.0012000 -0.0000000
v 0.0032000 0.0004000 -0.0000000
v 0.0032000 0.0013826 0.0009185
v 0.0032000 0.0006435 0.0012246
v 0.0032000 0.0019030 0.0016970
v 0.0032000 0.0013373 0.0022627
v 0.0032000 0.0026815 0.0022174
v 0.0032000 0.0023754 0.0029565
v 0.0032000 0.0036000 0.0024000
v 0.0032000 0.0036000 0.0032000
v 0.0032000 0.0045185 0.0022174
v 0.0032000 0.0048246 0.0029565
v 0.0032000 0.0052970 0.0016970
v 0.0032000 0.0058627 0.0022627
v 0.0032000 0.0058174 0.0009185
v 0.0032000 0.0065565 0.0012246
v 0.0032000 0.0060000 -0.0000000
v 0.0032000 0.0068000 -0.0000000
v 0.0032000 0.0058174 -0.0009185
v 0.0032000 0.0065565 -0.0012246
v 0.0032000 0.0052970 -0.0016970
v 0.0032000 0.0058627 -0.0022627
v 0.0032000 0.0045185 -0.0022174
v 0.0032000 0.0048246 -0.0029565
v 0.0040000 0.0065565 -0.0012246
v 0.0040000 0.0068000 -0.0000000
v 0.0040000 0.0058627 -0.0022627
v 0.0040000 0.0048246 -0.0029565
v 0.0040000 0.0036000 -0.0032000
v 0.0040000 0.0023754 -0.0029565
v 0.0040000 0.0013373 -0.0022627
v 0.0040000 0.0006435 -0.0012246
v 0.0040000 0.0004000 -0.0000000
v 0.0040000 0.0006435 0.0012246
v 0.0040000 0.0013373 0.0022627
v 0.0040000 0.0023754 0.0029565
v 0.0040000 0.0036000 0.0032000
v 0.0040000 0.0048246 0.0029565
v 0.0040000 0.0058627 0.0022627
v 0.0040000 0.0065565 0.0012246
v 0.0040000 0.0072000 -0.0000000
v 0.0040000 0.0069260 0.0013777
v 0.0040000 0.0061456 0.0025456
v 0.0040000 0.0049777 0.0033260
v 0.0040000 0.0036000 0.0036000
v 0.0040000 0.0022223 0.0033260
v 0.0040000 0.0010544 0.0025456
v 0.0040000 0.0002740 0.0013777
v 0.0040000 0.0000000 -0.0000000
v 0.0040000 0.0002740 -0.0013777
v 0.0040000 0.0010544 -0.0025456
v 0.0040000 0.0022223 -0.0033260
v 0.0040000 0.0036000 -0.0036000
v 0.0040000 0.0049777 -0.0033260
v 0.0040000 0.0061456 -0.0025456
v 0.0040000 0.0069260 -0.0013777
v -0.0032000 0.0058174 -0.0009185
v -0.0032000 0.0060000 -0.0000000
v -0.0032000 0.0052970 -0.0016970
v -0.0032000 0.0045185 -0.0022174
v -0.0032000 0.0036000 -0.0024000
v -0.0032000 0.0026815 -0.0022174
v -0.0032000 0.0019030 -0.0016970
v -0.0032000 0.0013826 -0.0009185
v -0.0032000 0.0012000 -0.0000000
v -0.0032000 0.0013826 0.0009185
v -0.0032000 0.0019030 0.0016970
v -0.0032000 0.0026815 0.0022174
v -0.0032000 0.0036000 0.0024000
v -0.0032000 0.0045185 0.0022174
v -0.0032000 0.0052970 0.0016970
v -0.0032000 0.0058174 0.0009185
v -0.0040000 0.0072000 -0.0000000
v -0.0040000 0.0069260 -0.0013777
v -0.0040000 0.0065565 -0.0012246
v -0.0040000 0.0068000 -0.0000000
v -0.0040000 0.0061456 -0.0025456
v -0.0040000 0.0058627 -0.0022627
v -0.0040000 0.0049777 -0.0033260
v -0.0040000 0.0048246 -0.0029565
v -0.0040000 0.0036000 -0.0036000
v -0.0040000 0.0036000 -0.0032000
v -0.0040000 0.0022223 -0.0033260
v -0.0040000 0.0023754 -0.0029565
v -0.0040000 0.0010544 -0.0025456
v -0.0040000 0.0013373 -0.0022627
v -0.0040000 0.0002740 -0.0013777
v -0.0040000 0.0006435 -0.0012246
v -0.0040000 0.0000000 -0.0000000
v -0.0040000 0.0004000 -0.0000000
v -0.0040000 0.0002740 0.0013777
v -0.0040000 0.0006435 0.0012246
v -0.0040000 0.0010544 0.0025456
v -0.0040000 0.0013373 0.0022627
v -0.0040000 0.0022223 0.0033260
v -0.0040000 0.0023754 0.0029565
v -0.0040000 0.0036000 0.0036000
v -0.0040000 0.0036000 0.0032000
v -0.0040000 0.0049777 0.0033260
v -0.0040000 0.0048246 0.0029565
v -0.0040000 0.0061456 0.0025456
v -0.0040000 0.0058627 0.0022627
v -0.0040000 0.0069260 0.0013777
v -0.0040000 0.0065565 0.0012246
v -0.0032000 0.0023754 -0.0029565
v -0.0032000 0.0036000 -0.0032000
v -0.0032000 0.0013373 -0.0022627
v -0.0032000 0.0006435 -0.0012246
v -0.0032000 0.0004000 -0.0000000
v -0.0032000 0.0006435 0.0012246
v -0.0032000 0.0013373 0.0022627
v -0.0032000 0.0023754 0.0029565
v -0.0032000 0.0036000 0.0032000
v -0.0032000 0.0048246 0.0029565
v -0.0032000 0.0058627 0.0022627
v -0.0032000 0.0065565 0.0012246
v -0.0032000 0.0068000 -0.0000000
v -0.0032000 0.0065565 -0.0012246
v -0.0032000 0.0058627 -0.0022627
v -0.0032000 0.0048246 -0.0029565
v 0.0024000 0.0116000 0.0032000
v 0.0022174 0.0106815 0.0032000
v 0.0029565 0.0103754 0.0032000
v 0.0032000 0.0116000 0.0032000
v 0.0016970 0.0099030 0.0032000
v 0.0022627 0.0093373 0.0032000
v 0.0009185 0.0093826 0.0032000
v 0.0012246 0.0086435 0.0032000
v 0.0000000 0.0092000 0.0032000
v 0.0000000 0.0084000 0.0032000
v -0.0009185 0.0093826 0.0032000
v -0.0012246 0.0086435 0.0032000
v -0.0016970 0.0099030 0.0032000
v -0.0022627 0.0093373 0.0032000
v -0.0022174 0.0106815 0.0032000
v -0.0029565 0.0103754 0.0032000
v -0.0024000 0.0116000 0.0032000
v -0.0032000 0.0116000 0.0032000
v -0.0022174 0.0125185 0.0032000
v -0.0029565 0.0128246 0.0032000
v -0.0016970 0.0132970 0.0032000
v -0.0022627 0.0138627 0.0032000
v -0.0009185 0.0138174 0.0032000
v -0.0012246 0.0145565 0.0032000
v 0.0000000 0.0140000 0.0032000
v 0.0000000 0.0148000 0.0032000
v 0.0009185 0.0138174 0.0032000
v 0.0012246 0.0145565 0.0032000
v 0.0016970 0.0132970 0.0032000
v 0.0022627 0.0138627 0.0032000
v 0.0022174 0.0125185 0.0032000
v 0.0029565 0.0128246 0.0032000
v 0.0012246 0.0145565 0.0040000
v 0.0000000 0.0148000 0.0040000
v 0.0022627 0.0138627 0.0040000
v 0.0029565 0.0128246 0.0040000
v 0.0032000 0.0116000 0.0040000
v 0.0029565 0.0103754 0.0040000
v 0.0022627 0.0093373 0.0040000
v 0.0012246 0.0086435 0.0040000
v 0.0000000 0.0084000 0.0040000
v -0.0012246 0.0086435 0.0040000
v -0.0022627 0.0093373 0.0040000
v -0.0029565 0.0103754 0.0040000
v -0.0032000 0.0116000 0.0040000
v -0.0029565 0.0128246 0.0040000
v -0.0022627 0.0138627 0.0040000
v -0.0012246 0.0145565 0.0040000
v 0.0000000 0.0152000 0.0040000
v -0.0013777 0.0149260 0.0040000
v -0.0025456 0.0141456 0.0040000
v -0.0033260 0.0129777 0.0040000
v -0.0036000 0.0116000 0.0040000
v -0.0033260 0.0102223 0.0040000
v -0.0025456 0.0090544 0.0040000
v -0.0013777 0.0082740 0.0040000
v 0.0000000 0.0080000 0.0040000
v 0.0013777 0.0082740 0.0040000
v 0.0025456 0.0090544 0.0040000
v 0.0033260 0.0102223 0.0040000
v 0.0036000 0.0116000 0.0040000
v 0.0033260 0.0129777 0.0040000
v 0.0025456 0.0141456 0.0040000
v 0.0013777 0.0149260 0.0040000
v 0.0009185 0.0138174 -0.0032000
v 0.0000000 0.0140000 -0.0032000
v 0.0016970 0.0132970 -0.0032000
v 0.0022174 0.0125185 -0.0032000
v 0.0024000 0.0116000 -0.0032000
v 0.0022174 0.0106815 -0.0032000
v 0.0016970 0.0099030 -0.0032000
v 0.0009185 0.0093826 -0.0032000
v 0.0000000 0.0092000 -0.0032000
v -0.0009185 0.0093826 -0.0032000
v -0.0016970 0.0099030 -0.0032000
v -0.0022174 0.0106815 -0.0032000
v -0.0024000 0.0116000 -0.0032000
v -0.0022174 0.0125185 -0.0032000
v -0.0016970 0.0132970 -0.0032000
v -0.0009185 0.0138174 -0.0032000
v 0.0000000 0.0152000 -0.0040000
v 0.0013777 0.0149260 -0.0040000
v 0.0012246 0.0145565 -0.0040000
v 0.0000000 0.0148000 -0.0040000
v 0.0025456 0.0141456 -0.0040000
v 0.0022627 0.0138627 -0.0040000
v 0.0033260 0.0129777 -0.0040000
v 0.0029565 0.0128246 -0.0040000
v 0.0036000 0.0116000 -0.0040000
v 0.0032000 0.0116000 -0.0040000
v 0.0033260 0.0102223 -0.0040000
v 0.0029565 0.0103754 -0.0040000
v 0.0025456 0.0090544 -0.0040000
v 0.0022627 0.0093373 -0.0040000
v 0.0013777 0.0082740 -0.0040000
v 0.0012246 0.0086435 -0.0040000
v 0.0000000 0.0080000 -0.0040000
v 0.0000000 0.0084000 -0.0040000
v -0.0013777 0.0082740 -0.0040000
v -0.0012246 0.0086435 -0.0040000
v -0.0025456 0.0090544 -0.0040000
v -0.0022627 0.0093373 -0.0040000
v -0.0033260 0.0102223 -0.0040000
v -0.0029565 0.0103754 -0.0040000
v -0.0036000 0.0116000 -0.0040000
v -0.0032000 0.0116000 -0.0040000
v -0.0033260 0.0129777 -0.0040000
v -0.0029565 0.0128246 -0.0040000
v -0.0025456 0.0141456 -0.0040000
v -0.0022627 0.0138627 -0.0040000
v -0.0013777 0.0149260 -0.0040000
v -0.0012246 0.0145565 -0.0040000
v 0.0029565 0.0103754 -0.0032000
v 0.0032000 0.0116000 -0.0032000
v 0.0022627 0.0093373 -0.0032000
v 0.0012246 0.0086435 -0.0032000
v 0.0000000 0.0084000 -0.0032000
v -0.0012246 0.0086435 -0.0032000
v -0.0022627 0.0093373 -0.0032000
v -0.0029565 0.0103754 -0.0032000
v -0.0032000 0.0116000 -0.0032000
v -0.0029565 0.0128246 -0.0032000
v -0.0022627 0.0138627 -0.0032000
v -0.0012246 0.0145565 -0.0032000
v 0.0000000 0.0148000 -0.0032000
v 0.0012246 0.0145565 -0.0032000
v 0.0022627 0.0138627 -0.0032000
v 0.0029565 0.0128246 -0.0032000
v -0.0033260 0.0209777 -0.0033260
v -0.0033260 0.0209777 -0.0036000
v -0.0036000 0.0196000 -0.0036000
v -0.0025456 0.0221456 -0.0025456
v -0.0025456 0.0221456 -0.0036000
v -0.0013777 0.0229260 -0.0013777
v -0.0013777 0.0229260 -0.0036000
v 0.0000000 0.0232000 -0.0000000
v 0.0000000 0.0232000 -0.0036000
v 0.0036000 0.0196000 -0.0036000
v 0.0033260 0.0209777 -0.0036000
v 0.0033260 0.0209777 -0.0033260
v 0.0025456 0.0221456 -0.0036000
v 0.0025456 0.0221456 -0.0025456
v 0.0013777 0.0229260 -0.0036000
v 0.0013777 0.0229260 -0.0013777
v -0.0036000 0.0196000 0.0036000
v -0.0033260 0.0209777 0.0036000
v -0.0033260 0.0209777 0.0033260
v -0.0025456 0.0221456 0.0036000
v -0.0025456 0.0221456 0.0025456
v -0.0013777 0.0229260 0.0036000
v -0.0013777 0.0229260 0.0013777
v 0.0000000 0.0232000 0.0036000
v 0.0033260 0.0209777 0.0033260
v 0.0033260 0.0209777 0.0036000
v 0.0036000 0.0196000 0.0036000
v 0.0025456 0.0221456 0.0025456
v 0.0025456 0.0221456 0.0036000
v 0.0013777 0.0229260 0.0013777
v 0.0013777 0.0229260 0.0036000
v 0.0033260 0.0209777 0.0040000
v 0.0036000 0.0196000 0.0040000
v 0.0025456 0.0221456 0.0040000
v 0.0013777 0.0229260 0.0040000
v 0.0000000 0.0232000 0.0040000
v -0.0013777 0.0229260 0.0040000
v -0.0025456 0.0221456 0.0040000
v -0.0033260 0.0209777 0.0040000
v -0.0036000 0.0196000 0.0040000
v 0.0036000 0.0196000 -0.0040000
v 0.0033260 0.0209777 -0.0040000
v 0.0025456 0.0221456 -0.0040000
v 0.0013777 0.0229260 -0.0040000
v 0.0000000 0.0232000 -0.0040000
v -0.0013777 0.0229260 -0.0040000
v -0.0025456 0.0221456 -0.0040000
v -0.0033260 0.0209777 -0.0040000
v -0.0036000 0.0196000 -0.0040000
v -0.0036000 0.0036000 -0.0036000
v -0.0033260 0.0022223 -0.0036000
v -0.0033260 0.0022223 -0.0033260
v -0.0025456 0.0010544 -0.0036000
v -0.0025456 0.0010544 -0.0025456
v -0.0013777 0.0002740 -0.0036000
v -0.0013777 0.0002740 -0.0013777
v 0.0000000 0.0000000 -0.0036000
v 0.0000000 0.0000000 -0.0000000
v 0.0033260 0.0022223 -0.0033260
v 0.0033260 0.0022223 -0.0036000
v 0.0036000 0.0036000 -0.0036000
v 0.0025456 0.0010544 -0.0025456
v 0.0025456 0.0010544 -0.0036000
v 0.0013777 0.0002740 -0.0013777
v 0.0013777 0.0002740 -0.0036000
v -0.0033260 0.0022223 0.0033260
v -0.0033260 0.0022223 0.0036000
v -0.0036000 0.0036000 0.0036000
v -0.0025456 0.0010544 0.0025456
v -0.0025456 0.0010544 0.0036000
v -0.0013777 0.0002740 0.0013777
v -0.0013777 0.0002740 0.0036000
v 0.0000000 0.0000000 0.0036000
v 0.0036000 0.0036000 0.0036000
v 0.0033260 0.0022223 0.0036000
v 0.0033260 0.0022223 0.0033260
v 0.0025456 0.0010544 0.0036000
v 0.0025456 0.0010544 0.0025456
v 0.0013777 0.0002740 0.0036000
v 0.0013777 0.0002740 0.0013777
v 0.0036000 0.0036000 0.0040000
v 0.0033260 0.0022223 0.0040000
v 0.0025456 0.0010544 0.0040000
v 0.0013777 0.0002740 0.0040000
v 0.0000000 0.0000000 0.0040000
v -0.0013777 0.0002740 0.0040000
v -0.0025456 0.0010544 0.0040000
v -0.0033260 0.0022223 0.0040000
v -0.0036000 0.0036000 0.0040000
v 0.0033260 0.0022223 -0.0040000
v 0.0036000 0.0036000 -0.0040000
v 0.0025456 0.0010544 -0.0040000
v 0.0013777 0.0002740 -0.0040000
v 0.0000000 0.0000000 -0.0040000
v -0.0013777 0.0002740 -0.0040000
v -0.0025456 0.0010544 -0.0040000
v -0.0033260 0.0022223 -0.0040000
v -0.0036000 0.0036000 -0.0040000
v 0.0036000 0.0152000 0.0040000
v -0.0036000 0.0152000 0.0040000
v -0.0036000 0.0080000 0.0040000
v 0.0036000 0.0080000 0.0040000
v 0.0036000 0.0152000 -0.0040000
v -0.0036000 0.0152000 -0.0040000
v -0.0036000 0.0080000 -0.0040000
v 0.0036000 0.0080000 -0.0040000
v 0.0036000 0.0182223 -0.0033260
v 0.0036000 0.0170544 -0.0025456
v 0.0036000 0.0162740 -0.0013777
v 0.0036000 0.0160000 -0.0000000
v 0.0036000 0.0162740 0.0013777
v 0.0036000 0.0170544 0.0025456
v 0.0036000 0.0182223 0.0033260
v 0.0008000 0.0160000 -0.0000000
v 0.0008000 0.0162740 -0.0013777
v 0.0008000 0.0170544 -0.0025456
v 0.0008000 0.0162740 0.0013777
v 0.0008000 0.0170544 0.0025456
v 0.0036000 0.0049777 -0.0033260
v 0.0036000 0.0061456 -0.0025456
v 0.0036000 0.0069260 -0.0013777
v 0.0036000 0.0072000 -0.0000000
v 0.0036000 0.0069260 0.0013777
v 0.0036000 0.0061456 0.0025456
v 0.0036000 0.0049777 0.0033260
v 0.0008000 0.0069260 -0.0013777
v 0.0008000 0.0072000 -0.0000000
v 0.0008000 0.0061456 -0.0025456
v 0.0008000 0.0069260 0.0013777
v 0.0008000 0.0061456 0.0025456
v 0.0013012 0.0147413 0.0025456
v 0.0013012 0.0147413 -0.0025456
v 0.0000000 0.0150000 -0.0025456
v 0.0000000 0.0150000 0.0025456
v 0.0024041 0.0140041 0.0025456
v 0.0024041 0.0140041 -0.0025456
v 0.0031413 0.0129012 0.0025456
v 0.0031413 0.0129012 -0.0025456
v 0.0008000 0.0148409 -0.0025456
v 0.0008000 0.0148409 0.0025456
v 0.0000000 0.0082000 -0.0025456
v 0.0013012 0.0084587 -0.0025456
v 0.0013012 0.0084587 0.0025456
v 0.0000000 0.0082000 0.0025456
v 0.0024041 0.0091959 -0.0025456
v 0.0024041 0.0091959 0.0025456
v 0.0031413 0.0102988 -0.0025456
v 0.0031413 0.0102988 0.0025456
v 0.0008000 0.0083591 0.0025456
v 0.0008000 0.0083591 -0.0025456
v 0.0032742 0.0136000 0.0025456
v 0.0032742 0.0096000 0.0025456
v 0.0032742 0.0096000 -0.0025456
v 0.0032742 0.0136000 -0.0025456
v 0.0026742 0.0096000 0.0025456
v 0.0026742 0.0096000 -0.0025456
v 0.0026742 0.0136000 -0.0025456
v 0.0026742 0.0136000 0.0025456
v -0.0036000 0.0182223 -0.0033260
v -0.0036000 0.0170544 -0.0025456
v -0.0036000 0.0162740 -0.0013777
v -0.0036000 0.0160000 -0.0000000
v -0.0036000 0.0162740 0.0013777
v -0.0036000 0.0170544 0.0025456
v -0.0036000 0.0182223 0.0033260
v -0.0008000 0.0162740 -0.0013777
v -0.0008000 0.0160000 -0.0000000
v -0.0008000 0.0170544 -0.0025456
v -0.0008000 0.0162740 0.0013777
v -0.0008000 0.0170544 0.0025456
v -0.0036000 0.0049777 -0.0033260
v -0.0036000 0.0061456 -0.0025456
v -0.0036000 0.0069260 -0.0013777
v -0.0036000 0.0072000 -0.0000000
v -0.0036000 0.0069260 0.0013777
v -0.0036000 0.0061456 0.0025456
v -0.0036000 0.0049777 0.0033260
v -0.0008000 0.0072000 -0.0000000
v -0.0008000 0.0069260 -0.0013777
v -0.0008000 0.0061456 -0.0025456
v -0.0008000 0.0069260 0.0013777
v -0.0008000 0.0061456 0.0025456
v -0.0013012 0.0147413 -0.0025456
v -0.0013012 0.0147413 0.0025456
v -0.0024041 0.0140041 -0.0025456
v -0.0024041 0.0140041 0.0025456
v -0.0031413 0.0129012 -0.0025456
v -0.0031413 0.0129012 0.0025456
v -0.0008000 0.0148409 0.0025456
v -0.0008000 0.0148409 -0.0025456
v -0.0013012 0.0084587 0.0025456
v -0.0013012 0.0084587 -0.0025456
v -0.0024041 0.0091959 0.0025456
v -0.0024041 0.0091959 -0.0025456
v -0.0031413 0.0102988 0.0025456
v -0.0031413 0.0102988 -0.0025456
v -0.0008000 0.0083591 -0.0025456
v -0.0008000 0.0083591 0.0025456
v -0.0032742 0.0096000 -0.0025456
v -0.0032742 0.0096000 0.0025456
v -0.0032742 0.0136000 0.0025456
v -0.0032742 0.0136000 -0.0025456
v -0.0026742 0.0096000 -0.0025456
v -0.0026742 0.0096000 0.0025456
v -0.0026742 0.0136000 0.0025456
v -0.0026742 0.0136000 -0.0025456
v 0.0004000 0.0059204 -0.0086000
v 0.0009184 0.0058172 -0.0086000
v 0.0009184 0.0058172 -0.0112000
v 0.0004000 0.0059204 -0.0112000
v 0.0009184 0.0013828 -0.0086000
v 0.0004000 0.0012796 -0.0086000
v 0.0004000 0.0012796 -0.0112000
v 0.0009184 0.0013828 -0.0112000
v -0.0004000 0.0012796 -0.0086000
v -0.0009184 0.0013828 -0.0086000
v -0.0009184 0.0013828 -0.0112000
v -0.0004000 0.0012796 -0.0112000
v -0.0009184 0.0058172 -0.0086000
v -0.0004000 0.0059204 -0.0086000
v -0.0004000 0.0059204 -0.0112000
v -0.0009184 0.0058172 -0.0112000
v 0.0009952 0.0060020 -0.0112000
v 0.0004000 0.0061204 -0.0112000
v 0.0004000 0.0010796 -0.0112000
v 0.0009952 0.0011980 -0.0112000
v -0.0009952 0.0011980 -0.0112000
v -0.0004000 0.0010796 -0.0112000
v -0.0004000 0.0061204 -0.0112000
v -0.0009952 0.0060020 -0.0112000
v 0.0009952 0.0060020 -0.0120000
v 0.0004000 0.0061204 -0.0120000
v 0.0004000 0.0010796 -0.0120000
v 0.0009952 0.0011980 -0.0120000
v -0.0009952 0.0011980 -0.0120000
v -0.0004000 0.0010796 -0.0120000
v -0.0004000 0.0061204 -0.0120000
v -0.0009952 0.0060020 -0.0120000
v 0.0004000 0.0059204 -0.0090000
v 0.0004000 0.0051204 -0.0112000
v 0.0004000 0.0051204 -0.0090000
v 0.0004000 0.0051204 -0.0120000
v 0.0006124 0.0050784 -0.0120000
v 0.0004000 0.0020796 -0.0120000
v 0.0006124 0.0021216 -0.0120000
v 0.0004000 0.0020796 -0.0112000
v 0.0004000 0.0012796 -0.0090000
v 0.0004000 0.0020796 -0.0090000
v -0.0004000 0.0012796 -0.0090000
v -0.0004000 0.0020796 -0.0112000
v -0.0004000 0.0020796 -0.0090000
v -0.0004000 0.0020796 -0.0120000
v -0.0006124 0.0021216 -0.0120000
v -0.0004000 0.0051204 -0.0120000
v -0.0006124 0.0050784 -0.0120000
v -0.0004000 0.0051204 -0.0112000
v -0.0004000 0.0059204 -0.0090000
v -0.0004000 0.0051204 -0.0090000
v 0.0006124 0.0050784 -0.0086000
v 0.0004000 0.0051204 -0.0086000
v 0.0004000 0.0020796 -0.0086000
v 0.0006124 0.0021216 -0.0086000
v -0.0006124 0.0021216 -0.0086000
v -0.0004000 0.0020796 -0.0086000
v -0.0004000 0.0051204 -0.0086000
v -0.0006124 0.0050784 -0.0086000
v 0.0000000 0.0060000 -0.0048000
v 0.0009185 0.0058174 -0.0048000
v 0.0009185 0.0058174 -0.0086000
v 0.0000000 0.0060000 -0.0086000
v 0.0016970 0.0052970 -0.0048000
v 0.0016970 0.0052970 -0.0086000
v 0.0022174 0.0045185 -0.0048000
v 0.0022174 0.0045185 -0.0086000
v 0.0024000 0.0036000 -0.0048000
v 0.0024000 0.0036000 -0.0086000
v 0.0022174 0.0026815 -0.0048000
v 0.0022174 0.0026815 -0.0086000
v 0.0016970 0.0019030 -0.0048000
v 0.0016970 0.0019030 -0.0086000
v 0.0009185 0.0013826 -0.0048000
v 0.0009185 0.0013826 -0.0086000
v 0.0000000 0.0012000 -0.0048000
v 0.0000000 0.0012000 -0.0086000
v -0.0009185 0.0013826 -0.0048000
v -0.0009185 0.0013826 -0.0086000
v -0.0016970 0.0019030 -0.0048000
v -0.0016970 0.0019030 -0.0086000
v -0.0022174 0.0026815 -0.0048000
v -0.0022174 0.0026815 -0.0086000
v -0.0024000 0.0036000 -0.0048000
v -0.0024000 0.0036000 -0.0086000
v -0.0022174 0.0045185 -0.0048000
v -0.0022174 0.0045185 -0.0086000
v -0.0016970 0.0052970 -0.0048000
v -0.0016970 0.0052970 -0.0086000
v -0.0009185 0.0058174 -0.0048000
v -0.0009185 0.0058174 -0.0086000
v -0.0016971 0.0019029 -0.0086000
v -0.0016971 0.0019029 -0.0112000
v -0.0009184 0.0013827 -0.0112000
v -0.0009184 0.0013827 -0.0086000
v -0.0022173 0.0026816 -0.0086000
v -0.0022173 0.0026816 -0.0112000
v -0.0024001 0.0036000 -0.0086000
v -0.0024001 0.0036000 -0.0112000
v -0.0022173 0.0045184 -0.0086000
v -0.0022173 0.0045184 -0.0112000
v -0.0016971 0.0052971 -0.0086000
v -0.0016971 0.0052971 -0.0112000
v -0.0009184 0.0058173 -0.0086000
v -0.0009184 0.0058173 -0.0112000
v 0.0016971 0.0052971 -0.0086000
v 0.0016971 0.0052971 -0.0112000
v 0.0009184 0.0058173 -0.0112000
v 0.0009184 0.0058173 -0.0086000
v 0.0022173 0.0045184 -0.0086000
v 0.0022173 0.0045184 -0.0112000
v 0.0024001 0.0036000 -0.0086000
v 0.0024001 0.0036000 -0.0112000
v 0.0022173 0.0026816 -0.0086000
v 0.0022173 0.0026816 -0.0112000
v 0.0016971 0.0019029 -0.0086000
v 0.0016971 0.0019029 -0.0112000
v 0.0009184 0.0013827 -0.0086000
v 0.0009184 0.0013827 -0.0112000
v 0.0018385 0.0054385 -0.0112000
v 0.0018385 0.0054385 -0.0120000
v 0.0009950 0.0060021 -0.0120000
v 0.0009950 0.0060021 -0.0112000
v 0.0024021 0.0045950 -0.0112000
v 0.0024021 0.0045950 -0.0120000
v 0.0026001 0.0036000 -0.0112000
v 0.0026001 0.0036000 -0.0120000
v 0.0024021 0.0026050 -0.0112000
v 0.0024021 0.0026050 -0.0120000
v 0.0018385 0.0017615 -0.0112000
v 0.0018385 0.0017615 -0.0120000
v 0.0009950 0.0011979 -0.0112000
v 0.0009950 0.0011979 -0.0120000
v -0.0018385 0.0017615 -0.0112000
v -0.0018385 0.0017615 -0.0120000
v -0.0009950 0.0011979 -0.0120000
v -0.0009950 0.0011979 -0.0112000
v -0.0024021 0.0026050 -0.0112000
v -0.0024021 0.0026050 -0.0120000
v -0.0026001 0.0036000 -0.0112000
v -0.0026001 0.0036000 -0.0120000
v -0.0024021 0.0045950 -0.0112000
v -0.0024021 0.0045950 -0.0120000
v -0.0018385 0.0054385 -0.0112000
v -0.0018385 0.0054385 -0.0120000
v -0.0009950 0.0060021 -0.0112000
v -0.0009950 0.0060021 -0.0120000
v 0.0000000 0.0068000 -0.0040000
v 0.0012246 0.0065565 -0.0040000
v 0.0012246 0.0065565 -0.0048000
v 0.0000000 0.0068000 -0.0048000
v 0.0022627 0.0058627 -0.0040000
v 0.0022627 0.0058627 -0.0048000
v 0.0029565 0.0048246 -0.0040000
v 0.0029565 0.0048246 -0.0048000
v 0.0032000 0.0036000 -0.0040000
v 0.0032000 0.0036000 -0.0048000
v 0.0029565 0.0023754 -0.0040000
v 0.0029565 0.0023754 -0.0048000
v 0.0022627 0.0013373 -0.0040000
v 0.0022627 0.0013373 -0.0048000
v 0.0012246 0.0006435 -0.0040000
v 0.0012246 0.0006435 -0.0048000
v 0.0000000 0.0004000 -0.0040000
v 0.0000000 0.0004000 -0.0048000
v -0.0012246 0.0006435 -0.0040000
v -0.0012246 0.0006435 -0.0048000
v -0.0022627 0.0013373 -0.0040000
v -0.0022627 0.0013373 -0.0048000
v -0.0029565 0.0023754 -0.0040000
v -0.0029565 0.0023754 -0.0048000
v -0.0032000 0.0036000 -0.0040000
v -0.0032000 0.0036000 -0.0048000
v -0.0029565 0.0048246 -0.0040000
v -0.0029565 0.0048246 -0.0048000
v -0.0022627 0.0058627 -0.0040000
v -0.0022627 0.0058627 -0.0048000
v -0.0012246 0.0065565 -0.0040000
v -0.0012246 0.0065565 -0.0048000
v 0.0006123 0.0050782 -0.0086000
v 0.0006123 0.0050782 -0.0040000
v 0.0000000 0.0052000 -0.0040000
v 0.0000000 0.0052000 -0.0086000
v 0.0011314 0.0047314 -0.0086000
v 0.0011314 0.0047314 -0.0040000
v 0.0014782 0.0042123 -0.0086000
v 0.0014782 0.0042123 -0.0040000
v 0.0016000 0.0036000 -0.0086000
v 0.0016000 0.0036000 -0.0040000
v 0.0014782 0.0029877 -0.0086000
v 0.0014782 0.0029877 -0.0040000
v 0.0011314 0.0024686 -0.0086000
v 0.0011314 0.0024686 -0.0040000
v 0.0006123 0.0021218 -0.0086000
v 0.0006123 0.0021218 -0.0040000
v 0.0000000 0.0020000 -0.0086000
v 0.0000000 0.0020000 -0.0040000
v -0.0006123 0.0021218 -0.0086000
v -0.0006123 0.0021218 -0.0040000
v -0.0011314 0.0024686 -0.0086000
v -0.0011314 0.0024686 -0.0040000
v -0.0014782 0.0029877 -0.0086000
v -0.0014782 0.0029877 -0.0040000
v -0.0016000 0.0036000 -0.0086000
v -0.0016000 0.0036000 -0.0040000
v -0.0014782 0.0042123 -0.0086000
v -0.0014782 0.0042123 -0.0040000
v -0.0011314 0.0047314 -0.0086000
v -0.0011314 0.0047314 -0.0040000
v -0.0006123 0.0050782 -0.0086000
v -0.0006123 0.0050782 -0.0040000
v 0.0006123 0.0050782 -0.0120000
v 0.0011314 0.0047314 -0.0120000
v 0.0014782 0.0042123 -0.0120000
v 0.0016000 0.0036000 -0.0120000
v 0.0014782 0.0029877 -0.0120000
v 0.0011314 0.0024686 -0.0120000
v 0.0006123 0.0021218 -0.0120000
v -0.0006123 0.0021218 -0.0120000
v -0.0011314 0.0024686 -0.0120000
v -0.0014782 0.0029877 -0.0120000
v -0.0016000 0.0036000 -0.0120000
v -0.0014782 0.0042123 -0.0120000
v -0.0011314 0.0047314 -0.0120000
v -0.0006123 0.0050782 -0.0120000
v 0.0009184 0.0058173 -0.0120000
v 0.0016971 0.0052971 -0.0120000
v 0.0022173 0.0045184 -0.0120000
v 0.0024001 0.0036000 -0.0120000
v 0.0022173 0.0026816 -0.0120000
v 0.0016971 0.0019029 -0.0120000
v 0.0009184 0.0013827 -0.0120000
v -0.0009184 0.0013827 -0.0120000
v -0.0016971 0.0019029 -0.0120000
v -0.0022173 0.0026816 -0.0120000
v -0.0024001 0.0036000 -0.0120000
v -0.0022173 0.0045184 -0.0120000
v -0.0016971 0.0052971 -0.0120000
v -0.0009184 0.0058173 -0.0120000
v 0.0001531 0.0012305 -0.0086304
v 0.0002828 0.0012563 -0.0087172
v 0.0003696 0.0012735 -0.0088469
v -0.0001531 0.0012305 -0.0086304
v -0.0002828 0.0012563 -0.0087172
v -0.0003696 0.0012735 -0.0088469
v -0.0001531 0.0059695 -0.0086304
v -0.0002828 0.0059437 -0.0087172
v -0.0003696 0.0059265 -0.0088469
v 0.0001531 0.0059695 -0.0086304
v 0.0002828 0.0059437 -0.0087172
v 0.0003696 0.0059265 -0.0088469
v 0.0001531 0.0020305 -0.0086304
v 0.0002828 0.0020563 -0.0087172
v 0.0003696 0.0020735 -0.0088469
v -0.0001531 0.0020305 -0.0086304
v -0.0002828 0.0020563 -0.0087172
v -0.0003696 0.0020735 -0.0088469
v -0.0001531 0.0051695 -0.0086304
v -0.0002828 0.0051437 -0.0087172
v -0.0003696 0.0051265 -0.0088469
v 0.0001531 0.0051695 -0.0086304
v 0.0002828 0.0051437 -0.0087172
v 0.0003696 0.0051265 -0.0088469
v 0.0009184 0.0173828 -0.0112000
v 0.0009184 0.0173828 -0.0086000
v 0.0004000 0.0172796 -0.0086000
v 0.0004000 0.0172796 -0.0112000
v 0.0004000 0.0219204 -0.0112000
v 0.0004000 0.0219204 -0.0086000
v 0.0009184 0.0218172 -0.0086000
v 0.0009184 0.0218172 -0.0112000
v -0.0009184 0.0218172 -0.0112000
v -0.0009184 0.0218172 -0.0086000
v -0.0004000 0.0219204 -0.0086000
v -0.0004000 0.0219204 -0.0112000
v -0.0004000 0.0172796 -0.0112000
v -0.0004000 0.0172796 -0.0086000
v -0.0009184 0.0173828 -0.0086000
v -0.0009184 0.0173828 -0.0112000
v 0.0009952 0.0171980 -0.0112000
v 0.0004000 0.0170796 -0.0112000
v 0.0004000 0.0221204 -0.0112000
v 0.0009952 0.0220020 -0.0112000
v -0.0009952 0.0220020 -0.0112000
v -0.0004000 0.0221204 -0.0112000
v -0.0004000 0.0170796 -0.0112000
v -0.0009952 0.0171980 -0.0112000
v 0.0009952 0.0171980 -0.0120000
v 0.0004000 0.0170796 -0.0120000
v 0.0004000 0.0221204 -0.0120000
v 0.0009952 0.0220020 -0.0120000
v -0.0009952 0.0220020 -0.0120000
v -0.0004000 0.0221204 -0.0120000
v -0.0004000 0.0170796 -0.0120000
v -0.0009952 0.0171980 -0.0120000
v 0.0004000 0.0180796 -0.0112000
v 0.0004000 0.0172796 -0.0090000
v 0.0004000 0.0180796 -0.0090000
v 0.0004000 0.0180796 -0.0120000
v 0.0006124 0.0181216 -0.0120000
v 0.0004000 0.0211204 -0.0120000
v 0.0006124 0.0210784 -0.0120000
v 0.0004000 0.0211204 -0.0112000
v 0.0004000 0.0219204 -0.0090000
v 0.0004000 0.0211204 -0.0090000
v -0.0004000 0.0211204 -0.0112000
v -0.0004000 0.0219204 -0.0090000
v -0.0004000 0.0211204 -0.0090000
v -0.0004000 0.0211204 -0.0120000
v -0.0006124 0.0210784 -0.0120000
v -0.0004000 0.0180796 -0.0120000
v -0.0006124 0.0181216 -0.0120000
v -0.0004000 0.0180796 -0.0112000
v -0.0004000 0.0172796 -0.0090000
v -0.0004000 0.0180796 -0.0090000
v 0.0006124 0.0181216 -0.0086000
v 0.0004000 0.0180796 -0.0086000
v 0.0004000 0.0211204 -0.0086000
v 0.0006124 0.0210784 -0.0086000
v -0.0006124 0.0210784 -0.0086000
v -0.0004000 0.0211204 -0.0086000
v -0.0004000 0.0180796 -0.0086000
v -0.0006124 0.0181216 -0.0086000
v 0.0009185 0.0173826 -0.0086000
v 0.0009185 0.0173826 -0.0048000
v 0.0000000 0.0172000 -0.0048000
v 0.0000000 0.0172000 -0.0086000
v 0.0016970 0.0179030 -0.0086000
v 0.0016970 0.0179030 -0.0048000
v 0.0022174 0.0186815 -0.0086000
v 0.0022174 0.0186815 -0.0048000
v 0.0024000 0.0196000 -0.0086000
v 0.0024000 0.0196000 -0.0048000
v 0.0022174 0.0205185 -0.0086000
v 0.0022174 0.0205185 -0.0048000
v 0.0016970 0.0212970 -0.0086000
v 0.0016970 0.0212970 -0.0048000
v 0.0009185 0.0218174 -0.0086000
v 0.0009185 0.0218174 -0.0048000
v 0.0000000 0.0220000 -0.0086000
v 0.0000000 0.0220000 -0.0048000
v -0.0009185 0.0218174 -0.0086000
v -0.0009185 0.0218174 -0.0048000
v -0.0016970 0.0212970 -0.0086000
v -0.0016970 0.0212970 -0.0048000
v -0.0022174 0.0205185 -0.0086000
v -0.0022174 0.0205185 -0.0048000
v -0.0024000 0.0196000 -0.0086000
v -0.0024000 0.0196000 -0.0048000
v -0.0022174 0.0186815 -0.0086000
v -0.0022174 0.0186815 -0.0048000
v -0.0016970 0.0179030 -0.0086000
v -0.0016970 0.0179030 -0.0048000
v -0.0009185 0.0173826 -0.0086000
v -0.0009185 0.0173826 -0.0048000
v -0.0009184 0.0218173 -0.0112000
v -0.0016971 0.0212971 -0.0112000
v -0.0016971 0.0212971 -0.0086000
v -0.0009184 0.0218173 -0.0086000
v -0.0022173 0.0205184 -0.0112000
v -0.0022173 0.0205184 -0.0086000
v -0.0024001 0.0196000 -0.0112000
v -0.0024001 0.0196000 -0.0086000
v -0.0022173 0.0186816 -0.0112000
v -0.0022173 0.0186816 -0.0086000
v -0.0016971 0.0179029 -0.0112000
v -0.0016971 0.0179029 -0.0086000
v -0.0009184 0.0173827 -0.0112000
v -0.0009184 0.0173827 -0.0086000
v 0.0009184 0.0173827 -0.0112000
v 0.0016971 0.0179029 -0.0112000
v 0.0016971 0.0179029 -0.0086000
v 0.0009184 0.0173827 -0.0086000
v 0.0022173 0.0186816 -0.0112000
v 0.0022173 0.0186816 -0.0086000
v 0.0024001 0.0196000 -0.0112000
v 0.0024001 0.0196000 -0.0086000
v 0.0022173 0.0205184 -0.0112000
v 0.0022173 0.0205184 -0.0086000
v 0.0016971 0.0212971 -0.0112000
v 0.0016971 0.0212971 -0.0086000
v 0.0009184 0.0218173 -0.0112000
v 0.0009184 0.0218173 -0.0086000
v 0.0009950 0.0171979 -0.0120000
v 0.0018385 0.0177615 -0.0120000
v 0.0018385 0.0177615 -0.0112000
v 0.0009950 0.0171979 -0.0112000
v 0.0024021 0.0186050 -0.0120000
v 0.0024021 0.0186050 -0.0112000
v 0.0026001 0.0196000 -0.0120000
v 0.0026001 0.0196000 -0.0112000
v 0.0024021 0.0205950 -0.0120000
v 0.0024021 0.0205950 -0.0112000
v 0.0018385 0.0214385 -0.0120000
v 0.0018385 0.0214385 -0.0112000
v 0.0009950 0.0220021 -0.0120000
v 0.0009950 0.0220021 -0.0112000
v -0.0009950 0.0220021 -0.0120000
v -0.0018385 0.0214385 -0.0120000
v -0.0018385 0.0214385 -0.0112000
v -0.0009950 0.0220021 -0.0112000
v -0.0024021 0.0205950 -0.0120000
v -0.0024021 0.0205950 -0.0112000
v -0.0026001 0.0196000 -0.0120000
v -0.0026001 0.0196000 -0.0112000
v -0.0024021 0.0186050 -0.0120000
v -0.0024021 0.0186050 -0.0112000
v -0.0018385 0.0177615 -0.0120000
v -0.0018385 0.0177615 -0.0112000
v -0.0009950 0.0171979 -0.0120000
v -0.0009950 0.0171979 -0.0112000
v 0.0012246 0.0166435 -0.0048000
v 0.0012246 0.0166435 -0.0040000
v 0.0000000 0.0164000 -0.0040000
v 0.0000000 0.0164000 -0.0048000
v 0.0022627 0.0173373 -0.0048000
v 0.0022627 0.0173373 -0.0040000
v 0.0029565 0.0183754 -0.0048000
v 0.0029565 0.0183754 -0.0040000
v 0.0032000 0.0196000 -0.0048000
v 0.0032000 0.0196000 -0.0040000
v 0.0029565 0.0208246 -0.0048000
v 0.0029565 0.0208246 -0.0040000
v 0.0022627 0.0218627 -0.0048000
v 0.0022627 0.0218627 -0.0040000
v 0.0012246 0.0225565 -0.0048000
v 0.0012246 0.0225565 -0.0040000
v 0.0000000 0.0228000 -0.0048000
v 0.0000000 0.0228000 -0.0040000
v -0.0012246 0.0225565 -0.0048000
v -0.0012246 0.0225565 -0.0040000
v -0.0022627 0.0218627 -0.0048000
v -0.0022627 0.0218627 -0.0040000
v -0.0029565 0.0208246 -0.0048000
v -0.0029565 0.0208246 -0.0040000
v -0.0032000 0.0196000 -0.0048000
v -0.0032000 0.0196000 -0.0040000
v -0.0029565 0.0183754 -0.0048000
v -0.0029565 0.0183754 -0.0040000
v -0.0022627 0.0173373 -0.0048000
v -0.0022627 0.0173373 -0.0040000
v -0.0012246 0.0166435 -0.0048000
v -0.0012246 0.0166435 -0.0040000
v 0.0000000 0.0180000 -0.0040000
v 0.0006123 0.0181218 -0.0040000
v 0.0006123 0.0181218 -0.0086000
v 0.0000000 0.0180000 -0.0086000
v 0.0011314 0.0184686 -0.0040000
v 0.0011314 0.0184686 -0.0086000
v 0.0014782 0.0189877 -0.0040000
v 0.0014782 0.0189877 -0.0086000
v 0.0016000 0.0196000 -0.0040000
v 0.0016000 0.0196000 -0.0086000
v 0.0014782 0.0202123 -0.0040000
v 0.0014782 0.0202123 -0.0086000
v 0.0011314 0.0207314 -0.0040000
v 0.0011314 0.0207314 -0.0086000
v 0.0006123 0.0210782 -0.0040000
v 0.0006123 0.0210782 -0.0086000
v 0.0000000 0.0212000 -0.0040000
v 0.0000000 0.0212000 -0.0086000
v -0.0006123 0.0210782 -0.0040000
v -0.0006123 0.0210782 -0.0086000
v -0.0011314 0.0207314 -0.0040000
v -0.0011314 0.0207314 -0.0086000
v -0.0014782 0.0202123 -0.0040000
v -0.0014782 0.0202123 -0.0086000
v -0.0016000 0.0196000 -0.0040000
v -0.0016000 0.0196000 -0.0086000
v -0.0014782 0.0189877 -0.0040000
v -0.0014782 0.0189877 -0.0086000
v -0.0011314 0.0184686 -0.0040000
v -0.0011314 0.0184686 -0.0086000
v -0.0006123 0.0181218 -0.0040000
v -0.0006123 0.0181218 -0.0086000
v 0.0011314 0.0184686 -0.0120000
v 0.0006123 0.0181218 -0.0120000
v 0.0014782 0.0189877 -0.0120000
v 0.0016000 0.0196000 -0.0120000
v 0.0014782 0.0202123 -0.0120000
v 0.0011314 0.0207314 -0.0120000
v 0.0006123 0.0210782 -0.0120000
v -0.0011314 0.0207314 -0.0120000
v -0.0006123 0.0210782 -0.0120000
v -0.0014782 0.0202123 -0.0120000
v -0.0016000 0.0196000 -0.0120000
v -0.0014782 0.0189877 -0.0120000
v -0.0011314 0.0184686 -0.0120000
v -0.0006123 0.0181218 -0.0120000
v 0.0016971 0.0179029 -0.0120000
v 0.0009184 0.0173827 -0.0120000
v 0.0022173 0.0186816 -0.0120000
v 0.0024001 0.0196000 -0.0120000
v 0.0022173 0.0205184 -0.0120000
v 0.0016971 0.0212971 -0.0120000
v 0.0009184 0.0218173 -0.0120000
v -0.0016971 0.0212971 -0.0120000
v -0.0009184 0.0218173 -0.0120000
v -0.0022173 0.0205184 -0.0120000
v -0.0024001 0.0196000 -0.0120000
v -0.0022173 0.0186816 -0.0120000
v -0.0016971 0.0179029 -0.0120000
v -0.0009184 0.0173827 -0.0120000
v 0.0001531 0.0219695 -0.0086304
v 0.0002828 0.0219437 -0.0087172
v 0.0003696 0.0219265 -0.0088469
v -0.0001531 0.0219695 -0.0086304
v -0.0002828 0.0219437 -0.0087172
v -0.0003696 0.0219265 -0.0088469
v -0.0001531 0.0172305 -0.0086304
v -0.0002828 0.0172563 -0.0087172
v -0.0003696 0.0172735 -0.0088469
v 0.0001531 0.0172305 -0.0086304
v 0.0002828 0.0172563 -0.0087172
v 0.0003696 0.0172735 -0.0088469
v 0.0001531 0.0211695 -0.0086304
v 0.0002828 0.0211437 -0.0087172
v 0.0003696 0.0211265 -0.0088469
v -0.0001531 0.0211695 -0.0086304
v -0.0002828 0.0211437 -0.0087172
v -0.0003696 0.0211265 -0.0088469
v -0.0001531 0.0180305 -0.0086304
v -0.0002828 0.0180563 -0.0087172
v -0.0003696 0.0180735 -0.0088469
v 0.0001531 0.0180305 -0.0086304
v 0.0002828 0.0180563 -0.0087172
v 0.0003696 0.0180735 -0.0088469
v 0.0009184 0.0058172 0.0112000
v 0.0009184 0.0058172 0.0086000
v 0.0004000 0.0059204 0.0086000
v 0.0004000 0.0059204 0.0112000
v 0.0004000 0.0012796 0.0112000
v 0.0004000 0.0012796 0.0086000
v 0.0009184 0.0013828 0.0086000
v 0.0009184 0.0013828 0.0112000
v -0.0009184 0.0013828 0.0112000
v -0.0009184 0.0013828 0.0086000
v -0.0004000 0.0012796 0.0086000
v -0.0004000 0.0012796 0.0112000
v -0.0004000 0.0059204 0.0112000
v -0.0004000 0.0059204 0.0086000
v -0.0009184 0.0058172 0.0086000
v -0.0009184 0.0058172 0.0112000
v 0.0009952 0.0060020 0.0112000
v 0.0004000 0.0061204 0.0112000
v 0.0004000 0.0010796 0.0112000
v 0.0009952 0.0011980 0.0112000
v -0.0009952 0.0011980 0.0112000
v -0.0004000 0.0010796 0.0112000
v -0.0004000 0.0061204 0.0112000
v -0.0009952 0.0060020 0.0112000
v 0.0009952 0.0060020 0.0120000
v 0.0004000 0.0061204 0.0120000
v 0.0004000 0.0010796 0.0120000
v 0.0009952 0.0011980 0.0120000
v -0.0009952 0.0011980 0.0120000
v -0.0004000 0.0010796 0.0120000
v -0.0004000 0.0061204 0.0120000
v -0.0009952 0.0060020 0.0120000
v 0.0004000 0.0051204 0.0112000
v 0.0004000 0.0059204 0.0090000
v 0.0004000 0.0051204 0.0090000
v 0.0004000 0.0051204 0.0120000
v 0.0006124 0.0050784 0.0120000
v 0.0004000 0.0020796 0.0120000
v 0.0006124 0.0021216 0.0120000
v 0.0004000 0.0020796 0.0112000
v 0.0004000 0.0012796 0.0090000
v 0.0004000 0.0020796 0.0090000
v -0.0004000 0.0020796 0.0112000
v -0.0004000 0.0012796 0.0090000
v -0.0004000 0.0020796 0.0090000
v -0.0004000 0.0020796 0.0120000
v -0.0006124 0.0021216 0.0120000
v -0.0004000 0.0051204 0.0120000
v -0.0006124 0.0050784 0.0120000
v -0.0004000 0.0051204 0.0112000
v -0.0004000 0.0059204 0.0090000
v -0.0004000 0.0051204 0.0090000
v 0.0006124 0.0050784 0.0086000
v 0.0004000 0.0051204 0.0086000
v 0.0004000 0.0020796 0.0086000
v 0.0006124 0.0021216 0.0086000
v -0.0006124 0.0021216 0.0086000
v -0.0004000 0.0020796 0.0086000
v -0.0004000 0.0051204 0.0086000
v -0.0006124 0.0050784 0.0086000
v 0.0009185 0.0058174 0.0086000
v 0.0009185 0.0058174 0.0048000
v 0.0000000 0.0060000 0.0048000
v 0.0000000 0.0060000 0.0086000
v 0.0016970 0.0052970 0.0086000
v 0.0016970 0.0052970 0.0048000
v 0.0022174 0.0045185 0.0086000
v 0.0022174 0.0045185 0.0048000
v 0.0024000 0.0036000 0.0086000
v 0.0024000 0.0036000 0.0048000
v 0.0022174 0.0026815 0.0086000
v 0.0022174 0.0026815 0.0048000
v 0.0016970 0.0019030 0.0086000
v 0.0016970 0.0019030 0.0048000
v 0.0009185 0.0013826 0.0086000
v 0.0009185 0.0013826 0.0048000
v 0.0000000 0.0012000 0.0086000
v 0.0000000 0.0012000 0.0048000
v -0.0009185 0.0013826 0.0086000
v -0.0009185 0.0013826 0.0048000
v -0.0016970 0.0019030 0.0086000
v -0.0016970 0.0019030 0.0048000
v -0.0022174 0.0026815 0.0086000
v -0.0022174 0.0026815 0.0048000
v -0.0024000 0.0036000 0.0086000
v -0.0024000 0.0036000 0.0048000
v -0.0022174 0.0045185 0.0086000
v -0.0022174 0.0045185 0.0048000
v -0.0016970 0.0052970 0.0086000
v -0.0016970 0.0052970 0.0048000
v -0.0009185 0.0058174 0.0086000
v -0.0009185 0.0058174 0.0048000
v -0.0009184 0.0013827 0.0112000
v -0.0016971 0.0019029 0.0112000
v -0.0016971 0.0019029 0.0086000
v -0.0009184 0.0013827 0.0086000
v -0.0022173 0.0026816 0.0112000
v -0.0022173 0.0026816 0.0086000
v -0.0024001 0.0036000 0.0112000
v -0.0024001 0.0036000 0.0086000
v -0.0022173 0.0045184 0.0112000
v -0.0022173 0.0045184 0.0086000
v -0.0016971 0.0052971 0.0112000
v -0.0016971 0.0052971 0.0086000
v -0.0009184 0.0058173 0.0112000
v -0.0009184 0.0058173 0.0086000
v 0.0009184 0.0058173 0.0112000
v 0.0016971 0.0052971 0.0112000
v 0.0016971 0.0052971 0.0086000
v 0.0009184 0.0058173 0.0086000
v 0.0022173 0.0045184 0.0112000
v 0.0022173 0.0045184 0.0086000
v 0.0024001 0.0036000 0.0112000
v 0.0024001 0.0036000 0.0086000
v 0.0022173 0.0026816 0.0112000
v 0.0022173 0.0026816 0.0086000
v 0.0016971 0.0019029 0.0112000
v 0.0016971 0.0019029 0.0086000
v 0.0009184 0.0013827 0.0112000
v 0.0009184 0.0013827 0.0086000
v 0.0009950 0.0060021 0.0120000
v 0.0018385 0.0054385 0.0120000
v 0.0018385 0.0054385 0.0112000
v 0.0009950 0.0060021 0.0112000
v 0.0024021 0.0045950 0.0120000
v 0.0024021 0.0045950 0.0112000
v 0.0026001 0.0036000 0.0120000
v 0.0026001 0.0036000 0.0112000
v 0.0024021 0.0026050 0.0120000
v 0.0024021 0.0026050 0.0112000
v 0.0018385 0.0017615 0.0120000
v 0.0018385 0.0017615 0.0112000
v 0.0009950 0.0011979 0.0120000
v 0.0009950 0.0011979 0.0112000
v -0.0009950 0.0011979 0.0120000
v -0.0018385 0.0017615 0.0120000
v -0.0018385 0.0017615 0.0112000
v -0.0009950 0.0011979 0.0112000
v -0.0024021 0.0026050 0.0120000
v -0.0024021 0.0026050 0.0112000
v -0.0026001 0.0036000 0.0120000
v -0.0026001 0.0036000 0.0112000
v -0.0024021 0.0045950 0.0120000
v -0.0024021 0.0045950 0.0112000
v -0.0018385 0.0054385 0.0120000
v -0.0018385 0.0054385 0.0112000
v -0.0009950 0.0060021 0.0120000
v -0.0009950 0.0060021 0.0112000
v 0.0012246 0.0065565 0.0048000
v 0.0012246 0.0065565 0.0040000
v 0.0000000 0.0068000 0.0040000
v 0.0000000 0.0068000 0.0048000
v 0.0022627 0.0058627 0.0048000
v 0.0022627 0.0058627 0.0040000
v 0.0029565 0.0048246 0.0048000
v 0.0029565 0.0048246 0.0040000
v 0.0032000 0.0036000 0.0048000
v 0.0032000 0.0036000 0.0040000
v 0.0029565 0.0023754 0.0048000
v 0.0029565 0.0023754 0.0040000
v 0.0022627 0.0013373 0.0048000
v 0.0022627 0.0013373 0.0040000
v 0.0012246 0.0006435 0.0048000
v 0.0012246 0.0006435 0.0040000
v 0.0000000 0.0004000 0.0048000
v 0.0000000 0.0004000 0.0040000
v -0.0012246 0.0006435 0.0048000
v -0.0012246 0.0006435 0.0040000
v -0.0022627 0.0013373 0.0048000
v -0.0022627 0.0013373 0.0040000
v -0.0029565 0.0023754 0.0048000
v -0.0029565 0.0023754 0.0040000
v -0.0032000 0.0036000 0.0048000
v -0.0032000 0.0036000 0.0040000
v -0.0029565 0.0048246 0.0048000
v -0.0029565 0.0048246 0.0040000
v -0.0022627 0.0058627 0.0048000
v -0.0022627 0.0058627 0.0040000
v -0.0012246 0.0065565 0.0048000
v -0.0012246 0.0065565 0.0040000
v 0.0000000 0.0052000 0.0040000
v 0.0006123 0.0050782 0.0040000
v 0.0006123 0.0050782 0.0086000
v 0.0000000 0.0052000 0.0086000
v 0.0011314 0.0047314 0.0040000
v 0.0011314 0.0047314 0.0086000
v 0.0014782 0.0042123 0.0040000
v 0.0014782 0.0042123 0.0086000
v 0.0016000 0.0036000 0.0040000
v 0.0016000 0.0036000 0.0086000
v 0.0014782 0.0029877 0.0040000
v 0.0014782 0.0029877 0.0086000
v 0.0011314 0.0024686 0.0040000
v 0.0011314 0.0024686 0.0086000
v 0.0006123 0.0021218 0.0040000
v 0.0006123 0.0021218 0.0086000
v 0.0000000 0.0020000 0.0040000
v 0.0000000 0.0020000 0.0086000
v -0.0006123 0.0021218 0.0040000
v -0.0006123 0.0021218 0.0086000
v -0.0011314 0.0024686 0.0040000
v -0.0011314 0.0024686 0.0086000
v -0.0014782 0.0029877 0.0040000
v -0.0014782 0.0029877 0.0086000
v -0.0016000 0.0036000 0.0040000
v -0.0016000 0.0036000 0.0086000
v -0.0014782 0.0042123 0.0040000
v -0.0014782 0.0042123 0.0086000
v -0.0011314 0.0047314 0.0040000
v -0.0011314 0.0047314 0.0086000
v -0.0006123 0.0050782 0.0040000
v -0.0006123 0.0050782 0.0086000
v 0.0011314 0.0047314 0.0120000
v 0.0006123 0.0050782 0.0120000
v 0.0014782 0.0042123 0.0120000
v 0.0016000 0.0036000 0.0120000
v 0.0014782 0.0029877 0.0120000
v 0.0011314 0.0024686 0.0120000
v 0.0006123 0.0021218 0.0120000
v -0.0011314 0.0024686 0.0120000
v -0.0006123 0.0021218 0.0120000
v -0.0014782 0.0029877 0.0120000
v -0.0016000 0.0036000 0.0120000
v -0.0014782 0.0042123 0.0120000
v -0.0011314 0.0047314 0.0120000
v -0.0006123 0.0050782 0.0120000
v 0.0016971 0.0052971 0.0120000
v 0.0009184 0.0058173 0.0120000
v 0.0022173 0.0045184 0.0120000
v 0.0024001 0.0036000 0.0120000
v 0.0022173 0.0026816 0.0120000
v 0.0016971 0.0019029 0.0120000
v 0.0009184 0.0013827 0.0120000
v -0.0016971 0.0019029 0.0120000
v -0.0009184 0.0013827 0.0120000
v -0.0022173 0.0026816 0.0120000
v -0.0024001 0.0036000 0.0120000
v -0.0022173 0.0045184 0.0120000
v -0.0016971 0.0052971 0.0120000
v -0.0009184 0.0058173 0.0120000
v 0.0001531 0.0012305 0.0086304
v 0.0002828 0.0012563 0.0087172
v 0.0003696 0.0012735 0.0088469
v -0.0001531 0.0012305 0.0086304
v -0.0002828 0.0012563 0.0087172
v -0.0003696 0.0012735 0.0088469
v -0.0001531 0.0059695 0.0086304
v -0.0002828 0.0059437 0.0087172
v -0.0003696 0.0059265 0.0088469
v 0.0001531 0.0059695 0.0086304
v 0.0002828 0.0059437 0.0087172
v 0.0003696 0.0059265 0.0088469
v 0.0001531 0.0020305 0.0086304
v 0.0002828 0.0020563 0.0087172
v 0.0003696 0.0020735 0.0088469
v -0.0001531 0.0020305 0.0086304
v -0.0002828 0.0020563 0.0087172
v -0.0003696 0.0020735 0.0088469
v -0.0001531 0.0051695 0.0086304
v -0.0002828 0.0051437 0.0087172
v -0.0003696 0.0051265 0.0088469
v 0.0001531 0.0051695 0.0086304
v 0.0002828 0.0051437 0.0087172
v 0.0003696 0.0051265 0.0088469
v 0.0004000 0.0172796 0.0086000
v 0.0009184 0.0173828 0.0086000
v 0.0009184 0.0173828 0.0112000
v 0.0004000 0.0172796 0.0112000
v 0.0009184 0.0218172 0.0086000
v 0.0004000 0.0219204 0.0086000
v 0.0004000 0.0219204 0.0112000
v 0.0009184 0.0218172 0.0112000
v -0.0004000 0.0219204 0.0086000
v -0.0009184 0.0218172 0.0086000
v -0.0009184 0.0218172 0.0112000
v -0.0004000 0.0219204 0.0112000
v -0.0009184 0.0173828 0.0086000
v -0.0004000 0.0172796 0.0086000
v -0.0004000 0.0172796 0.0112000
v -0.0009184 0.0173828 0.0112000
v 0.0009952 0.0171980 0.0112000
v 0.0004000 0.0170796 0.0112000
v 0.0004000 0.0221204 0.0112000
v 0.0009952 0.0220020 0.0112000
v -0.0009952 0.0220020 0.0112000
v -0.0004000 0.0221204 0.0112000
v -0.0004000 0.0170796 0.0112000
v -0.0009952 0.0171980 0.0112000
v 0.0009952 0.0171980 0.0120000
v 0.0004000 0.0170796 0.0120000
v 0.0004000 0.0221204 0.0120000
v 0.0009952 0.0220020 0.0120000
v -0.0009952 0.0220020 0.0120000
v -0.0004000 0.0221204 0.0120000
v -0.0004000 0.0170796 0.0120000
v -0.0009952 0.0171980 0.0120000
v 0.0004000 0.0172796 0.0090000
v 0.0004000 0.0180796 0.0112000
v 0.0004000 0.0180796 0.0090000
v 0.0004000 0.0180796 0.0120000
v 0.0006124 0.0181216 0.0120000
v 0.0004000 0.0211204 0.0120000
v 0.0006124 0.0210784 0.0120000
v 0.0004000 0.0211204 0.0112000
v 0.0004000 0.0219204 0.0090000
v 0.0004000 0.0211204 0.0090000
v -0.0004000 0.0219204 0.0090000
v -0.0004000 0.0211204 0.0112000
v -0.0004000 0.0211204 0.0090000
v -0.0004000 0.0211204 0.0120000
v -0.0006124 0.0210784 0.0120000
v -0.0004000 0.0180796 0.0120000
v -0.0006124 0.0181216 0.0120000
v -0.0004000 0.0180796 0.0112000
v -0.0004000 0.0172796 0.0090000
v -0.0004000 0.0180796 0.0090000
v 0.0006124 0.0181216 0.0086000
v 0.0004000 0.0180796 0.0086000
v 0.0004000 0.0211204 0.0086000
v 0.0006124 0.0210784 0.0086000
v -0.0006124 0.0210784 0.0086000
v -0.0004000 0.0211204 0.0086000
v -0.0004000 0.0180796 0.0086000
v -0.0006124 0.0181216 0.0086000
v 0.0000000 0.0172000 0.0048000
v 0.0009185 0.0173826 0.0048000
v 0.0009185 0.0173826 0.0086000
v 0.0000000 0.0172000 0.0086000
v 0.0016970 0.0179030 0.0048000
v 0.0016970 0.0179030 0.0086000
v 0.0022174 0.0186815 0.0048000
v 0.0022174 0.0186815 0.0086000
v 0.0024000 0.0196000 0.0048000
v 0.0024000 0.0196000 0.0086000
v 0.0022174 0.0205185 0.0048000
v 0.0022174 0.0205185 0.0086000
v 0.0016970 0.0212970 0.0048000
v 0.0016970 0.0212970 0.0086000
v 0.0009185 0.0218174 0.0048000
v 0.0009185 0.0218174 0.0086000
v 0.0000000 0.0220000 0.0048000
v 0.0000000 0.0220000 0.0086000
v -0.0009185 0.0218174 0.0048000
v -0.0009185 0.0218174 0.0086000
v -0.0016970 0.0212970 0.0048000
v -0.0016970 0.0212970 0.0086000
v -0.0022174 0.0205185 0.0048000
v -0.0022174 0.0205185 0.0086000
v -0.0024000 0.0196000 0.0048000
v -0.0024000 0.0196000 0.0086000
v -0.0022174 0.0186815 0.0048000
v -0.0022174 0.0186815 0.0086000
v -0.0016970 0.0179030 0.0048000
v -0.0016970 0.0179030 0.0086000
v -0.0009185 0.0173826 0.0048000
v -0.0009185 0.0173826 0.0086000
v -0.0016971 0.0212971 0.0086000
v -0.0016971 0.0212971 0.0112000
v -0.0009184 0.0218173 0.0112000
v -0.0009184 0.0218173 0.0086000
v -0.0022173 0.0205184 0.0086000
v -0.0022173 0.0205184 0.0112000
v -0.0024001 0.0196000 0.0086000
v -0.0024001 0.0196000 0.0112000
v -0.0022173 0.0186816 0.0086000
v -0.0022173 0.0186816 0.0112000
v -0.0016971 0.0179029 0.0086000
v -0.0016971 0.0179029 0.0112000
v -0.0009184 0.0173827 0.0086000
v -0.0009184 0.0173827 0.0112000
v 0.0016971 0.0179029 0.0086000
v 0.0016971 0.0179029 0.0112000
v 0.0009184 0.0173827 0.0112000
v 0.0009184 0.0173827 0.0086000
v 0.0022173 0.0186816 0.0086000
v 0.0022173 0.0186816 0.0112000
v 0.0024001 0.0196000 0.0086000
v 0.0024001 0.0196000 0.0112000
v 0.0022173 0.0205184 0.0086000
v 0.0022173 0.0205184 0.0112000
v 0.0016971 0.0212971 0.0086000
v 0.0016971 0.0212971 0.0112000
v 0.0009184 0.0218173 0.0086000
v 0.0009184 0.0218173 0.0112000
v 0.0018385 0.0177615 0.0112000
v 0.0018385 0.0177615 0.0120000
v 0.0009950 0.0171979 0.0120000
v 0.0009950 0.0171979 0.0112000
v 0.0024021 0.0186050 0.0112000
v 0.0024021 0.0186050 0.0120000
v 0.0026001 0.0196000 0.0112000
v 0.0026001 0.0196000 0.0120000
v 0.0024021 0.0205950 0.0112000
v 0.0024021 0.0205950 0.0120000
v 0.0018385 0.0214385 0.0112000
v 0.0018385 0.0214385 0.0120000
v 0.0009950 0.0220021 0.0112000
v 0.0009950 0.0220021 0.0120000
v -0.0018385 0.0214385 0.0112000
v -0.0018385 0.0214385 0.0120000
v -0.0009950 0.0220021 0.0120000
v -0.0009950 0.0220021 0.0112000
v -0.0024021 0.0205950 0.0112000
v -0.0024021 0.0205950 0.0120000
v -0.0026001 0.0196000 0.0112000
v -0.0026001 0.0196000 0.0120000
v -0.0024021 0.0186050 0.0112000
v -0.0024021 0.0186050 0.0120000
v -0.0018385 0.0177615 0.0112000
v -0.0018385 0.0177615 0.0120000
v -0.0009950 0.0171979 0.0112000
v -0.0009950 0.0171979 0.0120000
v 0.0000000 0.0164000 0.0040000
v 0.0012246 0.0166435 0.0040000
v 0.0012246 0.0166435 0.0048000
v 0.0000000 0.0164000 0.0048000
v 0.0022627 0.0173373 0.0040000
v 0.0022627 0.0173373 0.0048000
v 0.0029565 0.0183754 0.0040000
v 0.0029565 0.0183754 0.0048000
v 0.0032000 0.0196000 0.0040000
v 0.0032000 0.0196000 0.0048000
v 0.0029565 0.0208246 0.0040000
v 0.0029565 0.0208246 0.0048000
v 0.0022627 0.0218627 0.0040000
v 0.0022627 0.0218627 0.0048000
v 0.0012246 0.0225565 0.0040000
v 0.0012246 0.0225565 0.0048000
v 0.0000000 0.0228000 0.0040000
v 0.0000000 0.0228000 0.0048000
v -0.0012246 0.0225565 0.0040000
v -0.0012246 0.0225565 0.0048000
v -0.0022627 0.0218627 0.0040000
v -0.0022627 0.0218627 0.0048000
v -0.0029565 0.0208246 0.0040000
v -0.0029565 0.0208246 0.0048000
v -0.0032000 0.0196000 0.0040000
v -0.0032000 0.0196000 0.0048000
v -0.0029565 0.0183754 0.0040000
v -0.0029565 0.0183754 0.0048000
v -0.0022627 0.0173373 0.0040000
v -0.0022627 0.0173373 0.0048000
v -0.0012246 0.0166435 0.0040000
v -0.0012246 0.0166435 0.0048000
v 0.0006123 0.0181218 0.0086000
v 0.0006123 0.0181218 0.0040000
v 0.0000000 0.0180000 0.0040000
v 0.0000000 0.0180000 0.0086000
v 0.0011314 0.0184686 0.0086000
v 0.0011314 0.0184686 0.0040000
v 0.0014782 0.0189877 0.0086000
v 0.0014782 0.0189877 0.0040000
v 0.0016000 0.0196000 0.0086000
v 0.0016000 0.0196000 0.0040000
v 0.0014782 0.0202123 0.0086000
v 0.0014782 0.0202123 0.0040000
v 0.0011314 0.0207314 0.0086000
v 0.0011314 0.0207314 0.0040000
v 0.0006123 0.0210782 0.0086000
v 0.0006123 0.0210782 0.0040000
v 0.0000000 0.0212000 0.0086000
v 0.0000000 0.0212000 0.0040000
v -0.0006123 0.0210782 0.0086000
v -0.0006123 0.0210782 0.0040000
v -0.0011314 0.0207314 0.0086000
v -0.0011314 0.0207314 0.0040000
v -0.0014782 0.0202123 0.0086000
v -0.0014782 0.0202123 0.0040000
v -0.0016000 0.0196000 0.0086000
v -0.0016000 0.0196000 0.0040000
v -0.0014782 0.0189877 0.0086000
v -0.0014782 0.0189877 0.0040000
v -0.0011314 0.0184686 0.0086000
v -0.0011314 0.0184686 0.0040000
v -0.0006123 0.0181218 0.0086000
v -0.0006123 0.0181218 0.0040000
v 0.0006123 0.0181218 0.0120000
v 0.0011314 0.0184686 0.0120000
v 0.0014782 0.0189877 0.0120000
v 0.0016000 0.0196000 0.0120000
v 0.0014782 0.0202123 0.0120000
v 0.0011314 0.0207314 0.0120000
v 0.0006123 0.0210782 0.0120000
v -0.0006123 0.0210782 0.0120000
v -0.0011314 0.0207314 0.0120000
v -0.0014782 0.0202123 0.0120000
v -0.0016000 0.0196000 0.0120000
v -0.0014782 0.0189877 0.0120000
v -0.0011314 0.0184686 0.0120000
v -0.0006123 0.0181218 0.0120000
v 0.0009184 0.0173827 0.0120000
v 0.0016971 0.0179029 0.0120000
v 0.0022173 0.0186816 0.0120000
v 0.0024001 0.0196000 0.0120000
v 0.0022173 0.0205184 0.0120000
v 0.0016971 0.0212971 0.0120000
v 0.0009184 0.0218173 0.0120000
v -0.0009184 0.0218173 0.0120000
v -0.0016971 0.0212971 0.0120000
v -0.0022173 0.0205184 0.0120000
v -0.0024001 0.0196000 0.0120000
v -0.0022173 0.0186816 0.0120000
v -0.0016971 0.0179029 0.0120000
v -0.0009184 0.0173827 0.0120000
v 0.0001531 0.0219695 0.0086304
v 0.0002828 0.0219437 0.0087172
v 0.0003696 0.0219265 0.0088469
v -0.0001531 0.0219695 0.0086304
v -0.0002828 0.0219437 0.0087172
v -0.0003696 0.0219265 0.0088469
v -0.0001531 0.0172305 0.0086304
v -0.0002828 0.0172563 0.0087172
v -0.0003696 0.0172735 0.0088469
v 0.0001531 0.0172305 0.0086304
v 0.0002828 0.0172563 0.0087172
v 0.0003696 0.0172735 0.0088469
v 0.0001531 0.0211695 0.0086304
v 0.0002828 0.0211437 0.0087172
v 0.0003696 0.0211265 0.0088469
v -0.0001531 0.0211695 0.0086304
v -0.0002828 0.0211437 0.0087172
v -0.0003696 0.0211265 0.0088469
v -0.0001531 0.0180305 0.0086304
v -0.0002828 0.0180563 0.0087172
v -0.0003696 0.0180735 0.0088469
v 0.0001531 0.0180305 0.0086304
v 0.0002828 0.0180563 0.0087172
v 0.0003696 0.0180735 0.0088469
f 1 2 3
f 4 1 3
f 2 5 6
f 3 2 6
f 5 7 8
f 6 5 8
f 7 9 10
f 8 7 10
f 9 11 12
f 10 9 12
f 11 13 14
f 12 11 14
f 13 15 16
f 14 13 16
f 15 17 18
f 16 15 18
f 17 19 20
f 18 17 20
f 19 21 22
f 20 19 22
f 21 23 24
f 22 21 24
f 23 25 26
f 24 23 26
f 25 27 28
f 26 25 28
f 27 29 30
f 28 27 30
f 29 31 32
f 30 29 32
f 31 1 4
f 32 31 4
f 26 28 33
f 26 33 34
f 28 30 35
f 28 35 33
f 30 32 36
f 30 36 35
f 32 4 37
f 32 37 36
f 4 3 38
f 4 38 37
f 3 6 39
f 3 39 38
f 6 8 40
f 6 40 39
f 8 10 41
f 8 41 40
f 10 12 42
f 10 42 41
f 12 14 43
f 12 43 42
f 14 16 44
f 14 44 43
f 16 18 45
f 16 45 44
f 18 20 46
f 18 46 45
f 20 22 47
f 20 47 46
f 22 24 48
f 22 48 47
f 24 26 34
f 24 34 48
f 49 50 48
f 49 48 34
f 50 51 47
f 50 47 48
f 51 52 46
f 51 46 47
f 52 53 45
f 52 45 46
f 53 54 44
f 53 44 45
f 54 55 43
f 54 43 44
f 55 56 42
f 55 42 43
f 56 57 41
f 56 41 42
f 57 58 40
f 57 40 41
f 58 59 39
f 58 39 40
f 59 60 38
f 59 38 39
f 60 61 37
f 60 37 38
f 61 62 36
f 61 36 37
f 62 63 35
f 62 35 36
f 63 64 33
f 63 33 35
f 64 49 34
f 64 34 33
f 65 27 25
f 66 65 25
f 67 29 27
f 65 67 27
f 68 31 29
f 67 68 29
f 69 1 31
f 68 69 31
f 70 2 1
f 69 70 1
f 71 5 2
f 70 71 2
f 72 7 5
f 71 72 5
f 73 9 7
f 72 73 7
f 74 11 9
f 73 74 9
f 75 13 11
f 74 75 11
f 76 15 13
f 75 76 13
f 77 17 15
f 76 77 15
f 78 19 17
f 77 78 17
f 79 21 19
f 78 79 19
f 80 23 21
f 79 80 21
f 66 25 23
f 80 66 23
f 81 82 83
f 81 83 84
f 82 85 86
f 82 86 83
f 85 87 88
f 85 88 86
f 87 89 90
f 87 90 88
f 89 91 92
f 89 92 90
f 91 93 94
f 91 94 92
f 93 95 96
f 93 96 94
f 95 97 98
f 95 98 96
f 97 99 100
f 97 100 98
f 99 101 102
f 99 102 100
f 101 103 104
f 101 104 102
f 103 105 106
f 103 106 104
f 105 107 108
f 105 108 106
f 107 109 110
f 107 110 108
f 109 111 112
f 109 112 110
f 111 81 84
f 111 84 112
f 113 70 69
f 113 69 114
f 115 71 70
f 115 70 113
f 116 72 71
f 116 71 115
f 117 73 72
f 117 72 116
f 118 74 73
f 118 73 117
f 119 75 74
f 119 74 118
f 120 76 75
f 120 75 119
f 121 77 76
f 121 76 120
f 122 78 77
f 122 77 121
f 123 79 78
f 123 78 122
f 124 80 79
f 124 79 123
f 125 66 80
f 125 80 124
f 126 65 66
f 126 66 125
f 127 67 65
f 127 65 126
f 128 68 67
f 128 67 127
f 114 69 68
f 114 68 128
f 83 126 125
f 84 83 125
f 86 127 126
f 83 86 126
f 88 128 127
f 86 88 127
f 90 114 128
f 88 90 128
f 92 113 114
f 90 92 114
f 94 115 113
f 92 94 113
f 96 116 115
f 94 96 115
f 98 117 116
f 96 98 116
f 100 118 117
f 98 100 117
f 102 119 118
f 100 102 118
f 104 120 119
f 102 104 119
f 106 121 120
f 104 106 120
f 108 122 121
f 106 108 121
f 110 123 122
f 108 110 122
f 112 124 123
f 110 112 123
f 84 125 124
f 112 84 124
f 129 130 131
f 132 129 131
f 130 133 134
f 131 130 134
f 133 135 136
f 134 133 136
f 135 137 138
f 136 135 138
f 137 139 140
f 138 137 140
f 139 141 142
f 140 139 142
f 141 143 144
f 142 141 144
f 143 145 146
f 144 143 146
f 145 147 148
f 146 145 148
f 147 149 150
f 148 147 150
f 149 151 152
f 150 149 152
f 151 153 154
f 152 151 154
f 153 155 156
f 154 153 156
f 155 157 158
f 156 155 158
f 157 159 160
f 158 157 160
f 159 129 132
f 160 159 132
f 154 156 161
f 154 161 162
f 156 158 163
f 156 163 161
f 158 160 164
f 158 164 163
f 160 132 165
f 160 165 164
f 132 131 166
f 132 166 165
f 131 134 167
f 131 167 166
f 134 136 168
f 134 168 167
f 136 138 169
f 136 169 168
f 138 140 170
f 138 170 169
f 140 142 171
f 140 171 170
f 142 144 172
f 142 172 171
f 144 146 173
f 144 173 172
f 146 148 174
f 146 174 173
f 148 150 175
f 148 175 174
f 150 152 176
f 150 176 175
f 152 154 162
f 152 162 176
f 177 178 176
f 177 176 162
f 178 179 175
f 178 175 176
f 179 180 174
f 179 174 175
f 180 181 173
f 180 173 174
f 181 182 172
f 181 172 173
f 182 183 171
f 182 171 172
f 183 184 170
f 183 170 171
f 184 185 169
f 184 169 170
f 185 186 168
f 185 168 169
f 186 187 167
f 186 167 168
f 187 188 166
f 187 166 167
f 188 189 165
f 188 165 166
f 189 190 164
f 189 164 165
f 190 191 163
f 190 163 164
f 191 192 161
f 191 161 163
f 192 177 162
f 192 162 161
f 193 155 153
f 194 193 153
f 195 157 155
f 193 195 155
f 196 159 157
f 195 196 157
f 197 129 159
f 196 197 159
f 198 130 129
f 197 198 129
f 199 133 130
f 198 199 130
f 200 135 133
f 199 200 133
f 201 137 135
f 200 201 135
f 202 139 137
f 201 202 137
f 203 141 139
f 202 203 139
f 204 143 141
f 203 204 141
f 205 145 143
f 204 205 143
f 206 147 145
f 205 206 145
f 207 149 147
f 206 207 147
f 208 151 149
f 207 208 149
f 194 153 151
f 208 194 151
f 209 210 211
f 209 211 212
f 210 213 214
f 210 214 211
f 213 215 216
f 213 216 214
f 215 217 218
f 215 218 216
f 217 219 220
f 217 220 218
f 219 221 222
f 219 222 220
f 221 223 224
f 221 224 222
f 223 225 226
f 223 226 224
f 225 227 228
f 225 228 226
f 227 229 230
f 227 230 228
f 229 231 232
f 229 232 230
f 231 233 234
f 231 234 232
f 233 235 236
f 233 236 234
f 235 237 238
f 235 238 236
f 237 239 240
f 237 240 238
f 239 209 212
f 239 212 240
f 241 198 197
f 241 197 242
f 243 199 198
f 243 198 241
f 244 200 199
f 244 199 243
f 245 201 200
f 245 200 244
f 246 202 201
f 246 201 245
f 247 203 202
f 247 202 246
f 248 204 203
f 248 203 247
f 249 205 204
f 249 204 248
f 250 206 205
f 250 205 249
f 251 207 206
f 251 206 250
f 252 208 207
f 252 207 251
f 253 194 208
f 253 208 252
f 254 193 194
f 254 194 253
f 255 195 193
f 255 193 254
f 256 196 195
f 256 195 255
f 242 197 196
f 242 196 256
f 211 254 253
f 212 211 253
f 214 255 254
f 211 214 254
f 216 256 255
f 214 216 255
f 218 242 256
f 216 218 256
f 220 241 242
f 218 220 242
f 222 243 241
f 220 222 241
f 224 244 243
f 222 224 243
f 226 245 244
f 224 226 244
f 228 246 245
f 226 228 245
f 230 247 246
f 228 230 246
f 232 248 247
f 230 232 247
f 234 249 248
f 232 234 248
f 236 250 249
f 234 236 249
f 238 251 250
f 236 238 250
f 240 252 251
f 238 240 251
f 212 253 252
f 240 212 252
f 257 258 259
f 260 257 259
f 258 261 262
f 259 258 262
f 261 263 264
f 262 261 264
f 263 265 266
f 264 263 266
f 265 267 268
f 266 265 268
f 267 269 270
f 268 267 270
f 269 271 272
f 270 269 272
f 271 273 274
f 272 271 274
f 273 275 276
f 274 273 276
f 275 277 278
f 276 275 278
f 277 279 280
f 278 277 280
f 279 281 282
f 280 279 282
f 281 283 284
f 282 281 284
f 283 285 286
f 284 283 286
f 285 287 288
f 286 285 288
f 287 257 260
f 288 287 260
f 282 284 289
f 282 289 290
f 284 286 291
f 284 291 289
f 286 288 292
f 286 292 291
f 288 260 293
f 288 293 292
f 260 259 294
f 260 294 293
f 259 262 295
f 259 295 294
f 262 264 296
f 262 296 295
f 264 266 297
f 264 297 296
f 266 268 298
f 266 298 297
f 268 270 299
f 268 299 298
f 270 272 300
f 270 300 299
f 272 274 301
f 272 301 300
f 274 276 302
f 274 302 301
f 276 278 303
f 276 303 302
f 278 280 304
f 278 304 303
f 280 282 290
f 280 290 304
f 305 306 304
f 305 304 290
f 306 307 303
f 306 303 304
f 307 308 302
f 307 302 303
f 308 309 301
f 308 301 302
f 309 310 300
f 309 300 301
f 310 311 299
f 310 299 300
f 311 312 298
f 311 298 299
f 312 313 297
f 312 297 298
f 313 314 296
f 313 296 297
f 314 315 295
f 314 295 296
f 315 316 294
f 315 294 295
f 316 317 293
f 316 293 294
f 317 318 292
f 317 292 293
f 318 319 291
f 318 291 292
f 319 320 289
f 319 289 291
f 320 305 290
f 320 290 289
f 321 283 281
f 322 321 281
f 323 285 283
f 321 323 283
f 324 287 285
f 323 324 285
f 325 257 287
f 324 325 287
f 326 258 257
f 325 326 257
f 327 261 258
f 326 327 258
f 328 263 261
f 327 328 261
f 329 265 263
f 328 329 263
f 330 267 265
f 329 330 265
f 331 269 267
f 330 331 267
f 332 271 269
f 331 332 269
f 333 273 271
f 332 333 271
f 334 275 273
f 333 334 273
f 335 277 275
f 334 335 275
f 336 279 277
f 335 336 277
f 322 281 279
f 336 322 279
f 337 338 339
f 337 339 340
f 338 341 342
f 338 342 339
f 341 343 344
f 341 344 342
f 343 345 346
f 343 346 344
f 345 347 348
f 345 348 346
f 347 349 350
f 347 350 348
f 349 351 352
f 349 352 350
f 351 353 354
f 351 354 352
f 353 355 356
f 353 356 354
f 355 357 358
f 355 358 356
f 357 359 360
f 357 360 358
f 359 361 362
f 359 362 360
f 361 363 364
f 361 364 362
f 363 365 366
f 363 366 364
f 365 367 368
f 365 368 366
f 367 337 340
f 367 340 368
f 369 326 325
f 369 325 370
f 371 327 326
f 371 326 369
f 372 328 327
f 372 327 371
f 373 329 328
f 373 328 372
f 374 330 329
f 374 329 373
f 375 331 330
f 375 330 374
f 376 332 331
f 376 331 375
f 377 333 332
f 377 332 376
f 378 334 333
f 378 333 377
f 379 335 334
f 379 334 378
f 380 336 335
f 380 335 379
f 381 322 336
f 381 336 380
f 382 321 322
f 382 322 381
f 383 323 321
f 383 321 382
f 384 324 323
f 384 323 383
f 370 325 324
f 370 324 384
f 339 382 381
f 340 339 381
f 342 383 382
f 339 342 382
f 344 384 383
f 342 344 383
f 346 370 384
f 344 346 384
f 348 369 370
f 346 348 370
f 350 371 369
f 348 350 369
f 352 372 371
f 350 352 371
f 354 373 372
f 352 354 372
f 356 374 373
f 354 356 373
f 358 375 374
f 356 358 374
f 360 376 375
f 358 360 375
f 362 377 376
f 360 362 376
f 364 378 377
f 362 364 377
f 366 379 378
f 364 366 378
f 368 380 379
f 366 368 379
f 340 381 380
f 368 340 380
f 385 386 387
f 385 388 389
f 385 389 386
f 388 390 391
f 388 391 389
f 390 392 393
f 390 393 391
f 394 395 396
f 397 398 396
f 395 397 396
f 399 400 398
f 397 399 398
f 393 392 400
f 399 393 400
f 401 402 403
f 404 405 403
f 402 404 403
f 406 407 405
f 404 406 405
f 408 392 407
f 406 408 407
f 409 410 411
f 409 412 413
f 409 413 410
f 412 414 415
f 412 415 413
f 414 392 408
f 414 408 415
f 87 62 61
f 87 61 89
f 85 63 62
f 85 62 87
f 82 64 63
f 82 63 85
f 81 49 64
f 81 64 82
f 111 50 49
f 111 49 81
f 109 51 50
f 109 50 111
f 107 52 51
f 107 51 109
f 105 53 52
f 105 52 107
f 410 416 417
f 410 417 411
f 413 418 416
f 413 416 410
f 415 419 418
f 415 418 413
f 408 420 419
f 408 419 415
f 406 421 420
f 406 420 408
f 404 422 421
f 404 421 406
f 402 423 422
f 402 422 404
f 401 424 423
f 401 423 402
f 416 423 424
f 416 424 417
f 418 422 423
f 418 423 416
f 419 421 422
f 419 422 418
f 420 421 419
f 425 426 395
f 394 425 395
f 426 427 397
f 395 426 397
f 427 428 399
f 397 427 399
f 428 429 393
f 399 428 393
f 429 430 391
f 393 429 391
f 430 431 389
f 391 430 389
f 431 432 386
f 389 431 386
f 432 433 387
f 386 432 387
f 433 432 426
f 425 433 426
f 432 431 427
f 426 432 427
f 431 430 428
f 427 431 428
f 428 430 429
f 434 435 436
f 437 438 436
f 435 437 436
f 439 440 438
f 437 439 438
f 441 442 440
f 439 441 440
f 443 444 445
f 443 446 447
f 443 447 444
f 446 448 449
f 446 449 447
f 448 442 441
f 448 441 449
f 450 451 452
f 450 453 454
f 450 454 451
f 453 455 456
f 453 456 454
f 455 442 457
f 455 457 456
f 458 459 460
f 461 462 460
f 459 461 460
f 463 464 462
f 461 463 462
f 457 442 464
f 463 457 464
f 189 188 219
f 217 189 219
f 188 187 221
f 219 188 221
f 187 186 223
f 221 187 223
f 186 185 225
f 223 186 225
f 185 184 227
f 225 185 227
f 184 183 229
f 227 184 229
f 183 182 231
f 229 183 231
f 182 181 233
f 231 182 233
f 465 466 459
f 458 465 459
f 466 467 461
f 459 466 461
f 467 468 463
f 461 467 463
f 468 469 457
f 463 468 457
f 469 470 456
f 457 469 456
f 470 471 454
f 456 470 454
f 471 472 451
f 454 471 451
f 472 473 452
f 451 472 452
f 473 472 466
f 465 473 466
f 472 471 467
f 466 472 467
f 471 470 468
f 467 471 468
f 468 470 469
f 444 474 475
f 444 475 445
f 447 476 474
f 447 474 444
f 449 477 476
f 449 476 447
f 441 478 477
f 441 477 449
f 439 479 478
f 439 478 441
f 437 480 479
f 437 479 439
f 435 481 480
f 435 480 437
f 434 482 481
f 434 481 435
f 474 481 482
f 474 482 475
f 476 480 481
f 476 481 474
f 477 479 480
f 477 480 476
f 478 479 477
f 318 317 483
f 319 318 483
f 320 319 483
f 305 320 483
f 306 305 484
f 307 306 484
f 308 307 484
f 309 308 484
f 310 309 485
f 311 310 485
f 312 311 485
f 313 312 485
f 314 313 486
f 315 314 486
f 316 315 486
f 317 316 486
f 417 424 484
f 417 484 483
f 486 485 473
f 486 473 465
f 487 345 343
f 487 343 341
f 487 341 338
f 487 338 337
f 488 337 367
f 488 367 365
f 488 365 363
f 488 363 361
f 489 361 359
f 489 359 357
f 489 357 355
f 489 355 353
f 490 353 351
f 490 351 349
f 490 349 347
f 490 347 345
f 488 433 425
f 488 425 487
f 482 489 490
f 482 490 475
f 61 60 491
f 394 61 491
f 60 59 492
f 491 60 492
f 59 58 493
f 492 59 493
f 58 57 494
f 493 58 494
f 57 56 495
f 494 57 495
f 56 55 496
f 495 56 496
f 55 54 497
f 496 55 497
f 54 53 411
f 497 54 411
f 498 499 493
f 494 498 493
f 499 500 492
f 493 499 492
f 495 501 498
f 495 498 494
f 496 502 501
f 496 501 495
f 503 190 189
f 503 189 445
f 504 191 190
f 504 190 503
f 505 192 191
f 505 191 504
f 506 177 192
f 506 192 505
f 507 178 177
f 507 177 506
f 508 179 178
f 508 178 507
f 509 180 179
f 509 179 508
f 458 181 180
f 458 180 509
f 505 510 511
f 505 511 506
f 504 512 510
f 504 510 505
f 511 513 507
f 506 511 507
f 513 514 508
f 507 513 508
f 515 516 517
f 515 517 518
f 519 520 516
f 519 516 515
f 521 522 520
f 521 520 519
f 518 502 496
f 518 496 521
f 492 500 517
f 492 517 522
f 523 500 502
f 523 502 524
f 525 526 527
f 528 525 527
f 526 529 530
f 527 526 530
f 529 531 532
f 530 529 532
f 508 514 528
f 508 528 532
f 525 512 504
f 525 504 531
f 533 514 512
f 533 512 534
f 531 504 492
f 531 492 522
f 394 492 504
f 394 504 445
f 394 445 475
f 394 475 425
f 496 508 532
f 496 532 521
f 508 496 411
f 508 411 458
f 458 411 417
f 458 417 465
f 535 536 537
f 535 537 538
f 536 539 540
f 536 540 537
f 538 541 542
f 538 542 535
f 543 91 89
f 543 89 387
f 544 93 91
f 544 91 543
f 545 95 93
f 545 93 544
f 546 97 95
f 546 95 545
f 547 99 97
f 547 97 546
f 548 101 99
f 548 99 547
f 549 103 101
f 549 101 548
f 401 105 103
f 401 103 549
f 545 550 551
f 545 551 546
f 544 552 550
f 544 550 545
f 551 553 547
f 546 551 547
f 553 554 548
f 547 553 548
f 217 215 555
f 434 217 555
f 215 213 556
f 555 215 556
f 213 210 557
f 556 213 557
f 210 209 558
f 557 210 558
f 209 239 559
f 558 209 559
f 239 237 560
f 559 239 560
f 237 235 561
f 560 237 561
f 235 233 452
f 561 235 452
f 562 563 557
f 558 562 557
f 563 564 556
f 557 563 556
f 559 565 562
f 559 562 558
f 560 566 565
f 560 565 559
f 517 567 568
f 518 517 568
f 567 569 570
f 568 567 570
f 569 571 572
f 570 569 572
f 548 554 518
f 548 518 572
f 517 552 544
f 517 544 571
f 573 554 552
f 573 552 574
f 575 576 525
f 575 525 528
f 577 578 576
f 577 576 575
f 579 580 578
f 579 578 577
f 528 566 560
f 528 560 579
f 556 564 525
f 556 525 580
f 581 564 566
f 581 566 582
f 544 556 580
f 544 580 571
f 556 544 387
f 556 387 434
f 434 387 433
f 434 433 482
f 579 560 548
f 579 548 572
f 401 548 560
f 401 560 452
f 401 452 473
f 401 473 424
f 583 584 585
f 586 583 585
f 587 588 584
f 583 587 584
f 589 590 586
f 585 589 586
f 591 592 593
f 591 593 594
f 595 596 597
f 595 597 598
f 599 600 601
f 599 601 602
f 603 604 605
f 603 605 606
f 594 593 607
f 594 607 608
f 598 597 609
f 598 609 610
f 602 601 611
f 602 611 612
f 606 605 613
f 606 613 614
f 608 607 615
f 608 615 616
f 610 609 617
f 610 617 618
f 612 611 619
f 612 619 620
f 614 613 621
f 614 621 622
f 623 594 624
f 623 624 625
f 624 608 616
f 624 616 626
f 616 615 627
f 616 627 626
f 618 617 628
f 618 628 629
f 628 617 609
f 628 609 630
f 630 597 631
f 630 631 632
f 633 602 634
f 633 634 635
f 612 620 636
f 612 636 634
f 620 619 637
f 620 637 636
f 622 621 638
f 622 638 639
f 621 613 640
f 621 640 638
f 640 605 641
f 640 641 642
f 626 627 643
f 626 643 644
f 629 628 645
f 629 645 646
f 636 637 647
f 636 647 648
f 639 638 649
f 639 649 650
f 651 652 653
f 651 653 654
f 652 655 656
f 652 656 653
f 655 657 658
f 655 658 656
f 657 659 660
f 657 660 658
f 659 661 662
f 659 662 660
f 661 663 664
f 661 664 662
f 663 665 666
f 663 666 664
f 665 667 668
f 665 668 666
f 667 669 670
f 667 670 668
f 669 671 672
f 669 672 670
f 671 673 674
f 671 674 672
f 673 675 676
f 673 676 674
f 675 677 678
f 675 678 676
f 677 679 680
f 677 680 678
f 679 681 682
f 679 682 680
f 681 651 654
f 681 654 682
f 683 684 685
f 683 685 686
f 687 688 684
f 687 684 683
f 689 690 688
f 689 688 687
f 691 692 690
f 691 690 689
f 693 694 692
f 693 692 691
f 695 696 694
f 695 694 693
f 697 698 699
f 697 699 700
f 701 702 698
f 701 698 697
f 703 704 702
f 703 702 701
f 705 706 704
f 705 704 703
f 707 708 706
f 707 706 705
f 709 710 708
f 709 708 707
f 711 712 713
f 711 713 714
f 715 716 712
f 715 712 711
f 717 718 716
f 717 716 715
f 719 720 718
f 719 718 717
f 721 722 720
f 721 720 719
f 723 724 722
f 723 722 721
f 725 726 727
f 725 727 728
f 729 730 726
f 729 726 725
f 731 732 730
f 731 730 729
f 733 734 732
f 733 732 731
f 735 736 734
f 735 734 733
f 737 738 736
f 737 736 735
f 739 740 741
f 739 741 742
f 740 743 744
f 740 744 741
f 743 745 746
f 743 746 744
f 745 747 748
f 745 748 746
f 747 749 750
f 747 750 748
f 749 751 752
f 749 752 750
f 751 753 754
f 751 754 752
f 753 755 756
f 753 756 754
f 755 757 758
f 755 758 756
f 757 759 760
f 757 760 758
f 759 761 762
f 759 762 760
f 761 763 764
f 761 764 762
f 763 765 766
f 763 766 764
f 765 767 768
f 765 768 766
f 767 769 770
f 767 770 768
f 769 739 742
f 769 742 770
f 771 772 773
f 774 771 773
f 775 776 772
f 771 775 772
f 777 778 776
f 775 777 776
f 779 780 778
f 777 779 778
f 781 782 780
f 779 781 780
f 783 784 782
f 781 783 782
f 785 786 784
f 783 785 784
f 787 788 786
f 785 787 786
f 789 790 788
f 787 789 788
f 791 792 790
f 789 791 790
f 793 794 792
f 791 793 792
f 795 796 794
f 793 795 794
f 797 798 796
f 795 797 796
f 799 800 798
f 797 799 798
f 801 802 800
f 799 801 800
f 774 773 802
f 801 774 802
f 803 804 775
f 771 803 775
f 804 805 777
f 775 804 777
f 805 806 779
f 777 805 779
f 806 807 781
f 779 806 781
f 807 808 783
f 781 807 783
f 808 809 785
f 783 808 785
f 810 811 791
f 789 810 791
f 811 812 793
f 791 811 793
f 812 813 795
f 793 812 795
f 813 814 797
f 795 813 797
f 814 815 799
f 797 814 799
f 815 816 801
f 799 815 801
f 750 661 659
f 750 659 748
f 752 663 661
f 752 661 750
f 754 665 663
f 754 663 752
f 756 667 665
f 756 665 754
f 758 669 667
f 758 667 756
f 760 671 669
f 760 669 758
f 762 673 671
f 762 671 760
f 764 675 673
f 764 673 762
f 766 677 675
f 766 675 764
f 768 679 677
f 768 677 766
f 770 681 679
f 770 679 768
f 742 651 681
f 742 681 770
f 741 652 651
f 741 651 742
f 744 655 652
f 744 652 741
f 746 657 655
f 746 655 744
f 748 659 657
f 748 657 746
f 817 818 804
f 817 804 803
f 818 819 805
f 818 805 804
f 819 820 806
f 819 806 805
f 820 821 807
f 820 807 806
f 821 822 808
f 821 808 807
f 822 823 809
f 822 809 808
f 824 825 811
f 824 811 810
f 825 826 812
f 825 812 811
f 826 827 813
f 826 813 812
f 827 828 814
f 827 814 813
f 828 829 815
f 828 815 814
f 829 830 816
f 829 816 815
f 698 711 714
f 699 698 714
f 702 715 711
f 698 702 711
f 704 717 715
f 702 704 715
f 706 719 717
f 704 706 717
f 708 721 719
f 706 708 719
f 710 723 721
f 708 710 721
f 684 725 728
f 685 684 728
f 688 729 725
f 684 688 725
f 690 731 729
f 688 690 729
f 692 733 731
f 690 692 731
f 694 735 733
f 692 694 733
f 696 737 735
f 694 696 735
f 713 712 818
f 713 818 817
f 712 716 819
f 712 819 818
f 716 718 820
f 716 820 819
f 718 720 821
f 718 821 820
f 720 722 822
f 720 822 821
f 722 724 823
f 722 823 822
f 727 726 825
f 727 825 824
f 726 730 826
f 726 826 825
f 730 732 827
f 730 827 826
f 732 734 828
f 732 828 827
f 734 736 829
f 734 829 828
f 736 738 830
f 736 830 829
f 596 668 831
f 596 831 832
f 596 832 833
f 596 833 631
f 834 668 599
f 835 834 599
f 836 835 599
f 633 836 599
f 604 654 837
f 604 837 838
f 604 838 839
f 604 839 641
f 840 654 591
f 841 840 591
f 842 841 591
f 623 842 591
f 843 787 645
f 844 843 645
f 845 844 645
f 632 845 645
f 648 787 846
f 648 846 847
f 648 847 848
f 648 848 635
f 849 774 649
f 850 849 649
f 851 850 649
f 642 851 649
f 644 774 852
f 644 852 853
f 644 853 854
f 644 854 625
f 787 843 831
f 787 831 668
f 843 844 832
f 843 832 831
f 844 845 833
f 844 833 832
f 845 632 631
f 845 631 833
f 834 846 787
f 668 834 787
f 835 847 846
f 834 835 846
f 836 848 847
f 835 836 847
f 633 635 848
f 836 633 848
f 774 849 837
f 774 837 654
f 849 850 838
f 849 838 837
f 850 851 839
f 850 839 838
f 851 642 641
f 851 641 839
f 840 852 774
f 654 840 774
f 841 853 852
f 840 841 852
f 842 854 853
f 841 842 853
f 623 625 854
f 842 623 854
f 855 856 857
f 858 855 857
f 859 860 861
f 862 859 861
f 863 864 865
f 866 863 865
f 867 868 869
f 870 867 869
f 871 855 858
f 872 871 858
f 873 859 862
f 874 873 862
f 875 863 866
f 876 875 866
f 877 867 870
f 878 877 870
f 879 871 872
f 880 879 872
f 881 873 874
f 882 881 874
f 883 875 876
f 884 883 876
f 885 877 878
f 886 885 878
f 887 858 888
f 889 887 888
f 880 872 887
f 890 880 887
f 891 879 880
f 890 891 880
f 892 881 882
f 893 892 882
f 873 881 892
f 894 873 892
f 895 859 894
f 896 895 894
f 897 866 898
f 899 897 898
f 900 884 876
f 897 900 876
f 901 883 884
f 900 901 884
f 902 885 886
f 903 902 886
f 904 877 885
f 902 904 885
f 905 867 904
f 906 905 904
f 907 891 890
f 908 907 890
f 909 892 893
f 910 909 893
f 911 901 900
f 912 911 900
f 913 902 903
f 914 913 903
f 915 916 917
f 918 915 917
f 919 920 916
f 915 919 916
f 921 922 920
f 919 921 920
f 923 924 922
f 921 923 922
f 925 926 924
f 923 925 924
f 927 928 926
f 925 927 926
f 929 930 928
f 927 929 928
f 931 932 930
f 929 931 930
f 933 934 932
f 931 933 932
f 935 936 934
f 933 935 934
f 937 938 936
f 935 937 936
f 939 940 938
f 937 939 938
f 941 942 940
f 939 941 940
f 943 944 942
f 941 943 942
f 945 946 944
f 943 945 944
f 918 917 946
f 945 918 946
f 947 948 949
f 950 947 949
f 948 951 952
f 949 948 952
f 951 953 954
f 952 951 954
f 953 955 956
f 954 953 956
f 955 957 958
f 956 955 958
f 957 959 960
f 958 957 960
f 961 962 963
f 964 961 963
f 962 965 966
f 963 962 966
f 965 967 968
f 966 965 968
f 967 969 970
f 968 967 970
f 969 971 972
f 970 969 972
f 971 973 974
f 972 971 974
f 975 976 977
f 978 975 977
f 976 979 980
f 977 976 980
f 979 981 982
f 980 979 982
f 981 983 984
f 982 981 984
f 983 985 986
f 984 983 986
f 985 987 988
f 986 985 988
f 989 990 991
f 992 989 991
f 990 993 994
f 991 990 994
f 993 995 996
f 994 993 996
f 995 997 998
f 996 995 998
f 997 999 1000
f 998 997 1000
f 999 1001 1002
f 1000 999 1002
f 1003 1004 1005
f 1006 1003 1005
f 1007 1008 1004
f 1003 1007 1004
f 1009 1010 1008
f 1007 1009 1008
f 1011 1012 1010
f 1009 1011 1010
f 1013 1014 1012
f 1011 1013 1012
f 1015 1016 1014
f 1013 1015 1014
f 1017 1018 1016
f 1015 1017 1016
f 1019 1020 1018
f 1017 1019 1018
f 1021 1022 1020
f 1019 1021 1020
f 1023 1024 1022
f 1021 1023 1022
f 1025 1026 1024
f 1023 1025 1024
f 1027 1028 1026
f 1025 1027 1026
f 1029 1030 1028
f 1027 1029 1028
f 1031 1032 1030
f 1029 1031 1030
f 1033 1034 1032
f 1031 1033 1032
f 1006 1005 1034
f 1033 1006 1034
f 1035 1036 1037
f 1035 1037 1038
f 1036 1039 1040
f 1036 1040 1037
f 1039 1041 1042
f 1039 1042 1040
f 1041 1043 1044
f 1041 1044 1042
f 1043 1045 1046
f 1043 1046 1044
f 1045 1047 1048
f 1045 1048 1046
f 1047 1049 1050
f 1047 1050 1048
f 1049 1051 1052
f 1049 1052 1050
f 1051 1053 1054
f 1051 1054 1052
f 1053 1055 1056
f 1053 1056 1054
f 1055 1057 1058
f 1055 1058 1056
f 1057 1059 1060
f 1057 1060 1058
f 1059 1061 1062
f 1059 1062 1060
f 1061 1063 1064
f 1061 1064 1062
f 1063 1065 1066
f 1063 1066 1064
f 1065 1035 1038
f 1065 1038 1066
f 1040 1067 1068
f 1040 1068 1037
f 1042 1069 1067
f 1042 1067 1040
f 1044 1070 1069
f 1044 1069 1042
f 1046 1071 1070
f 1046 1070 1044
f 1048 1072 1071
f 1048 1071 1046
f 1050 1073 1072
f 1050 1072 1048
f 1056 1074 1075
f 1056 1075 1054
f 1058 1076 1074
f 1058 1074 1056
f 1060 1077 1076
f 1060 1076 1058
f 1062 1078 1077
f 1062 1077 1060
f 1064 1079 1078
f 1064 1078 1062
f 1066 1080 1079
f 1066 1079 1064
f 924 926 1013
f 1011 924 1013
f 926 928 1015
f 1013 926 1015
f 928 930 1017
f 1015 928 1017
f 930 932 1019
f 1017 930 1019
f 932 934 1021
f 1019 932 1021
f 934 936 1023
f 1021 934 1023
f 936 938 1025
f 1023 936 1025
f 938 940 1027
f 1025 938 1027
f 940 942 1029
f 1027 940 1029
f 942 944 1031
f 1029 942 1031
f 944 946 1033
f 1031 944 1033
f 946 917 1006
f 1033 946 1006
f 917 916 1003
f 1006 917 1003
f 916 920 1007
f 1003 916 1007
f 920 922 1009
f 1007 920 1009
f 922 924 1011
f 1009 922 1011
f 1067 1081 1082
f 1068 1067 1082
f 1069 1083 1081
f 1067 1069 1081
f 1070 1084 1083
f 1069 1070 1083
f 1071 1085 1084
f 1070 1071 1084
f 1072 1086 1085
f 1071 1072 1085
f 1073 1087 1086
f 1072 1073 1086
f 1074 1088 1089
f 1075 1074 1089
f 1076 1090 1088
f 1074 1076 1088
f 1077 1091 1090
f 1076 1077 1090
f 1078 1092 1091
f 1077 1078 1091
f 1079 1093 1092
f 1078 1079 1092
f 1080 1094 1093
f 1079 1080 1093
f 978 977 962
f 978 962 961
f 977 980 965
f 977 965 962
f 980 982 967
f 980 967 965
f 982 984 969
f 982 969 967
f 984 986 971
f 984 971 969
f 986 988 973
f 986 973 971
f 992 991 948
f 992 948 947
f 991 994 951
f 991 951 948
f 994 996 953
f 994 953 951
f 996 998 955
f 996 955 953
f 998 1000 957
f 998 957 955
f 1000 1002 959
f 1000 959 957
f 1081 976 975
f 1082 1081 975
f 1083 979 976
f 1081 1083 976
f 1084 981 979
f 1083 1084 979
f 1085 983 981
f 1084 1085 981
f 1086 985 983
f 1085 1086 983
f 1087 987 985
f 1086 1087 985
f 1088 990 989
f 1089 1088 989
f 1090 993 990
f 1088 1090 990
f 1091 995 993
f 1090 1091 993
f 1092 997 995
f 1091 1092 995
f 1093 999 997
f 1092 1093 997
f 1094 1001 999
f 1093 1094 999
f 1095 931 860
f 1096 1095 860
f 1097 1096 860
f 895 1097 860
f 865 931 1098
f 865 1098 1099
f 865 1099 1100
f 865 1100 898
f 1101 918 868
f 1102 1101 868
f 1103 1102 868
f 905 1103 868
f 857 918 1104
f 857 1104 1105
f 857 1105 1106
f 857 1106 888
f 909 1052 1107
f 909 1107 1108
f 909 1108 1109
f 909 1109 896
f 1110 1052 912
f 1111 1110 912
f 1112 1111 912
f 899 1112 912
f 913 1038 1113
f 913 1113 1114
f 913 1114 1115
f 913 1115 906
f 1116 1038 908
f 1117 1116 908
f 1118 1117 908
f 889 1118 908
f 1095 1107 1052
f 931 1095 1052
f 1096 1108 1107
f 1095 1096 1107
f 1097 1109 1108
f 1096 1097 1108
f 895 896 1109
f 1097 895 1109
f 1052 1110 1098
f 1052 1098 931
f 1110 1111 1099
f 1110 1099 1098
f 1111 1112 1100
f 1111 1100 1099
f 1112 899 898
f 1112 898 1100
f 1101 1113 1038
f 918 1101 1038
f 1102 1114 1113
f 1101 1102 1113
f 1103 1115 1114
f 1102 1103 1114
f 905 906 1115
f 1103 905 1115
f 1038 1116 1104
f 1038 1104 918
f 1116 1117 1105
f 1116 1105 1104
f 1117 1118 1106
f 1117 1106 1105
f 1118 889 888
f 1118 888 1106
f 1119 1120 1121
f 1122 1119 1121
f 1123 1124 1125
f 1126 1123 1125
f 1127 1128 1129
f 1130 1127 1129
f 1131 1132 1133
f 1134 1131 1133
f 1135 1119 1122
f 1136 1135 1122
f 1137 1123 1126
f 1138 1137 1126
f 1139 1127 1130
f 1140 1139 1130
f 1141 1131 1134
f 1142 1141 1134
f 1143 1135 1136
f 1144 1143 1136
f 1145 1137 1138
f 1146 1145 1138
f 1147 1139 1140
f 1148 1147 1140
f 1149 1141 1142
f 1150 1149 1142
f 1151 1122 1152
f 1153 1151 1152
f 1144 1136 1151
f 1154 1144 1151
f 1155 1143 1144
f 1154 1155 1144
f 1156 1145 1146
f 1157 1156 1146
f 1137 1145 1156
f 1158 1137 1156
f 1159 1123 1158
f 1160 1159 1158
f 1161 1130 1162
f 1163 1161 1162
f 1164 1148 1140
f 1161 1164 1140
f 1165 1147 1148
f 1164 1165 1148
f 1166 1149 1150
f 1167 1166 1150
f 1168 1141 1149
f 1166 1168 1149
f 1169 1131 1168
f 1170 1169 1168
f 1171 1155 1154
f 1172 1171 1154
f 1173 1156 1157
f 1174 1173 1157
f 1175 1165 1164
f 1176 1175 1164
f 1177 1166 1167
f 1178 1177 1167
f 1179 1180 1181
f 1182 1179 1181
f 1183 1184 1180
f 1179 1183 1180
f 1185 1186 1184
f 1183 1185 1184
f 1187 1188 1186
f 1185 1187 1186
f 1189 1190 1188
f 1187 1189 1188
f 1191 1192 1190
f 1189 1191 1190
f 1193 1194 1192
f 1191 1193 1192
f 1195 1196 1194
f 1193 1195 1194
f 1197 1198 1196
f 1195 1197 1196
f 1199 1200 1198
f 1197 1199 1198
f 1201 1202 1200
f 1199 1201 1200
f 1203 1204 1202
f 1201 1203 1202
f 1205 1206 1204
f 1203 1205 1204
f 1207 1208 1206
f 1205 1207 1206
f 1209 1210 1208
f 1207 1209 1208
f 1182 1181 1210
f 1209 1182 1210
f 1211 1212 1213
f 1214 1211 1213
f 1212 1215 1216
f 1213 1212 1216
f 1215 1217 1218
f 1216 1215 1218
f 1217 1219 1220
f 1218 1217 1220
f 1219 1221 1222
f 1220 1219 1222
f 1221 1223 1224
f 1222 1221 1224
f 1225 1226 1227
f 1228 1225 1227
f 1226 1229 1230
f 1227 1226 1230
f 1229 1231 1232
f 1230 1229 1232
f 1231 1233 1234
f 1232 1231 1234
f 1233 1235 1236
f 1234 1233 1236
f 1235 1237 1238
f 1236 1235 1238
f 1239 1240 1241
f 1242 1239 1241
f 1240 1243 1244
f 1241 1240 1244
f 1243 1245 1246
f 1244 1243 1246
f 1245 1247 1248
f 1246 1245 1248
f 1247 1249 1250
f 1248 1247 1250
f 1249 1251 1252
f 1250 1249 1252
f 1253 1254 1255
f 1256 1253 1255
f 1254 1257 1258
f 1255 1254 1258
f 1257 1259 1260
f 1258 1257 1260
f 1259 1261 1262
f 1260 1259 1262
f 1261 1263 1264
f 1262 1261 1264
f 1263 1265 1266
f 1264 1263 1266
f 1267 1268 1269
f 1270 1267 1269
f 1271 1272 1268
f 1267 1271 1268
f 1273 1274 1272
f 1271 1273 1272
f 1275 1276 1274
f 1273 1275 1274
f 1277 1278 1276
f 1275 1277 1276
f 1279 1280 1278
f 1277 1279 1278
f 1281 1282 1280
f 1279 1281 1280
f 1283 1284 1282
f 1281 1283 1282
f 1285 1286 1284
f 1283 1285 1284
f 1287 1288 1286
f 1285 1287 1286
f 1289 1290 1288
f 1287 1289 1288
f 1291 1292 1290
f 1289 1291 1290
f 1293 1294 1292
f 1291 1293 1292
f 1295 1296 1294
f 1293 1295 1294
f 1297 1298 1296
f 1295 1297 1296
f 1270 1269 1298
f 1297 1270 1298
f 1299 1300 1301
f 1299 1301 1302
f 1300 1303 1304
f 1300 1304 1301
f 1303 1305 1306
f 1303 1306 1304
f 1305 1307 1308
f 1305 1308 1306
f 1307 1309 1310
f 1307 1310 1308
f 1309 1311 1312
f 1309 1312 1310
f 1311 1313 1314
f 1311 1314 1312
f 1313 1315 1316
f 1313 1316 1314
f 1315 1317 1318
f 1315 1318 1316
f 1317 1319 1320
f 1317 1320 1318
f 1319 1321 1322
f 1319 1322 1320
f 1321 1323 1324
f 1321 1324 1322
f 1323 1325 1326
f 1323 1326 1324
f 1325 1327 1328
f 1325 1328 1326
f 1327 1329 1330
f 1327 1330 1328
f 1329 1299 1302
f 1329 1302 1330
f 1304 1331 1332
f 1304 1332 1301
f 1306 1333 1331
f 1306 1331 1304
f 1308 1334 1333
f 1308 1333 1306
f 1310 1335 1334
f 1310 1334 1308
f 1312 1336 1335
f 1312 1335 1310
f 1314 1337 1336
f 1314 1336 1312
f 1320 1338 1339
f 1320 1339 1318
f 1322 1340 1338
f 1322 1338 1320
f 1324 1341 1340
f 1324 1340 1322
f 1326 1342 1341
f 1326 1341 1324
f 1328 1343 1342
f 1328 1342 1326
f 1330 1344 1343
f 1330 1343 1328
f 1188 1190 1277
f 1275 1188 1277
f 1190 1192 1279
f 1277 1190 1279
f 1192 1194 1281
f 1279 1192 1281
f 1194 1196 1283
f 1281 1194 1283
f 1196 1198 1285
f 1283 1196 1285
f 1198 1200 1287
f 1285 1198 1287
f 1200 1202 1289
f 1287 1200 1289
f 1202 1204 1291
f 1289 1202 1291
f 1204 1206 1293
f 1291 1204 1293
f 1206 1208 1295
f 1293 1206 1295
f 1208 1210 1297
f 1295 1208 1297
f 1210 1181 1270
f 1297 1210 1270
f 1181 1180 1267
f 1270 1181 1267
f 1180 1184 1271
f 1267 1180 1271
f 1184 1186 1273
f 1271 1184 1273
f 1186 1188 1275
f 1273 1186 1275
f 1331 1345 1346
f 1332 1331 1346
f 1333 1347 1345
f 1331 1333 1345
f 1334 1348 1347
f 1333 1334 1347
f 1335 1349 1348
f 1334 1335 1348
f 1336 1350 1349
f 1335 1336 1349
f 1337 1351 1350
f 1336 1337 1350
f 1338 1352 1353
f 1339 1338 1353
f 1340 1354 1352
f 1338 1340 1352
f 1341 1355 1354
f 1340 1341 1354
f 1342 1356 1355
f 1341 1342 1355
f 1343 1357 1356
f 1342 1343 1356
f 1344 1358 1357
f 1343 1344 1357
f 1242 1241 1226
f 1242 1226 1225
f 1241 1244 1229
f 1241 1229 1226
f 1244 1246 1231
f 1244 1231 1229
f 1246 1248 1233
f 1246 1233 1231
f 1248 1250 1235
f 1248 1235 1233
f 1250 1252 1237
f 1250 1237 1235
f 1256 1255 1212
f 1256 1212 1211
f 1255 1258 1215
f 1255 1215 1212
f 1258 1260 1217
f 1258 1217 1215
f 1260 1262 1219
f 1260 1219 1217
f 1262 1264 1221
f 1262 1221 1219
f 1264 1266 1223
f 1264 1223 1221
f 1345 1240 1239
f 1346 1345 1239
f 1347 1243 1240
f 1345 1347 1240
f 1348 1245 1243
f 1347 1348 1243
f 1349 1247 1245
f 1348 1349 1245
f 1350 1249 1247
f 1349 1350 1247
f 1351 1251 1249
f 1350 1351 1249
f 1352 1254 1253
f 1353 1352 1253
f 1354 1257 1254
f 1352 1354 1254
f 1355 1259 1257
f 1354 1355 1257
f 1356 1261 1259
f 1355 1356 1259
f 1357 1263 1261
f 1356 1357 1261
f 1358 1265 1263
f 1357 1358 1263
f 1359 1195 1124
f 1360 1359 1124
f 1361 1360 1124
f 1159 1361 1124
f 1129 1195 1362
f 1129 1362 1363
f 1129 1363 1364
f 1129 1364 1162
f 1365 1182 1132
f 1366 1365 1132
f 1367 1366 1132
f 1169 1367 1132
f 1121 1182 1368
f 1121 1368 1369
f 1121 1369 1370
f 1121 1370 1152
f 1173 1316 1371
f 1173 1371 1372
f 1173 1372 1373
f 1173 1373 1160
f 1374 1316 1176
f 1375 1374 1176
f 1376 1375 1176
f 1163 1376 1176
f 1177 1302 1377
f 1177 1377 1378
f 1177 1378 1379
f 1177 1379 1170
f 1380 1302 1172
f 1381 1380 1172
f 1382 1381 1172
f 1153 1382 1172
f 1359 1371 1316
f 1195 1359 1316
f 1360 1372 1371
f 1359 1360 1371
f 1361 1373 1372
f 1360 1361 1372
f 1159 1160 1373
f 1361 1159 1373
f 1316 1374 1362
f 1316 1362 1195
f 1374 1375 1363
f 1374 1363 1362
f 1375 1376 1364
f 1375 1364 1363
f 1376 1163 1162
f 1376 1162 1364
f 1365 1377 1302
f 1182 1365 1302
f 1366 1378 1377
f 1365 1366 1377
f 1367 1379 1378
f 1366 1367 1378
f 1169 1170 1379
f 1367 1169 1379
f 1302 1380 1368
f 1302 1368 1182
f 1380 1381 1369
f 1380 1369 1368
f 1381 1382 1370
f 1381 1370 1369
f 1382 1153 1152
f 1382 1152 1370
f 1383 1384 1385
f 1383 1385 1386
f 1387 1388 1389
f 1387 1389 1390
f 1391 1392 1393
f 1391 1393 1394
f 1395 1396 1397
f 1395 1397 1398
f 1386 1385 1399
f 1386 1399 1400
f 1390 1389 1401
f 1390 1401 1402
f 1394 1393 1403
f 1394 1403 1404
f 1398 1397 1405
f 1398 1405 1406
f 1400 1399 1407
f 1400 1407 1408
f 1402 1401 1409
f 1402 1409 1410
f 1404 1403 1411
f 1404 1411 1412
f 1406 1405 1413
f 1406 1413 1414
f 1415 1386 1416
f 1415 1416 1417
f 1416 1400 1408
f 1416 1408 1418
f 1408 1407 1419
f 1408 1419 1418
f 1410 1409 1420
f 1410 1420 1421
f 1420 1409 1401
f 1420 1401 1422
f 1422 1389 1423
f 1422 1423 1424
f 1425 1394 1426
f 1425 1426 1427
f 1404 1412 1428
f 1404 1428 1426
f 1412 1411 1429
f 1412 1429 1428
f 1414 1413 1430
f 1414 1430 1431
f 1413 1405 1432
f 1413 1432 1430
f 1432 1397 1433
f 1432 1433 1434
f 1418 1419 1435
f 1418 1435 1436
f 1421 1420 1437
f 1421 1437 1438
f 1428 1429 1439
f 1428 1439 1440
f 1431 1430 1441
f 1431 1441 1442
f 1443 1444 1445
f 1443 1445 1446
f 1444 1447 1448
f 1444 1448 1445
f 1447 1449 1450
f 1447 1450 1448
f 1449 1451 1452
f 1449 1452 1450
f 1451 1453 1454
f 1451 1454 1452
f 1453 1455 1456
f 1453 1456 1454
f 1455 1457 1458
f 1455 1458 1456
f 1457 1459 1460
f 1457 1460 1458
f 1459 1461 1462
f 1459 1462 1460
f 1461 1463 1464
f 1461 1464 1462
f 1463 1465 1466
f 1463 1466 1464
f 1465 1467 1468
f 1465 1468 1466
f 1467 1469 1470
f 1467 1470 1468
f 1469 1471 1472
f 1469 1472 1470
f 1471 1473 1474
f 1471 1474 1472
f 1473 1443 1446
f 1473 1446 1474
f 1475 1476 1477
f 1475 1477 1478
f 1479 1480 1476
f 1479 1476 1475
f 1481 1482 1480
f 1481 1480 1479
f 1483 1484 1482
f 1483 1482 1481
f 1485 1486 1484
f 1485 1484 1483
f 1487 1488 1486
f 1487 1486 1485
f 1489 1490 1491
f 1489 1491 1492
f 1493 1494 1490
f 1493 1490 1489
f 1495 1496 1494
f 1495 1494 1493
f 1497 1498 1496
f 1497 1496 1495
f 1499 1500 1498
f 1499 1498 1497
f 1501 1502 1500
f 1501 1500 1499
f 1503 1504 1505
f 1503 1505 1506
f 1507 1508 1504
f 1507 1504 1503
f 1509 1510 1508
f 1509 1508 1507
f 1511 1512 1510
f 1511 1510 1509
f 1513 1514 1512
f 1513 1512 1511
f 1515 1516 1514
f 1515 1514 1513
f 1517 1518 1519
f 1517 1519 1520
f 1521 1522 1518
f 1521 1518 1517
f 1523 1524 1522
f 1523 1522 1521
f 1525 1526 1524
f 1525 1524 1523
f 1527 1528 1526
f 1527 1526 1525
f 1529 1530 1528
f 1529 1528 1527
f 1531 1532 1533
f 1531 1533 1534
f 1532 1535 1536
f 1532 1536 1533
f 1535 1537 1538
f 1535 1538 1536
f 1537 1539 1540
f 1537 1540 1538
f 1539 1541 1542
f 1539 1542 1540
f 1541 1543 1544
f 1541 1544 1542
f 1543 1545 1546
f 1543 1546 1544
f 1545 1547 1548
f 1545 1548 1546
f 1547 1549 1550
f 1547 1550 1548
f 1549 1551 1552
f 1549 1552 1550
f 1551 1553 1554
f 1551 1554 1552
f 1553 1555 1556
f 1553 1556 1554
f 1555 1557 1558
f 1555 1558 1556
f 1557 1559 1560
f 1557 1560 1558
f 1559 1561 1562
f 1559 1562 1560
f 1561 1531 1534
f 1561 1534 1562
f 1563 1564 1565
f 1566 1563 1565
f 1567 1568 1564
f 1563 1567 1564
f 1569 1570 1568
f 1567 1569 1568
f 1571 1572 1570
f 1569 1571 1570
f 1573 1574 1572
f 1571 1573 1572
f 1575 1576 1574
f 1573 1575 1574
f 1577 1578 1576
f 1575 1577 1576
f 1579 1580 1578
f 1577 1579 1578
f 1581 1582 1580
f 1579 1581 1580
f 1583 1584 1582
f 1581 1583 1582
f 1585 1586 1584
f 1583 1585 1584
f 1587 1588 1586
f 1585 1587 1586
f 1589 1590 1588
f 1587 1589 1588
f 1591 1592 1590
f 1589 1591 1590
f 1593 1594 1592
f 1591 1593 1592
f 1566 1565 1594
f 1593 1566 1594
f 1595 1596 1567
f 1563 1595 1567
f 1596 1597 1569
f 1567 1596 1569
f 1597 1598 1571
f 1569 1597 1571
f 1598 1599 1573
f 1571 1598 1573
f 1599 1600 1575
f 1573 1599 1575
f 1600 1601 1577
f 1575 1600 1577
f 1602 1603 1583
f 1581 1602 1583
f 1603 1604 1585
f 1583 1603 1585
f 1604 1605 1587
f 1585 1604 1587
f 1605 1606 1589
f 1587 1605 1589
f 1606 1607 1591
f 1589 1606 1591
f 1607 1608 1593
f 1591 1607 1593
f 1542 1453 1451
f 1542 1451 1540
f 1544 1455 1453
f 1544 1453 1542
f 1546 1457 1455
f 1546 1455 1544
f 1548 1459 1457
f 1548 1457 1546
f 1550 1461 1459
f 1550 1459 1548
f 1552 1463 1461
f 1552 1461 1550
f 1554 1465 1463
f 1554 1463 1552
f 1556 1467 1465
f 1556 1465 1554
f 1558 1469 1467
f 1558 1467 1556
f 1560 1471 1469
f 1560 1469 1558
f 1562 1473 1471
f 1562 1471 1560
f 1534 1443 1473
f 1534 1473 1562
f 1533 1444 1443
f 1533 1443 1534
f 1536 1447 1444
f 1536 1444 1533
f 1538 1449 1447
f 1538 1447 1536
f 1540 1451 1449
f 1540 1449 1538
f 1609 1610 1596
f 1609 1596 1595
f 1610 1611 1597
f 1610 1597 1596
f 1611 1612 1598
f 1611 1598 1597
f 1612 1613 1599
f 1612 1599 1598
f 1613 1614 1600
f 1613 1600 1599
f 1614 1615 1601
f 1614 1601 1600
f 1616 1617 1603
f 1616 1603 1602
f 1617 1618 1604
f 1617 1604 1603
f 1618 1619 1605
f 1618 1605 1604
f 1619 1620 1606
f 1619 1606 1605
f 1620 1621 1607
f 1620 1607 1606
f 1621 1622 1608
f 1621 1608 1607
f 1490 1503 1506
f 1491 1490 1506
f 1494 1507 1503
f 1490 1494 1503
f 1496 1509 1507
f 1494 1496 1507
f 1498 1511 1509
f 1496 1498 1509
f 1500 1513 1511
f 1498 1500 1511
f 1502 1515 1513
f 1500 1502 1513
f 1476 1517 1520
f 1477 1476 1520
f 1480 1521 1517
f 1476 1480 1517
f 1482 1523 1521
f 1480 1482 1521
f 1484 1525 1523
f 1482 1484 1523
f 1486 1527 1525
f 1484 1486 1525
f 1488 1529 1527
f 1486 1488 1527
f 1505 1504 1610
f 1505 1610 1609
f 1504 1508 1611
f 1504 1611 1610
f 1508 1510 1612
f 1508 1612 1611
f 1510 1512 1613
f 1510 1613 1612
f 1512 1514 1614
f 1512 1614 1613
f 1514 1516 1615
f 1514 1615 1614
f 1519 1518 1617
f 1519 1617 1616
f 1518 1522 1618
f 1518 1618 1617
f 1522 1524 1619
f 1522 1619 1618
f 1524 1526 1620
f 1524 1620 1619
f 1526 1528 1621
f 1526 1621 1620
f 1528 1530 1622
f 1528 1622 1621
f 1388 1460 1623
f 1388 1623 1624
f 1388 1624 1625
f 1388 1625 1423
f 1626 1460 1391
f 1627 1626 1391
f 1628 1627 1391
f 1425 1628 1391
f 1396 1446 1629
f 1396 1629 1630
f 1396 1630 1631
f 1396 1631 1433
f 1632 1446 1383
f 1633 1632 1383
f 1634 1633 1383
f 1415 1634 1383
f 1635 1579 1437
f 1636 1635 1437
f 1637 1636 1437
f 1424 1637 1437
f 1440 1579 1638
f 1440 1638 1639
f 1440 1639 1640
f 1440 1640 1427
f 1641 1566 1441
f 1642 1641 1441
f 1643 1642 1441
f 1434 1643 1441
f 1436 1566 1644
f 1436 1644 1645
f 1436 1645 1646
f 1436 1646 1417
f 1579 1635 1623
f 1579 1623 1460
f 1635 1636 1624
f 1635 1624 1623
f 1636 1637 1625
f 1636 1625 1624
f 1637 1424 1423
f 1637 1423 1625
f 1626 1638 1579
f 1460 1626 1579
f 1627 1639 1638
f 1626 1627 1638
f 1628 1640 1639
f 1627 1628 1639
f 1425 1427 1640
f 1628 1425 1640
f 1566 1641 1629
f 1566 1629 1446
f 1641 1642 1630
f 1641 1630 1629
f 1642 1643 1631
f 1642 1631 1630
f 1643 1434 1433
f 1643 1433 1631
f 1632 1644 1566
f 1446 1632 1566
f 1633 1645 1644
f 1632 1633 1644
f 1634 1646 1645
f 1633 1634 1645
f 1415 1417 1646
f 1634 1415 1646
