# Botball Lab: metres, +Y up, centred XZ, base Y=0
s off
v 0.0035690 0.0068698 -0.0020000
v 0.0039656 0.0069220 -0.0020000
v 0.0040000 0.0064000 -0.0020000
v 0.0036000 0.0064000 -0.0020000
v 0.0034772 0.0073317 -0.0020000
v 0.0038636 0.0074352 -0.0020000
v 0.0033260 0.0077777 -0.0020000
v 0.0036956 0.0079308 -0.0020000
v 0.0031176 0.0082000 -0.0020000
v 0.0034640 0.0084000 -0.0020000
v 0.0028562 0.0085917 -0.0020000
v 0.0031736 0.0088352 -0.0020000
v 0.0025456 0.0089456 -0.0020000
v 0.0028284 0.0092284 -0.0020000
v 0.0021917 0.0092562 -0.0020000
v 0.0024352 0.0095736 -0.0020000
v 0.0018000 0.0095176 -0.0020000
v 0.0020000 0.0098640 -0.0020000
v 0.0013777 0.0097260 -0.0020000
v 0.0015308 0.0100956 -0.0020000
v 0.0009317 0.0098772 -0.0020000
v 0.0010352 0.0102636 -0.0020000
v 0.0004698 0.0099690 -0.0020000
v 0.0005220 0.0103656 -0.0020000
v 0.0000000 0.0100000 -0.0020000
v 0.0000000 0.0104000 -0.0020000
v -0.0004698 0.0099690 -0.0020000
v -0.0005220 0.0103656 -0.0020000
v -0.0009317 0.0098772 -0.0020000
v -0.0010352 0.0102636 -0.0020000
v -0.0013777 0.0097260 -0.0020000
v -0.0015308 0.0100956 -0.0020000
v -0.0018000 0.0095176 -0.0020000
v -0.0020000 0.0098640 -0.0020000
v -0.0021917 0.0092562 -0.0020000
v -0.0024352 0.0095736 -0.0020000
v -0.0025456 0.0089456 -0.0020000
v -0.0028284 0.0092284 -0.0020000
v -0.0028562 0.0085917 -0.0020000
v -0.0031736 0.0088352 -0.0020000
v -0.0031176 0.0082000 -0.0020000
v -0.0034640 0.0084000 -0.0020000
v -0.0033260 0.0077777 -0.0020000
v -0.0036956 0.0079308 -0.0020000
v -0.0034772 0.0073317 -0.0020000
v -0.0038636 0.0074352 -0.0020000
v -0.0035690 0.0068698 -0.0020000
v -0.0039656 0.0069220 -0.0020000
v -0.0036000 0.0064000 -0.0020000
v -0.0040000 0.0064000 -0.0020000
v -0.0035690 0.0059302 -0.0020000
v -0.0039656 0.0058780 -0.0020000
v -0.0034772 0.0054683 -0.0020000
v -0.0038636 0.0053648 -0.0020000
v -0.0033260 0.0050223 -0.0020000
v -0.0036956 0.0048692 -0.0020000
v -0.0031176 0.0046000 -0.0020000
v -0.0034640 0.0044000 -0.0020000
v -0.0028562 0.0042083 -0.0020000
v -0.0031736 0.0039648 -0.0020000
v -0.0025456 0.0038544 -0.0020000
v -0.0028284 0.0035716 -0.0020000
v -0.0021917 0.0035438 -0.0020000
v -0.0024352 0.0032264 -0.0020000
v -0.0018000 0.0032824 -0.0020000
v -0.0020000 0.0029360 -0.0020000
v -0.0013777 0.0030740 -0.0020000
v -0.0015308 0.0027044 -0.0020000
v -0.0009317 0.0029228 -0.0020000
v -0.0010352 0.0025364 -0.0020000
v -0.0004698 0.0028310 -0.0020000
v -0.0005220 0.0024344 -0.0020000
v 0.0000000 0.0028000 -0.0020000
v 0.0000000 0.0024000 -0.0020000
v 0.0004698 0.0028310 -0.0020000
v 0.0005220 0.0024344 -0.0020000
v 0.0009317 0.0029228 -0.0020000
v 0.0010352 0.0025364 -0.0020000
v 0.0013777 0.0030740 -0.0020000
v 0.0015308 0.0027044 -0.0020000
v 0.0018000 0.0032824 -0.0020000
v 0.0020000 0.0029360 -0.0020000
v 0.0021917 0.0035438 -0.0020000
v 0.0024352 0.0032264 -0.0020000
v 0.0025456 0.0038544 -0.0020000
v 0.0028284 0.0035716 -0.0020000
v 0.0028562 0.0042083 -0.0020000
v 0.0031736 0.0039648 -0.0020000
v 0.0031176 0.0046000 -0.0020000
v 0.0034640 0.0044000 -0.0020000
v 0.0033260 0.0050223 -0.0020000
v 0.0036956 0.0048692 -0.0020000
v 0.0034772 0.0054683 -0.0020000
v 0.0038636 0.0053648 -0.0020000
v 0.0035690 0.0059302 -0.0020000
v 0.0039656 0.0058780 -0.0020000
v -0.0047587 0.0070264 0.0006000
v -0.0039656 0.0069220 -0.0004000
v -0.0040000 0.0064000 -0.0004000
v -0.0048000 0.0064000 0.0006000
v -0.0046363 0.0076422 0.0006000
v -0.0038636 0.0074352 -0.0004000
v -0.0044347 0.0082370 0.0006000
v -0.0036956 0.0079308 -0.0004000
v -0.0041568 0.0088000 0.0006000
v -0.0034640 0.0084000 -0.0004000
v -0.0038083 0.0093222 0.0006000
v -0.0031736 0.0088352 -0.0004000
v -0.0033941 0.0097941 0.0006000
v -0.0028284 0.0092284 -0.0004000
v -0.0029222 0.0102083 0.0006000
v -0.0024352 0.0095736 -0.0004000
v -0.0024000 0.0105568 0.0006000
v -0.0020000 0.0098640 -0.0004000
v -0.0018370 0.0108347 0.0006000
v -0.0015308 0.0100956 -0.0004000
v -0.0012422 0.0110363 0.0006000
v -0.0010352 0.0102636 -0.0004000
v -0.0006264 0.0111587 0.0006000
v -0.0005220 0.0103656 -0.0004000
v 0.0000000 0.0112000 0.0006000
v 0.0000000 0.0104000 -0.0004000
v 0.0006264 0.0111587 0.0006000
v 0.0005220 0.0103656 -0.0004000
v 0.0012422 0.0110363 0.0006000
v 0.0010352 0.0102636 -0.0004000
v 0.0018370 0.0108347 0.0006000
v 0.0015308 0.0100956 -0.0004000
v 0.0024000 0.0105568 0.0006000
v 0.0020000 0.0098640 -0.0004000
v 0.0029222 0.0102083 0.0006000
v 0.0024352 0.0095736 -0.0004000
v 0.0033941 0.0097941 0.0006000
v 0.0028284 0.0092284 -0.0004000
v 0.0038083 0.0093222 0.0006000
v 0.0031736 0.0088352 -0.0004000
v 0.0041568 0.0088000 0.0006000
v 0.0034640 0.0084000 -0.0004000
v 0.0044347 0.0082370 0.0006000
v 0.0036956 0.0079308 -0.0004000
v 0.0046363 0.0076422 0.0006000
v 0.0038636 0.0074352 -0.0004000
v 0.0047587 0.0070264 0.0006000
v 0.0039656 0.0069220 -0.0004000
v 0.0048000 0.0064000 0.0006000
v 0.0040000 0.0064000 -0.0004000
v 0.0047587 0.0057736 0.0006000
v 0.0039656 0.0058780 -0.0004000
v 0.0046363 0.0051578 0.0006000
v 0.0038636 0.0053648 -0.0004000
v 0.0044347 0.0045630 0.0006000
v 0.0036956 0.0048692 -0.0004000
v 0.0041568 0.0040000 0.0006000
v 0.0034640 0.0044000 -0.0004000
v 0.0038083 0.0034778 0.0006000
v 0.0031736 0.0039648 -0.0004000
v 0.0033941 0.0030059 0.0006000
v 0.0028284 0.0035716 -0.0004000
v 0.0029222 0.0025917 0.0006000
v 0.0024352 0.0032264 -0.0004000
v 0.0024000 0.0022432 0.0006000
v 0.0020000 0.0029360 -0.0004000
v 0.0018370 0.0019653 0.0006000
v 0.0015308 0.0027044 -0.0004000
v 0.0012422 0.0017637 0.0006000
v 0.0010352 0.0025364 -0.0004000
v 0.0006264 0.0016413 0.0006000
v 0.0005220 0.0024344 -0.0004000
v 0.0000000 0.0016000 0.0006000
v 0.0000000 0.0024000 -0.0004000
v -0.0006264 0.0016413 0.0006000
v -0.0005220 0.0024344 -0.0004000
v -0.0012422 0.0017637 0.0006000
v -0.0010352 0.0025364 -0.0004000
v -0.0018370 0.0019653 0.0006000
v -0.0015308 0.0027044 -0.0004000
v -0.0024000 0.0022432 0.0006000
v -0.0020000 0.0029360 -0.0004000
v -0.0029222 0.0025917 0.0006000
v -0.0024352 0.0032264 -0.0004000
v -0.0033941 0.0030059 0.0006000
v -0.0028284 0.0035716 -0.0004000
v -0.0038083 0.0034778 0.0006000
v -0.0031736 0.0039648 -0.0004000
v -0.0041568 0.0040000 0.0006000
v -0.0034640 0.0044000 -0.0004000
v -0.0044347 0.0045630 0.0006000
v -0.0036956 0.0048692 -0.0004000
v -0.0046363 0.0051578 0.0006000
v -0.0038636 0.0053648 -0.0004000
v -0.0047587 0.0057736 0.0006000
v -0.0039656 0.0058780 -0.0004000
v 0.0022173 0.0073184 0.0008000
v 0.0016971 0.0080971 0.0008000
v 0.0009184 0.0086173 0.0008000
v 0.0009184 0.0086173 -0.0020000
v 0.0016971 0.0080971 -0.0020000
v 0.0022173 0.0073184 -0.0020000
v 0.0008000 0.0080000 0.0008000
v 0.0008000 0.0080000 -0.0020000
v 0.0010000 0.0074000 -0.0020000
v 0.0010000 0.0074000 0.0008000
v 0.0008000 0.0086409 0.0008000
v 0.0008000 0.0086409 -0.0020000
v 0.0016000 0.0072000 0.0008000
v 0.0016000 0.0072000 -0.0020000
v 0.0022409 0.0072000 -0.0020000
v 0.0022409 0.0072000 0.0008000
v 0.0022174 0.0073185 0.0008000
v 0.0009185 0.0086174 0.0008000
v 0.0022174 0.0073185 -0.0020000
v 0.0009185 0.0086174 -0.0020000
v 0.0009184 0.0041827 0.0008000
v 0.0016971 0.0047029 0.0008000
v 0.0022173 0.0054816 0.0008000
v 0.0022173 0.0054816 -0.0020000
v 0.0016971 0.0047029 -0.0020000
v 0.0009184 0.0041827 -0.0020000
v 0.0016000 0.0056000 0.0008000
v 0.0016000 0.0056000 -0.0020000
v 0.0010000 0.0054000 -0.0020000
v 0.0010000 0.0054000 0.0008000
v 0.0022409 0.0056000 0.0008000
v 0.0022409 0.0056000 -0.0020000
v 0.0008000 0.0048000 0.0008000
v 0.0008000 0.0048000 -0.0020000
v 0.0008000 0.0041591 -0.0020000
v 0.0008000 0.0041591 0.0008000
v 0.0009185 0.0041826 0.0008000
v 0.0022174 0.0054815 0.0008000
v 0.0009185 0.0041826 -0.0020000
v 0.0022174 0.0054815 -0.0020000
v -0.0022173 0.0054816 0.0008000
v -0.0016971 0.0047029 0.0008000
v -0.0009184 0.0041827 0.0008000
v -0.0009184 0.0041827 -0.0020000
v -0.0016971 0.0047029 -0.0020000
v -0.0022173 0.0054816 -0.0020000
v -0.0008000 0.0048000 0.0008000
v -0.0008000 0.0048000 -0.0020000
v -0.0010000 0.0054000 -0.0020000
v -0.0010000 0.0054000 0.0008000
v -0.0008000 0.0041591 0.0008000
v -0.0008000 0.0041591 -0.0020000
v -0.0016000 0.0056000 0.0008000
v -0.0016000 0.0056000 -0.0020000
v -0.0022409 0.0056000 -0.0020000
v -0.0022409 0.0056000 0.0008000
v -0.0022174 0.0054815 0.0008000
v -0.0009185 0.0041826 0.0008000
v -0.0022174 0.0054815 -0.0020000
v -0.0009185 0.0041826 -0.0020000
v -0.0009184 0.0086173 0.0008000
v -0.0016971 0.0080971 0.0008000
v -0.0022173 0.0073184 0.0008000
v -0.0022173 0.0073184 -0.0020000
v -0.0016971 0.0080971 -0.0020000
v -0.0009184 0.0086173 -0.0020000
v -0.0016000 0.0072000 0.0008000
v -0.0016000 0.0072000 -0.0020000
v -0.0010000 0.0074000 -0.0020000
v -0.0010000 0.0074000 0.0008000
v -0.0022409 0.0072000 0.0008000
v -0.0022409 0.0072000 -0.0020000
v -0.0008000 0.0080000 0.0008000
v -0.0008000 0.0080000 -0.0020000
v -0.0008000 0.0086409 -0.0020000
v -0.0008000 0.0086409 0.0008000
v -0.0009185 0.0086174 0.0008000
v -0.0022174 0.0073185 0.0008000
v -0.0009185 0.0086174 -0.0020000
v -0.0022174 0.0073185 -0.0020000
v 0.0035690 0.0059302 0.0020000
v 0.0047587 0.0057736 0.0020000
v 0.0048000 0.0064000 0.0020000
v 0.0036000 0.0064000 0.0020000
v 0.0034772 0.0054683 0.0020000
v 0.0046363 0.0051578 0.0020000
v 0.0033260 0.0050223 0.0020000
v 0.0044347 0.0045630 0.0020000
v 0.0031176 0.0046000 0.0020000
v 0.0041568 0.0040000 0.0020000
v 0.0028562 0.0042083 0.0020000
v 0.0038083 0.0034778 0.0020000
v 0.0025456 0.0038544 0.0020000
v 0.0033941 0.0030059 0.0020000
v 0.0021917 0.0035438 0.0020000
v 0.0029222 0.0025917 0.0020000
v 0.0018000 0.0032824 0.0020000
v 0.0024000 0.0022432 0.0020000
v 0.0013777 0.0030740 0.0020000
v 0.0018370 0.0019653 0.0020000
v 0.0009317 0.0029228 0.0020000
v 0.0012422 0.0017637 0.0020000
v 0.0004698 0.0028310 0.0020000
v 0.0006264 0.0016413 0.0020000
v 0.0000000 0.0028000 0.0020000
v 0.0000000 0.0016000 0.0020000
v -0.0004698 0.0028310 0.0020000
v -0.0006264 0.0016413 0.0020000
v -0.0009317 0.0029228 0.0020000
v -0.0012422 0.0017637 0.0020000
v -0.0013777 0.0030740 0.0020000
v -0.0018370 0.0019653 0.0020000
v -0.0018000 0.0032824 0.0020000
v -0.0024000 0.0022432 0.0020000
v -0.0021917 0.0035438 0.0020000
v -0.0029222 0.0025917 0.0020000
v -0.0025456 0.0038544 0.0020000
v -0.0033941 0.0030059 0.0020000
v -0.0028562 0.0042083 0.0020000
v -0.0038083 0.0034778 0.0020000
v -0.0031176 0.0046000 0.0020000
v -0.0041568 0.0040000 0.0020000
v -0.0033260 0.0050223 0.0020000
v -0.0044347 0.0045630 0.0020000
v -0.0034772 0.0054683 0.0020000
v -0.0046363 0.0051578 0.0020000
v -0.0035690 0.0059302 0.0020000
v -0.0047587 0.0057736 0.0020000
v -0.0036000 0.0064000 0.0020000
v -0.0048000 0.0064000 0.0020000
v -0.0035690 0.0068698 0.0020000
v -0.0047587 0.0070264 0.0020000
v -0.0034772 0.0073317 0.0020000
v -0.0046363 0.0076422 0.0020000
v -0.0033260 0.0077777 0.0020000
v -0.0044347 0.0082370 0.0020000
v -0.0031176 0.0082000 0.0020000
v -0.0041568 0.0088000 0.0020000
v -0.0028562 0.0085917 0.0020000
v -0.0038083 0.0093222 0.0020000
v -0.0025456 0.0089456 0.0020000
v -0.0033941 0.0097941 0.0020000
v -0.0021917 0.0092562 0.0020000
v -0.0029222 0.0102083 0.0020000
v -0.0018000 0.0095176 0.0020000
v -0.0024000 0.0105568 0.0020000
v -0.0013777 0.0097260 0.0020000
v -0.0018370 0.0108347 0.0020000
v -0.0009317 0.0098772 0.0020000
v -0.0012422 0.0110363 0.0020000
v -0.0004698 0.0099690 0.0020000
v -0.0006264 0.0111587 0.0020000
v 0.0000000 0.0100000 0.0020000
v 0.0000000 0.0112000 0.0020000
v 0.0004698 0.0099690 0.0020000
v 0.0006264 0.0111587 0.0020000
v 0.0009317 0.0098772 0.0020000
v 0.0012422 0.0110363 0.0020000
v 0.0013777 0.0097260 0.0020000
v 0.0018370 0.0108347 0.0020000
v 0.0018000 0.0095176 0.0020000
v 0.0024000 0.0105568 0.0020000
v 0.0021917 0.0092562 0.0020000
v 0.0029222 0.0102083 0.0020000
v 0.0025456 0.0089456 0.0020000
v 0.0033941 0.0097941 0.0020000
v 0.0028562 0.0085917 0.0020000
v 0.0038083 0.0093222 0.0020000
v 0.0031176 0.0082000 0.0020000
v 0.0041568 0.0088000 0.0020000
v 0.0033260 0.0077777 0.0020000
v 0.0044347 0.0082370 0.0020000
v 0.0034772 0.0073317 0.0020000
v 0.0046363 0.0076422 0.0020000
v 0.0035690 0.0068698 0.0020000
v 0.0047587 0.0070264 0.0020000
v 0.0047587 0.0057736 0.0008000
v 0.0063450 0.0055648 0.0008000
v 0.0064000 0.0064000 0.0008000
v 0.0048000 0.0064000 0.0008000
v 0.0046363 0.0051578 0.0008000
v 0.0061818 0.0047437 0.0008000
v 0.0044347 0.0045630 0.0008000
v 0.0059130 0.0039507 0.0008000
v 0.0041568 0.0040000 0.0008000
v 0.0055424 0.0032000 0.0008000
v 0.0038083 0.0034778 0.0008000
v 0.0050778 0.0025037 0.0008000
v 0.0033941 0.0030059 0.0008000
v 0.0045254 0.0018746 0.0008000
v 0.0029222 0.0025917 0.0008000
v 0.0038963 0.0013222 0.0008000
v 0.0024000 0.0022432 0.0008000
v 0.0032000 0.0008576 0.0008000
v 0.0018370 0.0019653 0.0008000
v 0.0024493 0.0004870 0.0008000
v 0.0012422 0.0017637 0.0008000
v 0.0016563 0.0002182 0.0008000
v 0.0006264 0.0016413 0.0008000
v 0.0008352 0.0000550 0.0008000
v 0.0000000 0.0016000 0.0008000
v 0.0000000 0.0000000 0.0008000
v -0.0006264 0.0016413 0.0008000
v -0.0008352 0.0000550 0.0008000
v -0.0012422 0.0017637 0.0008000
v -0.0016563 0.0002182 0.0008000
v -0.0018370 0.0019653 0.0008000
v -0.0024493 0.0004870 0.0008000
v -0.0024000 0.0022432 0.0008000
v -0.0032000 0.0008576 0.0008000
v -0.0029222 0.0025917 0.0008000
v -0.0038963 0.0013222 0.0008000
v -0.0033941 0.0030059 0.0008000
v -0.0045254 0.0018746 0.0008000
v -0.0038083 0.0034778 0.0008000
v -0.0050778 0.0025037 0.0008000
v -0.0041568 0.0040000 0.0008000
v -0.0055424 0.0032000 0.0008000
v -0.0044347 0.0045630 0.0008000
v -0.0059130 0.0039507 0.0008000
v -0.0046363 0.0051578 0.0008000
v -0.0061818 0.0047437 0.0008000
v -0.0047587 0.0057736 0.0008000
v -0.0063450 0.0055648 0.0008000
v -0.0048000 0.0064000 0.0008000
v -0.0064000 0.0064000 0.0008000
v -0.0047587 0.0070264 0.0008000
v -0.0063450 0.0072352 0.0008000
v -0.0046363 0.0076422 0.0008000
v -0.0061818 0.0080563 0.0008000
v -0.0044347 0.0082370 0.0008000
v -0.0059130 0.0088493 0.0008000
v -0.0041568 0.0088000 0.0008000
v -0.0055424 0.0096000 0.0008000
v -0.0038083 0.0093222 0.0008000
v -0.0050778 0.0102963 0.0008000
v -0.0033941 0.0097941 0.0008000
v -0.0045254 0.0109254 0.0008000
v -0.0029222 0.0102083 0.0008000
v -0.0038963 0.0114778 0.0008000
v -0.0024000 0.0105568 0.0008000
v -0.0032000 0.0119424 0.0008000
v -0.0018370 0.0108347 0.0008000
v -0.0024493 0.0123130 0.0008000
v -0.0012422 0.0110363 0.0008000
v -0.0016563 0.0125818 0.0008000
v -0.0006264 0.0111587 0.0008000
v -0.0008352 0.0127450 0.0008000
v 0.0000000 0.0112000 0.0008000
v 0.0000000 0.0128000 0.0008000
v 0.0006264 0.0111587 0.0008000
v 0.0008352 0.0127450 0.0008000
v 0.0012422 0.0110363 0.0008000
v 0.0016563 0.0125818 0.0008000
v 0.0018370 0.0108347 0.0008000
v 0.0024493 0.0123130 0.0008000
v 0.0024000 0.0105568 0.0008000
v 0.0032000 0.0119424 0.0008000
v 0.0029222 0.0102083 0.0008000
v 0.0038963 0.0114778 0.0008000
v 0.0033941 0.0097941 0.0008000
v 0.0045254 0.0109254 0.0008000
v 0.0038083 0.0093222 0.0008000
v 0.0050778 0.0102963 0.0008000
v 0.0041568 0.0088000 0.0008000
v 0.0055424 0.0096000 0.0008000
v 0.0044347 0.0082370 0.0008000
v 0.0059130 0.0088493 0.0008000
v 0.0046363 0.0076422 0.0008000
v 0.0061818 0.0080563 0.0008000
v 0.0047587 0.0070264 0.0008000
v 0.0063450 0.0072352 0.0008000
v 0.0064000 0.0064000 0.0006000
v 0.0063450 0.0055648 0.0006000
v 0.0061818 0.0047437 0.0006000
v 0.0059130 0.0039507 0.0006000
v 0.0055424 0.0032000 0.0006000
v 0.0050778 0.0025037 0.0006000
v 0.0045254 0.0018746 0.0006000
v 0.0038963 0.0013222 0.0006000
v 0.0032000 0.0008576 0.0006000
v 0.0024493 0.0004870 0.0006000
v 0.0016563 0.0002182 0.0006000
v 0.0008352 0.0000550 0.0006000
v 0.0000000 0.0000000 0.0006000
v -0.0008352 0.0000550 0.0006000
v -0.0016563 0.0002182 0.0006000
v -0.0024493 0.0004870 0.0006000
v -0.0032000 0.0008576 0.0006000
v -0.0038963 0.0013222 0.0006000
v -0.0045254 0.0018746 0.0006000
v -0.0050778 0.0025037 0.0006000
v -0.0055424 0.0032000 0.0006000
v -0.0059130 0.0039507 0.0006000
v -0.0061818 0.0047437 0.0006000
v -0.0063450 0.0055648 0.0006000
v -0.0064000 0.0064000 0.0006000
v -0.0063450 0.0072352 0.0006000
v -0.0061818 0.0080563 0.0006000
v -0.0059130 0.0088493 0.0006000
v -0.0055424 0.0096000 0.0006000
v -0.0050778 0.0102963 0.0006000
v -0.0045254 0.0109254 0.0006000
v -0.0038963 0.0114778 0.0006000
v -0.0032000 0.0119424 0.0006000
v -0.0024493 0.0123130 0.0006000
v -0.0016563 0.0125818 0.0006000
v -0.0008352 0.0127450 0.0006000
v 0.0000000 0.0128000 0.0006000
v 0.0008352 0.0127450 0.0006000
v 0.0016563 0.0125818 0.0006000
v 0.0024493 0.0123130 0.0006000
v 0.0032000 0.0119424 0.0006000
v 0.0038963 0.0114778 0.0006000
v 0.0045254 0.0109254 0.0006000
v 0.0050778 0.0102963 0.0006000
v 0.0055424 0.0096000 0.0006000
v 0.0059130 0.0088493 0.0006000
v 0.0061818 0.0080563 0.0006000
v 0.0063450 0.0072352 0.0006000
v 0.0036000 0.0064000 0.0008000
v 0.0035690 0.0059302 0.0008000
v 0.0034772 0.0054683 0.0008000
v 0.0033260 0.0050223 0.0008000
v 0.0031176 0.0046000 0.0008000
v 0.0028562 0.0042083 0.0008000
v 0.0025456 0.0038544 0.0008000
v 0.0021917 0.0035438 0.0008000
v 0.0018000 0.0032824 0.0008000
v 0.0013777 0.0030740 0.0008000
v 0.0009317 0.0029228 0.0008000
v 0.0004698 0.0028310 0.0008000
v 0.0000000 0.0028000 0.0008000
v -0.0004698 0.0028310 0.0008000
v -0.0009317 0.0029228 0.0008000
v -0.0013777 0.0030740 0.0008000
v -0.0018000 0.0032824 0.0008000
v -0.0021917 0.0035438 0.0008000
v -0.0025456 0.0038544 0.0008000
v -0.0028562 0.0042083 0.0008000
v -0.0031176 0.0046000 0.0008000
v -0.0033260 0.0050223 0.0008000
v -0.0034772 0.0054683 0.0008000
v -0.0035690 0.0059302 0.0008000
v -0.0036000 0.0064000 0.0008000
v -0.0035690 0.0068698 0.0008000
v -0.0034772 0.0073317 0.0008000
v -0.0033260 0.0077777 0.0008000
v -0.0031176 0.0082000 0.0008000
v -0.0028562 0.0085917 0.0008000
v -0.0025456 0.0089456 0.0008000
v -0.0021917 0.0092562 0.0008000
v -0.0018000 0.0095176 0.0008000
v -0.0013777 0.0097260 0.0008000
v -0.0009317 0.0098772 0.0008000
v -0.0004698 0.0099690 0.0008000
v 0.0000000 0.0100000 0.0008000
v 0.0004698 0.0099690 0.0008000
v 0.0009317 0.0098772 0.0008000
v 0.0013777 0.0097260 0.0008000
v 0.0018000 0.0095176 0.0008000
v 0.0021917 0.0092562 0.0008000
v 0.0025456 0.0089456 0.0008000
v 0.0028562 0.0085917 0.0008000
v 0.0031176 0.0082000 0.0008000
v 0.0033260 0.0077777 0.0008000
v 0.0034772 0.0073317 0.0008000
v 0.0035690 0.0068698 0.0008000
v 0.0000000 0.0116000 -0.0020000
v 0.0052000 0.0064000 -0.0020000
v 0.0000000 0.0012000 -0.0020000
v -0.0052000 0.0064000 -0.0020000
v -0.0026000 0.0109032 -0.0020000
v 0.0026000 0.0109032 -0.0020000
v -0.0045032 0.0090000 -0.0020000
v -0.0026000 0.0018968 -0.0020000
v 0.0045032 0.0038000 -0.0020000
v 0.0045032 0.0090000 -0.0020000
v 0.0026000 0.0018968 -0.0020000
v -0.0045032 0.0038000 -0.0020000
v -0.0038084 0.0034776 0.0006000
v -0.0050776 0.0025036 0.0006000
v -0.0038964 0.0013224 0.0006000
v -0.0029224 0.0025916 0.0006000
v -0.0018368 0.0019652 0.0006000
v -0.0024492 0.0004872 0.0006000
v -0.0008352 0.0000552 0.0006000
v -0.0006264 0.0016412 0.0006000
v 0.0006264 0.0016412 0.0006000
v 0.0008352 0.0000552 0.0006000
v 0.0024492 0.0004872 0.0006000
v 0.0018368 0.0019652 0.0006000
v 0.0029224 0.0025916 0.0006000
v 0.0038964 0.0013224 0.0006000
v 0.0050776 0.0025036 0.0006000
v 0.0038084 0.0034776 0.0006000
v 0.0044348 0.0045632 0.0006000
v 0.0059128 0.0039508 0.0006000
v 0.0063448 0.0055648 0.0006000
v 0.0047588 0.0057736 0.0006000
v 0.0047588 0.0070264 0.0006000
v 0.0063448 0.0072352 0.0006000
v 0.0059128 0.0088492 0.0006000
v 0.0044348 0.0082368 0.0006000
v 0.0038084 0.0093224 0.0006000
v 0.0050776 0.0102964 0.0006000
v 0.0038964 0.0114776 0.0006000
v 0.0029224 0.0102084 0.0006000
v 0.0018368 0.0108348 0.0006000
v 0.0024492 0.0123128 0.0006000
v 0.0008352 0.0127448 0.0006000
v 0.0006264 0.0111588 0.0006000
v -0.0006264 0.0111588 0.0006000
v -0.0008352 0.0127448 0.0006000
v -0.0024492 0.0123128 0.0006000
v -0.0018368 0.0108348 0.0006000
v -0.0029224 0.0102084 0.0006000
v -0.0038964 0.0114776 0.0006000
v -0.0050776 0.0102964 0.0006000
v -0.0038084 0.0093224 0.0006000
v -0.0044348 0.0082368 0.0006000
v -0.0059128 0.0088492 0.0006000
v -0.0063448 0.0072352 0.0006000
v -0.0047588 0.0070264 0.0006000
v -0.0047588 0.0057736 0.0006000
v -0.0063448 0.0055648 0.0006000
v -0.0059128 0.0039508 0.0006000
v -0.0044348 0.0045632 0.0006000
v 0.0000000 0.0128000 -0.0012000
v -0.0032000 0.0119424 -0.0012000
v -0.0055424 0.0096000 -0.0012000
v -0.0064000 0.0064000 -0.0012000
v -0.0055424 0.0032000 -0.0012000
v -0.0032000 0.0008576 -0.0012000
v 0.0000000 0.0000000 -0.0012000
v 0.0032000 0.0008576 -0.0012000
v 0.0055424 0.0032000 -0.0012000
v 0.0064000 0.0064000 -0.0012000
v 0.0055424 0.0096000 -0.0012000
v 0.0032000 0.0119424 -0.0012000
v 0.0004000 0.0099736 -0.0020000
v 0.0009192 0.0086176 -0.0020000
v 0.0004000 0.0087208 -0.0020000
v 0.0004000 0.0087208 0.0008000
v 0.0009192 0.0086176 0.0008000
v 0.0004000 0.0099736 0.0008000
v -0.0004000 0.0099736 0.0008000
v -0.0009192 0.0086176 0.0008000
v -0.0004000 0.0087208 0.0008000
v -0.0004000 0.0087208 -0.0020000
v -0.0009192 0.0086176 -0.0020000
v -0.0004000 0.0099736 -0.0020000
v -0.0008000 0.0086408 0.0008000
v -0.0008000 0.0086408 -0.0020000
v 0.0008000 0.0086408 -0.0020000
v 0.0008000 0.0086408 0.0008000
v -0.0004700 0.0099692 -0.0020000
v -0.0004700 0.0099692 0.0008000
v -0.0022176 0.0073192 0.0008000
v -0.0035692 0.0068700 0.0008000
v -0.0035736 0.0068000 0.0008000
v -0.0022176 0.0073192 -0.0020000
v -0.0035736 0.0068000 -0.0020000
v -0.0035692 0.0068700 -0.0020000
v -0.0009316 0.0098772 -0.0020000
v -0.0009316 0.0098772 0.0008000
v -0.0034772 0.0073316 0.0008000
v -0.0034772 0.0073316 -0.0020000
v -0.0013776 0.0097260 -0.0020000
v -0.0013776 0.0097260 0.0008000
v -0.0033260 0.0077776 0.0008000
v -0.0033260 0.0077776 -0.0020000
v -0.0016968 0.0080968 -0.0020000
v -0.0021916 0.0092564 -0.0020000
v -0.0016968 0.0080968 0.0008000
v -0.0021916 0.0092564 0.0008000
v -0.0028564 0.0085916 0.0008000
v -0.0028564 0.0085916 -0.0020000
v -0.0022176 0.0054808 -0.0020000
v -0.0016968 0.0047032 -0.0020000
v -0.0028564 0.0042084 -0.0020000
v -0.0016968 0.0047032 0.0008000
v -0.0022176 0.0054808 0.0008000
v -0.0028564 0.0042084 0.0008000
v -0.0009192 0.0041824 0.0008000
v -0.0021916 0.0035436 0.0008000
v -0.0009192 0.0041824 -0.0020000
v -0.0021916 0.0035436 -0.0020000
v 0.0009192 0.0041824 -0.0020000
v 0.0016968 0.0047032 -0.0020000
v 0.0021916 0.0035436 -0.0020000
v 0.0016968 0.0047032 0.0008000
v 0.0009192 0.0041824 0.0008000
v 0.0021916 0.0035436 0.0008000
v 0.0022176 0.0054808 0.0008000
v 0.0028564 0.0042084 0.0008000
v 0.0022176 0.0054808 -0.0020000
v 0.0028564 0.0042084 -0.0020000
v 0.0022176 0.0073192 -0.0020000
v 0.0016968 0.0080968 -0.0020000
v 0.0028564 0.0085916 -0.0020000
v 0.0016968 0.0080968 0.0008000
v 0.0022176 0.0073192 0.0008000
v 0.0028564 0.0085916 0.0008000
v 0.0021916 0.0092564 0.0008000
v 0.0021916 0.0092564 -0.0020000
v -0.0023208 0.0068000 -0.0020000
v -0.0023208 0.0068000 0.0008000
v -0.0035736 0.0060000 0.0008000
v -0.0023208 0.0060000 0.0008000
v -0.0023208 0.0060000 -0.0020000
v -0.0035736 0.0060000 -0.0020000
v -0.0022408 0.0056000 0.0008000
v -0.0022408 0.0056000 -0.0020000
v -0.0022408 0.0072000 -0.0020000
v -0.0022408 0.0072000 0.0008000
v -0.0035692 0.0059300 -0.0020000
v -0.0035692 0.0059300 0.0008000
v -0.0004700 0.0028308 0.0008000
v -0.0004000 0.0028264 0.0008000
v -0.0004000 0.0028264 -0.0020000
v -0.0004700 0.0028308 -0.0020000
v -0.0034772 0.0054684 -0.0020000
v -0.0034772 0.0054684 0.0008000
v -0.0009316 0.0029228 0.0008000
v -0.0009316 0.0029228 -0.0020000
v -0.0033260 0.0050224 -0.0020000
v -0.0033260 0.0050224 0.0008000
v -0.0013776 0.0030740 0.0008000
v -0.0013776 0.0030740 -0.0020000
v -0.0004000 0.0040792 -0.0020000
v -0.0004000 0.0040792 0.0008000
v 0.0004000 0.0028264 0.0008000
v 0.0004000 0.0040792 0.0008000
v 0.0004000 0.0040792 -0.0020000
v 0.0004000 0.0028264 -0.0020000
v 0.0008000 0.0041592 0.0008000
v 0.0008000 0.0041592 -0.0020000
v -0.0008000 0.0041592 -0.0020000
v -0.0008000 0.0041592 0.0008000
v 0.0004700 0.0028308 -0.0020000
v 0.0004700 0.0028308 0.0008000
v 0.0035692 0.0059300 0.0008000
v 0.0035736 0.0060000 0.0008000
v 0.0035736 0.0060000 -0.0020000
v 0.0035692 0.0059300 -0.0020000
v 0.0009316 0.0029228 -0.0020000
v 0.0009316 0.0029228 0.0008000
v 0.0034772 0.0054684 0.0008000
v 0.0034772 0.0054684 -0.0020000
v 0.0013776 0.0030740 -0.0020000
v 0.0013776 0.0030740 0.0008000
v 0.0033260 0.0050224 0.0008000
v 0.0033260 0.0050224 -0.0020000
v 0.0023208 0.0060000 -0.0020000
v 0.0023208 0.0060000 0.0008000
v 0.0035736 0.0068000 0.0008000
v 0.0023208 0.0068000 0.0008000
v 0.0023208 0.0068000 -0.0020000
v 0.0035736 0.0068000 -0.0020000
v 0.0022408 0.0072000 0.0008000
v 0.0022408 0.0072000 -0.0020000
v 0.0022408 0.0056000 -0.0020000
v 0.0022408 0.0056000 0.0008000
v 0.0035692 0.0068700 -0.0020000
v 0.0035692 0.0068700 0.0008000
v 0.0004700 0.0099692 0.0008000
v 0.0004700 0.0099692 -0.0020000
v 0.0034772 0.0073316 -0.0020000
v 0.0034772 0.0073316 0.0008000
v 0.0009316 0.0098772 0.0008000
v 0.0009316 0.0098772 -0.0020000
v 0.0033260 0.0077776 -0.0020000
v 0.0033260 0.0077776 0.0008000
v 0.0013776 0.0097260 0.0008000
v 0.0013776 0.0097260 -0.0020000
vn 0.0 0.0 -1.0
vn -0.7760668 0.0871437 -0.6246009
vn -0.9412045 0.1459623 -0.3046786
vn -0.952195 0.0219671 -0.3047
vn -0.7807816 -0.0151335 -0.6246207
vn -0.7581385 0.1873576 -0.6245984
vn -0.91419 0.2672382 -0.3046973
vn -0.7271518 0.2847652 -0.6246271
vn -0.8713136 0.3846664 -0.3047039
vn -0.6836922 0.3773854 -0.6246161
vn -0.8138534 0.4947782 -0.3046919
vn -0.6286979 0.463221 -0.6246321
vn -0.742041 0.5970963 -0.3047149
vn -0.5626516 0.5415406 -0.6246255
vn -0.6579767 0.6886374 -0.3047051
vn -0.4873134 0.6102084 -0.6246369
vn -0.5621498 0.7688573 -0.3047065
vn -0.4032616 0.6687597 -0.6246124
vn -0.4572214 0.8355302 -0.304693
vn -0.312744 0.7155596 -0.6246324
vn -0.3440524 0.888132 -0.3047122
vn -0.2163759 0.7503671 -0.6246044
vn -0.2251317 0.9254653 -0.3046798
vn -0.1168744 0.7721538 -0.624595
vn -0.1028208 0.9468866 -0.3046861
vn -0.0151335 0.7807816 -0.6246207
vn 0.0219671 0.952195 -0.3047
vn 0.0871437 0.7760668 -0.6246009
vn 0.1459623 0.9412045 -0.3046786
vn 0.1873576 0.7581385 -0.6245984
vn 0.2672382 0.91419 -0.3046973
vn 0.2847652 0.7271518 -0.6246271
vn 0.3846664 0.8713136 -0.3047039
vn 0.3773854 0.6836922 -0.6246161
vn 0.4947782 0.8138534 -0.3046919
vn 0.463221 0.6286979 -0.6246321
vn 0.5970963 0.742041 -0.3047149
vn 0.5415406 0.5626516 -0.6246255
vn 0.6886374 0.6579767 -0.3047051
vn 0.6102084 0.4873134 -0.6246369
vn 0.7688573 0.5621498 -0.3047065
vn 0.6687597 0.4032616 -0.6246124
vn 0.8355302 0.4572214 -0.304693
vn 0.7155596 0.312744 -0.6246324
vn 0.888132 0.3440524 -0.3047122
vn 0.7503671 0.2163759 -0.6246044
vn 0.9254653 0.2251317 -0.3046798
vn 0.7721538 0.1168744 -0.624595
vn 0.9468866 0.1028208 -0.3046861
vn 0.7807816 0.0151335 -0.6246207
vn 0.952195 -0.0219671 -0.3047
vn 0.7760668 -0.0871437 -0.6246009
vn 0.9412045 -0.1459623 -0.3046786
vn 0.7581385 -0.1873576 -0.6245984
vn 0.91419 -0.2672382 -0.3046973
vn 0.7271518 -0.2847652 -0.6246271
vn 0.8713136 -0.3846664 -0.3047039
vn 0.6836922 -0.3773854 -0.6246161
vn 0.8138534 -0.4947782 -0.3046919
vn 0.6286979 -0.463221 -0.6246321
vn 0.742041 -0.5970963 -0.3047149
vn 0.5626516 -0.5415406 -0.6246255
vn 0.6579767 -0.6886374 -0.3047051
vn 0.4873134 -0.6102084 -0.6246369
vn 0.5621498 -0.7688573 -0.3047065
vn 0.4032616 -0.6687597 -0.6246124
vn 0.4572214 -0.8355302 -0.304693
vn 0.312744 -0.7155596 -0.6246324
vn 0.3440524 -0.888132 -0.3047122
vn 0.2163759 -0.7503671 -0.6246044
vn 0.2251317 -0.9254653 -0.3046798
vn 0.1168744 -0.7721538 -0.624595
vn 0.1028208 -0.9468866 -0.3046861
vn 0.0151335 -0.7807816 -0.6246207
vn -0.0219671 -0.952195 -0.3047
vn -0.0871437 -0.7760668 -0.6246009
vn -0.1459623 -0.9412045 -0.3046786
vn -0.1873576 -0.7581385 -0.6245984
vn -0.2672382 -0.91419 -0.3046973
vn -0.2847652 -0.7271518 -0.6246271
vn -0.3846664 -0.8713136 -0.3047039
vn -0.3773854 -0.6836922 -0.6246161
vn -0.4947782 -0.8138534 -0.3046919
vn -0.463221 -0.6286979 -0.6246321
vn -0.5970963 -0.742041 -0.3047149
vn -0.5415406 -0.5626516 -0.6246255
vn -0.6886374 -0.6579767 -0.3047051
vn -0.6102084 -0.4873134 -0.6246369
vn -0.7688573 -0.5621498 -0.3047065
vn -0.6687597 -0.4032616 -0.6246124
vn -0.8355302 -0.4572214 -0.304693
vn -0.7155596 -0.312744 -0.6246324
vn -0.888132 -0.3440524 -0.3047122
vn -0.7503671 -0.2163759 -0.6246044
vn -0.9254653 -0.2251317 -0.3046798
vn -0.7721538 -0.1168744 -0.624595
vn -0.9468866 -0.1028208 -0.3046861
vn 0.0 0.0 1.0
vn -0.9771979 -0.2123305 0.0
vn -0.9943996 -0.105686 0.0
vn -0.9486833 -0.3162278 0.0
vn -1.0 0.0 0.0
vn -0.2123305 -0.9771979 0.0
vn -0.3162278 -0.9486833 0.0
vn -0.105686 -0.9943996 0.0
vn 0.0 -1.0 0.0
vn -0.2123305 0.9771979 0.0
vn -0.105686 0.9943996 0.0
vn -0.3162278 0.9486833 0.0
vn 0.0 1.0 0.0
vn -0.9771979 0.2123305 0.0
vn -0.9486833 0.3162278 0.0
vn -0.9943996 0.105686 0.0
vn 0.9771979 0.2123305 0.0
vn 0.9943996 0.105686 0.0
vn 0.9486833 0.3162278 0.0
vn 1.0 0.0 0.0
vn 0.2123305 0.9771979 0.0
vn 0.3162278 0.9486833 0.0
vn 0.105686 0.9943996 0.0
vn 0.2123305 -0.9771979 0.0
vn 0.105686 -0.9943996 0.0
vn 0.3162278 -0.9486833 0.0
vn 0.9771979 -0.2123305 0.0
vn 0.9486833 -0.3162278 0.0
vn 0.9943996 -0.105686 0.0
vn -0.9997582 0.0219899 0.0
vn -0.9999736 0.0072693 0.0
vn -0.9940325 0.1090847 0.0
vn -0.9883504 0.1521957 0.0
vn -0.9714055 0.2374263 0.0
vn -0.9601309 0.2795506 0.0
vn -0.9320805 0.3622512 0.0
vn -0.9152795 0.4028194 0.0
vn -0.8767439 0.4809575 0.0
vn -0.8550492 0.5185469 0.0
vn -0.8066146 0.5910777 0.0
vn -0.7798298 0.6259916 0.0
vn -0.7222952 0.6915849 0.0
vn -0.6915849 0.7222952 0.0
vn -0.6259916 0.7798298 0.0
vn -0.5910777 0.8066146 0.0
vn -0.5185469 0.8550492 0.0
vn -0.4809575 0.8767439 0.0
vn -0.4028194 0.9152795 0.0
vn -0.3622512 0.9320805 0.0
vn -0.2795506 0.9601309 0.0
vn -0.2374263 0.9714055 0.0
vn -0.1521957 0.9883504 0.0
vn -0.1090847 0.9940325 0.0
vn 0.0072693 0.9999736 0.0
vn 0.0219899 0.9997582 0.0
vn 0.1090847 0.9940325 0.0
vn 0.1521957 0.9883504 0.0
vn 0.2374263 0.9714055 0.0
vn 0.2795506 0.9601309 0.0
vn 0.3622512 0.9320805 0.0
vn 0.4028194 0.9152795 0.0
vn 0.4809575 0.8767439 0.0
vn 0.5185469 0.8550492 0.0
vn 0.5910777 0.8066146 0.0
vn 0.6259916 0.7798298 0.0
vn 0.6915849 0.7222952 0.0
vn 0.7222952 0.6915849 0.0
vn 0.7798298 0.6259916 0.0
vn 0.8066146 0.5910777 0.0
vn 0.8550492 0.5185469 0.0
vn 0.8767439 0.4809575 0.0
vn 0.9152795 0.4028194 0.0
vn 0.9320805 0.3622512 0.0
vn 0.9601309 0.2795506 0.0
vn 0.9714055 0.2374263 0.0
vn 0.9883504 0.1521957 0.0
vn 0.9940325 0.1090847 0.0
vn 0.9999736 -0.0072693 0.0
vn 0.9997582 -0.0219899 0.0
vn 0.9940325 -0.1090847 0.0
vn 0.9883504 -0.1521957 0.0
vn 0.9714055 -0.2374263 0.0
vn 0.9601309 -0.2795506 0.0
vn 0.9320805 -0.3622512 0.0
vn 0.9152795 -0.4028194 0.0
vn 0.8767439 -0.4809575 0.0
vn 0.8550492 -0.5185469 0.0
vn 0.8066146 -0.5910777 0.0
vn 0.7798298 -0.6259916 0.0
vn 0.7222952 -0.6915849 0.0
vn 0.6915849 -0.7222952 0.0
vn 0.6259916 -0.7798298 0.0
vn 0.5910777 -0.8066146 0.0
vn 0.5185469 -0.8550492 0.0
vn 0.4809575 -0.8767439 0.0
vn 0.4028194 -0.9152795 0.0
vn 0.3622512 -0.9320805 0.0
vn 0.2795506 -0.9601309 0.0
vn 0.2374263 -0.9714055 0.0
vn 0.1521957 -0.9883504 0.0
vn 0.1090847 -0.9940325 0.0
vn -0.0072693 -0.9999736 0.0
vn -0.0219899 -0.9997582 0.0
vn -0.1090847 -0.9940325 0.0
vn -0.1521957 -0.9883504 0.0
vn -0.2374263 -0.9714055 0.0
vn -0.2795506 -0.9601309 0.0
vn -0.3622512 -0.9320805 0.0
vn -0.4028194 -0.9152795 0.0
vn -0.4809575 -0.8767439 0.0
vn -0.5185469 -0.8550492 0.0
vn -0.5910777 -0.8066146 0.0
vn -0.6259916 -0.7798298 0.0
vn -0.6915849 -0.7222952 0.0
vn -0.7222952 -0.6915849 0.0
vn -0.7798298 -0.6259916 0.0
vn -0.8066146 -0.5910777 0.0
vn -0.8550492 -0.5185469 0.0
vn -0.8767439 -0.4809575 0.0
vn -0.9152795 -0.4028194 0.0
vn -0.9320805 -0.3622512 0.0
vn -0.9601309 -0.2795506 0.0
vn -0.9714055 -0.2374263 0.0
vn -0.9883504 -0.1521957 0.0
vn -0.9940325 -0.1090847 0.0
vn 0.9940359 -0.1090535 0.0
vn 0.9997586 0.0219721 0.0
vn 0.9997586 -0.0219721 0.0
vn 0.9883514 -0.1521891 0.0
vn 0.9601393 -0.2795221 0.0
vn 0.9320885 -0.3622307 0.0
vn 0.9152664 -0.4028491 0.0
vn 0.8767118 -0.481016 0.0
vn 0.8550285 -0.5185811 0.0
vn 0.8065961 -0.591103 0.0
vn 0.7798038 -0.626024 0.0
vn 0.7222848 -0.6915957 0.0
vn 0.6915957 -0.7222848 0.0
vn 0.626024 -0.7798038 0.0
vn 0.591103 -0.8065961 0.0
vn 0.5185811 -0.8550285 0.0
vn 0.481016 -0.8767118 0.0
vn 0.4028491 -0.9152664 0.0
vn 0.3622307 -0.9320885 0.0
vn 0.2795221 -0.9601393 0.0
vn 0.1521891 -0.9883514 0.0
vn 0.1090535 -0.9940359 0.0
vn 0.0219721 -0.9997586 0.0
vn -0.0219721 -0.9997586 0.0
vn -0.1090535 -0.9940359 0.0
vn -0.1521891 -0.9883514 0.0
vn -0.2795221 -0.9601393 0.0
vn -0.3622307 -0.9320885 0.0
vn -0.4028491 -0.9152664 0.0
vn -0.481016 -0.8767118 0.0
vn -0.5185811 -0.8550285 0.0
vn -0.591103 -0.8065961 0.0
vn -0.626024 -0.7798038 0.0
vn -0.6915957 -0.7222848 0.0
vn -0.7222848 -0.6915957 0.0
vn -0.7798038 -0.626024 0.0
vn -0.8065961 -0.591103 0.0
vn -0.8550285 -0.5185811 0.0
vn -0.8767118 -0.481016 0.0
vn -0.9152664 -0.4028491 0.0
vn -0.9320885 -0.3622307 0.0
vn -0.9601393 -0.2795221 0.0
vn -0.9883514 -0.1521891 0.0
vn -0.9940359 -0.1090535 0.0
vn -0.9997586 -0.0219721 0.0
vn -0.9997586 0.0219721 0.0
vn -0.9940359 0.1090535 0.0
vn -0.9883514 0.1521891 0.0
vn -0.9601393 0.2795221 0.0
vn -0.9320885 0.3622307 0.0
vn -0.9152664 0.4028491 0.0
vn -0.8767118 0.481016 0.0
vn -0.8550285 0.5185811 0.0
vn -0.8065961 0.591103 0.0
vn -0.7798038 0.626024 0.0
vn -0.7222848 0.6915957 0.0
vn -0.6915957 0.7222848 0.0
vn -0.626024 0.7798038 0.0
vn -0.591103 0.8065961 0.0
vn -0.5185811 0.8550285 0.0
vn -0.481016 0.8767118 0.0
vn -0.4028491 0.9152664 0.0
vn -0.3622307 0.9320885 0.0
vn -0.2795221 0.9601393 0.0
vn -0.1521891 0.9883514 0.0
vn -0.1090535 0.9940359 0.0
vn -0.0219721 0.9997586 0.0
vn 0.0219721 0.9997586 0.0
vn 0.1090535 0.9940359 0.0
vn 0.1521891 0.9883514 0.0
vn 0.2795221 0.9601393 0.0
vn 0.3622307 0.9320885 0.0
vn 0.4028491 0.9152664 0.0
vn 0.481016 0.8767118 0.0
vn 0.5185811 0.8550285 0.0
vn 0.591103 0.8065961 0.0
vn 0.626024 0.7798038 0.0
vn 0.6915957 0.7222848 0.0
vn 0.7222848 0.6915957 0.0
vn 0.7798038 0.626024 0.0
vn 0.8065961 0.591103 0.0
vn 0.8550285 0.5185811 0.0
vn 0.8767118 0.481016 0.0
vn 0.9152664 0.4028491 0.0
vn 0.9320885 0.3622307 0.0
vn 0.9601393 0.2795221 0.0
vn 0.9883514 0.1521891 0.0
vn 0.9940359 0.1090535 0.0
vn 0.9940384 -0.1090302 0.0
vn 0.9997588 0.0219615 0.0
vn 0.9320765 -0.3622615 0.0
vn 0.8767221 -0.4809972 0.0
vn 0.8065998 -0.591098 0.0
vn 0.7222592 -0.6916225 0.0
vn 0.6260641 -0.7797716 0.0
vn 0.518545 -0.8550503 0.0
vn 0.4028669 -0.9152586 0.0
vn 0.2795392 -0.9601343 0.0
vn 0.1521723 -0.988354 0.0
vn 0.0219615 -0.9997588 0.0
vn -0.1090302 -0.9940384 0.0
vn -0.3622615 -0.9320765 0.0
vn -0.4809972 -0.8767221 0.0
vn -0.591098 -0.8065998 0.0
vn -0.6916225 -0.7222592 0.0
vn -0.7797716 -0.6260641 0.0
vn -0.8550503 -0.518545 0.0
vn -0.9152586 -0.4028669 0.0
vn -0.9601343 -0.2795392 0.0
vn -0.988354 -0.1521723 0.0
vn -0.9997588 -0.0219615 0.0
vn -0.9940384 0.1090302 0.0
vn -0.9320765 0.3622615 0.0
vn -0.8767221 0.4809972 0.0
vn -0.8065998 0.591098 0.0
vn -0.7222592 0.6916225 0.0
vn -0.6260641 0.7797716 0.0
vn -0.518545 0.8550503 0.0
vn -0.4028669 0.9152586 0.0
vn -0.2795392 0.9601343 0.0
vn -0.1521723 0.988354 0.0
vn -0.0219615 0.9997588 0.0
vn 0.1090302 0.9940384 0.0
vn 0.3622615 0.9320765 0.0
vn 0.4809972 0.8767221 0.0
vn 0.591098 0.8065998 0.0
vn 0.6916225 0.7222592 0.0
vn 0.7797716 0.6260641 0.0
vn 0.8550503 0.518545 0.0
vn 0.9152586 0.4028669 0.0
vn 0.9601343 0.2795392 0.0
vn 0.988354 0.1521723 0.0
vn 0.9999951 -0.0031358 0.0
vn 0.9997592 0.0219455 0.0
vn 0.9940418 -0.1089995 0.0
vn 0.988356 -0.1521591 0.0
vn 0.9601361 -0.2795328 0.0
vn 0.9320743 -0.3622672 0.0
vn 0.9152468 -0.4028937 0.0
vn 0.8767098 -0.4810196 0.0
vn 0.8645583 -0.5025326 0.0
vn 0.8065914 -0.5911094 0.0
vn 0.7797388 -0.6261049 0.0
vn 0.7222389 -0.6916437 0.0
vn 0.6916437 -0.7222389 0.0
vn 0.6261049 -0.7797388 0.0
vn 0.5911094 -0.8065914 0.0
vn 0.518544 -0.855051 0.0
vn 0.497171 -0.8676526 0.0
vn 0.4028937 -0.9152468 0.0
vn 0.3622672 -0.9320743 0.0
vn 0.2795328 -0.9601361 0.0
vn 0.1521591 -0.988356 0.0
vn 0.1089995 -0.9940418 0.0
vn 0.0219455 -0.9997592 0.0
vn -0.0031358 -0.9999951 0.0
vn -0.1089995 -0.9940418 0.0
vn -0.1521591 -0.988356 0.0
vn -0.2795328 -0.9601361 0.0
vn -0.3622672 -0.9320743 0.0
vn -0.4028937 -0.9152468 0.0
vn -0.4810196 -0.8767098 0.0
vn -0.5025326 -0.8645583 0.0
vn -0.5911094 -0.8065914 0.0
vn -0.6261049 -0.7797388 0.0
vn -0.6916437 -0.7222389 0.0
vn -0.7222389 -0.6916437 0.0
vn -0.7797388 -0.6261049 0.0
vn -0.8065914 -0.5911094 0.0
vn -0.855051 -0.518544 0.0
vn -0.8676526 -0.497171 0.0
vn -0.9152468 -0.4028937 0.0
vn -0.9320743 -0.3622672 0.0
vn -0.9601361 -0.2795328 0.0
vn -0.988356 -0.1521591 0.0
vn -0.9940418 -0.1089995 0.0
vn -0.9997592 -0.0219455 0.0
vn -0.9999951 0.0031358 0.0
vn -0.9940418 0.1089995 0.0
vn -0.988356 0.1521591 0.0
vn -0.9601361 0.2795328 0.0
vn -0.9320743 0.3622672 0.0
vn -0.9152468 0.4028937 0.0
vn -0.8767098 0.4810196 0.0
vn -0.8645583 0.5025326 0.0
vn -0.8065914 0.5911094 0.0
vn -0.7797388 0.6261049 0.0
vn -0.7222389 0.6916437 0.0
vn -0.6916437 0.7222389 0.0
vn -0.6261049 0.7797388 0.0
vn -0.5911094 0.8065914 0.0
vn -0.518544 0.855051 0.0
vn -0.497171 0.8676526 0.0
vn -0.4028937 0.9152468 0.0
vn -0.3622672 0.9320743 0.0
vn -0.2795328 0.9601361 0.0
vn -0.1521591 0.988356 0.0
vn -0.1089995 0.9940418 0.0
vn -0.0219455 0.9997592 0.0
vn 0.0031358 0.9999951 0.0
vn 0.1089995 0.9940418 0.0
vn 0.1521591 0.988356 0.0
vn 0.2795328 0.9601361 0.0
vn 0.3622672 0.9320743 0.0
vn 0.4028937 0.9152468 0.0
vn 0.4810196 0.8767098 0.0
vn 0.5025326 0.8645583 0.0
vn 0.5911094 0.8065914 0.0
vn 0.6261049 0.7797388 0.0
vn 0.6916437 0.7222389 0.0
vn 0.7222389 0.6916437 0.0
vn 0.7797388 0.6261049 0.0
vn 0.8065914 0.5911094 0.0
vn 0.855051 0.518544 0.0
vn 0.8676526 0.497171 0.0
vn 0.9152468 0.4028937 0.0
vn 0.9320743 0.3622672 0.0
vn 0.9601361 0.2795328 0.0
vn 0.988356 0.1521591 0.0
vn 0.9940418 0.1089995 0.0
vn 0.3807097 -0.8943331 -0.2350074
vn 0.6088407 -0.7932925 0.0
vn 0.6088128 -0.793314 -1.09e-05
vn 0.3789723 -0.8972089 -0.2267071
vn -0.793314 0.6088128 -1.09e-05
vn -0.9009401 0.3388435 -0.2710941
vn -0.8897395 0.410657 -0.19931
vn -0.7933206 0.6088041 -3.69e-05
vn 0.7768323 -0.5842101 -0.235011
vn 0.923962 -0.3824843 0.0
vn 0.9238664 -0.382715 -7.69e-05
vn 0.7767554 -0.5875861 -0.2267014
vn -0.9914459 0.130518 7.7e-06
vn -0.9496975 -0.1569975 -0.2709733
vn -0.9758851 -0.0892358 -0.1992117
vn -0.9914449 0.1305257 2.61e-05
vn 0.9648969 -0.1174557 -0.2349002
vn 0.9914492 0.1304933 0.0
vn 0.9914459 0.130518 7.7e-06
vn 0.9665226 -0.1203824 -0.2265879
vn -0.9238664 -0.382715 -7.69e-05
vn -0.7438957 -0.610855 -0.2710632
vn -0.8004703 -0.5652624 -0.1993132
vn -0.923837 -0.382786 -0.0002613
vn 0.8943331 0.3807097 -0.2350074
vn 0.7932925 0.6088407 0.0
vn 0.793314 0.6088128 -1.09e-05
vn 0.8972089 0.3789723 -0.2267071
vn -0.6088128 -0.793314 -1.09e-05
vn -0.3388435 -0.9009401 -0.2710941
vn -0.410657 -0.8897395 -0.19931
vn -0.6088041 -0.7933206 -3.69e-05
vn 0.5842101 0.7768323 -0.235011
vn 0.3824843 0.923962 0.0
vn 0.382715 0.9238664 -7.69e-05
vn 0.5875861 0.7767554 -0.2267014
vn -0.130518 -0.9914459 7.7e-06
vn 0.1569975 -0.9496975 -0.2709733
vn 0.0892358 -0.9758851 -0.1992117
vn -0.1305257 -0.9914449 2.61e-05
vn 0.1174557 0.9648969 -0.2349002
vn -0.1304933 0.9914492 0.0
vn -0.130518 0.9914459 7.7e-06
vn 0.1203824 0.9665226 -0.2265879
vn 0.382715 -0.9238664 -7.69e-05
vn 0.610855 -0.7438957 -0.2710632
vn 0.5652624 -0.8004703 -0.1993132
vn 0.382786 -0.923837 -0.0002613
vn -0.3807097 0.8943331 -0.2350074
vn -0.6088407 0.7932925 0.0
vn -0.6088128 0.793314 -1.09e-05
vn -0.3789723 0.8972089 -0.2267071
vn 0.793314 -0.6088128 -1.09e-05
vn 0.9009401 -0.3388435 -0.2710941
vn 0.8897395 -0.410657 -0.19931
vn 0.7933206 -0.6088041 -3.69e-05
vn -0.7768323 0.5842101 -0.235011
vn -0.923962 0.3824843 0.0
vn -0.9238664 0.382715 -7.69e-05
vn -0.7767554 0.5875861 -0.2267014
vn 0.9914459 -0.130518 7.7e-06
vn 0.9496975 0.1569975 -0.2709733
vn 0.9758851 0.0892358 -0.1992117
vn 0.9914449 -0.1305257 2.61e-05
vn -0.9648969 0.1174557 -0.2349002
vn -0.9914492 -0.1304933 0.0
vn -0.9914459 -0.130518 7.7e-06
vn -0.9665226 0.1203824 -0.2265879
vn 0.9238664 0.382715 -7.69e-05
vn 0.7438957 0.610855 -0.2710632
vn 0.8004703 0.5652624 -0.1993132
vn 0.923837 0.382786 -0.0002613
vn -0.8943331 -0.3807097 -0.2350074
vn -0.7932925 -0.6088407 0.0
vn -0.793314 -0.6088128 -1.09e-05
vn -0.8972089 -0.3789723 -0.2267071
vn 0.6088128 0.793314 -1.09e-05
vn 0.3388435 0.9009401 -0.2710941
vn 0.410657 0.8897395 -0.19931
vn 0.6088041 0.7933206 -3.69e-05
vn -0.5842101 -0.7768323 -0.235011
vn -0.3824843 -0.923962 0.0
vn -0.382715 -0.9238664 -7.69e-05
vn -0.5875861 -0.7767554 -0.2267014
vn 0.130518 0.9914459 7.7e-06
vn -0.1569975 0.9496975 -0.2709733
vn -0.0892358 0.9758851 -0.1992117
vn 0.1305257 0.9914449 2.61e-05
vn -0.1174557 -0.9648969 -0.2349002
vn 0.1304933 -0.9914492 0.0
vn 0.130518 -0.9914459 7.7e-06
vn -0.1203824 -0.9665226 -0.2265879
vn -0.382715 0.9238664 -7.69e-05
vn -0.610855 0.7438957 -0.2710632
vn -0.5652624 0.8004703 -0.1993132
vn -0.382786 0.923837 -0.0002613
vn 0.0659481 0.9978231 0.0
vn -0.0659481 0.9978231 0.0
vn -0.4424294 0.8968034 0.0
vn -0.4998468 0.8661138 0.0
vn -0.5551411 0.8317562 0.0
vn -0.8968034 0.4424294 0.0
vn -0.8661138 0.4998468 0.0
vn -0.8317562 0.5551411 0.0
vn -0.9978231 0.0659481 0.0
vn -0.9978231 -0.0659481 0.0
vn -0.8968034 -0.4424294 0.0
vn -0.8661138 -0.4998468 0.0
vn -0.8317562 -0.5551411 0.0
vn -0.4424294 -0.8968034 0.0
vn -0.4998468 -0.8661138 0.0
vn -0.5551411 -0.8317562 0.0
vn -0.0659481 -0.9978231 0.0
vn 0.0659481 -0.9978231 0.0
vn 0.4424294 -0.8968034 0.0
vn 0.4998468 -0.8661138 0.0
vn 0.5551411 -0.8317562 0.0
vn 0.8968034 -0.4424294 0.0
vn 0.8661138 -0.4998468 0.0
vn 0.8317562 -0.5551411 0.0
vn 0.9978231 -0.0659481 0.0
vn 0.9978231 0.0659481 0.0
vn 0.8968034 0.4424294 0.0
vn 0.8661138 0.4998468 0.0
vn 0.8317562 0.5551411 0.0
vn 0.4424294 0.8968034 0.0
vn 0.4998468 0.8661138 0.0
vn 0.5551411 0.8317562 0.0
vn 0.8524536 0.3189237 -0.4142589
vn -0.8524536 0.3189237 -0.4142589
vn 0.5786067 0.7024796 -0.4144112
vn -0.8976409 -0.1498378 -0.4144749
vn -0.7024796 -0.5786067 -0.4144112
vn 0.1498378 0.8976409 -0.4144749
vn 0.3189237 -0.8524536 -0.4142589
vn 0.3189237 0.8524536 -0.4142589
vn 0.7024796 -0.5786067 -0.4144112
vn -0.1498378 0.8976409 -0.4144749
vn -0.5786067 0.7024796 -0.4144112
vn 0.8976409 -0.1498378 -0.4144749
vn -0.8524536 -0.3189237 -0.4142589
vn 0.8524536 -0.3189237 -0.4142589
vn -0.5786067 -0.7024796 -0.4144112
vn 0.8976409 0.1498378 -0.4144749
vn 0.7024796 0.5786067 -0.4144112
vn -0.1498378 -0.8976409 -0.4144749
vn -0.3189237 0.8524536 -0.4142589
vn -0.3189237 -0.8524536 -0.4142589
vn -0.7024796 0.5786067 -0.4144112
vn 0.1498378 -0.8976409 -0.4144749
vn 0.5786067 -0.7024796 -0.4144112
vn -0.8976409 0.1498378 -0.4144749
vn -0.8567765 -0.1061949 -0.5046352
vn 0.7952597 0.3362975 -0.5044462
vn -0.7952597 0.3362975 -0.5044462
vn 0.5203511 0.6889046 -0.5046238
vn -0.6889046 -0.5203511 -0.5046238
vn 0.1061949 0.8567765 -0.5046352
vn -0.1061949 0.8567765 -0.5046352
vn 0.3362975 -0.7952597 -0.5044462
vn 0.3362975 0.7952597 -0.5044462
vn 0.6889046 -0.5203511 -0.5046238
vn -0.5203511 0.6889046 -0.5046238
vn 0.8567765 -0.1061949 -0.5046352
vn 0.8567765 0.1061949 -0.5046352
vn -0.7952597 -0.3362975 -0.5044462
vn 0.7952597 -0.3362975 -0.5044462
vn -0.5203511 -0.6889046 -0.5046238
vn 0.6889046 0.5203511 -0.5046238
vn -0.1061949 -0.8567765 -0.5046352
vn 0.1061949 -0.8567765 -0.5046352
vn -0.3362975 0.7952597 -0.5044462
vn -0.3362975 -0.7952597 -0.5044462
vn -0.6889046 0.5203511 -0.5046238
vn 0.5203511 -0.6889046 -0.5046238
vn -0.8567765 0.1061949 -0.5046352
vn 0.1961161 -0.9805807 0.0
vn 0.0219947 -0.9997581 0.0
vn 0.0658567 -0.9978291 0.0
vn -0.1961161 -0.9805807 0.0
vn -0.0658567 -0.9978291 0.0
vn 0.9805807 0.1961161 0.0
vn 0.9997581 0.0219947 0.0
vn 0.9978291 0.0658567 0.0
vn 0.9805807 -0.1961161 0.0
vn 0.9978291 -0.0658567 0.0
vn -0.1961161 0.9805807 0.0
vn -0.0219947 0.9997581 0.0
vn -0.0658567 0.9978291 0.0
vn 0.1961161 0.9805807 0.0
vn 0.0658567 0.9978291 0.0
vn -0.9805807 -0.1961161 0.0
vn -0.9997581 -0.0219947 0.0
vn -0.9978291 -0.0658567 0.0
vn -0.9805807 0.1961161 0.0
vn -0.9978291 0.0658567 0.0
f 1//1 2//1 3//1
f 4//1 1//1 3//1
f 5//1 6//1 2//1
f 1//1 5//1 2//1
f 7//1 8//1 6//1
f 5//1 7//1 6//1
f 9//1 10//1 8//1
f 7//1 9//1 8//1
f 11//1 12//1 10//1
f 9//1 11//1 10//1
f 13//1 14//1 12//1
f 11//1 13//1 12//1
f 15//1 16//1 14//1
f 13//1 15//1 14//1
f 17//1 18//1 16//1
f 15//1 17//1 16//1
f 19//1 20//1 18//1
f 17//1 19//1 18//1
f 21//1 22//1 20//1
f 19//1 21//1 20//1
f 23//1 24//1 22//1
f 21//1 23//1 22//1
f 25//1 26//1 24//1
f 23//1 25//1 24//1
f 27//1 28//1 26//1
f 25//1 27//1 26//1
f 29//1 30//1 28//1
f 27//1 29//1 28//1
f 31//1 32//1 30//1
f 29//1 31//1 30//1
f 33//1 34//1 32//1
f 31//1 33//1 32//1
f 35//1 36//1 34//1
f 33//1 35//1 34//1
f 37//1 38//1 36//1
f 35//1 37//1 36//1
f 39//1 40//1 38//1
f 37//1 39//1 38//1
f 41//1 42//1 40//1
f 39//1 41//1 40//1
f 43//1 44//1 42//1
f 41//1 43//1 42//1
f 45//1 46//1 44//1
f 43//1 45//1 44//1
f 47//1 48//1 46//1
f 45//1 47//1 46//1
f 49//1 50//1 48//1
f 47//1 49//1 48//1
f 51//1 52//1 50//1
f 49//1 51//1 50//1
f 53//1 54//1 52//1
f 51//1 53//1 52//1
f 55//1 56//1 54//1
f 53//1 55//1 54//1
f 57//1 58//1 56//1
f 55//1 57//1 56//1
f 59//1 60//1 58//1
f 57//1 59//1 58//1
f 61//1 62//1 60//1
f 59//1 61//1 60//1
f 63//1 64//1 62//1
f 61//1 63//1 62//1
f 65//1 66//1 64//1
f 63//1 65//1 64//1
f 67//1 68//1 66//1
f 65//1 67//1 66//1
f 69//1 70//1 68//1
f 67//1 69//1 68//1
f 71//1 72//1 70//1
f 69//1 71//1 70//1
f 73//1 74//1 72//1
f 71//1 73//1 72//1
f 75//1 76//1 74//1
f 73//1 75//1 74//1
f 77//1 78//1 76//1
f 75//1 77//1 76//1
f 79//1 80//1 78//1
f 77//1 79//1 78//1
f 81//1 82//1 80//1
f 79//1 81//1 80//1
f 83//1 84//1 82//1
f 81//1 83//1 82//1
f 85//1 86//1 84//1
f 83//1 85//1 84//1
f 87//1 88//1 86//1
f 85//1 87//1 86//1
f 89//1 90//1 88//1
f 87//1 89//1 88//1
f 91//1 92//1 90//1
f 89//1 91//1 90//1
f 93//1 94//1 92//1
f 91//1 93//1 92//1
f 95//1 96//1 94//1
f 93//1 95//1 94//1
f 4//1 3//1 96//1
f 95//1 4//1 96//1
f 97//2 98//3 99//4
f 100//5 97//2 99//4
f 101//6 102//7 98//3
f 97//2 101//6 98//3
f 103//8 104//9 102//7
f 101//6 103//8 102//7
f 105//10 106//11 104//9
f 103//8 105//10 104//9
f 107//12 108//13 106//11
f 105//10 107//12 106//11
f 109//14 110//15 108//13
f 107//12 109//14 108//13
f 111//16 112//17 110//15
f 109//14 111//16 110//15
f 113//18 114//19 112//17
f 111//16 113//18 112//17
f 115//20 116//21 114//19
f 113//18 115//20 114//19
f 117//22 118//23 116//21
f 115//20 117//22 116//21
f 119//24 120//25 118//23
f 117//22 119//24 118//23
f 121//26 122//27 120//25
f 119//24 121//26 120//25
f 123//28 124//29 122//27
f 121//26 123//28 122//27
f 125//30 126//31 124//29
f 123//28 125//30 124//29
f 127//32 128//33 126//31
f 125//30 127//32 126//31
f 129//34 130//35 128//33
f 127//32 129//34 128//33
f 131//36 132//37 130//35
f 129//34 131//36 130//35
f 133//38 134//39 132//37
f 131//36 133//38 132//37
f 135//40 136//41 134//39
f 133//38 135//40 134//39
f 137//42 138//43 136//41
f 135//40 137//42 136//41
f 139//44 140//45 138//43
f 137//42 139//44 138//43
f 141//46 142//47 140//45
f 139//44 141//46 140//45
f 143//48 144//49 142//47
f 141//46 143//48 142//47
f 145//50 146//51 144//49
f 143//48 145//50 144//49
f 147//52 148//53 146//51
f 145//50 147//52 146//51
f 149//54 150//55 148//53
f 147//52 149//54 148//53
f 151//56 152//57 150//55
f 149//54 151//56 150//55
f 153//58 154//59 152//57
f 151//56 153//58 152//57
f 155//60 156//61 154//59
f 153//58 155//60 154//59
f 157//62 158//63 156//61
f 155//60 157//62 156//61
f 159//64 160//65 158//63
f 157//62 159//64 158//63
f 161//66 162//67 160//65
f 159//64 161//66 160//65
f 163//68 164//69 162//67
f 161//66 163//68 162//67
f 165//70 166//71 164//69
f 163//68 165//70 164//69
f 167//72 168//73 166//71
f 165//70 167//72 166//71
f 169//74 170//75 168//73
f 167//72 169//74 168//73
f 171//76 172//77 170//75
f 169//74 171//76 170//75
f 173//78 174//79 172//77
f 171//76 173//78 172//77
f 175//80 176//81 174//79
f 173//78 175//80 174//79
f 177//82 178//83 176//81
f 175//80 177//82 176//81
f 179//84 180//85 178//83
f 177//82 179//84 178//83
f 181//86 182//87 180//85
f 179//84 181//86 180//85
f 183//88 184//89 182//87
f 181//86 183//88 182//87
f 185//90 186//91 184//89
f 183//88 185//90 184//89
f 187//92 188//93 186//91
f 185//90 187//92 186//91
f 189//94 190//95 188//93
f 187//92 189//94 188//93
f 191//96 192//97 190//95
f 189//94 191//96 190//95
f 100//5 99//4 192//97
f 191//96 100//5 192//97
f 193//98 194//98 195//98
f 196//1 197//1 198//1
f 199//99 200//100 201//101
f 199//99 201//101 202//101
f 203//102 204//102 200//100
f 203//102 200//100 199//99
f 205//103 202//104 201//104
f 205//103 201//104 206//105
f 206//105 207//106 208//106
f 206//105 208//106 205//103
f 208//98 209//98 202//98
f 208//98 202//98 205//98
f 210//98 202//98 209//98
f 202//98 210//98 203//98
f 202//98 203//98 199//98
f 201//1 211//1 207//1
f 201//1 207//1 206//1
f 211//1 201//1 212//1
f 204//1 212//1 201//1
f 204//1 201//1 200//1
f 213//98 214//98 215//98
f 216//1 217//1 218//1
f 219//107 220//108 221//109
f 219//107 221//109 222//109
f 223//110 224//110 220//108
f 223//110 220//108 219//107
f 225//111 222//112 221//112
f 225//111 221//112 226//113
f 226//113 227//102 228//102
f 226//113 228//102 225//111
f 228//98 229//98 222//98
f 228//98 222//98 225//98
f 230//98 222//98 229//98
f 222//98 230//98 223//98
f 222//98 223//98 219//98
f 221//1 231//1 227//1
f 221//1 227//1 226//1
f 231//1 221//1 232//1
f 224//1 232//1 221//1
f 224//1 221//1 220//1
f 233//98 234//98 235//98
f 236//1 237//1 238//1
f 239//114 240//115 241//116
f 239//114 241//116 242//116
f 243//117 244//117 240//115
f 243//117 240//115 239//114
f 245//118 242//119 241//119
f 245//118 241//119 246//120
f 246//120 247//110 248//110
f 246//120 248//110 245//118
f 248//98 249//98 242//98
f 248//98 242//98 245//98
f 250//98 242//98 249//98
f 242//98 250//98 243//98
f 242//98 243//98 239//98
f 241//1 251//1 247//1
f 241//1 247//1 246//1
f 251//1 241//1 252//1
f 244//1 252//1 241//1
f 244//1 241//1 240//1
f 253//98 254//98 255//98
f 256//1 257//1 258//1
f 259//121 260//122 261//123
f 259//121 261//123 262//123
f 263//106 264//106 260//122
f 263//106 260//122 259//121
f 265//124 262//125 261//125
f 265//124 261//125 266//126
f 266//126 267//117 268//117
f 266//126 268//117 265//124
f 268//98 269//98 262//98
f 268//98 262//98 265//98
f 270//98 262//98 269//98
f 262//98 270//98 263//98
f 262//98 263//98 259//98
f 261//1 271//1 267//1
f 261//1 267//1 266//1
f 271//1 261//1 272//1
f 264//1 272//1 261//1
f 264//1 261//1 260//1
f 273//98 274//98 275//98
f 276//98 273//98 275//98
f 277//98 278//98 274//98
f 273//98 277//98 274//98
f 279//98 280//98 278//98
f 277//98 279//98 278//98
f 281//98 282//98 280//98
f 279//98 281//98 280//98
f 283//98 284//98 282//98
f 281//98 283//98 282//98
f 285//98 286//98 284//98
f 283//98 285//98 284//98
f 287//98 288//98 286//98
f 285//98 287//98 286//98
f 289//98 290//98 288//98
f 287//98 289//98 288//98
f 291//98 292//98 290//98
f 289//98 291//98 290//98
f 293//98 294//98 292//98
f 291//98 293//98 292//98
f 295//98 296//98 294//98
f 293//98 295//98 294//98
f 297//98 298//98 296//98
f 295//98 297//98 296//98
f 299//98 300//98 298//98
f 297//98 299//98 298//98
f 301//98 302//98 300//98
f 299//98 301//98 300//98
f 303//98 304//98 302//98
f 301//98 303//98 302//98
f 305//98 306//98 304//98
f 303//98 305//98 304//98
f 307//98 308//98 306//98
f 305//98 307//98 306//98
f 309//98 310//98 308//98
f 307//98 309//98 308//98
f 311//98 312//98 310//98
f 309//98 311//98 310//98
f 313//98 314//98 312//98
f 311//98 313//98 312//98
f 315//98 316//98 314//98
f 313//98 315//98 314//98
f 317//98 318//98 316//98
f 315//98 317//98 316//98
f 319//98 320//98 318//98
f 317//98 319//98 318//98
f 321//98 322//98 320//98
f 319//98 321//98 320//98
f 323//98 324//98 322//98
f 321//98 323//98 322//98
f 325//98 326//98 324//98
f 323//98 325//98 324//98
f 327//98 328//98 326//98
f 325//98 327//98 326//98
f 329//98 330//98 328//98
f 327//98 329//98 328//98
f 331//98 332//98 330//98
f 329//98 331//98 330//98
f 333//98 334//98 332//98
f 331//98 333//98 332//98
f 335//98 336//98 334//98
f 333//98 335//98 334//98
f 337//98 338//98 336//98
f 335//98 337//98 336//98
f 339//98 340//98 338//98
f 337//98 339//98 338//98
f 341//98 342//98 340//98
f 339//98 341//98 340//98
f 343//98 344//98 342//98
f 341//98 343//98 342//98
f 345//98 346//98 344//98
f 343//98 345//98 344//98
f 347//98 348//98 346//98
f 345//98 347//98 346//98
f 349//98 350//98 348//98
f 347//98 349//98 348//98
f 351//98 352//98 350//98
f 349//98 351//98 350//98
f 353//98 354//98 352//98
f 351//98 353//98 352//98
f 355//98 356//98 354//98
f 353//98 355//98 354//98
f 357//98 358//98 356//98
f 355//98 357//98 356//98
f 359//98 360//98 358//98
f 357//98 359//98 358//98
f 361//98 362//98 360//98
f 359//98 361//98 360//98
f 363//98 364//98 362//98
f 361//98 363//98 362//98
f 365//98 366//98 364//98
f 363//98 365//98 364//98
f 367//98 368//98 366//98
f 365//98 367//98 366//98
f 276//98 275//98 368//98
f 367//98 276//98 368//98
f 369//98 370//98 371//98
f 372//98 369//98 371//98
f 373//98 374//98 370//98
f 369//98 373//98 370//98
f 375//98 376//98 374//98
f 373//98 375//98 374//98
f 377//98 378//98 376//98
f 375//98 377//98 376//98
f 379//98 380//98 378//98
f 377//98 379//98 378//98
f 381//98 382//98 380//98
f 379//98 381//98 380//98
f 383//98 384//98 382//98
f 381//98 383//98 382//98
f 385//98 386//98 384//98
f 383//98 385//98 384//98
f 387//98 388//98 386//98
f 385//98 387//98 386//98
f 389//98 390//98 388//98
f 387//98 389//98 388//98
f 391//98 392//98 390//98
f 389//98 391//98 390//98
f 393//98 394//98 392//98
f 391//98 393//98 392//98
f 395//98 396//98 394//98
f 393//98 395//98 394//98
f 397//98 398//98 396//98
f 395//98 397//98 396//98
f 399//98 400//98 398//98
f 397//98 399//98 398//98
f 401//98 402//98 400//98
f 399//98 401//98 400//98
f 403//98 404//98 402//98
f 401//98 403//98 402//98
f 405//98 406//98 404//98
f 403//98 405//98 404//98
f 407//98 408//98 406//98
f 405//98 407//98 406//98
f 409//98 410//98 408//98
f 407//98 409//98 408//98
f 411//98 412//98 410//98
f 409//98 411//98 410//98
f 413//98 414//98 412//98
f 411//98 413//98 412//98
f 415//98 416//98 414//98
f 413//98 415//98 414//98
f 417//98 418//98 416//98
f 415//98 417//98 416//98
f 419//98 420//98 418//98
f 417//98 419//98 418//98
f 421//98 422//98 420//98
f 419//98 421//98 420//98
f 423//98 424//98 422//98
f 421//98 423//98 422//98
f 425//98 426//98 424//98
f 423//98 425//98 424//98
f 427//98 428//98 426//98
f 425//98 427//98 426//98
f 429//98 430//98 428//98
f 427//98 429//98 428//98
f 431//98 432//98 430//98
f 429//98 431//98 430//98
f 433//98 434//98 432//98
f 431//98 433//98 432//98
f 435//98 436//98 434//98
f 433//98 435//98 434//98
f 437//98 438//98 436//98
f 435//98 437//98 436//98
f 439//98 440//98 438//98
f 437//98 439//98 438//98
f 441//98 442//98 440//98
f 439//98 441//98 440//98
f 443//98 444//98 442//98
f 441//98 443//98 442//98
f 445//98 446//98 444//98
f 443//98 445//98 444//98
f 447//98 448//98 446//98
f 445//98 447//98 446//98
f 449//98 450//98 448//98
f 447//98 449//98 448//98
f 451//98 452//98 450//98
f 449//98 451//98 450//98
f 453//98 454//98 452//98
f 451//98 453//98 452//98
f 455//98 456//98 454//98
f 453//98 455//98 454//98
f 457//98 458//98 456//98
f 455//98 457//98 456//98
f 459//98 460//98 458//98
f 457//98 459//98 458//98
f 461//98 462//98 460//98
f 459//98 461//98 460//98
f 463//98 464//98 462//98
f 461//98 463//98 462//98
f 372//98 371//98 464//98
f 463//98 372//98 464//98
f 465//1 466//1 147//1
f 465//1 147//1 145//1
f 466//1 467//1 149//1
f 466//1 149//1 147//1
f 467//1 468//1 151//1
f 467//1 151//1 149//1
f 468//1 469//1 153//1
f 468//1 153//1 151//1
f 469//1 470//1 155//1
f 469//1 155//1 153//1
f 470//1 471//1 157//1
f 470//1 157//1 155//1
f 471//1 472//1 159//1
f 471//1 159//1 157//1
f 472//1 473//1 161//1
f 472//1 161//1 159//1
f 473//1 474//1 163//1
f 473//1 163//1 161//1
f 474//1 475//1 165//1
f 474//1 165//1 163//1
f 475//1 476//1 167//1
f 475//1 167//1 165//1
f 476//1 477//1 169//1
f 476//1 169//1 167//1
f 477//1 478//1 171//1
f 477//1 171//1 169//1
f 478//1 479//1 173//1
f 478//1 173//1 171//1
f 479//1 480//1 175//1
f 479//1 175//1 173//1
f 480//1 481//1 177//1
f 480//1 177//1 175//1
f 481//1 482//1 179//1
f 481//1 179//1 177//1
f 482//1 483//1 181//1
f 482//1 181//1 179//1
f 483//1 484//1 183//1
f 483//1 183//1 181//1
f 484//1 485//1 185//1
f 484//1 185//1 183//1
f 485//1 486//1 187//1
f 485//1 187//1 185//1
f 486//1 487//1 189//1
f 486//1 189//1 187//1
f 487//1 488//1 191//1
f 487//1 191//1 189//1
f 488//1 489//1 100//1
f 488//1 100//1 191//1
f 489//1 490//1 97//1
f 489//1 97//1 100//1
f 490//1 491//1 101//1
f 490//1 101//1 97//1
f 491//1 492//1 103//1
f 491//1 103//1 101//1
f 492//1 493//1 105//1
f 492//1 105//1 103//1
f 493//1 494//1 107//1
f 493//1 107//1 105//1
f 494//1 495//1 109//1
f 494//1 109//1 107//1
f 495//1 496//1 111//1
f 495//1 111//1 109//1
f 496//1 497//1 113//1
f 496//1 113//1 111//1
f 497//1 498//1 115//1
f 497//1 115//1 113//1
f 498//1 499//1 117//1
f 498//1 117//1 115//1
f 499//1 500//1 119//1
f 499//1 119//1 117//1
f 500//1 501//1 121//1
f 500//1 121//1 119//1
f 501//1 502//1 123//1
f 501//1 123//1 121//1
f 502//1 503//1 125//1
f 502//1 125//1 123//1
f 503//1 504//1 127//1
f 503//1 127//1 125//1
f 504//1 505//1 129//1
f 504//1 129//1 127//1
f 505//1 506//1 131//1
f 505//1 131//1 129//1
f 506//1 507//1 133//1
f 506//1 133//1 131//1
f 507//1 508//1 135//1
f 507//1 135//1 133//1
f 508//1 509//1 137//1
f 508//1 137//1 135//1
f 509//1 510//1 139//1
f 509//1 139//1 137//1
f 510//1 511//1 141//1
f 510//1 141//1 139//1
f 511//1 512//1 143//1
f 511//1 143//1 141//1
f 512//1 465//1 145//1
f 512//1 145//1 143//1
f 276//127 513//128 514//129
f 273//130 276//127 514//129
f 273//130 514//129 515//131
f 277//132 273//130 515//131
f 277//132 515//131 516//133
f 279//134 277//132 516//133
f 279//134 516//133 517//135
f 281//136 279//134 517//135
f 281//136 517//135 518//137
f 283//138 281//136 518//137
f 283//138 518//137 519//139
f 285//140 283//138 519//139
f 285//140 519//139 520//141
f 287//142 285//140 520//141
f 287//142 520//141 521//143
f 289//144 287//142 521//143
f 289//144 521//143 522//145
f 291//146 289//144 522//145
f 291//146 522//145 523//147
f 293//148 291//146 523//147
f 293//148 523//147 524//149
f 295//150 293//148 524//149
f 295//150 524//149 525//151
f 297//152 295//150 525//151
f 297//152 525//151 526//153
f 299//154 297//152 526//153
f 299//154 526//153 527//155
f 301//156 299//154 527//155
f 301//156 527//155 528//157
f 303//158 301//156 528//157
f 303//158 528//157 529//159
f 305//160 303//158 529//159
f 305//160 529//159 530//161
f 307//162 305//160 530//161
f 307//162 530//161 531//163
f 309//164 307//162 531//163
f 309//164 531//163 532//165
f 311//166 309//164 532//165
f 311//166 532//165 533//167
f 313//168 311//166 533//167
f 313//168 533//167 534//169
f 315//170 313//168 534//169
f 315//170 534//169 535//171
f 317//172 315//170 535//171
f 317//172 535//171 536//173
f 319//174 317//172 536//173
f 319//174 536//173 537//175
f 321//176 319//174 537//175
f 321//176 537//175 538//177
f 323//178 321//176 538//177
f 323//178 538//177 539//179
f 325//180 323//178 539//179
f 325//180 539//179 540//181
f 327//182 325//180 540//181
f 327//182 540//181 541//183
f 329//184 327//182 541//183
f 329//184 541//183 542//185
f 331//186 329//184 542//185
f 331//186 542//185 543//187
f 333//188 331//186 543//187
f 333//188 543//187 544//189
f 335//190 333//188 544//189
f 335//190 544//189 545//191
f 337//192 335//190 545//191
f 337//192 545//191 546//193
f 339//194 337//192 546//193
f 339//194 546//193 547//195
f 341//196 339//194 547//195
f 341//196 547//195 548//197
f 343//198 341//196 548//197
f 343//198 548//197 549//199
f 345//200 343//198 549//199
f 345//200 549//199 550//201
f 347//202 345//200 550//201
f 347//202 550//201 551//203
f 349//204 347//202 551//203
f 349//204 551//203 552//205
f 351//206 349//204 552//205
f 351//206 552//205 553//207
f 353//208 351//206 553//207
f 353//208 553//207 554//209
f 355//210 353//208 554//209
f 355//210 554//209 555//211
f 357//212 355//210 555//211
f 357//212 555//211 556//213
f 359//214 357//212 556//213
f 359//214 556//213 557//215
f 361//216 359//214 557//215
f 361//216 557//215 558//217
f 363//218 361//216 558//217
f 363//218 558//217 559//219
f 365//220 363//218 559//219
f 365//220 559//219 560//221
f 367//222 365//220 560//221
f 367//222 560//221 513//128
f 276//127 367//222 513//128
f 369//223 372//224 275//225
f 369//223 275//225 274//226
f 373//179 369//223 274//226
f 373//179 274//226 278//227
f 375//228 373//179 278//227
f 375//228 278//227 280//229
f 377//230 375//228 280//229
f 377//230 280//229 282//231
f 379//232 377//230 282//231
f 379//232 282//231 284//233
f 381//234 379//232 284//233
f 381//234 284//233 286//235
f 383//236 381//234 286//235
f 383//236 286//235 288//237
f 385//238 383//236 288//237
f 385//238 288//237 290//239
f 387//240 385//238 290//239
f 387//240 290//239 292//241
f 389//242 387//240 292//241
f 389//242 292//241 294//196
f 391//243 389//242 294//196
f 391//243 294//196 296//244
f 393//245 391//243 296//244
f 393//245 296//244 298//246
f 395//247 393//245 298//246
f 395//247 298//246 300//248
f 397//203 395//247 300//248
f 397//203 300//248 302//249
f 399//250 397//203 302//249
f 399//250 302//249 304//251
f 401//252 399//250 304//251
f 401//252 304//251 306//253
f 403//254 401//252 306//253
f 403//254 306//253 308//255
f 405//256 403//254 308//255
f 405//256 308//255 310//257
f 407//258 405//256 310//257
f 407//258 310//257 312//259
f 409//260 407//258 312//259
f 409//260 312//259 314//261
f 411//262 409//260 314//261
f 411//262 314//261 316//263
f 413//264 411//262 316//263
f 413//264 316//263 318//220
f 415//265 413//264 318//220
f 415//265 318//220 320//266
f 417//267 415//265 320//266
f 417//267 320//266 322//268
f 419//269 417//267 322//268
f 419//269 322//268 324//270
f 421//131 419//269 324//270
f 421//131 324//270 326//271
f 423//272 421//131 326//271
f 423//272 326//271 328//273
f 425//274 423//272 328//273
f 425//274 328//273 330//275
f 427//276 425//274 330//275
f 427//276 330//275 332//277
f 429//278 427//276 332//277
f 429//278 332//277 334//279
f 431//280 429//278 334//279
f 431//280 334//279 336//281
f 433//282 431//280 336//281
f 433//282 336//281 338//283
f 435//284 433//282 338//283
f 435//284 338//283 340//285
f 437//286 435//284 340//285
f 437//286 340//285 342//148
f 439//287 437//286 342//148
f 439//287 342//148 344//288
f 441//289 439//287 344//288
f 441//289 344//288 346//290
f 443//291 441//289 346//290
f 443//291 346//290 348//292
f 445//155 443//291 348//292
f 445//155 348//292 350//293
f 447//294 445//155 350//293
f 447//294 350//293 352//295
f 449//296 447//294 352//295
f 449//296 352//295 354//297
f 451//298 449//296 354//297
f 451//298 354//297 356//299
f 453//300 451//298 356//299
f 453//300 356//299 358//301
f 455//302 453//300 358//301
f 455//302 358//301 360//303
f 457//304 455//302 360//303
f 457//304 360//303 362//305
f 459//306 457//304 362//305
f 459//306 362//305 364//307
f 461//308 459//306 364//307
f 461//308 364//307 366//172
f 463//309 461//308 366//172
f 463//309 366//172 368//310
f 372//224 463//309 368//310
f 372//224 368//310 275//225
f 96//311 3//312 146//51
f 96//311 146//51 148//53
f 94//179 96//311 148//53
f 94//179 148//53 150//55
f 92//313 94//179 150//55
f 92//313 150//55 152//57
f 90//314 92//313 152//57
f 90//314 152//57 154//59
f 88//315 90//314 154//59
f 88//315 154//59 156//61
f 86//316 88//315 156//61
f 86//316 156//61 158//63
f 84//317 86//316 158//63
f 84//317 158//63 160//65
f 82//318 84//317 160//65
f 82//318 160//65 162//67
f 80//319 82//318 162//67
f 80//319 162//67 164//69
f 78//320 80//319 164//69
f 78//320 164//69 166//71
f 76//321 78//320 166//71
f 76//321 166//71 168//73
f 74//322 76//321 168//73
f 74//322 168//73 170//75
f 72//323 74//322 170//75
f 72//323 170//75 172//77
f 70//203 72//323 172//77
f 70//203 172//77 174//79
f 68//324 70//203 174//79
f 68//324 174//79 176//81
f 66//325 68//324 176//81
f 66//325 176//81 178//83
f 64//326 66//325 178//83
f 64//326 178//83 180//85
f 62//327 64//326 180//85
f 62//327 180//85 182//87
f 60//328 62//327 182//87
f 60//328 182//87 184//89
f 58//329 60//328 184//89
f 58//329 184//89 186//91
f 56//330 58//329 186//91
f 56//330 186//91 188//93
f 54//331 56//330 188//93
f 54//331 188//93 190//95
f 52//332 54//331 190//95
f 52//332 190//95 192//97
f 50//333 52//332 192//97
f 50//333 192//97 99//4
f 48//334 50//333 99//4
f 48//334 99//4 98//3
f 46//131 48//334 98//3
f 46//131 98//3 102//7
f 44//335 46//131 102//7
f 44//335 102//7 104//9
f 42//336 44//335 104//9
f 42//336 104//9 106//11
f 40//337 42//336 106//11
f 40//337 106//11 108//13
f 38//338 40//337 108//13
f 38//338 108//13 110//15
f 36//339 38//338 110//15
f 36//339 110//15 112//17
f 34//340 36//339 112//17
f 34//340 112//17 114//19
f 32//341 34//340 114//19
f 32//341 114//19 116//21
f 30//342 32//341 116//21
f 30//342 116//21 118//23
f 28//343 30//342 118//23
f 28//343 118//23 120//25
f 26//344 28//343 120//25
f 26//344 120//25 122//27
f 24//345 26//344 122//27
f 24//345 122//27 124//29
f 22//155 24//345 124//29
f 22//155 124//29 126//31
f 20//346 22//155 126//31
f 20//346 126//31 128//33
f 18//347 20//346 128//33
f 18//347 128//33 130//35
f 16//348 18//347 130//35
f 16//348 130//35 132//37
f 14//349 16//348 132//37
f 14//349 132//37 134//39
f 12//350 14//349 134//39
f 12//350 134//39 136//41
f 10//351 12//350 136//41
f 10//351 136//41 138//43
f 8//352 10//351 138//43
f 8//352 138//43 140//45
f 6//353 8//352 140//45
f 6//353 140//45 142//47
f 2//354 6//353 142//47
f 2//354 142//47 144//49
f 3//312 2//354 144//49
f 3//312 144//49 146//51
f 465//355 371//356 370//357
f 466//358 465//355 370//357
f 466//358 370//357 374//179
f 467//359 466//358 374//179
f 467//359 374//179 376//360
f 468//361 467//359 376//360
f 468//361 376//360 378//362
f 469//363 468//361 378//362
f 469//363 378//362 380//364
f 470//365 469//363 380//364
f 470//365 380//364 382//366
f 471//367 470//365 382//366
f 471//367 382//366 384//368
f 472//369 471//367 384//368
f 472//369 384//368 386//370
f 473//371 472//369 386//370
f 473//371 386//370 388//372
f 474//373 473//371 388//372
f 474//373 388//372 390//374
f 475//196 474//373 390//374
f 475//196 390//374 392//375
f 476//376 475//196 392//375
f 476//376 392//375 394//377
f 477//378 476//376 394//377
f 477//378 394//377 396//379
f 478//380 477//378 396//379
f 478//380 396//379 398//203
f 479//381 478//380 398//203
f 479//381 398//203 400//382
f 480//383 479//381 400//382
f 480//383 400//382 402//384
f 481//385 480//383 402//384
f 481//385 402//384 404//386
f 482//387 481//385 404//386
f 482//387 404//386 406//388
f 483//389 482//387 406//388
f 483//389 406//388 408//390
f 484//391 483//389 408//390
f 484//391 408//390 410//392
f 485//393 484//391 410//392
f 485//393 410//392 412//394
f 486//395 485//393 412//394
f 486//395 412//394 414//396
f 487//220 486//395 414//396
f 487//220 414//396 416//397
f 488//398 487//220 416//397
f 488//398 416//397 418//399
f 489//400 488//398 418//399
f 489//400 418//399 420//401
f 490//402 489//400 420//401
f 490//402 420//401 422//131
f 491//403 490//402 422//131
f 491//403 422//131 424//404
f 492//405 491//403 424//404
f 492//405 424//404 426//406
f 493//407 492//405 426//406
f 493//407 426//406 428//408
f 494//409 493//407 428//408
f 494//409 428//408 430//410
f 495//411 494//409 430//410
f 495//411 430//410 432//412
f 496//413 495//411 432//412
f 496//413 432//412 434//414
f 497//415 496//413 434//414
f 497//415 434//414 436//416
f 498//417 497//415 436//416
f 498//417 436//416 438//418
f 499//148 498//417 438//418
f 499//148 438//418 440//419
f 500//420 499//148 440//419
f 500//420 440//419 442//421
f 501//422 500//420 442//421
f 501//422 442//421 444//423
f 502//424 501//422 444//423
f 502//424 444//423 446//155
f 503//425 502//424 446//155
f 503//425 446//155 448//426
f 504//427 503//425 448//426
f 504//427 448//426 450//428
f 505//429 504//427 450//428
f 505//429 450//428 452//430
f 506//431 505//429 452//430
f 506//431 452//430 454//432
f 507//433 506//431 454//432
f 507//433 454//432 456//434
f 508//435 507//433 456//434
f 508//435 456//434 458//436
f 509//437 508//435 458//436
f 509//437 458//436 460//438
f 510//439 509//437 460//438
f 510//439 460//438 462//440
f 511//172 510//439 462//440
f 511//172 462//440 464//441
f 512//442 511//172 464//441
f 512//442 464//441 371//356
f 465//355 512//442 371//356
f 28//1 561//1 24//1
f 2//1 562//1 96//1
f 76//1 563//1 72//1
f 52//1 564//1 48//1
f 36//1 565//1 32//1
f 16//1 20//1 566//1
f 40//1 44//1 567//1
f 64//1 68//1 568//1
f 88//1 92//1 569//1
f 12//1 570//1 8//1
f 84//1 571//1 80//1
f 60//1 572//1 56//1
f 60//443 184//444 573//445
f 60//443 573//445 574//446
f 180//447 64//448 575//449
f 180//447 575//449 576//450
f 68//451 176//452 577//453
f 68//451 577//453 578//454
f 172//455 72//456 579//457
f 172//455 579//457 580//458
f 76//459 168//460 581//461
f 76//459 581//461 582//462
f 164//463 80//464 583//465
f 164//463 583//465 584//466
f 84//467 160//468 585//469
f 84//467 585//469 586//470
f 156//471 88//472 587//473
f 156//471 587//473 588//474
f 92//475 152//476 589//477
f 92//475 589//477 590//478
f 148//479 96//480 591//481
f 148//479 591//481 592//482
f 2//483 144//484 593//485
f 2//483 593//485 594//486
f 140//487 8//488 595//489
f 140//487 595//489 596//490
f 12//491 136//492 597//493
f 12//491 597//493 598//494
f 132//495 16//496 599//497
f 132//495 599//497 600//498
f 20//499 128//500 601//501
f 20//499 601//501 602//502
f 124//503 24//504 603//505
f 124//503 603//505 604//506
f 28//507 120//508 605//509
f 28//507 605//509 606//510
f 116//511 32//512 607//513
f 116//511 607//513 608//514
f 36//515 112//516 609//517
f 36//515 609//517 610//518
f 108//519 40//520 611//521
f 108//519 611//521 612//522
f 44//523 104//524 613//525
f 44//523 613//525 614//526
f 98//527 48//528 615//529
f 98//527 615//529 616//530
f 52//531 192//532 617//533
f 52//531 617//533 618//534
f 188//535 56//536 619//537
f 188//535 619//537 620//538
f 501//422 603//539 621//110
f 606//540 501//422 621//110
f 497//415 607//541 622//542
f 610//543 497//415 622//542
f 614//544 493//407 623//545
f 493//407 611//546 623//545
f 489//400 615//547 624//102
f 618//548 489//400 624//102
f 485//393 619//549 625//550
f 574//551 485//393 625//550
f 578//552 481//385 626//553
f 481//385 575//554 626//553
f 477//378 579//555 627//106
f 582//556 477//378 627//106
f 473//371 583//557 628//558
f 586//559 473//371 628//558
f 590//560 469//363 629//561
f 469//363 587//562 629//561
f 465//355 591//563 630//117
f 594//564 465//355 630//117
f 509//437 595//565 631//566
f 598//567 509//437 631//566
f 602//568 505//429 632//569
f 505//429 599//570 632//569
f 24//504 621//571 603//505
f 621//572 28//507 606//510
f 32//512 622//573 607//513
f 36//515 610//518 622//574
f 623//575 44//523 614//526
f 40//520 623//576 611//521
f 96//480 630//577 591//481
f 630//578 2//483 594//486
f 8//488 631//579 595//489
f 12//491 598//494 631//580
f 632//581 20//499 602//502
f 16//496 632//582 599//497
f 72//456 627//583 579//457
f 627//584 76//459 582//462
f 80//464 628//585 583//465
f 84//467 586//470 628//586
f 629//587 92//475 590//478
f 88//472 629//588 587//473
f 48//528 624//589 615//529
f 624//590 52//531 618//534
f 56//536 625//591 619//537
f 60//443 574//446 625//592
f 626//593 68//451 578//454
f 64//448 626//594 575//449
f 622//574 565//595 36//515
f 561//596 621//571 24//504
f 28//507 621//572 561//597
f 565//598 622//573 32//512
f 567//599 44//523 623//575
f 623//576 40//520 567//600
f 631//580 570//601 12//491
f 562//602 630//577 96//480
f 2//483 630//578 562//603
f 570//604 631//579 8//488
f 566//605 20//499 632//581
f 632//582 16//496 566//606
f 628//586 571//607 84//467
f 563//608 627//583 72//456
f 76//459 627//584 563//609
f 571//610 628//585 80//464
f 569//611 92//475 629//587
f 629//588 88//472 569//612
f 625//592 572//613 60//443
f 564//614 624//589 48//528
f 52//531 624//590 564//615
f 572//616 625//591 56//536
f 568//617 68//451 626//593
f 626//594 64//448 568//618
f 633//1 634//1 635//1
f 636//98 637//98 638//98
f 639//98 640//98 641//98
f 642//1 643//1 644//1
f 642//619 641//619 645//619
f 642//619 645//619 646//619
f 25//620 549//199 639//621
f 25//620 639//621 644//621
f 636//622 635//622 647//622
f 636//622 647//622 648//622
f 638//102 633//102 635//102
f 638//102 635//102 636//102
f 549//199 25//620 633//623
f 549//199 633//623 638//623
f 644//117 639//117 641//117
f 644//117 641//117 642//117
f 643//1 649//1 644//1
f 640//98 639//98 650//98
f 651//98 652//98 653//98
f 654//1 655//1 656//1
f 643//1 657//1 649//1
f 640//98 650//98 658//98
f 651//98 659//98 652//98
f 654//1 656//1 660//1
f 643//1 661//1 657//1
f 640//98 658//98 662//98
f 651//98 663//98 659//98
f 654//1 660//1 664//1
f 643//1 33//1 661//1
f 640//98 662//98 545//98
f 651//98 541//98 663//98
f 654//1 664//1 41//1
f 643//1 665//1 666//1
f 643//1 666//1 33//1
f 667//98 640//98 545//98
f 667//98 545//98 668//98
f 651//98 667//98 669//98
f 651//98 669//98 541//98
f 665//1 654//1 41//1
f 665//1 41//1 670//1
f 671//1 672//1 673//1
f 671//1 673//1 57//1
f 674//98 675//98 533//98
f 674//98 533//98 676//98
f 677//98 674//98 678//98
f 677//98 678//98 529//98
f 672//1 679//1 65//1
f 672//1 65//1 680//1
f 681//1 682//1 683//1
f 681//1 683//1 81//1
f 684//98 685//98 521//98
f 684//98 521//98 686//98
f 687//98 684//98 688//98
f 687//98 688//98 517//98
f 682//1 689//1 89//1
f 682//1 89//1 690//1
f 691//1 692//1 693//1
f 691//1 693//1 9//1
f 694//98 695//98 557//98
f 694//98 557//98 696//98
f 637//98 694//98 697//98
f 637//98 697//98 553//98
f 692//1 634//1 17//1
f 692//1 17//1 698//1
f 665//1 37//1 666//1
f 543//98 667//98 668//98
f 667//98 543//98 669//98
f 37//1 665//1 670//1
f 655//1 654//1 699//1
f 700//98 651//98 653//98
f 701//98 675//98 702//98
f 703//1 671//1 704//1
f 703//624 702//624 705//624
f 703//624 705//624 706//624
f 49//625 537//175 701//626
f 49//625 701//626 704//626
f 700//627 699//627 707//627
f 700//627 707//627 708//627
f 653//106 655//106 699//106
f 653//106 699//106 700//106
f 537//175 49//625 655//628
f 537//175 655//628 653//628
f 704//110 701//110 702//110
f 704//110 702//110 703//110
f 671//1 709//1 704//1
f 675//98 701//98 710//98
f 677//98 711//98 712//98
f 679//1 713//1 714//1
f 671//1 715//1 709//1
f 675//98 710//98 716//98
f 677//98 717//98 711//98
f 679//1 714//1 718//1
f 671//1 719//1 715//1
f 675//98 716//98 720//98
f 677//98 721//98 717//98
f 679//1 718//1 722//1
f 671//1 57//1 719//1
f 675//98 720//98 533//98
f 677//98 529//98 721//98
f 679//1 722//1 65//1
f 672//1 61//1 673//1
f 531//98 674//98 676//98
f 674//98 531//98 678//98
f 61//1 672//1 680//1
f 713//1 679//1 723//1
f 724//98 677//98 712//98
f 725//98 685//98 726//98
f 727//1 681//1 728//1
f 727//629 726//629 729//629
f 727//629 729//629 730//629
f 73//630 525//151 725//631
f 73//630 725//631 728//631
f 724//632 723//632 731//632
f 724//632 731//632 732//632
f 712//117 713//117 723//117
f 712//117 723//117 724//117
f 525//151 73//630 713//633
f 525//151 713//633 712//633
f 728//102 725//102 726//102
f 728//102 726//102 727//102
f 681//1 733//1 728//1
f 685//98 725//98 734//98
f 687//98 735//98 736//98
f 689//1 737//1 738//1
f 681//1 739//1 733//1
f 685//98 734//98 740//98
f 687//98 741//98 735//98
f 689//1 738//1 742//1
f 681//1 743//1 739//1
f 685//98 740//98 744//98
f 687//98 745//98 741//98
f 689//1 742//1 746//1
f 681//1 81//1 743//1
f 685//98 744//98 521//98
f 687//98 517//98 745//98
f 689//1 746//1 89//1
f 682//1 85//1 683//1
f 519//98 684//98 686//98
f 684//98 519//98 688//98
f 85//1 682//1 690//1
f 737//1 689//1 747//1
f 748//98 687//98 736//98
f 749//98 695//98 750//98
f 751//1 691//1 752//1
f 751//634 750//634 753//634
f 751//634 753//634 754//634
f 4//635 513//128 749//636
f 4//635 749//636 752//636
f 748//637 747//637 755//637
f 748//637 755//637 756//637
f 736//110 737//110 747//110
f 736//110 747//110 748//110
f 513//128 4//635 737//638
f 513//128 737//638 736//638
f 752//106 749//106 750//106
f 752//106 750//106 751//106
f 691//1 757//1 752//1
f 695//98 749//98 758//98
f 637//98 759//98 638//98
f 634//1 633//1 760//1
f 691//1 761//1 757//1
f 695//98 758//98 762//98
f 637//98 763//98 759//98
f 634//1 760//1 764//1
f 691//1 765//1 761//1
f 695//98 762//98 766//98
f 637//98 767//98 763//98
f 634//1 764//1 768//1
f 691//1 9//1 765//1
f 695//98 766//98 557//98
f 637//98 553//98 767//98
f 634//1 768//1 17//1
f 692//1 13//1 693//1
f 555//98 694//98 696//98
f 694//98 555//98 697//98
f 13//1 692//1 698//1
