# Botball Lab: metres, +Y up, centred XZ, base Y=0
s off
v -0.0052246 0.0072000 0.0008435
v -0.0049185 0.0072000 0.0015826
v -0.0040000 0.0072000 0.0014000
v -0.0040000 0.0072000 0.0006000
v -0.0062627 0.0072000 0.0015373
v -0.0056970 0.0072000 0.0021030
v -0.0069565 0.0072000 0.0025754
v -0.0062174 0.0072000 0.0028815
v -0.0072000 0.0072000 0.0038000
v -0.0064000 0.0072000 0.0038000
v -0.0069565 0.0072000 0.0050246
v -0.0062174 0.0072000 0.0047185
v -0.0062627 0.0072000 0.0060627
v -0.0056970 0.0072000 0.0054970
v -0.0052246 0.0072000 0.0067565
v -0.0049185 0.0072000 0.0060174
v -0.0040000 0.0072000 0.0070000
v -0.0040000 0.0072000 0.0062000
v -0.0027754 0.0072000 0.0067565
v -0.0030815 0.0072000 0.0060174
v -0.0017373 0.0072000 0.0060627
v -0.0023030 0.0072000 0.0054970
v -0.0010435 0.0072000 0.0050246
v -0.0017826 0.0072000 0.0047185
v -0.0008000 0.0072000 0.0038000
v -0.0016000 0.0072000 0.0038000
v -0.0010435 0.0072000 0.0025754
v -0.0017826 0.0072000 0.0028815
v -0.0017373 0.0072000 0.0015373
v -0.0023030 0.0072000 0.0021030
v -0.0027754 0.0072000 0.0008435
v -0.0030815 0.0072000 0.0015826
v -0.0010435 0.0080000 0.0025754
v -0.0008000 0.0080000 0.0038000
v -0.0017373 0.0080000 0.0015373
v -0.0027754 0.0080000 0.0008435
v -0.0040000 0.0080000 0.0006000
v -0.0052246 0.0080000 0.0008435
v -0.0062627 0.0080000 0.0015373
v -0.0069565 0.0080000 0.0025754
v -0.0072000 0.0080000 0.0038000
v -0.0069565 0.0080000 0.0050246
v -0.0062627 0.0080000 0.0060627
v -0.0052246 0.0080000 0.0067565
v -0.0040000 0.0080000 0.0070000
v -0.0027754 0.0080000 0.0067565
v -0.0017373 0.0080000 0.0060627
v -0.0010435 0.0080000 0.0050246
v -0.0052246 0.0008000 0.0067565
v -0.0049185 0.0008000 0.0060174
v -0.0040000 0.0008000 0.0062000
v -0.0040000 0.0008000 0.0070000
v -0.0062627 0.0008000 0.0060627
v -0.0056970 0.0008000 0.0054970
v -0.0069565 0.0008000 0.0050246
v -0.0062174 0.0008000 0.0047185
v -0.0072000 0.0008000 0.0038000
v -0.0064000 0.0008000 0.0038000
v -0.0069565 0.0008000 0.0025754
v -0.0062174 0.0008000 0.0028815
v -0.0062627 0.0008000 0.0015373
v -0.0056970 0.0008000 0.0021030
v -0.0052246 0.0008000 0.0008435
v -0.0049185 0.0008000 0.0015826
v -0.0040000 0.0008000 0.0006000
v -0.0040000 0.0008000 0.0014000
v -0.0027754 0.0008000 0.0008435
v -0.0030815 0.0008000 0.0015826
v -0.0017373 0.0008000 0.0015373
v -0.0023030 0.0008000 0.0021030
v -0.0010435 0.0008000 0.0025754
v -0.0017826 0.0008000 0.0028815
v -0.0008000 0.0008000 0.0038000
v -0.0016000 0.0008000 0.0038000
v -0.0010435 0.0008000 0.0050246
v -0.0017826 0.0008000 0.0047185
v -0.0017373 0.0008000 0.0060627
v -0.0023030 0.0008000 0.0054970
v -0.0027754 0.0008000 0.0067565
v -0.0030815 0.0008000 0.0060174
v -0.0010435 0.0000000 0.0050246
v -0.0008000 0.0000000 0.0038000
v -0.0017373 0.0000000 0.0060627
v -0.0027754 0.0000000 0.0067565
v -0.0040000 0.0000000 0.0070000
v -0.0052246 0.0000000 0.0067565
v -0.0062627 0.0000000 0.0060627
v -0.0069565 0.0000000 0.0050246
v -0.0072000 0.0000000 0.0038000
v -0.0069565 0.0000000 0.0025754
v -0.0062627 0.0000000 0.0015373
v -0.0052246 0.0000000 0.0008435
v -0.0040000 0.0000000 0.0006000
v -0.0027754 0.0000000 0.0008435
v -0.0017373 0.0000000 0.0015373
v -0.0010435 0.0000000 0.0025754
v -0.0076956 0.0000000 0.0053308
v -0.0076956 0.0080000 0.0053308
v -0.0080000 0.0080000 0.0038000
v -0.0080000 0.0000000 0.0038000
v -0.0068284 0.0000000 0.0066284
v -0.0068284 0.0080000 0.0066284
v -0.0055308 0.0000000 0.0074956
v -0.0055308 0.0080000 0.0074956
v -0.0040000 0.0000000 0.0078000
v -0.0040000 0.0080000 0.0078000
v -0.0024692 0.0000000 0.0074956
v -0.0024692 0.0080000 0.0074956
v -0.0011716 0.0000000 0.0066284
v -0.0011716 0.0080000 0.0066284
v -0.0003044 0.0000000 0.0053308
v -0.0003044 0.0080000 0.0053308
v 0.0000000 0.0000000 0.0038000
v 0.0000000 0.0080000 0.0038000
v -0.0003044 0.0000000 0.0022692
v -0.0003044 0.0080000 0.0022692
v -0.0011716 0.0000000 0.0009716
v -0.0011716 0.0080000 0.0009716
v -0.0024692 0.0000000 0.0001044
v -0.0024692 0.0080000 0.0001044
v -0.0040000 0.0000000 -0.0002000
v -0.0040000 0.0080000 -0.0002000
v 0.0017826 0.0072000 0.0047185
v 0.0017826 0.0008000 0.0047185
v 0.0016000 0.0008000 0.0038000
v 0.0016000 0.0072000 0.0038000
v 0.0023030 0.0072000 0.0054970
v 0.0023030 0.0008000 0.0054970
v 0.0030815 0.0072000 0.0060174
v 0.0030815 0.0008000 0.0060174
v 0.0040000 0.0072000 0.0062000
v 0.0040000 0.0008000 0.0062000
v 0.0049185 0.0072000 0.0060174
v 0.0049185 0.0008000 0.0060174
v 0.0056970 0.0072000 0.0054970
v 0.0056970 0.0008000 0.0054970
v 0.0062174 0.0072000 0.0047185
v 0.0062174 0.0008000 0.0047185
v 0.0064000 0.0072000 0.0038000
v 0.0064000 0.0008000 0.0038000
v 0.0062174 0.0072000 0.0028815
v 0.0062174 0.0008000 0.0028815
v 0.0056970 0.0072000 0.0021030
v 0.0056970 0.0008000 0.0021030
v 0.0049185 0.0072000 0.0015826
v 0.0049185 0.0008000 0.0015826
v 0.0040000 0.0072000 0.0014000
v 0.0040000 0.0008000 0.0014000
v 0.0030815 0.0072000 0.0015826
v 0.0030815 0.0008000 0.0015826
v 0.0023030 0.0072000 0.0021030
v 0.0023030 0.0008000 0.0021030
v 0.0017826 0.0072000 0.0028815
v 0.0017826 0.0008000 0.0028815
v -0.0055308 0.0080000 0.0001044
v -0.0068284 0.0080000 0.0009716
v -0.0076956 0.0080000 0.0022692
v -0.0055308 0.0000000 0.0001044
v -0.0068284 0.0000000 0.0009716
v -0.0076956 0.0000000 0.0022692
v 0.0027754 0.0072000 0.0008435
v 0.0040000 0.0072000 0.0006000
v 0.0017373 0.0072000 0.0015373
v 0.0010435 0.0072000 0.0025754
v 0.0008000 0.0072000 0.0038000
v 0.0010435 0.0072000 0.0050246
v 0.0017373 0.0072000 0.0060627
v 0.0027754 0.0072000 0.0067565
v 0.0040000 0.0072000 0.0070000
v 0.0052246 0.0072000 0.0067565
v 0.0062627 0.0072000 0.0060627
v 0.0069565 0.0072000 0.0050246
v 0.0072000 0.0072000 0.0038000
v 0.0069565 0.0072000 0.0025754
v 0.0062627 0.0072000 0.0015373
v 0.0052246 0.0072000 0.0008435
v 0.0069565 0.0080000 0.0025754
v 0.0072000 0.0080000 0.0038000
v 0.0062627 0.0080000 0.0015373
v 0.0052246 0.0080000 0.0008435
v 0.0040000 0.0080000 0.0006000
v 0.0027754 0.0080000 0.0008435
v 0.0017373 0.0080000 0.0015373
v 0.0010435 0.0080000 0.0025754
v 0.0008000 0.0080000 0.0038000
v 0.0010435 0.0080000 0.0050246
v 0.0017373 0.0080000 0.0060627
v 0.0027754 0.0080000 0.0067565
v 0.0040000 0.0080000 0.0070000
v 0.0052246 0.0080000 0.0067565
v 0.0062627 0.0080000 0.0060627
v 0.0069565 0.0080000 0.0050246
v 0.0027754 0.0008000 0.0067565
v 0.0040000 0.0008000 0.0070000
v 0.0017373 0.0008000 0.0060627
v 0.0010435 0.0008000 0.0050246
v 0.0008000 0.0008000 0.0038000
v 0.0010435 0.0008000 0.0025754
v 0.0017373 0.0008000 0.0015373
v 0.0027754 0.0008000 0.0008435
v 0.0040000 0.0008000 0.0006000
v 0.0052246 0.0008000 0.0008435
v 0.0062627 0.0008000 0.0015373
v 0.0069565 0.0008000 0.0025754
v 0.0072000 0.0008000 0.0038000
v 0.0069565 0.0008000 0.0050246
v 0.0062627 0.0008000 0.0060627
v 0.0052246 0.0008000 0.0067565
v 0.0069565 0.0000000 0.0050246
v 0.0072000 0.0000000 0.0038000
v 0.0062627 0.0000000 0.0060627
v 0.0052246 0.0000000 0.0067565
v 0.0040000 0.0000000 0.0070000
v 0.0027754 0.0000000 0.0067565
v 0.0017373 0.0000000 0.0060627
v 0.0010435 0.0000000 0.0050246
v 0.0008000 0.0000000 0.0038000
v 0.0010435 0.0000000 0.0025754
v 0.0017373 0.0000000 0.0015373
v 0.0027754 0.0000000 0.0008435
v 0.0040000 0.0000000 0.0006000
v 0.0052246 0.0000000 0.0008435
v 0.0062627 0.0000000 0.0015373
v 0.0069565 0.0000000 0.0025754
v 0.0076956 0.0080000 0.0053308
v 0.0076956 0.0000000 0.0053308
v 0.0080000 0.0000000 0.0038000
v 0.0080000 0.0080000 0.0038000
v 0.0068284 0.0080000 0.0066284
v 0.0068284 0.0000000 0.0066284
v 0.0055308 0.0080000 0.0074956
v 0.0055308 0.0000000 0.0074956
v 0.0040000 0.0080000 0.0078000
v 0.0040000 0.0000000 0.0078000
v 0.0024692 0.0080000 0.0074956
v 0.0024692 0.0000000 0.0074956
v 0.0011716 0.0080000 0.0066284
v 0.0011716 0.0000000 0.0066284
v 0.0003044 0.0080000 0.0053308
v 0.0003044 0.0000000 0.0053308
v 0.0003044 0.0080000 0.0022692
v 0.0003044 0.0000000 0.0022692
v 0.0011716 0.0080000 0.0009716
v 0.0011716 0.0000000 0.0009716
v 0.0024692 0.0080000 0.0001044
v 0.0024692 0.0000000 0.0001044
v 0.0040000 0.0080000 -0.0002000
v 0.0040000 0.0000000 -0.0002000
v 0.0080000 0.0076000 0.0038000
v 0.0076956 0.0076000 0.0022692
v 0.0076956 0.0080000 0.0022692
v 0.0068284 0.0076000 0.0009716
v 0.0068284 0.0080000 0.0009716
v 0.0055308 0.0076000 0.0001044
v 0.0055308 0.0080000 0.0001044
v 0.0040000 0.0076000 -0.0002000
v 0.0076956 0.0000000 0.0022692
v 0.0076956 0.0004000 0.0022692
v 0.0080000 0.0004000 0.0038000
v 0.0068284 0.0000000 0.0009716
v 0.0068284 0.0004000 0.0009716
v 0.0055308 0.0000000 0.0001044
v 0.0055308 0.0004000 0.0001044
v 0.0040000 0.0004000 -0.0002000
v -0.0040000 0.0076000 -0.0002000
v -0.0055308 0.0076000 0.0001044
v -0.0068284 0.0076000 0.0009716
v -0.0076956 0.0076000 0.0022692
v -0.0080000 0.0076000 0.0038000
v -0.0055308 0.0004000 0.0001044
v -0.0040000 0.0004000 -0.0002000
v -0.0068284 0.0004000 0.0009716
v -0.0076956 0.0004000 0.0022692
v -0.0080000 0.0004000 0.0038000
v 0.0024692 0.0048000 0.0001044
v 0.0040000 0.0048000 -0.0002000
v 0.0000000 0.0048000 -0.0002000
v 0.0011716 0.0048000 0.0009716
v 0.0003044 0.0048000 0.0022692
v 0.0000000 0.0048000 0.0038000
v 0.0003044 0.0048000 0.0053308
v 0.0000000 0.0048000 0.0078000
v 0.0011716 0.0048000 0.0066284
v 0.0024692 0.0048000 0.0074956
v 0.0040000 0.0048000 0.0078000
v 0.0000000 0.0032000 -0.0002000
v 0.0040000 0.0032000 -0.0002000
v 0.0024692 0.0032000 0.0001044
v 0.0011716 0.0032000 0.0009716
v 0.0003044 0.0032000 0.0022692
v 0.0000000 0.0032000 0.0038000
v 0.0000000 0.0032000 0.0078000
v 0.0003044 0.0032000 0.0053308
v 0.0011716 0.0032000 0.0066284
v 0.0024692 0.0032000 0.0074956
v 0.0040000 0.0032000 0.0078000
v -0.0024692 0.0048000 0.0074956
v -0.0040000 0.0048000 0.0078000
v -0.0011716 0.0048000 0.0066284
v -0.0003044 0.0048000 0.0053308
v -0.0003044 0.0048000 0.0022692
v -0.0011716 0.0048000 0.0009716
v -0.0024692 0.0048000 0.0001044
v -0.0040000 0.0048000 -0.0002000
v -0.0040000 0.0032000 0.0078000
v -0.0024692 0.0032000 0.0074956
v -0.0011716 0.0032000 0.0066284
v -0.0003044 0.0032000 0.0053308
v -0.0003044 0.0032000 0.0022692
v -0.0011716 0.0032000 0.0009716
v -0.0024692 0.0032000 0.0001044
v -0.0040000 0.0032000 -0.0002000
v -0.0080000 0.0004000 -0.0002000
v -0.0080000 0.0076000 -0.0002000
v 0.0080000 0.0004000 -0.0002000
v 0.0080000 0.0076000 -0.0002000
v -0.0040000 0.0076000 -0.0042000
v -0.0080000 0.0076000 -0.0042000
v -0.0080000 0.0004000 -0.0042000
v -0.0040000 0.0004000 -0.0042000
v -0.0080000 0.0006740 -0.0055777
v -0.0040000 0.0006740 -0.0055777
v -0.0080000 0.0014544 -0.0067456
v -0.0040000 0.0014544 -0.0067456
v -0.0080000 0.0026223 -0.0075260
v -0.0040000 0.0026223 -0.0075260
v -0.0080000 0.0040000 -0.0078000
v -0.0040000 0.0040000 -0.0078000
v -0.0080000 0.0053777 -0.0075260
v -0.0040000 0.0053777 -0.0075260
v -0.0080000 0.0065456 -0.0067456
v -0.0040000 0.0065456 -0.0067456
v -0.0080000 0.0073260 -0.0055777
v -0.0040000 0.0073260 -0.0055777
v 0.0040000 0.0006740 -0.0055777
v 0.0080000 0.0006740 -0.0055777
v 0.0080000 0.0004000 -0.0042000
v 0.0040000 0.0004000 -0.0042000
v 0.0040000 0.0014544 -0.0067456
v 0.0080000 0.0014544 -0.0067456
v 0.0040000 0.0026223 -0.0075260
v 0.0080000 0.0026223 -0.0075260
v 0.0040000 0.0040000 -0.0078000
v 0.0080000 0.0040000 -0.0078000
v 0.0040000 0.0053777 -0.0075260
v 0.0080000 0.0053777 -0.0075260
v 0.0040000 0.0065456 -0.0067456
v 0.0080000 0.0065456 -0.0067456
v 0.0040000 0.0073260 -0.0055777
v 0.0080000 0.0073260 -0.0055777
v 0.0040000 0.0076000 -0.0042000
v 0.0080000 0.0076000 -0.0042000
v 0.0080000 0.0062173 -0.0032816
v 0.0080000 0.0056971 -0.0025029
v 0.0080000 0.0049184 -0.0019827
v 0.0080000 0.0030816 -0.0019827
v 0.0080000 0.0023029 -0.0025029
v 0.0080000 0.0017827 -0.0032816
v 0.0080000 0.0017827 -0.0051184
v 0.0080000 0.0023029 -0.0058971
v 0.0080000 0.0030816 -0.0064173
v 0.0080000 0.0049184 -0.0064173
v 0.0080000 0.0056971 -0.0058971
v 0.0080000 0.0062173 -0.0051184
v 0.0080000 0.0050000 -0.0032000
v 0.0080000 0.0056000 -0.0034000
v 0.0080000 0.0062409 -0.0034000
v 0.0080000 0.0048000 -0.0026000
v 0.0080000 0.0048000 -0.0019591
v 0.0080000 0.0030000 -0.0032000
v 0.0080000 0.0032000 -0.0026000
v 0.0080000 0.0032000 -0.0019591
v 0.0080000 0.0017591 -0.0034000
v 0.0080000 0.0024000 -0.0034000
v 0.0080000 0.0024000 -0.0050000
v 0.0080000 0.0017591 -0.0050000
v 0.0080000 0.0030000 -0.0052000
v 0.0080000 0.0032000 -0.0064409
v 0.0080000 0.0032000 -0.0058000
v 0.0080000 0.0050000 -0.0052000
v 0.0080000 0.0048000 -0.0064409
v 0.0080000 0.0048000 -0.0058000
v 0.0080000 0.0056000 -0.0050000
v 0.0080000 0.0062409 -0.0050000
v 0.0040000 0.0062173 -0.0051184
v 0.0040000 0.0056971 -0.0058971
v 0.0040000 0.0049184 -0.0064173
v 0.0040000 0.0030816 -0.0064173
v 0.0040000 0.0023029 -0.0058971
v 0.0040000 0.0017827 -0.0051184
v 0.0040000 0.0017827 -0.0032816
v 0.0040000 0.0023029 -0.0025029
v 0.0040000 0.0030816 -0.0019827
v 0.0040000 0.0049184 -0.0019827
v 0.0040000 0.0056971 -0.0025029
v 0.0040000 0.0062173 -0.0032816
v 0.0040000 0.0050000 -0.0052000
v 0.0040000 0.0056000 -0.0050000
v 0.0040000 0.0062409 -0.0050000
v 0.0040000 0.0048000 -0.0058000
v 0.0040000 0.0048000 -0.0064409
v 0.0040000 0.0030000 -0.0052000
v 0.0040000 0.0032000 -0.0058000
v 0.0040000 0.0032000 -0.0064409
v 0.0040000 0.0017591 -0.0050000
v 0.0040000 0.0024000 -0.0050000
v 0.0040000 0.0024000 -0.0034000
v 0.0040000 0.0017591 -0.0034000
v 0.0040000 0.0030000 -0.0032000
v 0.0040000 0.0032000 -0.0019591
v 0.0040000 0.0032000 -0.0026000
v 0.0040000 0.0050000 -0.0032000
v 0.0040000 0.0048000 -0.0019591
v 0.0040000 0.0048000 -0.0026000
v 0.0040000 0.0056000 -0.0034000
v 0.0040000 0.0062409 -0.0034000
v 0.0040000 0.0064000 -0.0042000
v 0.0080000 0.0064000 -0.0042000
v 0.0080000 0.0016000 -0.0042000
v 0.0040000 0.0016000 -0.0042000
v 0.0080000 0.0040000 -0.0066000
v 0.0040000 0.0040000 -0.0066000
v -0.0040000 0.0062173 -0.0032816
v -0.0040000 0.0056971 -0.0025029
v -0.0040000 0.0049184 -0.0019827
v -0.0040000 0.0030816 -0.0019827
v -0.0040000 0.0023029 -0.0025029
v -0.0040000 0.0017827 -0.0032816
v -0.0040000 0.0017827 -0.0051184
v -0.0040000 0.0023029 -0.0058971
v -0.0040000 0.0030816 -0.0064173
v -0.0040000 0.0049184 -0.0064173
v -0.0040000 0.0056971 -0.0058971
v -0.0040000 0.0062173 -0.0051184
v -0.0040000 0.0050000 -0.0032000
v -0.0040000 0.0056000 -0.0034000
v -0.0040000 0.0062409 -0.0034000
v -0.0040000 0.0048000 -0.0026000
v -0.0040000 0.0048000 -0.0019591
v -0.0040000 0.0030000 -0.0032000
v -0.0040000 0.0032000 -0.0026000
v -0.0040000 0.0032000 -0.0019591
v -0.0040000 0.0017591 -0.0034000
v -0.0040000 0.0024000 -0.0034000
v -0.0040000 0.0024000 -0.0050000
v -0.0040000 0.0017591 -0.0050000
v -0.0040000 0.0030000 -0.0052000
v -0.0040000 0.0032000 -0.0064409
v -0.0040000 0.0032000 -0.0058000
v -0.0040000 0.0050000 -0.0052000
v -0.0040000 0.0048000 -0.0064409
v -0.0040000 0.0048000 -0.0058000
v -0.0040000 0.0056000 -0.0050000
v -0.0040000 0.0062409 -0.0050000
v -0.0080000 0.0062173 -0.0051184
v -0.0080000 0.0056971 -0.0058971
v -0.0080000 0.0049184 -0.0064173
v -0.0080000 0.0030816 -0.0064173
v -0.0080000 0.0023029 -0.0058971
v -0.0080000 0.0017827 -0.0051184
v -0.0080000 0.0017827 -0.0032816
v -0.0080000 0.0023029 -0.0025029
v -0.0080000 0.0030816 -0.0019827
v -0.0080000 0.0049184 -0.0019827
v -0.0080000 0.0056971 -0.0025029
v -0.0080000 0.0062173 -0.0032816
v -0.0080000 0.0050000 -0.0052000
v -0.0080000 0.0056000 -0.0050000
v -0.0080000 0.0062409 -0.0050000
v -0.0080000 0.0048000 -0.0058000
v -0.0080000 0.0048000 -0.0064409
v -0.0080000 0.0030000 -0.0052000
v -0.0080000 0.0032000 -0.0058000
v -0.0080000 0.0032000 -0.0064409
v -0.0080000 0.0017591 -0.0050000
v -0.0080000 0.0024000 -0.0050000
v -0.0080000 0.0024000 -0.0034000
v -0.0080000 0.0017591 -0.0034000
v -0.0080000 0.0030000 -0.0032000
v -0.0080000 0.0032000 -0.0019591
v -0.0080000 0.0032000 -0.0026000
v -0.0080000 0.0050000 -0.0032000
v -0.0080000 0.0048000 -0.0019591
v -0.0080000 0.0048000 -0.0026000
v -0.0080000 0.0056000 -0.0034000
v -0.0080000 0.0062409 -0.0034000
v -0.0080000 0.0064000 -0.0042000
v -0.0040000 0.0064000 -0.0042000
v -0.0040000 0.0016000 -0.0042000
v -0.0080000 0.0016000 -0.0042000
v -0.0040000 0.0040000 -0.0066000
v -0.0080000 0.0040000 -0.0066000
v -0.0040000 0.0017826 -0.0051185
v -0.0040000 0.0023030 -0.0058970
v -0.0040000 0.0030815 -0.0064174
v -0.0040000 0.0049185 -0.0064174
v -0.0040000 0.0056970 -0.0058970
v -0.0040000 0.0062174 -0.0051185
v -0.0080000 0.0017826 -0.0051185
v -0.0080000 0.0023030 -0.0058970
v -0.0080000 0.0030815 -0.0064174
v -0.0080000 0.0049185 -0.0064174
v -0.0080000 0.0056970 -0.0058970
v -0.0080000 0.0062174 -0.0051185
v 0.0080000 0.0017826 -0.0051185
v 0.0080000 0.0023030 -0.0058970
v 0.0080000 0.0030815 -0.0064174
v 0.0080000 0.0049185 -0.0064174
v 0.0080000 0.0056970 -0.0058970
v 0.0080000 0.0062174 -0.0051185
v 0.0040000 0.0017826 -0.0051185
v 0.0040000 0.0023030 -0.0058970
v 0.0040000 0.0030815 -0.0064174
v 0.0040000 0.0049185 -0.0064174
v 0.0040000 0.0056970 -0.0058970
v 0.0040000 0.0062174 -0.0051185
v 0.0040000 0.0024000 -0.0011680
v 0.0040000 0.0056000 -0.0011680
v 0.0080000 0.0056000 -0.0011680
v 0.0080000 0.0024000 -0.0011680
v 0.0040000 0.0056000 -0.0019680
v 0.0080000 0.0056000 -0.0019680
v 0.0080000 0.0024000 -0.0019680
v 0.0040000 0.0024000 -0.0019680
v -0.0040000 0.0024000 -0.0011680
v -0.0080000 0.0024000 -0.0011680
v -0.0080000 0.0056000 -0.0011680
v -0.0040000 0.0056000 -0.0011680
v -0.0040000 0.0024000 -0.0019680
v -0.0080000 0.0024000 -0.0019680
v -0.0080000 0.0056000 -0.0019680
v -0.0040000 0.0056000 -0.0019680
v 0.0080000 0.0064000 -0.0019680
v 0.0080000 0.0062160 -0.0032800
v 0.0080000 0.0056960 -0.0025040
v 0.0080000 0.0049200 -0.0019840
v 0.0080000 0.0048000 -0.0019680
v 0.0080000 0.0030800 -0.0019840
v 0.0080000 0.0016000 -0.0019680
v 0.0080000 0.0023040 -0.0025040
v 0.0080000 0.0032000 -0.0019680
v 0.0080000 0.0017840 -0.0032800
v 0.0040000 0.0064000 -0.0019680
v 0.0040000 0.0062160 -0.0032800
v 0.0040000 0.0056960 -0.0025040
v 0.0040000 0.0049200 -0.0019840
v 0.0040000 0.0048000 -0.0019680
v 0.0040000 0.0016000 -0.0019680
v 0.0040000 0.0030800 -0.0019840
v 0.0040000 0.0023040 -0.0025040
v 0.0040000 0.0032000 -0.0019680
v 0.0040000 0.0017840 -0.0032800
v -0.0040000 0.0064000 -0.0019680
v -0.0040000 0.0062160 -0.0032800
v -0.0040000 0.0056960 -0.0025040
v -0.0040000 0.0049200 -0.0019840
v -0.0040000 0.0048000 -0.0019680
v -0.0040000 0.0030800 -0.0019840
v -0.0040000 0.0016000 -0.0019680
v -0.0040000 0.0023040 -0.0025040
v -0.0040000 0.0032000 -0.0019680
v -0.0040000 0.0017840 -0.0032800
v -0.0080000 0.0064000 -0.0019680
v -0.0080000 0.0062160 -0.0032800
v -0.0080000 0.0056960 -0.0025040
v -0.0080000 0.0049200 -0.0019840
v -0.0080000 0.0048000 -0.0019680
v -0.0080000 0.0016000 -0.0019680
v -0.0080000 0.0030800 -0.0019840
v -0.0080000 0.0023040 -0.0025040
v -0.0080000 0.0032000 -0.0019680
v -0.0080000 0.0017840 -0.0032800
v -0.0080000 0.0064000 -0.0011680
v -0.0080000 0.0016000 -0.0011680
v -0.0040000 0.0016000 -0.0011680
v -0.0040000 0.0064000 -0.0011680
v 0.0040000 0.0064000 -0.0011680
v 0.0040000 0.0016000 -0.0011680
v 0.0080000 0.0064000 -0.0011680
v 0.0080000 0.0016000 -0.0011680
v -0.0001600 0.0048000 0.0030000
v -0.0001600 0.0080000 0.0030000
v 0.0001600 0.0080000 0.0030000
v 0.0001600 0.0048000 0.0030000
v -0.0001600 0.0000000 0.0030000
v -0.0001600 0.0032000 0.0030000
v 0.0001600 0.0032000 0.0030000
v 0.0001600 0.0000000 0.0030000
v 0.0001600 0.0080000 0.0046000
v -0.0001600 0.0080000 0.0046000
v -0.0001600 0.0048000 0.0046000
v 0.0001600 0.0048000 0.0046000
v 0.0001600 0.0032000 0.0046000
v -0.0001600 0.0032000 0.0046000
v -0.0001600 0.0000000 0.0046000
v 0.0001600 0.0000000 0.0046000
vn 0.0 1.0 0.0
vn -0.9471761 0.0 0.3207139
vn -0.8965142 0.0 0.4430151
vn -0.9978107 0.0 0.066135
vn -0.9978107 0.0 -0.066135
vn -0.7523142 0.0 0.6588045
vn -0.6588045 0.0 0.7523142
vn -0.4430151 0.0 0.8965142
vn -0.3207139 0.0 0.9471761
vn -0.066135 0.0 0.9978107
vn 0.066135 0.0 0.9978107
vn 0.3207139 0.0 0.9471761
vn 0.4430151 0.0 0.8965142
vn 0.6588045 0.0 0.7523142
vn 0.7523142 0.0 0.6588045
vn 0.8965142 0.0 0.4430151
vn 0.9471761 0.0 0.3207139
vn 0.9978107 0.0 0.066135
vn 0.9978107 0.0 -0.066135
vn 0.9471761 0.0 -0.3207139
vn 0.8965142 0.0 -0.4430151
vn 0.7523142 0.0 -0.6588045
vn 0.6588045 0.0 -0.7523142
vn 0.4430151 0.0 -0.8965142
vn 0.3207139 0.0 -0.9471761
vn 0.066135 0.0 -0.9978107
vn -0.066135 0.0 -0.9978107
vn -0.3207139 0.0 -0.9471761
vn -0.4430151 0.0 -0.8965142
vn -0.6588045 0.0 -0.7523142
vn -0.7523142 0.0 -0.6588045
vn -0.8965142 0.0 -0.4430151
vn -0.9471761 0.0 -0.3207139
vn 0.0 -1.0 0.0
vn -0.9471778 0.0 0.3207089
vn -0.8965206 0.0 0.443002
vn -0.9841984 0.0 0.1770693
vn -0.7523182 0.0 0.6587999
vn -0.6587999 0.0 0.7523182
vn -0.443002 0.0 0.8965206
vn -0.3207089 0.0 0.9471778
vn -0.0661383 0.0 0.9978105
vn 0.0661383 0.0 0.9978105
vn 0.3207089 0.0 0.9471778
vn 0.443002 0.0 0.8965206
vn 0.6587999 0.0 0.7523182
vn 0.7523182 0.0 0.6587999
vn 0.8965206 0.0 0.443002
vn 0.9471778 0.0 0.3207089
vn 0.9978105 0.0 0.0661383
vn 0.9978105 0.0 -0.0661383
vn 0.9471778 0.0 -0.3207089
vn 0.8965206 0.0 -0.443002
vn 0.7523182 0.0 -0.6587999
vn 0.6587999 0.0 -0.7523182
vn 0.443002 0.0 -0.8965206
vn 0.3207089 0.0 -0.9471778
vn 0.1770693 0.0 -0.9841984
vn 0.947177 0.0 -0.3207111
vn 0.8964963 0.0 -0.4430513
vn 0.9978115 0.0 -0.0661224
vn 0.9978115 0.0 0.0661224
vn 0.752294 0.0 -0.6588276
vn 0.6588276 0.0 -0.752294
vn 0.4430513 0.0 -0.8964963
vn 0.3207111 0.0 -0.947177
vn 0.0661224 0.0 -0.9978115
vn -0.0661224 0.0 -0.9978115
vn -0.3207111 0.0 -0.947177
vn -0.4430513 0.0 -0.8964963
vn -0.6588276 0.0 -0.752294
vn -0.752294 0.0 -0.6588276
vn -0.8964963 0.0 -0.4430513
vn -0.947177 0.0 -0.3207111
vn -0.9978115 0.0 -0.0661224
vn -0.9978115 0.0 0.0661224
vn -0.947177 0.0 0.3207111
vn -0.8964963 0.0 0.4430513
vn -0.752294 0.0 0.6588276
vn -0.6588276 0.0 0.752294
vn -0.4430513 0.0 0.8964963
vn -0.3207111 0.0 0.947177
vn -0.0661224 0.0 0.9978115
vn 0.0661224 0.0 0.9978115
vn 0.3207111 0.0 0.947177
vn 0.4430513 0.0 0.8964963
vn 0.6588276 0.0 0.752294
vn 0.752294 0.0 0.6588276
vn 0.8964963 0.0 0.4430513
vn 0.947177 0.0 0.3207111
vn 0.9841984 0.0 0.1770693
vn -0.9978105 0.0 0.0661383
vn -0.9978105 0.0 -0.0661383
vn -0.9471778 0.0 -0.3207089
vn -0.8965206 0.0 -0.443002
vn -0.7523182 0.0 -0.6587999
vn -0.6587999 0.0 -0.7523182
vn -0.443002 0.0 -0.8965206
vn -0.3207089 0.0 -0.9471778
vn -0.1770693 0.0 -0.9841984
vn 0.9999946 0.0 -0.0032873
vn 0.1950317 0.0 -0.9807969
vn 0.9999965 0.0 -0.002648
vn -0.1950317 0.0 -0.9807969
vn -0.9999965 0.0 -0.002648
vn -0.9999946 0.0 -0.0032873
vn 0.0 0.9995734 -0.0292058
vn 0.0 0.9967259 -0.0808547
vn 0.0 -0.9995734 -0.0292058
vn 0.0 -0.9967259 -0.0808547
vn 0.0 -0.9471783 -0.3207075
vn 0.0 -0.8965369 -0.4429691
vn 0.0 -0.7523344 -0.6587815
vn 0.0 -0.6587815 -0.7523344
vn 0.0 -0.4429691 -0.8965369
vn 0.0 -0.3207075 -0.9471783
vn 0.0 -0.0661489 -0.9978098
vn 0.0 0.0661489 -0.9978098
vn 0.0 0.3207075 -0.9471783
vn 0.0 0.4429691 -0.8965369
vn 0.0 0.6587815 -0.7523344
vn 0.0 0.7523344 -0.6587815
vn 0.0 0.8965369 -0.4429691
vn 0.0 0.9471783 -0.3207075
vn 1.0 0.0 0.0
vn -1.0 0.0 0.0
vn 0.0 -0.9807923 -0.1950551
vn 0.0 0.9807923 -0.1950551
vn 0.0 0.9807923 0.1950551
vn 0.0 0.0 1.0
vn 0.0 0.1950551 0.9807923
vn 0.0 -0.1950551 0.9807923
vn 0.0 -0.9807923 0.1950551
vn 0.0 -0.1591199 -0.9872593
vn 0.0 0.0 -1.0
vn 0.0 -0.3162278 -0.9486833
vn 0.0 -0.9486833 -0.3162278
vn 0.0 -0.9771979 -0.2123305
vn 0.0 -0.9943996 -0.105686
vn 0.0 0.9872593 -0.1591199
vn 0.0 0.9486833 -0.3162278
vn 0.0 0.3162278 -0.9486833
vn 0.0 0.2123305 -0.9771979
vn 0.0 0.105686 -0.9943996
vn 0.0 0.105686 0.9943996
vn 0.0 0.2123305 0.9771979
vn 0.0 0.3162278 0.9486833
vn 0.0 0.9486833 0.3162278
vn 0.0 0.9771979 0.2123305
vn 0.0 0.9943996 0.105686
vn 0.0 -0.9943996 0.105686
vn 0.0 -0.9771979 0.2123305
vn 0.0 -0.9486833 0.3162278
vn 0.0 -0.3162278 0.9486833
vn 0.0 -0.2123305 0.9771979
vn 0.0 -0.105686 0.9943996
f 1//1 2//1 3//1
f 1//1 3//1 4//1
f 5//1 6//1 2//1
f 5//1 2//1 1//1
f 7//1 8//1 6//1
f 7//1 6//1 5//1
f 9//1 10//1 8//1
f 9//1 8//1 7//1
f 11//1 12//1 10//1
f 11//1 10//1 9//1
f 13//1 14//1 12//1
f 13//1 12//1 11//1
f 15//1 16//1 14//1
f 15//1 14//1 13//1
f 17//1 18//1 16//1
f 17//1 16//1 15//1
f 19//1 20//1 18//1
f 19//1 18//1 17//1
f 21//1 22//1 20//1
f 21//1 20//1 19//1
f 23//1 24//1 22//1
f 23//1 22//1 21//1
f 25//1 26//1 24//1
f 25//1 24//1 23//1
f 27//1 28//1 26//1
f 27//1 26//1 25//1
f 29//1 30//1 28//1
f 29//1 28//1 27//1
f 31//1 32//1 30//1
f 31//1 30//1 29//1
f 4//1 3//1 32//1
f 4//1 32//1 31//1
f 33//2 27//3 25//4
f 34//5 33//2 25//4
f 35//6 29//7 27//3
f 33//2 35//6 27//3
f 36//8 31//9 29//7
f 35//6 36//8 29//7
f 37//10 4//11 31//9
f 36//8 37//10 31//9
f 38//12 1//13 4//11
f 37//10 38//12 4//11
f 39//14 5//15 1//13
f 38//12 39//14 1//13
f 40//16 7//17 5//15
f 39//14 40//16 5//15
f 41//18 9//19 7//17
f 40//16 41//18 7//17
f 42//20 11//21 9//19
f 41//18 42//20 9//19
f 43//22 13//23 11//21
f 42//20 43//22 11//21
f 44//24 15//25 13//23
f 43//22 44//24 13//23
f 45//26 17//27 15//25
f 44//24 45//26 15//25
f 46//28 19//29 17//27
f 45//26 46//28 17//27
f 47//30 21//31 19//29
f 46//28 47//30 19//29
f 48//32 23//33 21//31
f 47//30 48//32 21//31
f 34//5 25//4 23//33
f 48//32 34//5 23//33
f 49//34 50//34 51//34
f 49//34 51//34 52//34
f 53//34 54//34 50//34
f 53//34 50//34 49//34
f 55//34 56//34 54//34
f 55//34 54//34 53//34
f 57//34 58//34 56//34
f 57//34 56//34 55//34
f 59//34 60//34 58//34
f 59//34 58//34 57//34
f 61//34 62//34 60//34
f 61//34 60//34 59//34
f 63//34 64//34 62//34
f 63//34 62//34 61//34
f 65//34 66//34 64//34
f 65//34 64//34 63//34
f 67//34 68//34 66//34
f 67//34 66//34 65//34
f 69//34 70//34 68//34
f 69//34 68//34 67//34
f 71//34 72//34 70//34
f 71//34 70//34 69//34
f 73//34 74//34 72//34
f 73//34 72//34 71//34
f 75//34 76//34 74//34
f 75//34 74//34 73//34
f 77//34 78//34 76//34
f 77//34 76//34 75//34
f 79//34 80//34 78//34
f 79//34 78//34 77//34
f 52//34 51//34 80//34
f 52//34 80//34 79//34
f 81//33 75//32 73//5
f 82//4 81//33 73//5
f 83//31 77//30 75//32
f 81//33 83//31 75//32
f 84//29 79//28 77//30
f 83//31 84//29 77//30
f 85//27 52//26 79//28
f 84//29 85//27 79//28
f 86//25 49//24 52//26
f 85//27 86//25 52//26
f 87//23 53//22 49//24
f 86//25 87//23 49//24
f 88//21 55//20 53//22
f 87//23 88//21 53//22
f 89//19 57//18 55//20
f 88//21 89//19 55//20
f 90//17 59//16 57//18
f 89//19 90//17 57//18
f 91//15 61//14 59//16
f 90//17 91//15 59//16
f 92//13 63//12 61//14
f 91//15 92//13 61//14
f 93//11 65//10 63//12
f 92//13 93//11 63//12
f 94//9 67//8 65//10
f 93//11 94//9 65//10
f 95//7 69//6 67//8
f 94//9 95//7 67//8
f 96//3 71//2 69//6
f 95//7 96//3 69//6
f 82//4 73//5 71//2
f 96//3 82//4 71//2
f 97//35 98//36 99//37
f 97//35 99//37 100//37
f 101//38 102//39 98//36
f 101//38 98//36 97//35
f 103//40 104//41 102//39
f 103//40 102//39 101//38
f 105//42 106//43 104//41
f 105//42 104//41 103//40
f 107//44 108//45 106//43
f 107//44 106//43 105//42
f 109//46 110//47 108//45
f 109//46 108//45 107//44
f 111//48 112//49 110//47
f 111//48 110//47 109//46
f 113//50 114//51 112//49
f 113//50 112//49 111//48
f 115//52 116//53 114//51
f 115//52 114//51 113//50
f 117//54 118//55 116//53
f 117//54 116//53 115//52
f 119//56 120//57 118//55
f 119//56 118//55 117//54
f 121//58 122//58 120//57
f 121//58 120//57 119//56
f 12//59 56//60 58//61
f 10//62 12//59 58//61
f 14//63 54//64 56//60
f 12//59 14//63 56//60
f 16//65 50//66 54//64
f 14//63 16//65 54//64
f 18//67 51//68 50//66
f 16//65 18//67 50//66
f 20//69 80//70 51//68
f 18//67 20//69 51//68
f 22//71 78//72 80//70
f 20//69 22//71 80//70
f 24//73 76//74 78//72
f 22//71 24//73 78//72
f 26//75 74//76 76//74
f 24//73 26//75 76//74
f 28//77 72//78 74//76
f 26//75 28//77 74//76
f 30//79 70//80 72//78
f 28//77 30//79 72//78
f 32//81 68//82 70//80
f 30//79 32//81 70//80
f 3//83 66//84 68//82
f 32//81 3//83 68//82
f 2//85 64//86 66//84
f 3//83 2//85 66//84
f 6//87 62//88 64//86
f 2//85 6//87 64//86
f 8//89 60//90 62//88
f 6//87 8//89 62//88
f 10//62 58//61 60//90
f 8//89 10//62 60//90
f 123//59 124//60 125//61
f 126//62 123//59 125//61
f 127//63 128//64 124//60
f 123//59 127//63 124//60
f 129//65 130//66 128//64
f 127//63 129//65 128//64
f 131//67 132//68 130//66
f 129//65 131//67 130//66
f 133//69 134//70 132//68
f 131//67 133//69 132//68
f 135//71 136//72 134//70
f 133//69 135//71 134//70
f 137//73 138//74 136//72
f 135//71 137//73 136//72
f 139//75 140//76 138//74
f 137//73 139//75 138//74
f 141//77 142//78 140//76
f 139//75 141//77 140//76
f 143//79 144//80 142//78
f 141//77 143//79 142//78
f 145//81 146//82 144//80
f 143//79 145//81 144//80
f 147//83 148//84 146//82
f 145//81 147//83 146//82
f 149//85 150//86 148//84
f 147//83 149//85 148//84
f 151//87 152//88 150//86
f 149//85 151//87 150//86
f 153//89 154//90 152//88
f 151//87 153//89 152//88
f 126//62 125//61 154//90
f 153//89 126//62 154//90
f 155//1 38//1 37//1
f 155//1 37//1 122//1
f 156//1 39//1 38//1
f 156//1 38//1 155//1
f 157//1 40//1 39//1
f 157//1 39//1 156//1
f 99//1 41//1 40//1
f 99//1 40//1 157//1
f 98//1 42//1 41//1
f 98//1 41//1 99//1
f 102//1 43//1 42//1
f 102//1 42//1 98//1
f 104//1 44//1 43//1
f 104//1 43//1 102//1
f 106//1 45//1 44//1
f 106//1 44//1 104//1
f 108//1 46//1 45//1
f 108//1 45//1 106//1
f 110//1 47//1 46//1
f 110//1 46//1 108//1
f 112//1 48//1 47//1
f 112//1 47//1 110//1
f 114//1 34//1 48//1
f 114//1 48//1 112//1
f 116//1 33//1 34//1
f 116//1 34//1 114//1
f 118//1 35//1 33//1
f 118//1 33//1 116//1
f 120//1 36//1 35//1
f 120//1 35//1 118//1
f 122//1 37//1 36//1
f 122//1 36//1 120//1
f 93//34 92//34 158//34
f 121//34 93//34 158//34
f 92//34 91//34 159//34
f 158//34 92//34 159//34
f 91//34 90//34 160//34
f 159//34 91//34 160//34
f 90//34 89//34 100//34
f 160//34 90//34 100//34
f 89//34 88//34 97//34
f 100//34 89//34 97//34
f 88//34 87//34 101//34
f 97//34 88//34 101//34
f 87//34 86//34 103//34
f 101//34 87//34 103//34
f 86//34 85//34 105//34
f 103//34 86//34 105//34
f 85//34 84//34 107//34
f 105//34 85//34 107//34
f 84//34 83//34 109//34
f 107//34 84//34 109//34
f 83//34 81//34 111//34
f 109//34 83//34 111//34
f 81//34 82//34 113//34
f 111//34 81//34 113//34
f 82//34 96//34 115//34
f 113//34 82//34 115//34
f 96//34 95//34 117//34
f 115//34 96//34 117//34
f 95//34 94//34 119//34
f 117//34 95//34 119//34
f 94//34 93//34 121//34
f 119//34 94//34 121//34
f 161//1 149//1 147//1
f 161//1 147//1 162//1
f 163//1 151//1 149//1
f 163//1 149//1 161//1
f 164//1 153//1 151//1
f 164//1 151//1 163//1
f 165//1 126//1 153//1
f 165//1 153//1 164//1
f 166//1 123//1 126//1
f 166//1 126//1 165//1
f 167//1 127//1 123//1
f 167//1 123//1 166//1
f 168//1 129//1 127//1
f 168//1 127//1 167//1
f 169//1 131//1 129//1
f 169//1 129//1 168//1
f 170//1 133//1 131//1
f 170//1 131//1 169//1
f 171//1 135//1 133//1
f 171//1 133//1 170//1
f 172//1 137//1 135//1
f 172//1 135//1 171//1
f 173//1 139//1 137//1
f 173//1 137//1 172//1
f 174//1 141//1 139//1
f 174//1 139//1 173//1
f 175//1 143//1 141//1
f 175//1 141//1 174//1
f 176//1 145//1 143//1
f 176//1 143//1 175//1
f 162//1 147//1 145//1
f 162//1 145//1 176//1
f 177//2 174//3 173//4
f 178//5 177//2 173//4
f 179//6 175//7 174//3
f 177//2 179//6 174//3
f 180//8 176//9 175//7
f 179//6 180//8 175//7
f 181//10 162//11 176//9
f 180//8 181//10 176//9
f 182//12 161//13 162//11
f 181//10 182//12 162//11
f 183//14 163//15 161//13
f 182//12 183//14 161//13
f 184//16 164//17 163//15
f 183//14 184//16 163//15
f 185//18 165//19 164//17
f 184//16 185//18 164//17
f 186//20 166//21 165//19
f 185//18 186//20 165//19
f 187//22 167//23 166//21
f 186//20 187//22 166//21
f 188//24 168//25 167//23
f 187//22 188//24 167//23
f 189//26 169//27 168//25
f 188//24 189//26 168//25
f 190//28 170//29 169//27
f 189//26 190//28 169//27
f 191//30 171//31 170//29
f 190//28 191//30 170//29
f 192//32 172//33 171//31
f 191//30 192//32 171//31
f 178//5 173//4 172//33
f 192//32 178//5 172//33
f 193//34 130//34 132//34
f 193//34 132//34 194//34
f 195//34 128//34 130//34
f 195//34 130//34 193//34
f 196//34 124//34 128//34
f 196//34 128//34 195//34
f 197//34 125//34 124//34
f 197//34 124//34 196//34
f 198//34 154//34 125//34
f 198//34 125//34 197//34
f 199//34 152//34 154//34
f 199//34 154//34 198//34
f 200//34 150//34 152//34
f 200//34 152//34 199//34
f 201//34 148//34 150//34
f 201//34 150//34 200//34
f 202//34 146//34 148//34
f 202//34 148//34 201//34
f 203//34 144//34 146//34
f 203//34 146//34 202//34
f 204//34 142//34 144//34
f 204//34 144//34 203//34
f 205//34 140//34 142//34
f 205//34 142//34 204//34
f 206//34 138//34 140//34
f 206//34 140//34 205//34
f 207//34 136//34 138//34
f 207//34 138//34 206//34
f 208//34 134//34 136//34
f 208//34 136//34 207//34
f 194//34 132//34 134//34
f 194//34 134//34 208//34
f 209//33 206//32 205//5
f 210//4 209//33 205//5
f 211//31 207//30 206//32
f 209//33 211//31 206//32
f 212//29 208//28 207//30
f 211//31 212//29 207//30
f 213//27 194//26 208//28
f 212//29 213//27 208//28
f 214//25 193//24 194//26
f 213//27 214//25 194//26
f 215//23 195//22 193//24
f 214//25 215//23 193//24
f 216//21 196//20 195//22
f 215//23 216//21 195//22
f 217//19 197//18 196//20
f 216//21 217//19 196//20
f 218//17 198//16 197//18
f 217//19 218//17 197//18
f 219//15 199//14 198//16
f 218//17 219//15 198//16
f 220//13 200//12 199//14
f 219//15 220//13 199//14
f 221//11 201//10 200//12
f 220//13 221//11 200//12
f 222//9 202//8 201//10
f 221//11 222//9 201//10
f 223//7 203//6 202//8
f 222//9 223//7 202//8
f 224//3 204//2 203//6
f 223//7 224//3 203//6
f 210//4 205//5 204//2
f 224//3 210//4 204//2
f 225//49 226//48 227//91
f 225//49 227//91 228//91
f 229//47 230//46 226//48
f 229//47 226//48 225//49
f 231//45 232//44 230//46
f 231//45 230//46 229//47
f 233//43 234//42 232//44
f 233//43 232//44 231//45
f 235//41 236//40 234//42
f 235//41 234//42 233//43
f 237//39 238//38 236//40
f 237//39 236//40 235//41
f 239//36 240//35 238//38
f 239//36 238//38 237//39
f 114//92 113//93 240//35
f 114//92 240//35 239//36
f 241//94 242//95 113//93
f 241//94 113//93 114//92
f 243//96 244//97 242//95
f 243//96 242//95 241//94
f 245//98 246//99 244//97
f 245//98 244//97 243//96
f 247//100 248//100 246//99
f 247//100 246//99 245//98
f 249//101 250//53 251//52
f 249//101 251//52 228//91
f 250//53 252//55 253//54
f 250//53 253//54 251//52
f 252//55 254//57 255//56
f 252//55 255//56 253//54
f 254//57 256//102 247//100
f 254//57 247//100 255//56
f 227//91 257//53 258//52
f 227//91 258//52 259//103
f 257//53 260//55 261//54
f 257//53 261//54 258//52
f 260//55 262//57 263//56
f 260//55 263//56 261//54
f 262//57 248//100 264//102
f 262//57 264//102 263//56
f 265//104 266//98 155//99
f 265//104 155//99 122//58
f 266//98 267//96 156//97
f 266//98 156//97 155//99
f 267//96 268//94 157//95
f 267//96 157//95 156//97
f 268//94 269//105 99//37
f 268//94 99//37 157//95
f 121//58 158//98 270//99
f 121//58 270//99 271//104
f 158//98 159//96 272//97
f 158//98 272//97 270//99
f 159//96 160//94 273//95
f 159//96 273//95 272//97
f 160//94 100//37 274//106
f 160//94 274//106 273//95
f 275//1 276//1 277//1
f 278//1 275//1 277//1
f 279//1 278//1 277//1
f 280//1 279//1 277//1
f 281//1 280//1 282//1
f 283//1 281//1 282//1
f 284//1 283//1 282//1
f 285//1 284//1 282//1
f 286//34 287//34 288//34
f 286//34 288//34 289//34
f 286//34 289//34 290//34
f 286//34 290//34 291//34
f 292//34 291//34 293//34
f 292//34 293//34 294//34
f 292//34 294//34 295//34
f 292//34 295//34 296//34
f 297//1 298//1 282//1
f 299//1 297//1 282//1
f 300//1 299//1 282//1
f 280//1 300//1 282//1
f 301//1 280//1 277//1
f 302//1 301//1 277//1
f 303//1 302//1 277//1
f 304//1 303//1 277//1
f 292//34 305//34 306//34
f 292//34 306//34 307//34
f 292//34 307//34 308//34
f 292//34 308//34 291//34
f 286//34 291//34 309//34
f 286//34 309//34 310//34
f 286//34 310//34 311//34
f 286//34 311//34 312//34
f 245//1 182//1 181//1
f 245//1 181//1 247//1
f 243//1 183//1 182//1
f 243//1 182//1 245//1
f 241//1 184//1 183//1
f 241//1 183//1 243//1
f 114//1 185//1 184//1
f 114//1 184//1 241//1
f 239//1 186//1 185//1
f 239//1 185//1 114//1
f 237//1 187//1 186//1
f 237//1 186//1 239//1
f 235//1 188//1 187//1
f 235//1 187//1 237//1
f 233//1 189//1 188//1
f 233//1 188//1 235//1
f 231//1 190//1 189//1
f 231//1 189//1 233//1
f 229//1 191//1 190//1
f 229//1 190//1 231//1
f 225//1 192//1 191//1
f 225//1 191//1 229//1
f 228//1 178//1 192//1
f 228//1 192//1 225//1
f 251//1 177//1 178//1
f 251//1 178//1 228//1
f 253//1 179//1 177//1
f 253//1 177//1 251//1
f 255//1 180//1 179//1
f 255//1 179//1 253//1
f 247//1 181//1 180//1
f 247//1 180//1 255//1
f 221//34 220//34 246//34
f 248//34 221//34 246//34
f 220//34 219//34 244//34
f 246//34 220//34 244//34
f 219//34 218//34 242//34
f 244//34 219//34 242//34
f 218//34 217//34 113//34
f 242//34 218//34 113//34
f 217//34 216//34 240//34
f 113//34 217//34 240//34
f 216//34 215//34 238//34
f 240//34 216//34 238//34
f 215//34 214//34 236//34
f 238//34 215//34 236//34
f 214//34 213//34 234//34
f 236//34 214//34 234//34
f 213//34 212//34 232//34
f 234//34 213//34 232//34
f 212//34 211//34 230//34
f 232//34 212//34 230//34
f 211//34 209//34 226//34
f 230//34 211//34 226//34
f 209//34 210//34 227//34
f 226//34 209//34 227//34
f 210//34 224//34 257//34
f 227//34 210//34 257//34
f 224//34 223//34 260//34
f 257//34 224//34 260//34
f 223//34 222//34 262//34
f 260//34 223//34 262//34
f 222//34 221//34 248//34
f 262//34 222//34 248//34
f 313//34 271//34 270//34
f 313//34 270//34 272//34
f 313//34 272//34 273//34
f 313//34 273//34 274//34
f 266//1 265//1 314//1
f 267//1 266//1 314//1
f 268//1 267//1 314//1
f 269//1 268//1 314//1
f 315//34 259//34 258//34
f 315//34 258//34 261//34
f 315//34 261//34 263//34
f 315//34 263//34 264//34
f 250//1 249//1 316//1
f 252//1 250//1 316//1
f 254//1 252//1 316//1
f 256//1 254//1 316//1
f 317//107 318//108 314//1
f 317//107 314//1 265//1
f 271//34 313//34 319//109
f 271//34 319//109 320//110
f 321//111 322//112 320//110
f 321//111 320//110 319//109
f 323//113 324//114 322//112
f 323//113 322//112 321//111
f 325//115 326//116 324//114
f 325//115 324//114 323//113
f 327//117 328//118 326//116
f 327//117 326//116 325//115
f 329//119 330//120 328//118
f 329//119 328//118 327//117
f 331//121 332//122 330//120
f 331//121 330//120 329//119
f 333//123 334//124 332//122
f 333//123 332//122 331//121
f 318//108 317//107 334//124
f 318//108 334//124 333//123
f 335//111 336//112 337//110
f 335//111 337//110 338//109
f 339//113 340//114 336//112
f 339//113 336//112 335//111
f 341//115 342//116 340//114
f 341//115 340//114 339//113
f 343//117 344//118 342//116
f 343//117 342//116 341//115
f 345//119 346//120 344//118
f 345//119 344//118 343//117
f 347//121 348//122 346//120
f 347//121 346//120 345//119
f 349//123 350//124 348//122
f 349//123 348//122 347//121
f 351//108 352//107 350//124
f 351//108 350//124 349//123
f 352//107 351//108 256//1
f 352//107 256//1 316//1
f 315//34 264//34 338//109
f 315//34 338//109 337//110
f 353//125 354//125 355//125
f 356//125 357//125 358//125
f 359//125 360//125 361//125
f 362//125 363//125 364//125
f 353//125 355//125 365//125
f 365//125 366//125 367//125
f 365//125 367//125 353//125
f 368//125 365//125 355//125
f 368//125 355//125 369//125
f 370//125 356//125 358//125
f 370//125 371//125 372//125
f 370//125 372//125 356//125
f 373//125 374//125 370//125
f 373//125 370//125 358//125
f 375//125 376//125 359//125
f 375//125 359//125 377//125
f 359//125 361//125 377//125
f 361//125 378//125 379//125
f 361//125 379//125 377//125
f 362//125 364//125 380//125
f 381//125 362//125 380//125
f 381//125 380//125 382//125
f 383//125 380//125 364//125
f 383//125 364//125 384//125
f 385//126 386//126 387//126
f 388//126 389//126 390//126
f 391//126 392//126 393//126
f 394//126 395//126 396//126
f 385//126 387//126 397//126
f 397//126 398//126 399//126
f 397//126 399//126 385//126
f 400//126 397//126 387//126
f 400//126 387//126 401//126
f 402//126 388//126 390//126
f 402//126 403//126 404//126
f 402//126 404//126 388//126
f 405//126 406//126 402//126
f 405//126 402//126 390//126
f 407//126 408//126 391//126
f 407//126 391//126 409//126
f 391//126 393//126 409//126
f 393//126 410//126 411//126
f 393//126 411//126 409//126
f 394//126 396//126 412//126
f 413//126 394//126 412//126
f 413//126 412//126 414//126
f 415//126 412//126 396//126
f 415//126 396//126 416//126
f 416//127 417//34 418//34
f 416//127 418//34 367//127
f 419//1 420//1 408//128
f 373//128 419//1 408//128
f 405//129 420//1 419//1
f 405//129 419//1 376//129
f 421//130 422//130 404//131
f 378//131 421//130 404//131
f 401//132 422//130 421//130
f 401//132 421//130 381//132
f 418//34 417//34 399//133
f 384//133 418//34 399//133
f 415//134 416//135 367//135
f 415//134 367//135 366//134
f 415//134 366//134 365//136
f 415//134 365//136 412//136
f 412//137 365//137 368//138
f 412//137 368//138 414//139
f 414//139 368//138 369//34
f 414//139 369//34 413//34
f 411//140 410//1 372//1
f 411//140 372//1 371//140
f 411//140 371//140 370//141
f 411//140 370//141 409//141
f 409//142 370//142 374//143
f 409//142 374//143 407//144
f 407//144 374//143 373//135
f 407//144 373//135 408//135
f 405//130 376//130 375//145
f 405//130 375//145 406//146
f 406//146 375//145 377//147
f 406//146 377//147 402//147
f 402//148 377//148 379//149
f 402//148 379//149 403//150
f 403//150 379//149 378//1
f 403//150 378//1 404//1
f 401//34 381//34 382//151
f 401//34 382//151 400//152
f 400//152 382//151 380//153
f 400//152 380//153 397//153
f 397//154 380//154 383//155
f 397//154 383//155 398//156
f 398//156 383//155 384//130
f 398//156 384//130 399//130
f 423//125 424//125 425//125
f 426//125 427//125 428//125
f 429//125 430//125 431//125
f 432//125 433//125 434//125
f 423//125 425//125 435//125
f 435//125 436//125 437//125
f 435//125 437//125 423//125
f 438//125 435//125 425//125
f 438//125 425//125 439//125
f 440//125 426//125 428//125
f 440//125 441//125 442//125
f 440//125 442//125 426//125
f 443//125 444//125 440//125
f 443//125 440//125 428//125
f 445//125 446//125 429//125
f 445//125 429//125 447//125
f 429//125 431//125 447//125
f 431//125 448//125 449//125
f 431//125 449//125 447//125
f 432//125 434//125 450//125
f 451//125 432//125 450//125
f 451//125 450//125 452//125
f 453//125 450//125 434//125
f 453//125 434//125 454//125
f 455//126 456//126 457//126
f 458//126 459//126 460//126
f 461//126 462//126 463//126
f 464//126 465//126 466//126
f 455//126 457//126 467//126
f 467//126 468//126 469//126
f 467//126 469//126 455//126
f 470//126 467//126 457//126
f 470//126 457//126 471//126
f 472//126 458//126 460//126
f 472//126 473//126 474//126
f 472//126 474//126 458//126
f 475//126 476//126 472//126
f 475//126 472//126 460//126
f 477//126 478//126 461//126
f 477//126 461//126 479//126
f 461//126 463//126 479//126
f 463//126 480//126 481//126
f 463//126 481//126 479//126
f 464//126 466//126 482//126
f 483//126 464//126 482//126
f 483//126 482//126 484//126
f 485//126 482//126 466//126
f 485//126 466//126 486//126
f 486//127 487//34 488//34
f 486//127 488//34 437//127
f 489//1 490//1 478//128
f 443//128 489//1 478//128
f 475//129 490//1 489//1
f 475//129 489//1 446//129
f 491//130 492//130 474//131
f 448//131 491//130 474//131
f 471//132 492//130 491//130
f 471//132 491//130 451//132
f 488//34 487//34 469//133
f 454//133 488//34 469//133
f 485//134 486//135 437//135
f 485//134 437//135 436//134
f 485//134 436//134 435//136
f 485//134 435//136 482//136
f 482//137 435//137 438//138
f 482//137 438//138 484//139
f 484//139 438//138 439//34
f 484//139 439//34 483//34
f 481//140 480//1 442//1
f 481//140 442//1 441//140
f 481//140 441//140 440//141
f 481//140 440//141 479//141
f 479//142 440//142 444//143
f 479//142 444//143 477//144
f 477//144 444//143 443//135
f 477//144 443//135 478//135
f 475//130 446//130 445//145
f 475//130 445//145 476//146
f 476//146 445//145 447//147
f 476//146 447//147 472//147
f 472//148 447//148 449//149
f 472//148 449//149 473//150
f 473//150 449//149 448//1
f 473//150 448//1 474//1
f 471//34 451//34 452//151
f 471//34 452//151 470//152
f 470//152 452//151 450//153
f 470//152 450//153 467//153
f 467//154 450//154 453//155
f 467//154 453//155 468//156
f 468//156 453//155 454//130
f 468//156 454//130 469//130
f 320//125 322//125 493//125
f 320//125 493//125 489//125
f 322//125 324//125 494//125
f 322//125 494//125 493//125
f 324//125 326//125 495//125
f 324//125 495//125 494//125
f 326//125 328//125 491//125
f 326//125 491//125 495//125
f 328//125 330//125 496//125
f 328//125 496//125 491//125
f 330//125 332//125 497//125
f 330//125 497//125 496//125
f 332//125 334//125 498//125
f 332//125 498//125 497//125
f 334//125 317//125 488//125
f 334//125 488//125 498//125
f 499//126 321//126 319//126
f 490//126 499//126 319//126
f 500//126 323//126 321//126
f 499//126 500//126 321//126
f 501//126 325//126 323//126
f 500//126 501//126 323//126
f 492//126 327//126 325//126
f 501//126 492//126 325//126
f 502//126 329//126 327//126
f 492//126 502//126 327//126
f 503//126 331//126 329//126
f 502//126 503//126 329//126
f 504//126 333//126 331//126
f 503//126 504//126 331//126
f 487//126 318//126 333//126
f 504//126 487//126 333//126
f 337//125 336//125 505//125
f 337//125 505//125 419//125
f 336//125 340//125 506//125
f 336//125 506//125 505//125
f 340//125 342//125 507//125
f 340//125 507//125 506//125
f 342//125 344//125 421//125
f 342//125 421//125 507//125
f 344//125 346//125 508//125
f 344//125 508//125 421//125
f 346//125 348//125 509//125
f 346//125 509//125 508//125
f 348//125 350//125 510//125
f 348//125 510//125 509//125
f 350//125 352//125 418//125
f 350//125 418//125 510//125
f 511//126 335//126 338//126
f 420//126 511//126 338//126
f 512//126 339//126 335//126
f 511//126 512//126 335//126
f 513//126 341//126 339//126
f 512//126 513//126 339//126
f 422//126 343//126 341//126
f 513//126 422//126 341//126
f 514//126 345//126 343//126
f 422//126 514//126 343//126
f 515//126 347//126 345//126
f 514//126 515//126 345//126
f 516//126 349//126 347//126
f 515//126 516//126 347//126
f 417//126 351//126 349//126
f 516//126 417//126 349//126
f 517//135 518//135 519//135
f 517//135 519//135 520//135
f 518//34 521//34 522//34
f 518//34 522//34 519//34
f 520//1 523//1 524//1
f 520//1 524//1 517//1
f 525//135 526//135 527//135
f 528//135 525//135 527//135
f 529//1 530//1 526//1
f 525//1 529//1 526//1
f 531//34 532//34 528//34
f 527//34 531//34 528//34
f 418//125 533//125 534//125
f 534//125 533//125 535//125
f 535//125 533//125 536//125
f 536//125 533//125 537//125
f 538//125 539//125 540//125
f 539//125 538//125 541//125
f 540//125 539//125 542//125
f 419//125 542//125 539//125
f 543//126 417//126 544//126
f 543//126 544//126 545//126
f 543//126 545//126 546//126
f 546//126 547//126 543//126
f 548//126 549//126 550//126
f 551//126 549//126 548//126
f 548//126 550//126 552//126
f 548//126 552//126 420//126
f 488//125 553//125 554//125
f 554//125 553//125 555//125
f 555//125 553//125 556//125
f 556//125 553//125 557//125
f 558//125 559//125 560//125
f 559//125 558//125 561//125
f 560//125 559//125 562//125
f 489//125 562//125 559//125
f 563//126 487//126 564//126
f 563//126 564//126 565//126
f 563//126 565//126 566//126
f 566//126 567//126 563//126
f 568//126 569//126 570//126
f 571//126 569//126 568//126
f 568//126 570//126 572//126
f 568//126 572//126 490//126
f 274//106 269//105 573//126
f 274//106 573//126 574//126
f 265//125 271//125 575//125
f 265//125 575//125 576//125
f 264//126 256//126 577//126
f 264//126 577//126 578//126
f 573//126 269//105 318//126
f 573//126 318//126 487//126
f 274//106 574//126 490//126
f 274//106 490//126 319//126
f 265//125 576//125 488//125
f 265//125 488//125 317//125
f 575//125 271//125 320//125
f 575//125 320//125 489//125
f 577//126 256//126 351//126
f 577//126 351//126 417//126
f 264//126 578//126 420//126
f 264//126 420//126 338//126
f 249//101 579//125 418//125
f 249//101 418//125 352//125
f 580//125 259//103 337//125
f 580//125 337//125 419//125
f 249//101 259//103 580//125
f 249//101 580//125 579//125
f 563//126 531//126 527//126
f 563//126 527//126 573//126
f 532//130 531//130 567//130
f 557//130 532//130 567//130
f 522//130 521//130 547//130
f 537//130 522//130 547//130
f 524//130 523//130 541//130
f 551//130 524//130 541//130
f 530//130 529//130 561//130
f 571//130 530//130 561//130
f 530//126 568//126 574//126
f 530//126 574//126 526//126
f 532//125 553//125 576//125
f 532//125 576//125 528//125
f 559//125 529//125 525//125
f 559//125 525//125 575//125
f 543//126 521//126 518//126
f 543//126 518//126 577//126
f 524//126 548//126 578//126
f 524//126 578//126 517//126
f 522//125 533//125 579//125
f 522//125 579//125 519//125
f 539//125 523//125 520//125
f 539//125 520//125 580//125
f 298//130 305//130 296//130
f 298//130 296//130 285//130
f 276//135 287//135 312//135
f 276//135 312//135 304//135
f 581//135 582//135 583//135
f 581//135 583//135 584//135
f 585//135 586//135 587//135
f 585//135 587//135 588//135
f 589//130 590//130 591//130
f 592//130 589//130 591//130
f 593//130 594//130 595//130
f 596//130 593//130 595//130
f 583//1 582//1 114//1
f 590//1 589//1 114//1
f 585//34 588//34 113//34
f 596//34 595//34 113//34
