# Botball Lab: metres, +Y up, centred XZ, base Y=0
s off
v -0.0145218 0.0000000 -0.0006123
v -0.0144000 0.0000000 -0.0000000
v -0.0160000 0.0000000 -0.0000000
v -0.0148686 0.0000000 -0.0011314
v -0.0153877 0.0000000 -0.0014782
v -0.0160000 0.0000000 -0.0016000
v -0.0166123 0.0000000 -0.0014782
v -0.0171314 0.0000000 -0.0011314
v -0.0174782 0.0000000 -0.0006123
v -0.0176000 0.0000000 -0.0000000
v -0.0174782 0.0000000 0.0006123
v -0.0171314 0.0000000 0.0011314
v -0.0166123 0.0000000 0.0014782
v -0.0160000 0.0000000 0.0016000
v -0.0153877 0.0000000 0.0014782
v -0.0148686 0.0000000 0.0011314
v -0.0145218 0.0000000 0.0006123
v -0.0145218 0.0016000 -0.0006123
v -0.0144000 0.0016000 -0.0000000
v -0.0148686 0.0016000 -0.0011314
v -0.0153877 0.0016000 -0.0014782
v -0.0160000 0.0016000 -0.0016000
v -0.0166123 0.0016000 -0.0014782
v -0.0171314 0.0016000 -0.0011314
v -0.0174782 0.0016000 -0.0006123
v -0.0176000 0.0016000 -0.0000000
v -0.0174782 0.0016000 0.0006123
v -0.0171314 0.0016000 0.0011314
v -0.0166123 0.0016000 0.0014782
v -0.0160000 0.0016000 0.0016000
v -0.0153877 0.0016000 0.0014782
v -0.0148686 0.0016000 0.0011314
v -0.0145218 0.0016000 0.0006123
v -0.0065218 0.0000000 -0.0006123
v -0.0064000 0.0000000 -0.0000000
v -0.0080000 0.0000000 -0.0000000
v -0.0068686 0.0000000 -0.0011314
v -0.0073877 0.0000000 -0.0014782
v -0.0080000 0.0000000 -0.0016000
v -0.0086123 0.0000000 -0.0014782
v -0.0091314 0.0000000 -0.0011314
v -0.0094782 0.0000000 -0.0006123
v -0.0096000 0.0000000 -0.0000000
v -0.0094782 0.0000000 0.0006123
v -0.0091314 0.0000000 0.0011314
v -0.0086123 0.0000000 0.0014782
v -0.0080000 0.0000000 0.0016000
v -0.0073877 0.0000000 0.0014782
v -0.0068686 0.0000000 0.0011314
v -0.0065218 0.0000000 0.0006123
v -0.0065218 0.0016000 -0.0006123
v -0.0064000 0.0016000 -0.0000000
v -0.0068686 0.0016000 -0.0011314
v -0.0073877 0.0016000 -0.0014782
v -0.0080000 0.0016000 -0.0016000
v -0.0086123 0.0016000 -0.0014782
v -0.0091314 0.0016000 -0.0011314
v -0.0094782 0.0016000 -0.0006123
v -0.0096000 0.0016000 -0.0000000
v -0.0094782 0.0016000 0.0006123
v -0.0091314 0.0016000 0.0011314
v -0.0086123 0.0016000 0.0014782
v -0.0080000 0.0016000 0.0016000
v -0.0073877 0.0016000 0.0014782
v -0.0068686 0.0016000 0.0011314
v -0.0065218 0.0016000 0.0006123
v 0.0014782 0.0000000 -0.0006123
v 0.0016000 0.0000000 -0.0000000
v 0.0000000 0.0000000 -0.0000000
v 0.0011314 0.0000000 -0.0011314
v 0.0006123 0.0000000 -0.0014782
v 0.0000000 0.0000000 -0.0016000
v -0.0006123 0.0000000 -0.0014782
v -0.0011314 0.0000000 -0.0011314
v -0.0014782 0.0000000 -0.0006123
v -0.0016000 0.0000000 -0.0000000
v -0.0014782 0.0000000 0.0006123
v -0.0011314 0.0000000 0.0011314
v -0.0006123 0.0000000 0.0014782
v 0.0000000 0.0000000 0.0016000
v 0.0006123 0.0000000 0.0014782
v 0.0011314 0.0000000 0.0011314
v 0.0014782 0.0000000 0.0006123
v 0.0014782 0.0016000 -0.0006123
v 0.0016000 0.0016000 -0.0000000
v 0.0011314 0.0016000 -0.0011314
v 0.0006123 0.0016000 -0.0014782
v 0.0000000 0.0016000 -0.0016000
v -0.0006123 0.0016000 -0.0014782
v -0.0011314 0.0016000 -0.0011314
v -0.0014782 0.0016000 -0.0006123
v -0.0016000 0.0016000 -0.0000000
v -0.0014782 0.0016000 0.0006123
v -0.0011314 0.0016000 0.0011314
v -0.0006123 0.0016000 0.0014782
v 0.0000000 0.0016000 0.0016000
v 0.0006123 0.0016000 0.0014782
v 0.0011314 0.0016000 0.0011314
v 0.0014782 0.0016000 0.0006123
v 0.0094782 0.0000000 -0.0006123
v 0.0096000 0.0000000 -0.0000000
v 0.0080000 0.0000000 -0.0000000
v 0.0091314 0.0000000 -0.0011314
v 0.0086123 0.0000000 -0.0014782
v 0.0080000 0.0000000 -0.0016000
v 0.0073877 0.0000000 -0.0014782
v 0.0068686 0.0000000 -0.0011314
v 0.0065218 0.0000000 -0.0006123
v 0.0064000 0.0000000 -0.0000000
v 0.0065218 0.0000000 0.0006123
v 0.0068686 0.0000000 0.0011314
v 0.0073877 0.0000000 0.0014782
v 0.0080000 0.0000000 0.0016000
v 0.0086123 0.0000000 0.0014782
v 0.0091314 0.0000000 0.0011314
v 0.0094782 0.0000000 0.0006123
v 0.0094782 0.0016000 -0.0006123
v 0.0096000 0.0016000 -0.0000000
v 0.0091314 0.0016000 -0.0011314
v 0.0086123 0.0016000 -0.0014782
v 0.0080000 0.0016000 -0.0016000
v 0.0073877 0.0016000 -0.0014782
v 0.0068686 0.0016000 -0.0011314
v 0.0065218 0.0016000 -0.0006123
v 0.0064000 0.0016000 -0.0000000
v 0.0065218 0.0016000 0.0006123
v 0.0068686 0.0016000 0.0011314
v 0.0073877 0.0016000 0.0014782
v 0.0080000 0.0016000 0.0016000
v 0.0086123 0.0016000 0.0014782
v 0.0091314 0.0016000 0.0011314
v 0.0094782 0.0016000 0.0006123
v 0.0174782 0.0000000 -0.0006123
v 0.0176000 0.0000000 -0.0000000
v 0.0160000 0.0000000 -0.0000000
v 0.0171314 0.0000000 -0.0011314
v 0.0166123 0.0000000 -0.0014782
v 0.0160000 0.0000000 -0.0016000
v 0.0153877 0.0000000 -0.0014782
v 0.0148686 0.0000000 -0.0011314
v 0.0145218 0.0000000 -0.0006123
v 0.0144000 0.0000000 -0.0000000
v 0.0145218 0.0000000 0.0006123
v 0.0148686 0.0000000 0.0011314
v 0.0153877 0.0000000 0.0014782
v 0.0160000 0.0000000 0.0016000
v 0.0166123 0.0000000 0.0014782
v 0.0171314 0.0000000 0.0011314
v 0.0174782 0.0000000 0.0006123
v 0.0174782 0.0016000 -0.0006123
v 0.0176000 0.0016000 -0.0000000
v 0.0171314 0.0016000 -0.0011314
v 0.0166123 0.0016000 -0.0014782
v 0.0160000 0.0016000 -0.0016000
v 0.0153877 0.0016000 -0.0014782
v 0.0148686 0.0016000 -0.0011314
v 0.0145218 0.0016000 -0.0006123
v 0.0144000 0.0016000 -0.0000000
v 0.0145218 0.0016000 0.0006123
v 0.0148686 0.0016000 0.0011314
v 0.0153877 0.0016000 0.0014782
v 0.0160000 0.0016000 0.0016000
v 0.0166123 0.0016000 0.0014782
v 0.0171314 0.0016000 0.0011314
v 0.0174782 0.0016000 0.0006123
v -0.0224000 0.0016000 -0.0024000
v 0.0224000 0.0016000 -0.0024000
v 0.0224000 0.0016000 0.0024000
v -0.0224000 0.0016000 0.0024000
v -0.0224000 0.0000000 -0.0024000
v 0.0224000 0.0000000 -0.0024000
v -0.0224000 0.0000000 0.0024000
v 0.0224000 0.0000000 0.0024000
v 0.0240000 0.0000000 -0.0040000
v -0.0240000 0.0000000 -0.0040000
v -0.0240000 0.0000000 0.0040000
v 0.0240000 0.0000000 0.0040000
v -0.0240000 0.0032000 0.0040000
v 0.0240000 0.0032000 0.0040000
v 0.0240000 0.0032000 -0.0040000
v -0.0240000 0.0032000 -0.0040000
v -0.0177826 0.0032000 -0.0009185
v -0.0177826 0.0048000 -0.0009185
v -0.0176000 0.0048000 -0.0000000
v -0.0176000 0.0032000 -0.0000000
v -0.0183030 0.0032000 -0.0016970
v -0.0183030 0.0048000 -0.0016970
v -0.0190815 0.0032000 -0.0022174
v -0.0190815 0.0048000 -0.0022174
v -0.0200000 0.0032000 -0.0024000
v -0.0200000 0.0048000 -0.0024000
v -0.0209185 0.0032000 -0.0022174
v -0.0209185 0.0048000 -0.0022174
v -0.0216970 0.0032000 -0.0016970
v -0.0216970 0.0048000 -0.0016970
v -0.0222174 0.0032000 -0.0009185
v -0.0222174 0.0048000 -0.0009185
v -0.0224000 0.0032000 -0.0000000
v -0.0224000 0.0048000 -0.0000000
v -0.0222174 0.0032000 0.0009185
v -0.0222174 0.0048000 0.0009185
v -0.0216970 0.0032000 0.0016970
v -0.0216970 0.0048000 0.0016970
v -0.0209185 0.0032000 0.0022174
v -0.0209185 0.0048000 0.0022174
v -0.0200000 0.0032000 0.0024000
v -0.0200000 0.0048000 0.0024000
v -0.0190815 0.0032000 0.0022174
v -0.0190815 0.0048000 0.0022174
v -0.0183030 0.0032000 0.0016970
v -0.0183030 0.0048000 0.0016970
v -0.0177826 0.0032000 0.0009185
v -0.0177826 0.0048000 0.0009185
v -0.0200000 0.0048000 -0.0000000
v -0.0097826 0.0032000 -0.0009185
v -0.0097826 0.0048000 -0.0009185
v -0.0096000 0.0048000 -0.0000000
v -0.0096000 0.0032000 -0.0000000
v -0.0103030 0.0032000 -0.0016970
v -0.0103030 0.0048000 -0.0016970
v -0.0110815 0.0032000 -0.0022174
v -0.0110815 0.0048000 -0.0022174
v -0.0120000 0.0032000 -0.0024000
v -0.0120000 0.0048000 -0.0024000
v -0.0129185 0.0032000 -0.0022174
v -0.0129185 0.0048000 -0.0022174
v -0.0136970 0.0032000 -0.0016970
v -0.0136970 0.0048000 -0.0016970
v -0.0142174 0.0032000 -0.0009185
v -0.0142174 0.0048000 -0.0009185
v -0.0144000 0.0032000 -0.0000000
v -0.0144000 0.0048000 -0.0000000
v -0.0142174 0.0032000 0.0009185
v -0.0142174 0.0048000 0.0009185
v -0.0136970 0.0032000 0.0016970
v -0.0136970 0.0048000 0.0016970
v -0.0129185 0.0032000 0.0022174
v -0.0129185 0.0048000 0.0022174
v -0.0120000 0.0032000 0.0024000
v -0.0120000 0.0048000 0.0024000
v -0.0110815 0.0032000 0.0022174
v -0.0110815 0.0048000 0.0022174
v -0.0103030 0.0032000 0.0016970
v -0.0103030 0.0048000 0.0016970
v -0.0097826 0.0032000 0.0009185
v -0.0097826 0.0048000 0.0009185
v -0.0120000 0.0048000 -0.0000000
v -0.0017826 0.0032000 -0.0009185
v -0.0017826 0.0048000 -0.0009185
v -0.0016000 0.0048000 -0.0000000
v -0.0016000 0.0032000 -0.0000000
v -0.0023030 0.0032000 -0.0016970
v -0.0023030 0.0048000 -0.0016970
v -0.0030815 0.0032000 -0.0022174
v -0.0030815 0.0048000 -0.0022174
v -0.0040000 0.0032000 -0.0024000
v -0.0040000 0.0048000 -0.0024000
v -0.0049185 0.0032000 -0.0022174
v -0.0049185 0.0048000 -0.0022174
v -0.0056970 0.0032000 -0.0016970
v -0.0056970 0.0048000 -0.0016970
v -0.0062174 0.0032000 -0.0009185
v -0.0062174 0.0048000 -0.0009185
v -0.0064000 0.0032000 -0.0000000
v -0.0064000 0.0048000 -0.0000000
v -0.0062174 0.0032000 0.0009185
v -0.0062174 0.0048000 0.0009185
v -0.0056970 0.0032000 0.0016970
v -0.0056970 0.0048000 0.0016970
v -0.0049185 0.0032000 0.0022174
v -0.0049185 0.0048000 0.0022174
v -0.0040000 0.0032000 0.0024000
v -0.0040000 0.0048000 0.0024000
v -0.0030815 0.0032000 0.0022174
v -0.0030815 0.0048000 0.0022174
v -0.0023030 0.0032000 0.0016970
v -0.0023030 0.0048000 0.0016970
v -0.0017826 0.0032000 0.0009185
v -0.0017826 0.0048000 0.0009185
v -0.0040000 0.0048000 -0.0000000
v 0.0062174 0.0032000 -0.0009185
v 0.0062174 0.0048000 -0.0009185
v 0.0064000 0.0048000 -0.0000000
v 0.0064000 0.0032000 -0.0000000
v 0.0056970 0.0032000 -0.0016970
v 0.0056970 0.0048000 -0.0016970
v 0.0049185 0.0032000 -0.0022174
v 0.0049185 0.0048000 -0.0022174
v 0.0040000 0.0032000 -0.0024000
v 0.0040000 0.0048000 -0.0024000
v 0.0030815 0.0032000 -0.0022174
v 0.0030815 0.0048000 -0.0022174
v 0.0023030 0.0032000 -0.0016970
v 0.0023030 0.0048000 -0.0016970
v 0.0017826 0.0032000 -0.0009185
v 0.0017826 0.0048000 -0.0009185
v 0.0016000 0.0032000 -0.0000000
v 0.0016000 0.0048000 -0.0000000
v 0.0017826 0.0032000 0.0009185
v 0.0017826 0.0048000 0.0009185
v 0.0023030 0.0032000 0.0016970
v 0.0023030 0.0048000 0.0016970
v 0.0030815 0.0032000 0.0022174
v 0.0030815 0.0048000 0.0022174
v 0.0040000 0.0032000 0.0024000
v 0.0040000 0.0048000 0.0024000
v 0.0049185 0.0032000 0.0022174
v 0.0049185 0.0048000 0.0022174
v 0.0056970 0.0032000 0.0016970
v 0.0056970 0.0048000 0.0016970
v 0.0062174 0.0032000 0.0009185
v 0.0062174 0.0048000 0.0009185
v 0.0040000 0.0048000 -0.0000000
v 0.0142174 0.0032000 -0.0009185
v 0.0142174 0.0048000 -0.0009185
v 0.0144000 0.0048000 -0.0000000
v 0.0144000 0.0032000 -0.0000000
v 0.0136970 0.0032000 -0.0016970
v 0.0136970 0.0048000 -0.0016970
v 0.0129185 0.0032000 -0.0022174
v 0.0129185 0.0048000 -0.0022174
v 0.0120000 0.0032000 -0.0024000
v 0.0120000 0.0048000 -0.0024000
v 0.0110815 0.0032000 -0.0022174
v 0.0110815 0.0048000 -0.0022174
v 0.0103030 0.0032000 -0.0016970
v 0.0103030 0.0048000 -0.0016970
v 0.0097826 0.0032000 -0.0009185
v 0.0097826 0.0048000 -0.0009185
v 0.0096000 0.0032000 -0.0000000
v 0.0096000 0.0048000 -0.0000000
v 0.0097826 0.0032000 0.0009185
v 0.0097826 0.0048000 0.0009185
v 0.0103030 0.0032000 0.0016970
v 0.0103030 0.0048000 0.0016970
v 0.0110815 0.0032000 0.0022174
v 0.0110815 0.0048000 0.0022174
v 0.0120000 0.0032000 0.0024000
v 0.0120000 0.0048000 0.0024000
v 0.0129185 0.0032000 0.0022174
v 0.0129185 0.0048000 0.0022174
v 0.0136970 0.0032000 0.0016970
v 0.0136970 0.0048000 0.0016970
v 0.0142174 0.0032000 0.0009185
v 0.0142174 0.0048000 0.0009185
v 0.0120000 0.0048000 -0.0000000
v 0.0222174 0.0032000 -0.0009185
v 0.0222174 0.0048000 -0.0009185
v 0.0224000 0.0048000 -0.0000000
v 0.0224000 0.0032000 -0.0000000
v 0.0216970 0.0032000 -0.0016970
v 0.0216970 0.0048000 -0.0016970
v 0.0209185 0.0032000 -0.0022174
v 0.0209185 0.0048000 -0.0022174
v 0.0200000 0.0032000 -0.0024000
v 0.0200000 0.0048000 -0.0024000
v 0.0190815 0.0032000 -0.0022174
v 0.0190815 0.0048000 -0.0022174
v 0.0183030 0.0032000 -0.0016970
v 0.0183030 0.0048000 -0.0016970
v 0.0177826 0.0032000 -0.0009185
v 0.0177826 0.0048000 -0.0009185
v 0.0176000 0.0032000 -0.0000000
v 0.0176000 0.0048000 -0.0000000
v 0.0177826 0.0032000 0.0009185
v 0.0177826 0.0048000 0.0009185
v 0.0183030 0.0032000 0.0016970
v 0.0183030 0.0048000 0.0016970
v 0.0190815 0.0032000 0.0022174
v 0.0190815 0.0048000 0.0022174
v 0.0200000 0.0032000 0.0024000
v 0.0200000 0.0048000 0.0024000
v 0.0209185 0.0032000 0.0022174
v 0.0209185 0.0048000 0.0022174
v 0.0216970 0.0032000 0.0016970
v 0.0216970 0.0048000 0.0016970
v 0.0222174 0.0032000 0.0009185
v 0.0222174 0.0048000 0.0009185
v 0.0200000 0.0048000 -0.0000000
f 1 2 3
f 4 1 3
f 5 4 3
f 6 5 3
f 7 6 3
f 8 7 3
f 9 8 3
f 10 9 3
f 11 10 3
f 12 11 3
f 13 12 3
f 14 13 3
f 15 14 3
f 16 15 3
f 17 16 3
f 2 17 3
f 1 18 19
f 2 1 19
f 4 20 18
f 1 4 18
f 5 21 20
f 4 5 20
f 6 22 21
f 5 6 21
f 7 23 22
f 6 7 22
f 8 24 23
f 7 8 23
f 9 25 24
f 8 9 24
f 10 26 25
f 9 10 25
f 11 27 26
f 10 11 26
f 12 28 27
f 11 12 27
f 13 29 28
f 12 13 28
f 14 30 29
f 13 14 29
f 15 31 30
f 14 15 30
f 16 32 31
f 15 16 31
f 17 33 32
f 16 17 32
f 2 19 33
f 17 2 33
f 34 35 36
f 37 34 36
f 38 37 36
f 39 38 36
f 40 39 36
f 41 40 36
f 42 41 36
f 43 42 36
f 44 43 36
f 45 44 36
f 46 45 36
f 47 46 36
f 48 47 36
f 49 48 36
f 50 49 36
f 35 50 36
f 34 51 52
f 35 34 52
f 37 53 51
f 34 37 51
f 38 54 53
f 37 38 53
f 39 55 54
f 38 39 54
f 40 56 55
f 39 40 55
f 41 57 56
f 40 41 56
f 42 58 57
f 41 42 57
f 43 59 58
f 42 43 58
f 44 60 59
f 43 44 59
f 45 61 60
f 44 45 60
f 46 62 61
f 45 46 61
f 47 63 62
f 46 47 62
f 48 64 63
f 47 48 63
f 49 65 64
f 48 49 64
f 50 66 65
f 49 50 65
f 35 52 66
f 50 35 66
f 67 68 69
f 70 67 69
f 71 70 69
f 72 71 69
f 73 72 69
f 74 73 69
f 75 74 69
f 76 75 69
f 77 76 69
f 78 77 69
f 79 78 69
f 80 79 69
f 81 80 69
f 82 81 69
f 83 82 69
f 68 83 69
f 67 84 85
f 68 67 85
f 70 86 84
f 67 70 84
f 71 87 86
f 70 71 86
f 72 88 87
f 71 72 87
f 73 89 88
f 72 73 88
f 74 90 89
f 73 74 89
f 75 91 90
f 74 75 90
f 76 92 91
f 75 76 91
f 77 93 92
f 76 77 92
f 78 94 93
f 77 78 93
f 79 95 94
f 78 79 94
f 80 96 95
f 79 80 95
f 81 97 96
f 80 81 96
f 82 98 97
f 81 82 97
f 83 99 98
f 82 83 98
f 68 85 99
f 83 68 99
f 100 101 102
f 103 100 102
f 104 103 102
f 105 104 102
f 106 105 102
f 107 106 102
f 108 107 102
f 109 108 102
f 110 109 102
f 111 110 102
f 112 111 102
f 113 112 102
f 114 113 102
f 115 114 102
f 116 115 102
f 101 116 102
f 100 117 118
f 101 100 118
f 103 119 117
f 100 103 117
f 104 120 119
f 103 104 119
f 105 121 120
f 104 105 120
f 106 122 121
f 105 106 121
f 107 123 122
f 106 107 122
f 108 124 123
f 107 108 123
f 109 125 124
f 108 109 124
f 110 126 125
f 109 110 125
f 111 127 126
f 110 111 126
f 112 128 127
f 111 112 127
f 113 129 128
f 112 113 128
f 114 130 129
f 113 114 129
f 115 131 130
f 114 115 130
f 116 132 131
f 115 116 131
f 101 118 132
f 116 101 132
f 133 134 135
f 136 133 135
f 137 136 135
f 138 137 135
f 139 138 135
f 140 139 135
f 141 140 135
f 142 141 135
f 143 142 135
f 144 143 135
f 145 144 135
f 146 145 135
f 147 146 135
f 148 147 135
f 149 148 135
f 134 149 135
f 133 150 151
f 134 133 151
f 136 152 150
f 133 136 150
f 137 153 152
f 136 137 152
f 138 154 153
f 137 138 153
f 139 155 154
f 138 139 154
f 140 156 155
f 139 140 155
f 141 157 156
f 140 141 156
f 142 158 157
f 141 142 157
f 143 159 158
f 142 143 158
f 144 160 159
f 143 144 159
f 145 161 160
f 144 145 160
f 146 162 161
f 145 146 161
f 147 163 162
f 146 147 162
f 148 164 163
f 147 148 163
f 149 165 164
f 148 149 164
f 134 151 165
f 149 134 165
f 166 167 168
f 166 168 169
f 166 170 171
f 166 171 167
f 169 172 170
f 169 170 166
f 168 173 172
f 168 172 169
f 167 171 173
f 167 173 168
f 174 171 170
f 174 170 175
f 175 170 172
f 175 172 176
f 176 172 173
f 176 173 177
f 177 173 171
f 177 171 174
f 178 179 180
f 181 178 180
f 175 181 180
f 174 175 180
f 176 178 181
f 175 176 181
f 174 180 179
f 177 174 179
f 182 183 184
f 185 182 184
f 186 187 183
f 182 186 183
f 188 189 187
f 186 188 187
f 190 191 189
f 188 190 189
f 192 193 191
f 190 192 191
f 194 195 193
f 192 194 193
f 196 197 195
f 194 196 195
f 198 199 197
f 196 198 197
f 200 201 199
f 198 200 199
f 202 203 201
f 200 202 201
f 204 205 203
f 202 204 203
f 206 207 205
f 204 206 205
f 208 209 207
f 206 208 207
f 210 211 209
f 208 210 209
f 212 213 211
f 210 212 211
f 185 184 213
f 212 185 213
f 214 184 183
f 214 183 187
f 214 187 189
f 214 189 191
f 214 191 193
f 214 193 195
f 214 195 197
f 214 197 199
f 214 199 201
f 214 201 203
f 214 203 205
f 214 205 207
f 214 207 209
f 214 209 211
f 214 211 213
f 214 213 184
f 215 216 217
f 218 215 217
f 219 220 216
f 215 219 216
f 221 222 220
f 219 221 220
f 223 224 222
f 221 223 222
f 225 226 224
f 223 225 224
f 227 228 226
f 225 227 226
f 229 230 228
f 227 229 228
f 231 232 230
f 229 231 230
f 233 234 232
f 231 233 232
f 235 236 234
f 233 235 234
f 237 238 236
f 235 237 236
f 239 240 238
f 237 239 238
f 241 242 240
f 239 241 240
f 243 244 242
f 241 243 242
f 245 246 244
f 243 245 244
f 218 217 246
f 245 218 246
f 247 217 216
f 247 216 220
f 247 220 222
f 247 222 224
f 247 224 226
f 247 226 228
f 247 228 230
f 247 230 232
f 247 232 234
f 247 234 236
f 247 236 238
f 247 238 240
f 247 240 242
f 247 242 244
f 247 244 246
f 247 246 217
f 248 249 250
f 251 248 250
f 252 253 249
f 248 252 249
f 254 255 253
f 252 254 253
f 256 257 255
f 254 256 255
f 258 259 257
f 256 258 257
f 260 261 259
f 258 260 259
f 262 263 261
f 260 262 261
f 264 265 263
f 262 264 263
f 266 267 265
f 264 266 265
f 268 269 267
f 266 268 267
f 270 271 269
f 268 270 269
f 272 273 271
f 270 272 271
f 274 275 273
f 272 274 273
f 276 277 275
f 274 276 275
f 278 279 277
f 276 278 277
f 251 250 279
f 278 251 279
f 280 250 249
f 280 249 253
f 280 253 255
f 280 255 257
f 280 257 259
f 280 259 261
f 280 261 263
f 280 263 265
f 280 265 267
f 280 267 269
f 280 269 271
f 280 271 273
f 280 273 275
f 280 275 277
f 280 277 279
f 280 279 250
f 281 282 283
f 284 281 283
f 285 286 282
f 281 285 282
f 287 288 286
f 285 287 286
f 289 290 288
f 287 289 288
f 291 292 290
f 289 291 290
f 293 294 292
f 291 293 292
f 295 296 294
f 293 295 294
f 297 298 296
f 295 297 296
f 299 300 298
f 297 299 298
f 301 302 300
f 299 301 300
f 303 304 302
f 301 303 302
f 305 306 304
f 303 305 304
f 307 308 306
f 305 307 306
f 309 310 308
f 307 309 308
f 311 312 310
f 309 311 310
f 284 283 312
f 311 284 312
f 313 283 282
f 313 282 286
f 313 286 288
f 313 288 290
f 313 290 292
f 313 292 294
f 313 294 296
f 313 296 298
f 313 298 300
f 313 300 302
f 313 302 304
f 313 304 306
f 313 306 308
f 313 308 310
f 313 310 312
f 313 312 283
f 314 315 316
f 317 314 316
f 318 319 315
f 314 318 315
f 320 321 319
f 318 320 319
f 322 323 321
f 320 322 321
f 324 325 323
f 322 324 323
f 326 327 325
f 324 326 325
f 328 329 327
f 326 328 327
f 330 331 329
f 328 330 329
f 332 333 331
f 330 332 331
f 334 335 333
f 332 334 333
f 336 337 335
f 334 336 335
f 338 339 337
f 336 338 337
f 340 341 339
f 338 340 339
f 342 343 341
f 340 342 341
f 344 345 343
f 342 344 343
f 317 316 345
f 344 317 345
f 346 316 315
f 346 315 319
f 346 319 321
f 346 321 323
f 346 323 325
f 346 325 327
f 346 327 329
f 346 329 331
f 346 331 333
f 346 333 335
f 346 335 337
f 346 337 339
f 346 339 341
f 346 341 343
f 346 343 345
f 346 345 316
f 347 348 349
f 350 347 349
f 351 352 348
f 347 351 348
f 353 354 352
f 351 353 352
f 355 356 354
f 353 355 354
f 357 358 356
f 355 357 356
f 359 360 358
f 357 359 358
f 361 362 360
f 359 361 360
f 363 364 362
f 361 363 362
f 365 366 364
f 363 365 364
f 367 368 366
f 365 367 366
f 369 370 368
f 367 369 368
f 371 372 370
f 369 371 370
f 373 374 372
f 371 373 372
f 375 376 374
f 373 375 374
f 377 378 376
f 375 377 376
f 350 349 378
f 377 350 378
f 379 349 348
f 379 348 352
f 379 352 354
f 379 354 356
f 379 356 358
f 379 358 360
f 379 360 362
f 379 362 364
f 379 364 366
f 379 366 368
f 379 368 370
f 379 370 372
f 379 372 374
f 379 374 376
f 379 376 378
f 379 378 349
f 176 177 179
f 176 179 178
