# Botball Lab: metres, +Y up, centred XZ, base Y=0
s off
v 0.0031058 0.0267911 0.0016000
v 0.0000000 0.0272000 0.0016000
v 0.0000000 0.0272000 0.0008000
v 0.0031058 0.0267911 0.0008000
v 0.0000000 0.0266320 0.0005680
v 0.0029588 0.0262425 0.0005680
v 0.0000000 0.0264000 -0.0000000
v 0.0028988 0.0260184 -0.0000000
v 0.0000000 0.0266320 -0.0005680
v 0.0029588 0.0262425 -0.0005680
v 0.0000000 0.0272000 -0.0008000
v 0.0031058 0.0267911 -0.0008000
v 0.0000000 0.0272000 -0.0016000
v 0.0031058 0.0267911 -0.0016000
v 0.0000000 0.0288000 -0.0016000
v 0.0035199 0.0283366 -0.0016000
v 0.0035199 0.0283366 0.0016000
v 0.0000000 0.0288000 0.0016000
v 0.0000000 0.0299320 -0.0011320
v 0.0038129 0.0294300 -0.0011320
v 0.0000000 0.0304000 -0.0000000
v 0.0039340 0.0298821 -0.0000000
v 0.0000000 0.0299320 0.0011320
v 0.0038129 0.0294300 0.0011320
v 0.0115911 0.0120942 0.0016000
v 0.0120000 0.0152000 0.0016000
v 0.0120000 0.0152000 0.0008000
v 0.0115911 0.0120942 0.0008000
v 0.0114320 0.0152000 0.0005680
v 0.0110425 0.0122412 0.0005680
v 0.0112000 0.0152000 -0.0000000
v 0.0108184 0.0123012 -0.0000000
v 0.0114320 0.0152000 -0.0005680
v 0.0110425 0.0122412 -0.0005680
v 0.0120000 0.0152000 -0.0008000
v 0.0115911 0.0120942 -0.0008000
v 0.0120000 0.0152000 -0.0016000
v 0.0115911 0.0120942 -0.0016000
v 0.0136000 0.0152000 -0.0016000
v 0.0131366 0.0116801 -0.0016000
v 0.0131366 0.0116801 0.0016000
v 0.0136000 0.0152000 0.0016000
v 0.0147320 0.0152000 -0.0011320
v 0.0142300 0.0113871 -0.0011320
v 0.0152000 0.0152000 -0.0000000
v 0.0146821 0.0112660 -0.0000000
v 0.0147320 0.0152000 0.0011320
v 0.0142300 0.0113871 0.0011320
v -0.0031058 0.0036089 0.0016000
v 0.0000000 0.0032000 0.0016000
v 0.0000000 0.0032000 0.0008000
v -0.0031058 0.0036089 0.0008000
v 0.0000000 0.0037680 0.0005680
v -0.0029588 0.0041575 0.0005680
v 0.0000000 0.0040000 -0.0000000
v -0.0028988 0.0043816 -0.0000000
v 0.0000000 0.0037680 -0.0005680
v -0.0029588 0.0041575 -0.0005680
v 0.0000000 0.0032000 -0.0008000
v -0.0031058 0.0036089 -0.0008000
v 0.0000000 0.0032000 -0.0016000
v -0.0031058 0.0036089 -0.0016000
v 0.0000000 0.0016000 -0.0016000
v -0.0035199 0.0020634 -0.0016000
v -0.0035199 0.0020634 0.0016000
v 0.0000000 0.0016000 0.0016000
v 0.0000000 0.0004680 -0.0011320
v -0.0038129 0.0009700 -0.0011320
v 0.0000000 0.0000000 -0.0000000
v -0.0039340 0.0005179 -0.0000000
v 0.0000000 0.0004680 0.0011320
v -0.0038129 0.0009700 0.0011320
v -0.0115911 0.0183058 0.0016000
v -0.0120000 0.0152000 0.0016000
v -0.0120000 0.0152000 0.0008000
v -0.0115911 0.0183058 0.0008000
v -0.0114320 0.0152000 0.0005680
v -0.0110425 0.0181588 0.0005680
v -0.0112000 0.0152000 -0.0000000
v -0.0108184 0.0180988 -0.0000000
v -0.0114320 0.0152000 -0.0005680
v -0.0110425 0.0181588 -0.0005680
v -0.0120000 0.0152000 -0.0008000
v -0.0115911 0.0183058 -0.0008000
v -0.0120000 0.0152000 -0.0016000
v -0.0115911 0.0183058 -0.0016000
v -0.0136000 0.0152000 -0.0016000
v -0.0131366 0.0187199 -0.0016000
v -0.0131366 0.0187199 0.0016000
v -0.0136000 0.0152000 0.0016000
v -0.0147320 0.0152000 -0.0011320
v -0.0142300 0.0190129 -0.0011320
v -0.0152000 0.0152000 -0.0000000
v -0.0146821 0.0191341 -0.0000000
v -0.0147320 0.0152000 0.0011320
v -0.0142300 0.0190129 0.0011320
v 0.0060000 0.0255923 0.0016000
v 0.0060000 0.0255923 0.0008000
v 0.0057160 0.0251004 0.0005680
v 0.0056000 0.0248995 -0.0000000
v 0.0057160 0.0251004 -0.0005680
v 0.0060000 0.0255923 -0.0008000
v 0.0060000 0.0255923 -0.0016000
v 0.0068000 0.0269780 -0.0016000
v 0.0068000 0.0269780 0.0016000
v 0.0073660 0.0279583 -0.0011320
v 0.0076000 0.0283636 -0.0000000
v 0.0073660 0.0279583 0.0011320
v 0.0103923 0.0092000 0.0016000
v 0.0103923 0.0092000 0.0008000
v 0.0099004 0.0094840 0.0005680
v 0.0096995 0.0096000 -0.0000000
v 0.0099004 0.0094840 -0.0005680
v 0.0103923 0.0092000 -0.0008000
v 0.0103923 0.0092000 -0.0016000
v 0.0117779 0.0084000 -0.0016000
v 0.0117779 0.0084000 0.0016000
v 0.0127583 0.0078340 -0.0011320
v 0.0131636 0.0076000 -0.0000000
v 0.0127583 0.0078340 0.0011320
v -0.0060000 0.0048077 0.0016000
v -0.0060000 0.0048077 0.0008000
v -0.0057160 0.0052996 0.0005680
v -0.0056000 0.0055005 -0.0000000
v -0.0057160 0.0052996 -0.0005680
v -0.0060000 0.0048077 -0.0008000
v -0.0060000 0.0048077 -0.0016000
v -0.0068000 0.0034221 -0.0016000
v -0.0068000 0.0034221 0.0016000
v -0.0073660 0.0024417 -0.0011320
v -0.0076000 0.0020364 -0.0000000
v -0.0073660 0.0024417 0.0011320
v -0.0103923 0.0212000 0.0016000
v -0.0103923 0.0212000 0.0008000
v -0.0099004 0.0209160 0.0005680
v -0.0096995 0.0208000 -0.0000000
v -0.0099004 0.0209160 -0.0005680
v -0.0103923 0.0212000 -0.0008000
v -0.0103923 0.0212000 -0.0016000
v -0.0117779 0.0220000 -0.0016000
v -0.0117779 0.0220000 0.0016000
v -0.0127583 0.0225660 -0.0011320
v -0.0131636 0.0228000 -0.0000000
v -0.0127583 0.0225660 0.0011320
v 0.0084853 0.0236853 0.0016000
v 0.0084853 0.0236853 0.0008000
v 0.0080836 0.0232836 0.0005680
v 0.0079196 0.0231196 -0.0000000
v 0.0080836 0.0232836 -0.0005680
v 0.0084853 0.0236853 -0.0008000
v 0.0084853 0.0236853 -0.0016000
v 0.0068000 0.0269779 -0.0016000
v 0.0096167 0.0248167 -0.0016000
v 0.0096167 0.0248167 0.0016000
v 0.0068000 0.0269779 0.0016000
v 0.0104171 0.0256171 -0.0011320
v 0.0107480 0.0259480 -0.0000000
v 0.0104171 0.0256171 0.0011320
v 0.0084853 0.0067147 0.0016000
v 0.0084853 0.0067147 0.0008000
v 0.0080836 0.0071164 0.0005680
v 0.0079196 0.0072804 -0.0000000
v 0.0080836 0.0071164 -0.0005680
v 0.0084853 0.0067147 -0.0008000
v 0.0084853 0.0067147 -0.0016000
v 0.0096166 0.0055834 -0.0016000
v 0.0096166 0.0055834 0.0016000
v 0.0104171 0.0047829 -0.0011320
v 0.0107480 0.0044520 -0.0000000
v 0.0104171 0.0047829 0.0011320
v -0.0084853 0.0067147 0.0016000
v -0.0084853 0.0067147 0.0008000
v -0.0080836 0.0071164 0.0005680
v -0.0079196 0.0072804 -0.0000000
v -0.0080836 0.0071164 -0.0005680
v -0.0084853 0.0067147 -0.0008000
v -0.0084853 0.0067147 -0.0016000
v -0.0096167 0.0055834 -0.0016000
v -0.0096167 0.0055834 0.0016000
v -0.0104171 0.0047829 -0.0011320
v -0.0107480 0.0044520 -0.0000000
v -0.0104171 0.0047829 0.0011320
v -0.0084853 0.0236853 0.0016000
v -0.0084853 0.0236853 0.0008000
v -0.0080836 0.0232837 0.0005680
v -0.0079196 0.0231196 -0.0000000
v -0.0080836 0.0232837 -0.0005680
v -0.0084853 0.0236853 -0.0008000
v -0.0084853 0.0236853 -0.0016000
v -0.0096166 0.0248167 -0.0016000
v -0.0096166 0.0248167 0.0016000
v -0.0104171 0.0256171 -0.0011320
v -0.0107480 0.0259480 -0.0000000
v -0.0104171 0.0256171 0.0011320
v 0.0103923 0.0212000 0.0016000
v 0.0103923 0.0212000 0.0008000
v 0.0080836 0.0232837 0.0005680
v 0.0099004 0.0209160 0.0005680
v 0.0096995 0.0208000 -0.0000000
v 0.0080836 0.0232837 -0.0005680
v 0.0099004 0.0209160 -0.0005680
v 0.0103923 0.0212000 -0.0008000
v 0.0103923 0.0212000 -0.0016000
v 0.0117779 0.0220000 -0.0016000
v 0.0117779 0.0220000 0.0016000
v 0.0127583 0.0225660 -0.0011320
v 0.0131636 0.0228000 -0.0000000
v 0.0127583 0.0225660 0.0011320
v 0.0060000 0.0048077 0.0016000
v 0.0060000 0.0048077 0.0008000
v 0.0057160 0.0052996 0.0005680
v 0.0056000 0.0055005 -0.0000000
v 0.0057160 0.0052996 -0.0005680
v 0.0060000 0.0048077 -0.0008000
v 0.0060000 0.0048077 -0.0016000
v 0.0096167 0.0055834 -0.0016000
v 0.0068000 0.0034221 -0.0016000
v 0.0068000 0.0034221 0.0016000
v 0.0096167 0.0055834 0.0016000
v 0.0073660 0.0024417 -0.0011320
v 0.0076000 0.0020364 -0.0000000
v 0.0073660 0.0024417 0.0011320
v -0.0103923 0.0092000 0.0016000
v -0.0103923 0.0092000 0.0008000
v -0.0099004 0.0094840 0.0005680
v -0.0096995 0.0096000 -0.0000000
v -0.0099004 0.0094840 -0.0005680
v -0.0103923 0.0092000 -0.0008000
v -0.0103923 0.0092000 -0.0016000
v -0.0117779 0.0084000 -0.0016000
v -0.0117779 0.0084000 0.0016000
v -0.0127583 0.0078340 -0.0011320
v -0.0131636 0.0076000 -0.0000000
v -0.0127583 0.0078340 0.0011320
v -0.0060000 0.0255923 0.0016000
v -0.0060000 0.0255923 0.0008000
v -0.0057160 0.0251004 0.0005680
v -0.0056000 0.0248995 -0.0000000
v -0.0057160 0.0251004 -0.0005680
v -0.0060000 0.0255923 -0.0008000
v -0.0060000 0.0255923 -0.0016000
v -0.0096167 0.0248167 -0.0016000
v -0.0068000 0.0269780 -0.0016000
v -0.0068000 0.0269780 0.0016000
v -0.0096167 0.0248167 0.0016000
v -0.0073660 0.0279583 -0.0011320
v -0.0076000 0.0283636 -0.0000000
v -0.0073660 0.0279583 0.0011320
v 0.0115911 0.0183058 0.0016000
v 0.0115911 0.0183058 0.0008000
v 0.0110425 0.0181588 0.0005680
v 0.0108184 0.0180988 -0.0000000
v 0.0110425 0.0181588 -0.0005680
v 0.0115911 0.0183058 -0.0008000
v 0.0115911 0.0183058 -0.0016000
v 0.0131366 0.0187199 -0.0016000
v 0.0131366 0.0187199 0.0016000
v 0.0142300 0.0190129 -0.0011320
v 0.0146821 0.0191341 -0.0000000
v 0.0142300 0.0190129 0.0011320
v 0.0031058 0.0036089 0.0016000
v 0.0031058 0.0036089 0.0008000
v 0.0029588 0.0041575 0.0005680
v 0.0028988 0.0043816 -0.0000000
v 0.0029588 0.0041575 -0.0005680
v 0.0031058 0.0036089 -0.0008000
v 0.0031058 0.0036089 -0.0016000
v 0.0035199 0.0020634 -0.0016000
v 0.0035199 0.0020634 0.0016000
v 0.0038129 0.0009700 -0.0011320
v 0.0039341 0.0005179 -0.0000000
v 0.0038129 0.0009700 0.0011320
v -0.0115911 0.0120942 0.0016000
v -0.0115911 0.0120942 0.0008000
v -0.0110425 0.0122412 0.0005680
v -0.0108184 0.0123012 -0.0000000
v -0.0110425 0.0122412 -0.0005680
v -0.0115911 0.0120942 -0.0008000
v -0.0115911 0.0120942 -0.0016000
v -0.0131366 0.0116801 -0.0016000
v -0.0131366 0.0116801 0.0016000
v -0.0142300 0.0113871 -0.0011320
v -0.0146821 0.0112660 -0.0000000
v -0.0142300 0.0113871 0.0011320
v -0.0031058 0.0267911 0.0016000
v -0.0031058 0.0267911 0.0008000
v -0.0029588 0.0262425 0.0005680
v -0.0028988 0.0260184 -0.0000000
v -0.0029588 0.0262425 -0.0005680
v -0.0031058 0.0267911 -0.0008000
v -0.0031058 0.0267911 -0.0016000
v -0.0068000 0.0269779 -0.0016000
v -0.0035199 0.0283366 -0.0016000
v -0.0035199 0.0283366 0.0016000
v -0.0068000 0.0269779 0.0016000
v -0.0038129 0.0294300 -0.0011320
v -0.0039341 0.0298821 -0.0000000
v -0.0038129 0.0294300 0.0011320
v 0.0039340 0.0005179 -0.0000000
v -0.0039340 0.0298821 -0.0000000
f 1 2 3
f 1 3 4
f 4 3 5
f 4 5 6
f 6 5 7
f 6 7 8
f 8 7 9
f 8 9 10
f 10 9 11
f 10 11 12
f 12 11 13
f 12 13 14
f 14 13 15
f 14 15 16
f 2 1 17
f 2 17 18
f 16 15 19
f 16 19 20
f 20 19 21
f 20 21 22
f 22 21 23
f 22 23 24
f 24 23 18
f 24 18 17
f 25 26 27
f 25 27 28
f 28 27 29
f 28 29 30
f 30 29 31
f 30 31 32
f 32 31 33
f 32 33 34
f 34 33 35
f 34 35 36
f 36 35 37
f 36 37 38
f 38 37 39
f 38 39 40
f 26 25 41
f 26 41 42
f 40 39 43
f 40 43 44
f 44 43 45
f 44 45 46
f 46 45 47
f 46 47 48
f 48 47 42
f 48 42 41
f 49 50 51
f 49 51 52
f 52 51 53
f 52 53 54
f 54 53 55
f 54 55 56
f 56 55 57
f 56 57 58
f 58 57 59
f 58 59 60
f 60 59 61
f 60 61 62
f 62 61 63
f 62 63 64
f 50 49 65
f 50 65 66
f 64 63 67
f 64 67 68
f 68 67 69
f 68 69 70
f 70 69 71
f 70 71 72
f 72 71 66
f 72 66 65
f 73 74 75
f 73 75 76
f 76 75 77
f 76 77 78
f 78 77 79
f 78 79 80
f 80 79 81
f 80 81 82
f 82 81 83
f 82 83 84
f 84 83 85
f 84 85 86
f 86 85 87
f 86 87 88
f 74 73 89
f 74 89 90
f 88 87 91
f 88 91 92
f 92 91 93
f 92 93 94
f 94 93 95
f 94 95 96
f 96 95 90
f 96 90 89
f 97 1 4
f 97 4 98
f 98 4 6
f 98 6 99
f 99 6 8
f 99 8 100
f 100 8 10
f 100 10 101
f 101 10 12
f 101 12 102
f 102 12 14
f 102 14 103
f 103 14 16
f 103 16 104
f 1 97 105
f 1 105 17
f 104 16 20
f 104 20 106
f 106 20 22
f 106 22 107
f 107 22 24
f 107 24 108
f 108 24 17
f 108 17 105
f 109 25 28
f 109 28 110
f 110 28 30
f 110 30 111
f 111 30 32
f 111 32 112
f 112 32 34
f 112 34 113
f 113 34 36
f 113 36 114
f 114 36 38
f 114 38 115
f 115 38 40
f 115 40 116
f 25 109 117
f 25 117 41
f 116 40 44
f 116 44 118
f 118 44 46
f 118 46 119
f 119 46 48
f 119 48 120
f 120 48 41
f 120 41 117
f 121 49 52
f 121 52 122
f 122 52 54
f 122 54 123
f 123 54 56
f 123 56 124
f 124 56 58
f 124 58 125
f 125 58 60
f 125 60 126
f 126 60 62
f 126 62 127
f 127 62 64
f 127 64 128
f 49 121 129
f 49 129 65
f 128 64 68
f 128 68 130
f 130 68 70
f 130 70 131
f 131 70 72
f 131 72 132
f 132 72 65
f 132 65 129
f 133 73 76
f 133 76 134
f 134 76 78
f 134 78 135
f 135 78 80
f 135 80 136
f 136 80 82
f 136 82 137
f 137 82 84
f 137 84 138
f 138 84 86
f 138 86 139
f 139 86 88
f 139 88 140
f 73 133 141
f 73 141 89
f 140 88 92
f 140 92 142
f 142 92 94
f 142 94 143
f 143 94 96
f 143 96 144
f 144 96 89
f 144 89 141
f 145 97 98
f 145 98 146
f 146 98 99
f 146 99 147
f 147 99 100
f 147 100 148
f 148 100 101
f 148 101 149
f 149 101 102
f 149 102 150
f 150 102 103
f 150 103 151
f 151 103 152
f 151 152 153
f 97 145 154
f 97 154 155
f 153 152 106
f 153 106 156
f 156 106 107
f 156 107 157
f 157 107 108
f 157 108 158
f 158 108 155
f 158 155 154
f 159 109 110
f 159 110 160
f 160 110 111
f 160 111 161
f 161 111 112
f 161 112 162
f 162 112 113
f 162 113 163
f 163 113 114
f 163 114 164
f 164 114 115
f 164 115 165
f 165 115 116
f 165 116 166
f 109 159 167
f 109 167 117
f 166 116 118
f 166 118 168
f 168 118 119
f 168 119 169
f 169 119 120
f 169 120 170
f 170 120 117
f 170 117 167
f 171 121 122
f 171 122 172
f 172 122 123
f 172 123 173
f 173 123 124
f 173 124 174
f 174 124 125
f 174 125 175
f 175 125 126
f 175 126 176
f 176 126 127
f 176 127 177
f 177 127 128
f 177 128 178
f 121 171 179
f 121 179 129
f 178 128 130
f 178 130 180
f 180 130 131
f 180 131 181
f 181 131 132
f 181 132 182
f 182 132 129
f 182 129 179
f 183 133 134
f 183 134 184
f 184 134 135
f 184 135 185
f 185 135 136
f 185 136 186
f 186 136 137
f 186 137 187
f 187 137 138
f 187 138 188
f 188 138 139
f 188 139 189
f 189 139 140
f 189 140 190
f 133 183 191
f 133 191 141
f 190 140 142
f 190 142 192
f 192 142 143
f 192 143 193
f 193 143 144
f 193 144 194
f 194 144 141
f 194 141 191
f 195 145 146
f 195 146 196
f 196 146 197
f 196 197 198
f 198 197 148
f 198 148 199
f 199 148 200
f 199 200 201
f 201 200 150
f 201 150 202
f 202 150 151
f 202 151 203
f 203 151 153
f 203 153 204
f 145 195 205
f 145 205 154
f 204 153 156
f 204 156 206
f 206 156 157
f 206 157 207
f 207 157 158
f 207 158 208
f 208 158 154
f 208 154 205
f 209 159 160
f 209 160 210
f 210 160 161
f 210 161 211
f 211 161 162
f 211 162 212
f 212 162 163
f 212 163 213
f 213 163 164
f 213 164 214
f 214 164 165
f 214 165 215
f 215 165 216
f 215 216 217
f 159 209 218
f 159 218 219
f 217 216 168
f 217 168 220
f 220 168 169
f 220 169 221
f 221 169 170
f 221 170 222
f 222 170 219
f 222 219 218
f 223 171 172
f 223 172 224
f 224 172 173
f 224 173 225
f 225 173 174
f 225 174 226
f 226 174 175
f 226 175 227
f 227 175 176
f 227 176 228
f 228 176 177
f 228 177 229
f 229 177 178
f 229 178 230
f 171 223 231
f 171 231 179
f 230 178 180
f 230 180 232
f 232 180 181
f 232 181 233
f 233 181 182
f 233 182 234
f 234 182 179
f 234 179 231
f 235 183 184
f 235 184 236
f 236 184 185
f 236 185 237
f 237 185 186
f 237 186 238
f 238 186 187
f 238 187 239
f 239 187 188
f 239 188 240
f 240 188 189
f 240 189 241
f 241 189 242
f 241 242 243
f 183 235 244
f 183 244 245
f 243 242 192
f 243 192 246
f 246 192 193
f 246 193 247
f 247 193 194
f 247 194 248
f 248 194 245
f 248 245 244
f 249 195 196
f 249 196 250
f 250 196 198
f 250 198 251
f 251 198 199
f 251 199 252
f 252 199 201
f 252 201 253
f 253 201 202
f 253 202 254
f 254 202 203
f 254 203 255
f 255 203 204
f 255 204 256
f 195 249 257
f 195 257 205
f 256 204 206
f 256 206 258
f 258 206 207
f 258 207 259
f 259 207 208
f 259 208 260
f 260 208 205
f 260 205 257
f 261 209 210
f 261 210 262
f 262 210 211
f 262 211 263
f 263 211 212
f 263 212 264
f 264 212 213
f 264 213 265
f 265 213 214
f 265 214 266
f 266 214 215
f 266 215 267
f 267 215 217
f 267 217 268
f 209 261 269
f 209 269 218
f 268 217 220
f 268 220 270
f 270 220 221
f 270 221 271
f 271 221 222
f 271 222 272
f 272 222 218
f 272 218 269
f 273 223 224
f 273 224 274
f 274 224 225
f 274 225 275
f 275 225 226
f 275 226 276
f 276 226 227
f 276 227 277
f 277 227 228
f 277 228 278
f 278 228 229
f 278 229 279
f 279 229 230
f 279 230 280
f 223 273 281
f 223 281 231
f 280 230 232
f 280 232 282
f 282 232 233
f 282 233 283
f 283 233 234
f 283 234 284
f 284 234 231
f 284 231 281
f 285 235 236
f 285 236 286
f 286 236 237
f 286 237 287
f 287 237 238
f 287 238 288
f 288 238 239
f 288 239 289
f 289 239 240
f 289 240 290
f 290 240 241
f 290 241 291
f 291 241 292
f 291 292 293
f 235 285 294
f 235 294 295
f 293 292 246
f 293 246 296
f 296 246 247
f 296 247 297
f 297 247 248
f 297 248 298
f 298 248 295
f 298 295 294
f 26 249 250
f 26 250 27
f 27 250 251
f 27 251 29
f 29 251 252
f 29 252 31
f 31 252 253
f 31 253 33
f 33 253 254
f 33 254 35
f 35 254 255
f 35 255 37
f 37 255 256
f 37 256 39
f 249 26 42
f 249 42 257
f 39 256 258
f 39 258 43
f 43 258 259
f 43 259 45
f 45 259 260
f 45 260 47
f 47 260 257
f 47 257 42
f 50 261 262
f 50 262 51
f 51 262 263
f 51 263 53
f 53 263 264
f 53 264 55
f 55 264 265
f 55 265 57
f 57 265 266
f 57 266 59
f 59 266 267
f 59 267 61
f 61 267 268
f 61 268 63
f 261 50 66
f 261 66 269
f 63 268 270
f 63 270 67
f 67 270 299
f 67 299 69
f 69 299 272
f 69 272 71
f 71 272 269
f 71 269 66
f 74 273 274
f 74 274 75
f 75 274 275
f 75 275 77
f 77 275 276
f 77 276 79
f 79 276 277
f 79 277 81
f 81 277 278
f 81 278 83
f 83 278 279
f 83 279 85
f 85 279 280
f 85 280 87
f 273 74 90
f 273 90 281
f 87 280 282
f 87 282 91
f 91 282 283
f 91 283 93
f 93 283 284
f 93 284 95
f 95 284 281
f 95 281 90
f 2 285 286
f 2 286 3
f 3 286 287
f 3 287 5
f 5 287 288
f 5 288 7
f 7 288 289
f 7 289 9
f 9 289 290
f 9 290 11
f 11 290 291
f 11 291 13
f 13 291 293
f 13 293 15
f 285 2 18
f 285 18 294
f 15 293 296
f 15 296 19
f 19 296 300
f 19 300 21
f 21 300 298
f 21 298 23
f 23 298 294
f 23 294 18
