# Botball Lab: metres, +Y up, centred XZ, base Y=0
s off
v 0.0000000 0.0092000 0.0032000
v -0.0009185 0.0093826 0.0032000
v -0.0012246 0.0086435 0.0032000
v 0.0000000 0.0084000 0.0032000
v -0.0016970 0.0099030 0.0032000
v -0.0022627 0.0093373 0.0032000
v -0.0022174 0.0106815 0.0032000
v -0.0029565 0.0103754 0.0032000
v -0.0024000 0.0116000 0.0032000
v -0.0032000 0.0116000 0.0032000
v -0.0022174 0.0125185 0.0032000
v -0.0029565 0.0128246 0.0032000
v -0.0016970 0.0132970 0.0032000
v -0.0022627 0.0138627 0.0032000
v -0.0009185 0.0138174 0.0032000
v -0.0012246 0.0145565 0.0032000
v 0.0000000 0.0140000 0.0032000
v 0.0000000 0.0148000 0.0032000
v 0.0009185 0.0138174 0.0032000
v 0.0012246 0.0145565 0.0032000
v 0.0016970 0.0132970 0.0032000
v 0.0022627 0.0138627 0.0032000
v 0.0022174 0.0125185 0.0032000
v 0.0029565 0.0128246 0.0032000
v 0.0024000 0.0116000 0.0032000
v 0.0032000 0.0116000 0.0032000
v 0.0022174 0.0106815 0.0032000
v 0.0029565 0.0103754 0.0032000
v 0.0016970 0.0099030 0.0032000
v 0.0022627 0.0093373 0.0032000
v 0.0009185 0.0093826 0.0032000
v 0.0012246 0.0086435 0.0032000
v 0.0029565 0.0103754 0.0040000
v 0.0032000 0.0116000 0.0040000
v 0.0022627 0.0093373 0.0040000
v 0.0012246 0.0086435 0.0040000
v 0.0000000 0.0084000 0.0040000
v -0.0012246 0.0086435 0.0040000
v -0.0022627 0.0093373 0.0040000
v -0.0029565 0.0103754 0.0040000
v -0.0032000 0.0116000 0.0040000
v -0.0029565 0.0128246 0.0040000
v -0.0022627 0.0138627 0.0040000
v -0.0012246 0.0145565 0.0040000
v 0.0000000 0.0148000 0.0040000
v 0.0012246 0.0145565 0.0040000
v 0.0022627 0.0138627 0.0040000
v 0.0029565 0.0128246 0.0040000
v 0.0036000 0.0116000 0.0040000
v 0.0033260 0.0129777 0.0040000
v 0.0025456 0.0141456 0.0040000
v 0.0013777 0.0149260 0.0040000
v 0.0000000 0.0152000 0.0040000
v -0.0013777 0.0149260 0.0040000
v -0.0025456 0.0141456 0.0040000
v -0.0033260 0.0129777 0.0040000
v -0.0036000 0.0116000 0.0040000
v -0.0033260 0.0102223 0.0040000
v -0.0025456 0.0090544 0.0040000
v -0.0013777 0.0082740 0.0040000
v 0.0000000 0.0080000 0.0040000
v 0.0013777 0.0082740 0.0040000
v 0.0025456 0.0090544 0.0040000
v 0.0033260 0.0102223 0.0040000
v 0.0022174 0.0106815 -0.0032000
v 0.0024000 0.0116000 -0.0032000
v 0.0016970 0.0099030 -0.0032000
v 0.0009185 0.0093826 -0.0032000
v 0.0000000 0.0092000 -0.0032000
v -0.0009185 0.0093826 -0.0032000
v -0.0016970 0.0099030 -0.0032000
v -0.0022174 0.0106815 -0.0032000
v -0.0024000 0.0116000 -0.0032000
v -0.0022174 0.0125185 -0.0032000
v -0.0016970 0.0132970 -0.0032000
v -0.0009185 0.0138174 -0.0032000
v 0.0000000 0.0140000 -0.0032000
v 0.0009185 0.0138174 -0.0032000
v 0.0016970 0.0132970 -0.0032000
v 0.0022174 0.0125185 -0.0032000
v 0.0036000 0.0116000 -0.0040000
v 0.0033260 0.0102223 -0.0040000
v 0.0029565 0.0103754 -0.0040000
v 0.0032000 0.0116000 -0.0040000
v 0.0025456 0.0090544 -0.0040000
v 0.0022627 0.0093373 -0.0040000
v 0.0013777 0.0082740 -0.0040000
v 0.0012246 0.0086435 -0.0040000
v 0.0000000 0.0080000 -0.0040000
v 0.0000000 0.0084000 -0.0040000
v -0.0013777 0.0082740 -0.0040000
v -0.0012246 0.0086435 -0.0040000
v -0.0025456 0.0090544 -0.0040000
v -0.0022627 0.0093373 -0.0040000
v -0.0033260 0.0102223 -0.0040000
v -0.0029565 0.0103754 -0.0040000
v -0.0036000 0.0116000 -0.0040000
v -0.0032000 0.0116000 -0.0040000
v -0.0033260 0.0129777 -0.0040000
v -0.0029565 0.0128246 -0.0040000
v -0.0025456 0.0141456 -0.0040000
v -0.0022627 0.0138627 -0.0040000
v -0.0013777 0.0149260 -0.0040000
v -0.0012246 0.0145565 -0.0040000
v 0.0000000 0.0152000 -0.0040000
v 0.0000000 0.0148000 -0.0040000
v 0.0013777 0.0149260 -0.0040000
v 0.0012246 0.0145565 -0.0040000
v 0.0025456 0.0141456 -0.0040000
v 0.0022627 0.0138627 -0.0040000
v 0.0033260 0.0129777 -0.0040000
v 0.0029565 0.0128246 -0.0040000
v -0.0012246 0.0086435 -0.0032000
v 0.0000000 0.0084000 -0.0032000
v -0.0022627 0.0093373 -0.0032000
v -0.0029565 0.0103754 -0.0032000
v -0.0032000 0.0116000 -0.0032000
v -0.0029565 0.0128246 -0.0032000
v -0.0022627 0.0138627 -0.0032000
v -0.0012246 0.0145565 -0.0032000
v 0.0000000 0.0148000 -0.0032000
v 0.0012246 0.0145565 -0.0032000
v 0.0022627 0.0138627 -0.0032000
v 0.0029565 0.0128246 -0.0032000
v 0.0032000 0.0116000 -0.0032000
v 0.0029565 0.0103754 -0.0032000
v 0.0022627 0.0093373 -0.0032000
v 0.0012246 0.0086435 -0.0032000
v 0.0000000 0.0012000 0.0032000
v -0.0009185 0.0013826 0.0032000
v -0.0012246 0.0006435 0.0032000
v 0.0000000 0.0004000 0.0032000
v -0.0016970 0.0019030 0.0032000
v -0.0022627 0.0013373 0.0032000
v -0.0022174 0.0026815 0.0032000
v -0.0029565 0.0023754 0.0032000
v -0.0024000 0.0036000 0.0032000
v -0.0032000 0.0036000 0.0032000
v -0.0022174 0.0045185 0.0032000
v -0.0029565 0.0048246 0.0032000
v -0.0016970 0.0052970 0.0032000
v -0.0022627 0.0058627 0.0032000
v -0.0009185 0.0058174 0.0032000
v -0.0012246 0.0065565 0.0032000
v 0.0000000 0.0060000 0.0032000
v 0.0000000 0.0068000 0.0032000
v 0.0009185 0.0058174 0.0032000
v 0.0012246 0.0065565 0.0032000
v 0.0016970 0.0052970 0.0032000
v 0.0022627 0.0058627 0.0032000
v 0.0022174 0.0045185 0.0032000
v 0.0029565 0.0048246 0.0032000
v 0.0024000 0.0036000 0.0032000
v 0.0032000 0.0036000 0.0032000
v 0.0022174 0.0026815 0.0032000
v 0.0029565 0.0023754 0.0032000
v 0.0016970 0.0019030 0.0032000
v 0.0022627 0.0013373 0.0032000
v 0.0009185 0.0013826 0.0032000
v 0.0012246 0.0006435 0.0032000
v 0.0029565 0.0023754 0.0040000
v 0.0032000 0.0036000 0.0040000
v 0.0022627 0.0013373 0.0040000
v 0.0012246 0.0006435 0.0040000
v 0.0000000 0.0004000 0.0040000
v -0.0012246 0.0006435 0.0040000
v -0.0022627 0.0013373 0.0040000
v -0.0029565 0.0023754 0.0040000
v -0.0032000 0.0036000 0.0040000
v -0.0029565 0.0048246 0.0040000
v -0.0022627 0.0058627 0.0040000
v -0.0012246 0.0065565 0.0040000
v 0.0000000 0.0068000 0.0040000
v 0.0012246 0.0065565 0.0040000
v 0.0022627 0.0058627 0.0040000
v 0.0029565 0.0048246 0.0040000
v 0.0036000 0.0036000 0.0040000
v 0.0033260 0.0049777 0.0040000
v 0.0025456 0.0061456 0.0040000
v 0.0013777 0.0069260 0.0040000
v 0.0000000 0.0072000 0.0040000
v -0.0013777 0.0069260 0.0040000
v -0.0025456 0.0061456 0.0040000
v -0.0033260 0.0049777 0.0040000
v -0.0036000 0.0036000 0.0040000
v -0.0033260 0.0022223 0.0040000
v -0.0025456 0.0010544 0.0040000
v -0.0013777 0.0002740 0.0040000
v 0.0000000 0.0000000 0.0040000
v 0.0013777 0.0002740 0.0040000
v 0.0025456 0.0010544 0.0040000
v 0.0033260 0.0022223 0.0040000
v 0.0022174 0.0026815 -0.0032000
v 0.0024000 0.0036000 -0.0032000
v 0.0016970 0.0019030 -0.0032000
v 0.0009185 0.0013826 -0.0032000
v 0.0000000 0.0012000 -0.0032000
v -0.0009185 0.0013826 -0.0032000
v -0.0016970 0.0019030 -0.0032000
v -0.0022174 0.0026815 -0.0032000
v -0.0024000 0.0036000 -0.0032000
v -0.0022174 0.0045185 -0.0032000
v -0.0016970 0.0052970 -0.0032000
v -0.0009185 0.0058174 -0.0032000
v 0.0000000 0.0060000 -0.0032000
v 0.0009185 0.0058174 -0.0032000
v 0.0016970 0.0052970 -0.0032000
v 0.0022174 0.0045185 -0.0032000
v 0.0036000 0.0036000 -0.0040000
v 0.0033260 0.0022223 -0.0040000
v 0.0029565 0.0023754 -0.0040000
v 0.0032000 0.0036000 -0.0040000
v 0.0025456 0.0010544 -0.0040000
v 0.0022627 0.0013373 -0.0040000
v 0.0013777 0.0002740 -0.0040000
v 0.0012246 0.0006435 -0.0040000
v 0.0000000 0.0000000 -0.0040000
v 0.0000000 0.0004000 -0.0040000
v -0.0013777 0.0002740 -0.0040000
v -0.0012246 0.0006435 -0.0040000
v -0.0025456 0.0010544 -0.0040000
v -0.0022627 0.0013373 -0.0040000
v -0.0033260 0.0022223 -0.0040000
v -0.0029565 0.0023754 -0.0040000
v -0.0036000 0.0036000 -0.0040000
v -0.0032000 0.0036000 -0.0040000
v -0.0033260 0.0049777 -0.0040000
v -0.0029565 0.0048246 -0.0040000
v -0.0025456 0.0061456 -0.0040000
v -0.0022627 0.0058627 -0.0040000
v -0.0013777 0.0069260 -0.0040000
v -0.0012246 0.0065565 -0.0040000
v 0.0000000 0.0072000 -0.0040000
v 0.0000000 0.0068000 -0.0040000
v 0.0013777 0.0069260 -0.0040000
v 0.0012246 0.0065565 -0.0040000
v 0.0025456 0.0061456 -0.0040000
v 0.0022627 0.0058627 -0.0040000
v 0.0033260 0.0049777 -0.0040000
v 0.0029565 0.0048246 -0.0040000
v -0.0012246 0.0006435 -0.0032000
v 0.0000000 0.0004000 -0.0032000
v -0.0022627 0.0013373 -0.0032000
v -0.0029565 0.0023754 -0.0032000
v -0.0032000 0.0036000 -0.0032000
v -0.0029565 0.0048246 -0.0032000
v -0.0022627 0.0058627 -0.0032000
v -0.0012246 0.0065565 -0.0032000
v 0.0000000 0.0068000 -0.0032000
v 0.0012246 0.0065565 -0.0032000
v 0.0022627 0.0058627 -0.0032000
v 0.0029565 0.0048246 -0.0032000
v 0.0032000 0.0036000 -0.0032000
v 0.0029565 0.0023754 -0.0032000
v 0.0022627 0.0013373 -0.0032000
v 0.0012246 0.0006435 -0.0032000
v -0.0040000 0.0218173 -0.0009184
v -0.0040000 0.0212971 -0.0016971
v -0.0040000 0.0205184 -0.0022173
v -0.0040000 0.0186816 -0.0022173
v -0.0040000 0.0179029 -0.0016971
v -0.0040000 0.0173827 -0.0009184
v -0.0040000 0.0173827 0.0009184
v -0.0040000 0.0179029 0.0016971
v -0.0040000 0.0186816 0.0022173
v -0.0040000 0.0205184 0.0022173
v -0.0040000 0.0212971 0.0016971
v -0.0040000 0.0218173 0.0009184
v -0.0040000 0.0206000 -0.0010000
v -0.0040000 0.0212000 -0.0008000
v -0.0040000 0.0218409 -0.0008000
v -0.0040000 0.0204000 -0.0016000
v -0.0040000 0.0204000 -0.0022409
v -0.0040000 0.0186000 -0.0010000
v -0.0040000 0.0188000 -0.0016000
v -0.0040000 0.0188000 -0.0022409
v -0.0040000 0.0173591 -0.0008000
v -0.0040000 0.0180000 -0.0008000
v -0.0040000 0.0180000 0.0008000
v -0.0040000 0.0173591 0.0008000
v -0.0040000 0.0186000 0.0010000
v -0.0040000 0.0188000 0.0022409
v -0.0040000 0.0188000 0.0016000
v -0.0040000 0.0206000 0.0010000
v -0.0040000 0.0204000 0.0022409
v -0.0040000 0.0204000 0.0016000
v -0.0040000 0.0212000 0.0008000
v -0.0040000 0.0218409 0.0008000
v 0.0040000 0.0218173 0.0009184
v 0.0040000 0.0212971 0.0016971
v 0.0040000 0.0205184 0.0022173
v 0.0040000 0.0186816 0.0022173
v 0.0040000 0.0179029 0.0016971
v 0.0040000 0.0173827 0.0009184
v 0.0040000 0.0173827 -0.0009184
v 0.0040000 0.0179029 -0.0016971
v 0.0040000 0.0186816 -0.0022173
v 0.0040000 0.0205184 -0.0022173
v 0.0040000 0.0212971 -0.0016971
v 0.0040000 0.0218173 -0.0009184
v 0.0040000 0.0206000 0.0010000
v 0.0040000 0.0212000 0.0008000
v 0.0040000 0.0218409 0.0008000
v 0.0040000 0.0204000 0.0016000
v 0.0040000 0.0204000 0.0022409
v 0.0040000 0.0186000 0.0010000
v 0.0040000 0.0188000 0.0016000
v 0.0040000 0.0188000 0.0022409
v 0.0040000 0.0173591 0.0008000
v 0.0040000 0.0180000 0.0008000
v 0.0040000 0.0180000 -0.0008000
v 0.0040000 0.0173591 -0.0008000
v 0.0040000 0.0186000 -0.0010000
v 0.0040000 0.0188000 -0.0022409
v 0.0040000 0.0188000 -0.0016000
v 0.0040000 0.0206000 -0.0010000
v 0.0040000 0.0204000 -0.0022409
v 0.0040000 0.0204000 -0.0016000
v 0.0040000 0.0212000 -0.0008000
v 0.0040000 0.0218409 -0.0008000
v 0.0040000 0.0220000 -0.0000000
v -0.0040000 0.0220000 -0.0000000
v -0.0040000 0.0172000 -0.0000000
v 0.0040000 0.0172000 -0.0000000
v -0.0018828 0.0198828 -0.0023437
v -0.0020000 0.0196000 -0.0024000
v -0.0020000 0.0196000 -0.0028000
v -0.0018828 0.0198828 -0.0027437
v -0.0016000 0.0200000 -0.0023204
v -0.0016000 0.0200000 -0.0027204
v -0.0018828 0.0193172 -0.0023437
v -0.0018828 0.0193172 -0.0027437
v -0.0016000 0.0192000 -0.0023204
v -0.0016000 0.0192000 -0.0027204
v 0.0018828 0.0193172 -0.0023437
v 0.0020000 0.0196000 -0.0024000
v 0.0020000 0.0196000 -0.0028000
v 0.0018828 0.0193172 -0.0027437
v 0.0016000 0.0192000 -0.0023204
v 0.0016000 0.0192000 -0.0027204
v 0.0018828 0.0198828 -0.0023437
v 0.0018828 0.0198828 -0.0027437
v 0.0016000 0.0200000 -0.0023204
v 0.0016000 0.0200000 -0.0027204
v -0.0018828 0.0193172 0.0023437
v -0.0020000 0.0196000 0.0024000
v -0.0020000 0.0196000 0.0028000
v -0.0018828 0.0193172 0.0027437
v -0.0016000 0.0192000 0.0023204
v -0.0016000 0.0192000 0.0027204
v -0.0018828 0.0198828 0.0023437
v -0.0018828 0.0198828 0.0027437
v -0.0016000 0.0200000 0.0023204
v -0.0016000 0.0200000 0.0027204
v 0.0018828 0.0198828 0.0023437
v 0.0020000 0.0196000 0.0024000
v 0.0020000 0.0196000 0.0028000
v 0.0018828 0.0198828 0.0027437
v 0.0016000 0.0200000 0.0023204
v 0.0016000 0.0200000 0.0027204
v 0.0018828 0.0193172 0.0023437
v 0.0018828 0.0193172 0.0027437
v 0.0016000 0.0192000 0.0023204
v 0.0016000 0.0192000 0.0027204
v -0.0020000 0.0200000 -0.0023204
v -0.0020000 0.0192000 -0.0023204
v 0.0020000 0.0192000 -0.0023204
v 0.0020000 0.0200000 -0.0023204
v -0.0020000 0.0192000 0.0023204
v -0.0020000 0.0200000 0.0023204
v 0.0020000 0.0200000 0.0023204
v 0.0020000 0.0192000 0.0023204
v -0.0040000 0.0204000 -0.0022408
v -0.0040000 0.0196000 -0.0024000
v 0.0040000 0.0196000 -0.0024000
v 0.0040000 0.0204000 -0.0022408
v -0.0040000 0.0188000 -0.0022408
v 0.0040000 0.0188000 -0.0022408
v -0.0040000 0.0196000 0.0024000
v -0.0040000 0.0204000 0.0022408
v 0.0040000 0.0204000 0.0022408
v 0.0040000 0.0196000 0.0024000
v -0.0040000 0.0188000 0.0022408
v 0.0040000 0.0188000 0.0022408
v -0.0020000 0.0200000 -0.0027204
v -0.0020000 0.0192000 -0.0027204
v 0.0020000 0.0192000 -0.0027204
v 0.0020000 0.0200000 -0.0027204
v -0.0020000 0.0192000 0.0027204
v -0.0020000 0.0200000 0.0027204
v 0.0020000 0.0200000 0.0027204
v 0.0020000 0.0192000 0.0027204
v 0.0024000 0.0185285 -0.0025869
v 0.0024000 0.0176200 -0.0019799
v -0.0024000 0.0176200 -0.0019799
v -0.0024000 0.0185285 -0.0025869
v 0.0024000 0.0170132 -0.0010715
v -0.0024000 0.0170132 -0.0010715
v 0.0024000 0.0167999 -0.0000000
v -0.0024000 0.0167999 -0.0000000
v 0.0024000 0.0170131 0.0010715
v -0.0024000 0.0170131 0.0010715
v 0.0024000 0.0176201 0.0019800
v -0.0024000 0.0176201 0.0019800
v 0.0024000 0.0185285 0.0025868
v -0.0024000 0.0185285 0.0025868
v -0.0024000 0.0215800 -0.0019799
v 0.0024000 0.0215800 -0.0019799
v 0.0024000 0.0206715 -0.0025869
v -0.0024000 0.0206715 -0.0025869
v -0.0024000 0.0221868 -0.0010715
v 0.0024000 0.0221868 -0.0010715
v -0.0024000 0.0224001 -0.0000000
v 0.0024000 0.0224001 -0.0000000
v -0.0024000 0.0221869 0.0010715
v 0.0024000 0.0221869 0.0010715
v -0.0024000 0.0215799 0.0019800
v 0.0024000 0.0215799 0.0019800
v -0.0024000 0.0206715 0.0025868
v 0.0024000 0.0206715 0.0025868
v 0.0024000 0.0206716 -0.0025869
v -0.0024000 0.0206716 -0.0025869
v -0.0024000 0.0185284 -0.0025869
v 0.0024000 0.0185284 -0.0025869
v -0.0024000 0.0196000 -0.0028000
v 0.0024000 0.0196000 -0.0028000
v -0.0024000 0.0206716 0.0025869
v 0.0024000 0.0206716 0.0025869
v 0.0024000 0.0185284 0.0025869
v -0.0024000 0.0185284 0.0025869
v -0.0024000 0.0196000 0.0028000
v 0.0024000 0.0196000 0.0028000
v 0.0036000 0.0160000 -0.0000000
v 0.0036000 0.0162740 -0.0013777
v 0.0040000 0.0162740 -0.0013777
v 0.0040000 0.0160000 -0.0000000
v 0.0036000 0.0170544 -0.0025456
v 0.0040000 0.0170544 -0.0025456
v 0.0036000 0.0182223 -0.0033260
v 0.0040000 0.0182223 -0.0033260
v 0.0036000 0.0196000 -0.0036000
v 0.0040000 0.0196000 -0.0036000
v 0.0036000 0.0209777 -0.0033260
v 0.0040000 0.0209777 -0.0033260
v 0.0036000 0.0221456 -0.0025456
v 0.0040000 0.0221456 -0.0025456
v 0.0036000 0.0229260 -0.0013777
v 0.0040000 0.0229260 -0.0013777
v 0.0036000 0.0232000 -0.0000000
v 0.0040000 0.0232000 -0.0000000
v 0.0036000 0.0229260 0.0013777
v 0.0040000 0.0229260 0.0013777
v 0.0036000 0.0221456 0.0025456
v 0.0040000 0.0221456 0.0025456
v 0.0036000 0.0209777 0.0033260
v 0.0040000 0.0209777 0.0033260
v 0.0036000 0.0196000 0.0036000
v 0.0040000 0.0196000 0.0036000
v 0.0036000 0.0182223 0.0033260
v 0.0040000 0.0182223 0.0033260
v 0.0036000 0.0170544 0.0025456
v 0.0040000 0.0170544 0.0025456
v 0.0036000 0.0162740 0.0013777
v 0.0040000 0.0162740 0.0013777
v -0.0040000 0.0162740 -0.0013777
v -0.0036000 0.0162740 -0.0013777
v -0.0036000 0.0160000 -0.0000000
v -0.0040000 0.0160000 -0.0000000
v -0.0040000 0.0170544 -0.0025456
v -0.0036000 0.0170544 -0.0025456
v -0.0040000 0.0182223 -0.0033260
v -0.0036000 0.0182223 -0.0033260
v -0.0040000 0.0196000 -0.0036000
v -0.0036000 0.0196000 -0.0036000
v -0.0040000 0.0209777 -0.0033260
v -0.0036000 0.0209777 -0.0033260
v -0.0040000 0.0221456 -0.0025456
v -0.0036000 0.0221456 -0.0025456
v -0.0040000 0.0229260 -0.0013777
v -0.0036000 0.0229260 -0.0013777
v -0.0040000 0.0232000 -0.0000000
v -0.0036000 0.0232000 -0.0000000
v -0.0040000 0.0229260 0.0013777
v -0.0036000 0.0229260 0.0013777
v -0.0040000 0.0221456 0.0025456
v -0.0036000 0.0221456 0.0025456
v -0.0040000 0.0209777 0.0033260
v -0.0036000 0.0209777 0.0033260
v -0.0040000 0.0196000 0.0036000
v -0.0036000 0.0196000 0.0036000
v -0.0040000 0.0182223 0.0033260
v -0.0036000 0.0182223 0.0033260
v -0.0040000 0.0170544 0.0025456
v -0.0036000 0.0170544 0.0025456
v -0.0040000 0.0162740 0.0013777
v -0.0036000 0.0162740 0.0013777
v -0.0028000 0.0209777 -0.0033260
v -0.0028000 0.0196000 -0.0036000
v -0.0028000 0.0221456 -0.0025456
v -0.0028000 0.0229260 -0.0013777
v -0.0028000 0.0232000 -0.0000000
v -0.0028000 0.0229260 0.0013777
v -0.0028000 0.0221456 0.0025456
v -0.0028000 0.0209777 0.0033260
v -0.0028000 0.0196000 0.0036000
v 0.0028000 0.0209777 -0.0033260
v 0.0028000 0.0196000 -0.0036000
v 0.0028000 0.0221456 -0.0025456
v 0.0028000 0.0229260 -0.0013777
v 0.0028000 0.0232000 -0.0000000
v 0.0028000 0.0229260 0.0013777
v 0.0028000 0.0221456 0.0025456
v 0.0028000 0.0209777 0.0033260
v 0.0028000 0.0196000 0.0036000
v 0.0036000 0.0160000 -0.0036000
v 0.0036000 0.0160000 0.0036000
v 0.0028000 0.0182223 -0.0033260
v 0.0028000 0.0160000 -0.0036000
v 0.0028000 0.0170544 -0.0025456
v 0.0028000 0.0162740 -0.0013777
v 0.0028000 0.0160000 -0.0000000
v 0.0028000 0.0162740 0.0013777
v 0.0028000 0.0160000 0.0036000
v 0.0028000 0.0170544 0.0025456
v 0.0028000 0.0182223 0.0033260
v -0.0028000 0.0160000 -0.0036000
v -0.0028000 0.0182223 -0.0033260
v -0.0028000 0.0170544 -0.0025456
v -0.0028000 0.0162740 -0.0013777
v -0.0028000 0.0160000 -0.0000000
v -0.0028000 0.0160000 0.0036000
v -0.0028000 0.0162740 0.0013777
v -0.0028000 0.0170544 0.0025456
v -0.0028000 0.0182223 0.0033260
v -0.0036000 0.0160000 -0.0036000
v -0.0036000 0.0160000 0.0036000
v 0.0025441 0.0082128 -0.0008000
v 0.0025441 0.0082128 -0.0036000
v 0.0025441 0.0076000 -0.0036000
v 0.0025441 0.0076000 -0.0008000
v 0.0024805 0.0084531 -0.0036000
v 0.0024805 0.0084531 -0.0008000
v 0.0022714 0.0085920 -0.0036000
v 0.0022714 0.0085920 -0.0008000
v 0.0020393 0.0085481 -0.0036000
v 0.0020393 0.0085481 -0.0008000
v 0.0025456 0.0090544 -0.0036000
v 0.0013777 0.0082739 -0.0036000
v 0.0000000 0.0080000 -0.0036000
v 0.0013777 0.0082740 -0.0036000
v 0.0013777 0.0082740 -0.0008000
v 0.0000000 0.0080000 -0.0008000
v 0.0033260 0.0102223 -0.0036000
v 0.0036000 0.0116000 -0.0036000
v 0.0036000 0.0080000 -0.0036000
v 0.0036000 0.0076000 -0.0036000
v 0.0000000 0.0076000 -0.0008000
v -0.0025441 0.0076000 -0.0036000
v -0.0025441 0.0082128 -0.0036000
v -0.0025441 0.0082128 -0.0008000
v -0.0025441 0.0076000 -0.0008000
v -0.0024805 0.0084531 -0.0036000
v -0.0024805 0.0084531 -0.0008000
v -0.0022714 0.0085920 -0.0036000
v -0.0022714 0.0085920 -0.0008000
v -0.0020393 0.0085481 -0.0036000
v -0.0020393 0.0085481 -0.0008000
v -0.0013777 0.0082739 -0.0036000
v -0.0025456 0.0090544 -0.0036000
v -0.0013777 0.0082740 -0.0008000
v -0.0013777 0.0082740 -0.0036000
v -0.0036000 0.0080000 -0.0036000
v -0.0036000 0.0116000 -0.0036000
v -0.0033260 0.0102223 -0.0036000
v -0.0036000 0.0076000 -0.0036000
v -0.0025441 0.0069872 -0.0008000
v -0.0025441 0.0069872 -0.0036000
v -0.0024805 0.0067469 -0.0036000
v -0.0024805 0.0067469 -0.0008000
v -0.0022714 0.0066080 -0.0036000
v -0.0022714 0.0066080 -0.0008000
v -0.0020393 0.0066519 -0.0036000
v -0.0020393 0.0066519 -0.0008000
v -0.0025456 0.0061456 -0.0036000
v -0.0013777 0.0069261 -0.0036000
v 0.0000000 0.0072000 -0.0036000
v -0.0013777 0.0069260 -0.0036000
v -0.0013777 0.0069260 -0.0008000
v 0.0000000 0.0072000 -0.0008000
v -0.0033260 0.0049777 -0.0036000
v -0.0036000 0.0036000 -0.0036000
v -0.0036000 0.0072000 -0.0036000
v 0.0025441 0.0069872 -0.0036000
v 0.0025441 0.0069872 -0.0008000
v 0.0024805 0.0067469 -0.0036000
v 0.0024805 0.0067469 -0.0008000
v 0.0022714 0.0066080 -0.0036000
v 0.0022714 0.0066080 -0.0008000
v 0.0020393 0.0066519 -0.0036000
v 0.0020393 0.0066519 -0.0008000
v 0.0013777 0.0069261 -0.0036000
v 0.0025456 0.0061456 -0.0036000
v 0.0013777 0.0069260 -0.0008000
v 0.0013777 0.0069260 -0.0036000
v 0.0036000 0.0072000 -0.0036000
v 0.0036000 0.0036000 -0.0036000
v 0.0033260 0.0049777 -0.0036000
v 0.0025441 0.0076000 0.0036000
v 0.0025441 0.0082128 0.0036000
v 0.0025441 0.0082128 0.0008000
v 0.0025441 0.0076000 0.0008000
v 0.0024805 0.0084531 0.0036000
v 0.0024805 0.0084531 0.0008000
v 0.0022714 0.0085920 0.0036000
v 0.0022714 0.0085920 0.0008000
v 0.0020393 0.0085481 0.0036000
v 0.0020393 0.0085481 0.0008000
v 0.0013777 0.0082739 0.0036000
v 0.0025456 0.0090544 0.0036000
v 0.0013777 0.0082740 0.0008000
v 0.0013777 0.0082740 0.0036000
v 0.0000000 0.0080000 0.0036000
v 0.0000000 0.0080000 0.0008000
v 0.0036000 0.0080000 0.0036000
v 0.0036000 0.0116000 0.0036000
v 0.0033260 0.0102223 0.0036000
v 0.0036000 0.0076000 0.0036000
v 0.0000000 0.0076000 0.0008000
v -0.0025441 0.0082128 0.0008000
v -0.0025441 0.0082128 0.0036000
v -0.0025441 0.0076000 0.0036000
v -0.0025441 0.0076000 0.0008000
v -0.0024805 0.0084531 0.0036000
v -0.0024805 0.0084531 0.0008000
v -0.0022714 0.0085920 0.0036000
v -0.0022714 0.0085920 0.0008000
v -0.0020393 0.0085481 0.0036000
v -0.0020393 0.0085481 0.0008000
v -0.0025456 0.0090544 0.0036000
v -0.0013777 0.0082739 0.0036000
v -0.0013777 0.0082740 0.0036000
v -0.0013777 0.0082740 0.0008000
v -0.0033260 0.0102223 0.0036000
v -0.0036000 0.0116000 0.0036000
v -0.0036000 0.0080000 0.0036000
v -0.0036000 0.0076000 0.0036000
v -0.0025441 0.0069872 0.0036000
v -0.0025441 0.0069872 0.0008000
v -0.0024805 0.0067469 0.0036000
v -0.0024805 0.0067469 0.0008000
v -0.0022714 0.0066080 0.0036000
v -0.0022714 0.0066080 0.0008000
v -0.0020393 0.0066519 0.0036000
v -0.0020393 0.0066519 0.0008000
v -0.0013777 0.0069261 0.0036000
v -0.0025456 0.0061456 0.0036000
v -0.0013777 0.0069260 0.0008000
v -0.0013777 0.0069260 0.0036000
v 0.0000000 0.0072000 0.0036000
v 0.0000000 0.0072000 0.0008000
v -0.0036000 0.0072000 0.0036000
v -0.0036000 0.0036000 0.0036000
v -0.0033260 0.0049777 0.0036000
v 0.0025441 0.0069872 0.0008000
v 0.0025441 0.0069872 0.0036000
v 0.0024805 0.0067469 0.0036000
v 0.0024805 0.0067469 0.0008000
v 0.0022714 0.0066080 0.0036000
v 0.0022714 0.0066080 0.0008000
v 0.0020393 0.0066519 0.0036000
v 0.0020393 0.0066519 0.0008000
v 0.0025456 0.0061456 0.0036000
v 0.0013777 0.0069261 0.0036000
v 0.0013777 0.0069260 0.0036000
v 0.0013777 0.0069260 0.0008000
v 0.0033260 0.0049777 0.0036000
v 0.0036000 0.0036000 0.0036000
v 0.0036000 0.0072000 0.0036000
v 0.0033260 0.0129777 -0.0036000
v 0.0025456 0.0141456 -0.0036000
v 0.0013777 0.0149260 -0.0036000
v 0.0000000 0.0152000 -0.0036000
v -0.0013777 0.0149260 -0.0036000
v -0.0025456 0.0141456 -0.0036000
v -0.0033260 0.0129777 -0.0036000
v 0.0033260 0.0129777 0.0036000
v 0.0025456 0.0141456 0.0036000
v 0.0013777 0.0149260 0.0036000
v 0.0000000 0.0152000 0.0036000
v -0.0013777 0.0149260 0.0036000
v -0.0025456 0.0141456 0.0036000
v -0.0033260 0.0129777 0.0036000
v 0.0025456 0.0141457 0.0008000
v 0.0025456 0.0141457 0.0036000
v 0.0033260 0.0129777 0.0008000
v 0.0013776 0.0149259 0.0008000
v 0.0013776 0.0149259 0.0036000
v 0.0000000 0.0152001 0.0008000
v 0.0000000 0.0152001 0.0036000
v -0.0013777 0.0149260 0.0008000
v -0.0025457 0.0141456 0.0008000
v -0.0025457 0.0141456 0.0036000
v -0.0033259 0.0129776 0.0008000
v -0.0033259 0.0129776 0.0036000
v 0.0025456 0.0141457 -0.0036000
v 0.0025456 0.0141457 -0.0008000
v 0.0033260 0.0129777 -0.0008000
v 0.0013776 0.0149259 -0.0036000
v 0.0013776 0.0149259 -0.0008000
v 0.0000000 0.0152001 -0.0036000
v 0.0000000 0.0152001 -0.0008000
v -0.0013777 0.0149260 -0.0008000
v -0.0025457 0.0141456 -0.0036000
v -0.0025457 0.0141456 -0.0008000
v -0.0033259 0.0129776 -0.0036000
v -0.0033259 0.0129776 -0.0008000
v 0.0028000 0.0137648 -0.0036000
v 0.0028000 0.0137648 0.0036000
v -0.0028000 0.0137648 0.0036000
v -0.0028000 0.0137648 -0.0036000
v 0.0028000 0.0137648 0.0008000
v 0.0028000 0.0169592 0.0008000
v 0.0000000 0.0169592 0.0008000
v 0.0000000 0.0152000 0.0008000
v -0.0028000 0.0169592 0.0008000
v -0.0028000 0.0137648 0.0008000
v 0.0028000 0.0169592 -0.0008000
v 0.0028000 0.0137648 -0.0008000
v 0.0000000 0.0152000 -0.0008000
v 0.0000000 0.0169592 -0.0008000
v -0.0028000 0.0137648 -0.0008000
v -0.0028000 0.0169592 -0.0008000
v 0.0026000 0.0183754 0.0029565
v 0.0026000 0.0196000 0.0032000
v 0.0026000 0.0173373 0.0022627
v 0.0026000 0.0166435 0.0012246
v 0.0026000 0.0164000 -0.0000000
v 0.0026000 0.0166435 -0.0012246
v 0.0026000 0.0173373 -0.0022627
v 0.0026000 0.0183754 -0.0029565
v 0.0026000 0.0196000 -0.0032000
v 0.0026000 0.0208246 -0.0029565
v 0.0026000 0.0218627 -0.0022627
v 0.0026000 0.0225565 -0.0012246
v 0.0026000 0.0228000 -0.0000000
v 0.0026000 0.0225565 0.0012246
v 0.0026000 0.0218627 0.0022627
v 0.0026000 0.0208246 0.0029565
v -0.0026000 0.0183754 -0.0029565
v -0.0026000 0.0196000 -0.0032000
v -0.0026000 0.0173373 -0.0022627
v -0.0026000 0.0166435 -0.0012246
v -0.0026000 0.0164000 -0.0000000
v -0.0026000 0.0166435 0.0012246
v -0.0026000 0.0173373 0.0022627
v -0.0026000 0.0183754 0.0029565
v -0.0026000 0.0196000 0.0032000
v -0.0026000 0.0208246 0.0029565
v -0.0026000 0.0218627 0.0022627
v -0.0026000 0.0225565 0.0012246
v -0.0026000 0.0228000 -0.0000000
v -0.0026000 0.0225565 -0.0012246
v -0.0026000 0.0218627 -0.0022627
v -0.0026000 0.0208246 -0.0029565
v -0.0024000 0.0176201 -0.0019799
v -0.0024000 0.0170131 -0.0010716
v -0.0024000 0.0168000 -0.0000000
v -0.0024000 0.0170131 0.0010716
v -0.0024000 0.0176201 0.0019799
v -0.0024000 0.0215799 0.0019799
v -0.0024000 0.0221869 0.0010716
v -0.0024000 0.0224000 -0.0000000
v -0.0024000 0.0221869 -0.0010716
v -0.0024000 0.0215799 -0.0019799
v 0.0024000 0.0176201 0.0019799
v 0.0024000 0.0170131 0.0010716
v 0.0024000 0.0168000 -0.0000000
v 0.0024000 0.0170131 -0.0010716
v 0.0024000 0.0176201 -0.0019799
v 0.0024000 0.0215799 -0.0019799
v 0.0024000 0.0221869 -0.0010716
v 0.0024000 0.0224000 -0.0000000
v 0.0024000 0.0221869 0.0010716
v 0.0024000 0.0215799 0.0019799
v 0.0040000 0.0173826 -0.0009185
v 0.0040000 0.0179030 -0.0016970
v 0.0040000 0.0186815 -0.0022174
v 0.0040000 0.0205185 -0.0022174
v 0.0040000 0.0212970 -0.0016970
v 0.0040000 0.0218174 -0.0009185
v 0.0040000 0.0218174 0.0009185
v 0.0040000 0.0212970 0.0016970
v 0.0040000 0.0205185 0.0022174
v 0.0040000 0.0186815 0.0022174
v 0.0040000 0.0179030 0.0016970
v 0.0040000 0.0173826 0.0009185
v -0.0040000 0.0173826 0.0009185
v -0.0040000 0.0179030 0.0016970
v -0.0040000 0.0186815 0.0022174
v -0.0040000 0.0205185 0.0022174
v -0.0040000 0.0212970 0.0016970
v -0.0040000 0.0218174 0.0009185
v -0.0040000 0.0218174 -0.0009185
v -0.0040000 0.0212970 -0.0016970
v -0.0040000 0.0205185 -0.0022174
v -0.0040000 0.0186815 -0.0022174
v -0.0040000 0.0179030 -0.0016970
v -0.0040000 0.0173826 -0.0009185
v -0.0033260 0.0022223 -0.0036000
v -0.0025456 0.0010544 -0.0036000
v -0.0013777 0.0002740 -0.0036000
v 0.0000000 0.0000000 -0.0036000
v 0.0013777 0.0002740 -0.0036000
v 0.0025456 0.0010544 -0.0036000
v 0.0033260 0.0022223 -0.0036000
v -0.0033260 0.0022223 0.0036000
v -0.0025456 0.0010544 0.0036000
v -0.0013777 0.0002740 0.0036000
v 0.0000000 0.0000000 0.0036000
v 0.0013777 0.0002740 0.0036000
v 0.0025456 0.0010544 0.0036000
v 0.0033260 0.0022223 0.0036000
f 1 2 3
f 4 1 3
f 2 5 6
f 3 2 6
f 5 7 8
f 6 5 8
f 7 9 10
f 8 7 10
f 9 11 12
f 10 9 12
f 11 13 14
f 12 11 14
f 13 15 16
f 14 13 16
f 15 17 18
f 16 15 18
f 17 19 20
f 18 17 20
f 19 21 22
f 20 19 22
f 21 23 24
f 22 21 24
f 23 25 26
f 24 23 26
f 25 27 28
f 26 25 28
f 27 29 30
f 28 27 30
f 29 31 32
f 30 29 32
f 31 1 4
f 32 31 4
f 26 28 33
f 26 33 34
f 28 30 35
f 28 35 33
f 30 32 36
f 30 36 35
f 32 4 37
f 32 37 36
f 4 3 38
f 4 38 37
f 3 6 39
f 3 39 38
f 6 8 40
f 6 40 39
f 8 10 41
f 8 41 40
f 10 12 42
f 10 42 41
f 12 14 43
f 12 43 42
f 14 16 44
f 14 44 43
f 16 18 45
f 16 45 44
f 18 20 46
f 18 46 45
f 20 22 47
f 20 47 46
f 22 24 48
f 22 48 47
f 24 26 34
f 24 34 48
f 49 50 48
f 49 48 34
f 50 51 47
f 50 47 48
f 51 52 46
f 51 46 47
f 52 53 45
f 52 45 46
f 53 54 44
f 53 44 45
f 54 55 43
f 54 43 44
f 55 56 42
f 55 42 43
f 56 57 41
f 56 41 42
f 57 58 40
f 57 40 41
f 58 59 39
f 58 39 40
f 59 60 38
f 59 38 39
f 60 61 37
f 60 37 38
f 61 62 36
f 61 36 37
f 62 63 35
f 62 35 36
f 63 64 33
f 63 33 35
f 64 49 34
f 64 34 33
f 65 27 25
f 66 65 25
f 67 29 27
f 65 67 27
f 68 31 29
f 67 68 29
f 69 1 31
f 68 69 31
f 70 2 1
f 69 70 1
f 71 5 2
f 70 71 2
f 72 7 5
f 71 72 5
f 73 9 7
f 72 73 7
f 74 11 9
f 73 74 9
f 75 13 11
f 74 75 11
f 76 15 13
f 75 76 13
f 77 17 15
f 76 77 15
f 78 19 17
f 77 78 17
f 79 21 19
f 78 79 19
f 80 23 21
f 79 80 21
f 66 25 23
f 80 66 23
f 81 82 83
f 81 83 84
f 82 85 86
f 82 86 83
f 85 87 88
f 85 88 86
f 87 89 90
f 87 90 88
f 89 91 92
f 89 92 90
f 91 93 94
f 91 94 92
f 93 95 96
f 93 96 94
f 95 97 98
f 95 98 96
f 97 99 100
f 97 100 98
f 99 101 102
f 99 102 100
f 101 103 104
f 101 104 102
f 103 105 106
f 103 106 104
f 105 107 108
f 105 108 106
f 107 109 110
f 107 110 108
f 109 111 112
f 109 112 110
f 111 81 84
f 111 84 112
f 113 70 69
f 113 69 114
f 115 71 70
f 115 70 113
f 116 72 71
f 116 71 115
f 117 73 72
f 117 72 116
f 118 74 73
f 118 73 117
f 119 75 74
f 119 74 118
f 120 76 75
f 120 75 119
f 121 77 76
f 121 76 120
f 122 78 77
f 122 77 121
f 123 79 78
f 123 78 122
f 124 80 79
f 124 79 123
f 125 66 80
f 125 80 124
f 126 65 66
f 126 66 125
f 127 67 65
f 127 65 126
f 128 68 67
f 128 67 127
f 114 69 68
f 114 68 128
f 83 126 125
f 84 83 125
f 86 127 126
f 83 86 126
f 88 128 127
f 86 88 127
f 90 114 128
f 88 90 128
f 92 113 114
f 90 92 114
f 94 115 113
f 92 94 113
f 96 116 115
f 94 96 115
f 98 117 116
f 96 98 116
f 100 118 117
f 98 100 117
f 102 119 118
f 100 102 118
f 104 120 119
f 102 104 119
f 106 121 120
f 104 106 120
f 108 122 121
f 106 108 121
f 110 123 122
f 108 110 122
f 112 124 123
f 110 112 123
f 84 125 124
f 112 84 124
f 129 130 131
f 132 129 131
f 130 133 134
f 131 130 134
f 133 135 136
f 134 133 136
f 135 137 138
f 136 135 138
f 137 139 140
f 138 137 140
f 139 141 142
f 140 139 142
f 141 143 144
f 142 141 144
f 143 145 146
f 144 143 146
f 145 147 148
f 146 145 148
f 147 149 150
f 148 147 150
f 149 151 152
f 150 149 152
f 151 153 154
f 152 151 154
f 153 155 156
f 154 153 156
f 155 157 158
f 156 155 158
f 157 159 160
f 158 157 160
f 159 129 132
f 160 159 132
f 154 156 161
f 154 161 162
f 156 158 163
f 156 163 161
f 158 160 164
f 158 164 163
f 160 132 165
f 160 165 164
f 132 131 166
f 132 166 165
f 131 134 167
f 131 167 166
f 134 136 168
f 134 168 167
f 136 138 169
f 136 169 168
f 138 140 170
f 138 170 169
f 140 142 171
f 140 171 170
f 142 144 172
f 142 172 171
f 144 146 173
f 144 173 172
f 146 148 174
f 146 174 173
f 148 150 175
f 148 175 174
f 150 152 176
f 150 176 175
f 152 154 162
f 152 162 176
f 177 178 176
f 177 176 162
f 178 179 175
f 178 175 176
f 179 180 174
f 179 174 175
f 180 181 173
f 180 173 174
f 181 182 172
f 181 172 173
f 182 183 171
f 182 171 172
f 183 184 170
f 183 170 171
f 184 185 169
f 184 169 170
f 185 186 168
f 185 168 169
f 186 187 167
f 186 167 168
f 187 188 166
f 187 166 167
f 188 189 165
f 188 165 166
f 189 190 164
f 189 164 165
f 190 191 163
f 190 163 164
f 191 192 161
f 191 161 163
f 192 177 162
f 192 162 161
f 193 155 153
f 194 193 153
f 195 157 155
f 193 195 155
f 196 159 157
f 195 196 157
f 197 129 159
f 196 197 159
f 198 130 129
f 197 198 129
f 199 133 130
f 198 199 130
f 200 135 133
f 199 200 133
f 201 137 135
f 200 201 135
f 202 139 137
f 201 202 137
f 203 141 139
f 202 203 139
f 204 143 141
f 203 204 141
f 205 145 143
f 204 205 143
f 206 147 145
f 205 206 145
f 207 149 147
f 206 207 147
f 208 151 149
f 207 208 149
f 194 153 151
f 208 194 151
f 209 210 211
f 209 211 212
f 210 213 214
f 210 214 211
f 213 215 216
f 213 216 214
f 215 217 218
f 215 218 216
f 217 219 220
f 217 220 218
f 219 221 222
f 219 222 220
f 221 223 224
f 221 224 222
f 223 225 226
f 223 226 224
f 225 227 228
f 225 228 226
f 227 229 230
f 227 230 228
f 229 231 232
f 229 232 230
f 231 233 234
f 231 234 232
f 233 235 236
f 233 236 234
f 235 237 238
f 235 238 236
f 237 239 240
f 237 240 238
f 239 209 212
f 239 212 240
f 241 198 197
f 241 197 242
f 243 199 198
f 243 198 241
f 244 200 199
f 244 199 243
f 245 201 200
f 245 200 244
f 246 202 201
f 246 201 245
f 247 203 202
f 247 202 246
f 248 204 203
f 248 203 247
f 249 205 204
f 249 204 248
f 250 206 205
f 250 205 249
f 251 207 206
f 251 206 250
f 252 208 207
f 252 207 251
f 253 194 208
f 253 208 252
f 254 193 194
f 254 194 253
f 255 195 193
f 255 193 254
f 256 196 195
f 256 195 255
f 242 197 196
f 242 196 256
f 211 254 253
f 212 211 253
f 214 255 254
f 211 214 254
f 216 256 255
f 214 216 255
f 218 242 256
f 216 218 256
f 220 241 242
f 218 220 242
f 222 243 241
f 220 222 241
f 224 244 243
f 222 224 243
f 226 245 244
f 224 226 244
f 228 246 245
f 226 228 245
f 230 247 246
f 228 230 246
f 232 248 247
f 230 232 247
f 234 249 248
f 232 234 248
f 236 250 249
f 234 236 249
f 238 251 250
f 236 238 250
f 240 252 251
f 238 240 251
f 212 253 252
f 240 212 252
f 257 258 259
f 260 261 262
f 263 264 265
f 266 267 268
f 257 259 269
f 269 270 271
f 269 271 257
f 272 269 259
f 272 259 273
f 274 260 262
f 274 275 276
f 274 276 260
f 277 278 274
f 277 274 262
f 279 280 263
f 279 263 281
f 263 265 281
f 265 282 283
f 265 283 281
f 266 268 284
f 285 266 284
f 285 284 286
f 287 284 268
f 287 268 288
f 289 290 291
f 292 293 294
f 295 296 297
f 298 299 300
f 289 291 301
f 301 302 303
f 301 303 289
f 304 301 291
f 304 291 305
f 306 292 294
f 306 307 308
f 306 308 292
f 309 310 306
f 309 306 294
f 311 312 295
f 311 295 313
f 295 297 313
f 297 314 315
f 297 315 313
f 298 300 316
f 317 298 316
f 317 316 318
f 319 316 300
f 319 300 320
f 320 321 322
f 320 322 271
f 323 324 312
f 277 323 312
f 309 324 323
f 309 323 280
f 322 321 303
f 288 322 303
f 319 320 271
f 319 271 270
f 319 270 269
f 319 269 316
f 316 269 272
f 316 272 318
f 318 272 273
f 318 273 317
f 315 314 276
f 315 276 275
f 315 275 274
f 315 274 313
f 313 274 278
f 313 278 311
f 311 278 277
f 311 277 312
f 309 280 279
f 309 279 310
f 310 279 281
f 310 281 306
f 306 281 283
f 306 283 307
f 307 283 282
f 307 282 308
f 305 285 286
f 305 286 304
f 304 286 284
f 304 284 301
f 301 284 287
f 301 287 302
f 302 287 288
f 302 288 303
f 325 326 327
f 325 327 328
f 329 325 328
f 329 328 330
f 327 326 331
f 332 327 331
f 332 331 333
f 334 332 333
f 335 336 337
f 335 337 338
f 339 335 338
f 339 338 340
f 337 336 341
f 342 337 341
f 342 341 343
f 344 342 343
f 345 346 347
f 345 347 348
f 349 345 348
f 349 348 350
f 347 346 351
f 352 347 351
f 352 351 353
f 354 352 353
f 355 356 357
f 355 357 358
f 359 355 358
f 359 358 360
f 357 356 361
f 362 357 361
f 362 361 363
f 364 362 363
f 339 340 334
f 339 334 333
f 329 330 344
f 329 344 343
f 359 360 354
f 359 354 353
f 349 350 364
f 349 364 363
f 326 325 365
f 325 329 365
f 366 331 326
f 366 333 331
f 336 335 367
f 335 339 367
f 368 341 336
f 368 343 341
f 346 345 369
f 345 349 369
f 370 351 346
f 370 353 351
f 356 355 371
f 355 359 371
f 372 361 356
f 372 363 361
f 373 374 326
f 373 326 365
f 375 376 368
f 375 368 336
f 374 377 366
f 374 366 326
f 378 375 336
f 378 336 367
f 373 365 368
f 373 368 376
f 378 367 366
f 378 366 377
f 379 380 370
f 379 370 346
f 381 382 356
f 381 356 371
f 383 379 346
f 383 346 369
f 382 384 372
f 382 372 356
f 381 371 370
f 381 370 380
f 383 369 372
f 383 372 384
f 385 328 327
f 385 330 328
f 327 332 386
f 332 334 386
f 387 338 337
f 387 340 338
f 337 342 388
f 342 344 388
f 389 348 347
f 389 350 348
f 347 352 390
f 352 354 390
f 391 358 357
f 391 360 358
f 357 362 392
f 362 364 392
f 393 394 395
f 396 393 395
f 394 397 398
f 395 394 398
f 397 399 400
f 398 397 400
f 399 401 402
f 400 399 402
f 401 403 404
f 402 401 404
f 403 405 406
f 404 403 406
f 407 408 409
f 407 409 410
f 411 412 408
f 411 408 407
f 413 414 412
f 413 412 411
f 415 416 414
f 415 414 413
f 417 418 416
f 417 416 415
f 419 420 418
f 419 418 417
f 421 388 385
f 421 385 422
f 423 386 387
f 423 387 424
f 425 327 386
f 425 386 423
f 422 385 327
f 422 327 425
f 424 387 337
f 424 337 426
f 426 337 388
f 426 388 421
f 427 390 391
f 427 391 428
f 429 392 389
f 429 389 430
f 430 389 347
f 430 347 431
f 431 347 390
f 431 390 427
f 432 357 392
f 432 392 429
f 428 391 357
f 428 357 432
f 433 434 435
f 433 435 436
f 434 437 438
f 434 438 435
f 437 439 440
f 437 440 438
f 439 441 442
f 439 442 440
f 441 443 444
f 441 444 442
f 443 445 446
f 443 446 444
f 445 447 448
f 445 448 446
f 447 449 450
f 447 450 448
f 449 451 452
f 449 452 450
f 451 453 454
f 451 454 452
f 453 455 456
f 453 456 454
f 455 457 458
f 455 458 456
f 457 459 460
f 457 460 458
f 459 461 462
f 459 462 460
f 461 463 464
f 461 464 462
f 463 433 436
f 463 436 464
f 465 466 467
f 468 465 467
f 469 470 466
f 465 469 466
f 471 472 470
f 469 471 470
f 473 474 472
f 471 473 472
f 475 476 474
f 473 475 474
f 477 478 476
f 475 477 476
f 479 480 478
f 477 479 478
f 481 482 480
f 479 481 480
f 483 484 482
f 481 483 482
f 485 486 484
f 483 485 484
f 487 488 486
f 485 487 486
f 489 490 488
f 487 489 488
f 491 492 490
f 489 491 490
f 493 494 492
f 491 493 492
f 495 496 494
f 493 495 494
f 468 467 496
f 495 468 496
f 474 476 497
f 498 474 497
f 476 478 499
f 497 476 499
f 478 480 500
f 499 478 500
f 480 482 501
f 500 480 501
f 482 484 502
f 501 482 502
f 484 486 503
f 502 484 503
f 486 488 504
f 503 486 504
f 488 490 505
f 504 488 505
f 506 443 441
f 506 441 507
f 508 445 443
f 508 443 506
f 509 447 445
f 509 445 508
f 510 449 447
f 510 447 509
f 511 451 449
f 511 449 510
f 512 453 451
f 512 451 511
f 513 455 453
f 513 453 512
f 514 457 455
f 514 455 513
f 515 441 439
f 515 439 437
f 515 437 434
f 515 434 433
f 516 433 463
f 516 463 461
f 516 461 459
f 516 459 457
f 517 507 518
f 519 517 518
f 520 519 518
f 521 520 518
f 522 521 523
f 524 522 523
f 525 524 523
f 514 525 523
f 526 498 527
f 526 527 528
f 526 528 529
f 526 529 530
f 531 530 532
f 531 532 533
f 531 533 534
f 531 534 505
f 472 474 535
f 470 472 535
f 466 470 535
f 467 466 535
f 496 467 536
f 494 496 536
f 492 494 536
f 490 492 536
f 537 538 539
f 537 539 540
f 541 538 537
f 541 537 542
f 543 541 542
f 543 542 544
f 545 543 544
f 545 544 546
f 546 544 542
f 537 546 542
f 547 545 548
f 543 545 547
f 543 547 541
f 541 547 538
f 549 550 551
f 552 549 551
f 553 554 555
f 547 553 555
f 547 555 556
f 547 556 538
f 538 556 539
f 551 546 537
f 551 537 540
f 557 552 551
f 557 551 540
f 551 548 545
f 551 545 546
f 558 559 560
f 561 558 560
f 560 559 562
f 563 560 562
f 563 562 564
f 565 563 564
f 565 564 566
f 567 565 566
f 563 565 567
f 563 567 560
f 568 566 569
f 569 566 564
f 562 569 564
f 559 569 562
f 570 571 549
f 570 549 552
f 572 573 574
f 572 574 569
f 575 572 569
f 559 575 569
f 558 575 559
f 560 567 570
f 561 560 570
f 570 552 557
f 561 570 557
f 566 568 570
f 567 566 570
f 576 577 558
f 576 558 561
f 578 577 576
f 578 576 579
f 580 578 579
f 580 579 581
f 582 580 581
f 582 581 583
f 583 581 579
f 576 583 579
f 584 582 585
f 580 582 584
f 580 584 578
f 578 584 577
f 586 587 588
f 589 586 588
f 590 591 592
f 584 590 592
f 584 592 575
f 584 575 577
f 577 575 558
f 588 583 576
f 588 576 561
f 557 589 588
f 557 588 561
f 588 585 582
f 588 582 583
f 539 593 594
f 540 539 594
f 594 593 595
f 596 594 595
f 596 595 597
f 598 596 597
f 598 597 599
f 600 598 599
f 596 598 600
f 596 600 594
f 601 599 602
f 602 599 597
f 595 602 597
f 593 602 595
f 603 604 586
f 603 586 589
f 605 606 607
f 605 607 602
f 556 605 602
f 593 556 602
f 539 556 593
f 594 600 603
f 540 594 603
f 603 589 557
f 540 603 557
f 599 601 603
f 600 599 603
f 608 609 610
f 611 608 610
f 610 609 612
f 613 610 612
f 613 612 614
f 615 613 614
f 615 614 616
f 617 615 616
f 613 615 617
f 613 617 610
f 618 616 619
f 619 616 614
f 612 619 614
f 609 619 612
f 620 621 622
f 620 622 623
f 624 625 626
f 624 626 619
f 627 624 619
f 609 627 619
f 608 627 609
f 610 617 620
f 611 610 620
f 620 623 628
f 611 620 628
f 616 618 620
f 617 616 620
f 629 630 631
f 629 631 632
f 633 630 629
f 633 629 634
f 635 633 634
f 635 634 636
f 637 635 636
f 637 636 638
f 638 636 634
f 629 638 634
f 639 637 640
f 635 637 639
f 635 639 633
f 633 639 630
f 622 641 642
f 623 622 642
f 643 644 645
f 639 643 645
f 639 645 646
f 639 646 630
f 630 646 631
f 642 638 629
f 642 629 632
f 628 623 642
f 628 642 632
f 642 640 637
f 642 637 638
f 631 647 648
f 632 631 648
f 648 647 649
f 650 648 649
f 650 649 651
f 652 650 651
f 652 651 653
f 654 652 653
f 650 652 654
f 650 654 648
f 655 653 656
f 656 653 651
f 649 656 651
f 647 656 649
f 657 658 659
f 657 659 660
f 661 662 663
f 661 663 656
f 646 661 656
f 647 646 656
f 631 646 647
f 648 654 657
f 632 648 657
f 657 660 628
f 632 657 628
f 653 655 657
f 654 653 657
f 664 665 608
f 664 608 611
f 666 665 664
f 666 664 667
f 668 666 667
f 668 667 669
f 670 668 669
f 670 669 671
f 671 669 667
f 664 671 667
f 672 670 673
f 668 670 672
f 668 672 666
f 666 672 665
f 659 674 675
f 660 659 675
f 676 677 678
f 672 676 678
f 672 678 627
f 672 627 665
f 665 627 608
f 675 671 664
f 675 664 611
f 628 660 675
f 628 675 611
f 675 673 670
f 675 670 671
f 111 679 554
f 81 111 554
f 109 680 679
f 111 109 679
f 107 681 680
f 109 107 680
f 105 682 681
f 107 105 681
f 103 683 682
f 105 103 682
f 101 684 683
f 103 101 683
f 99 685 684
f 101 99 684
f 97 573 685
f 99 97 685
f 95 574 573
f 97 95 573
f 93 569 574
f 95 93 574
f 91 571 569
f 93 91 569
f 89 549 571
f 91 89 571
f 87 550 549
f 89 87 549
f 85 547 550
f 87 85 550
f 82 553 547
f 85 82 547
f 81 554 553
f 82 81 553
f 625 686 50
f 625 50 49
f 686 687 51
f 686 51 50
f 687 688 52
f 687 52 51
f 688 689 53
f 688 53 52
f 689 690 54
f 689 54 53
f 690 691 55
f 690 55 54
f 691 692 56
f 691 56 55
f 692 644 57
f 692 57 56
f 644 643 58
f 644 58 57
f 643 639 59
f 643 59 58
f 639 641 60
f 639 60 59
f 641 622 61
f 641 61 60
f 622 621 62
f 622 62 61
f 621 619 63
f 621 63 62
f 619 626 64
f 619 64 63
f 626 625 49
f 626 49 64
f 209 239 607
f 606 209 607
f 239 237 602
f 607 239 602
f 237 235 604
f 602 237 604
f 235 233 586
f 604 235 586
f 233 231 587
f 586 233 587
f 231 229 584
f 587 231 584
f 229 227 590
f 584 229 590
f 227 225 591
f 590 227 591
f 676 178 177
f 676 177 677
f 672 179 178
f 672 178 676
f 674 180 179
f 674 179 672
f 659 181 180
f 659 180 674
f 658 182 181
f 658 181 659
f 656 183 182
f 656 182 658
f 663 184 183
f 663 183 656
f 662 185 184
f 662 184 663
f 693 694 686
f 693 686 695
f 696 697 694
f 696 694 693
f 698 699 697
f 698 697 696
f 700 690 699
f 700 699 698
f 701 702 690
f 701 690 700
f 703 704 702
f 703 702 701
f 679 705 706
f 707 679 706
f 705 708 709
f 706 705 709
f 708 710 711
f 709 708 711
f 710 683 712
f 711 710 712
f 683 713 714
f 712 683 714
f 713 715 716
f 714 713 716
f 518 717 718
f 518 718 523
f 535 573 644
f 535 644 536
f 554 515 516
f 554 516 625
f 719 720 526
f 719 526 531
f 721 722 723
f 721 723 724
f 725 726 724
f 725 724 723
f 727 728 729
f 727 729 730
f 731 732 730
f 731 730 729
f 717 507 441
f 717 441 554
f 474 498 720
f 474 720 573
f 457 514 718
f 457 718 625
f 719 505 490
f 719 490 644
f 733 525 514
f 733 514 734
f 735 524 525
f 735 525 733
f 736 522 524
f 736 524 735
f 737 521 522
f 737 522 736
f 738 520 521
f 738 521 737
f 739 519 520
f 739 520 738
f 740 517 519
f 740 519 739
f 741 507 517
f 741 517 740
f 742 506 507
f 742 507 741
f 743 508 506
f 743 506 742
f 744 509 508
f 744 508 743
f 745 510 509
f 745 509 744
f 746 511 510
f 746 510 745
f 747 512 511
f 747 511 746
f 748 513 512
f 748 512 747
f 734 514 513
f 734 513 748
f 749 527 498
f 749 498 750
f 751 528 527
f 751 527 749
f 752 529 528
f 752 528 751
f 753 530 529
f 753 529 752
f 754 532 530
f 754 530 753
f 755 533 532
f 755 532 754
f 756 534 533
f 756 533 755
f 757 505 534
f 757 534 756
f 758 504 505
f 758 505 757
f 759 503 504
f 759 504 758
f 760 502 503
f 760 503 759
f 761 501 502
f 761 502 760
f 762 500 501
f 762 501 761
f 763 499 500
f 763 500 762
f 764 497 499
f 764 499 763
f 750 498 497
f 750 497 764
f 425 423 749
f 425 749 750
f 423 765 751
f 423 751 749
f 765 766 752
f 765 752 751
f 766 767 753
f 766 753 752
f 767 768 754
f 767 754 753
f 768 769 755
f 768 755 754
f 769 430 756
f 769 756 755
f 430 431 757
f 430 757 756
f 431 427 758
f 431 758 757
f 427 770 759
f 427 759 758
f 770 771 760
f 770 760 759
f 771 772 761
f 771 761 760
f 772 773 762
f 772 762 761
f 773 774 763
f 773 763 762
f 774 422 764
f 774 764 763
f 422 425 750
f 422 750 764
f 432 429 733
f 432 733 734
f 429 775 735
f 429 735 733
f 775 776 736
f 775 736 735
f 776 777 737
f 776 737 736
f 777 778 738
f 777 738 737
f 778 779 739
f 778 739 738
f 779 424 740
f 779 740 739
f 424 426 741
f 424 741 740
f 426 421 742
f 426 742 741
f 421 780 743
f 421 743 742
f 780 781 744
f 780 744 743
f 781 782 745
f 781 745 744
f 782 783 746
f 782 746 745
f 783 784 747
f 783 747 746
f 784 428 748
f 784 748 747
f 428 432 734
f 428 734 748
f 435 785 324
f 435 324 436
f 438 786 785
f 438 785 435
f 440 787 786
f 440 786 438
f 442 375 787
f 442 787 440
f 444 788 375
f 444 375 442
f 446 789 788
f 446 788 444
f 448 790 789
f 448 789 446
f 450 321 790
f 450 790 448
f 452 791 321
f 452 321 450
f 454 792 791
f 454 791 452
f 456 793 792
f 456 792 454
f 458 382 793
f 458 793 456
f 460 794 382
f 460 382 458
f 462 795 794
f 462 794 460
f 464 796 795
f 464 795 462
f 436 324 796
f 436 796 464
f 495 797 323
f 495 323 468
f 493 798 797
f 493 797 495
f 491 799 798
f 491 798 493
f 489 379 799
f 489 799 491
f 487 800 379
f 487 379 489
f 485 801 800
f 485 800 487
f 483 802 801
f 483 801 485
f 481 322 802
f 481 802 483
f 479 803 322
f 479 322 481
f 477 804 803
f 477 803 479
f 475 805 804
f 475 804 477
f 473 374 805
f 473 805 475
f 471 806 374
f 471 374 473
f 469 807 806
f 469 806 471
f 465 808 807
f 465 807 469
f 468 323 808
f 468 808 465
f 591 662 644
f 591 644 573
f 625 677 606
f 554 625 606
f 225 223 809
f 591 225 809
f 223 221 810
f 809 223 810
f 221 219 811
f 810 221 811
f 219 217 812
f 811 219 812
f 217 215 813
f 812 217 813
f 215 213 814
f 813 215 814
f 213 210 815
f 814 213 815
f 210 209 606
f 815 210 606
f 591 809 816
f 662 591 816
f 809 810 817
f 816 809 817
f 810 811 818
f 817 810 818
f 811 812 819
f 818 811 819
f 812 813 820
f 819 812 820
f 813 814 821
f 820 813 821
f 814 815 822
f 821 814 822
f 815 606 677
f 822 815 677
f 662 816 186
f 185 662 186
f 816 817 187
f 186 816 187
f 817 818 188
f 187 817 188
f 818 819 189
f 188 818 189
f 819 820 190
f 189 819 190
f 820 821 191
f 190 820 191
f 821 822 192
f 191 821 192
f 822 677 177
f 192 822 177
