# Botball Lab: metres, +Y up, centred XZ, base Y=0
s off
v -0.0040000 0.0000000 -0.0084000
v -0.0026223 0.0000000 -0.0086740
v -0.0026223 0.0032000 -0.0086740
v -0.0040000 0.0032000 -0.0084000
v -0.0014544 0.0000000 -0.0086128
v -0.0014544 0.0000000 -0.0080000
v -0.0014544 0.0032000 -0.0080000
v -0.0014544 0.0032000 -0.0086128
v -0.0015182 0.0000000 -0.0088531
v -0.0015182 0.0032000 -0.0088531
v -0.0017279 0.0000000 -0.0089920
v -0.0017279 0.0032000 -0.0089920
v -0.0019607 0.0000000 -0.0089481
v -0.0019607 0.0032000 -0.0089481
v -0.0014544 0.0000000 -0.0094544
v -0.0026223 0.0000000 -0.0086739
v -0.0053777 0.0032000 -0.0086740
v -0.0053777 0.0000000 -0.0086740
v -0.0065456 0.0032000 -0.0080000
v -0.0065456 0.0000000 -0.0080000
v -0.0065456 0.0000000 -0.0086128
v -0.0065456 0.0032000 -0.0086128
v -0.0060393 0.0032000 -0.0089481
v -0.0064818 0.0000000 -0.0088531
v -0.0064818 0.0032000 -0.0088531
v -0.0062721 0.0000000 -0.0089920
v -0.0062721 0.0032000 -0.0089920
v -0.0060393 0.0000000 -0.0089481
v -0.0053777 0.0000000 -0.0086739
v -0.0065456 0.0000000 -0.0094544
v -0.0026223 0.0032000 -0.0073260
v -0.0026223 0.0000000 -0.0073260
v -0.0040000 0.0000000 -0.0076000
v -0.0040000 0.0032000 -0.0076000
v -0.0014544 0.0000000 -0.0073872
v -0.0014544 0.0032000 -0.0073872
v -0.0015182 0.0000000 -0.0071469
v -0.0015182 0.0032000 -0.0071469
v -0.0017279 0.0000000 -0.0070080
v -0.0017279 0.0032000 -0.0070080
v -0.0019607 0.0000000 -0.0070519
v -0.0019607 0.0032000 -0.0070519
v -0.0026223 0.0000000 -0.0073261
v -0.0014544 0.0000000 -0.0065456
v -0.0053777 0.0000000 -0.0073260
v -0.0053777 0.0032000 -0.0073260
v -0.0065456 0.0000000 -0.0073872
v -0.0065456 0.0032000 -0.0073872
v -0.0060393 0.0032000 -0.0070519
v -0.0064818 0.0000000 -0.0071469
v -0.0064818 0.0032000 -0.0071469
v -0.0062721 0.0000000 -0.0070080
v -0.0062721 0.0032000 -0.0070080
v -0.0060393 0.0000000 -0.0070519
v -0.0065456 0.0000000 -0.0065456
v -0.0053777 0.0000000 -0.0073261
v -0.0026223 0.0048000 -0.0086740
v -0.0026223 0.0080000 -0.0086740
v -0.0040000 0.0080000 -0.0084000
v -0.0040000 0.0048000 -0.0084000
v -0.0014544 0.0048000 -0.0080000
v -0.0014544 0.0080000 -0.0080000
v -0.0014544 0.0080000 -0.0086128
v -0.0014544 0.0048000 -0.0086128
v -0.0015182 0.0080000 -0.0088531
v -0.0015182 0.0048000 -0.0088531
v -0.0017279 0.0080000 -0.0089920
v -0.0017279 0.0048000 -0.0089920
v -0.0019607 0.0080000 -0.0089481
v -0.0019607 0.0048000 -0.0089481
v -0.0026223 0.0080000 -0.0086739
v -0.0014544 0.0080000 -0.0094544
v -0.0053777 0.0080000 -0.0086740
v -0.0053777 0.0048000 -0.0086740
v -0.0065456 0.0080000 -0.0086128
v -0.0065456 0.0080000 -0.0080000
v -0.0065456 0.0048000 -0.0080000
v -0.0065456 0.0048000 -0.0086128
v -0.0060393 0.0048000 -0.0089481
v -0.0064818 0.0080000 -0.0088531
v -0.0064818 0.0048000 -0.0088531
v -0.0062721 0.0080000 -0.0089920
v -0.0062721 0.0048000 -0.0089920
v -0.0060393 0.0080000 -0.0089481
v -0.0065456 0.0080000 -0.0094544
v -0.0053777 0.0080000 -0.0086739
v -0.0040000 0.0080000 -0.0076000
v -0.0026223 0.0080000 -0.0073260
v -0.0026223 0.0048000 -0.0073260
v -0.0040000 0.0048000 -0.0076000
v -0.0014544 0.0080000 -0.0073872
v -0.0014544 0.0048000 -0.0073872
v -0.0015182 0.0080000 -0.0071469
v -0.0015182 0.0048000 -0.0071469
v -0.0017279 0.0080000 -0.0070080
v -0.0017279 0.0048000 -0.0070080
v -0.0019607 0.0080000 -0.0070519
v -0.0019607 0.0048000 -0.0070519
v -0.0014544 0.0080000 -0.0065456
v -0.0026223 0.0080000 -0.0073261
v -0.0053777 0.0048000 -0.0073260
v -0.0053777 0.0080000 -0.0073260
v -0.0065456 0.0080000 -0.0073872
v -0.0065456 0.0048000 -0.0073872
v -0.0060393 0.0048000 -0.0070519
v -0.0064818 0.0080000 -0.0071469
v -0.0064818 0.0048000 -0.0071469
v -0.0062721 0.0080000 -0.0070080
v -0.0062721 0.0048000 -0.0070080
v -0.0060393 0.0080000 -0.0070519
v -0.0053777 0.0080000 -0.0073261
v -0.0065456 0.0080000 -0.0065456
v -0.0004000 0.0000000 -0.0120000
v -0.0006740 0.0000000 -0.0133777
v -0.0006740 0.0032000 -0.0133777
v -0.0004000 0.0032000 -0.0120000
v -0.0006128 0.0000000 -0.0145456
v 0.0000000 0.0000000 -0.0145456
v 0.0000000 0.0032000 -0.0145456
v -0.0006128 0.0032000 -0.0145456
v -0.0008531 0.0000000 -0.0144818
v -0.0008531 0.0032000 -0.0144818
v -0.0009920 0.0000000 -0.0142721
v -0.0009920 0.0032000 -0.0142721
v -0.0009481 0.0000000 -0.0140393
v -0.0009481 0.0032000 -0.0140393
v -0.0014544 0.0000000 -0.0145456
v -0.0006739 0.0000000 -0.0133777
v -0.0006740 0.0032000 -0.0106223
v -0.0006740 0.0000000 -0.0106223
v 0.0000000 0.0032000 -0.0094544
v 0.0000000 0.0000000 -0.0094544
v -0.0006128 0.0000000 -0.0094544
v -0.0006128 0.0032000 -0.0094544
v -0.0009481 0.0032000 -0.0099607
v -0.0008531 0.0000000 -0.0095182
v -0.0008531 0.0032000 -0.0095182
v -0.0009920 0.0000000 -0.0097279
v -0.0009920 0.0032000 -0.0097279
v -0.0009481 0.0000000 -0.0099607
v -0.0006739 0.0000000 -0.0106223
v 0.0006740 0.0032000 -0.0133777
v 0.0006740 0.0000000 -0.0133777
v 0.0004000 0.0000000 -0.0120000
v 0.0004000 0.0032000 -0.0120000
v 0.0006128 0.0000000 -0.0145456
v 0.0006128 0.0032000 -0.0145456
v 0.0008531 0.0000000 -0.0144818
v 0.0008531 0.0032000 -0.0144818
v 0.0009920 0.0000000 -0.0142721
v 0.0009920 0.0032000 -0.0142721
v 0.0009481 0.0000000 -0.0140393
v 0.0009481 0.0032000 -0.0140393
v 0.0006739 0.0000000 -0.0133777
v 0.0014544 0.0000000 -0.0145456
v 0.0006740 0.0000000 -0.0106223
v 0.0006740 0.0032000 -0.0106223
v 0.0006128 0.0000000 -0.0094544
v 0.0006128 0.0032000 -0.0094544
v 0.0009481 0.0032000 -0.0099607
v 0.0008531 0.0000000 -0.0095182
v 0.0008531 0.0032000 -0.0095182
v 0.0009920 0.0000000 -0.0097279
v 0.0009920 0.0032000 -0.0097279
v 0.0009481 0.0000000 -0.0099607
v 0.0014544 0.0000000 -0.0094544
v 0.0006739 0.0000000 -0.0106223
v -0.0006740 0.0048000 -0.0133777
v -0.0006740 0.0080000 -0.0133777
v -0.0004000 0.0080000 -0.0120000
v -0.0004000 0.0048000 -0.0120000
v 0.0000000 0.0048000 -0.0145456
v 0.0000000 0.0080000 -0.0145456
v -0.0006128 0.0080000 -0.0145456
v -0.0006128 0.0048000 -0.0145456
v -0.0008531 0.0080000 -0.0144818
v -0.0008531 0.0048000 -0.0144818
v -0.0009920 0.0080000 -0.0142721
v -0.0009920 0.0048000 -0.0142721
v -0.0009481 0.0080000 -0.0140393
v -0.0009481 0.0048000 -0.0140393
v -0.0006739 0.0080000 -0.0133777
v -0.0014544 0.0080000 -0.0145456
v -0.0006740 0.0080000 -0.0106223
v -0.0006740 0.0048000 -0.0106223
v -0.0006128 0.0080000 -0.0094544
v 0.0000000 0.0080000 -0.0094544
v 0.0000000 0.0048000 -0.0094544
v -0.0006128 0.0048000 -0.0094544
v -0.0009481 0.0048000 -0.0099607
v -0.0008531 0.0080000 -0.0095182
v -0.0008531 0.0048000 -0.0095182
v -0.0009920 0.0080000 -0.0097279
v -0.0009920 0.0048000 -0.0097279
v -0.0009481 0.0080000 -0.0099607
v -0.0006739 0.0080000 -0.0106223
v 0.0004000 0.0080000 -0.0120000
v 0.0006740 0.0080000 -0.0133777
v 0.0006740 0.0048000 -0.0133777
v 0.0004000 0.0048000 -0.0120000
v 0.0006128 0.0080000 -0.0145456
v 0.0006128 0.0048000 -0.0145456
v 0.0008531 0.0080000 -0.0144818
v 0.0008531 0.0048000 -0.0144818
v 0.0009920 0.0080000 -0.0142721
v 0.0009920 0.0048000 -0.0142721
v 0.0009481 0.0080000 -0.0140393
v 0.0009481 0.0048000 -0.0140393
v 0.0014544 0.0080000 -0.0145456
v 0.0006739 0.0080000 -0.0133777
v 0.0006740 0.0048000 -0.0106223
v 0.0006740 0.0080000 -0.0106223
v 0.0006128 0.0080000 -0.0094544
v 0.0006128 0.0048000 -0.0094544
v 0.0009481 0.0048000 -0.0099607
v 0.0008531 0.0080000 -0.0095182
v 0.0008531 0.0048000 -0.0095182
v 0.0009920 0.0080000 -0.0097279
v 0.0009920 0.0048000 -0.0097279
v 0.0009481 0.0080000 -0.0099607
v 0.0006739 0.0080000 -0.0106223
v 0.0014544 0.0080000 -0.0094544
v -0.0004000 0.0080000 0.0120000
v -0.0006740 0.0080000 0.0133777
v -0.0006740 0.0000000 0.0133777
v -0.0004000 0.0000000 0.0120000
v -0.0014544 0.0080000 0.0145456
v -0.0014544 0.0000000 0.0145456
v -0.0026223 0.0080000 0.0153260
v -0.0026223 0.0000000 0.0153260
v -0.0040000 0.0080000 0.0156000
v -0.0040000 0.0000000 0.0156000
v -0.0053777 0.0080000 0.0153260
v -0.0053777 0.0000000 0.0153260
v -0.0065456 0.0080000 0.0145456
v -0.0065456 0.0000000 0.0145456
v -0.0073260 0.0080000 0.0133777
v -0.0073260 0.0000000 0.0133777
v -0.0076000 0.0080000 0.0120000
v -0.0076000 0.0000000 0.0120000
v -0.0017827 0.0080000 0.0110816
v -0.0023029 0.0080000 0.0103029
v -0.0030816 0.0080000 0.0097827
v -0.0049184 0.0080000 0.0097827
v -0.0056971 0.0080000 0.0103029
v -0.0062173 0.0080000 0.0110816
v -0.0062173 0.0080000 0.0129184
v -0.0056971 0.0080000 0.0136971
v -0.0049184 0.0080000 0.0142173
v -0.0030816 0.0080000 0.0142173
v -0.0023029 0.0080000 0.0136971
v -0.0017827 0.0080000 0.0129184
v -0.0030000 0.0080000 0.0110000
v -0.0024000 0.0080000 0.0112000
v -0.0017591 0.0080000 0.0112000
v -0.0032000 0.0080000 0.0104000
v -0.0032000 0.0080000 0.0097591
v -0.0050000 0.0080000 0.0110000
v -0.0048000 0.0080000 0.0104000
v -0.0048000 0.0080000 0.0097591
v -0.0062409 0.0080000 0.0112000
v -0.0056000 0.0080000 0.0112000
v -0.0056000 0.0080000 0.0128000
v -0.0062409 0.0080000 0.0128000
v -0.0050000 0.0080000 0.0130000
v -0.0048000 0.0080000 0.0142409
v -0.0048000 0.0080000 0.0136000
v -0.0030000 0.0080000 0.0130000
v -0.0032000 0.0080000 0.0142409
v -0.0032000 0.0080000 0.0136000
v -0.0024000 0.0080000 0.0128000
v -0.0017591 0.0080000 0.0128000
v -0.0017827 0.0000000 0.0129184
v -0.0023029 0.0000000 0.0136971
v -0.0030816 0.0000000 0.0142173
v -0.0049184 0.0000000 0.0142173
v -0.0056971 0.0000000 0.0136971
v -0.0062173 0.0000000 0.0129184
v -0.0062173 0.0000000 0.0110816
v -0.0056971 0.0000000 0.0103029
v -0.0049184 0.0000000 0.0097827
v -0.0030816 0.0000000 0.0097827
v -0.0023029 0.0000000 0.0103029
v -0.0017827 0.0000000 0.0110816
v -0.0030000 0.0000000 0.0130000
v -0.0024000 0.0000000 0.0128000
v -0.0017591 0.0000000 0.0128000
v -0.0032000 0.0000000 0.0136000
v -0.0032000 0.0000000 0.0142409
v -0.0050000 0.0000000 0.0130000
v -0.0048000 0.0000000 0.0136000
v -0.0048000 0.0000000 0.0142409
v -0.0062409 0.0000000 0.0128000
v -0.0056000 0.0000000 0.0128000
v -0.0056000 0.0000000 0.0112000
v -0.0062409 0.0000000 0.0112000
v -0.0050000 0.0000000 0.0110000
v -0.0048000 0.0000000 0.0097591
v -0.0048000 0.0000000 0.0104000
v -0.0030000 0.0000000 0.0110000
v -0.0032000 0.0000000 0.0097591
v -0.0032000 0.0000000 0.0104000
v -0.0024000 0.0000000 0.0112000
v -0.0017591 0.0000000 0.0112000
v -0.0016000 0.0000000 0.0120000
v -0.0016000 0.0080000 0.0120000
v -0.0064000 0.0080000 0.0120000
v -0.0064000 0.0000000 0.0120000
v -0.0040000 0.0080000 0.0144000
v -0.0040000 0.0000000 0.0144000
v -0.0014544 0.0000000 0.0073872
v -0.0014544 0.0080000 0.0073872
v -0.0015182 0.0080000 0.0071469
v -0.0015182 0.0000000 0.0071469
v -0.0017279 0.0080000 0.0070080
v -0.0017279 0.0000000 0.0070080
v -0.0019607 0.0080000 0.0070519
v -0.0019607 0.0000000 0.0070519
v -0.0026223 0.0080000 0.0073261
v -0.0014544 0.0080000 0.0065456
v -0.0014544 0.0000000 0.0065456
v -0.0026223 0.0000000 0.0073261
v -0.0026223 0.0000000 0.0073260
v -0.0026223 0.0080000 0.0073260
v -0.0040000 0.0080000 0.0076000
v -0.0040000 0.0000000 0.0076000
v -0.0053777 0.0080000 0.0073260
v -0.0053777 0.0000000 0.0073260
v -0.0064818 0.0080000 0.0071469
v -0.0065456 0.0080000 0.0073872
v -0.0065456 0.0000000 0.0073872
v -0.0064818 0.0000000 0.0071469
v -0.0062721 0.0080000 0.0070080
v -0.0062721 0.0000000 0.0070080
v -0.0060393 0.0080000 0.0070519
v -0.0060393 0.0000000 0.0070519
v -0.0065456 0.0080000 0.0065456
v -0.0053777 0.0080000 0.0073261
v -0.0053777 0.0000000 0.0073261
v -0.0065456 0.0000000 0.0065456
v -0.0014544 0.0000000 0.0086128
v -0.0014544 0.0080000 0.0086128
v -0.0065456 0.0080000 0.0086128
v -0.0065456 0.0000000 0.0086128
v -0.0015182 0.0080000 0.0088531
v -0.0015182 0.0000000 0.0088531
v -0.0017279 0.0080000 0.0089920
v -0.0017279 0.0000000 0.0089920
v -0.0019607 0.0080000 0.0089481
v -0.0019607 0.0000000 0.0089481
v -0.0014544 0.0080000 0.0094544
v -0.0014544 0.0000000 0.0094544
v -0.0016000 0.0080000 0.0097826
v -0.0017826 0.0080000 0.0110815
v -0.0023030 0.0080000 0.0103030
v -0.0030815 0.0080000 0.0097826
v -0.0006740 0.0080000 0.0106223
v -0.0026223 0.0080000 0.0086739
v -0.0064818 0.0080000 0.0088531
v -0.0064818 0.0000000 0.0088531
v -0.0062721 0.0080000 0.0089920
v -0.0062721 0.0000000 0.0089920
v -0.0060393 0.0080000 0.0089481
v -0.0060393 0.0000000 0.0089481
v -0.0065456 0.0080000 0.0094544
v -0.0065456 0.0000000 0.0094544
v -0.0017826 0.0000000 0.0110815
v -0.0016000 0.0000000 0.0097826
v -0.0023030 0.0000000 0.0103030
v -0.0030815 0.0000000 0.0097826
v -0.0006740 0.0000000 0.0106223
v -0.0026223 0.0000000 0.0086739
v -0.0062174 0.0080000 0.0110815
v -0.0064000 0.0080000 0.0097826
v -0.0056970 0.0080000 0.0103030
v -0.0049185 0.0080000 0.0097826
v -0.0073260 0.0080000 0.0106223
v -0.0053777 0.0080000 0.0086740
v -0.0064000 0.0000000 0.0097826
v -0.0062174 0.0000000 0.0110815
v -0.0056970 0.0000000 0.0103030
v -0.0049185 0.0000000 0.0097826
v -0.0073260 0.0000000 0.0106223
v -0.0053777 0.0000000 0.0086740
v -0.0048000 0.0000000 0.0085588
v -0.0048000 0.0080000 0.0085588
v -0.0032000 0.0080000 0.0085588
v -0.0032000 0.0000000 0.0085588
v -0.0004000 0.0080000 0.0084000
v -0.0004000 0.0080000 0.0076000
v -0.0004000 0.0080000 0.0040000
v -0.0006740 0.0080000 0.0053777
v -0.0073260 0.0080000 0.0053777
v -0.0076000 0.0080000 0.0040000
v -0.0076000 0.0080000 0.0076000
v -0.0076000 0.0080000 0.0084000
v -0.0004000 0.0000000 0.0084000
v -0.0006740 0.0000000 0.0053777
v -0.0004000 0.0000000 0.0040000
v -0.0004000 0.0000000 0.0076000
v -0.0076000 0.0000000 0.0076000
v -0.0076000 0.0000000 0.0040000
v -0.0073260 0.0000000 0.0053777
v -0.0076000 0.0000000 0.0084000
v -0.0017826 0.0080000 0.0129185
v -0.0023030 0.0080000 0.0136970
v -0.0030815 0.0080000 0.0142174
v -0.0049185 0.0080000 0.0142174
v -0.0056970 0.0080000 0.0136970
v -0.0062174 0.0080000 0.0129185
v -0.0017826 0.0000000 0.0129185
v -0.0023030 0.0000000 0.0136970
v -0.0030815 0.0000000 0.0142174
v -0.0049185 0.0000000 0.0142174
v -0.0056970 0.0000000 0.0136970
v -0.0062174 0.0000000 0.0129185
v 0.0040000 0.0080000 -0.0156000
v 0.0053777 0.0080000 -0.0153260
v 0.0053777 0.0000000 -0.0153260
v 0.0040000 0.0000000 -0.0156000
v 0.0065456 0.0080000 -0.0145456
v 0.0065456 0.0000000 -0.0145456
v 0.0073260 0.0080000 -0.0133777
v 0.0073260 0.0000000 -0.0133777
v 0.0076000 0.0080000 -0.0120000
v 0.0076000 0.0000000 -0.0120000
v 0.0073260 0.0080000 -0.0106223
v 0.0073260 0.0000000 -0.0106223
v 0.0065456 0.0080000 -0.0094544
v 0.0065456 0.0000000 -0.0094544
v 0.0053777 0.0080000 -0.0086740
v 0.0053777 0.0000000 -0.0086740
v 0.0040000 0.0080000 -0.0084000
v 0.0040000 0.0000000 -0.0084000
v -0.0004000 0.0000000 -0.0084000
v -0.0004000 0.0080000 -0.0084000
v -0.0040000 0.0000000 -0.0156000
v -0.0040000 0.0080000 -0.0156000
v -0.0076000 0.0080000 -0.0120000
v -0.0076000 0.0000000 -0.0120000
v -0.0073260 0.0080000 -0.0133777
v -0.0073260 0.0000000 -0.0133777
v -0.0065456 0.0080000 -0.0145456
v -0.0065456 0.0000000 -0.0145456
v -0.0053777 0.0080000 -0.0153260
v -0.0053777 0.0000000 -0.0153260
v -0.0052246 0.0072000 0.0010435
v -0.0049185 0.0072000 0.0017826
v -0.0040000 0.0072000 0.0016000
v -0.0040000 0.0072000 0.0008000
v -0.0062627 0.0072000 0.0017373
v -0.0056970 0.0072000 0.0023030
v -0.0069565 0.0072000 0.0027754
v -0.0062174 0.0072000 0.0030815
v -0.0072000 0.0072000 0.0040000
v -0.0064000 0.0072000 0.0040000
v -0.0069565 0.0072000 0.0052246
v -0.0062174 0.0072000 0.0049185
v -0.0062627 0.0072000 0.0062627
v -0.0056970 0.0072000 0.0056970
v -0.0052246 0.0072000 0.0069565
v -0.0049185 0.0072000 0.0062174
v -0.0040000 0.0072000 0.0072000
v -0.0040000 0.0072000 0.0064000
v -0.0027754 0.0072000 0.0069565
v -0.0030815 0.0072000 0.0062174
v -0.0017373 0.0072000 0.0062627
v -0.0023030 0.0072000 0.0056970
v -0.0010435 0.0072000 0.0052246
v -0.0017826 0.0072000 0.0049185
v -0.0008000 0.0072000 0.0040000
v -0.0016000 0.0072000 0.0040000
v -0.0010435 0.0072000 0.0027754
v -0.0017826 0.0072000 0.0030815
v -0.0017373 0.0072000 0.0017373
v -0.0023030 0.0072000 0.0023030
v -0.0027754 0.0072000 0.0010435
v -0.0030815 0.0072000 0.0017826
v -0.0010435 0.0080000 0.0027754
v -0.0008000 0.0080000 0.0040000
v -0.0017373 0.0080000 0.0017373
v -0.0027754 0.0080000 0.0010435
v -0.0040000 0.0080000 0.0008000
v -0.0052246 0.0080000 0.0010435
v -0.0062627 0.0080000 0.0017373
v -0.0069565 0.0080000 0.0027754
v -0.0072000 0.0080000 0.0040000
v -0.0069565 0.0080000 0.0052246
v -0.0062627 0.0080000 0.0062627
v -0.0052246 0.0080000 0.0069565
v -0.0040000 0.0080000 0.0072000
v -0.0027754 0.0080000 0.0069565
v -0.0017373 0.0080000 0.0062627
v -0.0010435 0.0080000 0.0052246
v -0.0040000 0.0008000 0.0016000
v -0.0049185 0.0008000 0.0017826
v -0.0052246 0.0008000 0.0010435
v -0.0040000 0.0008000 0.0008000
v -0.0056970 0.0008000 0.0023030
v -0.0062627 0.0008000 0.0017373
v -0.0062174 0.0008000 0.0030815
v -0.0069565 0.0008000 0.0027754
v -0.0064000 0.0008000 0.0040000
v -0.0072000 0.0008000 0.0040000
v -0.0062174 0.0008000 0.0049185
v -0.0069565 0.0008000 0.0052246
v -0.0056970 0.0008000 0.0056970
v -0.0062627 0.0008000 0.0062627
v -0.0049185 0.0008000 0.0062174
v -0.0052246 0.0008000 0.0069565
v -0.0040000 0.0008000 0.0064000
v -0.0040000 0.0008000 0.0072000
v -0.0030815 0.0008000 0.0062174
v -0.0027754 0.0008000 0.0069565
v -0.0023030 0.0008000 0.0056970
v -0.0017373 0.0008000 0.0062627
v -0.0017826 0.0008000 0.0049185
v -0.0010435 0.0008000 0.0052246
v -0.0016000 0.0008000 0.0040000
v -0.0008000 0.0008000 0.0040000
v -0.0017826 0.0008000 0.0030815
v -0.0010435 0.0008000 0.0027754
v -0.0023030 0.0008000 0.0023030
v -0.0017373 0.0008000 0.0017373
v -0.0030815 0.0008000 0.0017826
v -0.0027754 0.0008000 0.0010435
v -0.0010435 0.0000000 0.0027754
v -0.0008000 0.0000000 0.0040000
v -0.0017373 0.0000000 0.0017373
v -0.0027754 0.0000000 0.0010435
v -0.0040000 0.0000000 0.0008000
v -0.0052246 0.0000000 0.0010435
v -0.0062627 0.0000000 0.0017373
v -0.0069565 0.0000000 0.0027754
v -0.0072000 0.0000000 0.0040000
v -0.0069565 0.0000000 0.0052246
v -0.0062627 0.0000000 0.0062627
v -0.0052246 0.0000000 0.0069565
v -0.0040000 0.0000000 0.0072000
v -0.0027754 0.0000000 0.0069565
v -0.0017373 0.0000000 0.0062627
v -0.0010435 0.0000000 0.0052246
v -0.0052246 0.0072000 -0.0149565
v -0.0049185 0.0072000 -0.0142174
v -0.0040000 0.0072000 -0.0144000
v -0.0040000 0.0072000 -0.0152000
v -0.0062627 0.0072000 -0.0142627
v -0.0056970 0.0072000 -0.0136970
v -0.0069565 0.0072000 -0.0132246
v -0.0062174 0.0072000 -0.0129185
v -0.0072000 0.0072000 -0.0120000
v -0.0064000 0.0072000 -0.0120000
v -0.0069565 0.0072000 -0.0107754
v -0.0062174 0.0072000 -0.0110815
v -0.0062627 0.0072000 -0.0097373
v -0.0056970 0.0072000 -0.0103030
v -0.0052246 0.0072000 -0.0090435
v -0.0049185 0.0072000 -0.0097826
v -0.0040000 0.0072000 -0.0088000
v -0.0040000 0.0072000 -0.0096000
v -0.0027754 0.0072000 -0.0090435
v -0.0030815 0.0072000 -0.0097826
v -0.0017373 0.0072000 -0.0097373
v -0.0023030 0.0072000 -0.0103030
v -0.0010435 0.0072000 -0.0107754
v -0.0017826 0.0072000 -0.0110815
v -0.0008000 0.0072000 -0.0120000
v -0.0016000 0.0072000 -0.0120000
v -0.0010435 0.0072000 -0.0132246
v -0.0017826 0.0072000 -0.0129185
v -0.0017373 0.0072000 -0.0142627
v -0.0023030 0.0072000 -0.0136970
v -0.0027754 0.0072000 -0.0149565
v -0.0030815 0.0072000 -0.0142174
v -0.0010435 0.0080000 -0.0132246
v -0.0008000 0.0080000 -0.0120000
v -0.0017373 0.0080000 -0.0142627
v -0.0027754 0.0080000 -0.0149565
v -0.0040000 0.0080000 -0.0152000
v -0.0052246 0.0080000 -0.0149565
v -0.0062627 0.0080000 -0.0142627
v -0.0069565 0.0080000 -0.0132246
v -0.0072000 0.0080000 -0.0120000
v -0.0069565 0.0080000 -0.0107754
v -0.0062627 0.0080000 -0.0097373
v -0.0052246 0.0080000 -0.0090435
v -0.0040000 0.0080000 -0.0088000
v -0.0027754 0.0080000 -0.0090435
v -0.0017373 0.0080000 -0.0097373
v -0.0010435 0.0080000 -0.0107754
v -0.0076000 0.0080000 -0.0040000
v -0.0073260 0.0080000 -0.0026223
v -0.0069565 0.0080000 -0.0027754
v -0.0072000 0.0080000 -0.0040000
v -0.0065456 0.0080000 -0.0014544
v -0.0062627 0.0080000 -0.0017373
v -0.0053777 0.0080000 -0.0006740
v -0.0052246 0.0080000 -0.0010435
v -0.0040000 0.0080000 -0.0004000
v -0.0040000 0.0080000 -0.0008000
v -0.0026223 0.0080000 -0.0006740
v -0.0027754 0.0080000 -0.0010435
v -0.0014544 0.0080000 -0.0014544
v -0.0017373 0.0080000 -0.0017373
v -0.0006740 0.0080000 -0.0026223
v -0.0010435 0.0080000 -0.0027754
v -0.0004000 0.0080000 -0.0040000
v -0.0008000 0.0080000 -0.0040000
v -0.0006740 0.0080000 -0.0053777
v -0.0010435 0.0080000 -0.0052246
v -0.0017373 0.0080000 -0.0062627
v -0.0027754 0.0080000 -0.0069565
v -0.0040000 0.0080000 -0.0072000
v -0.0052246 0.0080000 -0.0069565
v -0.0062627 0.0080000 -0.0062627
v -0.0073260 0.0080000 -0.0053777
v -0.0069565 0.0080000 -0.0052246
v -0.0053777 0.0048000 0.0006740
v -0.0053777 0.0080000 0.0006740
v -0.0040000 0.0080000 0.0004000
v -0.0040000 0.0048000 0.0004000
v -0.0065456 0.0048000 0.0000000
v -0.0065456 0.0080000 0.0000000
v -0.0065456 0.0080000 0.0006128
v -0.0065456 0.0048000 0.0006128
v -0.0064818 0.0080000 0.0008531
v -0.0064818 0.0048000 0.0008531
v -0.0062721 0.0080000 0.0009920
v -0.0062721 0.0048000 0.0009920
v -0.0060393 0.0080000 0.0009481
v -0.0060393 0.0048000 0.0009481
v -0.0053777 0.0080000 0.0006739
v -0.0065456 0.0080000 0.0014544
v -0.0026223 0.0080000 0.0006740
v -0.0026223 0.0048000 0.0006740
v -0.0014544 0.0080000 0.0006128
v -0.0014544 0.0080000 0.0000000
v -0.0014544 0.0048000 0.0000000
v -0.0014544 0.0048000 0.0006128
v -0.0019607 0.0048000 0.0009481
v -0.0015182 0.0080000 0.0008531
v -0.0015182 0.0048000 0.0008531
v -0.0017279 0.0080000 0.0009920
v -0.0017279 0.0048000 0.0009920
v -0.0019607 0.0080000 0.0009481
v -0.0014544 0.0080000 0.0014544
v -0.0026223 0.0080000 0.0006739
v -0.0076000 0.0080000 0.0004000
v -0.0073260 0.0080000 0.0026223
v -0.0006740 0.0080000 0.0026223
v -0.0004000 0.0080000 0.0004000
v -0.0076000 0.0080000 0.0000000
v -0.0004000 0.0080000 0.0000000
v -0.0053777 0.0048000 -0.0006740
v -0.0040000 0.0048000 -0.0004000
v -0.0065456 0.0080000 -0.0006128
v -0.0065456 0.0048000 -0.0006128
v -0.0064818 0.0080000 -0.0008531
v -0.0064818 0.0048000 -0.0008531
v -0.0062721 0.0080000 -0.0009920
v -0.0062721 0.0048000 -0.0009920
v -0.0060393 0.0080000 -0.0009481
v -0.0060393 0.0048000 -0.0009481
v -0.0053777 0.0080000 -0.0006739
v -0.0026223 0.0048000 -0.0006740
v -0.0014544 0.0080000 -0.0006128
v -0.0014544 0.0048000 -0.0006128
v -0.0019607 0.0048000 -0.0009481
v -0.0015182 0.0080000 -0.0008531
v -0.0015182 0.0048000 -0.0008531
v -0.0017279 0.0080000 -0.0009920
v -0.0017279 0.0048000 -0.0009920
v -0.0019607 0.0080000 -0.0009481
v -0.0026223 0.0080000 -0.0006739
v -0.0076000 0.0080000 -0.0004000
v -0.0004000 0.0080000 -0.0004000
v -0.0027754 0.0072000 -0.0010435
v -0.0030815 0.0072000 -0.0017826
v -0.0040000 0.0072000 -0.0016000
v -0.0040000 0.0072000 -0.0008000
v -0.0017373 0.0072000 -0.0017373
v -0.0023030 0.0072000 -0.0023030
v -0.0010435 0.0072000 -0.0027754
v -0.0017826 0.0072000 -0.0030815
v -0.0008000 0.0072000 -0.0040000
v -0.0016000 0.0072000 -0.0040000
v -0.0010435 0.0072000 -0.0052246
v -0.0017826 0.0072000 -0.0049185
v -0.0017373 0.0072000 -0.0062627
v -0.0023030 0.0072000 -0.0056970
v -0.0027754 0.0072000 -0.0069565
v -0.0030815 0.0072000 -0.0062174
v -0.0040000 0.0072000 -0.0072000
v -0.0040000 0.0072000 -0.0064000
v -0.0052246 0.0072000 -0.0069565
v -0.0049185 0.0072000 -0.0062174
v -0.0062627 0.0072000 -0.0062627
v -0.0056970 0.0072000 -0.0056970
v -0.0069565 0.0072000 -0.0052246
v -0.0062174 0.0072000 -0.0049185
v -0.0072000 0.0072000 -0.0040000
v -0.0064000 0.0072000 -0.0040000
v -0.0069565 0.0072000 -0.0027754
v -0.0062174 0.0072000 -0.0030815
v -0.0062627 0.0072000 -0.0017373
v -0.0056970 0.0072000 -0.0023030
v -0.0052246 0.0072000 -0.0010435
v -0.0049185 0.0072000 -0.0017826
v -0.0062174 0.0008000 -0.0030815
v -0.0064000 0.0008000 -0.0040000
v -0.0056970 0.0008000 -0.0023030
v -0.0049185 0.0008000 -0.0017826
v -0.0040000 0.0008000 -0.0016000
v -0.0030815 0.0008000 -0.0017826
v -0.0023030 0.0008000 -0.0023030
v -0.0017826 0.0008000 -0.0030815
v -0.0016000 0.0008000 -0.0040000
v -0.0017826 0.0008000 -0.0049185
v -0.0023030 0.0008000 -0.0056970
v -0.0030815 0.0008000 -0.0062174
v -0.0040000 0.0008000 -0.0064000
v -0.0049185 0.0008000 -0.0062174
v -0.0056970 0.0008000 -0.0056970
v -0.0062174 0.0008000 -0.0049185
v -0.0027754 0.0008000 -0.0010435
v -0.0040000 0.0008000 -0.0008000
v -0.0017373 0.0008000 -0.0017373
v -0.0010435 0.0008000 -0.0027754
v -0.0008000 0.0008000 -0.0040000
v -0.0010435 0.0008000 -0.0052246
v -0.0017373 0.0008000 -0.0062627
v -0.0027754 0.0008000 -0.0069565
v -0.0040000 0.0008000 -0.0072000
v -0.0052246 0.0008000 -0.0069565
v -0.0062627 0.0008000 -0.0062627
v -0.0069565 0.0008000 -0.0052246
v -0.0072000 0.0008000 -0.0040000
v -0.0069565 0.0008000 -0.0027754
v -0.0062627 0.0008000 -0.0017373
v -0.0052246 0.0008000 -0.0010435
v -0.0069565 0.0000000 -0.0027754
v -0.0072000 0.0000000 -0.0040000
v -0.0062627 0.0000000 -0.0017373
v -0.0052246 0.0000000 -0.0010435
v -0.0040000 0.0000000 -0.0008000
v -0.0027754 0.0000000 -0.0010435
v -0.0017373 0.0000000 -0.0017373
v -0.0010435 0.0000000 -0.0027754
v -0.0008000 0.0000000 -0.0040000
v -0.0010435 0.0000000 -0.0052246
v -0.0017373 0.0000000 -0.0062627
v -0.0027754 0.0000000 -0.0069565
v -0.0040000 0.0000000 -0.0072000
v -0.0052246 0.0000000 -0.0069565
v -0.0062627 0.0000000 -0.0062627
v -0.0069565 0.0000000 -0.0052246
v -0.0040000 0.0000000 0.0004000
v -0.0053777 0.0000000 0.0006740
v -0.0053777 0.0032000 0.0006740
v -0.0040000 0.0032000 0.0004000
v -0.0065456 0.0000000 0.0006128
v -0.0065456 0.0000000 0.0000000
v -0.0065456 0.0032000 0.0000000
v -0.0065456 0.0032000 0.0006128
v -0.0064818 0.0000000 0.0008531
v -0.0064818 0.0032000 0.0008531
v -0.0062721 0.0000000 0.0009920
v -0.0062721 0.0032000 0.0009920
v -0.0060393 0.0000000 0.0009481
v -0.0060393 0.0032000 0.0009481
v -0.0065456 0.0000000 0.0014544
v -0.0053777 0.0000000 0.0006739
v -0.0026223 0.0032000 0.0006740
v -0.0026223 0.0000000 0.0006740
v -0.0014544 0.0032000 0.0000000
v -0.0014544 0.0000000 0.0000000
v -0.0014544 0.0000000 0.0006128
v -0.0014544 0.0032000 0.0006128
v -0.0019607 0.0032000 0.0009481
v -0.0015182 0.0000000 0.0008531
v -0.0015182 0.0032000 0.0008531
v -0.0017279 0.0000000 0.0009920
v -0.0017279 0.0032000 0.0009920
v -0.0019607 0.0000000 0.0009481
v -0.0026223 0.0000000 0.0006739
v -0.0014544 0.0000000 0.0014544
v -0.0073260 0.0000000 0.0026223
v -0.0076000 0.0000000 0.0004000
v -0.0004000 0.0000000 0.0004000
v -0.0006740 0.0000000 0.0026223
v -0.0076000 0.0000000 0.0000000
v -0.0004000 0.0000000 0.0000000
v -0.0053777 0.0032000 -0.0006740
v -0.0053777 0.0000000 -0.0006740
v -0.0040000 0.0000000 -0.0004000
v -0.0040000 0.0032000 -0.0004000
v -0.0065456 0.0000000 -0.0006128
v -0.0065456 0.0032000 -0.0006128
v -0.0064818 0.0000000 -0.0008531
v -0.0064818 0.0032000 -0.0008531
v -0.0062721 0.0000000 -0.0009920
v -0.0062721 0.0032000 -0.0009920
v -0.0060393 0.0000000 -0.0009481
v -0.0060393 0.0032000 -0.0009481
v -0.0053777 0.0000000 -0.0006739
v -0.0065456 0.0000000 -0.0014544
v -0.0026223 0.0000000 -0.0006740
v -0.0026223 0.0032000 -0.0006740
v -0.0014544 0.0000000 -0.0006128
v -0.0014544 0.0032000 -0.0006128
v -0.0019607 0.0032000 -0.0009481
v -0.0015182 0.0000000 -0.0008531
v -0.0015182 0.0032000 -0.0008531
v -0.0017279 0.0000000 -0.0009920
v -0.0017279 0.0032000 -0.0009920
v -0.0019607 0.0000000 -0.0009481
v -0.0014544 0.0000000 -0.0014544
v -0.0026223 0.0000000 -0.0006739
v -0.0076000 0.0000000 -0.0004000
v -0.0076000 0.0000000 -0.0040000
v -0.0073260 0.0000000 -0.0026223
v -0.0006740 0.0000000 -0.0026223
v -0.0004000 0.0000000 -0.0040000
v -0.0004000 0.0000000 -0.0004000
v -0.0006740 0.0000000 -0.0053777
v -0.0073260 0.0000000 -0.0053777
v -0.0040000 0.0008000 -0.0144000
v -0.0049185 0.0008000 -0.0142174
v -0.0052246 0.0008000 -0.0149565
v -0.0040000 0.0008000 -0.0152000
v -0.0056970 0.0008000 -0.0136970
v -0.0062627 0.0008000 -0.0142627
v -0.0062174 0.0008000 -0.0129185
v -0.0069565 0.0008000 -0.0132246
v -0.0064000 0.0008000 -0.0120000
v -0.0072000 0.0008000 -0.0120000
v -0.0062174 0.0008000 -0.0110815
v -0.0069565 0.0008000 -0.0107754
v -0.0056970 0.0008000 -0.0103030
v -0.0062627 0.0008000 -0.0097373
v -0.0049185 0.0008000 -0.0097826
v -0.0052246 0.0008000 -0.0090435
v -0.0040000 0.0008000 -0.0096000
v -0.0040000 0.0008000 -0.0088000
v -0.0030815 0.0008000 -0.0097826
v -0.0027754 0.0008000 -0.0090435
v -0.0023030 0.0008000 -0.0103030
v -0.0017373 0.0008000 -0.0097373
v -0.0017826 0.0008000 -0.0110815
v -0.0010435 0.0008000 -0.0107754
v -0.0016000 0.0008000 -0.0120000
v -0.0008000 0.0008000 -0.0120000
v -0.0017826 0.0008000 -0.0129185
v -0.0010435 0.0008000 -0.0132246
v -0.0023030 0.0008000 -0.0136970
v -0.0017373 0.0008000 -0.0142627
v -0.0030815 0.0008000 -0.0142174
v -0.0027754 0.0008000 -0.0149565
v -0.0010435 0.0000000 -0.0132246
v -0.0008000 0.0000000 -0.0120000
v -0.0017373 0.0000000 -0.0142627
v -0.0027754 0.0000000 -0.0149565
v -0.0040000 0.0000000 -0.0152000
v -0.0052246 0.0000000 -0.0149565
v -0.0062627 0.0000000 -0.0142627
v -0.0069565 0.0000000 -0.0132246
v -0.0072000 0.0000000 -0.0120000
v -0.0069565 0.0000000 -0.0107754
v -0.0062627 0.0000000 -0.0097373
v -0.0052246 0.0000000 -0.0090435
v -0.0040000 0.0000000 -0.0088000
v -0.0027754 0.0000000 -0.0090435
v -0.0017373 0.0000000 -0.0097373
v -0.0010435 0.0000000 -0.0107754
v 0.0027754 0.0072000 -0.0149565
v 0.0030815 0.0072000 -0.0142174
v 0.0040000 0.0072000 -0.0144000
v 0.0040000 0.0072000 -0.0152000
v 0.0017373 0.0072000 -0.0142627
v 0.0023030 0.0072000 -0.0136970
v 0.0010435 0.0072000 -0.0132246
v 0.0017826 0.0072000 -0.0129185
v 0.0008000 0.0072000 -0.0120000
v 0.0016000 0.0072000 -0.0120000
v 0.0010435 0.0072000 -0.0107754
v 0.0017826 0.0072000 -0.0110815
v 0.0017373 0.0072000 -0.0097373
v 0.0023030 0.0072000 -0.0103030
v 0.0027754 0.0072000 -0.0090435
v 0.0030815 0.0072000 -0.0097826
v 0.0040000 0.0072000 -0.0088000
v 0.0040000 0.0072000 -0.0096000
v 0.0052246 0.0072000 -0.0090435
v 0.0049185 0.0072000 -0.0097826
v 0.0062627 0.0072000 -0.0097373
v 0.0056970 0.0072000 -0.0103030
v 0.0069565 0.0072000 -0.0107754
v 0.0062174 0.0072000 -0.0110815
v 0.0072000 0.0072000 -0.0120000
v 0.0064000 0.0072000 -0.0120000
v 0.0069565 0.0072000 -0.0132246
v 0.0062174 0.0072000 -0.0129185
v 0.0062627 0.0072000 -0.0142627
v 0.0056970 0.0072000 -0.0136970
v 0.0052246 0.0072000 -0.0149565
v 0.0049185 0.0072000 -0.0142174
v 0.0069565 0.0080000 -0.0132246
v 0.0072000 0.0080000 -0.0120000
v 0.0062627 0.0080000 -0.0142627
v 0.0052246 0.0080000 -0.0149565
v 0.0040000 0.0080000 -0.0152000
v 0.0027754 0.0080000 -0.0149565
v 0.0017373 0.0080000 -0.0142627
v 0.0010435 0.0080000 -0.0132246
v 0.0008000 0.0080000 -0.0120000
v 0.0010435 0.0080000 -0.0107754
v 0.0017373 0.0080000 -0.0097373
v 0.0027754 0.0080000 -0.0090435
v 0.0040000 0.0080000 -0.0088000
v 0.0052246 0.0080000 -0.0090435
v 0.0062627 0.0080000 -0.0097373
v 0.0069565 0.0080000 -0.0107754
v 0.0040000 0.0008000 -0.0144000
v 0.0030815 0.0008000 -0.0142174
v 0.0027754 0.0008000 -0.0149565
v 0.0040000 0.0008000 -0.0152000
v 0.0023030 0.0008000 -0.0136970
v 0.0017373 0.0008000 -0.0142627
v 0.0017826 0.0008000 -0.0129185
v 0.0010435 0.0008000 -0.0132246
v 0.0016000 0.0008000 -0.0120000
v 0.0008000 0.0008000 -0.0120000
v 0.0017826 0.0008000 -0.0110815
v 0.0010435 0.0008000 -0.0107754
v 0.0023030 0.0008000 -0.0103030
v 0.0017373 0.0008000 -0.0097373
v 0.0030815 0.0008000 -0.0097826
v 0.0027754 0.0008000 -0.0090435
v 0.0040000 0.0008000 -0.0096000
v 0.0040000 0.0008000 -0.0088000
v 0.0049185 0.0008000 -0.0097826
v 0.0052246 0.0008000 -0.0090435
v 0.0056970 0.0008000 -0.0103030
v 0.0062627 0.0008000 -0.0097373
v 0.0062174 0.0008000 -0.0110815
v 0.0069565 0.0008000 -0.0107754
v 0.0064000 0.0008000 -0.0120000
v 0.0072000 0.0008000 -0.0120000
v 0.0062174 0.0008000 -0.0129185
v 0.0069565 0.0008000 -0.0132246
v 0.0056970 0.0008000 -0.0136970
v 0.0062627 0.0008000 -0.0142627
v 0.0049185 0.0008000 -0.0142174
v 0.0052246 0.0008000 -0.0149565
v 0.0069565 0.0000000 -0.0132246
v 0.0072000 0.0000000 -0.0120000
v 0.0062627 0.0000000 -0.0142627
v 0.0052246 0.0000000 -0.0149565
v 0.0040000 0.0000000 -0.0152000
v 0.0027754 0.0000000 -0.0149565
v 0.0017373 0.0000000 -0.0142627
v 0.0010435 0.0000000 -0.0132246
v 0.0008000 0.0000000 -0.0120000
v 0.0010435 0.0000000 -0.0107754
v 0.0017373 0.0000000 -0.0097373
v 0.0027754 0.0000000 -0.0090435
v 0.0040000 0.0000000 -0.0088000
v 0.0052246 0.0000000 -0.0090435
v 0.0062627 0.0000000 -0.0097373
v 0.0069565 0.0000000 -0.0107754
v -0.0026223 0.0080000 -0.0153260
v -0.0073260 0.0080000 -0.0106223
v -0.0026223 0.0000000 -0.0153260
v -0.0073260 0.0000000 -0.0106223
v 0.0026223 0.0080000 -0.0153260
v 0.0026223 0.0080000 -0.0086740
v 0.0026223 0.0000000 -0.0153260
v 0.0026223 0.0000000 -0.0086740
v -0.0014560 0.0080000 -0.0065440
v -0.0014560 0.0080000 -0.0094560
v -0.0065440 0.0080000 -0.0065440
v -0.0065440 0.0080000 -0.0094560
v -0.0014560 0.0000000 -0.0065440
v -0.0014560 0.0000000 -0.0094560
v -0.0065440 0.0000000 -0.0065440
v -0.0065440 0.0000000 -0.0094560
v -0.0014560 0.0080000 -0.0145440
v 0.0014560 0.0080000 -0.0145440
v 0.0014560 0.0080000 -0.0094560
v -0.0014560 0.0000000 -0.0145440
v 0.0014560 0.0000000 -0.0145440
v 0.0014560 0.0000000 -0.0094560
f 1 2 3
f 4 1 3
f 5 6 7
f 8 5 7
f 7 4 3
f 9 5 8
f 9 8 10
f 11 9 10
f 11 10 12
f 13 11 12
f 13 12 14
f 14 12 10
f 8 14 10
f 15 13 16
f 15 11 13
f 9 11 15
f 5 9 15
f 17 18 1
f 17 1 4
f 19 20 21
f 19 21 22
f 17 19 22
f 23 17 22
f 22 21 24
f 25 22 24
f 25 24 26
f 27 25 26
f 27 26 28
f 23 27 28
f 25 27 23
f 25 23 22
f 29 28 30
f 30 28 26
f 24 30 26
f 21 30 24
f 3 14 8
f 7 3 8
f 4 19 17
f 7 19 4
f 3 16 13
f 14 3 13
f 23 28 18
f 17 23 18
f 31 32 33
f 31 33 34
f 7 6 35
f 7 35 36
f 31 34 7
f 36 35 37
f 38 36 37
f 38 37 39
f 40 38 39
f 40 39 41
f 42 40 41
f 38 40 42
f 38 42 36
f 43 41 44
f 41 39 44
f 44 39 37
f 44 37 35
f 33 45 46
f 34 33 46
f 47 20 19
f 48 47 19
f 48 19 46
f 48 46 49
f 50 47 48
f 50 48 51
f 52 50 51
f 52 51 53
f 54 52 53
f 54 53 49
f 49 53 51
f 48 49 51
f 55 54 56
f 52 54 55
f 52 55 50
f 50 55 47
f 36 42 31
f 36 31 7
f 46 19 34
f 34 19 7
f 41 43 31
f 41 31 42
f 45 54 49
f 45 49 46
f 57 58 59
f 57 59 60
f 61 62 63
f 61 63 64
f 57 60 61
f 64 63 65
f 66 64 65
f 66 65 67
f 68 66 67
f 68 67 69
f 70 68 69
f 66 68 70
f 66 70 64
f 71 69 72
f 69 67 72
f 72 67 65
f 72 65 63
f 59 73 74
f 60 59 74
f 75 76 77
f 78 75 77
f 78 77 74
f 78 74 79
f 80 75 78
f 80 78 81
f 82 80 81
f 82 81 83
f 84 82 83
f 84 83 79
f 79 83 81
f 78 79 81
f 85 84 86
f 82 84 85
f 82 85 80
f 80 85 75
f 64 70 57
f 64 57 61
f 74 77 60
f 60 77 61
f 69 71 57
f 69 57 70
f 73 84 79
f 73 79 74
f 87 88 89
f 90 87 89
f 91 62 61
f 92 91 61
f 61 90 89
f 93 91 92
f 93 92 94
f 95 93 94
f 95 94 96
f 97 95 96
f 97 96 98
f 98 96 94
f 92 98 94
f 99 97 100
f 99 95 97
f 93 95 99
f 91 93 99
f 101 102 87
f 101 87 90
f 77 76 103
f 77 103 104
f 101 77 104
f 105 101 104
f 104 103 106
f 107 104 106
f 107 106 108
f 109 107 108
f 109 108 110
f 105 109 110
f 107 109 105
f 107 105 104
f 111 110 112
f 112 110 108
f 106 112 108
f 103 112 106
f 89 98 92
f 61 89 92
f 90 77 101
f 61 77 90
f 89 100 97
f 98 89 97
f 105 110 102
f 101 105 102
f 113 114 115
f 116 113 115
f 117 118 119
f 120 117 119
f 119 116 115
f 121 117 120
f 121 120 122
f 123 121 122
f 123 122 124
f 125 123 124
f 125 124 126
f 126 124 122
f 120 126 122
f 127 125 128
f 127 123 125
f 121 123 127
f 117 121 127
f 129 130 113
f 129 113 116
f 131 132 133
f 131 133 134
f 129 131 134
f 135 129 134
f 134 133 136
f 137 134 136
f 137 136 138
f 139 137 138
f 139 138 140
f 135 139 140
f 137 139 135
f 137 135 134
f 141 140 15
f 15 140 138
f 136 15 138
f 133 15 136
f 115 126 120
f 119 115 120
f 116 131 129
f 119 131 116
f 115 128 125
f 126 115 125
f 135 140 130
f 129 135 130
f 142 143 144
f 142 144 145
f 119 118 146
f 119 146 147
f 142 145 119
f 147 146 148
f 149 147 148
f 149 148 150
f 151 149 150
f 151 150 152
f 153 151 152
f 149 151 153
f 149 153 147
f 154 152 155
f 152 150 155
f 155 150 148
f 155 148 146
f 144 156 157
f 145 144 157
f 158 132 131
f 159 158 131
f 159 131 157
f 159 157 160
f 161 158 159
f 161 159 162
f 163 161 162
f 163 162 164
f 165 163 164
f 165 164 160
f 160 164 162
f 159 160 162
f 166 165 167
f 163 165 166
f 163 166 161
f 161 166 158
f 147 153 142
f 147 142 119
f 157 131 145
f 145 131 119
f 152 154 142
f 152 142 153
f 156 165 160
f 156 160 157
f 168 169 170
f 168 170 171
f 172 173 174
f 172 174 175
f 168 171 172
f 175 174 176
f 177 175 176
f 177 176 178
f 179 177 178
f 179 178 180
f 181 179 180
f 177 179 181
f 177 181 175
f 182 180 183
f 180 178 183
f 183 178 176
f 183 176 174
f 170 184 185
f 171 170 185
f 186 187 188
f 189 186 188
f 189 188 185
f 189 185 190
f 191 186 189
f 191 189 192
f 193 191 192
f 193 192 194
f 195 193 194
f 195 194 190
f 190 194 192
f 189 190 192
f 72 195 196
f 193 195 72
f 193 72 191
f 191 72 186
f 175 181 168
f 175 168 172
f 185 188 171
f 171 188 172
f 180 182 168
f 180 168 181
f 184 195 190
f 184 190 185
f 197 198 199
f 200 197 199
f 201 173 172
f 202 201 172
f 172 200 199
f 203 201 202
f 203 202 204
f 205 203 204
f 205 204 206
f 207 205 206
f 207 206 208
f 208 206 204
f 202 208 204
f 209 207 210
f 209 205 207
f 203 205 209
f 201 203 209
f 211 212 197
f 211 197 200
f 188 187 213
f 188 213 214
f 211 188 214
f 215 211 214
f 214 213 216
f 217 214 216
f 217 216 218
f 219 217 218
f 219 218 220
f 215 219 220
f 217 219 215
f 217 215 214
f 221 220 222
f 222 220 218
f 216 222 218
f 213 222 216
f 199 208 202
f 172 199 202
f 200 188 211
f 172 188 200
f 199 210 207
f 208 199 207
f 215 220 212
f 211 215 212
f 223 224 225
f 226 223 225
f 224 227 228
f 225 224 228
f 227 229 230
f 228 227 230
f 229 231 232
f 230 229 232
f 231 233 234
f 232 231 234
f 233 235 236
f 234 233 236
f 235 237 238
f 236 235 238
f 237 239 240
f 238 237 240
f 241 242 243
f 244 245 246
f 247 248 249
f 250 251 252
f 241 243 253
f 253 254 255
f 253 255 241
f 256 253 243
f 256 243 257
f 258 244 246
f 258 259 260
f 258 260 244
f 261 262 258
f 261 258 246
f 263 264 247
f 263 247 265
f 247 249 265
f 249 266 267
f 249 267 265
f 250 252 268
f 269 250 268
f 269 268 270
f 271 268 252
f 271 252 272
f 273 274 275
f 276 277 278
f 279 280 281
f 282 283 284
f 273 275 285
f 285 286 287
f 285 287 273
f 288 285 275
f 288 275 289
f 290 276 278
f 290 291 292
f 290 292 276
f 293 294 290
f 293 290 278
f 295 296 279
f 295 279 297
f 279 281 297
f 281 298 299
f 281 299 297
f 282 284 300
f 301 282 300
f 301 300 302
f 303 300 284
f 303 284 304
f 304 305 306
f 304 306 255
f 307 308 296
f 261 307 296
f 293 308 307
f 293 307 264
f 309 310 292
f 266 309 292
f 289 310 309
f 289 309 269
f 306 305 287
f 272 306 287
f 303 304 255
f 303 255 254
f 303 254 253
f 303 253 300
f 300 253 256
f 300 256 302
f 302 256 257
f 302 257 301
f 299 298 260
f 299 260 259
f 299 259 258
f 299 258 297
f 297 258 262
f 297 262 295
f 295 262 261
f 295 261 296
f 293 264 263
f 293 263 294
f 294 263 265
f 294 265 290
f 290 265 267
f 290 267 291
f 291 267 266
f 291 266 292
f 289 269 270
f 289 270 288
f 288 270 268
f 288 268 285
f 285 268 271
f 285 271 286
f 286 271 272
f 286 272 287
f 311 312 313
f 314 311 313
f 314 313 315
f 316 314 315
f 316 315 317
f 318 316 317
f 319 317 320
f 317 315 320
f 320 315 313
f 320 313 312
f 321 318 322
f 321 316 318
f 314 316 321
f 311 314 321
f 323 324 325
f 323 325 326
f 325 327 328
f 326 325 328
f 329 330 331
f 329 331 332
f 333 329 332
f 333 332 334
f 335 333 334
f 335 334 336
f 337 335 338
f 333 335 337
f 333 337 329
f 329 337 330
f 339 336 340
f 340 336 334
f 332 340 334
f 331 340 332
f 341 342 312
f 341 312 311
f 330 343 344
f 331 330 344
f 345 342 341
f 345 341 346
f 347 345 346
f 347 346 348
f 349 347 348
f 349 348 350
f 347 351 345
f 345 351 342
f 352 348 346
f 352 346 341
f 353 354 306
f 353 355 354
f 353 356 355
f 223 357 351
f 353 306 223
f 353 223 351
f 353 351 347
f 353 347 349
f 356 353 349
f 356 349 358
f 344 343 359
f 360 344 359
f 360 359 361
f 362 360 361
f 362 361 363
f 364 362 363
f 365 361 359
f 365 359 343
f 362 366 360
f 360 366 344
f 305 367 368
f 367 369 368
f 369 370 368
f 352 371 226
f 226 305 368
f 226 368 352
f 348 352 368
f 348 368 350
f 350 368 370
f 350 370 372
f 307 373 374
f 373 375 374
f 375 376 374
f 365 377 239
f 361 365 374
f 361 374 363
f 363 374 376
f 363 376 378
f 379 380 308
f 379 381 380
f 379 382 381
f 240 383 366
f 379 308 240
f 379 240 366
f 382 379 364
f 382 364 384
f 374 365 239
f 374 239 307
f 366 362 364
f 366 364 379
f 363 378 384
f 363 384 364
f 385 386 260
f 385 260 298
f 257 387 388
f 257 388 301
f 386 378 376
f 386 376 260
f 298 382 384
f 298 384 385
f 384 378 386
f 384 386 385
f 358 387 257
f 358 257 356
f 388 387 358
f 388 358 372
f 370 301 388
f 370 388 372
f 372 358 349
f 372 349 350
f 318 317 324
f 318 324 322
f 327 335 336
f 327 336 328
f 357 223 389
f 351 357 389
f 390 391 392
f 390 392 320
f 393 394 395
f 337 393 395
f 396 239 377
f 396 377 365
f 342 351 389
f 312 390 320
f 395 330 337
f 396 365 343
f 330 395 396
f 330 396 343
f 312 342 389
f 312 389 390
f 397 226 371
f 397 371 352
f 398 399 400
f 321 398 400
f 401 402 403
f 401 403 340
f 383 240 404
f 366 383 404
f 352 341 397
f 400 311 321
f 331 401 340
f 366 404 344
f 404 401 331
f 404 331 344
f 397 341 311
f 397 311 400
f 405 224 223
f 306 405 223
f 406 227 224
f 405 406 224
f 407 229 227
f 406 407 227
f 309 231 229
f 407 309 229
f 408 233 231
f 309 408 231
f 409 235 233
f 408 409 233
f 410 237 235
f 409 410 235
f 307 239 237
f 410 307 237
f 226 225 411
f 226 411 305
f 225 228 412
f 225 412 411
f 228 230 413
f 228 413 412
f 230 232 310
f 230 310 413
f 232 234 414
f 232 414 310
f 234 236 415
f 234 415 414
f 236 238 416
f 236 416 415
f 238 240 308
f 238 308 416
f 417 418 419
f 420 417 419
f 418 421 422
f 419 418 422
f 421 423 424
f 422 421 424
f 423 425 426
f 424 423 426
f 425 427 428
f 426 425 428
f 427 429 430
f 428 427 430
f 429 431 432
f 430 429 432
f 431 433 434
f 432 431 434
f 223 226 435
f 223 435 436
f 435 434 433
f 435 433 436
f 417 420 437
f 417 437 438
f 439 440 240
f 439 240 239
f 441 442 440
f 439 441 440
f 443 444 442
f 441 443 442
f 445 446 444
f 443 445 444
f 438 437 446
f 445 438 446
f 447 448 449
f 447 449 450
f 451 452 448
f 451 448 447
f 453 454 452
f 453 452 451
f 455 456 454
f 455 454 453
f 457 458 456
f 457 456 455
f 459 460 458
f 459 458 457
f 461 462 460
f 461 460 459
f 463 464 462
f 463 462 461
f 465 466 464
f 465 464 463
f 467 468 466
f 467 466 465
f 469 470 468
f 469 468 467
f 471 472 470
f 471 470 469
f 473 474 472
f 473 472 471
f 475 476 474
f 475 474 473
f 477 478 476
f 477 476 475
f 450 449 478
f 450 478 477
f 479 473 471
f 480 479 471
f 481 475 473
f 479 481 473
f 482 477 475
f 481 482 475
f 483 450 477
f 482 483 477
f 484 447 450
f 483 484 450
f 485 451 447
f 484 485 447
f 486 453 451
f 485 486 451
f 487 455 453
f 486 487 453
f 488 457 455
f 487 488 455
f 489 459 457
f 488 489 457
f 490 461 459
f 489 490 459
f 491 463 461
f 490 491 461
f 492 465 463
f 491 492 463
f 493 467 465
f 492 493 465
f 494 469 467
f 493 494 467
f 480 471 469
f 494 480 469
f 495 496 497
f 498 495 497
f 496 499 500
f 497 496 500
f 499 501 502
f 500 499 502
f 501 503 504
f 502 501 504
f 503 505 506
f 504 503 506
f 505 507 508
f 506 505 508
f 507 509 510
f 508 507 510
f 509 511 512
f 510 509 512
f 511 513 514
f 512 511 514
f 513 515 516
f 514 513 516
f 515 517 518
f 516 515 518
f 517 519 520
f 518 517 520
f 519 521 522
f 520 519 522
f 521 523 524
f 522 521 524
f 523 525 526
f 524 523 526
f 525 495 498
f 526 525 498
f 520 522 527
f 520 527 528
f 522 524 529
f 522 529 527
f 524 526 530
f 524 530 529
f 526 498 531
f 526 531 530
f 498 497 532
f 498 532 531
f 497 500 533
f 497 533 532
f 500 502 534
f 500 534 533
f 502 504 535
f 502 535 534
f 504 506 536
f 504 536 535
f 506 508 537
f 506 537 536
f 508 510 538
f 508 538 537
f 510 512 539
f 510 539 538
f 512 514 540
f 512 540 539
f 514 516 541
f 514 541 540
f 516 518 542
f 516 542 541
f 518 520 528
f 518 528 542
f 543 544 545
f 543 545 546
f 547 548 544
f 547 544 543
f 549 550 548
f 549 548 547
f 551 552 550
f 551 550 549
f 553 554 552
f 553 552 551
f 555 556 554
f 555 554 553
f 557 558 556
f 557 556 555
f 559 560 558
f 559 558 557
f 561 562 560
f 561 560 559
f 563 564 562
f 563 562 561
f 565 566 564
f 565 564 563
f 567 568 566
f 567 566 565
f 569 570 568
f 569 568 567
f 571 572 570
f 571 570 569
f 573 574 572
f 573 572 571
f 546 545 574
f 546 574 573
f 575 569 567
f 576 575 567
f 577 571 569
f 575 577 569
f 578 573 571
f 577 578 571
f 579 546 573
f 578 579 573
f 580 543 546
f 579 580 546
f 581 547 543
f 580 581 543
f 582 549 547
f 581 582 547
f 583 551 549
f 582 583 549
f 584 553 551
f 583 584 551
f 585 555 553
f 584 585 553
f 586 557 555
f 585 586 555
f 587 559 557
f 586 587 557
f 588 561 559
f 587 588 559
f 589 563 561
f 588 589 561
f 590 565 563
f 589 590 563
f 576 567 565
f 590 576 565
f 591 592 593
f 591 593 594
f 592 595 596
f 592 596 593
f 595 597 598
f 595 598 596
f 597 599 600
f 597 600 598
f 599 601 602
f 599 602 600
f 601 603 604
f 601 604 602
f 603 605 606
f 603 606 604
f 605 607 608
f 605 608 606
f 607 609 610
f 607 610 608
f 609 99 611
f 609 611 610
f 99 88 612
f 99 612 611
f 88 87 613
f 88 613 612
f 87 102 614
f 87 614 613
f 102 112 615
f 102 615 614
f 112 616 617
f 112 617 615
f 616 591 594
f 616 594 617
f 618 619 620
f 618 620 621
f 622 623 624
f 622 624 625
f 618 621 622
f 625 624 626
f 627 625 626
f 627 626 628
f 629 627 628
f 629 628 630
f 631 629 630
f 627 629 631
f 627 631 625
f 632 630 633
f 630 628 633
f 633 628 626
f 633 626 624
f 620 634 635
f 621 620 635
f 636 637 638
f 639 636 638
f 639 638 635
f 639 635 640
f 641 636 639
f 641 639 642
f 643 641 642
f 643 642 644
f 645 643 644
f 645 644 640
f 640 644 642
f 639 640 642
f 646 645 647
f 643 645 646
f 643 646 641
f 641 646 636
f 625 631 618
f 625 618 622
f 635 638 621
f 621 638 622
f 630 632 618
f 630 618 631
f 634 645 640
f 634 640 635
f 648 394 649
f 648 649 633
f 650 391 651
f 646 650 651
f 648 633 624
f 648 624 623
f 648 623 652
f 651 636 646
f 651 653 637
f 651 637 636
f 599 597 654
f 655 599 654
f 656 623 622
f 657 656 622
f 622 655 654
f 658 656 657
f 658 657 659
f 660 658 659
f 660 659 661
f 662 660 661
f 662 661 663
f 663 661 659
f 657 663 659
f 595 662 664
f 595 660 662
f 658 660 595
f 656 658 595
f 665 601 599
f 665 599 655
f 638 637 666
f 638 666 667
f 665 638 667
f 668 665 667
f 667 666 669
f 670 667 669
f 670 669 671
f 672 670 671
f 672 671 673
f 668 672 673
f 670 672 668
f 670 668 667
f 674 673 603
f 603 673 671
f 669 603 671
f 666 603 669
f 654 663 657
f 622 654 657
f 655 638 665
f 622 638 655
f 654 664 662
f 663 654 662
f 668 673 601
f 665 668 601
f 592 591 675
f 595 592 675
f 676 607 605
f 676 605 603
f 656 595 675
f 623 656 675
f 652 623 675
f 603 666 676
f 637 653 676
f 666 637 676
f 677 678 679
f 677 679 680
f 681 682 678
f 681 678 677
f 683 684 682
f 683 682 681
f 685 686 684
f 685 684 683
f 687 688 686
f 687 686 685
f 689 690 688
f 689 688 687
f 691 692 690
f 691 690 689
f 693 694 692
f 693 692 691
f 695 696 694
f 695 694 693
f 697 698 696
f 697 696 695
f 699 700 698
f 699 698 697
f 701 702 700
f 701 700 699
f 703 704 702
f 703 702 701
f 705 706 704
f 705 704 703
f 707 708 706
f 707 706 705
f 680 679 708
f 680 708 707
f 593 703 701
f 594 593 701
f 596 705 703
f 593 596 703
f 598 707 705
f 596 598 705
f 600 680 707
f 598 600 707
f 602 677 680
f 600 602 680
f 604 681 677
f 602 604 677
f 606 683 681
f 604 606 681
f 608 685 683
f 606 608 683
f 610 687 685
f 608 610 685
f 611 689 687
f 610 611 687
f 612 691 689
f 611 612 689
f 613 693 691
f 612 613 691
f 614 695 693
f 613 614 693
f 615 697 695
f 614 615 695
f 617 699 697
f 615 617 697
f 594 701 699
f 617 594 699
f 704 709 710
f 702 704 710
f 706 711 709
f 704 706 709
f 708 712 711
f 706 708 711
f 679 713 712
f 708 679 712
f 678 714 713
f 679 678 713
f 682 715 714
f 678 682 714
f 684 716 715
f 682 684 715
f 686 717 716
f 684 686 716
f 688 718 717
f 686 688 717
f 690 719 718
f 688 690 718
f 692 720 719
f 690 692 719
f 694 721 720
f 692 694 720
f 696 722 721
f 694 696 721
f 698 723 722
f 696 698 722
f 700 724 723
f 698 700 723
f 702 710 724
f 700 702 724
f 713 714 725
f 726 713 725
f 714 715 727
f 725 714 727
f 715 716 728
f 727 715 728
f 716 717 729
f 728 716 729
f 717 718 730
f 729 717 730
f 718 719 731
f 730 718 731
f 719 720 732
f 731 719 732
f 720 721 733
f 732 720 733
f 721 722 734
f 733 721 734
f 722 723 735
f 734 722 735
f 723 724 736
f 735 723 736
f 724 710 737
f 736 724 737
f 710 709 738
f 737 710 738
f 709 711 739
f 738 709 739
f 711 712 740
f 739 711 740
f 712 713 726
f 740 712 726
f 737 738 741
f 737 741 742
f 738 739 743
f 738 743 741
f 739 740 744
f 739 744 743
f 740 726 745
f 740 745 744
f 726 725 746
f 726 746 745
f 725 727 747
f 725 747 746
f 727 728 748
f 727 748 747
f 728 729 749
f 728 749 748
f 729 730 750
f 729 750 749
f 730 731 751
f 730 751 750
f 731 732 752
f 731 752 751
f 732 733 753
f 732 753 752
f 733 734 754
f 733 754 753
f 734 735 755
f 734 755 754
f 735 736 756
f 735 756 755
f 736 737 742
f 736 742 756
f 757 758 759
f 760 757 759
f 761 762 763
f 764 761 763
f 763 760 759
f 765 761 764
f 765 764 766
f 767 765 766
f 767 766 768
f 769 767 768
f 769 768 770
f 770 768 766
f 764 770 766
f 771 769 772
f 771 767 769
f 765 767 771
f 761 765 771
f 773 774 757
f 773 757 760
f 775 776 777
f 775 777 778
f 773 775 778
f 779 773 778
f 778 777 780
f 781 778 780
f 781 780 782
f 783 781 782
f 783 782 784
f 779 783 784
f 781 783 779
f 781 779 778
f 785 784 786
f 786 784 782
f 780 786 782
f 777 786 780
f 759 770 764
f 763 759 764
f 760 775 773
f 763 775 760
f 759 772 769
f 770 759 769
f 779 784 774
f 773 779 774
f 787 402 788
f 771 787 788
f 789 399 790
f 789 790 786
f 761 771 788
f 762 761 788
f 791 762 788
f 786 777 789
f 776 792 789
f 777 776 789
f 793 794 795
f 793 795 796
f 763 762 797
f 763 797 798
f 793 796 763
f 798 797 799
f 800 798 799
f 800 799 801
f 802 800 801
f 802 801 803
f 804 802 803
f 800 802 804
f 800 804 798
f 805 803 806
f 803 801 806
f 806 801 799
f 806 799 797
f 795 807 808
f 796 795 808
f 809 776 775
f 810 809 775
f 810 775 808
f 810 808 811
f 812 809 810
f 812 810 813
f 814 812 813
f 814 813 815
f 816 814 815
f 816 815 811
f 811 815 813
f 810 811 813
f 817 816 818
f 814 816 817
f 814 817 812
f 812 817 809
f 798 804 793
f 798 793 763
f 808 775 796
f 796 775 763
f 803 805 793
f 803 793 804
f 807 816 811
f 807 811 808
f 819 820 821
f 819 821 806
f 822 823 824
f 817 822 824
f 819 806 797
f 819 797 762
f 819 762 791
f 824 809 817
f 824 792 776
f 824 776 809
f 741 821 820
f 742 741 820
f 743 806 821
f 741 743 821
f 744 794 806
f 743 744 806
f 745 795 794
f 744 745 794
f 746 807 795
f 745 746 795
f 747 817 807
f 746 747 807
f 748 822 817
f 747 748 817
f 749 823 822
f 748 749 822
f 750 825 823
f 749 750 823
f 751 44 825
f 750 751 825
f 752 32 44
f 751 752 44
f 753 33 32
f 752 753 32
f 754 45 33
f 753 754 33
f 755 55 45
f 754 755 45
f 756 826 55
f 755 756 55
f 742 820 826
f 756 742 826
f 827 828 829
f 830 827 829
f 828 831 832
f 829 828 832
f 831 833 834
f 832 831 834
f 833 835 836
f 834 833 836
f 835 837 838
f 836 835 838
f 837 839 840
f 838 837 840
f 839 841 842
f 840 839 842
f 841 843 844
f 842 841 844
f 843 845 846
f 844 843 846
f 845 847 848
f 846 845 848
f 847 849 850
f 848 847 850
f 849 851 852
f 850 849 852
f 851 853 854
f 852 851 854
f 853 855 856
f 854 853 856
f 855 857 858
f 856 855 858
f 857 827 830
f 858 857 830
f 852 854 859
f 852 859 860
f 854 856 861
f 854 861 859
f 856 858 862
f 856 862 861
f 858 830 863
f 858 863 862
f 830 829 864
f 830 864 863
f 829 832 865
f 829 865 864
f 832 834 866
f 832 866 865
f 834 836 867
f 834 867 866
f 836 838 868
f 836 868 867
f 838 840 869
f 838 869 868
f 840 842 870
f 840 870 869
f 842 844 871
f 842 871 870
f 844 846 872
f 844 872 871
f 846 848 873
f 846 873 872
f 848 850 874
f 848 874 873
f 850 852 860
f 850 860 874
f 875 876 877
f 875 877 878
f 879 880 876
f 879 876 875
f 881 882 880
f 881 880 879
f 883 884 882
f 883 882 881
f 885 886 884
f 885 884 883
f 887 888 886
f 887 886 885
f 889 890 888
f 889 888 887
f 891 892 890
f 891 890 889
f 893 894 892
f 893 892 891
f 895 896 894
f 895 894 893
f 897 898 896
f 897 896 895
f 899 900 898
f 899 898 897
f 901 902 900
f 901 900 899
f 903 904 902
f 903 902 901
f 905 906 904
f 905 904 903
f 878 877 906
f 878 906 905
f 907 901 899
f 908 907 899
f 909 903 901
f 907 909 901
f 910 905 903
f 909 910 903
f 911 878 905
f 910 911 905
f 912 875 878
f 911 912 878
f 913 879 875
f 912 913 875
f 914 881 879
f 913 914 879
f 915 883 881
f 914 915 881
f 916 885 883
f 915 916 883
f 917 887 885
f 916 917 885
f 918 889 887
f 917 918 887
f 919 891 889
f 918 919 889
f 920 893 891
f 919 920 891
f 921 895 893
f 920 921 893
f 922 897 895
f 921 922 895
f 908 899 897
f 922 908 897
f 923 924 925
f 926 923 925
f 924 927 928
f 925 924 928
f 927 929 930
f 928 927 930
f 929 931 932
f 930 929 932
f 931 933 934
f 932 931 934
f 933 935 936
f 934 933 936
f 935 937 938
f 936 935 938
f 937 939 940
f 938 937 940
f 939 941 942
f 940 939 942
f 941 943 944
f 942 941 944
f 943 945 946
f 944 943 946
f 945 947 948
f 946 945 948
f 947 949 950
f 948 947 950
f 949 951 952
f 950 949 952
f 951 953 954
f 952 951 954
f 953 923 926
f 954 953 926
f 948 950 955
f 948 955 956
f 950 952 957
f 950 957 955
f 952 954 958
f 952 958 957
f 954 926 959
f 954 959 958
f 926 925 960
f 926 960 959
f 925 928 961
f 925 961 960
f 928 930 962
f 928 962 961
f 930 932 963
f 930 963 962
f 932 934 964
f 932 964 963
f 934 936 965
f 934 965 964
f 936 938 966
f 936 966 965
f 938 940 967
f 938 967 966
f 940 942 968
f 940 968 967
f 942 944 969
f 942 969 968
f 944 946 970
f 944 970 969
f 946 948 956
f 946 956 970
f 474 521 519
f 472 474 519
f 476 523 521
f 474 476 521
f 478 525 523
f 476 478 523
f 449 495 525
f 478 449 525
f 448 496 495
f 449 448 495
f 452 499 496
f 448 452 496
f 454 501 499
f 452 454 499
f 456 503 501
f 454 456 501
f 458 505 503
f 456 458 503
f 460 507 505
f 458 460 505
f 462 509 507
f 460 462 507
f 464 511 509
f 462 464 509
f 466 513 511
f 464 466 511
f 468 515 513
f 466 468 513
f 470 517 515
f 468 470 515
f 472 519 517
f 470 472 517
f 391 650 479
f 391 479 480
f 650 646 481
f 650 481 479
f 646 634 482
f 646 482 481
f 634 620 483
f 634 483 482
f 620 619 484
f 620 484 483
f 619 633 485
f 619 485 484
f 633 649 486
f 633 486 485
f 649 394 487
f 649 487 486
f 394 393 488
f 394 488 487
f 393 337 489
f 393 489 488
f 337 327 490
f 337 490 489
f 327 325 491
f 327 491 490
f 325 324 492
f 325 492 491
f 324 320 493
f 324 493 492
f 320 392 494
f 320 494 493
f 392 391 480
f 392 480 494
f 527 790 399
f 528 527 399
f 529 786 790
f 527 529 790
f 530 774 786
f 529 530 786
f 531 757 774
f 530 531 774
f 532 758 757
f 531 532 757
f 533 771 758
f 532 533 758
f 534 787 771
f 533 534 771
f 535 402 787
f 534 535 787
f 536 403 402
f 535 536 402
f 537 340 403
f 536 537 403
f 538 328 340
f 537 538 340
f 539 326 328
f 538 539 328
f 540 323 326
f 539 540 326
f 541 321 323
f 540 541 323
f 542 398 321
f 541 542 321
f 528 399 398
f 542 528 398
f 570 853 851
f 568 570 851
f 572 855 853
f 570 572 853
f 574 857 855
f 572 574 855
f 545 827 857
f 574 545 857
f 544 828 827
f 545 544 827
f 548 831 828
f 544 548 828
f 550 833 831
f 548 550 831
f 552 835 833
f 550 552 833
f 554 837 835
f 552 554 835
f 556 839 837
f 554 556 837
f 558 841 839
f 556 558 839
f 560 843 841
f 558 560 841
f 562 845 843
f 560 562 843
f 564 847 845
f 562 564 845
f 566 849 847
f 564 566 847
f 568 851 849
f 566 568 849
f 170 169 575
f 170 575 576
f 169 183 577
f 169 577 575
f 183 971 578
f 183 578 577
f 971 438 579
f 971 579 578
f 438 445 580
f 438 580 579
f 445 443 581
f 445 581 580
f 443 441 582
f 443 582 581
f 441 439 583
f 441 583 582
f 439 972 584
f 439 584 583
f 972 85 585
f 972 585 584
f 85 73 586
f 85 586 585
f 73 59 587
f 73 587 586
f 59 58 588
f 59 588 587
f 58 72 589
f 58 589 588
f 72 184 590
f 72 590 589
f 184 170 576
f 184 576 590
f 859 114 113
f 860 859 113
f 861 127 114
f 859 861 114
f 862 973 127
f 861 862 127
f 863 437 973
f 862 863 973
f 864 446 437
f 863 864 437
f 865 444 446
f 864 865 446
f 866 442 444
f 865 866 444
f 867 440 442
f 866 867 442
f 868 974 440
f 867 868 440
f 869 30 974
f 868 869 974
f 870 18 30
f 869 870 30
f 871 1 18
f 870 871 18
f 872 2 1
f 871 872 1
f 873 15 2
f 872 873 2
f 874 130 15
f 873 874 15
f 860 113 130
f 874 860 130
f 902 949 947
f 900 902 947
f 904 951 949
f 902 904 949
f 906 953 951
f 904 906 951
f 877 923 953
f 906 877 953
f 876 924 923
f 877 876 923
f 880 927 924
f 876 880 924
f 882 929 927
f 880 882 927
f 884 931 929
f 882 884 929
f 886 933 931
f 884 886 931
f 888 935 933
f 886 888 933
f 890 937 935
f 888 890 935
f 892 939 937
f 890 892 937
f 894 941 939
f 892 894 939
f 896 943 941
f 894 896 941
f 898 945 943
f 896 898 943
f 900 947 945
f 898 900 945
f 425 423 907
f 425 907 908
f 423 421 909
f 423 909 907
f 421 418 910
f 421 910 909
f 418 417 911
f 418 911 910
f 417 975 912
f 417 912 911
f 975 209 913
f 975 913 912
f 209 198 914
f 209 914 913
f 198 197 915
f 198 915 914
f 197 212 916
f 197 916 915
f 212 222 917
f 212 917 916
f 222 976 918
f 222 918 917
f 976 433 919
f 976 919 918
f 433 431 920
f 433 920 919
f 431 429 921
f 431 921 920
f 429 427 922
f 429 922 921
f 427 425 908
f 427 908 922
f 955 424 426
f 956 955 426
f 957 422 424
f 955 957 424
f 958 419 422
f 957 958 422
f 959 420 419
f 958 959 419
f 960 977 420
f 959 960 420
f 961 155 977
f 960 961 977
f 962 143 155
f 961 962 155
f 963 144 143
f 962 963 143
f 964 156 144
f 963 964 144
f 965 166 156
f 964 965 156
f 966 978 166
f 965 966 166
f 967 434 978
f 966 967 978
f 968 432 434
f 967 968 434
f 969 430 432
f 968 969 432
f 970 428 430
f 969 970 430
f 956 426 428
f 970 956 428
f 979 607 436
f 979 436 980
f 591 981 982
f 591 982 439
f 823 983 984
f 823 984 435
f 985 820 440
f 985 440 986
f 438 987 988
f 438 988 417
f 980 436 433
f 980 433 989
f 990 437 420
f 990 420 991
f 435 984 992
f 435 992 434
