# Botball Lab: metres, +Y up, centred XZ, base Y=0
s off
v 0.0094782 0.0000000 -0.0006123
v 0.0096000 0.0000000 -0.0000000
v 0.0080000 0.0000000 -0.0000000
v 0.0091314 0.0000000 -0.0011314
v 0.0086123 0.0000000 -0.0014782
v 0.0080000 0.0000000 -0.0016000
v 0.0073877 0.0000000 -0.0014782
v 0.0068686 0.0000000 -0.0011314
v 0.0065218 0.0000000 -0.0006123
v 0.0064000 0.0000000 -0.0000000
v 0.0065218 0.0000000 0.0006123
v 0.0068686 0.0000000 0.0011314
v 0.0073877 0.0000000 0.0014782
v 0.0080000 0.0000000 0.0016000
v 0.0086123 0.0000000 0.0014782
v 0.0091314 0.0000000 0.0011314
v 0.0094782 0.0000000 0.0006123
v 0.0094782 0.0024000 -0.0006123
v 0.0096000 0.0024000 -0.0000000
v 0.0091314 0.0024000 -0.0011314
v 0.0086123 0.0024000 -0.0014782
v 0.0080000 0.0024000 -0.0016000
v 0.0073877 0.0024000 -0.0014782
v 0.0068686 0.0024000 -0.0011314
v 0.0065218 0.0024000 -0.0006123
v 0.0064000 0.0024000 -0.0000000
v 0.0065218 0.0024000 0.0006123
v 0.0068686 0.0024000 0.0011314
v 0.0073877 0.0024000 0.0014782
v 0.0080000 0.0024000 0.0016000
v 0.0086123 0.0024000 0.0014782
v 0.0091314 0.0024000 0.0011314
v 0.0094782 0.0024000 0.0006123
v 0.0014782 0.0000000 -0.0006123
v 0.0016000 0.0000000 -0.0000000
v 0.0000000 0.0000000 -0.0000000
v 0.0011314 0.0000000 -0.0011314
v 0.0006123 0.0000000 -0.0014782
v 0.0000000 0.0000000 -0.0016000
v -0.0006123 0.0000000 -0.0014782
v -0.0011314 0.0000000 -0.0011314
v -0.0014782 0.0000000 -0.0006123
v -0.0016000 0.0000000 -0.0000000
v -0.0014782 0.0000000 0.0006123
v -0.0011314 0.0000000 0.0011314
v -0.0006123 0.0000000 0.0014782
v 0.0000000 0.0000000 0.0016000
v 0.0006123 0.0000000 0.0014782
v 0.0011314 0.0000000 0.0011314
v 0.0014782 0.0000000 0.0006123
v 0.0014782 0.0024000 -0.0006123
v 0.0016000 0.0024000 -0.0000000
v 0.0011314 0.0024000 -0.0011314
v 0.0006123 0.0024000 -0.0014782
v 0.0000000 0.0024000 -0.0016000
v -0.0006123 0.0024000 -0.0014782
v -0.0011314 0.0024000 -0.0011314
v -0.0014782 0.0024000 -0.0006123
v -0.0016000 0.0024000 -0.0000000
v -0.0014782 0.0024000 0.0006123
v -0.0011314 0.0024000 0.0011314
v -0.0006123 0.0024000 0.0014782
v 0.0000000 0.0024000 0.0016000
v 0.0006123 0.0024000 0.0014782
v 0.0011314 0.0024000 0.0011314
v 0.0014782 0.0024000 0.0006123
v -0.0065218 0.0000000 -0.0006123
v -0.0064000 0.0000000 -0.0000000
v -0.0080000 0.0000000 -0.0000000
v -0.0068686 0.0000000 -0.0011314
v -0.0073877 0.0000000 -0.0014782
v -0.0080000 0.0000000 -0.0016000
v -0.0086123 0.0000000 -0.0014782
v -0.0091314 0.0000000 -0.0011314
v -0.0094782 0.0000000 -0.0006123
v -0.0096000 0.0000000 -0.0000000
v -0.0094782 0.0000000 0.0006123
v -0.0091314 0.0000000 0.0011314
v -0.0086123 0.0000000 0.0014782
v -0.0080000 0.0000000 0.0016000
v -0.0073877 0.0000000 0.0014782
v -0.0068686 0.0000000 0.0011314
v -0.0065218 0.0000000 0.0006123
v -0.0065218 0.0024000 -0.0006123
v -0.0064000 0.0024000 -0.0000000
v -0.0068686 0.0024000 -0.0011314
v -0.0073877 0.0024000 -0.0014782
v -0.0080000 0.0024000 -0.0016000
v -0.0086123 0.0024000 -0.0014782
v -0.0091314 0.0024000 -0.0011314
v -0.0094782 0.0024000 -0.0006123
v -0.0096000 0.0024000 -0.0000000
v -0.0094782 0.0024000 0.0006123
v -0.0091314 0.0024000 0.0011314
v -0.0086123 0.0024000 0.0014782
v -0.0080000 0.0024000 0.0016000
v -0.0073877 0.0024000 0.0014782
v -0.0068686 0.0024000 0.0011314
v -0.0065218 0.0024000 0.0006123
v -0.0065218 0.0028130 -0.0006123
v -0.0064000 0.0028944 -0.0000000
v -0.0067754 0.0026435 -0.0009918
v -0.0068686 0.0026250 -0.0011314
v -0.0073877 0.0025218 -0.0014782
v -0.0086123 0.0025218 -0.0014782
v -0.0091314 0.0026250 -0.0011314
v -0.0092246 0.0026435 -0.0009918
v -0.0094782 0.0028130 -0.0006123
v -0.0096000 0.0028944 -0.0000000
v -0.0094782 0.0028130 0.0006123
v -0.0092246 0.0026435 0.0009918
v -0.0091314 0.0026250 0.0011314
v -0.0086123 0.0025218 0.0014782
v -0.0073877 0.0025218 0.0014782
v -0.0068686 0.0026250 0.0011314
v -0.0067754 0.0026435 0.0009918
v -0.0065218 0.0028130 0.0006123
v -0.0145218 0.0000000 -0.0006123
v -0.0144000 0.0000000 -0.0000000
v -0.0160000 0.0000000 -0.0000000
v -0.0148686 0.0000000 -0.0011314
v -0.0153877 0.0000000 -0.0014782
v -0.0160000 0.0000000 -0.0016000
v -0.0166123 0.0000000 -0.0014782
v -0.0171314 0.0000000 -0.0011314
v -0.0174782 0.0000000 -0.0006123
v -0.0176000 0.0000000 -0.0000000
v -0.0174782 0.0000000 0.0006123
v -0.0171314 0.0000000 0.0011314
v -0.0166123 0.0000000 0.0014782
v -0.0160000 0.0000000 0.0016000
v -0.0153877 0.0000000 0.0014782
v -0.0148686 0.0000000 0.0011314
v -0.0145218 0.0000000 0.0006123
v -0.0145218 0.0024000 -0.0006123
v -0.0144000 0.0024000 -0.0000000
v -0.0148686 0.0024000 -0.0011314
v -0.0153877 0.0024000 -0.0014782
v -0.0160000 0.0024000 -0.0016000
v -0.0166123 0.0024000 -0.0014782
v -0.0171314 0.0024000 -0.0011314
v -0.0174782 0.0024000 -0.0006123
v -0.0176000 0.0024000 -0.0000000
v -0.0174782 0.0024000 0.0006123
v -0.0171314 0.0024000 0.0011314
v -0.0166123 0.0024000 0.0014782
v -0.0160000 0.0024000 0.0016000
v -0.0153877 0.0024000 0.0014782
v -0.0148686 0.0024000 0.0011314
v -0.0145218 0.0024000 0.0006123
v -0.0145218 0.0028130 -0.0006123
v -0.0144000 0.0028944 -0.0000000
v -0.0147754 0.0026435 -0.0009918
v -0.0148686 0.0026250 -0.0011314
v -0.0153877 0.0025218 -0.0014782
v -0.0166123 0.0025218 -0.0014782
v -0.0171314 0.0026250 -0.0011314
v -0.0172246 0.0026435 -0.0009918
v -0.0174782 0.0028130 -0.0006123
v -0.0176000 0.0028944 -0.0000000
v -0.0174782 0.0028130 0.0006123
v -0.0172246 0.0026435 0.0009918
v -0.0171314 0.0026250 0.0011314
v -0.0166123 0.0025218 0.0014782
v -0.0153877 0.0025218 0.0014782
v -0.0148686 0.0026250 0.0011314
v -0.0147754 0.0026435 0.0009918
v -0.0145218 0.0028130 0.0006123
v 0.0014782 0.0028130 -0.0006123
v 0.0016000 0.0028944 -0.0000000
v 0.0012246 0.0026435 -0.0009918
v 0.0011314 0.0026250 -0.0011314
v 0.0006123 0.0025218 -0.0014782
v -0.0006123 0.0025218 -0.0014782
v -0.0011314 0.0026250 -0.0011314
v -0.0012246 0.0026435 -0.0009918
v -0.0014782 0.0028130 -0.0006123
v -0.0016000 0.0028944 -0.0000000
v -0.0014782 0.0028130 0.0006123
v -0.0012246 0.0026435 0.0009918
v -0.0011314 0.0026250 0.0011314
v -0.0006123 0.0025218 0.0014782
v 0.0006123 0.0025218 0.0014782
v 0.0011314 0.0026250 0.0011314
v 0.0012246 0.0026435 0.0009918
v 0.0014782 0.0028130 0.0006123
v 0.0094782 0.0028130 -0.0006123
v 0.0096000 0.0028944 -0.0000000
v 0.0092246 0.0026435 -0.0009918
v 0.0091314 0.0026250 -0.0011314
v 0.0086123 0.0025218 -0.0014782
v 0.0073877 0.0025218 -0.0014782
v 0.0068686 0.0026250 -0.0011314
v 0.0067754 0.0026435 -0.0009918
v 0.0065218 0.0028130 -0.0006123
v 0.0064000 0.0028944 -0.0000000
v 0.0065218 0.0028130 0.0006123
v 0.0067754 0.0026435 0.0009918
v 0.0068686 0.0026250 0.0011314
v 0.0073877 0.0025218 0.0014782
v 0.0086123 0.0025218 0.0014782
v 0.0091314 0.0026250 0.0011314
v 0.0092246 0.0026435 0.0009918
v 0.0094782 0.0028130 0.0006123
v 0.0174782 0.0000000 -0.0006123
v 0.0176000 0.0000000 -0.0000000
v 0.0160000 0.0000000 -0.0000000
v 0.0171314 0.0000000 -0.0011314
v 0.0166123 0.0000000 -0.0014782
v 0.0160000 0.0000000 -0.0016000
v 0.0153877 0.0000000 -0.0014782
v 0.0148686 0.0000000 -0.0011314
v 0.0145218 0.0000000 -0.0006123
v 0.0144000 0.0000000 -0.0000000
v 0.0145218 0.0000000 0.0006123
v 0.0148686 0.0000000 0.0011314
v 0.0153877 0.0000000 0.0014782
v 0.0160000 0.0000000 0.0016000
v 0.0166123 0.0000000 0.0014782
v 0.0171314 0.0000000 0.0011314
v 0.0174782 0.0000000 0.0006123
v 0.0174782 0.0024000 -0.0006123
v 0.0176000 0.0024000 -0.0000000
v 0.0171314 0.0024000 -0.0011314
v 0.0166123 0.0024000 -0.0014782
v 0.0160000 0.0024000 -0.0016000
v 0.0153877 0.0024000 -0.0014782
v 0.0148686 0.0024000 -0.0011314
v 0.0145218 0.0024000 -0.0006123
v 0.0144000 0.0024000 -0.0000000
v 0.0145218 0.0024000 0.0006123
v 0.0148686 0.0024000 0.0011314
v 0.0153877 0.0024000 0.0014782
v 0.0160000 0.0024000 0.0016000
v 0.0166123 0.0024000 0.0014782
v 0.0171314 0.0024000 0.0011314
v 0.0174782 0.0024000 0.0006123
v 0.0174782 0.0028130 -0.0006123
v 0.0176000 0.0028944 -0.0000000
v 0.0172246 0.0026435 -0.0009918
v 0.0171314 0.0026250 -0.0011314
v 0.0166123 0.0025218 -0.0014782
v 0.0153877 0.0025218 -0.0014782
v 0.0148686 0.0026250 -0.0011314
v 0.0147754 0.0026435 -0.0009918
v 0.0145218 0.0028130 -0.0006123
v 0.0144000 0.0028944 -0.0000000
v 0.0145218 0.0028130 0.0006123
v 0.0147754 0.0026435 0.0009918
v 0.0148686 0.0026250 0.0011314
v 0.0153877 0.0025218 0.0014782
v 0.0166123 0.0025218 0.0014782
v 0.0171314 0.0026250 0.0011314
v 0.0172246 0.0026435 0.0009918
v 0.0174782 0.0028130 0.0006123
v 0.0067754 0.0026435 -0.0032000
v 0.0070815 0.0033826 -0.0032000
v 0.0080000 0.0032000 -0.0032000
v 0.0080000 0.0024000 -0.0032000
v 0.0057373 0.0033373 -0.0032000
v 0.0063030 0.0039030 -0.0032000
v 0.0050435 0.0043754 -0.0032000
v 0.0057826 0.0046815 -0.0032000
v 0.0048000 0.0056000 -0.0032000
v 0.0056000 0.0056000 -0.0032000
v 0.0050435 0.0068246 -0.0032000
v 0.0057826 0.0065185 -0.0032000
v 0.0057373 0.0078627 -0.0032000
v 0.0063030 0.0072970 -0.0032000
v 0.0067754 0.0085565 -0.0032000
v 0.0070815 0.0078174 -0.0032000
v 0.0080000 0.0088000 -0.0032000
v 0.0080000 0.0080000 -0.0032000
v 0.0092246 0.0085565 -0.0032000
v 0.0089185 0.0078174 -0.0032000
v 0.0102627 0.0078627 -0.0032000
v 0.0096970 0.0072970 -0.0032000
v 0.0109565 0.0068246 -0.0032000
v 0.0102174 0.0065185 -0.0032000
v 0.0112000 0.0056000 -0.0032000
v 0.0104000 0.0056000 -0.0032000
v 0.0109565 0.0043754 -0.0032000
v 0.0102174 0.0046815 -0.0032000
v 0.0102627 0.0033373 -0.0032000
v 0.0096970 0.0039030 -0.0032000
v 0.0092246 0.0026435 -0.0032000
v 0.0089185 0.0033826 -0.0032000
v 0.0109565 0.0043754 -0.0040000
v 0.0112000 0.0056000 -0.0040000
v 0.0102627 0.0033373 -0.0040000
v 0.0092246 0.0026435 -0.0040000
v 0.0080000 0.0024000 -0.0040000
v 0.0067754 0.0026435 -0.0040000
v 0.0057373 0.0033373 -0.0040000
v 0.0050435 0.0043754 -0.0040000
v 0.0048000 0.0056000 -0.0040000
v 0.0050435 0.0068246 -0.0040000
v 0.0057373 0.0078627 -0.0040000
v 0.0067754 0.0085565 -0.0040000
v 0.0080000 0.0088000 -0.0040000
v 0.0092246 0.0085565 -0.0040000
v 0.0102627 0.0078627 -0.0040000
v 0.0109565 0.0068246 -0.0040000
v 0.0080000 0.0032000 0.0032000
v 0.0070815 0.0033826 0.0032000
v 0.0067754 0.0026435 0.0032000
v 0.0080000 0.0024000 0.0032000
v 0.0063030 0.0039030 0.0032000
v 0.0057373 0.0033373 0.0032000
v 0.0057826 0.0046815 0.0032000
v 0.0050435 0.0043754 0.0032000
v 0.0056000 0.0056000 0.0032000
v 0.0048000 0.0056000 0.0032000
v 0.0057826 0.0065185 0.0032000
v 0.0050435 0.0068246 0.0032000
v 0.0063030 0.0072970 0.0032000
v 0.0057373 0.0078627 0.0032000
v 0.0070815 0.0078174 0.0032000
v 0.0067754 0.0085565 0.0032000
v 0.0080000 0.0080000 0.0032000
v 0.0080000 0.0088000 0.0032000
v 0.0089185 0.0078174 0.0032000
v 0.0092246 0.0085565 0.0032000
v 0.0096970 0.0072970 0.0032000
v 0.0102627 0.0078627 0.0032000
v 0.0102174 0.0065185 0.0032000
v 0.0109565 0.0068246 0.0032000
v 0.0104000 0.0056000 0.0032000
v 0.0112000 0.0056000 0.0032000
v 0.0102174 0.0046815 0.0032000
v 0.0109565 0.0043754 0.0032000
v 0.0096970 0.0039030 0.0032000
v 0.0102627 0.0033373 0.0032000
v 0.0089185 0.0033826 0.0032000
v 0.0092246 0.0026435 0.0032000
v 0.0109565 0.0043754 0.0040000
v 0.0112000 0.0056000 0.0040000
v 0.0102627 0.0033373 0.0040000
v 0.0092246 0.0026435 0.0040000
v 0.0080000 0.0024000 0.0040000
v 0.0067754 0.0026435 0.0040000
v 0.0057373 0.0033373 0.0040000
v 0.0050435 0.0043754 0.0040000
v 0.0048000 0.0056000 0.0040000
v 0.0050435 0.0068246 0.0040000
v 0.0057373 0.0078627 0.0040000
v 0.0067754 0.0085565 0.0040000
v 0.0080000 0.0088000 0.0040000
v 0.0092246 0.0085565 0.0040000
v 0.0102627 0.0078627 0.0040000
v 0.0109565 0.0068246 0.0040000
v 0.0147754 0.0026435 -0.0032000
v 0.0150815 0.0033826 -0.0032000
v 0.0160000 0.0032000 -0.0032000
v 0.0160000 0.0024000 -0.0032000
v 0.0137373 0.0033373 -0.0032000
v 0.0143030 0.0039030 -0.0032000
v 0.0130435 0.0043754 -0.0032000
v 0.0137826 0.0046815 -0.0032000
v 0.0128000 0.0056000 -0.0032000
v 0.0136000 0.0056000 -0.0032000
v 0.0130435 0.0068246 -0.0032000
v 0.0137826 0.0065185 -0.0032000
v 0.0137373 0.0078627 -0.0032000
v 0.0143030 0.0072970 -0.0032000
v 0.0147754 0.0085565 -0.0032000
v 0.0150815 0.0078174 -0.0032000
v 0.0160000 0.0088000 -0.0032000
v 0.0160000 0.0080000 -0.0032000
v 0.0172246 0.0085565 -0.0032000
v 0.0169185 0.0078174 -0.0032000
v 0.0182627 0.0078627 -0.0032000
v 0.0176970 0.0072970 -0.0032000
v 0.0189565 0.0068246 -0.0032000
v 0.0182174 0.0065185 -0.0032000
v 0.0192000 0.0056000 -0.0032000
v 0.0184000 0.0056000 -0.0032000
v 0.0189565 0.0043754 -0.0032000
v 0.0182174 0.0046815 -0.0032000
v 0.0182627 0.0033373 -0.0032000
v 0.0176970 0.0039030 -0.0032000
v 0.0172246 0.0026435 -0.0032000
v 0.0169185 0.0033826 -0.0032000
v 0.0189565 0.0043754 -0.0040000
v 0.0192000 0.0056000 -0.0040000
v 0.0182627 0.0033373 -0.0040000
v 0.0172246 0.0026435 -0.0040000
v 0.0160000 0.0024000 -0.0040000
v 0.0147754 0.0026435 -0.0040000
v 0.0137373 0.0033373 -0.0040000
v 0.0130435 0.0043754 -0.0040000
v 0.0128000 0.0056000 -0.0040000
v 0.0130435 0.0068246 -0.0040000
v 0.0137373 0.0078627 -0.0040000
v 0.0147754 0.0085565 -0.0040000
v 0.0160000 0.0088000 -0.0040000
v 0.0172246 0.0085565 -0.0040000
v 0.0182627 0.0078627 -0.0040000
v 0.0189565 0.0068246 -0.0040000
v 0.0160000 0.0032000 0.0032000
v 0.0150815 0.0033826 0.0032000
v 0.0147754 0.0026435 0.0032000
v 0.0160000 0.0024000 0.0032000
v 0.0143030 0.0039030 0.0032000
v 0.0137373 0.0033373 0.0032000
v 0.0137826 0.0046815 0.0032000
v 0.0130435 0.0043754 0.0032000
v 0.0136000 0.0056000 0.0032000
v 0.0128000 0.0056000 0.0032000
v 0.0137826 0.0065185 0.0032000
v 0.0130435 0.0068246 0.0032000
v 0.0143030 0.0072970 0.0032000
v 0.0137373 0.0078627 0.0032000
v 0.0150815 0.0078174 0.0032000
v 0.0147754 0.0085565 0.0032000
v 0.0160000 0.0080000 0.0032000
v 0.0160000 0.0088000 0.0032000
v 0.0169185 0.0078174 0.0032000
v 0.0172246 0.0085565 0.0032000
v 0.0176970 0.0072970 0.0032000
v 0.0182627 0.0078627 0.0032000
v 0.0182174 0.0065185 0.0032000
v 0.0189565 0.0068246 0.0032000
v 0.0184000 0.0056000 0.0032000
v 0.0192000 0.0056000 0.0032000
v 0.0182174 0.0046815 0.0032000
v 0.0189565 0.0043754 0.0032000
v 0.0176970 0.0039030 0.0032000
v 0.0182627 0.0033373 0.0032000
v 0.0169185 0.0033826 0.0032000
v 0.0172246 0.0026435 0.0032000
v 0.0189565 0.0043754 0.0040000
v 0.0192000 0.0056000 0.0040000
v 0.0182627 0.0033373 0.0040000
v 0.0172246 0.0026435 0.0040000
v 0.0160000 0.0024000 0.0040000
v 0.0147754 0.0026435 0.0040000
v 0.0137373 0.0033373 0.0040000
v 0.0130435 0.0043754 0.0040000
v 0.0128000 0.0056000 0.0040000
v 0.0130435 0.0068246 0.0040000
v 0.0137373 0.0078627 0.0040000
v 0.0147754 0.0085565 0.0040000
v 0.0160000 0.0088000 0.0040000
v 0.0172246 0.0085565 0.0040000
v 0.0182627 0.0078627 0.0040000
v 0.0189565 0.0068246 0.0040000
v -0.0012246 0.0026435 -0.0032000
v -0.0009185 0.0033826 -0.0032000
v 0.0000000 0.0032000 -0.0032000
v 0.0000000 0.0024000 -0.0032000
v -0.0022627 0.0033373 -0.0032000
v -0.0016970 0.0039030 -0.0032000
v -0.0029565 0.0043754 -0.0032000
v -0.0022174 0.0046815 -0.0032000
v -0.0032000 0.0056000 -0.0032000
v -0.0024000 0.0056000 -0.0032000
v -0.0029565 0.0068246 -0.0032000
v -0.0022174 0.0065185 -0.0032000
v -0.0022627 0.0078627 -0.0032000
v -0.0016970 0.0072970 -0.0032000
v -0.0012246 0.0085565 -0.0032000
v -0.0009185 0.0078174 -0.0032000
v 0.0000000 0.0088000 -0.0032000
v 0.0000000 0.0080000 -0.0032000
v 0.0012246 0.0085565 -0.0032000
v 0.0009185 0.0078174 -0.0032000
v 0.0022627 0.0078627 -0.0032000
v 0.0016970 0.0072970 -0.0032000
v 0.0029565 0.0068246 -0.0032000
v 0.0022174 0.0065185 -0.0032000
v 0.0032000 0.0056000 -0.0032000
v 0.0024000 0.0056000 -0.0032000
v 0.0029565 0.0043754 -0.0032000
v 0.0022174 0.0046815 -0.0032000
v 0.0022627 0.0033373 -0.0032000
v 0.0016970 0.0039030 -0.0032000
v 0.0012246 0.0026435 -0.0032000
v 0.0009185 0.0033826 -0.0032000
v 0.0029565 0.0043754 -0.0040000
v 0.0032000 0.0056000 -0.0040000
v 0.0022627 0.0033373 -0.0040000
v 0.0012246 0.0026435 -0.0040000
v 0.0000000 0.0024000 -0.0040000
v -0.0012246 0.0026435 -0.0040000
v -0.0022627 0.0033373 -0.0040000
v -0.0029565 0.0043754 -0.0040000
v -0.0032000 0.0056000 -0.0040000
v -0.0029565 0.0068246 -0.0040000
v -0.0022627 0.0078627 -0.0040000
v -0.0012246 0.0085565 -0.0040000
v 0.0000000 0.0088000 -0.0040000
v 0.0012246 0.0085565 -0.0040000
v 0.0022627 0.0078627 -0.0040000
v 0.0029565 0.0068246 -0.0040000
v 0.0000000 0.0032000 0.0032000
v -0.0009185 0.0033826 0.0032000
v -0.0012246 0.0026435 0.0032000
v 0.0000000 0.0024000 0.0032000
v -0.0016970 0.0039030 0.0032000
v -0.0022627 0.0033373 0.0032000
v -0.0022174 0.0046815 0.0032000
v -0.0029565 0.0043754 0.0032000
v -0.0024000 0.0056000 0.0032000
v -0.0032000 0.0056000 0.0032000
v -0.0022174 0.0065185 0.0032000
v -0.0029565 0.0068246 0.0032000
v -0.0016970 0.0072970 0.0032000
v -0.0022627 0.0078627 0.0032000
v -0.0009185 0.0078174 0.0032000
v -0.0012246 0.0085565 0.0032000
v 0.0000000 0.0080000 0.0032000
v 0.0000000 0.0088000 0.0032000
v 0.0009185 0.0078174 0.0032000
v 0.0012246 0.0085565 0.0032000
v 0.0016970 0.0072970 0.0032000
v 0.0022627 0.0078627 0.0032000
v 0.0022174 0.0065185 0.0032000
v 0.0029565 0.0068246 0.0032000
v 0.0024000 0.0056000 0.0032000
v 0.0032000 0.0056000 0.0032000
v 0.0022174 0.0046815 0.0032000
v 0.0029565 0.0043754 0.0032000
v 0.0016970 0.0039030 0.0032000
v 0.0022627 0.0033373 0.0032000
v 0.0009185 0.0033826 0.0032000
v 0.0012246 0.0026435 0.0032000
v 0.0029565 0.0043754 0.0040000
v 0.0032000 0.0056000 0.0040000
v 0.0022627 0.0033373 0.0040000
v 0.0012246 0.0026435 0.0040000
v 0.0000000 0.0024000 0.0040000
v -0.0012246 0.0026435 0.0040000
v -0.0022627 0.0033373 0.0040000
v -0.0029565 0.0043754 0.0040000
v -0.0032000 0.0056000 0.0040000
v -0.0029565 0.0068246 0.0040000
v -0.0022627 0.0078627 0.0040000
v -0.0012246 0.0085565 0.0040000
v 0.0000000 0.0088000 0.0040000
v 0.0012246 0.0085565 0.0040000
v 0.0022627 0.0078627 0.0040000
v 0.0029565 0.0068246 0.0040000
v -0.0092246 0.0026435 -0.0032000
v -0.0089185 0.0033826 -0.0032000
v -0.0080000 0.0032000 -0.0032000
v -0.0080000 0.0024000 -0.0032000
v -0.0102627 0.0033373 -0.0032000
v -0.0096970 0.0039030 -0.0032000
v -0.0109565 0.0043754 -0.0032000
v -0.0102174 0.0046815 -0.0032000
v -0.0112000 0.0056000 -0.0032000
v -0.0104000 0.0056000 -0.0032000
v -0.0109565 0.0068246 -0.0032000
v -0.0102174 0.0065185 -0.0032000
v -0.0102627 0.0078627 -0.0032000
v -0.0096970 0.0072970 -0.0032000
v -0.0092246 0.0085565 -0.0032000
v -0.0089185 0.0078174 -0.0032000
v -0.0080000 0.0088000 -0.0032000
v -0.0080000 0.0080000 -0.0032000
v -0.0067754 0.0085565 -0.0032000
v -0.0070815 0.0078174 -0.0032000
v -0.0057373 0.0078627 -0.0032000
v -0.0063030 0.0072970 -0.0032000
v -0.0050435 0.0068246 -0.0032000
v -0.0057826 0.0065185 -0.0032000
v -0.0048000 0.0056000 -0.0032000
v -0.0056000 0.0056000 -0.0032000
v -0.0050435 0.0043754 -0.0032000
v -0.0057826 0.0046815 -0.0032000
v -0.0057373 0.0033373 -0.0032000
v -0.0063030 0.0039030 -0.0032000
v -0.0067754 0.0026435 -0.0032000
v -0.0070815 0.0033826 -0.0032000
v -0.0050435 0.0043754 -0.0040000
v -0.0048000 0.0056000 -0.0040000
v -0.0057373 0.0033373 -0.0040000
v -0.0067754 0.0026435 -0.0040000
v -0.0080000 0.0024000 -0.0040000
v -0.0092246 0.0026435 -0.0040000
v -0.0102627 0.0033373 -0.0040000
v -0.0109565 0.0043754 -0.0040000
v -0.0112000 0.0056000 -0.0040000
v -0.0109565 0.0068246 -0.0040000
v -0.0102627 0.0078627 -0.0040000
v -0.0092246 0.0085565 -0.0040000
v -0.0080000 0.0088000 -0.0040000
v -0.0067754 0.0085565 -0.0040000
v -0.0057373 0.0078627 -0.0040000
v -0.0050435 0.0068246 -0.0040000
v -0.0080000 0.0032000 0.0032000
v -0.0089185 0.0033826 0.0032000
v -0.0092246 0.0026435 0.0032000
v -0.0080000 0.0024000 0.0032000
v -0.0096970 0.0039030 0.0032000
v -0.0102627 0.0033373 0.0032000
v -0.0102174 0.0046815 0.0032000
v -0.0109565 0.0043754 0.0032000
v -0.0104000 0.0056000 0.0032000
v -0.0112000 0.0056000 0.0032000
v -0.0102174 0.0065185 0.0032000
v -0.0109565 0.0068246 0.0032000
v -0.0096970 0.0072970 0.0032000
v -0.0102627 0.0078627 0.0032000
v -0.0089185 0.0078174 0.0032000
v -0.0092246 0.0085565 0.0032000
v -0.0080000 0.0080000 0.0032000
v -0.0080000 0.0088000 0.0032000
v -0.0070815 0.0078174 0.0032000
v -0.0067754 0.0085565 0.0032000
v -0.0063030 0.0072970 0.0032000
v -0.0057373 0.0078627 0.0032000
v -0.0057826 0.0065185 0.0032000
v -0.0050435 0.0068246 0.0032000
v -0.0056000 0.0056000 0.0032000
v -0.0048000 0.0056000 0.0032000
v -0.0057826 0.0046815 0.0032000
v -0.0050435 0.0043754 0.0032000
v -0.0063030 0.0039030 0.0032000
v -0.0057373 0.0033373 0.0032000
v -0.0070815 0.0033826 0.0032000
v -0.0067754 0.0026435 0.0032000
v -0.0050435 0.0043754 0.0040000
v -0.0048000 0.0056000 0.0040000
v -0.0057373 0.0033373 0.0040000
v -0.0067754 0.0026435 0.0040000
v -0.0080000 0.0024000 0.0040000
v -0.0092246 0.0026435 0.0040000
v -0.0102627 0.0033373 0.0040000
v -0.0109565 0.0043754 0.0040000
v -0.0112000 0.0056000 0.0040000
v -0.0109565 0.0068246 0.0040000
v -0.0102627 0.0078627 0.0040000
v -0.0092246 0.0085565 0.0040000
v -0.0080000 0.0088000 0.0040000
v -0.0067754 0.0085565 0.0040000
v -0.0057373 0.0078627 0.0040000
v -0.0050435 0.0068246 0.0040000
v -0.0172246 0.0026435 -0.0032000
v -0.0169185 0.0033826 -0.0032000
v -0.0160000 0.0032000 -0.0032000
v -0.0160000 0.0024000 -0.0032000
v -0.0182627 0.0033373 -0.0032000
v -0.0176970 0.0039030 -0.0032000
v -0.0189565 0.0043754 -0.0032000
v -0.0182174 0.0046815 -0.0032000
v -0.0192000 0.0056000 -0.0032000
v -0.0184000 0.0056000 -0.0032000
v -0.0189565 0.0068246 -0.0032000
v -0.0182174 0.0065185 -0.0032000
v -0.0182627 0.0078627 -0.0032000
v -0.0176970 0.0072970 -0.0032000
v -0.0172246 0.0085565 -0.0032000
v -0.0169185 0.0078174 -0.0032000
v -0.0160000 0.0088000 -0.0032000
v -0.0160000 0.0080000 -0.0032000
v -0.0147754 0.0085565 -0.0032000
v -0.0150815 0.0078174 -0.0032000
v -0.0137373 0.0078627 -0.0032000
v -0.0143030 0.0072970 -0.0032000
v -0.0130435 0.0068246 -0.0032000
v -0.0137826 0.0065185 -0.0032000
v -0.0128000 0.0056000 -0.0032000
v -0.0136000 0.0056000 -0.0032000
v -0.0130435 0.0043754 -0.0032000
v -0.0137826 0.0046815 -0.0032000
v -0.0137373 0.0033373 -0.0032000
v -0.0143030 0.0039030 -0.0032000
v -0.0147754 0.0026435 -0.0032000
v -0.0150815 0.0033826 -0.0032000
v -0.0130435 0.0043754 -0.0040000
v -0.0128000 0.0056000 -0.0040000
v -0.0137373 0.0033373 -0.0040000
v -0.0147754 0.0026435 -0.0040000
v -0.0160000 0.0024000 -0.0040000
v -0.0172246 0.0026435 -0.0040000
v -0.0182627 0.0033373 -0.0040000
v -0.0189565 0.0043754 -0.0040000
v -0.0192000 0.0056000 -0.0040000
v -0.0189565 0.0068246 -0.0040000
v -0.0182627 0.0078627 -0.0040000
v -0.0172246 0.0085565 -0.0040000
v -0.0160000 0.0088000 -0.0040000
v -0.0147754 0.0085565 -0.0040000
v -0.0137373 0.0078627 -0.0040000
v -0.0130435 0.0068246 -0.0040000
v -0.0160000 0.0032000 0.0032000
v -0.0169185 0.0033826 0.0032000
v -0.0172246 0.0026435 0.0032000
v -0.0160000 0.0024000 0.0032000
v -0.0176970 0.0039030 0.0032000
v -0.0182627 0.0033373 0.0032000
v -0.0182174 0.0046815 0.0032000
v -0.0189565 0.0043754 0.0032000
v -0.0184000 0.0056000 0.0032000
v -0.0192000 0.0056000 0.0032000
v -0.0182174 0.0065185 0.0032000
v -0.0189565 0.0068246 0.0032000
v -0.0176970 0.0072970 0.0032000
v -0.0182627 0.0078627 0.0032000
v -0.0169185 0.0078174 0.0032000
v -0.0172246 0.0085565 0.0032000
v -0.0160000 0.0080000 0.0032000
v -0.0160000 0.0088000 0.0032000
v -0.0150815 0.0078174 0.0032000
v -0.0147754 0.0085565 0.0032000
v -0.0143030 0.0072970 0.0032000
v -0.0137373 0.0078627 0.0032000
v -0.0137826 0.0065185 0.0032000
v -0.0130435 0.0068246 0.0032000
v -0.0136000 0.0056000 0.0032000
v -0.0128000 0.0056000 0.0032000
v -0.0137826 0.0046815 0.0032000
v -0.0130435 0.0043754 0.0032000
v -0.0143030 0.0039030 0.0032000
v -0.0137373 0.0033373 0.0032000
v -0.0150815 0.0033826 0.0032000
v -0.0147754 0.0026435 0.0032000
v -0.0130435 0.0043754 0.0040000
v -0.0128000 0.0056000 0.0040000
v -0.0137373 0.0033373 0.0040000
v -0.0147754 0.0026435 0.0040000
v -0.0160000 0.0024000 0.0040000
v -0.0172246 0.0026435 0.0040000
v -0.0182627 0.0033373 0.0040000
v -0.0189565 0.0043754 0.0040000
v -0.0192000 0.0056000 0.0040000
v -0.0189565 0.0068246 0.0040000
v -0.0182627 0.0078627 0.0040000
v -0.0172246 0.0085565 0.0040000
v -0.0160000 0.0088000 0.0040000
v -0.0147754 0.0085565 0.0040000
v -0.0137373 0.0078627 0.0040000
v -0.0130435 0.0068246 0.0040000
v 0.0048000 0.0080000 -0.0024000
v 0.0048000 0.0080000 0.0024000
v 0.0032000 0.0080000 0.0024000
v 0.0032000 0.0080000 -0.0024000
v 0.0032000 0.0056000 0.0024000
v 0.0032000 0.0056000 -0.0024000
v 0.0048000 0.0056000 -0.0024000
v 0.0048000 0.0056000 0.0024000
v 0.0128000 0.0080000 -0.0024000
v 0.0128000 0.0080000 0.0024000
v 0.0112000 0.0080000 0.0024000
v 0.0112000 0.0080000 -0.0024000
v 0.0112000 0.0056000 0.0024000
v 0.0112000 0.0056000 -0.0024000
v 0.0128000 0.0056000 -0.0024000
v 0.0128000 0.0056000 0.0024000
v -0.0032000 0.0080000 -0.0024000
v -0.0032000 0.0080000 0.0024000
v -0.0048000 0.0080000 0.0024000
v -0.0048000 0.0080000 -0.0024000
v -0.0048000 0.0056000 0.0024000
v -0.0048000 0.0056000 -0.0024000
v -0.0032000 0.0056000 -0.0024000
v -0.0032000 0.0056000 0.0024000
v -0.0112000 0.0080000 -0.0024000
v -0.0112000 0.0080000 0.0024000
v -0.0128000 0.0080000 0.0024000
v -0.0128000 0.0080000 -0.0024000
v -0.0128000 0.0056000 0.0024000
v -0.0128000 0.0056000 -0.0024000
v -0.0112000 0.0056000 -0.0024000
v -0.0112000 0.0056000 0.0024000
v 0.0224000 0.0080000 0.0024000
v 0.0192000 0.0080000 0.0024000
v 0.0192000 0.0080000 -0.0024000
v 0.0224000 0.0080000 -0.0024000
v 0.0224000 0.0000000 -0.0024000
v 0.0224000 0.0000000 0.0024000
v -0.0224000 0.0080000 -0.0024000
v -0.0192000 0.0080000 -0.0024000
v -0.0192000 0.0080000 0.0024000
v -0.0224000 0.0080000 0.0024000
v -0.0224000 0.0000000 0.0024000
v -0.0224000 0.0000000 -0.0024000
v 0.0109565 0.0043754 0.0024000
v 0.0109565 0.0043754 -0.0024000
v 0.0102627 0.0033373 0.0024000
v 0.0102627 0.0033373 -0.0024000
v 0.0092246 0.0026435 0.0024000
v 0.0092246 0.0026435 -0.0024000
v 0.0080000 0.0024000 0.0024000
v 0.0080000 0.0024000 -0.0024000
v 0.0067754 0.0026435 0.0024000
v 0.0067754 0.0026435 -0.0024000
v 0.0057373 0.0033373 0.0024000
v 0.0057373 0.0033373 -0.0024000
v 0.0050435 0.0043754 0.0024000
v 0.0050435 0.0043754 -0.0024000
v 0.0189565 0.0043754 0.0024000
v 0.0189565 0.0043754 -0.0024000
v 0.0192000 0.0056000 -0.0024000
v 0.0192000 0.0056000 0.0024000
v 0.0182627 0.0033373 0.0024000
v 0.0182627 0.0033373 -0.0024000
v 0.0172246 0.0026435 0.0024000
v 0.0172246 0.0026435 -0.0024000
v 0.0160000 0.0024000 0.0024000
v 0.0160000 0.0024000 -0.0024000
v 0.0147754 0.0026435 0.0024000
v 0.0147754 0.0026435 -0.0024000
v 0.0137373 0.0033373 0.0024000
v 0.0137373 0.0033373 -0.0024000
v 0.0130435 0.0043754 0.0024000
v 0.0130435 0.0043754 -0.0024000
v 0.0029565 0.0043754 0.0024000
v 0.0029565 0.0043754 -0.0024000
v 0.0022627 0.0033373 0.0024000
v 0.0022627 0.0033373 -0.0024000
v 0.0012246 0.0026435 0.0024000
v 0.0012246 0.0026435 -0.0024000
v 0.0000000 0.0024000 0.0024000
v 0.0000000 0.0024000 -0.0024000
v -0.0012246 0.0026435 0.0024000
v -0.0012246 0.0026435 -0.0024000
v -0.0022627 0.0033373 0.0024000
v -0.0022627 0.0033373 -0.0024000
v -0.0029565 0.0043754 0.0024000
v -0.0029565 0.0043754 -0.0024000
v -0.0050435 0.0043754 0.0024000
v -0.0050435 0.0043754 -0.0024000
v -0.0057373 0.0033373 0.0024000
v -0.0057373 0.0033373 -0.0024000
v -0.0067754 0.0026435 0.0024000
v -0.0067754 0.0026435 -0.0024000
v -0.0080000 0.0024000 0.0024000
v -0.0080000 0.0024000 -0.0024000
v -0.0092246 0.0026435 0.0024000
v -0.0092246 0.0026435 -0.0024000
v -0.0102627 0.0033373 0.0024000
v -0.0102627 0.0033373 -0.0024000
v -0.0109565 0.0043754 0.0024000
v -0.0109565 0.0043754 -0.0024000
v -0.0130435 0.0043754 0.0024000
v -0.0130435 0.0043754 -0.0024000
v -0.0137373 0.0033373 0.0024000
v -0.0137373 0.0033373 -0.0024000
v -0.0147754 0.0026435 0.0024000
v -0.0147754 0.0026435 -0.0024000
v -0.0160000 0.0024000 0.0024000
v -0.0160000 0.0024000 -0.0024000
v -0.0172246 0.0026435 0.0024000
v -0.0172246 0.0026435 -0.0024000
v -0.0182627 0.0033373 0.0024000
v -0.0182627 0.0033373 -0.0024000
v -0.0189565 0.0043754 0.0024000
v -0.0189565 0.0043754 -0.0024000
v -0.0192000 0.0056000 0.0024000
v -0.0192000 0.0056000 -0.0024000
v 0.0112000 0.0024000 -0.0024000
v 0.0048000 0.0024000 -0.0024000
v 0.0112000 0.0024000 0.0024000
v 0.0048000 0.0024000 0.0024000
v 0.0192000 0.0024000 -0.0024000
v 0.0128000 0.0024000 -0.0024000
v 0.0192000 0.0024000 0.0024000
v 0.0128000 0.0024000 0.0024000
v 0.0032000 0.0024000 -0.0024000
v -0.0032000 0.0024000 -0.0024000
v 0.0032000 0.0024000 0.0024000
v -0.0032000 0.0024000 0.0024000
v -0.0048000 0.0024000 -0.0024000
v -0.0112000 0.0024000 -0.0024000
v -0.0048000 0.0024000 0.0024000
v -0.0112000 0.0024000 0.0024000
v -0.0128000 0.0024000 -0.0024000
v -0.0192000 0.0024000 -0.0024000
v -0.0128000 0.0024000 0.0024000
v -0.0192000 0.0024000 0.0024000
v 0.0240000 0.0000000 -0.0040000
v -0.0240000 0.0000000 -0.0040000
v 0.0240000 0.0000000 0.0040000
v -0.0240000 0.0000000 0.0040000
v 0.0240000 0.0096000 -0.0040000
v -0.0240000 0.0096000 -0.0040000
v -0.0240000 0.0096000 0.0040000
v 0.0240000 0.0096000 0.0040000
v 0.0112000 0.0024000 -0.0040000
v 0.0048000 0.0024000 -0.0040000
v 0.0048000 0.0088000 -0.0040000
v 0.0112000 0.0088000 -0.0040000
v 0.0112000 0.0024000 0.0040000
v 0.0048000 0.0024000 0.0040000
v 0.0048000 0.0088000 0.0040000
v 0.0112000 0.0088000 0.0040000
v 0.0192000 0.0024000 -0.0040000
v 0.0128000 0.0024000 -0.0040000
v 0.0128000 0.0088000 -0.0040000
v 0.0192000 0.0088000 -0.0040000
v 0.0192000 0.0024000 0.0040000
v 0.0128000 0.0024000 0.0040000
v 0.0128000 0.0088000 0.0040000
v 0.0192000 0.0088000 0.0040000
v 0.0032000 0.0024000 -0.0040000
v -0.0032000 0.0024000 -0.0040000
v -0.0032000 0.0088000 -0.0040000
v 0.0032000 0.0088000 -0.0040000
v 0.0032000 0.0024000 0.0040000
v -0.0032000 0.0024000 0.0040000
v -0.0032000 0.0088000 0.0040000
v 0.0032000 0.0088000 0.0040000
v -0.0048000 0.0024000 -0.0040000
v -0.0112000 0.0024000 -0.0040000
v -0.0112000 0.0088000 -0.0040000
v -0.0048000 0.0088000 -0.0040000
v -0.0048000 0.0024000 0.0040000
v -0.0112000 0.0024000 0.0040000
v -0.0112000 0.0088000 0.0040000
v -0.0048000 0.0088000 0.0040000
v -0.0128000 0.0024000 -0.0040000
v -0.0192000 0.0024000 -0.0040000
v -0.0192000 0.0088000 -0.0040000
v -0.0128000 0.0088000 -0.0040000
v -0.0128000 0.0024000 0.0040000
v -0.0192000 0.0024000 0.0040000
v -0.0192000 0.0088000 0.0040000
v -0.0128000 0.0088000 0.0040000
v 0.0134782 0.0112000 -0.0006123
v 0.0134782 0.0096000 -0.0006123
v 0.0136000 0.0096000 -0.0000000
v 0.0136000 0.0112000 -0.0000000
v 0.0131314 0.0112000 -0.0011314
v 0.0131314 0.0096000 -0.0011314
v 0.0126123 0.0112000 -0.0014782
v 0.0126123 0.0096000 -0.0014782
v 0.0120000 0.0112000 -0.0016000
v 0.0120000 0.0096000 -0.0016000
v 0.0113877 0.0112000 -0.0014782
v 0.0113877 0.0096000 -0.0014782
v 0.0108686 0.0112000 -0.0011314
v 0.0108686 0.0096000 -0.0011314
v 0.0105218 0.0112000 -0.0006123
v 0.0105218 0.0096000 -0.0006123
v 0.0104000 0.0112000 -0.0000000
v 0.0104000 0.0096000 -0.0000000
v 0.0105218 0.0112000 0.0006123
v 0.0105218 0.0096000 0.0006123
v 0.0108686 0.0112000 0.0011314
v 0.0108686 0.0096000 0.0011314
v 0.0113877 0.0112000 0.0014782
v 0.0113877 0.0096000 0.0014782
v 0.0120000 0.0112000 0.0016000
v 0.0120000 0.0096000 0.0016000
v 0.0126123 0.0112000 0.0014782
v 0.0126123 0.0096000 0.0014782
v 0.0131314 0.0112000 0.0011314
v 0.0131314 0.0096000 0.0011314
v 0.0134782 0.0112000 0.0006123
v 0.0134782 0.0096000 0.0006123
v 0.0144000 0.0096000 -0.0000000
v 0.0142174 0.0096000 -0.0009185
v 0.0142174 0.0112000 -0.0009185
v 0.0144000 0.0112000 -0.0000000
v 0.0136970 0.0096000 -0.0016970
v 0.0136970 0.0112000 -0.0016970
v 0.0129185 0.0096000 -0.0022174
v 0.0129185 0.0112000 -0.0022174
v 0.0120000 0.0096000 -0.0024000
v 0.0120000 0.0112000 -0.0024000
v 0.0110815 0.0096000 -0.0022174
v 0.0110815 0.0112000 -0.0022174
v 0.0103030 0.0096000 -0.0016970
v 0.0103030 0.0112000 -0.0016970
v 0.0097826 0.0096000 -0.0009185
v 0.0097826 0.0112000 -0.0009185
v 0.0096000 0.0096000 -0.0000000
v 0.0096000 0.0112000 -0.0000000
v 0.0097826 0.0096000 0.0009185
v 0.0097826 0.0112000 0.0009185
v 0.0103030 0.0096000 0.0016970
v 0.0103030 0.0112000 0.0016970
v 0.0110815 0.0096000 0.0022174
v 0.0110815 0.0112000 0.0022174
v 0.0120000 0.0096000 0.0024000
v 0.0120000 0.0112000 0.0024000
v 0.0129185 0.0096000 0.0022174
v 0.0129185 0.0112000 0.0022174
v 0.0136970 0.0096000 0.0016970
v 0.0136970 0.0112000 0.0016970
v 0.0142174 0.0096000 0.0009185
v 0.0142174 0.0112000 0.0009185
v 0.0214782 0.0112000 -0.0006123
v 0.0214782 0.0096000 -0.0006123
v 0.0216000 0.0096000 -0.0000000
v 0.0216000 0.0112000 -0.0000000
v 0.0211314 0.0112000 -0.0011314
v 0.0211314 0.0096000 -0.0011314
v 0.0206123 0.0112000 -0.0014782
v 0.0206123 0.0096000 -0.0014782
v 0.0200000 0.0112000 -0.0016000
v 0.0200000 0.0096000 -0.0016000
v 0.0193877 0.0112000 -0.0014782
v 0.0193877 0.0096000 -0.0014782
v 0.0188686 0.0112000 -0.0011314
v 0.0188686 0.0096000 -0.0011314
v 0.0185218 0.0112000 -0.0006123
v 0.0185218 0.0096000 -0.0006123
v 0.0184000 0.0112000 -0.0000000
v 0.0184000 0.0096000 -0.0000000
v 0.0185218 0.0112000 0.0006123
v 0.0185218 0.0096000 0.0006123
v 0.0188686 0.0112000 0.0011314
v 0.0188686 0.0096000 0.0011314
v 0.0193877 0.0112000 0.0014782
v 0.0193877 0.0096000 0.0014782
v 0.0200000 0.0112000 0.0016000
v 0.0200000 0.0096000 0.0016000
v 0.0206123 0.0112000 0.0014782
v 0.0206123 0.0096000 0.0014782
v 0.0211314 0.0112000 0.0011314
v 0.0211314 0.0096000 0.0011314
v 0.0214782 0.0112000 0.0006123
v 0.0214782 0.0096000 0.0006123
v 0.0224000 0.0096000 -0.0000000
v 0.0222174 0.0096000 -0.0009185
v 0.0222174 0.0112000 -0.0009185
v 0.0224000 0.0112000 -0.0000000
v 0.0216970 0.0096000 -0.0016970
v 0.0216970 0.0112000 -0.0016970
v 0.0209185 0.0096000 -0.0022174
v 0.0209185 0.0112000 -0.0022174
v 0.0200000 0.0096000 -0.0024000
v 0.0200000 0.0112000 -0.0024000
v 0.0190815 0.0096000 -0.0022174
v 0.0190815 0.0112000 -0.0022174
v 0.0183030 0.0096000 -0.0016970
v 0.0183030 0.0112000 -0.0016970
v 0.0177826 0.0096000 -0.0009185
v 0.0177826 0.0112000 -0.0009185
v 0.0176000 0.0096000 -0.0000000
v 0.0176000 0.0112000 -0.0000000
v 0.0177826 0.0096000 0.0009185
v 0.0177826 0.0112000 0.0009185
v 0.0183030 0.0096000 0.0016970
v 0.0183030 0.0112000 0.0016970
v 0.0190815 0.0096000 0.0022174
v 0.0190815 0.0112000 0.0022174
v 0.0200000 0.0096000 0.0024000
v 0.0200000 0.0112000 0.0024000
v 0.0209185 0.0096000 0.0022174
v 0.0209185 0.0112000 0.0022174
v 0.0216970 0.0096000 0.0016970
v 0.0216970 0.0112000 0.0016970
v 0.0222174 0.0096000 0.0009185
v 0.0222174 0.0112000 0.0009185
v 0.0054782 0.0112000 -0.0006123
v 0.0054782 0.0096000 -0.0006123
v 0.0056000 0.0096000 -0.0000000
v 0.0056000 0.0112000 -0.0000000
v 0.0051314 0.0112000 -0.0011314
v 0.0051314 0.0096000 -0.0011314
v 0.0046123 0.0112000 -0.0014782
v 0.0046123 0.0096000 -0.0014782
v 0.0040000 0.0112000 -0.0016000
v 0.0040000 0.0096000 -0.0016000
v 0.0033877 0.0112000 -0.0014782
v 0.0033877 0.0096000 -0.0014782
v 0.0028686 0.0112000 -0.0011314
v 0.0028686 0.0096000 -0.0011314
v 0.0025218 0.0112000 -0.0006123
v 0.0025218 0.0096000 -0.0006123
v 0.0024000 0.0112000 -0.0000000
v 0.0024000 0.0096000 -0.0000000
v 0.0025218 0.0112000 0.0006123
v 0.0025218 0.0096000 0.0006123
v 0.0028686 0.0112000 0.0011314
v 0.0028686 0.0096000 0.0011314
v 0.0033877 0.0112000 0.0014782
v 0.0033877 0.0096000 0.0014782
v 0.0040000 0.0112000 0.0016000
v 0.0040000 0.0096000 0.0016000
v 0.0046123 0.0112000 0.0014782
v 0.0046123 0.0096000 0.0014782
v 0.0051314 0.0112000 0.0011314
v 0.0051314 0.0096000 0.0011314
v 0.0054782 0.0112000 0.0006123
v 0.0054782 0.0096000 0.0006123
v 0.0064000 0.0096000 -0.0000000
v 0.0062174 0.0096000 -0.0009185
v 0.0062174 0.0112000 -0.0009185
v 0.0064000 0.0112000 -0.0000000
v 0.0056970 0.0096000 -0.0016970
v 0.0056970 0.0112000 -0.0016970
v 0.0049185 0.0096000 -0.0022174
v 0.0049185 0.0112000 -0.0022174
v 0.0040000 0.0096000 -0.0024000
v 0.0040000 0.0112000 -0.0024000
v 0.0030815 0.0096000 -0.0022174
v 0.0030815 0.0112000 -0.0022174
v 0.0023030 0.0096000 -0.0016970
v 0.0023030 0.0112000 -0.0016970
v 0.0017826 0.0096000 -0.0009185
v 0.0017826 0.0112000 -0.0009185
v 0.0016000 0.0096000 -0.0000000
v 0.0016000 0.0112000 -0.0000000
v 0.0017826 0.0096000 0.0009185
v 0.0017826 0.0112000 0.0009185
v 0.0023030 0.0096000 0.0016970
v 0.0023030 0.0112000 0.0016970
v 0.0030815 0.0096000 0.0022174
v 0.0030815 0.0112000 0.0022174
v 0.0040000 0.0096000 0.0024000
v 0.0040000 0.0112000 0.0024000
v 0.0049185 0.0096000 0.0022174
v 0.0049185 0.0112000 0.0022174
v 0.0056970 0.0096000 0.0016970
v 0.0056970 0.0112000 0.0016970
v 0.0062174 0.0096000 0.0009185
v 0.0062174 0.0112000 0.0009185
v -0.0025218 0.0112000 -0.0006123
v -0.0025218 0.0096000 -0.0006123
v -0.0024000 0.0096000 -0.0000000
v -0.0024000 0.0112000 -0.0000000
v -0.0028686 0.0112000 -0.0011314
v -0.0028686 0.0096000 -0.0011314
v -0.0033877 0.0112000 -0.0014782
v -0.0033877 0.0096000 -0.0014782
v -0.0040000 0.0112000 -0.0016000
v -0.0040000 0.0096000 -0.0016000
v -0.0046123 0.0112000 -0.0014782
v -0.0046123 0.0096000 -0.0014782
v -0.0051314 0.0112000 -0.0011314
v -0.0051314 0.0096000 -0.0011314
v -0.0054782 0.0112000 -0.0006123
v -0.0054782 0.0096000 -0.0006123
v -0.0056000 0.0112000 -0.0000000
v -0.0056000 0.0096000 -0.0000000
v -0.0054782 0.0112000 0.0006123
v -0.0054782 0.0096000 0.0006123
v -0.0051314 0.0112000 0.0011314
v -0.0051314 0.0096000 0.0011314
v -0.0046123 0.0112000 0.0014782
v -0.0046123 0.0096000 0.0014782
v -0.0040000 0.0112000 0.0016000
v -0.0040000 0.0096000 0.0016000
v -0.0033877 0.0112000 0.0014782
v -0.0033877 0.0096000 0.0014782
v -0.0028686 0.0112000 0.0011314
v -0.0028686 0.0096000 0.0011314
v -0.0025218 0.0112000 0.0006123
v -0.0025218 0.0096000 0.0006123
v -0.0016000 0.0096000 -0.0000000
v -0.0017826 0.0096000 -0.0009185
v -0.0017826 0.0112000 -0.0009185
v -0.0016000 0.0112000 -0.0000000
v -0.0023030 0.0096000 -0.0016970
v -0.0023030 0.0112000 -0.0016970
v -0.0030815 0.0096000 -0.0022174
v -0.0030815 0.0112000 -0.0022174
v -0.0040000 0.0096000 -0.0024000
v -0.0040000 0.0112000 -0.0024000
v -0.0049185 0.0096000 -0.0022174
v -0.0049185 0.0112000 -0.0022174
v -0.0056970 0.0096000 -0.0016970
v -0.0056970 0.0112000 -0.0016970
v -0.0062174 0.0096000 -0.0009185
v -0.0062174 0.0112000 -0.0009185
v -0.0064000 0.0096000 -0.0000000
v -0.0064000 0.0112000 -0.0000000
v -0.0062174 0.0096000 0.0009185
v -0.0062174 0.0112000 0.0009185
v -0.0056970 0.0096000 0.0016970
v -0.0056970 0.0112000 0.0016970
v -0.0049185 0.0096000 0.0022174
v -0.0049185 0.0112000 0.0022174
v -0.0040000 0.0096000 0.0024000
v -0.0040000 0.0112000 0.0024000
v -0.0030815 0.0096000 0.0022174
v -0.0030815 0.0112000 0.0022174
v -0.0023030 0.0096000 0.0016970
v -0.0023030 0.0112000 0.0016970
v -0.0017826 0.0096000 0.0009185
v -0.0017826 0.0112000 0.0009185
v -0.0105218 0.0112000 -0.0006123
v -0.0105218 0.0096000 -0.0006123
v -0.0104000 0.0096000 -0.0000000
v -0.0104000 0.0112000 -0.0000000
v -0.0108686 0.0112000 -0.0011314
v -0.0108686 0.0096000 -0.0011314
v -0.0113877 0.0112000 -0.0014782
v -0.0113877 0.0096000 -0.0014782
v -0.0120000 0.0112000 -0.0016000
v -0.0120000 0.0096000 -0.0016000
v -0.0126123 0.0112000 -0.0014782
v -0.0126123 0.0096000 -0.0014782
v -0.0131314 0.0112000 -0.0011314
v -0.0131314 0.0096000 -0.0011314
v -0.0134782 0.0112000 -0.0006123
v -0.0134782 0.0096000 -0.0006123
v -0.0136000 0.0112000 -0.0000000
v -0.0136000 0.0096000 -0.0000000
v -0.0134782 0.0112000 0.0006123
v -0.0134782 0.0096000 0.0006123
v -0.0131314 0.0112000 0.0011314
v -0.0131314 0.0096000 0.0011314
v -0.0126123 0.0112000 0.0014782
v -0.0126123 0.0096000 0.0014782
v -0.0120000 0.0112000 0.0016000
v -0.0120000 0.0096000 0.0016000
v -0.0113877 0.0112000 0.0014782
v -0.0113877 0.0096000 0.0014782
v -0.0108686 0.0112000 0.0011314
v -0.0108686 0.0096000 0.0011314
v -0.0105218 0.0112000 0.0006123
v -0.0105218 0.0096000 0.0006123
v -0.0096000 0.0096000 -0.0000000
v -0.0097826 0.0096000 -0.0009185
v -0.0097826 0.0112000 -0.0009185
v -0.0096000 0.0112000 -0.0000000
v -0.0103030 0.0096000 -0.0016970
v -0.0103030 0.0112000 -0.0016970
v -0.0110815 0.0096000 -0.0022174
v -0.0110815 0.0112000 -0.0022174
v -0.0120000 0.0096000 -0.0024000
v -0.0120000 0.0112000 -0.0024000
v -0.0129185 0.0096000 -0.0022174
v -0.0129185 0.0112000 -0.0022174
v -0.0136970 0.0096000 -0.0016970
v -0.0136970 0.0112000 -0.0016970
v -0.0142174 0.0096000 -0.0009185
v -0.0142174 0.0112000 -0.0009185
v -0.0144000 0.0096000 -0.0000000
v -0.0144000 0.0112000 -0.0000000
v -0.0142174 0.0096000 0.0009185
v -0.0142174 0.0112000 0.0009185
v -0.0136970 0.0096000 0.0016970
v -0.0136970 0.0112000 0.0016970
v -0.0129185 0.0096000 0.0022174
v -0.0129185 0.0112000 0.0022174
v -0.0120000 0.0096000 0.0024000
v -0.0120000 0.0112000 0.0024000
v -0.0110815 0.0096000 0.0022174
v -0.0110815 0.0112000 0.0022174
v -0.0103030 0.0096000 0.0016970
v -0.0103030 0.0112000 0.0016970
v -0.0097826 0.0096000 0.0009185
v -0.0097826 0.0112000 0.0009185
v -0.0185218 0.0112000 -0.0006123
v -0.0185218 0.0096000 -0.0006123
v -0.0184000 0.0096000 -0.0000000
v -0.0184000 0.0112000 -0.0000000
v -0.0188686 0.0112000 -0.0011314
v -0.0188686 0.0096000 -0.0011314
v -0.0193877 0.0112000 -0.0014782
v -0.0193877 0.0096000 -0.0014782
v -0.0200000 0.0112000 -0.0016000
v -0.0200000 0.0096000 -0.0016000
v -0.0206123 0.0112000 -0.0014782
v -0.0206123 0.0096000 -0.0014782
v -0.0211314 0.0112000 -0.0011314
v -0.0211314 0.0096000 -0.0011314
v -0.0214782 0.0112000 -0.0006123
v -0.0214782 0.0096000 -0.0006123
v -0.0216000 0.0112000 -0.0000000
v -0.0216000 0.0096000 -0.0000000
v -0.0214782 0.0112000 0.0006123
v -0.0214782 0.0096000 0.0006123
v -0.0211314 0.0112000 0.0011314
v -0.0211314 0.0096000 0.0011314
v -0.0206123 0.0112000 0.0014782
v -0.0206123 0.0096000 0.0014782
v -0.0200000 0.0112000 0.0016000
v -0.0200000 0.0096000 0.0016000
v -0.0193877 0.0112000 0.0014782
v -0.0193877 0.0096000 0.0014782
v -0.0188686 0.0112000 0.0011314
v -0.0188686 0.0096000 0.0011314
v -0.0185218 0.0112000 0.0006123
v -0.0185218 0.0096000 0.0006123
v -0.0176000 0.0096000 -0.0000000
v -0.0177826 0.0096000 -0.0009185
v -0.0177826 0.0112000 -0.0009185
v -0.0176000 0.0112000 -0.0000000
v -0.0183030 0.0096000 -0.0016970
v -0.0183030 0.0112000 -0.0016970
v -0.0190815 0.0096000 -0.0022174
v -0.0190815 0.0112000 -0.0022174
v -0.0200000 0.0096000 -0.0024000
v -0.0200000 0.0112000 -0.0024000
v -0.0209185 0.0096000 -0.0022174
v -0.0209185 0.0112000 -0.0022174
v -0.0216970 0.0096000 -0.0016970
v -0.0216970 0.0112000 -0.0016970
v -0.0222174 0.0096000 -0.0009185
v -0.0222174 0.0112000 -0.0009185
v -0.0224000 0.0096000 -0.0000000
v -0.0224000 0.0112000 -0.0000000
v -0.0222174 0.0096000 0.0009185
v -0.0222174 0.0112000 0.0009185
v -0.0216970 0.0096000 0.0016970
v -0.0216970 0.0112000 0.0016970
v -0.0209185 0.0096000 0.0022174
v -0.0209185 0.0112000 0.0022174
v -0.0200000 0.0096000 0.0024000
v -0.0200000 0.0112000 0.0024000
v -0.0190815 0.0096000 0.0022174
v -0.0190815 0.0112000 0.0022174
v -0.0183030 0.0096000 0.0016970
v -0.0183030 0.0112000 0.0016970
v -0.0177826 0.0096000 0.0009185
v -0.0177826 0.0112000 0.0009185
f 1 2 3
f 4 1 3
f 5 4 3
f 6 5 3
f 7 6 3
f 8 7 3
f 9 8 3
f 10 9 3
f 11 10 3
f 12 11 3
f 13 12 3
f 14 13 3
f 15 14 3
f 16 15 3
f 17 16 3
f 2 17 3
f 1 18 19
f 2 1 19
f 4 20 18
f 1 4 18
f 5 21 20
f 4 5 20
f 6 22 21
f 5 6 21
f 7 23 22
f 6 7 22
f 8 24 23
f 7 8 23
f 9 25 24
f 8 9 24
f 10 26 25
f 9 10 25
f 11 27 26
f 10 11 26
f 12 28 27
f 11 12 27
f 13 29 28
f 12 13 28
f 14 30 29
f 13 14 29
f 15 31 30
f 14 15 30
f 16 32 31
f 15 16 31
f 17 33 32
f 16 17 32
f 2 19 33
f 17 2 33
f 34 35 36
f 37 34 36
f 38 37 36
f 39 38 36
f 40 39 36
f 41 40 36
f 42 41 36
f 43 42 36
f 44 43 36
f 45 44 36
f 46 45 36
f 47 46 36
f 48 47 36
f 49 48 36
f 50 49 36
f 35 50 36
f 34 51 52
f 35 34 52
f 37 53 51
f 34 37 51
f 38 54 53
f 37 38 53
f 39 55 54
f 38 39 54
f 40 56 55
f 39 40 55
f 41 57 56
f 40 41 56
f 42 58 57
f 41 42 57
f 43 59 58
f 42 43 58
f 44 60 59
f 43 44 59
f 45 61 60
f 44 45 60
f 46 62 61
f 45 46 61
f 47 63 62
f 46 47 62
f 48 64 63
f 47 48 63
f 49 65 64
f 48 49 64
f 50 66 65
f 49 50 65
f 35 52 66
f 50 35 66
f 67 68 69
f 70 67 69
f 71 70 69
f 72 71 69
f 73 72 69
f 74 73 69
f 75 74 69
f 76 75 69
f 77 76 69
f 78 77 69
f 79 78 69
f 80 79 69
f 81 80 69
f 82 81 69
f 83 82 69
f 68 83 69
f 67 84 85
f 68 67 85
f 70 86 84
f 67 70 84
f 71 87 86
f 70 71 86
f 72 88 87
f 71 72 87
f 73 89 88
f 72 73 88
f 74 90 89
f 73 74 89
f 75 91 90
f 74 75 90
f 76 92 91
f 75 76 91
f 77 93 92
f 76 77 92
f 78 94 93
f 77 78 93
f 79 95 94
f 78 79 94
f 80 96 95
f 79 80 95
f 81 97 96
f 80 81 96
f 82 98 97
f 81 82 97
f 83 99 98
f 82 83 98
f 68 85 99
f 83 68 99
f 85 84 100
f 85 100 101
f 102 100 84
f 84 86 103
f 84 103 102
f 86 87 104
f 86 104 103
f 87 88 104
f 88 89 105
f 89 90 106
f 89 106 105
f 91 107 106
f 91 106 90
f 108 107 91
f 91 92 109
f 91 109 108
f 92 93 110
f 92 110 109
f 111 110 93
f 93 94 112
f 93 112 111
f 94 95 113
f 94 113 112
f 95 96 113
f 96 97 114
f 97 98 115
f 97 115 114
f 99 116 115
f 99 115 98
f 117 116 99
f 99 85 101
f 99 101 117
f 118 119 120
f 121 118 120
f 122 121 120
f 123 122 120
f 124 123 120
f 125 124 120
f 126 125 120
f 127 126 120
f 128 127 120
f 129 128 120
f 130 129 120
f 131 130 120
f 132 131 120
f 133 132 120
f 134 133 120
f 119 134 120
f 118 135 136
f 119 118 136
f 121 137 135
f 118 121 135
f 122 138 137
f 121 122 137
f 123 139 138
f 122 123 138
f 124 140 139
f 123 124 139
f 125 141 140
f 124 125 140
f 126 142 141
f 125 126 141
f 127 143 142
f 126 127 142
f 128 144 143
f 127 128 143
f 129 145 144
f 128 129 144
f 130 146 145
f 129 130 145
f 131 147 146
f 130 131 146
f 132 148 147
f 131 132 147
f 133 149 148
f 132 133 148
f 134 150 149
f 133 134 149
f 119 136 150
f 134 119 150
f 136 135 151
f 136 151 152
f 153 151 135
f 135 137 154
f 135 154 153
f 137 138 155
f 137 155 154
f 138 139 155
f 139 140 156
f 140 141 157
f 140 157 156
f 142 158 157
f 142 157 141
f 159 158 142
f 142 143 160
f 142 160 159
f 143 144 161
f 143 161 160
f 162 161 144
f 144 145 163
f 144 163 162
f 145 146 164
f 145 164 163
f 146 147 164
f 147 148 165
f 148 149 166
f 148 166 165
f 150 167 166
f 150 166 149
f 168 167 150
f 150 136 152
f 150 152 168
f 52 51 169
f 52 169 170
f 171 169 51
f 51 53 172
f 51 172 171
f 53 54 173
f 53 173 172
f 54 55 173
f 55 56 174
f 56 57 175
f 56 175 174
f 58 176 175
f 58 175 57
f 177 176 58
f 58 59 178
f 58 178 177
f 59 60 179
f 59 179 178
f 180 179 60
f 60 61 181
f 60 181 180
f 61 62 182
f 61 182 181
f 62 63 182
f 63 64 183
f 64 65 184
f 64 184 183
f 66 185 184
f 66 184 65
f 186 185 66
f 66 52 170
f 66 170 186
f 19 18 187
f 19 187 188
f 189 187 18
f 18 20 190
f 18 190 189
f 20 21 191
f 20 191 190
f 21 22 191
f 22 23 192
f 23 24 193
f 23 193 192
f 25 194 193
f 25 193 24
f 195 194 25
f 25 26 196
f 25 196 195
f 26 27 197
f 26 197 196
f 198 197 27
f 27 28 199
f 27 199 198
f 28 29 200
f 28 200 199
f 29 30 200
f 30 31 201
f 31 32 202
f 31 202 201
f 33 203 202
f 33 202 32
f 204 203 33
f 33 19 188
f 33 188 204
f 205 206 207
f 208 205 207
f 209 208 207
f 210 209 207
f 211 210 207
f 212 211 207
f 213 212 207
f 214 213 207
f 215 214 207
f 216 215 207
f 217 216 207
f 218 217 207
f 219 218 207
f 220 219 207
f 221 220 207
f 206 221 207
f 205 222 223
f 206 205 223
f 208 224 222
f 205 208 222
f 209 225 224
f 208 209 224
f 210 226 225
f 209 210 225
f 211 227 226
f 210 211 226
f 212 228 227
f 211 212 227
f 213 229 228
f 212 213 228
f 214 230 229
f 213 214 229
f 215 231 230
f 214 215 230
f 216 232 231
f 215 216 231
f 217 233 232
f 216 217 232
f 218 234 233
f 217 218 233
f 219 235 234
f 218 219 234
f 220 236 235
f 219 220 235
f 221 237 236
f 220 221 236
f 206 223 237
f 221 206 237
f 223 222 238
f 223 238 239
f 240 238 222
f 222 224 241
f 222 241 240
f 224 225 242
f 224 242 241
f 225 226 242
f 226 227 243
f 227 228 244
f 227 244 243
f 229 245 244
f 229 244 228
f 246 245 229
f 229 230 247
f 229 247 246
f 230 231 248
f 230 248 247
f 249 248 231
f 231 232 250
f 231 250 249
f 232 233 251
f 232 251 250
f 233 234 251
f 234 235 252
f 235 236 253
f 235 253 252
f 237 254 253
f 237 253 236
f 255 254 237
f 237 223 239
f 237 239 255
f 256 257 258
f 256 258 259
f 260 261 257
f 260 257 256
f 262 263 261
f 262 261 260
f 264 265 263
f 264 263 262
f 266 267 265
f 266 265 264
f 268 269 267
f 268 267 266
f 270 271 269
f 270 269 268
f 272 273 271
f 272 271 270
f 274 275 273
f 274 273 272
f 276 277 275
f 276 275 274
f 278 279 277
f 278 277 276
f 280 281 279
f 280 279 278
f 282 283 281
f 282 281 280
f 284 285 283
f 284 283 282
f 286 287 285
f 286 285 284
f 259 258 287
f 259 287 286
f 288 282 280
f 289 288 280
f 290 284 282
f 288 290 282
f 291 286 284
f 290 291 284
f 292 259 286
f 291 292 286
f 293 256 259
f 292 293 259
f 294 260 256
f 293 294 256
f 295 262 260
f 294 295 260
f 296 264 262
f 295 296 262
f 297 266 264
f 296 297 264
f 298 268 266
f 297 298 266
f 299 270 268
f 298 299 268
f 300 272 270
f 299 300 270
f 301 274 272
f 300 301 272
f 302 276 274
f 301 302 274
f 303 278 276
f 302 303 276
f 289 280 278
f 303 289 278
f 304 305 306
f 307 304 306
f 305 308 309
f 306 305 309
f 308 310 311
f 309 308 311
f 310 312 313
f 311 310 313
f 312 314 315
f 313 312 315
f 314 316 317
f 315 314 317
f 316 318 319
f 317 316 319
f 318 320 321
f 319 318 321
f 320 322 323
f 321 320 323
f 322 324 325
f 323 322 325
f 324 326 327
f 325 324 327
f 326 328 329
f 327 326 329
f 328 330 331
f 329 328 331
f 330 332 333
f 331 330 333
f 332 334 335
f 333 332 335
f 334 304 307
f 335 334 307
f 329 331 336
f 329 336 337
f 331 333 338
f 331 338 336
f 333 335 339
f 333 339 338
f 335 307 340
f 335 340 339
f 307 306 341
f 307 341 340
f 306 309 342
f 306 342 341
f 309 311 343
f 309 343 342
f 311 313 344
f 311 344 343
f 313 315 345
f 313 345 344
f 315 317 346
f 315 346 345
f 317 319 347
f 317 347 346
f 319 321 348
f 319 348 347
f 321 323 349
f 321 349 348
f 323 325 350
f 323 350 349
f 325 327 351
f 325 351 350
f 327 329 337
f 327 337 351
f 352 353 354
f 352 354 355
f 356 357 353
f 356 353 352
f 358 359 357
f 358 357 356
f 360 361 359
f 360 359 358
f 362 363 361
f 362 361 360
f 364 365 363
f 364 363 362
f 366 367 365
f 366 365 364
f 368 369 367
f 368 367 366
f 370 371 369
f 370 369 368
f 372 373 371
f 372 371 370
f 374 375 373
f 374 373 372
f 376 377 375
f 376 375 374
f 378 379 377
f 378 377 376
f 380 381 379
f 380 379 378
f 382 383 381
f 382 381 380
f 355 354 383
f 355 383 382
f 384 378 376
f 385 384 376
f 386 380 378
f 384 386 378
f 387 382 380
f 386 387 380
f 388 355 382
f 387 388 382
f 389 352 355
f 388 389 355
f 390 356 352
f 389 390 352
f 391 358 356
f 390 391 356
f 392 360 358
f 391 392 358
f 393 362 360
f 392 393 360
f 394 364 362
f 393 394 362
f 395 366 364
f 394 395 364
f 396 368 366
f 395 396 366
f 397 370 368
f 396 397 368
f 398 372 370
f 397 398 370
f 399 374 372
f 398 399 372
f 385 376 374
f 399 385 374
f 400 401 402
f 403 400 402
f 401 404 405
f 402 401 405
f 404 406 407
f 405 404 407
f 406 408 409
f 407 406 409
f 408 410 411
f 409 408 411
f 410 412 413
f 411 410 413
f 412 414 415
f 413 412 415
f 414 416 417
f 415 414 417
f 416 418 419
f 417 416 419
f 418 420 421
f 419 418 421
f 420 422 423
f 421 420 423
f 422 424 425
f 423 422 425
f 424 426 427
f 425 424 427
f 426 428 429
f 427 426 429
f 428 430 431
f 429 428 431
f 430 400 403
f 431 430 403
f 425 427 432
f 425 432 433
f 427 429 434
f 427 434 432
f 429 431 435
f 429 435 434
f 431 403 436
f 431 436 435
f 403 402 437
f 403 437 436
f 402 405 438
f 402 438 437
f 405 407 439
f 405 439 438
f 407 409 440
f 407 440 439
f 409 411 441
f 409 441 440
f 411 413 442
f 411 442 441
f 413 415 443
f 413 443 442
f 415 417 444
f 415 444 443
f 417 419 445
f 417 445 444
f 419 421 446
f 419 446 445
f 421 423 447
f 421 447 446
f 423 425 433
f 423 433 447
f 448 449 450
f 448 450 451
f 452 453 449
f 452 449 448
f 454 455 453
f 454 453 452
f 456 457 455
f 456 455 454
f 458 459 457
f 458 457 456
f 460 461 459
f 460 459 458
f 462 463 461
f 462 461 460
f 464 465 463
f 464 463 462
f 466 467 465
f 466 465 464
f 468 469 467
f 468 467 466
f 470 471 469
f 470 469 468
f 472 473 471
f 472 471 470
f 474 475 473
f 474 473 472
f 476 477 475
f 476 475 474
f 478 479 477
f 478 477 476
f 451 450 479
f 451 479 478
f 480 474 472
f 481 480 472
f 482 476 474
f 480 482 474
f 483 478 476
f 482 483 476
f 484 451 478
f 483 484 478
f 485 448 451
f 484 485 451
f 486 452 448
f 485 486 448
f 487 454 452
f 486 487 452
f 488 456 454
f 487 488 454
f 489 458 456
f 488 489 456
f 490 460 458
f 489 490 458
f 491 462 460
f 490 491 460
f 492 464 462
f 491 492 462
f 493 466 464
f 492 493 464
f 494 468 466
f 493 494 466
f 495 470 468
f 494 495 468
f 481 472 470
f 495 481 470
f 496 497 498
f 499 496 498
f 497 500 501
f 498 497 501
f 500 502 503
f 501 500 503
f 502 504 505
f 503 502 505
f 504 506 507
f 505 504 507
f 506 508 509
f 507 506 509
f 508 510 511
f 509 508 511
f 510 512 513
f 511 510 513
f 512 514 515
f 513 512 515
f 514 516 517
f 515 514 517
f 516 518 519
f 517 516 519
f 518 520 521
f 519 518 521
f 520 522 523
f 521 520 523
f 522 524 525
f 523 522 525
f 524 526 527
f 525 524 527
f 526 496 499
f 527 526 499
f 521 523 528
f 521 528 529
f 523 525 530
f 523 530 528
f 525 527 531
f 525 531 530
f 527 499 532
f 527 532 531
f 499 498 533
f 499 533 532
f 498 501 534
f 498 534 533
f 501 503 535
f 501 535 534
f 503 505 536
f 503 536 535
f 505 507 537
f 505 537 536
f 507 509 538
f 507 538 537
f 509 511 539
f 509 539 538
f 511 513 540
f 511 540 539
f 513 515 541
f 513 541 540
f 515 517 542
f 515 542 541
f 517 519 543
f 517 543 542
f 519 521 529
f 519 529 543
f 544 545 546
f 544 546 547
f 548 549 545
f 548 545 544
f 550 551 549
f 550 549 548
f 552 553 551
f 552 551 550
f 554 555 553
f 554 553 552
f 556 557 555
f 556 555 554
f 558 559 557
f 558 557 556
f 560 561 559
f 560 559 558
f 562 563 561
f 562 561 560
f 564 565 563
f 564 563 562
f 566 567 565
f 566 565 564
f 568 569 567
f 568 567 566
f 570 571 569
f 570 569 568
f 572 573 571
f 572 571 570
f 574 575 573
f 574 573 572
f 547 546 575
f 547 575 574
f 576 570 568
f 577 576 568
f 578 572 570
f 576 578 570
f 579 574 572
f 578 579 572
f 580 547 574
f 579 580 574
f 581 544 547
f 580 581 547
f 582 548 544
f 581 582 544
f 583 550 548
f 582 583 548
f 584 552 550
f 583 584 550
f 585 554 552
f 584 585 552
f 586 556 554
f 585 586 554
f 587 558 556
f 586 587 556
f 588 560 558
f 587 588 558
f 589 562 560
f 588 589 560
f 590 564 562
f 589 590 562
f 591 566 564
f 590 591 564
f 577 568 566
f 591 577 566
f 592 593 594
f 595 592 594
f 593 596 597
f 594 593 597
f 596 598 599
f 597 596 599
f 598 600 601
f 599 598 601
f 600 602 603
f 601 600 603
f 602 604 605
f 603 602 605
f 604 606 607
f 605 604 607
f 606 608 609
f 607 606 609
f 608 610 611
f 609 608 611
f 610 612 613
f 611 610 613
f 612 614 615
f 613 612 615
f 614 616 617
f 615 614 617
f 616 618 619
f 617 616 619
f 618 620 621
f 619 618 621
f 620 622 623
f 621 620 623
f 622 592 595
f 623 622 595
f 617 619 624
f 617 624 625
f 619 621 626
f 619 626 624
f 621 623 627
f 621 627 626
f 623 595 628
f 623 628 627
f 595 594 629
f 595 629 628
f 594 597 630
f 594 630 629
f 597 599 631
f 597 631 630
f 599 601 632
f 599 632 631
f 601 603 633
f 601 633 632
f 603 605 634
f 603 634 633
f 605 607 635
f 605 635 634
f 607 609 636
f 607 636 635
f 609 611 637
f 609 637 636
f 611 613 638
f 611 638 637
f 613 615 639
f 613 639 638
f 615 617 625
f 615 625 639
f 640 641 642
f 640 642 643
f 644 645 641
f 644 641 640
f 646 647 645
f 646 645 644
f 648 649 647
f 648 647 646
f 650 651 649
f 650 649 648
f 652 653 651
f 652 651 650
f 654 655 653
f 654 653 652
f 656 657 655
f 656 655 654
f 658 659 657
f 658 657 656
f 660 661 659
f 660 659 658
f 662 663 661
f 662 661 660
f 664 665 663
f 664 663 662
f 666 667 665
f 666 665 664
f 668 669 667
f 668 667 666
f 670 671 669
f 670 669 668
f 643 642 671
f 643 671 670
f 672 666 664
f 673 672 664
f 674 668 666
f 672 674 666
f 675 670 668
f 674 675 668
f 676 643 670
f 675 676 670
f 677 640 643
f 676 677 643
f 678 644 640
f 677 678 640
f 679 646 644
f 678 679 644
f 680 648 646
f 679 680 646
f 681 650 648
f 680 681 648
f 682 652 650
f 681 682 650
f 683 654 652
f 682 683 652
f 684 656 654
f 683 684 654
f 685 658 656
f 684 685 656
f 686 660 658
f 685 686 658
f 687 662 660
f 686 687 660
f 673 664 662
f 687 673 662
f 688 689 690
f 691 688 690
f 689 692 693
f 690 689 693
f 692 694 695
f 693 692 695
f 694 696 697
f 695 694 697
f 696 698 699
f 697 696 699
f 698 700 701
f 699 698 701
f 700 702 703
f 701 700 703
f 702 704 705
f 703 702 705
f 704 706 707
f 705 704 707
f 706 708 709
f 707 706 709
f 708 710 711
f 709 708 711
f 710 712 713
f 711 710 713
f 712 714 715
f 713 712 715
f 714 716 717
f 715 714 717
f 716 718 719
f 717 716 719
f 718 688 691
f 719 718 691
f 713 715 720
f 713 720 721
f 715 717 722
f 715 722 720
f 717 719 723
f 717 723 722
f 719 691 724
f 719 724 723
f 691 690 725
f 691 725 724
f 690 693 726
f 690 726 725
f 693 695 727
f 693 727 726
f 695 697 728
f 695 728 727
f 697 699 729
f 697 729 728
f 699 701 730
f 699 730 729
f 701 703 731
f 701 731 730
f 703 705 732
f 703 732 731
f 705 707 733
f 705 733 732
f 707 709 734
f 707 734 733
f 709 711 735
f 709 735 734
f 711 713 721
f 711 721 735
f 736 737 738
f 736 738 739
f 739 738 740
f 739 740 741
f 737 736 742
f 737 742 743
f 736 739 741
f 736 741 742
f 738 737 743
f 738 743 740
f 744 745 746
f 744 746 747
f 747 746 748
f 747 748 749
f 745 744 750
f 745 750 751
f 744 747 749
f 744 749 750
f 746 745 751
f 746 751 748
f 752 753 754
f 752 754 755
f 755 754 756
f 755 756 757
f 753 752 758
f 753 758 759
f 752 755 757
f 752 757 758
f 754 753 759
f 754 759 756
f 760 761 762
f 760 762 763
f 763 762 764
f 763 764 765
f 761 760 766
f 761 766 767
f 760 763 765
f 760 765 766
f 762 761 767
f 762 767 764
f 768 769 770
f 768 770 771
f 768 771 772
f 768 772 773
f 774 775 776
f 774 776 777
f 774 777 778
f 774 778 779
f 780 781 749
f 780 749 748
f 782 783 781
f 782 781 780
f 784 785 783
f 784 783 782
f 786 787 785
f 786 785 784
f 788 789 787
f 788 787 786
f 790 791 789
f 790 789 788
f 792 793 791
f 792 791 790
f 743 742 793
f 743 793 792
f 794 795 796
f 794 796 797
f 798 799 795
f 798 795 794
f 800 801 799
f 800 799 798
f 802 803 801
f 802 801 800
f 804 805 803
f 804 803 802
f 806 807 805
f 806 805 804
f 808 809 807
f 808 807 806
f 751 750 809
f 751 809 808
f 810 811 741
f 810 741 740
f 812 813 811
f 812 811 810
f 814 815 813
f 814 813 812
f 816 817 815
f 816 815 814
f 818 819 817
f 818 817 816
f 820 821 819
f 820 819 818
f 822 823 821
f 822 821 820
f 759 758 823
f 759 823 822
f 824 825 757
f 824 757 756
f 826 827 825
f 826 825 824
f 828 829 827
f 828 827 826
f 830 831 829
f 830 829 828
f 832 833 831
f 832 831 830
f 834 835 833
f 834 833 832
f 836 837 835
f 836 835 834
f 767 766 837
f 767 837 836
f 838 839 765
f 838 765 764
f 840 841 839
f 840 839 838
f 842 843 841
f 842 841 840
f 844 845 843
f 844 843 842
f 846 847 845
f 846 845 844
f 848 849 847
f 848 847 846
f 850 851 849
f 850 849 848
f 852 853 851
f 852 851 850
f 797 796 770
f 797 770 769
f 853 852 776
f 853 776 775
f 854 749 781
f 854 781 783
f 854 783 785
f 854 785 787
f 855 787 789
f 855 789 791
f 855 791 793
f 855 793 742
f 780 748 856
f 782 780 856
f 784 782 856
f 786 784 856
f 788 786 857
f 790 788 857
f 792 790 857
f 743 792 857
f 858 796 795
f 858 795 799
f 858 799 801
f 858 801 803
f 859 803 805
f 859 805 807
f 859 807 809
f 859 809 750
f 794 797 860
f 798 794 860
f 800 798 860
f 802 800 860
f 804 802 861
f 806 804 861
f 808 806 861
f 751 808 861
f 862 741 811
f 862 811 813
f 862 813 815
f 862 815 817
f 863 817 819
f 863 819 821
f 863 821 823
f 863 823 758
f 810 740 864
f 812 810 864
f 814 812 864
f 816 814 864
f 818 816 865
f 820 818 865
f 822 820 865
f 759 822 865
f 866 757 825
f 866 825 827
f 866 827 829
f 866 829 831
f 867 831 833
f 867 833 835
f 867 835 837
f 867 837 766
f 824 756 868
f 826 824 868
f 828 826 868
f 830 828 868
f 832 830 869
f 834 832 869
f 836 834 869
f 767 836 869
f 870 765 839
f 870 839 841
f 870 841 843
f 870 843 845
f 871 845 847
f 871 847 849
f 871 849 851
f 871 851 853
f 838 764 872
f 840 838 872
f 842 840 872
f 844 842 872
f 846 844 873
f 848 846 873
f 850 848 873
f 852 850 873
f 855 742 741
f 855 741 862
f 857 864 740
f 857 740 743
f 859 750 749
f 859 749 854
f 861 856 748
f 861 748 751
f 863 758 757
f 863 757 866
f 865 868 756
f 865 756 759
f 867 766 765
f 867 765 870
f 869 872 764
f 869 764 767
f 772 771 770
f 772 770 858
f 773 860 769
f 773 769 768
f 871 775 774
f 871 774 779
f 873 778 777
f 873 777 776
f 772 858 871
f 772 871 779
f 773 778 873
f 773 873 860
f 874 772 779
f 874 779 875
f 876 877 778
f 876 778 773
f 874 876 773
f 874 773 772
f 875 779 778
f 875 778 877
f 283 330 328
f 281 283 328
f 285 332 330
f 283 285 330
f 287 334 332
f 285 287 332
f 258 304 334
f 287 258 334
f 257 305 304
f 258 257 304
f 261 308 305
f 257 261 305
f 263 310 308
f 261 263 308
f 265 312 310
f 263 265 310
f 267 314 312
f 265 267 312
f 269 316 314
f 267 269 314
f 271 318 316
f 269 271 316
f 273 320 318
f 271 273 318
f 275 322 320
f 273 275 320
f 277 324 322
f 275 277 322
f 279 326 324
f 277 279 324
f 281 328 326
f 279 281 326
f 379 426 424
f 377 379 424
f 381 428 426
f 379 381 426
f 383 430 428
f 381 383 428
f 354 400 430
f 383 354 430
f 353 401 400
f 354 353 400
f 357 404 401
f 353 357 401
f 359 406 404
f 357 359 404
f 361 408 406
f 359 361 406
f 363 410 408
f 361 363 408
f 365 412 410
f 363 365 410
f 367 414 412
f 365 367 412
f 369 416 414
f 367 369 414
f 371 418 416
f 369 371 416
f 373 420 418
f 371 373 418
f 375 422 420
f 373 375 420
f 377 424 422
f 375 377 422
f 475 522 520
f 473 475 520
f 477 524 522
f 475 477 522
f 479 526 524
f 477 479 524
f 450 496 526
f 479 450 526
f 449 497 496
f 450 449 496
f 453 500 497
f 449 453 497
f 455 502 500
f 453 455 500
f 457 504 502
f 455 457 502
f 459 506 504
f 457 459 504
f 461 508 506
f 459 461 506
f 463 510 508
f 461 463 508
f 465 512 510
f 463 465 510
f 467 514 512
f 465 467 512
f 469 516 514
f 467 469 514
f 471 518 516
f 469 471 516
f 473 520 518
f 471 473 518
f 571 618 616
f 569 571 616
f 573 620 618
f 571 573 618
f 575 622 620
f 573 575 620
f 546 592 622
f 575 546 622
f 545 593 592
f 546 545 592
f 549 596 593
f 545 549 593
f 551 598 596
f 549 551 596
f 553 600 598
f 551 553 598
f 555 602 600
f 553 555 600
f 557 604 602
f 555 557 602
f 559 606 604
f 557 559 604
f 561 608 606
f 559 561 606
f 563 610 608
f 561 563 608
f 565 612 610
f 563 565 610
f 567 614 612
f 565 567 612
f 569 616 614
f 567 569 614
f 667 714 712
f 665 667 712
f 669 716 714
f 667 669 714
f 671 718 716
f 669 671 716
f 642 688 718
f 671 642 718
f 641 689 688
f 642 641 688
f 645 692 689
f 641 645 689
f 647 694 692
f 645 647 692
f 649 696 694
f 647 649 694
f 651 698 696
f 649 651 696
f 653 700 698
f 651 653 698
f 655 702 700
f 653 655 700
f 657 704 702
f 655 657 702
f 659 706 704
f 657 659 704
f 661 708 706
f 659 661 706
f 663 710 708
f 661 663 708
f 665 712 710
f 663 665 710
f 878 879 880
f 878 880 881
f 879 875 877
f 879 877 880
f 881 876 874
f 881 874 878
f 288 289 882
f 290 288 882
f 291 290 882
f 292 291 882
f 293 292 883
f 294 293 883
f 295 294 883
f 296 295 883
f 297 296 884
f 298 297 884
f 299 298 884
f 300 299 884
f 301 300 885
f 302 301 885
f 303 302 885
f 289 303 885
f 886 337 336
f 886 336 338
f 886 338 339
f 886 339 340
f 887 340 341
f 887 341 342
f 887 342 343
f 887 343 344
f 888 344 345
f 888 345 346
f 888 346 347
f 888 347 348
f 889 348 349
f 889 349 350
f 889 350 351
f 889 351 337
f 384 385 890
f 386 384 890
f 387 386 890
f 388 387 890
f 389 388 891
f 390 389 891
f 391 390 891
f 392 391 891
f 393 392 892
f 394 393 892
f 395 394 892
f 396 395 892
f 397 396 893
f 398 397 893
f 399 398 893
f 385 399 893
f 894 433 432
f 894 432 434
f 894 434 435
f 894 435 436
f 895 436 437
f 895 437 438
f 895 438 439
f 895 439 440
f 896 440 441
f 896 441 442
f 896 442 443
f 896 443 444
f 897 444 445
f 897 445 446
f 897 446 447
f 897 447 433
f 480 481 898
f 482 480 898
f 483 482 898
f 484 483 898
f 485 484 899
f 486 485 899
f 487 486 899
f 488 487 899
f 489 488 900
f 490 489 900
f 491 490 900
f 492 491 900
f 493 492 901
f 494 493 901
f 495 494 901
f 481 495 901
f 902 529 528
f 902 528 530
f 902 530 531
f 902 531 532
f 903 532 533
f 903 533 534
f 903 534 535
f 903 535 536
f 904 536 537
f 904 537 538
f 904 538 539
f 904 539 540
f 905 540 541
f 905 541 542
f 905 542 543
f 905 543 529
f 576 577 906
f 578 576 906
f 579 578 906
f 580 579 906
f 581 580 907
f 582 581 907
f 583 582 907
f 584 583 907
f 585 584 908
f 586 585 908
f 587 586 908
f 588 587 908
f 589 588 909
f 590 589 909
f 591 590 909
f 577 591 909
f 910 625 624
f 910 624 626
f 910 626 627
f 910 627 628
f 911 628 629
f 911 629 630
f 911 630 631
f 911 631 632
f 912 632 633
f 912 633 634
f 912 634 635
f 912 635 636
f 913 636 637
f 913 637 638
f 913 638 639
f 913 639 625
f 672 673 914
f 674 672 914
f 675 674 914
f 676 675 914
f 677 676 915
f 678 677 915
f 679 678 915
f 680 679 915
f 681 680 916
f 682 681 916
f 683 682 916
f 684 683 916
f 685 684 917
f 686 685 917
f 687 686 917
f 673 687 917
f 918 721 720
f 918 720 722
f 918 722 723
f 918 723 724
f 919 724 725
f 919 725 726
f 919 726 727
f 919 727 728
f 920 728 729
f 920 729 730
f 920 730 731
f 920 731 732
f 921 732 733
f 921 733 734
f 921 734 735
f 921 735 721
f 883 898 901
f 883 901 884
f 887 888 905
f 887 905 902
f 891 882 885
f 891 885 892
f 895 896 889
f 895 889 886
f 899 906 909
f 899 909 900
f 903 904 913
f 903 913 910
f 907 914 917
f 907 917 908
f 911 912 921
f 911 921 918
f 874 875 915
f 874 915 890
f 876 894 919
f 876 919 877
f 878 893 916
f 878 916 879
f 881 880 920
f 881 920 897
f 874 890 893
f 874 893 878
f 876 881 897
f 876 897 894
f 875 879 916
f 875 916 915
f 877 919 920
f 877 920 880
f 922 923 924
f 925 922 924
f 926 927 923
f 922 926 923
f 928 929 927
f 926 928 927
f 930 931 929
f 928 930 929
f 932 933 931
f 930 932 931
f 934 935 933
f 932 934 933
f 936 937 935
f 934 936 935
f 938 939 937
f 936 938 937
f 940 941 939
f 938 940 939
f 942 943 941
f 940 942 941
f 944 945 943
f 942 944 943
f 946 947 945
f 944 946 945
f 948 949 947
f 946 948 947
f 950 951 949
f 948 950 949
f 952 953 951
f 950 952 951
f 925 924 953
f 952 925 953
f 954 955 956
f 954 956 957
f 955 958 959
f 955 959 956
f 958 960 961
f 958 961 959
f 960 962 963
f 960 963 961
f 962 964 965
f 962 965 963
f 964 966 967
f 964 967 965
f 966 968 969
f 966 969 967
f 968 970 971
f 968 971 969
f 970 972 973
f 970 973 971
f 972 974 975
f 972 975 973
f 974 976 977
f 974 977 975
f 976 978 979
f 976 979 977
f 978 980 981
f 978 981 979
f 980 982 983
f 980 983 981
f 982 984 985
f 982 985 983
f 984 954 957
f 984 957 985
f 965 932 930
f 965 930 963
f 967 934 932
f 967 932 965
f 969 936 934
f 969 934 967
f 971 938 936
f 971 936 969
f 973 940 938
f 973 938 971
f 975 942 940
f 975 940 973
f 977 944 942
f 977 942 975
f 979 946 944
f 979 944 977
f 981 948 946
f 981 946 979
f 983 950 948
f 983 948 981
f 985 952 950
f 985 950 983
f 957 925 952
f 957 952 985
f 956 922 925
f 956 925 957
f 959 926 922
f 959 922 956
f 961 928 926
f 961 926 959
f 963 930 928
f 963 928 961
f 986 987 988
f 989 986 988
f 990 991 987
f 986 990 987
f 992 993 991
f 990 992 991
f 994 995 993
f 992 994 993
f 996 997 995
f 994 996 995
f 998 999 997
f 996 998 997
f 1000 1001 999
f 998 1000 999
f 1002 1003 1001
f 1000 1002 1001
f 1004 1005 1003
f 1002 1004 1003
f 1006 1007 1005
f 1004 1006 1005
f 1008 1009 1007
f 1006 1008 1007
f 1010 1011 1009
f 1008 1010 1009
f 1012 1013 1011
f 1010 1012 1011
f 1014 1015 1013
f 1012 1014 1013
f 1016 1017 1015
f 1014 1016 1015
f 989 988 1017
f 1016 989 1017
f 1018 1019 1020
f 1018 1020 1021
f 1019 1022 1023
f 1019 1023 1020
f 1022 1024 1025
f 1022 1025 1023
f 1024 1026 1027
f 1024 1027 1025
f 1026 1028 1029
f 1026 1029 1027
f 1028 1030 1031
f 1028 1031 1029
f 1030 1032 1033
f 1030 1033 1031
f 1032 1034 1035
f 1032 1035 1033
f 1034 1036 1037
f 1034 1037 1035
f 1036 1038 1039
f 1036 1039 1037
f 1038 1040 1041
f 1038 1041 1039
f 1040 1042 1043
f 1040 1043 1041
f 1042 1044 1045
f 1042 1045 1043
f 1044 1046 1047
f 1044 1047 1045
f 1046 1048 1049
f 1046 1049 1047
f 1048 1018 1021
f 1048 1021 1049
f 1029 996 994
f 1029 994 1027
f 1031 998 996
f 1031 996 1029
f 1033 1000 998
f 1033 998 1031
f 1035 1002 1000
f 1035 1000 1033
f 1037 1004 1002
f 1037 1002 1035
f 1039 1006 1004
f 1039 1004 1037
f 1041 1008 1006
f 1041 1006 1039
f 1043 1010 1008
f 1043 1008 1041
f 1045 1012 1010
f 1045 1010 1043
f 1047 1014 1012
f 1047 1012 1045
f 1049 1016 1014
f 1049 1014 1047
f 1021 989 1016
f 1021 1016 1049
f 1020 986 989
f 1020 989 1021
f 1023 990 986
f 1023 986 1020
f 1025 992 990
f 1025 990 1023
f 1027 994 992
f 1027 992 1025
f 1050 1051 1052
f 1053 1050 1052
f 1054 1055 1051
f 1050 1054 1051
f 1056 1057 1055
f 1054 1056 1055
f 1058 1059 1057
f 1056 1058 1057
f 1060 1061 1059
f 1058 1060 1059
f 1062 1063 1061
f 1060 1062 1061
f 1064 1065 1063
f 1062 1064 1063
f 1066 1067 1065
f 1064 1066 1065
f 1068 1069 1067
f 1066 1068 1067
f 1070 1071 1069
f 1068 1070 1069
f 1072 1073 1071
f 1070 1072 1071
f 1074 1075 1073
f 1072 1074 1073
f 1076 1077 1075
f 1074 1076 1075
f 1078 1079 1077
f 1076 1078 1077
f 1080 1081 1079
f 1078 1080 1079
f 1053 1052 1081
f 1080 1053 1081
f 1082 1083 1084
f 1082 1084 1085
f 1083 1086 1087
f 1083 1087 1084
f 1086 1088 1089
f 1086 1089 1087
f 1088 1090 1091
f 1088 1091 1089
f 1090 1092 1093
f 1090 1093 1091
f 1092 1094 1095
f 1092 1095 1093
f 1094 1096 1097
f 1094 1097 1095
f 1096 1098 1099
f 1096 1099 1097
f 1098 1100 1101
f 1098 1101 1099
f 1100 1102 1103
f 1100 1103 1101
f 1102 1104 1105
f 1102 1105 1103
f 1104 1106 1107
f 1104 1107 1105
f 1106 1108 1109
f 1106 1109 1107
f 1108 1110 1111
f 1108 1111 1109
f 1110 1112 1113
f 1110 1113 1111
f 1112 1082 1085
f 1112 1085 1113
f 1093 1060 1058
f 1093 1058 1091
f 1095 1062 1060
f 1095 1060 1093
f 1097 1064 1062
f 1097 1062 1095
f 1099 1066 1064
f 1099 1064 1097
f 1101 1068 1066
f 1101 1066 1099
f 1103 1070 1068
f 1103 1068 1101
f 1105 1072 1070
f 1105 1070 1103
f 1107 1074 1072
f 1107 1072 1105
f 1109 1076 1074
f 1109 1074 1107
f 1111 1078 1076
f 1111 1076 1109
f 1113 1080 1078
f 1113 1078 1111
f 1085 1053 1080
f 1085 1080 1113
f 1084 1050 1053
f 1084 1053 1085
f 1087 1054 1050
f 1087 1050 1084
f 1089 1056 1054
f 1089 1054 1087
f 1091 1058 1056
f 1091 1056 1089
f 1114 1115 1116
f 1117 1114 1116
f 1118 1119 1115
f 1114 1118 1115
f 1120 1121 1119
f 1118 1120 1119
f 1122 1123 1121
f 1120 1122 1121
f 1124 1125 1123
f 1122 1124 1123
f 1126 1127 1125
f 1124 1126 1125
f 1128 1129 1127
f 1126 1128 1127
f 1130 1131 1129
f 1128 1130 1129
f 1132 1133 1131
f 1130 1132 1131
f 1134 1135 1133
f 1132 1134 1133
f 1136 1137 1135
f 1134 1136 1135
f 1138 1139 1137
f 1136 1138 1137
f 1140 1141 1139
f 1138 1140 1139
f 1142 1143 1141
f 1140 1142 1141
f 1144 1145 1143
f 1142 1144 1143
f 1117 1116 1145
f 1144 1117 1145
f 1146 1147 1148
f 1146 1148 1149
f 1147 1150 1151
f 1147 1151 1148
f 1150 1152 1153
f 1150 1153 1151
f 1152 1154 1155
f 1152 1155 1153
f 1154 1156 1157
f 1154 1157 1155
f 1156 1158 1159
f 1156 1159 1157
f 1158 1160 1161
f 1158 1161 1159
f 1160 1162 1163
f 1160 1163 1161
f 1162 1164 1165
f 1162 1165 1163
f 1164 1166 1167
f 1164 1167 1165
f 1166 1168 1169
f 1166 1169 1167
f 1168 1170 1171
f 1168 1171 1169
f 1170 1172 1173
f 1170 1173 1171
f 1172 1174 1175
f 1172 1175 1173
f 1174 1176 1177
f 1174 1177 1175
f 1176 1146 1149
f 1176 1149 1177
f 1157 1124 1122
f 1157 1122 1155
f 1159 1126 1124
f 1159 1124 1157
f 1161 1128 1126
f 1161 1126 1159
f 1163 1130 1128
f 1163 1128 1161
f 1165 1132 1130
f 1165 1130 1163
f 1167 1134 1132
f 1167 1132 1165
f 1169 1136 1134
f 1169 1134 1167
f 1171 1138 1136
f 1171 1136 1169
f 1173 1140 1138
f 1173 1138 1171
f 1175 1142 1140
f 1175 1140 1173
f 1177 1144 1142
f 1177 1142 1175
f 1149 1117 1144
f 1149 1144 1177
f 1148 1114 1117
f 1148 1117 1149
f 1151 1118 1114
f 1151 1114 1148
f 1153 1120 1118
f 1153 1118 1151
f 1155 1122 1120
f 1155 1120 1153
f 1178 1179 1180
f 1181 1178 1180
f 1182 1183 1179
f 1178 1182 1179
f 1184 1185 1183
f 1182 1184 1183
f 1186 1187 1185
f 1184 1186 1185
f 1188 1189 1187
f 1186 1188 1187
f 1190 1191 1189
f 1188 1190 1189
f 1192 1193 1191
f 1190 1192 1191
f 1194 1195 1193
f 1192 1194 1193
f 1196 1197 1195
f 1194 1196 1195
f 1198 1199 1197
f 1196 1198 1197
f 1200 1201 1199
f 1198 1200 1199
f 1202 1203 1201
f 1200 1202 1201
f 1204 1205 1203
f 1202 1204 1203
f 1206 1207 1205
f 1204 1206 1205
f 1208 1209 1207
f 1206 1208 1207
f 1181 1180 1209
f 1208 1181 1209
f 1210 1211 1212
f 1210 1212 1213
f 1211 1214 1215
f 1211 1215 1212
f 1214 1216 1217
f 1214 1217 1215
f 1216 1218 1219
f 1216 1219 1217
f 1218 1220 1221
f 1218 1221 1219
f 1220 1222 1223
f 1220 1223 1221
f 1222 1224 1225
f 1222 1225 1223
f 1224 1226 1227
f 1224 1227 1225
f 1226 1228 1229
f 1226 1229 1227
f 1228 1230 1231
f 1228 1231 1229
f 1230 1232 1233
f 1230 1233 1231
f 1232 1234 1235
f 1232 1235 1233
f 1234 1236 1237
f 1234 1237 1235
f 1236 1238 1239
f 1236 1239 1237
f 1238 1240 1241
f 1238 1241 1239
f 1240 1210 1213
f 1240 1213 1241
f 1221 1188 1186
f 1221 1186 1219
f 1223 1190 1188
f 1223 1188 1221
f 1225 1192 1190
f 1225 1190 1223
f 1227 1194 1192
f 1227 1192 1225
f 1229 1196 1194
f 1229 1194 1227
f 1231 1198 1196
f 1231 1196 1229
f 1233 1200 1198
f 1233 1198 1231
f 1235 1202 1200
f 1235 1200 1233
f 1237 1204 1202
f 1237 1202 1235
f 1239 1206 1204
f 1239 1204 1237
f 1241 1208 1206
f 1241 1206 1239
f 1213 1181 1208
f 1213 1208 1241
f 1212 1178 1181
f 1212 1181 1213
f 1215 1182 1178
f 1215 1178 1212
f 1217 1184 1182
f 1217 1182 1215
f 1219 1186 1184
f 1219 1184 1217
f 1242 1243 1244
f 1245 1242 1244
f 1246 1247 1243
f 1242 1246 1243
f 1248 1249 1247
f 1246 1248 1247
f 1250 1251 1249
f 1248 1250 1249
f 1252 1253 1251
f 1250 1252 1251
f 1254 1255 1253
f 1252 1254 1253
f 1256 1257 1255
f 1254 1256 1255
f 1258 1259 1257
f 1256 1258 1257
f 1260 1261 1259
f 1258 1260 1259
f 1262 1263 1261
f 1260 1262 1261
f 1264 1265 1263
f 1262 1264 1263
f 1266 1267 1265
f 1264 1266 1265
f 1268 1269 1267
f 1266 1268 1267
f 1270 1271 1269
f 1268 1270 1269
f 1272 1273 1271
f 1270 1272 1271
f 1245 1244 1273
f 1272 1245 1273
f 1274 1275 1276
f 1274 1276 1277
f 1275 1278 1279
f 1275 1279 1276
f 1278 1280 1281
f 1278 1281 1279
f 1280 1282 1283
f 1280 1283 1281
f 1282 1284 1285
f 1282 1285 1283
f 1284 1286 1287
f 1284 1287 1285
f 1286 1288 1289
f 1286 1289 1287
f 1288 1290 1291
f 1288 1291 1289
f 1290 1292 1293
f 1290 1293 1291
f 1292 1294 1295
f 1292 1295 1293
f 1294 1296 1297
f 1294 1297 1295
f 1296 1298 1299
f 1296 1299 1297
f 1298 1300 1301
f 1298 1301 1299
f 1300 1302 1303
f 1300 1303 1301
f 1302 1304 1305
f 1302 1305 1303
f 1304 1274 1277
f 1304 1277 1305
f 1285 1252 1250
f 1285 1250 1283
f 1287 1254 1252
f 1287 1252 1285
f 1289 1256 1254
f 1289 1254 1287
f 1291 1258 1256
f 1291 1256 1289
f 1293 1260 1258
f 1293 1258 1291
f 1295 1262 1260
f 1295 1260 1293
f 1297 1264 1262
f 1297 1262 1295
f 1299 1266 1264
f 1299 1264 1297
f 1301 1268 1266
f 1301 1266 1299
f 1303 1270 1268
f 1303 1268 1301
f 1305 1272 1270
f 1305 1270 1303
f 1277 1245 1272
f 1277 1272 1305
f 1276 1242 1245
f 1276 1245 1277
f 1279 1246 1242
f 1279 1242 1276
f 1281 1248 1246
f 1281 1246 1279
f 1283 1250 1248
f 1283 1248 1281
