# Botball Lab: metres, +Y up, centred XZ, base Y=0
s off
v -0.0032000 0.0032000 -0.0008000
v 0.0032000 0.0032000 -0.0008000
v 0.0032000 0.0032000 -0.0022409
v -0.0032000 0.0032000 -0.0022409
v 0.0032000 0.0046409 -0.0008000
v -0.0032000 0.0046409 -0.0008000
v 0.0032000 0.0016000 -0.0022409
v 0.0032000 0.0016000 -0.0008000
v -0.0032000 0.0016000 -0.0008000
v -0.0032000 0.0016000 -0.0022409
v 0.0032000 0.0001591 -0.0008000
v -0.0032000 0.0001591 -0.0008000
v -0.0032000 0.0016000 0.0008000
v 0.0032000 0.0016000 0.0008000
v 0.0032000 0.0016000 0.0022409
v -0.0032000 0.0016000 0.0022409
v 0.0032000 0.0001591 0.0008000
v -0.0032000 0.0001591 0.0008000
v 0.0032000 0.0032000 0.0022409
v 0.0032000 0.0032000 0.0008000
v -0.0032000 0.0032000 0.0008000
v -0.0032000 0.0032000 0.0022409
v 0.0032000 0.0046409 0.0008000
v -0.0032000 0.0046409 0.0008000
v -0.0032000 0.0048000 -0.0000000
v 0.0032000 0.0048000 -0.0000000
v 0.0032000 0.0024000 -0.0024000
v -0.0032000 0.0024000 -0.0024000
v 0.0032000 0.0000000 -0.0000000
v -0.0032000 0.0000000 -0.0000000
v -0.0032000 0.0024000 0.0024000
v 0.0032000 0.0024000 0.0024000
v 0.0044000 0.0032000 -0.0008000
v 0.0070000 0.0032000 -0.0008000
v 0.0070000 0.0032000 -0.0022409
v 0.0044000 0.0032000 -0.0022409
v 0.0070000 0.0046409 -0.0008000
v 0.0044000 0.0046409 -0.0008000
v 0.0070000 0.0016000 -0.0022409
v 0.0070000 0.0016000 -0.0008000
v 0.0044000 0.0016000 -0.0008000
v 0.0044000 0.0016000 -0.0022409
v 0.0070000 0.0001591 -0.0008000
v 0.0044000 0.0001591 -0.0008000
v 0.0044000 0.0016000 0.0008000
v 0.0070000 0.0016000 0.0008000
v 0.0070000 0.0016000 0.0022409
v 0.0044000 0.0016000 0.0022409
v 0.0070000 0.0001591 0.0008000
v 0.0044000 0.0001591 0.0008000
v 0.0070000 0.0032000 0.0022409
v 0.0070000 0.0032000 0.0008000
v 0.0044000 0.0032000 0.0008000
v 0.0044000 0.0032000 0.0022409
v 0.0070000 0.0046409 0.0008000
v 0.0044000 0.0046409 0.0008000
v 0.0044000 0.0048000 -0.0000000
v 0.0070000 0.0048000 -0.0000000
v 0.0070000 0.0024000 -0.0024000
v 0.0044000 0.0024000 -0.0024000
v 0.0070000 0.0000000 -0.0000000
v 0.0044000 0.0000000 -0.0000000
v 0.0044000 0.0024000 0.0024000
v 0.0070000 0.0024000 0.0024000
v -0.0070000 0.0032000 -0.0022409
v -0.0070000 0.0032000 -0.0008000
v -0.0044000 0.0032000 -0.0008000
v -0.0044000 0.0032000 -0.0022409
v -0.0070000 0.0046409 -0.0008000
v -0.0044000 0.0046409 -0.0008000
v -0.0044000 0.0016000 -0.0008000
v -0.0070000 0.0016000 -0.0008000
v -0.0070000 0.0016000 -0.0022409
v -0.0044000 0.0016000 -0.0022409
v -0.0070000 0.0001591 -0.0008000
v -0.0044000 0.0001591 -0.0008000
v -0.0070000 0.0016000 0.0022409
v -0.0070000 0.0016000 0.0008000
v -0.0044000 0.0016000 0.0008000
v -0.0044000 0.0016000 0.0022409
v -0.0070000 0.0001591 0.0008000
v -0.0044000 0.0001591 0.0008000
v -0.0044000 0.0032000 0.0008000
v -0.0070000 0.0032000 0.0008000
v -0.0070000 0.0032000 0.0022409
v -0.0044000 0.0032000 0.0022409
v -0.0070000 0.0046409 0.0008000
v -0.0044000 0.0046409 0.0008000
v -0.0044000 0.0048000 -0.0000000
v -0.0070000 0.0048000 -0.0000000
v -0.0044000 0.0024000 -0.0024000
v -0.0070000 0.0024000 -0.0024000
v -0.0044000 0.0000000 -0.0000000
v -0.0070000 0.0000000 -0.0000000
v -0.0044000 0.0024000 0.0024000
v -0.0070000 0.0024000 0.0024000
v -0.0075657 0.0043809 -0.0006520
v -0.0078000 0.0035537 -0.0006528
v -0.0078000 0.0031432 -0.0007432
v -0.0078000 0.0036866 -0.0000000
v -0.0075657 0.0045106 -0.0000000
v -0.0078000 0.0024000 -0.0000000
v -0.0075657 0.0030520 -0.0019809
v -0.0078000 0.0030528 -0.0011537
v -0.0078000 0.0024000 -0.0012866
v -0.0075657 0.0024000 -0.0021106
v -0.0075657 0.0030520 0.0019809
v -0.0078000 0.0030528 0.0011537
v -0.0078000 0.0031432 0.0007432
v -0.0078000 0.0024000 0.0013124
v -0.0075657 0.0024000 0.0021106
v -0.0075657 0.0043809 0.0006520
v -0.0078000 0.0035537 0.0006528
v -0.0075657 0.0004191 0.0006520
v -0.0078000 0.0012463 0.0006528
v -0.0078000 0.0016568 0.0007432
v -0.0078000 0.0011134 -0.0000000
v -0.0075657 0.0002894 -0.0000000
v -0.0075657 0.0017480 0.0019809
v -0.0078000 0.0017472 0.0011537
v -0.0075657 0.0017480 -0.0019809
v -0.0078000 0.0017472 -0.0011537
v -0.0078000 0.0016568 -0.0007432
v -0.0075657 0.0004191 -0.0006520
v -0.0078000 0.0012463 -0.0006528
v 0.0075657 0.0043809 -0.0006520
v 0.0078000 0.0035537 -0.0006528
v 0.0078000 0.0031432 -0.0007432
v 0.0078000 0.0036866 -0.0000000
v 0.0075657 0.0045106 -0.0000000
v 0.0078000 0.0024000 -0.0000000
v 0.0075657 0.0030520 -0.0019809
v 0.0078000 0.0030528 -0.0011537
v 0.0078000 0.0024000 -0.0012866
v 0.0075657 0.0024000 -0.0021106
v 0.0075657 0.0030520 0.0019809
v 0.0078000 0.0030528 0.0011537
v 0.0078000 0.0031432 0.0007432
v 0.0078000 0.0024000 0.0013124
v 0.0075657 0.0024000 0.0021106
v 0.0075657 0.0043809 0.0006520
v 0.0078000 0.0035537 0.0006528
v 0.0075657 0.0004191 0.0006520
v 0.0078000 0.0012463 0.0006528
v 0.0078000 0.0016568 0.0007432
v 0.0078000 0.0011134 -0.0000000
v 0.0075657 0.0002894 -0.0000000
v 0.0075657 0.0017480 0.0019809
v 0.0078000 0.0017472 0.0011537
v 0.0075657 0.0017480 -0.0019809
v 0.0078000 0.0017472 -0.0011537
v 0.0078000 0.0016568 -0.0007432
v 0.0075657 0.0004191 -0.0006520
v 0.0078000 0.0012463 -0.0006528
v -0.0044000 0.0038320 -0.0008000
v -0.0032000 0.0038320 -0.0008000
v 0.0032000 0.0038320 -0.0008000
v 0.0044000 0.0038320 -0.0008000
v -0.0044000 0.0040000 -0.0000000
v -0.0032000 0.0040000 -0.0000000
v 0.0032000 0.0040000 -0.0000000
v 0.0044000 0.0040000 -0.0000000
v -0.0032000 0.0038320 0.0008000
v -0.0044000 0.0038320 0.0008000
v 0.0044000 0.0038320 0.0008000
v 0.0032000 0.0038320 0.0008000
v -0.0044000 0.0032000 0.0014320
v -0.0032000 0.0032000 0.0014320
v 0.0032000 0.0032000 0.0014320
v 0.0044000 0.0032000 0.0014320
v -0.0044000 0.0024000 0.0016000
v -0.0032000 0.0024000 0.0016000
v 0.0032000 0.0024000 0.0016000
v 0.0044000 0.0024000 0.0016000
v -0.0032000 0.0016000 0.0014320
v -0.0044000 0.0016000 0.0014320
v 0.0044000 0.0016000 0.0014320
v 0.0032000 0.0016000 0.0014320
v -0.0044000 0.0009680 0.0008000
v -0.0032000 0.0009680 0.0008000
v 0.0032000 0.0009680 0.0008000
v 0.0044000 0.0009680 0.0008000
v -0.0044000 0.0008000 -0.0000000
v -0.0032000 0.0008000 -0.0000000
v 0.0032000 0.0008000 -0.0000000
v 0.0044000 0.0008000 -0.0000000
v -0.0032000 0.0009680 -0.0008000
v -0.0044000 0.0009680 -0.0008000
v 0.0044000 0.0009680 -0.0008000
v 0.0032000 0.0009680 -0.0008000
v -0.0044000 0.0016000 -0.0014320
v -0.0032000 0.0016000 -0.0014320
v 0.0032000 0.0016000 -0.0014320
v 0.0044000 0.0016000 -0.0014320
v -0.0044000 0.0024000 -0.0016000
v -0.0032000 0.0024000 -0.0016000
v 0.0032000 0.0024000 -0.0016000
v 0.0044000 0.0024000 -0.0016000
v -0.0032000 0.0032000 -0.0014320
v -0.0044000 0.0032000 -0.0014320
v 0.0044000 0.0032000 -0.0014320
v 0.0032000 0.0032000 -0.0014320
vn 0.0 1.0 0.0
vn 0.0 0.0 -1.0
vn 0.0 -1.0 0.0
vn 0.0 0.0 1.0
vn 0.0 0.9807923 -0.1950551
vn 0.0 0.1950551 -0.9807923
vn 0.0 -0.1950551 -0.9807923
vn 0.0 -0.9807923 -0.1950551
vn 0.0 -0.9807923 0.1950551
vn 0.0 0.1950551 0.9807923
vn 0.0 -0.1950551 0.9807923
vn 0.0 0.9807923 0.1950551
vn 0.0643124 0.9977484 -0.0190269
vn 0.0256606 0.9996707 0.0
vn 0.0256606 0.0 -0.9996707
vn 0.0643124 0.0190269 -0.9977484
vn 0.0256606 -0.9996707 0.0
vn 0.0643124 -0.9977484 -0.0190269
vn 0.0643124 -0.0190269 -0.9977484
vn 0.0643124 -0.9977484 0.0190269
vn 0.0256606 0.0 0.9996707
vn 0.0643124 -0.0190269 0.9977484
vn 0.0643124 0.9977484 0.0190269
vn 0.0643124 0.0190269 0.9977484
vn 0.0824588 0.9774515 -0.1943944
vn 0.0910378 0.9958474 0.0
vn 0.0824588 0.1943944 -0.9774515
vn 0.0910378 0.0 -0.9958474
vn 0.0824588 -0.1943944 -0.9774515
vn 0.0824588 -0.9774515 -0.1943944
vn 0.0910378 -0.9958474 0.0
vn 0.0824588 -0.9774515 0.1943944
vn 0.0824588 0.1943944 0.9774515
vn 0.0910378 0.0 0.9958474
vn 0.0824588 -0.1943944 0.9774515
vn 0.0824588 0.9774515 0.1943944
vn -0.0256606 0.9996707 0.0
vn -0.0643124 0.9977484 -0.0190269
vn -0.0643124 0.0190269 -0.9977484
vn -0.0256606 0.0 -0.9996707
vn -0.0643124 -0.9977484 -0.0190269
vn -0.0256606 -0.9996707 0.0
vn -0.0643124 -0.0190269 -0.9977484
vn -0.0643124 -0.9977484 0.0190269
vn -0.0643124 -0.0190269 0.9977484
vn -0.0256606 0.0 0.9996707
vn -0.0643124 0.9977484 0.0190269
vn -0.0643124 0.0190269 0.9977484
vn -0.0824588 0.9774515 -0.1943944
vn -0.0910378 0.9958474 0.0
vn -0.0910378 0.0 -0.9958474
vn -0.0824588 0.1943944 -0.9774515
vn -0.0824588 -0.1943944 -0.9774515
vn -0.0910378 -0.9958474 0.0
vn -0.0824588 -0.9774515 -0.1943944
vn -0.0824588 -0.9774515 0.1943944
vn -0.0824588 0.1943944 0.9774515
vn -0.0910378 0.0 0.9958474
vn -0.0824588 -0.1943944 0.9774515
vn -0.0824588 0.9774515 0.1943944
vn -0.2097792 0.0220155 -0.9775009
vn -0.1377076 0.0986883 -0.9855441
vn -0.084307 0.2143003 -0.9731226
vn -0.8786409 0.4682123 -0.0936343
vn -0.996055 0.0869539 -0.0177025
vn -0.9875217 0.1574831 -0.0
vn -0.700976 0.7131848 0.0
vn -1.0 0.0 0.0
vn -0.2097792 0.9775009 -0.0220155
vn -0.1377076 0.9855441 -0.0986883
vn -0.084307 0.9731226 -0.2143003
vn -0.9875217 -0.0 -0.1574831
vn -0.996055 0.0177025 -0.0869539
vn -0.8786409 0.0936343 -0.4682123
vn -0.700976 -0.0 -0.7131848
vn -0.2097792 0.9775009 0.0220155
vn -0.1377076 0.9855441 0.0986883
vn -0.084307 0.9731226 0.2143003
vn -0.8755751 0.0988034 0.4728701
vn -0.9960641 0.0209382 0.0861277
vn -0.9875217 0.0 0.1574831
vn -0.6946303 0.0 0.7193669
vn -0.2097792 0.0220155 0.9775009
vn -0.1377076 0.0986883 0.9855441
vn -0.084307 0.2143003 0.9731226
vn -0.996055 0.0869539 0.0177025
vn -0.8786409 0.4682123 0.0936343
vn -0.2097792 -0.0220155 0.9775009
vn -0.1377076 -0.0986883 0.9855441
vn -0.084307 -0.2143003 0.9731226
vn -0.8786409 -0.4682123 0.0936343
vn -0.996055 -0.0869539 0.0177025
vn -0.9875217 -0.1574831 0.0
vn -0.700976 -0.7131848 0.0
vn -0.2097792 -0.9775009 0.0220155
vn -0.1377076 -0.9855441 0.0986883
vn -0.084307 -0.9731226 0.2143003
vn -0.9960641 -0.0209382 0.0861277
vn -0.8755751 -0.0988034 0.4728701
vn -0.2097792 -0.9775009 -0.0220155
vn -0.1377076 -0.9855441 -0.0986883
vn -0.084307 -0.9731226 -0.2143003
vn -0.8786409 -0.0936343 -0.4682123
vn -0.996055 -0.0177025 -0.0869539
vn -0.2097792 -0.0220155 -0.9775009
vn -0.1377076 -0.0986883 -0.9855441
vn -0.084307 -0.2143003 -0.9731226
vn -0.996055 -0.0869539 -0.0177025
vn -0.8786409 -0.4682123 -0.0936343
vn 0.2097792 0.0220155 -0.9775009
vn 0.1377076 0.0986883 -0.9855441
vn 0.084307 0.2143003 -0.9731226
vn 0.9875217 0.1574831 0.0
vn 0.996055 0.0869539 -0.0177025
vn 0.8786409 0.4682123 -0.0936343
vn 0.700976 0.7131848 0.0
vn 1.0 0.0 0.0
vn 0.2097792 0.9775009 -0.0220155
vn 0.1377076 0.9855441 -0.0986883
vn 0.084307 0.9731226 -0.2143003
vn 0.8786409 0.0936343 -0.4682123
vn 0.996055 0.0177025 -0.0869539
vn 0.9875217 0.0 -0.1574831
vn 0.700976 -0.0 -0.7131848
vn 0.2097792 0.9775009 0.0220155
vn 0.1377076 0.9855441 0.0986883
vn 0.084307 0.9731226 0.2143003
vn 0.9875217 -0.0 0.1574831
vn 0.9960641 0.0209382 0.0861277
vn 0.8755751 0.0988034 0.4728701
vn 0.6946303 -0.0 0.7193669
vn 0.2097792 0.0220155 0.9775009
vn 0.1377076 0.0986883 0.9855441
vn 0.084307 0.2143003 0.9731226
vn 0.8786409 0.4682123 0.0936343
vn 0.996055 0.0869539 0.0177025
vn 0.2097792 -0.0220155 0.9775009
vn 0.1377076 -0.0986883 0.9855441
vn 0.084307 -0.2143003 0.9731226
vn 0.9875217 -0.1574831 0.0
vn 0.996055 -0.0869539 0.0177025
vn 0.8786409 -0.4682123 0.0936343
vn 0.700976 -0.7131848 -0.0
vn 0.2097792 -0.9775009 0.0220155
vn 0.1377076 -0.9855441 0.0986883
vn 0.084307 -0.9731226 0.2143003
vn 0.8755751 -0.0988034 0.4728701
vn 0.9960641 -0.0209382 0.0861277
vn 0.2097792 -0.9775009 -0.0220155
vn 0.1377076 -0.9855441 -0.0986883
vn 0.084307 -0.9731226 -0.2143003
vn 0.996055 -0.0177025 -0.0869539
vn 0.8786409 -0.0936343 -0.4682123
vn 0.2097792 -0.0220155 -0.9775009
vn 0.1377076 -0.0986883 -0.9855441
vn 0.084307 -0.2143003 -0.9731226
vn 0.8786409 -0.4682123 -0.0936343
vn 0.996055 -0.0869539 -0.0177025
vn 0.0 0.9786535 -0.2055172
vn 0.0 0.997559 0.0698291
vn 0.0 0.997559 -0.0698291
vn 0.0 0.9786535 0.2055172
vn 0.0 0.2055172 0.9786535
vn 0.0 -0.0698291 0.997559
vn 0.0 0.0698291 0.997559
vn 0.0 -0.2055172 0.9786535
vn 0.0 -0.9786535 0.2055172
vn 0.0 -0.997559 -0.0698291
vn 0.0 -0.997559 0.0698291
vn 0.0 -0.9786535 -0.2055172
vn 0.0 -0.2055172 -0.9786535
vn 0.0 0.0698291 -0.997559
vn 0.0 -0.0698291 -0.997559
vn 0.0 0.2055172 -0.9786535
f 1//1 2//1 3//1
f 1//1 3//1 4//1
f 5//2 2//2 1//2
f 5//2 1//2 6//2
f 7//3 8//3 9//3
f 10//3 7//3 9//3
f 9//2 8//2 11//2
f 12//2 9//2 11//2
f 13//3 14//3 15//3
f 13//3 15//3 16//3
f 17//4 14//4 13//4
f 17//4 13//4 18//4
f 19//1 20//1 21//1
f 22//1 19//1 21//1
f 21//4 20//4 23//4
f 24//4 21//4 23//4
f 5//5 6//5 25//1
f 5//5 25//1 26//1
f 3//6 27//2 28//2
f 3//6 28//2 4//6
f 7//7 10//7 28//2
f 7//7 28//2 27//2
f 11//8 29//3 30//3
f 11//8 30//3 12//8
f 17//9 18//9 30//3
f 17//9 30//3 29//3
f 19//10 22//10 31//4
f 19//10 31//4 32//4
f 15//11 32//4 31//4
f 15//11 31//4 16//11
f 23//12 26//1 25//1
f 23//12 25//1 24//12
f 33//1 34//13 35//14
f 33//1 35//14 36//1
f 37//15 34//16 33//2
f 37//15 33//2 38//2
f 39//17 40//18 41//3
f 42//3 39//17 41//3
f 41//2 40//19 43//15
f 44//2 41//2 43//15
f 45//3 46//20 47//17
f 45//3 47//17 48//3
f 49//21 46//22 45//4
f 49//21 45//4 50//4
f 51//14 52//23 53//1
f 54//1 51//14 53//1
f 53//4 52//24 55//21
f 56//4 53//4 55//21
f 37//25 38//5 57//1
f 37//25 57//1 58//26
f 35//27 59//28 60//2
f 35//27 60//2 36//6
f 39//29 42//7 60//2
f 39//29 60//2 59//28
f 43//30 61//31 62//3
f 43//30 62//3 44//8
f 49//32 50//9 62//3
f 49//32 62//3 61//31
f 51//33 54//10 63//4
f 51//33 63//4 64//34
f 47//35 64//34 63//4
f 47//35 63//4 48//11
f 55//36 58//26 57//1
f 55//36 57//1 56//12
f 65//37 66//38 67//1
f 68//1 65//37 67//1
f 67//2 66//39 69//40
f 70//2 67//2 69//40
f 71//3 72//41 73//42
f 71//3 73//42 74//3
f 75//40 72//43 71//2
f 75//40 71//2 76//2
f 77//42 78//44 79//3
f 80//3 77//42 79//3
f 79//4 78//45 81//46
f 82//4 79//4 81//46
f 83//1 84//47 85//37
f 83//1 85//37 86//1
f 87//46 84//48 83//4
f 87//46 83//4 88//4
f 89//1 70//5 69//49
f 90//50 89//1 69//49
f 91//2 92//51 65//52
f 68//6 91//2 65//52
f 91//2 74//7 73//53
f 92//51 91//2 73//53
f 93//3 94//54 75//55
f 76//8 93//3 75//55
f 93//3 82//9 81//56
f 94//54 93//3 81//56
f 95//4 86//10 85//57
f 96//58 95//4 85//57
f 95//4 96//58 77//59
f 80//11 95//4 77//59
f 89//1 90//50 87//60
f 88//12 89//1 87//60
f 97//61 69//40 66//39
f 97//61 66//39 98//62
f 98//62 66//39 99//63
f 97//64 98//65 100//66
f 97//64 100//66 101//67
f 69//49 97//64 101//67
f 69//49 101//67 90//50
f 102//68 100//66 98//65
f 102//68 98//65 99//68
f 65//37 103//69 66//38
f 66//38 103//69 104//70
f 66//38 104//70 99//71
f 105//72 104//73 103//74
f 105//72 103//74 106//75
f 106//75 103//74 65//52
f 106//75 65//52 92//51
f 104//73 105//72 102//68
f 104//73 102//68 99//68
f 107//76 85//37 84//47
f 107//76 84//47 108//77
f 108//77 84//47 109//78
f 107//79 108//80 110//81
f 107//79 110//81 111//82
f 85//57 107//79 111//82
f 85//57 111//82 96//58
f 102//68 110//81 108//80
f 102//68 108//80 109//68
f 87//46 112//83 84//48
f 84//48 112//83 113//84
f 84//48 113//84 109//85
f 100//66 113//86 112//87
f 100//66 112//87 101//67
f 101//67 112//87 87//60
f 101//67 87//60 90//50
f 113//86 100//66 102//68
f 113//86 102//68 109//68
f 114//88 81//46 78//45
f 114//88 78//45 115//89
f 115//89 78//45 116//90
f 114//91 115//92 117//93
f 114//91 117//93 118//94
f 81//56 114//91 118//94
f 81//56 118//94 94//54
f 102//68 117//93 115//92
f 102//68 115//92 116//68
f 77//42 119//95 78//44
f 78//44 119//95 120//96
f 78//44 120//96 116//97
f 110//81 120//98 119//99
f 110//81 119//99 111//82
f 111//82 119//99 77//59
f 111//82 77//59 96//58
f 120//98 110//81 102//68
f 120//98 102//68 116//68
f 121//100 73//42 72//41
f 121//100 72//41 122//101
f 122//101 72//41 123//102
f 121//103 122//104 105//72
f 121//103 105//72 106//75
f 73//53 121//103 106//75
f 73//53 106//75 92//51
f 102//68 105//72 122//104
f 102//68 122//104 123//68
f 75//40 124//105 72//43
f 72//43 124//105 125//106
f 72//43 125//106 123//107
f 117//93 125//108 124//109
f 117//93 124//109 118//94
f 118//94 124//109 75//55
f 118//94 75//55 94//54
f 125//108 117//93 102//68
f 125//108 102//68 123//68
f 34//16 37//15 126//110
f 127//111 34//16 126//110
f 128//112 34//16 127//111
f 129//113 127//114 126//115
f 130//116 129//113 126//115
f 130//116 126//115 37//25
f 58//26 130//116 37//25
f 127//114 129//113 131//117
f 128//117 127//114 131//117
f 34//13 132//118 35//14
f 133//119 132//118 34//13
f 128//120 133//119 34//13
f 132//121 133//122 134//123
f 135//124 132//121 134//123
f 35//27 132//121 135//124
f 59//28 35//27 135//124
f 131//117 134//123 133//122
f 128//117 131//117 133//122
f 52//23 51//14 136//125
f 137//126 52//23 136//125
f 138//127 52//23 137//126
f 139//128 137//129 136//130
f 140//131 139//128 136//130
f 140//131 136//130 51//33
f 64//34 140//131 51//33
f 137//129 139//128 131//117
f 138//117 137//129 131//117
f 52//24 141//132 55//21
f 142//133 141//132 52//24
f 138//134 142//133 52//24
f 141//135 142//136 129//113
f 130//116 141//135 129//113
f 55//36 141//135 130//116
f 58//26 55//36 130//116
f 131//117 129//113 142//136
f 138//117 131//117 142//136
f 46//22 49//21 143//137
f 144//138 46//22 143//137
f 145//139 46//22 144//138
f 146//140 144//141 143//142
f 147//143 146//140 143//142
f 147//143 143//142 49//32
f 61//31 147//143 49//32
f 144//141 146//140 131//117
f 145//117 144//141 131//117
f 46//20 148//144 47//17
f 149//145 148//144 46//20
f 145//146 149//145 46//20
f 148//147 149//148 139//128
f 140//131 148//147 139//128
f 47//35 148//147 140//131
f 64//34 47//35 140//131
f 131//117 139//128 149//148
f 145//117 131//117 149//148
f 40//18 39//17 150//149
f 151//150 40//18 150//149
f 152//151 40//18 151//150
f 134//123 151//152 150//153
f 135//124 134//123 150//153
f 135//124 150//153 39//29
f 59//28 135//124 39//29
f 151//152 134//123 131//117
f 152//117 151//152 131//117
f 40//19 153//154 43//15
f 154//155 153//154 40//19
f 152//156 154//155 40//19
f 153//157 154//158 146//140
f 147//143 153//157 146//140
f 43//30 153//157 147//143
f 61//31 43//30 147//143
f 131//117 146//140 154//158
f 152//117 131//117 154//158
f 1//2 67//2 155//2
f 1//2 155//2 156//2
f 33//2 2//2 157//2
f 33//2 157//2 158//2
f 155//159 159//160 160//161
f 155//159 160//161 156//159
f 157//159 161//160 162//161
f 157//159 162//161 158//159
f 163//162 160//161 159//160
f 163//162 159//160 164//162
f 165//162 162//161 161//160
f 165//162 161//160 166//162
f 83//4 21//4 163//4
f 83//4 163//4 164//4
f 20//4 53//4 165//4
f 20//4 165//4 166//4
f 21//1 83//1 167//1
f 21//1 167//1 168//1
f 53//1 20//1 169//1
f 53//1 169//1 170//1
f 167//163 171//164 172//165
f 167//163 172//165 168//163
f 169//163 173//164 174//165
f 169//163 174//165 170//163
f 175//166 172//165 171//164
f 175//166 171//164 176//166
f 177//166 174//165 173//164
f 177//166 173//164 178//166
f 79//3 13//3 175//3
f 79//3 175//3 176//3
f 14//3 45//3 177//3
f 14//3 177//3 178//3
f 13//4 79//4 179//4
f 13//4 179//4 180//4
f 45//4 14//4 181//4
f 45//4 181//4 182//4
f 179//167 183//168 184//169
f 179//167 184//169 180//167
f 181//167 185//168 186//169
f 181//167 186//169 182//167
f 187//170 184//169 183//168
f 187//170 183//168 188//170
f 189//170 186//169 185//168
f 189//170 185//168 190//170
f 71//2 9//2 187//2
f 71//2 187//2 188//2
f 8//2 41//2 189//2
f 8//2 189//2 190//2
f 9//3 71//3 191//3
f 9//3 191//3 192//3
f 41//3 8//3 193//3
f 41//3 193//3 194//3
f 191//171 195//172 196//173
f 191//171 196//173 192//171
f 193//171 197//172 198//173
f 193//171 198//173 194//171
f 199//174 196//173 195//172
f 199//174 195//172 200//174
f 201//174 198//173 197//172
f 201//174 197//172 202//174
f 67//1 1//1 199//1
f 67//1 199//1 200//1
f 2//1 33//1 201//1
f 2//1 201//1 202//1
f 159//117 155//117 70//117
f 159//117 70//117 89//117
f 159//117 89//117 88//117
f 159//117 88//117 164//117
f 171//117 167//117 86//117
f 171//117 86//117 95//117
f 171//117 95//117 80//117
f 171//117 80//117 176//117
f 183//117 179//117 82//117
f 183//117 82//117 93//117
f 183//117 93//117 76//117
f 183//117 76//117 188//117
f 195//117 191//117 74//117
f 195//117 74//117 91//117
f 195//117 91//117 68//117
f 195//117 68//117 200//117
f 6//68 156//68 160//68
f 6//68 160//68 25//68
f 24//68 25//68 160//68
f 24//68 160//68 163//68
f 22//68 168//68 172//68
f 22//68 172//68 31//68
f 16//68 31//68 172//68
f 16//68 172//68 175//68
f 18//68 180//68 184//68
f 18//68 184//68 30//68
f 12//68 30//68 184//68
f 12//68 184//68 187//68
f 10//68 192//68 196//68
f 10//68 196//68 28//68
f 4//68 28//68 196//68
f 4//68 196//68 199//68
f 162//68 165//68 56//68
f 162//68 56//68 57//68
f 162//68 57//68 38//68
f 162//68 38//68 158//68
f 198//68 201//68 36//68
f 198//68 36//68 60//68
f 198//68 60//68 42//68
f 198//68 42//68 194//68
f 186//68 189//68 44//68
f 186//68 44//68 62//68
f 186//68 62//68 50//68
f 186//68 50//68 182//68
f 174//68 177//68 48//68
f 174//68 48//68 63//68
f 174//68 63//68 54//68
f 174//68 54//68 170//68
f 23//117 166//117 161//117
f 23//117 161//117 26//117
f 5//117 26//117 161//117
f 5//117 161//117 157//117
f 3//117 202//117 197//117
f 3//117 197//117 27//117
f 7//117 27//117 197//117
f 7//117 197//117 193//117
f 11//117 190//117 185//117
f 11//117 185//117 29//117
f 17//117 29//117 185//117
f 17//117 185//117 181//117
f 15//117 178//117 173//117
f 15//117 173//117 32//117
f 19//117 32//117 173//117
f 19//117 173//117 169//117
