# Extracted from KIPR Simulator demobot_v6.glb; GPL-3.0
mtllib metal_024.mtl
s off
usemtl material_0
v 0.0012702 0.0063494 0.0003803
v 0.0012702 0.0063494 -0.0003803
v 0.0011574 0.0057150 0.0002674
v 0.0011574 0.0057150 -0.0002707
v 0.0012702 0.0063494 -0.0003803
v 0.0005064 0.0063494 -0.0003803
v 0.0011574 0.0057150 -0.0002707
v 0.0005064 0.0057150 -0.0002707
v 0.0012702 0.0066879 -0.0003803
v 0.0012005 0.0066979 -0.0003803
v 0.0012702 0.0063494 -0.0003803
v 0.0005064 0.0063494 -0.0003803
v 0.0009080 0.0067444 -0.0003803
v 0.0008317 0.0067543 -0.0003803
v 0.0005695 0.0067842 -0.0003803
v 0.0005064 0.0067941 -0.0003803
v 0.0012702 0.0066879 -0.0003803
v 0.0012702 0.0063494 -0.0003803
v 0.0012702 0.0066879 -0.0003703
v 0.0012702 0.0066946 -0.0001579
v 0.0012702 0.0066979 -0.0000019
v 0.0012702 0.0066979 0.0000512
v 0.0012702 0.0063494 0.0003803
v 0.0012702 0.0066912 0.0002608
v 0.0012702 0.0066879 0.0003803
v 0.0005064 0.0063494 0.0003803
v 0.0012702 0.0063494 0.0003803
v 0.0005064 0.0057150 0.0002674
v 0.0011574 0.0057150 0.0002674
v 0.0005064 0.0067941 -0.0003803
v 0.0004599 0.0067975 -0.0003902
v 0.0005064 0.0063494 -0.0003803
v 0.0004599 0.0063494 -0.0003902
v 0.0004267 0.0067975 -0.0004135
v 0.0004168 0.0063494 -0.0004201
v 0.0004168 0.0067975 -0.0004201
v 0.0003902 0.0067975 -0.0004599
v 0.0003902 0.0063494 -0.0004599
v 0.0003803 0.0067941 -0.0005097
v 0.0003803 0.0063494 -0.0005097
v 0.0012702 0.0066879 0.0003803
v 0.0012702 0.0063494 0.0003803
v 0.0012005 0.0066979 0.0003803
v 0.0010242 0.0067278 0.0003803
v 0.0009080 0.0067444 0.0003803
v 0.0005064 0.0063494 0.0003803
v 0.0006956 0.0067709 0.0003803
v 0.0005064 0.0067941 0.0003803
v 0.0005064 0.0063494 -0.0003803
v 0.0004599 0.0063494 -0.0003902
v 0.0005064 0.0057150 -0.0002707
v 0.0004168 0.0057150 -0.0002873
v 0.0004168 0.0063494 -0.0004201
v 0.0003371 0.0057150 -0.0003404
v 0.0003902 0.0063494 -0.0004599
v 0.0002873 0.0057150 -0.0004168
v 0.0003803 0.0063494 -0.0005097
v 0.0002674 0.0057150 -0.0005097
v 0.0005064 0.0057150 0.0002674
v 0.0004168 0.0057150 0.0002873
v 0.0005064 0.0063494 0.0003803
v 0.0004599 0.0063494 0.0003902
v 0.0003371 0.0057150 0.0003371
v 0.0004168 0.0063494 0.0004168
v 0.0002873 0.0057150 0.0004168
v 0.0003902 0.0063494 0.0004599
v 0.0002674 0.0057150 0.0005064
v 0.0003803 0.0063494 0.0005064
v -0.0002707 0.0057150 0.0011574
v -0.0002707 0.0057150 0.0005064
v -0.0003803 0.0063494 0.0012702
v -0.0003803 0.0063494 0.0005064
v 0.0003803 0.0063494 -0.0005097
v 0.0003803 0.0063494 -0.0012702
v 0.0002674 0.0057150 -0.0005097
v 0.0002674 0.0057150 -0.0011574
v 0.0003803 0.0067941 -0.0005097
v 0.0003803 0.0067610 -0.0007653
v 0.0003803 0.0063494 -0.0005097
v 0.0003803 0.0067444 -0.0009118
v 0.0003803 0.0063494 -0.0012702
v 0.0003803 0.0066879 -0.0012702
v 0.0003803 0.0066979 -0.0012005
v 0.0003803 0.0067045 -0.0011640
v 0.0005064 0.0067941 0.0003803
v 0.0005064 0.0063494 0.0003803
v 0.0004732 0.0067941 0.0003869
v 0.0004599 0.0063494 0.0003902
v 0.0004599 0.0067975 0.0003902
v 0.0004168 0.0063494 0.0004168
v 0.0004168 0.0067975 0.0004168
v 0.0003969 0.0067975 0.0004467
v 0.0003902 0.0063494 0.0004599
v 0.0003902 0.0067975 0.0004599
v 0.0003803 0.0063494 0.0005064
v 0.0003803 0.0067941 0.0005064
v 0.0002674 0.0057150 0.0005064
v 0.0002674 0.0057150 0.0011574
v 0.0003803 0.0063494 0.0005064
v 0.0003803 0.0063494 0.0012702
v 0.0002674 0.0057150 0.0011574
v -0.0002707 0.0057150 0.0011574
v 0.0003803 0.0063494 0.0012702
v -0.0003803 0.0063494 0.0012702
v -0.0003803 0.0067941 0.0005064
v -0.0003803 0.0067775 0.0006325
v -0.0003803 0.0063494 0.0005064
v -0.0003803 0.0067477 0.0008981
v -0.0003803 0.0067444 0.0009080
v -0.0003803 0.0063494 0.0012702
v -0.0003803 0.0066879 0.0012702
v -0.0003803 0.0066979 0.0012005
v -0.0002707 0.0057150 0.0005064
v -0.0002873 0.0057150 0.0004168
v -0.0003803 0.0063494 0.0005064
v -0.0003902 0.0063494 0.0004599
v -0.0003404 0.0057150 0.0003371
v -0.0004201 0.0063494 0.0004168
v -0.0004168 0.0057150 0.0002873
v -0.0004599 0.0063494 0.0003902
v -0.0005097 0.0057150 0.0002674
v -0.0005097 0.0063494 0.0003803
v -0.0005097 0.0057150 0.0002674
v -0.0011574 0.0057150 0.0002674
v -0.0005097 0.0063494 0.0003803
v -0.0012702 0.0063494 0.0003803
v 0.0002674 0.0057150 -0.0011574
v -0.0002707 0.0057150 -0.0011574
v 0.0002674 0.0057150 -0.0005097
v -0.0002707 0.0057150 -0.0005097
v 0.0002873 0.0057150 -0.0004168
v -0.0002873 0.0057150 -0.0004168
v -0.0003404 0.0057150 -0.0003404
v -0.0004168 0.0057150 -0.0002873
v 0.0011574 0.0057150 0.0002674
v 0.0011574 0.0057150 -0.0002707
v 0.0005064 0.0057150 0.0002674
v 0.0004168 0.0057150 0.0002873
v -0.0002707 0.0057150 0.0011574
v 0.0002674 0.0057150 0.0011574
v -0.0002707 0.0057150 0.0005064
v 0.0002674 0.0057150 0.0005064
v -0.0002873 0.0057150 0.0004168
v 0.0002873 0.0057150 0.0004168
v 0.0003371 0.0057150 0.0003371
v 0.0005064 0.0057150 -0.0002707
v 0.0004168 0.0057150 -0.0002873
v -0.0003404 0.0057150 0.0003371
v 0.0003371 0.0057150 -0.0003404
v -0.0004168 0.0057150 0.0002873
v -0.0005097 0.0057150 0.0002674
v -0.0011574 0.0057150 0.0002674
v -0.0011574 0.0057150 -0.0002707
v -0.0005097 0.0057150 -0.0002707
v -0.0005097 0.0057150 -0.0002707
v -0.0004168 0.0057150 -0.0002873
v -0.0005097 0.0063494 -0.0003803
v -0.0004599 0.0063494 -0.0003902
v -0.0003404 0.0057150 -0.0003404
v -0.0004201 0.0063494 -0.0004201
v -0.0002873 0.0057150 -0.0004168
v -0.0003902 0.0063494 -0.0004599
v -0.0002707 0.0057150 -0.0005097
v -0.0003803 0.0063494 -0.0005097
v -0.0002707 0.0057150 -0.0005097
v -0.0002707 0.0057150 -0.0011574
v -0.0003803 0.0063494 -0.0005097
v -0.0003803 0.0063494 -0.0012702
v 0.0003803 0.0063494 -0.0012702
v -0.0003803 0.0063494 -0.0012702
v 0.0002674 0.0057150 -0.0011574
v -0.0002707 0.0057150 -0.0011574
v 0.0003803 0.0066879 -0.0012702
v 0.0002077 0.0066912 -0.0012702
v 0.0003803 0.0063494 -0.0012702
v -0.0000019 0.0066979 -0.0012702
v -0.0003803 0.0063494 -0.0012702
v -0.0003803 0.0066879 -0.0012702
v -0.0002110 0.0066912 -0.0012702
v 0.0003803 0.0067941 0.0005064
v 0.0003803 0.0063494 0.0005064
v 0.0003803 0.0067775 0.0006325
v 0.0003803 0.0067477 0.0008981
v 0.0003803 0.0067444 0.0009080
v 0.0003803 0.0066979 0.0012005
v 0.0003803 0.0063494 0.0012702
v 0.0003803 0.0066879 0.0012702
v -0.0003803 0.0066879 0.0012702
v -0.0003172 0.0066879 0.0012702
v -0.0003803 0.0063494 0.0012702
v -0.0001048 0.0066946 0.0012702
v 0.0003803 0.0063494 0.0012702
v 0.0003803 0.0066879 0.0012702
v 0.0003139 0.0066879 0.0012702
v 0.0001010 0.0066946 0.0012702
v -0.0000019 0.0066979 0.0012702
v -0.0003803 0.0063494 0.0005064
v -0.0003902 0.0063494 0.0004599
v -0.0003803 0.0067941 0.0005064
v -0.0003902 0.0067975 0.0004599
v -0.0003969 0.0067975 0.0004467
v -0.0004201 0.0063494 0.0004168
v -0.0004201 0.0067975 0.0004168
v -0.0004599 0.0063494 0.0003902
v -0.0004599 0.0067975 0.0003902
v -0.0004765 0.0067941 0.0003869
v -0.0005097 0.0063494 0.0003803
v -0.0005097 0.0067941 0.0003803
v -0.0005097 0.0067941 0.0003803
v -0.0005097 0.0063494 0.0003803
v -0.0006989 0.0067709 0.0003803
v -0.0009118 0.0067444 0.0003803
v -0.0010246 0.0067278 0.0003803
v -0.0012702 0.0063494 0.0003803
v -0.0012005 0.0066979 0.0003803
v -0.0012702 0.0066879 0.0003803
v -0.0011574 0.0057150 0.0002674
v -0.0011574 0.0057150 -0.0002707
v -0.0012702 0.0063494 0.0003803
v -0.0012702 0.0063494 -0.0003803
v -0.0011574 0.0057150 -0.0002707
v -0.0005097 0.0057150 -0.0002707
v -0.0012702 0.0063494 -0.0003803
v -0.0005097 0.0063494 -0.0003803
v -0.0005097 0.0063494 -0.0003803
v -0.0004599 0.0063494 -0.0003902
v -0.0005097 0.0067941 -0.0003803
v -0.0004599 0.0067975 -0.0003902
v -0.0004301 0.0067975 -0.0004135
v -0.0004201 0.0063494 -0.0004201
v -0.0004201 0.0067975 -0.0004201
v -0.0003902 0.0063494 -0.0004599
v -0.0003902 0.0067975 -0.0004599
v -0.0003803 0.0063494 -0.0005097
v -0.0003803 0.0067941 -0.0005097
v -0.0003803 0.0066879 -0.0012702
v -0.0003803 0.0066979 -0.0012005
v -0.0003803 0.0063494 -0.0012702
v -0.0003803 0.0067045 -0.0011640
v -0.0003803 0.0063494 -0.0005097
v -0.0003803 0.0067941 -0.0005097
v -0.0003803 0.0067610 -0.0007653
v -0.0003803 0.0067444 -0.0009118
v 0.0015159 0.0000000 0.0001243
v -0.0000019 0.0000000 -0.0000019
v 0.0014760 0.0000000 -0.0003736
v 0.0012736 0.0000000 -0.0008321
v 0.0009346 0.0000000 -0.0012039
v 0.0004931 0.0000000 -0.0014395
v -0.0000019 0.0000000 -0.0015225
v -0.0004964 0.0000000 -0.0014395
v -0.0009350 0.0000000 -0.0012039
v -0.0012769 0.0000000 -0.0008321
v -0.0014760 0.0000000 -0.0003736
v -0.0015192 0.0000000 0.0001243
v -0.0013964 0.0000000 0.0006093
v -0.0011209 0.0000000 0.0010308
v -0.0007255 0.0000000 0.0013366
v -0.0002508 0.0000000 0.0014993
v 0.0002508 0.0000000 0.0014993
v 0.0007222 0.0000000 0.0013366
v 0.0011209 0.0000000 0.0010308
v 0.0013931 0.0000000 0.0006093
v -0.0012702 0.0066879 0.0003803
v -0.0012702 0.0063494 0.0003803
v -0.0012702 0.0066912 0.0002608
v -0.0012702 0.0066979 0.0000512
v -0.0012702 0.0066979 -0.0000019
v -0.0012702 0.0066946 -0.0001579
v -0.0012702 0.0063494 -0.0003803
v -0.0012702 0.0066879 -0.0003703
v -0.0012702 0.0066879 -0.0003803
v -0.0005097 0.0067941 -0.0003803
v -0.0005695 0.0067842 -0.0003803
v -0.0005097 0.0063494 -0.0003803
v -0.0008321 0.0067543 -0.0003803
v -0.0009118 0.0067444 -0.0003803
v -0.0012702 0.0063494 -0.0003803
v -0.0012702 0.0066879 -0.0003803
v -0.0012005 0.0066979 -0.0003803
v 0.0013931 0.0055623 0.0006093
v 0.0011209 0.0055623 0.0010308
v 0.0013931 0.0000000 0.0006093
v 0.0011209 0.0000000 0.0010308
v 0.0007222 0.0055623 0.0013366
v 0.0007222 0.0000000 0.0013366
v 0.0002508 0.0055623 0.0014993
v 0.0002508 0.0000000 0.0014993
v -0.0002508 0.0055623 0.0014993
v -0.0002508 0.0000000 0.0014993
v -0.0007255 0.0055623 0.0013366
v -0.0007255 0.0000000 0.0013366
v -0.0011209 0.0055623 0.0010308
v -0.0011209 0.0000000 0.0010308
v -0.0013964 0.0055623 0.0006093
v -0.0013964 0.0000000 0.0006093
v -0.0015192 0.0055623 0.0001243
v -0.0015192 0.0000000 0.0001243
v -0.0014760 0.0055623 -0.0003736
v -0.0014760 0.0000000 -0.0003736
v -0.0012769 0.0055623 -0.0008321
v -0.0012769 0.0000000 -0.0008321
v -0.0009350 0.0055623 -0.0012039
v -0.0009350 0.0000000 -0.0012039
v -0.0004964 0.0055623 -0.0014395
v -0.0004964 0.0000000 -0.0014395
v -0.0000019 0.0055623 -0.0015225
v -0.0000019 0.0000000 -0.0015225
v 0.0004931 0.0055623 -0.0014395
v 0.0004931 0.0000000 -0.0014395
v 0.0009346 0.0055623 -0.0012039
v 0.0009346 0.0000000 -0.0012039
v 0.0012736 0.0055623 -0.0008321
v 0.0012736 0.0000000 -0.0008321
v 0.0014760 0.0055623 -0.0003736
v 0.0014760 0.0000000 -0.0003736
v 0.0015159 0.0055623 0.0001243
v 0.0015159 0.0000000 0.0001243
v 0.0007222 0.0055623 0.0013366
v 0.0011209 0.0055623 0.0010308
v 0.0020304 0.0055623 0.0025453
v 0.0025453 0.0055623 0.0020304
v 0.0029336 0.0055623 0.0014130
v 0.0013931 0.0055623 0.0006093
v 0.0031763 0.0055623 0.0007255
v 0.0015159 0.0055623 0.0001243
v 0.0032593 0.0055623 -0.0000019
v 0.0031763 0.0055623 -0.0007255
v 0.0014760 0.0055623 -0.0003736
v 0.0029336 0.0055623 -0.0014130
v 0.0012736 0.0055623 -0.0008321
v 0.0025453 0.0055623 -0.0020341
v 0.0020304 0.0055623 -0.0025486
v 0.0009346 0.0055623 -0.0012039
v 0.0014130 0.0055623 -0.0029374
v 0.0004931 0.0055623 -0.0014395
v 0.0007255 0.0055623 -0.0031763
v -0.0000019 0.0055623 -0.0032593
v -0.0000019 0.0055623 -0.0015225
v -0.0007255 0.0055623 -0.0031763
v -0.0004964 0.0055623 -0.0014395
v -0.0014130 0.0055623 -0.0029374
v -0.0009350 0.0055623 -0.0012039
v -0.0020341 0.0055623 -0.0025486
v -0.0025486 0.0055623 -0.0020341
v -0.0012769 0.0055623 -0.0008321
v -0.0029374 0.0055623 -0.0014130
v -0.0014760 0.0055623 -0.0003736
v -0.0031763 0.0055623 -0.0007255
v -0.0032593 0.0055623 -0.0000019
v -0.0015192 0.0055623 0.0001243
v -0.0031763 0.0055623 0.0007255
v -0.0013964 0.0055623 0.0006093
v -0.0029374 0.0055623 0.0014130
v -0.0025486 0.0055623 0.0020304
v -0.0011209 0.0055623 0.0010308
v -0.0020341 0.0055623 0.0025453
v -0.0007255 0.0055623 0.0013366
v -0.0014130 0.0055623 0.0029336
v -0.0007255 0.0055623 0.0031763
v -0.0002508 0.0055623 0.0014993
v -0.0000019 0.0055623 0.0032593
v 0.0002508 0.0055623 0.0014993
v 0.0007255 0.0055623 0.0031763
v 0.0014130 0.0055623 0.0029336
v -0.0012005 0.0066979 0.0003803
v -0.0011806 0.0066979 0.0004467
v -0.0010246 0.0067278 0.0003803
v -0.0009118 0.0067444 0.0003803
v -0.0010943 0.0066979 0.0006292
v -0.0006989 0.0067709 0.0003803
v -0.0005097 0.0067941 0.0003803
v -0.0009781 0.0066979 0.0007985
v -0.0004765 0.0067941 0.0003869
v -0.0004599 0.0067975 0.0003902
v -0.0008387 0.0066979 0.0009445
v -0.0004201 0.0067975 0.0004168
v -0.0003969 0.0067975 0.0004467
v -0.0003902 0.0067975 0.0004599
v -0.0003803 0.0067941 0.0005064
v -0.0003803 0.0067775 0.0006325
v -0.0006757 0.0066979 0.0010640
v -0.0004964 0.0066979 0.0011607
v -0.0003803 0.0067477 0.0008981
v -0.0003803 0.0067444 0.0009080
v -0.0003803 0.0066979 0.0012005
v -0.0003803 0.0066879 0.0012702
v 0.0003803 0.0066979 0.0012005
v 0.0004931 0.0066979 0.0011607
v 0.0003803 0.0067444 0.0009080
v 0.0003803 0.0067477 0.0008981
v 0.0006724 0.0066979 0.0010640
v 0.0003803 0.0067775 0.0006325
v 0.0003803 0.0067941 0.0005064
v 0.0008350 0.0066979 0.0009445
v 0.0003902 0.0067975 0.0004599
v 0.0003969 0.0067975 0.0004467
v 0.0004168 0.0067975 0.0004168
v 0.0004599 0.0067975 0.0003902
v 0.0004732 0.0067941 0.0003869
v 0.0009777 0.0066979 0.0007985
v 0.0005064 0.0067941 0.0003803
v 0.0006956 0.0067709 0.0003803
v 0.0010906 0.0066979 0.0006292
v 0.0009080 0.0067444 0.0003803
v 0.0010242 0.0067278 0.0003803
v 0.0011806 0.0066979 0.0004467
v 0.0012005 0.0066979 0.0003803
v 0.0012702 0.0066879 0.0003803
v 0.0012005 0.0066979 -0.0003803
v 0.0011408 0.0066979 -0.0005429
v 0.0009080 0.0067444 -0.0003803
v 0.0008317 0.0067543 -0.0003803
v 0.0010375 0.0066979 -0.0007188
v 0.0005695 0.0067842 -0.0003803
v 0.0005064 0.0067941 -0.0003803
v 0.0009080 0.0066979 -0.0008753
v 0.0004599 0.0067975 -0.0003902
v 0.0004267 0.0067975 -0.0004135
v 0.0004168 0.0067975 -0.0004201
v 0.0003902 0.0067975 -0.0004599
v 0.0003803 0.0067941 -0.0005097
v 0.0007587 0.0066979 -0.0010113
v 0.0005861 0.0066979 -0.0011176
v 0.0003803 0.0067610 -0.0007653
v 0.0003803 0.0067444 -0.0009118
v 0.0003803 0.0067045 -0.0011640
v 0.0004002 0.0066979 -0.0011972
v 0.0003803 0.0066979 -0.0012005
v 0.0003803 0.0066879 -0.0012702
v -0.0003803 0.0066979 -0.0012005
v -0.0004002 0.0066979 -0.0011972
v -0.0003803 0.0067045 -0.0011640
v -0.0003803 0.0067444 -0.0009118
v -0.0005861 0.0066979 -0.0011176
v -0.0003803 0.0067610 -0.0007653
v -0.0007587 0.0066979 -0.0010113
v -0.0003803 0.0067941 -0.0005097
v -0.0003902 0.0067975 -0.0004599
v -0.0004599 0.0067975 -0.0003902
v -0.0004301 0.0067975 -0.0004135
v -0.0005097 0.0067941 -0.0003803
v -0.0012702 0.0066879 -0.0003803
v -0.0012005 0.0066979 -0.0003803
v -0.0011408 0.0066979 -0.0005429
v -0.0009118 0.0067444 -0.0003803
v -0.0008321 0.0067543 -0.0003803
v -0.0005695 0.0067842 -0.0003803
v -0.0010379 0.0066979 -0.0007188
v -0.0009118 0.0066979 -0.0008753
v -0.0004201 0.0067975 -0.0004201
v -0.0013997 0.0065518 -0.0013466
v -0.0011673 0.0065518 -0.0015524
v -0.0009018 0.0065518 -0.0017183
v -0.0006159 0.0065518 -0.0018416
v -0.0003803 0.0066879 -0.0012702
v -0.0003106 0.0065518 -0.0019179
v -0.0002110 0.0066912 -0.0012702
v -0.0000019 0.0066979 -0.0012702
v -0.0000019 0.0065518 -0.0019412
v 0.0002077 0.0066912 -0.0012702
v 0.0003106 0.0065518 -0.0019179
v 0.0006126 0.0065518 -0.0018416
v 0.0009014 0.0065518 -0.0017183
v 0.0011640 0.0065518 -0.0015524
v 0.0013997 0.0065518 -0.0013466
v 0.0015955 0.0065518 -0.0011043
v 0.0017515 0.0065518 -0.0008321
v 0.0012702 0.0066879 -0.0003803
v 0.0018644 0.0065518 -0.0005396
v 0.0012702 0.0066879 -0.0003703
v 0.0012702 0.0066946 -0.0001579
v 0.0019275 0.0065518 -0.0002342
v 0.0012702 0.0066979 -0.0000019
v 0.0019374 0.0065518 0.0000778
v 0.0012702 0.0066979 0.0000512
v 0.0012702 0.0066912 0.0002608
v 0.0019009 0.0065518 0.0003869
v 0.0018146 0.0065518 0.0006890
v 0.0016785 0.0065518 0.0009711
v 0.0015026 0.0065518 0.0012271
v 0.0012868 0.0065518 0.0014528
v 0.0010375 0.0065518 0.0016387
v 0.0007587 0.0065518 0.0017847
v 0.0003803 0.0066879 0.0012702
v 0.0004632 0.0065518 0.0018843
v 0.0003139 0.0066879 0.0012702
v 0.0001010 0.0066946 0.0012702
v 0.0001546 0.0065518 0.0019341
v -0.0000019 0.0066979 0.0012702
v -0.0001579 0.0065518 0.0019341
v -0.0001048 0.0066946 0.0012702
v -0.0003172 0.0066879 0.0012702
v -0.0004666 0.0065518 0.0018843
v -0.0007620 0.0065518 0.0017847
v -0.0010379 0.0065518 0.0016387
v -0.0012868 0.0065518 0.0014528
v -0.0015059 0.0065518 0.0012271
v -0.0016818 0.0065518 0.0009711
v -0.0018150 0.0065518 0.0006890
v -0.0012702 0.0066879 0.0003803
v -0.0019013 0.0065518 0.0003869
v -0.0012702 0.0066912 0.0002608
v -0.0012702 0.0066979 0.0000512
v -0.0019412 0.0065518 0.0000778
v -0.0012702 0.0066979 -0.0000019
v -0.0019279 0.0065518 -0.0002342
v -0.0012702 0.0066946 -0.0001579
v -0.0012702 0.0066879 -0.0003703
v -0.0018648 0.0065518 -0.0005396
v -0.0017549 0.0065518 -0.0008321
v -0.0015989 0.0065518 -0.0011043
v -0.0021469 0.0063527 -0.0014827
v -0.0018814 0.0063527 -0.0018084
v -0.0015657 0.0063527 -0.0020872
v -0.0012138 0.0063527 -0.0023096
v -0.0008250 0.0063527 -0.0024756
v -0.0004201 0.0063527 -0.0025751
v -0.0000019 0.0063527 -0.0026083
v 0.0004168 0.0063527 -0.0025751
v 0.0008250 0.0063527 -0.0024756
v 0.0012105 0.0063527 -0.0023096
v 0.0015657 0.0063527 -0.0020872
v 0.0018810 0.0063527 -0.0018084
v 0.0021469 0.0063527 -0.0014827
v 0.0023561 0.0063527 -0.0011176
v 0.0025054 0.0063527 -0.0007255
v 0.0025884 0.0063527 -0.0003139
v 0.0026050 0.0063527 0.0001043
v 0.0025552 0.0063527 0.0005197
v 0.0024390 0.0063527 0.0009246
v 0.0022565 0.0063527 0.0013034
v 0.0020204 0.0063527 0.0016486
v 0.0017283 0.0063527 0.0019507
v 0.0013931 0.0063527 0.0022034
v 0.0010209 0.0063527 0.0023992
v 0.0006226 0.0063527 0.0025320
v 0.0002077 0.0063527 0.0025984
v -0.0002110 0.0063527 0.0025984
v -0.0006259 0.0063527 0.0025320
v -0.0010246 0.0063527 0.0023992
v -0.0013931 0.0063527 0.0022034
v -0.0017283 0.0063527 0.0019507
v -0.0020208 0.0063527 0.0016486
v -0.0022598 0.0063527 0.0013034
v -0.0024390 0.0063527 0.0009246
v -0.0025552 0.0063527 0.0005197
v -0.0026050 0.0063527 0.0001043
v -0.0025884 0.0063527 -0.0003139
v -0.0025054 0.0063527 -0.0007255
v -0.0023561 0.0063527 -0.0011176
v -0.0029340 0.0061100 -0.0014130
v -0.0026814 0.0061100 -0.0018515
v -0.0025419 0.0061100 -0.0020275
v -0.0023494 0.0061100 -0.0022565
v -0.0020275 0.0061100 -0.0025453
v -0.0019578 0.0061100 -0.0026050
v -0.0015159 0.0061100 -0.0028876
v -0.0014130 0.0061100 -0.0029307
v -0.0010313 0.0061100 -0.0030934
v -0.0007222 0.0061100 -0.0031664
v -0.0005230 0.0061100 -0.0032162
v -0.0000019 0.0061100 -0.0032593
v 0.0005230 0.0061100 -0.0032162
v 0.0007222 0.0061100 -0.0031664
v 0.0010308 0.0061100 -0.0030934
v 0.0014097 0.0061100 -0.0029307
v 0.0015126 0.0061100 -0.0028876
v 0.0019573 0.0061100 -0.0026050
v 0.0020270 0.0061100 -0.0025453
v 0.0023494 0.0061100 -0.0022565
v 0.0025386 0.0061100 -0.0020275
v 0.0026814 0.0061100 -0.0018515
v 0.0029336 0.0061100 -0.0014130
v 0.0029436 0.0061100 -0.0013964
v 0.0031299 0.0061100 -0.0009084
v 0.0031664 0.0061100 -0.0007222
v 0.0032328 0.0061100 -0.0003935
v 0.0032494 0.0061100 -0.0000019
v 0.0032560 0.0061100 0.0001309
v 0.0031929 0.0061100 0.0006524
v 0.0031697 0.0061100 0.0007222
v 0.0030465 0.0061100 0.0011541
v 0.0029270 0.0061100 0.0014097
v 0.0028208 0.0061100 0.0016287
v 0.0025453 0.0061100 0.0020304
v 0.0025220 0.0061100 0.0020602
v 0.0021602 0.0061100 0.0024390
v 0.0020237 0.0061100 0.0025386
v 0.0017416 0.0061100 0.0027544
v 0.0014097 0.0061100 0.0029270
v 0.0012769 0.0061100 0.0029967
v 0.0007786 0.0061100 0.0031631
v 0.0007222 0.0061100 0.0031730
v 0.0002608 0.0061100 0.0032460
v -0.0000019 0.0061100 0.0032460
v -0.0002641 0.0061100 0.0032460
v -0.0007255 0.0061100 0.0031730
v -0.0007819 0.0061100 0.0031631
v -0.0012769 0.0061100 0.0029967
v -0.0014097 0.0061100 0.0029270
v -0.0017416 0.0061100 0.0027544
v -0.0020275 0.0061100 0.0025386
v -0.0021602 0.0061100 0.0024390
v -0.0025253 0.0061100 0.0020602
v -0.0025453 0.0061100 0.0020304
v -0.0028245 0.0061100 0.0016287
v -0.0029274 0.0061100 0.0014097
v -0.0030469 0.0061100 0.0011541
v -0.0031730 0.0061100 0.0007222
v -0.0031929 0.0061100 0.0006524
v -0.0032560 0.0061100 0.0001309
v -0.0032527 0.0061100 -0.0000019
v -0.0032361 0.0061100 -0.0003935
v -0.0031697 0.0061100 -0.0007222
v -0.0031299 0.0061100 -0.0009084
v -0.0029440 0.0061100 -0.0013964
v 0.0017416 0.0061100 0.0027544
v 0.0014097 0.0061100 0.0029270
v 0.0014130 0.0055623 0.0029336
v 0.0012769 0.0061100 0.0029967
v 0.0007786 0.0061100 0.0031631
v 0.0007255 0.0055623 0.0031763
v 0.0007222 0.0061100 0.0031730
v 0.0002608 0.0061100 0.0032460
v -0.0000019 0.0055623 0.0032593
v -0.0000019 0.0061100 0.0032460
v -0.0002641 0.0061100 0.0032460
v -0.0007255 0.0055623 0.0031763
v -0.0007255 0.0061100 0.0031730
v -0.0007819 0.0061100 0.0031631
v -0.0012769 0.0061100 0.0029967
v -0.0014130 0.0055623 0.0029336
v -0.0014097 0.0061100 0.0029270
v -0.0020341 0.0055623 0.0025453
v -0.0017416 0.0061100 0.0027544
v -0.0020275 0.0061100 0.0025386
v -0.0021602 0.0061100 0.0024390
v -0.0025253 0.0061100 0.0020602
v -0.0025486 0.0055623 0.0020304
v -0.0025453 0.0061100 0.0020304
v -0.0028245 0.0061100 0.0016287
v -0.0029374 0.0055623 0.0014130
v -0.0029274 0.0061100 0.0014097
v -0.0030469 0.0061100 0.0011541
v -0.0031763 0.0055623 0.0007255
v -0.0031730 0.0061100 0.0007222
v -0.0031929 0.0061100 0.0006524
v -0.0032560 0.0061100 0.0001309
v -0.0032593 0.0055623 -0.0000019
v -0.0032527 0.0061100 -0.0000019
v -0.0031763 0.0055623 -0.0007255
v -0.0032361 0.0061100 -0.0003935
v -0.0031697 0.0061100 -0.0007222
v -0.0031299 0.0061100 -0.0009084
v -0.0029440 0.0061100 -0.0013964
v -0.0029374 0.0055623 -0.0014130
v -0.0029340 0.0061100 -0.0014130
v -0.0026814 0.0061100 -0.0018515
v -0.0025486 0.0055623 -0.0020341
v -0.0025419 0.0061100 -0.0020275
v -0.0023494 0.0061100 -0.0022565
v -0.0020341 0.0055623 -0.0025486
v -0.0020275 0.0061100 -0.0025453
v -0.0019578 0.0061100 -0.0026050
v -0.0015159 0.0061100 -0.0028876
v -0.0014130 0.0055623 -0.0029374
v -0.0014130 0.0061100 -0.0029307
v -0.0007255 0.0055623 -0.0031763
v -0.0010313 0.0061100 -0.0030934
v -0.0007222 0.0061100 -0.0031664
v -0.0005230 0.0061100 -0.0032162
v -0.0000019 0.0055623 -0.0032593
v -0.0000019 0.0061100 -0.0032593
v 0.0005230 0.0061100 -0.0032162
v 0.0007255 0.0055623 -0.0031763
v 0.0007222 0.0061100 -0.0031664
v 0.0010308 0.0061100 -0.0030934
v 0.0014130 0.0055623 -0.0029374
v 0.0014097 0.0061100 -0.0029307
v 0.0015126 0.0061100 -0.0028876
v 0.0019573 0.0061100 -0.0026050
v 0.0020304 0.0055623 -0.0025486
v 0.0020270 0.0061100 -0.0025453
v 0.0023494 0.0061100 -0.0022565
v 0.0025453 0.0055623 -0.0020341
v 0.0025386 0.0061100 -0.0020275
v 0.0026814 0.0061100 -0.0018515
v 0.0029336 0.0055623 -0.0014130
v 0.0029336 0.0061100 -0.0014130
v 0.0029436 0.0061100 -0.0013964
v 0.0031299 0.0061100 -0.0009084
v 0.0031763 0.0055623 -0.0007255
v 0.0031664 0.0061100 -0.0007222
v 0.0032328 0.0061100 -0.0003935
v 0.0032593 0.0055623 -0.0000019
v 0.0032494 0.0061100 -0.0000019
v 0.0032560 0.0061100 0.0001309
v 0.0031929 0.0061100 0.0006524
v 0.0031763 0.0055623 0.0007255
v 0.0031697 0.0061100 0.0007222
v 0.0030465 0.0061100 0.0011541
v 0.0029336 0.0055623 0.0014130
v 0.0029270 0.0061100 0.0014097
v 0.0028208 0.0061100 0.0016287
v 0.0025453 0.0055623 0.0020304
v 0.0025453 0.0061100 0.0020304
v 0.0025220 0.0061100 0.0020602
v 0.0021602 0.0061100 0.0024390
v 0.0020304 0.0055623 0.0025453
v 0.0020237 0.0061100 0.0025386
vn -0.9950478 0.0993972 0.0
vn -0.9930472 0.1177169 0.0
vn -0.9845578 0.1750601 0.0
vn 0.0 0.1074829 0.9942069
vn -0.0097207 0.1029714 0.9946368
vn 0.0 0.1702398 0.9854027
vn -0.0331569 0.1703667 0.9848227
vn 0.0 0.0 1.0
vn -0.0899622 0.0 0.9959452
vn -1.0 0.0 0.0
vn -0.0240369 0.093004 -0.9953756
vn 0.0 0.1199451 -0.9927805
vn -0.0130221 0.1751957 -0.9844475
vn 0.0 0.1752105 -0.984531
vn -0.3234985 0.0 0.9462287
vn -0.3526244 0.114322 0.9287553
vn -0.5700027 0.0002457 0.8216428
vn -0.6699043 0.1114274 0.7340382
vn -0.7859655 0.0 0.6182703
vn -0.8988285 0.0 0.4383005
vn -0.9059411 0.112704 0.4081281
vn -0.9984414 0.0 0.0558093
vn -0.9952946 0.0944552 0.0216048
vn 0.0 0.0 -1.0
vn -0.0296632 0.0 -0.99956
vn -0.4181143 0.1736554 0.8916413
vn -0.7239114 0.1744615 0.6674694
vn -0.9256453 0.173462 0.336291
vn -0.9844471 0.1751956 0.0130508
vn -0.3408323 0.1732898 -0.9240151
vn -0.4243734 0.1233784 -0.8970423
vn -0.6604296 0.1748861 -0.730238
vn -0.7414432 0.104827 -0.6627769
vn -0.8970371 0.1729554 -0.4067075
vn -0.9381671 0.1224262 -0.3238122
vn -0.9838607 0.1750157 -0.0372495
vn -0.9943198 0.1059896 -0.0097132
vn 0.9854027 0.1702398 0.0
vn 0.9853444 0.1702297 -0.0108726
vn 0.9931866 0.116535 0.0
vn 0.9955916 0.0917018 -0.0197011
vn -0.9927698 0.1200338 0.0
vn -0.984531 0.1752105 0.0
vn -0.208272 -0.0005145 -0.9780708
vn -0.4937842 0.0 -0.8695845
vn -0.667658 0.0 -0.7444682
vn -0.8509789 -0.0013736 -0.5251981
vn -0.9702221 0.0 -0.2422172
vn -0.9983591 0.0 -0.0572639
vn -0.9938561 0.1106801 0.0
vn 0.0 0.1750601 -0.9845578
vn 0.0 0.1161896 -0.9932271
vn 0.0 0.101859 -0.9947988
vn 0.9959238 0.0 -0.090199
vn 1.0 0.0 0.0
vn 0.9241805 0.172285 -0.3408933
vn 0.894874 0.1100354 -0.4325421
vn 0.7234091 0.1741903 -0.6680846
vn 0.6631293 0.1156894 -0.7395103
vn 0.4119758 0.1734222 -0.8945394
vn 0.3381723 0.1098739 -0.9346482
vn 0.0370946 0.1749543 -0.9838775
vn 0.0091461 0.1105534 -0.9938281
vn 0.0 0.1001457 -0.9949728
vn 0.0 1.0 0.0
vn 0.0108965 0.1702297 0.9853442
vn 0.3363547 0.1724002 0.9258205
vn 0.0196732 0.0918866 0.9955751
vn 0.4492107 0.1044051 0.8873045
vn 0.6750728 0.1737454 0.7170002
vn 0.7392005 0.124078 0.6619572
vn 0.8890224 0.1741153 0.4234655
vn 0.9270787 0.1126665 0.3575352
vn 0.9848347 0.1703244 0.0330189
vn 0.9945656 0.1036485 0.0098068
vn 0.9944575 0.1051397 0.0
vn 0.0 0.0974184 0.9952435
vn 0.0 0.1195477 0.9928285
vn 0.0 0.1750601 0.9845578
vn 0.9634485 0.0 -0.2678936
vn 0.8216407 -0.0022529 -0.5700013
vn 0.628654 0.0 -0.7776851
vn 0.4683915 0.0 -0.883521
vn 0.1949798 0.0 -0.9808073
vn 0.0296632 0.0 -0.99956
vn 0.9845578 0.1750601 0.0
vn 0.9934322 0.1144223 0.0
vn 0.9945749 0.1040233 0.0
vn 0.0 0.1165919 0.9931799
vn 0.1234421 0.0 0.9923518
vn 0.3849447 0.0 0.9229396
vn 0.6006424 0.0008141 0.7995174
vn 0.7771609 0.0 0.629302
vn 0.9417974 0.0 0.3361809
vn 0.999475 0.0 0.0323995
vn 0.0 -1.0 0.0
vn 0.9372147 0.0 0.348753
vn 0.7729101 0.0 0.6345156
vn 0.8935643 0.0 0.4489353
vn 0.6947277 0.0 0.7192728
vn 0.520922 0.0 0.8536043
vn 0.4257451 0.0 0.9048432
vn 0.2197758 0.0 0.9755504
vn 0.1096695 0.0 0.9939681
vn -0.1094275 0.0 0.9939948
vn -0.2188241 0.0 0.9757643
vn -0.4248891 0.0 0.9052454
vn -0.5219107 0.0 0.8530001
vn -0.6958376 0.0 0.7181992
vn -0.7718216 0.0 0.6358391
vn -0.8917793 0.0 0.4524706
vn -0.9364867 0.0 0.350703
vn -0.9906274 0.0 0.1365917
vn -0.999698 0.0 0.0245739
vn -0.98127 0.0 -0.1926374
vn -0.9546251 0.0 -0.2978101
vn -0.8671853 0.0 -0.4979856
vn -0.8059699 0.0 -0.5919565
vn -0.6574012 0.0 -0.7535408
vn -0.5687573 0.0 -0.8225054
vn -0.374605 0.0 -0.9271845
vn -0.2708003 0.0 -0.9626356
vn -0.0558426 0.0 -0.9984396
vn 0.0558239 0.0 -0.9984406
vn 0.2701164 0.0 -0.9628277
vn 0.3731313 0.0 -0.9277786
vn 0.5678431 0.0 -0.8231368
vn 0.6583666 0.0 -0.7526975
vn 0.8067697 0.0 -0.590866
vn 0.8661095 0.0 -0.4998543
vn 0.9539904 0.0 -0.2998371
vn 0.9816887 0.0 -0.190492
vn 0.9995787 0.0 0.0290261
vn 0.9903238 0.0 0.1387762
vn -0.1805145 0.9792473 0.0921374
vn -0.1861347 0.9789029 0.0842796
vn -0.1586184 0.9847984 0.0707983
vn -0.1385473 0.9867525 0.0844045
vn -0.1607348 0.9816789 0.1023268
vn -0.1221039 0.9878865 0.0957648
vn -0.1168502 0.9883149 0.0978757
vn -0.1423134 0.9820683 0.1236479
vn -0.0913068 0.9885924 0.1197841
vn -0.1079653 0.9889806 0.1012956
vn -0.1182639 0.9829909 0.1405081
vn -0.097839 0.9892046 0.1090949
vn -0.1207285 0.9884993 0.0910705
vn -0.2390513 0.963396 0.1213367
vn -0.0977265 0.9885313 0.1151319
vn -0.0903929 0.9878923 0.126087
vn -0.0986536 0.9812816 0.1653903
vn -0.0910646 0.9820495 0.165185
vn -0.1542019 0.9809845 0.1178606
vn -0.0414785 0.9858604 0.162354
vn -0.0527624 0.9866747 0.1539125
vn -0.0698268 0.9769113 0.2019124
vn 0.0838859 0.9804078 0.1782236
vn 0.0888504 0.9790946 0.1829738
vn 0.0426898 0.9858101 0.1623457
vn 0.0919068 0.987239 0.1300471
vn 0.1079587 0.9818561 0.1558961
vn 0.0963912 0.9884327 0.1170878
vn 0.0912994 0.9884517 0.1209447
vn 0.1275286 0.9827422 0.1339931
vn 0.1227845 0.9883051 0.0904265
vn 0.1040519 0.989114 0.1040519
vn 0.1183436 0.9883741 0.0954534
vn 0.1057151 0.9887092 0.1062
vn 0.1459526 0.9824768 0.1159192
vn 0.1063091 0.9884963 0.1075798
vn 0.1247654 0.9881456 0.0894534
vn 0.1699337 0.9808468 0.0951952
vn 0.1295271 0.9875314 0.0894679
vn 0.1518006 0.9856213 0.0742113
vn 0.182068 0.9790853 0.0907928
vn 0.1599189 0.985966 0.0479275
vn 0.2050964 0.9766478 0.0639879
vn 0.179598 0.9803957 -0.0810484
vn 0.1777435 0.979707 -0.0926361
vn 0.1508402 0.9863451 -0.0661098
vn 0.1241553 0.9881682 -0.0900502
vn 0.1512554 0.9821704 -0.1116381
vn 0.1210051 0.9890188 -0.0848507
vn 0.1186646 0.9886292 -0.0923636
vn 0.1300401 0.9828352 -0.1308611
vn 0.0915254 0.9887316 -0.1184604
vn 0.1041122 0.9891013 -0.1041122
vn 0.1165751 0.9889976 -0.0910715
vn 0.0922553 0.9885563 -0.1193542
vn 0.1106939 0.9816481 -0.1552864
vn 0.0874469 0.9815568 -0.1699982
vn 0.0938869 0.988064 -0.1221258
vn 0.0831151 0.986682 -0.1398233
vn 0.0663096 0.9855003 -0.1561801
vn 0.091854 0.9777364 -0.1886648
vn 0.0256012 0.9876793 -0.154383
vn 0.0466942 0.9760239 -0.2125957
vn -0.1359826 0.9757444 -0.1715566
vn -0.0793802 0.9787611 -0.1890121
vn -0.0620232 0.985375 -0.1587112
vn -0.0817024 0.9866016 -0.1412163
vn -0.0978937 0.9803375 -0.1713336
vn -0.0853121 0.9882853 -0.1265462
vn -0.1155585 0.9824851 -0.1461825
vn -0.0907959 0.9884813 -0.121082
vn -0.1063166 0.9887037 -0.1056493
vn -0.0905552 0.989134 -0.1158173
vn -0.090377 0.9887793 -0.1189431
vn -0.1170662 0.9883796 -0.0969598
vn -0.1889246 0.9782903 -0.0851796
vn -0.1554681 0.9861903 -0.0570814
vn -0.1614763 0.9826375 -0.0913721
vn -0.1509666 0.9861007 -0.0693871
vn -0.1145985 0.9856045 -0.1243022
vn -0.1243825 0.9883493 -0.0877191
vn -0.1595048 0.9817451 -0.1036091
vn -0.1365382 0.9829213 -0.1233818
vn -0.111553 0.9891179 -0.095926
vn -0.1846182 0.9674805 -0.1729093
vn -0.1539271 0.9674808 -0.200717
vn -0.1203051 0.9675651 -0.2221359
vn -0.0900275 0.9660344 -0.2422243
vn -0.0499944 0.977248 -0.2061233
vn -0.0433862 0.9680034 -0.2471578
vn -0.0258483 0.9780978 -0.2065344
vn -0.0065705 0.9775073 -0.2107992
vn -0.0017635 0.9673634 -0.2533868
vn 0.0305854 0.9772668 -0.2097956
vn 0.0353544 0.9661735 -0.2554581
vn 0.0745947 0.9683779 -0.2380755
vn 0.1145044 0.9674845 -0.2255273
vn 0.1487184 0.96752 -0.2044208
vn 0.1794715 0.967596 -0.1776173
vn 0.2064974 0.9675067 -0.1459099
vn 0.2267438 0.9673103 -0.1135692
vn 0.1947601 0.9771242 -0.0854218
vn 0.244386 0.9668889 -0.0734939
vn 0.2152008 0.976127 -0.0294067
vn 0.2101492 0.9770742 -0.0341085
vn 0.2528729 0.9668681 -0.0349484
vn 0.2132052 0.9769539 -0.0102279
vn 0.2532103 0.9673809 0.0076638
vn 0.2128922 0.9767581 0.0249116
vn 0.2110162 0.9767553 0.0377003
vn 0.2552384 0.9658129 0.0453748
vn 0.2349465 0.9682794 0.0850597
vn 0.2204978 0.9674981 0.1238069
vn 0.1981398 0.9675242 0.1569633
vn 0.1697341 0.9675216 0.1873294
vn 0.1377949 0.9675366 0.2118618
vn 0.1064858 0.9668581 0.232048
vn 0.0680737 0.9770701 0.2017425
vn 0.0619929 0.9673669 0.2456791
vn 0.0234423 0.9772309 0.2108796
vn 0.032257 0.9775731 0.2081115
vn 0.0266197 0.966623 0.2548163
vn 0.0 0.9772422 0.2121264
vn -0.0172733 0.9678004 0.2511253
vn -0.0310078 0.9776774 0.2078111
vn -0.0427243 0.977146 0.2082316
vn -0.0562135 0.9657827 0.2531873
vn -0.0944979 0.9683191 0.2311455
vn -0.1323339 0.9675207 0.2153868
vn -0.1650269 0.9674207 0.1919983
vn -0.1934309 0.9674898 0.1629351
vn -0.2174782 0.9674897 0.1291006
vn -0.2378163 0.9664102 0.0974412
vn -0.2049186 0.9769031 0.0605695
vn -0.2472374 0.9674749 0.0535348
vn -0.2099291 0.9772656 0.0296951
vn -0.2110429 0.977128 0.0261114
vn -0.2575513 0.9661299 0.0161335
vn -0.2125095 0.9770902 -0.0115989
vn -0.2504386 0.9677874 -0.0258465
vn -0.2091614 0.9775211 -0.0265342
vn -0.2077045 0.9768307 -0.0515814
vn -0.2527231 0.9652374 -0.0666924
vn -0.227244 0.9682663 -0.1040217
vn -0.210257 0.9674803 -0.1406196
vn -0.2663198 0.9464349 -0.1825779
vn -0.2299086 0.9464111 -0.2268218
vn -0.1866586 0.949255 -0.2531275
vn -0.1511976 0.9469129 -0.2837169
vn -0.1004635 0.9464906 -0.3066963
vn -0.049797 0.9484849 -0.3128844
vn -0.0033428 0.9471851 -0.32067
vn 0.0511307 0.9463784 -0.3189885
vn 0.1054972 0.9465693 -0.304757
vn 0.1476707 0.949246 -0.2777147
vn 0.1908957 0.9469363 -0.2585933
vn 0.2338974 0.9464058 -0.2227288
vn 0.269045 0.9464981 -0.1782023
vn 0.2842397 0.9497203 -0.1312978
vn 0.3097523 0.9465029 -0.0904747
vn 0.321205 0.9463557 -0.0351883
vn 0.3146464 0.949108 0.0138462
vn 0.3152585 0.9469732 0.0620788
vn 0.3014869 0.9464565 0.1154374
vn 0.2767612 0.9465089 0.1659038
vn 0.2409489 0.9495115 0.2009266
vn 0.214459 0.9465065 0.2411072
vn 0.1703284 0.9465411 0.2739493
vn 0.1225528 0.9489445 0.2906632
vn 0.078927 0.9469622 0.3115014
vn 0.0249972 0.9463851 0.3220721
vn -0.0302654 0.9463872 0.3216136
vn -0.0776226 0.9494571 0.304148
vn -0.1258022 0.9466217 0.2967847
vn -0.175061 0.946461 0.2712289
vn -0.209977 0.9487985 0.2359896
vn -0.2467247 0.9470392 0.2055325
vn -0.2794458 0.9465147 0.1613071
vn -0.3035253 0.9464803 0.1097613
vn -0.3084365 0.9493354 0.0602423
vn -0.3218537 0.9466785 0.0144938
vn -0.3198445 0.9465937 -0.0407412
vn -0.3033175 0.9487467 -0.0887593
vn -0.2912903 0.9470551 -0.1350428
vn -0.3041512 0.9364201 -0.1749556
vn -0.2952926 0.936643 -0.1884202
vn -0.2712876 0.9365856 -0.2218343
vn -0.2488881 0.9364402 -0.2472538
vn -0.2328437 0.9364066 -0.2625385
vn -0.1916846 0.936666 -0.2931107
vn -0.1792192 0.9370229 -0.2997809
vn -0.1371217 0.9367176 -0.3221144
vn -0.112755 0.937058 -0.3304672
vn -0.083043 0.9363381 -0.3411374
vn -0.0385514 0.936678 -0.3480635
vn 0.0079223 0.936898 -0.349513
vn 0.044549 0.9367202 -0.3472327
vn 0.0827631 0.936402 -0.3410302
vn 0.1132652 0.9370284 -0.3303768
vn 0.13798 0.9366768 -0.3218666
vn 0.1816642 0.936729 -0.2992272
vn 0.1943024 0.9364757 -0.2919928
vn 0.2328458 0.9363951 -0.2625779
vn 0.2494556 0.9364962 -0.2464687
vn 0.2716783 0.9363613 -0.2223025
vn 0.2946306 0.9366562 -0.1893883
vn 0.3042898 0.9363879 -0.1748869
vn 0.326987 0.936588 -0.1260251
vn 0.3319734 0.9368875 -0.1097058
vn 0.3441292 0.9363799 -0.0690487
vn 0.3478369 0.9366979 -0.0400812
vn 0.3505077 0.9364429 -0.0147997
vn 0.3479807 0.9368637 0.0345801
vn 0.3460455 0.9368574 0.0505052
vn 0.3373982 0.9362754 0.0977286
vn 0.330181 0.9366933 0.1165599
vn 0.3158645 0.9366979 0.151085
vn 0.2975285 0.9370168 0.1829654
vn 0.2884261 0.9366722 0.1986341
vn 0.2537707 0.9365516 0.2418088
vn 0.2418104 0.9370644 0.251869
vn 0.2109855 0.9365425 0.2799523
vn 0.1865049 0.9371702 0.2948353
vn 0.1625107 0.9365977 0.3104433
vn 0.1181765 0.9366367 0.3297666
vn 0.1061384 0.9365968 0.3339478
vn 0.0554151 0.9365277 0.3461865
vn 0.0351029 0.9367658 0.3481919
vn 0.0 0.9364005 0.3509333
vn -0.035127 0.9367657 0.3481899
vn -0.0554151 0.9365277 0.3461865
vn -0.1085411 0.9364348 0.3336297
vn -0.1234519 0.936484 0.328264
vn -0.1632662 0.9364449 0.3105077
vn -0.1856841 0.9371698 0.2953543
vn -0.2106237 0.9367673 0.2794722
vn -0.2456417 0.9369075 0.248726
vn -0.2547475 0.9367271 0.2400961
vn -0.2879178 0.936643 0.1995074
vn -0.2973099 0.937075 0.1830225
vn -0.3170373 0.9366048 0.149194
vn -0.3295527 0.9367684 0.1177282
vn -0.3365638 0.9366163 0.0973384
vn -0.3468785 0.9367932 0.0457589
vn -0.3480066 0.9369524 0.0318062
vn -0.3491308 0.9369765 -0.0135193
vn -0.3463023 0.9372739 -0.0399043
vn -0.3426038 0.9368713 -0.0699629
vn -0.3300826 0.936787 -0.1160846
vn -0.326548 0.93664 -0.1267752
vn 0.5334395 -0.0136197 0.8457286
vn 0.4622958 0.0134696 0.8866235
vn 0.4166625 -0.0188038 0.9088668
vn 0.3503154 -0.0208306 0.9364001
vn 0.319565 -0.0172523 0.9474073
vn 0.2068249 -0.0129015 0.9782929
vn 0.1580834 0.0069018 0.9874016
vn 0.1068557 -0.0085947 0.9942374
vn 0.0 -0.0159721 0.9998724
vn 0.0 0.0242762 0.9997053
vn -0.1071692 -0.0089417 0.9942006
vn -0.2307808 -0.0173167 0.9728516
vn -0.1580844 0.0059493 0.9874077
vn -0.3045331 -0.0084045 0.9524647
vn -0.3420217 -0.0157738 0.9395596
vn -0.4371983 -0.0044004 0.8993544
vn -0.5021342 -0.0180681 0.8646009
vn -0.6180255 -0.0133492 0.7860447
vn -0.5318352 -0.0389388 0.8459522
vn -0.601682 0.0170192 0.7985544
vn -0.6927846 -0.0195924 0.7208783
vn -0.7162083 -0.0172653 0.697673
vn -0.7926399 -0.0148726 0.6095086
vn -0.8217637 0.0049513 0.5698069
vn -0.848824 -0.0128987 0.5285182
vn -0.9021357 -0.0204652 0.4309669
vn -0.9053444 0.0190861 0.424249
vn -0.943106 -0.0108179 0.3323163
vn -0.9769448 -0.0175284 0.2127713
vn -0.9601424 0.0074686 0.2794116
vn -0.9902265 -0.0114608 0.1389968
vn -0.9945823 -0.015495 0.102791
vn -0.999992 -0.0034235 -0.0020836
vn -0.996459 -0.0178644 -0.08216
vn -0.9755696 -0.0135302 -0.2192737
vn -0.9926688 -0.0390465 -0.114385
vn -0.9793022 0.013018 -0.2019846
vn -0.9479622 -0.025666 -0.3173466
vn -0.9393246 -0.0170816 -0.3426041
vn -0.8926677 -0.0097139 -0.4506107
vn -0.8661382 0.0053768 -0.4997756
vn -0.8452868 -0.0098631 -0.5342218
vn -0.7800574 -0.0171202 -0.6254737
vn -0.7732484 0.0170975 -0.6338727
vn -0.7082511 -0.0077206 -0.7059184
vn -0.6145877 -0.0151978 -0.7887021
vn -0.6647498 0.0125111 -0.7469613
vn -0.5560682 -0.0081173 -0.831097
vn -0.5224532 -0.0156845 -0.8525237
vn -0.4292288 -0.0044174 -0.903185
vn -0.3546694 -0.018661 -0.9348055
vn -0.2551888 -0.0154424 -0.9667679
vn -0.322698 -0.0370204 -0.9457777
vn -0.2347914 0.0189816 -0.9718604
vn -0.1209194 -0.0124605 -0.9925841
vn -0.0 -0.0177508 -0.9998424
vn 0.1202953 -0.0125855 -0.9926584
vn 0.2252908 -0.0210209 -0.9740648
vn 0.2350098 0.018982 -0.9718076
vn 0.326251 -0.0120124 -0.9452068
vn 0.4472703 -0.0178796 -0.8942201
vn 0.3927769 0.0136152 -0.919533
vn 0.5111353 -0.0148116 -0.8593727
vn 0.5425305 -0.0162153 -0.8398796
vn 0.634538 -0.0163301 -0.7727191
vn 0.6643036 0.0086272 -0.7474131
vn 0.7090519 -0.0111543 -0.7050681
vn 0.7800284 -0.0207505 -0.6253999
vn 0.7732484 0.0170975 -0.6338727
vn 0.8444992 -0.0143589 -0.5353644
vn 0.9015409 -0.0203995 -0.4322127
vn 0.8664802 0.0 -0.4992114
vn 0.9319461 -0.0060274 -0.3625466
vn 0.9461219 -0.0156207 -0.3234337
vn 0.9759491 -0.0188554 -0.2171816
vn 0.9804348 0.0189025 -0.1959346
vn 0.9934282 -0.0075087 -0.1142109
vn 0.9997567 -0.0152075 0.0159759
vn 0.99886 0.018055 -0.0441906
vn 0.9961825 -0.0148555 0.0860222
vn 0.9917217 -0.0166543 0.1273212
vn 0.9708571 -0.01572 0.2391431
vn 0.9598792 0.0132546 0.2801003
vn 0.9429016 -0.011826 0.3328614
vn 0.9007798 -0.0231242 0.43366
vn 0.9030001 0.0134689 0.4294292
vn 0.8490704 -0.0154233 0.5280545
vn 0.7787983 -0.0206194 0.6269354
vn 0.8221305 0.0 0.5692991
vn 0.7277093 -0.0063591 0.6858562
vn 0.6999693 -0.0160493 0.7139926
vn 0.6176786 -0.0223403 0.7861133
vn 0.6016808 0.017129 0.7985529
f 1//1 2//2 3//3
f 2//2 4//3 3//3
f 5//4 6//5 7//6
f 6//5 8//7 7//6
f 9//8 10//8 11//4
f 11//4 10//8 12//5
f 10//8 13//8 12//5
f 13//8 14//8 12//5
f 14//8 15//8 12//5
f 15//8 16//9 12//5
f 17//10 18//2 19//10
f 19//10 18//2 20//10
f 20//10 18//2 21//10
f 21//10 18//2 22//10
f 18//2 23//1 22//10
f 22//10 23//1 24//10
f 23//1 25//10 24//10
f 26//11 27//12 28//13
f 27//12 29//14 28//13
f 30//9 31//15 32//5
f 32//5 31//15 33//16
f 31//15 34//17 33//16
f 33//16 34//17 35//18
f 34//17 36//19 35//18
f 36//19 37//20 35//18
f 35//18 37//20 38//21
f 37//20 39//22 38//21
f 39//22 40//23 38//21
f 41//24 42//12 43//24
f 43//24 42//12 44//24
f 44//24 42//12 45//24
f 42//12 46//11 45//24
f 45//24 46//11 47//24
f 46//11 48//25 47//24
f 49//5 50//16 51//7
f 51//7 50//16 52//26
f 50//16 53//18 52//26
f 52//26 53//18 54//27
f 53//18 55//21 54//27
f 54//27 55//21 56//28
f 55//21 57//23 56//28
f 57//23 58//29 56//28
f 59//13 60//30 61//11
f 61//11 60//30 62//31
f 60//30 63//32 62//31
f 62//31 63//32 64//33
f 63//32 65//34 64//33
f 64//33 65//34 66//35
f 65//34 67//36 66//35
f 67//36 68//37 66//35
f 69//38 70//39 71//40
f 70//39 72//41 71//40
f 73//23 74//42 75//29
f 74//42 76//43 75//29
f 77//22 78//10 79//23
f 78//10 80//10 79//23
f 79//23 80//10 81//42
f 82//10 81//42 83//10
f 83//10 81//42 84//10
f 81//42 80//10 84//10
f 85//25 86//11 87//44
f 86//11 88//31 87//44
f 87//44 88//31 89//45
f 88//31 90//33 89//45
f 89//45 90//33 91//46
f 91//46 90//33 92//47
f 90//33 93//35 92//47
f 92//47 93//35 94//48
f 93//35 95//37 94//48
f 95//37 96//49 94//48
f 97//36 98//43 99//37
f 98//43 100//50 99//37
f 101//51 102//51 103//52
f 102//51 104//53 103//52
f 105//54 106//55 107//41
f 106//55 108//55 107//41
f 108//55 109//55 107//41
f 107//41 109//55 110//40
f 111//55 110//40 112//55
f 110//40 109//55 112//55
f 113//39 114//56 115//41
f 115//41 114//56 116//57
f 114//56 117//58 116//57
f 116//57 117//58 118//59
f 117//58 119//60 118//59
f 118//59 119//60 120//61
f 119//60 121//62 120//61
f 121//62 122//63 120//61
f 123//62 124//14 125//63
f 124//14 126//64 125//63
f 127//65 128//65 129//65
f 128//65 130//65 129//65
f 129//65 130//65 131//65
f 130//65 132//65 131//65
f 132//65 133//65 131//65
f 133//65 134//65 131//65
f 135//65 136//65 137//65
f 137//65 136//65 138//65
f 139//65 140//65 141//65
f 140//65 142//65 141//65
f 141//65 142//65 143//65
f 142//65 144//65 143//65
f 144//65 145//65 143//65
f 145//65 138//65 143//65
f 138//65 136//65 143//65
f 136//65 146//65 143//65
f 146//65 147//65 143//65
f 143//65 147//65 148//65
f 147//65 149//65 148//65
f 148//65 149//65 150//65
f 149//65 131//65 150//65
f 150//65 131//65 151//65
f 151//65 131//65 152//65
f 131//65 134//65 152//65
f 153//65 152//65 154//65
f 152//65 134//65 154//65
f 155//66 156//67 157//68
f 157//68 156//67 158//69
f 156//67 159//70 158//69
f 158//69 159//70 160//71
f 159//70 161//72 160//71
f 160//71 161//72 162//73
f 161//72 163//74 162//73
f 163//74 164//75 162//73
f 165//74 166//38 167//75
f 166//38 168//76 167//75
f 169//77 170//78 171//79
f 171//79 170//78 172//79
f 173//8 174//8 175//77
f 174//8 176//8 175//77
f 175//77 176//8 177//78
f 178//8 177//78 179//8
f 177//78 176//8 179//8
f 180//49 181//37 182//10
f 182//10 181//37 183//10
f 183//10 181//37 184//10
f 184//10 181//37 185//10
f 181//37 186//50 185//10
f 186//50 187//10 185//10
f 188//24 189//24 190//53
f 189//24 191//24 190//53
f 190//53 191//24 192//52
f 193//24 192//52 194//24
f 194//24 192//52 195//24
f 195//24 192//52 196//24
f 192//52 191//24 196//24
f 197//41 198//57 199//54
f 199//54 198//57 200//80
f 200//80 198//57 201//81
f 198//57 202//59 201//81
f 201//81 202//59 203//82
f 202//59 204//61 203//82
f 203//82 204//61 205//83
f 205//83 204//61 206//84
f 204//61 207//63 206//84
f 207//63 208//85 206//84
f 209//85 210//63 211//24
f 211//24 210//63 212//24
f 212//24 210//63 213//24
f 210//63 214//64 213//24
f 213//24 214//64 215//24
f 214//64 216//24 215//24
f 217//86 218//86 219//87
f 218//86 220//88 219//87
f 221//6 222//66 223//89
f 222//66 224//68 223//89
f 225//68 226//69 227//90
f 227//90 226//69 228//91
f 228//91 226//69 229//92
f 226//69 230//71 229//92
f 229//92 230//71 231//93
f 230//71 232//73 231//93
f 231//93 232//73 233//94
f 232//73 234//75 233//94
f 234//75 235//95 233//94
f 236//55 237//55 238//76
f 237//55 239//55 238//76
f 238//76 239//55 240//75
f 241//95 240//75 242//55
f 242//55 240//75 243//55
f 240//75 239//55 243//55
f 244//96 245//96 246//96
f 246//96 245//96 247//96
f 247//96 245//96 248//96
f 248//96 245//96 249//96
f 249//96 245//96 250//96
f 250//96 245//96 251//96
f 251//96 245//96 252//96
f 252//96 245//96 253//96
f 253//96 245//96 254//96
f 254//96 245//96 255//96
f 255//96 245//96 256//96
f 256//96 245//96 257//96
f 257//96 245//96 258//96
f 258//96 245//96 259//96
f 259//96 245//96 260//96
f 260//96 245//96 261//96
f 261//96 245//96 262//96
f 262//96 245//96 263//96
f 245//96 244//96 263//96
f 264//55 265//87 266//55
f 266//55 265//87 267//55
f 267//55 265//87 268//55
f 268//55 265//87 269//55
f 265//87 270//88 269//55
f 269//55 270//88 271//55
f 270//88 272//55 271//55
f 273//90 274//8 275//68
f 274//8 276//8 275//68
f 276//8 277//8 275//68
f 275//68 277//8 278//89
f 279//8 278//89 280//8
f 278//89 277//8 280//8
f 281//97 282//98 283//99
f 283//99 282//98 284//100
f 282//98 285//101 284//100
f 284//100 285//101 286//102
f 285//101 287//103 286//102
f 286//102 287//103 288//104
f 287//103 289//105 288//104
f 288//104 289//105 290//106
f 289//105 291//107 290//106
f 290//106 291//107 292//108
f 291//107 293//109 292//108
f 292//108 293//109 294//110
f 293//109 295//111 294//110
f 294//110 295//111 296//112
f 295//111 297//113 296//112
f 296//112 297//113 298//114
f 297//113 299//115 298//114
f 298//114 299//115 300//116
f 299//115 301//117 300//116
f 300//116 301//117 302//118
f 301//117 303//119 302//118
f 302//118 303//119 304//120
f 303//119 305//121 304//120
f 304//120 305//121 306//122
f 305//121 307//123 306//122
f 306//122 307//123 308//124
f 307//123 309//125 308//124
f 308//124 309//125 310//126
f 309//125 311//127 310//126
f 310//126 311//127 312//128
f 311//127 313//129 312//128
f 312//128 313//129 314//130
f 313//129 315//131 314//130
f 314//130 315//131 316//132
f 315//131 317//133 316//132
f 316//132 317//133 318//134
f 317//133 281//97 318//134
f 281//97 283//99 318//134
f 319//96 320//96 321//96
f 321//96 320//96 322//96
f 322//96 320//96 323//96
f 320//96 324//96 323//96
f 323//96 324//96 325//96
f 324//96 326//96 325//96
f 325//96 326//96 327//96
f 327//96 326//96 328//96
f 326//96 329//96 328//96
f 328//96 329//96 330//96
f 329//96 331//96 330//96
f 330//96 331//96 332//96
f 332//96 331//96 333//96
f 331//96 334//96 333//96
f 333//96 334//96 335//96
f 334//96 336//96 335//96
f 335//96 336//96 337//96
f 337//96 336//96 338//96
f 336//96 339//96 338//96
f 338//96 339//96 340//96
f 339//96 341//96 340//96
f 340//96 341//96 342//96
f 341//96 343//96 342//96
f 342//96 343//96 344//96
f 344//96 343//96 345//96
f 343//96 346//96 345//96
f 345//96 346//96 347//96
f 346//96 348//96 347//96
f 347//96 348//96 349//96
f 349//96 348//96 350//96
f 348//96 351//96 350//96
f 350//96 351//96 352//96
f 351//96 353//96 352//96
f 352//96 353//96 354//96
f 354//96 353//96 355//96
f 353//96 356//96 355//96
f 355//96 356//96 357//96
f 356//96 358//96 357//96
f 357//96 358//96 359//96
f 359//96 358//96 360//96
f 358//96 361//96 360//96
f 360//96 361//96 362//96
f 361//96 363//96 362//96
f 362//96 363//96 364//96
f 364//96 363//96 365//96
f 363//96 319//96 365//96
f 319//96 321//96 365//96
f 366//135 367//136 368//137
f 368//137 367//136 369//138
f 367//136 370//139 369//138
f 369//138 370//139 371//140
f 371//140 370//139 372//141
f 370//139 373//142 372//141
f 372//141 373//142 374//143
f 374//143 373//142 375//144
f 373//142 376//145 375//144
f 375//144 376//145 377//146
f 377//146 376//145 378//147
f 379//148 378//147 380//149
f 378//147 376//145 380//149
f 380//149 376//145 381//150
f 376//145 382//151 381//150
f 382//151 383//152 381//150
f 381//150 383//152 384//153
f 384//153 383//152 385//154
f 385//154 383//152 386//155
f 386//155 383//152 387//156
f 388//157 389//158 390//159
f 390//159 389//158 391//160
f 389//158 392//161 391//160
f 391//160 392//161 393//162
f 393//162 392//161 394//163
f 392//161 395//164 394//163
f 394//163 395//164 396//165
f 396//165 395//164 397//166
f 398//65 397//166 399//167
f 397//166 395//164 399//167
f 399//167 395//164 400//168
f 395//164 401//169 400//168
f 400//168 401//169 402//170
f 402//170 401//169 403//171
f 401//169 404//172 403//171
f 403//171 404//172 405//173
f 405//173 404//172 406//174
f 404//172 407//175 406//174
f 406//174 407//175 408//176
f 408//176 407//175 409//177
f 410//178 411//179 412//180
f 412//180 411//179 413//181
f 411//179 414//182 413//181
f 413//181 414//182 415//183
f 415//183 414//182 416//184
f 414//182 417//185 416//184
f 416//184 417//185 418//186
f 418//186 417//185 419//187
f 420//65 419//187 421//188
f 419//187 417//185 421//188
f 421//188 417//185 422//189
f 417//185 423//190 422//189
f 423//190 424//191 422//189
f 422//189 424//191 425//192
f 425//192 424//191 426//193
f 426//193 424//191 427//194
f 424//191 428//195 427//194
f 427//194 428//195 429//196
f 429//196 428//195 430//197
f 431//198 432//199 433//200
f 433//200 432//199 434//201
f 432//199 435//202 434//201
f 434//201 435//202 436//203
f 435//202 437//204 436//203
f 436//203 437//204 438//205
f 438//205 437//204 439//206
f 440//207 441//208 442//209
f 443//210 444//211 445//212
f 444//211 446//213 445//212
f 446//213 447//214 445//212
f 447//214 448//215 445//212
f 445//212 448//215 449//216
f 449//216 448//215 450//217
f 448//215 442//209 450//217
f 442//209 441//208 450//217
f 441//208 451//218 450//217
f 451//218 439//206 450//217
f 439//206 437//204 450//217
f 450//217 437//204 452//219
f 452//219 437//204 453//220
f 437//204 435//202 453//220
f 453//220 435//202 454//221
f 435//202 432//199 454//221
f 454//221 432//199 455//222
f 432//199 431//198 455//222
f 431//198 456//223 455//222
f 455//222 456//223 457//224
f 456//223 458//225 457//224
f 458//225 459//226 457//224
f 457//224 459//226 460//227
f 459//226 461//228 460//227
f 460//227 461//228 462//229
f 462//229 461//228 463//230
f 461//228 430//197 463//230
f 430//197 428//195 463//230
f 428//195 424//191 463//230
f 463//230 424//191 464//231
f 424//191 423//190 464//231
f 464//231 423//190 465//232
f 423//190 417//185 465//232
f 465//232 417//185 466//233
f 417//185 414//182 466//233
f 466//233 414//182 467//234
f 414//182 411//179 467//234
f 467//234 411//179 468//235
f 411//179 410//178 468//235
f 410//178 469//236 468//235
f 468//235 469//236 470//237
f 469//236 471//238 470//237
f 471//238 472//239 470//237
f 470//237 472//239 473//240
f 472//239 474//241 473//240
f 473//240 474//241 475//242
f 474//241 476//243 475//242
f 476//243 477//244 475//242
f 475//242 477//244 478//245
f 478//245 477//244 479//246
f 477//244 409//177 479//246
f 409//177 407//175 479//246
f 407//175 404//172 479//246
f 479//246 404//172 480//247
f 404//172 401//169 480//247
f 480//247 401//169 481//248
f 401//169 395//164 481//248
f 481//248 395//164 482//249
f 395//164 392//161 482//249
f 482//249 392//161 483//250
f 392//161 389//158 483//250
f 483//250 389//158 484//251
f 389//158 388//157 484//251
f 388//157 485//252 484//251
f 484//251 485//252 486//253
f 485//252 487//254 486//253
f 487//254 488//255 486//253
f 486//253 488//255 489//256
f 488//255 490//257 489//256
f 489//256 490//257 491//258
f 490//257 492//259 491//258
f 492//259 493//260 491//258
f 491//258 493//260 494//261
f 494//261 493//260 495//262
f 493//260 387//156 495//262
f 387//156 383//152 495//262
f 383//152 382//151 495//262
f 495//262 382//151 496//263
f 382//151 376//145 496//263
f 496//263 376//145 497//264
f 376//145 373//142 497//264
f 497//264 373//142 498//265
f 373//142 370//139 498//265
f 498//265 370//139 499//266
f 370//139 367//136 499//266
f 499//266 367//136 500//267
f 367//136 366//135 500//267
f 366//135 501//268 500//267
f 500//267 501//268 502//269
f 501//268 503//270 502//269
f 503//270 504//271 502//269
f 502//269 504//271 505//272
f 504//271 506//273 505//272
f 505//272 506//273 507//274
f 506//273 508//275 507//274
f 508//275 509//276 507//274
f 507//274 509//276 510//277
f 510//277 509//276 511//278
f 509//276 443//210 511//278
f 443//210 445//212 511//278
f 445//212 449//216 511//278
f 511//278 449//216 512//279
f 449//216 450//217 512//279
f 450//217 452//219 512//279
f 512//279 452//219 513//280
f 513//280 452//219 514//281
f 452//219 453//220 514//281
f 514//281 453//220 515//282
f 453//220 454//221 515//282
f 515//282 454//221 516//283
f 454//221 455//222 516//283
f 516//283 455//222 517//284
f 455//222 457//224 517//284
f 517//284 457//224 518//285
f 457//224 460//227 518//285
f 518//285 460//227 519//286
f 460//227 462//229 519//286
f 519//286 462//229 520//287
f 462//229 463//230 520//287
f 520//287 463//230 521//288
f 463//230 464//231 521//288
f 521//288 464//231 522//289
f 464//231 465//232 522//289
f 522//289 465//232 523//290
f 465//232 466//233 523//290
f 523//290 466//233 524//291
f 466//233 467//234 524//291
f 524//291 467//234 525//292
f 467//234 468//235 525//292
f 525//292 468//235 526//293
f 468//235 470//237 526//293
f 526//293 470//237 527//294
f 470//237 473//240 527//294
f 527//294 473//240 528//295
f 473//240 475//242 528//295
f 528//295 475//242 529//296
f 475//242 478//245 529//296
f 529//296 478//245 530//297
f 478//245 479//246 530//297
f 530//297 479//246 531//298
f 479//246 480//247 531//298
f 531//298 480//247 532//299
f 480//247 481//248 532//299
f 532//299 481//248 533//300
f 481//248 482//249 533//300
f 533//300 482//249 534//301
f 482//249 483//250 534//301
f 534//301 483//250 535//302
f 483//250 484//251 535//302
f 535//302 484//251 536//303
f 484//251 486//253 536//303
f 536//303 486//253 537//304
f 486//253 489//256 537//304
f 537//304 489//256 538//305
f 489//256 491//258 538//305
f 538//305 491//258 539//306
f 491//258 494//261 539//306
f 539//306 494//261 540//307
f 494//261 495//262 540//307
f 540//307 495//262 541//308
f 495//262 496//263 541//308
f 541//308 496//263 542//309
f 496//263 497//264 542//309
f 542//309 497//264 543//310
f 497//264 498//265 543//310
f 543//310 498//265 544//311
f 498//265 499//266 544//311
f 544//311 499//266 545//312
f 499//266 500//267 545//312
f 545//312 500//267 546//313
f 500//267 502//269 546//313
f 546//313 502//269 547//314
f 502//269 505//272 547//314
f 547//314 505//272 548//315
f 505//272 507//274 548//315
f 548//315 507//274 549//316
f 507//274 510//277 549//316
f 549//316 510//277 550//317
f 510//277 511//278 550//317
f 550//317 511//278 551//318
f 511//278 512//279 551//318
f 512//279 513//280 551//318
f 551//318 513//280 552//319
f 552//319 513//280 553//320
f 553//320 513//280 554//321
f 513//280 514//281 554//321
f 554//321 514//281 555//322
f 555//322 514//281 556//323
f 514//281 515//282 556//323
f 556//323 515//282 557//324
f 515//282 516//283 557//324
f 557//324 516//283 558//325
f 558//325 516//283 559//326
f 516//283 517//284 559//326
f 559//326 517//284 560//327
f 560//327 517//284 561//328
f 517//284 518//285 561//328
f 561//328 518//285 562//329
f 518//285 519//286 562//329
f 562//329 519//286 563//330
f 519//286 520//287 563//330
f 563//330 520//287 564//331
f 564//331 520//287 565//332
f 520//287 521//288 565//332
f 565//332 521//288 566//333
f 566//333 521//288 567//334
f 521//288 522//289 567//334
f 567//334 522//289 568//335
f 522//289 523//290 568//335
f 568//335 523//290 569//336
f 569//336 523//290 570//337
f 523//290 524//291 570//337
f 570//337 524//291 571//338
f 571//338 524//291 572//339
f 524//291 525//292 572//339
f 572//339 525//292 573//340
f 573//340 525//292 574//341
f 525//292 526//293 574//341
f 574//341 526//293 575//342
f 526//293 527//294 575//342
f 575//342 527//294 576//343
f 576//343 527//294 577//344
f 527//294 528//295 577//344
f 577//344 528//295 578//345
f 578//345 528//295 579//346
f 528//295 529//296 579//346
f 579//346 529//296 580//347
f 529//296 530//297 580//347
f 580//347 530//297 581//348
f 581//348 530//297 582//349
f 530//297 531//298 582//349
f 582//349 531//298 583//350
f 583//350 531//298 584//351
f 531//298 532//299 584//351
f 584//351 532//299 585//352
f 585//352 532//299 586//353
f 532//299 533//300 586//353
f 586//353 533//300 587//354
f 533//300 534//301 587//354
f 587//354 534//301 588//355
f 588//355 534//301 589//356
f 534//301 535//302 589//356
f 589//356 535//302 590//357
f 590//357 535//302 591//358
f 535//302 536//303 591//358
f 591//358 536//303 592//359
f 536//303 537//304 592//359
f 592//359 537//304 593//360
f 593//360 537//304 594//361
f 537//304 538//305 594//361
f 594//361 538//305 595//362
f 595//362 538//305 596//363
f 538//305 539//306 596//363
f 596//363 539//306 597//364
f 597//364 539//306 598//365
f 539//306 540//307 598//365
f 598//365 540//307 599//366
f 540//307 541//308 599//366
f 599//366 541//308 600//367
f 600//367 541//308 601//368
f 541//308 542//309 601//368
f 601//368 542//309 602//369
f 602//369 542//309 603//370
f 542//309 543//310 603//370
f 603//370 543//310 604//371
f 543//310 544//311 604//371
f 604//371 544//311 605//372
f 605//372 544//311 606//373
f 544//311 545//312 606//373
f 606//373 545//312 607//374
f 607//374 545//312 608//375
f 545//312 546//313 608//375
f 608//375 546//313 609//376
f 609//376 546//313 610//377
f 546//313 547//314 610//377
f 610//377 547//314 611//378
f 547//314 548//315 611//378
f 611//378 548//315 612//379
f 612//379 548//315 613//380
f 548//315 549//316 613//380
f 613//380 549//316 614//381
f 614//381 549//316 615//382
f 549//316 550//317 615//382
f 615//382 550//317 616//383
f 550//317 551//318 616//383
f 616//383 551//318 617//384
f 551//318 552//319 617//384
f 618//385 619//386 620//387
f 619//386 621//388 620//387
f 621//388 622//389 620//387
f 620//387 622//389 623//390
f 622//389 624//391 623//390
f 624//391 625//392 623//390
f 623//390 625//392 626//393
f 625//392 627//394 626//393
f 627//394 628//395 626//393
f 626//393 628//395 629//396
f 628//395 630//397 629//396
f 630//397 631//398 629//396
f 631//398 632//399 629//396
f 629//396 632//399 633//400
f 632//399 634//401 633//400
f 633//400 634//401 635//402
f 634//401 636//403 635//402
f 636//403 637//404 635//402
f 637//404 638//405 635//402
f 638//405 639//406 635//402
f 635//402 639//406 640//407
f 639//406 641//408 640//407
f 641//408 642//409 640//407
f 640//407 642//409 643//410
f 642//409 644//411 643//410
f 644//411 645//412 643//410
f 643//410 645//412 646//413
f 645//412 647//414 646//413
f 647//414 648//415 646//413
f 648//415 649//416 646//413
f 646//413 649//416 650//417
f 649//416 651//418 650//417
f 650//417 651//418 652//419
f 651//418 653//420 652//419
f 653//420 654//421 652//419
f 654//421 655//422 652//419
f 655//422 656//423 652//419
f 652//419 656//423 657//424
f 656//423 658//425 657//424
f 658//425 659//426 657//424
f 657//424 659//426 660//427
f 659//426 661//428 660//427
f 661//428 662//429 660//427
f 660//427 662//429 663//430
f 662//429 664//431 663//430
f 664//431 665//432 663//430
f 665//432 666//433 663//430
f 663//430 666//433 667//434
f 666//433 668//435 667//434
f 667//434 668//435 669//436
f 668//435 670//437 669//436
f 670//437 671//438 669//436
f 671//438 672//439 669//436
f 669//436 672//439 673//440
f 672//439 674//24 673//440
f 674//24 675//441 673//440
f 673//440 675//441 676//442
f 675//441 677//443 676//442
f 677//443 678//444 676//442
f 676//442 678//444 679//445
f 678//444 680//446 679//445
f 680//446 681//447 679//445
f 681//447 682//448 679//445
f 679//445 682//448 683//449
f 682//448 684//450 683//449
f 684//450 685//451 683//449
f 683//449 685//451 686//452
f 685//451 687//453 686//452
f 687//453 688//454 686//452
f 686//452 688//454 689//455
f 688//454 690//456 689//455
f 690//456 691//457 689//455
f 691//457 692//458 689//455
f 689//455 692//458 693//459
f 692//458 694//460 693//459
f 694//460 695//461 693//459
f 693//459 695//461 696//462
f 695//461 697//463 696//462
f 697//463 698//464 696//462
f 698//464 699//465 696//462
f 696//462 699//465 700//466
f 699//465 701//467 700//466
f 701//467 702//468 700//466
f 700//466 702//468 703//469
f 702//468 704//470 703//469
f 704//470 705//471 703//469
f 703//469 705//471 706//472
f 705//471 707//473 706//472
f 707//473 708//474 706//472
f 708//474 709//475 706//472
f 706//472 709//475 710//476
f 709//475 711//477 710//476
f 711//477 618//385 710//476
f 618//385 620//387 710//476
