# Botball Lab: metres, +Y up, centred XZ, base Y=0
s off
v 0.0063500 0.0000000 -0.0571500
v 0.0063500 0.0000000 -0.0545197
v 0.0020325 0.0000000 -0.0563081
v 0.0022000 0.0000000 -0.0571500
v 0.0063500 0.0015000 -0.0571500
v 0.0022000 0.0015000 -0.0571500
v 0.0020325 0.0015000 -0.0563081
v 0.0063500 0.0015000 -0.0545197
v 0.0063500 0.0000000 -0.0508000
v 0.0015556 0.0000000 -0.0555944
v 0.0015556 0.0015000 -0.0555944
v 0.0063500 0.0015000 -0.0508000
v 0.0026303 0.0000000 -0.0508000
v 0.0008419 0.0000000 -0.0551175
v 0.0008419 0.0015000 -0.0551175
v 0.0026303 0.0015000 -0.0508000
v 0.0000000 0.0000000 -0.0508000
v 0.0000000 0.0000000 -0.0549500
v 0.0000000 0.0015000 -0.0549500
v 0.0000000 0.0015000 -0.0508000
v -0.0026303 0.0000000 -0.0508000
v -0.0008419 0.0000000 -0.0551175
v -0.0008419 0.0015000 -0.0551175
v -0.0026303 0.0015000 -0.0508000
v -0.0063500 0.0000000 -0.0508000
v -0.0015556 0.0000000 -0.0555944
v -0.0015556 0.0015000 -0.0555944
v -0.0063500 0.0015000 -0.0508000
v -0.0063500 0.0000000 -0.0545197
v -0.0020325 0.0000000 -0.0563081
v -0.0020325 0.0015000 -0.0563081
v -0.0063500 0.0015000 -0.0545197
v -0.0063500 0.0000000 -0.0571500
v -0.0022000 0.0000000 -0.0571500
v -0.0022000 0.0015000 -0.0571500
v -0.0063500 0.0015000 -0.0571500
v -0.0063500 0.0000000 -0.0597803
v -0.0020325 0.0000000 -0.0579919
v -0.0020325 0.0015000 -0.0579919
v -0.0063500 0.0015000 -0.0597803
v -0.0063500 0.0000000 -0.0635000
v -0.0015556 0.0000000 -0.0587056
v -0.0015556 0.0015000 -0.0587056
v -0.0063500 0.0015000 -0.0635000
v -0.0026303 0.0000000 -0.0635000
v -0.0008419 0.0000000 -0.0591825
v -0.0008419 0.0015000 -0.0591825
v -0.0026303 0.0015000 -0.0635000
v -0.0000000 0.0000000 -0.0635000
v -0.0000000 0.0000000 -0.0593500
v -0.0000000 0.0015000 -0.0593500
v -0.0000000 0.0015000 -0.0635000
v 0.0026303 0.0000000 -0.0635000
v 0.0008419 0.0000000 -0.0591825
v 0.0008419 0.0015000 -0.0591825
v 0.0026303 0.0015000 -0.0635000
v 0.0063500 0.0000000 -0.0635000
v 0.0015556 0.0000000 -0.0587056
v 0.0015556 0.0015000 -0.0587056
v 0.0063500 0.0015000 -0.0635000
v 0.0063500 0.0000000 -0.0597803
v 0.0020325 0.0000000 -0.0579919
v 0.0020325 0.0015000 -0.0579919
v 0.0063500 0.0015000 -0.0597803
v 0.0063500 0.0000000 -0.0444500
v 0.0063500 0.0000000 -0.0418197
v 0.0020325 0.0000000 -0.0436081
v 0.0022000 0.0000000 -0.0444500
v 0.0063500 0.0015000 -0.0444500
v 0.0022000 0.0015000 -0.0444500
v 0.0020325 0.0015000 -0.0436081
v 0.0063500 0.0015000 -0.0418197
v 0.0063500 0.0000000 -0.0381000
v 0.0015556 0.0000000 -0.0428944
v 0.0015556 0.0015000 -0.0428944
v 0.0063500 0.0015000 -0.0381000
v 0.0026303 0.0000000 -0.0381000
v 0.0008419 0.0000000 -0.0424175
v 0.0008419 0.0015000 -0.0424175
v 0.0026303 0.0015000 -0.0381000
v 0.0000000 0.0000000 -0.0381000
v 0.0000000 0.0000000 -0.0422500
v 0.0000000 0.0015000 -0.0422500
v 0.0000000 0.0015000 -0.0381000
v -0.0026303 0.0000000 -0.0381000
v -0.0008419 0.0000000 -0.0424175
v -0.0008419 0.0015000 -0.0424175
v -0.0026303 0.0015000 -0.0381000
v -0.0063500 0.0000000 -0.0381000
v -0.0015556 0.0000000 -0.0428944
v -0.0015556 0.0015000 -0.0428944
v -0.0063500 0.0015000 -0.0381000
v -0.0063500 0.0000000 -0.0418197
v -0.0020325 0.0000000 -0.0436081
v -0.0020325 0.0015000 -0.0436081
v -0.0063500 0.0015000 -0.0418197
v -0.0063500 0.0000000 -0.0444500
v -0.0022000 0.0000000 -0.0444500
v -0.0022000 0.0015000 -0.0444500
v -0.0063500 0.0015000 -0.0444500
v -0.0063500 0.0000000 -0.0470803
v -0.0020325 0.0000000 -0.0452919
v -0.0020325 0.0015000 -0.0452919
v -0.0063500 0.0015000 -0.0470803
v -0.0015556 0.0000000 -0.0460056
v -0.0015556 0.0015000 -0.0460056
v -0.0008419 0.0000000 -0.0464825
v -0.0008419 0.0015000 -0.0464825
v -0.0000000 0.0000000 -0.0466500
v -0.0000000 0.0015000 -0.0466500
v 0.0008419 0.0000000 -0.0464825
v 0.0008419 0.0015000 -0.0464825
v 0.0015556 0.0000000 -0.0460056
v 0.0015556 0.0015000 -0.0460056
v 0.0063500 0.0000000 -0.0470803
v 0.0020325 0.0000000 -0.0452919
v 0.0020325 0.0015000 -0.0452919
v 0.0063500 0.0015000 -0.0470803
v 0.0063500 0.0000000 -0.0317500
v 0.0063500 0.0000000 -0.0291197
v 0.0020325 0.0000000 -0.0309081
v 0.0022000 0.0000000 -0.0317500
v 0.0063500 0.0015000 -0.0317500
v 0.0022000 0.0015000 -0.0317500
v 0.0020325 0.0015000 -0.0309081
v 0.0063500 0.0015000 -0.0291197
v 0.0063500 0.0000000 -0.0254000
v 0.0015556 0.0000000 -0.0301944
v 0.0015556 0.0015000 -0.0301944
v 0.0063500 0.0015000 -0.0254000
v 0.0026303 0.0000000 -0.0254000
v 0.0008419 0.0000000 -0.0297175
v 0.0008419 0.0015000 -0.0297175
v 0.0026303 0.0015000 -0.0254000
v 0.0000000 0.0000000 -0.0254000
v 0.0000000 0.0000000 -0.0295500
v 0.0000000 0.0015000 -0.0295500
v 0.0000000 0.0015000 -0.0254000
v -0.0026303 0.0000000 -0.0254000
v -0.0008419 0.0000000 -0.0297175
v -0.0008419 0.0015000 -0.0297175
v -0.0026303 0.0015000 -0.0254000
v -0.0063500 0.0000000 -0.0254000
v -0.0015556 0.0000000 -0.0301944
v -0.0015556 0.0015000 -0.0301944
v -0.0063500 0.0015000 -0.0254000
v -0.0063500 0.0000000 -0.0291197
v -0.0020325 0.0000000 -0.0309081
v -0.0020325 0.0015000 -0.0309081
v -0.0063500 0.0015000 -0.0291197
v -0.0063500 0.0000000 -0.0317500
v -0.0022000 0.0000000 -0.0317500
v -0.0022000 0.0015000 -0.0317500
v -0.0063500 0.0015000 -0.0317500
v -0.0063500 0.0000000 -0.0343803
v -0.0020325 0.0000000 -0.0325919
v -0.0020325 0.0015000 -0.0325919
v -0.0063500 0.0015000 -0.0343803
v -0.0015556 0.0000000 -0.0333056
v -0.0015556 0.0015000 -0.0333056
v -0.0008419 0.0000000 -0.0337825
v -0.0008419 0.0015000 -0.0337825
v -0.0000000 0.0000000 -0.0339500
v -0.0000000 0.0015000 -0.0339500
v 0.0008419 0.0000000 -0.0337825
v 0.0008419 0.0015000 -0.0337825
v 0.0015556 0.0000000 -0.0333056
v 0.0015556 0.0015000 -0.0333056
v 0.0063500 0.0000000 -0.0343803
v 0.0020325 0.0000000 -0.0325919
v 0.0020325 0.0015000 -0.0325919
v 0.0063500 0.0015000 -0.0343803
v 0.0063500 0.0000000 -0.0190500
v 0.0063500 0.0000000 -0.0164197
v 0.0020325 0.0000000 -0.0182081
v 0.0022000 0.0000000 -0.0190500
v 0.0063500 0.0015000 -0.0190500
v 0.0022000 0.0015000 -0.0190500
v 0.0020325 0.0015000 -0.0182081
v 0.0063500 0.0015000 -0.0164197
v 0.0063500 0.0000000 -0.0127000
v 0.0015556 0.0000000 -0.0174944
v 0.0015556 0.0015000 -0.0174944
v 0.0063500 0.0015000 -0.0127000
v 0.0026303 0.0000000 -0.0127000
v 0.0008419 0.0000000 -0.0170175
v 0.0008419 0.0015000 -0.0170175
v 0.0026303 0.0015000 -0.0127000
v 0.0000000 0.0000000 -0.0127000
v 0.0000000 0.0000000 -0.0168500
v 0.0000000 0.0015000 -0.0168500
v 0.0000000 0.0015000 -0.0127000
v -0.0026303 0.0000000 -0.0127000
v -0.0008419 0.0000000 -0.0170175
v -0.0008419 0.0015000 -0.0170175
v -0.0026303 0.0015000 -0.0127000
v -0.0063500 0.0000000 -0.0127000
v -0.0015556 0.0000000 -0.0174944
v -0.0015556 0.0015000 -0.0174944
v -0.0063500 0.0015000 -0.0127000
v -0.0063500 0.0000000 -0.0164197
v -0.0020325 0.0000000 -0.0182081
v -0.0020325 0.0015000 -0.0182081
v -0.0063500 0.0015000 -0.0164197
v -0.0063500 0.0000000 -0.0190500
v -0.0022000 0.0000000 -0.0190500
v -0.0022000 0.0015000 -0.0190500
v -0.0063500 0.0015000 -0.0190500
v -0.0063500 0.0000000 -0.0216803
v -0.0020325 0.0000000 -0.0198919
v -0.0020325 0.0015000 -0.0198919
v -0.0063500 0.0015000 -0.0216803
v -0.0015556 0.0000000 -0.0206056
v -0.0015556 0.0015000 -0.0206056
v -0.0008419 0.0000000 -0.0210825
v -0.0008419 0.0015000 -0.0210825
v -0.0000000 0.0000000 -0.0212500
v -0.0000000 0.0015000 -0.0212500
v 0.0008419 0.0000000 -0.0210825
v 0.0008419 0.0015000 -0.0210825
v 0.0015556 0.0000000 -0.0206056
v 0.0015556 0.0015000 -0.0206056
v 0.0063500 0.0000000 -0.0216803
v 0.0020325 0.0000000 -0.0198919
v 0.0020325 0.0015000 -0.0198919
v 0.0063500 0.0015000 -0.0216803
v 0.0063500 0.0000000 -0.0063500
v 0.0063500 0.0000000 -0.0037197
v 0.0020325 0.0000000 -0.0055081
v 0.0022000 0.0000000 -0.0063500
v 0.0063500 0.0015000 -0.0063500
v 0.0022000 0.0015000 -0.0063500
v 0.0020325 0.0015000 -0.0055081
v 0.0063500 0.0015000 -0.0037197
v 0.0063500 0.0000000 -0.0000000
v 0.0015556 0.0000000 -0.0047944
v 0.0015556 0.0015000 -0.0047944
v 0.0063500 0.0015000 -0.0000000
v 0.0026303 0.0000000 0.0000000
v 0.0008419 0.0000000 -0.0043175
v 0.0008419 0.0015000 -0.0043175
v 0.0026303 0.0015000 0.0000000
v 0.0000000 0.0000000 0.0000000
v 0.0000000 0.0000000 -0.0041500
v 0.0000000 0.0015000 -0.0041500
v 0.0000000 0.0015000 0.0000000
v -0.0026303 0.0000000 0.0000000
v -0.0008419 0.0000000 -0.0043175
v -0.0008419 0.0015000 -0.0043175
v -0.0026303 0.0015000 0.0000000
v -0.0063500 0.0000000 0.0000000
v -0.0015556 0.0000000 -0.0047944
v -0.0015556 0.0015000 -0.0047944
v -0.0063500 0.0015000 0.0000000
v -0.0063500 0.0000000 -0.0037197
v -0.0020325 0.0000000 -0.0055081
v -0.0020325 0.0015000 -0.0055081
v -0.0063500 0.0015000 -0.0037197
v -0.0063500 0.0000000 -0.0063500
v -0.0022000 0.0000000 -0.0063500
v -0.0022000 0.0015000 -0.0063500
v -0.0063500 0.0015000 -0.0063500
v -0.0063500 0.0000000 -0.0089803
v -0.0020325 0.0000000 -0.0071919
v -0.0020325 0.0015000 -0.0071919
v -0.0063500 0.0015000 -0.0089803
v -0.0015556 0.0000000 -0.0079056
v -0.0015556 0.0015000 -0.0079056
v -0.0008419 0.0000000 -0.0083825
v -0.0008419 0.0015000 -0.0083825
v -0.0000000 0.0000000 -0.0085500
v -0.0000000 0.0015000 -0.0085500
v 0.0008419 0.0000000 -0.0083825
v 0.0008419 0.0015000 -0.0083825
v 0.0015556 0.0000000 -0.0079056
v 0.0015556 0.0015000 -0.0079056
v 0.0063500 0.0000000 -0.0089803
v 0.0020325 0.0000000 -0.0071919
v 0.0020325 0.0015000 -0.0071919
v 0.0063500 0.0015000 -0.0089803
v 0.0063500 0.0000000 0.0063500
v 0.0063500 0.0000000 0.0089803
v 0.0020325 0.0000000 0.0071919
v 0.0022000 0.0000000 0.0063500
v 0.0063500 0.0015000 0.0063500
v 0.0022000 0.0015000 0.0063500
v 0.0020325 0.0015000 0.0071919
v 0.0063500 0.0015000 0.0089803
v 0.0063500 0.0000000 0.0127000
v 0.0015556 0.0000000 0.0079056
v 0.0015556 0.0015000 0.0079056
v 0.0063500 0.0015000 0.0127000
v 0.0026303 0.0000000 0.0127000
v 0.0008419 0.0000000 0.0083825
v 0.0008419 0.0015000 0.0083825
v 0.0026303 0.0015000 0.0127000
v 0.0000000 0.0000000 0.0127000
v 0.0000000 0.0000000 0.0085500
v 0.0000000 0.0015000 0.0085500
v 0.0000000 0.0015000 0.0127000
v -0.0026303 0.0000000 0.0127000
v -0.0008419 0.0000000 0.0083825
v -0.0008419 0.0015000 0.0083825
v -0.0026303 0.0015000 0.0127000
v -0.0063500 0.0000000 0.0127000
v -0.0015556 0.0000000 0.0079056
v -0.0015556 0.0015000 0.0079056
v -0.0063500 0.0015000 0.0127000
v -0.0063500 0.0000000 0.0089803
v -0.0020325 0.0000000 0.0071919
v -0.0020325 0.0015000 0.0071919
v -0.0063500 0.0015000 0.0089803
v -0.0063500 0.0000000 0.0063500
v -0.0022000 0.0000000 0.0063500
v -0.0022000 0.0015000 0.0063500
v -0.0063500 0.0015000 0.0063500
v -0.0063500 0.0000000 0.0037197
v -0.0020325 0.0000000 0.0055081
v -0.0020325 0.0015000 0.0055081
v -0.0063500 0.0015000 0.0037197
v -0.0015556 0.0000000 0.0047944
v -0.0015556 0.0015000 0.0047944
v -0.0008419 0.0000000 0.0043175
v -0.0008419 0.0015000 0.0043175
v -0.0000000 0.0000000 0.0041500
v -0.0000000 0.0015000 0.0041500
v 0.0008419 0.0000000 0.0043175
v 0.0008419 0.0015000 0.0043175
v 0.0015556 0.0000000 0.0047944
v 0.0015556 0.0015000 0.0047944
v 0.0063500 0.0000000 0.0037197
v 0.0020325 0.0000000 0.0055081
v 0.0020325 0.0015000 0.0055081
v 0.0063500 0.0015000 0.0037197
v 0.0063500 0.0000000 0.0190500
v 0.0063500 0.0000000 0.0216803
v 0.0020325 0.0000000 0.0198919
v 0.0022000 0.0000000 0.0190500
v 0.0063500 0.0015000 0.0190500
v 0.0022000 0.0015000 0.0190500
v 0.0020325 0.0015000 0.0198919
v 0.0063500 0.0015000 0.0216803
v 0.0063500 0.0000000 0.0254000
v 0.0015556 0.0000000 0.0206056
v 0.0015556 0.0015000 0.0206056
v 0.0063500 0.0015000 0.0254000
v 0.0026303 0.0000000 0.0254000
v 0.0008419 0.0000000 0.0210825
v 0.0008419 0.0015000 0.0210825
v 0.0026303 0.0015000 0.0254000
v 0.0000000 0.0000000 0.0254000
v 0.0000000 0.0000000 0.0212500
v 0.0000000 0.0015000 0.0212500
v 0.0000000 0.0015000 0.0254000
v -0.0026303 0.0000000 0.0254000
v -0.0008419 0.0000000 0.0210825
v -0.0008419 0.0015000 0.0210825
v -0.0026303 0.0015000 0.0254000
v -0.0063500 0.0000000 0.0254000
v -0.0015556 0.0000000 0.0206056
v -0.0015556 0.0015000 0.0206056
v -0.0063500 0.0015000 0.0254000
v -0.0063500 0.0000000 0.0216803
v -0.0020325 0.0000000 0.0198919
v -0.0020325 0.0015000 0.0198919
v -0.0063500 0.0015000 0.0216803
v -0.0063500 0.0000000 0.0190500
v -0.0022000 0.0000000 0.0190500
v -0.0022000 0.0015000 0.0190500
v -0.0063500 0.0015000 0.0190500
v -0.0063500 0.0000000 0.0164197
v -0.0020325 0.0000000 0.0182081
v -0.0020325 0.0015000 0.0182081
v -0.0063500 0.0015000 0.0164197
v -0.0015556 0.0000000 0.0174944
v -0.0015556 0.0015000 0.0174944
v -0.0008419 0.0000000 0.0170175
v -0.0008419 0.0015000 0.0170175
v -0.0000000 0.0000000 0.0168500
v -0.0000000 0.0015000 0.0168500
v 0.0008419 0.0000000 0.0170175
v 0.0008419 0.0015000 0.0170175
v 0.0015556 0.0000000 0.0174944
v 0.0015556 0.0015000 0.0174944
v 0.0063500 0.0000000 0.0164197
v 0.0020325 0.0000000 0.0182081
v 0.0020325 0.0015000 0.0182081
v 0.0063500 0.0015000 0.0164197
v 0.0063500 0.0000000 0.0317500
v 0.0063500 0.0000000 0.0343803
v 0.0020325 0.0000000 0.0325919
v 0.0022000 0.0000000 0.0317500
v 0.0063500 0.0015000 0.0317500
v 0.0022000 0.0015000 0.0317500
v 0.0020325 0.0015000 0.0325919
v 0.0063500 0.0015000 0.0343803
v 0.0063500 0.0000000 0.0381000
v 0.0015556 0.0000000 0.0333056
v 0.0015556 0.0015000 0.0333056
v 0.0063500 0.0015000 0.0381000
v 0.0026303 0.0000000 0.0381000
v 0.0008419 0.0000000 0.0337825
v 0.0008419 0.0015000 0.0337825
v 0.0026303 0.0015000 0.0381000
v 0.0000000 0.0000000 0.0381000
v 0.0000000 0.0000000 0.0339500
v 0.0000000 0.0015000 0.0339500
v 0.0000000 0.0015000 0.0381000
v -0.0026303 0.0000000 0.0381000
v -0.0008419 0.0000000 0.0337825
v -0.0008419 0.0015000 0.0337825
v -0.0026303 0.0015000 0.0381000
v -0.0063500 0.0000000 0.0381000
v -0.0015556 0.0000000 0.0333056
v -0.0015556 0.0015000 0.0333056
v -0.0063500 0.0015000 0.0381000
v -0.0063500 0.0000000 0.0343803
v -0.0020325 0.0000000 0.0325919
v -0.0020325 0.0015000 0.0325919
v -0.0063500 0.0015000 0.0343803
v -0.0063500 0.0000000 0.0317500
v -0.0022000 0.0000000 0.0317500
v -0.0022000 0.0015000 0.0317500
v -0.0063500 0.0015000 0.0317500
v -0.0063500 0.0000000 0.0291197
v -0.0020325 0.0000000 0.0309081
v -0.0020325 0.0015000 0.0309081
v -0.0063500 0.0015000 0.0291197
v -0.0015556 0.0000000 0.0301944
v -0.0015556 0.0015000 0.0301944
v -0.0008419 0.0000000 0.0297175
v -0.0008419 0.0015000 0.0297175
v -0.0000000 0.0000000 0.0295500
v -0.0000000 0.0015000 0.0295500
v 0.0008419 0.0000000 0.0297175
v 0.0008419 0.0015000 0.0297175
v 0.0015556 0.0000000 0.0301944
v 0.0015556 0.0015000 0.0301944
v 0.0063500 0.0000000 0.0291197
v 0.0020325 0.0000000 0.0309081
v 0.0020325 0.0015000 0.0309081
v 0.0063500 0.0015000 0.0291197
v 0.0063500 0.0000000 0.0444500
v 0.0063500 0.0000000 0.0470803
v 0.0020325 0.0000000 0.0452919
v 0.0022000 0.0000000 0.0444500
v 0.0063500 0.0015000 0.0444500
v 0.0022000 0.0015000 0.0444500
v 0.0020325 0.0015000 0.0452919
v 0.0063500 0.0015000 0.0470803
v 0.0063500 0.0000000 0.0508000
v 0.0015556 0.0000000 0.0460056
v 0.0015556 0.0015000 0.0460056
v 0.0063500 0.0015000 0.0508000
v 0.0026303 0.0000000 0.0508000
v 0.0008419 0.0000000 0.0464825
v 0.0008419 0.0015000 0.0464825
v 0.0026303 0.0015000 0.0508000
v 0.0000000 0.0000000 0.0508000
v 0.0000000 0.0000000 0.0466500
v 0.0000000 0.0015000 0.0466500
v 0.0000000 0.0015000 0.0508000
v -0.0026303 0.0000000 0.0508000
v -0.0008419 0.0000000 0.0464825
v -0.0008419 0.0015000 0.0464825
v -0.0026303 0.0015000 0.0508000
v -0.0063500 0.0000000 0.0508000
v -0.0015556 0.0000000 0.0460056
v -0.0015556 0.0015000 0.0460056
v -0.0063500 0.0015000 0.0508000
v -0.0063500 0.0000000 0.0470803
v -0.0020325 0.0000000 0.0452919
v -0.0020325 0.0015000 0.0452919
v -0.0063500 0.0015000 0.0470803
v -0.0063500 0.0000000 0.0444500
v -0.0022000 0.0000000 0.0444500
v -0.0022000 0.0015000 0.0444500
v -0.0063500 0.0015000 0.0444500
v -0.0063500 0.0000000 0.0418197
v -0.0020325 0.0000000 0.0436081
v -0.0020325 0.0015000 0.0436081
v -0.0063500 0.0015000 0.0418197
v -0.0015556 0.0000000 0.0428944
v -0.0015556 0.0015000 0.0428944
v -0.0008419 0.0000000 0.0424175
v -0.0008419 0.0015000 0.0424175
v -0.0000000 0.0000000 0.0422500
v -0.0000000 0.0015000 0.0422500
v 0.0008419 0.0000000 0.0424175
v 0.0008419 0.0015000 0.0424175
v 0.0015556 0.0000000 0.0428944
v 0.0015556 0.0015000 0.0428944
v 0.0063500 0.0000000 0.0418197
v 0.0020325 0.0000000 0.0436081
v 0.0020325 0.0015000 0.0436081
v 0.0063500 0.0015000 0.0418197
v 0.0063500 0.0000000 0.0571500
v 0.0063500 0.0000000 0.0597803
v 0.0020325 0.0000000 0.0579919
v 0.0022000 0.0000000 0.0571500
v 0.0063500 0.0015000 0.0571500
v 0.0022000 0.0015000 0.0571500
v 0.0020325 0.0015000 0.0579919
v 0.0063500 0.0015000 0.0597803
v 0.0063500 0.0000000 0.0635000
v 0.0015556 0.0000000 0.0587056
v 0.0015556 0.0015000 0.0587056
v 0.0063500 0.0015000 0.0635000
v 0.0026303 0.0000000 0.0635000
v 0.0008419 0.0000000 0.0591825
v 0.0008419 0.0015000 0.0591825
v 0.0026303 0.0015000 0.0635000
v 0.0000000 0.0000000 0.0635000
v 0.0000000 0.0000000 0.0593500
v 0.0000000 0.0015000 0.0593500
v 0.0000000 0.0015000 0.0635000
v -0.0026303 0.0000000 0.0635000
v -0.0008419 0.0000000 0.0591825
v -0.0008419 0.0015000 0.0591825
v -0.0026303 0.0015000 0.0635000
v -0.0063500 0.0000000 0.0635000
v -0.0015556 0.0000000 0.0587056
v -0.0015556 0.0015000 0.0587056
v -0.0063500 0.0015000 0.0635000
v -0.0063500 0.0000000 0.0597803
v -0.0020325 0.0000000 0.0579919
v -0.0020325 0.0015000 0.0579919
v -0.0063500 0.0015000 0.0597803
v -0.0063500 0.0000000 0.0571500
v -0.0022000 0.0000000 0.0571500
v -0.0022000 0.0015000 0.0571500
v -0.0063500 0.0015000 0.0571500
v -0.0063500 0.0000000 0.0545197
v -0.0020325 0.0000000 0.0563081
v -0.0020325 0.0015000 0.0563081
v -0.0063500 0.0015000 0.0545197
v -0.0015556 0.0000000 0.0555944
v -0.0015556 0.0015000 0.0555944
v -0.0008419 0.0000000 0.0551175
v -0.0008419 0.0015000 0.0551175
v -0.0000000 0.0000000 0.0549500
v -0.0000000 0.0015000 0.0549500
v 0.0008419 0.0000000 0.0551175
v 0.0008419 0.0015000 0.0551175
v 0.0015556 0.0000000 0.0555944
v 0.0015556 0.0015000 0.0555944
v 0.0063500 0.0000000 0.0545197
v 0.0020325 0.0000000 0.0563081
v 0.0020325 0.0015000 0.0563081
v 0.0063500 0.0015000 0.0545197
f 1 2 3
f 1 3 4
f 5 6 7
f 5 7 8
f 4 3 7
f 4 7 6
f 1 5 8
f 1 8 2
f 2 9 10
f 2 10 3
f 8 7 11
f 8 11 12
f 3 10 11
f 3 11 7
f 2 8 12
f 2 12 9
f 9 13 14
f 9 14 10
f 12 11 15
f 12 15 16
f 10 14 15
f 10 15 11
f 9 12 16
f 9 16 13
f 13 17 18
f 13 18 14
f 16 15 19
f 16 19 20
f 14 18 19
f 14 19 15
f 13 16 20
f 13 20 17
f 17 21 22
f 17 22 18
f 20 19 23
f 20 23 24
f 18 22 23
f 18 23 19
f 17 20 24
f 17 24 21
f 21 25 26
f 21 26 22
f 24 23 27
f 24 27 28
f 22 26 27
f 22 27 23
f 21 24 28
f 21 28 25
f 25 29 30
f 25 30 26
f 28 27 31
f 28 31 32
f 26 30 31
f 26 31 27
f 25 28 32
f 25 32 29
f 29 33 34
f 29 34 30
f 32 31 35
f 32 35 36
f 30 34 35
f 30 35 31
f 29 32 36
f 29 36 33
f 33 37 38
f 33 38 34
f 36 35 39
f 36 39 40
f 34 38 39
f 34 39 35
f 33 36 40
f 33 40 37
f 37 41 42
f 37 42 38
f 40 39 43
f 40 43 44
f 38 42 43
f 38 43 39
f 37 40 44
f 37 44 41
f 41 45 46
f 41 46 42
f 44 43 47
f 44 47 48
f 42 46 47
f 42 47 43
f 41 44 48
f 41 48 45
f 45 49 50
f 45 50 46
f 48 47 51
f 48 51 52
f 46 50 51
f 46 51 47
f 45 48 52
f 45 52 49
f 49 53 54
f 49 54 50
f 52 51 55
f 52 55 56
f 50 54 55
f 50 55 51
f 49 52 56
f 49 56 53
f 53 57 58
f 53 58 54
f 56 55 59
f 56 59 60
f 54 58 59
f 54 59 55
f 53 56 60
f 53 60 57
f 57 61 62
f 57 62 58
f 60 59 63
f 60 63 64
f 58 62 63
f 58 63 59
f 57 60 64
f 57 64 61
f 61 1 4
f 61 4 62
f 64 63 6
f 64 6 5
f 62 4 6
f 62 6 63
f 61 64 5
f 61 5 1
f 65 66 67
f 65 67 68
f 69 70 71
f 69 71 72
f 68 67 71
f 68 71 70
f 65 69 72
f 65 72 66
f 66 73 74
f 66 74 67
f 72 71 75
f 72 75 76
f 67 74 75
f 67 75 71
f 66 72 76
f 66 76 73
f 73 77 78
f 73 78 74
f 76 75 79
f 76 79 80
f 74 78 79
f 74 79 75
f 73 76 80
f 73 80 77
f 77 81 82
f 77 82 78
f 80 79 83
f 80 83 84
f 78 82 83
f 78 83 79
f 77 80 84
f 77 84 81
f 81 85 86
f 81 86 82
f 84 83 87
f 84 87 88
f 82 86 87
f 82 87 83
f 81 84 88
f 81 88 85
f 85 89 90
f 85 90 86
f 88 87 91
f 88 91 92
f 86 90 91
f 86 91 87
f 85 88 92
f 85 92 89
f 89 93 94
f 89 94 90
f 92 91 95
f 92 95 96
f 90 94 95
f 90 95 91
f 89 92 96
f 89 96 93
f 93 97 98
f 93 98 94
f 96 95 99
f 96 99 100
f 94 98 99
f 94 99 95
f 93 96 100
f 93 100 97
f 97 101 102
f 97 102 98
f 100 99 103
f 100 103 104
f 98 102 103
f 98 103 99
f 97 100 104
f 97 104 101
f 101 25 105
f 101 105 102
f 104 103 106
f 104 106 28
f 102 105 106
f 102 106 103
f 101 104 28
f 101 28 25
f 25 21 107
f 25 107 105
f 28 106 108
f 28 108 24
f 105 107 108
f 105 108 106
f 25 28 24
f 25 24 21
f 21 17 109
f 21 109 107
f 24 108 110
f 24 110 20
f 107 109 110
f 107 110 108
f 21 24 20
f 21 20 17
f 17 13 111
f 17 111 109
f 20 110 112
f 20 112 16
f 109 111 112
f 109 112 110
f 17 20 16
f 17 16 13
f 13 9 113
f 13 113 111
f 16 112 114
f 16 114 12
f 111 113 114
f 111 114 112
f 13 16 12
f 13 12 9
f 9 115 116
f 9 116 113
f 12 114 117
f 12 117 118
f 113 116 117
f 113 117 114
f 9 12 118
f 9 118 115
f 115 65 68
f 115 68 116
f 118 117 70
f 118 70 69
f 116 68 70
f 116 70 117
f 115 118 69
f 115 69 65
f 119 120 121
f 119 121 122
f 123 124 125
f 123 125 126
f 122 121 125
f 122 125 124
f 119 123 126
f 119 126 120
f 120 127 128
f 120 128 121
f 126 125 129
f 126 129 130
f 121 128 129
f 121 129 125
f 120 126 130
f 120 130 127
f 127 131 132
f 127 132 128
f 130 129 133
f 130 133 134
f 128 132 133
f 128 133 129
f 127 130 134
f 127 134 131
f 131 135 136
f 131 136 132
f 134 133 137
f 134 137 138
f 132 136 137
f 132 137 133
f 131 134 138
f 131 138 135
f 135 139 140
f 135 140 136
f 138 137 141
f 138 141 142
f 136 140 141
f 136 141 137
f 135 138 142
f 135 142 139
f 139 143 144
f 139 144 140
f 142 141 145
f 142 145 146
f 140 144 145
f 140 145 141
f 139 142 146
f 139 146 143
f 143 147 148
f 143 148 144
f 146 145 149
f 146 149 150
f 144 148 149
f 144 149 145
f 143 146 150
f 143 150 147
f 147 151 152
f 147 152 148
f 150 149 153
f 150 153 154
f 148 152 153
f 148 153 149
f 147 150 154
f 147 154 151
f 151 155 156
f 151 156 152
f 154 153 157
f 154 157 158
f 152 156 157
f 152 157 153
f 151 154 158
f 151 158 155
f 155 89 159
f 155 159 156
f 158 157 160
f 158 160 92
f 156 159 160
f 156 160 157
f 155 158 92
f 155 92 89
f 89 85 161
f 89 161 159
f 92 160 162
f 92 162 88
f 159 161 162
f 159 162 160
f 89 92 88
f 89 88 85
f 85 81 163
f 85 163 161
f 88 162 164
f 88 164 84
f 161 163 164
f 161 164 162
f 85 88 84
f 85 84 81
f 81 77 165
f 81 165 163
f 84 164 166
f 84 166 80
f 163 165 166
f 163 166 164
f 81 84 80
f 81 80 77
f 77 73 167
f 77 167 165
f 80 166 168
f 80 168 76
f 165 167 168
f 165 168 166
f 77 80 76
f 77 76 73
f 73 169 170
f 73 170 167
f 76 168 171
f 76 171 172
f 167 170 171
f 167 171 168
f 73 76 172
f 73 172 169
f 169 119 122
f 169 122 170
f 172 171 124
f 172 124 123
f 170 122 124
f 170 124 171
f 169 172 123
f 169 123 119
f 173 174 175
f 173 175 176
f 177 178 179
f 177 179 180
f 176 175 179
f 176 179 178
f 173 177 180
f 173 180 174
f 174 181 182
f 174 182 175
f 180 179 183
f 180 183 184
f 175 182 183
f 175 183 179
f 174 180 184
f 174 184 181
f 181 185 186
f 181 186 182
f 184 183 187
f 184 187 188
f 182 186 187
f 182 187 183
f 181 184 188
f 181 188 185
f 185 189 190
f 185 190 186
f 188 187 191
f 188 191 192
f 186 190 191
f 186 191 187
f 185 188 192
f 185 192 189
f 189 193 194
f 189 194 190
f 192 191 195
f 192 195 196
f 190 194 195
f 190 195 191
f 189 192 196
f 189 196 193
f 193 197 198
f 193 198 194
f 196 195 199
f 196 199 200
f 194 198 199
f 194 199 195
f 193 196 200
f 193 200 197
f 197 201 202
f 197 202 198
f 200 199 203
f 200 203 204
f 198 202 203
f 198 203 199
f 197 200 204
f 197 204 201
f 201 205 206
f 201 206 202
f 204 203 207
f 204 207 208
f 202 206 207
f 202 207 203
f 201 204 208
f 201 208 205
f 205 209 210
f 205 210 206
f 208 207 211
f 208 211 212
f 206 210 211
f 206 211 207
f 205 208 212
f 205 212 209
f 209 143 213
f 209 213 210
f 212 211 214
f 212 214 146
f 210 213 214
f 210 214 211
f 209 212 146
f 209 146 143
f 143 139 215
f 143 215 213
f 146 214 216
f 146 216 142
f 213 215 216
f 213 216 214
f 143 146 142
f 143 142 139
f 139 135 217
f 139 217 215
f 142 216 218
f 142 218 138
f 215 217 218
f 215 218 216
f 139 142 138
f 139 138 135
f 135 131 219
f 135 219 217
f 138 218 220
f 138 220 134
f 217 219 220
f 217 220 218
f 135 138 134
f 135 134 131
f 131 127 221
f 131 221 219
f 134 220 222
f 134 222 130
f 219 221 222
f 219 222 220
f 131 134 130
f 131 130 127
f 127 223 224
f 127 224 221
f 130 222 225
f 130 225 226
f 221 224 225
f 221 225 222
f 127 130 226
f 127 226 223
f 223 173 176
f 223 176 224
f 226 225 178
f 226 178 177
f 224 176 178
f 224 178 225
f 223 226 177
f 223 177 173
f 227 228 229
f 227 229 230
f 231 232 233
f 231 233 234
f 230 229 233
f 230 233 232
f 227 231 234
f 227 234 228
f 228 235 236
f 228 236 229
f 234 233 237
f 234 237 238
f 229 236 237
f 229 237 233
f 228 234 238
f 228 238 235
f 235 239 240
f 235 240 236
f 238 237 241
f 238 241 242
f 236 240 241
f 236 241 237
f 235 238 242
f 235 242 239
f 239 243 244
f 239 244 240
f 242 241 245
f 242 245 246
f 240 244 245
f 240 245 241
f 239 242 246
f 239 246 243
f 243 247 248
f 243 248 244
f 246 245 249
f 246 249 250
f 244 248 249
f 244 249 245
f 243 246 250
f 243 250 247
f 247 251 252
f 247 252 248
f 250 249 253
f 250 253 254
f 248 252 253
f 248 253 249
f 247 250 254
f 247 254 251
f 251 255 256
f 251 256 252
f 254 253 257
f 254 257 258
f 252 256 257
f 252 257 253
f 251 254 258
f 251 258 255
f 255 259 260
f 255 260 256
f 258 257 261
f 258 261 262
f 256 260 261
f 256 261 257
f 255 258 262
f 255 262 259
f 259 263 264
f 259 264 260
f 262 261 265
f 262 265 266
f 260 264 265
f 260 265 261
f 259 262 266
f 259 266 263
f 263 197 267
f 263 267 264
f 266 265 268
f 266 268 200
f 264 267 268
f 264 268 265
f 263 266 200
f 263 200 197
f 197 193 269
f 197 269 267
f 200 268 270
f 200 270 196
f 267 269 270
f 267 270 268
f 197 200 196
f 197 196 193
f 193 189 271
f 193 271 269
f 196 270 272
f 196 272 192
f 269 271 272
f 269 272 270
f 193 196 192
f 193 192 189
f 189 185 273
f 189 273 271
f 192 272 274
f 192 274 188
f 271 273 274
f 271 274 272
f 189 192 188
f 189 188 185
f 185 181 275
f 185 275 273
f 188 274 276
f 188 276 184
f 273 275 276
f 273 276 274
f 185 188 184
f 185 184 181
f 181 277 278
f 181 278 275
f 184 276 279
f 184 279 280
f 275 278 279
f 275 279 276
f 181 184 280
f 181 280 277
f 277 227 230
f 277 230 278
f 280 279 232
f 280 232 231
f 278 230 232
f 278 232 279
f 277 280 231
f 277 231 227
f 281 282 283
f 281 283 284
f 285 286 287
f 285 287 288
f 284 283 287
f 284 287 286
f 281 285 288
f 281 288 282
f 282 289 290
f 282 290 283
f 288 287 291
f 288 291 292
f 283 290 291
f 283 291 287
f 282 288 292
f 282 292 289
f 289 293 294
f 289 294 290
f 292 291 295
f 292 295 296
f 290 294 295
f 290 295 291
f 289 292 296
f 289 296 293
f 293 297 298
f 293 298 294
f 296 295 299
f 296 299 300
f 294 298 299
f 294 299 295
f 293 296 300
f 293 300 297
f 297 301 302
f 297 302 298
f 300 299 303
f 300 303 304
f 298 302 303
f 298 303 299
f 297 300 304
f 297 304 301
f 301 305 306
f 301 306 302
f 304 303 307
f 304 307 308
f 302 306 307
f 302 307 303
f 301 304 308
f 301 308 305
f 305 309 310
f 305 310 306
f 308 307 311
f 308 311 312
f 306 310 311
f 306 311 307
f 305 308 312
f 305 312 309
f 309 313 314
f 309 314 310
f 312 311 315
f 312 315 316
f 310 314 315
f 310 315 311
f 309 312 316
f 309 316 313
f 313 317 318
f 313 318 314
f 316 315 319
f 316 319 320
f 314 318 319
f 314 319 315
f 313 316 320
f 313 320 317
f 317 251 321
f 317 321 318
f 320 319 322
f 320 322 254
f 318 321 322
f 318 322 319
f 317 320 254
f 317 254 251
f 251 247 323
f 251 323 321
f 254 322 324
f 254 324 250
f 321 323 324
f 321 324 322
f 251 254 250
f 251 250 247
f 247 243 325
f 247 325 323
f 250 324 326
f 250 326 246
f 323 325 326
f 323 326 324
f 247 250 246
f 247 246 243
f 243 239 327
f 243 327 325
f 246 326 328
f 246 328 242
f 325 327 328
f 325 328 326
f 243 246 242
f 243 242 239
f 239 235 329
f 239 329 327
f 242 328 330
f 242 330 238
f 327 329 330
f 327 330 328
f 239 242 238
f 239 238 235
f 235 331 332
f 235 332 329
f 238 330 333
f 238 333 334
f 329 332 333
f 329 333 330
f 235 238 334
f 235 334 331
f 331 281 284
f 331 284 332
f 334 333 286
f 334 286 285
f 332 284 286
f 332 286 333
f 331 334 285
f 331 285 281
f 335 336 337
f 335 337 338
f 339 340 341
f 339 341 342
f 338 337 341
f 338 341 340
f 335 339 342
f 335 342 336
f 336 343 344
f 336 344 337
f 342 341 345
f 342 345 346
f 337 344 345
f 337 345 341
f 336 342 346
f 336 346 343
f 343 347 348
f 343 348 344
f 346 345 349
f 346 349 350
f 344 348 349
f 344 349 345
f 343 346 350
f 343 350 347
f 347 351 352
f 347 352 348
f 350 349 353
f 350 353 354
f 348 352 353
f 348 353 349
f 347 350 354
f 347 354 351
f 351 355 356
f 351 356 352
f 354 353 357
f 354 357 358
f 352 356 357
f 352 357 353
f 351 354 358
f 351 358 355
f 355 359 360
f 355 360 356
f 358 357 361
f 358 361 362
f 356 360 361
f 356 361 357
f 355 358 362
f 355 362 359
f 359 363 364
f 359 364 360
f 362 361 365
f 362 365 366
f 360 364 365
f 360 365 361
f 359 362 366
f 359 366 363
f 363 367 368
f 363 368 364
f 366 365 369
f 366 369 370
f 364 368 369
f 364 369 365
f 363 366 370
f 363 370 367
f 367 371 372
f 367 372 368
f 370 369 373
f 370 373 374
f 368 372 373
f 368 373 369
f 367 370 374
f 367 374 371
f 371 305 375
f 371 375 372
f 374 373 376
f 374 376 308
f 372 375 376
f 372 376 373
f 371 374 308
f 371 308 305
f 305 301 377
f 305 377 375
f 308 376 378
f 308 378 304
f 375 377 378
f 375 378 376
f 305 308 304
f 305 304 301
f 301 297 379
f 301 379 377
f 304 378 380
f 304 380 300
f 377 379 380
f 377 380 378
f 301 304 300
f 301 300 297
f 297 293 381
f 297 381 379
f 300 380 382
f 300 382 296
f 379 381 382
f 379 382 380
f 297 300 296
f 297 296 293
f 293 289 383
f 293 383 381
f 296 382 384
f 296 384 292
f 381 383 384
f 381 384 382
f 293 296 292
f 293 292 289
f 289 385 386
f 289 386 383
f 292 384 387
f 292 387 388
f 383 386 387
f 383 387 384
f 289 292 388
f 289 388 385
f 385 335 338
f 385 338 386
f 388 387 340
f 388 340 339
f 386 338 340
f 386 340 387
f 385 388 339
f 385 339 335
f 389 390 391
f 389 391 392
f 393 394 395
f 393 395 396
f 392 391 395
f 392 395 394
f 389 393 396
f 389 396 390
f 390 397 398
f 390 398 391
f 396 395 399
f 396 399 400
f 391 398 399
f 391 399 395
f 390 396 400
f 390 400 397
f 397 401 402
f 397 402 398
f 400 399 403
f 400 403 404
f 398 402 403
f 398 403 399
f 397 400 404
f 397 404 401
f 401 405 406
f 401 406 402
f 404 403 407
f 404 407 408
f 402 406 407
f 402 407 403
f 401 404 408
f 401 408 405
f 405 409 410
f 405 410 406
f 408 407 411
f 408 411 412
f 406 410 411
f 406 411 407
f 405 408 412
f 405 412 409
f 409 413 414
f 409 414 410
f 412 411 415
f 412 415 416
f 410 414 415
f 410 415 411
f 409 412 416
f 409 416 413
f 413 417 418
f 413 418 414
f 416 415 419
f 416 419 420
f 414 418 419
f 414 419 415
f 413 416 420
f 413 420 417
f 417 421 422
f 417 422 418
f 420 419 423
f 420 423 424
f 418 422 423
f 418 423 419
f 417 420 424
f 417 424 421
f 421 425 426
f 421 426 422
f 424 423 427
f 424 427 428
f 422 426 427
f 422 427 423
f 421 424 428
f 421 428 425
f 425 359 429
f 425 429 426
f 428 427 430
f 428 430 362
f 426 429 430
f 426 430 427
f 425 428 362
f 425 362 359
f 359 355 431
f 359 431 429
f 362 430 432
f 362 432 358
f 429 431 432
f 429 432 430
f 359 362 358
f 359 358 355
f 355 351 433
f 355 433 431
f 358 432 434
f 358 434 354
f 431 433 434
f 431 434 432
f 355 358 354
f 355 354 351
f 351 347 435
f 351 435 433
f 354 434 436
f 354 436 350
f 433 435 436
f 433 436 434
f 351 354 350
f 351 350 347
f 347 343 437
f 347 437 435
f 350 436 438
f 350 438 346
f 435 437 438
f 435 438 436
f 347 350 346
f 347 346 343
f 343 439 440
f 343 440 437
f 346 438 441
f 346 441 442
f 437 440 441
f 437 441 438
f 343 346 442
f 343 442 439
f 439 389 392
f 439 392 440
f 442 441 394
f 442 394 393
f 440 392 394
f 440 394 441
f 439 442 393
f 439 393 389
f 443 444 445
f 443 445 446
f 447 448 449
f 447 449 450
f 446 445 449
f 446 449 448
f 443 447 450
f 443 450 444
f 444 451 452
f 444 452 445
f 450 449 453
f 450 453 454
f 445 452 453
f 445 453 449
f 444 450 454
f 444 454 451
f 451 455 456
f 451 456 452
f 454 453 457
f 454 457 458
f 452 456 457
f 452 457 453
f 451 454 458
f 451 458 455
f 455 459 460
f 455 460 456
f 458 457 461
f 458 461 462
f 456 460 461
f 456 461 457
f 455 458 462
f 455 462 459
f 459 463 464
f 459 464 460
f 462 461 465
f 462 465 466
f 460 464 465
f 460 465 461
f 459 462 466
f 459 466 463
f 463 467 468
f 463 468 464
f 466 465 469
f 466 469 470
f 464 468 469
f 464 469 465
f 463 466 470
f 463 470 467
f 467 471 472
f 467 472 468
f 470 469 473
f 470 473 474
f 468 472 473
f 468 473 469
f 467 470 474
f 467 474 471
f 471 475 476
f 471 476 472
f 474 473 477
f 474 477 478
f 472 476 477
f 472 477 473
f 471 474 478
f 471 478 475
f 475 479 480
f 475 480 476
f 478 477 481
f 478 481 482
f 476 480 481
f 476 481 477
f 475 478 482
f 475 482 479
f 479 413 483
f 479 483 480
f 482 481 484
f 482 484 416
f 480 483 484
f 480 484 481
f 479 482 416
f 479 416 413
f 413 409 485
f 413 485 483
f 416 484 486
f 416 486 412
f 483 485 486
f 483 486 484
f 413 416 412
f 413 412 409
f 409 405 487
f 409 487 485
f 412 486 488
f 412 488 408
f 485 487 488
f 485 488 486
f 409 412 408
f 409 408 405
f 405 401 489
f 405 489 487
f 408 488 490
f 408 490 404
f 487 489 490
f 487 490 488
f 405 408 404
f 405 404 401
f 401 397 491
f 401 491 489
f 404 490 492
f 404 492 400
f 489 491 492
f 489 492 490
f 401 404 400
f 401 400 397
f 397 493 494
f 397 494 491
f 400 492 495
f 400 495 496
f 491 494 495
f 491 495 492
f 397 400 496
f 397 496 493
f 493 443 446
f 493 446 494
f 496 495 448
f 496 448 447
f 494 446 448
f 494 448 495
f 493 496 447
f 493 447 443
f 497 498 499
f 497 499 500
f 501 502 503
f 501 503 504
f 500 499 503
f 500 503 502
f 497 501 504
f 497 504 498
f 498 505 506
f 498 506 499
f 504 503 507
f 504 507 508
f 499 506 507
f 499 507 503
f 498 504 508
f 498 508 505
f 505 509 510
f 505 510 506
f 508 507 511
f 508 511 512
f 506 510 511
f 506 511 507
f 505 508 512
f 505 512 509
f 509 513 514
f 509 514 510
f 512 511 515
f 512 515 516
f 510 514 515
f 510 515 511
f 509 512 516
f 509 516 513
f 513 517 518
f 513 518 514
f 516 515 519
f 516 519 520
f 514 518 519
f 514 519 515
f 513 516 520
f 513 520 517
f 517 521 522
f 517 522 518
f 520 519 523
f 520 523 524
f 518 522 523
f 518 523 519
f 517 520 524
f 517 524 521
f 521 525 526
f 521 526 522
f 524 523 527
f 524 527 528
f 522 526 527
f 522 527 523
f 521 524 528
f 521 528 525
f 525 529 530
f 525 530 526
f 528 527 531
f 528 531 532
f 526 530 531
f 526 531 527
f 525 528 532
f 525 532 529
f 529 533 534
f 529 534 530
f 532 531 535
f 532 535 536
f 530 534 535
f 530 535 531
f 529 532 536
f 529 536 533
f 533 467 537
f 533 537 534
f 536 535 538
f 536 538 470
f 534 537 538
f 534 538 535
f 533 536 470
f 533 470 467
f 467 463 539
f 467 539 537
f 470 538 540
f 470 540 466
f 537 539 540
f 537 540 538
f 467 470 466
f 467 466 463
f 463 459 541
f 463 541 539
f 466 540 542
f 466 542 462
f 539 541 542
f 539 542 540
f 463 466 462
f 463 462 459
f 459 455 543
f 459 543 541
f 462 542 544
f 462 544 458
f 541 543 544
f 541 544 542
f 459 462 458
f 459 458 455
f 455 451 545
f 455 545 543
f 458 544 546
f 458 546 454
f 543 545 546
f 543 546 544
f 455 458 454
f 455 454 451
f 451 547 548
f 451 548 545
f 454 546 549
f 454 549 550
f 545 548 549
f 545 549 546
f 451 454 550
f 451 550 547
f 547 497 500
f 547 500 548
f 550 549 502
f 550 502 501
f 548 500 502
f 548 502 549
f 547 550 501
f 547 501 497
