# Extracted from KIPR Simulator demobot_v6.glb; GPL-3.0
mtllib metal_017.mtl
s off
usemtl material_0
v 0.0110346 0.0027709 -0.0007604
v 0.0110346 0.0040857 -0.0000061
v 0.0110346 0.0026201 -0.0003940
v 0.0110346 0.0025662 -0.0000061
v 0.0110346 0.0026201 0.0003927
v 0.0110346 0.0027709 0.0007604
v 0.0110346 0.0030188 0.0010729
v 0.0110346 0.0033313 0.0013208
v 0.0110346 0.0036977 0.0014717
v 0.0110346 0.0040857 0.0015256
v 0.0110346 0.0044844 0.0014717
v 0.0110346 0.0048522 0.0013208
v 0.0110346 0.0051647 0.0010729
v 0.0110346 0.0054125 0.0007604
v 0.0110346 0.0055634 0.0003927
v 0.0110346 0.0056173 -0.0000061
v 0.0110346 0.0055634 -0.0003940
v 0.0110346 0.0054125 -0.0007604
v 0.0110346 0.0051647 -0.0010729
v 0.0110346 0.0048522 -0.0013208
v 0.0110346 0.0044844 -0.0014717
v 0.0110346 0.0040857 -0.0015256
v 0.0110346 0.0036977 -0.0014717
v 0.0110346 0.0033313 -0.0013208
v 0.0110346 0.0030188 -0.0010729
v 0.0103987 0.0025662 -0.0015256
v 0.0103987 0.0030080 -0.0018704
v 0.0110346 0.0030188 -0.0010729
v 0.0110346 0.0033313 -0.0013208
v 0.0103987 0.0035361 -0.0020859
v 0.0110346 0.0036977 -0.0014717
v 0.0103987 0.0040857 -0.0021614
v 0.0110346 0.0040857 -0.0015256
v 0.0103987 0.0046461 -0.0020859
v 0.0110346 0.0044844 -0.0014717
v 0.0103987 0.0051755 -0.0018704
v 0.0110346 0.0048522 -0.0013208
v 0.0103987 0.0056173 -0.0015256
v 0.0110346 0.0051647 -0.0010729
v 0.0103987 0.0059622 -0.0010837
v 0.0110346 0.0054125 -0.0007604
v 0.0103987 0.0061777 -0.0005557
v 0.0110346 0.0055634 -0.0003940
v 0.0103987 0.0062531 -0.0000061
v 0.0110346 0.0056173 -0.0000061
v 0.0103987 0.0061777 0.0005543
v 0.0110346 0.0055634 0.0003927
v 0.0103987 0.0059622 0.0010837
v 0.0110346 0.0054125 0.0007604
v 0.0103987 0.0056173 0.0015256
v 0.0110346 0.0051647 0.0010729
v 0.0103987 0.0051755 0.0018704
v 0.0110346 0.0048522 0.0013208
v 0.0103987 0.0046461 0.0020859
v 0.0110346 0.0044844 0.0014717
v 0.0103987 0.0040857 0.0021614
v 0.0110346 0.0040857 0.0015256
v 0.0103987 0.0035361 0.0020859
v 0.0110346 0.0036977 0.0014717
v 0.0103987 0.0030080 0.0018704
v 0.0110346 0.0033313 0.0013208
v 0.0103987 0.0025662 0.0015256
v 0.0110346 0.0030188 0.0010729
v 0.0103987 0.0022213 0.0010837
v 0.0110346 0.0027709 0.0007604
v 0.0103987 0.0020058 0.0005543
v 0.0110346 0.0026201 0.0003927
v 0.0103987 0.0019304 -0.0000061
v 0.0110346 0.0025662 -0.0000061
v 0.0103987 0.0020058 -0.0005557
v 0.0110346 0.0026201 -0.0003940
v 0.0103987 0.0022213 -0.0010837
v 0.0110346 0.0027709 -0.0007604
v -0.0080158 0.0046461 -0.0020859
v -0.0080158 0.0051755 -0.0018704
v 0.0103987 0.0046461 -0.0020859
v 0.0103987 0.0051755 -0.0018704
v -0.0080158 0.0056173 -0.0015256
v 0.0103987 0.0056173 -0.0015256
v -0.0080158 0.0059622 -0.0010837
v 0.0103987 0.0059622 -0.0010837
v -0.0080158 0.0061777 -0.0005557
v 0.0103987 0.0061777 -0.0005557
v -0.0080158 0.0062531 -0.0000061
v 0.0103987 0.0062531 -0.0000061
v -0.0080158 0.0061777 0.0005543
v 0.0103987 0.0061777 0.0005543
v -0.0080158 0.0059622 0.0010837
v 0.0103987 0.0059622 0.0010837
v -0.0080158 0.0056173 0.0015256
v 0.0103987 0.0056173 0.0015256
v -0.0080158 0.0051755 0.0018704
v 0.0103987 0.0051755 0.0018704
v -0.0080158 0.0046461 0.0020859
v 0.0103987 0.0046461 0.0020859
v -0.0080158 0.0040857 0.0021614
v 0.0103987 0.0040857 0.0021614
v -0.0080158 0.0035361 0.0020859
v 0.0103987 0.0035361 0.0020859
v -0.0080158 0.0030080 0.0018704
v 0.0103987 0.0030080 0.0018704
v -0.0080158 0.0025662 0.0015256
v 0.0103987 0.0025662 0.0015256
v -0.0080158 0.0022213 0.0010837
v 0.0103987 0.0022213 0.0010837
v -0.0080158 0.0020058 0.0005543
v 0.0103987 0.0020058 0.0005543
v -0.0080158 0.0019304 -0.0000061
v 0.0103987 0.0019304 -0.0000061
v -0.0080158 0.0020058 -0.0005557
v 0.0103987 0.0020058 -0.0005557
v -0.0080158 0.0022213 -0.0010837
v 0.0103987 0.0022213 -0.0010837
v -0.0080158 0.0025662 -0.0015256
v 0.0103987 0.0025662 -0.0015256
v -0.0080158 0.0030080 -0.0018704
v 0.0103987 0.0030080 -0.0018704
v -0.0080158 0.0035361 -0.0020859
v 0.0103987 0.0035361 -0.0020859
v -0.0080158 0.0040857 -0.0021614
v 0.0103987 0.0040857 -0.0021614
v -0.0106574 0.0016609 -0.0003940
v -0.0106574 0.0016609 -0.0003832
v -0.0093305 0.0019196 -0.0001354
v -0.0106574 0.0016609 -0.0000061
v -0.0093305 0.0019196 0.0001340
v -0.0106574 0.0016609 0.0003819
v -0.0106574 0.0016609 0.0003927
v -0.0080158 0.0056173 -0.0015256
v -0.0080158 0.0051755 -0.0018704
v -0.0080158 0.0064255 -0.0032188
v -0.0080158 0.0058975 -0.0035421
v -0.0080158 0.0053156 -0.0037792
v -0.0080158 0.0046461 -0.0020859
v -0.0080158 0.0047107 -0.0039301
v -0.0080158 0.0040857 -0.0021614
v -0.0080158 0.0040857 -0.0039732
v -0.0080158 0.0034714 -0.0039301
v -0.0080158 0.0035361 -0.0020859
v -0.0080158 0.0028679 -0.0037792
v -0.0080158 0.0022860 -0.0035421
v -0.0080158 0.0030080 -0.0018704
v -0.0080158 0.0017579 -0.0032188
v -0.0080158 0.0025662 -0.0015256
v -0.0080158 0.0012824 -0.0028093
v -0.0080158 0.0008729 -0.0023338
v -0.0080158 0.0022213 -0.0010837
v -0.0080158 0.0005496 -0.0018058
v -0.0080158 0.0003125 -0.0012238
v -0.0080158 0.0020058 -0.0005557
v -0.0080158 0.0001616 -0.0006203
v -0.0080158 0.0019304 -0.0000061
v -0.0080158 0.0001185 -0.0000061
v -0.0080158 0.0001616 0.0006190
v -0.0080158 0.0020058 0.0005543
v -0.0080158 0.0003125 0.0012238
v -0.0080158 0.0005496 0.0018058
v -0.0080158 0.0022213 0.0010837
v -0.0080158 0.0008729 0.0023338
v -0.0080158 0.0025662 0.0015256
v -0.0080158 0.0012824 0.0028080
v -0.0080158 0.0017579 0.0032175
v -0.0080158 0.0030080 0.0018704
v -0.0080158 0.0022860 0.0035408
v -0.0080158 0.0028679 0.0037779
v -0.0080158 0.0035361 0.0020859
v -0.0080158 0.0034714 0.0039301
v -0.0080158 0.0040857 0.0021614
v -0.0080158 0.0040857 0.0039732
v -0.0080158 0.0047107 0.0039301
v -0.0080158 0.0046461 0.0020859
v -0.0080158 0.0053156 0.0037779
v -0.0080158 0.0058975 0.0035408
v -0.0080158 0.0051755 0.0018704
v -0.0080158 0.0064255 0.0032175
v -0.0080158 0.0056173 0.0015256
v -0.0080158 0.0068997 0.0028080
v -0.0080158 0.0073092 0.0023338
v -0.0080158 0.0059622 0.0010837
v -0.0080158 0.0076325 0.0018058
v -0.0080158 0.0078696 0.0012238
v -0.0080158 0.0061777 0.0005543
v -0.0080158 0.0080218 0.0006190
v -0.0080158 0.0062531 -0.0000061
v -0.0080158 0.0080649 -0.0000061
v -0.0080158 0.0080218 -0.0006203
v -0.0080158 0.0061777 -0.0005557
v -0.0080158 0.0078696 -0.0012238
v -0.0080158 0.0076325 -0.0018058
v -0.0080158 0.0059622 -0.0010837
v -0.0080158 0.0073092 -0.0023338
v -0.0080158 0.0068997 -0.0028093
v -0.0106574 0.0016609 0.0003927
v -0.0107759 0.0021136 0.0004142
v -0.0093305 0.0019196 0.0001340
v -0.0109052 0.0026308 0.0004466
v -0.0093305 0.0039564 0.0001340
v -0.0110346 0.0036223 0.0004681
v -0.0110130 0.0034068 0.0004681
v -0.0109915 0.0031697 0.0004573
v -0.0109915 0.0031266 0.0004573
v -0.0109376 0.0028356 0.0004466
v -0.0109160 0.0026955 0.0004466
v -0.0093305 0.0039564 0.0021722
v -0.0093305 0.0042258 0.0021722
v -0.0093305 0.0039564 0.0001340
v -0.0093305 0.0042258 0.0001340
v -0.0093305 0.0019196 -0.0001354
v -0.0093305 0.0019196 0.0001340
v -0.0093305 0.0039564 -0.0001354
v -0.0093305 0.0042258 -0.0021722
v -0.0093305 0.0039564 -0.0021722
v -0.0093305 0.0042258 -0.0001354
v -0.0093305 0.0062639 -0.0001354
v -0.0093305 0.0062639 0.0001340
v -0.0110346 0.0045598 0.0004681
v -0.0093305 0.0042258 0.0001340
v -0.0110130 0.0045598 0.0006850
v -0.0109915 0.0045491 0.0009221
v -0.0109915 0.0045491 0.0009652
v -0.0109376 0.0045383 0.0012561
v -0.0109160 0.0045383 0.0013962
v -0.0109052 0.0045383 0.0014609
v -0.0093305 0.0042258 0.0021722
v -0.0107759 0.0045060 0.0019782
v -0.0106574 0.0044844 0.0024308
v -0.0106574 0.0044844 0.0024308
v -0.0093305 0.0042258 0.0021722
v -0.0106574 0.0044736 0.0024308
v -0.0106574 0.0040857 0.0024308
v -0.0093305 0.0039564 0.0021722
v -0.0106574 0.0037085 0.0024308
v -0.0106574 0.0036977 0.0024308
v -0.0110346 0.0036223 0.0004681
v -0.0110130 0.0036223 0.0006850
v -0.0093305 0.0039564 0.0001340
v -0.0109915 0.0036331 0.0009221
v -0.0109915 0.0036331 0.0009652
v -0.0109376 0.0036438 0.0012561
v -0.0109160 0.0036438 0.0013962
v -0.0109052 0.0036438 0.0014609
v -0.0093305 0.0039564 0.0021722
v -0.0106574 0.0036977 0.0024308
v -0.0107759 0.0036762 0.0019782
v -0.0106574 0.0036977 -0.0024308
v -0.0093305 0.0039564 -0.0021722
v -0.0106574 0.0037085 -0.0024308
v -0.0093305 0.0042258 -0.0021722
v -0.0106574 0.0040857 -0.0024308
v -0.0106574 0.0044736 -0.0024308
v -0.0106574 0.0044844 -0.0024308
v -0.0110346 0.0045598 -0.0004695
v -0.0110130 0.0045598 -0.0006850
v -0.0093305 0.0042258 -0.0001354
v -0.0109915 0.0045491 -0.0009221
v -0.0109915 0.0045491 -0.0009652
v -0.0109376 0.0045383 -0.0012561
v -0.0109160 0.0045383 -0.0013962
v -0.0109052 0.0045383 -0.0014609
v -0.0093305 0.0042258 -0.0021722
v -0.0106574 0.0044844 -0.0024308
v -0.0107759 0.0045060 -0.0019782
v -0.0110346 0.0045598 -0.0004695
v -0.0093305 0.0042258 -0.0001354
v -0.0110130 0.0047767 -0.0004695
v -0.0109915 0.0050138 -0.0004587
v -0.0109915 0.0050569 -0.0004587
v -0.0109376 0.0053479 -0.0004479
v -0.0109160 0.0054880 -0.0004479
v -0.0109052 0.0055526 -0.0004479
v -0.0093305 0.0062639 -0.0001354
v -0.0107759 0.0060699 -0.0004156
v -0.0106574 0.0065225 -0.0003940
v -0.0106574 0.0065225 -0.0003940
v -0.0093305 0.0062639 -0.0001354
v -0.0106574 0.0065225 -0.0003832
v -0.0093305 0.0062639 0.0001340
v -0.0106574 0.0065225 -0.0000061
v -0.0106574 0.0065225 0.0003819
v -0.0106574 0.0065225 0.0003927
v -0.0110346 0.0045598 0.0004681
v -0.0110130 0.0047767 0.0004681
v -0.0093305 0.0042258 0.0001340
v -0.0109915 0.0050138 0.0004573
v -0.0109915 0.0050569 0.0004573
v -0.0109376 0.0053479 0.0004466
v -0.0109160 0.0054880 0.0004466
v -0.0109052 0.0055526 0.0004466
v -0.0093305 0.0062639 0.0001340
v -0.0106574 0.0065225 0.0003927
v -0.0107759 0.0060699 0.0004142
v -0.0080158 0.0068997 -0.0028093
v -0.0080158 0.0064255 -0.0032188
v -0.0084899 0.0069644 -0.0028740
v -0.0084899 0.0064794 -0.0032835
v -0.0080158 0.0058975 -0.0035421
v -0.0084899 0.0059406 -0.0036176
v -0.0080158 0.0053156 -0.0037792
v -0.0084899 0.0053479 -0.0038654
v -0.0080158 0.0047107 -0.0039301
v -0.0084899 0.0047215 -0.0040163
v -0.0080158 0.0040857 -0.0039732
v -0.0084899 0.0040857 -0.0040594
v -0.0080158 0.0034714 -0.0039301
v -0.0084899 0.0034606 -0.0040163
v -0.0080158 0.0028679 -0.0037792
v -0.0084899 0.0028356 -0.0038654
v -0.0080158 0.0022860 -0.0035421
v -0.0084899 0.0022429 -0.0036176
v -0.0080158 0.0017579 -0.0032188
v -0.0084899 0.0017040 -0.0032835
v -0.0080158 0.0012824 -0.0028093
v -0.0084899 0.0012178 -0.0028740
v -0.0080158 0.0008729 -0.0023338
v -0.0084899 0.0008082 -0.0023877
v -0.0080158 0.0005496 -0.0018058
v -0.0084899 0.0004742 -0.0018489
v -0.0080158 0.0003125 -0.0012238
v -0.0084899 0.0002263 -0.0012561
v -0.0080158 0.0001616 -0.0006203
v -0.0084899 0.0000754 -0.0006311
v -0.0080158 0.0001185 -0.0000061
v -0.0084899 0.0000323 -0.0000061
v -0.0080158 0.0001616 0.0006190
v -0.0084899 0.0000754 0.0006298
v -0.0080158 0.0003125 0.0012238
v -0.0084899 0.0002263 0.0012561
v -0.0080158 0.0005496 0.0018058
v -0.0084899 0.0004742 0.0018489
v -0.0080158 0.0008729 0.0023338
v -0.0084899 0.0008082 0.0023877
v -0.0080158 0.0012824 0.0028080
v -0.0084899 0.0012178 0.0028726
v -0.0080158 0.0017579 0.0032175
v -0.0084899 0.0017040 0.0032821
v -0.0080158 0.0022860 0.0035408
v -0.0084899 0.0022429 0.0036162
v -0.0080158 0.0028679 0.0037779
v -0.0084899 0.0028356 0.0038654
v -0.0080158 0.0034714 0.0039301
v -0.0084899 0.0034606 0.0040163
v -0.0080158 0.0040857 0.0039732
v -0.0084899 0.0040857 0.0040594
v -0.0080158 0.0047107 0.0039301
v -0.0084899 0.0047215 0.0040163
v -0.0080158 0.0053156 0.0037779
v -0.0084899 0.0053479 0.0038654
v -0.0080158 0.0058975 0.0035408
v -0.0084899 0.0059406 0.0036162
v -0.0080158 0.0064255 0.0032175
v -0.0084899 0.0064794 0.0032821
v -0.0080158 0.0068997 0.0028080
v -0.0084899 0.0069644 0.0028726
v -0.0080158 0.0073092 0.0023338
v -0.0084899 0.0073739 0.0023877
v -0.0080158 0.0076325 0.0018058
v -0.0084899 0.0077080 0.0018489
v -0.0080158 0.0078696 0.0012238
v -0.0084899 0.0079572 0.0012561
v -0.0080158 0.0080218 0.0006190
v -0.0084899 0.0081080 0.0006298
v -0.0080158 0.0080649 -0.0000061
v -0.0084899 0.0081511 -0.0000061
v -0.0080158 0.0080218 -0.0006203
v -0.0084899 0.0081080 -0.0006311
v -0.0080158 0.0078696 -0.0012238
v -0.0084899 0.0079572 -0.0012561
v -0.0080158 0.0076325 -0.0018058
v -0.0084899 0.0077080 -0.0018489
v -0.0080158 0.0073092 -0.0023338
v -0.0084899 0.0073739 -0.0023877
v -0.0089749 0.0073954 -0.0024092
v -0.0089749 0.0069859 -0.0028955
v -0.0089749 0.0065010 -0.0033158
v -0.0089749 0.0059514 -0.0036499
v -0.0089749 0.0053587 -0.0038870
v -0.0089749 0.0047336 -0.0040379
v -0.0089749 0.0040857 -0.0040917
v -0.0089749 0.0034499 -0.0040379
v -0.0089749 0.0028248 -0.0038870
v -0.0089749 0.0022321 -0.0036499
v -0.0089749 0.0016825 -0.0033158
v -0.0089749 0.0011962 -0.0028955
v -0.0089749 0.0007759 -0.0024092
v -0.0089749 0.0004418 -0.0018596
v -0.0089749 0.0002048 -0.0012669
v -0.0089749 0.0000539 -0.0006419
v -0.0089749 0.0000000 -0.0000061
v -0.0089749 0.0000539 0.0006419
v -0.0089749 0.0002048 0.0012669
v -0.0089749 0.0004418 0.0018596
v -0.0089749 0.0007759 0.0024092
v -0.0089749 0.0011962 0.0028942
v -0.0089749 0.0016825 0.0033037
v -0.0089749 0.0022321 0.0036486
v -0.0089749 0.0028248 0.0038870
v -0.0089749 0.0034499 0.0040379
v -0.0089749 0.0040857 0.0040917
v -0.0089749 0.0047336 0.0040379
v -0.0089749 0.0053587 0.0038870
v -0.0089749 0.0059514 0.0036486
v -0.0089749 0.0065010 0.0033037
v -0.0089749 0.0069859 0.0028942
v -0.0089749 0.0073954 0.0024092
v -0.0089749 0.0077403 0.0018596
v -0.0089749 0.0079787 0.0012669
v -0.0089749 0.0081296 0.0006419
v -0.0089749 0.0081835 -0.0000061
v -0.0089749 0.0081296 -0.0006419
v -0.0089749 0.0079787 -0.0012669
v -0.0089749 0.0077403 -0.0018596
v -0.0094612 0.0077080 -0.0018489
v -0.0094612 0.0073739 -0.0023877
v -0.0094612 0.0069644 -0.0028740
v -0.0094612 0.0064794 -0.0032835
v -0.0094612 0.0059406 -0.0036176
v -0.0094612 0.0053479 -0.0038654
v -0.0094612 0.0047215 -0.0040163
v -0.0094612 0.0040857 -0.0040594
v -0.0094612 0.0034606 -0.0040163
v -0.0094612 0.0028356 -0.0038654
v -0.0094612 0.0022429 -0.0036176
v -0.0094612 0.0017040 -0.0032835
v -0.0094612 0.0012178 -0.0028740
v -0.0094612 0.0008082 -0.0023877
v -0.0094612 0.0004742 -0.0018489
v -0.0094612 0.0002263 -0.0012561
v -0.0094612 0.0000754 -0.0006311
v -0.0094612 0.0000323 -0.0000061
v -0.0094612 0.0000754 0.0006298
v -0.0094612 0.0002263 0.0012561
v -0.0094612 0.0004742 0.0018489
v -0.0094612 0.0008082 0.0023877
v -0.0094612 0.0012178 0.0028726
v -0.0094612 0.0017040 0.0032821
v -0.0094612 0.0022429 0.0036162
v -0.0094612 0.0028356 0.0038654
v -0.0094612 0.0034606 0.0040163
v -0.0094612 0.0040857 0.0040594
v -0.0094612 0.0047215 0.0040163
v -0.0094612 0.0053479 0.0038654
v -0.0094612 0.0059406 0.0036162
v -0.0094612 0.0064794 0.0032821
v -0.0094612 0.0069644 0.0028726
v -0.0094612 0.0073739 0.0023877
v -0.0094612 0.0077080 0.0018489
v -0.0094612 0.0079572 0.0012561
v -0.0094612 0.0081080 0.0006298
v -0.0094612 0.0081511 -0.0000061
v -0.0094612 0.0081080 -0.0006311
v -0.0094612 0.0079572 -0.0012561
v -0.0099461 0.0078696 -0.0012238
v -0.0099461 0.0076325 -0.0018058
v -0.0099461 0.0073092 -0.0023338
v -0.0099461 0.0068997 -0.0028093
v -0.0099461 0.0064255 -0.0032188
v -0.0099461 0.0058975 -0.0035421
v -0.0099461 0.0053156 -0.0037792
v -0.0099461 0.0047107 -0.0039301
v -0.0099461 0.0040857 -0.0039732
v -0.0099461 0.0034714 -0.0039301
v -0.0099461 0.0028679 -0.0037792
v -0.0099461 0.0022860 -0.0035421
v -0.0099461 0.0017579 -0.0032188
v -0.0099461 0.0012824 -0.0028093
v -0.0099461 0.0008729 -0.0023338
v -0.0099461 0.0005496 -0.0018058
v -0.0099461 0.0003125 -0.0012238
v -0.0099461 0.0001616 -0.0006203
v -0.0099461 0.0001185 -0.0000061
v -0.0099461 0.0001616 0.0006190
v -0.0099461 0.0003125 0.0012238
v -0.0099461 0.0005496 0.0018058
v -0.0099461 0.0008729 0.0023338
v -0.0099461 0.0012824 0.0028080
v -0.0099461 0.0017579 0.0032175
v -0.0099461 0.0022860 0.0035408
v -0.0099461 0.0028679 0.0037779
v -0.0099461 0.0034714 0.0039301
v -0.0099461 0.0040857 0.0039732
v -0.0099461 0.0047107 0.0039301
v -0.0099461 0.0053156 0.0037779
v -0.0099461 0.0058975 0.0035408
v -0.0099461 0.0064255 0.0032175
v -0.0099461 0.0068997 0.0028080
v -0.0099461 0.0073092 0.0023338
v -0.0099461 0.0076325 0.0018058
v -0.0099461 0.0078696 0.0012238
v -0.0099461 0.0080218 0.0006190
v -0.0099461 0.0080649 -0.0000061
v -0.0099461 0.0080218 -0.0006203
v -0.0102802 0.0064687 0.0023769
v -0.0102802 0.0068027 0.0019674
v -0.0105712 0.0060053 0.0019135
v -0.0105712 0.0062855 0.0015902
v -0.0102802 0.0070829 0.0015256
v -0.0099461 0.0078696 0.0012238
v -0.0099461 0.0076325 0.0018058
v -0.0099461 0.0073092 0.0023338
v -0.0099461 0.0068997 0.0028080
v -0.0102802 0.0060591 0.0027110
v -0.0099461 0.0064255 0.0032175
v -0.0102802 0.0017148 0.0023769
v -0.0102802 0.0021243 0.0027110
v -0.0105712 0.0021782 0.0019135
v -0.0105712 0.0025015 0.0021937
v -0.0102802 0.0025662 0.0029912
v -0.0099461 0.0028679 0.0037779
v -0.0099461 0.0022860 0.0035408
v -0.0099461 0.0017579 0.0032175
v -0.0099461 0.0012824 0.0028080
v -0.0102802 0.0013794 0.0019674
v -0.0099461 0.0008729 0.0023338
v -0.0102802 0.0017148 -0.0023769
v -0.0102802 0.0013794 -0.0019674
v -0.0105712 0.0021782 -0.0019135
v -0.0105712 0.0018980 -0.0015902
v -0.0102802 0.0010992 -0.0015256
v -0.0099461 0.0003125 -0.0012238
v -0.0099461 0.0005496 -0.0018058
v -0.0099461 0.0008729 -0.0023338
v -0.0099461 0.0012824 -0.0028093
v -0.0102802 0.0021243 -0.0027123
v -0.0099461 0.0017579 -0.0032188
v -0.0099461 0.0053156 -0.0037792
v -0.0102802 0.0056173 -0.0029925
v -0.0099461 0.0058975 -0.0035421
v -0.0102802 0.0060591 -0.0027123
v -0.0099461 0.0064255 -0.0032188
v -0.0099461 0.0073092 -0.0023338
v -0.0099461 0.0068997 -0.0028093
v -0.0102802 0.0068027 -0.0019674
v -0.0102802 0.0064687 -0.0023769
v -0.0105712 0.0060053 -0.0019135
v -0.0105712 0.0056820 -0.0021937
v -0.0105712 0.0053156 -0.0024092
v -0.0102802 0.0051324 -0.0031973
v -0.0099461 0.0047107 -0.0039301
v -0.0102802 0.0046137 -0.0033158
v -0.0099461 0.0040857 -0.0039732
v -0.0102802 0.0040857 -0.0033589
v -0.0099461 0.0034714 -0.0039301
v -0.0102802 0.0035684 -0.0033158
v -0.0099461 0.0028679 -0.0037792
v -0.0102802 0.0030511 -0.0031973
v -0.0099461 0.0022860 -0.0035421
v -0.0102802 0.0025662 -0.0029925
v -0.0105712 0.0028679 -0.0024092
v -0.0105712 0.0025015 -0.0021937
v -0.0107867 0.0029003 -0.0016441
v -0.0107867 0.0026524 -0.0014393
v -0.0107867 0.0024476 -0.0011915
v -0.0107867 0.0022752 -0.0009221
v -0.0105712 0.0016825 -0.0012238
v -0.0102802 0.0008945 -0.0010406
v -0.0099461 0.0001616 -0.0006203
v -0.0102802 0.0007759 -0.0005233
v -0.0099461 0.0001185 -0.0000061
v -0.0102802 0.0007328 -0.0000061
v -0.0099461 0.0001616 0.0006190
v -0.0102802 0.0007759 0.0005220
v -0.0099461 0.0003125 0.0012238
v -0.0102802 0.0008945 0.0010406
v -0.0099461 0.0005496 0.0018058
v -0.0102802 0.0010992 0.0015256
v -0.0105712 0.0016825 0.0012238
v -0.0105712 0.0018980 0.0015902
v -0.0107867 0.0024476 0.0011915
v -0.0107867 0.0026524 0.0014393
v -0.0107867 0.0029003 0.0016441
v -0.0107867 0.0031697 0.0018165
v -0.0105712 0.0028679 0.0024092
v -0.0102802 0.0030511 0.0031852
v -0.0099461 0.0034714 0.0039301
v -0.0102802 0.0035684 0.0033145
v -0.0099461 0.0040857 0.0039732
v -0.0102802 0.0040857 0.0033576
v -0.0099461 0.0047107 0.0039301
v -0.0102802 0.0046137 0.0033145
v -0.0099461 0.0053156 0.0037779
v -0.0102802 0.0051324 0.0031852
v -0.0099461 0.0058975 0.0035408
v -0.0102802 0.0056173 0.0029912
v -0.0105712 0.0053156 0.0024092
v -0.0105712 0.0056820 0.0021937
v -0.0107867 0.0052832 0.0016441
v -0.0107867 0.0055311 0.0014393
v -0.0107867 0.0057358 0.0011915
v -0.0107867 0.0059083 0.0009221
v -0.0105712 0.0065010 0.0012238
v -0.0102802 0.0072769 0.0010406
v -0.0099461 0.0080218 0.0006190
v -0.0102802 0.0074062 0.0005220
v -0.0099461 0.0080649 -0.0000061
v -0.0102802 0.0074493 -0.0000061
v -0.0099461 0.0080218 -0.0006203
v -0.0102802 0.0074062 -0.0005233
v -0.0099461 0.0078696 -0.0012238
v -0.0102802 0.0072769 -0.0010406
v -0.0099461 0.0076325 -0.0018058
v -0.0102802 0.0070829 -0.0015256
v -0.0105712 0.0065010 -0.0012238
v -0.0105712 0.0062855 -0.0015902
v -0.0107867 0.0057358 -0.0011915
v -0.0107867 0.0055311 -0.0014393
v -0.0107867 0.0052832 -0.0016441
v -0.0107867 0.0050138 -0.0018165
v -0.0105712 0.0049276 -0.0025722
v -0.0105712 0.0045167 -0.0026692
v -0.0105712 0.0040857 -0.0027123
v -0.0105712 0.0036654 -0.0026692
v -0.0105712 0.0032559 -0.0025722
v -0.0107867 0.0034606 -0.0019351
v -0.0107867 0.0031697 -0.0018165
v -0.0109484 0.0034822 -0.0012023
v -0.0109484 0.0032990 -0.0010837
v -0.0109484 0.0031373 -0.0009544
v -0.0109484 0.0030080 -0.0007928
v -0.0109484 0.0028895 -0.0006096
v -0.0107867 0.0021567 -0.0006311
v -0.0105712 0.0015195 -0.0008359
v -0.0105712 0.0014225 -0.0004263
v -0.0105712 0.0013794 -0.0000061
v -0.0105712 0.0014225 0.0004250
v -0.0105712 0.0015195 0.0008359
v -0.0107867 0.0021567 0.0006298
v -0.0107867 0.0022752 0.0009221
v -0.0109484 0.0028895 0.0006082
v -0.0109484 0.0030080 0.0007928
v -0.0109484 0.0031373 0.0009544
v -0.0109484 0.0032990 0.0010837
v -0.0109484 0.0034822 0.0011915
v -0.0107867 0.0034606 0.0019351
v -0.0105712 0.0032559 0.0025709
v -0.0105712 0.0036654 0.0026679
v -0.0105712 0.0040857 0.0027002
v -0.0105712 0.0045167 0.0026679
v -0.0105712 0.0049276 0.0025709
v -0.0107867 0.0047215 0.0019351
v -0.0107867 0.0050138 0.0018165
v -0.0109484 0.0046999 0.0011915
v -0.0109484 0.0048845 0.0010837
v -0.0109484 0.0050461 0.0009544
v -0.0109484 0.0051755 0.0007928
v -0.0109484 0.0052832 0.0006082
v -0.0107867 0.0060268 0.0006298
v -0.0105712 0.0066626 0.0008359
v -0.0105712 0.0067596 0.0004250
v -0.0105712 0.0067920 -0.0000061
v -0.0105712 0.0067596 -0.0004263
v -0.0105712 0.0066626 -0.0008359
v -0.0107867 0.0060268 -0.0006311
v -0.0107867 0.0059083 -0.0009221
v -0.0109484 0.0052832 -0.0006096
v -0.0109484 0.0051755 -0.0007928
v -0.0109484 0.0050461 -0.0009544
v -0.0109484 0.0048845 -0.0010837
v -0.0109484 0.0046999 -0.0012023
v -0.0107867 0.0047215 -0.0019351
v -0.0106574 0.0044844 -0.0024308
v -0.0106574 0.0044736 -0.0024308
v -0.0106574 0.0040857 -0.0024308
v -0.0106574 0.0037085 -0.0024308
v -0.0106574 0.0036977 -0.0024308
v -0.0107759 0.0036762 -0.0019782
v -0.0109052 0.0036438 -0.0014609
v -0.0109160 0.0036438 -0.0013962
v -0.0109376 0.0036438 -0.0012561
v -0.0109915 0.0036331 -0.0009652
v -0.0109915 0.0036331 -0.0009221
v -0.0110130 0.0036223 -0.0006850
v -0.0110346 0.0036223 -0.0004695
v -0.0110130 0.0034068 -0.0004695
v -0.0109915 0.0031697 -0.0004587
v -0.0109915 0.0031266 -0.0004587
v -0.0109376 0.0028356 -0.0004479
v -0.0109160 0.0026955 -0.0004479
v -0.0109052 0.0026308 -0.0004479
v -0.0107759 0.0021136 -0.0004156
v -0.0106574 0.0016609 -0.0003940
v -0.0106574 0.0016609 -0.0003832
v -0.0106574 0.0016609 -0.0000061
v -0.0106574 0.0016609 0.0003819
v -0.0106574 0.0016609 0.0003927
v -0.0107759 0.0021136 0.0004142
v -0.0109052 0.0026308 0.0004466
v -0.0109160 0.0026955 0.0004466
v -0.0109376 0.0028356 0.0004466
v -0.0109915 0.0031266 0.0004573
v -0.0109915 0.0031697 0.0004573
v -0.0110130 0.0034068 0.0004681
v -0.0110346 0.0036223 0.0004681
v -0.0110130 0.0036223 0.0006850
v -0.0109915 0.0036331 0.0009221
v -0.0109915 0.0036331 0.0009652
v -0.0109376 0.0036438 0.0012561
v -0.0109160 0.0036438 0.0013962
v -0.0109052 0.0036438 0.0014609
v -0.0107759 0.0036762 0.0019782
v -0.0106574 0.0036977 0.0024308
v -0.0106574 0.0037085 0.0024308
v -0.0106574 0.0040857 0.0024308
v -0.0106574 0.0044736 0.0024308
v -0.0106574 0.0044844 0.0024308
v -0.0107759 0.0045060 0.0019782
v -0.0109052 0.0045383 0.0014609
v -0.0109160 0.0045383 0.0013962
v -0.0109376 0.0045383 0.0012561
v -0.0109915 0.0045491 0.0009652
v -0.0109915 0.0045491 0.0009221
v -0.0110130 0.0045598 0.0006850
v -0.0110346 0.0045598 0.0004681
v -0.0110130 0.0047767 0.0004681
v -0.0109915 0.0050138 0.0004573
v -0.0109915 0.0050569 0.0004573
v -0.0109376 0.0053479 0.0004466
v -0.0109160 0.0054880 0.0004466
v -0.0109052 0.0055526 0.0004466
v -0.0107759 0.0060699 0.0004142
v -0.0106574 0.0065225 0.0003927
v -0.0106574 0.0065225 0.0003819
v -0.0106574 0.0065225 -0.0000061
v -0.0106574 0.0065225 -0.0003832
v -0.0106574 0.0065225 -0.0003940
v -0.0107759 0.0060699 -0.0004156
v -0.0109052 0.0055526 -0.0004479
v -0.0109160 0.0054880 -0.0004479
v -0.0109376 0.0053479 -0.0004479
v -0.0109915 0.0050569 -0.0004587
v -0.0109915 0.0050138 -0.0004587
v -0.0110130 0.0047767 -0.0004695
v -0.0110346 0.0045598 -0.0004695
v -0.0110130 0.0045598 -0.0006850
v -0.0109915 0.0045491 -0.0009221
v -0.0109915 0.0045491 -0.0009652
v -0.0109376 0.0045383 -0.0012561
v -0.0109160 0.0045383 -0.0013962
v -0.0109052 0.0045383 -0.0014609
v -0.0107759 0.0045060 -0.0019782
v -0.0106574 0.0016609 -0.0003940
v -0.0093305 0.0019196 -0.0001354
v -0.0107759 0.0021136 -0.0004156
v -0.0109052 0.0026308 -0.0004479
v -0.0093305 0.0039564 -0.0001354
v -0.0109160 0.0026955 -0.0004479
v -0.0109376 0.0028356 -0.0004479
v -0.0109915 0.0031266 -0.0004587
v -0.0109915 0.0031697 -0.0004587
v -0.0110130 0.0034068 -0.0004695
v -0.0110346 0.0036223 -0.0004695
v -0.0106574 0.0036977 -0.0024308
v -0.0107759 0.0036762 -0.0019782
v -0.0093305 0.0039564 -0.0021722
v -0.0109052 0.0036438 -0.0014609
v -0.0093305 0.0039564 -0.0001354
v -0.0109160 0.0036438 -0.0013962
v -0.0109376 0.0036438 -0.0012561
v -0.0110346 0.0036223 -0.0004695
v -0.0110130 0.0036223 -0.0006850
v -0.0109915 0.0036331 -0.0009221
v -0.0109915 0.0036331 -0.0009652
f 1 2 3
f 3 2 4
f 4 2 5
f 5 2 6
f 6 2 7
f 7 2 8
f 8 2 9
f 9 2 10
f 10 2 11
f 11 2 12
f 12 2 13
f 13 2 14
f 14 2 15
f 15 2 16
f 16 2 17
f 17 2 18
f 18 2 19
f 19 2 20
f 20 2 21
f 21 2 22
f 22 2 23
f 23 2 24
f 24 2 25
f 2 1 25
f 26 27 28
f 28 27 29
f 27 30 29
f 29 30 31
f 30 32 31
f 31 32 33
f 32 34 33
f 33 34 35
f 34 36 35
f 35 36 37
f 36 38 37
f 37 38 39
f 38 40 39
f 39 40 41
f 40 42 41
f 41 42 43
f 42 44 43
f 43 44 45
f 44 46 45
f 45 46 47
f 46 48 47
f 47 48 49
f 48 50 49
f 49 50 51
f 50 52 51
f 51 52 53
f 52 54 53
f 53 54 55
f 54 56 55
f 55 56 57
f 56 58 57
f 57 58 59
f 58 60 59
f 59 60 61
f 60 62 61
f 61 62 63
f 62 64 63
f 63 64 65
f 64 66 65
f 65 66 67
f 66 68 67
f 67 68 69
f 68 70 69
f 69 70 71
f 70 72 71
f 71 72 73
f 72 26 73
f 26 28 73
f 74 75 76
f 76 75 77
f 75 78 77
f 77 78 79
f 78 80 79
f 79 80 81
f 80 82 81
f 81 82 83
f 82 84 83
f 83 84 85
f 84 86 85
f 85 86 87
f 86 88 87
f 87 88 89
f 88 90 89
f 89 90 91
f 90 92 91
f 91 92 93
f 92 94 93
f 93 94 95
f 94 96 95
f 95 96 97
f 96 98 97
f 97 98 99
f 98 100 99
f 99 100 101
f 100 102 101
f 101 102 103
f 102 104 103
f 103 104 105
f 104 106 105
f 105 106 107
f 106 108 107
f 107 108 109
f 108 110 109
f 109 110 111
f 110 112 111
f 111 112 113
f 112 114 113
f 113 114 115
f 114 116 115
f 115 116 117
f 116 118 117
f 117 118 119
f 118 120 119
f 119 120 121
f 120 74 121
f 74 76 121
f 122 123 124
f 123 125 124
f 124 125 126
f 125 127 126
f 127 128 126
f 129 130 131
f 131 130 132
f 132 130 133
f 130 134 133
f 133 134 135
f 134 136 135
f 135 136 137
f 137 136 138
f 136 139 138
f 138 139 140
f 140 139 141
f 139 142 141
f 141 142 143
f 142 144 143
f 143 144 145
f 145 144 146
f 144 147 146
f 146 147 148
f 148 147 149
f 147 150 149
f 149 150 151
f 150 152 151
f 151 152 153
f 153 152 154
f 152 155 154
f 154 155 156
f 156 155 157
f 155 158 157
f 157 158 159
f 158 160 159
f 159 160 161
f 161 160 162
f 160 163 162
f 162 163 164
f 164 163 165
f 163 166 165
f 165 166 167
f 166 168 167
f 167 168 169
f 169 168 170
f 168 171 170
f 170 171 172
f 172 171 173
f 171 174 173
f 173 174 175
f 174 176 175
f 175 176 177
f 177 176 178
f 176 179 178
f 178 179 180
f 180 179 181
f 179 182 181
f 181 182 183
f 182 184 183
f 183 184 185
f 185 184 186
f 184 187 186
f 186 187 188
f 188 187 189
f 187 190 189
f 189 190 191
f 190 129 191
f 191 129 192
f 129 131 192
f 193 194 195
f 194 196 195
f 195 196 197
f 198 197 199
f 199 197 200
f 200 197 201
f 201 197 202
f 202 197 203
f 197 196 203
f 204 205 206
f 205 207 206
f 208 209 210
f 209 206 210
f 206 207 210
f 211 212 213
f 212 210 213
f 210 207 213
f 214 213 215
f 213 207 215
f 216 217 218
f 218 217 219
f 219 217 220
f 220 217 221
f 221 217 222
f 222 217 223
f 217 224 223
f 223 224 225
f 224 226 225
f 227 228 229
f 229 228 230
f 228 231 230
f 230 231 232
f 231 233 232
f 234 235 236
f 235 237 236
f 237 238 236
f 238 239 236
f 239 240 236
f 240 241 236
f 236 241 242
f 243 242 244
f 242 241 244
f 245 246 247
f 246 248 247
f 247 248 249
f 249 248 250
f 248 251 250
f 252 253 254
f 253 255 254
f 255 256 254
f 256 257 254
f 257 258 254
f 258 259 254
f 254 259 260
f 261 260 262
f 260 259 262
f 263 264 265
f 265 264 266
f 266 264 267
f 267 264 268
f 268 264 269
f 269 264 270
f 264 271 270
f 270 271 272
f 271 273 272
f 274 275 276
f 275 277 276
f 276 277 278
f 278 277 279
f 277 280 279
f 281 282 283
f 282 284 283
f 284 285 283
f 285 286 283
f 286 287 283
f 287 288 283
f 283 288 289
f 290 289 291
f 289 288 291
f 292 293 294
f 294 293 295
f 293 296 295
f 295 296 297
f 296 298 297
f 297 298 299
f 298 300 299
f 299 300 301
f 300 302 301
f 301 302 303
f 302 304 303
f 303 304 305
f 304 306 305
f 305 306 307
f 306 308 307
f 307 308 309
f 308 310 309
f 309 310 311
f 310 312 311
f 311 312 313
f 312 314 313
f 313 314 315
f 314 316 315
f 315 316 317
f 316 318 317
f 317 318 319
f 318 320 319
f 319 320 321
f 320 322 321
f 321 322 323
f 322 324 323
f 323 324 325
f 324 326 325
f 325 326 327
f 326 328 327
f 327 328 329
f 328 330 329
f 329 330 331
f 330 332 331
f 331 332 333
f 332 334 333
f 333 334 335
f 334 336 335
f 335 336 337
f 336 338 337
f 337 338 339
f 338 340 339
f 339 340 341
f 340 342 341
f 341 342 343
f 342 344 343
f 343 344 345
f 344 346 345
f 345 346 347
f 346 348 347
f 347 348 349
f 348 350 349
f 349 350 351
f 350 352 351
f 351 352 353
f 352 354 353
f 353 354 355
f 354 356 355
f 355 356 357
f 356 358 357
f 357 358 359
f 358 360 359
f 359 360 361
f 360 362 361
f 361 362 363
f 362 364 363
f 363 364 365
f 364 366 365
f 365 366 367
f 366 368 367
f 367 368 369
f 368 370 369
f 369 370 371
f 370 292 371
f 292 294 371
f 371 294 372
f 372 294 373
f 294 295 373
f 373 295 374
f 295 297 374
f 374 297 375
f 297 299 375
f 375 299 376
f 299 301 376
f 376 301 377
f 301 303 377
f 377 303 378
f 303 305 378
f 378 305 379
f 305 307 379
f 379 307 380
f 307 309 380
f 380 309 381
f 309 311 381
f 381 311 382
f 311 313 382
f 382 313 383
f 313 315 383
f 383 315 384
f 315 317 384
f 384 317 385
f 317 319 385
f 385 319 386
f 319 321 386
f 386 321 387
f 321 323 387
f 387 323 388
f 323 325 388
f 388 325 389
f 325 327 389
f 389 327 390
f 327 329 390
f 390 329 391
f 329 331 391
f 391 331 392
f 331 333 392
f 392 333 393
f 333 335 393
f 393 335 394
f 335 337 394
f 394 337 395
f 337 339 395
f 395 339 396
f 339 341 396
f 396 341 397
f 341 343 397
f 397 343 398
f 343 345 398
f 398 345 399
f 345 347 399
f 399 347 400
f 347 349 400
f 400 349 401
f 349 351 401
f 401 351 402
f 351 353 402
f 402 353 403
f 353 355 403
f 403 355 404
f 355 357 404
f 404 357 405
f 357 359 405
f 405 359 406
f 359 361 406
f 406 361 407
f 361 363 407
f 407 363 408
f 363 365 408
f 408 365 409
f 365 367 409
f 409 367 410
f 367 369 410
f 410 369 411
f 369 371 411
f 371 372 411
f 411 372 412
f 412 372 413
f 372 373 413
f 413 373 414
f 373 374 414
f 414 374 415
f 374 375 415
f 415 375 416
f 375 376 416
f 416 376 417
f 376 377 417
f 417 377 418
f 377 378 418
f 418 378 419
f 378 379 419
f 419 379 420
f 379 380 420
f 420 380 421
f 380 381 421
f 421 381 422
f 381 382 422
f 422 382 423
f 382 383 423
f 423 383 424
f 383 384 424
f 424 384 425
f 384 385 425
f 425 385 426
f 385 386 426
f 426 386 427
f 386 387 427
f 427 387 428
f 387 388 428
f 428 388 429
f 388 389 429
f 429 389 430
f 389 390 430
f 430 390 431
f 390 391 431
f 431 391 432
f 391 392 432
f 432 392 433
f 392 393 433
f 433 393 434
f 393 394 434
f 434 394 435
f 394 395 435
f 435 395 436
f 395 396 436
f 436 396 437
f 396 397 437
f 437 397 438
f 397 398 438
f 438 398 439
f 398 399 439
f 439 399 440
f 399 400 440
f 440 400 441
f 400 401 441
f 441 401 442
f 401 402 442
f 442 402 443
f 402 403 443
f 443 403 444
f 403 404 444
f 444 404 445
f 404 405 445
f 445 405 446
f 405 406 446
f 446 406 447
f 406 407 447
f 447 407 448
f 407 408 448
f 448 408 449
f 408 409 449
f 449 409 450
f 409 410 450
f 450 410 451
f 410 411 451
f 411 412 451
f 451 412 452
f 452 412 453
f 412 413 453
f 453 413 454
f 413 414 454
f 454 414 455
f 414 415 455
f 455 415 456
f 415 416 456
f 456 416 457
f 416 417 457
f 457 417 458
f 417 418 458
f 458 418 459
f 418 419 459
f 459 419 460
f 419 420 460
f 460 420 461
f 420 421 461
f 461 421 462
f 421 422 462
f 462 422 463
f 422 423 463
f 463 423 464
f 423 424 464
f 464 424 465
f 424 425 465
f 465 425 466
f 425 426 466
f 466 426 467
f 426 427 467
f 467 427 468
f 427 428 468
f 468 428 469
f 428 429 469
f 469 429 470
f 429 430 470
f 470 430 471
f 430 431 471
f 471 431 472
f 431 432 472
f 472 432 473
f 432 433 473
f 473 433 474
f 433 434 474
f 474 434 475
f 434 435 475
f 475 435 476
f 435 436 476
f 476 436 477
f 436 437 477
f 477 437 478
f 437 438 478
f 478 438 479
f 438 439 479
f 479 439 480
f 439 440 480
f 480 440 481
f 440 441 481
f 481 441 482
f 441 442 482
f 482 442 483
f 442 443 483
f 483 443 484
f 443 444 484
f 484 444 485
f 444 445 485
f 485 445 486
f 445 446 486
f 486 446 487
f 446 447 487
f 487 447 488
f 447 448 488
f 488 448 489
f 448 449 489
f 489 449 490
f 449 450 490
f 490 450 491
f 450 451 491
f 451 452 491
f 492 493 494
f 494 493 495
f 495 493 496
f 497 496 498
f 496 493 498
f 498 493 499
f 493 492 499
f 499 492 500
f 492 501 500
f 500 501 502
f 503 504 505
f 505 504 506
f 506 504 507
f 508 507 509
f 507 504 509
f 509 504 510
f 504 503 510
f 510 503 511
f 503 512 511
f 511 512 513
f 514 515 516
f 516 515 517
f 517 515 518
f 519 518 520
f 518 515 520
f 520 515 521
f 515 514 521
f 521 514 522
f 514 523 522
f 522 523 524
f 525 526 527
f 526 528 527
f 527 528 529
f 530 531 532
f 532 531 533
f 531 529 533
f 529 528 533
f 533 528 534
f 534 528 535
f 528 526 535
f 535 526 536
f 536 526 537
f 526 525 537
f 525 538 537
f 537 538 539
f 538 540 539
f 539 540 541
f 540 542 541
f 541 542 543
f 542 544 543
f 543 544 545
f 544 546 545
f 545 546 547
f 546 524 547
f 524 523 547
f 547 523 548
f 548 523 549
f 523 514 549
f 514 516 549
f 549 516 550
f 550 516 551
f 516 517 551
f 551 517 552
f 553 552 554
f 552 517 554
f 517 518 554
f 554 518 555
f 518 519 555
f 519 556 555
f 555 556 557
f 556 558 557
f 557 558 559
f 558 560 559
f 559 560 561
f 560 562 561
f 561 562 563
f 562 564 563
f 563 564 565
f 564 513 565
f 513 512 565
f 565 512 566
f 566 512 567
f 512 503 567
f 503 505 567
f 567 505 568
f 568 505 569
f 505 506 569
f 569 506 570
f 571 570 572
f 570 506 572
f 506 507 572
f 572 507 573
f 507 508 573
f 508 574 573
f 573 574 575
f 574 576 575
f 575 576 577
f 576 578 577
f 577 578 579
f 578 580 579
f 579 580 581
f 580 582 581
f 581 582 583
f 582 502 583
f 502 501 583
f 583 501 584
f 584 501 585
f 501 492 585
f 492 494 585
f 585 494 586
f 586 494 587
f 494 495 587
f 587 495 588
f 589 588 590
f 588 495 590
f 495 496 590
f 590 496 591
f 496 497 591
f 497 592 591
f 591 592 593
f 592 594 593
f 593 594 595
f 594 596 595
f 595 596 597
f 596 598 597
f 597 598 599
f 598 600 599
f 599 600 601
f 600 530 601
f 530 532 601
f 601 532 602
f 602 532 603
f 532 533 603
f 533 534 603
f 603 534 604
f 604 534 605
f 534 535 605
f 605 535 606
f 535 536 606
f 606 536 607
f 607 536 608
f 536 537 608
f 537 539 608
f 608 539 609
f 539 541 609
f 609 541 610
f 541 543 610
f 610 543 611
f 543 545 611
f 611 545 612
f 545 547 612
f 547 548 612
f 612 548 613
f 613 548 614
f 548 549 614
f 549 550 614
f 614 550 615
f 615 550 616
f 550 551 616
f 616 551 617
f 551 552 617
f 617 552 618
f 552 553 618
f 618 553 619
f 619 553 620
f 620 553 621
f 553 554 621
f 554 555 621
f 555 557 621
f 621 557 622
f 557 559 622
f 622 559 623
f 559 561 623
f 623 561 624
f 561 563 624
f 624 563 625
f 563 565 625
f 565 566 625
f 625 566 626
f 626 566 627
f 566 567 627
f 567 568 627
f 627 568 628
f 628 568 629
f 568 569 629
f 629 569 630
f 569 570 630
f 630 570 631
f 570 571 631
f 631 571 632
f 632 571 633
f 633 571 634
f 571 572 634
f 572 573 634
f 573 575 634
f 634 575 635
f 575 577 635
f 635 577 636
f 577 579 636
f 636 579 637
f 579 581 637
f 637 581 638
f 581 583 638
f 583 584 638
f 638 584 639
f 639 584 640
f 584 585 640
f 585 586 640
f 640 586 641
f 641 586 642
f 586 587 642
f 642 587 643
f 587 588 643
f 643 588 644
f 588 589 644
f 644 589 645
f 645 589 646
f 646 589 647
f 589 590 647
f 590 591 647
f 591 593 647
f 647 593 648
f 593 595 648
f 648 595 649
f 595 597 649
f 649 597 650
f 597 599 650
f 650 599 651
f 599 601 651
f 601 602 651
f 651 602 652
f 652 602 653
f 602 603 653
f 603 604 653
f 653 604 654
f 654 604 655
f 604 605 655
f 655 605 656
f 605 606 656
f 656 606 657
f 606 607 657
f 657 607 658
f 658 607 659
f 607 608 659
f 659 608 660
f 660 608 661
f 608 609 661
f 609 610 661
f 661 610 662
f 610 611 662
f 662 611 663
f 663 611 664
f 611 612 664
f 664 612 665
f 612 613 665
f 665 613 666
f 666 613 667
f 613 614 667
f 614 615 667
f 667 615 668
f 668 615 669
f 669 615 670
f 615 616 670
f 670 616 671
f 616 617 671
f 671 617 672
f 617 618 672
f 672 618 673
f 618 619 673
f 673 619 674
f 674 619 675
f 675 619 676
f 676 619 677
f 619 620 677
f 677 620 678
f 678 620 679
f 679 620 680
f 620 621 680
f 680 621 681
f 621 622 681
f 622 623 681
f 681 623 682
f 623 624 682
f 682 624 683
f 683 624 684
f 624 625 684
f 684 625 685
f 625 626 685
f 685 626 686
f 686 626 687
f 626 627 687
f 627 628 687
f 687 628 688
f 688 628 689
f 689 628 690
f 628 629 690
f 690 629 691
f 629 630 691
f 691 630 692
f 630 631 692
f 692 631 693
f 631 632 693
f 693 632 694
f 694 632 695
f 695 632 696
f 696 632 697
f 632 633 697
f 697 633 698
f 698 633 699
f 699 633 700
f 633 634 700
f 700 634 701
f 634 635 701
f 635 636 701
f 701 636 702
f 636 637 702
f 702 637 703
f 703 637 704
f 637 638 704
f 704 638 705
f 638 639 705
f 705 639 706
f 706 639 707
f 639 640 707
f 640 641 707
f 707 641 708
f 708 641 709
f 709 641 710
f 641 642 710
f 710 642 711
f 642 643 711
f 711 643 712
f 643 644 712
f 712 644 713
f 644 645 713
f 713 645 714
f 714 645 715
f 715 645 716
f 716 645 717
f 645 646 717
f 717 646 718
f 718 646 719
f 719 646 720
f 646 647 720
f 720 647 721
f 647 648 721
f 648 649 721
f 721 649 722
f 649 650 722
f 722 650 723
f 723 650 724
f 650 651 724
f 724 651 725
f 651 652 725
f 725 652 726
f 726 652 727
f 652 653 727
f 653 654 727
f 727 654 728
f 728 654 729
f 729 654 730
f 654 655 730
f 730 655 731
f 655 656 731
f 731 656 732
f 656 657 732
f 732 657 733
f 657 658 733
f 733 658 734
f 734 658 735
f 735 658 736
f 736 658 737
f 658 659 737
f 737 659 738
f 738 659 739
f 659 660 739
f 740 741 742
f 742 741 743
f 741 744 743
f 743 744 745
f 745 744 746
f 746 744 747
f 747 744 748
f 748 744 749
f 744 750 749
f 751 752 753
f 752 754 753
f 753 754 755
f 754 756 755
f 756 757 755
f 758 755 759
f 759 755 760
f 760 755 761
f 755 757 761
