# Extracted from KIPR Simulator demobot_v6.glb; GPL-3.0
mtllib metal_016.mtl
s off
usemtl material_0
v 0.0078596 0.0048530 -0.0013174
v 0.0078596 0.0040931 0.0000038
v 0.0078596 0.0044846 -0.0014709
v 0.0078596 0.0040931 -0.0015246
v 0.0078596 0.0036940 -0.0014709
v 0.0078596 0.0033323 -0.0013174
v 0.0078596 0.0030099 -0.0010794
v 0.0078596 0.0027719 -0.0007647
v 0.0078596 0.0026184 -0.0003953
v 0.0078596 0.0025647 0.0000038
v 0.0078596 0.0026184 0.0003953
v 0.0078596 0.0027719 0.0007637
v 0.0078596 0.0030099 0.0010785
v 0.0078596 0.0033323 0.0013164
v 0.0078596 0.0036940 0.0014699
v 0.0078596 0.0040931 0.0015237
v 0.0078596 0.0044846 0.0014699
v 0.0078596 0.0048530 0.0013164
v 0.0078596 0.0051677 0.0010785
v 0.0078596 0.0054134 0.0007637
v 0.0078596 0.0055592 0.0003953
v 0.0078596 0.0056139 0.0000038
v 0.0078596 0.0055592 -0.0003953
v 0.0078596 0.0054134 -0.0007647
v 0.0078596 0.0051677 -0.0010794
v 0.0072225 0.0056216 -0.0015246
v 0.0072225 0.0059593 -0.0010794
v 0.0078596 0.0051677 -0.0010794
v 0.0078596 0.0054134 -0.0007647
v 0.0072225 0.0061742 -0.0005565
v 0.0078596 0.0055592 -0.0003953
v 0.0072225 0.0062510 0.0000038
v 0.0078596 0.0056139 0.0000038
v 0.0072225 0.0061742 0.0005565
v 0.0078596 0.0055592 0.0003953
v 0.0072225 0.0059593 0.0010785
v 0.0078596 0.0054134 0.0007637
v 0.0072225 0.0056216 0.0015237
v 0.0078596 0.0051677 0.0010785
v 0.0072225 0.0051677 0.0018700
v 0.0078596 0.0048530 0.0013164
v 0.0072225 0.0046535 0.0020849
v 0.0078596 0.0044846 0.0014699
v 0.0072225 0.0040931 0.0021617
v 0.0078596 0.0040931 0.0015237
v 0.0072225 0.0035328 0.0020849
v 0.0078596 0.0036940 0.0014699
v 0.0072225 0.0030099 0.0018700
v 0.0078596 0.0033323 0.0013164
v 0.0072225 0.0025647 0.0015237
v 0.0078596 0.0030099 0.0010785
v 0.0072225 0.0022193 0.0010785
v 0.0078596 0.0027719 0.0007637
v 0.0072225 0.0020043 0.0005565
v 0.0078596 0.0026184 0.0003953
v 0.0072225 0.0019353 0.0000038
v 0.0078596 0.0025647 0.0000038
v 0.0072225 0.0020043 -0.0005565
v 0.0078596 0.0026184 -0.0003953
v 0.0072225 0.0022193 -0.0010794
v 0.0078596 0.0027719 -0.0007647
v 0.0072225 0.0025647 -0.0015246
v 0.0078596 0.0030099 -0.0010794
v 0.0072225 0.0030099 -0.0018700
v 0.0078596 0.0033323 -0.0013174
v 0.0072225 0.0035328 -0.0020849
v 0.0078596 0.0036940 -0.0014709
v 0.0072225 0.0040931 -0.0021617
v 0.0078596 0.0040931 -0.0015246
v 0.0072225 0.0046535 -0.0020849
v 0.0078596 0.0044846 -0.0014709
v 0.0072225 0.0051677 -0.0018700
v 0.0078596 0.0048530 -0.0013174
v -0.0048420 0.0061742 -0.0005565
v -0.0048420 0.0062510 0.0000038
v 0.0072225 0.0061742 -0.0005565
v 0.0072225 0.0062510 0.0000038
v -0.0048420 0.0061742 0.0005565
v 0.0072225 0.0061742 0.0005565
v -0.0048420 0.0059593 0.0010785
v 0.0072225 0.0059593 0.0010785
v -0.0048420 0.0056216 0.0015237
v 0.0072225 0.0056216 0.0015237
v -0.0048420 0.0051677 0.0018700
v 0.0072225 0.0051677 0.0018700
v -0.0048420 0.0046535 0.0020849
v 0.0072225 0.0046535 0.0020849
v -0.0048420 0.0040931 0.0021617
v 0.0072225 0.0040931 0.0021617
v -0.0048420 0.0035328 0.0020849
v 0.0072225 0.0035328 0.0020849
v -0.0048420 0.0030099 0.0018700
v 0.0072225 0.0030099 0.0018700
v -0.0048420 0.0025647 0.0015237
v 0.0072225 0.0025647 0.0015237
v -0.0048420 0.0022193 0.0010785
v 0.0072225 0.0022193 0.0010785
v -0.0048420 0.0020043 0.0005565
v 0.0072225 0.0020043 0.0005565
v -0.0048420 0.0019353 0.0000038
v 0.0072225 0.0019353 0.0000038
v -0.0048420 0.0020043 -0.0005565
v 0.0072225 0.0020043 -0.0005565
v -0.0048420 0.0022193 -0.0010794
v 0.0072225 0.0022193 -0.0010794
v -0.0048420 0.0025647 -0.0015246
v 0.0072225 0.0025647 -0.0015246
v -0.0048420 0.0030099 -0.0018700
v 0.0072225 0.0030099 -0.0018700
v -0.0048420 0.0035328 -0.0020849
v 0.0072225 0.0035328 -0.0020849
v -0.0048420 0.0040931 -0.0021617
v 0.0072225 0.0040931 -0.0021617
v -0.0048420 0.0046535 -0.0020849
v 0.0072225 0.0046535 -0.0020849
v -0.0048420 0.0051677 -0.0018700
v 0.0072225 0.0051677 -0.0018700
v -0.0048420 0.0056216 -0.0015246
v 0.0072225 0.0056216 -0.0015246
v -0.0048420 0.0059593 -0.0010794
v 0.0072225 0.0059593 -0.0010794
v -0.0048420 0.0079176 0.0010708
v -0.0048420 0.0061742 0.0005565
v -0.0048420 0.0080327 0.0005411
v -0.0048420 0.0062510 0.0000038
v -0.0048420 0.0080711 0.0000038
v -0.0048420 0.0080327 -0.0005411
v -0.0048420 0.0061742 -0.0005565
v -0.0048420 0.0079176 -0.0010717
v -0.0048420 0.0077401 -0.0015860
v -0.0048420 0.0059593 -0.0010794
v -0.0048420 0.0074868 -0.0020619
v -0.0048420 0.0071721 -0.0025071
v -0.0048420 0.0056216 -0.0015246
v -0.0048420 0.0068037 -0.0029063
v -0.0048420 0.0063815 -0.0032450
v -0.0048420 0.0051677 -0.0018700
v -0.0048420 0.0059209 -0.0035290
v -0.0048420 0.0054211 -0.0037439
v -0.0048420 0.0046535 -0.0020849
v -0.0048420 0.0048991 -0.0038897
v -0.0048420 0.0043618 -0.0039665
v -0.0048420 0.0040931 -0.0021617
v -0.0048420 0.0040931 -0.0039742
v -0.0048420 0.0038168 -0.0039665
v -0.0048420 0.0035328 -0.0020849
v -0.0048420 0.0032785 -0.0038897
v -0.0048420 0.0027566 -0.0037439
v -0.0048420 0.0030099 -0.0018700
v -0.0048420 0.0022653 -0.0035290
v -0.0048420 0.0017971 -0.0032450
v -0.0048420 0.0025647 -0.0015246
v -0.0048420 0.0013749 -0.0029063
v -0.0048420 0.0010055 -0.0025071
v -0.0048420 0.0022193 -0.0010794
v -0.0048420 0.0006908 -0.0020619
v -0.0048420 0.0004452 -0.0015860
v -0.0048420 0.0020043 -0.0005565
v -0.0048420 0.0002610 -0.0010717
v -0.0048420 0.0001535 -0.0005411
v -0.0048420 0.0019353 0.0000038
v -0.0048420 0.0001151 0.0000038
v -0.0048420 0.0001535 0.0005411
v -0.0048420 0.0020043 0.0005565
v -0.0048420 0.0002610 0.0010708
v -0.0048420 0.0004452 0.0015860
v -0.0048420 0.0022193 0.0010785
v -0.0048420 0.0006908 0.0020696
v -0.0048420 0.0010055 0.0025071
v -0.0048420 0.0025647 0.0015237
v -0.0048420 0.0013749 0.0029063
v -0.0048420 0.0017971 0.0032517
v -0.0048420 0.0030099 0.0018700
v -0.0048420 0.0022653 0.0035280
v -0.0048420 0.0027566 0.0037429
v -0.0048420 0.0035328 0.0020849
v -0.0048420 0.0032785 0.0038897
v -0.0048420 0.0038168 0.0039665
v -0.0048420 0.0040931 0.0021617
v -0.0048420 0.0043618 0.0039665
v -0.0048420 0.0046535 0.0020849
v -0.0048420 0.0048991 0.0038897
v -0.0048420 0.0054211 0.0037429
v -0.0048420 0.0051677 0.0018700
v -0.0048420 0.0059209 0.0035280
v -0.0048420 0.0063815 0.0032517
v -0.0048420 0.0056216 0.0015237
v -0.0048420 0.0068037 0.0029063
v -0.0048420 0.0071721 0.0025071
v -0.0048420 0.0059593 0.0010785
v -0.0048420 0.0074868 0.0020696
v -0.0048420 0.0077401 0.0015860
v -0.0074834 0.0044846 -0.0024304
v -0.0074834 0.0041776 -0.0024304
v -0.0061546 0.0042313 -0.0021694
v -0.0074834 0.0038322 -0.0024304
v -0.0061546 0.0039550 -0.0021694
v -0.0074834 0.0036940 -0.0024304
v -0.0074834 0.0065197 -0.0003953
v -0.0075986 0.0060668 -0.0004183
v -0.0061546 0.0062587 -0.0001343
v -0.0061546 0.0042313 -0.0001343
v -0.0077060 0.0056676 -0.0004414
v -0.0077368 0.0055515 -0.0004414
v -0.0077675 0.0053520 -0.0004490
v -0.0077982 0.0051370 -0.0004567
v -0.0078135 0.0050603 -0.0004567
v -0.0078289 0.0048837 -0.0004644
v -0.0078519 0.0046765 -0.0004644
v -0.0078596 0.0045614 -0.0004721
v -0.0078596 0.0045614 -0.0004721
v -0.0078519 0.0045614 -0.0005411
v -0.0061546 0.0042313 -0.0001343
v -0.0078365 0.0045537 -0.0007417
v -0.0078135 0.0045537 -0.0009489
v -0.0078135 0.0045537 -0.0009643
v -0.0077675 0.0045383 -0.0012560
v -0.0074834 0.0044846 -0.0024304
v -0.0061546 0.0042313 -0.0021694
v -0.0075065 0.0044923 -0.0023306
v -0.0075986 0.0045076 -0.0019775
v -0.0077368 0.0045383 -0.0014632
v -0.0077444 0.0045383 -0.0013941
v -0.0074834 0.0036940 -0.0024304
v -0.0075986 0.0036710 -0.0019775
v -0.0061546 0.0039550 -0.0021694
v -0.0076370 0.0036633 -0.0018240
v -0.0077368 0.0036479 -0.0014632
v -0.0061546 0.0039550 -0.0001343
v -0.0077675 0.0036403 -0.0012560
v -0.0077828 0.0036403 -0.0011638
v -0.0078596 0.0036249 -0.0004721
v -0.0078442 0.0036249 -0.0006333
v -0.0078212 0.0036326 -0.0008415
v -0.0078135 0.0036326 -0.0009643
v -0.0048420 0.0077401 0.0015860
v -0.0048420 0.0079176 0.0010708
v -0.0053179 0.0078169 0.0016167
v -0.0053179 0.0080020 0.0010938
v -0.0048420 0.0080327 0.0005411
v -0.0053179 0.0081172 0.0005565
v -0.0048420 0.0080711 0.0000038
v -0.0053179 0.0081556 0.0000038
v -0.0048420 0.0080327 -0.0005411
v -0.0053179 0.0081172 -0.0005565
v -0.0048420 0.0079176 -0.0010717
v -0.0053179 0.0080020 -0.0010948
v -0.0048420 0.0077401 -0.0015860
v -0.0053179 0.0078169 -0.0016167
v -0.0048420 0.0074868 -0.0020619
v -0.0053179 0.0075636 -0.0021080
v -0.0048420 0.0071721 -0.0025071
v -0.0053179 0.0072412 -0.0025608
v -0.0048420 0.0068037 -0.0029063
v -0.0053179 0.0068651 -0.0029686
v -0.0048420 0.0063815 -0.0032450
v -0.0053179 0.0064352 -0.0033217
v -0.0048420 0.0059209 -0.0035290
v -0.0053179 0.0059593 -0.0036057
v -0.0048420 0.0054211 -0.0037439
v -0.0053179 0.0054518 -0.0038283
v -0.0048420 0.0048991 -0.0038897
v -0.0053179 0.0049144 -0.0039742
v -0.0048420 0.0043618 -0.0039665
v -0.0053179 0.0043695 -0.0040509
v -0.0053179 0.0038168 -0.0040509
v -0.0048420 0.0040931 -0.0039742
v -0.0048420 0.0038168 -0.0039665
v -0.0048420 0.0032785 -0.0038897
v -0.0053179 0.0032632 -0.0039742
v -0.0048420 0.0027566 -0.0037439
v -0.0053179 0.0027336 -0.0038283
v -0.0048420 0.0022653 -0.0035290
v -0.0053179 0.0022193 -0.0036057
v -0.0048420 0.0017971 -0.0032450
v -0.0053179 0.0017510 -0.0033217
v -0.0048420 0.0013749 -0.0029063
v -0.0053179 0.0013212 -0.0029686
v -0.0048420 0.0010055 -0.0025071
v -0.0053179 0.0009365 -0.0025608
v -0.0048420 0.0006908 -0.0020619
v -0.0053179 0.0006217 -0.0021080
v -0.0048420 0.0004452 -0.0015860
v -0.0053179 0.0003684 -0.0016167
v -0.0048420 0.0002610 -0.0010717
v -0.0053179 0.0001765 -0.0010948
v -0.0048420 0.0001535 -0.0005411
v -0.0053179 0.0000691 -0.0005565
v -0.0048420 0.0001151 0.0000038
v -0.0053179 0.0000307 0.0000038
v -0.0048420 0.0001535 0.0005411
v -0.0053179 0.0000691 0.0005565
v -0.0048420 0.0002610 0.0010708
v -0.0053179 0.0001765 0.0010938
v -0.0048420 0.0004452 0.0015860
v -0.0053179 0.0003684 0.0016167
v -0.0048420 0.0006908 0.0020696
v -0.0053179 0.0006217 0.0021080
v -0.0048420 0.0010055 0.0025071
v -0.0053179 0.0009365 0.0025608
v -0.0048420 0.0013749 0.0029063
v -0.0053179 0.0013212 0.0029677
v -0.0048420 0.0017971 0.0032517
v -0.0053179 0.0017510 0.0033208
v -0.0048420 0.0022653 0.0035280
v -0.0053179 0.0022193 0.0036048
v -0.0048420 0.0027566 0.0037429
v -0.0053179 0.0027336 0.0038283
v -0.0048420 0.0032785 0.0038897
v -0.0053179 0.0032632 0.0039742
v -0.0048420 0.0038168 0.0039665
v -0.0053179 0.0038168 0.0040509
v -0.0048420 0.0043618 0.0039665
v -0.0053179 0.0043695 0.0040509
v -0.0048420 0.0048991 0.0038897
v -0.0053179 0.0049144 0.0039742
v -0.0048420 0.0054211 0.0037429
v -0.0053179 0.0054518 0.0038283
v -0.0048420 0.0059209 0.0035280
v -0.0053179 0.0059593 0.0036048
v -0.0048420 0.0063815 0.0032517
v -0.0053179 0.0064352 0.0033208
v -0.0048420 0.0068037 0.0029063
v -0.0053179 0.0068651 0.0029677
v -0.0048420 0.0071721 0.0025071
v -0.0053179 0.0072412 0.0025608
v -0.0048420 0.0074868 0.0020696
v -0.0053179 0.0075636 0.0021080
v -0.0058015 0.0075866 0.0021233
v -0.0058015 0.0078399 0.0016321
v -0.0058015 0.0080327 0.0011015
v -0.0058015 0.0081479 0.0005565
v -0.0058015 0.0081863 0.0000038
v -0.0058015 0.0081479 -0.0005565
v -0.0058015 0.0080327 -0.0011024
v -0.0058015 0.0078399 -0.0016321
v -0.0058015 0.0075866 -0.0021233
v -0.0058015 0.0072642 -0.0025839
v -0.0058015 0.0068804 -0.0029917
v -0.0058015 0.0064506 -0.0033447
v -0.0058015 0.0059747 -0.0036364
v -0.0058015 0.0054594 -0.0038513
v -0.0058015 0.0049221 -0.0040049
v -0.0058015 0.0043695 -0.0040816
v -0.0058015 0.0038091 -0.0040816
v -0.0058015 0.0032555 -0.0040049
v -0.0058015 0.0027182 -0.0038513
v -0.0058015 0.0022116 -0.0036364
v -0.0058015 0.0017357 -0.0033447
v -0.0058015 0.0012982 -0.0029917
v -0.0058015 0.0009134 -0.0025839
v -0.0058015 0.0005987 -0.0021233
v -0.0058015 0.0003377 -0.0016321
v -0.0058015 0.0001535 -0.0011024
v -0.0058015 0.0000384 -0.0005565
v -0.0058015 0.0000000 0.0000038
v -0.0058015 0.0000384 0.0005565
v -0.0058015 0.0001535 0.0011015
v -0.0058015 0.0003377 0.0016321
v -0.0058015 0.0005987 0.0021233
v -0.0058015 0.0009134 0.0025839
v -0.0058015 0.0012982 0.0029907
v -0.0058015 0.0017357 0.0033438
v -0.0058015 0.0022116 0.0036355
v -0.0058015 0.0027182 0.0038590
v -0.0058015 0.0032555 0.0040049
v -0.0058015 0.0038091 0.0040816
v -0.0058015 0.0043695 0.0040816
v -0.0058015 0.0049221 0.0040049
v -0.0058015 0.0054594 0.0038590
v -0.0058015 0.0059747 0.0036355
v -0.0058015 0.0064506 0.0033438
v -0.0058015 0.0068804 0.0029907
v -0.0058015 0.0072642 0.0025839
v -0.0062927 0.0072412 0.0025608
v -0.0062927 0.0075636 0.0021080
v -0.0062927 0.0078169 0.0016167
v -0.0062927 0.0080020 0.0010938
v -0.0062927 0.0081172 0.0005565
v -0.0062927 0.0081556 0.0000038
v -0.0062927 0.0081172 -0.0005565
v -0.0062927 0.0080020 -0.0010948
v -0.0062927 0.0078169 -0.0016167
v -0.0062927 0.0075636 -0.0021080
v -0.0062927 0.0072412 -0.0025608
v -0.0062927 0.0068651 -0.0029686
v -0.0062927 0.0064352 -0.0033217
v -0.0062927 0.0059593 -0.0036057
v -0.0062927 0.0054518 -0.0038283
v -0.0062927 0.0049144 -0.0039742
v -0.0062927 0.0043695 -0.0040509
v -0.0062927 0.0038168 -0.0040509
v -0.0062927 0.0032632 -0.0039742
v -0.0062927 0.0027336 -0.0038283
v -0.0062927 0.0022193 -0.0036057
v -0.0062927 0.0017510 -0.0033217
v -0.0062927 0.0013212 -0.0029686
v -0.0062927 0.0009365 -0.0025608
v -0.0062927 0.0006217 -0.0021080
v -0.0062927 0.0003684 -0.0016167
v -0.0062927 0.0001765 -0.0010948
v -0.0062927 0.0000691 -0.0005565
v -0.0062927 0.0000307 0.0000038
v -0.0062927 0.0000691 0.0005565
v -0.0062927 0.0001765 0.0010938
v -0.0062927 0.0003684 0.0016167
v -0.0062927 0.0006217 0.0021080
v -0.0062927 0.0009365 0.0025608
v -0.0062927 0.0013212 0.0029677
v -0.0062927 0.0017510 0.0033208
v -0.0062927 0.0022193 0.0036048
v -0.0062927 0.0027336 0.0038283
v -0.0062927 0.0032632 0.0039742
v -0.0062927 0.0038168 0.0040509
v -0.0062927 0.0043695 0.0040509
v -0.0062927 0.0049144 0.0039742
v -0.0062927 0.0054518 0.0038283
v -0.0062927 0.0059593 0.0036048
v -0.0062927 0.0064352 0.0033208
v -0.0062927 0.0068651 0.0029677
v -0.0067696 0.0071337 0.0025532
v -0.0067696 0.0071721 0.0025071
v -0.0067696 0.0074638 0.0021080
v -0.0067696 0.0074868 0.0020619
v -0.0067696 0.0077248 0.0016167
v -0.0067696 0.0077324 0.0015860
v -0.0067696 0.0079099 0.0010938
v -0.0067696 0.0079176 0.0010708
v -0.0067696 0.0080251 0.0005565
v -0.0067696 0.0080327 0.0005411
v -0.0067696 0.0080711 0.0000038
v -0.0067696 0.0080327 -0.0005411
v -0.0067696 0.0080251 -0.0005565
v -0.0067696 0.0079176 -0.0010717
v -0.0067696 0.0079099 -0.0010948
v -0.0067696 0.0077324 -0.0015860
v -0.0067696 0.0077248 -0.0016167
v -0.0067696 0.0074868 -0.0020619
v -0.0067696 0.0074638 -0.0021080
v -0.0067696 0.0071721 -0.0025071
v -0.0067696 0.0071337 -0.0025532
v -0.0067696 0.0068037 -0.0028986
v -0.0067696 0.0067499 -0.0029523
v -0.0067696 0.0063815 -0.0032450
v -0.0067696 0.0063124 -0.0032987
v -0.0067696 0.0059209 -0.0035290
v -0.0067696 0.0058365 -0.0035750
v -0.0067696 0.0054211 -0.0037439
v -0.0067696 0.0053213 -0.0037823
v -0.0067696 0.0048991 -0.0038897
v -0.0067696 0.0047840 -0.0039128
v -0.0067696 0.0043618 -0.0039588
v -0.0067696 0.0042313 -0.0039742
v -0.0067696 0.0040931 -0.0039742
v -0.0067696 0.0038168 -0.0039588
v -0.0067696 0.0036786 -0.0039511
v -0.0067696 0.0032862 -0.0038820
v -0.0067696 0.0031327 -0.0038590
v -0.0067696 0.0027643 -0.0037362
v -0.0067696 0.0026031 -0.0036902
v -0.0067696 0.0022653 -0.0035213
v -0.0067696 0.0021041 -0.0034445
v -0.0067696 0.0018048 -0.0032450
v -0.0067696 0.0016436 -0.0031298
v -0.0067696 0.0013826 -0.0028986
v -0.0067696 0.0012291 -0.0027604
v -0.0067696 0.0010132 -0.0024994
v -0.0067696 0.0008750 -0.0023382
v -0.0067696 0.0006985 -0.0020619
v -0.0067696 0.0005834 -0.0018700
v -0.0067696 0.0004529 -0.0015783
v -0.0067696 0.0003531 -0.0013634
v -0.0067696 0.0002687 -0.0010717
v -0.0067696 0.0001996 -0.0008261
v -0.0067696 0.0001612 -0.0005411
v -0.0067696 0.0001228 -0.0002802
v -0.0067696 0.0001228 0.0000038
v -0.0067696 0.0001228 0.0002802
v -0.0067696 0.0001612 0.0005411
v -0.0067696 0.0001996 0.0008252
v -0.0067696 0.0002687 0.0010708
v -0.0067696 0.0003531 0.0013625
v -0.0067696 0.0004529 0.0015783
v -0.0067696 0.0005834 0.0018700
v -0.0067696 0.0006985 0.0020619
v -0.0067696 0.0008750 0.0023382
v -0.0067696 0.0010132 0.0024994
v -0.0067696 0.0012291 0.0027604
v -0.0067696 0.0013826 0.0028986
v -0.0067696 0.0016436 0.0031365
v -0.0067696 0.0018048 0.0032440
v -0.0067696 0.0021041 0.0034436
v -0.0067696 0.0022653 0.0035203
v -0.0067696 0.0026031 0.0036892
v -0.0067696 0.0027643 0.0037352
v -0.0067696 0.0031327 0.0038590
v -0.0067696 0.0032862 0.0038820
v -0.0067696 0.0036786 0.0039511
v -0.0067696 0.0038168 0.0039588
v -0.0067696 0.0042313 0.0039742
v -0.0067696 0.0043618 0.0039588
v -0.0067696 0.0047840 0.0039128
v -0.0067696 0.0048991 0.0038897
v -0.0067696 0.0053213 0.0037823
v -0.0067696 0.0054211 0.0037429
v -0.0067696 0.0058365 0.0035741
v -0.0067696 0.0059209 0.0035280
v -0.0067696 0.0063124 0.0032977
v -0.0067696 0.0063815 0.0032440
v -0.0067696 0.0067499 0.0029523
v -0.0067696 0.0068037 0.0029063
v -0.0074834 0.0065197 -0.0003953
v -0.0061546 0.0062587 -0.0001343
v -0.0074834 0.0065197 -0.0003416
v -0.0074834 0.0065197 0.0003953
v -0.0074834 0.0065197 0.0003416
v -0.0061546 0.0062587 0.0001343
v -0.0074834 0.0065197 0.0000038
v -0.0074834 0.0065197 0.0003953
v -0.0061546 0.0062587 0.0001343
v -0.0075986 0.0060668 0.0004183
v -0.0061546 0.0042313 0.0001343
v -0.0077060 0.0056676 0.0004414
v -0.0077368 0.0055515 0.0004414
v -0.0077675 0.0053520 0.0004490
v -0.0077982 0.0051370 0.0004567
v -0.0078135 0.0050603 0.0004567
v -0.0078289 0.0048837 0.0004644
v -0.0078519 0.0046765 0.0004644
v -0.0078596 0.0045614 0.0004721
v -0.0061546 0.0019199 -0.0001343
v -0.0061546 0.0019199 0.0001343
v -0.0061546 0.0039550 -0.0001343
v -0.0061546 0.0039550 0.0001343
v -0.0061546 0.0042313 -0.0021694
v -0.0061546 0.0039550 -0.0021694
v -0.0061546 0.0042313 -0.0001343
v -0.0061546 0.0062587 -0.0001343
v -0.0061546 0.0062587 0.0001343
v -0.0061546 0.0042313 0.0001343
v -0.0061546 0.0042313 0.0021694
v -0.0061546 0.0039550 0.0021694
v -0.0078596 0.0036249 0.0004721
v -0.0061546 0.0039550 0.0001343
v -0.0078596 0.0036019 0.0004644
v -0.0078365 0.0034023 0.0004644
v -0.0078212 0.0031941 0.0004644
v -0.0078135 0.0031250 0.0004567
v -0.0077675 0.0028333 0.0004490
v -0.0077598 0.0028103 0.0004490
v -0.0077368 0.0026338 0.0004414
v -0.0061546 0.0019199 0.0001343
v -0.0075986 0.0021118 0.0004183
v -0.0075756 0.0020120 0.0004107
v -0.0074834 0.0016666 0.0003953
v -0.0074834 0.0016666 0.0003953
v -0.0061546 0.0019199 0.0001343
v -0.0074834 0.0016666 0.0001727
v -0.0061546 0.0019199 -0.0001343
v -0.0074834 0.0016666 -0.0001727
v -0.0074834 0.0016666 -0.0003953
v -0.0078596 0.0036249 -0.0004721
v -0.0078596 0.0036019 -0.0004644
v -0.0061546 0.0039550 -0.0001343
v -0.0078365 0.0034023 -0.0004644
v -0.0078212 0.0031941 -0.0004567
v -0.0078135 0.0031250 -0.0004567
v -0.0077675 0.0028333 -0.0004490
v -0.0077598 0.0028103 -0.0004490
v -0.0077368 0.0026338 -0.0004414
v -0.0061546 0.0019199 -0.0001343
v -0.0074834 0.0016666 -0.0003953
v -0.0075756 0.0020120 -0.0004107
v -0.0075986 0.0021118 -0.0004183
v -0.0078596 0.0045614 0.0004721
v -0.0061546 0.0042313 0.0001343
v -0.0078519 0.0045614 0.0005411
v -0.0078365 0.0045537 0.0007407
v -0.0078135 0.0045537 0.0009480
v -0.0078135 0.0045537 0.0009633
v -0.0077675 0.0045383 0.0012550
v -0.0077444 0.0045383 0.0013932
v -0.0077368 0.0045383 0.0014622
v -0.0061546 0.0042313 0.0021694
v -0.0075986 0.0045076 0.0019775
v -0.0075065 0.0044923 0.0023306
v -0.0074834 0.0044846 0.0024304
v -0.0074834 0.0044846 0.0024304
v -0.0061546 0.0042313 0.0021694
v -0.0074834 0.0041776 0.0024304
v -0.0061546 0.0039550 0.0021694
v -0.0074834 0.0038322 0.0024304
v -0.0074834 0.0036940 0.0024304
v -0.0078596 0.0036249 0.0004721
v -0.0078442 0.0036249 0.0006333
v -0.0061546 0.0039550 0.0001343
v -0.0078212 0.0036326 0.0008405
v -0.0078135 0.0036326 0.0009633
v -0.0077828 0.0036403 0.0011629
v -0.0077675 0.0036403 0.0012550
v -0.0077368 0.0036479 0.0014622
v -0.0061546 0.0039550 0.0021694
v -0.0074834 0.0036940 0.0024304
v -0.0075986 0.0036710 0.0019775
v -0.0076370 0.0036633 0.0018240
v -0.0071073 0.0066655 -0.0021540
v -0.0071073 0.0063354 -0.0024918
v -0.0073913 0.0061666 -0.0017395
v -0.0073913 0.0059056 -0.0020082
v -0.0071073 0.0059670 -0.0027834
v -0.0073913 0.0056053 -0.0022461
v -0.0071073 0.0055592 -0.0030147
v -0.0067696 0.0054211 -0.0037439
v -0.0067696 0.0058365 -0.0035750
v -0.0067696 0.0059209 -0.0035290
v -0.0067696 0.0063124 -0.0032987
v -0.0067696 0.0063815 -0.0032450
v -0.0067696 0.0067499 -0.0029523
v -0.0067696 0.0068037 -0.0028986
v -0.0067696 0.0071337 -0.0025532
v -0.0067696 0.0071721 -0.0025071
v -0.0071073 0.0069341 -0.0017779
v -0.0067696 0.0074638 -0.0021080
v -0.0067696 0.0074868 -0.0020619
v -0.0071073 0.0063354 0.0024918
v -0.0071073 0.0066655 0.0021540
v -0.0073913 0.0059056 0.0020082
v -0.0073913 0.0061666 0.0017395
v -0.0071073 0.0069341 0.0017779
v -0.0073913 0.0063892 0.0014315
v -0.0071073 0.0071567 0.0013625
v -0.0067696 0.0077324 0.0015860
v -0.0067696 0.0077248 0.0016167
v -0.0067696 0.0074868 0.0020619
v -0.0067696 0.0074638 0.0021080
v -0.0067696 0.0071721 0.0025071
v -0.0067696 0.0071337 0.0025532
v -0.0067696 0.0068037 0.0029063
v -0.0067696 0.0067499 0.0029523
v -0.0067696 0.0063815 0.0032440
v -0.0071073 0.0059670 0.0027834
v -0.0067696 0.0063124 0.0032977
v -0.0067696 0.0059209 0.0035280
v -0.0071073 0.0016743 0.0023306
v -0.0071073 0.0020274 0.0026453
v -0.0073913 0.0021425 0.0018777
v -0.0073913 0.0024265 0.0021310
v -0.0071073 0.0024112 0.0029063
v -0.0073913 0.0027412 0.0023459
v -0.0071073 0.0028333 0.0031135
v -0.0067696 0.0027643 0.0037352
v -0.0067696 0.0026031 0.0036892
v -0.0067696 0.0022653 0.0035203
v -0.0067696 0.0021041 0.0034436
v -0.0067696 0.0018048 0.0032440
v -0.0067696 0.0016436 0.0031365
v -0.0067696 0.0013826 0.0028986
v -0.0067696 0.0012291 0.0027604
v -0.0067696 0.0010132 0.0024994
v -0.0071073 0.0013749 0.0019698
v -0.0067696 0.0008750 0.0023382
v -0.0067696 0.0006985 0.0020619
v -0.0067696 0.0004529 -0.0015783
v -0.0071073 0.0011293 -0.0015783
v -0.0067696 0.0005834 -0.0018700
v -0.0067696 0.0006985 -0.0020619
v -0.0071073 0.0013749 -0.0019698
v -0.0067696 0.0008750 -0.0023382
v -0.0067696 0.0010132 -0.0024994
v -0.0071073 0.0016743 -0.0023306
v -0.0067696 0.0012291 -0.0027604
v -0.0067696 0.0013826 -0.0028986
v -0.0067696 0.0022653 -0.0035213
v -0.0067696 0.0021041 -0.0034445
v -0.0071073 0.0024112 -0.0029063
v -0.0067696 0.0018048 -0.0032450
v -0.0071073 0.0020274 -0.0026453
v -0.0067696 0.0016436 -0.0031298
v -0.0073913 0.0024265 -0.0021310
v -0.0073913 0.0021425 -0.0018777
v -0.0073913 0.0019046 -0.0015937
v -0.0073913 0.0017050 -0.0012713
v -0.0071073 0.0009365 -0.0011485
v -0.0067696 0.0003531 -0.0013634
v -0.0067696 0.0002687 -0.0010717
v -0.0071073 0.0008060 -0.0006947
v -0.0067696 0.0001996 -0.0008261
v -0.0067696 0.0001612 -0.0005411
v -0.0071073 0.0007446 -0.0002341
v -0.0067696 0.0001228 -0.0002802
v -0.0067696 0.0001228 0.0000038
v -0.0071073 0.0007446 0.0002341
v -0.0067696 0.0001228 0.0002802
v -0.0067696 0.0001612 0.0005411
v -0.0071073 0.0008060 0.0006947
v -0.0067696 0.0001996 0.0008252
v -0.0067696 0.0002687 0.0010708
v -0.0071073 0.0009365 0.0011475
v -0.0067696 0.0003531 0.0013625
v -0.0067696 0.0004529 0.0015783
v -0.0071073 0.0011293 0.0015783
v -0.0067696 0.0005834 0.0018700
v -0.0073913 0.0017050 0.0012703
v -0.0073913 0.0019046 0.0015937
v -0.0076139 0.0024495 0.0011936
v -0.0076139 0.0026261 0.0014085
v -0.0076139 0.0028410 0.0016014
v -0.0076139 0.0030713 0.0017626
v -0.0073913 0.0030790 0.0025071
v -0.0071073 0.0032785 0.0032593
v -0.0067696 0.0031327 0.0038590
v -0.0067696 0.0032862 0.0038820
v -0.0071073 0.0037400 0.0033361
v -0.0067696 0.0036786 0.0039511
v -0.0067696 0.0038168 0.0039588
v -0.0071073 0.0042083 0.0033515
v -0.0067696 0.0042313 0.0039742
v -0.0067696 0.0043618 0.0039588
v -0.0071073 0.0046765 0.0033054
v -0.0067696 0.0047840 0.0039128
v -0.0067696 0.0048991 0.0038897
v -0.0071073 0.0051294 0.0031903
v -0.0067696 0.0053213 0.0037823
v -0.0067696 0.0054211 0.0037429
v -0.0071073 0.0055592 0.0030137
v -0.0067696 0.0058365 0.0035741
v -0.0073913 0.0052752 0.0024304
v -0.0073913 0.0056053 0.0022461
v -0.0076139 0.0052292 0.0016858
v -0.0076139 0.0054518 0.0015083
v -0.0076139 0.0056523 0.0013087
v -0.0076139 0.0058135 0.0010785
v -0.0073913 0.0065657 0.0011015
v -0.0071073 0.0073179 0.0009249
v -0.0067696 0.0079099 0.0010938
v -0.0067696 0.0079176 0.0010708
v -0.0071073 0.0074100 0.0004644
v -0.0067696 0.0080251 0.0005565
v -0.0067696 0.0080327 0.0005411
v -0.0071073 0.0074484 0.0000038
v -0.0067696 0.0080711 0.0000038
v -0.0067696 0.0080327 -0.0005411
v -0.0071073 0.0074100 -0.0004644
v -0.0067696 0.0080251 -0.0005565
v -0.0067696 0.0079176 -0.0010717
v -0.0071073 0.0073179 -0.0009259
v -0.0067696 0.0079099 -0.0010948
v -0.0067696 0.0077324 -0.0015860
v -0.0071073 0.0071567 -0.0013634
v -0.0067696 0.0077248 -0.0016167
v -0.0073913 0.0065657 -0.0011024
v -0.0073913 0.0063892 -0.0014325
v -0.0076139 0.0058135 -0.0010794
v -0.0076139 0.0056523 -0.0013097
v -0.0076139 0.0054518 -0.0015093
v -0.0076139 0.0052292 -0.0016858
v -0.0076139 0.0049835 -0.0018316
v -0.0073913 0.0052752 -0.0024304
v -0.0071073 0.0051294 -0.0031912
v -0.0067696 0.0053213 -0.0037823
v -0.0067696 0.0048991 -0.0038897
v -0.0071073 0.0046765 -0.0033064
v -0.0067696 0.0047840 -0.0039128
v -0.0067696 0.0043618 -0.0039588
v -0.0071073 0.0042083 -0.0033524
v -0.0067696 0.0042313 -0.0039742
v -0.0067696 0.0040931 -0.0039742
v -0.0071073 0.0037400 -0.0033371
v -0.0067696 0.0038168 -0.0039588
v -0.0067696 0.0036786 -0.0039511
v -0.0067696 0.0032862 -0.0038820
v -0.0071073 0.0032785 -0.0032526
v -0.0067696 0.0031327 -0.0038590
v -0.0067696 0.0027643 -0.0037362
v -0.0071073 0.0028333 -0.0031145
v -0.0067696 0.0026031 -0.0036902
v -0.0073913 0.0030790 -0.0025071
v -0.0073913 0.0027412 -0.0023459
v -0.0076139 0.0030713 -0.0017626
v -0.0076139 0.0028410 -0.0016014
v -0.0076139 0.0026261 -0.0014095
v -0.0076139 0.0024495 -0.0011945
v -0.0077675 0.0029024 -0.0006333
v -0.0077675 0.0030022 -0.0007877
v -0.0076139 0.0022960 -0.0009566
v -0.0076139 0.0021809 -0.0006947
v -0.0073913 0.0015515 -0.0009259
v -0.0073913 0.0014440 -0.0005642
v -0.0073913 0.0013903 -0.0001881
v -0.0073913 0.0013903 0.0001881
v -0.0073913 0.0014440 0.0005642
v -0.0073913 0.0015515 0.0009249
v -0.0076139 0.0021809 0.0006947
v -0.0076139 0.0022960 0.0009556
v -0.0077675 0.0029024 0.0006333
v -0.0077675 0.0030022 0.0007868
v -0.0077675 0.0031250 0.0009326
v -0.0077675 0.0032632 0.0010554
v -0.0077675 0.0034177 0.0011629
v -0.0077675 0.0035865 0.0012473
v -0.0076139 0.0033323 0.0018854
v -0.0076139 0.0036019 0.0019698
v -0.0073913 0.0034407 0.0026223
v -0.0073913 0.0038091 0.0026913
v -0.0073913 0.0041852 0.0027067
v -0.0073913 0.0045614 0.0026683
v -0.0073913 0.0049298 0.0025762
v -0.0076139 0.0047226 0.0019314
v -0.0076139 0.0049835 0.0018316
v -0.0077675 0.0046765 0.0012089
v -0.0077675 0.0048454 0.0011168
v -0.0077675 0.0049912 0.0010017
v -0.0077675 0.0051217 0.0008635
v -0.0077675 0.0052292 0.0007100
v -0.0077675 0.0053213 0.0005488
v -0.0076139 0.0059516 0.0008252
v -0.0076139 0.0060438 0.0005642
v -0.0073913 0.0066962 0.0007484
v -0.0073913 0.0067730 0.0003800
v -0.0073913 0.0067960 0.0000038
v -0.0073913 0.0067730 -0.0003800
v -0.0073913 0.0066962 -0.0007494
v -0.0076139 0.0060438 -0.0005565
v -0.0076139 0.0059516 -0.0008261
v -0.0077675 0.0053213 -0.0005488
v -0.0077675 0.0052292 -0.0007100
v -0.0077675 0.0051217 -0.0008645
v -0.0077675 0.0049912 -0.0009950
v -0.0077675 0.0048454 -0.0011178
v -0.0077675 0.0046765 -0.0012099
v -0.0076139 0.0047226 -0.0019314
v -0.0073913 0.0049298 -0.0025762
v -0.0073913 0.0045614 -0.0026683
v -0.0073913 0.0041852 -0.0027067
v -0.0073913 0.0038091 -0.0026913
v -0.0073913 0.0034407 -0.0026223
v -0.0076139 0.0036019 -0.0019698
v -0.0076139 0.0033323 -0.0018854
v -0.0077675 0.0035865 -0.0012483
v -0.0077675 0.0034177 -0.0011638
v -0.0077675 0.0032632 -0.0010564
v -0.0077675 0.0031250 -0.0009336
v -0.0078596 0.0036019 -0.0004644
v -0.0078365 0.0034023 -0.0004644
v -0.0078212 0.0031941 -0.0004567
v -0.0078135 0.0031250 -0.0004567
v -0.0077675 0.0028333 -0.0004490
v -0.0077598 0.0028103 -0.0004490
v -0.0077368 0.0026338 -0.0004414
v -0.0075986 0.0021118 -0.0004183
v -0.0075756 0.0020120 -0.0004107
v -0.0074834 0.0016666 -0.0003953
v -0.0074834 0.0016666 -0.0001727
v -0.0074834 0.0016666 0.0001727
v -0.0074834 0.0016666 0.0003953
v -0.0075756 0.0020120 0.0004107
v -0.0075986 0.0021118 0.0004183
v -0.0077368 0.0026338 0.0004414
v -0.0077598 0.0028103 0.0004490
v -0.0077675 0.0028333 0.0004490
v -0.0078135 0.0031250 0.0004567
v -0.0078212 0.0031941 0.0004644
v -0.0078365 0.0034023 0.0004644
v -0.0078596 0.0036019 0.0004644
v -0.0078596 0.0036249 0.0004721
v -0.0078442 0.0036249 0.0006333
v -0.0078212 0.0036326 0.0008405
v -0.0078135 0.0036326 0.0009633
v -0.0077828 0.0036403 0.0011629
v -0.0077675 0.0036403 0.0012550
v -0.0077368 0.0036479 0.0014622
v -0.0076370 0.0036633 0.0018240
v -0.0075986 0.0036710 0.0019775
v -0.0074834 0.0036940 0.0024304
v -0.0074834 0.0038322 0.0024304
v -0.0074834 0.0041776 0.0024304
v -0.0074834 0.0044846 0.0024304
v -0.0075065 0.0044923 0.0023306
v -0.0075986 0.0045076 0.0019775
v -0.0077368 0.0045383 0.0014622
v -0.0077444 0.0045383 0.0013932
v -0.0077675 0.0045383 0.0012550
v -0.0078135 0.0045537 0.0009633
v -0.0078135 0.0045537 0.0009480
v -0.0078365 0.0045537 0.0007407
v -0.0078519 0.0045614 0.0005411
v -0.0078596 0.0045614 0.0004721
v -0.0078519 0.0046765 0.0004644
v -0.0078289 0.0048837 0.0004644
v -0.0078135 0.0050603 0.0004567
v -0.0077982 0.0051370 0.0004567
v -0.0077675 0.0053520 0.0004490
v -0.0077368 0.0055515 0.0004414
v -0.0077060 0.0056676 0.0004414
v -0.0075986 0.0060668 0.0004183
v -0.0074834 0.0065197 0.0003953
v -0.0074834 0.0065197 0.0003416
v -0.0074834 0.0065197 0.0000038
v -0.0074834 0.0065197 -0.0003416
v -0.0074834 0.0065197 -0.0003953
v -0.0075986 0.0060668 -0.0004183
v -0.0077060 0.0056676 -0.0004414
v -0.0077368 0.0055515 -0.0004414
v -0.0077675 0.0053520 -0.0004490
v -0.0077982 0.0051370 -0.0004567
v -0.0078135 0.0050603 -0.0004567
v -0.0078289 0.0048837 -0.0004644
v -0.0078519 0.0046765 -0.0004644
v -0.0078596 0.0045614 -0.0004721
v -0.0078519 0.0045614 -0.0005411
v -0.0078365 0.0045537 -0.0007417
v -0.0078135 0.0045537 -0.0009489
v -0.0078135 0.0045537 -0.0009643
v -0.0077675 0.0045383 -0.0012560
v -0.0077444 0.0045383 -0.0013941
v -0.0077368 0.0045383 -0.0014632
v -0.0075986 0.0045076 -0.0019775
v -0.0075065 0.0044923 -0.0023306
v -0.0074834 0.0044846 -0.0024304
v -0.0074834 0.0041776 -0.0024304
v -0.0074834 0.0038322 -0.0024304
v -0.0074834 0.0036940 -0.0024304
v -0.0075986 0.0036710 -0.0019775
v -0.0076370 0.0036633 -0.0018240
v -0.0077368 0.0036479 -0.0014632
v -0.0077675 0.0036403 -0.0012560
v -0.0077828 0.0036403 -0.0011638
v -0.0078135 0.0036326 -0.0009643
v -0.0078212 0.0036326 -0.0008415
v -0.0078442 0.0036249 -0.0006333
v -0.0078596 0.0036249 -0.0004721
f 1 2 3
f 3 2 4
f 4 2 5
f 5 2 6
f 6 2 7
f 7 2 8
f 8 2 9
f 9 2 10
f 10 2 11
f 11 2 12
f 12 2 13
f 13 2 14
f 14 2 15
f 15 2 16
f 16 2 17
f 17 2 18
f 18 2 19
f 19 2 20
f 20 2 21
f 21 2 22
f 22 2 23
f 23 2 24
f 24 2 25
f 2 1 25
f 26 27 28
f 28 27 29
f 27 30 29
f 29 30 31
f 30 32 31
f 31 32 33
f 32 34 33
f 33 34 35
f 34 36 35
f 35 36 37
f 36 38 37
f 37 38 39
f 38 40 39
f 39 40 41
f 40 42 41
f 41 42 43
f 42 44 43
f 43 44 45
f 44 46 45
f 45 46 47
f 46 48 47
f 47 48 49
f 48 50 49
f 49 50 51
f 50 52 51
f 51 52 53
f 52 54 53
f 53 54 55
f 54 56 55
f 55 56 57
f 56 58 57
f 57 58 59
f 58 60 59
f 59 60 61
f 60 62 61
f 61 62 63
f 62 64 63
f 63 64 65
f 64 66 65
f 65 66 67
f 66 68 67
f 67 68 69
f 68 70 69
f 69 70 71
f 70 72 71
f 71 72 73
f 72 26 73
f 26 28 73
f 74 75 76
f 76 75 77
f 75 78 77
f 77 78 79
f 78 80 79
f 79 80 81
f 80 82 81
f 81 82 83
f 82 84 83
f 83 84 85
f 84 86 85
f 85 86 87
f 86 88 87
f 87 88 89
f 88 90 89
f 89 90 91
f 90 92 91
f 91 92 93
f 92 94 93
f 93 94 95
f 94 96 95
f 95 96 97
f 96 98 97
f 97 98 99
f 98 100 99
f 99 100 101
f 100 102 101
f 101 102 103
f 102 104 103
f 103 104 105
f 104 106 105
f 105 106 107
f 106 108 107
f 107 108 109
f 108 110 109
f 109 110 111
f 110 112 111
f 111 112 113
f 112 114 113
f 113 114 115
f 114 116 115
f 115 116 117
f 116 118 117
f 117 118 119
f 118 120 119
f 119 120 121
f 120 74 121
f 74 76 121
f 122 123 124
f 123 125 124
f 124 125 126
f 126 125 127
f 125 128 127
f 127 128 129
f 129 128 130
f 128 131 130
f 130 131 132
f 132 131 133
f 131 134 133
f 133 134 135
f 135 134 136
f 134 137 136
f 136 137 138
f 138 137 139
f 137 140 139
f 139 140 141
f 141 140 142
f 140 143 142
f 142 143 144
f 144 143 145
f 143 146 145
f 145 146 147
f 147 146 148
f 146 149 148
f 148 149 150
f 150 149 151
f 149 152 151
f 151 152 153
f 153 152 154
f 152 155 154
f 154 155 156
f 156 155 157
f 155 158 157
f 157 158 159
f 159 158 160
f 158 161 160
f 160 161 162
f 162 161 163
f 161 164 163
f 163 164 165
f 165 164 166
f 164 167 166
f 166 167 168
f 168 167 169
f 167 170 169
f 169 170 171
f 171 170 172
f 170 173 172
f 172 173 174
f 174 173 175
f 173 176 175
f 175 176 177
f 177 176 178
f 176 179 178
f 178 179 180
f 179 181 180
f 180 181 182
f 182 181 183
f 181 184 183
f 183 184 185
f 185 184 186
f 184 187 186
f 186 187 188
f 188 187 189
f 187 190 189
f 189 190 191
f 191 190 192
f 190 123 192
f 123 122 192
f 193 194 195
f 194 196 195
f 195 196 197
f 196 198 197
f 199 200 201
f 201 200 202
f 200 203 202
f 203 204 202
f 204 205 202
f 205 206 202
f 206 207 202
f 207 208 202
f 208 209 202
f 209 210 202
f 211 212 213
f 212 214 213
f 214 215 213
f 215 216 213
f 216 217 213
f 218 219 220
f 220 219 221
f 221 219 222
f 219 213 222
f 222 213 223
f 213 217 223
f 224 225 226
f 225 227 226
f 227 228 226
f 226 228 229
f 228 230 229
f 230 231 229
f 232 229 233
f 233 229 234
f 234 229 235
f 229 231 235
f 236 237 238
f 238 237 239
f 237 240 239
f 239 240 241
f 240 242 241
f 241 242 243
f 242 244 243
f 243 244 245
f 244 246 245
f 245 246 247
f 246 248 247
f 247 248 249
f 248 250 249
f 249 250 251
f 250 252 251
f 251 252 253
f 252 254 253
f 253 254 255
f 254 256 255
f 255 256 257
f 256 258 257
f 257 258 259
f 258 260 259
f 259 260 261
f 260 262 261
f 261 262 263
f 262 264 263
f 263 264 265
f 265 264 266
f 264 267 266
f 267 268 266
f 268 269 266
f 266 269 270
f 269 271 270
f 270 271 272
f 271 273 272
f 272 273 274
f 273 275 274
f 274 275 276
f 275 277 276
f 276 277 278
f 277 279 278
f 278 279 280
f 279 281 280
f 280 281 282
f 281 283 282
f 282 283 284
f 283 285 284
f 284 285 286
f 285 287 286
f 286 287 288
f 287 289 288
f 288 289 290
f 289 291 290
f 290 291 292
f 291 293 292
f 292 293 294
f 293 295 294
f 294 295 296
f 295 297 296
f 296 297 298
f 297 299 298
f 298 299 300
f 299 301 300
f 300 301 302
f 301 303 302
f 302 303 304
f 303 305 304
f 304 305 306
f 305 307 306
f 306 307 308
f 307 309 308
f 308 309 310
f 309 311 310
f 310 311 312
f 311 313 312
f 312 313 314
f 313 315 314
f 314 315 316
f 315 317 316
f 316 317 318
f 317 319 318
f 318 319 320
f 319 321 320
f 320 321 322
f 321 323 322
f 322 323 324
f 323 325 324
f 324 325 326
f 325 327 326
f 326 327 328
f 327 236 328
f 236 238 328
f 328 238 329
f 329 238 330
f 238 239 330
f 330 239 331
f 239 241 331
f 331 241 332
f 241 243 332
f 332 243 333
f 243 245 333
f 333 245 334
f 245 247 334
f 334 247 335
f 247 249 335
f 335 249 336
f 249 251 336
f 336 251 337
f 251 253 337
f 337 253 338
f 253 255 338
f 338 255 339
f 255 257 339
f 339 257 340
f 257 259 340
f 340 259 341
f 259 261 341
f 341 261 342
f 261 263 342
f 342 263 343
f 263 265 343
f 343 265 344
f 265 266 344
f 344 266 345
f 266 270 345
f 345 270 346
f 270 272 346
f 346 272 347
f 272 274 347
f 347 274 348
f 274 276 348
f 348 276 349
f 276 278 349
f 349 278 350
f 278 280 350
f 350 280 351
f 280 282 351
f 351 282 352
f 282 284 352
f 352 284 353
f 284 286 353
f 353 286 354
f 286 288 354
f 354 288 355
f 288 290 355
f 355 290 356
f 290 292 356
f 356 292 357
f 292 294 357
f 357 294 358
f 294 296 358
f 358 296 359
f 296 298 359
f 359 298 360
f 298 300 360
f 360 300 361
f 300 302 361
f 361 302 362
f 302 304 362
f 362 304 363
f 304 306 363
f 363 306 364
f 306 308 364
f 364 308 365
f 308 310 365
f 365 310 366
f 310 312 366
f 366 312 367
f 312 314 367
f 367 314 368
f 314 316 368
f 368 316 369
f 316 318 369
f 369 318 370
f 318 320 370
f 370 320 371
f 320 322 371
f 371 322 372
f 322 324 372
f 372 324 373
f 324 326 373
f 373 326 374
f 326 328 374
f 328 329 374
f 374 329 375
f 375 329 376
f 329 330 376
f 376 330 377
f 330 331 377
f 377 331 378
f 331 332 378
f 378 332 379
f 332 333 379
f 379 333 380
f 333 334 380
f 380 334 381
f 334 335 381
f 381 335 382
f 335 336 382
f 382 336 383
f 336 337 383
f 383 337 384
f 337 338 384
f 384 338 385
f 338 339 385
f 385 339 386
f 339 340 386
f 386 340 387
f 340 341 387
f 387 341 388
f 341 342 388
f 388 342 389
f 342 343 389
f 389 343 390
f 343 344 390
f 390 344 391
f 344 345 391
f 391 345 392
f 345 346 392
f 392 346 393
f 346 347 393
f 393 347 394
f 347 348 394
f 394 348 395
f 348 349 395
f 395 349 396
f 349 350 396
f 396 350 397
f 350 351 397
f 397 351 398
f 351 352 398
f 398 352 399
f 352 353 399
f 399 353 400
f 353 354 400
f 400 354 401
f 354 355 401
f 401 355 402
f 355 356 402
f 402 356 403
f 356 357 403
f 403 357 404
f 357 358 404
f 404 358 405
f 358 359 405
f 405 359 406
f 359 360 406
f 406 360 407
f 360 361 407
f 407 361 408
f 361 362 408
f 408 362 409
f 362 363 409
f 409 363 410
f 363 364 410
f 410 364 411
f 364 365 411
f 411 365 412
f 365 366 412
f 412 366 413
f 366 367 413
f 413 367 414
f 367 368 414
f 414 368 415
f 368 369 415
f 415 369 416
f 369 370 416
f 416 370 417
f 370 371 417
f 417 371 418
f 371 372 418
f 418 372 419
f 372 373 419
f 419 373 420
f 373 374 420
f 374 375 420
f 420 375 421
f 421 375 422
f 422 375 423
f 375 376 423
f 423 376 424
f 424 376 425
f 376 377 425
f 425 377 426
f 426 377 427
f 377 378 427
f 427 378 428
f 428 378 429
f 378 379 429
f 429 379 430
f 379 380 430
f 430 380 431
f 380 381 431
f 431 381 432
f 432 381 433
f 433 381 434
f 381 382 434
f 434 382 435
f 435 382 436
f 382 383 436
f 436 383 437
f 437 383 438
f 383 384 438
f 438 384 439
f 439 384 440
f 384 385 440
f 440 385 441
f 441 385 442
f 385 386 442
f 442 386 443
f 443 386 444
f 386 387 444
f 444 387 445
f 445 387 446
f 387 388 446
f 446 388 447
f 447 388 448
f 388 389 448
f 448 389 449
f 449 389 450
f 389 390 450
f 450 390 451
f 451 390 452
f 390 391 452
f 452 391 453
f 453 391 454
f 391 392 454
f 454 392 455
f 455 392 456
f 456 392 457
f 392 393 457
f 457 393 458
f 458 393 459
f 393 394 459
f 459 394 460
f 460 394 461
f 394 395 461
f 461 395 462
f 462 395 463
f 395 396 463
f 463 396 464
f 464 396 465
f 396 397 465
f 465 397 466
f 466 397 467
f 397 398 467
f 467 398 468
f 468 398 469
f 398 399 469
f 469 399 470
f 470 399 471
f 399 400 471
f 471 400 472
f 472 400 473
f 400 401 473
f 473 401 474
f 474 401 475
f 401 402 475
f 475 402 476
f 476 402 477
f 402 403 477
f 477 403 478
f 403 404 478
f 478 404 479
f 479 404 480
f 404 405 480
f 480 405 481
f 481 405 482
f 405 406 482
f 482 406 483
f 483 406 484
f 406 407 484
f 484 407 485
f 485 407 486
f 407 408 486
f 486 408 487
f 487 408 488
f 408 409 488
f 488 409 489
f 489 409 490
f 409 410 490
f 490 410 491
f 491 410 492
f 410 411 492
f 492 411 493
f 493 411 494
f 411 412 494
f 494 412 495
f 495 412 496
f 412 413 496
f 496 413 497
f 497 413 498
f 413 414 498
f 498 414 499
f 499 414 500
f 414 415 500
f 500 415 501
f 501 415 502
f 415 416 502
f 502 416 503
f 503 416 504
f 416 417 504
f 504 417 505
f 505 417 506
f 417 418 506
f 506 418 507
f 507 418 508
f 418 419 508
f 508 419 509
f 509 419 510
f 419 420 510
f 510 420 511
f 420 421 511
f 512 513 514
f 515 516 517
f 516 518 517
f 518 514 517
f 514 513 517
f 519 520 521
f 520 522 521
f 521 522 523
f 523 522 524
f 524 522 525
f 525 522 526
f 526 522 527
f 527 522 528
f 528 522 529
f 522 530 529
f 531 532 533
f 532 534 533
f 535 536 537
f 536 533 537
f 538 537 539
f 539 537 540
f 537 533 540
f 533 534 540
f 540 534 541
f 534 542 541
f 543 544 545
f 545 544 546
f 546 544 547
f 547 544 548
f 548 544 549
f 549 544 550
f 550 544 551
f 544 552 551
f 551 552 553
f 553 552 554
f 552 555 554
f 556 557 558
f 557 559 558
f 558 559 560
f 559 561 560
f 562 563 564
f 563 565 564
f 565 566 564
f 566 567 564
f 567 568 564
f 568 569 564
f 569 570 564
f 564 570 571
f 572 571 573
f 573 571 574
f 571 570 574
f 575 576 577
f 577 576 578
f 578 576 579
f 579 576 580
f 580 576 581
f 581 576 582
f 582 576 583
f 576 584 583
f 583 584 585
f 585 584 586
f 584 587 586
f 588 589 590
f 589 591 590
f 590 591 592
f 591 593 592
f 594 595 596
f 595 597 596
f 597 598 596
f 598 599 596
f 599 600 596
f 600 601 596
f 596 601 602
f 603 602 604
f 604 602 605
f 602 601 605
f 606 607 608
f 608 607 609
f 607 610 609
f 609 610 611
f 611 610 612
f 613 612 614
f 614 612 615
f 612 610 615
f 615 610 616
f 616 610 617
f 610 607 617
f 617 607 618
f 618 607 619
f 607 606 619
f 619 606 620
f 620 606 621
f 606 622 621
f 621 622 623
f 623 622 624
f 625 626 627
f 627 626 628
f 626 629 628
f 628 629 630
f 630 629 631
f 632 631 633
f 633 631 634
f 631 629 634
f 634 629 635
f 635 629 636
f 629 626 636
f 636 626 637
f 637 626 638
f 626 625 638
f 638 625 639
f 639 625 640
f 625 641 640
f 640 641 642
f 642 641 643
f 644 645 646
f 646 645 647
f 645 648 647
f 647 648 649
f 649 648 650
f 651 650 652
f 652 650 653
f 650 648 653
f 653 648 654
f 654 648 655
f 648 645 655
f 655 645 656
f 656 645 657
f 645 644 657
f 657 644 658
f 658 644 659
f 644 660 659
f 659 660 661
f 661 660 662
f 663 664 665
f 665 664 666
f 664 667 666
f 666 667 668
f 668 667 669
f 667 670 669
f 669 670 671
f 671 670 672
f 673 674 675
f 674 676 675
f 675 676 677
f 676 678 677
f 678 672 677
f 672 670 677
f 677 670 679
f 679 670 680
f 670 667 680
f 680 667 681
f 667 664 681
f 681 664 682
f 682 664 683
f 664 663 683
f 663 684 683
f 684 685 683
f 683 685 686
f 685 687 686
f 687 688 686
f 686 688 689
f 688 690 689
f 690 691 689
f 689 691 692
f 691 693 692
f 693 694 692
f 692 694 695
f 694 696 695
f 696 697 695
f 695 697 698
f 697 699 698
f 699 700 698
f 698 700 701
f 700 702 701
f 702 662 701
f 662 660 701
f 701 660 703
f 703 660 704
f 660 644 704
f 644 646 704
f 704 646 705
f 705 646 706
f 646 647 706
f 706 647 707
f 647 649 707
f 707 649 708
f 708 649 709
f 649 650 709
f 709 650 710
f 650 651 710
f 651 711 710
f 711 712 710
f 710 712 713
f 712 714 713
f 714 715 713
f 713 715 716
f 715 717 716
f 717 718 716
f 716 718 719
f 718 720 719
f 720 721 719
f 719 721 722
f 721 723 722
f 723 724 722
f 722 724 725
f 724 726 725
f 726 643 725
f 643 641 725
f 725 641 727
f 727 641 728
f 641 625 728
f 625 627 728
f 728 627 729
f 729 627 730
f 627 628 730
f 730 628 731
f 628 630 731
f 731 630 732
f 732 630 733
f 630 631 733
f 733 631 734
f 631 632 734
f 632 735 734
f 735 736 734
f 734 736 737
f 736 738 737
f 738 739 737
f 737 739 740
f 739 741 740
f 741 742 740
f 740 742 743
f 742 744 743
f 744 745 743
f 743 745 746
f 745 747 746
f 747 748 746
f 746 748 749
f 748 750 749
f 750 624 749
f 624 622 749
f 749 622 751
f 751 622 752
f 622 606 752
f 606 608 752
f 752 608 753
f 753 608 754
f 608 609 754
f 754 609 755
f 609 611 755
f 755 611 756
f 757 756 758
f 756 611 758
f 611 612 758
f 758 612 759
f 612 613 759
f 613 760 759
f 760 761 759
f 759 761 762
f 761 763 762
f 763 764 762
f 762 764 765
f 764 766 765
f 766 767 765
f 765 767 768
f 767 769 768
f 769 770 768
f 770 771 768
f 768 771 772
f 771 773 772
f 773 774 772
f 772 774 775
f 774 776 775
f 776 673 775
f 673 675 775
f 775 675 777
f 777 675 778
f 675 677 778
f 677 679 778
f 778 679 779
f 779 679 780
f 679 680 780
f 780 680 781
f 680 681 781
f 781 681 782
f 681 682 782
f 783 784 785
f 784 782 785
f 782 682 785
f 786 785 787
f 785 682 787
f 682 683 787
f 683 686 787
f 787 686 788
f 686 689 788
f 788 689 789
f 689 692 789
f 789 692 790
f 692 695 790
f 790 695 791
f 695 698 791
f 791 698 792
f 698 701 792
f 701 703 792
f 792 703 793
f 793 703 794
f 703 704 794
f 704 705 794
f 794 705 795
f 795 705 796
f 705 706 796
f 796 706 797
f 706 707 797
f 797 707 798
f 707 708 798
f 798 708 799
f 800 799 801
f 799 708 801
f 708 709 801
f 802 801 803
f 801 709 803
f 709 710 803
f 710 713 803
f 803 713 804
f 713 716 804
f 804 716 805
f 716 719 805
f 805 719 806
f 719 722 806
f 806 722 807
f 722 725 807
f 725 727 807
f 807 727 808
f 808 727 809
f 727 728 809
f 728 729 809
f 809 729 810
f 810 729 811
f 729 730 811
f 811 730 812
f 730 731 812
f 812 731 813
f 731 732 813
f 813 732 814
f 815 814 816
f 814 732 816
f 732 733 816
f 817 816 818
f 816 733 818
f 733 734 818
f 734 737 818
f 818 737 819
f 737 740 819
f 819 740 820
f 740 743 820
f 820 743 821
f 743 746 821
f 821 746 822
f 746 749 822
f 749 751 822
f 822 751 823
f 823 751 824
f 751 752 824
f 752 753 824
f 824 753 825
f 825 753 826
f 753 754 826
f 826 754 827
f 754 755 827
f 827 755 828
f 755 756 828
f 828 756 829
f 756 757 829
f 829 757 830
f 830 757 831
f 831 757 832
f 757 758 832
f 758 759 832
f 759 762 832
f 832 762 833
f 762 765 833
f 833 765 834
f 765 768 834
f 834 768 835
f 768 772 835
f 835 772 836
f 772 775 836
f 775 777 836
f 836 777 837
f 837 777 838
f 777 778 838
f 778 779 838
f 838 779 839
f 839 779 840
f 779 780 840
f 840 780 841
f 780 781 841
f 841 781 842
f 781 782 842
f 782 784 842
f 842 784 843
f 843 784 844
f 784 783 844
f 844 783 845
f 845 783 846
f 846 783 847
f 847 783 848
f 783 785 848
f 785 786 848
f 848 786 849
f 849 786 850
f 850 786 851
f 786 787 851
f 787 788 851
f 851 788 852
f 852 788 853
f 788 789 853
f 789 790 853
f 853 790 854
f 854 790 855
f 790 791 855
f 855 791 856
f 791 792 856
f 792 793 856
f 856 793 857
f 857 793 858
f 858 793 859
f 793 794 859
f 794 795 859
f 859 795 860
f 860 795 861
f 861 795 862
f 795 796 862
f 862 796 863
f 796 797 863
f 863 797 864
f 865 864 866
f 864 797 866
f 797 798 866
f 798 799 866
f 866 799 867
f 867 799 868
f 868 799 869
f 799 800 869
f 869 800 870
f 870 800 871
f 800 801 871
f 871 801 872
f 801 802 872
f 872 802 873
f 873 802 874
f 802 803 874
f 874 803 875
f 803 804 875
f 804 805 875
f 875 805 876
f 876 805 877
f 805 806 877
f 877 806 878
f 806 807 878
f 807 808 878
f 878 808 879
f 879 808 880
f 880 808 881
f 808 809 881
f 809 810 881
f 881 810 882
f 882 810 883
f 883 810 884
f 810 811 884
f 884 811 885
f 811 812 885
f 885 812 886
f 887 886 888
f 886 812 888
f 812 813 888
f 813 814 888
f 888 814 889
f 889 814 890
f 890 814 891
f 814 815 891
f 891 815 892
f 892 815 893
f 815 816 893
f 893 816 894
f 816 817 894
f 894 817 895
f 895 817 896
f 817 818 896
f 896 818 897
f 818 819 897
f 819 820 897
f 897 820 898
f 820 821 898
f 898 821 899
f 899 821 900
f 821 822 900
f 900 822 901
f 822 823 901
f 901 823 902
f 902 823 903
f 823 824 903
f 903 824 904
f 824 825 904
f 904 825 905
f 905 825 906
f 825 826 906
f 906 826 907
f 826 827 907
f 907 827 908
f 827 828 908
f 909 908 910
f 908 828 910
f 828 829 910
f 910 829 911
f 829 830 911
f 911 830 912
f 912 830 913
f 913 830 914
f 914 830 915
f 830 831 915
f 915 831 916
f 916 831 917
f 917 831 918
f 831 832 918
f 832 833 918
f 918 833 919
f 919 833 920
f 833 834 920
f 834 835 920
f 920 835 921
f 921 835 922
f 835 836 922
f 922 836 923
f 836 837 923
f 923 837 924
f 924 837 925
f 837 838 925
f 925 838 926
f 838 839 926
f 926 839 927
f 927 839 928
f 839 840 928
f 928 840 929
f 840 841 929
f 929 841 930
f 841 842 930
f 930 842 931
f 842 843 931
