# Botball Lab: metres, +Y up, centred XZ, base Y=0
mtllib metal_036.mtl
s off
v -0.0125000 0.0159500 0.0145500
v -0.0125000 0.0180500 0.0145500
v -0.0125000 0.0180500 -0.0145500
v -0.0125000 0.0159500 -0.0145500
v 0.0125000 0.0159500 -0.0145500
v 0.0125000 0.0180500 -0.0145500
v 0.0125000 0.0180500 0.0145500
v 0.0125000 0.0159500 0.0145500
v -0.0120500 0.0155000 -0.0145500
v 0.0120500 0.0155000 -0.0145500
v 0.0120500 0.0155000 0.0145500
v -0.0120500 0.0155000 0.0145500
v -0.0120500 0.0185000 0.0145500
v 0.0120500 0.0185000 0.0145500
v 0.0120500 0.0185000 -0.0145500
v -0.0120500 0.0185000 -0.0145500
v -0.0120500 0.0180500 -0.0150000
v 0.0120500 0.0180500 -0.0150000
v 0.0120500 0.0159500 -0.0150000
v -0.0120500 0.0159500 -0.0150000
v -0.0120500 0.0159500 0.0150000
v 0.0120500 0.0159500 0.0150000
v 0.0120500 0.0180500 0.0150000
v -0.0120500 0.0180500 0.0150000
v 0.0110000 0.0000000 0.0000000
v 0.0110000 0.0080000 0.0000000
v 0.0109470 0.0080000 0.0010782
v 0.0109470 0.0000000 0.0010782
v 0.0020000 0.0000000 0.0000000
v 0.0019904 0.0000000 0.0001960
v 0.0019904 0.0080000 0.0001960
v 0.0020000 0.0080000 0.0000000
v 0.0107886 0.0080000 0.0021460
v 0.0107886 0.0000000 0.0021460
v 0.0019616 0.0000000 0.0003902
v 0.0019616 0.0080000 0.0003902
v 0.0105263 0.0080000 0.0031931
v 0.0105263 0.0000000 0.0031931
v 0.0019139 0.0000000 0.0005806
v 0.0019139 0.0080000 0.0005806
v 0.0101627 0.0080000 0.0042095
v 0.0101627 0.0000000 0.0042095
v 0.0018478 0.0000000 0.0007654
v 0.0018478 0.0080000 0.0007654
v 0.0097011 0.0080000 0.0051854
v 0.0097011 0.0000000 0.0051854
v 0.0017638 0.0000000 0.0009428
v 0.0017638 0.0080000 0.0009428
v 0.0091462 0.0080000 0.0061113
v 0.0091462 0.0000000 0.0061113
v 0.0016629 0.0000000 0.0011111
v 0.0016629 0.0080000 0.0011111
v 0.0085031 0.0080000 0.0069783
v 0.0085031 0.0000000 0.0069783
v 0.0015460 0.0000000 0.0012688
v 0.0015460 0.0080000 0.0012688
v 0.0077782 0.0080000 0.0077782
v 0.0077782 0.0000000 0.0077782
v 0.0014142 0.0000000 0.0014142
v 0.0014142 0.0080000 0.0014142
v 0.0069783 0.0080000 0.0085031
v 0.0069783 0.0000000 0.0085031
v 0.0012688 0.0000000 0.0015460
v 0.0012688 0.0080000 0.0015460
v 0.0061113 0.0080000 0.0091462
v 0.0061113 0.0000000 0.0091462
v 0.0011111 0.0000000 0.0016629
v 0.0011111 0.0080000 0.0016629
v 0.0051854 0.0080000 0.0097011
v 0.0051854 0.0000000 0.0097011
v 0.0009428 0.0000000 0.0017638
v 0.0009428 0.0080000 0.0017638
v 0.0042095 0.0080000 0.0101627
v 0.0042095 0.0000000 0.0101627
v 0.0007654 0.0000000 0.0018478
v 0.0007654 0.0080000 0.0018478
v 0.0031931 0.0080000 0.0105263
v 0.0031931 0.0000000 0.0105263
v 0.0005806 0.0000000 0.0019139
v 0.0005806 0.0080000 0.0019139
v 0.0021460 0.0080000 0.0107886
v 0.0021460 0.0000000 0.0107886
v 0.0003902 0.0000000 0.0019616
v 0.0003902 0.0080000 0.0019616
v 0.0010782 0.0080000 0.0109470
v 0.0010782 0.0000000 0.0109470
v 0.0001960 0.0000000 0.0019904
v 0.0001960 0.0080000 0.0019904
v 0.0000000 0.0080000 0.0110000
v 0.0000000 0.0000000 0.0110000
v 0.0000000 0.0000000 0.0020000
v 0.0000000 0.0080000 0.0020000
v -0.0010782 0.0080000 0.0109470
v -0.0010782 0.0000000 0.0109470
v -0.0001960 0.0000000 0.0019904
v -0.0001960 0.0080000 0.0019904
v -0.0021460 0.0080000 0.0107886
v -0.0021460 0.0000000 0.0107886
v -0.0003902 0.0000000 0.0019616
v -0.0003902 0.0080000 0.0019616
v -0.0031931 0.0080000 0.0105263
v -0.0031931 0.0000000 0.0105263
v -0.0005806 0.0000000 0.0019139
v -0.0005806 0.0080000 0.0019139
v -0.0042095 0.0080000 0.0101627
v -0.0042095 0.0000000 0.0101627
v -0.0007654 0.0000000 0.0018478
v -0.0007654 0.0080000 0.0018478
v -0.0051854 0.0080000 0.0097011
v -0.0051854 0.0000000 0.0097011
v -0.0009428 0.0000000 0.0017638
v -0.0009428 0.0080000 0.0017638
v -0.0061113 0.0080000 0.0091462
v -0.0061113 0.0000000 0.0091462
v -0.0011111 0.0000000 0.0016629
v -0.0011111 0.0080000 0.0016629
v -0.0069783 0.0080000 0.0085031
v -0.0069783 0.0000000 0.0085031
v -0.0012688 0.0000000 0.0015460
v -0.0012688 0.0080000 0.0015460
v -0.0077782 0.0080000 0.0077782
v -0.0077782 0.0000000 0.0077782
v -0.0014142 0.0000000 0.0014142
v -0.0014142 0.0080000 0.0014142
v -0.0085031 0.0080000 0.0069783
v -0.0085031 0.0000000 0.0069783
v -0.0015460 0.0000000 0.0012688
v -0.0015460 0.0080000 0.0012688
v -0.0091462 0.0080000 0.0061113
v -0.0091462 0.0000000 0.0061113
v -0.0016629 0.0000000 0.0011111
v -0.0016629 0.0080000 0.0011111
v -0.0097011 0.0080000 0.0051854
v -0.0097011 0.0000000 0.0051854
v -0.0017638 0.0000000 0.0009428
v -0.0017638 0.0080000 0.0009428
v -0.0101627 0.0080000 0.0042095
v -0.0101627 0.0000000 0.0042095
v -0.0018478 0.0000000 0.0007654
v -0.0018478 0.0080000 0.0007654
v -0.0105263 0.0080000 0.0031931
v -0.0105263 0.0000000 0.0031931
v -0.0019139 0.0000000 0.0005806
v -0.0019139 0.0080000 0.0005806
v -0.0107886 0.0080000 0.0021460
v -0.0107886 0.0000000 0.0021460
v -0.0019616 0.0000000 0.0003902
v -0.0019616 0.0080000 0.0003902
v -0.0109470 0.0080000 0.0010782
v -0.0109470 0.0000000 0.0010782
v -0.0019904 0.0000000 0.0001960
v -0.0019904 0.0080000 0.0001960
v -0.0110000 0.0080000 0.0000000
v -0.0110000 0.0000000 0.0000000
v -0.0020000 0.0000000 0.0000000
v -0.0020000 0.0080000 0.0000000
v -0.0109470 0.0080000 -0.0010782
v -0.0109470 0.0000000 -0.0010782
v -0.0019904 0.0000000 -0.0001960
v -0.0019904 0.0080000 -0.0001960
v -0.0107886 0.0080000 -0.0021460
v -0.0107886 0.0000000 -0.0021460
v -0.0019616 0.0000000 -0.0003902
v -0.0019616 0.0080000 -0.0003902
v -0.0105263 0.0080000 -0.0031931
v -0.0105263 0.0000000 -0.0031931
v -0.0019139 0.0000000 -0.0005806
v -0.0019139 0.0080000 -0.0005806
v -0.0101627 0.0080000 -0.0042095
v -0.0101627 0.0000000 -0.0042095
v -0.0018478 0.0000000 -0.0007654
v -0.0018478 0.0080000 -0.0007654
v -0.0097011 0.0080000 -0.0051854
v -0.0097011 0.0000000 -0.0051854
v -0.0017638 0.0000000 -0.0009428
v -0.0017638 0.0080000 -0.0009428
v -0.0091462 0.0080000 -0.0061113
v -0.0091462 0.0000000 -0.0061113
v -0.0016629 0.0000000 -0.0011111
v -0.0016629 0.0080000 -0.0011111
v -0.0085031 0.0080000 -0.0069783
v -0.0085031 0.0000000 -0.0069783
v -0.0015460 0.0000000 -0.0012688
v -0.0015460 0.0080000 -0.0012688
v -0.0077782 0.0080000 -0.0077782
v -0.0077782 0.0000000 -0.0077782
v -0.0014142 0.0000000 -0.0014142
v -0.0014142 0.0080000 -0.0014142
v -0.0069783 0.0080000 -0.0085031
v -0.0069783 0.0000000 -0.0085031
v -0.0012688 0.0000000 -0.0015460
v -0.0012688 0.0080000 -0.0015460
v -0.0061113 0.0080000 -0.0091462
v -0.0061113 0.0000000 -0.0091462
v -0.0011111 0.0000000 -0.0016629
v -0.0011111 0.0080000 -0.0016629
v -0.0051854 0.0080000 -0.0097011
v -0.0051854 0.0000000 -0.0097011
v -0.0009428 0.0000000 -0.0017638
v -0.0009428 0.0080000 -0.0017638
v -0.0042095 0.0080000 -0.0101627
v -0.0042095 0.0000000 -0.0101627
v -0.0007654 0.0000000 -0.0018478
v -0.0007654 0.0080000 -0.0018478
v -0.0031931 0.0080000 -0.0105263
v -0.0031931 0.0000000 -0.0105263
v -0.0005806 0.0000000 -0.0019139
v -0.0005806 0.0080000 -0.0019139
v -0.0021460 0.0080000 -0.0107886
v -0.0021460 0.0000000 -0.0107886
v -0.0003902 0.0000000 -0.0019616
v -0.0003902 0.0080000 -0.0019616
v -0.0010782 0.0080000 -0.0109470
v -0.0010782 0.0000000 -0.0109470
v -0.0001960 0.0000000 -0.0019904
v -0.0001960 0.0080000 -0.0019904
v -0.0000000 0.0080000 -0.0110000
v -0.0000000 0.0000000 -0.0110000
v -0.0000000 0.0000000 -0.0020000
v -0.0000000 0.0080000 -0.0020000
v 0.0010782 0.0080000 -0.0109470
v 0.0010782 0.0000000 -0.0109470
v 0.0001960 0.0000000 -0.0019904
v 0.0001960 0.0080000 -0.0019904
v 0.0021460 0.0080000 -0.0107886
v 0.0021460 0.0000000 -0.0107886
v 0.0003902 0.0000000 -0.0019616
v 0.0003902 0.0080000 -0.0019616
v 0.0031931 0.0080000 -0.0105263
v 0.0031931 0.0000000 -0.0105263
v 0.0005806 0.0000000 -0.0019139
v 0.0005806 0.0080000 -0.0019139
v 0.0042095 0.0080000 -0.0101627
v 0.0042095 0.0000000 -0.0101627
v 0.0007654 0.0000000 -0.0018478
v 0.0007654 0.0080000 -0.0018478
v 0.0051854 0.0080000 -0.0097011
v 0.0051854 0.0000000 -0.0097011
v 0.0009428 0.0000000 -0.0017638
v 0.0009428 0.0080000 -0.0017638
v 0.0061113 0.0080000 -0.0091462
v 0.0061113 0.0000000 -0.0091462
v 0.0011111 0.0000000 -0.0016629
v 0.0011111 0.0080000 -0.0016629
v 0.0069783 0.0080000 -0.0085031
v 0.0069783 0.0000000 -0.0085031
v 0.0012688 0.0000000 -0.0015460
v 0.0012688 0.0080000 -0.0015460
v 0.0077782 0.0080000 -0.0077782
v 0.0077782 0.0000000 -0.0077782
v 0.0014142 0.0000000 -0.0014142
v 0.0014142 0.0080000 -0.0014142
v 0.0085031 0.0080000 -0.0069783
v 0.0085031 0.0000000 -0.0069783
v 0.0015460 0.0000000 -0.0012688
v 0.0015460 0.0080000 -0.0012688
v 0.0091462 0.0080000 -0.0061113
v 0.0091462 0.0000000 -0.0061113
v 0.0016629 0.0000000 -0.0011111
v 0.0016629 0.0080000 -0.0011111
v 0.0097011 0.0080000 -0.0051854
v 0.0097011 0.0000000 -0.0051854
v 0.0017638 0.0000000 -0.0009428
v 0.0017638 0.0080000 -0.0009428
v 0.0101627 0.0080000 -0.0042095
v 0.0101627 0.0000000 -0.0042095
v 0.0018478 0.0000000 -0.0007654
v 0.0018478 0.0080000 -0.0007654
v 0.0105263 0.0080000 -0.0031931
v 0.0105263 0.0000000 -0.0031931
v 0.0019139 0.0000000 -0.0005806
v 0.0019139 0.0080000 -0.0005806
v 0.0107886 0.0080000 -0.0021460
v 0.0107886 0.0000000 -0.0021460
v 0.0019616 0.0000000 -0.0003902
v 0.0019616 0.0080000 -0.0003902
v 0.0109470 0.0080000 -0.0010782
v 0.0109470 0.0000000 -0.0010782
v 0.0019904 0.0000000 -0.0001960
v 0.0019904 0.0080000 -0.0001960
usemtl body
vn -0.9849521 -0.1727153 0.006232
vn -0.9852188 0.1695439 0.0244702
vn -0.9849521 0.1727153 -0.006232
vn -0.9852188 -0.1695439 -0.0244702
vn 0.9849521 -0.1727153 -0.006232
vn 0.9852188 0.1695439 -0.0244702
vn 0.9849521 0.1727153 0.006232
vn 0.9852188 -0.1695439 0.0244702
vn -0.0181883 -0.9998062 -0.0075316
vn 0.0177793 -0.9994082 -0.0294489
vn 0.0181883 -0.9998062 0.0075316
vn -0.0177793 -0.9994082 0.0294489
vn -0.0181883 0.9998062 0.0075316
vn 0.0177793 0.9994082 0.0294489
vn 0.0181883 0.9998062 -0.0075316
vn -0.0177793 0.9994082 -0.0294489
vn -0.0165086 0.0947282 -0.9953663
vn 0.0123699 0.2839195 -0.9587683
vn 0.0165086 -0.0947282 -0.9953663
vn -0.0123699 -0.2839195 -0.9587683
vn -0.0165086 -0.0947282 0.9953663
vn 0.0123699 -0.2839195 0.9587683
vn 0.0165086 0.0947282 0.9953663
vn -0.0123699 0.2839195 0.9587683
vn -0.0026738 -0.2890635 -0.9573062
vn 0.0017951 -0.0979302 -0.9951917
vn 0.0002799 -0.9995421 -0.0302577
vn -0.0001432 -0.9999695 -0.0078145
vn -0.0002799 -0.9995421 0.0302577
vn 0.0001432 -0.9999695 0.0078145
vn 0.0026738 -0.2890635 0.9573062
vn -0.0017951 -0.0979302 0.9951917
vn -0.0002799 0.9995421 -0.0302577
vn 0.0001432 0.9999695 -0.0078145
vn 0.0026738 0.2890635 -0.9573062
vn -0.0017951 0.0979302 -0.9951917
vn -0.0026738 0.2890635 0.9573062
vn 0.0017951 0.0979302 0.9951917
vn 0.0002799 0.9995421 0.0302577
vn -0.0001432 0.9999695 0.0078145
vn -0.9994473 -0.0032022 -0.0330896
vn -0.9999554 0.0016414 -0.0093011
vn -0.0202499 0.0019597 -0.999793
vn -0.0221651 -0.0039115 -0.9997467
vn -0.0202499 -0.0019597 0.999793
vn -0.0221651 0.0039115 0.9997467
vn -0.9994473 0.0032022 0.0330896
vn -0.9999554 -0.0016414 0.0093011
vn 0.0202499 -0.0019597 -0.999793
vn 0.0221651 0.0039115 -0.9997467
vn 0.9994473 0.0032022 -0.0330896
vn 0.9999554 -0.0016414 -0.0093011
vn 0.9994473 -0.0032022 0.0330896
vn 0.9999554 0.0016414 0.0093011
vn 0.0202499 0.0019597 0.999793
vn 0.0221651 -0.0039115 0.9997467
vn -0.0184659 -0.9998295 -0.0001417
vn -0.0186049 -0.9998269 0.0002833
vn -0.984593 -0.1748566 0.0013416
vn -0.9844001 -0.1759239 -0.002679
vn -0.984593 0.1748566 -0.0013416
vn -0.9844001 0.1759239 0.002679
vn -0.0184659 0.9998295 0.0001417
vn -0.0186049 0.9998269 -0.0002833
vn 0.984593 -0.1748566 -0.0013416
vn 0.9844001 -0.1759239 0.002679
vn 0.0184659 -0.9998295 0.0001417
vn 0.0186049 -0.9998269 -0.0002833
vn 0.0184659 0.9998295 -0.0001417
vn 0.0186049 0.9998269 0.0002833
vn 0.984593 0.1748566 0.0013416
vn 0.9844001 0.1759239 -0.002679
vn -0.0362482 -0.6915587 -0.7214102
vn -0.5620207 -0.7929619 -0.2352533
vn -0.7483596 -0.6552304 -0.1031073
vn -0.7191043 -0.6942463 0.0301846
vn -0.3066652 -0.8068771 0.5048819
vn -0.1220776 -0.6445174 0.754781
vn -0.7191043 0.6942463 -0.0301846
vn -0.3066652 0.8068771 -0.5048819
vn -0.1220776 0.6445174 -0.754781
vn -0.0362482 0.6915587 0.7214102
vn -0.5620207 0.7929619 0.2352533
vn -0.7483596 0.6552304 0.1031073
vn 0.7191043 -0.6942463 -0.0301846
vn 0.3066652 -0.8068771 -0.5048819
vn 0.1220776 -0.6445174 -0.754781
vn 0.0362482 -0.6915587 0.7214102
vn 0.5620207 -0.7929619 0.2352533
vn 0.7483596 -0.6552304 0.1031073
vn 0.0362482 0.6915587 -0.7214102
vn 0.5620207 0.7929619 -0.2352533
vn 0.7483596 0.6552304 -0.1031073
vn 0.7191043 0.6942463 0.0301846
vn 0.3066652 0.8068771 0.5048819
vn 0.1220776 0.6445174 0.754781
vn 0.9998658 0.0 0.0163831
vn 0.9998658 0.0 -0.0163831
vn 0.9966545 0.0 0.0817305
vn 0.9934449 0.0 0.114312
vn -0.9998667 0.0 -0.0163244
vn -0.9934535 0.0 -0.114237
vn -0.9966643 0.0 -0.0816102
vn -0.9998667 0.0 0.0163244
vn 0.0 1.0 0.0
vn 0.0 -1.0 0.0
vn 0.9838467 0.0 0.1790133
vn 0.9774573 0.0 0.2111332
vn -0.9774578 0.0 -0.2111309
vn -0.9838509 0.0 -0.1789901
vn 0.9615683 0.0 0.274566
vn 0.9520707 0.0 0.3058781
vn -0.9520781 0.0 -0.3058551
vn -0.9615688 0.0 -0.2745639
vn 0.9300332 0.0 0.3674755
vn 0.9174902 0.0 0.3977584
vn -0.917386 0.0 -0.3979986
vn -0.9299932 0.0 -0.3675768
vn 0.8895215 0.0 0.4568933
vn 0.8740975 0.0 0.4857505
vn -0.8739808 0.0 -0.4859605
vn -0.8893727 0.0 -0.4571828
vn 0.8404606 0.0 0.5418727
vn 0.8222456 0.0 0.5691328
vn -0.8223268 0.0 -0.5690155
vn -0.840454 0.0 -0.5418829
vn 0.7832786 0.0 0.6216708
vn 0.7625309 0.0 0.6469519
vn -0.7625473 0.0 -0.6469325
vn -0.7833835 0.0 -0.6215386
vn 0.7186036 0.0 0.6954199
vn 0.6954199 0.0 0.7186036
vn -0.6954498 0.0 -0.7185747
vn -0.7185747 0.0 -0.6954498
vn 0.6469519 0.0 0.7625309
vn 0.6216708 0.0 0.7832786
vn -0.6215386 0.0 -0.7833835
vn -0.6469325 0.0 -0.7625473
vn 0.5691328 0.0 0.8222456
vn 0.5418727 0.0 0.8404606
vn -0.5418829 0.0 -0.840454
vn -0.5690155 0.0 -0.8223268
vn 0.4857505 0.0 0.8740975
vn 0.4568933 0.0 0.8895215
vn -0.4571828 0.0 -0.8893727
vn -0.4859605 0.0 -0.8739808
vn 0.3977584 0.0 0.9174902
vn 0.3674755 0.0 0.9300332
vn -0.3675768 0.0 -0.9299932
vn -0.3979986 0.0 -0.917386
vn 0.3058781 0.0 0.9520707
vn 0.274566 0.0 0.9615683
vn -0.2745639 0.0 -0.9615688
vn -0.3058551 0.0 -0.9520781
vn 0.2111332 0.0 0.9774573
vn 0.1790133 0.0 0.9838467
vn -0.1789901 0.0 -0.9838509
vn -0.2111309 0.0 -0.9774578
vn 0.114312 0.0 0.9934449
vn 0.0817305 0.0 0.9966545
vn -0.0816102 0.0 -0.9966643
vn -0.114237 0.0 -0.9934535
vn 0.0163831 0.0 0.9998658
vn -0.0163831 0.0 0.9998658
vn 0.0163244 0.0 -0.9998667
vn -0.0163244 0.0 -0.9998667
vn -0.0817305 0.0 0.9966545
vn -0.114312 0.0 0.9934449
vn 0.114237 0.0 -0.9934535
vn 0.0816102 0.0 -0.9966643
vn -0.1790133 0.0 0.9838467
vn -0.2111332 0.0 0.9774573
vn 0.2111309 0.0 -0.9774578
vn 0.1789901 0.0 -0.9838509
vn -0.274566 0.0 0.9615683
vn -0.3058781 0.0 0.9520707
vn 0.3058551 0.0 -0.9520781
vn 0.2745639 0.0 -0.9615688
vn -0.3674755 0.0 0.9300332
vn -0.3977584 0.0 0.9174902
vn 0.3979986 0.0 -0.917386
vn 0.3675768 0.0 -0.9299932
vn -0.4568933 0.0 0.8895215
vn -0.4857505 0.0 0.8740975
vn 0.4859605 0.0 -0.8739808
vn 0.4571828 0.0 -0.8893727
vn -0.5418727 0.0 0.8404606
vn -0.5691328 0.0 0.8222456
vn 0.5690155 0.0 -0.8223268
vn 0.5418829 0.0 -0.840454
vn -0.6216708 0.0 0.7832786
vn -0.6469519 0.0 0.7625309
vn 0.6469325 0.0 -0.7625473
vn 0.6215386 0.0 -0.7833835
vn -0.6954199 0.0 0.7186036
vn -0.7186036 0.0 0.6954199
vn 0.7185747 0.0 -0.6954498
vn 0.6954498 0.0 -0.7185747
vn -0.7625309 0.0 0.6469519
vn -0.7832786 0.0 0.6216708
vn 0.7833835 0.0 -0.6215386
vn 0.7625473 0.0 -0.6469325
vn -0.8222456 0.0 0.5691328
vn -0.8404606 0.0 0.5418727
vn 0.840454 0.0 -0.5418829
vn 0.8223268 0.0 -0.5690155
vn -0.8740975 0.0 0.4857505
vn -0.8895215 0.0 0.4568933
vn 0.8893727 0.0 -0.4571828
vn 0.8739808 0.0 -0.4859605
vn -0.9174902 0.0 0.3977584
vn -0.9300332 0.0 0.3674755
vn 0.9299932 0.0 -0.3675768
vn 0.917386 0.0 -0.3979986
vn -0.9520707 0.0 0.3058781
vn -0.9615683 0.0 0.274566
vn 0.9615688 0.0 -0.2745639
vn 0.9520781 0.0 -0.3058551
vn -0.9774573 0.0 0.2111332
vn -0.9838467 0.0 0.1790133
vn 0.9838509 0.0 -0.1789901
vn 0.9774578 0.0 -0.2111309
vn -0.9934449 0.0 0.114312
vn -0.9966545 0.0 0.0817305
vn 0.9966643 0.0 -0.0816102
vn 0.9934535 0.0 -0.114237
vn -0.9998658 0.0 0.0163831
vn -0.9998658 0.0 -0.0163831
vn 0.9998667 0.0 0.0163244
vn 0.9998667 0.0 -0.0163244
vn -0.9966545 0.0 -0.0817305
vn -0.9934449 0.0 -0.114312
vn 0.9934535 0.0 0.114237
vn 0.9966643 0.0 0.0816102
vn -0.9838467 0.0 -0.1790133
vn -0.9774573 0.0 -0.2111332
vn 0.9774578 0.0 0.2111309
vn 0.9838509 0.0 0.1789901
vn -0.9615683 0.0 -0.274566
vn -0.9520707 0.0 -0.3058781
vn 0.9520781 0.0 0.3058551
vn 0.9615688 0.0 0.2745639
vn -0.9300332 0.0 -0.3674755
vn -0.9174902 0.0 -0.3977584
vn 0.917386 0.0 0.3979986
vn 0.9299932 0.0 0.3675768
vn -0.8895215 0.0 -0.4568933
vn -0.8740975 0.0 -0.4857505
vn 0.8739808 0.0 0.4859605
vn 0.8893727 0.0 0.4571828
vn -0.8404606 0.0 -0.5418727
vn -0.8222456 0.0 -0.5691328
vn 0.8223268 0.0 0.5690155
vn 0.840454 0.0 0.5418829
vn -0.7832786 0.0 -0.6216708
vn -0.7625309 0.0 -0.6469519
vn 0.7625473 0.0 0.6469325
vn 0.7833835 0.0 0.6215386
vn -0.7186036 0.0 -0.6954199
vn -0.6954199 0.0 -0.7186036
vn 0.6954498 0.0 0.7185747
vn 0.7185747 0.0 0.6954498
vn -0.6469519 0.0 -0.7625309
vn -0.6216708 0.0 -0.7832786
vn 0.6215386 0.0 0.7833835
vn 0.6469325 0.0 0.7625473
vn -0.5691328 0.0 -0.8222456
vn -0.5418727 0.0 -0.8404606
vn 0.5418829 0.0 0.840454
vn 0.5690155 0.0 0.8223268
vn -0.4857505 0.0 -0.8740975
vn -0.4568933 0.0 -0.8895215
vn 0.4571828 0.0 0.8893727
vn 0.4859605 0.0 0.8739808
vn -0.3977584 0.0 -0.9174902
vn -0.3674755 0.0 -0.9300332
vn 0.3675768 0.0 0.9299932
vn 0.3979986 0.0 0.917386
vn -0.3058781 0.0 -0.9520707
vn -0.274566 0.0 -0.9615683
vn 0.2745639 0.0 0.9615688
vn 0.3058551 0.0 0.9520781
vn -0.2111332 0.0 -0.9774573
vn -0.1790133 0.0 -0.9838467
vn 0.1789901 0.0 0.9838509
vn 0.2111309 0.0 0.9774578
vn -0.114312 0.0 -0.9934449
vn -0.0817305 0.0 -0.9966545
vn 0.0816102 0.0 0.9966643
vn 0.114237 0.0 0.9934535
vn -0.0163831 0.0 -0.9998658
vn 0.0163831 0.0 -0.9998658
vn -0.0163244 0.0 0.9998667
vn 0.0163244 0.0 0.9998667
vn 0.0817305 0.0 -0.9966545
vn 0.114312 0.0 -0.9934449
vn -0.114237 0.0 0.9934535
vn -0.0816102 0.0 0.9966643
vn 0.1790133 0.0 -0.9838467
vn 0.2111332 0.0 -0.9774573
vn -0.2111309 0.0 0.9774578
vn -0.1789901 0.0 0.9838509
vn 0.274566 0.0 -0.9615683
vn 0.3058781 0.0 -0.9520707
vn -0.3058551 0.0 0.9520781
vn -0.2745639 0.0 0.9615688
vn 0.3674755 0.0 -0.9300332
vn 0.3977584 0.0 -0.9174902
vn -0.3979986 0.0 0.917386
vn -0.3675768 0.0 0.9299932
vn 0.4568933 0.0 -0.8895215
vn 0.4857505 0.0 -0.8740975
vn -0.4859605 0.0 0.8739808
vn -0.4571828 0.0 0.8893727
vn 0.5418727 0.0 -0.8404606
vn 0.5691328 0.0 -0.8222456
vn -0.5690155 0.0 0.8223268
vn -0.5418829 0.0 0.840454
vn 0.6216708 0.0 -0.7832786
vn 0.6469519 0.0 -0.7625309
vn -0.6469325 0.0 0.7625473
vn -0.6215386 0.0 0.7833835
vn 0.6954199 0.0 -0.7186036
vn 0.7186036 0.0 -0.6954199
vn -0.7185747 0.0 0.6954498
vn -0.6954498 0.0 0.7185747
vn 0.7625309 0.0 -0.6469519
vn 0.7832786 0.0 -0.6216708
vn -0.7833835 0.0 0.6215386
vn -0.7625473 0.0 0.6469325
vn 0.8222456 0.0 -0.5691328
vn 0.8404606 0.0 -0.5418727
vn -0.840454 0.0 0.5418829
vn -0.8223268 0.0 0.5690155
vn 0.8740975 0.0 -0.4857505
vn 0.8895215 0.0 -0.4568933
vn -0.8893727 0.0 0.4571828
vn -0.8739808 0.0 0.4859605
vn 0.9174902 0.0 -0.3977584
vn 0.9300332 0.0 -0.3674755
vn -0.9299932 0.0 0.3675768
vn -0.917386 0.0 0.3979986
vn 0.9520707 0.0 -0.3058781
vn 0.9615683 0.0 -0.274566
vn -0.9615688 0.0 0.2745639
vn -0.9520781 0.0 0.3058551
vn 0.9774573 0.0 -0.2111332
vn 0.9838467 0.0 -0.1790133
vn -0.9838509 0.0 0.1789901
vn -0.9774578 0.0 0.2111309
vn 0.9934449 0.0 -0.114312
vn 0.9966545 0.0 -0.0817305
vn -0.9966643 0.0 0.0816102
vn -0.9934535 0.0 0.114237
f 1//1 2//2 3//3
f 1//1 3//3 4//4
f 5//5 6//6 7//7
f 5//5 7//7 8//8
f 9//9 10//10 11//11
f 9//9 11//11 12//12
f 13//13 14//14 15//15
f 13//13 15//15 16//16
f 17//17 18//18 19//19
f 17//17 19//19 20//20
f 21//21 22//22 23//23
f 21//21 23//23 24//24
f 20//25 19//26 10//27
f 20//25 10//27 9//28
f 12//29 11//30 22//31
f 12//29 22//31 21//32
f 16//33 15//34 18//35
f 16//33 18//35 17//36
f 24//37 23//38 14//39
f 24//37 14//39 13//40
f 4//41 3//42 17//43
f 4//41 17//43 20//44
f 21//45 24//46 2//47
f 21//45 2//47 1//48
f 19//49 18//50 6//51
f 19//49 6//51 5//52
f 8//53 7//54 23//55
f 8//53 23//55 22//56
f 9//57 12//58 1//59
f 9//57 1//59 4//60
f 3//61 2//62 13//63
f 3//61 13//63 16//64
f 5//65 8//66 11//67
f 5//65 11//67 10//68
f 15//69 14//70 7//71
f 15//69 7//71 6//72
f 20//73 9//74 4//75
f 1//76 12//77 21//78
f 3//79 16//80 17//81
f 24//82 13//83 2//84
f 5//85 10//86 19//87
f 22//88 11//89 8//90
f 18//91 15//92 6//93
f 7//94 14//95 23//96
f 25//97 26//98 27//99
f 25//97 27//99 28//100
f 29//101 30//102 31//103
f 29//101 31//103 32//104
f 26//105 32//105 31//105
f 26//105 31//105 27//105
f 25//106 28//106 30//106
f 25//106 30//106 29//106
f 28//100 27//99 33//107
f 28//100 33//107 34//108
f 30//102 35//109 36//110
f 30//102 36//110 31//103
f 27//105 31//105 36//105
f 27//105 36//105 33//105
f 28//106 34//106 35//106
f 28//106 35//106 30//106
f 34//108 33//107 37//111
f 34//108 37//111 38//112
f 35//109 39//113 40//114
f 35//109 40//114 36//110
f 33//105 36//105 40//105
f 33//105 40//105 37//105
f 34//106 38//106 39//106
f 34//106 39//106 35//106
f 38//112 37//111 41//115
f 38//112 41//115 42//116
f 39//113 43//117 44//118
f 39//113 44//118 40//114
f 37//105 40//105 44//105
f 37//105 44//105 41//105
f 38//106 42//106 43//106
f 38//106 43//106 39//106
f 42//116 41//115 45//119
f 42//116 45//119 46//120
f 43//117 47//121 48//122
f 43//117 48//122 44//118
f 41//105 44//105 48//105
f 41//105 48//105 45//105
f 42//106 46//106 47//106
f 42//106 47//106 43//106
f 46//120 45//119 49//123
f 46//120 49//123 50//124
f 47//121 51//125 52//126
f 47//121 52//126 48//122
f 45//105 48//105 52//105
f 45//105 52//105 49//105
f 46//106 50//106 51//106
f 46//106 51//106 47//106
f 50//124 49//123 53//127
f 50//124 53//127 54//128
f 51//125 55//129 56//130
f 51//125 56//130 52//126
f 49//105 52//105 56//105
f 49//105 56//105 53//105
f 50//106 54//106 55//106
f 50//106 55//106 51//106
f 54//128 53//127 57//131
f 54//128 57//131 58//132
f 55//129 59//133 60//134
f 55//129 60//134 56//130
f 53//105 56//105 60//105
f 53//105 60//105 57//105
f 54//106 58//106 59//106
f 54//106 59//106 55//106
f 58//132 57//131 61//135
f 58//132 61//135 62//136
f 59//133 63//137 64//138
f 59//133 64//138 60//134
f 57//105 60//105 64//105
f 57//105 64//105 61//105
f 58//106 62//106 63//106
f 58//106 63//106 59//106
f 62//136 61//135 65//139
f 62//136 65//139 66//140
f 63//137 67//141 68//142
f 63//137 68//142 64//138
f 61//105 64//105 68//105
f 61//105 68//105 65//105
f 62//106 66//106 67//106
f 62//106 67//106 63//106
f 66//140 65//139 69//143
f 66//140 69//143 70//144
f 67//141 71//145 72//146
f 67//141 72//146 68//142
f 65//105 68//105 72//105
f 65//105 72//105 69//105
f 66//106 70//106 71//106
f 66//106 71//106 67//106
f 70//144 69//143 73//147
f 70//144 73//147 74//148
f 71//145 75//149 76//150
f 71//145 76//150 72//146
f 69//105 72//105 76//105
f 69//105 76//105 73//105
f 70//106 74//106 75//106
f 70//106 75//106 71//106
f 74//148 73//147 77//151
f 74//148 77//151 78//152
f 75//149 79//153 80//154
f 75//149 80//154 76//150
f 73//105 76//105 80//105
f 73//105 80//105 77//105
f 74//106 78//106 79//106
f 74//106 79//106 75//106
f 78//152 77//151 81//155
f 78//152 81//155 82//156
f 79//153 83//157 84//158
f 79//153 84//158 80//154
f 77//105 80//105 84//105
f 77//105 84//105 81//105
f 78//106 82//106 83//106
f 78//106 83//106 79//106
f 82//156 81//155 85//159
f 82//156 85//159 86//160
f 83//157 87//161 88//162
f 83//157 88//162 84//158
f 81//105 84//105 88//105
f 81//105 88//105 85//105
f 82//106 86//106 87//106
f 82//106 87//106 83//106
f 86//160 85//159 89//163
f 86//160 89//163 90//164
f 87//161 91//165 92//166
f 87//161 92//166 88//162
f 85//105 88//105 92//105
f 85//105 92//105 89//105
f 86//106 90//106 91//106
f 86//106 91//106 87//106
f 90//164 89//163 93//167
f 90//164 93//167 94//168
f 91//165 95//169 96//170
f 91//165 96//170 92//166
f 89//105 92//105 96//105
f 89//105 96//105 93//105
f 90//106 94//106 95//106
f 90//106 95//106 91//106
f 94//168 93//167 97//171
f 94//168 97//171 98//172
f 95//169 99//173 100//174
f 95//169 100//174 96//170
f 93//105 96//105 100//105
f 93//105 100//105 97//105
f 94//106 98//106 99//106
f 94//106 99//106 95//106
f 98//172 97//171 101//175
f 98//172 101//175 102//176
f 99//173 103//177 104//178
f 99//173 104//178 100//174
f 97//105 100//105 104//105
f 97//105 104//105 101//105
f 98//106 102//106 103//106
f 98//106 103//106 99//106
f 102//176 101//175 105//179
f 102//176 105//179 106//180
f 103//177 107//181 108//182
f 103//177 108//182 104//178
f 101//105 104//105 108//105
f 101//105 108//105 105//105
f 102//106 106//106 107//106
f 102//106 107//106 103//106
f 106//180 105//179 109//183
f 106//180 109//183 110//184
f 107//181 111//185 112//186
f 107//181 112//186 108//182
f 105//105 108//105 112//105
f 105//105 112//105 109//105
f 106//106 110//106 111//106
f 106//106 111//106 107//106
f 110//184 109//183 113//187
f 110//184 113//187 114//188
f 111//185 115//189 116//190
f 111//185 116//190 112//186
f 109//105 112//105 116//105
f 109//105 116//105 113//105
f 110//106 114//106 115//106
f 110//106 115//106 111//106
f 114//188 113//187 117//191
f 114//188 117//191 118//192
f 115//189 119//193 120//194
f 115//189 120//194 116//190
f 113//105 116//105 120//105
f 113//105 120//105 117//105
f 114//106 118//106 119//106
f 114//106 119//106 115//106
f 118//192 117//191 121//195
f 118//192 121//195 122//196
f 119//193 123//197 124//198
f 119//193 124//198 120//194
f 117//105 120//105 124//105
f 117//105 124//105 121//105
f 118//106 122//106 123//106
f 118//106 123//106 119//106
f 122//196 121//195 125//199
f 122//196 125//199 126//200
f 123//197 127//201 128//202
f 123//197 128//202 124//198
f 121//105 124//105 128//105
f 121//105 128//105 125//105
f 122//106 126//106 127//106
f 122//106 127//106 123//106
f 126//200 125//199 129//203
f 126//200 129//203 130//204
f 127//201 131//205 132//206
f 127//201 132//206 128//202
f 125//105 128//105 132//105
f 125//105 132//105 129//105
f 126//106 130//106 131//106
f 126//106 131//106 127//106
f 130//204 129//203 133//207
f 130//204 133//207 134//208
f 131//205 135//209 136//210
f 131//205 136//210 132//206
f 129//105 132//105 136//105
f 129//105 136//105 133//105
f 130//106 134//106 135//106
f 130//106 135//106 131//106
f 134//208 133//207 137//211
f 134//208 137//211 138//212
f 135//209 139//213 140//214
f 135//209 140//214 136//210
f 133//105 136//105 140//105
f 133//105 140//105 137//105
f 134//106 138//106 139//106
f 134//106 139//106 135//106
f 138//212 137//211 141//215
f 138//212 141//215 142//216
f 139//213 143//217 144//218
f 139//213 144//218 140//214
f 137//105 140//105 144//105
f 137//105 144//105 141//105
f 138//106 142//106 143//106
f 138//106 143//106 139//106
f 142//216 141//215 145//219
f 142//216 145//219 146//220
f 143//217 147//221 148//222
f 143//217 148//222 144//218
f 141//105 144//105 148//105
f 141//105 148//105 145//105
f 142//106 146//106 147//106
f 142//106 147//106 143//106
f 146//220 145//219 149//223
f 146//220 149//223 150//224
f 147//221 151//225 152//226
f 147//221 152//226 148//222
f 145//105 148//105 152//105
f 145//105 152//105 149//105
f 146//106 150//106 151//106
f 146//106 151//106 147//106
f 150//224 149//223 153//227
f 150//224 153//227 154//228
f 151//225 155//229 156//230
f 151//225 156//230 152//226
f 149//105 152//105 156//105
f 149//105 156//105 153//105
f 150//106 154//106 155//106
f 150//106 155//106 151//106
f 154//228 153//227 157//231
f 154//228 157//231 158//232
f 155//229 159//233 160//234
f 155//229 160//234 156//230
f 153//105 156//105 160//105
f 153//105 160//105 157//105
f 154//106 158//106 159//106
f 154//106 159//106 155//106
f 158//232 157//231 161//235
f 158//232 161//235 162//236
f 159//233 163//237 164//238
f 159//233 164//238 160//234
f 157//105 160//105 164//105
f 157//105 164//105 161//105
f 158//106 162//106 163//106
f 158//106 163//106 159//106
f 162//236 161//235 165//239
f 162//236 165//239 166//240
f 163//237 167//241 168//242
f 163//237 168//242 164//238
f 161//105 164//105 168//105
f 161//105 168//105 165//105
f 162//106 166//106 167//106
f 162//106 167//106 163//106
f 166//240 165//239 169//243
f 166//240 169//243 170//244
f 167//241 171//245 172//246
f 167//241 172//246 168//242
f 165//105 168//105 172//105
f 165//105 172//105 169//105
f 166//106 170//106 171//106
f 166//106 171//106 167//106
f 170//244 169//243 173//247
f 170//244 173//247 174//248
f 171//245 175//249 176//250
f 171//245 176//250 172//246
f 169//105 172//105 176//105
f 169//105 176//105 173//105
f 170//106 174//106 175//106
f 170//106 175//106 171//106
f 174//248 173//247 177//251
f 174//248 177//251 178//252
f 175//249 179//253 180//254
f 175//249 180//254 176//250
f 173//105 176//105 180//105
f 173//105 180//105 177//105
f 174//106 178//106 179//106
f 174//106 179//106 175//106
f 178//252 177//251 181//255
f 178//252 181//255 182//256
f 179//253 183//257 184//258
f 179//253 184//258 180//254
f 177//105 180//105 184//105
f 177//105 184//105 181//105
f 178//106 182//106 183//106
f 178//106 183//106 179//106
f 182//256 181//255 185//259
f 182//256 185//259 186//260
f 183//257 187//261 188//262
f 183//257 188//262 184//258
f 181//105 184//105 188//105
f 181//105 188//105 185//105
f 182//106 186//106 187//106
f 182//106 187//106 183//106
f 186//260 185//259 189//263
f 186//260 189//263 190//264
f 187//261 191//265 192//266
f 187//261 192//266 188//262
f 185//105 188//105 192//105
f 185//105 192//105 189//105
f 186//106 190//106 191//106
f 186//106 191//106 187//106
f 190//264 189//263 193//267
f 190//264 193//267 194//268
f 191//265 195//269 196//270
f 191//265 196//270 192//266
f 189//105 192//105 196//105
f 189//105 196//105 193//105
f 190//106 194//106 195//106
f 190//106 195//106 191//106
f 194//268 193//267 197//271
f 194//268 197//271 198//272
f 195//269 199//273 200//274
f 195//269 200//274 196//270
f 193//105 196//105 200//105
f 193//105 200//105 197//105
f 194//106 198//106 199//106
f 194//106 199//106 195//106
f 198//272 197//271 201//275
f 198//272 201//275 202//276
f 199//273 203//277 204//278
f 199//273 204//278 200//274
f 197//105 200//105 204//105
f 197//105 204//105 201//105
f 198//106 202//106 203//106
f 198//106 203//106 199//106
f 202//276 201//275 205//279
f 202//276 205//279 206//280
f 203//277 207//281 208//282
f 203//277 208//282 204//278
f 201//105 204//105 208//105
f 201//105 208//105 205//105
f 202//106 206//106 207//106
f 202//106 207//106 203//106
f 206//280 205//279 209//283
f 206//280 209//283 210//284
f 207//281 211//285 212//286
f 207//281 212//286 208//282
f 205//105 208//105 212//105
f 205//105 212//105 209//105
f 206//106 210//106 211//106
f 206//106 211//106 207//106
f 210//284 209//283 213//287
f 210//284 213//287 214//288
f 211//285 215//289 216//290
f 211//285 216//290 212//286
f 209//105 212//105 216//105
f 209//105 216//105 213//105
f 210//106 214//106 215//106
f 210//106 215//106 211//106
f 214//288 213//287 217//291
f 214//288 217//291 218//292
f 215//289 219//293 220//294
f 215//289 220//294 216//290
f 213//105 216//105 220//105
f 213//105 220//105 217//105
f 214//106 218//106 219//106
f 214//106 219//106 215//106
f 218//292 217//291 221//295
f 218//292 221//295 222//296
f 219//293 223//297 224//298
f 219//293 224//298 220//294
f 217//105 220//105 224//105
f 217//105 224//105 221//105
f 218//106 222//106 223//106
f 218//106 223//106 219//106
f 222//296 221//295 225//299
f 222//296 225//299 226//300
f 223//297 227//301 228//302
f 223//297 228//302 224//298
f 221//105 224//105 228//105
f 221//105 228//105 225//105
f 222//106 226//106 227//106
f 222//106 227//106 223//106
f 226//300 225//299 229//303
f 226//300 229//303 230//304
f 227//301 231//305 232//306
f 227//301 232//306 228//302
f 225//105 228//105 232//105
f 225//105 232//105 229//105
f 226//106 230//106 231//106
f 226//106 231//106 227//106
f 230//304 229//303 233//307
f 230//304 233//307 234//308
f 231//305 235//309 236//310
f 231//305 236//310 232//306
f 229//105 232//105 236//105
f 229//105 236//105 233//105
f 230//106 234//106 235//106
f 230//106 235//106 231//106
f 234//308 233//307 237//311
f 234//308 237//311 238//312
f 235//309 239//313 240//314
f 235//309 240//314 236//310
f 233//105 236//105 240//105
f 233//105 240//105 237//105
f 234//106 238//106 239//106
f 234//106 239//106 235//106
f 238//312 237//311 241//315
f 238//312 241//315 242//316
f 239//313 243//317 244//318
f 239//313 244//318 240//314
f 237//105 240//105 244//105
f 237//105 244//105 241//105
f 238//106 242//106 243//106
f 238//106 243//106 239//106
f 242//316 241//315 245//319
f 242//316 245//319 246//320
f 243//317 247//321 248//322
f 243//317 248//322 244//318
f 241//105 244//105 248//105
f 241//105 248//105 245//105
f 242//106 246//106 247//106
f 242//106 247//106 243//106
f 246//320 245//319 249//323
f 246//320 249//323 250//324
f 247//321 251//325 252//326
f 247//321 252//326 248//322
f 245//105 248//105 252//105
f 245//105 252//105 249//105
f 246//106 250//106 251//106
f 246//106 251//106 247//106
f 250//324 249//323 253//327
f 250//324 253//327 254//328
f 251//325 255//329 256//330
f 251//325 256//330 252//326
f 249//105 252//105 256//105
f 249//105 256//105 253//105
f 250//106 254//106 255//106
f 250//106 255//106 251//106
f 254//328 253//327 257//331
f 254//328 257//331 258//332
f 255//329 259//333 260//334
f 255//329 260//334 256//330
f 253//105 256//105 260//105
f 253//105 260//105 257//105
f 254//106 258//106 259//106
f 254//106 259//106 255//106
f 258//332 257//331 261//335
f 258//332 261//335 262//336
f 259//333 263//337 264//338
f 259//333 264//338 260//334
f 257//105 260//105 264//105
f 257//105 264//105 261//105
f 258//106 262//106 263//106
f 258//106 263//106 259//106
f 262//336 261//335 265//339
f 262//336 265//339 266//340
f 263//337 267//341 268//342
f 263//337 268//342 264//338
f 261//105 264//105 268//105
f 261//105 268//105 265//105
f 262//106 266//106 267//106
f 262//106 267//106 263//106
f 266//340 265//339 269//343
f 266//340 269//343 270//344
f 267//341 271//345 272//346
f 267//341 272//346 268//342
f 265//105 268//105 272//105
f 265//105 272//105 269//105
f 266//106 270//106 271//106
f 266//106 271//106 267//106
f 270//344 269//343 273//347
f 270//344 273//347 274//348
f 271//345 275//349 276//350
f 271//345 276//350 272//346
f 269//105 272//105 276//105
f 269//105 276//105 273//105
f 270//106 274//106 275//106
f 270//106 275//106 271//106
f 274//348 273//347 277//351
f 274//348 277//351 278//352
f 275//349 279//353 280//354
f 275//349 280//354 276//350
f 273//105 276//105 280//105
f 273//105 280//105 277//105
f 274//106 278//106 279//106
f 274//106 279//106 275//106
f 278//352 277//351 26//98
f 278//352 26//98 25//97
f 279//353 29//101 32//104
f 279//353 32//104 280//354
f 277//105 280//105 32//105
f 277//105 32//105 26//105
f 278//106 25//106 29//106
f 278//106 29//106 279//106
