# Botball Lab: metres, +Y up, centred XZ, base Y=0
mtllib metal_020.mtl
s off
v 0.0030000 0.0000000 0.0000000
v 0.0030000 0.0127000 0.0000000
v 0.0029856 0.0127000 0.0002941
v 0.0029856 0.0000000 0.0002941
v 0.0010000 0.0000000 0.0000000
v 0.0009952 0.0000000 0.0000980
v 0.0009952 0.0127000 0.0000980
v 0.0010000 0.0127000 0.0000000
v 0.0029424 0.0127000 0.0005853
v 0.0029424 0.0000000 0.0005853
v 0.0009808 0.0000000 0.0001951
v 0.0009808 0.0127000 0.0001951
v 0.0028708 0.0127000 0.0008709
v 0.0028708 0.0000000 0.0008709
v 0.0009569 0.0000000 0.0002903
v 0.0009569 0.0127000 0.0002903
v 0.0027716 0.0127000 0.0011481
v 0.0027716 0.0000000 0.0011481
v 0.0009239 0.0000000 0.0003827
v 0.0009239 0.0127000 0.0003827
v 0.0026458 0.0127000 0.0014142
v 0.0026458 0.0000000 0.0014142
v 0.0008819 0.0000000 0.0004714
v 0.0008819 0.0127000 0.0004714
v 0.0024944 0.0127000 0.0016667
v 0.0024944 0.0000000 0.0016667
v 0.0008315 0.0000000 0.0005556
v 0.0008315 0.0127000 0.0005556
v 0.0023190 0.0127000 0.0019032
v 0.0023190 0.0000000 0.0019032
v 0.0007730 0.0000000 0.0006344
v 0.0007730 0.0127000 0.0006344
v 0.0021213 0.0127000 0.0021213
v 0.0021213 0.0000000 0.0021213
v 0.0007071 0.0000000 0.0007071
v 0.0007071 0.0127000 0.0007071
v 0.0019032 0.0127000 0.0023190
v 0.0019032 0.0000000 0.0023190
v 0.0006344 0.0000000 0.0007730
v 0.0006344 0.0127000 0.0007730
v 0.0016667 0.0127000 0.0024944
v 0.0016667 0.0000000 0.0024944
v 0.0005556 0.0000000 0.0008315
v 0.0005556 0.0127000 0.0008315
v 0.0014142 0.0127000 0.0026458
v 0.0014142 0.0000000 0.0026458
v 0.0004714 0.0000000 0.0008819
v 0.0004714 0.0127000 0.0008819
v 0.0011481 0.0127000 0.0027716
v 0.0011481 0.0000000 0.0027716
v 0.0003827 0.0000000 0.0009239
v 0.0003827 0.0127000 0.0009239
v 0.0008709 0.0127000 0.0028708
v 0.0008709 0.0000000 0.0028708
v 0.0002903 0.0000000 0.0009569
v 0.0002903 0.0127000 0.0009569
v 0.0005853 0.0127000 0.0029424
v 0.0005853 0.0000000 0.0029424
v 0.0001951 0.0000000 0.0009808
v 0.0001951 0.0127000 0.0009808
v 0.0002941 0.0127000 0.0029856
v 0.0002941 0.0000000 0.0029856
v 0.0000980 0.0000000 0.0009952
v 0.0000980 0.0127000 0.0009952
v 0.0000000 0.0127000 0.0030000
v 0.0000000 0.0000000 0.0030000
v 0.0000000 0.0000000 0.0010000
v 0.0000000 0.0127000 0.0010000
v -0.0002941 0.0127000 0.0029856
v -0.0002941 0.0000000 0.0029856
v -0.0000980 0.0000000 0.0009952
v -0.0000980 0.0127000 0.0009952
v -0.0005853 0.0127000 0.0029424
v -0.0005853 0.0000000 0.0029424
v -0.0001951 0.0000000 0.0009808
v -0.0001951 0.0127000 0.0009808
v -0.0008709 0.0127000 0.0028708
v -0.0008709 0.0000000 0.0028708
v -0.0002903 0.0000000 0.0009569
v -0.0002903 0.0127000 0.0009569
v -0.0011481 0.0127000 0.0027716
v -0.0011481 0.0000000 0.0027716
v -0.0003827 0.0000000 0.0009239
v -0.0003827 0.0127000 0.0009239
v -0.0014142 0.0127000 0.0026458
v -0.0014142 0.0000000 0.0026458
v -0.0004714 0.0000000 0.0008819
v -0.0004714 0.0127000 0.0008819
v -0.0016667 0.0127000 0.0024944
v -0.0016667 0.0000000 0.0024944
v -0.0005556 0.0000000 0.0008315
v -0.0005556 0.0127000 0.0008315
v -0.0019032 0.0127000 0.0023190
v -0.0019032 0.0000000 0.0023190
v -0.0006344 0.0000000 0.0007730
v -0.0006344 0.0127000 0.0007730
v -0.0021213 0.0127000 0.0021213
v -0.0021213 0.0000000 0.0021213
v -0.0007071 0.0000000 0.0007071
v -0.0007071 0.0127000 0.0007071
v -0.0023190 0.0127000 0.0019032
v -0.0023190 0.0000000 0.0019032
v -0.0007730 0.0000000 0.0006344
v -0.0007730 0.0127000 0.0006344
v -0.0024944 0.0127000 0.0016667
v -0.0024944 0.0000000 0.0016667
v -0.0008315 0.0000000 0.0005556
v -0.0008315 0.0127000 0.0005556
v -0.0026458 0.0127000 0.0014142
v -0.0026458 0.0000000 0.0014142
v -0.0008819 0.0000000 0.0004714
v -0.0008819 0.0127000 0.0004714
v -0.0027716 0.0127000 0.0011481
v -0.0027716 0.0000000 0.0011481
v -0.0009239 0.0000000 0.0003827
v -0.0009239 0.0127000 0.0003827
v -0.0028708 0.0127000 0.0008709
v -0.0028708 0.0000000 0.0008709
v -0.0009569 0.0000000 0.0002903
v -0.0009569 0.0127000 0.0002903
v -0.0029424 0.0127000 0.0005853
v -0.0029424 0.0000000 0.0005853
v -0.0009808 0.0000000 0.0001951
v -0.0009808 0.0127000 0.0001951
v -0.0029856 0.0127000 0.0002941
v -0.0029856 0.0000000 0.0002941
v -0.0009952 0.0000000 0.0000980
v -0.0009952 0.0127000 0.0000980
v -0.0030000 0.0127000 0.0000000
v -0.0030000 0.0000000 0.0000000
v -0.0010000 0.0000000 0.0000000
v -0.0010000 0.0127000 0.0000000
v -0.0029856 0.0127000 -0.0002941
v -0.0029856 0.0000000 -0.0002941
v -0.0009952 0.0000000 -0.0000980
v -0.0009952 0.0127000 -0.0000980
v -0.0029424 0.0127000 -0.0005853
v -0.0029424 0.0000000 -0.0005853
v -0.0009808 0.0000000 -0.0001951
v -0.0009808 0.0127000 -0.0001951
v -0.0028708 0.0127000 -0.0008709
v -0.0028708 0.0000000 -0.0008709
v -0.0009569 0.0000000 -0.0002903
v -0.0009569 0.0127000 -0.0002903
v -0.0027716 0.0127000 -0.0011481
v -0.0027716 0.0000000 -0.0011481
v -0.0009239 0.0000000 -0.0003827
v -0.0009239 0.0127000 -0.0003827
v -0.0026458 0.0127000 -0.0014142
v -0.0026458 0.0000000 -0.0014142
v -0.0008819 0.0000000 -0.0004714
v -0.0008819 0.0127000 -0.0004714
v -0.0024944 0.0127000 -0.0016667
v -0.0024944 0.0000000 -0.0016667
v -0.0008315 0.0000000 -0.0005556
v -0.0008315 0.0127000 -0.0005556
v -0.0023190 0.0127000 -0.0019032
v -0.0023190 0.0000000 -0.0019032
v -0.0007730 0.0000000 -0.0006344
v -0.0007730 0.0127000 -0.0006344
v -0.0021213 0.0127000 -0.0021213
v -0.0021213 0.0000000 -0.0021213
v -0.0007071 0.0000000 -0.0007071
v -0.0007071 0.0127000 -0.0007071
v -0.0019032 0.0127000 -0.0023190
v -0.0019032 0.0000000 -0.0023190
v -0.0006344 0.0000000 -0.0007730
v -0.0006344 0.0127000 -0.0007730
v -0.0016667 0.0127000 -0.0024944
v -0.0016667 0.0000000 -0.0024944
v -0.0005556 0.0000000 -0.0008315
v -0.0005556 0.0127000 -0.0008315
v -0.0014142 0.0127000 -0.0026458
v -0.0014142 0.0000000 -0.0026458
v -0.0004714 0.0000000 -0.0008819
v -0.0004714 0.0127000 -0.0008819
v -0.0011481 0.0127000 -0.0027716
v -0.0011481 0.0000000 -0.0027716
v -0.0003827 0.0000000 -0.0009239
v -0.0003827 0.0127000 -0.0009239
v -0.0008709 0.0127000 -0.0028708
v -0.0008709 0.0000000 -0.0028708
v -0.0002903 0.0000000 -0.0009569
v -0.0002903 0.0127000 -0.0009569
v -0.0005853 0.0127000 -0.0029424
v -0.0005853 0.0000000 -0.0029424
v -0.0001951 0.0000000 -0.0009808
v -0.0001951 0.0127000 -0.0009808
v -0.0002941 0.0127000 -0.0029856
v -0.0002941 0.0000000 -0.0029856
v -0.0000980 0.0000000 -0.0009952
v -0.0000980 0.0127000 -0.0009952
v -0.0000000 0.0127000 -0.0030000
v -0.0000000 0.0000000 -0.0030000
v -0.0000000 0.0000000 -0.0010000
v -0.0000000 0.0127000 -0.0010000
v 0.0002941 0.0127000 -0.0029856
v 0.0002941 0.0000000 -0.0029856
v 0.0000980 0.0000000 -0.0009952
v 0.0000980 0.0127000 -0.0009952
v 0.0005853 0.0127000 -0.0029424
v 0.0005853 0.0000000 -0.0029424
v 0.0001951 0.0000000 -0.0009808
v 0.0001951 0.0127000 -0.0009808
v 0.0008709 0.0127000 -0.0028708
v 0.0008709 0.0000000 -0.0028708
v 0.0002903 0.0000000 -0.0009569
v 0.0002903 0.0127000 -0.0009569
v 0.0011481 0.0127000 -0.0027716
v 0.0011481 0.0000000 -0.0027716
v 0.0003827 0.0000000 -0.0009239
v 0.0003827 0.0127000 -0.0009239
v 0.0014142 0.0127000 -0.0026458
v 0.0014142 0.0000000 -0.0026458
v 0.0004714 0.0000000 -0.0008819
v 0.0004714 0.0127000 -0.0008819
v 0.0016667 0.0127000 -0.0024944
v 0.0016667 0.0000000 -0.0024944
v 0.0005556 0.0000000 -0.0008315
v 0.0005556 0.0127000 -0.0008315
v 0.0019032 0.0127000 -0.0023190
v 0.0019032 0.0000000 -0.0023190
v 0.0006344 0.0000000 -0.0007730
v 0.0006344 0.0127000 -0.0007730
v 0.0021213 0.0127000 -0.0021213
v 0.0021213 0.0000000 -0.0021213
v 0.0007071 0.0000000 -0.0007071
v 0.0007071 0.0127000 -0.0007071
v 0.0023190 0.0127000 -0.0019032
v 0.0023190 0.0000000 -0.0019032
v 0.0007730 0.0000000 -0.0006344
v 0.0007730 0.0127000 -0.0006344
v 0.0024944 0.0127000 -0.0016667
v 0.0024944 0.0000000 -0.0016667
v 0.0008315 0.0000000 -0.0005556
v 0.0008315 0.0127000 -0.0005556
v 0.0026458 0.0127000 -0.0014142
v 0.0026458 0.0000000 -0.0014142
v 0.0008819 0.0000000 -0.0004714
v 0.0008819 0.0127000 -0.0004714
v 0.0027716 0.0127000 -0.0011481
v 0.0027716 0.0000000 -0.0011481
v 0.0009239 0.0000000 -0.0003827
v 0.0009239 0.0127000 -0.0003827
v 0.0028708 0.0127000 -0.0008709
v 0.0028708 0.0000000 -0.0008709
v 0.0009569 0.0000000 -0.0002903
v 0.0009569 0.0127000 -0.0002903
v 0.0029424 0.0127000 -0.0005853
v 0.0029424 0.0000000 -0.0005853
v 0.0009808 0.0000000 -0.0001951
v 0.0009808 0.0127000 -0.0001951
v 0.0029856 0.0127000 -0.0002941
v 0.0029856 0.0000000 -0.0002941
v 0.0009952 0.0000000 -0.0000980
v 0.0009952 0.0127000 -0.0000980
usemtl body
vn 0.9998668 0.0 0.0163188
vn 0.9998668 0.0 -0.0163188
vn 0.9966651 0.0 0.081601
vn 0.9934521 0.0 0.1142498
vn -0.9998667 0.0 -0.0163244
vn -0.9934535 0.0 -0.114237
vn -0.9966643 0.0 -0.0816102
vn -0.9998667 0.0 0.0163244
vn 0.0 1.0 0.0
vn 0.0 -1.0 0.0
vn 0.9838336 0.0 0.1790849
vn 0.9774293 0.0 0.2112626
vn -0.9773876 0.0 -0.2114557
vn -0.9838209 0.0 -0.1791547
vn 0.9615239 0.0 0.2747211
vn 0.9520286 0.0 0.3060092
vn -0.9521276 0.0 -0.305701
vn -0.9615239 0.0 -0.2747211
vn 0.9300319 0.0 0.3674788
vn 0.9175308 0.0 0.3976647
vn -0.9174481 0.0 -0.3978555
vn -0.9301094 0.0 -0.3672827
vn 0.8895459 0.0 0.4568459
vn 0.8740557 0.0 0.4858258
vn -0.8742054 0.0 -0.4855563
vn -0.8894774 0.0 -0.4569792
vn 0.8403932 0.0 0.5419771
vn 0.8222289 0.0 0.5691569
vn -0.8221922 0.0 -0.56921
vn -0.8405814 0.0 -0.5416853
vn 0.7832845 0.0 0.6216634
vn 0.7624956 0.0 0.6469934
vn -0.7623922 0.0 -0.6471152
vn -0.7830865 0.0 -0.6219128
vn 0.7185747 0.0 0.6954498
vn 0.6954498 0.0 0.7185747
vn -0.6954498 0.0 -0.7185747
vn -0.7185747 0.0 -0.6954498
vn 0.6469934 0.0 0.7624956
vn 0.6216634 0.0 0.7832845
vn -0.6219128 0.0 -0.7830865
vn -0.6471152 0.0 -0.7623922
vn 0.5691569 0.0 0.8222289
vn 0.5419771 0.0 0.8403932
vn -0.5416853 0.0 -0.8405814
vn -0.56921 0.0 -0.8221922
vn 0.4858258 0.0 0.8740557
vn 0.4568459 0.0 0.8895459
vn -0.4569792 0.0 -0.8894774
vn -0.4855563 0.0 -0.8742054
vn 0.3976647 0.0 0.9175308
vn 0.3674788 0.0 0.9300319
vn -0.3672827 0.0 -0.9301094
vn -0.3978555 0.0 -0.9174481
vn 0.3060092 0.0 0.9520286
vn 0.2747211 0.0 0.9615239
vn -0.2747211 0.0 -0.9615239
vn -0.305701 0.0 -0.9521276
vn 0.2112626 0.0 0.9774293
vn 0.1790849 0.0 0.9838336
vn -0.1791547 0.0 -0.9838209
vn -0.2114557 0.0 -0.9773876
vn 0.1142498 0.0 0.9934521
vn 0.081601 0.0 0.9966651
vn -0.0816102 0.0 -0.9966643
vn -0.114237 0.0 -0.9934535
vn 0.0163188 0.0 0.9998668
vn -0.0163188 0.0 0.9998668
vn 0.0163244 0.0 -0.9998667
vn -0.0163244 0.0 -0.9998667
vn -0.081601 0.0 0.9966651
vn -0.1142498 0.0 0.9934521
vn 0.114237 0.0 -0.9934535
vn 0.0816102 0.0 -0.9966643
vn -0.1790849 0.0 0.9838336
vn -0.2112626 0.0 0.9774293
vn 0.2114557 0.0 -0.9773876
vn 0.1791547 0.0 -0.9838209
vn -0.2747211 0.0 0.9615239
vn -0.3060092 0.0 0.9520286
vn 0.305701 0.0 -0.9521276
vn 0.2747211 0.0 -0.9615239
vn -0.3674788 0.0 0.9300319
vn -0.3976647 0.0 0.9175308
vn 0.3978555 0.0 -0.9174481
vn 0.3672827 0.0 -0.9301094
vn -0.4568459 0.0 0.8895459
vn -0.4858258 0.0 0.8740557
vn 0.4855563 0.0 -0.8742054
vn 0.4569792 0.0 -0.8894774
vn -0.5419771 0.0 0.8403932
vn -0.5691569 0.0 0.8222289
vn 0.56921 0.0 -0.8221922
vn 0.5416853 0.0 -0.8405814
vn -0.6216634 0.0 0.7832845
vn -0.6469934 0.0 0.7624956
vn 0.6471152 0.0 -0.7623922
vn 0.6219128 0.0 -0.7830865
vn -0.6954498 0.0 0.7185747
vn -0.7185747 0.0 0.6954498
vn 0.7185747 0.0 -0.6954498
vn 0.6954498 0.0 -0.7185747
vn -0.7624956 0.0 0.6469934
vn -0.7832845 0.0 0.6216634
vn 0.7830865 0.0 -0.6219128
vn 0.7623922 0.0 -0.6471152
vn -0.8222289 0.0 0.5691569
vn -0.8403932 0.0 0.5419771
vn 0.8405814 0.0 -0.5416853
vn 0.8221922 0.0 -0.56921
vn -0.8740557 0.0 0.4858258
vn -0.8895459 0.0 0.4568459
vn 0.8894774 0.0 -0.4569792
vn 0.8742054 0.0 -0.4855563
vn -0.9175308 0.0 0.3976647
vn -0.9300319 0.0 0.3674788
vn 0.9301094 0.0 -0.3672827
vn 0.9174481 0.0 -0.3978555
vn -0.9520286 0.0 0.3060092
vn -0.9615239 0.0 0.2747211
vn 0.9615239 0.0 -0.2747211
vn 0.9521276 0.0 -0.305701
vn -0.9774293 0.0 0.2112626
vn -0.9838336 0.0 0.1790849
vn 0.9838209 0.0 -0.1791547
vn 0.9773876 0.0 -0.2114557
vn -0.9934521 0.0 0.1142498
vn -0.9966651 0.0 0.081601
vn 0.9966643 0.0 -0.0816102
vn 0.9934535 0.0 -0.114237
vn -0.9998668 0.0 0.0163188
vn -0.9998668 0.0 -0.0163188
vn 0.9998667 0.0 0.0163244
vn 0.9998667 0.0 -0.0163244
vn -0.9966651 0.0 -0.081601
vn -0.9934521 0.0 -0.1142498
vn 0.9934535 0.0 0.114237
vn 0.9966643 0.0 0.0816102
vn -0.9838336 0.0 -0.1790849
vn -0.9774293 0.0 -0.2112626
vn 0.9773876 0.0 0.2114557
vn 0.9838209 0.0 0.1791547
vn -0.9520286 0.0 -0.3060092
vn 0.9521276 0.0 0.305701
vn -0.9300319 0.0 -0.3674788
vn -0.9175308 0.0 -0.3976647
vn 0.9174481 0.0 0.3978555
vn 0.9301094 0.0 0.3672827
vn -0.8895459 0.0 -0.4568459
vn -0.8740557 0.0 -0.4858258
vn 0.8742054 0.0 0.4855563
vn 0.8894774 0.0 0.4569792
vn -0.8403932 0.0 -0.5419771
vn -0.8222289 0.0 -0.5691569
vn 0.8221922 0.0 0.56921
vn 0.8405814 0.0 0.5416853
vn -0.7832845 0.0 -0.6216634
vn -0.7624956 0.0 -0.6469934
vn 0.7623922 0.0 0.6471152
vn 0.7830865 0.0 0.6219128
vn -0.6469934 0.0 -0.7624956
vn -0.6216634 0.0 -0.7832845
vn 0.6219128 0.0 0.7830865
vn 0.6471152 0.0 0.7623922
vn -0.5691569 0.0 -0.8222289
vn -0.5419771 0.0 -0.8403932
vn 0.5416853 0.0 0.8405814
vn 0.56921 0.0 0.8221922
vn -0.4858258 0.0 -0.8740557
vn -0.4568459 0.0 -0.8895459
vn 0.4569792 0.0 0.8894774
vn 0.4855563 0.0 0.8742054
vn -0.3976647 0.0 -0.9175308
vn -0.3674788 0.0 -0.9300319
vn 0.3672827 0.0 0.9301094
vn 0.3978555 0.0 0.9174481
vn -0.3060092 0.0 -0.9520286
vn 0.305701 0.0 0.9521276
vn -0.2112626 0.0 -0.9774293
vn -0.1790849 0.0 -0.9838336
vn 0.1791547 0.0 0.9838209
vn 0.2114557 0.0 0.9773876
vn -0.1142498 0.0 -0.9934521
vn -0.081601 0.0 -0.9966651
vn 0.0816102 0.0 0.9966643
vn 0.114237 0.0 0.9934535
vn -0.0163188 0.0 -0.9998668
vn 0.0163188 0.0 -0.9998668
vn -0.0163244 0.0 0.9998667
vn 0.0163244 0.0 0.9998667
vn 0.081601 0.0 -0.9966651
vn 0.1142498 0.0 -0.9934521
vn -0.114237 0.0 0.9934535
vn -0.0816102 0.0 0.9966643
vn 0.1790849 0.0 -0.9838336
vn 0.2112626 0.0 -0.9774293
vn -0.2114557 0.0 0.9773876
vn -0.1791547 0.0 0.9838209
vn 0.3060092 0.0 -0.9520286
vn -0.305701 0.0 0.9521276
vn 0.3674788 0.0 -0.9300319
vn 0.3976647 0.0 -0.9175308
vn -0.3978555 0.0 0.9174481
vn -0.3672827 0.0 0.9301094
vn 0.4568459 0.0 -0.8895459
vn 0.4858258 0.0 -0.8740557
vn -0.4855563 0.0 0.8742054
vn -0.4569792 0.0 0.8894774
vn 0.5419771 0.0 -0.8403932
vn 0.5691569 0.0 -0.8222289
vn -0.56921 0.0 0.8221922
vn -0.5416853 0.0 0.8405814
vn 0.6216634 0.0 -0.7832845
vn 0.6469934 0.0 -0.7624956
vn -0.6471152 0.0 0.7623922
vn -0.6219128 0.0 0.7830865
vn 0.7624956 0.0 -0.6469934
vn 0.7832845 0.0 -0.6216634
vn -0.7830865 0.0 0.6219128
vn -0.7623922 0.0 0.6471152
vn 0.8222289 0.0 -0.5691569
vn 0.8403932 0.0 -0.5419771
vn -0.8405814 0.0 0.5416853
vn -0.8221922 0.0 0.56921
vn 0.8740557 0.0 -0.4858258
vn 0.8895459 0.0 -0.4568459
vn -0.8894774 0.0 0.4569792
vn -0.8742054 0.0 0.4855563
vn 0.9175308 0.0 -0.3976647
vn 0.9300319 0.0 -0.3674788
vn -0.9301094 0.0 0.3672827
vn -0.9174481 0.0 0.3978555
vn 0.9520286 0.0 -0.3060092
vn -0.9521276 0.0 0.305701
vn 0.9774293 0.0 -0.2112626
vn 0.9838336 0.0 -0.1790849
vn -0.9838209 0.0 0.1791547
vn -0.9773876 0.0 0.2114557
vn 0.9934521 0.0 -0.1142498
vn 0.9966651 0.0 -0.081601
vn -0.9966643 0.0 0.0816102
vn -0.9934535 0.0 0.114237
f 1//1 2//2 3//3
f 1//1 3//3 4//4
f 5//5 6//6 7//7
f 5//5 7//7 8//8
f 2//9 8//9 7//9
f 2//9 7//9 3//9
f 1//10 4//10 6//10
f 1//10 6//10 5//10
f 4//4 3//3 9//11
f 4//4 9//11 10//12
f 6//6 11//13 12//14
f 6//6 12//14 7//7
f 3//9 7//9 12//9
f 3//9 12//9 9//9
f 4//10 10//10 11//10
f 4//10 11//10 6//10
f 10//12 9//11 13//15
f 10//12 13//15 14//16
f 11//13 15//17 16//18
f 11//13 16//18 12//14
f 9//9 12//9 16//9
f 9//9 16//9 13//9
f 10//10 14//10 15//10
f 10//10 15//10 11//10
f 14//16 13//15 17//19
f 14//16 17//19 18//20
f 15//17 19//21 20//22
f 15//17 20//22 16//18
f 13//9 16//9 20//9
f 13//9 20//9 17//9
f 14//10 18//10 19//10
f 14//10 19//10 15//10
f 18//20 17//19 21//23
f 18//20 21//23 22//24
f 19//21 23//25 24//26
f 19//21 24//26 20//22
f 17//9 20//9 24//9
f 17//9 24//9 21//9
f 18//10 22//10 23//10
f 18//10 23//10 19//10
f 22//24 21//23 25//27
f 22//24 25//27 26//28
f 23//25 27//29 28//30
f 23//25 28//30 24//26
f 21//9 24//9 28//9
f 21//9 28//9 25//9
f 22//10 26//10 27//10
f 22//10 27//10 23//10
f 26//28 25//27 29//31
f 26//28 29//31 30//32
f 27//29 31//33 32//34
f 27//29 32//34 28//30
f 25//9 28//9 32//9
f 25//9 32//9 29//9
f 26//10 30//10 31//10
f 26//10 31//10 27//10
f 30//32 29//31 33//35
f 30//32 33//35 34//36
f 31//33 35//37 36//38
f 31//33 36//38 32//34
f 29//9 32//9 36//9
f 29//9 36//9 33//9
f 30//10 34//10 35//10
f 30//10 35//10 31//10
f 34//36 33//35 37//39
f 34//36 37//39 38//40
f 35//37 39//41 40//42
f 35//37 40//42 36//38
f 33//9 36//9 40//9
f 33//9 40//9 37//9
f 34//10 38//10 39//10
f 34//10 39//10 35//10
f 38//40 37//39 41//43
f 38//40 41//43 42//44
f 39//41 43//45 44//46
f 39//41 44//46 40//42
f 37//9 40//9 44//9
f 37//9 44//9 41//9
f 38//10 42//10 43//10
f 38//10 43//10 39//10
f 42//44 41//43 45//47
f 42//44 45//47 46//48
f 43//45 47//49 48//50
f 43//45 48//50 44//46
f 41//9 44//9 48//9
f 41//9 48//9 45//9
f 42//10 46//10 47//10
f 42//10 47//10 43//10
f 46//48 45//47 49//51
f 46//48 49//51 50//52
f 47//49 51//53 52//54
f 47//49 52//54 48//50
f 45//9 48//9 52//9
f 45//9 52//9 49//9
f 46//10 50//10 51//10
f 46//10 51//10 47//10
f 50//52 49//51 53//55
f 50//52 53//55 54//56
f 51//53 55//57 56//58
f 51//53 56//58 52//54
f 49//9 52//9 56//9
f 49//9 56//9 53//9
f 50//10 54//10 55//10
f 50//10 55//10 51//10
f 54//56 53//55 57//59
f 54//56 57//59 58//60
f 55//57 59//61 60//62
f 55//57 60//62 56//58
f 53//9 56//9 60//9
f 53//9 60//9 57//9
f 54//10 58//10 59//10
f 54//10 59//10 55//10
f 58//60 57//59 61//63
f 58//60 61//63 62//64
f 59//61 63//65 64//66
f 59//61 64//66 60//62
f 57//9 60//9 64//9
f 57//9 64//9 61//9
f 58//10 62//10 63//10
f 58//10 63//10 59//10
f 62//64 61//63 65//67
f 62//64 65//67 66//68
f 63//65 67//69 68//70
f 63//65 68//70 64//66
f 61//9 64//9 68//9
f 61//9 68//9 65//9
f 62//10 66//10 67//10
f 62//10 67//10 63//10
f 66//68 65//67 69//71
f 66//68 69//71 70//72
f 67//69 71//73 72//74
f 67//69 72//74 68//70
f 65//9 68//9 72//9
f 65//9 72//9 69//9
f 66//10 70//10 71//10
f 66//10 71//10 67//10
f 70//72 69//71 73//75
f 70//72 73//75 74//76
f 71//73 75//77 76//78
f 71//73 76//78 72//74
f 69//9 72//9 76//9
f 69//9 76//9 73//9
f 70//10 74//10 75//10
f 70//10 75//10 71//10
f 74//76 73//75 77//79
f 74//76 77//79 78//80
f 75//77 79//81 80//82
f 75//77 80//82 76//78
f 73//9 76//9 80//9
f 73//9 80//9 77//9
f 74//10 78//10 79//10
f 74//10 79//10 75//10
f 78//80 77//79 81//83
f 78//80 81//83 82//84
f 79//81 83//85 84//86
f 79//81 84//86 80//82
f 77//9 80//9 84//9
f 77//9 84//9 81//9
f 78//10 82//10 83//10
f 78//10 83//10 79//10
f 82//84 81//83 85//87
f 82//84 85//87 86//88
f 83//85 87//89 88//90
f 83//85 88//90 84//86
f 81//9 84//9 88//9
f 81//9 88//9 85//9
f 82//10 86//10 87//10
f 82//10 87//10 83//10
f 86//88 85//87 89//91
f 86//88 89//91 90//92
f 87//89 91//93 92//94
f 87//89 92//94 88//90
f 85//9 88//9 92//9
f 85//9 92//9 89//9
f 86//10 90//10 91//10
f 86//10 91//10 87//10
f 90//92 89//91 93//95
f 90//92 93//95 94//96
f 91//93 95//97 96//98
f 91//93 96//98 92//94
f 89//9 92//9 96//9
f 89//9 96//9 93//9
f 90//10 94//10 95//10
f 90//10 95//10 91//10
f 94//96 93//95 97//99
f 94//96 97//99 98//100
f 95//97 99//101 100//102
f 95//97 100//102 96//98
f 93//9 96//9 100//9
f 93//9 100//9 97//9
f 94//10 98//10 99//10
f 94//10 99//10 95//10
f 98//100 97//99 101//103
f 98//100 101//103 102//104
f 99//101 103//105 104//106
f 99//101 104//106 100//102
f 97//9 100//9 104//9
f 97//9 104//9 101//9
f 98//10 102//10 103//10
f 98//10 103//10 99//10
f 102//104 101//103 105//107
f 102//104 105//107 106//108
f 103//105 107//109 108//110
f 103//105 108//110 104//106
f 101//9 104//9 108//9
f 101//9 108//9 105//9
f 102//10 106//10 107//10
f 102//10 107//10 103//10
f 106//108 105//107 109//111
f 106//108 109//111 110//112
f 107//109 111//113 112//114
f 107//109 112//114 108//110
f 105//9 108//9 112//9
f 105//9 112//9 109//9
f 106//10 110//10 111//10
f 106//10 111//10 107//10
f 110//112 109//111 113//115
f 110//112 113//115 114//116
f 111//113 115//117 116//118
f 111//113 116//118 112//114
f 109//9 112//9 116//9
f 109//9 116//9 113//9
f 110//10 114//10 115//10
f 110//10 115//10 111//10
f 114//116 113//115 117//119
f 114//116 117//119 118//120
f 115//117 119//121 120//122
f 115//117 120//122 116//118
f 113//9 116//9 120//9
f 113//9 120//9 117//9
f 114//10 118//10 119//10
f 114//10 119//10 115//10
f 118//120 117//119 121//123
f 118//120 121//123 122//124
f 119//121 123//125 124//126
f 119//121 124//126 120//122
f 117//9 120//9 124//9
f 117//9 124//9 121//9
f 118//10 122//10 123//10
f 118//10 123//10 119//10
f 122//124 121//123 125//127
f 122//124 125//127 126//128
f 123//125 127//129 128//130
f 123//125 128//130 124//126
f 121//9 124//9 128//9
f 121//9 128//9 125//9
f 122//10 126//10 127//10
f 122//10 127//10 123//10
f 126//128 125//127 129//131
f 126//128 129//131 130//132
f 127//129 131//133 132//134
f 127//129 132//134 128//130
f 125//9 128//9 132//9
f 125//9 132//9 129//9
f 126//10 130//10 131//10
f 126//10 131//10 127//10
f 130//132 129//131 133//135
f 130//132 133//135 134//136
f 131//133 135//137 136//138
f 131//133 136//138 132//134
f 129//9 132//9 136//9
f 129//9 136//9 133//9
f 130//10 134//10 135//10
f 130//10 135//10 131//10
f 134//136 133//135 137//139
f 134//136 137//139 138//140
f 135//137 139//141 140//142
f 135//137 140//142 136//138
f 133//9 136//9 140//9
f 133//9 140//9 137//9
f 134//10 138//10 139//10
f 134//10 139//10 135//10
f 138//140 137//139 141//18
f 138//140 141//18 142//143
f 139//141 143//144 144//15
f 139//141 144//15 140//142
f 137//9 140//9 144//9
f 137//9 144//9 141//9
f 138//10 142//10 143//10
f 138//10 143//10 139//10
f 142//143 141//18 145//145
f 142//143 145//145 146//146
f 143//144 147//147 148//148
f 143//144 148//148 144//15
f 141//9 144//9 148//9
f 141//9 148//9 145//9
f 142//10 146//10 147//10
f 142//10 147//10 143//10
f 146//146 145//145 149//149
f 146//146 149//149 150//150
f 147//147 151//151 152//152
f 147//147 152//152 148//148
f 145//9 148//9 152//9
f 145//9 152//9 149//9
f 146//10 150//10 151//10
f 146//10 151//10 147//10
f 150//150 149//149 153//153
f 150//150 153//153 154//154
f 151//151 155//155 156//156
f 151//151 156//156 152//152
f 149//9 152//9 156//9
f 149//9 156//9 153//9
f 150//10 154//10 155//10
f 150//10 155//10 151//10
f 154//154 153//153 157//157
f 154//154 157//157 158//158
f 155//155 159//159 160//160
f 155//155 160//160 156//156
f 153//9 156//9 160//9
f 153//9 160//9 157//9
f 154//10 158//10 159//10
f 154//10 159//10 155//10
f 158//158 157//157 161//38
f 158//158 161//38 162//37
f 159//159 163//36 164//35
f 159//159 164//35 160//160
f 157//9 160//9 164//9
f 157//9 164//9 161//9
f 158//10 162//10 163//10
f 158//10 163//10 159//10
f 162//37 161//38 165//161
f 162//37 165//161 166//162
f 163//36 167//163 168//164
f 163//36 168//164 164//35
f 161//9 164//9 168//9
f 161//9 168//9 165//9
f 162//10 166//10 167//10
f 162//10 167//10 163//10
f 166//162 165//161 169//165
f 166//162 169//165 170//166
f 167//163 171//167 172//168
f 167//163 172//168 168//164
f 165//9 168//9 172//9
f 165//9 172//9 169//9
f 166//10 170//10 171//10
f 166//10 171//10 167//10
f 170//166 169//165 173//169
f 170//166 173//169 174//170
f 171//167 175//171 176//172
f 171//167 176//172 172//168
f 169//9 172//9 176//9
f 169//9 176//9 173//9
f 170//10 174//10 175//10
f 170//10 175//10 171//10
f 174//170 173//169 177//173
f 174//170 177//173 178//174
f 175//171 179//175 180//176
f 175//171 180//176 176//172
f 173//9 176//9 180//9
f 173//9 180//9 177//9
f 174//10 178//10 179//10
f 174//10 179//10 175//10
f 178//174 177//173 181//177
f 178//174 181//177 182//57
f 179//175 183//56 184//178
f 179//175 184//178 180//176
f 177//9 180//9 184//9
f 177//9 184//9 181//9
f 178//10 182//10 183//10
f 178//10 183//10 179//10
f 182//57 181//177 185//179
f 182//57 185//179 186//180
f 183//56 187//181 188//182
f 183//56 188//182 184//178
f 181//9 184//9 188//9
f 181//9 188//9 185//9
f 182//10 186//10 187//10
f 182//10 187//10 183//10
f 186//180 185//179 189//183
f 186//180 189//183 190//184
f 187//181 191//185 192//186
f 187//181 192//186 188//182
f 185//9 188//9 192//9
f 185//9 192//9 189//9
f 186//10 190//10 191//10
f 186//10 191//10 187//10
f 190//184 189//183 193//187
f 190//184 193//187 194//188
f 191//185 195//189 196//190
f 191//185 196//190 192//186
f 189//9 192//9 196//9
f 189//9 196//9 193//9
f 190//10 194//10 195//10
f 190//10 195//10 191//10
f 194//188 193//187 197//191
f 194//188 197//191 198//192
f 195//189 199//193 200//194
f 195//189 200//194 196//190
f 193//9 196//9 200//9
f 193//9 200//9 197//9
f 194//10 198//10 199//10
f 194//10 199//10 195//10
f 198//192 197//191 201//195
f 198//192 201//195 202//196
f 199//193 203//197 204//198
f 199//193 204//198 200//194
f 197//9 200//9 204//9
f 197//9 204//9 201//9
f 198//10 202//10 203//10
f 198//10 203//10 199//10
f 202//196 201//195 205//82
f 202//196 205//82 206//199
f 203//197 207//200 208//79
f 203//197 208//79 204//198
f 201//9 204//9 208//9
f 201//9 208//9 205//9
f 202//10 206//10 207//10
f 202//10 207//10 203//10
f 206//199 205//82 209//201
f 206//199 209//201 210//202
f 207//200 211//203 212//204
f 207//200 212//204 208//79
f 205//9 208//9 212//9
f 205//9 212//9 209//9
f 206//10 210//10 211//10
f 206//10 211//10 207//10
f 210//202 209//201 213//205
f 210//202 213//205 214//206
f 211//203 215//207 216//208
f 211//203 216//208 212//204
f 209//9 212//9 216//9
f 209//9 216//9 213//9
f 210//10 214//10 215//10
f 210//10 215//10 211//10
f 214//206 213//205 217//209
f 214//206 217//209 218//210
f 215//207 219//211 220//212
f 215//207 220//212 216//208
f 213//9 216//9 220//9
f 213//9 220//9 217//9
f 214//10 218//10 219//10
f 214//10 219//10 215//10
f 218//210 217//209 221//213
f 218//210 221//213 222//214
f 219//211 223//215 224//216
f 219//211 224//216 220//212
f 217//9 220//9 224//9
f 217//9 224//9 221//9
f 218//10 222//10 223//10
f 218//10 223//10 219//10
f 222//214 221//213 225//102
f 222//214 225//102 226//101
f 223//215 227//100 228//99
f 223//215 228//99 224//216
f 221//9 224//9 228//9
f 221//9 228//9 225//9
f 222//10 226//10 227//10
f 222//10 227//10 223//10
f 226//101 225//102 229//217
f 226//101 229//217 230//218
f 227//100 231//219 232//220
f 227//100 232//220 228//99
f 225//9 228//9 232//9
f 225//9 232//9 229//9
f 226//10 230//10 231//10
f 226//10 231//10 227//10
f 230//218 229//217 233//221
f 230//218 233//221 234//222
f 231//219 235//223 236//224
f 231//219 236//224 232//220
f 229//9 232//9 236//9
f 229//9 236//9 233//9
f 230//10 234//10 235//10
f 230//10 235//10 231//10
f 234//222 233//221 237//225
f 234//222 237//225 238//226
f 235//223 239//227 240//228
f 235//223 240//228 236//224
f 233//9 236//9 240//9
f 233//9 240//9 237//9
f 234//10 238//10 239//10
f 234//10 239//10 235//10
f 238//226 237//225 241//229
f 238//226 241//229 242//230
f 239//227 243//231 244//232
f 239//227 244//232 240//228
f 237//9 240//9 244//9
f 237//9 244//9 241//9
f 238//10 242//10 243//10
f 238//10 243//10 239//10
f 242//230 241//229 245//233
f 242//230 245//233 246//121
f 243//231 247//120 248//234
f 243//231 248//234 244//232
f 241//9 244//9 248//9
f 241//9 248//9 245//9
f 242//10 246//10 247//10
f 242//10 247//10 243//10
f 246//121 245//233 249//235
f 246//121 249//235 250//236
f 247//120 251//237 252//238
f 247//120 252//238 248//234
f 245//9 248//9 252//9
f 245//9 252//9 249//9
f 246//10 250//10 251//10
f 246//10 251//10 247//10
f 250//236 249//235 253//239
f 250//236 253//239 254//240
f 251//237 255//241 256//242
f 251//237 256//242 252//238
f 249//9 252//9 256//9
f 249//9 256//9 253//9
f 250//10 254//10 255//10
f 250//10 255//10 251//10
f 254//240 253//239 2//2
f 254//240 2//2 1//1
f 255//241 5//5 8//8
f 255//241 8//8 256//242
f 253//9 256//9 8//9
f 253//9 8//9 2//9
f 254//10 1//10 5//10
f 254//10 5//10 255//10
