# Botball Lab: metres, +Y up, centred XZ, base Y=0
s off
v 0.0030000 0.0000000 0.0000000
v 0.0030000 0.0254000 0.0000000
v 0.0028978 0.0254000 0.0007765
v 0.0028978 0.0000000 0.0007765
v 0.0010000 0.0000000 0.0000000
v 0.0009659 0.0000000 0.0002588
v 0.0009659 0.0254000 0.0002588
v 0.0010000 0.0254000 0.0000000
v 0.0025981 0.0254000 0.0015000
v 0.0025981 0.0000000 0.0015000
v 0.0008660 0.0000000 0.0005000
v 0.0008660 0.0254000 0.0005000
v 0.0021213 0.0254000 0.0021213
v 0.0021213 0.0000000 0.0021213
v 0.0007071 0.0000000 0.0007071
v 0.0007071 0.0254000 0.0007071
v 0.0015000 0.0254000 0.0025981
v 0.0015000 0.0000000 0.0025981
v 0.0005000 0.0000000 0.0008660
v 0.0005000 0.0254000 0.0008660
v 0.0007765 0.0254000 0.0028978
v 0.0007765 0.0000000 0.0028978
v 0.0002588 0.0000000 0.0009659
v 0.0002588 0.0254000 0.0009659
v 0.0000000 0.0254000 0.0030000
v 0.0000000 0.0000000 0.0030000
v 0.0000000 0.0000000 0.0010000
v 0.0000000 0.0254000 0.0010000
v -0.0007765 0.0254000 0.0028978
v -0.0007765 0.0000000 0.0028978
v -0.0002588 0.0000000 0.0009659
v -0.0002588 0.0254000 0.0009659
v -0.0015000 0.0254000 0.0025981
v -0.0015000 0.0000000 0.0025981
v -0.0005000 0.0000000 0.0008660
v -0.0005000 0.0254000 0.0008660
v -0.0021213 0.0254000 0.0021213
v -0.0021213 0.0000000 0.0021213
v -0.0007071 0.0000000 0.0007071
v -0.0007071 0.0254000 0.0007071
v -0.0025981 0.0254000 0.0015000
v -0.0025981 0.0000000 0.0015000
v -0.0008660 0.0000000 0.0005000
v -0.0008660 0.0254000 0.0005000
v -0.0028978 0.0254000 0.0007765
v -0.0028978 0.0000000 0.0007765
v -0.0009659 0.0000000 0.0002588
v -0.0009659 0.0254000 0.0002588
v -0.0030000 0.0254000 0.0000000
v -0.0030000 0.0000000 0.0000000
v -0.0010000 0.0000000 0.0000000
v -0.0010000 0.0254000 0.0000000
v -0.0028978 0.0254000 -0.0007765
v -0.0028978 0.0000000 -0.0007765
v -0.0009659 0.0000000 -0.0002588
v -0.0009659 0.0254000 -0.0002588
v -0.0025981 0.0254000 -0.0015000
v -0.0025981 0.0000000 -0.0015000
v -0.0008660 0.0000000 -0.0005000
v -0.0008660 0.0254000 -0.0005000
v -0.0021213 0.0254000 -0.0021213
v -0.0021213 0.0000000 -0.0021213
v -0.0007071 0.0000000 -0.0007071
v -0.0007071 0.0254000 -0.0007071
v -0.0015000 0.0254000 -0.0025981
v -0.0015000 0.0000000 -0.0025981
v -0.0005000 0.0000000 -0.0008660
v -0.0005000 0.0254000 -0.0008660
v -0.0007765 0.0254000 -0.0028978
v -0.0007765 0.0000000 -0.0028978
v -0.0002588 0.0000000 -0.0009659
v -0.0002588 0.0254000 -0.0009659
v -0.0000000 0.0254000 -0.0030000
v -0.0000000 0.0000000 -0.0030000
v -0.0000000 0.0000000 -0.0010000
v -0.0000000 0.0254000 -0.0010000
v 0.0007765 0.0254000 -0.0028978
v 0.0007765 0.0000000 -0.0028978
v 0.0002588 0.0000000 -0.0009659
v 0.0002588 0.0254000 -0.0009659
v 0.0015000 0.0254000 -0.0025981
v 0.0015000 0.0000000 -0.0025981
v 0.0005000 0.0000000 -0.0008660
v 0.0005000 0.0254000 -0.0008660
v 0.0021213 0.0254000 -0.0021213
v 0.0021213 0.0000000 -0.0021213
v 0.0007071 0.0000000 -0.0007071
v 0.0007071 0.0254000 -0.0007071
v 0.0025981 0.0254000 -0.0015000
v 0.0025981 0.0000000 -0.0015000
v 0.0008660 0.0000000 -0.0005000
v 0.0008660 0.0254000 -0.0005000
v 0.0028978 0.0254000 -0.0007765
v 0.0028978 0.0000000 -0.0007765
v 0.0009659 0.0000000 -0.0002588
v 0.0009659 0.0254000 -0.0002588
f 1 2 3
f 1 3 4
f 5 6 7
f 5 7 8
f 2 8 7
f 2 7 3
f 1 4 6
f 1 6 5
f 4 3 9
f 4 9 10
f 6 11 12
f 6 12 7
f 3 7 12
f 3 12 9
f 4 10 11
f 4 11 6
f 10 9 13
f 10 13 14
f 11 15 16
f 11 16 12
f 9 12 16
f 9 16 13
f 10 14 15
f 10 15 11
f 14 13 17
f 14 17 18
f 15 19 20
f 15 20 16
f 13 16 20
f 13 20 17
f 14 18 19
f 14 19 15
f 18 17 21
f 18 21 22
f 19 23 24
f 19 24 20
f 17 20 24
f 17 24 21
f 18 22 23
f 18 23 19
f 22 21 25
f 22 25 26
f 23 27 28
f 23 28 24
f 21 24 28
f 21 28 25
f 22 26 27
f 22 27 23
f 26 25 29
f 26 29 30
f 27 31 32
f 27 32 28
f 25 28 32
f 25 32 29
f 26 30 31
f 26 31 27
f 30 29 33
f 30 33 34
f 31 35 36
f 31 36 32
f 29 32 36
f 29 36 33
f 30 34 35
f 30 35 31
f 34 33 37
f 34 37 38
f 35 39 40
f 35 40 36
f 33 36 40
f 33 40 37
f 34 38 39
f 34 39 35
f 38 37 41
f 38 41 42
f 39 43 44
f 39 44 40
f 37 40 44
f 37 44 41
f 38 42 43
f 38 43 39
f 42 41 45
f 42 45 46
f 43 47 48
f 43 48 44
f 41 44 48
f 41 48 45
f 42 46 47
f 42 47 43
f 46 45 49
f 46 49 50
f 47 51 52
f 47 52 48
f 45 48 52
f 45 52 49
f 46 50 51
f 46 51 47
f 50 49 53
f 50 53 54
f 51 55 56
f 51 56 52
f 49 52 56
f 49 56 53
f 50 54 55
f 50 55 51
f 54 53 57
f 54 57 58
f 55 59 60
f 55 60 56
f 53 56 60
f 53 60 57
f 54 58 59
f 54 59 55
f 58 57 61
f 58 61 62
f 59 63 64
f 59 64 60
f 57 60 64
f 57 64 61
f 58 62 63
f 58 63 59
f 62 61 65
f 62 65 66
f 63 67 68
f 63 68 64
f 61 64 68
f 61 68 65
f 62 66 67
f 62 67 63
f 66 65 69
f 66 69 70
f 67 71 72
f 67 72 68
f 65 68 72
f 65 72 69
f 66 70 71
f 66 71 67
f 70 69 73
f 70 73 74
f 71 75 76
f 71 76 72
f 69 72 76
f 69 76 73
f 70 74 75
f 70 75 71
f 74 73 77
f 74 77 78
f 75 79 80
f 75 80 76
f 73 76 80
f 73 80 77
f 74 78 79
f 74 79 75
f 78 77 81
f 78 81 82
f 79 83 84
f 79 84 80
f 77 80 84
f 77 84 81
f 78 82 83
f 78 83 79
f 82 81 85
f 82 85 86
f 83 87 88
f 83 88 84
f 81 84 88
f 81 88 85
f 82 86 87
f 82 87 83
f 86 85 89
f 86 89 90
f 87 91 92
f 87 92 88
f 85 88 92
f 85 92 89
f 86 90 91
f 86 91 87
f 90 89 93
f 90 93 94
f 91 95 96
f 91 96 92
f 89 92 96
f 89 96 93
f 90 94 95
f 90 95 91
f 94 93 2
f 94 2 1
f 95 5 8
f 95 8 96
f 93 96 8
f 93 8 2
f 94 1 5
f 94 5 95
