# Botball Lab: metres, +Y up, centred XZ, base Y=0
s off
v 0.0000000 0.0000000 -0.0130750
v 0.0000000 0.0000000 -0.0104447
v -0.0043175 0.0000000 -0.0122331
v -0.0041500 0.0000000 -0.0130750
v 0.0000000 0.0015000 -0.0130750
v -0.0041500 0.0015000 -0.0130750
v -0.0043175 0.0015000 -0.0122331
v 0.0000000 0.0015000 -0.0104447
v 0.0000000 0.0000000 -0.0067250
v -0.0047944 0.0000000 -0.0115194
v -0.0047944 0.0015000 -0.0115194
v 0.0000000 0.0015000 -0.0067250
v -0.0037197 0.0000000 -0.0067250
v -0.0055081 0.0000000 -0.0110425
v -0.0055081 0.0015000 -0.0110425
v -0.0037197 0.0015000 -0.0067250
v -0.0063500 0.0000000 -0.0067250
v -0.0063500 0.0000000 -0.0108750
v -0.0063500 0.0015000 -0.0108750
v -0.0063500 0.0015000 -0.0067250
v -0.0089803 0.0000000 -0.0067250
v -0.0071919 0.0000000 -0.0110425
v -0.0071919 0.0015000 -0.0110425
v -0.0089803 0.0015000 -0.0067250
v -0.0127000 0.0000000 -0.0067250
v -0.0079056 0.0000000 -0.0115194
v -0.0079056 0.0015000 -0.0115194
v -0.0127000 0.0015000 -0.0067250
v -0.0127000 0.0000000 -0.0104447
v -0.0083825 0.0000000 -0.0122331
v -0.0083825 0.0015000 -0.0122331
v -0.0127000 0.0015000 -0.0104447
v -0.0127000 0.0000000 -0.0130750
v -0.0085500 0.0000000 -0.0130750
v -0.0085500 0.0015000 -0.0130750
v -0.0127000 0.0015000 -0.0130750
v -0.0127000 0.0000000 -0.0157053
v -0.0083825 0.0000000 -0.0139169
v -0.0083825 0.0015000 -0.0139169
v -0.0127000 0.0015000 -0.0157053
v -0.0127000 0.0000000 -0.0194250
v -0.0079056 0.0000000 -0.0146306
v -0.0079056 0.0015000 -0.0146306
v -0.0127000 0.0015000 -0.0194250
v -0.0089803 0.0000000 -0.0194250
v -0.0071919 0.0000000 -0.0151075
v -0.0071919 0.0015000 -0.0151075
v -0.0089803 0.0015000 -0.0194250
v -0.0063500 0.0000000 -0.0194250
v -0.0063500 0.0000000 -0.0152750
v -0.0063500 0.0015000 -0.0152750
v -0.0063500 0.0015000 -0.0194250
v -0.0037197 0.0000000 -0.0194250
v -0.0055081 0.0000000 -0.0151075
v -0.0055081 0.0015000 -0.0151075
v -0.0037197 0.0015000 -0.0194250
v -0.0000000 0.0000000 -0.0194250
v -0.0047944 0.0000000 -0.0146306
v -0.0047944 0.0015000 -0.0146306
v -0.0000000 0.0015000 -0.0194250
v 0.0000000 0.0000000 -0.0157053
v -0.0043175 0.0000000 -0.0139169
v -0.0043175 0.0015000 -0.0139169
v 0.0000000 0.0015000 -0.0157053
v 0.0000000 0.0000000 -0.0003750
v 0.0000000 0.0000000 0.0022553
v -0.0043175 0.0000000 0.0004669
v -0.0041500 0.0000000 -0.0003750
v 0.0000000 0.0015000 -0.0003750
v -0.0041500 0.0015000 -0.0003750
v -0.0043175 0.0015000 0.0004669
v 0.0000000 0.0015000 0.0022553
v 0.0000000 0.0000000 0.0059750
v -0.0047944 0.0000000 0.0011806
v -0.0047944 0.0015000 0.0011806
v 0.0000000 0.0015000 0.0059750
v -0.0037197 0.0000000 0.0059750
v -0.0055081 0.0000000 0.0016575
v -0.0055081 0.0015000 0.0016575
v -0.0037197 0.0015000 0.0059750
v -0.0063500 0.0000000 0.0059750
v -0.0063500 0.0000000 0.0018250
v -0.0063500 0.0015000 0.0018250
v -0.0063500 0.0015000 0.0059750
v -0.0089803 0.0000000 0.0059750
v -0.0071919 0.0000000 0.0016575
v -0.0071919 0.0015000 0.0016575
v -0.0089803 0.0015000 0.0059750
v -0.0127000 0.0000000 0.0059750
v -0.0079056 0.0000000 0.0011806
v -0.0079056 0.0015000 0.0011806
v -0.0127000 0.0015000 0.0059750
v -0.0127000 0.0000000 0.0022553
v -0.0083825 0.0000000 0.0004669
v -0.0083825 0.0015000 0.0004669
v -0.0127000 0.0015000 0.0022553
v -0.0127000 0.0000000 -0.0003750
v -0.0085500 0.0000000 -0.0003750
v -0.0085500 0.0015000 -0.0003750
v -0.0127000 0.0015000 -0.0003750
v -0.0127000 0.0000000 -0.0030053
v -0.0083825 0.0000000 -0.0012169
v -0.0083825 0.0015000 -0.0012169
v -0.0127000 0.0015000 -0.0030053
v -0.0079056 0.0000000 -0.0019306
v -0.0079056 0.0015000 -0.0019306
v -0.0071919 0.0000000 -0.0024075
v -0.0071919 0.0015000 -0.0024075
v -0.0063500 0.0000000 -0.0025750
v -0.0063500 0.0015000 -0.0025750
v -0.0055081 0.0000000 -0.0024075
v -0.0055081 0.0015000 -0.0024075
v -0.0047944 0.0000000 -0.0019306
v -0.0047944 0.0015000 -0.0019306
v 0.0000000 0.0000000 -0.0030053
v -0.0043175 0.0000000 -0.0012169
v -0.0043175 0.0015000 -0.0012169
v 0.0000000 0.0015000 -0.0030053
v 0.0000000 0.0000000 0.0123250
v 0.0000000 0.0000000 0.0149553
v -0.0043175 0.0000000 0.0131669
v -0.0041500 0.0000000 0.0123250
v 0.0000000 0.0015000 0.0123250
v -0.0041500 0.0015000 0.0123250
v -0.0043175 0.0015000 0.0131669
v 0.0000000 0.0015000 0.0149553
v 0.0000000 0.0000000 0.0186750
v -0.0047944 0.0000000 0.0138806
v -0.0047944 0.0015000 0.0138806
v 0.0000000 0.0015000 0.0186750
v -0.0037197 0.0000000 0.0186750
v -0.0055081 0.0000000 0.0143575
v -0.0055081 0.0015000 0.0143575
v -0.0037197 0.0015000 0.0186750
v -0.0063500 0.0000000 0.0186750
v -0.0063500 0.0000000 0.0145250
v -0.0063500 0.0015000 0.0145250
v -0.0063500 0.0015000 0.0186750
v -0.0089803 0.0000000 0.0186750
v -0.0071919 0.0000000 0.0143575
v -0.0071919 0.0015000 0.0143575
v -0.0089803 0.0015000 0.0186750
v -0.0127000 0.0000000 0.0186750
v -0.0079056 0.0000000 0.0138806
v -0.0079056 0.0015000 0.0138806
v -0.0127000 0.0015000 0.0186750
v -0.0127000 0.0000000 0.0149553
v -0.0083825 0.0000000 0.0131669
v -0.0083825 0.0015000 0.0131669
v -0.0127000 0.0015000 0.0149553
v -0.0127000 0.0000000 0.0123250
v -0.0085500 0.0000000 0.0123250
v -0.0085500 0.0015000 0.0123250
v -0.0127000 0.0015000 0.0123250
v -0.0127000 0.0000000 0.0096947
v -0.0083825 0.0000000 0.0114831
v -0.0083825 0.0015000 0.0114831
v -0.0127000 0.0015000 0.0096947
v -0.0079056 0.0000000 0.0107694
v -0.0079056 0.0015000 0.0107694
v -0.0071919 0.0000000 0.0102925
v -0.0071919 0.0015000 0.0102925
v -0.0063500 0.0000000 0.0101250
v -0.0063500 0.0015000 0.0101250
v -0.0055081 0.0000000 0.0102925
v -0.0055081 0.0015000 0.0102925
v -0.0047944 0.0000000 0.0107694
v -0.0047944 0.0015000 0.0107694
v 0.0000000 0.0000000 0.0096947
v -0.0043175 0.0000000 0.0114831
v -0.0043175 0.0015000 0.0114831
v 0.0000000 0.0015000 0.0096947
v 0.0127000 0.0000000 -0.0130750
v 0.0127000 0.0000000 -0.0104447
v 0.0083825 0.0000000 -0.0122331
v 0.0085500 0.0000000 -0.0130750
v 0.0127000 0.0015000 -0.0130750
v 0.0085500 0.0015000 -0.0130750
v 0.0083825 0.0015000 -0.0122331
v 0.0127000 0.0015000 -0.0104447
v 0.0127000 0.0000000 -0.0067250
v 0.0079056 0.0000000 -0.0115194
v 0.0079056 0.0015000 -0.0115194
v 0.0127000 0.0015000 -0.0067250
v 0.0089803 0.0000000 -0.0067250
v 0.0071919 0.0000000 -0.0110425
v 0.0071919 0.0015000 -0.0110425
v 0.0089803 0.0015000 -0.0067250
v 0.0063500 0.0000000 -0.0067250
v 0.0063500 0.0000000 -0.0108750
v 0.0063500 0.0015000 -0.0108750
v 0.0063500 0.0015000 -0.0067250
v 0.0037197 0.0000000 -0.0067250
v 0.0055081 0.0000000 -0.0110425
v 0.0055081 0.0015000 -0.0110425
v 0.0037197 0.0015000 -0.0067250
v 0.0047944 0.0000000 -0.0115194
v 0.0047944 0.0015000 -0.0115194
v 0.0043175 0.0000000 -0.0122331
v 0.0043175 0.0015000 -0.0122331
v 0.0041500 0.0000000 -0.0130750
v 0.0041500 0.0015000 -0.0130750
v 0.0043175 0.0000000 -0.0139169
v 0.0043175 0.0015000 -0.0139169
v 0.0047944 0.0000000 -0.0146306
v 0.0047944 0.0015000 -0.0146306
v 0.0037197 0.0000000 -0.0194250
v 0.0055081 0.0000000 -0.0151075
v 0.0055081 0.0015000 -0.0151075
v 0.0037197 0.0015000 -0.0194250
v 0.0063500 0.0000000 -0.0194250
v 0.0063500 0.0000000 -0.0152750
v 0.0063500 0.0015000 -0.0152750
v 0.0063500 0.0015000 -0.0194250
v 0.0089803 0.0000000 -0.0194250
v 0.0071919 0.0000000 -0.0151075
v 0.0071919 0.0015000 -0.0151075
v 0.0089803 0.0015000 -0.0194250
v 0.0127000 0.0000000 -0.0194250
v 0.0079056 0.0000000 -0.0146306
v 0.0079056 0.0015000 -0.0146306
v 0.0127000 0.0015000 -0.0194250
v 0.0127000 0.0000000 -0.0157053
v 0.0083825 0.0000000 -0.0139169
v 0.0083825 0.0015000 -0.0139169
v 0.0127000 0.0015000 -0.0157053
v 0.0127000 0.0000000 -0.0003750
v 0.0127000 0.0000000 0.0022553
v 0.0083825 0.0000000 0.0004669
v 0.0085500 0.0000000 -0.0003750
v 0.0127000 0.0015000 -0.0003750
v 0.0085500 0.0015000 -0.0003750
v 0.0083825 0.0015000 0.0004669
v 0.0127000 0.0015000 0.0022553
v 0.0127000 0.0000000 0.0059750
v 0.0079056 0.0000000 0.0011806
v 0.0079056 0.0015000 0.0011806
v 0.0127000 0.0015000 0.0059750
v 0.0089803 0.0000000 0.0059750
v 0.0071919 0.0000000 0.0016575
v 0.0071919 0.0015000 0.0016575
v 0.0089803 0.0015000 0.0059750
v 0.0063500 0.0000000 0.0059750
v 0.0063500 0.0000000 0.0018250
v 0.0063500 0.0015000 0.0018250
v 0.0063500 0.0015000 0.0059750
v 0.0037197 0.0000000 0.0059750
v 0.0055081 0.0000000 0.0016575
v 0.0055081 0.0015000 0.0016575
v 0.0037197 0.0015000 0.0059750
v 0.0047944 0.0000000 0.0011806
v 0.0047944 0.0015000 0.0011806
v 0.0043175 0.0000000 0.0004669
v 0.0043175 0.0015000 0.0004669
v 0.0041500 0.0000000 -0.0003750
v 0.0041500 0.0015000 -0.0003750
v 0.0043175 0.0000000 -0.0012169
v 0.0043175 0.0015000 -0.0012169
v 0.0047944 0.0000000 -0.0019306
v 0.0047944 0.0015000 -0.0019306
v 0.0055081 0.0000000 -0.0024075
v 0.0055081 0.0015000 -0.0024075
v 0.0063500 0.0000000 -0.0025750
v 0.0063500 0.0015000 -0.0025750
v 0.0071919 0.0000000 -0.0024075
v 0.0071919 0.0015000 -0.0024075
v 0.0079056 0.0000000 -0.0019306
v 0.0079056 0.0015000 -0.0019306
v 0.0127000 0.0000000 -0.0030053
v 0.0083825 0.0000000 -0.0012169
v 0.0083825 0.0015000 -0.0012169
v 0.0127000 0.0015000 -0.0030053
v 0.0127000 0.0000000 0.0123250
v 0.0127000 0.0000000 0.0149553
v 0.0083825 0.0000000 0.0131669
v 0.0085500 0.0000000 0.0123250
v 0.0127000 0.0015000 0.0123250
v 0.0085500 0.0015000 0.0123250
v 0.0083825 0.0015000 0.0131669
v 0.0127000 0.0015000 0.0149553
v 0.0127000 0.0000000 0.0186750
v 0.0079056 0.0000000 0.0138806
v 0.0079056 0.0015000 0.0138806
v 0.0127000 0.0015000 0.0186750
v 0.0089803 0.0000000 0.0186750
v 0.0071919 0.0000000 0.0143575
v 0.0071919 0.0015000 0.0143575
v 0.0089803 0.0015000 0.0186750
v 0.0063500 0.0000000 0.0186750
v 0.0063500 0.0000000 0.0145250
v 0.0063500 0.0015000 0.0145250
v 0.0063500 0.0015000 0.0186750
v 0.0037197 0.0000000 0.0186750
v 0.0055081 0.0000000 0.0143575
v 0.0055081 0.0015000 0.0143575
v 0.0037197 0.0015000 0.0186750
v 0.0047944 0.0000000 0.0138806
v 0.0047944 0.0015000 0.0138806
v 0.0043175 0.0000000 0.0131669
v 0.0043175 0.0015000 0.0131669
v 0.0041500 0.0000000 0.0123250
v 0.0041500 0.0015000 0.0123250
v 0.0043175 0.0000000 0.0114831
v 0.0043175 0.0015000 0.0114831
v 0.0047944 0.0000000 0.0107694
v 0.0047944 0.0015000 0.0107694
v 0.0055081 0.0000000 0.0102925
v 0.0055081 0.0015000 0.0102925
v 0.0063500 0.0000000 0.0101250
v 0.0063500 0.0015000 0.0101250
v 0.0071919 0.0000000 0.0102925
v 0.0071919 0.0015000 0.0102925
v 0.0079056 0.0000000 0.0107694
v 0.0079056 0.0015000 0.0107694
v 0.0127000 0.0000000 0.0096947
v 0.0083825 0.0000000 0.0114831
v 0.0083825 0.0015000 0.0114831
v 0.0127000 0.0015000 0.0096947
v 0.0000000 0.0071000 0.0194250
v 0.0000000 0.0097303 0.0194250
v -0.0043175 0.0079419 0.0194250
v -0.0041500 0.0071000 0.0194250
v 0.0000000 0.0071000 0.0179250
v -0.0041500 0.0071000 0.0179250
v -0.0043175 0.0079419 0.0179250
v 0.0000000 0.0097303 0.0179250
v 0.0000000 0.0134500 0.0194250
v -0.0047944 0.0086556 0.0194250
v -0.0047944 0.0086556 0.0179250
v 0.0000000 0.0134500 0.0179250
v -0.0037197 0.0134500 0.0194250
v -0.0055081 0.0091325 0.0194250
v -0.0055081 0.0091325 0.0179250
v -0.0037197 0.0134500 0.0179250
v -0.0063500 0.0134500 0.0194250
v -0.0063500 0.0093000 0.0194250
v -0.0063500 0.0093000 0.0179250
v -0.0063500 0.0134500 0.0179250
v -0.0089803 0.0134500 0.0194250
v -0.0071919 0.0091325 0.0194250
v -0.0071919 0.0091325 0.0179250
v -0.0089803 0.0134500 0.0179250
v -0.0127000 0.0134500 0.0194250
v -0.0079056 0.0086556 0.0194250
v -0.0079056 0.0086556 0.0179250
v -0.0127000 0.0134500 0.0179250
v -0.0127000 0.0097303 0.0194250
v -0.0083825 0.0079419 0.0194250
v -0.0083825 0.0079419 0.0179250
v -0.0127000 0.0097303 0.0179250
v -0.0127000 0.0071000 0.0194250
v -0.0085500 0.0071000 0.0194250
v -0.0085500 0.0071000 0.0179250
v -0.0127000 0.0071000 0.0179250
v -0.0127000 0.0044697 0.0194250
v -0.0083825 0.0062581 0.0194250
v -0.0083825 0.0062581 0.0179250
v -0.0127000 0.0044697 0.0179250
v -0.0127000 0.0007500 0.0194250
v -0.0079056 0.0055444 0.0194250
v -0.0079056 0.0055444 0.0179250
v -0.0127000 0.0007500 0.0179250
v -0.0089803 0.0007500 0.0194250
v -0.0071919 0.0050675 0.0194250
v -0.0071919 0.0050675 0.0179250
v -0.0089803 0.0007500 0.0179250
v -0.0063500 0.0007500 0.0194250
v -0.0063500 0.0049000 0.0194250
v -0.0063500 0.0049000 0.0179250
v -0.0063500 0.0007500 0.0179250
v -0.0037197 0.0007500 0.0194250
v -0.0055081 0.0050675 0.0194250
v -0.0055081 0.0050675 0.0179250
v -0.0037197 0.0007500 0.0179250
v -0.0000000 0.0007500 0.0194250
v -0.0047944 0.0055444 0.0194250
v -0.0047944 0.0055444 0.0179250
v -0.0000000 0.0007500 0.0179250
v 0.0000000 0.0044697 0.0194250
v -0.0043175 0.0062581 0.0194250
v -0.0043175 0.0062581 0.0179250
v 0.0000000 0.0044697 0.0179250
v 0.0000000 0.0198000 0.0194250
v 0.0000000 0.0224303 0.0194250
v -0.0043175 0.0206419 0.0194250
v -0.0041500 0.0198000 0.0194250
v 0.0000000 0.0198000 0.0179250
v -0.0041500 0.0198000 0.0179250
v -0.0043175 0.0206419 0.0179250
v 0.0000000 0.0224303 0.0179250
v 0.0000000 0.0261500 0.0194250
v -0.0047944 0.0213556 0.0194250
v -0.0047944 0.0213556 0.0179250
v 0.0000000 0.0261500 0.0179250
v -0.0037197 0.0261500 0.0194250
v -0.0055081 0.0218325 0.0194250
v -0.0055081 0.0218325 0.0179250
v -0.0037197 0.0261500 0.0179250
v -0.0063500 0.0261500 0.0194250
v -0.0063500 0.0220000 0.0194250
v -0.0063500 0.0220000 0.0179250
v -0.0063500 0.0261500 0.0179250
v -0.0089803 0.0261500 0.0194250
v -0.0071919 0.0218325 0.0194250
v -0.0071919 0.0218325 0.0179250
v -0.0089803 0.0261500 0.0179250
v -0.0127000 0.0261500 0.0194250
v -0.0079056 0.0213556 0.0194250
v -0.0079056 0.0213556 0.0179250
v -0.0127000 0.0261500 0.0179250
v -0.0127000 0.0224303 0.0194250
v -0.0083825 0.0206419 0.0194250
v -0.0083825 0.0206419 0.0179250
v -0.0127000 0.0224303 0.0179250
v -0.0127000 0.0198000 0.0194250
v -0.0085500 0.0198000 0.0194250
v -0.0085500 0.0198000 0.0179250
v -0.0127000 0.0198000 0.0179250
v -0.0127000 0.0171697 0.0194250
v -0.0083825 0.0189581 0.0194250
v -0.0083825 0.0189581 0.0179250
v -0.0127000 0.0171697 0.0179250
v -0.0079056 0.0182444 0.0194250
v -0.0079056 0.0182444 0.0179250
v -0.0071919 0.0177675 0.0194250
v -0.0071919 0.0177675 0.0179250
v -0.0063500 0.0176000 0.0194250
v -0.0063500 0.0176000 0.0179250
v -0.0055081 0.0177675 0.0194250
v -0.0055081 0.0177675 0.0179250
v -0.0047944 0.0182444 0.0194250
v -0.0047944 0.0182444 0.0179250
v 0.0000000 0.0171697 0.0194250
v -0.0043175 0.0189581 0.0194250
v -0.0043175 0.0189581 0.0179250
v 0.0000000 0.0171697 0.0179250
v 0.0127000 0.0071000 0.0194250
v 0.0127000 0.0097303 0.0194250
v 0.0083825 0.0079419 0.0194250
v 0.0085500 0.0071000 0.0194250
v 0.0127000 0.0071000 0.0179250
v 0.0085500 0.0071000 0.0179250
v 0.0083825 0.0079419 0.0179250
v 0.0127000 0.0097303 0.0179250
v 0.0127000 0.0134500 0.0194250
v 0.0079056 0.0086556 0.0194250
v 0.0079056 0.0086556 0.0179250
v 0.0127000 0.0134500 0.0179250
v 0.0089803 0.0134500 0.0194250
v 0.0071919 0.0091325 0.0194250
v 0.0071919 0.0091325 0.0179250
v 0.0089803 0.0134500 0.0179250
v 0.0063500 0.0134500 0.0194250
v 0.0063500 0.0093000 0.0194250
v 0.0063500 0.0093000 0.0179250
v 0.0063500 0.0134500 0.0179250
v 0.0037197 0.0134500 0.0194250
v 0.0055081 0.0091325 0.0194250
v 0.0055081 0.0091325 0.0179250
v 0.0037197 0.0134500 0.0179250
v 0.0047944 0.0086556 0.0194250
v 0.0047944 0.0086556 0.0179250
v 0.0043175 0.0079419 0.0194250
v 0.0043175 0.0079419 0.0179250
v 0.0041500 0.0071000 0.0194250
v 0.0041500 0.0071000 0.0179250
v 0.0043175 0.0062581 0.0194250
v 0.0043175 0.0062581 0.0179250
v 0.0047944 0.0055444 0.0194250
v 0.0047944 0.0055444 0.0179250
v 0.0037197 0.0007500 0.0194250
v 0.0055081 0.0050675 0.0194250
v 0.0055081 0.0050675 0.0179250
v 0.0037197 0.0007500 0.0179250
v 0.0063500 0.0007500 0.0194250
v 0.0063500 0.0049000 0.0194250
v 0.0063500 0.0049000 0.0179250
v 0.0063500 0.0007500 0.0179250
v 0.0089803 0.0007500 0.0194250
v 0.0071919 0.0050675 0.0194250
v 0.0071919 0.0050675 0.0179250
v 0.0089803 0.0007500 0.0179250
v 0.0127000 0.0007500 0.0194250
v 0.0079056 0.0055444 0.0194250
v 0.0079056 0.0055444 0.0179250
v 0.0127000 0.0007500 0.0179250
v 0.0127000 0.0044697 0.0194250
v 0.0083825 0.0062581 0.0194250
v 0.0083825 0.0062581 0.0179250
v 0.0127000 0.0044697 0.0179250
v 0.0127000 0.0198000 0.0194250
v 0.0127000 0.0224303 0.0194250
v 0.0083825 0.0206419 0.0194250
v 0.0085500 0.0198000 0.0194250
v 0.0127000 0.0198000 0.0179250
v 0.0085500 0.0198000 0.0179250
v 0.0083825 0.0206419 0.0179250
v 0.0127000 0.0224303 0.0179250
v 0.0127000 0.0261500 0.0194250
v 0.0079056 0.0213556 0.0194250
v 0.0079056 0.0213556 0.0179250
v 0.0127000 0.0261500 0.0179250
v 0.0089803 0.0261500 0.0194250
v 0.0071919 0.0218325 0.0194250
v 0.0071919 0.0218325 0.0179250
v 0.0089803 0.0261500 0.0179250
v 0.0063500 0.0261500 0.0194250
v 0.0063500 0.0220000 0.0194250
v 0.0063500 0.0220000 0.0179250
v 0.0063500 0.0261500 0.0179250
v 0.0037197 0.0261500 0.0194250
v 0.0055081 0.0218325 0.0194250
v 0.0055081 0.0218325 0.0179250
v 0.0037197 0.0261500 0.0179250
v 0.0047944 0.0213556 0.0194250
v 0.0047944 0.0213556 0.0179250
v 0.0043175 0.0206419 0.0194250
v 0.0043175 0.0206419 0.0179250
v 0.0041500 0.0198000 0.0194250
v 0.0041500 0.0198000 0.0179250
v 0.0043175 0.0189581 0.0194250
v 0.0043175 0.0189581 0.0179250
v 0.0047944 0.0182444 0.0194250
v 0.0047944 0.0182444 0.0179250
v 0.0055081 0.0177675 0.0194250
v 0.0055081 0.0177675 0.0179250
v 0.0063500 0.0176000 0.0194250
v 0.0063500 0.0176000 0.0179250
v 0.0071919 0.0177675 0.0194250
v 0.0071919 0.0177675 0.0179250
v 0.0079056 0.0182444 0.0194250
v 0.0079056 0.0182444 0.0179250
v 0.0127000 0.0171697 0.0194250
v 0.0083825 0.0189581 0.0194250
v 0.0083825 0.0189581 0.0179250
v 0.0127000 0.0171697 0.0179250
f 1 2 3
f 1 3 4
f 5 6 7
f 5 7 8
f 4 3 7
f 4 7 6
f 1 5 8
f 1 8 2
f 2 9 10
f 2 10 3
f 8 7 11
f 8 11 12
f 3 10 11
f 3 11 7
f 2 8 12
f 2 12 9
f 9 13 14
f 9 14 10
f 12 11 15
f 12 15 16
f 10 14 15
f 10 15 11
f 9 12 16
f 9 16 13
f 13 17 18
f 13 18 14
f 16 15 19
f 16 19 20
f 14 18 19
f 14 19 15
f 13 16 20
f 13 20 17
f 17 21 22
f 17 22 18
f 20 19 23
f 20 23 24
f 18 22 23
f 18 23 19
f 17 20 24
f 17 24 21
f 21 25 26
f 21 26 22
f 24 23 27
f 24 27 28
f 22 26 27
f 22 27 23
f 21 24 28
f 21 28 25
f 25 29 30
f 25 30 26
f 28 27 31
f 28 31 32
f 26 30 31
f 26 31 27
f 25 28 32
f 25 32 29
f 29 33 34
f 29 34 30
f 32 31 35
f 32 35 36
f 30 34 35
f 30 35 31
f 29 32 36
f 29 36 33
f 33 37 38
f 33 38 34
f 36 35 39
f 36 39 40
f 34 38 39
f 34 39 35
f 33 36 40
f 33 40 37
f 37 41 42
f 37 42 38
f 40 39 43
f 40 43 44
f 38 42 43
f 38 43 39
f 37 40 44
f 37 44 41
f 41 45 46
f 41 46 42
f 44 43 47
f 44 47 48
f 42 46 47
f 42 47 43
f 41 44 48
f 41 48 45
f 45 49 50
f 45 50 46
f 48 47 51
f 48 51 52
f 46 50 51
f 46 51 47
f 45 48 52
f 45 52 49
f 49 53 54
f 49 54 50
f 52 51 55
f 52 55 56
f 50 54 55
f 50 55 51
f 49 52 56
f 49 56 53
f 53 57 58
f 53 58 54
f 56 55 59
f 56 59 60
f 54 58 59
f 54 59 55
f 53 56 60
f 53 60 57
f 57 61 62
f 57 62 58
f 60 59 63
f 60 63 64
f 58 62 63
f 58 63 59
f 57 60 64
f 57 64 61
f 61 1 4
f 61 4 62
f 64 63 6
f 64 6 5
f 62 4 6
f 62 6 63
f 61 64 5
f 61 5 1
f 65 66 67
f 65 67 68
f 69 70 71
f 69 71 72
f 68 67 71
f 68 71 70
f 65 69 72
f 65 72 66
f 66 73 74
f 66 74 67
f 72 71 75
f 72 75 76
f 67 74 75
f 67 75 71
f 66 72 76
f 66 76 73
f 73 77 78
f 73 78 74
f 76 75 79
f 76 79 80
f 74 78 79
f 74 79 75
f 73 76 80
f 73 80 77
f 77 81 82
f 77 82 78
f 80 79 83
f 80 83 84
f 78 82 83
f 78 83 79
f 77 80 84
f 77 84 81
f 81 85 86
f 81 86 82
f 84 83 87
f 84 87 88
f 82 86 87
f 82 87 83
f 81 84 88
f 81 88 85
f 85 89 90
f 85 90 86
f 88 87 91
f 88 91 92
f 86 90 91
f 86 91 87
f 85 88 92
f 85 92 89
f 89 93 94
f 89 94 90
f 92 91 95
f 92 95 96
f 90 94 95
f 90 95 91
f 89 92 96
f 89 96 93
f 93 97 98
f 93 98 94
f 96 95 99
f 96 99 100
f 94 98 99
f 94 99 95
f 93 96 100
f 93 100 97
f 97 101 102
f 97 102 98
f 100 99 103
f 100 103 104
f 98 102 103
f 98 103 99
f 97 100 104
f 97 104 101
f 101 25 105
f 101 105 102
f 104 103 106
f 104 106 28
f 102 105 106
f 102 106 103
f 101 104 28
f 101 28 25
f 25 21 107
f 25 107 105
f 28 106 108
f 28 108 24
f 105 107 108
f 105 108 106
f 25 28 24
f 25 24 21
f 21 17 109
f 21 109 107
f 24 108 110
f 24 110 20
f 107 109 110
f 107 110 108
f 21 24 20
f 21 20 17
f 17 13 111
f 17 111 109
f 20 110 112
f 20 112 16
f 109 111 112
f 109 112 110
f 17 20 16
f 17 16 13
f 13 9 113
f 13 113 111
f 16 112 114
f 16 114 12
f 111 113 114
f 111 114 112
f 13 16 12
f 13 12 9
f 9 115 116
f 9 116 113
f 12 114 117
f 12 117 118
f 113 116 117
f 113 117 114
f 9 12 118
f 9 118 115
f 115 65 68
f 115 68 116
f 118 117 70
f 118 70 69
f 116 68 70
f 116 70 117
f 115 118 69
f 115 69 65
f 119 120 121
f 119 121 122
f 123 124 125
f 123 125 126
f 122 121 125
f 122 125 124
f 119 123 126
f 119 126 120
f 120 127 128
f 120 128 121
f 126 125 129
f 126 129 130
f 121 128 129
f 121 129 125
f 120 126 130
f 120 130 127
f 127 131 132
f 127 132 128
f 130 129 133
f 130 133 134
f 128 132 133
f 128 133 129
f 127 130 134
f 127 134 131
f 131 135 136
f 131 136 132
f 134 133 137
f 134 137 138
f 132 136 137
f 132 137 133
f 131 134 138
f 131 138 135
f 135 139 140
f 135 140 136
f 138 137 141
f 138 141 142
f 136 140 141
f 136 141 137
f 135 138 142
f 135 142 139
f 139 143 144
f 139 144 140
f 142 141 145
f 142 145 146
f 140 144 145
f 140 145 141
f 139 142 146
f 139 146 143
f 143 147 148
f 143 148 144
f 146 145 149
f 146 149 150
f 144 148 149
f 144 149 145
f 143 146 150
f 143 150 147
f 147 151 152
f 147 152 148
f 150 149 153
f 150 153 154
f 148 152 153
f 148 153 149
f 147 150 154
f 147 154 151
f 151 155 156
f 151 156 152
f 154 153 157
f 154 157 158
f 152 156 157
f 152 157 153
f 151 154 158
f 151 158 155
f 155 89 159
f 155 159 156
f 158 157 160
f 158 160 92
f 156 159 160
f 156 160 157
f 155 158 92
f 155 92 89
f 89 85 161
f 89 161 159
f 92 160 162
f 92 162 88
f 159 161 162
f 159 162 160
f 89 92 88
f 89 88 85
f 85 81 163
f 85 163 161
f 88 162 164
f 88 164 84
f 161 163 164
f 161 164 162
f 85 88 84
f 85 84 81
f 81 77 165
f 81 165 163
f 84 164 166
f 84 166 80
f 163 165 166
f 163 166 164
f 81 84 80
f 81 80 77
f 77 73 167
f 77 167 165
f 80 166 168
f 80 168 76
f 165 167 168
f 165 168 166
f 77 80 76
f 77 76 73
f 73 169 170
f 73 170 167
f 76 168 171
f 76 171 172
f 167 170 171
f 167 171 168
f 73 76 172
f 73 172 169
f 169 119 122
f 169 122 170
f 172 171 124
f 172 124 123
f 170 122 124
f 170 124 171
f 169 172 123
f 169 123 119
f 173 174 175
f 173 175 176
f 177 178 179
f 177 179 180
f 176 175 179
f 176 179 178
f 173 177 180
f 173 180 174
f 174 181 182
f 174 182 175
f 180 179 183
f 180 183 184
f 175 182 183
f 175 183 179
f 174 180 184
f 174 184 181
f 181 185 186
f 181 186 182
f 184 183 187
f 184 187 188
f 182 186 187
f 182 187 183
f 181 184 188
f 181 188 185
f 185 189 190
f 185 190 186
f 188 187 191
f 188 191 192
f 186 190 191
f 186 191 187
f 185 188 192
f 185 192 189
f 189 193 194
f 189 194 190
f 192 191 195
f 192 195 196
f 190 194 195
f 190 195 191
f 189 192 196
f 189 196 193
f 193 9 197
f 193 197 194
f 196 195 198
f 196 198 12
f 194 197 198
f 194 198 195
f 193 196 12
f 193 12 9
f 9 2 199
f 9 199 197
f 12 198 200
f 12 200 8
f 197 199 200
f 197 200 198
f 9 12 8
f 9 8 2
f 2 1 201
f 2 201 199
f 8 200 202
f 8 202 5
f 199 201 202
f 199 202 200
f 2 8 5
f 2 5 1
f 1 61 203
f 1 203 201
f 5 202 204
f 5 204 64
f 201 203 204
f 201 204 202
f 1 5 64
f 1 64 61
f 61 57 205
f 61 205 203
f 64 204 206
f 64 206 60
f 203 205 206
f 203 206 204
f 61 64 60
f 61 60 57
f 57 207 208
f 57 208 205
f 60 206 209
f 60 209 210
f 205 208 209
f 205 209 206
f 57 60 210
f 57 210 207
f 207 211 212
f 207 212 208
f 210 209 213
f 210 213 214
f 208 212 213
f 208 213 209
f 207 210 214
f 207 214 211
f 211 215 216
f 211 216 212
f 214 213 217
f 214 217 218
f 212 216 217
f 212 217 213
f 211 214 218
f 211 218 215
f 215 219 220
f 215 220 216
f 218 217 221
f 218 221 222
f 216 220 221
f 216 221 217
f 215 218 222
f 215 222 219
f 219 223 224
f 219 224 220
f 222 221 225
f 222 225 226
f 220 224 225
f 220 225 221
f 219 222 226
f 219 226 223
f 223 173 176
f 223 176 224
f 226 225 178
f 226 178 177
f 224 176 178
f 224 178 225
f 223 226 177
f 223 177 173
f 227 228 229
f 227 229 230
f 231 232 233
f 231 233 234
f 230 229 233
f 230 233 232
f 227 231 234
f 227 234 228
f 228 235 236
f 228 236 229
f 234 233 237
f 234 237 238
f 229 236 237
f 229 237 233
f 228 234 238
f 228 238 235
f 235 239 240
f 235 240 236
f 238 237 241
f 238 241 242
f 236 240 241
f 236 241 237
f 235 238 242
f 235 242 239
f 239 243 244
f 239 244 240
f 242 241 245
f 242 245 246
f 240 244 245
f 240 245 241
f 239 242 246
f 239 246 243
f 243 247 248
f 243 248 244
f 246 245 249
f 246 249 250
f 244 248 249
f 244 249 245
f 243 246 250
f 243 250 247
f 247 73 251
f 247 251 248
f 250 249 252
f 250 252 76
f 248 251 252
f 248 252 249
f 247 250 76
f 247 76 73
f 73 66 253
f 73 253 251
f 76 252 254
f 76 254 72
f 251 253 254
f 251 254 252
f 73 76 72
f 73 72 66
f 66 65 255
f 66 255 253
f 72 254 256
f 72 256 69
f 253 255 256
f 253 256 254
f 66 72 69
f 66 69 65
f 65 115 257
f 65 257 255
f 69 256 258
f 69 258 118
f 255 257 258
f 255 258 256
f 65 69 118
f 65 118 115
f 115 9 259
f 115 259 257
f 118 258 260
f 118 260 12
f 257 259 260
f 257 260 258
f 115 118 12
f 115 12 9
f 9 193 261
f 9 261 259
f 12 260 262
f 12 262 196
f 259 261 262
f 259 262 260
f 9 12 196
f 9 196 193
f 193 189 263
f 193 263 261
f 196 262 264
f 196 264 192
f 261 263 264
f 261 264 262
f 193 196 192
f 193 192 189
f 189 185 265
f 189 265 263
f 192 264 266
f 192 266 188
f 263 265 266
f 263 266 264
f 189 192 188
f 189 188 185
f 185 181 267
f 185 267 265
f 188 266 268
f 188 268 184
f 265 267 268
f 265 268 266
f 185 188 184
f 185 184 181
f 181 269 270
f 181 270 267
f 184 268 271
f 184 271 272
f 267 270 271
f 267 271 268
f 181 184 272
f 181 272 269
f 269 227 230
f 269 230 270
f 272 271 232
f 272 232 231
f 270 230 232
f 270 232 271
f 269 272 231
f 269 231 227
f 273 274 275
f 273 275 276
f 277 278 279
f 277 279 280
f 276 275 279
f 276 279 278
f 273 277 280
f 273 280 274
f 274 281 282
f 274 282 275
f 280 279 283
f 280 283 284
f 275 282 283
f 275 283 279
f 274 280 284
f 274 284 281
f 281 285 286
f 281 286 282
f 284 283 287
f 284 287 288
f 282 286 287
f 282 287 283
f 281 284 288
f 281 288 285
f 285 289 290
f 285 290 286
f 288 287 291
f 288 291 292
f 286 290 291
f 286 291 287
f 285 288 292
f 285 292 289
f 289 293 294
f 289 294 290
f 292 291 295
f 292 295 296
f 290 294 295
f 290 295 291
f 289 292 296
f 289 296 293
f 293 127 297
f 293 297 294
f 296 295 298
f 296 298 130
f 294 297 298
f 294 298 295
f 293 296 130
f 293 130 127
f 127 120 299
f 127 299 297
f 130 298 300
f 130 300 126
f 297 299 300
f 297 300 298
f 127 130 126
f 127 126 120
f 120 119 301
f 120 301 299
f 126 300 302
f 126 302 123
f 299 301 302
f 299 302 300
f 120 126 123
f 120 123 119
f 119 169 303
f 119 303 301
f 123 302 304
f 123 304 172
f 301 303 304
f 301 304 302
f 119 123 172
f 119 172 169
f 169 73 305
f 169 305 303
f 172 304 306
f 172 306 76
f 303 305 306
f 303 306 304
f 169 172 76
f 169 76 73
f 73 247 307
f 73 307 305
f 76 306 308
f 76 308 250
f 305 307 308
f 305 308 306
f 73 76 250
f 73 250 247
f 247 243 309
f 247 309 307
f 250 308 310
f 250 310 246
f 307 309 310
f 307 310 308
f 247 250 246
f 247 246 243
f 243 239 311
f 243 311 309
f 246 310 312
f 246 312 242
f 309 311 312
f 309 312 310
f 243 246 242
f 243 242 239
f 239 235 313
f 239 313 311
f 242 312 314
f 242 314 238
f 311 313 314
f 311 314 312
f 239 242 238
f 239 238 235
f 235 315 316
f 235 316 313
f 238 314 317
f 238 317 318
f 313 316 317
f 313 317 314
f 235 238 318
f 235 318 315
f 315 273 276
f 315 276 316
f 318 317 278
f 318 278 277
f 316 276 278
f 316 278 317
f 315 318 277
f 315 277 273
f 319 320 321
f 319 321 322
f 323 324 325
f 323 325 326
f 322 321 325
f 322 325 324
f 319 323 326
f 319 326 320
f 320 327 328
f 320 328 321
f 326 325 329
f 326 329 330
f 321 328 329
f 321 329 325
f 320 326 330
f 320 330 327
f 327 331 332
f 327 332 328
f 330 329 333
f 330 333 334
f 328 332 333
f 328 333 329
f 327 330 334
f 327 334 331
f 331 335 336
f 331 336 332
f 334 333 337
f 334 337 338
f 332 336 337
f 332 337 333
f 331 334 338
f 331 338 335
f 335 339 340
f 335 340 336
f 338 337 341
f 338 341 342
f 336 340 341
f 336 341 337
f 335 338 342
f 335 342 339
f 339 343 344
f 339 344 340
f 342 341 345
f 342 345 346
f 340 344 345
f 340 345 341
f 339 342 346
f 339 346 343
f 343 347 348
f 343 348 344
f 346 345 349
f 346 349 350
f 344 348 349
f 344 349 345
f 343 346 350
f 343 350 347
f 347 351 352
f 347 352 348
f 350 349 353
f 350 353 354
f 348 352 353
f 348 353 349
f 347 350 354
f 347 354 351
f 351 355 356
f 351 356 352
f 354 353 357
f 354 357 358
f 352 356 357
f 352 357 353
f 351 354 358
f 351 358 355
f 355 359 360
f 355 360 356
f 358 357 361
f 358 361 362
f 356 360 361
f 356 361 357
f 355 358 362
f 355 362 359
f 359 363 364
f 359 364 360
f 362 361 365
f 362 365 366
f 360 364 365
f 360 365 361
f 359 362 366
f 359 366 363
f 363 367 368
f 363 368 364
f 366 365 369
f 366 369 370
f 364 368 369
f 364 369 365
f 363 366 370
f 363 370 367
f 367 371 372
f 367 372 368
f 370 369 373
f 370 373 374
f 368 372 373
f 368 373 369
f 367 370 374
f 367 374 371
f 371 375 376
f 371 376 372
f 374 373 377
f 374 377 378
f 372 376 377
f 372 377 373
f 371 374 378
f 371 378 375
f 375 379 380
f 375 380 376
f 378 377 381
f 378 381 382
f 376 380 381
f 376 381 377
f 375 378 382
f 375 382 379
f 379 319 322
f 379 322 380
f 382 381 324
f 382 324 323
f 380 322 324
f 380 324 381
f 379 382 323
f 379 323 319
f 383 384 385
f 383 385 386
f 387 388 389
f 387 389 390
f 386 385 389
f 386 389 388
f 383 387 390
f 383 390 384
f 384 391 392
f 384 392 385
f 390 389 393
f 390 393 394
f 385 392 393
f 385 393 389
f 384 390 394
f 384 394 391
f 391 395 396
f 391 396 392
f 394 393 397
f 394 397 398
f 392 396 397
f 392 397 393
f 391 394 398
f 391 398 395
f 395 399 400
f 395 400 396
f 398 397 401
f 398 401 402
f 396 400 401
f 396 401 397
f 395 398 402
f 395 402 399
f 399 403 404
f 399 404 400
f 402 401 405
f 402 405 406
f 400 404 405
f 400 405 401
f 399 402 406
f 399 406 403
f 403 407 408
f 403 408 404
f 406 405 409
f 406 409 410
f 404 408 409
f 404 409 405
f 403 406 410
f 403 410 407
f 407 411 412
f 407 412 408
f 410 409 413
f 410 413 414
f 408 412 413
f 408 413 409
f 407 410 414
f 407 414 411
f 411 415 416
f 411 416 412
f 414 413 417
f 414 417 418
f 412 416 417
f 412 417 413
f 411 414 418
f 411 418 415
f 415 419 420
f 415 420 416
f 418 417 421
f 418 421 422
f 416 420 421
f 416 421 417
f 415 418 422
f 415 422 419
f 419 343 423
f 419 423 420
f 422 421 424
f 422 424 346
f 420 423 424
f 420 424 421
f 419 422 346
f 419 346 343
f 343 339 425
f 343 425 423
f 346 424 426
f 346 426 342
f 423 425 426
f 423 426 424
f 343 346 342
f 343 342 339
f 339 335 427
f 339 427 425
f 342 426 428
f 342 428 338
f 425 427 428
f 425 428 426
f 339 342 338
f 339 338 335
f 335 331 429
f 335 429 427
f 338 428 430
f 338 430 334
f 427 429 430
f 427 430 428
f 335 338 334
f 335 334 331
f 331 327 431
f 331 431 429
f 334 430 432
f 334 432 330
f 429 431 432
f 429 432 430
f 331 334 330
f 331 330 327
f 327 433 434
f 327 434 431
f 330 432 435
f 330 435 436
f 431 434 435
f 431 435 432
f 327 330 436
f 327 436 433
f 433 383 386
f 433 386 434
f 436 435 388
f 436 388 387
f 434 386 388
f 434 388 435
f 433 436 387
f 433 387 383
f 437 438 439
f 437 439 440
f 441 442 443
f 441 443 444
f 440 439 443
f 440 443 442
f 437 441 444
f 437 444 438
f 438 445 446
f 438 446 439
f 444 443 447
f 444 447 448
f 439 446 447
f 439 447 443
f 438 444 448
f 438 448 445
f 445 449 450
f 445 450 446
f 448 447 451
f 448 451 452
f 446 450 451
f 446 451 447
f 445 448 452
f 445 452 449
f 449 453 454
f 449 454 450
f 452 451 455
f 452 455 456
f 450 454 455
f 450 455 451
f 449 452 456
f 449 456 453
f 453 457 458
f 453 458 454
f 456 455 459
f 456 459 460
f 454 458 459
f 454 459 455
f 453 456 460
f 453 460 457
f 457 327 461
f 457 461 458
f 460 459 462
f 460 462 330
f 458 461 462
f 458 462 459
f 457 460 330
f 457 330 327
f 327 320 463
f 327 463 461
f 330 462 464
f 330 464 326
f 461 463 464
f 461 464 462
f 327 330 326
f 327 326 320
f 320 319 465
f 320 465 463
f 326 464 466
f 326 466 323
f 463 465 466
f 463 466 464
f 320 326 323
f 320 323 319
f 319 379 467
f 319 467 465
f 323 466 468
f 323 468 382
f 465 467 468
f 465 468 466
f 319 323 382
f 319 382 379
f 379 375 469
f 379 469 467
f 382 468 470
f 382 470 378
f 467 469 470
f 467 470 468
f 379 382 378
f 379 378 375
f 375 471 472
f 375 472 469
f 378 470 473
f 378 473 474
f 469 472 473
f 469 473 470
f 375 378 474
f 375 474 471
f 471 475 476
f 471 476 472
f 474 473 477
f 474 477 478
f 472 476 477
f 472 477 473
f 471 474 478
f 471 478 475
f 475 479 480
f 475 480 476
f 478 477 481
f 478 481 482
f 476 480 481
f 476 481 477
f 475 478 482
f 475 482 479
f 479 483 484
f 479 484 480
f 482 481 485
f 482 485 486
f 480 484 485
f 480 485 481
f 479 482 486
f 479 486 483
f 483 487 488
f 483 488 484
f 486 485 489
f 486 489 490
f 484 488 489
f 484 489 485
f 483 486 490
f 483 490 487
f 487 437 440
f 487 440 488
f 490 489 442
f 490 442 441
f 488 440 442
f 488 442 489
f 487 490 441
f 487 441 437
f 491 492 493
f 491 493 494
f 495 496 497
f 495 497 498
f 494 493 497
f 494 497 496
f 491 495 498
f 491 498 492
f 492 499 500
f 492 500 493
f 498 497 501
f 498 501 502
f 493 500 501
f 493 501 497
f 492 498 502
f 492 502 499
f 499 503 504
f 499 504 500
f 502 501 505
f 502 505 506
f 500 504 505
f 500 505 501
f 499 502 506
f 499 506 503
f 503 507 508
f 503 508 504
f 506 505 509
f 506 509 510
f 504 508 509
f 504 509 505
f 503 506 510
f 503 510 507
f 507 511 512
f 507 512 508
f 510 509 513
f 510 513 514
f 508 512 513
f 508 513 509
f 507 510 514
f 507 514 511
f 511 391 515
f 511 515 512
f 514 513 516
f 514 516 394
f 512 515 516
f 512 516 513
f 511 514 394
f 511 394 391
f 391 384 517
f 391 517 515
f 394 516 518
f 394 518 390
f 515 517 518
f 515 518 516
f 391 394 390
f 391 390 384
f 384 383 519
f 384 519 517
f 390 518 520
f 390 520 387
f 517 519 520
f 517 520 518
f 384 390 387
f 384 387 383
f 383 433 521
f 383 521 519
f 387 520 522
f 387 522 436
f 519 521 522
f 519 522 520
f 383 387 436
f 383 436 433
f 433 327 523
f 433 523 521
f 436 522 524
f 436 524 330
f 521 523 524
f 521 524 522
f 433 436 330
f 433 330 327
f 327 457 525
f 327 525 523
f 330 524 526
f 330 526 460
f 523 525 526
f 523 526 524
f 327 330 460
f 327 460 457
f 457 453 527
f 457 527 525
f 460 526 528
f 460 528 456
f 525 527 528
f 525 528 526
f 457 460 456
f 457 456 453
f 453 449 529
f 453 529 527
f 456 528 530
f 456 530 452
f 527 529 530
f 527 530 528
f 453 456 452
f 453 452 449
f 449 445 531
f 449 531 529
f 452 530 532
f 452 532 448
f 529 531 532
f 529 532 530
f 449 452 448
f 449 448 445
f 445 533 534
f 445 534 531
f 448 532 535
f 448 535 536
f 531 534 535
f 531 535 532
f 445 448 536
f 445 536 533
f 533 491 494
f 533 494 534
f 536 535 496
f 536 496 495
f 534 494 496
f 534 496 535
f 533 536 495
f 533 495 491
