# Botball Lab: metres, +Y up, centred XZ, base Y=0
mtllib metal_015.mtl
s off
v 0.0018000 0.0000000 0.0000000
v 0.0018000 0.0063500 0.0000000
v 0.0017913 0.0063500 0.0001764
v 0.0017913 0.0000000 0.0001764
v 0.0000000 0.0000000 0.0000000
v 0.0000000 0.0063500 0.0000000
v 0.0017654 0.0063500 0.0003512
v 0.0017654 0.0000000 0.0003512
v 0.0017225 0.0063500 0.0005225
v 0.0017225 0.0000000 0.0005225
v 0.0016630 0.0063500 0.0006888
v 0.0016630 0.0000000 0.0006888
v 0.0015875 0.0063500 0.0008485
v 0.0015875 0.0000000 0.0008485
v 0.0014966 0.0063500 0.0010000
v 0.0014966 0.0000000 0.0010000
v 0.0013914 0.0063500 0.0011419
v 0.0013914 0.0000000 0.0011419
v 0.0012728 0.0063500 0.0012728
v 0.0012728 0.0000000 0.0012728
v 0.0011419 0.0063500 0.0013914
v 0.0011419 0.0000000 0.0013914
v 0.0010000 0.0063500 0.0014966
v 0.0010000 0.0000000 0.0014966
v 0.0008485 0.0063500 0.0015875
v 0.0008485 0.0000000 0.0015875
v 0.0006888 0.0063500 0.0016630
v 0.0006888 0.0000000 0.0016630
v 0.0005225 0.0063500 0.0017225
v 0.0005225 0.0000000 0.0017225
v 0.0003512 0.0063500 0.0017654
v 0.0003512 0.0000000 0.0017654
v 0.0001764 0.0063500 0.0017913
v 0.0001764 0.0000000 0.0017913
v 0.0000000 0.0063500 0.0018000
v 0.0000000 0.0000000 0.0018000
v -0.0001764 0.0063500 0.0017913
v -0.0001764 0.0000000 0.0017913
v -0.0003512 0.0063500 0.0017654
v -0.0003512 0.0000000 0.0017654
v -0.0005225 0.0063500 0.0017225
v -0.0005225 0.0000000 0.0017225
v -0.0006888 0.0063500 0.0016630
v -0.0006888 0.0000000 0.0016630
v -0.0008485 0.0063500 0.0015875
v -0.0008485 0.0000000 0.0015875
v -0.0010000 0.0063500 0.0014966
v -0.0010000 0.0000000 0.0014966
v -0.0011419 0.0063500 0.0013914
v -0.0011419 0.0000000 0.0013914
v -0.0012728 0.0063500 0.0012728
v -0.0012728 0.0000000 0.0012728
v -0.0013914 0.0063500 0.0011419
v -0.0013914 0.0000000 0.0011419
v -0.0014966 0.0063500 0.0010000
v -0.0014966 0.0000000 0.0010000
v -0.0015875 0.0063500 0.0008485
v -0.0015875 0.0000000 0.0008485
v -0.0016630 0.0063500 0.0006888
v -0.0016630 0.0000000 0.0006888
v -0.0017225 0.0063500 0.0005225
v -0.0017225 0.0000000 0.0005225
v -0.0017654 0.0063500 0.0003512
v -0.0017654 0.0000000 0.0003512
v -0.0017913 0.0063500 0.0001764
v -0.0017913 0.0000000 0.0001764
v -0.0018000 0.0063500 0.0000000
v -0.0018000 0.0000000 0.0000000
v -0.0017913 0.0063500 -0.0001764
v -0.0017913 0.0000000 -0.0001764
v -0.0017654 0.0063500 -0.0003512
v -0.0017654 0.0000000 -0.0003512
v -0.0017225 0.0063500 -0.0005225
v -0.0017225 0.0000000 -0.0005225
v -0.0016630 0.0063500 -0.0006888
v -0.0016630 0.0000000 -0.0006888
v -0.0015875 0.0063500 -0.0008485
v -0.0015875 0.0000000 -0.0008485
v -0.0014966 0.0063500 -0.0010000
v -0.0014966 0.0000000 -0.0010000
v -0.0013914 0.0063500 -0.0011419
v -0.0013914 0.0000000 -0.0011419
v -0.0012728 0.0063500 -0.0012728
v -0.0012728 0.0000000 -0.0012728
v -0.0011419 0.0063500 -0.0013914
v -0.0011419 0.0000000 -0.0013914
v -0.0010000 0.0063500 -0.0014966
v -0.0010000 0.0000000 -0.0014966
v -0.0008485 0.0063500 -0.0015875
v -0.0008485 0.0000000 -0.0015875
v -0.0006888 0.0063500 -0.0016630
v -0.0006888 0.0000000 -0.0016630
v -0.0005225 0.0063500 -0.0017225
v -0.0005225 0.0000000 -0.0017225
v -0.0003512 0.0063500 -0.0017654
v -0.0003512 0.0000000 -0.0017654
v -0.0001764 0.0063500 -0.0017913
v -0.0001764 0.0000000 -0.0017913
v -0.0000000 0.0063500 -0.0018000
v -0.0000000 0.0000000 -0.0018000
v 0.0001764 0.0063500 -0.0017913
v 0.0001764 0.0000000 -0.0017913
v 0.0003512 0.0063500 -0.0017654
v 0.0003512 0.0000000 -0.0017654
v 0.0005225 0.0063500 -0.0017225
v 0.0005225 0.0000000 -0.0017225
v 0.0006888 0.0063500 -0.0016630
v 0.0006888 0.0000000 -0.0016630
v 0.0008485 0.0063500 -0.0015875
v 0.0008485 0.0000000 -0.0015875
v 0.0010000 0.0063500 -0.0014966
v 0.0010000 0.0000000 -0.0014966
v 0.0011419 0.0063500 -0.0013914
v 0.0011419 0.0000000 -0.0013914
v 0.0012728 0.0063500 -0.0012728
v 0.0012728 0.0000000 -0.0012728
v 0.0013914 0.0063500 -0.0011419
v 0.0013914 0.0000000 -0.0011419
v 0.0014966 0.0063500 -0.0010000
v 0.0014966 0.0000000 -0.0010000
v 0.0015875 0.0063500 -0.0008485
v 0.0015875 0.0000000 -0.0008485
v 0.0016630 0.0063500 -0.0006888
v 0.0016630 0.0000000 -0.0006888
v 0.0017225 0.0063500 -0.0005225
v 0.0017225 0.0000000 -0.0005225
v 0.0017654 0.0063500 -0.0003512
v 0.0017654 0.0000000 -0.0003512
v 0.0017913 0.0063500 -0.0001764
v 0.0017913 0.0000000 -0.0001764
v 0.0015480 0.0000000 0.0000000
v 0.0017802 0.0001984 0.0000000
v 0.0017460 0.0002232 0.0003473
v 0.0015183 0.0000248 0.0003020
v 0.0016447 0.0002480 0.0006813
v 0.0014302 0.0000496 0.0005924
v 0.0014802 0.0002729 0.0009890
v 0.0012871 0.0000744 0.0008600
v 0.0012588 0.0002977 0.0012588
v 0.0010946 0.0000992 0.0010946
v 0.0009890 0.0003225 0.0014802
v 0.0008600 0.0001240 0.0012871
v 0.0006813 0.0003473 0.0016447
v 0.0005924 0.0001488 0.0014302
v 0.0003473 0.0003721 0.0017460
v 0.0003020 0.0001736 0.0015183
v 0.0000000 0.0003969 0.0017802
v 0.0000000 0.0001984 0.0015480
v -0.0003473 0.0004217 0.0017460
v -0.0003020 0.0002232 0.0015183
v -0.0006813 0.0004465 0.0016447
v -0.0005924 0.0002480 0.0014302
v -0.0009890 0.0004713 0.0014802
v -0.0008600 0.0002729 0.0012871
v -0.0012588 0.0004961 0.0012588
v -0.0010946 0.0002977 0.0010946
v -0.0014802 0.0005209 0.0009890
v -0.0012871 0.0003225 0.0008600
v -0.0016447 0.0005457 0.0006813
v -0.0014302 0.0003473 0.0005924
v -0.0017460 0.0005705 0.0003473
v -0.0015183 0.0003721 0.0003020
v -0.0017802 0.0005953 0.0000000
v -0.0015480 0.0003969 0.0000000
v -0.0017460 0.0006201 -0.0003473
v -0.0015183 0.0004217 -0.0003020
v -0.0016447 0.0006449 -0.0006813
v -0.0014302 0.0004465 -0.0005924
v -0.0014802 0.0006697 -0.0009890
v -0.0012871 0.0004713 -0.0008600
v -0.0012588 0.0006945 -0.0012588
v -0.0010946 0.0004961 -0.0010946
v -0.0009890 0.0007193 -0.0014802
v -0.0008600 0.0005209 -0.0012871
v -0.0006813 0.0007441 -0.0016447
v -0.0005924 0.0005457 -0.0014302
v -0.0003473 0.0007689 -0.0017460
v -0.0003020 0.0005705 -0.0015183
v -0.0000000 0.0007937 -0.0017802
v -0.0000000 0.0005953 -0.0015480
v 0.0003473 0.0008186 -0.0017460
v 0.0003020 0.0006201 -0.0015183
v 0.0006813 0.0008434 -0.0016447
v 0.0005924 0.0006449 -0.0014302
v 0.0009890 0.0008682 -0.0014802
v 0.0008600 0.0006697 -0.0012871
v 0.0012588 0.0008930 -0.0012588
v 0.0010946 0.0006945 -0.0010946
v 0.0014802 0.0009178 -0.0009890
v 0.0012871 0.0007193 -0.0008600
v 0.0016447 0.0009426 -0.0006813
v 0.0014302 0.0007441 -0.0005924
v 0.0017460 0.0009674 -0.0003473
v 0.0015183 0.0007689 -0.0003020
v 0.0017802 0.0009922 -0.0000000
v 0.0015480 0.0007937 -0.0000000
v 0.0017460 0.0010170 0.0003473
v 0.0015183 0.0008186 0.0003020
v 0.0016447 0.0010418 0.0006813
v 0.0014302 0.0008434 0.0005924
v 0.0014802 0.0010666 0.0009890
v 0.0012871 0.0008682 0.0008600
v 0.0012588 0.0010914 0.0012588
v 0.0010946 0.0008930 0.0010946
v 0.0009890 0.0011162 0.0014802
v 0.0008600 0.0009178 0.0012871
v 0.0006813 0.0011410 0.0016447
v 0.0005924 0.0009426 0.0014302
v 0.0003473 0.0011658 0.0017460
v 0.0003020 0.0009674 0.0015183
v 0.0000000 0.0011906 0.0017802
v 0.0000000 0.0009922 0.0015480
v -0.0003473 0.0012154 0.0017460
v -0.0003020 0.0010170 0.0015183
v -0.0006813 0.0012402 0.0016447
v -0.0005924 0.0010418 0.0014302
v -0.0009890 0.0012650 0.0014802
v -0.0008600 0.0010666 0.0012871
v -0.0012588 0.0012898 0.0012588
v -0.0010946 0.0010914 0.0010946
v -0.0014802 0.0013146 0.0009890
v -0.0012871 0.0011162 0.0008600
v -0.0016447 0.0013395 0.0006813
v -0.0014302 0.0011410 0.0005924
v -0.0017460 0.0013643 0.0003473
v -0.0015183 0.0011658 0.0003020
v -0.0017802 0.0013891 0.0000000
v -0.0015480 0.0011906 0.0000000
v -0.0017460 0.0014139 -0.0003473
v -0.0015183 0.0012154 -0.0003020
v -0.0016447 0.0014387 -0.0006813
v -0.0014302 0.0012402 -0.0005924
v -0.0014802 0.0014635 -0.0009890
v -0.0012871 0.0012650 -0.0008600
v -0.0012588 0.0014883 -0.0012588
v -0.0010946 0.0012898 -0.0010946
v -0.0009890 0.0015131 -0.0014802
v -0.0008600 0.0013146 -0.0012871
v -0.0006813 0.0015379 -0.0016447
v -0.0005924 0.0013395 -0.0014302
v -0.0003473 0.0015627 -0.0017460
v -0.0003020 0.0013643 -0.0015183
v -0.0000000 0.0015875 -0.0017802
v -0.0000000 0.0013891 -0.0015480
v 0.0003473 0.0016123 -0.0017460
v 0.0003020 0.0014139 -0.0015183
v 0.0006813 0.0016371 -0.0016447
v 0.0005924 0.0014387 -0.0014302
v 0.0009890 0.0016619 -0.0014802
v 0.0008600 0.0014635 -0.0012871
v 0.0012588 0.0016867 -0.0012588
v 0.0010946 0.0014883 -0.0010946
v 0.0014802 0.0017115 -0.0009890
v 0.0012871 0.0015131 -0.0008600
v 0.0016447 0.0017363 -0.0006813
v 0.0014302 0.0015379 -0.0005924
v 0.0017460 0.0017611 -0.0003473
v 0.0015183 0.0015627 -0.0003020
v 0.0017802 0.0017859 -0.0000000
v 0.0015480 0.0015875 -0.0000000
v 0.0017460 0.0018107 0.0003473
v 0.0015183 0.0016123 0.0003020
v 0.0016447 0.0018355 0.0006813
v 0.0014302 0.0016371 0.0005924
v 0.0014802 0.0018604 0.0009890
v 0.0012871 0.0016619 0.0008600
v 0.0012588 0.0018852 0.0012588
v 0.0010946 0.0016867 0.0010946
v 0.0009890 0.0019100 0.0014802
v 0.0008600 0.0017115 0.0012871
v 0.0006813 0.0019348 0.0016447
v 0.0005924 0.0017363 0.0014302
v 0.0003473 0.0019596 0.0017460
v 0.0003020 0.0017611 0.0015183
v 0.0000000 0.0019844 0.0017802
v 0.0000000 0.0017859 0.0015480
v -0.0003473 0.0020092 0.0017460
v -0.0003020 0.0018107 0.0015183
v -0.0006813 0.0020340 0.0016447
v -0.0005924 0.0018355 0.0014302
v -0.0009890 0.0020588 0.0014802
v -0.0008600 0.0018604 0.0012871
v -0.0012588 0.0020836 0.0012588
v -0.0010946 0.0018852 0.0010946
v -0.0014802 0.0021084 0.0009890
v -0.0012871 0.0019100 0.0008600
v -0.0016447 0.0021332 0.0006813
v -0.0014302 0.0019348 0.0005924
v -0.0017460 0.0021580 0.0003473
v -0.0015183 0.0019596 0.0003020
v -0.0017802 0.0021828 0.0000000
v -0.0015480 0.0019844 0.0000000
v -0.0017460 0.0022076 -0.0003473
v -0.0015183 0.0020092 -0.0003020
v -0.0016447 0.0022324 -0.0006813
v -0.0014302 0.0020340 -0.0005924
v -0.0014802 0.0022572 -0.0009890
v -0.0012871 0.0020588 -0.0008600
v -0.0012588 0.0022820 -0.0012588
v -0.0010946 0.0020836 -0.0010946
v -0.0009890 0.0023068 -0.0014802
v -0.0008600 0.0021084 -0.0012871
v -0.0006813 0.0023316 -0.0016447
v -0.0005924 0.0021332 -0.0014302
v -0.0003473 0.0023564 -0.0017460
v -0.0003020 0.0021580 -0.0015183
v -0.0000000 0.0023812 -0.0017802
v -0.0000000 0.0021828 -0.0015480
v 0.0003473 0.0024061 -0.0017460
v 0.0003020 0.0022076 -0.0015183
v 0.0006813 0.0024309 -0.0016447
v 0.0005924 0.0022324 -0.0014302
v 0.0009890 0.0024557 -0.0014802
v 0.0008600 0.0022572 -0.0012871
v 0.0012588 0.0024805 -0.0012588
v 0.0010946 0.0022820 -0.0010946
v 0.0014802 0.0025053 -0.0009890
v 0.0012871 0.0023068 -0.0008600
v 0.0016447 0.0025301 -0.0006813
v 0.0014302 0.0023316 -0.0005924
v 0.0017460 0.0025549 -0.0003473
v 0.0015183 0.0023564 -0.0003020
v 0.0017802 0.0025797 -0.0000000
v 0.0015480 0.0023812 -0.0000000
v 0.0017460 0.0026045 0.0003473
v 0.0015183 0.0024061 0.0003020
v 0.0016447 0.0026293 0.0006813
v 0.0014302 0.0024309 0.0005924
v 0.0014802 0.0026541 0.0009890
v 0.0012871 0.0024557 0.0008600
v 0.0012588 0.0026789 0.0012588
v 0.0010946 0.0024805 0.0010946
v 0.0009890 0.0027037 0.0014802
v 0.0008600 0.0025053 0.0012871
v 0.0006813 0.0027285 0.0016447
v 0.0005924 0.0025301 0.0014302
v 0.0003473 0.0027533 0.0017460
v 0.0003020 0.0025549 0.0015183
v -0.0000000 0.0027781 0.0017802
v -0.0000000 0.0025797 0.0015480
v -0.0003473 0.0028029 0.0017460
v -0.0003020 0.0026045 0.0015183
v -0.0006813 0.0028277 0.0016447
v -0.0005924 0.0026293 0.0014302
v -0.0009890 0.0028525 0.0014802
v -0.0008600 0.0026541 0.0012871
v -0.0012588 0.0028773 0.0012588
v -0.0010946 0.0026789 0.0010946
v -0.0014802 0.0029021 0.0009890
v -0.0012871 0.0027037 0.0008600
v -0.0016447 0.0029270 0.0006813
v -0.0014302 0.0027285 0.0005924
v -0.0017460 0.0029518 0.0003473
v -0.0015183 0.0027533 0.0003020
v -0.0017802 0.0029766 0.0000000
v -0.0015480 0.0027781 0.0000000
v -0.0017460 0.0030014 -0.0003473
v -0.0015183 0.0028029 -0.0003020
v -0.0016447 0.0030262 -0.0006813
v -0.0014302 0.0028277 -0.0005924
v -0.0014802 0.0030510 -0.0009890
v -0.0012871 0.0028525 -0.0008600
v -0.0012588 0.0030758 -0.0012588
v -0.0010946 0.0028773 -0.0010946
v -0.0009890 0.0031006 -0.0014802
v -0.0008600 0.0029021 -0.0012871
v -0.0006813 0.0031254 -0.0016447
v -0.0005924 0.0029270 -0.0014302
v -0.0003473 0.0031502 -0.0017460
v -0.0003020 0.0029518 -0.0015183
v -0.0000000 0.0031750 -0.0017802
v -0.0000000 0.0029766 -0.0015480
v 0.0003473 0.0031998 -0.0017460
v 0.0003020 0.0030014 -0.0015183
v 0.0006813 0.0032246 -0.0016447
v 0.0005924 0.0030262 -0.0014302
v 0.0009890 0.0032494 -0.0014802
v 0.0008600 0.0030510 -0.0012871
v 0.0012588 0.0032742 -0.0012588
v 0.0010946 0.0030758 -0.0010946
v 0.0014802 0.0032990 -0.0009890
v 0.0012871 0.0031006 -0.0008600
v 0.0016447 0.0033238 -0.0006813
v 0.0014302 0.0031254 -0.0005924
v 0.0017460 0.0033486 -0.0003473
v 0.0015183 0.0031502 -0.0003020
v 0.0017802 0.0033734 -0.0000000
v 0.0015480 0.0031750 -0.0000000
v 0.0017460 0.0033982 0.0003473
v 0.0015183 0.0031998 0.0003020
v 0.0016447 0.0034230 0.0006813
v 0.0014302 0.0032246 0.0005924
v 0.0014802 0.0034479 0.0009890
v 0.0012871 0.0032494 0.0008600
v 0.0012588 0.0034727 0.0012588
v 0.0010946 0.0032742 0.0010946
v 0.0009890 0.0034975 0.0014802
v 0.0008600 0.0032990 0.0012871
v 0.0006813 0.0035223 0.0016447
v 0.0005924 0.0033238 0.0014302
v 0.0003473 0.0035471 0.0017460
v 0.0003020 0.0033486 0.0015183
v -0.0000000 0.0035719 0.0017802
v -0.0000000 0.0033734 0.0015480
v -0.0003473 0.0035967 0.0017460
v -0.0003020 0.0033982 0.0015183
v -0.0006813 0.0036215 0.0016447
v -0.0005924 0.0034230 0.0014302
v -0.0009890 0.0036463 0.0014802
v -0.0008600 0.0034479 0.0012871
v -0.0012588 0.0036711 0.0012588
v -0.0010946 0.0034727 0.0010946
v -0.0014802 0.0036959 0.0009890
v -0.0012871 0.0034975 0.0008600
v -0.0016447 0.0037207 0.0006813
v -0.0014302 0.0035223 0.0005924
v -0.0017460 0.0037455 0.0003473
v -0.0015183 0.0035471 0.0003020
v -0.0017802 0.0037703 0.0000000
v -0.0015480 0.0035719 0.0000000
v -0.0017460 0.0037951 -0.0003473
v -0.0015183 0.0035967 -0.0003020
v -0.0016447 0.0038199 -0.0006813
v -0.0014302 0.0036215 -0.0005924
v -0.0014802 0.0038447 -0.0009890
v -0.0012871 0.0036463 -0.0008600
v -0.0012588 0.0038695 -0.0012588
v -0.0010946 0.0036711 -0.0010946
v -0.0009890 0.0038943 -0.0014802
v -0.0008600 0.0036959 -0.0012871
v -0.0006813 0.0039191 -0.0016447
v -0.0005924 0.0037207 -0.0014302
v -0.0003473 0.0039439 -0.0017460
v -0.0003020 0.0037455 -0.0015183
v -0.0000000 0.0039688 -0.0017802
v -0.0000000 0.0037703 -0.0015480
v 0.0003473 0.0039936 -0.0017460
v 0.0003020 0.0037951 -0.0015183
v 0.0006813 0.0040184 -0.0016447
v 0.0005924 0.0038199 -0.0014302
v 0.0009890 0.0040432 -0.0014802
v 0.0008600 0.0038447 -0.0012871
v 0.0012588 0.0040680 -0.0012588
v 0.0010946 0.0038695 -0.0010946
v 0.0014802 0.0040928 -0.0009890
v 0.0012871 0.0038943 -0.0008600
v 0.0016447 0.0041176 -0.0006813
v 0.0014302 0.0039191 -0.0005924
v 0.0017460 0.0041424 -0.0003473
v 0.0015183 0.0039439 -0.0003020
v 0.0017802 0.0041672 -0.0000000
v 0.0015480 0.0039688 -0.0000000
v 0.0017460 0.0041920 0.0003473
v 0.0015183 0.0039936 0.0003020
v 0.0016447 0.0042168 0.0006813
v 0.0014302 0.0040184 0.0005924
v 0.0014802 0.0042416 0.0009890
v 0.0012871 0.0040432 0.0008600
v 0.0012588 0.0042664 0.0012588
v 0.0010946 0.0040680 0.0010946
v 0.0009890 0.0042912 0.0014802
v 0.0008600 0.0040928 0.0012871
v 0.0006813 0.0043160 0.0016447
v 0.0005924 0.0041176 0.0014302
v 0.0003473 0.0043408 0.0017460
v 0.0003020 0.0041424 0.0015183
v -0.0000000 0.0043656 0.0017802
v -0.0000000 0.0041672 0.0015480
v -0.0003473 0.0043904 0.0017460
v -0.0003020 0.0041920 0.0015183
v -0.0006813 0.0044152 0.0016447
v -0.0005924 0.0042168 0.0014302
v -0.0009890 0.0044400 0.0014802
v -0.0008600 0.0042416 0.0012871
v -0.0012588 0.0044648 0.0012588
v -0.0010946 0.0042664 0.0010946
v -0.0014802 0.0044896 0.0009890
v -0.0012871 0.0042912 0.0008600
v -0.0016447 0.0045145 0.0006813
v -0.0014302 0.0043160 0.0005924
v -0.0017460 0.0045393 0.0003473
v -0.0015183 0.0043408 0.0003020
v -0.0017802 0.0045641 0.0000000
v -0.0015480 0.0043656 0.0000000
v -0.0017460 0.0045889 -0.0003473
v -0.0015183 0.0043904 -0.0003020
v -0.0016447 0.0046137 -0.0006813
v -0.0014302 0.0044152 -0.0005924
v -0.0014802 0.0046385 -0.0009890
v -0.0012871 0.0044400 -0.0008600
v -0.0012588 0.0046633 -0.0012588
v -0.0010946 0.0044648 -0.0010946
v -0.0009890 0.0046881 -0.0014802
v -0.0008600 0.0044896 -0.0012871
v -0.0006813 0.0047129 -0.0016447
v -0.0005924 0.0045145 -0.0014302
v -0.0003473 0.0047377 -0.0017460
v -0.0003020 0.0045393 -0.0015183
v -0.0000000 0.0047625 -0.0017802
v -0.0000000 0.0045641 -0.0015480
v 0.0003473 0.0047873 -0.0017460
v 0.0003020 0.0045889 -0.0015183
v 0.0006813 0.0048121 -0.0016447
v 0.0005924 0.0046137 -0.0014302
v 0.0009890 0.0048369 -0.0014802
v 0.0008600 0.0046385 -0.0012871
v 0.0012588 0.0048617 -0.0012588
v 0.0010946 0.0046633 -0.0010946
v 0.0014802 0.0048865 -0.0009890
v 0.0012871 0.0046881 -0.0008600
v 0.0016447 0.0049113 -0.0006813
v 0.0014302 0.0047129 -0.0005924
v 0.0017460 0.0049361 -0.0003473
v 0.0015183 0.0047377 -0.0003020
v 0.0017802 0.0049609 -0.0000000
v 0.0015480 0.0047625 -0.0000000
v 0.0017460 0.0049857 0.0003473
v 0.0015183 0.0047873 0.0003020
v 0.0016447 0.0050105 0.0006813
v 0.0014302 0.0048121 0.0005924
v 0.0014802 0.0050354 0.0009890
v 0.0012871 0.0048369 0.0008600
v 0.0012588 0.0050602 0.0012588
v 0.0010946 0.0048617 0.0010946
v 0.0009890 0.0050850 0.0014802
v 0.0008600 0.0048865 0.0012871
v 0.0006813 0.0051098 0.0016447
v 0.0005924 0.0049113 0.0014302
v 0.0003473 0.0051346 0.0017460
v 0.0003020 0.0049361 0.0015183
v -0.0000000 0.0051594 0.0017802
v -0.0000000 0.0049609 0.0015480
v -0.0003473 0.0051842 0.0017460
v -0.0003020 0.0049857 0.0015183
v -0.0006813 0.0052090 0.0016447
v -0.0005924 0.0050105 0.0014302
v -0.0009890 0.0052338 0.0014802
v -0.0008600 0.0050354 0.0012871
v -0.0012588 0.0052586 0.0012588
v -0.0010946 0.0050602 0.0010946
v -0.0014802 0.0052834 0.0009890
v -0.0012871 0.0050850 0.0008600
v -0.0016447 0.0053082 0.0006813
v -0.0014302 0.0051098 0.0005924
v -0.0017460 0.0053330 0.0003473
v -0.0015183 0.0051346 0.0003020
v -0.0017802 0.0053578 -0.0000000
v -0.0015480 0.0051594 -0.0000000
v -0.0017460 0.0053826 -0.0003473
v -0.0015183 0.0051842 -0.0003020
v -0.0016447 0.0054074 -0.0006813
v -0.0014302 0.0052090 -0.0005924
v -0.0014802 0.0054322 -0.0009890
v -0.0012871 0.0052338 -0.0008600
v -0.0012588 0.0054570 -0.0012588
v -0.0010946 0.0052586 -0.0010946
v -0.0009890 0.0054818 -0.0014802
v -0.0008600 0.0052834 -0.0012871
v -0.0006813 0.0055066 -0.0016447
v -0.0005924 0.0053082 -0.0014302
v -0.0003473 0.0055314 -0.0017460
v -0.0003020 0.0053330 -0.0015183
v -0.0000000 0.0055562 -0.0017802
v -0.0000000 0.0053578 -0.0015480
v 0.0003473 0.0055811 -0.0017460
v 0.0003020 0.0053826 -0.0015183
v 0.0006813 0.0056059 -0.0016447
v 0.0005924 0.0054074 -0.0014302
v 0.0009890 0.0056307 -0.0014802
v 0.0008600 0.0054322 -0.0012871
v 0.0012588 0.0056555 -0.0012588
v 0.0010946 0.0054570 -0.0010946
v 0.0014802 0.0056803 -0.0009890
v 0.0012871 0.0054818 -0.0008600
v 0.0016447 0.0057051 -0.0006813
v 0.0014302 0.0055066 -0.0005924
v 0.0017460 0.0057299 -0.0003473
v 0.0015183 0.0055314 -0.0003020
v 0.0017802 0.0057547 -0.0000000
v 0.0015480 0.0055562 -0.0000000
v 0.0017460 0.0057795 0.0003473
v 0.0015183 0.0055811 0.0003020
v 0.0016447 0.0058043 0.0006813
v 0.0014302 0.0056059 0.0005924
v 0.0014802 0.0058291 0.0009890
v 0.0012871 0.0056307 0.0008600
v 0.0012588 0.0058539 0.0012588
v 0.0010946 0.0056555 0.0010946
v 0.0009890 0.0058787 0.0014802
v 0.0008600 0.0056803 0.0012871
v 0.0006813 0.0059035 0.0016447
v 0.0005924 0.0057051 0.0014302
v 0.0003473 0.0059283 0.0017460
v 0.0003020 0.0057299 0.0015183
v -0.0000000 0.0059531 0.0017802
v -0.0000000 0.0057547 0.0015480
v -0.0003473 0.0059779 0.0017460
v -0.0003020 0.0057795 0.0015183
v -0.0006813 0.0060027 0.0016447
v -0.0005924 0.0058043 0.0014302
v -0.0009890 0.0060275 0.0014802
v -0.0008600 0.0058291 0.0012871
v -0.0012588 0.0060523 0.0012588
v -0.0010946 0.0058539 0.0010946
v -0.0014802 0.0060771 0.0009890
v -0.0012871 0.0058787 0.0008600
v -0.0016447 0.0061020 0.0006813
v -0.0014302 0.0059035 0.0005924
v -0.0017460 0.0061268 0.0003473
v -0.0015183 0.0059283 0.0003020
v -0.0017802 0.0061516 0.0000000
v -0.0015480 0.0059531 0.0000000
v -0.0017460 0.0061764 -0.0003473
v -0.0015183 0.0059779 -0.0003020
v -0.0016447 0.0062012 -0.0006813
v -0.0014302 0.0060027 -0.0005924
v -0.0014802 0.0062260 -0.0009890
v -0.0012871 0.0060275 -0.0008600
v -0.0012588 0.0062508 -0.0012588
v -0.0010946 0.0060523 -0.0010946
v -0.0009890 0.0062756 -0.0014802
v -0.0008600 0.0060771 -0.0012871
v -0.0006813 0.0063004 -0.0016447
v -0.0005924 0.0061020 -0.0014302
v -0.0003473 0.0063252 -0.0017460
v -0.0003020 0.0061268 -0.0015183
v -0.0000000 0.0063500 -0.0017802
v -0.0000000 0.0061516 -0.0015480
v 0.0003473 0.0063748 -0.0017460
v 0.0003020 0.0061764 -0.0015183
v 0.0006813 0.0063996 -0.0016447
v 0.0005924 0.0062012 -0.0014302
v 0.0009890 0.0064244 -0.0014802
v 0.0008600 0.0062260 -0.0012871
v 0.0012588 0.0064492 -0.0012588
v 0.0010946 0.0062508 -0.0010946
v 0.0014802 0.0064740 -0.0009890
v 0.0012871 0.0062756 -0.0008600
v 0.0016447 0.0064988 -0.0006813
v 0.0014302 0.0063004 -0.0005924
v 0.0017460 0.0065236 -0.0003473
v 0.0015183 0.0063252 -0.0003020
v 0.0017802 0.0065484 -0.0000000
v 0.0015480 0.0063500 -0.0000000
v 0.0035000 0.0063500 0.0000000
v 0.0035000 0.0083500 0.0000000
v 0.0034701 0.0083500 0.0004568
v 0.0034701 0.0063500 0.0004568
v 0.0013000 0.0063500 0.0000000
v 0.0012889 0.0063500 0.0001697
v 0.0012889 0.0083500 0.0001697
v 0.0013000 0.0083500 0.0000000
v 0.0033807 0.0083500 0.0009059
v 0.0033807 0.0063500 0.0009059
v 0.0012557 0.0063500 0.0003365
v 0.0012557 0.0083500 0.0003365
v 0.0032336 0.0083500 0.0013394
v 0.0032336 0.0063500 0.0013394
v 0.0012010 0.0063500 0.0004975
v 0.0012010 0.0083500 0.0004975
v 0.0030311 0.0083500 0.0017500
v 0.0030311 0.0063500 0.0017500
v 0.0011258 0.0063500 0.0006500
v 0.0011258 0.0083500 0.0006500
v 0.0027767 0.0083500 0.0021307
v 0.0027767 0.0063500 0.0021307
v 0.0010314 0.0063500 0.0007914
v 0.0010314 0.0083500 0.0007914
v 0.0024749 0.0083500 0.0024749
v 0.0024749 0.0063500 0.0024749
v 0.0009192 0.0063500 0.0009192
v 0.0009192 0.0083500 0.0009192
v 0.0021307 0.0083500 0.0027767
v 0.0021307 0.0063500 0.0027767
v 0.0007914 0.0063500 0.0010314
v 0.0007914 0.0083500 0.0010314
v 0.0017500 0.0083500 0.0030311
v 0.0017500 0.0063500 0.0030311
v 0.0006500 0.0063500 0.0011258
v 0.0006500 0.0083500 0.0011258
v 0.0013394 0.0083500 0.0032336
v 0.0013394 0.0063500 0.0032336
v 0.0004975 0.0063500 0.0012010
v 0.0004975 0.0083500 0.0012010
v 0.0009059 0.0083500 0.0033807
v 0.0009059 0.0063500 0.0033807
v 0.0003365 0.0063500 0.0012557
v 0.0003365 0.0083500 0.0012557
v 0.0004568 0.0083500 0.0034701
v 0.0004568 0.0063500 0.0034701
v 0.0001697 0.0063500 0.0012889
v 0.0001697 0.0083500 0.0012889
v 0.0000000 0.0083500 0.0035000
v 0.0000000 0.0063500 0.0035000
v 0.0000000 0.0063500 0.0013000
v 0.0000000 0.0083500 0.0013000
v -0.0004568 0.0083500 0.0034701
v -0.0004568 0.0063500 0.0034701
v -0.0001697 0.0063500 0.0012889
v -0.0001697 0.0083500 0.0012889
v -0.0009059 0.0083500 0.0033807
v -0.0009059 0.0063500 0.0033807
v -0.0003365 0.0063500 0.0012557
v -0.0003365 0.0083500 0.0012557
v -0.0013394 0.0083500 0.0032336
v -0.0013394 0.0063500 0.0032336
v -0.0004975 0.0063500 0.0012010
v -0.0004975 0.0083500 0.0012010
v -0.0017500 0.0083500 0.0030311
v -0.0017500 0.0063500 0.0030311
v -0.0006500 0.0063500 0.0011258
v -0.0006500 0.0083500 0.0011258
v -0.0021307 0.0083500 0.0027767
v -0.0021307 0.0063500 0.0027767
v -0.0007914 0.0063500 0.0010314
v -0.0007914 0.0083500 0.0010314
v -0.0024749 0.0083500 0.0024749
v -0.0024749 0.0063500 0.0024749
v -0.0009192 0.0063500 0.0009192
v -0.0009192 0.0083500 0.0009192
v -0.0027767 0.0083500 0.0021307
v -0.0027767 0.0063500 0.0021307
v -0.0010314 0.0063500 0.0007914
v -0.0010314 0.0083500 0.0007914
v -0.0030311 0.0083500 0.0017500
v -0.0030311 0.0063500 0.0017500
v -0.0011258 0.0063500 0.0006500
v -0.0011258 0.0083500 0.0006500
v -0.0032336 0.0083500 0.0013394
v -0.0032336 0.0063500 0.0013394
v -0.0012010 0.0063500 0.0004975
v -0.0012010 0.0083500 0.0004975
v -0.0033807 0.0083500 0.0009059
v -0.0033807 0.0063500 0.0009059
v -0.0012557 0.0063500 0.0003365
v -0.0012557 0.0083500 0.0003365
v -0.0034701 0.0083500 0.0004568
v -0.0034701 0.0063500 0.0004568
v -0.0012889 0.0063500 0.0001697
v -0.0012889 0.0083500 0.0001697
v -0.0035000 0.0083500 0.0000000
v -0.0035000 0.0063500 0.0000000
v -0.0013000 0.0063500 0.0000000
v -0.0013000 0.0083500 0.0000000
v -0.0034701 0.0083500 -0.0004568
v -0.0034701 0.0063500 -0.0004568
v -0.0012889 0.0063500 -0.0001697
v -0.0012889 0.0083500 -0.0001697
v -0.0033807 0.0083500 -0.0009059
v -0.0033807 0.0063500 -0.0009059
v -0.0012557 0.0063500 -0.0003365
v -0.0012557 0.0083500 -0.0003365
v -0.0032336 0.0083500 -0.0013394
v -0.0032336 0.0063500 -0.0013394
v -0.0012010 0.0063500 -0.0004975
v -0.0012010 0.0083500 -0.0004975
v -0.0030311 0.0083500 -0.0017500
v -0.0030311 0.0063500 -0.0017500
v -0.0011258 0.0063500 -0.0006500
v -0.0011258 0.0083500 -0.0006500
v -0.0027767 0.0083500 -0.0021307
v -0.0027767 0.0063500 -0.0021307
v -0.0010314 0.0063500 -0.0007914
v -0.0010314 0.0083500 -0.0007914
v -0.0024749 0.0083500 -0.0024749
v -0.0024749 0.0063500 -0.0024749
v -0.0009192 0.0063500 -0.0009192
v -0.0009192 0.0083500 -0.0009192
v -0.0021307 0.0083500 -0.0027767
v -0.0021307 0.0063500 -0.0027767
v -0.0007914 0.0063500 -0.0010314
v -0.0007914 0.0083500 -0.0010314
v -0.0017500 0.0083500 -0.0030311
v -0.0017500 0.0063500 -0.0030311
v -0.0006500 0.0063500 -0.0011258
v -0.0006500 0.0083500 -0.0011258
v -0.0013394 0.0083500 -0.0032336
v -0.0013394 0.0063500 -0.0032336
v -0.0004975 0.0063500 -0.0012010
v -0.0004975 0.0083500 -0.0012010
v -0.0009059 0.0083500 -0.0033807
v -0.0009059 0.0063500 -0.0033807
v -0.0003365 0.0063500 -0.0012557
v -0.0003365 0.0083500 -0.0012557
v -0.0004568 0.0083500 -0.0034701
v -0.0004568 0.0063500 -0.0034701
v -0.0001697 0.0063500 -0.0012889
v -0.0001697 0.0083500 -0.0012889
v -0.0000000 0.0083500 -0.0035000
v -0.0000000 0.0063500 -0.0035000
v -0.0000000 0.0063500 -0.0013000
v -0.0000000 0.0083500 -0.0013000
v 0.0004568 0.0083500 -0.0034701
v 0.0004568 0.0063500 -0.0034701
v 0.0001697 0.0063500 -0.0012889
v 0.0001697 0.0083500 -0.0012889
v 0.0009059 0.0083500 -0.0033807
v 0.0009059 0.0063500 -0.0033807
v 0.0003365 0.0063500 -0.0012557
v 0.0003365 0.0083500 -0.0012557
v 0.0013394 0.0083500 -0.0032336
v 0.0013394 0.0063500 -0.0032336
v 0.0004975 0.0063500 -0.0012010
v 0.0004975 0.0083500 -0.0012010
v 0.0017500 0.0083500 -0.0030311
v 0.0017500 0.0063500 -0.0030311
v 0.0006500 0.0063500 -0.0011258
v 0.0006500 0.0083500 -0.0011258
v 0.0021307 0.0083500 -0.0027767
v 0.0021307 0.0063500 -0.0027767
v 0.0007914 0.0063500 -0.0010314
v 0.0007914 0.0083500 -0.0010314
v 0.0024749 0.0083500 -0.0024749
v 0.0024749 0.0063500 -0.0024749
v 0.0009192 0.0063500 -0.0009192
v 0.0009192 0.0083500 -0.0009192
v 0.0027767 0.0083500 -0.0021307
v 0.0027767 0.0063500 -0.0021307
v 0.0010314 0.0063500 -0.0007914
v 0.0010314 0.0083500 -0.0007914
v 0.0030311 0.0083500 -0.0017500
v 0.0030311 0.0063500 -0.0017500
v 0.0011258 0.0063500 -0.0006500
v 0.0011258 0.0083500 -0.0006500
v 0.0032336 0.0083500 -0.0013394
v 0.0032336 0.0063500 -0.0013394
v 0.0012010 0.0063500 -0.0004975
v 0.0012010 0.0083500 -0.0004975
v 0.0033807 0.0083500 -0.0009059
v 0.0033807 0.0063500 -0.0009059
v 0.0012557 0.0063500 -0.0003365
v 0.0012557 0.0083500 -0.0003365
v 0.0034701 0.0083500 -0.0004568
v 0.0034701 0.0063500 -0.0004568
v 0.0012889 0.0063500 -0.0001697
v 0.0012889 0.0083500 -0.0001697
v 0.0013000 0.0067500 0.0000000
v 0.0012937 0.0067500 0.0001274
v 0.0012937 0.0063500 0.0001274
v 0.0000000 0.0067500 0.0000000
v 0.0012750 0.0067500 0.0002536
v 0.0012750 0.0063500 0.0002536
v 0.0012440 0.0067500 0.0003774
v 0.0012440 0.0063500 0.0003774
v 0.0012010 0.0067500 0.0004975
v 0.0011465 0.0067500 0.0006128
v 0.0011465 0.0063500 0.0006128
v 0.0010809 0.0067500 0.0007222
v 0.0010809 0.0063500 0.0007222
v 0.0010049 0.0067500 0.0008247
v 0.0010049 0.0063500 0.0008247
v 0.0009192 0.0067500 0.0009192
v 0.0008247 0.0067500 0.0010049
v 0.0008247 0.0063500 0.0010049
v 0.0007222 0.0067500 0.0010809
v 0.0007222 0.0063500 0.0010809
v 0.0006128 0.0067500 0.0011465
v 0.0006128 0.0063500 0.0011465
v 0.0004975 0.0067500 0.0012010
v 0.0003774 0.0067500 0.0012440
v 0.0003774 0.0063500 0.0012440
v 0.0002536 0.0067500 0.0012750
v 0.0002536 0.0063500 0.0012750
v 0.0001274 0.0067500 0.0012937
v 0.0001274 0.0063500 0.0012937
v 0.0000000 0.0067500 0.0013000
v -0.0001274 0.0067500 0.0012937
v -0.0001274 0.0063500 0.0012937
v -0.0002536 0.0067500 0.0012750
v -0.0002536 0.0063500 0.0012750
v -0.0003774 0.0067500 0.0012440
v -0.0003774 0.0063500 0.0012440
v -0.0004975 0.0067500 0.0012010
v -0.0006128 0.0067500 0.0011465
v -0.0006128 0.0063500 0.0011465
v -0.0007222 0.0067500 0.0010809
v -0.0007222 0.0063500 0.0010809
v -0.0008247 0.0067500 0.0010049
v -0.0008247 0.0063500 0.0010049
v -0.0009192 0.0067500 0.0009192
v -0.0010049 0.0067500 0.0008247
v -0.0010049 0.0063500 0.0008247
v -0.0010809 0.0067500 0.0007222
v -0.0010809 0.0063500 0.0007222
v -0.0011465 0.0067500 0.0006128
v -0.0011465 0.0063500 0.0006128
v -0.0012010 0.0067500 0.0004975
v -0.0012440 0.0067500 0.0003774
v -0.0012440 0.0063500 0.0003774
v -0.0012750 0.0067500 0.0002536
v -0.0012750 0.0063500 0.0002536
v -0.0012937 0.0067500 0.0001274
v -0.0012937 0.0063500 0.0001274
v -0.0013000 0.0067500 0.0000000
v -0.0012937 0.0067500 -0.0001274
v -0.0012937 0.0063500 -0.0001274
v -0.0012750 0.0067500 -0.0002536
v -0.0012750 0.0063500 -0.0002536
v -0.0012440 0.0067500 -0.0003774
v -0.0012440 0.0063500 -0.0003774
v -0.0012010 0.0067500 -0.0004975
v -0.0011465 0.0067500 -0.0006128
v -0.0011465 0.0063500 -0.0006128
v -0.0010809 0.0067500 -0.0007222
v -0.0010809 0.0063500 -0.0007222
v -0.0010049 0.0067500 -0.0008247
v -0.0010049 0.0063500 -0.0008247
v -0.0009192 0.0067500 -0.0009192
v -0.0008247 0.0067500 -0.0010049
v -0.0008247 0.0063500 -0.0010049
v -0.0007222 0.0067500 -0.0010809
v -0.0007222 0.0063500 -0.0010809
v -0.0006128 0.0067500 -0.0011465
v -0.0006128 0.0063500 -0.0011465
v -0.0004975 0.0067500 -0.0012010
v -0.0003774 0.0067500 -0.0012440
v -0.0003774 0.0063500 -0.0012440
v -0.0002536 0.0067500 -0.0012750
v -0.0002536 0.0063500 -0.0012750
v -0.0001274 0.0067500 -0.0012937
v -0.0001274 0.0063500 -0.0012937
v -0.0000000 0.0067500 -0.0013000
v 0.0001274 0.0067500 -0.0012937
v 0.0001274 0.0063500 -0.0012937
v 0.0002536 0.0067500 -0.0012750
v 0.0002536 0.0063500 -0.0012750
v 0.0003774 0.0067500 -0.0012440
v 0.0003774 0.0063500 -0.0012440
v 0.0004975 0.0067500 -0.0012010
v 0.0006128 0.0067500 -0.0011465
v 0.0006128 0.0063500 -0.0011465
v 0.0007222 0.0067500 -0.0010809
v 0.0007222 0.0063500 -0.0010809
v 0.0008247 0.0067500 -0.0010049
v 0.0008247 0.0063500 -0.0010049
v 0.0009192 0.0067500 -0.0009192
v 0.0010049 0.0067500 -0.0008247
v 0.0010049 0.0063500 -0.0008247
v 0.0010809 0.0067500 -0.0007222
v 0.0010809 0.0063500 -0.0007222
v 0.0011465 0.0067500 -0.0006128
v 0.0011465 0.0063500 -0.0006128
v 0.0012010 0.0067500 -0.0004975
v 0.0012440 0.0067500 -0.0003774
v 0.0012440 0.0063500 -0.0003774
v 0.0012750 0.0067500 -0.0002536
v 0.0012750 0.0063500 -0.0002536
v 0.0012937 0.0067500 -0.0001274
v 0.0012937 0.0063500 -0.0001274
usemtl plastic
vn 0.9998649 0.0 0.0164377
vn 0.9998649 0.0 -0.0164377
vn 0.9966492 0.0 0.0817948
vn 0.9934502 0.0 0.1142657
vn 0.0 1.0 0.0
vn 0.0 -1.0 0.0
vn 0.9838729 0.0 0.1788688
vn 0.9774806 0.0 0.2110255
vn 0.9615738 0.0 0.2745464
vn 0.9520659 0.0 0.305893
vn 0.9300448 0.0 0.3674461
vn 0.9175349 0.0 0.3976552
vn 0.8895006 0.0 0.456934
vn 0.8739612 0.0 0.4859957
vn 0.8403244 0.0 0.5420838
vn 0.8222466 0.0 0.5691314
vn 0.7834057 0.0 0.6215107
vn 0.7626334 0.0 0.646831
vn 0.7186295 0.0 0.6953931
vn 0.6953931 0.0 0.7186295
vn 0.646831 0.0 0.7626334
vn 0.6215107 0.0 0.7834057
vn 0.5691314 0.0 0.8222466
vn 0.5420838 0.0 0.8403244
vn 0.4859957 0.0 0.8739612
vn 0.456934 0.0 0.8895006
vn 0.3976552 0.0 0.9175349
vn 0.3674461 0.0 0.9300448
vn 0.305893 0.0 0.9520659
vn 0.2745464 0.0 0.9615738
vn 0.2110255 0.0 0.9774806
vn 0.1788688 0.0 0.9838729
vn 0.1142657 0.0 0.9934502
vn 0.0817948 0.0 0.9966492
vn 0.0164377 0.0 0.9998649
vn -0.0164377 0.0 0.9998649
vn -0.0817948 0.0 0.9966492
vn -0.1142657 0.0 0.9934502
vn -0.1788688 0.0 0.9838729
vn -0.2110255 0.0 0.9774806
vn -0.2745464 0.0 0.9615738
vn -0.305893 0.0 0.9520659
vn -0.3674461 0.0 0.9300448
vn -0.3976552 0.0 0.9175349
vn -0.456934 0.0 0.8895006
vn -0.4859957 0.0 0.8739612
vn -0.5420838 0.0 0.8403244
vn -0.5691314 0.0 0.8222466
vn -0.6215107 0.0 0.7834057
vn -0.646831 0.0 0.7626334
vn -0.6953931 0.0 0.7186295
vn -0.7186295 0.0 0.6953931
vn -0.7626334 0.0 0.646831
vn -0.7834057 0.0 0.6215107
vn -0.8222466 0.0 0.5691314
vn -0.8403244 0.0 0.5420838
vn -0.8739612 0.0 0.4859957
vn -0.8895006 0.0 0.456934
vn -0.9175349 0.0 0.3976552
vn -0.9300448 0.0 0.3674461
vn -0.9520659 0.0 0.305893
vn -0.9615738 0.0 0.2745464
vn -0.9774806 0.0 0.2110255
vn -0.9838729 0.0 0.1788688
vn -0.9934502 0.0 0.1142657
vn -0.9966492 0.0 0.0817948
vn -0.9998649 0.0 0.0164377
vn -0.9998649 0.0 -0.0164377
vn -0.9966492 0.0 -0.0817948
vn -0.9934502 0.0 -0.1142657
vn -0.9838729 0.0 -0.1788688
vn -0.9774806 0.0 -0.2110255
vn -0.9615738 0.0 -0.2745464
vn -0.9520659 0.0 -0.305893
vn -0.9300448 0.0 -0.3674461
vn -0.9175349 0.0 -0.3976552
vn -0.8895006 0.0 -0.456934
vn -0.8739612 0.0 -0.4859957
vn -0.8403244 0.0 -0.5420838
vn -0.8222466 0.0 -0.5691314
vn -0.7834057 0.0 -0.6215107
vn -0.7626334 0.0 -0.646831
vn -0.7186295 0.0 -0.6953931
vn -0.6953931 0.0 -0.7186295
vn -0.646831 0.0 -0.7626334
vn -0.6215107 0.0 -0.7834057
vn -0.5691314 0.0 -0.8222466
vn -0.5420838 0.0 -0.8403244
vn -0.4859957 0.0 -0.8739612
vn -0.456934 0.0 -0.8895006
vn -0.3976552 0.0 -0.9175349
vn -0.3674461 0.0 -0.9300448
vn -0.305893 0.0 -0.9520659
vn -0.2745464 0.0 -0.9615738
vn -0.2110255 0.0 -0.9774806
vn -0.1788688 0.0 -0.9838729
vn -0.1142657 0.0 -0.9934502
vn -0.0817948 0.0 -0.9966492
vn -0.0164377 0.0 -0.9998649
vn 0.0164377 0.0 -0.9998649
vn 0.0817948 0.0 -0.9966492
vn 0.1142657 0.0 -0.9934502
vn 0.1788688 0.0 -0.9838729
vn 0.2110255 0.0 -0.9774806
vn 0.2745464 0.0 -0.9615738
vn 0.305893 0.0 -0.9520659
vn 0.3674461 0.0 -0.9300448
vn 0.3976552 0.0 -0.9175349
vn 0.456934 0.0 -0.8895006
vn 0.4859957 0.0 -0.8739612
vn 0.5420838 0.0 -0.8403244
vn 0.5691314 0.0 -0.8222466
vn 0.6215107 0.0 -0.7834057
vn 0.646831 0.0 -0.7626334
vn 0.6953931 0.0 -0.7186295
vn 0.7186295 0.0 -0.6953931
vn 0.7626334 0.0 -0.646831
vn 0.7834057 0.0 -0.6215107
vn 0.8222466 0.0 -0.5691314
vn 0.8403244 0.0 -0.5420838
vn 0.8739612 0.0 -0.4859957
vn 0.8895006 0.0 -0.456934
vn 0.9175349 0.0 -0.3976552
vn 0.9300448 0.0 -0.3674461
vn 0.9520659 0.0 -0.305893
vn 0.9615738 0.0 -0.2745464
vn 0.9774806 0.0 -0.2110255
vn 0.9838729 0.0 -0.1788688
vn 0.9934502 0.0 -0.1142657
vn 0.9966492 0.0 -0.0817948
vn 0.6415962 -0.7574383 0.1210025
vn 0.6451089 -0.7550115 0.1174403
vn 0.6316222 -0.7579032 0.1632058
vn 0.6167488 -0.7595591 0.2066177
vn 0.5875804 -0.757914 0.2834001
vn 0.5645105 -0.7595463 0.3231368
vn 0.5210456 -0.7578388 0.3926727
vn 0.4908016 -0.7594586 0.4270086
vn 0.4345801 -0.7577982 0.4867052
vn 0.3980685 -0.7594582 0.5145529
vn 0.3312562 -0.7578042 0.5621407
vn 0.290082 -0.7594544 0.582307
vn 0.2152709 -0.7577798 0.6159774
vn 0.1709211 -0.7594069 0.6277636
vn 0.0909405 -0.7577308 0.6461996
vn 0.045108 -0.7593985 0.6490603
vn -0.0369013 -0.7577543 0.6514957
vn -0.0823534 -0.7594138 0.6453748
vn -0.1632252 -0.7577424 0.6318101
vn -0.2066492 -0.7593981 0.6169365
vn -0.2833864 -0.7577552 0.5877917
vn -0.3231457 -0.759496 0.564573
vn -0.3926294 -0.7578953 0.5209961
vn -0.4269712 -0.7596147 0.4905926
vn -0.4865846 -0.7579591 0.4344346
vn -0.5144224 -0.7596192 0.3979299
vn -0.561994 -0.757965 0.3311371
vn -0.5821519 -0.7596155 0.2899715
vn -0.6158103 -0.7579407 0.2151827
vn -0.62759 -0.7595679 0.1708431
vn -0.6460185 -0.7578917 0.0908866
vn -0.6488748 -0.7595595 0.0450652
vn -0.6513076 -0.7579152 -0.0369189
vn -0.6451845 -0.7595748 -0.0823591
vn -0.6316222 -0.7579032 -0.1632058
vn -0.6167488 -0.7595591 -0.2066177
vn -0.5876112 -0.7579161 -0.2833307
vn -0.5644911 -0.7596028 -0.3230378
vn -0.5209774 -0.7579532 -0.3925423
vn -0.4906402 -0.7596197 -0.4269077
vn -0.4344346 -0.7579591 -0.4865846
vn -0.3979299 -0.7596192 -0.5144224
vn -0.3311371 -0.757965 -0.561994
vn -0.2899715 -0.7596155 -0.5821519
vn -0.2151827 -0.7579407 -0.6158103
vn -0.1708431 -0.7595679 -0.62759
vn -0.0908866 -0.7578917 -0.6460185
vn -0.0450652 -0.7595595 -0.6488748
vn 0.0369948 -0.757913 -0.6513058
vn 0.082443 -0.7595183 -0.6452403
vn 0.1633001 -0.7577888 -0.6317351
vn 0.2066492 -0.7593981 -0.6169365
vn 0.2833864 -0.7577552 -0.5877917
vn 0.3231054 -0.7594418 -0.564669
vn 0.3926323 -0.7577924 -0.5211436
vn 0.4270086 -0.7594586 -0.4908016
vn 0.4867052 -0.7577982 -0.4345801
vn 0.5145529 -0.7594582 -0.3980685
vn 0.5621407 -0.7578042 -0.3312562
vn 0.582307 -0.7594544 -0.290082
vn 0.6159774 -0.7577798 -0.2152709
vn 0.6277636 -0.7594069 -0.1709211
vn 0.6461996 -0.7577308 -0.0909405
vn 0.6490603 -0.7593985 -0.045108
vn 0.6514957 -0.7577543 0.0369013
vn 0.6453015 -0.7594681 0.0824273
vn 0.6316728 -0.7578453 0.163279
vn 0.6167292 -0.7595541 0.2066947
vn 0.5876112 -0.7579161 0.2833307
vn 0.5644911 -0.7596028 0.3230378
vn 0.5209774 -0.7579532 0.3925423
vn 0.4906402 -0.7596197 0.4269077
vn 0.4344346 -0.7579591 0.4865846
vn 0.3979299 -0.7596192 0.5144224
vn 0.3311371 -0.757965 0.561994
vn 0.2899715 -0.7596155 0.5821519
vn 0.2151827 -0.7579407 0.6158103
vn 0.1708431 -0.7595679 0.62759
vn 0.0908866 -0.7578917 0.6460185
vn 0.0450652 -0.7595595 0.6488748
vn -0.0369189 -0.7579152 0.6513076
vn -0.0823591 -0.7595748 0.6451845
vn -0.1632058 -0.7579032 0.6316222
vn -0.2066177 -0.7595591 0.6167488
vn -0.2833307 -0.7579161 0.5876112
vn -0.3230378 -0.7596028 0.5644911
vn -0.3925423 -0.7579532 0.5209774
vn -0.4269077 -0.7596197 0.4906402
vn -0.5620347 -0.7579629 0.3310729
vn -0.582245 -0.7595589 0.2899328
vn -0.6159566 -0.7578262 0.215167
vn -0.6277636 -0.7594069 0.1709211
vn -0.6461996 -0.7577308 0.0909405
vn -0.6490603 -0.7593985 0.045108
vn -0.6514957 -0.7577543 -0.0369013
vn -0.6453748 -0.7594138 -0.0823534
vn -0.6318101 -0.7577424 -0.1632252
vn -0.6169365 -0.7593981 -0.2066492
vn -0.5877917 -0.7577552 -0.2833864
vn -0.564669 -0.7594418 -0.3231054
vn -0.5211436 -0.7577924 -0.3926323
vn -0.4908016 -0.7594586 -0.4270086
vn -0.4345801 -0.7577982 -0.4867052
vn -0.3980685 -0.7594582 -0.5145529
vn -0.3312562 -0.7578042 -0.5621407
vn -0.2899798 -0.7595087 -0.5822871
vn -0.2151499 -0.7578827 -0.6158931
vn -0.1707682 -0.7595629 -0.6276165
vn 0.0369189 -0.7579152 -0.6513076
vn 0.0823591 -0.7595748 -0.6451845
vn 0.1632058 -0.7579032 -0.6316222
vn 0.2066177 -0.7595591 -0.6167488
vn 0.2833307 -0.7579161 -0.5876112
vn 0.3230378 -0.7596028 -0.5644911
vn 0.3925423 -0.7579532 -0.5209774
vn 0.4269077 -0.7596197 -0.4906402
vn 0.4865846 -0.7579591 -0.4344346
vn 0.5144224 -0.7596192 -0.3979299
vn 0.561994 -0.757965 -0.3311371
vn 0.5821519 -0.7596155 -0.2899715
vn 0.6158103 -0.7579407 -0.2151827
vn 0.62759 -0.7595679 -0.1708431
vn 0.6460185 -0.7578917 -0.0908866
vn 0.6488748 -0.7595595 -0.0450652
vn 0.6513076 -0.7579152 0.0369189
vn 0.6451845 -0.7595748 0.0823591
vn -0.0908117 -0.7578895 -0.6460315
vn -0.0449938 -0.759503 -0.6489459
vn 0.0369894 -0.7578007 -0.6514367
vn 0.0823534 -0.7594138 -0.6453748
vn 0.1632252 -0.7577424 -0.6318101
vn 0.6490028 -0.7594527 -0.0450211
vn 0.6513715 -0.7578572 0.0369809
vn 0.6451803 -0.7595698 0.0824384
vn 0.6528811 -0.7574334 -0.0063921
vn 0.6496035 -0.7602718 -0.0014519
vn 0.9997621 0.0 0.0218133
vn 0.9997621 0.0 -0.0218133
vn 0.9940595 0.0 0.1088381
vn 0.9883455 0.0 0.1522271
vn -0.9997624 0.0 -0.021798
vn -0.9883513 0.0 -0.15219
vn -0.9940644 0.0 -0.1087933
vn -0.9997624 0.0 0.021798
vn 0.9713362 0.0 0.23771
vn 0.9600515 0.0 0.2798235
vn -0.9599824 0.0 -0.2800603
vn -0.9713093 0.0 -0.2378196
vn 0.9320403 0.0 0.3623547
vn 0.9153064 0.0 0.4027582
vn -0.9152716 0.0 -0.4028373
vn -0.9319567 0.0 -0.3625695
vn 0.8767221 0.0 0.4809972
vn 0.8548753 0.0 0.5188335
vn -0.8550395 0.0 -0.5185629
vn -0.8768124 0.0 -0.4808326
vn 0.8064653 0.0 0.5912814
vn 0.7799 0.0 0.6259042
vn -0.7797178 0.0 -0.6261311
vn -0.8065049 0.0 -0.5912274
vn 0.7224042 0.0 0.6914711
vn 0.6914711 0.0 0.7224042
vn -0.6916238 0.0 -0.7222579
vn -0.7222579 0.0 -0.6916238
vn 0.6259042 0.0 0.7799
vn 0.5912814 0.0 0.8064653
vn -0.5912274 0.0 -0.8065049
vn -0.6261311 0.0 -0.7797178
vn 0.5188335 0.0 0.8548753
vn 0.4809972 0.0 0.8767221
vn -0.4808326 0.0 -0.8768124
vn -0.5185629 0.0 -0.8550395
vn 0.4027582 0.0 0.9153064
vn 0.3623547 0.0 0.9320403
vn -0.3625695 0.0 -0.9319567
vn -0.4028373 0.0 -0.9152716
vn 0.2798235 0.0 0.9600515
vn 0.23771 0.0 0.9713362
vn -0.2378196 0.0 -0.9713093
vn -0.2800603 0.0 -0.9599824
vn 0.1522271 0.0 0.9883455
vn 0.1088381 0.0 0.9940595
vn -0.1087933 0.0 -0.9940644
vn -0.15219 0.0 -0.9883513
vn 0.0218133 0.0 0.9997621
vn -0.0218133 0.0 0.9997621
vn 0.021798 0.0 -0.9997624
vn -0.021798 0.0 -0.9997624
vn -0.1088381 0.0 0.9940595
vn -0.1522271 0.0 0.9883455
vn 0.15219 0.0 -0.9883513
vn 0.1087933 0.0 -0.9940644
vn -0.23771 0.0 0.9713362
vn -0.2798235 0.0 0.9600515
vn 0.2800603 0.0 -0.9599824
vn 0.2378196 0.0 -0.9713093
vn -0.3623547 0.0 0.9320403
vn -0.4027582 0.0 0.9153064
vn 0.4028373 0.0 -0.9152716
vn 0.3625695 0.0 -0.9319567
vn -0.4809972 0.0 0.8767221
vn -0.5188335 0.0 0.8548753
vn 0.5185629 0.0 -0.8550395
vn 0.4808326 0.0 -0.8768124
vn -0.5912814 0.0 0.8064653
vn -0.6259042 0.0 0.7799
vn 0.6261311 0.0 -0.7797178
vn 0.5912274 0.0 -0.8065049
vn -0.6914711 0.0 0.7224042
vn -0.7224042 0.0 0.6914711
vn 0.7222579 0.0 -0.6916238
vn 0.6916238 0.0 -0.7222579
vn -0.7799 0.0 0.6259042
vn -0.8064653 0.0 0.5912814
vn 0.8065049 0.0 -0.5912274
vn 0.7797178 0.0 -0.6261311
vn -0.8548753 0.0 0.5188335
vn -0.8767221 0.0 0.4809972
vn 0.8768124 0.0 -0.4808326
vn 0.8550395 0.0 -0.5185629
vn -0.9153064 0.0 0.4027582
vn -0.9320403 0.0 0.3623547
vn 0.9319567 0.0 -0.3625695
vn 0.9152716 0.0 -0.4028373
vn -0.9600515 0.0 0.2798235
vn -0.9713362 0.0 0.23771
vn 0.9713093 0.0 -0.2378196
vn 0.9599824 0.0 -0.2800603
vn -0.9883455 0.0 0.1522271
vn -0.9940595 0.0 0.1088381
vn 0.9940644 0.0 -0.1087933
vn 0.9883513 0.0 -0.15219
vn -0.9997621 0.0 0.0218133
vn -0.9997621 0.0 -0.0218133
vn 0.9997624 0.0 0.021798
vn 0.9997624 0.0 -0.021798
vn -0.9940595 0.0 -0.1088381
vn -0.9883455 0.0 -0.1522271
vn 0.9883513 0.0 0.15219
vn 0.9940644 0.0 0.1087933
vn -0.9713362 0.0 -0.23771
vn -0.9600515 0.0 -0.2798235
vn 0.9599824 0.0 0.2800603
vn 0.9713093 0.0 0.2378196
vn -0.9320403 0.0 -0.3623547
vn -0.9153064 0.0 -0.4027582
vn 0.9152716 0.0 0.4028373
vn 0.9319567 0.0 0.3625695
vn -0.8767221 0.0 -0.4809972
vn -0.8548753 0.0 -0.5188335
vn 0.8550395 0.0 0.5185629
vn 0.8768124 0.0 0.4808326
vn -0.8064653 0.0 -0.5912814
vn -0.7799 0.0 -0.6259042
vn 0.7797178 0.0 0.6261311
vn 0.8065049 0.0 0.5912274
vn -0.7224042 0.0 -0.6914711
vn -0.6914711 0.0 -0.7224042
vn 0.6916238 0.0 0.7222579
vn 0.7222579 0.0 0.6916238
vn -0.6259042 0.0 -0.7799
vn -0.5912814 0.0 -0.8064653
vn 0.5912274 0.0 0.8065049
vn 0.6261311 0.0 0.7797178
vn -0.5188335 0.0 -0.8548753
vn -0.4809972 0.0 -0.8767221
vn 0.4808326 0.0 0.8768124
vn 0.5185629 0.0 0.8550395
vn -0.4027582 0.0 -0.9153064
vn -0.3623547 0.0 -0.9320403
vn 0.3625695 0.0 0.9319567
vn 0.4028373 0.0 0.9152716
vn -0.2798235 0.0 -0.9600515
vn -0.23771 0.0 -0.9713362
vn 0.2378196 0.0 0.9713093
vn 0.2800603 0.0 0.9599824
vn -0.1522271 0.0 -0.9883455
vn -0.1088381 0.0 -0.9940595
vn 0.1087933 0.0 0.9940644
vn 0.15219 0.0 0.9883513
vn -0.0218133 0.0 -0.9997621
vn 0.0218133 0.0 -0.9997621
vn -0.021798 0.0 0.9997624
vn 0.021798 0.0 0.9997624
vn 0.1088381 0.0 -0.9940595
vn 0.1522271 0.0 -0.9883455
vn -0.15219 0.0 0.9883513
vn -0.1087933 0.0 0.9940644
vn 0.23771 0.0 -0.9713362
vn 0.2798235 0.0 -0.9600515
vn -0.2800603 0.0 0.9599824
vn -0.2378196 0.0 0.9713093
vn 0.3623547 0.0 -0.9320403
vn 0.4027582 0.0 -0.9153064
vn -0.4028373 0.0 0.9152716
vn -0.3625695 0.0 0.9319567
vn 0.4809972 0.0 -0.8767221
vn 0.5188335 0.0 -0.8548753
vn -0.5185629 0.0 0.8550395
vn -0.4808326 0.0 0.8768124
vn 0.5912814 0.0 -0.8064653
vn 0.6259042 0.0 -0.7799
vn -0.6261311 0.0 0.7797178
vn -0.5912274 0.0 0.8065049
vn 0.6914711 0.0 -0.7224042
vn 0.7224042 0.0 -0.6914711
vn -0.7222579 0.0 0.6916238
vn -0.6916238 0.0 0.7222579
vn 0.7799 0.0 -0.6259042
vn 0.8064653 0.0 -0.5912814
vn -0.8065049 0.0 0.5912274
vn -0.7797178 0.0 0.6261311
vn 0.8548753 0.0 -0.5188335
vn 0.8767221 0.0 -0.4809972
vn -0.8768124 0.0 0.4808326
vn -0.8550395 0.0 0.5185629
vn 0.9153064 0.0 -0.4027582
vn 0.9320403 0.0 -0.3623547
vn -0.9319567 0.0 0.3625695
vn -0.9152716 0.0 0.4028373
vn 0.9600515 0.0 -0.2798235
vn 0.9713362 0.0 -0.23771
vn -0.9713093 0.0 0.2378196
vn -0.9599824 0.0 0.2800603
vn 0.9883455 0.0 -0.1522271
vn 0.9940595 0.0 -0.1088381
vn -0.9940644 0.0 0.1087933
vn -0.9883513 0.0 0.15219
vn 0.9998642 0.0 0.0164813
vn 0.9998642 0.0 -0.0164813
vn 0.9966425 0.0 0.0818764
vn 0.9934455 0.0 0.1143064
vn 0.9838699 0.0 0.1788854
vn 0.9774798 0.0 0.2110289
vn 0.9615634 0.0 0.274583
vn 0.9520286 0.0 0.3060092
vn 0.9300023 0.0 0.3675537
vn 0.917527 0.0 0.3976735
vn 0.8895613 0.0 0.4568159
vn 0.8740585 0.0 0.4858206
vn 0.8404043 0.0 0.54196
vn 0.8222675 0.0 0.5691012
vn 0.7832869 0.0 0.6216604
vn 0.7624231 0.0 0.6470788
vn 0.718522 0.0 0.6955042
vn 0.6955042 0.0 0.718522
vn 0.6470788 0.0 0.7624231
vn 0.6216604 0.0 0.7832869
vn 0.5691012 0.0 0.8222675
vn 0.54196 0.0 0.8404043
vn 0.4858206 0.0 0.8740585
vn 0.4568159 0.0 0.8895613
vn 0.3976735 0.0 0.917527
vn 0.3675537 0.0 0.9300023
vn 0.3060092 0.0 0.9520286
vn 0.274583 0.0 0.9615634
vn 0.2110289 0.0 0.9774798
vn 0.1788854 0.0 0.9838699
vn 0.1143064 0.0 0.9934455
vn 0.0818764 0.0 0.9966425
vn 0.0164813 0.0 0.9998642
vn -0.0164813 0.0 0.9998642
vn -0.0818764 0.0 0.9966425
vn -0.1143064 0.0 0.9934455
vn -0.1788854 0.0 0.9838699
vn -0.2110289 0.0 0.9774798
vn -0.274583 0.0 0.9615634
vn -0.3060092 0.0 0.9520286
vn -0.3675537 0.0 0.9300023
vn -0.3976735 0.0 0.917527
vn -0.4568159 0.0 0.8895613
vn -0.4858206 0.0 0.8740585
vn -0.54196 0.0 0.8404043
vn -0.5691012 0.0 0.8222675
vn -0.6216604 0.0 0.7832869
vn -0.6470788 0.0 0.7624231
vn -0.6955042 0.0 0.718522
vn -0.718522 0.0 0.6955042
vn -0.7624231 0.0 0.6470788
vn -0.7832869 0.0 0.6216604
vn -0.8222675 0.0 0.5691012
vn -0.8404043 0.0 0.54196
vn -0.8740585 0.0 0.4858206
vn -0.8895613 0.0 0.4568159
vn -0.917527 0.0 0.3976735
vn -0.9300023 0.0 0.3675537
vn -0.9520286 0.0 0.3060092
vn -0.9615634 0.0 0.274583
vn -0.9774798 0.0 0.2110289
vn -0.9838699 0.0 0.1788854
vn -0.9934455 0.0 0.1143064
vn -0.9966425 0.0 0.0818764
vn -0.9998642 0.0 0.0164813
vn -0.9998642 0.0 -0.0164813
vn -0.9966425 0.0 -0.0818764
vn -0.9934455 0.0 -0.1143064
vn -0.9838699 0.0 -0.1788854
vn -0.9774798 0.0 -0.2110289
vn -0.9615634 0.0 -0.274583
vn -0.9520286 0.0 -0.3060092
vn -0.9300023 0.0 -0.3675537
vn -0.917527 0.0 -0.3976735
vn -0.8895613 0.0 -0.4568159
vn -0.8740585 0.0 -0.4858206
vn -0.8404043 0.0 -0.54196
vn -0.8222675 0.0 -0.5691012
vn -0.7832869 0.0 -0.6216604
vn -0.7624231 0.0 -0.6470788
vn -0.718522 0.0 -0.6955042
vn -0.6955042 0.0 -0.718522
vn -0.6470788 0.0 -0.7624231
vn -0.6216604 0.0 -0.7832869
vn -0.5691012 0.0 -0.8222675
vn -0.54196 0.0 -0.8404043
vn -0.4858206 0.0 -0.8740585
vn -0.4568159 0.0 -0.8895613
vn -0.3976735 0.0 -0.917527
vn -0.3675537 0.0 -0.9300023
vn -0.3060092 0.0 -0.9520286
vn -0.274583 0.0 -0.9615634
vn -0.2110289 0.0 -0.9774798
vn -0.1788854 0.0 -0.9838699
vn -0.1143064 0.0 -0.9934455
vn -0.0818764 0.0 -0.9966425
vn -0.0164813 0.0 -0.9998642
vn 0.0164813 0.0 -0.9998642
vn 0.0818764 0.0 -0.9966425
vn 0.1143064 0.0 -0.9934455
vn 0.1788854 0.0 -0.9838699
vn 0.2110289 0.0 -0.9774798
vn 0.274583 0.0 -0.9615634
vn 0.3060092 0.0 -0.9520286
vn 0.3675537 0.0 -0.9300023
vn 0.3976735 0.0 -0.917527
vn 0.4568159 0.0 -0.8895613
vn 0.4858206 0.0 -0.8740585
vn 0.54196 0.0 -0.8404043
vn 0.5691012 0.0 -0.8222675
vn 0.6216604 0.0 -0.7832869
vn 0.6470788 0.0 -0.7624231
vn 0.6955042 0.0 -0.718522
vn 0.718522 0.0 -0.6955042
vn 0.7624231 0.0 -0.6470788
vn 0.7832869 0.0 -0.6216604
vn 0.8222675 0.0 -0.5691012
vn 0.8404043 0.0 -0.54196
vn 0.8740585 0.0 -0.4858206
vn 0.8895613 0.0 -0.4568159
vn 0.917527 0.0 -0.3976735
vn 0.9300023 0.0 -0.3675537
vn 0.9520286 0.0 -0.3060092
vn 0.9615634 0.0 -0.274583
vn 0.9774798 0.0 -0.2110289
vn 0.9838699 0.0 -0.1788854
vn 0.9934455 0.0 -0.1143064
vn 0.9966425 0.0 -0.0818764
f 1//1 2//2 3//3
f 1//1 3//3 4//4
f 2//5 6//5 3//5
f 1//6 4//6 5//6
f 4//4 3//3 7//7
f 4//4 7//7 8//8
f 3//5 6//5 7//5
f 4//6 8//6 5//6
f 8//8 7//7 9//9
f 8//8 9//9 10//10
f 7//5 6//5 9//5
f 8//6 10//6 5//6
f 10//10 9//9 11//11
f 10//10 11//11 12//12
f 9//5 6//5 11//5
f 10//6 12//6 5//6
f 12//12 11//11 13//13
f 12//12 13//13 14//14
f 11//5 6//5 13//5
f 12//6 14//6 5//6
f 14//14 13//13 15//15
f 14//14 15//15 16//16
f 13//5 6//5 15//5
f 14//6 16//6 5//6
f 16//16 15//15 17//17
f 16//16 17//17 18//18
f 15//5 6//5 17//5
f 16//6 18//6 5//6
f 18//18 17//17 19//19
f 18//18 19//19 20//20
f 17//5 6//5 19//5
f 18//6 20//6 5//6
f 20//20 19//19 21//21
f 20//20 21//21 22//22
f 19//5 6//5 21//5
f 20//6 22//6 5//6
f 22//22 21//21 23//23
f 22//22 23//23 24//24
f 21//5 6//5 23//5
f 22//6 24//6 5//6
f 24//24 23//23 25//25
f 24//24 25//25 26//26
f 23//5 6//5 25//5
f 24//6 26//6 5//6
f 26//26 25//25 27//27
f 26//26 27//27 28//28
f 25//5 6//5 27//5
f 26//6 28//6 5//6
f 28//28 27//27 29//29
f 28//28 29//29 30//30
f 27//5 6//5 29//5
f 28//6 30//6 5//6
f 30//30 29//29 31//31
f 30//30 31//31 32//32
f 29//5 6//5 31//5
f 30//6 32//6 5//6
f 32//32 31//31 33//33
f 32//32 33//33 34//34
f 31//5 6//5 33//5
f 32//6 34//6 5//6
f 34//34 33//33 35//35
f 34//34 35//35 36//36
f 33//5 6//5 35//5
f 34//6 36//6 5//6
f 36//36 35//35 37//37
f 36//36 37//37 38//38
f 35//5 6//5 37//5
f 36//6 38//6 5//6
f 38//38 37//37 39//39
f 38//38 39//39 40//40
f 37//5 6//5 39//5
f 38//6 40//6 5//6
f 40//40 39//39 41//41
f 40//40 41//41 42//42
f 39//5 6//5 41//5
f 40//6 42//6 5//6
f 42//42 41//41 43//43
f 42//42 43//43 44//44
f 41//5 6//5 43//5
f 42//6 44//6 5//6
f 44//44 43//43 45//45
f 44//44 45//45 46//46
f 43//5 6//5 45//5
f 44//6 46//6 5//6
f 46//46 45//45 47//47
f 46//46 47//47 48//48
f 45//5 6//5 47//5
f 46//6 48//6 5//6
f 48//48 47//47 49//49
f 48//48 49//49 50//50
f 47//5 6//5 49//5
f 48//6 50//6 5//6
f 50//50 49//49 51//51
f 50//50 51//51 52//52
f 49//5 6//5 51//5
f 50//6 52//6 5//6
f 52//52 51//51 53//53
f 52//52 53//53 54//54
f 51//5 6//5 53//5
f 52//6 54//6 5//6
f 54//54 53//53 55//55
f 54//54 55//55 56//56
f 53//5 6//5 55//5
f 54//6 56//6 5//6
f 56//56 55//55 57//57
f 56//56 57//57 58//58
f 55//5 6//5 57//5
f 56//6 58//6 5//6
f 58//58 57//57 59//59
f 58//58 59//59 60//60
f 57//5 6//5 59//5
f 58//6 60//6 5//6
f 60//60 59//59 61//61
f 60//60 61//61 62//62
f 59//5 6//5 61//5
f 60//6 62//6 5//6
f 62//62 61//61 63//63
f 62//62 63//63 64//64
f 61//5 6//5 63//5
f 62//6 64//6 5//6
f 64//64 63//63 65//65
f 64//64 65//65 66//66
f 63//5 6//5 65//5
f 64//6 66//6 5//6
f 66//66 65//65 67//67
f 66//66 67//67 68//68
f 65//5 6//5 67//5
f 66//6 68//6 5//6
f 68//68 67//67 69//69
f 68//68 69//69 70//70
f 67//5 6//5 69//5
f 68//6 70//6 5//6
f 70//70 69//69 71//71
f 70//70 71//71 72//72
f 69//5 6//5 71//5
f 70//6 72//6 5//6
f 72//72 71//71 73//73
f 72//72 73//73 74//74
f 71//5 6//5 73//5
f 72//6 74//6 5//6
f 74//74 73//73 75//75
f 74//74 75//75 76//76
f 73//5 6//5 75//5
f 74//6 76//6 5//6
f 76//76 75//75 77//77
f 76//76 77//77 78//78
f 75//5 6//5 77//5
f 76//6 78//6 5//6
f 78//78 77//77 79//79
f 78//78 79//79 80//80
f 77//5 6//5 79//5
f 78//6 80//6 5//6
f 80//80 79//79 81//81
f 80//80 81//81 82//82
f 79//5 6//5 81//5
f 80//6 82//6 5//6
f 82//82 81//81 83//83
f 82//82 83//83 84//84
f 81//5 6//5 83//5
f 82//6 84//6 5//6
f 84//84 83//83 85//85
f 84//84 85//85 86//86
f 83//5 6//5 85//5
f 84//6 86//6 5//6
f 86//86 85//85 87//87
f 86//86 87//87 88//88
f 85//5 6//5 87//5
f 86//6 88//6 5//6
f 88//88 87//87 89//89
f 88//88 89//89 90//90
f 87//5 6//5 89//5
f 88//6 90//6 5//6
f 90//90 89//89 91//91
f 90//90 91//91 92//92
f 89//5 6//5 91//5
f 90//6 92//6 5//6
f 92//92 91//91 93//93
f 92//92 93//93 94//94
f 91//5 6//5 93//5
f 92//6 94//6 5//6
f 94//94 93//93 95//95
f 94//94 95//95 96//96
f 93//5 6//5 95//5
f 94//6 96//6 5//6
f 96//96 95//95 97//97
f 96//96 97//97 98//98
f 95//5 6//5 97//5
f 96//6 98//6 5//6
f 98//98 97//97 99//99
f 98//98 99//99 100//100
f 97//5 6//5 99//5
f 98//6 100//6 5//6
f 100//100 99//99 101//101
f 100//100 101//101 102//102
f 99//5 6//5 101//5
f 100//6 102//6 5//6
f 102//102 101//101 103//103
f 102//102 103//103 104//104
f 101//5 6//5 103//5
f 102//6 104//6 5//6
f 104//104 103//103 105//105
f 104//104 105//105 106//106
f 103//5 6//5 105//5
f 104//6 106//6 5//6
f 106//106 105//105 107//107
f 106//106 107//107 108//108
f 105//5 6//5 107//5
f 106//6 108//6 5//6
f 108//108 107//107 109//109
f 108//108 109//109 110//110
f 107//5 6//5 109//5
f 108//6 110//6 5//6
f 110//110 109//109 111//111
f 110//110 111//111 112//112
f 109//5 6//5 111//5
f 110//6 112//6 5//6
f 112//112 111//111 113//113
f 112//112 113//113 114//114
f 111//5 6//5 113//5
f 112//6 114//6 5//6
f 114//114 113//113 115//115
f 114//114 115//115 116//116
f 113//5 6//5 115//5
f 114//6 116//6 5//6
f 116//116 115//115 117//117
f 116//116 117//117 118//118
f 115//5 6//5 117//5
f 116//6 118//6 5//6
f 118//118 117//117 119//119
f 118//118 119//119 120//120
f 117//5 6//5 119//5
f 118//6 120//6 5//6
f 120//120 119//119 121//121
f 120//120 121//121 122//122
f 119//5 6//5 121//5
f 120//6 122//6 5//6
f 122//122 121//121 123//123
f 122//122 123//123 124//124
f 121//5 6//5 123//5
f 122//6 124//6 5//6
f 124//124 123//123 125//125
f 124//124 125//125 126//126
f 123//5 6//5 125//5
f 124//6 126//6 5//6
f 126//126 125//125 127//127
f 126//126 127//127 128//128
f 125//5 6//5 127//5
f 126//6 128//6 5//6
f 128//128 127//127 129//129
f 128//128 129//129 130//130
f 127//5 6//5 129//5
f 128//6 130//6 5//6
f 130//130 129//129 2//2
f 130//130 2//2 1//1
f 129//5 6//5 2//5
f 130//6 1//6 5//6
f 131//131 132//132 133//133
f 131//131 133//133 134//134
f 134//134 133//133 135//135
f 134//134 135//135 136//136
f 136//136 135//135 137//137
f 136//136 137//137 138//138
f 138//138 137//137 139//139
f 138//138 139//139 140//140
f 140//140 139//139 141//141
f 140//140 141//141 142//142
f 142//142 141//141 143//143
f 142//142 143//143 144//144
f 144//144 143//143 145//145
f 144//144 145//145 146//146
f 146//146 145//145 147//147
f 146//146 147//147 148//148
f 148//148 147//147 149//149
f 148//148 149//149 150//150
f 150//150 149//149 151//151
f 150//150 151//151 152//152
f 152//152 151//151 153//153
f 152//152 153//153 154//154
f 154//154 153//153 155//155
f 154//154 155//155 156//156
f 156//156 155//155 157//157
f 156//156 157//157 158//158
f 158//158 157//157 159//159
f 158//158 159//159 160//160
f 160//160 159//159 161//161
f 160//160 161//161 162//162
f 162//162 161//161 163//163
f 162//162 163//163 164//164
f 164//164 163//163 165//165
f 164//164 165//165 166//166
f 166//166 165//165 167//167
f 166//166 167//167 168//168
f 168//168 167//167 169//169
f 168//168 169//169 170//170
f 170//170 169//169 171//171
f 170//170 171//171 172//172
f 172//172 171//171 173//173
f 172//172 173//173 174//174
f 174//174 173//173 175//175
f 174//174 175//175 176//176
f 176//176 175//175 177//177
f 176//176 177//177 178//178
f 178//178 177//177 179//179
f 178//178 179//179 180//180
f 180//180 179//179 181//181
f 180//180 181//181 182//182
f 182//182 181//181 183//183
f 182//182 183//183 184//184
f 184//184 183//183 185//185
f 184//184 185//185 186//186
f 186//186 185//185 187//187
f 186//186 187//187 188//188
f 188//188 187//187 189//189
f 188//188 189//189 190//190
f 190//190 189//189 191//191
f 190//190 191//191 192//192
f 192//192 191//191 193//193
f 192//192 193//193 194//194
f 194//194 193//193 195//195
f 194//194 195//195 196//196
f 196//196 195//195 197//197
f 196//196 197//197 198//198
f 198//198 197//197 199//199
f 198//198 199//199 200//200
f 200//200 199//199 201//201
f 200//200 201//201 202//202
f 202//202 201//201 203//203
f 202//202 203//203 204//204
f 204//204 203//203 205//205
f 204//204 205//205 206//206
f 206//206 205//205 207//207
f 206//206 207//207 208//208
f 208//208 207//207 209//209
f 208//208 209//209 210//210
f 210//210 209//209 211//211
f 210//210 211//211 212//212
f 212//212 211//211 213//213
f 212//212 213//213 214//214
f 214//214 213//213 215//215
f 214//214 215//215 216//216
f 216//216 215//215 217//217
f 216//216 217//217 218//218
f 218//218 217//217 219//155
f 218//218 219//155 220//156
f 220//156 219//155 221//219
f 220//156 221//219 222//220
f 222//220 221//219 223//221
f 222//220 223//221 224//222
f 224//222 223//221 225//223
f 224//222 225//223 226//224
f 226//224 225//223 227//225
f 226//224 227//225 228//226
f 228//226 227//225 229//227
f 228//226 229//227 230//228
f 230//228 229//227 231//229
f 230//228 231//229 232//230
f 232//230 231//229 233//231
f 232//230 233//231 234//232
f 234//232 233//231 235//233
f 234//232 235//233 236//234
f 236//234 235//233 237//235
f 236//234 237//235 238//236
f 238//236 237//235 239//237
f 238//236 239//237 240//238
f 240//238 239//237 241//177
f 240//238 241//177 242//178
f 242//178 241//177 243//239
f 242//178 243//239 244//240
f 244//240 243//239 245//241
f 244//240 245//241 246//242
f 246//242 245//241 247//243
f 246//242 247//243 248//244
f 248//244 247//243 249//245
f 248//244 249//245 250//246
f 250//246 249//245 251//247
f 250//246 251//247 252//248
f 252//248 251//247 253//249
f 252//248 253//249 254//250
f 254//250 253//249 255//251
f 254//250 255//251 256//252
f 256//252 255//251 257//253
f 256//252 257//253 258//254
f 258//254 257//253 259//255
f 258//254 259//255 260//256
f 260//256 259//255 261//133
f 260//256 261//133 262//134
f 262//134 261//133 263//135
f 262//134 263//135 264//136
f 264//136 263//135 265//137
f 264//136 265//137 266//138
f 266//138 265//137 267//139
f 266//138 267//139 268//140
f 268//140 267//139 269//141
f 268//140 269//141 270//142
f 270//142 269//141 271//143
f 270//142 271//143 272//144
f 272//144 271//143 273//145
f 272//144 273//145 274//146
f 274//146 273//145 275//147
f 274//146 275//147 276//148
f 276//148 275//147 277//149
f 276//148 277//149 278//150
f 278//150 277//149 279//151
f 278//150 279//151 280//152
f 280//152 279//151 281//153
f 280//152 281//153 282//154
f 282//154 281//153 283//155
f 282//154 283//155 284//156
f 284//156 283//155 285//157
f 284//156 285//157 286//158
f 286//158 285//157 287//159
f 286//158 287//159 288//160
f 288//160 287//159 289//161
f 288//160 289//161 290//162
f 290//162 289//161 291//163
f 290//162 291//163 292//164
f 292//164 291//163 293//165
f 292//164 293//165 294//166
f 294//166 293//165 295//167
f 294//166 295//167 296//168
f 296//168 295//167 297//169
f 296//168 297//169 298//170
f 298//170 297//169 299//171
f 298//170 299//171 300//172
f 300//172 299//171 301//173
f 300//172 301//173 302//174
f 302//174 301//173 303//175
f 302//174 303//175 304//176
f 304//176 303//175 305//177
f 304//176 305//177 306//178
f 306//178 305//177 307//179
f 306//178 307//179 308//180
f 308//180 307//179 309//181
f 308//180 309//181 310//182
f 310//182 309//181 311//183
f 310//182 311//183 312//184
f 312//184 311//183 313//185
f 312//184 313//185 314//186
f 314//186 313//185 315//187
f 314//186 315//187 316//188
f 316//188 315//187 317//189
f 316//188 317//189 318//190
f 318//190 317//189 319//191
f 318//190 319//191 320//192
f 320//192 319//191 321//193
f 320//192 321//193 322//194
f 322//194 321//193 323//195
f 322//194 323//195 324//196
f 324//196 323//195 325//197
f 324//196 325//197 326//198
f 326//198 325//197 327//199
f 326//198 327//199 328//200
f 328//200 327//199 329//201
f 328//200 329//201 330//202
f 330//202 329//201 331//203
f 330//202 331//203 332//204
f 332//204 331//203 333//205
f 332//204 333//205 334//206
f 334//206 333//205 335//207
f 334//206 335//207 336//208
f 336//208 335//207 337//209
f 336//208 337//209 338//210
f 338//210 337//209 339//211
f 338//210 339//211 340//212
f 340//212 339//211 341//213
f 340//212 341//213 342//214
f 342//214 341//213 343//215
f 342//214 343//215 344//216
f 344//216 343//215 345//217
f 344//216 345//217 346//218
f 346//218 345//217 347//155
f 346//218 347//155 348//156
f 348//156 347//155 349//219
f 348//156 349//219 350//220
f 350//220 349//219 351//221
f 350//220 351//221 352//222
f 352//222 351//221 353//223
f 352//222 353//223 354//224
f 354//224 353//223 355//225
f 354//224 355//225 356//226
f 356//226 355//225 357//227
f 356//226 357//227 358//228
f 358//228 357//227 359//229
f 358//228 359//229 360//230
f 360//230 359//229 361//231
f 360//230 361//231 362//232
f 362//232 361//231 363//233
f 362//232 363//233 364//234
f 364//234 363//233 365//235
f 364//234 365//235 366//236
f 366//236 365//235 367//237
f 366//236 367//237 368//238
f 368//238 367//237 369//177
f 368//238 369//177 370//178
f 370//178 369//177 371//239
f 370//178 371//239 372//240
f 372//240 371//239 373//241
f 372//240 373//241 374//242
f 374//242 373//241 375//243
f 374//242 375//243 376//244
f 376//244 375//243 377//245
f 376//244 377//245 378//246
f 378//246 377//245 379//247
f 378//246 379//247 380//248
f 380//248 379//247 381//249
f 380//248 381//249 382//250
f 382//250 381//249 383//251
f 382//250 383//251 384//252
f 384//252 383//251 385//253
f 384//252 385//253 386//254
f 386//254 385//253 387//255
f 386//254 387//255 388//256
f 388//256 387//255 389//133
f 388//256 389//133 390//134
f 390//134 389//133 391//135
f 390//134 391//135 392//136
f 392//136 391//135 393//137
f 392//136 393//137 394//138
f 394//138 393//137 395//139
f 394//138 395//139 396//140
f 396//140 395//139 397//141
f 396//140 397//141 398//142
f 398//142 397//141 399//143
f 398//142 399//143 400//144
f 400//144 399//143 401//145
f 400//144 401//145 402//146
f 402//146 401//145 403//147
f 402//146 403//147 404//148
f 404//148 403//147 405//149
f 404//148 405//149 406//150
f 406//150 405//149 407//151
f 406//150 407//151 408//152
f 408//152 407//151 409//153
f 408//152 409//153 410//154
f 410//154 409//153 411//155
f 410//154 411//155 412//156
f 412//156 411//155 413//157
f 412//156 413//157 414//158
f 414//158 413//157 415//159
f 414//158 415//159 416//160
f 416//160 415//159 417//161
f 416//160 417//161 418//162
f 418//162 417//161 419//163
f 418//162 419//163 420//164
f 420//164 419//163 421//165
f 420//164 421//165 422//166
f 422//166 421//165 423//167
f 422//166 423//167 424//168
f 424//168 423//167 425//169
f 424//168 425//169 426//170
f 426//170 425//169 427//171
f 426//170 427//171 428//172
f 428//172 427//171 429//173
f 428//172 429//173 430//174
f 430//174 429//173 431//175
f 430//174 431//175 432//176
f 432//176 431//175 433//257
f 432//176 433//257 434//258
f 434//258 433//257 435//259
f 434//258 435//259 436//260
f 436//260 435//259 437//261
f 436//260 437//261 438//182
f 438//182 437//261 439//183
f 438//182 439//183 440//184
f 440//184 439//183 441//185
f 440//184 441//185 442//186
f 442//186 441//185 443//187
f 442//186 443//187 444//188
f 444//188 443//187 445//189
f 444//188 445//189 446//190
f 446//190 445//189 447//191
f 446//190 447//191 448//192
f 448//192 447//191 449//193
f 448//192 449//193 450//262
f 450//262 449//193 451//263
f 450//262 451//263 452//264
f 452//264 451//263 453//133
f 452//264 453//133 454//134
f 454//134 453//133 455//199
f 454//134 455//199 456//200
f 456//200 455//199 457//201
f 456//200 457//201 458//202
f 458//202 457//201 459//203
f 458//202 459//203 460//204
f 460//204 459//203 461//205
f 460//204 461//205 462//206
f 462//206 461//205 463//207
f 462//206 463//207 464//208
f 464//208 463//207 465//209
f 464//208 465//209 466//210
f 466//210 465//209 467//211
f 466//210 467//211 468//212
f 468//212 467//211 469//213
f 468//212 469//213 470//214
f 470//214 469//213 471//215
f 470//214 471//215 472//216
f 472//216 471//215 473//217
f 472//216 473//217 474//218
f 474//218 473//217 475//155
f 474//218 475//155 476//156
f 476//156 475//155 477//219
f 476//156 477//219 478//220
f 478//220 477//219 479//221
f 478//220 479//221 480//222
f 480//222 479//221 481//223
f 480//222 481//223 482//224
f 482//224 481//223 483//225
f 482//224 483//225 484//226
f 484//226 483//225 485//227
f 484//226 485//227 486//228
f 486//228 485//227 487//229
f 486//228 487//229 488//230
f 488//230 487//229 489//231
f 488//230 489//231 490//232
f 490//232 489//231 491//233
f 490//232 491//233 492//234
f 492//234 491//233 493//235
f 492//234 493//235 494//236
f 494//236 493//235 495//237
f 494//236 495//237 496//238
f 496//238 495//237 497//177
f 496//238 497//177 498//178
f 498//178 497//177 499//239
f 498//178 499//239 500//240
f 500//240 499//239 501//241
f 500//240 501//241 502//242
f 502//242 501//241 503//243
f 502//242 503//243 504//244
f 504//244 503//243 505//245
f 504//244 505//245 506//246
f 506//246 505//245 507//247
f 506//246 507//247 508//248
f 508//248 507//247 509//249
f 508//248 509//249 510//250
f 510//250 509//249 511//251
f 510//250 511//251 512//252
f 512//252 511//251 513//253
f 512//252 513//253 514//254
f 514//254 513//253 515//255
f 514//254 515//255 516//256
f 516//256 515//255 517//133
f 516//256 517//133 518//134
f 518//134 517//133 519//135
f 518//134 519//135 520//136
f 520//136 519//135 521//137
f 520//136 521//137 522//138
f 522//138 521//137 523//139
f 522//138 523//139 524//140
f 524//140 523//139 525//141
f 524//140 525//141 526//142
f 526//142 525//141 527//143
f 526//142 527//143 528//144
f 528//144 527//143 529//145
f 528//144 529//145 530//146
f 530//146 529//145 531//147
f 530//146 531//147 532//148
f 532//148 531//147 533//149
f 532//148 533//149 534//150
f 534//150 533//149 535//151
f 534//150 535//151 536//152
f 536//152 535//151 537//153
f 536//152 537//153 538//154
f 538//154 537//153 539//155
f 538//154 539//155 540//156
f 540//156 539//155 541//157
f 540//156 541//157 542//158
f 542//158 541//157 543//159
f 542//158 543//159 544//160
f 544//160 543//159 545//161
f 544//160 545//161 546//162
f 546//162 545//161 547//163
f 546//162 547//163 548//164
f 548//164 547//163 549//165
f 548//164 549//165 550//166
f 550//166 549//165 551//167
f 550//166 551//167 552//168
f 552//168 551//167 553//169
f 552//168 553//169 554//170
f 554//170 553//169 555//171
f 554//170 555//171 556//172
f 556//172 555//171 557//173
f 556//172 557//173 558//174
f 558//174 557//173 559//175
f 558//174 559//175 560//176
f 560//176 559//175 561//177
f 560//176 561//177 562//178
f 562//178 561//177 563//179
f 562//178 563//179 564//180
f 564//180 563//179 565//181
f 564//180 565//181 566//182
f 566//182 565//181 567//183
f 566//182 567//183 568//184
f 568//184 567//183 569//185
f 568//184 569//185 570//186
f 570//186 569//185 571//187
f 570//186 571//187 572//188
f 572//188 571//187 573//189
f 572//188 573//189 574//190
f 574//190 573//189 575//191
f 574//190 575//191 576//192
f 576//192 575//191 577//193
f 576//192 577//193 578//194
f 578//194 577//193 579//195
f 578//194 579//195 580//196
f 580//196 579//195 581//197
f 580//196 581//197 582//198
f 582//198 581//197 583//199
f 582//198 583//199 584//200
f 584//200 583//199 585//201
f 584//200 585//201 586//202
f 586//202 585//201 587//203
f 586//202 587//203 588//204
f 588//204 587//203 589//205
f 588//204 589//205 590//206
f 590//206 589//205 591//207
f 590//206 591//207 592//208
f 592//208 591//207 593//209
f 592//208 593//209 594//210
f 594//210 593//209 595//211
f 594//210 595//211 596//212
f 596//212 595//211 597//213
f 596//212 597//213 598//214
f 598//214 597//213 599//215
f 598//214 599//215 600//216
f 600//216 599//215 601//217
f 600//216 601//217 602//218
f 602//218 601//217 603//155
f 602//218 603//155 604//156
f 604//156 603//155 605//219
f 604//156 605//219 606//220
f 606//220 605//219 607//221
f 606//220 607//221 608//222
f 608//222 607//221 609//223
f 608//222 609//223 610//224
f 610//224 609//223 611//225
f 610//224 611//225 612//226
f 612//226 611//225 613//227
f 612//226 613//227 614//228
f 614//228 613//227 615//229
f 614//228 615//229 616//230
f 616//230 615//229 617//231
f 616//230 617//231 618//232
f 618//232 617//231 619//233
f 618//232 619//233 620//234
f 620//234 619//233 621//235
f 620//234 621//235 622//236
f 622//236 621//235 623//237
f 622//236 623//237 624//238
f 624//238 623//237 625//177
f 624//238 625//177 626//178
f 626//178 625//177 627//239
f 626//178 627//239 628//240
f 628//240 627//239 629//241
f 628//240 629//241 630//242
f 630//242 629//241 631//243
f 630//242 631//243 632//244
f 632//244 631//243 633//245
f 632//244 633//245 634//246
f 634//246 633//245 635//247
f 634//246 635//247 636//248
f 636//248 635//247 637//249
f 636//248 637//249 638//250
f 638//250 637//249 639//251
f 638//250 639//251 640//252
f 640//252 639//251 641//253
f 640//252 641//253 642//254
f 642//254 641//253 643//265
f 642//254 643//265 644//266
f 645//267 646//268 647//269
f 645//267 647//269 648//270
f 649//271 650//272 651//273
f 649//271 651//273 652//274
f 646//5 652//5 651//5
f 646//5 651//5 647//5
f 645//6 648//6 650//6
f 645//6 650//6 649//6
f 648//270 647//269 653//275
f 648//270 653//275 654//276
f 650//272 655//277 656//278
f 650//272 656//278 651//273
f 647//5 651//5 656//5
f 647//5 656//5 653//5
f 648//6 654//6 655//6
f 648//6 655//6 650//6
f 654//276 653//275 657//279
f 654//276 657//279 658//280
f 655//277 659//281 660//282
f 655//277 660//282 656//278
f 653//5 656//5 660//5
f 653//5 660//5 657//5
f 654//6 658//6 659//6
f 654//6 659//6 655//6
f 658//280 657//279 661//283
f 658//280 661//283 662//284
f 659//281 663//285 664//286
f 659//281 664//286 660//282
f 657//5 660//5 664//5
f 657//5 664//5 661//5
f 658//6 662//6 663//6
f 658//6 663//6 659//6
f 662//284 661//283 665//287
f 662//284 665//287 666//288
f 663//285 667//289 668//290
f 663//285 668//290 664//286
f 661//5 664//5 668//5
f 661//5 668//5 665//5
f 662//6 666//6 667//6
f 662//6 667//6 663//6
f 666//288 665//287 669//291
f 666//288 669//291 670//292
f 667//289 671//293 672//294
f 667//289 672//294 668//290
f 665//5 668//5 672//5
f 665//5 672//5 669//5
f 666//6 670//6 671//6
f 666//6 671//6 667//6
f 670//292 669//291 673//295
f 670//292 673//295 674//296
f 671//293 675//297 676//298
f 671//293 676//298 672//294
f 669//5 672//5 676//5
f 669//5 676//5 673//5
f 670//6 674//6 675//6
f 670//6 675//6 671//6
f 674//296 673//295 677//299
f 674//296 677//299 678//300
f 675//297 679//301 680//302
f 675//297 680//302 676//298
f 673//5 676//5 680//5
f 673//5 680//5 677//5
f 674//6 678//6 679//6
f 674//6 679//6 675//6
f 678//300 677//299 681//303
f 678//300 681//303 682//304
f 679//301 683//305 684//306
f 679//301 684//306 680//302
f 677//5 680//5 684//5
f 677//5 684//5 681//5
f 678//6 682//6 683//6
f 678//6 683//6 679//6
f 682//304 681//303 685//307
f 682//304 685//307 686//308
f 683//305 687//309 688//310
f 683//305 688//310 684//306
f 681//5 684//5 688//5
f 681//5 688//5 685//5
f 682//6 686//6 687//6
f 682//6 687//6 683//6
f 686//308 685//307 689//311
f 686//308 689//311 690//312
f 687//309 691//313 692//314
f 687//309 692//314 688//310
f 685//5 688//5 692//5
f 685//5 692//5 689//5
f 686//6 690//6 691//6
f 686//6 691//6 687//6
f 690//312 689//311 693//315
f 690//312 693//315 694//316
f 691//313 695//317 696//318
f 691//313 696//318 692//314
f 689//5 692//5 696//5
f 689//5 696//5 693//5
f 690//6 694//6 695//6
f 690//6 695//6 691//6
f 694//316 693//315 697//319
f 694//316 697//319 698//320
f 695//317 699//321 700//322
f 695//317 700//322 696//318
f 693//5 696//5 700//5
f 693//5 700//5 697//5
f 694//6 698//6 699//6
f 694//6 699//6 695//6
f 698//320 697//319 701//323
f 698//320 701//323 702//324
f 699//321 703//325 704//326
f 699//321 704//326 700//322
f 697//5 700//5 704//5
f 697//5 704//5 701//5
f 698//6 702//6 703//6
f 698//6 703//6 699//6
f 702//324 701//323 705//327
f 702//324 705//327 706//328
f 703//325 707//329 708//330
f 703//325 708//330 704//326
f 701//5 704//5 708//5
f 701//5 708//5 705//5
f 702//6 706//6 707//6
f 702//6 707//6 703//6
f 706//328 705//327 709//331
f 706//328 709//331 710//332
f 707//329 711//333 712//334
f 707//329 712//334 708//330
f 705//5 708//5 712//5
f 705//5 712//5 709//5
f 706//6 710//6 711//6
f 706//6 711//6 707//6
f 710//332 709//331 713//335
f 710//332 713//335 714//336
f 711//333 715//337 716//338
f 711//333 716//338 712//334
f 709//5 712//5 716//5
f 709//5 716//5 713//5
f 710//6 714//6 715//6
f 710//6 715//6 711//6
f 714//336 713//335 717//339
f 714//336 717//339 718//340
f 715//337 719//341 720//342
f 715//337 720//342 716//338
f 713//5 716//5 720//5
f 713//5 720//5 717//5
f 714//6 718//6 719//6
f 714//6 719//6 715//6
f 718//340 717//339 721//343
f 718//340 721//343 722//344
f 719//341 723//345 724//346
f 719//341 724//346 720//342
f 717//5 720//5 724//5
f 717//5 724//5 721//5
f 718//6 722//6 723//6
f 718//6 723//6 719//6
f 722//344 721//343 725//347
f 722//344 725//347 726//348
f 723//345 727//349 728//350
f 723//345 728//350 724//346
f 721//5 724//5 728//5
f 721//5 728//5 725//5
f 722//6 726//6 727//6
f 722//6 727//6 723//6
f 726//348 725//347 729//351
f 726//348 729//351 730//352
f 727//349 731//353 732//354
f 727//349 732//354 728//350
f 725//5 728//5 732//5
f 725//5 732//5 729//5
f 726//6 730//6 731//6
f 726//6 731//6 727//6
f 730//352 729//351 733//355
f 730//352 733//355 734//356
f 731//353 735//357 736//358
f 731//353 736//358 732//354
f 729//5 732//5 736//5
f 729//5 736//5 733//5
f 730//6 734//6 735//6
f 730//6 735//6 731//6
f 734//356 733//355 737//359
f 734//356 737//359 738//360
f 735//357 739//361 740//362
f 735//357 740//362 736//358
f 733//5 736//5 740//5
f 733//5 740//5 737//5
f 734//6 738//6 739//6
f 734//6 739//6 735//6
f 738//360 737//359 741//363
f 738//360 741//363 742//364
f 739//361 743//365 744//366
f 739//361 744//366 740//362
f 737//5 740//5 744//5
f 737//5 744//5 741//5
f 738//6 742//6 743//6
f 738//6 743//6 739//6
f 742//364 741//363 745//367
f 742//364 745//367 746//368
f 743//365 747//369 748//370
f 743//365 748//370 744//366
f 741//5 744//5 748//5
f 741//5 748//5 745//5
f 742//6 746//6 747//6
f 742//6 747//6 743//6
f 746//368 745//367 749//371
f 746//368 749//371 750//372
f 747//369 751//373 752//374
f 747//369 752//374 748//370
f 745//5 748//5 752//5
f 745//5 752//5 749//5
f 746//6 750//6 751//6
f 746//6 751//6 747//6
f 750//372 749//371 753//375
f 750//372 753//375 754//376
f 751//373 755//377 756//378
f 751//373 756//378 752//374
f 749//5 752//5 756//5
f 749//5 756//5 753//5
f 750//6 754//6 755//6
f 750//6 755//6 751//6
f 754//376 753//375 757//379
f 754//376 757//379 758//380
f 755//377 759//381 760//382
f 755//377 760//382 756//378
f 753//5 756//5 760//5
f 753//5 760//5 757//5
f 754//6 758//6 759//6
f 754//6 759//6 755//6
f 758//380 757//379 761//383
f 758//380 761//383 762//384
f 759//381 763//385 764//386
f 759//381 764//386 760//382
f 757//5 760//5 764//5
f 757//5 764//5 761//5
f 758//6 762//6 763//6
f 758//6 763//6 759//6
f 762//384 761//383 765//387
f 762//384 765//387 766//388
f 763//385 767//389 768//390
f 763//385 768//390 764//386
f 761//5 764//5 768//5
f 761//5 768//5 765//5
f 762//6 766//6 767//6
f 762//6 767//6 763//6
f 766//388 765//387 769//391
f 766//388 769//391 770//392
f 767//389 771//393 772//394
f 767//389 772//394 768//390
f 765//5 768//5 772//5
f 765//5 772//5 769//5
f 766//6 770//6 771//6
f 766//6 771//6 767//6
f 770//392 769//391 773//395
f 770//392 773//395 774//396
f 771//393 775//397 776//398
f 771//393 776//398 772//394
f 769//5 772//5 776//5
f 769//5 776//5 773//5
f 770//6 774//6 775//6
f 770//6 775//6 771//6
f 774//396 773//395 777//399
f 774//396 777//399 778//400
f 775//397 779//401 780//402
f 775//397 780//402 776//398
f 773//5 776//5 780//5
f 773//5 780//5 777//5
f 774//6 778//6 779//6
f 774//6 779//6 775//6
f 778//400 777//399 781//403
f 778//400 781//403 782//404
f 779//401 783//405 784//406
f 779//401 784//406 780//402
f 777//5 780//5 784//5
f 777//5 784//5 781//5
f 778//6 782//6 783//6
f 778//6 783//6 779//6
f 782//404 781//403 785//407
f 782//404 785//407 786//408
f 783//405 787//409 788//410
f 783//405 788//410 784//406
f 781//5 784//5 788//5
f 781//5 788//5 785//5
f 782//6 786//6 787//6
f 782//6 787//6 783//6
f 786//408 785//407 789//411
f 786//408 789//411 790//412
f 787//409 791//413 792//414
f 787//409 792//414 788//410
f 785//5 788//5 792//5
f 785//5 792//5 789//5
f 786//6 790//6 791//6
f 786//6 791//6 787//6
f 790//412 789//411 793//415
f 790//412 793//415 794//416
f 791//413 795//417 796//418
f 791//413 796//418 792//414
f 789//5 792//5 796//5
f 789//5 796//5 793//5
f 790//6 794//6 795//6
f 790//6 795//6 791//6
f 794//416 793//415 797//419
f 794//416 797//419 798//420
f 795//417 799//421 800//422
f 795//417 800//422 796//418
f 793//5 796//5 800//5
f 793//5 800//5 797//5
f 794//6 798//6 799//6
f 794//6 799//6 795//6
f 798//420 797//419 801//423
f 798//420 801//423 802//424
f 799//421 803//425 804//426
f 799//421 804//426 800//422
f 797//5 800//5 804//5
f 797//5 804//5 801//5
f 798//6 802//6 803//6
f 798//6 803//6 799//6
f 802//424 801//423 805//427
f 802//424 805//427 806//428
f 803//425 807//429 808//430
f 803//425 808//430 804//426
f 801//5 804//5 808//5
f 801//5 808//5 805//5
f 802//6 806//6 807//6
f 802//6 807//6 803//6
f 806//428 805//427 809//431
f 806//428 809//431 810//432
f 807//429 811//433 812//434
f 807//429 812//434 808//430
f 805//5 808//5 812//5
f 805//5 812//5 809//5
f 806//6 810//6 811//6
f 806//6 811//6 807//6
f 810//432 809//431 813//435
f 810//432 813//435 814//436
f 811//433 815//437 816//438
f 811//433 816//438 812//434
f 809//5 812//5 816//5
f 809//5 816//5 813//5
f 810//6 814//6 815//6
f 810//6 815//6 811//6
f 814//436 813//435 817//439
f 814//436 817//439 818//440
f 815//437 819//441 820//442
f 815//437 820//442 816//438
f 813//5 816//5 820//5
f 813//5 820//5 817//5
f 814//6 818//6 819//6
f 814//6 819//6 815//6
f 818//440 817//439 821//443
f 818//440 821//443 822//444
f 819//441 823//445 824//446
f 819//441 824//446 820//442
f 817//5 820//5 824//5
f 817//5 824//5 821//5
f 818//6 822//6 823//6
f 818//6 823//6 819//6
f 822//444 821//443 825//447
f 822//444 825//447 826//448
f 823//445 827//449 828//450
f 823//445 828//450 824//446
f 821//5 824//5 828//5
f 821//5 828//5 825//5
f 822//6 826//6 827//6
f 822//6 827//6 823//6
f 826//448 825//447 829//451
f 826//448 829//451 830//452
f 827//449 831//453 832//454
f 827//449 832//454 828//450
f 825//5 828//5 832//5
f 825//5 832//5 829//5
f 826//6 830//6 831//6
f 826//6 831//6 827//6
f 830//452 829//451 833//455
f 830//452 833//455 834//456
f 831//453 835//457 836//458
f 831//453 836//458 832//454
f 829//5 832//5 836//5
f 829//5 836//5 833//5
f 830//6 834//6 835//6
f 830//6 835//6 831//6
f 834//456 833//455 646//268
f 834//456 646//268 645//267
f 835//457 649//271 652//274
f 835//457 652//274 836//458
f 833//5 836//5 652//5
f 833//5 652//5 646//5
f 834//6 645//6 649//6
f 834//6 649//6 835//6
f 649//459 837//460 838//461
f 649//459 838//461 839//462
f 837//5 840//5 838//5
f 649//6 839//6 6//6
f 839//462 838//461 841//463
f 839//462 841//463 842//464
f 838//5 840//5 841//5
f 839//6 842//6 6//6
f 842//464 841//463 843//465
f 842//464 843//465 844//466
f 841//5 840//5 843//5
f 842//6 844//6 6//6
f 844//466 843//465 845//467
f 844//466 845//467 659//468
f 843//5 840//5 845//5
f 844//6 659//6 6//6
f 659//468 845//467 846//469
f 659//468 846//469 847//470
f 845//5 840//5 846//5
f 659//6 847//6 6//6
f 847//470 846//469 848//471
f 847//470 848//471 849//472
f 846//5 840//5 848//5
f 847//6 849//6 6//6
f 849//472 848//471 850//473
f 849//472 850//473 851//474
f 848//5 840//5 850//5
f 849//6 851//6 6//6
f 851//474 850//473 852//475
f 851//474 852//475 671//476
f 850//5 840//5 852//5
f 851//6 671//6 6//6
f 671//476 852//475 853//477
f 671//476 853//477 854//478
f 852//5 840//5 853//5
f 671//6 854//6 6//6
f 854//478 853//477 855//479
f 854//478 855//479 856//480
f 853//5 840//5 855//5
f 854//6 856//6 6//6
f 856//480 855//479 857//481
f 856//480 857//481 858//482
f 855//5 840//5 857//5
f 856//6 858//6 6//6
f 858//482 857//481 859//483
f 858//482 859//483 683//484
f 857//5 840//5 859//5
f 858//6 683//6 6//6
f 683//484 859//483 860//485
f 683//484 860//485 861//486
f 859//5 840//5 860//5
f 683//6 861//6 6//6
f 861//486 860//485 862//487
f 861//486 862//487 863//488
f 860//5 840//5 862//5
f 861//6 863//6 6//6
f 863//488 862//487 864//489
f 863//488 864//489 865//490
f 862//5 840//5 864//5
f 863//6 865//6 6//6
f 865//490 864//489 866//491
f 865//490 866//491 695//492
f 864//5 840//5 866//5
f 865//6 695//6 6//6
f 695//492 866//491 867//493
f 695//492 867//493 868//494
f 866//5 840//5 867//5
f 695//6 868//6 6//6
f 868//494 867//493 869//495
f 868//494 869//495 870//496
f 867//5 840//5 869//5
f 868//6 870//6 6//6
f 870//496 869//495 871//497
f 870//496 871//497 872//498
f 869//5 840//5 871//5
f 870//6 872//6 6//6
f 872//498 871//497 873//499
f 872//498 873//499 707//500
f 871//5 840//5 873//5
f 872//6 707//6 6//6
f 707//500 873//499 874//501
f 707//500 874//501 875//502
f 873//5 840//5 874//5
f 707//6 875//6 6//6
f 875//502 874//501 876//503
f 875//502 876//503 877//504
f 874//5 840//5 876//5
f 875//6 877//6 6//6
f 877//504 876//503 878//505
f 877//504 878//505 879//506
f 876//5 840//5 878//5
f 877//6 879//6 6//6
f 879//506 878//505 880//507
f 879//506 880//507 719//508
f 878//5 840//5 880//5
f 879//6 719//6 6//6
f 719//508 880//507 881//509
f 719//508 881//509 882//510
f 880//5 840//5 881//5
f 719//6 882//6 6//6
f 882//510 881//509 883//511
f 882//510 883//511 884//512
f 881//5 840//5 883//5
f 882//6 884//6 6//6
f 884//512 883//511 885//513
f 884//512 885//513 886//514
f 883//5 840//5 885//5
f 884//6 886//6 6//6
f 886//514 885//513 887//515
f 886//514 887//515 731//516
f 885//5 840//5 887//5
f 886//6 731//6 6//6
f 731//516 887//515 888//517
f 731//516 888//517 889//518
f 887//5 840//5 888//5
f 731//6 889//6 6//6
f 889//518 888//517 890//519
f 889//518 890//519 891//520
f 888//5 840//5 890//5
f 889//6 891//6 6//6
f 891//520 890//519 892//521
f 891//520 892//521 893//522
f 890//5 840//5 892//5
f 891//6 893//6 6//6
f 893//522 892//521 894//523
f 893//522 894//523 743//524
f 892//5 840//5 894//5
f 893//6 743//6 6//6
f 743//524 894//523 895//525
f 743//524 895//525 896//526
f 894//5 840//5 895//5
f 743//6 896//6 6//6
f 896//526 895//525 897//527
f 896//526 897//527 898//528
f 895//5 840//5 897//5
f 896//6 898//6 6//6
f 898//528 897//527 899//529
f 898//528 899//529 900//530
f 897//5 840//5 899//5
f 898//6 900//6 6//6
f 900//530 899//529 901//531
f 900//530 901//531 755//532
f 899//5 840//5 901//5
f 900//6 755//6 6//6
f 755//532 901//531 902//533
f 755//532 902//533 903//534
f 901//5 840//5 902//5
f 755//6 903//6 6//6
f 903//534 902//533 904//535
f 903//534 904//535 905//536
f 902//5 840//5 904//5
f 903//6 905//6 6//6
f 905//536 904//535 906//537
f 905//536 906//537 907//538
f 904//5 840//5 906//5
f 905//6 907//6 6//6
f 907//538 906//537 908//539
f 907//538 908//539 767//540
f 906//5 840//5 908//5
f 907//6 767//6 6//6
f 767//540 908//539 909//541
f 767//540 909//541 910//542
f 908//5 840//5 909//5
f 767//6 910//6 6//6
f 910//542 909//541 911//543
f 910//542 911//543 912//544
f 909//5 840//5 911//5
f 910//6 912//6 6//6
f 912//544 911//543 913//545
f 912//544 913//545 914//546
f 911//5 840//5 913//5
f 912//6 914//6 6//6
f 914//546 913//545 915//547
f 914//546 915//547 779//548
f 913//5 840//5 915//5
f 914//6 779//6 6//6
f 779//548 915//547 916//549
f 779//548 916//549 917//550
f 915//5 840//5 916//5
f 779//6 917//6 6//6
f 917//550 916//549 918//551
f 917//550 918//551 919//552
f 916//5 840//5 918//5
f 917//6 919//6 6//6
f 919//552 918//551 920//553
f 919//552 920//553 921//554
f 918//5 840//5 920//5
f 919//6 921//6 6//6
f 921//554 920//553 922//555
f 921//554 922//555 791//556
f 920//5 840//5 922//5
f 921//6 791//6 6//6
f 791//556 922//555 923//557
f 791//556 923//557 924//558
f 922//5 840//5 923//5
f 791//6 924//6 6//6
f 924//558 923//557 925//559
f 924//558 925//559 926//560
f 923//5 840//5 925//5
f 924//6 926//6 6//6
f 926//560 925//559 927//561
f 926//560 927//561 928//562
f 925//5 840//5 927//5
f 926//6 928//6 6//6
f 928//562 927//561 929//563
f 928//562 929//563 803//564
f 927//5 840//5 929//5
f 928//6 803//6 6//6
f 803//564 929//563 930//565
f 803//564 930//565 931//566
f 929//5 840//5 930//5
f 803//6 931//6 6//6
f 931//566 930//565 932//567
f 931//566 932//567 933//568
f 930//5 840//5 932//5
f 931//6 933//6 6//6
f 933//568 932//567 934//569
f 933//568 934//569 935//570
f 932//5 840//5 934//5
f 933//6 935//6 6//6
f 935//570 934//569 936//571
f 935//570 936//571 815//572
f 934//5 840//5 936//5
f 935//6 815//6 6//6
f 815//572 936//571 937//573
f 815//572 937//573 938//574
f 936//5 840//5 937//5
f 815//6 938//6 6//6
f 938//574 937//573 939//575
f 938//574 939//575 940//576
f 937//5 840//5 939//5
f 938//6 940//6 6//6
f 940//576 939//575 941//577
f 940//576 941//577 942//578
f 939//5 840//5 941//5
f 940//6 942//6 6//6
f 942//578 941//577 943//579
f 942//578 943//579 827//580
f 941//5 840//5 943//5
f 942//6 827//6 6//6
f 827//580 943//579 944//581
f 827//580 944//581 945//582
f 943//5 840//5 944//5
f 827//6 945//6 6//6
f 945//582 944//581 946//583
f 945//582 946//583 947//584
f 944//5 840//5 946//5
f 945//6 947//6 6//6
f 947//584 946//583 948//585
f 947//584 948//585 949//586
f 946//5 840//5 948//5
f 947//6 949//6 6//6
f 949//586 948//585 837//460
f 949//586 837//460 649//459
f 948//5 840//5 837//5
f 949//6 649//6 6//6
