# Botball Lab: metres, +Y up, centred XZ, base Y=0
s off
v 0.0045000 0.0000000 0.0000000
v 0.0045000 0.0020000 0.0000000
v 0.0044135 0.0020000 0.0008779
v 0.0044135 0.0000000 0.0008779
v 0.0018000 0.0000000 0.0000000
v 0.0017654 0.0000000 0.0003512
v 0.0017654 0.0020000 0.0003512
v 0.0018000 0.0020000 0.0000000
v 0.0041575 0.0020000 0.0017221
v 0.0041575 0.0000000 0.0017221
v 0.0016630 0.0000000 0.0006888
v 0.0016630 0.0020000 0.0006888
v 0.0037416 0.0020000 0.0025001
v 0.0037416 0.0000000 0.0025001
v 0.0014966 0.0000000 0.0010000
v 0.0014966 0.0020000 0.0010000
v 0.0031820 0.0020000 0.0031820
v 0.0031820 0.0000000 0.0031820
v 0.0012728 0.0000000 0.0012728
v 0.0012728 0.0020000 0.0012728
v 0.0025001 0.0020000 0.0037416
v 0.0025001 0.0000000 0.0037416
v 0.0010000 0.0000000 0.0014966
v 0.0010000 0.0020000 0.0014966
v 0.0017221 0.0020000 0.0041575
v 0.0017221 0.0000000 0.0041575
v 0.0006888 0.0000000 0.0016630
v 0.0006888 0.0020000 0.0016630
v 0.0008779 0.0020000 0.0044135
v 0.0008779 0.0000000 0.0044135
v 0.0003512 0.0000000 0.0017654
v 0.0003512 0.0020000 0.0017654
v 0.0000000 0.0020000 0.0045000
v 0.0000000 0.0000000 0.0045000
v 0.0000000 0.0000000 0.0018000
v 0.0000000 0.0020000 0.0018000
v -0.0008779 0.0020000 0.0044135
v -0.0008779 0.0000000 0.0044135
v -0.0003512 0.0000000 0.0017654
v -0.0003512 0.0020000 0.0017654
v -0.0017221 0.0020000 0.0041575
v -0.0017221 0.0000000 0.0041575
v -0.0006888 0.0000000 0.0016630
v -0.0006888 0.0020000 0.0016630
v -0.0025001 0.0020000 0.0037416
v -0.0025001 0.0000000 0.0037416
v -0.0010000 0.0000000 0.0014966
v -0.0010000 0.0020000 0.0014966
v -0.0031820 0.0020000 0.0031820
v -0.0031820 0.0000000 0.0031820
v -0.0012728 0.0000000 0.0012728
v -0.0012728 0.0020000 0.0012728
v -0.0037416 0.0020000 0.0025001
v -0.0037416 0.0000000 0.0025001
v -0.0014966 0.0000000 0.0010000
v -0.0014966 0.0020000 0.0010000
v -0.0041575 0.0020000 0.0017221
v -0.0041575 0.0000000 0.0017221
v -0.0016630 0.0000000 0.0006888
v -0.0016630 0.0020000 0.0006888
v -0.0044135 0.0020000 0.0008779
v -0.0044135 0.0000000 0.0008779
v -0.0017654 0.0000000 0.0003512
v -0.0017654 0.0020000 0.0003512
v -0.0045000 0.0020000 0.0000000
v -0.0045000 0.0000000 0.0000000
v -0.0018000 0.0000000 0.0000000
v -0.0018000 0.0020000 0.0000000
v -0.0044135 0.0020000 -0.0008779
v -0.0044135 0.0000000 -0.0008779
v -0.0017654 0.0000000 -0.0003512
v -0.0017654 0.0020000 -0.0003512
v -0.0041575 0.0020000 -0.0017221
v -0.0041575 0.0000000 -0.0017221
v -0.0016630 0.0000000 -0.0006888
v -0.0016630 0.0020000 -0.0006888
v -0.0037416 0.0020000 -0.0025001
v -0.0037416 0.0000000 -0.0025001
v -0.0014966 0.0000000 -0.0010000
v -0.0014966 0.0020000 -0.0010000
v -0.0031820 0.0020000 -0.0031820
v -0.0031820 0.0000000 -0.0031820
v -0.0012728 0.0000000 -0.0012728
v -0.0012728 0.0020000 -0.0012728
v -0.0025001 0.0020000 -0.0037416
v -0.0025001 0.0000000 -0.0037416
v -0.0010000 0.0000000 -0.0014966
v -0.0010000 0.0020000 -0.0014966
v -0.0017221 0.0020000 -0.0041575
v -0.0017221 0.0000000 -0.0041575
v -0.0006888 0.0000000 -0.0016630
v -0.0006888 0.0020000 -0.0016630
v -0.0008779 0.0020000 -0.0044135
v -0.0008779 0.0000000 -0.0044135
v -0.0003512 0.0000000 -0.0017654
v -0.0003512 0.0020000 -0.0017654
v -0.0000000 0.0020000 -0.0045000
v -0.0000000 0.0000000 -0.0045000
v -0.0000000 0.0000000 -0.0018000
v -0.0000000 0.0020000 -0.0018000
v 0.0008779 0.0020000 -0.0044135
v 0.0008779 0.0000000 -0.0044135
v 0.0003512 0.0000000 -0.0017654
v 0.0003512 0.0020000 -0.0017654
v 0.0017221 0.0020000 -0.0041575
v 0.0017221 0.0000000 -0.0041575
v 0.0006888 0.0000000 -0.0016630
v 0.0006888 0.0020000 -0.0016630
v 0.0025001 0.0020000 -0.0037416
v 0.0025001 0.0000000 -0.0037416
v 0.0010000 0.0000000 -0.0014966
v 0.0010000 0.0020000 -0.0014966
v 0.0031820 0.0020000 -0.0031820
v 0.0031820 0.0000000 -0.0031820
v 0.0012728 0.0000000 -0.0012728
v 0.0012728 0.0020000 -0.0012728
v 0.0037416 0.0020000 -0.0025001
v 0.0037416 0.0000000 -0.0025001
v 0.0014966 0.0000000 -0.0010000
v 0.0014966 0.0020000 -0.0010000
v 0.0041575 0.0020000 -0.0017221
v 0.0041575 0.0000000 -0.0017221
v 0.0016630 0.0000000 -0.0006888
v 0.0016630 0.0020000 -0.0006888
v 0.0044135 0.0020000 -0.0008779
v 0.0044135 0.0000000 -0.0008779
v 0.0017654 0.0000000 -0.0003512
v 0.0017654 0.0020000 -0.0003512
f 1 2 3
f 1 3 4
f 5 6 7
f 5 7 8
f 2 8 7
f 2 7 3
f 1 4 6
f 1 6 5
f 4 3 9
f 4 9 10
f 6 11 12
f 6 12 7
f 3 7 12
f 3 12 9
f 4 10 11
f 4 11 6
f 10 9 13
f 10 13 14
f 11 15 16
f 11 16 12
f 9 12 16
f 9 16 13
f 10 14 15
f 10 15 11
f 14 13 17
f 14 17 18
f 15 19 20
f 15 20 16
f 13 16 20
f 13 20 17
f 14 18 19
f 14 19 15
f 18 17 21
f 18 21 22
f 19 23 24
f 19 24 20
f 17 20 24
f 17 24 21
f 18 22 23
f 18 23 19
f 22 21 25
f 22 25 26
f 23 27 28
f 23 28 24
f 21 24 28
f 21 28 25
f 22 26 27
f 22 27 23
f 26 25 29
f 26 29 30
f 27 31 32
f 27 32 28
f 25 28 32
f 25 32 29
f 26 30 31
f 26 31 27
f 30 29 33
f 30 33 34
f 31 35 36
f 31 36 32
f 29 32 36
f 29 36 33
f 30 34 35
f 30 35 31
f 34 33 37
f 34 37 38
f 35 39 40
f 35 40 36
f 33 36 40
f 33 40 37
f 34 38 39
f 34 39 35
f 38 37 41
f 38 41 42
f 39 43 44
f 39 44 40
f 37 40 44
f 37 44 41
f 38 42 43
f 38 43 39
f 42 41 45
f 42 45 46
f 43 47 48
f 43 48 44
f 41 44 48
f 41 48 45
f 42 46 47
f 42 47 43
f 46 45 49
f 46 49 50
f 47 51 52
f 47 52 48
f 45 48 52
f 45 52 49
f 46 50 51
f 46 51 47
f 50 49 53
f 50 53 54
f 51 55 56
f 51 56 52
f 49 52 56
f 49 56 53
f 50 54 55
f 50 55 51
f 54 53 57
f 54 57 58
f 55 59 60
f 55 60 56
f 53 56 60
f 53 60 57
f 54 58 59
f 54 59 55
f 58 57 61
f 58 61 62
f 59 63 64
f 59 64 60
f 57 60 64
f 57 64 61
f 58 62 63
f 58 63 59
f 62 61 65
f 62 65 66
f 63 67 68
f 63 68 64
f 61 64 68
f 61 68 65
f 62 66 67
f 62 67 63
f 66 65 69
f 66 69 70
f 67 71 72
f 67 72 68
f 65 68 72
f 65 72 69
f 66 70 71
f 66 71 67
f 70 69 73
f 70 73 74
f 71 75 76
f 71 76 72
f 69 72 76
f 69 76 73
f 70 74 75
f 70 75 71
f 74 73 77
f 74 77 78
f 75 79 80
f 75 80 76
f 73 76 80
f 73 80 77
f 74 78 79
f 74 79 75
f 78 77 81
f 78 81 82
f 79 83 84
f 79 84 80
f 77 80 84
f 77 84 81
f 78 82 83
f 78 83 79
f 82 81 85
f 82 85 86
f 83 87 88
f 83 88 84
f 81 84 88
f 81 88 85
f 82 86 87
f 82 87 83
f 86 85 89
f 86 89 90
f 87 91 92
f 87 92 88
f 85 88 92
f 85 92 89
f 86 90 91
f 86 91 87
f 90 89 93
f 90 93 94
f 91 95 96
f 91 96 92
f 89 92 96
f 89 96 93
f 90 94 95
f 90 95 91
f 94 93 97
f 94 97 98
f 95 99 100
f 95 100 96
f 93 96 100
f 93 100 97
f 94 98 99
f 94 99 95
f 98 97 101
f 98 101 102
f 99 103 104
f 99 104 100
f 97 100 104
f 97 104 101
f 98 102 103
f 98 103 99
f 102 101 105
f 102 105 106
f 103 107 108
f 103 108 104
f 101 104 108
f 101 108 105
f 102 106 107
f 102 107 103
f 106 105 109
f 106 109 110
f 107 111 112
f 107 112 108
f 105 108 112
f 105 112 109
f 106 110 111
f 106 111 107
f 110 109 113
f 110 113 114
f 111 115 116
f 111 116 112
f 109 112 116
f 109 116 113
f 110 114 115
f 110 115 111
f 114 113 117
f 114 117 118
f 115 119 120
f 115 120 116
f 113 116 120
f 113 120 117
f 114 118 119
f 114 119 115
f 118 117 121
f 118 121 122
f 119 123 124
f 119 124 120
f 117 120 124
f 117 124 121
f 118 122 123
f 118 123 119
f 122 121 125
f 122 125 126
f 123 127 128
f 123 128 124
f 121 124 128
f 121 128 125
f 122 126 127
f 122 127 123
f 126 125 2
f 126 2 1
f 127 5 8
f 127 8 128
f 125 128 8
f 125 8 2
f 126 1 5
f 126 5 127
