# Botball Lab: metres, +Y up, centred XZ, base Y=0
mtllib metal_019.mtl
s off
v 0.0045000 0.0000000 -0.0000000
v 0.0045000 0.0040000 -0.0000000
v 0.0022500 0.0040000 0.0038971
v 0.0022500 0.0000000 0.0038971
v 0.0018000 0.0000000 -0.0000000
v 0.0009000 0.0000000 0.0015588
v 0.0009000 0.0040000 0.0015588
v 0.0018000 0.0040000 -0.0000000
v -0.0022500 0.0040000 0.0038971
v -0.0022500 0.0000000 0.0038971
v -0.0009000 0.0000000 0.0015588
v -0.0009000 0.0040000 0.0015588
v -0.0045000 0.0040000 0.0000000
v -0.0045000 0.0000000 0.0000000
v -0.0018000 0.0000000 0.0000000
v -0.0018000 0.0040000 0.0000000
v -0.0022500 0.0040000 -0.0038971
v -0.0022500 0.0000000 -0.0038971
v -0.0009000 0.0000000 -0.0015588
v -0.0009000 0.0040000 -0.0015588
v 0.0022500 0.0040000 -0.0038971
v 0.0022500 0.0000000 -0.0038971
v 0.0009000 0.0000000 -0.0015588
v 0.0009000 0.0040000 -0.0015588
usemtl plastic
vn 0.8660246 0.0 0.5000014
vn -0.8660191 0.0 -0.500011
vn 0.0 1.0 0.0
vn 0.0 -1.0 0.0
vn 0.0 0.0 1.0
vn 0.0 0.0 -1.0
vn -0.8660246 0.0 0.5000014
vn 0.8660191 0.0 -0.500011
vn -0.8660246 0.0 -0.5000014
vn 0.8660191 0.0 0.500011
vn 0.8660246 0.0 -0.5000014
vn -0.8660191 0.0 0.500011
f 1//1 2//1 3//1
f 1//1 3//1 4//1
f 5//2 6//2 7//2
f 5//2 7//2 8//2
f 2//3 8//3 7//3
f 2//3 7//3 3//3
f 1//4 4//4 6//4
f 1//4 6//4 5//4
f 4//5 3//5 9//5
f 4//5 9//5 10//5
f 6//6 11//6 12//6
f 6//6 12//6 7//6
f 3//3 7//3 12//3
f 3//3 12//3 9//3
f 4//4 10//4 11//4
f 4//4 11//4 6//4
f 10//7 9//7 13//7
f 10//7 13//7 14//7
f 11//8 15//8 16//8
f 11//8 16//8 12//8
f 9//3 12//3 16//3
f 9//3 16//3 13//3
f 10//4 14//4 15//4
f 10//4 15//4 11//4
f 14//9 13//9 17//9
f 14//9 17//9 18//9
f 15//10 19//10 20//10
f 15//10 20//10 16//10
f 13//3 16//3 20//3
f 13//3 20//3 17//3
f 14//4 18//4 19//4
f 14//4 19//4 15//4
f 18//6 17//6 21//6
f 18//6 21//6 22//6
f 19//5 23//5 24//5
f 19//5 24//5 20//5
f 17//3 20//3 24//3
f 17//3 24//3 21//3
f 18//4 22//4 23//4
f 18//4 23//4 19//4
f 22//11 21//11 2//11
f 22//11 2//11 1//11
f 23//12 5//12 8//12
f 23//12 8//12 24//12
f 21//3 24//3 8//3
f 21//3 8//3 2//3
f 22//4 1//4 5//4
f 22//4 5//4 23//4
