# Botball Lab: metres, +Y up, centred XZ, base Y=0
mtllib metal_012.mtl
s off
v 0.0140000 0.0000000 0.0000000
v 0.0140000 0.0040000 0.0000000
v 0.0137310 0.0040000 0.0027313
v 0.0137310 0.0000000 0.0027313
v 0.0018000 0.0000000 0.0000000
v 0.0017654 0.0000000 0.0003512
v 0.0017654 0.0040000 0.0003512
v 0.0018000 0.0040000 0.0000000
v 0.0129343 0.0040000 0.0053576
v 0.0129343 0.0000000 0.0053576
v 0.0016630 0.0000000 0.0006888
v 0.0016630 0.0040000 0.0006888
v 0.0116406 0.0040000 0.0077780
v 0.0116406 0.0000000 0.0077780
v 0.0014966 0.0000000 0.0010000
v 0.0014966 0.0040000 0.0010000
v 0.0098995 0.0040000 0.0098995
v 0.0098995 0.0000000 0.0098995
v 0.0012728 0.0000000 0.0012728
v 0.0012728 0.0040000 0.0012728
v 0.0077780 0.0040000 0.0116406
v 0.0077780 0.0000000 0.0116406
v 0.0010000 0.0000000 0.0014966
v 0.0010000 0.0040000 0.0014966
v 0.0053576 0.0040000 0.0129343
v 0.0053576 0.0000000 0.0129343
v 0.0006888 0.0000000 0.0016630
v 0.0006888 0.0040000 0.0016630
v 0.0027313 0.0040000 0.0137310
v 0.0027313 0.0000000 0.0137310
v 0.0003512 0.0000000 0.0017654
v 0.0003512 0.0040000 0.0017654
v 0.0000000 0.0040000 0.0140000
v 0.0000000 0.0000000 0.0140000
v 0.0000000 0.0000000 0.0018000
v 0.0000000 0.0040000 0.0018000
v -0.0027313 0.0040000 0.0137310
v -0.0027313 0.0000000 0.0137310
v -0.0003512 0.0000000 0.0017654
v -0.0003512 0.0040000 0.0017654
v -0.0053576 0.0040000 0.0129343
v -0.0053576 0.0000000 0.0129343
v -0.0006888 0.0000000 0.0016630
v -0.0006888 0.0040000 0.0016630
v -0.0077780 0.0040000 0.0116406
v -0.0077780 0.0000000 0.0116406
v -0.0010000 0.0000000 0.0014966
v -0.0010000 0.0040000 0.0014966
v -0.0098995 0.0040000 0.0098995
v -0.0098995 0.0000000 0.0098995
v -0.0012728 0.0000000 0.0012728
v -0.0012728 0.0040000 0.0012728
v -0.0116406 0.0040000 0.0077780
v -0.0116406 0.0000000 0.0077780
v -0.0014966 0.0000000 0.0010000
v -0.0014966 0.0040000 0.0010000
v -0.0129343 0.0040000 0.0053576
v -0.0129343 0.0000000 0.0053576
v -0.0016630 0.0000000 0.0006888
v -0.0016630 0.0040000 0.0006888
v -0.0137310 0.0040000 0.0027313
v -0.0137310 0.0000000 0.0027313
v -0.0017654 0.0000000 0.0003512
v -0.0017654 0.0040000 0.0003512
v -0.0140000 0.0040000 0.0000000
v -0.0140000 0.0000000 0.0000000
v -0.0018000 0.0000000 0.0000000
v -0.0018000 0.0040000 0.0000000
v -0.0137310 0.0040000 -0.0027313
v -0.0137310 0.0000000 -0.0027313
v -0.0017654 0.0000000 -0.0003512
v -0.0017654 0.0040000 -0.0003512
v -0.0129343 0.0040000 -0.0053576
v -0.0129343 0.0000000 -0.0053576
v -0.0016630 0.0000000 -0.0006888
v -0.0016630 0.0040000 -0.0006888
v -0.0116406 0.0040000 -0.0077780
v -0.0116406 0.0000000 -0.0077780
v -0.0014966 0.0000000 -0.0010000
v -0.0014966 0.0040000 -0.0010000
v -0.0098995 0.0040000 -0.0098995
v -0.0098995 0.0000000 -0.0098995
v -0.0012728 0.0000000 -0.0012728
v -0.0012728 0.0040000 -0.0012728
v -0.0077780 0.0040000 -0.0116406
v -0.0077780 0.0000000 -0.0116406
v -0.0010000 0.0000000 -0.0014966
v -0.0010000 0.0040000 -0.0014966
v -0.0053576 0.0040000 -0.0129343
v -0.0053576 0.0000000 -0.0129343
v -0.0006888 0.0000000 -0.0016630
v -0.0006888 0.0040000 -0.0016630
v -0.0027313 0.0040000 -0.0137310
v -0.0027313 0.0000000 -0.0137310
v -0.0003512 0.0000000 -0.0017654
v -0.0003512 0.0040000 -0.0017654
v -0.0000000 0.0040000 -0.0140000
v -0.0000000 0.0000000 -0.0140000
v -0.0000000 0.0000000 -0.0018000
v -0.0000000 0.0040000 -0.0018000
v 0.0027313 0.0040000 -0.0137310
v 0.0027313 0.0000000 -0.0137310
v 0.0003512 0.0000000 -0.0017654
v 0.0003512 0.0040000 -0.0017654
v 0.0053576 0.0040000 -0.0129343
v 0.0053576 0.0000000 -0.0129343
v 0.0006888 0.0000000 -0.0016630
v 0.0006888 0.0040000 -0.0016630
v 0.0077780 0.0040000 -0.0116406
v 0.0077780 0.0000000 -0.0116406
v 0.0010000 0.0000000 -0.0014966
v 0.0010000 0.0040000 -0.0014966
v 0.0098995 0.0040000 -0.0098995
v 0.0098995 0.0000000 -0.0098995
v 0.0012728 0.0000000 -0.0012728
v 0.0012728 0.0040000 -0.0012728
v 0.0116406 0.0040000 -0.0077780
v 0.0116406 0.0000000 -0.0077780
v 0.0014966 0.0000000 -0.0010000
v 0.0014966 0.0040000 -0.0010000
v 0.0129343 0.0040000 -0.0053576
v 0.0129343 0.0000000 -0.0053576
v 0.0016630 0.0000000 -0.0006888
v 0.0016630 0.0040000 -0.0006888
v 0.0137310 0.0040000 -0.0027313
v 0.0137310 0.0000000 -0.0027313
v 0.0017654 0.0000000 -0.0003512
v 0.0017654 0.0040000 -0.0003512
usemtl body
vn 0.9994616 0.0 0.0328116
vn 0.9994616 0.0 -0.0328116
vn 0.9866587 0.0 0.1628025
vn 0.973855 0.0 0.2271706
vn -0.9994612 0.0 -0.0328221
vn -0.9738608 0.0 -0.2271456
vn -0.9866593 0.0 -0.1627988
vn -0.9994612 0.0 0.0328221
vn 0.0 1.0 0.0
vn 0.0 -1.0 0.0
vn 0.9359386 0.0 0.3521632
vn 0.9108271 0.0 0.4127881
vn -0.9107819 0.0 -0.4128878
vn -0.935923 0.0 -0.3522046
vn 0.8492534 0.0 0.5279855
vn 0.8127904 0.0 0.5825563
vn -0.8128351 0.0 -0.5824939
vn -0.8492324 0.0 -0.5280192
vn 0.7299262 0.0 0.6835259
vn 0.6835259 0.0 0.7299262
vn -0.6834802 0.0 -0.729969
vn -0.729969 0.0 -0.6834802
vn 0.5825563 0.0 0.8127904
vn 0.5279855 0.0 0.8492534
vn -0.5280192 0.0 -0.8492324
vn -0.5824939 0.0 -0.8128351
vn 0.4127881 0.0 0.9108271
vn 0.3521632 0.0 0.9359386
vn -0.3522046 0.0 -0.935923
vn -0.4128878 0.0 -0.9107819
vn 0.2271706 0.0 0.973855
vn 0.1628025 0.0 0.9866587
vn -0.1627988 0.0 -0.9866593
vn -0.2271456 0.0 -0.9738608
vn 0.0328116 0.0 0.9994616
vn -0.0328116 0.0 0.9994616
vn 0.0328221 0.0 -0.9994612
vn -0.0328221 0.0 -0.9994612
vn -0.1628025 0.0 0.9866587
vn -0.2271706 0.0 0.973855
vn 0.2271456 0.0 -0.9738608
vn 0.1627988 0.0 -0.9866593
vn -0.3521632 0.0 0.9359386
vn -0.4127881 0.0 0.9108271
vn 0.4128878 0.0 -0.9107819
vn 0.3522046 0.0 -0.935923
vn -0.5279855 0.0 0.8492534
vn -0.5825563 0.0 0.8127904
vn 0.5824939 0.0 -0.8128351
vn 0.5280192 0.0 -0.8492324
vn -0.6835259 0.0 0.7299262
vn -0.7299262 0.0 0.6835259
vn 0.729969 0.0 -0.6834802
vn 0.6834802 0.0 -0.729969
vn -0.8127904 0.0 0.5825563
vn -0.8492534 0.0 0.5279855
vn 0.8492324 0.0 -0.5280192
vn 0.8128351 0.0 -0.5824939
vn -0.9108271 0.0 0.4127881
vn -0.9359386 0.0 0.3521632
vn 0.935923 0.0 -0.3522046
vn 0.9107819 0.0 -0.4128878
vn -0.973855 0.0 0.2271706
vn -0.9866587 0.0 0.1628025
vn 0.9866593 0.0 -0.1627988
vn 0.9738608 0.0 -0.2271456
vn -0.9994616 0.0 0.0328116
vn -0.9994616 0.0 -0.0328116
vn 0.9994612 0.0 0.0328221
vn 0.9994612 0.0 -0.0328221
vn -0.9866587 0.0 -0.1628025
vn -0.973855 0.0 -0.2271706
vn 0.9738608 0.0 0.2271456
vn 0.9866593 0.0 0.1627988
vn -0.9359386 0.0 -0.3521632
vn -0.9108271 0.0 -0.4127881
vn 0.9107819 0.0 0.4128878
vn 0.935923 0.0 0.3522046
vn -0.8492534 0.0 -0.5279855
vn -0.8127904 0.0 -0.5825563
vn 0.8128351 0.0 0.5824939
vn 0.8492324 0.0 0.5280192
vn -0.7299262 0.0 -0.6835259
vn -0.6835259 0.0 -0.7299262
vn 0.6834802 0.0 0.729969
vn 0.729969 0.0 0.6834802
vn -0.5825563 0.0 -0.8127904
vn -0.5279855 0.0 -0.8492534
vn 0.5280192 0.0 0.8492324
vn 0.5824939 0.0 0.8128351
vn -0.4127881 0.0 -0.9108271
vn -0.3521632 0.0 -0.9359386
vn 0.3522046 0.0 0.935923
vn 0.4128878 0.0 0.9107819
vn -0.2271706 0.0 -0.973855
vn -0.1628025 0.0 -0.9866587
vn 0.1627988 0.0 0.9866593
vn 0.2271456 0.0 0.9738608
vn -0.0328116 0.0 -0.9994616
vn 0.0328116 0.0 -0.9994616
vn -0.0328221 0.0 0.9994612
vn 0.0328221 0.0 0.9994612
vn 0.1628025 0.0 -0.9866587
vn 0.2271706 0.0 -0.973855
vn -0.2271456 0.0 0.9738608
vn -0.1627988 0.0 0.9866593
vn 0.3521632 0.0 -0.9359386
vn 0.4127881 0.0 -0.9108271
vn -0.4128878 0.0 0.9107819
vn -0.3522046 0.0 0.935923
vn 0.5279855 0.0 -0.8492534
vn 0.5825563 0.0 -0.8127904
vn -0.5824939 0.0 0.8128351
vn -0.5280192 0.0 0.8492324
vn 0.6835259 0.0 -0.7299262
vn 0.7299262 0.0 -0.6835259
vn -0.729969 0.0 0.6834802
vn -0.6834802 0.0 0.729969
vn 0.8127904 0.0 -0.5825563
vn 0.8492534 0.0 -0.5279855
vn -0.8492324 0.0 0.5280192
vn -0.8128351 0.0 0.5824939
vn 0.9108271 0.0 -0.4127881
vn 0.9359386 0.0 -0.3521632
vn -0.935923 0.0 0.3522046
vn -0.9107819 0.0 0.4128878
vn 0.973855 0.0 -0.2271706
vn 0.9866587 0.0 -0.1628025
vn -0.9866593 0.0 0.1627988
vn -0.9738608 0.0 0.2271456
f 1//1 2//2 3//3
f 1//1 3//3 4//4
f 5//5 6//6 7//7
f 5//5 7//7 8//8
f 2//9 8//9 7//9
f 2//9 7//9 3//9
f 1//10 4//10 6//10
f 1//10 6//10 5//10
f 4//4 3//3 9//11
f 4//4 9//11 10//12
f 6//6 11//13 12//14
f 6//6 12//14 7//7
f 3//9 7//9 12//9
f 3//9 12//9 9//9
f 4//10 10//10 11//10
f 4//10 11//10 6//10
f 10//12 9//11 13//15
f 10//12 13//15 14//16
f 11//13 15//17 16//18
f 11//13 16//18 12//14
f 9//9 12//9 16//9
f 9//9 16//9 13//9
f 10//10 14//10 15//10
f 10//10 15//10 11//10
f 14//16 13//15 17//19
f 14//16 17//19 18//20
f 15//17 19//21 20//22
f 15//17 20//22 16//18
f 13//9 16//9 20//9
f 13//9 20//9 17//9
f 14//10 18//10 19//10
f 14//10 19//10 15//10
f 18//20 17//19 21//23
f 18//20 21//23 22//24
f 19//21 23//25 24//26
f 19//21 24//26 20//22
f 17//9 20//9 24//9
f 17//9 24//9 21//9
f 18//10 22//10 23//10
f 18//10 23//10 19//10
f 22//24 21//23 25//27
f 22//24 25//27 26//28
f 23//25 27//29 28//30
f 23//25 28//30 24//26
f 21//9 24//9 28//9
f 21//9 28//9 25//9
f 22//10 26//10 27//10
f 22//10 27//10 23//10
f 26//28 25//27 29//31
f 26//28 29//31 30//32
f 27//29 31//33 32//34
f 27//29 32//34 28//30
f 25//9 28//9 32//9
f 25//9 32//9 29//9
f 26//10 30//10 31//10
f 26//10 31//10 27//10
f 30//32 29//31 33//35
f 30//32 33//35 34//36
f 31//33 35//37 36//38
f 31//33 36//38 32//34
f 29//9 32//9 36//9
f 29//9 36//9 33//9
f 30//10 34//10 35//10
f 30//10 35//10 31//10
f 34//36 33//35 37//39
f 34//36 37//39 38//40
f 35//37 39//41 40//42
f 35//37 40//42 36//38
f 33//9 36//9 40//9
f 33//9 40//9 37//9
f 34//10 38//10 39//10
f 34//10 39//10 35//10
f 38//40 37//39 41//43
f 38//40 41//43 42//44
f 39//41 43//45 44//46
f 39//41 44//46 40//42
f 37//9 40//9 44//9
f 37//9 44//9 41//9
f 38//10 42//10 43//10
f 38//10 43//10 39//10
f 42//44 41//43 45//47
f 42//44 45//47 46//48
f 43//45 47//49 48//50
f 43//45 48//50 44//46
f 41//9 44//9 48//9
f 41//9 48//9 45//9
f 42//10 46//10 47//10
f 42//10 47//10 43//10
f 46//48 45//47 49//51
f 46//48 49//51 50//52
f 47//49 51//53 52//54
f 47//49 52//54 48//50
f 45//9 48//9 52//9
f 45//9 52//9 49//9
f 46//10 50//10 51//10
f 46//10 51//10 47//10
f 50//52 49//51 53//55
f 50//52 53//55 54//56
f 51//53 55//57 56//58
f 51//53 56//58 52//54
f 49//9 52//9 56//9
f 49//9 56//9 53//9
f 50//10 54//10 55//10
f 50//10 55//10 51//10
f 54//56 53//55 57//59
f 54//56 57//59 58//60
f 55//57 59//61 60//62
f 55//57 60//62 56//58
f 53//9 56//9 60//9
f 53//9 60//9 57//9
f 54//10 58//10 59//10
f 54//10 59//10 55//10
f 58//60 57//59 61//63
f 58//60 61//63 62//64
f 59//61 63//65 64//66
f 59//61 64//66 60//62
f 57//9 60//9 64//9
f 57//9 64//9 61//9
f 58//10 62//10 63//10
f 58//10 63//10 59//10
f 62//64 61//63 65//67
f 62//64 65//67 66//68
f 63//65 67//69 68//70
f 63//65 68//70 64//66
f 61//9 64//9 68//9
f 61//9 68//9 65//9
f 62//10 66//10 67//10
f 62//10 67//10 63//10
f 66//68 65//67 69//71
f 66//68 69//71 70//72
f 67//69 71//73 72//74
f 67//69 72//74 68//70
f 65//9 68//9 72//9
f 65//9 72//9 69//9
f 66//10 70//10 71//10
f 66//10 71//10 67//10
f 70//72 69//71 73//75
f 70//72 73//75 74//76
f 71//73 75//77 76//78
f 71//73 76//78 72//74
f 69//9 72//9 76//9
f 69//9 76//9 73//9
f 70//10 74//10 75//10
f 70//10 75//10 71//10
f 74//76 73//75 77//79
f 74//76 77//79 78//80
f 75//77 79//81 80//82
f 75//77 80//82 76//78
f 73//9 76//9 80//9
f 73//9 80//9 77//9
f 74//10 78//10 79//10
f 74//10 79//10 75//10
f 78//80 77//79 81//83
f 78//80 81//83 82//84
f 79//81 83//85 84//86
f 79//81 84//86 80//82
f 77//9 80//9 84//9
f 77//9 84//9 81//9
f 78//10 82//10 83//10
f 78//10 83//10 79//10
f 82//84 81//83 85//87
f 82//84 85//87 86//88
f 83//85 87//89 88//90
f 83//85 88//90 84//86
f 81//9 84//9 88//9
f 81//9 88//9 85//9
f 82//10 86//10 87//10
f 82//10 87//10 83//10
f 86//88 85//87 89//91
f 86//88 89//91 90//92
f 87//89 91//93 92//94
f 87//89 92//94 88//90
f 85//9 88//9 92//9
f 85//9 92//9 89//9
f 86//10 90//10 91//10
f 86//10 91//10 87//10
f 90//92 89//91 93//95
f 90//92 93//95 94//96
f 91//93 95//97 96//98
f 91//93 96//98 92//94
f 89//9 92//9 96//9
f 89//9 96//9 93//9
f 90//10 94//10 95//10
f 90//10 95//10 91//10
f 94//96 93//95 97//99
f 94//96 97//99 98//100
f 95//97 99//101 100//102
f 95//97 100//102 96//98
f 93//9 96//9 100//9
f 93//9 100//9 97//9
f 94//10 98//10 99//10
f 94//10 99//10 95//10
f 98//100 97//99 101//103
f 98//100 101//103 102//104
f 99//101 103//105 104//106
f 99//101 104//106 100//102
f 97//9 100//9 104//9
f 97//9 104//9 101//9
f 98//10 102//10 103//10
f 98//10 103//10 99//10
f 102//104 101//103 105//107
f 102//104 105//107 106//108
f 103//105 107//109 108//110
f 103//105 108//110 104//106
f 101//9 104//9 108//9
f 101//9 108//9 105//9
f 102//10 106//10 107//10
f 102//10 107//10 103//10
f 106//108 105//107 109//111
f 106//108 109//111 110//112
f 107//109 111//113 112//114
f 107//109 112//114 108//110
f 105//9 108//9 112//9
f 105//9 112//9 109//9
f 106//10 110//10 111//10
f 106//10 111//10 107//10
f 110//112 109//111 113//115
f 110//112 113//115 114//116
f 111//113 115//117 116//118
f 111//113 116//118 112//114
f 109//9 112//9 116//9
f 109//9 116//9 113//9
f 110//10 114//10 115//10
f 110//10 115//10 111//10
f 114//116 113//115 117//119
f 114//116 117//119 118//120
f 115//117 119//121 120//122
f 115//117 120//122 116//118
f 113//9 116//9 120//9
f 113//9 120//9 117//9
f 114//10 118//10 119//10
f 114//10 119//10 115//10
f 118//120 117//119 121//123
f 118//120 121//123 122//124
f 119//121 123//125 124//126
f 119//121 124//126 120//122
f 117//9 120//9 124//9
f 117//9 124//9 121//9
f 118//10 122//10 123//10
f 118//10 123//10 119//10
f 122//124 121//123 125//127
f 122//124 125//127 126//128
f 123//125 127//129 128//130
f 123//125 128//130 124//126
f 121//9 124//9 128//9
f 121//9 128//9 125//9
f 122//10 126//10 127//10
f 122//10 127//10 123//10
f 126//128 125//127 2//2
f 126//128 2//2 1//1
f 127//129 5//5 8//8
f 127//129 8//8 128//130
f 125//9 128//9 8//9
f 125//9 8//9 2//9
f 126//10 1//10 5//10
f 126//10 5//10 127//10
