# Extracted from KIPR Simulator demobot_v6.glb; GPL-3.0
mtllib metal_026.mtl
s off
usemtl material_0
v 0.0011553 0.0054864 0.0010057
v 0.0011553 0.0053540 0.0012706
v 0.0011553 0.0042728 0.0006024
v 0.0011553 0.0041465 0.0007902
v 0.0011553 0.0051908 0.0015173
v 0.0011553 0.0049999 0.0017421
v 0.0011553 0.0039891 0.0009565
v 0.0011553 0.0047870 0.0019453
v 0.0011553 0.0038044 0.0010889
v 0.0011553 0.0045499 0.0021208
v 0.0011553 0.0042943 0.0022690
v 0.0011553 0.0035980 0.0011874
v 0.0011553 0.0040230 0.0023860
v 0.0011553 0.0033794 0.0012490
v 0.0011553 0.0037397 0.0024722
v 0.0011553 0.0034472 0.0025215
v 0.0011553 0.0031546 0.0012706
v 0.0011553 0.0031546 0.0025400
v 0.0011553 0.0028587 0.0025215
v 0.0011553 0.0029264 0.0012490
v 0.0011553 0.0025661 0.0024722
v 0.0011553 0.0027078 0.0011874
v 0.0011553 0.0022828 0.0023860
v 0.0011553 0.0020115 0.0022690
v 0.0011553 0.0025015 0.0010889
v 0.0011553 0.0017559 0.0021208
v 0.0011553 0.0023167 0.0009565
v 0.0011553 0.0015188 0.0019453
v 0.0011553 0.0013060 0.0017421
v 0.0011553 0.0021593 0.0007902
v 0.0011553 0.0011151 0.0015173
v 0.0011553 0.0020330 0.0006024
v 0.0011553 0.0009519 0.0012706
v 0.0011553 0.0008195 0.0010057
v 0.0011553 0.0019437 0.0003926
v 0.0011553 0.0007209 0.0007286
v 0.0011553 0.0018945 0.0001709
v 0.0011553 0.0006501 0.0004423
v 0.0011553 0.0006162 0.0001463
v 0.0011553 0.0018852 -0.0000570
v 0.0011553 0.0006162 -0.0001493
v 0.0011553 0.0019160 -0.0002817
v 0.0011553 0.0006501 -0.0004419
v 0.0011553 0.0007209 -0.0007286
v 0.0011553 0.0019838 -0.0005008
v 0.0011553 0.0008195 -0.0010057
v 0.0011553 0.0009519 -0.0012706
v 0.0011553 0.0020915 -0.0007009
v 0.0011553 0.0011151 -0.0015173
v 0.0011553 0.0022363 -0.0008795
v 0.0011553 0.0013060 -0.0017421
v 0.0011553 0.0015188 -0.0019453
v 0.0011553 0.0024060 -0.0010273
v 0.0011553 0.0017559 -0.0021239
v 0.0011553 0.0026031 -0.0011443
v 0.0011553 0.0020115 -0.0022686
v 0.0011553 0.0022828 -0.0023860
v 0.0011553 0.0028155 -0.0012244
v 0.0011553 0.0025661 -0.0024722
v 0.0011553 0.0030403 -0.0012644
v 0.0011553 0.0028587 -0.0025246
v 0.0011553 0.0031546 -0.0012706
v 0.0011553 0.0031546 -0.0025400
v 0.0011553 0.0032655 -0.0012644
v 0.0011553 0.0034472 -0.0025246
v 0.0011553 0.0034903 -0.0012244
v 0.0011553 0.0037397 -0.0024722
v 0.0011553 0.0040230 -0.0023860
v 0.0011553 0.0037027 -0.0011443
v 0.0011553 0.0042943 -0.0022686
v 0.0011553 0.0038998 -0.0010273
v 0.0011553 0.0045499 -0.0021239
v 0.0011553 0.0047870 -0.0019453
v 0.0011553 0.0040695 -0.0008795
v 0.0011553 0.0049999 -0.0017421
v 0.0011553 0.0042143 -0.0007009
v 0.0011553 0.0051908 -0.0015173
v 0.0011553 0.0053540 -0.0012706
v 0.0011553 0.0043220 -0.0005008
v 0.0011553 0.0054864 -0.0010057
v 0.0011553 0.0055849 -0.0007286
v 0.0011553 0.0043898 -0.0002817
v 0.0011553 0.0056557 -0.0004419
v 0.0011553 0.0044206 -0.0000570
v 0.0011553 0.0056896 -0.0001493
v 0.0011553 0.0056896 0.0001463
v 0.0011553 0.0044113 0.0001709
v 0.0011553 0.0056557 0.0004423
v 0.0011553 0.0043621 0.0003926
v 0.0011553 0.0055849 0.0007286
v 0.0011553 0.0043621 0.0003926
v 0.0011553 0.0042728 0.0006024
v -0.0011553 0.0042728 0.0006024
v -0.0011553 0.0041465 0.0007902
v 0.0011553 0.0041465 0.0007902
v -0.0011553 0.0039891 0.0009565
v 0.0011553 0.0039891 0.0009565
v -0.0011553 0.0038044 0.0010889
v 0.0011553 0.0038044 0.0010889
v -0.0011553 0.0035980 0.0011874
v 0.0011553 0.0035980 0.0011874
v -0.0011553 0.0033794 0.0012490
v 0.0011553 0.0033794 0.0012490
v -0.0011553 0.0031546 0.0012706
v 0.0011553 0.0031546 0.0012706
v -0.0011553 0.0029264 0.0012490
v 0.0011553 0.0029264 0.0012490
v -0.0011553 0.0027078 0.0011874
v 0.0011553 0.0027078 0.0011874
v -0.0011553 0.0025015 0.0010889
v 0.0011553 0.0025015 0.0010889
v -0.0011553 0.0023167 0.0009565
v 0.0011553 0.0023167 0.0009565
v -0.0011553 0.0021593 0.0007902
v 0.0011553 0.0021593 0.0007902
v -0.0011553 0.0020330 0.0006024
v 0.0011553 0.0020330 0.0006024
v -0.0011553 0.0019437 0.0003926
v 0.0011553 0.0019437 0.0003926
v -0.0011553 0.0018945 0.0001709
v 0.0011553 0.0018945 0.0001709
v -0.0011553 0.0018852 -0.0000570
v 0.0011553 0.0018852 -0.0000570
v -0.0011553 0.0019160 -0.0002817
v 0.0011553 0.0019160 -0.0002817
v -0.0011553 0.0019838 -0.0005008
v 0.0011553 0.0019838 -0.0005008
v -0.0011553 0.0020915 -0.0007009
v 0.0011553 0.0020915 -0.0007009
v -0.0011553 0.0022363 -0.0008795
v 0.0011553 0.0022363 -0.0008795
v -0.0011553 0.0024060 -0.0010273
v 0.0011553 0.0024060 -0.0010273
v -0.0011553 0.0026031 -0.0011443
v 0.0011553 0.0026031 -0.0011443
v -0.0011553 0.0028155 -0.0012244
v 0.0011553 0.0028155 -0.0012244
v -0.0011553 0.0030403 -0.0012644
v 0.0011553 0.0030403 -0.0012644
v -0.0011553 0.0031546 -0.0012706
v 0.0011553 0.0031546 -0.0012706
v -0.0011553 0.0032655 -0.0012644
v 0.0011553 0.0032655 -0.0012644
v -0.0011553 0.0034903 -0.0012244
v 0.0011553 0.0034903 -0.0012244
v -0.0011553 0.0037027 -0.0011443
v 0.0011553 0.0037027 -0.0011443
v -0.0011553 0.0038998 -0.0010273
v 0.0011553 0.0038998 -0.0010273
v -0.0011553 0.0040695 -0.0008795
v 0.0011553 0.0040695 -0.0008795
v -0.0011553 0.0042143 -0.0007009
v 0.0011553 0.0042143 -0.0007009
v -0.0011553 0.0043220 -0.0005008
v 0.0011553 0.0043220 -0.0005008
v -0.0011553 0.0043898 -0.0002817
v 0.0011553 0.0043898 -0.0002817
v -0.0011553 0.0044206 -0.0000570
v 0.0011553 0.0044206 -0.0000570
v -0.0011553 0.0044113 0.0001709
v 0.0011553 0.0044113 0.0001709
v -0.0011553 0.0043621 0.0003926
v -0.0011553 0.0043621 0.0003926
v -0.0011553 0.0042728 0.0006024
v -0.0011553 0.0054864 0.0010057
v -0.0011553 0.0053540 0.0012706
v -0.0011553 0.0051908 0.0015173
v -0.0011553 0.0041465 0.0007902
v -0.0011553 0.0049999 0.0017421
v -0.0011553 0.0039891 0.0009565
v -0.0011553 0.0047870 0.0019453
v -0.0011553 0.0045499 0.0021208
v -0.0011553 0.0038044 0.0010889
v -0.0011553 0.0042943 0.0022690
v -0.0011553 0.0035980 0.0011874
v -0.0011553 0.0040230 0.0023860
v -0.0011553 0.0037397 0.0024722
v -0.0011553 0.0033794 0.0012490
v -0.0011553 0.0034472 0.0025215
v -0.0011553 0.0031546 0.0012706
v -0.0011553 0.0031546 0.0025400
v -0.0011553 0.0028587 0.0025215
v -0.0011553 0.0029264 0.0012490
v -0.0011553 0.0025661 0.0024722
v -0.0011553 0.0022828 0.0023860
v -0.0011553 0.0027078 0.0011874
v -0.0011553 0.0020115 0.0022690
v -0.0011553 0.0025015 0.0010889
v -0.0011553 0.0017559 0.0021208
v -0.0011553 0.0015188 0.0019453
v -0.0011553 0.0023167 0.0009565
v -0.0011553 0.0013060 0.0017421
v -0.0011553 0.0021593 0.0007902
v -0.0011553 0.0011151 0.0015173
v -0.0011553 0.0009519 0.0012706
v -0.0011553 0.0020330 0.0006024
v -0.0011553 0.0008195 0.0010057
v -0.0011553 0.0019437 0.0003926
v -0.0011553 0.0007209 0.0007286
v -0.0011553 0.0006501 0.0004423
v -0.0011553 0.0018945 0.0001709
v -0.0011553 0.0006162 0.0001463
v -0.0011553 0.0018852 -0.0000570
v -0.0011553 0.0006162 -0.0001493
v -0.0011553 0.0006501 -0.0004419
v -0.0011553 0.0019160 -0.0002817
v -0.0011553 0.0007209 -0.0007286
v -0.0011553 0.0019838 -0.0005008
v -0.0011553 0.0008195 -0.0010057
v -0.0011553 0.0009519 -0.0012706
v -0.0011553 0.0020915 -0.0007009
v -0.0011553 0.0011151 -0.0015173
v -0.0011553 0.0013060 -0.0017421
v -0.0011553 0.0022363 -0.0008795
v -0.0011553 0.0015188 -0.0019453
v -0.0011553 0.0024060 -0.0010273
v -0.0011553 0.0017559 -0.0021239
v -0.0011553 0.0020115 -0.0022686
v -0.0011553 0.0026031 -0.0011443
v -0.0011553 0.0022828 -0.0023860
v -0.0011553 0.0028155 -0.0012244
v -0.0011553 0.0025661 -0.0024722
v -0.0011553 0.0028587 -0.0025246
v -0.0011553 0.0030403 -0.0012644
v -0.0011553 0.0031546 -0.0025400
v -0.0011553 0.0031546 -0.0012706
v -0.0011553 0.0034472 -0.0025246
v -0.0011553 0.0032655 -0.0012644
v -0.0011553 0.0037397 -0.0024722
v -0.0011553 0.0034903 -0.0012244
v -0.0011553 0.0040230 -0.0023860
v -0.0011553 0.0037027 -0.0011443
v -0.0011553 0.0042943 -0.0022686
v -0.0011553 0.0045499 -0.0021239
v -0.0011553 0.0038998 -0.0010273
v -0.0011553 0.0047870 -0.0019453
v -0.0011553 0.0040695 -0.0008795
v -0.0011553 0.0049999 -0.0017421
v -0.0011553 0.0051908 -0.0015173
v -0.0011553 0.0042143 -0.0007009
v -0.0011553 0.0053540 -0.0012706
v -0.0011553 0.0043220 -0.0005008
v -0.0011553 0.0054864 -0.0010057
v -0.0011553 0.0055849 -0.0007286
v -0.0011553 0.0043898 -0.0002817
v -0.0011553 0.0056557 -0.0004419
v -0.0011553 0.0056896 -0.0001493
v -0.0011553 0.0044206 -0.0000570
v -0.0011553 0.0056896 0.0001463
v -0.0011553 0.0044113 0.0001709
v -0.0011553 0.0056557 0.0004423
v -0.0011553 0.0055849 0.0007286
v 0.0009794 0.0047285 0.0027309
v 0.0010071 0.0048332 0.0025523
v -0.0009828 0.0047285 0.0027309
v -0.0010106 0.0048332 0.0025523
v 0.0010502 0.0050214 0.0022259
v -0.0010506 0.0050214 0.0022259
v 0.0010810 0.0051938 0.0019237
v -0.0010814 0.0051938 0.0019237
v -0.0010968 0.0053570 0.0016404
v 0.0010964 0.0053570 0.0016404
v -0.0010999 0.0055172 0.0013664
v 0.0011029 0.0055172 0.0013664
v -0.0010968 0.0056773 0.0010889
v 0.0010964 0.0056773 0.0010889
v -0.0010814 0.0058405 0.0008056
v 0.0010810 0.0058405 0.0008056
v -0.0010506 0.0060133 0.0005038
v -0.0010106 0.0062042 0.0001771
v 0.0010502 0.0060133 0.0005038
v 0.0010071 0.0062042 0.0001771
v -0.0009828 0.0063058 -0.0000015
v 0.0009794 0.0063058 -0.0000015
v 0.0009794 0.0047285 0.0027309
v -0.0009828 0.0047285 0.0027309
v 0.0010071 0.0045253 0.0027309
v -0.0010106 0.0045253 0.0027309
v 0.0010502 0.0041465 0.0027309
v 0.0010810 0.0038013 0.0027309
v -0.0010506 0.0041465 0.0027309
v -0.0010814 0.0038013 0.0027309
v 0.0010964 0.0034718 0.0027309
v -0.0010968 0.0034718 0.0027309
v 0.0011029 0.0031546 0.0027309
v -0.0010999 0.0031546 0.0027309
v 0.0010964 0.0028340 0.0027309
v -0.0010968 0.0028340 0.0027309
v 0.0010810 0.0025045 0.0027309
v -0.0010814 0.0025045 0.0027309
v -0.0010506 0.0021593 0.0027309
v 0.0010502 0.0021593 0.0027309
v -0.0010106 0.0017805 0.0027309
v 0.0010071 0.0017805 0.0027309
v -0.0009828 0.0015773 0.0027309
v 0.0009794 0.0015773 0.0027309
v 0.0009794 0.0015773 0.0027309
v -0.0009828 0.0015773 0.0027309
v 0.0010071 0.0014726 0.0025523
v -0.0010106 0.0014726 0.0025523
v 0.0010502 0.0012844 0.0022259
v 0.0010810 0.0011120 0.0019237
v -0.0010506 0.0012844 0.0022259
v -0.0010814 0.0011120 0.0019237
v 0.0010964 0.0009488 0.0016404
v -0.0010968 0.0009488 0.0016404
v 0.0011029 0.0007887 0.0013664
v -0.0010999 0.0007887 0.0013664
v 0.0010964 0.0006285 0.0010889
v -0.0010968 0.0006285 0.0010889
v 0.0010810 0.0004653 0.0008056
v -0.0010814 0.0004653 0.0008056
v -0.0010506 0.0002925 0.0005038
v 0.0010502 0.0002925 0.0005038
v -0.0010106 0.0001016 0.0001771
v 0.0010071 0.0001016 0.0001771
v -0.0009828 0.0000000 -0.0000015
v 0.0009794 0.0000000 -0.0000015
v 0.0009794 0.0047285 -0.0027309
v 0.0010071 0.0045253 -0.0027309
v -0.0009828 0.0047285 -0.0027309
v -0.0010106 0.0045253 -0.0027309
v 0.0010502 0.0041465 -0.0027309
v -0.0010506 0.0041465 -0.0027309
v 0.0010810 0.0038013 -0.0027309
v -0.0010814 0.0038013 -0.0027309
v -0.0010968 0.0034718 -0.0027309
v 0.0010964 0.0034718 -0.0027309
v -0.0010999 0.0031546 -0.0027309
v 0.0011029 0.0031546 -0.0027309
v -0.0010968 0.0028340 -0.0027309
v 0.0010964 0.0028340 -0.0027309
v -0.0010814 0.0025045 -0.0027309
v 0.0010810 0.0025045 -0.0027309
v -0.0010506 0.0021593 -0.0027309
v -0.0010106 0.0017805 -0.0027309
v 0.0010502 0.0021593 -0.0027309
v 0.0010071 0.0017805 -0.0027309
v -0.0009828 0.0015773 -0.0027309
v 0.0009794 0.0015773 -0.0027309
v 0.0009794 0.0015773 -0.0027309
v 0.0010071 0.0014726 -0.0025523
v -0.0009828 0.0015773 -0.0027309
v -0.0010106 0.0014726 -0.0025523
v 0.0010502 0.0012844 -0.0022255
v -0.0010506 0.0012844 -0.0022255
v 0.0010810 0.0011120 -0.0019268
v -0.0010814 0.0011120 -0.0019268
v -0.0010968 0.0009488 -0.0016435
v 0.0010964 0.0009488 -0.0016435
v -0.0010999 0.0007887 -0.0013660
v 0.0011029 0.0007887 -0.0013660
v -0.0010968 0.0006285 -0.0010889
v 0.0010964 0.0006285 -0.0010889
v -0.0010814 0.0004653 -0.0008056
v 0.0010810 0.0004653 -0.0008056
v -0.0010506 0.0002925 -0.0005038
v -0.0010106 0.0001016 -0.0001771
v 0.0010502 0.0002925 -0.0005038
v 0.0010071 0.0001016 -0.0001771
v -0.0009828 0.0000000 -0.0000015
v 0.0009794 0.0000000 -0.0000015
v 0.0009794 0.0047285 -0.0027309
v -0.0009828 0.0047285 -0.0027309
v 0.0010071 0.0048332 -0.0025523
v -0.0010106 0.0048332 -0.0025523
v 0.0010502 0.0050214 -0.0022255
v 0.0010810 0.0051938 -0.0019268
v -0.0010506 0.0050214 -0.0022255
v -0.0010814 0.0051938 -0.0019268
v 0.0010964 0.0053570 -0.0016435
v -0.0010968 0.0053570 -0.0016435
v 0.0011029 0.0055172 -0.0013660
v -0.0010999 0.0055172 -0.0013660
v 0.0010964 0.0056773 -0.0010889
v -0.0010968 0.0056773 -0.0010889
v 0.0010810 0.0058405 -0.0008056
v -0.0010814 0.0058405 -0.0008056
v -0.0010506 0.0060133 -0.0005038
v 0.0010502 0.0060133 -0.0005038
v -0.0010106 0.0062042 -0.0001771
v 0.0010071 0.0062042 -0.0001771
v -0.0009828 0.0063058 -0.0000015
v 0.0009794 0.0063058 -0.0000015
f 1 2 3
f 3 2 4
f 2 5 4
f 5 6 4
f 4 6 7
f 6 8 7
f 7 8 9
f 8 10 9
f 10 11 9
f 9 11 12
f 11 13 12
f 12 13 14
f 13 15 14
f 15 16 14
f 14 16 17
f 16 18 17
f 18 19 17
f 17 19 20
f 19 21 20
f 20 21 22
f 21 23 22
f 23 24 22
f 22 24 25
f 24 26 25
f 25 26 27
f 26 28 27
f 28 29 27
f 27 29 30
f 29 31 30
f 30 31 32
f 31 33 32
f 33 34 32
f 32 34 35
f 34 36 35
f 35 36 37
f 36 38 37
f 38 39 37
f 37 39 40
f 39 41 40
f 40 41 42
f 41 43 42
f 43 44 42
f 42 44 45
f 44 46 45
f 46 47 45
f 45 47 48
f 47 49 48
f 48 49 50
f 49 51 50
f 51 52 50
f 50 52 53
f 52 54 53
f 53 54 55
f 54 56 55
f 56 57 55
f 55 57 58
f 57 59 58
f 58 59 60
f 59 61 60
f 60 61 62
f 61 63 62
f 62 63 64
f 63 65 64
f 64 65 66
f 65 67 66
f 67 68 66
f 66 68 69
f 68 70 69
f 69 70 71
f 70 72 71
f 72 73 71
f 71 73 74
f 73 75 74
f 74 75 76
f 75 77 76
f 77 78 76
f 76 78 79
f 78 80 79
f 80 81 79
f 79 81 82
f 81 83 82
f 82 83 84
f 83 85 84
f 85 86 84
f 84 86 87
f 86 88 87
f 87 88 89
f 88 90 89
f 90 1 89
f 1 3 89
f 91 92 93
f 93 92 94
f 92 95 94
f 94 95 96
f 95 97 96
f 96 97 98
f 97 99 98
f 98 99 100
f 99 101 100
f 100 101 102
f 101 103 102
f 102 103 104
f 103 105 104
f 104 105 106
f 105 107 106
f 106 107 108
f 107 109 108
f 108 109 110
f 109 111 110
f 110 111 112
f 111 113 112
f 112 113 114
f 113 115 114
f 114 115 116
f 115 117 116
f 116 117 118
f 117 119 118
f 118 119 120
f 119 121 120
f 120 121 122
f 121 123 122
f 122 123 124
f 123 125 124
f 124 125 126
f 125 127 126
f 126 127 128
f 127 129 128
f 128 129 130
f 129 131 130
f 130 131 132
f 131 133 132
f 132 133 134
f 133 135 134
f 134 135 136
f 135 137 136
f 136 137 138
f 137 139 138
f 138 139 140
f 139 141 140
f 140 141 142
f 141 143 142
f 142 143 144
f 143 145 144
f 144 145 146
f 145 147 146
f 146 147 148
f 147 149 148
f 148 149 150
f 149 151 150
f 150 151 152
f 151 153 152
f 152 153 154
f 153 155 154
f 154 155 156
f 155 157 156
f 156 157 158
f 157 159 158
f 158 159 160
f 159 161 160
f 160 161 162
f 161 91 162
f 91 93 162
f 163 164 165
f 165 164 166
f 166 164 167
f 164 168 167
f 167 168 169
f 168 170 169
f 169 170 171
f 171 170 172
f 170 173 172
f 172 173 174
f 173 175 174
f 174 175 176
f 176 175 177
f 175 178 177
f 177 178 179
f 178 180 179
f 179 180 181
f 181 180 182
f 180 183 182
f 182 183 184
f 184 183 185
f 183 186 185
f 185 186 187
f 186 188 187
f 187 188 189
f 189 188 190
f 188 191 190
f 190 191 192
f 191 193 192
f 192 193 194
f 194 193 195
f 193 196 195
f 195 196 197
f 196 198 197
f 197 198 199
f 199 198 200
f 198 201 200
f 200 201 202
f 201 203 202
f 202 203 204
f 204 203 205
f 203 206 205
f 205 206 207
f 206 208 207
f 207 208 209
f 209 208 210
f 208 211 210
f 210 211 212
f 212 211 213
f 211 214 213
f 213 214 215
f 214 216 215
f 215 216 217
f 217 216 218
f 216 219 218
f 218 219 220
f 219 221 220
f 220 221 222
f 222 221 223
f 221 224 223
f 223 224 225
f 224 226 225
f 225 226 227
f 226 228 227
f 227 228 229
f 228 230 229
f 229 230 231
f 230 232 231
f 231 232 233
f 233 232 234
f 232 235 234
f 234 235 236
f 235 237 236
f 236 237 238
f 238 237 239
f 237 240 239
f 239 240 241
f 240 242 241
f 241 242 243
f 243 242 244
f 242 245 244
f 244 245 246
f 246 245 247
f 245 248 247
f 247 248 249
f 248 250 249
f 249 250 251
f 251 250 252
f 250 163 252
f 163 165 252
f 253 254 255
f 255 254 256
f 254 257 256
f 256 257 258
f 257 259 258
f 258 259 260
f 260 259 261
f 259 262 261
f 261 262 263
f 262 264 263
f 263 264 265
f 264 266 265
f 265 266 267
f 266 268 267
f 267 268 269
f 269 268 270
f 268 271 270
f 271 272 270
f 270 272 273
f 272 274 273
f 275 276 277
f 276 278 277
f 277 278 279
f 279 278 280
f 278 281 280
f 281 282 280
f 280 282 283
f 282 284 283
f 283 284 285
f 284 286 285
f 285 286 287
f 286 288 287
f 287 288 289
f 288 290 289
f 290 291 289
f 289 291 292
f 291 293 292
f 292 293 294
f 293 295 294
f 295 296 294
f 297 298 299
f 298 300 299
f 299 300 301
f 301 300 302
f 300 303 302
f 303 304 302
f 302 304 305
f 304 306 305
f 305 306 307
f 306 308 307
f 307 308 309
f 308 310 309
f 309 310 311
f 310 312 311
f 312 313 311
f 311 313 314
f 313 315 314
f 314 315 316
f 315 317 316
f 317 318 316
f 319 320 321
f 321 320 322
f 320 323 322
f 322 323 324
f 323 325 324
f 324 325 326
f 326 325 327
f 325 328 327
f 327 328 329
f 328 330 329
f 329 330 331
f 330 332 331
f 331 332 333
f 332 334 333
f 333 334 335
f 335 334 336
f 334 337 336
f 337 338 336
f 336 338 339
f 338 340 339
f 341 342 343
f 343 342 344
f 342 345 344
f 344 345 346
f 345 347 346
f 346 347 348
f 348 347 349
f 347 350 349
f 349 350 351
f 350 352 351
f 351 352 353
f 352 354 353
f 353 354 355
f 354 356 355
f 355 356 357
f 357 356 358
f 356 359 358
f 359 360 358
f 358 360 361
f 360 362 361
f 363 364 365
f 364 366 365
f 365 366 367
f 367 366 368
f 366 369 368
f 369 370 368
f 368 370 371
f 370 372 371
f 371 372 373
f 372 374 373
f 373 374 375
f 374 376 375
f 375 376 377
f 376 378 377
f 378 379 377
f 377 379 380
f 379 381 380
f 380 381 382
f 381 383 382
f 383 384 382
usemtl material_1
v 0.0011553 0.0042943 0.0022690
v 0.0011553 0.0045499 0.0021208
v 0.0009794 0.0047285 0.0027309
v 0.0010071 0.0048332 0.0025523
v 0.0011553 0.0047870 0.0019453
v 0.0010502 0.0050214 0.0022259
v 0.0011553 0.0049999 0.0017421
v 0.0010810 0.0051938 0.0019237
v 0.0011553 0.0051908 0.0015173
v 0.0010964 0.0053570 0.0016404
v 0.0011553 0.0053540 0.0012706
v 0.0011029 0.0055172 0.0013664
v 0.0011553 0.0054864 0.0010057
v 0.0010964 0.0056773 0.0010889
v 0.0011553 0.0055849 0.0007286
v 0.0010810 0.0058405 0.0008056
v 0.0011553 0.0056557 0.0004423
v 0.0010502 0.0060133 0.0005038
v 0.0011553 0.0056896 0.0001463
v 0.0010071 0.0062042 0.0001771
v 0.0009794 0.0063058 -0.0000015
v 0.0011553 0.0056896 -0.0001493
v 0.0010071 0.0062042 -0.0001771
v 0.0011553 0.0056557 -0.0004419
v 0.0010502 0.0060133 -0.0005038
v 0.0011553 0.0055849 -0.0007286
v 0.0010810 0.0058405 -0.0008056
v 0.0011553 0.0054864 -0.0010057
v 0.0010964 0.0056773 -0.0010889
v 0.0011553 0.0053540 -0.0012706
v 0.0011029 0.0055172 -0.0013660
v 0.0011553 0.0051908 -0.0015173
v 0.0010964 0.0053570 -0.0016435
v 0.0011553 0.0049999 -0.0017421
v 0.0010810 0.0051938 -0.0019268
v 0.0011553 0.0047870 -0.0019453
v 0.0010502 0.0050214 -0.0022255
v 0.0011553 0.0045499 -0.0021239
v 0.0010071 0.0048332 -0.0025523
v 0.0009794 0.0047285 -0.0027309
v 0.0011553 0.0042943 -0.0022686
v 0.0010071 0.0045253 -0.0027309
v 0.0011553 0.0040230 -0.0023860
v 0.0010502 0.0041465 -0.0027309
v 0.0011553 0.0037397 -0.0024722
v 0.0010810 0.0038013 -0.0027309
v 0.0011553 0.0034472 -0.0025246
v 0.0010964 0.0034718 -0.0027309
v 0.0011553 0.0031546 -0.0025400
v 0.0011029 0.0031546 -0.0027309
v 0.0011553 0.0028587 -0.0025246
v 0.0010964 0.0028340 -0.0027309
v 0.0011553 0.0025661 -0.0024722
v 0.0010810 0.0025045 -0.0027309
v 0.0011553 0.0022828 -0.0023860
v 0.0010502 0.0021593 -0.0027309
v 0.0011553 0.0020115 -0.0022686
v 0.0010071 0.0017805 -0.0027309
v 0.0009794 0.0015773 -0.0027309
v 0.0011553 0.0017559 -0.0021239
v 0.0010071 0.0014726 -0.0025523
v 0.0011553 0.0015188 -0.0019453
v 0.0010502 0.0012844 -0.0022255
v 0.0011553 0.0013060 -0.0017421
v 0.0010810 0.0011120 -0.0019268
v 0.0011553 0.0011151 -0.0015173
v 0.0010964 0.0009488 -0.0016435
v 0.0011553 0.0009519 -0.0012706
v 0.0011029 0.0007887 -0.0013660
v 0.0011553 0.0008195 -0.0010057
v 0.0010964 0.0006285 -0.0010889
v 0.0011553 0.0007209 -0.0007286
v 0.0010810 0.0004653 -0.0008056
v 0.0011553 0.0006501 -0.0004419
v 0.0010502 0.0002925 -0.0005038
v 0.0011553 0.0006162 -0.0001493
v 0.0010071 0.0001016 -0.0001771
v 0.0009794 0.0000000 -0.0000015
v 0.0011553 0.0006162 0.0001463
v 0.0010071 0.0001016 0.0001771
v 0.0011553 0.0006501 0.0004423
v 0.0010502 0.0002925 0.0005038
v 0.0011553 0.0007209 0.0007286
v 0.0010810 0.0004653 0.0008056
v 0.0011553 0.0008195 0.0010057
v 0.0010964 0.0006285 0.0010889
v 0.0011553 0.0009519 0.0012706
v 0.0011029 0.0007887 0.0013664
v 0.0011553 0.0011151 0.0015173
v 0.0010964 0.0009488 0.0016404
v 0.0011553 0.0013060 0.0017421
v 0.0010810 0.0011120 0.0019237
v 0.0011553 0.0015188 0.0019453
v 0.0010502 0.0012844 0.0022259
v 0.0011553 0.0017559 0.0021208
v 0.0010071 0.0014726 0.0025523
v 0.0009794 0.0015773 0.0027309
v 0.0011553 0.0020115 0.0022690
v 0.0010071 0.0017805 0.0027309
v 0.0011553 0.0022828 0.0023860
v 0.0010502 0.0021593 0.0027309
v 0.0011553 0.0025661 0.0024722
v 0.0010810 0.0025045 0.0027309
v 0.0011553 0.0028587 0.0025215
v 0.0010964 0.0028340 0.0027309
v 0.0011553 0.0031546 0.0025400
v 0.0011029 0.0031546 0.0027309
v 0.0011553 0.0034472 0.0025215
v 0.0010964 0.0034718 0.0027309
v 0.0011553 0.0037397 0.0024722
v 0.0010810 0.0038013 0.0027309
v 0.0011553 0.0040230 0.0023860
v 0.0010502 0.0041465 0.0027309
v 0.0010071 0.0045253 0.0027309
v -0.0011553 0.0017559 -0.0021239
v -0.0011553 0.0020115 -0.0022686
v -0.0009828 0.0015773 -0.0027309
v -0.0010106 0.0017805 -0.0027309
v -0.0011553 0.0022828 -0.0023860
v -0.0010506 0.0021593 -0.0027309
v -0.0011553 0.0025661 -0.0024722
v -0.0010814 0.0025045 -0.0027309
v -0.0011553 0.0028587 -0.0025246
v -0.0010968 0.0028340 -0.0027309
v -0.0011553 0.0031546 -0.0025400
v -0.0010999 0.0031546 -0.0027309
v -0.0011553 0.0034472 -0.0025246
v -0.0010968 0.0034718 -0.0027309
v -0.0011553 0.0037397 -0.0024722
v -0.0010814 0.0038013 -0.0027309
v -0.0011553 0.0040230 -0.0023860
v -0.0010506 0.0041465 -0.0027309
v -0.0011553 0.0042943 -0.0022686
v -0.0010106 0.0045253 -0.0027309
v -0.0009828 0.0047285 -0.0027309
v -0.0011553 0.0045499 -0.0021239
v -0.0010106 0.0048332 -0.0025523
v -0.0011553 0.0047870 -0.0019453
v -0.0010506 0.0050214 -0.0022255
v -0.0011553 0.0049999 -0.0017421
v -0.0010814 0.0051938 -0.0019268
v -0.0011553 0.0051908 -0.0015173
v -0.0010968 0.0053570 -0.0016435
v -0.0011553 0.0053540 -0.0012706
v -0.0010999 0.0055172 -0.0013660
v -0.0011553 0.0054864 -0.0010057
v -0.0010968 0.0056773 -0.0010889
v -0.0011553 0.0055849 -0.0007286
v -0.0010814 0.0058405 -0.0008056
v -0.0011553 0.0056557 -0.0004419
v -0.0010506 0.0060133 -0.0005038
v -0.0011553 0.0056896 -0.0001493
v -0.0010106 0.0062042 -0.0001771
v -0.0009828 0.0063058 -0.0000015
v -0.0011553 0.0056896 0.0001463
v -0.0010106 0.0062042 0.0001771
v -0.0011553 0.0056557 0.0004423
v -0.0010506 0.0060133 0.0005038
v -0.0011553 0.0055849 0.0007286
v -0.0010814 0.0058405 0.0008056
v -0.0011553 0.0054864 0.0010057
v -0.0010968 0.0056773 0.0010889
v -0.0011553 0.0053540 0.0012706
v -0.0010999 0.0055172 0.0013664
v -0.0011553 0.0051908 0.0015173
v -0.0010968 0.0053570 0.0016404
v -0.0011553 0.0049999 0.0017421
v -0.0010814 0.0051938 0.0019237
v -0.0011553 0.0047870 0.0019453
v -0.0010506 0.0050214 0.0022259
v -0.0011553 0.0045499 0.0021208
v -0.0010106 0.0048332 0.0025523
v -0.0009828 0.0047285 0.0027309
v -0.0011553 0.0042943 0.0022690
v -0.0010106 0.0045253 0.0027309
v -0.0011553 0.0040230 0.0023860
v -0.0010506 0.0041465 0.0027309
v -0.0011553 0.0037397 0.0024722
v -0.0010814 0.0038013 0.0027309
v -0.0011553 0.0034472 0.0025215
v -0.0010968 0.0034718 0.0027309
v -0.0011553 0.0031546 0.0025400
v -0.0010999 0.0031546 0.0027309
v -0.0011553 0.0028587 0.0025215
v -0.0010968 0.0028340 0.0027309
v -0.0011553 0.0025661 0.0024722
v -0.0010814 0.0025045 0.0027309
v -0.0011553 0.0022828 0.0023860
v -0.0010506 0.0021593 0.0027309
v -0.0011553 0.0020115 0.0022690
v -0.0010106 0.0017805 0.0027309
v -0.0009828 0.0015773 0.0027309
v -0.0011553 0.0017559 0.0021208
v -0.0010106 0.0014726 0.0025523
v -0.0011553 0.0015188 0.0019453
v -0.0010506 0.0012844 0.0022259
v -0.0011553 0.0013060 0.0017421
v -0.0010814 0.0011120 0.0019237
v -0.0011553 0.0011151 0.0015173
v -0.0010968 0.0009488 0.0016404
v -0.0011553 0.0009519 0.0012706
v -0.0010999 0.0007887 0.0013664
v -0.0011553 0.0008195 0.0010057
v -0.0010968 0.0006285 0.0010889
v -0.0011553 0.0007209 0.0007286
v -0.0010814 0.0004653 0.0008056
v -0.0011553 0.0006501 0.0004423
v -0.0010506 0.0002925 0.0005038
v -0.0011553 0.0006162 0.0001463
v -0.0010106 0.0001016 0.0001771
v -0.0009828 0.0000000 -0.0000015
v -0.0011553 0.0006162 -0.0001493
v -0.0010106 0.0001016 -0.0001771
v -0.0011553 0.0006501 -0.0004419
v -0.0010506 0.0002925 -0.0005038
v -0.0011553 0.0007209 -0.0007286
v -0.0010814 0.0004653 -0.0008056
v -0.0011553 0.0008195 -0.0010057
v -0.0010968 0.0006285 -0.0010889
v -0.0011553 0.0009519 -0.0012706
v -0.0010999 0.0007887 -0.0013660
v -0.0011553 0.0011151 -0.0015173
v -0.0010968 0.0009488 -0.0016435
v -0.0011553 0.0013060 -0.0017421
v -0.0010814 0.0011120 -0.0019268
v -0.0011553 0.0015188 -0.0019453
v -0.0010506 0.0012844 -0.0022255
v -0.0010106 0.0014726 -0.0025523
f 385 386 387
f 387 386 388
f 386 389 388
f 388 389 390
f 389 391 390
f 390 391 392
f 391 393 392
f 392 393 394
f 393 395 394
f 394 395 396
f 395 397 396
f 396 397 398
f 397 399 398
f 398 399 400
f 399 401 400
f 400 401 402
f 401 403 402
f 402 403 404
f 404 403 405
f 403 406 405
f 405 406 407
f 406 408 407
f 407 408 409
f 408 410 409
f 409 410 411
f 410 412 411
f 411 412 413
f 412 414 413
f 413 414 415
f 414 416 415
f 415 416 417
f 416 418 417
f 417 418 419
f 418 420 419
f 419 420 421
f 420 422 421
f 421 422 423
f 423 422 424
f 422 425 424
f 424 425 426
f 425 427 426
f 426 427 428
f 427 429 428
f 428 429 430
f 429 431 430
f 430 431 432
f 431 433 432
f 432 433 434
f 433 435 434
f 434 435 436
f 435 437 436
f 436 437 438
f 437 439 438
f 438 439 440
f 439 441 440
f 440 441 442
f 442 441 443
f 441 444 443
f 443 444 445
f 444 446 445
f 445 446 447
f 446 448 447
f 447 448 449
f 448 450 449
f 449 450 451
f 450 452 451
f 451 452 453
f 452 454 453
f 453 454 455
f 454 456 455
f 455 456 457
f 456 458 457
f 457 458 459
f 458 460 459
f 459 460 461
f 461 460 462
f 460 463 462
f 462 463 464
f 463 465 464
f 464 465 466
f 465 467 466
f 466 467 468
f 467 469 468
f 468 469 470
f 469 471 470
f 470 471 472
f 471 473 472
f 472 473 474
f 473 475 474
f 474 475 476
f 475 477 476
f 476 477 478
f 477 479 478
f 478 479 480
f 480 479 481
f 479 482 481
f 481 482 483
f 482 484 483
f 483 484 485
f 484 486 485
f 485 486 487
f 486 488 487
f 487 488 489
f 488 490 489
f 489 490 491
f 490 492 491
f 491 492 493
f 492 494 493
f 493 494 495
f 494 496 495
f 495 496 497
f 496 385 497
f 497 385 498
f 385 387 498
f 499 500 501
f 501 500 502
f 500 503 502
f 502 503 504
f 503 505 504
f 504 505 506
f 505 507 506
f 506 507 508
f 507 509 508
f 508 509 510
f 509 511 510
f 510 511 512
f 511 513 512
f 512 513 514
f 513 515 514
f 514 515 516
f 515 517 516
f 516 517 518
f 518 517 519
f 517 520 519
f 519 520 521
f 520 522 521
f 521 522 523
f 522 524 523
f 523 524 525
f 524 526 525
f 525 526 527
f 526 528 527
f 527 528 529
f 528 530 529
f 529 530 531
f 530 532 531
f 531 532 533
f 532 534 533
f 533 534 535
f 534 536 535
f 535 536 537
f 537 536 538
f 536 539 538
f 538 539 540
f 539 541 540
f 540 541 542
f 541 543 542
f 542 543 544
f 543 545 544
f 544 545 546
f 545 547 546
f 546 547 548
f 547 549 548
f 548 549 550
f 549 551 550
f 550 551 552
f 551 553 552
f 552 553 554
f 553 555 554
f 554 555 556
f 556 555 557
f 555 558 557
f 557 558 559
f 558 560 559
f 559 560 561
f 560 562 561
f 561 562 563
f 562 564 563
f 563 564 565
f 564 566 565
f 565 566 567
f 566 568 567
f 567 568 569
f 568 570 569
f 569 570 571
f 570 572 571
f 571 572 573
f 572 574 573
f 573 574 575
f 575 574 576
f 574 577 576
f 576 577 578
f 577 579 578
f 578 579 580
f 579 581 580
f 580 581 582
f 581 583 582
f 582 583 584
f 583 585 584
f 584 585 586
f 585 587 586
f 586 587 588
f 587 589 588
f 588 589 590
f 589 591 590
f 590 591 592
f 591 593 592
f 592 593 594
f 594 593 595
f 593 596 595
f 595 596 597
f 596 598 597
f 597 598 599
f 598 600 599
f 599 600 601
f 600 602 601
f 601 602 603
f 602 604 603
f 603 604 605
f 604 606 605
f 605 606 607
f 606 608 607
f 607 608 609
f 608 610 609
f 609 610 611
f 610 499 611
f 611 499 612
f 499 501 612
